<svg width="1744.90" height="1742.70" viewBox="-43.54 -39.53 1744.90 1742.70" xmlns="http://www.w3.org/2000/svg">
<style>path {fill: none; stroke: grey; stroke-width: 6;} circle {fill: lightblue; stroke: none;} text {fill: black; stroke: none; font-size: 16; font-family: sans-serif; text-anchor:middle;}</style>
<path d="M1308.78,998.73,1228.20,973.75"/>
<path d="M1308.78,998.73,1277.67,1053.69"/>
<path d="M1308.78,998.73,1391.22,987.68"/>
<path d="M1308.78,998.73,1261.27,944.44"/>
<path d="M327.06,226.37,320.99,72.08"/>
<path d="M327.06,226.37,400.55,236.17"/>
<path d="M327.06,226.37,244.23,216.69"/>
<path d="M1096.09,1222.41,935.67,1247.40"/>
<path d="M1096.09,1222.41,1108.27,1317.83"/>
<path d="M1096.09,1222.41,1006.25,1034.75"/>
<path d="M1096.09,1222.41,1152.34,1206.05"/>
<path d="M1096.09,1222.41,1166.57,1277.12"/>
<path d="M121.40,744.30,64.73,651.36"/>
<path d="M121.40,744.30,241.86,854.08"/>
<path d="M121.40,744.30,193.33,673.44"/>
<path d="M121.40,744.30,108.08,929.12"/>
<path d="M121.40,744.30,7.59,742.53"/>
<path d="M121.40,744.30,243.86,735.26"/>
<path d="M102.74,1539.17,83.39,1458.97"/>
<path d="M102.74,1539.17,195.59,1599.64"/>
<path d="M102.74,1539.17,32.19,1502.40"/>
<path d="M1596.78,1428.86,1532.18,1463.60"/>
<path d="M1596.78,1428.86,1591.53,1533.59"/>
<path d="M1596.78,1428.86,1580.68,1399.91"/>
<path d="M935.67,1247.40,919.90,1206.91"/>
<path d="M935.67,1247.40,1108.27,1317.83"/>
<path d="M935.67,1247.40,766.81,1371.77"/>
<path d="M935.67,1247.40,745.56,1287.29"/>
<path d="M935.67,1247.40,954.37,1374.69"/>
<path d="M496.02,1368.85,549.66,1303.98"/>
<path d="M496.02,1368.85,463.84,1282.84"/>
<path d="M496.02,1368.85,382.41,1475.40"/>
<path d="M496.02,1368.85,564.83,1480.90"/>
<path d="M1248.12,1617.39,1277.58,1603.07"/>
<path d="M1248.12,1617.39,1237.76,1584.00"/>
<path d="M1248.12,1617.39,1211.40,1599.20"/>
<path d="M494.51,1639.63,429.70,1590.79"/>
<path d="M494.51,1639.63,467.23,1548.85"/>
<path d="M494.51,1639.63,532.81,1593.61"/>
<path d="M207.58,169.11,93.29,92.00"/>
<path d="M207.58,169.11,272.72,51.48"/>
<path d="M207.58,169.11,172.91,5.47"/>
<path d="M207.58,169.11,244.23,216.69"/>
<path d="M1063.56,34.33,963.64,63.70"/>
<path d="M1063.56,34.33,1093.96,55.72"/>
<path d="M1063.56,34.33,1030.50,117.55"/>
<path d="M608.75,1208.76,646.76,1201.64"/>
<path d="M608.75,1208.76,508.18,1135.59"/>
<path d="M608.75,1208.76,610.24,1243.53"/>
<path d="M1052.70,550.24,1103.06,703.29"/>
<path d="M1052.70,550.24,1041.58,483.36"/>
<path d="M1052.70,550.24,939.38,666.06"/>
<path d="M1052.70,550.24,1145.44,674.03"/>
<path d="M1052.70,550.24,1089.57,501.13"/>
<path d="M1242.85,1297.25,1298.70,1327.43"/>
<path d="M1242.85,1297.25,1185.53,1348.03"/>
<path d="M1242.85,1297.25,1230.76,1167.99"/>
<path d="M1242.85,1297.25,1166.57,1277.12"/>
<path d="M1582.86,840.72,1638.23,861.70"/>
<path d="M1582.86,840.72,1503.18,784.59"/>
<path d="M1582.86,840.72,1605.88,916.85"/>
<path d="M1629.26,442.23,1546.12,397.22"/>
<path d="M1629.26,442.23,1502.85,631.05"/>
<path d="M942.62,1479.44,946.10,1589.04"/>
<path d="M942.62,1479.44,846.06,1499.55"/>
<path d="M942.62,1479.44,1001.53,1569.58"/>
<path d="M942.62,1479.44,1031.35,1464.45"/>
<path d="M942.62,1479.44,949.76,1429.72"/>
<path d="M942.62,1479.44,876.30,1545.44"/>
<path d="M1601.50,1144.12,1618.96,1168.36"/>
<path d="M1601.50,1144.12,1558.17,1142.44"/>
<path d="M1601.50,1144.12,1599.91,1074.80"/>
<path d="M1396.30,608.79,1546.12,397.22"/>
<path d="M1396.30,608.79,1502.85,631.05"/>
<path d="M1396.30,608.79,1312.46,426.75"/>
<path d="M1396.30,608.79,1363.37,634.78"/>
<path d="M549.66,1303.98,596.34,1325.24"/>
<path d="M549.66,1303.98,463.84,1282.84"/>
<path d="M549.66,1303.98,610.24,1243.53"/>
<path d="M1055.32,1406.84,1108.27,1317.83"/>
<path d="M1055.32,1406.84,1057.05,1459.71"/>
<path d="M1055.32,1406.84,998.80,1409.15"/>
<path d="M1228.20,973.75,1277.67,1053.69"/>
<path d="M1228.20,973.75,1186.35,925.21"/>
<path d="M1228.20,973.75,1157.96,953.88"/>
<path d="M1228.20,973.75,1261.27,944.44"/>
<path d="M64.73,651.36,193.33,673.44"/>
<path d="M64.73,651.36,7.59,742.53"/>
<path d="M64.73,651.36,80.35,527.36"/>
<path d="M298.93,685.31,368.81,674.37"/>
<path d="M298.93,685.31,193.33,673.44"/>
<path d="M298.93,685.31,304.36,639.68"/>
<path d="M298.93,685.31,366.27,762.18"/>
<path d="M298.93,685.31,243.86,735.26"/>
<path d="M346.62,1006.65,271.82,1040.99"/>
<path d="M346.62,1006.65,464.78,1062.48"/>
<path d="M346.62,1006.65,385.86,1101.98"/>
<path d="M346.62,1006.65,373.89,938.57"/>
<path d="M1618.96,1168.36,1606.61,1246.99"/>
<path d="M1618.96,1168.36,1648.79,1148.57"/>
<path d="M1107.81,1616.44,1156.26,1533.22"/>
<path d="M1107.81,1616.44,1007.65,1629.51"/>
<path d="M1107.81,1616.44,1211.40,1599.20"/>
<path d="M1107.81,1616.44,1072.79,1545.75"/>
<path d="M241.86,854.08,187.92,930.75"/>
<path d="M241.86,854.08,366.27,762.18"/>
<path d="M241.86,854.08,373.89,938.57"/>
<path d="M241.86,854.08,243.86,735.26"/>
<path d="M1505.70,43.47,1433.86,32.09"/>
<path d="M1505.70,43.47,1444.55,84.04"/>
<path d="M1505.70,43.47,1634.92,34.87"/>
<path d="M1505.70,43.47,1506.94,85.31"/>
<path d="M963.64,63.70,913.63,103.58"/>
<path d="M963.64,63.70,1030.50,117.55"/>
<path d="M271.82,1040.99,385.86,1101.98"/>
<path d="M271.82,1040.99,191.92,983.31"/>
<path d="M271.82,1040.99,206.12,1117.50"/>
<path d="M165.03,1395.37,295.53,1395.10"/>
<path d="M165.03,1395.37,268.27,1503.81"/>
<path d="M165.03,1395.37,126.72,1396.26"/>
<path d="M165.03,1395.37,292.16,1465.95"/>
<path d="M919.90,1206.91,976.94,1030.24"/>
<path d="M919.90,1206.91,831.32,1141.10"/>
<path d="M919.90,1206.91,745.56,1287.29"/>
<path d="M685.56,1491.97,680.25,1441.67"/>
<path d="M685.56,1491.97,681.42,1540.66"/>
<path d="M685.56,1491.97,794.47,1470.77"/>
<path d="M685.56,1491.97,564.83,1480.90"/>
<path d="M657.09,214.45,599.66,96.27"/>
<path d="M657.09,214.45,689.36,359.50"/>
<path d="M657.09,214.45,605.90,218.07"/>
<path d="M657.09,214.45,650.90,363.28"/>
<path d="M657.09,214.45,734.27,185.29"/>
<path d="M1159.47,497.98,1147.87,414.46"/>
<path d="M1159.47,497.98,1174.77,524.04"/>
<path d="M1159.47,497.98,1089.57,501.13"/>
<path d="M1454.05,1235.69,1515.86,1189.31"/>
<path d="M1454.05,1235.69,1386.83,1195.56"/>
<path d="M1454.05,1235.69,1567.51,1307.19"/>
<path d="M1454.05,1235.69,1324.25,1309.35"/>
<path d="M1254.19,788.14,1208.56,736.41"/>
<path d="M1254.19,788.14,1264.98,857.71"/>
<path d="M1254.19,788.14,1310.14,780.36"/>
<path d="M1254.19,788.14,1197.58,845.48"/>
<path d="M1254.19,788.14,1251.98,699.76"/>
<path d="M1208.56,736.41,1121.72,737.88"/>
<path d="M1208.56,736.41,1145.44,674.03"/>
<path d="M1208.56,736.41,1251.98,699.76"/>
<path d="M1433.86,32.09,1444.55,84.04"/>
<path d="M1433.86,32.09,1368.20,49.97"/>
<path d="M913.63,103.58,882.40,154.76"/>
<path d="M1432.10,1079.16,1558.17,1142.44"/>
<path d="M1432.10,1079.16,1515.86,1189.31"/>
<path d="M1432.10,1079.16,1456.37,1023.55"/>
<path d="M1432.10,1079.16,1363.60,1116.97"/>
<path d="M599.66,96.27,757.57,112.02"/>
<path d="M599.66,96.27,605.90,218.07"/>
<path d="M599.66,96.27,503.68,206.04"/>
<path d="M599.66,96.27,593.04,67.32"/>
<path d="M723.82,1308.80,596.34,1325.24"/>
<path d="M723.82,1308.80,646.76,1201.64"/>
<path d="M723.82,1308.80,610.24,1243.53"/>
<path d="M723.82,1308.80,766.81,1371.77"/>
<path d="M723.82,1308.80,745.56,1287.29"/>
<path d="M83.39,1458.97,32.19,1502.40"/>
<path d="M83.39,1458.97,60.61,1363.78"/>
<path d="M83.39,1458.97,1.46,1415.55"/>
<path d="M83.39,1458.97,126.72,1396.26"/>
<path d="M632.67,1082.61,508.18,1135.59"/>
<path d="M632.67,1082.61,617.70,954.09"/>
<path d="M632.67,1082.61,639.43,1110.44"/>
<path d="M632.67,1082.61,684.96,1067.27"/>
<path d="M632.67,1082.61,481.29,1029.38"/>
<path d="M1444.55,84.04,1368.20,49.97"/>
<path d="M1444.55,84.04,1506.94,85.31"/>
<path d="M1127.21,1480.84,1057.05,1459.71"/>
<path d="M1127.21,1480.84,1245.89,1426.87"/>
<path d="M1127.21,1480.84,1185.53,1348.03"/>
<path d="M1127.21,1480.84,1156.26,1533.22"/>
<path d="M1127.21,1480.84,1058.35,1501.87"/>
<path d="M1127.21,1480.84,1072.79,1545.75"/>
<path d="M1121.72,737.88,1103.06,703.29"/>
<path d="M1121.72,737.88,1086.66,765.49"/>
<path d="M1121.72,737.88,1197.58,845.48"/>
<path d="M1300.92,96.05,1346.75,295.68"/>
<path d="M1300.92,96.05,1197.87,133.99"/>
<path d="M1300.92,96.05,1368.20,49.97"/>
<path d="M1277.67,1053.69,1230.76,1167.99"/>
<path d="M1277.67,1053.69,1363.60,1116.97"/>
<path d="M1277.67,1053.69,1327.14,1153.29"/>
<path d="M1558.17,1142.44,1599.91,1074.80"/>
<path d="M1558.17,1142.44,1515.86,1189.31"/>
<path d="M1151.85,222.20,1042.70,149.83"/>
<path d="M1151.85,222.20,1346.75,295.68"/>
<path d="M1151.85,222.20,1197.87,133.99"/>
<path d="M1151.85,222.20,1083.53,307.89"/>
<path d="M796.56,794.57,866.85,668.93"/>
<path d="M796.56,794.57,985.46,859.71"/>
<path d="M796.56,794.57,757.28,714.84"/>
<path d="M796.56,794.57,783.67,875.23"/>
<path d="M1482.82,971.13,1599.91,1074.80"/>
<path d="M1482.82,971.13,1398.97,898.20"/>
<path d="M1482.82,971.13,1623.53,1007.42"/>
<path d="M1482.82,971.13,1503.18,784.59"/>
<path d="M1482.82,971.13,1391.22,987.68"/>
<path d="M1482.82,971.13,1456.37,1023.55"/>
<path d="M1482.82,971.13,1605.88,916.85"/>
<path d="M391.12,1626.14,429.70,1590.79"/>
<path d="M391.12,1626.14,331.11,1621.58"/>
<path d="M1264.98,857.71,1398.97,898.20"/>
<path d="M1264.98,857.71,1310.14,780.36"/>
<path d="M1264.98,857.71,1186.35,925.21"/>
<path d="M1264.98,857.71,1197.58,845.48"/>
<path d="M1264.98,857.71,1261.27,944.44"/>
<path d="M1638.23,861.70,1638.92,896.54"/>
<path d="M1606.61,1246.99,1515.86,1189.31"/>
<path d="M1606.61,1246.99,1593.25,1312.38"/>
<path d="M1115.57,84.73,1093.96,55.72"/>
<path d="M1115.57,84.73,1197.87,133.99"/>
<path d="M1115.57,84.73,1030.50,117.55"/>
<path d="M810.62,426.22,689.36,359.50"/>
<path d="M810.62,426.22,891.01,323.23"/>
<path d="M810.62,426.22,867.99,474.44"/>
<path d="M810.62,426.22,946.91,375.83"/>
<path d="M810.62,426.22,714.49,497.95"/>
<path d="M866.85,668.93,939.38,666.06"/>
<path d="M866.85,668.93,792.07,662.36"/>
<path d="M866.85,668.93,867.99,474.44"/>
<path d="M1532.80,1644.26,1484.52,1578.35"/>
<path d="M1532.80,1644.26,1591.53,1533.59"/>
<path d="M368.81,674.37,427.69,685.55"/>
<path d="M368.81,674.37,304.36,639.68"/>
<path d="M368.81,674.37,444.12,584.97"/>
<path d="M368.81,674.37,366.27,762.18"/>
<path d="M1354.45,749.40,1365.06,691.28"/>
<path d="M1354.45,749.40,1398.97,898.20"/>
<path d="M1354.45,749.40,1310.14,780.36"/>
<path d="M1354.45,749.40,1503.18,784.59"/>
<path d="M1599.91,1074.80,1623.53,1007.42"/>
<path d="M1599.91,1074.80,1456.37,1023.55"/>
<path d="M62.51,1206.48,32.67,1283.61"/>
<path d="M62.51,1206.48,169.63,1094.61"/>
<path d="M293.89,1618.99,195.59,1599.64"/>
<path d="M293.89,1618.99,268.27,1503.81"/>
<path d="M293.89,1618.99,331.11,1621.58"/>
<path d="M959.03,954.66,976.94,1030.24"/>
<path d="M959.03,954.66,985.46,859.71"/>
<path d="M959.03,954.66,880.56,991.50"/>
<path d="M596.34,1325.24,680.25,1441.67"/>
<path d="M596.34,1325.24,610.24,1243.53"/>
<path d="M596.34,1325.24,564.83,1480.90"/>
<path d="M1388.74,1572.59,1484.52,1578.35"/>
<path d="M1388.74,1572.59,1351.36,1600.36"/>
<path d="M1388.74,1572.59,1418.08,1524.76"/>
<path d="M1388.74,1572.59,1360.97,1491.23"/>
<path d="M587.64,857.52,460.88,834.00"/>
<path d="M587.64,857.52,635.00,727.57"/>
<path d="M587.64,857.52,617.70,954.09"/>
<path d="M587.64,857.52,454.43,889.40"/>
<path d="M587.64,857.52,783.67,875.23"/>
<path d="M1515.86,1189.31,1567.51,1307.19"/>
<path d="M299.38,602.79,354.63,476.20"/>
<path d="M299.38,602.79,304.36,639.68"/>
<path d="M299.38,602.79,444.12,584.97"/>
<path d="M299.38,602.79,277.48,481.15"/>
<path d="M464.78,1062.48,385.86,1101.98"/>
<path d="M464.78,1062.48,508.18,1135.59"/>
<path d="M464.78,1062.48,481.29,1029.38"/>
<path d="M427.69,685.55,444.12,584.97"/>
<path d="M427.69,685.55,532.14,652.44"/>
<path d="M427.69,685.55,435.18,733.92"/>
<path d="M460.88,834.00,427.34,825.32"/>
<path d="M460.88,834.00,454.43,889.40"/>
<path d="M195.59,1599.64,268.27,1503.81"/>
<path d="M397.44,423.04,354.63,476.20"/>
<path d="M397.44,423.04,563.79,478.30"/>
<path d="M397.44,423.04,400.55,236.17"/>
<path d="M397.44,423.04,237.33,274.99"/>
<path d="M997.91,1655.36,930.98,1642.97"/>
<path d="M997.91,1655.36,1007.65,1629.51"/>
<path d="M757.57,112.02,882.40,154.76"/>
<path d="M757.57,112.02,837.52,206.92"/>
<path d="M757.57,112.02,734.27,185.29"/>
<path d="M1093.96,55.72,1030.50,117.55"/>
<path d="M635.00,727.57,711.12,715.68"/>
<path d="M635.00,727.57,606.13,687.31"/>
<path d="M1365.06,691.28,1363.37,634.78"/>
<path d="M1365.06,691.28,1251.98,699.76"/>
<path d="M93.29,92.00,172.91,5.47"/>
<path d="M1388.84,289.76,1546.12,397.22"/>
<path d="M1388.84,289.76,1346.75,295.68"/>
<path d="M1388.84,289.76,1532.37,203.94"/>
<path d="M1484.52,1578.35,1524.39,1493.99"/>
<path d="M1484.52,1578.35,1418.08,1524.76"/>
<path d="M1484.52,1578.35,1591.53,1533.59"/>
<path d="M1546.12,397.22,1502.85,631.05"/>
<path d="M1546.12,397.22,1532.37,203.94"/>
<path d="M1546.12,397.22,1312.46,426.75"/>
<path d="M1103.06,703.29,939.38,666.06"/>
<path d="M1103.06,703.29,1145.44,674.03"/>
<path d="M320.99,72.08,272.72,51.48"/>
<path d="M320.99,72.08,593.04,67.32"/>
<path d="M1386.83,1195.56,1363.60,1116.97"/>
<path d="M1386.83,1195.56,1327.14,1153.29"/>
<path d="M1386.83,1195.56,1324.25,1309.35"/>
<path d="M1634.92,34.87,1561.85,152.01"/>
<path d="M711.12,715.68,757.28,714.84"/>
<path d="M711.12,715.68,629.55,606.83"/>
<path d="M946.10,1589.04,1001.53,1569.58"/>
<path d="M946.10,1589.04,876.30,1545.44"/>
<path d="M946.10,1589.04,1007.65,1629.51"/>
<path d="M946.10,1589.04,918.89,1618.80"/>
<path d="M1204.11,561.05,1241.80,674.06"/>
<path d="M1204.11,561.05,1145.44,674.03"/>
<path d="M1204.11,561.05,1174.77,524.04"/>
<path d="M1204.11,561.05,1215.88,519.83"/>
<path d="M1041.58,483.36,993.65,448.18"/>
<path d="M1041.58,483.36,1089.57,501.13"/>
<path d="M1041.58,483.36,1096.74,387.27"/>
<path d="M930.98,1642.97,868.48,1651.83"/>
<path d="M930.98,1642.97,918.89,1618.80"/>
<path d="M731.42,1073.66,701.40,1027.71"/>
<path d="M731.42,1073.66,852.49,1032.64"/>
<path d="M731.42,1073.66,831.32,1141.10"/>
<path d="M731.42,1073.66,715.32,1116.64"/>
<path d="M731.42,1073.66,684.96,1067.27"/>
<path d="M846.06,1499.55,876.30,1545.44"/>
<path d="M846.06,1499.55,794.47,1470.77"/>
<path d="M1241.80,674.06,1145.44,674.03"/>
<path d="M1241.80,674.06,1363.37,634.78"/>
<path d="M1241.80,674.06,1251.98,699.76"/>
<path d="M354.63,476.20,444.12,584.97"/>
<path d="M354.63,476.20,277.48,481.15"/>
<path d="M76.67,475.69,192.09,463.43"/>
<path d="M76.67,475.69,80.35,527.36"/>
<path d="M76.67,475.69,2.75,487.23"/>
<path d="M680.25,1441.67,794.47,1470.77"/>
<path d="M680.25,1441.67,766.81,1371.77"/>
<path d="M680.25,1441.67,564.83,1480.90"/>
<path d="M1351.36,1600.36,1277.58,1603.07"/>
<path d="M1638.92,896.54,1656.36,955.43"/>
<path d="M1638.92,896.54,1605.88,916.85"/>
<path d="M1042.70,149.83,891.01,323.23"/>
<path d="M1042.70,149.83,1030.50,117.55"/>
<path d="M1042.70,149.83,1083.53,307.89"/>
<path d="M1001.53,1569.58,1007.65,1629.51"/>
<path d="M1001.53,1569.58,1072.79,1545.75"/>
<path d="M1502.85,631.05,1525.98,677.20"/>
<path d="M1108.27,1317.83,1185.53,1348.03"/>
<path d="M1108.27,1317.83,1166.57,1277.12"/>
<path d="M1517.48,172.92,1532.37,203.94"/>
<path d="M1517.48,172.92,1506.94,85.31"/>
<path d="M1517.48,172.92,1561.85,152.01"/>
<path d="M689.36,359.50,650.90,363.28"/>
<path d="M689.36,359.50,714.49,497.95"/>
<path d="M689.36,359.50,837.16,254.13"/>
<path d="M1524.39,1493.99,1532.18,1463.60"/>
<path d="M1524.39,1493.99,1418.08,1524.76"/>
<path d="M1524.39,1493.99,1591.53,1533.59"/>
<path d="M193.33,673.44,192.09,463.43"/>
<path d="M193.33,673.44,243.86,735.26"/>
<path d="M646.76,1201.64,715.32,1116.64"/>
<path d="M646.76,1201.64,639.43,1110.44"/>
<path d="M646.76,1201.64,745.56,1287.29"/>
<path d="M939.38,666.06,1006.43,802.14"/>
<path d="M939.38,666.06,867.99,474.44"/>
<path d="M1398.97,898.20,1310.14,780.36"/>
<path d="M1398.97,898.20,1503.18,784.59"/>
<path d="M1398.97,898.20,1391.22,987.68"/>
<path d="M1398.97,898.20,1261.27,944.44"/>
<path d="M427.34,825.32,366.27,762.18"/>
<path d="M427.34,825.32,435.18,733.92"/>
<path d="M427.34,825.32,404.61,907.85"/>
<path d="M385.86,1101.98,417.01,1187.33"/>
<path d="M187.92,930.75,191.92,983.31"/>
<path d="M187.92,930.75,108.08,929.12"/>
<path d="M563.79,478.30,444.12,584.97"/>
<path d="M563.79,478.30,532.14,652.44"/>
<path d="M563.79,478.30,714.49,497.95"/>
<path d="M563.79,478.30,596.99,391.77"/>
<path d="M563.79,478.30,629.55,606.83"/>
<path d="M993.65,448.18,1000.86,372.86"/>
<path d="M993.65,448.18,950.58,436.72"/>
<path d="M993.65,448.18,1096.74,387.27"/>
<path d="M976.94,1030.24,1006.25,1034.75"/>
<path d="M976.94,1030.24,880.56,991.50"/>
<path d="M792.07,662.36,757.28,714.84"/>
<path d="M792.07,662.36,867.99,474.44"/>
<path d="M792.07,662.36,714.49,497.95"/>
<path d="M1277.58,1603.07,1237.76,1584.00"/>
<path d="M701.40,1027.71,617.70,954.09"/>
<path d="M701.40,1027.71,783.67,875.23"/>
<path d="M701.40,1027.71,684.96,1067.27"/>
<path d="M1346.75,295.68,1197.87,133.99"/>
<path d="M1346.75,295.68,1312.46,426.75"/>
<path d="M1525.98,677.20,1503.18,784.59"/>
<path d="M605.90,218.07,650.90,363.28"/>
<path d="M605.90,218.07,503.68,206.04"/>
<path d="M400.55,236.17,503.68,206.04"/>
<path d="M1532.18,1463.60,1580.68,1399.91"/>
<path d="M1532.18,1463.60,1347.15,1388.47"/>
<path d="M1057.05,1459.71,1031.35,1464.45"/>
<path d="M1057.05,1459.71,1058.35,1501.87"/>
<path d="M191.92,983.31,169.63,1094.61"/>
<path d="M1418.08,1524.76,1360.97,1491.23"/>
<path d="M852.49,1032.64,831.32,1141.10"/>
<path d="M852.49,1032.64,880.56,991.50"/>
<path d="M868.48,1651.83,835.36,1596.12"/>
<path d="M868.48,1651.83,918.89,1618.80"/>
<path d="M108.08,929.12,7.59,742.53"/>
<path d="M463.84,1282.84,403.19,1299.31"/>
<path d="M463.84,1282.84,426.91,1248.73"/>
<path d="M1066.94,334.87,1000.86,372.86"/>
<path d="M1066.94,334.87,1096.74,387.27"/>
<path d="M1066.94,334.87,1083.53,307.89"/>
<path d="M1245.89,1426.87,1298.70,1327.43"/>
<path d="M1245.89,1426.87,1185.53,1348.03"/>
<path d="M1245.89,1426.87,1156.26,1533.22"/>
<path d="M1245.89,1426.87,1360.97,1491.23"/>
<path d="M1245.89,1426.87,1347.15,1388.47"/>
<path d="M1245.89,1426.87,1237.76,1584.00"/>
<path d="M1006.43,802.14,985.46,859.71"/>
<path d="M1006.43,802.14,1086.66,765.49"/>
<path d="M32.67,1283.61,60.61,1363.78"/>
<path d="M1623.53,1007.42,1656.36,955.43"/>
<path d="M444.12,584.97,532.14,652.44"/>
<path d="M1298.70,1327.43,1347.15,1388.47"/>
<path d="M1298.70,1327.43,1324.25,1309.35"/>
<path d="M891.01,323.23,946.91,375.83"/>
<path d="M891.01,323.23,837.16,254.13"/>
<path d="M1310.14,780.36,1251.98,699.76"/>
<path d="M1580.68,1399.91,1593.25,1312.38"/>
<path d="M295.53,1395.10,206.12,1117.50"/>
<path d="M295.53,1395.10,323.03,1404.22"/>
<path d="M295.53,1395.10,292.16,1465.95"/>
<path d="M277.48,481.15,192.09,463.43"/>
<path d="M277.48,481.15,237.33,274.99"/>
<path d="M1006.25,1034.75,1157.96,953.88"/>
<path d="M1031.35,1464.45,998.80,1409.15"/>
<path d="M1031.35,1464.45,1058.35,1501.87"/>
<path d="M623.95,1658.18,607.53,1561.40"/>
<path d="M623.95,1658.18,764.12,1614.74"/>
<path d="M623.95,1658.18,532.81,1593.61"/>
<path d="M949.76,1429.72,998.80,1409.15"/>
<path d="M949.76,1429.72,954.37,1374.69"/>
<path d="M985.46,859.71,1157.96,953.88"/>
<path d="M985.46,859.71,783.67,875.23"/>
<path d="M32.19,1502.40,9.59,1521.46"/>
<path d="M32.19,1502.40,1.46,1415.55"/>
<path d="M1185.53,1348.03,1166.57,1277.12"/>
<path d="M882.40,154.76,837.52,206.92"/>
<path d="M60.61,1363.78,1.46,1415.55"/>
<path d="M60.61,1363.78,115.07,1365.63"/>
<path d="M508.18,1135.59,639.43,1110.44"/>
<path d="M508.18,1135.59,417.01,1187.33"/>
<path d="M831.32,1141.10,715.32,1116.64"/>
<path d="M831.32,1141.10,745.56,1287.29"/>
<path d="M880.56,991.50,783.67,875.23"/>
<path d="M876.30,1545.44,835.36,1596.12"/>
<path d="M876.30,1545.44,918.89,1618.80"/>
<path d="M1186.35,925.21,1157.96,953.88"/>
<path d="M1186.35,925.21,1197.58,845.48"/>
<path d="M1186.35,925.21,1261.27,944.44"/>
<path d="M617.70,954.09,783.67,875.23"/>
<path d="M617.70,954.09,453.98,924.85"/>
<path d="M617.70,954.09,481.29,1029.38"/>
<path d="M606.13,687.31,532.14,652.44"/>
<path d="M606.13,687.31,629.55,606.83"/>
<path d="M206.12,1117.50,169.63,1094.61"/>
<path d="M272.72,51.48,172.91,5.47"/>
<path d="M1000.86,372.86,950.58,436.72"/>
<path d="M1000.86,372.86,946.91,375.83"/>
<path d="M1000.86,372.86,1096.74,387.27"/>
<path d="M429.70,1590.79,382.41,1475.40"/>
<path d="M429.70,1590.79,467.23,1548.85"/>
<path d="M681.42,1540.66,607.53,1561.40"/>
<path d="M681.42,1540.66,764.12,1614.74"/>
<path d="M1147.87,414.46,1312.46,426.75"/>
<path d="M1147.87,414.46,1089.57,501.13"/>
<path d="M1147.87,414.46,1096.74,387.27"/>
<path d="M1391.22,987.68,1456.37,1023.55"/>
<path d="M1156.26,1533.22,1211.40,1599.20"/>
<path d="M1156.26,1533.22,1072.79,1545.75"/>
<path d="M950.58,436.72,867.99,474.44"/>
<path d="M950.58,436.72,946.91,375.83"/>
<path d="M1152.34,1206.05,1230.76,1167.99"/>
<path d="M1152.34,1206.05,1166.57,1277.12"/>
<path d="M1230.76,1167.99,1327.14,1153.29"/>
<path d="M1593.25,1312.38,1567.51,1307.19"/>
<path d="M532.14,652.44,629.55,606.83"/>
<path d="M650.90,363.28,596.99,391.77"/>
<path d="M1532.37,203.94,1561.85,152.01"/>
<path d="M998.80,1409.15,954.37,1374.69"/>
<path d="M366.27,762.18,435.18,733.92"/>
<path d="M366.27,762.18,243.86,735.26"/>
<path d="M268.27,1503.81,292.16,1465.95"/>
<path d="M715.32,1116.64,639.43,1110.44"/>
<path d="M715.32,1116.64,684.96,1067.27"/>
<path d="M382.41,1475.40,331.11,1621.58"/>
<path d="M382.41,1475.40,323.03,1404.22"/>
<path d="M382.41,1475.40,467.23,1548.85"/>
<path d="M382.41,1475.40,292.16,1465.95"/>
<path d="M373.89,938.57,404.61,907.85"/>
<path d="M607.53,1561.40,564.83,1480.90"/>
<path d="M607.53,1561.40,520.00,1512.60"/>
<path d="M607.53,1561.40,532.81,1593.61"/>
<path d="M794.47,1470.77,766.81,1371.77"/>
<path d="M794.47,1470.77,764.12,1614.74"/>
<path d="M1506.94,85.31,1561.85,152.01"/>
<path d="M192.09,463.43,237.33,274.99"/>
<path d="M1174.77,524.04,1215.88,519.83"/>
<path d="M454.43,889.40,453.98,924.85"/>
<path d="M454.43,889.40,404.61,907.85"/>
<path d="M835.36,1596.12,764.12,1614.74"/>
<path d="M835.36,1596.12,918.89,1618.80"/>
<path d="M1215.88,519.83,1312.46,426.75"/>
<path d="M766.81,1371.77,954.37,1374.69"/>
<path d="M1360.97,1491.23,1347.15,1388.47"/>
<path d="M1086.66,765.49,1197.58,845.48"/>
<path d="M564.83,1480.90,520.00,1512.60"/>
<path d="M1058.35,1501.87,1072.79,1545.75"/>
<path d="M323.03,1404.22,403.19,1299.31"/>
<path d="M323.03,1404.22,292.16,1465.95"/>
<path d="M126.72,1396.26,115.07,1365.63"/>
<path d="M1656.36,955.43,1605.88,916.85"/>
<path d="M1089.57,501.13,1096.74,387.27"/>
<path d="M1347.15,1388.47,1324.25,1309.35"/>
<path d="M453.98,924.85,404.61,907.85"/>
<path d="M453.98,924.85,481.29,1029.38"/>
<path d="M403.19,1299.31,426.91,1248.73"/>
<path d="M80.35,527.36,2.75,487.23"/>
<path d="M714.49,497.95,596.99,391.77"/>
<path d="M714.49,497.95,629.55,606.83"/>
<path d="M1237.76,1584.00,1211.40,1599.20"/>
<path d="M520.00,1512.60,467.23,1548.85"/>
<path d="M520.00,1512.60,532.81,1593.61"/>
<path d="M837.52,206.92,734.27,185.29"/>
<path d="M837.52,206.92,837.16,254.13"/>
<path d="M467.23,1548.85,532.81,1593.61"/>
<path d="M1363.60,1116.97,1327.14,1153.29"/>
<path d="M426.91,1248.73,417.01,1187.33"/>
<path d="M244.23,216.69,237.33,274.99"/>
<circle cx="1308.78" cy="998.73" r="10"/>
<text x="1308.78" y="1003.73">R0</text>
<circle cx="327.06" cy="226.37" r="10"/>
<text x="327.06" y="231.37">R1</text>
<circle cx="1096.09" cy="1222.41" r="10"/>
<text x="1096.09" y="1227.41">R2</text>
<circle cx="121.40" cy="744.30" r="10"/>
<text x="121.40" y="749.30">R3</text>
<circle cx="102.74" cy="1539.17" r="10"/>
<text x="102.74" y="1544.17">R4</text>
<circle cx="1596.78" cy="1428.86" r="10"/>
<text x="1596.78" y="1433.86">R5</text>
<circle cx="935.67" cy="1247.40" r="10"/>
<text x="935.67" y="1252.40">R6</text>
<circle cx="496.02" cy="1368.85" r="10"/>
<text x="496.02" y="1373.85">R7</text>
<circle cx="1248.12" cy="1617.39" r="10"/>
<text x="1248.12" y="1622.39">R8</text>
<circle cx="494.51" cy="1639.63" r="10"/>
<text x="494.51" y="1644.63">R9</text>
<circle cx="207.58" cy="169.11" r="10"/>
<text x="207.58" y="174.11">R10</text>
<circle cx="1063.56" cy="34.33" r="10"/>
<text x="1063.56" y="39.33">R11</text>
<circle cx="608.75" cy="1208.76" r="10"/>
<text x="608.75" y="1213.76">R12</text>
<circle cx="1052.70" cy="550.24" r="10"/>
<text x="1052.70" y="555.24">R13</text>
<circle cx="1242.85" cy="1297.25" r="10"/>
<text x="1242.85" y="1302.25">R14</text>
<circle cx="1582.86" cy="840.72" r="10"/>
<text x="1582.86" y="845.72">R15</text>
<circle cx="1629.26" cy="442.23" r="10"/>
<text x="1629.26" y="447.23">R16</text>
<circle cx="942.62" cy="1479.44" r="10"/>
<text x="942.62" y="1484.44">R17</text>
<circle cx="1601.50" cy="1144.12" r="10"/>
<text x="1601.50" y="1149.12">R18</text>
<circle cx="1396.30" cy="608.79" r="10"/>
<text x="1396.30" y="613.79">R19</text>
<circle cx="549.66" cy="1303.98" r="10"/>
<text x="549.66" y="1308.98">R20</text>
<circle cx="1055.32" cy="1406.84" r="10"/>
<text x="1055.32" y="1411.84">R21</text>
<circle cx="1228.20" cy="973.75" r="10"/>
<text x="1228.20" y="978.75">R22</text>
<circle cx="64.73" cy="651.36" r="10"/>
<text x="64.73" y="656.36">R23</text>
<circle cx="298.93" cy="685.31" r="10"/>
<text x="298.93" y="690.31">R24</text>
<circle cx="346.62" cy="1006.65" r="10"/>
<text x="346.62" y="1011.65">R25</text>
<circle cx="1618.96" cy="1168.36" r="10"/>
<text x="1618.96" y="1173.36">R26</text>
<circle cx="1107.81" cy="1616.44" r="10"/>
<text x="1107.81" y="1621.44">R27</text>
<circle cx="241.86" cy="854.08" r="10"/>
<text x="241.86" y="859.08">R28</text>
<circle cx="1505.70" cy="43.47" r="10"/>
<text x="1505.70" y="48.47">R29</text>
<circle cx="963.64" cy="63.70" r="10"/>
<text x="963.64" y="68.70">R30</text>
<circle cx="271.82" cy="1040.99" r="10"/>
<text x="271.82" y="1045.99">R31</text>
<circle cx="165.03" cy="1395.37" r="10"/>
<text x="165.03" y="1400.37">R32</text>
<circle cx="919.90" cy="1206.91" r="10"/>
<text x="919.90" y="1211.91">R33</text>
<circle cx="685.56" cy="1491.97" r="10"/>
<text x="685.56" y="1496.97">R34</text>
<circle cx="657.09" cy="214.45" r="10"/>
<text x="657.09" y="219.45">R35</text>
<circle cx="1159.47" cy="497.98" r="10"/>
<text x="1159.47" y="502.98">R36</text>
<circle cx="1454.05" cy="1235.69" r="10"/>
<text x="1454.05" y="1240.69">R37</text>
<circle cx="1254.19" cy="788.14" r="10"/>
<text x="1254.19" y="793.14">R38</text>
<circle cx="1208.56" cy="736.41" r="10"/>
<text x="1208.56" y="741.41">R39</text>
<circle cx="1433.86" cy="32.09" r="10"/>
<text x="1433.86" y="37.09">R40</text>
<circle cx="913.63" cy="103.58" r="10"/>
<text x="913.63" y="108.58">R41</text>
<circle cx="1432.10" cy="1079.16" r="10"/>
<text x="1432.10" y="1084.16">R42</text>
<circle cx="599.66" cy="96.27" r="10"/>
<text x="599.66" y="101.27">R43</text>
<circle cx="723.82" cy="1308.80" r="10"/>
<text x="723.82" y="1313.80">R44</text>
<circle cx="83.39" cy="1458.97" r="10"/>
<text x="83.39" y="1463.97">R45</text>
<circle cx="632.67" cy="1082.61" r="10"/>
<text x="632.67" y="1087.61">R46</text>
<circle cx="1444.55" cy="84.04" r="10"/>
<text x="1444.55" y="89.04">R47</text>
<circle cx="1127.21" cy="1480.84" r="10"/>
<text x="1127.21" y="1485.84">R48</text>
<circle cx="1121.72" cy="737.88" r="10"/>
<text x="1121.72" y="742.88">R49</text>
<circle cx="1300.92" cy="96.05" r="10"/>
<text x="1300.92" y="101.05">R50</text>
<circle cx="1277.67" cy="1053.69" r="10"/>
<text x="1277.67" y="1058.69">R51</text>
<circle cx="1558.17" cy="1142.44" r="10"/>
<text x="1558.17" y="1147.44">R52</text>
<circle cx="1151.85" cy="222.20" r="10"/>
<text x="1151.85" y="227.20">R53</text>
<circle cx="796.56" cy="794.57" r="10"/>
<text x="796.56" y="799.57">R54</text>
<circle cx="1482.82" cy="971.13" r="10"/>
<text x="1482.82" y="976.13">R55</text>
<circle cx="391.12" cy="1626.14" r="10"/>
<text x="391.12" y="1631.14">R56</text>
<circle cx="1264.98" cy="857.71" r="10"/>
<text x="1264.98" y="862.71">R57</text>
<circle cx="1638.23" cy="861.70" r="10"/>
<text x="1638.23" y="866.70">R58</text>
<circle cx="1606.61" cy="1246.99" r="10"/>
<text x="1606.61" y="1251.99">R59</text>
<circle cx="1115.57" cy="84.73" r="10"/>
<text x="1115.57" y="89.73">R60</text>
<circle cx="810.62" cy="426.22" r="10"/>
<text x="810.62" y="431.22">R61</text>
<circle cx="866.85" cy="668.93" r="10"/>
<text x="866.85" y="673.93">R62</text>
<circle cx="1532.80" cy="1644.26" r="10"/>
<text x="1532.80" y="1649.26">R63</text>
<circle cx="368.81" cy="674.37" r="10"/>
<text x="368.81" y="679.37">R64</text>
<circle cx="1354.45" cy="749.40" r="10"/>
<text x="1354.45" y="754.40">R65</text>
<circle cx="1599.91" cy="1074.80" r="10"/>
<text x="1599.91" y="1079.80">R66</text>
<circle cx="62.51" cy="1206.48" r="10"/>
<text x="62.51" y="1211.48">R67</text>
<circle cx="293.89" cy="1618.99" r="10"/>
<text x="293.89" y="1623.99">R68</text>
<circle cx="959.03" cy="954.66" r="10"/>
<text x="959.03" y="959.66">R69</text>
<circle cx="596.34" cy="1325.24" r="10"/>
<text x="596.34" y="1330.24">R70</text>
<circle cx="1388.74" cy="1572.59" r="10"/>
<text x="1388.74" y="1577.59">R71</text>
<circle cx="587.64" cy="857.52" r="10"/>
<text x="587.64" y="862.52">R72</text>
<circle cx="1515.86" cy="1189.31" r="10"/>
<text x="1515.86" y="1194.31">R73</text>
<circle cx="299.38" cy="602.79" r="10"/>
<text x="299.38" y="607.79">R74</text>
<circle cx="464.78" cy="1062.48" r="10"/>
<text x="464.78" y="1067.48">R75</text>
<circle cx="427.69" cy="685.55" r="10"/>
<text x="427.69" y="690.55">R76</text>
<circle cx="460.88" cy="834.00" r="10"/>
<text x="460.88" y="839.00">R77</text>
<circle cx="195.59" cy="1599.64" r="10"/>
<text x="195.59" y="1604.64">R78</text>
<circle cx="397.44" cy="423.04" r="10"/>
<text x="397.44" y="428.04">R79</text>
<circle cx="997.91" cy="1655.36" r="10"/>
<text x="997.91" y="1660.36">R80</text>
<circle cx="757.57" cy="112.02" r="10"/>
<text x="757.57" y="117.02">R81</text>
<circle cx="1093.96" cy="55.72" r="10"/>
<text x="1093.96" y="60.72">R82</text>
<circle cx="635.00" cy="727.57" r="10"/>
<text x="635.00" y="732.57">R83</text>
<circle cx="1365.06" cy="691.28" r="10"/>
<text x="1365.06" y="696.28">R84</text>
<circle cx="93.29" cy="92.00" r="10"/>
<text x="93.29" y="97.00">R85</text>
<circle cx="1388.84" cy="289.76" r="10"/>
<text x="1388.84" y="294.76">R86</text>
<circle cx="1484.52" cy="1578.35" r="10"/>
<text x="1484.52" y="1583.35">R87</text>
<circle cx="1546.12" cy="397.22" r="10"/>
<text x="1546.12" y="402.22">R88</text>
<circle cx="1103.06" cy="703.29" r="10"/>
<text x="1103.06" y="708.29">R89</text>
<circle cx="320.99" cy="72.08" r="10"/>
<text x="320.99" y="77.08">R90</text>
<circle cx="1386.83" cy="1195.56" r="10"/>
<text x="1386.83" y="1200.56">R91</text>
<circle cx="1634.92" cy="34.87" r="10"/>
<text x="1634.92" y="39.87">R92</text>
<circle cx="711.12" cy="715.68" r="10"/>
<text x="711.12" y="720.68">R93</text>
<circle cx="946.10" cy="1589.04" r="10"/>
<text x="946.10" y="1594.04">R94</text>
<circle cx="1204.11" cy="561.05" r="10"/>
<text x="1204.11" y="566.05">R95</text>
<circle cx="1041.58" cy="483.36" r="10"/>
<text x="1041.58" y="488.36">R96</text>
<circle cx="930.98" cy="1642.97" r="10"/>
<text x="930.98" y="1647.97">R97</text>
<circle cx="731.42" cy="1073.66" r="10"/>
<text x="731.42" y="1078.66">R98</text>
<circle cx="846.06" cy="1499.55" r="10"/>
<text x="846.06" y="1504.55">R99</text>
<circle cx="1241.80" cy="674.06" r="10"/>
<text x="1241.80" y="679.06">R100</text>
<circle cx="354.63" cy="476.20" r="10"/>
<text x="354.63" y="481.20">R101</text>
<circle cx="76.67" cy="475.69" r="10"/>
<text x="76.67" y="480.69">R102</text>
<circle cx="680.25" cy="1441.67" r="10"/>
<text x="680.25" y="1446.67">R103</text>
<circle cx="1351.36" cy="1600.36" r="10"/>
<text x="1351.36" y="1605.36">R104</text>
<circle cx="1638.92" cy="896.54" r="10"/>
<text x="1638.92" y="901.54">R105</text>
<circle cx="1042.70" cy="149.83" r="10"/>
<text x="1042.70" y="154.83">R106</text>
<circle cx="1001.53" cy="1569.58" r="10"/>
<text x="1001.53" y="1574.58">R107</text>
<circle cx="1502.85" cy="631.05" r="10"/>
<text x="1502.85" y="636.05">R108</text>
<circle cx="1108.27" cy="1317.83" r="10"/>
<text x="1108.27" y="1322.83">R109</text>
<circle cx="1517.48" cy="172.92" r="10"/>
<text x="1517.48" y="177.92">R110</text>
<circle cx="689.36" cy="359.50" r="10"/>
<text x="689.36" y="364.50">R111</text>
<circle cx="1524.39" cy="1493.99" r="10"/>
<text x="1524.39" y="1498.99">R112</text>
<circle cx="193.33" cy="673.44" r="10"/>
<text x="193.33" y="678.44">R113</text>
<circle cx="646.76" cy="1201.64" r="10"/>
<text x="646.76" y="1206.64">R114</text>
<circle cx="939.38" cy="666.06" r="10"/>
<text x="939.38" y="671.06">R115</text>
<circle cx="1398.97" cy="898.20" r="10"/>
<text x="1398.97" y="903.20">R116</text>
<circle cx="304.36" cy="639.68" r="10"/>
<text x="304.36" y="644.68">R117</text>
<circle cx="1145.44" cy="674.03" r="10"/>
<text x="1145.44" y="679.03">R118</text>
<circle cx="427.34" cy="825.32" r="10"/>
<text x="427.34" y="830.32">R119</text>
<circle cx="385.86" cy="1101.98" r="10"/>
<text x="385.86" y="1106.98">R120</text>
<circle cx="187.92" cy="930.75" r="10"/>
<text x="187.92" y="935.75">R121</text>
<circle cx="563.79" cy="478.30" r="10"/>
<text x="563.79" y="483.30">R122</text>
<circle cx="993.65" cy="448.18" r="10"/>
<text x="993.65" y="453.18">R123</text>
<circle cx="976.94" cy="1030.24" r="10"/>
<text x="976.94" y="1035.24">R124</text>
<circle cx="792.07" cy="662.36" r="10"/>
<text x="792.07" y="667.36">R125</text>
<circle cx="1277.58" cy="1603.07" r="10"/>
<text x="1277.58" y="1608.07">R126</text>
<circle cx="701.40" cy="1027.71" r="10"/>
<text x="701.40" y="1032.71">R127</text>
<circle cx="1346.75" cy="295.68" r="10"/>
<text x="1346.75" y="300.68">R128</text>
<circle cx="1525.98" cy="677.20" r="10"/>
<text x="1525.98" y="682.20">R129</text>
<circle cx="605.90" cy="218.07" r="10"/>
<text x="605.90" y="223.07">R130</text>
<circle cx="400.55" cy="236.17" r="10"/>
<text x="400.55" y="241.17">R131</text>
<circle cx="1532.18" cy="1463.60" r="10"/>
<text x="1532.18" y="1468.60">R132</text>
<circle cx="1057.05" cy="1459.71" r="10"/>
<text x="1057.05" y="1464.71">R133</text>
<circle cx="191.92" cy="983.31" r="10"/>
<text x="191.92" y="988.31">R134</text>
<circle cx="1418.08" cy="1524.76" r="10"/>
<text x="1418.08" y="1529.76">R135</text>
<circle cx="852.49" cy="1032.64" r="10"/>
<text x="852.49" y="1037.64">R136</text>
<circle cx="868.48" cy="1651.83" r="10"/>
<text x="868.48" y="1656.83">R137</text>
<circle cx="108.08" cy="929.12" r="10"/>
<text x="108.08" y="934.12">R138</text>
<circle cx="463.84" cy="1282.84" r="10"/>
<text x="463.84" y="1287.84">R139</text>
<circle cx="1066.94" cy="334.87" r="10"/>
<text x="1066.94" y="339.87">R140</text>
<circle cx="1197.87" cy="133.99" r="10"/>
<text x="1197.87" y="138.99">R141</text>
<circle cx="1245.89" cy="1426.87" r="10"/>
<text x="1245.89" y="1431.87">R142</text>
<circle cx="1006.43" cy="802.14" r="10"/>
<text x="1006.43" y="807.14">R143</text>
<circle cx="32.67" cy="1283.61" r="10"/>
<text x="32.67" y="1288.61">R144</text>
<circle cx="1623.53" cy="1007.42" r="10"/>
<text x="1623.53" y="1012.42">R145</text>
<circle cx="444.12" cy="584.97" r="10"/>
<text x="444.12" y="589.97">R146</text>
<circle cx="1298.70" cy="1327.43" r="10"/>
<text x="1298.70" y="1332.43">R147</text>
<circle cx="1591.53" cy="1533.59" r="10"/>
<text x="1591.53" y="1538.59">R148</text>
<circle cx="891.01" cy="323.23" r="10"/>
<text x="891.01" y="328.23">R149</text>
<circle cx="1310.14" cy="780.36" r="10"/>
<text x="1310.14" y="785.36">R150</text>
<circle cx="1580.68" cy="1399.91" r="10"/>
<text x="1580.68" y="1404.91">R151</text>
<circle cx="295.53" cy="1395.10" r="10"/>
<text x="295.53" y="1400.10">R152</text>
<circle cx="277.48" cy="481.15" r="10"/>
<text x="277.48" y="486.15">R153</text>
<circle cx="1006.25" cy="1034.75" r="10"/>
<text x="1006.25" y="1039.75">R154</text>
<circle cx="1031.35" cy="1464.45" r="10"/>
<text x="1031.35" y="1469.45">R155</text>
<circle cx="623.95" cy="1658.18" r="10"/>
<text x="623.95" y="1663.18">R156</text>
<circle cx="949.76" cy="1429.72" r="10"/>
<text x="949.76" y="1434.72">R157</text>
<circle cx="1030.50" cy="117.55" r="10"/>
<text x="1030.50" y="122.55">R158</text>
<circle cx="1503.18" cy="784.59" r="10"/>
<text x="1503.18" y="789.59">R159</text>
<circle cx="985.46" cy="859.71" r="10"/>
<text x="985.46" y="864.71">R160</text>
<circle cx="32.19" cy="1502.40" r="10"/>
<text x="32.19" y="1507.40">R161</text>
<circle cx="1185.53" cy="1348.03" r="10"/>
<text x="1185.53" y="1353.03">R162</text>
<circle cx="882.40" cy="154.76" r="10"/>
<text x="882.40" y="159.76">R163</text>
<circle cx="60.61" cy="1363.78" r="10"/>
<text x="60.61" y="1368.78">R164</text>
<circle cx="508.18" cy="1135.59" r="10"/>
<text x="508.18" y="1140.59">R165</text>
<circle cx="831.32" cy="1141.10" r="10"/>
<text x="831.32" y="1146.10">R166</text>
<circle cx="1648.79" cy="1148.57" r="10"/>
<text x="1648.79" y="1153.57">R167</text>
<circle cx="880.56" cy="991.50" r="10"/>
<text x="880.56" y="996.50">R168</text>
<circle cx="876.30" cy="1545.44" r="10"/>
<text x="876.30" y="1550.44">R169</text>
<circle cx="1186.35" cy="925.21" r="10"/>
<text x="1186.35" y="930.21">R170</text>
<circle cx="617.70" cy="954.09" r="10"/>
<text x="617.70" y="959.09">R171</text>
<circle cx="606.13" cy="687.31" r="10"/>
<text x="606.13" y="692.31">R172</text>
<circle cx="206.12" cy="1117.50" r="10"/>
<text x="206.12" y="1122.50">R173</text>
<circle cx="9.59" cy="1521.46" r="10"/>
<text x="9.59" y="1526.46">R174</text>
<circle cx="272.72" cy="51.48" r="10"/>
<text x="272.72" y="56.48">R175</text>
<circle cx="1000.86" cy="372.86" r="10"/>
<text x="1000.86" y="377.86">R176</text>
<circle cx="429.70" cy="1590.79" r="10"/>
<text x="429.70" y="1595.79">R177</text>
<circle cx="681.42" cy="1540.66" r="10"/>
<text x="681.42" y="1545.66">R178</text>
<circle cx="1147.87" cy="414.46" r="10"/>
<text x="1147.87" y="419.46">R179</text>
<circle cx="1391.22" cy="987.68" r="10"/>
<text x="1391.22" y="992.68">R180</text>
<circle cx="1156.26" cy="1533.22" r="10"/>
<text x="1156.26" y="1538.22">R181</text>
<circle cx="950.58" cy="436.72" r="10"/>
<text x="950.58" y="441.72">R182</text>
<circle cx="1368.20" cy="49.97" r="10"/>
<text x="1368.20" y="54.97">R183</text>
<circle cx="1152.34" cy="1206.05" r="10"/>
<text x="1152.34" y="1211.05">R184</text>
<circle cx="1230.76" cy="1167.99" r="10"/>
<text x="1230.76" y="1172.99">R185</text>
<circle cx="757.28" cy="714.84" r="10"/>
<text x="757.28" y="719.84">R186</text>
<circle cx="1593.25" cy="1312.38" r="10"/>
<text x="1593.25" y="1317.38">R187</text>
<circle cx="532.14" cy="652.44" r="10"/>
<text x="532.14" y="657.44">R188</text>
<circle cx="650.90" cy="363.28" r="10"/>
<text x="650.90" y="368.28">R189</text>
<circle cx="1532.37" cy="203.94" r="10"/>
<text x="1532.37" y="208.94">R190</text>
<circle cx="998.80" cy="1409.15" r="10"/>
<text x="998.80" y="1414.15">R191</text>
<circle cx="366.27" cy="762.18" r="10"/>
<text x="366.27" y="767.18">R192</text>
<circle cx="268.27" cy="1503.81" r="10"/>
<text x="268.27" y="1508.81">R193</text>
<circle cx="1007.65" cy="1629.51" r="10"/>
<text x="1007.65" y="1634.51">R194</text>
<circle cx="1166.57" cy="1277.12" r="10"/>
<text x="1166.57" y="1282.12">R195</text>
<circle cx="610.24" cy="1243.53" r="10"/>
<text x="610.24" y="1248.53">R196</text>
<circle cx="715.32" cy="1116.64" r="10"/>
<text x="715.32" y="1121.64">R197</text>
<circle cx="382.41" cy="1475.40" r="10"/>
<text x="382.41" y="1480.40">R198</text>
<circle cx="503.68" cy="206.04" r="10"/>
<text x="503.68" y="211.04">R199</text>
<circle cx="639.43" cy="1110.44" r="10"/>
<text x="639.43" y="1115.44">R200</text>
<circle cx="373.89" cy="938.57" r="10"/>
<text x="373.89" y="943.57">R201</text>
<circle cx="607.53" cy="1561.40" r="10"/>
<text x="607.53" y="1566.40">R202</text>
<circle cx="794.47" cy="1470.77" r="10"/>
<text x="794.47" y="1475.77">R203</text>
<circle cx="1567.51" cy="1307.19" r="10"/>
<text x="1567.51" y="1312.19">R204</text>
<circle cx="7.59" cy="742.53" r="10"/>
<text x="7.59" y="747.53">R205</text>
<circle cx="1.46" cy="1415.55" r="10"/>
<text x="1.46" y="1420.55">R206</text>
<circle cx="172.91" cy="5.47" r="10"/>
<text x="172.91" y="10.47">R207</text>
<circle cx="1456.37" cy="1023.55" r="10"/>
<text x="1456.37" y="1028.55">R208</text>
<circle cx="1506.94" cy="85.31" r="10"/>
<text x="1506.94" y="90.31">R209</text>
<circle cx="192.09" cy="463.43" r="10"/>
<text x="192.09" y="468.43">R210</text>
<circle cx="1174.77" cy="524.04" r="10"/>
<text x="1174.77" y="529.04">R211</text>
<circle cx="1157.96" cy="953.88" r="10"/>
<text x="1157.96" y="958.88">R212</text>
<circle cx="867.99" cy="474.44" r="10"/>
<text x="867.99" y="479.44">R213</text>
<circle cx="454.43" cy="889.40" r="10"/>
<text x="454.43" y="894.40">R214</text>
<circle cx="835.36" cy="1596.12" r="10"/>
<text x="835.36" y="1601.12">R215</text>
<circle cx="1215.88" cy="519.83" r="10"/>
<text x="1215.88" y="524.83">R216</text>
<circle cx="783.67" cy="875.23" r="10"/>
<text x="783.67" y="880.23">R217</text>
<circle cx="766.81" cy="1371.77" r="10"/>
<text x="766.81" y="1376.77">R218</text>
<circle cx="435.18" cy="733.92" r="10"/>
<text x="435.18" y="738.92">R219</text>
<circle cx="684.96" cy="1067.27" r="10"/>
<text x="684.96" y="1072.27">R220</text>
<circle cx="1360.97" cy="1491.23" r="10"/>
<text x="1360.97" y="1496.23">R221</text>
<circle cx="1086.66" cy="765.49" r="10"/>
<text x="1086.66" y="770.49">R222</text>
<circle cx="331.11" cy="1621.58" r="10"/>
<text x="331.11" y="1626.58">R223</text>
<circle cx="564.83" cy="1480.90" r="10"/>
<text x="564.83" y="1485.90">R224</text>
<circle cx="946.91" cy="375.83" r="10"/>
<text x="946.91" y="380.83">R225</text>
<circle cx="1058.35" cy="1501.87" r="10"/>
<text x="1058.35" y="1506.87">R226</text>
<circle cx="745.56" cy="1287.29" r="10"/>
<text x="745.56" y="1292.29">R227</text>
<circle cx="323.03" cy="1404.22" r="10"/>
<text x="323.03" y="1409.22">R228</text>
<circle cx="954.37" cy="1374.69" r="10"/>
<text x="954.37" y="1379.69">R229</text>
<circle cx="1312.46" cy="426.75" r="10"/>
<text x="1312.46" y="431.75">R230</text>
<circle cx="126.72" cy="1396.26" r="10"/>
<text x="126.72" y="1401.26">R231</text>
<circle cx="764.12" cy="1614.74" r="10"/>
<text x="764.12" y="1619.74">R232</text>
<circle cx="1656.36" cy="955.43" r="10"/>
<text x="1656.36" y="960.43">R233</text>
<circle cx="1089.57" cy="501.13" r="10"/>
<text x="1089.57" y="506.13">R234</text>
<circle cx="1347.15" cy="1388.47" r="10"/>
<text x="1347.15" y="1393.47">R235</text>
<circle cx="453.98" cy="924.85" r="10"/>
<text x="453.98" y="929.85">R236</text>
<circle cx="1096.74" cy="387.27" r="10"/>
<text x="1096.74" y="392.27">R237</text>
<circle cx="1605.88" cy="916.85" r="10"/>
<text x="1605.88" y="921.85">R238</text>
<circle cx="403.19" cy="1299.31" r="10"/>
<text x="403.19" y="1304.31">R239</text>
<circle cx="80.35" cy="527.36" r="10"/>
<text x="80.35" y="532.36">R240</text>
<circle cx="714.49" cy="497.95" r="10"/>
<text x="714.49" y="502.95">R241</text>
<circle cx="404.61" cy="907.85" r="10"/>
<text x="404.61" y="912.85">R242</text>
<circle cx="1237.76" cy="1584.00" r="10"/>
<text x="1237.76" y="1589.00">R243</text>
<circle cx="520.00" cy="1512.60" r="10"/>
<text x="520.00" y="1517.60">R244</text>
<circle cx="1211.40" cy="1599.20" r="10"/>
<text x="1211.40" y="1604.20">R245</text>
<circle cx="837.52" cy="206.92" r="10"/>
<text x="837.52" y="211.92">R246</text>
<circle cx="918.89" cy="1618.80" r="10"/>
<text x="918.89" y="1623.80">R247</text>
<circle cx="169.63" cy="1094.61" r="10"/>
<text x="169.63" y="1099.61">R248</text>
<circle cx="1197.58" cy="845.48" r="10"/>
<text x="1197.58" y="850.48">R249</text>
<circle cx="1363.37" cy="634.78" r="10"/>
<text x="1363.37" y="639.78">R250</text>
<circle cx="467.23" cy="1548.85" r="10"/>
<text x="467.23" y="1553.85">R251</text>
<circle cx="734.27" cy="185.29" r="10"/>
<text x="734.27" y="190.29">R252</text>
<circle cx="1261.27" cy="944.44" r="10"/>
<text x="1261.27" y="949.44">R253</text>
<circle cx="596.99" cy="391.77" r="10"/>
<text x="596.99" y="396.77">R254</text>
<circle cx="243.86" cy="735.26" r="10"/>
<text x="243.86" y="740.26">R255</text>
<circle cx="837.16" cy="254.13" r="10"/>
<text x="837.16" y="259.13">R256</text>
<circle cx="532.81" cy="1593.61" r="10"/>
<text x="532.81" y="1598.61">R257</text>
<circle cx="292.16" cy="1465.95" r="10"/>
<text x="292.16" y="1470.95">R258</text>
<circle cx="1072.79" cy="1545.75" r="10"/>
<text x="1072.79" y="1550.75">R259</text>
<circle cx="1363.60" cy="1116.97" r="10"/>
<text x="1363.60" y="1121.97">R260</text>
<circle cx="1327.14" cy="1153.29" r="10"/>
<text x="1327.14" y="1158.29">R261</text>
<circle cx="1083.53" cy="307.89" r="10"/>
<text x="1083.53" y="312.89">R262</text>
<circle cx="629.55" cy="606.83" r="10"/>
<text x="629.55" y="611.83">R263</text>
<circle cx="426.91" cy="1248.73" r="10"/>
<text x="426.91" y="1253.73">R264</text>
<circle cx="1561.85" cy="152.01" r="10"/>
<text x="1561.85" y="157.01">R265</text>
<circle cx="115.07" cy="1365.63" r="10"/>
<text x="115.07" y="1370.63">R266</text>
<circle cx="1251.98" cy="699.76" r="10"/>
<text x="1251.98" y="704.76">R267</text>
<circle cx="481.29" cy="1029.38" r="10"/>
<text x="481.29" y="1034.38">R268</text>
<circle cx="244.23" cy="216.69" r="10"/>
<text x="244.23" y="221.69">R269</text>
<circle cx="593.04" cy="67.32" r="10"/>
<text x="593.04" y="72.32">R270</text>
<circle cx="237.33" cy="274.99" r="10"/>
<text x="237.33" y="279.99">R271</text>
<circle cx="1324.25" cy="1309.35" r="10"/>
<text x="1324.25" y="1314.35">R272</text>
<circle cx="417.01" cy="1187.33" r="10"/>
<text x="417.01" y="1192.33">R273</text>
<circle cx="2.75" cy="487.23" r="10"/>
<text x="2.75" y="492.23">R274</text>
</svg>
