<svg id="topo" viewBox="-78.20 -1725.94 1816.04 1794.93" xmlns="http://www.w3.org/2000/svg">
<style>#topo path {fill: none; stroke: grey; stroke-width: 5.0000px;} #topo circle {fill: lightblue; stroke: none; stroke-width: 0.3px; vector-effect: non-scaling-stroke; r: 10.0000px;} #topo text {fill: black; stroke: none; font-size: 15.0000px; font-family: sans-serif; text-anchor:middle; transform: translateY(0.3em);} #topo path.country {fill: lightgrey; stroke: black; stroke-width: 1px; vector-effect: non-scaling-stroke; visibility: visible;} #topo path.selection {fill: none; stroke: red; stroke-width: 1px; vector-effect: non-scaling-stroke; visibility: visible;} #topo path.utilization {visibility: hidden;}</style>
<path data-id="0-9" d="M815.91,-939.99,696.02,-922.04"/>
<path data-id="0-55" d="M815.91,-939.99,757.82,-1025.64"/>
<path data-id="0-75" d="M815.91,-939.99,838.24,-971.09"/>
<path data-id="0-102" d="M815.91,-939.99,872.92,-889.44"/>
<path data-id="1-104" d="M263.92,-923.42,284.72,-881.63"/>
<path data-id="1-130" d="M263.92,-923.42,275.41,-1007.28"/>
<path data-id="1-178" d="M263.92,-923.42,352.92,-921.97"/>
<path data-id="1-207" d="M263.92,-923.42,222.86,-950.35"/>
<path data-id="1-271" d="M263.92,-923.42,191.99,-836.53"/>
<path data-id="2-221" d="M1655.30,-978.94,1602.76,-853.36"/>
<path data-id="2-260" d="M1655.30,-978.94,1616.55,-1033.11"/>
<path data-id="3-116" d="M986.29,-1565.57,1023.49,-1520.39"/>
<path data-id="3-137" d="M986.29,-1565.57,967.27,-1582.42"/>
<path data-id="3-213" d="M986.29,-1565.57,1010.38,-1598.86"/>
<path data-id="4-150" d="M994.02,-116.91,916.44,-141.69"/>
<path data-id="4-247" d="M994.02,-116.91,1014.46,-140.96"/>
<path data-id="5-41" d="M450.72,-1591.16,630.09,-1598.82"/>
<path data-id="5-49" d="M450.72,-1591.16,468.00,-1530.69"/>
<path data-id="5-145" d="M450.72,-1591.16,394.23,-1612.45"/>
<path data-id="6-31" d="M1188.71,-200.71,1188.53,-239.17"/>
<path data-id="6-43" d="M1188.71,-200.71,1154.22,-224.37"/>
<path data-id="6-65" d="M1188.71,-200.71,1224.10,-169.35"/>
<path data-id="7-55" d="M819.06,-1090.74,757.82,-1025.64"/>
<path data-id="7-58" d="M819.06,-1090.74,871.05,-1076.28"/>
<path data-id="7-75" d="M819.06,-1090.74,838.24,-971.09"/>
<path data-id="7-165" d="M819.06,-1090.74,845.95,-1127.41"/>
<path data-id="7-228" d="M819.06,-1090.74,759.33,-1133.32"/>
<path data-id="8-28" d="M1217.57,-1132.91,1188.27,-1101.83"/>
<path data-id="8-108" d="M1217.57,-1132.91,1114.84,-1202.22"/>
<path data-id="8-127" d="M1217.57,-1132.91,1257.47,-1139.45"/>
<path data-id="9-55" d="M696.02,-922.04,757.82,-1025.64"/>
<path data-id="9-196" d="M696.02,-922.04,668.29,-853.24"/>
<path data-id="9-210" d="M696.02,-922.04,604.71,-1018.51"/>
<path data-id="9-266" d="M696.02,-922.04,550.09,-903.70"/>
<path data-id="10-138" d="M1141.61,-40.62,1237.91,-125.11"/>
<path data-id="10-204" d="M1141.61,-40.62,1104.82,-48.05"/>
<path data-id="11-21" d="M483.69,-844.23,434.08,-782.32"/>
<path data-id="11-66" d="M483.69,-844.23,469.40,-882.76"/>
<path data-id="11-209" d="M483.69,-844.23,516.08,-841.34"/>
<path data-id="12-51" d="M1625.45,-1644.35,1589.87,-1640.82"/>
<path data-id="13-70" d="M908.77,-1446.00,904.47,-1475.54"/>
<path data-id="13-179" d="M908.77,-1446.00,861.73,-1387.53"/>
<path data-id="13-202" d="M908.77,-1446.00,982.13,-1416.03"/>
<path data-id="14-16" d="M158.34,-596.19,94.53,-590.26"/>
<path data-id="14-25" d="M158.34,-596.19,146.72,-554.90"/>
<path data-id="14-48" d="M158.34,-596.19,184.39,-653.08"/>
<path data-id="15-70" d="M908.81,-1510.36,904.47,-1475.54"/>
<path data-id="15-122" d="M908.81,-1510.36,860.40,-1577.17"/>
<path data-id="15-163" d="M908.81,-1510.36,939.02,-1562.61"/>
<path data-id="15-200" d="M908.81,-1510.36,836.36,-1549.77"/>
<path data-id="16-25" d="M94.53,-590.26,146.72,-554.90"/>
<path data-id="16-69" d="M94.53,-590.26,41.96,-600.64"/>
<path data-id="16-149" d="M94.53,-590.26,67.61,-671.83"/>
<path data-id="16-256" d="M94.53,-590.26,110.05,-527.23"/>
<path data-id="17-19" d="M1012.63,-897.22,998.78,-739.67"/>
<path data-id="17-76" d="M1012.63,-897.22,1073.30,-874.59"/>
<path data-id="17-118" d="M1012.63,-897.22,1048.42,-946.43"/>
<path data-id="17-232" d="M1012.63,-897.22,926.38,-964.78"/>
<path data-id="18-41" d="M741.60,-1580.38,630.09,-1598.82"/>
<path data-id="18-110" d="M741.60,-1580.38,671.13,-1510.37"/>
<path data-id="18-135" d="M741.60,-1580.38,756.78,-1523.83"/>
<path data-id="18-200" d="M741.60,-1580.38,836.36,-1549.77"/>
<path data-id="18-246" d="M741.60,-1580.38,656.71,-1539.49"/>
<path data-id="19-98" d="M998.78,-739.67,1051.36,-739.91"/>
<path data-id="19-102" d="M998.78,-739.67,872.92,-889.44"/>
<path data-id="19-123" d="M998.78,-739.67,1048.96,-674.01"/>
<path data-id="19-220" d="M998.78,-739.67,879.12,-606.00"/>
<path data-id="20-152" d="M372.78,-34.24,393.08,-66.00"/>
<path data-id="21-24" d="M434.08,-782.32,309.57,-793.37"/>
<path data-id="21-35" d="M434.08,-782.32,309.69,-631.09"/>
<path data-id="21-236" d="M434.08,-782.32,474.47,-729.20"/>
<path data-id="21-248" d="M434.08,-782.32,375.55,-902.37"/>
<path data-id="22-76" d="M1077.97,-946.51,1073.30,-874.59"/>
<path data-id="22-118" d="M1077.97,-946.51,1048.42,-946.43"/>
<path data-id="22-234" d="M1077.97,-946.51,1176.33,-962.76"/>
<path data-id="23-144" d="M935.23,-1155.17,988.71,-1207.18"/>
<path data-id="23-151" d="M935.23,-1155.17,805.72,-1338.40"/>
<path data-id="23-162" d="M935.23,-1155.17,943.63,-1093.88"/>
<path data-id="23-165" d="M935.23,-1155.17,845.95,-1127.41"/>
<path data-id="24-35" d="M309.57,-793.37,309.69,-631.09"/>
<path data-id="24-104" d="M309.57,-793.37,284.72,-881.63"/>
<path data-id="24-248" d="M309.57,-793.37,375.55,-902.37"/>
<path data-id="24-265" d="M309.57,-793.37,213.60,-714.49"/>
<path data-id="24-271" d="M309.57,-793.37,191.99,-836.53"/>
<path data-id="25-205" d="M146.72,-554.90,177.75,-540.54"/>
<path data-id="25-256" d="M146.72,-554.90,110.05,-527.23"/>
<path data-id="26-175" d="M1342.75,-1059.61,1347.75,-1119.21"/>
<path data-id="26-189" d="M1342.75,-1059.61,1439.93,-1101.28"/>
<path data-id="26-206" d="M1342.75,-1059.61,1457.34,-1053.47"/>
<path data-id="26-217" d="M1342.75,-1059.61,1327.55,-1026.48"/>
<path data-id="27-141" d="M665.52,-1211.98,633.87,-1218.01"/>
<path data-id="27-151" d="M665.52,-1211.98,805.72,-1338.40"/>
<path data-id="27-191" d="M665.52,-1211.98,695.02,-1082.44"/>
<path data-id="27-228" d="M665.52,-1211.98,759.33,-1133.32"/>
<path data-id="28-108" d="M1188.27,-1101.83,1114.84,-1202.22"/>
<path data-id="28-234" d="M1188.27,-1101.83,1176.33,-962.76"/>
<path data-id="28-244" d="M1188.27,-1101.83,1061.36,-1023.54"/>
<path data-id="28-270" d="M1188.27,-1101.83,1017.10,-1101.92"/>
<path data-id="29-47" d="M266.61,-1085.25,365.55,-1162.84"/>
<path data-id="29-130" d="M266.61,-1085.25,275.41,-1007.28"/>
<path data-id="29-132" d="M266.61,-1085.25,173.22,-1189.74"/>
<path data-id="30-61" d="M1467.46,-1604.62,1440.96,-1577.27"/>
<path data-id="30-215" d="M1467.46,-1604.62,1485.16,-1585.37"/>
<path data-id="31-43" d="M1188.53,-239.17,1154.22,-224.37"/>
<path data-id="31-72" d="M1188.53,-239.17,1296.46,-219.26"/>
<path data-id="31-185" d="M1188.53,-239.17,1156.40,-344.58"/>
<path data-id="31-251" d="M1188.53,-239.17,1228.59,-284.86"/>
<path data-id="32-118" d="M1035.15,-978.49,1048.42,-946.43"/>
<path data-id="32-223" d="M1035.15,-978.49,987.72,-1052.90"/>
<path data-id="32-232" d="M1035.15,-978.49,926.38,-964.78"/>
<path data-id="32-244" d="M1035.15,-978.49,1061.36,-1023.54"/>
<path data-id="33-90" d="M1112.94,-1345.78,1168.30,-1296.39"/>
<path data-id="33-144" d="M1112.94,-1345.78,988.71,-1207.18"/>
<path data-id="33-202" d="M1112.94,-1345.78,982.13,-1416.03"/>
<path data-id="33-242" d="M1112.94,-1345.78,1122.06,-1395.00"/>
<path data-id="34-75" d="M904.49,-949.36,838.24,-971.09"/>
<path data-id="34-102" d="M904.49,-949.36,872.92,-889.44"/>
<path data-id="34-232" d="M904.49,-949.36,926.38,-964.78"/>
<path data-id="35-48" d="M309.69,-631.09,184.39,-653.08"/>
<path data-id="35-148" d="M309.69,-631.09,249.37,-461.49"/>
<path data-id="35-183" d="M309.69,-631.09,382.51,-571.71"/>
<path data-id="35-205" d="M309.69,-631.09,177.75,-540.54"/>
<path data-id="35-236" d="M309.69,-631.09,474.47,-729.20"/>
<path data-id="35-265" d="M309.69,-631.09,213.60,-714.49"/>
<path data-id="36-39" d="M707.68,-450.43,776.64,-290.40"/>
<path data-id="36-44" d="M707.68,-450.43,644.72,-543.42"/>
<path data-id="36-101" d="M707.68,-450.43,829.88,-350.68"/>
<path data-id="36-193" d="M707.68,-450.43,808.92,-513.99"/>
<path data-id="36-227" d="M707.68,-450.43,645.01,-430.41"/>
<path data-id="37-164" d="M511.21,-429.13,602.19,-393.12"/>
<path data-id="37-167" d="M511.21,-429.13,434.15,-408.26"/>
<path data-id="37-192" d="M511.21,-429.13,478.75,-355.59"/>
<path data-id="37-273" d="M511.21,-429.13,487.94,-514.41"/>
<path data-id="38-147" d="M1212.06,-572.33,1233.90,-494.06"/>
<path data-id="38-243" d="M1212.06,-572.33,1241.17,-620.02"/>
<path data-id="38-250" d="M1212.06,-572.33,1164.66,-627.51"/>
<path data-id="39-101" d="M776.64,-290.40,829.88,-350.68"/>
<path data-id="39-114" d="M776.64,-290.40,700.12,-151.19"/>
<path data-id="39-159" d="M776.64,-290.40,653.14,-202.03"/>
<path data-id="39-258" d="M776.64,-290.40,856.69,-291.84"/>
<path data-id="40-106" d="M175.05,-317.21,233.64,-378.87"/>
<path data-id="40-133" d="M175.05,-317.21,146.68,-308.76"/>
<path data-id="40-224" d="M175.05,-317.21,176.77,-405.44"/>
<path data-id="40-264" d="M175.05,-317.21,179.44,-287.79"/>
<path data-id="41-128" d="M630.09,-1598.82,560.83,-1497.61"/>
<path data-id="41-246" d="M630.09,-1598.82,656.71,-1539.49"/>
<path data-id="42-238" d="M104.72,-500.10,127.43,-465.06"/>
<path data-id="42-256" d="M104.72,-500.10,110.05,-527.23"/>
<path data-id="43-115" d="M1154.22,-224.37,1053.29,-111.17"/>
<path data-id="43-259" d="M1154.22,-224.37,1106.77,-260.19"/>
<path data-id="44-113" d="M644.72,-543.42,625.87,-581.65"/>
<path data-id="44-227" d="M644.72,-543.42,645.01,-430.41"/>
<path data-id="45-129" d="M1423.23,-377.44,1383.96,-388.34"/>
<path data-id="45-157" d="M1423.23,-377.44,1393.95,-321.05"/>
<path data-id="45-188" d="M1423.23,-377.44,1511.49,-430.99"/>
<path data-id="45-237" d="M1423.23,-377.44,1489.30,-326.10"/>
<path data-id="46-52" d="M901.91,-360.47,912.17,-279.14"/>
<path data-id="46-73" d="M901.91,-360.47,963.78,-439.01"/>
<path data-id="46-85" d="M901.91,-360.47,1006.48,-313.11"/>
<path data-id="46-101" d="M901.91,-360.47,829.88,-350.68"/>
<path data-id="46-193" d="M901.91,-360.47,808.92,-513.99"/>
<path data-id="46-258" d="M901.91,-360.47,856.69,-291.84"/>
<path data-id="47-105" d="M365.55,-1162.84,244.06,-1331.80"/>
<path data-id="47-226" d="M365.55,-1162.84,432.26,-1139.13"/>
<path data-id="48-149" d="M184.39,-653.08,67.61,-671.83"/>
<path data-id="48-265" d="M184.39,-653.08,213.60,-714.49"/>
<path data-id="49-128" d="M468.00,-1530.69,560.83,-1497.61"/>
<path data-id="49-225" d="M468.00,-1530.69,458.43,-1482.95"/>
<path data-id="49-230" d="M468.00,-1530.69,352.58,-1522.01"/>
<path data-id="50-152" d="M365.37,-90.61,393.08,-66.00"/>
<path data-id="50-158" d="M365.37,-90.61,263.88,-180.62"/>
<path data-id="50-229" d="M365.37,-90.61,250.71,-87.52"/>
<path data-id="50-254" d="M365.37,-90.61,356.38,-230.06"/>
<path data-id="51-245" d="M1589.87,-1640.82,1567.18,-1603.02"/>
<path data-id="52-85" d="M912.17,-279.14,1006.48,-313.11"/>
<path data-id="52-150" d="M912.17,-279.14,916.44,-141.69"/>
<path data-id="52-258" d="M912.17,-279.14,856.69,-291.84"/>
<path data-id="53-78" d="M1448.15,-807.54,1342.33,-648.21"/>
<path data-id="53-170" d="M1448.15,-807.54,1336.14,-847.62"/>
<path data-id="53-206" d="M1448.15,-807.54,1457.34,-1053.47"/>
<path data-id="53-214" d="M1448.15,-807.54,1530.08,-764.90"/>
<path data-id="54-68" d="M1558.76,-1243.99,1568.32,-1190.69"/>
<path data-id="54-117" d="M1558.76,-1243.99,1416.94,-1324.57"/>
<path data-id="54-182" d="M1558.76,-1243.99,1466.44,-1193.06"/>
<path data-id="54-203" d="M1558.76,-1243.99,1618.67,-1260.28"/>
<path data-id="55-75" d="M757.82,-1025.64,838.24,-971.09"/>
<path data-id="55-191" d="M757.82,-1025.64,695.02,-1082.44"/>
<path data-id="55-228" d="M757.82,-1025.64,759.33,-1133.32"/>
<path data-id="56-173" d="M1217.26,-1592.06,1232.65,-1543.85"/>
<path data-id="56-195" d="M1217.26,-1592.06,1148.13,-1610.54"/>
<path data-id="56-272" d="M1217.26,-1592.06,1198.14,-1633.74"/>
<path data-id="57-187" d="M83.13,-840.85,30.15,-962.34"/>
<path data-id="57-240" d="M83.13,-840.85,106.88,-815.13"/>
<path data-id="58-75" d="M871.05,-1076.28,838.24,-971.09"/>
<path data-id="58-162" d="M871.05,-1076.28,943.63,-1093.88"/>
<path data-id="58-165" d="M871.05,-1076.28,845.95,-1127.41"/>
<path data-id="58-232" d="M871.05,-1076.28,926.38,-964.78"/>
<path data-id="59-208" d="M1632.10,-807.07,1616.19,-732.57"/>
<path data-id="59-221" d="M1632.10,-807.07,1602.76,-853.36"/>
<path data-id="59-249" d="M1632.10,-807.07,1570.01,-756.87"/>
<path data-id="60-136" d="M164.48,-1442.11,125.34,-1472.91"/>
<path data-id="60-154" d="M164.48,-1442.11,193.28,-1396.35"/>
<path data-id="60-168" d="M164.48,-1442.11,192.65,-1544.88"/>
<path data-id="61-173" d="M1440.96,-1577.27,1232.65,-1543.85"/>
<path data-id="61-215" d="M1440.96,-1577.27,1485.16,-1585.37"/>
<path data-id="61-231" d="M1440.96,-1577.27,1412.99,-1464.16"/>
<path data-id="62-69" d="M4.35,-584.81,41.96,-600.64"/>
<path data-id="63-73" d="M1199.19,-458.22,963.78,-439.01"/>
<path data-id="63-147" d="M1199.19,-458.22,1233.90,-494.06"/>
<path data-id="63-166" d="M1199.19,-458.22,1308.43,-410.04"/>
<path data-id="63-180" d="M1199.19,-458.22,1261.52,-335.98"/>
<path data-id="63-185" d="M1199.19,-458.22,1156.40,-344.58"/>
<path data-id="64-210" d="M488.23,-1014.96,604.71,-1018.51"/>
<path data-id="64-226" d="M488.23,-1014.96,432.26,-1139.13"/>
<path data-id="64-241" d="M488.23,-1014.96,502.50,-962.56"/>
<path data-id="65-72" d="M1224.10,-169.35,1296.46,-219.26"/>
<path data-id="65-138" d="M1224.10,-169.35,1237.91,-125.11"/>
<path data-id="66-241" d="M469.40,-882.76,502.50,-962.56"/>
<path data-id="66-248" d="M469.40,-882.76,375.55,-902.37"/>
<path data-id="66-266" d="M469.40,-882.76,550.09,-903.70"/>
<path data-id="67-68" d="M1501.46,-1153.87,1568.32,-1190.69"/>
<path data-id="67-182" d="M1501.46,-1153.87,1466.44,-1193.06"/>
<path data-id="67-189" d="M1501.46,-1153.87,1439.93,-1101.28"/>
<path data-id="67-267" d="M1501.46,-1153.87,1543.47,-1128.67"/>
<path data-id="68-267" d="M1568.32,-1190.69,1543.47,-1128.67"/>
<path data-id="69-149" d="M41.96,-600.64,67.61,-671.83"/>
<path data-id="70-169" d="M904.47,-1475.54,783.30,-1438.20"/>
<path data-id="71-119" d="M530.01,-1318.53,515.86,-1178.76"/>
<path data-id="71-131" d="M530.01,-1318.53,527.44,-1407.67"/>
<path data-id="71-197" d="M530.01,-1318.53,626.55,-1320.06"/>
<path data-id="72-95" d="M1296.46,-219.26,1283.41,-273.61"/>
<path data-id="72-139" d="M1296.46,-219.26,1313.85,-196.28"/>
<path data-id="73-172" d="M963.78,-439.01,1023.89,-343.69"/>
<path data-id="73-193" d="M963.78,-439.01,808.92,-513.99"/>
<path data-id="73-220" d="M963.78,-439.01,879.12,-606.00"/>
<path data-id="73-262" d="M963.78,-439.01,1074.39,-590.54"/>
<path data-id="74-103" d="M1573.27,-1544.22,1579.23,-1579.09"/>
<path data-id="74-194" d="M1573.27,-1544.22,1438.74,-1436.16"/>
<path data-id="74-215" d="M1573.27,-1544.22,1485.16,-1585.37"/>
<path data-id="74-263" d="M1573.27,-1544.22,1644.90,-1377.49"/>
<path data-id="76-98" d="M1073.30,-874.59,1051.36,-739.91"/>
<path data-id="76-118" d="M1073.30,-874.59,1048.42,-946.43"/>
<path data-id="76-216" d="M1073.30,-874.59,1232.51,-795.43"/>
<path data-id="77-153" d="M1524.10,-714.93,1614.49,-576.66"/>
<path data-id="77-214" d="M1524.10,-714.93,1530.08,-764.90"/>
<path data-id="77-249" d="M1524.10,-714.93,1570.01,-756.87"/>
<path data-id="77-253" d="M1524.10,-714.93,1464.95,-653.85"/>
<path data-id="78-170" d="M1342.33,-648.21,1336.14,-847.62"/>
<path data-id="78-198" d="M1342.33,-648.21,1287.13,-634.55"/>
<path data-id="78-253" d="M1342.33,-648.21,1464.95,-653.85"/>
<path data-id="79-93" d="M1417.26,-239.95,1406.91,-58.99"/>
<path data-id="79-125" d="M1417.26,-239.95,1519.02,-279.94"/>
<path data-id="79-139" d="M1417.26,-239.95,1313.85,-196.28"/>
<path data-id="79-146" d="M1417.26,-239.95,1418.97,-286.32"/>
<path data-id="80-171" d="M1603.19,-294.63,1573.64,-320.30"/>
<path data-id="80-261" d="M1603.19,-294.63,1578.60,-189.52"/>
<path data-id="81-113" d="M636.92,-636.13,625.87,-581.65"/>
<path data-id="81-190" d="M636.92,-636.13,630.79,-668.21"/>
<path data-id="82-88" d="M66.59,-1221.14,91.25,-1327.12"/>
<path data-id="82-92" d="M66.59,-1221.14,34.69,-1202.96"/>
<path data-id="82-132" d="M66.59,-1221.14,173.22,-1189.74"/>
<path data-id="83-89" d="M80.38,-753.36,96.13,-780.59"/>
<path data-id="83-149" d="M80.38,-753.36,67.61,-671.83"/>
<path data-id="84-172" d="M1076.29,-328.03,1023.89,-343.69"/>
<path data-id="84-185" d="M1076.29,-328.03,1156.40,-344.58"/>
<path data-id="84-259" d="M1076.29,-328.03,1106.77,-260.19"/>
<path data-id="85-172" d="M1006.48,-313.11,1023.89,-343.69"/>
<path data-id="85-247" d="M1006.48,-313.11,1014.46,-140.96"/>
<path data-id="86-102" d="M681.65,-784.56,872.92,-889.44"/>
<path data-id="86-111" d="M681.65,-784.56,536.23,-818.94"/>
<path data-id="86-190" d="M681.65,-784.56,630.79,-668.21"/>
<path data-id="86-196" d="M681.65,-784.56,668.29,-853.24"/>
<path data-id="86-222" d="M681.65,-784.56,715.60,-686.81"/>
<path data-id="87-91" d="M497.75,-140.74,502.87,-177.66"/>
<path data-id="87-112" d="M497.75,-140.74,680.32,-59.10"/>
<path data-id="87-152" d="M497.75,-140.74,393.08,-66.00"/>
<path data-id="88-154" d="M91.25,-1327.12,193.28,-1396.35"/>
<path data-id="88-268" d="M91.25,-1327.12,48.95,-1406.15"/>
<path data-id="89-177" d="M96.13,-780.59,146.90,-752.54"/>
<path data-id="89-240" d="M96.13,-780.59,106.88,-815.13"/>
<path data-id="90-108" d="M1168.30,-1296.39,1114.84,-1202.22"/>
<path data-id="90-201" d="M1168.30,-1296.39,1248.27,-1210.12"/>
<path data-id="90-269" d="M1168.30,-1296.39,1199.19,-1421.94"/>
<path data-id="91-159" d="M502.87,-177.66,653.14,-202.03"/>
<path data-id="91-255" d="M502.87,-177.66,437.21,-256.73"/>
<path data-id="92-187" d="M34.69,-1202.96,30.15,-962.34"/>
<path data-id="93-94" d="M1406.91,-58.99,1621.26,-121.37"/>
<path data-id="93-138" d="M1406.91,-58.99,1237.91,-125.11"/>
<path data-id="93-139" d="M1406.91,-58.99,1313.85,-196.28"/>
<path data-id="93-261" d="M1406.91,-58.99,1578.60,-189.52"/>
<path data-id="94-261" d="M1621.26,-121.37,1578.60,-189.52"/>
<path data-id="95-157" d="M1283.41,-273.61,1393.95,-321.05"/>
<path data-id="95-180" d="M1283.41,-273.61,1261.52,-335.98"/>
<path data-id="95-251" d="M1283.41,-273.61,1228.59,-284.86"/>
<path data-id="96-156" d="M278.94,-1424.09,313.65,-1441.29"/>
<path data-id="96-168" d="M278.94,-1424.09,192.65,-1544.88"/>
<path data-id="96-252" d="M278.94,-1424.09,229.20,-1397.75"/>
<path data-id="97-110" d="M726.43,-1497.75,671.13,-1510.37"/>
<path data-id="97-124" d="M726.43,-1497.75,757.97,-1495.84"/>
<path data-id="97-126" d="M726.43,-1497.75,717.47,-1403.28"/>
<path data-id="97-135" d="M726.43,-1497.75,756.78,-1523.83"/>
<path data-id="98-123" d="M1051.36,-739.91,1048.96,-674.01"/>
<path data-id="98-216" d="M1051.36,-739.91,1232.51,-795.43"/>
<path data-id="99-159" d="M513.69,-328.97,653.14,-202.03"/>
<path data-id="99-164" d="M513.69,-328.97,602.19,-393.12"/>
<path data-id="99-192" d="M513.69,-328.97,478.75,-355.59"/>
<path data-id="99-255" d="M513.69,-328.97,437.21,-256.73"/>
<path data-id="100-161" d="M173.59,-44.75,28.28,-153.10"/>
<path data-id="100-229" d="M173.59,-44.75,250.71,-87.52"/>
<path data-id="101-193" d="M829.88,-350.68,808.92,-513.99"/>
<path data-id="101-258" d="M829.88,-350.68,856.69,-291.84"/>
<path data-id="103-245" d="M1579.23,-1579.09,1567.18,-1603.02"/>
<path data-id="104-178" d="M284.72,-881.63,352.92,-921.97"/>
<path data-id="104-271" d="M284.72,-881.63,191.99,-836.53"/>
<path data-id="105-132" d="M244.06,-1331.80,173.22,-1189.74"/>
<path data-id="105-252" d="M244.06,-1331.80,229.20,-1397.75"/>
<path data-id="106-107" d="M233.64,-378.87,310.29,-368.63"/>
<path data-id="106-142" d="M233.64,-378.87,288.48,-250.86"/>
<path data-id="106-224" d="M233.64,-378.87,176.77,-405.44"/>
<path data-id="106-274" d="M233.64,-378.87,207.82,-444.71"/>
<path data-id="107-142" d="M310.29,-368.63,288.48,-250.86"/>
<path data-id="107-148" d="M310.29,-368.63,249.37,-461.49"/>
<path data-id="107-181" d="M310.29,-368.63,370.89,-394.74"/>
<path data-id="108-144" d="M1114.84,-1202.22,988.71,-1207.18"/>
<path data-id="108-201" d="M1114.84,-1202.22,1248.27,-1210.12"/>
<path data-id="108-270" d="M1114.84,-1202.22,1017.10,-1101.92"/>
<path data-id="109-111" d="M571.40,-678.33,536.23,-818.94"/>
<path data-id="109-190" d="M571.40,-678.33,630.79,-668.21"/>
<path data-id="109-236" d="M571.40,-678.33,474.47,-729.20"/>
<path data-id="109-273" d="M571.40,-678.33,487.94,-514.41"/>
<path data-id="110-219" d="M671.13,-1510.37,590.50,-1460.33"/>
<path data-id="110-246" d="M671.13,-1510.37,656.71,-1539.49"/>
<path data-id="111-196" d="M536.23,-818.94,668.29,-853.24"/>
<path data-id="111-209" d="M536.23,-818.94,516.08,-841.34"/>
<path data-id="111-236" d="M536.23,-818.94,474.47,-729.20"/>
<path data-id="112-114" d="M680.32,-59.10,700.12,-151.19"/>
<path data-id="112-257" d="M680.32,-59.10,730.20,-34.03"/>
<path data-id="113-273" d="M625.87,-581.65,487.94,-514.41"/>
<path data-id="114-150" d="M700.12,-151.19,916.44,-141.69"/>
<path data-id="114-159" d="M700.12,-151.19,653.14,-202.03"/>
<path data-id="115-204" d="M1053.29,-111.17,1104.82,-48.05"/>
<path data-id="115-218" d="M1053.29,-111.17,1050.52,-12.60"/>
<path data-id="115-247" d="M1053.29,-111.17,1014.46,-140.96"/>
<path data-id="115-259" d="M1053.29,-111.17,1106.77,-260.19"/>
<path data-id="116-121" d="M1023.49,-1520.39,1079.90,-1475.09"/>
<path data-id="116-184" d="M1023.49,-1520.39,1104.74,-1550.04"/>
<path data-id="116-202" d="M1023.49,-1520.39,982.13,-1416.03"/>
<path data-id="117-182" d="M1416.94,-1324.57,1466.44,-1193.06"/>
<path data-id="117-212" d="M1416.94,-1324.57,1426.52,-1352.81"/>
<path data-id="117-235" d="M1416.94,-1324.57,1354.50,-1219.47"/>
<path data-id="117-269" d="M1416.94,-1324.57,1199.19,-1421.94"/>
<path data-id="119-141" d="M515.86,-1178.76,633.87,-1218.01"/>
<path data-id="119-210" d="M515.86,-1178.76,604.71,-1018.51"/>
<path data-id="119-226" d="M515.86,-1178.76,432.26,-1139.13"/>
<path data-id="120-145" d="M367.92,-1637.96,394.23,-1612.45"/>
<path data-id="120-168" d="M367.92,-1637.96,192.65,-1544.88"/>
<path data-id="121-184" d="M1079.90,-1475.09,1104.74,-1550.04"/>
<path data-id="121-202" d="M1079.90,-1475.09,982.13,-1416.03"/>
<path data-id="121-242" d="M1079.90,-1475.09,1122.06,-1395.00"/>
<path data-id="122-163" d="M860.40,-1577.17,939.02,-1562.61"/>
<path data-id="122-200" d="M860.40,-1577.17,836.36,-1549.77"/>
<path data-id="123-174" d="M1048.96,-674.01,1048.81,-630.72"/>
<path data-id="124-135" d="M757.97,-1495.84,756.78,-1523.83"/>
<path data-id="124-169" d="M757.97,-1495.84,783.30,-1438.20"/>
<path data-id="125-171" d="M1519.02,-279.94,1573.64,-320.30"/>
<path data-id="125-237" d="M1519.02,-279.94,1489.30,-326.10"/>
<path data-id="125-261" d="M1519.02,-279.94,1578.60,-189.52"/>
<path data-id="126-151" d="M717.47,-1403.28,805.72,-1338.40"/>
<path data-id="126-169" d="M717.47,-1403.28,783.30,-1438.20"/>
<path data-id="126-197" d="M717.47,-1403.28,626.55,-1320.06"/>
<path data-id="126-219" d="M717.47,-1403.28,590.50,-1460.33"/>
<path data-id="127-140" d="M1257.47,-1139.45,1307.46,-1164.50"/>
<path data-id="127-201" d="M1257.47,-1139.45,1248.27,-1210.12"/>
<path data-id="128-219" d="M560.83,-1497.61,590.50,-1460.33"/>
<path data-id="128-225" d="M560.83,-1497.61,458.43,-1482.95"/>
<path data-id="128-246" d="M560.83,-1497.61,656.71,-1539.49"/>
<path data-id="129-157" d="M1383.96,-388.34,1393.95,-321.05"/>
<path data-id="129-166" d="M1383.96,-388.34,1308.43,-410.04"/>
<path data-id="130-178" d="M275.41,-1007.28,352.92,-921.97"/>
<path data-id="130-207" d="M275.41,-1007.28,222.86,-950.35"/>
<path data-id="131-219" d="M527.44,-1407.67,590.50,-1460.33"/>
<path data-id="131-225" d="M527.44,-1407.67,458.43,-1482.95"/>
<path data-id="132-187" d="M173.22,-1189.74,30.15,-962.34"/>
<path data-id="133-155" d="M146.68,-308.76,6.00,-199.81"/>
<path data-id="133-199" d="M146.68,-308.76,57.19,-381.56"/>
<path data-id="133-264" d="M146.68,-308.76,179.44,-287.79"/>
<path data-id="134-153" d="M1576.85,-429.44,1614.49,-576.66"/>
<path data-id="134-186" d="M1576.85,-429.44,1585.08,-385.15"/>
<path data-id="134-188" d="M1576.85,-429.44,1511.49,-430.99"/>
<path data-id="135-200" d="M756.78,-1523.83,836.36,-1549.77"/>
<path data-id="136-168" d="M125.34,-1472.91,192.65,-1544.88"/>
<path data-id="136-239" d="M125.34,-1472.91,91.88,-1602.22"/>
<path data-id="136-268" d="M125.34,-1472.91,48.95,-1406.15"/>
<path data-id="137-163" d="M967.27,-1582.42,939.02,-1562.61"/>
<path data-id="137-213" d="M967.27,-1582.42,1010.38,-1598.86"/>
<path data-id="138-139" d="M1237.91,-125.11,1313.85,-196.28"/>
<path data-id="140-175" d="M1307.46,-1164.50,1347.75,-1119.21"/>
<path data-id="140-176" d="M1307.46,-1164.50,1325.42,-1193.53"/>
<path data-id="140-201" d="M1307.46,-1164.50,1248.27,-1210.12"/>
<path data-id="141-197" d="M633.87,-1218.01,626.55,-1320.06"/>
<path data-id="142-158" d="M288.48,-250.86,263.88,-180.62"/>
<path data-id="142-254" d="M288.48,-250.86,356.38,-230.06"/>
<path data-id="142-264" d="M288.48,-250.86,179.44,-287.79"/>
<path data-id="143-260" d="M1622.31,-1058.49,1616.55,-1033.11"/>
<path data-id="143-267" d="M1622.31,-1058.49,1543.47,-1128.67"/>
<path data-id="144-151" d="M988.71,-1207.18,805.72,-1338.40"/>
<path data-id="144-179" d="M988.71,-1207.18,861.73,-1387.53"/>
<path data-id="144-202" d="M988.71,-1207.18,982.13,-1416.03"/>
<path data-id="144-270" d="M988.71,-1207.18,1017.10,-1101.92"/>
<path data-id="145-230" d="M394.23,-1612.45,352.58,-1522.01"/>
<path data-id="146-157" d="M1418.97,-286.32,1393.95,-321.05"/>
<path data-id="146-237" d="M1418.97,-286.32,1489.30,-326.10"/>
<path data-id="147-166" d="M1233.90,-494.06,1308.43,-410.04"/>
<path data-id="148-183" d="M249.37,-461.49,382.51,-571.71"/>
<path data-id="148-205" d="M249.37,-461.49,177.75,-540.54"/>
<path data-id="148-274" d="M249.37,-461.49,207.82,-444.71"/>
<path data-id="150-257" d="M916.44,-141.69,730.20,-34.03"/>
<path data-id="151-165" d="M805.72,-1338.40,845.95,-1127.41"/>
<path data-id="151-169" d="M805.72,-1338.40,783.30,-1438.20"/>
<path data-id="151-179" d="M805.72,-1338.40,861.73,-1387.53"/>
<path data-id="151-228" d="M805.72,-1338.40,759.33,-1133.32"/>
<path data-id="153-208" d="M1614.49,-576.66,1616.19,-732.57"/>
<path data-id="153-233" d="M1614.49,-576.66,1491.13,-539.04"/>
<path data-id="153-253" d="M1614.49,-576.66,1464.95,-653.85"/>
<path data-id="154-252" d="M193.28,-1396.35,229.20,-1397.75"/>
<path data-id="155-161" d="M6.00,-199.81,28.28,-153.10"/>
<path data-id="155-199" d="M6.00,-199.81,57.19,-381.56"/>
<path data-id="156-230" d="M313.65,-1441.29,352.58,-1522.01"/>
<path data-id="157-180" d="M1393.95,-321.05,1261.52,-335.98"/>
<path data-id="158-161" d="M263.88,-180.62,28.28,-153.10"/>
<path data-id="158-229" d="M263.88,-180.62,250.71,-87.52"/>
<path data-id="158-264" d="M263.88,-180.62,179.44,-287.79"/>
<path data-id="159-164" d="M653.14,-202.03,602.19,-393.12"/>
<path data-id="160-188" d="M1485.90,-506.16,1511.49,-430.99"/>
<path data-id="160-233" d="M1485.90,-506.16,1491.13,-539.04"/>
<path data-id="162-223" d="M943.63,-1093.88,987.72,-1052.90"/>
<path data-id="162-270" d="M943.63,-1093.88,1017.10,-1101.92"/>
<path data-id="164-227" d="M602.19,-393.12,645.01,-430.41"/>
<path data-id="166-180" d="M1308.43,-410.04,1261.52,-335.98"/>
<path data-id="167-181" d="M434.15,-408.26,370.89,-394.74"/>
<path data-id="167-192" d="M434.15,-408.26,478.75,-355.59"/>
<path data-id="167-273" d="M434.15,-408.26,487.94,-514.41"/>
<path data-id="168-230" d="M192.65,-1544.88,352.58,-1522.01"/>
<path data-id="168-239" d="M192.65,-1544.88,91.88,-1602.22"/>
<path data-id="169-179" d="M783.30,-1438.20,861.73,-1387.53"/>
<path data-id="170-216" d="M1336.14,-847.62,1232.51,-795.43"/>
<path data-id="170-217" d="M1336.14,-847.62,1327.55,-1026.48"/>
<path data-id="170-234" d="M1336.14,-847.62,1176.33,-962.76"/>
<path data-id="171-186" d="M1573.64,-320.30,1585.08,-385.15"/>
<path data-id="171-237" d="M1573.64,-320.30,1489.30,-326.10"/>
<path data-id="173-184" d="M1232.65,-1543.85,1104.74,-1550.04"/>
<path data-id="173-231" d="M1232.65,-1543.85,1412.99,-1464.16"/>
<path data-id="173-269" d="M1232.65,-1543.85,1199.19,-1421.94"/>
<path data-id="174-220" d="M1048.81,-630.72,879.12,-606.00"/>
<path data-id="174-262" d="M1048.81,-630.72,1074.39,-590.54"/>
<path data-id="175-189" d="M1347.75,-1119.21,1439.93,-1101.28"/>
<path data-id="176-201" d="M1325.42,-1193.53,1248.27,-1210.12"/>
<path data-id="176-235" d="M1325.42,-1193.53,1354.50,-1219.47"/>
<path data-id="177-265" d="M146.90,-752.54,213.60,-714.49"/>
<path data-id="177-271" d="M146.90,-752.54,191.99,-836.53"/>
<path data-id="178-248" d="M352.92,-921.97,375.55,-902.37"/>
<path data-id="180-185" d="M1261.52,-335.98,1156.40,-344.58"/>
<path data-id="180-251" d="M1261.52,-335.98,1228.59,-284.86"/>
<path data-id="181-183" d="M370.89,-394.74,382.51,-571.71"/>
<path data-id="181-255" d="M370.89,-394.74,437.21,-256.73"/>
<path data-id="182-189" d="M1466.44,-1193.06,1439.93,-1101.28"/>
<path data-id="182-235" d="M1466.44,-1193.06,1354.50,-1219.47"/>
<path data-id="183-236" d="M382.51,-571.71,474.47,-729.20"/>
<path data-id="183-273" d="M382.51,-571.71,487.94,-514.41"/>
<path data-id="184-195" d="M1104.74,-1550.04,1148.13,-1610.54"/>
<path data-id="184-213" d="M1104.74,-1550.04,1010.38,-1598.86"/>
<path data-id="185-251" d="M1156.40,-344.58,1228.59,-284.86"/>
<path data-id="185-259" d="M1156.40,-344.58,1106.77,-260.19"/>
<path data-id="187-207" d="M30.15,-962.34,222.86,-950.35"/>
<path data-id="188-237" d="M1511.49,-430.99,1489.30,-326.10"/>
<path data-id="189-206" d="M1439.93,-1101.28,1457.34,-1053.47"/>
<path data-id="190-222" d="M630.79,-668.21,715.60,-686.81"/>
<path data-id="191-210" d="M695.02,-1082.44,604.71,-1018.51"/>
<path data-id="191-228" d="M695.02,-1082.44,759.33,-1133.32"/>
<path data-id="192-255" d="M478.75,-355.59,437.21,-256.73"/>
<path data-id="193-220" d="M808.92,-513.99,879.12,-606.00"/>
<path data-id="193-222" d="M808.92,-513.99,715.60,-686.81"/>
<path data-id="194-212" d="M1438.74,-1436.16,1426.52,-1352.81"/>
<path data-id="194-231" d="M1438.74,-1436.16,1412.99,-1464.16"/>
<path data-id="194-263" d="M1438.74,-1436.16,1644.90,-1377.49"/>
<path data-id="195-272" d="M1148.13,-1610.54,1198.14,-1633.74"/>
<path data-id="196-266" d="M668.29,-853.24,550.09,-903.70"/>
<path data-id="197-219" d="M626.55,-1320.06,590.50,-1460.33"/>
<path data-id="198-216" d="M1287.13,-634.55,1232.51,-795.43"/>
<path data-id="198-243" d="M1287.13,-634.55,1241.17,-620.02"/>
<path data-id="199-224" d="M57.19,-381.56,176.77,-405.44"/>
<path data-id="199-238" d="M57.19,-381.56,127.43,-465.06"/>
<path data-id="202-242" d="M982.13,-1416.03,1122.06,-1395.00"/>
<path data-id="203-211" d="M1618.67,-1260.28,1654.25,-1253.12"/>
<path data-id="203-263" d="M1618.67,-1260.28,1644.90,-1377.49"/>
<path data-id="204-218" d="M1104.82,-48.05,1050.52,-12.60"/>
<path data-id="205-238" d="M177.75,-540.54,127.43,-465.06"/>
<path data-id="205-274" d="M177.75,-540.54,207.82,-444.71"/>
<path data-id="206-260" d="M1457.34,-1053.47,1616.55,-1033.11"/>
<path data-id="206-267" d="M1457.34,-1053.47,1543.47,-1128.67"/>
<path data-id="207-271" d="M222.86,-950.35,191.99,-836.53"/>
<path data-id="208-249" d="M1616.19,-732.57,1570.01,-756.87"/>
<path data-id="209-266" d="M516.08,-841.34,550.09,-903.70"/>
<path data-id="210-241" d="M604.71,-1018.51,502.50,-962.56"/>
<path data-id="210-266" d="M604.71,-1018.51,550.09,-903.70"/>
<path data-id="211-263" d="M1654.25,-1253.12,1644.90,-1377.49"/>
<path data-id="212-263" d="M1426.52,-1352.81,1644.90,-1377.49"/>
<path data-id="212-269" d="M1426.52,-1352.81,1199.19,-1421.94"/>
<path data-id="214-249" d="M1530.08,-764.90,1570.01,-756.87"/>
<path data-id="215-245" d="M1485.16,-1585.37,1567.18,-1603.02"/>
<path data-id="216-234" d="M1232.51,-795.43,1176.33,-962.76"/>
<path data-id="216-243" d="M1232.51,-795.43,1241.17,-620.02"/>
<path data-id="216-250" d="M1232.51,-795.43,1164.66,-627.51"/>
<path data-id="217-234" d="M1327.55,-1026.48,1176.33,-962.76"/>
<path data-id="220-222" d="M879.12,-606.00,715.60,-686.81"/>
<path data-id="223-232" d="M987.72,-1052.90,926.38,-964.78"/>
<path data-id="223-244" d="M987.72,-1052.90,1061.36,-1023.54"/>
<path data-id="223-270" d="M987.72,-1052.90,1017.10,-1101.92"/>
<path data-id="224-238" d="M176.77,-405.44,127.43,-465.06"/>
<path data-id="224-274" d="M176.77,-405.44,207.82,-444.71"/>
<path data-id="225-230" d="M458.43,-1482.95,352.58,-1522.01"/>
<path data-id="231-269" d="M1412.99,-1464.16,1199.19,-1421.94"/>
<path data-id="233-253" d="M1491.13,-539.04,1464.95,-653.85"/>
<path data-id="238-274" d="M127.43,-465.06,207.82,-444.71"/>
<path data-id="240-271" d="M106.88,-815.13,191.99,-836.53"/>
<path data-id="241-266" d="M502.50,-962.56,550.09,-903.70"/>
<path data-id="242-269" d="M1122.06,-1395.00,1199.19,-1421.94"/>
<path data-id="243-250" d="M1241.17,-620.02,1164.66,-627.51"/>
<path data-id="244-270" d="M1061.36,-1023.54,1017.10,-1101.92"/>
<path data-id="247-259" d="M1014.46,-140.96,1106.77,-260.19"/>
<path data-id="250-262" d="M1164.66,-627.51,1074.39,-590.54"/>
<path data-id="254-255" d="M356.38,-230.06,437.21,-256.73"/>
<circle data-id="0" cx="815.91" cy="-939.99" r="10.00px"/>
<text data-id="0" x="815.91" y="-939.99">R0</text>
<circle data-id="1" cx="263.92" cy="-923.42" r="10.00px"/>
<text data-id="1" x="263.92" y="-923.42">R1</text>
<circle data-id="2" cx="1655.30" cy="-978.94" r="10.00px"/>
<text data-id="2" x="1655.30" y="-978.94">R2</text>
<circle data-id="3" cx="986.29" cy="-1565.57" r="10.00px"/>
<text data-id="3" x="986.29" y="-1565.57">R3</text>
<circle data-id="4" cx="994.02" cy="-116.91" r="10.00px"/>
<text data-id="4" x="994.02" y="-116.91">R4</text>
<circle data-id="5" cx="450.72" cy="-1591.16" r="10.00px"/>
<text data-id="5" x="450.72" y="-1591.16">R5</text>
<circle data-id="6" cx="1188.71" cy="-200.71" r="10.00px"/>
<text data-id="6" x="1188.71" y="-200.71">R6</text>
<circle data-id="7" cx="819.06" cy="-1090.74" r="10.00px"/>
<text data-id="7" x="819.06" y="-1090.74">R7</text>
<circle data-id="8" cx="1217.57" cy="-1132.91" r="10.00px"/>
<text data-id="8" x="1217.57" y="-1132.91">R8</text>
<circle data-id="9" cx="696.02" cy="-922.04" r="10.00px"/>
<text data-id="9" x="696.02" y="-922.04">R9</text>
<circle data-id="10" cx="1141.61" cy="-40.62" r="10.00px"/>
<text data-id="10" x="1141.61" y="-40.62">R10</text>
<circle data-id="11" cx="483.69" cy="-844.23" r="10.00px"/>
<text data-id="11" x="483.69" y="-844.23">R11</text>
<circle data-id="12" cx="1625.45" cy="-1644.35" r="10.00px"/>
<text data-id="12" x="1625.45" y="-1644.35">R12</text>
<circle data-id="13" cx="908.77" cy="-1446.00" r="10.00px"/>
<text data-id="13" x="908.77" y="-1446.00">R13</text>
<circle data-id="14" cx="158.34" cy="-596.19" r="10.00px"/>
<text data-id="14" x="158.34" y="-596.19">R14</text>
<circle data-id="15" cx="908.81" cy="-1510.36" r="10.00px"/>
<text data-id="15" x="908.81" y="-1510.36">R15</text>
<circle data-id="16" cx="94.53" cy="-590.26" r="10.00px"/>
<text data-id="16" x="94.53" y="-590.26">R16</text>
<circle data-id="17" cx="1012.63" cy="-897.22" r="10.00px"/>
<text data-id="17" x="1012.63" y="-897.22">R17</text>
<circle data-id="18" cx="741.60" cy="-1580.38" r="10.00px"/>
<text data-id="18" x="741.60" y="-1580.38">R18</text>
<circle data-id="19" cx="998.78" cy="-739.67" r="10.00px"/>
<text data-id="19" x="998.78" y="-739.67">R19</text>
<circle data-id="20" cx="372.78" cy="-34.24" r="10.00px"/>
<text data-id="20" x="372.78" y="-34.24">R20</text>
<circle data-id="21" cx="434.08" cy="-782.32" r="10.00px"/>
<text data-id="21" x="434.08" y="-782.32">R21</text>
<circle data-id="22" cx="1077.97" cy="-946.51" r="10.00px"/>
<text data-id="22" x="1077.97" y="-946.51">R22</text>
<circle data-id="23" cx="935.23" cy="-1155.17" r="10.00px"/>
<text data-id="23" x="935.23" y="-1155.17">R23</text>
<circle data-id="24" cx="309.57" cy="-793.37" r="10.00px"/>
<text data-id="24" x="309.57" y="-793.37">R24</text>
<circle data-id="25" cx="146.72" cy="-554.90" r="10.00px"/>
<text data-id="25" x="146.72" y="-554.90">R25</text>
<circle data-id="26" cx="1342.75" cy="-1059.61" r="10.00px"/>
<text data-id="26" x="1342.75" y="-1059.61">R26</text>
<circle data-id="27" cx="665.52" cy="-1211.98" r="10.00px"/>
<text data-id="27" x="665.52" y="-1211.98">R27</text>
<circle data-id="28" cx="1188.27" cy="-1101.83" r="10.00px"/>
<text data-id="28" x="1188.27" y="-1101.83">R28</text>
<circle data-id="29" cx="266.61" cy="-1085.25" r="10.00px"/>
<text data-id="29" x="266.61" y="-1085.25">R29</text>
<circle data-id="30" cx="1467.46" cy="-1604.62" r="10.00px"/>
<text data-id="30" x="1467.46" y="-1604.62">R30</text>
<circle data-id="31" cx="1188.53" cy="-239.17" r="10.00px"/>
<text data-id="31" x="1188.53" y="-239.17">R31</text>
<circle data-id="32" cx="1035.15" cy="-978.49" r="10.00px"/>
<text data-id="32" x="1035.15" y="-978.49">R32</text>
<circle data-id="33" cx="1112.94" cy="-1345.78" r="10.00px"/>
<text data-id="33" x="1112.94" y="-1345.78">R33</text>
<circle data-id="34" cx="904.49" cy="-949.36" r="10.00px"/>
<text data-id="34" x="904.49" y="-949.36">R34</text>
<circle data-id="35" cx="309.69" cy="-631.09" r="10.00px"/>
<text data-id="35" x="309.69" y="-631.09">R35</text>
<circle data-id="36" cx="707.68" cy="-450.43" r="10.00px"/>
<text data-id="36" x="707.68" y="-450.43">R36</text>
<circle data-id="37" cx="511.21" cy="-429.13" r="10.00px"/>
<text data-id="37" x="511.21" y="-429.13">R37</text>
<circle data-id="38" cx="1212.06" cy="-572.33" r="10.00px"/>
<text data-id="38" x="1212.06" y="-572.33">R38</text>
<circle data-id="39" cx="776.64" cy="-290.40" r="10.00px"/>
<text data-id="39" x="776.64" y="-290.40">R39</text>
<circle data-id="40" cx="175.05" cy="-317.21" r="10.00px"/>
<text data-id="40" x="175.05" y="-317.21">R40</text>
<circle data-id="41" cx="630.09" cy="-1598.82" r="10.00px"/>
<text data-id="41" x="630.09" y="-1598.82">R41</text>
<circle data-id="42" cx="104.72" cy="-500.10" r="10.00px"/>
<text data-id="42" x="104.72" y="-500.10">R42</text>
<circle data-id="43" cx="1154.22" cy="-224.37" r="10.00px"/>
<text data-id="43" x="1154.22" y="-224.37">R43</text>
<circle data-id="44" cx="644.72" cy="-543.42" r="10.00px"/>
<text data-id="44" x="644.72" y="-543.42">R44</text>
<circle data-id="45" cx="1423.23" cy="-377.44" r="10.00px"/>
<text data-id="45" x="1423.23" y="-377.44">R45</text>
<circle data-id="46" cx="901.91" cy="-360.47" r="10.00px"/>
<text data-id="46" x="901.91" y="-360.47">R46</text>
<circle data-id="47" cx="365.55" cy="-1162.84" r="10.00px"/>
<text data-id="47" x="365.55" y="-1162.84">R47</text>
<circle data-id="48" cx="184.39" cy="-653.08" r="10.00px"/>
<text data-id="48" x="184.39" y="-653.08">R48</text>
<circle data-id="49" cx="468.00" cy="-1530.69" r="10.00px"/>
<text data-id="49" x="468.00" y="-1530.69">R49</text>
<circle data-id="50" cx="365.37" cy="-90.61" r="10.00px"/>
<text data-id="50" x="365.37" y="-90.61">R50</text>
<circle data-id="51" cx="1589.87" cy="-1640.82" r="10.00px"/>
<text data-id="51" x="1589.87" y="-1640.82">R51</text>
<circle data-id="52" cx="912.17" cy="-279.14" r="10.00px"/>
<text data-id="52" x="912.17" y="-279.14">R52</text>
<circle data-id="53" cx="1448.15" cy="-807.54" r="10.00px"/>
<text data-id="53" x="1448.15" y="-807.54">R53</text>
<circle data-id="54" cx="1558.76" cy="-1243.99" r="10.00px"/>
<text data-id="54" x="1558.76" y="-1243.99">R54</text>
<circle data-id="55" cx="757.82" cy="-1025.64" r="10.00px"/>
<text data-id="55" x="757.82" y="-1025.64">R55</text>
<circle data-id="56" cx="1217.26" cy="-1592.06" r="10.00px"/>
<text data-id="56" x="1217.26" y="-1592.06">R56</text>
<circle data-id="57" cx="83.13" cy="-840.85" r="10.00px"/>
<text data-id="57" x="83.13" y="-840.85">R57</text>
<circle data-id="58" cx="871.05" cy="-1076.28" r="10.00px"/>
<text data-id="58" x="871.05" y="-1076.28">R58</text>
<circle data-id="59" cx="1632.10" cy="-807.07" r="10.00px"/>
<text data-id="59" x="1632.10" y="-807.07">R59</text>
<circle data-id="60" cx="164.48" cy="-1442.11" r="10.00px"/>
<text data-id="60" x="164.48" y="-1442.11">R60</text>
<circle data-id="61" cx="1440.96" cy="-1577.27" r="10.00px"/>
<text data-id="61" x="1440.96" y="-1577.27">R61</text>
<circle data-id="62" cx="4.35" cy="-584.81" r="10.00px"/>
<text data-id="62" x="4.35" y="-584.81">R62</text>
<circle data-id="63" cx="1199.19" cy="-458.22" r="10.00px"/>
<text data-id="63" x="1199.19" y="-458.22">R63</text>
<circle data-id="64" cx="488.23" cy="-1014.96" r="10.00px"/>
<text data-id="64" x="488.23" y="-1014.96">R64</text>
<circle data-id="65" cx="1224.10" cy="-169.35" r="10.00px"/>
<text data-id="65" x="1224.10" y="-169.35">R65</text>
<circle data-id="66" cx="469.40" cy="-882.76" r="10.00px"/>
<text data-id="66" x="469.40" y="-882.76">R66</text>
<circle data-id="67" cx="1501.46" cy="-1153.87" r="10.00px"/>
<text data-id="67" x="1501.46" y="-1153.87">R67</text>
<circle data-id="68" cx="1568.32" cy="-1190.69" r="10.00px"/>
<text data-id="68" x="1568.32" y="-1190.69">R68</text>
<circle data-id="69" cx="41.96" cy="-600.64" r="10.00px"/>
<text data-id="69" x="41.96" y="-600.64">R69</text>
<circle data-id="70" cx="904.47" cy="-1475.54" r="10.00px"/>
<text data-id="70" x="904.47" y="-1475.54">R70</text>
<circle data-id="71" cx="530.01" cy="-1318.53" r="10.00px"/>
<text data-id="71" x="530.01" y="-1318.53">R71</text>
<circle data-id="72" cx="1296.46" cy="-219.26" r="10.00px"/>
<text data-id="72" x="1296.46" y="-219.26">R72</text>
<circle data-id="73" cx="963.78" cy="-439.01" r="10.00px"/>
<text data-id="73" x="963.78" y="-439.01">R73</text>
<circle data-id="74" cx="1573.27" cy="-1544.22" r="10.00px"/>
<text data-id="74" x="1573.27" y="-1544.22">R74</text>
<circle data-id="75" cx="838.24" cy="-971.09" r="10.00px"/>
<text data-id="75" x="838.24" y="-971.09">R75</text>
<circle data-id="76" cx="1073.30" cy="-874.59" r="10.00px"/>
<text data-id="76" x="1073.30" y="-874.59">R76</text>
<circle data-id="77" cx="1524.10" cy="-714.93" r="10.00px"/>
<text data-id="77" x="1524.10" y="-714.93">R77</text>
<circle data-id="78" cx="1342.33" cy="-648.21" r="10.00px"/>
<text data-id="78" x="1342.33" y="-648.21">R78</text>
<circle data-id="79" cx="1417.26" cy="-239.95" r="10.00px"/>
<text data-id="79" x="1417.26" y="-239.95">R79</text>
<circle data-id="80" cx="1603.19" cy="-294.63" r="10.00px"/>
<text data-id="80" x="1603.19" y="-294.63">R80</text>
<circle data-id="81" cx="636.92" cy="-636.13" r="10.00px"/>
<text data-id="81" x="636.92" y="-636.13">R81</text>
<circle data-id="82" cx="66.59" cy="-1221.14" r="10.00px"/>
<text data-id="82" x="66.59" y="-1221.14">R82</text>
<circle data-id="83" cx="80.38" cy="-753.36" r="10.00px"/>
<text data-id="83" x="80.38" y="-753.36">R83</text>
<circle data-id="84" cx="1076.29" cy="-328.03" r="10.00px"/>
<text data-id="84" x="1076.29" y="-328.03">R84</text>
<circle data-id="85" cx="1006.48" cy="-313.11" r="10.00px"/>
<text data-id="85" x="1006.48" y="-313.11">R85</text>
<circle data-id="86" cx="681.65" cy="-784.56" r="10.00px"/>
<text data-id="86" x="681.65" y="-784.56">R86</text>
<circle data-id="87" cx="497.75" cy="-140.74" r="10.00px"/>
<text data-id="87" x="497.75" y="-140.74">R87</text>
<circle data-id="88" cx="91.25" cy="-1327.12" r="10.00px"/>
<text data-id="88" x="91.25" y="-1327.12">R88</text>
<circle data-id="89" cx="96.13" cy="-780.59" r="10.00px"/>
<text data-id="89" x="96.13" y="-780.59">R89</text>
<circle data-id="90" cx="1168.30" cy="-1296.39" r="10.00px"/>
<text data-id="90" x="1168.30" y="-1296.39">R90</text>
<circle data-id="91" cx="502.87" cy="-177.66" r="10.00px"/>
<text data-id="91" x="502.87" y="-177.66">R91</text>
<circle data-id="92" cx="34.69" cy="-1202.96" r="10.00px"/>
<text data-id="92" x="34.69" y="-1202.96">R92</text>
<circle data-id="93" cx="1406.91" cy="-58.99" r="10.00px"/>
<text data-id="93" x="1406.91" y="-58.99">R93</text>
<circle data-id="94" cx="1621.26" cy="-121.37" r="10.00px"/>
<text data-id="94" x="1621.26" y="-121.37">R94</text>
<circle data-id="95" cx="1283.41" cy="-273.61" r="10.00px"/>
<text data-id="95" x="1283.41" y="-273.61">R95</text>
<circle data-id="96" cx="278.94" cy="-1424.09" r="10.00px"/>
<text data-id="96" x="278.94" y="-1424.09">R96</text>
<circle data-id="97" cx="726.43" cy="-1497.75" r="10.00px"/>
<text data-id="97" x="726.43" y="-1497.75">R97</text>
<circle data-id="98" cx="1051.36" cy="-739.91" r="10.00px"/>
<text data-id="98" x="1051.36" y="-739.91">R98</text>
<circle data-id="99" cx="513.69" cy="-328.97" r="10.00px"/>
<text data-id="99" x="513.69" y="-328.97">R99</text>
<circle data-id="100" cx="173.59" cy="-44.75" r="10.00px"/>
<text data-id="100" x="173.59" y="-44.75">R100</text>
<circle data-id="101" cx="829.88" cy="-350.68" r="10.00px"/>
<text data-id="101" x="829.88" y="-350.68">R101</text>
<circle data-id="102" cx="872.92" cy="-889.44" r="10.00px"/>
<text data-id="102" x="872.92" y="-889.44">R102</text>
<circle data-id="103" cx="1579.23" cy="-1579.09" r="10.00px"/>
<text data-id="103" x="1579.23" y="-1579.09">R103</text>
<circle data-id="104" cx="284.72" cy="-881.63" r="10.00px"/>
<text data-id="104" x="284.72" y="-881.63">R104</text>
<circle data-id="105" cx="244.06" cy="-1331.80" r="10.00px"/>
<text data-id="105" x="244.06" y="-1331.80">R105</text>
<circle data-id="106" cx="233.64" cy="-378.87" r="10.00px"/>
<text data-id="106" x="233.64" y="-378.87">R106</text>
<circle data-id="107" cx="310.29" cy="-368.63" r="10.00px"/>
<text data-id="107" x="310.29" y="-368.63">R107</text>
<circle data-id="108" cx="1114.84" cy="-1202.22" r="10.00px"/>
<text data-id="108" x="1114.84" y="-1202.22">R108</text>
<circle data-id="109" cx="571.40" cy="-678.33" r="10.00px"/>
<text data-id="109" x="571.40" y="-678.33">R109</text>
<circle data-id="110" cx="671.13" cy="-1510.37" r="10.00px"/>
<text data-id="110" x="671.13" y="-1510.37">R110</text>
<circle data-id="111" cx="536.23" cy="-818.94" r="10.00px"/>
<text data-id="111" x="536.23" y="-818.94">R111</text>
<circle data-id="112" cx="680.32" cy="-59.10" r="10.00px"/>
<text data-id="112" x="680.32" y="-59.10">R112</text>
<circle data-id="113" cx="625.87" cy="-581.65" r="10.00px"/>
<text data-id="113" x="625.87" y="-581.65">R113</text>
<circle data-id="114" cx="700.12" cy="-151.19" r="10.00px"/>
<text data-id="114" x="700.12" y="-151.19">R114</text>
<circle data-id="115" cx="1053.29" cy="-111.17" r="10.00px"/>
<text data-id="115" x="1053.29" y="-111.17">R115</text>
<circle data-id="116" cx="1023.49" cy="-1520.39" r="10.00px"/>
<text data-id="116" x="1023.49" y="-1520.39">R116</text>
<circle data-id="117" cx="1416.94" cy="-1324.57" r="10.00px"/>
<text data-id="117" x="1416.94" y="-1324.57">R117</text>
<circle data-id="118" cx="1048.42" cy="-946.43" r="10.00px"/>
<text data-id="118" x="1048.42" y="-946.43">R118</text>
<circle data-id="119" cx="515.86" cy="-1178.76" r="10.00px"/>
<text data-id="119" x="515.86" y="-1178.76">R119</text>
<circle data-id="120" cx="367.92" cy="-1637.96" r="10.00px"/>
<text data-id="120" x="367.92" y="-1637.96">R120</text>
<circle data-id="121" cx="1079.90" cy="-1475.09" r="10.00px"/>
<text data-id="121" x="1079.90" y="-1475.09">R121</text>
<circle data-id="122" cx="860.40" cy="-1577.17" r="10.00px"/>
<text data-id="122" x="860.40" y="-1577.17">R122</text>
<circle data-id="123" cx="1048.96" cy="-674.01" r="10.00px"/>
<text data-id="123" x="1048.96" y="-674.01">R123</text>
<circle data-id="124" cx="757.97" cy="-1495.84" r="10.00px"/>
<text data-id="124" x="757.97" y="-1495.84">R124</text>
<circle data-id="125" cx="1519.02" cy="-279.94" r="10.00px"/>
<text data-id="125" x="1519.02" y="-279.94">R125</text>
<circle data-id="126" cx="717.47" cy="-1403.28" r="10.00px"/>
<text data-id="126" x="717.47" y="-1403.28">R126</text>
<circle data-id="127" cx="1257.47" cy="-1139.45" r="10.00px"/>
<text data-id="127" x="1257.47" y="-1139.45">R127</text>
<circle data-id="128" cx="560.83" cy="-1497.61" r="10.00px"/>
<text data-id="128" x="560.83" y="-1497.61">R128</text>
<circle data-id="129" cx="1383.96" cy="-388.34" r="10.00px"/>
<text data-id="129" x="1383.96" y="-388.34">R129</text>
<circle data-id="130" cx="275.41" cy="-1007.28" r="10.00px"/>
<text data-id="130" x="275.41" y="-1007.28">R130</text>
<circle data-id="131" cx="527.44" cy="-1407.67" r="10.00px"/>
<text data-id="131" x="527.44" y="-1407.67">R131</text>
<circle data-id="132" cx="173.22" cy="-1189.74" r="10.00px"/>
<text data-id="132" x="173.22" y="-1189.74">R132</text>
<circle data-id="133" cx="146.68" cy="-308.76" r="10.00px"/>
<text data-id="133" x="146.68" y="-308.76">R133</text>
<circle data-id="134" cx="1576.85" cy="-429.44" r="10.00px"/>
<text data-id="134" x="1576.85" y="-429.44">R134</text>
<circle data-id="135" cx="756.78" cy="-1523.83" r="10.00px"/>
<text data-id="135" x="756.78" y="-1523.83">R135</text>
<circle data-id="136" cx="125.34" cy="-1472.91" r="10.00px"/>
<text data-id="136" x="125.34" y="-1472.91">R136</text>
<circle data-id="137" cx="967.27" cy="-1582.42" r="10.00px"/>
<text data-id="137" x="967.27" y="-1582.42">R137</text>
<circle data-id="138" cx="1237.91" cy="-125.11" r="10.00px"/>
<text data-id="138" x="1237.91" y="-125.11">R138</text>
<circle data-id="139" cx="1313.85" cy="-196.28" r="10.00px"/>
<text data-id="139" x="1313.85" y="-196.28">R139</text>
<circle data-id="140" cx="1307.46" cy="-1164.50" r="10.00px"/>
<text data-id="140" x="1307.46" y="-1164.50">R140</text>
<circle data-id="141" cx="633.87" cy="-1218.01" r="10.00px"/>
<text data-id="141" x="633.87" y="-1218.01">R141</text>
<circle data-id="142" cx="288.48" cy="-250.86" r="10.00px"/>
<text data-id="142" x="288.48" y="-250.86">R142</text>
<circle data-id="143" cx="1622.31" cy="-1058.49" r="10.00px"/>
<text data-id="143" x="1622.31" y="-1058.49">R143</text>
<circle data-id="144" cx="988.71" cy="-1207.18" r="10.00px"/>
<text data-id="144" x="988.71" y="-1207.18">R144</text>
<circle data-id="145" cx="394.23" cy="-1612.45" r="10.00px"/>
<text data-id="145" x="394.23" y="-1612.45">R145</text>
<circle data-id="146" cx="1418.97" cy="-286.32" r="10.00px"/>
<text data-id="146" x="1418.97" y="-286.32">R146</text>
<circle data-id="147" cx="1233.90" cy="-494.06" r="10.00px"/>
<text data-id="147" x="1233.90" y="-494.06">R147</text>
<circle data-id="148" cx="249.37" cy="-461.49" r="10.00px"/>
<text data-id="148" x="249.37" y="-461.49">R148</text>
<circle data-id="149" cx="67.61" cy="-671.83" r="10.00px"/>
<text data-id="149" x="67.61" y="-671.83">R149</text>
<circle data-id="150" cx="916.44" cy="-141.69" r="10.00px"/>
<text data-id="150" x="916.44" y="-141.69">R150</text>
<circle data-id="151" cx="805.72" cy="-1338.40" r="10.00px"/>
<text data-id="151" x="805.72" y="-1338.40">R151</text>
<circle data-id="152" cx="393.08" cy="-66.00" r="10.00px"/>
<text data-id="152" x="393.08" y="-66.00">R152</text>
<circle data-id="153" cx="1614.49" cy="-576.66" r="10.00px"/>
<text data-id="153" x="1614.49" y="-576.66">R153</text>
<circle data-id="154" cx="193.28" cy="-1396.35" r="10.00px"/>
<text data-id="154" x="193.28" y="-1396.35">R154</text>
<circle data-id="155" cx="6.00" cy="-199.81" r="10.00px"/>
<text data-id="155" x="6.00" y="-199.81">R155</text>
<circle data-id="156" cx="313.65" cy="-1441.29" r="10.00px"/>
<text data-id="156" x="313.65" y="-1441.29">R156</text>
<circle data-id="157" cx="1393.95" cy="-321.05" r="10.00px"/>
<text data-id="157" x="1393.95" y="-321.05">R157</text>
<circle data-id="158" cx="263.88" cy="-180.62" r="10.00px"/>
<text data-id="158" x="263.88" y="-180.62">R158</text>
<circle data-id="159" cx="653.14" cy="-202.03" r="10.00px"/>
<text data-id="159" x="653.14" y="-202.03">R159</text>
<circle data-id="160" cx="1485.90" cy="-506.16" r="10.00px"/>
<text data-id="160" x="1485.90" y="-506.16">R160</text>
<circle data-id="161" cx="28.28" cy="-153.10" r="10.00px"/>
<text data-id="161" x="28.28" y="-153.10">R161</text>
<circle data-id="162" cx="943.63" cy="-1093.88" r="10.00px"/>
<text data-id="162" x="943.63" y="-1093.88">R162</text>
<circle data-id="163" cx="939.02" cy="-1562.61" r="10.00px"/>
<text data-id="163" x="939.02" y="-1562.61">R163</text>
<circle data-id="164" cx="602.19" cy="-393.12" r="10.00px"/>
<text data-id="164" x="602.19" y="-393.12">R164</text>
<circle data-id="165" cx="845.95" cy="-1127.41" r="10.00px"/>
<text data-id="165" x="845.95" y="-1127.41">R165</text>
<circle data-id="166" cx="1308.43" cy="-410.04" r="10.00px"/>
<text data-id="166" x="1308.43" y="-410.04">R166</text>
<circle data-id="167" cx="434.15" cy="-408.26" r="10.00px"/>
<text data-id="167" x="434.15" y="-408.26">R167</text>
<circle data-id="168" cx="192.65" cy="-1544.88" r="10.00px"/>
<text data-id="168" x="192.65" y="-1544.88">R168</text>
<circle data-id="169" cx="783.30" cy="-1438.20" r="10.00px"/>
<text data-id="169" x="783.30" y="-1438.20">R169</text>
<circle data-id="170" cx="1336.14" cy="-847.62" r="10.00px"/>
<text data-id="170" x="1336.14" y="-847.62">R170</text>
<circle data-id="171" cx="1573.64" cy="-320.30" r="10.00px"/>
<text data-id="171" x="1573.64" y="-320.30">R171</text>
<circle data-id="172" cx="1023.89" cy="-343.69" r="10.00px"/>
<text data-id="172" x="1023.89" y="-343.69">R172</text>
<circle data-id="173" cx="1232.65" cy="-1543.85" r="10.00px"/>
<text data-id="173" x="1232.65" y="-1543.85">R173</text>
<circle data-id="174" cx="1048.81" cy="-630.72" r="10.00px"/>
<text data-id="174" x="1048.81" y="-630.72">R174</text>
<circle data-id="175" cx="1347.75" cy="-1119.21" r="10.00px"/>
<text data-id="175" x="1347.75" y="-1119.21">R175</text>
<circle data-id="176" cx="1325.42" cy="-1193.53" r="10.00px"/>
<text data-id="176" x="1325.42" y="-1193.53">R176</text>
<circle data-id="177" cx="146.90" cy="-752.54" r="10.00px"/>
<text data-id="177" x="146.90" y="-752.54">R177</text>
<circle data-id="178" cx="352.92" cy="-921.97" r="10.00px"/>
<text data-id="178" x="352.92" y="-921.97">R178</text>
<circle data-id="179" cx="861.73" cy="-1387.53" r="10.00px"/>
<text data-id="179" x="861.73" y="-1387.53">R179</text>
<circle data-id="180" cx="1261.52" cy="-335.98" r="10.00px"/>
<text data-id="180" x="1261.52" y="-335.98">R180</text>
<circle data-id="181" cx="370.89" cy="-394.74" r="10.00px"/>
<text data-id="181" x="370.89" y="-394.74">R181</text>
<circle data-id="182" cx="1466.44" cy="-1193.06" r="10.00px"/>
<text data-id="182" x="1466.44" y="-1193.06">R182</text>
<circle data-id="183" cx="382.51" cy="-571.71" r="10.00px"/>
<text data-id="183" x="382.51" y="-571.71">R183</text>
<circle data-id="184" cx="1104.74" cy="-1550.04" r="10.00px"/>
<text data-id="184" x="1104.74" y="-1550.04">R184</text>
<circle data-id="185" cx="1156.40" cy="-344.58" r="10.00px"/>
<text data-id="185" x="1156.40" y="-344.58">R185</text>
<circle data-id="186" cx="1585.08" cy="-385.15" r="10.00px"/>
<text data-id="186" x="1585.08" y="-385.15">R186</text>
<circle data-id="187" cx="30.15" cy="-962.34" r="10.00px"/>
<text data-id="187" x="30.15" y="-962.34">R187</text>
<circle data-id="188" cx="1511.49" cy="-430.99" r="10.00px"/>
<text data-id="188" x="1511.49" y="-430.99">R188</text>
<circle data-id="189" cx="1439.93" cy="-1101.28" r="10.00px"/>
<text data-id="189" x="1439.93" y="-1101.28">R189</text>
<circle data-id="190" cx="630.79" cy="-668.21" r="10.00px"/>
<text data-id="190" x="630.79" y="-668.21">R190</text>
<circle data-id="191" cx="695.02" cy="-1082.44" r="10.00px"/>
<text data-id="191" x="695.02" y="-1082.44">R191</text>
<circle data-id="192" cx="478.75" cy="-355.59" r="10.00px"/>
<text data-id="192" x="478.75" y="-355.59">R192</text>
<circle data-id="193" cx="808.92" cy="-513.99" r="10.00px"/>
<text data-id="193" x="808.92" y="-513.99">R193</text>
<circle data-id="194" cx="1438.74" cy="-1436.16" r="10.00px"/>
<text data-id="194" x="1438.74" y="-1436.16">R194</text>
<circle data-id="195" cx="1148.13" cy="-1610.54" r="10.00px"/>
<text data-id="195" x="1148.13" y="-1610.54">R195</text>
<circle data-id="196" cx="668.29" cy="-853.24" r="10.00px"/>
<text data-id="196" x="668.29" y="-853.24">R196</text>
<circle data-id="197" cx="626.55" cy="-1320.06" r="10.00px"/>
<text data-id="197" x="626.55" y="-1320.06">R197</text>
<circle data-id="198" cx="1287.13" cy="-634.55" r="10.00px"/>
<text data-id="198" x="1287.13" y="-634.55">R198</text>
<circle data-id="199" cx="57.19" cy="-381.56" r="10.00px"/>
<text data-id="199" x="57.19" y="-381.56">R199</text>
<circle data-id="200" cx="836.36" cy="-1549.77" r="10.00px"/>
<text data-id="200" x="836.36" y="-1549.77">R200</text>
<circle data-id="201" cx="1248.27" cy="-1210.12" r="10.00px"/>
<text data-id="201" x="1248.27" y="-1210.12">R201</text>
<circle data-id="202" cx="982.13" cy="-1416.03" r="10.00px"/>
<text data-id="202" x="982.13" y="-1416.03">R202</text>
<circle data-id="203" cx="1618.67" cy="-1260.28" r="10.00px"/>
<text data-id="203" x="1618.67" y="-1260.28">R203</text>
<circle data-id="204" cx="1104.82" cy="-48.05" r="10.00px"/>
<text data-id="204" x="1104.82" y="-48.05">R204</text>
<circle data-id="205" cx="177.75" cy="-540.54" r="10.00px"/>
<text data-id="205" x="177.75" y="-540.54">R205</text>
<circle data-id="206" cx="1457.34" cy="-1053.47" r="10.00px"/>
<text data-id="206" x="1457.34" y="-1053.47">R206</text>
<circle data-id="207" cx="222.86" cy="-950.35" r="10.00px"/>
<text data-id="207" x="222.86" y="-950.35">R207</text>
<circle data-id="208" cx="1616.19" cy="-732.57" r="10.00px"/>
<text data-id="208" x="1616.19" y="-732.57">R208</text>
<circle data-id="209" cx="516.08" cy="-841.34" r="10.00px"/>
<text data-id="209" x="516.08" y="-841.34">R209</text>
<circle data-id="210" cx="604.71" cy="-1018.51" r="10.00px"/>
<text data-id="210" x="604.71" y="-1018.51">R210</text>
<circle data-id="211" cx="1654.25" cy="-1253.12" r="10.00px"/>
<text data-id="211" x="1654.25" y="-1253.12">R211</text>
<circle data-id="212" cx="1426.52" cy="-1352.81" r="10.00px"/>
<text data-id="212" x="1426.52" y="-1352.81">R212</text>
<circle data-id="213" cx="1010.38" cy="-1598.86" r="10.00px"/>
<text data-id="213" x="1010.38" y="-1598.86">R213</text>
<circle data-id="214" cx="1530.08" cy="-764.90" r="10.00px"/>
<text data-id="214" x="1530.08" y="-764.90">R214</text>
<circle data-id="215" cx="1485.16" cy="-1585.37" r="10.00px"/>
<text data-id="215" x="1485.16" y="-1585.37">R215</text>
<circle data-id="216" cx="1232.51" cy="-795.43" r="10.00px"/>
<text data-id="216" x="1232.51" y="-795.43">R216</text>
<circle data-id="217" cx="1327.55" cy="-1026.48" r="10.00px"/>
<text data-id="217" x="1327.55" y="-1026.48">R217</text>
<circle data-id="218" cx="1050.52" cy="-12.60" r="10.00px"/>
<text data-id="218" x="1050.52" y="-12.60">R218</text>
<circle data-id="219" cx="590.50" cy="-1460.33" r="10.00px"/>
<text data-id="219" x="590.50" y="-1460.33">R219</text>
<circle data-id="220" cx="879.12" cy="-606.00" r="10.00px"/>
<text data-id="220" x="879.12" y="-606.00">R220</text>
<circle data-id="221" cx="1602.76" cy="-853.36" r="10.00px"/>
<text data-id="221" x="1602.76" y="-853.36">R221</text>
<circle data-id="222" cx="715.60" cy="-686.81" r="10.00px"/>
<text data-id="222" x="715.60" y="-686.81">R222</text>
<circle data-id="223" cx="987.72" cy="-1052.90" r="10.00px"/>
<text data-id="223" x="987.72" y="-1052.90">R223</text>
<circle data-id="224" cx="176.77" cy="-405.44" r="10.00px"/>
<text data-id="224" x="176.77" y="-405.44">R224</text>
<circle data-id="225" cx="458.43" cy="-1482.95" r="10.00px"/>
<text data-id="225" x="458.43" y="-1482.95">R225</text>
<circle data-id="226" cx="432.26" cy="-1139.13" r="10.00px"/>
<text data-id="226" x="432.26" y="-1139.13">R226</text>
<circle data-id="227" cx="645.01" cy="-430.41" r="10.00px"/>
<text data-id="227" x="645.01" y="-430.41">R227</text>
<circle data-id="228" cx="759.33" cy="-1133.32" r="10.00px"/>
<text data-id="228" x="759.33" y="-1133.32">R228</text>
<circle data-id="229" cx="250.71" cy="-87.52" r="10.00px"/>
<text data-id="229" x="250.71" y="-87.52">R229</text>
<circle data-id="230" cx="352.58" cy="-1522.01" r="10.00px"/>
<text data-id="230" x="352.58" y="-1522.01">R230</text>
<circle data-id="231" cx="1412.99" cy="-1464.16" r="10.00px"/>
<text data-id="231" x="1412.99" y="-1464.16">R231</text>
<circle data-id="232" cx="926.38" cy="-964.78" r="10.00px"/>
<text data-id="232" x="926.38" y="-964.78">R232</text>
<circle data-id="233" cx="1491.13" cy="-539.04" r="10.00px"/>
<text data-id="233" x="1491.13" y="-539.04">R233</text>
<circle data-id="234" cx="1176.33" cy="-962.76" r="10.00px"/>
<text data-id="234" x="1176.33" y="-962.76">R234</text>
<circle data-id="235" cx="1354.50" cy="-1219.47" r="10.00px"/>
<text data-id="235" x="1354.50" y="-1219.47">R235</text>
<circle data-id="236" cx="474.47" cy="-729.20" r="10.00px"/>
<text data-id="236" x="474.47" y="-729.20">R236</text>
<circle data-id="237" cx="1489.30" cy="-326.10" r="10.00px"/>
<text data-id="237" x="1489.30" y="-326.10">R237</text>
<circle data-id="238" cx="127.43" cy="-465.06" r="10.00px"/>
<text data-id="238" x="127.43" y="-465.06">R238</text>
<circle data-id="239" cx="91.88" cy="-1602.22" r="10.00px"/>
<text data-id="239" x="91.88" y="-1602.22">R239</text>
<circle data-id="240" cx="106.88" cy="-815.13" r="10.00px"/>
<text data-id="240" x="106.88" y="-815.13">R240</text>
<circle data-id="241" cx="502.50" cy="-962.56" r="10.00px"/>
<text data-id="241" x="502.50" y="-962.56">R241</text>
<circle data-id="242" cx="1122.06" cy="-1395.00" r="10.00px"/>
<text data-id="242" x="1122.06" y="-1395.00">R242</text>
<circle data-id="243" cx="1241.17" cy="-620.02" r="10.00px"/>
<text data-id="243" x="1241.17" y="-620.02">R243</text>
<circle data-id="244" cx="1061.36" cy="-1023.54" r="10.00px"/>
<text data-id="244" x="1061.36" y="-1023.54">R244</text>
<circle data-id="245" cx="1567.18" cy="-1603.02" r="10.00px"/>
<text data-id="245" x="1567.18" y="-1603.02">R245</text>
<circle data-id="246" cx="656.71" cy="-1539.49" r="10.00px"/>
<text data-id="246" x="656.71" y="-1539.49">R246</text>
<circle data-id="247" cx="1014.46" cy="-140.96" r="10.00px"/>
<text data-id="247" x="1014.46" y="-140.96">R247</text>
<circle data-id="248" cx="375.55" cy="-902.37" r="10.00px"/>
<text data-id="248" x="375.55" y="-902.37">R248</text>
<circle data-id="249" cx="1570.01" cy="-756.87" r="10.00px"/>
<text data-id="249" x="1570.01" y="-756.87">R249</text>
<circle data-id="250" cx="1164.66" cy="-627.51" r="10.00px"/>
<text data-id="250" x="1164.66" y="-627.51">R250</text>
<circle data-id="251" cx="1228.59" cy="-284.86" r="10.00px"/>
<text data-id="251" x="1228.59" y="-284.86">R251</text>
<circle data-id="252" cx="229.20" cy="-1397.75" r="10.00px"/>
<text data-id="252" x="229.20" y="-1397.75">R252</text>
<circle data-id="253" cx="1464.95" cy="-653.85" r="10.00px"/>
<text data-id="253" x="1464.95" y="-653.85">R253</text>
<circle data-id="254" cx="356.38" cy="-230.06" r="10.00px"/>
<text data-id="254" x="356.38" y="-230.06">R254</text>
<circle data-id="255" cx="437.21" cy="-256.73" r="10.00px"/>
<text data-id="255" x="437.21" y="-256.73">R255</text>
<circle data-id="256" cx="110.05" cy="-527.23" r="10.00px"/>
<text data-id="256" x="110.05" y="-527.23">R256</text>
<circle data-id="257" cx="730.20" cy="-34.03" r="10.00px"/>
<text data-id="257" x="730.20" y="-34.03">R257</text>
<circle data-id="258" cx="856.69" cy="-291.84" r="10.00px"/>
<text data-id="258" x="856.69" y="-291.84">R258</text>
<circle data-id="259" cx="1106.77" cy="-260.19" r="10.00px"/>
<text data-id="259" x="1106.77" y="-260.19">R259</text>
<circle data-id="260" cx="1616.55" cy="-1033.11" r="10.00px"/>
<text data-id="260" x="1616.55" y="-1033.11">R260</text>
<circle data-id="261" cx="1578.60" cy="-189.52" r="10.00px"/>
<text data-id="261" x="1578.60" y="-189.52">R261</text>
<circle data-id="262" cx="1074.39" cy="-590.54" r="10.00px"/>
<text data-id="262" x="1074.39" y="-590.54">R262</text>
<circle data-id="263" cx="1644.90" cy="-1377.49" r="10.00px"/>
<text data-id="263" x="1644.90" y="-1377.49">R263</text>
<circle data-id="264" cx="179.44" cy="-287.79" r="10.00px"/>
<text data-id="264" x="179.44" y="-287.79">R264</text>
<circle data-id="265" cx="213.60" cy="-714.49" r="10.00px"/>
<text data-id="265" x="213.60" y="-714.49">R265</text>
<circle data-id="266" cx="550.09" cy="-903.70" r="10.00px"/>
<text data-id="266" x="550.09" y="-903.70">R266</text>
<circle data-id="267" cx="1543.47" cy="-1128.67" r="10.00px"/>
<text data-id="267" x="1543.47" y="-1128.67">R267</text>
<circle data-id="268" cx="48.95" cy="-1406.15" r="10.00px"/>
<text data-id="268" x="48.95" y="-1406.15">R268</text>
<circle data-id="269" cx="1199.19" cy="-1421.94" r="10.00px"/>
<text data-id="269" x="1199.19" y="-1421.94">R269</text>
<circle data-id="270" cx="1017.10" cy="-1101.92" r="10.00px"/>
<text data-id="270" x="1017.10" y="-1101.92">R270</text>
<circle data-id="271" cx="191.99" cy="-836.53" r="10.00px"/>
<text data-id="271" x="191.99" y="-836.53">R271</text>
<circle data-id="272" cx="1198.14" cy="-1633.74" r="10.00px"/>
<text data-id="272" x="1198.14" y="-1633.74">R272</text>
<circle data-id="273" cx="487.94" cy="-514.41" r="10.00px"/>
<text data-id="273" x="487.94" y="-514.41">R273</text>
<circle data-id="274" cx="207.82" cy="-444.71" r="10.00px"/>
<text data-id="274" x="207.82" y="-444.71">R274</text>
</svg>
