<svg id="topo" width="1734.81" height="1746.34" viewBox="-38.12 -44.44 1734.81 1746.34" xmlns="http://www.w3.org/2000/svg">
<style>#topo path {fill: none; stroke: grey; stroke-width: 6;} #topo circle {fill: lightblue; stroke: none;} #topo text {fill: black; stroke: none; font-size: 16; font-family: sans-serif; text-anchor:middle;}</style>
<path d="M161.89,368.96,193.00,309.46"/>
<path d="M161.89,368.96,117.37,290.36"/>
<path d="M161.89,368.96,165.30,467.56"/>
<path d="M161.89,368.96,91.05,396.49"/>
<path d="M161.89,368.96,314.40,408.60"/>
<path d="M354.45,707.12,449.68,707.16"/>
<path d="M354.45,707.12,337.21,644.49"/>
<path d="M354.45,707.12,286.91,829.02"/>
<path d="M354.45,707.12,390.39,803.89"/>
<path d="M354.45,707.12,313.16,698.44"/>
<path d="M354.45,707.12,417.35,646.33"/>
<path d="M1018.72,859.23,1045.80,670.40"/>
<path d="M1018.72,859.23,1222.95,731.44"/>
<path d="M1018.72,859.23,1216.11,908.83"/>
<path d="M1018.72,859.23,996.98,872.34"/>
<path d="M1018.72,859.23,1010.37,893.63"/>
<path d="M651.30,1214.70,633.84,1178.38"/>
<path d="M651.30,1214.70,666.99,1300.47"/>
<path d="M651.30,1214.70,722.39,1154.63"/>
<path d="M589.44,1387.72,641.75,1475.25"/>
<path d="M589.44,1387.72,613.54,1378.34"/>
<path d="M589.44,1387.72,524.34,1334.91"/>
<path d="M357.79,1616.02,247.48,1648.72"/>
<path d="M357.79,1616.02,245.20,1612.39"/>
<path d="M357.79,1616.02,389.62,1637.91"/>
<path d="M357.79,1616.02,327.42,1553.68"/>
<path d="M486.37,565.27,427.26,519.40"/>
<path d="M486.37,565.27,572.35,497.69"/>
<path d="M486.37,565.27,633.97,604.93"/>
<path d="M486.37,565.27,442.31,644.81"/>
<path d="M486.37,565.27,412.47,596.79"/>
<path d="M1520.87,1609.86,1607.66,1623.83"/>
<path d="M1520.87,1609.86,1513.97,1554.37"/>
<path d="M1169.90,673.28,1123.31,669.01"/>
<path d="M1169.90,673.28,1130.09,597.59"/>
<path d="M1169.90,673.28,1222.95,731.44"/>
<path d="M1169.90,673.28,1243.22,609.13"/>
<path d="M651.81,953.62,708.16,1047.91"/>
<path d="M651.81,953.62,674.18,938.93"/>
<path d="M651.81,953.62,595.35,1017.82"/>
<path d="M651.81,953.62,590.61,938.67"/>
<path d="M801.30,8.87,1018.84,53.63"/>
<path d="M801.30,8.87,790.77,47.12"/>
<path d="M1292.64,1587.84,1201.34,1426.77"/>
<path d="M1292.64,1587.84,1388.28,1479.56"/>
<path d="M1292.64,1587.84,1413.54,1544.49"/>
<path d="M1292.64,1587.84,1283.19,1620.10"/>
<path d="M457.93,1482.23,433.46,1582.84"/>
<path d="M457.93,1482.23,347.64,1450.15"/>
<path d="M457.93,1482.23,620.43,1528.07"/>
<path d="M457.93,1482.23,327.42,1553.68"/>
<path d="M457.93,1482.23,471.84,1390.18"/>
<path d="M983.12,1396.05,1042.23,1402.64"/>
<path d="M983.12,1396.05,959.48,1409.21"/>
<path d="M983.12,1396.05,994.69,1373.77"/>
<path d="M1161.12,95.03,1273.44,126.51"/>
<path d="M1161.12,95.03,1260.68,0.80"/>
<path d="M1161.12,95.03,1115.50,209.45"/>
<path d="M1161.12,95.03,1114.24,18.52"/>
<path d="M1161.12,95.03,1069.69,83.15"/>
<path d="M1161.12,95.03,1208.61,171.54"/>
<path d="M1201.34,1426.77,1133.12,1425.59"/>
<path d="M1201.34,1426.77,1335.19,1388.98"/>
<path d="M1201.34,1426.77,1164.67,1376.52"/>
<path d="M955.09,239.82,881.42,169.89"/>
<path d="M955.09,239.82,1047.85,242.37"/>
<path d="M955.09,239.82,998.05,189.50"/>
<path d="M955.09,239.82,848.57,240.79"/>
<path d="M955.09,239.82,868.91,321.77"/>
<path d="M955.09,239.82,1037.17,397.14"/>
<path d="M45.38,312.86,117.37,290.36"/>
<path d="M45.38,312.86,6.88,265.11"/>
<path d="M45.38,312.86,91.05,396.49"/>
<path d="M687.22,1087.16,708.16,1047.91"/>
<path d="M687.22,1087.16,722.39,1154.63"/>
<path d="M687.22,1087.16,653.17,1099.91"/>
<path d="M808.77,538.56,829.09,604.69"/>
<path d="M808.77,538.56,707.29,521.83"/>
<path d="M808.77,538.56,832.06,459.20"/>
<path d="M943.75,1329.45,996.96,1278.02"/>
<path d="M943.75,1329.45,959.48,1409.21"/>
<path d="M943.75,1329.45,768.56,1333.31"/>
<path d="M943.75,1329.45,994.69,1373.77"/>
<path d="M1018.84,53.63,881.42,169.89"/>
<path d="M1018.84,53.63,998.05,189.50"/>
<path d="M1018.84,53.63,1069.69,83.15"/>
<path d="M1042.23,1402.64,1133.12,1425.59"/>
<path d="M1042.23,1402.64,1087.27,1326.63"/>
<path d="M1042.23,1402.64,994.69,1373.77"/>
<path d="M987.36,1136.87,1016.51,1045.70"/>
<path d="M987.36,1136.87,722.39,1154.63"/>
<path d="M987.36,1136.87,950.45,1027.19"/>
<path d="M987.36,1136.87,1055.20,1236.71"/>
<path d="M1624.64,368.41,1641.91,325.46"/>
<path d="M1624.64,368.41,1517.31,355.31"/>
<path d="M1123.31,669.01,1045.80,670.40"/>
<path d="M1123.31,669.01,1130.09,597.59"/>
<path d="M1591.58,723.28,1490.08,637.73"/>
<path d="M1591.58,723.28,1544.22,795.37"/>
<path d="M1490.08,637.73,1470.84,575.44"/>
<path d="M1539.16,1448.85,1538.07,1478.23"/>
<path d="M1539.16,1448.85,1555.09,1396.47"/>
<path d="M1507.36,1530.06,1538.07,1478.23"/>
<path d="M1507.36,1530.06,1562.29,1514.99"/>
<path d="M1507.36,1530.06,1485.58,1512.30"/>
<path d="M1507.36,1530.06,1513.97,1554.37"/>
<path d="M449.68,707.16,415.86,803.53"/>
<path d="M449.68,707.16,442.31,644.81"/>
<path d="M449.68,707.16,517.61,785.03"/>
<path d="M1636.72,1095.58,1651.69,1296.41"/>
<path d="M1636.72,1095.58,1617.92,1033.10"/>
<path d="M204.22,651.73,169.50,577.09"/>
<path d="M204.22,651.73,241.57,637.72"/>
<path d="M204.22,651.73,188.91,709.97"/>
<path d="M423.83,1651.66,417.91,1620.00"/>
<path d="M423.83,1651.66,609.84,1616.09"/>
<path d="M423.83,1651.66,389.62,1637.91"/>
<path d="M662.15,1372.49,641.75,1475.25"/>
<path d="M662.15,1372.49,720.19,1305.36"/>
<path d="M662.15,1372.49,666.99,1300.47"/>
<path d="M662.15,1372.49,613.54,1378.34"/>
<path d="M662.15,1372.49,733.58,1438.78"/>
<path d="M1273.34,302.30,1194.18,282.69"/>
<path d="M1273.34,302.30,1342.95,195.42"/>
<path d="M1273.34,302.30,1212.07,429.84"/>
<path d="M1273.34,302.30,1306.93,331.35"/>
<path d="M881.42,169.89,799.71,184.77"/>
<path d="M881.42,169.89,998.05,189.50"/>
<path d="M881.42,169.89,831.23,124.92"/>
<path d="M881.42,169.89,848.57,240.79"/>
<path d="M395.29,1324.40,347.64,1450.15"/>
<path d="M395.29,1324.40,376.33,1281.58"/>
<path d="M395.29,1324.40,266.52,1369.08"/>
<path d="M395.29,1324.40,471.84,1390.18"/>
<path d="M393.21,162.01,470.68,155.38"/>
<path d="M393.21,162.01,388.37,188.18"/>
<path d="M393.21,162.01,378.57,66.07"/>
<path d="M393.21,162.01,293.93,95.09"/>
<path d="M141.29,1303.07,226.96,1304.95"/>
<path d="M141.29,1303.07,78.49,1226.69"/>
<path d="M141.29,1303.07,167.59,1260.55"/>
<path d="M141.29,1303.07,85.76,1378.51"/>
<path d="M322.62,882.05,412.47,917.49"/>
<path d="M322.62,882.05,175.75,904.52"/>
<path d="M322.62,882.05,286.91,829.02"/>
<path d="M322.62,882.05,390.39,803.89"/>
<path d="M322.62,882.05,308.72,943.40"/>
<path d="M1538.07,1478.23,1562.29,1514.99"/>
<path d="M1538.07,1478.23,1485.58,1512.30"/>
<path d="M1045.80,670.40,1012.23,631.54"/>
<path d="M1047.85,242.37,998.05,189.50"/>
<path d="M1047.85,242.37,1064.57,194.52"/>
<path d="M1047.85,242.37,1037.17,397.14"/>
<path d="M1047.85,242.37,1113.12,252.18"/>
<path d="M907.43,936.29,767.85,1037.70"/>
<path d="M907.43,936.29,871.47,845.72"/>
<path d="M907.43,936.29,996.98,872.34"/>
<path d="M907.43,936.29,1010.37,893.63"/>
<path d="M907.43,936.29,950.45,1027.19"/>
<path d="M907.43,936.29,833.53,870.80"/>
<path d="M193.00,309.46,252.97,229.78"/>
<path d="M193.00,309.46,136.22,218.58"/>
<path d="M193.00,309.46,117.37,290.36"/>
<path d="M193.00,309.46,314.40,408.60"/>
<path d="M1565.72,833.18,1451.78,870.38"/>
<path d="M1565.72,833.18,1500.46,944.18"/>
<path d="M1565.72,833.18,1544.22,795.37"/>
<path d="M226.96,1304.95,230.60,1236.71"/>
<path d="M226.96,1304.95,262.66,1298.36"/>
<path d="M226.96,1304.95,167.59,1260.55"/>
<path d="M226.96,1304.95,266.52,1369.08"/>
<path d="M1012.23,631.54,906.69,687.06"/>
<path d="M1012.23,631.54,1037.17,397.14"/>
<path d="M1012.23,631.54,938.15,596.92"/>
<path d="M1180.98,1308.47,1212.82,1170.70"/>
<path d="M1180.98,1308.47,1087.27,1326.63"/>
<path d="M1180.98,1308.47,1164.67,1376.52"/>
<path d="M1180.98,1308.47,1233.09,1325.75"/>
<path d="M412.47,917.49,415.86,803.53"/>
<path d="M412.47,917.49,510.32,1000.95"/>
<path d="M412.47,917.49,390.39,803.89"/>
<path d="M412.47,917.49,308.72,943.40"/>
<path d="M412.47,917.49,424.47,1034.71"/>
<path d="M799.71,184.77,831.23,124.92"/>
<path d="M799.71,184.77,848.57,240.79"/>
<path d="M799.71,184.77,770.75,261.22"/>
<path d="M829.09,604.69,894.90,659.06"/>
<path d="M829.09,604.69,713.00,722.36"/>
<path d="M829.09,604.69,938.15,596.92"/>
<path d="M1376.66,1071.13,1375.26,1157.88"/>
<path d="M1376.66,1071.13,1513.00,1011.27"/>
<path d="M1376.66,1071.13,1349.64,1011.03"/>
<path d="M558.26,357.78,770.75,261.22"/>
<path d="M558.26,357.78,542.27,232.70"/>
<path d="M558.26,357.78,553.60,405.70"/>
<path d="M558.26,357.78,437.22,248.91"/>
<path d="M1385.90,295.30,1407.99,254.86"/>
<path d="M1385.90,295.30,1306.93,331.35"/>
<path d="M1385.90,295.30,1517.31,355.31"/>
<path d="M1621.87,197.45,1545.59,174.92"/>
<path d="M1621.87,197.45,1627.89,250.86"/>
<path d="M415.86,803.53,390.39,803.89"/>
<path d="M415.86,803.53,517.61,785.03"/>
<path d="M1380.36,1209.75,1375.26,1157.88"/>
<path d="M1380.36,1209.75,1335.19,1388.98"/>
<path d="M1380.36,1209.75,1512.34,1324.56"/>
<path d="M1380.36,1209.75,1233.09,1325.75"/>
<path d="M1272.17,968.34,1263.80,1163.20"/>
<path d="M1272.17,968.34,1216.11,908.83"/>
<path d="M1272.17,968.34,1396.61,880.61"/>
<path d="M1272.17,968.34,1247.12,889.00"/>
<path d="M1272.17,968.34,1349.64,1011.03"/>
<path d="M1272.17,968.34,1214.01,983.46"/>
<path d="M1194.18,282.69,1155.44,347.11"/>
<path d="M1194.18,282.69,1208.61,171.54"/>
<path d="M1194.18,282.69,1113.12,252.18"/>
<path d="M1372.46,184.00,1370.95,95.58"/>
<path d="M1372.46,184.00,1407.99,254.86"/>
<path d="M1372.46,184.00,1342.95,195.42"/>
<path d="M1372.46,184.00,1506.79,192.12"/>
<path d="M252.97,229.78,136.22,218.58"/>
<path d="M252.97,229.78,215.88,130.64"/>
<path d="M252.97,229.78,388.37,188.18"/>
<path d="M998.05,189.50,1064.57,194.52"/>
<path d="M998.05,189.50,1069.69,83.15"/>
<path d="M148.60,1211.79,78.49,1226.69"/>
<path d="M148.60,1211.79,188.86,1131.13"/>
<path d="M148.60,1211.79,167.59,1260.55"/>
<path d="M148.60,1211.79,229.34,1151.86"/>
<path d="M1403.37,978.92,1396.61,880.61"/>
<path d="M1403.37,978.92,1513.00,1011.27"/>
<path d="M1403.37,978.92,1349.64,1011.03"/>
<path d="M1403.37,978.92,1470.96,931.11"/>
<path d="M136.22,218.58,117.37,290.36"/>
<path d="M136.22,218.58,107.20,199.30"/>
<path d="M117.37,290.36,91.05,396.49"/>
<path d="M1016.51,1045.70,1165.43,1051.73"/>
<path d="M1016.51,1045.70,1010.37,893.63"/>
<path d="M1016.51,1045.70,950.45,1027.19"/>
<path d="M767.85,1037.70,731.84,1019.64"/>
<path d="M767.85,1037.70,950.45,1027.19"/>
<path d="M767.85,1037.70,833.53,870.80"/>
<path d="M247.48,1648.72,245.20,1612.39"/>
<path d="M1388.28,1479.56,1413.54,1544.49"/>
<path d="M1388.28,1479.56,1485.58,1512.30"/>
<path d="M1388.28,1479.56,1389.85,1430.50"/>
<path d="M832.84,1641.04,728.26,1610.17"/>
<path d="M832.84,1641.04,780.32,1506.96"/>
<path d="M832.84,1641.04,861.60,1656.90"/>
<path d="M1130.09,597.59,1169.74,558.54"/>
<path d="M1273.44,126.51,1299.65,115.54"/>
<path d="M1273.44,126.51,1208.61,171.54"/>
<path d="M1370.95,95.58,1460.72,46.84"/>
<path d="M1370.95,95.58,1299.65,115.54"/>
<path d="M1370.95,95.58,1347.36,50.54"/>
<path d="M165.30,467.56,303.72,523.55"/>
<path d="M165.30,467.56,166.40,545.07"/>
<path d="M165.30,467.56,114.17,464.48"/>
<path d="M165.30,467.56,314.40,408.60"/>
<path d="M1222.95,731.44,1247.12,889.00"/>
<path d="M1222.95,731.44,1243.22,609.13"/>
<path d="M749.36,1477.82,780.32,1506.96"/>
<path d="M749.36,1477.82,733.58,1438.78"/>
<path d="M1545.59,174.92,1460.72,46.84"/>
<path d="M1545.59,174.92,1506.79,192.12"/>
<path d="M641.75,1475.25,613.54,1378.34"/>
<path d="M641.75,1475.25,733.58,1438.78"/>
<path d="M641.75,1475.25,620.43,1528.07"/>
<path d="M111.30,1506.82,66.23,1569.78"/>
<path d="M111.30,1506.82,245.20,1612.39"/>
<path d="M111.30,1506.82,233.67,1449.00"/>
<path d="M111.30,1506.82,59.68,1460.30"/>
<path d="M996.96,1278.02,1055.28,1301.30"/>
<path d="M996.96,1278.02,1055.20,1236.71"/>
<path d="M996.96,1278.02,994.69,1373.77"/>
<path d="M417.91,1620.00,433.46,1582.84"/>
<path d="M417.91,1620.00,389.62,1637.91"/>
<path d="M598.67,469.36,572.35,497.69"/>
<path d="M598.67,469.36,558.73,447.95"/>
<path d="M598.67,469.36,604.85,511.80"/>
<path d="M1460.72,46.84,1506.79,192.12"/>
<path d="M1460.72,46.84,1471.08,7.10"/>
<path d="M1460.72,46.84,1347.36,50.54"/>
<path d="M1479.86,1367.68,1512.34,1324.56"/>
<path d="M1479.86,1367.68,1389.85,1430.50"/>
<path d="M1479.86,1367.68,1555.09,1396.47"/>
<path d="M280.69,53.18,378.57,66.07"/>
<path d="M280.69,53.18,303.88,8.89"/>
<path d="M280.69,53.18,293.93,95.09"/>
<path d="M118.48,753.46,188.91,709.97"/>
<path d="M118.48,753.46,156.45,784.19"/>
<path d="M1407.99,254.86,1506.79,192.12"/>
<path d="M1407.99,254.86,1517.31,355.31"/>
<path d="M1501.90,554.25,1470.84,575.44"/>
<path d="M1501.90,554.25,1503.26,441.94"/>
<path d="M1413.54,1544.49,1485.58,1512.30"/>
<path d="M1133.12,1425.59,1164.67,1376.52"/>
<path d="M6.88,265.11,10.08,96.91"/>
<path d="M6.88,265.11,107.20,199.30"/>
<path d="M471.46,0.56,470.68,155.38"/>
<path d="M471.46,0.56,378.57,66.07"/>
<path d="M471.46,0.56,588.87,8.59"/>
<path d="M1451.78,870.38,1396.61,880.61"/>
<path d="M1451.78,870.38,1470.96,931.11"/>
<path d="M1451.78,870.38,1544.22,795.37"/>
<path d="M731.84,1019.64,708.16,1047.91"/>
<path d="M731.84,1019.64,674.18,938.93"/>
<path d="M731.84,1019.64,833.53,870.80"/>
<path d="M609.84,1616.09,433.46,1582.84"/>
<path d="M609.84,1616.09,627.39,1652.39"/>
<path d="M609.84,1616.09,620.43,1528.07"/>
<path d="M728.26,1610.17,780.32,1506.96"/>
<path d="M728.26,1610.17,627.39,1652.39"/>
<path d="M728.26,1610.17,620.43,1528.07"/>
<path d="M135.14,900.24,175.75,904.52"/>
<path d="M135.14,900.24,120.19,831.88"/>
<path d="M66.23,1569.78,245.20,1612.39"/>
<path d="M1342.95,195.42,1299.65,115.54"/>
<path d="M386.38,1206.39,230.60,1236.71"/>
<path d="M386.38,1206.39,532.25,1065.02"/>
<path d="M386.38,1206.39,376.33,1281.58"/>
<path d="M386.38,1206.39,328.75,1143.76"/>
<path d="M1299.65,115.54,1260.68,0.80"/>
<path d="M1299.65,115.54,1347.36,50.54"/>
<path d="M1651.69,1296.41,1556.64,1316.90"/>
<path d="M1506.79,192.12,1517.31,355.31"/>
<path d="M831.23,124.92,790.77,47.12"/>
<path d="M91.05,396.49,114.17,464.48"/>
<path d="M91.05,396.49,7.59,465.12"/>
<path d="M1263.80,1163.20,1375.26,1157.88"/>
<path d="M1263.80,1163.20,1212.82,1170.70"/>
<path d="M780.32,1506.96,959.48,1409.21"/>
<path d="M780.32,1506.96,962.80,1549.09"/>
<path d="M708.16,1047.91,595.35,1017.82"/>
<path d="M828.10,363.45,770.75,261.22"/>
<path d="M828.10,363.45,832.06,459.20"/>
<path d="M828.10,363.45,868.91,321.77"/>
<path d="M828.10,363.45,889.88,347.35"/>
<path d="M1216.11,908.83,1247.12,889.00"/>
<path d="M1216.11,908.83,1010.37,893.63"/>
<path d="M1216.11,908.83,1214.01,983.46"/>
<path d="M1155.44,347.11,1212.07,429.84"/>
<path d="M1155.44,347.11,1037.17,397.14"/>
<path d="M1155.44,347.11,1113.12,252.18"/>
<path d="M1470.84,575.44,1298.61,524.57"/>
<path d="M1298.61,524.57,1503.26,441.94"/>
<path d="M1298.61,524.57,1243.22,609.13"/>
<path d="M1298.61,524.57,1195.69,499.00"/>
<path d="M1396.61,880.61,1247.12,889.00"/>
<path d="M1607.66,1623.83,1562.29,1514.99"/>
<path d="M1607.66,1623.83,1650.29,1583.55"/>
<path d="M433.46,1582.84,620.43,1528.07"/>
<path d="M1064.57,194.52,1115.50,209.45"/>
<path d="M1064.57,194.52,1069.69,83.15"/>
<path d="M245.20,1612.39,233.67,1449.00"/>
<path d="M245.20,1612.39,327.42,1553.68"/>
<path d="M427.26,519.40,303.72,523.55"/>
<path d="M427.26,519.40,558.73,447.95"/>
<path d="M427.26,519.40,412.47,596.79"/>
<path d="M427.26,519.40,314.40,408.60"/>
<path d="M526.18,160.49,470.68,155.38"/>
<path d="M526.18,160.49,542.27,232.70"/>
<path d="M526.18,160.49,638.81,29.74"/>
<path d="M526.18,160.49,588.87,8.59"/>
<path d="M526.18,160.49,574.40,217.42"/>
<path d="M303.72,523.55,297.03,576.24"/>
<path d="M303.72,523.55,166.40,545.07"/>
<path d="M303.72,523.55,314.40,408.60"/>
<path d="M633.84,1178.38,722.39,1154.63"/>
<path d="M633.84,1178.38,603.11,1138.07"/>
<path d="M720.19,1305.36,666.99,1300.47"/>
<path d="M720.19,1305.36,768.56,1333.31"/>
<path d="M1617.92,1033.10,1513.00,1011.27"/>
<path d="M215.88,130.64,143.78,92.63"/>
<path d="M215.88,130.64,293.93,95.09"/>
<path d="M215.88,130.64,144.05,134.27"/>
<path d="M569.17,1080.97,595.35,1017.82"/>
<path d="M569.17,1080.97,618.25,1106.60"/>
<path d="M569.17,1080.97,532.25,1065.02"/>
<path d="M1562.29,1514.99,1650.29,1583.55"/>
<path d="M244.64,760.08,286.91,829.02"/>
<path d="M244.64,760.08,313.16,698.44"/>
<path d="M244.64,760.08,204.16,754.11"/>
<path d="M959.48,1409.21,962.80,1549.09"/>
<path d="M470.68,155.38,437.22,248.91"/>
<path d="M861.60,1656.90,962.80,1549.09"/>
<path d="M1212.07,429.84,1306.93,331.35"/>
<path d="M1212.07,429.84,1195.69,499.00"/>
<path d="M337.21,644.49,297.03,576.24"/>
<path d="M337.21,644.49,241.57,637.72"/>
<path d="M337.21,644.49,313.16,698.44"/>
<path d="M337.21,644.49,412.47,596.79"/>
<path d="M337.21,644.49,417.35,646.33"/>
<path d="M1165.43,1051.73,1212.82,1170.70"/>
<path d="M1165.43,1051.73,1214.01,983.46"/>
<path d="M906.69,687.06,891.23,731.31"/>
<path d="M906.69,687.06,894.90,659.06"/>
<path d="M572.35,497.69,558.73,447.95"/>
<path d="M572.35,497.69,604.85,511.80"/>
<path d="M1212.82,1170.70,1055.20,1236.71"/>
<path d="M1260.68,0.80,1114.24,18.52"/>
<path d="M1260.68,0.80,1347.36,50.54"/>
<path d="M297.03,576.24,241.57,637.72"/>
<path d="M297.03,576.24,412.47,596.79"/>
<path d="M169.50,577.09,166.40,545.07"/>
<path d="M608.39,750.84,633.97,604.93"/>
<path d="M608.39,750.84,714.65,783.15"/>
<path d="M608.39,750.84,560.51,776.19"/>
<path d="M608.39,750.84,713.00,722.36"/>
<path d="M848.57,240.79,770.75,261.22"/>
<path d="M848.57,240.79,868.91,321.77"/>
<path d="M558.73,447.95,553.60,405.70"/>
<path d="M1503.26,441.94,1517.31,355.31"/>
<path d="M707.29,521.83,633.97,604.93"/>
<path d="M707.29,521.83,604.85,511.80"/>
<path d="M770.75,261.22,868.91,321.77"/>
<path d="M770.75,261.22,574.40,217.42"/>
<path d="M542.27,232.70,574.40,217.42"/>
<path d="M542.27,232.70,437.22,248.91"/>
<path d="M10.08,96.91,107.20,199.30"/>
<path d="M10.08,96.91,143.78,92.63"/>
<path d="M10.08,96.91,144.05,134.27"/>
<path d="M633.97,604.93,713.00,722.36"/>
<path d="M633.97,604.93,604.85,511.80"/>
<path d="M230.60,1236.71,262.66,1298.36"/>
<path d="M230.60,1236.71,167.59,1260.55"/>
<path d="M230.60,1236.71,229.34,1151.86"/>
<path d="M262.66,1298.36,376.33,1281.58"/>
<path d="M262.66,1298.36,266.52,1369.08"/>
<path d="M871.47,845.72,833.53,870.80"/>
<path d="M871.47,845.72,896.49,816.37"/>
<path d="M1513.00,1011.27,1500.46,944.18"/>
<path d="M1500.46,944.18,1470.96,931.11"/>
<path d="M1556.64,1316.90,1512.34,1324.56"/>
<path d="M1556.64,1316.90,1555.09,1396.47"/>
<path d="M510.32,1000.95,595.35,1017.82"/>
<path d="M510.32,1000.95,532.25,1065.02"/>
<path d="M510.32,1000.95,424.47,1034.71"/>
<path d="M510.32,1000.95,590.61,938.67"/>
<path d="M996.98,872.34,1010.37,893.63"/>
<path d="M996.98,872.34,896.49,816.37"/>
<path d="M1087.27,1326.63,1055.28,1301.30"/>
<path d="M1087.27,1326.63,1164.67,1376.52"/>
<path d="M442.31,644.81,417.35,646.33"/>
<path d="M891.23,731.31,795.77,815.06"/>
<path d="M891.23,731.31,896.49,816.37"/>
<path d="M714.65,783.15,674.18,938.93"/>
<path d="M714.65,783.15,713.00,722.36"/>
<path d="M714.65,783.15,795.77,815.06"/>
<path d="M1335.19,1388.98,1389.85,1430.50"/>
<path d="M1335.19,1388.98,1233.09,1325.75"/>
<path d="M175.75,904.52,286.91,829.02"/>
<path d="M175.75,904.52,223.54,1005.10"/>
<path d="M1115.50,209.45,1208.61,171.54"/>
<path d="M1115.50,209.45,1113.12,252.18"/>
<path d="M1512.34,1324.56,1555.09,1396.47"/>
<path d="M894.90,659.06,938.15,596.92"/>
<path d="M286.91,829.02,390.39,803.89"/>
<path d="M638.81,29.74,790.77,47.12"/>
<path d="M638.81,29.74,588.87,8.59"/>
<path d="M674.18,938.93,795.77,815.06"/>
<path d="M674.18,938.93,833.53,870.80"/>
<path d="M241.57,637.72,313.16,698.44"/>
<path d="M868.91,321.77,889.88,347.35"/>
<path d="M313.06,1442.35,233.67,1449.00"/>
<path d="M313.06,1442.35,347.64,1450.15"/>
<path d="M313.06,1442.35,266.52,1369.08"/>
<path d="M1114.24,18.52,1069.69,83.15"/>
<path d="M595.35,1017.82,532.25,1065.02"/>
<path d="M595.35,1017.82,590.61,938.67"/>
<path d="M653.17,1099.91,618.25,1106.60"/>
<path d="M560.51,776.19,517.61,785.03"/>
<path d="M560.51,776.19,590.61,938.67"/>
<path d="M1010.37,893.63,950.45,1027.19"/>
<path d="M388.37,188.18,437.22,248.91"/>
<path d="M1243.22,609.13,1169.74,558.54"/>
<path d="M378.57,66.07,303.88,8.89"/>
<path d="M378.57,66.07,293.93,95.09"/>
<path d="M188.86,1131.13,223.54,1005.10"/>
<path d="M188.86,1131.13,229.34,1151.86"/>
<path d="M1055.28,1301.30,1055.20,1236.71"/>
<path d="M1055.28,1301.30,994.69,1373.77"/>
<path d="M1169.74,558.54,1195.69,499.00"/>
<path d="M233.67,1449.00,266.52,1369.08"/>
<path d="M233.67,1449.00,85.76,1378.51"/>
<path d="M114.17,464.48,7.59,465.12"/>
<path d="M603.11,1138.07,618.25,1106.60"/>
<path d="M768.56,1333.31,733.58,1438.78"/>
<path d="M517.61,785.03,590.61,938.67"/>
<path d="M120.19,831.88,156.45,784.19"/>
<path d="M188.91,709.97,204.16,754.11"/>
<path d="M308.72,943.40,424.47,1034.71"/>
<path d="M308.72,943.40,285.78,976.68"/>
<path d="M532.25,1065.02,424.47,1034.71"/>
<path d="M795.77,815.06,833.53,870.80"/>
<path d="M347.64,1450.15,327.42,1553.68"/>
<path d="M347.64,1450.15,471.84,1390.18"/>
<path d="M107.20,199.30,144.05,134.27"/>
<path d="M424.47,1034.71,285.78,976.68"/>
<path d="M424.47,1034.71,328.75,1143.76"/>
<path d="M204.16,754.11,156.45,784.19"/>
<path d="M285.78,976.68,223.54,1005.10"/>
<path d="M285.78,976.68,328.75,1143.76"/>
<path d="M1195.69,499.00,1037.17,397.14"/>
<path d="M223.54,1005.10,328.75,1143.76"/>
<path d="M328.75,1143.76,229.34,1151.86"/>
<path d="M143.78,92.63,144.05,134.27"/>
<path d="M412.47,596.79,417.35,646.33"/>
<path d="M1164.67,1376.52,1233.09,1325.75"/>
<path d="M524.34,1334.91,471.84,1390.18"/>
<path d="M59.68,1460.30,85.76,1378.51"/>
<path d="M1037.17,397.14,889.88,347.35"/>
<path d="M1037.17,397.14,1113.12,252.18"/>
<path d="M1037.17,397.14,938.15,596.92"/>
<path d="M314.40,408.60,437.22,248.91"/>
<path d="M1641.91,325.46,1627.89,250.86"/>
<circle cx="161.89" cy="368.96" r="10"/>
<text x="161.89" y="373.96">R0</text>
<circle cx="354.45" cy="707.12" r="10"/>
<text x="354.45" y="712.12">R1</text>
<circle cx="1018.72" cy="859.23" r="10"/>
<text x="1018.72" y="864.23">R2</text>
<circle cx="651.30" cy="1214.70" r="10"/>
<text x="651.30" y="1219.70">R3</text>
<circle cx="589.44" cy="1387.72" r="10"/>
<text x="589.44" y="1392.72">R4</text>
<circle cx="357.79" cy="1616.02" r="10"/>
<text x="357.79" y="1621.02">R5</text>
<circle cx="486.37" cy="565.27" r="10"/>
<text x="486.37" y="570.27">R6</text>
<circle cx="1520.87" cy="1609.86" r="10"/>
<text x="1520.87" y="1614.86">R7</text>
<circle cx="1169.90" cy="673.28" r="10"/>
<text x="1169.90" y="678.28">R8</text>
<circle cx="651.81" cy="953.62" r="10"/>
<text x="651.81" y="958.62">R9</text>
<circle cx="801.30" cy="8.87" r="10"/>
<text x="801.30" y="13.87">R10</text>
<circle cx="1292.64" cy="1587.84" r="10"/>
<text x="1292.64" y="1592.84">R11</text>
<circle cx="457.93" cy="1482.23" r="10"/>
<text x="457.93" y="1487.23">R12</text>
<circle cx="983.12" cy="1396.05" r="10"/>
<text x="983.12" y="1401.05">R13</text>
<circle cx="1161.12" cy="95.03" r="10"/>
<text x="1161.12" y="100.03">R14</text>
<circle cx="1201.34" cy="1426.77" r="10"/>
<text x="1201.34" y="1431.77">R15</text>
<circle cx="955.09" cy="239.82" r="10"/>
<text x="955.09" y="244.82">R16</text>
<circle cx="45.38" cy="312.86" r="10"/>
<text x="45.38" y="317.86">R17</text>
<circle cx="687.22" cy="1087.16" r="10"/>
<text x="687.22" y="1092.16">R18</text>
<circle cx="808.77" cy="538.56" r="10"/>
<text x="808.77" y="543.56">R19</text>
<circle cx="943.75" cy="1329.45" r="10"/>
<text x="943.75" y="1334.45">R20</text>
<circle cx="1018.84" cy="53.63" r="10"/>
<text x="1018.84" y="58.63">R21</text>
<circle cx="1042.23" cy="1402.64" r="10"/>
<text x="1042.23" y="1407.64">R22</text>
<circle cx="987.36" cy="1136.87" r="10"/>
<text x="987.36" y="1141.87">R23</text>
<circle cx="1624.64" cy="368.41" r="10"/>
<text x="1624.64" y="373.41">R24</text>
<circle cx="1123.31" cy="669.01" r="10"/>
<text x="1123.31" y="674.01">R25</text>
<circle cx="1591.58" cy="723.28" r="10"/>
<text x="1591.58" y="728.28">R26</text>
<circle cx="1490.08" cy="637.73" r="10"/>
<text x="1490.08" y="642.73">R27</text>
<circle cx="1539.16" cy="1448.85" r="10"/>
<text x="1539.16" y="1453.85">R28</text>
<circle cx="1507.36" cy="1530.06" r="10"/>
<text x="1507.36" y="1535.06">R29</text>
<circle cx="449.68" cy="707.16" r="10"/>
<text x="449.68" y="712.16">R30</text>
<circle cx="1636.72" cy="1095.58" r="10"/>
<text x="1636.72" y="1100.58">R31</text>
<circle cx="204.22" cy="651.73" r="10"/>
<text x="204.22" y="656.73">R32</text>
<circle cx="423.83" cy="1651.66" r="10"/>
<text x="423.83" y="1656.66">R33</text>
<circle cx="662.15" cy="1372.49" r="10"/>
<text x="662.15" y="1377.49">R34</text>
<circle cx="1273.34" cy="302.30" r="10"/>
<text x="1273.34" y="307.30">R35</text>
<circle cx="881.42" cy="169.89" r="10"/>
<text x="881.42" y="174.89">R36</text>
<circle cx="395.29" cy="1324.40" r="10"/>
<text x="395.29" y="1329.40">R37</text>
<circle cx="393.21" cy="162.01" r="10"/>
<text x="393.21" y="167.01">R38</text>
<circle cx="141.29" cy="1303.07" r="10"/>
<text x="141.29" y="1308.07">R39</text>
<circle cx="322.62" cy="882.05" r="10"/>
<text x="322.62" y="887.05">R40</text>
<circle cx="1538.07" cy="1478.23" r="10"/>
<text x="1538.07" y="1483.23">R41</text>
<circle cx="1045.80" cy="670.40" r="10"/>
<text x="1045.80" y="675.40">R42</text>
<circle cx="1047.85" cy="242.37" r="10"/>
<text x="1047.85" y="247.37">R43</text>
<circle cx="907.43" cy="936.29" r="10"/>
<text x="907.43" y="941.29">R44</text>
<circle cx="193.00" cy="309.46" r="10"/>
<text x="193.00" y="314.46">R45</text>
<circle cx="1565.72" cy="833.18" r="10"/>
<text x="1565.72" y="838.18">R46</text>
<circle cx="226.96" cy="1304.95" r="10"/>
<text x="226.96" y="1309.95">R47</text>
<circle cx="1012.23" cy="631.54" r="10"/>
<text x="1012.23" y="636.54">R48</text>
<circle cx="1180.98" cy="1308.47" r="10"/>
<text x="1180.98" y="1313.47">R49</text>
<circle cx="412.47" cy="917.49" r="10"/>
<text x="412.47" y="922.49">R50</text>
<circle cx="799.71" cy="184.77" r="10"/>
<text x="799.71" y="189.77">R51</text>
<circle cx="829.09" cy="604.69" r="10"/>
<text x="829.09" y="609.69">R52</text>
<circle cx="1376.66" cy="1071.13" r="10"/>
<text x="1376.66" y="1076.13">R53</text>
<circle cx="558.26" cy="357.78" r="10"/>
<text x="558.26" y="362.78">R54</text>
<circle cx="1385.90" cy="295.30" r="10"/>
<text x="1385.90" y="300.30">R55</text>
<circle cx="1621.87" cy="197.45" r="10"/>
<text x="1621.87" y="202.45">R56</text>
<circle cx="415.86" cy="803.53" r="10"/>
<text x="415.86" y="808.53">R57</text>
<circle cx="1380.36" cy="1209.75" r="10"/>
<text x="1380.36" y="1214.75">R58</text>
<circle cx="1272.17" cy="968.34" r="10"/>
<text x="1272.17" y="973.34">R59</text>
<circle cx="1194.18" cy="282.69" r="10"/>
<text x="1194.18" y="287.69">R60</text>
<circle cx="1372.46" cy="184.00" r="10"/>
<text x="1372.46" y="189.00">R61</text>
<circle cx="252.97" cy="229.78" r="10"/>
<text x="252.97" y="234.78">R62</text>
<circle cx="998.05" cy="189.50" r="10"/>
<text x="998.05" y="194.50">R63</text>
<circle cx="148.60" cy="1211.79" r="10"/>
<text x="148.60" y="1216.79">R64</text>
<circle cx="1403.37" cy="978.92" r="10"/>
<text x="1403.37" y="983.92">R65</text>
<circle cx="136.22" cy="218.58" r="10"/>
<text x="136.22" y="223.58">R66</text>
<circle cx="117.37" cy="290.36" r="10"/>
<text x="117.37" y="295.36">R67</text>
<circle cx="1016.51" cy="1045.70" r="10"/>
<text x="1016.51" y="1050.70">R68</text>
<circle cx="767.85" cy="1037.70" r="10"/>
<text x="767.85" y="1042.70">R69</text>
<circle cx="247.48" cy="1648.72" r="10"/>
<text x="247.48" y="1653.72">R70</text>
<circle cx="1388.28" cy="1479.56" r="10"/>
<text x="1388.28" y="1484.56">R71</text>
<circle cx="832.84" cy="1641.04" r="10"/>
<text x="832.84" y="1646.04">R72</text>
<circle cx="1130.09" cy="597.59" r="10"/>
<text x="1130.09" y="602.59">R73</text>
<circle cx="1273.44" cy="126.51" r="10"/>
<text x="1273.44" y="131.51">R74</text>
<circle cx="1370.95" cy="95.58" r="10"/>
<text x="1370.95" y="100.58">R75</text>
<circle cx="165.30" cy="467.56" r="10"/>
<text x="165.30" y="472.56">R76</text>
<circle cx="1222.95" cy="731.44" r="10"/>
<text x="1222.95" y="736.44">R77</text>
<circle cx="749.36" cy="1477.82" r="10"/>
<text x="749.36" y="1482.82">R78</text>
<circle cx="1545.59" cy="174.92" r="10"/>
<text x="1545.59" y="179.92">R79</text>
<circle cx="641.75" cy="1475.25" r="10"/>
<text x="641.75" y="1480.25">R80</text>
<circle cx="111.30" cy="1506.82" r="10"/>
<text x="111.30" y="1511.82">R81</text>
<circle cx="996.96" cy="1278.02" r="10"/>
<text x="996.96" y="1283.02">R82</text>
<circle cx="417.91" cy="1620.00" r="10"/>
<text x="417.91" y="1625.00">R83</text>
<circle cx="598.67" cy="469.36" r="10"/>
<text x="598.67" y="474.36">R84</text>
<circle cx="1460.72" cy="46.84" r="10"/>
<text x="1460.72" y="51.84">R85</text>
<circle cx="78.49" cy="1226.69" r="10"/>
<text x="78.49" y="1231.69">R86</text>
<circle cx="1479.86" cy="1367.68" r="10"/>
<text x="1479.86" y="1372.68">R87</text>
<circle cx="280.69" cy="53.18" r="10"/>
<text x="280.69" y="58.18">R88</text>
<circle cx="118.48" cy="753.46" r="10"/>
<text x="118.48" y="758.46">R89</text>
<circle cx="1407.99" cy="254.86" r="10"/>
<text x="1407.99" y="259.86">R90</text>
<circle cx="1501.90" cy="554.25" r="10"/>
<text x="1501.90" y="559.25">R91</text>
<circle cx="1413.54" cy="1544.49" r="10"/>
<text x="1413.54" y="1549.49">R92</text>
<circle cx="1133.12" cy="1425.59" r="10"/>
<text x="1133.12" y="1430.59">R93</text>
<circle cx="6.88" cy="265.11" r="10"/>
<text x="6.88" y="270.11">R94</text>
<circle cx="471.46" cy="0.56" r="10"/>
<text x="471.46" y="5.56">R95</text>
<circle cx="1451.78" cy="870.38" r="10"/>
<text x="1451.78" y="875.38">R96</text>
<circle cx="731.84" cy="1019.64" r="10"/>
<text x="731.84" y="1024.64">R97</text>
<circle cx="609.84" cy="1616.09" r="10"/>
<text x="609.84" y="1621.09">R98</text>
<circle cx="728.26" cy="1610.17" r="10"/>
<text x="728.26" y="1615.17">R99</text>
<circle cx="135.14" cy="900.24" r="10"/>
<text x="135.14" y="905.24">R100</text>
<circle cx="66.23" cy="1569.78" r="10"/>
<text x="66.23" y="1574.78">R101</text>
<circle cx="1342.95" cy="195.42" r="10"/>
<text x="1342.95" y="200.42">R102</text>
<circle cx="386.38" cy="1206.39" r="10"/>
<text x="386.38" y="1211.39">R103</text>
<circle cx="1299.65" cy="115.54" r="10"/>
<text x="1299.65" y="120.54">R104</text>
<circle cx="1651.69" cy="1296.41" r="10"/>
<text x="1651.69" y="1301.41">R105</text>
<circle cx="1506.79" cy="192.12" r="10"/>
<text x="1506.79" y="197.12">R106</text>
<circle cx="831.23" cy="124.92" r="10"/>
<text x="831.23" y="129.92">R107</text>
<circle cx="91.05" cy="396.49" r="10"/>
<text x="91.05" y="401.49">R108</text>
<circle cx="1263.80" cy="1163.20" r="10"/>
<text x="1263.80" y="1168.20">R109</text>
<circle cx="780.32" cy="1506.96" r="10"/>
<text x="780.32" y="1511.96">R110</text>
<circle cx="708.16" cy="1047.91" r="10"/>
<text x="708.16" y="1052.91">R111</text>
<circle cx="828.10" cy="363.45" r="10"/>
<text x="828.10" y="368.45">R112</text>
<circle cx="1216.11" cy="908.83" r="10"/>
<text x="1216.11" y="913.83">R113</text>
<circle cx="1155.44" cy="347.11" r="10"/>
<text x="1155.44" y="352.11">R114</text>
<circle cx="1470.84" cy="575.44" r="10"/>
<text x="1470.84" y="580.44">R115</text>
<circle cx="1298.61" cy="524.57" r="10"/>
<text x="1298.61" y="529.57">R116</text>
<circle cx="1396.61" cy="880.61" r="10"/>
<text x="1396.61" y="885.61">R117</text>
<circle cx="1607.66" cy="1623.83" r="10"/>
<text x="1607.66" y="1628.83">R118</text>
<circle cx="433.46" cy="1582.84" r="10"/>
<text x="433.46" y="1587.84">R119</text>
<circle cx="1064.57" cy="194.52" r="10"/>
<text x="1064.57" y="199.52">R120</text>
<circle cx="245.20" cy="1612.39" r="10"/>
<text x="245.20" y="1617.39">R121</text>
<circle cx="427.26" cy="519.40" r="10"/>
<text x="427.26" y="524.40">R122</text>
<circle cx="526.18" cy="160.49" r="10"/>
<text x="526.18" y="165.49">R123</text>
<circle cx="303.72" cy="523.55" r="10"/>
<text x="303.72" y="528.55">R124</text>
<circle cx="633.84" cy="1178.38" r="10"/>
<text x="633.84" y="1183.38">R125</text>
<circle cx="720.19" cy="1305.36" r="10"/>
<text x="720.19" y="1310.36">R126</text>
<circle cx="1617.92" cy="1033.10" r="10"/>
<text x="1617.92" y="1038.10">R127</text>
<circle cx="215.88" cy="130.64" r="10"/>
<text x="215.88" y="135.64">R128</text>
<circle cx="389.62" cy="1637.91" r="10"/>
<text x="389.62" y="1642.91">R129</text>
<circle cx="569.17" cy="1080.97" r="10"/>
<text x="569.17" y="1085.97">R130</text>
<circle cx="1562.29" cy="1514.99" r="10"/>
<text x="1562.29" y="1519.99">R131</text>
<circle cx="244.64" cy="760.08" r="10"/>
<text x="244.64" y="765.08">R132</text>
<circle cx="1375.26" cy="1157.88" r="10"/>
<text x="1375.26" y="1162.88">R133</text>
<circle cx="959.48" cy="1409.21" r="10"/>
<text x="959.48" y="1414.21">R134</text>
<circle cx="470.68" cy="155.38" r="10"/>
<text x="470.68" y="160.38">R135</text>
<circle cx="861.60" cy="1656.90" r="10"/>
<text x="861.60" y="1661.90">R136</text>
<circle cx="1212.07" cy="429.84" r="10"/>
<text x="1212.07" y="434.84">R137</text>
<circle cx="1247.12" cy="889.00" r="10"/>
<text x="1247.12" y="894.00">R138</text>
<circle cx="666.99" cy="1300.47" r="10"/>
<text x="666.99" y="1305.47">R139</text>
<circle cx="337.21" cy="644.49" r="10"/>
<text x="337.21" y="649.49">R140</text>
<circle cx="1165.43" cy="1051.73" r="10"/>
<text x="1165.43" y="1056.73">R141</text>
<circle cx="906.69" cy="687.06" r="10"/>
<text x="906.69" y="692.06">R142</text>
<circle cx="572.35" cy="497.69" r="10"/>
<text x="572.35" y="502.69">R143</text>
<circle cx="1212.82" cy="1170.70" r="10"/>
<text x="1212.82" y="1175.70">R144</text>
<circle cx="1260.68" cy="0.80" r="10"/>
<text x="1260.68" y="5.80">R145</text>
<circle cx="297.03" cy="576.24" r="10"/>
<text x="297.03" y="581.24">R146</text>
<circle cx="169.50" cy="577.09" r="10"/>
<text x="169.50" y="582.09">R147</text>
<circle cx="608.39" cy="750.84" r="10"/>
<text x="608.39" y="755.84">R148</text>
<circle cx="848.57" cy="240.79" r="10"/>
<text x="848.57" y="245.79">R149</text>
<circle cx="558.73" cy="447.95" r="10"/>
<text x="558.73" y="452.95">R150</text>
<circle cx="1503.26" cy="441.94" r="10"/>
<text x="1503.26" y="446.94">R151</text>
<circle cx="707.29" cy="521.83" r="10"/>
<text x="707.29" y="526.83">R152</text>
<circle cx="722.39" cy="1154.63" r="10"/>
<text x="722.39" y="1159.63">R153</text>
<circle cx="770.75" cy="261.22" r="10"/>
<text x="770.75" y="266.22">R154</text>
<circle cx="542.27" cy="232.70" r="10"/>
<text x="542.27" y="237.70">R155</text>
<circle cx="10.08" cy="96.91" r="10"/>
<text x="10.08" y="101.91">R156</text>
<circle cx="633.97" cy="604.93" r="10"/>
<text x="633.97" y="609.93">R157</text>
<circle cx="230.60" cy="1236.71" r="10"/>
<text x="230.60" y="1241.71">R158</text>
<circle cx="262.66" cy="1298.36" r="10"/>
<text x="262.66" y="1303.36">R159</text>
<circle cx="871.47" cy="845.72" r="10"/>
<text x="871.47" y="850.72">R160</text>
<circle cx="1485.58" cy="1512.30" r="10"/>
<text x="1485.58" y="1517.30">R161</text>
<circle cx="1513.00" cy="1011.27" r="10"/>
<text x="1513.00" y="1016.27">R162</text>
<circle cx="832.06" cy="459.20" r="10"/>
<text x="832.06" y="464.20">R163</text>
<circle cx="1500.46" cy="944.18" r="10"/>
<text x="1500.46" y="949.18">R164</text>
<circle cx="1471.08" cy="7.10" r="10"/>
<text x="1471.08" y="12.10">R165</text>
<circle cx="1556.64" cy="1316.90" r="10"/>
<text x="1556.64" y="1321.90">R166</text>
<circle cx="510.32" cy="1000.95" r="10"/>
<text x="510.32" y="1005.95">R167</text>
<circle cx="996.98" cy="872.34" r="10"/>
<text x="996.98" y="877.34">R168</text>
<circle cx="1087.27" cy="1326.63" r="10"/>
<text x="1087.27" y="1331.63">R169</text>
<circle cx="442.31" cy="644.81" r="10"/>
<text x="442.31" y="649.81">R170</text>
<circle cx="891.23" cy="731.31" r="10"/>
<text x="891.23" y="736.31">R171</text>
<circle cx="714.65" cy="783.15" r="10"/>
<text x="714.65" y="788.15">R172</text>
<circle cx="1335.19" cy="1388.98" r="10"/>
<text x="1335.19" y="1393.98">R173</text>
<circle cx="175.75" cy="904.52" r="10"/>
<text x="175.75" y="909.52">R174</text>
<circle cx="1115.50" cy="209.45" r="10"/>
<text x="1115.50" y="214.45">R175</text>
<circle cx="1512.34" cy="1324.56" r="10"/>
<text x="1512.34" y="1329.56">R176</text>
<circle cx="894.90" cy="659.06" r="10"/>
<text x="894.90" y="664.06">R177</text>
<circle cx="286.91" cy="829.02" r="10"/>
<text x="286.91" y="834.02">R178</text>
<circle cx="627.39" cy="1652.39" r="10"/>
<text x="627.39" y="1657.39">R179</text>
<circle cx="638.81" cy="29.74" r="10"/>
<text x="638.81" y="34.74">R180</text>
<circle cx="674.18" cy="938.93" r="10"/>
<text x="674.18" y="943.93">R181</text>
<circle cx="241.57" cy="637.72" r="10"/>
<text x="241.57" y="642.72">R182</text>
<circle cx="613.54" cy="1378.34" r="10"/>
<text x="613.54" y="1383.34">R183</text>
<circle cx="868.91" cy="321.77" r="10"/>
<text x="868.91" y="326.77">R184</text>
<circle cx="313.06" cy="1442.35" r="10"/>
<text x="313.06" y="1447.35">R185</text>
<circle cx="1114.24" cy="18.52" r="10"/>
<text x="1114.24" y="23.52">R186</text>
<circle cx="595.35" cy="1017.82" r="10"/>
<text x="595.35" y="1022.82">R187</text>
<circle cx="653.17" cy="1099.91" r="10"/>
<text x="653.17" y="1104.91">R188</text>
<circle cx="560.51" cy="776.19" r="10"/>
<text x="560.51" y="781.19">R189</text>
<circle cx="1349.64" cy="1011.03" r="10"/>
<text x="1349.64" y="1016.03">R190</text>
<circle cx="1010.37" cy="893.63" r="10"/>
<text x="1010.37" y="898.63">R191</text>
<circle cx="388.37" cy="188.18" r="10"/>
<text x="388.37" y="193.18">R192</text>
<circle cx="962.80" cy="1549.09" r="10"/>
<text x="962.80" y="1554.09">R193</text>
<circle cx="1243.22" cy="609.13" r="10"/>
<text x="1243.22" y="614.13">R194</text>
<circle cx="1347.36" cy="50.54" r="10"/>
<text x="1347.36" y="55.54">R195</text>
<circle cx="378.57" cy="66.07" r="10"/>
<text x="378.57" y="71.07">R196</text>
<circle cx="188.86" cy="1131.13" r="10"/>
<text x="188.86" y="1136.13">R197</text>
<circle cx="1055.28" cy="1301.30" r="10"/>
<text x="1055.28" y="1306.30">R198</text>
<circle cx="167.59" cy="1260.55" r="10"/>
<text x="167.59" y="1265.55">R199</text>
<circle cx="1169.74" cy="558.54" r="10"/>
<text x="1169.74" y="563.54">R200</text>
<circle cx="233.67" cy="1449.00" r="10"/>
<text x="233.67" y="1454.00">R201</text>
<circle cx="1069.69" cy="83.15" r="10"/>
<text x="1069.69" y="88.15">R202</text>
<circle cx="390.39" cy="803.89" r="10"/>
<text x="390.39" y="808.89">R203</text>
<circle cx="166.40" cy="545.07" r="10"/>
<text x="166.40" y="550.07">R204</text>
<circle cx="114.17" cy="464.48" r="10"/>
<text x="114.17" y="469.48">R205</text>
<circle cx="603.11" cy="1138.07" r="10"/>
<text x="603.11" y="1143.07">R206</text>
<circle cx="768.56" cy="1333.31" r="10"/>
<text x="768.56" y="1338.31">R207</text>
<circle cx="618.25" cy="1106.60" r="10"/>
<text x="618.25" y="1111.60">R208</text>
<circle cx="713.00" cy="722.36" r="10"/>
<text x="713.00" y="727.36">R209</text>
<circle cx="517.61" cy="785.03" r="10"/>
<text x="517.61" y="790.03">R210</text>
<circle cx="120.19" cy="831.88" r="10"/>
<text x="120.19" y="836.88">R211</text>
<circle cx="1470.96" cy="931.11" r="10"/>
<text x="1470.96" y="936.11">R212</text>
<circle cx="733.58" cy="1438.78" r="10"/>
<text x="733.58" y="1443.78">R213</text>
<circle cx="188.91" cy="709.97" r="10"/>
<text x="188.91" y="714.97">R214</text>
<circle cx="1283.19" cy="1620.10" r="10"/>
<text x="1283.19" y="1625.10">R215</text>
<circle cx="950.45" cy="1027.19" r="10"/>
<text x="950.45" y="1032.19">R216</text>
<circle cx="308.72" cy="943.40" r="10"/>
<text x="308.72" y="948.40">R217</text>
<circle cx="532.25" cy="1065.02" r="10"/>
<text x="532.25" y="1070.02">R218</text>
<circle cx="1214.01" cy="983.46" r="10"/>
<text x="1214.01" y="988.46">R219</text>
<circle cx="313.16" cy="698.44" r="10"/>
<text x="313.16" y="703.44">R220</text>
<circle cx="795.77" cy="815.06" r="10"/>
<text x="795.77" y="820.06">R221</text>
<circle cx="347.64" cy="1450.15" r="10"/>
<text x="347.64" y="1455.15">R222</text>
<circle cx="376.33" cy="1281.58" r="10"/>
<text x="376.33" y="1286.58">R223</text>
<circle cx="107.20" cy="199.30" r="10"/>
<text x="107.20" y="204.30">R224</text>
<circle cx="424.47" cy="1034.71" r="10"/>
<text x="424.47" y="1039.71">R225</text>
<circle cx="620.43" cy="1528.07" r="10"/>
<text x="620.43" y="1533.07">R226</text>
<circle cx="204.16" cy="754.11" r="10"/>
<text x="204.16" y="759.11">R227</text>
<circle cx="790.77" cy="47.12" r="10"/>
<text x="790.77" y="52.12">R228</text>
<circle cx="285.78" cy="976.68" r="10"/>
<text x="285.78" y="981.68">R229</text>
<circle cx="1306.93" cy="331.35" r="10"/>
<text x="1306.93" y="336.35">R230</text>
<circle cx="833.53" cy="870.80" r="10"/>
<text x="833.53" y="875.80">R231</text>
<circle cx="1195.69" cy="499.00" r="10"/>
<text x="1195.69" y="504.00">R232</text>
<circle cx="223.54" cy="1005.10" r="10"/>
<text x="223.54" y="1010.10">R233</text>
<circle cx="303.88" cy="8.89" r="10"/>
<text x="303.88" y="13.89">R234</text>
<circle cx="588.87" cy="8.59" r="10"/>
<text x="588.87" y="13.59">R235</text>
<circle cx="156.45" cy="784.19" r="10"/>
<text x="156.45" y="789.19">R236</text>
<circle cx="896.49" cy="816.37" r="10"/>
<text x="896.49" y="821.37">R237</text>
<circle cx="590.61" cy="938.67" r="10"/>
<text x="590.61" y="943.67">R238</text>
<circle cx="328.75" cy="1143.76" r="10"/>
<text x="328.75" y="1148.76">R239</text>
<circle cx="143.78" cy="92.63" r="10"/>
<text x="143.78" y="97.63">R240</text>
<circle cx="229.34" cy="1151.86" r="10"/>
<text x="229.34" y="1156.86">R241</text>
<circle cx="412.47" cy="596.79" r="10"/>
<text x="412.47" y="601.79">R242</text>
<circle cx="1055.20" cy="1236.71" r="10"/>
<text x="1055.20" y="1241.71">R243</text>
<circle cx="1164.67" cy="1376.52" r="10"/>
<text x="1164.67" y="1381.52">R244</text>
<circle cx="327.42" cy="1553.68" r="10"/>
<text x="327.42" y="1558.68">R245</text>
<circle cx="574.40" cy="217.42" r="10"/>
<text x="574.40" y="222.42">R246</text>
<circle cx="994.69" cy="1373.77" r="10"/>
<text x="994.69" y="1378.77">R247</text>
<circle cx="1389.85" cy="1430.50" r="10"/>
<text x="1389.85" y="1435.50">R248</text>
<circle cx="266.52" cy="1369.08" r="10"/>
<text x="266.52" y="1374.08">R249</text>
<circle cx="524.34" cy="1334.91" r="10"/>
<text x="524.34" y="1339.91">R250</text>
<circle cx="59.68" cy="1460.30" r="10"/>
<text x="59.68" y="1465.30">R251</text>
<circle cx="1037.17" cy="397.14" r="10"/>
<text x="1037.17" y="402.14">R252</text>
<circle cx="471.84" cy="1390.18" r="10"/>
<text x="471.84" y="1395.18">R253</text>
<circle cx="314.40" cy="408.60" r="10"/>
<text x="314.40" y="413.60">R254</text>
<circle cx="604.85" cy="511.80" r="10"/>
<text x="604.85" y="516.80">R255</text>
<circle cx="1208.61" cy="171.54" r="10"/>
<text x="1208.61" y="176.54">R256</text>
<circle cx="1233.09" cy="1325.75" r="10"/>
<text x="1233.09" y="1330.75">R257</text>
<circle cx="293.93" cy="95.09" r="10"/>
<text x="293.93" y="100.09">R258</text>
<circle cx="417.35" cy="646.33" r="10"/>
<text x="417.35" y="651.33">R259</text>
<circle cx="1544.22" cy="795.37" r="10"/>
<text x="1544.22" y="800.37">R260</text>
<circle cx="1650.29" cy="1583.55" r="10"/>
<text x="1650.29" y="1588.55">R261</text>
<circle cx="553.60" cy="405.70" r="10"/>
<text x="553.60" y="410.70">R262</text>
<circle cx="7.59" cy="465.12" r="10"/>
<text x="7.59" y="470.12">R263</text>
<circle cx="889.88" cy="347.35" r="10"/>
<text x="889.88" y="352.35">R264</text>
<circle cx="437.22" cy="248.91" r="10"/>
<text x="437.22" y="253.91">R265</text>
<circle cx="1113.12" cy="252.18" r="10"/>
<text x="1113.12" y="257.18">R266</text>
<circle cx="1513.97" cy="1554.37" r="10"/>
<text x="1513.97" y="1559.37">R267</text>
<circle cx="1641.91" cy="325.46" r="10"/>
<text x="1641.91" y="330.46">R268</text>
<circle cx="144.05" cy="134.27" r="10"/>
<text x="144.05" y="139.27">R269</text>
<circle cx="85.76" cy="1378.51" r="10"/>
<text x="85.76" y="1383.51">R270</text>
<circle cx="1555.09" cy="1396.47" r="10"/>
<text x="1555.09" y="1401.47">R271</text>
<circle cx="1517.31" cy="355.31" r="10"/>
<text x="1517.31" y="360.31">R272</text>
<circle cx="1627.89" cy="250.86" r="10"/>
<text x="1627.89" y="255.86">R273</text>
<circle cx="938.15" cy="596.92" r="10"/>
<text x="938.15" y="601.92">R274</text>
</svg>
