<svg id="topo" viewBox="-46.52 -1029.32 1094.33 1068.13" xmlns="http://www.w3.org/2000/svg">
<style>#topo path {fill: none; stroke: grey; stroke-width: 5.0000px;} #topo circle {fill: lightblue; stroke: none; stroke-width: 0.3px; vector-effect: non-scaling-stroke; r: 10.0000px;} #topo text {fill: black; stroke: none; font-size: 15.0000px; font-family: sans-serif; text-anchor:middle; transform: translateY(0.3em);} #topo path.country {fill: lightgrey; stroke: black; stroke-width: 1px; vector-effect: non-scaling-stroke; visibility: visible;} #topo path.selection {fill: none; stroke: red; stroke-width: 1px; vector-effect: non-scaling-stroke; visibility: visible;} #topo path.utilization {visibility: hidden;}</style>
<path data-id="0-4" d="M145.67,-454.93,80.15,-455.95"/>
<path data-id="0-24" d="M145.67,-454.93,289.86,-590.37"/>
<path data-id="0-77" d="M145.67,-454.93,174.49,-382.15"/>
<path data-id="0-80" d="M145.67,-454.93,136.06,-584.60"/>
<path data-id="0-90" d="M145.67,-454.93,95.47,-566.66"/>
<path data-id="1-31" d="M770.78,-705.51,714.74,-766.96"/>
<path data-id="1-45" d="M770.78,-705.51,713.21,-618.48"/>
<path data-id="1-68" d="M770.78,-705.51,853.33,-821.05"/>
<path data-id="2-23" d="M731.96,-433.51,774.96,-507.11"/>
<path data-id="2-46" d="M731.96,-433.51,659.73,-476.71"/>
<path data-id="2-76" d="M731.96,-433.51,703.47,-507.35"/>
<path data-id="2-93" d="M731.96,-433.51,736.70,-379.42"/>
<path data-id="3-16" d="M800.02,-532.90,773.50,-566.16"/>
<path data-id="3-23" d="M800.02,-532.90,774.96,-507.11"/>
<path data-id="3-44" d="M800.02,-532.90,936.42,-400.61"/>
<path data-id="3-64" d="M800.02,-532.90,992.18,-558.42"/>
<path data-id="4-15" d="M80.15,-455.95,5.65,-395.52"/>
<path data-id="4-90" d="M80.15,-455.95,95.47,-566.66"/>
<path data-id="5-75" d="M47.89,-932.96,3.22,-735.21"/>
<path data-id="5-96" d="M47.89,-932.96,116.00,-915.36"/>
<path data-id="6-18" d="M947.08,-335.35,913.78,-237.23"/>
<path data-id="6-26" d="M947.08,-335.35,854.17,-363.00"/>
<path data-id="6-44" d="M947.08,-335.35,936.42,-400.61"/>
<path data-id="6-61" d="M947.08,-335.35,998.06,-390.54"/>
<path data-id="7-17" d="M309.41,-768.02,192.64,-841.17"/>
<path data-id="7-69" d="M309.41,-768.02,352.61,-673.82"/>
<path data-id="7-73" d="M309.41,-768.02,352.47,-800.75"/>
<path data-id="7-82" d="M309.41,-768.02,300.80,-863.19"/>
<path data-id="7-98" d="M309.41,-768.02,281.53,-738.40"/>
<path data-id="8-50" d="M203.87,-178.46,198.12,-248.79"/>
<path data-id="8-56" d="M203.87,-178.46,145.33,-208.68"/>
<path data-id="8-88" d="M203.87,-178.46,154.31,-106.22"/>
<path data-id="9-38" d="M188.59,-347.00,219.15,-309.86"/>
<path data-id="9-43" d="M188.59,-347.00,209.15,-389.85"/>
<path data-id="9-66" d="M188.59,-347.00,80.00,-297.98"/>
<path data-id="9-77" d="M188.59,-347.00,174.49,-382.15"/>
<path data-id="10-12" d="M626.32,-963.32,555.40,-901.15"/>
<path data-id="10-34" d="M626.32,-963.32,675.98,-861.34"/>
<path data-id="10-58" d="M626.32,-963.32,597.88,-980.77"/>
<path data-id="11-17" d="M210.83,-956.10,192.64,-841.17"/>
<path data-id="11-63" d="M210.83,-956.10,304.47,-936.71"/>
<path data-id="11-71" d="M210.83,-956.10,184.27,-976.51"/>
<path data-id="11-92" d="M210.83,-956.10,170.20,-949.85"/>
<path data-id="12-21" d="M555.40,-901.15,553.95,-968.52"/>
<path data-id="12-22" d="M555.40,-901.15,609.10,-717.30"/>
<path data-id="12-27" d="M555.40,-901.15,483.56,-761.50"/>
<path data-id="12-34" d="M555.40,-901.15,675.98,-861.34"/>
<path data-id="12-57" d="M555.40,-901.15,412.72,-930.35"/>
<path data-id="13-18" d="M818.02,-160.42,913.78,-237.23"/>
<path data-id="13-20" d="M818.02,-160.42,902.34,-126.62"/>
<path data-id="13-36" d="M818.02,-160.42,706.18,-121.00"/>
<path data-id="13-60" d="M818.02,-160.42,710.67,-190.48"/>
<path data-id="13-94" d="M818.02,-160.42,888.40,-104.14"/>
<path data-id="13-99" d="M818.02,-160.42,779.69,-348.30"/>
<path data-id="14-33" d="M648.54,-124.09,582.68,-147.19"/>
<path data-id="14-36" d="M648.54,-124.09,706.18,-121.00"/>
<path data-id="14-81" d="M648.54,-124.09,584.39,-111.05"/>
<path data-id="15-66" d="M5.65,-395.52,80.00,-297.98"/>
<path data-id="16-45" d="M773.50,-566.16,713.21,-618.48"/>
<path data-id="16-76" d="M773.50,-566.16,703.47,-507.35"/>
<path data-id="17-48" d="M192.64,-841.17,161.13,-798.75"/>
<path data-id="17-78" d="M192.64,-841.17,160.98,-842.45"/>
<path data-id="17-82" d="M192.64,-841.17,300.80,-863.19"/>
<path data-id="17-98" d="M192.64,-841.17,281.53,-738.40"/>
<path data-id="18-20" d="M913.78,-237.23,902.34,-126.62"/>
<path data-id="18-26" d="M913.78,-237.23,854.17,-363.00"/>
<path data-id="18-91" d="M913.78,-237.23,966.15,-140.47"/>
<path data-id="19-32" d="M448.19,-637.80,513.58,-493.48"/>
<path data-id="19-42" d="M448.19,-637.80,525.28,-720.11"/>
<path data-id="19-47" d="M448.19,-637.80,545.09,-700.83"/>
<path data-id="19-52" d="M448.19,-637.80,402.02,-540.53"/>
<path data-id="19-69" d="M448.19,-637.80,352.61,-673.82"/>
<path data-id="19-70" d="M448.19,-637.80,444.33,-728.21"/>
<path data-id="20-91" d="M902.34,-126.62,966.15,-140.47"/>
<path data-id="20-94" d="M902.34,-126.62,888.40,-104.14"/>
<path data-id="21-57" d="M553.95,-968.52,412.72,-930.35"/>
<path data-id="21-58" d="M553.95,-968.52,597.88,-980.77"/>
<path data-id="22-31" d="M609.10,-717.30,714.74,-766.96"/>
<path data-id="22-39" d="M609.10,-717.30,621.17,-650.83"/>
<path data-id="22-47" d="M609.10,-717.30,545.09,-700.83"/>
<path data-id="23-26" d="M774.96,-507.11,854.17,-363.00"/>
<path data-id="23-76" d="M774.96,-507.11,703.47,-507.35"/>
<path data-id="24-43" d="M289.86,-590.37,209.15,-389.85"/>
<path data-id="24-52" d="M289.86,-590.37,402.02,-540.53"/>
<path data-id="24-69" d="M289.86,-590.37,352.61,-673.82"/>
<path data-id="24-80" d="M289.86,-590.37,136.06,-584.60"/>
<path data-id="25-32" d="M528.18,-343.27,513.58,-493.48"/>
<path data-id="25-46" d="M528.18,-343.27,659.73,-476.71"/>
<path data-id="25-53" d="M528.18,-343.27,474.13,-343.67"/>
<path data-id="25-79" d="M528.18,-343.27,549.60,-270.79"/>
<path data-id="25-93" d="M528.18,-343.27,736.70,-379.42"/>
<path data-id="26-44" d="M854.17,-363.00,936.42,-400.61"/>
<path data-id="26-99" d="M854.17,-363.00,779.69,-348.30"/>
<path data-id="27-42" d="M483.56,-761.50,525.28,-720.11"/>
<path data-id="27-57" d="M483.56,-761.50,412.72,-930.35"/>
<path data-id="27-70" d="M483.56,-761.50,444.33,-728.21"/>
<path data-id="28-30" d="M813.82,-890.46,847.37,-909.30"/>
<path data-id="28-95" d="M813.82,-890.46,833.72,-842.45"/>
<path data-id="28-97" d="M813.82,-890.46,784.02,-914.62"/>
<path data-id="29-55" d="M651.51,-252.53,579.74,-251.22"/>
<path data-id="29-60" d="M651.51,-252.53,710.67,-190.48"/>
<path data-id="29-93" d="M651.51,-252.53,736.70,-379.42"/>
<path data-id="29-99" d="M651.51,-252.53,779.69,-348.30"/>
<path data-id="31-85" d="M714.74,-766.96,708.27,-860.74"/>
<path data-id="31-95" d="M714.74,-766.96,833.72,-842.45"/>
<path data-id="32-46" d="M513.58,-493.48,659.73,-476.71"/>
<path data-id="32-52" d="M513.58,-493.48,402.02,-540.53"/>
<path data-id="32-53" d="M513.58,-493.48,474.13,-343.67"/>
<path data-id="32-67" d="M513.58,-493.48,642.77,-626.36"/>
<path data-id="32-84" d="M513.58,-493.48,393.53,-458.39"/>
<path data-id="33-54" d="M582.68,-147.19,454.22,-194.20"/>
<path data-id="33-81" d="M582.68,-147.19,584.39,-111.05"/>
<path data-id="33-83" d="M582.68,-147.19,579.04,-223.09"/>
<path data-id="34-85" d="M675.98,-861.34,708.27,-860.74"/>
<path data-id="35-48" d="M164.70,-753.88,161.13,-798.75"/>
<path data-id="35-75" d="M164.70,-753.88,3.22,-735.21"/>
<path data-id="35-89" d="M164.70,-753.88,88.51,-625.32"/>
<path data-id="35-98" d="M164.70,-753.88,281.53,-738.40"/>
<path data-id="36-60" d="M706.18,-121.00,710.67,-190.48"/>
<path data-id="37-72" d="M50.72,-595.36,22.84,-617.64"/>
<path data-id="37-89" d="M50.72,-595.36,88.51,-625.32"/>
<path data-id="37-90" d="M50.72,-595.36,95.47,-566.66"/>
<path data-id="38-50" d="M219.15,-309.86,198.12,-248.79"/>
<path data-id="38-62" d="M219.15,-309.86,271.41,-271.27"/>
<path data-id="39-47" d="M621.17,-650.83,545.09,-700.83"/>
<path data-id="39-67" d="M621.17,-650.83,642.77,-626.36"/>
<path data-id="40-65" d="M333.74,-12.53,231.98,-9.74"/>
<path data-id="40-87" d="M333.74,-12.53,441.53,-19.99"/>
<path data-id="41-51" d="M114.03,-192.83,94.34,-139.98"/>
<path data-id="41-56" d="M114.03,-192.83,145.33,-208.68"/>
<path data-id="41-66" d="M114.03,-192.83,80.00,-297.98"/>
<path data-id="42-47" d="M525.28,-720.11,545.09,-700.83"/>
<path data-id="43-77" d="M209.15,-389.85,174.49,-382.15"/>
<path data-id="43-84" d="M209.15,-389.85,393.53,-458.39"/>
<path data-id="44-61" d="M936.42,-400.61,998.06,-390.54"/>
<path data-id="44-64" d="M936.42,-400.61,992.18,-558.42"/>
<path data-id="45-67" d="M713.21,-618.48,642.77,-626.36"/>
<path data-id="45-76" d="M713.21,-618.48,703.47,-507.35"/>
<path data-id="46-76" d="M659.73,-476.71,703.47,-507.35"/>
<path data-id="48-78" d="M161.13,-798.75,160.98,-842.45"/>
<path data-id="49-94" d="M872.88,-47.10,888.40,-104.14"/>
<path data-id="50-56" d="M198.12,-248.79,145.33,-208.68"/>
<path data-id="50-62" d="M198.12,-248.79,271.41,-271.27"/>
<path data-id="50-66" d="M198.12,-248.79,80.00,-297.98"/>
<path data-id="51-86" d="M94.34,-139.98,87.44,-46.66"/>
<path data-id="51-88" d="M94.34,-139.98,154.31,-106.22"/>
<path data-id="52-69" d="M402.02,-540.53,352.61,-673.82"/>
<path data-id="52-84" d="M402.02,-540.53,393.53,-458.39"/>
<path data-id="53-59" d="M474.13,-343.67,400.79,-260.47"/>
<path data-id="53-84" d="M474.13,-343.67,393.53,-458.39"/>
<path data-id="54-59" d="M454.22,-194.20,400.79,-260.47"/>
<path data-id="54-79" d="M454.22,-194.20,549.60,-270.79"/>
<path data-id="54-83" d="M454.22,-194.20,579.04,-223.09"/>
<path data-id="54-87" d="M454.22,-194.20,441.53,-19.99"/>
<path data-id="55-79" d="M579.74,-251.22,549.60,-270.79"/>
<path data-id="55-83" d="M579.74,-251.22,579.04,-223.09"/>
<path data-id="56-66" d="M145.33,-208.68,80.00,-297.98"/>
<path data-id="57-63" d="M412.72,-930.35,304.47,-936.71"/>
<path data-id="57-73" d="M412.72,-930.35,352.47,-800.75"/>
<path data-id="57-82" d="M412.72,-930.35,300.80,-863.19"/>
<path data-id="59-62" d="M400.79,-260.47,271.41,-271.27"/>
<path data-id="60-99" d="M710.67,-190.48,779.69,-348.30"/>
<path data-id="61-64" d="M998.06,-390.54,992.18,-558.42"/>
<path data-id="62-84" d="M271.41,-271.27,393.53,-458.39"/>
<path data-id="63-82" d="M304.47,-936.71,300.80,-863.19"/>
<path data-id="64-68" d="M992.18,-558.42,853.33,-821.05"/>
<path data-id="65-86" d="M231.98,-9.74,87.44,-46.66"/>
<path data-id="65-88" d="M231.98,-9.74,154.31,-106.22"/>
<path data-id="68-95" d="M853.33,-821.05,833.72,-842.45"/>
<path data-id="69-70" d="M352.61,-673.82,444.33,-728.21"/>
<path data-id="69-98" d="M352.61,-673.82,281.53,-738.40"/>
<path data-id="70-73" d="M444.33,-728.21,352.47,-800.75"/>
<path data-id="71-92" d="M184.27,-976.51,170.20,-949.85"/>
<path data-id="72-75" d="M22.84,-617.64,3.22,-735.21"/>
<path data-id="73-82" d="M352.47,-800.75,300.80,-863.19"/>
<path data-id="74-78" d="M143.65,-890.91,160.98,-842.45"/>
<path data-id="74-92" d="M143.65,-890.91,170.20,-949.85"/>
<path data-id="74-96" d="M143.65,-890.91,116.00,-915.36"/>
<path data-id="80-89" d="M136.06,-584.60,88.51,-625.32"/>
<path data-id="80-90" d="M136.06,-584.60,95.47,-566.66"/>
<path data-id="81-87" d="M584.39,-111.05,441.53,-19.99"/>
<path data-id="85-97" d="M708.27,-860.74,784.02,-914.62"/>
<path data-id="86-88" d="M87.44,-46.66,154.31,-106.22"/>
<path data-id="89-90" d="M88.51,-625.32,95.47,-566.66"/>
<path data-id="92-96" d="M170.20,-949.85,116.00,-915.36"/>
<path data-id="93-99" d="M736.70,-379.42,779.69,-348.30"/>
<circle data-id="0" cx="145.67" cy="-454.93" r="10.00px"/>
<text data-id="0" x="145.67" y="-454.93">R0</text>
<circle data-id="1" cx="770.78" cy="-705.51" r="10.00px"/>
<text data-id="1" x="770.78" y="-705.51">R1</text>
<circle data-id="2" cx="731.96" cy="-433.51" r="10.00px"/>
<text data-id="2" x="731.96" y="-433.51">R2</text>
<circle data-id="3" cx="800.02" cy="-532.90" r="10.00px"/>
<text data-id="3" x="800.02" y="-532.90">R3</text>
<circle data-id="4" cx="80.15" cy="-455.95" r="10.00px"/>
<text data-id="4" x="80.15" y="-455.95">R4</text>
<circle data-id="5" cx="47.89" cy="-932.96" r="10.00px"/>
<text data-id="5" x="47.89" y="-932.96">R5</text>
<circle data-id="6" cx="947.08" cy="-335.35" r="10.00px"/>
<text data-id="6" x="947.08" y="-335.35">R6</text>
<circle data-id="7" cx="309.41" cy="-768.02" r="10.00px"/>
<text data-id="7" x="309.41" y="-768.02">R7</text>
<circle data-id="8" cx="203.87" cy="-178.46" r="10.00px"/>
<text data-id="8" x="203.87" y="-178.46">R8</text>
<circle data-id="9" cx="188.59" cy="-347.00" r="10.00px"/>
<text data-id="9" x="188.59" y="-347.00">R9</text>
<circle data-id="10" cx="626.32" cy="-963.32" r="10.00px"/>
<text data-id="10" x="626.32" y="-963.32">R10</text>
<circle data-id="11" cx="210.83" cy="-956.10" r="10.00px"/>
<text data-id="11" x="210.83" y="-956.10">R11</text>
<circle data-id="12" cx="555.40" cy="-901.15" r="10.00px"/>
<text data-id="12" x="555.40" y="-901.15">R12</text>
<circle data-id="13" cx="818.02" cy="-160.42" r="10.00px"/>
<text data-id="13" x="818.02" y="-160.42">R13</text>
<circle data-id="14" cx="648.54" cy="-124.09" r="10.00px"/>
<text data-id="14" x="648.54" y="-124.09">R14</text>
<circle data-id="15" cx="5.65" cy="-395.52" r="10.00px"/>
<text data-id="15" x="5.65" y="-395.52">R15</text>
<circle data-id="16" cx="773.50" cy="-566.16" r="10.00px"/>
<text data-id="16" x="773.50" y="-566.16">R16</text>
<circle data-id="17" cx="192.64" cy="-841.17" r="10.00px"/>
<text data-id="17" x="192.64" y="-841.17">R17</text>
<circle data-id="18" cx="913.78" cy="-237.23" r="10.00px"/>
<text data-id="18" x="913.78" y="-237.23">R18</text>
<circle data-id="19" cx="448.19" cy="-637.80" r="10.00px"/>
<text data-id="19" x="448.19" y="-637.80">R19</text>
<circle data-id="20" cx="902.34" cy="-126.62" r="10.00px"/>
<text data-id="20" x="902.34" y="-126.62">R20</text>
<circle data-id="21" cx="553.95" cy="-968.52" r="10.00px"/>
<text data-id="21" x="553.95" y="-968.52">R21</text>
<circle data-id="22" cx="609.10" cy="-717.30" r="10.00px"/>
<text data-id="22" x="609.10" y="-717.30">R22</text>
<circle data-id="23" cx="774.96" cy="-507.11" r="10.00px"/>
<text data-id="23" x="774.96" y="-507.11">R23</text>
<circle data-id="24" cx="289.86" cy="-590.37" r="10.00px"/>
<text data-id="24" x="289.86" y="-590.37">R24</text>
<circle data-id="25" cx="528.18" cy="-343.27" r="10.00px"/>
<text data-id="25" x="528.18" y="-343.27">R25</text>
<circle data-id="26" cx="854.17" cy="-363.00" r="10.00px"/>
<text data-id="26" x="854.17" y="-363.00">R26</text>
<circle data-id="27" cx="483.56" cy="-761.50" r="10.00px"/>
<text data-id="27" x="483.56" y="-761.50">R27</text>
<circle data-id="28" cx="813.82" cy="-890.46" r="10.00px"/>
<text data-id="28" x="813.82" y="-890.46">R28</text>
<circle data-id="29" cx="651.51" cy="-252.53" r="10.00px"/>
<text data-id="29" x="651.51" y="-252.53">R29</text>
<circle data-id="30" cx="847.37" cy="-909.30" r="10.00px"/>
<text data-id="30" x="847.37" y="-909.30">R30</text>
<circle data-id="31" cx="714.74" cy="-766.96" r="10.00px"/>
<text data-id="31" x="714.74" y="-766.96">R31</text>
<circle data-id="32" cx="513.58" cy="-493.48" r="10.00px"/>
<text data-id="32" x="513.58" y="-493.48">R32</text>
<circle data-id="33" cx="582.68" cy="-147.19" r="10.00px"/>
<text data-id="33" x="582.68" y="-147.19">R33</text>
<circle data-id="34" cx="675.98" cy="-861.34" r="10.00px"/>
<text data-id="34" x="675.98" y="-861.34">R34</text>
<circle data-id="35" cx="164.70" cy="-753.88" r="10.00px"/>
<text data-id="35" x="164.70" y="-753.88">R35</text>
<circle data-id="36" cx="706.18" cy="-121.00" r="10.00px"/>
<text data-id="36" x="706.18" y="-121.00">R36</text>
<circle data-id="37" cx="50.72" cy="-595.36" r="10.00px"/>
<text data-id="37" x="50.72" y="-595.36">R37</text>
<circle data-id="38" cx="219.15" cy="-309.86" r="10.00px"/>
<text data-id="38" x="219.15" y="-309.86">R38</text>
<circle data-id="39" cx="621.17" cy="-650.83" r="10.00px"/>
<text data-id="39" x="621.17" y="-650.83">R39</text>
<circle data-id="40" cx="333.74" cy="-12.53" r="10.00px"/>
<text data-id="40" x="333.74" y="-12.53">R40</text>
<circle data-id="41" cx="114.03" cy="-192.83" r="10.00px"/>
<text data-id="41" x="114.03" y="-192.83">R41</text>
<circle data-id="42" cx="525.28" cy="-720.11" r="10.00px"/>
<text data-id="42" x="525.28" y="-720.11">R42</text>
<circle data-id="43" cx="209.15" cy="-389.85" r="10.00px"/>
<text data-id="43" x="209.15" y="-389.85">R43</text>
<circle data-id="44" cx="936.42" cy="-400.61" r="10.00px"/>
<text data-id="44" x="936.42" y="-400.61">R44</text>
<circle data-id="45" cx="713.21" cy="-618.48" r="10.00px"/>
<text data-id="45" x="713.21" y="-618.48">R45</text>
<circle data-id="46" cx="659.73" cy="-476.71" r="10.00px"/>
<text data-id="46" x="659.73" y="-476.71">R46</text>
<circle data-id="47" cx="545.09" cy="-700.83" r="10.00px"/>
<text data-id="47" x="545.09" y="-700.83">R47</text>
<circle data-id="48" cx="161.13" cy="-798.75" r="10.00px"/>
<text data-id="48" x="161.13" y="-798.75">R48</text>
<circle data-id="49" cx="872.88" cy="-47.10" r="10.00px"/>
<text data-id="49" x="872.88" y="-47.10">R49</text>
<circle data-id="50" cx="198.12" cy="-248.79" r="10.00px"/>
<text data-id="50" x="198.12" y="-248.79">R50</text>
<circle data-id="51" cx="94.34" cy="-139.98" r="10.00px"/>
<text data-id="51" x="94.34" y="-139.98">R51</text>
<circle data-id="52" cx="402.02" cy="-540.53" r="10.00px"/>
<text data-id="52" x="402.02" y="-540.53">R52</text>
<circle data-id="53" cx="474.13" cy="-343.67" r="10.00px"/>
<text data-id="53" x="474.13" y="-343.67">R53</text>
<circle data-id="54" cx="454.22" cy="-194.20" r="10.00px"/>
<text data-id="54" x="454.22" y="-194.20">R54</text>
<circle data-id="55" cx="579.74" cy="-251.22" r="10.00px"/>
<text data-id="55" x="579.74" y="-251.22">R55</text>
<circle data-id="56" cx="145.33" cy="-208.68" r="10.00px"/>
<text data-id="56" x="145.33" y="-208.68">R56</text>
<circle data-id="57" cx="412.72" cy="-930.35" r="10.00px"/>
<text data-id="57" x="412.72" y="-930.35">R57</text>
<circle data-id="58" cx="597.88" cy="-980.77" r="10.00px"/>
<text data-id="58" x="597.88" y="-980.77">R58</text>
<circle data-id="59" cx="400.79" cy="-260.47" r="10.00px"/>
<text data-id="59" x="400.79" y="-260.47">R59</text>
<circle data-id="60" cx="710.67" cy="-190.48" r="10.00px"/>
<text data-id="60" x="710.67" y="-190.48">R60</text>
<circle data-id="61" cx="998.06" cy="-390.54" r="10.00px"/>
<text data-id="61" x="998.06" y="-390.54">R61</text>
<circle data-id="62" cx="271.41" cy="-271.27" r="10.00px"/>
<text data-id="62" x="271.41" y="-271.27">R62</text>
<circle data-id="63" cx="304.47" cy="-936.71" r="10.00px"/>
<text data-id="63" x="304.47" y="-936.71">R63</text>
<circle data-id="64" cx="992.18" cy="-558.42" r="10.00px"/>
<text data-id="64" x="992.18" y="-558.42">R64</text>
<circle data-id="65" cx="231.98" cy="-9.74" r="10.00px"/>
<text data-id="65" x="231.98" y="-9.74">R65</text>
<circle data-id="66" cx="80.00" cy="-297.98" r="10.00px"/>
<text data-id="66" x="80.00" y="-297.98">R66</text>
<circle data-id="67" cx="642.77" cy="-626.36" r="10.00px"/>
<text data-id="67" x="642.77" y="-626.36">R67</text>
<circle data-id="68" cx="853.33" cy="-821.05" r="10.00px"/>
<text data-id="68" x="853.33" y="-821.05">R68</text>
<circle data-id="69" cx="352.61" cy="-673.82" r="10.00px"/>
<text data-id="69" x="352.61" y="-673.82">R69</text>
<circle data-id="70" cx="444.33" cy="-728.21" r="10.00px"/>
<text data-id="70" x="444.33" y="-728.21">R70</text>
<circle data-id="71" cx="184.27" cy="-976.51" r="10.00px"/>
<text data-id="71" x="184.27" y="-976.51">R71</text>
<circle data-id="72" cx="22.84" cy="-617.64" r="10.00px"/>
<text data-id="72" x="22.84" y="-617.64">R72</text>
<circle data-id="73" cx="352.47" cy="-800.75" r="10.00px"/>
<text data-id="73" x="352.47" y="-800.75">R73</text>
<circle data-id="74" cx="143.65" cy="-890.91" r="10.00px"/>
<text data-id="74" x="143.65" y="-890.91">R74</text>
<circle data-id="75" cx="3.22" cy="-735.21" r="10.00px"/>
<text data-id="75" x="3.22" y="-735.21">R75</text>
<circle data-id="76" cx="703.47" cy="-507.35" r="10.00px"/>
<text data-id="76" x="703.47" y="-507.35">R76</text>
<circle data-id="77" cx="174.49" cy="-382.15" r="10.00px"/>
<text data-id="77" x="174.49" y="-382.15">R77</text>
<circle data-id="78" cx="160.98" cy="-842.45" r="10.00px"/>
<text data-id="78" x="160.98" y="-842.45">R78</text>
<circle data-id="79" cx="549.60" cy="-270.79" r="10.00px"/>
<text data-id="79" x="549.60" y="-270.79">R79</text>
<circle data-id="80" cx="136.06" cy="-584.60" r="10.00px"/>
<text data-id="80" x="136.06" y="-584.60">R80</text>
<circle data-id="81" cx="584.39" cy="-111.05" r="10.00px"/>
<text data-id="81" x="584.39" y="-111.05">R81</text>
<circle data-id="82" cx="300.80" cy="-863.19" r="10.00px"/>
<text data-id="82" x="300.80" y="-863.19">R82</text>
<circle data-id="83" cx="579.04" cy="-223.09" r="10.00px"/>
<text data-id="83" x="579.04" y="-223.09">R83</text>
<circle data-id="84" cx="393.53" cy="-458.39" r="10.00px"/>
<text data-id="84" x="393.53" y="-458.39">R84</text>
<circle data-id="85" cx="708.27" cy="-860.74" r="10.00px"/>
<text data-id="85" x="708.27" y="-860.74">R85</text>
<circle data-id="86" cx="87.44" cy="-46.66" r="10.00px"/>
<text data-id="86" x="87.44" y="-46.66">R86</text>
<circle data-id="87" cx="441.53" cy="-19.99" r="10.00px"/>
<text data-id="87" x="441.53" y="-19.99">R87</text>
<circle data-id="88" cx="154.31" cy="-106.22" r="10.00px"/>
<text data-id="88" x="154.31" y="-106.22">R88</text>
<circle data-id="89" cx="88.51" cy="-625.32" r="10.00px"/>
<text data-id="89" x="88.51" y="-625.32">R89</text>
<circle data-id="90" cx="95.47" cy="-566.66" r="10.00px"/>
<text data-id="90" x="95.47" y="-566.66">R90</text>
<circle data-id="91" cx="966.15" cy="-140.47" r="10.00px"/>
<text data-id="91" x="966.15" y="-140.47">R91</text>
<circle data-id="92" cx="170.20" cy="-949.85" r="10.00px"/>
<text data-id="92" x="170.20" y="-949.85">R92</text>
<circle data-id="93" cx="736.70" cy="-379.42" r="10.00px"/>
<text data-id="93" x="736.70" y="-379.42">R93</text>
<circle data-id="94" cx="888.40" cy="-104.14" r="10.00px"/>
<text data-id="94" x="888.40" y="-104.14">R94</text>
<circle data-id="95" cx="833.72" cy="-842.45" r="10.00px"/>
<text data-id="95" x="833.72" y="-842.45">R95</text>
<circle data-id="96" cx="116.00" cy="-915.36" r="10.00px"/>
<text data-id="96" x="116.00" y="-915.36">R96</text>
<circle data-id="97" cx="784.02" cy="-914.62" r="10.00px"/>
<text data-id="97" x="784.02" y="-914.62">R97</text>
<circle data-id="98" cx="281.53" cy="-738.40" r="10.00px"/>
<text data-id="98" x="281.53" y="-738.40">R98</text>
<circle data-id="99" cx="779.69" cy="-348.30" r="10.00px"/>
<text data-id="99" x="779.69" y="-348.30">R99</text>
</svg>
