<svg width="1085.72" height="1077.43" viewBox="-44.35 -32.51 1085.72 1077.43" xmlns="http://www.w3.org/2000/svg">
<style>path {fill: none; stroke: grey; stroke-width: 6;} circle {fill: lightblue; stroke: none;} text {fill: black; stroke: none; font-size: 16; font-family: sans-serif; text-anchor:middle;}</style>
<path d="M29.56,102.14,42.85,234.63"/>
<path d="M29.56,102.14,5.01,43.59"/>
<path d="M29.56,102.14,67.41,64.29"/>
<path d="M182.40,802.11,236.43,835.31"/>
<path d="M182.40,802.11,12.64,900.64"/>
<path d="M182.40,802.11,178.85,760.42"/>
<path d="M706.99,820.00,733.62,838.60"/>
<path d="M706.99,820.00,639.10,928.21"/>
<path d="M706.99,820.00,630.51,779.32"/>
<path d="M706.99,820.00,698.50,754.47"/>
<path d="M485.25,147.44,626.35,168.97"/>
<path d="M485.25,147.44,387.38,126.36"/>
<path d="M485.25,147.44,485.50,301.41"/>
<path d="M485.25,147.44,430.53,12.49"/>
<path d="M485.25,147.44,529.73,47.08"/>
<path d="M485.25,147.44,371.88,286.14"/>
<path d="M621.06,73.03,626.35,168.97"/>
<path d="M621.06,73.03,786.27,85.21"/>
<path d="M621.06,73.03,529.73,47.08"/>
<path d="M939.28,903.78,928.41,776.23"/>
<path d="M939.28,903.78,912.80,902.03"/>
<path d="M326.68,355.26,226.20,327.69"/>
<path d="M326.68,355.26,308.71,403.50"/>
<path d="M326.68,355.26,371.88,286.14"/>
<path d="M326.68,355.26,492.05,448.66"/>
<path d="M223.61,276.08,226.20,327.69"/>
<path d="M223.61,276.08,371.88,286.14"/>
<path d="M223.61,276.08,207.03,199.66"/>
<path d="M675.31,403.21,764.65,396.08"/>
<path d="M675.31,403.21,692.54,458.14"/>
<path d="M675.31,403.21,683.27,342.68"/>
<path d="M675.31,403.21,623.30,395.17"/>
<path d="M741.86,514.82,764.65,396.08"/>
<path d="M741.86,514.82,860.97,448.50"/>
<path d="M741.86,514.82,692.54,458.14"/>
<path d="M741.86,514.82,797.78,570.42"/>
<path d="M680.63,722.36,554.33,504.57"/>
<path d="M680.63,722.36,777.58,681.77"/>
<path d="M680.63,722.36,630.51,779.32"/>
<path d="M680.63,722.36,698.50,754.47"/>
<path d="M626.35,168.97,485.50,301.41"/>
<path d="M626.35,168.97,683.27,342.68"/>
<path d="M626.35,168.97,748.34,171.72"/>
<path d="M626.35,168.97,558.82,333.08"/>
<path d="M764.65,396.08,860.97,448.50"/>
<path d="M764.65,396.08,692.54,458.14"/>
<path d="M764.65,396.08,683.27,342.68"/>
<path d="M764.65,396.08,812.47,309.74"/>
<path d="M764.65,396.08,876.94,405.34"/>
<path d="M397.41,503.28,508.12,477.95"/>
<path d="M397.41,503.28,263.71,549.86"/>
<path d="M397.41,503.28,492.05,448.66"/>
<path d="M397.41,503.28,316.05,435.09"/>
<path d="M397.41,503.28,402.36,544.56"/>
<path d="M928.41,776.23,925.32,685.69"/>
<path d="M928.41,776.23,864.67,886.06"/>
<path d="M928.41,776.23,912.80,902.03"/>
<path d="M928.41,776.23,870.68,693.14"/>
<path d="M226.20,327.69,109.35,340.33"/>
<path d="M226.20,327.69,308.71,403.50"/>
<path d="M226.20,327.69,208.85,469.08"/>
<path d="M860.97,448.50,920.21,585.57"/>
<path d="M860.97,448.50,876.94,405.34"/>
<path d="M860.97,448.50,797.78,570.42"/>
<path d="M733.62,838.60,728.53,999.91"/>
<path d="M733.62,838.60,812.58,944.25"/>
<path d="M733.62,838.60,864.67,886.06"/>
<path d="M733.62,838.60,639.10,928.21"/>
<path d="M387.38,126.36,394.29,15.46"/>
<path d="M387.38,126.36,371.88,286.14"/>
<path d="M387.38,126.36,277.12,12.78"/>
<path d="M387.38,126.36,254.13,183.92"/>
<path d="M0.65,290.34,109.35,340.33"/>
<path d="M0.65,290.34,42.85,234.63"/>
<path d="M0.65,290.34,1.75,448.84"/>
<path d="M236.43,835.31,264.64,730.59"/>
<path d="M236.43,835.31,346.67,847.20"/>
<path d="M236.43,835.31,250.10,881.33"/>
<path d="M485.50,301.41,371.88,286.14"/>
<path d="M485.50,301.41,558.82,333.08"/>
<path d="M527.89,888.44,424.96,824.01"/>
<path d="M527.89,888.44,639.10,928.21"/>
<path d="M527.89,888.44,630.51,779.32"/>
<path d="M527.89,888.44,493.54,932.30"/>
<path d="M526.15,430.73,554.88,403.25"/>
<path d="M526.15,430.73,508.12,477.95"/>
<path d="M526.15,430.73,492.05,448.66"/>
<path d="M131.12,530.35,107.52,479.67"/>
<path d="M131.12,530.35,25.85,645.30"/>
<path d="M131.12,530.35,263.71,549.86"/>
<path d="M131.12,530.35,208.85,469.08"/>
<path d="M131.12,530.35,124.34,698.63"/>
<path d="M264.64,730.59,297.66,627.77"/>
<path d="M264.64,730.59,360.36,824.98"/>
<path d="M264.64,730.59,178.85,760.42"/>
<path d="M554.88,403.25,584.77,419.97"/>
<path d="M554.88,403.25,558.82,333.08"/>
<path d="M299.88,901.10,250.10,881.33"/>
<path d="M299.88,901.10,331.37,907.85"/>
<path d="M299.88,901.10,224.28,996.19"/>
<path d="M364.57,984.75,351.54,933.02"/>
<path d="M364.57,984.75,487.27,993.66"/>
<path d="M364.57,984.75,224.28,996.19"/>
<path d="M665.70,984.30,728.53,999.91"/>
<path d="M665.70,984.30,639.10,928.21"/>
<path d="M920.21,585.57,954.22,607.19"/>
<path d="M920.21,585.57,797.78,570.42"/>
<path d="M728.53,999.91,812.58,944.25"/>
<path d="M728.53,999.91,846.31,999.12"/>
<path d="M683.27,342.68,748.34,171.72"/>
<path d="M683.27,342.68,812.47,309.74"/>
<path d="M683.27,342.68,623.30,395.17"/>
<path d="M430.53,12.49,394.29,15.46"/>
<path d="M430.53,12.49,529.73,47.08"/>
<path d="M107.52,479.67,109.35,340.33"/>
<path d="M107.52,479.67,208.85,469.08"/>
<path d="M107.52,479.67,33.36,495.92"/>
<path d="M5.91,489.91,33.36,495.92"/>
<path d="M5.91,489.91,1.75,448.84"/>
<path d="M176.65,46.86,277.12,12.78"/>
<path d="M176.65,46.86,118.75,22.68"/>
<path d="M176.65,46.86,254.13,183.92"/>
<path d="M176.65,46.86,207.03,199.66"/>
<path d="M297.66,627.77,263.71,549.86"/>
<path d="M297.66,627.77,402.36,544.56"/>
<path d="M815.90,678.05,787.66,608.38"/>
<path d="M815.90,678.05,870.68,693.14"/>
<path d="M815.90,678.05,777.58,681.77"/>
<path d="M748.34,171.72,875.23,154.68"/>
<path d="M748.34,171.72,786.27,85.21"/>
<path d="M748.34,171.72,812.47,309.74"/>
<path d="M109.35,340.33,42.85,234.63"/>
<path d="M109.35,340.33,208.85,469.08"/>
<path d="M109.35,340.33,1.75,448.84"/>
<path d="M42.85,234.63,207.03,199.66"/>
<path d="M787.66,608.38,777.58,681.77"/>
<path d="M787.66,608.38,797.78,570.42"/>
<path d="M394.29,15.46,277.12,12.78"/>
<path d="M925.32,685.69,954.22,607.19"/>
<path d="M925.32,685.69,870.68,693.14"/>
<path d="M25.85,645.30,12.64,900.64"/>
<path d="M25.85,645.30,33.36,495.92"/>
<path d="M25.85,645.30,124.34,698.63"/>
<path d="M584.77,419.97,554.33,504.57"/>
<path d="M584.77,419.97,623.30,395.17"/>
<path d="M554.33,504.57,508.12,477.95"/>
<path d="M812.58,944.25,864.67,886.06"/>
<path d="M812.58,944.25,846.31,999.12"/>
<path d="M12.64,900.64,224.28,996.19"/>
<path d="M308.71,403.50,316.05,435.09"/>
<path d="M864.67,886.06,912.80,902.03"/>
<path d="M875.23,154.68,786.27,85.21"/>
<path d="M875.23,154.68,812.47,309.74"/>
<path d="M875.23,154.68,900.36,344.23"/>
<path d="M875.23,154.68,981.13,113.34"/>
<path d="M875.23,154.68,996.37,296.72"/>
<path d="M912.80,902.03,846.31,999.12"/>
<path d="M508.12,477.95,492.05,448.66"/>
<path d="M777.58,681.77,698.50,754.47"/>
<path d="M263.71,549.86,208.85,469.08"/>
<path d="M263.71,549.86,316.05,435.09"/>
<path d="M263.71,549.86,402.36,544.56"/>
<path d="M263.71,549.86,124.34,698.63"/>
<path d="M812.47,309.74,900.36,344.23"/>
<path d="M208.85,469.08,316.05,435.09"/>
<path d="M351.54,933.02,409.12,916.22"/>
<path d="M351.54,933.02,331.37,907.85"/>
<path d="M424.96,824.01,360.36,824.98"/>
<path d="M424.96,824.01,409.12,916.22"/>
<path d="M424.96,824.01,411.82,790.57"/>
<path d="M360.36,824.98,346.67,847.20"/>
<path d="M360.36,824.98,411.82,790.57"/>
<path d="M346.67,847.20,409.12,916.22"/>
<path d="M346.67,847.20,331.37,907.85"/>
<path d="M639.10,928.21,630.51,779.32"/>
<path d="M409.12,916.22,493.54,932.30"/>
<path d="M178.85,760.42,124.34,698.63"/>
<path d="M900.36,344.23,876.94,405.34"/>
<path d="M900.36,344.23,996.37,296.72"/>
<path d="M981.13,113.34,996.37,296.72"/>
<path d="M371.88,286.14,254.13,183.92"/>
<path d="M277.12,12.78,254.13,183.92"/>
<path d="M558.82,333.08,623.30,395.17"/>
<path d="M5.01,43.59,67.41,64.29"/>
<path d="M487.27,993.66,493.54,932.30"/>
<path d="M67.41,64.29,118.75,22.68"/>
<path d="M250.10,881.33,224.28,996.19"/>
<path d="M630.51,779.32,698.50,754.47"/>
<path d="M254.13,183.92,207.03,199.66"/>
<circle cx="29.56" cy="102.14" r="10"/>
<text x="29.56" y="107.14">R0</text>
<circle cx="182.40" cy="802.11" r="10"/>
<text x="182.40" y="807.11">R1</text>
<circle cx="706.99" cy="820.00" r="10"/>
<text x="706.99" y="825.00">R2</text>
<circle cx="485.25" cy="147.44" r="10"/>
<text x="485.25" y="152.44">R3</text>
<circle cx="621.06" cy="73.03" r="10"/>
<text x="621.06" y="78.03">R4</text>
<circle cx="939.28" cy="903.78" r="10"/>
<text x="939.28" y="908.78">R5</text>
<circle cx="326.68" cy="355.26" r="10"/>
<text x="326.68" y="360.26">R6</text>
<circle cx="223.61" cy="276.08" r="10"/>
<text x="223.61" y="281.08">R7</text>
<circle cx="675.31" cy="403.21" r="10"/>
<text x="675.31" y="408.21">R8</text>
<circle cx="741.86" cy="514.82" r="10"/>
<text x="741.86" y="519.82">R9</text>
<circle cx="680.63" cy="722.36" r="10"/>
<text x="680.63" y="727.36">R10</text>
<circle cx="626.35" cy="168.97" r="10"/>
<text x="626.35" y="173.97">R11</text>
<circle cx="764.65" cy="396.08" r="10"/>
<text x="764.65" y="401.08">R12</text>
<circle cx="397.41" cy="503.28" r="10"/>
<text x="397.41" y="508.28">R13</text>
<circle cx="928.41" cy="776.23" r="10"/>
<text x="928.41" y="781.23">R14</text>
<circle cx="226.20" cy="327.69" r="10"/>
<text x="226.20" y="332.69">R15</text>
<circle cx="860.97" cy="448.50" r="10"/>
<text x="860.97" y="453.50">R16</text>
<circle cx="733.62" cy="838.60" r="10"/>
<text x="733.62" y="843.60">R17</text>
<circle cx="387.38" cy="126.36" r="10"/>
<text x="387.38" y="131.36">R18</text>
<circle cx="0.65" cy="290.34" r="10"/>
<text x="0.65" y="295.34">R19</text>
<circle cx="236.43" cy="835.31" r="10"/>
<text x="236.43" y="840.31">R20</text>
<circle cx="485.50" cy="301.41" r="10"/>
<text x="485.50" y="306.41">R21</text>
<circle cx="527.89" cy="888.44" r="10"/>
<text x="527.89" y="893.44">R22</text>
<circle cx="526.15" cy="430.73" r="10"/>
<text x="526.15" y="435.73">R23</text>
<circle cx="131.12" cy="530.35" r="10"/>
<text x="131.12" y="535.35">R24</text>
<circle cx="264.64" cy="730.59" r="10"/>
<text x="264.64" y="735.59">R25</text>
<circle cx="554.88" cy="403.25" r="10"/>
<text x="554.88" y="408.25">R26</text>
<circle cx="299.88" cy="901.10" r="10"/>
<text x="299.88" y="906.10">R27</text>
<circle cx="364.57" cy="984.75" r="10"/>
<text x="364.57" y="989.75">R28</text>
<circle cx="692.54" cy="458.14" r="10"/>
<text x="692.54" y="463.14">R29</text>
<circle cx="665.70" cy="984.30" r="10"/>
<text x="665.70" y="989.30">R30</text>
<circle cx="920.21" cy="585.57" r="10"/>
<text x="920.21" y="590.57">R31</text>
<circle cx="728.53" cy="999.91" r="10"/>
<text x="728.53" y="1004.91">R32</text>
<circle cx="683.27" cy="342.68" r="10"/>
<text x="683.27" y="347.68">R33</text>
<circle cx="430.53" cy="12.49" r="10"/>
<text x="430.53" y="17.49">R34</text>
<circle cx="107.52" cy="479.67" r="10"/>
<text x="107.52" y="484.67">R35</text>
<circle cx="5.91" cy="489.91" r="10"/>
<text x="5.91" y="494.91">R36</text>
<circle cx="176.65" cy="46.86" r="10"/>
<text x="176.65" y="51.86">R37</text>
<circle cx="297.66" cy="627.77" r="10"/>
<text x="297.66" y="632.77">R38</text>
<circle cx="815.90" cy="678.05" r="10"/>
<text x="815.90" y="683.05">R39</text>
<circle cx="748.34" cy="171.72" r="10"/>
<text x="748.34" y="176.72">R40</text>
<circle cx="109.35" cy="340.33" r="10"/>
<text x="109.35" y="345.33">R41</text>
<circle cx="42.85" cy="234.63" r="10"/>
<text x="42.85" y="239.63">R42</text>
<circle cx="787.66" cy="608.38" r="10"/>
<text x="787.66" y="613.38">R43</text>
<circle cx="394.29" cy="15.46" r="10"/>
<text x="394.29" y="20.46">R44</text>
<circle cx="925.32" cy="685.69" r="10"/>
<text x="925.32" y="690.69">R45</text>
<circle cx="25.85" cy="645.30" r="10"/>
<text x="25.85" y="650.30">R46</text>
<circle cx="584.77" cy="419.97" r="10"/>
<text x="584.77" y="424.97">R47</text>
<circle cx="554.33" cy="504.57" r="10"/>
<text x="554.33" y="509.57">R48</text>
<circle cx="812.58" cy="944.25" r="10"/>
<text x="812.58" y="949.25">R49</text>
<circle cx="12.64" cy="900.64" r="10"/>
<text x="12.64" y="905.64">R50</text>
<circle cx="308.71" cy="403.50" r="10"/>
<text x="308.71" y="408.50">R51</text>
<circle cx="864.67" cy="886.06" r="10"/>
<text x="864.67" y="891.06">R52</text>
<circle cx="875.23" cy="154.68" r="10"/>
<text x="875.23" y="159.68">R53</text>
<circle cx="912.80" cy="902.03" r="10"/>
<text x="912.80" y="907.03">R54</text>
<circle cx="786.27" cy="85.21" r="10"/>
<text x="786.27" y="90.21">R55</text>
<circle cx="846.31" cy="999.12" r="10"/>
<text x="846.31" y="1004.12">R56</text>
<circle cx="529.73" cy="47.08" r="10"/>
<text x="529.73" y="52.08">R57</text>
<circle cx="954.22" cy="607.19" r="10"/>
<text x="954.22" y="612.19">R58</text>
<circle cx="508.12" cy="477.95" r="10"/>
<text x="508.12" y="482.95">R59</text>
<circle cx="870.68" cy="693.14" r="10"/>
<text x="870.68" y="698.14">R60</text>
<circle cx="777.58" cy="681.77" r="10"/>
<text x="777.58" y="686.77">R61</text>
<circle cx="263.71" cy="549.86" r="10"/>
<text x="263.71" y="554.86">R62</text>
<circle cx="812.47" cy="309.74" r="10"/>
<text x="812.47" y="314.74">R63</text>
<circle cx="208.85" cy="469.08" r="10"/>
<text x="208.85" y="474.08">R64</text>
<circle cx="351.54" cy="933.02" r="10"/>
<text x="351.54" y="938.02">R65</text>
<circle cx="424.96" cy="824.01" r="10"/>
<text x="424.96" y="829.01">R66</text>
<circle cx="360.36" cy="824.98" r="10"/>
<text x="360.36" y="829.98">R67</text>
<circle cx="346.67" cy="847.20" r="10"/>
<text x="346.67" y="852.20">R68</text>
<circle cx="639.10" cy="928.21" r="10"/>
<text x="639.10" y="933.21">R69</text>
<circle cx="409.12" cy="916.22" r="10"/>
<text x="409.12" y="921.22">R70</text>
<circle cx="178.85" cy="760.42" r="10"/>
<text x="178.85" y="765.42">R71</text>
<circle cx="900.36" cy="344.23" r="10"/>
<text x="900.36" y="349.23">R72</text>
<circle cx="981.13" cy="113.34" r="10"/>
<text x="981.13" y="118.34">R73</text>
<circle cx="371.88" cy="286.14" r="10"/>
<text x="371.88" y="291.14">R74</text>
<circle cx="277.12" cy="12.78" r="10"/>
<text x="277.12" y="17.78">R75</text>
<circle cx="492.05" cy="448.66" r="10"/>
<text x="492.05" y="453.66">R76</text>
<circle cx="316.05" cy="435.09" r="10"/>
<text x="316.05" y="440.09">R77</text>
<circle cx="558.82" cy="333.08" r="10"/>
<text x="558.82" y="338.08">R78</text>
<circle cx="5.01" cy="43.59" r="10"/>
<text x="5.01" y="48.59">R79</text>
<circle cx="33.36" cy="495.92" r="10"/>
<text x="33.36" y="500.92">R80</text>
<circle cx="487.27" cy="993.66" r="10"/>
<text x="487.27" y="998.66">R81</text>
<circle cx="67.41" cy="64.29" r="10"/>
<text x="67.41" y="69.29">R82</text>
<circle cx="411.82" cy="790.57" r="10"/>
<text x="411.82" y="795.57">R83</text>
<circle cx="876.94" cy="405.34" r="10"/>
<text x="876.94" y="410.34">R84</text>
<circle cx="250.10" cy="881.33" r="10"/>
<text x="250.10" y="886.33">R85</text>
<circle cx="996.37" cy="296.72" r="10"/>
<text x="996.37" y="301.72">R86</text>
<circle cx="402.36" cy="544.56" r="10"/>
<text x="402.36" y="549.56">R87</text>
<circle cx="118.75" cy="22.68" r="10"/>
<text x="118.75" y="27.68">R88</text>
<circle cx="630.51" cy="779.32" r="10"/>
<text x="630.51" y="784.32">R89</text>
<circle cx="254.13" cy="183.92" r="10"/>
<text x="254.13" y="188.92">R90</text>
<circle cx="698.50" cy="754.47" r="10"/>
<text x="698.50" y="759.47">R91</text>
<circle cx="1.75" cy="448.84" r="10"/>
<text x="1.75" y="453.84">R92</text>
<circle cx="797.78" cy="570.42" r="10"/>
<text x="797.78" y="575.42">R93</text>
<circle cx="331.37" cy="907.85" r="10"/>
<text x="331.37" y="912.85">R94</text>
<circle cx="623.30" cy="395.17" r="10"/>
<text x="623.30" y="400.17">R95</text>
<circle cx="493.54" cy="932.30" r="10"/>
<text x="493.54" y="937.30">R96</text>
<circle cx="207.03" cy="199.66" r="10"/>
<text x="207.03" y="204.66">R97</text>
<circle cx="124.34" cy="698.63" r="10"/>
<text x="124.34" y="703.63">R98</text>
<circle cx="224.28" cy="996.19" r="10"/>
<text x="224.28" y="1001.19">R99</text>
</svg>
