<svg id="topo" width="1080.40" height="1062.59" viewBox="-40.68 -39.70 1080.40 1062.59" xmlns="http://www.w3.org/2000/svg">
<style>#topo path {fill: none; stroke: grey; stroke-width: 6;} #topo circle {fill: lightblue; stroke: none;} #topo text {fill: black; stroke: none; font-size: 16; font-family: sans-serif; text-anchor:middle;}</style>
<path d="M13.12,886.89,72.04,965.99"/>
<path d="M13.12,886.89,59.83,868.85"/>
<path d="M773.33,609.02,830.10,687.18"/>
<path d="M773.33,609.02,690.27,621.09"/>
<path d="M773.33,609.02,754.89,445.39"/>
<path d="M208.97,969.84,378.56,935.86"/>
<path d="M208.97,969.84,165.49,915.56"/>
<path d="M378.56,935.86,366.63,843.99"/>
<path d="M378.56,935.86,426.79,845.01"/>
<path d="M378.56,935.86,522.21,964.30"/>
<path d="M904.19,702.70,864.31,662.47"/>
<path d="M904.19,702.70,953.79,711.44"/>
<path d="M399.75,561.17,357.35,496.91"/>
<path d="M399.75,561.17,430.82,602.18"/>
<path d="M399.75,561.17,438.39,483.05"/>
<path d="M558.45,900.69,628.32,870.84"/>
<path d="M558.45,900.69,562.28,745.01"/>
<path d="M558.45,900.69,522.21,964.30"/>
<path d="M558.45,900.69,442.27,823.57"/>
<path d="M370.95,220.47,404.93,338.38"/>
<path d="M370.95,220.47,134.89,231.46"/>
<path d="M370.95,220.47,488.57,258.56"/>
<path d="M370.95,220.47,435.66,321.48"/>
<path d="M370.95,220.47,412.26,163.59"/>
<path d="M942.26,117.65,896.58,132.60"/>
<path d="M942.26,117.65,883.40,40.02"/>
<path d="M942.26,117.65,990.44,133.40"/>
<path d="M488.04,301.88,559.07,408.80"/>
<path d="M488.04,301.88,596.78,356.91"/>
<path d="M488.04,301.88,488.57,258.56"/>
<path d="M488.04,301.88,435.66,321.48"/>
<path d="M72.04,965.99,59.83,868.85"/>
<path d="M72.04,965.99,113.14,890.10"/>
<path d="M215.28,568.29,357.35,496.91"/>
<path d="M215.28,568.29,63.50,473.58"/>
<path d="M215.28,568.29,162.31,620.04"/>
<path d="M215.28,568.29,222.12,427.36"/>
<path d="M830.10,687.18,671.65,695.66"/>
<path d="M830.10,687.18,864.31,662.47"/>
<path d="M347.81,775.42,366.63,843.99"/>
<path d="M347.81,775.42,257.26,778.47"/>
<path d="M347.81,775.42,430.82,602.18"/>
<path d="M347.81,775.42,456.82,765.20"/>
<path d="M896.58,132.60,883.40,40.02"/>
<path d="M896.58,132.60,884.23,168.25"/>
<path d="M896.58,132.60,821.73,99.85"/>
<path d="M554.62,686.38,605.21,598.08"/>
<path d="M554.62,686.38,671.65,695.66"/>
<path d="M554.62,686.38,562.28,745.01"/>
<path d="M554.62,686.38,517.76,739.38"/>
<path d="M554.62,686.38,430.82,602.18"/>
<path d="M605.21,598.08,578.59,522.18"/>
<path d="M605.21,598.08,690.27,621.09"/>
<path d="M605.21,598.08,430.82,602.18"/>
<path d="M482.59,490.49,578.59,522.18"/>
<path d="M482.59,490.49,559.07,408.80"/>
<path d="M482.59,490.49,438.39,483.05"/>
<path d="M15.45,550.79,63.50,473.58"/>
<path d="M15.45,550.79,75.35,590.47"/>
<path d="M115.03,86.84,38.67,75.73"/>
<path d="M115.03,86.84,260.37,106.56"/>
<path d="M115.03,86.84,95.96,115.38"/>
<path d="M141.07,688.22,53.63,652.08"/>
<path d="M141.07,688.22,125.42,797.11"/>
<path d="M141.07,688.22,257.26,778.47"/>
<path d="M141.07,688.22,75.71,766.18"/>
<path d="M141.07,688.22,162.31,620.04"/>
<path d="M725.76,252.38,738.88,338.32"/>
<path d="M725.76,252.38,669.23,320.83"/>
<path d="M725.76,252.38,557.64,207.71"/>
<path d="M725.76,252.38,821.04,172.33"/>
<path d="M828.99,977.89,874.10,933.05"/>
<path d="M828.99,977.89,741.21,975.94"/>
<path d="M628.32,870.84,638.78,816.69"/>
<path d="M628.32,870.84,665.54,872.06"/>
<path d="M53.63,652.08,5.97,685.75"/>
<path d="M53.63,652.08,75.35,590.47"/>
<path d="M883.40,40.02,906.28,5.30"/>
<path d="M883.40,40.02,821.73,99.85"/>
<path d="M451.09,54.21,329.89,86.44"/>
<path d="M451.09,54.21,472.28,12.04"/>
<path d="M451.09,54.21,524.61,133.96"/>
<path d="M451.09,54.21,412.26,163.59"/>
<path d="M24.21,715.18,5.97,685.75"/>
<path d="M24.21,715.18,75.71,766.18"/>
<path d="M855.85,409.07,738.88,338.32"/>
<path d="M855.85,409.07,754.89,445.39"/>
<path d="M855.85,409.07,950.97,355.24"/>
<path d="M404.93,338.38,357.35,496.91"/>
<path d="M404.93,338.38,435.66,321.48"/>
<path d="M404.93,338.38,438.39,483.05"/>
<path d="M404.93,338.38,222.12,427.36"/>
<path d="M874.10,933.05,994.71,965.16"/>
<path d="M874.10,933.05,980.10,874.03"/>
<path d="M357.35,496.91,438.39,483.05"/>
<path d="M357.35,496.91,222.12,427.36"/>
<path d="M134.89,231.46,260.37,106.56"/>
<path d="M134.89,231.46,146.14,397.85"/>
<path d="M134.89,231.46,100.06,225.16"/>
<path d="M638.78,816.69,562.28,745.01"/>
<path d="M638.78,816.69,665.54,872.06"/>
<path d="M638.78,816.69,654.25,745.97"/>
<path d="M578.59,522.18,754.89,445.39"/>
<path d="M578.59,522.18,559.07,408.80"/>
<path d="M294.92,56.85,260.37,106.56"/>
<path d="M294.92,56.85,329.89,86.44"/>
<path d="M738.88,338.32,754.89,445.39"/>
<path d="M738.88,338.32,907.65,261.75"/>
<path d="M738.88,338.32,669.23,320.83"/>
<path d="M903.62,195.00,907.65,261.75"/>
<path d="M903.62,195.00,884.23,168.25"/>
<path d="M903.62,195.00,861.00,191.70"/>
<path d="M38.67,75.73,95.96,115.38"/>
<path d="M38.67,75.73,4.32,129.47"/>
<path d="M690.27,621.09,671.65,695.66"/>
<path d="M754.89,445.39,598.42,394.84"/>
<path d="M63.50,473.58,146.14,397.85"/>
<path d="M260.37,106.56,329.89,86.44"/>
<path d="M671.65,695.66,654.25,745.97"/>
<path d="M146.14,397.85,222.12,427.36"/>
<path d="M562.28,745.01,517.76,739.38"/>
<path d="M562.28,745.01,654.25,745.97"/>
<path d="M95.96,115.38,4.32,129.47"/>
<path d="M95.96,115.38,100.06,225.16"/>
<path d="M329.89,86.44,412.26,163.59"/>
<path d="M517.76,739.38,430.82,602.18"/>
<path d="M517.76,739.38,456.82,765.20"/>
<path d="M4.32,129.47,100.06,225.16"/>
<path d="M125.42,797.11,75.71,766.18"/>
<path d="M125.42,797.11,197.04,852.70"/>
<path d="M125.42,797.11,108.69,851.34"/>
<path d="M59.83,868.85,75.71,766.18"/>
<path d="M59.83,868.85,113.14,890.10"/>
<path d="M59.83,868.85,108.69,851.34"/>
<path d="M472.28,12.04,552.33,36.41"/>
<path d="M366.63,843.99,426.79,845.01"/>
<path d="M559.07,408.80,598.42,394.84"/>
<path d="M257.26,778.47,197.04,852.70"/>
<path d="M907.65,261.75,950.97,355.24"/>
<path d="M543.73,247.04,596.78,356.91"/>
<path d="M543.73,247.04,488.57,258.56"/>
<path d="M543.73,247.04,669.23,320.83"/>
<path d="M543.73,247.04,557.64,207.71"/>
<path d="M165.49,915.56,113.14,890.10"/>
<path d="M165.49,915.56,182.47,875.70"/>
<path d="M665.54,872.06,741.21,975.94"/>
<path d="M596.78,356.91,669.23,320.83"/>
<path d="M596.78,356.91,598.42,394.84"/>
<path d="M488.57,258.56,412.26,163.59"/>
<path d="M727.37,25.21,648.81,7.82"/>
<path d="M727.37,25.21,821.73,99.85"/>
<path d="M884.23,168.25,861.00,191.70"/>
<path d="M197.04,852.70,182.47,875.70"/>
<path d="M994.71,965.16,980.10,874.03"/>
<path d="M162.31,620.04,75.35,590.47"/>
<path d="M426.79,845.01,522.21,964.30"/>
<path d="M426.79,845.01,442.27,823.57"/>
<path d="M648.81,7.82,552.33,36.41"/>
<path d="M557.64,207.71,524.61,133.96"/>
<path d="M430.82,602.18,456.82,765.20"/>
<path d="M524.61,133.96,552.33,36.41"/>
<path d="M524.61,133.96,412.26,163.59"/>
<path d="M113.14,890.10,108.69,851.34"/>
<path d="M113.14,890.10,182.47,875.70"/>
<path d="M456.82,765.20,442.27,823.57"/>
<path d="M108.69,851.34,182.47,875.70"/>
<path d="M861.00,191.70,821.04,172.33"/>
<path d="M821.73,99.85,821.04,172.33"/>
<path d="M953.79,711.44,980.10,874.03"/>
<circle cx="13.12" cy="886.89" r="10"/>
<text x="13.12" y="891.89">R0</text>
<circle cx="773.33" cy="609.02" r="10"/>
<text x="773.33" y="614.02">R1</text>
<circle cx="208.97" cy="969.84" r="10"/>
<text x="208.97" y="974.84">R2</text>
<circle cx="378.56" cy="935.86" r="10"/>
<text x="378.56" y="940.86">R3</text>
<circle cx="904.19" cy="702.70" r="10"/>
<text x="904.19" y="707.70">R4</text>
<circle cx="399.75" cy="561.17" r="10"/>
<text x="399.75" y="566.17">R5</text>
<circle cx="558.45" cy="900.69" r="10"/>
<text x="558.45" y="905.69">R6</text>
<circle cx="370.95" cy="220.47" r="10"/>
<text x="370.95" y="225.47">R7</text>
<circle cx="942.26" cy="117.65" r="10"/>
<text x="942.26" y="122.65">R8</text>
<circle cx="488.04" cy="301.88" r="10"/>
<text x="488.04" y="306.88">R9</text>
<circle cx="72.04" cy="965.99" r="10"/>
<text x="72.04" y="970.99">R10</text>
<circle cx="215.28" cy="568.29" r="10"/>
<text x="215.28" y="573.29">R11</text>
<circle cx="830.10" cy="687.18" r="10"/>
<text x="830.10" y="692.18">R12</text>
<circle cx="347.81" cy="775.42" r="10"/>
<text x="347.81" y="780.42">R13</text>
<circle cx="896.58" cy="132.60" r="10"/>
<text x="896.58" y="137.60">R14</text>
<circle cx="554.62" cy="686.38" r="10"/>
<text x="554.62" y="691.38">R15</text>
<circle cx="605.21" cy="598.08" r="10"/>
<text x="605.21" y="603.08">R16</text>
<circle cx="482.59" cy="490.49" r="10"/>
<text x="482.59" y="495.49">R17</text>
<circle cx="15.45" cy="550.79" r="10"/>
<text x="15.45" y="555.79">R18</text>
<circle cx="115.03" cy="86.84" r="10"/>
<text x="115.03" y="91.84">R19</text>
<circle cx="141.07" cy="688.22" r="10"/>
<text x="141.07" y="693.22">R20</text>
<circle cx="725.76" cy="252.38" r="10"/>
<text x="725.76" y="257.38">R21</text>
<circle cx="828.99" cy="977.89" r="10"/>
<text x="828.99" y="982.89">R22</text>
<circle cx="628.32" cy="870.84" r="10"/>
<text x="628.32" y="875.84">R23</text>
<circle cx="53.63" cy="652.08" r="10"/>
<text x="53.63" y="657.08">R24</text>
<circle cx="883.40" cy="40.02" r="10"/>
<text x="883.40" y="45.02">R25</text>
<circle cx="451.09" cy="54.21" r="10"/>
<text x="451.09" y="59.21">R26</text>
<circle cx="24.21" cy="715.18" r="10"/>
<text x="24.21" y="720.18">R27</text>
<circle cx="855.85" cy="409.07" r="10"/>
<text x="855.85" y="414.07">R28</text>
<circle cx="404.93" cy="338.38" r="10"/>
<text x="404.93" y="343.38">R29</text>
<circle cx="874.10" cy="933.05" r="10"/>
<text x="874.10" y="938.05">R30</text>
<circle cx="357.35" cy="496.91" r="10"/>
<text x="357.35" y="501.91">R31</text>
<circle cx="134.89" cy="231.46" r="10"/>
<text x="134.89" y="236.46">R32</text>
<circle cx="5.97" cy="685.75" r="10"/>
<text x="5.97" y="690.75">R33</text>
<circle cx="638.78" cy="816.69" r="10"/>
<text x="638.78" y="821.69">R34</text>
<circle cx="578.59" cy="522.18" r="10"/>
<text x="578.59" y="527.18">R35</text>
<circle cx="294.92" cy="56.85" r="10"/>
<text x="294.92" y="61.85">R36</text>
<circle cx="738.88" cy="338.32" r="10"/>
<text x="738.88" y="343.32">R37</text>
<circle cx="903.62" cy="195.00" r="10"/>
<text x="903.62" y="200.00">R38</text>
<circle cx="38.67" cy="75.73" r="10"/>
<text x="38.67" y="80.73">R39</text>
<circle cx="690.27" cy="621.09" r="10"/>
<text x="690.27" y="626.09">R40</text>
<circle cx="754.89" cy="445.39" r="10"/>
<text x="754.89" y="450.39">R41</text>
<circle cx="63.50" cy="473.58" r="10"/>
<text x="63.50" y="478.58">R42</text>
<circle cx="260.37" cy="106.56" r="10"/>
<text x="260.37" y="111.56">R43</text>
<circle cx="671.65" cy="695.66" r="10"/>
<text x="671.65" y="700.66">R44</text>
<circle cx="906.28" cy="5.30" r="10"/>
<text x="906.28" y="10.30">R45</text>
<circle cx="146.14" cy="397.85" r="10"/>
<text x="146.14" y="402.85">R46</text>
<circle cx="562.28" cy="745.01" r="10"/>
<text x="562.28" y="750.01">R47</text>
<circle cx="95.96" cy="115.38" r="10"/>
<text x="95.96" y="120.38">R48</text>
<circle cx="329.89" cy="86.44" r="10"/>
<text x="329.89" y="91.44">R49</text>
<circle cx="517.76" cy="739.38" r="10"/>
<text x="517.76" y="744.38">R50</text>
<circle cx="4.32" cy="129.47" r="10"/>
<text x="4.32" y="134.47">R51</text>
<circle cx="125.42" cy="797.11" r="10"/>
<text x="125.42" y="802.11">R52</text>
<circle cx="59.83" cy="868.85" r="10"/>
<text x="59.83" y="873.85">R53</text>
<circle cx="472.28" cy="12.04" r="10"/>
<text x="472.28" y="17.04">R54</text>
<circle cx="366.63" cy="843.99" r="10"/>
<text x="366.63" y="848.99">R55</text>
<circle cx="559.07" cy="408.80" r="10"/>
<text x="559.07" y="413.80">R56</text>
<circle cx="257.26" cy="778.47" r="10"/>
<text x="257.26" y="783.47">R57</text>
<circle cx="907.65" cy="261.75" r="10"/>
<text x="907.65" y="266.75">R58</text>
<circle cx="543.73" cy="247.04" r="10"/>
<text x="543.73" y="252.04">R59</text>
<circle cx="165.49" cy="915.56" r="10"/>
<text x="165.49" y="920.56">R60</text>
<circle cx="665.54" cy="872.06" r="10"/>
<text x="665.54" y="877.06">R61</text>
<circle cx="75.71" cy="766.18" r="10"/>
<text x="75.71" y="771.18">R62</text>
<circle cx="596.78" cy="356.91" r="10"/>
<text x="596.78" y="361.91">R63</text>
<circle cx="488.57" cy="258.56" r="10"/>
<text x="488.57" y="263.56">R64</text>
<circle cx="727.37" cy="25.21" r="10"/>
<text x="727.37" y="30.21">R65</text>
<circle cx="864.31" cy="662.47" r="10"/>
<text x="864.31" y="667.47">R66</text>
<circle cx="884.23" cy="168.25" r="10"/>
<text x="884.23" y="173.25">R67</text>
<circle cx="197.04" cy="852.70" r="10"/>
<text x="197.04" y="857.70">R68</text>
<circle cx="994.71" cy="965.16" r="10"/>
<text x="994.71" y="970.16">R69</text>
<circle cx="162.31" cy="620.04" r="10"/>
<text x="162.31" y="625.04">R70</text>
<circle cx="426.79" cy="845.01" r="10"/>
<text x="426.79" y="850.01">R71</text>
<circle cx="648.81" cy="7.82" r="10"/>
<text x="648.81" y="12.82">R72</text>
<circle cx="950.97" cy="355.24" r="10"/>
<text x="950.97" y="360.24">R73</text>
<circle cx="669.23" cy="320.83" r="10"/>
<text x="669.23" y="325.83">R74</text>
<circle cx="557.64" cy="207.71" r="10"/>
<text x="557.64" y="212.71">R75</text>
<circle cx="430.82" cy="602.18" r="10"/>
<text x="430.82" y="607.18">R76</text>
<circle cx="990.44" cy="133.40" r="10"/>
<text x="990.44" y="138.40">R77</text>
<circle cx="524.61" cy="133.96" r="10"/>
<text x="524.61" y="138.96">R78</text>
<circle cx="435.66" cy="321.48" r="10"/>
<text x="435.66" y="326.48">R79</text>
<circle cx="598.42" cy="394.84" r="10"/>
<text x="598.42" y="399.84">R80</text>
<circle cx="741.21" cy="975.94" r="10"/>
<text x="741.21" y="980.94">R81</text>
<circle cx="100.06" cy="225.16" r="10"/>
<text x="100.06" y="230.16">R82</text>
<circle cx="113.14" cy="890.10" r="10"/>
<text x="113.14" y="895.10">R83</text>
<circle cx="456.82" cy="765.20" r="10"/>
<text x="456.82" y="770.20">R84</text>
<circle cx="108.69" cy="851.34" r="10"/>
<text x="108.69" y="856.34">R85</text>
<circle cx="861.00" cy="191.70" r="10"/>
<text x="861.00" y="196.70">R86</text>
<circle cx="552.33" cy="36.41" r="10"/>
<text x="552.33" y="41.41">R87</text>
<circle cx="821.73" cy="99.85" r="10"/>
<text x="821.73" y="104.85">R88</text>
<circle cx="438.39" cy="483.05" r="10"/>
<text x="438.39" y="488.05">R89</text>
<circle cx="75.35" cy="590.47" r="10"/>
<text x="75.35" y="595.47">R90</text>
<circle cx="522.21" cy="964.30" r="10"/>
<text x="522.21" y="969.30">R91</text>
<circle cx="222.12" cy="427.36" r="10"/>
<text x="222.12" y="432.36">R92</text>
<circle cx="442.27" cy="823.57" r="10"/>
<text x="442.27" y="828.57">R93</text>
<circle cx="412.26" cy="163.59" r="10"/>
<text x="412.26" y="168.59">R94</text>
<circle cx="821.04" cy="172.33" r="10"/>
<text x="821.04" y="177.33">R95</text>
<circle cx="953.79" cy="711.44" r="10"/>
<text x="953.79" y="716.44">R96</text>
<circle cx="182.47" cy="875.70" r="10"/>
<text x="182.47" y="880.70">R97</text>
<circle cx="654.25" cy="745.97" r="10"/>
<text x="654.25" y="750.97">R98</text>
<circle cx="980.10" cy="874.03" r="10"/>
<text x="980.10" y="879.03">R99</text>
</svg>
