<svg width="1073.84" height="1032.80" viewBox="-37.84 -7.79 1073.84 1032.80" xmlns="http://www.w3.org/2000/svg">
<style>path {fill: none; stroke: grey; stroke-width: 6;} circle {fill: lightblue; stroke: none;} text {fill: black; stroke: none; font-size: 16; font-family: sans-serif; text-anchor:middle;}</style>
<path d="M939.52,221.63,991.00,90.06"/>
<path d="M939.52,221.63,854.44,275.10"/>
<path d="M939.52,221.63,857.65,165.92"/>
<path d="M493.68,375.15,463.31,286.26"/>
<path d="M493.68,375.15,375.14,321.33"/>
<path d="M493.68,375.15,522.50,423.76"/>
<path d="M841.36,796.33,756.20,777.52"/>
<path d="M841.36,796.33,876.26,755.99"/>
<path d="M841.36,796.33,884.44,918.72"/>
<path d="M841.36,796.33,807.73,709.08"/>
<path d="M656.35,101.97,577.96,37.21"/>
<path d="M656.35,101.97,724.26,70.80"/>
<path d="M656.35,101.97,725.76,140.01"/>
<path d="M656.35,101.97,653.23,185.65"/>
<path d="M91.35,140.20,128.38,195.56"/>
<path d="M91.35,140.20,48.89,100.92"/>
<path d="M91.35,140.20,203.64,106.15"/>
<path d="M439.13,576.03,442.26,703.33"/>
<path d="M439.13,576.03,371.81,524.14"/>
<path d="M439.13,576.03,381.65,698.99"/>
<path d="M439.13,576.03,512.29,607.52"/>
<path d="M87.55,626.74,128.15,563.91"/>
<path d="M87.55,626.74,38.97,592.57"/>
<path d="M87.55,626.74,62.55,692.02"/>
<path d="M87.55,626.74,172.44,630.03"/>
<path d="M551.68,462.81,538.71,557.40"/>
<path d="M551.68,462.81,522.50,423.76"/>
<path d="M551.68,462.81,677.34,381.50"/>
<path d="M128.15,563.91,38.97,592.57"/>
<path d="M128.15,563.91,310.27,474.54"/>
<path d="M128.15,563.91,240.62,394.02"/>
<path d="M128.15,563.91,172.44,630.03"/>
<path d="M128.15,563.91,43.36,543.91"/>
<path d="M948.71,906.20,910.92,940.85"/>
<path d="M948.71,906.20,959.83,722.11"/>
<path d="M948.71,906.20,961.59,935.99"/>
<path d="M429.37,60.05,577.96,37.21"/>
<path d="M429.37,60.05,468.52,225.36"/>
<path d="M429.37,60.05,377.01,50.38"/>
<path d="M38.97,592.57,43.36,543.91"/>
<path d="M756.20,777.52,677.58,876.81"/>
<path d="M756.20,777.52,807.73,709.08"/>
<path d="M756.20,777.52,681.59,711.00"/>
<path d="M538.71,557.40,631.86,645.96"/>
<path d="M538.71,557.40,673.61,582.69"/>
<path d="M538.71,557.40,512.29,607.52"/>
<path d="M310.27,474.54,371.81,524.14"/>
<path d="M310.27,474.54,253.76,628.14"/>
<path d="M310.27,474.54,240.62,394.02"/>
<path d="M310.27,474.54,375.14,321.33"/>
<path d="M128.38,195.56,160.26,246.76"/>
<path d="M128.38,195.56,203.64,106.15"/>
<path d="M305.76,722.86,264.43,876.05"/>
<path d="M305.76,722.86,215.41,745.43"/>
<path d="M305.76,722.86,381.65,698.99"/>
<path d="M305.76,722.86,253.76,628.14"/>
<path d="M305.76,722.86,364.72,808.58"/>
<path d="M910.92,940.85,856.43,974.50"/>
<path d="M910.92,940.85,961.59,935.99"/>
<path d="M910.92,940.85,884.44,918.72"/>
<path d="M910.92,940.85,916.20,980.01"/>
<path d="M442.26,703.33,381.65,698.99"/>
<path d="M442.26,703.33,418.10,826.15"/>
<path d="M442.26,703.33,516.27,766.85"/>
<path d="M442.26,703.33,514.72,694.41"/>
<path d="M463.31,286.26,555.70,241.55"/>
<path d="M463.31,286.26,468.52,225.36"/>
<path d="M463.31,286.26,375.14,321.33"/>
<path d="M463.31,286.26,380.12,273.53"/>
<path d="M62.55,692.02,124.36,749.97"/>
<path d="M975.69,441.45,919.01,418.89"/>
<path d="M991.00,90.06,886.08,108.52"/>
<path d="M659.56,259.99,630.63,210.62"/>
<path d="M659.56,259.99,764.59,294.48"/>
<path d="M659.56,259.99,594.57,251.90"/>
<path d="M659.56,259.99,677.34,381.50"/>
<path d="M68.78,386.43,7.16,533.21"/>
<path d="M68.78,386.43,43.36,543.91"/>
<path d="M68.78,386.43,147.99,346.99"/>
<path d="M840.03,382.92,854.44,275.10"/>
<path d="M840.03,382.92,895.16,373.60"/>
<path d="M840.03,382.92,786.57,309.15"/>
<path d="M840.03,382.92,855.96,428.77"/>
<path d="M541.16,743.08,677.58,876.81"/>
<path d="M541.16,743.08,653.40,669.19"/>
<path d="M541.16,743.08,631.86,645.96"/>
<path d="M541.16,743.08,516.27,766.85"/>
<path d="M541.16,743.08,514.72,694.41"/>
<path d="M354.90,902.96,264.43,876.05"/>
<path d="M354.90,902.96,331.17,953.35"/>
<path d="M354.90,902.96,418.10,826.15"/>
<path d="M354.90,902.96,461.96,974.13"/>
<path d="M354.90,902.96,364.72,808.58"/>
<path d="M354.90,902.96,457.96,868.09"/>
<path d="M368.58,78.23,468.52,225.36"/>
<path d="M368.58,78.23,377.01,50.38"/>
<path d="M368.58,78.23,307.33,66.46"/>
<path d="M368.58,78.23,287.90,274.26"/>
<path d="M368.58,78.23,380.12,273.53"/>
<path d="M371.81,524.14,253.76,628.14"/>
<path d="M371.81,524.14,522.50,423.76"/>
<path d="M264.43,876.05,215.41,745.43"/>
<path d="M264.43,876.05,331.17,953.35"/>
<path d="M264.43,876.05,364.72,808.58"/>
<path d="M577.96,37.21,468.52,225.36"/>
<path d="M555.70,241.55,468.52,225.36"/>
<path d="M555.70,241.55,594.57,251.90"/>
<path d="M468.52,225.36,380.12,273.53"/>
<path d="M724.26,70.80,725.76,140.01"/>
<path d="M724.26,70.80,886.08,108.52"/>
<path d="M677.58,876.81,820.72,979.86"/>
<path d="M677.58,876.81,480.10,830.14"/>
<path d="M677.58,876.81,627.37,977.91"/>
<path d="M215.41,745.43,175.90,746.84"/>
<path d="M215.41,745.43,253.76,628.14"/>
<path d="M215.41,745.43,172.44,630.03"/>
<path d="M725.76,140.01,653.23,185.65"/>
<path d="M725.76,140.01,764.59,294.48"/>
<path d="M725.76,140.01,857.65,165.92"/>
<path d="M244.27,259.56,240.62,394.02"/>
<path d="M244.27,259.56,287.90,274.26"/>
<path d="M244.27,259.56,228.51,99.86"/>
<path d="M244.27,259.56,195.03,270.59"/>
<path d="M244.27,259.56,203.64,106.15"/>
<path d="M899.81,616.34,866.36,535.89"/>
<path d="M899.81,616.34,945.46,689.71"/>
<path d="M899.81,616.34,794.33,569.39"/>
<path d="M899.81,616.34,809.28,671.97"/>
<path d="M331.17,953.35,461.96,974.13"/>
<path d="M175.90,746.84,172.44,630.03"/>
<path d="M175.90,746.84,124.36,749.97"/>
<path d="M856.43,974.50,820.72,979.86"/>
<path d="M856.43,974.50,884.44,918.72"/>
<path d="M856.43,974.50,916.20,980.01"/>
<path d="M959.83,722.11,876.26,755.99"/>
<path d="M959.83,722.11,945.46,689.71"/>
<path d="M727.52,558.94,673.61,582.69"/>
<path d="M727.52,558.94,794.33,569.39"/>
<path d="M727.52,558.94,677.34,381.50"/>
<path d="M886.08,108.52,857.65,165.92"/>
<path d="M695.61,683.29,653.40,669.19"/>
<path d="M695.61,683.29,809.28,671.97"/>
<path d="M695.61,683.29,807.73,709.08"/>
<path d="M695.61,683.29,681.59,711.00"/>
<path d="M866.36,535.89,794.33,569.39"/>
<path d="M866.36,535.89,855.96,428.77"/>
<path d="M630.63,210.62,653.23,185.65"/>
<path d="M630.63,210.62,594.57,251.90"/>
<path d="M381.65,698.99,364.72,808.58"/>
<path d="M253.76,628.14,172.44,630.03"/>
<path d="M653.40,669.19,631.86,645.96"/>
<path d="M653.40,669.19,681.59,711.00"/>
<path d="M307.33,66.46,228.51,99.86"/>
<path d="M631.86,645.96,673.61,582.69"/>
<path d="M631.86,645.96,512.29,607.52"/>
<path d="M631.86,645.96,514.72,694.41"/>
<path d="M240.62,394.02,287.90,274.26"/>
<path d="M240.62,394.02,375.14,321.33"/>
<path d="M240.62,394.02,195.03,270.59"/>
<path d="M240.62,394.02,147.99,346.99"/>
<path d="M876.26,755.99,945.46,689.71"/>
<path d="M876.26,755.99,807.73,709.08"/>
<path d="M418.10,826.15,480.10,830.14"/>
<path d="M418.10,826.15,364.72,808.58"/>
<path d="M418.10,826.15,457.96,868.09"/>
<path d="M854.44,275.10,857.65,165.92"/>
<path d="M854.44,275.10,895.16,373.60"/>
<path d="M854.44,275.10,786.57,309.15"/>
<path d="M287.90,274.26,375.14,321.33"/>
<path d="M287.90,274.26,380.12,273.53"/>
<path d="M228.51,99.86,203.64,106.15"/>
<path d="M7.16,533.21,43.36,543.91"/>
<path d="M764.59,294.48,786.57,309.15"/>
<path d="M764.59,294.48,677.34,381.50"/>
<path d="M820.72,979.86,627.37,977.91"/>
<path d="M160.26,246.76,195.03,270.59"/>
<path d="M961.59,935.99,916.20,980.01"/>
<path d="M516.27,766.85,480.10,830.14"/>
<path d="M375.14,321.33,380.12,273.53"/>
<path d="M512.29,607.52,514.72,694.41"/>
<path d="M895.16,373.60,855.96,428.77"/>
<path d="M895.16,373.60,919.01,418.89"/>
<path d="M794.33,569.39,809.28,671.97"/>
<path d="M195.03,270.59,147.99,346.99"/>
<path d="M809.28,671.97,807.73,709.08"/>
<path d="M461.96,974.13,457.96,868.09"/>
<path d="M461.96,974.13,627.37,977.91"/>
<path d="M855.96,428.77,919.01,418.89"/>
<path d="M480.10,830.14,457.96,868.09"/>
<circle cx="939.52" cy="221.63" r="10"/>
<text x="939.52" y="226.63">R0</text>
<circle cx="493.68" cy="375.15" r="10"/>
<text x="493.68" y="380.15">R1</text>
<circle cx="841.36" cy="796.33" r="10"/>
<text x="841.36" y="801.33">R2</text>
<circle cx="656.35" cy="101.97" r="10"/>
<text x="656.35" y="106.97">R3</text>
<circle cx="91.35" cy="140.20" r="10"/>
<text x="91.35" y="145.20">R4</text>
<circle cx="439.13" cy="576.03" r="10"/>
<text x="439.13" y="581.03">R5</text>
<circle cx="87.55" cy="626.74" r="10"/>
<text x="87.55" y="631.74">R6</text>
<circle cx="551.68" cy="462.81" r="10"/>
<text x="551.68" y="467.81">R7</text>
<circle cx="128.15" cy="563.91" r="10"/>
<text x="128.15" y="568.91">R8</text>
<circle cx="948.71" cy="906.20" r="10"/>
<text x="948.71" y="911.20">R9</text>
<circle cx="429.37" cy="60.05" r="10"/>
<text x="429.37" y="65.05">R10</text>
<circle cx="38.97" cy="592.57" r="10"/>
<text x="38.97" y="597.57">R11</text>
<circle cx="756.20" cy="777.52" r="10"/>
<text x="756.20" y="782.52">R12</text>
<circle cx="538.71" cy="557.40" r="10"/>
<text x="538.71" y="562.40">R13</text>
<circle cx="310.27" cy="474.54" r="10"/>
<text x="310.27" y="479.54">R14</text>
<circle cx="128.38" cy="195.56" r="10"/>
<text x="128.38" y="200.56">R15</text>
<circle cx="305.76" cy="722.86" r="10"/>
<text x="305.76" y="727.86">R16</text>
<circle cx="910.92" cy="940.85" r="10"/>
<text x="910.92" y="945.85">R17</text>
<circle cx="442.26" cy="703.33" r="10"/>
<text x="442.26" y="708.33">R18</text>
<circle cx="463.31" cy="286.26" r="10"/>
<text x="463.31" y="291.26">R19</text>
<circle cx="62.55" cy="692.02" r="10"/>
<text x="62.55" y="697.02">R20</text>
<circle cx="975.69" cy="441.45" r="10"/>
<text x="975.69" y="446.45">R21</text>
<circle cx="991.00" cy="90.06" r="10"/>
<text x="991.00" y="95.06">R22</text>
<circle cx="659.56" cy="259.99" r="10"/>
<text x="659.56" y="264.99">R23</text>
<circle cx="68.78" cy="386.43" r="10"/>
<text x="68.78" y="391.43">R24</text>
<circle cx="840.03" cy="382.92" r="10"/>
<text x="840.03" y="387.92">R25</text>
<circle cx="541.16" cy="743.08" r="10"/>
<text x="541.16" y="748.08">R26</text>
<circle cx="354.90" cy="902.96" r="10"/>
<text x="354.90" y="907.96">R27</text>
<circle cx="368.58" cy="78.23" r="10"/>
<text x="368.58" y="83.23">R28</text>
<circle cx="371.81" cy="524.14" r="10"/>
<text x="371.81" y="529.14">R29</text>
<circle cx="264.43" cy="876.05" r="10"/>
<text x="264.43" y="881.05">R30</text>
<circle cx="577.96" cy="37.21" r="10"/>
<text x="577.96" y="42.21">R31</text>
<circle cx="555.70" cy="241.55" r="10"/>
<text x="555.70" y="246.55">R32</text>
<circle cx="468.52" cy="225.36" r="10"/>
<text x="468.52" y="230.36">R33</text>
<circle cx="724.26" cy="70.80" r="10"/>
<text x="724.26" y="75.80">R34</text>
<circle cx="48.89" cy="100.92" r="10"/>
<text x="48.89" y="105.92">R35</text>
<circle cx="677.58" cy="876.81" r="10"/>
<text x="677.58" y="881.81">R36</text>
<circle cx="215.41" cy="745.43" r="10"/>
<text x="215.41" y="750.43">R37</text>
<circle cx="725.76" cy="140.01" r="10"/>
<text x="725.76" y="145.01">R38</text>
<circle cx="244.27" cy="259.56" r="10"/>
<text x="244.27" y="264.56">R39</text>
<circle cx="377.01" cy="50.38" r="10"/>
<text x="377.01" y="55.38">R40</text>
<circle cx="899.81" cy="616.34" r="10"/>
<text x="899.81" y="621.34">R41</text>
<circle cx="331.17" cy="953.35" r="10"/>
<text x="331.17" y="958.35">R42</text>
<circle cx="175.90" cy="746.84" r="10"/>
<text x="175.90" y="751.84">R43</text>
<circle cx="856.43" cy="974.50" r="10"/>
<text x="856.43" y="979.50">R44</text>
<circle cx="959.83" cy="722.11" r="10"/>
<text x="959.83" y="727.11">R45</text>
<circle cx="727.52" cy="558.94" r="10"/>
<text x="727.52" y="563.94">R46</text>
<circle cx="886.08" cy="108.52" r="10"/>
<text x="886.08" y="113.52">R47</text>
<circle cx="695.61" cy="683.29" r="10"/>
<text x="695.61" y="688.29">R48</text>
<circle cx="866.36" cy="535.89" r="10"/>
<text x="866.36" y="540.89">R49</text>
<circle cx="630.63" cy="210.62" r="10"/>
<text x="630.63" y="215.62">R50</text>
<circle cx="381.65" cy="698.99" r="10"/>
<text x="381.65" y="703.99">R51</text>
<circle cx="253.76" cy="628.14" r="10"/>
<text x="253.76" y="633.14">R52</text>
<circle cx="653.23" cy="185.65" r="10"/>
<text x="653.23" y="190.65">R53</text>
<circle cx="653.40" cy="669.19" r="10"/>
<text x="653.40" y="674.19">R54</text>
<circle cx="307.33" cy="66.46" r="10"/>
<text x="307.33" y="71.46">R55</text>
<circle cx="631.86" cy="645.96" r="10"/>
<text x="631.86" y="650.96">R56</text>
<circle cx="240.62" cy="394.02" r="10"/>
<text x="240.62" y="399.02">R57</text>
<circle cx="876.26" cy="755.99" r="10"/>
<text x="876.26" y="760.99">R58</text>
<circle cx="418.10" cy="826.15" r="10"/>
<text x="418.10" y="831.15">R59</text>
<circle cx="673.61" cy="582.69" r="10"/>
<text x="673.61" y="587.69">R60</text>
<circle cx="854.44" cy="275.10" r="10"/>
<text x="854.44" y="280.10">R61</text>
<circle cx="287.90" cy="274.26" r="10"/>
<text x="287.90" y="279.26">R62</text>
<circle cx="228.51" cy="99.86" r="10"/>
<text x="228.51" y="104.86">R63</text>
<circle cx="945.46" cy="689.71" r="10"/>
<text x="945.46" y="694.71">R64</text>
<circle cx="7.16" cy="533.21" r="10"/>
<text x="7.16" y="538.21">R65</text>
<circle cx="764.59" cy="294.48" r="10"/>
<text x="764.59" y="299.48">R66</text>
<circle cx="820.72" cy="979.86" r="10"/>
<text x="820.72" y="984.86">R67</text>
<circle cx="160.26" cy="246.76" r="10"/>
<text x="160.26" y="251.76">R68</text>
<circle cx="961.59" cy="935.99" r="10"/>
<text x="961.59" y="940.99">R69</text>
<circle cx="516.27" cy="766.85" r="10"/>
<text x="516.27" y="771.85">R70</text>
<circle cx="172.44" cy="630.03" r="10"/>
<text x="172.44" y="635.03">R71</text>
<circle cx="375.14" cy="321.33" r="10"/>
<text x="375.14" y="326.33">R72</text>
<circle cx="512.29" cy="607.52" r="10"/>
<text x="512.29" y="612.52">R73</text>
<circle cx="857.65" cy="165.92" r="10"/>
<text x="857.65" y="170.92">R74</text>
<circle cx="522.50" cy="423.76" r="10"/>
<text x="522.50" y="428.76">R75</text>
<circle cx="514.72" cy="694.41" r="10"/>
<text x="514.72" y="699.41">R76</text>
<circle cx="895.16" cy="373.60" r="10"/>
<text x="895.16" y="378.60">R77</text>
<circle cx="380.12" cy="273.53" r="10"/>
<text x="380.12" y="278.53">R78</text>
<circle cx="794.33" cy="569.39" r="10"/>
<text x="794.33" y="574.39">R79</text>
<circle cx="43.36" cy="543.91" r="10"/>
<text x="43.36" y="548.91">R80</text>
<circle cx="884.44" cy="918.72" r="10"/>
<text x="884.44" y="923.72">R81</text>
<circle cx="594.57" cy="251.90" r="10"/>
<text x="594.57" y="256.90">R82</text>
<circle cx="195.03" cy="270.59" r="10"/>
<text x="195.03" y="275.59">R83</text>
<circle cx="809.28" cy="671.97" r="10"/>
<text x="809.28" y="676.97">R84</text>
<circle cx="461.96" cy="974.13" r="10"/>
<text x="461.96" y="979.13">R85</text>
<circle cx="203.64" cy="106.15" r="10"/>
<text x="203.64" y="111.15">R86</text>
<circle cx="916.20" cy="980.01" r="10"/>
<text x="916.20" y="985.01">R87</text>
<circle cx="786.57" cy="309.15" r="10"/>
<text x="786.57" y="314.15">R88</text>
<circle cx="855.96" cy="428.77" r="10"/>
<text x="855.96" y="433.77">R89</text>
<circle cx="480.10" cy="830.14" r="10"/>
<text x="480.10" y="835.14">R90</text>
<circle cx="124.36" cy="749.97" r="10"/>
<text x="124.36" y="754.97">R91</text>
<circle cx="364.72" cy="808.58" r="10"/>
<text x="364.72" y="813.58">R92</text>
<circle cx="677.34" cy="381.50" r="10"/>
<text x="677.34" y="386.50">R93</text>
<circle cx="807.73" cy="709.08" r="10"/>
<text x="807.73" y="714.08">R94</text>
<circle cx="147.99" cy="346.99" r="10"/>
<text x="147.99" y="351.99">R95</text>
<circle cx="457.96" cy="868.09" r="10"/>
<text x="457.96" y="873.09">R96</text>
<circle cx="627.37" cy="977.91" r="10"/>
<text x="627.37" y="982.91">R97</text>
<circle cx="681.59" cy="711.00" r="10"/>
<text x="681.59" y="716.00">R98</text>
<circle cx="919.01" cy="418.89" r="10"/>
<text x="919.01" y="423.89">R99</text>
</svg>
