<svg width="1083.95" height="1053.02" viewBox="-41.82 -32.33 1083.95 1053.02" xmlns="http://www.w3.org/2000/svg">
<style>path {fill: none; stroke: grey; stroke-width: 6;} circle {fill: lightblue; stroke: none;} text {fill: black; stroke: none; font-size: 16; font-family: sans-serif; text-anchor:middle;}</style>
<path d="M14.59,818.88,65.06,819.64"/>
<path d="M14.59,818.88,58.22,876.10"/>
<path d="M97.61,375.84,141.27,339.20"/>
<path d="M97.61,375.84,214.06,522.85"/>
<path d="M97.61,375.84,61.67,316.52"/>
<path d="M601.78,567.27,675.46,611.36"/>
<path d="M601.78,567.27,600.15,636.26"/>
<path d="M601.78,567.27,435.17,581.32"/>
<path d="M601.78,567.27,599.87,532.36"/>
<path d="M789.62,482.34,752.13,484.79"/>
<path d="M789.62,482.34,762.97,459.93"/>
<path d="M789.62,482.34,910.75,570.44"/>
<path d="M789.62,482.34,795.33,432.15"/>
<path d="M279.67,20.99,350.26,54.31"/>
<path d="M279.67,20.99,134.52,112.05"/>
<path d="M728.29,211.46,702.31,217.24"/>
<path d="M728.29,211.46,751.38,296.02"/>
<path d="M728.29,211.46,852.47,166.32"/>
<path d="M728.29,211.46,731.19,153.62"/>
<path d="M394.20,933.60,406.52,964.14"/>
<path d="M394.20,933.60,378.68,912.20"/>
<path d="M394.20,933.60,592.75,860.67"/>
<path d="M548.69,284.58,581.34,186.69"/>
<path d="M548.69,284.58,487.01,282.68"/>
<path d="M548.69,284.58,568.34,322.73"/>
<path d="M581.34,186.69,635.45,173.45"/>
<path d="M581.34,186.69,488.20,224.16"/>
<path d="M581.34,186.69,464.15,79.08"/>
<path d="M702.31,217.24,635.45,173.45"/>
<path d="M702.31,217.24,608.13,317.64"/>
<path d="M971.17,119.97,930.65,200.98"/>
<path d="M430.33,201.65,446.96,181.96"/>
<path d="M430.33,201.65,372.34,276.54"/>
<path d="M430.33,201.65,488.20,224.16"/>
<path d="M430.33,201.65,344.25,141.40"/>
<path d="M675.46,611.36,600.15,636.26"/>
<path d="M675.46,611.36,679.11,658.36"/>
<path d="M675.46,611.36,759.68,620.23"/>
<path d="M675.46,611.36,722.85,566.56"/>
<path d="M985.43,356.21,963.72,470.63"/>
<path d="M985.43,356.21,930.65,200.98"/>
<path d="M985.43,356.21,907.69,434.46"/>
<path d="M985.43,356.21,863.61,307.06"/>
<path d="M486.63,389.22,622.62,456.23"/>
<path d="M486.63,389.22,435.17,581.32"/>
<path d="M486.63,389.22,538.33,341.31"/>
<path d="M486.63,389.22,419.11,369.87"/>
<path d="M406.52,964.14,592.75,860.67"/>
<path d="M702.38,735.33,671.23,737.83"/>
<path d="M702.38,735.33,898.06,848.00"/>
<path d="M702.38,735.33,679.11,658.36"/>
<path d="M702.38,735.33,706.53,918.02"/>
<path d="M702.38,735.33,776.90,658.89"/>
<path d="M898.84,889.25,997.13,889.69"/>
<path d="M898.84,889.25,898.06,848.00"/>
<path d="M898.84,889.25,827.66,936.35"/>
<path d="M276.17,838.03,378.68,912.20"/>
<path d="M276.17,838.03,194.58,940.74"/>
<path d="M276.17,838.03,449.72,785.59"/>
<path d="M276.17,838.03,259.77,782.82"/>
<path d="M276.17,838.03,208.14,800.08"/>
<path d="M350.26,54.31,343.02,90.44"/>
<path d="M350.26,54.31,404.85,38.04"/>
<path d="M751.38,296.02,798.83,340.85"/>
<path d="M751.38,296.02,608.13,317.64"/>
<path d="M600.15,636.26,435.17,581.32"/>
<path d="M600.15,636.26,679.11,658.36"/>
<path d="M600.15,636.26,449.72,785.59"/>
<path d="M94.11,288.59,141.27,339.20"/>
<path d="M94.11,288.59,75.39,253.30"/>
<path d="M94.11,288.59,61.67,316.52"/>
<path d="M7.30,126.40,45.40,189.13"/>
<path d="M7.30,126.40,33.24,92.27"/>
<path d="M671.23,737.83,679.11,658.36"/>
<path d="M671.23,737.83,592.75,860.67"/>
<path d="M671.23,737.83,706.53,918.02"/>
<path d="M635.45,173.45,731.19,153.62"/>
<path d="M141.27,339.20,303.03,406.03"/>
<path d="M141.27,339.20,252.27,255.89"/>
<path d="M991.85,570.88,963.72,470.63"/>
<path d="M991.85,570.88,910.75,570.44"/>
<path d="M345.90,589.98,286.26,607.55"/>
<path d="M345.90,589.98,299.02,462.58"/>
<path d="M345.90,589.98,435.17,581.32"/>
<path d="M345.90,589.98,449.72,785.59"/>
<path d="M345.90,589.98,368.92,444.04"/>
<path d="M828.22,104.97,852.47,166.32"/>
<path d="M828.22,104.97,809.63,12.67"/>
<path d="M828.22,104.97,731.19,153.62"/>
<path d="M963.72,470.63,907.69,434.46"/>
<path d="M963.72,470.63,910.75,570.44"/>
<path d="M286.26,607.55,286.46,704.81"/>
<path d="M286.26,607.55,299.02,462.58"/>
<path d="M286.26,607.55,200.51,674.53"/>
<path d="M286.26,607.55,214.06,522.85"/>
<path d="M798.83,340.85,907.69,434.46"/>
<path d="M798.83,340.85,863.61,307.06"/>
<path d="M798.83,340.85,795.33,432.15"/>
<path d="M608.13,317.64,622.62,456.23"/>
<path d="M608.13,317.64,568.34,322.73"/>
<path d="M75.39,253.30,3.18,299.23"/>
<path d="M75.39,253.30,45.40,189.13"/>
<path d="M882.20,212.77,852.47,166.32"/>
<path d="M882.20,212.77,930.65,200.98"/>
<path d="M882.20,212.77,863.61,307.06"/>
<path d="M898.06,848.00,837.94,647.21"/>
<path d="M852.47,166.32,731.19,153.62"/>
<path d="M730.13,954.50,825.97,961.40"/>
<path d="M730.13,954.50,827.66,936.35"/>
<path d="M730.13,954.50,706.53,918.02"/>
<path d="M146.40,657.93,200.51,674.53"/>
<path d="M146.40,657.93,98.13,645.60"/>
<path d="M146.40,657.93,214.06,522.85"/>
<path d="M146.40,657.93,164.41,749.63"/>
<path d="M487.01,282.68,372.34,276.54"/>
<path d="M487.01,282.68,488.20,224.16"/>
<path d="M487.01,282.68,538.33,341.31"/>
<path d="M487.01,282.68,419.11,369.87"/>
<path d="M286.46,704.81,449.72,785.59"/>
<path d="M286.46,704.81,200.51,674.53"/>
<path d="M286.46,704.81,259.77,782.82"/>
<path d="M3.18,299.23,61.67,316.52"/>
<path d="M622.62,456.23,667.76,488.36"/>
<path d="M622.62,456.23,538.33,341.31"/>
<path d="M622.62,456.23,568.34,322.73"/>
<path d="M622.62,456.23,599.87,532.36"/>
<path d="M59.25,943.22,194.58,940.74"/>
<path d="M59.25,943.22,58.22,876.10"/>
<path d="M752.13,484.79,762.97,459.93"/>
<path d="M752.13,484.79,694.18,472.05"/>
<path d="M752.13,484.79,722.85,566.56"/>
<path d="M299.02,462.58,303.03,406.03"/>
<path d="M299.02,462.58,334.02,429.05"/>
<path d="M299.02,462.58,214.06,522.85"/>
<path d="M378.68,912.20,234.92,975.69"/>
<path d="M378.68,912.20,449.72,785.59"/>
<path d="M194.58,940.74,234.92,975.69"/>
<path d="M194.58,940.74,208.14,800.08"/>
<path d="M194.58,940.74,58.22,876.10"/>
<path d="M435.17,581.32,449.72,785.59"/>
<path d="M435.17,581.32,368.92,444.04"/>
<path d="M679.11,658.36,759.68,620.23"/>
<path d="M679.11,658.36,776.90,658.89"/>
<path d="M303.03,406.03,372.34,276.54"/>
<path d="M303.03,406.03,334.02,429.05"/>
<path d="M303.03,406.03,252.27,255.89"/>
<path d="M825.97,961.40,827.66,936.35"/>
<path d="M45.40,189.13,134.52,112.05"/>
<path d="M449.72,785.59,592.75,860.67"/>
<path d="M449.72,785.59,259.77,782.82"/>
<path d="M592.75,860.67,706.53,918.02"/>
<path d="M200.51,674.53,214.06,522.85"/>
<path d="M200.51,674.53,164.41,749.63"/>
<path d="M762.97,459.93,795.33,432.15"/>
<path d="M837.94,647.21,910.75,570.44"/>
<path d="M837.94,647.21,776.90,658.89"/>
<path d="M446.96,181.96,488.20,224.16"/>
<path d="M446.96,181.96,464.15,79.08"/>
<path d="M372.34,276.54,252.27,255.89"/>
<path d="M372.34,276.54,344.25,141.40"/>
<path d="M372.34,276.54,419.11,369.87"/>
<path d="M694.18,472.05,667.76,488.36"/>
<path d="M694.18,472.05,722.85,566.56"/>
<path d="M759.68,620.23,745.20,579.90"/>
<path d="M759.68,620.23,776.90,658.89"/>
<path d="M334.02,429.05,368.92,444.04"/>
<path d="M907.69,434.46,863.61,307.06"/>
<path d="M907.69,434.46,795.33,432.15"/>
<path d="M368.92,444.04,419.11,369.87"/>
<path d="M259.77,782.82,208.14,800.08"/>
<path d="M252.27,255.89,344.25,141.40"/>
<path d="M252.27,255.89,134.52,112.05"/>
<path d="M745.20,579.90,722.85,566.56"/>
<path d="M343.02,90.44,344.25,141.40"/>
<path d="M667.76,488.36,722.85,566.56"/>
<path d="M667.76,488.36,599.87,532.36"/>
<path d="M344.25,141.40,134.52,112.05"/>
<path d="M208.14,800.08,164.41,749.63"/>
<path d="M33.24,92.27,134.52,112.05"/>
<path d="M538.33,341.31,568.34,322.73"/>
<path d="M65.06,819.64,164.41,749.63"/>
<path d="M65.06,819.64,58.22,876.10"/>
<path d="M404.85,38.04,464.15,79.08"/>
<circle cx="14.59" cy="818.88" r="10"/>
<text x="14.59" y="823.88">R0</text>
<circle cx="97.61" cy="375.84" r="10"/>
<text x="97.61" y="380.84">R1</text>
<circle cx="601.78" cy="567.27" r="10"/>
<text x="601.78" y="572.27">R2</text>
<circle cx="789.62" cy="482.34" r="10"/>
<text x="789.62" y="487.34">R3</text>
<circle cx="279.67" cy="20.99" r="10"/>
<text x="279.67" y="25.99">R4</text>
<circle cx="728.29" cy="211.46" r="10"/>
<text x="728.29" y="216.46">R5</text>
<circle cx="394.20" cy="933.60" r="10"/>
<text x="394.20" y="938.60">R6</text>
<circle cx="548.69" cy="284.58" r="10"/>
<text x="548.69" y="289.58">R7</text>
<circle cx="581.34" cy="186.69" r="10"/>
<text x="581.34" y="191.69">R8</text>
<circle cx="702.31" cy="217.24" r="10"/>
<text x="702.31" y="222.24">R9</text>
<circle cx="971.17" cy="119.97" r="10"/>
<text x="971.17" y="124.97">R10</text>
<circle cx="430.33" cy="201.65" r="10"/>
<text x="430.33" y="206.65">R11</text>
<circle cx="675.46" cy="611.36" r="10"/>
<text x="675.46" y="616.36">R12</text>
<circle cx="985.43" cy="356.21" r="10"/>
<text x="985.43" y="361.21">R13</text>
<circle cx="486.63" cy="389.22" r="10"/>
<text x="486.63" y="394.22">R14</text>
<circle cx="406.52" cy="964.14" r="10"/>
<text x="406.52" y="969.14">R15</text>
<circle cx="702.38" cy="735.33" r="10"/>
<text x="702.38" y="740.33">R16</text>
<circle cx="898.84" cy="889.25" r="10"/>
<text x="898.84" y="894.25">R17</text>
<circle cx="276.17" cy="838.03" r="10"/>
<text x="276.17" y="843.03">R18</text>
<circle cx="350.26" cy="54.31" r="10"/>
<text x="350.26" y="59.31">R19</text>
<circle cx="751.38" cy="296.02" r="10"/>
<text x="751.38" y="301.02">R20</text>
<circle cx="600.15" cy="636.26" r="10"/>
<text x="600.15" y="641.26">R21</text>
<circle cx="94.11" cy="288.59" r="10"/>
<text x="94.11" y="293.59">R22</text>
<circle cx="7.30" cy="126.40" r="10"/>
<text x="7.30" y="131.40">R23</text>
<circle cx="671.23" cy="737.83" r="10"/>
<text x="671.23" y="742.83">R24</text>
<circle cx="635.45" cy="173.45" r="10"/>
<text x="635.45" y="178.45">R25</text>
<circle cx="141.27" cy="339.20" r="10"/>
<text x="141.27" y="344.20">R26</text>
<circle cx="991.85" cy="570.88" r="10"/>
<text x="991.85" y="575.88">R27</text>
<circle cx="345.90" cy="589.98" r="10"/>
<text x="345.90" y="594.98">R28</text>
<circle cx="828.22" cy="104.97" r="10"/>
<text x="828.22" y="109.97">R29</text>
<circle cx="963.72" cy="470.63" r="10"/>
<text x="963.72" y="475.63">R30</text>
<circle cx="286.26" cy="607.55" r="10"/>
<text x="286.26" y="612.55">R31</text>
<circle cx="798.83" cy="340.85" r="10"/>
<text x="798.83" y="345.85">R32</text>
<circle cx="608.13" cy="317.64" r="10"/>
<text x="608.13" y="322.64">R33</text>
<circle cx="997.13" cy="889.69" r="10"/>
<text x="997.13" y="894.69">R34</text>
<circle cx="75.39" cy="253.30" r="10"/>
<text x="75.39" y="258.30">R35</text>
<circle cx="882.20" cy="212.77" r="10"/>
<text x="882.20" y="217.77">R36</text>
<circle cx="898.06" cy="848.00" r="10"/>
<text x="898.06" y="853.00">R37</text>
<circle cx="852.47" cy="166.32" r="10"/>
<text x="852.47" y="171.32">R38</text>
<circle cx="730.13" cy="954.50" r="10"/>
<text x="730.13" y="959.50">R39</text>
<circle cx="146.40" cy="657.93" r="10"/>
<text x="146.40" y="662.93">R40</text>
<circle cx="487.01" cy="282.68" r="10"/>
<text x="487.01" y="287.68">R41</text>
<circle cx="286.46" cy="704.81" r="10"/>
<text x="286.46" y="709.81">R42</text>
<circle cx="3.18" cy="299.23" r="10"/>
<text x="3.18" y="304.23">R43</text>
<circle cx="622.62" cy="456.23" r="10"/>
<text x="622.62" y="461.23">R44</text>
<circle cx="59.25" cy="943.22" r="10"/>
<text x="59.25" y="948.22">R45</text>
<circle cx="752.13" cy="484.79" r="10"/>
<text x="752.13" y="489.79">R46</text>
<circle cx="299.02" cy="462.58" r="10"/>
<text x="299.02" y="467.58">R47</text>
<circle cx="378.68" cy="912.20" r="10"/>
<text x="378.68" y="917.20">R48</text>
<circle cx="194.58" cy="940.74" r="10"/>
<text x="194.58" y="945.74">R49</text>
<circle cx="435.17" cy="581.32" r="10"/>
<text x="435.17" y="586.32">R50</text>
<circle cx="679.11" cy="658.36" r="10"/>
<text x="679.11" y="663.36">R51</text>
<circle cx="234.92" cy="975.69" r="10"/>
<text x="234.92" y="980.69">R52</text>
<circle cx="303.03" cy="406.03" r="10"/>
<text x="303.03" y="411.03">R53</text>
<circle cx="825.97" cy="961.40" r="10"/>
<text x="825.97" y="966.40">R54</text>
<circle cx="45.40" cy="189.13" r="10"/>
<text x="45.40" y="194.13">R55</text>
<circle cx="449.72" cy="785.59" r="10"/>
<text x="449.72" y="790.59">R56</text>
<circle cx="592.75" cy="860.67" r="10"/>
<text x="592.75" y="865.67">R57</text>
<circle cx="200.51" cy="674.53" r="10"/>
<text x="200.51" y="679.53">R58</text>
<circle cx="762.97" cy="459.93" r="10"/>
<text x="762.97" y="464.93">R59</text>
<circle cx="837.94" cy="647.21" r="10"/>
<text x="837.94" y="652.21">R60</text>
<circle cx="446.96" cy="181.96" r="10"/>
<text x="446.96" y="186.96">R61</text>
<circle cx="372.34" cy="276.54" r="10"/>
<text x="372.34" y="281.54">R62</text>
<circle cx="694.18" cy="472.05" r="10"/>
<text x="694.18" y="477.05">R63</text>
<circle cx="827.66" cy="936.35" r="10"/>
<text x="827.66" y="941.35">R64</text>
<circle cx="930.65" cy="200.98" r="10"/>
<text x="930.65" y="205.98">R65</text>
<circle cx="759.68" cy="620.23" r="10"/>
<text x="759.68" y="625.23">R66</text>
<circle cx="334.02" cy="429.05" r="10"/>
<text x="334.02" y="434.05">R67</text>
<circle cx="907.69" cy="434.46" r="10"/>
<text x="907.69" y="439.46">R68</text>
<circle cx="368.92" cy="444.04" r="10"/>
<text x="368.92" y="449.04">R69</text>
<circle cx="259.77" cy="782.82" r="10"/>
<text x="259.77" y="787.82">R70</text>
<circle cx="252.27" cy="255.89" r="10"/>
<text x="252.27" y="260.89">R71</text>
<circle cx="745.20" cy="579.90" r="10"/>
<text x="745.20" y="584.90">R72</text>
<circle cx="98.13" cy="645.60" r="10"/>
<text x="98.13" y="650.60">R73</text>
<circle cx="488.20" cy="224.16" r="10"/>
<text x="488.20" y="229.16">R74</text>
<circle cx="343.02" cy="90.44" r="10"/>
<text x="343.02" y="95.44">R75</text>
<circle cx="214.06" cy="522.85" r="10"/>
<text x="214.06" y="527.85">R76</text>
<circle cx="667.76" cy="488.36" r="10"/>
<text x="667.76" y="493.36">R77</text>
<circle cx="344.25" cy="141.40" r="10"/>
<text x="344.25" y="146.40">R78</text>
<circle cx="208.14" cy="800.08" r="10"/>
<text x="208.14" y="805.08">R79</text>
<circle cx="809.63" cy="12.67" r="10"/>
<text x="809.63" y="17.67">R80</text>
<circle cx="33.24" cy="92.27" r="10"/>
<text x="33.24" y="97.27">R81</text>
<circle cx="706.53" cy="918.02" r="10"/>
<text x="706.53" y="923.02">R82</text>
<circle cx="134.52" cy="112.05" r="10"/>
<text x="134.52" y="117.05">R83</text>
<circle cx="722.85" cy="566.56" r="10"/>
<text x="722.85" y="571.56">R84</text>
<circle cx="863.61" cy="307.06" r="10"/>
<text x="863.61" y="312.06">R85</text>
<circle cx="910.75" cy="570.44" r="10"/>
<text x="910.75" y="575.44">R86</text>
<circle cx="61.67" cy="316.52" r="10"/>
<text x="61.67" y="321.52">R87</text>
<circle cx="538.33" cy="341.31" r="10"/>
<text x="538.33" y="346.31">R88</text>
<circle cx="731.19" cy="153.62" r="10"/>
<text x="731.19" y="158.62">R89</text>
<circle cx="419.11" cy="369.87" r="10"/>
<text x="419.11" y="374.87">R90</text>
<circle cx="795.33" cy="432.15" r="10"/>
<text x="795.33" y="437.15">R91</text>
<circle cx="568.34" cy="322.73" r="10"/>
<text x="568.34" y="327.73">R92</text>
<circle cx="65.06" cy="819.64" r="10"/>
<text x="65.06" y="824.64">R93</text>
<circle cx="404.85" cy="38.04" r="10"/>
<text x="404.85" y="43.04">R94</text>
<circle cx="464.15" cy="79.08" r="10"/>
<text x="464.15" y="84.08">R95</text>
<circle cx="599.87" cy="532.36" r="10"/>
<text x="599.87" y="537.36">R96</text>
<circle cx="164.41" cy="749.63" r="10"/>
<text x="164.41" y="754.63">R97</text>
<circle cx="776.90" cy="658.89" r="10"/>
<text x="776.90" y="663.89">R98</text>
<circle cx="58.22" cy="876.10" r="10"/>
<text x="58.22" y="881.10">R99</text>
</svg>
