<svg id="topo" width="1073.57" height="1084.15" viewBox="-31.47 -44.94 1073.57 1084.15" xmlns="http://www.w3.org/2000/svg">
<style>#topo path {fill: none; stroke: grey; stroke-width: 6;} #topo circle {fill: lightblue; stroke: none;} #topo text {fill: black; stroke: none; font-size: 16; font-family: sans-serif; text-anchor:middle;}</style>
<path d="M873.25,1.75,952.47,32.55"/>
<path d="M873.25,1.75,799.09,12.16"/>
<path d="M371.96,994.21,351.97,948.70"/>
<path d="M371.96,994.21,540.50,985.66"/>
<path d="M434.33,475.47,532.36,397.16"/>
<path d="M434.33,475.47,390.38,507.32"/>
<path d="M434.33,475.47,510.79,523.80"/>
<path d="M434.33,475.47,396.94,447.49"/>
<path d="M478.36,885.57,376.83,853.82"/>
<path d="M478.36,885.57,562.21,925.35"/>
<path d="M478.36,885.57,517.92,841.26"/>
<path d="M478.36,885.57,351.97,948.70"/>
<path d="M619.51,978.19,564.98,990.94"/>
<path d="M619.51,978.19,701.45,941.27"/>
<path d="M619.51,978.19,562.21,925.35"/>
<path d="M788.97,604.30,890.07,529.79"/>
<path d="M788.97,604.30,699.50,559.84"/>
<path d="M788.97,604.30,760.58,682.04"/>
<path d="M788.97,604.30,701.31,647.27"/>
<path d="M145.86,807.33,227.80,820.73"/>
<path d="M145.86,807.33,196.98,750.35"/>
<path d="M145.86,807.33,194.77,893.73"/>
<path d="M145.86,807.33,139.20,916.13"/>
<path d="M145.86,807.33,123.59,786.77"/>
<path d="M776.23,44.80,684.68,154.48"/>
<path d="M776.23,44.80,745.85,0.06"/>
<path d="M776.23,44.80,799.09,12.16"/>
<path d="M301.26,877.97,376.83,853.82"/>
<path d="M301.26,877.97,227.80,820.73"/>
<path d="M301.26,877.97,194.77,893.73"/>
<path d="M301.26,877.97,351.97,948.70"/>
<path d="M301.26,877.97,289.94,786.75"/>
<path d="M301.26,877.97,282.35,954.33"/>
<path d="M387.29,308.50,436.63,241.05"/>
<path d="M387.29,308.50,457.86,302.94"/>
<path d="M387.29,308.50,356.84,397.42"/>
<path d="M387.29,308.50,258.71,268.89"/>
<path d="M427.96,106.72,436.63,241.05"/>
<path d="M427.96,106.72,443.83,52.08"/>
<path d="M427.96,106.72,498.60,94.26"/>
<path d="M427.96,106.72,339.15,149.87"/>
<path d="M376.83,853.82,351.97,948.70"/>
<path d="M376.83,853.82,289.94,786.75"/>
<path d="M436.63,241.05,457.86,302.94"/>
<path d="M436.63,241.05,339.15,149.87"/>
<path d="M436.63,241.05,504.04,252.30"/>
<path d="M684.68,154.48,661.57,246.06"/>
<path d="M684.68,154.48,741.54,215.77"/>
<path d="M684.68,154.48,579.55,135.60"/>
<path d="M589.22,375.54,641.34,423.84"/>
<path d="M589.22,375.54,661.57,246.06"/>
<path d="M589.22,375.54,532.36,397.16"/>
<path d="M589.22,375.54,605.90,232.53"/>
<path d="M240.26,314.67,87.88,413.51"/>
<path d="M240.26,314.67,271.92,450.34"/>
<path d="M240.26,314.67,356.84,397.42"/>
<path d="M240.26,314.67,258.71,268.89"/>
<path d="M240.26,314.67,139.25,264.45"/>
<path d="M564.98,990.94,562.21,925.35"/>
<path d="M564.98,990.94,540.50,985.66"/>
<path d="M641.34,423.84,632.88,486.13"/>
<path d="M641.34,423.84,682.26,381.96"/>
<path d="M632.88,486.13,699.50,559.84"/>
<path d="M632.88,486.13,510.79,523.80"/>
<path d="M183.47,189.99,339.15,149.87"/>
<path d="M183.47,189.99,125.82,204.12"/>
<path d="M183.47,189.99,189.15,10.40"/>
<path d="M183.47,189.99,167.05,228.96"/>
<path d="M21.89,698.56,21.33,858.02"/>
<path d="M21.89,698.56,57.15,659.56"/>
<path d="M21.89,698.56,123.59,786.77"/>
<path d="M209.90,690.69,196.98,750.35"/>
<path d="M209.90,690.69,195.24,665.80"/>
<path d="M209.90,690.69,154.59,698.22"/>
<path d="M209.90,690.69,166.08,723.34"/>
<path d="M841.62,968.93,701.45,941.27"/>
<path d="M841.62,968.93,965.40,900.28"/>
<path d="M841.62,968.93,835.70,865.49"/>
<path d="M701.45,941.27,605.92,855.49"/>
<path d="M701.45,941.27,738.21,762.51"/>
<path d="M701.45,941.27,835.70,865.49"/>
<path d="M87.88,413.51,271.92,450.34"/>
<path d="M87.88,413.51,46.17,387.14"/>
<path d="M87.88,413.51,70.56,433.89"/>
<path d="M52.77,229.74,13.53,184.27"/>
<path d="M52.77,229.74,87.15,276.35"/>
<path d="M52.77,229.74,113.59,246.61"/>
<path d="M227.80,820.73,196.98,750.35"/>
<path d="M227.80,820.73,194.77,893.73"/>
<path d="M227.80,820.73,289.94,786.75"/>
<path d="M196.98,750.35,289.94,786.75"/>
<path d="M196.98,750.35,166.08,723.34"/>
<path d="M196.98,750.35,123.59,786.77"/>
<path d="M605.92,855.49,562.21,925.35"/>
<path d="M605.92,855.49,517.92,841.26"/>
<path d="M605.92,855.49,738.21,762.51"/>
<path d="M443.83,52.08,473.36,47.86"/>
<path d="M518.45,778.25,517.92,841.26"/>
<path d="M518.45,778.25,498.28,644.15"/>
<path d="M562.21,925.35,517.92,841.26"/>
<path d="M562.21,925.35,540.50,985.66"/>
<path d="M948.83,866.18,997.10,804.27"/>
<path d="M948.83,866.18,965.40,900.28"/>
<path d="M948.83,866.18,920.03,782.70"/>
<path d="M948.83,866.18,835.70,865.49"/>
<path d="M890.07,529.79,882.17,502.66"/>
<path d="M661.57,246.06,682.26,381.96"/>
<path d="M661.57,246.06,741.54,215.77"/>
<path d="M661.57,246.06,605.90,232.53"/>
<path d="M542.32,631.44,699.50,559.84"/>
<path d="M542.32,631.44,498.28,644.15"/>
<path d="M542.32,631.44,701.31,647.27"/>
<path d="M542.32,631.44,510.79,523.80"/>
<path d="M861.02,442.13,699.50,559.84"/>
<path d="M861.02,442.13,882.17,502.66"/>
<path d="M861.02,442.13,837.16,376.51"/>
<path d="M194.77,893.73,139.20,916.13"/>
<path d="M194.77,893.73,282.35,954.33"/>
<path d="M682.26,381.96,837.16,376.51"/>
<path d="M457.86,302.94,483.52,308.31"/>
<path d="M498.60,94.26,473.36,47.86"/>
<path d="M498.60,94.26,590.35,67.55"/>
<path d="M498.60,94.26,579.55,135.60"/>
<path d="M498.60,94.26,504.04,252.30"/>
<path d="M218.25,637.63,255.66,509.75"/>
<path d="M218.25,637.63,195.24,665.80"/>
<path d="M218.25,637.63,108.48,526.86"/>
<path d="M483.52,308.31,532.36,397.16"/>
<path d="M483.52,308.31,504.04,252.30"/>
<path d="M699.50,559.84,701.31,647.27"/>
<path d="M351.97,948.70,282.35,954.33"/>
<path d="M46.30,554.36,108.48,526.86"/>
<path d="M46.30,554.36,87.44,619.17"/>
<path d="M255.66,509.75,271.92,450.34"/>
<path d="M255.66,509.75,108.48,526.86"/>
<path d="M255.66,509.75,390.38,507.32"/>
<path d="M195.24,665.80,154.59,698.22"/>
<path d="M289.94,786.75,498.28,644.15"/>
<path d="M590.35,67.55,579.55,135.60"/>
<path d="M590.35,67.55,745.85,0.06"/>
<path d="M532.36,397.16,510.79,523.80"/>
<path d="M154.59,698.22,166.08,723.34"/>
<path d="M154.59,698.22,57.15,659.56"/>
<path d="M154.59,698.22,87.44,619.17"/>
<path d="M339.15,149.87,189.15,10.40"/>
<path d="M339.15,149.87,258.71,268.89"/>
<path d="M21.33,858.02,139.20,916.13"/>
<path d="M21.33,858.02,13.97,903.34"/>
<path d="M21.33,858.02,123.59,786.77"/>
<path d="M741.54,215.77,837.16,376.51"/>
<path d="M125.82,204.12,167.05,228.96"/>
<path d="M125.82,204.12,113.59,246.61"/>
<path d="M271.92,450.34,356.84,397.42"/>
<path d="M271.92,450.34,390.38,507.32"/>
<path d="M579.55,135.60,579.28,215.05"/>
<path d="M356.84,397.42,396.94,447.49"/>
<path d="M745.85,0.06,799.09,12.16"/>
<path d="M738.21,762.51,760.58,682.04"/>
<path d="M738.21,762.51,920.03,782.70"/>
<path d="M738.21,762.51,835.70,865.49"/>
<path d="M760.58,682.04,701.31,647.27"/>
<path d="M760.58,682.04,920.03,782.70"/>
<path d="M498.28,644.15,479.10,609.93"/>
<path d="M997.10,804.27,920.03,782.70"/>
<path d="M504.04,252.30,579.28,215.05"/>
<path d="M139.20,916.13,13.97,903.34"/>
<path d="M46.17,387.14,47.31,325.50"/>
<path d="M46.17,387.14,70.56,433.89"/>
<path d="M167.05,228.96,258.71,268.89"/>
<path d="M167.05,228.96,139.25,264.45"/>
<path d="M166.08,723.34,123.59,786.77"/>
<path d="M920.03,782.70,835.70,865.49"/>
<path d="M57.15,659.56,87.44,619.17"/>
<path d="M47.31,325.50,87.15,276.35"/>
<path d="M605.90,232.53,579.28,215.05"/>
<path d="M87.15,276.35,113.59,246.61"/>
<path d="M113.59,246.61,139.25,264.45"/>
<path d="M108.48,526.86,70.56,433.89"/>
<path d="M108.48,526.86,87.44,619.17"/>
<path d="M479.10,609.93,390.38,507.32"/>
<path d="M479.10,609.93,510.79,523.80"/>
<path d="M390.38,507.32,396.94,447.49"/>
<circle cx="873.25" cy="1.75" r="10"/>
<text x="873.25" y="6.75">R0</text>
<circle cx="371.96" cy="994.21" r="10"/>
<text x="371.96" y="999.21">R1</text>
<circle cx="434.33" cy="475.47" r="10"/>
<text x="434.33" y="480.47">R2</text>
<circle cx="478.36" cy="885.57" r="10"/>
<text x="478.36" y="890.57">R3</text>
<circle cx="619.51" cy="978.19" r="10"/>
<text x="619.51" y="983.19">R4</text>
<circle cx="788.97" cy="604.30" r="10"/>
<text x="788.97" y="609.30">R5</text>
<circle cx="145.86" cy="807.33" r="10"/>
<text x="145.86" y="812.33">R6</text>
<circle cx="776.23" cy="44.80" r="10"/>
<text x="776.23" y="49.80">R7</text>
<circle cx="952.47" cy="32.55" r="10"/>
<text x="952.47" y="37.55">R8</text>
<circle cx="301.26" cy="877.97" r="10"/>
<text x="301.26" y="882.97">R9</text>
<circle cx="387.29" cy="308.50" r="10"/>
<text x="387.29" y="313.50">R10</text>
<circle cx="427.96" cy="106.72" r="10"/>
<text x="427.96" y="111.72">R11</text>
<circle cx="376.83" cy="853.82" r="10"/>
<text x="376.83" y="858.82">R12</text>
<circle cx="436.63" cy="241.05" r="10"/>
<text x="436.63" y="246.05">R13</text>
<circle cx="684.68" cy="154.48" r="10"/>
<text x="684.68" y="159.48">R14</text>
<circle cx="589.22" cy="375.54" r="10"/>
<text x="589.22" y="380.54">R15</text>
<circle cx="240.26" cy="314.67" r="10"/>
<text x="240.26" y="319.67">R16</text>
<circle cx="564.98" cy="990.94" r="10"/>
<text x="564.98" y="995.94">R17</text>
<circle cx="641.34" cy="423.84" r="10"/>
<text x="641.34" y="428.84">R18</text>
<circle cx="632.88" cy="486.13" r="10"/>
<text x="632.88" y="491.13">R19</text>
<circle cx="183.47" cy="189.99" r="10"/>
<text x="183.47" y="194.99">R20</text>
<circle cx="21.89" cy="698.56" r="10"/>
<text x="21.89" y="703.56">R21</text>
<circle cx="209.90" cy="690.69" r="10"/>
<text x="209.90" y="695.69">R22</text>
<circle cx="841.62" cy="968.93" r="10"/>
<text x="841.62" y="973.93">R23</text>
<circle cx="701.45" cy="941.27" r="10"/>
<text x="701.45" y="946.27">R24</text>
<circle cx="87.88" cy="413.51" r="10"/>
<text x="87.88" y="418.51">R25</text>
<circle cx="52.77" cy="229.74" r="10"/>
<text x="52.77" y="234.74">R26</text>
<circle cx="227.80" cy="820.73" r="10"/>
<text x="227.80" y="825.73">R27</text>
<circle cx="13.53" cy="184.27" r="10"/>
<text x="13.53" y="189.27">R28</text>
<circle cx="196.98" cy="750.35" r="10"/>
<text x="196.98" y="755.35">R29</text>
<circle cx="605.92" cy="855.49" r="10"/>
<text x="605.92" y="860.49">R30</text>
<circle cx="443.83" cy="52.08" r="10"/>
<text x="443.83" y="57.08">R31</text>
<circle cx="518.45" cy="778.25" r="10"/>
<text x="518.45" y="783.25">R32</text>
<circle cx="562.21" cy="925.35" r="10"/>
<text x="562.21" y="930.35">R33</text>
<circle cx="948.83" cy="866.18" r="10"/>
<text x="948.83" y="871.18">R34</text>
<circle cx="890.07" cy="529.79" r="10"/>
<text x="890.07" y="534.79">R35</text>
<circle cx="661.57" cy="246.06" r="10"/>
<text x="661.57" y="251.06">R36</text>
<circle cx="517.92" cy="841.26" r="10"/>
<text x="517.92" y="846.26">R37</text>
<circle cx="542.32" cy="631.44" r="10"/>
<text x="542.32" y="636.44">R38</text>
<circle cx="861.02" cy="442.13" r="10"/>
<text x="861.02" y="447.13">R39</text>
<circle cx="194.77" cy="893.73" r="10"/>
<text x="194.77" y="898.73">R40</text>
<circle cx="682.26" cy="381.96" r="10"/>
<text x="682.26" y="386.96">R41</text>
<circle cx="457.86" cy="302.94" r="10"/>
<text x="457.86" y="307.94">R42</text>
<circle cx="498.60" cy="94.26" r="10"/>
<text x="498.60" y="99.26">R43</text>
<circle cx="218.25" cy="637.63" r="10"/>
<text x="218.25" y="642.63">R44</text>
<circle cx="473.36" cy="47.86" r="10"/>
<text x="473.36" y="52.86">R45</text>
<circle cx="483.52" cy="308.31" r="10"/>
<text x="483.52" y="313.31">R46</text>
<circle cx="699.50" cy="559.84" r="10"/>
<text x="699.50" y="564.84">R47</text>
<circle cx="351.97" cy="948.70" r="10"/>
<text x="351.97" y="953.70">R48</text>
<circle cx="46.30" cy="554.36" r="10"/>
<text x="46.30" y="559.36">R49</text>
<circle cx="255.66" cy="509.75" r="10"/>
<text x="255.66" y="514.75">R50</text>
<circle cx="195.24" cy="665.80" r="10"/>
<text x="195.24" y="670.80">R51</text>
<circle cx="289.94" cy="786.75" r="10"/>
<text x="289.94" y="791.75">R52</text>
<circle cx="590.35" cy="67.55" r="10"/>
<text x="590.35" y="72.55">R53</text>
<circle cx="532.36" cy="397.16" r="10"/>
<text x="532.36" y="402.16">R54</text>
<circle cx="882.17" cy="502.66" r="10"/>
<text x="882.17" y="507.66">R55</text>
<circle cx="154.59" cy="698.22" r="10"/>
<text x="154.59" y="703.22">R56</text>
<circle cx="339.15" cy="149.87" r="10"/>
<text x="339.15" y="154.87">R57</text>
<circle cx="21.33" cy="858.02" r="10"/>
<text x="21.33" y="863.02">R58</text>
<circle cx="741.54" cy="215.77" r="10"/>
<text x="741.54" y="220.77">R59</text>
<circle cx="125.82" cy="204.12" r="10"/>
<text x="125.82" y="209.12">R60</text>
<circle cx="271.92" cy="450.34" r="10"/>
<text x="271.92" y="455.34">R61</text>
<circle cx="579.55" cy="135.60" r="10"/>
<text x="579.55" y="140.60">R62</text>
<circle cx="356.84" cy="397.42" r="10"/>
<text x="356.84" y="402.42">R63</text>
<circle cx="745.85" cy="0.06" r="10"/>
<text x="745.85" y="5.06">R64</text>
<circle cx="738.21" cy="762.51" r="10"/>
<text x="738.21" y="767.51">R65</text>
<circle cx="760.58" cy="682.04" r="10"/>
<text x="760.58" y="687.04">R66</text>
<circle cx="498.28" cy="644.15" r="10"/>
<text x="498.28" y="649.15">R67</text>
<circle cx="997.10" cy="804.27" r="10"/>
<text x="997.10" y="809.27">R68</text>
<circle cx="504.04" cy="252.30" r="10"/>
<text x="504.04" y="257.30">R69</text>
<circle cx="540.50" cy="985.66" r="10"/>
<text x="540.50" y="990.66">R70</text>
<circle cx="139.20" cy="916.13" r="10"/>
<text x="139.20" y="921.13">R71</text>
<circle cx="965.40" cy="900.28" r="10"/>
<text x="965.40" y="905.28">R72</text>
<circle cx="189.15" cy="10.40" r="10"/>
<text x="189.15" y="15.40">R73</text>
<circle cx="46.17" cy="387.14" r="10"/>
<text x="46.17" y="392.14">R74</text>
<circle cx="799.09" cy="12.16" r="10"/>
<text x="799.09" y="17.16">R75</text>
<circle cx="167.05" cy="228.96" r="10"/>
<text x="167.05" y="233.96">R76</text>
<circle cx="13.97" cy="903.34" r="10"/>
<text x="13.97" y="908.34">R77</text>
<circle cx="701.31" cy="647.27" r="10"/>
<text x="701.31" y="652.27">R78</text>
<circle cx="166.08" cy="723.34" r="10"/>
<text x="166.08" y="728.34">R79</text>
<circle cx="837.16" cy="376.51" r="10"/>
<text x="837.16" y="381.51">R80</text>
<circle cx="920.03" cy="782.70" r="10"/>
<text x="920.03" y="787.70">R81</text>
<circle cx="57.15" cy="659.56" r="10"/>
<text x="57.15" y="664.56">R82</text>
<circle cx="47.31" cy="325.50" r="10"/>
<text x="47.31" y="330.50">R83</text>
<circle cx="605.90" cy="232.53" r="10"/>
<text x="605.90" y="237.53">R84</text>
<circle cx="87.15" cy="276.35" r="10"/>
<text x="87.15" y="281.35">R85</text>
<circle cx="113.59" cy="246.61" r="10"/>
<text x="113.59" y="251.61">R86</text>
<circle cx="123.59" cy="786.77" r="10"/>
<text x="123.59" y="791.77">R87</text>
<circle cx="835.70" cy="865.49" r="10"/>
<text x="835.70" y="870.49">R88</text>
<circle cx="282.35" cy="954.33" r="10"/>
<text x="282.35" y="959.33">R89</text>
<circle cx="258.71" cy="268.89" r="10"/>
<text x="258.71" y="273.89">R90</text>
<circle cx="108.48" cy="526.86" r="10"/>
<text x="108.48" y="531.86">R91</text>
<circle cx="579.28" cy="215.05" r="10"/>
<text x="579.28" y="220.05">R92</text>
<circle cx="479.10" cy="609.93" r="10"/>
<text x="479.10" y="614.93">R93</text>
<circle cx="70.56" cy="433.89" r="10"/>
<text x="70.56" y="438.89">R94</text>
<circle cx="390.38" cy="507.32" r="10"/>
<text x="390.38" y="512.32">R95</text>
<circle cx="510.79" cy="523.80" r="10"/>
<text x="510.79" y="528.80">R96</text>
<circle cx="396.94" cy="447.49" r="10"/>
<text x="396.94" y="452.49">R97</text>
<circle cx="139.25" cy="264.45" r="10"/>
<text x="139.25" y="269.45">R98</text>
<circle cx="87.44" cy="619.17" r="10"/>
<text x="87.44" y="624.17">R99</text>
</svg>
