<svg id="topo" viewBox="-95.82 -2028.07 2123.80 2123.50" xmlns="http://www.w3.org/2000/svg">
<style>#topo path {fill: none; stroke: grey; stroke-width: 5.0000px;} #topo circle {fill: lightblue; stroke: none; stroke-width: 0.3px; vector-effect: non-scaling-stroke; r: 10.0000px;} #topo text {fill: black; stroke: none; font-size: 15.0000px; font-family: sans-serif; text-anchor:middle; transform: translateY(0.3em);} #topo path.country {fill: lightgrey; stroke: black; stroke-width: 1px; vector-effect: non-scaling-stroke; visibility: visible;} #topo path.selection {fill: none; stroke: red; stroke-width: 1px; vector-effect: non-scaling-stroke; visibility: visible;} #topo path.utilization {visibility: hidden;}</style>
<path data-id="0-71" d="M1091.18,-613.69,1067.22,-641.96"/>
<path data-id="0-83" d="M1091.18,-613.69,1117.79,-634.51"/>
<path data-id="0-177" d="M1091.18,-613.69,1156.13,-569.23"/>
<path data-id="0-230" d="M1091.18,-613.69,1076.68,-563.80"/>
<path data-id="1-37" d="M912.68,-1696.14,975.72,-1690.33"/>
<path data-id="1-39" d="M912.68,-1696.14,766.62,-1728.24"/>
<path data-id="1-40" d="M912.68,-1696.14,864.82,-1814.56"/>
<path data-id="1-81" d="M912.68,-1696.14,785.19,-1626.62"/>
<path data-id="1-213" d="M912.68,-1696.14,861.35,-1502.88"/>
<path data-id="1-355" d="M912.68,-1696.14,938.37,-1483.34"/>
<path data-id="2-211" d="M274.78,-838.87,375.88,-826.76"/>
<path data-id="2-232" d="M274.78,-838.87,256.59,-907.60"/>
<path data-id="2-359" d="M274.78,-838.87,217.18,-820.24"/>
<path data-id="3-87" d="M1835.58,-949.46,1904.28,-1083.33"/>
<path data-id="3-150" d="M1835.58,-949.46,1802.35,-946.22"/>
<path data-id="3-234" d="M1835.58,-949.46,1889.62,-772.41"/>
<path data-id="4-17" d="M212.32,-424.09,231.25,-380.80"/>
<path data-id="4-114" d="M212.32,-424.09,69.25,-456.47"/>
<path data-id="4-269" d="M212.32,-424.09,356.01,-482.93"/>
<path data-id="4-309" d="M212.32,-424.09,204.37,-477.86"/>
<path data-id="5-41" d="M1800.19,-1603.42,1677.30,-1552.67"/>
<path data-id="5-185" d="M1800.19,-1603.42,1840.73,-1553.13"/>
<path data-id="5-227" d="M1800.19,-1603.42,1762.15,-1734.26"/>
<path data-id="5-364" d="M1800.19,-1603.42,1893.12,-1635.25"/>
<path data-id="6-10" d="M1282.47,-1432.95,1214.27,-1490.00"/>
<path data-id="6-20" d="M1282.47,-1432.95,1375.94,-1481.10"/>
<path data-id="6-58" d="M1282.47,-1432.95,1298.26,-1374.02"/>
<path data-id="6-88" d="M1282.47,-1432.95,1193.95,-1399.75"/>
<path data-id="6-132" d="M1282.47,-1432.95,1301.80,-1525.58"/>
<path data-id="7-109" d="M534.22,-877.97,587.92,-928.51"/>
<path data-id="7-198" d="M534.22,-877.97,641.80,-870.60"/>
<path data-id="7-262" d="M534.22,-877.97,493.25,-898.36"/>
<path data-id="7-357" d="M534.22,-877.97,471.98,-840.19"/>
<path data-id="8-67" d="M787.63,-827.31,820.29,-766.23"/>
<path data-id="8-144" d="M787.63,-827.31,728.15,-806.89"/>
<path data-id="8-258" d="M787.63,-827.31,772.23,-1049.39"/>
<path data-id="8-270" d="M787.63,-827.31,856.55,-827.31"/>
<path data-id="9-28" d="M538.87,-407.31,641.43,-457.16"/>
<path data-id="9-145" d="M538.87,-407.31,537.90,-375.58"/>
<path data-id="9-251" d="M538.87,-407.31,466.75,-468.37"/>
<path data-id="10-14" d="M1214.27,-1490.00,1120.40,-1471.85"/>
<path data-id="10-49" d="M1214.27,-1490.00,1181.32,-1530.48"/>
<path data-id="10-62" d="M1214.27,-1490.00,1215.65,-1545.21"/>
<path data-id="10-88" d="M1214.27,-1490.00,1193.95,-1399.75"/>
<path data-id="10-132" d="M1214.27,-1490.00,1301.80,-1525.58"/>
<path data-id="10-194" d="M1214.27,-1490.00,1136.27,-1417.66"/>
<path data-id="11-50" d="M429.15,-979.56,390.01,-899.81"/>
<path data-id="11-212" d="M429.15,-979.56,342.58,-1051.38"/>
<path data-id="11-262" d="M429.15,-979.56,493.25,-898.36"/>
<path data-id="11-311" d="M429.15,-979.56,434.23,-1079.72"/>
<path data-id="11-350" d="M429.15,-979.56,516.39,-1071.17"/>
<path data-id="12-96" d="M1624.44,-1018.17,1669.10,-1068.71"/>
<path data-id="12-176" d="M1624.44,-1018.17,1606.47,-1047.69"/>
<path data-id="12-333" d="M1624.44,-1018.17,1613.12,-989.16"/>
<path data-id="13-166" d="M1251.40,-15.28,1216.96,-58.34"/>
<path data-id="14-49" d="M1120.40,-1471.85,1181.32,-1530.48"/>
<path data-id="14-194" d="M1120.40,-1471.85,1136.27,-1417.66"/>
<path data-id="14-275" d="M1120.40,-1471.85,1090.42,-1464.46"/>
<path data-id="15-126" d="M1672.49,-1755.26,1670.40,-1791.89"/>
<path data-id="15-225" d="M1672.49,-1755.26,1519.84,-1696.78"/>
<path data-id="15-227" d="M1672.49,-1755.26,1762.15,-1734.26"/>
<path data-id="15-314" d="M1672.49,-1755.26,1580.90,-1641.83"/>
<path data-id="16-17" d="M365.42,-315.78,231.25,-380.80"/>
<path data-id="16-55" d="M365.42,-315.78,226.68,-287.08"/>
<path data-id="16-64" d="M365.42,-315.78,383.92,-285.11"/>
<path data-id="16-75" d="M365.42,-315.78,250.57,-205.27"/>
<path data-id="16-222" d="M365.42,-315.78,385.40,-402.95"/>
<path data-id="16-328" d="M365.42,-315.78,357.61,-406.91"/>
<path data-id="17-303" d="M231.25,-380.80,200.47,-358.64"/>
<path data-id="17-328" d="M231.25,-380.80,357.61,-406.91"/>
<path data-id="18-101" d="M291.16,-1847.49,340.85,-1822.55"/>
<path data-id="18-147" d="M291.16,-1847.49,207.75,-1806.87"/>
<path data-id="18-294" d="M291.16,-1847.49,255.06,-1888.09"/>
<path data-id="18-338" d="M291.16,-1847.49,323.58,-1931.55"/>
<path data-id="19-29" d="M1628.62,-1457.57,1550.05,-1446.24"/>
<path data-id="19-201" d="M1628.62,-1457.57,1561.28,-1416.07"/>
<path data-id="19-281" d="M1628.62,-1457.57,1665.79,-1466.46"/>
<path data-id="19-308" d="M1628.62,-1457.57,1688.44,-1286.60"/>
<path data-id="20-104" d="M1375.94,-1481.10,1350.78,-1534.72"/>
<path data-id="20-189" d="M1375.94,-1481.10,1472.10,-1314.58"/>
<path data-id="20-348" d="M1375.94,-1481.10,1519.39,-1474.02"/>
<path data-id="21-111" d="M1527.51,-1257.04,1458.99,-1246.15"/>
<path data-id="21-137" d="M1527.51,-1257.04,1485.11,-1198.43"/>
<path data-id="21-189" d="M1527.51,-1257.04,1472.10,-1314.58"/>
<path data-id="21-308" d="M1527.51,-1257.04,1688.44,-1286.60"/>
<path data-id="21-335" d="M1527.51,-1257.04,1551.76,-1192.66"/>
<path data-id="22-96" d="M1726.28,-928.50,1669.10,-1068.71"/>
<path data-id="22-119" d="M1726.28,-928.50,1730.01,-882.71"/>
<path data-id="22-150" d="M1726.28,-928.50,1802.35,-946.22"/>
<path data-id="22-164" d="M1726.28,-928.50,1557.29,-882.10"/>
<path data-id="22-333" d="M1726.28,-928.50,1613.12,-989.16"/>
<path data-id="23-97" d="M493.84,-773.03,487.94,-643.89"/>
<path data-id="23-169" d="M493.84,-773.03,575.20,-703.43"/>
<path data-id="23-255" d="M493.84,-773.03,400.86,-743.96"/>
<path data-id="23-357" d="M493.84,-773.03,471.98,-840.19"/>
<path data-id="24-103" d="M39.27,-141.69,90.33,-179.58"/>
<path data-id="24-151" d="M39.27,-141.69,68.94,-66.45"/>
<path data-id="25-135" d="M1227.19,-553.99,1182.55,-628.63"/>
<path data-id="25-168" d="M1227.19,-553.99,1269.15,-559.99"/>
<path data-id="25-177" d="M1227.19,-553.99,1156.13,-569.23"/>
<path data-id="25-187" d="M1227.19,-553.99,1264.49,-521.53"/>
<path data-id="26-89" d="M1112.87,-1827.47,1175.79,-1853.31"/>
<path data-id="26-133" d="M1112.87,-1827.47,1203.94,-1760.25"/>
<path data-id="26-273" d="M1112.87,-1827.47,1066.10,-1766.10"/>
<path data-id="26-323" d="M1112.87,-1827.47,1112.32,-1744.06"/>
<path data-id="26-349" d="M1112.87,-1827.47,1066.21,-1838.19"/>
<path data-id="27-170" d="M530.85,-1162.29,667.67,-1196.64"/>
<path data-id="27-191" d="M530.85,-1162.29,518.38,-1117.70"/>
<path data-id="27-302" d="M530.85,-1162.29,509.89,-1209.25"/>
<path data-id="28-57" d="M641.43,-457.16,877.86,-348.79"/>
<path data-id="28-107" d="M641.43,-457.16,678.69,-534.11"/>
<path data-id="28-184" d="M641.43,-457.16,561.43,-362.55"/>
<path data-id="28-263" d="M641.43,-457.16,551.43,-571.81"/>
<path data-id="29-201" d="M1550.05,-1446.24,1561.28,-1416.07"/>
<path data-id="29-348" d="M1550.05,-1446.24,1519.39,-1474.02"/>
<path data-id="30-227" d="M1893.06,-1674.54,1762.15,-1734.26"/>
<path data-id="30-254" d="M1893.06,-1674.54,1902.44,-1782.27"/>
<path data-id="30-364" d="M1893.06,-1674.54,1893.12,-1635.25"/>
<path data-id="31-231" d="M29.58,-1895.35,37.25,-1919.51"/>
<path data-id="31-342" d="M29.58,-1895.35,83.41,-1887.19"/>
<path data-id="32-72" d="M1885.26,-613.40,1866.47,-666.22"/>
<path data-id="32-118" d="M1885.26,-613.40,1801.67,-573.12"/>
<path data-id="32-368" d="M1885.26,-613.40,1874.73,-482.79"/>
<path data-id="33-175" d="M1050.27,-475.51,1046.91,-519.83"/>
<path data-id="33-301" d="M1050.27,-475.51,1074.49,-463.43"/>
<path data-id="34-125" d="M1560.36,-1024.61,1504.11,-1077.93"/>
<path data-id="34-138" d="M1560.36,-1024.61,1403.37,-901.75"/>
<path data-id="34-176" d="M1560.36,-1024.61,1606.47,-1047.69"/>
<path data-id="34-333" d="M1560.36,-1024.61,1613.12,-989.16"/>
<path data-id="35-50" d="M417.47,-835.42,390.01,-899.81"/>
<path data-id="35-211" d="M417.47,-835.42,375.88,-826.76"/>
<path data-id="35-255" d="M417.47,-835.42,400.86,-743.96"/>
<path data-id="35-357" d="M417.47,-835.42,471.98,-840.19"/>
<path data-id="36-193" d="M359.97,-1748.22,378.06,-1710.53"/>
<path data-id="36-226" d="M359.97,-1748.22,203.42,-1725.76"/>
<path data-id="36-291" d="M359.97,-1748.22,347.93,-1787.86"/>
<path data-id="37-93" d="M975.72,-1690.33,991.60,-1754.91"/>
<path data-id="37-253" d="M975.72,-1690.33,1089.97,-1699.42"/>
<path data-id="37-355" d="M975.72,-1690.33,938.37,-1483.34"/>
<path data-id="38-103" d="M21.76,-323.51,90.33,-179.58"/>
<path data-id="38-114" d="M21.76,-323.51,69.25,-456.47"/>
<path data-id="38-303" d="M21.76,-323.51,200.47,-358.64"/>
<path data-id="38-313" d="M21.76,-323.51,190.32,-289.22"/>
<path data-id="39-81" d="M766.62,-1728.24,785.19,-1626.62"/>
<path data-id="39-180" d="M766.62,-1728.24,799.70,-1804.14"/>
<path data-id="39-186" d="M766.62,-1728.24,663.73,-1730.62"/>
<path data-id="40-77" d="M864.82,-1814.56,792.31,-1871.07"/>
<path data-id="40-93" d="M864.82,-1814.56,991.60,-1754.91"/>
<path data-id="40-98" d="M864.82,-1814.56,948.30,-1898.29"/>
<path data-id="40-180" d="M864.82,-1814.56,799.70,-1804.14"/>
<path data-id="41-271" d="M1677.30,-1552.67,1651.46,-1572.86"/>
<path data-id="41-281" d="M1677.30,-1552.67,1665.79,-1466.46"/>
<path data-id="42-165" d="M426.30,-1391.50,339.59,-1350.44"/>
<path data-id="42-296" d="M426.30,-1391.50,461.87,-1366.14"/>
<path data-id="42-305" d="M426.30,-1391.50,335.03,-1383.18"/>
<path data-id="42-318" d="M426.30,-1391.50,356.75,-1449.33"/>
<path data-id="43-125" d="M1377.06,-978.15,1504.11,-1077.93"/>
<path data-id="43-203" d="M1377.06,-978.15,1295.97,-973.78"/>
<path data-id="43-235" d="M1377.06,-978.15,1293.13,-1056.38"/>
<path data-id="43-287" d="M1377.06,-978.15,1353.28,-931.15"/>
<path data-id="43-292" d="M1377.06,-978.15,1390.56,-1100.38"/>
<path data-id="44-52" d="M1500.03,-179.54,1472.85,-270.62"/>
<path data-id="44-116" d="M1500.03,-179.54,1532.02,-142.73"/>
<path data-id="44-183" d="M1500.03,-179.54,1426.28,-184.89"/>
<path data-id="44-249" d="M1500.03,-179.54,1473.60,-116.06"/>
<path data-id="44-316" d="M1500.03,-179.54,1596.39,-282.62"/>
<path data-id="45-74" d="M1310.58,-1680.07,1391.66,-1744.43"/>
<path data-id="45-143" d="M1310.58,-1680.07,1277.09,-1668.07"/>
<path data-id="45-207" d="M1310.58,-1680.07,1355.19,-1646.79"/>
<path data-id="46-160" d="M1875.33,-1533.64,1896.16,-1504.43"/>
<path data-id="46-185" d="M1875.33,-1533.64,1840.73,-1553.13"/>
<path data-id="46-364" d="M1875.33,-1533.64,1893.12,-1635.25"/>
<path data-id="47-114" d="M164.65,-537.12,69.25,-456.47"/>
<path data-id="47-167" d="M164.65,-537.12,188.40,-811.75"/>
<path data-id="47-300" d="M164.65,-537.12,49.55,-490.66"/>
<path data-id="47-309" d="M164.65,-537.12,204.37,-477.86"/>
<path data-id="47-356" d="M164.65,-537.12,256.21,-537.47"/>
<path data-id="48-199" d="M1116.55,-1303.46,1163.31,-1123.59"/>
<path data-id="48-242" d="M1116.55,-1303.46,1199.72,-1293.85"/>
<path data-id="48-288" d="M1116.55,-1303.46,984.06,-1307.70"/>
<path data-id="48-289" d="M1116.55,-1303.46,1066.47,-1153.11"/>
<path data-id="48-310" d="M1116.55,-1303.46,1111.35,-1385.10"/>
<path data-id="49-62" d="M1181.32,-1530.48,1215.65,-1545.21"/>
<path data-id="49-278" d="M1181.32,-1530.48,1139.77,-1605.44"/>
<path data-id="50-211" d="M390.01,-899.81,375.88,-826.76"/>
<path data-id="50-262" d="M390.01,-899.81,493.25,-898.36"/>
<path data-id="50-352" d="M390.01,-899.81,325.04,-928.85"/>
<path data-id="51-116" d="M1536.43,-100.02,1532.02,-142.73"/>
<path data-id="51-249" d="M1536.43,-100.02,1473.60,-116.06"/>
<path data-id="51-266" d="M1536.43,-100.02,1617.01,-146.94"/>
<path data-id="52-183" d="M1472.85,-270.62,1426.28,-184.89"/>
<path data-id="52-268" d="M1472.85,-270.62,1557.83,-336.39"/>
<path data-id="52-307" d="M1472.85,-270.62,1391.32,-267.51"/>
<path data-id="52-316" d="M1472.85,-270.62,1596.39,-282.62"/>
<path data-id="53-156" d="M508.43,-1901.71,466.74,-1728.11"/>
<path data-id="53-252" d="M508.43,-1901.71,446.44,-1914.69"/>
<path data-id="53-358" d="M508.43,-1901.71,536.30,-1729.48"/>
<path data-id="53-369" d="M508.43,-1901.71,662.96,-1914.34"/>
<path data-id="54-250" d="M1560.78,-1607.09,1504.50,-1667.43"/>
<path data-id="54-271" d="M1560.78,-1607.09,1651.46,-1572.86"/>
<path data-id="54-314" d="M1560.78,-1607.09,1580.90,-1641.83"/>
<path data-id="54-348" d="M1560.78,-1607.09,1519.39,-1474.02"/>
<path data-id="55-75" d="M226.68,-287.08,250.57,-205.27"/>
<path data-id="55-303" d="M226.68,-287.08,200.47,-358.64"/>
<path data-id="55-313" d="M226.68,-287.08,190.32,-289.22"/>
<path data-id="56-82" d="M178.62,-7.98,196.51,-65.80"/>
<path data-id="56-151" d="M178.62,-7.98,68.94,-66.45"/>
<path data-id="57-130" d="M877.86,-348.79,1048.90,-383.55"/>
<path data-id="57-159" d="M877.86,-348.79,623.63,-294.86"/>
<path data-id="57-161" d="M877.86,-348.79,949.74,-263.73"/>
<path data-id="57-195" d="M877.86,-348.79,823.20,-568.96"/>
<path data-id="58-272" d="M1298.26,-1374.02,1279.68,-1350.65"/>
<path data-id="59-109" d="M668.58,-938.49,587.92,-928.51"/>
<path data-id="59-198" d="M668.58,-938.49,641.80,-870.60"/>
<path data-id="59-362" d="M668.58,-938.49,655.52,-972.16"/>
<path data-id="60-83" d="M1176.57,-719.07,1117.79,-634.51"/>
<path data-id="60-135" d="M1176.57,-719.07,1182.55,-628.63"/>
<path data-id="60-146" d="M1176.57,-719.07,1183.43,-822.34"/>
<path data-id="60-172" d="M1176.57,-719.07,1076.39,-803.24"/>
<path data-id="60-238" d="M1176.57,-719.07,1250.12,-762.78"/>
<path data-id="60-373" d="M1176.57,-719.07,1295.44,-674.26"/>
<path data-id="61-110" d="M1560.73,-499.32,1503.34,-527.92"/>
<path data-id="61-214" d="M1560.73,-499.32,1553.67,-612.43"/>
<path data-id="61-363" d="M1560.73,-499.32,1583.77,-455.69"/>
<path data-id="62-132" d="M1215.65,-1545.21,1301.80,-1525.58"/>
<path data-id="62-143" d="M1215.65,-1545.21,1277.09,-1668.07"/>
<path data-id="63-274" d="M1058.50,-67.12,1015.97,-26.34"/>
<path data-id="63-324" d="M1058.50,-67.12,983.47,-229.30"/>
<path data-id="63-330" d="M1058.50,-67.12,1110.24,-16.09"/>
<path data-id="64-75" d="M383.92,-285.11,250.57,-205.27"/>
<path data-id="64-122" d="M383.92,-285.11,597.53,-222.25"/>
<path data-id="64-145" d="M383.92,-285.11,537.90,-375.58"/>
<path data-id="64-152" d="M383.92,-285.11,360.70,-131.83"/>
<path data-id="65-66" d="M1177.95,-417.12,1136.19,-413.18"/>
<path data-id="65-69" d="M1177.95,-417.12,1296.64,-202.05"/>
<path data-id="65-177" d="M1177.95,-417.12,1156.13,-569.23"/>
<path data-id="65-187" d="M1177.95,-417.12,1264.49,-521.53"/>
<path data-id="65-365" d="M1177.95,-417.12,1388.72,-302.44"/>
<path data-id="66-130" d="M1136.19,-413.18,1048.90,-383.55"/>
<path data-id="66-301" d="M1136.19,-413.18,1074.49,-463.43"/>
<path data-id="67-94" d="M820.29,-766.23,823.50,-710.37"/>
<path data-id="67-173" d="M820.29,-766.23,851.71,-776.66"/>
<path data-id="68-110" d="M1422.86,-456.40,1503.34,-527.92"/>
<path data-id="68-239" d="M1422.86,-456.40,1538.80,-371.67"/>
<path data-id="68-304" d="M1422.86,-456.40,1343.88,-483.06"/>
<path data-id="68-365" d="M1422.86,-456.40,1388.72,-302.44"/>
<path data-id="69-183" d="M1296.64,-202.05,1426.28,-184.89"/>
<path data-id="69-267" d="M1296.64,-202.05,1289.59,-128.93"/>
<path data-id="69-307" d="M1296.64,-202.05,1391.32,-267.51"/>
<path data-id="69-324" d="M1296.64,-202.05,983.47,-229.30"/>
<path data-id="70-127" d="M119.85,-959.15,196.72,-936.12"/>
<path data-id="70-155" d="M119.85,-959.15,80.61,-974.34"/>
<path data-id="70-229" d="M119.85,-959.15,77.92,-921.53"/>
<path data-id="70-282" d="M119.85,-959.15,176.92,-1048.40"/>
<path data-id="71-73" d="M1067.22,-641.96,1025.19,-643.82"/>
<path data-id="71-172" d="M1067.22,-641.96,1076.39,-803.24"/>
<path data-id="72-129" d="M1866.47,-666.22,1857.70,-721.70"/>
<path data-id="72-370" d="M1866.47,-666.22,1661.85,-673.67"/>
<path data-id="73-290" d="M1025.19,-643.82,905.27,-706.68"/>
<path data-id="74-162" d="M1391.66,-1744.43,1398.28,-1689.93"/>
<path data-id="74-200" d="M1391.66,-1744.43,1305.89,-1902.53"/>
<path data-id="74-224" d="M1391.66,-1744.43,1257.82,-1806.97"/>
<path data-id="74-360" d="M1391.66,-1744.43,1440.66,-1817.96"/>
<path data-id="75-103" d="M250.57,-205.27,90.33,-179.58"/>
<path data-id="75-179" d="M250.57,-205.27,267.95,-170.41"/>
<path data-id="76-112" d="M636.24,-638.41,543.07,-662.93"/>
<path data-id="76-163" d="M636.24,-638.41,689.98,-578.76"/>
<path data-id="76-169" d="M636.24,-638.41,575.20,-703.43"/>
<path data-id="76-188" d="M636.24,-638.41,693.30,-678.15"/>
<path data-id="76-263" d="M636.24,-638.41,551.43,-571.81"/>
<path data-id="77-95" d="M792.31,-1871.07,720.82,-1905.68"/>
<path data-id="77-180" d="M792.31,-1871.07,799.70,-1804.14"/>
<path data-id="77-216" d="M792.31,-1871.07,715.96,-1869.82"/>
<path data-id="78-261" d="M581.19,-1393.08,542.49,-1352.52"/>
<path data-id="78-276" d="M581.19,-1393.08,521.80,-1445.99"/>
<path data-id="78-286" d="M581.19,-1393.08,605.50,-1491.62"/>
<path data-id="78-322" d="M581.19,-1393.08,617.71,-1346.48"/>
<path data-id="79-94" d="M735.20,-701.95,823.50,-710.37"/>
<path data-id="79-144" d="M735.20,-701.95,728.15,-806.89"/>
<path data-id="79-188" d="M735.20,-701.95,693.30,-678.15"/>
<path data-id="79-210" d="M735.20,-701.95,732.88,-674.50"/>
<path data-id="80-100" d="M314.02,-1577.36,155.63,-1578.15"/>
<path data-id="80-124" d="M314.02,-1577.36,178.50,-1474.00"/>
<path data-id="80-243" d="M314.02,-1577.36,320.78,-1622.09"/>
<path data-id="80-318" d="M314.02,-1577.36,356.75,-1449.33"/>
<path data-id="81-280" d="M785.19,-1626.62,756.00,-1586.60"/>
<path data-id="82-103" d="M196.51,-65.80,90.33,-179.58"/>
<path data-id="82-151" d="M196.51,-65.80,68.94,-66.45"/>
<path data-id="82-154" d="M196.51,-65.80,281.81,-40.39"/>
<path data-id="82-179" d="M196.51,-65.80,267.95,-170.41"/>
<path data-id="83-135" d="M1117.79,-634.51,1182.55,-628.63"/>
<path data-id="83-177" d="M1117.79,-634.51,1156.13,-569.23"/>
<path data-id="84-141" d="M170.16,-1342.76,25.25,-1417.17"/>
<path data-id="84-223" d="M170.16,-1342.76,157.16,-1448.22"/>
<path data-id="84-240" d="M170.16,-1342.76,213.23,-1349.09"/>
<path data-id="84-277" d="M170.16,-1342.76,48.70,-1283.11"/>
<path data-id="85-251" d="M394.81,-518.43,466.75,-468.37"/>
<path data-id="85-269" d="M394.81,-518.43,356.01,-482.93"/>
<path data-id="85-321" d="M394.81,-518.43,417.26,-444.64"/>
<path data-id="85-353" d="M394.81,-518.43,419.98,-616.39"/>
<path data-id="86-111" d="M1441.42,-1277.51,1458.99,-1246.15"/>
<path data-id="86-189" d="M1441.42,-1277.51,1472.10,-1314.58"/>
<path data-id="86-366" d="M1441.42,-1277.51,1344.06,-1253.53"/>
<path data-id="87-123" d="M1904.28,-1083.33,1931.45,-1146.51"/>
<path data-id="87-153" d="M1904.28,-1083.33,1876.94,-1115.65"/>
<path data-id="88-194" d="M1193.95,-1399.75,1136.27,-1417.66"/>
<path data-id="88-272" d="M1193.95,-1399.75,1279.68,-1350.65"/>
<path data-id="88-279" d="M1193.95,-1399.75,1209.03,-1333.59"/>
<path data-id="89-133" d="M1175.79,-1853.31,1203.94,-1760.25"/>
<path data-id="89-215" d="M1175.79,-1853.31,1226.34,-1928.15"/>
<path data-id="89-224" d="M1175.79,-1853.31,1257.82,-1806.97"/>
<path data-id="90-149" d="M1911.95,-1893.26,1806.73,-1870.98"/>
<path data-id="90-219" d="M1911.95,-1893.26,1874.49,-1818.20"/>
<path data-id="91-109" d="M620.05,-1007.11,587.92,-928.51"/>
<path data-id="91-345" d="M620.05,-1007.11,600.45,-1063.12"/>
<path data-id="91-362" d="M620.05,-1007.11,655.52,-972.16"/>
<path data-id="92-139" d="M1241.84,-1067.39,1231.70,-947.07"/>
<path data-id="92-182" d="M1241.84,-1067.39,1218.41,-1142.96"/>
<path data-id="92-199" d="M1241.84,-1067.39,1163.31,-1123.59"/>
<path data-id="92-235" d="M1241.84,-1067.39,1293.13,-1056.38"/>
<path data-id="93-98" d="M991.60,-1754.91,948.30,-1898.29"/>
<path data-id="93-273" d="M991.60,-1754.91,1066.10,-1766.10"/>
<path data-id="94-195" d="M823.50,-710.37,823.20,-568.96"/>
<path data-id="94-290" d="M823.50,-710.37,905.27,-706.68"/>
<path data-id="95-216" d="M720.82,-1905.68,715.96,-1869.82"/>
<path data-id="95-369" d="M720.82,-1905.68,662.96,-1914.34"/>
<path data-id="96-115" d="M1669.10,-1068.71,1625.58,-1073.87"/>
<path data-id="96-181" d="M1669.10,-1068.71,1784.74,-1103.76"/>
<path data-id="96-308" d="M1669.10,-1068.71,1688.44,-1286.60"/>
<path data-id="97-112" d="M487.94,-643.89,543.07,-662.93"/>
<path data-id="97-140" d="M487.94,-643.89,452.02,-639.96"/>
<path data-id="97-263" d="M487.94,-643.89,551.43,-571.81"/>
<path data-id="98-349" d="M948.30,-1898.29,1066.21,-1838.19"/>
<path data-id="99-233" d="M856.17,-3.60,637.57,-212.86"/>
<path data-id="99-265" d="M856.17,-3.60,559.97,-42.70"/>
<path data-id="99-274" d="M856.17,-3.60,1015.97,-26.34"/>
<path data-id="99-324" d="M856.17,-3.60,983.47,-229.30"/>
<path data-id="100-117" d="M155.63,-1578.15,64.13,-1687.03"/>
<path data-id="100-124" d="M155.63,-1578.15,178.50,-1474.00"/>
<path data-id="100-319" d="M155.63,-1578.15,196.91,-1653.87"/>
<path data-id="101-252" d="M340.85,-1822.55,446.44,-1914.69"/>
<path data-id="101-291" d="M340.85,-1822.55,347.93,-1787.86"/>
<path data-id="102-178" d="M979.86,-860.69,1074.67,-847.68"/>
<path data-id="102-297" d="M979.86,-860.69,1059.87,-951.08"/>
<path data-id="102-312" d="M979.86,-860.69,956.88,-873.63"/>
<path data-id="102-343" d="M979.86,-860.69,936.08,-831.84"/>
<path data-id="103-313" d="M90.33,-179.58,190.32,-289.22"/>
<path data-id="104-132" d="M1350.78,-1534.72,1301.80,-1525.58"/>
<path data-id="104-207" d="M1350.78,-1534.72,1355.19,-1646.79"/>
<path data-id="105-126" d="M1722.73,-1870.12,1670.40,-1791.89"/>
<path data-id="105-149" d="M1722.73,-1870.12,1806.73,-1870.98"/>
<path data-id="105-190" d="M1722.73,-1870.12,1560.24,-1870.90"/>
<path data-id="105-227" d="M1722.73,-1870.12,1762.15,-1734.26"/>
<path data-id="106-337" d="M1493.16,-1868.41,1532.30,-1867.62"/>
<path data-id="106-360" d="M1493.16,-1868.41,1440.66,-1817.96"/>
<path data-id="107-163" d="M678.69,-534.11,689.98,-578.76"/>
<path data-id="107-263" d="M678.69,-534.11,551.43,-571.81"/>
<path data-id="108-182" d="M1251.12,-1246.92,1218.41,-1142.96"/>
<path data-id="108-242" d="M1251.12,-1246.92,1199.72,-1293.85"/>
<path data-id="108-272" d="M1251.12,-1246.92,1279.68,-1350.65"/>
<path data-id="108-366" d="M1251.12,-1246.92,1344.06,-1253.53"/>
<path data-id="109-198" d="M587.92,-928.51,641.80,-870.60"/>
<path data-id="109-362" d="M587.92,-928.51,655.52,-972.16"/>
<path data-id="110-214" d="M1503.34,-527.92,1553.67,-612.43"/>
<path data-id="110-299" d="M1503.34,-527.92,1410.24,-622.68"/>
<path data-id="111-137" d="M1458.99,-1246.15,1485.11,-1198.43"/>
<path data-id="112-169" d="M543.07,-662.93,575.20,-703.43"/>
<path data-id="112-263" d="M543.07,-662.93,551.43,-571.81"/>
<path data-id="113-206" d="M803.53,-1321.14,881.05,-1333.06"/>
<path data-id="113-241" d="M803.53,-1321.14,825.47,-1276.59"/>
<path data-id="113-317" d="M803.53,-1321.14,767.48,-1311.17"/>
<path data-id="114-300" d="M69.25,-456.47,49.55,-490.66"/>
<path data-id="114-309" d="M69.25,-456.47,204.37,-477.86"/>
<path data-id="115-176" d="M1625.58,-1073.87,1606.47,-1047.69"/>
<path data-id="115-335" d="M1625.58,-1073.87,1551.76,-1192.66"/>
<path data-id="116-249" d="M1532.02,-142.73,1473.60,-116.06"/>
<path data-id="116-266" d="M1532.02,-142.73,1617.01,-146.94"/>
<path data-id="117-325" d="M64.13,-1687.03,129.01,-1738.61"/>
<path data-id="118-228" d="M1801.67,-573.12,1739.30,-536.41"/>
<path data-id="118-368" d="M1801.67,-573.12,1874.73,-482.79"/>
<path data-id="118-370" d="M1801.67,-573.12,1661.85,-673.67"/>
<path data-id="119-164" d="M1730.01,-882.71,1557.29,-882.10"/>
<path data-id="119-234" d="M1730.01,-882.71,1889.62,-772.41"/>
<path data-id="119-260" d="M1730.01,-882.71,1708.28,-820.94"/>
<path data-id="120-146" d="M1301.27,-843.93,1183.43,-822.34"/>
<path data-id="120-148" d="M1301.27,-843.93,1368.87,-886.02"/>
<path data-id="120-197" d="M1301.27,-843.93,1330.63,-912.11"/>
<path data-id="120-236" d="M1301.27,-843.93,1274.91,-886.42"/>
<path data-id="120-238" d="M1301.27,-843.93,1250.12,-762.78"/>
<path data-id="120-246" d="M1301.27,-843.93,1315.24,-755.23"/>
<path data-id="121-206" d="M878.15,-1277.38,881.05,-1333.06"/>
<path data-id="121-241" d="M878.15,-1277.38,825.47,-1276.59"/>
<path data-id="121-288" d="M878.15,-1277.38,984.06,-1307.70"/>
<path data-id="121-293" d="M878.15,-1277.38,866.84,-1218.33"/>
<path data-id="122-159" d="M597.53,-222.25,623.63,-294.86"/>
<path data-id="122-233" d="M597.53,-222.25,637.57,-212.86"/>
<path data-id="122-265" d="M597.53,-222.25,559.97,-42.70"/>
<path data-id="122-374" d="M597.53,-222.25,421.11,-121.10"/>
<path data-id="123-153" d="M1931.45,-1146.51,1876.94,-1115.65"/>
<path data-id="123-174" d="M1931.45,-1146.51,1896.12,-1182.13"/>
<path data-id="124-223" d="M178.50,-1474.00,157.16,-1448.22"/>
<path data-id="124-305" d="M178.50,-1474.00,335.03,-1383.18"/>
<path data-id="124-318" d="M178.50,-1474.00,356.75,-1449.33"/>
<path data-id="125-137" d="M1504.11,-1077.93,1485.11,-1198.43"/>
<path data-id="125-292" d="M1504.11,-1077.93,1390.56,-1100.38"/>
<path data-id="125-335" d="M1504.11,-1077.93,1551.76,-1192.66"/>
<path data-id="126-190" d="M1670.40,-1791.89,1560.24,-1870.90"/>
<path data-id="127-232" d="M196.72,-936.12,256.59,-907.60"/>
<path data-id="127-248" d="M196.72,-936.12,280.05,-991.91"/>
<path data-id="127-282" d="M196.72,-936.12,176.92,-1048.40"/>
<path data-id="127-339" d="M196.72,-936.12,242.02,-1042.13"/>
<path data-id="128-209" d="M1704.53,-273.63,1739.72,-349.30"/>
<path data-id="128-266" d="M1704.53,-273.63,1617.01,-146.94"/>
<path data-id="128-336" d="M1704.53,-273.63,1799.52,-213.00"/>
<path data-id="128-344" d="M1704.53,-273.63,1641.40,-300.44"/>
<path data-id="129-234" d="M1857.70,-721.70,1889.62,-772.41"/>
<path data-id="129-260" d="M1857.70,-721.70,1708.28,-820.94"/>
<path data-id="129-370" d="M1857.70,-721.70,1661.85,-673.67"/>
<path data-id="130-161" d="M1048.90,-383.55,949.74,-263.73"/>
<path data-id="130-301" d="M1048.90,-383.55,1074.49,-463.43"/>
<path data-id="131-173" d="M889.21,-808.71,851.71,-776.66"/>
<path data-id="131-270" d="M889.21,-808.71,856.55,-827.31"/>
<path data-id="131-343" d="M889.21,-808.71,936.08,-831.84"/>
<path data-id="132-143" d="M1301.80,-1525.58,1277.09,-1668.07"/>
<path data-id="133-142" d="M1203.94,-1760.25,1221.75,-1727.87"/>
<path data-id="133-224" d="M1203.94,-1760.25,1257.82,-1806.97"/>
<path data-id="133-259" d="M1203.94,-1760.25,1154.87,-1725.15"/>
<path data-id="134-250" d="M1458.83,-1663.98,1504.50,-1667.43"/>
<path data-id="134-347" d="M1458.83,-1663.98,1429.01,-1679.50"/>
<path data-id="135-177" d="M1182.55,-628.63,1156.13,-569.23"/>
<path data-id="135-373" d="M1182.55,-628.63,1295.44,-674.26"/>
<path data-id="136-164" d="M1544.13,-821.13,1557.29,-882.10"/>
<path data-id="136-260" d="M1544.13,-821.13,1708.28,-820.94"/>
<path data-id="136-326" d="M1544.13,-821.13,1489.51,-787.62"/>
<path data-id="136-332" d="M1544.13,-821.13,1598.00,-676.27"/>
<path data-id="137-292" d="M1485.11,-1198.43,1390.56,-1100.38"/>
<path data-id="137-335" d="M1485.11,-1198.43,1551.76,-1192.66"/>
<path data-id="138-148" d="M1403.37,-901.75,1368.87,-886.02"/>
<path data-id="138-164" d="M1403.37,-901.75,1557.29,-882.10"/>
<path data-id="138-287" d="M1403.37,-901.75,1353.28,-931.15"/>
<path data-id="138-326" d="M1403.37,-901.75,1489.51,-787.62"/>
<path data-id="139-146" d="M1231.70,-947.07,1183.43,-822.34"/>
<path data-id="139-203" d="M1231.70,-947.07,1295.97,-973.78"/>
<path data-id="139-236" d="M1231.70,-947.07,1274.91,-886.42"/>
<path data-id="139-297" d="M1231.70,-947.07,1059.87,-951.08"/>
<path data-id="140-255" d="M452.02,-639.96,400.86,-743.96"/>
<path data-id="140-353" d="M452.02,-639.96,419.98,-616.39"/>
<path data-id="141-223" d="M25.25,-1417.17,157.16,-1448.22"/>
<path data-id="141-277" d="M25.25,-1417.17,48.70,-1283.11"/>
<path data-id="141-372" d="M25.25,-1417.17,1.49,-1279.98"/>
<path data-id="142-143" d="M1221.75,-1727.87,1277.09,-1668.07"/>
<path data-id="142-192" d="M1221.75,-1727.87,1157.88,-1700.19"/>
<path data-id="142-259" d="M1221.75,-1727.87,1154.87,-1725.15"/>
<path data-id="143-278" d="M1277.09,-1668.07,1139.77,-1605.44"/>
<path data-id="144-198" d="M728.15,-806.89,641.80,-870.60"/>
<path data-id="145-184" d="M537.90,-375.58,561.43,-362.55"/>
<path data-id="146-172" d="M1183.43,-822.34,1076.39,-803.24"/>
<path data-id="146-178" d="M1183.43,-822.34,1074.67,-847.68"/>
<path data-id="146-236" d="M1183.43,-822.34,1274.91,-886.42"/>
<path data-id="146-238" d="M1183.43,-822.34,1250.12,-762.78"/>
<path data-id="147-226" d="M207.75,-1806.87,203.42,-1725.76"/>
<path data-id="147-294" d="M207.75,-1806.87,255.06,-1888.09"/>
<path data-id="147-325" d="M207.75,-1806.87,129.01,-1738.61"/>
<path data-id="147-342" d="M207.75,-1806.87,83.41,-1887.19"/>
<path data-id="148-197" d="M1368.87,-886.02,1330.63,-912.11"/>
<path data-id="148-287" d="M1368.87,-886.02,1353.28,-931.15"/>
<path data-id="149-219" d="M1806.73,-1870.98,1874.49,-1818.20"/>
<path data-id="149-227" d="M1806.73,-1870.98,1762.15,-1734.26"/>
<path data-id="150-181" d="M1802.35,-946.22,1784.74,-1103.76"/>
<path data-id="151-346" d="M68.94,-66.45,45.24,-42.24"/>
<path data-id="152-179" d="M360.70,-131.83,267.95,-170.41"/>
<path data-id="152-285" d="M360.70,-131.83,322.94,-60.39"/>
<path data-id="152-374" d="M360.70,-131.83,421.11,-121.10"/>
<path data-id="153-174" d="M1876.94,-1115.65,1896.12,-1182.13"/>
<path data-id="153-181" d="M1876.94,-1115.65,1784.74,-1103.76"/>
<path data-id="154-179" d="M281.81,-40.39,267.95,-170.41"/>
<path data-id="154-285" d="M281.81,-40.39,322.94,-60.39"/>
<path data-id="155-229" d="M80.61,-974.34,77.92,-921.53"/>
<path data-id="155-341" d="M80.61,-974.34,47.67,-1000.80"/>
<path data-id="156-193" d="M466.74,-1728.11,378.06,-1710.53"/>
<path data-id="156-252" d="M466.74,-1728.11,446.44,-1914.69"/>
<path data-id="156-358" d="M466.74,-1728.11,536.30,-1729.48"/>
<path data-id="157-170" d="M676.92,-1307.38,667.67,-1196.64"/>
<path data-id="157-208" d="M676.92,-1307.38,704.17,-1354.21"/>
<path data-id="157-247" d="M676.92,-1307.38,657.77,-1368.65"/>
<path data-id="157-317" d="M676.92,-1307.38,767.48,-1311.17"/>
<path data-id="157-322" d="M676.92,-1307.38,617.71,-1346.48"/>
<path data-id="158-174" d="M1804.95,-1282.44,1896.12,-1182.13"/>
<path data-id="158-181" d="M1804.95,-1282.44,1784.74,-1103.76"/>
<path data-id="158-315" d="M1804.95,-1282.44,1785.35,-1310.70"/>
<path data-id="159-184" d="M623.63,-294.86,561.43,-362.55"/>
<path data-id="159-233" d="M623.63,-294.86,637.57,-212.86"/>
<path data-id="160-327" d="M1896.16,-1504.43,1900.33,-1470.04"/>
<path data-id="161-324" d="M949.74,-263.73,983.47,-229.30"/>
<path data-id="162-207" d="M1398.28,-1689.93,1355.19,-1646.79"/>
<path data-id="162-347" d="M1398.28,-1689.93,1429.01,-1679.50"/>
<path data-id="163-188" d="M689.98,-578.76,693.30,-678.15"/>
<path data-id="163-195" d="M689.98,-578.76,823.20,-568.96"/>
<path data-id="163-210" d="M689.98,-578.76,732.88,-674.50"/>
<path data-id="164-260" d="M1557.29,-882.10,1708.28,-820.94"/>
<path data-id="164-333" d="M1557.29,-882.10,1613.12,-989.16"/>
<path data-id="165-204" d="M339.59,-1350.44,248.81,-1238.74"/>
<path data-id="165-240" d="M339.59,-1350.44,213.23,-1349.09"/>
<path data-id="165-284" d="M339.59,-1350.44,398.97,-1146.95"/>
<path data-id="165-305" d="M339.59,-1350.44,335.03,-1383.18"/>
<path data-id="166-267" d="M1216.96,-58.34,1289.59,-128.93"/>
<path data-id="166-330" d="M1216.96,-58.34,1110.24,-16.09"/>
<path data-id="167-331" d="M188.40,-811.75,74.95,-860.88"/>
<path data-id="167-359" d="M188.40,-811.75,217.18,-820.24"/>
<path data-id="168-187" d="M1269.15,-559.99,1264.49,-521.53"/>
<path data-id="168-196" d="M1269.15,-559.99,1353.18,-574.26"/>
<path data-id="168-373" d="M1269.15,-559.99,1295.44,-674.26"/>
<path data-id="169-198" d="M575.20,-703.43,641.80,-870.60"/>
<path data-id="170-257" d="M667.67,-1196.64,776.94,-1163.87"/>
<path data-id="170-345" d="M667.67,-1196.64,600.45,-1063.12"/>
<path data-id="171-202" d="M1924.49,-1.09,1870.47,-100.43"/>
<path data-id="172-178" d="M1076.39,-803.24,1074.67,-847.68"/>
<path data-id="173-270" d="M851.71,-776.66,856.55,-827.31"/>
<path data-id="173-290" d="M851.71,-776.66,905.27,-706.68"/>
<path data-id="175-195" d="M1046.91,-519.83,823.20,-568.96"/>
<path data-id="175-230" d="M1046.91,-519.83,1076.68,-563.80"/>
<path data-id="177-230" d="M1156.13,-569.23,1076.68,-563.80"/>
<path data-id="178-297" d="M1074.67,-847.68,1059.87,-951.08"/>
<path data-id="179-285" d="M267.95,-170.41,322.94,-60.39"/>
<path data-id="181-308" d="M1784.74,-1103.76,1688.44,-1286.60"/>
<path data-id="182-199" d="M1218.41,-1142.96,1163.31,-1123.59"/>
<path data-id="183-249" d="M1426.28,-184.89,1473.60,-116.06"/>
<path data-id="183-267" d="M1426.28,-184.89,1289.59,-128.93"/>
<path data-id="183-307" d="M1426.28,-184.89,1391.32,-267.51"/>
<path data-id="185-364" d="M1840.73,-1553.13,1893.12,-1635.25"/>
<path data-id="186-216" d="M663.73,-1730.62,715.96,-1869.82"/>
<path data-id="186-351" d="M663.73,-1730.62,607.45,-1703.08"/>
<path data-id="187-334" d="M1264.49,-521.53,1293.66,-501.81"/>
<path data-id="188-210" d="M693.30,-678.15,732.88,-674.50"/>
<path data-id="189-201" d="M1472.10,-1314.58,1561.28,-1416.07"/>
<path data-id="190-337" d="M1560.24,-1870.90,1532.30,-1867.62"/>
<path data-id="191-311" d="M518.38,-1117.70,434.23,-1079.72"/>
<path data-id="191-350" d="M518.38,-1117.70,516.39,-1071.17"/>
<path data-id="192-253" d="M1157.88,-1700.19,1089.97,-1699.42"/>
<path data-id="192-259" d="M1157.88,-1700.19,1154.87,-1725.15"/>
<path data-id="192-278" d="M1157.88,-1700.19,1139.77,-1605.44"/>
<path data-id="193-354" d="M378.06,-1710.53,362.14,-1637.58"/>
<path data-id="194-310" d="M1136.27,-1417.66,1111.35,-1385.10"/>
<path data-id="195-210" d="M823.20,-568.96,732.88,-674.50"/>
<path data-id="195-290" d="M823.20,-568.96,905.27,-706.68"/>
<path data-id="196-299" d="M1353.18,-574.26,1410.24,-622.68"/>
<path data-id="196-304" d="M1353.18,-574.26,1343.88,-483.06"/>
<path data-id="196-334" d="M1353.18,-574.26,1293.66,-501.81"/>
<path data-id="196-373" d="M1353.18,-574.26,1295.44,-674.26"/>
<path data-id="197-203" d="M1330.63,-912.11,1295.97,-973.78"/>
<path data-id="197-236" d="M1330.63,-912.11,1274.91,-886.42"/>
<path data-id="197-287" d="M1330.63,-912.11,1353.28,-931.15"/>
<path data-id="199-289" d="M1163.31,-1123.59,1066.47,-1153.11"/>
<path data-id="200-215" d="M1305.89,-1902.53,1226.34,-1928.15"/>
<path data-id="200-224" d="M1305.89,-1902.53,1257.82,-1806.97"/>
<path data-id="200-360" d="M1305.89,-1902.53,1440.66,-1817.96"/>
<path data-id="201-308" d="M1561.28,-1416.07,1688.44,-1286.60"/>
<path data-id="202-221" d="M1870.47,-100.43,1668.44,-67.00"/>
<path data-id="202-336" d="M1870.47,-100.43,1799.52,-213.00"/>
<path data-id="203-235" d="M1295.97,-973.78,1293.13,-1056.38"/>
<path data-id="203-236" d="M1295.97,-973.78,1274.91,-886.42"/>
<path data-id="203-287" d="M1295.97,-973.78,1353.28,-931.15"/>
<path data-id="204-205" d="M248.81,-1238.74,320.73,-1149.90"/>
<path data-id="204-240" d="M248.81,-1238.74,213.23,-1349.09"/>
<path data-id="204-282" d="M248.81,-1238.74,176.92,-1048.40"/>
<path data-id="205-212" d="M320.73,-1149.90,342.58,-1051.38"/>
<path data-id="205-218" d="M320.73,-1149.90,396.45,-1083.05"/>
<path data-id="205-284" d="M320.73,-1149.90,398.97,-1146.95"/>
<path data-id="205-339" d="M320.73,-1149.90,242.02,-1042.13"/>
<path data-id="206-213" d="M881.05,-1333.06,861.35,-1502.88"/>
<path data-id="206-288" d="M881.05,-1333.06,984.06,-1307.70"/>
<path data-id="206-355" d="M881.05,-1333.06,938.37,-1483.34"/>
<path data-id="208-213" d="M704.17,-1354.21,861.35,-1502.88"/>
<path data-id="208-247" d="M704.17,-1354.21,657.77,-1368.65"/>
<path data-id="208-317" d="M704.17,-1354.21,767.48,-1311.17"/>
<path data-id="208-371" d="M704.17,-1354.21,736.61,-1566.40"/>
<path data-id="209-228" d="M1739.72,-349.30,1739.30,-536.41"/>
<path data-id="209-306" d="M1739.72,-349.30,1830.85,-243.73"/>
<path data-id="209-363" d="M1739.72,-349.30,1583.77,-455.69"/>
<path data-id="209-368" d="M1739.72,-349.30,1874.73,-482.79"/>
<path data-id="211-255" d="M375.88,-826.76,400.86,-743.96"/>
<path data-id="212-218" d="M342.58,-1051.38,396.45,-1083.05"/>
<path data-id="212-248" d="M342.58,-1051.38,280.05,-991.91"/>
<path data-id="212-339" d="M342.58,-1051.38,242.02,-1042.13"/>
<path data-id="213-280" d="M861.35,-1502.88,756.00,-1586.60"/>
<path data-id="213-355" d="M861.35,-1502.88,938.37,-1483.34"/>
<path data-id="214-228" d="M1553.67,-612.43,1739.30,-536.41"/>
<path data-id="214-237" d="M1553.67,-612.43,1567.90,-641.89"/>
<path data-id="214-299" d="M1553.67,-612.43,1410.24,-622.68"/>
<path data-id="215-224" d="M1226.34,-1928.15,1257.82,-1806.97"/>
<path data-id="217-226" d="M194.24,-1685.23,203.42,-1725.76"/>
<path data-id="217-319" d="M194.24,-1685.23,196.91,-1653.87"/>
<path data-id="217-340" d="M194.24,-1685.23,165.94,-1694.32"/>
<path data-id="218-284" d="M396.45,-1083.05,398.97,-1146.95"/>
<path data-id="218-311" d="M396.45,-1083.05,434.23,-1079.72"/>
<path data-id="219-227" d="M1874.49,-1818.20,1762.15,-1734.26"/>
<path data-id="219-254" d="M1874.49,-1818.20,1902.44,-1782.27"/>
<path data-id="220-244" d="M1030.42,-1099.03,1011.97,-1036.69"/>
<path data-id="220-289" d="M1030.42,-1099.03,1066.47,-1153.11"/>
<path data-id="220-293" d="M1030.42,-1099.03,866.84,-1218.33"/>
<path data-id="221-266" d="M1668.44,-67.00,1617.01,-146.94"/>
<path data-id="221-336" d="M1668.44,-67.00,1799.52,-213.00"/>
<path data-id="222-321" d="M385.40,-402.95,417.26,-444.64"/>
<path data-id="222-328" d="M385.40,-402.95,357.61,-406.91"/>
<path data-id="223-240" d="M157.16,-1448.22,213.23,-1349.09"/>
<path data-id="225-250" d="M1519.84,-1696.78,1504.50,-1667.43"/>
<path data-id="225-314" d="M1519.84,-1696.78,1580.90,-1641.83"/>
<path data-id="225-337" d="M1519.84,-1696.78,1532.30,-1867.62"/>
<path data-id="225-360" d="M1519.84,-1696.78,1440.66,-1817.96"/>
<path data-id="226-291" d="M203.42,-1725.76,347.93,-1787.86"/>
<path data-id="226-325" d="M203.42,-1725.76,129.01,-1738.61"/>
<path data-id="226-340" d="M203.42,-1725.76,165.94,-1694.32"/>
<path data-id="227-271" d="M1762.15,-1734.26,1651.46,-1572.86"/>
<path data-id="228-363" d="M1739.30,-536.41,1583.77,-455.69"/>
<path data-id="228-370" d="M1739.30,-536.41,1661.85,-673.67"/>
<path data-id="229-331" d="M77.92,-921.53,74.95,-860.88"/>
<path data-id="231-342" d="M37.25,-1919.51,83.41,-1887.19"/>
<path data-id="232-248" d="M256.59,-907.60,280.05,-991.91"/>
<path data-id="232-352" d="M256.59,-907.60,325.04,-928.85"/>
<path data-id="233-265" d="M637.57,-212.86,559.97,-42.70"/>
<path data-id="234-256" d="M1889.62,-772.41,1924.15,-768.22"/>
<path data-id="234-260" d="M1889.62,-772.41,1708.28,-820.94"/>
<path data-id="235-292" d="M1293.13,-1056.38,1390.56,-1100.38"/>
<path data-id="237-332" d="M1567.90,-641.89,1598.00,-676.27"/>
<path data-id="238-246" d="M1250.12,-762.78,1315.24,-755.23"/>
<path data-id="238-373" d="M1250.12,-762.78,1295.44,-674.26"/>
<path data-id="239-268" d="M1538.80,-371.67,1557.83,-336.39"/>
<path data-id="239-363" d="M1538.80,-371.67,1583.77,-455.69"/>
<path data-id="240-305" d="M213.23,-1349.09,335.03,-1383.18"/>
<path data-id="241-293" d="M825.47,-1276.59,866.84,-1218.33"/>
<path data-id="241-329" d="M825.47,-1276.59,820.26,-1207.56"/>
<path data-id="242-279" d="M1199.72,-1293.85,1209.03,-1333.59"/>
<path data-id="243-319" d="M320.78,-1622.09,196.91,-1653.87"/>
<path data-id="243-354" d="M320.78,-1622.09,362.14,-1637.58"/>
<path data-id="244-295" d="M1011.97,-1036.69,916.25,-935.25"/>
<path data-id="244-297" d="M1011.97,-1036.69,1059.87,-951.08"/>
<path data-id="245-264" d="M1797.59,-1349.88,1817.34,-1415.87"/>
<path data-id="245-315" d="M1797.59,-1349.88,1785.35,-1310.70"/>
<path data-id="246-326" d="M1315.24,-755.23,1489.51,-787.62"/>
<path data-id="246-373" d="M1315.24,-755.23,1295.44,-674.26"/>
<path data-id="247-322" d="M657.77,-1368.65,617.71,-1346.48"/>
<path data-id="248-339" d="M280.05,-991.91,242.02,-1042.13"/>
<path data-id="248-352" d="M280.05,-991.91,325.04,-928.85"/>
<path data-id="249-320" d="M1473.60,-116.06,1452.95,-96.24"/>
<path data-id="250-314" d="M1504.50,-1667.43,1580.90,-1641.83"/>
<path data-id="251-263" d="M466.75,-468.37,551.43,-571.81"/>
<path data-id="251-321" d="M466.75,-468.37,417.26,-444.64"/>
<path data-id="252-338" d="M446.44,-1914.69,323.58,-1931.55"/>
<path data-id="253-273" d="M1089.97,-1699.42,1066.10,-1766.10"/>
<path data-id="253-278" d="M1089.97,-1699.42,1139.77,-1605.44"/>
<path data-id="253-323" d="M1089.97,-1699.42,1112.32,-1744.06"/>
<path data-id="255-298" d="M400.86,-743.96,360.90,-680.97"/>
<path data-id="257-258" d="M776.94,-1163.87,772.23,-1049.39"/>
<path data-id="257-329" d="M776.94,-1163.87,820.26,-1207.56"/>
<path data-id="258-295" d="M772.23,-1049.39,916.25,-935.25"/>
<path data-id="258-362" d="M772.23,-1049.39,655.52,-972.16"/>
<path data-id="259-323" d="M1154.87,-1725.15,1112.32,-1744.06"/>
<path data-id="260-370" d="M1708.28,-820.94,1661.85,-673.67"/>
<path data-id="261-276" d="M542.49,-1352.52,521.80,-1445.99"/>
<path data-id="261-296" d="M542.49,-1352.52,461.87,-1366.14"/>
<path data-id="261-302" d="M542.49,-1352.52,509.89,-1209.25"/>
<path data-id="261-322" d="M542.49,-1352.52,617.71,-1346.48"/>
<path data-id="262-357" d="M493.25,-898.36,471.98,-840.19"/>
<path data-id="264-281" d="M1817.34,-1415.87,1665.79,-1466.46"/>
<path data-id="264-327" d="M1817.34,-1415.87,1900.33,-1470.04"/>
<path data-id="265-374" d="M559.97,-42.70,421.11,-121.10"/>
<path data-id="266-316" d="M1617.01,-146.94,1596.39,-282.62"/>
<path data-id="267-320" d="M1289.59,-128.93,1452.95,-96.24"/>
<path data-id="268-316" d="M1557.83,-336.39,1596.39,-282.62"/>
<path data-id="269-321" d="M356.01,-482.93,417.26,-444.64"/>
<path data-id="269-328" d="M356.01,-482.93,357.61,-406.91"/>
<path data-id="269-356" d="M356.01,-482.93,256.21,-537.47"/>
<path data-id="270-295" d="M856.55,-827.31,916.25,-935.25"/>
<path data-id="271-314" d="M1651.46,-1572.86,1580.90,-1641.83"/>
<path data-id="272-279" d="M1279.68,-1350.65,1209.03,-1333.59"/>
<path data-id="272-366" d="M1279.68,-1350.65,1344.06,-1253.53"/>
<path data-id="273-323" d="M1066.10,-1766.10,1112.32,-1744.06"/>
<path data-id="273-349" d="M1066.10,-1766.10,1066.21,-1838.19"/>
<path data-id="275-355" d="M1090.42,-1464.46,938.37,-1483.34"/>
<path data-id="276-286" d="M521.80,-1445.99,605.50,-1491.62"/>
<path data-id="276-296" d="M521.80,-1445.99,461.87,-1366.14"/>
<path data-id="276-354" d="M521.80,-1445.99,362.14,-1637.58"/>
<path data-id="277-282" d="M48.70,-1283.11,176.92,-1048.40"/>
<path data-id="277-341" d="M48.70,-1283.11,47.67,-1000.80"/>
<path data-id="277-372" d="M48.70,-1283.11,1.49,-1279.98"/>
<path data-id="280-371" d="M756.00,-1586.60,736.61,-1566.40"/>
<path data-id="281-308" d="M1665.79,-1466.46,1688.44,-1286.60"/>
<path data-id="282-339" d="M176.92,-1048.40,242.02,-1042.13"/>
<path data-id="283-286" d="M614.62,-1555.22,605.50,-1491.62"/>
<path data-id="283-361" d="M614.62,-1555.22,583.79,-1583.33"/>
<path data-id="283-371" d="M614.62,-1555.22,736.61,-1566.40"/>
<path data-id="284-302" d="M398.97,-1146.95,509.89,-1209.25"/>
<path data-id="288-289" d="M984.06,-1307.70,1066.47,-1153.11"/>
<path data-id="288-310" d="M984.06,-1307.70,1111.35,-1385.10"/>
<path data-id="288-355" d="M984.06,-1307.70,938.37,-1483.34"/>
<path data-id="289-293" d="M1066.47,-1153.11,866.84,-1218.33"/>
<path data-id="292-366" d="M1390.56,-1100.38,1344.06,-1253.53"/>
<path data-id="293-329" d="M866.84,-1218.33,820.26,-1207.56"/>
<path data-id="294-338" d="M255.06,-1888.09,323.58,-1931.55"/>
<path data-id="294-342" d="M255.06,-1888.09,83.41,-1887.19"/>
<path data-id="295-297" d="M916.25,-935.25,1059.87,-951.08"/>
<path data-id="295-312" d="M916.25,-935.25,956.88,-873.63"/>
<path data-id="296-302" d="M461.87,-1366.14,509.89,-1209.25"/>
<path data-id="298-353" d="M360.90,-680.97,419.98,-616.39"/>
<path data-id="298-356" d="M360.90,-680.97,256.21,-537.47"/>
<path data-id="299-326" d="M1410.24,-622.68,1489.51,-787.62"/>
<path data-id="299-373" d="M1410.24,-622.68,1295.44,-674.26"/>
<path data-id="300-367" d="M49.55,-490.66,0.72,-857.45"/>
<path data-id="303-313" d="M200.47,-358.64,190.32,-289.22"/>
<path data-id="304-334" d="M1343.88,-483.06,1293.66,-501.81"/>
<path data-id="305-318" d="M335.03,-1383.18,356.75,-1449.33"/>
<path data-id="306-336" d="M1830.85,-243.73,1799.52,-213.00"/>
<path data-id="307-365" d="M1391.32,-267.51,1388.72,-302.44"/>
<path data-id="308-315" d="M1688.44,-1286.60,1785.35,-1310.70"/>
<path data-id="308-335" d="M1688.44,-1286.60,1551.76,-1192.66"/>
<path data-id="309-356" d="M204.37,-477.86,256.21,-537.47"/>
<path data-id="311-350" d="M434.23,-1079.72,516.39,-1071.17"/>
<path data-id="312-343" d="M956.88,-873.63,936.08,-831.84"/>
<path data-id="316-344" d="M1596.39,-282.62,1641.40,-300.44"/>
<path data-id="325-340" d="M129.01,-1738.61,165.94,-1694.32"/>
<path data-id="325-342" d="M129.01,-1738.61,83.41,-1887.19"/>
<path data-id="326-332" d="M1489.51,-787.62,1598.00,-676.27"/>
<path data-id="331-367" d="M74.95,-860.88,0.72,-857.45"/>
<path data-id="332-370" d="M1598.00,-676.27,1661.85,-673.67"/>
<path data-id="341-372" d="M47.67,-1000.80,1.49,-1279.98"/>
<path data-id="345-350" d="M600.45,-1063.12,516.39,-1071.17"/>
<path data-id="351-358" d="M607.45,-1703.08,536.30,-1729.48"/>
<path data-id="351-361" d="M607.45,-1703.08,583.79,-1583.33"/>
<path data-id="351-371" d="M607.45,-1703.08,736.61,-1566.40"/>
<path data-id="354-361" d="M362.14,-1637.58,583.79,-1583.33"/>
<circle data-id="0" cx="1091.18" cy="-613.69" r="10.00px"/>
<text data-id="0" x="1091.18" y="-613.69">R0</text>
<circle data-id="1" cx="912.68" cy="-1696.14" r="10.00px"/>
<text data-id="1" x="912.68" y="-1696.14">R1</text>
<circle data-id="2" cx="274.78" cy="-838.87" r="10.00px"/>
<text data-id="2" x="274.78" y="-838.87">R2</text>
<circle data-id="3" cx="1835.58" cy="-949.46" r="10.00px"/>
<text data-id="3" x="1835.58" y="-949.46">R3</text>
<circle data-id="4" cx="212.32" cy="-424.09" r="10.00px"/>
<text data-id="4" x="212.32" y="-424.09">R4</text>
<circle data-id="5" cx="1800.19" cy="-1603.42" r="10.00px"/>
<text data-id="5" x="1800.19" y="-1603.42">R5</text>
<circle data-id="6" cx="1282.47" cy="-1432.95" r="10.00px"/>
<text data-id="6" x="1282.47" y="-1432.95">R6</text>
<circle data-id="7" cx="534.22" cy="-877.97" r="10.00px"/>
<text data-id="7" x="534.22" y="-877.97">R7</text>
<circle data-id="8" cx="787.63" cy="-827.31" r="10.00px"/>
<text data-id="8" x="787.63" y="-827.31">R8</text>
<circle data-id="9" cx="538.87" cy="-407.31" r="10.00px"/>
<text data-id="9" x="538.87" y="-407.31">R9</text>
<circle data-id="10" cx="1214.27" cy="-1490.00" r="10.00px"/>
<text data-id="10" x="1214.27" y="-1490.00">R10</text>
<circle data-id="11" cx="429.15" cy="-979.56" r="10.00px"/>
<text data-id="11" x="429.15" y="-979.56">R11</text>
<circle data-id="12" cx="1624.44" cy="-1018.17" r="10.00px"/>
<text data-id="12" x="1624.44" y="-1018.17">R12</text>
<circle data-id="13" cx="1251.40" cy="-15.28" r="10.00px"/>
<text data-id="13" x="1251.40" y="-15.28">R13</text>
<circle data-id="14" cx="1120.40" cy="-1471.85" r="10.00px"/>
<text data-id="14" x="1120.40" y="-1471.85">R14</text>
<circle data-id="15" cx="1672.49" cy="-1755.26" r="10.00px"/>
<text data-id="15" x="1672.49" y="-1755.26">R15</text>
<circle data-id="16" cx="365.42" cy="-315.78" r="10.00px"/>
<text data-id="16" x="365.42" y="-315.78">R16</text>
<circle data-id="17" cx="231.25" cy="-380.80" r="10.00px"/>
<text data-id="17" x="231.25" y="-380.80">R17</text>
<circle data-id="18" cx="291.16" cy="-1847.49" r="10.00px"/>
<text data-id="18" x="291.16" y="-1847.49">R18</text>
<circle data-id="19" cx="1628.62" cy="-1457.57" r="10.00px"/>
<text data-id="19" x="1628.62" y="-1457.57">R19</text>
<circle data-id="20" cx="1375.94" cy="-1481.10" r="10.00px"/>
<text data-id="20" x="1375.94" y="-1481.10">R20</text>
<circle data-id="21" cx="1527.51" cy="-1257.04" r="10.00px"/>
<text data-id="21" x="1527.51" y="-1257.04">R21</text>
<circle data-id="22" cx="1726.28" cy="-928.50" r="10.00px"/>
<text data-id="22" x="1726.28" y="-928.50">R22</text>
<circle data-id="23" cx="493.84" cy="-773.03" r="10.00px"/>
<text data-id="23" x="493.84" y="-773.03">R23</text>
<circle data-id="24" cx="39.27" cy="-141.69" r="10.00px"/>
<text data-id="24" x="39.27" y="-141.69">R24</text>
<circle data-id="25" cx="1227.19" cy="-553.99" r="10.00px"/>
<text data-id="25" x="1227.19" y="-553.99">R25</text>
<circle data-id="26" cx="1112.87" cy="-1827.47" r="10.00px"/>
<text data-id="26" x="1112.87" y="-1827.47">R26</text>
<circle data-id="27" cx="530.85" cy="-1162.29" r="10.00px"/>
<text data-id="27" x="530.85" y="-1162.29">R27</text>
<circle data-id="28" cx="641.43" cy="-457.16" r="10.00px"/>
<text data-id="28" x="641.43" y="-457.16">R28</text>
<circle data-id="29" cx="1550.05" cy="-1446.24" r="10.00px"/>
<text data-id="29" x="1550.05" y="-1446.24">R29</text>
<circle data-id="30" cx="1893.06" cy="-1674.54" r="10.00px"/>
<text data-id="30" x="1893.06" y="-1674.54">R30</text>
<circle data-id="31" cx="29.58" cy="-1895.35" r="10.00px"/>
<text data-id="31" x="29.58" y="-1895.35">R31</text>
<circle data-id="32" cx="1885.26" cy="-613.40" r="10.00px"/>
<text data-id="32" x="1885.26" y="-613.40">R32</text>
<circle data-id="33" cx="1050.27" cy="-475.51" r="10.00px"/>
<text data-id="33" x="1050.27" y="-475.51">R33</text>
<circle data-id="34" cx="1560.36" cy="-1024.61" r="10.00px"/>
<text data-id="34" x="1560.36" y="-1024.61">R34</text>
<circle data-id="35" cx="417.47" cy="-835.42" r="10.00px"/>
<text data-id="35" x="417.47" y="-835.42">R35</text>
<circle data-id="36" cx="359.97" cy="-1748.22" r="10.00px"/>
<text data-id="36" x="359.97" y="-1748.22">R36</text>
<circle data-id="37" cx="975.72" cy="-1690.33" r="10.00px"/>
<text data-id="37" x="975.72" y="-1690.33">R37</text>
<circle data-id="38" cx="21.76" cy="-323.51" r="10.00px"/>
<text data-id="38" x="21.76" y="-323.51">R38</text>
<circle data-id="39" cx="766.62" cy="-1728.24" r="10.00px"/>
<text data-id="39" x="766.62" y="-1728.24">R39</text>
<circle data-id="40" cx="864.82" cy="-1814.56" r="10.00px"/>
<text data-id="40" x="864.82" y="-1814.56">R40</text>
<circle data-id="41" cx="1677.30" cy="-1552.67" r="10.00px"/>
<text data-id="41" x="1677.30" y="-1552.67">R41</text>
<circle data-id="42" cx="426.30" cy="-1391.50" r="10.00px"/>
<text data-id="42" x="426.30" y="-1391.50">R42</text>
<circle data-id="43" cx="1377.06" cy="-978.15" r="10.00px"/>
<text data-id="43" x="1377.06" y="-978.15">R43</text>
<circle data-id="44" cx="1500.03" cy="-179.54" r="10.00px"/>
<text data-id="44" x="1500.03" y="-179.54">R44</text>
<circle data-id="45" cx="1310.58" cy="-1680.07" r="10.00px"/>
<text data-id="45" x="1310.58" y="-1680.07">R45</text>
<circle data-id="46" cx="1875.33" cy="-1533.64" r="10.00px"/>
<text data-id="46" x="1875.33" y="-1533.64">R46</text>
<circle data-id="47" cx="164.65" cy="-537.12" r="10.00px"/>
<text data-id="47" x="164.65" y="-537.12">R47</text>
<circle data-id="48" cx="1116.55" cy="-1303.46" r="10.00px"/>
<text data-id="48" x="1116.55" y="-1303.46">R48</text>
<circle data-id="49" cx="1181.32" cy="-1530.48" r="10.00px"/>
<text data-id="49" x="1181.32" y="-1530.48">R49</text>
<circle data-id="50" cx="390.01" cy="-899.81" r="10.00px"/>
<text data-id="50" x="390.01" y="-899.81">R50</text>
<circle data-id="51" cx="1536.43" cy="-100.02" r="10.00px"/>
<text data-id="51" x="1536.43" y="-100.02">R51</text>
<circle data-id="52" cx="1472.85" cy="-270.62" r="10.00px"/>
<text data-id="52" x="1472.85" y="-270.62">R52</text>
<circle data-id="53" cx="508.43" cy="-1901.71" r="10.00px"/>
<text data-id="53" x="508.43" y="-1901.71">R53</text>
<circle data-id="54" cx="1560.78" cy="-1607.09" r="10.00px"/>
<text data-id="54" x="1560.78" y="-1607.09">R54</text>
<circle data-id="55" cx="226.68" cy="-287.08" r="10.00px"/>
<text data-id="55" x="226.68" y="-287.08">R55</text>
<circle data-id="56" cx="178.62" cy="-7.98" r="10.00px"/>
<text data-id="56" x="178.62" y="-7.98">R56</text>
<circle data-id="57" cx="877.86" cy="-348.79" r="10.00px"/>
<text data-id="57" x="877.86" y="-348.79">R57</text>
<circle data-id="58" cx="1298.26" cy="-1374.02" r="10.00px"/>
<text data-id="58" x="1298.26" y="-1374.02">R58</text>
<circle data-id="59" cx="668.58" cy="-938.49" r="10.00px"/>
<text data-id="59" x="668.58" y="-938.49">R59</text>
<circle data-id="60" cx="1176.57" cy="-719.07" r="10.00px"/>
<text data-id="60" x="1176.57" y="-719.07">R60</text>
<circle data-id="61" cx="1560.73" cy="-499.32" r="10.00px"/>
<text data-id="61" x="1560.73" y="-499.32">R61</text>
<circle data-id="62" cx="1215.65" cy="-1545.21" r="10.00px"/>
<text data-id="62" x="1215.65" y="-1545.21">R62</text>
<circle data-id="63" cx="1058.50" cy="-67.12" r="10.00px"/>
<text data-id="63" x="1058.50" y="-67.12">R63</text>
<circle data-id="64" cx="383.92" cy="-285.11" r="10.00px"/>
<text data-id="64" x="383.92" y="-285.11">R64</text>
<circle data-id="65" cx="1177.95" cy="-417.12" r="10.00px"/>
<text data-id="65" x="1177.95" y="-417.12">R65</text>
<circle data-id="66" cx="1136.19" cy="-413.18" r="10.00px"/>
<text data-id="66" x="1136.19" y="-413.18">R66</text>
<circle data-id="67" cx="820.29" cy="-766.23" r="10.00px"/>
<text data-id="67" x="820.29" y="-766.23">R67</text>
<circle data-id="68" cx="1422.86" cy="-456.40" r="10.00px"/>
<text data-id="68" x="1422.86" y="-456.40">R68</text>
<circle data-id="69" cx="1296.64" cy="-202.05" r="10.00px"/>
<text data-id="69" x="1296.64" y="-202.05">R69</text>
<circle data-id="70" cx="119.85" cy="-959.15" r="10.00px"/>
<text data-id="70" x="119.85" y="-959.15">R70</text>
<circle data-id="71" cx="1067.22" cy="-641.96" r="10.00px"/>
<text data-id="71" x="1067.22" y="-641.96">R71</text>
<circle data-id="72" cx="1866.47" cy="-666.22" r="10.00px"/>
<text data-id="72" x="1866.47" y="-666.22">R72</text>
<circle data-id="73" cx="1025.19" cy="-643.82" r="10.00px"/>
<text data-id="73" x="1025.19" y="-643.82">R73</text>
<circle data-id="74" cx="1391.66" cy="-1744.43" r="10.00px"/>
<text data-id="74" x="1391.66" y="-1744.43">R74</text>
<circle data-id="75" cx="250.57" cy="-205.27" r="10.00px"/>
<text data-id="75" x="250.57" y="-205.27">R75</text>
<circle data-id="76" cx="636.24" cy="-638.41" r="10.00px"/>
<text data-id="76" x="636.24" y="-638.41">R76</text>
<circle data-id="77" cx="792.31" cy="-1871.07" r="10.00px"/>
<text data-id="77" x="792.31" y="-1871.07">R77</text>
<circle data-id="78" cx="581.19" cy="-1393.08" r="10.00px"/>
<text data-id="78" x="581.19" y="-1393.08">R78</text>
<circle data-id="79" cx="735.20" cy="-701.95" r="10.00px"/>
<text data-id="79" x="735.20" y="-701.95">R79</text>
<circle data-id="80" cx="314.02" cy="-1577.36" r="10.00px"/>
<text data-id="80" x="314.02" y="-1577.36">R80</text>
<circle data-id="81" cx="785.19" cy="-1626.62" r="10.00px"/>
<text data-id="81" x="785.19" y="-1626.62">R81</text>
<circle data-id="82" cx="196.51" cy="-65.80" r="10.00px"/>
<text data-id="82" x="196.51" y="-65.80">R82</text>
<circle data-id="83" cx="1117.79" cy="-634.51" r="10.00px"/>
<text data-id="83" x="1117.79" y="-634.51">R83</text>
<circle data-id="84" cx="170.16" cy="-1342.76" r="10.00px"/>
<text data-id="84" x="170.16" y="-1342.76">R84</text>
<circle data-id="85" cx="394.81" cy="-518.43" r="10.00px"/>
<text data-id="85" x="394.81" y="-518.43">R85</text>
<circle data-id="86" cx="1441.42" cy="-1277.51" r="10.00px"/>
<text data-id="86" x="1441.42" y="-1277.51">R86</text>
<circle data-id="87" cx="1904.28" cy="-1083.33" r="10.00px"/>
<text data-id="87" x="1904.28" y="-1083.33">R87</text>
<circle data-id="88" cx="1193.95" cy="-1399.75" r="10.00px"/>
<text data-id="88" x="1193.95" y="-1399.75">R88</text>
<circle data-id="89" cx="1175.79" cy="-1853.31" r="10.00px"/>
<text data-id="89" x="1175.79" y="-1853.31">R89</text>
<circle data-id="90" cx="1911.95" cy="-1893.26" r="10.00px"/>
<text data-id="90" x="1911.95" y="-1893.26">R90</text>
<circle data-id="91" cx="620.05" cy="-1007.11" r="10.00px"/>
<text data-id="91" x="620.05" y="-1007.11">R91</text>
<circle data-id="92" cx="1241.84" cy="-1067.39" r="10.00px"/>
<text data-id="92" x="1241.84" y="-1067.39">R92</text>
<circle data-id="93" cx="991.60" cy="-1754.91" r="10.00px"/>
<text data-id="93" x="991.60" y="-1754.91">R93</text>
<circle data-id="94" cx="823.50" cy="-710.37" r="10.00px"/>
<text data-id="94" x="823.50" y="-710.37">R94</text>
<circle data-id="95" cx="720.82" cy="-1905.68" r="10.00px"/>
<text data-id="95" x="720.82" y="-1905.68">R95</text>
<circle data-id="96" cx="1669.10" cy="-1068.71" r="10.00px"/>
<text data-id="96" x="1669.10" y="-1068.71">R96</text>
<circle data-id="97" cx="487.94" cy="-643.89" r="10.00px"/>
<text data-id="97" x="487.94" y="-643.89">R97</text>
<circle data-id="98" cx="948.30" cy="-1898.29" r="10.00px"/>
<text data-id="98" x="948.30" y="-1898.29">R98</text>
<circle data-id="99" cx="856.17" cy="-3.60" r="10.00px"/>
<text data-id="99" x="856.17" y="-3.60">R99</text>
<circle data-id="100" cx="155.63" cy="-1578.15" r="10.00px"/>
<text data-id="100" x="155.63" y="-1578.15">R100</text>
<circle data-id="101" cx="340.85" cy="-1822.55" r="10.00px"/>
<text data-id="101" x="340.85" y="-1822.55">R101</text>
<circle data-id="102" cx="979.86" cy="-860.69" r="10.00px"/>
<text data-id="102" x="979.86" y="-860.69">R102</text>
<circle data-id="103" cx="90.33" cy="-179.58" r="10.00px"/>
<text data-id="103" x="90.33" y="-179.58">R103</text>
<circle data-id="104" cx="1350.78" cy="-1534.72" r="10.00px"/>
<text data-id="104" x="1350.78" y="-1534.72">R104</text>
<circle data-id="105" cx="1722.73" cy="-1870.12" r="10.00px"/>
<text data-id="105" x="1722.73" y="-1870.12">R105</text>
<circle data-id="106" cx="1493.16" cy="-1868.41" r="10.00px"/>
<text data-id="106" x="1493.16" y="-1868.41">R106</text>
<circle data-id="107" cx="678.69" cy="-534.11" r="10.00px"/>
<text data-id="107" x="678.69" y="-534.11">R107</text>
<circle data-id="108" cx="1251.12" cy="-1246.92" r="10.00px"/>
<text data-id="108" x="1251.12" y="-1246.92">R108</text>
<circle data-id="109" cx="587.92" cy="-928.51" r="10.00px"/>
<text data-id="109" x="587.92" y="-928.51">R109</text>
<circle data-id="110" cx="1503.34" cy="-527.92" r="10.00px"/>
<text data-id="110" x="1503.34" y="-527.92">R110</text>
<circle data-id="111" cx="1458.99" cy="-1246.15" r="10.00px"/>
<text data-id="111" x="1458.99" y="-1246.15">R111</text>
<circle data-id="112" cx="543.07" cy="-662.93" r="10.00px"/>
<text data-id="112" x="543.07" y="-662.93">R112</text>
<circle data-id="113" cx="803.53" cy="-1321.14" r="10.00px"/>
<text data-id="113" x="803.53" y="-1321.14">R113</text>
<circle data-id="114" cx="69.25" cy="-456.47" r="10.00px"/>
<text data-id="114" x="69.25" y="-456.47">R114</text>
<circle data-id="115" cx="1625.58" cy="-1073.87" r="10.00px"/>
<text data-id="115" x="1625.58" y="-1073.87">R115</text>
<circle data-id="116" cx="1532.02" cy="-142.73" r="10.00px"/>
<text data-id="116" x="1532.02" y="-142.73">R116</text>
<circle data-id="117" cx="64.13" cy="-1687.03" r="10.00px"/>
<text data-id="117" x="64.13" y="-1687.03">R117</text>
<circle data-id="118" cx="1801.67" cy="-573.12" r="10.00px"/>
<text data-id="118" x="1801.67" y="-573.12">R118</text>
<circle data-id="119" cx="1730.01" cy="-882.71" r="10.00px"/>
<text data-id="119" x="1730.01" y="-882.71">R119</text>
<circle data-id="120" cx="1301.27" cy="-843.93" r="10.00px"/>
<text data-id="120" x="1301.27" y="-843.93">R120</text>
<circle data-id="121" cx="878.15" cy="-1277.38" r="10.00px"/>
<text data-id="121" x="878.15" y="-1277.38">R121</text>
<circle data-id="122" cx="597.53" cy="-222.25" r="10.00px"/>
<text data-id="122" x="597.53" y="-222.25">R122</text>
<circle data-id="123" cx="1931.45" cy="-1146.51" r="10.00px"/>
<text data-id="123" x="1931.45" y="-1146.51">R123</text>
<circle data-id="124" cx="178.50" cy="-1474.00" r="10.00px"/>
<text data-id="124" x="178.50" y="-1474.00">R124</text>
<circle data-id="125" cx="1504.11" cy="-1077.93" r="10.00px"/>
<text data-id="125" x="1504.11" y="-1077.93">R125</text>
<circle data-id="126" cx="1670.40" cy="-1791.89" r="10.00px"/>
<text data-id="126" x="1670.40" y="-1791.89">R126</text>
<circle data-id="127" cx="196.72" cy="-936.12" r="10.00px"/>
<text data-id="127" x="196.72" y="-936.12">R127</text>
<circle data-id="128" cx="1704.53" cy="-273.63" r="10.00px"/>
<text data-id="128" x="1704.53" y="-273.63">R128</text>
<circle data-id="129" cx="1857.70" cy="-721.70" r="10.00px"/>
<text data-id="129" x="1857.70" y="-721.70">R129</text>
<circle data-id="130" cx="1048.90" cy="-383.55" r="10.00px"/>
<text data-id="130" x="1048.90" y="-383.55">R130</text>
<circle data-id="131" cx="889.21" cy="-808.71" r="10.00px"/>
<text data-id="131" x="889.21" y="-808.71">R131</text>
<circle data-id="132" cx="1301.80" cy="-1525.58" r="10.00px"/>
<text data-id="132" x="1301.80" y="-1525.58">R132</text>
<circle data-id="133" cx="1203.94" cy="-1760.25" r="10.00px"/>
<text data-id="133" x="1203.94" y="-1760.25">R133</text>
<circle data-id="134" cx="1458.83" cy="-1663.98" r="10.00px"/>
<text data-id="134" x="1458.83" y="-1663.98">R134</text>
<circle data-id="135" cx="1182.55" cy="-628.63" r="10.00px"/>
<text data-id="135" x="1182.55" y="-628.63">R135</text>
<circle data-id="136" cx="1544.13" cy="-821.13" r="10.00px"/>
<text data-id="136" x="1544.13" y="-821.13">R136</text>
<circle data-id="137" cx="1485.11" cy="-1198.43" r="10.00px"/>
<text data-id="137" x="1485.11" y="-1198.43">R137</text>
<circle data-id="138" cx="1403.37" cy="-901.75" r="10.00px"/>
<text data-id="138" x="1403.37" y="-901.75">R138</text>
<circle data-id="139" cx="1231.70" cy="-947.07" r="10.00px"/>
<text data-id="139" x="1231.70" y="-947.07">R139</text>
<circle data-id="140" cx="452.02" cy="-639.96" r="10.00px"/>
<text data-id="140" x="452.02" y="-639.96">R140</text>
<circle data-id="141" cx="25.25" cy="-1417.17" r="10.00px"/>
<text data-id="141" x="25.25" y="-1417.17">R141</text>
<circle data-id="142" cx="1221.75" cy="-1727.87" r="10.00px"/>
<text data-id="142" x="1221.75" y="-1727.87">R142</text>
<circle data-id="143" cx="1277.09" cy="-1668.07" r="10.00px"/>
<text data-id="143" x="1277.09" y="-1668.07">R143</text>
<circle data-id="144" cx="728.15" cy="-806.89" r="10.00px"/>
<text data-id="144" x="728.15" y="-806.89">R144</text>
<circle data-id="145" cx="537.90" cy="-375.58" r="10.00px"/>
<text data-id="145" x="537.90" y="-375.58">R145</text>
<circle data-id="146" cx="1183.43" cy="-822.34" r="10.00px"/>
<text data-id="146" x="1183.43" y="-822.34">R146</text>
<circle data-id="147" cx="207.75" cy="-1806.87" r="10.00px"/>
<text data-id="147" x="207.75" y="-1806.87">R147</text>
<circle data-id="148" cx="1368.87" cy="-886.02" r="10.00px"/>
<text data-id="148" x="1368.87" y="-886.02">R148</text>
<circle data-id="149" cx="1806.73" cy="-1870.98" r="10.00px"/>
<text data-id="149" x="1806.73" y="-1870.98">R149</text>
<circle data-id="150" cx="1802.35" cy="-946.22" r="10.00px"/>
<text data-id="150" x="1802.35" y="-946.22">R150</text>
<circle data-id="151" cx="68.94" cy="-66.45" r="10.00px"/>
<text data-id="151" x="68.94" y="-66.45">R151</text>
<circle data-id="152" cx="360.70" cy="-131.83" r="10.00px"/>
<text data-id="152" x="360.70" y="-131.83">R152</text>
<circle data-id="153" cx="1876.94" cy="-1115.65" r="10.00px"/>
<text data-id="153" x="1876.94" y="-1115.65">R153</text>
<circle data-id="154" cx="281.81" cy="-40.39" r="10.00px"/>
<text data-id="154" x="281.81" y="-40.39">R154</text>
<circle data-id="155" cx="80.61" cy="-974.34" r="10.00px"/>
<text data-id="155" x="80.61" y="-974.34">R155</text>
<circle data-id="156" cx="466.74" cy="-1728.11" r="10.00px"/>
<text data-id="156" x="466.74" y="-1728.11">R156</text>
<circle data-id="157" cx="676.92" cy="-1307.38" r="10.00px"/>
<text data-id="157" x="676.92" y="-1307.38">R157</text>
<circle data-id="158" cx="1804.95" cy="-1282.44" r="10.00px"/>
<text data-id="158" x="1804.95" y="-1282.44">R158</text>
<circle data-id="159" cx="623.63" cy="-294.86" r="10.00px"/>
<text data-id="159" x="623.63" y="-294.86">R159</text>
<circle data-id="160" cx="1896.16" cy="-1504.43" r="10.00px"/>
<text data-id="160" x="1896.16" y="-1504.43">R160</text>
<circle data-id="161" cx="949.74" cy="-263.73" r="10.00px"/>
<text data-id="161" x="949.74" y="-263.73">R161</text>
<circle data-id="162" cx="1398.28" cy="-1689.93" r="10.00px"/>
<text data-id="162" x="1398.28" y="-1689.93">R162</text>
<circle data-id="163" cx="689.98" cy="-578.76" r="10.00px"/>
<text data-id="163" x="689.98" y="-578.76">R163</text>
<circle data-id="164" cx="1557.29" cy="-882.10" r="10.00px"/>
<text data-id="164" x="1557.29" y="-882.10">R164</text>
<circle data-id="165" cx="339.59" cy="-1350.44" r="10.00px"/>
<text data-id="165" x="339.59" y="-1350.44">R165</text>
<circle data-id="166" cx="1216.96" cy="-58.34" r="10.00px"/>
<text data-id="166" x="1216.96" y="-58.34">R166</text>
<circle data-id="167" cx="188.40" cy="-811.75" r="10.00px"/>
<text data-id="167" x="188.40" y="-811.75">R167</text>
<circle data-id="168" cx="1269.15" cy="-559.99" r="10.00px"/>
<text data-id="168" x="1269.15" y="-559.99">R168</text>
<circle data-id="169" cx="575.20" cy="-703.43" r="10.00px"/>
<text data-id="169" x="575.20" y="-703.43">R169</text>
<circle data-id="170" cx="667.67" cy="-1196.64" r="10.00px"/>
<text data-id="170" x="667.67" y="-1196.64">R170</text>
<circle data-id="171" cx="1924.49" cy="-1.09" r="10.00px"/>
<text data-id="171" x="1924.49" y="-1.09">R171</text>
<circle data-id="172" cx="1076.39" cy="-803.24" r="10.00px"/>
<text data-id="172" x="1076.39" y="-803.24">R172</text>
<circle data-id="173" cx="851.71" cy="-776.66" r="10.00px"/>
<text data-id="173" x="851.71" y="-776.66">R173</text>
<circle data-id="174" cx="1896.12" cy="-1182.13" r="10.00px"/>
<text data-id="174" x="1896.12" y="-1182.13">R174</text>
<circle data-id="175" cx="1046.91" cy="-519.83" r="10.00px"/>
<text data-id="175" x="1046.91" y="-519.83">R175</text>
<circle data-id="176" cx="1606.47" cy="-1047.69" r="10.00px"/>
<text data-id="176" x="1606.47" y="-1047.69">R176</text>
<circle data-id="177" cx="1156.13" cy="-569.23" r="10.00px"/>
<text data-id="177" x="1156.13" y="-569.23">R177</text>
<circle data-id="178" cx="1074.67" cy="-847.68" r="10.00px"/>
<text data-id="178" x="1074.67" y="-847.68">R178</text>
<circle data-id="179" cx="267.95" cy="-170.41" r="10.00px"/>
<text data-id="179" x="267.95" y="-170.41">R179</text>
<circle data-id="180" cx="799.70" cy="-1804.14" r="10.00px"/>
<text data-id="180" x="799.70" y="-1804.14">R180</text>
<circle data-id="181" cx="1784.74" cy="-1103.76" r="10.00px"/>
<text data-id="181" x="1784.74" y="-1103.76">R181</text>
<circle data-id="182" cx="1218.41" cy="-1142.96" r="10.00px"/>
<text data-id="182" x="1218.41" y="-1142.96">R182</text>
<circle data-id="183" cx="1426.28" cy="-184.89" r="10.00px"/>
<text data-id="183" x="1426.28" y="-184.89">R183</text>
<circle data-id="184" cx="561.43" cy="-362.55" r="10.00px"/>
<text data-id="184" x="561.43" y="-362.55">R184</text>
<circle data-id="185" cx="1840.73" cy="-1553.13" r="10.00px"/>
<text data-id="185" x="1840.73" y="-1553.13">R185</text>
<circle data-id="186" cx="663.73" cy="-1730.62" r="10.00px"/>
<text data-id="186" x="663.73" y="-1730.62">R186</text>
<circle data-id="187" cx="1264.49" cy="-521.53" r="10.00px"/>
<text data-id="187" x="1264.49" y="-521.53">R187</text>
<circle data-id="188" cx="693.30" cy="-678.15" r="10.00px"/>
<text data-id="188" x="693.30" y="-678.15">R188</text>
<circle data-id="189" cx="1472.10" cy="-1314.58" r="10.00px"/>
<text data-id="189" x="1472.10" y="-1314.58">R189</text>
<circle data-id="190" cx="1560.24" cy="-1870.90" r="10.00px"/>
<text data-id="190" x="1560.24" y="-1870.90">R190</text>
<circle data-id="191" cx="518.38" cy="-1117.70" r="10.00px"/>
<text data-id="191" x="518.38" y="-1117.70">R191</text>
<circle data-id="192" cx="1157.88" cy="-1700.19" r="10.00px"/>
<text data-id="192" x="1157.88" y="-1700.19">R192</text>
<circle data-id="193" cx="378.06" cy="-1710.53" r="10.00px"/>
<text data-id="193" x="378.06" y="-1710.53">R193</text>
<circle data-id="194" cx="1136.27" cy="-1417.66" r="10.00px"/>
<text data-id="194" x="1136.27" y="-1417.66">R194</text>
<circle data-id="195" cx="823.20" cy="-568.96" r="10.00px"/>
<text data-id="195" x="823.20" y="-568.96">R195</text>
<circle data-id="196" cx="1353.18" cy="-574.26" r="10.00px"/>
<text data-id="196" x="1353.18" y="-574.26">R196</text>
<circle data-id="197" cx="1330.63" cy="-912.11" r="10.00px"/>
<text data-id="197" x="1330.63" y="-912.11">R197</text>
<circle data-id="198" cx="641.80" cy="-870.60" r="10.00px"/>
<text data-id="198" x="641.80" y="-870.60">R198</text>
<circle data-id="199" cx="1163.31" cy="-1123.59" r="10.00px"/>
<text data-id="199" x="1163.31" y="-1123.59">R199</text>
<circle data-id="200" cx="1305.89" cy="-1902.53" r="10.00px"/>
<text data-id="200" x="1305.89" y="-1902.53">R200</text>
<circle data-id="201" cx="1561.28" cy="-1416.07" r="10.00px"/>
<text data-id="201" x="1561.28" y="-1416.07">R201</text>
<circle data-id="202" cx="1870.47" cy="-100.43" r="10.00px"/>
<text data-id="202" x="1870.47" y="-100.43">R202</text>
<circle data-id="203" cx="1295.97" cy="-973.78" r="10.00px"/>
<text data-id="203" x="1295.97" y="-973.78">R203</text>
<circle data-id="204" cx="248.81" cy="-1238.74" r="10.00px"/>
<text data-id="204" x="248.81" y="-1238.74">R204</text>
<circle data-id="205" cx="320.73" cy="-1149.90" r="10.00px"/>
<text data-id="205" x="320.73" y="-1149.90">R205</text>
<circle data-id="206" cx="881.05" cy="-1333.06" r="10.00px"/>
<text data-id="206" x="881.05" y="-1333.06">R206</text>
<circle data-id="207" cx="1355.19" cy="-1646.79" r="10.00px"/>
<text data-id="207" x="1355.19" y="-1646.79">R207</text>
<circle data-id="208" cx="704.17" cy="-1354.21" r="10.00px"/>
<text data-id="208" x="704.17" y="-1354.21">R208</text>
<circle data-id="209" cx="1739.72" cy="-349.30" r="10.00px"/>
<text data-id="209" x="1739.72" y="-349.30">R209</text>
<circle data-id="210" cx="732.88" cy="-674.50" r="10.00px"/>
<text data-id="210" x="732.88" y="-674.50">R210</text>
<circle data-id="211" cx="375.88" cy="-826.76" r="10.00px"/>
<text data-id="211" x="375.88" y="-826.76">R211</text>
<circle data-id="212" cx="342.58" cy="-1051.38" r="10.00px"/>
<text data-id="212" x="342.58" y="-1051.38">R212</text>
<circle data-id="213" cx="861.35" cy="-1502.88" r="10.00px"/>
<text data-id="213" x="861.35" y="-1502.88">R213</text>
<circle data-id="214" cx="1553.67" cy="-612.43" r="10.00px"/>
<text data-id="214" x="1553.67" y="-612.43">R214</text>
<circle data-id="215" cx="1226.34" cy="-1928.15" r="10.00px"/>
<text data-id="215" x="1226.34" y="-1928.15">R215</text>
<circle data-id="216" cx="715.96" cy="-1869.82" r="10.00px"/>
<text data-id="216" x="715.96" y="-1869.82">R216</text>
<circle data-id="217" cx="194.24" cy="-1685.23" r="10.00px"/>
<text data-id="217" x="194.24" y="-1685.23">R217</text>
<circle data-id="218" cx="396.45" cy="-1083.05" r="10.00px"/>
<text data-id="218" x="396.45" y="-1083.05">R218</text>
<circle data-id="219" cx="1874.49" cy="-1818.20" r="10.00px"/>
<text data-id="219" x="1874.49" y="-1818.20">R219</text>
<circle data-id="220" cx="1030.42" cy="-1099.03" r="10.00px"/>
<text data-id="220" x="1030.42" y="-1099.03">R220</text>
<circle data-id="221" cx="1668.44" cy="-67.00" r="10.00px"/>
<text data-id="221" x="1668.44" y="-67.00">R221</text>
<circle data-id="222" cx="385.40" cy="-402.95" r="10.00px"/>
<text data-id="222" x="385.40" y="-402.95">R222</text>
<circle data-id="223" cx="157.16" cy="-1448.22" r="10.00px"/>
<text data-id="223" x="157.16" y="-1448.22">R223</text>
<circle data-id="224" cx="1257.82" cy="-1806.97" r="10.00px"/>
<text data-id="224" x="1257.82" y="-1806.97">R224</text>
<circle data-id="225" cx="1519.84" cy="-1696.78" r="10.00px"/>
<text data-id="225" x="1519.84" y="-1696.78">R225</text>
<circle data-id="226" cx="203.42" cy="-1725.76" r="10.00px"/>
<text data-id="226" x="203.42" y="-1725.76">R226</text>
<circle data-id="227" cx="1762.15" cy="-1734.26" r="10.00px"/>
<text data-id="227" x="1762.15" y="-1734.26">R227</text>
<circle data-id="228" cx="1739.30" cy="-536.41" r="10.00px"/>
<text data-id="228" x="1739.30" y="-536.41">R228</text>
<circle data-id="229" cx="77.92" cy="-921.53" r="10.00px"/>
<text data-id="229" x="77.92" y="-921.53">R229</text>
<circle data-id="230" cx="1076.68" cy="-563.80" r="10.00px"/>
<text data-id="230" x="1076.68" y="-563.80">R230</text>
<circle data-id="231" cx="37.25" cy="-1919.51" r="10.00px"/>
<text data-id="231" x="37.25" y="-1919.51">R231</text>
<circle data-id="232" cx="256.59" cy="-907.60" r="10.00px"/>
<text data-id="232" x="256.59" y="-907.60">R232</text>
<circle data-id="233" cx="637.57" cy="-212.86" r="10.00px"/>
<text data-id="233" x="637.57" y="-212.86">R233</text>
<circle data-id="234" cx="1889.62" cy="-772.41" r="10.00px"/>
<text data-id="234" x="1889.62" y="-772.41">R234</text>
<circle data-id="235" cx="1293.13" cy="-1056.38" r="10.00px"/>
<text data-id="235" x="1293.13" y="-1056.38">R235</text>
<circle data-id="236" cx="1274.91" cy="-886.42" r="10.00px"/>
<text data-id="236" x="1274.91" y="-886.42">R236</text>
<circle data-id="237" cx="1567.90" cy="-641.89" r="10.00px"/>
<text data-id="237" x="1567.90" y="-641.89">R237</text>
<circle data-id="238" cx="1250.12" cy="-762.78" r="10.00px"/>
<text data-id="238" x="1250.12" y="-762.78">R238</text>
<circle data-id="239" cx="1538.80" cy="-371.67" r="10.00px"/>
<text data-id="239" x="1538.80" y="-371.67">R239</text>
<circle data-id="240" cx="213.23" cy="-1349.09" r="10.00px"/>
<text data-id="240" x="213.23" y="-1349.09">R240</text>
<circle data-id="241" cx="825.47" cy="-1276.59" r="10.00px"/>
<text data-id="241" x="825.47" y="-1276.59">R241</text>
<circle data-id="242" cx="1199.72" cy="-1293.85" r="10.00px"/>
<text data-id="242" x="1199.72" y="-1293.85">R242</text>
<circle data-id="243" cx="320.78" cy="-1622.09" r="10.00px"/>
<text data-id="243" x="320.78" y="-1622.09">R243</text>
<circle data-id="244" cx="1011.97" cy="-1036.69" r="10.00px"/>
<text data-id="244" x="1011.97" y="-1036.69">R244</text>
<circle data-id="245" cx="1797.59" cy="-1349.88" r="10.00px"/>
<text data-id="245" x="1797.59" y="-1349.88">R245</text>
<circle data-id="246" cx="1315.24" cy="-755.23" r="10.00px"/>
<text data-id="246" x="1315.24" y="-755.23">R246</text>
<circle data-id="247" cx="657.77" cy="-1368.65" r="10.00px"/>
<text data-id="247" x="657.77" y="-1368.65">R247</text>
<circle data-id="248" cx="280.05" cy="-991.91" r="10.00px"/>
<text data-id="248" x="280.05" y="-991.91">R248</text>
<circle data-id="249" cx="1473.60" cy="-116.06" r="10.00px"/>
<text data-id="249" x="1473.60" y="-116.06">R249</text>
<circle data-id="250" cx="1504.50" cy="-1667.43" r="10.00px"/>
<text data-id="250" x="1504.50" y="-1667.43">R250</text>
<circle data-id="251" cx="466.75" cy="-468.37" r="10.00px"/>
<text data-id="251" x="466.75" y="-468.37">R251</text>
<circle data-id="252" cx="446.44" cy="-1914.69" r="10.00px"/>
<text data-id="252" x="446.44" y="-1914.69">R252</text>
<circle data-id="253" cx="1089.97" cy="-1699.42" r="10.00px"/>
<text data-id="253" x="1089.97" y="-1699.42">R253</text>
<circle data-id="254" cx="1902.44" cy="-1782.27" r="10.00px"/>
<text data-id="254" x="1902.44" y="-1782.27">R254</text>
<circle data-id="255" cx="400.86" cy="-743.96" r="10.00px"/>
<text data-id="255" x="400.86" y="-743.96">R255</text>
<circle data-id="256" cx="1924.15" cy="-768.22" r="10.00px"/>
<text data-id="256" x="1924.15" y="-768.22">R256</text>
<circle data-id="257" cx="776.94" cy="-1163.87" r="10.00px"/>
<text data-id="257" x="776.94" y="-1163.87">R257</text>
<circle data-id="258" cx="772.23" cy="-1049.39" r="10.00px"/>
<text data-id="258" x="772.23" y="-1049.39">R258</text>
<circle data-id="259" cx="1154.87" cy="-1725.15" r="10.00px"/>
<text data-id="259" x="1154.87" y="-1725.15">R259</text>
<circle data-id="260" cx="1708.28" cy="-820.94" r="10.00px"/>
<text data-id="260" x="1708.28" y="-820.94">R260</text>
<circle data-id="261" cx="542.49" cy="-1352.52" r="10.00px"/>
<text data-id="261" x="542.49" y="-1352.52">R261</text>
<circle data-id="262" cx="493.25" cy="-898.36" r="10.00px"/>
<text data-id="262" x="493.25" y="-898.36">R262</text>
<circle data-id="263" cx="551.43" cy="-571.81" r="10.00px"/>
<text data-id="263" x="551.43" y="-571.81">R263</text>
<circle data-id="264" cx="1817.34" cy="-1415.87" r="10.00px"/>
<text data-id="264" x="1817.34" y="-1415.87">R264</text>
<circle data-id="265" cx="559.97" cy="-42.70" r="10.00px"/>
<text data-id="265" x="559.97" y="-42.70">R265</text>
<circle data-id="266" cx="1617.01" cy="-146.94" r="10.00px"/>
<text data-id="266" x="1617.01" y="-146.94">R266</text>
<circle data-id="267" cx="1289.59" cy="-128.93" r="10.00px"/>
<text data-id="267" x="1289.59" y="-128.93">R267</text>
<circle data-id="268" cx="1557.83" cy="-336.39" r="10.00px"/>
<text data-id="268" x="1557.83" y="-336.39">R268</text>
<circle data-id="269" cx="356.01" cy="-482.93" r="10.00px"/>
<text data-id="269" x="356.01" y="-482.93">R269</text>
<circle data-id="270" cx="856.55" cy="-827.31" r="10.00px"/>
<text data-id="270" x="856.55" y="-827.31">R270</text>
<circle data-id="271" cx="1651.46" cy="-1572.86" r="10.00px"/>
<text data-id="271" x="1651.46" y="-1572.86">R271</text>
<circle data-id="272" cx="1279.68" cy="-1350.65" r="10.00px"/>
<text data-id="272" x="1279.68" y="-1350.65">R272</text>
<circle data-id="273" cx="1066.10" cy="-1766.10" r="10.00px"/>
<text data-id="273" x="1066.10" y="-1766.10">R273</text>
<circle data-id="274" cx="1015.97" cy="-26.34" r="10.00px"/>
<text data-id="274" x="1015.97" y="-26.34">R274</text>
<circle data-id="275" cx="1090.42" cy="-1464.46" r="10.00px"/>
<text data-id="275" x="1090.42" y="-1464.46">R275</text>
<circle data-id="276" cx="521.80" cy="-1445.99" r="10.00px"/>
<text data-id="276" x="521.80" y="-1445.99">R276</text>
<circle data-id="277" cx="48.70" cy="-1283.11" r="10.00px"/>
<text data-id="277" x="48.70" y="-1283.11">R277</text>
<circle data-id="278" cx="1139.77" cy="-1605.44" r="10.00px"/>
<text data-id="278" x="1139.77" y="-1605.44">R278</text>
<circle data-id="279" cx="1209.03" cy="-1333.59" r="10.00px"/>
<text data-id="279" x="1209.03" y="-1333.59">R279</text>
<circle data-id="280" cx="756.00" cy="-1586.60" r="10.00px"/>
<text data-id="280" x="756.00" y="-1586.60">R280</text>
<circle data-id="281" cx="1665.79" cy="-1466.46" r="10.00px"/>
<text data-id="281" x="1665.79" y="-1466.46">R281</text>
<circle data-id="282" cx="176.92" cy="-1048.40" r="10.00px"/>
<text data-id="282" x="176.92" y="-1048.40">R282</text>
<circle data-id="283" cx="614.62" cy="-1555.22" r="10.00px"/>
<text data-id="283" x="614.62" y="-1555.22">R283</text>
<circle data-id="284" cx="398.97" cy="-1146.95" r="10.00px"/>
<text data-id="284" x="398.97" y="-1146.95">R284</text>
<circle data-id="285" cx="322.94" cy="-60.39" r="10.00px"/>
<text data-id="285" x="322.94" y="-60.39">R285</text>
<circle data-id="286" cx="605.50" cy="-1491.62" r="10.00px"/>
<text data-id="286" x="605.50" y="-1491.62">R286</text>
<circle data-id="287" cx="1353.28" cy="-931.15" r="10.00px"/>
<text data-id="287" x="1353.28" y="-931.15">R287</text>
<circle data-id="288" cx="984.06" cy="-1307.70" r="10.00px"/>
<text data-id="288" x="984.06" y="-1307.70">R288</text>
<circle data-id="289" cx="1066.47" cy="-1153.11" r="10.00px"/>
<text data-id="289" x="1066.47" y="-1153.11">R289</text>
<circle data-id="290" cx="905.27" cy="-706.68" r="10.00px"/>
<text data-id="290" x="905.27" y="-706.68">R290</text>
<circle data-id="291" cx="347.93" cy="-1787.86" r="10.00px"/>
<text data-id="291" x="347.93" y="-1787.86">R291</text>
<circle data-id="292" cx="1390.56" cy="-1100.38" r="10.00px"/>
<text data-id="292" x="1390.56" y="-1100.38">R292</text>
<circle data-id="293" cx="866.84" cy="-1218.33" r="10.00px"/>
<text data-id="293" x="866.84" y="-1218.33">R293</text>
<circle data-id="294" cx="255.06" cy="-1888.09" r="10.00px"/>
<text data-id="294" x="255.06" y="-1888.09">R294</text>
<circle data-id="295" cx="916.25" cy="-935.25" r="10.00px"/>
<text data-id="295" x="916.25" y="-935.25">R295</text>
<circle data-id="296" cx="461.87" cy="-1366.14" r="10.00px"/>
<text data-id="296" x="461.87" y="-1366.14">R296</text>
<circle data-id="297" cx="1059.87" cy="-951.08" r="10.00px"/>
<text data-id="297" x="1059.87" y="-951.08">R297</text>
<circle data-id="298" cx="360.90" cy="-680.97" r="10.00px"/>
<text data-id="298" x="360.90" y="-680.97">R298</text>
<circle data-id="299" cx="1410.24" cy="-622.68" r="10.00px"/>
<text data-id="299" x="1410.24" y="-622.68">R299</text>
<circle data-id="300" cx="49.55" cy="-490.66" r="10.00px"/>
<text data-id="300" x="49.55" y="-490.66">R300</text>
<circle data-id="301" cx="1074.49" cy="-463.43" r="10.00px"/>
<text data-id="301" x="1074.49" y="-463.43">R301</text>
<circle data-id="302" cx="509.89" cy="-1209.25" r="10.00px"/>
<text data-id="302" x="509.89" y="-1209.25">R302</text>
<circle data-id="303" cx="200.47" cy="-358.64" r="10.00px"/>
<text data-id="303" x="200.47" y="-358.64">R303</text>
<circle data-id="304" cx="1343.88" cy="-483.06" r="10.00px"/>
<text data-id="304" x="1343.88" y="-483.06">R304</text>
<circle data-id="305" cx="335.03" cy="-1383.18" r="10.00px"/>
<text data-id="305" x="335.03" y="-1383.18">R305</text>
<circle data-id="306" cx="1830.85" cy="-243.73" r="10.00px"/>
<text data-id="306" x="1830.85" y="-243.73">R306</text>
<circle data-id="307" cx="1391.32" cy="-267.51" r="10.00px"/>
<text data-id="307" x="1391.32" y="-267.51">R307</text>
<circle data-id="308" cx="1688.44" cy="-1286.60" r="10.00px"/>
<text data-id="308" x="1688.44" y="-1286.60">R308</text>
<circle data-id="309" cx="204.37" cy="-477.86" r="10.00px"/>
<text data-id="309" x="204.37" y="-477.86">R309</text>
<circle data-id="310" cx="1111.35" cy="-1385.10" r="10.00px"/>
<text data-id="310" x="1111.35" y="-1385.10">R310</text>
<circle data-id="311" cx="434.23" cy="-1079.72" r="10.00px"/>
<text data-id="311" x="434.23" y="-1079.72">R311</text>
<circle data-id="312" cx="956.88" cy="-873.63" r="10.00px"/>
<text data-id="312" x="956.88" y="-873.63">R312</text>
<circle data-id="313" cx="190.32" cy="-289.22" r="10.00px"/>
<text data-id="313" x="190.32" y="-289.22">R313</text>
<circle data-id="314" cx="1580.90" cy="-1641.83" r="10.00px"/>
<text data-id="314" x="1580.90" y="-1641.83">R314</text>
<circle data-id="315" cx="1785.35" cy="-1310.70" r="10.00px"/>
<text data-id="315" x="1785.35" y="-1310.70">R315</text>
<circle data-id="316" cx="1596.39" cy="-282.62" r="10.00px"/>
<text data-id="316" x="1596.39" y="-282.62">R316</text>
<circle data-id="317" cx="767.48" cy="-1311.17" r="10.00px"/>
<text data-id="317" x="767.48" y="-1311.17">R317</text>
<circle data-id="318" cx="356.75" cy="-1449.33" r="10.00px"/>
<text data-id="318" x="356.75" y="-1449.33">R318</text>
<circle data-id="319" cx="196.91" cy="-1653.87" r="10.00px"/>
<text data-id="319" x="196.91" y="-1653.87">R319</text>
<circle data-id="320" cx="1452.95" cy="-96.24" r="10.00px"/>
<text data-id="320" x="1452.95" y="-96.24">R320</text>
<circle data-id="321" cx="417.26" cy="-444.64" r="10.00px"/>
<text data-id="321" x="417.26" y="-444.64">R321</text>
<circle data-id="322" cx="617.71" cy="-1346.48" r="10.00px"/>
<text data-id="322" x="617.71" y="-1346.48">R322</text>
<circle data-id="323" cx="1112.32" cy="-1744.06" r="10.00px"/>
<text data-id="323" x="1112.32" y="-1744.06">R323</text>
<circle data-id="324" cx="983.47" cy="-229.30" r="10.00px"/>
<text data-id="324" x="983.47" y="-229.30">R324</text>
<circle data-id="325" cx="129.01" cy="-1738.61" r="10.00px"/>
<text data-id="325" x="129.01" y="-1738.61">R325</text>
<circle data-id="326" cx="1489.51" cy="-787.62" r="10.00px"/>
<text data-id="326" x="1489.51" y="-787.62">R326</text>
<circle data-id="327" cx="1900.33" cy="-1470.04" r="10.00px"/>
<text data-id="327" x="1900.33" y="-1470.04">R327</text>
<circle data-id="328" cx="357.61" cy="-406.91" r="10.00px"/>
<text data-id="328" x="357.61" y="-406.91">R328</text>
<circle data-id="329" cx="820.26" cy="-1207.56" r="10.00px"/>
<text data-id="329" x="820.26" y="-1207.56">R329</text>
<circle data-id="330" cx="1110.24" cy="-16.09" r="10.00px"/>
<text data-id="330" x="1110.24" y="-16.09">R330</text>
<circle data-id="331" cx="74.95" cy="-860.88" r="10.00px"/>
<text data-id="331" x="74.95" y="-860.88">R331</text>
<circle data-id="332" cx="1598.00" cy="-676.27" r="10.00px"/>
<text data-id="332" x="1598.00" y="-676.27">R332</text>
<circle data-id="333" cx="1613.12" cy="-989.16" r="10.00px"/>
<text data-id="333" x="1613.12" y="-989.16">R333</text>
<circle data-id="334" cx="1293.66" cy="-501.81" r="10.00px"/>
<text data-id="334" x="1293.66" y="-501.81">R334</text>
<circle data-id="335" cx="1551.76" cy="-1192.66" r="10.00px"/>
<text data-id="335" x="1551.76" y="-1192.66">R335</text>
<circle data-id="336" cx="1799.52" cy="-213.00" r="10.00px"/>
<text data-id="336" x="1799.52" y="-213.00">R336</text>
<circle data-id="337" cx="1532.30" cy="-1867.62" r="10.00px"/>
<text data-id="337" x="1532.30" y="-1867.62">R337</text>
<circle data-id="338" cx="323.58" cy="-1931.55" r="10.00px"/>
<text data-id="338" x="323.58" y="-1931.55">R338</text>
<circle data-id="339" cx="242.02" cy="-1042.13" r="10.00px"/>
<text data-id="339" x="242.02" y="-1042.13">R339</text>
<circle data-id="340" cx="165.94" cy="-1694.32" r="10.00px"/>
<text data-id="340" x="165.94" y="-1694.32">R340</text>
<circle data-id="341" cx="47.67" cy="-1000.80" r="10.00px"/>
<text data-id="341" x="47.67" y="-1000.80">R341</text>
<circle data-id="342" cx="83.41" cy="-1887.19" r="10.00px"/>
<text data-id="342" x="83.41" y="-1887.19">R342</text>
<circle data-id="343" cx="936.08" cy="-831.84" r="10.00px"/>
<text data-id="343" x="936.08" y="-831.84">R343</text>
<circle data-id="344" cx="1641.40" cy="-300.44" r="10.00px"/>
<text data-id="344" x="1641.40" y="-300.44">R344</text>
<circle data-id="345" cx="600.45" cy="-1063.12" r="10.00px"/>
<text data-id="345" x="600.45" y="-1063.12">R345</text>
<circle data-id="346" cx="45.24" cy="-42.24" r="10.00px"/>
<text data-id="346" x="45.24" y="-42.24">R346</text>
<circle data-id="347" cx="1429.01" cy="-1679.50" r="10.00px"/>
<text data-id="347" x="1429.01" y="-1679.50">R347</text>
<circle data-id="348" cx="1519.39" cy="-1474.02" r="10.00px"/>
<text data-id="348" x="1519.39" y="-1474.02">R348</text>
<circle data-id="349" cx="1066.21" cy="-1838.19" r="10.00px"/>
<text data-id="349" x="1066.21" y="-1838.19">R349</text>
<circle data-id="350" cx="516.39" cy="-1071.17" r="10.00px"/>
<text data-id="350" x="516.39" y="-1071.17">R350</text>
<circle data-id="351" cx="607.45" cy="-1703.08" r="10.00px"/>
<text data-id="351" x="607.45" y="-1703.08">R351</text>
<circle data-id="352" cx="325.04" cy="-928.85" r="10.00px"/>
<text data-id="352" x="325.04" y="-928.85">R352</text>
<circle data-id="353" cx="419.98" cy="-616.39" r="10.00px"/>
<text data-id="353" x="419.98" y="-616.39">R353</text>
<circle data-id="354" cx="362.14" cy="-1637.58" r="10.00px"/>
<text data-id="354" x="362.14" y="-1637.58">R354</text>
<circle data-id="355" cx="938.37" cy="-1483.34" r="10.00px"/>
<text data-id="355" x="938.37" y="-1483.34">R355</text>
<circle data-id="356" cx="256.21" cy="-537.47" r="10.00px"/>
<text data-id="356" x="256.21" y="-537.47">R356</text>
<circle data-id="357" cx="471.98" cy="-840.19" r="10.00px"/>
<text data-id="357" x="471.98" y="-840.19">R357</text>
<circle data-id="358" cx="536.30" cy="-1729.48" r="10.00px"/>
<text data-id="358" x="536.30" y="-1729.48">R358</text>
<circle data-id="359" cx="217.18" cy="-820.24" r="10.00px"/>
<text data-id="359" x="217.18" y="-820.24">R359</text>
<circle data-id="360" cx="1440.66" cy="-1817.96" r="10.00px"/>
<text data-id="360" x="1440.66" y="-1817.96">R360</text>
<circle data-id="361" cx="583.79" cy="-1583.33" r="10.00px"/>
<text data-id="361" x="583.79" y="-1583.33">R361</text>
<circle data-id="362" cx="655.52" cy="-972.16" r="10.00px"/>
<text data-id="362" x="655.52" y="-972.16">R362</text>
<circle data-id="363" cx="1583.77" cy="-455.69" r="10.00px"/>
<text data-id="363" x="1583.77" y="-455.69">R363</text>
<circle data-id="364" cx="1893.12" cy="-1635.25" r="10.00px"/>
<text data-id="364" x="1893.12" y="-1635.25">R364</text>
<circle data-id="365" cx="1388.72" cy="-302.44" r="10.00px"/>
<text data-id="365" x="1388.72" y="-302.44">R365</text>
<circle data-id="366" cx="1344.06" cy="-1253.53" r="10.00px"/>
<text data-id="366" x="1344.06" y="-1253.53">R366</text>
<circle data-id="367" cx="0.72" cy="-857.45" r="10.00px"/>
<text data-id="367" x="0.72" y="-857.45">R367</text>
<circle data-id="368" cx="1874.73" cy="-482.79" r="10.00px"/>
<text data-id="368" x="1874.73" y="-482.79">R368</text>
<circle data-id="369" cx="662.96" cy="-1914.34" r="10.00px"/>
<text data-id="369" x="662.96" y="-1914.34">R369</text>
<circle data-id="370" cx="1661.85" cy="-673.67" r="10.00px"/>
<text data-id="370" x="1661.85" y="-673.67">R370</text>
<circle data-id="371" cx="736.61" cy="-1566.40" r="10.00px"/>
<text data-id="371" x="736.61" y="-1566.40">R371</text>
<circle data-id="372" cx="1.49" cy="-1279.98" r="10.00px"/>
<text data-id="372" x="1.49" y="-1279.98">R372</text>
<circle data-id="373" cx="1295.44" cy="-674.26" r="10.00px"/>
<text data-id="373" x="1295.44" y="-674.26">R373</text>
<circle data-id="374" cx="421.11" cy="-121.10" r="10.00px"/>
<text data-id="374" x="421.11" y="-121.10">R374</text>
</svg>
