<svg id="topo" viewBox="-89.10 -2022.82 2112.06 2118.35" xmlns="http://www.w3.org/2000/svg">
<style>#topo path {fill: none; stroke: grey; stroke-width: 5.0000px;} #topo circle {fill: lightblue; stroke: none; stroke-width: 0.3px; vector-effect: non-scaling-stroke; r: 10.0000px;} #topo text {fill: black; stroke: none; font-size: 15.0000px; font-family: sans-serif; text-anchor:middle; transform: translateY(0.3em);} #topo path.country {fill: lightgrey; stroke: black; stroke-width: 1px; vector-effect: non-scaling-stroke; visibility: visible;} #topo path.selection {fill: none; stroke: red; stroke-width: 1px; vector-effect: non-scaling-stroke; visibility: visible;} #topo path.utilization {visibility: hidden;}</style>
<path data-id="0-252" d="M1249.99,-277.82,1408.90,-265.86"/>
<path data-id="0-299" d="M1249.99,-277.82,1234.19,-357.53"/>
<path data-id="0-331" d="M1249.99,-277.82,1200.24,-224.05"/>
<path data-id="1-156" d="M1463.64,-1549.94,1471.69,-1489.73"/>
<path data-id="1-227" d="M1463.64,-1549.94,1492.92,-1674.90"/>
<path data-id="1-300" d="M1463.64,-1549.94,1579.09,-1530.91"/>
<path data-id="1-303" d="M1463.64,-1549.94,1405.85,-1498.36"/>
<path data-id="2-65" d="M1784.94,-123.94,1587.80,-121.03"/>
<path data-id="2-103" d="M1784.94,-123.94,1834.83,-236.10"/>
<path data-id="2-141" d="M1784.94,-123.94,1883.53,-1.45"/>
<path data-id="2-244" d="M1784.94,-123.94,1908.16,-148.80"/>
<path data-id="2-350" d="M1784.94,-123.94,1610.46,-213.40"/>
<path data-id="2-373" d="M1784.94,-123.94,1658.25,-279.57"/>
<path data-id="3-172" d="M952.10,-909.16,1011.87,-961.56"/>
<path data-id="3-186" d="M952.10,-909.16,912.95,-919.75"/>
<path data-id="3-354" d="M952.10,-909.16,970.90,-881.99"/>
<path data-id="4-34" d="M1270.79,-856.82,1355.74,-893.13"/>
<path data-id="4-272" d="M1270.79,-856.82,1193.19,-868.39"/>
<path data-id="4-318" d="M1270.79,-856.82,1286.11,-814.47"/>
<path data-id="5-40" d="M727.23,-406.69,770.59,-300.32"/>
<path data-id="5-58" d="M727.23,-406.69,794.22,-389.01"/>
<path data-id="5-126" d="M727.23,-406.69,695.50,-450.30"/>
<path data-id="5-158" d="M727.23,-406.69,660.19,-407.85"/>
<path data-id="6-30" d="M1111.25,-229.26,1149.34,-212.43"/>
<path data-id="6-100" d="M1111.25,-229.26,1134.34,-345.13"/>
<path data-id="6-123" d="M1111.25,-229.26,1028.96,-258.81"/>
<path data-id="6-182" d="M1111.25,-229.26,1028.33,-170.81"/>
<path data-id="7-146" d="M179.87,-1908.82,174.08,-1817.35"/>
<path data-id="7-198" d="M179.87,-1908.82,266.52,-1926.54"/>
<path data-id="8-37" d="M1279.72,-1116.77,1343.17,-1038.34"/>
<path data-id="8-145" d="M1279.72,-1116.77,1255.97,-1101.42"/>
<path data-id="8-169" d="M1279.72,-1116.77,1362.59,-1097.17"/>
<path data-id="8-255" d="M1279.72,-1116.77,1248.30,-1209.41"/>
<path data-id="8-304" d="M1279.72,-1116.77,1336.15,-1184.25"/>
<path data-id="9-41" d="M1092.37,-1031.91,1107.09,-1102.03"/>
<path data-id="9-66" d="M1092.37,-1031.91,1072.15,-917.10"/>
<path data-id="9-81" d="M1092.37,-1031.91,1140.17,-936.52"/>
<path data-id="9-157" d="M1092.37,-1031.91,1024.71,-1055.77"/>
<path data-id="9-172" d="M1092.37,-1031.91,1011.87,-961.56"/>
<path data-id="10-47" d="M1102.23,-492.35,1119.10,-625.35"/>
<path data-id="10-166" d="M1102.23,-492.35,981.44,-614.47"/>
<path data-id="10-207" d="M1102.23,-492.35,1086.50,-472.31"/>
<path data-id="10-328" d="M1102.23,-492.35,1225.93,-453.94"/>
<path data-id="11-133" d="M160.14,-1280.27,191.82,-1367.19"/>
<path data-id="11-232" d="M160.14,-1280.27,63.70,-1413.77"/>
<path data-id="11-349" d="M160.14,-1280.27,300.25,-1246.30"/>
<path data-id="11-352" d="M160.14,-1280.27,78.20,-1221.94"/>
<path data-id="12-234" d="M58.64,-370.86,133.81,-506.17"/>
<path data-id="12-294" d="M58.64,-370.86,34.88,-546.04"/>
<path data-id="12-319" d="M58.64,-370.86,84.19,-256.30"/>
<path data-id="13-17" d="M1068.96,-47.30,1013.95,-69.90"/>
<path data-id="13-62" d="M1068.96,-47.30,1200.57,-0.76"/>
<path data-id="13-265" d="M1068.96,-47.30,1192.48,-156.35"/>
<path data-id="14-227" d="M1255.29,-1641.29,1492.92,-1674.90"/>
<path data-id="14-240" d="M1255.29,-1641.29,1186.33,-1631.97"/>
<path data-id="14-273" d="M1255.29,-1641.29,1355.56,-1529.46"/>
<path data-id="14-307" d="M1255.29,-1641.29,1203.51,-1582.00"/>
<path data-id="14-369" d="M1255.29,-1641.29,1212.11,-1682.73"/>
<path data-id="15-93" d="M630.87,-1408.67,680.45,-1442.77"/>
<path data-id="15-187" d="M630.87,-1408.67,557.33,-1343.33"/>
<path data-id="15-278" d="M630.87,-1408.67,740.72,-1313.49"/>
<path data-id="16-92" d="M1130.40,-1756.54,1095.87,-1798.08"/>
<path data-id="16-140" d="M1130.40,-1756.54,1166.72,-1838.60"/>
<path data-id="16-212" d="M1130.40,-1756.54,1137.44,-1731.19"/>
<path data-id="17-182" d="M1013.95,-69.90,1028.33,-170.81"/>
<path data-id="17-333" d="M1013.95,-69.90,751.87,-14.45"/>
<path data-id="18-56" d="M1305.56,-1457.12,1235.33,-1442.63"/>
<path data-id="18-96" d="M1305.56,-1457.12,1351.05,-1389.05"/>
<path data-id="18-361" d="M1305.56,-1457.12,1350.48,-1468.50"/>
<path data-id="18-371" d="M1305.56,-1457.12,1268.48,-1513.93"/>
<path data-id="19-70" d="M1819.98,-1399.64,1789.49,-1343.35"/>
<path data-id="19-89" d="M1819.98,-1399.64,1869.62,-1468.07"/>
<path data-id="19-324" d="M1819.98,-1399.64,1908.53,-1415.88"/>
<path data-id="20-189" d="M1270.17,-101.67,1248.59,-13.04"/>
<path data-id="20-252" d="M1270.17,-101.67,1408.90,-265.86"/>
<path data-id="20-265" d="M1270.17,-101.67,1192.48,-156.35"/>
<path data-id="20-364" d="M1270.17,-101.67,1345.81,-56.29"/>
<path data-id="21-94" d="M222.01,-186.31,197.99,-278.31"/>
<path data-id="21-128" d="M222.01,-186.31,206.93,-165.57"/>
<path data-id="21-185" d="M222.01,-186.31,308.76,-159.15"/>
<path data-id="21-243" d="M222.01,-186.31,136.07,-260.37"/>
<path data-id="22-159" d="M1646.07,-1170.96,1545.09,-1168.49"/>
<path data-id="22-164" d="M1646.07,-1170.96,1659.63,-1083.97"/>
<path data-id="22-235" d="M1646.07,-1170.96,1624.25,-1301.99"/>
<path data-id="22-332" d="M1646.07,-1170.96,1759.17,-1301.26"/>
<path data-id="22-351" d="M1646.07,-1170.96,1806.13,-1183.82"/>
<path data-id="23-109" d="M765.16,-578.04,742.98,-699.49"/>
<path data-id="23-126" d="M765.16,-578.04,695.50,-450.30"/>
<path data-id="23-218" d="M765.16,-578.04,909.03,-612.17"/>
<path data-id="23-277" d="M765.16,-578.04,684.73,-594.77"/>
<path data-id="23-365" d="M765.16,-578.04,858.59,-508.29"/>
<path data-id="24-236" d="M1006.91,-1897.14,912.11,-1761.46"/>
<path data-id="24-280" d="M1006.91,-1897.14,1062.33,-1881.89"/>
<path data-id="24-284" d="M1006.91,-1897.14,963.68,-1915.32"/>
<path data-id="24-339" d="M1006.91,-1897.14,1004.97,-1726.38"/>
<path data-id="25-26" d="M585.03,-973.64,443.83,-1068.58"/>
<path data-id="25-53" d="M585.03,-973.64,618.17,-930.41"/>
<path data-id="25-54" d="M585.03,-973.64,616.23,-986.50"/>
<path data-id="25-343" d="M585.03,-973.64,429.30,-915.90"/>
<path data-id="26-78" d="M443.83,-1068.58,364.11,-1047.93"/>
<path data-id="26-268" d="M443.83,-1068.58,637.82,-1111.18"/>
<path data-id="26-343" d="M443.83,-1068.58,429.30,-915.90"/>
<path data-id="27-106" d="M168.23,-1465.82,401.73,-1585.16"/>
<path data-id="27-133" d="M168.23,-1465.82,191.82,-1367.19"/>
<path data-id="27-154" d="M168.23,-1465.82,397.34,-1427.76"/>
<path data-id="27-232" d="M168.23,-1465.82,63.70,-1413.77"/>
<path data-id="27-287" d="M168.23,-1465.82,85.07,-1583.73"/>
<path data-id="27-337" d="M168.23,-1465.82,43.51,-1510.13"/>
<path data-id="28-73" d="M701.56,-185.59,732.45,-223.78"/>
<path data-id="28-190" d="M701.56,-185.59,696.33,-126.63"/>
<path data-id="28-279" d="M701.56,-185.59,600.21,-182.39"/>
<path data-id="29-32" d="M843.55,-1423.08,894.41,-1373.82"/>
<path data-id="29-134" d="M843.55,-1423.08,796.11,-1468.87"/>
<path data-id="29-254" d="M843.55,-1423.08,871.85,-1361.70"/>
<path data-id="29-278" d="M843.55,-1423.08,740.72,-1313.49"/>
<path data-id="30-265" d="M1149.34,-212.43,1192.48,-156.35"/>
<path data-id="30-331" d="M1149.34,-212.43,1200.24,-224.05"/>
<path data-id="31-55" d="M454.53,-264.60,431.45,-321.28"/>
<path data-id="31-102" d="M454.53,-264.60,379.14,-254.61"/>
<path data-id="31-224" d="M454.53,-264.60,567.70,-215.92"/>
<path data-id="32-125" d="M894.41,-1373.82,964.72,-1438.19"/>
<path data-id="32-202" d="M894.41,-1373.82,981.59,-1370.33"/>
<path data-id="32-254" d="M894.41,-1373.82,871.85,-1361.70"/>
<path data-id="32-313" d="M894.41,-1373.82,930.04,-1305.33"/>
<path data-id="33-118" d="M1061.34,-423.46,1032.06,-450.20"/>
<path data-id="33-165" d="M1061.34,-423.46,1055.37,-394.20"/>
<path data-id="33-195" d="M1061.34,-423.46,1104.74,-418.44"/>
<path data-id="33-207" d="M1061.34,-423.46,1086.50,-472.31"/>
<path data-id="34-191" d="M1355.74,-893.13,1342.88,-1002.32"/>
<path data-id="34-216" d="M1355.74,-893.13,1369.69,-813.62"/>
<path data-id="34-291" d="M1355.74,-893.13,1549.39,-966.18"/>
<path data-id="35-42" d="M652.41,-538.46,604.23,-450.17"/>
<path data-id="35-46" d="M652.41,-538.46,497.23,-663.46"/>
<path data-id="35-126" d="M652.41,-538.46,695.50,-450.30"/>
<path data-id="35-277" d="M652.41,-538.46,684.73,-594.77"/>
<path data-id="36-105" d="M1617.74,-1427.66,1659.55,-1441.45"/>
<path data-id="36-179" d="M1617.74,-1427.66,1677.81,-1342.89"/>
<path data-id="36-203" d="M1617.74,-1427.66,1587.99,-1358.93"/>
<path data-id="36-275" d="M1617.74,-1427.66,1536.07,-1471.89"/>
<path data-id="36-300" d="M1617.74,-1427.66,1579.09,-1530.91"/>
<path data-id="37-169" d="M1343.17,-1038.34,1362.59,-1097.17"/>
<path data-id="37-178" d="M1343.17,-1038.34,1511.22,-1041.19"/>
<path data-id="37-191" d="M1343.17,-1038.34,1342.88,-1002.32"/>
<path data-id="38-70" d="M1728.72,-1348.27,1789.49,-1343.35"/>
<path data-id="38-179" d="M1728.72,-1348.27,1677.81,-1342.89"/>
<path data-id="38-332" d="M1728.72,-1348.27,1759.17,-1301.26"/>
<path data-id="39-117" d="M643.08,-1173.99,643.48,-1226.77"/>
<path data-id="39-268" d="M643.08,-1173.99,637.82,-1111.18"/>
<path data-id="39-370" d="M643.08,-1173.99,696.85,-1176.03"/>
<path data-id="40-58" d="M770.59,-300.32,794.22,-389.01"/>
<path data-id="40-59" d="M770.59,-300.32,775.13,-232.90"/>
<path data-id="40-113" d="M770.59,-300.32,640.84,-360.18"/>
<path data-id="40-311" d="M770.59,-300.32,837.60,-270.70"/>
<path data-id="41-61" d="M1107.09,-1102.03,1107.61,-1192.35"/>
<path data-id="41-145" d="M1107.09,-1102.03,1255.97,-1101.42"/>
<path data-id="41-157" d="M1107.09,-1102.03,1024.71,-1055.77"/>
<path data-id="42-90" d="M604.23,-450.17,483.02,-431.03"/>
<path data-id="42-196" d="M604.23,-450.17,545.55,-379.04"/>
<path data-id="42-293" d="M604.23,-450.17,637.48,-428.28"/>
<path data-id="43-125" d="M1001.65,-1443.66,964.72,-1438.19"/>
<path data-id="43-168" d="M1001.65,-1443.66,1130.73,-1452.40"/>
<path data-id="43-202" d="M1001.65,-1443.66,981.59,-1370.33"/>
<path data-id="43-321" d="M1001.65,-1443.66,1012.99,-1495.64"/>
<path data-id="43-340" d="M1001.65,-1443.66,1073.85,-1362.38"/>
<path data-id="44-76" d="M1350.42,-1827.59,1419.88,-1826.63"/>
<path data-id="44-283" d="M1350.42,-1827.59,1251.86,-1862.43"/>
<path data-id="44-367" d="M1350.42,-1827.59,1267.67,-1890.94"/>
<path data-id="44-369" d="M1350.42,-1827.59,1212.11,-1682.73"/>
<path data-id="45-55" d="M261.24,-358.45,431.45,-321.28"/>
<path data-id="45-94" d="M261.24,-358.45,197.99,-278.31"/>
<path data-id="45-102" d="M261.24,-358.45,379.14,-254.61"/>
<path data-id="45-144" d="M261.24,-358.45,280.42,-481.70"/>
<path data-id="45-214" d="M261.24,-358.45,403.28,-411.53"/>
<path data-id="45-366" d="M261.24,-358.45,212.82,-470.26"/>
<path data-id="46-110" d="M497.23,-663.46,609.71,-791.97"/>
<path data-id="46-229" d="M497.23,-663.46,445.00,-718.52"/>
<path data-id="46-237" d="M497.23,-663.46,406.19,-576.51"/>
<path data-id="46-277" d="M497.23,-663.46,684.73,-594.77"/>
<path data-id="47-69" d="M1119.10,-625.35,1129.91,-656.21"/>
<path data-id="47-166" d="M1119.10,-625.35,981.44,-614.47"/>
<path data-id="47-167" d="M1119.10,-625.35,1179.36,-626.19"/>
<path data-id="48-97" d="M1446.42,-148.90,1533.09,-172.29"/>
<path data-id="48-322" d="M1446.42,-148.90,1509.00,-208.36"/>
<path data-id="48-344" d="M1446.42,-148.90,1454.99,-225.53"/>
<path data-id="48-364" d="M1446.42,-148.90,1345.81,-56.29"/>
<path data-id="49-91" d="M1004.18,-1547.16,1072.96,-1516.19"/>
<path data-id="49-127" d="M1004.18,-1547.16,988.88,-1576.54"/>
<path data-id="49-153" d="M1004.18,-1547.16,1052.12,-1585.89"/>
<path data-id="49-321" d="M1004.18,-1547.16,1012.99,-1495.64"/>
<path data-id="50-51" d="M1869.02,-1653.82,1851.09,-1682.60"/>
<path data-id="50-176" d="M1869.02,-1653.82,1776.87,-1619.38"/>
<path data-id="50-334" d="M1869.02,-1653.82,1878.74,-1613.81"/>
<path data-id="51-114" d="M1851.09,-1682.60,1885.19,-1783.78"/>
<path data-id="51-148" d="M1851.09,-1682.60,1795.46,-1716.08"/>
<path data-id="51-176" d="M1851.09,-1682.60,1776.87,-1619.38"/>
<path data-id="52-242" d="M935.13,-814.43,962.38,-786.00"/>
<path data-id="52-320" d="M935.13,-814.43,890.02,-851.31"/>
<path data-id="52-354" d="M935.13,-814.43,970.90,-881.99"/>
<path data-id="53-54" d="M618.17,-930.41,616.23,-986.50"/>
<path data-id="53-83" d="M618.17,-930.41,647.70,-966.38"/>
<path data-id="53-180" d="M618.17,-930.41,563.87,-883.16"/>
<path data-id="54-83" d="M616.23,-986.50,647.70,-966.38"/>
<path data-id="54-268" d="M616.23,-986.50,637.82,-1111.18"/>
<path data-id="55-102" d="M431.45,-321.28,379.14,-254.61"/>
<path data-id="55-347" d="M431.45,-321.28,463.29,-374.79"/>
<path data-id="56-249" d="M1235.33,-1442.63,1160.26,-1324.61"/>
<path data-id="56-257" d="M1235.33,-1442.63,1148.65,-1470.86"/>
<path data-id="56-371" d="M1235.33,-1442.63,1268.48,-1513.93"/>
<path data-id="57-124" d="M747.89,-925.82,771.95,-844.65"/>
<path data-id="57-183" d="M747.89,-925.82,696.78,-936.25"/>
<path data-id="57-256" d="M747.89,-925.82,808.40,-994.69"/>
<path data-id="58-155" d="M794.22,-389.01,872.63,-381.98"/>
<path data-id="58-365" d="M794.22,-389.01,858.59,-508.29"/>
<path data-id="59-73" d="M775.13,-232.90,732.45,-223.78"/>
<path data-id="59-311" d="M775.13,-232.90,837.60,-270.70"/>
<path data-id="59-329" d="M775.13,-232.90,842.28,-236.01"/>
<path data-id="60-282" d="M904.06,-1916.10,855.79,-1821.50"/>
<path data-id="60-284" d="M904.06,-1916.10,963.68,-1915.32"/>
<path data-id="61-119" d="M1107.61,-1192.35,1107.95,-1220.69"/>
<path data-id="61-139" d="M1107.61,-1192.35,977.41,-1113.56"/>
<path data-id="61-145" d="M1107.61,-1192.35,1255.97,-1101.42"/>
<path data-id="62-189" d="M1200.57,-0.76,1248.59,-13.04"/>
<path data-id="63-146" d="M291.63,-1870.74,174.08,-1817.35"/>
<path data-id="63-149" d="M291.63,-1870.74,249.30,-1725.54"/>
<path data-id="63-192" d="M291.63,-1870.74,303.26,-1715.16"/>
<path data-id="63-198" d="M291.63,-1870.74,266.52,-1926.54"/>
<path data-id="63-215" d="M291.63,-1870.74,363.77,-1852.43"/>
<path data-id="64-242" d="M923.08,-745.19,962.38,-786.00"/>
<path data-id="64-246" d="M923.08,-745.19,905.09,-657.79"/>
<path data-id="64-316" d="M923.08,-745.19,983.48,-753.00"/>
<path data-id="64-345" d="M923.08,-745.19,847.95,-746.17"/>
<path data-id="65-97" d="M1587.80,-121.03,1533.09,-172.29"/>
<path data-id="65-350" d="M1587.80,-121.03,1610.46,-213.40"/>
<path data-id="66-81" d="M1072.15,-917.10,1140.17,-936.52"/>
<path data-id="66-87" d="M1072.15,-917.10,1141.13,-861.89"/>
<path data-id="66-172" d="M1072.15,-917.10,1011.87,-961.56"/>
<path data-id="66-289" d="M1072.15,-917.10,1051.30,-779.98"/>
<path data-id="66-354" d="M1072.15,-917.10,970.90,-881.99"/>
<path data-id="67-201" d="M1735.62,-777.15,1785.97,-796.41"/>
<path data-id="67-266" d="M1735.62,-777.15,1707.63,-815.17"/>
<path data-id="67-270" d="M1735.62,-777.15,1774.55,-722.52"/>
<path data-id="67-362" d="M1735.62,-777.15,1677.49,-758.08"/>
<path data-id="68-84" d="M89.10,-1006.28,97.07,-966.36"/>
<path data-id="68-131" d="M89.10,-1006.28,111.68,-1060.93"/>
<path data-id="68-230" d="M89.10,-1006.28,20.30,-996.05"/>
<path data-id="69-167" d="M1129.91,-656.21,1179.36,-626.19"/>
<path data-id="69-171" d="M1129.91,-656.21,1097.52,-715.75"/>
<path data-id="70-184" d="M1789.49,-1343.35,1789.87,-1296.28"/>
<path data-id="70-332" d="M1789.49,-1343.35,1759.17,-1301.26"/>
<path data-id="71-72" d="M89.07,-778.87,118.91,-774.66"/>
<path data-id="71-108" d="M89.07,-778.87,26.63,-710.09"/>
<path data-id="71-241" d="M89.07,-778.87,108.95,-824.99"/>
<path data-id="72-241" d="M118.91,-774.66,108.95,-824.99"/>
<path data-id="72-259" d="M118.91,-774.66,160.03,-755.29"/>
<path data-id="73-113" d="M732.45,-223.78,640.84,-360.18"/>
<path data-id="74-101" d="M163.04,-715.65,148.24,-641.04"/>
<path data-id="74-259" d="M163.04,-715.65,160.03,-755.29"/>
<path data-id="74-310" d="M163.04,-715.65,357.91,-680.87"/>
<path data-id="75-79" d="M225.80,-887.28,269.27,-961.80"/>
<path data-id="75-143" d="M225.80,-887.28,160.57,-923.71"/>
<path data-id="75-241" d="M225.80,-887.28,108.95,-824.99"/>
<path data-id="75-259" d="M225.80,-887.28,160.03,-755.29"/>
<path data-id="75-263" d="M225.80,-887.28,374.24,-834.26"/>
<path data-id="76-250" d="M1419.88,-1826.63,1499.17,-1781.57"/>
<path data-id="76-281" d="M1419.88,-1826.63,1469.83,-1911.72"/>
<path data-id="77-114" d="M1839.88,-1920.52,1885.19,-1783.78"/>
<path data-id="77-251" d="M1839.88,-1920.52,1780.47,-1882.48"/>
<path data-id="78-79" d="M364.11,-1047.93,269.27,-961.80"/>
<path data-id="78-82" d="M364.11,-1047.93,280.14,-1110.10"/>
<path data-id="78-343" d="M364.11,-1047.93,429.30,-915.90"/>
<path data-id="79-82" d="M269.27,-961.80,280.14,-1110.10"/>
<path data-id="79-263" d="M269.27,-961.80,374.24,-834.26"/>
<path data-id="79-343" d="M269.27,-961.80,429.30,-915.90"/>
<path data-id="80-148" d="M1715.68,-1641.48,1795.46,-1716.08"/>
<path data-id="80-176" d="M1715.68,-1641.48,1776.87,-1619.38"/>
<path data-id="80-193" d="M1715.68,-1641.48,1660.14,-1669.01"/>
<path data-id="80-360" d="M1715.68,-1641.48,1682.50,-1566.67"/>
<path data-id="81-145" d="M1140.17,-936.52,1255.97,-1101.42"/>
<path data-id="81-228" d="M1140.17,-936.52,1161.41,-922.48"/>
<path data-id="82-131" d="M280.14,-1110.10,111.68,-1060.93"/>
<path data-id="82-349" d="M280.14,-1110.10,300.25,-1246.30"/>
<path data-id="82-352" d="M280.14,-1110.10,78.20,-1221.94"/>
<path data-id="83-129" d="M647.70,-966.38,767.04,-1116.93"/>
<path data-id="83-183" d="M647.70,-966.38,696.78,-936.25"/>
<path data-id="84-143" d="M97.07,-966.36,160.57,-923.71"/>
<path data-id="84-314" d="M97.07,-966.36,67.61,-910.03"/>
<path data-id="85-140" d="M1092.46,-1909.02,1166.72,-1838.60"/>
<path data-id="85-280" d="M1092.46,-1909.02,1062.33,-1881.89"/>
<path data-id="85-290" d="M1092.46,-1909.02,1189.57,-1924.97"/>
<path data-id="86-147" d="M1816.99,-1564.43,1871.83,-1495.36"/>
<path data-id="86-176" d="M1816.99,-1564.43,1776.87,-1619.38"/>
<path data-id="86-197" d="M1816.99,-1564.43,1924.84,-1545.62"/>
<path data-id="86-334" d="M1816.99,-1564.43,1878.74,-1613.81"/>
<path data-id="87-228" d="M1141.13,-861.89,1161.41,-922.48"/>
<path data-id="87-272" d="M1141.13,-861.89,1193.19,-868.39"/>
<path data-id="87-289" d="M1141.13,-861.89,1051.30,-779.98"/>
<path data-id="88-99" d="M406.07,-1620.36,373.85,-1685.61"/>
<path data-id="88-106" d="M406.07,-1620.36,401.73,-1585.16"/>
<path data-id="88-298" d="M406.07,-1620.36,457.31,-1638.69"/>
<path data-id="89-147" d="M1869.62,-1468.07,1871.83,-1495.36"/>
<path data-id="89-151" d="M1869.62,-1468.07,1926.96,-1438.94"/>
<path data-id="89-324" d="M1869.62,-1468.07,1908.53,-1415.88"/>
<path data-id="90-196" d="M483.02,-431.03,545.55,-379.04"/>
<path data-id="90-214" d="M483.02,-431.03,403.28,-411.53"/>
<path data-id="90-347" d="M483.02,-431.03,463.29,-374.79"/>
<path data-id="91-153" d="M1072.96,-1516.19,1052.12,-1585.89"/>
<path data-id="91-321" d="M1072.96,-1516.19,1012.99,-1495.64"/>
<path data-id="91-357" d="M1072.96,-1516.19,1125.02,-1490.87"/>
<path data-id="92-140" d="M1095.87,-1798.08,1166.72,-1838.60"/>
<path data-id="92-280" d="M1095.87,-1798.08,1062.33,-1881.89"/>
<path data-id="92-339" d="M1095.87,-1798.08,1004.97,-1726.38"/>
<path data-id="93-134" d="M680.45,-1442.77,796.11,-1468.87"/>
<path data-id="93-261" d="M680.45,-1442.77,628.10,-1534.70"/>
<path data-id="93-278" d="M680.45,-1442.77,740.72,-1313.49"/>
<path data-id="94-243" d="M197.99,-278.31,136.07,-260.37"/>
<path data-id="95-103" d="M1836.00,-350.85,1834.83,-236.10"/>
<path data-id="95-150" d="M1836.00,-350.85,1878.73,-443.07"/>
<path data-id="95-200" d="M1836.00,-350.85,1730.85,-303.57"/>
<path data-id="95-358" d="M1836.00,-350.85,1784.57,-401.12"/>
<path data-id="95-368" d="M1836.00,-350.85,1894.82,-249.41"/>
<path data-id="96-163" d="M1351.05,-1389.05,1370.69,-1345.71"/>
<path data-id="96-361" d="M1351.05,-1389.05,1350.48,-1468.50"/>
<path data-id="97-322" d="M1533.09,-172.29,1509.00,-208.36"/>
<path data-id="97-350" d="M1533.09,-172.29,1610.46,-213.40"/>
<path data-id="98-135" d="M1573.95,-513.30,1650.88,-484.61"/>
<path data-id="98-220" d="M1573.95,-513.30,1570.01,-420.64"/>
<path data-id="98-231" d="M1573.95,-513.30,1646.18,-713.89"/>
<path data-id="98-372" d="M1573.95,-513.30,1499.64,-554.41"/>
<path data-id="99-192" d="M373.85,-1685.61,303.26,-1715.16"/>
<path data-id="99-219" d="M373.85,-1685.61,384.97,-1744.30"/>
<path data-id="100-121" d="M1134.34,-345.13,1017.24,-288.28"/>
<path data-id="100-165" d="M1134.34,-345.13,1055.37,-394.20"/>
<path data-id="100-195" d="M1134.34,-345.13,1104.74,-418.44"/>
<path data-id="100-299" d="M1134.34,-345.13,1234.19,-357.53"/>
<path data-id="100-331" d="M1134.34,-345.13,1200.24,-224.05"/>
<path data-id="101-194" d="M148.24,-641.04,67.91,-646.77"/>
<path data-id="101-312" d="M148.24,-641.04,129.10,-609.07"/>
<path data-id="102-233" d="M379.14,-254.61,370.42,-181.84"/>
<path data-id="102-359" d="M379.14,-254.61,326.93,-188.01"/>
<path data-id="103-200" d="M1834.83,-236.10,1730.85,-303.57"/>
<path data-id="103-326" d="M1834.83,-236.10,1902.16,-192.45"/>
<path data-id="103-368" d="M1834.83,-236.10,1894.82,-249.41"/>
<path data-id="104-167" d="M1246.59,-733.25,1179.36,-626.19"/>
<path data-id="104-171" d="M1246.59,-733.25,1097.52,-715.75"/>
<path data-id="104-181" d="M1246.59,-733.25,1371.67,-720.21"/>
<path data-id="104-318" d="M1246.59,-733.25,1286.11,-814.47"/>
<path data-id="105-179" d="M1659.55,-1441.45,1677.81,-1342.89"/>
<path data-id="105-360" d="M1659.55,-1441.45,1682.50,-1566.67"/>
<path data-id="106-297" d="M401.73,-1585.16,446.36,-1549.89"/>
<path data-id="107-148" d="M1717.33,-1772.80,1795.46,-1716.08"/>
<path data-id="107-251" d="M1717.33,-1772.80,1780.47,-1882.48"/>
<path data-id="107-262" d="M1717.33,-1772.80,1590.08,-1857.08"/>
<path data-id="107-353" d="M1717.33,-1772.80,1661.19,-1716.62"/>
<path data-id="108-194" d="M26.63,-710.09,67.91,-646.77"/>
<path data-id="109-110" d="M742.98,-699.49,609.71,-791.97"/>
<path data-id="109-260" d="M742.98,-699.49,773.20,-705.49"/>
<path data-id="109-277" d="M742.98,-699.49,684.73,-594.77"/>
<path data-id="110-116" d="M609.71,-791.97,762.77,-762.74"/>
<path data-id="110-124" d="M609.71,-791.97,771.95,-844.65"/>
<path data-id="110-180" d="M609.71,-791.97,563.87,-883.16"/>
<path data-id="110-229" d="M609.71,-791.97,445.00,-718.52"/>
<path data-id="111-128" d="M247.64,-25.31,206.93,-165.57"/>
<path data-id="111-363" d="M247.64,-25.31,308.04,-38.82"/>
<path data-id="112-127" d="M982.35,-1687.09,988.88,-1576.54"/>
<path data-id="112-153" d="M982.35,-1687.09,1052.12,-1585.89"/>
<path data-id="112-217" d="M982.35,-1687.09,765.45,-1610.29"/>
<path data-id="112-236" d="M982.35,-1687.09,912.11,-1761.46"/>
<path data-id="112-339" d="M982.35,-1687.09,1004.97,-1726.38"/>
<path data-id="113-158" d="M640.84,-360.18,660.19,-407.85"/>
<path data-id="113-196" d="M640.84,-360.18,545.55,-379.04"/>
<path data-id="113-224" d="M640.84,-360.18,567.70,-215.92"/>
<path data-id="114-148" d="M1885.19,-1783.78,1795.46,-1716.08"/>
<path data-id="114-251" d="M1885.19,-1783.78,1780.47,-1882.48"/>
<path data-id="115-162" d="M1863.70,-572.52,1915.62,-533.71"/>
<path data-id="115-264" d="M1863.70,-572.52,1783.44,-456.71"/>
<path data-id="115-270" d="M1863.70,-572.52,1774.55,-722.52"/>
<path data-id="115-325" d="M1863.70,-572.52,1911.69,-610.00"/>
<path data-id="115-327" d="M1863.70,-572.52,1705.38,-535.81"/>
<path data-id="116-124" d="M762.77,-762.74,771.95,-844.65"/>
<path data-id="116-253" d="M762.77,-762.74,832.34,-719.79"/>
<path data-id="116-260" d="M762.77,-762.74,773.20,-705.49"/>
<path data-id="116-345" d="M762.77,-762.74,847.95,-746.17"/>
<path data-id="117-187" d="M643.48,-1226.77,557.33,-1343.33"/>
<path data-id="117-278" d="M643.48,-1226.77,740.72,-1313.49"/>
<path data-id="117-370" d="M643.48,-1226.77,696.85,-1176.03"/>
<path data-id="118-166" d="M1032.06,-450.20,981.44,-614.47"/>
<path data-id="118-207" d="M1032.06,-450.20,1086.50,-472.31"/>
<path data-id="118-306" d="M1032.06,-450.20,950.97,-442.79"/>
<path data-id="119-199" d="M1107.95,-1220.69,996.32,-1267.27"/>
<path data-id="119-292" d="M1107.95,-1220.69,1179.38,-1234.37"/>
<path data-id="119-340" d="M1107.95,-1220.69,1073.85,-1362.38"/>
<path data-id="120-121" d="M1026.79,-363.61,1017.24,-288.28"/>
<path data-id="120-165" d="M1026.79,-363.61,1055.37,-394.20"/>
<path data-id="120-306" d="M1026.79,-363.61,950.97,-442.79"/>
<path data-id="121-123" d="M1017.24,-288.28,1028.96,-258.81"/>
<path data-id="121-155" d="M1017.24,-288.28,872.63,-381.98"/>
<path data-id="121-311" d="M1017.24,-288.28,837.60,-270.70"/>
<path data-id="121-329" d="M1017.24,-288.28,842.28,-236.01"/>
<path data-id="122-197" d="M1905.30,-1608.72,1924.84,-1545.62"/>
<path data-id="122-334" d="M1905.30,-1608.72,1878.74,-1613.81"/>
<path data-id="123-182" d="M1028.96,-258.81,1028.33,-170.81"/>
<path data-id="124-320" d="M771.95,-844.65,890.02,-851.31"/>
<path data-id="125-202" d="M964.72,-1438.19,981.59,-1370.33"/>
<path data-id="126-158" d="M695.50,-450.30,660.19,-407.85"/>
<path data-id="126-293" d="M695.50,-450.30,637.48,-428.28"/>
<path data-id="126-365" d="M695.50,-450.30,858.59,-508.29"/>
<path data-id="127-134" d="M988.88,-1576.54,796.11,-1468.87"/>
<path data-id="127-153" d="M988.88,-1576.54,1052.12,-1585.89"/>
<path data-id="127-217" d="M988.88,-1576.54,765.45,-1610.29"/>
<path data-id="128-338" d="M206.93,-165.57,68.97,-185.54"/>
<path data-id="129-130" d="M767.04,-1116.93,913.39,-1107.77"/>
<path data-id="129-142" d="M767.04,-1116.93,870.33,-1262.73"/>
<path data-id="129-256" d="M767.04,-1116.93,808.40,-994.69"/>
<path data-id="129-370" d="M767.04,-1116.93,696.85,-1176.03"/>
<path data-id="130-139" d="M913.39,-1107.77,977.41,-1113.56"/>
<path data-id="130-142" d="M913.39,-1107.77,870.33,-1262.73"/>
<path data-id="130-205" d="M913.39,-1107.77,981.68,-1057.25"/>
<path data-id="130-285" d="M913.39,-1107.77,947.24,-1261.39"/>
<path data-id="130-348" d="M913.39,-1107.77,839.88,-991.90"/>
<path data-id="131-160" d="M111.68,-1060.93,6.90,-1146.35"/>
<path data-id="131-352" d="M111.68,-1060.93,78.20,-1221.94"/>
<path data-id="132-217" d="M718.32,-1603.45,765.45,-1610.29"/>
<path data-id="132-261" d="M718.32,-1603.45,628.10,-1534.70"/>
<path data-id="132-323" d="M718.32,-1603.45,657.27,-1710.68"/>
<path data-id="133-154" d="M191.82,-1367.19,397.34,-1427.76"/>
<path data-id="133-232" d="M191.82,-1367.19,63.70,-1413.77"/>
<path data-id="133-349" d="M191.82,-1367.19,300.25,-1246.30"/>
<path data-id="134-217" d="M796.11,-1468.87,765.45,-1610.29"/>
<path data-id="135-174" d="M1650.88,-484.61,1726.37,-484.47"/>
<path data-id="135-220" d="M1650.88,-484.61,1570.01,-420.64"/>
<path data-id="135-327" d="M1650.88,-484.61,1705.38,-535.81"/>
<path data-id="136-194" d="M47.81,-569.31,67.91,-646.77"/>
<path data-id="136-234" d="M47.81,-569.31,133.81,-506.17"/>
<path data-id="136-294" d="M47.81,-569.31,34.88,-546.04"/>
<path data-id="136-312" d="M47.81,-569.31,129.10,-609.07"/>
<path data-id="137-247" d="M1883.68,-1016.67,1857.45,-1076.32"/>
<path data-id="137-356" d="M1883.68,-1016.67,1851.86,-1015.57"/>
<path data-id="138-204" d="M1569.61,-845.88,1596.08,-963.13"/>
<path data-id="138-216" d="M1569.61,-845.88,1369.69,-813.62"/>
<path data-id="138-221" d="M1569.61,-845.88,1590.22,-800.94"/>
<path data-id="138-291" d="M1569.61,-845.88,1549.39,-966.18"/>
<path data-id="138-308" d="M1569.61,-845.88,1721.99,-902.32"/>
<path data-id="139-199" d="M977.41,-1113.56,996.32,-1267.27"/>
<path data-id="139-205" d="M977.41,-1113.56,981.68,-1057.25"/>
<path data-id="139-285" d="M977.41,-1113.56,947.24,-1261.39"/>
<path data-id="140-283" d="M1166.72,-1838.60,1251.86,-1862.43"/>
<path data-id="140-290" d="M1166.72,-1838.60,1189.57,-1924.97"/>
<path data-id="141-244" d="M1883.53,-1.45,1908.16,-148.80"/>
<path data-id="142-254" d="M870.33,-1262.73,871.85,-1361.70"/>
<path data-id="142-278" d="M870.33,-1262.73,740.72,-1313.49"/>
<path data-id="142-285" d="M870.33,-1262.73,947.24,-1261.39"/>
<path data-id="142-313" d="M870.33,-1262.73,930.04,-1305.33"/>
<path data-id="142-370" d="M870.33,-1262.73,696.85,-1176.03"/>
<path data-id="143-241" d="M160.57,-923.71,108.95,-824.99"/>
<path data-id="143-305" d="M160.57,-923.71,87.96,-842.92"/>
<path data-id="143-314" d="M160.57,-923.71,67.61,-910.03"/>
<path data-id="144-214" d="M280.42,-481.70,403.28,-411.53"/>
<path data-id="144-245" d="M280.42,-481.70,367.46,-514.29"/>
<path data-id="144-366" d="M280.42,-481.70,212.82,-470.26"/>
<path data-id="145-228" d="M1255.97,-1101.42,1161.41,-922.48"/>
<path data-id="146-149" d="M174.08,-1817.35,249.30,-1725.54"/>
<path data-id="146-315" d="M174.08,-1817.35,37.28,-1784.68"/>
<path data-id="147-197" d="M1871.83,-1495.36,1924.84,-1545.62"/>
<path data-id="148-176" d="M1795.46,-1716.08,1776.87,-1619.38"/>
<path data-id="149-192" d="M249.30,-1725.54,303.26,-1715.16"/>
<path data-id="149-287" d="M249.30,-1725.54,85.07,-1583.73"/>
<path data-id="149-336" d="M249.30,-1725.54,46.80,-1700.98"/>
<path data-id="150-162" d="M1878.73,-443.07,1915.62,-533.71"/>
<path data-id="150-264" d="M1878.73,-443.07,1783.44,-456.71"/>
<path data-id="150-358" d="M1878.73,-443.07,1784.57,-401.12"/>
<path data-id="151-197" d="M1926.96,-1438.94,1924.84,-1545.62"/>
<path data-id="151-324" d="M1926.96,-1438.94,1908.53,-1415.88"/>
<path data-id="152-231" d="M1664.63,-734.62,1646.18,-713.89"/>
<path data-id="152-362" d="M1664.63,-734.62,1677.49,-758.08"/>
<path data-id="153-212" d="M1052.12,-1585.89,1137.44,-1731.19"/>
<path data-id="153-240" d="M1052.12,-1585.89,1186.33,-1631.97"/>
<path data-id="154-187" d="M397.34,-1427.76,557.33,-1343.33"/>
<path data-id="154-297" d="M397.34,-1427.76,446.36,-1549.89"/>
<path data-id="154-349" d="M397.34,-1427.76,300.25,-1246.30"/>
<path data-id="155-306" d="M872.63,-381.98,950.97,-442.79"/>
<path data-id="155-311" d="M872.63,-381.98,837.60,-270.70"/>
<path data-id="155-365" d="M872.63,-381.98,858.59,-508.29"/>
<path data-id="156-210" d="M1471.69,-1489.73,1500.20,-1436.01"/>
<path data-id="156-275" d="M1471.69,-1489.73,1536.07,-1471.89"/>
<path data-id="156-303" d="M1471.69,-1489.73,1405.85,-1498.36"/>
<path data-id="157-172" d="M1024.71,-1055.77,1011.87,-961.56"/>
<path data-id="157-205" d="M1024.71,-1055.77,981.68,-1057.25"/>
<path data-id="158-293" d="M660.19,-407.85,637.48,-428.28"/>
<path data-id="159-178" d="M1545.09,-1168.49,1511.22,-1041.19"/>
<path data-id="159-235" d="M1545.09,-1168.49,1624.25,-1301.99"/>
<path data-id="159-301" d="M1545.09,-1168.49,1404.23,-1164.58"/>
<path data-id="159-317" d="M1545.09,-1168.49,1448.76,-1348.66"/>
<path data-id="160-230" d="M6.90,-1146.35,20.30,-996.05"/>
<path data-id="160-352" d="M6.90,-1146.35,78.20,-1221.94"/>
<path data-id="161-239" d="M24.69,-211.44,69.19,-235.48"/>
<path data-id="161-286" d="M24.69,-211.44,23.31,-176.66"/>
<path data-id="161-338" d="M24.69,-211.44,68.97,-185.54"/>
<path data-id="162-325" d="M1915.62,-533.71,1911.69,-610.00"/>
<path data-id="163-269" d="M1370.69,-1345.71,1242.14,-1235.33"/>
<path data-id="163-304" d="M1370.69,-1345.71,1336.15,-1184.25"/>
<path data-id="163-317" d="M1370.69,-1345.71,1448.76,-1348.66"/>
<path data-id="164-225" d="M1659.63,-1083.97,1757.35,-1043.35"/>
<path data-id="164-226" d="M1659.63,-1083.97,1563.61,-1004.35"/>
<path data-id="164-351" d="M1659.63,-1083.97,1806.13,-1183.82"/>
<path data-id="166-171" d="M981.44,-614.47,1097.52,-715.75"/>
<path data-id="166-218" d="M981.44,-614.47,909.03,-612.17"/>
<path data-id="166-306" d="M981.44,-614.47,950.97,-442.79"/>
<path data-id="166-316" d="M981.44,-614.47,983.48,-753.00"/>
<path data-id="167-328" d="M1179.36,-626.19,1225.93,-453.94"/>
<path data-id="168-249" d="M1130.73,-1452.40,1160.26,-1324.61"/>
<path data-id="168-257" d="M1130.73,-1452.40,1148.65,-1470.86"/>
<path data-id="168-340" d="M1130.73,-1452.40,1073.85,-1362.38"/>
<path data-id="168-357" d="M1130.73,-1452.40,1125.02,-1490.87"/>
<path data-id="169-178" d="M1362.59,-1097.17,1511.22,-1041.19"/>
<path data-id="169-301" d="M1362.59,-1097.17,1404.23,-1164.58"/>
<path data-id="169-304" d="M1362.59,-1097.17,1336.15,-1184.25"/>
<path data-id="170-249" d="M1170.83,-1291.81,1160.26,-1324.61"/>
<path data-id="170-292" d="M1170.83,-1291.81,1179.38,-1234.37"/>
<path data-id="171-222" d="M1097.52,-715.75,1035.91,-757.26"/>
<path data-id="171-289" d="M1097.52,-715.75,1051.30,-779.98"/>
<path data-id="172-205" d="M1011.87,-961.56,981.68,-1057.25"/>
<path data-id="173-225" d="M1828.87,-1120.01,1757.35,-1043.35"/>
<path data-id="173-247" d="M1828.87,-1120.01,1857.45,-1076.32"/>
<path data-id="173-351" d="M1828.87,-1120.01,1806.13,-1183.82"/>
<path data-id="174-264" d="M1726.37,-484.47,1783.44,-456.71"/>
<path data-id="174-327" d="M1726.37,-484.47,1705.38,-535.81"/>
<path data-id="175-341" d="M1426.55,-440.16,1361.83,-451.85"/>
<path data-id="175-355" d="M1426.55,-440.16,1446.45,-380.82"/>
<path data-id="175-372" d="M1426.55,-440.16,1499.64,-554.41"/>
<path data-id="176-334" d="M1776.87,-1619.38,1878.74,-1613.81"/>
<path data-id="177-203" d="M1552.83,-1351.66,1587.99,-1358.93"/>
<path data-id="177-210" d="M1552.83,-1351.66,1500.20,-1436.01"/>
<path data-id="177-317" d="M1552.83,-1351.66,1448.76,-1348.66"/>
<path data-id="178-226" d="M1511.22,-1041.19,1563.61,-1004.35"/>
<path data-id="178-301" d="M1511.22,-1041.19,1404.23,-1164.58"/>
<path data-id="179-203" d="M1677.81,-1342.89,1587.99,-1358.93"/>
<path data-id="179-235" d="M1677.81,-1342.89,1624.25,-1301.99"/>
<path data-id="180-229" d="M563.87,-883.16,445.00,-718.52"/>
<path data-id="180-343" d="M563.87,-883.16,429.30,-915.90"/>
<path data-id="181-216" d="M1371.67,-720.21,1369.69,-813.62"/>
<path data-id="181-221" d="M1371.67,-720.21,1590.22,-800.94"/>
<path data-id="181-341" d="M1371.67,-720.21,1361.83,-451.85"/>
<path data-id="181-372" d="M1371.67,-720.21,1499.64,-554.41"/>
<path data-id="182-329" d="M1028.33,-170.81,842.28,-236.01"/>
<path data-id="184-332" d="M1789.87,-1296.28,1759.17,-1301.26"/>
<path data-id="184-351" d="M1789.87,-1296.28,1806.13,-1183.82"/>
<path data-id="185-359" d="M308.76,-159.15,326.93,-188.01"/>
<path data-id="185-363" d="M308.76,-159.15,308.04,-38.82"/>
<path data-id="186-320" d="M912.95,-919.75,890.02,-851.31"/>
<path data-id="186-348" d="M912.95,-919.75,839.88,-991.90"/>
<path data-id="188-193" d="M1608.72,-1580.84,1660.14,-1669.01"/>
<path data-id="188-227" d="M1608.72,-1580.84,1492.92,-1674.90"/>
<path data-id="188-300" d="M1608.72,-1580.84,1579.09,-1530.91"/>
<path data-id="188-360" d="M1608.72,-1580.84,1682.50,-1566.67"/>
<path data-id="189-364" d="M1248.59,-13.04,1345.81,-56.29"/>
<path data-id="190-209" d="M696.33,-126.63,655.71,-43.83"/>
<path data-id="190-223" d="M696.33,-126.63,723.79,-94.97"/>
<path data-id="190-279" d="M696.33,-126.63,600.21,-182.39"/>
<path data-id="191-228" d="M1342.88,-1002.32,1161.41,-922.48"/>
<path data-id="192-219" d="M303.26,-1715.16,384.97,-1744.30"/>
<path data-id="193-227" d="M1660.14,-1669.01,1492.92,-1674.90"/>
<path data-id="193-353" d="M1660.14,-1669.01,1661.19,-1716.62"/>
<path data-id="194-312" d="M67.91,-646.77,129.10,-609.07"/>
<path data-id="195-207" d="M1104.74,-418.44,1086.50,-472.31"/>
<path data-id="195-328" d="M1104.74,-418.44,1225.93,-453.94"/>
<path data-id="196-224" d="M545.55,-379.04,567.70,-215.92"/>
<path data-id="196-347" d="M545.55,-379.04,463.29,-374.79"/>
<path data-id="199-202" d="M996.32,-1267.27,981.59,-1370.33"/>
<path data-id="199-285" d="M996.32,-1267.27,947.24,-1261.39"/>
<path data-id="199-340" d="M996.32,-1267.27,1073.85,-1362.38"/>
<path data-id="200-358" d="M1730.85,-303.57,1784.57,-401.12"/>
<path data-id="200-373" d="M1730.85,-303.57,1658.25,-279.57"/>
<path data-id="201-270" d="M1785.97,-796.41,1774.55,-722.52"/>
<path data-id="201-276" d="M1785.97,-796.41,1792.65,-879.09"/>
<path data-id="201-309" d="M1785.97,-796.41,1910.90,-727.85"/>
<path data-id="202-313" d="M981.59,-1370.33,930.04,-1305.33"/>
<path data-id="202-340" d="M981.59,-1370.33,1073.85,-1362.38"/>
<path data-id="203-235" d="M1587.99,-1358.93,1624.25,-1301.99"/>
<path data-id="204-226" d="M1596.08,-963.13,1563.61,-1004.35"/>
<path data-id="204-291" d="M1596.08,-963.13,1549.39,-966.18"/>
<path data-id="204-308" d="M1596.08,-963.13,1721.99,-902.32"/>
<path data-id="205-348" d="M981.68,-1057.25,839.88,-991.90"/>
<path data-id="206-233" d="M511.85,-36.82,370.42,-181.84"/>
<path data-id="206-279" d="M511.85,-36.82,600.21,-182.39"/>
<path data-id="206-296" d="M511.85,-36.82,646.87,-8.39"/>
<path data-id="206-363" d="M511.85,-36.82,308.04,-38.82"/>
<path data-id="208-267" d="M9.80,-1626.02,18.44,-1681.86"/>
<path data-id="208-288" d="M9.80,-1626.02,32.71,-1590.01"/>
<path data-id="209-223" d="M655.71,-43.83,723.79,-94.97"/>
<path data-id="209-296" d="M655.71,-43.83,646.87,-8.39"/>
<path data-id="209-333" d="M655.71,-43.83,751.87,-14.45"/>
<path data-id="210-275" d="M1500.20,-1436.01,1536.07,-1471.89"/>
<path data-id="210-317" d="M1500.20,-1436.01,1448.76,-1348.66"/>
<path data-id="211-229" d="M392.62,-745.04,445.00,-718.52"/>
<path data-id="211-263" d="M392.62,-745.04,374.24,-834.26"/>
<path data-id="211-310" d="M392.62,-745.04,357.91,-680.87"/>
<path data-id="212-369" d="M1137.44,-1731.19,1212.11,-1682.73"/>
<path data-id="213-248" d="M567.73,-1697.32,566.35,-1746.38"/>
<path data-id="213-274" d="M567.73,-1697.32,569.67,-1647.37"/>
<path data-id="213-335" d="M567.73,-1697.32,597.27,-1678.51"/>
<path data-id="214-245" d="M403.28,-411.53,367.46,-514.29"/>
<path data-id="214-347" d="M403.28,-411.53,463.29,-374.79"/>
<path data-id="215-258" d="M363.77,-1852.43,389.83,-1793.23"/>
<path data-id="215-342" d="M363.77,-1852.43,495.20,-1922.04"/>
<path data-id="216-318" d="M1369.69,-813.62,1286.11,-814.47"/>
<path data-id="217-236" d="M765.45,-1610.29,912.11,-1761.46"/>
<path data-id="218-246" d="M909.03,-612.17,905.09,-657.79"/>
<path data-id="218-365" d="M909.03,-612.17,858.59,-508.29"/>
<path data-id="219-248" d="M384.97,-1744.30,566.35,-1746.38"/>
<path data-id="219-258" d="M384.97,-1744.30,389.83,-1793.23"/>
<path data-id="220-355" d="M1570.01,-420.64,1446.45,-380.82"/>
<path data-id="220-373" d="M1570.01,-420.64,1658.25,-279.57"/>
<path data-id="220-374" d="M1570.01,-420.64,1534.07,-280.13"/>
<path data-id="221-238" d="M1590.22,-800.94,1662.78,-788.01"/>
<path data-id="222-289" d="M1035.91,-757.26,1051.30,-779.98"/>
<path data-id="222-316" d="M1035.91,-757.26,983.48,-753.00"/>
<path data-id="223-333" d="M723.79,-94.97,751.87,-14.45"/>
<path data-id="224-279" d="M567.70,-215.92,600.21,-182.39"/>
<path data-id="225-247" d="M1757.35,-1043.35,1857.45,-1076.32"/>
<path data-id="225-308" d="M1757.35,-1043.35,1721.99,-902.32"/>
<path data-id="225-356" d="M1757.35,-1043.35,1851.86,-1015.57"/>
<path data-id="226-291" d="M1563.61,-1004.35,1549.39,-966.18"/>
<path data-id="227-250" d="M1492.92,-1674.90,1499.17,-1781.57"/>
<path data-id="227-353" d="M1492.92,-1674.90,1661.19,-1716.62"/>
<path data-id="228-272" d="M1161.41,-922.48,1193.19,-868.39"/>
<path data-id="230-314" d="M20.30,-996.05,67.61,-910.03"/>
<path data-id="231-327" d="M1646.18,-713.89,1705.38,-535.81"/>
<path data-id="231-372" d="M1646.18,-713.89,1499.64,-554.41"/>
<path data-id="232-330" d="M63.70,-1413.77,27.46,-1451.24"/>
<path data-id="232-352" d="M63.70,-1413.77,78.20,-1221.94"/>
<path data-id="233-359" d="M370.42,-181.84,326.93,-188.01"/>
<path data-id="234-294" d="M133.81,-506.17,34.88,-546.04"/>
<path data-id="234-302" d="M133.81,-506.17,188.18,-503.50"/>
<path data-id="234-312" d="M133.81,-506.17,129.10,-609.07"/>
<path data-id="236-282" d="M912.11,-1761.46,855.79,-1821.50"/>
<path data-id="236-284" d="M912.11,-1761.46,963.68,-1915.32"/>
<path data-id="236-339" d="M912.11,-1761.46,1004.97,-1726.38"/>
<path data-id="237-245" d="M406.19,-576.51,367.46,-514.29"/>
<path data-id="237-310" d="M406.19,-576.51,357.91,-680.87"/>
<path data-id="238-266" d="M1662.78,-788.01,1707.63,-815.17"/>
<path data-id="238-362" d="M1662.78,-788.01,1677.49,-758.08"/>
<path data-id="239-319" d="M69.19,-235.48,84.19,-256.30"/>
<path data-id="239-338" d="M69.19,-235.48,68.97,-185.54"/>
<path data-id="240-307" d="M1186.33,-1631.97,1203.51,-1582.00"/>
<path data-id="240-369" d="M1186.33,-1631.97,1212.11,-1682.73"/>
<path data-id="241-305" d="M108.95,-824.99,87.96,-842.92"/>
<path data-id="242-316" d="M962.38,-786.00,983.48,-753.00"/>
<path data-id="243-319" d="M136.07,-260.37,84.19,-256.30"/>
<path data-id="244-326" d="M1908.16,-148.80,1902.16,-192.45"/>
<path data-id="246-253" d="M905.09,-657.79,832.34,-719.79"/>
<path data-id="247-356" d="M1857.45,-1076.32,1851.86,-1015.57"/>
<path data-id="248-258" d="M566.35,-1746.38,389.83,-1793.23"/>
<path data-id="248-323" d="M566.35,-1746.38,657.27,-1710.68"/>
<path data-id="248-342" d="M566.35,-1746.38,495.20,-1922.04"/>
<path data-id="249-340" d="M1160.26,-1324.61,1073.85,-1362.38"/>
<path data-id="250-262" d="M1499.17,-1781.57,1590.08,-1857.08"/>
<path data-id="250-281" d="M1499.17,-1781.57,1469.83,-1911.72"/>
<path data-id="250-353" d="M1499.17,-1781.57,1661.19,-1716.62"/>
<path data-id="251-262" d="M1780.47,-1882.48,1590.08,-1857.08"/>
<path data-id="252-344" d="M1408.90,-265.86,1454.99,-225.53"/>
<path data-id="252-355" d="M1408.90,-265.86,1446.45,-380.82"/>
<path data-id="253-260" d="M832.34,-719.79,773.20,-705.49"/>
<path data-id="253-345" d="M832.34,-719.79,847.95,-746.17"/>
<path data-id="254-278" d="M871.85,-1361.70,740.72,-1313.49"/>
<path data-id="254-313" d="M871.85,-1361.70,930.04,-1305.33"/>
<path data-id="255-269" d="M1248.30,-1209.41,1242.14,-1235.33"/>
<path data-id="255-304" d="M1248.30,-1209.41,1336.15,-1184.25"/>
<path data-id="256-348" d="M808.40,-994.69,839.88,-991.90"/>
<path data-id="257-307" d="M1148.65,-1470.86,1203.51,-1582.00"/>
<path data-id="257-357" d="M1148.65,-1470.86,1125.02,-1490.87"/>
<path data-id="261-274" d="M628.10,-1534.70,569.67,-1647.37"/>
<path data-id="261-297" d="M628.10,-1534.70,446.36,-1549.89"/>
<path data-id="262-281" d="M1590.08,-1857.08,1469.83,-1911.72"/>
<path data-id="262-353" d="M1590.08,-1857.08,1661.19,-1716.62"/>
<path data-id="263-343" d="M374.24,-834.26,429.30,-915.90"/>
<path data-id="264-358" d="M1783.44,-456.71,1784.57,-401.12"/>
<path data-id="265-331" d="M1192.48,-156.35,1200.24,-224.05"/>
<path data-id="266-276" d="M1707.63,-815.17,1792.65,-879.09"/>
<path data-id="266-308" d="M1707.63,-815.17,1721.99,-902.32"/>
<path data-id="267-336" d="M18.44,-1681.86,46.80,-1700.98"/>
<path data-id="269-292" d="M1242.14,-1235.33,1179.38,-1234.37"/>
<path data-id="270-309" d="M1774.55,-722.52,1910.90,-727.85"/>
<path data-id="270-325" d="M1774.55,-722.52,1911.69,-610.00"/>
<path data-id="270-327" d="M1774.55,-722.52,1705.38,-535.81"/>
<path data-id="271-294" d="M10.74,-556.88,34.88,-546.04"/>
<path data-id="273-303" d="M1355.56,-1529.46,1405.85,-1498.36"/>
<path data-id="273-361" d="M1355.56,-1529.46,1350.48,-1468.50"/>
<path data-id="273-371" d="M1355.56,-1529.46,1268.48,-1513.93"/>
<path data-id="274-298" d="M569.67,-1647.37,457.31,-1638.69"/>
<path data-id="274-335" d="M569.67,-1647.37,597.27,-1678.51"/>
<path data-id="275-300" d="M1536.07,-1471.89,1579.09,-1530.91"/>
<path data-id="276-308" d="M1792.65,-879.09,1721.99,-902.32"/>
<path data-id="276-356" d="M1792.65,-879.09,1851.86,-1015.57"/>
<path data-id="278-370" d="M740.72,-1313.49,696.85,-1176.03"/>
<path data-id="282-295" d="M855.79,-1821.50,690.49,-1756.99"/>
<path data-id="283-290" d="M1251.86,-1862.43,1189.57,-1924.97"/>
<path data-id="283-367" d="M1251.86,-1862.43,1267.67,-1890.94"/>
<path data-id="283-369" d="M1251.86,-1862.43,1212.11,-1682.73"/>
<path data-id="285-313" d="M947.24,-1261.39,930.04,-1305.33"/>
<path data-id="286-338" d="M23.31,-176.66,68.97,-185.54"/>
<path data-id="287-288" d="M85.07,-1583.73,32.71,-1590.01"/>
<path data-id="287-337" d="M85.07,-1583.73,43.51,-1510.13"/>
<path data-id="288-337" d="M32.71,-1590.01,43.51,-1510.13"/>
<path data-id="289-354" d="M1051.30,-779.98,970.90,-881.99"/>
<path data-id="290-367" d="M1189.57,-1924.97,1267.67,-1890.94"/>
<path data-id="295-323" d="M690.49,-1756.99,657.27,-1710.68"/>
<path data-id="296-333" d="M646.87,-8.39,751.87,-14.45"/>
<path data-id="297-298" d="M446.36,-1549.89,457.31,-1638.69"/>
<path data-id="299-328" d="M1234.19,-357.53,1225.93,-453.94"/>
<path data-id="299-341" d="M1234.19,-357.53,1361.83,-451.85"/>
<path data-id="301-304" d="M1404.23,-1164.58,1336.15,-1184.25"/>
<path data-id="301-317" d="M1404.23,-1164.58,1448.76,-1348.66"/>
<path data-id="302-366" d="M188.18,-503.50,212.82,-470.26"/>
<path data-id="303-361" d="M1405.85,-1498.36,1350.48,-1468.50"/>
<path data-id="305-314" d="M87.96,-842.92,67.61,-910.03"/>
<path data-id="306-365" d="M950.97,-442.79,858.59,-508.29"/>
<path data-id="307-357" d="M1203.51,-1582.00,1125.02,-1490.87"/>
<path data-id="307-371" d="M1203.51,-1582.00,1268.48,-1513.93"/>
<path data-id="309-325" d="M1910.90,-727.85,1911.69,-610.00"/>
<path data-id="311-329" d="M837.60,-270.70,842.28,-236.01"/>
<path data-id="315-336" d="M37.28,-1784.68,46.80,-1700.98"/>
<path data-id="320-345" d="M890.02,-851.31,847.95,-746.17"/>
<path data-id="320-354" d="M890.02,-851.31,970.90,-881.99"/>
<path data-id="322-344" d="M1509.00,-208.36,1454.99,-225.53"/>
<path data-id="322-346" d="M1509.00,-208.36,1508.75,-243.00"/>
<path data-id="323-335" d="M657.27,-1710.68,597.27,-1678.51"/>
<path data-id="326-368" d="M1902.16,-192.45,1894.82,-249.41"/>
<path data-id="328-341" d="M1225.93,-453.94,1361.83,-451.85"/>
<path data-id="330-337" d="M27.46,-1451.24,43.51,-1510.13"/>
<path data-id="344-346" d="M1454.99,-225.53,1508.75,-243.00"/>
<path data-id="346-350" d="M1508.75,-243.00,1610.46,-213.40"/>
<path data-id="346-374" d="M1508.75,-243.00,1534.07,-280.13"/>
<path data-id="350-373" d="M1610.46,-213.40,1658.25,-279.57"/>
<path data-id="350-374" d="M1610.46,-213.40,1534.07,-280.13"/>
<path data-id="355-374" d="M1446.45,-380.82,1534.07,-280.13"/>
<path data-id="373-374" d="M1658.25,-279.57,1534.07,-280.13"/>
<circle data-id="0" cx="1249.99" cy="-277.82" r="10.00px"/>
<text data-id="0" x="1249.99" y="-277.82">R0</text>
<circle data-id="1" cx="1463.64" cy="-1549.94" r="10.00px"/>
<text data-id="1" x="1463.64" y="-1549.94">R1</text>
<circle data-id="2" cx="1784.94" cy="-123.94" r="10.00px"/>
<text data-id="2" x="1784.94" y="-123.94">R2</text>
<circle data-id="3" cx="952.10" cy="-909.16" r="10.00px"/>
<text data-id="3" x="952.10" y="-909.16">R3</text>
<circle data-id="4" cx="1270.79" cy="-856.82" r="10.00px"/>
<text data-id="4" x="1270.79" y="-856.82">R4</text>
<circle data-id="5" cx="727.23" cy="-406.69" r="10.00px"/>
<text data-id="5" x="727.23" y="-406.69">R5</text>
<circle data-id="6" cx="1111.25" cy="-229.26" r="10.00px"/>
<text data-id="6" x="1111.25" y="-229.26">R6</text>
<circle data-id="7" cx="179.87" cy="-1908.82" r="10.00px"/>
<text data-id="7" x="179.87" y="-1908.82">R7</text>
<circle data-id="8" cx="1279.72" cy="-1116.77" r="10.00px"/>
<text data-id="8" x="1279.72" y="-1116.77">R8</text>
<circle data-id="9" cx="1092.37" cy="-1031.91" r="10.00px"/>
<text data-id="9" x="1092.37" y="-1031.91">R9</text>
<circle data-id="10" cx="1102.23" cy="-492.35" r="10.00px"/>
<text data-id="10" x="1102.23" y="-492.35">R10</text>
<circle data-id="11" cx="160.14" cy="-1280.27" r="10.00px"/>
<text data-id="11" x="160.14" y="-1280.27">R11</text>
<circle data-id="12" cx="58.64" cy="-370.86" r="10.00px"/>
<text data-id="12" x="58.64" y="-370.86">R12</text>
<circle data-id="13" cx="1068.96" cy="-47.30" r="10.00px"/>
<text data-id="13" x="1068.96" y="-47.30">R13</text>
<circle data-id="14" cx="1255.29" cy="-1641.29" r="10.00px"/>
<text data-id="14" x="1255.29" y="-1641.29">R14</text>
<circle data-id="15" cx="630.87" cy="-1408.67" r="10.00px"/>
<text data-id="15" x="630.87" y="-1408.67">R15</text>
<circle data-id="16" cx="1130.40" cy="-1756.54" r="10.00px"/>
<text data-id="16" x="1130.40" y="-1756.54">R16</text>
<circle data-id="17" cx="1013.95" cy="-69.90" r="10.00px"/>
<text data-id="17" x="1013.95" y="-69.90">R17</text>
<circle data-id="18" cx="1305.56" cy="-1457.12" r="10.00px"/>
<text data-id="18" x="1305.56" y="-1457.12">R18</text>
<circle data-id="19" cx="1819.98" cy="-1399.64" r="10.00px"/>
<text data-id="19" x="1819.98" y="-1399.64">R19</text>
<circle data-id="20" cx="1270.17" cy="-101.67" r="10.00px"/>
<text data-id="20" x="1270.17" y="-101.67">R20</text>
<circle data-id="21" cx="222.01" cy="-186.31" r="10.00px"/>
<text data-id="21" x="222.01" y="-186.31">R21</text>
<circle data-id="22" cx="1646.07" cy="-1170.96" r="10.00px"/>
<text data-id="22" x="1646.07" y="-1170.96">R22</text>
<circle data-id="23" cx="765.16" cy="-578.04" r="10.00px"/>
<text data-id="23" x="765.16" y="-578.04">R23</text>
<circle data-id="24" cx="1006.91" cy="-1897.14" r="10.00px"/>
<text data-id="24" x="1006.91" y="-1897.14">R24</text>
<circle data-id="25" cx="585.03" cy="-973.64" r="10.00px"/>
<text data-id="25" x="585.03" y="-973.64">R25</text>
<circle data-id="26" cx="443.83" cy="-1068.58" r="10.00px"/>
<text data-id="26" x="443.83" y="-1068.58">R26</text>
<circle data-id="27" cx="168.23" cy="-1465.82" r="10.00px"/>
<text data-id="27" x="168.23" y="-1465.82">R27</text>
<circle data-id="28" cx="701.56" cy="-185.59" r="10.00px"/>
<text data-id="28" x="701.56" y="-185.59">R28</text>
<circle data-id="29" cx="843.55" cy="-1423.08" r="10.00px"/>
<text data-id="29" x="843.55" y="-1423.08">R29</text>
<circle data-id="30" cx="1149.34" cy="-212.43" r="10.00px"/>
<text data-id="30" x="1149.34" y="-212.43">R30</text>
<circle data-id="31" cx="454.53" cy="-264.60" r="10.00px"/>
<text data-id="31" x="454.53" y="-264.60">R31</text>
<circle data-id="32" cx="894.41" cy="-1373.82" r="10.00px"/>
<text data-id="32" x="894.41" y="-1373.82">R32</text>
<circle data-id="33" cx="1061.34" cy="-423.46" r="10.00px"/>
<text data-id="33" x="1061.34" y="-423.46">R33</text>
<circle data-id="34" cx="1355.74" cy="-893.13" r="10.00px"/>
<text data-id="34" x="1355.74" y="-893.13">R34</text>
<circle data-id="35" cx="652.41" cy="-538.46" r="10.00px"/>
<text data-id="35" x="652.41" y="-538.46">R35</text>
<circle data-id="36" cx="1617.74" cy="-1427.66" r="10.00px"/>
<text data-id="36" x="1617.74" y="-1427.66">R36</text>
<circle data-id="37" cx="1343.17" cy="-1038.34" r="10.00px"/>
<text data-id="37" x="1343.17" y="-1038.34">R37</text>
<circle data-id="38" cx="1728.72" cy="-1348.27" r="10.00px"/>
<text data-id="38" x="1728.72" y="-1348.27">R38</text>
<circle data-id="39" cx="643.08" cy="-1173.99" r="10.00px"/>
<text data-id="39" x="643.08" y="-1173.99">R39</text>
<circle data-id="40" cx="770.59" cy="-300.32" r="10.00px"/>
<text data-id="40" x="770.59" y="-300.32">R40</text>
<circle data-id="41" cx="1107.09" cy="-1102.03" r="10.00px"/>
<text data-id="41" x="1107.09" y="-1102.03">R41</text>
<circle data-id="42" cx="604.23" cy="-450.17" r="10.00px"/>
<text data-id="42" x="604.23" y="-450.17">R42</text>
<circle data-id="43" cx="1001.65" cy="-1443.66" r="10.00px"/>
<text data-id="43" x="1001.65" y="-1443.66">R43</text>
<circle data-id="44" cx="1350.42" cy="-1827.59" r="10.00px"/>
<text data-id="44" x="1350.42" y="-1827.59">R44</text>
<circle data-id="45" cx="261.24" cy="-358.45" r="10.00px"/>
<text data-id="45" x="261.24" y="-358.45">R45</text>
<circle data-id="46" cx="497.23" cy="-663.46" r="10.00px"/>
<text data-id="46" x="497.23" y="-663.46">R46</text>
<circle data-id="47" cx="1119.10" cy="-625.35" r="10.00px"/>
<text data-id="47" x="1119.10" y="-625.35">R47</text>
<circle data-id="48" cx="1446.42" cy="-148.90" r="10.00px"/>
<text data-id="48" x="1446.42" y="-148.90">R48</text>
<circle data-id="49" cx="1004.18" cy="-1547.16" r="10.00px"/>
<text data-id="49" x="1004.18" y="-1547.16">R49</text>
<circle data-id="50" cx="1869.02" cy="-1653.82" r="10.00px"/>
<text data-id="50" x="1869.02" y="-1653.82">R50</text>
<circle data-id="51" cx="1851.09" cy="-1682.60" r="10.00px"/>
<text data-id="51" x="1851.09" y="-1682.60">R51</text>
<circle data-id="52" cx="935.13" cy="-814.43" r="10.00px"/>
<text data-id="52" x="935.13" y="-814.43">R52</text>
<circle data-id="53" cx="618.17" cy="-930.41" r="10.00px"/>
<text data-id="53" x="618.17" y="-930.41">R53</text>
<circle data-id="54" cx="616.23" cy="-986.50" r="10.00px"/>
<text data-id="54" x="616.23" y="-986.50">R54</text>
<circle data-id="55" cx="431.45" cy="-321.28" r="10.00px"/>
<text data-id="55" x="431.45" y="-321.28">R55</text>
<circle data-id="56" cx="1235.33" cy="-1442.63" r="10.00px"/>
<text data-id="56" x="1235.33" y="-1442.63">R56</text>
<circle data-id="57" cx="747.89" cy="-925.82" r="10.00px"/>
<text data-id="57" x="747.89" y="-925.82">R57</text>
<circle data-id="58" cx="794.22" cy="-389.01" r="10.00px"/>
<text data-id="58" x="794.22" y="-389.01">R58</text>
<circle data-id="59" cx="775.13" cy="-232.90" r="10.00px"/>
<text data-id="59" x="775.13" y="-232.90">R59</text>
<circle data-id="60" cx="904.06" cy="-1916.10" r="10.00px"/>
<text data-id="60" x="904.06" y="-1916.10">R60</text>
<circle data-id="61" cx="1107.61" cy="-1192.35" r="10.00px"/>
<text data-id="61" x="1107.61" y="-1192.35">R61</text>
<circle data-id="62" cx="1200.57" cy="-0.76" r="10.00px"/>
<text data-id="62" x="1200.57" y="-0.76">R62</text>
<circle data-id="63" cx="291.63" cy="-1870.74" r="10.00px"/>
<text data-id="63" x="291.63" y="-1870.74">R63</text>
<circle data-id="64" cx="923.08" cy="-745.19" r="10.00px"/>
<text data-id="64" x="923.08" y="-745.19">R64</text>
<circle data-id="65" cx="1587.80" cy="-121.03" r="10.00px"/>
<text data-id="65" x="1587.80" y="-121.03">R65</text>
<circle data-id="66" cx="1072.15" cy="-917.10" r="10.00px"/>
<text data-id="66" x="1072.15" y="-917.10">R66</text>
<circle data-id="67" cx="1735.62" cy="-777.15" r="10.00px"/>
<text data-id="67" x="1735.62" y="-777.15">R67</text>
<circle data-id="68" cx="89.10" cy="-1006.28" r="10.00px"/>
<text data-id="68" x="89.10" y="-1006.28">R68</text>
<circle data-id="69" cx="1129.91" cy="-656.21" r="10.00px"/>
<text data-id="69" x="1129.91" y="-656.21">R69</text>
<circle data-id="70" cx="1789.49" cy="-1343.35" r="10.00px"/>
<text data-id="70" x="1789.49" y="-1343.35">R70</text>
<circle data-id="71" cx="89.07" cy="-778.87" r="10.00px"/>
<text data-id="71" x="89.07" y="-778.87">R71</text>
<circle data-id="72" cx="118.91" cy="-774.66" r="10.00px"/>
<text data-id="72" x="118.91" y="-774.66">R72</text>
<circle data-id="73" cx="732.45" cy="-223.78" r="10.00px"/>
<text data-id="73" x="732.45" y="-223.78">R73</text>
<circle data-id="74" cx="163.04" cy="-715.65" r="10.00px"/>
<text data-id="74" x="163.04" y="-715.65">R74</text>
<circle data-id="75" cx="225.80" cy="-887.28" r="10.00px"/>
<text data-id="75" x="225.80" y="-887.28">R75</text>
<circle data-id="76" cx="1419.88" cy="-1826.63" r="10.00px"/>
<text data-id="76" x="1419.88" y="-1826.63">R76</text>
<circle data-id="77" cx="1839.88" cy="-1920.52" r="10.00px"/>
<text data-id="77" x="1839.88" y="-1920.52">R77</text>
<circle data-id="78" cx="364.11" cy="-1047.93" r="10.00px"/>
<text data-id="78" x="364.11" y="-1047.93">R78</text>
<circle data-id="79" cx="269.27" cy="-961.80" r="10.00px"/>
<text data-id="79" x="269.27" y="-961.80">R79</text>
<circle data-id="80" cx="1715.68" cy="-1641.48" r="10.00px"/>
<text data-id="80" x="1715.68" y="-1641.48">R80</text>
<circle data-id="81" cx="1140.17" cy="-936.52" r="10.00px"/>
<text data-id="81" x="1140.17" y="-936.52">R81</text>
<circle data-id="82" cx="280.14" cy="-1110.10" r="10.00px"/>
<text data-id="82" x="280.14" y="-1110.10">R82</text>
<circle data-id="83" cx="647.70" cy="-966.38" r="10.00px"/>
<text data-id="83" x="647.70" y="-966.38">R83</text>
<circle data-id="84" cx="97.07" cy="-966.36" r="10.00px"/>
<text data-id="84" x="97.07" y="-966.36">R84</text>
<circle data-id="85" cx="1092.46" cy="-1909.02" r="10.00px"/>
<text data-id="85" x="1092.46" y="-1909.02">R85</text>
<circle data-id="86" cx="1816.99" cy="-1564.43" r="10.00px"/>
<text data-id="86" x="1816.99" y="-1564.43">R86</text>
<circle data-id="87" cx="1141.13" cy="-861.89" r="10.00px"/>
<text data-id="87" x="1141.13" y="-861.89">R87</text>
<circle data-id="88" cx="406.07" cy="-1620.36" r="10.00px"/>
<text data-id="88" x="406.07" y="-1620.36">R88</text>
<circle data-id="89" cx="1869.62" cy="-1468.07" r="10.00px"/>
<text data-id="89" x="1869.62" y="-1468.07">R89</text>
<circle data-id="90" cx="483.02" cy="-431.03" r="10.00px"/>
<text data-id="90" x="483.02" y="-431.03">R90</text>
<circle data-id="91" cx="1072.96" cy="-1516.19" r="10.00px"/>
<text data-id="91" x="1072.96" y="-1516.19">R91</text>
<circle data-id="92" cx="1095.87" cy="-1798.08" r="10.00px"/>
<text data-id="92" x="1095.87" y="-1798.08">R92</text>
<circle data-id="93" cx="680.45" cy="-1442.77" r="10.00px"/>
<text data-id="93" x="680.45" y="-1442.77">R93</text>
<circle data-id="94" cx="197.99" cy="-278.31" r="10.00px"/>
<text data-id="94" x="197.99" y="-278.31">R94</text>
<circle data-id="95" cx="1836.00" cy="-350.85" r="10.00px"/>
<text data-id="95" x="1836.00" y="-350.85">R95</text>
<circle data-id="96" cx="1351.05" cy="-1389.05" r="10.00px"/>
<text data-id="96" x="1351.05" y="-1389.05">R96</text>
<circle data-id="97" cx="1533.09" cy="-172.29" r="10.00px"/>
<text data-id="97" x="1533.09" y="-172.29">R97</text>
<circle data-id="98" cx="1573.95" cy="-513.30" r="10.00px"/>
<text data-id="98" x="1573.95" y="-513.30">R98</text>
<circle data-id="99" cx="373.85" cy="-1685.61" r="10.00px"/>
<text data-id="99" x="373.85" y="-1685.61">R99</text>
<circle data-id="100" cx="1134.34" cy="-345.13" r="10.00px"/>
<text data-id="100" x="1134.34" y="-345.13">R100</text>
<circle data-id="101" cx="148.24" cy="-641.04" r="10.00px"/>
<text data-id="101" x="148.24" y="-641.04">R101</text>
<circle data-id="102" cx="379.14" cy="-254.61" r="10.00px"/>
<text data-id="102" x="379.14" y="-254.61">R102</text>
<circle data-id="103" cx="1834.83" cy="-236.10" r="10.00px"/>
<text data-id="103" x="1834.83" y="-236.10">R103</text>
<circle data-id="104" cx="1246.59" cy="-733.25" r="10.00px"/>
<text data-id="104" x="1246.59" y="-733.25">R104</text>
<circle data-id="105" cx="1659.55" cy="-1441.45" r="10.00px"/>
<text data-id="105" x="1659.55" y="-1441.45">R105</text>
<circle data-id="106" cx="401.73" cy="-1585.16" r="10.00px"/>
<text data-id="106" x="401.73" y="-1585.16">R106</text>
<circle data-id="107" cx="1717.33" cy="-1772.80" r="10.00px"/>
<text data-id="107" x="1717.33" y="-1772.80">R107</text>
<circle data-id="108" cx="26.63" cy="-710.09" r="10.00px"/>
<text data-id="108" x="26.63" y="-710.09">R108</text>
<circle data-id="109" cx="742.98" cy="-699.49" r="10.00px"/>
<text data-id="109" x="742.98" y="-699.49">R109</text>
<circle data-id="110" cx="609.71" cy="-791.97" r="10.00px"/>
<text data-id="110" x="609.71" y="-791.97">R110</text>
<circle data-id="111" cx="247.64" cy="-25.31" r="10.00px"/>
<text data-id="111" x="247.64" y="-25.31">R111</text>
<circle data-id="112" cx="982.35" cy="-1687.09" r="10.00px"/>
<text data-id="112" x="982.35" y="-1687.09">R112</text>
<circle data-id="113" cx="640.84" cy="-360.18" r="10.00px"/>
<text data-id="113" x="640.84" y="-360.18">R113</text>
<circle data-id="114" cx="1885.19" cy="-1783.78" r="10.00px"/>
<text data-id="114" x="1885.19" y="-1783.78">R114</text>
<circle data-id="115" cx="1863.70" cy="-572.52" r="10.00px"/>
<text data-id="115" x="1863.70" y="-572.52">R115</text>
<circle data-id="116" cx="762.77" cy="-762.74" r="10.00px"/>
<text data-id="116" x="762.77" y="-762.74">R116</text>
<circle data-id="117" cx="643.48" cy="-1226.77" r="10.00px"/>
<text data-id="117" x="643.48" y="-1226.77">R117</text>
<circle data-id="118" cx="1032.06" cy="-450.20" r="10.00px"/>
<text data-id="118" x="1032.06" y="-450.20">R118</text>
<circle data-id="119" cx="1107.95" cy="-1220.69" r="10.00px"/>
<text data-id="119" x="1107.95" y="-1220.69">R119</text>
<circle data-id="120" cx="1026.79" cy="-363.61" r="10.00px"/>
<text data-id="120" x="1026.79" y="-363.61">R120</text>
<circle data-id="121" cx="1017.24" cy="-288.28" r="10.00px"/>
<text data-id="121" x="1017.24" y="-288.28">R121</text>
<circle data-id="122" cx="1905.30" cy="-1608.72" r="10.00px"/>
<text data-id="122" x="1905.30" y="-1608.72">R122</text>
<circle data-id="123" cx="1028.96" cy="-258.81" r="10.00px"/>
<text data-id="123" x="1028.96" y="-258.81">R123</text>
<circle data-id="124" cx="771.95" cy="-844.65" r="10.00px"/>
<text data-id="124" x="771.95" y="-844.65">R124</text>
<circle data-id="125" cx="964.72" cy="-1438.19" r="10.00px"/>
<text data-id="125" x="964.72" y="-1438.19">R125</text>
<circle data-id="126" cx="695.50" cy="-450.30" r="10.00px"/>
<text data-id="126" x="695.50" y="-450.30">R126</text>
<circle data-id="127" cx="988.88" cy="-1576.54" r="10.00px"/>
<text data-id="127" x="988.88" y="-1576.54">R127</text>
<circle data-id="128" cx="206.93" cy="-165.57" r="10.00px"/>
<text data-id="128" x="206.93" y="-165.57">R128</text>
<circle data-id="129" cx="767.04" cy="-1116.93" r="10.00px"/>
<text data-id="129" x="767.04" y="-1116.93">R129</text>
<circle data-id="130" cx="913.39" cy="-1107.77" r="10.00px"/>
<text data-id="130" x="913.39" y="-1107.77">R130</text>
<circle data-id="131" cx="111.68" cy="-1060.93" r="10.00px"/>
<text data-id="131" x="111.68" y="-1060.93">R131</text>
<circle data-id="132" cx="718.32" cy="-1603.45" r="10.00px"/>
<text data-id="132" x="718.32" y="-1603.45">R132</text>
<circle data-id="133" cx="191.82" cy="-1367.19" r="10.00px"/>
<text data-id="133" x="191.82" y="-1367.19">R133</text>
<circle data-id="134" cx="796.11" cy="-1468.87" r="10.00px"/>
<text data-id="134" x="796.11" y="-1468.87">R134</text>
<circle data-id="135" cx="1650.88" cy="-484.61" r="10.00px"/>
<text data-id="135" x="1650.88" y="-484.61">R135</text>
<circle data-id="136" cx="47.81" cy="-569.31" r="10.00px"/>
<text data-id="136" x="47.81" y="-569.31">R136</text>
<circle data-id="137" cx="1883.68" cy="-1016.67" r="10.00px"/>
<text data-id="137" x="1883.68" y="-1016.67">R137</text>
<circle data-id="138" cx="1569.61" cy="-845.88" r="10.00px"/>
<text data-id="138" x="1569.61" y="-845.88">R138</text>
<circle data-id="139" cx="977.41" cy="-1113.56" r="10.00px"/>
<text data-id="139" x="977.41" y="-1113.56">R139</text>
<circle data-id="140" cx="1166.72" cy="-1838.60" r="10.00px"/>
<text data-id="140" x="1166.72" y="-1838.60">R140</text>
<circle data-id="141" cx="1883.53" cy="-1.45" r="10.00px"/>
<text data-id="141" x="1883.53" y="-1.45">R141</text>
<circle data-id="142" cx="870.33" cy="-1262.73" r="10.00px"/>
<text data-id="142" x="870.33" y="-1262.73">R142</text>
<circle data-id="143" cx="160.57" cy="-923.71" r="10.00px"/>
<text data-id="143" x="160.57" y="-923.71">R143</text>
<circle data-id="144" cx="280.42" cy="-481.70" r="10.00px"/>
<text data-id="144" x="280.42" y="-481.70">R144</text>
<circle data-id="145" cx="1255.97" cy="-1101.42" r="10.00px"/>
<text data-id="145" x="1255.97" y="-1101.42">R145</text>
<circle data-id="146" cx="174.08" cy="-1817.35" r="10.00px"/>
<text data-id="146" x="174.08" y="-1817.35">R146</text>
<circle data-id="147" cx="1871.83" cy="-1495.36" r="10.00px"/>
<text data-id="147" x="1871.83" y="-1495.36">R147</text>
<circle data-id="148" cx="1795.46" cy="-1716.08" r="10.00px"/>
<text data-id="148" x="1795.46" y="-1716.08">R148</text>
<circle data-id="149" cx="249.30" cy="-1725.54" r="10.00px"/>
<text data-id="149" x="249.30" y="-1725.54">R149</text>
<circle data-id="150" cx="1878.73" cy="-443.07" r="10.00px"/>
<text data-id="150" x="1878.73" y="-443.07">R150</text>
<circle data-id="151" cx="1926.96" cy="-1438.94" r="10.00px"/>
<text data-id="151" x="1926.96" y="-1438.94">R151</text>
<circle data-id="152" cx="1664.63" cy="-734.62" r="10.00px"/>
<text data-id="152" x="1664.63" y="-734.62">R152</text>
<circle data-id="153" cx="1052.12" cy="-1585.89" r="10.00px"/>
<text data-id="153" x="1052.12" y="-1585.89">R153</text>
<circle data-id="154" cx="397.34" cy="-1427.76" r="10.00px"/>
<text data-id="154" x="397.34" y="-1427.76">R154</text>
<circle data-id="155" cx="872.63" cy="-381.98" r="10.00px"/>
<text data-id="155" x="872.63" y="-381.98">R155</text>
<circle data-id="156" cx="1471.69" cy="-1489.73" r="10.00px"/>
<text data-id="156" x="1471.69" y="-1489.73">R156</text>
<circle data-id="157" cx="1024.71" cy="-1055.77" r="10.00px"/>
<text data-id="157" x="1024.71" y="-1055.77">R157</text>
<circle data-id="158" cx="660.19" cy="-407.85" r="10.00px"/>
<text data-id="158" x="660.19" y="-407.85">R158</text>
<circle data-id="159" cx="1545.09" cy="-1168.49" r="10.00px"/>
<text data-id="159" x="1545.09" y="-1168.49">R159</text>
<circle data-id="160" cx="6.90" cy="-1146.35" r="10.00px"/>
<text data-id="160" x="6.90" y="-1146.35">R160</text>
<circle data-id="161" cx="24.69" cy="-211.44" r="10.00px"/>
<text data-id="161" x="24.69" y="-211.44">R161</text>
<circle data-id="162" cx="1915.62" cy="-533.71" r="10.00px"/>
<text data-id="162" x="1915.62" y="-533.71">R162</text>
<circle data-id="163" cx="1370.69" cy="-1345.71" r="10.00px"/>
<text data-id="163" x="1370.69" y="-1345.71">R163</text>
<circle data-id="164" cx="1659.63" cy="-1083.97" r="10.00px"/>
<text data-id="164" x="1659.63" y="-1083.97">R164</text>
<circle data-id="165" cx="1055.37" cy="-394.20" r="10.00px"/>
<text data-id="165" x="1055.37" y="-394.20">R165</text>
<circle data-id="166" cx="981.44" cy="-614.47" r="10.00px"/>
<text data-id="166" x="981.44" y="-614.47">R166</text>
<circle data-id="167" cx="1179.36" cy="-626.19" r="10.00px"/>
<text data-id="167" x="1179.36" y="-626.19">R167</text>
<circle data-id="168" cx="1130.73" cy="-1452.40" r="10.00px"/>
<text data-id="168" x="1130.73" y="-1452.40">R168</text>
<circle data-id="169" cx="1362.59" cy="-1097.17" r="10.00px"/>
<text data-id="169" x="1362.59" y="-1097.17">R169</text>
<circle data-id="170" cx="1170.83" cy="-1291.81" r="10.00px"/>
<text data-id="170" x="1170.83" y="-1291.81">R170</text>
<circle data-id="171" cx="1097.52" cy="-715.75" r="10.00px"/>
<text data-id="171" x="1097.52" y="-715.75">R171</text>
<circle data-id="172" cx="1011.87" cy="-961.56" r="10.00px"/>
<text data-id="172" x="1011.87" y="-961.56">R172</text>
<circle data-id="173" cx="1828.87" cy="-1120.01" r="10.00px"/>
<text data-id="173" x="1828.87" y="-1120.01">R173</text>
<circle data-id="174" cx="1726.37" cy="-484.47" r="10.00px"/>
<text data-id="174" x="1726.37" y="-484.47">R174</text>
<circle data-id="175" cx="1426.55" cy="-440.16" r="10.00px"/>
<text data-id="175" x="1426.55" y="-440.16">R175</text>
<circle data-id="176" cx="1776.87" cy="-1619.38" r="10.00px"/>
<text data-id="176" x="1776.87" y="-1619.38">R176</text>
<circle data-id="177" cx="1552.83" cy="-1351.66" r="10.00px"/>
<text data-id="177" x="1552.83" y="-1351.66">R177</text>
<circle data-id="178" cx="1511.22" cy="-1041.19" r="10.00px"/>
<text data-id="178" x="1511.22" y="-1041.19">R178</text>
<circle data-id="179" cx="1677.81" cy="-1342.89" r="10.00px"/>
<text data-id="179" x="1677.81" y="-1342.89">R179</text>
<circle data-id="180" cx="563.87" cy="-883.16" r="10.00px"/>
<text data-id="180" x="563.87" y="-883.16">R180</text>
<circle data-id="181" cx="1371.67" cy="-720.21" r="10.00px"/>
<text data-id="181" x="1371.67" y="-720.21">R181</text>
<circle data-id="182" cx="1028.33" cy="-170.81" r="10.00px"/>
<text data-id="182" x="1028.33" y="-170.81">R182</text>
<circle data-id="183" cx="696.78" cy="-936.25" r="10.00px"/>
<text data-id="183" x="696.78" y="-936.25">R183</text>
<circle data-id="184" cx="1789.87" cy="-1296.28" r="10.00px"/>
<text data-id="184" x="1789.87" y="-1296.28">R184</text>
<circle data-id="185" cx="308.76" cy="-159.15" r="10.00px"/>
<text data-id="185" x="308.76" y="-159.15">R185</text>
<circle data-id="186" cx="912.95" cy="-919.75" r="10.00px"/>
<text data-id="186" x="912.95" y="-919.75">R186</text>
<circle data-id="187" cx="557.33" cy="-1343.33" r="10.00px"/>
<text data-id="187" x="557.33" y="-1343.33">R187</text>
<circle data-id="188" cx="1608.72" cy="-1580.84" r="10.00px"/>
<text data-id="188" x="1608.72" y="-1580.84">R188</text>
<circle data-id="189" cx="1248.59" cy="-13.04" r="10.00px"/>
<text data-id="189" x="1248.59" y="-13.04">R189</text>
<circle data-id="190" cx="696.33" cy="-126.63" r="10.00px"/>
<text data-id="190" x="696.33" y="-126.63">R190</text>
<circle data-id="191" cx="1342.88" cy="-1002.32" r="10.00px"/>
<text data-id="191" x="1342.88" y="-1002.32">R191</text>
<circle data-id="192" cx="303.26" cy="-1715.16" r="10.00px"/>
<text data-id="192" x="303.26" y="-1715.16">R192</text>
<circle data-id="193" cx="1660.14" cy="-1669.01" r="10.00px"/>
<text data-id="193" x="1660.14" y="-1669.01">R193</text>
<circle data-id="194" cx="67.91" cy="-646.77" r="10.00px"/>
<text data-id="194" x="67.91" y="-646.77">R194</text>
<circle data-id="195" cx="1104.74" cy="-418.44" r="10.00px"/>
<text data-id="195" x="1104.74" y="-418.44">R195</text>
<circle data-id="196" cx="545.55" cy="-379.04" r="10.00px"/>
<text data-id="196" x="545.55" y="-379.04">R196</text>
<circle data-id="197" cx="1924.84" cy="-1545.62" r="10.00px"/>
<text data-id="197" x="1924.84" y="-1545.62">R197</text>
<circle data-id="198" cx="266.52" cy="-1926.54" r="10.00px"/>
<text data-id="198" x="266.52" y="-1926.54">R198</text>
<circle data-id="199" cx="996.32" cy="-1267.27" r="10.00px"/>
<text data-id="199" x="996.32" y="-1267.27">R199</text>
<circle data-id="200" cx="1730.85" cy="-303.57" r="10.00px"/>
<text data-id="200" x="1730.85" y="-303.57">R200</text>
<circle data-id="201" cx="1785.97" cy="-796.41" r="10.00px"/>
<text data-id="201" x="1785.97" y="-796.41">R201</text>
<circle data-id="202" cx="981.59" cy="-1370.33" r="10.00px"/>
<text data-id="202" x="981.59" y="-1370.33">R202</text>
<circle data-id="203" cx="1587.99" cy="-1358.93" r="10.00px"/>
<text data-id="203" x="1587.99" y="-1358.93">R203</text>
<circle data-id="204" cx="1596.08" cy="-963.13" r="10.00px"/>
<text data-id="204" x="1596.08" y="-963.13">R204</text>
<circle data-id="205" cx="981.68" cy="-1057.25" r="10.00px"/>
<text data-id="205" x="981.68" y="-1057.25">R205</text>
<circle data-id="206" cx="511.85" cy="-36.82" r="10.00px"/>
<text data-id="206" x="511.85" y="-36.82">R206</text>
<circle data-id="207" cx="1086.50" cy="-472.31" r="10.00px"/>
<text data-id="207" x="1086.50" y="-472.31">R207</text>
<circle data-id="208" cx="9.80" cy="-1626.02" r="10.00px"/>
<text data-id="208" x="9.80" y="-1626.02">R208</text>
<circle data-id="209" cx="655.71" cy="-43.83" r="10.00px"/>
<text data-id="209" x="655.71" y="-43.83">R209</text>
<circle data-id="210" cx="1500.20" cy="-1436.01" r="10.00px"/>
<text data-id="210" x="1500.20" y="-1436.01">R210</text>
<circle data-id="211" cx="392.62" cy="-745.04" r="10.00px"/>
<text data-id="211" x="392.62" y="-745.04">R211</text>
<circle data-id="212" cx="1137.44" cy="-1731.19" r="10.00px"/>
<text data-id="212" x="1137.44" y="-1731.19">R212</text>
<circle data-id="213" cx="567.73" cy="-1697.32" r="10.00px"/>
<text data-id="213" x="567.73" y="-1697.32">R213</text>
<circle data-id="214" cx="403.28" cy="-411.53" r="10.00px"/>
<text data-id="214" x="403.28" y="-411.53">R214</text>
<circle data-id="215" cx="363.77" cy="-1852.43" r="10.00px"/>
<text data-id="215" x="363.77" y="-1852.43">R215</text>
<circle data-id="216" cx="1369.69" cy="-813.62" r="10.00px"/>
<text data-id="216" x="1369.69" y="-813.62">R216</text>
<circle data-id="217" cx="765.45" cy="-1610.29" r="10.00px"/>
<text data-id="217" x="765.45" y="-1610.29">R217</text>
<circle data-id="218" cx="909.03" cy="-612.17" r="10.00px"/>
<text data-id="218" x="909.03" y="-612.17">R218</text>
<circle data-id="219" cx="384.97" cy="-1744.30" r="10.00px"/>
<text data-id="219" x="384.97" y="-1744.30">R219</text>
<circle data-id="220" cx="1570.01" cy="-420.64" r="10.00px"/>
<text data-id="220" x="1570.01" y="-420.64">R220</text>
<circle data-id="221" cx="1590.22" cy="-800.94" r="10.00px"/>
<text data-id="221" x="1590.22" y="-800.94">R221</text>
<circle data-id="222" cx="1035.91" cy="-757.26" r="10.00px"/>
<text data-id="222" x="1035.91" y="-757.26">R222</text>
<circle data-id="223" cx="723.79" cy="-94.97" r="10.00px"/>
<text data-id="223" x="723.79" y="-94.97">R223</text>
<circle data-id="224" cx="567.70" cy="-215.92" r="10.00px"/>
<text data-id="224" x="567.70" y="-215.92">R224</text>
<circle data-id="225" cx="1757.35" cy="-1043.35" r="10.00px"/>
<text data-id="225" x="1757.35" y="-1043.35">R225</text>
<circle data-id="226" cx="1563.61" cy="-1004.35" r="10.00px"/>
<text data-id="226" x="1563.61" y="-1004.35">R226</text>
<circle data-id="227" cx="1492.92" cy="-1674.90" r="10.00px"/>
<text data-id="227" x="1492.92" y="-1674.90">R227</text>
<circle data-id="228" cx="1161.41" cy="-922.48" r="10.00px"/>
<text data-id="228" x="1161.41" y="-922.48">R228</text>
<circle data-id="229" cx="445.00" cy="-718.52" r="10.00px"/>
<text data-id="229" x="445.00" y="-718.52">R229</text>
<circle data-id="230" cx="20.30" cy="-996.05" r="10.00px"/>
<text data-id="230" x="20.30" y="-996.05">R230</text>
<circle data-id="231" cx="1646.18" cy="-713.89" r="10.00px"/>
<text data-id="231" x="1646.18" y="-713.89">R231</text>
<circle data-id="232" cx="63.70" cy="-1413.77" r="10.00px"/>
<text data-id="232" x="63.70" y="-1413.77">R232</text>
<circle data-id="233" cx="370.42" cy="-181.84" r="10.00px"/>
<text data-id="233" x="370.42" y="-181.84">R233</text>
<circle data-id="234" cx="133.81" cy="-506.17" r="10.00px"/>
<text data-id="234" x="133.81" y="-506.17">R234</text>
<circle data-id="235" cx="1624.25" cy="-1301.99" r="10.00px"/>
<text data-id="235" x="1624.25" y="-1301.99">R235</text>
<circle data-id="236" cx="912.11" cy="-1761.46" r="10.00px"/>
<text data-id="236" x="912.11" y="-1761.46">R236</text>
<circle data-id="237" cx="406.19" cy="-576.51" r="10.00px"/>
<text data-id="237" x="406.19" y="-576.51">R237</text>
<circle data-id="238" cx="1662.78" cy="-788.01" r="10.00px"/>
<text data-id="238" x="1662.78" y="-788.01">R238</text>
<circle data-id="239" cx="69.19" cy="-235.48" r="10.00px"/>
<text data-id="239" x="69.19" y="-235.48">R239</text>
<circle data-id="240" cx="1186.33" cy="-1631.97" r="10.00px"/>
<text data-id="240" x="1186.33" y="-1631.97">R240</text>
<circle data-id="241" cx="108.95" cy="-824.99" r="10.00px"/>
<text data-id="241" x="108.95" y="-824.99">R241</text>
<circle data-id="242" cx="962.38" cy="-786.00" r="10.00px"/>
<text data-id="242" x="962.38" y="-786.00">R242</text>
<circle data-id="243" cx="136.07" cy="-260.37" r="10.00px"/>
<text data-id="243" x="136.07" y="-260.37">R243</text>
<circle data-id="244" cx="1908.16" cy="-148.80" r="10.00px"/>
<text data-id="244" x="1908.16" y="-148.80">R244</text>
<circle data-id="245" cx="367.46" cy="-514.29" r="10.00px"/>
<text data-id="245" x="367.46" y="-514.29">R245</text>
<circle data-id="246" cx="905.09" cy="-657.79" r="10.00px"/>
<text data-id="246" x="905.09" y="-657.79">R246</text>
<circle data-id="247" cx="1857.45" cy="-1076.32" r="10.00px"/>
<text data-id="247" x="1857.45" y="-1076.32">R247</text>
<circle data-id="248" cx="566.35" cy="-1746.38" r="10.00px"/>
<text data-id="248" x="566.35" y="-1746.38">R248</text>
<circle data-id="249" cx="1160.26" cy="-1324.61" r="10.00px"/>
<text data-id="249" x="1160.26" y="-1324.61">R249</text>
<circle data-id="250" cx="1499.17" cy="-1781.57" r="10.00px"/>
<text data-id="250" x="1499.17" y="-1781.57">R250</text>
<circle data-id="251" cx="1780.47" cy="-1882.48" r="10.00px"/>
<text data-id="251" x="1780.47" y="-1882.48">R251</text>
<circle data-id="252" cx="1408.90" cy="-265.86" r="10.00px"/>
<text data-id="252" x="1408.90" y="-265.86">R252</text>
<circle data-id="253" cx="832.34" cy="-719.79" r="10.00px"/>
<text data-id="253" x="832.34" y="-719.79">R253</text>
<circle data-id="254" cx="871.85" cy="-1361.70" r="10.00px"/>
<text data-id="254" x="871.85" y="-1361.70">R254</text>
<circle data-id="255" cx="1248.30" cy="-1209.41" r="10.00px"/>
<text data-id="255" x="1248.30" y="-1209.41">R255</text>
<circle data-id="256" cx="808.40" cy="-994.69" r="10.00px"/>
<text data-id="256" x="808.40" y="-994.69">R256</text>
<circle data-id="257" cx="1148.65" cy="-1470.86" r="10.00px"/>
<text data-id="257" x="1148.65" y="-1470.86">R257</text>
<circle data-id="258" cx="389.83" cy="-1793.23" r="10.00px"/>
<text data-id="258" x="389.83" y="-1793.23">R258</text>
<circle data-id="259" cx="160.03" cy="-755.29" r="10.00px"/>
<text data-id="259" x="160.03" y="-755.29">R259</text>
<circle data-id="260" cx="773.20" cy="-705.49" r="10.00px"/>
<text data-id="260" x="773.20" y="-705.49">R260</text>
<circle data-id="261" cx="628.10" cy="-1534.70" r="10.00px"/>
<text data-id="261" x="628.10" y="-1534.70">R261</text>
<circle data-id="262" cx="1590.08" cy="-1857.08" r="10.00px"/>
<text data-id="262" x="1590.08" y="-1857.08">R262</text>
<circle data-id="263" cx="374.24" cy="-834.26" r="10.00px"/>
<text data-id="263" x="374.24" y="-834.26">R263</text>
<circle data-id="264" cx="1783.44" cy="-456.71" r="10.00px"/>
<text data-id="264" x="1783.44" y="-456.71">R264</text>
<circle data-id="265" cx="1192.48" cy="-156.35" r="10.00px"/>
<text data-id="265" x="1192.48" y="-156.35">R265</text>
<circle data-id="266" cx="1707.63" cy="-815.17" r="10.00px"/>
<text data-id="266" x="1707.63" y="-815.17">R266</text>
<circle data-id="267" cx="18.44" cy="-1681.86" r="10.00px"/>
<text data-id="267" x="18.44" y="-1681.86">R267</text>
<circle data-id="268" cx="637.82" cy="-1111.18" r="10.00px"/>
<text data-id="268" x="637.82" y="-1111.18">R268</text>
<circle data-id="269" cx="1242.14" cy="-1235.33" r="10.00px"/>
<text data-id="269" x="1242.14" y="-1235.33">R269</text>
<circle data-id="270" cx="1774.55" cy="-722.52" r="10.00px"/>
<text data-id="270" x="1774.55" y="-722.52">R270</text>
<circle data-id="271" cx="10.74" cy="-556.88" r="10.00px"/>
<text data-id="271" x="10.74" y="-556.88">R271</text>
<circle data-id="272" cx="1193.19" cy="-868.39" r="10.00px"/>
<text data-id="272" x="1193.19" y="-868.39">R272</text>
<circle data-id="273" cx="1355.56" cy="-1529.46" r="10.00px"/>
<text data-id="273" x="1355.56" y="-1529.46">R273</text>
<circle data-id="274" cx="569.67" cy="-1647.37" r="10.00px"/>
<text data-id="274" x="569.67" y="-1647.37">R274</text>
<circle data-id="275" cx="1536.07" cy="-1471.89" r="10.00px"/>
<text data-id="275" x="1536.07" y="-1471.89">R275</text>
<circle data-id="276" cx="1792.65" cy="-879.09" r="10.00px"/>
<text data-id="276" x="1792.65" y="-879.09">R276</text>
<circle data-id="277" cx="684.73" cy="-594.77" r="10.00px"/>
<text data-id="277" x="684.73" y="-594.77">R277</text>
<circle data-id="278" cx="740.72" cy="-1313.49" r="10.00px"/>
<text data-id="278" x="740.72" y="-1313.49">R278</text>
<circle data-id="279" cx="600.21" cy="-182.39" r="10.00px"/>
<text data-id="279" x="600.21" y="-182.39">R279</text>
<circle data-id="280" cx="1062.33" cy="-1881.89" r="10.00px"/>
<text data-id="280" x="1062.33" y="-1881.89">R280</text>
<circle data-id="281" cx="1469.83" cy="-1911.72" r="10.00px"/>
<text data-id="281" x="1469.83" y="-1911.72">R281</text>
<circle data-id="282" cx="855.79" cy="-1821.50" r="10.00px"/>
<text data-id="282" x="855.79" y="-1821.50">R282</text>
<circle data-id="283" cx="1251.86" cy="-1862.43" r="10.00px"/>
<text data-id="283" x="1251.86" y="-1862.43">R283</text>
<circle data-id="284" cx="963.68" cy="-1915.32" r="10.00px"/>
<text data-id="284" x="963.68" y="-1915.32">R284</text>
<circle data-id="285" cx="947.24" cy="-1261.39" r="10.00px"/>
<text data-id="285" x="947.24" y="-1261.39">R285</text>
<circle data-id="286" cx="23.31" cy="-176.66" r="10.00px"/>
<text data-id="286" x="23.31" y="-176.66">R286</text>
<circle data-id="287" cx="85.07" cy="-1583.73" r="10.00px"/>
<text data-id="287" x="85.07" y="-1583.73">R287</text>
<circle data-id="288" cx="32.71" cy="-1590.01" r="10.00px"/>
<text data-id="288" x="32.71" y="-1590.01">R288</text>
<circle data-id="289" cx="1051.30" cy="-779.98" r="10.00px"/>
<text data-id="289" x="1051.30" y="-779.98">R289</text>
<circle data-id="290" cx="1189.57" cy="-1924.97" r="10.00px"/>
<text data-id="290" x="1189.57" y="-1924.97">R290</text>
<circle data-id="291" cx="1549.39" cy="-966.18" r="10.00px"/>
<text data-id="291" x="1549.39" y="-966.18">R291</text>
<circle data-id="292" cx="1179.38" cy="-1234.37" r="10.00px"/>
<text data-id="292" x="1179.38" y="-1234.37">R292</text>
<circle data-id="293" cx="637.48" cy="-428.28" r="10.00px"/>
<text data-id="293" x="637.48" y="-428.28">R293</text>
<circle data-id="294" cx="34.88" cy="-546.04" r="10.00px"/>
<text data-id="294" x="34.88" y="-546.04">R294</text>
<circle data-id="295" cx="690.49" cy="-1756.99" r="10.00px"/>
<text data-id="295" x="690.49" y="-1756.99">R295</text>
<circle data-id="296" cx="646.87" cy="-8.39" r="10.00px"/>
<text data-id="296" x="646.87" y="-8.39">R296</text>
<circle data-id="297" cx="446.36" cy="-1549.89" r="10.00px"/>
<text data-id="297" x="446.36" y="-1549.89">R297</text>
<circle data-id="298" cx="457.31" cy="-1638.69" r="10.00px"/>
<text data-id="298" x="457.31" y="-1638.69">R298</text>
<circle data-id="299" cx="1234.19" cy="-357.53" r="10.00px"/>
<text data-id="299" x="1234.19" y="-357.53">R299</text>
<circle data-id="300" cx="1579.09" cy="-1530.91" r="10.00px"/>
<text data-id="300" x="1579.09" y="-1530.91">R300</text>
<circle data-id="301" cx="1404.23" cy="-1164.58" r="10.00px"/>
<text data-id="301" x="1404.23" y="-1164.58">R301</text>
<circle data-id="302" cx="188.18" cy="-503.50" r="10.00px"/>
<text data-id="302" x="188.18" y="-503.50">R302</text>
<circle data-id="303" cx="1405.85" cy="-1498.36" r="10.00px"/>
<text data-id="303" x="1405.85" y="-1498.36">R303</text>
<circle data-id="304" cx="1336.15" cy="-1184.25" r="10.00px"/>
<text data-id="304" x="1336.15" y="-1184.25">R304</text>
<circle data-id="305" cx="87.96" cy="-842.92" r="10.00px"/>
<text data-id="305" x="87.96" y="-842.92">R305</text>
<circle data-id="306" cx="950.97" cy="-442.79" r="10.00px"/>
<text data-id="306" x="950.97" y="-442.79">R306</text>
<circle data-id="307" cx="1203.51" cy="-1582.00" r="10.00px"/>
<text data-id="307" x="1203.51" y="-1582.00">R307</text>
<circle data-id="308" cx="1721.99" cy="-902.32" r="10.00px"/>
<text data-id="308" x="1721.99" y="-902.32">R308</text>
<circle data-id="309" cx="1910.90" cy="-727.85" r="10.00px"/>
<text data-id="309" x="1910.90" y="-727.85">R309</text>
<circle data-id="310" cx="357.91" cy="-680.87" r="10.00px"/>
<text data-id="310" x="357.91" y="-680.87">R310</text>
<circle data-id="311" cx="837.60" cy="-270.70" r="10.00px"/>
<text data-id="311" x="837.60" y="-270.70">R311</text>
<circle data-id="312" cx="129.10" cy="-609.07" r="10.00px"/>
<text data-id="312" x="129.10" y="-609.07">R312</text>
<circle data-id="313" cx="930.04" cy="-1305.33" r="10.00px"/>
<text data-id="313" x="930.04" y="-1305.33">R313</text>
<circle data-id="314" cx="67.61" cy="-910.03" r="10.00px"/>
<text data-id="314" x="67.61" y="-910.03">R314</text>
<circle data-id="315" cx="37.28" cy="-1784.68" r="10.00px"/>
<text data-id="315" x="37.28" y="-1784.68">R315</text>
<circle data-id="316" cx="983.48" cy="-753.00" r="10.00px"/>
<text data-id="316" x="983.48" y="-753.00">R316</text>
<circle data-id="317" cx="1448.76" cy="-1348.66" r="10.00px"/>
<text data-id="317" x="1448.76" y="-1348.66">R317</text>
<circle data-id="318" cx="1286.11" cy="-814.47" r="10.00px"/>
<text data-id="318" x="1286.11" y="-814.47">R318</text>
<circle data-id="319" cx="84.19" cy="-256.30" r="10.00px"/>
<text data-id="319" x="84.19" y="-256.30">R319</text>
<circle data-id="320" cx="890.02" cy="-851.31" r="10.00px"/>
<text data-id="320" x="890.02" y="-851.31">R320</text>
<circle data-id="321" cx="1012.99" cy="-1495.64" r="10.00px"/>
<text data-id="321" x="1012.99" y="-1495.64">R321</text>
<circle data-id="322" cx="1509.00" cy="-208.36" r="10.00px"/>
<text data-id="322" x="1509.00" y="-208.36">R322</text>
<circle data-id="323" cx="657.27" cy="-1710.68" r="10.00px"/>
<text data-id="323" x="657.27" y="-1710.68">R323</text>
<circle data-id="324" cx="1908.53" cy="-1415.88" r="10.00px"/>
<text data-id="324" x="1908.53" y="-1415.88">R324</text>
<circle data-id="325" cx="1911.69" cy="-610.00" r="10.00px"/>
<text data-id="325" x="1911.69" y="-610.00">R325</text>
<circle data-id="326" cx="1902.16" cy="-192.45" r="10.00px"/>
<text data-id="326" x="1902.16" y="-192.45">R326</text>
<circle data-id="327" cx="1705.38" cy="-535.81" r="10.00px"/>
<text data-id="327" x="1705.38" y="-535.81">R327</text>
<circle data-id="328" cx="1225.93" cy="-453.94" r="10.00px"/>
<text data-id="328" x="1225.93" y="-453.94">R328</text>
<circle data-id="329" cx="842.28" cy="-236.01" r="10.00px"/>
<text data-id="329" x="842.28" y="-236.01">R329</text>
<circle data-id="330" cx="27.46" cy="-1451.24" r="10.00px"/>
<text data-id="330" x="27.46" y="-1451.24">R330</text>
<circle data-id="331" cx="1200.24" cy="-224.05" r="10.00px"/>
<text data-id="331" x="1200.24" y="-224.05">R331</text>
<circle data-id="332" cx="1759.17" cy="-1301.26" r="10.00px"/>
<text data-id="332" x="1759.17" y="-1301.26">R332</text>
<circle data-id="333" cx="751.87" cy="-14.45" r="10.00px"/>
<text data-id="333" x="751.87" y="-14.45">R333</text>
<circle data-id="334" cx="1878.74" cy="-1613.81" r="10.00px"/>
<text data-id="334" x="1878.74" y="-1613.81">R334</text>
<circle data-id="335" cx="597.27" cy="-1678.51" r="10.00px"/>
<text data-id="335" x="597.27" y="-1678.51">R335</text>
<circle data-id="336" cx="46.80" cy="-1700.98" r="10.00px"/>
<text data-id="336" x="46.80" y="-1700.98">R336</text>
<circle data-id="337" cx="43.51" cy="-1510.13" r="10.00px"/>
<text data-id="337" x="43.51" y="-1510.13">R337</text>
<circle data-id="338" cx="68.97" cy="-185.54" r="10.00px"/>
<text data-id="338" x="68.97" y="-185.54">R338</text>
<circle data-id="339" cx="1004.97" cy="-1726.38" r="10.00px"/>
<text data-id="339" x="1004.97" y="-1726.38">R339</text>
<circle data-id="340" cx="1073.85" cy="-1362.38" r="10.00px"/>
<text data-id="340" x="1073.85" y="-1362.38">R340</text>
<circle data-id="341" cx="1361.83" cy="-451.85" r="10.00px"/>
<text data-id="341" x="1361.83" y="-451.85">R341</text>
<circle data-id="342" cx="495.20" cy="-1922.04" r="10.00px"/>
<text data-id="342" x="495.20" y="-1922.04">R342</text>
<circle data-id="343" cx="429.30" cy="-915.90" r="10.00px"/>
<text data-id="343" x="429.30" y="-915.90">R343</text>
<circle data-id="344" cx="1454.99" cy="-225.53" r="10.00px"/>
<text data-id="344" x="1454.99" y="-225.53">R344</text>
<circle data-id="345" cx="847.95" cy="-746.17" r="10.00px"/>
<text data-id="345" x="847.95" y="-746.17">R345</text>
<circle data-id="346" cx="1508.75" cy="-243.00" r="10.00px"/>
<text data-id="346" x="1508.75" y="-243.00">R346</text>
<circle data-id="347" cx="463.29" cy="-374.79" r="10.00px"/>
<text data-id="347" x="463.29" y="-374.79">R347</text>
<circle data-id="348" cx="839.88" cy="-991.90" r="10.00px"/>
<text data-id="348" x="839.88" y="-991.90">R348</text>
<circle data-id="349" cx="300.25" cy="-1246.30" r="10.00px"/>
<text data-id="349" x="300.25" y="-1246.30">R349</text>
<circle data-id="350" cx="1610.46" cy="-213.40" r="10.00px"/>
<text data-id="350" x="1610.46" y="-213.40">R350</text>
<circle data-id="351" cx="1806.13" cy="-1183.82" r="10.00px"/>
<text data-id="351" x="1806.13" y="-1183.82">R351</text>
<circle data-id="352" cx="78.20" cy="-1221.94" r="10.00px"/>
<text data-id="352" x="78.20" y="-1221.94">R352</text>
<circle data-id="353" cx="1661.19" cy="-1716.62" r="10.00px"/>
<text data-id="353" x="1661.19" y="-1716.62">R353</text>
<circle data-id="354" cx="970.90" cy="-881.99" r="10.00px"/>
<text data-id="354" x="970.90" y="-881.99">R354</text>
<circle data-id="355" cx="1446.45" cy="-380.82" r="10.00px"/>
<text data-id="355" x="1446.45" y="-380.82">R355</text>
<circle data-id="356" cx="1851.86" cy="-1015.57" r="10.00px"/>
<text data-id="356" x="1851.86" y="-1015.57">R356</text>
<circle data-id="357" cx="1125.02" cy="-1490.87" r="10.00px"/>
<text data-id="357" x="1125.02" y="-1490.87">R357</text>
<circle data-id="358" cx="1784.57" cy="-401.12" r="10.00px"/>
<text data-id="358" x="1784.57" y="-401.12">R358</text>
<circle data-id="359" cx="326.93" cy="-188.01" r="10.00px"/>
<text data-id="359" x="326.93" y="-188.01">R359</text>
<circle data-id="360" cx="1682.50" cy="-1566.67" r="10.00px"/>
<text data-id="360" x="1682.50" y="-1566.67">R360</text>
<circle data-id="361" cx="1350.48" cy="-1468.50" r="10.00px"/>
<text data-id="361" x="1350.48" y="-1468.50">R361</text>
<circle data-id="362" cx="1677.49" cy="-758.08" r="10.00px"/>
<text data-id="362" x="1677.49" y="-758.08">R362</text>
<circle data-id="363" cx="308.04" cy="-38.82" r="10.00px"/>
<text data-id="363" x="308.04" y="-38.82">R363</text>
<circle data-id="364" cx="1345.81" cy="-56.29" r="10.00px"/>
<text data-id="364" x="1345.81" y="-56.29">R364</text>
<circle data-id="365" cx="858.59" cy="-508.29" r="10.00px"/>
<text data-id="365" x="858.59" y="-508.29">R365</text>
<circle data-id="366" cx="212.82" cy="-470.26" r="10.00px"/>
<text data-id="366" x="212.82" y="-470.26">R366</text>
<circle data-id="367" cx="1267.67" cy="-1890.94" r="10.00px"/>
<text data-id="367" x="1267.67" y="-1890.94">R367</text>
<circle data-id="368" cx="1894.82" cy="-249.41" r="10.00px"/>
<text data-id="368" x="1894.82" y="-249.41">R368</text>
<circle data-id="369" cx="1212.11" cy="-1682.73" r="10.00px"/>
<text data-id="369" x="1212.11" y="-1682.73">R369</text>
<circle data-id="370" cx="696.85" cy="-1176.03" r="10.00px"/>
<text data-id="370" x="696.85" y="-1176.03">R370</text>
<circle data-id="371" cx="1268.48" cy="-1513.93" r="10.00px"/>
<text data-id="371" x="1268.48" y="-1513.93">R371</text>
<circle data-id="372" cx="1499.64" cy="-554.41" r="10.00px"/>
<text data-id="372" x="1499.64" y="-554.41">R372</text>
<circle data-id="373" cx="1658.25" cy="-279.57" r="10.00px"/>
<text data-id="373" x="1658.25" y="-279.57">R373</text>
<circle data-id="374" cx="1534.07" cy="-280.13" r="10.00px"/>
<text data-id="374" x="1534.07" y="-280.13">R374</text>
</svg>
