<svg id="topo" viewBox="-46.88 -985.27 1032.40 1026.36" xmlns="http://www.w3.org/2000/svg">
<style>#topo path {fill: none; stroke: grey; stroke-width: 5.0000px;} #topo circle {fill: lightblue; stroke: none; stroke-width: 0.3px; vector-effect: non-scaling-stroke; r: 10.0000px;} #topo text {fill: black; stroke: none; font-size: 15.0000px; font-family: sans-serif; text-anchor:middle; transform: translateY(0.3em);} #topo path.country {fill: lightgrey; stroke: black; stroke-width: 1px; vector-effect: non-scaling-stroke; visibility: visible;} #topo path.selection {fill: none; stroke: red; stroke-width: 1px; vector-effect: non-scaling-stroke; visibility: visible;} #topo path.utilization {visibility: hidden;}</style>
<path data-id="0-52" d="M29.71,-60.38,9.29,-115.53"/>
<path data-id="0-81" d="M29.71,-60.38,67.20,-84.52"/>
<path data-id="1-34" d="M447.54,-52.41,436.36,-77.17"/>
<path data-id="1-68" d="M447.54,-52.41,493.10,-44.16"/>
<path data-id="2-7" d="M602.61,-37.64,714.14,-38.79"/>
<path data-id="2-68" d="M602.61,-37.64,493.10,-44.16"/>
<path data-id="2-88" d="M602.61,-37.64,532.48,-149.20"/>
<path data-id="3-38" d="M732.79,-490.95,838.60,-526.62"/>
<path data-id="3-59" d="M732.79,-490.95,659.75,-425.77"/>
<path data-id="3-76" d="M732.79,-490.95,747.67,-575.77"/>
<path data-id="3-79" d="M732.79,-490.95,840.29,-487.65"/>
<path data-id="4-70" d="M429.10,-826.43,344.36,-849.21"/>
<path data-id="4-85" d="M429.10,-826.43,447.40,-853.52"/>
<path data-id="4-86" d="M429.10,-826.43,403.19,-771.74"/>
<path data-id="5-17" d="M127.91,-239.53,19.82,-178.53"/>
<path data-id="5-43" d="M127.91,-239.53,8.31,-223.47"/>
<path data-id="5-48" d="M127.91,-239.53,144.74,-415.18"/>
<path data-id="5-72" d="M127.91,-239.53,158.76,-202.88"/>
<path data-id="6-9" d="M192.35,-828.13,253.82,-789.68"/>
<path data-id="6-24" d="M192.35,-828.13,267.20,-904.61"/>
<path data-id="6-31" d="M192.35,-828.13,217.95,-741.95"/>
<path data-id="6-80" d="M192.35,-828.13,136.97,-927.32"/>
<path data-id="7-26" d="M714.14,-38.79,799.52,-46.33"/>
<path data-id="8-33" d="M505.01,-937.94,417.96,-874.38"/>
<path data-id="8-56" d="M505.01,-937.94,527.23,-808.22"/>
<path data-id="8-60" d="M505.01,-937.94,612.95,-917.72"/>
<path data-id="8-85" d="M505.01,-937.94,447.40,-853.52"/>
<path data-id="8-89" d="M505.01,-937.94,393.87,-923.78"/>
<path data-id="9-24" d="M253.82,-789.68,267.20,-904.61"/>
<path data-id="9-31" d="M253.82,-789.68,217.95,-741.95"/>
<path data-id="9-70" d="M253.82,-789.68,344.36,-849.21"/>
<path data-id="10-18" d="M155.20,-703.79,238.28,-654.86"/>
<path data-id="10-19" d="M155.20,-703.79,102.72,-713.13"/>
<path data-id="10-31" d="M155.20,-703.79,217.95,-741.95"/>
<path data-id="10-37" d="M155.20,-703.79,153.07,-639.37"/>
<path data-id="10-42" d="M155.20,-703.79,118.43,-655.45"/>
<path data-id="11-34" d="M310.24,-147.82,436.36,-77.17"/>
<path data-id="11-41" d="M310.24,-147.82,125.23,-73.13"/>
<path data-id="11-77" d="M310.24,-147.82,236.93,-249.37"/>
<path data-id="11-84" d="M310.24,-147.82,367.04,-196.14"/>
<path data-id="12-16" d="M274.26,-693.23,338.23,-702.01"/>
<path data-id="12-18" d="M274.26,-693.23,238.28,-654.86"/>
<path data-id="12-31" d="M274.26,-693.23,217.95,-741.95"/>
<path data-id="13-19" d="M0.05,-872.77,102.72,-713.13"/>
<path data-id="13-80" d="M0.05,-872.77,136.97,-927.32"/>
<path data-id="14-26" d="M812.85,-128.56,799.52,-46.33"/>
<path data-id="14-27" d="M812.85,-128.56,852.79,-117.26"/>
<path data-id="14-47" d="M812.85,-128.56,800.01,-163.81"/>
<path data-id="15-20" d="M856.24,-442.56,839.80,-373.26"/>
<path data-id="15-71" d="M856.24,-442.56,937.62,-520.76"/>
<path data-id="15-79" d="M856.24,-442.56,840.29,-487.65"/>
<path data-id="15-87" d="M856.24,-442.56,934.12,-414.85"/>
<path data-id="16-23" d="M338.23,-702.01,358.33,-656.17"/>
<path data-id="16-86" d="M338.23,-702.01,403.19,-771.74"/>
<path data-id="17-43" d="M19.82,-178.53,8.31,-223.47"/>
<path data-id="17-52" d="M19.82,-178.53,9.29,-115.53"/>
<path data-id="18-31" d="M238.28,-654.86,217.95,-741.95"/>
<path data-id="18-37" d="M238.28,-654.86,153.07,-639.37"/>
<path data-id="18-78" d="M238.28,-654.86,335.33,-559.84"/>
<path data-id="19-42" d="M102.72,-713.13,118.43,-655.45"/>
<path data-id="20-22" d="M839.80,-373.26,778.86,-288.24"/>
<path data-id="20-87" d="M839.80,-373.26,934.12,-414.85"/>
<path data-id="21-45" d="M359.62,-389.83,333.12,-403.59"/>
<path data-id="21-50" d="M359.62,-389.83,288.02,-300.56"/>
<path data-id="21-53" d="M359.62,-389.83,486.01,-365.95"/>
<path data-id="22-49" d="M778.86,-288.24,588.49,-280.94"/>
<path data-id="22-59" d="M778.86,-288.24,659.75,-425.77"/>
<path data-id="22-65" d="M778.86,-288.24,820.69,-228.52"/>
<path data-id="23-28" d="M358.33,-656.17,392.58,-643.03"/>
<path data-id="23-78" d="M358.33,-656.17,335.33,-559.84"/>
<path data-id="24-70" d="M267.20,-904.61,344.36,-849.21"/>
<path data-id="24-80" d="M267.20,-904.61,136.97,-927.32"/>
<path data-id="24-89" d="M267.20,-904.61,393.87,-923.78"/>
<path data-id="25-45" d="M205.43,-468.03,333.12,-403.59"/>
<path data-id="25-46" d="M205.43,-468.03,320.04,-508.04"/>
<path data-id="25-48" d="M205.43,-468.03,144.74,-415.18"/>
<path data-id="25-57" d="M205.43,-468.03,123.20,-574.17"/>
<path data-id="26-75" d="M799.52,-46.33,845.58,-73.56"/>
<path data-id="26-82" d="M799.52,-46.33,859.14,-12.60"/>
<path data-id="27-75" d="M852.79,-117.26,845.58,-73.56"/>
<path data-id="28-69" d="M392.58,-643.03,434.13,-643.41"/>
<path data-id="28-78" d="M392.58,-643.03,335.33,-559.84"/>
<path data-id="29-55" d="M461.89,-634.74,437.69,-557.25"/>
<path data-id="29-56" d="M461.89,-634.74,527.23,-808.22"/>
<path data-id="29-69" d="M461.89,-634.74,434.13,-643.41"/>
<path data-id="29-73" d="M461.89,-634.74,729.10,-627.14"/>
<path data-id="30-54" d="M826.36,-854.47,781.00,-775.13"/>
<path data-id="30-62" d="M826.36,-854.47,858.43,-855.66"/>
<path data-id="32-38" d="M874.07,-616.99,838.60,-526.62"/>
<path data-id="32-39" d="M874.07,-616.99,880.87,-675.90"/>
<path data-id="32-71" d="M874.07,-616.99,937.62,-520.76"/>
<path data-id="32-76" d="M874.07,-616.99,747.67,-575.77"/>
<path data-id="33-70" d="M417.96,-874.38,344.36,-849.21"/>
<path data-id="33-85" d="M417.96,-874.38,447.40,-853.52"/>
<path data-id="33-89" d="M417.96,-874.38,393.87,-923.78"/>
<path data-id="34-40" d="M436.36,-77.17,452.75,-132.71"/>
<path data-id="35-54" d="M806.15,-757.69,781.00,-775.13"/>
<path data-id="35-66" d="M806.15,-757.69,846.52,-724.31"/>
<path data-id="35-73" d="M806.15,-757.69,729.10,-627.14"/>
<path data-id="36-54" d="M665.13,-834.01,781.00,-775.13"/>
<path data-id="36-56" d="M665.13,-834.01,527.23,-808.22"/>
<path data-id="36-60" d="M665.13,-834.01,612.95,-917.72"/>
<path data-id="36-74" d="M665.13,-834.01,682.25,-753.09"/>
<path data-id="37-42" d="M153.07,-639.37,118.43,-655.45"/>
<path data-id="37-58" d="M153.07,-639.37,146.57,-599.97"/>
<path data-id="38-71" d="M838.60,-526.62,937.62,-520.76"/>
<path data-id="38-76" d="M838.60,-526.62,747.67,-575.77"/>
<path data-id="38-79" d="M838.60,-526.62,840.29,-487.65"/>
<path data-id="39-66" d="M880.87,-675.90,846.52,-724.31"/>
<path data-id="40-84" d="M452.75,-132.71,367.04,-196.14"/>
<path data-id="40-88" d="M452.75,-132.71,532.48,-149.20"/>
<path data-id="41-72" d="M125.23,-73.13,158.76,-202.88"/>
<path data-id="41-81" d="M125.23,-73.13,67.20,-84.52"/>
<path data-id="44-49" d="M539.81,-245.96,588.49,-280.94"/>
<path data-id="44-53" d="M539.81,-245.96,486.01,-365.95"/>
<path data-id="44-88" d="M539.81,-245.96,532.48,-149.20"/>
<path data-id="45-46" d="M333.12,-403.59,320.04,-508.04"/>
<path data-id="45-50" d="M333.12,-403.59,288.02,-300.56"/>
<path data-id="46-78" d="M320.04,-508.04,335.33,-559.84"/>
<path data-id="47-65" d="M800.01,-163.81,820.69,-228.52"/>
<path data-id="48-50" d="M144.74,-415.18,288.02,-300.56"/>
<path data-id="48-67" d="M144.74,-415.18,91.16,-558.67"/>
<path data-id="48-77" d="M144.74,-415.18,236.93,-249.37"/>
<path data-id="49-51" d="M588.49,-280.94,580.09,-359.54"/>
<path data-id="50-77" d="M288.02,-300.56,236.93,-249.37"/>
<path data-id="50-84" d="M288.02,-300.56,367.04,-196.14"/>
<path data-id="51-61" d="M580.09,-359.54,594.28,-421.49"/>
<path data-id="51-64" d="M580.09,-359.54,557.48,-375.10"/>
<path data-id="52-81" d="M9.29,-115.53,67.20,-84.52"/>
<path data-id="53-55" d="M486.01,-365.95,437.69,-557.25"/>
<path data-id="53-64" d="M486.01,-365.95,557.48,-375.10"/>
<path data-id="53-84" d="M486.01,-365.95,367.04,-196.14"/>
<path data-id="54-74" d="M781.00,-775.13,682.25,-753.09"/>
<path data-id="55-61" d="M437.69,-557.25,594.28,-421.49"/>
<path data-id="55-78" d="M437.69,-557.25,335.33,-559.84"/>
<path data-id="56-60" d="M527.23,-808.22,612.95,-917.72"/>
<path data-id="56-85" d="M527.23,-808.22,447.40,-853.52"/>
<path data-id="57-58" d="M123.20,-574.17,146.57,-599.97"/>
<path data-id="57-67" d="M123.20,-574.17,91.16,-558.67"/>
<path data-id="59-61" d="M659.75,-425.77,594.28,-421.49"/>
<path data-id="61-64" d="M594.28,-421.49,557.48,-375.10"/>
<path data-id="62-83" d="M858.43,-855.66,902.26,-938.61"/>
<path data-id="63-82" d="M938.59,-5.56,859.14,-12.60"/>
<path data-id="66-73" d="M846.52,-724.31,729.10,-627.14"/>
<path data-id="68-88" d="M493.10,-44.16,532.48,-149.20"/>
<path data-id="69-86" d="M434.13,-643.41,403.19,-771.74"/>
<path data-id="70-86" d="M344.36,-849.21,403.19,-771.74"/>
<path data-id="70-89" d="M344.36,-849.21,393.87,-923.78"/>
<path data-id="71-79" d="M937.62,-520.76,840.29,-487.65"/>
<path data-id="71-87" d="M937.62,-520.76,934.12,-414.85"/>
<path data-id="72-77" d="M158.76,-202.88,236.93,-249.37"/>
<path data-id="73-74" d="M729.10,-627.14,682.25,-753.09"/>
<path data-id="73-76" d="M729.10,-627.14,747.67,-575.77"/>
<path data-id="75-82" d="M845.58,-73.56,859.14,-12.60"/>
<path data-id="77-84" d="M236.93,-249.37,367.04,-196.14"/>
<circle data-id="0" cx="29.71" cy="-60.38" r="10.00px"/>
<text data-id="0" x="29.71" y="-60.38">R0</text>
<circle data-id="1" cx="447.54" cy="-52.41" r="10.00px"/>
<text data-id="1" x="447.54" y="-52.41">R1</text>
<circle data-id="2" cx="602.61" cy="-37.64" r="10.00px"/>
<text data-id="2" x="602.61" y="-37.64">R2</text>
<circle data-id="3" cx="732.79" cy="-490.95" r="10.00px"/>
<text data-id="3" x="732.79" y="-490.95">R3</text>
<circle data-id="4" cx="429.10" cy="-826.43" r="10.00px"/>
<text data-id="4" x="429.10" y="-826.43">R4</text>
<circle data-id="5" cx="127.91" cy="-239.53" r="10.00px"/>
<text data-id="5" x="127.91" y="-239.53">R5</text>
<circle data-id="6" cx="192.35" cy="-828.13" r="10.00px"/>
<text data-id="6" x="192.35" y="-828.13">R6</text>
<circle data-id="7" cx="714.14" cy="-38.79" r="10.00px"/>
<text data-id="7" x="714.14" y="-38.79">R7</text>
<circle data-id="8" cx="505.01" cy="-937.94" r="10.00px"/>
<text data-id="8" x="505.01" y="-937.94">R8</text>
<circle data-id="9" cx="253.82" cy="-789.68" r="10.00px"/>
<text data-id="9" x="253.82" y="-789.68">R9</text>
<circle data-id="10" cx="155.20" cy="-703.79" r="10.00px"/>
<text data-id="10" x="155.20" y="-703.79">R10</text>
<circle data-id="11" cx="310.24" cy="-147.82" r="10.00px"/>
<text data-id="11" x="310.24" y="-147.82">R11</text>
<circle data-id="12" cx="274.26" cy="-693.23" r="10.00px"/>
<text data-id="12" x="274.26" y="-693.23">R12</text>
<circle data-id="13" cx="0.05" cy="-872.77" r="10.00px"/>
<text data-id="13" x="0.05" y="-872.77">R13</text>
<circle data-id="14" cx="812.85" cy="-128.56" r="10.00px"/>
<text data-id="14" x="812.85" y="-128.56">R14</text>
<circle data-id="15" cx="856.24" cy="-442.56" r="10.00px"/>
<text data-id="15" x="856.24" y="-442.56">R15</text>
<circle data-id="16" cx="338.23" cy="-702.01" r="10.00px"/>
<text data-id="16" x="338.23" y="-702.01">R16</text>
<circle data-id="17" cx="19.82" cy="-178.53" r="10.00px"/>
<text data-id="17" x="19.82" y="-178.53">R17</text>
<circle data-id="18" cx="238.28" cy="-654.86" r="10.00px"/>
<text data-id="18" x="238.28" y="-654.86">R18</text>
<circle data-id="19" cx="102.72" cy="-713.13" r="10.00px"/>
<text data-id="19" x="102.72" y="-713.13">R19</text>
<circle data-id="20" cx="839.80" cy="-373.26" r="10.00px"/>
<text data-id="20" x="839.80" y="-373.26">R20</text>
<circle data-id="21" cx="359.62" cy="-389.83" r="10.00px"/>
<text data-id="21" x="359.62" y="-389.83">R21</text>
<circle data-id="22" cx="778.86" cy="-288.24" r="10.00px"/>
<text data-id="22" x="778.86" y="-288.24">R22</text>
<circle data-id="23" cx="358.33" cy="-656.17" r="10.00px"/>
<text data-id="23" x="358.33" y="-656.17">R23</text>
<circle data-id="24" cx="267.20" cy="-904.61" r="10.00px"/>
<text data-id="24" x="267.20" y="-904.61">R24</text>
<circle data-id="25" cx="205.43" cy="-468.03" r="10.00px"/>
<text data-id="25" x="205.43" y="-468.03">R25</text>
<circle data-id="26" cx="799.52" cy="-46.33" r="10.00px"/>
<text data-id="26" x="799.52" y="-46.33">R26</text>
<circle data-id="27" cx="852.79" cy="-117.26" r="10.00px"/>
<text data-id="27" x="852.79" y="-117.26">R27</text>
<circle data-id="28" cx="392.58" cy="-643.03" r="10.00px"/>
<text data-id="28" x="392.58" y="-643.03">R28</text>
<circle data-id="29" cx="461.89" cy="-634.74" r="10.00px"/>
<text data-id="29" x="461.89" y="-634.74">R29</text>
<circle data-id="30" cx="826.36" cy="-854.47" r="10.00px"/>
<text data-id="30" x="826.36" y="-854.47">R30</text>
<circle data-id="31" cx="217.95" cy="-741.95" r="10.00px"/>
<text data-id="31" x="217.95" y="-741.95">R31</text>
<circle data-id="32" cx="874.07" cy="-616.99" r="10.00px"/>
<text data-id="32" x="874.07" y="-616.99">R32</text>
<circle data-id="33" cx="417.96" cy="-874.38" r="10.00px"/>
<text data-id="33" x="417.96" y="-874.38">R33</text>
<circle data-id="34" cx="436.36" cy="-77.17" r="10.00px"/>
<text data-id="34" x="436.36" y="-77.17">R34</text>
<circle data-id="35" cx="806.15" cy="-757.69" r="10.00px"/>
<text data-id="35" x="806.15" y="-757.69">R35</text>
<circle data-id="36" cx="665.13" cy="-834.01" r="10.00px"/>
<text data-id="36" x="665.13" y="-834.01">R36</text>
<circle data-id="37" cx="153.07" cy="-639.37" r="10.00px"/>
<text data-id="37" x="153.07" y="-639.37">R37</text>
<circle data-id="38" cx="838.60" cy="-526.62" r="10.00px"/>
<text data-id="38" x="838.60" y="-526.62">R38</text>
<circle data-id="39" cx="880.87" cy="-675.90" r="10.00px"/>
<text data-id="39" x="880.87" y="-675.90">R39</text>
<circle data-id="40" cx="452.75" cy="-132.71" r="10.00px"/>
<text data-id="40" x="452.75" y="-132.71">R40</text>
<circle data-id="41" cx="125.23" cy="-73.13" r="10.00px"/>
<text data-id="41" x="125.23" y="-73.13">R41</text>
<circle data-id="42" cx="118.43" cy="-655.45" r="10.00px"/>
<text data-id="42" x="118.43" y="-655.45">R42</text>
<circle data-id="43" cx="8.31" cy="-223.47" r="10.00px"/>
<text data-id="43" x="8.31" y="-223.47">R43</text>
<circle data-id="44" cx="539.81" cy="-245.96" r="10.00px"/>
<text data-id="44" x="539.81" y="-245.96">R44</text>
<circle data-id="45" cx="333.12" cy="-403.59" r="10.00px"/>
<text data-id="45" x="333.12" y="-403.59">R45</text>
<circle data-id="46" cx="320.04" cy="-508.04" r="10.00px"/>
<text data-id="46" x="320.04" y="-508.04">R46</text>
<circle data-id="47" cx="800.01" cy="-163.81" r="10.00px"/>
<text data-id="47" x="800.01" y="-163.81">R47</text>
<circle data-id="48" cx="144.74" cy="-415.18" r="10.00px"/>
<text data-id="48" x="144.74" y="-415.18">R48</text>
<circle data-id="49" cx="588.49" cy="-280.94" r="10.00px"/>
<text data-id="49" x="588.49" y="-280.94">R49</text>
<circle data-id="50" cx="288.02" cy="-300.56" r="10.00px"/>
<text data-id="50" x="288.02" y="-300.56">R50</text>
<circle data-id="51" cx="580.09" cy="-359.54" r="10.00px"/>
<text data-id="51" x="580.09" y="-359.54">R51</text>
<circle data-id="52" cx="9.29" cy="-115.53" r="10.00px"/>
<text data-id="52" x="9.29" y="-115.53">R52</text>
<circle data-id="53" cx="486.01" cy="-365.95" r="10.00px"/>
<text data-id="53" x="486.01" y="-365.95">R53</text>
<circle data-id="54" cx="781.00" cy="-775.13" r="10.00px"/>
<text data-id="54" x="781.00" y="-775.13">R54</text>
<circle data-id="55" cx="437.69" cy="-557.25" r="10.00px"/>
<text data-id="55" x="437.69" y="-557.25">R55</text>
<circle data-id="56" cx="527.23" cy="-808.22" r="10.00px"/>
<text data-id="56" x="527.23" y="-808.22">R56</text>
<circle data-id="57" cx="123.20" cy="-574.17" r="10.00px"/>
<text data-id="57" x="123.20" y="-574.17">R57</text>
<circle data-id="58" cx="146.57" cy="-599.97" r="10.00px"/>
<text data-id="58" x="146.57" y="-599.97">R58</text>
<circle data-id="59" cx="659.75" cy="-425.77" r="10.00px"/>
<text data-id="59" x="659.75" y="-425.77">R59</text>
<circle data-id="60" cx="612.95" cy="-917.72" r="10.00px"/>
<text data-id="60" x="612.95" y="-917.72">R60</text>
<circle data-id="61" cx="594.28" cy="-421.49" r="10.00px"/>
<text data-id="61" x="594.28" y="-421.49">R61</text>
<circle data-id="62" cx="858.43" cy="-855.66" r="10.00px"/>
<text data-id="62" x="858.43" y="-855.66">R62</text>
<circle data-id="63" cx="938.59" cy="-5.56" r="10.00px"/>
<text data-id="63" x="938.59" y="-5.56">R63</text>
<circle data-id="64" cx="557.48" cy="-375.10" r="10.00px"/>
<text data-id="64" x="557.48" y="-375.10">R64</text>
<circle data-id="65" cx="820.69" cy="-228.52" r="10.00px"/>
<text data-id="65" x="820.69" y="-228.52">R65</text>
<circle data-id="66" cx="846.52" cy="-724.31" r="10.00px"/>
<text data-id="66" x="846.52" y="-724.31">R66</text>
<circle data-id="67" cx="91.16" cy="-558.67" r="10.00px"/>
<text data-id="67" x="91.16" y="-558.67">R67</text>
<circle data-id="68" cx="493.10" cy="-44.16" r="10.00px"/>
<text data-id="68" x="493.10" y="-44.16">R68</text>
<circle data-id="69" cx="434.13" cy="-643.41" r="10.00px"/>
<text data-id="69" x="434.13" y="-643.41">R69</text>
<circle data-id="70" cx="344.36" cy="-849.21" r="10.00px"/>
<text data-id="70" x="344.36" y="-849.21">R70</text>
<circle data-id="71" cx="937.62" cy="-520.76" r="10.00px"/>
<text data-id="71" x="937.62" y="-520.76">R71</text>
<circle data-id="72" cx="158.76" cy="-202.88" r="10.00px"/>
<text data-id="72" x="158.76" y="-202.88">R72</text>
<circle data-id="73" cx="729.10" cy="-627.14" r="10.00px"/>
<text data-id="73" x="729.10" y="-627.14">R73</text>
<circle data-id="74" cx="682.25" cy="-753.09" r="10.00px"/>
<text data-id="74" x="682.25" y="-753.09">R74</text>
<circle data-id="75" cx="845.58" cy="-73.56" r="10.00px"/>
<text data-id="75" x="845.58" y="-73.56">R75</text>
<circle data-id="76" cx="747.67" cy="-575.77" r="10.00px"/>
<text data-id="76" x="747.67" y="-575.77">R76</text>
<circle data-id="77" cx="236.93" cy="-249.37" r="10.00px"/>
<text data-id="77" x="236.93" y="-249.37">R77</text>
<circle data-id="78" cx="335.33" cy="-559.84" r="10.00px"/>
<text data-id="78" x="335.33" y="-559.84">R78</text>
<circle data-id="79" cx="840.29" cy="-487.65" r="10.00px"/>
<text data-id="79" x="840.29" y="-487.65">R79</text>
<circle data-id="80" cx="136.97" cy="-927.32" r="10.00px"/>
<text data-id="80" x="136.97" y="-927.32">R80</text>
<circle data-id="81" cx="67.20" cy="-84.52" r="10.00px"/>
<text data-id="81" x="67.20" y="-84.52">R81</text>
<circle data-id="82" cx="859.14" cy="-12.60" r="10.00px"/>
<text data-id="82" x="859.14" y="-12.60">R82</text>
<circle data-id="83" cx="902.26" cy="-938.61" r="10.00px"/>
<text data-id="83" x="902.26" y="-938.61">R83</text>
<circle data-id="84" cx="367.04" cy="-196.14" r="10.00px"/>
<text data-id="84" x="367.04" y="-196.14">R84</text>
<circle data-id="85" cx="447.40" cy="-853.52" r="10.00px"/>
<text data-id="85" x="447.40" y="-853.52">R85</text>
<circle data-id="86" cx="403.19" cy="-771.74" r="10.00px"/>
<text data-id="86" x="403.19" y="-771.74">R86</text>
<circle data-id="87" cx="934.12" cy="-414.85" r="10.00px"/>
<text data-id="87" x="934.12" y="-414.85">R87</text>
<circle data-id="88" cx="532.48" cy="-149.20" r="10.00px"/>
<text data-id="88" x="532.48" y="-149.20">R88</text>
<circle data-id="89" cx="393.87" cy="-923.78" r="10.00px"/>
<text data-id="89" x="393.87" y="-923.78">R89</text>
</svg>
