<svg id="topo" viewBox="-39.70 -934.48 973.14 978.05" xmlns="http://www.w3.org/2000/svg">
<style>#topo path {fill: none; stroke: grey; stroke-width: 5.0000px;} #topo circle {fill: lightblue; stroke: none; stroke-width: 0.3px; vector-effect: non-scaling-stroke; r: 10.0000px;} #topo text {fill: black; stroke: none; font-size: 15.0000px; font-family: sans-serif; text-anchor:middle; transform: translateY(0.3em);} #topo path.country {fill: lightgrey; stroke: black; stroke-width: 1px; vector-effect: non-scaling-stroke; visibility: visible;} #topo path.selection {fill: none; stroke: red; stroke-width: 1px; vector-effect: non-scaling-stroke; visibility: visible;} #topo path.utilization {visibility: hidden;}</style>
<path data-id="0-15" d="M844.02,-488.34,889.21,-526.09"/>
<path data-id="0-16" d="M844.02,-488.34,757.90,-490.85"/>
<path data-id="0-19" d="M844.02,-488.34,870.30,-396.04"/>
<path data-id="0-47" d="M844.02,-488.34,759.82,-541.95"/>
<path data-id="1-29" d="M164.34,-432.04,220.27,-341.73"/>
<path data-id="1-58" d="M164.34,-432.04,168.39,-664.29"/>
<path data-id="1-61" d="M164.34,-432.04,306.52,-424.74"/>
<path data-id="1-68" d="M164.34,-432.04,82.84,-398.90"/>
<path data-id="1-74" d="M164.34,-432.04,298.99,-533.66"/>
<path data-id="2-4" d="M604.50,-841.12,586.25,-764.51"/>
<path data-id="2-20" d="M604.50,-841.12,681.26,-879.53"/>
<path data-id="2-25" d="M604.50,-841.12,577.02,-879.30"/>
<path data-id="2-38" d="M604.50,-841.12,526.99,-834.48"/>
<path data-id="2-59" d="M604.50,-841.12,691.32,-852.35"/>
<path data-id="3-62" d="M117.70,-98.24,95.51,-78.82"/>
<path data-id="3-64" d="M117.70,-98.24,82.31,-111.63"/>
<path data-id="3-75" d="M117.70,-98.24,213.07,-219.15"/>
<path data-id="4-28" d="M586.25,-764.51,548.22,-609.78"/>
<path data-id="4-34" d="M586.25,-764.51,691.11,-728.05"/>
<path data-id="4-38" d="M586.25,-764.51,526.99,-834.48"/>
<path data-id="4-40" d="M586.25,-764.51,657.37,-669.63"/>
<path data-id="4-52" d="M586.25,-764.51,444.46,-723.69"/>
<path data-id="5-6" d="M829.40,-101.54,888.83,-106.72"/>
<path data-id="5-36" d="M829.40,-101.54,851.30,-29.20"/>
<path data-id="5-41" d="M829.40,-101.54,836.05,-208.67"/>
<path data-id="5-50" d="M829.40,-101.54,785.68,-185.64"/>
<path data-id="5-53" d="M829.40,-101.54,804.41,-49.54"/>
<path data-id="6-36" d="M888.83,-106.72,851.30,-29.20"/>
<path data-id="6-41" d="M888.83,-106.72,836.05,-208.67"/>
<path data-id="7-27" d="M4.53,-367.76,21.58,-170.54"/>
<path data-id="7-68" d="M4.53,-367.76,82.84,-398.90"/>
<path data-id="8-9" d="M700.06,-621.33,670.37,-591.26"/>
<path data-id="8-31" d="M700.06,-621.33,835.43,-700.87"/>
<path data-id="8-40" d="M700.06,-621.33,657.37,-669.63"/>
<path data-id="8-47" d="M700.06,-621.33,759.82,-541.95"/>
<path data-id="9-43" d="M670.37,-591.26,637.34,-428.23"/>
<path data-id="9-47" d="M670.37,-591.26,759.82,-541.95"/>
<path data-id="9-66" d="M670.37,-591.26,596.59,-606.21"/>
<path data-id="10-29" d="M311.82,-253.84,220.27,-341.73"/>
<path data-id="10-32" d="M311.82,-253.84,257.25,-215.24"/>
<path data-id="10-44" d="M311.82,-253.84,322.52,-335.97"/>
<path data-id="10-69" d="M311.82,-253.84,436.42,-271.47"/>
<path data-id="11-21" d="M614.76,-66.87,713.86,-229.73"/>
<path data-id="11-65" d="M614.76,-66.87,622.08,-3.31"/>
<path data-id="11-69" d="M614.76,-66.87,436.42,-271.47"/>
<path data-id="11-70" d="M614.76,-66.87,661.08,-46.49"/>
<path data-id="11-72" d="M614.76,-66.87,247.65,-0.88"/>
<path data-id="12-20" d="M709.40,-890.02,681.26,-879.53"/>
<path data-id="12-46" d="M709.40,-890.02,762.60,-853.74"/>
<path data-id="13-18" d="M28.69,-720.90,82.18,-694.71"/>
<path data-id="13-22" d="M28.69,-720.90,132.66,-864.80"/>
<path data-id="14-48" d="M465.22,-421.01,453.58,-396.68"/>
<path data-id="14-79" d="M465.22,-421.01,481.15,-444.32"/>
<path data-id="15-31" d="M889.21,-526.09,835.43,-700.87"/>
<path data-id="16-43" d="M757.90,-490.85,637.34,-428.23"/>
<path data-id="16-47" d="M757.90,-490.85,759.82,-541.95"/>
<path data-id="17-21" d="M667.45,-325.65,713.86,-229.73"/>
<path data-id="17-26" d="M667.45,-325.65,782.77,-263.80"/>
<path data-id="17-43" d="M667.45,-325.65,637.34,-428.23"/>
<path data-id="17-56" d="M667.45,-325.65,554.89,-334.26"/>
<path data-id="18-22" d="M82.18,-694.71,132.66,-864.80"/>
<path data-id="18-58" d="M82.18,-694.71,168.39,-664.29"/>
<path data-id="19-26" d="M870.30,-396.04,782.77,-263.80"/>
<path data-id="19-63" d="M870.30,-396.04,863.81,-225.62"/>
<path data-id="20-59" d="M681.26,-879.53,691.32,-852.35"/>
<path data-id="21-26" d="M713.86,-229.73,782.77,-263.80"/>
<path data-id="21-50" d="M713.86,-229.73,785.68,-185.64"/>
<path data-id="21-70" d="M713.86,-229.73,661.08,-46.49"/>
<path data-id="22-67" d="M132.66,-864.80,169.28,-870.67"/>
<path data-id="23-37" d="M301.87,-604.44,398.98,-637.94"/>
<path data-id="23-58" d="M301.87,-604.44,168.39,-664.29"/>
<path data-id="23-74" d="M301.87,-604.44,298.99,-533.66"/>
<path data-id="24-26" d="M807.86,-229.84,782.77,-263.80"/>
<path data-id="24-41" d="M807.86,-229.84,836.05,-208.67"/>
<path data-id="24-50" d="M807.86,-229.84,785.68,-185.64"/>
<path data-id="25-38" d="M577.02,-879.30,526.99,-834.48"/>
<path data-id="27-33" d="M21.58,-170.54,45.49,-136.99"/>
<path data-id="28-60" d="M548.22,-609.78,465.96,-610.35"/>
<path data-id="28-66" d="M548.22,-609.78,596.59,-606.21"/>
<path data-id="28-71" d="M548.22,-609.78,546.50,-467.85"/>
<path data-id="28-78" d="M548.22,-609.78,470.35,-580.61"/>
<path data-id="29-44" d="M220.27,-341.73,322.52,-335.97"/>
<path data-id="29-61" d="M220.27,-341.73,306.52,-424.74"/>
<path data-id="29-75" d="M220.27,-341.73,213.07,-219.15"/>
<path data-id="30-44" d="M359.65,-372.08,322.52,-335.97"/>
<path data-id="30-45" d="M359.65,-372.08,386.12,-413.07"/>
<path data-id="30-61" d="M359.65,-372.08,306.52,-424.74"/>
<path data-id="30-69" d="M359.65,-372.08,436.42,-271.47"/>
<path data-id="31-34" d="M835.43,-700.87,691.11,-728.05"/>
<path data-id="31-47" d="M835.43,-700.87,759.82,-541.95"/>
<path data-id="31-57" d="M835.43,-700.87,833.75,-820.06"/>
<path data-id="32-54" d="M257.25,-215.24,274.03,-172.64"/>
<path data-id="32-75" d="M257.25,-215.24,213.07,-219.15"/>
<path data-id="33-64" d="M45.49,-136.99,82.31,-111.63"/>
<path data-id="34-40" d="M691.11,-728.05,657.37,-669.63"/>
<path data-id="34-59" d="M691.11,-728.05,691.32,-852.35"/>
<path data-id="35-37" d="M377.57,-724.31,398.98,-637.94"/>
<path data-id="35-49" d="M377.57,-724.31,425.85,-855.44"/>
<path data-id="35-52" d="M377.57,-724.31,444.46,-723.69"/>
<path data-id="35-73" d="M377.57,-724.31,342.93,-885.71"/>
<path data-id="36-53" d="M851.30,-29.20,804.41,-49.54"/>
<path data-id="37-60" d="M398.98,-637.94,465.96,-610.35"/>
<path data-id="37-76" d="M398.98,-637.94,460.39,-662.74"/>
<path data-id="38-49" d="M526.99,-834.48,425.85,-855.44"/>
<path data-id="38-52" d="M526.99,-834.48,444.46,-723.69"/>
<path data-id="39-57" d="M851.71,-842.40,833.75,-820.06"/>
<path data-id="40-66" d="M657.37,-669.63,596.59,-606.21"/>
<path data-id="41-50" d="M836.05,-208.67,785.68,-185.64"/>
<path data-id="41-63" d="M836.05,-208.67,863.81,-225.62"/>
<path data-id="42-51" d="M69.42,-36.89,117.58,-7.69"/>
<path data-id="42-62" d="M69.42,-36.89,95.51,-78.82"/>
<path data-id="43-56" d="M637.34,-428.23,554.89,-334.26"/>
<path data-id="43-71" d="M637.34,-428.23,546.50,-467.85"/>
<path data-id="44-61" d="M322.52,-335.97,306.52,-424.74"/>
<path data-id="44-69" d="M322.52,-335.97,436.42,-271.47"/>
<path data-id="45-48" d="M386.12,-413.07,453.58,-396.68"/>
<path data-id="45-55" d="M386.12,-413.07,346.74,-463.81"/>
<path data-id="45-61" d="M386.12,-413.07,306.52,-424.74"/>
<path data-id="46-57" d="M762.60,-853.74,833.75,-820.06"/>
<path data-id="46-59" d="M762.60,-853.74,691.32,-852.35"/>
<path data-id="48-56" d="M453.58,-396.68,554.89,-334.26"/>
<path data-id="48-69" d="M453.58,-396.68,436.42,-271.47"/>
<path data-id="49-52" d="M425.85,-855.44,444.46,-723.69"/>
<path data-id="49-77" d="M425.85,-855.44,390.84,-883.23"/>
<path data-id="50-70" d="M785.68,-185.64,661.08,-46.49"/>
<path data-id="51-62" d="M117.58,-7.69,95.51,-78.82"/>
<path data-id="51-72" d="M117.58,-7.69,247.65,-0.88"/>
<path data-id="52-76" d="M444.46,-723.69,460.39,-662.74"/>
<path data-id="53-70" d="M804.41,-49.54,661.08,-46.49"/>
<path data-id="54-72" d="M274.03,-172.64,247.65,-0.88"/>
<path data-id="55-61" d="M346.74,-463.81,306.52,-424.74"/>
<path data-id="55-74" d="M346.74,-463.81,298.99,-533.66"/>
<path data-id="55-78" d="M346.74,-463.81,470.35,-580.61"/>
<path data-id="56-69" d="M554.89,-334.26,436.42,-271.47"/>
<path data-id="56-71" d="M554.89,-334.26,546.50,-467.85"/>
<path data-id="58-67" d="M168.39,-664.29,169.28,-870.67"/>
<path data-id="60-76" d="M465.96,-610.35,460.39,-662.74"/>
<path data-id="60-78" d="M465.96,-610.35,470.35,-580.61"/>
<path data-id="62-64" d="M95.51,-78.82,82.31,-111.63"/>
<path data-id="65-70" d="M622.08,-3.31,661.08,-46.49"/>
<path data-id="65-72" d="M622.08,-3.31,247.65,-0.88"/>
<path data-id="66-71" d="M596.59,-606.21,546.50,-467.85"/>
<path data-id="67-73" d="M169.28,-870.67,342.93,-885.71"/>
<path data-id="71-78" d="M546.50,-467.85,470.35,-580.61"/>
<path data-id="71-79" d="M546.50,-467.85,481.15,-444.32"/>
<path data-id="73-77" d="M342.93,-885.71,390.84,-883.23"/>
<path data-id="78-79" d="M470.35,-580.61,481.15,-444.32"/>
<circle data-id="0" cx="844.02" cy="-488.34" r="10.00px"/>
<text data-id="0" x="844.02" y="-488.34">R0</text>
<circle data-id="1" cx="164.34" cy="-432.04" r="10.00px"/>
<text data-id="1" x="164.34" y="-432.04">R1</text>
<circle data-id="2" cx="604.50" cy="-841.12" r="10.00px"/>
<text data-id="2" x="604.50" y="-841.12">R2</text>
<circle data-id="3" cx="117.70" cy="-98.24" r="10.00px"/>
<text data-id="3" x="117.70" y="-98.24">R3</text>
<circle data-id="4" cx="586.25" cy="-764.51" r="10.00px"/>
<text data-id="4" x="586.25" y="-764.51">R4</text>
<circle data-id="5" cx="829.40" cy="-101.54" r="10.00px"/>
<text data-id="5" x="829.40" y="-101.54">R5</text>
<circle data-id="6" cx="888.83" cy="-106.72" r="10.00px"/>
<text data-id="6" x="888.83" y="-106.72">R6</text>
<circle data-id="7" cx="4.53" cy="-367.76" r="10.00px"/>
<text data-id="7" x="4.53" y="-367.76">R7</text>
<circle data-id="8" cx="700.06" cy="-621.33" r="10.00px"/>
<text data-id="8" x="700.06" y="-621.33">R8</text>
<circle data-id="9" cx="670.37" cy="-591.26" r="10.00px"/>
<text data-id="9" x="670.37" y="-591.26">R9</text>
<circle data-id="10" cx="311.82" cy="-253.84" r="10.00px"/>
<text data-id="10" x="311.82" y="-253.84">R10</text>
<circle data-id="11" cx="614.76" cy="-66.87" r="10.00px"/>
<text data-id="11" x="614.76" y="-66.87">R11</text>
<circle data-id="12" cx="709.40" cy="-890.02" r="10.00px"/>
<text data-id="12" x="709.40" y="-890.02">R12</text>
<circle data-id="13" cx="28.69" cy="-720.90" r="10.00px"/>
<text data-id="13" x="28.69" y="-720.90">R13</text>
<circle data-id="14" cx="465.22" cy="-421.01" r="10.00px"/>
<text data-id="14" x="465.22" y="-421.01">R14</text>
<circle data-id="15" cx="889.21" cy="-526.09" r="10.00px"/>
<text data-id="15" x="889.21" y="-526.09">R15</text>
<circle data-id="16" cx="757.90" cy="-490.85" r="10.00px"/>
<text data-id="16" x="757.90" y="-490.85">R16</text>
<circle data-id="17" cx="667.45" cy="-325.65" r="10.00px"/>
<text data-id="17" x="667.45" y="-325.65">R17</text>
<circle data-id="18" cx="82.18" cy="-694.71" r="10.00px"/>
<text data-id="18" x="82.18" y="-694.71">R18</text>
<circle data-id="19" cx="870.30" cy="-396.04" r="10.00px"/>
<text data-id="19" x="870.30" y="-396.04">R19</text>
<circle data-id="20" cx="681.26" cy="-879.53" r="10.00px"/>
<text data-id="20" x="681.26" y="-879.53">R20</text>
<circle data-id="21" cx="713.86" cy="-229.73" r="10.00px"/>
<text data-id="21" x="713.86" y="-229.73">R21</text>
<circle data-id="22" cx="132.66" cy="-864.80" r="10.00px"/>
<text data-id="22" x="132.66" y="-864.80">R22</text>
<circle data-id="23" cx="301.87" cy="-604.44" r="10.00px"/>
<text data-id="23" x="301.87" y="-604.44">R23</text>
<circle data-id="24" cx="807.86" cy="-229.84" r="10.00px"/>
<text data-id="24" x="807.86" y="-229.84">R24</text>
<circle data-id="25" cx="577.02" cy="-879.30" r="10.00px"/>
<text data-id="25" x="577.02" y="-879.30">R25</text>
<circle data-id="26" cx="782.77" cy="-263.80" r="10.00px"/>
<text data-id="26" x="782.77" y="-263.80">R26</text>
<circle data-id="27" cx="21.58" cy="-170.54" r="10.00px"/>
<text data-id="27" x="21.58" y="-170.54">R27</text>
<circle data-id="28" cx="548.22" cy="-609.78" r="10.00px"/>
<text data-id="28" x="548.22" y="-609.78">R28</text>
<circle data-id="29" cx="220.27" cy="-341.73" r="10.00px"/>
<text data-id="29" x="220.27" y="-341.73">R29</text>
<circle data-id="30" cx="359.65" cy="-372.08" r="10.00px"/>
<text data-id="30" x="359.65" y="-372.08">R30</text>
<circle data-id="31" cx="835.43" cy="-700.87" r="10.00px"/>
<text data-id="31" x="835.43" y="-700.87">R31</text>
<circle data-id="32" cx="257.25" cy="-215.24" r="10.00px"/>
<text data-id="32" x="257.25" y="-215.24">R32</text>
<circle data-id="33" cx="45.49" cy="-136.99" r="10.00px"/>
<text data-id="33" x="45.49" y="-136.99">R33</text>
<circle data-id="34" cx="691.11" cy="-728.05" r="10.00px"/>
<text data-id="34" x="691.11" y="-728.05">R34</text>
<circle data-id="35" cx="377.57" cy="-724.31" r="10.00px"/>
<text data-id="35" x="377.57" y="-724.31">R35</text>
<circle data-id="36" cx="851.30" cy="-29.20" r="10.00px"/>
<text data-id="36" x="851.30" y="-29.20">R36</text>
<circle data-id="37" cx="398.98" cy="-637.94" r="10.00px"/>
<text data-id="37" x="398.98" y="-637.94">R37</text>
<circle data-id="38" cx="526.99" cy="-834.48" r="10.00px"/>
<text data-id="38" x="526.99" y="-834.48">R38</text>
<circle data-id="39" cx="851.71" cy="-842.40" r="10.00px"/>
<text data-id="39" x="851.71" y="-842.40">R39</text>
<circle data-id="40" cx="657.37" cy="-669.63" r="10.00px"/>
<text data-id="40" x="657.37" y="-669.63">R40</text>
<circle data-id="41" cx="836.05" cy="-208.67" r="10.00px"/>
<text data-id="41" x="836.05" y="-208.67">R41</text>
<circle data-id="42" cx="69.42" cy="-36.89" r="10.00px"/>
<text data-id="42" x="69.42" y="-36.89">R42</text>
<circle data-id="43" cx="637.34" cy="-428.23" r="10.00px"/>
<text data-id="43" x="637.34" y="-428.23">R43</text>
<circle data-id="44" cx="322.52" cy="-335.97" r="10.00px"/>
<text data-id="44" x="322.52" y="-335.97">R44</text>
<circle data-id="45" cx="386.12" cy="-413.07" r="10.00px"/>
<text data-id="45" x="386.12" y="-413.07">R45</text>
<circle data-id="46" cx="762.60" cy="-853.74" r="10.00px"/>
<text data-id="46" x="762.60" y="-853.74">R46</text>
<circle data-id="47" cx="759.82" cy="-541.95" r="10.00px"/>
<text data-id="47" x="759.82" y="-541.95">R47</text>
<circle data-id="48" cx="453.58" cy="-396.68" r="10.00px"/>
<text data-id="48" x="453.58" y="-396.68">R48</text>
<circle data-id="49" cx="425.85" cy="-855.44" r="10.00px"/>
<text data-id="49" x="425.85" y="-855.44">R49</text>
<circle data-id="50" cx="785.68" cy="-185.64" r="10.00px"/>
<text data-id="50" x="785.68" y="-185.64">R50</text>
<circle data-id="51" cx="117.58" cy="-7.69" r="10.00px"/>
<text data-id="51" x="117.58" y="-7.69">R51</text>
<circle data-id="52" cx="444.46" cy="-723.69" r="10.00px"/>
<text data-id="52" x="444.46" y="-723.69">R52</text>
<circle data-id="53" cx="804.41" cy="-49.54" r="10.00px"/>
<text data-id="53" x="804.41" y="-49.54">R53</text>
<circle data-id="54" cx="274.03" cy="-172.64" r="10.00px"/>
<text data-id="54" x="274.03" y="-172.64">R54</text>
<circle data-id="55" cx="346.74" cy="-463.81" r="10.00px"/>
<text data-id="55" x="346.74" y="-463.81">R55</text>
<circle data-id="56" cx="554.89" cy="-334.26" r="10.00px"/>
<text data-id="56" x="554.89" y="-334.26">R56</text>
<circle data-id="57" cx="833.75" cy="-820.06" r="10.00px"/>
<text data-id="57" x="833.75" y="-820.06">R57</text>
<circle data-id="58" cx="168.39" cy="-664.29" r="10.00px"/>
<text data-id="58" x="168.39" y="-664.29">R58</text>
<circle data-id="59" cx="691.32" cy="-852.35" r="10.00px"/>
<text data-id="59" x="691.32" y="-852.35">R59</text>
<circle data-id="60" cx="465.96" cy="-610.35" r="10.00px"/>
<text data-id="60" x="465.96" y="-610.35">R60</text>
<circle data-id="61" cx="306.52" cy="-424.74" r="10.00px"/>
<text data-id="61" x="306.52" y="-424.74">R61</text>
<circle data-id="62" cx="95.51" cy="-78.82" r="10.00px"/>
<text data-id="62" x="95.51" y="-78.82">R62</text>
<circle data-id="63" cx="863.81" cy="-225.62" r="10.00px"/>
<text data-id="63" x="863.81" y="-225.62">R63</text>
<circle data-id="64" cx="82.31" cy="-111.63" r="10.00px"/>
<text data-id="64" x="82.31" y="-111.63">R64</text>
<circle data-id="65" cx="622.08" cy="-3.31" r="10.00px"/>
<text data-id="65" x="622.08" y="-3.31">R65</text>
<circle data-id="66" cx="596.59" cy="-606.21" r="10.00px"/>
<text data-id="66" x="596.59" y="-606.21">R66</text>
<circle data-id="67" cx="169.28" cy="-870.67" r="10.00px"/>
<text data-id="67" x="169.28" y="-870.67">R67</text>
<circle data-id="68" cx="82.84" cy="-398.90" r="10.00px"/>
<text data-id="68" x="82.84" y="-398.90">R68</text>
<circle data-id="69" cx="436.42" cy="-271.47" r="10.00px"/>
<text data-id="69" x="436.42" y="-271.47">R69</text>
<circle data-id="70" cx="661.08" cy="-46.49" r="10.00px"/>
<text data-id="70" x="661.08" y="-46.49">R70</text>
<circle data-id="71" cx="546.50" cy="-467.85" r="10.00px"/>
<text data-id="71" x="546.50" y="-467.85">R71</text>
<circle data-id="72" cx="247.65" cy="-0.88" r="10.00px"/>
<text data-id="72" x="247.65" y="-0.88">R72</text>
<circle data-id="73" cx="342.93" cy="-885.71" r="10.00px"/>
<text data-id="73" x="342.93" y="-885.71">R73</text>
<circle data-id="74" cx="298.99" cy="-533.66" r="10.00px"/>
<text data-id="74" x="298.99" y="-533.66">R74</text>
<circle data-id="75" cx="213.07" cy="-219.15" r="10.00px"/>
<text data-id="75" x="213.07" y="-219.15">R75</text>
<circle data-id="76" cx="460.39" cy="-662.74" r="10.00px"/>
<text data-id="76" x="460.39" y="-662.74">R76</text>
<circle data-id="77" cx="390.84" cy="-883.23" r="10.00px"/>
<text data-id="77" x="390.84" y="-883.23">R77</text>
<circle data-id="78" cx="470.35" cy="-580.61" r="10.00px"/>
<text data-id="78" x="470.35" y="-580.61">R78</text>
<circle data-id="79" cx="481.15" cy="-444.32" r="10.00px"/>
<text data-id="79" x="481.15" y="-444.32">R79</text>
</svg>
