<svg id="topo" viewBox="-37.93 -934.73 953.82 968.17" xmlns="http://www.w3.org/2000/svg">
<style>#topo path {fill: none; stroke: grey; stroke-width: 5.0000px;} #topo circle {fill: lightblue; stroke: none; stroke-width: 0.3px; vector-effect: non-scaling-stroke; r: 10.0000px;} #topo text {fill: black; stroke: none; font-size: 15.0000px; font-family: sans-serif; text-anchor:middle; transform: translateY(0.3em);} #topo path.country {fill: lightgrey; stroke: black; stroke-width: 1px; vector-effect: non-scaling-stroke; visibility: visible;} #topo path.selection {fill: none; stroke: red; stroke-width: 1px; vector-effect: non-scaling-stroke; visibility: visible;} #topo path.utilization {visibility: hidden;}</style>
<path data-id="0-28" d="M68.53,-477.89,102.16,-474.65"/>
<path data-id="0-53" d="M68.53,-477.89,48.14,-437.07"/>
<path data-id="0-66" d="M68.53,-477.89,85.77,-520.80"/>
<path data-id="1-5" d="M615.05,-691.50,529.91,-787.24"/>
<path data-id="1-16" d="M615.05,-691.50,742.92,-615.94"/>
<path data-id="1-21" d="M615.05,-691.50,762.21,-707.11"/>
<path data-id="1-38" d="M615.05,-691.50,494.24,-665.30"/>
<path data-id="1-41" d="M615.05,-691.50,704.40,-798.97"/>
<path data-id="1-70" d="M615.05,-691.50,650.77,-542.13"/>
<path data-id="2-44" d="M538.77,-371.38,574.70,-360.59"/>
<path data-id="2-47" d="M538.77,-371.38,382.52,-281.04"/>
<path data-id="2-50" d="M538.77,-371.38,470.00,-427.79"/>
<path data-id="3-20" d="M770.83,-382.94,767.58,-484.02"/>
<path data-id="3-24" d="M770.83,-382.94,689.54,-450.42"/>
<path data-id="3-31" d="M770.83,-382.94,847.36,-451.38"/>
<path data-id="3-32" d="M770.83,-382.94,709.56,-309.18"/>
<path data-id="3-61" d="M770.83,-382.94,828.59,-292.23"/>
<path data-id="4-7" d="M349.07,-649.26,393.31,-673.17"/>
<path data-id="4-13" d="M349.07,-649.26,152.50,-612.85"/>
<path data-id="4-22" d="M349.07,-649.26,346.70,-731.62"/>
<path data-id="4-49" d="M349.07,-649.26,283.21,-522.99"/>
<path data-id="4-65" d="M349.07,-649.26,389.35,-565.53"/>
<path data-id="5-25" d="M529.91,-787.24,490.15,-890.72"/>
<path data-id="5-38" d="M529.91,-787.24,494.24,-665.30"/>
<path data-id="5-41" d="M529.91,-787.24,704.40,-798.97"/>
<path data-id="5-46" d="M529.91,-787.24,438.17,-715.96"/>
<path data-id="6-34" d="M280.74,-480.41,313.98,-503.67"/>
<path data-id="6-49" d="M280.74,-480.41,283.21,-522.99"/>
<path data-id="6-60" d="M280.74,-480.41,169.77,-487.27"/>
<path data-id="6-71" d="M280.74,-480.41,208.82,-408.18"/>
<path data-id="6-78" d="M280.74,-480.41,324.82,-444.58"/>
<path data-id="7-22" d="M393.31,-673.17,346.70,-731.62"/>
<path data-id="7-39" d="M393.31,-673.17,398.76,-743.52"/>
<path data-id="7-46" d="M393.31,-673.17,438.17,-715.96"/>
<path data-id="7-76" d="M393.31,-673.17,483.22,-577.91"/>
<path data-id="8-12" d="M833.46,-704.54,814.76,-821.50"/>
<path data-id="8-21" d="M833.46,-704.54,762.21,-707.11"/>
<path data-id="8-69" d="M833.46,-704.54,839.50,-631.22"/>
<path data-id="8-72" d="M833.46,-704.54,872.54,-639.24"/>
<path data-id="9-13" d="M21.07,-632.84,152.50,-612.85"/>
<path data-id="9-66" d="M21.07,-632.84,85.77,-520.80"/>
<path data-id="9-79" d="M21.07,-632.84,5.43,-652.94"/>
<path data-id="10-12" d="M780.21,-841.81,814.76,-821.50"/>
<path data-id="10-15" d="M780.21,-841.81,770.70,-870.06"/>
<path data-id="10-41" d="M780.21,-841.81,704.40,-798.97"/>
<path data-id="10-42" d="M780.21,-841.81,834.49,-889.79"/>
<path data-id="11-18" d="M284.35,-258.34,291.82,-359.22"/>
<path data-id="11-29" d="M284.35,-258.34,204.38,-341.38"/>
<path data-id="11-37" d="M284.35,-258.34,337.48,-197.29"/>
<path data-id="11-47" d="M284.35,-258.34,382.52,-281.04"/>
<path data-id="11-52" d="M284.35,-258.34,220.86,-175.74"/>
<path data-id="11-59" d="M284.35,-258.34,168.00,-283.58"/>
<path data-id="12-21" d="M814.76,-821.50,762.21,-707.11"/>
<path data-id="12-42" d="M814.76,-821.50,834.49,-889.79"/>
<path data-id="13-40" d="M152.50,-612.85,140.83,-667.04"/>
<path data-id="13-49" d="M152.50,-612.85,283.21,-522.99"/>
<path data-id="13-60" d="M152.50,-612.85,169.77,-487.27"/>
<path data-id="13-66" d="M152.50,-612.85,85.77,-520.80"/>
<path data-id="14-16" d="M746.86,-523.06,742.92,-615.94"/>
<path data-id="14-20" d="M746.86,-523.06,767.58,-484.02"/>
<path data-id="14-24" d="M746.86,-523.06,689.54,-450.42"/>
<path data-id="14-67" d="M746.86,-523.06,785.07,-517.08"/>
<path data-id="14-70" d="M746.86,-523.06,650.77,-542.13"/>
<path data-id="15-42" d="M770.70,-870.06,834.49,-889.79"/>
<path data-id="16-21" d="M742.92,-615.94,762.21,-707.11"/>
<path data-id="16-27" d="M742.92,-615.94,815.09,-600.33"/>
<path data-id="16-70" d="M742.92,-615.94,650.77,-542.13"/>
<path data-id="17-52" d="M155.03,-164.50,220.86,-175.74"/>
<path data-id="17-55" d="M155.03,-164.50,234.88,-10.56"/>
<path data-id="17-59" d="M155.03,-164.50,168.00,-283.58"/>
<path data-id="17-68" d="M155.03,-164.50,82.59,-71.10"/>
<path data-id="17-77" d="M155.03,-164.50,51.78,-239.96"/>
<path data-id="18-29" d="M291.82,-359.22,204.38,-341.38"/>
<path data-id="18-47" d="M291.82,-359.22,382.52,-281.04"/>
<path data-id="18-71" d="M291.82,-359.22,208.82,-408.18"/>
<path data-id="18-78" d="M291.82,-359.22,324.82,-444.58"/>
<path data-id="19-48" d="M256.78,-885.00,326.85,-870.73"/>
<path data-id="19-75" d="M256.78,-885.00,111.35,-862.61"/>
<path data-id="20-24" d="M767.58,-484.02,689.54,-450.42"/>
<path data-id="20-31" d="M767.58,-484.02,847.36,-451.38"/>
<path data-id="20-67" d="M767.58,-484.02,785.07,-517.08"/>
<path data-id="21-41" d="M762.21,-707.11,704.40,-798.97"/>
<path data-id="22-33" d="M346.70,-731.62,312.27,-775.20"/>
<path data-id="22-39" d="M346.70,-731.62,398.76,-743.52"/>
<path data-id="23-40" d="M49.82,-698.55,140.83,-667.04"/>
<path data-id="23-62" d="M49.82,-698.55,5.71,-728.39"/>
<path data-id="23-75" d="M49.82,-698.55,111.35,-862.61"/>
<path data-id="23-79" d="M49.82,-698.55,5.43,-652.94"/>
<path data-id="24-32" d="M689.54,-450.42,709.56,-309.18"/>
<path data-id="24-44" d="M689.54,-450.42,574.70,-360.59"/>
<path data-id="24-70" d="M689.54,-450.42,650.77,-542.13"/>
<path data-id="25-39" d="M490.15,-890.72,398.76,-743.52"/>
<path data-id="25-48" d="M490.15,-890.72,326.85,-870.73"/>
<path data-id="26-36" d="M283.88,-103.71,311.21,-161.09"/>
<path data-id="26-52" d="M283.88,-103.71,220.86,-175.74"/>
<path data-id="26-55" d="M283.88,-103.71,234.88,-10.56"/>
<path data-id="26-74" d="M283.88,-103.71,427.72,-67.98"/>
<path data-id="27-67" d="M815.09,-600.33,785.07,-517.08"/>
<path data-id="27-69" d="M815.09,-600.33,839.50,-631.22"/>
<path data-id="28-54" d="M102.16,-474.65,170.61,-355.83"/>
<path data-id="28-60" d="M102.16,-474.65,169.77,-487.27"/>
<path data-id="28-66" d="M102.16,-474.65,85.77,-520.80"/>
<path data-id="29-54" d="M204.38,-341.38,170.61,-355.83"/>
<path data-id="29-59" d="M204.38,-341.38,168.00,-283.58"/>
<path data-id="29-71" d="M204.38,-341.38,208.82,-408.18"/>
<path data-id="30-50" d="M477.80,-452.96,470.00,-427.79"/>
<path data-id="30-65" d="M477.80,-452.96,389.35,-565.53"/>
<path data-id="30-70" d="M477.80,-452.96,650.77,-542.13"/>
<path data-id="30-76" d="M477.80,-452.96,483.22,-577.91"/>
<path data-id="31-67" d="M847.36,-451.38,785.07,-517.08"/>
<path data-id="32-44" d="M709.56,-309.18,574.70,-360.59"/>
<path data-id="32-45" d="M709.56,-309.18,812.45,-227.06"/>
<path data-id="32-56" d="M709.56,-309.18,578.51,-151.11"/>
<path data-id="32-61" d="M709.56,-309.18,828.59,-292.23"/>
<path data-id="32-63" d="M709.56,-309.18,720.19,-145.41"/>
<path data-id="33-40" d="M312.27,-775.20,140.83,-667.04"/>
<path data-id="33-48" d="M312.27,-775.20,326.85,-870.73"/>
<path data-id="34-49" d="M313.98,-503.67,283.21,-522.99"/>
<path data-id="34-65" d="M313.98,-503.67,389.35,-565.53"/>
<path data-id="34-78" d="M313.98,-503.67,324.82,-444.58"/>
<path data-id="35-53" d="M43.97,-374.16,48.14,-437.07"/>
<path data-id="35-54" d="M43.97,-374.16,170.61,-355.83"/>
<path data-id="35-58" d="M43.97,-374.16,36.29,-347.04"/>
<path data-id="36-37" d="M311.21,-161.09,337.48,-197.29"/>
<path data-id="36-52" d="M311.21,-161.09,220.86,-175.74"/>
<path data-id="36-74" d="M311.21,-161.09,427.72,-67.98"/>
<path data-id="37-73" d="M337.48,-197.29,364.14,-200.61"/>
<path data-id="38-46" d="M494.24,-665.30,438.17,-715.96"/>
<path data-id="38-76" d="M494.24,-665.30,483.22,-577.91"/>
<path data-id="39-46" d="M398.76,-743.52,438.17,-715.96"/>
<path data-id="40-75" d="M140.83,-667.04,111.35,-862.61"/>
<path data-id="43-56" d="M681.47,-46.29,578.51,-151.11"/>
<path data-id="43-63" d="M681.47,-46.29,720.19,-145.41"/>
<path data-id="44-56" d="M574.70,-360.59,578.51,-151.11"/>
<path data-id="45-61" d="M812.45,-227.06,828.59,-292.23"/>
<path data-id="45-64" d="M812.45,-227.06,778.35,-131.21"/>
<path data-id="47-51" d="M382.52,-281.04,404.54,-434.29"/>
<path data-id="47-73" d="M382.52,-281.04,364.14,-200.61"/>
<path data-id="49-60" d="M283.21,-522.99,169.77,-487.27"/>
<path data-id="50-51" d="M470.00,-427.79,404.54,-434.29"/>
<path data-id="51-65" d="M404.54,-434.29,389.35,-565.53"/>
<path data-id="51-78" d="M404.54,-434.29,324.82,-444.58"/>
<path data-id="52-59" d="M220.86,-175.74,168.00,-283.58"/>
<path data-id="54-59" d="M170.61,-355.83,168.00,-283.58"/>
<path data-id="54-71" d="M170.61,-355.83,208.82,-408.18"/>
<path data-id="55-68" d="M234.88,-10.56,82.59,-71.10"/>
<path data-id="56-63" d="M578.51,-151.11,720.19,-145.41"/>
<path data-id="56-73" d="M578.51,-151.11,364.14,-200.61"/>
<path data-id="56-74" d="M578.51,-151.11,427.72,-67.98"/>
<path data-id="57-64" d="M832.85,-93.75,778.35,-131.21"/>
<path data-id="58-59" d="M36.29,-347.04,168.00,-283.58"/>
<path data-id="58-77" d="M36.29,-347.04,51.78,-239.96"/>
<path data-id="59-77" d="M168.00,-283.58,51.78,-239.96"/>
<path data-id="60-71" d="M169.77,-487.27,208.82,-408.18"/>
<path data-id="62-75" d="M5.71,-728.39,111.35,-862.61"/>
<path data-id="62-79" d="M5.71,-728.39,5.43,-652.94"/>
<path data-id="63-64" d="M720.19,-145.41,778.35,-131.21"/>
<path data-id="65-76" d="M389.35,-565.53,483.22,-577.91"/>
<path data-id="68-77" d="M82.59,-71.10,51.78,-239.96"/>
<path data-id="69-72" d="M839.50,-631.22,872.54,-639.24"/>
<path data-id="70-76" d="M650.77,-542.13,483.22,-577.91"/>
<path data-id="73-74" d="M364.14,-200.61,427.72,-67.98"/>
<circle data-id="0" cx="68.53" cy="-477.89" r="10.00px"/>
<text data-id="0" x="68.53" y="-477.89">R0</text>
<circle data-id="1" cx="615.05" cy="-691.50" r="10.00px"/>
<text data-id="1" x="615.05" y="-691.50">R1</text>
<circle data-id="2" cx="538.77" cy="-371.38" r="10.00px"/>
<text data-id="2" x="538.77" y="-371.38">R2</text>
<circle data-id="3" cx="770.83" cy="-382.94" r="10.00px"/>
<text data-id="3" x="770.83" y="-382.94">R3</text>
<circle data-id="4" cx="349.07" cy="-649.26" r="10.00px"/>
<text data-id="4" x="349.07" y="-649.26">R4</text>
<circle data-id="5" cx="529.91" cy="-787.24" r="10.00px"/>
<text data-id="5" x="529.91" y="-787.24">R5</text>
<circle data-id="6" cx="280.74" cy="-480.41" r="10.00px"/>
<text data-id="6" x="280.74" y="-480.41">R6</text>
<circle data-id="7" cx="393.31" cy="-673.17" r="10.00px"/>
<text data-id="7" x="393.31" y="-673.17">R7</text>
<circle data-id="8" cx="833.46" cy="-704.54" r="10.00px"/>
<text data-id="8" x="833.46" y="-704.54">R8</text>
<circle data-id="9" cx="21.07" cy="-632.84" r="10.00px"/>
<text data-id="9" x="21.07" y="-632.84">R9</text>
<circle data-id="10" cx="780.21" cy="-841.81" r="10.00px"/>
<text data-id="10" x="780.21" y="-841.81">R10</text>
<circle data-id="11" cx="284.35" cy="-258.34" r="10.00px"/>
<text data-id="11" x="284.35" y="-258.34">R11</text>
<circle data-id="12" cx="814.76" cy="-821.50" r="10.00px"/>
<text data-id="12" x="814.76" y="-821.50">R12</text>
<circle data-id="13" cx="152.50" cy="-612.85" r="10.00px"/>
<text data-id="13" x="152.50" y="-612.85">R13</text>
<circle data-id="14" cx="746.86" cy="-523.06" r="10.00px"/>
<text data-id="14" x="746.86" y="-523.06">R14</text>
<circle data-id="15" cx="770.70" cy="-870.06" r="10.00px"/>
<text data-id="15" x="770.70" y="-870.06">R15</text>
<circle data-id="16" cx="742.92" cy="-615.94" r="10.00px"/>
<text data-id="16" x="742.92" y="-615.94">R16</text>
<circle data-id="17" cx="155.03" cy="-164.50" r="10.00px"/>
<text data-id="17" x="155.03" y="-164.50">R17</text>
<circle data-id="18" cx="291.82" cy="-359.22" r="10.00px"/>
<text data-id="18" x="291.82" y="-359.22">R18</text>
<circle data-id="19" cx="256.78" cy="-885.00" r="10.00px"/>
<text data-id="19" x="256.78" y="-885.00">R19</text>
<circle data-id="20" cx="767.58" cy="-484.02" r="10.00px"/>
<text data-id="20" x="767.58" y="-484.02">R20</text>
<circle data-id="21" cx="762.21" cy="-707.11" r="10.00px"/>
<text data-id="21" x="762.21" y="-707.11">R21</text>
<circle data-id="22" cx="346.70" cy="-731.62" r="10.00px"/>
<text data-id="22" x="346.70" y="-731.62">R22</text>
<circle data-id="23" cx="49.82" cy="-698.55" r="10.00px"/>
<text data-id="23" x="49.82" y="-698.55">R23</text>
<circle data-id="24" cx="689.54" cy="-450.42" r="10.00px"/>
<text data-id="24" x="689.54" y="-450.42">R24</text>
<circle data-id="25" cx="490.15" cy="-890.72" r="10.00px"/>
<text data-id="25" x="490.15" y="-890.72">R25</text>
<circle data-id="26" cx="283.88" cy="-103.71" r="10.00px"/>
<text data-id="26" x="283.88" y="-103.71">R26</text>
<circle data-id="27" cx="815.09" cy="-600.33" r="10.00px"/>
<text data-id="27" x="815.09" y="-600.33">R27</text>
<circle data-id="28" cx="102.16" cy="-474.65" r="10.00px"/>
<text data-id="28" x="102.16" y="-474.65">R28</text>
<circle data-id="29" cx="204.38" cy="-341.38" r="10.00px"/>
<text data-id="29" x="204.38" y="-341.38">R29</text>
<circle data-id="30" cx="477.80" cy="-452.96" r="10.00px"/>
<text data-id="30" x="477.80" y="-452.96">R30</text>
<circle data-id="31" cx="847.36" cy="-451.38" r="10.00px"/>
<text data-id="31" x="847.36" y="-451.38">R31</text>
<circle data-id="32" cx="709.56" cy="-309.18" r="10.00px"/>
<text data-id="32" x="709.56" y="-309.18">R32</text>
<circle data-id="33" cx="312.27" cy="-775.20" r="10.00px"/>
<text data-id="33" x="312.27" y="-775.20">R33</text>
<circle data-id="34" cx="313.98" cy="-503.67" r="10.00px"/>
<text data-id="34" x="313.98" y="-503.67">R34</text>
<circle data-id="35" cx="43.97" cy="-374.16" r="10.00px"/>
<text data-id="35" x="43.97" y="-374.16">R35</text>
<circle data-id="36" cx="311.21" cy="-161.09" r="10.00px"/>
<text data-id="36" x="311.21" y="-161.09">R36</text>
<circle data-id="37" cx="337.48" cy="-197.29" r="10.00px"/>
<text data-id="37" x="337.48" y="-197.29">R37</text>
<circle data-id="38" cx="494.24" cy="-665.30" r="10.00px"/>
<text data-id="38" x="494.24" y="-665.30">R38</text>
<circle data-id="39" cx="398.76" cy="-743.52" r="10.00px"/>
<text data-id="39" x="398.76" y="-743.52">R39</text>
<circle data-id="40" cx="140.83" cy="-667.04" r="10.00px"/>
<text data-id="40" x="140.83" y="-667.04">R40</text>
<circle data-id="41" cx="704.40" cy="-798.97" r="10.00px"/>
<text data-id="41" x="704.40" y="-798.97">R41</text>
<circle data-id="42" cx="834.49" cy="-889.79" r="10.00px"/>
<text data-id="42" x="834.49" y="-889.79">R42</text>
<circle data-id="43" cx="681.47" cy="-46.29" r="10.00px"/>
<text data-id="43" x="681.47" y="-46.29">R43</text>
<circle data-id="44" cx="574.70" cy="-360.59" r="10.00px"/>
<text data-id="44" x="574.70" y="-360.59">R44</text>
<circle data-id="45" cx="812.45" cy="-227.06" r="10.00px"/>
<text data-id="45" x="812.45" y="-227.06">R45</text>
<circle data-id="46" cx="438.17" cy="-715.96" r="10.00px"/>
<text data-id="46" x="438.17" y="-715.96">R46</text>
<circle data-id="47" cx="382.52" cy="-281.04" r="10.00px"/>
<text data-id="47" x="382.52" y="-281.04">R47</text>
<circle data-id="48" cx="326.85" cy="-870.73" r="10.00px"/>
<text data-id="48" x="326.85" y="-870.73">R48</text>
<circle data-id="49" cx="283.21" cy="-522.99" r="10.00px"/>
<text data-id="49" x="283.21" y="-522.99">R49</text>
<circle data-id="50" cx="470.00" cy="-427.79" r="10.00px"/>
<text data-id="50" x="470.00" y="-427.79">R50</text>
<circle data-id="51" cx="404.54" cy="-434.29" r="10.00px"/>
<text data-id="51" x="404.54" y="-434.29">R51</text>
<circle data-id="52" cx="220.86" cy="-175.74" r="10.00px"/>
<text data-id="52" x="220.86" y="-175.74">R52</text>
<circle data-id="53" cx="48.14" cy="-437.07" r="10.00px"/>
<text data-id="53" x="48.14" y="-437.07">R53</text>
<circle data-id="54" cx="170.61" cy="-355.83" r="10.00px"/>
<text data-id="54" x="170.61" y="-355.83">R54</text>
<circle data-id="55" cx="234.88" cy="-10.56" r="10.00px"/>
<text data-id="55" x="234.88" y="-10.56">R55</text>
<circle data-id="56" cx="578.51" cy="-151.11" r="10.00px"/>
<text data-id="56" x="578.51" y="-151.11">R56</text>
<circle data-id="57" cx="832.85" cy="-93.75" r="10.00px"/>
<text data-id="57" x="832.85" y="-93.75">R57</text>
<circle data-id="58" cx="36.29" cy="-347.04" r="10.00px"/>
<text data-id="58" x="36.29" y="-347.04">R58</text>
<circle data-id="59" cx="168.00" cy="-283.58" r="10.00px"/>
<text data-id="59" x="168.00" y="-283.58">R59</text>
<circle data-id="60" cx="169.77" cy="-487.27" r="10.00px"/>
<text data-id="60" x="169.77" y="-487.27">R60</text>
<circle data-id="61" cx="828.59" cy="-292.23" r="10.00px"/>
<text data-id="61" x="828.59" y="-292.23">R61</text>
<circle data-id="62" cx="5.71" cy="-728.39" r="10.00px"/>
<text data-id="62" x="5.71" y="-728.39">R62</text>
<circle data-id="63" cx="720.19" cy="-145.41" r="10.00px"/>
<text data-id="63" x="720.19" y="-145.41">R63</text>
<circle data-id="64" cx="778.35" cy="-131.21" r="10.00px"/>
<text data-id="64" x="778.35" y="-131.21">R64</text>
<circle data-id="65" cx="389.35" cy="-565.53" r="10.00px"/>
<text data-id="65" x="389.35" y="-565.53">R65</text>
<circle data-id="66" cx="85.77" cy="-520.80" r="10.00px"/>
<text data-id="66" x="85.77" y="-520.80">R66</text>
<circle data-id="67" cx="785.07" cy="-517.08" r="10.00px"/>
<text data-id="67" x="785.07" y="-517.08">R67</text>
<circle data-id="68" cx="82.59" cy="-71.10" r="10.00px"/>
<text data-id="68" x="82.59" y="-71.10">R68</text>
<circle data-id="69" cx="839.50" cy="-631.22" r="10.00px"/>
<text data-id="69" x="839.50" y="-631.22">R69</text>
<circle data-id="70" cx="650.77" cy="-542.13" r="10.00px"/>
<text data-id="70" x="650.77" y="-542.13">R70</text>
<circle data-id="71" cx="208.82" cy="-408.18" r="10.00px"/>
<text data-id="71" x="208.82" y="-408.18">R71</text>
<circle data-id="72" cx="872.54" cy="-639.24" r="10.00px"/>
<text data-id="72" x="872.54" y="-639.24">R72</text>
<circle data-id="73" cx="364.14" cy="-200.61" r="10.00px"/>
<text data-id="73" x="364.14" y="-200.61">R73</text>
<circle data-id="74" cx="427.72" cy="-67.98" r="10.00px"/>
<text data-id="74" x="427.72" y="-67.98">R74</text>
<circle data-id="75" cx="111.35" cy="-862.61" r="10.00px"/>
<text data-id="75" x="111.35" y="-862.61">R75</text>
<circle data-id="76" cx="483.22" cy="-577.91" r="10.00px"/>
<text data-id="76" x="483.22" y="-577.91">R76</text>
<circle data-id="77" cx="51.78" cy="-239.96" r="10.00px"/>
<text data-id="77" x="51.78" y="-239.96">R77</text>
<circle data-id="78" cx="324.82" cy="-444.58" r="10.00px"/>
<text data-id="78" x="324.82" y="-444.58">R78</text>
<circle data-id="79" cx="5.43" cy="-652.94" r="10.00px"/>
<text data-id="79" x="5.43" y="-652.94">R79</text>
</svg>
