<svg id="topo" viewBox="-5.10 -51.45 13.45 9.17" xmlns="http://www.w3.org/2000/svg">
<style>#topo path {fill: none; stroke: grey; stroke-width: 0.0489px;} #topo circle {fill: lightblue; stroke: none; stroke-width: 0.3px; vector-effect: non-scaling-stroke; r: 0.0978px;} #topo text {fill: black; stroke: none; font-size: 0.1467px; font-family: sans-serif; text-anchor:middle; transform: translateY(0.3em);} #topo path.country {fill: lightgrey; stroke: black; stroke-width: 1px; vector-effect: non-scaling-stroke; visibility: visible;} #topo path.selection {fill: none; stroke: red; stroke-width: 1px; vector-effect: non-scaling-stroke; visibility: visible;} #topo path.utilization {visibility: hidden;}</style>
<path class="country" d="M 7.62,-47.59 L 7.49,-47.55 L 7.47,-47.51 L 7.42,-47.46 L 7.34,-47.43 L 7.27,-47.43 L 7.20,-47.43 L 7.17,-47.45 L 7.17,-47.47 L 7.14,-47.49 L 7.05,-47.49 L 6.97,-47.45 L 6.90,-47.39 L 6.92,-47.36 L 6.98,-47.35 L 7.00,-47.34 L 7.00,-47.32 L 6.98,-47.30 L 6.95,-47.27 L 6.82,-47.16 L 6.69,-47.06 L 6.67,-47.03 L 6.62,-47.00 L 6.46,-46.95 L 6.44,-46.93 L 6.43,-46.83 L 6.41,-46.76 L 6.29,-46.68 L 6.16,-46.61 L 6.13,-46.57 L 6.11,-46.52 L 6.07,-46.46 L 6.06,-46.43 L 6.12,-46.38 L 6.12,-46.34 L 6.10,-46.28 L 6.04,-46.24 L 5.97,-46.21 L 5.97,-46.15 L 6.01,-46.14 L 6.09,-46.15 L 6.20,-46.19 L 6.27,-46.25 L 6.23,-46.31 L 6.22,-46.32 L 6.23,-46.33 L 6.32,-46.39 L 6.43,-46.43 L 6.58,-46.44 L 6.76,-46.42 L 6.78,-46.41 L 6.77,-46.37 L 6.78,-46.31 L 6.82,-46.28 L 6.77,-46.17 L 6.81,-46.13 L 6.86,-46.09 L 6.90,-46.05 L 6.95,-46.02 L 7.00,-45.96 L 7.02,-45.93 L 6.94,-45.87 L 6.80,-45.81 L 6.79,-45.78 L 6.79,-45.74 L 6.81,-45.71 L 6.88,-45.67 L 6.96,-45.58 L 7.01,-45.50 L 7.13,-45.42 L 7.15,-45.40 L 7.15,-45.38 L 7.12,-45.35 L 7.08,-45.24 L 7.03,-45.22 L 6.98,-45.22 L 6.84,-45.14 L 6.78,-45.15 L 6.69,-45.14 L 6.63,-45.12 L 6.63,-45.07 L 6.69,-45.02 L 6.72,-44.97 L 6.74,-44.92 L 6.80,-44.88 L 6.89,-44.86 L 6.94,-44.86 L 6.97,-44.85 L 6.99,-44.83 L 7.03,-44.72 L 7.01,-44.69 L 6.96,-44.68 L 6.93,-44.63 L 6.88,-44.56 L 6.84,-44.51 L 6.88,-44.46 L 6.89,-44.43 L 6.87,-44.39 L 6.90,-44.34 L 6.97,-44.28 L 7.15,-44.20 L 7.32,-44.14 L 7.37,-44.13 L 7.60,-44.17 L 7.64,-44.16 L 7.67,-44.12 L 7.68,-44.08 L 7.65,-44.03 L 7.59,-43.97 L 7.52,-43.91 L 7.48,-43.86 L 7.49,-43.82 L 7.49,-43.77 L 7.44,-43.75 L 7.44,-43.76 L 7.41,-43.77 L 7.40,-43.77 L 7.38,-43.75 L 7.38,-43.73 L 7.26,-43.70 L 7.18,-43.66 L 6.86,-43.44 L 6.72,-43.37 L 6.69,-43.33 L 6.66,-43.26 L 6.57,-43.20 L 6.49,-43.17 L 6.31,-43.14 L 6.12,-43.07 L 6.03,-43.10 L 5.81,-43.10 L 5.67,-43.18 L 5.41,-43.23 L 5.32,-43.34 L 5.20,-43.35 L 5.12,-43.35 L 5.07,-43.37 L 5.06,-43.41 L 5.06,-43.44 L 4.98,-43.43 L 4.91,-43.43 L 4.87,-43.41 L 4.84,-43.39 L 4.81,-43.41 L 4.79,-43.40 L 4.79,-43.38 L 4.71,-43.37 L 4.63,-43.39 L 4.41,-43.45 L 4.38,-43.46 L 4.22,-43.48 L 4.16,-43.50 L 4.11,-43.56 L 4.08,-43.58 L 4.05,-43.59 L 3.91,-43.56 L 3.86,-43.52 L 3.78,-43.46 L 3.26,-43.19 L 3.16,-43.08 L 3.05,-42.92 L 3.04,-42.84 L 3.09,-42.59 L 3.20,-42.46 L 3.21,-42.43 L 3.15,-42.43 L 3.05,-42.45 L 2.97,-42.47 L 2.89,-42.46 L 2.82,-42.43 L 2.75,-42.41 L 2.70,-42.41 L 2.67,-42.39 L 2.65,-42.36 L 2.65,-42.34 L 2.57,-42.35 L 2.37,-42.39 L 2.20,-42.42 L 2.10,-42.39 L 2.03,-42.35 L 1.99,-42.36 L 1.95,-42.39 L 1.93,-42.43 L 1.86,-42.46 L 1.71,-42.50 L 1.71,-42.53 L 1.74,-42.56 L 1.74,-42.58 L 1.71,-42.60 L 1.57,-42.64 L 1.50,-42.64 L 1.46,-42.62 L 1.43,-42.60 L 1.35,-42.69 L 1.29,-42.71 L 1.21,-42.71 L 1.11,-42.74 L 1.01,-42.78 L 0.76,-42.84 L 0.70,-42.85 L 0.67,-42.84 L 0.65,-42.80 L 0.64,-42.70 L 0.63,-42.69 L 0.52,-42.69 L 0.38,-42.70 L 0.31,-42.69 L 0.26,-42.69 L 0.20,-42.72 L -0.04,-42.69 L -0.08,-42.70 L -0.14,-42.75 L -0.21,-42.79 L -0.26,-42.80 L -0.30,-42.83 L -0.34,-42.83 L -0.40,-42.81 L -0.48,-42.80 L -0.55,-42.80 L -0.59,-42.80 L -0.74,-42.91 L -0.76,-42.94 L -0.84,-42.95 L -0.93,-42.95 L -1.18,-43.02 L -1.29,-43.06 L -1.30,-43.08 L -1.30,-43.10 L -1.32,-43.10 L -1.35,-43.06 L -1.37,-43.04 L -1.39,-43.03 L -1.43,-43.04 L -1.46,-43.05 L -1.48,-43.07 L -1.46,-43.10 L -1.42,-43.15 L -1.41,-43.20 L -1.41,-43.24 L -1.47,-43.27 L -1.56,-43.28 L -1.63,-43.28 L -1.71,-43.31 L -1.75,-43.32 L -1.79,-43.37 L -1.79,-43.41 L -1.63,-43.44 L -1.48,-43.56 L -1.35,-44.02 L -1.25,-44.56 L -1.17,-44.66 L -1.08,-44.69 L -1.15,-44.76 L -1.20,-44.73 L -1.22,-44.69 L -1.25,-44.67 L -1.19,-45.16 L -1.15,-45.34 L -1.08,-45.53 L -0.94,-45.46 L -0.83,-45.38 L -0.77,-45.31 L -0.69,-45.09 L -0.63,-45.05 L -0.55,-45.00 L -0.58,-45.05 L -0.64,-45.09 L -0.73,-45.38 L -0.79,-45.47 L -0.88,-45.54 L -1.17,-45.69 L -1.20,-45.71 L -1.21,-45.77 L -1.11,-45.77 L -1.03,-45.74 L -1.04,-45.77 L -1.07,-45.81 L -1.10,-45.93 L -1.14,-46.20 L -1.13,-46.25 L -1.15,-46.31 L -1.24,-46.32 L -1.31,-46.33 L -1.39,-46.35 L -1.79,-46.51 L -1.92,-46.68 L -2.06,-46.81 L -2.09,-46.87 L -2.09,-46.92 L -2.02,-47.04 L -2.08,-47.11 L -2.14,-47.13 L -2.20,-47.16 L -2.15,-47.22 L -2.11,-47.26 L -2.03,-47.27 L -1.92,-47.26 L -1.82,-47.23 L -1.74,-47.22 L -1.98,-47.31 L -2.35,-47.28 L -2.43,-47.29 L -2.50,-47.31 L -2.53,-47.38 L -2.48,-47.41 L -2.43,-47.47 L -2.48,-47.51 L -2.55,-47.53 L -2.67,-47.53 L -2.77,-47.51 L -2.80,-47.54 L -2.73,-47.60 L -2.79,-47.63 L -2.86,-47.61 L -2.96,-47.60 L -3.06,-47.62 L -3.16,-47.69 L -3.22,-47.69 L -3.26,-47.69 L -3.33,-47.71 L -3.40,-47.72 L -3.44,-47.71 L -3.51,-47.75 L -3.90,-47.84 L -4.07,-47.85 L -4.23,-47.81 L -4.31,-47.82 L -4.38,-47.88 L -4.43,-47.97 L -4.68,-48.04 L -4.63,-48.09 L -4.51,-48.10 L -4.38,-48.13 L -4.33,-48.17 L -4.43,-48.22 L -4.51,-48.23 L -4.54,-48.25 L -4.58,-48.29 L -4.53,-48.31 L -4.50,-48.30 L -4.40,-48.29 L -4.24,-48.30 L -4.30,-48.35 L -4.36,-48.36 L -4.39,-48.37 L -4.52,-48.37 L -4.58,-48.36 L -4.72,-48.36 L -4.75,-48.41 L -4.76,-48.45 L -4.72,-48.54 L -4.53,-48.62 L -4.06,-48.71 L -3.86,-48.69 L -3.71,-48.71 L -3.55,-48.77 L -3.47,-48.81 L -3.23,-48.84 L -3.00,-48.79 L -2.79,-48.60 L -2.69,-48.54 L -2.45,-48.65 L -2.08,-48.65 L -2.00,-48.58 L -1.97,-48.64 L -1.91,-48.70 L -1.85,-48.67 L -1.82,-48.63 L -1.44,-48.64 L -1.38,-48.65 L -1.48,-48.70 L -1.57,-48.81 L -1.58,-49.20 L -1.69,-49.31 L -1.81,-49.49 L -1.87,-49.60 L -1.88,-49.63 L -1.86,-49.68 L -1.71,-49.68 L -1.59,-49.67 L -1.37,-49.71 L -1.26,-49.68 L -1.26,-49.60 L -1.23,-49.49 L -1.19,-49.44 L -1.14,-49.39 L -0.96,-49.39 L -0.77,-49.36 L -0.52,-49.35 L -0.16,-49.30 L -0.01,-49.33 L 0.14,-49.40 L 0.42,-49.45 L 0.44,-49.47 L 0.28,-49.46 L 0.13,-49.51 L 0.11,-49.56 L 0.13,-49.60 L 0.19,-49.70 L 0.62,-49.86 L 0.92,-49.91 L 1.25,-50.00 L 1.41,-50.09 L 1.51,-50.21 L 1.55,-50.23 L 1.59,-50.25 L 1.55,-50.29 L 1.58,-50.74 L 1.61,-50.82 L 1.67,-50.89 L 1.77,-50.94 L 1.91,-50.99 L 2.45,-51.07 L 2.52,-51.10 L 2.54,-51.05 L 2.57,-50.99 L 2.60,-50.96 L 2.58,-50.91 L 2.60,-50.88 L 2.67,-50.81 L 2.76,-50.75 L 2.84,-50.71 L 2.86,-50.72 L 2.92,-50.73 L 3.02,-50.77 L 3.11,-50.78 L 3.15,-50.75 L 3.18,-50.73 L 3.23,-50.66 L 3.25,-50.59 L 3.27,-50.53 L 3.32,-50.51 L 3.48,-50.50 L 3.60,-50.48 L 3.63,-50.46 L 3.67,-50.32 L 3.69,-50.31 L 3.72,-50.32 L 3.75,-50.34 L 3.79,-50.35 L 3.86,-50.34 L 3.95,-50.34 L 4.04,-50.32 L 4.17,-50.25 L 4.17,-50.22 L 4.14,-50.18 L 4.14,-50.14 L 4.16,-50.13 L 4.19,-50.09 L 4.18,-50.05 L 4.15,-50.02 L 4.14,-50.00 L 4.14,-49.98 L 4.15,-49.97 L 4.18,-49.96 L 4.37,-49.94 L 4.55,-49.96 L 4.66,-50.00 L 4.68,-50.05 L 4.71,-50.10 L 4.77,-50.14 L 4.82,-50.15 L 4.86,-50.14 L 4.79,-49.96 L 4.84,-49.91 L 4.85,-49.85 L 4.87,-49.79 L 4.93,-49.79 L 5.01,-49.78 L 5.06,-49.76 L 5.12,-49.72 L 5.22,-49.69 L 5.28,-49.68 L 5.30,-49.65 L 5.35,-49.62 L 5.43,-49.55 L 5.51,-49.51 L 5.54,-49.51 L 5.61,-49.53 L 5.71,-49.54 L 5.79,-49.54 L 5.82,-49.51 L 5.90,-49.49 L 5.93,-49.48 L 5.96,-49.45 L 6.01,-49.45 L 6.07,-49.45 L 6.12,-49.49 L 6.18,-49.50 L 6.24,-49.49 L 6.28,-49.48 L 6.34,-49.45 L 6.38,-49.46 L 6.46,-49.44 L 6.53,-49.39 L 6.57,-49.35 L 6.57,-49.32 L 6.61,-49.29 L 6.74,-49.16 L 6.78,-49.15 L 6.82,-49.17 L 6.85,-49.20 L 6.89,-49.21 L 6.96,-49.19 L 7.00,-49.18 L 7.02,-49.12 L 7.04,-49.11 L 7.07,-49.12 L 7.12,-49.13 L 7.20,-49.11 L 7.31,-49.13 L 7.40,-49.15 L 7.45,-49.15 L 7.53,-49.09 L 7.61,-49.06 L 7.80,-49.04 L 8.00,-49.01 L 8.08,-48.99 L 8.13,-48.97 L 8.14,-48.89 L 8.12,-48.87 L 7.92,-48.70 L 7.84,-48.64 L 7.79,-48.55 L 7.77,-48.41 L 7.71,-48.28 L 7.62,-48.16 L 7.58,-48.06 L 7.61,-48.00 L 7.59,-47.91 L 7.54,-47.77 L 7.53,-47.67 L 7.57,-47.61 L 7.62,-47.59 Z"/>
<path data-id="97180678-56121" d="M3.63,-49.56,2.41,-48.83"/>
<path data-id="68253208-56121" d="M5.49,-47.09,2.41,-48.83"/>
<path data-id="97180700-56121" d="M-0.03,-48.42,2.41,-48.83"/>
<path data-id="97180709-56121" d="M2.63,-47.70,2.41,-48.83"/>
<path data-id="97180713-56121" d="M4.85,-46.78,2.41,-48.83"/>
<path data-id="38215211-85532734" d="M1.77,-49.36,1.58,-48.69"/>
<path data-id="38215211-3425416" d="M1.77,-49.36,-0.58,-44.84"/>
<path data-id="38215211-3680415" d="M1.77,-49.36,4.85,-45.75"/>
<path data-id="38215211-56121" d="M1.77,-49.36,2.41,-48.83"/>
<path data-id="97180719-56121" d="M3.16,-46.99,2.41,-48.83"/>
<path data-id="38215728-3463762" d="M4.81,-50.10,6.15,-49.12"/>
<path data-id="38215728-7148255" d="M4.81,-50.10,2.30,-49.90"/>
<path data-id="38215728-56121" d="M4.81,-50.10,2.41,-48.83"/>
<path data-id="85532721-56121" d="M5.79,-43.83,2.41,-48.83"/>
<path data-id="97180723-56121" d="M5.17,-48.77,2.41,-48.83"/>
<path data-id="61236794-7389246" d="M1.25,-47.33,-1.65,-47.21"/>
<path data-id="61236794-56121" d="M1.25,-47.33,2.41,-48.83"/>
<path data-id="85532731-3677490" d="M2.17,-44.83,1.45,-43.60"/>
<path data-id="85532731-56121" d="M2.17,-44.83,2.41,-48.83"/>
<path data-id="7389246-85532940" d="M-1.65,-47.21,3.21,-43.34"/>
<path data-id="7389246-67187091" d="M-1.65,-47.21,4.36,-44.67"/>
<path data-id="7389246-85532952" d="M-1.65,-47.21,4.88,-44.93"/>
<path data-id="7389246-85532957" d="M-1.65,-47.21,6.46,-43.53"/>
<path data-id="7389246-62578860" d="M-1.65,-47.21,-3.24,-47.76"/>
<path data-id="7389246-82336045" d="M-1.65,-47.21,-0.36,-43.32"/>
<path data-id="7389246-85532979" d="M-1.65,-47.21,2.87,-43.26"/>
<path data-id="7389246-85532985" d="M-1.65,-47.21,3.90,-47.48"/>
<path data-id="7389246-85532998" d="M-1.65,-47.21,0.69,-43.82"/>
<path data-id="7389246-38215496" d="M-1.65,-47.21,5.93,-43.13"/>
<path data-id="7389246-85533005" d="M-1.65,-47.21,-0.98,-44.64"/>
<path data-id="7389246-82335955" d="M-1.65,-47.21,-1.30,-48.62"/>
<path data-id="7389246-82335956" d="M-1.65,-47.21,-1.18,-49.11"/>
<path data-id="7389246-85532768" d="M-1.65,-47.21,-1.47,-43.50"/>
<path data-id="7389246-63849965" d="M-1.65,-47.21,-2.04,-48.46"/>
<path data-id="7389246-3463784" d="M-1.65,-47.21,6.15,-45.92"/>
<path data-id="7389246-3425416" d="M-1.65,-47.21,-0.58,-44.84"/>
<path data-id="7389246-3680415" d="M-1.65,-47.21,4.85,-45.75"/>
<path data-id="7389246-3680416" d="M-1.65,-47.21,6.05,-45.38"/>
<path data-id="7389246-3678918" d="M-1.65,-47.21,5.39,-43.30"/>
<path data-id="7389246-3677490" d="M-1.65,-47.21,1.45,-43.60"/>
<path data-id="7389246-56121" d="M-1.65,-47.21,2.41,-48.83"/>
<path data-id="97180738-56121" d="M6.31,-46.81,2.41,-48.83"/>
<path data-id="3676742-8500898" d="M2.37,-51.03,3.42,-47.80"/>
<path data-id="3676742-3398235" d="M2.37,-51.03,3.05,-50.62"/>
<path data-id="3676742-56121" d="M2.37,-51.03,2.41,-48.83"/>
<path data-id="97180744-56121" d="M1.69,-46.82,2.41,-48.83"/>
<path data-id="3463762-3680416" d="M6.15,-49.12,6.05,-45.38"/>
<path data-id="3463762-39196129" d="M6.15,-49.12,6.20,-48.65"/>
<path data-id="3463762-83004803" d="M6.15,-49.12,4.03,-46.41"/>
<path data-id="3463762-38186692" d="M6.15,-49.12,1.10,-49.44"/>
<path data-id="3463762-38184137" d="M6.15,-49.12,7.74,-48.59"/>
<path data-id="3463762-85035118" d="M6.15,-49.12,5.89,-48.19"/>
<path data-id="3463762-38969327" d="M6.15,-49.12,4.03,-49.26"/>
<path data-id="3463762-3425416" d="M6.15,-49.12,-0.58,-44.84"/>
<path data-id="3463762-3425485" d="M6.15,-49.12,4.96,-47.22"/>
<path data-id="3463762-56121" d="M6.15,-49.12,2.41,-48.83"/>
<path data-id="97180754-56121" d="M-4.48,-48.39,2.41,-48.83"/>
<path data-id="97265236-56121" d="M1.49,-48.45,2.41,-48.83"/>
<path data-id="82335834-56121" d="M7.37,-48.74,2.41,-48.83"/>
<path data-id="3398235-3680416" d="M3.05,-50.62,6.05,-45.38"/>
<path data-id="3398235-8500898" d="M3.05,-50.62,3.42,-47.80"/>
<path data-id="3398235-83004803" d="M3.05,-50.62,4.03,-46.41"/>
<path data-id="3398235-3678918" d="M3.05,-50.62,5.39,-43.30"/>
<path data-id="3398235-3425416" d="M3.05,-50.62,-0.58,-44.84"/>
<path data-id="3398235-3677490" d="M3.05,-50.62,1.45,-43.60"/>
<path data-id="3398235-7148255" d="M3.05,-50.62,2.30,-49.90"/>
<path data-id="3398235-56121" d="M3.05,-50.62,2.41,-48.83"/>
<path data-id="97180764-56121" d="M-0.96,-44.33,2.41,-48.83"/>
<path data-id="85532768-38215573" d="M-1.47,-43.50,-0.40,-46.24"/>
<path data-id="97180769-56121" d="M-0.50,-43.83,2.41,-48.83"/>
<path data-id="97180771-56121" d="M2.36,-43.21,2.41,-48.83"/>
<path data-id="3463784-38086828" d="M6.15,-45.92,5.72,-45.18"/>
<path data-id="3463784-3680415" d="M6.15,-45.92,4.85,-45.75"/>
<path data-id="3463784-3425416" d="M6.15,-45.92,-0.58,-44.84"/>
<path data-id="3463784-56121" d="M6.15,-45.92,2.41,-48.83"/>
<path data-id="3398253-85035193" d="M7.26,-43.70,4.33,-45.42"/>
<path data-id="3398253-3678918" d="M7.26,-43.70,5.39,-43.30"/>
<path data-id="3398253-38185222" d="M7.26,-43.70,6.08,-44.56"/>
<path data-id="3398253-38215496" d="M7.26,-43.70,5.93,-43.13"/>
<path data-id="3398253-85035699" d="M7.26,-43.70,-0.36,-49.18"/>
<path data-id="3398253-82335928" d="M7.26,-43.70,5.99,-44.07"/>
<path data-id="3398253-38185852" d="M7.26,-43.70,3.88,-43.61"/>
<path data-id="3398253-3680415" d="M7.26,-43.70,4.85,-45.75"/>
<path data-id="3398253-56121" d="M7.26,-43.70,2.41,-48.83"/>
<path data-id="85035118-3425416" d="M5.89,-48.19,-0.58,-44.84"/>
<path data-id="85035118-8500898" d="M5.89,-48.19,3.42,-47.80"/>
<path data-id="85035118-3677490" d="M5.89,-48.19,1.45,-43.60"/>
<path data-id="85035118-56121" d="M5.89,-48.19,2.41,-48.83"/>
<path data-id="97180790-56121" d="M-3.41,-48.80,2.41,-48.83"/>
<path data-id="97180794-56121" d="M4.33,-47.48,2.41,-48.83"/>
<path data-id="97180795-56121" d="M-0.80,-46.46,2.41,-48.83"/>
<path data-id="3425416-83004803" d="M-0.58,-44.84,4.03,-46.41"/>
<path data-id="3425416-39196036" d="M-0.58,-44.84,6.79,-47.51"/>
<path data-id="3425416-3747206" d="M-0.58,-44.84,0.72,-45.18"/>
<path data-id="3425416-38184724" d="M-0.58,-44.84,0.90,-45.90"/>
<path data-id="3425416-83004821" d="M-0.58,-44.84,4.52,-43.75"/>
<path data-id="3425416-38215573" d="M-0.58,-44.84,-0.40,-46.24"/>
<path data-id="3425416-38086812" d="M-0.58,-44.84,5.55,-46.07"/>
<path data-id="3425416-3680415" d="M-0.58,-44.84,4.85,-45.75"/>
<path data-id="3425416-3680416" d="M-0.58,-44.84,6.05,-45.38"/>
<path data-id="3425416-8500898" d="M-0.58,-44.84,3.42,-47.80"/>
<path data-id="3425416-38086828" d="M-0.58,-44.84,5.72,-45.18"/>
<path data-id="3425416-3677490" d="M-0.58,-44.84,1.45,-43.60"/>
<path data-id="3425416-85035699" d="M-0.58,-44.84,-0.36,-49.18"/>
<path data-id="3425416-38186692" d="M-0.58,-44.84,1.10,-49.44"/>
<path data-id="3425416-3678918" d="M-0.58,-44.84,5.39,-43.30"/>
<path data-id="3425416-38215496" d="M-0.58,-44.84,5.93,-43.13"/>
<path data-id="3425416-38184137" d="M-0.58,-44.84,7.74,-48.59"/>
<path data-id="3425416-3425485" d="M-0.58,-44.84,4.96,-47.22"/>
<path data-id="3425416-82335951" d="M-0.58,-44.84,-1.88,-46.84"/>
<path data-id="3425416-38056912" d="M-0.58,-44.84,-0.33,-47.84"/>
<path data-id="3425416-7148255" d="M-0.58,-44.84,2.30,-49.90"/>
<path data-id="3425416-39196129" d="M-0.58,-44.84,6.20,-48.65"/>
<path data-id="3425416-85035236" d="M-0.58,-44.84,4.92,-44.23"/>
<path data-id="3425416-38969327" d="M-0.58,-44.84,4.03,-49.26"/>
<path data-id="3425416-7431406" d="M-0.58,-44.84,1.32,-44.64"/>
<path data-id="3425416-39252858" d="M-0.58,-44.84,2.89,-43.95"/>
<path data-id="3425416-38185852" d="M-0.58,-44.84,3.88,-43.61"/>
<path data-id="3425416-56121" d="M-0.58,-44.84,2.41,-48.83"/>
<path data-id="3425425-38184137" d="M6.45,-48.18,7.74,-48.59"/>
<path data-id="3425425-56121" d="M6.45,-48.18,2.41,-48.83"/>
<path data-id="38086812-38941889" d="M5.55,-46.07,6.87,-45.92"/>
<path data-id="38086812-56121" d="M5.55,-46.07,2.41,-48.83"/>
<path data-id="3680415-3680416" d="M4.85,-45.75,6.05,-45.38"/>
<path data-id="3680415-38941889" d="M4.85,-45.75,6.87,-45.92"/>
<path data-id="3680415-8500898" d="M4.85,-45.75,3.42,-47.80"/>
<path data-id="3680415-83004803" d="M4.85,-45.75,4.03,-46.41"/>
<path data-id="3680415-38086828" d="M4.85,-45.75,5.72,-45.18"/>
<path data-id="3680415-3678918" d="M4.85,-45.75,5.39,-43.30"/>
<path data-id="3680415-56121" d="M4.85,-45.75,2.41,-48.83"/>
<path data-id="3680416-56121" d="M6.05,-45.38,2.41,-48.83"/>
<path data-id="8500898-38184137" d="M3.42,-47.80,7.74,-48.59"/>
<path data-id="8500898-39195923" d="M3.42,-47.80,6.63,-49.23"/>
<path data-id="8500898-3425485" d="M3.42,-47.80,4.96,-47.22"/>
<path data-id="8500898-56121" d="M3.42,-47.80,2.41,-48.83"/>
<path data-id="38086828-56121" d="M5.72,-45.18,2.41,-48.83"/>
<path data-id="82335918-56121" d="M3.49,-46.32,2.41,-48.83"/>
<path data-id="82335919-56121" d="M6.65,-45.58,2.41,-48.83"/>
<path data-id="85035699-56121" d="M-0.36,-49.18,2.41,-48.83"/>
<path data-id="82335924-56121" d="M2.76,-42.69,2.41,-48.83"/>
<path data-id="82335926-56121" d="M6.64,-44.90,2.41,-48.83"/>
<path data-id="82335928-56121" d="M5.99,-44.07,2.41,-48.83"/>
<path data-id="85035193-3677490" d="M4.33,-45.42,1.45,-43.60"/>
<path data-id="85035193-56121" d="M4.33,-45.42,2.41,-48.83"/>
<path data-id="82335931-56121" d="M4.56,-49.66,2.41,-48.83"/>
<path data-id="38941889-56121" d="M6.87,-45.92,2.41,-48.83"/>
<path data-id="82335938-56121" d="M0.26,-44.21,2.41,-48.83"/>
<path data-id="82335939-56121" d="M-1.14,-45.77,2.41,-48.83"/>
<path data-id="38186692-7148255" d="M1.10,-49.44,2.30,-49.90"/>
<path data-id="38186692-56121" d="M1.10,-49.44,2.41,-48.83"/>
<path data-id="82335940-56121" d="M-0.05,-45.60,2.41,-48.83"/>
<path data-id="3678918-38215496" d="M5.39,-43.30,5.93,-43.13"/>
<path data-id="3678918-38185852" d="M5.39,-43.30,3.88,-43.61"/>
<path data-id="3678918-3677490" d="M5.39,-43.30,1.45,-43.60"/>
<path data-id="3678918-56121" d="M5.39,-43.30,2.41,-48.83"/>
<path data-id="82335941-56121" d="M1.99,-43.76,2.41,-48.83"/>
<path data-id="38184137-38969327" d="M7.74,-48.59,4.03,-49.26"/>
<path data-id="38184137-39195923" d="M7.74,-48.59,6.63,-49.23"/>
<path data-id="38184137-39252858" d="M7.74,-48.59,2.89,-43.95"/>
<path data-id="38184137-3425485" d="M7.74,-48.59,4.96,-47.22"/>
<path data-id="38184137-7148255" d="M7.74,-48.59,2.30,-49.90"/>
<path data-id="38184137-56121" d="M7.74,-48.59,2.41,-48.83"/>
<path data-id="82335945-56121" d="M0.23,-44.79,2.41,-48.83"/>
<path data-id="82335946-56121" d="M1.14,-45.40,2.41,-48.83"/>
<path data-id="3425485-39196129" d="M4.96,-47.22,6.20,-48.65"/>
<path data-id="3425485-83004803" d="M4.96,-47.22,4.03,-46.41"/>
<path data-id="3425485-38215496" d="M4.96,-47.22,5.93,-43.13"/>
<path data-id="3425485-82335951" d="M4.96,-47.22,-1.88,-46.84"/>
<path data-id="3425485-39195856" d="M4.96,-47.22,6.75,-48.84"/>
<path data-id="3425485-38184724" d="M4.96,-47.22,0.90,-45.90"/>
<path data-id="3425485-56121" d="M4.96,-47.22,2.41,-48.83"/>
<path data-id="82335951-56121" d="M-1.88,-46.84,2.41,-48.83"/>
<path data-id="39195856-56121" d="M6.75,-48.84,2.41,-48.83"/>
<path data-id="82335954-56121" d="M-4.01,-47.89,2.41,-48.83"/>
<path data-id="82335955-56121" d="M-1.30,-48.62,2.41,-48.83"/>
<path data-id="82335956-56121" d="M-1.18,-49.11,2.41,-48.83"/>
<path data-id="82335958-56121" d="M0.16,-44.50,2.41,-48.83"/>
<path data-id="7148255-83004803" d="M2.30,-49.90,4.03,-46.41"/>
<path data-id="7148255-38215609" d="M2.30,-49.90,2.04,-50.57"/>
<path data-id="7148255-56121" d="M2.30,-49.90,2.41,-48.83"/>
<path data-id="7431406-38215626" d="M1.32,-44.64,3.00,-49.58"/>
<path data-id="7431406-38184724" d="M1.32,-44.64,0.90,-45.90"/>
<path data-id="7431406-3677490" d="M1.32,-44.64,1.45,-43.60"/>
<path data-id="7431406-56121" d="M1.32,-44.64,2.41,-48.83"/>
<path data-id="7431406-3747206" d="M1.32,-44.64,0.72,-45.18"/>
<path data-id="82335983-56121" d="M5.78,-46.90,2.41,-48.83"/>
<path data-id="82335992-56121" d="M0.97,-44.90,2.41,-48.83"/>
<path data-id="82336005-56121" d="M0.70,-47.40,2.41,-48.83"/>
<path data-id="82336006-56121" d="M-0.87,-47.69,2.41,-48.83"/>
<path data-id="82336008-56121" d="M-1.67,-48.11,2.41,-48.83"/>
<path data-id="85532940-56121" d="M3.21,-43.34,2.41,-48.83"/>
<path data-id="39195923-39196129" d="M6.63,-49.23,6.20,-48.65"/>
<path data-id="39195923-99876236" d="M6.63,-49.23,7.35,-48.08"/>
<path data-id="39195923-56121" d="M6.63,-49.23,2.41,-48.83"/>
<path data-id="38184724-3747206" d="M0.90,-45.90,0.72,-45.18"/>
<path data-id="85532952-56121" d="M4.88,-44.93,2.41,-48.83"/>
<path data-id="82336028-56121" d="M-2.79,-48.49,2.41,-48.83"/>
<path data-id="85532957-56121" d="M6.46,-43.53,2.41,-48.83"/>
<path data-id="82336037-56121" d="M2.77,-44.52,2.41,-48.83"/>
<path data-id="59182380-56121" d="M4.03,-45.88,2.41,-48.83"/>
<path data-id="82336045-56121" d="M-0.36,-43.32,2.41,-48.83"/>
<path data-id="3677490-83004803" d="M1.45,-43.60,4.03,-46.41"/>
<path data-id="3677490-3747206" d="M1.45,-43.60,0.72,-45.18"/>
<path data-id="3677490-38215573" d="M1.45,-43.60,-0.40,-46.24"/>
<path data-id="3677490-56121" d="M1.45,-43.60,2.41,-48.83"/>
<path data-id="71258933-56121" d="M1.91,-47.90,2.41,-48.83"/>
<path data-id="97163064-56121" d="M2.26,-43.60,2.41,-48.83"/>
<path data-id="56121-85532985" d="M2.41,-48.83,3.90,-47.48"/>
<path data-id="56121-97163066" d="M2.41,-48.83,3.88,-45.04"/>
<path data-id="56121-85037882" d="M2.41,-48.83,2.03,-44.35"/>
<path data-id="56121-38215496" d="M2.41,-48.83,5.93,-43.13"/>
<path data-id="56121-97163081" d="M2.41,-48.83,-0.47,-48.16"/>
<path data-id="56121-85037898" d="M2.41,-48.83,0.71,-48.82"/>
<path data-id="56121-97163097" d="M2.41,-48.83,1.25,-45.83"/>
<path data-id="56121-97163108" d="M2.41,-48.83,6.50,-44.56"/>
<path data-id="56121-38056810" d="M2.41,-48.83,1.15,-49.02"/>
<path data-id="56121-57701740" d="M2.41,-48.83,2.07,-47.22"/>
<path data-id="56121-39252858" d="M2.41,-48.83,2.89,-43.95"/>
<path data-id="56121-38185852" d="M2.41,-48.83,3.88,-43.61"/>
<path data-id="56121-97163139" d="M2.41,-48.83,4.36,-48.95"/>
<path data-id="56121-39196036" d="M2.41,-48.83,6.79,-47.51"/>
<path data-id="56121-82996612" d="M2.41,-48.83,-1.45,-46.67"/>
<path data-id="56121-83004803" d="M2.41,-48.83,4.03,-46.41"/>
<path data-id="56121-3747206" d="M2.41,-48.83,0.72,-45.18"/>
<path data-id="56121-97163146" d="M2.41,-48.83,3.33,-49.38"/>
<path data-id="56121-97163150" d="M2.41,-48.83,4.02,-49.69"/>
<path data-id="56121-97163151" d="M2.41,-48.83,5.22,-46.21"/>
<path data-id="56121-67187091" d="M2.41,-48.83,4.36,-44.67"/>
<path data-id="56121-38215573" d="M2.41,-48.83,-0.40,-46.24"/>
<path data-id="56121-83004821" d="M2.41,-48.83,4.52,-43.75"/>
<path data-id="56121-97163159" d="M2.41,-48.83,0.19,-48.00"/>
<path data-id="56121-97180577" d="M2.41,-48.83,-1.57,-49.64"/>
<path data-id="56121-63088565" d="M2.41,-48.83,1.77,-45.06"/>
<path data-id="56121-97180600" d="M2.41,-48.83,-0.88,-47.06"/>
<path data-id="56121-38215609" d="M2.41,-48.83,2.04,-50.57"/>
<path data-id="56121-39252922" d="M2.41,-48.83,0.54,-46.82"/>
<path data-id="56121-97180610" d="M2.41,-48.83,3.16,-45.70"/>
<path data-id="56121-38215626" d="M2.41,-48.83,3.00,-49.58"/>
<path data-id="56121-97180622" d="M2.41,-48.83,-0.50,-45.70"/>
<path data-id="56121-38056912" d="M2.41,-48.83,-0.33,-47.84"/>
<path data-id="56121-97180625" d="M2.41,-48.83,4.75,-44.56"/>
<path data-id="56121-39196129" d="M2.41,-48.83,6.20,-48.65"/>
<path data-id="56121-71130085" d="M2.41,-48.83,0.67,-45.53"/>
<path data-id="56121-63849965" d="M2.41,-48.83,-2.04,-48.46"/>
<path data-id="56121-38969327" d="M2.41,-48.83,4.03,-49.26"/>
<path data-id="56121-58273265" d="M2.41,-48.83,6.01,-47.49"/>
<path data-id="56121-38941688" d="M2.41,-48.83,2.54,-46.36"/>
<path data-id="39196036-39196129" d="M6.79,-47.51,6.20,-48.65"/>
<path data-id="3747206-38215626" d="M0.72,-45.18,3.00,-49.58"/>
<path data-id="38215609-38969327" d="M2.04,-50.57,4.03,-49.26"/>
<circle data-id="97180678" cx="3.63" cy="-49.56" r="0.10px"/>
<text data-id="97180678" x="3.63" y="-49.56">Laon</text>
<circle data-id="68253208" cx="5.49" cy="-47.09" r="0.10px"/>
<text data-id="68253208" x="5.49" y="-47.09">Dole</text>
<circle data-id="97180700" cx="-0.03" cy="-48.42" r="0.10px"/>
<text data-id="97180700" x="-0.03" y="-48.42">La Ferrière-Bochard</text>
<circle data-id="97180709" cx="2.63" cy="-47.70" r="0.10px"/>
<text data-id="97180709" x="2.63" y="-47.70">Gien</text>
<circle data-id="97180713" cx="4.85" cy="-46.78" r="0.10px"/>
<text data-id="97180713" x="4.85" y="-46.78">Chalon-sur-Saône</text>
<circle data-id="38215211" cx="1.77" cy="-49.36" r="0.10px"/>
<text data-id="38215211" x="1.77" y="-49.36">Sérifontaine</text>
<circle data-id="97180719" cx="3.16" cy="-46.99" r="0.10px"/>
<text data-id="97180719" x="3.16" y="-46.99">Nevers</text>
<circle data-id="38215728" cx="4.81" cy="-50.10" r="0.10px"/>
<text data-id="38215728" x="4.81" y="-50.10">Chooz</text>
<circle data-id="85532721" cx="5.79" cy="-43.83" r="0.10px"/>
<text data-id="85532721" x="5.79" y="-43.83">Manosque</text>
<circle data-id="97180723" cx="5.17" cy="-48.77" r="0.10px"/>
<text data-id="97180723" x="5.17" y="-48.77">Bar-le-Duc</text>
<circle data-id="61236794" cx="1.25" cy="-47.33" r="0.10px"/>
<text data-id="61236794" x="1.25" y="-47.33">Angé</text>
<circle data-id="85532731" cx="2.17" cy="-44.83" r="0.10px"/>
<text data-id="85532731" x="2.17" y="-44.83">Parlan</text>
<circle data-id="7389246" cx="-1.65" cy="-47.21" r="0.10px"/>
<text data-id="7389246" x="-1.65" y="-47.21">Saint-Herblain</text>
<circle data-id="85532734" cx="1.58" cy="-48.69" r="0.10px"/>
<text data-id="85532734" x="1.58" y="-48.69">Faverolles</text>
<circle data-id="97180738" cx="6.31" cy="-46.81" r="0.10px"/>
<text data-id="97180738" x="6.31" y="-46.81">Saint-Point-Lac</text>
<circle data-id="3676742" cx="2.37" cy="-51.03" r="0.10px"/>
<text data-id="3676742" x="2.37" y="-51.03">Dunkirk</text>
<circle data-id="97180744" cx="1.69" cy="-46.82" r="0.10px"/>
<text data-id="97180744" x="1.69" y="-46.82">Châteauroux</text>
<circle data-id="3463762" cx="6.15" cy="-49.12" r="0.10px"/>
<text data-id="3463762" x="6.15" y="-49.12">Metz</text>
<circle data-id="97180754" cx="-4.48" cy="-48.39" r="0.10px"/>
<text data-id="97180754" x="-4.48" y="-48.39">Brest</text>
<circle data-id="97265236" cx="1.49" cy="-48.45" r="0.10px"/>
<text data-id="97265236" x="1.49" y="-48.45">Chartres</text>
<circle data-id="82335834" cx="7.37" cy="-48.74" r="0.10px"/>
<text data-id="82335834" x="7.37" y="-48.74">Saverne</text>
<circle data-id="3398235" cx="3.05" cy="-50.62" r="0.10px"/>
<text data-id="3398235" x="3.05" y="-50.62">Lille</text>
<circle data-id="97180764" cx="-0.96" cy="-44.33" r="0.10px"/>
<text data-id="97180764" x="-0.96" y="-44.33">Ychoux</text>
<circle data-id="85532768" cx="-1.47" cy="-43.50" r="0.10px"/>
<text data-id="85532768" x="-1.47" y="-43.50">Bayonne</text>
<circle data-id="97180769" cx="-0.50" cy="-43.83" r="0.10px"/>
<text data-id="97180769" x="-0.50" y="-43.83">Benquet</text>
<circle data-id="97180771" cx="2.36" cy="-43.21" r="0.10px"/>
<text data-id="97180771" x="2.36" y="-43.21">Carcassonne</text>
<circle data-id="3463784" cx="6.15" cy="-45.92" r="0.10px"/>
<text data-id="3463784" x="6.15" y="-45.92">Annecy</text>
<circle data-id="3398253" cx="7.26" cy="-43.70" r="0.10px"/>
<text data-id="3398253" x="7.26" y="-43.70">Nice</text>
<circle data-id="85035118" cx="5.89" cy="-48.19" r="0.10px"/>
<text data-id="85035118" x="5.89" y="-48.19">Contrexéville</text>
<circle data-id="97180790" cx="-3.41" cy="-48.80" r="0.10px"/>
<text data-id="97180790" x="-3.41" y="-48.80">Louannec</text>
<circle data-id="97180794" cx="4.33" cy="-47.48" r="0.10px"/>
<text data-id="97180794" x="4.33" y="-47.48">Semur-en-Auxois</text>
<circle data-id="97180795" cx="-0.80" cy="-46.46" r="0.10px"/>
<text data-id="97180795" x="-0.80" y="-46.46">Fontenay-le-Comte</text>
<circle data-id="3425416" cx="-0.58" cy="-44.84" r="0.10px"/>
<text data-id="3425416" x="-0.58" y="-44.84">Bordeaux</text>
<circle data-id="3425425" cx="6.45" cy="-48.18" r="0.10px"/>
<text data-id="3425425" x="6.45" y="-48.18">Épinal</text>
<circle data-id="38086812" cx="5.55" cy="-46.07" r="0.10px"/>
<text data-id="38086812" x="5.55" y="-46.07">Outriaz</text>
<circle data-id="3680415" cx="4.85" cy="-45.75" r="0.10px"/>
<text data-id="3680415" x="4.85" y="-45.75">Lyon</text>
<circle data-id="3680416" cx="6.05" cy="-45.38" r="0.10px"/>
<text data-id="3680416" x="6.05" y="-45.38">Saint-Pierre-dAllevard</text>
<circle data-id="8500898" cx="3.42" cy="-47.80" r="0.10px"/>
<text data-id="8500898" x="3.42" y="-47.80">Lindry</text>
<circle data-id="38086828" cx="5.72" cy="-45.18" r="0.10px"/>
<text data-id="38086828" x="5.72" y="-45.18">Grenoble</text>
<circle data-id="62578860" cx="-3.24" cy="-47.76" r="0.10px"/>
<text data-id="62578860" x="-3.24" y="-47.76">Kervignac</text>
<circle data-id="82335918" cx="3.49" cy="-46.32" r="0.10px"/>
<text data-id="82335918" x="3.49" y="-46.32">Boucé</text>
<circle data-id="82335919" cx="6.65" cy="-45.58" r="0.10px"/>
<text data-id="82335919" x="6.65" y="-45.58">Granier</text>
<circle data-id="85035699" cx="-0.36" cy="-49.18" r="0.10px"/>
<text data-id="85035699" x="-0.36" y="-49.18">Caen</text>
<circle data-id="82335924" cx="2.76" cy="-42.69" r="0.10px"/>
<text data-id="82335924" x="2.76" y="-42.69">Pézilla-la-Rivière</text>
<circle data-id="82335926" cx="6.64" cy="-44.90" r="0.10px"/>
<text data-id="82335926" x="6.64" y="-44.90">Briançon</text>
<circle data-id="82335928" cx="5.99" cy="-44.07" r="0.10px"/>
<text data-id="82335928" x="5.99" y="-44.07">Saint-Auban</text>
<circle data-id="85035193" cx="4.33" cy="-45.42" r="0.10px"/>
<text data-id="85035193" x="4.33" y="-45.42">Roche-la-Molière</text>
<circle data-id="82335931" cx="4.56" cy="-49.66" r="0.10px"/>
<text data-id="82335931" x="4.56" y="-49.66">Jandun</text>
<circle data-id="38941889" cx="6.87" cy="-45.92" r="0.10px"/>
<text data-id="38941889" x="6.87" y="-45.92">Chamonix</text>
<circle data-id="82335938" cx="0.26" cy="-44.21" r="0.10px"/>
<text data-id="82335938" x="0.26" y="-44.21">Xaintrailles</text>
<circle data-id="82335939" cx="-1.14" cy="-45.77" r="0.10px"/>
<text data-id="82335939" x="-1.14" y="-45.77">La Tremblade</text>
<circle data-id="38186692" cx="1.10" cy="-49.44" r="0.10px"/>
<text data-id="38186692" x="1.10" y="-49.44">Rouen</text>
<circle data-id="82335940" cx="-0.05" cy="-45.60" r="0.10px"/>
<text data-id="82335940" x="-0.05" y="-45.60">Châteauneuf-sur-Charente</text>
<circle data-id="3678918" cx="5.39" cy="-43.30" r="0.10px"/>
<text data-id="3678918" x="5.39" y="-43.30">Marseille</text>
<circle data-id="82335941" cx="1.99" cy="-43.76" r="0.10px"/>
<text data-id="82335941" x="1.99" y="-43.76">Graulhet</text>
<circle data-id="38184137" cx="7.74" cy="-48.59" r="0.10px"/>
<text data-id="38184137" x="7.74" y="-48.59">Strasbourg</text>
<circle data-id="82335945" cx="0.23" cy="-44.79" r="0.10px"/>
<text data-id="82335945" x="0.23" y="-44.79">La Roquille</text>
<circle data-id="82335946" cx="1.14" cy="-45.40" r="0.10px"/>
<text data-id="82335946" x="1.14" y="-45.40">Lanouaille</text>
<circle data-id="3425485" cx="4.96" cy="-47.22" r="0.10px"/>
<text data-id="3425485" x="4.96" y="-47.22">Gevrey-Chambertin</text>
<circle data-id="82335951" cx="-1.88" cy="-46.84" r="0.10px"/>
<text data-id="82335951" x="-1.88" y="-46.84">Challans</text>
<circle data-id="39195856" cx="6.75" cy="-48.84" r="0.10px"/>
<text data-id="39195856" x="6.75" y="-48.84">Vergaville</text>
<circle data-id="82335954" cx="-4.01" cy="-47.89" r="0.10px"/>
<text data-id="82335954" x="-4.01" y="-47.89">Fouesnant</text>
<circle data-id="82335955" cx="-1.30" cy="-48.62" r="0.10px"/>
<text data-id="82335955" x="-1.30" y="-48.62">Ducey</text>
<circle data-id="82335956" cx="-1.18" cy="-49.11" r="0.10px"/>
<text data-id="82335956" x="-1.18" y="-49.11">Saint-Gilles</text>
<circle data-id="82335958" cx="0.16" cy="-44.50" r="0.10px"/>
<text data-id="82335958" x="0.16" y="-44.50">Marmande</text>
<circle data-id="7148255" cx="2.30" cy="-49.90" r="0.10px"/>
<text data-id="7148255" x="2.30" y="-49.90">Amiens</text>
<circle data-id="85035236" cx="4.92" cy="-44.23" r="0.10px"/>
<text data-id="85035236" x="4.92" y="-44.23">Cairanne</text>
<circle data-id="7431406" cx="1.32" cy="-44.64" r="0.10px"/>
<text data-id="7431406" x="1.32" y="-44.64">Lavercantière</text>
<circle data-id="82335983" cx="5.78" cy="-46.90" r="0.10px"/>
<text data-id="82335983" x="5.78" y="-46.90">Arbois</text>
<circle data-id="82335992" cx="0.97" cy="-44.90" r="0.10px"/>
<text data-id="82335992" x="0.97" y="-44.90">Campagne</text>
<circle data-id="82336005" cx="0.70" cy="-47.40" r="0.10px"/>
<text data-id="82336005" x="0.70" y="-47.40">Tours</text>
<circle data-id="82336006" cx="-0.87" cy="-47.69" r="0.10px"/>
<text data-id="82336006" x="-0.87" y="-47.69">Segré</text>
<circle data-id="38185222" cx="6.08" cy="-44.56" r="0.10px"/>
<text data-id="38185222" x="6.08" y="-44.56">Gap</text>
<circle data-id="82336008" cx="-1.67" cy="-48.11" r="0.10px"/>
<text data-id="82336008" x="-1.67" y="-48.11">Rennes</text>
<circle data-id="85532940" cx="3.21" cy="-43.34" r="0.10px"/>
<text data-id="85532940" x="3.21" y="-43.34">Béziers</text>
<circle data-id="39195923" cx="6.63" cy="-49.23" r="0.10px"/>
<text data-id="39195923" x="6.63" y="-49.23">Falck</text>
<circle data-id="38184724" cx="0.90" cy="-45.90" r="0.10px"/>
<text data-id="38184724" x="0.90" y="-45.90">Saint-Junien</text>
<circle data-id="85532952" cx="4.88" cy="-44.93" r="0.10px"/>
<text data-id="85532952" x="4.88" y="-44.93">Valence</text>
<circle data-id="82336028" cx="-2.79" cy="-48.49" r="0.10px"/>
<text data-id="82336028" x="-2.79" y="-48.49">Ploufragan</text>
<circle data-id="85532957" cx="6.46" cy="-43.53" r="0.10px"/>
<text data-id="85532957" x="6.46" y="-43.53">Draguignan</text>
<circle data-id="82336037" cx="2.77" cy="-44.52" r="0.10px"/>
<text data-id="82336037" x="2.77" y="-44.52">Espalion</text>
<circle data-id="59182380" cx="4.03" cy="-45.88" r="0.10px"/>
<text data-id="59182380" x="4.03" y="-45.88">Amions</text>
<circle data-id="82336045" cx="-0.36" cy="-43.32" r="0.10px"/>
<text data-id="82336045" x="-0.36" y="-43.32">Pau</text>
<circle data-id="3677490" cx="1.45" cy="-43.60" r="0.10px"/>
<text data-id="3677490" x="1.45" y="-43.60">Toulouse</text>
<circle data-id="85532979" cx="2.87" cy="-43.26" r="0.10px"/>
<text data-id="85532979" x="2.87" y="-43.26">Ginestas</text>
<circle data-id="71258933" cx="1.91" cy="-47.90" r="0.10px"/>
<text data-id="71258933" x="1.91" y="-47.90">Orléans</text>
<circle data-id="97163064" cx="2.26" cy="-43.60" r="0.10px"/>
<text data-id="97163064" x="2.26" y="-43.60">Castres</text>
<circle data-id="56121" cx="2.41" cy="-48.83" r="0.10px"/>
<text data-id="56121" x="2.41" y="-48.83">Paris</text>
<circle data-id="97163066" cx="3.88" cy="-45.04" r="0.10px"/>
<text data-id="97163066" x="3.88" y="-45.04">Le Puy-en-Velay</text>
<circle data-id="85532985" cx="3.90" cy="-47.48" r="0.10px"/>
<text data-id="85532985" x="3.90" y="-47.48">Avallon</text>
<circle data-id="85037882" cx="2.03" cy="-44.35" r="0.10px"/>
<text data-id="85037882" x="2.03" y="-44.35">Villefranche-de-Rouergue</text>
<circle data-id="85532998" cx="0.69" cy="-43.82" r="0.10px"/>
<text data-id="85532998" x="0.69" y="-43.82">Céran</text>
<circle data-id="38215496" cx="5.93" cy="-43.13" r="0.10px"/>
<text data-id="38215496" x="5.93" y="-43.13">Toulon</text>
<circle data-id="97163081" cx="-0.47" cy="-48.16" r="0.10px"/>
<text data-id="97163081" x="-0.47" y="-48.16">Neau</text>
<circle data-id="85037898" cx="0.71" cy="-48.82" r="0.10px"/>
<text data-id="85037898" x="0.71" y="-48.82">Rugles</text>
<circle data-id="85533005" cx="-0.98" cy="-44.64" r="0.10px"/>
<text data-id="85533005" x="-0.98" y="-44.64">Biganos</text>
<circle data-id="97163097" cx="1.25" cy="-45.83" r="0.10px"/>
<text data-id="97163097" x="1.25" y="-45.83">Limoges</text>
<circle data-id="97163108" cx="6.50" cy="-44.56" r="0.10px"/>
<text data-id="97163108" x="6.50" y="-44.56">Embrun</text>
<circle data-id="38056810" cx="1.15" cy="-49.02" r="0.10px"/>
<text data-id="38056810" x="1.15" y="-49.02">Évreux</text>
<circle data-id="57701740" cx="2.07" cy="-47.22" r="0.10px"/>
<text data-id="57701740" x="2.07" y="-47.22">Vierzon</text>
<circle data-id="39252858" cx="2.89" cy="-43.95" r="0.10px"/>
<text data-id="39252858" x="2.89" y="-43.95">Saint-Affrique</text>
<circle data-id="38185852" cx="3.88" cy="-43.61" r="0.10px"/>
<text data-id="38185852" x="3.88" y="-43.61">Montpellier</text>
<circle data-id="83004803" cx="4.03" cy="-46.41" r="0.10px"/>
<text data-id="83004803" x="4.03" y="-46.41">Saint-Yan</text>
<circle data-id="39196036" cx="6.79" cy="-47.51" r="0.10px"/>
<text data-id="39196036" x="6.79" y="-47.51">Montbéliard</text>
<circle data-id="97163139" cx="4.36" cy="-48.95" r="0.10px"/>
<text data-id="97163139" x="4.36" y="-48.95">Châlons-en-Champagne</text>
<circle data-id="3747206" cx="0.72" cy="-45.18" r="0.10px"/>
<text data-id="3747206" x="0.72" y="-45.18">Périgueux</text>
<circle data-id="82996612" cx="-1.45" cy="-46.67" r="0.10px"/>
<text data-id="82996612" x="-1.45" y="-46.67">La Roche-sur-Yon</text>
<circle data-id="97163146" cx="3.33" cy="-49.38" r="0.10px"/>
<text data-id="97163146" x="3.33" y="-49.38">Soissons</text>
<circle data-id="99876236" cx="7.35" cy="-48.08" r="0.10px"/>
<text data-id="99876236" x="7.35" y="-48.08">Colmar</text>
<circle data-id="97163150" cx="4.02" cy="-49.69" r="0.10px"/>
<text data-id="97163150" x="4.02" y="-49.69">Montcornet</text>
<circle data-id="97163151" cx="5.22" cy="-46.21" r="0.10px"/>
<text data-id="97163151" x="5.22" y="-46.21">Bourg-en-Bresse</text>
<circle data-id="67187091" cx="4.36" cy="-44.67" r="0.10px"/>
<text data-id="67187091" x="4.36" y="-44.67">Vals-les-Bains</text>
<circle data-id="38215573" cx="-0.40" cy="-46.24" r="0.10px"/>
<text data-id="38215573" x="-0.40" y="-46.24">Fors</text>
<circle data-id="83004821" cx="4.52" cy="-43.75" r="0.10px"/>
<text data-id="83004821" x="4.52" y="-43.75">Bellegarde</text>
<circle data-id="97163159" cx="0.19" cy="-48.00" r="0.10px"/>
<text data-id="97163159" x="0.19" y="-48.00">Le Mans</text>
<circle data-id="97180577" cx="-1.57" cy="-49.64" r="0.10px"/>
<text data-id="97180577" x="-1.57" y="-49.64">Tourlaville</text>
<circle data-id="63088565" cx="1.77" cy="-45.06" r="0.10px"/>
<text data-id="63088565" x="1.77" y="-45.06">Lostanges</text>
<circle data-id="97180600" cx="-0.88" cy="-47.06" r="0.10px"/>
<text data-id="97180600" x="-0.88" y="-47.06">Cholet</text>
<circle data-id="38215609" cx="2.04" cy="-50.57" r="0.10px"/>
<text data-id="38215609" x="2.04" y="-50.57">Verchocq</text>
<circle data-id="39252922" cx="0.54" cy="-46.82" r="0.10px"/>
<text data-id="39252922" x="0.54" y="-46.82">Châtellerault</text>
<circle data-id="97180610" cx="3.16" cy="-45.70" r="0.10px"/>
<text data-id="97180610" x="3.16" y="-45.70">Orcet</text>
<circle data-id="38215626" cx="3.00" cy="-49.58" r="0.10px"/>
<text data-id="38215626" x="3.00" y="-49.58">Noyon</text>
<circle data-id="97180622" cx="-0.50" cy="-45.70" r="0.10px"/>
<text data-id="97180622" x="-0.50" y="-45.70">Saint-Sever-de-Saintonge</text>
<circle data-id="38056912" cx="-0.33" cy="-47.84" r="0.10px"/>
<text data-id="38056912" x="-0.33" y="-47.84">Sablé-sur-Sarthe</text>
<circle data-id="97180625" cx="4.75" cy="-44.56" r="0.10px"/>
<text data-id="97180625" x="4.75" y="-44.56">Montélimar</text>
<circle data-id="39196129" cx="6.20" cy="-48.65" r="0.10px"/>
<text data-id="39196129" x="6.20" y="-48.65">Heillecourt</text>
<circle data-id="71130085" cx="0.67" cy="-45.53" r="0.10px"/>
<text data-id="71130085" x="0.67" y="-45.53">Nontron</text>
<circle data-id="63849965" cx="-2.04" cy="-48.46" r="0.10px"/>
<text data-id="63849965" x="-2.04" y="-48.46">Dinan</text>
<circle data-id="38969327" cx="4.03" cy="-49.26" r="0.10px"/>
<text data-id="38969327" x="4.03" y="-49.26">Reims</text>
<circle data-id="58273265" cx="6.01" cy="-47.49" r="0.10px"/>
<text data-id="58273265" x="6.01" y="-47.49">Maizières</text>
<circle data-id="38941688" cx="2.54" cy="-46.36" r="0.10px"/>
<text data-id="38941688" x="2.54" y="-46.36">Domérat</text>
</svg>
