<svg id="topo" viewBox="126.11 -38.45 3.44 5.23" xmlns="http://www.w3.org/2000/svg">
<style>#topo path {fill: none; stroke: grey; stroke-width: 0.0190px;} #topo circle {fill: lightblue; stroke: none; stroke-width: 0.3px; vector-effect: non-scaling-stroke; r: 0.0380px;} #topo text {fill: black; stroke: none; font-size: 0.0571px; font-family: sans-serif; text-anchor:middle; transform: translateY(0.3em);} #topo path.country {fill: lightgrey; stroke: black; stroke-width: 1px; vector-effect: non-scaling-stroke; visibility: visible;} #topo path.selection {fill: none; stroke: red; stroke-width: 1px; vector-effect: non-scaling-stroke; visibility: visible;} #topo path.utilization {visibility: hidden;}</style>
<path class="country" d="M 126.63,-37.78 L 126.66,-37.80 L 126.67,-37.83 L 126.67,-37.92 L 126.75,-37.98 L 126.88,-38.11 L 126.94,-38.18 L 127.01,-38.24 L 127.09,-38.28 L 127.17,-38.30 L 127.29,-38.31 L 127.53,-38.30 L 127.58,-38.31 L 127.75,-38.32 L 127.78,-38.31 L 127.91,-38.30 L 128.04,-38.31 L 128.11,-38.33 L 128.17,-38.36 L 128.22,-38.42 L 128.28,-38.52 L 128.34,-38.61 L 128.37,-38.62 L 128.62,-38.18 L 128.85,-37.89 L 129.05,-37.68 L 129.34,-37.27 L 129.42,-37.06 L 129.43,-36.93 L 129.47,-36.74 L 129.43,-36.64 L 129.45,-36.47 L 129.43,-36.39 L 129.39,-36.32 L 129.39,-36.20 L 129.40,-36.14 L 129.40,-36.05 L 129.43,-36.02 L 129.46,-36.01 L 129.51,-36.04 L 129.57,-36.05 L 129.56,-35.95 L 129.49,-35.69 L 129.42,-35.50 L 129.33,-35.33 L 129.21,-35.18 L 129.08,-35.12 L 128.98,-35.10 L 128.80,-35.09 L 128.64,-35.12 L 128.51,-35.10 L 128.46,-35.07 L 128.42,-35.02 L 128.45,-34.93 L 128.44,-34.87 L 128.39,-34.88 L 128.28,-34.91 L 128.15,-34.92 L 128.09,-34.93 L 128.04,-35.02 L 127.98,-35.02 L 127.87,-34.97 L 127.71,-34.95 L 127.66,-34.93 L 127.64,-34.89 L 127.66,-34.84 L 127.74,-34.78 L 127.72,-34.72 L 127.63,-34.69 L 127.57,-34.77 L 127.52,-34.84 L 127.48,-34.84 L 127.40,-34.82 L 127.39,-34.74 L 127.42,-34.69 L 127.48,-34.63 L 127.40,-34.55 L 127.38,-34.50 L 127.32,-34.46 L 127.17,-34.55 L 127.19,-34.61 L 127.26,-34.66 L 127.27,-34.72 L 127.25,-34.76 L 127.03,-34.61 L 126.90,-34.44 L 126.83,-34.45 L 126.80,-34.49 L 126.75,-34.51 L 126.61,-34.40 L 126.58,-34.32 L 126.53,-34.31 L 126.51,-34.35 L 126.51,-34.43 L 126.48,-34.49 L 126.33,-34.59 L 126.26,-34.67 L 126.30,-34.72 L 126.43,-34.69 L 126.52,-34.70 L 126.50,-34.74 L 126.47,-34.76 L 126.54,-34.78 L 126.59,-34.82 L 126.55,-34.84 L 126.48,-34.81 L 126.42,-34.82 L 126.40,-34.93 L 126.33,-35.05 L 126.29,-35.15 L 126.36,-35.22 L 126.40,-35.31 L 126.46,-35.46 L 126.49,-35.50 L 126.58,-35.53 L 126.61,-35.57 L 126.56,-35.59 L 126.49,-35.61 L 126.49,-35.65 L 126.54,-35.67 L 126.60,-35.71 L 126.72,-35.77 L 126.75,-35.87 L 126.72,-35.90 L 126.65,-35.92 L 126.66,-35.97 L 126.69,-36.01 L 126.68,-36.04 L 126.60,-36.11 L 126.54,-36.17 L 126.56,-36.24 L 126.54,-36.34 L 126.55,-36.43 L 126.55,-36.48 L 126.51,-36.59 L 126.49,-36.69 L 126.43,-36.68 L 126.39,-36.65 L 126.23,-36.69 L 126.18,-36.69 L 126.16,-36.77 L 126.22,-36.87 L 126.35,-36.96 L 126.43,-36.97 L 126.49,-37.01 L 126.58,-37.02 L 126.69,-36.96 L 126.78,-36.95 L 126.84,-36.85 L 126.87,-36.82 L 126.88,-36.86 L 126.96,-36.91 L 126.98,-36.94 L 126.96,-36.96 L 126.87,-36.98 L 126.79,-37.10 L 126.78,-37.16 L 126.75,-37.19 L 126.79,-37.29 L 126.70,-37.41 L 126.65,-37.45 L 126.66,-37.55 L 126.61,-37.62 L 126.58,-37.65 L 126.56,-37.72 L 126.58,-37.74 L 126.62,-37.76 L 126.63,-37.78 Z M 128.74,-34.80 L 128.65,-34.74 L 128.52,-34.82 L 128.49,-34.87 L 128.59,-34.93 L 128.67,-35.01 L 128.72,-35.01 L 128.74,-34.80 Z M 128.07,-34.81 L 128.05,-34.71 L 127.98,-34.70 L 127.94,-34.77 L 127.90,-34.74 L 127.87,-34.73 L 127.84,-34.81 L 127.83,-34.87 L 127.92,-34.92 L 127.97,-34.89 L 128.04,-34.88 L 128.07,-34.81 Z M 126.23,-34.37 L 126.17,-34.36 L 126.13,-34.39 L 126.11,-34.40 L 126.12,-34.44 L 126.23,-34.53 L 126.25,-34.56 L 126.34,-34.54 L 126.38,-34.50 L 126.34,-34.43 L 126.23,-34.37 Z M 126.52,-37.74 L 126.52,-37.60 L 126.46,-37.61 L 126.42,-37.62 L 126.41,-37.65 L 126.37,-37.77 L 126.41,-37.82 L 126.49,-37.78 L 126.52,-37.74 Z M 126.75,-34.34 L 126.77,-34.30 L 126.69,-34.31 L 126.65,-34.35 L 126.65,-34.39 L 126.70,-34.40 L 126.75,-34.34 Z M 127.80,-34.62 L 127.79,-34.58 L 127.74,-34.63 L 127.79,-34.68 L 127.80,-34.62 Z M 126.42,-36.49 L 126.40,-36.43 L 126.34,-36.47 L 126.32,-36.61 L 126.39,-36.57 L 126.42,-36.49 Z M 126.17,-34.73 L 126.16,-34.71 L 126.12,-34.71 L 126.07,-34.78 L 126.05,-34.84 L 126.01,-34.87 L 126.08,-34.91 L 126.17,-34.83 L 126.17,-34.73 Z M 130.92,-37.48 L 130.87,-37.45 L 130.82,-37.48 L 130.81,-37.51 L 130.84,-37.54 L 130.90,-37.55 L 130.93,-37.53 L 130.92,-37.48 Z M 126.33,-33.22 L 126.28,-33.20 L 126.24,-33.21 L 126.23,-33.23 L 126.18,-33.28 L 126.17,-33.31 L 126.20,-33.37 L 126.34,-33.46 L 126.70,-33.55 L 126.76,-33.55 L 126.90,-33.52 L 126.93,-33.44 L 126.91,-33.38 L 126.87,-33.34 L 126.71,-33.27 L 126.58,-33.24 L 126.33,-33.22 Z"/>
<path data-id="8394626-38431107" d="M128.60,-38.21,129.17,-37.46"/>
<path data-id="8394626-20466083" d="M128.60,-38.21,128.25,-37.75"/>
<path data-id="8394626-39163371" d="M128.60,-38.21,127.71,-38.11"/>
<path data-id="8394626-37596022" d="M128.60,-38.21,128.73,-37.39"/>
<path data-id="8394626-9187579" d="M128.60,-38.21,128.28,-38.04"/>
<path data-id="8394626-614416" d="M128.60,-38.21,128.60,-35.88"/>
<path data-id="8394626-4635542" d="M128.60,-38.21,128.21,-37.14"/>
<path data-id="8394626-17336" d="M128.60,-38.21,127.95,-37.35"/>
<path data-id="8394626-8809" d="M128.60,-38.21,127.12,-37.46"/>
<path data-id="8394626-23915" d="M128.60,-38.21,128.90,-37.75"/>
<path data-id="8394626-6918646" d="M128.60,-38.21,128.98,-37.17"/>
<path data-id="8394626-42106" d="M128.60,-38.21,128.57,-35.30"/>
<path data-id="38431107-4635542" d="M129.17,-37.46,128.21,-37.14"/>
<path data-id="38431107-20466083" d="M129.17,-37.46,128.25,-37.75"/>
<path data-id="38431107-17336" d="M129.17,-37.46,127.95,-37.35"/>
<path data-id="38431107-8809" d="M129.17,-37.46,127.12,-37.46"/>
<path data-id="38431107-23915" d="M129.17,-37.46,128.90,-37.75"/>
<path data-id="38431107-6918646" d="M129.17,-37.46,128.98,-37.17"/>
<path data-id="38431107-9187579" d="M129.17,-37.46,128.28,-38.04"/>
<path data-id="39142532-85894" d="M126.27,-34.48,127.62,-34.76"/>
<path data-id="39142532-1914721" d="M126.27,-34.48,127.00,-34.75"/>
<path data-id="39142532-16161509" d="M126.27,-34.48,127.91,-35.68"/>
<path data-id="39142532-8809" d="M126.27,-34.48,127.12,-37.46"/>
<path data-id="85894-1914721" d="M127.62,-34.76,127.00,-34.75"/>
<path data-id="85894-16161509" d="M127.62,-34.76,127.91,-35.68"/>
<path data-id="85894-614416" d="M127.62,-34.76,128.60,-35.88"/>
<path data-id="85894-9457273" d="M127.62,-34.76,126.73,-34.31"/>
<path data-id="85894-8809" d="M127.62,-34.76,127.12,-37.46"/>
<path data-id="85894-42106" d="M127.62,-34.76,128.57,-35.30"/>
<path data-id="8113162-5292943" d="M129.40,-36.99,129.37,-36.03"/>
<path data-id="8113162-614416" d="M129.40,-36.99,128.60,-35.88"/>
<path data-id="8113162-5400097" d="M129.40,-36.99,129.21,-35.84"/>
<path data-id="8113162-8809" d="M129.40,-36.99,127.12,-37.46"/>
<path data-id="8113162-42106" d="M129.40,-36.99,128.57,-35.30"/>
<path data-id="5292943-8398017" d="M129.37,-36.03,128.62,-34.88"/>
<path data-id="5292943-5400097" d="M129.37,-36.03,129.21,-35.84"/>
<path data-id="5292943-5292951" d="M129.37,-36.03,128.71,-36.57"/>
<path data-id="5292943-614416" d="M129.37,-36.03,128.60,-35.88"/>
<path data-id="5292943-1921070" d="M129.37,-36.03,129.36,-36.43"/>
<path data-id="5292943-8809" d="M129.37,-36.03,127.12,-37.46"/>
<path data-id="5292943-2153194" d="M129.37,-36.03,129.14,-36.70"/>
<path data-id="5292943-42106" d="M129.37,-36.03,128.57,-35.30"/>
<path data-id="614416-8398017" d="M128.60,-35.88,128.62,-34.88"/>
<path data-id="614416-5400097" d="M128.60,-35.88,129.21,-35.84"/>
<path data-id="614416-1914721" d="M128.60,-35.88,127.00,-34.75"/>
<path data-id="614416-16161509" d="M128.60,-35.88,127.91,-35.68"/>
<path data-id="614416-2153194" d="M128.60,-35.88,129.14,-36.70"/>
<path data-id="614416-1921070" d="M128.60,-35.88,129.36,-36.43"/>
<path data-id="614416-6918646" d="M128.60,-35.88,128.98,-37.17"/>
<path data-id="614416-5292951" d="M128.60,-35.88,128.71,-36.57"/>
<path data-id="614416-9187579" d="M128.60,-35.88,128.28,-38.04"/>
<path data-id="614416-17336" d="M128.60,-35.88,127.95,-37.35"/>
<path data-id="614416-613716" d="M128.60,-35.88,126.54,-33.45"/>
<path data-id="614416-8809" d="M128.60,-35.88,127.12,-37.46"/>
<path data-id="614416-42106" d="M128.60,-35.88,128.57,-35.30"/>
<path data-id="4635542-20466083" d="M128.21,-37.14,128.25,-37.75"/>
<path data-id="4635542-39163371" d="M128.21,-37.14,127.71,-38.11"/>
<path data-id="4635542-6918646" d="M128.21,-37.14,128.98,-37.17"/>
<path data-id="4635542-37596022" d="M128.21,-37.14,128.73,-37.39"/>
<path data-id="4635542-9187579" d="M128.21,-37.14,128.28,-38.04"/>
<path data-id="4635542-17336" d="M128.21,-37.14,127.95,-37.35"/>
<path data-id="4635542-8809" d="M128.21,-37.14,127.12,-37.46"/>
<path data-id="4635542-23915" d="M128.21,-37.14,128.90,-37.75"/>
<path data-id="4635542-42106" d="M128.21,-37.14,128.57,-35.30"/>
<path data-id="5292951-5400097" d="M128.71,-36.57,129.21,-35.84"/>
<path data-id="5292951-1921070" d="M128.71,-36.57,129.36,-36.43"/>
<path data-id="5292951-17336" d="M128.71,-36.57,127.95,-37.35"/>
<path data-id="5292951-613716" d="M128.71,-36.57,126.54,-33.45"/>
<path data-id="5292951-8809" d="M128.71,-36.57,127.12,-37.46"/>
<path data-id="5292951-2153194" d="M128.71,-36.57,129.14,-36.70"/>
<path data-id="5292951-42106" d="M128.71,-36.57,128.57,-35.30"/>
<path data-id="5400097-8398017" d="M129.21,-35.84,128.62,-34.88"/>
<path data-id="5400097-1921070" d="M129.21,-35.84,129.36,-36.43"/>
<path data-id="5400097-17336" d="M129.21,-35.84,127.95,-37.35"/>
<path data-id="5400097-8809" d="M129.21,-35.84,127.12,-37.46"/>
<path data-id="5400097-2153194" d="M129.21,-35.84,129.14,-36.70"/>
<path data-id="5400097-42106" d="M129.21,-35.84,128.57,-35.30"/>
<path data-id="20466083-17336" d="M128.25,-37.75,127.95,-37.35"/>
<path data-id="20466083-8809" d="M128.25,-37.75,127.12,-37.46"/>
<path data-id="20466083-6918646" d="M128.25,-37.75,128.98,-37.17"/>
<path data-id="20466083-9187579" d="M128.25,-37.75,128.28,-38.04"/>
<path data-id="38544301-8809" d="M127.76,-35.91,127.12,-37.46"/>
<path data-id="1921070-8398017" d="M129.36,-36.43,128.62,-34.88"/>
<path data-id="1921070-8809" d="M129.36,-36.43,127.12,-37.46"/>
<path data-id="1921070-42106" d="M129.36,-36.43,128.57,-35.30"/>
<path data-id="38746285-8809" d="M127.40,-35.54,127.12,-37.46"/>
<path data-id="17336-1914721" d="M127.95,-37.35,127.00,-34.75"/>
<path data-id="17336-16161509" d="M127.95,-37.35,127.91,-35.68"/>
<path data-id="17336-2153194" d="M127.95,-37.35,129.14,-36.70"/>
<path data-id="17336-23915" d="M127.95,-37.35,128.90,-37.75"/>
<path data-id="17336-39163371" d="M127.95,-37.35,127.71,-38.11"/>
<path data-id="17336-613716" d="M127.95,-37.35,126.54,-33.45"/>
<path data-id="17336-37596022" d="M127.95,-37.35,128.73,-37.39"/>
<path data-id="17336-6918646" d="M127.95,-37.35,128.98,-37.17"/>
<path data-id="17336-42106" d="M127.95,-37.35,128.57,-35.30"/>
<path data-id="17336-9187579" d="M127.95,-37.35,128.28,-38.04"/>
<path data-id="17336-8809" d="M127.95,-37.35,127.12,-37.46"/>
<path data-id="8398017-8809" d="M128.62,-34.88,127.12,-37.46"/>
<path data-id="8398017-42106" d="M128.62,-34.88,128.57,-35.30"/>
<path data-id="613716-2153194" d="M126.54,-33.45,129.14,-36.70"/>
<path data-id="613716-9187579" d="M126.54,-33.45,128.28,-38.04"/>
<path data-id="613716-8809" d="M126.54,-33.45,127.12,-37.46"/>
<path data-id="613716-23915" d="M126.54,-33.45,128.90,-37.75"/>
<path data-id="613716-42106" d="M126.54,-33.45,128.57,-35.30"/>
<path data-id="1914721-9457273" d="M127.00,-34.75,126.73,-34.31"/>
<path data-id="1914721-9187579" d="M127.00,-34.75,128.28,-38.04"/>
<path data-id="1914721-8809" d="M127.00,-34.75,127.12,-37.46"/>
<path data-id="1914721-23915" d="M127.00,-34.75,128.90,-37.75"/>
<path data-id="1914721-42106" d="M127.00,-34.75,128.57,-35.30"/>
<path data-id="16161509-8809" d="M127.91,-35.68,127.12,-37.46"/>
<path data-id="16161509-42106" d="M127.91,-35.68,128.57,-35.30"/>
<path data-id="8809-2153194" d="M127.12,-37.46,129.14,-36.70"/>
<path data-id="8809-23915" d="M127.12,-37.46,128.90,-37.75"/>
<path data-id="8809-39163371" d="M127.12,-37.46,127.71,-38.11"/>
<path data-id="8809-37596022" d="M127.12,-37.46,128.73,-37.39"/>
<path data-id="8809-6918646" d="M127.12,-37.46,128.98,-37.17"/>
<path data-id="8809-9457273" d="M127.12,-37.46,126.73,-34.31"/>
<path data-id="8809-42106" d="M127.12,-37.46,128.57,-35.30"/>
<path data-id="8809-9187579" d="M127.12,-37.46,128.28,-38.04"/>
<path data-id="2153194-42106" d="M129.14,-36.70,128.57,-35.30"/>
<path data-id="23915-39163371" d="M128.90,-37.75,127.71,-38.11"/>
<path data-id="23915-6918646" d="M128.90,-37.75,128.98,-37.17"/>
<path data-id="23915-42106" d="M128.90,-37.75,128.57,-35.30"/>
<path data-id="23915-9187579" d="M128.90,-37.75,128.28,-38.04"/>
<path data-id="39163371-6918646" d="M127.71,-38.11,128.98,-37.17"/>
<path data-id="39163371-9187579" d="M127.71,-38.11,128.28,-38.04"/>
<path data-id="6918646-37596022" d="M128.98,-37.17,128.73,-37.39"/>
<path data-id="6918646-9187579" d="M128.98,-37.17,128.28,-38.04"/>
<path data-id="6918646-42106" d="M128.98,-37.17,128.57,-35.30"/>
<path data-id="9457273-42106" d="M126.73,-34.31,128.57,-35.30"/>
<circle data-id="8394626" cx="128.60" cy="-38.21" r="0.04px"/>
<text data-id="8394626" x="128.60" y="-38.21">Sokcho</text>
<circle data-id="38431107" cx="129.17" cy="-37.46" r="0.04px"/>
<text data-id="38431107" x="129.17" y="-37.46">Samcheok</text>
<circle data-id="39142532" cx="126.27" cy="-34.48" r="0.04px"/>
<text data-id="39142532" x="126.27" y="-34.48">Jindo-gun</text>
<circle data-id="85894" cx="127.62" cy="-34.76" r="0.04px"/>
<text data-id="85894" x="127.62" y="-34.76">Yeosu</text>
<circle data-id="8113162" cx="129.40" cy="-36.99" r="0.04px"/>
<text data-id="8113162" x="129.40" y="-36.99">Uljin County</text>
<circle data-id="5292943" cx="129.37" cy="-36.03" r="0.04px"/>
<text data-id="5292943" x="129.37" y="-36.03">Pohang</text>
<circle data-id="614416" cx="128.60" cy="-35.88" r="0.04px"/>
<text data-id="614416" x="128.60" y="-35.88">Daegu</text>
<circle data-id="4635542" cx="128.21" cy="-37.14" r="0.04px"/>
<text data-id="4635542" x="128.21" y="-37.14">Jecheon</text>
<circle data-id="5292951" cx="128.71" cy="-36.57" r="0.04px"/>
<text data-id="5292951" x="128.71" y="-36.57">Andong</text>
<circle data-id="5400097" cx="129.21" cy="-35.84" r="0.04px"/>
<text data-id="5400097" x="129.21" y="-35.84">Gyeongju</text>
<circle data-id="20466083" cx="128.25" cy="-37.75" r="0.04px"/>
<text data-id="20466083" x="128.25" y="-37.75">Gangwon-do</text>
<circle data-id="38544301" cx="127.76" cy="-35.91" r="0.04px"/>
<text data-id="38544301" x="127.76" y="-35.91">Muju-gun</text>
<circle data-id="1921070" cx="129.36" cy="-36.43" r="0.04px"/>
<text data-id="1921070" x="129.36" y="-36.43">Yeongdeok-gun</text>
<circle data-id="38746285" cx="127.40" cy="-35.54" r="0.04px"/>
<text data-id="38746285" x="127.40" y="-35.54">Seongnam</text>
<circle data-id="17336" cx="127.95" cy="-37.35" r="0.04px"/>
<text data-id="17336" x="127.95" y="-37.35">Wŏnju</text>
<circle data-id="8398017" cx="128.62" cy="-34.88" r="0.04px"/>
<text data-id="8398017" x="128.62" y="-34.88">Geoje</text>
<circle data-id="613716" cx="126.54" cy="-33.45" r="0.04px"/>
<text data-id="613716" x="126.54" y="-33.45">Jeju City</text>
<circle data-id="1914721" cx="127.00" cy="-34.75" r="0.04px"/>
<text data-id="1914721" x="127.00" y="-34.75">Jeollanam-do</text>
<circle data-id="16161509" cx="127.91" cy="-35.68" r="0.04px"/>
<text data-id="16161509" x="127.91" y="-35.68">Koch'ang</text>
<circle data-id="8809" cx="127.12" cy="-37.46" r="0.04px"/>
<text data-id="8809" x="127.12" y="-37.46">Seongnam-si</text>
<circle data-id="2153194" cx="129.14" cy="-36.70" r="0.04px"/>
<text data-id="2153194" x="129.14" y="-36.70">Yeongyang-gun</text>
<circle data-id="23915" cx="128.90" cy="-37.75" r="0.04px"/>
<text data-id="23915" x="128.90" y="-37.75">Gangneung</text>
<circle data-id="39163371" cx="127.71" cy="-38.11" r="0.04px"/>
<text data-id="39163371" x="127.71" y="-38.11">Hwacheon</text>
<circle data-id="6918646" cx="128.98" cy="-37.17" r="0.04px"/>
<text data-id="6918646" x="128.98" y="-37.17">Taebaek-si</text>
<circle data-id="37596022" cx="128.73" cy="-37.39" r="0.04px"/>
<text data-id="37596022" x="128.73" y="-37.39">Jeongseon-gun</text>
<circle data-id="9457273" cx="126.73" cy="-34.31" r="0.04px"/>
<text data-id="9457273" x="126.73" y="-34.31">Wando-gun</text>
<circle data-id="42106" cx="128.57" cy="-35.30" r="0.04px"/>
<text data-id="42106" x="128.57" y="-35.30">Changwon</text>
<circle data-id="9187579" cx="128.28" cy="-38.04" r="0.04px"/>
<text data-id="9187579" x="128.28" y="-38.04">Inje-gun</text>
</svg>
