<svg id="topo" viewBox="13.79 -55.03 10.22 6.01" xmlns="http://www.w3.org/2000/svg">
<style>#topo path {fill: none; stroke: grey; stroke-width: 0.0372px;} #topo circle {fill: lightblue; stroke: none; stroke-width: 0.3px; vector-effect: non-scaling-stroke; r: 0.0743px;} #topo text {fill: black; stroke: none; font-size: 0.1115px; font-family: sans-serif; text-anchor:middle; transform: translateY(0.3em);} #topo path.country {fill: lightgrey; stroke: black; stroke-width: 1px; vector-effect: non-scaling-stroke; visibility: visible;} #topo path.selection {fill: none; stroke: red; stroke-width: 1px; vector-effect: non-scaling-stroke; visibility: visible;} #topo path.utilization {visibility: hidden;}</style>
<path class="country" d="M 23.61,-51.52 L 23.66,-51.45 L 23.68,-51.39 L 23.66,-51.35 L 23.66,-51.31 L 23.71,-51.27 L 23.86,-51.13 L 23.94,-50.99 L 23.99,-50.94 L 24.10,-50.87 L 24.11,-50.84 L 24.06,-50.82 L 24.03,-50.82 L 24.00,-50.81 L 23.98,-50.79 L 24.01,-50.76 L 24.05,-50.72 L 24.09,-50.62 L 24.09,-50.53 L 24.05,-50.51 L 24.00,-50.46 L 23.97,-50.41 L 23.71,-50.38 L 23.65,-50.33 L 23.51,-50.23 L 23.41,-50.17 L 23.26,-50.07 L 23.04,-49.90 L 22.95,-49.83 L 22.89,-49.77 L 22.71,-49.61 L 22.65,-49.54 L 22.66,-49.48 L 22.72,-49.35 L 22.73,-49.30 L 22.72,-49.24 L 22.70,-49.19 L 22.71,-49.17 L 22.76,-49.14 L 22.85,-49.08 L 22.85,-49.06 L 22.84,-49.04 L 22.81,-49.02 L 22.70,-49.04 L 22.58,-49.08 L 22.54,-49.07 L 22.47,-49.08 L 22.20,-49.15 L 22.02,-49.21 L 22.00,-49.25 L 21.97,-49.30 L 21.89,-49.34 L 21.71,-49.38 L 21.64,-49.41 L 21.35,-49.43 L 21.23,-49.43 L 21.14,-49.42 L 21.08,-49.42 L 21.00,-49.34 L 20.95,-49.32 L 20.87,-49.31 L 20.80,-49.33 L 20.73,-49.37 L 20.62,-49.39 L 20.53,-49.38 L 20.47,-49.39 L 20.42,-49.39 L 20.40,-49.38 L 20.36,-49.39 L 20.30,-49.37 L 20.24,-49.34 L 20.16,-49.32 L 20.11,-49.27 L 20.06,-49.18 L 19.92,-49.22 L 19.87,-49.20 L 19.80,-49.19 L 19.76,-49.20 L 19.77,-49.24 L 19.79,-49.27 L 19.79,-49.32 L 19.77,-49.37 L 19.73,-49.39 L 19.66,-49.40 L 19.63,-49.41 L 19.63,-49.42 L 19.59,-49.45 L 19.53,-49.50 L 19.48,-49.58 L 19.44,-49.60 L 19.39,-49.56 L 19.30,-49.52 L 19.25,-49.51 L 19.15,-49.40 L 18.97,-49.40 L 18.96,-49.45 L 18.94,-49.50 L 18.83,-49.51 L 18.83,-49.54 L 18.81,-49.61 L 18.59,-49.76 L 18.57,-49.82 L 18.58,-49.84 L 18.56,-49.88 L 18.52,-49.90 L 18.35,-49.93 L 18.31,-49.91 L 18.27,-49.93 L 18.21,-49.96 L 18.10,-49.99 L 18.09,-50.01 L 18.05,-50.03 L 18.03,-50.04 L 18.01,-50.02 L 17.98,-50.00 L 17.87,-49.97 L 17.83,-49.98 L 17.79,-50.01 L 17.75,-50.06 L 17.68,-50.10 L 17.63,-50.12 L 17.60,-50.14 L 17.59,-50.16 L 17.71,-50.19 L 17.74,-50.23 L 17.72,-50.30 L 17.70,-50.31 L 17.65,-50.28 L 17.55,-50.26 L 17.46,-50.25 L 17.42,-50.25 L 17.15,-50.38 L 16.98,-50.42 L 16.88,-50.43 L 16.87,-50.41 L 16.91,-50.35 L 16.99,-50.26 L 16.99,-50.24 L 16.90,-50.20 L 16.84,-50.19 L 16.78,-50.16 L 16.73,-50.12 L 16.68,-50.10 L 16.64,-50.10 L 16.60,-50.12 L 16.49,-50.25 L 16.35,-50.35 L 16.33,-50.37 L 16.29,-50.37 L 16.23,-50.39 L 16.21,-50.42 L 16.24,-50.45 L 16.28,-50.48 L 16.36,-50.50 L 16.38,-50.52 L 16.39,-50.54 L 16.42,-50.57 L 16.41,-50.59 L 16.36,-50.62 L 16.28,-50.66 L 16.07,-50.63 L 16.01,-50.61 L 15.97,-50.64 L 15.95,-50.67 L 15.89,-50.68 L 15.82,-50.71 L 15.73,-50.74 L 15.64,-50.75 L 15.46,-50.79 L 15.39,-50.80 L 15.35,-50.81 L 15.31,-50.85 L 15.28,-50.88 L 15.26,-50.96 L 15.13,-50.99 L 14.99,-51.01 L 14.98,-51.00 L 14.99,-50.93 L 14.98,-50.89 L 14.90,-50.86 L 14.81,-50.86 L 14.81,-50.87 L 14.92,-51.01 L 14.96,-51.10 L 15.02,-51.25 L 14.95,-51.38 L 14.94,-51.44 L 14.91,-51.46 L 14.72,-51.52 L 14.71,-51.54 L 14.74,-51.63 L 14.72,-51.66 L 14.68,-51.70 L 14.62,-51.77 L 14.60,-51.83 L 14.67,-51.90 L 14.69,-51.96 L 14.72,-52.03 L 14.75,-52.07 L 14.75,-52.08 L 14.70,-52.11 L 14.69,-52.15 L 14.71,-52.21 L 14.68,-52.25 L 14.62,-52.28 L 14.57,-52.31 L 14.55,-52.36 L 14.57,-52.43 L 14.62,-52.53 L 14.51,-52.65 L 14.25,-52.78 L 14.13,-52.88 L 14.14,-52.93 L 14.19,-52.98 L 14.29,-53.03 L 14.37,-53.11 L 14.41,-53.20 L 14.41,-53.22 L 14.41,-53.28 L 14.30,-53.56 L 14.28,-53.62 L 14.27,-53.71 L 14.26,-53.73 L 14.49,-53.67 L 14.58,-53.64 L 14.57,-53.68 L 14.55,-53.71 L 14.56,-53.75 L 14.56,-53.82 L 14.35,-53.86 L 14.21,-53.87 L 14.20,-53.92 L 14.21,-53.95 L 14.25,-53.93 L 14.38,-53.92 L 14.72,-54.02 L 15.29,-54.14 L 15.90,-54.25 L 16.04,-54.27 L 16.19,-54.29 L 16.24,-54.33 L 16.29,-54.36 L 16.38,-54.44 L 16.56,-54.55 L 16.89,-54.60 L 17.01,-54.65 L 17.26,-54.73 L 17.84,-54.82 L 18.09,-54.84 L 18.32,-54.84 L 18.54,-54.77 L 18.76,-54.68 L 18.80,-54.63 L 18.68,-54.67 L 18.50,-54.74 L 18.44,-54.74 L 18.59,-54.51 L 18.67,-54.43 L 18.84,-54.37 L 18.98,-54.35 L 19.41,-54.39 L 19.56,-54.43 L 19.60,-54.46 L 19.64,-54.45 L 19.92,-54.43 L 20.21,-54.42 L 20.66,-54.41 L 21.14,-54.39 L 21.63,-54.38 L 22.17,-54.36 L 22.73,-54.35 L 22.77,-54.36 L 22.82,-54.40 L 22.89,-54.39 L 22.98,-54.37 L 23.02,-54.35 L 23.03,-54.33 L 23.04,-54.30 L 23.09,-54.30 L 23.17,-54.28 L 23.28,-54.24 L 23.37,-54.20 L 23.45,-54.14 L 23.48,-54.08 L 23.48,-54.01 L 23.48,-53.96 L 23.48,-53.94 L 23.60,-53.60 L 23.79,-53.27 L 23.86,-53.11 L 23.89,-53.03 L 23.91,-52.90 L 23.92,-52.82 L 23.92,-52.77 L 23.90,-52.70 L 23.84,-52.66 L 23.48,-52.55 L 23.41,-52.52 L 23.30,-52.43 L 23.20,-52.34 L 23.18,-52.31 L 23.18,-52.29 L 23.20,-52.26 L 23.33,-52.21 L 23.46,-52.17 L 23.50,-52.14 L 23.60,-52.10 L 23.63,-52.07 L 23.65,-52.04 L 23.65,-51.97 L 23.61,-51.88 L 23.63,-51.81 L 23.58,-51.76 L 23.54,-51.71 L 23.54,-51.62 L 23.61,-51.52 Z"/>
<path data-id="25601-3289154" d="M16.40,-54.42,15.20,-53.92"/>
<path data-id="25601-38012005" d="M16.40,-54.42,19.96,-49.30"/>
<path data-id="25601-37512425" d="M16.40,-54.42,19.36,-51.66"/>
<path data-id="25601-38004459" d="M16.40,-54.42,16.01,-52.20"/>
<path data-id="25601-7513045" d="M16.40,-54.42,17.03,-51.10"/>
<path data-id="25601-20514773" d="M16.40,-54.42,16.94,-52.43"/>
<path data-id="25601-20785014" d="M16.40,-54.42,22.24,-52.41"/>
<path data-id="25601-39198750" d="M16.40,-54.42,15.82,-51.73"/>
<path data-id="25601-21187102" d="M16.40,-54.42,20.66,-50.89"/>
<path data-id="25601-25222" d="M16.40,-54.42,20.00,-50.09"/>
<path data-id="25601-15575" d="M16.40,-54.42,21.01,-52.23"/>
<path data-id="25601-15607" d="M16.40,-54.42,18.52,-53.79"/>
<path data-id="25601-7108" d="M16.40,-54.42,23.13,-50.16"/>
<path data-id="38077445-15575" d="M17.33,-50.47,21.01,-52.23"/>
<path data-id="38011404-15575" d="M20.41,-51.18,21.01,-52.23"/>
<path data-id="38011404-7108" d="M20.41,-51.18,23.13,-50.16"/>
<path data-id="38011404-7513045" d="M20.41,-51.18,17.03,-51.10"/>
<path data-id="3292684-38012005" d="M15.30,-53.04,19.96,-49.30"/>
<path data-id="3292684-25222" d="M15.30,-53.04,20.00,-50.09"/>
<path data-id="3292684-15575" d="M15.30,-53.04,21.01,-52.23"/>
<path data-id="3292684-7108" d="M15.30,-53.04,23.13,-50.16"/>
<path data-id="38073361-15575" d="M16.98,-51.77,21.01,-52.23"/>
<path data-id="38068759-15575" d="M19.46,-54.38,21.01,-52.23"/>
<path data-id="21187102-38012005" d="M20.66,-50.89,19.96,-49.30"/>
<path data-id="21187102-38010471" d="M20.66,-50.89,14.81,-51.64"/>
<path data-id="21187102-37512425" d="M20.66,-50.89,19.36,-51.66"/>
<path data-id="21187102-25222" d="M20.66,-50.89,20.00,-50.09"/>
<path data-id="21187102-15575" d="M20.66,-50.89,21.01,-52.23"/>
<path data-id="21187102-15607" d="M20.66,-50.89,18.52,-53.79"/>
<path data-id="21187102-7108" d="M20.66,-50.89,23.13,-50.16"/>
<path data-id="21187102-7513045" d="M20.66,-50.89,17.03,-51.10"/>
<path data-id="39198750-38012005" d="M15.82,-51.73,19.96,-49.30"/>
<path data-id="39198750-38010471" d="M15.82,-51.73,14.81,-51.64"/>
<path data-id="39198750-25222" d="M15.82,-51.73,20.00,-50.09"/>
<path data-id="39198750-37510348" d="M15.82,-51.73,22.56,-51.25"/>
<path data-id="39198750-15575" d="M15.82,-51.73,21.01,-52.23"/>
<path data-id="39198750-13843673" d="M15.82,-51.73,23.55,-51.55"/>
<path data-id="39198750-15607" d="M15.82,-51.73,18.52,-53.79"/>
<path data-id="39198750-7108" d="M15.82,-51.73,23.13,-50.16"/>
<path data-id="39198750-7513045" d="M15.82,-51.73,17.03,-51.10"/>
<path data-id="30314015-15575" d="M14.26,-53.90,21.01,-52.23"/>
<path data-id="82339373-15575" d="M23.12,-52.03,21.01,-52.23"/>
<path data-id="38075953-15575" d="M18.25,-52.23,21.01,-52.23"/>
<path data-id="82345012-15575" d="M16.69,-53.71,21.01,-52.23"/>
<path data-id="82338359-15575" d="M18.13,-50.23,21.01,-52.23"/>
<path data-id="3289154-38012005" d="M15.20,-53.92,19.96,-49.30"/>
<path data-id="3289154-7513045" d="M15.20,-53.92,17.03,-51.10"/>
<path data-id="3289154-23230751" d="M15.20,-53.92,22.05,-50.58"/>
<path data-id="3289154-25222" d="M15.20,-53.92,20.00,-50.09"/>
<path data-id="3289154-15575" d="M15.20,-53.92,21.01,-52.23"/>
<path data-id="3289154-15607" d="M15.20,-53.92,18.52,-53.79"/>
<path data-id="3289154-7108" d="M15.20,-53.92,23.13,-50.16"/>
<path data-id="38074956-15575" d="M21.18,-51.79,21.01,-52.23"/>
<path data-id="82338383-15575" d="M14.74,-51.96,21.01,-52.23"/>
<path data-id="82353749-38012005" d="M19.20,-52.05,19.96,-49.30"/>
<path data-id="82353749-15575" d="M19.20,-52.05,21.01,-52.23"/>
<path data-id="82353749-38011308" d="M19.20,-52.05,22.77,-49.79"/>
<path data-id="82353749-7108" d="M19.20,-52.05,23.13,-50.16"/>
<path data-id="38012503-15575" d="M19.71,-52.54,21.01,-52.23"/>
<path data-id="38012503-7513045" d="M19.71,-52.54,17.03,-51.10"/>
<path data-id="76982362-38012005" d="M22.31,-54.31,19.96,-49.30"/>
<path data-id="76982362-15575" d="M22.31,-54.31,21.01,-52.23"/>
<path data-id="76982362-38011308" d="M22.31,-54.31,22.77,-49.79"/>
<path data-id="76982362-7108" d="M22.31,-54.31,23.13,-50.16"/>
<path data-id="38264420-15575" d="M19.98,-53.68,21.01,-52.23"/>
<path data-id="38012005-39252231" d="M19.96,-49.30,22.69,-50.26"/>
<path data-id="38012005-66828489" d="M19.96,-49.30,18.52,-52.62"/>
<path data-id="38012005-82353632" d="M19.96,-49.30,20.10,-52.99"/>
<path data-id="38012005-39187301" d="M19.96,-49.30,18.26,-52.79"/>
<path data-id="38012005-39207783" d="M19.96,-49.30,17.45,-51.70"/>
<path data-id="38012005-82338802" d="M19.96,-49.30,15.27,-52.68"/>
<path data-id="38012005-38010471" d="M19.96,-49.30,14.81,-51.64"/>
<path data-id="38012005-38010487" d="M19.96,-49.30,23.17,-52.79"/>
<path data-id="38012005-25222" d="M19.96,-49.30,20.00,-50.09"/>
<path data-id="38012005-37510348" d="M19.96,-49.30,22.56,-51.25"/>
<path data-id="38012005-15575" d="M19.96,-49.30,21.01,-52.23"/>
<path data-id="38012005-13843673" d="M19.96,-49.30,23.55,-51.55"/>
<path data-id="38012005-37512425" d="M19.96,-49.30,19.36,-51.66"/>
<path data-id="38012005-15607" d="M19.96,-49.30,18.52,-53.79"/>
<path data-id="38012005-23230751" d="M19.96,-49.30,22.05,-50.58"/>
<path data-id="38012005-37510971" d="M19.96,-49.30,18.66,-54.35"/>
<path data-id="38012005-20125514" d="M19.96,-49.30,20.98,-50.17"/>
<path data-id="38012005-3279203" d="M19.96,-49.30,14.52,-53.42"/>
<path data-id="38012005-3291505" d="M19.96,-49.30,18.01,-53.13"/>
<path data-id="38012005-20785014" d="M19.96,-49.30,22.24,-52.41"/>
<path data-id="38012005-38011308" d="M19.96,-49.30,22.77,-49.79"/>
<path data-id="38012005-7108" d="M19.96,-49.30,23.13,-50.16"/>
<path data-id="38012005-7513045" d="M19.96,-49.30,17.03,-51.10"/>
<path data-id="38010471-26678467" d="M14.81,-51.64,20.89,-53.02"/>
<path data-id="38010471-15575" d="M14.81,-51.64,21.01,-52.23"/>
<path data-id="38010471-37512425" d="M14.81,-51.64,19.36,-51.66"/>
<path data-id="38010471-15607" d="M14.81,-51.64,18.52,-53.79"/>
<path data-id="38010471-7108" d="M14.81,-51.64,23.13,-50.16"/>
<path data-id="57590382-15607" d="M16.68,-54.12,18.52,-53.79"/>
<path data-id="82343024-15575" d="M21.57,-53.07,21.01,-52.23"/>
<path data-id="38010487-38077137" d="M23.17,-52.79,15.30,-53.62"/>
<path data-id="38010487-25222" d="M23.17,-52.79,20.00,-50.09"/>
<path data-id="38010487-15575" d="M23.17,-52.79,21.01,-52.23"/>
<path data-id="38010487-15607" d="M23.17,-52.79,18.52,-53.79"/>
<path data-id="38010487-3279203" d="M23.17,-52.79,14.52,-53.42"/>
<path data-id="38010487-7108" d="M23.17,-52.79,23.13,-50.16"/>
<path data-id="38010487-7513045" d="M23.17,-52.79,17.03,-51.10"/>
<path data-id="82351230-15575" d="M19.56,-53.59,21.01,-52.23"/>
<path data-id="82351235-15575" d="M22.99,-53.84,21.01,-52.23"/>
<path data-id="25222-39252231" d="M20.00,-50.09,22.69,-50.26"/>
<path data-id="25222-37512342" d="M20.00,-50.09,15.51,-51.94"/>
<path data-id="25222-23230751" d="M20.00,-50.09,22.05,-50.58"/>
<path data-id="25222-38003616" d="M20.00,-50.09,21.07,-51.04"/>
<path data-id="25222-38011303" d="M20.00,-50.09,16.01,-53.54"/>
<path data-id="25222-38011308" d="M20.00,-50.09,22.77,-49.79"/>
<path data-id="25222-20125514" d="M20.00,-50.09,20.98,-50.17"/>
<path data-id="25222-37510348" d="M20.00,-50.09,22.56,-51.25"/>
<path data-id="25222-7513045" d="M20.00,-50.09,17.03,-51.10"/>
<path data-id="25222-20514773" d="M20.00,-50.09,16.94,-52.43"/>
<path data-id="25222-13843673" d="M20.00,-50.09,23.55,-51.55"/>
<path data-id="25222-3279203" d="M20.00,-50.09,14.52,-53.42"/>
<path data-id="25222-39187301" d="M20.00,-50.09,18.26,-52.79"/>
<path data-id="25222-3291505" d="M20.00,-50.09,18.01,-53.13"/>
<path data-id="25222-3291506" d="M20.00,-50.09,18.62,-53.02"/>
<path data-id="25222-82338802" d="M20.00,-50.09,15.27,-52.68"/>
<path data-id="25222-20785014" d="M20.00,-50.09,22.24,-52.41"/>
<path data-id="25222-15575" d="M20.00,-50.09,21.01,-52.23"/>
<path data-id="25222-15607" d="M20.00,-50.09,18.52,-53.79"/>
<path data-id="25222-7108" d="M20.00,-50.09,23.13,-50.16"/>
<path data-id="82353290-15575" d="M15.72,-54.14,21.01,-52.23"/>
<path data-id="38181517-15575" d="M22.36,-53.82,21.01,-52.23"/>
<path data-id="38181517-7108" d="M22.36,-53.82,23.13,-50.16"/>
<path data-id="82338451-15575" d="M16.18,-54.17,21.01,-52.23"/>
<path data-id="82351252-15575" d="M19.82,-53.26,21.01,-52.23"/>
<path data-id="37512342-15575" d="M15.51,-51.94,21.01,-52.23"/>
<path data-id="37512342-15607" d="M15.51,-51.94,18.52,-53.79"/>
<path data-id="37512342-7108" d="M15.51,-51.94,23.13,-50.16"/>
<path data-id="37512342-7513045" d="M15.51,-51.94,17.03,-51.10"/>
<path data-id="38070936-15575" d="M17.82,-52.56,21.01,-52.23"/>
<path data-id="82346166-15575" d="M19.11,-51.33,21.01,-52.23"/>
<path data-id="82337982-15575" d="M18.94,-53.61,21.01,-52.23"/>
<path data-id="26678467-15575" d="M20.89,-53.02,21.01,-52.23"/>
<path data-id="66828489-37512425" d="M18.52,-52.62,19.36,-51.66"/>
<path data-id="38071499-15575" d="M17.48,-54.48,21.01,-52.23"/>
<path data-id="37510348-38011308" d="M22.56,-51.25,22.77,-49.79"/>
<path data-id="37510348-15575" d="M22.56,-51.25,21.01,-52.23"/>
<path data-id="37510348-13843673" d="M22.56,-51.25,23.55,-51.55"/>
<path data-id="37510348-15607" d="M22.56,-51.25,18.52,-53.79"/>
<path data-id="37510348-23230751" d="M22.56,-51.25,22.05,-50.58"/>
<path data-id="37510348-3279203" d="M22.56,-51.25,14.52,-53.42"/>
<path data-id="37510348-3291505" d="M22.56,-51.25,18.01,-53.13"/>
<path data-id="37510348-20785014" d="M22.56,-51.25,22.24,-52.41"/>
<path data-id="37510348-7108" d="M22.56,-51.25,23.13,-50.16"/>
<path data-id="37510348-7513045" d="M22.56,-51.25,17.03,-51.10"/>
<path data-id="83398860-15575" d="M22.62,-54.17,21.01,-52.23"/>
<path data-id="83398860-15607" d="M22.62,-54.17,18.52,-53.79"/>
<path data-id="83398860-7108" d="M22.62,-54.17,23.13,-50.16"/>
<path data-id="83398860-7513045" d="M22.62,-54.17,17.03,-51.10"/>
<path data-id="38265552-15575" d="M17.56,-54.76,21.01,-52.23"/>
<path data-id="38077137-39207783" d="M15.30,-53.62,17.45,-51.70"/>
<path data-id="38077137-15575" d="M15.30,-53.62,21.01,-52.23"/>
<path data-id="38077137-15607" d="M15.30,-53.62,18.52,-53.79"/>
<path data-id="38077137-7108" d="M15.30,-53.62,23.13,-50.16"/>
<path data-id="38077137-7513045" d="M15.30,-53.62,17.03,-51.10"/>
<path data-id="82341589-15575" d="M21.94,-53.81,21.01,-52.23"/>
<path data-id="82341589-15607" d="M21.94,-53.81,18.52,-53.79"/>
<path data-id="82341589-7108" d="M21.94,-53.81,23.13,-50.16"/>
<path data-id="82341589-7513045" d="M21.94,-53.81,17.03,-51.10"/>
<path data-id="15575-13843673" d="M21.01,-52.23,23.55,-51.55"/>
<path data-id="15575-82344678" d="M21.01,-52.23,17.45,-53.16"/>
<path data-id="15575-37512425" d="M21.01,-52.23,19.36,-51.66"/>
<path data-id="15575-38004459" d="M21.01,-52.23,16.01,-52.20"/>
<path data-id="15575-82251500" d="M21.01,-52.23,17.88,-52.29"/>
<path data-id="15575-51954" d="M21.01,-52.23,17.92,-50.67"/>
<path data-id="15575-15607" d="M21.01,-52.23,18.52,-53.79"/>
<path data-id="15575-38075642" d="M21.01,-52.23,18.09,-51.75"/>
<path data-id="15575-39252231" d="M21.01,-52.23,22.69,-50.26"/>
<path data-id="15575-38178066" d="M21.01,-52.23,16.07,-51.50"/>
<path data-id="15575-23230751" d="M21.01,-52.23,22.05,-50.58"/>
<path data-id="15575-38075168" d="M21.01,-52.23,20.04,-52.30"/>
<path data-id="15575-37510971" d="M21.01,-52.23,18.66,-54.35"/>
<path data-id="15575-38112571" d="M21.01,-52.23,18.87,-51.12"/>
<path data-id="15575-20125514" d="M21.01,-52.23,20.98,-50.17"/>
<path data-id="15575-38071638" d="M21.01,-52.23,16.38,-52.71"/>
<path data-id="15575-82345310" d="M21.01,-52.23,21.52,-54.22"/>
<path data-id="15575-12677472" d="M21.01,-52.23,23.16,-53.13"/>
<path data-id="15575-82341217" d="M21.01,-52.23,22.32,-49.47"/>
<path data-id="15575-3279203" d="M21.01,-52.23,14.52,-53.42"/>
<path data-id="15575-39187300" d="M21.01,-52.23,22.28,-52.17"/>
<path data-id="15575-82338149" d="M21.01,-52.23,18.69,-53.29"/>
<path data-id="15575-39207783" d="M21.01,-52.23,17.45,-51.70"/>
<path data-id="15575-82341224" d="M21.01,-52.23,16.31,-52.36"/>
<path data-id="15575-30905195" d="M21.01,-52.23,17.51,-51.97"/>
<path data-id="15575-3291501" d="M21.01,-52.23,19.38,-52.98"/>
<path data-id="15575-3291505" d="M21.01,-52.23,18.01,-53.13"/>
<path data-id="15575-3291506" d="M21.01,-52.23,18.62,-53.02"/>
<path data-id="15575-82342771" d="M21.01,-52.23,16.83,-52.82"/>
<path data-id="15575-20785014" d="M21.01,-52.23,22.24,-52.41"/>
<path data-id="15575-3291520" d="M21.01,-52.23,22.07,-53.17"/>
<path data-id="15575-3291522" d="M21.01,-52.23,17.03,-54.47"/>
<path data-id="15575-82338181" d="M21.01,-52.23,20.10,-50.68"/>
<path data-id="15575-82338196" d="M21.01,-52.23,21.46,-51.48"/>
<path data-id="15575-38003616" d="M21.01,-52.23,21.07,-51.04"/>
<path data-id="15575-38073765" d="M21.01,-52.23,20.24,-50.34"/>
<path data-id="15575-38004135" d="M21.01,-52.23,17.73,-52.85"/>
<path data-id="15575-38011303" d="M21.01,-52.23,16.01,-53.54"/>
<path data-id="15575-38011308" d="M21.01,-52.23,22.77,-49.79"/>
<path data-id="15575-7494575" d="M21.01,-52.23,18.74,-51.59"/>
<path data-id="15575-37512629" d="M21.01,-52.23,20.27,-53.27"/>
<path data-id="15575-38077386" d="M21.01,-52.23,18.29,-50.51"/>
<path data-id="15575-38005714" d="M21.01,-52.23,20.50,-53.78"/>
<path data-id="15575-20514773" d="M21.01,-52.23,16.94,-52.43"/>
<path data-id="15575-7513045" d="M21.01,-52.23,17.03,-51.10"/>
<path data-id="15575-82338802" d="M21.01,-52.23,15.27,-52.68"/>
<path data-id="15575-7108" d="M21.01,-52.23,23.13,-50.16"/>
<path data-id="13843673-15607" d="M23.55,-51.55,18.52,-53.79"/>
<path data-id="13843673-7108" d="M23.55,-51.55,23.13,-50.16"/>
<path data-id="13843673-7513045" d="M23.55,-51.55,17.03,-51.10"/>
<path data-id="37512425-39187301" d="M19.36,-51.66,18.26,-52.79"/>
<path data-id="37512425-39207783" d="M19.36,-51.66,17.45,-51.70"/>
<path data-id="37512425-38004459" d="M19.36,-51.66,16.01,-52.20"/>
<path data-id="37512425-100866990" d="M19.36,-51.66,16.66,-50.44"/>
<path data-id="37512425-15607" d="M19.36,-51.66,18.52,-53.79"/>
<path data-id="37512425-37510971" d="M19.36,-51.66,18.66,-54.35"/>
<path data-id="37512425-7494575" d="M19.36,-51.66,18.74,-51.59"/>
<path data-id="37512425-7108" d="M19.36,-51.66,23.13,-50.16"/>
<path data-id="37512425-7513045" d="M19.36,-51.66,17.03,-51.10"/>
<path data-id="38004459-15607" d="M16.01,-52.20,18.52,-53.79"/>
<path data-id="38004459-7108" d="M16.01,-52.20,23.13,-50.16"/>
<path data-id="38004459-7513045" d="M16.01,-52.20,17.03,-51.10"/>
<path data-id="82251500-15607" d="M17.88,-52.29,18.52,-53.79"/>
<path data-id="82251500-7108" d="M17.88,-52.29,23.13,-50.16"/>
<path data-id="82251500-20514773" d="M17.88,-52.29,16.94,-52.43"/>
<path data-id="51954-7108" d="M17.92,-50.67,23.13,-50.16"/>
<path data-id="15607-39252231" d="M18.52,-53.79,22.69,-50.26"/>
<path data-id="15607-23230751" d="M18.52,-53.79,22.05,-50.58"/>
<path data-id="15607-38003616" d="M18.52,-53.79,21.07,-51.04"/>
<path data-id="15607-38011303" d="M18.52,-53.79,16.01,-53.54"/>
<path data-id="15607-38011308" d="M18.52,-53.79,22.77,-49.79"/>
<path data-id="15607-37510971" d="M18.52,-53.79,18.66,-54.35"/>
<path data-id="15607-38112571" d="M18.52,-53.79,18.87,-51.12"/>
<path data-id="15607-20125514" d="M18.52,-53.79,20.98,-50.17"/>
<path data-id="15607-7513045" d="M18.52,-53.79,17.03,-51.10"/>
<path data-id="15607-20514773" d="M18.52,-53.79,16.94,-52.43"/>
<path data-id="15607-3279203" d="M18.52,-53.79,14.52,-53.42"/>
<path data-id="15607-39187301" d="M18.52,-53.79,18.26,-52.79"/>
<path data-id="15607-39207783" d="M18.52,-53.79,17.45,-51.70"/>
<path data-id="15607-3291505" d="M18.52,-53.79,18.01,-53.13"/>
<path data-id="15607-20785014" d="M18.52,-53.79,22.24,-52.41"/>
<path data-id="15607-7108" d="M18.52,-53.79,23.13,-50.16"/>
<path data-id="39252231-39207783" d="M22.69,-50.26,17.45,-51.70"/>
<path data-id="39252231-7108" d="M22.69,-50.26,23.13,-50.16"/>
<path data-id="39252231-7513045" d="M22.69,-50.26,17.03,-51.10"/>
<path data-id="23230751-7108" d="M22.05,-50.58,23.13,-50.16"/>
<path data-id="23230751-7513045" d="M22.05,-50.58,17.03,-51.10"/>
<path data-id="37510971-38003616" d="M18.66,-54.35,21.07,-51.04"/>
<path data-id="37510971-7108" d="M18.66,-54.35,23.13,-50.16"/>
<path data-id="37510971-7513045" d="M18.66,-54.35,17.03,-51.10"/>
<path data-id="20125514-38011308" d="M20.98,-50.17,22.77,-49.79"/>
<path data-id="20125514-7108" d="M20.98,-50.17,23.13,-50.16"/>
<path data-id="20125514-7513045" d="M20.98,-50.17,17.03,-51.10"/>
<path data-id="3279203-38011303" d="M14.52,-53.42,16.01,-53.54"/>
<path data-id="3279203-7513045" d="M14.52,-53.42,17.03,-51.10"/>
<path data-id="3279203-20785014" d="M14.52,-53.42,22.24,-52.41"/>
<path data-id="3279203-7108" d="M14.52,-53.42,23.13,-50.16"/>
<path data-id="39187300-7108" d="M22.28,-52.17,23.13,-50.16"/>
<path data-id="39187300-7513045" d="M22.28,-52.17,17.03,-51.10"/>
<path data-id="39187301-20785014" d="M18.26,-52.79,22.24,-52.41"/>
<path data-id="39207783-20785014" d="M17.45,-51.70,22.24,-52.41"/>
<path data-id="39207783-7108" d="M17.45,-51.70,23.13,-50.16"/>
<path data-id="39207783-7513045" d="M17.45,-51.70,17.03,-51.10"/>
<path data-id="3291505-38011308" d="M18.01,-53.13,22.77,-49.79"/>
<path data-id="3291505-7513045" d="M18.01,-53.13,17.03,-51.10"/>
<path data-id="3291505-20785014" d="M18.01,-53.13,22.24,-52.41"/>
<path data-id="3291505-7108" d="M18.01,-53.13,23.13,-50.16"/>
<path data-id="3291506-7108" d="M18.62,-53.02,23.13,-50.16"/>
<path data-id="20785014-7108" d="M22.24,-52.41,23.13,-50.16"/>
<path data-id="20785014-7513045" d="M22.24,-52.41,17.03,-51.10"/>
<path data-id="82338196-7108" d="M21.46,-51.48,23.13,-50.16"/>
<path data-id="38003616-7494575" d="M21.07,-51.04,18.74,-51.59"/>
<path data-id="38003616-7108" d="M21.07,-51.04,23.13,-50.16"/>
<path data-id="38003616-7513045" d="M21.07,-51.04,17.03,-51.10"/>
<path data-id="38011303-7108" d="M16.01,-53.54,23.13,-50.16"/>
<path data-id="38011303-7513045" d="M16.01,-53.54,17.03,-51.10"/>
<path data-id="38011308-7108" d="M22.77,-49.79,23.13,-50.16"/>
<path data-id="38011308-7513045" d="M22.77,-49.79,17.03,-51.10"/>
<path data-id="7494575-7513045" d="M18.74,-51.59,17.03,-51.10"/>
<path data-id="7494575-7108" d="M18.74,-51.59,23.13,-50.16"/>
<path data-id="7108-7513045" d="M23.13,-50.16,17.03,-51.10"/>
<path data-id="7108-20514773" d="M23.13,-50.16,16.94,-52.43"/>
<path data-id="7108-82338802" d="M23.13,-50.16,15.27,-52.68"/>
<path data-id="7513045-20514773" d="M17.03,-51.10,16.94,-52.43"/>
<path data-id="7513045-82353632" d="M17.03,-51.10,20.10,-52.99"/>
<path data-id="7513045-82338802" d="M17.03,-51.10,15.27,-52.68"/>
<circle data-id="25601" cx="16.40" cy="-54.42" r="0.07px"/>
<text data-id="25601" x="16.40" y="-54.42">Darłowo</text>
<circle data-id="38077445" cx="17.33" cy="-50.47" r="0.07px"/>
<text data-id="38077445" x="17.33" y="-50.47">Nysa</text>
<circle data-id="38011404" cx="20.41" cy="-51.18" r="0.07px"/>
<text data-id="38011404" x="20.41" y="-51.18">Gmina Końskie</text>
<circle data-id="3292684" cx="15.30" cy="-53.04" r="0.07px"/>
<text data-id="3292684" x="15.30" y="-53.04">Pełczyce</text>
<circle data-id="38073361" cx="16.98" cy="-51.77" r="0.07px"/>
<text data-id="38073361" x="16.98" y="-51.77">Krobia</text>
<circle data-id="38068759" cx="19.46" cy="-54.38" r="0.07px"/>
<text data-id="38068759" x="19.46" y="-54.38">Krynica Morska</text>
<circle data-id="21187102" cx="20.66" cy="-50.89" r="0.07px"/>
<text data-id="21187102" x="20.66" y="-50.89">Kielce</text>
<circle data-id="39198750" cx="15.82" cy="-51.73" r="0.07px"/>
<text data-id="39198750" x="15.82" y="-51.73">Bytom Odrzański</text>
<circle data-id="30314015" cx="14.26" cy="-53.90" r="0.07px"/>
<text data-id="30314015" x="14.26" y="-53.90">Świnoujście</text>
<circle data-id="82339373" cx="23.12" cy="-52.03" r="0.07px"/>
<text data-id="82339373" x="23.12" y="-52.03">Biała Podlaska</text>
<circle data-id="38075953" cx="18.25" cy="-52.23" r="0.07px"/>
<text data-id="38075953" x="18.25" y="-52.23">Konin</text>
<circle data-id="82345012" cx="16.69" cy="-53.71" r="0.07px"/>
<text data-id="82345012" x="16.69" y="-53.71">Szczecinek</text>
<circle data-id="82338359" cx="18.13" cy="-50.23" r="0.07px"/>
<text data-id="82338359" x="18.13" y="-50.23">Gmina Polska Cerekiew</text>
<circle data-id="3289154" cx="15.20" cy="-53.92" r="0.07px"/>
<text data-id="3289154" x="15.20" y="-53.92">Gryfice</text>
<circle data-id="38074956" cx="21.18" cy="-51.79" r="0.07px"/>
<text data-id="38074956" x="21.18" y="-51.79">Warka</text>
<circle data-id="82338383" cx="14.74" cy="-51.96" r="0.07px"/>
<text data-id="82338383" x="14.74" y="-51.96">Gubin</text>
<circle data-id="82353749" cx="19.20" cy="-52.05" r="0.07px"/>
<text data-id="82353749" x="19.20" y="-52.05">Łęczyca</text>
<circle data-id="38012503" cx="19.71" cy="-52.54" r="0.07px"/>
<text data-id="38012503" x="19.71" y="-52.54">Płock</text>
<circle data-id="76982362" cx="22.31" cy="-54.31" r="0.07px"/>
<text data-id="76982362" x="22.31" y="-54.31">Gołdap</text>
<circle data-id="38264420" cx="19.98" cy="-53.68" r="0.07px"/>
<text data-id="38264420" x="19.98" y="-53.68">Kajkowo</text>
<circle data-id="38012005" cx="19.96" cy="-49.30" r="0.07px"/>
<text data-id="38012005" x="19.96" y="-49.30">Zakopane</text>
<circle data-id="38010471" cx="14.81" cy="-51.64" r="0.07px"/>
<text data-id="38010471" x="14.81" y="-51.64">Trzebiel</text>
<circle data-id="57590382" cx="16.68" cy="-54.12" r="0.07px"/>
<text data-id="57590382" x="16.68" y="-54.12">Polanów</text>
<circle data-id="82343024" cx="21.57" cy="-53.07" r="0.07px"/>
<text data-id="82343024" x="21.57" y="-53.07">Ostrołęka</text>
<circle data-id="38010487" cx="23.17" cy="-52.79" r="0.07px"/>
<text data-id="38010487" x="23.17" y="-52.79">Bielsk Podlaski</text>
<circle data-id="82351230" cx="19.56" cy="-53.59" r="0.07px"/>
<text data-id="82351230" x="19.56" y="-53.59">Iława</text>
<circle data-id="82351235" cx="22.99" cy="-53.84" r="0.07px"/>
<text data-id="82351235" x="22.99" y="-53.84">Augustów</text>
<circle data-id="25222" cx="20.00" cy="-50.09" r="0.07px"/>
<text data-id="25222" x="20.00" y="-50.09">Krakow</text>
<circle data-id="82353290" cx="15.72" cy="-54.14" r="0.07px"/>
<text data-id="82353290" x="15.72" y="-54.14">Dygowo</text>
<circle data-id="38181517" cx="22.36" cy="-53.82" r="0.07px"/>
<text data-id="38181517" x="22.36" y="-53.82">Ełk</text>
<circle data-id="82338451" cx="16.18" cy="-54.17" r="0.07px"/>
<text data-id="82338451" x="16.18" y="-54.17">Koszalin</text>
<circle data-id="82351252" cx="19.82" cy="-53.26" r="0.07px"/>
<text data-id="82351252" x="19.82" y="-53.26">Lidzbark</text>
<circle data-id="37512342" cx="15.51" cy="-51.94" r="0.07px"/>
<text data-id="37512342" x="15.51" y="-51.94">Zielona Góra</text>
<circle data-id="38070936" cx="17.82" cy="-52.56" r="0.07px"/>
<text data-id="38070936" x="17.82" y="-52.56">Trzemeszno</text>
<circle data-id="82346166" cx="19.11" cy="-51.33" r="0.07px"/>
<text data-id="82346166" x="19.11" y="-51.33">Szczerców</text>
<circle data-id="82337982" cx="18.94" cy="-53.61" r="0.07px"/>
<text data-id="82337982" x="18.94" y="-53.61">Gardeja</text>
<circle data-id="26678467" cx="20.89" cy="-53.02" r="0.07px"/>
<text data-id="26678467" x="20.89" y="-53.02">Przasnysz</text>
<circle data-id="66828489" cx="18.52" cy="-52.62" r="0.07px"/>
<text data-id="66828489" x="18.52" y="-52.62">Radziejów</text>
<circle data-id="38071499" cx="17.48" cy="-54.48" r="0.07px"/>
<text data-id="38071499" x="17.48" y="-54.48">Gmina Potęgowo</text>
<circle data-id="37510348" cx="22.56" cy="-51.25" r="0.07px"/>
<text data-id="37510348" x="22.56" y="-51.25">Lublin</text>
<circle data-id="83398860" cx="22.62" cy="-54.17" r="0.07px"/>
<text data-id="83398860" x="22.62" y="-54.17">Filipów</text>
<circle data-id="38265552" cx="17.56" cy="-54.76" r="0.07px"/>
<text data-id="38265552" x="17.56" y="-54.76">Leba</text>
<circle data-id="38077137" cx="15.30" cy="-53.62" r="0.07px"/>
<text data-id="38077137" x="15.30" y="-53.62">Bienice</text>
<circle data-id="82341589" cx="21.94" cy="-53.81" r="0.07px"/>
<text data-id="82341589" x="21.94" y="-53.81">Orzysz</text>
<circle data-id="15575" cx="21.01" cy="-52.23" r="0.07px"/>
<text data-id="15575" x="21.01" y="-52.23">Warsaw</text>
<circle data-id="13843673" cx="23.55" cy="-51.55" r="0.07px"/>
<text data-id="13843673" x="23.55" y="-51.55">Włodawa</text>
<circle data-id="82344678" cx="17.45" cy="-53.16" r="0.07px"/>
<text data-id="82344678" x="17.45" y="-53.16">Sadki</text>
<circle data-id="37512425" cx="19.36" cy="-51.66" r="0.07px"/>
<text data-id="37512425" x="19.36" y="-51.66">Pabianice</text>
<circle data-id="38004459" cx="16.01" cy="-52.20" r="0.07px"/>
<text data-id="38004459" x="16.01" y="-52.20">Belęcin</text>
<circle data-id="82251500" cx="17.88" cy="-52.29" r="0.07px"/>
<text data-id="82251500" x="17.88" y="-52.29">Słupca</text>
<circle data-id="51954" cx="17.92" cy="-50.67" r="0.07px"/>
<text data-id="51954" x="17.92" y="-50.67">Opole</text>
<circle data-id="15607" cx="18.52" cy="-53.79" r="0.07px"/>
<text data-id="15607" x="18.52" y="-53.79">Skórcz</text>
<circle data-id="38075642" cx="18.09" cy="-51.75" r="0.07px"/>
<text data-id="38075642" x="18.09" y="-51.75">Kalisz</text>
<circle data-id="39252231" cx="22.69" cy="-50.26" r="0.07px"/>
<text data-id="39252231" x="22.69" y="-50.26">Adamówka</text>
<circle data-id="38178066" cx="16.07" cy="-51.50" r="0.07px"/>
<text data-id="38178066" x="16.07" y="-51.50">Polkowice</text>
<circle data-id="23230751" cx="22.05" cy="-50.58" r="0.07px"/>
<text data-id="23230751" x="22.05" y="-50.58">Stalowa Wola</text>
<circle data-id="38075168" cx="20.04" cy="-52.30" r="0.07px"/>
<text data-id="38075168" x="20.04" y="-52.30">Brzozów Stary</text>
<circle data-id="37510971" cx="18.66" cy="-54.35" r="0.07px"/>
<text data-id="37510971" x="18.66" y="-54.35">Gdansk</text>
<circle data-id="38112571" cx="18.87" cy="-51.12" r="0.07px"/>
<text data-id="38112571" x="18.87" y="-51.12">Działoszyn</text>
<circle data-id="20125514" cx="20.98" cy="-50.17" r="0.07px"/>
<text data-id="20125514" x="20.98" y="-50.17">Dąbrowa Tarnowska</text>
<circle data-id="38071638" cx="16.38" cy="-52.71" r="0.07px"/>
<text data-id="38071638" x="16.38" y="-52.71">Wronki</text>
<circle data-id="82345310" cx="21.52" cy="-54.22" r="0.07px"/>
<text data-id="82345310" x="21.52" y="-54.22">Srokowo</text>
<circle data-id="12677472" cx="23.16" cy="-53.13" r="0.07px"/>
<text data-id="12677472" x="23.16" y="-53.13">Bialystok</text>
<circle data-id="82341217" cx="22.32" cy="-49.47" r="0.07px"/>
<text data-id="82341217" x="22.32" y="-49.47">Lesko</text>
<circle data-id="3279203" cx="14.52" cy="-53.42" r="0.07px"/>
<text data-id="3279203" x="14.52" y="-53.42">Szczecin</text>
<circle data-id="39187300" cx="22.28" cy="-52.17" r="0.07px"/>
<text data-id="39187300" x="22.28" y="-52.17">Siedlce</text>
<circle data-id="82338149" cx="18.69" cy="-53.29" r="0.07px"/>
<text data-id="82338149" x="18.69" y="-53.29">Lisewo</text>
<circle data-id="39187301" cx="18.26" cy="-52.79" r="0.07px"/>
<text data-id="39187301" x="18.26" y="-52.79">Inowrocław</text>
<circle data-id="39207783" cx="17.45" cy="-51.70" r="0.07px"/>
<text data-id="39207783" x="17.45" y="-51.70">Krotoszyn</text>
<circle data-id="82341224" cx="16.31" cy="-52.36" r="0.07px"/>
<text data-id="82341224" x="16.31" y="-52.36">Kuślin</text>
<circle data-id="30905195" cx="17.51" cy="-51.97" r="0.07px"/>
<text data-id="30905195" x="17.51" y="-51.97">Jarocin</text>
<circle data-id="3291501" cx="19.38" cy="-52.98" r="0.07px"/>
<text data-id="3291501" x="19.38" y="-52.98">Rogowo</text>
<circle data-id="3291505" cx="18.01" cy="-53.13" r="0.07px"/>
<text data-id="3291505" x="18.01" y="-53.13">Bydgoszcz</text>
<circle data-id="3291506" cx="18.62" cy="-53.02" r="0.07px"/>
<text data-id="3291506" x="18.62" y="-53.02">Torun</text>
<circle data-id="82342771" cx="16.83" cy="-52.82" r="0.07px"/>
<text data-id="82342771" x="16.83" y="-52.82">Gmina Ryczywół</text>
<circle data-id="20785014" cx="22.24" cy="-52.41" r="0.07px"/>
<text data-id="20785014" x="22.24" y="-52.41">Sokołów Podlaski</text>
<circle data-id="3291520" cx="22.07" cy="-53.17" r="0.07px"/>
<text data-id="3291520" x="22.07" y="-53.17">Łomża</text>
<circle data-id="3291522" cx="17.03" cy="-54.47" r="0.07px"/>
<text data-id="3291522" x="17.03" y="-54.47">Słupsk</text>
<circle data-id="82338181" cx="20.10" cy="-50.68" r="0.07px"/>
<text data-id="82338181" x="20.10" y="-50.68">Nagłowice</text>
<circle data-id="82338196" cx="21.46" cy="-51.48" r="0.07px"/>
<text data-id="82338196" x="21.46" y="-51.48">Pionki</text>
<circle data-id="38003616" cx="21.07" cy="-51.04" r="0.07px"/>
<text data-id="38003616" x="21.07" y="-51.04">Starachowice</text>
<circle data-id="38073765" cx="20.24" cy="-50.34" r="0.07px"/>
<text data-id="38073765" x="20.24" y="-50.34">Racławice-Las</text>
<circle data-id="38011303" cx="16.01" cy="-53.54" r="0.07px"/>
<text data-id="38011303" x="16.01" y="-53.54">Złocieniec</text>
<circle data-id="38004135" cx="17.73" cy="-52.85" r="0.07px"/>
<text data-id="38004135" x="17.73" y="-52.85">Żnin</text>
<circle data-id="38011308" cx="22.77" cy="-49.79" r="0.07px"/>
<text data-id="38011308" x="22.77" y="-49.79">Przemyśl</text>
<circle data-id="100866990" cx="16.66" cy="-50.44" r="0.07px"/>
<text data-id="100866990" x="16.66" y="-50.44">Kłodzko</text>
<circle data-id="7494575" cx="18.74" cy="-51.59" r="0.07px"/>
<text data-id="7494575" x="18.74" y="-51.59">Sieradz</text>
<circle data-id="37512629" cx="20.27" cy="-53.27" r="0.07px"/>
<text data-id="37512629" x="20.27" y="-53.27">Sarnowo</text>
<circle data-id="7108" cx="23.13" cy="-50.16" r="0.07px"/>
<text data-id="7108" x="23.13" y="-50.16">Lubaczów</text>
<circle data-id="38077386" cx="18.29" cy="-50.51" r="0.07px"/>
<text data-id="38077386" x="18.29" y="-50.51">Strzelce Opolskie</text>
<circle data-id="38005714" cx="20.50" cy="-53.78" r="0.07px"/>
<text data-id="38005714" x="20.50" y="-53.78">Olsztyn</text>
<circle data-id="7513045" cx="17.03" cy="-51.10" r="0.07px"/>
<text data-id="7513045" x="17.03" y="-51.10">Wroclaw</text>
<circle data-id="20514773" cx="16.94" cy="-52.43" r="0.07px"/>
<text data-id="20514773" x="16.94" y="-52.43">Poznan</text>
<circle data-id="82353632" cx="20.10" cy="-52.99" r="0.07px"/>
<text data-id="82353632" x="20.10" y="-52.99">Bielawy</text>
<circle data-id="82338802" cx="15.27" cy="-52.68" r="0.07px"/>
<text data-id="82338802" x="15.27" y="-52.68">Karnin</text>
</svg>
