<svg id="topo" viewBox="-13.69 -568.98 584.40 557.27" xmlns="http://www.w3.org/2000/svg">
<style>#topo path {fill: none; stroke: grey; stroke-width: 5.0000px;} #topo circle {fill: lightblue; stroke: none; stroke-width: 0.3px; vector-effect: non-scaling-stroke; r: 10.0000px;} #topo text {fill: black; stroke: none; font-size: 15.0000px; font-family: sans-serif; text-anchor:middle; transform: translateY(0.3em);} #topo path.country {fill: lightgrey; stroke: black; stroke-width: 1px; vector-effect: non-scaling-stroke; visibility: visible;} #topo path.selection {fill: none; stroke: red; stroke-width: 1px; vector-effect: non-scaling-stroke; visibility: visible;} #topo path.utilization {visibility: hidden;}</style>
<path data-id="0-2" d="M295.27,-158.40,115.03,-140.92"/>
<path data-id="0-10" d="M295.27,-158.40,293.14,-37.04"/>
<path data-id="0-16" d="M295.27,-158.40,480.39,-138.04"/>
<path data-id="0-29" d="M295.27,-158.40,280.66,-230.12"/>
<path data-id="1-11" d="M16.45,-358.01,12.88,-441.08"/>
<path data-id="1-14" d="M16.45,-358.01,61.21,-270.82"/>
<path data-id="1-21" d="M16.45,-358.01,102.08,-353.49"/>
<path data-id="2-6" d="M115.03,-140.92,132.92,-39.79"/>
<path data-id="2-14" d="M115.03,-140.92,61.21,-270.82"/>
<path data-id="2-17" d="M115.03,-140.92,44.01,-133.22"/>
<path data-id="2-20" d="M115.03,-140.92,164.84,-286.87"/>
<path data-id="2-29" d="M115.03,-140.92,280.66,-230.12"/>
<path data-id="3-13" d="M217.55,-351.41,309.82,-369.11"/>
<path data-id="3-19" d="M217.55,-351.41,224.42,-410.74"/>
<path data-id="3-20" d="M217.55,-351.41,164.84,-286.87"/>
<path data-id="3-21" d="M217.55,-351.41,102.08,-353.49"/>
<path data-id="3-29" d="M217.55,-351.41,280.66,-230.12"/>
<path data-id="4-25" d="M541.59,-252.79,517.51,-259.76"/>
<path data-id="5-9" d="M544.15,-543.65,532.48,-358.44"/>
<path data-id="5-28" d="M544.15,-543.65,375.77,-453.52"/>
<path data-id="6-10" d="M132.92,-39.79,293.14,-37.04"/>
<path data-id="7-11" d="M87.58,-461.13,12.88,-441.08"/>
<path data-id="7-15" d="M87.58,-461.13,169.35,-454.25"/>
<path data-id="7-21" d="M87.58,-461.13,102.08,-353.49"/>
<path data-id="7-24" d="M87.58,-461.13,37.39,-513.36"/>
<path data-id="8-22" d="M328.39,-502.51,281.04,-472.50"/>
<path data-id="8-26" d="M328.39,-502.51,266.00,-510.77"/>
<path data-id="8-28" d="M328.39,-502.51,375.77,-453.52"/>
<path data-id="9-23" d="M532.48,-358.44,519.49,-284.83"/>
<path data-id="9-27" d="M532.48,-358.44,380.79,-369.70"/>
<path data-id="10-16" d="M293.14,-37.04,480.39,-138.04"/>
<path data-id="11-24" d="M12.88,-441.08,37.39,-513.36"/>
<path data-id="12-13" d="M368.05,-417.92,309.82,-369.11"/>
<path data-id="12-22" d="M368.05,-417.92,281.04,-472.50"/>
<path data-id="12-27" d="M368.05,-417.92,380.79,-369.70"/>
<path data-id="12-28" d="M368.05,-417.92,375.77,-453.52"/>
<path data-id="13-19" d="M309.82,-369.11,224.42,-410.74"/>
<path data-id="13-22" d="M309.82,-369.11,281.04,-472.50"/>
<path data-id="13-27" d="M309.82,-369.11,380.79,-369.70"/>
<path data-id="13-29" d="M309.82,-369.11,280.66,-230.12"/>
<path data-id="14-17" d="M61.21,-270.82,44.01,-133.22"/>
<path data-id="14-20" d="M61.21,-270.82,164.84,-286.87"/>
<path data-id="14-21" d="M61.21,-270.82,102.08,-353.49"/>
<path data-id="15-18" d="M169.35,-454.25,172.32,-421.55"/>
<path data-id="15-26" d="M169.35,-454.25,266.00,-510.77"/>
<path data-id="16-25" d="M480.39,-138.04,517.51,-259.76"/>
<path data-id="18-19" d="M172.32,-421.55,224.42,-410.74"/>
<path data-id="18-21" d="M172.32,-421.55,102.08,-353.49"/>
<path data-id="19-22" d="M224.42,-410.74,281.04,-472.50"/>
<path data-id="20-21" d="M164.84,-286.87,102.08,-353.49"/>
<path data-id="20-29" d="M164.84,-286.87,280.66,-230.12"/>
<path data-id="22-26" d="M281.04,-472.50,266.00,-510.77"/>
<path data-id="23-25" d="M519.49,-284.83,517.51,-259.76"/>
<path data-id="23-27" d="M519.49,-284.83,380.79,-369.70"/>
<path data-id="25-29" d="M517.51,-259.76,280.66,-230.12"/>
<circle data-id="0" cx="295.27" cy="-158.40" r="10.00px"/>
<text data-id="0" x="295.27" y="-158.40">R0</text>
<circle data-id="1" cx="16.45" cy="-358.01" r="10.00px"/>
<text data-id="1" x="16.45" y="-358.01">R1</text>
<circle data-id="2" cx="115.03" cy="-140.92" r="10.00px"/>
<text data-id="2" x="115.03" y="-140.92">R2</text>
<circle data-id="3" cx="217.55" cy="-351.41" r="10.00px"/>
<text data-id="3" x="217.55" y="-351.41">R3</text>
<circle data-id="4" cx="541.59" cy="-252.79" r="10.00px"/>
<text data-id="4" x="541.59" y="-252.79">R4</text>
<circle data-id="5" cx="544.15" cy="-543.65" r="10.00px"/>
<text data-id="5" x="544.15" y="-543.65">R5</text>
<circle data-id="6" cx="132.92" cy="-39.79" r="10.00px"/>
<text data-id="6" x="132.92" y="-39.79">R6</text>
<circle data-id="7" cx="87.58" cy="-461.13" r="10.00px"/>
<text data-id="7" x="87.58" y="-461.13">R7</text>
<circle data-id="8" cx="328.39" cy="-502.51" r="10.00px"/>
<text data-id="8" x="328.39" y="-502.51">R8</text>
<circle data-id="9" cx="532.48" cy="-358.44" r="10.00px"/>
<text data-id="9" x="532.48" y="-358.44">R9</text>
<circle data-id="10" cx="293.14" cy="-37.04" r="10.00px"/>
<text data-id="10" x="293.14" y="-37.04">R10</text>
<circle data-id="11" cx="12.88" cy="-441.08" r="10.00px"/>
<text data-id="11" x="12.88" y="-441.08">R11</text>
<circle data-id="12" cx="368.05" cy="-417.92" r="10.00px"/>
<text data-id="12" x="368.05" y="-417.92">R12</text>
<circle data-id="13" cx="309.82" cy="-369.11" r="10.00px"/>
<text data-id="13" x="309.82" y="-369.11">R13</text>
<circle data-id="14" cx="61.21" cy="-270.82" r="10.00px"/>
<text data-id="14" x="61.21" y="-270.82">R14</text>
<circle data-id="15" cx="169.35" cy="-454.25" r="10.00px"/>
<text data-id="15" x="169.35" y="-454.25">R15</text>
<circle data-id="16" cx="480.39" cy="-138.04" r="10.00px"/>
<text data-id="16" x="480.39" y="-138.04">R16</text>
<circle data-id="17" cx="44.01" cy="-133.22" r="10.00px"/>
<text data-id="17" x="44.01" y="-133.22">R17</text>
<circle data-id="18" cx="172.32" cy="-421.55" r="10.00px"/>
<text data-id="18" x="172.32" y="-421.55">R18</text>
<circle data-id="19" cx="224.42" cy="-410.74" r="10.00px"/>
<text data-id="19" x="224.42" y="-410.74">R19</text>
<circle data-id="20" cx="164.84" cy="-286.87" r="10.00px"/>
<text data-id="20" x="164.84" y="-286.87">R20</text>
<circle data-id="21" cx="102.08" cy="-353.49" r="10.00px"/>
<text data-id="21" x="102.08" y="-353.49">R21</text>
<circle data-id="22" cx="281.04" cy="-472.50" r="10.00px"/>
<text data-id="22" x="281.04" y="-472.50">R22</text>
<circle data-id="23" cx="519.49" cy="-284.83" r="10.00px"/>
<text data-id="23" x="519.49" y="-284.83">R23</text>
<circle data-id="24" cx="37.39" cy="-513.36" r="10.00px"/>
<text data-id="24" x="37.39" y="-513.36">R24</text>
<circle data-id="25" cx="517.51" cy="-259.76" r="10.00px"/>
<text data-id="25" x="517.51" y="-259.76">R25</text>
<circle data-id="26" cx="266.00" cy="-510.77" r="10.00px"/>
<text data-id="26" x="266.00" y="-510.77">R26</text>
<circle data-id="27" cx="380.79" cy="-369.70" r="10.00px"/>
<text data-id="27" x="380.79" y="-369.70">R27</text>
<circle data-id="28" cx="375.77" cy="-453.52" r="10.00px"/>
<text data-id="28" x="375.77" y="-453.52">R28</text>
<circle data-id="29" cx="280.66" cy="-230.12" r="10.00px"/>
<text data-id="29" x="280.66" y="-230.12">R29</text>
</svg>
