<svg id="topo" viewBox="-21.49 -565.93 590.02 589.69" xmlns="http://www.w3.org/2000/svg">
<style>#topo path {fill: none; stroke: grey; stroke-width: 5.0000px;} #topo circle {fill: lightblue; stroke: none; stroke-width: 0.3px; vector-effect: non-scaling-stroke; r: 10.0000px;} #topo text {fill: black; stroke: none; font-size: 15.0000px; font-family: sans-serif; text-anchor:middle; transform: translateY(0.3em);} #topo path.country {fill: lightgrey; stroke: black; stroke-width: 1px; vector-effect: non-scaling-stroke; visibility: visible;} #topo path.selection {fill: none; stroke: red; stroke-width: 1px; vector-effect: non-scaling-stroke; visibility: visible;} #topo path.utilization {visibility: hidden;}</style>
<path data-id="0-7" d="M334.01,-34.04,420.54,-210.46"/>
<path data-id="0-18" d="M334.01,-34.04,255.68,-87.18"/>
<path data-id="0-24" d="M334.01,-34.04,379.37,-8.61"/>
<path data-id="1-27" d="M56.02,-507.22,105.15,-488.30"/>
<path data-id="1-28" d="M56.02,-507.22,54.68,-451.73"/>
<path data-id="2-17" d="M509.54,-539.13,405.08,-350.03"/>
<path data-id="2-23" d="M509.54,-539.13,238.72,-469.37"/>
<path data-id="3-22" d="M188.24,-484.81,202.15,-402.89"/>
<path data-id="3-23" d="M188.24,-484.81,238.72,-469.37"/>
<path data-id="3-27" d="M188.24,-484.81,105.15,-488.30"/>
<path data-id="4-7" d="M322.81,-206.11,420.54,-210.46"/>
<path data-id="4-9" d="M322.81,-206.11,374.80,-327.54"/>
<path data-id="4-11" d="M322.81,-206.11,211.24,-263.04"/>
<path data-id="4-16" d="M322.81,-206.11,412.18,-288.31"/>
<path data-id="4-19" d="M322.81,-206.11,250.49,-166.55"/>
<path data-id="5-12" d="M168.63,-351.17,151.55,-332.00"/>
<path data-id="5-22" d="M168.63,-351.17,202.15,-402.89"/>
<path data-id="5-28" d="M168.63,-351.17,54.68,-451.73"/>
<path data-id="6-7" d="M513.77,-271.19,420.54,-210.46"/>
<path data-id="6-14" d="M513.77,-271.19,541.71,-191.24"/>
<path data-id="6-16" d="M513.77,-271.19,412.18,-288.31"/>
<path data-id="7-13" d="M420.54,-210.46,513.90,-154.98"/>
<path data-id="7-16" d="M420.54,-210.46,412.18,-288.31"/>
<path data-id="8-10" d="M26.01,-333.58,69.47,-331.49"/>
<path data-id="8-21" d="M26.01,-333.58,20.17,-376.85"/>
<path data-id="8-25" d="M26.01,-333.58,5.33,-297.09"/>
<path data-id="9-16" d="M374.80,-327.54,412.18,-288.31"/>
<path data-id="9-17" d="M374.80,-327.54,405.08,-350.03"/>
<path data-id="9-20" d="M374.80,-327.54,323.98,-355.11"/>
<path data-id="10-12" d="M69.47,-331.49,151.55,-332.00"/>
<path data-id="10-26" d="M69.47,-331.49,88.53,-162.19"/>
<path data-id="11-12" d="M211.24,-263.04,151.55,-332.00"/>
<path data-id="11-19" d="M211.24,-263.04,250.49,-166.55"/>
<path data-id="11-20" d="M211.24,-263.04,323.98,-355.11"/>
<path data-id="11-26" d="M211.24,-263.04,88.53,-162.19"/>
<path data-id="12-26" d="M151.55,-332.00,88.53,-162.19"/>
<path data-id="13-14" d="M513.90,-154.98,541.71,-191.24"/>
<path data-id="13-24" d="M513.90,-154.98,379.37,-8.61"/>
<path data-id="15-18" d="M266.78,-113.69,255.68,-87.18"/>
<path data-id="15-19" d="M266.78,-113.69,250.49,-166.55"/>
<path data-id="16-17" d="M412.18,-288.31,405.08,-350.03"/>
<path data-id="18-29" d="M255.68,-87.18,137.53,-3.04"/>
<path data-id="19-26" d="M250.49,-166.55,88.53,-162.19"/>
<path data-id="20-22" d="M323.98,-355.11,202.15,-402.89"/>
<path data-id="20-23" d="M323.98,-355.11,238.72,-469.37"/>
<path data-id="21-28" d="M20.17,-376.85,54.68,-451.73"/>
<path data-id="22-23" d="M202.15,-402.89,238.72,-469.37"/>
<path data-id="25-26" d="M5.33,-297.09,88.53,-162.19"/>
<path data-id="26-29" d="M88.53,-162.19,137.53,-3.04"/>
<path data-id="27-28" d="M105.15,-488.30,54.68,-451.73"/>
<circle data-id="0" cx="334.01" cy="-34.04" r="10.00px"/>
<text data-id="0" x="334.01" y="-34.04">R0</text>
<circle data-id="1" cx="56.02" cy="-507.22" r="10.00px"/>
<text data-id="1" x="56.02" y="-507.22">R1</text>
<circle data-id="2" cx="509.54" cy="-539.13" r="10.00px"/>
<text data-id="2" x="509.54" y="-539.13">R2</text>
<circle data-id="3" cx="188.24" cy="-484.81" r="10.00px"/>
<text data-id="3" x="188.24" y="-484.81">R3</text>
<circle data-id="4" cx="322.81" cy="-206.11" r="10.00px"/>
<text data-id="4" x="322.81" y="-206.11">R4</text>
<circle data-id="5" cx="168.63" cy="-351.17" r="10.00px"/>
<text data-id="5" x="168.63" y="-351.17">R5</text>
<circle data-id="6" cx="513.77" cy="-271.19" r="10.00px"/>
<text data-id="6" x="513.77" y="-271.19">R6</text>
<circle data-id="7" cx="420.54" cy="-210.46" r="10.00px"/>
<text data-id="7" x="420.54" y="-210.46">R7</text>
<circle data-id="8" cx="26.01" cy="-333.58" r="10.00px"/>
<text data-id="8" x="26.01" y="-333.58">R8</text>
<circle data-id="9" cx="374.80" cy="-327.54" r="10.00px"/>
<text data-id="9" x="374.80" y="-327.54">R9</text>
<circle data-id="10" cx="69.47" cy="-331.49" r="10.00px"/>
<text data-id="10" x="69.47" y="-331.49">R10</text>
<circle data-id="11" cx="211.24" cy="-263.04" r="10.00px"/>
<text data-id="11" x="211.24" y="-263.04">R11</text>
<circle data-id="12" cx="151.55" cy="-332.00" r="10.00px"/>
<text data-id="12" x="151.55" y="-332.00">R12</text>
<circle data-id="13" cx="513.90" cy="-154.98" r="10.00px"/>
<text data-id="13" x="513.90" y="-154.98">R13</text>
<circle data-id="14" cx="541.71" cy="-191.24" r="10.00px"/>
<text data-id="14" x="541.71" y="-191.24">R14</text>
<circle data-id="15" cx="266.78" cy="-113.69" r="10.00px"/>
<text data-id="15" x="266.78" y="-113.69">R15</text>
<circle data-id="16" cx="412.18" cy="-288.31" r="10.00px"/>
<text data-id="16" x="412.18" y="-288.31">R16</text>
<circle data-id="17" cx="405.08" cy="-350.03" r="10.00px"/>
<text data-id="17" x="405.08" y="-350.03">R17</text>
<circle data-id="18" cx="255.68" cy="-87.18" r="10.00px"/>
<text data-id="18" x="255.68" y="-87.18">R18</text>
<circle data-id="19" cx="250.49" cy="-166.55" r="10.00px"/>
<text data-id="19" x="250.49" y="-166.55">R19</text>
<circle data-id="20" cx="323.98" cy="-355.11" r="10.00px"/>
<text data-id="20" x="323.98" y="-355.11">R20</text>
<circle data-id="21" cx="20.17" cy="-376.85" r="10.00px"/>
<text data-id="21" x="20.17" y="-376.85">R21</text>
<circle data-id="22" cx="202.15" cy="-402.89" r="10.00px"/>
<text data-id="22" x="202.15" y="-402.89">R22</text>
<circle data-id="23" cx="238.72" cy="-469.37" r="10.00px"/>
<text data-id="23" x="238.72" y="-469.37">R23</text>
<circle data-id="24" cx="379.37" cy="-8.61" r="10.00px"/>
<text data-id="24" x="379.37" y="-8.61">R24</text>
<circle data-id="25" cx="5.33" cy="-297.09" r="10.00px"/>
<text data-id="25" x="5.33" y="-297.09">R25</text>
<circle data-id="26" cx="88.53" cy="-162.19" r="10.00px"/>
<text data-id="26" x="88.53" y="-162.19">R26</text>
<circle data-id="27" cx="105.15" cy="-488.30" r="10.00px"/>
<text data-id="27" x="105.15" y="-488.30">R27</text>
<circle data-id="28" cx="54.68" cy="-451.73" r="10.00px"/>
<text data-id="28" x="54.68" y="-451.73">R28</text>
<circle data-id="29" cx="137.53" cy="-3.04" r="10.00px"/>
<text data-id="29" x="137.53" y="-3.04">R29</text>
</svg>
