<svg width="582.36" height="586.90" viewBox="-41.01 -43.90 582.36 586.90" xmlns="http://www.w3.org/2000/svg">
<style>path {fill: none; stroke: grey; stroke-width: 6;} circle {fill: lightblue; stroke: none;} text {fill: black; stroke: none; font-size: 16; font-family: sans-serif; text-anchor:middle;}</style>
<path d="M49.75,355.01,3.99,348.07"/>
<path d="M49.75,355.01,76.36,304.52"/>
<path d="M49.75,355.01,127.22,416.41"/>
<path d="M227.94,181.88,297.52,247.93"/>
<path d="M227.94,181.88,188.85,245.28"/>
<path d="M227.94,181.88,194.54,141.97"/>
<path d="M227.94,181.88,342.86,78.95"/>
<path d="M227.94,181.88,383.53,154.83"/>
<path d="M227.94,181.88,229.16,249.34"/>
<path d="M226.26,377.62,288.09,483.98"/>
<path d="M226.26,377.62,201.78,491.81"/>
<path d="M226.26,377.62,194.76,363.01"/>
<path d="M226.26,377.62,386.63,380.34"/>
<path d="M484.65,498.00,446.09,424.99"/>
<path d="M446.09,424.99,386.63,380.34"/>
<path d="M297.52,247.93,400.28,311.17"/>
<path d="M297.52,247.93,383.53,154.83"/>
<path d="M297.52,247.93,229.16,249.34"/>
<path d="M400.28,311.17,430.95,305.22"/>
<path d="M400.28,311.17,386.63,380.34"/>
<path d="M400.28,311.17,383.53,154.83"/>
<path d="M430.95,305.22,496.35,238.96"/>
<path d="M430.95,305.22,383.53,154.83"/>
<path d="M188.85,245.28,76.36,304.52"/>
<path d="M188.85,245.28,24.96,200.39"/>
<path d="M188.85,245.28,194.76,363.01"/>
<path d="M188.85,245.28,229.16,249.34"/>
<path d="M168.55,34.23,194.54,141.97"/>
<path d="M168.55,34.23,342.86,78.95"/>
<path d="M168.55,34.23,57.39,1.10"/>
<path d="M76.36,304.52,24.96,200.39"/>
<path d="M76.36,304.52,194.76,363.01"/>
<path d="M288.09,483.98,201.78,491.81"/>
<path d="M288.09,483.98,386.63,380.34"/>
<path d="M201.78,491.81,127.22,416.41"/>
<path d="M127.22,416.41,194.76,363.01"/>
<path d="M496.35,238.96,492.49,204.58"/>
<path d="M24.96,200.39,194.54,141.97"/>
<path d="M24.96,200.39,57.39,1.10"/>
<path d="M194.54,141.97,342.86,78.95"/>
<path d="M194.76,363.01,229.16,249.34"/>
<path d="M342.86,78.95,383.53,154.83"/>
<path d="M383.53,154.83,492.49,204.58"/>
<circle cx="49.75" cy="355.01" r="10"/>
<text x="49.75" y="360.01">R0</text>
<circle cx="227.94" cy="181.88" r="10"/>
<text x="227.94" y="186.88">R1</text>
<circle cx="3.99" cy="348.07" r="10"/>
<text x="3.99" y="353.07">R2</text>
<circle cx="226.26" cy="377.62" r="10"/>
<text x="226.26" y="382.62">R3</text>
<circle cx="484.65" cy="498.00" r="10"/>
<text x="484.65" y="503.00">R4</text>
<circle cx="446.09" cy="424.99" r="10"/>
<text x="446.09" y="429.99">R5</text>
<circle cx="297.52" cy="247.93" r="10"/>
<text x="297.52" y="252.93">R6</text>
<circle cx="400.28" cy="311.17" r="10"/>
<text x="400.28" y="316.17">R7</text>
<circle cx="430.95" cy="305.22" r="10"/>
<text x="430.95" y="310.22">R8</text>
<circle cx="188.85" cy="245.28" r="10"/>
<text x="188.85" y="250.28">R9</text>
<circle cx="168.55" cy="34.23" r="10"/>
<text x="168.55" y="39.23">R10</text>
<circle cx="76.36" cy="304.52" r="10"/>
<text x="76.36" y="309.52">R11</text>
<circle cx="288.09" cy="483.98" r="10"/>
<text x="288.09" y="488.98">R12</text>
<circle cx="201.78" cy="491.81" r="10"/>
<text x="201.78" y="496.81">R13</text>
<circle cx="127.22" cy="416.41" r="10"/>
<text x="127.22" y="421.41">R14</text>
<circle cx="496.35" cy="238.96" r="10"/>
<text x="496.35" y="243.96">R15</text>
<circle cx="24.96" cy="200.39" r="10"/>
<text x="24.96" y="205.39">R16</text>
<circle cx="194.54" cy="141.97" r="10"/>
<text x="194.54" y="146.97">R17</text>
<circle cx="194.76" cy="363.01" r="10"/>
<text x="194.76" y="368.01">R18</text>
<circle cx="386.63" cy="380.34" r="10"/>
<text x="386.63" y="385.34">R19</text>
<circle cx="342.86" cy="78.95" r="10"/>
<text x="342.86" y="83.95">R20</text>
<circle cx="57.39" cy="1.10" r="10"/>
<text x="57.39" y="6.10">R21</text>
<circle cx="383.53" cy="154.83" r="10"/>
<text x="383.53" y="159.83">R22</text>
<circle cx="229.16" cy="249.34" r="10"/>
<text x="229.16" y="254.34">R23</text>
<circle cx="492.49" cy="204.58" r="10"/>
<text x="492.49" y="209.58">R24</text>
</svg>
