<svg id="topo" width="572.96" height="574.38" viewBox="-39.49 -34.31 572.96 574.38" xmlns="http://www.w3.org/2000/svg">
<style>#topo path {fill: none; stroke: grey; stroke-width: 6;} #topo circle {fill: lightblue; stroke: none;} #topo text {fill: black; stroke: none; font-size: 16; font-family: sans-serif; text-anchor:middle;}</style>
<path d="M151.08,215.31,89.05,223.13"/>
<path d="M151.08,215.31,196.08,215.62"/>
<path d="M151.08,215.31,78.68,107.66"/>
<path d="M298.60,321.89,245.61,251.33"/>
<path d="M298.60,321.89,425.21,317.38"/>
<path d="M298.60,321.89,277.39,369.50"/>
<path d="M298.60,321.89,343.24,208.21"/>
<path d="M5.51,30.19,39.46,125.14"/>
<path d="M5.51,30.19,87.74,45.03"/>
<path d="M38.29,203.34,39.46,125.14"/>
<path d="M38.29,203.34,89.05,223.13"/>
<path d="M374.10,13.65,342.92,78.13"/>
<path d="M374.10,13.65,280.55,10.69"/>
<path d="M39.46,125.14,78.68,107.66"/>
<path d="M342.92,78.13,280.55,10.69"/>
<path d="M342.92,78.13,325.27,139.18"/>
<path d="M342.92,78.13,409.00,132.60"/>
<path d="M488.47,388.21,341.84,495.07"/>
<path d="M488.47,388.21,314.39,431.44"/>
<path d="M488.47,388.21,425.21,317.38"/>
<path d="M245.61,251.33,104.54,347.43"/>
<path d="M245.61,251.33,196.08,215.62"/>
<path d="M245.61,251.33,343.24,208.21"/>
<path d="M341.84,495.07,314.39,431.44"/>
<path d="M314.39,431.44,425.21,317.38"/>
<path d="M314.39,431.44,267.97,419.77"/>
<path d="M101.96,71.91,280.55,10.69"/>
<path d="M101.96,71.91,87.74,45.03"/>
<path d="M101.96,71.91,78.68,107.66"/>
<path d="M89.05,223.13,104.54,347.43"/>
<path d="M89.05,223.13,78.68,107.66"/>
<path d="M104.54,347.43,231.09,415.19"/>
<path d="M425.21,317.38,343.24,208.21"/>
<path d="M231.09,415.19,267.97,419.77"/>
<path d="M277.39,369.50,267.97,419.77"/>
<path d="M196.08,215.62,325.27,139.18"/>
<path d="M343.24,208.21,325.27,139.18"/>
<path d="M343.24,208.21,409.00,132.60"/>
<path d="M325.27,139.18,409.00,132.60"/>
<circle cx="151.08" cy="215.31" r="10"/>
<text x="151.08" y="220.31">R0</text>
<circle cx="298.60" cy="321.89" r="10"/>
<text x="298.60" y="326.89">R1</text>
<circle cx="5.51" cy="30.19" r="10"/>
<text x="5.51" y="35.19">R2</text>
<circle cx="38.29" cy="203.34" r="10"/>
<text x="38.29" y="208.34">R3</text>
<circle cx="374.10" cy="13.65" r="10"/>
<text x="374.10" y="18.65">R4</text>
<circle cx="39.46" cy="125.14" r="10"/>
<text x="39.46" y="130.14">R5</text>
<circle cx="342.92" cy="78.13" r="10"/>
<text x="342.92" y="83.13">R6</text>
<circle cx="488.47" cy="388.21" r="10"/>
<text x="488.47" y="393.21">R7</text>
<circle cx="245.61" cy="251.33" r="10"/>
<text x="245.61" y="256.33">R8</text>
<circle cx="341.84" cy="495.07" r="10"/>
<text x="341.84" y="500.07">R9</text>
<circle cx="314.39" cy="431.44" r="10"/>
<text x="314.39" y="436.44">R10</text>
<circle cx="101.96" cy="71.91" r="10"/>
<text x="101.96" y="76.91">R11</text>
<circle cx="89.05" cy="223.13" r="10"/>
<text x="89.05" y="228.13">R12</text>
<circle cx="104.54" cy="347.43" r="10"/>
<text x="104.54" y="352.43">R13</text>
<circle cx="280.55" cy="10.69" r="10"/>
<text x="280.55" y="15.69">R14</text>
<circle cx="425.21" cy="317.38" r="10"/>
<text x="425.21" y="322.38">R15</text>
<circle cx="231.09" cy="415.19" r="10"/>
<text x="231.09" y="420.19">R16</text>
<circle cx="277.39" cy="369.50" r="10"/>
<text x="277.39" y="374.50">R17</text>
<circle cx="196.08" cy="215.62" r="10"/>
<text x="196.08" y="220.62">R18</text>
<circle cx="87.74" cy="45.03" r="10"/>
<text x="87.74" y="50.03">R19</text>
<circle cx="267.97" cy="419.77" r="10"/>
<text x="267.97" y="424.77">R20</text>
<circle cx="78.68" cy="107.66" r="10"/>
<text x="78.68" y="112.66">R21</text>
<circle cx="343.24" cy="208.21" r="10"/>
<text x="343.24" y="213.21">R22</text>
<circle cx="325.27" cy="139.18" r="10"/>
<text x="325.27" y="144.18">R23</text>
<circle cx="409.00" cy="132.60" r="10"/>
<text x="409.00" y="137.60">R24</text>
</svg>
