<svg id="topo" viewBox="18.69 -465.23 494.31 474.40" xmlns="http://www.w3.org/2000/svg">
<style>#topo path {fill: none; stroke: grey; stroke-width: 5.0000px;} #topo circle {fill: lightblue; stroke: none; stroke-width: 0.3px; vector-effect: non-scaling-stroke; r: 10.0000px;} #topo text {fill: black; stroke: none; font-size: 15.0000px; font-family: sans-serif; text-anchor:middle; transform: translateY(0.3em);} #topo path.country {fill: lightgrey; stroke: black; stroke-width: 1px; vector-effect: non-scaling-stroke; visibility: visible;} #topo path.selection {fill: none; stroke: red; stroke-width: 1px; vector-effect: non-scaling-stroke; visibility: visible;} #topo path.utilization {visibility: hidden;}</style>
<path data-id="0-7" d="M139.68,-84.47,119.92,-100.30"/>
<path data-id="0-9" d="M139.68,-84.47,142.91,-112.14"/>
<path data-id="0-12" d="M139.68,-84.47,187.73,-44.59"/>
<path data-id="1-2" d="M344.23,-96.68,278.83,-129.66"/>
<path data-id="1-6" d="M344.23,-96.68,423.29,-241.47"/>
<path data-id="1-19" d="M344.23,-96.68,349.41,-12.40"/>
<path data-id="1-22" d="M344.23,-96.68,290.70,-70.06"/>
<path data-id="1-24" d="M344.23,-96.68,428.96,-43.65"/>
<path data-id="2-14" d="M278.83,-129.66,223.91,-74.66"/>
<path data-id="2-22" d="M278.83,-129.66,290.70,-70.06"/>
<path data-id="2-23" d="M278.83,-129.66,298.18,-238.62"/>
<path data-id="3-4" d="M87.40,-201.62,124.93,-132.95"/>
<path data-id="3-10" d="M87.40,-201.62,53.49,-224.44"/>
<path data-id="3-20" d="M87.40,-201.62,139.24,-237.41"/>
<path data-id="4-7" d="M124.93,-132.95,119.92,-100.30"/>
<path data-id="4-9" d="M124.93,-132.95,142.91,-112.14"/>
<path data-id="5-6" d="M377.49,-299.48,423.29,-241.47"/>
<path data-id="5-16" d="M377.49,-299.48,369.81,-392.06"/>
<path data-id="5-18" d="M377.49,-299.48,490.53,-301.49"/>
<path data-id="5-21" d="M377.49,-299.48,452.59,-398.59"/>
<path data-id="5-23" d="M377.49,-299.48,298.18,-238.62"/>
<path data-id="6-18" d="M423.29,-241.47,490.53,-301.49"/>
<path data-id="7-9" d="M119.92,-100.30,142.91,-112.14"/>
<path data-id="8-15" d="M41.16,-398.41,132.11,-307.87"/>
<path data-id="9-11" d="M142.91,-112.14,167.99,-128.68"/>
<path data-id="11-14" d="M167.99,-128.68,223.91,-74.66"/>
<path data-id="11-20" d="M167.99,-128.68,139.24,-237.41"/>
<path data-id="12-14" d="M187.73,-44.59,223.91,-74.66"/>
<path data-id="13-16" d="M417.40,-443.67,369.81,-392.06"/>
<path data-id="13-21" d="M417.40,-443.67,452.59,-398.59"/>
<path data-id="14-22" d="M223.91,-74.66,290.70,-70.06"/>
<path data-id="15-17" d="M132.11,-307.87,204.03,-339.93"/>
<path data-id="15-20" d="M132.11,-307.87,139.24,-237.41"/>
<path data-id="16-17" d="M369.81,-392.06,204.03,-339.93"/>
<path data-id="16-21" d="M369.81,-392.06,452.59,-398.59"/>
<path data-id="17-23" d="M204.03,-339.93,298.18,-238.62"/>
<path data-id="18-21" d="M490.53,-301.49,452.59,-398.59"/>
<path data-id="19-22" d="M349.41,-12.40,290.70,-70.06"/>
<path data-id="19-24" d="M349.41,-12.40,428.96,-43.65"/>
<path data-id="20-23" d="M139.24,-237.41,298.18,-238.62"/>
<circle data-id="0" cx="139.68" cy="-84.47" r="10.00px"/>
<text data-id="0" x="139.68" y="-84.47">R0</text>
<circle data-id="1" cx="344.23" cy="-96.68" r="10.00px"/>
<text data-id="1" x="344.23" y="-96.68">R1</text>
<circle data-id="2" cx="278.83" cy="-129.66" r="10.00px"/>
<text data-id="2" x="278.83" y="-129.66">R2</text>
<circle data-id="3" cx="87.40" cy="-201.62" r="10.00px"/>
<text data-id="3" x="87.40" y="-201.62">R3</text>
<circle data-id="4" cx="124.93" cy="-132.95" r="10.00px"/>
<text data-id="4" x="124.93" y="-132.95">R4</text>
<circle data-id="5" cx="377.49" cy="-299.48" r="10.00px"/>
<text data-id="5" x="377.49" y="-299.48">R5</text>
<circle data-id="6" cx="423.29" cy="-241.47" r="10.00px"/>
<text data-id="6" x="423.29" y="-241.47">R6</text>
<circle data-id="7" cx="119.92" cy="-100.30" r="10.00px"/>
<text data-id="7" x="119.92" y="-100.30">R7</text>
<circle data-id="8" cx="41.16" cy="-398.41" r="10.00px"/>
<text data-id="8" x="41.16" y="-398.41">R8</text>
<circle data-id="9" cx="142.91" cy="-112.14" r="10.00px"/>
<text data-id="9" x="142.91" y="-112.14">R9</text>
<circle data-id="10" cx="53.49" cy="-224.44" r="10.00px"/>
<text data-id="10" x="53.49" y="-224.44">R10</text>
<circle data-id="11" cx="167.99" cy="-128.68" r="10.00px"/>
<text data-id="11" x="167.99" y="-128.68">R11</text>
<circle data-id="12" cx="187.73" cy="-44.59" r="10.00px"/>
<text data-id="12" x="187.73" y="-44.59">R12</text>
<circle data-id="13" cx="417.40" cy="-443.67" r="10.00px"/>
<text data-id="13" x="417.40" y="-443.67">R13</text>
<circle data-id="14" cx="223.91" cy="-74.66" r="10.00px"/>
<text data-id="14" x="223.91" y="-74.66">R14</text>
<circle data-id="15" cx="132.11" cy="-307.87" r="10.00px"/>
<text data-id="15" x="132.11" y="-307.87">R15</text>
<circle data-id="16" cx="369.81" cy="-392.06" r="10.00px"/>
<text data-id="16" x="369.81" y="-392.06">R16</text>
<circle data-id="17" cx="204.03" cy="-339.93" r="10.00px"/>
<text data-id="17" x="204.03" y="-339.93">R17</text>
<circle data-id="18" cx="490.53" cy="-301.49" r="10.00px"/>
<text data-id="18" x="490.53" y="-301.49">R18</text>
<circle data-id="19" cx="349.41" cy="-12.40" r="10.00px"/>
<text data-id="19" x="349.41" y="-12.40">R19</text>
<circle data-id="20" cx="139.24" cy="-237.41" r="10.00px"/>
<text data-id="20" x="139.24" y="-237.41">R20</text>
<circle data-id="21" cx="452.59" cy="-398.59" r="10.00px"/>
<text data-id="21" x="452.59" y="-398.59">R21</text>
<circle data-id="22" cx="290.70" cy="-70.06" r="10.00px"/>
<text data-id="22" x="290.70" y="-70.06">R22</text>
<circle data-id="23" cx="298.18" cy="-238.62" r="10.00px"/>
<text data-id="23" x="298.18" y="-238.62">R23</text>
<circle data-id="24" cx="428.96" cy="-43.65" r="10.00px"/>
<text data-id="24" x="428.96" y="-43.65">R24</text>
</svg>
