<svg id="topo" width="932.61" height="949.58" viewBox="-29.29 -39.39 932.61 949.58" xmlns="http://www.w3.org/2000/svg">
<style>#topo path {fill: none; stroke: grey; stroke-width: 6;} #topo circle {fill: lightblue; stroke: none;} #topo text {fill: black; stroke: none; font-size: 16; font-family: sans-serif; text-anchor:middle;}</style>
<path d="M722.41,642.25,784.82,676.93"/>
<path d="M722.41,642.25,588.86,532.21"/>
<path d="M722.41,642.25,553.06,619.88"/>
<path d="M722.41,642.25,677.91,495.21"/>
<path d="M722.41,642.25,786.09,548.08"/>
<path d="M722.41,642.25,722.54,689.85"/>
<path d="M764.94,216.11,755.70,239.77"/>
<path d="M764.94,216.11,565.04,104.47"/>
<path d="M764.94,216.11,813.74,135.78"/>
<path d="M611.61,498.79,588.86,532.21"/>
<path d="M611.61,498.79,647.80,458.38"/>
<path d="M611.61,498.79,677.91,495.21"/>
<path d="M611.61,498.79,584.18,498.07"/>
<path d="M15.71,229.87,132.25,292.48"/>
<path d="M15.71,229.87,68.73,167.49"/>
<path d="M489.20,863.14,462.75,857.07"/>
<path d="M489.20,863.14,566.86,865.19"/>
<path d="M158.69,356.59,189.62,476.52"/>
<path d="M158.69,356.59,132.25,292.48"/>
<path d="M158.69,356.59,216.54,327.48"/>
<path d="M158.69,356.59,112.98,373.67"/>
<path d="M297.36,698.29,283.04,646.45"/>
<path d="M297.36,698.29,262.95,748.69"/>
<path d="M297.36,698.29,346.43,764.71"/>
<path d="M283.04,646.45,324.61,593.09"/>
<path d="M283.04,646.45,237.93,658.05"/>
<path d="M524.28,228.74,755.70,239.77"/>
<path d="M524.28,228.74,507.13,344.71"/>
<path d="M524.28,228.74,509.60,172.19"/>
<path d="M524.28,228.74,452.03,226.76"/>
<path d="M784.82,676.93,858.32,683.87"/>
<path d="M784.82,676.93,786.09,548.08"/>
<path d="M784.82,676.93,722.54,689.85"/>
<path d="M588.86,532.21,553.06,619.88"/>
<path d="M588.86,532.21,504.78,542.35"/>
<path d="M588.86,532.21,584.18,498.07"/>
<path d="M273.07,230.63,248.46,222.65"/>
<path d="M273.07,230.63,393.83,189.85"/>
<path d="M273.07,230.63,216.54,327.48"/>
<path d="M273.07,230.63,324.19,319.90"/>
<path d="M360.30,836.00,377.98,856.26"/>
<path d="M360.30,836.00,346.43,764.71"/>
<path d="M360.30,836.00,316.30,793.30"/>
<path d="M46.85,542.80,189.62,476.52"/>
<path d="M46.85,542.80,42.14,626.57"/>
<path d="M46.85,542.80,82.31,603.95"/>
<path d="M46.85,542.80,112.98,373.67"/>
<path d="M189.65,712.40,133.65,803.05"/>
<path d="M189.65,712.40,112.15,678.11"/>
<path d="M189.65,712.40,262.95,748.69"/>
<path d="M189.65,712.40,237.93,658.05"/>
<path d="M755.70,239.77,844.49,316.20"/>
<path d="M755.70,239.77,773.19,335.74"/>
<path d="M133.65,803.05,112.15,678.11"/>
<path d="M133.65,803.05,225.19,854.73"/>
<path d="M565.04,104.47,454.33,75.33"/>
<path d="M565.04,104.47,791.86,109.04"/>
<path d="M565.04,104.47,509.60,172.19"/>
<path d="M565.04,104.47,469.15,131.84"/>
<path d="M507.13,344.71,405.37,352.51"/>
<path d="M507.13,344.71,431.99,290.29"/>
<path d="M507.13,344.71,655.10,396.01"/>
<path d="M507.13,344.71,421.73,454.85"/>
<path d="M507.13,344.71,518.76,464.24"/>
<path d="M369.03,410.05,405.37,352.51"/>
<path d="M369.03,410.05,320.90,447.75"/>
<path d="M369.03,410.05,324.19,319.90"/>
<path d="M369.03,410.05,421.73,454.85"/>
<path d="M189.62,476.52,320.90,447.75"/>
<path d="M189.62,476.52,324.61,593.09"/>
<path d="M189.62,476.52,237.93,658.05"/>
<path d="M189.62,476.52,82.31,603.95"/>
<path d="M189.62,476.52,112.98,373.67"/>
<path d="M844.49,316.20,773.19,335.74"/>
<path d="M844.49,316.20,846.80,430.90"/>
<path d="M377.98,856.26,462.75,857.07"/>
<path d="M132.25,292.48,248.46,222.65"/>
<path d="M132.25,292.48,216.54,327.48"/>
<path d="M132.25,292.48,68.73,167.49"/>
<path d="M132.25,292.48,112.98,373.67"/>
<path d="M348.97,525.79,320.90,447.75"/>
<path d="M348.97,525.79,324.61,593.09"/>
<path d="M348.97,525.79,407.80,517.97"/>
<path d="M405.37,352.51,431.99,290.29"/>
<path d="M405.37,352.51,324.19,319.90"/>
<path d="M553.06,619.88,504.78,542.35"/>
<path d="M553.06,619.88,528.88,674.09"/>
<path d="M647.80,458.38,655.10,396.01"/>
<path d="M647.80,458.38,677.91,495.21"/>
<path d="M320.90,447.75,216.54,327.48"/>
<path d="M112.15,678.11,42.14,626.57"/>
<path d="M112.15,678.11,82.31,603.95"/>
<path d="M431.99,290.29,452.03,226.76"/>
<path d="M248.46,222.65,216.54,327.48"/>
<path d="M248.46,222.65,68.73,167.49"/>
<path d="M248.46,222.65,123.01,5.61"/>
<path d="M655.10,396.01,773.19,335.74"/>
<path d="M393.83,189.85,419.10,161.58"/>
<path d="M393.83,189.85,324.19,319.90"/>
<path d="M393.83,189.85,452.03,226.76"/>
<path d="M660.46,780.87,577.12,800.51"/>
<path d="M660.46,780.87,731.75,785.00"/>
<path d="M660.46,780.87,722.54,689.85"/>
<path d="M566.86,865.19,577.12,800.51"/>
<path d="M419.10,161.58,484.05,178.09"/>
<path d="M419.10,161.58,452.03,226.76"/>
<path d="M419.10,161.58,469.15,131.84"/>
<path d="M454.33,75.33,123.01,5.61"/>
<path d="M454.33,75.33,469.15,131.84"/>
<path d="M262.95,748.69,237.93,658.05"/>
<path d="M262.95,748.69,316.30,793.30"/>
<path d="M262.95,748.69,225.19,854.73"/>
<path d="M577.12,800.51,539.43,716.24"/>
<path d="M791.86,109.04,813.74,135.78"/>
<path d="M216.54,327.48,324.19,319.90"/>
<path d="M68.73,167.49,123.01,5.61"/>
<path d="M465.27,533.31,518.76,464.24"/>
<path d="M465.27,533.31,407.80,517.97"/>
<path d="M465.27,533.31,504.78,542.35"/>
<path d="M421.73,454.85,518.76,464.24"/>
<path d="M421.73,454.85,407.80,517.97"/>
<path d="M346.43,764.71,316.30,793.30"/>
<path d="M346.43,764.71,539.43,716.24"/>
<path d="M518.76,464.24,504.78,542.35"/>
<path d="M518.76,464.24,584.18,498.07"/>
<path d="M42.14,626.57,82.31,603.95"/>
<path d="M509.60,172.19,484.05,178.09"/>
<path d="M484.05,178.09,452.03,226.76"/>
<path d="M484.05,178.09,469.15,131.84"/>
<path d="M858.32,683.87,793.60,830.78"/>
<path d="M316.30,793.30,225.19,854.73"/>
<path d="M677.91,495.21,786.09,548.08"/>
<path d="M786.09,548.08,846.80,430.90"/>
<path d="M731.75,785.00,793.60,830.78"/>
<path d="M731.75,785.00,722.54,689.85"/>
<path d="M504.78,542.35,584.18,498.07"/>
<path d="M773.19,335.74,846.80,430.90"/>
<path d="M528.88,674.09,539.43,716.24"/>
<circle cx="722.41" cy="642.25" r="10"/>
<text x="722.41" y="647.25">R0</text>
<circle cx="764.94" cy="216.11" r="10"/>
<text x="764.94" y="221.11">R1</text>
<circle cx="611.61" cy="498.79" r="10"/>
<text x="611.61" y="503.79">R2</text>
<circle cx="15.71" cy="229.87" r="10"/>
<text x="15.71" y="234.87">R3</text>
<circle cx="489.20" cy="863.14" r="10"/>
<text x="489.20" y="868.14">R4</text>
<circle cx="158.69" cy="356.59" r="10"/>
<text x="158.69" y="361.59">R5</text>
<circle cx="297.36" cy="698.29" r="10"/>
<text x="297.36" y="703.29">R6</text>
<circle cx="283.04" cy="646.45" r="10"/>
<text x="283.04" y="651.45">R7</text>
<circle cx="524.28" cy="228.74" r="10"/>
<text x="524.28" y="233.74">R8</text>
<circle cx="784.82" cy="676.93" r="10"/>
<text x="784.82" y="681.93">R9</text>
<circle cx="588.86" cy="532.21" r="10"/>
<text x="588.86" y="537.21">R10</text>
<circle cx="273.07" cy="230.63" r="10"/>
<text x="273.07" y="235.63">R11</text>
<circle cx="360.30" cy="836.00" r="10"/>
<text x="360.30" y="841.00">R12</text>
<circle cx="46.85" cy="542.80" r="10"/>
<text x="46.85" y="547.80">R13</text>
<circle cx="189.65" cy="712.40" r="10"/>
<text x="189.65" y="717.40">R14</text>
<circle cx="755.70" cy="239.77" r="10"/>
<text x="755.70" y="244.77">R15</text>
<circle cx="133.65" cy="803.05" r="10"/>
<text x="133.65" y="808.05">R16</text>
<circle cx="565.04" cy="104.47" r="10"/>
<text x="565.04" y="109.47">R17</text>
<circle cx="507.13" cy="344.71" r="10"/>
<text x="507.13" y="349.71">R18</text>
<circle cx="369.03" cy="410.05" r="10"/>
<text x="369.03" y="415.05">R19</text>
<circle cx="189.62" cy="476.52" r="10"/>
<text x="189.62" y="481.52">R20</text>
<circle cx="844.49" cy="316.20" r="10"/>
<text x="844.49" y="321.20">R21</text>
<circle cx="377.98" cy="856.26" r="10"/>
<text x="377.98" y="861.26">R22</text>
<circle cx="132.25" cy="292.48" r="10"/>
<text x="132.25" y="297.48">R23</text>
<circle cx="348.97" cy="525.79" r="10"/>
<text x="348.97" y="530.79">R24</text>
<circle cx="405.37" cy="352.51" r="10"/>
<text x="405.37" y="357.51">R25</text>
<circle cx="553.06" cy="619.88" r="10"/>
<text x="553.06" y="624.88">R26</text>
<circle cx="647.80" cy="458.38" r="10"/>
<text x="647.80" y="463.38">R27</text>
<circle cx="320.90" cy="447.75" r="10"/>
<text x="320.90" y="452.75">R28</text>
<circle cx="112.15" cy="678.11" r="10"/>
<text x="112.15" y="683.11">R29</text>
<circle cx="431.99" cy="290.29" r="10"/>
<text x="431.99" y="295.29">R30</text>
<circle cx="248.46" cy="222.65" r="10"/>
<text x="248.46" y="227.65">R31</text>
<circle cx="655.10" cy="396.01" r="10"/>
<text x="655.10" y="401.01">R32</text>
<circle cx="393.83" cy="189.85" r="10"/>
<text x="393.83" y="194.85">R33</text>
<circle cx="324.61" cy="593.09" r="10"/>
<text x="324.61" y="598.09">R34</text>
<circle cx="660.46" cy="780.87" r="10"/>
<text x="660.46" y="785.87">R35</text>
<circle cx="462.75" cy="857.07" r="10"/>
<text x="462.75" y="862.07">R36</text>
<circle cx="566.86" cy="865.19" r="10"/>
<text x="566.86" y="870.19">R37</text>
<circle cx="419.10" cy="161.58" r="10"/>
<text x="419.10" y="166.58">R38</text>
<circle cx="454.33" cy="75.33" r="10"/>
<text x="454.33" y="80.33">R39</text>
<circle cx="262.95" cy="748.69" r="10"/>
<text x="262.95" y="753.69">R40</text>
<circle cx="577.12" cy="800.51" r="10"/>
<text x="577.12" y="805.51">R41</text>
<circle cx="791.86" cy="109.04" r="10"/>
<text x="791.86" y="114.04">R42</text>
<circle cx="216.54" cy="327.48" r="10"/>
<text x="216.54" y="332.48">R43</text>
<circle cx="324.19" cy="319.90" r="10"/>
<text x="324.19" y="324.90">R44</text>
<circle cx="68.73" cy="167.49" r="10"/>
<text x="68.73" y="172.49">R45</text>
<circle cx="123.01" cy="5.61" r="10"/>
<text x="123.01" y="10.61">R46</text>
<circle cx="465.27" cy="533.31" r="10"/>
<text x="465.27" y="538.31">R47</text>
<circle cx="237.93" cy="658.05" r="10"/>
<text x="237.93" y="663.05">R48</text>
<circle cx="421.73" cy="454.85" r="10"/>
<text x="421.73" y="459.85">R49</text>
<circle cx="346.43" cy="764.71" r="10"/>
<text x="346.43" y="769.71">R50</text>
<circle cx="518.76" cy="464.24" r="10"/>
<text x="518.76" y="469.24">R51</text>
<circle cx="42.14" cy="626.57" r="10"/>
<text x="42.14" y="631.57">R52</text>
<circle cx="509.60" cy="172.19" r="10"/>
<text x="509.60" y="177.19">R53</text>
<circle cx="484.05" cy="178.09" r="10"/>
<text x="484.05" y="183.09">R54</text>
<circle cx="858.32" cy="683.87" r="10"/>
<text x="858.32" y="688.87">R55</text>
<circle cx="316.30" cy="793.30" r="10"/>
<text x="316.30" y="798.30">R56</text>
<circle cx="452.03" cy="226.76" r="10"/>
<text x="452.03" y="231.76">R57</text>
<circle cx="677.91" cy="495.21" r="10"/>
<text x="677.91" y="500.21">R58</text>
<circle cx="786.09" cy="548.08" r="10"/>
<text x="786.09" y="553.08">R59</text>
<circle cx="82.31" cy="603.95" r="10"/>
<text x="82.31" y="608.95">R60</text>
<circle cx="112.98" cy="373.67" r="10"/>
<text x="112.98" y="378.67">R61</text>
<circle cx="469.15" cy="131.84" r="10"/>
<text x="469.15" y="136.84">R62</text>
<circle cx="407.80" cy="517.97" r="10"/>
<text x="407.80" y="522.97">R63</text>
<circle cx="731.75" cy="785.00" r="10"/>
<text x="731.75" y="790.00">R64</text>
<circle cx="504.78" cy="542.35" r="10"/>
<text x="504.78" y="547.35">R65</text>
<circle cx="793.60" cy="830.78" r="10"/>
<text x="793.60" y="835.78">R66</text>
<circle cx="722.54" cy="689.85" r="10"/>
<text x="722.54" y="694.85">R67</text>
<circle cx="225.19" cy="854.73" r="10"/>
<text x="225.19" y="859.73">R68</text>
<circle cx="813.74" cy="135.78" r="10"/>
<text x="813.74" y="140.78">R69</text>
<circle cx="773.19" cy="335.74" r="10"/>
<text x="773.19" y="340.74">R70</text>
<circle cx="528.88" cy="674.09" r="10"/>
<text x="528.88" y="679.09">R71</text>
<circle cx="584.18" cy="498.07" r="10"/>
<text x="584.18" y="503.07">R72</text>
<circle cx="846.80" cy="430.90" r="10"/>
<text x="846.80" y="435.90">R73</text>
<circle cx="539.43" cy="716.24" r="10"/>
<text x="539.43" y="721.24">R74</text>
</svg>
