<svg width="939.37" height="929.15" viewBox="-43.50 -37.82 939.37 929.15" xmlns="http://www.w3.org/2000/svg">
<style>path {fill: none; stroke: grey; stroke-width: 6;} circle {fill: lightblue; stroke: none;} text {fill: black; stroke: none; font-size: 16; font-family: sans-serif; text-anchor:middle;}</style>
<path d="M641.87,47.10,649.32,100.46"/>
<path d="M641.87,47.10,744.24,59.47"/>
<path d="M641.87,47.10,619.60,100.14"/>
<path d="M649.32,100.46,681.71,185.30"/>
<path d="M649.32,100.46,744.24,59.47"/>
<path d="M649.32,100.46,619.60,100.14"/>
<path d="M318.97,721.50,315.24,466.10"/>
<path d="M318.97,721.50,263.14,746.57"/>
<path d="M318.97,721.50,331.26,751.28"/>
<path d="M318.97,721.50,473.74,542.73"/>
<path d="M842.58,123.66,681.71,185.30"/>
<path d="M842.58,123.66,769.13,270.29"/>
<path d="M842.58,123.66,807.15,38.77"/>
<path d="M735.87,477.27,819.50,487.22"/>
<path d="M735.87,477.27,683.14,401.25"/>
<path d="M735.87,477.27,689.92,539.90"/>
<path d="M735.87,477.27,800.26,334.11"/>
<path d="M337.61,219.27,205.52,172.94"/>
<path d="M337.61,219.27,494.57,102.47"/>
<path d="M337.61,219.27,358.31,258.28"/>
<path d="M337.61,219.27,273.15,23.54"/>
<path d="M337.61,219.27,220.67,246.67"/>
<path d="M653.80,844.33,573.07,846.33"/>
<path d="M653.80,844.33,704.91,809.31"/>
<path d="M653.80,844.33,606.52,789.18"/>
<path d="M442.24,272.58,432.39,354.52"/>
<path d="M442.24,272.58,358.31,258.28"/>
<path d="M442.24,272.58,473.98,287.84"/>
<path d="M214.89,702.63,234.94,725.12"/>
<path d="M214.89,702.63,194.60,652.37"/>
<path d="M850.87,7.18,807.15,38.77"/>
<path d="M786.10,786.23,832.96,680.80"/>
<path d="M786.10,786.23,757.33,647.74"/>
<path d="M786.10,786.23,704.91,809.31"/>
<path d="M681.71,185.30,633.35,240.75"/>
<path d="M681.71,185.30,769.13,270.29"/>
<path d="M681.71,185.30,655.65,252.36"/>
<path d="M501.73,326.10,432.39,354.52"/>
<path d="M501.73,326.10,473.98,287.84"/>
<path d="M501.73,326.10,528.38,331.76"/>
<path d="M406.31,779.58,467.32,833.71"/>
<path d="M406.31,779.58,354.71,783.19"/>
<path d="M406.31,779.58,549.70,632.61"/>
<path d="M767.21,35.77,807.15,38.77"/>
<path d="M767.21,35.77,744.24,59.47"/>
<path d="M261.78,305.41,130.07,488.02"/>
<path d="M261.78,305.41,220.67,246.67"/>
<path d="M261.78,305.41,332.01,288.19"/>
<path d="M261.78,305.41,344.56,438.36"/>
<path d="M577.28,223.58,633.35,240.75"/>
<path d="M577.28,223.58,535.94,214.64"/>
<path d="M577.28,223.58,566.63,335.86"/>
<path d="M577.28,223.58,619.60,100.14"/>
<path d="M59.69,387.90,134.89,295.67"/>
<path d="M59.69,387.90,27.30,410.00"/>
<path d="M59.69,387.90,82.53,469.16"/>
<path d="M432.39,354.52,552.88,483.21"/>
<path d="M432.39,354.52,332.01,288.19"/>
<path d="M432.39,354.52,473.98,287.84"/>
<path d="M432.39,354.52,473.74,542.73"/>
<path d="M432.39,354.52,344.56,438.36"/>
<path d="M633.35,240.75,655.65,252.36"/>
<path d="M633.35,240.75,634.24,288.00"/>
<path d="M819.50,487.22,800.26,334.11"/>
<path d="M234.94,725.12,160.45,826.73"/>
<path d="M234.94,725.12,263.14,746.57"/>
<path d="M609.08,753.13,660.70,655.48"/>
<path d="M609.08,753.13,558.23,782.33"/>
<path d="M609.08,753.13,606.52,789.18"/>
<path d="M609.08,753.13,549.70,632.61"/>
<path d="M205.52,172.94,165.40,79.22"/>
<path d="M205.52,172.94,220.67,246.67"/>
<path d="M51.93,812.58,91.01,822.17"/>
<path d="M494.57,102.47,273.15,23.54"/>
<path d="M494.57,102.47,535.94,214.64"/>
<path d="M494.57,102.47,554.99,77.83"/>
<path d="M660.70,655.48,628.77,632.59"/>
<path d="M660.70,655.48,757.33,647.74"/>
<path d="M660.70,655.48,716.39,590.40"/>
<path d="M1.50,445.44,27.30,410.00"/>
<path d="M1.50,445.44,82.53,469.16"/>
<path d="M358.31,258.28,332.01,288.19"/>
<path d="M769.13,270.29,643.78,328.32"/>
<path d="M769.13,270.29,655.65,252.36"/>
<path d="M769.13,270.29,800.26,334.11"/>
<path d="M832.96,680.80,757.33,647.74"/>
<path d="M160.45,826.73,263.14,746.57"/>
<path d="M160.45,826.73,91.01,822.17"/>
<path d="M643.78,328.32,683.14,401.25"/>
<path d="M643.78,328.32,634.24,288.00"/>
<path d="M643.78,328.32,566.63,335.86"/>
<path d="M134.89,295.67,220.67,246.67"/>
<path d="M130.07,488.02,194.60,652.37"/>
<path d="M130.07,488.02,82.53,469.16"/>
<path d="M130.07,488.02,315.24,466.10"/>
<path d="M273.15,23.54,165.40,79.22"/>
<path d="M552.88,483.21,628.77,632.59"/>
<path d="M552.88,483.21,683.14,401.25"/>
<path d="M552.88,483.21,689.92,539.90"/>
<path d="M552.88,483.21,566.63,335.86"/>
<path d="M552.88,483.21,473.74,542.73"/>
<path d="M552.88,483.21,549.70,632.61"/>
<path d="M628.77,632.59,689.92,539.90"/>
<path d="M628.77,632.59,549.70,632.61"/>
<path d="M165.40,79.22,140.21,41.02"/>
<path d="M655.65,252.36,634.24,288.00"/>
<path d="M683.14,401.25,800.26,334.11"/>
<path d="M757.33,647.74,716.39,590.40"/>
<path d="M27.30,410.00,82.53,469.16"/>
<path d="M573.07,846.33,467.32,833.71"/>
<path d="M573.07,846.33,558.23,782.33"/>
<path d="M573.07,846.33,606.52,789.18"/>
<path d="M689.92,539.90,716.39,590.40"/>
<path d="M467.32,833.71,558.23,782.33"/>
<path d="M332.01,288.19,344.56,438.36"/>
<path d="M634.24,288.00,566.63,335.86"/>
<path d="M194.60,652.37,315.24,466.10"/>
<path d="M473.98,287.84,517.53,249.09"/>
<path d="M558.23,782.33,606.52,789.18"/>
<path d="M528.38,331.76,566.63,335.86"/>
<path d="M517.53,249.09,535.94,214.64"/>
<path d="M354.71,783.19,357.81,828.75"/>
<path d="M354.71,783.19,331.26,751.28"/>
<path d="M554.99,77.83,619.60,100.14"/>
<path d="M315.24,466.10,344.56,438.36"/>
<path d="M263.14,746.57,331.26,751.28"/>
<path d="M473.74,542.73,549.70,632.61"/>
<path d="M473.74,542.73,344.56,438.36"/>
<circle cx="641.87" cy="47.10" r="10"/>
<text x="641.87" y="52.10">R0</text>
<circle cx="649.32" cy="100.46" r="10"/>
<text x="649.32" y="105.46">R1</text>
<circle cx="318.97" cy="721.50" r="10"/>
<text x="318.97" y="726.50">R2</text>
<circle cx="842.58" cy="123.66" r="10"/>
<text x="842.58" y="128.66">R3</text>
<circle cx="735.87" cy="477.27" r="10"/>
<text x="735.87" y="482.27">R4</text>
<circle cx="337.61" cy="219.27" r="10"/>
<text x="337.61" y="224.27">R5</text>
<circle cx="653.80" cy="844.33" r="10"/>
<text x="653.80" y="849.33">R6</text>
<circle cx="442.24" cy="272.58" r="10"/>
<text x="442.24" y="277.58">R7</text>
<circle cx="214.89" cy="702.63" r="10"/>
<text x="214.89" y="707.63">R8</text>
<circle cx="850.87" cy="7.18" r="10"/>
<text x="850.87" y="12.18">R9</text>
<circle cx="786.10" cy="786.23" r="10"/>
<text x="786.10" y="791.23">R10</text>
<circle cx="681.71" cy="185.30" r="10"/>
<text x="681.71" y="190.30">R11</text>
<circle cx="501.73" cy="326.10" r="10"/>
<text x="501.73" y="331.10">R12</text>
<circle cx="406.31" cy="779.58" r="10"/>
<text x="406.31" y="784.58">R13</text>
<circle cx="767.21" cy="35.77" r="10"/>
<text x="767.21" y="40.77">R14</text>
<circle cx="261.78" cy="305.41" r="10"/>
<text x="261.78" y="310.41">R15</text>
<circle cx="577.28" cy="223.58" r="10"/>
<text x="577.28" y="228.58">R16</text>
<circle cx="59.69" cy="387.90" r="10"/>
<text x="59.69" y="392.90">R17</text>
<circle cx="432.39" cy="354.52" r="10"/>
<text x="432.39" y="359.52">R18</text>
<circle cx="633.35" cy="240.75" r="10"/>
<text x="633.35" y="245.75">R19</text>
<circle cx="819.50" cy="487.22" r="10"/>
<text x="819.50" y="492.22">R20</text>
<circle cx="234.94" cy="725.12" r="10"/>
<text x="234.94" y="730.12">R21</text>
<circle cx="609.08" cy="753.13" r="10"/>
<text x="609.08" y="758.13">R22</text>
<circle cx="205.52" cy="172.94" r="10"/>
<text x="205.52" y="177.94">R23</text>
<circle cx="51.93" cy="812.58" r="10"/>
<text x="51.93" y="817.58">R24</text>
<circle cx="494.57" cy="102.47" r="10"/>
<text x="494.57" y="107.47">R25</text>
<circle cx="660.70" cy="655.48" r="10"/>
<text x="660.70" y="660.48">R26</text>
<circle cx="1.50" cy="445.44" r="10"/>
<text x="1.50" y="450.44">R27</text>
<circle cx="358.31" cy="258.28" r="10"/>
<text x="358.31" y="263.28">R28</text>
<circle cx="769.13" cy="270.29" r="10"/>
<text x="769.13" y="275.29">R29</text>
<circle cx="832.96" cy="680.80" r="10"/>
<text x="832.96" y="685.80">R30</text>
<circle cx="160.45" cy="826.73" r="10"/>
<text x="160.45" y="831.73">R31</text>
<circle cx="643.78" cy="328.32" r="10"/>
<text x="643.78" y="333.32">R32</text>
<circle cx="134.89" cy="295.67" r="10"/>
<text x="134.89" y="300.67">R33</text>
<circle cx="807.15" cy="38.77" r="10"/>
<text x="807.15" y="43.77">R34</text>
<circle cx="130.07" cy="488.02" r="10"/>
<text x="130.07" y="493.02">R35</text>
<circle cx="273.15" cy="23.54" r="10"/>
<text x="273.15" y="28.54">R36</text>
<circle cx="552.88" cy="483.21" r="10"/>
<text x="552.88" y="488.21">R37</text>
<circle cx="628.77" cy="632.59" r="10"/>
<text x="628.77" y="637.59">R38</text>
<circle cx="165.40" cy="79.22" r="10"/>
<text x="165.40" y="84.22">R39</text>
<circle cx="655.65" cy="252.36" r="10"/>
<text x="655.65" y="257.36">R40</text>
<circle cx="683.14" cy="401.25" r="10"/>
<text x="683.14" y="406.25">R41</text>
<circle cx="757.33" cy="647.74" r="10"/>
<text x="757.33" y="652.74">R42</text>
<circle cx="140.21" cy="41.02" r="10"/>
<text x="140.21" y="46.02">R43</text>
<circle cx="220.67" cy="246.67" r="10"/>
<text x="220.67" y="251.67">R44</text>
<circle cx="27.30" cy="410.00" r="10"/>
<text x="27.30" y="415.00">R45</text>
<circle cx="573.07" cy="846.33" r="10"/>
<text x="573.07" y="851.33">R46</text>
<circle cx="744.24" cy="59.47" r="10"/>
<text x="744.24" y="64.47">R47</text>
<circle cx="689.92" cy="539.90" r="10"/>
<text x="689.92" y="544.90">R48</text>
<circle cx="467.32" cy="833.71" r="10"/>
<text x="467.32" y="838.71">R49</text>
<circle cx="332.01" cy="288.19" r="10"/>
<text x="332.01" y="293.19">R50</text>
<circle cx="634.24" cy="288.00" r="10"/>
<text x="634.24" y="293.00">R51</text>
<circle cx="194.60" cy="652.37" r="10"/>
<text x="194.60" y="657.37">R52</text>
<circle cx="473.98" cy="287.84" r="10"/>
<text x="473.98" y="292.84">R53</text>
<circle cx="716.39" cy="590.40" r="10"/>
<text x="716.39" y="595.40">R54</text>
<circle cx="704.91" cy="809.31" r="10"/>
<text x="704.91" y="814.31">R55</text>
<circle cx="558.23" cy="782.33" r="10"/>
<text x="558.23" y="787.33">R56</text>
<circle cx="528.38" cy="331.76" r="10"/>
<text x="528.38" y="336.76">R57</text>
<circle cx="517.53" cy="249.09" r="10"/>
<text x="517.53" y="254.09">R58</text>
<circle cx="354.71" cy="783.19" r="10"/>
<text x="354.71" y="788.19">R59</text>
<circle cx="82.53" cy="469.16" r="10"/>
<text x="82.53" y="474.16">R60</text>
<circle cx="357.81" cy="828.75" r="10"/>
<text x="357.81" y="833.75">R61</text>
<circle cx="535.94" cy="214.64" r="10"/>
<text x="535.94" y="219.64">R62</text>
<circle cx="554.99" cy="77.83" r="10"/>
<text x="554.99" y="82.83">R63</text>
<circle cx="566.63" cy="335.86" r="10"/>
<text x="566.63" y="340.86">R64</text>
<circle cx="800.26" cy="334.11" r="10"/>
<text x="800.26" y="339.11">R65</text>
<circle cx="315.24" cy="466.10" r="10"/>
<text x="315.24" y="471.10">R66</text>
<circle cx="263.14" cy="746.57" r="10"/>
<text x="263.14" y="751.57">R67</text>
<circle cx="619.60" cy="100.14" r="10"/>
<text x="619.60" y="105.14">R68</text>
<circle cx="91.01" cy="822.17" r="10"/>
<text x="91.01" y="827.17">R69</text>
<circle cx="331.26" cy="751.28" r="10"/>
<text x="331.26" y="756.28">R70</text>
<circle cx="606.52" cy="789.18" r="10"/>
<text x="606.52" y="794.18">R71</text>
<circle cx="473.74" cy="542.73" r="10"/>
<text x="473.74" y="547.73">R72</text>
<circle cx="549.70" cy="632.61" r="10"/>
<text x="549.70" y="637.61">R73</text>
<circle cx="344.56" cy="438.36" r="10"/>
<text x="344.56" y="443.36">R74</text>
</svg>
