<svg id="topo" width="940.44" height="921.68" viewBox="-35.21 -35.19 940.44 921.68" xmlns="http://www.w3.org/2000/svg">
<style>#topo path {fill: none; stroke: grey; stroke-width: 6;} #topo circle {fill: lightblue; stroke: none;} #topo text {fill: black; stroke: none; font-size: 16; font-family: sans-serif; text-anchor:middle;}</style>
<path d="M647.07,688.57,729.31,658.79"/>
<path d="M647.07,688.57,697.68,722.07"/>
<path d="M647.07,688.57,657.80,767.18"/>
<path d="M647.07,688.57,607.27,705.21"/>
<path d="M647.07,688.57,642.71,615.81"/>
<path d="M623.15,9.81,628.05,65.64"/>
<path d="M623.15,9.81,467.62,77.12"/>
<path d="M169.98,712.00,164.23,678.43"/>
<path d="M169.98,712.00,207.58,719.01"/>
<path d="M169.98,712.00,171.82,765.56"/>
<path d="M514.91,643.19,607.27,705.21"/>
<path d="M514.91,643.19,606.78,605.95"/>
<path d="M514.91,643.19,418.18,841.49"/>
<path d="M514.91,643.19,489.73,574.00"/>
<path d="M729.31,658.79,697.68,722.07"/>
<path d="M729.31,658.79,791.38,517.11"/>
<path d="M729.31,658.79,747.47,714.36"/>
<path d="M729.31,658.79,642.71,615.81"/>
<path d="M235.87,515.27,287.08,472.14"/>
<path d="M235.87,515.27,206.49,544.46"/>
<path d="M235.87,515.27,237.11,443.93"/>
<path d="M370.70,103.45,319.89,18.22"/>
<path d="M370.70,103.45,361.49,131.28"/>
<path d="M370.70,103.45,276.58,57.07"/>
<path d="M370.70,103.45,437.45,67.30"/>
<path d="M267.30,16.43,319.89,18.22"/>
<path d="M267.30,16.43,276.58,57.07"/>
<path d="M697.68,722.07,657.80,767.18"/>
<path d="M697.68,722.07,747.47,714.36"/>
<path d="M155.40,88.40,267.46,148.49"/>
<path d="M155.40,88.40,138.44,197.90"/>
<path d="M155.40,88.40,276.58,57.07"/>
<path d="M155.40,88.40,116.74,60.79"/>
<path d="M164.23,678.43,145.44,601.78"/>
<path d="M164.23,678.43,186.56,666.76"/>
<path d="M145.44,601.78,217.69,646.48"/>
<path d="M145.44,601.78,206.49,544.46"/>
<path d="M145.44,601.78,219.79,570.21"/>
<path d="M145.44,601.78,186.56,666.76"/>
<path d="M145.44,601.78,73.43,614.96"/>
<path d="M145.44,601.78,177.04,519.08"/>
<path d="M850.77,491.29,826.43,469.67"/>
<path d="M850.77,491.29,791.38,517.11"/>
<path d="M307.02,213.05,313.19,155.29"/>
<path d="M307.02,213.05,354.80,240.65"/>
<path d="M267.46,148.49,138.44,197.90"/>
<path d="M267.46,148.49,313.19,155.29"/>
<path d="M267.46,148.49,276.58,57.07"/>
<path d="M657.80,767.18,607.27,705.21"/>
<path d="M319.89,18.22,276.58,57.07"/>
<path d="M287.08,472.14,354.10,382.98"/>
<path d="M287.08,472.14,394.98,462.65"/>
<path d="M287.08,472.14,237.11,443.93"/>
<path d="M287.08,472.14,339.72,602.55"/>
<path d="M673.86,519.96,701.72,404.79"/>
<path d="M673.86,519.96,791.38,517.11"/>
<path d="M673.86,519.96,590.80,457.89"/>
<path d="M673.86,519.96,642.71,615.81"/>
<path d="M138.44,197.90,74.66,430.30"/>
<path d="M138.44,197.90,81.74,89.26"/>
<path d="M138.44,197.90,237.11,443.93"/>
<path d="M826.43,469.67,791.38,517.11"/>
<path d="M826.43,469.67,768.56,404.27"/>
<path d="M506.02,501.53,590.80,457.89"/>
<path d="M506.02,501.53,394.98,462.65"/>
<path d="M506.02,501.53,417.30,538.62"/>
<path d="M506.02,501.53,465.09,375.45"/>
<path d="M506.02,501.53,489.73,574.00"/>
<path d="M74.66,430.30,26.05,421.93"/>
<path d="M74.66,430.30,172.75,479.89"/>
<path d="M74.66,430.30,73.43,614.96"/>
<path d="M607.27,705.21,606.78,605.95"/>
<path d="M607.27,705.21,418.18,841.49"/>
<path d="M354.10,382.98,394.98,462.65"/>
<path d="M354.10,382.98,354.80,240.65"/>
<path d="M354.10,382.98,404.88,256.08"/>
<path d="M354.10,382.98,465.09,375.45"/>
<path d="M606.78,605.95,590.80,457.89"/>
<path d="M606.78,605.95,642.71,615.81"/>
<path d="M606.78,605.95,489.73,574.00"/>
<path d="M207.58,719.01,418.18,841.49"/>
<path d="M207.58,719.01,186.56,666.76"/>
<path d="M207.58,719.01,171.82,765.56"/>
<path d="M756.33,54.92,628.05,65.64"/>
<path d="M756.33,54.92,690.98,227.36"/>
<path d="M701.72,404.79,590.80,457.89"/>
<path d="M701.72,404.79,768.56,404.27"/>
<path d="M701.72,404.79,716.19,299.19"/>
<path d="M701.72,404.79,643.29,335.94"/>
<path d="M50.63,13.47,9.79,47.41"/>
<path d="M50.63,13.47,81.74,89.26"/>
<path d="M50.63,13.47,116.74,60.79"/>
<path d="M217.69,646.48,219.79,570.21"/>
<path d="M217.69,646.48,298.39,611.71"/>
<path d="M217.69,646.48,186.56,666.76"/>
<path d="M206.49,544.46,219.79,570.21"/>
<path d="M206.49,544.46,177.04,519.08"/>
<path d="M418.18,841.49,339.72,602.55"/>
<path d="M827.97,705.08,747.47,714.36"/>
<path d="M827.97,705.08,860.23,703.83"/>
<path d="M590.80,457.89,495.27,340.24"/>
<path d="M590.80,457.89,465.09,375.45"/>
<path d="M590.80,457.89,643.29,335.94"/>
<path d="M755.24,297.07,716.19,299.19"/>
<path d="M755.24,297.07,782.39,353.87"/>
<path d="M394.98,462.65,417.30,538.62"/>
<path d="M394.98,462.65,465.09,375.45"/>
<path d="M172.75,479.89,237.11,443.93"/>
<path d="M172.75,479.89,177.04,519.08"/>
<path d="M313.19,155.29,361.49,131.28"/>
<path d="M361.49,131.28,390.61,227.07"/>
<path d="M619.93,207.21,495.27,340.24"/>
<path d="M619.93,207.21,505.79,192.61"/>
<path d="M619.93,207.21,628.05,65.64"/>
<path d="M619.93,207.21,643.29,335.94"/>
<path d="M619.93,207.21,690.98,227.36"/>
<path d="M417.30,538.62,378.59,589.18"/>
<path d="M417.30,538.62,489.73,574.00"/>
<path d="M378.59,589.18,339.72,602.55"/>
<path d="M9.79,47.41,81.74,89.26"/>
<path d="M219.79,570.21,298.39,611.71"/>
<path d="M495.27,340.24,505.79,192.61"/>
<path d="M495.27,340.24,404.88,256.08"/>
<path d="M495.27,340.24,465.09,375.45"/>
<path d="M495.27,340.24,643.29,335.94"/>
<path d="M768.56,404.27,782.39,353.87"/>
<path d="M354.80,240.65,390.61,227.07"/>
<path d="M298.39,611.71,339.72,602.55"/>
<path d="M505.79,192.61,404.88,256.08"/>
<path d="M505.79,192.61,628.05,65.64"/>
<path d="M505.79,192.61,467.62,77.12"/>
<path d="M505.79,192.61,390.61,227.07"/>
<path d="M81.74,89.26,116.74,60.79"/>
<path d="M404.88,256.08,390.61,227.07"/>
<path d="M716.19,299.19,643.29,335.94"/>
<path d="M716.19,299.19,690.98,227.36"/>
<path d="M628.05,65.64,467.62,77.12"/>
<path d="M467.62,77.12,437.45,67.30"/>
<circle cx="647.07" cy="688.57" r="10"/>
<text x="647.07" y="693.57">R0</text>
<circle cx="623.15" cy="9.81" r="10"/>
<text x="623.15" y="14.81">R1</text>
<circle cx="169.98" cy="712.00" r="10"/>
<text x="169.98" y="717.00">R2</text>
<circle cx="514.91" cy="643.19" r="10"/>
<text x="514.91" y="648.19">R3</text>
<circle cx="729.31" cy="658.79" r="10"/>
<text x="729.31" y="663.79">R4</text>
<circle cx="235.87" cy="515.27" r="10"/>
<text x="235.87" y="520.27">R5</text>
<circle cx="370.70" cy="103.45" r="10"/>
<text x="370.70" y="108.45">R6</text>
<circle cx="267.30" cy="16.43" r="10"/>
<text x="267.30" y="21.43">R7</text>
<circle cx="697.68" cy="722.07" r="10"/>
<text x="697.68" y="727.07">R8</text>
<circle cx="155.40" cy="88.40" r="10"/>
<text x="155.40" y="93.40">R9</text>
<circle cx="164.23" cy="678.43" r="10"/>
<text x="164.23" y="683.43">R10</text>
<circle cx="145.44" cy="601.78" r="10"/>
<text x="145.44" y="606.78">R11</text>
<circle cx="850.77" cy="491.29" r="10"/>
<text x="850.77" y="496.29">R12</text>
<circle cx="307.02" cy="213.05" r="10"/>
<text x="307.02" y="218.05">R13</text>
<circle cx="267.46" cy="148.49" r="10"/>
<text x="267.46" y="153.49">R14</text>
<circle cx="657.80" cy="767.18" r="10"/>
<text x="657.80" y="772.18">R15</text>
<circle cx="319.89" cy="18.22" r="10"/>
<text x="319.89" y="23.22">R16</text>
<circle cx="287.08" cy="472.14" r="10"/>
<text x="287.08" y="477.14">R17</text>
<circle cx="673.86" cy="519.96" r="10"/>
<text x="673.86" y="524.96">R18</text>
<circle cx="138.44" cy="197.90" r="10"/>
<text x="138.44" y="202.90">R19</text>
<circle cx="826.43" cy="469.67" r="10"/>
<text x="826.43" y="474.67">R20</text>
<circle cx="506.02" cy="501.53" r="10"/>
<text x="506.02" y="506.53">R21</text>
<circle cx="74.66" cy="430.30" r="10"/>
<text x="74.66" y="435.30">R22</text>
<circle cx="607.27" cy="705.21" r="10"/>
<text x="607.27" y="710.21">R23</text>
<circle cx="354.10" cy="382.98" r="10"/>
<text x="354.10" y="387.98">R24</text>
<circle cx="606.78" cy="605.95" r="10"/>
<text x="606.78" y="610.95">R25</text>
<circle cx="207.58" cy="719.01" r="10"/>
<text x="207.58" y="724.01">R26</text>
<circle cx="756.33" cy="54.92" r="10"/>
<text x="756.33" y="59.92">R27</text>
<circle cx="26.05" cy="421.93" r="10"/>
<text x="26.05" y="426.93">R28</text>
<circle cx="701.72" cy="404.79" r="10"/>
<text x="701.72" y="409.79">R29</text>
<circle cx="50.63" cy="13.47" r="10"/>
<text x="50.63" y="18.47">R30</text>
<circle cx="217.69" cy="646.48" r="10"/>
<text x="217.69" y="651.48">R31</text>
<circle cx="206.49" cy="544.46" r="10"/>
<text x="206.49" y="549.46">R32</text>
<circle cx="418.18" cy="841.49" r="10"/>
<text x="418.18" y="846.49">R33</text>
<circle cx="791.38" cy="517.11" r="10"/>
<text x="791.38" y="522.11">R34</text>
<circle cx="827.97" cy="705.08" r="10"/>
<text x="827.97" y="710.08">R35</text>
<circle cx="590.80" cy="457.89" r="10"/>
<text x="590.80" y="462.89">R36</text>
<circle cx="755.24" cy="297.07" r="10"/>
<text x="755.24" y="302.07">R37</text>
<circle cx="394.98" cy="462.65" r="10"/>
<text x="394.98" y="467.65">R38</text>
<circle cx="172.75" cy="479.89" r="10"/>
<text x="172.75" y="484.89">R39</text>
<circle cx="747.47" cy="714.36" r="10"/>
<text x="747.47" y="719.36">R40</text>
<circle cx="860.23" cy="703.83" r="10"/>
<text x="860.23" y="708.83">R41</text>
<circle cx="313.19" cy="155.29" r="10"/>
<text x="313.19" y="160.29">R42</text>
<circle cx="361.49" cy="131.28" r="10"/>
<text x="361.49" y="136.28">R43</text>
<circle cx="619.93" cy="207.21" r="10"/>
<text x="619.93" y="212.21">R44</text>
<circle cx="276.58" cy="57.07" r="10"/>
<text x="276.58" y="62.07">R45</text>
<circle cx="417.30" cy="538.62" r="10"/>
<text x="417.30" y="543.62">R46</text>
<circle cx="378.59" cy="589.18" r="10"/>
<text x="378.59" y="594.18">R47</text>
<circle cx="9.79" cy="47.41" r="10"/>
<text x="9.79" y="52.41">R48</text>
<circle cx="219.79" cy="570.21" r="10"/>
<text x="219.79" y="575.21">R49</text>
<circle cx="495.27" cy="340.24" r="10"/>
<text x="495.27" y="345.24">R50</text>
<circle cx="768.56" cy="404.27" r="10"/>
<text x="768.56" y="409.27">R51</text>
<circle cx="354.80" cy="240.65" r="10"/>
<text x="354.80" y="245.65">R52</text>
<circle cx="298.39" cy="611.71" r="10"/>
<text x="298.39" y="616.71">R53</text>
<circle cx="505.79" cy="192.61" r="10"/>
<text x="505.79" y="197.61">R54</text>
<circle cx="81.74" cy="89.26" r="10"/>
<text x="81.74" y="94.26">R55</text>
<circle cx="404.88" cy="256.08" r="10"/>
<text x="404.88" y="261.08">R56</text>
<circle cx="237.11" cy="443.93" r="10"/>
<text x="237.11" y="448.93">R57</text>
<circle cx="186.56" cy="666.76" r="10"/>
<text x="186.56" y="671.76">R58</text>
<circle cx="716.19" cy="299.19" r="10"/>
<text x="716.19" y="304.19">R59</text>
<circle cx="73.43" cy="614.96" r="10"/>
<text x="73.43" y="619.96">R60</text>
<circle cx="642.71" cy="615.81" r="10"/>
<text x="642.71" y="620.81">R61</text>
<circle cx="465.09" cy="375.45" r="10"/>
<text x="465.09" y="380.45">R62</text>
<circle cx="628.05" cy="65.64" r="10"/>
<text x="628.05" y="70.64">R63</text>
<circle cx="643.29" cy="335.94" r="10"/>
<text x="643.29" y="340.94">R64</text>
<circle cx="467.62" cy="77.12" r="10"/>
<text x="467.62" y="82.12">R65</text>
<circle cx="782.39" cy="353.87" r="10"/>
<text x="782.39" y="358.87">R66</text>
<circle cx="171.82" cy="765.56" r="10"/>
<text x="171.82" y="770.56">R67</text>
<circle cx="177.04" cy="519.08" r="10"/>
<text x="177.04" y="524.08">R68</text>
<circle cx="390.61" cy="227.07" r="10"/>
<text x="390.61" y="232.07">R69</text>
<circle cx="339.72" cy="602.55" r="10"/>
<text x="339.72" y="607.55">R70</text>
<circle cx="690.98" cy="227.36" r="10"/>
<text x="690.98" y="232.36">R71</text>
<circle cx="116.74" cy="60.79" r="10"/>
<text x="116.74" y="65.79">R72</text>
<circle cx="489.73" cy="574.00" r="10"/>
<text x="489.73" y="579.00">R73</text>
<circle cx="437.45" cy="67.30" r="10"/>
<text x="437.45" y="72.30">R74</text>
</svg>
