<svg id="topo" width="941.77" height="936.03" viewBox="-32.61 -30.42 941.77 936.03" xmlns="http://www.w3.org/2000/svg">
<style>#topo path {fill: none; stroke: grey; stroke-width: 6;} #topo circle {fill: lightblue; stroke: none;} #topo text {fill: black; stroke: none; font-size: 16; font-family: sans-serif; text-anchor:middle;}</style>
<path d="M71.28,550.17,126.61,510.53"/>
<path d="M71.28,550.17,12.39,543.70"/>
<path d="M71.28,550.17,66.16,584.80"/>
<path d="M354.99,14.58,454.07,87.24"/>
<path d="M354.99,14.58,280.22,48.07"/>
<path d="M354.99,14.58,480.18,27.79"/>
<path d="M354.99,14.58,403.69,124.37"/>
<path d="M354.99,14.58,307.46,83.58"/>
<path d="M755.67,374.93,710.42,365.42"/>
<path d="M755.67,374.93,786.65,349.44"/>
<path d="M755.67,374.93,743.19,420.09"/>
<path d="M755.67,374.93,798.79,401.45"/>
<path d="M788.06,34.00,707.05,69.11"/>
<path d="M788.06,34.00,850.16,94.41"/>
<path d="M454.07,87.24,578.68,78.71"/>
<path d="M454.07,87.24,480.18,27.79"/>
<path d="M454.07,87.24,403.69,124.37"/>
<path d="M358.96,499.36,349.89,533.45"/>
<path d="M358.96,499.36,401.54,432.25"/>
<path d="M358.96,499.36,320.91,405.46"/>
<path d="M432.65,860.61,468.55,822.79"/>
<path d="M432.65,860.61,406.15,837.89"/>
<path d="M364.97,383.13,416.69,273.52"/>
<path d="M364.97,383.13,401.54,432.25"/>
<path d="M364.97,383.13,320.91,405.46"/>
<path d="M364.97,383.13,484.24,310.45"/>
<path d="M76.33,377.03,12.39,543.70"/>
<path d="M76.33,377.03,150.71,192.22"/>
<path d="M76.33,377.03,145.25,403.06"/>
<path d="M858.47,596.10,864.15,718.78"/>
<path d="M858.47,596.10,700.66,489.09"/>
<path d="M858.47,596.10,846.38,463.71"/>
<path d="M858.47,596.10,766.99,676.47"/>
<path d="M709.53,659.76,738.89,745.05"/>
<path d="M709.53,659.76,595.16,544.22"/>
<path d="M709.53,659.76,700.66,489.09"/>
<path d="M709.53,659.76,766.99,676.47"/>
<path d="M553.83,467.42,710.42,365.42"/>
<path d="M553.83,467.42,469.27,575.42"/>
<path d="M553.83,467.42,483.55,420.95"/>
<path d="M553.83,467.42,595.16,544.22"/>
<path d="M85.72,145.73,26.77,76.61"/>
<path d="M85.72,145.73,150.71,192.22"/>
<path d="M85.72,145.73,194.43,77.59"/>
<path d="M126.61,510.53,209.64,595.47"/>
<path d="M126.61,510.53,145.25,403.06"/>
<path d="M578.68,78.71,480.18,27.79"/>
<path d="M578.68,78.71,642.83,58.31"/>
<path d="M578.68,78.71,596.77,103.07"/>
<path d="M416.69,273.52,385.72,208.38"/>
<path d="M416.69,273.52,440.28,250.95"/>
<path d="M416.69,273.52,484.24,310.45"/>
<path d="M698.23,290.77,727.27,275.18"/>
<path d="M698.23,290.77,710.42,365.42"/>
<path d="M698.23,290.77,608.33,323.09"/>
<path d="M698.23,290.77,655.60,208.11"/>
<path d="M26.77,76.61,76.96,28.15"/>
<path d="M754.99,826.83,576.03,808.53"/>
<path d="M754.99,826.83,738.89,745.05"/>
<path d="M76.96,28.15,194.43,77.59"/>
<path d="M727.27,275.18,851.63,142.96"/>
<path d="M727.27,275.18,781.77,302.16"/>
<path d="M727.27,275.18,655.60,208.11"/>
<path d="M707.05,69.11,700.91,138.56"/>
<path d="M707.05,69.11,696.34,45.41"/>
<path d="M12.39,543.70,66.16,584.80"/>
<path d="M307.37,729.33,197.53,675.23"/>
<path d="M307.37,729.33,383.81,635.61"/>
<path d="M307.37,729.33,412.59,786.32"/>
<path d="M280.22,48.07,194.43,77.59"/>
<path d="M280.22,48.07,307.46,83.58"/>
<path d="M710.42,365.42,743.19,420.09"/>
<path d="M710.42,365.42,608.33,323.09"/>
<path d="M851.63,142.96,700.91,138.56"/>
<path d="M851.63,142.96,781.77,302.16"/>
<path d="M851.63,142.96,850.16,94.41"/>
<path d="M576.03,808.53,738.89,745.05"/>
<path d="M576.03,808.53,526.29,845.21"/>
<path d="M700.91,138.56,596.77,103.07"/>
<path d="M700.91,138.56,850.16,94.41"/>
<path d="M700.91,138.56,655.60,208.11"/>
<path d="M403.69,124.37,363.46,188.84"/>
<path d="M403.69,124.37,307.46,83.58"/>
<path d="M786.65,349.44,781.77,302.16"/>
<path d="M786.65,349.44,798.79,401.45"/>
<path d="M696.34,45.41,642.83,58.31"/>
<path d="M150.71,192.22,145.25,403.06"/>
<path d="M150.71,192.22,320.91,405.46"/>
<path d="M150.71,192.22,201.81,141.34"/>
<path d="M390.74,563.99,469.27,575.42"/>
<path d="M390.74,563.99,349.89,533.45"/>
<path d="M390.74,563.99,383.81,635.61"/>
<path d="M66.16,584.80,129.34,684.45"/>
<path d="M66.16,584.80,209.64,595.47"/>
<path d="M468.55,822.79,526.29,845.21"/>
<path d="M468.55,822.79,412.59,786.32"/>
<path d="M129.34,684.45,197.53,675.23"/>
<path d="M129.34,684.45,56.33,831.19"/>
<path d="M743.19,420.09,700.66,489.09"/>
<path d="M743.19,420.09,798.79,401.45"/>
<path d="M738.89,745.05,864.15,718.78"/>
<path d="M738.89,745.05,766.99,676.47"/>
<path d="M412.61,639.37,469.27,575.42"/>
<path d="M412.61,639.37,383.81,635.61"/>
<path d="M412.61,639.37,412.59,786.32"/>
<path d="M864.15,718.78,766.99,676.47"/>
<path d="M385.72,208.38,363.46,188.84"/>
<path d="M385.72,208.38,440.28,250.95"/>
<path d="M194.43,77.59,201.81,141.34"/>
<path d="M197.53,675.23,209.64,595.47"/>
<path d="M363.46,188.84,307.46,83.58"/>
<path d="M363.46,188.84,201.81,141.34"/>
<path d="M642.83,58.31,596.77,103.07"/>
<path d="M608.33,323.09,531.67,339.80"/>
<path d="M608.33,323.09,655.60,208.11"/>
<path d="M406.15,837.89,412.59,786.32"/>
<path d="M469.27,575.42,483.55,420.95"/>
<path d="M469.27,575.42,595.16,544.22"/>
<path d="M493.62,258.15,596.77,103.07"/>
<path d="M493.62,258.15,440.28,250.95"/>
<path d="M493.62,258.15,655.60,208.11"/>
<path d="M493.62,258.15,484.24,310.45"/>
<path d="M596.77,103.07,655.60,208.11"/>
<path d="M483.55,420.95,531.67,339.80"/>
<path d="M483.55,420.95,401.54,432.25"/>
<path d="M440.28,250.95,484.24,310.45"/>
<path d="M349.89,533.45,209.64,595.47"/>
<path d="M383.81,635.61,209.64,595.47"/>
<path d="M595.16,544.22,700.66,489.09"/>
<path d="M531.67,339.80,484.24,310.45"/>
<path d="M846.38,463.71,798.79,401.45"/>
<path d="M145.25,403.06,320.91,405.46"/>
<path d="M307.46,83.58,201.81,141.34"/>
<circle cx="71.28" cy="550.17" r="10"/>
<text x="71.28" y="555.17">R0</text>
<circle cx="354.99" cy="14.58" r="10"/>
<text x="354.99" y="19.58">R1</text>
<circle cx="755.67" cy="374.93" r="10"/>
<text x="755.67" y="379.93">R2</text>
<circle cx="788.06" cy="34.00" r="10"/>
<text x="788.06" y="39.00">R3</text>
<circle cx="454.07" cy="87.24" r="10"/>
<text x="454.07" y="92.24">R4</text>
<circle cx="358.96" cy="499.36" r="10"/>
<text x="358.96" y="504.36">R5</text>
<circle cx="432.65" cy="860.61" r="10"/>
<text x="432.65" y="865.61">R6</text>
<circle cx="364.97" cy="383.13" r="10"/>
<text x="364.97" y="388.13">R7</text>
<circle cx="76.33" cy="377.03" r="10"/>
<text x="76.33" y="382.03">R8</text>
<circle cx="858.47" cy="596.10" r="10"/>
<text x="858.47" y="601.10">R9</text>
<circle cx="709.53" cy="659.76" r="10"/>
<text x="709.53" y="664.76">R10</text>
<circle cx="553.83" cy="467.42" r="10"/>
<text x="553.83" y="472.42">R11</text>
<circle cx="85.72" cy="145.73" r="10"/>
<text x="85.72" y="150.73">R12</text>
<circle cx="126.61" cy="510.53" r="10"/>
<text x="126.61" y="515.53">R13</text>
<circle cx="578.68" cy="78.71" r="10"/>
<text x="578.68" y="83.71">R14</text>
<circle cx="416.69" cy="273.52" r="10"/>
<text x="416.69" y="278.52">R15</text>
<circle cx="698.23" cy="290.77" r="10"/>
<text x="698.23" y="295.77">R16</text>
<circle cx="26.77" cy="76.61" r="10"/>
<text x="26.77" y="81.61">R17</text>
<circle cx="754.99" cy="826.83" r="10"/>
<text x="754.99" y="831.83">R18</text>
<circle cx="76.96" cy="28.15" r="10"/>
<text x="76.96" y="33.15">R19</text>
<circle cx="727.27" cy="275.18" r="10"/>
<text x="727.27" y="280.18">R20</text>
<circle cx="707.05" cy="69.11" r="10"/>
<text x="707.05" y="74.11">R21</text>
<circle cx="12.39" cy="543.70" r="10"/>
<text x="12.39" y="548.70">R22</text>
<circle cx="307.37" cy="729.33" r="10"/>
<text x="307.37" y="734.33">R23</text>
<circle cx="280.22" cy="48.07" r="10"/>
<text x="280.22" y="53.07">R24</text>
<circle cx="710.42" cy="365.42" r="10"/>
<text x="710.42" y="370.42">R25</text>
<circle cx="851.63" cy="142.96" r="10"/>
<text x="851.63" y="147.96">R26</text>
<circle cx="576.03" cy="808.53" r="10"/>
<text x="576.03" y="813.53">R27</text>
<circle cx="480.18" cy="27.79" r="10"/>
<text x="480.18" y="32.79">R28</text>
<circle cx="700.91" cy="138.56" r="10"/>
<text x="700.91" y="143.56">R29</text>
<circle cx="403.69" cy="124.37" r="10"/>
<text x="403.69" y="129.37">R30</text>
<circle cx="786.65" cy="349.44" r="10"/>
<text x="786.65" y="354.44">R31</text>
<circle cx="696.34" cy="45.41" r="10"/>
<text x="696.34" y="50.41">R32</text>
<circle cx="150.71" cy="192.22" r="10"/>
<text x="150.71" y="197.22">R33</text>
<circle cx="390.74" cy="563.99" r="10"/>
<text x="390.74" y="568.99">R34</text>
<circle cx="66.16" cy="584.80" r="10"/>
<text x="66.16" y="589.80">R35</text>
<circle cx="468.55" cy="822.79" r="10"/>
<text x="468.55" y="827.79">R36</text>
<circle cx="129.34" cy="684.45" r="10"/>
<text x="129.34" y="689.45">R37</text>
<circle cx="743.19" cy="420.09" r="10"/>
<text x="743.19" y="425.09">R38</text>
<circle cx="738.89" cy="745.05" r="10"/>
<text x="738.89" y="750.05">R39</text>
<circle cx="781.77" cy="302.16" r="10"/>
<text x="781.77" y="307.16">R40</text>
<circle cx="412.61" cy="639.37" r="10"/>
<text x="412.61" y="644.37">R41</text>
<circle cx="864.15" cy="718.78" r="10"/>
<text x="864.15" y="723.78">R42</text>
<circle cx="385.72" cy="208.38" r="10"/>
<text x="385.72" y="213.38">R43</text>
<circle cx="194.43" cy="77.59" r="10"/>
<text x="194.43" y="82.59">R44</text>
<circle cx="197.53" cy="675.23" r="10"/>
<text x="197.53" y="680.23">R45</text>
<circle cx="363.46" cy="188.84" r="10"/>
<text x="363.46" y="193.84">R46</text>
<circle cx="642.83" cy="58.31" r="10"/>
<text x="642.83" y="63.31">R47</text>
<circle cx="608.33" cy="323.09" r="10"/>
<text x="608.33" y="328.09">R48</text>
<circle cx="406.15" cy="837.89" r="10"/>
<text x="406.15" y="842.89">R49</text>
<circle cx="469.27" cy="575.42" r="10"/>
<text x="469.27" y="580.42">R50</text>
<circle cx="493.62" cy="258.15" r="10"/>
<text x="493.62" y="263.15">R51</text>
<circle cx="596.77" cy="103.07" r="10"/>
<text x="596.77" y="108.07">R52</text>
<circle cx="483.55" cy="420.95" r="10"/>
<text x="483.55" y="425.95">R53</text>
<circle cx="440.28" cy="250.95" r="10"/>
<text x="440.28" y="255.95">R54</text>
<circle cx="349.89" cy="533.45" r="10"/>
<text x="349.89" y="538.45">R55</text>
<circle cx="383.81" cy="635.61" r="10"/>
<text x="383.81" y="640.61">R56</text>
<circle cx="56.33" cy="831.19" r="10"/>
<text x="56.33" y="836.19">R57</text>
<circle cx="595.16" cy="544.22" r="10"/>
<text x="595.16" y="549.22">R58</text>
<circle cx="531.67" cy="339.80" r="10"/>
<text x="531.67" y="344.80">R59</text>
<circle cx="700.66" cy="489.09" r="10"/>
<text x="700.66" y="494.09">R60</text>
<circle cx="209.64" cy="595.47" r="10"/>
<text x="209.64" y="600.47">R61</text>
<circle cx="401.54" cy="432.25" r="10"/>
<text x="401.54" y="437.25">R62</text>
<circle cx="846.38" cy="463.71" r="10"/>
<text x="846.38" y="468.71">R63</text>
<circle cx="526.29" cy="845.21" r="10"/>
<text x="526.29" y="850.21">R64</text>
<circle cx="850.16" cy="94.41" r="10"/>
<text x="850.16" y="99.41">R65</text>
<circle cx="145.25" cy="403.06" r="10"/>
<text x="145.25" y="408.06">R66</text>
<circle cx="766.99" cy="676.47" r="10"/>
<text x="766.99" y="681.47">R67</text>
<circle cx="412.59" cy="786.32" r="10"/>
<text x="412.59" y="791.32">R68</text>
<circle cx="655.60" cy="208.11" r="10"/>
<text x="655.60" y="213.11">R69</text>
<circle cx="798.79" cy="401.45" r="10"/>
<text x="798.79" y="406.45">R70</text>
<circle cx="320.91" cy="405.46" r="10"/>
<text x="320.91" y="410.46">R71</text>
<circle cx="307.46" cy="83.58" r="10"/>
<text x="307.46" y="88.58">R72</text>
<circle cx="201.81" cy="141.34" r="10"/>
<text x="201.81" y="146.34">R73</text>
<circle cx="484.24" cy="310.45" r="10"/>
<text x="484.24" y="315.45">R74</text>
</svg>
