<svg width="1809.23" height="1821.84" viewBox="-43.59 -44.88 1809.23 1821.84" xmlns="http://www.w3.org/2000/svg">
<style>path {fill: none; stroke: grey; stroke-width: 6;} circle {fill: lightblue; stroke: none;} text {fill: black; stroke: none; font-size: 16; font-family: sans-serif; text-anchor:middle;}</style>
<path d="M569.24,546.71,558.73,523.48"/>
<path d="M569.24,546.71,551.18,583.48"/>
<path d="M569.24,546.71,606.36,560.79"/>
<path d="M1068.47,363.18,1015.35,374.16"/>
<path d="M1068.47,363.18,1093.75,375.18"/>
<path d="M1068.47,363.18,1047.52,266.33"/>
<path d="M198.20,1128.21,44.46,1216.52"/>
<path d="M198.20,1128.21,130.43,1001.20"/>
<path d="M198.20,1128.21,75.82,1083.31"/>
<path d="M198.20,1128.21,279.33,1089.37"/>
<path d="M198.20,1128.21,215.43,1160.17"/>
<path d="M1390.76,970.76,1319.95,909.87"/>
<path d="M1390.76,970.76,1289.87,1050.00"/>
<path d="M1390.76,970.76,1470.34,1071.29"/>
<path d="M1390.76,970.76,1266.34,972.86"/>
<path d="M1390.76,970.76,1446.84,916.71"/>
<path d="M59.57,1104.14,27.75,1188.78"/>
<path d="M59.57,1104.14,75.82,1083.31"/>
<path d="M1609.91,224.27,1617.30,305.03"/>
<path d="M1609.91,224.27,1665.78,294.64"/>
<path d="M1609.91,224.27,1610.18,152.96"/>
<path d="M1609.91,224.27,1519.45,258.08"/>
<path d="M212.32,642.39,372.99,701.82"/>
<path d="M212.32,642.39,247.24,576.92"/>
<path d="M212.32,642.39,149.20,617.09"/>
<path d="M212.32,642.39,187.54,732.01"/>
<path d="M704.70,1384.33,687.81,1418.01"/>
<path d="M704.70,1384.33,745.20,1301.64"/>
<path d="M704.70,1384.33,674.69,1293.21"/>
<path d="M388.18,199.12,358.30,195.66"/>
<path d="M388.18,199.12,504.08,225.33"/>
<path d="M388.18,199.12,467.44,93.68"/>
<path d="M388.18,199.12,367.02,232.44"/>
<path d="M980.25,816.47,859.13,802.37"/>
<path d="M980.25,816.47,961.82,709.96"/>
<path d="M980.25,816.47,1040.74,766.41"/>
<path d="M980.25,816.47,1056.85,845.36"/>
<path d="M980.25,816.47,970.67,843.78"/>
<path d="M710.54,1673.63,621.63,1571.83"/>
<path d="M710.54,1673.63,577.13,1661.55"/>
<path d="M710.54,1673.63,746.41,1650.19"/>
<path d="M630.51,1003.73,658.20,1047.11"/>
<path d="M630.51,1003.73,727.39,987.84"/>
<path d="M630.51,1003.73,560.79,1037.95"/>
<path d="M630.51,1003.73,630.41,940.30"/>
<path d="M769.17,139.18,806.39,11.29"/>
<path d="M769.17,139.18,630.33,179.70"/>
<path d="M769.17,139.18,865.01,98.95"/>
<path d="M769.17,139.18,643.70,95.97"/>
<path d="M769.17,139.18,813.30,277.90"/>
<path d="M204.93,542.03,247.24,576.92"/>
<path d="M204.93,542.03,269.01,545.76"/>
<path d="M204.93,542.03,174.93,542.52"/>
<path d="M204.93,542.03,229.19,503.52"/>
<path d="M784.72,397.76,796.96,449.22"/>
<path d="M784.72,397.76,894.04,350.56"/>
<path d="M784.72,397.76,699.69,409.35"/>
<path d="M784.72,397.76,813.30,277.90"/>
<path d="M316.98,837.86,333.40,781.40"/>
<path d="M316.98,837.86,459.51,820.60"/>
<path d="M316.98,837.86,343.72,892.29"/>
<path d="M316.98,837.86,229.56,845.93"/>
<path d="M1577.28,1731.96,1584.48,1572.12"/>
<path d="M1577.28,1731.96,1331.37,1644.91"/>
<path d="M1577.28,1731.96,1676.88,1727.23"/>
<path d="M44.46,1216.52,27.75,1188.78"/>
<path d="M44.46,1216.52,23.44,1253.61"/>
<path d="M44.46,1216.52,215.43,1160.17"/>
<path d="M44.46,1216.52,219.19,1345.50"/>
<path d="M1434.71,1385.09,1332.51,1533.33"/>
<path d="M1434.71,1385.09,1372.95,1359.48"/>
<path d="M1434.71,1385.09,1455.84,1370.40"/>
<path d="M1434.71,1385.09,1495.70,1488.66"/>
<path d="M725.78,888.27,727.39,987.84"/>
<path d="M725.78,888.27,571.08,777.29"/>
<path d="M725.78,888.27,630.41,940.30"/>
<path d="M725.78,888.27,806.20,867.60"/>
<path d="M523.93,504.87,558.73,523.48"/>
<path d="M523.93,504.87,433.65,479.78"/>
<path d="M523.93,504.87,552.50,448.34"/>
<path d="M1425.87,442.64,1314.77,461.00"/>
<path d="M1425.87,442.64,1447.59,305.60"/>
<path d="M1425.87,442.64,1482.97,320.65"/>
<path d="M1425.87,442.64,1359.27,365.75"/>
<path d="M1425.87,442.64,1523.90,490.48"/>
<path d="M1086.63,567.58,1199.39,521.19"/>
<path d="M1086.63,567.58,1080.23,510.49"/>
<path d="M1086.63,567.58,986.38,540.89"/>
<path d="M1086.63,567.58,1026.67,614.19"/>
<path d="M98.16,656.31,56.72,618.64"/>
<path d="M98.16,656.31,47.57,834.84"/>
<path d="M98.16,656.31,149.20,617.09"/>
<path d="M98.16,656.31,187.54,732.01"/>
<path d="M991.81,1436.12,1034.48,1432.19"/>
<path d="M991.81,1436.12,970.03,1489.64"/>
<path d="M991.81,1436.12,942.24,1430.68"/>
<path d="M669.42,1190.77,723.86,1242.71"/>
<path d="M669.42,1190.77,714.50,1151.33"/>
<path d="M669.42,1190.77,590.82,1178.86"/>
<path d="M669.42,1190.77,674.69,1293.21"/>
<path d="M669.42,1190.77,594.12,1209.58"/>
<path d="M1060.42,1254.13,1034.48,1432.19"/>
<path d="M1060.42,1254.13,1170.11,1388.47"/>
<path d="M1060.42,1254.13,1185.97,1252.48"/>
<path d="M1060.42,1254.13,1020.00,1232.93"/>
<path d="M1060.42,1254.13,1140.28,1180.41"/>
<path d="M1118.85,55.10,1071.30,37.54"/>
<path d="M1118.85,55.10,1047.52,266.33"/>
<path d="M1118.85,55.10,1004.24,247.51"/>
<path d="M1118.85,55.10,1194.06,131.39"/>
<path d="M794.94,1194.48,723.86,1242.71"/>
<path d="M794.94,1194.48,714.50,1151.33"/>
<path d="M794.94,1194.48,1020.00,1232.93"/>
<path d="M794.94,1194.48,822.03,1039.98"/>
<path d="M794.94,1194.48,879.04,1342.19"/>
<path d="M869.57,879.15,859.13,802.37"/>
<path d="M869.57,879.15,930.52,940.80"/>
<path d="M869.57,879.15,953.56,864.80"/>
<path d="M869.57,879.15,806.20,867.60"/>
<path d="M271.65,323.03,183.88,397.15"/>
<path d="M271.65,323.03,372.66,340.03"/>
<path d="M271.65,323.03,351.11,461.76"/>
<path d="M271.65,323.03,324.53,475.64"/>
<path d="M271.65,323.03,280.21,234.43"/>
<path d="M979.01,1051.08,944.23,1052.12"/>
<path d="M979.01,1051.08,1027.57,927.50"/>
<path d="M979.01,1051.08,993.56,1084.25"/>
<path d="M1451.59,1228.85,1495.41,1198.35"/>
<path d="M1451.59,1228.85,1450.18,1337.68"/>
<path d="M1451.59,1228.85,1396.65,1140.75"/>
<path d="M1451.59,1228.85,1357.53,1248.97"/>
<path d="M68.91,1553.70,1.41,1665.77"/>
<path d="M68.91,1553.70,40.03,1500.83"/>
<path d="M68.91,1553.70,115.45,1563.16"/>
<path d="M682.95,1512.85,687.81,1418.01"/>
<path d="M682.95,1512.85,654.31,1502.91"/>
<path d="M682.95,1512.85,707.99,1566.77"/>
<path d="M949.26,389.50,934.98,424.46"/>
<path d="M949.26,389.50,1015.35,374.16"/>
<path d="M949.26,389.50,894.04,350.56"/>
<path d="M23.02,211.17,15.76,163.16"/>
<path d="M23.02,211.17,64.20,228.72"/>
<path d="M1606.60,813.36,1568.33,814.96"/>
<path d="M1606.60,813.36,1596.93,911.31"/>
<path d="M1606.60,813.36,1656.91,805.31"/>
<path d="M316.36,1455.12,355.57,1442.07"/>
<path d="M316.36,1455.12,219.19,1345.50"/>
<path d="M316.36,1455.12,329.41,1520.00"/>
<path d="M316.36,1455.12,262.94,1531.01"/>
<path d="M859.13,802.37,961.82,709.96"/>
<path d="M859.13,802.37,953.56,864.80"/>
<path d="M859.13,802.37,743.81,591.18"/>
<path d="M859.13,802.37,806.20,867.60"/>
<path d="M1412.15,780.49,1440.91,754.98"/>
<path d="M1412.15,780.49,1417.31,828.42"/>
<path d="M1412.15,780.49,1321.92,771.61"/>
<path d="M895.81,87.24,865.01,98.95"/>
<path d="M895.81,87.24,929.37,110.72"/>
<path d="M934.98,424.46,932.69,460.30"/>
<path d="M930.52,940.80,915.27,996.13"/>
<path d="M930.52,940.80,1027.57,927.50"/>
<path d="M930.52,940.80,953.56,864.80"/>
<path d="M961.82,709.96,1040.74,766.41"/>
<path d="M961.82,709.96,982.84,638.21"/>
<path d="M1300.93,1621.77,1331.37,1644.91"/>
<path d="M1300.93,1621.77,1276.32,1566.41"/>
<path d="M1300.93,1621.77,1261.82,1679.35"/>
<path d="M78.53,300.16,183.88,397.15"/>
<path d="M78.53,300.16,8.28,404.64"/>
<path d="M78.53,300.16,131.46,217.18"/>
<path d="M78.53,300.16,64.20,228.72"/>
<path d="M78.53,300.16,129.92,451.74"/>
<path d="M372.99,701.82,247.24,576.92"/>
<path d="M372.99,701.82,333.40,781.40"/>
<path d="M372.99,701.82,459.51,820.60"/>
<path d="M372.99,701.82,431.73,661.71"/>
<path d="M991.29,596.22,982.84,638.21"/>
<path d="M991.29,596.22,958.49,590.97"/>
<path d="M991.29,596.22,986.38,540.89"/>
<path d="M991.29,596.22,1026.67,614.19"/>
<path d="M1171.50,1513.49,1218.91,1483.35"/>
<path d="M1171.50,1513.49,1144.17,1511.20"/>
<path d="M1293.85,882.61,1319.95,909.87"/>
<path d="M1293.85,882.61,1257.48,791.68"/>
<path d="M1293.85,882.61,1321.92,771.61"/>
<path d="M1617.30,305.03,1665.78,294.64"/>
<path d="M1617.30,305.03,1519.92,327.55"/>
<path d="M1617.30,305.03,1670.48,327.52"/>
<path d="M1617.30,305.03,1519.45,258.08"/>
<path d="M1198.67,756.05,1056.85,845.36"/>
<path d="M1198.67,756.05,1098.05,708.51"/>
<path d="M1198.67,756.05,1199.39,521.19"/>
<path d="M1198.67,756.05,1257.48,791.68"/>
<path d="M1198.67,756.05,1329.26,627.82"/>
<path d="M4.88,503.33,41.57,509.36"/>
<path d="M4.88,503.33,8.28,404.64"/>
<path d="M4.88,503.33,26.30,582.95"/>
<path d="M915.27,996.13,944.23,1052.12"/>
<path d="M915.27,996.13,822.03,1039.98"/>
<path d="M483.72,404.04,408.96,304.63"/>
<path d="M483.72,404.04,372.66,340.03"/>
<path d="M483.72,404.04,433.65,479.78"/>
<path d="M483.72,404.04,552.50,448.34"/>
<path d="M483.72,404.04,577.64,266.79"/>
<path d="M247.24,576.92,269.01,545.76"/>
<path d="M333.40,781.40,459.51,820.60"/>
<path d="M333.40,781.40,187.54,732.01"/>
<path d="M1497.60,1092.15,1495.41,1198.35"/>
<path d="M1497.60,1092.15,1470.34,1071.29"/>
<path d="M1497.60,1092.15,1567.11,1185.87"/>
<path d="M1497.60,1092.15,1585.03,1094.49"/>
<path d="M1497.60,1092.15,1579.59,1043.12"/>
<path d="M532.93,935.04,459.51,820.60"/>
<path d="M532.93,935.04,560.79,1037.95"/>
<path d="M532.93,935.04,571.08,777.29"/>
<path d="M532.93,935.04,630.41,940.30"/>
<path d="M532.93,935.04,368.90,993.44"/>
<path d="M1665.78,294.64,1720.64,152.43"/>
<path d="M1665.78,294.64,1670.48,327.52"/>
<path d="M621.63,1571.83,577.13,1661.55"/>
<path d="M621.63,1571.83,654.31,1502.91"/>
<path d="M621.63,1571.83,707.99,1566.77"/>
<path d="M262.83,81.68,321.63,0.12"/>
<path d="M262.83,81.68,157.90,131.22"/>
<path d="M262.83,81.68,358.30,195.66"/>
<path d="M262.83,81.68,121.87,45.72"/>
<path d="M262.83,81.68,209.26,176.38"/>
<path d="M940.60,1356.75,1020.00,1232.93"/>
<path d="M940.60,1356.75,942.24,1430.68"/>
<path d="M940.60,1356.75,879.04,1342.19"/>
<path d="M15.76,163.16,157.90,131.22"/>
<path d="M15.76,163.16,121.87,45.72"/>
<path d="M1.41,1665.77,69.24,1726.80"/>
<path d="M687.81,1418.01,654.31,1502.91"/>
<path d="M687.81,1418.01,608.76,1473.44"/>
<path d="M687.81,1418.01,594.05,1387.82"/>
<path d="M1440.91,754.98,1511.16,801.35"/>
<path d="M1440.91,754.98,1373.18,672.97"/>
<path d="M1440.91,754.98,1552.58,732.56"/>
<path d="M1034.48,1432.19,1058.71,1441.73"/>
<path d="M1314.77,461.00,1332.72,366.95"/>
<path d="M1314.77,461.00,1199.39,521.19"/>
<path d="M1314.77,461.00,1329.26,627.82"/>
<path d="M1314.77,461.00,1213.92,368.57"/>
<path d="M1495.41,1198.35,1567.11,1185.87"/>
<path d="M1495.41,1198.35,1396.65,1140.75"/>
<path d="M1495.41,1198.35,1587.22,1345.45"/>
<path d="M459.51,820.60,431.73,661.71"/>
<path d="M459.51,820.60,533.51,688.83"/>
<path d="M459.51,820.60,343.72,892.29"/>
<path d="M459.51,820.60,571.08,777.29"/>
<path d="M1319.95,909.87,1417.31,828.42"/>
<path d="M1319.95,909.87,1266.34,972.86"/>
<path d="M321.63,0.12,467.44,93.68"/>
<path d="M1040.74,766.41,1056.85,845.36"/>
<path d="M1040.74,766.41,1098.05,708.51"/>
<path d="M970.03,1489.64,933.56,1498.89"/>
<path d="M970.03,1489.64,1007.51,1552.91"/>
<path d="M970.03,1489.64,942.24,1430.68"/>
<path d="M723.86,1242.71,745.20,1301.64"/>
<path d="M723.86,1242.71,714.50,1151.33"/>
<path d="M723.86,1242.71,674.69,1293.21"/>
<path d="M1058.71,1441.73,1140.91,1465.44"/>
<path d="M1058.71,1441.73,1007.51,1552.91"/>
<path d="M1058.71,1441.73,1110.59,1522.71"/>
<path d="M1511.16,801.35,1568.33,814.96"/>
<path d="M1511.16,801.35,1417.31,828.42"/>
<path d="M1511.16,801.35,1446.84,916.71"/>
<path d="M1511.16,801.35,1552.58,732.56"/>
<path d="M480.66,1673.32,577.13,1661.55"/>
<path d="M480.66,1673.32,525.07,1716.86"/>
<path d="M480.66,1673.32,399.42,1701.09"/>
<path d="M1535.77,80.66,1671.34,7.88"/>
<path d="M1535.77,80.66,1513.69,141.71"/>
<path d="M1535.77,80.66,1610.18,152.96"/>
<path d="M1535.77,80.66,1490.66,86.40"/>
<path d="M1094.97,437.73,1093.75,375.18"/>
<path d="M1094.97,437.73,1199.39,521.19"/>
<path d="M1094.97,437.73,993.60,482.45"/>
<path d="M1094.97,437.73,1080.23,510.49"/>
<path d="M1277.63,1450.03,1332.51,1533.33"/>
<path d="M1277.63,1450.03,1274.40,1411.91"/>
<path d="M1277.63,1450.03,1218.91,1483.35"/>
<path d="M1277.63,1450.03,1276.32,1566.41"/>
<path d="M1202.17,1415.59,1140.91,1465.44"/>
<path d="M1202.17,1415.59,1170.11,1388.47"/>
<path d="M1202.17,1415.59,1274.40,1411.91"/>
<path d="M1202.17,1415.59,1218.91,1483.35"/>
<path d="M658.20,1047.11,727.39,987.84"/>
<path d="M658.20,1047.11,714.50,1151.33"/>
<path d="M658.20,1047.11,590.82,1178.86"/>
<path d="M796.96,449.22,719.30,473.28"/>
<path d="M796.96,449.22,830.30,475.38"/>
<path d="M796.96,449.22,762.44,522.41"/>
<path d="M1140.91,1465.44,1170.11,1388.47"/>
<path d="M1140.91,1465.44,1144.17,1511.20"/>
<path d="M1332.11,291.21,1332.72,366.95"/>
<path d="M1332.11,291.21,1447.59,305.60"/>
<path d="M1332.11,291.21,1457.42,176.71"/>
<path d="M1332.11,291.21,1359.27,365.75"/>
<path d="M1332.11,291.21,1248.04,275.62"/>
<path d="M933.56,1498.89,897.77,1552.12"/>
<path d="M933.56,1498.89,942.24,1430.68"/>
<path d="M964.04,1611.53,1014.31,1691.54"/>
<path d="M964.04,1611.53,897.77,1552.12"/>
<path d="M964.04,1611.53,1007.51,1552.91"/>
<path d="M964.04,1611.53,880.76,1593.96"/>
<path d="M431.73,661.71,269.01,545.76"/>
<path d="M431.73,661.71,533.51,688.83"/>
<path d="M431.73,661.71,518.78,595.04"/>
<path d="M183.88,397.15,229.19,503.52"/>
<path d="M183.88,397.15,129.92,451.74"/>
<path d="M1056.85,845.36,1027.57,927.50"/>
<path d="M1056.85,845.36,970.67,843.78"/>
<path d="M1056.85,845.36,1266.34,972.86"/>
<path d="M806.39,11.29,865.01,98.95"/>
<path d="M806.39,11.29,643.70,95.97"/>
<path d="M1568.33,814.96,1596.93,911.31"/>
<path d="M1568.33,814.96,1552.58,732.56"/>
<path d="M1015.35,374.16,1047.52,266.33"/>
<path d="M1015.35,374.16,993.60,482.45"/>
<path d="M1332.72,366.95,1359.27,365.75"/>
<path d="M1332.72,366.95,1213.92,368.57"/>
<path d="M745.20,1301.64,674.69,1293.21"/>
<path d="M745.20,1301.64,879.04,1342.19"/>
<path d="M1234.34,1279.76,1170.11,1388.47"/>
<path d="M1234.34,1279.76,1274.40,1411.91"/>
<path d="M1234.34,1279.76,1372.95,1359.48"/>
<path d="M1234.34,1279.76,1185.97,1252.48"/>
<path d="M1234.34,1279.76,1357.53,1248.97"/>
<path d="M1584.48,1572.12,1560.20,1497.45"/>
<path d="M1584.48,1572.12,1664.08,1549.93"/>
<path d="M1584.48,1572.12,1676.88,1727.23"/>
<path d="M408.96,304.63,372.66,340.03"/>
<path d="M408.96,304.63,504.08,225.33"/>
<path d="M408.96,304.63,367.02,232.44"/>
<path d="M329.00,234.31,358.30,195.66"/>
<path d="M329.00,234.31,367.02,232.44"/>
<path d="M329.00,234.31,280.21,234.43"/>
<path d="M130.43,1001.20,89.46,972.82"/>
<path d="M130.43,1001.20,75.82,1083.31"/>
<path d="M130.43,1001.20,297.75,1041.99"/>
<path d="M130.43,1001.20,229.56,845.93"/>
<path d="M420.93,1369.56,355.57,1442.07"/>
<path d="M420.93,1369.56,594.05,1387.82"/>
<path d="M420.93,1369.56,262.14,1295.97"/>
<path d="M420.93,1369.56,449.78,1267.00"/>
<path d="M551.18,583.48,552.01,643.52"/>
<path d="M551.18,583.48,518.78,595.04"/>
<path d="M1671.34,7.88,1610.18,152.96"/>
<path d="M1671.34,7.88,1720.64,152.43"/>
<path d="M1450.18,1337.68,1372.95,1359.48"/>
<path d="M1450.18,1337.68,1455.84,1370.40"/>
<path d="M1450.18,1337.68,1357.53,1248.97"/>
<path d="M1450.18,1337.68,1587.22,1345.45"/>
<path d="M1027.57,927.50,953.56,864.80"/>
<path d="M1027.57,927.50,1266.34,972.86"/>
<path d="M498.92,1150.24,451.47,1171.87"/>
<path d="M498.92,1150.24,590.82,1178.86"/>
<path d="M498.92,1150.24,560.79,1037.95"/>
<path d="M1447.59,305.60,1482.97,320.65"/>
<path d="M1447.59,305.60,1457.42,176.71"/>
<path d="M1447.59,305.60,1359.27,365.75"/>
<path d="M1098.05,708.51,1026.67,614.19"/>
<path d="M269.01,545.76,229.19,503.52"/>
<path d="M269.01,545.76,324.53,475.64"/>
<path d="M1170.11,1388.47,1185.97,1252.48"/>
<path d="M953.56,864.80,970.67,843.78"/>
<path d="M372.66,340.03,351.11,461.76"/>
<path d="M1233.59,1159.04,1185.97,1252.48"/>
<path d="M1233.59,1159.04,1357.53,1248.97"/>
<path d="M1233.59,1159.04,1331.31,1131.16"/>
<path d="M1233.59,1159.04,1140.28,1180.41"/>
<path d="M1233.59,1159.04,1226.72,1075.74"/>
<path d="M134.87,581.52,174.93,542.52"/>
<path d="M134.87,581.52,41.57,509.36"/>
<path d="M134.87,581.52,56.72,618.64"/>
<path d="M134.87,581.52,149.20,617.09"/>
<path d="M630.33,179.70,643.70,95.97"/>
<path d="M630.33,179.70,467.44,93.68"/>
<path d="M630.33,179.70,601.38,216.69"/>
<path d="M630.33,179.70,640.19,216.91"/>
<path d="M533.51,688.83,552.01,643.52"/>
<path d="M533.51,688.83,571.08,777.29"/>
<path d="M174.93,542.52,129.92,451.74"/>
<path d="M993.56,1084.25,1020.00,1232.93"/>
<path d="M993.56,1084.25,1094.39,1116.60"/>
<path d="M1482.97,320.65,1519.92,327.55"/>
<path d="M1482.97,320.65,1519.45,258.08"/>
<path d="M1513.69,141.71,1610.18,152.96"/>
<path d="M1513.69,141.71,1457.42,176.71"/>
<path d="M1513.69,141.71,1490.66,86.40"/>
<path d="M1513.69,141.71,1519.45,258.08"/>
<path d="M229.19,503.52,324.53,475.64"/>
<path d="M229.19,503.52,129.92,451.74"/>
<path d="M1093.75,375.18,1213.92,368.57"/>
<path d="M1332.51,1533.33,1495.70,1488.66"/>
<path d="M1332.51,1533.33,1276.32,1566.41"/>
<path d="M1289.87,1050.00,1266.34,972.86"/>
<path d="M1289.87,1050.00,1331.31,1131.16"/>
<path d="M1289.87,1050.00,1226.72,1075.74"/>
<path d="M339.63,1135.71,424.25,1201.37"/>
<path d="M339.63,1135.71,279.33,1089.37"/>
<path d="M339.63,1135.71,273.42,1203.11"/>
<path d="M727.39,987.84,822.03,1039.98"/>
<path d="M727.39,987.84,630.41,940.30"/>
<path d="M1417.31,828.42,1446.84,916.71"/>
<path d="M1610.18,152.96,1720.64,152.43"/>
<path d="M1457.42,176.71,1264.52,132.19"/>
<path d="M1457.42,176.71,1519.45,258.08"/>
<path d="M1470.34,1071.29,1515.04,979.34"/>
<path d="M1470.34,1071.29,1396.65,1140.75"/>
<path d="M1574.52,541.51,1373.18,672.97"/>
<path d="M1574.52,541.51,1523.90,490.48"/>
<path d="M1574.52,541.51,1626.93,544.32"/>
<path d="M1574.52,541.51,1552.58,732.56"/>
<path d="M932.69,460.30,854.25,488.07"/>
<path d="M932.69,460.30,993.60,482.45"/>
<path d="M854.25,488.07,830.30,475.38"/>
<path d="M854.25,488.07,958.49,590.97"/>
<path d="M1199.39,521.19,1329.26,627.82"/>
<path d="M1199.39,521.19,1080.23,510.49"/>
<path d="M1199.39,521.19,1213.92,368.57"/>
<path d="M894.04,350.56,830.30,475.38"/>
<path d="M894.04,350.56,813.30,277.90"/>
<path d="M894.04,350.56,1004.24,247.51"/>
<path d="M171.68,1600.51,115.45,1563.16"/>
<path d="M171.68,1600.51,181.98,1625.51"/>
<path d="M171.68,1600.51,262.94,1531.01"/>
<path d="M343.72,892.29,318.96,964.05"/>
<path d="M1515.04,979.34,1596.93,911.31"/>
<path d="M1515.04,979.34,1579.59,1043.12"/>
<path d="M1515.04,979.34,1446.84,916.71"/>
<path d="M41.57,509.36,26.30,582.95"/>
<path d="M41.57,509.36,59.97,475.64"/>
<path d="M1071.30,37.54,929.37,110.72"/>
<path d="M1071.30,37.54,1004.24,247.51"/>
<path d="M1660.51,550.95,1681.78,690.89"/>
<path d="M1660.51,550.95,1626.93,544.32"/>
<path d="M577.13,1661.55,525.07,1716.86"/>
<path d="M1014.31,1691.54,1261.82,1679.35"/>
<path d="M719.30,473.28,699.69,409.35"/>
<path d="M719.30,473.28,762.44,522.41"/>
<path d="M719.30,473.28,606.36,560.79"/>
<path d="M1632.11,490.17,1709.76,449.47"/>
<path d="M1632.11,490.17,1626.93,544.32"/>
<path d="M451.47,1171.87,424.25,1201.37"/>
<path d="M69.24,1726.80,115.45,1563.16"/>
<path d="M69.24,1726.80,181.98,1625.51"/>
<path d="M69.24,1726.80,215.41,1693.08"/>
<path d="M424.25,1201.37,449.78,1267.00"/>
<path d="M746.41,1650.19,707.99,1566.77"/>
<path d="M746.41,1650.19,784.31,1620.66"/>
<path d="M1717.75,726.09,1681.78,690.89"/>
<path d="M1717.75,726.09,1656.91,805.31"/>
<path d="M56.72,618.64,26.30,582.95"/>
<path d="M318.96,964.05,297.75,1041.99"/>
<path d="M318.96,964.05,368.90,993.44"/>
<path d="M1567.11,1185.87,1585.03,1094.49"/>
<path d="M1567.11,1185.87,1662.31,1120.40"/>
<path d="M1567.11,1185.87,1716.95,1202.10"/>
<path d="M1567.11,1185.87,1587.22,1345.45"/>
<path d="M1257.48,791.68,1321.92,771.61"/>
<path d="M929.37,110.72,1004.24,247.51"/>
<path d="M89.46,972.82,47.57,834.84"/>
<path d="M89.46,972.82,229.56,845.93"/>
<path d="M1047.52,266.33,1004.24,247.51"/>
<path d="M1047.52,266.33,1248.04,275.62"/>
<path d="M1047.52,266.33,1194.06,131.39"/>
<path d="M897.77,1552.12,833.49,1567.46"/>
<path d="M897.77,1552.12,1007.51,1552.91"/>
<path d="M897.77,1552.12,880.76,1593.96"/>
<path d="M40.03,1500.83,104.81,1461.84"/>
<path d="M433.65,479.78,351.11,461.76"/>
<path d="M1519.92,327.55,1519.45,258.08"/>
<path d="M1519.92,327.55,1523.90,490.48"/>
<path d="M993.60,482.45,1080.23,510.49"/>
<path d="M993.60,482.45,986.38,540.89"/>
<path d="M47.57,834.84,17.91,842.43"/>
<path d="M47.57,834.84,187.54,732.01"/>
<path d="M47.57,834.84,229.56,845.93"/>
<path d="M699.69,409.35,677.00,314.73"/>
<path d="M699.69,409.35,552.50,448.34"/>
<path d="M1321.92,771.61,1373.18,672.97"/>
<path d="M1274.40,1411.91,1372.95,1359.48"/>
<path d="M714.50,1151.33,822.03,1039.98"/>
<path d="M982.84,638.21,958.49,590.97"/>
<path d="M982.84,638.21,1026.67,614.19"/>
<path d="M1329.26,627.82,1373.18,672.97"/>
<path d="M1372.95,1359.48,1357.53,1248.97"/>
<path d="M590.82,1178.86,560.79,1037.95"/>
<path d="M590.82,1178.86,594.12,1209.58"/>
<path d="M8.28,404.64,59.97,475.64"/>
<path d="M1560.20,1497.45,1495.70,1488.66"/>
<path d="M1560.20,1497.45,1587.22,1345.45"/>
<path d="M23.44,1253.61,219.19,1345.50"/>
<path d="M23.44,1253.61,104.81,1461.84"/>
<path d="M1185.97,1252.48,1140.28,1180.41"/>
<path d="M1585.03,1094.49,1662.31,1120.40"/>
<path d="M1585.03,1094.49,1579.59,1043.12"/>
<path d="M297.75,1041.99,279.33,1089.37"/>
<path d="M297.75,1041.99,368.90,993.44"/>
<path d="M560.79,1037.95,368.90,993.44"/>
<path d="M157.90,131.22,131.46,217.18"/>
<path d="M157.90,131.22,121.87,45.72"/>
<path d="M157.90,131.22,209.26,176.38"/>
<path d="M654.31,1502.91,608.76,1473.44"/>
<path d="M707.99,1566.77,784.31,1620.66"/>
<path d="M833.49,1567.46,880.76,1593.96"/>
<path d="M833.49,1567.46,784.31,1620.66"/>
<path d="M115.45,1563.16,104.81,1461.84"/>
<path d="M351.11,461.76,324.53,475.64"/>
<path d="M358.30,195.66,367.02,232.44"/>
<path d="M1681.78,690.89,1552.58,732.56"/>
<path d="M1662.31,1120.40,1716.95,1202.10"/>
<path d="M1662.31,1120.40,1658.08,1011.57"/>
<path d="M677.00,314.73,577.64,266.79"/>
<path d="M677.00,314.73,813.30,277.90"/>
<path d="M677.00,314.73,640.19,216.91"/>
<path d="M131.46,217.18,64.20,228.72"/>
<path d="M131.46,217.18,209.26,176.38"/>
<path d="M504.08,225.33,467.44,93.68"/>
<path d="M504.08,225.33,601.38,216.69"/>
<path d="M504.08,225.33,577.64,266.79"/>
<path d="M279.33,1089.37,215.43,1160.17"/>
<path d="M279.33,1089.37,273.42,1203.11"/>
<path d="M1455.84,1370.40,1587.22,1345.45"/>
<path d="M643.70,95.97,467.44,93.68"/>
<path d="M215.43,1160.17,273.42,1203.11"/>
<path d="M1007.51,1552.91,1110.59,1522.71"/>
<path d="M263.21,1730.12,399.42,1701.09"/>
<path d="M263.21,1730.12,215.41,1693.08"/>
<path d="M1020.00,1232.93,1094.39,1116.60"/>
<path d="M1396.65,1140.75,1357.53,1248.97"/>
<path d="M1396.65,1140.75,1331.31,1131.16"/>
<path d="M552.01,643.52,518.78,595.04"/>
<path d="M1596.93,911.31,1579.59,1043.12"/>
<path d="M1596.93,911.31,1658.08,1011.57"/>
<path d="M1596.93,911.31,1683.81,870.29"/>
<path d="M1218.91,1483.35,1276.32,1566.41"/>
<path d="M830.30,475.38,762.44,522.41"/>
<path d="M1579.59,1043.12,1658.08,1011.57"/>
<path d="M1080.23,510.49,986.38,540.89"/>
<path d="M1264.52,132.19,1430.45,9.38"/>
<path d="M1264.52,132.19,1248.04,275.62"/>
<path d="M1264.52,132.19,1194.06,131.39"/>
<path d="M608.76,1473.44,594.05,1387.82"/>
<path d="M219.19,1345.50,104.81,1461.84"/>
<path d="M219.19,1345.50,262.14,1295.97"/>
<path d="M822.03,1039.98,806.20,867.60"/>
<path d="M1716.95,1202.10,1587.22,1345.45"/>
<path d="M743.81,591.18,762.44,522.41"/>
<path d="M743.81,591.18,606.36,560.79"/>
<path d="M329.41,1520.00,399.42,1701.09"/>
<path d="M329.41,1520.00,262.94,1531.01"/>
<path d="M1490.66,86.40,1430.45,9.38"/>
<path d="M1670.48,327.52,1709.76,449.47"/>
<path d="M601.38,216.69,577.64,266.79"/>
<path d="M601.38,216.69,640.19,216.91"/>
<path d="M1213.92,368.57,1248.04,275.62"/>
<path d="M187.54,732.01,229.56,845.93"/>
<path d="M1331.37,1644.91,1261.82,1679.35"/>
<path d="M273.42,1203.11,262.14,1295.97"/>
<path d="M104.81,1461.84,262.94,1531.01"/>
<path d="M1357.53,1248.97,1331.31,1131.16"/>
<path d="M1110.59,1522.71,1144.17,1511.20"/>
<path d="M1664.08,1549.93,1676.88,1727.23"/>
<path d="M571.08,777.29,630.41,940.30"/>
<path d="M958.49,590.97,986.38,540.89"/>
<path d="M181.98,1625.51,215.41,1693.08"/>
<path d="M552.50,448.34,577.64,266.79"/>
<path d="M594.05,1387.82,674.69,1293.21"/>
<path d="M594.05,1387.82,449.78,1267.00"/>
<path d="M59.97,475.64,129.92,451.74"/>
<path d="M1373.18,672.97,1523.90,490.48"/>
<path d="M262.14,1295.97,449.78,1267.00"/>
<path d="M674.69,1293.21,594.12,1209.58"/>
<path d="M1094.39,1116.60,1140.28,1180.41"/>
<path d="M1094.39,1116.60,1226.72,1075.74"/>
<path d="M1656.91,805.31,1683.81,870.29"/>
<path d="M1658.08,1011.57,1683.81,870.29"/>
<path d="M280.21,234.43,209.26,176.38"/>
<path d="M594.12,1209.58,449.78,1267.00"/>
<path d="M1248.04,275.62,1194.06,131.39"/>
<circle cx="569.24" cy="546.71" r="10"/>
<text x="569.24" y="551.71">R0</text>
<circle cx="1068.47" cy="363.18" r="10"/>
<text x="1068.47" y="368.18">R1</text>
<circle cx="198.20" cy="1128.21" r="10"/>
<text x="198.20" y="1133.21">R2</text>
<circle cx="1390.76" cy="970.76" r="10"/>
<text x="1390.76" y="975.76">R3</text>
<circle cx="59.57" cy="1104.14" r="10"/>
<text x="59.57" y="1109.14">R4</text>
<circle cx="1609.91" cy="224.27" r="10"/>
<text x="1609.91" y="229.27">R5</text>
<circle cx="212.32" cy="642.39" r="10"/>
<text x="212.32" y="647.39">R6</text>
<circle cx="704.70" cy="1384.33" r="10"/>
<text x="704.70" y="1389.33">R7</text>
<circle cx="388.18" cy="199.12" r="10"/>
<text x="388.18" y="204.12">R8</text>
<circle cx="980.25" cy="816.47" r="10"/>
<text x="980.25" y="821.47">R9</text>
<circle cx="710.54" cy="1673.63" r="10"/>
<text x="710.54" y="1678.63">R10</text>
<circle cx="630.51" cy="1003.73" r="10"/>
<text x="630.51" y="1008.73">R11</text>
<circle cx="769.17" cy="139.18" r="10"/>
<text x="769.17" y="144.18">R12</text>
<circle cx="204.93" cy="542.03" r="10"/>
<text x="204.93" y="547.03">R13</text>
<circle cx="784.72" cy="397.76" r="10"/>
<text x="784.72" y="402.76">R14</text>
<circle cx="316.98" cy="837.86" r="10"/>
<text x="316.98" y="842.86">R15</text>
<circle cx="1577.28" cy="1731.96" r="10"/>
<text x="1577.28" y="1736.96">R16</text>
<circle cx="44.46" cy="1216.52" r="10"/>
<text x="44.46" y="1221.52">R17</text>
<circle cx="1434.71" cy="1385.09" r="10"/>
<text x="1434.71" y="1390.09">R18</text>
<circle cx="725.78" cy="888.27" r="10"/>
<text x="725.78" y="893.27">R19</text>
<circle cx="523.93" cy="504.87" r="10"/>
<text x="523.93" y="509.87">R20</text>
<circle cx="1425.87" cy="442.64" r="10"/>
<text x="1425.87" y="447.64">R21</text>
<circle cx="1086.63" cy="567.58" r="10"/>
<text x="1086.63" y="572.58">R22</text>
<circle cx="98.16" cy="656.31" r="10"/>
<text x="98.16" y="661.31">R23</text>
<circle cx="991.81" cy="1436.12" r="10"/>
<text x="991.81" y="1441.12">R24</text>
<circle cx="669.42" cy="1190.77" r="10"/>
<text x="669.42" y="1195.77">R25</text>
<circle cx="1060.42" cy="1254.13" r="10"/>
<text x="1060.42" y="1259.13">R26</text>
<circle cx="1118.85" cy="55.10" r="10"/>
<text x="1118.85" y="60.10">R27</text>
<circle cx="794.94" cy="1194.48" r="10"/>
<text x="794.94" y="1199.48">R28</text>
<circle cx="869.57" cy="879.15" r="10"/>
<text x="869.57" y="884.15">R29</text>
<circle cx="271.65" cy="323.03" r="10"/>
<text x="271.65" y="328.03">R30</text>
<circle cx="979.01" cy="1051.08" r="10"/>
<text x="979.01" y="1056.08">R31</text>
<circle cx="1451.59" cy="1228.85" r="10"/>
<text x="1451.59" y="1233.85">R32</text>
<circle cx="68.91" cy="1553.70" r="10"/>
<text x="68.91" y="1558.70">R33</text>
<circle cx="682.95" cy="1512.85" r="10"/>
<text x="682.95" y="1517.85">R34</text>
<circle cx="949.26" cy="389.50" r="10"/>
<text x="949.26" y="394.50">R35</text>
<circle cx="23.02" cy="211.17" r="10"/>
<text x="23.02" y="216.17">R36</text>
<circle cx="1606.60" cy="813.36" r="10"/>
<text x="1606.60" y="818.36">R37</text>
<circle cx="316.36" cy="1455.12" r="10"/>
<text x="316.36" y="1460.12">R38</text>
<circle cx="859.13" cy="802.37" r="10"/>
<text x="859.13" y="807.37">R39</text>
<circle cx="1412.15" cy="780.49" r="10"/>
<text x="1412.15" y="785.49">R40</text>
<circle cx="895.81" cy="87.24" r="10"/>
<text x="895.81" y="92.24">R41</text>
<circle cx="934.98" cy="424.46" r="10"/>
<text x="934.98" y="429.46">R42</text>
<circle cx="930.52" cy="940.80" r="10"/>
<text x="930.52" y="945.80">R43</text>
<circle cx="961.82" cy="709.96" r="10"/>
<text x="961.82" y="714.96">R44</text>
<circle cx="1300.93" cy="1621.77" r="10"/>
<text x="1300.93" y="1626.77">R45</text>
<circle cx="78.53" cy="300.16" r="10"/>
<text x="78.53" y="305.16">R46</text>
<circle cx="372.99" cy="701.82" r="10"/>
<text x="372.99" y="706.82">R47</text>
<circle cx="991.29" cy="596.22" r="10"/>
<text x="991.29" y="601.22">R48</text>
<circle cx="1171.50" cy="1513.49" r="10"/>
<text x="1171.50" y="1518.49">R49</text>
<circle cx="1293.85" cy="882.61" r="10"/>
<text x="1293.85" y="887.61">R50</text>
<circle cx="1617.30" cy="305.03" r="10"/>
<text x="1617.30" y="310.03">R51</text>
<circle cx="1198.67" cy="756.05" r="10"/>
<text x="1198.67" y="761.05">R52</text>
<circle cx="4.88" cy="503.33" r="10"/>
<text x="4.88" y="508.33">R53</text>
<circle cx="915.27" cy="996.13" r="10"/>
<text x="915.27" y="1001.13">R54</text>
<circle cx="483.72" cy="404.04" r="10"/>
<text x="483.72" y="409.04">R55</text>
<circle cx="247.24" cy="576.92" r="10"/>
<text x="247.24" y="581.92">R56</text>
<circle cx="333.40" cy="781.40" r="10"/>
<text x="333.40" y="786.40">R57</text>
<circle cx="1497.60" cy="1092.15" r="10"/>
<text x="1497.60" y="1097.15">R58</text>
<circle cx="532.93" cy="935.04" r="10"/>
<text x="532.93" y="940.04">R59</text>
<circle cx="1665.78" cy="294.64" r="10"/>
<text x="1665.78" y="299.64">R60</text>
<circle cx="621.63" cy="1571.83" r="10"/>
<text x="621.63" y="1576.83">R61</text>
<circle cx="262.83" cy="81.68" r="10"/>
<text x="262.83" y="86.68">R62</text>
<circle cx="940.60" cy="1356.75" r="10"/>
<text x="940.60" y="1361.75">R63</text>
<circle cx="15.76" cy="163.16" r="10"/>
<text x="15.76" y="168.16">R64</text>
<circle cx="1.41" cy="1665.77" r="10"/>
<text x="1.41" y="1670.77">R65</text>
<circle cx="687.81" cy="1418.01" r="10"/>
<text x="687.81" y="1423.01">R66</text>
<circle cx="27.75" cy="1188.78" r="10"/>
<text x="27.75" y="1193.78">R67</text>
<circle cx="1440.91" cy="754.98" r="10"/>
<text x="1440.91" y="759.98">R68</text>
<circle cx="1034.48" cy="1432.19" r="10"/>
<text x="1034.48" y="1437.19">R69</text>
<circle cx="1314.77" cy="461.00" r="10"/>
<text x="1314.77" y="466.00">R70</text>
<circle cx="944.23" cy="1052.12" r="10"/>
<text x="944.23" y="1057.12">R71</text>
<circle cx="1495.41" cy="1198.35" r="10"/>
<text x="1495.41" y="1203.35">R72</text>
<circle cx="459.51" cy="820.60" r="10"/>
<text x="459.51" y="825.60">R73</text>
<circle cx="1319.95" cy="909.87" r="10"/>
<text x="1319.95" y="914.87">R74</text>
<circle cx="321.63" cy="0.12" r="10"/>
<text x="321.63" y="5.12">R75</text>
<circle cx="1040.74" cy="766.41" r="10"/>
<text x="1040.74" y="771.41">R76</text>
<circle cx="970.03" cy="1489.64" r="10"/>
<text x="970.03" y="1494.64">R77</text>
<circle cx="723.86" cy="1242.71" r="10"/>
<text x="723.86" y="1247.71">R78</text>
<circle cx="1058.71" cy="1441.73" r="10"/>
<text x="1058.71" y="1446.73">R79</text>
<circle cx="1511.16" cy="801.35" r="10"/>
<text x="1511.16" y="806.35">R80</text>
<circle cx="480.66" cy="1673.32" r="10"/>
<text x="480.66" y="1678.32">R81</text>
<circle cx="1535.77" cy="80.66" r="10"/>
<text x="1535.77" y="85.66">R82</text>
<circle cx="558.73" cy="523.48" r="10"/>
<text x="558.73" y="528.48">R83</text>
<circle cx="1094.97" cy="437.73" r="10"/>
<text x="1094.97" y="442.73">R84</text>
<circle cx="1277.63" cy="1450.03" r="10"/>
<text x="1277.63" y="1455.03">R85</text>
<circle cx="1202.17" cy="1415.59" r="10"/>
<text x="1202.17" y="1420.59">R86</text>
<circle cx="658.20" cy="1047.11" r="10"/>
<text x="658.20" y="1052.11">R87</text>
<circle cx="796.96" cy="449.22" r="10"/>
<text x="796.96" y="454.22">R88</text>
<circle cx="1140.91" cy="1465.44" r="10"/>
<text x="1140.91" y="1470.44">R89</text>
<circle cx="1332.11" cy="291.21" r="10"/>
<text x="1332.11" y="296.21">R90</text>
<circle cx="933.56" cy="1498.89" r="10"/>
<text x="933.56" y="1503.89">R91</text>
<circle cx="964.04" cy="1611.53" r="10"/>
<text x="964.04" y="1616.53">R92</text>
<circle cx="431.73" cy="661.71" r="10"/>
<text x="431.73" y="666.71">R93</text>
<circle cx="183.88" cy="397.15" r="10"/>
<text x="183.88" y="402.15">R94</text>
<circle cx="1056.85" cy="845.36" r="10"/>
<text x="1056.85" y="850.36">R95</text>
<circle cx="806.39" cy="11.29" r="10"/>
<text x="806.39" y="16.29">R96</text>
<circle cx="1568.33" cy="814.96" r="10"/>
<text x="1568.33" y="819.96">R97</text>
<circle cx="1015.35" cy="374.16" r="10"/>
<text x="1015.35" y="379.16">R98</text>
<circle cx="1332.72" cy="366.95" r="10"/>
<text x="1332.72" y="371.95">R99</text>
<circle cx="745.20" cy="1301.64" r="10"/>
<text x="745.20" y="1306.64">R100</text>
<circle cx="1234.34" cy="1279.76" r="10"/>
<text x="1234.34" y="1284.76">R101</text>
<circle cx="1584.48" cy="1572.12" r="10"/>
<text x="1584.48" y="1577.12">R102</text>
<circle cx="408.96" cy="304.63" r="10"/>
<text x="408.96" y="309.63">R103</text>
<circle cx="329.00" cy="234.31" r="10"/>
<text x="329.00" y="239.31">R104</text>
<circle cx="130.43" cy="1001.20" r="10"/>
<text x="130.43" y="1006.20">R105</text>
<circle cx="420.93" cy="1369.56" r="10"/>
<text x="420.93" y="1374.56">R106</text>
<circle cx="551.18" cy="583.48" r="10"/>
<text x="551.18" y="588.48">R107</text>
<circle cx="1671.34" cy="7.88" r="10"/>
<text x="1671.34" y="12.88">R108</text>
<circle cx="1450.18" cy="1337.68" r="10"/>
<text x="1450.18" y="1342.68">R109</text>
<circle cx="1027.57" cy="927.50" r="10"/>
<text x="1027.57" y="932.50">R110</text>
<circle cx="498.92" cy="1150.24" r="10"/>
<text x="498.92" y="1155.24">R111</text>
<circle cx="1447.59" cy="305.60" r="10"/>
<text x="1447.59" y="310.60">R112</text>
<circle cx="1098.05" cy="708.51" r="10"/>
<text x="1098.05" y="713.51">R113</text>
<circle cx="269.01" cy="545.76" r="10"/>
<text x="269.01" y="550.76">R114</text>
<circle cx="1170.11" cy="1388.47" r="10"/>
<text x="1170.11" y="1393.47">R115</text>
<circle cx="953.56" cy="864.80" r="10"/>
<text x="953.56" y="869.80">R116</text>
<circle cx="372.66" cy="340.03" r="10"/>
<text x="372.66" y="345.03">R117</text>
<circle cx="1233.59" cy="1159.04" r="10"/>
<text x="1233.59" y="1164.04">R118</text>
<circle cx="134.87" cy="581.52" r="10"/>
<text x="134.87" y="586.52">R119</text>
<circle cx="630.33" cy="179.70" r="10"/>
<text x="630.33" y="184.70">R120</text>
<circle cx="533.51" cy="688.83" r="10"/>
<text x="533.51" y="693.83">R121</text>
<circle cx="174.93" cy="542.52" r="10"/>
<text x="174.93" y="547.52">R122</text>
<circle cx="993.56" cy="1084.25" r="10"/>
<text x="993.56" y="1089.25">R123</text>
<circle cx="1482.97" cy="320.65" r="10"/>
<text x="1482.97" y="325.65">R124</text>
<circle cx="1513.69" cy="141.71" r="10"/>
<text x="1513.69" y="146.71">R125</text>
<circle cx="229.19" cy="503.52" r="10"/>
<text x="229.19" y="508.52">R126</text>
<circle cx="1093.75" cy="375.18" r="10"/>
<text x="1093.75" y="380.18">R127</text>
<circle cx="1332.51" cy="1533.33" r="10"/>
<text x="1332.51" y="1538.33">R128</text>
<circle cx="1289.87" cy="1050.00" r="10"/>
<text x="1289.87" y="1055.00">R129</text>
<circle cx="339.63" cy="1135.71" r="10"/>
<text x="339.63" y="1140.71">R130</text>
<circle cx="727.39" cy="987.84" r="10"/>
<text x="727.39" y="992.84">R131</text>
<circle cx="1417.31" cy="828.42" r="10"/>
<text x="1417.31" y="833.42">R132</text>
<circle cx="1610.18" cy="152.96" r="10"/>
<text x="1610.18" y="157.96">R133</text>
<circle cx="1457.42" cy="176.71" r="10"/>
<text x="1457.42" y="181.71">R134</text>
<circle cx="970.67" cy="843.78" r="10"/>
<text x="970.67" y="848.78">R135</text>
<circle cx="1470.34" cy="1071.29" r="10"/>
<text x="1470.34" y="1076.29">R136</text>
<circle cx="1574.52" cy="541.51" r="10"/>
<text x="1574.52" y="546.51">R137</text>
<circle cx="932.69" cy="460.30" r="10"/>
<text x="932.69" y="465.30">R138</text>
<circle cx="854.25" cy="488.07" r="10"/>
<text x="854.25" y="493.07">R139</text>
<circle cx="1199.39" cy="521.19" r="10"/>
<text x="1199.39" y="526.19">R140</text>
<circle cx="894.04" cy="350.56" r="10"/>
<text x="894.04" y="355.56">R141</text>
<circle cx="171.68" cy="1600.51" r="10"/>
<text x="171.68" y="1605.51">R142</text>
<circle cx="343.72" cy="892.29" r="10"/>
<text x="343.72" y="897.29">R143</text>
<circle cx="1515.04" cy="979.34" r="10"/>
<text x="1515.04" y="984.34">R144</text>
<circle cx="865.01" cy="98.95" r="10"/>
<text x="865.01" y="103.95">R145</text>
<circle cx="41.57" cy="509.36" r="10"/>
<text x="41.57" y="514.36">R146</text>
<circle cx="1071.30" cy="37.54" r="10"/>
<text x="1071.30" y="42.54">R147</text>
<circle cx="1266.34" cy="972.86" r="10"/>
<text x="1266.34" y="977.86">R148</text>
<circle cx="1660.51" cy="550.95" r="10"/>
<text x="1660.51" y="555.95">R149</text>
<circle cx="577.13" cy="1661.55" r="10"/>
<text x="577.13" y="1666.55">R150</text>
<circle cx="1014.31" cy="1691.54" r="10"/>
<text x="1014.31" y="1696.54">R151</text>
<circle cx="719.30" cy="473.28" r="10"/>
<text x="719.30" y="478.28">R152</text>
<circle cx="1632.11" cy="490.17" r="10"/>
<text x="1632.11" y="495.17">R153</text>
<circle cx="355.57" cy="1442.07" r="10"/>
<text x="355.57" y="1447.07">R154</text>
<circle cx="451.47" cy="1171.87" r="10"/>
<text x="451.47" y="1176.87">R155</text>
<circle cx="69.24" cy="1726.80" r="10"/>
<text x="69.24" y="1731.80">R156</text>
<circle cx="424.25" cy="1201.37" r="10"/>
<text x="424.25" y="1206.37">R157</text>
<circle cx="746.41" cy="1650.19" r="10"/>
<text x="746.41" y="1655.19">R158</text>
<circle cx="1717.75" cy="726.09" r="10"/>
<text x="1717.75" y="731.09">R159</text>
<circle cx="56.72" cy="618.64" r="10"/>
<text x="56.72" y="623.64">R160</text>
<circle cx="318.96" cy="964.05" r="10"/>
<text x="318.96" y="969.05">R161</text>
<circle cx="1567.11" cy="1185.87" r="10"/>
<text x="1567.11" y="1190.87">R162</text>
<circle cx="1257.48" cy="791.68" r="10"/>
<text x="1257.48" y="796.68">R163</text>
<circle cx="929.37" cy="110.72" r="10"/>
<text x="929.37" y="115.72">R164</text>
<circle cx="89.46" cy="972.82" r="10"/>
<text x="89.46" y="977.82">R165</text>
<circle cx="1047.52" cy="266.33" r="10"/>
<text x="1047.52" y="271.33">R166</text>
<circle cx="897.77" cy="1552.12" r="10"/>
<text x="897.77" y="1557.12">R167</text>
<circle cx="40.03" cy="1500.83" r="10"/>
<text x="40.03" y="1505.83">R168</text>
<circle cx="433.65" cy="479.78" r="10"/>
<text x="433.65" y="484.78">R169</text>
<circle cx="1519.92" cy="327.55" r="10"/>
<text x="1519.92" y="332.55">R170</text>
<circle cx="993.60" cy="482.45" r="10"/>
<text x="993.60" y="487.45">R171</text>
<circle cx="47.57" cy="834.84" r="10"/>
<text x="47.57" y="839.84">R172</text>
<circle cx="699.69" cy="409.35" r="10"/>
<text x="699.69" y="414.35">R173</text>
<circle cx="1321.92" cy="771.61" r="10"/>
<text x="1321.92" y="776.61">R174</text>
<circle cx="1274.40" cy="1411.91" r="10"/>
<text x="1274.40" y="1416.91">R175</text>
<circle cx="714.50" cy="1151.33" r="10"/>
<text x="714.50" y="1156.33">R176</text>
<circle cx="982.84" cy="638.21" r="10"/>
<text x="982.84" y="643.21">R177</text>
<circle cx="1329.26" cy="627.82" r="10"/>
<text x="1329.26" y="632.82">R178</text>
<circle cx="1372.95" cy="1359.48" r="10"/>
<text x="1372.95" y="1364.48">R179</text>
<circle cx="590.82" cy="1178.86" r="10"/>
<text x="590.82" y="1183.86">R180</text>
<circle cx="8.28" cy="404.64" r="10"/>
<text x="8.28" y="409.64">R181</text>
<circle cx="1560.20" cy="1497.45" r="10"/>
<text x="1560.20" y="1502.45">R182</text>
<circle cx="26.30" cy="582.95" r="10"/>
<text x="26.30" y="587.95">R183</text>
<circle cx="23.44" cy="1253.61" r="10"/>
<text x="23.44" y="1258.61">R184</text>
<circle cx="1185.97" cy="1252.48" r="10"/>
<text x="1185.97" y="1257.48">R185</text>
<circle cx="1585.03" cy="1094.49" r="10"/>
<text x="1585.03" y="1099.49">R186</text>
<circle cx="75.82" cy="1083.31" r="10"/>
<text x="75.82" y="1088.31">R187</text>
<circle cx="297.75" cy="1041.99" r="10"/>
<text x="297.75" y="1046.99">R188</text>
<circle cx="560.79" cy="1037.95" r="10"/>
<text x="560.79" y="1042.95">R189</text>
<circle cx="157.90" cy="131.22" r="10"/>
<text x="157.90" y="136.22">R190</text>
<circle cx="654.31" cy="1502.91" r="10"/>
<text x="654.31" y="1507.91">R191</text>
<circle cx="707.99" cy="1566.77" r="10"/>
<text x="707.99" y="1571.77">R192</text>
<circle cx="833.49" cy="1567.46" r="10"/>
<text x="833.49" y="1572.46">R193</text>
<circle cx="115.45" cy="1563.16" r="10"/>
<text x="115.45" y="1568.16">R194</text>
<circle cx="351.11" cy="461.76" r="10"/>
<text x="351.11" y="466.76">R195</text>
<circle cx="358.30" cy="195.66" r="10"/>
<text x="358.30" y="200.66">R196</text>
<circle cx="1681.78" cy="690.89" r="10"/>
<text x="1681.78" y="695.89">R197</text>
<circle cx="1662.31" cy="1120.40" r="10"/>
<text x="1662.31" y="1125.40">R198</text>
<circle cx="677.00" cy="314.73" r="10"/>
<text x="677.00" y="319.73">R199</text>
<circle cx="131.46" cy="217.18" r="10"/>
<text x="131.46" y="222.18">R200</text>
<circle cx="149.20" cy="617.09" r="10"/>
<text x="149.20" y="622.09">R201</text>
<circle cx="504.08" cy="225.33" r="10"/>
<text x="504.08" y="230.33">R202</text>
<circle cx="279.33" cy="1089.37" r="10"/>
<text x="279.33" y="1094.37">R203</text>
<circle cx="1455.84" cy="1370.40" r="10"/>
<text x="1455.84" y="1375.40">R204</text>
<circle cx="1495.70" cy="1488.66" r="10"/>
<text x="1495.70" y="1493.66">R205</text>
<circle cx="643.70" cy="95.97" r="10"/>
<text x="643.70" y="100.97">R206</text>
<circle cx="215.43" cy="1160.17" r="10"/>
<text x="215.43" y="1165.17">R207</text>
<circle cx="1720.64" cy="152.43" r="10"/>
<text x="1720.64" y="157.43">R208</text>
<circle cx="1007.51" cy="1552.91" r="10"/>
<text x="1007.51" y="1557.91">R209</text>
<circle cx="1359.27" cy="365.75" r="10"/>
<text x="1359.27" y="370.75">R210</text>
<circle cx="263.21" cy="1730.12" r="10"/>
<text x="263.21" y="1735.12">R211</text>
<circle cx="1020.00" cy="1232.93" r="10"/>
<text x="1020.00" y="1237.93">R212</text>
<circle cx="1396.65" cy="1140.75" r="10"/>
<text x="1396.65" y="1145.75">R213</text>
<circle cx="880.76" cy="1593.96" r="10"/>
<text x="880.76" y="1598.96">R214</text>
<circle cx="552.01" cy="643.52" r="10"/>
<text x="552.01" y="648.52">R215</text>
<circle cx="1596.93" cy="911.31" r="10"/>
<text x="1596.93" y="916.31">R216</text>
<circle cx="1218.91" cy="1483.35" r="10"/>
<text x="1218.91" y="1488.35">R217</text>
<circle cx="830.30" cy="475.38" r="10"/>
<text x="830.30" y="480.38">R218</text>
<circle cx="1579.59" cy="1043.12" r="10"/>
<text x="1579.59" y="1048.12">R219</text>
<circle cx="1080.23" cy="510.49" r="10"/>
<text x="1080.23" y="515.49">R220</text>
<circle cx="1264.52" cy="132.19" r="10"/>
<text x="1264.52" y="137.19">R221</text>
<circle cx="467.44" cy="93.68" r="10"/>
<text x="467.44" y="98.68">R222</text>
<circle cx="608.76" cy="1473.44" r="10"/>
<text x="608.76" y="1478.44">R223</text>
<circle cx="219.19" cy="1345.50" r="10"/>
<text x="219.19" y="1350.50">R224</text>
<circle cx="822.03" cy="1039.98" r="10"/>
<text x="822.03" y="1044.98">R225</text>
<circle cx="17.91" cy="842.43" r="10"/>
<text x="17.91" y="847.43">R226</text>
<circle cx="1716.95" cy="1202.10" r="10"/>
<text x="1716.95" y="1207.10">R227</text>
<circle cx="525.07" cy="1716.86" r="10"/>
<text x="525.07" y="1721.86">R228</text>
<circle cx="743.81" cy="591.18" r="10"/>
<text x="743.81" y="596.18">R229</text>
<circle cx="329.41" cy="1520.00" r="10"/>
<text x="329.41" y="1525.00">R230</text>
<circle cx="1490.66" cy="86.40" r="10"/>
<text x="1490.66" y="91.40">R231</text>
<circle cx="1670.48" cy="327.52" r="10"/>
<text x="1670.48" y="332.52">R232</text>
<circle cx="601.38" cy="216.69" r="10"/>
<text x="601.38" y="221.69">R233</text>
<circle cx="1213.92" cy="368.57" r="10"/>
<text x="1213.92" y="373.57">R234</text>
<circle cx="187.54" cy="732.01" r="10"/>
<text x="187.54" y="737.01">R235</text>
<circle cx="1519.45" cy="258.08" r="10"/>
<text x="1519.45" y="263.08">R236</text>
<circle cx="121.87" cy="45.72" r="10"/>
<text x="121.87" y="50.72">R237</text>
<circle cx="1430.45" cy="9.38" r="10"/>
<text x="1430.45" y="14.38">R238</text>
<circle cx="324.53" cy="475.64" r="10"/>
<text x="324.53" y="480.64">R239</text>
<circle cx="1331.37" cy="1644.91" r="10"/>
<text x="1331.37" y="1649.91">R240</text>
<circle cx="273.42" cy="1203.11" r="10"/>
<text x="273.42" y="1208.11">R241</text>
<circle cx="104.81" cy="1461.84" r="10"/>
<text x="104.81" y="1466.84">R242</text>
<circle cx="1357.53" cy="1248.97" r="10"/>
<text x="1357.53" y="1253.97">R243</text>
<circle cx="1110.59" cy="1522.71" r="10"/>
<text x="1110.59" y="1527.71">R244</text>
<circle cx="1446.84" cy="916.71" r="10"/>
<text x="1446.84" y="921.71">R245</text>
<circle cx="1664.08" cy="1549.93" r="10"/>
<text x="1664.08" y="1554.93">R246</text>
<circle cx="571.08" cy="777.29" r="10"/>
<text x="571.08" y="782.29">R247</text>
<circle cx="1676.88" cy="1727.23" r="10"/>
<text x="1676.88" y="1732.23">R248</text>
<circle cx="367.02" cy="232.44" r="10"/>
<text x="367.02" y="237.44">R249</text>
<circle cx="942.24" cy="1430.68" r="10"/>
<text x="942.24" y="1435.68">R250</text>
<circle cx="1276.32" cy="1566.41" r="10"/>
<text x="1276.32" y="1571.41">R251</text>
<circle cx="784.31" cy="1620.66" r="10"/>
<text x="784.31" y="1625.66">R252</text>
<circle cx="1587.22" cy="1345.45" r="10"/>
<text x="1587.22" y="1350.45">R253</text>
<circle cx="958.49" cy="590.97" r="10"/>
<text x="958.49" y="595.97">R254</text>
<circle cx="181.98" cy="1625.51" r="10"/>
<text x="181.98" y="1630.51">R255</text>
<circle cx="552.50" cy="448.34" r="10"/>
<text x="552.50" y="453.34">R256</text>
<circle cx="594.05" cy="1387.82" r="10"/>
<text x="594.05" y="1392.82">R257</text>
<circle cx="59.97" cy="475.64" r="10"/>
<text x="59.97" y="480.64">R258</text>
<circle cx="1373.18" cy="672.97" r="10"/>
<text x="1373.18" y="677.97">R259</text>
<circle cx="262.14" cy="1295.97" r="10"/>
<text x="262.14" y="1300.97">R260</text>
<circle cx="1144.17" cy="1511.20" r="10"/>
<text x="1144.17" y="1516.20">R261</text>
<circle cx="1523.90" cy="490.48" r="10"/>
<text x="1523.90" y="495.48">R262</text>
<circle cx="674.69" cy="1293.21" r="10"/>
<text x="674.69" y="1298.21">R263</text>
<circle cx="879.04" cy="1342.19" r="10"/>
<text x="879.04" y="1347.19">R264</text>
<circle cx="64.20" cy="228.72" r="10"/>
<text x="64.20" y="233.72">R265</text>
<circle cx="1331.31" cy="1131.16" r="10"/>
<text x="1331.31" y="1136.16">R266</text>
<circle cx="630.41" cy="940.30" r="10"/>
<text x="630.41" y="945.30">R267</text>
<circle cx="1094.39" cy="1116.60" r="10"/>
<text x="1094.39" y="1121.60">R268</text>
<circle cx="1656.91" cy="805.31" r="10"/>
<text x="1656.91" y="810.31">R269</text>
<circle cx="368.90" cy="993.44" r="10"/>
<text x="368.90" y="998.44">R270</text>
<circle cx="762.44" cy="522.41" r="10"/>
<text x="762.44" y="527.41">R271</text>
<circle cx="577.64" cy="266.79" r="10"/>
<text x="577.64" y="271.79">R272</text>
<circle cx="518.78" cy="595.04" r="10"/>
<text x="518.78" y="600.04">R273</text>
<circle cx="1709.76" cy="449.47" r="10"/>
<text x="1709.76" y="454.47">R274</text>
<circle cx="1626.93" cy="544.32" r="10"/>
<text x="1626.93" y="549.32">R275</text>
<circle cx="1140.28" cy="1180.41" r="10"/>
<text x="1140.28" y="1185.41">R276</text>
<circle cx="1658.08" cy="1011.57" r="10"/>
<text x="1658.08" y="1016.57">R277</text>
<circle cx="813.30" cy="277.90" r="10"/>
<text x="813.30" y="282.90">R278</text>
<circle cx="1683.81" cy="870.29" r="10"/>
<text x="1683.81" y="875.29">R279</text>
<circle cx="280.21" cy="234.43" r="10"/>
<text x="280.21" y="239.43">R280</text>
<circle cx="1552.58" cy="732.56" r="10"/>
<text x="1552.58" y="737.56">R281</text>
<circle cx="594.12" cy="1209.58" r="10"/>
<text x="594.12" y="1214.58">R282</text>
<circle cx="229.56" cy="845.93" r="10"/>
<text x="229.56" y="850.93">R283</text>
<circle cx="399.42" cy="1701.09" r="10"/>
<text x="399.42" y="1706.09">R284</text>
<circle cx="1226.72" cy="1075.74" r="10"/>
<text x="1226.72" y="1080.74">R285</text>
<circle cx="806.20" cy="867.60" r="10"/>
<text x="806.20" y="872.60">R286</text>
<circle cx="262.94" cy="1531.01" r="10"/>
<text x="262.94" y="1536.01">R287</text>
<circle cx="986.38" cy="540.89" r="10"/>
<text x="986.38" y="545.89">R288</text>
<circle cx="1004.24" cy="247.51" r="10"/>
<text x="1004.24" y="252.51">R289</text>
<circle cx="1248.04" cy="275.62" r="10"/>
<text x="1248.04" y="280.62">R290</text>
<circle cx="215.41" cy="1693.08" r="10"/>
<text x="215.41" y="1698.08">R291</text>
<circle cx="640.19" cy="216.91" r="10"/>
<text x="640.19" y="221.91">R292</text>
<circle cx="1261.82" cy="1679.35" r="10"/>
<text x="1261.82" y="1684.35">R293</text>
<circle cx="606.36" cy="560.79" r="10"/>
<text x="606.36" y="565.79">R294</text>
<circle cx="1194.06" cy="131.39" r="10"/>
<text x="1194.06" y="136.39">R295</text>
<circle cx="449.78" cy="1267.00" r="10"/>
<text x="449.78" y="1272.00">R296</text>
<circle cx="209.26" cy="176.38" r="10"/>
<text x="209.26" y="181.38">R297</text>
<circle cx="1026.67" cy="614.19" r="10"/>
<text x="1026.67" y="619.19">R298</text>
<circle cx="129.92" cy="451.74" r="10"/>
<text x="129.92" y="456.74">R299</text>
</svg>
