<svg width="1807.87" height="1818.42" viewBox="-31.17 -43.09 1807.87 1818.42" xmlns="http://www.w3.org/2000/svg">
<style>path {fill: none; stroke: grey; stroke-width: 6;} circle {fill: lightblue; stroke: none;} text {fill: black; stroke: none; font-size: 16; font-family: sans-serif; text-anchor:middle;}</style>
<path d="M1720.83,1255.57,1666.09,1301.72"/>
<path d="M1720.83,1255.57,1657.60,1145.18"/>
<path d="M1331.78,1240.54,1358.03,1236.16"/>
<path d="M1331.78,1240.54,1338.63,1277.24"/>
<path d="M1331.78,1240.54,1329.22,1134.24"/>
<path d="M1331.78,1240.54,1255.81,1255.15"/>
<path d="M718.18,1388.45,616.02,1349.57"/>
<path d="M718.18,1388.45,678.06,1462.48"/>
<path d="M718.18,1388.45,726.28,1464.63"/>
<path d="M718.18,1388.45,775.56,1355.22"/>
<path d="M718.18,1388.45,772.84,1454.21"/>
<path d="M851.97,1049.00,840.32,945.24"/>
<path d="M851.97,1049.00,855.88,1124.52"/>
<path d="M851.97,1049.00,785.82,1061.51"/>
<path d="M851.97,1049.00,886.03,956.22"/>
<path d="M851.97,1049.00,940.09,988.06"/>
<path d="M851.97,1049.00,784.20,966.17"/>
<path d="M1415.35,532.02,1458.40,699.01"/>
<path d="M1415.35,532.02,1575.71,594.85"/>
<path d="M1415.35,532.02,1600.82,474.00"/>
<path d="M1415.35,532.02,1367.39,524.48"/>
<path d="M1415.35,532.02,1464.63,385.80"/>
<path d="M546.65,585.25,576.85,622.10"/>
<path d="M546.65,585.25,453.18,526.71"/>
<path d="M546.65,585.25,478.00,499.95"/>
<path d="M546.65,585.25,438.14,550.97"/>
<path d="M546.65,585.25,434.30,703.27"/>
<path d="M546.65,585.25,539.16,491.18"/>
<path d="M1440.04,69.54,1543.54,5.52"/>
<path d="M1440.04,69.54,1544.92,125.17"/>
<path d="M1440.04,69.54,1436.06,129.43"/>
<path d="M389.41,1591.50,331.87,1503.89"/>
<path d="M389.41,1591.50,374.71,1665.62"/>
<path d="M389.41,1591.50,428.13,1541.73"/>
<path d="M389.41,1591.50,299.39,1582.24"/>
<path d="M709.26,1677.24,740.94,1695.22"/>
<path d="M709.26,1677.24,554.03,1594.33"/>
<path d="M709.26,1677.24,767.45,1578.26"/>
<path d="M709.26,1677.24,618.08,1547.66"/>
<path d="M209.87,982.99,283.35,1120.61"/>
<path d="M209.87,982.99,229.83,863.67"/>
<path d="M209.87,982.99,141.06,1073.00"/>
<path d="M209.87,982.99,327.51,945.95"/>
<path d="M209.87,982.99,13.83,933.45"/>
<path d="M359.19,353.88,392.98,406.05"/>
<path d="M359.19,353.88,497.51,332.33"/>
<path d="M359.19,353.88,277.32,382.12"/>
<path d="M359.19,353.88,343.51,288.97"/>
<path d="M1163.08,193.44,1181.90,171.43"/>
<path d="M1163.08,193.44,1166.12,243.34"/>
<path d="M1163.08,193.44,1127.71,180.77"/>
<path d="M1672.78,983.27,1696.57,1021.34"/>
<path d="M1672.78,983.27,1649.69,797.43"/>
<path d="M1672.78,983.27,1493.14,1109.31"/>
<path d="M1672.78,983.27,1730.80,794.38"/>
<path d="M792.17,850.87,912.26,732.77"/>
<path d="M792.17,850.87,911.07,892.23"/>
<path d="M792.17,850.87,802.33,918.95"/>
<path d="M792.17,850.87,753.05,783.97"/>
<path d="M1478.39,1535.20,1477.88,1561.32"/>
<path d="M1478.39,1535.20,1509.61,1556.64"/>
<path d="M1478.39,1535.20,1411.62,1405.70"/>
<path d="M1263.11,1674.84,1237.03,1574.01"/>
<path d="M1263.11,1674.84,1317.97,1657.43"/>
<path d="M1263.11,1674.84,1145.04,1614.63"/>
<path d="M361.38,670.30,382.78,649.64"/>
<path d="M361.38,670.30,381.94,712.63"/>
<path d="M1127.87,348.09,1074.22,394.96"/>
<path d="M1127.87,348.09,1178.09,331.41"/>
<path d="M417.37,198.37,439.45,177.95"/>
<path d="M417.37,198.37,337.83,224.34"/>
<path d="M417.37,198.37,472.15,243.95"/>
<path d="M99.60,1067.85,141.06,1073.00"/>
<path d="M99.60,1067.85,13.83,933.45"/>
<path d="M1731.69,108.84,1543.54,5.52"/>
<path d="M1731.69,108.84,1586.67,227.57"/>
<path d="M1731.69,108.84,1720.28,292.68"/>
<path d="M1731.69,108.84,1544.92,125.17"/>
<path d="M55.98,86.74,105.15,138.12"/>
<path d="M55.98,86.74,165.93,75.14"/>
<path d="M55.98,86.74,54.72,21.81"/>
<path d="M55.98,86.74,53.45,146.02"/>
<path d="M1478.95,1134.98,1493.14,1109.31"/>
<path d="M1478.95,1134.98,1414.05,1120.05"/>
<path d="M1478.95,1134.98,1546.35,1296.61"/>
<path d="M505.74,1194.83,625.04,1130.84"/>
<path d="M505.74,1194.83,503.51,1248.74"/>
<path d="M505.74,1194.83,521.43,1059.07"/>
<path d="M505.74,1194.83,371.42,1212.85"/>
<path d="M616.02,1349.57,621.74,1303.69"/>
<path d="M616.02,1349.57,610.09,1447.46"/>
<path d="M616.02,1349.57,468.76,1369.99"/>
<path d="M1230.68,799.65,1261.92,822.92"/>
<path d="M1230.68,799.65,1199.52,786.99"/>
<path d="M1230.68,799.65,1176.63,865.46"/>
<path d="M878.24,83.57,836.50,88.68"/>
<path d="M878.24,83.57,989.53,112.66"/>
<path d="M878.24,83.57,891.19,1.91"/>
<path d="M693.07,1029.83,570.36,987.13"/>
<path d="M693.07,1029.83,625.04,1130.84"/>
<path d="M693.07,1029.83,785.82,1061.51"/>
<path d="M693.07,1029.83,695.90,975.62"/>
<path d="M1625.85,779.90,1649.69,797.43"/>
<path d="M1625.85,779.90,1526.68,696.26"/>
<path d="M1625.85,779.90,1496.15,735.76"/>
<path d="M1625.85,779.90,1602.68,652.76"/>
<path d="M313.75,538.54,348.52,516.99"/>
<path d="M313.75,538.54,304.94,580.48"/>
<path d="M313.75,538.54,226.18,514.93"/>
<path d="M1024.18,159.41,980.11,196.93"/>
<path d="M1024.18,159.41,1115.54,32.62"/>
<path d="M1024.18,159.41,989.53,112.66"/>
<path d="M1024.18,159.41,1037.65,194.61"/>
<path d="M1321.31,247.52,1396.87,187.92"/>
<path d="M1321.31,247.52,1199.55,250.33"/>
<path d="M1321.31,247.52,1323.65,301.12"/>
<path d="M1651.87,602.04,1575.71,594.85"/>
<path d="M1651.87,602.04,1600.82,474.00"/>
<path d="M1651.87,602.04,1602.68,652.76"/>
<path d="M576.85,622.10,645.27,698.46"/>
<path d="M576.85,622.10,578.19,715.15"/>
<path d="M576.85,622.10,655.84,633.26"/>
<path d="M576.85,622.10,434.30,703.27"/>
<path d="M1374.59,1658.14,1372.29,1629.41"/>
<path d="M1374.59,1658.14,1423.63,1649.36"/>
<path d="M1374.59,1658.14,1317.97,1657.43"/>
<path d="M1631.90,1451.59,1616.04,1388.11"/>
<path d="M1631.90,1451.59,1624.63,1506.24"/>
<path d="M1696.57,1021.34,1657.60,1145.18"/>
<path d="M126.41,1675.64,22.90,1390.10"/>
<path d="M126.41,1675.64,299.39,1582.24"/>
<path d="M331.87,1503.89,308.22,1457.75"/>
<path d="M331.87,1503.89,290.20,1516.36"/>
<path d="M331.87,1503.89,428.13,1541.73"/>
<path d="M331.87,1503.89,403.00,1448.99"/>
<path d="M920.81,1259.41,869.63,1261.92"/>
<path d="M920.81,1259.41,890.44,1301.09"/>
<path d="M920.81,1259.41,965.99,1217.14"/>
<path d="M1543.54,5.52,1544.92,125.17"/>
<path d="M208.77,413.05,190.91,444.67"/>
<path d="M208.77,413.05,277.32,382.12"/>
<path d="M208.77,413.05,201.13,351.67"/>
<path d="M840.32,945.24,886.03,956.22"/>
<path d="M840.32,945.24,784.20,966.17"/>
<path d="M840.32,945.24,802.33,918.95"/>
<path d="M586.09,267.56,645.08,257.91"/>
<path d="M586.09,267.56,517.24,256.61"/>
<path d="M586.09,267.56,568.69,227.55"/>
<path d="M504.51,868.86,570.36,987.13"/>
<path d="M504.51,868.86,390.01,907.21"/>
<path d="M504.51,868.86,603.06,811.90"/>
<path d="M504.51,868.86,461.34,806.04"/>
<path d="M1664.36,1598.22,1624.63,1506.24"/>
<path d="M1664.36,1598.22,1574.65,1548.41"/>
<path d="M1477.88,1561.32,1468.21,1613.00"/>
<path d="M1477.88,1561.32,1509.61,1556.64"/>
<path d="M494.22,1496.06,526.98,1552.26"/>
<path d="M494.22,1496.06,453.28,1559.54"/>
<path d="M494.22,1496.06,428.13,1541.73"/>
<path d="M494.22,1496.06,546.27,1485.25"/>
<path d="M494.22,1496.06,403.00,1448.99"/>
<path d="M494.22,1496.06,468.76,1369.99"/>
<path d="M494.22,1496.06,502.92,1560.50"/>
<path d="M1217.57,657.07,1104.13,674.33"/>
<path d="M1217.57,657.07,1199.52,786.99"/>
<path d="M1217.57,657.07,1314.47,644.82"/>
<path d="M733.92,940.81,603.06,811.90"/>
<path d="M733.92,940.81,784.20,966.17"/>
<path d="M733.92,940.81,695.90,975.62"/>
<path d="M733.92,940.81,802.33,918.95"/>
<path d="M740.94,1695.22,767.45,1578.26"/>
<path d="M763.91,26.95,512.37,64.74"/>
<path d="M763.91,26.95,788.48,51.83"/>
<path d="M1649.69,797.43,1730.80,794.38"/>
<path d="M22.43,169.13,96.46,294.76"/>
<path d="M22.43,169.13,53.45,146.02"/>
<path d="M980.11,196.93,967.20,400.87"/>
<path d="M980.11,196.93,843.33,193.73"/>
<path d="M980.11,196.93,1037.65,194.61"/>
<path d="M1358.03,1236.16,1338.63,1277.24"/>
<path d="M1358.03,1236.16,1521.32,1318.66"/>
<path d="M1358.03,1236.16,1329.22,1134.24"/>
<path d="M1358.03,1236.16,1414.05,1120.05"/>
<path d="M1519.25,332.37,1527.18,375.18"/>
<path d="M1519.25,332.37,1456.01,177.01"/>
<path d="M1519.25,332.37,1591.13,308.85"/>
<path d="M1519.25,332.37,1464.63,385.80"/>
<path d="M374.71,1665.62,456.10,1705.29"/>
<path d="M374.71,1665.62,299.39,1582.24"/>
<path d="M1637.49,1322.72,1616.04,1388.11"/>
<path d="M1637.49,1322.72,1666.09,1301.72"/>
<path d="M1637.49,1322.72,1670.67,1355.74"/>
<path d="M1637.49,1322.72,1546.35,1296.61"/>
<path d="M503.13,414.62,392.98,406.05"/>
<path d="M503.13,414.62,478.00,499.95"/>
<path d="M503.13,414.62,497.51,332.33"/>
<path d="M503.13,414.62,540.04,423.60"/>
<path d="M869.63,1261.92,890.44,1301.09"/>
<path d="M869.63,1261.92,831.46,1228.91"/>
<path d="M869.63,1261.92,775.56,1355.22"/>
<path d="M780.80,355.84,676.81,345.92"/>
<path d="M780.80,355.84,724.55,294.93"/>
<path d="M780.80,355.84,967.20,400.87"/>
<path d="M780.80,355.84,791.14,303.06"/>
<path d="M780.80,355.84,726.46,479.67"/>
<path d="M456.10,1705.29,453.28,1559.54"/>
<path d="M456.10,1705.29,554.03,1594.33"/>
<path d="M456.10,1705.29,502.92,1560.50"/>
<path d="M283.35,1120.61,254.39,1183.85"/>
<path d="M283.35,1120.61,229.98,1170.27"/>
<path d="M283.35,1120.61,346.44,1105.23"/>
<path d="M283.35,1120.61,288.29,1184.52"/>
<path d="M198.55,256.41,263.93,305.52"/>
<path d="M198.55,256.41,202.64,159.26"/>
<path d="M198.55,256.41,201.13,351.67"/>
<path d="M198.55,256.41,147.40,329.26"/>
<path d="M1331.40,552.25,1301.31,529.19"/>
<path d="M1331.40,552.25,1367.39,524.48"/>
<path d="M1331.40,552.25,1345.27,582.49"/>
<path d="M676.81,345.92,724.55,294.93"/>
<path d="M676.81,345.92,645.08,257.91"/>
<path d="M676.81,345.92,653.19,467.18"/>
<path d="M676.81,345.92,540.04,423.60"/>
<path d="M676.81,345.92,726.46,479.67"/>
<path d="M1115.54,32.62,1181.90,171.43"/>
<path d="M1115.54,32.62,1293.98,44.10"/>
<path d="M1115.54,32.62,1127.71,180.77"/>
<path d="M1115.54,32.62,1048.74,9.17"/>
<path d="M330.22,1426.22,308.22,1457.75"/>
<path d="M330.22,1426.22,358.72,1348.31"/>
<path d="M330.22,1426.22,403.00,1448.99"/>
<path d="M330.22,1426.22,266.71,1325.07"/>
<path d="M254.39,1183.85,229.98,1170.27"/>
<path d="M254.39,1183.85,232.05,1206.09"/>
<path d="M254.39,1183.85,288.29,1184.52"/>
<path d="M1336.17,1105.80,1280.14,902.40"/>
<path d="M1336.17,1105.80,1329.22,1134.24"/>
<path d="M1336.17,1105.80,1414.05,1120.05"/>
<path d="M1616.04,1388.11,1521.32,1318.66"/>
<path d="M1616.04,1388.11,1670.67,1355.74"/>
<path d="M1616.04,1388.11,1546.35,1296.61"/>
<path d="M1338.63,1277.24,1521.32,1318.66"/>
<path d="M1338.63,1277.24,1310.62,1285.32"/>
<path d="M1338.63,1277.24,1411.62,1405.70"/>
<path d="M1338.63,1277.24,1375.18,1423.49"/>
<path d="M1526.68,696.26,1458.40,699.01"/>
<path d="M1526.68,696.26,1496.15,735.76"/>
<path d="M1526.68,696.26,1602.68,652.76"/>
<path d="M1666.09,1301.72,1670.67,1355.74"/>
<path d="M308.22,1457.75,290.20,1516.36"/>
<path d="M308.22,1457.75,241.95,1441.09"/>
<path d="M984.29,1097.22,955.07,1127.86"/>
<path d="M984.29,1097.22,1137.09,911.28"/>
<path d="M984.29,1097.22,940.09,988.06"/>
<path d="M344.61,97.01,297.33,45.53"/>
<path d="M344.61,97.01,337.83,224.34"/>
<path d="M344.61,97.01,202.64,159.26"/>
<path d="M344.61,97.01,432.93,142.21"/>
<path d="M297.33,45.53,259.08,4.15"/>
<path d="M297.33,45.53,202.64,159.26"/>
<path d="M1261.92,822.92,1309.77,893.64"/>
<path d="M1261.92,822.92,1280.14,902.40"/>
<path d="M1261.92,822.92,1395.73,729.57"/>
<path d="M291.53,1544.97,290.20,1516.36"/>
<path d="M291.53,1544.97,299.39,1582.24"/>
<path d="M1237.03,1574.01,1150.39,1540.83"/>
<path d="M1237.03,1574.01,1337.72,1451.19"/>
<path d="M1237.03,1574.01,1317.97,1657.43"/>
<path d="M1237.03,1574.01,1145.04,1614.63"/>
<path d="M526.98,1552.26,554.03,1594.33"/>
<path d="M526.98,1552.26,546.27,1485.25"/>
<path d="M526.98,1552.26,502.92,1560.50"/>
<path d="M526.98,1552.26,618.08,1547.66"/>
<path d="M1062.10,575.93,1104.13,674.33"/>
<path d="M1062.10,575.93,1007.93,578.25"/>
<path d="M1062.10,575.93,1056.86,516.62"/>
<path d="M1062.10,575.93,1067.24,677.49"/>
<path d="M232.70,1332.12,241.95,1441.09"/>
<path d="M232.70,1332.12,266.71,1325.07"/>
<path d="M232.70,1332.12,168.53,1313.76"/>
<path d="M232.70,1332.12,210.14,1287.48"/>
<path d="M439.45,177.95,491.29,173.94"/>
<path d="M439.45,177.95,472.15,243.95"/>
<path d="M439.45,177.95,432.93,142.21"/>
<path d="M1333.47,391.18,1301.31,529.19"/>
<path d="M1333.47,391.18,1367.39,524.48"/>
<path d="M1333.47,391.18,1361.10,358.50"/>
<path d="M1333.47,391.18,1249.52,414.14"/>
<path d="M645.27,698.46,578.19,715.15"/>
<path d="M645.27,698.46,603.06,811.90"/>
<path d="M645.27,698.46,655.84,633.26"/>
<path d="M645.27,698.46,797.30,726.43"/>
<path d="M645.27,698.46,753.05,783.97"/>
<path d="M796.58,196.04,724.55,294.93"/>
<path d="M796.58,196.04,836.50,88.68"/>
<path d="M796.58,196.04,843.33,193.73"/>
<path d="M796.58,196.04,791.14,303.06"/>
<path d="M392.98,406.05,348.52,516.99"/>
<path d="M392.98,406.05,478.00,499.95"/>
<path d="M392.98,406.05,497.51,332.33"/>
<path d="M570.36,987.13,521.43,1059.07"/>
<path d="M570.36,987.13,695.90,975.62"/>
<path d="M1104.13,674.33,1067.24,677.49"/>
<path d="M1104.13,674.33,1124.98,793.65"/>
<path d="M1007.93,578.25,851.05,558.87"/>
<path d="M1007.93,578.25,1056.86,516.62"/>
<path d="M1007.93,578.25,909.70,652.25"/>
<path d="M912.26,732.77,1067.24,677.49"/>
<path d="M912.26,732.77,797.30,726.43"/>
<path d="M912.26,732.77,911.07,892.23"/>
<path d="M912.26,732.77,909.70,652.25"/>
<path d="M912.26,732.77,1027.36,802.94"/>
<path d="M1199.52,786.99,1176.63,865.46"/>
<path d="M1199.52,786.99,1124.98,793.65"/>
<path d="M1181.90,171.43,1293.98,44.10"/>
<path d="M1181.90,171.43,1384.31,128.90"/>
<path d="M678.06,1462.48,726.28,1464.63"/>
<path d="M678.06,1462.48,610.09,1447.46"/>
<path d="M678.06,1462.48,618.08,1547.66"/>
<path d="M724.55,294.93,645.08,257.91"/>
<path d="M724.55,294.93,791.14,303.06"/>
<path d="M512.37,64.74,466.36,80.67"/>
<path d="M578.19,715.15,603.06,811.90"/>
<path d="M578.19,715.15,461.34,806.04"/>
<path d="M578.19,715.15,434.30,703.27"/>
<path d="M1464.14,1730.33,1438.61,1716.75"/>
<path d="M1493.14,1109.31,1447.20,822.26"/>
<path d="M1493.14,1109.31,1657.60,1145.18"/>
<path d="M361.86,778.07,229.83,863.67"/>
<path d="M361.86,778.07,461.34,806.04"/>
<path d="M361.86,778.07,352.34,899.31"/>
<path d="M361.86,778.07,381.94,712.63"/>
<path d="M1309.77,893.64,1280.14,902.40"/>
<path d="M1309.77,893.64,1447.20,822.26"/>
<path d="M96.46,294.76,105.15,138.12"/>
<path d="M96.46,294.76,147.40,329.26"/>
<path d="M823.20,1561.21,930.84,1481.33"/>
<path d="M823.20,1561.21,767.45,1578.26"/>
<path d="M823.20,1561.21,772.84,1454.21"/>
<path d="M348.52,516.99,438.14,550.97"/>
<path d="M348.52,516.99,277.32,382.12"/>
<path d="M855.88,1124.52,955.07,1127.86"/>
<path d="M855.88,1124.52,785.82,1061.51"/>
<path d="M855.88,1124.52,818.00,1203.35"/>
<path d="M1280.14,902.40,1176.63,865.46"/>
<path d="M390.01,907.21,370.40,936.71"/>
<path d="M390.01,907.21,461.34,806.04"/>
<path d="M390.01,907.21,352.34,899.31"/>
<path d="M453.18,526.71,478.00,499.95"/>
<path d="M453.18,526.71,438.14,550.97"/>
<path d="M1586.67,227.57,1544.92,125.17"/>
<path d="M1586.67,227.57,1588.27,264.19"/>
<path d="M1586.67,227.57,1456.01,177.01"/>
<path d="M1458.40,699.01,1345.27,582.49"/>
<path d="M1458.40,699.01,1496.15,735.76"/>
<path d="M1458.40,699.01,1395.73,729.57"/>
<path d="M694.47,572.87,749.07,592.31"/>
<path d="M694.47,572.87,655.84,633.26"/>
<path d="M694.47,572.87,653.19,467.18"/>
<path d="M694.47,572.87,726.46,479.67"/>
<path d="M955.07,1127.86,965.99,1217.14"/>
<path d="M625.04,1130.84,621.74,1303.69"/>
<path d="M625.04,1130.84,521.43,1059.07"/>
<path d="M625.04,1130.84,782.69,1244.90"/>
<path d="M1166.12,243.34,1199.55,250.33"/>
<path d="M1166.12,243.34,1178.09,331.41"/>
<path d="M1720.28,292.68,1607.01,287.72"/>
<path d="M1720.28,292.68,1687.36,355.98"/>
<path d="M1301.31,529.19,1249.52,414.14"/>
<path d="M785.82,1061.51,784.20,966.17"/>
<path d="M263.93,305.52,248.39,344.75"/>
<path d="M263.93,305.52,343.51,288.97"/>
<path d="M229.83,863.67,327.51,945.95"/>
<path d="M229.83,863.67,82.32,834.05"/>
<path d="M229.83,863.67,196.03,628.93"/>
<path d="M229.83,863.67,352.34,899.31"/>
<path d="M105.15,138.12,165.93,75.14"/>
<path d="M105.15,138.12,202.64,159.26"/>
<path d="M105.15,138.12,53.45,146.02"/>
<path d="M1575.71,594.85,1600.82,474.00"/>
<path d="M1575.71,594.85,1602.68,652.76"/>
<path d="M1074.22,394.96,967.20,400.87"/>
<path d="M1074.22,394.96,1068.34,433.08"/>
<path d="M890.44,1301.09,775.56,1355.22"/>
<path d="M890.44,1301.09,892.47,1354.57"/>
<path d="M1600.82,474.00,1661.64,430.79"/>
<path d="M1600.82,474.00,1527.18,375.18"/>
<path d="M788.48,51.83,836.50,88.68"/>
<path d="M788.48,51.83,891.19,1.91"/>
<path d="M603.06,811.90,695.90,975.62"/>
<path d="M603.06,811.90,753.05,783.97"/>
<path d="M851.05,558.87,749.07,592.31"/>
<path d="M851.05,558.87,967.20,400.87"/>
<path d="M851.05,558.87,791.89,638.87"/>
<path d="M851.05,558.87,909.70,652.25"/>
<path d="M851.05,558.87,726.46,479.67"/>
<path d="M1607.01,287.72,1588.27,264.19"/>
<path d="M1607.01,287.72,1591.13,308.85"/>
<path d="M1607.01,287.72,1687.36,355.98"/>
<path d="M1521.32,1318.66,1546.35,1296.61"/>
<path d="M1521.32,1318.66,1411.62,1405.70"/>
<path d="M1396.87,187.92,1384.31,128.90"/>
<path d="M1396.87,187.92,1456.01,177.01"/>
<path d="M1396.87,187.92,1436.06,129.43"/>
<path d="M1661.64,430.79,1715.94,404.41"/>
<path d="M1661.64,430.79,1687.36,355.98"/>
<path d="M141.06,1073.00,162.19,1138.24"/>
<path d="M1527.18,375.18,1464.63,385.80"/>
<path d="M1624.63,1506.24,1574.65,1548.41"/>
<path d="M836.50,88.68,843.33,193.73"/>
<path d="M327.51,945.95,370.40,936.71"/>
<path d="M327.51,945.95,346.44,1105.23"/>
<path d="M327.51,945.95,352.34,899.31"/>
<path d="M1056.86,516.62,1110.69,443.91"/>
<path d="M1056.86,516.62,1068.34,433.08"/>
<path d="M478.00,499.95,539.16,491.18"/>
<path d="M259.08,4.15,165.93,75.14"/>
<path d="M370.40,936.71,521.43,1059.07"/>
<path d="M370.40,936.71,352.34,899.31"/>
<path d="M67.58,1367.05,22.90,1390.10"/>
<path d="M67.58,1367.05,168.53,1313.76"/>
<path d="M165.93,75.14,54.72,21.81"/>
<path d="M165.93,75.14,202.64,159.26"/>
<path d="M503.51,1248.74,621.74,1303.69"/>
<path d="M503.51,1248.74,438.16,1276.24"/>
<path d="M503.51,1248.74,452.55,1304.61"/>
<path d="M726.28,1464.63,767.45,1578.26"/>
<path d="M726.28,1464.63,772.84,1454.21"/>
<path d="M621.74,1303.69,782.69,1244.90"/>
<path d="M438.16,1276.24,358.72,1348.31"/>
<path d="M438.16,1276.24,371.42,1212.85"/>
<path d="M438.16,1276.24,452.55,1304.61"/>
<path d="M13.83,933.45,82.32,834.05"/>
<path d="M1199.55,250.33,1178.09,331.41"/>
<path d="M497.51,332.33,517.24,256.61"/>
<path d="M1447.20,822.26,1496.15,735.76"/>
<path d="M1447.20,822.26,1395.73,729.57"/>
<path d="M517.24,256.61,568.69,227.55"/>
<path d="M517.24,256.61,472.15,243.95"/>
<path d="M290.20,1516.36,241.95,1441.09"/>
<path d="M1293.98,44.10,1384.31,128.90"/>
<path d="M1150.39,1540.83,1139.58,1488.44"/>
<path d="M1150.39,1540.83,1145.04,1614.63"/>
<path d="M886.03,956.22,940.09,988.06"/>
<path d="M886.03,956.22,911.07,892.23"/>
<path d="M229.98,1170.27,232.05,1206.09"/>
<path d="M229.98,1170.27,162.19,1138.24"/>
<path d="M1137.09,911.28,940.09,988.06"/>
<path d="M1137.09,911.28,1087.70,807.30"/>
<path d="M1137.09,911.28,1176.63,865.46"/>
<path d="M453.28,1559.54,428.13,1541.73"/>
<path d="M453.28,1559.54,502.92,1560.50"/>
<path d="M346.44,1105.23,521.43,1059.07"/>
<path d="M346.44,1105.23,371.42,1212.85"/>
<path d="M428.13,1541.73,403.00,1448.99"/>
<path d="M1544.92,125.17,1456.01,177.01"/>
<path d="M1544.92,125.17,1436.06,129.43"/>
<path d="M930.84,1481.33,1079.45,1318.03"/>
<path d="M930.84,1481.33,1097.71,1487.35"/>
<path d="M930.84,1481.33,892.47,1354.57"/>
<path d="M930.84,1481.33,772.84,1454.21"/>
<path d="M1574.65,1548.41,1509.61,1556.64"/>
<path d="M749.07,592.31,791.89,638.87"/>
<path d="M831.46,1228.91,818.00,1203.35"/>
<path d="M831.46,1228.91,782.69,1244.90"/>
<path d="M554.03,1594.33,618.08,1547.66"/>
<path d="M1468.21,1613.00,1423.63,1649.36"/>
<path d="M1127.71,180.77,1037.65,194.61"/>
<path d="M967.20,400.87,1068.34,433.08"/>
<path d="M82.32,834.05,67.46,689.11"/>
<path d="M603.39,1474.29,546.27,1485.25"/>
<path d="M603.39,1474.29,610.09,1447.46"/>
<path d="M603.39,1474.29,618.08,1547.66"/>
<path d="M546.27,1485.25,468.76,1369.99"/>
<path d="M1310.62,1285.32,1255.81,1255.15"/>
<path d="M1310.62,1285.32,1375.18,1423.49"/>
<path d="M1310.62,1285.32,1168.52,1463.30"/>
<path d="M304.94,580.48,196.03,628.93"/>
<path d="M304.94,580.48,188.64,571.90"/>
<path d="M304.94,580.48,365.42,623.53"/>
<path d="M1345.27,582.49,1314.47,644.82"/>
<path d="M293.98,1293.01,358.72,1348.31"/>
<path d="M293.98,1293.01,232.05,1206.09"/>
<path d="M293.98,1293.01,371.42,1212.85"/>
<path d="M293.98,1293.01,266.71,1325.07"/>
<path d="M293.98,1293.01,288.29,1184.52"/>
<path d="M1384.31,128.90,1436.06,129.43"/>
<path d="M67.46,689.11,196.03,628.93"/>
<path d="M67.46,689.11,67.15,582.59"/>
<path d="M337.83,224.34,202.64,159.26"/>
<path d="M337.83,224.34,343.51,288.97"/>
<path d="M989.53,112.66,1048.74,9.17"/>
<path d="M568.69,227.55,491.29,173.94"/>
<path d="M1372.29,1629.41,1423.63,1649.36"/>
<path d="M1372.29,1629.41,1337.72,1451.19"/>
<path d="M1372.29,1629.41,1317.97,1657.43"/>
<path d="M438.14,550.97,365.42,623.53"/>
<path d="M1139.58,1488.44,1097.71,1487.35"/>
<path d="M1139.58,1488.44,1168.52,1463.30"/>
<path d="M190.91,444.67,81.82,521.23"/>
<path d="M190.91,444.67,208.99,493.63"/>
<path d="M248.39,344.75,277.32,382.12"/>
<path d="M248.39,344.75,201.13,351.67"/>
<path d="M653.19,467.18,540.04,423.60"/>
<path d="M653.19,467.18,539.16,491.18"/>
<path d="M653.19,467.18,726.46,479.67"/>
<path d="M775.56,1355.22,892.47,1354.57"/>
<path d="M775.56,1355.22,772.84,1454.21"/>
<path d="M775.56,1355.22,782.69,1244.90"/>
<path d="M196.03,628.93,188.64,571.90"/>
<path d="M358.72,1348.31,403.00,1448.99"/>
<path d="M358.72,1348.31,371.42,1212.85"/>
<path d="M358.72,1348.31,452.55,1304.61"/>
<path d="M358.72,1348.31,468.76,1369.99"/>
<path d="M358.72,1348.31,266.71,1325.07"/>
<path d="M382.78,649.64,365.42,623.53"/>
<path d="M382.78,649.64,434.30,703.27"/>
<path d="M1423.63,1649.36,1438.61,1716.75"/>
<path d="M1361.10,358.50,1323.65,301.12"/>
<path d="M1361.10,358.50,1464.63,385.80"/>
<path d="M767.45,1578.26,772.84,1454.21"/>
<path d="M767.45,1578.26,618.08,1547.66"/>
<path d="M1087.70,807.30,1067.24,677.49"/>
<path d="M1087.70,807.30,1027.36,802.94"/>
<path d="M1087.70,807.30,1124.98,793.65"/>
<path d="M403.00,1448.99,468.76,1369.99"/>
<path d="M1067.24,677.49,909.70,652.25"/>
<path d="M1067.24,677.49,1027.36,802.94"/>
<path d="M491.29,173.94,472.15,243.95"/>
<path d="M466.36,80.67,432.93,142.21"/>
<path d="M1079.45,1318.03,1097.71,1487.35"/>
<path d="M1079.45,1318.03,1142.00,1314.37"/>
<path d="M1079.45,1318.03,892.47,1354.57"/>
<path d="M1079.45,1318.03,1030.95,1249.01"/>
<path d="M1323.65,301.12,1178.09,331.41"/>
<path d="M232.05,1206.09,210.14,1287.48"/>
<path d="M472.15,243.95,343.51,288.97"/>
<path d="M371.42,1212.85,288.29,1184.52"/>
<path d="M818.00,1203.35,782.69,1244.90"/>
<path d="M452.55,1304.61,468.76,1369.99"/>
<path d="M791.89,638.87,797.30,726.43"/>
<path d="M791.89,638.87,909.70,652.25"/>
<path d="M891.19,1.91,1048.74,9.17"/>
<path d="M1337.72,1451.19,1375.18,1423.49"/>
<path d="M1337.72,1451.19,1168.52,1463.30"/>
<path d="M201.13,351.67,147.40,329.26"/>
<path d="M188.64,571.90,81.82,521.23"/>
<path d="M188.64,571.90,67.15,582.59"/>
<path d="M188.64,571.90,226.18,514.93"/>
<path d="M784.20,966.17,802.33,918.95"/>
<path d="M1456.01,177.01,1436.06,129.43"/>
<path d="M81.82,521.23,67.15,582.59"/>
<path d="M81.82,521.23,208.99,493.63"/>
<path d="M461.34,806.04,434.30,703.27"/>
<path d="M540.04,423.60,539.16,491.18"/>
<path d="M797.30,726.43,909.70,652.25"/>
<path d="M797.30,726.43,753.05,783.97"/>
<path d="M1110.69,443.91,1068.34,433.08"/>
<path d="M1110.69,443.91,1249.52,414.14"/>
<path d="M1142.00,1314.37,1255.81,1255.15"/>
<path d="M1142.00,1314.37,1168.52,1463.30"/>
<path d="M1546.35,1296.61,1657.60,1145.18"/>
<path d="M1178.09,331.41,1249.52,414.14"/>
<path d="M911.07,892.23,1027.36,802.94"/>
<path d="M1176.63,865.46,1124.98,793.65"/>
<path d="M1591.13,308.85,1687.36,355.98"/>
<path d="M168.53,1313.76,210.14,1287.48"/>
<path d="M1395.73,729.57,1314.47,644.82"/>
<path d="M226.18,514.93,208.99,493.63"/>
<path d="M1411.62,1405.70,1375.18,1423.49"/>
<path d="M434.30,703.27,381.94,712.63"/>
<path d="M1715.94,404.41,1687.36,355.98"/>
<path d="M1030.95,1249.01,965.99,1217.14"/>
<circle cx="1720.83" cy="1255.57" r="10"/>
<text x="1720.83" y="1260.57">R0</text>
<circle cx="1331.78" cy="1240.54" r="10"/>
<text x="1331.78" y="1245.54">R1</text>
<circle cx="718.18" cy="1388.45" r="10"/>
<text x="718.18" y="1393.45">R2</text>
<circle cx="851.97" cy="1049.00" r="10"/>
<text x="851.97" y="1054.00">R3</text>
<circle cx="1415.35" cy="532.02" r="10"/>
<text x="1415.35" y="537.02">R4</text>
<circle cx="546.65" cy="585.25" r="10"/>
<text x="546.65" y="590.25">R5</text>
<circle cx="1440.04" cy="69.54" r="10"/>
<text x="1440.04" y="74.54">R6</text>
<circle cx="389.41" cy="1591.50" r="10"/>
<text x="389.41" y="1596.50">R7</text>
<circle cx="709.26" cy="1677.24" r="10"/>
<text x="709.26" y="1682.24">R8</text>
<circle cx="209.87" cy="982.99" r="10"/>
<text x="209.87" y="987.99">R9</text>
<circle cx="359.19" cy="353.88" r="10"/>
<text x="359.19" y="358.88">R10</text>
<circle cx="1163.08" cy="193.44" r="10"/>
<text x="1163.08" y="198.44">R11</text>
<circle cx="1672.78" cy="983.27" r="10"/>
<text x="1672.78" y="988.27">R12</text>
<circle cx="792.17" cy="850.87" r="10"/>
<text x="792.17" y="855.87">R13</text>
<circle cx="1478.39" cy="1535.20" r="10"/>
<text x="1478.39" y="1540.20">R14</text>
<circle cx="1263.11" cy="1674.84" r="10"/>
<text x="1263.11" y="1679.84">R15</text>
<circle cx="361.38" cy="670.30" r="10"/>
<text x="361.38" y="675.30">R16</text>
<circle cx="1127.87" cy="348.09" r="10"/>
<text x="1127.87" y="353.09">R17</text>
<circle cx="417.37" cy="198.37" r="10"/>
<text x="417.37" y="203.37">R18</text>
<circle cx="99.60" cy="1067.85" r="10"/>
<text x="99.60" y="1072.85">R19</text>
<circle cx="1731.69" cy="108.84" r="10"/>
<text x="1731.69" y="113.84">R20</text>
<circle cx="55.98" cy="86.74" r="10"/>
<text x="55.98" y="91.74">R21</text>
<circle cx="1478.95" cy="1134.98" r="10"/>
<text x="1478.95" y="1139.98">R22</text>
<circle cx="505.74" cy="1194.83" r="10"/>
<text x="505.74" y="1199.83">R23</text>
<circle cx="616.02" cy="1349.57" r="10"/>
<text x="616.02" y="1354.57">R24</text>
<circle cx="1230.68" cy="799.65" r="10"/>
<text x="1230.68" y="804.65">R25</text>
<circle cx="878.24" cy="83.57" r="10"/>
<text x="878.24" y="88.57">R26</text>
<circle cx="693.07" cy="1029.83" r="10"/>
<text x="693.07" y="1034.83">R27</text>
<circle cx="1625.85" cy="779.90" r="10"/>
<text x="1625.85" y="784.90">R28</text>
<circle cx="313.75" cy="538.54" r="10"/>
<text x="313.75" y="543.54">R29</text>
<circle cx="1024.18" cy="159.41" r="10"/>
<text x="1024.18" y="164.41">R30</text>
<circle cx="1321.31" cy="247.52" r="10"/>
<text x="1321.31" y="252.52">R31</text>
<circle cx="1651.87" cy="602.04" r="10"/>
<text x="1651.87" y="607.04">R32</text>
<circle cx="576.85" cy="622.10" r="10"/>
<text x="576.85" y="627.10">R33</text>
<circle cx="1374.59" cy="1658.14" r="10"/>
<text x="1374.59" y="1663.14">R34</text>
<circle cx="1631.90" cy="1451.59" r="10"/>
<text x="1631.90" y="1456.59">R35</text>
<circle cx="1696.57" cy="1021.34" r="10"/>
<text x="1696.57" y="1026.34">R36</text>
<circle cx="126.41" cy="1675.64" r="10"/>
<text x="126.41" y="1680.64">R37</text>
<circle cx="331.87" cy="1503.89" r="10"/>
<text x="331.87" y="1508.89">R38</text>
<circle cx="920.81" cy="1259.41" r="10"/>
<text x="920.81" y="1264.41">R39</text>
<circle cx="1543.54" cy="5.52" r="10"/>
<text x="1543.54" y="10.52">R40</text>
<circle cx="208.77" cy="413.05" r="10"/>
<text x="208.77" y="418.05">R41</text>
<circle cx="840.32" cy="945.24" r="10"/>
<text x="840.32" y="950.24">R42</text>
<circle cx="586.09" cy="267.56" r="10"/>
<text x="586.09" y="272.56">R43</text>
<circle cx="504.51" cy="868.86" r="10"/>
<text x="504.51" y="873.86">R44</text>
<circle cx="1664.36" cy="1598.22" r="10"/>
<text x="1664.36" y="1603.22">R45</text>
<circle cx="1477.88" cy="1561.32" r="10"/>
<text x="1477.88" y="1566.32">R46</text>
<circle cx="494.22" cy="1496.06" r="10"/>
<text x="494.22" y="1501.06">R47</text>
<circle cx="1217.57" cy="657.07" r="10"/>
<text x="1217.57" y="662.07">R48</text>
<circle cx="733.92" cy="940.81" r="10"/>
<text x="733.92" y="945.81">R49</text>
<circle cx="740.94" cy="1695.22" r="10"/>
<text x="740.94" y="1700.22">R50</text>
<circle cx="763.91" cy="26.95" r="10"/>
<text x="763.91" y="31.95">R51</text>
<circle cx="1649.69" cy="797.43" r="10"/>
<text x="1649.69" y="802.43">R52</text>
<circle cx="22.43" cy="169.13" r="10"/>
<text x="22.43" y="174.13">R53</text>
<circle cx="980.11" cy="196.93" r="10"/>
<text x="980.11" y="201.93">R54</text>
<circle cx="1358.03" cy="1236.16" r="10"/>
<text x="1358.03" y="1241.16">R55</text>
<circle cx="1519.25" cy="332.37" r="10"/>
<text x="1519.25" y="337.37">R56</text>
<circle cx="374.71" cy="1665.62" r="10"/>
<text x="374.71" y="1670.62">R57</text>
<circle cx="1637.49" cy="1322.72" r="10"/>
<text x="1637.49" y="1327.72">R58</text>
<circle cx="503.13" cy="414.62" r="10"/>
<text x="503.13" y="419.62">R59</text>
<circle cx="869.63" cy="1261.92" r="10"/>
<text x="869.63" y="1266.92">R60</text>
<circle cx="780.80" cy="355.84" r="10"/>
<text x="780.80" y="360.84">R61</text>
<circle cx="456.10" cy="1705.29" r="10"/>
<text x="456.10" y="1710.29">R62</text>
<circle cx="283.35" cy="1120.61" r="10"/>
<text x="283.35" y="1125.61">R63</text>
<circle cx="198.55" cy="256.41" r="10"/>
<text x="198.55" y="261.41">R64</text>
<circle cx="1331.40" cy="552.25" r="10"/>
<text x="1331.40" y="557.25">R65</text>
<circle cx="676.81" cy="345.92" r="10"/>
<text x="676.81" y="350.92">R66</text>
<circle cx="1115.54" cy="32.62" r="10"/>
<text x="1115.54" y="37.62">R67</text>
<circle cx="330.22" cy="1426.22" r="10"/>
<text x="330.22" y="1431.22">R68</text>
<circle cx="254.39" cy="1183.85" r="10"/>
<text x="254.39" y="1188.85">R69</text>
<circle cx="1336.17" cy="1105.80" r="10"/>
<text x="1336.17" y="1110.80">R70</text>
<circle cx="1616.04" cy="1388.11" r="10"/>
<text x="1616.04" y="1393.11">R71</text>
<circle cx="1338.63" cy="1277.24" r="10"/>
<text x="1338.63" y="1282.24">R72</text>
<circle cx="1526.68" cy="696.26" r="10"/>
<text x="1526.68" y="701.26">R73</text>
<circle cx="1666.09" cy="1301.72" r="10"/>
<text x="1666.09" y="1306.72">R74</text>
<circle cx="308.22" cy="1457.75" r="10"/>
<text x="308.22" y="1462.75">R75</text>
<circle cx="984.29" cy="1097.22" r="10"/>
<text x="984.29" y="1102.22">R76</text>
<circle cx="344.61" cy="97.01" r="10"/>
<text x="344.61" y="102.01">R77</text>
<circle cx="297.33" cy="45.53" r="10"/>
<text x="297.33" y="50.53">R78</text>
<circle cx="1261.92" cy="822.92" r="10"/>
<text x="1261.92" y="827.92">R79</text>
<circle cx="291.53" cy="1544.97" r="10"/>
<text x="291.53" y="1549.97">R80</text>
<circle cx="1237.03" cy="1574.01" r="10"/>
<text x="1237.03" y="1579.01">R81</text>
<circle cx="526.98" cy="1552.26" r="10"/>
<text x="526.98" y="1557.26">R82</text>
<circle cx="1062.10" cy="575.93" r="10"/>
<text x="1062.10" y="580.93">R83</text>
<circle cx="232.70" cy="1332.12" r="10"/>
<text x="232.70" y="1337.12">R84</text>
<circle cx="439.45" cy="177.95" r="10"/>
<text x="439.45" y="182.95">R85</text>
<circle cx="1333.47" cy="391.18" r="10"/>
<text x="1333.47" y="396.18">R86</text>
<circle cx="645.27" cy="698.46" r="10"/>
<text x="645.27" y="703.46">R87</text>
<circle cx="796.58" cy="196.04" r="10"/>
<text x="796.58" y="201.04">R88</text>
<circle cx="392.98" cy="406.05" r="10"/>
<text x="392.98" y="411.05">R89</text>
<circle cx="570.36" cy="987.13" r="10"/>
<text x="570.36" y="992.13">R90</text>
<circle cx="1104.13" cy="674.33" r="10"/>
<text x="1104.13" y="679.33">R91</text>
<circle cx="1007.93" cy="578.25" r="10"/>
<text x="1007.93" y="583.25">R92</text>
<circle cx="912.26" cy="732.77" r="10"/>
<text x="912.26" y="737.77">R93</text>
<circle cx="1199.52" cy="786.99" r="10"/>
<text x="1199.52" y="791.99">R94</text>
<circle cx="1181.90" cy="171.43" r="10"/>
<text x="1181.90" y="176.43">R95</text>
<circle cx="678.06" cy="1462.48" r="10"/>
<text x="678.06" y="1467.48">R96</text>
<circle cx="724.55" cy="294.93" r="10"/>
<text x="724.55" y="299.93">R97</text>
<circle cx="512.37" cy="64.74" r="10"/>
<text x="512.37" y="69.74">R98</text>
<circle cx="578.19" cy="715.15" r="10"/>
<text x="578.19" y="720.15">R99</text>
<circle cx="1464.14" cy="1730.33" r="10"/>
<text x="1464.14" y="1735.33">R100</text>
<circle cx="1493.14" cy="1109.31" r="10"/>
<text x="1493.14" y="1114.31">R101</text>
<circle cx="361.86" cy="778.07" r="10"/>
<text x="361.86" y="783.07">R102</text>
<circle cx="1309.77" cy="893.64" r="10"/>
<text x="1309.77" y="898.64">R103</text>
<circle cx="96.46" cy="294.76" r="10"/>
<text x="96.46" y="299.76">R104</text>
<circle cx="823.20" cy="1561.21" r="10"/>
<text x="823.20" y="1566.21">R105</text>
<circle cx="348.52" cy="516.99" r="10"/>
<text x="348.52" y="521.99">R106</text>
<circle cx="855.88" cy="1124.52" r="10"/>
<text x="855.88" y="1129.52">R107</text>
<circle cx="1280.14" cy="902.40" r="10"/>
<text x="1280.14" y="907.40">R108</text>
<circle cx="390.01" cy="907.21" r="10"/>
<text x="390.01" y="912.21">R109</text>
<circle cx="453.18" cy="526.71" r="10"/>
<text x="453.18" y="531.71">R110</text>
<circle cx="1586.67" cy="227.57" r="10"/>
<text x="1586.67" y="232.57">R111</text>
<circle cx="1458.40" cy="699.01" r="10"/>
<text x="1458.40" y="704.01">R112</text>
<circle cx="694.47" cy="572.87" r="10"/>
<text x="694.47" y="577.87">R113</text>
<circle cx="955.07" cy="1127.86" r="10"/>
<text x="955.07" y="1132.86">R114</text>
<circle cx="625.04" cy="1130.84" r="10"/>
<text x="625.04" y="1135.84">R115</text>
<circle cx="1166.12" cy="243.34" r="10"/>
<text x="1166.12" y="248.34">R116</text>
<circle cx="1720.28" cy="292.68" r="10"/>
<text x="1720.28" y="297.68">R117</text>
<circle cx="1301.31" cy="529.19" r="10"/>
<text x="1301.31" y="534.19">R118</text>
<circle cx="785.82" cy="1061.51" r="10"/>
<text x="785.82" y="1066.51">R119</text>
<circle cx="263.93" cy="305.52" r="10"/>
<text x="263.93" y="310.52">R120</text>
<circle cx="229.83" cy="863.67" r="10"/>
<text x="229.83" y="868.67">R121</text>
<circle cx="105.15" cy="138.12" r="10"/>
<text x="105.15" y="143.12">R122</text>
<circle cx="1575.71" cy="594.85" r="10"/>
<text x="1575.71" y="599.85">R123</text>
<circle cx="1074.22" cy="394.96" r="10"/>
<text x="1074.22" y="399.96">R124</text>
<circle cx="890.44" cy="1301.09" r="10"/>
<text x="890.44" y="1306.09">R125</text>
<circle cx="1600.82" cy="474.00" r="10"/>
<text x="1600.82" y="479.00">R126</text>
<circle cx="788.48" cy="51.83" r="10"/>
<text x="788.48" y="56.83">R127</text>
<circle cx="603.06" cy="811.90" r="10"/>
<text x="603.06" y="816.90">R128</text>
<circle cx="851.05" cy="558.87" r="10"/>
<text x="851.05" y="563.87">R129</text>
<circle cx="1607.01" cy="287.72" r="10"/>
<text x="1607.01" y="292.72">R130</text>
<circle cx="1521.32" cy="1318.66" r="10"/>
<text x="1521.32" y="1323.66">R131</text>
<circle cx="1396.87" cy="187.92" r="10"/>
<text x="1396.87" y="192.92">R132</text>
<circle cx="1661.64" cy="430.79" r="10"/>
<text x="1661.64" y="435.79">R133</text>
<circle cx="1329.22" cy="1134.24" r="10"/>
<text x="1329.22" y="1139.24">R134</text>
<circle cx="141.06" cy="1073.00" r="10"/>
<text x="141.06" y="1078.00">R135</text>
<circle cx="1527.18" cy="375.18" r="10"/>
<text x="1527.18" y="380.18">R136</text>
<circle cx="1624.63" cy="1506.24" r="10"/>
<text x="1624.63" y="1511.24">R137</text>
<circle cx="836.50" cy="88.68" r="10"/>
<text x="836.50" y="93.68">R138</text>
<circle cx="327.51" cy="945.95" r="10"/>
<text x="327.51" y="950.95">R139</text>
<circle cx="1056.86" cy="516.62" r="10"/>
<text x="1056.86" y="521.62">R140</text>
<circle cx="478.00" cy="499.95" r="10"/>
<text x="478.00" y="504.95">R141</text>
<circle cx="259.08" cy="4.15" r="10"/>
<text x="259.08" y="9.15">R142</text>
<circle cx="370.40" cy="936.71" r="10"/>
<text x="370.40" y="941.71">R143</text>
<circle cx="645.08" cy="257.91" r="10"/>
<text x="645.08" y="262.91">R144</text>
<circle cx="67.58" cy="1367.05" r="10"/>
<text x="67.58" y="1372.05">R145</text>
<circle cx="165.93" cy="75.14" r="10"/>
<text x="165.93" y="80.14">R146</text>
<circle cx="503.51" cy="1248.74" r="10"/>
<text x="503.51" y="1253.74">R147</text>
<circle cx="726.28" cy="1464.63" r="10"/>
<text x="726.28" y="1469.63">R148</text>
<circle cx="621.74" cy="1303.69" r="10"/>
<text x="621.74" y="1308.69">R149</text>
<circle cx="438.16" cy="1276.24" r="10"/>
<text x="438.16" y="1281.24">R150</text>
<circle cx="13.83" cy="933.45" r="10"/>
<text x="13.83" y="938.45">R151</text>
<circle cx="1199.55" cy="250.33" r="10"/>
<text x="1199.55" y="255.33">R152</text>
<circle cx="1367.39" cy="524.48" r="10"/>
<text x="1367.39" y="529.48">R153</text>
<circle cx="497.51" cy="332.33" r="10"/>
<text x="497.51" y="337.33">R154</text>
<circle cx="1447.20" cy="822.26" r="10"/>
<text x="1447.20" y="827.26">R155</text>
<circle cx="517.24" cy="256.61" r="10"/>
<text x="517.24" y="261.61">R156</text>
<circle cx="22.90" cy="1390.10" r="10"/>
<text x="22.90" y="1395.10">R157</text>
<circle cx="290.20" cy="1516.36" r="10"/>
<text x="290.20" y="1521.36">R158</text>
<circle cx="1293.98" cy="44.10" r="10"/>
<text x="1293.98" y="49.10">R159</text>
<circle cx="1150.39" cy="1540.83" r="10"/>
<text x="1150.39" y="1545.83">R160</text>
<circle cx="886.03" cy="956.22" r="10"/>
<text x="886.03" y="961.22">R161</text>
<circle cx="229.98" cy="1170.27" r="10"/>
<text x="229.98" y="1175.27">R162</text>
<circle cx="1137.09" cy="911.28" r="10"/>
<text x="1137.09" y="916.28">R163</text>
<circle cx="453.28" cy="1559.54" r="10"/>
<text x="453.28" y="1564.54">R164</text>
<circle cx="346.44" cy="1105.23" r="10"/>
<text x="346.44" y="1110.23">R165</text>
<circle cx="428.13" cy="1541.73" r="10"/>
<text x="428.13" y="1546.73">R166</text>
<circle cx="299.39" cy="1582.24" r="10"/>
<text x="299.39" y="1587.24">R167</text>
<circle cx="1544.92" cy="125.17" r="10"/>
<text x="1544.92" y="130.17">R168</text>
<circle cx="930.84" cy="1481.33" r="10"/>
<text x="930.84" y="1486.33">R169</text>
<circle cx="1574.65" cy="1548.41" r="10"/>
<text x="1574.65" y="1553.41">R170</text>
<circle cx="749.07" cy="592.31" r="10"/>
<text x="749.07" y="597.31">R171</text>
<circle cx="831.46" cy="1228.91" r="10"/>
<text x="831.46" y="1233.91">R172</text>
<circle cx="54.72" cy="21.81" r="10"/>
<text x="54.72" y="26.81">R173</text>
<circle cx="554.03" cy="1594.33" r="10"/>
<text x="554.03" y="1599.33">R174</text>
<circle cx="655.84" cy="633.26" r="10"/>
<text x="655.84" y="638.26">R175</text>
<circle cx="1468.21" cy="1613.00" r="10"/>
<text x="1468.21" y="1618.00">R176</text>
<circle cx="1127.71" cy="180.77" r="10"/>
<text x="1127.71" y="185.77">R177</text>
<circle cx="967.20" cy="400.87" r="10"/>
<text x="967.20" y="405.87">R178</text>
<circle cx="82.32" cy="834.05" r="10"/>
<text x="82.32" y="839.05">R179</text>
<circle cx="940.09" cy="988.06" r="10"/>
<text x="940.09" y="993.06">R180</text>
<circle cx="603.39" cy="1474.29" r="10"/>
<text x="603.39" y="1479.29">R181</text>
<circle cx="546.27" cy="1485.25" r="10"/>
<text x="546.27" y="1490.25">R182</text>
<circle cx="1310.62" cy="1285.32" r="10"/>
<text x="1310.62" y="1290.32">R183</text>
<circle cx="1414.05" cy="1120.05" r="10"/>
<text x="1414.05" y="1125.05">R184</text>
<circle cx="304.94" cy="580.48" r="10"/>
<text x="304.94" y="585.48">R185</text>
<circle cx="1588.27" cy="264.19" r="10"/>
<text x="1588.27" y="269.19">R186</text>
<circle cx="1345.27" cy="582.49" r="10"/>
<text x="1345.27" y="587.49">R187</text>
<circle cx="293.98" cy="1293.01" r="10"/>
<text x="293.98" y="1298.01">R188</text>
<circle cx="1384.31" cy="128.90" r="10"/>
<text x="1384.31" y="133.90">R189</text>
<circle cx="67.46" cy="689.11" r="10"/>
<text x="67.46" y="694.11">R190</text>
<circle cx="337.83" cy="224.34" r="10"/>
<text x="337.83" y="229.34">R191</text>
<circle cx="989.53" cy="112.66" r="10"/>
<text x="989.53" y="117.66">R192</text>
<circle cx="568.69" cy="227.55" r="10"/>
<text x="568.69" y="232.55">R193</text>
<circle cx="1372.29" cy="1629.41" r="10"/>
<text x="1372.29" y="1634.41">R194</text>
<circle cx="521.43" cy="1059.07" r="10"/>
<text x="521.43" y="1064.07">R195</text>
<circle cx="438.14" cy="550.97" r="10"/>
<text x="438.14" y="555.97">R196</text>
<circle cx="1139.58" cy="1488.44" r="10"/>
<text x="1139.58" y="1493.44">R197</text>
<circle cx="190.91" cy="444.67" r="10"/>
<text x="190.91" y="449.67">R198</text>
<circle cx="248.39" cy="344.75" r="10"/>
<text x="248.39" y="349.75">R199</text>
<circle cx="653.19" cy="467.18" r="10"/>
<text x="653.19" y="472.18">R200</text>
<circle cx="775.56" cy="1355.22" r="10"/>
<text x="775.56" y="1360.22">R201</text>
<circle cx="196.03" cy="628.93" r="10"/>
<text x="196.03" y="633.93">R202</text>
<circle cx="358.72" cy="1348.31" r="10"/>
<text x="358.72" y="1353.31">R203</text>
<circle cx="382.78" cy="649.64" r="10"/>
<text x="382.78" y="654.64">R204</text>
<circle cx="1423.63" cy="1649.36" r="10"/>
<text x="1423.63" y="1654.36">R205</text>
<circle cx="1361.10" cy="358.50" r="10"/>
<text x="1361.10" y="363.50">R206</text>
<circle cx="767.45" cy="1578.26" r="10"/>
<text x="767.45" y="1583.26">R207</text>
<circle cx="1087.70" cy="807.30" r="10"/>
<text x="1087.70" y="812.30">R208</text>
<circle cx="403.00" cy="1448.99" r="10"/>
<text x="403.00" y="1453.99">R209</text>
<circle cx="1067.24" cy="677.49" r="10"/>
<text x="1067.24" y="682.49">R210</text>
<circle cx="491.29" cy="173.94" r="10"/>
<text x="491.29" y="178.94">R211</text>
<circle cx="277.32" cy="382.12" r="10"/>
<text x="277.32" y="387.12">R212</text>
<circle cx="241.95" cy="1441.09" r="10"/>
<text x="241.95" y="1446.09">R213</text>
<circle cx="466.36" cy="80.67" r="10"/>
<text x="466.36" y="85.67">R214</text>
<circle cx="1079.45" cy="1318.03" r="10"/>
<text x="1079.45" y="1323.03">R215</text>
<circle cx="1097.71" cy="1487.35" r="10"/>
<text x="1097.71" y="1492.35">R216</text>
<circle cx="1323.65" cy="301.12" r="10"/>
<text x="1323.65" y="306.12">R217</text>
<circle cx="232.05" cy="1206.09" r="10"/>
<text x="232.05" y="1211.09">R218</text>
<circle cx="202.64" cy="159.26" r="10"/>
<text x="202.64" y="164.26">R219</text>
<circle cx="472.15" cy="243.95" r="10"/>
<text x="472.15" y="248.95">R220</text>
<circle cx="610.09" cy="1447.46" r="10"/>
<text x="610.09" y="1452.46">R221</text>
<circle cx="371.42" cy="1212.85" r="10"/>
<text x="371.42" y="1217.85">R222</text>
<circle cx="818.00" cy="1203.35" r="10"/>
<text x="818.00" y="1208.35">R223</text>
<circle cx="452.55" cy="1304.61" r="10"/>
<text x="452.55" y="1309.61">R224</text>
<circle cx="791.89" cy="638.87" r="10"/>
<text x="791.89" y="643.87">R225</text>
<circle cx="432.93" cy="142.21" r="10"/>
<text x="432.93" y="147.21">R226</text>
<circle cx="162.19" cy="1138.24" r="10"/>
<text x="162.19" y="1143.24">R227</text>
<circle cx="891.19" cy="1.91" r="10"/>
<text x="891.19" y="6.91">R228</text>
<circle cx="1337.72" cy="1451.19" r="10"/>
<text x="1337.72" y="1456.19">R229</text>
<circle cx="201.13" cy="351.67" r="10"/>
<text x="201.13" y="356.67">R230</text>
<circle cx="188.64" cy="571.90" r="10"/>
<text x="188.64" y="576.90">R231</text>
<circle cx="343.51" cy="288.97" r="10"/>
<text x="343.51" y="293.97">R232</text>
<circle cx="784.20" cy="966.17" r="10"/>
<text x="784.20" y="971.17">R233</text>
<circle cx="843.33" cy="193.73" r="10"/>
<text x="843.33" y="198.73">R234</text>
<circle cx="1456.01" cy="177.01" r="10"/>
<text x="1456.01" y="182.01">R235</text>
<circle cx="1436.06" cy="129.43" r="10"/>
<text x="1436.06" y="134.43">R236</text>
<circle cx="81.82" cy="521.23" r="10"/>
<text x="81.82" y="526.23">R237</text>
<circle cx="461.34" cy="806.04" r="10"/>
<text x="461.34" y="811.04">R238</text>
<circle cx="1670.67" cy="1355.74" r="10"/>
<text x="1670.67" y="1360.74">R239</text>
<circle cx="540.04" cy="423.60" r="10"/>
<text x="540.04" y="428.60">R240</text>
<circle cx="1496.15" cy="735.76" r="10"/>
<text x="1496.15" y="740.76">R241</text>
<circle cx="797.30" cy="726.43" r="10"/>
<text x="797.30" y="731.43">R242</text>
<circle cx="1110.69" cy="443.91" r="10"/>
<text x="1110.69" y="448.91">R243</text>
<circle cx="1142.00" cy="1314.37" r="10"/>
<text x="1142.00" y="1319.37">R244</text>
<circle cx="1048.74" cy="9.17" r="10"/>
<text x="1048.74" y="14.17">R245</text>
<circle cx="1546.35" cy="1296.61" r="10"/>
<text x="1546.35" y="1301.61">R246</text>
<circle cx="67.15" cy="582.59" r="10"/>
<text x="67.15" y="587.59">R247</text>
<circle cx="1317.97" cy="1657.43" r="10"/>
<text x="1317.97" y="1662.43">R248</text>
<circle cx="468.76" cy="1369.99" r="10"/>
<text x="468.76" y="1374.99">R249</text>
<circle cx="502.92" cy="1560.50" r="10"/>
<text x="502.92" y="1565.50">R250</text>
<circle cx="266.71" cy="1325.07" r="10"/>
<text x="266.71" y="1330.07">R251</text>
<circle cx="1178.09" cy="331.41" r="10"/>
<text x="1178.09" y="336.41">R252</text>
<circle cx="1255.81" cy="1255.15" r="10"/>
<text x="1255.81" y="1260.15">R253</text>
<circle cx="911.07" cy="892.23" r="10"/>
<text x="911.07" y="897.23">R254</text>
<circle cx="909.70" cy="652.25" r="10"/>
<text x="909.70" y="657.25">R255</text>
<circle cx="365.42" cy="623.53" r="10"/>
<text x="365.42" y="628.53">R256</text>
<circle cx="892.47" cy="1354.57" r="10"/>
<text x="892.47" y="1359.57">R257</text>
<circle cx="695.90" cy="975.62" r="10"/>
<text x="695.90" y="980.62">R258</text>
<circle cx="1068.34" cy="433.08" r="10"/>
<text x="1068.34" y="438.08">R259</text>
<circle cx="1509.61" cy="1556.64" r="10"/>
<text x="1509.61" y="1561.64">R260</text>
<circle cx="53.45" cy="146.02" r="10"/>
<text x="53.45" y="151.02">R261</text>
<circle cx="1176.63" cy="865.46" r="10"/>
<text x="1176.63" y="870.46">R262</text>
<circle cx="1591.13" cy="308.85" r="10"/>
<text x="1591.13" y="313.85">R263</text>
<circle cx="288.29" cy="1184.52" r="10"/>
<text x="288.29" y="1189.52">R264</text>
<circle cx="352.34" cy="899.31" r="10"/>
<text x="352.34" y="904.31">R265</text>
<circle cx="168.53" cy="1313.76" r="10"/>
<text x="168.53" y="1318.76">R266</text>
<circle cx="791.14" cy="303.06" r="10"/>
<text x="791.14" y="308.06">R267</text>
<circle cx="1395.73" cy="729.57" r="10"/>
<text x="1395.73" y="734.57">R268</text>
<circle cx="772.84" cy="1454.21" r="10"/>
<text x="772.84" y="1459.21">R269</text>
<circle cx="802.33" cy="918.95" r="10"/>
<text x="802.33" y="923.95">R270</text>
<circle cx="226.18" cy="514.93" r="10"/>
<text x="226.18" y="519.93">R271</text>
<circle cx="1411.62" cy="1405.70" r="10"/>
<text x="1411.62" y="1410.70">R272</text>
<circle cx="434.30" cy="703.27" r="10"/>
<text x="434.30" y="708.27">R273</text>
<circle cx="1715.94" cy="404.41" r="10"/>
<text x="1715.94" y="409.41">R274</text>
<circle cx="1027.36" cy="802.94" r="10"/>
<text x="1027.36" y="807.94">R275</text>
<circle cx="1249.52" cy="414.14" r="10"/>
<text x="1249.52" y="419.14">R276</text>
<circle cx="1602.68" cy="652.76" r="10"/>
<text x="1602.68" y="657.76">R277</text>
<circle cx="1438.61" cy="1716.75" r="10"/>
<text x="1438.61" y="1721.75">R278</text>
<circle cx="618.08" cy="1547.66" r="10"/>
<text x="618.08" y="1552.66">R279</text>
<circle cx="1464.63" cy="385.80" r="10"/>
<text x="1464.63" y="390.80">R280</text>
<circle cx="1687.36" cy="355.98" r="10"/>
<text x="1687.36" y="360.98">R281</text>
<circle cx="782.69" cy="1244.90" r="10"/>
<text x="782.69" y="1249.90">R282</text>
<circle cx="208.99" cy="493.63" r="10"/>
<text x="208.99" y="498.63">R283</text>
<circle cx="1145.04" cy="1614.63" r="10"/>
<text x="1145.04" y="1619.63">R284</text>
<circle cx="1124.98" cy="793.65" r="10"/>
<text x="1124.98" y="798.65">R285</text>
<circle cx="1730.80" cy="794.38" r="10"/>
<text x="1730.80" y="799.38">R286</text>
<circle cx="753.05" cy="783.97" r="10"/>
<text x="753.05" y="788.97">R287</text>
<circle cx="1375.18" cy="1423.49" r="10"/>
<text x="1375.18" y="1428.49">R288</text>
<circle cx="381.94" cy="712.63" r="10"/>
<text x="381.94" y="717.63">R289</text>
<circle cx="539.16" cy="491.18" r="10"/>
<text x="539.16" y="496.18">R290</text>
<circle cx="1168.52" cy="1463.30" r="10"/>
<text x="1168.52" y="1468.30">R291</text>
<circle cx="210.14" cy="1287.48" r="10"/>
<text x="210.14" y="1292.48">R292</text>
<circle cx="1030.95" cy="1249.01" r="10"/>
<text x="1030.95" y="1254.01">R293</text>
<circle cx="1037.65" cy="194.61" r="10"/>
<text x="1037.65" y="199.61">R294</text>
<circle cx="965.99" cy="1217.14" r="10"/>
<text x="965.99" y="1222.14">R295</text>
<circle cx="726.46" cy="479.67" r="10"/>
<text x="726.46" y="484.67">R296</text>
<circle cx="1657.60" cy="1145.18" r="10"/>
<text x="1657.60" y="1150.18">R297</text>
<circle cx="147.40" cy="329.26" r="10"/>
<text x="147.40" y="334.26">R298</text>
<circle cx="1314.47" cy="644.82" r="10"/>
<text x="1314.47" y="649.82">R299</text>
</svg>
