<svg id="topo" width="1811.93" height="1817.85" viewBox="-39.75 -42.03 1811.93 1817.85" xmlns="http://www.w3.org/2000/svg">
<style>#topo path {fill: none; stroke: grey; stroke-width: 6;} #topo circle {fill: lightblue; stroke: none;} #topo text {fill: black; stroke: none; font-size: 16; font-family: sans-serif; text-anchor:middle;}</style>
<path d="M179.08,154.66,68.42,89.54"/>
<path d="M179.08,154.66,236.21,207.69"/>
<path d="M179.08,154.66,116.92,267.34"/>
<path d="M179.08,154.66,202.68,22.26"/>
<path d="M58.20,1090.99,275.66,1051.62"/>
<path d="M58.20,1090.99,35.09,1235.58"/>
<path d="M58.20,1090.99,34.49,1064.64"/>
<path d="M58.20,1090.99,124.47,1183.77"/>
<path d="M58.20,1090.99,235.02,939.29"/>
<path d="M275.66,1051.62,374.27,1023.18"/>
<path d="M275.66,1051.62,282.65,983.46"/>
<path d="M275.66,1051.62,385.28,1067.82"/>
<path d="M275.66,1051.62,285.82,1152.34"/>
<path d="M874.99,574.04,921.85,525.94"/>
<path d="M874.99,574.04,834.72,601.10"/>
<path d="M874.99,574.04,948.65,615.47"/>
<path d="M874.99,574.04,959.67,589.81"/>
<path d="M874.99,574.04,843.91,528.60"/>
<path d="M934.12,778.64,859.45,706.87"/>
<path d="M934.12,778.64,977.79,862.27"/>
<path d="M934.12,778.64,992.86,726.81"/>
<path d="M934.12,778.64,884.97,883.15"/>
<path d="M934.12,778.64,854.31,865.52"/>
<path d="M934.12,778.64,833.49,765.00"/>
<path d="M1055.15,1328.30,953.21,1270.05"/>
<path d="M1055.15,1328.30,1114.38,1198.23"/>
<path d="M1055.15,1328.30,1072.79,1406.94"/>
<path d="M1055.15,1328.30,1289.23,1288.28"/>
<path d="M1055.15,1328.30,1026.63,1401.91"/>
<path d="M660.74,1714.32,616.98,1682.31"/>
<path d="M660.74,1714.32,713.24,1680.81"/>
<path d="M330.68,572.35,327.33,517.96"/>
<path d="M330.68,572.35,293.62,627.00"/>
<path d="M330.68,572.35,245.88,532.15"/>
<path d="M330.68,572.35,437.60,610.21"/>
<path d="M347.02,372.19,339.90,320.21"/>
<path d="M347.02,372.19,390.63,323.53"/>
<path d="M347.02,372.19,337.79,467.84"/>
<path d="M347.02,372.19,224.66,440.57"/>
<path d="M522.17,266.57,564.10,336.72"/>
<path d="M522.17,266.57,493.14,233.22"/>
<path d="M522.17,266.57,481.42,262.64"/>
<path d="M268.43,800.43,292.17,815.86"/>
<path d="M268.43,800.43,184.56,808.97"/>
<path d="M268.43,800.43,292.87,679.52"/>
<path d="M813.78,1187.17,922.91,1196.99"/>
<path d="M813.78,1187.17,858.13,1012.85"/>
<path d="M813.78,1187.17,726.20,1171.05"/>
<path d="M813.78,1187.17,915.55,1262.91"/>
<path d="M813.78,1187.17,903.78,1033.16"/>
<path d="M374.27,1023.18,282.65,983.46"/>
<path d="M374.27,1023.18,385.28,1067.82"/>
<path d="M374.27,1023.18,420.76,973.75"/>
<path d="M345.74,833.48,292.17,815.86"/>
<path d="M345.74,833.48,387.54,752.12"/>
<path d="M345.74,833.48,355.61,889.39"/>
<path d="M345.74,833.48,280.99,868.34"/>
<path d="M723.93,311.94,688.14,375.84"/>
<path d="M723.93,311.94,648.73,319.91"/>
<path d="M723.93,311.94,718.00,142.79"/>
<path d="M723.93,311.94,764.58,316.92"/>
<path d="M1141.93,1055.99,1127.79,1110.07"/>
<path d="M1141.93,1055.99,1055.89,1072.50"/>
<path d="M1141.93,1055.99,1178.07,1049.17"/>
<path d="M859.45,706.87,834.72,601.10"/>
<path d="M859.45,706.87,948.65,615.47"/>
<path d="M859.45,706.87,991.87,698.46"/>
<path d="M859.45,706.87,833.49,765.00"/>
<path d="M859.45,706.87,967.76,650.69"/>
<path d="M1054.18,701.75,1167.76,691.12"/>
<path d="M1054.18,701.75,992.86,726.81"/>
<path d="M1054.18,701.75,991.87,698.46"/>
<path d="M1054.18,701.75,1058.36,624.13"/>
<path d="M1054.18,701.75,1071.81,792.06"/>
<path d="M661.86,503.73,688.14,375.84"/>
<path d="M661.86,503.73,620.31,518.98"/>
<path d="M661.86,503.73,716.99,614.54"/>
<path d="M661.86,503.73,761.31,463.39"/>
<path d="M1248.32,599.39,1167.76,691.12"/>
<path d="M1248.32,599.39,1165.36,529.73"/>
<path d="M1248.32,599.39,1139.91,572.11"/>
<path d="M1248.32,599.39,1291.37,575.96"/>
<path d="M1248.32,599.39,1331.85,695.86"/>
<path d="M1164.12,499.72,1042.19,413.27"/>
<path d="M1164.12,499.72,1186.17,469.74"/>
<path d="M1164.12,499.72,1165.36,529.73"/>
<path d="M1164.12,499.72,1020.80,471.97"/>
<path d="M184.76,898.82,78.67,844.23"/>
<path d="M184.76,898.82,184.56,808.97"/>
<path d="M184.76,898.82,218.12,915.88"/>
<path d="M1631.94,622.13,1457.69,646.82"/>
<path d="M1631.94,622.13,1679.04,779.75"/>
<path d="M1631.94,622.13,1697.80,491.37"/>
<path d="M1631.94,622.13,1649.10,473.95"/>
<path d="M1631.94,622.13,1527.96,739.68"/>
<path d="M495.13,1576.98,341.57,1702.57"/>
<path d="M495.13,1576.98,543.59,1548.12"/>
<path d="M495.13,1576.98,478.41,1510.85"/>
<path d="M339.90,320.21,390.63,323.53"/>
<path d="M339.90,320.21,236.21,207.69"/>
<path d="M339.90,320.21,173.18,380.33"/>
<path d="M339.90,320.21,400.06,97.20"/>
<path d="M390.63,323.53,481.42,262.64"/>
<path d="M1127.79,1110.07,1055.89,1072.50"/>
<path d="M1127.79,1110.07,1105.48,1148.24"/>
<path d="M29.67,926.54,78.67,844.23"/>
<path d="M29.67,926.54,34.49,1064.64"/>
<path d="M29.67,926.54,43.59,825.09"/>
<path d="M973.71,1420.40,953.21,1270.05"/>
<path d="M973.71,1420.40,952.84,1479.76"/>
<path d="M973.71,1420.40,1026.63,1401.91"/>
<path d="M977.79,862.27,907.45,897.33"/>
<path d="M977.79,862.27,1013.17,969.29"/>
<path d="M977.79,862.27,1071.81,792.06"/>
<path d="M1143.41,1590.54,1117.25,1481.90"/>
<path d="M1143.41,1590.54,1297.20,1573.13"/>
<path d="M1143.41,1590.54,1293.94,1655.26"/>
<path d="M1143.41,1590.54,1091.93,1640.19"/>
<path d="M1055.89,1072.50,1105.48,1148.24"/>
<path d="M1055.89,1072.50,1043.38,1162.71"/>
<path d="M1055.89,1072.50,903.78,1033.16"/>
<path d="M1055.89,1072.50,1013.17,969.29"/>
<path d="M1055.89,1072.50,992.27,1132.27"/>
<path d="M1521.93,1060.35,1467.07,1067.47"/>
<path d="M1521.93,1060.35,1535.11,992.87"/>
<path d="M1521.93,1060.35,1546.58,1185.20"/>
<path d="M1457.69,646.82,1593.50,443.42"/>
<path d="M1457.69,646.82,1481.83,771.14"/>
<path d="M1457.69,646.82,1331.85,695.86"/>
<path d="M1457.69,646.82,1527.96,739.68"/>
<path d="M1457.69,646.82,1373.00,567.00"/>
<path d="M1467.07,1067.47,1178.07,1049.17"/>
<path d="M1467.07,1067.47,1403.76,917.60"/>
<path d="M1467.07,1067.47,1376.85,1249.70"/>
<path d="M283.68,27.33,294.06,2.97"/>
<path d="M283.68,27.33,202.68,22.26"/>
<path d="M283.68,27.33,400.06,97.20"/>
<path d="M1481.75,1568.43,1520.41,1475.67"/>
<path d="M1481.75,1568.43,1625.02,1618.65"/>
<path d="M1481.75,1568.43,1460.24,1621.82"/>
<path d="M994.42,1669.15,970.68,1537.13"/>
<path d="M994.42,1669.15,1019.42,1671.49"/>
<path d="M994.42,1669.15,844.77,1719.88"/>
<path d="M994.42,1669.15,833.30,1591.43"/>
<path d="M1553.35,98.84,1628.40,134.84"/>
<path d="M1553.35,98.84,1547.54,190.11"/>
<path d="M1553.35,98.84,1526.80,92.90"/>
<path d="M1553.35,98.84,1589.76,63.77"/>
<path d="M636.68,763.06,635.71,677.19"/>
<path d="M636.68,763.06,687.23,784.72"/>
<path d="M636.68,763.06,691.98,736.60"/>
<path d="M636.68,763.06,527.86,838.75"/>
<path d="M327.33,517.96,337.79,467.84"/>
<path d="M327.33,517.96,245.88,532.15"/>
<path d="M1573.66,389.86,1586.33,411.72"/>
<path d="M1573.66,389.86,1485.75,254.85"/>
<path d="M1573.66,389.86,1399.22,455.08"/>
<path d="M1167.76,691.12,1139.91,572.11"/>
<path d="M1167.76,691.12,1058.36,624.13"/>
<path d="M1167.76,691.12,1331.85,695.86"/>
<path d="M1167.76,691.12,1307.97,764.66"/>
<path d="M1167.76,691.12,1071.81,792.06"/>
<path d="M1042.19,413.27,860.20,312.50"/>
<path d="M1042.19,413.27,1116.66,367.26"/>
<path d="M1042.19,413.27,916.22,264.80"/>
<path d="M1042.19,413.27,1020.80,471.97"/>
<path d="M688.14,375.84,648.73,319.91"/>
<path d="M688.14,375.84,761.31,463.39"/>
<path d="M970.68,1537.13,952.84,1479.76"/>
<path d="M970.68,1537.13,1091.93,1640.19"/>
<path d="M970.68,1537.13,833.30,1591.43"/>
<path d="M970.68,1537.13,1066.32,1473.71"/>
<path d="M682.88,61.09,809.53,57.39"/>
<path d="M682.88,61.09,694.61,108.25"/>
<path d="M682.88,61.09,567.87,132.51"/>
<path d="M1502.64,1290.62,1484.63,1391.18"/>
<path d="M1502.64,1290.62,1570.13,1235.99"/>
<path d="M1502.64,1290.62,1406.12,1343.98"/>
<path d="M1502.64,1290.62,1685.97,1394.66"/>
<path d="M1502.64,1290.62,1376.85,1249.70"/>
<path d="M881.73,989.74,858.13,1012.85"/>
<path d="M881.73,989.74,889.92,937.88"/>
<path d="M881.73,989.74,946.28,978.04"/>
<path d="M881.73,989.74,903.78,1033.16"/>
<path d="M648.73,319.91,564.10,336.72"/>
<path d="M69.73,1413.23,55.89,1509.12"/>
<path d="M69.73,1413.23,63.45,1337.11"/>
<path d="M69.73,1413.23,111.76,1427.29"/>
<path d="M1179.58,421.19,1186.17,469.74"/>
<path d="M1179.58,421.19,1255.39,386.70"/>
<path d="M1179.58,421.19,1116.66,367.26"/>
<path d="M1179.58,421.19,1236.12,358.14"/>
<path d="M921.85,525.94,945.82,491.75"/>
<path d="M921.85,525.94,959.67,589.81"/>
<path d="M921.85,525.94,843.91,528.60"/>
<path d="M1193.00,76.18,1249.76,192.88"/>
<path d="M1193.00,76.18,1160.22,79.26"/>
<path d="M1193.00,76.18,1213.17,22.78"/>
<path d="M1535.11,992.87,1558.64,817.10"/>
<path d="M1535.11,992.87,1618.78,985.28"/>
<path d="M1535.11,992.87,1403.76,917.60"/>
<path d="M337.79,467.84,224.66,440.57"/>
<path d="M114.14,1560.05,82.13,1549.89"/>
<path d="M114.14,1560.05,215.21,1522.97"/>
<path d="M114.14,1560.05,261.80,1675.25"/>
<path d="M89.50,701.86,117.33,617.43"/>
<path d="M89.50,701.86,158.14,762.76"/>
<path d="M89.50,701.86,63.55,629.21"/>
<path d="M89.50,701.86,43.59,825.09"/>
<path d="M89.50,701.86,25.30,657.59"/>
<path d="M1361.31,1586.68,1297.20,1573.13"/>
<path d="M1361.31,1586.68,1293.94,1655.26"/>
<path d="M1361.31,1586.68,1426.41,1433.40"/>
<path d="M1361.31,1586.68,1460.24,1621.82"/>
<path d="M224.66,440.57,214.43,467.68"/>
<path d="M224.66,440.57,173.18,380.33"/>
<path d="M1670.57,1223.82,1684.90,1184.91"/>
<path d="M1670.57,1223.82,1635.60,1177.93"/>
<path d="M1670.57,1223.82,1570.13,1235.99"/>
<path d="M1670.57,1223.82,1685.97,1394.66"/>
<path d="M117.33,617.43,162.38,489.84"/>
<path d="M117.33,617.43,293.62,627.00"/>
<path d="M117.33,617.43,245.88,532.15"/>
<path d="M117.33,617.43,63.55,629.21"/>
<path d="M1105.48,1148.24,1043.38,1162.71"/>
<path d="M1105.48,1148.24,1118.31,1170.17"/>
<path d="M1117.25,1481.90,1066.32,1473.71"/>
<path d="M1117.25,1481.90,1290.40,1466.25"/>
<path d="M1327.61,506.72,1301.25,530.21"/>
<path d="M1327.61,506.72,1329.77,462.03"/>
<path d="M1327.61,506.72,1373.00,567.00"/>
<path d="M945.82,491.75,860.20,312.50"/>
<path d="M945.82,491.75,982.31,501.90"/>
<path d="M1558.64,817.10,1679.04,779.75"/>
<path d="M1558.64,817.10,1705.71,876.99"/>
<path d="M1558.64,817.10,1481.83,771.14"/>
<path d="M1558.64,817.10,1618.78,985.28"/>
<path d="M1558.64,817.10,1527.96,739.68"/>
<path d="M1631.97,105.25,1628.40,134.84"/>
<path d="M1631.97,105.25,1589.76,63.77"/>
<path d="M635.71,677.19,693.28,704.29"/>
<path d="M635.71,677.19,619.90,629.79"/>
<path d="M635.71,677.19,716.99,614.54"/>
<path d="M699.46,1311.99,594.97,1223.31"/>
<path d="M699.46,1311.99,726.20,1171.05"/>
<path d="M699.46,1311.99,581.97,1322.80"/>
<path d="M699.46,1311.99,687.11,1359.88"/>
<path d="M675.71,1127.51,594.97,1223.31"/>
<path d="M675.71,1127.51,742.31,1017.57"/>
<path d="M675.71,1127.51,726.20,1171.05"/>
<path d="M675.71,1127.51,528.11,932.58"/>
<path d="M687.23,784.72,788.19,791.49"/>
<path d="M687.23,784.72,691.98,736.60"/>
<path d="M687.23,784.72,692.76,890.72"/>
<path d="M62.32,419.11,80.92,364.25"/>
<path d="M62.32,419.11,162.38,489.84"/>
<path d="M62.32,419.11,63.55,629.21"/>
<path d="M594.97,1223.31,726.20,1171.05"/>
<path d="M594.97,1223.31,507.61,1239.24"/>
<path d="M594.97,1223.31,581.97,1322.80"/>
<path d="M1297.20,1573.13,1293.94,1655.26"/>
<path d="M1297.20,1573.13,1290.40,1466.25"/>
<path d="M1719.95,366.66,1694.38,393.29"/>
<path d="M1719.95,366.66,1696.83,260.59"/>
<path d="M1258.68,224.96,1202.23,291.69"/>
<path d="M1258.68,224.96,1249.76,192.88"/>
<path d="M1258.68,224.96,1372.72,263.35"/>
<path d="M1019.42,1671.49,1091.93,1640.19"/>
<path d="M1043.38,1162.71,1114.38,1198.23"/>
<path d="M1043.38,1162.71,992.27,1132.27"/>
<path d="M1043.38,1162.71,965.57,1198.51"/>
<path d="M575.44,1406.84,543.59,1548.12"/>
<path d="M575.44,1406.84,640.87,1421.42"/>
<path d="M575.44,1406.84,581.97,1322.80"/>
<path d="M575.44,1406.84,478.41,1510.85"/>
<path d="M575.44,1406.84,420.18,1395.42"/>
<path d="M1586.33,411.72,1593.50,443.42"/>
<path d="M1586.33,411.72,1634.42,389.32"/>
<path d="M292.17,815.86,280.99,868.34"/>
<path d="M722.39,950.98,692.76,890.72"/>
<path d="M722.39,950.98,789.54,964.20"/>
<path d="M722.39,950.98,742.31,1017.57"/>
<path d="M788.19,791.49,691.98,736.60"/>
<path d="M788.19,791.49,692.76,890.72"/>
<path d="M788.19,791.49,854.31,865.52"/>
<path d="M788.19,791.49,833.49,765.00"/>
<path d="M78.67,844.23,184.56,808.97"/>
<path d="M78.67,844.23,158.14,762.76"/>
<path d="M78.67,844.23,43.59,825.09"/>
<path d="M922.91,1196.99,915.55,1262.91"/>
<path d="M922.91,1196.99,965.57,1198.51"/>
<path d="M282.65,983.46,261.32,947.57"/>
<path d="M953.21,1270.05,971.25,1226.69"/>
<path d="M953.21,1270.05,915.55,1262.91"/>
<path d="M858.13,1012.85,789.54,964.20"/>
<path d="M858.13,1012.85,903.78,1033.16"/>
<path d="M1114.38,1198.23,1118.31,1170.17"/>
<path d="M1114.38,1198.23,1289.23,1288.28"/>
<path d="M1454.13,108.30,1496.33,118.89"/>
<path d="M1454.13,108.30,1376.42,83.38"/>
<path d="M1454.13,108.30,1372.72,263.35"/>
<path d="M1186.17,469.74,1301.25,530.21"/>
<path d="M1186.17,469.74,1329.77,462.03"/>
<path d="M68.42,89.54,202.68,22.26"/>
<path d="M971.25,1226.69,965.57,1198.51"/>
<path d="M1694.38,393.29,1717.13,433.49"/>
<path d="M1694.38,393.29,1634.42,389.32"/>
<path d="M1694.38,393.29,1637.33,364.47"/>
<path d="M691.98,736.60,693.28,704.29"/>
<path d="M926.25,204.15,916.22,264.80"/>
<path d="M926.25,204.15,836.08,171.24"/>
<path d="M926.25,204.15,962.47,164.12"/>
<path d="M926.25,204.15,1011.07,213.25"/>
<path d="M357.53,1297.55,282.14,1271.01"/>
<path d="M357.53,1297.55,302.81,1409.30"/>
<path d="M357.53,1297.55,421.17,1261.39"/>
<path d="M357.53,1297.55,317.66,1235.03"/>
<path d="M357.53,1297.55,420.18,1395.42"/>
<path d="M844.77,1719.88,788.19,1600.75"/>
<path d="M844.77,1719.88,833.30,1591.43"/>
<path d="M844.77,1719.88,713.24,1680.81"/>
<path d="M1684.90,1184.91,1635.60,1177.93"/>
<path d="M1684.90,1184.91,1727.18,1091.47"/>
<path d="M1479.72,1650.61,1498.35,1693.55"/>
<path d="M1479.72,1650.61,1625.02,1618.65"/>
<path d="M1479.72,1650.61,1460.24,1621.82"/>
<path d="M809.53,57.39,718.00,142.79"/>
<path d="M809.53,57.39,694.61,108.25"/>
<path d="M809.53,57.39,978.52,97.12"/>
<path d="M809.53,57.39,836.08,171.24"/>
<path d="M282.14,1271.01,302.81,1409.30"/>
<path d="M282.14,1271.01,236.34,1289.79"/>
<path d="M282.14,1271.01,317.66,1235.03"/>
<path d="M1123.05,39.84,1035.49,119.94"/>
<path d="M1123.05,39.84,1160.22,79.26"/>
<path d="M1123.05,39.84,1213.17,22.78"/>
<path d="M1388.27,882.41,1279.30,894.64"/>
<path d="M1388.27,882.41,1406.26,810.76"/>
<path d="M1388.27,882.41,1403.76,917.60"/>
<path d="M718.00,142.79,694.61,108.25"/>
<path d="M718.00,142.79,836.08,171.24"/>
<path d="M302.81,1409.30,323.90,1471.24"/>
<path d="M302.81,1409.30,236.34,1289.79"/>
<path d="M302.81,1409.30,228.52,1404.28"/>
<path d="M302.81,1409.30,420.18,1395.42"/>
<path d="M1679.04,779.75,1705.71,876.99"/>
<path d="M1484.63,1391.18,1520.41,1475.67"/>
<path d="M1484.63,1391.18,1426.41,1433.40"/>
<path d="M1484.63,1391.18,1406.12,1343.98"/>
<path d="M1484.63,1391.18,1685.97,1394.66"/>
<path d="M341.57,1702.57,261.80,1675.25"/>
<path d="M341.57,1702.57,291.42,1730.82"/>
<path d="M1635.60,1177.93,1546.58,1185.20"/>
<path d="M1635.60,1177.93,1570.13,1235.99"/>
<path d="M1635.60,1177.93,1618.78,985.28"/>
<path d="M1485.75,254.85,1596.82,257.24"/>
<path d="M1485.75,254.85,1547.54,190.11"/>
<path d="M1485.75,254.85,1372.72,263.35"/>
<path d="M552.62,554.86,518.03,636.83"/>
<path d="M552.62,554.86,464.28,580.65"/>
<path d="M552.62,554.86,619.90,629.79"/>
<path d="M552.62,554.86,620.31,518.98"/>
<path d="M860.20,312.50,764.58,316.92"/>
<path d="M860.20,312.50,916.22,264.80"/>
<path d="M860.20,312.50,836.08,171.24"/>
<path d="M1035.49,119.94,1150.03,158.38"/>
<path d="M1035.49,119.94,978.52,97.12"/>
<path d="M1035.49,119.94,1045.65,202.15"/>
<path d="M1035.49,119.94,993.38,161.06"/>
<path d="M1596.82,257.24,1628.40,134.84"/>
<path d="M1596.82,257.24,1547.54,190.11"/>
<path d="M1596.82,257.24,1636.16,297.07"/>
<path d="M1596.82,257.24,1659.11,243.26"/>
<path d="M80.92,364.25,116.92,267.34"/>
<path d="M80.92,364.25,173.18,380.33"/>
<path d="M385.28,1067.82,421.17,1261.39"/>
<path d="M385.28,1067.82,507.61,1239.24"/>
<path d="M385.28,1067.82,285.82,1152.34"/>
<path d="M162.38,489.84,214.43,467.68"/>
<path d="M162.38,489.84,173.18,380.33"/>
<path d="M1696.83,260.59,1636.16,297.07"/>
<path d="M1696.83,260.59,1659.11,243.26"/>
<path d="M1628.40,134.84,1547.54,190.11"/>
<path d="M1628.40,134.84,1659.11,243.26"/>
<path d="M1546.58,1185.20,1570.13,1235.99"/>
<path d="M693.28,704.29,716.99,614.54"/>
<path d="M421.17,1261.39,507.61,1239.24"/>
<path d="M421.17,1261.39,420.18,1395.42"/>
<path d="M692.76,890.72,527.86,838.75"/>
<path d="M692.76,890.72,528.11,932.58"/>
<path d="M692.76,890.72,854.31,865.52"/>
<path d="M982.31,501.90,1020.80,471.97"/>
<path d="M982.31,501.90,959.67,589.81"/>
<path d="M1255.39,386.70,1279.72,376.78"/>
<path d="M1255.39,386.70,1236.12,358.14"/>
<path d="M442.24,1507.58,323.90,1471.24"/>
<path d="M442.24,1507.58,478.41,1510.85"/>
<path d="M442.24,1507.58,420.18,1395.42"/>
<path d="M1293.94,1655.26,1130.84,1684.97"/>
<path d="M992.86,726.81,991.87,698.46"/>
<path d="M992.86,726.81,1071.81,792.06"/>
<path d="M387.54,752.12,527.86,838.75"/>
<path d="M387.54,752.12,292.87,679.52"/>
<path d="M387.54,752.12,437.60,610.21"/>
<path d="M387.54,752.12,484.24,892.47"/>
<path d="M1072.79,1406.94,1289.23,1288.28"/>
<path d="M1072.79,1406.94,1066.32,1473.71"/>
<path d="M1072.79,1406.94,1026.63,1401.91"/>
<path d="M561.69,1570.17,543.59,1548.12"/>
<path d="M561.69,1570.17,622.19,1634.02"/>
<path d="M518.03,636.83,464.28,580.65"/>
<path d="M518.03,636.83,527.86,838.75"/>
<path d="M518.03,636.83,619.90,629.79"/>
<path d="M518.03,636.83,437.60,610.21"/>
<path d="M35.09,1235.58,124.47,1183.77"/>
<path d="M35.09,1235.58,63.45,1337.11"/>
<path d="M293.62,627.00,245.88,532.15"/>
<path d="M293.62,627.00,292.87,679.52"/>
<path d="M323.90,1471.24,215.21,1522.97"/>
<path d="M323.90,1471.24,420.18,1395.42"/>
<path d="M789.54,964.20,742.31,1017.57"/>
<path d="M789.54,964.20,889.92,937.88"/>
<path d="M789.54,964.20,854.31,865.52"/>
<path d="M1116.66,367.26,1116.92,328.77"/>
<path d="M1130.84,1684.97,1091.93,1640.19"/>
<path d="M420.76,973.75,355.61,889.39"/>
<path d="M420.76,973.75,528.11,932.58"/>
<path d="M420.76,973.75,484.24,892.47"/>
<path d="M245.88,532.15,214.43,467.68"/>
<path d="M184.56,808.97,158.14,762.76"/>
<path d="M1570.13,1235.99,1685.97,1394.66"/>
<path d="M236.21,207.69,116.92,267.34"/>
<path d="M236.21,207.69,400.06,97.20"/>
<path d="M1165.36,529.73,1301.25,530.21"/>
<path d="M1165.36,529.73,1139.91,572.11"/>
<path d="M1705.71,876.99,1683.27,976.44"/>
<path d="M564.10,336.72,620.31,518.98"/>
<path d="M952.84,1479.76,1066.32,1473.71"/>
<path d="M952.84,1479.76,894.14,1487.18"/>
<path d="M464.28,580.65,437.60,610.21"/>
<path d="M543.59,1548.12,478.41,1510.85"/>
<path d="M236.34,1289.79,124.47,1183.77"/>
<path d="M236.34,1289.79,189.30,1334.50"/>
<path d="M355.61,889.39,261.32,947.57"/>
<path d="M355.61,889.39,484.24,892.47"/>
<path d="M355.61,889.39,280.99,868.34"/>
<path d="M1279.30,894.64,1178.07,1049.17"/>
<path d="M1279.30,894.64,1307.97,764.66"/>
<path d="M1279.30,894.64,1071.81,792.06"/>
<path d="M1520.41,1475.67,1625.02,1618.65"/>
<path d="M1520.41,1475.67,1426.41,1433.40"/>
<path d="M1520.41,1475.67,1652.10,1500.95"/>
<path d="M124.47,1183.77,285.82,1152.34"/>
<path d="M124.47,1183.77,189.30,1334.50"/>
<path d="M889.92,937.88,946.28,978.04"/>
<path d="M889.92,937.88,907.45,897.33"/>
<path d="M1547.54,190.11,1496.33,118.89"/>
<path d="M1301.25,530.21,1291.37,575.96"/>
<path d="M1301.25,530.21,1373.00,567.00"/>
<path d="M507.61,1239.24,581.97,1322.80"/>
<path d="M527.86,838.75,484.24,892.47"/>
<path d="M1697.80,491.37,1717.13,433.49"/>
<path d="M1697.80,491.37,1649.10,473.95"/>
<path d="M317.66,1235.03,285.82,1152.34"/>
<path d="M640.87,1421.42,715.69,1624.89"/>
<path d="M640.87,1421.42,687.11,1359.88"/>
<path d="M1593.50,443.42,1649.10,473.95"/>
<path d="M1593.50,443.42,1399.22,455.08"/>
<path d="M619.90,629.79,620.31,518.98"/>
<path d="M619.90,629.79,716.99,614.54"/>
<path d="M1496.33,118.89,1526.80,92.90"/>
<path d="M1376.42,83.38,1249.76,192.88"/>
<path d="M1376.42,83.38,1331.50,46.27"/>
<path d="M1376.42,83.38,1372.72,263.35"/>
<path d="M834.72,601.10,716.99,614.54"/>
<path d="M834.72,601.10,843.91,528.60"/>
<path d="M116.92,267.34,173.18,380.33"/>
<path d="M82.13,1549.89,55.89,1509.12"/>
<path d="M82.13,1549.89,5.25,1587.30"/>
<path d="M261.32,947.57,235.02,939.29"/>
<path d="M261.32,947.57,280.99,868.34"/>
<path d="M694.61,108.25,567.87,132.51"/>
<path d="M1334.44,1328.27,1289.23,1288.28"/>
<path d="M1334.44,1328.27,1290.40,1466.25"/>
<path d="M1334.44,1328.27,1406.12,1343.98"/>
<path d="M1334.44,1328.27,1376.85,1249.70"/>
<path d="M493.14,233.22,481.42,262.64"/>
<path d="M493.14,233.22,567.87,132.51"/>
<path d="M493.14,233.22,400.06,97.20"/>
<path d="M55.89,1509.12,5.25,1587.30"/>
<path d="M55.89,1509.12,111.76,1427.29"/>
<path d="M788.19,1600.75,833.30,1591.43"/>
<path d="M788.19,1600.75,715.69,1624.89"/>
<path d="M1717.13,433.49,1649.10,473.95"/>
<path d="M808.20,1428.67,724.01,1385.38"/>
<path d="M808.20,1428.67,915.55,1262.91"/>
<path d="M808.20,1428.67,894.14,1487.18"/>
<path d="M948.65,615.47,959.67,589.81"/>
<path d="M948.65,615.47,967.76,650.69"/>
<path d="M1636.16,297.07,1637.33,364.47"/>
<path d="M1636.16,297.07,1659.11,243.26"/>
<path d="M1329.77,462.03,1279.72,376.78"/>
<path d="M1329.77,462.03,1399.22,455.08"/>
<path d="M1329.77,462.03,1358.88,406.75"/>
<path d="M1202.23,291.69,1138.44,274.12"/>
<path d="M1202.23,291.69,1236.12,358.14"/>
<path d="M764.58,316.92,836.08,171.24"/>
<path d="M764.58,316.92,761.31,463.39"/>
<path d="M946.28,978.04,903.78,1033.16"/>
<path d="M946.28,978.04,1013.17,969.29"/>
<path d="M1150.03,158.38,1138.44,274.12"/>
<path d="M1150.03,158.38,1249.76,192.88"/>
<path d="M1150.03,158.38,1045.65,202.15"/>
<path d="M1150.03,158.38,1160.22,79.26"/>
<path d="M1289.23,1288.28,1376.85,1249.70"/>
<path d="M991.87,698.46,967.76,650.69"/>
<path d="M884.97,883.15,854.31,865.52"/>
<path d="M884.97,883.15,907.45,897.33"/>
<path d="M833.30,1591.43,894.14,1487.18"/>
<path d="M1139.91,572.11,1058.36,624.13"/>
<path d="M1139.91,572.11,1020.80,471.97"/>
<path d="M1634.42,389.32,1649.10,473.95"/>
<path d="M1634.42,389.32,1637.33,364.47"/>
<path d="M716.99,614.54,811.11,503.60"/>
<path d="M716.99,614.54,761.31,463.39"/>
<path d="M978.52,97.12,993.38,161.06"/>
<path d="M978.52,97.12,962.47,164.12"/>
<path d="M724.01,1385.38,687.11,1359.88"/>
<path d="M1138.44,274.12,1045.65,202.15"/>
<path d="M1138.44,274.12,1116.92,328.77"/>
<path d="M1279.72,376.78,1358.88,406.75"/>
<path d="M1279.72,376.78,1372.72,263.35"/>
<path d="M1481.83,771.14,1447.06,801.18"/>
<path d="M1481.83,771.14,1527.96,739.68"/>
<path d="M528.11,932.58,484.24,892.47"/>
<path d="M1291.37,575.96,1331.85,695.86"/>
<path d="M1291.37,575.96,1373.00,567.00"/>
<path d="M292.87,679.52,158.14,762.76"/>
<path d="M581.97,1322.80,687.11,1359.88"/>
<path d="M1249.76,192.88,1331.50,46.27"/>
<path d="M715.69,1624.89,622.19,1634.02"/>
<path d="M715.69,1624.89,713.24,1680.81"/>
<path d="M1331.50,46.27,1213.17,22.78"/>
<path d="M1058.36,624.13,959.67,589.81"/>
<path d="M1058.36,624.13,967.76,650.69"/>
<path d="M1447.06,801.18,1406.26,810.76"/>
<path d="M903.78,1033.16,992.27,1132.27"/>
<path d="M228.52,1404.28,189.30,1334.50"/>
<path d="M228.52,1404.28,215.21,1522.97"/>
<path d="M228.52,1404.28,111.76,1427.29"/>
<path d="M189.30,1334.50,63.45,1337.11"/>
<path d="M189.30,1334.50,111.76,1427.29"/>
<path d="M1618.78,985.28,1683.27,976.44"/>
<path d="M1686.06,1469.00,1685.97,1394.66"/>
<path d="M1686.06,1469.00,1652.10,1500.95"/>
<path d="M1498.35,1693.55,1625.02,1618.65"/>
<path d="M1045.65,202.15,1011.07,213.25"/>
<path d="M1331.85,695.86,1307.97,764.66"/>
<path d="M1331.85,695.86,1373.00,567.00"/>
<path d="M1625.02,1618.65,1652.10,1500.95"/>
<path d="M215.21,1522.97,111.76,1427.29"/>
<path d="M215.21,1522.97,261.80,1675.25"/>
<path d="M854.31,865.52,833.49,765.00"/>
<path d="M235.02,939.29,218.12,915.88"/>
<path d="M63.55,629.21,25.30,657.59"/>
<path d="M1290.40,1466.25,1426.41,1433.40"/>
<path d="M1727.18,1091.47,1683.27,976.44"/>
<path d="M616.98,1682.31,622.19,1634.02"/>
<path d="M1426.41,1433.40,1406.12,1343.98"/>
<path d="M993.38,161.06,962.47,164.12"/>
<path d="M993.38,161.06,1011.07,213.25"/>
<path d="M567.87,132.51,400.06,97.20"/>
<path d="M261.80,1675.25,291.42,1730.82"/>
<path d="M1406.26,810.76,1307.97,764.66"/>
<path d="M811.11,503.60,843.91,528.60"/>
<path d="M811.11,503.60,761.31,463.39"/>
<path d="M1399.22,455.08,1358.88,406.75"/>
<path d="M1399.22,455.08,1373.00,567.00"/>
<path d="M1406.12,1343.98,1376.85,1249.70"/>
<path d="M1358.88,406.75,1372.72,263.35"/>
<path d="M622.19,1634.02,713.24,1680.81"/>
<path d="M218.12,915.88,280.99,868.34"/>
<path d="M992.27,1132.27,965.57,1198.51"/>
<circle cx="179.08" cy="154.66" r="10"/>
<text x="179.08" y="159.66">R0</text>
<circle cx="58.20" cy="1090.99" r="10"/>
<text x="58.20" y="1095.99">R1</text>
<circle cx="275.66" cy="1051.62" r="10"/>
<text x="275.66" y="1056.62">R2</text>
<circle cx="874.99" cy="574.04" r="10"/>
<text x="874.99" y="579.04">R3</text>
<circle cx="934.12" cy="778.64" r="10"/>
<text x="934.12" y="783.64">R4</text>
<circle cx="1055.15" cy="1328.30" r="10"/>
<text x="1055.15" y="1333.30">R5</text>
<circle cx="660.74" cy="1714.32" r="10"/>
<text x="660.74" y="1719.32">R6</text>
<circle cx="330.68" cy="572.35" r="10"/>
<text x="330.68" y="577.35">R7</text>
<circle cx="347.02" cy="372.19" r="10"/>
<text x="347.02" y="377.19">R8</text>
<circle cx="522.17" cy="266.57" r="10"/>
<text x="522.17" y="271.57">R9</text>
<circle cx="268.43" cy="800.43" r="10"/>
<text x="268.43" y="805.43">R10</text>
<circle cx="813.78" cy="1187.17" r="10"/>
<text x="813.78" y="1192.17">R11</text>
<circle cx="374.27" cy="1023.18" r="10"/>
<text x="374.27" y="1028.18">R12</text>
<circle cx="345.74" cy="833.48" r="10"/>
<text x="345.74" y="838.48">R13</text>
<circle cx="723.93" cy="311.94" r="10"/>
<text x="723.93" y="316.94">R14</text>
<circle cx="1141.93" cy="1055.99" r="10"/>
<text x="1141.93" y="1060.99">R15</text>
<circle cx="859.45" cy="706.87" r="10"/>
<text x="859.45" y="711.87">R16</text>
<circle cx="1054.18" cy="701.75" r="10"/>
<text x="1054.18" y="706.75">R17</text>
<circle cx="661.86" cy="503.73" r="10"/>
<text x="661.86" y="508.73">R18</text>
<circle cx="1248.32" cy="599.39" r="10"/>
<text x="1248.32" y="604.39">R19</text>
<circle cx="1164.12" cy="499.72" r="10"/>
<text x="1164.12" y="504.72">R20</text>
<circle cx="184.76" cy="898.82" r="10"/>
<text x="184.76" y="903.82">R21</text>
<circle cx="1631.94" cy="622.13" r="10"/>
<text x="1631.94" y="627.13">R22</text>
<circle cx="495.13" cy="1576.98" r="10"/>
<text x="495.13" y="1581.98">R23</text>
<circle cx="339.90" cy="320.21" r="10"/>
<text x="339.90" y="325.21">R24</text>
<circle cx="390.63" cy="323.53" r="10"/>
<text x="390.63" y="328.53">R25</text>
<circle cx="1127.79" cy="1110.07" r="10"/>
<text x="1127.79" y="1115.07">R26</text>
<circle cx="29.67" cy="926.54" r="10"/>
<text x="29.67" y="931.54">R27</text>
<circle cx="973.71" cy="1420.40" r="10"/>
<text x="973.71" y="1425.40">R28</text>
<circle cx="977.79" cy="862.27" r="10"/>
<text x="977.79" y="867.27">R29</text>
<circle cx="1143.41" cy="1590.54" r="10"/>
<text x="1143.41" y="1595.54">R30</text>
<circle cx="1055.89" cy="1072.50" r="10"/>
<text x="1055.89" y="1077.50">R31</text>
<circle cx="1521.93" cy="1060.35" r="10"/>
<text x="1521.93" y="1065.35">R32</text>
<circle cx="1457.69" cy="646.82" r="10"/>
<text x="1457.69" y="651.82">R33</text>
<circle cx="1467.07" cy="1067.47" r="10"/>
<text x="1467.07" y="1072.47">R34</text>
<circle cx="283.68" cy="27.33" r="10"/>
<text x="283.68" y="32.33">R35</text>
<circle cx="1481.75" cy="1568.43" r="10"/>
<text x="1481.75" y="1573.43">R36</text>
<circle cx="994.42" cy="1669.15" r="10"/>
<text x="994.42" y="1674.15">R37</text>
<circle cx="1553.35" cy="98.84" r="10"/>
<text x="1553.35" y="103.84">R38</text>
<circle cx="636.68" cy="763.06" r="10"/>
<text x="636.68" y="768.06">R39</text>
<circle cx="327.33" cy="517.96" r="10"/>
<text x="327.33" y="522.96">R40</text>
<circle cx="1573.66" cy="389.86" r="10"/>
<text x="1573.66" y="394.86">R41</text>
<circle cx="1167.76" cy="691.12" r="10"/>
<text x="1167.76" y="696.12">R42</text>
<circle cx="1042.19" cy="413.27" r="10"/>
<text x="1042.19" y="418.27">R43</text>
<circle cx="688.14" cy="375.84" r="10"/>
<text x="688.14" y="380.84">R44</text>
<circle cx="970.68" cy="1537.13" r="10"/>
<text x="970.68" y="1542.13">R45</text>
<circle cx="682.88" cy="61.09" r="10"/>
<text x="682.88" y="66.09">R46</text>
<circle cx="1502.64" cy="1290.62" r="10"/>
<text x="1502.64" y="1295.62">R47</text>
<circle cx="881.73" cy="989.74" r="10"/>
<text x="881.73" y="994.74">R48</text>
<circle cx="648.73" cy="319.91" r="10"/>
<text x="648.73" y="324.91">R49</text>
<circle cx="69.73" cy="1413.23" r="10"/>
<text x="69.73" y="1418.23">R50</text>
<circle cx="1179.58" cy="421.19" r="10"/>
<text x="1179.58" y="426.19">R51</text>
<circle cx="921.85" cy="525.94" r="10"/>
<text x="921.85" y="530.94">R52</text>
<circle cx="1193.00" cy="76.18" r="10"/>
<text x="1193.00" y="81.18">R53</text>
<circle cx="1535.11" cy="992.87" r="10"/>
<text x="1535.11" y="997.87">R54</text>
<circle cx="337.79" cy="467.84" r="10"/>
<text x="337.79" y="472.84">R55</text>
<circle cx="114.14" cy="1560.05" r="10"/>
<text x="114.14" y="1565.05">R56</text>
<circle cx="89.50" cy="701.86" r="10"/>
<text x="89.50" y="706.86">R57</text>
<circle cx="1361.31" cy="1586.68" r="10"/>
<text x="1361.31" y="1591.68">R58</text>
<circle cx="224.66" cy="440.57" r="10"/>
<text x="224.66" y="445.57">R59</text>
<circle cx="1670.57" cy="1223.82" r="10"/>
<text x="1670.57" y="1228.82">R60</text>
<circle cx="117.33" cy="617.43" r="10"/>
<text x="117.33" y="622.43">R61</text>
<circle cx="1105.48" cy="1148.24" r="10"/>
<text x="1105.48" y="1153.24">R62</text>
<circle cx="1117.25" cy="1481.90" r="10"/>
<text x="1117.25" y="1486.90">R63</text>
<circle cx="1327.61" cy="506.72" r="10"/>
<text x="1327.61" y="511.72">R64</text>
<circle cx="945.82" cy="491.75" r="10"/>
<text x="945.82" y="496.75">R65</text>
<circle cx="1558.64" cy="817.10" r="10"/>
<text x="1558.64" y="822.10">R66</text>
<circle cx="1631.97" cy="105.25" r="10"/>
<text x="1631.97" y="110.25">R67</text>
<circle cx="635.71" cy="677.19" r="10"/>
<text x="635.71" y="682.19">R68</text>
<circle cx="699.46" cy="1311.99" r="10"/>
<text x="699.46" y="1316.99">R69</text>
<circle cx="675.71" cy="1127.51" r="10"/>
<text x="675.71" y="1132.51">R70</text>
<circle cx="687.23" cy="784.72" r="10"/>
<text x="687.23" y="789.72">R71</text>
<circle cx="62.32" cy="419.11" r="10"/>
<text x="62.32" y="424.11">R72</text>
<circle cx="594.97" cy="1223.31" r="10"/>
<text x="594.97" y="1228.31">R73</text>
<circle cx="1297.20" cy="1573.13" r="10"/>
<text x="1297.20" y="1578.13">R74</text>
<circle cx="1719.95" cy="366.66" r="10"/>
<text x="1719.95" y="371.66">R75</text>
<circle cx="1258.68" cy="224.96" r="10"/>
<text x="1258.68" y="229.96">R76</text>
<circle cx="1019.42" cy="1671.49" r="10"/>
<text x="1019.42" y="1676.49">R77</text>
<circle cx="1043.38" cy="1162.71" r="10"/>
<text x="1043.38" y="1167.71">R78</text>
<circle cx="575.44" cy="1406.84" r="10"/>
<text x="575.44" y="1411.84">R79</text>
<circle cx="1586.33" cy="411.72" r="10"/>
<text x="1586.33" y="416.72">R80</text>
<circle cx="292.17" cy="815.86" r="10"/>
<text x="292.17" y="820.86">R81</text>
<circle cx="722.39" cy="950.98" r="10"/>
<text x="722.39" y="955.98">R82</text>
<circle cx="788.19" cy="791.49" r="10"/>
<text x="788.19" y="796.49">R83</text>
<circle cx="78.67" cy="844.23" r="10"/>
<text x="78.67" y="849.23">R84</text>
<circle cx="922.91" cy="1196.99" r="10"/>
<text x="922.91" y="1201.99">R85</text>
<circle cx="282.65" cy="983.46" r="10"/>
<text x="282.65" y="988.46">R86</text>
<circle cx="953.21" cy="1270.05" r="10"/>
<text x="953.21" y="1275.05">R87</text>
<circle cx="858.13" cy="1012.85" r="10"/>
<text x="858.13" y="1017.85">R88</text>
<circle cx="1114.38" cy="1198.23" r="10"/>
<text x="1114.38" y="1203.23">R89</text>
<circle cx="1454.13" cy="108.30" r="10"/>
<text x="1454.13" y="113.30">R90</text>
<circle cx="1186.17" cy="469.74" r="10"/>
<text x="1186.17" y="474.74">R91</text>
<circle cx="68.42" cy="89.54" r="10"/>
<text x="68.42" y="94.54">R92</text>
<circle cx="971.25" cy="1226.69" r="10"/>
<text x="971.25" y="1231.69">R93</text>
<circle cx="1694.38" cy="393.29" r="10"/>
<text x="1694.38" y="398.29">R94</text>
<circle cx="691.98" cy="736.60" r="10"/>
<text x="691.98" y="741.60">R95</text>
<circle cx="926.25" cy="204.15" r="10"/>
<text x="926.25" y="209.15">R96</text>
<circle cx="357.53" cy="1297.55" r="10"/>
<text x="357.53" y="1302.55">R97</text>
<circle cx="844.77" cy="1719.88" r="10"/>
<text x="844.77" y="1724.88">R98</text>
<circle cx="1684.90" cy="1184.91" r="10"/>
<text x="1684.90" y="1189.91">R99</text>
<circle cx="1479.72" cy="1650.61" r="10"/>
<text x="1479.72" y="1655.61">R100</text>
<circle cx="809.53" cy="57.39" r="10"/>
<text x="809.53" y="62.39">R101</text>
<circle cx="282.14" cy="1271.01" r="10"/>
<text x="282.14" y="1276.01">R102</text>
<circle cx="1123.05" cy="39.84" r="10"/>
<text x="1123.05" y="44.84">R103</text>
<circle cx="1388.27" cy="882.41" r="10"/>
<text x="1388.27" y="887.41">R104</text>
<circle cx="718.00" cy="142.79" r="10"/>
<text x="718.00" y="147.79">R105</text>
<circle cx="302.81" cy="1409.30" r="10"/>
<text x="302.81" y="1414.30">R106</text>
<circle cx="1679.04" cy="779.75" r="10"/>
<text x="1679.04" y="784.75">R107</text>
<circle cx="1484.63" cy="1391.18" r="10"/>
<text x="1484.63" y="1396.18">R108</text>
<circle cx="341.57" cy="1702.57" r="10"/>
<text x="341.57" y="1707.57">R109</text>
<circle cx="1635.60" cy="1177.93" r="10"/>
<text x="1635.60" y="1182.93">R110</text>
<circle cx="1485.75" cy="254.85" r="10"/>
<text x="1485.75" y="259.85">R111</text>
<circle cx="552.62" cy="554.86" r="10"/>
<text x="552.62" y="559.86">R112</text>
<circle cx="860.20" cy="312.50" r="10"/>
<text x="860.20" y="317.50">R113</text>
<circle cx="1035.49" cy="119.94" r="10"/>
<text x="1035.49" y="124.94">R114</text>
<circle cx="1596.82" cy="257.24" r="10"/>
<text x="1596.82" y="262.24">R115</text>
<circle cx="80.92" cy="364.25" r="10"/>
<text x="80.92" y="369.25">R116</text>
<circle cx="385.28" cy="1067.82" r="10"/>
<text x="385.28" y="1072.82">R117</text>
<circle cx="162.38" cy="489.84" r="10"/>
<text x="162.38" y="494.84">R118</text>
<circle cx="1696.83" cy="260.59" r="10"/>
<text x="1696.83" y="265.59">R119</text>
<circle cx="1628.40" cy="134.84" r="10"/>
<text x="1628.40" y="139.84">R120</text>
<circle cx="1546.58" cy="1185.20" r="10"/>
<text x="1546.58" y="1190.20">R121</text>
<circle cx="693.28" cy="704.29" r="10"/>
<text x="693.28" y="709.29">R122</text>
<circle cx="421.17" cy="1261.39" r="10"/>
<text x="421.17" y="1266.39">R123</text>
<circle cx="692.76" cy="890.72" r="10"/>
<text x="692.76" y="895.72">R124</text>
<circle cx="982.31" cy="501.90" r="10"/>
<text x="982.31" y="506.90">R125</text>
<circle cx="1255.39" cy="386.70" r="10"/>
<text x="1255.39" y="391.70">R126</text>
<circle cx="442.24" cy="1507.58" r="10"/>
<text x="442.24" y="1512.58">R127</text>
<circle cx="1293.94" cy="1655.26" r="10"/>
<text x="1293.94" y="1660.26">R128</text>
<circle cx="992.86" cy="726.81" r="10"/>
<text x="992.86" y="731.81">R129</text>
<circle cx="387.54" cy="752.12" r="10"/>
<text x="387.54" y="757.12">R130</text>
<circle cx="1072.79" cy="1406.94" r="10"/>
<text x="1072.79" y="1411.94">R131</text>
<circle cx="561.69" cy="1570.17" r="10"/>
<text x="561.69" y="1575.17">R132</text>
<circle cx="518.03" cy="636.83" r="10"/>
<text x="518.03" y="641.83">R133</text>
<circle cx="35.09" cy="1235.58" r="10"/>
<text x="35.09" y="1240.58">R134</text>
<circle cx="293.62" cy="627.00" r="10"/>
<text x="293.62" y="632.00">R135</text>
<circle cx="323.90" cy="1471.24" r="10"/>
<text x="323.90" y="1476.24">R136</text>
<circle cx="789.54" cy="964.20" r="10"/>
<text x="789.54" y="969.20">R137</text>
<circle cx="1116.66" cy="367.26" r="10"/>
<text x="1116.66" y="372.26">R138</text>
<circle cx="742.31" cy="1017.57" r="10"/>
<text x="742.31" y="1022.57">R139</text>
<circle cx="1130.84" cy="1684.97" r="10"/>
<text x="1130.84" y="1689.97">R140</text>
<circle cx="726.20" cy="1171.05" r="10"/>
<text x="726.20" y="1176.05">R141</text>
<circle cx="420.76" cy="973.75" r="10"/>
<text x="420.76" y="978.75">R142</text>
<circle cx="245.88" cy="532.15" r="10"/>
<text x="245.88" y="537.15">R143</text>
<circle cx="184.56" cy="808.97" r="10"/>
<text x="184.56" y="813.97">R144</text>
<circle cx="1570.13" cy="1235.99" r="10"/>
<text x="1570.13" y="1240.99">R145</text>
<circle cx="236.21" cy="207.69" r="10"/>
<text x="236.21" y="212.69">R146</text>
<circle cx="1165.36" cy="529.73" r="10"/>
<text x="1165.36" y="534.73">R147</text>
<circle cx="1705.71" cy="876.99" r="10"/>
<text x="1705.71" y="881.99">R148</text>
<circle cx="564.10" cy="336.72" r="10"/>
<text x="564.10" y="341.72">R149</text>
<circle cx="952.84" cy="1479.76" r="10"/>
<text x="952.84" y="1484.76">R150</text>
<circle cx="464.28" cy="580.65" r="10"/>
<text x="464.28" y="585.65">R151</text>
<circle cx="543.59" cy="1548.12" r="10"/>
<text x="543.59" y="1553.12">R152</text>
<circle cx="236.34" cy="1289.79" r="10"/>
<text x="236.34" y="1294.79">R153</text>
<circle cx="355.61" cy="889.39" r="10"/>
<text x="355.61" y="894.39">R154</text>
<circle cx="34.49" cy="1064.64" r="10"/>
<text x="34.49" y="1069.64">R155</text>
<circle cx="1091.93" cy="1640.19" r="10"/>
<text x="1091.93" y="1645.19">R156</text>
<circle cx="1279.30" cy="894.64" r="10"/>
<text x="1279.30" y="899.64">R157</text>
<circle cx="1520.41" cy="1475.67" r="10"/>
<text x="1520.41" y="1480.67">R158</text>
<circle cx="294.06" cy="2.97" r="10"/>
<text x="294.06" y="7.97">R159</text>
<circle cx="124.47" cy="1183.77" r="10"/>
<text x="124.47" y="1188.77">R160</text>
<circle cx="889.92" cy="937.88" r="10"/>
<text x="889.92" y="942.88">R161</text>
<circle cx="1547.54" cy="190.11" r="10"/>
<text x="1547.54" y="195.11">R162</text>
<circle cx="1301.25" cy="530.21" r="10"/>
<text x="1301.25" y="535.21">R163</text>
<circle cx="507.61" cy="1239.24" r="10"/>
<text x="507.61" y="1244.24">R164</text>
<circle cx="527.86" cy="838.75" r="10"/>
<text x="527.86" y="843.75">R165</text>
<circle cx="1697.80" cy="491.37" r="10"/>
<text x="1697.80" y="496.37">R166</text>
<circle cx="317.66" cy="1235.03" r="10"/>
<text x="317.66" y="1240.03">R167</text>
<circle cx="640.87" cy="1421.42" r="10"/>
<text x="640.87" y="1426.42">R168</text>
<circle cx="1593.50" cy="443.42" r="10"/>
<text x="1593.50" y="448.42">R169</text>
<circle cx="619.90" cy="629.79" r="10"/>
<text x="619.90" y="634.79">R170</text>
<circle cx="1496.33" cy="118.89" r="10"/>
<text x="1496.33" y="123.89">R171</text>
<circle cx="1376.42" cy="83.38" r="10"/>
<text x="1376.42" y="88.38">R172</text>
<circle cx="834.72" cy="601.10" r="10"/>
<text x="834.72" y="606.10">R173</text>
<circle cx="116.92" cy="267.34" r="10"/>
<text x="116.92" y="272.34">R174</text>
<circle cx="82.13" cy="1549.89" r="10"/>
<text x="82.13" y="1554.89">R175</text>
<circle cx="261.32" cy="947.57" r="10"/>
<text x="261.32" y="952.57">R176</text>
<circle cx="694.61" cy="108.25" r="10"/>
<text x="694.61" y="113.25">R177</text>
<circle cx="1334.44" cy="1328.27" r="10"/>
<text x="1334.44" y="1333.27">R178</text>
<circle cx="493.14" cy="233.22" r="10"/>
<text x="493.14" y="238.22">R179</text>
<circle cx="55.89" cy="1509.12" r="10"/>
<text x="55.89" y="1514.12">R180</text>
<circle cx="788.19" cy="1600.75" r="10"/>
<text x="788.19" y="1605.75">R181</text>
<circle cx="1717.13" cy="433.49" r="10"/>
<text x="1717.13" y="438.49">R182</text>
<circle cx="808.20" cy="1428.67" r="10"/>
<text x="808.20" y="1433.67">R183</text>
<circle cx="1118.31" cy="1170.17" r="10"/>
<text x="1118.31" y="1175.17">R184</text>
<circle cx="620.31" cy="518.98" r="10"/>
<text x="620.31" y="523.98">R185</text>
<circle cx="948.65" cy="615.47" r="10"/>
<text x="948.65" y="620.47">R186</text>
<circle cx="1636.16" cy="297.07" r="10"/>
<text x="1636.16" y="302.07">R187</text>
<circle cx="1329.77" cy="462.03" r="10"/>
<text x="1329.77" y="467.03">R188</text>
<circle cx="1202.23" cy="291.69" r="10"/>
<text x="1202.23" y="296.69">R189</text>
<circle cx="481.42" cy="262.64" r="10"/>
<text x="481.42" y="267.64">R190</text>
<circle cx="764.58" cy="316.92" r="10"/>
<text x="764.58" y="321.92">R191</text>
<circle cx="946.28" cy="978.04" r="10"/>
<text x="946.28" y="983.04">R192</text>
<circle cx="1150.03" cy="158.38" r="10"/>
<text x="1150.03" y="163.38">R193</text>
<circle cx="1289.23" cy="1288.28" r="10"/>
<text x="1289.23" y="1293.28">R194</text>
<circle cx="991.87" cy="698.46" r="10"/>
<text x="991.87" y="703.46">R195</text>
<circle cx="884.97" cy="883.15" r="10"/>
<text x="884.97" y="888.15">R196</text>
<circle cx="833.30" cy="1591.43" r="10"/>
<text x="833.30" y="1596.43">R197</text>
<circle cx="1139.91" cy="572.11" r="10"/>
<text x="1139.91" y="577.11">R198</text>
<circle cx="1634.42" cy="389.32" r="10"/>
<text x="1634.42" y="394.32">R199</text>
<circle cx="202.68" cy="22.26" r="10"/>
<text x="202.68" y="27.26">R200</text>
<circle cx="1066.32" cy="1473.71" r="10"/>
<text x="1066.32" y="1478.71">R201</text>
<circle cx="716.99" cy="614.54" r="10"/>
<text x="716.99" y="619.54">R202</text>
<circle cx="978.52" cy="97.12" r="10"/>
<text x="978.52" y="102.12">R203</text>
<circle cx="724.01" cy="1385.38" r="10"/>
<text x="724.01" y="1390.38">R204</text>
<circle cx="1649.10" cy="473.95" r="10"/>
<text x="1649.10" y="478.95">R205</text>
<circle cx="1138.44" cy="274.12" r="10"/>
<text x="1138.44" y="279.12">R206</text>
<circle cx="1279.72" cy="376.78" r="10"/>
<text x="1279.72" y="381.78">R207</text>
<circle cx="915.55" cy="1262.91" r="10"/>
<text x="915.55" y="1267.91">R208</text>
<circle cx="1481.83" cy="771.14" r="10"/>
<text x="1481.83" y="776.14">R209</text>
<circle cx="528.11" cy="932.58" r="10"/>
<text x="528.11" y="937.58">R210</text>
<circle cx="1291.37" cy="575.96" r="10"/>
<text x="1291.37" y="580.96">R211</text>
<circle cx="292.87" cy="679.52" r="10"/>
<text x="292.87" y="684.52">R212</text>
<circle cx="581.97" cy="1322.80" r="10"/>
<text x="581.97" y="1327.80">R213</text>
<circle cx="1249.76" cy="192.88" r="10"/>
<text x="1249.76" y="197.88">R214</text>
<circle cx="715.69" cy="1624.89" r="10"/>
<text x="715.69" y="1629.89">R215</text>
<circle cx="1331.50" cy="46.27" r="10"/>
<text x="1331.50" y="51.27">R216</text>
<circle cx="1637.33" cy="364.47" r="10"/>
<text x="1637.33" y="369.47">R217</text>
<circle cx="1058.36" cy="624.13" r="10"/>
<text x="1058.36" y="629.13">R218</text>
<circle cx="1447.06" cy="801.18" r="10"/>
<text x="1447.06" y="806.18">R219</text>
<circle cx="214.43" cy="467.68" r="10"/>
<text x="214.43" y="472.68">R220</text>
<circle cx="173.18" cy="380.33" r="10"/>
<text x="173.18" y="385.33">R221</text>
<circle cx="903.78" cy="1033.16" r="10"/>
<text x="903.78" y="1038.16">R222</text>
<circle cx="228.52" cy="1404.28" r="10"/>
<text x="228.52" y="1409.28">R223</text>
<circle cx="285.82" cy="1152.34" r="10"/>
<text x="285.82" y="1157.34">R224</text>
<circle cx="916.22" cy="264.80" r="10"/>
<text x="916.22" y="269.80">R225</text>
<circle cx="189.30" cy="1334.50" r="10"/>
<text x="189.30" y="1339.50">R226</text>
<circle cx="1618.78" cy="985.28" r="10"/>
<text x="1618.78" y="990.28">R227</text>
<circle cx="1236.12" cy="358.14" r="10"/>
<text x="1236.12" y="363.14">R228</text>
<circle cx="1686.06" cy="1469.00" r="10"/>
<text x="1686.06" y="1474.00">R229</text>
<circle cx="1498.35" cy="1693.55" r="10"/>
<text x="1498.35" y="1698.55">R230</text>
<circle cx="1045.65" cy="202.15" r="10"/>
<text x="1045.65" y="207.15">R231</text>
<circle cx="1331.85" cy="695.86" r="10"/>
<text x="1331.85" y="700.86">R232</text>
<circle cx="5.25" cy="1587.30" r="10"/>
<text x="5.25" y="1592.30">R233</text>
<circle cx="1625.02" cy="1618.65" r="10"/>
<text x="1625.02" y="1623.65">R234</text>
<circle cx="215.21" cy="1522.97" r="10"/>
<text x="215.21" y="1527.97">R235</text>
<circle cx="478.41" cy="1510.85" r="10"/>
<text x="478.41" y="1515.85">R236</text>
<circle cx="854.31" cy="865.52" r="10"/>
<text x="854.31" y="870.52">R237</text>
<circle cx="1116.92" cy="328.77" r="10"/>
<text x="1116.92" y="333.77">R238</text>
<circle cx="687.11" cy="1359.88" r="10"/>
<text x="687.11" y="1364.88">R239</text>
<circle cx="63.45" cy="1337.11" r="10"/>
<text x="63.45" y="1342.11">R240</text>
<circle cx="158.14" cy="762.76" r="10"/>
<text x="158.14" y="767.76">R241</text>
<circle cx="235.02" cy="939.29" r="10"/>
<text x="235.02" y="944.29">R242</text>
<circle cx="63.55" cy="629.21" r="10"/>
<text x="63.55" y="634.21">R243</text>
<circle cx="1290.40" cy="1466.25" r="10"/>
<text x="1290.40" y="1471.25">R244</text>
<circle cx="420.18" cy="1395.42" r="10"/>
<text x="420.18" y="1400.42">R245</text>
<circle cx="43.59" cy="825.09" r="10"/>
<text x="43.59" y="830.09">R246</text>
<circle cx="25.30" cy="657.59" r="10"/>
<text x="25.30" y="662.59">R247</text>
<circle cx="1727.18" cy="1091.47" r="10"/>
<text x="1727.18" y="1096.47">R248</text>
<circle cx="616.98" cy="1682.31" r="10"/>
<text x="616.98" y="1687.31">R249</text>
<circle cx="111.76" cy="1427.29" r="10"/>
<text x="111.76" y="1432.29">R250</text>
<circle cx="1426.41" cy="1433.40" r="10"/>
<text x="1426.41" y="1438.40">R251</text>
<circle cx="993.38" cy="161.06" r="10"/>
<text x="993.38" y="166.06">R252</text>
<circle cx="567.87" cy="132.51" r="10"/>
<text x="567.87" y="137.51">R253</text>
<circle cx="1526.80" cy="92.90" r="10"/>
<text x="1526.80" y="97.90">R254</text>
<circle cx="836.08" cy="171.24" r="10"/>
<text x="836.08" y="176.24">R255</text>
<circle cx="1178.07" cy="1049.17" r="10"/>
<text x="1178.07" y="1054.17">R256</text>
<circle cx="261.80" cy="1675.25" r="10"/>
<text x="261.80" y="1680.25">R257</text>
<circle cx="1020.80" cy="471.97" r="10"/>
<text x="1020.80" y="476.97">R258</text>
<circle cx="1406.26" cy="810.76" r="10"/>
<text x="1406.26" y="815.76">R259</text>
<circle cx="811.11" cy="503.60" r="10"/>
<text x="811.11" y="508.60">R260</text>
<circle cx="1399.22" cy="455.08" r="10"/>
<text x="1399.22" y="460.08">R261</text>
<circle cx="1160.22" cy="79.26" r="10"/>
<text x="1160.22" y="84.26">R262</text>
<circle cx="1527.96" cy="739.68" r="10"/>
<text x="1527.96" y="744.68">R263</text>
<circle cx="1683.27" cy="976.44" r="10"/>
<text x="1683.27" y="981.44">R264</text>
<circle cx="1406.12" cy="1343.98" r="10"/>
<text x="1406.12" y="1348.98">R265</text>
<circle cx="1403.76" cy="917.60" r="10"/>
<text x="1403.76" y="922.60">R266</text>
<circle cx="291.42" cy="1730.82" r="10"/>
<text x="291.42" y="1735.82">R267</text>
<circle cx="894.14" cy="1487.18" r="10"/>
<text x="894.14" y="1492.18">R268</text>
<circle cx="907.45" cy="897.33" r="10"/>
<text x="907.45" y="902.33">R269</text>
<circle cx="1589.76" cy="63.77" r="10"/>
<text x="1589.76" y="68.77">R270</text>
<circle cx="959.67" cy="589.81" r="10"/>
<text x="959.67" y="594.81">R271</text>
<circle cx="437.60" cy="610.21" r="10"/>
<text x="437.60" y="615.21">R272</text>
<circle cx="833.49" cy="765.00" r="10"/>
<text x="833.49" y="770.00">R273</text>
<circle cx="1358.88" cy="406.75" r="10"/>
<text x="1358.88" y="411.75">R274</text>
<circle cx="400.06" cy="97.20" r="10"/>
<text x="400.06" y="102.20">R275</text>
<circle cx="967.76" cy="650.69" r="10"/>
<text x="967.76" y="655.69">R276</text>
<circle cx="1685.97" cy="1394.66" r="10"/>
<text x="1685.97" y="1399.66">R277</text>
<circle cx="1652.10" cy="1500.95" r="10"/>
<text x="1652.10" y="1505.95">R278</text>
<circle cx="622.19" cy="1634.02" r="10"/>
<text x="622.19" y="1639.02">R279</text>
<circle cx="843.91" cy="528.60" r="10"/>
<text x="843.91" y="533.60">R280</text>
<circle cx="218.12" cy="915.88" r="10"/>
<text x="218.12" y="920.88">R281</text>
<circle cx="1460.24" cy="1621.82" r="10"/>
<text x="1460.24" y="1626.82">R282</text>
<circle cx="1213.17" cy="22.78" r="10"/>
<text x="1213.17" y="27.78">R283</text>
<circle cx="962.47" cy="164.12" r="10"/>
<text x="962.47" y="169.12">R284</text>
<circle cx="1011.07" cy="213.25" r="10"/>
<text x="1011.07" y="218.25">R285</text>
<circle cx="761.31" cy="463.39" r="10"/>
<text x="761.31" y="468.39">R286</text>
<circle cx="484.24" cy="892.47" r="10"/>
<text x="484.24" y="897.47">R287</text>
<circle cx="1307.97" cy="764.66" r="10"/>
<text x="1307.97" y="769.66">R288</text>
<circle cx="280.99" cy="868.34" r="10"/>
<text x="280.99" y="873.34">R289</text>
<circle cx="1013.17" cy="969.29" r="10"/>
<text x="1013.17" y="974.29">R290</text>
<circle cx="1659.11" cy="243.26" r="10"/>
<text x="1659.11" y="248.26">R291</text>
<circle cx="1071.81" cy="792.06" r="10"/>
<text x="1071.81" y="797.06">R292</text>
<circle cx="1373.00" cy="567.00" r="10"/>
<text x="1373.00" y="572.00">R293</text>
<circle cx="1026.63" cy="1401.91" r="10"/>
<text x="1026.63" y="1406.91">R294</text>
<circle cx="1376.85" cy="1249.70" r="10"/>
<text x="1376.85" y="1254.70">R295</text>
<circle cx="992.27" cy="1132.27" r="10"/>
<text x="992.27" y="1137.27">R296</text>
<circle cx="1372.72" cy="263.35" r="10"/>
<text x="1372.72" y="268.35">R297</text>
<circle cx="713.24" cy="1680.81" r="10"/>
<text x="713.24" y="1685.81">R298</text>
<circle cx="965.57" cy="1198.51" r="10"/>
<text x="965.57" y="1203.51">R299</text>
</svg>
