<svg id="topo" viewBox="-79.92 -1813.92 1896.15 1899.11" xmlns="http://www.w3.org/2000/svg">
<style>#topo path {fill: none; stroke: grey; stroke-width: 5.0000px;} #topo circle {fill: lightblue; stroke: none; stroke-width: 0.3px; vector-effect: non-scaling-stroke; r: 10.0000px;} #topo text {fill: black; stroke: none; font-size: 15.0000px; font-family: sans-serif; text-anchor:middle; transform: translateY(0.3em);} #topo path.country {fill: lightgrey; stroke: black; stroke-width: 1px; vector-effect: non-scaling-stroke; visibility: visible;} #topo path.selection {fill: none; stroke: red; stroke-width: 1px; vector-effect: non-scaling-stroke; visibility: visible;} #topo path.utilization {visibility: hidden;}</style>
<path data-id="0-91" d="M1051.73,-76.17,1007.36,-37.99"/>
<path data-id="0-114" d="M1051.73,-76.17,1070.90,-147.47"/>
<path data-id="0-120" d="M1051.73,-76.17,1145.98,-79.58"/>
<path data-id="0-242" d="M1051.73,-76.17,1094.06,-30.06"/>
<path data-id="1-44" d="M26.81,-617.38,69.41,-539.35"/>
<path data-id="1-108" d="M26.81,-617.38,61.90,-796.99"/>
<path data-id="1-232" d="M26.81,-617.38,164.77,-775.74"/>
<path data-id="2-13" d="M758.76,-673.61,804.58,-640.07"/>
<path data-id="2-28" d="M758.76,-673.61,782.97,-801.70"/>
<path data-id="2-78" d="M758.76,-673.61,637.51,-627.61"/>
<path data-id="2-184" d="M758.76,-673.61,599.74,-777.48"/>
<path data-id="3-29" d="M1290.10,-1637.53,1361.94,-1563.91"/>
<path data-id="3-56" d="M1290.10,-1637.53,1379.04,-1713.55"/>
<path data-id="3-61" d="M1290.10,-1637.53,1220.85,-1642.64"/>
<path data-id="4-20" d="M355.56,-1320.04,368.56,-1398.09"/>
<path data-id="4-80" d="M355.56,-1320.04,400.26,-1274.87"/>
<path data-id="4-81" d="M355.56,-1320.04,345.80,-1221.79"/>
<path data-id="4-190" d="M355.56,-1320.04,405.16,-1327.90"/>
<path data-id="4-294" d="M355.56,-1320.04,303.97,-1355.90"/>
<path data-id="5-13" d="M903.38,-515.85,804.58,-640.07"/>
<path data-id="5-36" d="M903.38,-515.85,888.88,-412.37"/>
<path data-id="5-136" d="M903.38,-515.85,949.70,-477.10"/>
<path data-id="5-187" d="M903.38,-515.85,954.81,-635.08"/>
<path data-id="6-34" d="M726.81,-1396.46,795.61,-1420.07"/>
<path data-id="6-51" d="M726.81,-1396.46,686.59,-1269.24"/>
<path data-id="6-65" d="M726.81,-1396.46,774.87,-1335.02"/>
<path data-id="6-245" d="M726.81,-1396.46,667.92,-1433.55"/>
<path data-id="7-82" d="M1166.44,-1544.75,1127.05,-1484.43"/>
<path data-id="7-151" d="M1166.44,-1544.75,1197.29,-1480.95"/>
<path data-id="7-246" d="M1166.44,-1544.75,1186.00,-1587.75"/>
<path data-id="7-260" d="M1166.44,-1544.75,1086.37,-1559.21"/>
<path data-id="8-9" d="M1069.97,-587.29,1159.21,-591.27"/>
<path data-id="8-79" d="M1069.97,-587.29,998.93,-433.59"/>
<path data-id="8-92" d="M1069.97,-587.29,1075.76,-714.52"/>
<path data-id="8-136" d="M1069.97,-587.29,949.70,-477.10"/>
<path data-id="8-187" d="M1069.97,-587.29,954.81,-635.08"/>
<path data-id="8-295" d="M1069.97,-587.29,1160.17,-377.29"/>
<path data-id="9-161" d="M1159.21,-591.27,1200.88,-611.08"/>
<path data-id="9-247" d="M1159.21,-591.27,1161.67,-662.90"/>
<path data-id="9-295" d="M1159.21,-591.27,1160.17,-377.29"/>
<path data-id="10-84" d="M750.55,-979.66,711.01,-883.98"/>
<path data-id="10-163" d="M750.55,-979.66,712.23,-988.27"/>
<path data-id="10-243" d="M750.55,-979.66,810.29,-977.02"/>
<path data-id="11-77" d="M1171.42,-1716.17,1163.70,-1656.56"/>
<path data-id="12-44" d="M102.69,-522.41,69.41,-539.35"/>
<path data-id="12-147" d="M102.69,-522.41,71.09,-506.05"/>
<path data-id="12-154" d="M102.69,-522.41,102.14,-555.74"/>
<path data-id="12-299" d="M102.69,-522.41,140.89,-498.45"/>
<path data-id="13-187" d="M804.58,-640.07,954.81,-635.08"/>
<path data-id="14-16" d="M223.24,-1032.95,116.74,-882.57"/>
<path data-id="14-255" d="M223.24,-1032.95,179.26,-1101.48"/>
<path data-id="14-259" d="M223.24,-1032.95,267.33,-1089.41"/>
<path data-id="14-263" d="M223.24,-1032.95,279.53,-909.50"/>
<path data-id="14-274" d="M223.24,-1032.95,140.72,-1075.28"/>
<path data-id="15-116" d="M982.56,-1295.09,978.87,-1424.17"/>
<path data-id="15-146" d="M982.56,-1295.09,857.79,-1207.41"/>
<path data-id="15-175" d="M982.56,-1295.09,1091.52,-1283.69"/>
<path data-id="15-270" d="M982.56,-1295.09,974.53,-1150.01"/>
<path data-id="16-155" d="M116.74,-882.57,44.56,-862.10"/>
<path data-id="16-218" d="M116.74,-882.57,43.43,-1045.98"/>
<path data-id="16-232" d="M116.74,-882.57,164.77,-775.74"/>
<path data-id="16-263" d="M116.74,-882.57,279.53,-909.50"/>
<path data-id="16-274" d="M116.74,-882.57,140.72,-1075.28"/>
<path data-id="17-40" d="M1543.63,-855.12,1517.40,-961.71"/>
<path data-id="17-139" d="M1543.63,-855.12,1481.45,-855.19"/>
<path data-id="17-156" d="M1543.63,-855.12,1695.17,-861.79"/>
<path data-id="17-236" d="M1543.63,-855.12,1632.83,-751.27"/>
<path data-id="17-287" d="M1543.63,-855.12,1505.74,-678.54"/>
<path data-id="17-298" d="M1543.63,-855.12,1671.29,-935.38"/>
<path data-id="18-213" d="M1445.72,-1487.41,1404.31,-1505.79"/>
<path data-id="18-219" d="M1445.72,-1487.41,1421.58,-1541.60"/>
<path data-id="18-253" d="M1445.72,-1487.41,1540.02,-1352.57"/>
<path data-id="19-141" d="M1727.39,-153.40,1711.05,-129.46"/>
<path data-id="19-258" d="M1727.39,-153.40,1684.13,-318.44"/>
<path data-id="20-54" d="M368.56,-1398.09,445.65,-1400.64"/>
<path data-id="20-60" d="M368.56,-1398.09,403.19,-1453.03"/>
<path data-id="20-117" d="M368.56,-1398.09,302.78,-1390.99"/>
<path data-id="20-190" d="M368.56,-1398.09,405.16,-1327.90"/>
<path data-id="21-36" d="M943.51,-353.53,888.88,-412.37"/>
<path data-id="21-58" d="M943.51,-353.53,1045.13,-379.97"/>
<path data-id="21-79" d="M943.51,-353.53,998.93,-433.59"/>
<path data-id="21-122" d="M943.51,-353.53,889.70,-335.92"/>
<path data-id="21-238" d="M943.51,-353.53,960.91,-286.76"/>
<path data-id="22-48" d="M1269.71,-699.77,1205.15,-723.24"/>
<path data-id="22-103" d="M1269.71,-699.77,1369.65,-677.15"/>
<path data-id="22-161" d="M1269.71,-699.77,1200.88,-611.08"/>
<path data-id="22-233" d="M1269.71,-699.77,1249.74,-804.81"/>
<path data-id="22-237" d="M1269.71,-699.77,1368.56,-709.78"/>
<path data-id="23-68" d="M1547.47,-483.57,1444.97,-504.22"/>
<path data-id="23-113" d="M1547.47,-483.57,1488.76,-558.38"/>
<path data-id="23-125" d="M1547.47,-483.57,1627.34,-496.02"/>
<path data-id="23-135" d="M1547.47,-483.57,1536.38,-439.99"/>
<path data-id="24-123" d="M1498.68,-385.64,1565.28,-376.86"/>
<path data-id="24-135" d="M1498.68,-385.64,1536.38,-439.99"/>
<path data-id="24-157" d="M1498.68,-385.64,1483.58,-308.90"/>
<path data-id="24-171" d="M1498.68,-385.64,1409.20,-452.07"/>
<path data-id="25-32" d="M93.83,-1484.07,174.72,-1398.46"/>
<path data-id="25-93" d="M93.83,-1484.07,31.50,-1618.14"/>
<path data-id="25-278" d="M93.83,-1484.07,180.93,-1503.81"/>
<path data-id="25-283" d="M93.83,-1484.07,9.53,-1373.18"/>
<path data-id="26-74" d="M230.08,-292.74,323.81,-131.32"/>
<path data-id="26-85" d="M230.08,-292.74,362.86,-314.62"/>
<path data-id="26-105" d="M230.08,-292.74,161.13,-320.84"/>
<path data-id="26-211" d="M230.08,-292.74,285.03,-118.45"/>
<path data-id="26-249" d="M230.08,-292.74,168.24,-127.09"/>
<path data-id="26-285" d="M230.08,-292.74,324.94,-397.14"/>
<path data-id="27-118" d="M12.15,-1302.63,102.64,-1226.32"/>
<path data-id="27-189" d="M12.15,-1302.63,138.40,-1350.87"/>
<path data-id="27-283" d="M12.15,-1302.63,9.53,-1373.18"/>
<path data-id="28-89" d="M782.97,-801.70,756.68,-813.90"/>
<path data-id="28-195" d="M782.97,-801.70,838.90,-912.14"/>
<path data-id="29-56" d="M1361.94,-1563.91,1379.04,-1713.55"/>
<path data-id="29-151" d="M1361.94,-1563.91,1197.29,-1480.95"/>
<path data-id="29-213" d="M1361.94,-1563.91,1404.31,-1505.79"/>
<path data-id="29-219" d="M1361.94,-1563.91,1421.58,-1541.60"/>
<path data-id="30-47" d="M1192.35,-967.55,1021.22,-834.30"/>
<path data-id="30-132" d="M1192.35,-967.55,1071.21,-1103.05"/>
<path data-id="30-208" d="M1192.35,-967.55,1248.74,-905.60"/>
<path data-id="30-277" d="M1192.35,-967.55,1220.97,-1082.74"/>
<path data-id="31-64" d="M220.42,-1704.49,218.12,-1652.39"/>
<path data-id="31-204" d="M220.42,-1704.49,100.82,-1726.10"/>
<path data-id="32-67" d="M174.72,-1398.46,259.63,-1333.47"/>
<path data-id="32-115" d="M174.72,-1398.46,242.23,-1447.86"/>
<path data-id="32-189" d="M174.72,-1398.46,138.40,-1350.87"/>
<path data-id="32-278" d="M174.72,-1398.46,180.93,-1503.81"/>
<path data-id="33-39" d="M344.72,-730.90,337.52,-627.78"/>
<path data-id="33-172" d="M344.72,-730.90,281.52,-825.15"/>
<path data-id="33-225" d="M344.72,-730.90,409.88,-719.75"/>
<path data-id="33-239" d="M344.72,-730.90,301.35,-719.25"/>
<path data-id="33-244" d="M344.72,-730.90,364.75,-838.09"/>
<path data-id="33-266" d="M344.72,-730.90,414.55,-786.45"/>
<path data-id="34-73" d="M795.61,-1420.07,884.00,-1423.08"/>
<path data-id="34-137" d="M795.61,-1420.07,815.12,-1376.76"/>
<path data-id="34-194" d="M795.61,-1420.07,825.25,-1497.14"/>
<path data-id="35-142" d="M490.05,-51.28,423.96,-107.08"/>
<path data-id="35-159" d="M490.05,-51.28,628.22,-58.15"/>
<path data-id="36-122" d="M888.88,-412.37,889.70,-335.92"/>
<path data-id="36-136" d="M888.88,-412.37,949.70,-477.10"/>
<path data-id="36-185" d="M888.88,-412.37,824.69,-404.22"/>
<path data-id="37-132" d="M1093.19,-1143.95,1071.21,-1103.05"/>
<path data-id="37-149" d="M1093.19,-1143.95,1178.69,-1171.50"/>
<path data-id="37-175" d="M1093.19,-1143.95,1091.52,-1283.69"/>
<path data-id="38-53" d="M1329.92,-382.29,1208.34,-246.32"/>
<path data-id="38-110" d="M1329.92,-382.29,1377.44,-314.17"/>
<path data-id="38-171" d="M1329.92,-382.29,1409.20,-452.07"/>
<path data-id="38-293" d="M1329.92,-382.29,1355.86,-478.20"/>
<path data-id="38-295" d="M1329.92,-382.29,1160.17,-377.29"/>
<path data-id="39-165" d="M337.52,-627.78,242.27,-692.28"/>
<path data-id="39-167" d="M337.52,-627.78,401.64,-580.97"/>
<path data-id="39-196" d="M337.52,-627.78,310.03,-586.59"/>
<path data-id="39-222" d="M337.52,-627.78,331.73,-572.22"/>
<path data-id="39-225" d="M337.52,-627.78,409.88,-719.75"/>
<path data-id="39-239" d="M337.52,-627.78,301.35,-719.25"/>
<path data-id="40-139" d="M1517.40,-961.71,1481.45,-855.19"/>
<path data-id="40-143" d="M1517.40,-961.71,1527.13,-986.02"/>
<path data-id="40-291" d="M1517.40,-961.71,1443.37,-1006.33"/>
<path data-id="41-57" d="M827.65,-27.98,791.03,-116.80"/>
<path data-id="41-107" d="M827.65,-27.98,920.67,-18.83"/>
<path data-id="41-267" d="M827.65,-27.98,851.45,-113.90"/>
<path data-id="42-152" d="M1455.77,-1161.74,1478.66,-1189.87"/>
<path data-id="42-268" d="M1455.77,-1161.74,1383.75,-1239.52"/>
<path data-id="42-277" d="M1455.77,-1161.74,1220.97,-1082.74"/>
<path data-id="42-291" d="M1455.77,-1161.74,1443.37,-1006.33"/>
<path data-id="43-46" d="M685.82,-968.37,631.42,-905.51"/>
<path data-id="43-84" d="M685.82,-968.37,711.01,-883.98"/>
<path data-id="43-138" d="M685.82,-968.37,678.10,-1001.72"/>
<path data-id="43-163" d="M685.82,-968.37,712.23,-988.27"/>
<path data-id="44-147" d="M69.41,-539.35,71.09,-506.05"/>
<path data-id="44-154" d="M69.41,-539.35,102.14,-555.74"/>
<path data-id="45-82" d="M1188.19,-1391.97,1127.05,-1484.43"/>
<path data-id="45-134" d="M1188.19,-1391.97,1265.05,-1277.72"/>
<path data-id="45-151" d="M1188.19,-1391.97,1197.29,-1480.95"/>
<path data-id="45-175" d="M1188.19,-1391.97,1091.52,-1283.69"/>
<path data-id="45-203" d="M1188.19,-1391.97,1165.81,-1248.08"/>
<path data-id="45-231" d="M1188.19,-1391.97,1319.47,-1371.77"/>
<path data-id="46-84" d="M631.42,-905.51,711.01,-883.98"/>
<path data-id="46-227" d="M631.42,-905.51,595.58,-895.38"/>
<path data-id="46-234" d="M631.42,-905.51,600.51,-992.59"/>
<path data-id="47-83" d="M1021.22,-834.30,1029.87,-804.16"/>
<path data-id="47-132" d="M1021.22,-834.30,1071.21,-1103.05"/>
<path data-id="47-195" d="M1021.22,-834.30,838.90,-912.14"/>
<path data-id="48-214" d="M1205.15,-723.24,1154.20,-689.41"/>
<path data-id="48-233" d="M1205.15,-723.24,1249.74,-804.81"/>
<path data-id="49-57" d="M790.23,-217.54,791.03,-116.80"/>
<path data-id="49-95" d="M790.23,-217.54,882.52,-146.91"/>
<path data-id="49-127" d="M790.23,-217.54,757.97,-211.16"/>
<path data-id="49-180" d="M790.23,-217.54,841.61,-307.39"/>
<path data-id="50-69" d="M1349.79,-86.96,1289.21,-223.98"/>
<path data-id="50-193" d="M1349.79,-86.96,1477.65,-25.76"/>
<path data-id="50-230" d="M1349.79,-86.96,1341.82,-236.04"/>
<path data-id="50-286" d="M1349.79,-86.96,1256.49,-42.22"/>
<path data-id="51-102" d="M686.59,-1269.24,744.94,-1253.57"/>
<path data-id="51-169" d="M686.59,-1269.24,602.96,-1141.21"/>
<path data-id="51-290" d="M686.59,-1269.24,501.44,-1324.65"/>
<path data-id="52-156" d="M1730.04,-865.80,1695.17,-861.79"/>
<path data-id="52-228" d="M1730.04,-865.80,1697.08,-886.95"/>
<path data-id="53-69" d="M1208.34,-246.32,1289.21,-223.98"/>
<path data-id="53-87" d="M1208.34,-246.32,1068.98,-278.16"/>
<path data-id="53-120" d="M1208.34,-246.32,1145.98,-79.58"/>
<path data-id="53-252" d="M1208.34,-246.32,1085.81,-207.53"/>
<path data-id="53-295" d="M1208.34,-246.32,1160.17,-377.29"/>
<path data-id="54-60" d="M445.65,-1400.64,403.19,-1453.03"/>
<path data-id="54-150" d="M445.65,-1400.64,535.42,-1516.56"/>
<path data-id="54-190" d="M445.65,-1400.64,405.16,-1327.90"/>
<path data-id="54-198" d="M445.65,-1400.64,566.40,-1449.32"/>
<path data-id="54-290" d="M445.65,-1400.64,501.44,-1324.65"/>
<path data-id="55-70" d="M618.40,-509.01,564.67,-603.07"/>
<path data-id="55-78" d="M618.40,-509.01,637.51,-627.61"/>
<path data-id="55-131" d="M618.40,-509.01,530.67,-474.04"/>
<path data-id="55-166" d="M618.40,-509.01,675.11,-265.43"/>
<path data-id="55-185" d="M618.40,-509.01,824.69,-404.22"/>
<path data-id="56-98" d="M1379.04,-1713.55,1586.43,-1696.54"/>
<path data-id="56-284" d="M1379.04,-1713.55,1578.03,-1628.03"/>
<path data-id="57-212" d="M791.03,-116.80,726.00,-153.48"/>
<path data-id="57-267" d="M791.03,-116.80,851.45,-113.90"/>
<path data-id="57-289" d="M791.03,-116.80,706.37,-89.83"/>
<path data-id="58-79" d="M1045.13,-379.97,998.93,-433.59"/>
<path data-id="58-87" d="M1045.13,-379.97,1068.98,-278.16"/>
<path data-id="58-238" d="M1045.13,-379.97,960.91,-286.76"/>
<path data-id="58-295" d="M1045.13,-379.97,1160.17,-377.29"/>
<path data-id="59-119" d="M1591.94,-685.91,1530.28,-658.79"/>
<path data-id="59-236" d="M1591.94,-685.91,1632.83,-751.27"/>
<path data-id="59-297" d="M1591.94,-685.91,1550.70,-621.49"/>
<path data-id="60-150" d="M403.19,-1453.03,535.42,-1516.56"/>
<path data-id="60-176" d="M403.19,-1453.03,362.69,-1481.23"/>
<path data-id="61-77" d="M1220.85,-1642.64,1163.70,-1656.56"/>
<path data-id="61-246" d="M1220.85,-1642.64,1186.00,-1587.75"/>
<path data-id="62-141" d="M1623.63,-92.19,1711.05,-129.46"/>
<path data-id="62-144" d="M1623.63,-92.19,1566.53,-118.74"/>
<path data-id="62-145" d="M1623.63,-92.19,1675.96,-55.12"/>
<path data-id="62-262" d="M1623.63,-92.19,1623.24,-169.81"/>
<path data-id="62-288" d="M1623.63,-92.19,1572.89,-10.33"/>
<path data-id="63-83" d="M1109.73,-738.18,1029.87,-804.16"/>
<path data-id="63-92" d="M1109.73,-738.18,1075.76,-714.52"/>
<path data-id="63-214" d="M1109.73,-738.18,1154.20,-689.41"/>
<path data-id="64-99" d="M218.12,-1652.39,310.32,-1609.43"/>
<path data-id="64-133" d="M218.12,-1652.39,223.23,-1572.01"/>
<path data-id="65-137" d="M774.87,-1335.02,815.12,-1376.76"/>
<path data-id="65-148" d="M774.87,-1335.02,785.32,-1301.04"/>
<path data-id="66-98" d="M1702.78,-1713.52,1586.43,-1696.54"/>
<path data-id="67-189" d="M259.63,-1333.47,138.40,-1350.87"/>
<path data-id="67-192" d="M259.63,-1333.47,232.81,-1152.60"/>
<path data-id="67-294" d="M259.63,-1333.47,303.97,-1355.90"/>
<path data-id="68-94" d="M1444.97,-504.22,1437.11,-551.67"/>
<path data-id="68-113" d="M1444.97,-504.22,1488.76,-558.38"/>
<path data-id="68-135" d="M1444.97,-504.22,1536.38,-439.99"/>
<path data-id="68-171" d="M1444.97,-504.22,1409.20,-452.07"/>
<path data-id="69-230" d="M1289.21,-223.98,1341.82,-236.04"/>
<path data-id="70-78" d="M564.67,-603.07,637.51,-627.61"/>
<path data-id="70-131" d="M564.67,-603.07,530.67,-474.04"/>
<path data-id="70-199" d="M564.67,-603.07,564.48,-688.59"/>
<path data-id="70-215" d="M564.67,-603.07,488.65,-598.53"/>
<path data-id="71-100" d="M1613.55,-239.95,1538.04,-288.16"/>
<path data-id="71-258" d="M1613.55,-239.95,1684.13,-318.44"/>
<path data-id="71-280" d="M1613.55,-239.95,1597.42,-212.06"/>
<path data-id="72-139" d="M1403.50,-819.61,1481.45,-855.19"/>
<path data-id="72-164" d="M1403.50,-819.61,1352.43,-863.66"/>
<path data-id="72-205" d="M1403.50,-819.61,1436.33,-712.05"/>
<path data-id="72-237" d="M1403.50,-819.61,1368.56,-709.78"/>
<path data-id="73-116" d="M884.00,-1423.08,978.87,-1424.17"/>
<path data-id="73-137" d="M884.00,-1423.08,815.12,-1376.76"/>
<path data-id="73-194" d="M884.00,-1423.08,825.25,-1497.14"/>
<path data-id="73-251" d="M884.00,-1423.08,934.43,-1547.90"/>
<path data-id="74-211" d="M323.81,-131.32,285.03,-118.45"/>
<path data-id="74-254" d="M323.81,-131.32,428.33,-192.80"/>
<path data-id="74-273" d="M323.81,-131.32,335.63,-98.72"/>
<path data-id="75-178" d="M270.76,-1114.64,363.64,-1192.61"/>
<path data-id="75-192" d="M270.76,-1114.64,232.81,-1152.60"/>
<path data-id="75-210" d="M270.76,-1114.64,383.47,-1138.67"/>
<path data-id="75-259" d="M270.76,-1114.64,267.33,-1089.41"/>
<path data-id="76-131" d="M498.72,-427.96,530.67,-474.04"/>
<path data-id="76-182" d="M498.72,-427.96,456.49,-369.84"/>
<path data-id="76-201" d="M498.72,-427.96,476.29,-452.97"/>
<path data-id="77-246" d="M1163.70,-1656.56,1186.00,-1587.75"/>
<path data-id="77-260" d="M1163.70,-1656.56,1086.37,-1559.21"/>
<path data-id="78-199" d="M637.51,-627.61,564.48,-688.59"/>
<path data-id="79-136" d="M998.93,-433.59,949.70,-477.10"/>
<path data-id="80-81" d="M400.26,-1274.87,345.80,-1221.79"/>
<path data-id="80-97" d="M400.26,-1274.87,524.49,-1150.71"/>
<path data-id="80-190" d="M400.26,-1274.87,405.16,-1327.90"/>
<path data-id="81-178" d="M345.80,-1221.79,363.64,-1192.61"/>
<path data-id="81-192" d="M345.80,-1221.79,232.81,-1152.60"/>
<path data-id="82-151" d="M1127.05,-1484.43,1197.29,-1480.95"/>
<path data-id="82-200" d="M1127.05,-1484.43,1042.68,-1449.26"/>
<path data-id="82-260" d="M1127.05,-1484.43,1086.37,-1559.21"/>
<path data-id="83-92" d="M1029.87,-804.16,1075.76,-714.52"/>
<path data-id="84-89" d="M711.01,-883.98,756.68,-813.90"/>
<path data-id="84-184" d="M711.01,-883.98,599.74,-777.48"/>
<path data-id="84-195" d="M711.01,-883.98,838.90,-912.14"/>
<path data-id="85-182" d="M362.86,-314.62,456.49,-369.84"/>
<path data-id="85-254" d="M362.86,-314.62,428.33,-192.80"/>
<path data-id="85-285" d="M362.86,-314.62,324.94,-397.14"/>
<path data-id="86-88" d="M486.94,-1625.25,349.86,-1573.81"/>
<path data-id="86-150" d="M486.94,-1625.25,535.42,-1516.56"/>
<path data-id="86-206" d="M486.94,-1625.25,494.79,-1681.01"/>
<path data-id="87-224" d="M1068.98,-278.16,998.01,-195.00"/>
<path data-id="87-238" d="M1068.98,-278.16,960.91,-286.76"/>
<path data-id="87-252" d="M1068.98,-278.16,1085.81,-207.53"/>
<path data-id="87-295" d="M1068.98,-278.16,1160.17,-377.29"/>
<path data-id="88-99" d="M349.86,-1573.81,310.32,-1609.43"/>
<path data-id="88-158" d="M349.86,-1573.81,295.33,-1535.91"/>
<path data-id="88-176" d="M349.86,-1573.81,362.69,-1481.23"/>
<path data-id="89-184" d="M756.68,-813.90,599.74,-777.48"/>
<path data-id="90-112" d="M352.99,-462.67,439.81,-537.40"/>
<path data-id="90-177" d="M352.99,-462.67,338.03,-496.22"/>
<path data-id="90-182" d="M352.99,-462.67,456.49,-369.84"/>
<path data-id="90-201" d="M352.99,-462.67,476.29,-452.97"/>
<path data-id="90-285" d="M352.99,-462.67,324.94,-397.14"/>
<path data-id="91-107" d="M1007.36,-37.99,920.67,-18.83"/>
<path data-id="91-202" d="M1007.36,-37.99,1016.41,-13.53"/>
<path data-id="92-187" d="M1075.76,-714.52,954.81,-635.08"/>
<path data-id="93-106" d="M31.50,-1618.14,39.30,-1681.59"/>
<path data-id="93-133" d="M31.50,-1618.14,223.23,-1572.01"/>
<path data-id="94-113" d="M1437.11,-551.67,1488.76,-558.38"/>
<path data-id="94-183" d="M1437.11,-551.67,1373.85,-585.48"/>
<path data-id="95-224" d="M882.52,-146.91,998.01,-195.00"/>
<path data-id="95-267" d="M882.52,-146.91,851.45,-113.90"/>
<path data-id="96-103" d="M1380.24,-622.09,1369.65,-677.15"/>
<path data-id="96-183" d="M1380.24,-622.09,1373.85,-585.48"/>
<path data-id="97-169" d="M524.49,-1150.71,602.96,-1141.21"/>
<path data-id="97-210" d="M524.49,-1150.71,383.47,-1138.67"/>
<path data-id="97-256" d="M524.49,-1150.71,412.90,-1030.52"/>
<path data-id="97-279" d="M524.49,-1150.71,498.00,-971.64"/>
<path data-id="97-290" d="M524.49,-1150.71,501.44,-1324.65"/>
<path data-id="98-284" d="M1586.43,-1696.54,1578.03,-1628.03"/>
<path data-id="99-133" d="M310.32,-1609.43,223.23,-1572.01"/>
<path data-id="99-158" d="M310.32,-1609.43,295.33,-1535.91"/>
<path data-id="100-123" d="M1538.04,-288.16,1565.28,-376.86"/>
<path data-id="100-157" d="M1538.04,-288.16,1483.58,-308.90"/>
<path data-id="101-142" d="M387.43,-95.64,423.96,-107.08"/>
<path data-id="101-273" d="M387.43,-95.64,335.63,-98.72"/>
<path data-id="102-146" d="M744.94,-1253.57,857.79,-1207.41"/>
<path data-id="102-148" d="M744.94,-1253.57,785.32,-1301.04"/>
<path data-id="102-281" d="M744.94,-1253.57,751.47,-1178.86"/>
<path data-id="103-205" d="M1369.65,-677.15,1436.33,-712.05"/>
<path data-id="103-237" d="M1369.65,-677.15,1368.56,-709.78"/>
<path data-id="104-165" d="M259.14,-584.11,242.27,-692.28"/>
<path data-id="104-196" d="M259.14,-584.11,310.03,-586.59"/>
<path data-id="104-209" d="M259.14,-584.11,181.98,-500.67"/>
<path data-id="105-186" d="M161.13,-320.84,6.27,-408.18"/>
<path data-id="105-197" d="M161.13,-320.84,73.26,-467.85"/>
<path data-id="105-209" d="M161.13,-320.84,181.98,-500.67"/>
<path data-id="105-271" d="M161.13,-320.84,68.41,-176.35"/>
<path data-id="105-299" d="M161.13,-320.84,140.89,-498.45"/>
<path data-id="106-204" d="M39.30,-1681.59,100.82,-1726.10"/>
<path data-id="107-267" d="M920.67,-18.83,851.45,-113.90"/>
<path data-id="108-155" d="M61.90,-796.99,44.56,-862.10"/>
<path data-id="108-232" d="M61.90,-796.99,164.77,-775.74"/>
<path data-id="109-206" d="M480.01,-1713.17,494.79,-1681.01"/>
<path data-id="110-157" d="M1377.44,-314.17,1483.58,-308.90"/>
<path data-id="110-275" d="M1377.44,-314.17,1386.58,-252.31"/>
<path data-id="111-216" d="M862.24,-1670.56,781.10,-1648.58"/>
<path data-id="111-251" d="M862.24,-1670.56,934.43,-1547.90"/>
<path data-id="112-167" d="M439.81,-537.40,401.64,-580.97"/>
<path data-id="112-177" d="M439.81,-537.40,338.03,-496.22"/>
<path data-id="112-201" d="M439.81,-537.40,476.29,-452.97"/>
<path data-id="112-215" d="M439.81,-537.40,488.65,-598.53"/>
<path data-id="112-220" d="M439.81,-537.40,436.66,-601.78"/>
<path data-id="113-297" d="M1488.76,-558.38,1550.70,-621.49"/>
<path data-id="114-120" d="M1070.90,-147.47,1145.98,-79.58"/>
<path data-id="114-224" d="M1070.90,-147.47,998.01,-195.00"/>
<path data-id="114-252" d="M1070.90,-147.47,1085.81,-207.53"/>
<path data-id="115-117" d="M242.23,-1447.86,302.78,-1390.99"/>
<path data-id="115-158" d="M242.23,-1447.86,295.33,-1535.91"/>
<path data-id="115-176" d="M242.23,-1447.86,362.69,-1481.23"/>
<path data-id="115-221" d="M242.23,-1447.86,211.17,-1499.34"/>
<path data-id="116-181" d="M978.87,-1424.17,1002.46,-1480.46"/>
<path data-id="116-200" d="M978.87,-1424.17,1042.68,-1449.26"/>
<path data-id="117-294" d="M302.78,-1390.99,303.97,-1355.90"/>
<path data-id="118-168" d="M102.64,-1226.32,94.73,-1167.11"/>
<path data-id="118-189" d="M102.64,-1226.32,138.40,-1350.87"/>
<path data-id="119-287" d="M1530.28,-658.79,1505.74,-678.54"/>
<path data-id="119-297" d="M1530.28,-658.79,1550.70,-621.49"/>
<path data-id="120-242" d="M1145.98,-79.58,1094.06,-30.06"/>
<path data-id="120-286" d="M1145.98,-79.58,1256.49,-42.22"/>
<path data-id="121-193" d="M1494.06,-1.88,1477.65,-25.76"/>
<path data-id="121-288" d="M1494.06,-1.88,1572.89,-10.33"/>
<path data-id="122-180" d="M889.70,-335.92,841.61,-307.39"/>
<path data-id="122-185" d="M889.70,-335.92,824.69,-404.22"/>
<path data-id="122-238" d="M889.70,-335.92,960.91,-286.76"/>
<path data-id="123-135" d="M1565.28,-376.86,1536.38,-439.99"/>
<path data-id="123-258" d="M1565.28,-376.86,1684.13,-318.44"/>
<path data-id="123-282" d="M1565.28,-376.86,1611.04,-416.38"/>
<path data-id="124-126" d="M1225.47,-1225.47,1217.98,-1199.33"/>
<path data-id="124-134" d="M1225.47,-1225.47,1265.05,-1277.72"/>
<path data-id="124-203" d="M1225.47,-1225.47,1165.81,-1248.08"/>
<path data-id="125-261" d="M1627.34,-496.02,1701.21,-445.05"/>
<path data-id="125-282" d="M1627.34,-496.02,1611.04,-416.38"/>
<path data-id="125-297" d="M1627.34,-496.02,1550.70,-621.49"/>
<path data-id="126-149" d="M1217.98,-1199.33,1178.69,-1171.50"/>
<path data-id="127-166" d="M757.97,-211.16,675.11,-265.43"/>
<path data-id="127-212" d="M757.97,-211.16,726.00,-153.48"/>
<path data-id="128-249" d="M71.11,-119.48,168.24,-127.09"/>
<path data-id="128-271" d="M71.11,-119.48,68.41,-176.35"/>
<path data-id="129-179" d="M334.97,-1049.46,311.91,-1064.26"/>
<path data-id="129-210" d="M334.97,-1049.46,383.47,-1138.67"/>
<path data-id="129-256" d="M334.97,-1049.46,412.90,-1030.52"/>
<path data-id="129-263" d="M334.97,-1049.46,279.53,-909.50"/>
<path data-id="130-162" d="M749.01,-1591.19,777.57,-1618.72"/>
<path data-id="130-194" d="M749.01,-1591.19,825.25,-1497.14"/>
<path data-id="130-207" d="M749.01,-1591.19,648.05,-1638.35"/>
<path data-id="130-296" d="M749.01,-1591.19,667.19,-1495.93"/>
<path data-id="131-201" d="M530.67,-474.04,476.29,-452.97"/>
<path data-id="131-215" d="M530.67,-474.04,488.65,-598.53"/>
<path data-id="132-270" d="M1071.21,-1103.05,974.53,-1150.01"/>
<path data-id="133-158" d="M223.23,-1572.01,295.33,-1535.91"/>
<path data-id="133-221" d="M223.23,-1572.01,211.17,-1499.34"/>
<path data-id="134-231" d="M1265.05,-1277.72,1319.47,-1371.77"/>
<path data-id="134-268" d="M1265.05,-1277.72,1383.75,-1239.52"/>
<path data-id="135-171" d="M1536.38,-439.99,1409.20,-452.07"/>
<path data-id="135-282" d="M1536.38,-439.99,1611.04,-416.38"/>
<path data-id="138-163" d="M678.10,-1001.72,712.23,-988.27"/>
<path data-id="138-169" d="M678.10,-1001.72,602.96,-1141.21"/>
<path data-id="138-234" d="M678.10,-1001.72,600.51,-992.59"/>
<path data-id="138-281" d="M678.10,-1001.72,751.47,-1178.86"/>
<path data-id="139-188" d="M1481.45,-855.19,1361.37,-979.10"/>
<path data-id="140-166" d="M508.68,-305.76,675.11,-265.43"/>
<path data-id="140-182" d="M508.68,-305.76,456.49,-369.84"/>
<path data-id="140-248" d="M508.68,-305.76,520.87,-224.96"/>
<path data-id="141-145" d="M1711.05,-129.46,1675.96,-55.12"/>
<path data-id="141-262" d="M1711.05,-129.46,1623.24,-169.81"/>
<path data-id="142-254" d="M423.96,-107.08,428.33,-192.80"/>
<path data-id="143-223" d="M1527.13,-986.02,1541.46,-1142.52"/>
<path data-id="143-226" d="M1527.13,-986.02,1602.11,-989.42"/>
<path data-id="143-291" d="M1527.13,-986.02,1443.37,-1006.33"/>
<path data-id="144-193" d="M1566.53,-118.74,1477.65,-25.76"/>
<path data-id="144-262" d="M1566.53,-118.74,1623.24,-169.81"/>
<path data-id="144-275" d="M1566.53,-118.74,1386.58,-252.31"/>
<path data-id="144-288" d="M1566.53,-118.74,1572.89,-10.33"/>
<path data-id="145-288" d="M1675.96,-55.12,1572.89,-10.33"/>
<path data-id="146-148" d="M857.79,-1207.41,785.32,-1301.04"/>
<path data-id="146-264" d="M857.79,-1207.41,833.04,-1173.41"/>
<path data-id="146-270" d="M857.79,-1207.41,974.53,-1150.01"/>
<path data-id="147-197" d="M71.09,-506.05,73.26,-467.85"/>
<path data-id="149-203" d="M1178.69,-1171.50,1165.81,-1248.08"/>
<path data-id="149-277" d="M1178.69,-1171.50,1220.97,-1082.74"/>
<path data-id="150-198" d="M535.42,-1516.56,566.40,-1449.32"/>
<path data-id="150-207" d="M535.42,-1516.56,648.05,-1638.35"/>
<path data-id="150-296" d="M535.42,-1516.56,667.19,-1495.93"/>
<path data-id="152-223" d="M1478.66,-1189.87,1541.46,-1142.52"/>
<path data-id="152-253" d="M1478.66,-1189.87,1540.02,-1352.57"/>
<path data-id="152-268" d="M1478.66,-1189.87,1383.75,-1239.52"/>
<path data-id="153-211" d="M212.17,-1.13,285.03,-118.45"/>
<path data-id="153-249" d="M212.17,-1.13,168.24,-127.09"/>
<path data-id="155-218" d="M44.56,-862.10,43.43,-1045.98"/>
<path data-id="156-228" d="M1695.17,-861.79,1697.08,-886.95"/>
<path data-id="156-236" d="M1695.17,-861.79,1632.83,-751.27"/>
<path data-id="157-275" d="M1483.58,-308.90,1386.58,-252.31"/>
<path data-id="158-176" d="M295.33,-1535.91,362.69,-1481.23"/>
<path data-id="158-221" d="M295.33,-1535.91,211.17,-1499.34"/>
<path data-id="159-248" d="M628.22,-58.15,520.87,-224.96"/>
<path data-id="159-289" d="M628.22,-58.15,706.37,-89.83"/>
<path data-id="160-174" d="M1591.54,-1340.31,1633.16,-1375.33"/>
<path data-id="160-253" d="M1591.54,-1340.31,1540.02,-1352.57"/>
<path data-id="161-183" d="M1200.88,-611.08,1373.85,-585.48"/>
<path data-id="161-247" d="M1200.88,-611.08,1161.67,-662.90"/>
<path data-id="161-293" d="M1200.88,-611.08,1355.86,-478.20"/>
<path data-id="162-216" d="M777.57,-1618.72,781.10,-1648.58"/>
<path data-id="162-251" d="M777.57,-1618.72,934.43,-1547.90"/>
<path data-id="163-281" d="M712.23,-988.27,751.47,-1178.86"/>
<path data-id="164-188" d="M1352.43,-863.66,1361.37,-979.10"/>
<path data-id="164-208" d="M1352.43,-863.66,1248.74,-905.60"/>
<path data-id="164-233" d="M1352.43,-863.66,1249.74,-804.81"/>
<path data-id="165-232" d="M242.27,-692.28,164.77,-775.74"/>
<path data-id="165-239" d="M242.27,-692.28,301.35,-719.25"/>
<path data-id="165-269" d="M242.27,-692.28,259.05,-797.80"/>
<path data-id="166-248" d="M675.11,-265.43,520.87,-224.96"/>
<path data-id="167-220" d="M401.64,-580.97,436.66,-601.78"/>
<path data-id="167-222" d="M401.64,-580.97,331.73,-572.22"/>
<path data-id="168-173" d="M94.73,-1167.11,66.01,-1127.98"/>
<path data-id="168-276" d="M94.73,-1167.11,129.89,-1140.74"/>
<path data-id="169-234" d="M602.96,-1141.21,600.51,-992.59"/>
<path data-id="169-281" d="M602.96,-1141.21,751.47,-1178.86"/>
<path data-id="170-231" d="M1399.67,-1273.29,1319.47,-1371.77"/>
<path data-id="170-253" d="M1399.67,-1273.29,1540.02,-1352.57"/>
<path data-id="170-268" d="M1399.67,-1273.29,1383.75,-1239.52"/>
<path data-id="171-293" d="M1409.20,-452.07,1355.86,-478.20"/>
<path data-id="172-244" d="M281.52,-825.15,364.75,-838.09"/>
<path data-id="172-263" d="M281.52,-825.15,279.53,-909.50"/>
<path data-id="172-269" d="M281.52,-825.15,259.05,-797.80"/>
<path data-id="172-272" d="M281.52,-825.15,315.71,-894.59"/>
<path data-id="173-218" d="M66.01,-1127.98,43.43,-1045.98"/>
<path data-id="173-241" d="M66.01,-1127.98,113.64,-1101.84"/>
<path data-id="173-276" d="M66.01,-1127.98,129.89,-1140.74"/>
<path data-id="174-292" d="M1633.16,-1375.33,1652.89,-1394.20"/>
<path data-id="175-200" d="M1091.52,-1283.69,1042.68,-1449.26"/>
<path data-id="175-203" d="M1091.52,-1283.69,1165.81,-1248.08"/>
<path data-id="175-270" d="M1091.52,-1283.69,974.53,-1150.01"/>
<path data-id="177-209" d="M338.03,-496.22,181.98,-500.67"/>
<path data-id="177-222" d="M338.03,-496.22,331.73,-572.22"/>
<path data-id="178-210" d="M363.64,-1192.61,383.47,-1138.67"/>
<path data-id="179-210" d="M311.91,-1064.26,383.47,-1138.67"/>
<path data-id="179-259" d="M311.91,-1064.26,267.33,-1089.41"/>
<path data-id="180-185" d="M841.61,-307.39,824.69,-404.22"/>
<path data-id="181-200" d="M1002.46,-1480.46,1042.68,-1449.26"/>
<path data-id="181-251" d="M1002.46,-1480.46,934.43,-1547.90"/>
<path data-id="181-260" d="M1002.46,-1480.46,1086.37,-1559.21"/>
<path data-id="182-285" d="M456.49,-369.84,324.94,-397.14"/>
<path data-id="183-293" d="M1373.85,-585.48,1355.86,-478.20"/>
<path data-id="184-199" d="M599.74,-777.48,564.48,-688.59"/>
<path data-id="184-227" d="M599.74,-777.48,595.58,-895.38"/>
<path data-id="184-265" d="M599.74,-777.48,508.60,-796.68"/>
<path data-id="186-197" d="M6.27,-408.18,73.26,-467.85"/>
<path data-id="186-271" d="M6.27,-408.18,68.41,-176.35"/>
<path data-id="188-208" d="M1361.37,-979.10,1248.74,-905.60"/>
<path data-id="188-277" d="M1361.37,-979.10,1220.97,-1082.74"/>
<path data-id="188-291" d="M1361.37,-979.10,1443.37,-1006.33"/>
<path data-id="189-283" d="M138.40,-1350.87,9.53,-1373.18"/>
<path data-id="190-290" d="M405.16,-1327.90,501.44,-1324.65"/>
<path data-id="191-243" d="M884.66,-1118.28,810.29,-977.02"/>
<path data-id="191-264" d="M884.66,-1118.28,833.04,-1173.41"/>
<path data-id="191-270" d="M884.66,-1118.28,974.53,-1150.01"/>
<path data-id="192-255" d="M232.81,-1152.60,179.26,-1101.48"/>
<path data-id="194-251" d="M825.25,-1497.14,934.43,-1547.90"/>
<path data-id="194-296" d="M825.25,-1497.14,667.19,-1495.93"/>
<path data-id="195-243" d="M838.90,-912.14,810.29,-977.02"/>
<path data-id="196-222" d="M310.03,-586.59,331.73,-572.22"/>
<path data-id="197-299" d="M73.26,-467.85,140.89,-498.45"/>
<path data-id="198-245" d="M566.40,-1449.32,667.92,-1433.55"/>
<path data-id="198-290" d="M566.40,-1449.32,501.44,-1324.65"/>
<path data-id="198-296" d="M566.40,-1449.32,667.19,-1495.93"/>
<path data-id="199-225" d="M564.48,-688.59,409.88,-719.75"/>
<path data-id="199-265" d="M564.48,-688.59,508.60,-796.68"/>
<path data-id="200-260" d="M1042.68,-1449.26,1086.37,-1559.21"/>
<path data-id="202-242" d="M1016.41,-13.53,1094.06,-30.06"/>
<path data-id="205-237" d="M1436.33,-712.05,1368.56,-709.78"/>
<path data-id="205-287" d="M1436.33,-712.05,1505.74,-678.54"/>
<path data-id="206-235" d="M494.79,-1681.01,519.92,-1680.74"/>
<path data-id="207-235" d="M648.05,-1638.35,519.92,-1680.74"/>
<path data-id="207-257" d="M648.05,-1638.35,564.78,-1727.59"/>
<path data-id="207-296" d="M648.05,-1638.35,667.19,-1495.93"/>
<path data-id="208-217" d="M1248.74,-905.60,1225.55,-852.77"/>
<path data-id="209-285" d="M181.98,-500.67,324.94,-397.14"/>
<path data-id="209-299" d="M181.98,-500.67,140.89,-498.45"/>
<path data-id="210-256" d="M383.47,-1138.67,412.90,-1030.52"/>
<path data-id="211-249" d="M285.03,-118.45,168.24,-127.09"/>
<path data-id="212-289" d="M726.00,-153.48,706.37,-89.83"/>
<path data-id="213-219" d="M1404.31,-1505.79,1421.58,-1541.60"/>
<path data-id="213-231" d="M1404.31,-1505.79,1319.47,-1371.77"/>
<path data-id="214-247" d="M1154.20,-689.41,1161.67,-662.90"/>
<path data-id="215-220" d="M488.65,-598.53,436.66,-601.78"/>
<path data-id="217-233" d="M1225.55,-852.77,1249.74,-804.81"/>
<path data-id="218-241" d="M43.43,-1045.98,113.64,-1101.84"/>
<path data-id="219-284" d="M1421.58,-1541.60,1578.03,-1628.03"/>
<path data-id="220-225" d="M436.66,-601.78,409.88,-719.75"/>
<path data-id="221-278" d="M211.17,-1499.34,180.93,-1503.81"/>
<path data-id="223-226" d="M1541.46,-1142.52,1602.11,-989.42"/>
<path data-id="223-291" d="M1541.46,-1142.52,1443.37,-1006.33"/>
<path data-id="224-238" d="M998.01,-195.00,960.91,-286.76"/>
<path data-id="224-252" d="M998.01,-195.00,1085.81,-207.53"/>
<path data-id="225-266" d="M409.88,-719.75,414.55,-786.45"/>
<path data-id="226-298" d="M1602.11,-989.42,1671.29,-935.38"/>
<path data-id="227-229" d="M595.58,-895.38,564.93,-924.70"/>
<path data-id="227-265" d="M595.58,-895.38,508.60,-796.68"/>
<path data-id="228-298" d="M1697.08,-886.95,1671.29,-935.38"/>
<path data-id="229-234" d="M564.93,-924.70,600.51,-992.59"/>
<path data-id="229-279" d="M564.93,-924.70,498.00,-971.64"/>
<path data-id="230-275" d="M1341.82,-236.04,1386.58,-252.31"/>
<path data-id="232-269" d="M164.77,-775.74,259.05,-797.80"/>
<path data-id="234-279" d="M600.51,-992.59,498.00,-971.64"/>
<path data-id="235-257" d="M519.92,-1680.74,564.78,-1727.59"/>
<path data-id="239-269" d="M301.35,-719.25,259.05,-797.80"/>
<path data-id="240-250" d="M1702.79,-1435.23,1728.25,-1364.43"/>
<path data-id="240-284" d="M1702.79,-1435.23,1578.03,-1628.03"/>
<path data-id="240-292" d="M1702.79,-1435.23,1652.89,-1394.20"/>
<path data-id="241-274" d="M113.64,-1101.84,140.72,-1075.28"/>
<path data-id="241-276" d="M113.64,-1101.84,129.89,-1140.74"/>
<path data-id="244-266" d="M364.75,-838.09,414.55,-786.45"/>
<path data-id="244-272" d="M364.75,-838.09,315.71,-894.59"/>
<path data-id="244-279" d="M364.75,-838.09,498.00,-971.64"/>
<path data-id="245-296" d="M667.92,-1433.55,667.19,-1495.93"/>
<path data-id="248-254" d="M520.87,-224.96,428.33,-192.80"/>
<path data-id="249-271" d="M168.24,-127.09,68.41,-176.35"/>
<path data-id="250-292" d="M1728.25,-1364.43,1652.89,-1394.20"/>
<path data-id="255-259" d="M179.26,-1101.48,267.33,-1089.41"/>
<path data-id="255-274" d="M179.26,-1101.48,140.72,-1075.28"/>
<path data-id="255-276" d="M179.26,-1101.48,129.89,-1140.74"/>
<path data-id="256-272" d="M412.90,-1030.52,315.71,-894.59"/>
<path data-id="256-279" d="M412.90,-1030.52,498.00,-971.64"/>
<path data-id="258-261" d="M1684.13,-318.44,1701.21,-445.05"/>
<path data-id="258-282" d="M1684.13,-318.44,1611.04,-416.38"/>
<path data-id="261-282" d="M1701.21,-445.05,1611.04,-416.38"/>
<path data-id="262-280" d="M1623.24,-169.81,1597.42,-212.06"/>
<path data-id="263-272" d="M279.53,-909.50,315.71,-894.59"/>
<path data-id="264-281" d="M833.04,-1173.41,751.47,-1178.86"/>
<path data-id="265-266" d="M508.60,-796.68,414.55,-786.45"/>
<circle data-id="0" cx="1051.73" cy="-76.17" r="10.00px"/>
<text data-id="0" x="1051.73" y="-76.17">R0</text>
<circle data-id="1" cx="26.81" cy="-617.38" r="10.00px"/>
<text data-id="1" x="26.81" y="-617.38">R1</text>
<circle data-id="2" cx="758.76" cy="-673.61" r="10.00px"/>
<text data-id="2" x="758.76" y="-673.61">R2</text>
<circle data-id="3" cx="1290.10" cy="-1637.53" r="10.00px"/>
<text data-id="3" x="1290.10" y="-1637.53">R3</text>
<circle data-id="4" cx="355.56" cy="-1320.04" r="10.00px"/>
<text data-id="4" x="355.56" y="-1320.04">R4</text>
<circle data-id="5" cx="903.38" cy="-515.85" r="10.00px"/>
<text data-id="5" x="903.38" y="-515.85">R5</text>
<circle data-id="6" cx="726.81" cy="-1396.46" r="10.00px"/>
<text data-id="6" x="726.81" y="-1396.46">R6</text>
<circle data-id="7" cx="1166.44" cy="-1544.75" r="10.00px"/>
<text data-id="7" x="1166.44" y="-1544.75">R7</text>
<circle data-id="8" cx="1069.97" cy="-587.29" r="10.00px"/>
<text data-id="8" x="1069.97" y="-587.29">R8</text>
<circle data-id="9" cx="1159.21" cy="-591.27" r="10.00px"/>
<text data-id="9" x="1159.21" y="-591.27">R9</text>
<circle data-id="10" cx="750.55" cy="-979.66" r="10.00px"/>
<text data-id="10" x="750.55" y="-979.66">R10</text>
<circle data-id="11" cx="1171.42" cy="-1716.17" r="10.00px"/>
<text data-id="11" x="1171.42" y="-1716.17">R11</text>
<circle data-id="12" cx="102.69" cy="-522.41" r="10.00px"/>
<text data-id="12" x="102.69" y="-522.41">R12</text>
<circle data-id="13" cx="804.58" cy="-640.07" r="10.00px"/>
<text data-id="13" x="804.58" y="-640.07">R13</text>
<circle data-id="14" cx="223.24" cy="-1032.95" r="10.00px"/>
<text data-id="14" x="223.24" y="-1032.95">R14</text>
<circle data-id="15" cx="982.56" cy="-1295.09" r="10.00px"/>
<text data-id="15" x="982.56" y="-1295.09">R15</text>
<circle data-id="16" cx="116.74" cy="-882.57" r="10.00px"/>
<text data-id="16" x="116.74" y="-882.57">R16</text>
<circle data-id="17" cx="1543.63" cy="-855.12" r="10.00px"/>
<text data-id="17" x="1543.63" y="-855.12">R17</text>
<circle data-id="18" cx="1445.72" cy="-1487.41" r="10.00px"/>
<text data-id="18" x="1445.72" y="-1487.41">R18</text>
<circle data-id="19" cx="1727.39" cy="-153.40" r="10.00px"/>
<text data-id="19" x="1727.39" y="-153.40">R19</text>
<circle data-id="20" cx="368.56" cy="-1398.09" r="10.00px"/>
<text data-id="20" x="368.56" y="-1398.09">R20</text>
<circle data-id="21" cx="943.51" cy="-353.53" r="10.00px"/>
<text data-id="21" x="943.51" y="-353.53">R21</text>
<circle data-id="22" cx="1269.71" cy="-699.77" r="10.00px"/>
<text data-id="22" x="1269.71" y="-699.77">R22</text>
<circle data-id="23" cx="1547.47" cy="-483.57" r="10.00px"/>
<text data-id="23" x="1547.47" y="-483.57">R23</text>
<circle data-id="24" cx="1498.68" cy="-385.64" r="10.00px"/>
<text data-id="24" x="1498.68" y="-385.64">R24</text>
<circle data-id="25" cx="93.83" cy="-1484.07" r="10.00px"/>
<text data-id="25" x="93.83" y="-1484.07">R25</text>
<circle data-id="26" cx="230.08" cy="-292.74" r="10.00px"/>
<text data-id="26" x="230.08" y="-292.74">R26</text>
<circle data-id="27" cx="12.15" cy="-1302.63" r="10.00px"/>
<text data-id="27" x="12.15" y="-1302.63">R27</text>
<circle data-id="28" cx="782.97" cy="-801.70" r="10.00px"/>
<text data-id="28" x="782.97" y="-801.70">R28</text>
<circle data-id="29" cx="1361.94" cy="-1563.91" r="10.00px"/>
<text data-id="29" x="1361.94" y="-1563.91">R29</text>
<circle data-id="30" cx="1192.35" cy="-967.55" r="10.00px"/>
<text data-id="30" x="1192.35" y="-967.55">R30</text>
<circle data-id="31" cx="220.42" cy="-1704.49" r="10.00px"/>
<text data-id="31" x="220.42" y="-1704.49">R31</text>
<circle data-id="32" cx="174.72" cy="-1398.46" r="10.00px"/>
<text data-id="32" x="174.72" y="-1398.46">R32</text>
<circle data-id="33" cx="344.72" cy="-730.90" r="10.00px"/>
<text data-id="33" x="344.72" y="-730.90">R33</text>
<circle data-id="34" cx="795.61" cy="-1420.07" r="10.00px"/>
<text data-id="34" x="795.61" y="-1420.07">R34</text>
<circle data-id="35" cx="490.05" cy="-51.28" r="10.00px"/>
<text data-id="35" x="490.05" y="-51.28">R35</text>
<circle data-id="36" cx="888.88" cy="-412.37" r="10.00px"/>
<text data-id="36" x="888.88" y="-412.37">R36</text>
<circle data-id="37" cx="1093.19" cy="-1143.95" r="10.00px"/>
<text data-id="37" x="1093.19" y="-1143.95">R37</text>
<circle data-id="38" cx="1329.92" cy="-382.29" r="10.00px"/>
<text data-id="38" x="1329.92" y="-382.29">R38</text>
<circle data-id="39" cx="337.52" cy="-627.78" r="10.00px"/>
<text data-id="39" x="337.52" y="-627.78">R39</text>
<circle data-id="40" cx="1517.40" cy="-961.71" r="10.00px"/>
<text data-id="40" x="1517.40" y="-961.71">R40</text>
<circle data-id="41" cx="827.65" cy="-27.98" r="10.00px"/>
<text data-id="41" x="827.65" y="-27.98">R41</text>
<circle data-id="42" cx="1455.77" cy="-1161.74" r="10.00px"/>
<text data-id="42" x="1455.77" y="-1161.74">R42</text>
<circle data-id="43" cx="685.82" cy="-968.37" r="10.00px"/>
<text data-id="43" x="685.82" y="-968.37">R43</text>
<circle data-id="44" cx="69.41" cy="-539.35" r="10.00px"/>
<text data-id="44" x="69.41" y="-539.35">R44</text>
<circle data-id="45" cx="1188.19" cy="-1391.97" r="10.00px"/>
<text data-id="45" x="1188.19" y="-1391.97">R45</text>
<circle data-id="46" cx="631.42" cy="-905.51" r="10.00px"/>
<text data-id="46" x="631.42" y="-905.51">R46</text>
<circle data-id="47" cx="1021.22" cy="-834.30" r="10.00px"/>
<text data-id="47" x="1021.22" y="-834.30">R47</text>
<circle data-id="48" cx="1205.15" cy="-723.24" r="10.00px"/>
<text data-id="48" x="1205.15" y="-723.24">R48</text>
<circle data-id="49" cx="790.23" cy="-217.54" r="10.00px"/>
<text data-id="49" x="790.23" y="-217.54">R49</text>
<circle data-id="50" cx="1349.79" cy="-86.96" r="10.00px"/>
<text data-id="50" x="1349.79" y="-86.96">R50</text>
<circle data-id="51" cx="686.59" cy="-1269.24" r="10.00px"/>
<text data-id="51" x="686.59" y="-1269.24">R51</text>
<circle data-id="52" cx="1730.04" cy="-865.80" r="10.00px"/>
<text data-id="52" x="1730.04" y="-865.80">R52</text>
<circle data-id="53" cx="1208.34" cy="-246.32" r="10.00px"/>
<text data-id="53" x="1208.34" y="-246.32">R53</text>
<circle data-id="54" cx="445.65" cy="-1400.64" r="10.00px"/>
<text data-id="54" x="445.65" y="-1400.64">R54</text>
<circle data-id="55" cx="618.40" cy="-509.01" r="10.00px"/>
<text data-id="55" x="618.40" y="-509.01">R55</text>
<circle data-id="56" cx="1379.04" cy="-1713.55" r="10.00px"/>
<text data-id="56" x="1379.04" y="-1713.55">R56</text>
<circle data-id="57" cx="791.03" cy="-116.80" r="10.00px"/>
<text data-id="57" x="791.03" y="-116.80">R57</text>
<circle data-id="58" cx="1045.13" cy="-379.97" r="10.00px"/>
<text data-id="58" x="1045.13" y="-379.97">R58</text>
<circle data-id="59" cx="1591.94" cy="-685.91" r="10.00px"/>
<text data-id="59" x="1591.94" y="-685.91">R59</text>
<circle data-id="60" cx="403.19" cy="-1453.03" r="10.00px"/>
<text data-id="60" x="403.19" y="-1453.03">R60</text>
<circle data-id="61" cx="1220.85" cy="-1642.64" r="10.00px"/>
<text data-id="61" x="1220.85" y="-1642.64">R61</text>
<circle data-id="62" cx="1623.63" cy="-92.19" r="10.00px"/>
<text data-id="62" x="1623.63" y="-92.19">R62</text>
<circle data-id="63" cx="1109.73" cy="-738.18" r="10.00px"/>
<text data-id="63" x="1109.73" y="-738.18">R63</text>
<circle data-id="64" cx="218.12" cy="-1652.39" r="10.00px"/>
<text data-id="64" x="218.12" y="-1652.39">R64</text>
<circle data-id="65" cx="774.87" cy="-1335.02" r="10.00px"/>
<text data-id="65" x="774.87" y="-1335.02">R65</text>
<circle data-id="66" cx="1702.78" cy="-1713.52" r="10.00px"/>
<text data-id="66" x="1702.78" y="-1713.52">R66</text>
<circle data-id="67" cx="259.63" cy="-1333.47" r="10.00px"/>
<text data-id="67" x="259.63" y="-1333.47">R67</text>
<circle data-id="68" cx="1444.97" cy="-504.22" r="10.00px"/>
<text data-id="68" x="1444.97" y="-504.22">R68</text>
<circle data-id="69" cx="1289.21" cy="-223.98" r="10.00px"/>
<text data-id="69" x="1289.21" y="-223.98">R69</text>
<circle data-id="70" cx="564.67" cy="-603.07" r="10.00px"/>
<text data-id="70" x="564.67" y="-603.07">R70</text>
<circle data-id="71" cx="1613.55" cy="-239.95" r="10.00px"/>
<text data-id="71" x="1613.55" y="-239.95">R71</text>
<circle data-id="72" cx="1403.50" cy="-819.61" r="10.00px"/>
<text data-id="72" x="1403.50" y="-819.61">R72</text>
<circle data-id="73" cx="884.00" cy="-1423.08" r="10.00px"/>
<text data-id="73" x="884.00" y="-1423.08">R73</text>
<circle data-id="74" cx="323.81" cy="-131.32" r="10.00px"/>
<text data-id="74" x="323.81" y="-131.32">R74</text>
<circle data-id="75" cx="270.76" cy="-1114.64" r="10.00px"/>
<text data-id="75" x="270.76" y="-1114.64">R75</text>
<circle data-id="76" cx="498.72" cy="-427.96" r="10.00px"/>
<text data-id="76" x="498.72" y="-427.96">R76</text>
<circle data-id="77" cx="1163.70" cy="-1656.56" r="10.00px"/>
<text data-id="77" x="1163.70" y="-1656.56">R77</text>
<circle data-id="78" cx="637.51" cy="-627.61" r="10.00px"/>
<text data-id="78" x="637.51" y="-627.61">R78</text>
<circle data-id="79" cx="998.93" cy="-433.59" r="10.00px"/>
<text data-id="79" x="998.93" y="-433.59">R79</text>
<circle data-id="80" cx="400.26" cy="-1274.87" r="10.00px"/>
<text data-id="80" x="400.26" y="-1274.87">R80</text>
<circle data-id="81" cx="345.80" cy="-1221.79" r="10.00px"/>
<text data-id="81" x="345.80" y="-1221.79">R81</text>
<circle data-id="82" cx="1127.05" cy="-1484.43" r="10.00px"/>
<text data-id="82" x="1127.05" y="-1484.43">R82</text>
<circle data-id="83" cx="1029.87" cy="-804.16" r="10.00px"/>
<text data-id="83" x="1029.87" y="-804.16">R83</text>
<circle data-id="84" cx="711.01" cy="-883.98" r="10.00px"/>
<text data-id="84" x="711.01" y="-883.98">R84</text>
<circle data-id="85" cx="362.86" cy="-314.62" r="10.00px"/>
<text data-id="85" x="362.86" y="-314.62">R85</text>
<circle data-id="86" cx="486.94" cy="-1625.25" r="10.00px"/>
<text data-id="86" x="486.94" y="-1625.25">R86</text>
<circle data-id="87" cx="1068.98" cy="-278.16" r="10.00px"/>
<text data-id="87" x="1068.98" y="-278.16">R87</text>
<circle data-id="88" cx="349.86" cy="-1573.81" r="10.00px"/>
<text data-id="88" x="349.86" y="-1573.81">R88</text>
<circle data-id="89" cx="756.68" cy="-813.90" r="10.00px"/>
<text data-id="89" x="756.68" y="-813.90">R89</text>
<circle data-id="90" cx="352.99" cy="-462.67" r="10.00px"/>
<text data-id="90" x="352.99" y="-462.67">R90</text>
<circle data-id="91" cx="1007.36" cy="-37.99" r="10.00px"/>
<text data-id="91" x="1007.36" y="-37.99">R91</text>
<circle data-id="92" cx="1075.76" cy="-714.52" r="10.00px"/>
<text data-id="92" x="1075.76" y="-714.52">R92</text>
<circle data-id="93" cx="31.50" cy="-1618.14" r="10.00px"/>
<text data-id="93" x="31.50" y="-1618.14">R93</text>
<circle data-id="94" cx="1437.11" cy="-551.67" r="10.00px"/>
<text data-id="94" x="1437.11" y="-551.67">R94</text>
<circle data-id="95" cx="882.52" cy="-146.91" r="10.00px"/>
<text data-id="95" x="882.52" y="-146.91">R95</text>
<circle data-id="96" cx="1380.24" cy="-622.09" r="10.00px"/>
<text data-id="96" x="1380.24" y="-622.09">R96</text>
<circle data-id="97" cx="524.49" cy="-1150.71" r="10.00px"/>
<text data-id="97" x="524.49" y="-1150.71">R97</text>
<circle data-id="98" cx="1586.43" cy="-1696.54" r="10.00px"/>
<text data-id="98" x="1586.43" y="-1696.54">R98</text>
<circle data-id="99" cx="310.32" cy="-1609.43" r="10.00px"/>
<text data-id="99" x="310.32" y="-1609.43">R99</text>
<circle data-id="100" cx="1538.04" cy="-288.16" r="10.00px"/>
<text data-id="100" x="1538.04" y="-288.16">R100</text>
<circle data-id="101" cx="387.43" cy="-95.64" r="10.00px"/>
<text data-id="101" x="387.43" y="-95.64">R101</text>
<circle data-id="102" cx="744.94" cy="-1253.57" r="10.00px"/>
<text data-id="102" x="744.94" y="-1253.57">R102</text>
<circle data-id="103" cx="1369.65" cy="-677.15" r="10.00px"/>
<text data-id="103" x="1369.65" y="-677.15">R103</text>
<circle data-id="104" cx="259.14" cy="-584.11" r="10.00px"/>
<text data-id="104" x="259.14" y="-584.11">R104</text>
<circle data-id="105" cx="161.13" cy="-320.84" r="10.00px"/>
<text data-id="105" x="161.13" y="-320.84">R105</text>
<circle data-id="106" cx="39.30" cy="-1681.59" r="10.00px"/>
<text data-id="106" x="39.30" y="-1681.59">R106</text>
<circle data-id="107" cx="920.67" cy="-18.83" r="10.00px"/>
<text data-id="107" x="920.67" y="-18.83">R107</text>
<circle data-id="108" cx="61.90" cy="-796.99" r="10.00px"/>
<text data-id="108" x="61.90" y="-796.99">R108</text>
<circle data-id="109" cx="480.01" cy="-1713.17" r="10.00px"/>
<text data-id="109" x="480.01" y="-1713.17">R109</text>
<circle data-id="110" cx="1377.44" cy="-314.17" r="10.00px"/>
<text data-id="110" x="1377.44" y="-314.17">R110</text>
<circle data-id="111" cx="862.24" cy="-1670.56" r="10.00px"/>
<text data-id="111" x="862.24" y="-1670.56">R111</text>
<circle data-id="112" cx="439.81" cy="-537.40" r="10.00px"/>
<text data-id="112" x="439.81" y="-537.40">R112</text>
<circle data-id="113" cx="1488.76" cy="-558.38" r="10.00px"/>
<text data-id="113" x="1488.76" y="-558.38">R113</text>
<circle data-id="114" cx="1070.90" cy="-147.47" r="10.00px"/>
<text data-id="114" x="1070.90" y="-147.47">R114</text>
<circle data-id="115" cx="242.23" cy="-1447.86" r="10.00px"/>
<text data-id="115" x="242.23" y="-1447.86">R115</text>
<circle data-id="116" cx="978.87" cy="-1424.17" r="10.00px"/>
<text data-id="116" x="978.87" y="-1424.17">R116</text>
<circle data-id="117" cx="302.78" cy="-1390.99" r="10.00px"/>
<text data-id="117" x="302.78" y="-1390.99">R117</text>
<circle data-id="118" cx="102.64" cy="-1226.32" r="10.00px"/>
<text data-id="118" x="102.64" y="-1226.32">R118</text>
<circle data-id="119" cx="1530.28" cy="-658.79" r="10.00px"/>
<text data-id="119" x="1530.28" y="-658.79">R119</text>
<circle data-id="120" cx="1145.98" cy="-79.58" r="10.00px"/>
<text data-id="120" x="1145.98" y="-79.58">R120</text>
<circle data-id="121" cx="1494.06" cy="-1.88" r="10.00px"/>
<text data-id="121" x="1494.06" y="-1.88">R121</text>
<circle data-id="122" cx="889.70" cy="-335.92" r="10.00px"/>
<text data-id="122" x="889.70" y="-335.92">R122</text>
<circle data-id="123" cx="1565.28" cy="-376.86" r="10.00px"/>
<text data-id="123" x="1565.28" y="-376.86">R123</text>
<circle data-id="124" cx="1225.47" cy="-1225.47" r="10.00px"/>
<text data-id="124" x="1225.47" y="-1225.47">R124</text>
<circle data-id="125" cx="1627.34" cy="-496.02" r="10.00px"/>
<text data-id="125" x="1627.34" y="-496.02">R125</text>
<circle data-id="126" cx="1217.98" cy="-1199.33" r="10.00px"/>
<text data-id="126" x="1217.98" y="-1199.33">R126</text>
<circle data-id="127" cx="757.97" cy="-211.16" r="10.00px"/>
<text data-id="127" x="757.97" y="-211.16">R127</text>
<circle data-id="128" cx="71.11" cy="-119.48" r="10.00px"/>
<text data-id="128" x="71.11" y="-119.48">R128</text>
<circle data-id="129" cx="334.97" cy="-1049.46" r="10.00px"/>
<text data-id="129" x="334.97" y="-1049.46">R129</text>
<circle data-id="130" cx="749.01" cy="-1591.19" r="10.00px"/>
<text data-id="130" x="749.01" y="-1591.19">R130</text>
<circle data-id="131" cx="530.67" cy="-474.04" r="10.00px"/>
<text data-id="131" x="530.67" y="-474.04">R131</text>
<circle data-id="132" cx="1071.21" cy="-1103.05" r="10.00px"/>
<text data-id="132" x="1071.21" y="-1103.05">R132</text>
<circle data-id="133" cx="223.23" cy="-1572.01" r="10.00px"/>
<text data-id="133" x="223.23" y="-1572.01">R133</text>
<circle data-id="134" cx="1265.05" cy="-1277.72" r="10.00px"/>
<text data-id="134" x="1265.05" y="-1277.72">R134</text>
<circle data-id="135" cx="1536.38" cy="-439.99" r="10.00px"/>
<text data-id="135" x="1536.38" y="-439.99">R135</text>
<circle data-id="136" cx="949.70" cy="-477.10" r="10.00px"/>
<text data-id="136" x="949.70" y="-477.10">R136</text>
<circle data-id="137" cx="815.12" cy="-1376.76" r="10.00px"/>
<text data-id="137" x="815.12" y="-1376.76">R137</text>
<circle data-id="138" cx="678.10" cy="-1001.72" r="10.00px"/>
<text data-id="138" x="678.10" y="-1001.72">R138</text>
<circle data-id="139" cx="1481.45" cy="-855.19" r="10.00px"/>
<text data-id="139" x="1481.45" y="-855.19">R139</text>
<circle data-id="140" cx="508.68" cy="-305.76" r="10.00px"/>
<text data-id="140" x="508.68" y="-305.76">R140</text>
<circle data-id="141" cx="1711.05" cy="-129.46" r="10.00px"/>
<text data-id="141" x="1711.05" y="-129.46">R141</text>
<circle data-id="142" cx="423.96" cy="-107.08" r="10.00px"/>
<text data-id="142" x="423.96" y="-107.08">R142</text>
<circle data-id="143" cx="1527.13" cy="-986.02" r="10.00px"/>
<text data-id="143" x="1527.13" y="-986.02">R143</text>
<circle data-id="144" cx="1566.53" cy="-118.74" r="10.00px"/>
<text data-id="144" x="1566.53" y="-118.74">R144</text>
<circle data-id="145" cx="1675.96" cy="-55.12" r="10.00px"/>
<text data-id="145" x="1675.96" y="-55.12">R145</text>
<circle data-id="146" cx="857.79" cy="-1207.41" r="10.00px"/>
<text data-id="146" x="857.79" y="-1207.41">R146</text>
<circle data-id="147" cx="71.09" cy="-506.05" r="10.00px"/>
<text data-id="147" x="71.09" y="-506.05">R147</text>
<circle data-id="148" cx="785.32" cy="-1301.04" r="10.00px"/>
<text data-id="148" x="785.32" y="-1301.04">R148</text>
<circle data-id="149" cx="1178.69" cy="-1171.50" r="10.00px"/>
<text data-id="149" x="1178.69" y="-1171.50">R149</text>
<circle data-id="150" cx="535.42" cy="-1516.56" r="10.00px"/>
<text data-id="150" x="535.42" y="-1516.56">R150</text>
<circle data-id="151" cx="1197.29" cy="-1480.95" r="10.00px"/>
<text data-id="151" x="1197.29" y="-1480.95">R151</text>
<circle data-id="152" cx="1478.66" cy="-1189.87" r="10.00px"/>
<text data-id="152" x="1478.66" y="-1189.87">R152</text>
<circle data-id="153" cx="212.17" cy="-1.13" r="10.00px"/>
<text data-id="153" x="212.17" y="-1.13">R153</text>
<circle data-id="154" cx="102.14" cy="-555.74" r="10.00px"/>
<text data-id="154" x="102.14" y="-555.74">R154</text>
<circle data-id="155" cx="44.56" cy="-862.10" r="10.00px"/>
<text data-id="155" x="44.56" y="-862.10">R155</text>
<circle data-id="156" cx="1695.17" cy="-861.79" r="10.00px"/>
<text data-id="156" x="1695.17" y="-861.79">R156</text>
<circle data-id="157" cx="1483.58" cy="-308.90" r="10.00px"/>
<text data-id="157" x="1483.58" y="-308.90">R157</text>
<circle data-id="158" cx="295.33" cy="-1535.91" r="10.00px"/>
<text data-id="158" x="295.33" y="-1535.91">R158</text>
<circle data-id="159" cx="628.22" cy="-58.15" r="10.00px"/>
<text data-id="159" x="628.22" y="-58.15">R159</text>
<circle data-id="160" cx="1591.54" cy="-1340.31" r="10.00px"/>
<text data-id="160" x="1591.54" y="-1340.31">R160</text>
<circle data-id="161" cx="1200.88" cy="-611.08" r="10.00px"/>
<text data-id="161" x="1200.88" y="-611.08">R161</text>
<circle data-id="162" cx="777.57" cy="-1618.72" r="10.00px"/>
<text data-id="162" x="777.57" y="-1618.72">R162</text>
<circle data-id="163" cx="712.23" cy="-988.27" r="10.00px"/>
<text data-id="163" x="712.23" y="-988.27">R163</text>
<circle data-id="164" cx="1352.43" cy="-863.66" r="10.00px"/>
<text data-id="164" x="1352.43" y="-863.66">R164</text>
<circle data-id="165" cx="242.27" cy="-692.28" r="10.00px"/>
<text data-id="165" x="242.27" y="-692.28">R165</text>
<circle data-id="166" cx="675.11" cy="-265.43" r="10.00px"/>
<text data-id="166" x="675.11" y="-265.43">R166</text>
<circle data-id="167" cx="401.64" cy="-580.97" r="10.00px"/>
<text data-id="167" x="401.64" y="-580.97">R167</text>
<circle data-id="168" cx="94.73" cy="-1167.11" r="10.00px"/>
<text data-id="168" x="94.73" y="-1167.11">R168</text>
<circle data-id="169" cx="602.96" cy="-1141.21" r="10.00px"/>
<text data-id="169" x="602.96" y="-1141.21">R169</text>
<circle data-id="170" cx="1399.67" cy="-1273.29" r="10.00px"/>
<text data-id="170" x="1399.67" y="-1273.29">R170</text>
<circle data-id="171" cx="1409.20" cy="-452.07" r="10.00px"/>
<text data-id="171" x="1409.20" y="-452.07">R171</text>
<circle data-id="172" cx="281.52" cy="-825.15" r="10.00px"/>
<text data-id="172" x="281.52" y="-825.15">R172</text>
<circle data-id="173" cx="66.01" cy="-1127.98" r="10.00px"/>
<text data-id="173" x="66.01" y="-1127.98">R173</text>
<circle data-id="174" cx="1633.16" cy="-1375.33" r="10.00px"/>
<text data-id="174" x="1633.16" y="-1375.33">R174</text>
<circle data-id="175" cx="1091.52" cy="-1283.69" r="10.00px"/>
<text data-id="175" x="1091.52" y="-1283.69">R175</text>
<circle data-id="176" cx="362.69" cy="-1481.23" r="10.00px"/>
<text data-id="176" x="362.69" y="-1481.23">R176</text>
<circle data-id="177" cx="338.03" cy="-496.22" r="10.00px"/>
<text data-id="177" x="338.03" y="-496.22">R177</text>
<circle data-id="178" cx="363.64" cy="-1192.61" r="10.00px"/>
<text data-id="178" x="363.64" y="-1192.61">R178</text>
<circle data-id="179" cx="311.91" cy="-1064.26" r="10.00px"/>
<text data-id="179" x="311.91" y="-1064.26">R179</text>
<circle data-id="180" cx="841.61" cy="-307.39" r="10.00px"/>
<text data-id="180" x="841.61" y="-307.39">R180</text>
<circle data-id="181" cx="1002.46" cy="-1480.46" r="10.00px"/>
<text data-id="181" x="1002.46" y="-1480.46">R181</text>
<circle data-id="182" cx="456.49" cy="-369.84" r="10.00px"/>
<text data-id="182" x="456.49" y="-369.84">R182</text>
<circle data-id="183" cx="1373.85" cy="-585.48" r="10.00px"/>
<text data-id="183" x="1373.85" y="-585.48">R183</text>
<circle data-id="184" cx="599.74" cy="-777.48" r="10.00px"/>
<text data-id="184" x="599.74" y="-777.48">R184</text>
<circle data-id="185" cx="824.69" cy="-404.22" r="10.00px"/>
<text data-id="185" x="824.69" y="-404.22">R185</text>
<circle data-id="186" cx="6.27" cy="-408.18" r="10.00px"/>
<text data-id="186" x="6.27" y="-408.18">R186</text>
<circle data-id="187" cx="954.81" cy="-635.08" r="10.00px"/>
<text data-id="187" x="954.81" y="-635.08">R187</text>
<circle data-id="188" cx="1361.37" cy="-979.10" r="10.00px"/>
<text data-id="188" x="1361.37" y="-979.10">R188</text>
<circle data-id="189" cx="138.40" cy="-1350.87" r="10.00px"/>
<text data-id="189" x="138.40" y="-1350.87">R189</text>
<circle data-id="190" cx="405.16" cy="-1327.90" r="10.00px"/>
<text data-id="190" x="405.16" y="-1327.90">R190</text>
<circle data-id="191" cx="884.66" cy="-1118.28" r="10.00px"/>
<text data-id="191" x="884.66" y="-1118.28">R191</text>
<circle data-id="192" cx="232.81" cy="-1152.60" r="10.00px"/>
<text data-id="192" x="232.81" y="-1152.60">R192</text>
<circle data-id="193" cx="1477.65" cy="-25.76" r="10.00px"/>
<text data-id="193" x="1477.65" y="-25.76">R193</text>
<circle data-id="194" cx="825.25" cy="-1497.14" r="10.00px"/>
<text data-id="194" x="825.25" y="-1497.14">R194</text>
<circle data-id="195" cx="838.90" cy="-912.14" r="10.00px"/>
<text data-id="195" x="838.90" y="-912.14">R195</text>
<circle data-id="196" cx="310.03" cy="-586.59" r="10.00px"/>
<text data-id="196" x="310.03" y="-586.59">R196</text>
<circle data-id="197" cx="73.26" cy="-467.85" r="10.00px"/>
<text data-id="197" x="73.26" y="-467.85">R197</text>
<circle data-id="198" cx="566.40" cy="-1449.32" r="10.00px"/>
<text data-id="198" x="566.40" y="-1449.32">R198</text>
<circle data-id="199" cx="564.48" cy="-688.59" r="10.00px"/>
<text data-id="199" x="564.48" y="-688.59">R199</text>
<circle data-id="200" cx="1042.68" cy="-1449.26" r="10.00px"/>
<text data-id="200" x="1042.68" y="-1449.26">R200</text>
<circle data-id="201" cx="476.29" cy="-452.97" r="10.00px"/>
<text data-id="201" x="476.29" y="-452.97">R201</text>
<circle data-id="202" cx="1016.41" cy="-13.53" r="10.00px"/>
<text data-id="202" x="1016.41" y="-13.53">R202</text>
<circle data-id="203" cx="1165.81" cy="-1248.08" r="10.00px"/>
<text data-id="203" x="1165.81" y="-1248.08">R203</text>
<circle data-id="204" cx="100.82" cy="-1726.10" r="10.00px"/>
<text data-id="204" x="100.82" y="-1726.10">R204</text>
<circle data-id="205" cx="1436.33" cy="-712.05" r="10.00px"/>
<text data-id="205" x="1436.33" y="-712.05">R205</text>
<circle data-id="206" cx="494.79" cy="-1681.01" r="10.00px"/>
<text data-id="206" x="494.79" y="-1681.01">R206</text>
<circle data-id="207" cx="648.05" cy="-1638.35" r="10.00px"/>
<text data-id="207" x="648.05" y="-1638.35">R207</text>
<circle data-id="208" cx="1248.74" cy="-905.60" r="10.00px"/>
<text data-id="208" x="1248.74" y="-905.60">R208</text>
<circle data-id="209" cx="181.98" cy="-500.67" r="10.00px"/>
<text data-id="209" x="181.98" y="-500.67">R209</text>
<circle data-id="210" cx="383.47" cy="-1138.67" r="10.00px"/>
<text data-id="210" x="383.47" y="-1138.67">R210</text>
<circle data-id="211" cx="285.03" cy="-118.45" r="10.00px"/>
<text data-id="211" x="285.03" y="-118.45">R211</text>
<circle data-id="212" cx="726.00" cy="-153.48" r="10.00px"/>
<text data-id="212" x="726.00" y="-153.48">R212</text>
<circle data-id="213" cx="1404.31" cy="-1505.79" r="10.00px"/>
<text data-id="213" x="1404.31" y="-1505.79">R213</text>
<circle data-id="214" cx="1154.20" cy="-689.41" r="10.00px"/>
<text data-id="214" x="1154.20" y="-689.41">R214</text>
<circle data-id="215" cx="488.65" cy="-598.53" r="10.00px"/>
<text data-id="215" x="488.65" y="-598.53">R215</text>
<circle data-id="216" cx="781.10" cy="-1648.58" r="10.00px"/>
<text data-id="216" x="781.10" y="-1648.58">R216</text>
<circle data-id="217" cx="1225.55" cy="-852.77" r="10.00px"/>
<text data-id="217" x="1225.55" y="-852.77">R217</text>
<circle data-id="218" cx="43.43" cy="-1045.98" r="10.00px"/>
<text data-id="218" x="43.43" y="-1045.98">R218</text>
<circle data-id="219" cx="1421.58" cy="-1541.60" r="10.00px"/>
<text data-id="219" x="1421.58" y="-1541.60">R219</text>
<circle data-id="220" cx="436.66" cy="-601.78" r="10.00px"/>
<text data-id="220" x="436.66" y="-601.78">R220</text>
<circle data-id="221" cx="211.17" cy="-1499.34" r="10.00px"/>
<text data-id="221" x="211.17" y="-1499.34">R221</text>
<circle data-id="222" cx="331.73" cy="-572.22" r="10.00px"/>
<text data-id="222" x="331.73" y="-572.22">R222</text>
<circle data-id="223" cx="1541.46" cy="-1142.52" r="10.00px"/>
<text data-id="223" x="1541.46" y="-1142.52">R223</text>
<circle data-id="224" cx="998.01" cy="-195.00" r="10.00px"/>
<text data-id="224" x="998.01" y="-195.00">R224</text>
<circle data-id="225" cx="409.88" cy="-719.75" r="10.00px"/>
<text data-id="225" x="409.88" y="-719.75">R225</text>
<circle data-id="226" cx="1602.11" cy="-989.42" r="10.00px"/>
<text data-id="226" x="1602.11" y="-989.42">R226</text>
<circle data-id="227" cx="595.58" cy="-895.38" r="10.00px"/>
<text data-id="227" x="595.58" y="-895.38">R227</text>
<circle data-id="228" cx="1697.08" cy="-886.95" r="10.00px"/>
<text data-id="228" x="1697.08" y="-886.95">R228</text>
<circle data-id="229" cx="564.93" cy="-924.70" r="10.00px"/>
<text data-id="229" x="564.93" y="-924.70">R229</text>
<circle data-id="230" cx="1341.82" cy="-236.04" r="10.00px"/>
<text data-id="230" x="1341.82" y="-236.04">R230</text>
<circle data-id="231" cx="1319.47" cy="-1371.77" r="10.00px"/>
<text data-id="231" x="1319.47" y="-1371.77">R231</text>
<circle data-id="232" cx="164.77" cy="-775.74" r="10.00px"/>
<text data-id="232" x="164.77" y="-775.74">R232</text>
<circle data-id="233" cx="1249.74" cy="-804.81" r="10.00px"/>
<text data-id="233" x="1249.74" y="-804.81">R233</text>
<circle data-id="234" cx="600.51" cy="-992.59" r="10.00px"/>
<text data-id="234" x="600.51" y="-992.59">R234</text>
<circle data-id="235" cx="519.92" cy="-1680.74" r="10.00px"/>
<text data-id="235" x="519.92" y="-1680.74">R235</text>
<circle data-id="236" cx="1632.83" cy="-751.27" r="10.00px"/>
<text data-id="236" x="1632.83" y="-751.27">R236</text>
<circle data-id="237" cx="1368.56" cy="-709.78" r="10.00px"/>
<text data-id="237" x="1368.56" y="-709.78">R237</text>
<circle data-id="238" cx="960.91" cy="-286.76" r="10.00px"/>
<text data-id="238" x="960.91" y="-286.76">R238</text>
<circle data-id="239" cx="301.35" cy="-719.25" r="10.00px"/>
<text data-id="239" x="301.35" y="-719.25">R239</text>
<circle data-id="240" cx="1702.79" cy="-1435.23" r="10.00px"/>
<text data-id="240" x="1702.79" y="-1435.23">R240</text>
<circle data-id="241" cx="113.64" cy="-1101.84" r="10.00px"/>
<text data-id="241" x="113.64" y="-1101.84">R241</text>
<circle data-id="242" cx="1094.06" cy="-30.06" r="10.00px"/>
<text data-id="242" x="1094.06" y="-30.06">R242</text>
<circle data-id="243" cx="810.29" cy="-977.02" r="10.00px"/>
<text data-id="243" x="810.29" y="-977.02">R243</text>
<circle data-id="244" cx="364.75" cy="-838.09" r="10.00px"/>
<text data-id="244" x="364.75" y="-838.09">R244</text>
<circle data-id="245" cx="667.92" cy="-1433.55" r="10.00px"/>
<text data-id="245" x="667.92" y="-1433.55">R245</text>
<circle data-id="246" cx="1186.00" cy="-1587.75" r="10.00px"/>
<text data-id="246" x="1186.00" y="-1587.75">R246</text>
<circle data-id="247" cx="1161.67" cy="-662.90" r="10.00px"/>
<text data-id="247" x="1161.67" y="-662.90">R247</text>
<circle data-id="248" cx="520.87" cy="-224.96" r="10.00px"/>
<text data-id="248" x="520.87" y="-224.96">R248</text>
<circle data-id="249" cx="168.24" cy="-127.09" r="10.00px"/>
<text data-id="249" x="168.24" y="-127.09">R249</text>
<circle data-id="250" cx="1728.25" cy="-1364.43" r="10.00px"/>
<text data-id="250" x="1728.25" y="-1364.43">R250</text>
<circle data-id="251" cx="934.43" cy="-1547.90" r="10.00px"/>
<text data-id="251" x="934.43" y="-1547.90">R251</text>
<circle data-id="252" cx="1085.81" cy="-207.53" r="10.00px"/>
<text data-id="252" x="1085.81" y="-207.53">R252</text>
<circle data-id="253" cx="1540.02" cy="-1352.57" r="10.00px"/>
<text data-id="253" x="1540.02" y="-1352.57">R253</text>
<circle data-id="254" cx="428.33" cy="-192.80" r="10.00px"/>
<text data-id="254" x="428.33" y="-192.80">R254</text>
<circle data-id="255" cx="179.26" cy="-1101.48" r="10.00px"/>
<text data-id="255" x="179.26" y="-1101.48">R255</text>
<circle data-id="256" cx="412.90" cy="-1030.52" r="10.00px"/>
<text data-id="256" x="412.90" y="-1030.52">R256</text>
<circle data-id="257" cx="564.78" cy="-1727.59" r="10.00px"/>
<text data-id="257" x="564.78" y="-1727.59">R257</text>
<circle data-id="258" cx="1684.13" cy="-318.44" r="10.00px"/>
<text data-id="258" x="1684.13" y="-318.44">R258</text>
<circle data-id="259" cx="267.33" cy="-1089.41" r="10.00px"/>
<text data-id="259" x="267.33" y="-1089.41">R259</text>
<circle data-id="260" cx="1086.37" cy="-1559.21" r="10.00px"/>
<text data-id="260" x="1086.37" y="-1559.21">R260</text>
<circle data-id="261" cx="1701.21" cy="-445.05" r="10.00px"/>
<text data-id="261" x="1701.21" y="-445.05">R261</text>
<circle data-id="262" cx="1623.24" cy="-169.81" r="10.00px"/>
<text data-id="262" x="1623.24" y="-169.81">R262</text>
<circle data-id="263" cx="279.53" cy="-909.50" r="10.00px"/>
<text data-id="263" x="279.53" y="-909.50">R263</text>
<circle data-id="264" cx="833.04" cy="-1173.41" r="10.00px"/>
<text data-id="264" x="833.04" y="-1173.41">R264</text>
<circle data-id="265" cx="508.60" cy="-796.68" r="10.00px"/>
<text data-id="265" x="508.60" y="-796.68">R265</text>
<circle data-id="266" cx="414.55" cy="-786.45" r="10.00px"/>
<text data-id="266" x="414.55" y="-786.45">R266</text>
<circle data-id="267" cx="851.45" cy="-113.90" r="10.00px"/>
<text data-id="267" x="851.45" y="-113.90">R267</text>
<circle data-id="268" cx="1383.75" cy="-1239.52" r="10.00px"/>
<text data-id="268" x="1383.75" y="-1239.52">R268</text>
<circle data-id="269" cx="259.05" cy="-797.80" r="10.00px"/>
<text data-id="269" x="259.05" y="-797.80">R269</text>
<circle data-id="270" cx="974.53" cy="-1150.01" r="10.00px"/>
<text data-id="270" x="974.53" y="-1150.01">R270</text>
<circle data-id="271" cx="68.41" cy="-176.35" r="10.00px"/>
<text data-id="271" x="68.41" y="-176.35">R271</text>
<circle data-id="272" cx="315.71" cy="-894.59" r="10.00px"/>
<text data-id="272" x="315.71" y="-894.59">R272</text>
<circle data-id="273" cx="335.63" cy="-98.72" r="10.00px"/>
<text data-id="273" x="335.63" y="-98.72">R273</text>
<circle data-id="274" cx="140.72" cy="-1075.28" r="10.00px"/>
<text data-id="274" x="140.72" y="-1075.28">R274</text>
<circle data-id="275" cx="1386.58" cy="-252.31" r="10.00px"/>
<text data-id="275" x="1386.58" y="-252.31">R275</text>
<circle data-id="276" cx="129.89" cy="-1140.74" r="10.00px"/>
<text data-id="276" x="129.89" y="-1140.74">R276</text>
<circle data-id="277" cx="1220.97" cy="-1082.74" r="10.00px"/>
<text data-id="277" x="1220.97" y="-1082.74">R277</text>
<circle data-id="278" cx="180.93" cy="-1503.81" r="10.00px"/>
<text data-id="278" x="180.93" y="-1503.81">R278</text>
<circle data-id="279" cx="498.00" cy="-971.64" r="10.00px"/>
<text data-id="279" x="498.00" y="-971.64">R279</text>
<circle data-id="280" cx="1597.42" cy="-212.06" r="10.00px"/>
<text data-id="280" x="1597.42" y="-212.06">R280</text>
<circle data-id="281" cx="751.47" cy="-1178.86" r="10.00px"/>
<text data-id="281" x="751.47" y="-1178.86">R281</text>
<circle data-id="282" cx="1611.04" cy="-416.38" r="10.00px"/>
<text data-id="282" x="1611.04" y="-416.38">R282</text>
<circle data-id="283" cx="9.53" cy="-1373.18" r="10.00px"/>
<text data-id="283" x="9.53" y="-1373.18">R283</text>
<circle data-id="284" cx="1578.03" cy="-1628.03" r="10.00px"/>
<text data-id="284" x="1578.03" y="-1628.03">R284</text>
<circle data-id="285" cx="324.94" cy="-397.14" r="10.00px"/>
<text data-id="285" x="324.94" y="-397.14">R285</text>
<circle data-id="286" cx="1256.49" cy="-42.22" r="10.00px"/>
<text data-id="286" x="1256.49" y="-42.22">R286</text>
<circle data-id="287" cx="1505.74" cy="-678.54" r="10.00px"/>
<text data-id="287" x="1505.74" y="-678.54">R287</text>
<circle data-id="288" cx="1572.89" cy="-10.33" r="10.00px"/>
<text data-id="288" x="1572.89" y="-10.33">R288</text>
<circle data-id="289" cx="706.37" cy="-89.83" r="10.00px"/>
<text data-id="289" x="706.37" y="-89.83">R289</text>
<circle data-id="290" cx="501.44" cy="-1324.65" r="10.00px"/>
<text data-id="290" x="501.44" y="-1324.65">R290</text>
<circle data-id="291" cx="1443.37" cy="-1006.33" r="10.00px"/>
<text data-id="291" x="1443.37" y="-1006.33">R291</text>
<circle data-id="292" cx="1652.89" cy="-1394.20" r="10.00px"/>
<text data-id="292" x="1652.89" y="-1394.20">R292</text>
<circle data-id="293" cx="1355.86" cy="-478.20" r="10.00px"/>
<text data-id="293" x="1355.86" y="-478.20">R293</text>
<circle data-id="294" cx="303.97" cy="-1355.90" r="10.00px"/>
<text data-id="294" x="303.97" y="-1355.90">R294</text>
<circle data-id="295" cx="1160.17" cy="-377.29" r="10.00px"/>
<text data-id="295" x="1160.17" y="-377.29">R295</text>
<circle data-id="296" cx="667.19" cy="-1495.93" r="10.00px"/>
<text data-id="296" x="667.19" y="-1495.93">R296</text>
<circle data-id="297" cx="1550.70" cy="-621.49" r="10.00px"/>
<text data-id="297" x="1550.70" y="-621.49">R297</text>
<circle data-id="298" cx="1671.29" cy="-935.38" r="10.00px"/>
<text data-id="298" x="1671.29" y="-935.38">R298</text>
<circle data-id="299" cx="140.89" cy="-498.45" r="10.00px"/>
<text data-id="299" x="140.89" y="-498.45">R299</text>
</svg>
