<svg id="topo" viewBox="-69.79 -1815.37 1886.27 1901.72" xmlns="http://www.w3.org/2000/svg">
<style>#topo path {fill: none; stroke: grey; stroke-width: 5.0000px;} #topo circle {fill: lightblue; stroke: none; stroke-width: 0.3px; vector-effect: non-scaling-stroke; r: 10.0000px;} #topo text {fill: black; stroke: none; font-size: 15.0000px; font-family: sans-serif; text-anchor:middle; transform: translateY(0.3em);} #topo path.country {fill: lightgrey; stroke: black; stroke-width: 1px; vector-effect: non-scaling-stroke; visibility: visible;} #topo path.selection {fill: none; stroke: red; stroke-width: 1px; vector-effect: non-scaling-stroke; visibility: visible;} #topo path.utilization {visibility: hidden;}</style>
<path data-id="0-1" d="M1351.14,-1302.23,1331.81,-1266.02"/>
<path data-id="0-8" d="M1351.14,-1302.23,1271.11,-1301.09"/>
<path data-id="0-132" d="M1351.14,-1302.23,1468.01,-1314.85"/>
<path data-id="0-147" d="M1351.14,-1302.23,1386.22,-1436.58"/>
<path data-id="0-197" d="M1351.14,-1302.23,1445.17,-1369.38"/>
<path data-id="0-216" d="M1351.14,-1302.23,1453.68,-1255.20"/>
<path data-id="0-261" d="M1351.14,-1302.23,1281.13,-1424.24"/>
<path data-id="1-8" d="M1331.81,-1266.02,1271.11,-1301.09"/>
<path data-id="1-162" d="M1331.81,-1266.02,1332.16,-1209.85"/>
<path data-id="2-125" d="M190.32,-869.72,180.19,-1003.84"/>
<path data-id="2-142" d="M190.32,-869.72,278.09,-917.17"/>
<path data-id="2-199" d="M190.32,-869.72,158.11,-870.65"/>
<path data-id="2-272" d="M190.32,-869.72,273.69,-846.57"/>
<path data-id="2-297" d="M190.32,-869.72,195.38,-823.37"/>
<path data-id="3-30" d="M1665.45,-414.31,1579.27,-371.40"/>
<path data-id="3-138" d="M1665.45,-414.31,1601.77,-455.27"/>
<path data-id="3-246" d="M1665.45,-414.31,1729.81,-419.65"/>
<path data-id="3-257" d="M1665.45,-414.31,1655.34,-323.00"/>
<path data-id="3-268" d="M1665.45,-414.31,1686.00,-541.07"/>
<path data-id="4-18" d="M399.23,-670.20,436.85,-623.54"/>
<path data-id="4-66" d="M399.23,-670.20,366.60,-734.68"/>
<path data-id="4-252" d="M399.23,-670.20,345.10,-700.19"/>
<path data-id="5-54" d="M536.91,-131.29,636.27,-87.81"/>
<path data-id="5-78" d="M536.91,-131.29,400.83,-46.93"/>
<path data-id="5-82" d="M536.91,-131.29,619.29,-249.25"/>
<path data-id="5-212" d="M536.91,-131.29,439.87,-219.80"/>
<path data-id="5-280" d="M536.91,-131.29,538.44,-260.28"/>
<path data-id="5-291" d="M536.91,-131.29,546.78,-13.97"/>
<path data-id="6-111" d="M831.39,-147.19,881.02,-226.86"/>
<path data-id="6-175" d="M831.39,-147.19,895.88,-116.45"/>
<path data-id="6-247" d="M831.39,-147.19,791.08,-146.72"/>
<path data-id="7-88" d="M525.12,-1370.33,555.68,-1331.57"/>
<path data-id="7-124" d="M525.12,-1370.33,478.75,-1406.75"/>
<path data-id="7-249" d="M525.12,-1370.33,541.21,-1464.79"/>
<path data-id="8-44" d="M1271.11,-1301.09,1109.78,-1218.23"/>
<path data-id="8-188" d="M1271.11,-1301.09,1221.84,-1371.94"/>
<path data-id="9-18" d="M470.76,-650.50,436.85,-623.54"/>
<path data-id="9-96" d="M470.76,-650.50,536.83,-615.72"/>
<path data-id="9-161" d="M470.76,-650.50,559.58,-683.30"/>
<path data-id="9-189" d="M470.76,-650.50,463.84,-827.17"/>
<path data-id="10-22" d="M407.38,-452.43,224.28,-444.18"/>
<path data-id="10-42" d="M407.38,-452.43,265.55,-311.82"/>
<path data-id="10-48" d="M407.38,-452.43,509.62,-484.94"/>
<path data-id="10-160" d="M407.38,-452.43,232.23,-571.66"/>
<path data-id="10-248" d="M407.38,-452.43,416.26,-267.09"/>
<path data-id="10-285" d="M407.38,-452.43,461.45,-554.15"/>
<path data-id="11-62" d="M802.31,-783.39,840.65,-704.89"/>
<path data-id="11-63" d="M802.31,-783.39,782.68,-820.09"/>
<path data-id="11-84" d="M802.31,-783.39,963.45,-783.49"/>
<path data-id="12-38" d="M1729.65,-1123.58,1638.88,-1307.70"/>
<path data-id="12-93" d="M1729.65,-1123.58,1563.04,-1139.80"/>
<path data-id="12-192" d="M1729.65,-1123.58,1691.89,-1039.45"/>
<path data-id="13-19" d="M18.29,-1442.41,60.74,-1473.12"/>
<path data-id="13-290" d="M18.29,-1442.41,145.89,-1299.08"/>
<path data-id="14-50" d="M1618.20,-578.67,1612.81,-551.86"/>
<path data-id="14-113" d="M1618.20,-578.67,1524.36,-695.04"/>
<path data-id="14-181" d="M1618.20,-578.67,1669.67,-584.14"/>
<path data-id="14-270" d="M1618.20,-578.67,1498.03,-593.63"/>
<path data-id="15-22" d="M205.89,-364.33,224.28,-444.18"/>
<path data-id="15-42" d="M205.89,-364.33,265.55,-311.82"/>
<path data-id="15-183" d="M205.89,-364.33,88.47,-268.98"/>
<path data-id="15-235" d="M205.89,-364.33,142.49,-418.03"/>
<path data-id="16-120" d="M1487.50,-186.73,1418.23,-183.01"/>
<path data-id="16-172" d="M1487.50,-186.73,1616.82,-270.93"/>
<path data-id="16-241" d="M1487.50,-186.73,1476.15,-149.28"/>
<path data-id="16-276" d="M1487.50,-186.73,1473.65,-358.02"/>
<path data-id="17-69" d="M74.00,-353.08,19.27,-436.76"/>
<path data-id="17-183" d="M74.00,-353.08,88.47,-268.98"/>
<path data-id="17-235" d="M74.00,-353.08,142.49,-418.03"/>
<path data-id="18-285" d="M436.85,-623.54,461.45,-554.15"/>
<path data-id="19-71" d="M60.74,-1473.12,47.51,-1536.37"/>
<path data-id="19-105" d="M60.74,-1473.12,136.37,-1485.65"/>
<path data-id="19-290" d="M60.74,-1473.12,145.89,-1299.08"/>
<path data-id="20-126" d="M924.45,-320.98,943.52,-370.38"/>
<path data-id="20-215" d="M924.45,-320.98,857.61,-317.26"/>
<path data-id="20-218" d="M924.45,-320.98,955.47,-283.97"/>
<path data-id="20-267" d="M924.45,-320.98,895.32,-284.11"/>
<path data-id="21-72" d="M495.60,-934.93,289.70,-959.92"/>
<path data-id="21-149" d="M495.60,-934.93,556.04,-849.10"/>
<path data-id="21-189" d="M495.60,-934.93,463.84,-827.17"/>
<path data-id="21-194" d="M495.60,-934.93,505.45,-1021.92"/>
<path data-id="22-160" d="M224.28,-444.18,232.23,-571.66"/>
<path data-id="22-235" d="M224.28,-444.18,142.49,-418.03"/>
<path data-id="23-29" d="M314.69,-170.51,356.40,-65.68"/>
<path data-id="23-137" d="M314.69,-170.51,303.97,-193.43"/>
<path data-id="23-221" d="M314.69,-170.51,206.49,-74.27"/>
<path data-id="23-295" d="M314.69,-170.51,380.91,-156.91"/>
<path data-id="24-103" d="M147.65,-1155.59,190.21,-1235.39"/>
<path data-id="24-125" d="M147.65,-1155.59,180.19,-1003.84"/>
<path data-id="24-157" d="M147.65,-1155.59,89.12,-1209.16"/>
<path data-id="24-298" d="M147.65,-1155.59,269.64,-1026.14"/>
<path data-id="25-198" d="M1547.63,-920.88,1550.47,-990.26"/>
<path data-id="25-205" d="M1547.63,-920.88,1504.49,-900.44"/>
<path data-id="25-282" d="M1547.63,-920.88,1593.08,-923.36"/>
<path data-id="25-293" d="M1547.63,-920.88,1548.07,-848.14"/>
<path data-id="26-90" d="M1684.21,-81.80,1626.74,-92.48"/>
<path data-id="26-180" d="M1684.21,-81.80,1643.58,-52.30"/>
<path data-id="26-220" d="M1684.21,-81.80,1730.75,-3.95"/>
<path data-id="26-289" d="M1684.21,-81.80,1713.54,-191.25"/>
<path data-id="27-160" d="M115.94,-526.42,232.23,-571.66"/>
<path data-id="27-209" d="M115.94,-526.42,28.97,-551.78"/>
<path data-id="27-228" d="M115.94,-526.42,142.12,-621.37"/>
<path data-id="27-283" d="M115.94,-526.42,115.58,-501.22"/>
<path data-id="28-98" d="M1213.36,-173.57,1189.42,-192.36"/>
<path data-id="28-119" d="M1213.36,-173.57,1196.29,-121.02"/>
<path data-id="28-279" d="M1213.36,-173.57,1252.36,-242.16"/>
<path data-id="29-61" d="M356.40,-65.68,295.59,-33.33"/>
<path data-id="29-78" d="M356.40,-65.68,400.83,-46.93"/>
<path data-id="29-295" d="M356.40,-65.68,380.91,-156.91"/>
<path data-id="30-58" d="M1579.27,-371.40,1501.30,-440.56"/>
<path data-id="30-138" d="M1579.27,-371.40,1601.77,-455.27"/>
<path data-id="30-156" d="M1579.27,-371.40,1600.40,-315.72"/>
<path data-id="30-276" d="M1579.27,-371.40,1473.65,-358.02"/>
<path data-id="31-41" d="M1037.33,-1004.31,955.91,-1081.80"/>
<path data-id="31-51" d="M1037.33,-1004.31,932.62,-904.78"/>
<path data-id="31-65" d="M1037.33,-1004.31,1135.25,-955.37"/>
<path data-id="31-87" d="M1037.33,-1004.31,1034.38,-1148.11"/>
<path data-id="31-128" d="M1037.33,-1004.31,910.45,-1004.18"/>
<path data-id="31-288" d="M1037.33,-1004.31,1007.17,-863.68"/>
<path data-id="32-67" d="M989.46,-1409.50,999.94,-1473.64"/>
<path data-id="32-76" d="M989.46,-1409.50,820.55,-1438.49"/>
<path data-id="32-114" d="M989.46,-1409.50,837.59,-1481.41"/>
<path data-id="32-196" d="M989.46,-1409.50,1018.25,-1402.23"/>
<path data-id="32-259" d="M989.46,-1409.50,827.05,-1365.65"/>
<path data-id="33-102" d="M584.45,-860.43,670.27,-788.26"/>
<path data-id="33-115" d="M584.45,-860.43,672.55,-877.72"/>
<path data-id="33-149" d="M584.45,-860.43,556.04,-849.10"/>
<path data-id="34-70" d="M1381.62,-509.55,1430.95,-499.77"/>
<path data-id="34-116" d="M1381.62,-509.55,1311.69,-341.18"/>
<path data-id="34-195" d="M1381.62,-509.55,1375.83,-584.48"/>
<path data-id="34-224" d="M1381.62,-509.55,1249.04,-511.45"/>
<path data-id="35-46" d="M619.68,-602.71,541.13,-507.65"/>
<path data-id="35-96" d="M619.68,-602.71,536.83,-615.72"/>
<path data-id="35-240" d="M619.68,-602.71,589.13,-670.88"/>
<path data-id="35-262" d="M619.68,-602.71,671.70,-592.15"/>
<path data-id="36-135" d="M1403.96,-1515.22,1490.48,-1499.52"/>
<path data-id="36-147" d="M1403.96,-1515.22,1386.22,-1436.58"/>
<path data-id="36-173" d="M1403.96,-1515.22,1280.37,-1504.13"/>
<path data-id="36-226" d="M1403.96,-1515.22,1424.84,-1547.14"/>
<path data-id="37-68" d="M923.13,-35.46,691.34,-16.73"/>
<path data-id="37-175" d="M923.13,-35.46,895.88,-116.45"/>
<path data-id="37-284" d="M923.13,-35.46,958.90,-3.58"/>
<path data-id="38-108" d="M1638.88,-1307.70,1661.98,-1333.05"/>
<path data-id="38-146" d="M1638.88,-1307.70,1568.07,-1344.43"/>
<path data-id="38-225" d="M1638.88,-1307.70,1546.76,-1226.34"/>
<path data-id="39-63" d="M809.57,-849.46,782.68,-820.09"/>
<path data-id="39-84" d="M809.57,-849.46,963.45,-783.49"/>
<path data-id="39-163" d="M809.57,-849.46,752.94,-905.44"/>
<path data-id="39-201" d="M809.57,-849.46,823.18,-913.36"/>
<path data-id="39-278" d="M809.57,-849.46,742.51,-858.54"/>
<path data-id="40-66" d="M300.77,-810.74,366.60,-734.68"/>
<path data-id="40-106" d="M300.77,-810.74,278.37,-718.96"/>
<path data-id="40-189" d="M300.77,-810.74,463.84,-827.17"/>
<path data-id="40-272" d="M300.77,-810.74,273.69,-846.57"/>
<path data-id="41-87" d="M955.91,-1081.80,1034.38,-1148.11"/>
<path data-id="41-122" d="M955.91,-1081.80,891.48,-1051.48"/>
<path data-id="42-210" d="M265.55,-311.82,299.97,-227.61"/>
<path data-id="43-77" d="M91.85,-1705.14,53.63,-1676.77"/>
<path data-id="43-269" d="M91.85,-1705.14,131.08,-1693.57"/>
<path data-id="44-87" d="M1109.78,-1218.23,1034.38,-1148.11"/>
<path data-id="44-97" d="M1109.78,-1218.23,1029.30,-1213.84"/>
<path data-id="44-179" d="M1109.78,-1218.23,1087.69,-1252.37"/>
<path data-id="44-244" d="M1109.78,-1218.23,1247.08,-1153.40"/>
<path data-id="45-65" d="M1163.61,-958.71,1135.25,-955.37"/>
<path data-id="45-213" d="M1163.61,-958.71,1226.69,-929.45"/>
<path data-id="45-250" d="M1163.61,-958.71,1190.55,-981.43"/>
<path data-id="46-48" d="M541.13,-507.65,509.62,-484.94"/>
<path data-id="46-96" d="M541.13,-507.65,536.83,-615.72"/>
<path data-id="46-168" d="M541.13,-507.65,620.01,-365.12"/>
<path data-id="46-285" d="M541.13,-507.65,461.45,-554.15"/>
<path data-id="47-79" d="M714.23,-1137.14,668.26,-1212.01"/>
<path data-id="47-134" d="M714.23,-1137.14,819.45,-1138.81"/>
<path data-id="47-154" d="M714.23,-1137.14,644.89,-1109.55"/>
<path data-id="48-168" d="M509.62,-484.94,620.01,-365.12"/>
<path data-id="48-285" d="M509.62,-484.94,461.45,-554.15"/>
<path data-id="49-227" d="M408.99,-1705.79,552.58,-1690.39"/>
<path data-id="49-233" d="M408.99,-1705.79,403.28,-1671.76"/>
<path data-id="50-133" d="M1612.81,-551.86,1502.83,-554.73"/>
<path data-id="50-174" d="M1612.81,-551.86,1579.40,-481.17"/>
<path data-id="50-268" d="M1612.81,-551.86,1686.00,-541.07"/>
<path data-id="51-128" d="M932.62,-904.78,910.45,-1004.18"/>
<path data-id="51-151" d="M932.62,-904.78,987.89,-839.15"/>
<path data-id="51-201" d="M932.62,-904.78,823.18,-913.36"/>
<path data-id="51-288" d="M932.62,-904.78,1007.17,-863.68"/>
<path data-id="52-57" d="M1460.99,-655.32,1431.74,-687.93"/>
<path data-id="52-113" d="M1460.99,-655.32,1524.36,-695.04"/>
<path data-id="52-195" d="M1460.99,-655.32,1375.83,-584.48"/>
<path data-id="52-260" d="M1460.99,-655.32,1465.17,-581.50"/>
<path data-id="52-270" d="M1460.99,-655.32,1498.03,-593.63"/>
<path data-id="53-143" d="M411.65,-1125.37,370.47,-1140.19"/>
<path data-id="53-230" d="M411.65,-1125.37,482.16,-1119.08"/>
<path data-id="53-256" d="M411.65,-1125.37,459.38,-1214.72"/>
<path data-id="53-273" d="M411.65,-1125.37,472.05,-1086.38"/>
<path data-id="54-68" d="M636.27,-87.81,691.34,-16.73"/>
<path data-id="54-82" d="M636.27,-87.81,619.29,-249.25"/>
<path data-id="54-247" d="M636.27,-87.81,791.08,-146.72"/>
<path data-id="54-291" d="M636.27,-87.81,546.78,-13.97"/>
<path data-id="55-57" d="M1256.09,-652.90,1431.74,-687.93"/>
<path data-id="55-92" d="M1256.09,-652.90,1215.78,-718.52"/>
<path data-id="55-195" d="M1256.09,-652.90,1375.83,-584.48"/>
<path data-id="55-224" d="M1256.09,-652.90,1249.04,-511.45"/>
<path data-id="55-253" d="M1256.09,-652.90,1161.84,-532.34"/>
<path data-id="55-263" d="M1256.09,-652.90,1388.71,-752.15"/>
<path data-id="55-292" d="M1256.09,-652.90,1121.41,-595.74"/>
<path data-id="56-62" d="M933.27,-637.65,840.65,-704.89"/>
<path data-id="56-129" d="M933.27,-637.65,1036.96,-567.63"/>
<path data-id="56-140" d="M933.27,-637.65,981.76,-671.84"/>
<path data-id="56-203" d="M933.27,-637.65,892.65,-563.35"/>
<path data-id="57-195" d="M1431.74,-687.93,1375.83,-584.48"/>
<path data-id="57-263" d="M1431.74,-687.93,1388.71,-752.15"/>
<path data-id="58-70" d="M1501.30,-440.56,1430.95,-499.77"/>
<path data-id="58-133" d="M1501.30,-440.56,1502.83,-554.73"/>
<path data-id="58-174" d="M1501.30,-440.56,1579.40,-481.17"/>
<path data-id="58-276" d="M1501.30,-440.56,1473.65,-358.02"/>
<path data-id="59-100" d="M705.25,-1633.51,708.41,-1528.12"/>
<path data-id="59-144" d="M705.25,-1633.51,910.12,-1562.56"/>
<path data-id="59-206" d="M705.25,-1633.51,594.25,-1718.73"/>
<path data-id="59-231" d="M705.25,-1633.51,922.61,-1612.45"/>
<path data-id="60-178" d="M51.95,-672.05,68.05,-755.65"/>
<path data-id="60-193" d="M51.95,-672.05,102.46,-644.17"/>
<path data-id="60-209" d="M51.95,-672.05,28.97,-551.78"/>
<path data-id="61-221" d="M295.59,-33.33,206.49,-74.27"/>
<path data-id="61-243" d="M295.59,-33.33,196.86,-0.09"/>
<path data-id="62-84" d="M840.65,-704.89,963.45,-783.49"/>
<path data-id="62-127" d="M840.65,-704.89,803.25,-572.43"/>
<path data-id="63-278" d="M782.68,-820.09,742.51,-858.54"/>
<path data-id="64-126" d="M1017.46,-528.98,943.52,-370.38"/>
<path data-id="64-129" d="M1017.46,-528.98,1036.96,-567.63"/>
<path data-id="64-170" d="M1017.46,-528.98,1098.78,-509.22"/>
<path data-id="64-203" d="M1017.46,-528.98,892.65,-563.35"/>
<path data-id="65-288" d="M1135.25,-955.37,1007.17,-863.68"/>
<path data-id="66-189" d="M366.60,-734.68,463.84,-827.17"/>
<path data-id="66-252" d="M366.60,-734.68,345.10,-700.19"/>
<path data-id="67-114" d="M999.94,-1473.64,837.59,-1481.41"/>
<path data-id="67-139" d="M999.94,-1473.64,1088.68,-1455.93"/>
<path data-id="67-144" d="M999.94,-1473.64,910.12,-1562.56"/>
<path data-id="67-281" d="M999.94,-1473.64,1039.98,-1573.25"/>
<path data-id="68-247" d="M691.34,-16.73,791.08,-146.72"/>
<path data-id="68-291" d="M691.34,-16.73,546.78,-13.97"/>
<path data-id="69-83" d="M19.27,-436.76,61.03,-491.15"/>
<path data-id="69-185" d="M19.27,-436.76,20.86,-503.13"/>
<path data-id="69-235" d="M19.27,-436.76,142.49,-418.03"/>
<path data-id="70-133" d="M1430.95,-499.77,1502.83,-554.73"/>
<path data-id="70-260" d="M1430.95,-499.77,1465.17,-581.50"/>
<path data-id="71-217" d="M47.51,-1536.37,59.73,-1597.86"/>
<path data-id="72-142" d="M289.70,-959.92,278.09,-917.17"/>
<path data-id="72-194" d="M289.70,-959.92,505.45,-1021.92"/>
<path data-id="72-298" d="M289.70,-959.92,269.64,-1026.14"/>
<path data-id="73-92" d="M1248.50,-824.85,1215.78,-718.52"/>
<path data-id="73-234" d="M1248.50,-824.85,1268.47,-847.18"/>
<path data-id="74-166" d="M1217.18,-1652.67,1359.11,-1617.53"/>
<path data-id="74-173" d="M1217.18,-1652.67,1280.37,-1504.13"/>
<path data-id="74-255" d="M1217.18,-1652.67,1161.64,-1610.68"/>
<path data-id="74-265" d="M1217.18,-1652.67,1090.38,-1728.93"/>
<path data-id="75-134" d="M819.21,-1176.97,819.45,-1138.81"/>
<path data-id="75-211" d="M819.21,-1176.97,694.73,-1319.92"/>
<path data-id="75-259" d="M819.21,-1176.97,827.05,-1365.65"/>
<path data-id="75-286" d="M819.21,-1176.97,1002.08,-1246.36"/>
<path data-id="76-100" d="M820.55,-1438.49,708.41,-1528.12"/>
<path data-id="76-114" d="M820.55,-1438.49,837.59,-1481.41"/>
<path data-id="76-259" d="M820.55,-1438.49,827.05,-1365.65"/>
<path data-id="77-217" d="M53.63,-1676.77,59.73,-1597.86"/>
<path data-id="78-291" d="M400.83,-46.93,546.78,-13.97"/>
<path data-id="79-110" d="M668.26,-1212.01,633.86,-1281.24"/>
<path data-id="79-154" d="M668.26,-1212.01,644.89,-1109.55"/>
<path data-id="79-223" d="M668.26,-1212.01,583.40,-1147.96"/>
<path data-id="80-124" d="M419.73,-1501.38,478.75,-1406.75"/>
<path data-id="80-182" d="M419.73,-1501.38,491.58,-1553.46"/>
<path data-id="80-249" d="M419.73,-1501.38,541.21,-1464.79"/>
<path data-id="80-271" d="M419.73,-1501.38,375.09,-1569.77"/>
<path data-id="81-88" d="M497.30,-1251.02,555.68,-1331.57"/>
<path data-id="81-223" d="M497.30,-1251.02,583.40,-1147.96"/>
<path data-id="81-256" d="M497.30,-1251.02,459.38,-1214.72"/>
<path data-id="82-131" d="M619.29,-249.25,701.64,-267.24"/>
<path data-id="82-238" d="M619.29,-249.25,595.45,-294.46"/>
<path data-id="82-280" d="M619.29,-249.25,538.44,-260.28"/>
<path data-id="83-185" d="M61.03,-491.15,20.86,-503.13"/>
<path data-id="83-283" d="M61.03,-491.15,115.58,-501.22"/>
<path data-id="84-94" d="M963.45,-783.49,1018.42,-809.64"/>
<path data-id="84-140" d="M963.45,-783.49,981.76,-671.84"/>
<path data-id="84-151" d="M963.45,-783.49,987.89,-839.15"/>
<path data-id="85-94" d="M1051.16,-754.26,1018.42,-809.64"/>
<path data-id="85-140" d="M1051.16,-754.26,981.76,-671.84"/>
<path data-id="85-200" d="M1051.16,-754.26,1119.80,-725.87"/>
<path data-id="86-116" d="M1252.52,-286.07,1311.69,-341.18"/>
<path data-id="86-165" d="M1252.52,-286.07,1244.23,-349.32"/>
<path data-id="86-219" d="M1252.52,-286.07,1148.95,-299.96"/>
<path data-id="86-279" d="M1252.52,-286.07,1252.36,-242.16"/>
<path data-id="87-97" d="M1034.38,-1148.11,1029.30,-1213.84"/>
<path data-id="87-104" d="M1034.38,-1148.11,1205.91,-1042.50"/>
<path data-id="87-158" d="M1034.38,-1148.11,1172.82,-1008.73"/>
<path data-id="88-110" d="M555.68,-1331.57,633.86,-1281.24"/>
<path data-id="89-159" d="M15.95,-224.92,94.29,-169.49"/>
<path data-id="89-183" d="M15.95,-224.92,88.47,-268.98"/>
<path data-id="89-254" d="M15.95,-224.92,30.22,-130.26"/>
<path data-id="90-172" d="M1626.74,-92.48,1616.82,-270.93"/>
<path data-id="90-180" d="M1626.74,-92.48,1643.58,-52.30"/>
<path data-id="90-241" d="M1626.74,-92.48,1476.15,-149.28"/>
<path data-id="91-152" d="M1070.44,-26.33,1102.89,-72.66"/>
<path data-id="91-208" d="M1070.44,-26.33,1053.32,-75.92"/>
<path data-id="91-284" d="M1070.44,-26.33,958.90,-3.58"/>
<path data-id="92-200" d="M1215.78,-718.52,1119.80,-725.87"/>
<path data-id="92-263" d="M1215.78,-718.52,1388.71,-752.15"/>
<path data-id="92-292" d="M1215.78,-718.52,1121.41,-595.74"/>
<path data-id="93-112" d="M1563.04,-1139.80,1620.39,-1031.17"/>
<path data-id="93-187" d="M1563.04,-1139.80,1473.38,-1201.64"/>
<path data-id="93-225" d="M1563.04,-1139.80,1546.76,-1226.34"/>
<path data-id="93-245" d="M1563.04,-1139.80,1460.28,-1072.66"/>
<path data-id="94-151" d="M1018.42,-809.64,987.89,-839.15"/>
<path data-id="95-154" d="M667.16,-1047.57,644.89,-1109.55"/>
<path data-id="95-266" d="M667.16,-1047.57,701.68,-1015.21"/>
<path data-id="96-161" d="M536.83,-615.72,559.58,-683.30"/>
<path data-id="96-240" d="M536.83,-615.72,589.13,-670.88"/>
<path data-id="96-285" d="M536.83,-615.72,461.45,-554.15"/>
<path data-id="97-179" d="M1029.30,-1213.84,1087.69,-1252.37"/>
<path data-id="97-286" d="M1029.30,-1213.84,1002.08,-1246.36"/>
<path data-id="98-219" d="M1189.42,-192.36,1148.95,-299.96"/>
<path data-id="98-279" d="M1189.42,-192.36,1252.36,-242.16"/>
<path data-id="99-232" d="M108.76,-51.22,112.99,-84.19"/>
<path data-id="99-243" d="M108.76,-51.22,196.86,-0.09"/>
<path data-id="100-114" d="M708.41,-1528.12,837.59,-1481.41"/>
<path data-id="100-211" d="M708.41,-1528.12,694.73,-1319.92"/>
<path data-id="100-249" d="M708.41,-1528.12,541.21,-1464.79"/>
<path data-id="101-108" d="M1665.17,-1420.64,1661.98,-1333.05"/>
<path data-id="101-146" d="M1665.17,-1420.64,1568.07,-1344.43"/>
<path data-id="101-294" d="M1665.17,-1420.64,1566.61,-1452.71"/>
<path data-id="102-115" d="M670.27,-788.26,672.55,-877.72"/>
<path data-id="102-240" d="M670.27,-788.26,589.13,-670.88"/>
<path data-id="102-278" d="M670.27,-788.26,742.51,-858.54"/>
<path data-id="103-143" d="M190.21,-1235.39,370.47,-1140.19"/>
<path data-id="103-157" d="M190.21,-1235.39,89.12,-1209.16"/>
<path data-id="103-222" d="M190.21,-1235.39,404.64,-1258.72"/>
<path data-id="103-290" d="M190.21,-1235.39,145.89,-1299.08"/>
<path data-id="104-107" d="M1205.91,-1042.50,1301.62,-992.04"/>
<path data-id="104-158" d="M1205.91,-1042.50,1172.82,-1008.73"/>
<path data-id="104-244" d="M1205.91,-1042.50,1247.08,-1153.40"/>
<path data-id="104-258" d="M1205.91,-1042.50,1296.83,-1112.69"/>
<path data-id="105-236" d="M136.37,-1485.65,212.17,-1572.49"/>
<path data-id="105-290" d="M136.37,-1485.65,145.89,-1299.08"/>
<path data-id="106-214" d="M278.37,-718.96,245.32,-699.29"/>
<path data-id="106-252" d="M278.37,-718.96,345.10,-700.19"/>
<path data-id="106-297" d="M278.37,-718.96,195.38,-823.37"/>
<path data-id="107-150" d="M1301.62,-992.04,1296.44,-954.49"/>
<path data-id="107-250" d="M1301.62,-992.04,1190.55,-981.43"/>
<path data-id="107-258" d="M1301.62,-992.04,1296.83,-1112.69"/>
<path data-id="109-116" d="M1362.95,-198.31,1311.69,-341.18"/>
<path data-id="109-120" d="M1362.95,-198.31,1418.23,-183.01"/>
<path data-id="109-279" d="M1362.95,-198.31,1252.36,-242.16"/>
<path data-id="110-211" d="M633.86,-1281.24,694.73,-1319.92"/>
<path data-id="111-131" d="M881.02,-226.86,701.64,-267.24"/>
<path data-id="111-175" d="M881.02,-226.86,895.88,-116.45"/>
<path data-id="111-267" d="M881.02,-226.86,895.32,-284.11"/>
<path data-id="112-141" d="M1620.39,-1031.17,1658.20,-1036.31"/>
<path data-id="112-198" d="M1620.39,-1031.17,1550.47,-990.26"/>
<path data-id="112-202" d="M1620.39,-1031.17,1626.02,-984.04"/>
<path data-id="113-167" d="M1524.36,-695.04,1670.38,-793.70"/>
<path data-id="113-204" d="M1524.36,-695.04,1578.73,-835.62"/>
<path data-id="114-144" d="M837.59,-1481.41,910.12,-1562.56"/>
<path data-id="115-163" d="M672.55,-877.72,752.94,-905.44"/>
<path data-id="115-266" d="M672.55,-877.72,701.68,-1015.21"/>
<path data-id="115-278" d="M672.55,-877.72,742.51,-858.54"/>
<path data-id="116-165" d="M1311.69,-341.18,1244.23,-349.32"/>
<path data-id="116-276" d="M1311.69,-341.18,1473.65,-358.02"/>
<path data-id="117-136" d="M1567.60,-1689.71,1439.54,-1641.72"/>
<path data-id="117-190" d="M1567.60,-1689.71,1591.68,-1623.43"/>
<path data-id="118-119" d="M1129.86,-56.05,1196.29,-121.02"/>
<path data-id="118-152" d="M1129.86,-56.05,1102.89,-72.66"/>
<path data-id="118-299" d="M1129.86,-56.05,1220.87,-78.87"/>
<path data-id="119-299" d="M1196.29,-121.02,1220.87,-78.87"/>
<path data-id="120-241" d="M1418.23,-183.01,1476.15,-149.28"/>
<path data-id="120-276" d="M1418.23,-183.01,1473.65,-358.02"/>
<path data-id="121-191" d="M525.49,-1043.54,553.26,-1079.85"/>
<path data-id="121-194" d="M525.49,-1043.54,505.45,-1021.92"/>
<path data-id="121-273" d="M525.49,-1043.54,472.05,-1086.38"/>
<path data-id="122-128" d="M891.48,-1051.48,910.45,-1004.18"/>
<path data-id="122-134" d="M891.48,-1051.48,819.45,-1138.81"/>
<path data-id="122-266" d="M891.48,-1051.48,701.68,-1015.21"/>
<path data-id="123-153" d="M1364.50,-919.29,1412.19,-926.62"/>
<path data-id="123-169" d="M1364.50,-919.29,1333.61,-943.39"/>
<path data-id="123-234" d="M1364.50,-919.29,1268.47,-847.18"/>
<path data-id="123-263" d="M1364.50,-919.29,1388.71,-752.15"/>
<path data-id="124-222" d="M478.75,-1406.75,404.64,-1258.72"/>
<path data-id="124-249" d="M478.75,-1406.75,541.21,-1464.79"/>
<path data-id="125-199" d="M180.19,-1003.84,158.11,-870.65"/>
<path data-id="125-251" d="M180.19,-1003.84,32.09,-960.74"/>
<path data-id="125-298" d="M180.19,-1003.84,269.64,-1026.14"/>
<path data-id="126-177" d="M943.52,-370.38,1124.52,-325.57"/>
<path data-id="126-203" d="M943.52,-370.38,892.65,-563.35"/>
<path data-id="127-203" d="M803.25,-572.43,892.65,-563.35"/>
<path data-id="127-215" d="M803.25,-572.43,857.61,-317.26"/>
<path data-id="127-229" d="M803.25,-572.43,744.03,-569.49"/>
<path data-id="128-201" d="M910.45,-1004.18,823.18,-913.36"/>
<path data-id="129-140" d="M1036.96,-567.63,981.76,-671.84"/>
<path data-id="129-170" d="M1036.96,-567.63,1098.78,-509.22"/>
<path data-id="129-292" d="M1036.96,-567.63,1121.41,-595.74"/>
<path data-id="130-162" d="M1300.35,-1202.05,1332.16,-1209.85"/>
<path data-id="130-244" d="M1300.35,-1202.05,1247.08,-1153.40"/>
<path data-id="130-258" d="M1300.35,-1202.05,1296.83,-1112.69"/>
<path data-id="131-168" d="M701.64,-267.24,620.01,-365.12"/>
<path data-id="131-215" d="M701.64,-267.24,857.61,-317.26"/>
<path data-id="131-247" d="M701.64,-267.24,791.08,-146.72"/>
<path data-id="132-146" d="M1468.01,-1314.85,1568.07,-1344.43"/>
<path data-id="132-197" d="M1468.01,-1314.85,1445.17,-1369.38"/>
<path data-id="132-216" d="M1468.01,-1314.85,1453.68,-1255.20"/>
<path data-id="133-174" d="M1502.83,-554.73,1579.40,-481.17"/>
<path data-id="133-260" d="M1502.83,-554.73,1465.17,-581.50"/>
<path data-id="133-270" d="M1502.83,-554.73,1498.03,-593.63"/>
<path data-id="135-197" d="M1490.48,-1499.52,1445.17,-1369.38"/>
<path data-id="135-226" d="M1490.48,-1499.52,1424.84,-1547.14"/>
<path data-id="135-275" d="M1490.48,-1499.52,1529.97,-1585.05"/>
<path data-id="135-294" d="M1490.48,-1499.52,1566.61,-1452.71"/>
<path data-id="136-166" d="M1439.54,-1641.72,1359.11,-1617.53"/>
<path data-id="136-226" d="M1439.54,-1641.72,1424.84,-1547.14"/>
<path data-id="136-275" d="M1439.54,-1641.72,1529.97,-1585.05"/>
<path data-id="137-159" d="M303.97,-193.43,94.29,-169.49"/>
<path data-id="137-210" d="M303.97,-193.43,299.97,-227.61"/>
<path data-id="138-174" d="M1601.77,-455.27,1579.40,-481.17"/>
<path data-id="138-268" d="M1601.77,-455.27,1686.00,-541.07"/>
<path data-id="139-173" d="M1088.68,-1455.93,1280.37,-1504.13"/>
<path data-id="139-186" d="M1088.68,-1455.93,1165.02,-1378.48"/>
<path data-id="139-196" d="M1088.68,-1455.93,1018.25,-1402.23"/>
<path data-id="139-255" d="M1088.68,-1455.93,1161.64,-1610.68"/>
<path data-id="139-281" d="M1088.68,-1455.93,1039.98,-1573.25"/>
<path data-id="141-192" d="M1658.20,-1036.31,1691.89,-1039.45"/>
<path data-id="142-272" d="M278.09,-917.17,273.69,-846.57"/>
<path data-id="143-222" d="M370.47,-1140.19,404.64,-1258.72"/>
<path data-id="143-298" d="M370.47,-1140.19,269.64,-1026.14"/>
<path data-id="144-231" d="M910.12,-1562.56,922.61,-1612.45"/>
<path data-id="144-281" d="M910.12,-1562.56,1039.98,-1573.25"/>
<path data-id="145-146" d="M1550.67,-1420.10,1568.07,-1344.43"/>
<path data-id="145-197" d="M1550.67,-1420.10,1445.17,-1369.38"/>
<path data-id="145-294" d="M1550.67,-1420.10,1566.61,-1452.71"/>
<path data-id="146-225" d="M1568.07,-1344.43,1546.76,-1226.34"/>
<path data-id="147-173" d="M1386.22,-1436.58,1280.37,-1504.13"/>
<path data-id="147-197" d="M1386.22,-1436.58,1445.17,-1369.38"/>
<path data-id="147-261" d="M1386.22,-1436.58,1281.13,-1424.24"/>
<path data-id="148-236" d="M184.92,-1681.13,212.17,-1572.49"/>
<path data-id="148-242" d="M184.92,-1681.13,171.15,-1711.95"/>
<path data-id="148-269" d="M184.92,-1681.13,131.08,-1693.57"/>
<path data-id="149-184" d="M556.04,-849.10,552.58,-824.02"/>
<path data-id="150-169" d="M1296.44,-954.49,1333.61,-943.39"/>
<path data-id="150-213" d="M1296.44,-954.49,1226.69,-929.45"/>
<path data-id="150-234" d="M1296.44,-954.49,1268.47,-847.18"/>
<path data-id="151-288" d="M987.89,-839.15,1007.17,-863.68"/>
<path data-id="152-208" d="M1102.89,-72.66,1053.32,-75.92"/>
<path data-id="153-205" d="M1412.19,-926.62,1504.49,-900.44"/>
<path data-id="153-239" d="M1412.19,-926.62,1424.09,-985.35"/>
<path data-id="154-191" d="M644.89,-1109.55,553.26,-1079.85"/>
<path data-id="154-223" d="M644.89,-1109.55,583.40,-1147.96"/>
<path data-id="155-164" d="M199.43,-684.36,233.39,-665.21"/>
<path data-id="155-214" d="M199.43,-684.36,245.32,-699.29"/>
<path data-id="155-237" d="M199.43,-684.36,136.74,-651.63"/>
<path data-id="155-297" d="M199.43,-684.36,195.38,-823.37"/>
<path data-id="156-172" d="M1600.40,-315.72,1616.82,-270.93"/>
<path data-id="156-257" d="M1600.40,-315.72,1655.34,-323.00"/>
<path data-id="157-290" d="M89.12,-1209.16,145.89,-1299.08"/>
<path data-id="158-250" d="M1172.82,-1008.73,1190.55,-981.43"/>
<path data-id="159-176" d="M94.29,-169.49,58.71,-131.47"/>
<path data-id="159-183" d="M94.29,-169.49,88.47,-268.98"/>
<path data-id="159-210" d="M94.29,-169.49,299.97,-227.61"/>
<path data-id="159-232" d="M94.29,-169.49,112.99,-84.19"/>
<path data-id="160-164" d="M232.23,-571.66,233.39,-665.21"/>
<path data-id="160-228" d="M232.23,-571.66,142.12,-621.37"/>
<path data-id="161-184" d="M559.58,-683.30,552.58,-824.02"/>
<path data-id="161-240" d="M559.58,-683.30,589.13,-670.88"/>
<path data-id="162-187" d="M1332.16,-1209.85,1473.38,-1201.64"/>
<path data-id="162-216" d="M1332.16,-1209.85,1453.68,-1255.20"/>
<path data-id="162-245" d="M1332.16,-1209.85,1460.28,-1072.66"/>
<path data-id="163-201" d="M752.94,-905.44,823.18,-913.36"/>
<path data-id="163-266" d="M752.94,-905.44,701.68,-1015.21"/>
<path data-id="163-278" d="M752.94,-905.44,742.51,-858.54"/>
<path data-id="164-214" d="M233.39,-665.21,245.32,-699.29"/>
<path data-id="165-224" d="M1244.23,-349.32,1249.04,-511.45"/>
<path data-id="165-296" d="M1244.23,-349.32,1184.38,-350.31"/>
<path data-id="166-173" d="M1359.11,-1617.53,1280.37,-1504.13"/>
<path data-id="166-226" d="M1359.11,-1617.53,1424.84,-1547.14"/>
<path data-id="167-171" d="M1670.38,-793.70,1707.14,-599.77"/>
<path data-id="167-277" d="M1670.38,-793.70,1626.84,-830.10"/>
<path data-id="168-229" d="M620.01,-365.12,744.03,-569.49"/>
<path data-id="168-238" d="M620.01,-365.12,595.45,-294.46"/>
<path data-id="169-234" d="M1333.61,-943.39,1268.47,-847.18"/>
<path data-id="170-177" d="M1098.78,-509.22,1124.52,-325.57"/>
<path data-id="170-253" d="M1098.78,-509.22,1161.84,-532.34"/>
<path data-id="170-292" d="M1098.78,-509.22,1121.41,-595.74"/>
<path data-id="170-296" d="M1098.78,-509.22,1184.38,-350.31"/>
<path data-id="171-181" d="M1707.14,-599.77,1669.67,-584.14"/>
<path data-id="172-207" d="M1616.82,-270.93,1692.37,-281.07"/>
<path data-id="172-257" d="M1616.82,-270.93,1655.34,-323.00"/>
<path data-id="173-255" d="M1280.37,-1504.13,1161.64,-1610.68"/>
<path data-id="173-261" d="M1280.37,-1504.13,1281.13,-1424.24"/>
<path data-id="176-232" d="M58.71,-131.47,112.99,-84.19"/>
<path data-id="176-254" d="M58.71,-131.47,30.22,-130.26"/>
<path data-id="177-218" d="M1124.52,-325.57,955.47,-283.97"/>
<path data-id="177-219" d="M1124.52,-325.57,1148.95,-299.96"/>
<path data-id="177-296" d="M1124.52,-325.57,1184.38,-350.31"/>
<path data-id="178-199" d="M68.05,-755.65,158.11,-870.65"/>
<path data-id="178-251" d="M68.05,-755.65,32.09,-960.74"/>
<path data-id="178-297" d="M68.05,-755.65,195.38,-823.37"/>
<path data-id="179-287" d="M1087.69,-1252.37,1086.92,-1298.74"/>
<path data-id="180-220" d="M1643.58,-52.30,1730.75,-3.95"/>
<path data-id="181-268" d="M1669.67,-584.14,1686.00,-541.07"/>
<path data-id="182-227" d="M491.58,-1553.46,552.58,-1690.39"/>
<path data-id="182-233" d="M491.58,-1553.46,403.28,-1671.76"/>
<path data-id="182-249" d="M491.58,-1553.46,541.21,-1464.79"/>
<path data-id="182-271" d="M491.58,-1553.46,375.09,-1569.77"/>
<path data-id="184-189" d="M552.58,-824.02,463.84,-827.17"/>
<path data-id="185-209" d="M20.86,-503.13,28.97,-551.78"/>
<path data-id="186-188" d="M1165.02,-1378.48,1221.84,-1371.94"/>
<path data-id="186-287" d="M1165.02,-1378.48,1086.92,-1298.74"/>
<path data-id="187-216" d="M1473.38,-1201.64,1453.68,-1255.20"/>
<path data-id="187-225" d="M1473.38,-1201.64,1546.76,-1226.34"/>
<path data-id="187-245" d="M1473.38,-1201.64,1460.28,-1072.66"/>
<path data-id="188-261" d="M1221.84,-1371.94,1281.13,-1424.24"/>
<path data-id="190-275" d="M1591.68,-1623.43,1529.97,-1585.05"/>
<path data-id="191-223" d="M553.26,-1079.85,583.40,-1147.96"/>
<path data-id="191-230" d="M553.26,-1079.85,482.16,-1119.08"/>
<path data-id="191-273" d="M553.26,-1079.85,472.05,-1086.38"/>
<path data-id="193-209" d="M102.46,-644.17,28.97,-551.78"/>
<path data-id="193-228" d="M102.46,-644.17,142.12,-621.37"/>
<path data-id="193-237" d="M102.46,-644.17,136.74,-651.63"/>
<path data-id="194-273" d="M505.45,-1021.92,472.05,-1086.38"/>
<path data-id="195-224" d="M1375.83,-584.48,1249.04,-511.45"/>
<path data-id="195-260" d="M1375.83,-584.48,1465.17,-581.50"/>
<path data-id="196-286" d="M1018.25,-1402.23,1002.08,-1246.36"/>
<path data-id="196-287" d="M1018.25,-1402.23,1086.92,-1298.74"/>
<path data-id="198-202" d="M1550.47,-990.26,1626.02,-984.04"/>
<path data-id="198-239" d="M1550.47,-990.26,1424.09,-985.35"/>
<path data-id="198-245" d="M1550.47,-990.26,1460.28,-1072.66"/>
<path data-id="198-282" d="M1550.47,-990.26,1593.08,-923.36"/>
<path data-id="199-251" d="M158.11,-870.65,32.09,-960.74"/>
<path data-id="200-292" d="M1119.80,-725.87,1121.41,-595.74"/>
<path data-id="202-282" d="M1626.02,-984.04,1593.08,-923.36"/>
<path data-id="204-277" d="M1578.73,-835.62,1626.84,-830.10"/>
<path data-id="204-282" d="M1578.73,-835.62,1593.08,-923.36"/>
<path data-id="204-293" d="M1578.73,-835.62,1548.07,-848.14"/>
<path data-id="205-263" d="M1504.49,-900.44,1388.71,-752.15"/>
<path data-id="205-293" d="M1504.49,-900.44,1548.07,-848.14"/>
<path data-id="206-227" d="M594.25,-1718.73,552.58,-1690.39"/>
<path data-id="207-257" d="M1692.37,-281.07,1655.34,-323.00"/>
<path data-id="207-289" d="M1692.37,-281.07,1713.54,-191.25"/>
<path data-id="208-218" d="M1053.32,-75.92,955.47,-283.97"/>
<path data-id="208-284" d="M1053.32,-75.92,958.90,-3.58"/>
<path data-id="210-248" d="M299.97,-227.61,416.26,-267.09"/>
<path data-id="211-259" d="M694.73,-1319.92,827.05,-1365.65"/>
<path data-id="212-248" d="M439.87,-219.80,416.26,-267.09"/>
<path data-id="212-274" d="M439.87,-219.80,397.52,-197.30"/>
<path data-id="212-280" d="M439.87,-219.80,538.44,-260.28"/>
<path data-id="213-234" d="M1226.69,-929.45,1268.47,-847.18"/>
<path data-id="213-250" d="M1226.69,-929.45,1190.55,-981.43"/>
<path data-id="214-297" d="M245.32,-699.29,195.38,-823.37"/>
<path data-id="215-267" d="M857.61,-317.26,895.32,-284.11"/>
<path data-id="217-236" d="M59.73,-1597.86,212.17,-1572.49"/>
<path data-id="218-267" d="M955.47,-283.97,895.32,-284.11"/>
<path data-id="219-296" d="M1148.95,-299.96,1184.38,-350.31"/>
<path data-id="221-232" d="M206.49,-74.27,112.99,-84.19"/>
<path data-id="221-243" d="M206.49,-74.27,196.86,-0.09"/>
<path data-id="222-256" d="M404.64,-1258.72,459.38,-1214.72"/>
<path data-id="223-230" d="M583.40,-1147.96,482.16,-1119.08"/>
<path data-id="223-256" d="M583.40,-1147.96,459.38,-1214.72"/>
<path data-id="224-253" d="M1249.04,-511.45,1161.84,-532.34"/>
<path data-id="226-275" d="M1424.84,-1547.14,1529.97,-1585.05"/>
<path data-id="228-237" d="M142.12,-621.37,136.74,-651.63"/>
<path data-id="229-262" d="M744.03,-569.49,671.70,-592.15"/>
<path data-id="230-256" d="M482.16,-1119.08,459.38,-1214.72"/>
<path data-id="230-273" d="M482.16,-1119.08,472.05,-1086.38"/>
<path data-id="231-265" d="M922.61,-1612.45,1090.38,-1728.93"/>
<path data-id="231-281" d="M922.61,-1612.45,1039.98,-1573.25"/>
<path data-id="233-271" d="M403.28,-1671.76,375.09,-1569.77"/>
<path data-id="234-263" d="M1268.47,-847.18,1388.71,-752.15"/>
<path data-id="235-283" d="M142.49,-418.03,115.58,-501.22"/>
<path data-id="236-264" d="M212.17,-1572.49,320.30,-1584.63"/>
<path data-id="238-280" d="M595.45,-294.46,538.44,-260.28"/>
<path data-id="239-245" d="M1424.09,-985.35,1460.28,-1072.66"/>
<path data-id="242-269" d="M171.15,-1711.95,131.08,-1693.57"/>
<path data-id="244-258" d="M1247.08,-1153.40,1296.83,-1112.69"/>
<path data-id="245-258" d="M1460.28,-1072.66,1296.83,-1112.69"/>
<path data-id="246-268" d="M1729.81,-419.65,1686.00,-541.07"/>
<path data-id="253-292" d="M1161.84,-532.34,1121.41,-595.74"/>
<path data-id="253-296" d="M1161.84,-532.34,1184.38,-350.31"/>
<path data-id="255-265" d="M1161.64,-1610.68,1090.38,-1728.93"/>
<path data-id="255-281" d="M1161.64,-1610.68,1039.98,-1573.25"/>
<path data-id="259-286" d="M827.05,-1365.65,1002.08,-1246.36"/>
<path data-id="260-270" d="M1465.17,-581.50,1498.03,-593.63"/>
<path data-id="263-293" d="M1388.71,-752.15,1548.07,-848.14"/>
<path data-id="264-271" d="M320.30,-1584.63,375.09,-1569.77"/>
<path data-id="265-281" d="M1090.38,-1728.93,1039.98,-1573.25"/>
<path data-id="272-297" d="M273.69,-846.57,195.38,-823.37"/>
<path data-id="274-295" d="M397.52,-197.30,380.91,-156.91"/>
<path data-id="277-282" d="M1626.84,-830.10,1593.08,-923.36"/>
<circle data-id="0" cx="1351.14" cy="-1302.23" r="10.00px"/>
<text data-id="0" x="1351.14" y="-1302.23">R0</text>
<circle data-id="1" cx="1331.81" cy="-1266.02" r="10.00px"/>
<text data-id="1" x="1331.81" y="-1266.02">R1</text>
<circle data-id="2" cx="190.32" cy="-869.72" r="10.00px"/>
<text data-id="2" x="190.32" y="-869.72">R2</text>
<circle data-id="3" cx="1665.45" cy="-414.31" r="10.00px"/>
<text data-id="3" x="1665.45" y="-414.31">R3</text>
<circle data-id="4" cx="399.23" cy="-670.20" r="10.00px"/>
<text data-id="4" x="399.23" y="-670.20">R4</text>
<circle data-id="5" cx="536.91" cy="-131.29" r="10.00px"/>
<text data-id="5" x="536.91" y="-131.29">R5</text>
<circle data-id="6" cx="831.39" cy="-147.19" r="10.00px"/>
<text data-id="6" x="831.39" y="-147.19">R6</text>
<circle data-id="7" cx="525.12" cy="-1370.33" r="10.00px"/>
<text data-id="7" x="525.12" y="-1370.33">R7</text>
<circle data-id="8" cx="1271.11" cy="-1301.09" r="10.00px"/>
<text data-id="8" x="1271.11" y="-1301.09">R8</text>
<circle data-id="9" cx="470.76" cy="-650.50" r="10.00px"/>
<text data-id="9" x="470.76" y="-650.50">R9</text>
<circle data-id="10" cx="407.38" cy="-452.43" r="10.00px"/>
<text data-id="10" x="407.38" y="-452.43">R10</text>
<circle data-id="11" cx="802.31" cy="-783.39" r="10.00px"/>
<text data-id="11" x="802.31" y="-783.39">R11</text>
<circle data-id="12" cx="1729.65" cy="-1123.58" r="10.00px"/>
<text data-id="12" x="1729.65" y="-1123.58">R12</text>
<circle data-id="13" cx="18.29" cy="-1442.41" r="10.00px"/>
<text data-id="13" x="18.29" y="-1442.41">R13</text>
<circle data-id="14" cx="1618.20" cy="-578.67" r="10.00px"/>
<text data-id="14" x="1618.20" y="-578.67">R14</text>
<circle data-id="15" cx="205.89" cy="-364.33" r="10.00px"/>
<text data-id="15" x="205.89" y="-364.33">R15</text>
<circle data-id="16" cx="1487.50" cy="-186.73" r="10.00px"/>
<text data-id="16" x="1487.50" y="-186.73">R16</text>
<circle data-id="17" cx="74.00" cy="-353.08" r="10.00px"/>
<text data-id="17" x="74.00" y="-353.08">R17</text>
<circle data-id="18" cx="436.85" cy="-623.54" r="10.00px"/>
<text data-id="18" x="436.85" y="-623.54">R18</text>
<circle data-id="19" cx="60.74" cy="-1473.12" r="10.00px"/>
<text data-id="19" x="60.74" y="-1473.12">R19</text>
<circle data-id="20" cx="924.45" cy="-320.98" r="10.00px"/>
<text data-id="20" x="924.45" y="-320.98">R20</text>
<circle data-id="21" cx="495.60" cy="-934.93" r="10.00px"/>
<text data-id="21" x="495.60" y="-934.93">R21</text>
<circle data-id="22" cx="224.28" cy="-444.18" r="10.00px"/>
<text data-id="22" x="224.28" y="-444.18">R22</text>
<circle data-id="23" cx="314.69" cy="-170.51" r="10.00px"/>
<text data-id="23" x="314.69" y="-170.51">R23</text>
<circle data-id="24" cx="147.65" cy="-1155.59" r="10.00px"/>
<text data-id="24" x="147.65" y="-1155.59">R24</text>
<circle data-id="25" cx="1547.63" cy="-920.88" r="10.00px"/>
<text data-id="25" x="1547.63" y="-920.88">R25</text>
<circle data-id="26" cx="1684.21" cy="-81.80" r="10.00px"/>
<text data-id="26" x="1684.21" y="-81.80">R26</text>
<circle data-id="27" cx="115.94" cy="-526.42" r="10.00px"/>
<text data-id="27" x="115.94" y="-526.42">R27</text>
<circle data-id="28" cx="1213.36" cy="-173.57" r="10.00px"/>
<text data-id="28" x="1213.36" y="-173.57">R28</text>
<circle data-id="29" cx="356.40" cy="-65.68" r="10.00px"/>
<text data-id="29" x="356.40" y="-65.68">R29</text>
<circle data-id="30" cx="1579.27" cy="-371.40" r="10.00px"/>
<text data-id="30" x="1579.27" y="-371.40">R30</text>
<circle data-id="31" cx="1037.33" cy="-1004.31" r="10.00px"/>
<text data-id="31" x="1037.33" y="-1004.31">R31</text>
<circle data-id="32" cx="989.46" cy="-1409.50" r="10.00px"/>
<text data-id="32" x="989.46" y="-1409.50">R32</text>
<circle data-id="33" cx="584.45" cy="-860.43" r="10.00px"/>
<text data-id="33" x="584.45" y="-860.43">R33</text>
<circle data-id="34" cx="1381.62" cy="-509.55" r="10.00px"/>
<text data-id="34" x="1381.62" y="-509.55">R34</text>
<circle data-id="35" cx="619.68" cy="-602.71" r="10.00px"/>
<text data-id="35" x="619.68" y="-602.71">R35</text>
<circle data-id="36" cx="1403.96" cy="-1515.22" r="10.00px"/>
<text data-id="36" x="1403.96" y="-1515.22">R36</text>
<circle data-id="37" cx="923.13" cy="-35.46" r="10.00px"/>
<text data-id="37" x="923.13" y="-35.46">R37</text>
<circle data-id="38" cx="1638.88" cy="-1307.70" r="10.00px"/>
<text data-id="38" x="1638.88" y="-1307.70">R38</text>
<circle data-id="39" cx="809.57" cy="-849.46" r="10.00px"/>
<text data-id="39" x="809.57" y="-849.46">R39</text>
<circle data-id="40" cx="300.77" cy="-810.74" r="10.00px"/>
<text data-id="40" x="300.77" y="-810.74">R40</text>
<circle data-id="41" cx="955.91" cy="-1081.80" r="10.00px"/>
<text data-id="41" x="955.91" y="-1081.80">R41</text>
<circle data-id="42" cx="265.55" cy="-311.82" r="10.00px"/>
<text data-id="42" x="265.55" y="-311.82">R42</text>
<circle data-id="43" cx="91.85" cy="-1705.14" r="10.00px"/>
<text data-id="43" x="91.85" y="-1705.14">R43</text>
<circle data-id="44" cx="1109.78" cy="-1218.23" r="10.00px"/>
<text data-id="44" x="1109.78" y="-1218.23">R44</text>
<circle data-id="45" cx="1163.61" cy="-958.71" r="10.00px"/>
<text data-id="45" x="1163.61" y="-958.71">R45</text>
<circle data-id="46" cx="541.13" cy="-507.65" r="10.00px"/>
<text data-id="46" x="541.13" y="-507.65">R46</text>
<circle data-id="47" cx="714.23" cy="-1137.14" r="10.00px"/>
<text data-id="47" x="714.23" y="-1137.14">R47</text>
<circle data-id="48" cx="509.62" cy="-484.94" r="10.00px"/>
<text data-id="48" x="509.62" y="-484.94">R48</text>
<circle data-id="49" cx="408.99" cy="-1705.79" r="10.00px"/>
<text data-id="49" x="408.99" y="-1705.79">R49</text>
<circle data-id="50" cx="1612.81" cy="-551.86" r="10.00px"/>
<text data-id="50" x="1612.81" y="-551.86">R50</text>
<circle data-id="51" cx="932.62" cy="-904.78" r="10.00px"/>
<text data-id="51" x="932.62" y="-904.78">R51</text>
<circle data-id="52" cx="1460.99" cy="-655.32" r="10.00px"/>
<text data-id="52" x="1460.99" y="-655.32">R52</text>
<circle data-id="53" cx="411.65" cy="-1125.37" r="10.00px"/>
<text data-id="53" x="411.65" y="-1125.37">R53</text>
<circle data-id="54" cx="636.27" cy="-87.81" r="10.00px"/>
<text data-id="54" x="636.27" y="-87.81">R54</text>
<circle data-id="55" cx="1256.09" cy="-652.90" r="10.00px"/>
<text data-id="55" x="1256.09" y="-652.90">R55</text>
<circle data-id="56" cx="933.27" cy="-637.65" r="10.00px"/>
<text data-id="56" x="933.27" y="-637.65">R56</text>
<circle data-id="57" cx="1431.74" cy="-687.93" r="10.00px"/>
<text data-id="57" x="1431.74" y="-687.93">R57</text>
<circle data-id="58" cx="1501.30" cy="-440.56" r="10.00px"/>
<text data-id="58" x="1501.30" y="-440.56">R58</text>
<circle data-id="59" cx="705.25" cy="-1633.51" r="10.00px"/>
<text data-id="59" x="705.25" y="-1633.51">R59</text>
<circle data-id="60" cx="51.95" cy="-672.05" r="10.00px"/>
<text data-id="60" x="51.95" y="-672.05">R60</text>
<circle data-id="61" cx="295.59" cy="-33.33" r="10.00px"/>
<text data-id="61" x="295.59" y="-33.33">R61</text>
<circle data-id="62" cx="840.65" cy="-704.89" r="10.00px"/>
<text data-id="62" x="840.65" y="-704.89">R62</text>
<circle data-id="63" cx="782.68" cy="-820.09" r="10.00px"/>
<text data-id="63" x="782.68" y="-820.09">R63</text>
<circle data-id="64" cx="1017.46" cy="-528.98" r="10.00px"/>
<text data-id="64" x="1017.46" y="-528.98">R64</text>
<circle data-id="65" cx="1135.25" cy="-955.37" r="10.00px"/>
<text data-id="65" x="1135.25" y="-955.37">R65</text>
<circle data-id="66" cx="366.60" cy="-734.68" r="10.00px"/>
<text data-id="66" x="366.60" y="-734.68">R66</text>
<circle data-id="67" cx="999.94" cy="-1473.64" r="10.00px"/>
<text data-id="67" x="999.94" y="-1473.64">R67</text>
<circle data-id="68" cx="691.34" cy="-16.73" r="10.00px"/>
<text data-id="68" x="691.34" y="-16.73">R68</text>
<circle data-id="69" cx="19.27" cy="-436.76" r="10.00px"/>
<text data-id="69" x="19.27" y="-436.76">R69</text>
<circle data-id="70" cx="1430.95" cy="-499.77" r="10.00px"/>
<text data-id="70" x="1430.95" y="-499.77">R70</text>
<circle data-id="71" cx="47.51" cy="-1536.37" r="10.00px"/>
<text data-id="71" x="47.51" y="-1536.37">R71</text>
<circle data-id="72" cx="289.70" cy="-959.92" r="10.00px"/>
<text data-id="72" x="289.70" y="-959.92">R72</text>
<circle data-id="73" cx="1248.50" cy="-824.85" r="10.00px"/>
<text data-id="73" x="1248.50" y="-824.85">R73</text>
<circle data-id="74" cx="1217.18" cy="-1652.67" r="10.00px"/>
<text data-id="74" x="1217.18" y="-1652.67">R74</text>
<circle data-id="75" cx="819.21" cy="-1176.97" r="10.00px"/>
<text data-id="75" x="819.21" y="-1176.97">R75</text>
<circle data-id="76" cx="820.55" cy="-1438.49" r="10.00px"/>
<text data-id="76" x="820.55" y="-1438.49">R76</text>
<circle data-id="77" cx="53.63" cy="-1676.77" r="10.00px"/>
<text data-id="77" x="53.63" y="-1676.77">R77</text>
<circle data-id="78" cx="400.83" cy="-46.93" r="10.00px"/>
<text data-id="78" x="400.83" y="-46.93">R78</text>
<circle data-id="79" cx="668.26" cy="-1212.01" r="10.00px"/>
<text data-id="79" x="668.26" y="-1212.01">R79</text>
<circle data-id="80" cx="419.73" cy="-1501.38" r="10.00px"/>
<text data-id="80" x="419.73" y="-1501.38">R80</text>
<circle data-id="81" cx="497.30" cy="-1251.02" r="10.00px"/>
<text data-id="81" x="497.30" y="-1251.02">R81</text>
<circle data-id="82" cx="619.29" cy="-249.25" r="10.00px"/>
<text data-id="82" x="619.29" y="-249.25">R82</text>
<circle data-id="83" cx="61.03" cy="-491.15" r="10.00px"/>
<text data-id="83" x="61.03" y="-491.15">R83</text>
<circle data-id="84" cx="963.45" cy="-783.49" r="10.00px"/>
<text data-id="84" x="963.45" y="-783.49">R84</text>
<circle data-id="85" cx="1051.16" cy="-754.26" r="10.00px"/>
<text data-id="85" x="1051.16" y="-754.26">R85</text>
<circle data-id="86" cx="1252.52" cy="-286.07" r="10.00px"/>
<text data-id="86" x="1252.52" y="-286.07">R86</text>
<circle data-id="87" cx="1034.38" cy="-1148.11" r="10.00px"/>
<text data-id="87" x="1034.38" y="-1148.11">R87</text>
<circle data-id="88" cx="555.68" cy="-1331.57" r="10.00px"/>
<text data-id="88" x="555.68" y="-1331.57">R88</text>
<circle data-id="89" cx="15.95" cy="-224.92" r="10.00px"/>
<text data-id="89" x="15.95" y="-224.92">R89</text>
<circle data-id="90" cx="1626.74" cy="-92.48" r="10.00px"/>
<text data-id="90" x="1626.74" y="-92.48">R90</text>
<circle data-id="91" cx="1070.44" cy="-26.33" r="10.00px"/>
<text data-id="91" x="1070.44" y="-26.33">R91</text>
<circle data-id="92" cx="1215.78" cy="-718.52" r="10.00px"/>
<text data-id="92" x="1215.78" y="-718.52">R92</text>
<circle data-id="93" cx="1563.04" cy="-1139.80" r="10.00px"/>
<text data-id="93" x="1563.04" y="-1139.80">R93</text>
<circle data-id="94" cx="1018.42" cy="-809.64" r="10.00px"/>
<text data-id="94" x="1018.42" y="-809.64">R94</text>
<circle data-id="95" cx="667.16" cy="-1047.57" r="10.00px"/>
<text data-id="95" x="667.16" y="-1047.57">R95</text>
<circle data-id="96" cx="536.83" cy="-615.72" r="10.00px"/>
<text data-id="96" x="536.83" y="-615.72">R96</text>
<circle data-id="97" cx="1029.30" cy="-1213.84" r="10.00px"/>
<text data-id="97" x="1029.30" y="-1213.84">R97</text>
<circle data-id="98" cx="1189.42" cy="-192.36" r="10.00px"/>
<text data-id="98" x="1189.42" y="-192.36">R98</text>
<circle data-id="99" cx="108.76" cy="-51.22" r="10.00px"/>
<text data-id="99" x="108.76" y="-51.22">R99</text>
<circle data-id="100" cx="708.41" cy="-1528.12" r="10.00px"/>
<text data-id="100" x="708.41" y="-1528.12">R100</text>
<circle data-id="101" cx="1665.17" cy="-1420.64" r="10.00px"/>
<text data-id="101" x="1665.17" y="-1420.64">R101</text>
<circle data-id="102" cx="670.27" cy="-788.26" r="10.00px"/>
<text data-id="102" x="670.27" y="-788.26">R102</text>
<circle data-id="103" cx="190.21" cy="-1235.39" r="10.00px"/>
<text data-id="103" x="190.21" y="-1235.39">R103</text>
<circle data-id="104" cx="1205.91" cy="-1042.50" r="10.00px"/>
<text data-id="104" x="1205.91" y="-1042.50">R104</text>
<circle data-id="105" cx="136.37" cy="-1485.65" r="10.00px"/>
<text data-id="105" x="136.37" y="-1485.65">R105</text>
<circle data-id="106" cx="278.37" cy="-718.96" r="10.00px"/>
<text data-id="106" x="278.37" y="-718.96">R106</text>
<circle data-id="107" cx="1301.62" cy="-992.04" r="10.00px"/>
<text data-id="107" x="1301.62" y="-992.04">R107</text>
<circle data-id="108" cx="1661.98" cy="-1333.05" r="10.00px"/>
<text data-id="108" x="1661.98" y="-1333.05">R108</text>
<circle data-id="109" cx="1362.95" cy="-198.31" r="10.00px"/>
<text data-id="109" x="1362.95" y="-198.31">R109</text>
<circle data-id="110" cx="633.86" cy="-1281.24" r="10.00px"/>
<text data-id="110" x="633.86" y="-1281.24">R110</text>
<circle data-id="111" cx="881.02" cy="-226.86" r="10.00px"/>
<text data-id="111" x="881.02" y="-226.86">R111</text>
<circle data-id="112" cx="1620.39" cy="-1031.17" r="10.00px"/>
<text data-id="112" x="1620.39" y="-1031.17">R112</text>
<circle data-id="113" cx="1524.36" cy="-695.04" r="10.00px"/>
<text data-id="113" x="1524.36" y="-695.04">R113</text>
<circle data-id="114" cx="837.59" cy="-1481.41" r="10.00px"/>
<text data-id="114" x="837.59" y="-1481.41">R114</text>
<circle data-id="115" cx="672.55" cy="-877.72" r="10.00px"/>
<text data-id="115" x="672.55" y="-877.72">R115</text>
<circle data-id="116" cx="1311.69" cy="-341.18" r="10.00px"/>
<text data-id="116" x="1311.69" y="-341.18">R116</text>
<circle data-id="117" cx="1567.60" cy="-1689.71" r="10.00px"/>
<text data-id="117" x="1567.60" y="-1689.71">R117</text>
<circle data-id="118" cx="1129.86" cy="-56.05" r="10.00px"/>
<text data-id="118" x="1129.86" y="-56.05">R118</text>
<circle data-id="119" cx="1196.29" cy="-121.02" r="10.00px"/>
<text data-id="119" x="1196.29" y="-121.02">R119</text>
<circle data-id="120" cx="1418.23" cy="-183.01" r="10.00px"/>
<text data-id="120" x="1418.23" y="-183.01">R120</text>
<circle data-id="121" cx="525.49" cy="-1043.54" r="10.00px"/>
<text data-id="121" x="525.49" y="-1043.54">R121</text>
<circle data-id="122" cx="891.48" cy="-1051.48" r="10.00px"/>
<text data-id="122" x="891.48" y="-1051.48">R122</text>
<circle data-id="123" cx="1364.50" cy="-919.29" r="10.00px"/>
<text data-id="123" x="1364.50" y="-919.29">R123</text>
<circle data-id="124" cx="478.75" cy="-1406.75" r="10.00px"/>
<text data-id="124" x="478.75" y="-1406.75">R124</text>
<circle data-id="125" cx="180.19" cy="-1003.84" r="10.00px"/>
<text data-id="125" x="180.19" y="-1003.84">R125</text>
<circle data-id="126" cx="943.52" cy="-370.38" r="10.00px"/>
<text data-id="126" x="943.52" y="-370.38">R126</text>
<circle data-id="127" cx="803.25" cy="-572.43" r="10.00px"/>
<text data-id="127" x="803.25" y="-572.43">R127</text>
<circle data-id="128" cx="910.45" cy="-1004.18" r="10.00px"/>
<text data-id="128" x="910.45" y="-1004.18">R128</text>
<circle data-id="129" cx="1036.96" cy="-567.63" r="10.00px"/>
<text data-id="129" x="1036.96" y="-567.63">R129</text>
<circle data-id="130" cx="1300.35" cy="-1202.05" r="10.00px"/>
<text data-id="130" x="1300.35" y="-1202.05">R130</text>
<circle data-id="131" cx="701.64" cy="-267.24" r="10.00px"/>
<text data-id="131" x="701.64" y="-267.24">R131</text>
<circle data-id="132" cx="1468.01" cy="-1314.85" r="10.00px"/>
<text data-id="132" x="1468.01" y="-1314.85">R132</text>
<circle data-id="133" cx="1502.83" cy="-554.73" r="10.00px"/>
<text data-id="133" x="1502.83" y="-554.73">R133</text>
<circle data-id="134" cx="819.45" cy="-1138.81" r="10.00px"/>
<text data-id="134" x="819.45" y="-1138.81">R134</text>
<circle data-id="135" cx="1490.48" cy="-1499.52" r="10.00px"/>
<text data-id="135" x="1490.48" y="-1499.52">R135</text>
<circle data-id="136" cx="1439.54" cy="-1641.72" r="10.00px"/>
<text data-id="136" x="1439.54" y="-1641.72">R136</text>
<circle data-id="137" cx="303.97" cy="-193.43" r="10.00px"/>
<text data-id="137" x="303.97" y="-193.43">R137</text>
<circle data-id="138" cx="1601.77" cy="-455.27" r="10.00px"/>
<text data-id="138" x="1601.77" y="-455.27">R138</text>
<circle data-id="139" cx="1088.68" cy="-1455.93" r="10.00px"/>
<text data-id="139" x="1088.68" y="-1455.93">R139</text>
<circle data-id="140" cx="981.76" cy="-671.84" r="10.00px"/>
<text data-id="140" x="981.76" y="-671.84">R140</text>
<circle data-id="141" cx="1658.20" cy="-1036.31" r="10.00px"/>
<text data-id="141" x="1658.20" y="-1036.31">R141</text>
<circle data-id="142" cx="278.09" cy="-917.17" r="10.00px"/>
<text data-id="142" x="278.09" y="-917.17">R142</text>
<circle data-id="143" cx="370.47" cy="-1140.19" r="10.00px"/>
<text data-id="143" x="370.47" y="-1140.19">R143</text>
<circle data-id="144" cx="910.12" cy="-1562.56" r="10.00px"/>
<text data-id="144" x="910.12" y="-1562.56">R144</text>
<circle data-id="145" cx="1550.67" cy="-1420.10" r="10.00px"/>
<text data-id="145" x="1550.67" y="-1420.10">R145</text>
<circle data-id="146" cx="1568.07" cy="-1344.43" r="10.00px"/>
<text data-id="146" x="1568.07" y="-1344.43">R146</text>
<circle data-id="147" cx="1386.22" cy="-1436.58" r="10.00px"/>
<text data-id="147" x="1386.22" y="-1436.58">R147</text>
<circle data-id="148" cx="184.92" cy="-1681.13" r="10.00px"/>
<text data-id="148" x="184.92" y="-1681.13">R148</text>
<circle data-id="149" cx="556.04" cy="-849.10" r="10.00px"/>
<text data-id="149" x="556.04" y="-849.10">R149</text>
<circle data-id="150" cx="1296.44" cy="-954.49" r="10.00px"/>
<text data-id="150" x="1296.44" y="-954.49">R150</text>
<circle data-id="151" cx="987.89" cy="-839.15" r="10.00px"/>
<text data-id="151" x="987.89" y="-839.15">R151</text>
<circle data-id="152" cx="1102.89" cy="-72.66" r="10.00px"/>
<text data-id="152" x="1102.89" y="-72.66">R152</text>
<circle data-id="153" cx="1412.19" cy="-926.62" r="10.00px"/>
<text data-id="153" x="1412.19" y="-926.62">R153</text>
<circle data-id="154" cx="644.89" cy="-1109.55" r="10.00px"/>
<text data-id="154" x="644.89" y="-1109.55">R154</text>
<circle data-id="155" cx="199.43" cy="-684.36" r="10.00px"/>
<text data-id="155" x="199.43" y="-684.36">R155</text>
<circle data-id="156" cx="1600.40" cy="-315.72" r="10.00px"/>
<text data-id="156" x="1600.40" y="-315.72">R156</text>
<circle data-id="157" cx="89.12" cy="-1209.16" r="10.00px"/>
<text data-id="157" x="89.12" y="-1209.16">R157</text>
<circle data-id="158" cx="1172.82" cy="-1008.73" r="10.00px"/>
<text data-id="158" x="1172.82" y="-1008.73">R158</text>
<circle data-id="159" cx="94.29" cy="-169.49" r="10.00px"/>
<text data-id="159" x="94.29" y="-169.49">R159</text>
<circle data-id="160" cx="232.23" cy="-571.66" r="10.00px"/>
<text data-id="160" x="232.23" y="-571.66">R160</text>
<circle data-id="161" cx="559.58" cy="-683.30" r="10.00px"/>
<text data-id="161" x="559.58" y="-683.30">R161</text>
<circle data-id="162" cx="1332.16" cy="-1209.85" r="10.00px"/>
<text data-id="162" x="1332.16" y="-1209.85">R162</text>
<circle data-id="163" cx="752.94" cy="-905.44" r="10.00px"/>
<text data-id="163" x="752.94" y="-905.44">R163</text>
<circle data-id="164" cx="233.39" cy="-665.21" r="10.00px"/>
<text data-id="164" x="233.39" y="-665.21">R164</text>
<circle data-id="165" cx="1244.23" cy="-349.32" r="10.00px"/>
<text data-id="165" x="1244.23" y="-349.32">R165</text>
<circle data-id="166" cx="1359.11" cy="-1617.53" r="10.00px"/>
<text data-id="166" x="1359.11" y="-1617.53">R166</text>
<circle data-id="167" cx="1670.38" cy="-793.70" r="10.00px"/>
<text data-id="167" x="1670.38" y="-793.70">R167</text>
<circle data-id="168" cx="620.01" cy="-365.12" r="10.00px"/>
<text data-id="168" x="620.01" y="-365.12">R168</text>
<circle data-id="169" cx="1333.61" cy="-943.39" r="10.00px"/>
<text data-id="169" x="1333.61" y="-943.39">R169</text>
<circle data-id="170" cx="1098.78" cy="-509.22" r="10.00px"/>
<text data-id="170" x="1098.78" y="-509.22">R170</text>
<circle data-id="171" cx="1707.14" cy="-599.77" r="10.00px"/>
<text data-id="171" x="1707.14" y="-599.77">R171</text>
<circle data-id="172" cx="1616.82" cy="-270.93" r="10.00px"/>
<text data-id="172" x="1616.82" y="-270.93">R172</text>
<circle data-id="173" cx="1280.37" cy="-1504.13" r="10.00px"/>
<text data-id="173" x="1280.37" y="-1504.13">R173</text>
<circle data-id="174" cx="1579.40" cy="-481.17" r="10.00px"/>
<text data-id="174" x="1579.40" y="-481.17">R174</text>
<circle data-id="175" cx="895.88" cy="-116.45" r="10.00px"/>
<text data-id="175" x="895.88" y="-116.45">R175</text>
<circle data-id="176" cx="58.71" cy="-131.47" r="10.00px"/>
<text data-id="176" x="58.71" y="-131.47">R176</text>
<circle data-id="177" cx="1124.52" cy="-325.57" r="10.00px"/>
<text data-id="177" x="1124.52" y="-325.57">R177</text>
<circle data-id="178" cx="68.05" cy="-755.65" r="10.00px"/>
<text data-id="178" x="68.05" y="-755.65">R178</text>
<circle data-id="179" cx="1087.69" cy="-1252.37" r="10.00px"/>
<text data-id="179" x="1087.69" y="-1252.37">R179</text>
<circle data-id="180" cx="1643.58" cy="-52.30" r="10.00px"/>
<text data-id="180" x="1643.58" y="-52.30">R180</text>
<circle data-id="181" cx="1669.67" cy="-584.14" r="10.00px"/>
<text data-id="181" x="1669.67" y="-584.14">R181</text>
<circle data-id="182" cx="491.58" cy="-1553.46" r="10.00px"/>
<text data-id="182" x="491.58" y="-1553.46">R182</text>
<circle data-id="183" cx="88.47" cy="-268.98" r="10.00px"/>
<text data-id="183" x="88.47" y="-268.98">R183</text>
<circle data-id="184" cx="552.58" cy="-824.02" r="10.00px"/>
<text data-id="184" x="552.58" y="-824.02">R184</text>
<circle data-id="185" cx="20.86" cy="-503.13" r="10.00px"/>
<text data-id="185" x="20.86" y="-503.13">R185</text>
<circle data-id="186" cx="1165.02" cy="-1378.48" r="10.00px"/>
<text data-id="186" x="1165.02" y="-1378.48">R186</text>
<circle data-id="187" cx="1473.38" cy="-1201.64" r="10.00px"/>
<text data-id="187" x="1473.38" y="-1201.64">R187</text>
<circle data-id="188" cx="1221.84" cy="-1371.94" r="10.00px"/>
<text data-id="188" x="1221.84" y="-1371.94">R188</text>
<circle data-id="189" cx="463.84" cy="-827.17" r="10.00px"/>
<text data-id="189" x="463.84" y="-827.17">R189</text>
<circle data-id="190" cx="1591.68" cy="-1623.43" r="10.00px"/>
<text data-id="190" x="1591.68" y="-1623.43">R190</text>
<circle data-id="191" cx="553.26" cy="-1079.85" r="10.00px"/>
<text data-id="191" x="553.26" y="-1079.85">R191</text>
<circle data-id="192" cx="1691.89" cy="-1039.45" r="10.00px"/>
<text data-id="192" x="1691.89" y="-1039.45">R192</text>
<circle data-id="193" cx="102.46" cy="-644.17" r="10.00px"/>
<text data-id="193" x="102.46" y="-644.17">R193</text>
<circle data-id="194" cx="505.45" cy="-1021.92" r="10.00px"/>
<text data-id="194" x="505.45" y="-1021.92">R194</text>
<circle data-id="195" cx="1375.83" cy="-584.48" r="10.00px"/>
<text data-id="195" x="1375.83" y="-584.48">R195</text>
<circle data-id="196" cx="1018.25" cy="-1402.23" r="10.00px"/>
<text data-id="196" x="1018.25" y="-1402.23">R196</text>
<circle data-id="197" cx="1445.17" cy="-1369.38" r="10.00px"/>
<text data-id="197" x="1445.17" y="-1369.38">R197</text>
<circle data-id="198" cx="1550.47" cy="-990.26" r="10.00px"/>
<text data-id="198" x="1550.47" y="-990.26">R198</text>
<circle data-id="199" cx="158.11" cy="-870.65" r="10.00px"/>
<text data-id="199" x="158.11" y="-870.65">R199</text>
<circle data-id="200" cx="1119.80" cy="-725.87" r="10.00px"/>
<text data-id="200" x="1119.80" y="-725.87">R200</text>
<circle data-id="201" cx="823.18" cy="-913.36" r="10.00px"/>
<text data-id="201" x="823.18" y="-913.36">R201</text>
<circle data-id="202" cx="1626.02" cy="-984.04" r="10.00px"/>
<text data-id="202" x="1626.02" y="-984.04">R202</text>
<circle data-id="203" cx="892.65" cy="-563.35" r="10.00px"/>
<text data-id="203" x="892.65" y="-563.35">R203</text>
<circle data-id="204" cx="1578.73" cy="-835.62" r="10.00px"/>
<text data-id="204" x="1578.73" y="-835.62">R204</text>
<circle data-id="205" cx="1504.49" cy="-900.44" r="10.00px"/>
<text data-id="205" x="1504.49" y="-900.44">R205</text>
<circle data-id="206" cx="594.25" cy="-1718.73" r="10.00px"/>
<text data-id="206" x="594.25" y="-1718.73">R206</text>
<circle data-id="207" cx="1692.37" cy="-281.07" r="10.00px"/>
<text data-id="207" x="1692.37" y="-281.07">R207</text>
<circle data-id="208" cx="1053.32" cy="-75.92" r="10.00px"/>
<text data-id="208" x="1053.32" y="-75.92">R208</text>
<circle data-id="209" cx="28.97" cy="-551.78" r="10.00px"/>
<text data-id="209" x="28.97" y="-551.78">R209</text>
<circle data-id="210" cx="299.97" cy="-227.61" r="10.00px"/>
<text data-id="210" x="299.97" y="-227.61">R210</text>
<circle data-id="211" cx="694.73" cy="-1319.92" r="10.00px"/>
<text data-id="211" x="694.73" y="-1319.92">R211</text>
<circle data-id="212" cx="439.87" cy="-219.80" r="10.00px"/>
<text data-id="212" x="439.87" y="-219.80">R212</text>
<circle data-id="213" cx="1226.69" cy="-929.45" r="10.00px"/>
<text data-id="213" x="1226.69" y="-929.45">R213</text>
<circle data-id="214" cx="245.32" cy="-699.29" r="10.00px"/>
<text data-id="214" x="245.32" y="-699.29">R214</text>
<circle data-id="215" cx="857.61" cy="-317.26" r="10.00px"/>
<text data-id="215" x="857.61" y="-317.26">R215</text>
<circle data-id="216" cx="1453.68" cy="-1255.20" r="10.00px"/>
<text data-id="216" x="1453.68" y="-1255.20">R216</text>
<circle data-id="217" cx="59.73" cy="-1597.86" r="10.00px"/>
<text data-id="217" x="59.73" y="-1597.86">R217</text>
<circle data-id="218" cx="955.47" cy="-283.97" r="10.00px"/>
<text data-id="218" x="955.47" y="-283.97">R218</text>
<circle data-id="219" cx="1148.95" cy="-299.96" r="10.00px"/>
<text data-id="219" x="1148.95" y="-299.96">R219</text>
<circle data-id="220" cx="1730.75" cy="-3.95" r="10.00px"/>
<text data-id="220" x="1730.75" y="-3.95">R220</text>
<circle data-id="221" cx="206.49" cy="-74.27" r="10.00px"/>
<text data-id="221" x="206.49" y="-74.27">R221</text>
<circle data-id="222" cx="404.64" cy="-1258.72" r="10.00px"/>
<text data-id="222" x="404.64" y="-1258.72">R222</text>
<circle data-id="223" cx="583.40" cy="-1147.96" r="10.00px"/>
<text data-id="223" x="583.40" y="-1147.96">R223</text>
<circle data-id="224" cx="1249.04" cy="-511.45" r="10.00px"/>
<text data-id="224" x="1249.04" y="-511.45">R224</text>
<circle data-id="225" cx="1546.76" cy="-1226.34" r="10.00px"/>
<text data-id="225" x="1546.76" y="-1226.34">R225</text>
<circle data-id="226" cx="1424.84" cy="-1547.14" r="10.00px"/>
<text data-id="226" x="1424.84" y="-1547.14">R226</text>
<circle data-id="227" cx="552.58" cy="-1690.39" r="10.00px"/>
<text data-id="227" x="552.58" y="-1690.39">R227</text>
<circle data-id="228" cx="142.12" cy="-621.37" r="10.00px"/>
<text data-id="228" x="142.12" y="-621.37">R228</text>
<circle data-id="229" cx="744.03" cy="-569.49" r="10.00px"/>
<text data-id="229" x="744.03" y="-569.49">R229</text>
<circle data-id="230" cx="482.16" cy="-1119.08" r="10.00px"/>
<text data-id="230" x="482.16" y="-1119.08">R230</text>
<circle data-id="231" cx="922.61" cy="-1612.45" r="10.00px"/>
<text data-id="231" x="922.61" y="-1612.45">R231</text>
<circle data-id="232" cx="112.99" cy="-84.19" r="10.00px"/>
<text data-id="232" x="112.99" y="-84.19">R232</text>
<circle data-id="233" cx="403.28" cy="-1671.76" r="10.00px"/>
<text data-id="233" x="403.28" y="-1671.76">R233</text>
<circle data-id="234" cx="1268.47" cy="-847.18" r="10.00px"/>
<text data-id="234" x="1268.47" y="-847.18">R234</text>
<circle data-id="235" cx="142.49" cy="-418.03" r="10.00px"/>
<text data-id="235" x="142.49" y="-418.03">R235</text>
<circle data-id="236" cx="212.17" cy="-1572.49" r="10.00px"/>
<text data-id="236" x="212.17" y="-1572.49">R236</text>
<circle data-id="237" cx="136.74" cy="-651.63" r="10.00px"/>
<text data-id="237" x="136.74" y="-651.63">R237</text>
<circle data-id="238" cx="595.45" cy="-294.46" r="10.00px"/>
<text data-id="238" x="595.45" y="-294.46">R238</text>
<circle data-id="239" cx="1424.09" cy="-985.35" r="10.00px"/>
<text data-id="239" x="1424.09" y="-985.35">R239</text>
<circle data-id="240" cx="589.13" cy="-670.88" r="10.00px"/>
<text data-id="240" x="589.13" y="-670.88">R240</text>
<circle data-id="241" cx="1476.15" cy="-149.28" r="10.00px"/>
<text data-id="241" x="1476.15" y="-149.28">R241</text>
<circle data-id="242" cx="171.15" cy="-1711.95" r="10.00px"/>
<text data-id="242" x="171.15" y="-1711.95">R242</text>
<circle data-id="243" cx="196.86" cy="-0.09" r="10.00px"/>
<text data-id="243" x="196.86" y="-0.09">R243</text>
<circle data-id="244" cx="1247.08" cy="-1153.40" r="10.00px"/>
<text data-id="244" x="1247.08" y="-1153.40">R244</text>
<circle data-id="245" cx="1460.28" cy="-1072.66" r="10.00px"/>
<text data-id="245" x="1460.28" y="-1072.66">R245</text>
<circle data-id="246" cx="1729.81" cy="-419.65" r="10.00px"/>
<text data-id="246" x="1729.81" y="-419.65">R246</text>
<circle data-id="247" cx="791.08" cy="-146.72" r="10.00px"/>
<text data-id="247" x="791.08" y="-146.72">R247</text>
<circle data-id="248" cx="416.26" cy="-267.09" r="10.00px"/>
<text data-id="248" x="416.26" y="-267.09">R248</text>
<circle data-id="249" cx="541.21" cy="-1464.79" r="10.00px"/>
<text data-id="249" x="541.21" y="-1464.79">R249</text>
<circle data-id="250" cx="1190.55" cy="-981.43" r="10.00px"/>
<text data-id="250" x="1190.55" y="-981.43">R250</text>
<circle data-id="251" cx="32.09" cy="-960.74" r="10.00px"/>
<text data-id="251" x="32.09" y="-960.74">R251</text>
<circle data-id="252" cx="345.10" cy="-700.19" r="10.00px"/>
<text data-id="252" x="345.10" y="-700.19">R252</text>
<circle data-id="253" cx="1161.84" cy="-532.34" r="10.00px"/>
<text data-id="253" x="1161.84" y="-532.34">R253</text>
<circle data-id="254" cx="30.22" cy="-130.26" r="10.00px"/>
<text data-id="254" x="30.22" y="-130.26">R254</text>
<circle data-id="255" cx="1161.64" cy="-1610.68" r="10.00px"/>
<text data-id="255" x="1161.64" y="-1610.68">R255</text>
<circle data-id="256" cx="459.38" cy="-1214.72" r="10.00px"/>
<text data-id="256" x="459.38" y="-1214.72">R256</text>
<circle data-id="257" cx="1655.34" cy="-323.00" r="10.00px"/>
<text data-id="257" x="1655.34" y="-323.00">R257</text>
<circle data-id="258" cx="1296.83" cy="-1112.69" r="10.00px"/>
<text data-id="258" x="1296.83" y="-1112.69">R258</text>
<circle data-id="259" cx="827.05" cy="-1365.65" r="10.00px"/>
<text data-id="259" x="827.05" y="-1365.65">R259</text>
<circle data-id="260" cx="1465.17" cy="-581.50" r="10.00px"/>
<text data-id="260" x="1465.17" y="-581.50">R260</text>
<circle data-id="261" cx="1281.13" cy="-1424.24" r="10.00px"/>
<text data-id="261" x="1281.13" y="-1424.24">R261</text>
<circle data-id="262" cx="671.70" cy="-592.15" r="10.00px"/>
<text data-id="262" x="671.70" y="-592.15">R262</text>
<circle data-id="263" cx="1388.71" cy="-752.15" r="10.00px"/>
<text data-id="263" x="1388.71" y="-752.15">R263</text>
<circle data-id="264" cx="320.30" cy="-1584.63" r="10.00px"/>
<text data-id="264" x="320.30" y="-1584.63">R264</text>
<circle data-id="265" cx="1090.38" cy="-1728.93" r="10.00px"/>
<text data-id="265" x="1090.38" y="-1728.93">R265</text>
<circle data-id="266" cx="701.68" cy="-1015.21" r="10.00px"/>
<text data-id="266" x="701.68" y="-1015.21">R266</text>
<circle data-id="267" cx="895.32" cy="-284.11" r="10.00px"/>
<text data-id="267" x="895.32" y="-284.11">R267</text>
<circle data-id="268" cx="1686.00" cy="-541.07" r="10.00px"/>
<text data-id="268" x="1686.00" y="-541.07">R268</text>
<circle data-id="269" cx="131.08" cy="-1693.57" r="10.00px"/>
<text data-id="269" x="131.08" y="-1693.57">R269</text>
<circle data-id="270" cx="1498.03" cy="-593.63" r="10.00px"/>
<text data-id="270" x="1498.03" y="-593.63">R270</text>
<circle data-id="271" cx="375.09" cy="-1569.77" r="10.00px"/>
<text data-id="271" x="375.09" y="-1569.77">R271</text>
<circle data-id="272" cx="273.69" cy="-846.57" r="10.00px"/>
<text data-id="272" x="273.69" y="-846.57">R272</text>
<circle data-id="273" cx="472.05" cy="-1086.38" r="10.00px"/>
<text data-id="273" x="472.05" y="-1086.38">R273</text>
<circle data-id="274" cx="397.52" cy="-197.30" r="10.00px"/>
<text data-id="274" x="397.52" y="-197.30">R274</text>
<circle data-id="275" cx="1529.97" cy="-1585.05" r="10.00px"/>
<text data-id="275" x="1529.97" y="-1585.05">R275</text>
<circle data-id="276" cx="1473.65" cy="-358.02" r="10.00px"/>
<text data-id="276" x="1473.65" y="-358.02">R276</text>
<circle data-id="277" cx="1626.84" cy="-830.10" r="10.00px"/>
<text data-id="277" x="1626.84" y="-830.10">R277</text>
<circle data-id="278" cx="742.51" cy="-858.54" r="10.00px"/>
<text data-id="278" x="742.51" y="-858.54">R278</text>
<circle data-id="279" cx="1252.36" cy="-242.16" r="10.00px"/>
<text data-id="279" x="1252.36" y="-242.16">R279</text>
<circle data-id="280" cx="538.44" cy="-260.28" r="10.00px"/>
<text data-id="280" x="538.44" y="-260.28">R280</text>
<circle data-id="281" cx="1039.98" cy="-1573.25" r="10.00px"/>
<text data-id="281" x="1039.98" y="-1573.25">R281</text>
<circle data-id="282" cx="1593.08" cy="-923.36" r="10.00px"/>
<text data-id="282" x="1593.08" y="-923.36">R282</text>
<circle data-id="283" cx="115.58" cy="-501.22" r="10.00px"/>
<text data-id="283" x="115.58" y="-501.22">R283</text>
<circle data-id="284" cx="958.90" cy="-3.58" r="10.00px"/>
<text data-id="284" x="958.90" y="-3.58">R284</text>
<circle data-id="285" cx="461.45" cy="-554.15" r="10.00px"/>
<text data-id="285" x="461.45" y="-554.15">R285</text>
<circle data-id="286" cx="1002.08" cy="-1246.36" r="10.00px"/>
<text data-id="286" x="1002.08" y="-1246.36">R286</text>
<circle data-id="287" cx="1086.92" cy="-1298.74" r="10.00px"/>
<text data-id="287" x="1086.92" y="-1298.74">R287</text>
<circle data-id="288" cx="1007.17" cy="-863.68" r="10.00px"/>
<text data-id="288" x="1007.17" y="-863.68">R288</text>
<circle data-id="289" cx="1713.54" cy="-191.25" r="10.00px"/>
<text data-id="289" x="1713.54" y="-191.25">R289</text>
<circle data-id="290" cx="145.89" cy="-1299.08" r="10.00px"/>
<text data-id="290" x="145.89" y="-1299.08">R290</text>
<circle data-id="291" cx="546.78" cy="-13.97" r="10.00px"/>
<text data-id="291" x="546.78" y="-13.97">R291</text>
<circle data-id="292" cx="1121.41" cy="-595.74" r="10.00px"/>
<text data-id="292" x="1121.41" y="-595.74">R292</text>
<circle data-id="293" cx="1548.07" cy="-848.14" r="10.00px"/>
<text data-id="293" x="1548.07" y="-848.14">R293</text>
<circle data-id="294" cx="1566.61" cy="-1452.71" r="10.00px"/>
<text data-id="294" x="1566.61" y="-1452.71">R294</text>
<circle data-id="295" cx="380.91" cy="-156.91" r="10.00px"/>
<text data-id="295" x="380.91" y="-156.91">R295</text>
<circle data-id="296" cx="1184.38" cy="-350.31" r="10.00px"/>
<text data-id="296" x="1184.38" y="-350.31">R296</text>
<circle data-id="297" cx="195.38" cy="-823.37" r="10.00px"/>
<text data-id="297" x="195.38" y="-823.37">R297</text>
<circle data-id="298" cx="269.64" cy="-1026.14" r="10.00px"/>
<text data-id="298" x="269.64" y="-1026.14">R298</text>
<circle data-id="299" cx="1220.87" cy="-78.87" r="10.00px"/>
<text data-id="299" x="1220.87" y="-78.87">R299</text>
</svg>
