<svg id="topo" width="1804.79" height="1818.84" viewBox="-29.05 -44.91 1804.79 1818.84" xmlns="http://www.w3.org/2000/svg">
<style>#topo path {fill: none; stroke: grey; stroke-width: 6;} #topo circle {fill: lightblue; stroke: none;} #topo text {fill: black; stroke: none; font-size: 16; font-family: sans-serif; text-anchor:middle;}</style>
<path d="M1351.14,1302.23,1331.81,1266.02"/>
<path d="M1351.14,1302.23,1271.11,1301.09"/>
<path d="M1351.14,1302.23,1468.01,1314.85"/>
<path d="M1351.14,1302.23,1386.22,1436.58"/>
<path d="M1351.14,1302.23,1445.17,1369.38"/>
<path d="M1351.14,1302.23,1453.68,1255.20"/>
<path d="M1351.14,1302.23,1281.13,1424.24"/>
<path d="M1331.81,1266.02,1271.11,1301.09"/>
<path d="M1331.81,1266.02,1332.16,1209.85"/>
<path d="M190.32,869.72,180.19,1003.84"/>
<path d="M190.32,869.72,278.09,917.17"/>
<path d="M190.32,869.72,158.11,870.65"/>
<path d="M190.32,869.72,273.69,846.57"/>
<path d="M190.32,869.72,195.38,823.37"/>
<path d="M1665.45,414.31,1579.27,371.40"/>
<path d="M1665.45,414.31,1601.77,455.27"/>
<path d="M1665.45,414.31,1729.81,419.65"/>
<path d="M1665.45,414.31,1655.34,323.00"/>
<path d="M1665.45,414.31,1686.00,541.07"/>
<path d="M399.23,670.20,436.85,623.54"/>
<path d="M399.23,670.20,366.60,734.68"/>
<path d="M399.23,670.20,345.10,700.19"/>
<path d="M536.91,131.29,636.27,87.81"/>
<path d="M536.91,131.29,400.83,46.93"/>
<path d="M536.91,131.29,619.29,249.25"/>
<path d="M536.91,131.29,439.87,219.80"/>
<path d="M536.91,131.29,538.44,260.28"/>
<path d="M536.91,131.29,546.78,13.97"/>
<path d="M831.39,147.19,881.02,226.86"/>
<path d="M831.39,147.19,895.88,116.45"/>
<path d="M831.39,147.19,791.08,146.72"/>
<path d="M525.12,1370.33,555.68,1331.57"/>
<path d="M525.12,1370.33,478.75,1406.75"/>
<path d="M525.12,1370.33,541.21,1464.79"/>
<path d="M1271.11,1301.09,1109.78,1218.23"/>
<path d="M1271.11,1301.09,1221.84,1371.94"/>
<path d="M470.76,650.50,436.85,623.54"/>
<path d="M470.76,650.50,536.83,615.72"/>
<path d="M470.76,650.50,559.58,683.30"/>
<path d="M470.76,650.50,463.84,827.17"/>
<path d="M407.38,452.43,224.28,444.18"/>
<path d="M407.38,452.43,265.55,311.82"/>
<path d="M407.38,452.43,509.62,484.94"/>
<path d="M407.38,452.43,232.23,571.66"/>
<path d="M407.38,452.43,416.26,267.09"/>
<path d="M407.38,452.43,461.45,554.15"/>
<path d="M802.31,783.39,840.65,704.89"/>
<path d="M802.31,783.39,782.68,820.09"/>
<path d="M802.31,783.39,963.45,783.49"/>
<path d="M1729.65,1123.58,1638.88,1307.70"/>
<path d="M1729.65,1123.58,1563.04,1139.80"/>
<path d="M1729.65,1123.58,1691.89,1039.45"/>
<path d="M18.29,1442.41,60.74,1473.12"/>
<path d="M18.29,1442.41,145.89,1299.08"/>
<path d="M1618.20,578.67,1612.81,551.86"/>
<path d="M1618.20,578.67,1524.36,695.04"/>
<path d="M1618.20,578.67,1669.67,584.14"/>
<path d="M1618.20,578.67,1498.03,593.63"/>
<path d="M205.89,364.33,224.28,444.18"/>
<path d="M205.89,364.33,265.55,311.82"/>
<path d="M205.89,364.33,88.47,268.98"/>
<path d="M205.89,364.33,142.49,418.03"/>
<path d="M1487.50,186.73,1418.23,183.01"/>
<path d="M1487.50,186.73,1616.82,270.93"/>
<path d="M1487.50,186.73,1476.15,149.28"/>
<path d="M1487.50,186.73,1473.65,358.02"/>
<path d="M74.00,353.08,19.27,436.76"/>
<path d="M74.00,353.08,88.47,268.98"/>
<path d="M74.00,353.08,142.49,418.03"/>
<path d="M436.85,623.54,461.45,554.15"/>
<path d="M60.74,1473.12,47.51,1536.37"/>
<path d="M60.74,1473.12,136.37,1485.65"/>
<path d="M60.74,1473.12,145.89,1299.08"/>
<path d="M924.45,320.98,943.52,370.38"/>
<path d="M924.45,320.98,857.61,317.26"/>
<path d="M924.45,320.98,955.47,283.97"/>
<path d="M924.45,320.98,895.32,284.11"/>
<path d="M495.60,934.93,289.70,959.92"/>
<path d="M495.60,934.93,556.04,849.10"/>
<path d="M495.60,934.93,463.84,827.17"/>
<path d="M495.60,934.93,505.45,1021.92"/>
<path d="M224.28,444.18,232.23,571.66"/>
<path d="M224.28,444.18,142.49,418.03"/>
<path d="M314.69,170.51,356.40,65.68"/>
<path d="M314.69,170.51,303.97,193.43"/>
<path d="M314.69,170.51,206.49,74.27"/>
<path d="M314.69,170.51,380.91,156.91"/>
<path d="M147.65,1155.59,190.21,1235.39"/>
<path d="M147.65,1155.59,180.19,1003.84"/>
<path d="M147.65,1155.59,89.12,1209.16"/>
<path d="M147.65,1155.59,269.64,1026.14"/>
<path d="M1547.63,920.88,1550.47,990.26"/>
<path d="M1547.63,920.88,1504.49,900.44"/>
<path d="M1547.63,920.88,1593.08,923.36"/>
<path d="M1547.63,920.88,1548.07,848.14"/>
<path d="M1684.21,81.80,1626.74,92.48"/>
<path d="M1684.21,81.80,1643.58,52.30"/>
<path d="M1684.21,81.80,1730.75,3.95"/>
<path d="M1684.21,81.80,1713.54,191.25"/>
<path d="M115.94,526.42,232.23,571.66"/>
<path d="M115.94,526.42,28.97,551.78"/>
<path d="M115.94,526.42,142.12,621.37"/>
<path d="M115.94,526.42,115.58,501.22"/>
<path d="M1213.36,173.57,1189.42,192.36"/>
<path d="M1213.36,173.57,1196.29,121.02"/>
<path d="M1213.36,173.57,1252.36,242.16"/>
<path d="M356.40,65.68,295.59,33.33"/>
<path d="M356.40,65.68,400.83,46.93"/>
<path d="M356.40,65.68,380.91,156.91"/>
<path d="M1579.27,371.40,1501.30,440.56"/>
<path d="M1579.27,371.40,1601.77,455.27"/>
<path d="M1579.27,371.40,1600.40,315.72"/>
<path d="M1579.27,371.40,1473.65,358.02"/>
<path d="M1037.33,1004.31,955.91,1081.80"/>
<path d="M1037.33,1004.31,932.62,904.78"/>
<path d="M1037.33,1004.31,1135.25,955.37"/>
<path d="M1037.33,1004.31,1034.38,1148.11"/>
<path d="M1037.33,1004.31,910.45,1004.18"/>
<path d="M1037.33,1004.31,1007.17,863.68"/>
<path d="M989.46,1409.50,999.94,1473.64"/>
<path d="M989.46,1409.50,820.55,1438.49"/>
<path d="M989.46,1409.50,837.59,1481.41"/>
<path d="M989.46,1409.50,1018.25,1402.23"/>
<path d="M989.46,1409.50,827.05,1365.65"/>
<path d="M584.45,860.43,670.27,788.26"/>
<path d="M584.45,860.43,672.55,877.72"/>
<path d="M584.45,860.43,556.04,849.10"/>
<path d="M1381.62,509.55,1430.95,499.77"/>
<path d="M1381.62,509.55,1311.69,341.18"/>
<path d="M1381.62,509.55,1375.83,584.48"/>
<path d="M1381.62,509.55,1249.04,511.45"/>
<path d="M619.68,602.71,541.13,507.65"/>
<path d="M619.68,602.71,536.83,615.72"/>
<path d="M619.68,602.71,589.13,670.88"/>
<path d="M619.68,602.71,671.70,592.15"/>
<path d="M1403.96,1515.22,1490.48,1499.52"/>
<path d="M1403.96,1515.22,1386.22,1436.58"/>
<path d="M1403.96,1515.22,1280.37,1504.13"/>
<path d="M1403.96,1515.22,1424.84,1547.14"/>
<path d="M923.13,35.46,691.34,16.73"/>
<path d="M923.13,35.46,895.88,116.45"/>
<path d="M923.13,35.46,958.90,3.58"/>
<path d="M1638.88,1307.70,1661.98,1333.05"/>
<path d="M1638.88,1307.70,1568.07,1344.43"/>
<path d="M1638.88,1307.70,1546.76,1226.34"/>
<path d="M809.57,849.46,782.68,820.09"/>
<path d="M809.57,849.46,963.45,783.49"/>
<path d="M809.57,849.46,752.94,905.44"/>
<path d="M809.57,849.46,823.18,913.36"/>
<path d="M809.57,849.46,742.51,858.54"/>
<path d="M300.77,810.74,366.60,734.68"/>
<path d="M300.77,810.74,278.37,718.96"/>
<path d="M300.77,810.74,463.84,827.17"/>
<path d="M300.77,810.74,273.69,846.57"/>
<path d="M955.91,1081.80,1034.38,1148.11"/>
<path d="M955.91,1081.80,891.48,1051.48"/>
<path d="M265.55,311.82,299.97,227.61"/>
<path d="M91.85,1705.14,53.63,1676.77"/>
<path d="M91.85,1705.14,131.08,1693.57"/>
<path d="M1109.78,1218.23,1034.38,1148.11"/>
<path d="M1109.78,1218.23,1029.30,1213.84"/>
<path d="M1109.78,1218.23,1087.69,1252.37"/>
<path d="M1109.78,1218.23,1247.08,1153.40"/>
<path d="M1163.61,958.71,1135.25,955.37"/>
<path d="M1163.61,958.71,1226.69,929.45"/>
<path d="M1163.61,958.71,1190.55,981.43"/>
<path d="M541.13,507.65,509.62,484.94"/>
<path d="M541.13,507.65,536.83,615.72"/>
<path d="M541.13,507.65,620.01,365.12"/>
<path d="M541.13,507.65,461.45,554.15"/>
<path d="M714.23,1137.14,668.26,1212.01"/>
<path d="M714.23,1137.14,819.45,1138.81"/>
<path d="M714.23,1137.14,644.89,1109.55"/>
<path d="M509.62,484.94,620.01,365.12"/>
<path d="M509.62,484.94,461.45,554.15"/>
<path d="M408.99,1705.79,552.58,1690.39"/>
<path d="M408.99,1705.79,403.28,1671.76"/>
<path d="M1612.81,551.86,1502.83,554.73"/>
<path d="M1612.81,551.86,1579.40,481.17"/>
<path d="M1612.81,551.86,1686.00,541.07"/>
<path d="M932.62,904.78,910.45,1004.18"/>
<path d="M932.62,904.78,987.89,839.15"/>
<path d="M932.62,904.78,823.18,913.36"/>
<path d="M932.62,904.78,1007.17,863.68"/>
<path d="M1460.99,655.32,1431.74,687.93"/>
<path d="M1460.99,655.32,1524.36,695.04"/>
<path d="M1460.99,655.32,1375.83,584.48"/>
<path d="M1460.99,655.32,1465.17,581.50"/>
<path d="M1460.99,655.32,1498.03,593.63"/>
<path d="M411.65,1125.37,370.47,1140.19"/>
<path d="M411.65,1125.37,482.16,1119.08"/>
<path d="M411.65,1125.37,459.38,1214.72"/>
<path d="M411.65,1125.37,472.05,1086.38"/>
<path d="M636.27,87.81,691.34,16.73"/>
<path d="M636.27,87.81,619.29,249.25"/>
<path d="M636.27,87.81,791.08,146.72"/>
<path d="M636.27,87.81,546.78,13.97"/>
<path d="M1256.09,652.90,1431.74,687.93"/>
<path d="M1256.09,652.90,1215.78,718.52"/>
<path d="M1256.09,652.90,1375.83,584.48"/>
<path d="M1256.09,652.90,1249.04,511.45"/>
<path d="M1256.09,652.90,1161.84,532.34"/>
<path d="M1256.09,652.90,1388.71,752.15"/>
<path d="M1256.09,652.90,1121.41,595.74"/>
<path d="M933.27,637.65,840.65,704.89"/>
<path d="M933.27,637.65,1036.96,567.63"/>
<path d="M933.27,637.65,981.76,671.84"/>
<path d="M933.27,637.65,892.65,563.35"/>
<path d="M1431.74,687.93,1375.83,584.48"/>
<path d="M1431.74,687.93,1388.71,752.15"/>
<path d="M1501.30,440.56,1430.95,499.77"/>
<path d="M1501.30,440.56,1502.83,554.73"/>
<path d="M1501.30,440.56,1579.40,481.17"/>
<path d="M1501.30,440.56,1473.65,358.02"/>
<path d="M705.25,1633.51,708.41,1528.12"/>
<path d="M705.25,1633.51,910.12,1562.56"/>
<path d="M705.25,1633.51,594.25,1718.73"/>
<path d="M705.25,1633.51,922.61,1612.45"/>
<path d="M51.95,672.05,68.05,755.65"/>
<path d="M51.95,672.05,102.46,644.17"/>
<path d="M51.95,672.05,28.97,551.78"/>
<path d="M295.59,33.33,206.49,74.27"/>
<path d="M295.59,33.33,196.86,0.09"/>
<path d="M840.65,704.89,963.45,783.49"/>
<path d="M840.65,704.89,803.25,572.43"/>
<path d="M782.68,820.09,742.51,858.54"/>
<path d="M1017.46,528.98,943.52,370.38"/>
<path d="M1017.46,528.98,1036.96,567.63"/>
<path d="M1017.46,528.98,1098.78,509.22"/>
<path d="M1017.46,528.98,892.65,563.35"/>
<path d="M1135.25,955.37,1007.17,863.68"/>
<path d="M366.60,734.68,463.84,827.17"/>
<path d="M366.60,734.68,345.10,700.19"/>
<path d="M999.94,1473.64,837.59,1481.41"/>
<path d="M999.94,1473.64,1088.68,1455.93"/>
<path d="M999.94,1473.64,910.12,1562.56"/>
<path d="M999.94,1473.64,1039.98,1573.25"/>
<path d="M691.34,16.73,791.08,146.72"/>
<path d="M691.34,16.73,546.78,13.97"/>
<path d="M19.27,436.76,61.03,491.15"/>
<path d="M19.27,436.76,20.86,503.13"/>
<path d="M19.27,436.76,142.49,418.03"/>
<path d="M1430.95,499.77,1502.83,554.73"/>
<path d="M1430.95,499.77,1465.17,581.50"/>
<path d="M47.51,1536.37,59.73,1597.86"/>
<path d="M289.70,959.92,278.09,917.17"/>
<path d="M289.70,959.92,505.45,1021.92"/>
<path d="M289.70,959.92,269.64,1026.14"/>
<path d="M1248.50,824.85,1215.78,718.52"/>
<path d="M1248.50,824.85,1268.47,847.18"/>
<path d="M1217.18,1652.67,1359.11,1617.53"/>
<path d="M1217.18,1652.67,1280.37,1504.13"/>
<path d="M1217.18,1652.67,1161.64,1610.68"/>
<path d="M1217.18,1652.67,1090.38,1728.93"/>
<path d="M819.21,1176.97,819.45,1138.81"/>
<path d="M819.21,1176.97,694.73,1319.92"/>
<path d="M819.21,1176.97,827.05,1365.65"/>
<path d="M819.21,1176.97,1002.08,1246.36"/>
<path d="M820.55,1438.49,708.41,1528.12"/>
<path d="M820.55,1438.49,837.59,1481.41"/>
<path d="M820.55,1438.49,827.05,1365.65"/>
<path d="M53.63,1676.77,59.73,1597.86"/>
<path d="M400.83,46.93,546.78,13.97"/>
<path d="M668.26,1212.01,633.86,1281.24"/>
<path d="M668.26,1212.01,644.89,1109.55"/>
<path d="M668.26,1212.01,583.40,1147.96"/>
<path d="M419.73,1501.38,478.75,1406.75"/>
<path d="M419.73,1501.38,491.58,1553.46"/>
<path d="M419.73,1501.38,541.21,1464.79"/>
<path d="M419.73,1501.38,375.09,1569.77"/>
<path d="M497.30,1251.02,555.68,1331.57"/>
<path d="M497.30,1251.02,583.40,1147.96"/>
<path d="M497.30,1251.02,459.38,1214.72"/>
<path d="M619.29,249.25,701.64,267.24"/>
<path d="M619.29,249.25,595.45,294.46"/>
<path d="M619.29,249.25,538.44,260.28"/>
<path d="M61.03,491.15,20.86,503.13"/>
<path d="M61.03,491.15,115.58,501.22"/>
<path d="M963.45,783.49,1018.42,809.64"/>
<path d="M963.45,783.49,981.76,671.84"/>
<path d="M963.45,783.49,987.89,839.15"/>
<path d="M1051.16,754.26,1018.42,809.64"/>
<path d="M1051.16,754.26,981.76,671.84"/>
<path d="M1051.16,754.26,1119.80,725.87"/>
<path d="M1252.52,286.07,1311.69,341.18"/>
<path d="M1252.52,286.07,1244.23,349.32"/>
<path d="M1252.52,286.07,1148.95,299.96"/>
<path d="M1252.52,286.07,1252.36,242.16"/>
<path d="M1034.38,1148.11,1029.30,1213.84"/>
<path d="M1034.38,1148.11,1205.91,1042.50"/>
<path d="M1034.38,1148.11,1172.82,1008.73"/>
<path d="M555.68,1331.57,633.86,1281.24"/>
<path d="M15.95,224.92,94.29,169.49"/>
<path d="M15.95,224.92,88.47,268.98"/>
<path d="M15.95,224.92,30.22,130.26"/>
<path d="M1626.74,92.48,1616.82,270.93"/>
<path d="M1626.74,92.48,1643.58,52.30"/>
<path d="M1626.74,92.48,1476.15,149.28"/>
<path d="M1070.44,26.33,1102.89,72.66"/>
<path d="M1070.44,26.33,1053.32,75.92"/>
<path d="M1070.44,26.33,958.90,3.58"/>
<path d="M1215.78,718.52,1119.80,725.87"/>
<path d="M1215.78,718.52,1388.71,752.15"/>
<path d="M1215.78,718.52,1121.41,595.74"/>
<path d="M1563.04,1139.80,1620.39,1031.17"/>
<path d="M1563.04,1139.80,1473.38,1201.64"/>
<path d="M1563.04,1139.80,1546.76,1226.34"/>
<path d="M1563.04,1139.80,1460.28,1072.66"/>
<path d="M1018.42,809.64,987.89,839.15"/>
<path d="M667.16,1047.57,644.89,1109.55"/>
<path d="M667.16,1047.57,701.68,1015.21"/>
<path d="M536.83,615.72,559.58,683.30"/>
<path d="M536.83,615.72,589.13,670.88"/>
<path d="M536.83,615.72,461.45,554.15"/>
<path d="M1029.30,1213.84,1087.69,1252.37"/>
<path d="M1029.30,1213.84,1002.08,1246.36"/>
<path d="M1189.42,192.36,1148.95,299.96"/>
<path d="M1189.42,192.36,1252.36,242.16"/>
<path d="M108.76,51.22,112.99,84.19"/>
<path d="M108.76,51.22,196.86,0.09"/>
<path d="M708.41,1528.12,837.59,1481.41"/>
<path d="M708.41,1528.12,694.73,1319.92"/>
<path d="M708.41,1528.12,541.21,1464.79"/>
<path d="M1665.17,1420.64,1661.98,1333.05"/>
<path d="M1665.17,1420.64,1568.07,1344.43"/>
<path d="M1665.17,1420.64,1566.61,1452.71"/>
<path d="M670.27,788.26,672.55,877.72"/>
<path d="M670.27,788.26,589.13,670.88"/>
<path d="M670.27,788.26,742.51,858.54"/>
<path d="M190.21,1235.39,370.47,1140.19"/>
<path d="M190.21,1235.39,89.12,1209.16"/>
<path d="M190.21,1235.39,404.64,1258.72"/>
<path d="M190.21,1235.39,145.89,1299.08"/>
<path d="M1205.91,1042.50,1301.62,992.04"/>
<path d="M1205.91,1042.50,1172.82,1008.73"/>
<path d="M1205.91,1042.50,1247.08,1153.40"/>
<path d="M1205.91,1042.50,1296.83,1112.69"/>
<path d="M136.37,1485.65,212.17,1572.49"/>
<path d="M136.37,1485.65,145.89,1299.08"/>
<path d="M278.37,718.96,245.32,699.29"/>
<path d="M278.37,718.96,345.10,700.19"/>
<path d="M278.37,718.96,195.38,823.37"/>
<path d="M1301.62,992.04,1296.44,954.49"/>
<path d="M1301.62,992.04,1190.55,981.43"/>
<path d="M1301.62,992.04,1296.83,1112.69"/>
<path d="M1362.95,198.31,1311.69,341.18"/>
<path d="M1362.95,198.31,1418.23,183.01"/>
<path d="M1362.95,198.31,1252.36,242.16"/>
<path d="M633.86,1281.24,694.73,1319.92"/>
<path d="M881.02,226.86,701.64,267.24"/>
<path d="M881.02,226.86,895.88,116.45"/>
<path d="M881.02,226.86,895.32,284.11"/>
<path d="M1620.39,1031.17,1658.20,1036.31"/>
<path d="M1620.39,1031.17,1550.47,990.26"/>
<path d="M1620.39,1031.17,1626.02,984.04"/>
<path d="M1524.36,695.04,1670.38,793.70"/>
<path d="M1524.36,695.04,1578.73,835.62"/>
<path d="M837.59,1481.41,910.12,1562.56"/>
<path d="M672.55,877.72,752.94,905.44"/>
<path d="M672.55,877.72,701.68,1015.21"/>
<path d="M672.55,877.72,742.51,858.54"/>
<path d="M1311.69,341.18,1244.23,349.32"/>
<path d="M1311.69,341.18,1473.65,358.02"/>
<path d="M1567.60,1689.71,1439.54,1641.72"/>
<path d="M1567.60,1689.71,1591.68,1623.43"/>
<path d="M1129.86,56.05,1196.29,121.02"/>
<path d="M1129.86,56.05,1102.89,72.66"/>
<path d="M1129.86,56.05,1220.87,78.87"/>
<path d="M1196.29,121.02,1220.87,78.87"/>
<path d="M1418.23,183.01,1476.15,149.28"/>
<path d="M1418.23,183.01,1473.65,358.02"/>
<path d="M525.49,1043.54,553.26,1079.85"/>
<path d="M525.49,1043.54,505.45,1021.92"/>
<path d="M525.49,1043.54,472.05,1086.38"/>
<path d="M891.48,1051.48,910.45,1004.18"/>
<path d="M891.48,1051.48,819.45,1138.81"/>
<path d="M891.48,1051.48,701.68,1015.21"/>
<path d="M1364.50,919.29,1412.19,926.62"/>
<path d="M1364.50,919.29,1333.61,943.39"/>
<path d="M1364.50,919.29,1268.47,847.18"/>
<path d="M1364.50,919.29,1388.71,752.15"/>
<path d="M478.75,1406.75,404.64,1258.72"/>
<path d="M478.75,1406.75,541.21,1464.79"/>
<path d="M180.19,1003.84,158.11,870.65"/>
<path d="M180.19,1003.84,32.09,960.74"/>
<path d="M180.19,1003.84,269.64,1026.14"/>
<path d="M943.52,370.38,1124.52,325.57"/>
<path d="M943.52,370.38,892.65,563.35"/>
<path d="M803.25,572.43,892.65,563.35"/>
<path d="M803.25,572.43,857.61,317.26"/>
<path d="M803.25,572.43,744.03,569.49"/>
<path d="M910.45,1004.18,823.18,913.36"/>
<path d="M1036.96,567.63,981.76,671.84"/>
<path d="M1036.96,567.63,1098.78,509.22"/>
<path d="M1036.96,567.63,1121.41,595.74"/>
<path d="M1300.35,1202.05,1332.16,1209.85"/>
<path d="M1300.35,1202.05,1247.08,1153.40"/>
<path d="M1300.35,1202.05,1296.83,1112.69"/>
<path d="M701.64,267.24,620.01,365.12"/>
<path d="M701.64,267.24,857.61,317.26"/>
<path d="M701.64,267.24,791.08,146.72"/>
<path d="M1468.01,1314.85,1568.07,1344.43"/>
<path d="M1468.01,1314.85,1445.17,1369.38"/>
<path d="M1468.01,1314.85,1453.68,1255.20"/>
<path d="M1502.83,554.73,1579.40,481.17"/>
<path d="M1502.83,554.73,1465.17,581.50"/>
<path d="M1502.83,554.73,1498.03,593.63"/>
<path d="M1490.48,1499.52,1445.17,1369.38"/>
<path d="M1490.48,1499.52,1424.84,1547.14"/>
<path d="M1490.48,1499.52,1529.97,1585.05"/>
<path d="M1490.48,1499.52,1566.61,1452.71"/>
<path d="M1439.54,1641.72,1359.11,1617.53"/>
<path d="M1439.54,1641.72,1424.84,1547.14"/>
<path d="M1439.54,1641.72,1529.97,1585.05"/>
<path d="M303.97,193.43,94.29,169.49"/>
<path d="M303.97,193.43,299.97,227.61"/>
<path d="M1601.77,455.27,1579.40,481.17"/>
<path d="M1601.77,455.27,1686.00,541.07"/>
<path d="M1088.68,1455.93,1280.37,1504.13"/>
<path d="M1088.68,1455.93,1165.02,1378.48"/>
<path d="M1088.68,1455.93,1018.25,1402.23"/>
<path d="M1088.68,1455.93,1161.64,1610.68"/>
<path d="M1088.68,1455.93,1039.98,1573.25"/>
<path d="M1658.20,1036.31,1691.89,1039.45"/>
<path d="M278.09,917.17,273.69,846.57"/>
<path d="M370.47,1140.19,404.64,1258.72"/>
<path d="M370.47,1140.19,269.64,1026.14"/>
<path d="M910.12,1562.56,922.61,1612.45"/>
<path d="M910.12,1562.56,1039.98,1573.25"/>
<path d="M1550.67,1420.10,1568.07,1344.43"/>
<path d="M1550.67,1420.10,1445.17,1369.38"/>
<path d="M1550.67,1420.10,1566.61,1452.71"/>
<path d="M1568.07,1344.43,1546.76,1226.34"/>
<path d="M1386.22,1436.58,1280.37,1504.13"/>
<path d="M1386.22,1436.58,1445.17,1369.38"/>
<path d="M1386.22,1436.58,1281.13,1424.24"/>
<path d="M184.92,1681.13,212.17,1572.49"/>
<path d="M184.92,1681.13,171.15,1711.95"/>
<path d="M184.92,1681.13,131.08,1693.57"/>
<path d="M556.04,849.10,552.58,824.02"/>
<path d="M1296.44,954.49,1333.61,943.39"/>
<path d="M1296.44,954.49,1226.69,929.45"/>
<path d="M1296.44,954.49,1268.47,847.18"/>
<path d="M987.89,839.15,1007.17,863.68"/>
<path d="M1102.89,72.66,1053.32,75.92"/>
<path d="M1412.19,926.62,1504.49,900.44"/>
<path d="M1412.19,926.62,1424.09,985.35"/>
<path d="M644.89,1109.55,553.26,1079.85"/>
<path d="M644.89,1109.55,583.40,1147.96"/>
<path d="M199.43,684.36,233.39,665.21"/>
<path d="M199.43,684.36,245.32,699.29"/>
<path d="M199.43,684.36,136.74,651.63"/>
<path d="M199.43,684.36,195.38,823.37"/>
<path d="M1600.40,315.72,1616.82,270.93"/>
<path d="M1600.40,315.72,1655.34,323.00"/>
<path d="M89.12,1209.16,145.89,1299.08"/>
<path d="M1172.82,1008.73,1190.55,981.43"/>
<path d="M94.29,169.49,58.71,131.47"/>
<path d="M94.29,169.49,88.47,268.98"/>
<path d="M94.29,169.49,299.97,227.61"/>
<path d="M94.29,169.49,112.99,84.19"/>
<path d="M232.23,571.66,233.39,665.21"/>
<path d="M232.23,571.66,142.12,621.37"/>
<path d="M559.58,683.30,552.58,824.02"/>
<path d="M559.58,683.30,589.13,670.88"/>
<path d="M1332.16,1209.85,1473.38,1201.64"/>
<path d="M1332.16,1209.85,1453.68,1255.20"/>
<path d="M1332.16,1209.85,1460.28,1072.66"/>
<path d="M752.94,905.44,823.18,913.36"/>
<path d="M752.94,905.44,701.68,1015.21"/>
<path d="M752.94,905.44,742.51,858.54"/>
<path d="M233.39,665.21,245.32,699.29"/>
<path d="M1244.23,349.32,1249.04,511.45"/>
<path d="M1244.23,349.32,1184.38,350.31"/>
<path d="M1359.11,1617.53,1280.37,1504.13"/>
<path d="M1359.11,1617.53,1424.84,1547.14"/>
<path d="M1670.38,793.70,1707.14,599.77"/>
<path d="M1670.38,793.70,1626.84,830.10"/>
<path d="M620.01,365.12,744.03,569.49"/>
<path d="M620.01,365.12,595.45,294.46"/>
<path d="M1333.61,943.39,1268.47,847.18"/>
<path d="M1098.78,509.22,1124.52,325.57"/>
<path d="M1098.78,509.22,1161.84,532.34"/>
<path d="M1098.78,509.22,1121.41,595.74"/>
<path d="M1098.78,509.22,1184.38,350.31"/>
<path d="M1707.14,599.77,1669.67,584.14"/>
<path d="M1616.82,270.93,1692.37,281.07"/>
<path d="M1616.82,270.93,1655.34,323.00"/>
<path d="M1280.37,1504.13,1161.64,1610.68"/>
<path d="M1280.37,1504.13,1281.13,1424.24"/>
<path d="M58.71,131.47,112.99,84.19"/>
<path d="M58.71,131.47,30.22,130.26"/>
<path d="M1124.52,325.57,955.47,283.97"/>
<path d="M1124.52,325.57,1148.95,299.96"/>
<path d="M1124.52,325.57,1184.38,350.31"/>
<path d="M68.05,755.65,158.11,870.65"/>
<path d="M68.05,755.65,32.09,960.74"/>
<path d="M68.05,755.65,195.38,823.37"/>
<path d="M1087.69,1252.37,1086.92,1298.74"/>
<path d="M1643.58,52.30,1730.75,3.95"/>
<path d="M1669.67,584.14,1686.00,541.07"/>
<path d="M491.58,1553.46,552.58,1690.39"/>
<path d="M491.58,1553.46,403.28,1671.76"/>
<path d="M491.58,1553.46,541.21,1464.79"/>
<path d="M491.58,1553.46,375.09,1569.77"/>
<path d="M552.58,824.02,463.84,827.17"/>
<path d="M20.86,503.13,28.97,551.78"/>
<path d="M1165.02,1378.48,1221.84,1371.94"/>
<path d="M1165.02,1378.48,1086.92,1298.74"/>
<path d="M1473.38,1201.64,1453.68,1255.20"/>
<path d="M1473.38,1201.64,1546.76,1226.34"/>
<path d="M1473.38,1201.64,1460.28,1072.66"/>
<path d="M1221.84,1371.94,1281.13,1424.24"/>
<path d="M1591.68,1623.43,1529.97,1585.05"/>
<path d="M553.26,1079.85,583.40,1147.96"/>
<path d="M553.26,1079.85,482.16,1119.08"/>
<path d="M553.26,1079.85,472.05,1086.38"/>
<path d="M102.46,644.17,28.97,551.78"/>
<path d="M102.46,644.17,142.12,621.37"/>
<path d="M102.46,644.17,136.74,651.63"/>
<path d="M505.45,1021.92,472.05,1086.38"/>
<path d="M1375.83,584.48,1249.04,511.45"/>
<path d="M1375.83,584.48,1465.17,581.50"/>
<path d="M1018.25,1402.23,1002.08,1246.36"/>
<path d="M1018.25,1402.23,1086.92,1298.74"/>
<path d="M1550.47,990.26,1626.02,984.04"/>
<path d="M1550.47,990.26,1424.09,985.35"/>
<path d="M1550.47,990.26,1460.28,1072.66"/>
<path d="M1550.47,990.26,1593.08,923.36"/>
<path d="M158.11,870.65,32.09,960.74"/>
<path d="M1119.80,725.87,1121.41,595.74"/>
<path d="M1626.02,984.04,1593.08,923.36"/>
<path d="M1578.73,835.62,1626.84,830.10"/>
<path d="M1578.73,835.62,1593.08,923.36"/>
<path d="M1578.73,835.62,1548.07,848.14"/>
<path d="M1504.49,900.44,1388.71,752.15"/>
<path d="M1504.49,900.44,1548.07,848.14"/>
<path d="M594.25,1718.73,552.58,1690.39"/>
<path d="M1692.37,281.07,1655.34,323.00"/>
<path d="M1692.37,281.07,1713.54,191.25"/>
<path d="M1053.32,75.92,955.47,283.97"/>
<path d="M1053.32,75.92,958.90,3.58"/>
<path d="M299.97,227.61,416.26,267.09"/>
<path d="M694.73,1319.92,827.05,1365.65"/>
<path d="M439.87,219.80,416.26,267.09"/>
<path d="M439.87,219.80,397.52,197.30"/>
<path d="M439.87,219.80,538.44,260.28"/>
<path d="M1226.69,929.45,1268.47,847.18"/>
<path d="M1226.69,929.45,1190.55,981.43"/>
<path d="M245.32,699.29,195.38,823.37"/>
<path d="M857.61,317.26,895.32,284.11"/>
<path d="M59.73,1597.86,212.17,1572.49"/>
<path d="M955.47,283.97,895.32,284.11"/>
<path d="M1148.95,299.96,1184.38,350.31"/>
<path d="M206.49,74.27,112.99,84.19"/>
<path d="M206.49,74.27,196.86,0.09"/>
<path d="M404.64,1258.72,459.38,1214.72"/>
<path d="M583.40,1147.96,482.16,1119.08"/>
<path d="M583.40,1147.96,459.38,1214.72"/>
<path d="M1249.04,511.45,1161.84,532.34"/>
<path d="M1424.84,1547.14,1529.97,1585.05"/>
<path d="M142.12,621.37,136.74,651.63"/>
<path d="M744.03,569.49,671.70,592.15"/>
<path d="M482.16,1119.08,459.38,1214.72"/>
<path d="M482.16,1119.08,472.05,1086.38"/>
<path d="M922.61,1612.45,1090.38,1728.93"/>
<path d="M922.61,1612.45,1039.98,1573.25"/>
<path d="M403.28,1671.76,375.09,1569.77"/>
<path d="M1268.47,847.18,1388.71,752.15"/>
<path d="M142.49,418.03,115.58,501.22"/>
<path d="M212.17,1572.49,320.30,1584.63"/>
<path d="M595.45,294.46,538.44,260.28"/>
<path d="M1424.09,985.35,1460.28,1072.66"/>
<path d="M171.15,1711.95,131.08,1693.57"/>
<path d="M1247.08,1153.40,1296.83,1112.69"/>
<path d="M1460.28,1072.66,1296.83,1112.69"/>
<path d="M1729.81,419.65,1686.00,541.07"/>
<path d="M1161.84,532.34,1121.41,595.74"/>
<path d="M1161.84,532.34,1184.38,350.31"/>
<path d="M1161.64,1610.68,1090.38,1728.93"/>
<path d="M1161.64,1610.68,1039.98,1573.25"/>
<path d="M827.05,1365.65,1002.08,1246.36"/>
<path d="M1465.17,581.50,1498.03,593.63"/>
<path d="M1388.71,752.15,1548.07,848.14"/>
<path d="M320.30,1584.63,375.09,1569.77"/>
<path d="M1090.38,1728.93,1039.98,1573.25"/>
<path d="M273.69,846.57,195.38,823.37"/>
<path d="M397.52,197.30,380.91,156.91"/>
<path d="M1626.84,830.10,1593.08,923.36"/>
<circle cx="1351.14" cy="1302.23" r="10"/>
<text x="1351.14" y="1307.23">R0</text>
<circle cx="1331.81" cy="1266.02" r="10"/>
<text x="1331.81" y="1271.02">R1</text>
<circle cx="190.32" cy="869.72" r="10"/>
<text x="190.32" y="874.72">R2</text>
<circle cx="1665.45" cy="414.31" r="10"/>
<text x="1665.45" y="419.31">R3</text>
<circle cx="399.23" cy="670.20" r="10"/>
<text x="399.23" y="675.20">R4</text>
<circle cx="536.91" cy="131.29" r="10"/>
<text x="536.91" y="136.29">R5</text>
<circle cx="831.39" cy="147.19" r="10"/>
<text x="831.39" y="152.19">R6</text>
<circle cx="525.12" cy="1370.33" r="10"/>
<text x="525.12" y="1375.33">R7</text>
<circle cx="1271.11" cy="1301.09" r="10"/>
<text x="1271.11" y="1306.09">R8</text>
<circle cx="470.76" cy="650.50" r="10"/>
<text x="470.76" y="655.50">R9</text>
<circle cx="407.38" cy="452.43" r="10"/>
<text x="407.38" y="457.43">R10</text>
<circle cx="802.31" cy="783.39" r="10"/>
<text x="802.31" y="788.39">R11</text>
<circle cx="1729.65" cy="1123.58" r="10"/>
<text x="1729.65" y="1128.58">R12</text>
<circle cx="18.29" cy="1442.41" r="10"/>
<text x="18.29" y="1447.41">R13</text>
<circle cx="1618.20" cy="578.67" r="10"/>
<text x="1618.20" y="583.67">R14</text>
<circle cx="205.89" cy="364.33" r="10"/>
<text x="205.89" y="369.33">R15</text>
<circle cx="1487.50" cy="186.73" r="10"/>
<text x="1487.50" y="191.73">R16</text>
<circle cx="74.00" cy="353.08" r="10"/>
<text x="74.00" y="358.08">R17</text>
<circle cx="436.85" cy="623.54" r="10"/>
<text x="436.85" y="628.54">R18</text>
<circle cx="60.74" cy="1473.12" r="10"/>
<text x="60.74" y="1478.12">R19</text>
<circle cx="924.45" cy="320.98" r="10"/>
<text x="924.45" y="325.98">R20</text>
<circle cx="495.60" cy="934.93" r="10"/>
<text x="495.60" y="939.93">R21</text>
<circle cx="224.28" cy="444.18" r="10"/>
<text x="224.28" y="449.18">R22</text>
<circle cx="314.69" cy="170.51" r="10"/>
<text x="314.69" y="175.51">R23</text>
<circle cx="147.65" cy="1155.59" r="10"/>
<text x="147.65" y="1160.59">R24</text>
<circle cx="1547.63" cy="920.88" r="10"/>
<text x="1547.63" y="925.88">R25</text>
<circle cx="1684.21" cy="81.80" r="10"/>
<text x="1684.21" y="86.80">R26</text>
<circle cx="115.94" cy="526.42" r="10"/>
<text x="115.94" y="531.42">R27</text>
<circle cx="1213.36" cy="173.57" r="10"/>
<text x="1213.36" y="178.57">R28</text>
<circle cx="356.40" cy="65.68" r="10"/>
<text x="356.40" y="70.68">R29</text>
<circle cx="1579.27" cy="371.40" r="10"/>
<text x="1579.27" y="376.40">R30</text>
<circle cx="1037.33" cy="1004.31" r="10"/>
<text x="1037.33" y="1009.31">R31</text>
<circle cx="989.46" cy="1409.50" r="10"/>
<text x="989.46" y="1414.50">R32</text>
<circle cx="584.45" cy="860.43" r="10"/>
<text x="584.45" y="865.43">R33</text>
<circle cx="1381.62" cy="509.55" r="10"/>
<text x="1381.62" y="514.55">R34</text>
<circle cx="619.68" cy="602.71" r="10"/>
<text x="619.68" y="607.71">R35</text>
<circle cx="1403.96" cy="1515.22" r="10"/>
<text x="1403.96" y="1520.22">R36</text>
<circle cx="923.13" cy="35.46" r="10"/>
<text x="923.13" y="40.46">R37</text>
<circle cx="1638.88" cy="1307.70" r="10"/>
<text x="1638.88" y="1312.70">R38</text>
<circle cx="809.57" cy="849.46" r="10"/>
<text x="809.57" y="854.46">R39</text>
<circle cx="300.77" cy="810.74" r="10"/>
<text x="300.77" y="815.74">R40</text>
<circle cx="955.91" cy="1081.80" r="10"/>
<text x="955.91" y="1086.80">R41</text>
<circle cx="265.55" cy="311.82" r="10"/>
<text x="265.55" y="316.82">R42</text>
<circle cx="91.85" cy="1705.14" r="10"/>
<text x="91.85" y="1710.14">R43</text>
<circle cx="1109.78" cy="1218.23" r="10"/>
<text x="1109.78" y="1223.23">R44</text>
<circle cx="1163.61" cy="958.71" r="10"/>
<text x="1163.61" y="963.71">R45</text>
<circle cx="541.13" cy="507.65" r="10"/>
<text x="541.13" y="512.65">R46</text>
<circle cx="714.23" cy="1137.14" r="10"/>
<text x="714.23" y="1142.14">R47</text>
<circle cx="509.62" cy="484.94" r="10"/>
<text x="509.62" y="489.94">R48</text>
<circle cx="408.99" cy="1705.79" r="10"/>
<text x="408.99" y="1710.79">R49</text>
<circle cx="1612.81" cy="551.86" r="10"/>
<text x="1612.81" y="556.86">R50</text>
<circle cx="932.62" cy="904.78" r="10"/>
<text x="932.62" y="909.78">R51</text>
<circle cx="1460.99" cy="655.32" r="10"/>
<text x="1460.99" y="660.32">R52</text>
<circle cx="411.65" cy="1125.37" r="10"/>
<text x="411.65" y="1130.37">R53</text>
<circle cx="636.27" cy="87.81" r="10"/>
<text x="636.27" y="92.81">R54</text>
<circle cx="1256.09" cy="652.90" r="10"/>
<text x="1256.09" y="657.90">R55</text>
<circle cx="933.27" cy="637.65" r="10"/>
<text x="933.27" y="642.65">R56</text>
<circle cx="1431.74" cy="687.93" r="10"/>
<text x="1431.74" y="692.93">R57</text>
<circle cx="1501.30" cy="440.56" r="10"/>
<text x="1501.30" y="445.56">R58</text>
<circle cx="705.25" cy="1633.51" r="10"/>
<text x="705.25" y="1638.51">R59</text>
<circle cx="51.95" cy="672.05" r="10"/>
<text x="51.95" y="677.05">R60</text>
<circle cx="295.59" cy="33.33" r="10"/>
<text x="295.59" y="38.33">R61</text>
<circle cx="840.65" cy="704.89" r="10"/>
<text x="840.65" y="709.89">R62</text>
<circle cx="782.68" cy="820.09" r="10"/>
<text x="782.68" y="825.09">R63</text>
<circle cx="1017.46" cy="528.98" r="10"/>
<text x="1017.46" y="533.98">R64</text>
<circle cx="1135.25" cy="955.37" r="10"/>
<text x="1135.25" y="960.37">R65</text>
<circle cx="366.60" cy="734.68" r="10"/>
<text x="366.60" y="739.68">R66</text>
<circle cx="999.94" cy="1473.64" r="10"/>
<text x="999.94" y="1478.64">R67</text>
<circle cx="691.34" cy="16.73" r="10"/>
<text x="691.34" y="21.73">R68</text>
<circle cx="19.27" cy="436.76" r="10"/>
<text x="19.27" y="441.76">R69</text>
<circle cx="1430.95" cy="499.77" r="10"/>
<text x="1430.95" y="504.77">R70</text>
<circle cx="47.51" cy="1536.37" r="10"/>
<text x="47.51" y="1541.37">R71</text>
<circle cx="289.70" cy="959.92" r="10"/>
<text x="289.70" y="964.92">R72</text>
<circle cx="1248.50" cy="824.85" r="10"/>
<text x="1248.50" y="829.85">R73</text>
<circle cx="1217.18" cy="1652.67" r="10"/>
<text x="1217.18" y="1657.67">R74</text>
<circle cx="819.21" cy="1176.97" r="10"/>
<text x="819.21" y="1181.97">R75</text>
<circle cx="820.55" cy="1438.49" r="10"/>
<text x="820.55" y="1443.49">R76</text>
<circle cx="53.63" cy="1676.77" r="10"/>
<text x="53.63" y="1681.77">R77</text>
<circle cx="400.83" cy="46.93" r="10"/>
<text x="400.83" y="51.93">R78</text>
<circle cx="668.26" cy="1212.01" r="10"/>
<text x="668.26" y="1217.01">R79</text>
<circle cx="419.73" cy="1501.38" r="10"/>
<text x="419.73" y="1506.38">R80</text>
<circle cx="497.30" cy="1251.02" r="10"/>
<text x="497.30" y="1256.02">R81</text>
<circle cx="619.29" cy="249.25" r="10"/>
<text x="619.29" y="254.25">R82</text>
<circle cx="61.03" cy="491.15" r="10"/>
<text x="61.03" y="496.15">R83</text>
<circle cx="963.45" cy="783.49" r="10"/>
<text x="963.45" y="788.49">R84</text>
<circle cx="1051.16" cy="754.26" r="10"/>
<text x="1051.16" y="759.26">R85</text>
<circle cx="1252.52" cy="286.07" r="10"/>
<text x="1252.52" y="291.07">R86</text>
<circle cx="1034.38" cy="1148.11" r="10"/>
<text x="1034.38" y="1153.11">R87</text>
<circle cx="555.68" cy="1331.57" r="10"/>
<text x="555.68" y="1336.57">R88</text>
<circle cx="15.95" cy="224.92" r="10"/>
<text x="15.95" y="229.92">R89</text>
<circle cx="1626.74" cy="92.48" r="10"/>
<text x="1626.74" y="97.48">R90</text>
<circle cx="1070.44" cy="26.33" r="10"/>
<text x="1070.44" y="31.33">R91</text>
<circle cx="1215.78" cy="718.52" r="10"/>
<text x="1215.78" y="723.52">R92</text>
<circle cx="1563.04" cy="1139.80" r="10"/>
<text x="1563.04" y="1144.80">R93</text>
<circle cx="1018.42" cy="809.64" r="10"/>
<text x="1018.42" y="814.64">R94</text>
<circle cx="667.16" cy="1047.57" r="10"/>
<text x="667.16" y="1052.57">R95</text>
<circle cx="536.83" cy="615.72" r="10"/>
<text x="536.83" y="620.72">R96</text>
<circle cx="1029.30" cy="1213.84" r="10"/>
<text x="1029.30" y="1218.84">R97</text>
<circle cx="1189.42" cy="192.36" r="10"/>
<text x="1189.42" y="197.36">R98</text>
<circle cx="108.76" cy="51.22" r="10"/>
<text x="108.76" y="56.22">R99</text>
<circle cx="708.41" cy="1528.12" r="10"/>
<text x="708.41" y="1533.12">R100</text>
<circle cx="1665.17" cy="1420.64" r="10"/>
<text x="1665.17" y="1425.64">R101</text>
<circle cx="670.27" cy="788.26" r="10"/>
<text x="670.27" y="793.26">R102</text>
<circle cx="190.21" cy="1235.39" r="10"/>
<text x="190.21" y="1240.39">R103</text>
<circle cx="1205.91" cy="1042.50" r="10"/>
<text x="1205.91" y="1047.50">R104</text>
<circle cx="136.37" cy="1485.65" r="10"/>
<text x="136.37" y="1490.65">R105</text>
<circle cx="278.37" cy="718.96" r="10"/>
<text x="278.37" y="723.96">R106</text>
<circle cx="1301.62" cy="992.04" r="10"/>
<text x="1301.62" y="997.04">R107</text>
<circle cx="1661.98" cy="1333.05" r="10"/>
<text x="1661.98" y="1338.05">R108</text>
<circle cx="1362.95" cy="198.31" r="10"/>
<text x="1362.95" y="203.31">R109</text>
<circle cx="633.86" cy="1281.24" r="10"/>
<text x="633.86" y="1286.24">R110</text>
<circle cx="881.02" cy="226.86" r="10"/>
<text x="881.02" y="231.86">R111</text>
<circle cx="1620.39" cy="1031.17" r="10"/>
<text x="1620.39" y="1036.17">R112</text>
<circle cx="1524.36" cy="695.04" r="10"/>
<text x="1524.36" y="700.04">R113</text>
<circle cx="837.59" cy="1481.41" r="10"/>
<text x="837.59" y="1486.41">R114</text>
<circle cx="672.55" cy="877.72" r="10"/>
<text x="672.55" y="882.72">R115</text>
<circle cx="1311.69" cy="341.18" r="10"/>
<text x="1311.69" y="346.18">R116</text>
<circle cx="1567.60" cy="1689.71" r="10"/>
<text x="1567.60" y="1694.71">R117</text>
<circle cx="1129.86" cy="56.05" r="10"/>
<text x="1129.86" y="61.05">R118</text>
<circle cx="1196.29" cy="121.02" r="10"/>
<text x="1196.29" y="126.02">R119</text>
<circle cx="1418.23" cy="183.01" r="10"/>
<text x="1418.23" y="188.01">R120</text>
<circle cx="525.49" cy="1043.54" r="10"/>
<text x="525.49" y="1048.54">R121</text>
<circle cx="891.48" cy="1051.48" r="10"/>
<text x="891.48" y="1056.48">R122</text>
<circle cx="1364.50" cy="919.29" r="10"/>
<text x="1364.50" y="924.29">R123</text>
<circle cx="478.75" cy="1406.75" r="10"/>
<text x="478.75" y="1411.75">R124</text>
<circle cx="180.19" cy="1003.84" r="10"/>
<text x="180.19" y="1008.84">R125</text>
<circle cx="943.52" cy="370.38" r="10"/>
<text x="943.52" y="375.38">R126</text>
<circle cx="803.25" cy="572.43" r="10"/>
<text x="803.25" y="577.43">R127</text>
<circle cx="910.45" cy="1004.18" r="10"/>
<text x="910.45" y="1009.18">R128</text>
<circle cx="1036.96" cy="567.63" r="10"/>
<text x="1036.96" y="572.63">R129</text>
<circle cx="1300.35" cy="1202.05" r="10"/>
<text x="1300.35" y="1207.05">R130</text>
<circle cx="701.64" cy="267.24" r="10"/>
<text x="701.64" y="272.24">R131</text>
<circle cx="1468.01" cy="1314.85" r="10"/>
<text x="1468.01" y="1319.85">R132</text>
<circle cx="1502.83" cy="554.73" r="10"/>
<text x="1502.83" y="559.73">R133</text>
<circle cx="819.45" cy="1138.81" r="10"/>
<text x="819.45" y="1143.81">R134</text>
<circle cx="1490.48" cy="1499.52" r="10"/>
<text x="1490.48" y="1504.52">R135</text>
<circle cx="1439.54" cy="1641.72" r="10"/>
<text x="1439.54" y="1646.72">R136</text>
<circle cx="303.97" cy="193.43" r="10"/>
<text x="303.97" y="198.43">R137</text>
<circle cx="1601.77" cy="455.27" r="10"/>
<text x="1601.77" y="460.27">R138</text>
<circle cx="1088.68" cy="1455.93" r="10"/>
<text x="1088.68" y="1460.93">R139</text>
<circle cx="981.76" cy="671.84" r="10"/>
<text x="981.76" y="676.84">R140</text>
<circle cx="1658.20" cy="1036.31" r="10"/>
<text x="1658.20" y="1041.31">R141</text>
<circle cx="278.09" cy="917.17" r="10"/>
<text x="278.09" y="922.17">R142</text>
<circle cx="370.47" cy="1140.19" r="10"/>
<text x="370.47" y="1145.19">R143</text>
<circle cx="910.12" cy="1562.56" r="10"/>
<text x="910.12" y="1567.56">R144</text>
<circle cx="1550.67" cy="1420.10" r="10"/>
<text x="1550.67" y="1425.10">R145</text>
<circle cx="1568.07" cy="1344.43" r="10"/>
<text x="1568.07" y="1349.43">R146</text>
<circle cx="1386.22" cy="1436.58" r="10"/>
<text x="1386.22" y="1441.58">R147</text>
<circle cx="184.92" cy="1681.13" r="10"/>
<text x="184.92" y="1686.13">R148</text>
<circle cx="556.04" cy="849.10" r="10"/>
<text x="556.04" y="854.10">R149</text>
<circle cx="1296.44" cy="954.49" r="10"/>
<text x="1296.44" y="959.49">R150</text>
<circle cx="987.89" cy="839.15" r="10"/>
<text x="987.89" y="844.15">R151</text>
<circle cx="1102.89" cy="72.66" r="10"/>
<text x="1102.89" y="77.66">R152</text>
<circle cx="1412.19" cy="926.62" r="10"/>
<text x="1412.19" y="931.62">R153</text>
<circle cx="644.89" cy="1109.55" r="10"/>
<text x="644.89" y="1114.55">R154</text>
<circle cx="199.43" cy="684.36" r="10"/>
<text x="199.43" y="689.36">R155</text>
<circle cx="1600.40" cy="315.72" r="10"/>
<text x="1600.40" y="320.72">R156</text>
<circle cx="89.12" cy="1209.16" r="10"/>
<text x="89.12" y="1214.16">R157</text>
<circle cx="1172.82" cy="1008.73" r="10"/>
<text x="1172.82" y="1013.73">R158</text>
<circle cx="94.29" cy="169.49" r="10"/>
<text x="94.29" y="174.49">R159</text>
<circle cx="232.23" cy="571.66" r="10"/>
<text x="232.23" y="576.66">R160</text>
<circle cx="559.58" cy="683.30" r="10"/>
<text x="559.58" y="688.30">R161</text>
<circle cx="1332.16" cy="1209.85" r="10"/>
<text x="1332.16" y="1214.85">R162</text>
<circle cx="752.94" cy="905.44" r="10"/>
<text x="752.94" y="910.44">R163</text>
<circle cx="233.39" cy="665.21" r="10"/>
<text x="233.39" y="670.21">R164</text>
<circle cx="1244.23" cy="349.32" r="10"/>
<text x="1244.23" y="354.32">R165</text>
<circle cx="1359.11" cy="1617.53" r="10"/>
<text x="1359.11" y="1622.53">R166</text>
<circle cx="1670.38" cy="793.70" r="10"/>
<text x="1670.38" y="798.70">R167</text>
<circle cx="620.01" cy="365.12" r="10"/>
<text x="620.01" y="370.12">R168</text>
<circle cx="1333.61" cy="943.39" r="10"/>
<text x="1333.61" y="948.39">R169</text>
<circle cx="1098.78" cy="509.22" r="10"/>
<text x="1098.78" y="514.22">R170</text>
<circle cx="1707.14" cy="599.77" r="10"/>
<text x="1707.14" y="604.77">R171</text>
<circle cx="1616.82" cy="270.93" r="10"/>
<text x="1616.82" y="275.93">R172</text>
<circle cx="1280.37" cy="1504.13" r="10"/>
<text x="1280.37" y="1509.13">R173</text>
<circle cx="1579.40" cy="481.17" r="10"/>
<text x="1579.40" y="486.17">R174</text>
<circle cx="895.88" cy="116.45" r="10"/>
<text x="895.88" y="121.45">R175</text>
<circle cx="58.71" cy="131.47" r="10"/>
<text x="58.71" y="136.47">R176</text>
<circle cx="1124.52" cy="325.57" r="10"/>
<text x="1124.52" y="330.57">R177</text>
<circle cx="68.05" cy="755.65" r="10"/>
<text x="68.05" y="760.65">R178</text>
<circle cx="1087.69" cy="1252.37" r="10"/>
<text x="1087.69" y="1257.37">R179</text>
<circle cx="1643.58" cy="52.30" r="10"/>
<text x="1643.58" y="57.30">R180</text>
<circle cx="1669.67" cy="584.14" r="10"/>
<text x="1669.67" y="589.14">R181</text>
<circle cx="491.58" cy="1553.46" r="10"/>
<text x="491.58" y="1558.46">R182</text>
<circle cx="88.47" cy="268.98" r="10"/>
<text x="88.47" y="273.98">R183</text>
<circle cx="552.58" cy="824.02" r="10"/>
<text x="552.58" y="829.02">R184</text>
<circle cx="20.86" cy="503.13" r="10"/>
<text x="20.86" y="508.13">R185</text>
<circle cx="1165.02" cy="1378.48" r="10"/>
<text x="1165.02" y="1383.48">R186</text>
<circle cx="1473.38" cy="1201.64" r="10"/>
<text x="1473.38" y="1206.64">R187</text>
<circle cx="1221.84" cy="1371.94" r="10"/>
<text x="1221.84" y="1376.94">R188</text>
<circle cx="463.84" cy="827.17" r="10"/>
<text x="463.84" y="832.17">R189</text>
<circle cx="1591.68" cy="1623.43" r="10"/>
<text x="1591.68" y="1628.43">R190</text>
<circle cx="553.26" cy="1079.85" r="10"/>
<text x="553.26" y="1084.85">R191</text>
<circle cx="1691.89" cy="1039.45" r="10"/>
<text x="1691.89" y="1044.45">R192</text>
<circle cx="102.46" cy="644.17" r="10"/>
<text x="102.46" y="649.17">R193</text>
<circle cx="505.45" cy="1021.92" r="10"/>
<text x="505.45" y="1026.92">R194</text>
<circle cx="1375.83" cy="584.48" r="10"/>
<text x="1375.83" y="589.48">R195</text>
<circle cx="1018.25" cy="1402.23" r="10"/>
<text x="1018.25" y="1407.23">R196</text>
<circle cx="1445.17" cy="1369.38" r="10"/>
<text x="1445.17" y="1374.38">R197</text>
<circle cx="1550.47" cy="990.26" r="10"/>
<text x="1550.47" y="995.26">R198</text>
<circle cx="158.11" cy="870.65" r="10"/>
<text x="158.11" y="875.65">R199</text>
<circle cx="1119.80" cy="725.87" r="10"/>
<text x="1119.80" y="730.87">R200</text>
<circle cx="823.18" cy="913.36" r="10"/>
<text x="823.18" y="918.36">R201</text>
<circle cx="1626.02" cy="984.04" r="10"/>
<text x="1626.02" y="989.04">R202</text>
<circle cx="892.65" cy="563.35" r="10"/>
<text x="892.65" y="568.35">R203</text>
<circle cx="1578.73" cy="835.62" r="10"/>
<text x="1578.73" y="840.62">R204</text>
<circle cx="1504.49" cy="900.44" r="10"/>
<text x="1504.49" y="905.44">R205</text>
<circle cx="594.25" cy="1718.73" r="10"/>
<text x="594.25" y="1723.73">R206</text>
<circle cx="1692.37" cy="281.07" r="10"/>
<text x="1692.37" y="286.07">R207</text>
<circle cx="1053.32" cy="75.92" r="10"/>
<text x="1053.32" y="80.92">R208</text>
<circle cx="28.97" cy="551.78" r="10"/>
<text x="28.97" y="556.78">R209</text>
<circle cx="299.97" cy="227.61" r="10"/>
<text x="299.97" y="232.61">R210</text>
<circle cx="694.73" cy="1319.92" r="10"/>
<text x="694.73" y="1324.92">R211</text>
<circle cx="439.87" cy="219.80" r="10"/>
<text x="439.87" y="224.80">R212</text>
<circle cx="1226.69" cy="929.45" r="10"/>
<text x="1226.69" y="934.45">R213</text>
<circle cx="245.32" cy="699.29" r="10"/>
<text x="245.32" y="704.29">R214</text>
<circle cx="857.61" cy="317.26" r="10"/>
<text x="857.61" y="322.26">R215</text>
<circle cx="1453.68" cy="1255.20" r="10"/>
<text x="1453.68" y="1260.20">R216</text>
<circle cx="59.73" cy="1597.86" r="10"/>
<text x="59.73" y="1602.86">R217</text>
<circle cx="955.47" cy="283.97" r="10"/>
<text x="955.47" y="288.97">R218</text>
<circle cx="1148.95" cy="299.96" r="10"/>
<text x="1148.95" y="304.96">R219</text>
<circle cx="1730.75" cy="3.95" r="10"/>
<text x="1730.75" y="8.95">R220</text>
<circle cx="206.49" cy="74.27" r="10"/>
<text x="206.49" y="79.27">R221</text>
<circle cx="404.64" cy="1258.72" r="10"/>
<text x="404.64" y="1263.72">R222</text>
<circle cx="583.40" cy="1147.96" r="10"/>
<text x="583.40" y="1152.96">R223</text>
<circle cx="1249.04" cy="511.45" r="10"/>
<text x="1249.04" y="516.45">R224</text>
<circle cx="1546.76" cy="1226.34" r="10"/>
<text x="1546.76" y="1231.34">R225</text>
<circle cx="1424.84" cy="1547.14" r="10"/>
<text x="1424.84" y="1552.14">R226</text>
<circle cx="552.58" cy="1690.39" r="10"/>
<text x="552.58" y="1695.39">R227</text>
<circle cx="142.12" cy="621.37" r="10"/>
<text x="142.12" y="626.37">R228</text>
<circle cx="744.03" cy="569.49" r="10"/>
<text x="744.03" y="574.49">R229</text>
<circle cx="482.16" cy="1119.08" r="10"/>
<text x="482.16" y="1124.08">R230</text>
<circle cx="922.61" cy="1612.45" r="10"/>
<text x="922.61" y="1617.45">R231</text>
<circle cx="112.99" cy="84.19" r="10"/>
<text x="112.99" y="89.19">R232</text>
<circle cx="403.28" cy="1671.76" r="10"/>
<text x="403.28" y="1676.76">R233</text>
<circle cx="1268.47" cy="847.18" r="10"/>
<text x="1268.47" y="852.18">R234</text>
<circle cx="142.49" cy="418.03" r="10"/>
<text x="142.49" y="423.03">R235</text>
<circle cx="212.17" cy="1572.49" r="10"/>
<text x="212.17" y="1577.49">R236</text>
<circle cx="136.74" cy="651.63" r="10"/>
<text x="136.74" y="656.63">R237</text>
<circle cx="595.45" cy="294.46" r="10"/>
<text x="595.45" y="299.46">R238</text>
<circle cx="1424.09" cy="985.35" r="10"/>
<text x="1424.09" y="990.35">R239</text>
<circle cx="589.13" cy="670.88" r="10"/>
<text x="589.13" y="675.88">R240</text>
<circle cx="1476.15" cy="149.28" r="10"/>
<text x="1476.15" y="154.28">R241</text>
<circle cx="171.15" cy="1711.95" r="10"/>
<text x="171.15" y="1716.95">R242</text>
<circle cx="196.86" cy="0.09" r="10"/>
<text x="196.86" y="5.09">R243</text>
<circle cx="1247.08" cy="1153.40" r="10"/>
<text x="1247.08" y="1158.40">R244</text>
<circle cx="1460.28" cy="1072.66" r="10"/>
<text x="1460.28" y="1077.66">R245</text>
<circle cx="1729.81" cy="419.65" r="10"/>
<text x="1729.81" y="424.65">R246</text>
<circle cx="791.08" cy="146.72" r="10"/>
<text x="791.08" y="151.72">R247</text>
<circle cx="416.26" cy="267.09" r="10"/>
<text x="416.26" y="272.09">R248</text>
<circle cx="541.21" cy="1464.79" r="10"/>
<text x="541.21" y="1469.79">R249</text>
<circle cx="1190.55" cy="981.43" r="10"/>
<text x="1190.55" y="986.43">R250</text>
<circle cx="32.09" cy="960.74" r="10"/>
<text x="32.09" y="965.74">R251</text>
<circle cx="345.10" cy="700.19" r="10"/>
<text x="345.10" y="705.19">R252</text>
<circle cx="1161.84" cy="532.34" r="10"/>
<text x="1161.84" y="537.34">R253</text>
<circle cx="30.22" cy="130.26" r="10"/>
<text x="30.22" y="135.26">R254</text>
<circle cx="1161.64" cy="1610.68" r="10"/>
<text x="1161.64" y="1615.68">R255</text>
<circle cx="459.38" cy="1214.72" r="10"/>
<text x="459.38" y="1219.72">R256</text>
<circle cx="1655.34" cy="323.00" r="10"/>
<text x="1655.34" y="328.00">R257</text>
<circle cx="1296.83" cy="1112.69" r="10"/>
<text x="1296.83" y="1117.69">R258</text>
<circle cx="827.05" cy="1365.65" r="10"/>
<text x="827.05" y="1370.65">R259</text>
<circle cx="1465.17" cy="581.50" r="10"/>
<text x="1465.17" y="586.50">R260</text>
<circle cx="1281.13" cy="1424.24" r="10"/>
<text x="1281.13" y="1429.24">R261</text>
<circle cx="671.70" cy="592.15" r="10"/>
<text x="671.70" y="597.15">R262</text>
<circle cx="1388.71" cy="752.15" r="10"/>
<text x="1388.71" y="757.15">R263</text>
<circle cx="320.30" cy="1584.63" r="10"/>
<text x="320.30" y="1589.63">R264</text>
<circle cx="1090.38" cy="1728.93" r="10"/>
<text x="1090.38" y="1733.93">R265</text>
<circle cx="701.68" cy="1015.21" r="10"/>
<text x="701.68" y="1020.21">R266</text>
<circle cx="895.32" cy="284.11" r="10"/>
<text x="895.32" y="289.11">R267</text>
<circle cx="1686.00" cy="541.07" r="10"/>
<text x="1686.00" y="546.07">R268</text>
<circle cx="131.08" cy="1693.57" r="10"/>
<text x="131.08" y="1698.57">R269</text>
<circle cx="1498.03" cy="593.63" r="10"/>
<text x="1498.03" y="598.63">R270</text>
<circle cx="375.09" cy="1569.77" r="10"/>
<text x="375.09" y="1574.77">R271</text>
<circle cx="273.69" cy="846.57" r="10"/>
<text x="273.69" y="851.57">R272</text>
<circle cx="472.05" cy="1086.38" r="10"/>
<text x="472.05" y="1091.38">R273</text>
<circle cx="397.52" cy="197.30" r="10"/>
<text x="397.52" y="202.30">R274</text>
<circle cx="1529.97" cy="1585.05" r="10"/>
<text x="1529.97" y="1590.05">R275</text>
<circle cx="1473.65" cy="358.02" r="10"/>
<text x="1473.65" y="363.02">R276</text>
<circle cx="1626.84" cy="830.10" r="10"/>
<text x="1626.84" y="835.10">R277</text>
<circle cx="742.51" cy="858.54" r="10"/>
<text x="742.51" y="863.54">R278</text>
<circle cx="1252.36" cy="242.16" r="10"/>
<text x="1252.36" y="247.16">R279</text>
<circle cx="538.44" cy="260.28" r="10"/>
<text x="538.44" y="265.28">R280</text>
<circle cx="1039.98" cy="1573.25" r="10"/>
<text x="1039.98" y="1578.25">R281</text>
<circle cx="1593.08" cy="923.36" r="10"/>
<text x="1593.08" y="928.36">R282</text>
<circle cx="115.58" cy="501.22" r="10"/>
<text x="115.58" y="506.22">R283</text>
<circle cx="958.90" cy="3.58" r="10"/>
<text x="958.90" y="8.58">R284</text>
<circle cx="461.45" cy="554.15" r="10"/>
<text x="461.45" y="559.15">R285</text>
<circle cx="1002.08" cy="1246.36" r="10"/>
<text x="1002.08" y="1251.36">R286</text>
<circle cx="1086.92" cy="1298.74" r="10"/>
<text x="1086.92" y="1303.74">R287</text>
<circle cx="1007.17" cy="863.68" r="10"/>
<text x="1007.17" y="868.68">R288</text>
<circle cx="1713.54" cy="191.25" r="10"/>
<text x="1713.54" y="196.25">R289</text>
<circle cx="145.89" cy="1299.08" r="10"/>
<text x="145.89" y="1304.08">R290</text>
<circle cx="546.78" cy="13.97" r="10"/>
<text x="546.78" y="18.97">R291</text>
<circle cx="1121.41" cy="595.74" r="10"/>
<text x="1121.41" y="600.74">R292</text>
<circle cx="1548.07" cy="848.14" r="10"/>
<text x="1548.07" y="853.14">R293</text>
<circle cx="1566.61" cy="1452.71" r="10"/>
<text x="1566.61" y="1457.71">R294</text>
<circle cx="380.91" cy="156.91" r="10"/>
<text x="380.91" y="161.91">R295</text>
<circle cx="1184.38" cy="350.31" r="10"/>
<text x="1184.38" y="355.31">R296</text>
<circle cx="195.38" cy="823.37" r="10"/>
<text x="195.38" y="828.37">R297</text>
<circle cx="269.64" cy="1026.14" r="10"/>
<text x="269.64" y="1031.14">R298</text>
<circle cx="1220.87" cy="78.87" r="10"/>
<text x="1220.87" y="83.87">R299</text>
</svg>
