<svg id="topo" viewBox="-74.68 -1817.38 1892.68 1898.57" xmlns="http://www.w3.org/2000/svg">
<style>#topo path {fill: none; stroke: grey; stroke-width: 5.0000px;} #topo circle {fill: lightblue; stroke: none; stroke-width: 0.3px; vector-effect: non-scaling-stroke; r: 10.0000px;} #topo text {fill: black; stroke: none; font-size: 15.0000px; font-family: sans-serif; text-anchor:middle; transform: translateY(0.3em);} #topo path.country {fill: lightgrey; stroke: black; stroke-width: 1px; vector-effect: non-scaling-stroke; visibility: visible;} #topo path.selection {fill: none; stroke: red; stroke-width: 1px; vector-effect: non-scaling-stroke; visibility: visible;} #topo path.utilization {visibility: hidden;}</style>
<path data-id="0-42" d="M1510.42,-1006.77,1439.35,-1002.63"/>
<path data-id="0-71" d="M1510.42,-1006.77,1600.75,-1022.87"/>
<path data-id="0-85" d="M1510.42,-1006.77,1450.99,-918.98"/>
<path data-id="0-96" d="M1510.42,-1006.77,1576.78,-968.85"/>
<path data-id="0-167" d="M1510.42,-1006.77,1459.37,-1084.74"/>
<path data-id="1-9" d="M1044.50,-600.01,968.07,-712.53"/>
<path data-id="1-88" d="M1044.50,-600.01,878.48,-591.65"/>
<path data-id="1-90" d="M1044.50,-600.01,1096.62,-684.71"/>
<path data-id="1-227" d="M1044.50,-600.01,1020.03,-492.84"/>
<path data-id="1-244" d="M1044.50,-600.01,1116.22,-564.97"/>
<path data-id="2-76" d="M715.16,-1007.32,580.40,-928.68"/>
<path data-id="2-185" d="M715.16,-1007.32,713.38,-1062.44"/>
<path data-id="2-187" d="M715.16,-1007.32,724.98,-951.06"/>
<path data-id="3-119" d="M1319.71,-1603.44,1382.26,-1572.12"/>
<path data-id="3-189" d="M1319.71,-1603.44,1236.62,-1567.11"/>
<path data-id="3-271" d="M1319.71,-1603.44,1283.47,-1718.54"/>
<path data-id="3-284" d="M1319.71,-1603.44,1322.92,-1534.30"/>
<path data-id="4-46" d="M1211.07,-527.45,1109.71,-521.72"/>
<path data-id="4-56" d="M1211.07,-527.45,1181.73,-409.03"/>
<path data-id="4-77" d="M1211.07,-527.45,1174.59,-644.21"/>
<path data-id="4-244" d="M1211.07,-527.45,1116.22,-564.97"/>
<path data-id="4-274" d="M1211.07,-527.45,1243.04,-525.45"/>
<path data-id="5-31" d="M1631.45,-981.90,1643.36,-890.91"/>
<path data-id="5-71" d="M1631.45,-981.90,1600.75,-1022.87"/>
<path data-id="5-96" d="M1631.45,-981.90,1576.78,-968.85"/>
<path data-id="5-201" d="M1631.45,-981.90,1702.67,-968.14"/>
<path data-id="6-81" d="M722.20,-53.74,659.57,-25.16"/>
<path data-id="6-102" d="M722.20,-53.74,720.60,-12.64"/>
<path data-id="6-267" d="M722.20,-53.74,769.94,-17.53"/>
<path data-id="6-279" d="M722.20,-53.74,742.10,-127.01"/>
<path data-id="7-174" d="M1671.62,-1380.91,1641.25,-1278.08"/>
<path data-id="7-192" d="M1671.62,-1380.91,1692.79,-1427.81"/>
<path data-id="7-206" d="M1671.62,-1380.91,1576.25,-1411.26"/>
<path data-id="8-21" d="M1639.16,-75.99,1568.97,-207.39"/>
<path data-id="8-108" d="M1639.16,-75.99,1657.50,-209.27"/>
<path data-id="8-178" d="M1639.16,-75.99,1523.20,-7.10"/>
<path data-id="9-88" d="M968.07,-712.53,878.48,-591.65"/>
<path data-id="9-90" d="M968.07,-712.53,1096.62,-684.71"/>
<path data-id="9-140" d="M968.07,-712.53,945.52,-729.57"/>
<path data-id="10-125" d="M417.60,-1050.87,578.05,-1129.97"/>
<path data-id="10-194" d="M417.60,-1050.87,520.10,-957.01"/>
<path data-id="10-245" d="M417.60,-1050.87,394.28,-1074.02"/>
<path data-id="10-280" d="M417.60,-1050.87,326.84,-970.75"/>
<path data-id="11-75" d="M99.55,-291.82,23.01,-211.88"/>
<path data-id="11-225" d="M99.55,-291.82,162.02,-296.82"/>
<path data-id="12-161" d="M1135.55,-1024.60,1070.09,-1064.25"/>
<path data-id="12-183" d="M1135.55,-1024.60,1167.24,-1059.54"/>
<path data-id="12-186" d="M1135.55,-1024.60,1217.87,-950.91"/>
<path data-id="12-211" d="M1135.55,-1024.60,1118.81,-922.16"/>
<path data-id="12-266" d="M1135.55,-1024.60,1062.79,-965.11"/>
<path data-id="12-275" d="M1135.55,-1024.60,1152.22,-917.70"/>
<path data-id="13-28" d="M776.84,-458.99,789.15,-318.53"/>
<path data-id="13-177" d="M776.84,-458.99,856.34,-391.71"/>
<path data-id="13-233" d="M776.84,-458.99,802.87,-486.40"/>
<path data-id="13-238" d="M776.84,-458.99,692.23,-460.01"/>
<path data-id="14-57" d="M558.25,-1386.00,531.64,-1333.98"/>
<path data-id="14-103" d="M558.25,-1386.00,582.19,-1400.75"/>
<path data-id="14-130" d="M558.25,-1386.00,593.25,-1307.96"/>
<path data-id="15-58" d="M1489.92,-769.80,1336.01,-676.84"/>
<path data-id="15-129" d="M1489.92,-769.80,1357.42,-802.19"/>
<path data-id="15-162" d="M1489.92,-769.80,1495.65,-826.11"/>
<path data-id="15-203" d="M1489.92,-769.80,1569.14,-725.41"/>
<path data-id="15-260" d="M1489.92,-769.80,1454.94,-600.78"/>
<path data-id="16-91" d="M164.52,-468.73,217.92,-472.67"/>
<path data-id="16-196" d="M164.52,-468.73,121.83,-541.21"/>
<path data-id="16-225" d="M164.52,-468.73,162.02,-296.82"/>
<path data-id="17-29" d="M1578.97,-1662.30,1650.88,-1698.97"/>
<path data-id="17-89" d="M1578.97,-1662.30,1676.15,-1559.36"/>
<path data-id="17-93" d="M1578.97,-1662.30,1529.31,-1681.24"/>
<path data-id="17-157" d="M1578.97,-1662.30,1553.60,-1518.92"/>
<path data-id="18-26" d="M1005.07,-1180.14,1031.01,-1226.71"/>
<path data-id="18-128" d="M1005.07,-1180.14,1083.60,-1163.88"/>
<path data-id="18-133" d="M1005.07,-1180.14,961.81,-1260.42"/>
<path data-id="18-220" d="M1005.07,-1180.14,946.39,-1128.93"/>
<path data-id="18-278" d="M1005.07,-1180.14,1016.43,-1093.33"/>
<path data-id="19-111" d="M231.42,-1403.70,357.01,-1435.87"/>
<path data-id="19-164" d="M231.42,-1403.70,136.86,-1336.80"/>
<path data-id="19-170" d="M231.42,-1403.70,266.08,-1279.45"/>
<path data-id="19-180" d="M231.42,-1403.70,226.52,-1444.48"/>
<path data-id="19-252" d="M231.42,-1403.70,124.72,-1427.88"/>
<path data-id="20-23" d="M1385.76,-1109.77,1390.23,-1214.27"/>
<path data-id="20-63" d="M1385.76,-1109.77,1430.73,-1107.18"/>
<path data-id="20-87" d="M1385.76,-1109.77,1329.36,-1083.57"/>
<path data-id="21-79" d="M1568.97,-207.39,1471.24,-309.78"/>
<path data-id="21-108" d="M1568.97,-207.39,1657.50,-209.27"/>
<path data-id="21-172" d="M1568.97,-207.39,1544.74,-333.39"/>
<path data-id="21-264" d="M1568.97,-207.39,1493.73,-47.35"/>
<path data-id="22-31" d="M1707.88,-939.85,1643.36,-890.91"/>
<path data-id="22-201" d="M1707.88,-939.85,1702.67,-968.14"/>
<path data-id="23-136" d="M1390.23,-1214.27,1223.03,-1152.94"/>
<path data-id="23-163" d="M1390.23,-1214.27,1488.73,-1298.08"/>
<path data-id="23-171" d="M1390.23,-1214.27,1532.76,-1161.34"/>
<path data-id="23-248" d="M1390.23,-1214.27,1297.92,-1273.52"/>
<path data-id="24-67" d="M609.90,-1653.68,705.15,-1632.21"/>
<path data-id="24-78" d="M609.90,-1653.68,533.67,-1710.96"/>
<path data-id="24-121" d="M609.90,-1653.68,564.41,-1614.09"/>
<path data-id="24-150" d="M609.90,-1653.68,516.82,-1686.79"/>
<path data-id="25-61" d="M142.91,-1707.65,63.96,-1646.37"/>
<path data-id="25-73" d="M142.91,-1707.65,226.86,-1620.32"/>
<path data-id="25-92" d="M142.91,-1707.65,42.05,-1691.29"/>
<path data-id="26-128" d="M1031.01,-1226.71,1083.60,-1163.88"/>
<path data-id="26-133" d="M1031.01,-1226.71,961.81,-1260.42"/>
<path data-id="26-273" d="M1031.01,-1226.71,994.13,-1320.74"/>
<path data-id="27-147" d="M1561.60,-501.16,1636.76,-560.06"/>
<path data-id="27-165" d="M1561.60,-501.16,1476.79,-473.39"/>
<path data-id="27-172" d="M1561.60,-501.16,1544.74,-333.39"/>
<path data-id="27-223" d="M1561.60,-501.16,1640.64,-412.86"/>
<path data-id="27-260" d="M1561.60,-501.16,1454.94,-600.78"/>
<path data-id="28-40" d="M789.15,-318.53,652.86,-372.85"/>
<path data-id="28-114" d="M789.15,-318.53,752.59,-181.90"/>
<path data-id="28-235" d="M789.15,-318.53,835.96,-323.42"/>
<path data-id="29-43" d="M1650.88,-1698.97,1697.68,-1701.20"/>
<path data-id="29-89" d="M1650.88,-1698.97,1676.15,-1559.36"/>
<path data-id="29-139" d="M1650.88,-1698.97,1695.05,-1731.08"/>
<path data-id="30-67" d="M741.36,-1532.93,705.15,-1632.21"/>
<path data-id="30-117" d="M741.36,-1532.93,922.46,-1499.49"/>
<path data-id="30-202" d="M741.36,-1532.93,808.60,-1413.27"/>
<path data-id="30-210" d="M741.36,-1532.93,636.60,-1471.36"/>
<path data-id="30-246" d="M741.36,-1532.93,909.51,-1578.11"/>
<path data-id="31-96" d="M1643.36,-890.91,1576.78,-968.85"/>
<path data-id="31-162" d="M1643.36,-890.91,1495.65,-826.11"/>
<path data-id="31-203" d="M1643.36,-890.91,1569.14,-725.41"/>
<path data-id="31-215" d="M1643.36,-890.91,1723.31,-758.44"/>
<path data-id="32-177" d="M898.23,-432.09,856.34,-391.71"/>
<path data-id="32-198" d="M898.23,-432.09,904.84,-389.19"/>
<path data-id="32-233" d="M898.23,-432.09,802.87,-486.40"/>
<path data-id="33-138" d="M727.38,-769.64,672.16,-630.73"/>
<path data-id="33-184" d="M727.38,-769.64,594.92,-845.61"/>
<path data-id="33-187" d="M727.38,-769.64,724.98,-951.06"/>
<path data-id="33-193" d="M727.38,-769.64,585.76,-686.86"/>
<path data-id="33-286" d="M727.38,-769.64,838.89,-717.59"/>
<path data-id="34-60" d="M76.17,-1143.49,116.07,-1209.74"/>
<path data-id="34-126" d="M76.17,-1143.49,70.86,-1076.86"/>
<path data-id="34-272" d="M76.17,-1143.49,51.61,-1201.13"/>
<path data-id="35-65" d="M1156.61,-211.82,1276.40,-27.45"/>
<path data-id="35-151" d="M1156.61,-211.82,1110.64,-232.12"/>
<path data-id="35-158" d="M1156.61,-211.82,1200.91,-320.51"/>
<path data-id="36-112" d="M407.23,-1181.49,396.94,-1137.28"/>
<path data-id="36-149" d="M407.23,-1181.49,367.37,-1216.67"/>
<path data-id="36-224" d="M407.23,-1181.49,475.47,-1277.53"/>
<path data-id="36-241" d="M407.23,-1181.49,521.21,-1189.80"/>
<path data-id="37-50" d="M844.18,-620.94,822.47,-552.36"/>
<path data-id="37-88" d="M844.18,-620.94,878.48,-591.65"/>
<path data-id="37-138" d="M844.18,-620.94,672.16,-630.73"/>
<path data-id="37-286" d="M844.18,-620.94,838.89,-717.59"/>
<path data-id="38-108" d="M1731.97,-265.59,1657.50,-209.27"/>
<path data-id="38-234" d="M1731.97,-265.59,1656.69,-387.90"/>
<path data-id="39-62" d="M481.01,-5.26,592.48,-29.47"/>
<path data-id="39-94" d="M481.01,-5.26,441.33,-5.11"/>
<path data-id="39-231" d="M481.01,-5.26,545.55,-81.92"/>
<path data-id="40-54" d="M652.86,-372.85,630.00,-414.29"/>
<path data-id="40-263" d="M652.86,-372.85,627.47,-334.79"/>
<path data-id="41-261" d="M1254.17,-895.23,1224.93,-893.51"/>
<path data-id="41-270" d="M1254.17,-895.23,1341.03,-950.03"/>
<path data-id="41-294" d="M1254.17,-895.23,1336.14,-858.60"/>
<path data-id="42-51" d="M1439.35,-1002.63,1392.70,-936.85"/>
<path data-id="42-85" d="M1439.35,-1002.63,1450.99,-918.98"/>
<path data-id="42-156" d="M1439.35,-1002.63,1305.97,-1030.50"/>
<path data-id="42-167" d="M1439.35,-1002.63,1459.37,-1084.74"/>
<path data-id="43-89" d="M1697.68,-1701.20,1676.15,-1559.36"/>
<path data-id="43-139" d="M1697.68,-1701.20,1695.05,-1731.08"/>
<path data-id="44-53" d="M416.68,-1655.42,387.95,-1562.96"/>
<path data-id="44-82" d="M416.68,-1655.42,469.45,-1595.68"/>
<path data-id="44-150" d="M416.68,-1655.42,516.82,-1686.79"/>
<path data-id="44-291" d="M416.68,-1655.42,277.13,-1632.31"/>
<path data-id="45-132" d="M1415.94,-421.14,1384.38,-383.40"/>
<path data-id="45-165" d="M1415.94,-421.14,1476.79,-473.39"/>
<path data-id="45-197" d="M1415.94,-421.14,1403.35,-514.62"/>
<path data-id="46-56" d="M1109.71,-521.72,1181.73,-409.03"/>
<path data-id="46-195" d="M1109.71,-521.72,1118.22,-379.09"/>
<path data-id="46-227" d="M1109.71,-521.72,1020.03,-492.84"/>
<path data-id="46-244" d="M1109.71,-521.72,1116.22,-564.97"/>
<path data-id="47-105" d="M861.17,-286.35,848.51,-254.80"/>
<path data-id="47-179" d="M861.17,-286.35,1019.80,-229.01"/>
<path data-id="47-235" d="M861.17,-286.35,835.96,-323.42"/>
<path data-id="48-60" d="M89.01,-1294.29,116.07,-1209.74"/>
<path data-id="48-64" d="M89.01,-1294.29,11.35,-1398.75"/>
<path data-id="48-164" d="M89.01,-1294.29,136.86,-1336.80"/>
<path data-id="48-272" d="M89.01,-1294.29,51.61,-1201.13"/>
<path data-id="48-285" d="M89.01,-1294.29,171.47,-1243.47"/>
<path data-id="49-99" d="M1260.46,-495.58,1237.44,-403.04"/>
<path data-id="49-197" d="M1260.46,-495.58,1403.35,-514.62"/>
<path data-id="49-217" d="M1260.46,-495.58,1270.48,-401.88"/>
<path data-id="49-274" d="M1260.46,-495.58,1243.04,-525.45"/>
<path data-id="50-88" d="M822.47,-552.36,878.48,-591.65"/>
<path data-id="50-138" d="M822.47,-552.36,672.16,-630.73"/>
<path data-id="50-233" d="M822.47,-552.36,802.87,-486.40"/>
<path data-id="51-85" d="M1392.70,-936.85,1450.99,-918.98"/>
<path data-id="51-270" d="M1392.70,-936.85,1341.03,-950.03"/>
<path data-id="51-294" d="M1392.70,-936.85,1336.14,-858.60"/>
<path data-id="52-74" d="M633.34,-506.49,649.60,-480.15"/>
<path data-id="52-107" d="M633.34,-506.49,508.19,-616.38"/>
<path data-id="52-138" d="M633.34,-506.49,672.16,-630.73"/>
<path data-id="52-228" d="M633.34,-506.49,558.74,-432.10"/>
<path data-id="53-82" d="M387.95,-1562.96,469.45,-1595.68"/>
<path data-id="53-84" d="M387.95,-1562.96,304.78,-1484.80"/>
<path data-id="53-111" d="M387.95,-1562.96,357.01,-1435.87"/>
<path data-id="53-291" d="M387.95,-1562.96,277.13,-1632.31"/>
<path data-id="54-74" d="M630.00,-414.29,649.60,-480.15"/>
<path data-id="54-209" d="M630.00,-414.29,579.61,-403.99"/>
<path data-id="54-238" d="M630.00,-414.29,692.23,-460.01"/>
<path data-id="54-290" d="M630.00,-414.29,592.14,-346.66"/>
<path data-id="55-231" d="M479.15,-180.40,545.55,-81.92"/>
<path data-id="55-282" d="M479.15,-180.40,477.82,-228.53"/>
<path data-id="55-289" d="M479.15,-180.40,364.07,-165.74"/>
<path data-id="56-99" d="M1181.73,-409.03,1237.44,-403.04"/>
<path data-id="56-158" d="M1181.73,-409.03,1200.91,-320.51"/>
<path data-id="56-195" d="M1181.73,-409.03,1118.22,-379.09"/>
<path data-id="57-130" d="M531.64,-1333.98,593.25,-1307.96"/>
<path data-id="57-168" d="M531.64,-1333.98,446.30,-1364.85"/>
<path data-id="57-224" d="M531.64,-1333.98,475.47,-1277.53"/>
<path data-id="58-129" d="M1336.01,-676.84,1357.42,-802.19"/>
<path data-id="58-190" d="M1336.01,-676.84,1312.91,-805.16"/>
<path data-id="58-204" d="M1336.01,-676.84,1293.11,-648.24"/>
<path data-id="58-260" d="M1336.01,-676.84,1454.94,-600.78"/>
<path data-id="59-195" d="M1017.07,-458.42,1118.22,-379.09"/>
<path data-id="59-227" d="M1017.07,-458.42,1020.03,-492.84"/>
<path data-id="59-249" d="M1017.07,-458.42,998.49,-403.60"/>
<path data-id="60-104" d="M116.07,-1209.74,157.22,-1218.96"/>
<path data-id="60-272" d="M116.07,-1209.74,51.61,-1201.13"/>
<path data-id="61-92" d="M63.96,-1646.37,42.05,-1691.29"/>
<path data-id="61-155" d="M63.96,-1646.37,103.88,-1544.87"/>
<path data-id="61-253" d="M63.96,-1646.37,15.82,-1597.38"/>
<path data-id="62-81" d="M592.48,-29.47,659.57,-25.16"/>
<path data-id="62-231" d="M592.48,-29.47,545.55,-81.92"/>
<path data-id="63-167" d="M1430.73,-1107.18,1459.37,-1084.74"/>
<path data-id="64-164" d="M11.35,-1398.75,136.86,-1336.80"/>
<path data-id="64-252" d="M11.35,-1398.75,124.72,-1427.88"/>
<path data-id="64-253" d="M11.35,-1398.75,15.82,-1597.38"/>
<path data-id="65-264" d="M1276.40,-27.45,1493.73,-47.35"/>
<path data-id="66-151" d="M1054.08,-189.26,1110.64,-232.12"/>
<path data-id="66-179" d="M1054.08,-189.26,1019.80,-229.01"/>
<path data-id="66-188" d="M1054.08,-189.26,886.63,-22.19"/>
<path data-id="68-92" d="M14.64,-1689.27,42.05,-1691.29"/>
<path data-id="68-253" d="M14.64,-1689.27,15.82,-1597.38"/>
<path data-id="69-131" d="M1640.79,-1459.43,1658.55,-1528.69"/>
<path data-id="69-157" d="M1640.79,-1459.43,1553.60,-1518.92"/>
<path data-id="69-192" d="M1640.79,-1459.43,1692.79,-1427.81"/>
<path data-id="69-206" d="M1640.79,-1459.43,1576.25,-1411.26"/>
<path data-id="69-208" d="M1640.79,-1459.43,1705.78,-1505.56"/>
<path data-id="70-160" d="M159.13,-163.67,48.23,-179.14"/>
<path data-id="70-169" d="M159.13,-163.67,127.41,-60.12"/>
<path data-id="70-219" d="M159.13,-163.67,194.94,-200.11"/>
<path data-id="70-283" d="M159.13,-163.67,186.66,-157.74"/>
<path data-id="71-83" d="M1600.75,-1022.87,1729.58,-1164.79"/>
<path data-id="71-96" d="M1600.75,-1022.87,1576.78,-968.85"/>
<path data-id="71-171" d="M1600.75,-1022.87,1532.76,-1161.34"/>
<path data-id="72-148" d="M260.91,-763.86,190.40,-726.40"/>
<path data-id="72-205" d="M260.91,-763.86,319.16,-795.25"/>
<path data-id="72-255" d="M260.91,-763.86,281.51,-814.12"/>
<path data-id="72-256" d="M260.91,-763.86,302.37,-711.66"/>
<path data-id="72-296" d="M260.91,-763.86,200.48,-807.06"/>
<path data-id="73-84" d="M226.86,-1620.32,304.78,-1484.80"/>
<path data-id="73-258" d="M226.86,-1620.32,186.64,-1560.56"/>
<path data-id="73-291" d="M226.86,-1620.32,277.13,-1632.31"/>
<path data-id="74-238" d="M649.60,-480.15,692.23,-460.01"/>
<path data-id="75-160" d="M23.01,-211.88,48.23,-179.14"/>
<path data-id="76-134" d="M580.40,-928.68,520.52,-864.66"/>
<path data-id="76-184" d="M580.40,-928.68,594.92,-845.61"/>
<path data-id="76-187" d="M580.40,-928.68,724.98,-951.06"/>
<path data-id="76-194" d="M580.40,-928.68,520.10,-957.01"/>
<path data-id="77-90" d="M1174.59,-644.21,1096.62,-684.71"/>
<path data-id="77-204" d="M1174.59,-644.21,1293.11,-648.24"/>
<path data-id="77-218" d="M1174.59,-644.21,1171.42,-703.40"/>
<path data-id="77-244" d="M1174.59,-644.21,1116.22,-564.97"/>
<path data-id="78-150" d="M533.67,-1710.96,516.82,-1686.79"/>
<path data-id="79-132" d="M1471.24,-309.78,1384.38,-383.40"/>
<path data-id="79-172" d="M1471.24,-309.78,1544.74,-333.39"/>
<path data-id="80-259" d="M1422.49,-1468.96,1368.37,-1487.44"/>
<path data-id="80-295" d="M1422.49,-1468.96,1494.10,-1449.73"/>
<path data-id="81-102" d="M659.57,-25.16,720.60,-12.64"/>
<path data-id="82-276" d="M469.45,-1595.68,498.38,-1602.67"/>
<path data-id="83-171" d="M1729.58,-1164.79,1532.76,-1161.34"/>
<path data-id="83-201" d="M1729.58,-1164.79,1702.67,-968.14"/>
<path data-id="83-212" d="M1729.58,-1164.79,1693.35,-1247.79"/>
<path data-id="84-111" d="M304.78,-1484.80,357.01,-1435.87"/>
<path data-id="84-180" d="M304.78,-1484.80,226.52,-1444.48"/>
<path data-id="84-258" d="M304.78,-1484.80,186.64,-1560.56"/>
<path data-id="84-291" d="M304.78,-1484.80,277.13,-1632.31"/>
<path data-id="85-162" d="M1450.99,-918.98,1495.65,-826.11"/>
<path data-id="86-91" d="M339.50,-458.11,217.92,-472.67"/>
<path data-id="86-100" d="M339.50,-458.11,362.76,-432.83"/>
<path data-id="86-265" d="M339.50,-458.11,293.97,-618.80"/>
<path data-id="87-136" d="M1329.36,-1083.57,1223.03,-1152.94"/>
<path data-id="87-156" d="M1329.36,-1083.57,1305.97,-1030.50"/>
<path data-id="88-227" d="M878.48,-591.65,1020.03,-492.84"/>
<path data-id="89-131" d="M1676.15,-1559.36,1658.55,-1528.69"/>
<path data-id="89-208" d="M1676.15,-1559.36,1705.78,-1505.56"/>
<path data-id="90-213" d="M1096.62,-684.71,1117.23,-762.35"/>
<path data-id="90-218" d="M1096.62,-684.71,1171.42,-703.40"/>
<path data-id="90-244" d="M1096.62,-684.71,1116.22,-564.97"/>
<path data-id="91-116" d="M217.92,-472.67,229.10,-590.71"/>
<path data-id="91-153" d="M217.92,-472.67,248.15,-303.01"/>
<path data-id="93-119" d="M1529.31,-1681.24,1382.26,-1572.12"/>
<path data-id="93-271" d="M1529.31,-1681.24,1283.47,-1718.54"/>
<path data-id="94-137" d="M441.33,-5.11,360.31,-49.38"/>
<path data-id="95-151" d="M1092.87,-318.69,1110.64,-232.12"/>
<path data-id="95-158" d="M1092.87,-318.69,1200.91,-320.51"/>
<path data-id="95-179" d="M1092.87,-318.69,1019.80,-229.01"/>
<path data-id="95-195" d="M1092.87,-318.69,1118.22,-379.09"/>
<path data-id="95-249" d="M1092.87,-318.69,998.49,-403.60"/>
<path data-id="96-162" d="M1576.78,-968.85,1495.65,-826.11"/>
<path data-id="97-190" d="M1157.60,-763.84,1312.91,-805.16"/>
<path data-id="97-213" d="M1157.60,-763.84,1117.23,-762.35"/>
<path data-id="97-218" d="M1157.60,-763.84,1171.42,-703.40"/>
<path data-id="97-261" d="M1157.60,-763.84,1224.93,-893.51"/>
<path data-id="97-275" d="M1157.60,-763.84,1152.22,-917.70"/>
<path data-id="98-119" d="M1358.61,-1535.04,1382.26,-1572.12"/>
<path data-id="98-259" d="M1358.61,-1535.04,1368.37,-1487.44"/>
<path data-id="98-284" d="M1358.61,-1535.04,1322.92,-1534.30"/>
<path data-id="99-158" d="M1237.44,-403.04,1200.91,-320.51"/>
<path data-id="99-217" d="M1237.44,-403.04,1270.48,-401.88"/>
<path data-id="100-127" d="M362.76,-432.83,428.72,-408.86"/>
<path data-id="100-153" d="M362.76,-432.83,248.15,-303.01"/>
<path data-id="100-199" d="M362.76,-432.83,429.71,-490.87"/>
<path data-id="101-154" d="M795.57,-1144.89,837.23,-1181.68"/>
<path data-id="101-185" d="M795.57,-1144.89,713.38,-1062.44"/>
<path data-id="101-207" d="M795.57,-1144.89,793.14,-1208.46"/>
<path data-id="101-216" d="M795.57,-1144.89,878.42,-1116.81"/>
<path data-id="102-267" d="M720.60,-12.64,769.94,-17.53"/>
<path data-id="103-145" d="M582.19,-1400.75,647.35,-1397.24"/>
<path data-id="103-210" d="M582.19,-1400.75,636.60,-1471.36"/>
<path data-id="103-229" d="M582.19,-1400.75,520.97,-1542.22"/>
<path data-id="104-221" d="M157.22,-1218.96,200.62,-1204.97"/>
<path data-id="104-285" d="M157.22,-1218.96,171.47,-1243.47"/>
<path data-id="105-114" d="M848.51,-254.80,752.59,-181.90"/>
<path data-id="106-122" d="M135.94,-1042.55,148.38,-905.17"/>
<path data-id="106-126" d="M135.94,-1042.55,70.86,-1076.86"/>
<path data-id="106-135" d="M135.94,-1042.55,219.54,-959.38"/>
<path data-id="106-221" d="M135.94,-1042.55,200.62,-1204.97"/>
<path data-id="106-287" d="M135.94,-1042.55,259.90,-1115.43"/>
<path data-id="107-146" d="M508.19,-616.38,416.39,-657.88"/>
<path data-id="107-193" d="M508.19,-616.38,585.76,-686.86"/>
<path data-id="107-199" d="M508.19,-616.38,429.71,-490.87"/>
<path data-id="107-228" d="M508.19,-616.38,558.74,-432.10"/>
<path data-id="109-219" d="M170.68,-241.51,194.94,-200.11"/>
<path data-id="109-222" d="M170.68,-241.51,211.51,-286.61"/>
<path data-id="109-225" d="M170.68,-241.51,162.02,-296.82"/>
<path data-id="110-142" d="M1636.66,-595.16,1664.94,-627.92"/>
<path data-id="110-147" d="M1636.66,-595.16,1636.76,-560.06"/>
<path data-id="110-254" d="M1636.66,-595.16,1681.15,-565.96"/>
<path data-id="110-260" d="M1636.66,-595.16,1454.94,-600.78"/>
<path data-id="111-168" d="M357.01,-1435.87,446.30,-1364.85"/>
<path data-id="111-170" d="M357.01,-1435.87,266.08,-1279.45"/>
<path data-id="112-245" d="M396.94,-1137.28,394.28,-1074.02"/>
<path data-id="112-287" d="M396.94,-1137.28,259.90,-1115.43"/>
<path data-id="113-166" d="M29.09,-650.06,30.71,-679.73"/>
<path data-id="113-175" d="M29.09,-650.06,78.71,-609.03"/>
<path data-id="114-182" d="M752.59,-181.90,764.97,-158.77"/>
<path data-id="114-263" d="M752.59,-181.90,627.47,-334.79"/>
<path data-id="115-226" d="M1071.91,-1417.04,1102.51,-1460.11"/>
<path data-id="115-243" d="M1071.91,-1417.04,1028.83,-1479.39"/>
<path data-id="115-273" d="M1071.91,-1417.04,994.13,-1320.74"/>
<path data-id="115-292" d="M1071.91,-1417.04,937.49,-1388.34"/>
<path data-id="116-148" d="M229.10,-590.71,190.40,-726.40"/>
<path data-id="116-196" d="M229.10,-590.71,121.83,-541.21"/>
<path data-id="116-237" d="M229.10,-590.71,133.36,-648.36"/>
<path data-id="116-265" d="M229.10,-590.71,293.97,-618.80"/>
<path data-id="117-202" d="M922.46,-1499.49,808.60,-1413.27"/>
<path data-id="117-243" d="M922.46,-1499.49,1028.83,-1479.39"/>
<path data-id="117-246" d="M922.46,-1499.49,909.51,-1578.11"/>
<path data-id="117-292" d="M922.46,-1499.49,937.49,-1388.34"/>
<path data-id="118-144" d="M1038.09,-1714.30,1119.68,-1684.82"/>
<path data-id="118-243" d="M1038.09,-1714.30,1028.83,-1479.39"/>
<path data-id="118-246" d="M1038.09,-1714.30,909.51,-1578.11"/>
<path data-id="120-123" d="M68.08,-742.33,67.48,-708.49"/>
<path data-id="120-148" d="M68.08,-742.33,190.40,-726.40"/>
<path data-id="120-236" d="M68.08,-742.33,51.49,-877.68"/>
<path data-id="120-296" d="M68.08,-742.33,200.48,-807.06"/>
<path data-id="121-150" d="M564.41,-1614.09,516.82,-1686.79"/>
<path data-id="121-229" d="M564.41,-1614.09,520.97,-1542.22"/>
<path data-id="121-276" d="M564.41,-1614.09,498.38,-1602.67"/>
<path data-id="122-135" d="M148.38,-905.17,219.54,-959.38"/>
<path data-id="122-236" d="M148.38,-905.17,51.49,-877.68"/>
<path data-id="122-296" d="M148.38,-905.17,200.48,-807.06"/>
<path data-id="123-148" d="M67.48,-708.49,190.40,-726.40"/>
<path data-id="123-166" d="M67.48,-708.49,30.71,-679.73"/>
<path data-id="123-237" d="M67.48,-708.49,133.36,-648.36"/>
<path data-id="124-149" d="M304.78,-1233.51,367.37,-1216.67"/>
<path data-id="124-170" d="M304.78,-1233.51,266.08,-1279.45"/>
<path data-id="124-221" d="M304.78,-1233.51,200.62,-1204.97"/>
<path data-id="124-287" d="M304.78,-1233.51,259.90,-1115.43"/>
<path data-id="125-185" d="M578.05,-1129.97,713.38,-1062.44"/>
<path data-id="125-194" d="M578.05,-1129.97,520.10,-957.01"/>
<path data-id="125-241" d="M578.05,-1129.97,521.21,-1189.80"/>
<path data-id="125-250" d="M578.05,-1129.97,654.24,-1281.77"/>
<path data-id="126-251" d="M70.86,-1076.86,12.85,-1040.29"/>
<path data-id="127-152" d="M428.72,-408.86,399.20,-311.80"/>
<path data-id="127-181" d="M428.72,-408.86,457.97,-330.64"/>
<path data-id="127-199" d="M428.72,-408.86,429.71,-490.87"/>
<path data-id="127-269" d="M428.72,-408.86,510.42,-403.87"/>
<path data-id="128-136" d="M1083.60,-1163.88,1223.03,-1152.94"/>
<path data-id="128-161" d="M1083.60,-1163.88,1070.09,-1064.25"/>
<path data-id="128-183" d="M1083.60,-1163.88,1167.24,-1059.54"/>
<path data-id="128-278" d="M1083.60,-1163.88,1016.43,-1093.33"/>
<path data-id="129-162" d="M1357.42,-802.19,1495.65,-826.11"/>
<path data-id="129-190" d="M1357.42,-802.19,1312.91,-805.16"/>
<path data-id="129-294" d="M1357.42,-802.19,1336.14,-858.60"/>
<path data-id="130-145" d="M593.25,-1307.96,647.35,-1397.24"/>
<path data-id="130-241" d="M593.25,-1307.96,521.21,-1189.80"/>
<path data-id="130-250" d="M593.25,-1307.96,654.24,-1281.77"/>
<path data-id="131-157" d="M1658.55,-1528.69,1553.60,-1518.92"/>
<path data-id="131-208" d="M1658.55,-1528.69,1705.78,-1505.56"/>
<path data-id="132-217" d="M1384.38,-383.40,1270.48,-401.88"/>
<path data-id="133-232" d="M961.81,-1260.42,853.44,-1217.83"/>
<path data-id="133-273" d="M961.81,-1260.42,994.13,-1320.74"/>
<path data-id="133-299" d="M961.81,-1260.42,919.86,-1297.17"/>
<path data-id="134-184" d="M520.52,-864.66,594.92,-845.61"/>
<path data-id="134-191" d="M520.52,-864.66,445.50,-789.19"/>
<path data-id="134-194" d="M520.52,-864.66,520.10,-957.01"/>
<path data-id="134-297" d="M520.52,-864.66,412.94,-828.79"/>
<path data-id="135-287" d="M219.54,-959.38,259.90,-1115.43"/>
<path data-id="135-288" d="M219.54,-959.38,312.40,-931.25"/>
<path data-id="136-183" d="M1223.03,-1152.94,1167.24,-1059.54"/>
<path data-id="136-248" d="M1223.03,-1152.94,1297.92,-1273.52"/>
<path data-id="137-169" d="M360.31,-49.38,127.41,-60.12"/>
<path data-id="137-283" d="M360.31,-49.38,186.66,-157.74"/>
<path data-id="137-289" d="M360.31,-49.38,364.07,-165.74"/>
<path data-id="138-193" d="M672.16,-630.73,585.76,-686.86"/>
<path data-id="138-286" d="M672.16,-630.73,838.89,-717.59"/>
<path data-id="140-240" d="M945.52,-729.57,935.90,-800.14"/>
<path data-id="140-262" d="M945.52,-729.57,912.30,-726.93"/>
<path data-id="141-214" d="M19.89,-16.13,88.20,-20.07"/>
<path data-id="142-203" d="M1664.94,-627.92,1569.14,-725.41"/>
<path data-id="142-215" d="M1664.94,-627.92,1723.31,-758.44"/>
<path data-id="142-254" d="M1664.94,-627.92,1681.15,-565.96"/>
<path data-id="143-160" d="M101.13,-51.83,48.23,-179.14"/>
<path data-id="143-169" d="M101.13,-51.83,127.41,-60.12"/>
<path data-id="143-173" d="M101.13,-51.83,119.02,-22.74"/>
<path data-id="143-214" d="M101.13,-51.83,88.20,-20.07"/>
<path data-id="144-277" d="M1119.68,-1684.82,1164.62,-1672.45"/>
<path data-id="145-176" d="M647.35,-1397.24,718.31,-1288.98"/>
<path data-id="145-202" d="M647.35,-1397.24,808.60,-1413.27"/>
<path data-id="145-210" d="M647.35,-1397.24,636.60,-1471.36"/>
<path data-id="145-250" d="M647.35,-1397.24,654.24,-1281.77"/>
<path data-id="146-191" d="M416.39,-657.88,445.50,-789.19"/>
<path data-id="146-199" d="M416.39,-657.88,429.71,-490.87"/>
<path data-id="146-256" d="M416.39,-657.88,302.37,-711.66"/>
<path data-id="146-265" d="M416.39,-657.88,293.97,-618.80"/>
<path data-id="147-223" d="M1636.76,-560.06,1640.64,-412.86"/>
<path data-id="147-254" d="M1636.76,-560.06,1681.15,-565.96"/>
<path data-id="148-237" d="M190.40,-726.40,133.36,-648.36"/>
<path data-id="148-296" d="M190.40,-726.40,200.48,-807.06"/>
<path data-id="149-224" d="M367.37,-1216.67,475.47,-1277.53"/>
<path data-id="150-276" d="M516.82,-1686.79,498.38,-1602.67"/>
<path data-id="151-158" d="M1110.64,-232.12,1200.91,-320.51"/>
<path data-id="152-153" d="M399.20,-311.80,248.15,-303.01"/>
<path data-id="152-181" d="M399.20,-311.80,457.97,-330.64"/>
<path data-id="152-282" d="M399.20,-311.80,477.82,-228.53"/>
<path data-id="152-289" d="M399.20,-311.80,364.07,-165.74"/>
<path data-id="153-222" d="M248.15,-303.01,211.51,-286.61"/>
<path data-id="153-289" d="M248.15,-303.01,364.07,-165.74"/>
<path data-id="154-207" d="M837.23,-1181.68,793.14,-1208.46"/>
<path data-id="154-216" d="M837.23,-1181.68,878.42,-1116.81"/>
<path data-id="154-232" d="M837.23,-1181.68,853.44,-1217.83"/>
<path data-id="155-252" d="M103.88,-1544.87,124.72,-1427.88"/>
<path data-id="155-253" d="M103.88,-1544.87,15.82,-1597.38"/>
<path data-id="155-258" d="M103.88,-1544.87,186.64,-1560.56"/>
<path data-id="156-183" d="M1305.97,-1030.50,1167.24,-1059.54"/>
<path data-id="156-186" d="M1305.97,-1030.50,1217.87,-950.91"/>
<path data-id="156-270" d="M1305.97,-1030.50,1341.03,-950.03"/>
<path data-id="157-206" d="M1553.60,-1518.92,1576.25,-1411.26"/>
<path data-id="157-295" d="M1553.60,-1518.92,1494.10,-1449.73"/>
<path data-id="158-195" d="M1200.91,-320.51,1118.22,-379.09"/>
<path data-id="159-161" d="M1028.34,-985.63,1070.09,-1064.25"/>
<path data-id="159-266" d="M1028.34,-985.63,1062.79,-965.11"/>
<path data-id="159-281" d="M1028.34,-985.63,953.53,-966.86"/>
<path data-id="161-278" d="M1070.09,-1064.25,1016.43,-1093.33"/>
<path data-id="163-171" d="M1488.73,-1298.08,1532.76,-1161.34"/>
<path data-id="163-174" d="M1488.73,-1298.08,1641.25,-1278.08"/>
<path data-id="163-206" d="M1488.73,-1298.08,1576.25,-1411.26"/>
<path data-id="163-295" d="M1488.73,-1298.08,1494.10,-1449.73"/>
<path data-id="164-170" d="M136.86,-1336.80,266.08,-1279.45"/>
<path data-id="164-252" d="M136.86,-1336.80,124.72,-1427.88"/>
<path data-id="164-285" d="M136.86,-1336.80,171.47,-1243.47"/>
<path data-id="165-172" d="M1476.79,-473.39,1544.74,-333.39"/>
<path data-id="165-197" d="M1476.79,-473.39,1403.35,-514.62"/>
<path data-id="165-260" d="M1476.79,-473.39,1454.94,-600.78"/>
<path data-id="167-171" d="M1459.37,-1084.74,1532.76,-1161.34"/>
<path data-id="168-170" d="M446.30,-1364.85,266.08,-1279.45"/>
<path data-id="168-224" d="M446.30,-1364.85,475.47,-1277.53"/>
<path data-id="168-229" d="M446.30,-1364.85,520.97,-1542.22"/>
<path data-id="169-173" d="M127.41,-60.12,119.02,-22.74"/>
<path data-id="170-221" d="M266.08,-1279.45,200.62,-1204.97"/>
<path data-id="170-285" d="M266.08,-1279.45,171.47,-1243.47"/>
<path data-id="171-174" d="M1532.76,-1161.34,1641.25,-1278.08"/>
<path data-id="172-223" d="M1544.74,-333.39,1640.64,-412.86"/>
<path data-id="172-234" d="M1544.74,-333.39,1656.69,-387.90"/>
<path data-id="173-214" d="M119.02,-22.74,88.20,-20.07"/>
<path data-id="174-212" d="M1641.25,-1278.08,1693.35,-1247.79"/>
<path data-id="175-196" d="M78.71,-609.03,121.83,-541.21"/>
<path data-id="175-237" d="M78.71,-609.03,133.36,-648.36"/>
<path data-id="176-202" d="M718.31,-1288.98,808.60,-1413.27"/>
<path data-id="176-230" d="M718.31,-1288.98,769.78,-1241.15"/>
<path data-id="176-250" d="M718.31,-1288.98,654.24,-1281.77"/>
<path data-id="177-198" d="M856.34,-391.71,904.84,-389.19"/>
<path data-id="177-233" d="M856.34,-391.71,802.87,-486.40"/>
<path data-id="177-235" d="M856.34,-391.71,835.96,-323.42"/>
<path data-id="178-264" d="M1523.20,-7.10,1493.73,-47.35"/>
<path data-id="179-198" d="M1019.80,-229.01,904.84,-389.19"/>
<path data-id="180-252" d="M226.52,-1444.48,124.72,-1427.88"/>
<path data-id="180-258" d="M226.52,-1444.48,186.64,-1560.56"/>
<path data-id="181-269" d="M457.97,-330.64,510.42,-403.87"/>
<path data-id="181-282" d="M457.97,-330.64,477.82,-228.53"/>
<path data-id="182-279" d="M764.97,-158.77,742.10,-127.01"/>
<path data-id="183-186" d="M1167.24,-1059.54,1217.87,-950.91"/>
<path data-id="184-187" d="M594.92,-845.61,724.98,-951.06"/>
<path data-id="184-193" d="M594.92,-845.61,585.76,-686.86"/>
<path data-id="186-261" d="M1217.87,-950.91,1224.93,-893.51"/>
<path data-id="186-275" d="M1217.87,-950.91,1152.22,-917.70"/>
<path data-id="187-240" d="M724.98,-951.06,935.90,-800.14"/>
<path data-id="187-281" d="M724.98,-951.06,953.53,-966.86"/>
<path data-id="188-267" d="M886.63,-22.19,769.94,-17.53"/>
<path data-id="189-200" d="M1236.62,-1567.11,1148.89,-1518.02"/>
<path data-id="189-284" d="M1236.62,-1567.11,1322.92,-1534.30"/>
<path data-id="189-298" d="M1236.62,-1567.11,1197.54,-1608.91"/>
<path data-id="190-294" d="M1312.91,-805.16,1336.14,-858.60"/>
<path data-id="191-193" d="M445.50,-789.19,585.76,-686.86"/>
<path data-id="191-297" d="M445.50,-789.19,412.94,-828.79"/>
<path data-id="192-208" d="M1692.79,-1427.81,1705.78,-1505.56"/>
<path data-id="195-249" d="M1118.22,-379.09,998.49,-403.60"/>
<path data-id="197-204" d="M1403.35,-514.62,1293.11,-648.24"/>
<path data-id="197-260" d="M1403.35,-514.62,1454.94,-600.78"/>
<path data-id="198-249" d="M904.84,-389.19,998.49,-403.60"/>
<path data-id="199-265" d="M429.71,-490.87,293.97,-618.80"/>
<path data-id="200-226" d="M1148.89,-1518.02,1102.51,-1460.11"/>
<path data-id="200-242" d="M1148.89,-1518.02,1185.98,-1412.96"/>
<path data-id="200-298" d="M1148.89,-1518.02,1197.54,-1608.91"/>
<path data-id="202-247" d="M808.60,-1413.27,813.67,-1254.39"/>
<path data-id="202-292" d="M808.60,-1413.27,937.49,-1388.34"/>
<path data-id="203-215" d="M1569.14,-725.41,1723.31,-758.44"/>
<path data-id="203-260" d="M1569.14,-725.41,1454.94,-600.78"/>
<path data-id="204-274" d="M1293.11,-648.24,1243.04,-525.45"/>
<path data-id="205-255" d="M319.16,-795.25,281.51,-814.12"/>
<path data-id="205-256" d="M319.16,-795.25,302.37,-711.66"/>
<path data-id="205-297" d="M319.16,-795.25,412.94,-828.79"/>
<path data-id="206-295" d="M1576.25,-1411.26,1494.10,-1449.73"/>
<path data-id="207-230" d="M793.14,-1208.46,769.78,-1241.15"/>
<path data-id="207-232" d="M793.14,-1208.46,853.44,-1217.83"/>
<path data-id="207-247" d="M793.14,-1208.46,813.67,-1254.39"/>
<path data-id="209-228" d="M579.61,-403.99,558.74,-432.10"/>
<path data-id="209-290" d="M579.61,-403.99,592.14,-346.66"/>
<path data-id="210-229" d="M636.60,-1471.36,520.97,-1542.22"/>
<path data-id="211-213" d="M1118.81,-922.16,1117.23,-762.35"/>
<path data-id="211-266" d="M1118.81,-922.16,1062.79,-965.11"/>
<path data-id="211-275" d="M1118.81,-922.16,1152.22,-917.70"/>
<path data-id="216-220" d="M878.42,-1116.81,946.39,-1128.93"/>
<path data-id="216-281" d="M878.42,-1116.81,953.53,-966.86"/>
<path data-id="219-283" d="M194.94,-200.11,186.66,-157.74"/>
<path data-id="219-289" d="M194.94,-200.11,364.07,-165.74"/>
<path data-id="220-278" d="M946.39,-1128.93,1016.43,-1093.33"/>
<path data-id="221-285" d="M200.62,-1204.97,171.47,-1243.47"/>
<path data-id="221-287" d="M200.62,-1204.97,259.90,-1115.43"/>
<path data-id="222-225" d="M211.51,-286.61,162.02,-296.82"/>
<path data-id="223-234" d="M1640.64,-412.86,1656.69,-387.90"/>
<path data-id="223-239" d="M1640.64,-412.86,1712.58,-517.39"/>
<path data-id="224-241" d="M475.47,-1277.53,521.21,-1189.80"/>
<path data-id="226-242" d="M1102.51,-1460.11,1185.98,-1412.96"/>
<path data-id="226-243" d="M1102.51,-1460.11,1028.83,-1479.39"/>
<path data-id="228-269" d="M558.74,-432.10,510.42,-403.87"/>
<path data-id="229-276" d="M520.97,-1542.22,498.38,-1602.67"/>
<path data-id="230-247" d="M769.78,-1241.15,813.67,-1254.39"/>
<path data-id="232-247" d="M853.44,-1217.83,813.67,-1254.39"/>
<path data-id="232-299" d="M853.44,-1217.83,919.86,-1297.17"/>
<path data-id="236-251" d="M51.49,-877.68,12.85,-1040.29"/>
<path data-id="239-254" d="M1712.58,-517.39,1681.15,-565.96"/>
<path data-id="240-262" d="M935.90,-800.14,912.30,-726.93"/>
<path data-id="240-281" d="M935.90,-800.14,953.53,-966.86"/>
<path data-id="242-268" d="M1185.98,-1412.96,1247.86,-1363.17"/>
<path data-id="242-293" d="M1185.98,-1412.96,1295.79,-1425.64"/>
<path data-id="243-292" d="M1028.83,-1479.39,937.49,-1388.34"/>
<path data-id="245-280" d="M394.28,-1074.02,326.84,-970.75"/>
<path data-id="245-287" d="M394.28,-1074.02,259.90,-1115.43"/>
<path data-id="247-299" d="M813.67,-1254.39,919.86,-1297.17"/>
<path data-id="248-268" d="M1297.92,-1273.52,1247.86,-1363.17"/>
<path data-id="255-288" d="M281.51,-814.12,312.40,-931.25"/>
<path data-id="255-296" d="M281.51,-814.12,200.48,-807.06"/>
<path data-id="256-265" d="M302.37,-711.66,293.97,-618.80"/>
<path data-id="257-271" d="M1193.02,-1708.20,1283.47,-1718.54"/>
<path data-id="257-277" d="M1193.02,-1708.20,1164.62,-1672.45"/>
<path data-id="259-293" d="M1368.37,-1487.44,1295.79,-1425.64"/>
<path data-id="261-275" d="M1224.93,-893.51,1152.22,-917.70"/>
<path data-id="262-286" d="M912.30,-726.93,838.89,-717.59"/>
<path data-id="263-290" d="M627.47,-334.79,592.14,-346.66"/>
<path data-id="268-293" d="M1247.86,-1363.17,1295.79,-1425.64"/>
<path data-id="270-294" d="M1341.03,-950.03,1336.14,-858.60"/>
<path data-id="273-292" d="M994.13,-1320.74,937.49,-1388.34"/>
<path data-id="273-299" d="M994.13,-1320.74,919.86,-1297.17"/>
<path data-id="277-298" d="M1164.62,-1672.45,1197.54,-1608.91"/>
<path data-id="280-287" d="M326.84,-970.75,259.90,-1115.43"/>
<path data-id="280-288" d="M326.84,-970.75,312.40,-931.25"/>
<path data-id="282-290" d="M477.82,-228.53,592.14,-346.66"/>
<path data-id="283-289" d="M186.66,-157.74,364.07,-165.74"/>
<path data-id="284-293" d="M1322.92,-1534.30,1295.79,-1425.64"/>
<path data-id="288-297" d="M312.40,-931.25,412.94,-828.79"/>
<path data-id="292-299" d="M937.49,-1388.34,919.86,-1297.17"/>
<circle data-id="0" cx="1510.42" cy="-1006.77" r="10.00px"/>
<text data-id="0" x="1510.42" y="-1006.77">R0</text>
<circle data-id="1" cx="1044.50" cy="-600.01" r="10.00px"/>
<text data-id="1" x="1044.50" y="-600.01">R1</text>
<circle data-id="2" cx="715.16" cy="-1007.32" r="10.00px"/>
<text data-id="2" x="715.16" y="-1007.32">R2</text>
<circle data-id="3" cx="1319.71" cy="-1603.44" r="10.00px"/>
<text data-id="3" x="1319.71" y="-1603.44">R3</text>
<circle data-id="4" cx="1211.07" cy="-527.45" r="10.00px"/>
<text data-id="4" x="1211.07" y="-527.45">R4</text>
<circle data-id="5" cx="1631.45" cy="-981.90" r="10.00px"/>
<text data-id="5" x="1631.45" y="-981.90">R5</text>
<circle data-id="6" cx="722.20" cy="-53.74" r="10.00px"/>
<text data-id="6" x="722.20" y="-53.74">R6</text>
<circle data-id="7" cx="1671.62" cy="-1380.91" r="10.00px"/>
<text data-id="7" x="1671.62" y="-1380.91">R7</text>
<circle data-id="8" cx="1639.16" cy="-75.99" r="10.00px"/>
<text data-id="8" x="1639.16" y="-75.99">R8</text>
<circle data-id="9" cx="968.07" cy="-712.53" r="10.00px"/>
<text data-id="9" x="968.07" y="-712.53">R9</text>
<circle data-id="10" cx="417.60" cy="-1050.87" r="10.00px"/>
<text data-id="10" x="417.60" y="-1050.87">R10</text>
<circle data-id="11" cx="99.55" cy="-291.82" r="10.00px"/>
<text data-id="11" x="99.55" y="-291.82">R11</text>
<circle data-id="12" cx="1135.55" cy="-1024.60" r="10.00px"/>
<text data-id="12" x="1135.55" y="-1024.60">R12</text>
<circle data-id="13" cx="776.84" cy="-458.99" r="10.00px"/>
<text data-id="13" x="776.84" y="-458.99">R13</text>
<circle data-id="14" cx="558.25" cy="-1386.00" r="10.00px"/>
<text data-id="14" x="558.25" y="-1386.00">R14</text>
<circle data-id="15" cx="1489.92" cy="-769.80" r="10.00px"/>
<text data-id="15" x="1489.92" y="-769.80">R15</text>
<circle data-id="16" cx="164.52" cy="-468.73" r="10.00px"/>
<text data-id="16" x="164.52" y="-468.73">R16</text>
<circle data-id="17" cx="1578.97" cy="-1662.30" r="10.00px"/>
<text data-id="17" x="1578.97" y="-1662.30">R17</text>
<circle data-id="18" cx="1005.07" cy="-1180.14" r="10.00px"/>
<text data-id="18" x="1005.07" y="-1180.14">R18</text>
<circle data-id="19" cx="231.42" cy="-1403.70" r="10.00px"/>
<text data-id="19" x="231.42" y="-1403.70">R19</text>
<circle data-id="20" cx="1385.76" cy="-1109.77" r="10.00px"/>
<text data-id="20" x="1385.76" y="-1109.77">R20</text>
<circle data-id="21" cx="1568.97" cy="-207.39" r="10.00px"/>
<text data-id="21" x="1568.97" y="-207.39">R21</text>
<circle data-id="22" cx="1707.88" cy="-939.85" r="10.00px"/>
<text data-id="22" x="1707.88" y="-939.85">R22</text>
<circle data-id="23" cx="1390.23" cy="-1214.27" r="10.00px"/>
<text data-id="23" x="1390.23" y="-1214.27">R23</text>
<circle data-id="24" cx="609.90" cy="-1653.68" r="10.00px"/>
<text data-id="24" x="609.90" y="-1653.68">R24</text>
<circle data-id="25" cx="142.91" cy="-1707.65" r="10.00px"/>
<text data-id="25" x="142.91" y="-1707.65">R25</text>
<circle data-id="26" cx="1031.01" cy="-1226.71" r="10.00px"/>
<text data-id="26" x="1031.01" y="-1226.71">R26</text>
<circle data-id="27" cx="1561.60" cy="-501.16" r="10.00px"/>
<text data-id="27" x="1561.60" y="-501.16">R27</text>
<circle data-id="28" cx="789.15" cy="-318.53" r="10.00px"/>
<text data-id="28" x="789.15" y="-318.53">R28</text>
<circle data-id="29" cx="1650.88" cy="-1698.97" r="10.00px"/>
<text data-id="29" x="1650.88" y="-1698.97">R29</text>
<circle data-id="30" cx="741.36" cy="-1532.93" r="10.00px"/>
<text data-id="30" x="741.36" y="-1532.93">R30</text>
<circle data-id="31" cx="1643.36" cy="-890.91" r="10.00px"/>
<text data-id="31" x="1643.36" y="-890.91">R31</text>
<circle data-id="32" cx="898.23" cy="-432.09" r="10.00px"/>
<text data-id="32" x="898.23" y="-432.09">R32</text>
<circle data-id="33" cx="727.38" cy="-769.64" r="10.00px"/>
<text data-id="33" x="727.38" y="-769.64">R33</text>
<circle data-id="34" cx="76.17" cy="-1143.49" r="10.00px"/>
<text data-id="34" x="76.17" y="-1143.49">R34</text>
<circle data-id="35" cx="1156.61" cy="-211.82" r="10.00px"/>
<text data-id="35" x="1156.61" y="-211.82">R35</text>
<circle data-id="36" cx="407.23" cy="-1181.49" r="10.00px"/>
<text data-id="36" x="407.23" y="-1181.49">R36</text>
<circle data-id="37" cx="844.18" cy="-620.94" r="10.00px"/>
<text data-id="37" x="844.18" y="-620.94">R37</text>
<circle data-id="38" cx="1731.97" cy="-265.59" r="10.00px"/>
<text data-id="38" x="1731.97" y="-265.59">R38</text>
<circle data-id="39" cx="481.01" cy="-5.26" r="10.00px"/>
<text data-id="39" x="481.01" y="-5.26">R39</text>
<circle data-id="40" cx="652.86" cy="-372.85" r="10.00px"/>
<text data-id="40" x="652.86" y="-372.85">R40</text>
<circle data-id="41" cx="1254.17" cy="-895.23" r="10.00px"/>
<text data-id="41" x="1254.17" y="-895.23">R41</text>
<circle data-id="42" cx="1439.35" cy="-1002.63" r="10.00px"/>
<text data-id="42" x="1439.35" y="-1002.63">R42</text>
<circle data-id="43" cx="1697.68" cy="-1701.20" r="10.00px"/>
<text data-id="43" x="1697.68" y="-1701.20">R43</text>
<circle data-id="44" cx="416.68" cy="-1655.42" r="10.00px"/>
<text data-id="44" x="416.68" y="-1655.42">R44</text>
<circle data-id="45" cx="1415.94" cy="-421.14" r="10.00px"/>
<text data-id="45" x="1415.94" y="-421.14">R45</text>
<circle data-id="46" cx="1109.71" cy="-521.72" r="10.00px"/>
<text data-id="46" x="1109.71" y="-521.72">R46</text>
<circle data-id="47" cx="861.17" cy="-286.35" r="10.00px"/>
<text data-id="47" x="861.17" y="-286.35">R47</text>
<circle data-id="48" cx="89.01" cy="-1294.29" r="10.00px"/>
<text data-id="48" x="89.01" y="-1294.29">R48</text>
<circle data-id="49" cx="1260.46" cy="-495.58" r="10.00px"/>
<text data-id="49" x="1260.46" y="-495.58">R49</text>
<circle data-id="50" cx="822.47" cy="-552.36" r="10.00px"/>
<text data-id="50" x="822.47" y="-552.36">R50</text>
<circle data-id="51" cx="1392.70" cy="-936.85" r="10.00px"/>
<text data-id="51" x="1392.70" y="-936.85">R51</text>
<circle data-id="52" cx="633.34" cy="-506.49" r="10.00px"/>
<text data-id="52" x="633.34" y="-506.49">R52</text>
<circle data-id="53" cx="387.95" cy="-1562.96" r="10.00px"/>
<text data-id="53" x="387.95" y="-1562.96">R53</text>
<circle data-id="54" cx="630.00" cy="-414.29" r="10.00px"/>
<text data-id="54" x="630.00" y="-414.29">R54</text>
<circle data-id="55" cx="479.15" cy="-180.40" r="10.00px"/>
<text data-id="55" x="479.15" y="-180.40">R55</text>
<circle data-id="56" cx="1181.73" cy="-409.03" r="10.00px"/>
<text data-id="56" x="1181.73" y="-409.03">R56</text>
<circle data-id="57" cx="531.64" cy="-1333.98" r="10.00px"/>
<text data-id="57" x="531.64" y="-1333.98">R57</text>
<circle data-id="58" cx="1336.01" cy="-676.84" r="10.00px"/>
<text data-id="58" x="1336.01" y="-676.84">R58</text>
<circle data-id="59" cx="1017.07" cy="-458.42" r="10.00px"/>
<text data-id="59" x="1017.07" y="-458.42">R59</text>
<circle data-id="60" cx="116.07" cy="-1209.74" r="10.00px"/>
<text data-id="60" x="116.07" y="-1209.74">R60</text>
<circle data-id="61" cx="63.96" cy="-1646.37" r="10.00px"/>
<text data-id="61" x="63.96" y="-1646.37">R61</text>
<circle data-id="62" cx="592.48" cy="-29.47" r="10.00px"/>
<text data-id="62" x="592.48" y="-29.47">R62</text>
<circle data-id="63" cx="1430.73" cy="-1107.18" r="10.00px"/>
<text data-id="63" x="1430.73" y="-1107.18">R63</text>
<circle data-id="64" cx="11.35" cy="-1398.75" r="10.00px"/>
<text data-id="64" x="11.35" y="-1398.75">R64</text>
<circle data-id="65" cx="1276.40" cy="-27.45" r="10.00px"/>
<text data-id="65" x="1276.40" y="-27.45">R65</text>
<circle data-id="66" cx="1054.08" cy="-189.26" r="10.00px"/>
<text data-id="66" x="1054.08" y="-189.26">R66</text>
<circle data-id="67" cx="705.15" cy="-1632.21" r="10.00px"/>
<text data-id="67" x="705.15" y="-1632.21">R67</text>
<circle data-id="68" cx="14.64" cy="-1689.27" r="10.00px"/>
<text data-id="68" x="14.64" y="-1689.27">R68</text>
<circle data-id="69" cx="1640.79" cy="-1459.43" r="10.00px"/>
<text data-id="69" x="1640.79" y="-1459.43">R69</text>
<circle data-id="70" cx="159.13" cy="-163.67" r="10.00px"/>
<text data-id="70" x="159.13" y="-163.67">R70</text>
<circle data-id="71" cx="1600.75" cy="-1022.87" r="10.00px"/>
<text data-id="71" x="1600.75" y="-1022.87">R71</text>
<circle data-id="72" cx="260.91" cy="-763.86" r="10.00px"/>
<text data-id="72" x="260.91" y="-763.86">R72</text>
<circle data-id="73" cx="226.86" cy="-1620.32" r="10.00px"/>
<text data-id="73" x="226.86" y="-1620.32">R73</text>
<circle data-id="74" cx="649.60" cy="-480.15" r="10.00px"/>
<text data-id="74" x="649.60" y="-480.15">R74</text>
<circle data-id="75" cx="23.01" cy="-211.88" r="10.00px"/>
<text data-id="75" x="23.01" y="-211.88">R75</text>
<circle data-id="76" cx="580.40" cy="-928.68" r="10.00px"/>
<text data-id="76" x="580.40" y="-928.68">R76</text>
<circle data-id="77" cx="1174.59" cy="-644.21" r="10.00px"/>
<text data-id="77" x="1174.59" y="-644.21">R77</text>
<circle data-id="78" cx="533.67" cy="-1710.96" r="10.00px"/>
<text data-id="78" x="533.67" y="-1710.96">R78</text>
<circle data-id="79" cx="1471.24" cy="-309.78" r="10.00px"/>
<text data-id="79" x="1471.24" y="-309.78">R79</text>
<circle data-id="80" cx="1422.49" cy="-1468.96" r="10.00px"/>
<text data-id="80" x="1422.49" y="-1468.96">R80</text>
<circle data-id="81" cx="659.57" cy="-25.16" r="10.00px"/>
<text data-id="81" x="659.57" y="-25.16">R81</text>
<circle data-id="82" cx="469.45" cy="-1595.68" r="10.00px"/>
<text data-id="82" x="469.45" y="-1595.68">R82</text>
<circle data-id="83" cx="1729.58" cy="-1164.79" r="10.00px"/>
<text data-id="83" x="1729.58" y="-1164.79">R83</text>
<circle data-id="84" cx="304.78" cy="-1484.80" r="10.00px"/>
<text data-id="84" x="304.78" y="-1484.80">R84</text>
<circle data-id="85" cx="1450.99" cy="-918.98" r="10.00px"/>
<text data-id="85" x="1450.99" y="-918.98">R85</text>
<circle data-id="86" cx="339.50" cy="-458.11" r="10.00px"/>
<text data-id="86" x="339.50" y="-458.11">R86</text>
<circle data-id="87" cx="1329.36" cy="-1083.57" r="10.00px"/>
<text data-id="87" x="1329.36" y="-1083.57">R87</text>
<circle data-id="88" cx="878.48" cy="-591.65" r="10.00px"/>
<text data-id="88" x="878.48" y="-591.65">R88</text>
<circle data-id="89" cx="1676.15" cy="-1559.36" r="10.00px"/>
<text data-id="89" x="1676.15" y="-1559.36">R89</text>
<circle data-id="90" cx="1096.62" cy="-684.71" r="10.00px"/>
<text data-id="90" x="1096.62" y="-684.71">R90</text>
<circle data-id="91" cx="217.92" cy="-472.67" r="10.00px"/>
<text data-id="91" x="217.92" y="-472.67">R91</text>
<circle data-id="92" cx="42.05" cy="-1691.29" r="10.00px"/>
<text data-id="92" x="42.05" y="-1691.29">R92</text>
<circle data-id="93" cx="1529.31" cy="-1681.24" r="10.00px"/>
<text data-id="93" x="1529.31" y="-1681.24">R93</text>
<circle data-id="94" cx="441.33" cy="-5.11" r="10.00px"/>
<text data-id="94" x="441.33" y="-5.11">R94</text>
<circle data-id="95" cx="1092.87" cy="-318.69" r="10.00px"/>
<text data-id="95" x="1092.87" y="-318.69">R95</text>
<circle data-id="96" cx="1576.78" cy="-968.85" r="10.00px"/>
<text data-id="96" x="1576.78" y="-968.85">R96</text>
<circle data-id="97" cx="1157.60" cy="-763.84" r="10.00px"/>
<text data-id="97" x="1157.60" y="-763.84">R97</text>
<circle data-id="98" cx="1358.61" cy="-1535.04" r="10.00px"/>
<text data-id="98" x="1358.61" y="-1535.04">R98</text>
<circle data-id="99" cx="1237.44" cy="-403.04" r="10.00px"/>
<text data-id="99" x="1237.44" y="-403.04">R99</text>
<circle data-id="100" cx="362.76" cy="-432.83" r="10.00px"/>
<text data-id="100" x="362.76" y="-432.83">R100</text>
<circle data-id="101" cx="795.57" cy="-1144.89" r="10.00px"/>
<text data-id="101" x="795.57" y="-1144.89">R101</text>
<circle data-id="102" cx="720.60" cy="-12.64" r="10.00px"/>
<text data-id="102" x="720.60" y="-12.64">R102</text>
<circle data-id="103" cx="582.19" cy="-1400.75" r="10.00px"/>
<text data-id="103" x="582.19" y="-1400.75">R103</text>
<circle data-id="104" cx="157.22" cy="-1218.96" r="10.00px"/>
<text data-id="104" x="157.22" y="-1218.96">R104</text>
<circle data-id="105" cx="848.51" cy="-254.80" r="10.00px"/>
<text data-id="105" x="848.51" y="-254.80">R105</text>
<circle data-id="106" cx="135.94" cy="-1042.55" r="10.00px"/>
<text data-id="106" x="135.94" y="-1042.55">R106</text>
<circle data-id="107" cx="508.19" cy="-616.38" r="10.00px"/>
<text data-id="107" x="508.19" y="-616.38">R107</text>
<circle data-id="108" cx="1657.50" cy="-209.27" r="10.00px"/>
<text data-id="108" x="1657.50" y="-209.27">R108</text>
<circle data-id="109" cx="170.68" cy="-241.51" r="10.00px"/>
<text data-id="109" x="170.68" y="-241.51">R109</text>
<circle data-id="110" cx="1636.66" cy="-595.16" r="10.00px"/>
<text data-id="110" x="1636.66" y="-595.16">R110</text>
<circle data-id="111" cx="357.01" cy="-1435.87" r="10.00px"/>
<text data-id="111" x="357.01" y="-1435.87">R111</text>
<circle data-id="112" cx="396.94" cy="-1137.28" r="10.00px"/>
<text data-id="112" x="396.94" y="-1137.28">R112</text>
<circle data-id="113" cx="29.09" cy="-650.06" r="10.00px"/>
<text data-id="113" x="29.09" y="-650.06">R113</text>
<circle data-id="114" cx="752.59" cy="-181.90" r="10.00px"/>
<text data-id="114" x="752.59" y="-181.90">R114</text>
<circle data-id="115" cx="1071.91" cy="-1417.04" r="10.00px"/>
<text data-id="115" x="1071.91" y="-1417.04">R115</text>
<circle data-id="116" cx="229.10" cy="-590.71" r="10.00px"/>
<text data-id="116" x="229.10" y="-590.71">R116</text>
<circle data-id="117" cx="922.46" cy="-1499.49" r="10.00px"/>
<text data-id="117" x="922.46" y="-1499.49">R117</text>
<circle data-id="118" cx="1038.09" cy="-1714.30" r="10.00px"/>
<text data-id="118" x="1038.09" y="-1714.30">R118</text>
<circle data-id="119" cx="1382.26" cy="-1572.12" r="10.00px"/>
<text data-id="119" x="1382.26" y="-1572.12">R119</text>
<circle data-id="120" cx="68.08" cy="-742.33" r="10.00px"/>
<text data-id="120" x="68.08" y="-742.33">R120</text>
<circle data-id="121" cx="564.41" cy="-1614.09" r="10.00px"/>
<text data-id="121" x="564.41" y="-1614.09">R121</text>
<circle data-id="122" cx="148.38" cy="-905.17" r="10.00px"/>
<text data-id="122" x="148.38" y="-905.17">R122</text>
<circle data-id="123" cx="67.48" cy="-708.49" r="10.00px"/>
<text data-id="123" x="67.48" y="-708.49">R123</text>
<circle data-id="124" cx="304.78" cy="-1233.51" r="10.00px"/>
<text data-id="124" x="304.78" y="-1233.51">R124</text>
<circle data-id="125" cx="578.05" cy="-1129.97" r="10.00px"/>
<text data-id="125" x="578.05" y="-1129.97">R125</text>
<circle data-id="126" cx="70.86" cy="-1076.86" r="10.00px"/>
<text data-id="126" x="70.86" y="-1076.86">R126</text>
<circle data-id="127" cx="428.72" cy="-408.86" r="10.00px"/>
<text data-id="127" x="428.72" y="-408.86">R127</text>
<circle data-id="128" cx="1083.60" cy="-1163.88" r="10.00px"/>
<text data-id="128" x="1083.60" y="-1163.88">R128</text>
<circle data-id="129" cx="1357.42" cy="-802.19" r="10.00px"/>
<text data-id="129" x="1357.42" y="-802.19">R129</text>
<circle data-id="130" cx="593.25" cy="-1307.96" r="10.00px"/>
<text data-id="130" x="593.25" y="-1307.96">R130</text>
<circle data-id="131" cx="1658.55" cy="-1528.69" r="10.00px"/>
<text data-id="131" x="1658.55" y="-1528.69">R131</text>
<circle data-id="132" cx="1384.38" cy="-383.40" r="10.00px"/>
<text data-id="132" x="1384.38" y="-383.40">R132</text>
<circle data-id="133" cx="961.81" cy="-1260.42" r="10.00px"/>
<text data-id="133" x="961.81" y="-1260.42">R133</text>
<circle data-id="134" cx="520.52" cy="-864.66" r="10.00px"/>
<text data-id="134" x="520.52" y="-864.66">R134</text>
<circle data-id="135" cx="219.54" cy="-959.38" r="10.00px"/>
<text data-id="135" x="219.54" y="-959.38">R135</text>
<circle data-id="136" cx="1223.03" cy="-1152.94" r="10.00px"/>
<text data-id="136" x="1223.03" y="-1152.94">R136</text>
<circle data-id="137" cx="360.31" cy="-49.38" r="10.00px"/>
<text data-id="137" x="360.31" y="-49.38">R137</text>
<circle data-id="138" cx="672.16" cy="-630.73" r="10.00px"/>
<text data-id="138" x="672.16" y="-630.73">R138</text>
<circle data-id="139" cx="1695.05" cy="-1731.08" r="10.00px"/>
<text data-id="139" x="1695.05" y="-1731.08">R139</text>
<circle data-id="140" cx="945.52" cy="-729.57" r="10.00px"/>
<text data-id="140" x="945.52" y="-729.57">R140</text>
<circle data-id="141" cx="19.89" cy="-16.13" r="10.00px"/>
<text data-id="141" x="19.89" y="-16.13">R141</text>
<circle data-id="142" cx="1664.94" cy="-627.92" r="10.00px"/>
<text data-id="142" x="1664.94" y="-627.92">R142</text>
<circle data-id="143" cx="101.13" cy="-51.83" r="10.00px"/>
<text data-id="143" x="101.13" y="-51.83">R143</text>
<circle data-id="144" cx="1119.68" cy="-1684.82" r="10.00px"/>
<text data-id="144" x="1119.68" y="-1684.82">R144</text>
<circle data-id="145" cx="647.35" cy="-1397.24" r="10.00px"/>
<text data-id="145" x="647.35" y="-1397.24">R145</text>
<circle data-id="146" cx="416.39" cy="-657.88" r="10.00px"/>
<text data-id="146" x="416.39" y="-657.88">R146</text>
<circle data-id="147" cx="1636.76" cy="-560.06" r="10.00px"/>
<text data-id="147" x="1636.76" y="-560.06">R147</text>
<circle data-id="148" cx="190.40" cy="-726.40" r="10.00px"/>
<text data-id="148" x="190.40" y="-726.40">R148</text>
<circle data-id="149" cx="367.37" cy="-1216.67" r="10.00px"/>
<text data-id="149" x="367.37" y="-1216.67">R149</text>
<circle data-id="150" cx="516.82" cy="-1686.79" r="10.00px"/>
<text data-id="150" x="516.82" y="-1686.79">R150</text>
<circle data-id="151" cx="1110.64" cy="-232.12" r="10.00px"/>
<text data-id="151" x="1110.64" y="-232.12">R151</text>
<circle data-id="152" cx="399.20" cy="-311.80" r="10.00px"/>
<text data-id="152" x="399.20" y="-311.80">R152</text>
<circle data-id="153" cx="248.15" cy="-303.01" r="10.00px"/>
<text data-id="153" x="248.15" y="-303.01">R153</text>
<circle data-id="154" cx="837.23" cy="-1181.68" r="10.00px"/>
<text data-id="154" x="837.23" y="-1181.68">R154</text>
<circle data-id="155" cx="103.88" cy="-1544.87" r="10.00px"/>
<text data-id="155" x="103.88" y="-1544.87">R155</text>
<circle data-id="156" cx="1305.97" cy="-1030.50" r="10.00px"/>
<text data-id="156" x="1305.97" y="-1030.50">R156</text>
<circle data-id="157" cx="1553.60" cy="-1518.92" r="10.00px"/>
<text data-id="157" x="1553.60" y="-1518.92">R157</text>
<circle data-id="158" cx="1200.91" cy="-320.51" r="10.00px"/>
<text data-id="158" x="1200.91" y="-320.51">R158</text>
<circle data-id="159" cx="1028.34" cy="-985.63" r="10.00px"/>
<text data-id="159" x="1028.34" y="-985.63">R159</text>
<circle data-id="160" cx="48.23" cy="-179.14" r="10.00px"/>
<text data-id="160" x="48.23" y="-179.14">R160</text>
<circle data-id="161" cx="1070.09" cy="-1064.25" r="10.00px"/>
<text data-id="161" x="1070.09" y="-1064.25">R161</text>
<circle data-id="162" cx="1495.65" cy="-826.11" r="10.00px"/>
<text data-id="162" x="1495.65" y="-826.11">R162</text>
<circle data-id="163" cx="1488.73" cy="-1298.08" r="10.00px"/>
<text data-id="163" x="1488.73" y="-1298.08">R163</text>
<circle data-id="164" cx="136.86" cy="-1336.80" r="10.00px"/>
<text data-id="164" x="136.86" y="-1336.80">R164</text>
<circle data-id="165" cx="1476.79" cy="-473.39" r="10.00px"/>
<text data-id="165" x="1476.79" y="-473.39">R165</text>
<circle data-id="166" cx="30.71" cy="-679.73" r="10.00px"/>
<text data-id="166" x="30.71" y="-679.73">R166</text>
<circle data-id="167" cx="1459.37" cy="-1084.74" r="10.00px"/>
<text data-id="167" x="1459.37" y="-1084.74">R167</text>
<circle data-id="168" cx="446.30" cy="-1364.85" r="10.00px"/>
<text data-id="168" x="446.30" y="-1364.85">R168</text>
<circle data-id="169" cx="127.41" cy="-60.12" r="10.00px"/>
<text data-id="169" x="127.41" y="-60.12">R169</text>
<circle data-id="170" cx="266.08" cy="-1279.45" r="10.00px"/>
<text data-id="170" x="266.08" y="-1279.45">R170</text>
<circle data-id="171" cx="1532.76" cy="-1161.34" r="10.00px"/>
<text data-id="171" x="1532.76" y="-1161.34">R171</text>
<circle data-id="172" cx="1544.74" cy="-333.39" r="10.00px"/>
<text data-id="172" x="1544.74" y="-333.39">R172</text>
<circle data-id="173" cx="119.02" cy="-22.74" r="10.00px"/>
<text data-id="173" x="119.02" y="-22.74">R173</text>
<circle data-id="174" cx="1641.25" cy="-1278.08" r="10.00px"/>
<text data-id="174" x="1641.25" y="-1278.08">R174</text>
<circle data-id="175" cx="78.71" cy="-609.03" r="10.00px"/>
<text data-id="175" x="78.71" y="-609.03">R175</text>
<circle data-id="176" cx="718.31" cy="-1288.98" r="10.00px"/>
<text data-id="176" x="718.31" y="-1288.98">R176</text>
<circle data-id="177" cx="856.34" cy="-391.71" r="10.00px"/>
<text data-id="177" x="856.34" y="-391.71">R177</text>
<circle data-id="178" cx="1523.20" cy="-7.10" r="10.00px"/>
<text data-id="178" x="1523.20" y="-7.10">R178</text>
<circle data-id="179" cx="1019.80" cy="-229.01" r="10.00px"/>
<text data-id="179" x="1019.80" y="-229.01">R179</text>
<circle data-id="180" cx="226.52" cy="-1444.48" r="10.00px"/>
<text data-id="180" x="226.52" y="-1444.48">R180</text>
<circle data-id="181" cx="457.97" cy="-330.64" r="10.00px"/>
<text data-id="181" x="457.97" y="-330.64">R181</text>
<circle data-id="182" cx="764.97" cy="-158.77" r="10.00px"/>
<text data-id="182" x="764.97" y="-158.77">R182</text>
<circle data-id="183" cx="1167.24" cy="-1059.54" r="10.00px"/>
<text data-id="183" x="1167.24" y="-1059.54">R183</text>
<circle data-id="184" cx="594.92" cy="-845.61" r="10.00px"/>
<text data-id="184" x="594.92" y="-845.61">R184</text>
<circle data-id="185" cx="713.38" cy="-1062.44" r="10.00px"/>
<text data-id="185" x="713.38" y="-1062.44">R185</text>
<circle data-id="186" cx="1217.87" cy="-950.91" r="10.00px"/>
<text data-id="186" x="1217.87" y="-950.91">R186</text>
<circle data-id="187" cx="724.98" cy="-951.06" r="10.00px"/>
<text data-id="187" x="724.98" y="-951.06">R187</text>
<circle data-id="188" cx="886.63" cy="-22.19" r="10.00px"/>
<text data-id="188" x="886.63" y="-22.19">R188</text>
<circle data-id="189" cx="1236.62" cy="-1567.11" r="10.00px"/>
<text data-id="189" x="1236.62" y="-1567.11">R189</text>
<circle data-id="190" cx="1312.91" cy="-805.16" r="10.00px"/>
<text data-id="190" x="1312.91" y="-805.16">R190</text>
<circle data-id="191" cx="445.50" cy="-789.19" r="10.00px"/>
<text data-id="191" x="445.50" y="-789.19">R191</text>
<circle data-id="192" cx="1692.79" cy="-1427.81" r="10.00px"/>
<text data-id="192" x="1692.79" y="-1427.81">R192</text>
<circle data-id="193" cx="585.76" cy="-686.86" r="10.00px"/>
<text data-id="193" x="585.76" y="-686.86">R193</text>
<circle data-id="194" cx="520.10" cy="-957.01" r="10.00px"/>
<text data-id="194" x="520.10" y="-957.01">R194</text>
<circle data-id="195" cx="1118.22" cy="-379.09" r="10.00px"/>
<text data-id="195" x="1118.22" y="-379.09">R195</text>
<circle data-id="196" cx="121.83" cy="-541.21" r="10.00px"/>
<text data-id="196" x="121.83" y="-541.21">R196</text>
<circle data-id="197" cx="1403.35" cy="-514.62" r="10.00px"/>
<text data-id="197" x="1403.35" y="-514.62">R197</text>
<circle data-id="198" cx="904.84" cy="-389.19" r="10.00px"/>
<text data-id="198" x="904.84" y="-389.19">R198</text>
<circle data-id="199" cx="429.71" cy="-490.87" r="10.00px"/>
<text data-id="199" x="429.71" y="-490.87">R199</text>
<circle data-id="200" cx="1148.89" cy="-1518.02" r="10.00px"/>
<text data-id="200" x="1148.89" y="-1518.02">R200</text>
<circle data-id="201" cx="1702.67" cy="-968.14" r="10.00px"/>
<text data-id="201" x="1702.67" y="-968.14">R201</text>
<circle data-id="202" cx="808.60" cy="-1413.27" r="10.00px"/>
<text data-id="202" x="808.60" y="-1413.27">R202</text>
<circle data-id="203" cx="1569.14" cy="-725.41" r="10.00px"/>
<text data-id="203" x="1569.14" y="-725.41">R203</text>
<circle data-id="204" cx="1293.11" cy="-648.24" r="10.00px"/>
<text data-id="204" x="1293.11" y="-648.24">R204</text>
<circle data-id="205" cx="319.16" cy="-795.25" r="10.00px"/>
<text data-id="205" x="319.16" y="-795.25">R205</text>
<circle data-id="206" cx="1576.25" cy="-1411.26" r="10.00px"/>
<text data-id="206" x="1576.25" y="-1411.26">R206</text>
<circle data-id="207" cx="793.14" cy="-1208.46" r="10.00px"/>
<text data-id="207" x="793.14" y="-1208.46">R207</text>
<circle data-id="208" cx="1705.78" cy="-1505.56" r="10.00px"/>
<text data-id="208" x="1705.78" y="-1505.56">R208</text>
<circle data-id="209" cx="579.61" cy="-403.99" r="10.00px"/>
<text data-id="209" x="579.61" y="-403.99">R209</text>
<circle data-id="210" cx="636.60" cy="-1471.36" r="10.00px"/>
<text data-id="210" x="636.60" y="-1471.36">R210</text>
<circle data-id="211" cx="1118.81" cy="-922.16" r="10.00px"/>
<text data-id="211" x="1118.81" y="-922.16">R211</text>
<circle data-id="212" cx="1693.35" cy="-1247.79" r="10.00px"/>
<text data-id="212" x="1693.35" y="-1247.79">R212</text>
<circle data-id="213" cx="1117.23" cy="-762.35" r="10.00px"/>
<text data-id="213" x="1117.23" y="-762.35">R213</text>
<circle data-id="214" cx="88.20" cy="-20.07" r="10.00px"/>
<text data-id="214" x="88.20" y="-20.07">R214</text>
<circle data-id="215" cx="1723.31" cy="-758.44" r="10.00px"/>
<text data-id="215" x="1723.31" y="-758.44">R215</text>
<circle data-id="216" cx="878.42" cy="-1116.81" r="10.00px"/>
<text data-id="216" x="878.42" y="-1116.81">R216</text>
<circle data-id="217" cx="1270.48" cy="-401.88" r="10.00px"/>
<text data-id="217" x="1270.48" y="-401.88">R217</text>
<circle data-id="218" cx="1171.42" cy="-703.40" r="10.00px"/>
<text data-id="218" x="1171.42" y="-703.40">R218</text>
<circle data-id="219" cx="194.94" cy="-200.11" r="10.00px"/>
<text data-id="219" x="194.94" y="-200.11">R219</text>
<circle data-id="220" cx="946.39" cy="-1128.93" r="10.00px"/>
<text data-id="220" x="946.39" y="-1128.93">R220</text>
<circle data-id="221" cx="200.62" cy="-1204.97" r="10.00px"/>
<text data-id="221" x="200.62" y="-1204.97">R221</text>
<circle data-id="222" cx="211.51" cy="-286.61" r="10.00px"/>
<text data-id="222" x="211.51" y="-286.61">R222</text>
<circle data-id="223" cx="1640.64" cy="-412.86" r="10.00px"/>
<text data-id="223" x="1640.64" y="-412.86">R223</text>
<circle data-id="224" cx="475.47" cy="-1277.53" r="10.00px"/>
<text data-id="224" x="475.47" y="-1277.53">R224</text>
<circle data-id="225" cx="162.02" cy="-296.82" r="10.00px"/>
<text data-id="225" x="162.02" y="-296.82">R225</text>
<circle data-id="226" cx="1102.51" cy="-1460.11" r="10.00px"/>
<text data-id="226" x="1102.51" y="-1460.11">R226</text>
<circle data-id="227" cx="1020.03" cy="-492.84" r="10.00px"/>
<text data-id="227" x="1020.03" y="-492.84">R227</text>
<circle data-id="228" cx="558.74" cy="-432.10" r="10.00px"/>
<text data-id="228" x="558.74" y="-432.10">R228</text>
<circle data-id="229" cx="520.97" cy="-1542.22" r="10.00px"/>
<text data-id="229" x="520.97" y="-1542.22">R229</text>
<circle data-id="230" cx="769.78" cy="-1241.15" r="10.00px"/>
<text data-id="230" x="769.78" y="-1241.15">R230</text>
<circle data-id="231" cx="545.55" cy="-81.92" r="10.00px"/>
<text data-id="231" x="545.55" y="-81.92">R231</text>
<circle data-id="232" cx="853.44" cy="-1217.83" r="10.00px"/>
<text data-id="232" x="853.44" y="-1217.83">R232</text>
<circle data-id="233" cx="802.87" cy="-486.40" r="10.00px"/>
<text data-id="233" x="802.87" y="-486.40">R233</text>
<circle data-id="234" cx="1656.69" cy="-387.90" r="10.00px"/>
<text data-id="234" x="1656.69" y="-387.90">R234</text>
<circle data-id="235" cx="835.96" cy="-323.42" r="10.00px"/>
<text data-id="235" x="835.96" y="-323.42">R235</text>
<circle data-id="236" cx="51.49" cy="-877.68" r="10.00px"/>
<text data-id="236" x="51.49" y="-877.68">R236</text>
<circle data-id="237" cx="133.36" cy="-648.36" r="10.00px"/>
<text data-id="237" x="133.36" y="-648.36">R237</text>
<circle data-id="238" cx="692.23" cy="-460.01" r="10.00px"/>
<text data-id="238" x="692.23" y="-460.01">R238</text>
<circle data-id="239" cx="1712.58" cy="-517.39" r="10.00px"/>
<text data-id="239" x="1712.58" y="-517.39">R239</text>
<circle data-id="240" cx="935.90" cy="-800.14" r="10.00px"/>
<text data-id="240" x="935.90" y="-800.14">R240</text>
<circle data-id="241" cx="521.21" cy="-1189.80" r="10.00px"/>
<text data-id="241" x="521.21" y="-1189.80">R241</text>
<circle data-id="242" cx="1185.98" cy="-1412.96" r="10.00px"/>
<text data-id="242" x="1185.98" y="-1412.96">R242</text>
<circle data-id="243" cx="1028.83" cy="-1479.39" r="10.00px"/>
<text data-id="243" x="1028.83" y="-1479.39">R243</text>
<circle data-id="244" cx="1116.22" cy="-564.97" r="10.00px"/>
<text data-id="244" x="1116.22" y="-564.97">R244</text>
<circle data-id="245" cx="394.28" cy="-1074.02" r="10.00px"/>
<text data-id="245" x="394.28" y="-1074.02">R245</text>
<circle data-id="246" cx="909.51" cy="-1578.11" r="10.00px"/>
<text data-id="246" x="909.51" y="-1578.11">R246</text>
<circle data-id="247" cx="813.67" cy="-1254.39" r="10.00px"/>
<text data-id="247" x="813.67" y="-1254.39">R247</text>
<circle data-id="248" cx="1297.92" cy="-1273.52" r="10.00px"/>
<text data-id="248" x="1297.92" y="-1273.52">R248</text>
<circle data-id="249" cx="998.49" cy="-403.60" r="10.00px"/>
<text data-id="249" x="998.49" y="-403.60">R249</text>
<circle data-id="250" cx="654.24" cy="-1281.77" r="10.00px"/>
<text data-id="250" x="654.24" y="-1281.77">R250</text>
<circle data-id="251" cx="12.85" cy="-1040.29" r="10.00px"/>
<text data-id="251" x="12.85" y="-1040.29">R251</text>
<circle data-id="252" cx="124.72" cy="-1427.88" r="10.00px"/>
<text data-id="252" x="124.72" y="-1427.88">R252</text>
<circle data-id="253" cx="15.82" cy="-1597.38" r="10.00px"/>
<text data-id="253" x="15.82" y="-1597.38">R253</text>
<circle data-id="254" cx="1681.15" cy="-565.96" r="10.00px"/>
<text data-id="254" x="1681.15" y="-565.96">R254</text>
<circle data-id="255" cx="281.51" cy="-814.12" r="10.00px"/>
<text data-id="255" x="281.51" y="-814.12">R255</text>
<circle data-id="256" cx="302.37" cy="-711.66" r="10.00px"/>
<text data-id="256" x="302.37" y="-711.66">R256</text>
<circle data-id="257" cx="1193.02" cy="-1708.20" r="10.00px"/>
<text data-id="257" x="1193.02" y="-1708.20">R257</text>
<circle data-id="258" cx="186.64" cy="-1560.56" r="10.00px"/>
<text data-id="258" x="186.64" y="-1560.56">R258</text>
<circle data-id="259" cx="1368.37" cy="-1487.44" r="10.00px"/>
<text data-id="259" x="1368.37" y="-1487.44">R259</text>
<circle data-id="260" cx="1454.94" cy="-600.78" r="10.00px"/>
<text data-id="260" x="1454.94" y="-600.78">R260</text>
<circle data-id="261" cx="1224.93" cy="-893.51" r="10.00px"/>
<text data-id="261" x="1224.93" y="-893.51">R261</text>
<circle data-id="262" cx="912.30" cy="-726.93" r="10.00px"/>
<text data-id="262" x="912.30" y="-726.93">R262</text>
<circle data-id="263" cx="627.47" cy="-334.79" r="10.00px"/>
<text data-id="263" x="627.47" y="-334.79">R263</text>
<circle data-id="264" cx="1493.73" cy="-47.35" r="10.00px"/>
<text data-id="264" x="1493.73" y="-47.35">R264</text>
<circle data-id="265" cx="293.97" cy="-618.80" r="10.00px"/>
<text data-id="265" x="293.97" y="-618.80">R265</text>
<circle data-id="266" cx="1062.79" cy="-965.11" r="10.00px"/>
<text data-id="266" x="1062.79" y="-965.11">R266</text>
<circle data-id="267" cx="769.94" cy="-17.53" r="10.00px"/>
<text data-id="267" x="769.94" y="-17.53">R267</text>
<circle data-id="268" cx="1247.86" cy="-1363.17" r="10.00px"/>
<text data-id="268" x="1247.86" y="-1363.17">R268</text>
<circle data-id="269" cx="510.42" cy="-403.87" r="10.00px"/>
<text data-id="269" x="510.42" y="-403.87">R269</text>
<circle data-id="270" cx="1341.03" cy="-950.03" r="10.00px"/>
<text data-id="270" x="1341.03" y="-950.03">R270</text>
<circle data-id="271" cx="1283.47" cy="-1718.54" r="10.00px"/>
<text data-id="271" x="1283.47" y="-1718.54">R271</text>
<circle data-id="272" cx="51.61" cy="-1201.13" r="10.00px"/>
<text data-id="272" x="51.61" y="-1201.13">R272</text>
<circle data-id="273" cx="994.13" cy="-1320.74" r="10.00px"/>
<text data-id="273" x="994.13" y="-1320.74">R273</text>
<circle data-id="274" cx="1243.04" cy="-525.45" r="10.00px"/>
<text data-id="274" x="1243.04" y="-525.45">R274</text>
<circle data-id="275" cx="1152.22" cy="-917.70" r="10.00px"/>
<text data-id="275" x="1152.22" y="-917.70">R275</text>
<circle data-id="276" cx="498.38" cy="-1602.67" r="10.00px"/>
<text data-id="276" x="498.38" y="-1602.67">R276</text>
<circle data-id="277" cx="1164.62" cy="-1672.45" r="10.00px"/>
<text data-id="277" x="1164.62" y="-1672.45">R277</text>
<circle data-id="278" cx="1016.43" cy="-1093.33" r="10.00px"/>
<text data-id="278" x="1016.43" y="-1093.33">R278</text>
<circle data-id="279" cx="742.10" cy="-127.01" r="10.00px"/>
<text data-id="279" x="742.10" y="-127.01">R279</text>
<circle data-id="280" cx="326.84" cy="-970.75" r="10.00px"/>
<text data-id="280" x="326.84" y="-970.75">R280</text>
<circle data-id="281" cx="953.53" cy="-966.86" r="10.00px"/>
<text data-id="281" x="953.53" y="-966.86">R281</text>
<circle data-id="282" cx="477.82" cy="-228.53" r="10.00px"/>
<text data-id="282" x="477.82" y="-228.53">R282</text>
<circle data-id="283" cx="186.66" cy="-157.74" r="10.00px"/>
<text data-id="283" x="186.66" y="-157.74">R283</text>
<circle data-id="284" cx="1322.92" cy="-1534.30" r="10.00px"/>
<text data-id="284" x="1322.92" y="-1534.30">R284</text>
<circle data-id="285" cx="171.47" cy="-1243.47" r="10.00px"/>
<text data-id="285" x="171.47" y="-1243.47">R285</text>
<circle data-id="286" cx="838.89" cy="-717.59" r="10.00px"/>
<text data-id="286" x="838.89" y="-717.59">R286</text>
<circle data-id="287" cx="259.90" cy="-1115.43" r="10.00px"/>
<text data-id="287" x="259.90" y="-1115.43">R287</text>
<circle data-id="288" cx="312.40" cy="-931.25" r="10.00px"/>
<text data-id="288" x="312.40" y="-931.25">R288</text>
<circle data-id="289" cx="364.07" cy="-165.74" r="10.00px"/>
<text data-id="289" x="364.07" y="-165.74">R289</text>
<circle data-id="290" cx="592.14" cy="-346.66" r="10.00px"/>
<text data-id="290" x="592.14" y="-346.66">R290</text>
<circle data-id="291" cx="277.13" cy="-1632.31" r="10.00px"/>
<text data-id="291" x="277.13" y="-1632.31">R291</text>
<circle data-id="292" cx="937.49" cy="-1388.34" r="10.00px"/>
<text data-id="292" x="937.49" y="-1388.34">R292</text>
<circle data-id="293" cx="1295.79" cy="-1425.64" r="10.00px"/>
<text data-id="293" x="1295.79" y="-1425.64">R293</text>
<circle data-id="294" cx="1336.14" cy="-858.60" r="10.00px"/>
<text data-id="294" x="1336.14" y="-858.60">R294</text>
<circle data-id="295" cx="1494.10" cy="-1449.73" r="10.00px"/>
<text data-id="295" x="1494.10" y="-1449.73">R295</text>
<circle data-id="296" cx="200.48" cy="-807.06" r="10.00px"/>
<text data-id="296" x="200.48" y="-807.06">R296</text>
<circle data-id="297" cx="412.94" cy="-828.79" r="10.00px"/>
<text data-id="297" x="412.94" y="-828.79">R297</text>
<circle data-id="298" cx="1197.54" cy="-1608.91" r="10.00px"/>
<text data-id="298" x="1197.54" y="-1608.91">R298</text>
<circle data-id="299" cx="919.86" cy="-1297.17" r="10.00px"/>
<text data-id="299" x="919.86" y="-1297.17">R299</text>
</svg>
