<svg id="topo" viewBox="-20.63 -683.98 703.33 708.80" xmlns="http://www.w3.org/2000/svg">
<style>#topo path {fill: none; stroke: grey; stroke-width: 5.0000px;} #topo circle {fill: lightblue; stroke: none; stroke-width: 0.3px; vector-effect: non-scaling-stroke; r: 10.0000px;} #topo text {fill: black; stroke: none; font-size: 15.0000px; font-family: sans-serif; text-anchor:middle; transform: translateY(0.3em);} #topo path.country {fill: lightgrey; stroke: black; stroke-width: 1px; vector-effect: non-scaling-stroke; visibility: visible;} #topo path.selection {fill: none; stroke: red; stroke-width: 1px; vector-effect: non-scaling-stroke; visibility: visible;} #topo path.utilization {visibility: hidden;}</style>
<path data-id="0-20" d="M182.38,-327.38,235.69,-420.17"/>
<path data-id="0-24" d="M182.38,-327.38,96.22,-305.54"/>
<path data-id="0-29" d="M182.38,-327.38,122.67,-417.35"/>
<path data-id="0-33" d="M182.38,-327.38,186.73,-294.57"/>
<path data-id="0-39" d="M182.38,-327.38,263.11,-404.36"/>
<path data-id="1-9" d="M54.93,-227.23,50.28,-273.78"/>
<path data-id="1-11" d="M54.93,-227.23,115.52,-168.95"/>
<path data-id="2-13" d="M48.52,-7.40,62.89,-60.26"/>
<path data-id="2-35" d="M48.52,-7.40,99.74,-15.23"/>
<path data-id="3-11" d="M190.41,-78.96,115.52,-168.95"/>
<path data-id="3-18" d="M190.41,-78.96,397.90,-40.16"/>
<path data-id="3-28" d="M190.41,-78.96,193.51,-201.81"/>
<path data-id="3-35" d="M190.41,-78.96,99.74,-15.23"/>
<path data-id="4-6" d="M208.65,-498.74,90.57,-533.35"/>
<path data-id="4-20" d="M208.65,-498.74,235.69,-420.17"/>
<path data-id="4-23" d="M208.65,-498.74,278.05,-560.43"/>
<path data-id="4-29" d="M208.65,-498.74,122.67,-417.35"/>
<path data-id="5-21" d="M23.99,-419.22,11.34,-335.39"/>
<path data-id="5-31" d="M23.99,-419.22,68.92,-418.64"/>
<path data-id="5-40" d="M23.99,-419.22,55.48,-466.73"/>
<path data-id="6-26" d="M90.57,-533.35,19.46,-576.00"/>
<path data-id="6-34" d="M90.57,-533.35,220.94,-651.76"/>
<path data-id="6-40" d="M90.57,-533.35,55.48,-466.73"/>
<path data-id="7-14" d="M494.37,-141.55,503.91,-212.64"/>
<path data-id="7-18" d="M494.37,-141.55,397.90,-40.16"/>
<path data-id="7-22" d="M494.37,-141.55,418.17,-197.08"/>
<path data-id="8-17" d="M568.91,-481.18,543.53,-431.51"/>
<path data-id="8-25" d="M568.91,-481.18,592.02,-410.84"/>
<path data-id="8-36" d="M568.91,-481.18,650.72,-566.38"/>
<path data-id="8-37" d="M568.91,-481.18,526.64,-599.89"/>
<path data-id="9-21" d="M50.28,-273.78,11.34,-335.39"/>
<path data-id="9-24" d="M50.28,-273.78,96.22,-305.54"/>
<path data-id="10-12" d="M469.88,-619.14,519.95,-645.78"/>
<path data-id="10-23" d="M469.88,-619.14,278.05,-560.43"/>
<path data-id="10-44" d="M469.88,-619.14,476.19,-592.30"/>
<path data-id="11-28" d="M115.52,-168.95,193.51,-201.81"/>
<path data-id="11-38" d="M115.52,-168.95,43.38,-88.73"/>
<path data-id="12-37" d="M519.95,-645.78,526.64,-599.89"/>
<path data-id="13-35" d="M62.89,-60.26,99.74,-15.23"/>
<path data-id="13-38" d="M62.89,-60.26,43.38,-88.73"/>
<path data-id="14-22" d="M503.91,-212.64,418.17,-197.08"/>
<path data-id="14-41" d="M503.91,-212.64,506.25,-299.71"/>
<path data-id="14-42" d="M503.91,-212.64,569.54,-260.88"/>
<path data-id="15-23" d="M259.46,-587.86,278.05,-560.43"/>
<path data-id="15-34" d="M259.46,-587.86,220.94,-651.76"/>
<path data-id="16-17" d="M500.30,-443.22,543.53,-431.51"/>
<path data-id="16-27" d="M500.30,-443.22,441.60,-349.20"/>
<path data-id="16-44" d="M500.30,-443.22,476.19,-592.30"/>
<path data-id="17-25" d="M543.53,-431.51,592.02,-410.84"/>
<path data-id="17-41" d="M543.53,-431.51,506.25,-299.71"/>
<path data-id="18-22" d="M397.90,-40.16,418.17,-197.08"/>
<path data-id="19-36" d="M610.19,-611.63,650.72,-566.38"/>
<path data-id="19-37" d="M610.19,-611.63,526.64,-599.89"/>
<path data-id="20-29" d="M235.69,-420.17,122.67,-417.35"/>
<path data-id="20-39" d="M235.69,-420.17,263.11,-404.36"/>
<path data-id="21-24" d="M11.34,-335.39,96.22,-305.54"/>
<path data-id="22-32" d="M418.17,-197.08,386.33,-243.01"/>
<path data-id="23-44" d="M278.05,-560.43,476.19,-592.30"/>
<path data-id="24-29" d="M96.22,-305.54,122.67,-417.35"/>
<path data-id="24-31" d="M96.22,-305.54,68.92,-418.64"/>
<path data-id="24-33" d="M96.22,-305.54,186.73,-294.57"/>
<path data-id="25-41" d="M592.02,-410.84,506.25,-299.71"/>
<path data-id="25-42" d="M592.02,-410.84,569.54,-260.88"/>
<path data-id="26-30" d="M19.46,-576.00,33.38,-633.80"/>
<path data-id="27-32" d="M441.60,-349.20,386.33,-243.01"/>
<path data-id="27-39" d="M441.60,-349.20,263.11,-404.36"/>
<path data-id="27-41" d="M441.60,-349.20,506.25,-299.71"/>
<path data-id="28-33" d="M193.51,-201.81,186.73,-294.57"/>
<path data-id="28-43" d="M193.51,-201.81,269.83,-253.02"/>
<path data-id="29-31" d="M122.67,-417.35,68.92,-418.64"/>
<path data-id="30-34" d="M33.38,-633.80,220.94,-651.76"/>
<path data-id="31-40" d="M68.92,-418.64,55.48,-466.73"/>
<path data-id="32-41" d="M386.33,-243.01,506.25,-299.71"/>
<path data-id="32-43" d="M386.33,-243.01,269.83,-253.02"/>
<path data-id="33-43" d="M186.73,-294.57,269.83,-253.02"/>
<path data-id="37-44" d="M526.64,-599.89,476.19,-592.30"/>
<path data-id="39-43" d="M263.11,-404.36,269.83,-253.02"/>
<path data-id="41-42" d="M506.25,-299.71,569.54,-260.88"/>
<circle data-id="0" cx="182.38" cy="-327.38" r="10.00px"/>
<text data-id="0" x="182.38" y="-327.38">R0</text>
<circle data-id="1" cx="54.93" cy="-227.23" r="10.00px"/>
<text data-id="1" x="54.93" y="-227.23">R1</text>
<circle data-id="2" cx="48.52" cy="-7.40" r="10.00px"/>
<text data-id="2" x="48.52" y="-7.40">R2</text>
<circle data-id="3" cx="190.41" cy="-78.96" r="10.00px"/>
<text data-id="3" x="190.41" y="-78.96">R3</text>
<circle data-id="4" cx="208.65" cy="-498.74" r="10.00px"/>
<text data-id="4" x="208.65" y="-498.74">R4</text>
<circle data-id="5" cx="23.99" cy="-419.22" r="10.00px"/>
<text data-id="5" x="23.99" y="-419.22">R5</text>
<circle data-id="6" cx="90.57" cy="-533.35" r="10.00px"/>
<text data-id="6" x="90.57" y="-533.35">R6</text>
<circle data-id="7" cx="494.37" cy="-141.55" r="10.00px"/>
<text data-id="7" x="494.37" y="-141.55">R7</text>
<circle data-id="8" cx="568.91" cy="-481.18" r="10.00px"/>
<text data-id="8" x="568.91" y="-481.18">R8</text>
<circle data-id="9" cx="50.28" cy="-273.78" r="10.00px"/>
<text data-id="9" x="50.28" y="-273.78">R9</text>
<circle data-id="10" cx="469.88" cy="-619.14" r="10.00px"/>
<text data-id="10" x="469.88" y="-619.14">R10</text>
<circle data-id="11" cx="115.52" cy="-168.95" r="10.00px"/>
<text data-id="11" x="115.52" y="-168.95">R11</text>
<circle data-id="12" cx="519.95" cy="-645.78" r="10.00px"/>
<text data-id="12" x="519.95" y="-645.78">R12</text>
<circle data-id="13" cx="62.89" cy="-60.26" r="10.00px"/>
<text data-id="13" x="62.89" y="-60.26">R13</text>
<circle data-id="14" cx="503.91" cy="-212.64" r="10.00px"/>
<text data-id="14" x="503.91" y="-212.64">R14</text>
<circle data-id="15" cx="259.46" cy="-587.86" r="10.00px"/>
<text data-id="15" x="259.46" y="-587.86">R15</text>
<circle data-id="16" cx="500.30" cy="-443.22" r="10.00px"/>
<text data-id="16" x="500.30" y="-443.22">R16</text>
<circle data-id="17" cx="543.53" cy="-431.51" r="10.00px"/>
<text data-id="17" x="543.53" y="-431.51">R17</text>
<circle data-id="18" cx="397.90" cy="-40.16" r="10.00px"/>
<text data-id="18" x="397.90" y="-40.16">R18</text>
<circle data-id="19" cx="610.19" cy="-611.63" r="10.00px"/>
<text data-id="19" x="610.19" y="-611.63">R19</text>
<circle data-id="20" cx="235.69" cy="-420.17" r="10.00px"/>
<text data-id="20" x="235.69" y="-420.17">R20</text>
<circle data-id="21" cx="11.34" cy="-335.39" r="10.00px"/>
<text data-id="21" x="11.34" y="-335.39">R21</text>
<circle data-id="22" cx="418.17" cy="-197.08" r="10.00px"/>
<text data-id="22" x="418.17" y="-197.08">R22</text>
<circle data-id="23" cx="278.05" cy="-560.43" r="10.00px"/>
<text data-id="23" x="278.05" y="-560.43">R23</text>
<circle data-id="24" cx="96.22" cy="-305.54" r="10.00px"/>
<text data-id="24" x="96.22" y="-305.54">R24</text>
<circle data-id="25" cx="592.02" cy="-410.84" r="10.00px"/>
<text data-id="25" x="592.02" y="-410.84">R25</text>
<circle data-id="26" cx="19.46" cy="-576.00" r="10.00px"/>
<text data-id="26" x="19.46" y="-576.00">R26</text>
<circle data-id="27" cx="441.60" cy="-349.20" r="10.00px"/>
<text data-id="27" x="441.60" y="-349.20">R27</text>
<circle data-id="28" cx="193.51" cy="-201.81" r="10.00px"/>
<text data-id="28" x="193.51" y="-201.81">R28</text>
<circle data-id="29" cx="122.67" cy="-417.35" r="10.00px"/>
<text data-id="29" x="122.67" y="-417.35">R29</text>
<circle data-id="30" cx="33.38" cy="-633.80" r="10.00px"/>
<text data-id="30" x="33.38" y="-633.80">R30</text>
<circle data-id="31" cx="68.92" cy="-418.64" r="10.00px"/>
<text data-id="31" x="68.92" y="-418.64">R31</text>
<circle data-id="32" cx="386.33" cy="-243.01" r="10.00px"/>
<text data-id="32" x="386.33" y="-243.01">R32</text>
<circle data-id="33" cx="186.73" cy="-294.57" r="10.00px"/>
<text data-id="33" x="186.73" y="-294.57">R33</text>
<circle data-id="34" cx="220.94" cy="-651.76" r="10.00px"/>
<text data-id="34" x="220.94" y="-651.76">R34</text>
<circle data-id="35" cx="99.74" cy="-15.23" r="10.00px"/>
<text data-id="35" x="99.74" y="-15.23">R35</text>
<circle data-id="36" cx="650.72" cy="-566.38" r="10.00px"/>
<text data-id="36" x="650.72" y="-566.38">R36</text>
<circle data-id="37" cx="526.64" cy="-599.89" r="10.00px"/>
<text data-id="37" x="526.64" y="-599.89">R37</text>
<circle data-id="38" cx="43.38" cy="-88.73" r="10.00px"/>
<text data-id="38" x="43.38" y="-88.73">R38</text>
<circle data-id="39" cx="263.11" cy="-404.36" r="10.00px"/>
<text data-id="39" x="263.11" y="-404.36">R39</text>
<circle data-id="40" cx="55.48" cy="-466.73" r="10.00px"/>
<text data-id="40" x="55.48" y="-466.73">R40</text>
<circle data-id="41" cx="506.25" cy="-299.71" r="10.00px"/>
<text data-id="41" x="506.25" y="-299.71">R41</text>
<circle data-id="42" cx="569.54" cy="-260.88" r="10.00px"/>
<text data-id="42" x="569.54" y="-260.88">R42</text>
<circle data-id="43" cx="269.83" cy="-253.02" r="10.00px"/>
<text data-id="43" x="269.83" y="-253.02">R43</text>
<circle data-id="44" cx="476.19" cy="-592.30" r="10.00px"/>
<text data-id="44" x="476.19" y="-592.30">R44</text>
</svg>
