<svg id="topo" viewBox="-12.59 -674.55 714.07 704.12" xmlns="http://www.w3.org/2000/svg">
<style>#topo path {fill: none; stroke: grey; stroke-width: 5.0000px;} #topo circle {fill: lightblue; stroke: none; stroke-width: 0.3px; vector-effect: non-scaling-stroke; r: 10.0000px;} #topo text {fill: black; stroke: none; font-size: 15.0000px; font-family: sans-serif; text-anchor:middle; transform: translateY(0.3em);} #topo path.country {fill: lightgrey; stroke: black; stroke-width: 1px; vector-effect: non-scaling-stroke; visibility: visible;} #topo path.selection {fill: none; stroke: red; stroke-width: 1px; vector-effect: non-scaling-stroke; visibility: visible;} #topo path.utilization {visibility: hidden;}</style>
<path data-id="0-17" d="M276.34,-231.47,220.75,-209.54"/>
<path data-id="0-23" d="M276.34,-231.47,376.01,-188.21"/>
<path data-id="0-24" d="M276.34,-231.47,236.77,-270.82"/>
<path data-id="1-20" d="M111.68,-424.77,129.92,-485.55"/>
<path data-id="1-29" d="M111.68,-424.77,109.69,-348.05"/>
<path data-id="2-15" d="M58.47,-248.59,164.97,-210.20"/>
<path data-id="2-26" d="M58.47,-248.59,27.87,-308.77"/>
<path data-id="2-29" d="M58.47,-248.59,109.69,-348.05"/>
<path data-id="2-31" d="M58.47,-248.59,166.06,-313.72"/>
<path data-id="2-35" d="M58.47,-248.59,85.50,-138.69"/>
<path data-id="3-32" d="M120.98,-2.43,92.96,-13.08"/>
<path data-id="4-9" d="M104.51,-101.49,104.19,-70.94"/>
<path data-id="4-28" d="M104.51,-101.49,186.90,-144.21"/>
<path data-id="4-35" d="M104.51,-101.49,85.50,-138.69"/>
<path data-id="5-13" d="M224.40,-512.63,108.73,-567.56"/>
<path data-id="5-16" d="M224.40,-512.63,274.99,-491.35"/>
<path data-id="5-19" d="M224.40,-512.63,165.23,-607.42"/>
<path data-id="5-20" d="M224.40,-512.63,129.92,-485.55"/>
<path data-id="5-21" d="M224.40,-512.63,289.51,-624.20"/>
<path data-id="6-8" d="M624.36,-329.81,559.31,-323.06"/>
<path data-id="6-27" d="M624.36,-329.81,669.03,-483.90"/>
<path data-id="6-37" d="M624.36,-329.81,656.84,-177.81"/>
<path data-id="7-14" d="M436.72,-632.66,472.74,-561.24"/>
<path data-id="7-38" d="M436.72,-632.66,428.25,-552.32"/>
<path data-id="7-42" d="M436.72,-632.66,373.46,-627.88"/>
<path data-id="8-22" d="M559.31,-323.06,526.69,-330.78"/>
<path data-id="8-30" d="M559.31,-323.06,534.18,-261.34"/>
<path data-id="8-40" d="M559.31,-323.06,541.16,-356.65"/>
<path data-id="9-32" d="M104.19,-70.94,92.96,-13.08"/>
<path data-id="10-30" d="M546.60,-214.71,534.18,-261.34"/>
<path data-id="10-37" d="M546.60,-214.71,656.84,-177.81"/>
<path data-id="10-41" d="M546.60,-214.71,559.60,-43.91"/>
<path data-id="11-25" d="M458.11,-252.73,441.97,-288.08"/>
<path data-id="11-30" d="M458.11,-252.73,534.18,-261.34"/>
<path data-id="11-44" d="M458.11,-252.73,393.68,-215.04"/>
<path data-id="12-25" d="M397.04,-439.68,441.97,-288.08"/>
<path data-id="12-38" d="M397.04,-439.68,428.25,-552.32"/>
<path data-id="12-40" d="M397.04,-439.68,541.16,-356.65"/>
<path data-id="12-43" d="M397.04,-439.68,336.88,-463.55"/>
<path data-id="13-19" d="M108.73,-567.56,165.23,-607.42"/>
<path data-id="13-20" d="M108.73,-567.56,129.92,-485.55"/>
<path data-id="13-33" d="M108.73,-567.56,19.87,-556.87"/>
<path data-id="13-39" d="M108.73,-567.56,140.09,-642.54"/>
<path data-id="14-27" d="M472.74,-561.24,669.03,-483.90"/>
<path data-id="14-38" d="M472.74,-561.24,428.25,-552.32"/>
<path data-id="14-40" d="M472.74,-561.24,541.16,-356.65"/>
<path data-id="15-17" d="M164.97,-210.20,220.75,-209.54"/>
<path data-id="15-18" d="M164.97,-210.20,207.03,-175.00"/>
<path data-id="15-31" d="M164.97,-210.20,166.06,-313.72"/>
<path data-id="15-35" d="M164.97,-210.20,85.50,-138.69"/>
<path data-id="16-21" d="M274.99,-491.35,289.51,-624.20"/>
<path data-id="16-24" d="M274.99,-491.35,236.77,-270.82"/>
<path data-id="16-31" d="M274.99,-491.35,166.06,-313.72"/>
<path data-id="16-43" d="M274.99,-491.35,336.88,-463.55"/>
<path data-id="17-18" d="M220.75,-209.54,207.03,-175.00"/>
<path data-id="17-24" d="M220.75,-209.54,236.77,-270.82"/>
<path data-id="18-28" d="M207.03,-175.00,186.90,-144.21"/>
<path data-id="18-34" d="M207.03,-175.00,365.27,-120.51"/>
<path data-id="19-36" d="M165.23,-607.42,185.96,-630.65"/>
<path data-id="19-39" d="M165.23,-607.42,140.09,-642.54"/>
<path data-id="21-36" d="M289.51,-624.20,185.96,-630.65"/>
<path data-id="21-42" d="M289.51,-624.20,373.46,-627.88"/>
<path data-id="22-25" d="M526.69,-330.78,441.97,-288.08"/>
<path data-id="22-30" d="M526.69,-330.78,534.18,-261.34"/>
<path data-id="22-40" d="M526.69,-330.78,541.16,-356.65"/>
<path data-id="23-34" d="M376.01,-188.21,365.27,-120.51"/>
<path data-id="23-44" d="M376.01,-188.21,393.68,-215.04"/>
<path data-id="24-31" d="M236.77,-270.82,166.06,-313.72"/>
<path data-id="24-43" d="M236.77,-270.82,336.88,-463.55"/>
<path data-id="26-29" d="M27.87,-308.77,109.69,-348.05"/>
<path data-id="27-40" d="M669.03,-483.90,541.16,-356.65"/>
<path data-id="28-35" d="M186.90,-144.21,85.50,-138.69"/>
<path data-id="29-31" d="M109.69,-348.05,166.06,-313.72"/>
<path data-id="34-41" d="M365.27,-120.51,559.60,-43.91"/>
<path data-id="36-39" d="M185.96,-630.65,140.09,-642.54"/>
<path data-id="37-41" d="M656.84,-177.81,559.60,-43.91"/>
<path data-id="38-42" d="M428.25,-552.32,373.46,-627.88"/>
<path data-id="38-43" d="M428.25,-552.32,336.88,-463.55"/>
<circle data-id="0" cx="276.34" cy="-231.47" r="10.00px"/>
<text data-id="0" x="276.34" y="-231.47">R0</text>
<circle data-id="1" cx="111.68" cy="-424.77" r="10.00px"/>
<text data-id="1" x="111.68" y="-424.77">R1</text>
<circle data-id="2" cx="58.47" cy="-248.59" r="10.00px"/>
<text data-id="2" x="58.47" y="-248.59">R2</text>
<circle data-id="3" cx="120.98" cy="-2.43" r="10.00px"/>
<text data-id="3" x="120.98" y="-2.43">R3</text>
<circle data-id="4" cx="104.51" cy="-101.49" r="10.00px"/>
<text data-id="4" x="104.51" y="-101.49">R4</text>
<circle data-id="5" cx="224.40" cy="-512.63" r="10.00px"/>
<text data-id="5" x="224.40" y="-512.63">R5</text>
<circle data-id="6" cx="624.36" cy="-329.81" r="10.00px"/>
<text data-id="6" x="624.36" y="-329.81">R6</text>
<circle data-id="7" cx="436.72" cy="-632.66" r="10.00px"/>
<text data-id="7" x="436.72" y="-632.66">R7</text>
<circle data-id="8" cx="559.31" cy="-323.06" r="10.00px"/>
<text data-id="8" x="559.31" y="-323.06">R8</text>
<circle data-id="9" cx="104.19" cy="-70.94" r="10.00px"/>
<text data-id="9" x="104.19" y="-70.94">R9</text>
<circle data-id="10" cx="546.60" cy="-214.71" r="10.00px"/>
<text data-id="10" x="546.60" y="-214.71">R10</text>
<circle data-id="11" cx="458.11" cy="-252.73" r="10.00px"/>
<text data-id="11" x="458.11" y="-252.73">R11</text>
<circle data-id="12" cx="397.04" cy="-439.68" r="10.00px"/>
<text data-id="12" x="397.04" y="-439.68">R12</text>
<circle data-id="13" cx="108.73" cy="-567.56" r="10.00px"/>
<text data-id="13" x="108.73" y="-567.56">R13</text>
<circle data-id="14" cx="472.74" cy="-561.24" r="10.00px"/>
<text data-id="14" x="472.74" y="-561.24">R14</text>
<circle data-id="15" cx="164.97" cy="-210.20" r="10.00px"/>
<text data-id="15" x="164.97" y="-210.20">R15</text>
<circle data-id="16" cx="274.99" cy="-491.35" r="10.00px"/>
<text data-id="16" x="274.99" y="-491.35">R16</text>
<circle data-id="17" cx="220.75" cy="-209.54" r="10.00px"/>
<text data-id="17" x="220.75" y="-209.54">R17</text>
<circle data-id="18" cx="207.03" cy="-175.00" r="10.00px"/>
<text data-id="18" x="207.03" y="-175.00">R18</text>
<circle data-id="19" cx="165.23" cy="-607.42" r="10.00px"/>
<text data-id="19" x="165.23" y="-607.42">R19</text>
<circle data-id="20" cx="129.92" cy="-485.55" r="10.00px"/>
<text data-id="20" x="129.92" y="-485.55">R20</text>
<circle data-id="21" cx="289.51" cy="-624.20" r="10.00px"/>
<text data-id="21" x="289.51" y="-624.20">R21</text>
<circle data-id="22" cx="526.69" cy="-330.78" r="10.00px"/>
<text data-id="22" x="526.69" y="-330.78">R22</text>
<circle data-id="23" cx="376.01" cy="-188.21" r="10.00px"/>
<text data-id="23" x="376.01" y="-188.21">R23</text>
<circle data-id="24" cx="236.77" cy="-270.82" r="10.00px"/>
<text data-id="24" x="236.77" y="-270.82">R24</text>
<circle data-id="25" cx="441.97" cy="-288.08" r="10.00px"/>
<text data-id="25" x="441.97" y="-288.08">R25</text>
<circle data-id="26" cx="27.87" cy="-308.77" r="10.00px"/>
<text data-id="26" x="27.87" y="-308.77">R26</text>
<circle data-id="27" cx="669.03" cy="-483.90" r="10.00px"/>
<text data-id="27" x="669.03" y="-483.90">R27</text>
<circle data-id="28" cx="186.90" cy="-144.21" r="10.00px"/>
<text data-id="28" x="186.90" y="-144.21">R28</text>
<circle data-id="29" cx="109.69" cy="-348.05" r="10.00px"/>
<text data-id="29" x="109.69" y="-348.05">R29</text>
<circle data-id="30" cx="534.18" cy="-261.34" r="10.00px"/>
<text data-id="30" x="534.18" y="-261.34">R30</text>
<circle data-id="31" cx="166.06" cy="-313.72" r="10.00px"/>
<text data-id="31" x="166.06" y="-313.72">R31</text>
<circle data-id="32" cx="92.96" cy="-13.08" r="10.00px"/>
<text data-id="32" x="92.96" y="-13.08">R32</text>
<circle data-id="33" cx="19.87" cy="-556.87" r="10.00px"/>
<text data-id="33" x="19.87" y="-556.87">R33</text>
<circle data-id="34" cx="365.27" cy="-120.51" r="10.00px"/>
<text data-id="34" x="365.27" y="-120.51">R34</text>
<circle data-id="35" cx="85.50" cy="-138.69" r="10.00px"/>
<text data-id="35" x="85.50" y="-138.69">R35</text>
<circle data-id="36" cx="185.96" cy="-630.65" r="10.00px"/>
<text data-id="36" x="185.96" y="-630.65">R36</text>
<circle data-id="37" cx="656.84" cy="-177.81" r="10.00px"/>
<text data-id="37" x="656.84" y="-177.81">R37</text>
<circle data-id="38" cx="428.25" cy="-552.32" r="10.00px"/>
<text data-id="38" x="428.25" y="-552.32">R38</text>
<circle data-id="39" cx="140.09" cy="-642.54" r="10.00px"/>
<text data-id="39" x="140.09" y="-642.54">R39</text>
<circle data-id="40" cx="541.16" cy="-356.65" r="10.00px"/>
<text data-id="40" x="541.16" y="-356.65">R40</text>
<circle data-id="41" cx="559.60" cy="-43.91" r="10.00px"/>
<text data-id="41" x="559.60" y="-43.91">R41</text>
<circle data-id="42" cx="373.46" cy="-627.88" r="10.00px"/>
<text data-id="42" x="373.46" y="-627.88">R42</text>
<circle data-id="43" cx="336.88" cy="-463.55" r="10.00px"/>
<text data-id="43" x="336.88" y="-463.55">R43</text>
<circle data-id="44" cx="393.68" cy="-215.04" r="10.00px"/>
<text data-id="44" x="393.68" y="-215.04">R44</text>
</svg>
