<svg id="topo" viewBox="-47.29 -1019.59 1053.85 1060.57" xmlns="http://www.w3.org/2000/svg">
<style>#topo path {fill: none; stroke: grey; stroke-width: 5.0000px;} #topo circle {fill: lightblue; stroke: none; stroke-width: 0.3px; vector-effect: non-scaling-stroke; r: 10.0000px;} #topo text {fill: black; stroke: none; font-size: 15.0000px; font-family: sans-serif; text-anchor:middle; transform: translateY(0.3em);} #topo path.country {fill: lightgrey; stroke: black; stroke-width: 1px; vector-effect: non-scaling-stroke; visibility: visible;} #topo path.selection {fill: none; stroke: red; stroke-width: 1px; vector-effect: non-scaling-stroke; visibility: visible;} #topo path.utilization {visibility: hidden;}</style>
<path data-id="0-22" d="M878.30,-576.19,825.56,-553.05"/>
<path data-id="0-48" d="M878.30,-576.19,867.68,-478.00"/>
<path data-id="1-8" d="M756.06,-716.55,769.77,-785.12"/>
<path data-id="1-15" d="M756.06,-716.55,779.93,-610.72"/>
<path data-id="1-62" d="M756.06,-716.55,650.74,-588.31"/>
<path data-id="1-72" d="M756.06,-716.55,708.95,-739.60"/>
<path data-id="2-12" d="M623.36,-193.96,608.24,-406.55"/>
<path data-id="2-63" d="M623.36,-193.96,619.26,-151.51"/>
<path data-id="2-83" d="M623.36,-193.96,681.41,-152.13"/>
<path data-id="3-12" d="M646.70,-437.42,608.24,-406.55"/>
<path data-id="3-44" d="M646.70,-437.42,668.57,-526.18"/>
<path data-id="3-75" d="M646.70,-437.42,747.11,-361.41"/>
<path data-id="3-85" d="M646.70,-437.42,778.85,-457.74"/>
<path data-id="3-88" d="M646.70,-437.42,774.45,-406.74"/>
<path data-id="4-6" d="M392.42,-40.66,379.23,-7.22"/>
<path data-id="4-42" d="M392.42,-40.66,574.64,-34.15"/>
<path data-id="4-43" d="M392.42,-40.66,547.89,-134.47"/>
<path data-id="4-52" d="M392.42,-40.66,454.80,-185.85"/>
<path data-id="4-89" d="M392.42,-40.66,332.81,-77.65"/>
<path data-id="5-27" d="M40.34,-564.70,11.72,-733.69"/>
<path data-id="5-35" d="M40.34,-564.70,85.94,-731.82"/>
<path data-id="5-41" d="M40.34,-564.70,105.10,-487.05"/>
<path data-id="5-47" d="M40.34,-564.70,23.62,-497.64"/>
<path data-id="5-53" d="M40.34,-564.70,174.68,-628.64"/>
<path data-id="7-16" d="M934.22,-386.47,896.07,-356.27"/>
<path data-id="7-48" d="M934.22,-386.47,867.68,-478.00"/>
<path data-id="8-57" d="M769.77,-785.12,822.82,-803.89"/>
<path data-id="8-68" d="M769.77,-785.12,731.46,-822.29"/>
<path data-id="8-72" d="M769.77,-785.12,708.95,-739.60"/>
<path data-id="9-10" d="M801.73,-201.56,892.78,-132.41"/>
<path data-id="9-54" d="M801.73,-201.56,898.08,-236.93"/>
<path data-id="9-64" d="M801.73,-201.56,782.26,-275.31"/>
<path data-id="9-67" d="M801.73,-201.56,761.14,-190.93"/>
<path data-id="9-82" d="M801.73,-201.56,860.01,-97.69"/>
<path data-id="10-49" d="M892.78,-132.41,954.03,-41.22"/>
<path data-id="10-54" d="M892.78,-132.41,898.08,-236.93"/>
<path data-id="10-82" d="M892.78,-132.41,860.01,-97.69"/>
<path data-id="11-36" d="M419.61,-722.47,493.89,-663.25"/>
<path data-id="11-77" d="M419.61,-722.47,396.04,-785.76"/>
<path data-id="11-81" d="M419.61,-722.47,391.22,-589.64"/>
<path data-id="12-90" d="M608.24,-406.55,479.58,-396.22"/>
<path data-id="13-21" d="M805.90,-971.38,867.75,-936.89"/>
<path data-id="13-87" d="M805.90,-971.38,795.99,-941.33"/>
<path data-id="14-45" d="M331.30,-167.23,313.27,-111.97"/>
<path data-id="14-52" d="M331.30,-167.23,454.80,-185.85"/>
<path data-id="14-59" d="M331.30,-167.23,307.70,-317.30"/>
<path data-id="14-65" d="M331.30,-167.23,242.08,-225.67"/>
<path data-id="15-22" d="M779.93,-610.72,825.56,-553.05"/>
<path data-id="15-44" d="M779.93,-610.72,668.57,-526.18"/>
<path data-id="15-62" d="M779.93,-610.72,650.74,-588.31"/>
<path data-id="16-54" d="M896.07,-356.27,898.08,-236.93"/>
<path data-id="16-64" d="M896.07,-356.27,782.26,-275.31"/>
<path data-id="16-88" d="M896.07,-356.27,774.45,-406.74"/>
<path data-id="17-63" d="M645.83,-130.73,619.26,-151.51"/>
<path data-id="17-83" d="M645.83,-130.73,681.41,-152.13"/>
<path data-id="17-94" d="M645.83,-130.73,700.44,-10.01"/>
<path data-id="18-24" d="M476.98,-358.44,445.21,-309.00"/>
<path data-id="18-90" d="M476.98,-358.44,479.58,-396.22"/>
<path data-id="19-40" d="M7.06,-470.33,86.76,-434.85"/>
<path data-id="19-47" d="M7.06,-470.33,23.62,-497.64"/>
<path data-id="19-86" d="M7.06,-470.33,54.93,-402.83"/>
<path data-id="20-36" d="M635.50,-753.34,493.89,-663.25"/>
<path data-id="20-66" d="M635.50,-753.34,687.23,-819.41"/>
<path data-id="20-74" d="M635.50,-753.34,667.68,-731.88"/>
<path data-id="21-33" d="M867.75,-936.89,804.25,-892.91"/>
<path data-id="21-70" d="M867.75,-936.89,958.65,-891.00"/>
<path data-id="21-87" d="M867.75,-936.89,795.99,-941.33"/>
<path data-id="22-84" d="M825.56,-553.05,807.57,-506.68"/>
<path data-id="23-25" d="M426.22,-901.90,554.53,-951.20"/>
<path data-id="23-61" d="M426.22,-901.90,402.25,-952.70"/>
<path data-id="23-77" d="M426.22,-901.90,396.04,-785.76"/>
<path data-id="23-79" d="M426.22,-901.90,330.24,-865.08"/>
<path data-id="24-51" d="M445.21,-309.00,350.79,-325.26"/>
<path data-id="24-52" d="M445.21,-309.00,454.80,-185.85"/>
<path data-id="25-28" d="M554.53,-951.20,663.10,-848.33"/>
<path data-id="26-30" d="M35.86,-380.09,13.64,-242.32"/>
<path data-id="26-86" d="M35.86,-380.09,54.93,-402.83"/>
<path data-id="26-92" d="M35.86,-380.09,86.13,-369.37"/>
<path data-id="27-35" d="M11.72,-733.69,85.94,-731.82"/>
<path data-id="28-66" d="M663.10,-848.33,687.23,-819.41"/>
<path data-id="29-38" d="M0.61,-22.11,122.97,-84.61"/>
<path data-id="29-55" d="M0.61,-22.11,60.12,-184.50"/>
<path data-id="30-39" d="M13.64,-242.32,106.42,-268.63"/>
<path data-id="30-55" d="M13.64,-242.32,60.12,-184.50"/>
<path data-id="31-51" d="M335.65,-369.80,350.79,-325.26"/>
<path data-id="31-59" d="M335.65,-369.80,307.70,-317.30"/>
<path data-id="31-76" d="M335.65,-369.80,271.58,-341.61"/>
<path data-id="31-90" d="M335.65,-369.80,479.58,-396.22"/>
<path data-id="31-91" d="M335.65,-369.80,419.63,-473.35"/>
<path data-id="32-37" d="M212.92,-243.41,149.88,-326.60"/>
<path data-id="32-39" d="M212.92,-243.41,106.42,-268.63"/>
<path data-id="32-65" d="M212.92,-243.41,242.08,-225.67"/>
<path data-id="32-69" d="M212.92,-243.41,237.75,-272.35"/>
<path data-id="33-57" d="M804.25,-892.91,822.82,-803.89"/>
<path data-id="33-68" d="M804.25,-892.91,731.46,-822.29"/>
<path data-id="33-87" d="M804.25,-892.91,795.99,-941.33"/>
<path data-id="34-50" d="M213.12,-961.87,126.60,-914.98"/>
<path data-id="34-61" d="M213.12,-961.87,402.25,-952.70"/>
<path data-id="34-79" d="M213.12,-961.87,330.24,-865.08"/>
<path data-id="35-53" d="M85.94,-731.82,174.68,-628.64"/>
<path data-id="35-80" d="M85.94,-731.82,295.00,-806.76"/>
<path data-id="35-93" d="M85.94,-731.82,111.23,-869.72"/>
<path data-id="36-78" d="M493.89,-663.25,626.06,-597.28"/>
<path data-id="36-81" d="M493.89,-663.25,391.22,-589.64"/>
<path data-id="37-39" d="M149.88,-326.60,106.42,-268.63"/>
<path data-id="37-58" d="M149.88,-326.60,187.26,-341.81"/>
<path data-id="37-92" d="M149.88,-326.60,86.13,-369.37"/>
<path data-id="38-46" d="M122.97,-84.61,202.29,-104.30"/>
<path data-id="38-55" d="M122.97,-84.61,60.12,-184.50"/>
<path data-id="39-55" d="M106.42,-268.63,60.12,-184.50"/>
<path data-id="39-92" d="M106.42,-268.63,86.13,-369.37"/>
<path data-id="40-41" d="M86.76,-434.85,105.10,-487.05"/>
<path data-id="40-47" d="M86.76,-434.85,23.62,-497.64"/>
<path data-id="40-86" d="M86.76,-434.85,54.93,-402.83"/>
<path data-id="41-47" d="M105.10,-487.05,23.62,-497.64"/>
<path data-id="41-53" d="M105.10,-487.05,174.68,-628.64"/>
<path data-id="41-71" d="M105.10,-487.05,202.91,-497.35"/>
<path data-id="42-43" d="M574.64,-34.15,547.89,-134.47"/>
<path data-id="42-73" d="M574.64,-34.15,581.45,-134.45"/>
<path data-id="42-94" d="M574.64,-34.15,700.44,-10.01"/>
<path data-id="43-52" d="M547.89,-134.47,454.80,-185.85"/>
<path data-id="43-73" d="M547.89,-134.47,581.45,-134.45"/>
<path data-id="44-62" d="M668.57,-526.18,650.74,-588.31"/>
<path data-id="44-84" d="M668.57,-526.18,807.57,-506.68"/>
<path data-id="44-85" d="M668.57,-526.18,778.85,-457.74"/>
<path data-id="45-46" d="M313.27,-111.97,202.29,-104.30"/>
<path data-id="45-56" d="M313.27,-111.97,264.18,-47.30"/>
<path data-id="45-89" d="M313.27,-111.97,332.81,-77.65"/>
<path data-id="46-56" d="M202.29,-104.30,264.18,-47.30"/>
<path data-id="46-65" d="M202.29,-104.30,242.08,-225.67"/>
<path data-id="48-84" d="M867.68,-478.00,807.57,-506.68"/>
<path data-id="49-82" d="M954.03,-41.22,860.01,-97.69"/>
<path data-id="50-93" d="M126.60,-914.98,111.23,-869.72"/>
<path data-id="51-59" d="M350.79,-325.26,307.70,-317.30"/>
<path data-id="53-71" d="M174.68,-628.64,202.91,-497.35"/>
<path data-id="53-80" d="M174.68,-628.64,295.00,-806.76"/>
<path data-id="53-81" d="M174.68,-628.64,391.22,-589.64"/>
<path data-id="54-64" d="M898.08,-236.93,782.26,-275.31"/>
<path data-id="56-89" d="M264.18,-47.30,332.81,-77.65"/>
<path data-id="57-70" d="M822.82,-803.89,958.65,-891.00"/>
<path data-id="58-69" d="M187.26,-341.81,237.75,-272.35"/>
<path data-id="58-71" d="M187.26,-341.81,202.91,-497.35"/>
<path data-id="58-76" d="M187.26,-341.81,271.58,-341.61"/>
<path data-id="59-69" d="M307.70,-317.30,237.75,-272.35"/>
<path data-id="59-76" d="M307.70,-317.30,271.58,-341.61"/>
<path data-id="60-67" d="M815.01,-63.55,761.14,-190.93"/>
<path data-id="60-82" d="M815.01,-63.55,860.01,-97.69"/>
<path data-id="60-83" d="M815.01,-63.55,681.41,-152.13"/>
<path data-id="60-94" d="M815.01,-63.55,700.44,-10.01"/>
<path data-id="61-79" d="M402.25,-952.70,330.24,-865.08"/>
<path data-id="62-78" d="M650.74,-588.31,626.06,-597.28"/>
<path data-id="63-73" d="M619.26,-151.51,581.45,-134.45"/>
<path data-id="64-67" d="M782.26,-275.31,761.14,-190.93"/>
<path data-id="64-75" d="M782.26,-275.31,747.11,-361.41"/>
<path data-id="65-69" d="M242.08,-225.67,237.75,-272.35"/>
<path data-id="66-68" d="M687.23,-819.41,731.46,-822.29"/>
<path data-id="66-72" d="M687.23,-819.41,708.95,-739.60"/>
<path data-id="66-74" d="M687.23,-819.41,667.68,-731.88"/>
<path data-id="67-83" d="M761.14,-190.93,681.41,-152.13"/>
<path data-id="68-72" d="M731.46,-822.29,708.95,-739.60"/>
<path data-id="69-76" d="M237.75,-272.35,271.58,-341.61"/>
<path data-id="71-76" d="M202.91,-497.35,271.58,-341.61"/>
<path data-id="71-81" d="M202.91,-497.35,391.22,-589.64"/>
<path data-id="71-91" d="M202.91,-497.35,419.63,-473.35"/>
<path data-id="72-74" d="M708.95,-739.60,667.68,-731.88"/>
<path data-id="74-78" d="M667.68,-731.88,626.06,-597.28"/>
<path data-id="75-88" d="M747.11,-361.41,774.45,-406.74"/>
<path data-id="77-79" d="M396.04,-785.76,330.24,-865.08"/>
<path data-id="77-80" d="M396.04,-785.76,295.00,-806.76"/>
<path data-id="78-91" d="M626.06,-597.28,419.63,-473.35"/>
<path data-id="79-80" d="M330.24,-865.08,295.00,-806.76"/>
<path data-id="80-93" d="M295.00,-806.76,111.23,-869.72"/>
<path data-id="81-91" d="M391.22,-589.64,419.63,-473.35"/>
<path data-id="84-85" d="M807.57,-506.68,778.85,-457.74"/>
<path data-id="85-88" d="M778.85,-457.74,774.45,-406.74"/>
<path data-id="86-92" d="M54.93,-402.83,86.13,-369.37"/>
<path data-id="90-91" d="M479.58,-396.22,419.63,-473.35"/>
<circle data-id="0" cx="878.30" cy="-576.19" r="10.00px"/>
<text data-id="0" x="878.30" y="-576.19">R0</text>
<circle data-id="1" cx="756.06" cy="-716.55" r="10.00px"/>
<text data-id="1" x="756.06" y="-716.55">R1</text>
<circle data-id="2" cx="623.36" cy="-193.96" r="10.00px"/>
<text data-id="2" x="623.36" y="-193.96">R2</text>
<circle data-id="3" cx="646.70" cy="-437.42" r="10.00px"/>
<text data-id="3" x="646.70" y="-437.42">R3</text>
<circle data-id="4" cx="392.42" cy="-40.66" r="10.00px"/>
<text data-id="4" x="392.42" y="-40.66">R4</text>
<circle data-id="5" cx="40.34" cy="-564.70" r="10.00px"/>
<text data-id="5" x="40.34" y="-564.70">R5</text>
<circle data-id="6" cx="379.23" cy="-7.22" r="10.00px"/>
<text data-id="6" x="379.23" y="-7.22">R6</text>
<circle data-id="7" cx="934.22" cy="-386.47" r="10.00px"/>
<text data-id="7" x="934.22" y="-386.47">R7</text>
<circle data-id="8" cx="769.77" cy="-785.12" r="10.00px"/>
<text data-id="8" x="769.77" y="-785.12">R8</text>
<circle data-id="9" cx="801.73" cy="-201.56" r="10.00px"/>
<text data-id="9" x="801.73" y="-201.56">R9</text>
<circle data-id="10" cx="892.78" cy="-132.41" r="10.00px"/>
<text data-id="10" x="892.78" y="-132.41">R10</text>
<circle data-id="11" cx="419.61" cy="-722.47" r="10.00px"/>
<text data-id="11" x="419.61" y="-722.47">R11</text>
<circle data-id="12" cx="608.24" cy="-406.55" r="10.00px"/>
<text data-id="12" x="608.24" y="-406.55">R12</text>
<circle data-id="13" cx="805.90" cy="-971.38" r="10.00px"/>
<text data-id="13" x="805.90" y="-971.38">R13</text>
<circle data-id="14" cx="331.30" cy="-167.23" r="10.00px"/>
<text data-id="14" x="331.30" y="-167.23">R14</text>
<circle data-id="15" cx="779.93" cy="-610.72" r="10.00px"/>
<text data-id="15" x="779.93" y="-610.72">R15</text>
<circle data-id="16" cx="896.07" cy="-356.27" r="10.00px"/>
<text data-id="16" x="896.07" y="-356.27">R16</text>
<circle data-id="17" cx="645.83" cy="-130.73" r="10.00px"/>
<text data-id="17" x="645.83" y="-130.73">R17</text>
<circle data-id="18" cx="476.98" cy="-358.44" r="10.00px"/>
<text data-id="18" x="476.98" y="-358.44">R18</text>
<circle data-id="19" cx="7.06" cy="-470.33" r="10.00px"/>
<text data-id="19" x="7.06" y="-470.33">R19</text>
<circle data-id="20" cx="635.50" cy="-753.34" r="10.00px"/>
<text data-id="20" x="635.50" y="-753.34">R20</text>
<circle data-id="21" cx="867.75" cy="-936.89" r="10.00px"/>
<text data-id="21" x="867.75" y="-936.89">R21</text>
<circle data-id="22" cx="825.56" cy="-553.05" r="10.00px"/>
<text data-id="22" x="825.56" y="-553.05">R22</text>
<circle data-id="23" cx="426.22" cy="-901.90" r="10.00px"/>
<text data-id="23" x="426.22" y="-901.90">R23</text>
<circle data-id="24" cx="445.21" cy="-309.00" r="10.00px"/>
<text data-id="24" x="445.21" y="-309.00">R24</text>
<circle data-id="25" cx="554.53" cy="-951.20" r="10.00px"/>
<text data-id="25" x="554.53" y="-951.20">R25</text>
<circle data-id="26" cx="35.86" cy="-380.09" r="10.00px"/>
<text data-id="26" x="35.86" y="-380.09">R26</text>
<circle data-id="27" cx="11.72" cy="-733.69" r="10.00px"/>
<text data-id="27" x="11.72" y="-733.69">R27</text>
<circle data-id="28" cx="663.10" cy="-848.33" r="10.00px"/>
<text data-id="28" x="663.10" y="-848.33">R28</text>
<circle data-id="29" cx="0.61" cy="-22.11" r="10.00px"/>
<text data-id="29" x="0.61" y="-22.11">R29</text>
<circle data-id="30" cx="13.64" cy="-242.32" r="10.00px"/>
<text data-id="30" x="13.64" y="-242.32">R30</text>
<circle data-id="31" cx="335.65" cy="-369.80" r="10.00px"/>
<text data-id="31" x="335.65" y="-369.80">R31</text>
<circle data-id="32" cx="212.92" cy="-243.41" r="10.00px"/>
<text data-id="32" x="212.92" y="-243.41">R32</text>
<circle data-id="33" cx="804.25" cy="-892.91" r="10.00px"/>
<text data-id="33" x="804.25" y="-892.91">R33</text>
<circle data-id="34" cx="213.12" cy="-961.87" r="10.00px"/>
<text data-id="34" x="213.12" y="-961.87">R34</text>
<circle data-id="35" cx="85.94" cy="-731.82" r="10.00px"/>
<text data-id="35" x="85.94" y="-731.82">R35</text>
<circle data-id="36" cx="493.89" cy="-663.25" r="10.00px"/>
<text data-id="36" x="493.89" y="-663.25">R36</text>
<circle data-id="37" cx="149.88" cy="-326.60" r="10.00px"/>
<text data-id="37" x="149.88" y="-326.60">R37</text>
<circle data-id="38" cx="122.97" cy="-84.61" r="10.00px"/>
<text data-id="38" x="122.97" y="-84.61">R38</text>
<circle data-id="39" cx="106.42" cy="-268.63" r="10.00px"/>
<text data-id="39" x="106.42" y="-268.63">R39</text>
<circle data-id="40" cx="86.76" cy="-434.85" r="10.00px"/>
<text data-id="40" x="86.76" y="-434.85">R40</text>
<circle data-id="41" cx="105.10" cy="-487.05" r="10.00px"/>
<text data-id="41" x="105.10" y="-487.05">R41</text>
<circle data-id="42" cx="574.64" cy="-34.15" r="10.00px"/>
<text data-id="42" x="574.64" y="-34.15">R42</text>
<circle data-id="43" cx="547.89" cy="-134.47" r="10.00px"/>
<text data-id="43" x="547.89" y="-134.47">R43</text>
<circle data-id="44" cx="668.57" cy="-526.18" r="10.00px"/>
<text data-id="44" x="668.57" y="-526.18">R44</text>
<circle data-id="45" cx="313.27" cy="-111.97" r="10.00px"/>
<text data-id="45" x="313.27" y="-111.97">R45</text>
<circle data-id="46" cx="202.29" cy="-104.30" r="10.00px"/>
<text data-id="46" x="202.29" y="-104.30">R46</text>
<circle data-id="47" cx="23.62" cy="-497.64" r="10.00px"/>
<text data-id="47" x="23.62" y="-497.64">R47</text>
<circle data-id="48" cx="867.68" cy="-478.00" r="10.00px"/>
<text data-id="48" x="867.68" y="-478.00">R48</text>
<circle data-id="49" cx="954.03" cy="-41.22" r="10.00px"/>
<text data-id="49" x="954.03" y="-41.22">R49</text>
<circle data-id="50" cx="126.60" cy="-914.98" r="10.00px"/>
<text data-id="50" x="126.60" y="-914.98">R50</text>
<circle data-id="51" cx="350.79" cy="-325.26" r="10.00px"/>
<text data-id="51" x="350.79" y="-325.26">R51</text>
<circle data-id="52" cx="454.80" cy="-185.85" r="10.00px"/>
<text data-id="52" x="454.80" y="-185.85">R52</text>
<circle data-id="53" cx="174.68" cy="-628.64" r="10.00px"/>
<text data-id="53" x="174.68" y="-628.64">R53</text>
<circle data-id="54" cx="898.08" cy="-236.93" r="10.00px"/>
<text data-id="54" x="898.08" y="-236.93">R54</text>
<circle data-id="55" cx="60.12" cy="-184.50" r="10.00px"/>
<text data-id="55" x="60.12" y="-184.50">R55</text>
<circle data-id="56" cx="264.18" cy="-47.30" r="10.00px"/>
<text data-id="56" x="264.18" y="-47.30">R56</text>
<circle data-id="57" cx="822.82" cy="-803.89" r="10.00px"/>
<text data-id="57" x="822.82" y="-803.89">R57</text>
<circle data-id="58" cx="187.26" cy="-341.81" r="10.00px"/>
<text data-id="58" x="187.26" y="-341.81">R58</text>
<circle data-id="59" cx="307.70" cy="-317.30" r="10.00px"/>
<text data-id="59" x="307.70" y="-317.30">R59</text>
<circle data-id="60" cx="815.01" cy="-63.55" r="10.00px"/>
<text data-id="60" x="815.01" y="-63.55">R60</text>
<circle data-id="61" cx="402.25" cy="-952.70" r="10.00px"/>
<text data-id="61" x="402.25" y="-952.70">R61</text>
<circle data-id="62" cx="650.74" cy="-588.31" r="10.00px"/>
<text data-id="62" x="650.74" y="-588.31">R62</text>
<circle data-id="63" cx="619.26" cy="-151.51" r="10.00px"/>
<text data-id="63" x="619.26" y="-151.51">R63</text>
<circle data-id="64" cx="782.26" cy="-275.31" r="10.00px"/>
<text data-id="64" x="782.26" y="-275.31">R64</text>
<circle data-id="65" cx="242.08" cy="-225.67" r="10.00px"/>
<text data-id="65" x="242.08" y="-225.67">R65</text>
<circle data-id="66" cx="687.23" cy="-819.41" r="10.00px"/>
<text data-id="66" x="687.23" y="-819.41">R66</text>
<circle data-id="67" cx="761.14" cy="-190.93" r="10.00px"/>
<text data-id="67" x="761.14" y="-190.93">R67</text>
<circle data-id="68" cx="731.46" cy="-822.29" r="10.00px"/>
<text data-id="68" x="731.46" y="-822.29">R68</text>
<circle data-id="69" cx="237.75" cy="-272.35" r="10.00px"/>
<text data-id="69" x="237.75" y="-272.35">R69</text>
<circle data-id="70" cx="958.65" cy="-891.00" r="10.00px"/>
<text data-id="70" x="958.65" y="-891.00">R70</text>
<circle data-id="71" cx="202.91" cy="-497.35" r="10.00px"/>
<text data-id="71" x="202.91" y="-497.35">R71</text>
<circle data-id="72" cx="708.95" cy="-739.60" r="10.00px"/>
<text data-id="72" x="708.95" y="-739.60">R72</text>
<circle data-id="73" cx="581.45" cy="-134.45" r="10.00px"/>
<text data-id="73" x="581.45" y="-134.45">R73</text>
<circle data-id="74" cx="667.68" cy="-731.88" r="10.00px"/>
<text data-id="74" x="667.68" y="-731.88">R74</text>
<circle data-id="75" cx="747.11" cy="-361.41" r="10.00px"/>
<text data-id="75" x="747.11" y="-361.41">R75</text>
<circle data-id="76" cx="271.58" cy="-341.61" r="10.00px"/>
<text data-id="76" x="271.58" y="-341.61">R76</text>
<circle data-id="77" cx="396.04" cy="-785.76" r="10.00px"/>
<text data-id="77" x="396.04" y="-785.76">R77</text>
<circle data-id="78" cx="626.06" cy="-597.28" r="10.00px"/>
<text data-id="78" x="626.06" y="-597.28">R78</text>
<circle data-id="79" cx="330.24" cy="-865.08" r="10.00px"/>
<text data-id="79" x="330.24" y="-865.08">R79</text>
<circle data-id="80" cx="295.00" cy="-806.76" r="10.00px"/>
<text data-id="80" x="295.00" y="-806.76">R80</text>
<circle data-id="81" cx="391.22" cy="-589.64" r="10.00px"/>
<text data-id="81" x="391.22" y="-589.64">R81</text>
<circle data-id="82" cx="860.01" cy="-97.69" r="10.00px"/>
<text data-id="82" x="860.01" y="-97.69">R82</text>
<circle data-id="83" cx="681.41" cy="-152.13" r="10.00px"/>
<text data-id="83" x="681.41" y="-152.13">R83</text>
<circle data-id="84" cx="807.57" cy="-506.68" r="10.00px"/>
<text data-id="84" x="807.57" y="-506.68">R84</text>
<circle data-id="85" cx="778.85" cy="-457.74" r="10.00px"/>
<text data-id="85" x="778.85" y="-457.74">R85</text>
<circle data-id="86" cx="54.93" cy="-402.83" r="10.00px"/>
<text data-id="86" x="54.93" y="-402.83">R86</text>
<circle data-id="87" cx="795.99" cy="-941.33" r="10.00px"/>
<text data-id="87" x="795.99" y="-941.33">R87</text>
<circle data-id="88" cx="774.45" cy="-406.74" r="10.00px"/>
<text data-id="88" x="774.45" y="-406.74">R88</text>
<circle data-id="89" cx="332.81" cy="-77.65" r="10.00px"/>
<text data-id="89" x="332.81" y="-77.65">R89</text>
<circle data-id="90" cx="479.58" cy="-396.22" r="10.00px"/>
<text data-id="90" x="479.58" y="-396.22">R90</text>
<circle data-id="91" cx="419.63" cy="-473.35" r="10.00px"/>
<text data-id="91" x="419.63" y="-473.35">R91</text>
<circle data-id="92" cx="86.13" cy="-369.37" r="10.00px"/>
<text data-id="92" x="86.13" y="-369.37">R92</text>
<circle data-id="93" cx="111.23" cy="-869.72" r="10.00px"/>
<text data-id="93" x="111.23" y="-869.72">R93</text>
<circle data-id="94" cx="700.44" cy="-10.01" r="10.00px"/>
<text data-id="94" x="700.44" y="-10.01">R94</text>
</svg>
