<svg id="topo" viewBox="-33.66 -1021.47 1053.62 1049.49" xmlns="http://www.w3.org/2000/svg">
<style>#topo path {fill: none; stroke: grey; stroke-width: 5.0000px;} #topo circle {fill: lightblue; stroke: none; stroke-width: 0.3px; vector-effect: non-scaling-stroke; r: 10.0000px;} #topo text {fill: black; stroke: none; font-size: 15.0000px; font-family: sans-serif; text-anchor:middle; transform: translateY(0.3em);} #topo path.country {fill: lightgrey; stroke: black; stroke-width: 1px; vector-effect: non-scaling-stroke; visibility: visible;} #topo path.selection {fill: none; stroke: red; stroke-width: 1px; vector-effect: non-scaling-stroke; visibility: visible;} #topo path.utilization {visibility: hidden;}</style>
<path data-id="0-13" d="M24.84,-942.28,21.69,-827.71"/>
<path data-id="0-57" d="M24.84,-942.28,78.50,-860.01"/>
<path data-id="1-39" d="M619.35,-854.43,583.99,-803.48"/>
<path data-id="1-46" d="M619.35,-854.43,537.91,-878.44"/>
<path data-id="1-92" d="M619.35,-854.43,633.04,-899.14"/>
<path data-id="2-79" d="M649.12,-963.71,559.91,-952.49"/>
<path data-id="2-82" d="M649.12,-963.71,684.32,-915.04"/>
<path data-id="2-92" d="M649.12,-963.71,633.04,-899.14"/>
<path data-id="3-11" d="M392.99,-499.70,492.97,-529.59"/>
<path data-id="3-72" d="M392.99,-499.70,338.91,-577.99"/>
<path data-id="3-94" d="M392.99,-499.70,392.54,-454.90"/>
<path data-id="4-10" d="M226.63,-80.27,190.53,-83.65"/>
<path data-id="4-45" d="M226.63,-80.27,275.84,-140.90"/>
<path data-id="4-54" d="M226.63,-80.27,303.12,-68.78"/>
<path data-id="4-70" d="M226.63,-80.27,251.20,-19.95"/>
<path data-id="5-8" d="M883.91,-266.91,717.42,-399.75"/>
<path data-id="5-20" d="M883.91,-266.91,851.43,-231.62"/>
<path data-id="5-36" d="M883.91,-266.91,972.07,-402.36"/>
<path data-id="5-74" d="M883.91,-266.91,862.88,-442.61"/>
<path data-id="6-25" d="M648.31,-587.86,669.97,-501.18"/>
<path data-id="6-28" d="M648.31,-587.86,603.42,-487.63"/>
<path data-id="6-33" d="M648.31,-587.86,632.88,-630.73"/>
<path data-id="7-25" d="M749.75,-510.63,669.97,-501.18"/>
<path data-id="7-74" d="M749.75,-510.63,862.88,-442.61"/>
<path data-id="7-76" d="M749.75,-510.63,826.68,-549.05"/>
<path data-id="7-87" d="M749.75,-510.63,733.59,-458.95"/>
<path data-id="8-14" d="M717.42,-399.75,709.43,-193.91"/>
<path data-id="8-20" d="M717.42,-399.75,851.43,-231.62"/>
<path data-id="8-51" d="M717.42,-399.75,623.04,-440.68"/>
<path data-id="8-87" d="M717.42,-399.75,733.59,-458.95"/>
<path data-id="9-32" d="M505.69,-241.07,562.90,-308.21"/>
<path data-id="9-69" d="M505.69,-241.07,468.42,-203.59"/>
<path data-id="9-85" d="M505.69,-241.07,513.96,-207.37"/>
<path data-id="10-55" d="M190.53,-83.65,98.68,-75.21"/>
<path data-id="11-24" d="M492.97,-529.59,413.64,-634.42"/>
<path data-id="11-84" d="M492.97,-529.59,538.54,-496.41"/>
<path data-id="12-34" d="M197.51,-736.47,309.11,-792.04"/>
<path data-id="12-56" d="M197.51,-736.47,103.62,-842.76"/>
<path data-id="12-66" d="M197.51,-736.47,203.13,-711.35"/>
<path data-id="12-93" d="M197.51,-736.47,35.81,-697.83"/>
<path data-id="13-57" d="M21.69,-827.71,78.50,-860.01"/>
<path data-id="13-93" d="M21.69,-827.71,35.81,-697.83"/>
<path data-id="14-18" d="M709.43,-193.91,635.41,-184.15"/>
<path data-id="14-52" d="M709.43,-193.91,837.23,-202.64"/>
<path data-id="14-53" d="M709.43,-193.91,732.55,-127.43"/>
<path data-id="15-30" d="M186.69,-504.85,196.07,-418.66"/>
<path data-id="15-43" d="M186.69,-504.85,166.87,-583.28"/>
<path data-id="15-77" d="M186.69,-504.85,277.86,-453.89"/>
<path data-id="15-81" d="M186.69,-504.85,131.96,-510.86"/>
<path data-id="15-90" d="M186.69,-504.85,288.80,-612.30"/>
<path data-id="16-24" d="M384.00,-623.30,413.64,-634.42"/>
<path data-id="16-67" d="M384.00,-623.30,342.86,-641.07"/>
<path data-id="16-72" d="M384.00,-623.30,338.91,-577.99"/>
<path data-id="17-48" d="M253.35,-881.23,290.37,-844.86"/>
<path data-id="17-56" d="M253.35,-881.23,103.62,-842.76"/>
<path data-id="17-62" d="M253.35,-881.23,310.62,-932.75"/>
<path data-id="18-32" d="M635.41,-184.15,562.90,-308.21"/>
<path data-id="18-80" d="M635.41,-184.15,615.48,-134.16"/>
<path data-id="18-85" d="M635.41,-184.15,513.96,-207.37"/>
<path data-id="19-27" d="M890.59,-85.29,939.34,-114.41"/>
<path data-id="19-40" d="M890.59,-85.29,715.86,-20.80"/>
<path data-id="19-52" d="M890.59,-85.29,837.23,-202.64"/>
<path data-id="19-53" d="M890.59,-85.29,732.55,-127.43"/>
<path data-id="20-52" d="M851.43,-231.62,837.23,-202.64"/>
<path data-id="21-43" d="M215.01,-671.32,166.87,-583.28"/>
<path data-id="21-60" d="M215.01,-671.32,253.87,-635.33"/>
<path data-id="21-66" d="M215.01,-671.32,203.13,-711.35"/>
<path data-id="22-32" d="M529.24,-434.75,562.90,-308.21"/>
<path data-id="22-63" d="M529.24,-434.75,582.46,-468.77"/>
<path data-id="22-78" d="M529.24,-434.75,454.85,-403.74"/>
<path data-id="22-84" d="M529.24,-434.75,538.54,-496.41"/>
<path data-id="23-30" d="M20.68,-386.24,196.07,-418.66"/>
<path data-id="23-37" d="M20.68,-386.24,92.26,-308.22"/>
<path data-id="23-61" d="M20.68,-386.24,14.24,-558.37"/>
<path data-id="23-81" d="M20.68,-386.24,131.96,-510.86"/>
<path data-id="24-58" d="M413.64,-634.42,557.41,-742.31"/>
<path data-id="24-75" d="M413.64,-634.42,360.24,-796.71"/>
<path data-id="25-28" d="M669.97,-501.18,603.42,-487.63"/>
<path data-id="25-51" d="M669.97,-501.18,623.04,-440.68"/>
<path data-id="25-87" d="M669.97,-501.18,733.59,-458.95"/>
<path data-id="26-46" d="M485.98,-922.31,537.91,-878.44"/>
<path data-id="26-49" d="M485.98,-922.31,385.36,-890.19"/>
<path data-id="26-79" d="M485.98,-922.31,559.91,-952.49"/>
<path data-id="27-52" d="M939.34,-114.41,837.23,-202.64"/>
<path data-id="28-51" d="M603.42,-487.63,623.04,-440.68"/>
<path data-id="28-63" d="M603.42,-487.63,582.46,-468.77"/>
<path data-id="29-31" d="M744.01,-901.40,880.02,-740.01"/>
<path data-id="29-38" d="M744.01,-901.40,941.89,-873.17"/>
<path data-id="29-64" d="M744.01,-901.40,707.35,-666.07"/>
<path data-id="29-65" d="M744.01,-901.40,898.09,-973.77"/>
<path data-id="29-82" d="M744.01,-901.40,684.32,-915.04"/>
<path data-id="29-91" d="M744.01,-901.40,775.79,-659.12"/>
<path data-id="30-77" d="M196.07,-418.66,277.86,-453.89"/>
<path data-id="30-86" d="M196.07,-418.66,191.00,-360.09"/>
<path data-id="31-38" d="M880.02,-740.01,941.89,-873.17"/>
<path data-id="31-73" d="M880.02,-740.01,967.89,-633.99"/>
<path data-id="31-91" d="M880.02,-740.01,775.79,-659.12"/>
<path data-id="32-51" d="M562.90,-308.21,623.04,-440.68"/>
<path data-id="32-78" d="M562.90,-308.21,454.85,-403.74"/>
<path data-id="33-58" d="M632.88,-630.73,557.41,-742.31"/>
<path data-id="33-64" d="M632.88,-630.73,707.35,-666.07"/>
<path data-id="34-48" d="M309.11,-792.04,290.37,-844.86"/>
<path data-id="34-67" d="M309.11,-792.04,342.86,-641.07"/>
<path data-id="34-75" d="M309.11,-792.04,360.24,-796.71"/>
<path data-id="35-37" d="M128.88,-272.37,92.26,-308.22"/>
<path data-id="35-68" d="M128.88,-272.37,249.27,-221.18"/>
<path data-id="35-83" d="M128.88,-272.37,72.32,-132.08"/>
<path data-id="35-86" d="M128.88,-272.37,191.00,-360.09"/>
<path data-id="36-47" d="M972.07,-402.36,968.09,-516.33"/>
<path data-id="36-74" d="M972.07,-402.36,862.88,-442.61"/>
<path data-id="37-86" d="M92.26,-308.22,191.00,-360.09"/>
<path data-id="38-65" d="M941.89,-873.17,898.09,-973.77"/>
<path data-id="39-46" d="M583.99,-803.48,537.91,-878.44"/>
<path data-id="39-58" d="M583.99,-803.48,557.41,-742.31"/>
<path data-id="40-42" d="M715.86,-20.80,622.60,-25.91"/>
<path data-id="40-53" d="M715.86,-20.80,732.55,-127.43"/>
<path data-id="41-50" d="M15.81,-20.16,73.52,-19.69"/>
<path data-id="42-80" d="M622.60,-25.91,615.48,-134.16"/>
<path data-id="42-88" d="M622.60,-25.91,407.98,-119.25"/>
<path data-id="43-59" d="M166.87,-583.28,112.84,-585.85"/>
<path data-id="43-60" d="M166.87,-583.28,253.87,-635.33"/>
<path data-id="43-81" d="M166.87,-583.28,131.96,-510.86"/>
<path data-id="44-47" d="M963.03,-558.27,968.09,-516.33"/>
<path data-id="44-73" d="M963.03,-558.27,967.89,-633.99"/>
<path data-id="44-76" d="M963.03,-558.27,826.68,-549.05"/>
<path data-id="45-54" d="M275.84,-140.90,303.12,-68.78"/>
<path data-id="45-68" d="M275.84,-140.90,249.27,-221.18"/>
<path data-id="45-88" d="M275.84,-140.90,407.98,-119.25"/>
<path data-id="46-79" d="M537.91,-878.44,559.91,-952.49"/>
<path data-id="47-74" d="M968.09,-516.33,862.88,-442.61"/>
<path data-id="48-62" d="M290.37,-844.86,310.62,-932.75"/>
<path data-id="48-89" d="M290.37,-844.86,385.82,-858.76"/>
<path data-id="49-62" d="M385.36,-890.19,310.62,-932.75"/>
<path data-id="49-89" d="M385.36,-890.19,385.82,-858.76"/>
<path data-id="50-55" d="M73.52,-19.69,98.68,-75.21"/>
<path data-id="51-63" d="M623.04,-440.68,582.46,-468.77"/>
<path data-id="52-53" d="M837.23,-202.64,732.55,-127.43"/>
<path data-id="53-80" d="M732.55,-127.43,615.48,-134.16"/>
<path data-id="54-70" d="M303.12,-68.78,251.20,-19.95"/>
<path data-id="54-88" d="M303.12,-68.78,407.98,-119.25"/>
<path data-id="55-83" d="M98.68,-75.21,72.32,-132.08"/>
<path data-id="56-57" d="M103.62,-842.76,78.50,-860.01"/>
<path data-id="58-75" d="M557.41,-742.31,360.24,-796.71"/>
<path data-id="59-61" d="M112.84,-585.85,14.24,-558.37"/>
<path data-id="59-81" d="M112.84,-585.85,131.96,-510.86"/>
<path data-id="59-93" d="M112.84,-585.85,35.81,-697.83"/>
<path data-id="60-90" d="M253.87,-635.33,288.80,-612.30"/>
<path data-id="61-81" d="M14.24,-558.37,131.96,-510.86"/>
<path data-id="61-93" d="M14.24,-558.37,35.81,-697.83"/>
<path data-id="63-84" d="M582.46,-468.77,538.54,-496.41"/>
<path data-id="64-91" d="M707.35,-666.07,775.79,-659.12"/>
<path data-id="66-93" d="M203.13,-711.35,35.81,-697.83"/>
<path data-id="67-72" d="M342.86,-641.07,338.91,-577.99"/>
<path data-id="67-75" d="M342.86,-641.07,360.24,-796.71"/>
<path data-id="67-90" d="M342.86,-641.07,288.80,-612.30"/>
<path data-id="68-71" d="M249.27,-221.18,311.18,-388.92"/>
<path data-id="68-86" d="M249.27,-221.18,191.00,-360.09"/>
<path data-id="69-71" d="M468.42,-203.59,311.18,-388.92"/>
<path data-id="69-85" d="M468.42,-203.59,513.96,-207.37"/>
<path data-id="69-88" d="M468.42,-203.59,407.98,-119.25"/>
<path data-id="71-77" d="M311.18,-388.92,277.86,-453.89"/>
<path data-id="71-86" d="M311.18,-388.92,191.00,-360.09"/>
<path data-id="71-94" d="M311.18,-388.92,392.54,-454.90"/>
<path data-id="72-77" d="M338.91,-577.99,277.86,-453.89"/>
<path data-id="72-90" d="M338.91,-577.99,288.80,-612.30"/>
<path data-id="74-76" d="M862.88,-442.61,826.68,-549.05"/>
<path data-id="74-87" d="M862.88,-442.61,733.59,-458.95"/>
<path data-id="75-89" d="M360.24,-796.71,385.82,-858.76"/>
<path data-id="76-91" d="M826.68,-549.05,775.79,-659.12"/>
<path data-id="77-94" d="M277.86,-453.89,392.54,-454.90"/>
<path data-id="78-94" d="M454.85,-403.74,392.54,-454.90"/>
<path data-id="79-92" d="M559.91,-952.49,633.04,-899.14"/>
<path data-id="80-85" d="M615.48,-134.16,513.96,-207.37"/>
<path data-id="82-92" d="M684.32,-915.04,633.04,-899.14"/>
<circle data-id="0" cx="24.84" cy="-942.28" r="10.00px"/>
<text data-id="0" x="24.84" y="-942.28">R0</text>
<circle data-id="1" cx="619.35" cy="-854.43" r="10.00px"/>
<text data-id="1" x="619.35" y="-854.43">R1</text>
<circle data-id="2" cx="649.12" cy="-963.71" r="10.00px"/>
<text data-id="2" x="649.12" y="-963.71">R2</text>
<circle data-id="3" cx="392.99" cy="-499.70" r="10.00px"/>
<text data-id="3" x="392.99" y="-499.70">R3</text>
<circle data-id="4" cx="226.63" cy="-80.27" r="10.00px"/>
<text data-id="4" x="226.63" y="-80.27">R4</text>
<circle data-id="5" cx="883.91" cy="-266.91" r="10.00px"/>
<text data-id="5" x="883.91" y="-266.91">R5</text>
<circle data-id="6" cx="648.31" cy="-587.86" r="10.00px"/>
<text data-id="6" x="648.31" y="-587.86">R6</text>
<circle data-id="7" cx="749.75" cy="-510.63" r="10.00px"/>
<text data-id="7" x="749.75" y="-510.63">R7</text>
<circle data-id="8" cx="717.42" cy="-399.75" r="10.00px"/>
<text data-id="8" x="717.42" y="-399.75">R8</text>
<circle data-id="9" cx="505.69" cy="-241.07" r="10.00px"/>
<text data-id="9" x="505.69" y="-241.07">R9</text>
<circle data-id="10" cx="190.53" cy="-83.65" r="10.00px"/>
<text data-id="10" x="190.53" y="-83.65">R10</text>
<circle data-id="11" cx="492.97" cy="-529.59" r="10.00px"/>
<text data-id="11" x="492.97" y="-529.59">R11</text>
<circle data-id="12" cx="197.51" cy="-736.47" r="10.00px"/>
<text data-id="12" x="197.51" y="-736.47">R12</text>
<circle data-id="13" cx="21.69" cy="-827.71" r="10.00px"/>
<text data-id="13" x="21.69" y="-827.71">R13</text>
<circle data-id="14" cx="709.43" cy="-193.91" r="10.00px"/>
<text data-id="14" x="709.43" y="-193.91">R14</text>
<circle data-id="15" cx="186.69" cy="-504.85" r="10.00px"/>
<text data-id="15" x="186.69" y="-504.85">R15</text>
<circle data-id="16" cx="384.00" cy="-623.30" r="10.00px"/>
<text data-id="16" x="384.00" y="-623.30">R16</text>
<circle data-id="17" cx="253.35" cy="-881.23" r="10.00px"/>
<text data-id="17" x="253.35" y="-881.23">R17</text>
<circle data-id="18" cx="635.41" cy="-184.15" r="10.00px"/>
<text data-id="18" x="635.41" y="-184.15">R18</text>
<circle data-id="19" cx="890.59" cy="-85.29" r="10.00px"/>
<text data-id="19" x="890.59" y="-85.29">R19</text>
<circle data-id="20" cx="851.43" cy="-231.62" r="10.00px"/>
<text data-id="20" x="851.43" y="-231.62">R20</text>
<circle data-id="21" cx="215.01" cy="-671.32" r="10.00px"/>
<text data-id="21" x="215.01" y="-671.32">R21</text>
<circle data-id="22" cx="529.24" cy="-434.75" r="10.00px"/>
<text data-id="22" x="529.24" y="-434.75">R22</text>
<circle data-id="23" cx="20.68" cy="-386.24" r="10.00px"/>
<text data-id="23" x="20.68" y="-386.24">R23</text>
<circle data-id="24" cx="413.64" cy="-634.42" r="10.00px"/>
<text data-id="24" x="413.64" y="-634.42">R24</text>
<circle data-id="25" cx="669.97" cy="-501.18" r="10.00px"/>
<text data-id="25" x="669.97" y="-501.18">R25</text>
<circle data-id="26" cx="485.98" cy="-922.31" r="10.00px"/>
<text data-id="26" x="485.98" y="-922.31">R26</text>
<circle data-id="27" cx="939.34" cy="-114.41" r="10.00px"/>
<text data-id="27" x="939.34" y="-114.41">R27</text>
<circle data-id="28" cx="603.42" cy="-487.63" r="10.00px"/>
<text data-id="28" x="603.42" y="-487.63">R28</text>
<circle data-id="29" cx="744.01" cy="-901.40" r="10.00px"/>
<text data-id="29" x="744.01" y="-901.40">R29</text>
<circle data-id="30" cx="196.07" cy="-418.66" r="10.00px"/>
<text data-id="30" x="196.07" y="-418.66">R30</text>
<circle data-id="31" cx="880.02" cy="-740.01" r="10.00px"/>
<text data-id="31" x="880.02" y="-740.01">R31</text>
<circle data-id="32" cx="562.90" cy="-308.21" r="10.00px"/>
<text data-id="32" x="562.90" y="-308.21">R32</text>
<circle data-id="33" cx="632.88" cy="-630.73" r="10.00px"/>
<text data-id="33" x="632.88" y="-630.73">R33</text>
<circle data-id="34" cx="309.11" cy="-792.04" r="10.00px"/>
<text data-id="34" x="309.11" y="-792.04">R34</text>
<circle data-id="35" cx="128.88" cy="-272.37" r="10.00px"/>
<text data-id="35" x="128.88" y="-272.37">R35</text>
<circle data-id="36" cx="972.07" cy="-402.36" r="10.00px"/>
<text data-id="36" x="972.07" y="-402.36">R36</text>
<circle data-id="37" cx="92.26" cy="-308.22" r="10.00px"/>
<text data-id="37" x="92.26" y="-308.22">R37</text>
<circle data-id="38" cx="941.89" cy="-873.17" r="10.00px"/>
<text data-id="38" x="941.89" y="-873.17">R38</text>
<circle data-id="39" cx="583.99" cy="-803.48" r="10.00px"/>
<text data-id="39" x="583.99" y="-803.48">R39</text>
<circle data-id="40" cx="715.86" cy="-20.80" r="10.00px"/>
<text data-id="40" x="715.86" y="-20.80">R40</text>
<circle data-id="41" cx="15.81" cy="-20.16" r="10.00px"/>
<text data-id="41" x="15.81" y="-20.16">R41</text>
<circle data-id="42" cx="622.60" cy="-25.91" r="10.00px"/>
<text data-id="42" x="622.60" y="-25.91">R42</text>
<circle data-id="43" cx="166.87" cy="-583.28" r="10.00px"/>
<text data-id="43" x="166.87" y="-583.28">R43</text>
<circle data-id="44" cx="963.03" cy="-558.27" r="10.00px"/>
<text data-id="44" x="963.03" y="-558.27">R44</text>
<circle data-id="45" cx="275.84" cy="-140.90" r="10.00px"/>
<text data-id="45" x="275.84" y="-140.90">R45</text>
<circle data-id="46" cx="537.91" cy="-878.44" r="10.00px"/>
<text data-id="46" x="537.91" y="-878.44">R46</text>
<circle data-id="47" cx="968.09" cy="-516.33" r="10.00px"/>
<text data-id="47" x="968.09" y="-516.33">R47</text>
<circle data-id="48" cx="290.37" cy="-844.86" r="10.00px"/>
<text data-id="48" x="290.37" y="-844.86">R48</text>
<circle data-id="49" cx="385.36" cy="-890.19" r="10.00px"/>
<text data-id="49" x="385.36" y="-890.19">R49</text>
<circle data-id="50" cx="73.52" cy="-19.69" r="10.00px"/>
<text data-id="50" x="73.52" y="-19.69">R50</text>
<circle data-id="51" cx="623.04" cy="-440.68" r="10.00px"/>
<text data-id="51" x="623.04" y="-440.68">R51</text>
<circle data-id="52" cx="837.23" cy="-202.64" r="10.00px"/>
<text data-id="52" x="837.23" y="-202.64">R52</text>
<circle data-id="53" cx="732.55" cy="-127.43" r="10.00px"/>
<text data-id="53" x="732.55" y="-127.43">R53</text>
<circle data-id="54" cx="303.12" cy="-68.78" r="10.00px"/>
<text data-id="54" x="303.12" y="-68.78">R54</text>
<circle data-id="55" cx="98.68" cy="-75.21" r="10.00px"/>
<text data-id="55" x="98.68" y="-75.21">R55</text>
<circle data-id="56" cx="103.62" cy="-842.76" r="10.00px"/>
<text data-id="56" x="103.62" y="-842.76">R56</text>
<circle data-id="57" cx="78.50" cy="-860.01" r="10.00px"/>
<text data-id="57" x="78.50" y="-860.01">R57</text>
<circle data-id="58" cx="557.41" cy="-742.31" r="10.00px"/>
<text data-id="58" x="557.41" y="-742.31">R58</text>
<circle data-id="59" cx="112.84" cy="-585.85" r="10.00px"/>
<text data-id="59" x="112.84" y="-585.85">R59</text>
<circle data-id="60" cx="253.87" cy="-635.33" r="10.00px"/>
<text data-id="60" x="253.87" y="-635.33">R60</text>
<circle data-id="61" cx="14.24" cy="-558.37" r="10.00px"/>
<text data-id="61" x="14.24" y="-558.37">R61</text>
<circle data-id="62" cx="310.62" cy="-932.75" r="10.00px"/>
<text data-id="62" x="310.62" y="-932.75">R62</text>
<circle data-id="63" cx="582.46" cy="-468.77" r="10.00px"/>
<text data-id="63" x="582.46" y="-468.77">R63</text>
<circle data-id="64" cx="707.35" cy="-666.07" r="10.00px"/>
<text data-id="64" x="707.35" y="-666.07">R64</text>
<circle data-id="65" cx="898.09" cy="-973.77" r="10.00px"/>
<text data-id="65" x="898.09" y="-973.77">R65</text>
<circle data-id="66" cx="203.13" cy="-711.35" r="10.00px"/>
<text data-id="66" x="203.13" y="-711.35">R66</text>
<circle data-id="67" cx="342.86" cy="-641.07" r="10.00px"/>
<text data-id="67" x="342.86" y="-641.07">R67</text>
<circle data-id="68" cx="249.27" cy="-221.18" r="10.00px"/>
<text data-id="68" x="249.27" y="-221.18">R68</text>
<circle data-id="69" cx="468.42" cy="-203.59" r="10.00px"/>
<text data-id="69" x="468.42" y="-203.59">R69</text>
<circle data-id="70" cx="251.20" cy="-19.95" r="10.00px"/>
<text data-id="70" x="251.20" y="-19.95">R70</text>
<circle data-id="71" cx="311.18" cy="-388.92" r="10.00px"/>
<text data-id="71" x="311.18" y="-388.92">R71</text>
<circle data-id="72" cx="338.91" cy="-577.99" r="10.00px"/>
<text data-id="72" x="338.91" y="-577.99">R72</text>
<circle data-id="73" cx="967.89" cy="-633.99" r="10.00px"/>
<text data-id="73" x="967.89" y="-633.99">R73</text>
<circle data-id="74" cx="862.88" cy="-442.61" r="10.00px"/>
<text data-id="74" x="862.88" y="-442.61">R74</text>
<circle data-id="75" cx="360.24" cy="-796.71" r="10.00px"/>
<text data-id="75" x="360.24" y="-796.71">R75</text>
<circle data-id="76" cx="826.68" cy="-549.05" r="10.00px"/>
<text data-id="76" x="826.68" y="-549.05">R76</text>
<circle data-id="77" cx="277.86" cy="-453.89" r="10.00px"/>
<text data-id="77" x="277.86" y="-453.89">R77</text>
<circle data-id="78" cx="454.85" cy="-403.74" r="10.00px"/>
<text data-id="78" x="454.85" y="-403.74">R78</text>
<circle data-id="79" cx="559.91" cy="-952.49" r="10.00px"/>
<text data-id="79" x="559.91" y="-952.49">R79</text>
<circle data-id="80" cx="615.48" cy="-134.16" r="10.00px"/>
<text data-id="80" x="615.48" y="-134.16">R80</text>
<circle data-id="81" cx="131.96" cy="-510.86" r="10.00px"/>
<text data-id="81" x="131.96" y="-510.86">R81</text>
<circle data-id="82" cx="684.32" cy="-915.04" r="10.00px"/>
<text data-id="82" x="684.32" y="-915.04">R82</text>
<circle data-id="83" cx="72.32" cy="-132.08" r="10.00px"/>
<text data-id="83" x="72.32" y="-132.08">R83</text>
<circle data-id="84" cx="538.54" cy="-496.41" r="10.00px"/>
<text data-id="84" x="538.54" y="-496.41">R84</text>
<circle data-id="85" cx="513.96" cy="-207.37" r="10.00px"/>
<text data-id="85" x="513.96" y="-207.37">R85</text>
<circle data-id="86" cx="191.00" cy="-360.09" r="10.00px"/>
<text data-id="86" x="191.00" y="-360.09">R86</text>
<circle data-id="87" cx="733.59" cy="-458.95" r="10.00px"/>
<text data-id="87" x="733.59" y="-458.95">R87</text>
<circle data-id="88" cx="407.98" cy="-119.25" r="10.00px"/>
<text data-id="88" x="407.98" y="-119.25">R88</text>
<circle data-id="89" cx="385.82" cy="-858.76" r="10.00px"/>
<text data-id="89" x="385.82" y="-858.76">R89</text>
<circle data-id="90" cx="288.80" cy="-612.30" r="10.00px"/>
<text data-id="90" x="288.80" y="-612.30">R90</text>
<circle data-id="91" cx="775.79" cy="-659.12" r="10.00px"/>
<text data-id="91" x="775.79" y="-659.12">R91</text>
<circle data-id="92" cx="633.04" cy="-899.14" r="10.00px"/>
<text data-id="92" x="633.04" y="-899.14">R92</text>
<circle data-id="93" cx="35.81" cy="-697.83" r="10.00px"/>
<text data-id="93" x="35.81" y="-697.83">R93</text>
<circle data-id="94" cx="392.54" cy="-454.90" r="10.00px"/>
<text data-id="94" x="392.54" y="-454.90">R94</text>
</svg>
