<svg id="topo" viewBox="16.30 -324.59 270.86 322.70" xmlns="http://www.w3.org/2000/svg">
<style>#topo path {fill: none; stroke: grey; stroke-width: 5.0000px;} #topo circle {fill: lightblue; stroke: none; stroke-width: 0.3px; vector-effect: non-scaling-stroke; r: 10.0000px;} #topo text {fill: black; stroke: none; font-size: 15.0000px; font-family: sans-serif; text-anchor:middle; transform: translateY(0.3em);} #topo path.country {fill: lightgrey; stroke: black; stroke-width: 1px; vector-effect: non-scaling-stroke; visibility: visible;} #topo path.selection {fill: none; stroke: red; stroke-width: 1px; vector-effect: non-scaling-stroke; visibility: visible;} #topo path.utilization {visibility: hidden;}</style>
<path data-id="0-1" d="M41.59,-309.92,102.72,-230.31"/>
<path data-id="0-6" d="M41.59,-309.92,28.61,-211.66"/>
<path data-id="1-6" d="M102.72,-230.31,28.61,-211.66"/>
<path data-id="1-9" d="M102.72,-230.31,139.08,-217.09"/>
<path data-id="2-3" d="M228.70,-134.29,274.85,-193.12"/>
<path data-id="2-4" d="M228.70,-134.29,177.69,-165.46"/>
<path data-id="2-8" d="M228.70,-134.29,257.25,-124.21"/>
<path data-id="3-8" d="M274.85,-193.12,257.25,-124.21"/>
<path data-id="4-7" d="M177.69,-165.46,35.02,-47.88"/>
<path data-id="4-9" d="M177.69,-165.46,139.08,-217.09"/>
<path data-id="5-7" d="M241.48,-16.55,35.02,-47.88"/>
<path data-id="5-8" d="M241.48,-16.55,257.25,-124.21"/>
<path data-id="6-7" d="M28.61,-211.66,35.02,-47.88"/>
<circle data-id="0" cx="41.59" cy="-309.92" r="10.00px"/>
<text data-id="0" x="41.59" y="-309.92">R0</text>
<circle data-id="1" cx="102.72" cy="-230.31" r="10.00px"/>
<text data-id="1" x="102.72" y="-230.31">R1</text>
<circle data-id="2" cx="228.70" cy="-134.29" r="10.00px"/>
<text data-id="2" x="228.70" y="-134.29">R2</text>
<circle data-id="3" cx="274.85" cy="-193.12" r="10.00px"/>
<text data-id="3" x="274.85" y="-193.12">R3</text>
<circle data-id="4" cx="177.69" cy="-165.46" r="10.00px"/>
<text data-id="4" x="177.69" y="-165.46">R4</text>
<circle data-id="5" cx="241.48" cy="-16.55" r="10.00px"/>
<text data-id="5" x="241.48" y="-16.55">R5</text>
<circle data-id="6" cx="28.61" cy="-211.66" r="10.00px"/>
<text data-id="6" x="28.61" y="-211.66">R6</text>
<circle data-id="7" cx="35.02" cy="-47.88" r="10.00px"/>
<text data-id="7" x="35.02" y="-47.88">R7</text>
<circle data-id="8" cx="257.25" cy="-124.21" r="10.00px"/>
<text data-id="8" x="257.25" y="-124.21">R8</text>
<circle data-id="9" cx="139.08" cy="-217.09" r="10.00px"/>
<text data-id="9" x="139.08" y="-217.09">R9</text>
</svg>
