<svg id="topo" viewBox="0.38 -326.05 308.10 340.90" xmlns="http://www.w3.org/2000/svg">
<style>#topo path {fill: none; stroke: grey; stroke-width: 5.0000px;} #topo circle {fill: lightblue; stroke: none; stroke-width: 0.3px; vector-effect: non-scaling-stroke; r: 10.0000px;} #topo text {fill: black; stroke: none; font-size: 15.0000px; font-family: sans-serif; text-anchor:middle; transform: translateY(0.3em);} #topo path.country {fill: lightgrey; stroke: black; stroke-width: 1px; vector-effect: non-scaling-stroke; visibility: visible;} #topo path.selection {fill: none; stroke: red; stroke-width: 1px; vector-effect: non-scaling-stroke; visibility: visible;} #topo path.utilization {visibility: hidden;}</style>
<path data-id="0-4" d="M277.23,-0.64,294.48,-65.67"/>
<path data-id="1-2" d="M222.34,-310.55,97.77,-260.30"/>
<path data-id="1-7" d="M222.34,-310.55,200.05,-133.66"/>
<path data-id="2-3" d="M97.77,-260.30,125.53,-191.28"/>
<path data-id="2-5" d="M97.77,-260.30,55.84,-251.65"/>
<path data-id="3-7" d="M125.53,-191.28,200.05,-133.66"/>
<path data-id="4-8" d="M294.48,-65.67,291.70,-110.03"/>
<path data-id="5-6" d="M55.84,-251.65,24.18,-295.17"/>
<path data-id="5-9" d="M55.84,-251.65,14.38,-250.75"/>
<path data-id="6-9" d="M24.18,-295.17,14.38,-250.75"/>
<path data-id="7-8" d="M200.05,-133.66,291.70,-110.03"/>
<circle data-id="0" cx="277.23" cy="-0.64" r="10.00px"/>
<text data-id="0" x="277.23" y="-0.64">R0</text>
<circle data-id="1" cx="222.34" cy="-310.55" r="10.00px"/>
<text data-id="1" x="222.34" y="-310.55">R1</text>
<circle data-id="2" cx="97.77" cy="-260.30" r="10.00px"/>
<text data-id="2" x="97.77" y="-260.30">R2</text>
<circle data-id="3" cx="125.53" cy="-191.28" r="10.00px"/>
<text data-id="3" x="125.53" y="-191.28">R3</text>
<circle data-id="4" cx="294.48" cy="-65.67" r="10.00px"/>
<text data-id="4" x="294.48" y="-65.67">R4</text>
<circle data-id="5" cx="55.84" cy="-251.65" r="10.00px"/>
<text data-id="5" x="55.84" y="-251.65">R5</text>
<circle data-id="6" cx="24.18" cy="-295.17" r="10.00px"/>
<text data-id="6" x="24.18" y="-295.17">R6</text>
<circle data-id="7" cx="200.05" cy="-133.66" r="10.00px"/>
<text data-id="7" x="200.05" y="-133.66">R7</text>
<circle data-id="8" cx="291.70" cy="-110.03" r="10.00px"/>
<text data-id="8" x="291.70" y="-110.03">R8</text>
<circle data-id="9" cx="14.38" cy="-250.75" r="10.00px"/>
<text data-id="9" x="14.38" y="-250.75">R9</text>
</svg>
