<svg id="topo" viewBox="-34.41 -796.94 842.53 814.62" xmlns="http://www.w3.org/2000/svg">
<style>#topo path {fill: none; stroke: grey; stroke-width: 5.0000px;} #topo circle {fill: lightblue; stroke: none; stroke-width: 0.3px; vector-effect: non-scaling-stroke; r: 10.0000px;} #topo text {fill: black; stroke: none; font-size: 15.0000px; font-family: sans-serif; text-anchor:middle; transform: translateY(0.3em);} #topo path.country {fill: lightgrey; stroke: black; stroke-width: 1px; vector-effect: non-scaling-stroke; visibility: visible;} #topo path.selection {fill: none; stroke: red; stroke-width: 1px; vector-effect: non-scaling-stroke; visibility: visible;} #topo path.utilization {visibility: hidden;}</style>
<path data-id="0-6" d="M37.79,-592.41,93.44,-587.42"/>
<path data-id="0-14" d="M37.79,-592.41,4.00,-644.13"/>
<path data-id="0-18" d="M37.79,-592.41,55.51,-639.99"/>
<path data-id="0-25" d="M37.79,-592.41,25.43,-542.79"/>
<path data-id="1-10" d="M372.97,-335.32,522.96,-381.69"/>
<path data-id="1-29" d="M372.97,-335.32,348.86,-286.89"/>
<path data-id="1-50" d="M372.97,-335.32,255.46,-348.38"/>
<path data-id="1-59" d="M372.97,-335.32,356.77,-453.63"/>
<path data-id="2-35" d="M254.84,-79.50,233.81,-100.27"/>
<path data-id="2-45" d="M254.84,-79.50,262.05,-22.87"/>
<path data-id="2-48" d="M254.84,-79.50,301.74,-28.62"/>
<path data-id="2-51" d="M254.84,-79.50,315.28,-91.23"/>
<path data-id="3-26" d="M480.11,-726.54,620.42,-637.10"/>
<path data-id="3-27" d="M480.11,-726.54,467.55,-755.19"/>
<path data-id="3-31" d="M480.11,-726.54,430.23,-704.71"/>
<path data-id="3-58" d="M480.11,-726.54,608.01,-747.26"/>
<path data-id="4-8" d="M90.13,-415.57,61.14,-435.53"/>
<path data-id="4-21" d="M90.13,-415.57,36.81,-391.01"/>
<path data-id="4-50" d="M90.13,-415.57,255.46,-348.38"/>
<path data-id="4-56" d="M90.13,-415.57,135.75,-470.07"/>
<path data-id="5-13" d="M675.47,-749.82,741.54,-621.22"/>
<path data-id="5-26" d="M675.47,-749.82,620.42,-637.10"/>
<path data-id="5-58" d="M675.47,-749.82,608.01,-747.26"/>
<path data-id="6-18" d="M93.44,-587.42,55.51,-639.99"/>
<path data-id="6-38" d="M93.44,-587.42,135.58,-637.95"/>
<path data-id="6-43" d="M93.44,-587.42,68.75,-531.64"/>
<path data-id="6-55" d="M93.44,-587.42,178.45,-588.20"/>
<path data-id="7-9" d="M480.26,-25.48,509.37,-205.15"/>
<path data-id="7-17" d="M480.26,-25.48,653.60,-28.17"/>
<path data-id="7-44" d="M480.26,-25.48,643.37,-73.91"/>
<path data-id="7-48" d="M480.26,-25.48,301.74,-28.62"/>
<path data-id="7-51" d="M480.26,-25.48,315.28,-91.23"/>
<path data-id="8-21" d="M61.14,-435.53,36.81,-391.01"/>
<path data-id="8-43" d="M61.14,-435.53,68.75,-531.64"/>
<path data-id="9-10" d="M509.37,-205.15,522.96,-381.69"/>
<path data-id="9-11" d="M509.37,-205.15,665.48,-283.73"/>
<path data-id="9-32" d="M509.37,-205.15,436.59,-237.44"/>
<path data-id="9-44" d="M509.37,-205.15,643.37,-73.91"/>
<path data-id="10-11" d="M522.96,-381.69,665.48,-283.73"/>
<path data-id="10-22" d="M522.96,-381.69,402.76,-462.76"/>
<path data-id="10-32" d="M522.96,-381.69,436.59,-237.44"/>
<path data-id="10-36" d="M522.96,-381.69,569.18,-422.92"/>
<path data-id="11-19" d="M665.48,-283.73,678.79,-312.04"/>
<path data-id="11-52" d="M665.48,-283.73,691.86,-99.92"/>
<path data-id="12-18" d="M62.90,-702.86,55.51,-639.99"/>
<path data-id="12-53" d="M62.90,-702.86,110.66,-713.05"/>
<path data-id="13-26" d="M741.54,-621.22,620.42,-637.10"/>
<path data-id="13-40" d="M741.54,-621.22,728.36,-586.50"/>
<path data-id="14-18" d="M4.00,-644.13,55.51,-639.99"/>
<path data-id="15-29" d="M265.33,-290.28,348.86,-286.89"/>
<path data-id="15-37" d="M265.33,-290.28,297.33,-237.79"/>
<path data-id="15-50" d="M265.33,-290.28,255.46,-348.38"/>
<path data-id="16-23" d="M337.22,-707.24,281.82,-651.59"/>
<path data-id="16-31" d="M337.22,-707.24,430.23,-704.71"/>
<path data-id="16-39" d="M337.22,-707.24,251.51,-759.92"/>
<path data-id="17-44" d="M653.60,-28.17,643.37,-73.91"/>
<path data-id="18-38" d="M55.51,-639.99,135.58,-637.95"/>
<path data-id="19-34" d="M678.79,-312.04,737.96,-328.85"/>
<path data-id="19-36" d="M678.79,-312.04,569.18,-422.92"/>
<path data-id="19-42" d="M678.79,-312.04,667.92,-448.52"/>
<path data-id="20-28" d="M83.19,-19.35,71.71,-72.90"/>
<path data-id="20-49" d="M83.19,-19.35,123.61,-49.80"/>
<path data-id="21-33" d="M36.81,-391.01,3.88,-304.62"/>
<path data-id="22-30" d="M402.76,-462.76,387.81,-489.92"/>
<path data-id="22-59" d="M402.76,-462.76,356.77,-453.63"/>
<path data-id="23-39" d="M281.82,-651.59,251.51,-759.92"/>
<path data-id="23-41" d="M281.82,-651.59,403.22,-512.45"/>
<path data-id="23-54" d="M281.82,-651.59,164.71,-654.81"/>
<path data-id="23-55" d="M281.82,-651.59,178.45,-588.20"/>
<path data-id="24-50" d="M190.30,-500.87,255.46,-348.38"/>
<path data-id="24-55" d="M190.30,-500.87,178.45,-588.20"/>
<path data-id="24-56" d="M190.30,-500.87,135.75,-470.07"/>
<path data-id="24-59" d="M190.30,-500.87,356.77,-453.63"/>
<path data-id="25-43" d="M25.43,-542.79,68.75,-531.64"/>
<path data-id="26-40" d="M620.42,-637.10,728.36,-586.50"/>
<path data-id="26-41" d="M620.42,-637.10,403.22,-512.45"/>
<path data-id="26-47" d="M620.42,-637.10,694.44,-538.10"/>
<path data-id="26-58" d="M620.42,-637.10,608.01,-747.26"/>
<path data-id="27-31" d="M467.55,-755.19,430.23,-704.71"/>
<path data-id="28-33" d="M71.71,-72.90,3.88,-304.62"/>
<path data-id="28-49" d="M71.71,-72.90,123.61,-49.80"/>
<path data-id="29-32" d="M348.86,-286.89,436.59,-237.44"/>
<path data-id="29-37" d="M348.86,-286.89,297.33,-237.79"/>
<path data-id="30-41" d="M387.81,-489.92,403.22,-512.45"/>
<path data-id="30-59" d="M387.81,-489.92,356.77,-453.63"/>
<path data-id="31-41" d="M430.23,-704.71,403.22,-512.45"/>
<path data-id="32-51" d="M436.59,-237.44,315.28,-91.23"/>
<path data-id="34-42" d="M737.96,-328.85,667.92,-448.52"/>
<path data-id="34-57" d="M737.96,-328.85,769.82,-443.73"/>
<path data-id="35-37" d="M233.81,-100.27,297.33,-237.79"/>
<path data-id="35-46" d="M233.81,-100.27,192.31,-76.87"/>
<path data-id="36-42" d="M569.18,-422.92,667.92,-448.52"/>
<path data-id="37-51" d="M297.33,-237.79,315.28,-91.23"/>
<path data-id="38-53" d="M135.58,-637.95,110.66,-713.05"/>
<path data-id="38-54" d="M135.58,-637.95,164.71,-654.81"/>
<path data-id="38-55" d="M135.58,-637.95,178.45,-588.20"/>
<path data-id="39-53" d="M251.51,-759.92,110.66,-713.05"/>
<path data-id="39-54" d="M251.51,-759.92,164.71,-654.81"/>
<path data-id="40-47" d="M728.36,-586.50,694.44,-538.10"/>
<path data-id="42-47" d="M667.92,-448.52,694.44,-538.10"/>
<path data-id="42-57" d="M667.92,-448.52,769.82,-443.73"/>
<path data-id="43-56" d="M68.75,-531.64,135.75,-470.07"/>
<path data-id="44-52" d="M643.37,-73.91,691.86,-99.92"/>
<path data-id="45-48" d="M262.05,-22.87,301.74,-28.62"/>
<path data-id="46-49" d="M192.31,-76.87,123.61,-49.80"/>
<path data-id="47-57" d="M694.44,-538.10,769.82,-443.73"/>
<path data-id="48-51" d="M301.74,-28.62,315.28,-91.23"/>
<path data-id="50-56" d="M255.46,-348.38,135.75,-470.07"/>
<path data-id="50-59" d="M255.46,-348.38,356.77,-453.63"/>
<path data-id="53-54" d="M110.66,-713.05,164.71,-654.81"/>
<path data-id="54-55" d="M164.71,-654.81,178.45,-588.20"/>
<circle data-id="0" cx="37.79" cy="-592.41" r="10.00px"/>
<text data-id="0" x="37.79" y="-592.41">R0</text>
<circle data-id="1" cx="372.97" cy="-335.32" r="10.00px"/>
<text data-id="1" x="372.97" y="-335.32">R1</text>
<circle data-id="2" cx="254.84" cy="-79.50" r="10.00px"/>
<text data-id="2" x="254.84" y="-79.50">R2</text>
<circle data-id="3" cx="480.11" cy="-726.54" r="10.00px"/>
<text data-id="3" x="480.11" y="-726.54">R3</text>
<circle data-id="4" cx="90.13" cy="-415.57" r="10.00px"/>
<text data-id="4" x="90.13" y="-415.57">R4</text>
<circle data-id="5" cx="675.47" cy="-749.82" r="10.00px"/>
<text data-id="5" x="675.47" y="-749.82">R5</text>
<circle data-id="6" cx="93.44" cy="-587.42" r="10.00px"/>
<text data-id="6" x="93.44" y="-587.42">R6</text>
<circle data-id="7" cx="480.26" cy="-25.48" r="10.00px"/>
<text data-id="7" x="480.26" y="-25.48">R7</text>
<circle data-id="8" cx="61.14" cy="-435.53" r="10.00px"/>
<text data-id="8" x="61.14" y="-435.53">R8</text>
<circle data-id="9" cx="509.37" cy="-205.15" r="10.00px"/>
<text data-id="9" x="509.37" y="-205.15">R9</text>
<circle data-id="10" cx="522.96" cy="-381.69" r="10.00px"/>
<text data-id="10" x="522.96" y="-381.69">R10</text>
<circle data-id="11" cx="665.48" cy="-283.73" r="10.00px"/>
<text data-id="11" x="665.48" y="-283.73">R11</text>
<circle data-id="12" cx="62.90" cy="-702.86" r="10.00px"/>
<text data-id="12" x="62.90" y="-702.86">R12</text>
<circle data-id="13" cx="741.54" cy="-621.22" r="10.00px"/>
<text data-id="13" x="741.54" y="-621.22">R13</text>
<circle data-id="14" cx="4.00" cy="-644.13" r="10.00px"/>
<text data-id="14" x="4.00" y="-644.13">R14</text>
<circle data-id="15" cx="265.33" cy="-290.28" r="10.00px"/>
<text data-id="15" x="265.33" y="-290.28">R15</text>
<circle data-id="16" cx="337.22" cy="-707.24" r="10.00px"/>
<text data-id="16" x="337.22" y="-707.24">R16</text>
<circle data-id="17" cx="653.60" cy="-28.17" r="10.00px"/>
<text data-id="17" x="653.60" y="-28.17">R17</text>
<circle data-id="18" cx="55.51" cy="-639.99" r="10.00px"/>
<text data-id="18" x="55.51" y="-639.99">R18</text>
<circle data-id="19" cx="678.79" cy="-312.04" r="10.00px"/>
<text data-id="19" x="678.79" y="-312.04">R19</text>
<circle data-id="20" cx="83.19" cy="-19.35" r="10.00px"/>
<text data-id="20" x="83.19" y="-19.35">R20</text>
<circle data-id="21" cx="36.81" cy="-391.01" r="10.00px"/>
<text data-id="21" x="36.81" y="-391.01">R21</text>
<circle data-id="22" cx="402.76" cy="-462.76" r="10.00px"/>
<text data-id="22" x="402.76" y="-462.76">R22</text>
<circle data-id="23" cx="281.82" cy="-651.59" r="10.00px"/>
<text data-id="23" x="281.82" y="-651.59">R23</text>
<circle data-id="24" cx="190.30" cy="-500.87" r="10.00px"/>
<text data-id="24" x="190.30" y="-500.87">R24</text>
<circle data-id="25" cx="25.43" cy="-542.79" r="10.00px"/>
<text data-id="25" x="25.43" y="-542.79">R25</text>
<circle data-id="26" cx="620.42" cy="-637.10" r="10.00px"/>
<text data-id="26" x="620.42" y="-637.10">R26</text>
<circle data-id="27" cx="467.55" cy="-755.19" r="10.00px"/>
<text data-id="27" x="467.55" y="-755.19">R27</text>
<circle data-id="28" cx="71.71" cy="-72.90" r="10.00px"/>
<text data-id="28" x="71.71" y="-72.90">R28</text>
<circle data-id="29" cx="348.86" cy="-286.89" r="10.00px"/>
<text data-id="29" x="348.86" y="-286.89">R29</text>
<circle data-id="30" cx="387.81" cy="-489.92" r="10.00px"/>
<text data-id="30" x="387.81" y="-489.92">R30</text>
<circle data-id="31" cx="430.23" cy="-704.71" r="10.00px"/>
<text data-id="31" x="430.23" y="-704.71">R31</text>
<circle data-id="32" cx="436.59" cy="-237.44" r="10.00px"/>
<text data-id="32" x="436.59" y="-237.44">R32</text>
<circle data-id="33" cx="3.88" cy="-304.62" r="10.00px"/>
<text data-id="33" x="3.88" y="-304.62">R33</text>
<circle data-id="34" cx="737.96" cy="-328.85" r="10.00px"/>
<text data-id="34" x="737.96" y="-328.85">R34</text>
<circle data-id="35" cx="233.81" cy="-100.27" r="10.00px"/>
<text data-id="35" x="233.81" y="-100.27">R35</text>
<circle data-id="36" cx="569.18" cy="-422.92" r="10.00px"/>
<text data-id="36" x="569.18" y="-422.92">R36</text>
<circle data-id="37" cx="297.33" cy="-237.79" r="10.00px"/>
<text data-id="37" x="297.33" y="-237.79">R37</text>
<circle data-id="38" cx="135.58" cy="-637.95" r="10.00px"/>
<text data-id="38" x="135.58" y="-637.95">R38</text>
<circle data-id="39" cx="251.51" cy="-759.92" r="10.00px"/>
<text data-id="39" x="251.51" y="-759.92">R39</text>
<circle data-id="40" cx="728.36" cy="-586.50" r="10.00px"/>
<text data-id="40" x="728.36" y="-586.50">R40</text>
<circle data-id="41" cx="403.22" cy="-512.45" r="10.00px"/>
<text data-id="41" x="403.22" y="-512.45">R41</text>
<circle data-id="42" cx="667.92" cy="-448.52" r="10.00px"/>
<text data-id="42" x="667.92" y="-448.52">R42</text>
<circle data-id="43" cx="68.75" cy="-531.64" r="10.00px"/>
<text data-id="43" x="68.75" y="-531.64">R43</text>
<circle data-id="44" cx="643.37" cy="-73.91" r="10.00px"/>
<text data-id="44" x="643.37" y="-73.91">R44</text>
<circle data-id="45" cx="262.05" cy="-22.87" r="10.00px"/>
<text data-id="45" x="262.05" y="-22.87">R45</text>
<circle data-id="46" cx="192.31" cy="-76.87" r="10.00px"/>
<text data-id="46" x="192.31" y="-76.87">R46</text>
<circle data-id="47" cx="694.44" cy="-538.10" r="10.00px"/>
<text data-id="47" x="694.44" y="-538.10">R47</text>
<circle data-id="48" cx="301.74" cy="-28.62" r="10.00px"/>
<text data-id="48" x="301.74" y="-28.62">R48</text>
<circle data-id="49" cx="123.61" cy="-49.80" r="10.00px"/>
<text data-id="49" x="123.61" y="-49.80">R49</text>
<circle data-id="50" cx="255.46" cy="-348.38" r="10.00px"/>
<text data-id="50" x="255.46" y="-348.38">R50</text>
<circle data-id="51" cx="315.28" cy="-91.23" r="10.00px"/>
<text data-id="51" x="315.28" y="-91.23">R51</text>
<circle data-id="52" cx="691.86" cy="-99.92" r="10.00px"/>
<text data-id="52" x="691.86" y="-99.92">R52</text>
<circle data-id="53" cx="110.66" cy="-713.05" r="10.00px"/>
<text data-id="53" x="110.66" y="-713.05">R53</text>
<circle data-id="54" cx="164.71" cy="-654.81" r="10.00px"/>
<text data-id="54" x="164.71" y="-654.81">R54</text>
<circle data-id="55" cx="178.45" cy="-588.20" r="10.00px"/>
<text data-id="55" x="178.45" y="-588.20">R55</text>
<circle data-id="56" cx="135.75" cy="-470.07" r="10.00px"/>
<text data-id="56" x="135.75" y="-470.07">R56</text>
<circle data-id="57" cx="769.82" cy="-443.73" r="10.00px"/>
<text data-id="57" x="769.82" y="-443.73">R57</text>
<circle data-id="58" cx="608.01" cy="-747.26" r="10.00px"/>
<text data-id="58" x="608.01" y="-747.26">R58</text>
<circle data-id="59" cx="356.77" cy="-453.63" r="10.00px"/>
<text data-id="59" x="356.77" y="-453.63">R59</text>
</svg>
