<svg id="topo" viewBox="7.24 -799.56 801.93 825.40" xmlns="http://www.w3.org/2000/svg">
<style>#topo path {fill: none; stroke: grey; stroke-width: 5.0000px;} #topo circle {fill: lightblue; stroke: none; stroke-width: 0.3px; vector-effect: non-scaling-stroke; r: 10.0000px;} #topo text {fill: black; stroke: none; font-size: 15.0000px; font-family: sans-serif; text-anchor:middle; transform: translateY(0.3em);} #topo path.country {fill: lightgrey; stroke: black; stroke-width: 1px; vector-effect: non-scaling-stroke; visibility: visible;} #topo path.selection {fill: none; stroke: red; stroke-width: 1px; vector-effect: non-scaling-stroke; visibility: visible;} #topo path.utilization {visibility: hidden;}</style>
<path data-id="0-21" d="M235.86,-632.90,285.69,-664.95"/>
<path data-id="0-52" d="M235.86,-632.90,168.54,-536.64"/>
<path data-id="0-56" d="M235.86,-632.90,239.86,-676.58"/>
<path data-id="0-57" d="M235.86,-632.90,43.69,-658.90"/>
<path data-id="1-7" d="M420.79,-390.09,472.45,-371.22"/>
<path data-id="1-33" d="M420.79,-390.09,366.10,-478.84"/>
<path data-id="1-43" d="M420.79,-390.09,332.49,-327.30"/>
<path data-id="2-19" d="M266.42,-419.46,198.23,-452.64"/>
<path data-id="2-26" d="M266.42,-419.46,292.10,-375.80"/>
<path data-id="2-36" d="M266.42,-419.46,147.03,-315.66"/>
<path data-id="2-47" d="M266.42,-419.46,333.63,-460.27"/>
<path data-id="3-13" d="M126.95,-155.43,193.35,-156.70"/>
<path data-id="3-30" d="M126.95,-155.43,87.87,-109.80"/>
<path data-id="4-43" d="M333.91,-275.37,332.49,-327.30"/>
<path data-id="4-55" d="M333.91,-275.37,317.30,-256.47"/>
<path data-id="5-35" d="M735.32,-737.13,714.67,-762.04"/>
<path data-id="5-38" d="M735.32,-737.13,772.71,-714.45"/>
<path data-id="5-58" d="M735.32,-737.13,703.13,-696.55"/>
<path data-id="6-21" d="M392.15,-760.16,285.69,-664.95"/>
<path data-id="6-50" d="M392.15,-760.16,411.79,-693.82"/>
<path data-id="7-48" d="M472.45,-371.22,559.22,-329.40"/>
<path data-id="7-49" d="M472.45,-371.22,555.35,-574.85"/>
<path data-id="8-9" d="M761.06,-269.41,686.83,-428.79"/>
<path data-id="8-40" d="M761.06,-269.41,709.54,-241.82"/>
<path data-id="9-46" d="M686.83,-428.79,661.98,-489.13"/>
<path data-id="9-48" d="M686.83,-428.79,559.22,-329.40"/>
<path data-id="10-22" d="M649.26,-621.53,714.34,-541.73"/>
<path data-id="10-31" d="M649.26,-621.53,768.74,-591.88"/>
<path data-id="10-34" d="M649.26,-621.53,619.02,-708.93"/>
<path data-id="10-42" d="M649.26,-621.53,565.56,-623.91"/>
<path data-id="10-54" d="M649.26,-621.53,655.63,-713.99"/>
<path data-id="10-58" d="M649.26,-621.53,703.13,-696.55"/>
<path data-id="11-27" d="M665.63,-231.63,586.47,-186.68"/>
<path data-id="11-29" d="M665.63,-231.63,621.78,-145.88"/>
<path data-id="11-40" d="M665.63,-231.63,709.54,-241.82"/>
<path data-id="11-48" d="M665.63,-231.63,559.22,-329.40"/>
<path data-id="12-20" d="M644.68,-34.34,689.23,-49.60"/>
<path data-id="12-39" d="M644.68,-34.34,622.31,-60.92"/>
<path data-id="13-14" d="M193.35,-156.70,200.06,-241.92"/>
<path data-id="13-23" d="M193.35,-156.70,203.22,-78.36"/>
<path data-id="14-26" d="M200.06,-241.92,292.10,-375.80"/>
<path data-id="14-36" d="M200.06,-241.92,147.03,-315.66"/>
<path data-id="14-55" d="M200.06,-241.92,317.30,-256.47"/>
<path data-id="15-17" d="M397.05,-96.87,496.60,-124.89"/>
<path data-id="15-18" d="M397.05,-96.87,382.99,-42.11"/>
<path data-id="15-55" d="M397.05,-96.87,317.30,-256.47"/>
<path data-id="16-30" d="M133.84,-18.43,87.87,-109.80"/>
<path data-id="16-32" d="M133.84,-18.43,189.82,-11.68"/>
<path data-id="17-44" d="M496.60,-124.89,542.55,-145.09"/>
<path data-id="18-28" d="M382.99,-42.11,334.07,-32.30"/>
<path data-id="19-36" d="M198.23,-452.64,147.03,-315.66"/>
<path data-id="19-51" d="M198.23,-452.64,96.80,-353.02"/>
<path data-id="19-52" d="M198.23,-452.64,168.54,-536.64"/>
<path data-id="20-24" d="M689.23,-49.60,719.49,-32.28"/>
<path data-id="20-37" d="M689.23,-49.60,751.66,-136.32"/>
<path data-id="21-45" d="M285.69,-664.95,342.49,-597.75"/>
<path data-id="21-50" d="M285.69,-664.95,411.79,-693.82"/>
<path data-id="21-56" d="M285.69,-664.95,239.86,-676.58"/>
<path data-id="22-31" d="M714.34,-541.73,768.74,-591.88"/>
<path data-id="22-46" d="M714.34,-541.73,661.98,-489.13"/>
<path data-id="23-28" d="M203.22,-78.36,334.07,-32.30"/>
<path data-id="23-30" d="M203.22,-78.36,87.87,-109.80"/>
<path data-id="23-32" d="M203.22,-78.36,189.82,-11.68"/>
<path data-id="24-37" d="M719.49,-32.28,751.66,-136.32"/>
<path data-id="25-33" d="M385.28,-539.72,366.10,-478.84"/>
<path data-id="25-45" d="M385.28,-539.72,342.49,-597.75"/>
<path data-id="25-49" d="M385.28,-539.72,555.35,-574.85"/>
<path data-id="26-36" d="M292.10,-375.80,147.03,-315.66"/>
<path data-id="26-43" d="M292.10,-375.80,332.49,-327.30"/>
<path data-id="27-29" d="M586.47,-186.68,621.78,-145.88"/>
<path data-id="27-44" d="M586.47,-186.68,542.55,-145.09"/>
<path data-id="27-48" d="M586.47,-186.68,559.22,-329.40"/>
<path data-id="28-32" d="M334.07,-32.30,189.82,-11.68"/>
<path data-id="29-37" d="M621.78,-145.88,751.66,-136.32"/>
<path data-id="29-39" d="M621.78,-145.88,622.31,-60.92"/>
<path data-id="29-44" d="M621.78,-145.88,542.55,-145.09"/>
<path data-id="31-38" d="M768.74,-591.88,772.71,-714.45"/>
<path data-id="31-58" d="M768.74,-591.88,703.13,-696.55"/>
<path data-id="33-47" d="M366.10,-478.84,333.63,-460.27"/>
<path data-id="34-53" d="M619.02,-708.93,583.49,-702.12"/>
<path data-id="34-54" d="M619.02,-708.93,655.63,-713.99"/>
<path data-id="35-59" d="M714.67,-762.04,667.01,-757.29"/>
<path data-id="36-51" d="M147.03,-315.66,96.80,-353.02"/>
<path data-id="37-40" d="M751.66,-136.32,709.54,-241.82"/>
<path data-id="39-44" d="M622.31,-60.92,542.55,-145.09"/>
<path data-id="41-56" d="M181.51,-752.47,239.86,-676.58"/>
<path data-id="41-57" d="M181.51,-752.47,43.69,-658.90"/>
<path data-id="42-49" d="M565.56,-623.91,555.35,-574.85"/>
<path data-id="42-50" d="M565.56,-623.91,411.79,-693.82"/>
<path data-id="42-53" d="M565.56,-623.91,583.49,-702.12"/>
<path data-id="45-50" d="M342.49,-597.75,411.79,-693.82"/>
<path data-id="46-49" d="M661.98,-489.13,555.35,-574.85"/>
<path data-id="50-53" d="M411.79,-693.82,583.49,-702.12"/>
<path data-id="52-57" d="M168.54,-536.64,43.69,-658.90"/>
<path data-id="54-58" d="M655.63,-713.99,703.13,-696.55"/>
<path data-id="54-59" d="M655.63,-713.99,667.01,-757.29"/>
<circle data-id="0" cx="235.86" cy="-632.90" r="10.00px"/>
<text data-id="0" x="235.86" y="-632.90">R0</text>
<circle data-id="1" cx="420.79" cy="-390.09" r="10.00px"/>
<text data-id="1" x="420.79" y="-390.09">R1</text>
<circle data-id="2" cx="266.42" cy="-419.46" r="10.00px"/>
<text data-id="2" x="266.42" y="-419.46">R2</text>
<circle data-id="3" cx="126.95" cy="-155.43" r="10.00px"/>
<text data-id="3" x="126.95" y="-155.43">R3</text>
<circle data-id="4" cx="333.91" cy="-275.37" r="10.00px"/>
<text data-id="4" x="333.91" y="-275.37">R4</text>
<circle data-id="5" cx="735.32" cy="-737.13" r="10.00px"/>
<text data-id="5" x="735.32" y="-737.13">R5</text>
<circle data-id="6" cx="392.15" cy="-760.16" r="10.00px"/>
<text data-id="6" x="392.15" y="-760.16">R6</text>
<circle data-id="7" cx="472.45" cy="-371.22" r="10.00px"/>
<text data-id="7" x="472.45" y="-371.22">R7</text>
<circle data-id="8" cx="761.06" cy="-269.41" r="10.00px"/>
<text data-id="8" x="761.06" y="-269.41">R8</text>
<circle data-id="9" cx="686.83" cy="-428.79" r="10.00px"/>
<text data-id="9" x="686.83" y="-428.79">R9</text>
<circle data-id="10" cx="649.26" cy="-621.53" r="10.00px"/>
<text data-id="10" x="649.26" y="-621.53">R10</text>
<circle data-id="11" cx="665.63" cy="-231.63" r="10.00px"/>
<text data-id="11" x="665.63" y="-231.63">R11</text>
<circle data-id="12" cx="644.68" cy="-34.34" r="10.00px"/>
<text data-id="12" x="644.68" y="-34.34">R12</text>
<circle data-id="13" cx="193.35" cy="-156.70" r="10.00px"/>
<text data-id="13" x="193.35" y="-156.70">R13</text>
<circle data-id="14" cx="200.06" cy="-241.92" r="10.00px"/>
<text data-id="14" x="200.06" y="-241.92">R14</text>
<circle data-id="15" cx="397.05" cy="-96.87" r="10.00px"/>
<text data-id="15" x="397.05" y="-96.87">R15</text>
<circle data-id="16" cx="133.84" cy="-18.43" r="10.00px"/>
<text data-id="16" x="133.84" y="-18.43">R16</text>
<circle data-id="17" cx="496.60" cy="-124.89" r="10.00px"/>
<text data-id="17" x="496.60" y="-124.89">R17</text>
<circle data-id="18" cx="382.99" cy="-42.11" r="10.00px"/>
<text data-id="18" x="382.99" y="-42.11">R18</text>
<circle data-id="19" cx="198.23" cy="-452.64" r="10.00px"/>
<text data-id="19" x="198.23" y="-452.64">R19</text>
<circle data-id="20" cx="689.23" cy="-49.60" r="10.00px"/>
<text data-id="20" x="689.23" y="-49.60">R20</text>
<circle data-id="21" cx="285.69" cy="-664.95" r="10.00px"/>
<text data-id="21" x="285.69" y="-664.95">R21</text>
<circle data-id="22" cx="714.34" cy="-541.73" r="10.00px"/>
<text data-id="22" x="714.34" y="-541.73">R22</text>
<circle data-id="23" cx="203.22" cy="-78.36" r="10.00px"/>
<text data-id="23" x="203.22" y="-78.36">R23</text>
<circle data-id="24" cx="719.49" cy="-32.28" r="10.00px"/>
<text data-id="24" x="719.49" y="-32.28">R24</text>
<circle data-id="25" cx="385.28" cy="-539.72" r="10.00px"/>
<text data-id="25" x="385.28" y="-539.72">R25</text>
<circle data-id="26" cx="292.10" cy="-375.80" r="10.00px"/>
<text data-id="26" x="292.10" y="-375.80">R26</text>
<circle data-id="27" cx="586.47" cy="-186.68" r="10.00px"/>
<text data-id="27" x="586.47" y="-186.68">R27</text>
<circle data-id="28" cx="334.07" cy="-32.30" r="10.00px"/>
<text data-id="28" x="334.07" y="-32.30">R28</text>
<circle data-id="29" cx="621.78" cy="-145.88" r="10.00px"/>
<text data-id="29" x="621.78" y="-145.88">R29</text>
<circle data-id="30" cx="87.87" cy="-109.80" r="10.00px"/>
<text data-id="30" x="87.87" y="-109.80">R30</text>
<circle data-id="31" cx="768.74" cy="-591.88" r="10.00px"/>
<text data-id="31" x="768.74" y="-591.88">R31</text>
<circle data-id="32" cx="189.82" cy="-11.68" r="10.00px"/>
<text data-id="32" x="189.82" y="-11.68">R32</text>
<circle data-id="33" cx="366.10" cy="-478.84" r="10.00px"/>
<text data-id="33" x="366.10" y="-478.84">R33</text>
<circle data-id="34" cx="619.02" cy="-708.93" r="10.00px"/>
<text data-id="34" x="619.02" y="-708.93">R34</text>
<circle data-id="35" cx="714.67" cy="-762.04" r="10.00px"/>
<text data-id="35" x="714.67" y="-762.04">R35</text>
<circle data-id="36" cx="147.03" cy="-315.66" r="10.00px"/>
<text data-id="36" x="147.03" y="-315.66">R36</text>
<circle data-id="37" cx="751.66" cy="-136.32" r="10.00px"/>
<text data-id="37" x="751.66" y="-136.32">R37</text>
<circle data-id="38" cx="772.71" cy="-714.45" r="10.00px"/>
<text data-id="38" x="772.71" y="-714.45">R38</text>
<circle data-id="39" cx="622.31" cy="-60.92" r="10.00px"/>
<text data-id="39" x="622.31" y="-60.92">R39</text>
<circle data-id="40" cx="709.54" cy="-241.82" r="10.00px"/>
<text data-id="40" x="709.54" y="-241.82">R40</text>
<circle data-id="41" cx="181.51" cy="-752.47" r="10.00px"/>
<text data-id="41" x="181.51" y="-752.47">R41</text>
<circle data-id="42" cx="565.56" cy="-623.91" r="10.00px"/>
<text data-id="42" x="565.56" y="-623.91">R42</text>
<circle data-id="43" cx="332.49" cy="-327.30" r="10.00px"/>
<text data-id="43" x="332.49" y="-327.30">R43</text>
<circle data-id="44" cx="542.55" cy="-145.09" r="10.00px"/>
<text data-id="44" x="542.55" y="-145.09">R44</text>
<circle data-id="45" cx="342.49" cy="-597.75" r="10.00px"/>
<text data-id="45" x="342.49" y="-597.75">R45</text>
<circle data-id="46" cx="661.98" cy="-489.13" r="10.00px"/>
<text data-id="46" x="661.98" y="-489.13">R46</text>
<circle data-id="47" cx="333.63" cy="-460.27" r="10.00px"/>
<text data-id="47" x="333.63" y="-460.27">R47</text>
<circle data-id="48" cx="559.22" cy="-329.40" r="10.00px"/>
<text data-id="48" x="559.22" y="-329.40">R48</text>
<circle data-id="49" cx="555.35" cy="-574.85" r="10.00px"/>
<text data-id="49" x="555.35" y="-574.85">R49</text>
<circle data-id="50" cx="411.79" cy="-693.82" r="10.00px"/>
<text data-id="50" x="411.79" y="-693.82">R50</text>
<circle data-id="51" cx="96.80" cy="-353.02" r="10.00px"/>
<text data-id="51" x="96.80" y="-353.02">R51</text>
<circle data-id="52" cx="168.54" cy="-536.64" r="10.00px"/>
<text data-id="52" x="168.54" y="-536.64">R52</text>
<circle data-id="53" cx="583.49" cy="-702.12" r="10.00px"/>
<text data-id="53" x="583.49" y="-702.12">R53</text>
<circle data-id="54" cx="655.63" cy="-713.99" r="10.00px"/>
<text data-id="54" x="655.63" y="-713.99">R54</text>
<circle data-id="55" cx="317.30" cy="-256.47" r="10.00px"/>
<text data-id="55" x="317.30" y="-256.47">R55</text>
<circle data-id="56" cx="239.86" cy="-676.58" r="10.00px"/>
<text data-id="56" x="239.86" y="-676.58">R56</text>
<circle data-id="57" cx="43.69" cy="-658.90" r="10.00px"/>
<text data-id="57" x="43.69" y="-658.90">R57</text>
<circle data-id="58" cx="703.13" cy="-696.55" r="10.00px"/>
<text data-id="58" x="703.13" y="-696.55">R58</text>
<circle data-id="59" cx="667.01" cy="-757.29" r="10.00px"/>
<text data-id="59" x="667.01" y="-757.29">R59</text>
</svg>
