<svg id="topo" viewBox="-32.60 -809.36 835.87 842.60" xmlns="http://www.w3.org/2000/svg">
<style>#topo path {fill: none; stroke: grey; stroke-width: 5.0000px;} #topo circle {fill: lightblue; stroke: none; stroke-width: 0.3px; vector-effect: non-scaling-stroke; r: 10.0000px;} #topo text {fill: black; stroke: none; font-size: 15.0000px; font-family: sans-serif; text-anchor:middle; transform: translateY(0.3em);} #topo path.country {fill: lightgrey; stroke: black; stroke-width: 1px; vector-effect: non-scaling-stroke; visibility: visible;} #topo path.selection {fill: none; stroke: red; stroke-width: 1px; vector-effect: non-scaling-stroke; visibility: visible;} #topo path.utilization {visibility: hidden;}</style>
<path data-id="0-7" d="M322.60,-271.79,457.77,-263.54"/>
<path data-id="0-8" d="M322.60,-271.79,355.63,-441.53"/>
<path data-id="0-17" d="M322.60,-271.79,424.13,-380.62"/>
<path data-id="0-18" d="M322.60,-271.79,406.48,-179.35"/>
<path data-id="0-33" d="M322.60,-271.79,280.50,-83.71"/>
<path data-id="0-34" d="M322.60,-271.79,203.35,-327.16"/>
<path data-id="0-58" d="M322.60,-271.79,197.51,-271.61"/>
<path data-id="1-9" d="M197.02,-356.23,145.86,-440.31"/>
<path data-id="1-32" d="M197.02,-356.23,271.66,-468.72"/>
<path data-id="1-34" d="M197.02,-356.23,203.35,-327.16"/>
<path data-id="2-23" d="M687.80,-596.91,538.43,-622.75"/>
<path data-id="2-25" d="M687.80,-596.91,722.96,-591.87"/>
<path data-id="2-45" d="M687.80,-596.91,616.84,-741.82"/>
<path data-id="2-47" d="M687.80,-596.91,627.39,-498.66"/>
<path data-id="3-4" d="M471.68,-468.52,557.01,-416.72"/>
<path data-id="3-23" d="M471.68,-468.52,538.43,-622.75"/>
<path data-id="3-29" d="M471.68,-468.52,454.47,-442.15"/>
<path data-id="3-35" d="M471.68,-468.52,402.92,-490.55"/>
<path data-id="4-22" d="M557.01,-416.72,484.13,-267.80"/>
<path data-id="4-26" d="M557.01,-416.72,687.07,-286.83"/>
<path data-id="4-28" d="M557.01,-416.72,716.83,-391.68"/>
<path data-id="4-47" d="M557.01,-416.72,627.39,-498.66"/>
<path data-id="5-15" d="M477.39,-652.51,418.20,-590.71"/>
<path data-id="5-23" d="M477.39,-652.51,538.43,-622.75"/>
<path data-id="5-36" d="M477.39,-652.51,353.08,-736.84"/>
<path data-id="5-38" d="M477.39,-652.51,442.08,-768.91"/>
<path data-id="6-11" d="M717.43,-145.89,638.05,-133.61"/>
<path data-id="6-13" d="M717.43,-145.89,741.49,-64.78"/>
<path data-id="6-26" d="M717.43,-145.89,687.07,-286.83"/>
<path data-id="7-17" d="M457.77,-263.54,424.13,-380.62"/>
<path data-id="7-18" d="M457.77,-263.54,406.48,-179.35"/>
<path data-id="7-22" d="M457.77,-263.54,484.13,-267.80"/>
<path data-id="8-14" d="M355.63,-441.53,399.53,-448.88"/>
<path data-id="8-32" d="M355.63,-441.53,271.66,-468.72"/>
<path data-id="8-43" d="M355.63,-441.53,317.81,-502.11"/>
<path data-id="9-30" d="M145.86,-440.31,102.91,-459.51"/>
<path data-id="9-32" d="M145.86,-440.31,271.66,-468.72"/>
<path data-id="9-42" d="M145.86,-440.31,71.92,-379.94"/>
<path data-id="9-57" d="M145.86,-440.31,138.50,-511.85"/>
<path data-id="10-24" d="M428.75,-38.48,408.92,-66.54"/>
<path data-id="10-46" d="M428.75,-38.48,540.48,-106.00"/>
<path data-id="10-51" d="M428.75,-38.48,560.72,-47.45"/>
<path data-id="11-26" d="M638.05,-133.61,687.07,-286.83"/>
<path data-id="11-39" d="M638.05,-133.61,632.18,-19.92"/>
<path data-id="11-40" d="M638.05,-133.61,575.48,-149.91"/>
<path data-id="11-51" d="M638.05,-133.61,560.72,-47.45"/>
<path data-id="12-25" d="M765.27,-651.55,722.96,-591.87"/>
<path data-id="12-45" d="M765.27,-651.55,616.84,-741.82"/>
<path data-id="13-39" d="M741.49,-64.78,632.18,-19.92"/>
<path data-id="14-17" d="M399.53,-448.88,424.13,-380.62"/>
<path data-id="14-29" d="M399.53,-448.88,454.47,-442.15"/>
<path data-id="14-35" d="M399.53,-448.88,402.92,-490.55"/>
<path data-id="15-35" d="M418.20,-590.71,402.92,-490.55"/>
<path data-id="15-49" d="M418.20,-590.71,308.74,-678.06"/>
<path data-id="15-53" d="M418.20,-590.71,284.87,-630.91"/>
<path data-id="16-31" d="M192.92,-223.70,168.64,-208.69"/>
<path data-id="16-33" d="M192.92,-223.70,280.50,-83.71"/>
<path data-id="16-58" d="M192.92,-223.70,197.51,-271.61"/>
<path data-id="17-29" d="M424.13,-380.62,454.47,-442.15"/>
<path data-id="18-24" d="M406.48,-179.35,408.92,-66.54"/>
<path data-id="18-33" d="M406.48,-179.35,280.50,-83.71"/>
<path data-id="18-46" d="M406.48,-179.35,540.48,-106.00"/>
<path data-id="19-49" d="M265.44,-675.56,308.74,-678.06"/>
<path data-id="19-50" d="M265.44,-675.56,201.82,-690.16"/>
<path data-id="19-53" d="M265.44,-675.56,284.87,-630.91"/>
<path data-id="20-36" d="M317.28,-717.40,353.08,-736.84"/>
<path data-id="20-49" d="M317.28,-717.40,308.74,-678.06"/>
<path data-id="21-50" d="M128.64,-771.06,201.82,-690.16"/>
<path data-id="22-26" d="M484.13,-267.80,687.07,-286.83"/>
<path data-id="22-40" d="M484.13,-267.80,575.48,-149.91"/>
<path data-id="23-45" d="M538.43,-622.75,616.84,-741.82"/>
<path data-id="23-47" d="M538.43,-622.75,627.39,-498.66"/>
<path data-id="24-33" d="M408.92,-66.54,280.50,-83.71"/>
<path data-id="26-28" d="M687.07,-286.83,716.83,-391.68"/>
<path data-id="27-44" d="M50.38,-5.06,113.61,-71.88"/>
<path data-id="27-56" d="M50.38,-5.06,5.39,-56.57"/>
<path data-id="28-47" d="M716.83,-391.68,627.39,-498.66"/>
<path data-id="30-42" d="M102.91,-459.51,71.92,-379.94"/>
<path data-id="30-57" d="M102.91,-459.51,138.50,-511.85"/>
<path data-id="31-55" d="M168.64,-208.69,135.35,-209.78"/>
<path data-id="32-43" d="M271.66,-468.72,317.81,-502.11"/>
<path data-id="32-54" d="M271.66,-468.72,275.01,-541.36"/>
<path data-id="32-57" d="M271.66,-468.72,138.50,-511.85"/>
<path data-id="33-44" d="M280.50,-83.71,113.61,-71.88"/>
<path data-id="34-52" d="M203.35,-327.16,154.21,-308.79"/>
<path data-id="34-58" d="M203.35,-327.16,197.51,-271.61"/>
<path data-id="35-43" d="M402.92,-490.55,317.81,-502.11"/>
<path data-id="36-38" d="M353.08,-736.84,442.08,-768.91"/>
<path data-id="37-42" d="M92.36,-241.33,71.92,-379.94"/>
<path data-id="37-52" d="M92.36,-241.33,154.21,-308.79"/>
<path data-id="37-55" d="M92.36,-241.33,135.35,-209.78"/>
<path data-id="38-45" d="M442.08,-768.91,616.84,-741.82"/>
<path data-id="39-51" d="M632.18,-19.92,560.72,-47.45"/>
<path data-id="40-46" d="M575.48,-149.91,540.48,-106.00"/>
<path data-id="41-44" d="M106.16,-128.23,113.61,-71.88"/>
<path data-id="41-59" d="M106.16,-128.23,97.33,-154.86"/>
<path data-id="42-52" d="M71.92,-379.94,154.21,-308.79"/>
<path data-id="43-54" d="M317.81,-502.11,275.01,-541.36"/>
<path data-id="44-56" d="M113.61,-71.88,5.39,-56.57"/>
<path data-id="46-51" d="M540.48,-106.00,560.72,-47.45"/>
<path data-id="48-50" d="M134.20,-587.53,201.82,-690.16"/>
<path data-id="48-53" d="M134.20,-587.53,284.87,-630.91"/>
<path data-id="48-54" d="M134.20,-587.53,275.01,-541.36"/>
<path data-id="48-57" d="M134.20,-587.53,138.50,-511.85"/>
<path data-id="49-53" d="M308.74,-678.06,284.87,-630.91"/>
<path data-id="52-55" d="M154.21,-308.79,135.35,-209.78"/>
<path data-id="52-58" d="M154.21,-308.79,197.51,-271.61"/>
<path data-id="53-54" d="M284.87,-630.91,275.01,-541.36"/>
<path data-id="54-57" d="M275.01,-541.36,138.50,-511.85"/>
<path data-id="55-59" d="M135.35,-209.78,97.33,-154.86"/>
<circle data-id="0" cx="322.60" cy="-271.79" r="10.00px"/>
<text data-id="0" x="322.60" y="-271.79">R0</text>
<circle data-id="1" cx="197.02" cy="-356.23" r="10.00px"/>
<text data-id="1" x="197.02" y="-356.23">R1</text>
<circle data-id="2" cx="687.80" cy="-596.91" r="10.00px"/>
<text data-id="2" x="687.80" y="-596.91">R2</text>
<circle data-id="3" cx="471.68" cy="-468.52" r="10.00px"/>
<text data-id="3" x="471.68" y="-468.52">R3</text>
<circle data-id="4" cx="557.01" cy="-416.72" r="10.00px"/>
<text data-id="4" x="557.01" y="-416.72">R4</text>
<circle data-id="5" cx="477.39" cy="-652.51" r="10.00px"/>
<text data-id="5" x="477.39" y="-652.51">R5</text>
<circle data-id="6" cx="717.43" cy="-145.89" r="10.00px"/>
<text data-id="6" x="717.43" y="-145.89">R6</text>
<circle data-id="7" cx="457.77" cy="-263.54" r="10.00px"/>
<text data-id="7" x="457.77" y="-263.54">R7</text>
<circle data-id="8" cx="355.63" cy="-441.53" r="10.00px"/>
<text data-id="8" x="355.63" y="-441.53">R8</text>
<circle data-id="9" cx="145.86" cy="-440.31" r="10.00px"/>
<text data-id="9" x="145.86" y="-440.31">R9</text>
<circle data-id="10" cx="428.75" cy="-38.48" r="10.00px"/>
<text data-id="10" x="428.75" y="-38.48">R10</text>
<circle data-id="11" cx="638.05" cy="-133.61" r="10.00px"/>
<text data-id="11" x="638.05" y="-133.61">R11</text>
<circle data-id="12" cx="765.27" cy="-651.55" r="10.00px"/>
<text data-id="12" x="765.27" y="-651.55">R12</text>
<circle data-id="13" cx="741.49" cy="-64.78" r="10.00px"/>
<text data-id="13" x="741.49" y="-64.78">R13</text>
<circle data-id="14" cx="399.53" cy="-448.88" r="10.00px"/>
<text data-id="14" x="399.53" y="-448.88">R14</text>
<circle data-id="15" cx="418.20" cy="-590.71" r="10.00px"/>
<text data-id="15" x="418.20" y="-590.71">R15</text>
<circle data-id="16" cx="192.92" cy="-223.70" r="10.00px"/>
<text data-id="16" x="192.92" y="-223.70">R16</text>
<circle data-id="17" cx="424.13" cy="-380.62" r="10.00px"/>
<text data-id="17" x="424.13" y="-380.62">R17</text>
<circle data-id="18" cx="406.48" cy="-179.35" r="10.00px"/>
<text data-id="18" x="406.48" y="-179.35">R18</text>
<circle data-id="19" cx="265.44" cy="-675.56" r="10.00px"/>
<text data-id="19" x="265.44" y="-675.56">R19</text>
<circle data-id="20" cx="317.28" cy="-717.40" r="10.00px"/>
<text data-id="20" x="317.28" y="-717.40">R20</text>
<circle data-id="21" cx="128.64" cy="-771.06" r="10.00px"/>
<text data-id="21" x="128.64" y="-771.06">R21</text>
<circle data-id="22" cx="484.13" cy="-267.80" r="10.00px"/>
<text data-id="22" x="484.13" y="-267.80">R22</text>
<circle data-id="23" cx="538.43" cy="-622.75" r="10.00px"/>
<text data-id="23" x="538.43" y="-622.75">R23</text>
<circle data-id="24" cx="408.92" cy="-66.54" r="10.00px"/>
<text data-id="24" x="408.92" y="-66.54">R24</text>
<circle data-id="25" cx="722.96" cy="-591.87" r="10.00px"/>
<text data-id="25" x="722.96" y="-591.87">R25</text>
<circle data-id="26" cx="687.07" cy="-286.83" r="10.00px"/>
<text data-id="26" x="687.07" y="-286.83">R26</text>
<circle data-id="27" cx="50.38" cy="-5.06" r="10.00px"/>
<text data-id="27" x="50.38" y="-5.06">R27</text>
<circle data-id="28" cx="716.83" cy="-391.68" r="10.00px"/>
<text data-id="28" x="716.83" y="-391.68">R28</text>
<circle data-id="29" cx="454.47" cy="-442.15" r="10.00px"/>
<text data-id="29" x="454.47" y="-442.15">R29</text>
<circle data-id="30" cx="102.91" cy="-459.51" r="10.00px"/>
<text data-id="30" x="102.91" y="-459.51">R30</text>
<circle data-id="31" cx="168.64" cy="-208.69" r="10.00px"/>
<text data-id="31" x="168.64" y="-208.69">R31</text>
<circle data-id="32" cx="271.66" cy="-468.72" r="10.00px"/>
<text data-id="32" x="271.66" y="-468.72">R32</text>
<circle data-id="33" cx="280.50" cy="-83.71" r="10.00px"/>
<text data-id="33" x="280.50" y="-83.71">R33</text>
<circle data-id="34" cx="203.35" cy="-327.16" r="10.00px"/>
<text data-id="34" x="203.35" y="-327.16">R34</text>
<circle data-id="35" cx="402.92" cy="-490.55" r="10.00px"/>
<text data-id="35" x="402.92" y="-490.55">R35</text>
<circle data-id="36" cx="353.08" cy="-736.84" r="10.00px"/>
<text data-id="36" x="353.08" y="-736.84">R36</text>
<circle data-id="37" cx="92.36" cy="-241.33" r="10.00px"/>
<text data-id="37" x="92.36" y="-241.33">R37</text>
<circle data-id="38" cx="442.08" cy="-768.91" r="10.00px"/>
<text data-id="38" x="442.08" y="-768.91">R38</text>
<circle data-id="39" cx="632.18" cy="-19.92" r="10.00px"/>
<text data-id="39" x="632.18" y="-19.92">R39</text>
<circle data-id="40" cx="575.48" cy="-149.91" r="10.00px"/>
<text data-id="40" x="575.48" y="-149.91">R40</text>
<circle data-id="41" cx="106.16" cy="-128.23" r="10.00px"/>
<text data-id="41" x="106.16" y="-128.23">R41</text>
<circle data-id="42" cx="71.92" cy="-379.94" r="10.00px"/>
<text data-id="42" x="71.92" y="-379.94">R42</text>
<circle data-id="43" cx="317.81" cy="-502.11" r="10.00px"/>
<text data-id="43" x="317.81" y="-502.11">R43</text>
<circle data-id="44" cx="113.61" cy="-71.88" r="10.00px"/>
<text data-id="44" x="113.61" y="-71.88">R44</text>
<circle data-id="45" cx="616.84" cy="-741.82" r="10.00px"/>
<text data-id="45" x="616.84" y="-741.82">R45</text>
<circle data-id="46" cx="540.48" cy="-106.00" r="10.00px"/>
<text data-id="46" x="540.48" y="-106.00">R46</text>
<circle data-id="47" cx="627.39" cy="-498.66" r="10.00px"/>
<text data-id="47" x="627.39" y="-498.66">R47</text>
<circle data-id="48" cx="134.20" cy="-587.53" r="10.00px"/>
<text data-id="48" x="134.20" y="-587.53">R48</text>
<circle data-id="49" cx="308.74" cy="-678.06" r="10.00px"/>
<text data-id="49" x="308.74" y="-678.06">R49</text>
<circle data-id="50" cx="201.82" cy="-690.16" r="10.00px"/>
<text data-id="50" x="201.82" y="-690.16">R50</text>
<circle data-id="51" cx="560.72" cy="-47.45" r="10.00px"/>
<text data-id="51" x="560.72" y="-47.45">R51</text>
<circle data-id="52" cx="154.21" cy="-308.79" r="10.00px"/>
<text data-id="52" x="154.21" y="-308.79">R52</text>
<circle data-id="53" cx="284.87" cy="-630.91" r="10.00px"/>
<text data-id="53" x="284.87" y="-630.91">R53</text>
<circle data-id="54" cx="275.01" cy="-541.36" r="10.00px"/>
<text data-id="54" x="275.01" y="-541.36">R54</text>
<circle data-id="55" cx="135.35" cy="-209.78" r="10.00px"/>
<text data-id="55" x="135.35" y="-209.78">R55</text>
<circle data-id="56" cx="5.39" cy="-56.57" r="10.00px"/>
<text data-id="56" x="5.39" y="-56.57">R56</text>
<circle data-id="57" cx="138.50" cy="-511.85" r="10.00px"/>
<text data-id="57" x="138.50" y="-511.85">R57</text>
<circle data-id="58" cx="197.51" cy="-271.61" r="10.00px"/>
<text data-id="58" x="197.51" y="-271.61">R58</text>
<circle data-id="59" cx="97.33" cy="-154.86" r="10.00px"/>
<text data-id="59" x="97.33" y="-154.86">R59</text>
</svg>
