<svg width="2255.19" height="2267.22" viewBox="-33.63 -42.89 2255.19 2267.22" xmlns="http://www.w3.org/2000/svg">
<style>path {fill: none; stroke: grey; stroke-width: 6;} circle {fill: lightblue; stroke: none;} text {fill: black; stroke: none; font-size: 16; font-family: sans-serif; text-anchor:middle;}</style>
<path d="M2156.65,1195.49,2154.37,1044.66"/>
<path d="M2156.65,1195.49,2083.76,1184.18"/>
<path d="M2156.65,1195.49,2124.39,1372.80"/>
<path d="M878.64,275.84,1021.51,255.83"/>
<path d="M878.64,275.84,977.15,337.06"/>
<path d="M878.64,275.84,736.62,332.05"/>
<path d="M878.64,275.84,846.34,209.82"/>
<path d="M878.64,275.84,846.83,406.45"/>
<path d="M318.66,1125.61,264.67,1179.42"/>
<path d="M318.66,1125.61,368.27,1140.63"/>
<path d="M318.66,1125.61,249.74,1107.53"/>
<path d="M318.66,1125.61,311.83,1065.50"/>
<path d="M965.14,123.46,824.49,87.11"/>
<path d="M965.14,123.46,1021.51,255.83"/>
<path d="M965.14,123.46,947.95,24.63"/>
<path d="M965.14,123.46,1058.66,96.12"/>
<path d="M965.14,123.46,1030.26,50.61"/>
<path d="M965.14,123.46,846.34,209.82"/>
<path d="M1244.11,70.14,1285.93,9.79"/>
<path d="M1244.11,70.14,1183.76,56.17"/>
<path d="M1244.11,70.14,1214.01,103.19"/>
<path d="M1918.02,819.80,1959.74,770.32"/>
<path d="M1918.02,819.80,1909.70,845.09"/>
<path d="M1918.02,819.80,1873.53,736.64"/>
<path d="M741.81,1367.74,701.53,1423.85"/>
<path d="M741.81,1367.74,777.65,1439.20"/>
<path d="M741.81,1367.74,722.16,1311.04"/>
<path d="M741.81,1367.74,774.19,1352.30"/>
<path d="M1899.85,1203.03,1924.50,1216.53"/>
<path d="M1899.85,1203.03,1914.70,1101.79"/>
<path d="M1899.85,1203.03,1857.67,1272.76"/>
<path d="M1899.85,1203.03,1834.82,1129.62"/>
<path d="M1023.88,1234.93,1158.28,1223.83"/>
<path d="M1023.88,1234.93,937.57,1121.18"/>
<path d="M1023.88,1234.93,1123.24,1132.23"/>
<path d="M1023.88,1234.93,1029.80,1268.12"/>
<path d="M1023.88,1234.93,957.64,1280.17"/>
<path d="M910.30,674.77,877.54,739.13"/>
<path d="M910.30,674.77,896.19,641.54"/>
<path d="M108.82,2098.98,183.61,2156.39"/>
<path d="M108.82,2098.98,86.22,2123.17"/>
<path d="M108.82,2098.98,89.30,1986.30"/>
<path d="M108.82,2098.98,210.49,2034.35"/>
<path d="M802.88,1730.09,887.13,1646.65"/>
<path d="M802.88,1730.09,953.22,1812.47"/>
<path d="M802.88,1730.09,772.37,1742.41"/>
<path d="M1148.68,1574.38,1168.46,1542.22"/>
<path d="M1148.68,1574.38,939.12,1596.59"/>
<path d="M1148.68,1574.38,1132.92,1698.70"/>
<path d="M1742.59,2141.64,1781.35,2098.38"/>
<path d="M1742.59,2141.64,1809.31,2139.67"/>
<path d="M1742.59,2141.64,1699.05,2049.95"/>
<path d="M1742.59,2141.64,1688.90,2148.08"/>
<path d="M1597.40,1391.43,1672.95,1409.35"/>
<path d="M1597.40,1391.43,1658.05,1333.58"/>
<path d="M1597.40,1391.43,1568.36,1468.55"/>
<path d="M1597.40,1391.43,1452.68,1334.75"/>
<path d="M1597.40,1391.43,1648.37,1495.93"/>
<path d="M1597.40,1391.43,1602.80,1303.80"/>
<path d="M216.73,1132.72,264.67,1179.42"/>
<path d="M216.73,1132.72,249.74,1107.53"/>
<path d="M216.73,1132.72,161.79,1167.32"/>
<path d="M208.38,1879.17,195.46,1900.68"/>
<path d="M208.38,1879.17,252.77,1875.43"/>
<path d="M208.38,1879.17,158.20,1857.58"/>
<path d="M1058.44,811.32,981.41,813.10"/>
<path d="M1058.44,811.32,1107.39,1058.11"/>
<path d="M1058.44,811.32,1078.77,779.70"/>
<path d="M2075.65,903.78,2121.70,939.84"/>
<path d="M2075.65,903.78,1914.70,1101.79"/>
<path d="M2075.65,903.78,2142.99,810.48"/>
<path d="M2075.65,903.78,2094.69,795.76"/>
<path d="M2075.65,903.78,1909.70,845.09"/>
<path d="M2121.70,939.84,2154.37,1044.66"/>
<path d="M1136.18,1320.01,1170.57,1257.86"/>
<path d="M1136.18,1320.01,1029.80,1268.12"/>
<path d="M1136.18,1320.01,1051.01,1347.39"/>
<path d="M1136.18,1320.01,1221.98,1290.61"/>
<path d="M1136.18,1320.01,1142.72,1351.57"/>
<path d="M1212.10,207.44,1093.59,209.54"/>
<path d="M1212.10,207.44,1113.05,392.82"/>
<path d="M1212.10,207.44,1262.39,234.58"/>
<path d="M1212.10,207.44,1214.01,103.19"/>
<path d="M1212.10,207.44,1269.16,176.62"/>
<path d="M1679.00,513.25,1634.79,657.72"/>
<path d="M1679.00,513.25,1793.25,505.21"/>
<path d="M1679.00,513.25,1608.41,329.21"/>
<path d="M1679.00,513.25,1710.66,346.18"/>
<path d="M1679.00,513.25,1515.62,523.19"/>
<path d="M739.18,533.35,866.31,610.60"/>
<path d="M739.18,533.35,810.01,646.36"/>
<path d="M739.18,533.35,854.26,505.47"/>
<path d="M739.18,533.35,702.65,491.21"/>
<path d="M739.18,533.35,649.77,547.94"/>
<path d="M1672.95,1409.35,1658.05,1333.58"/>
<path d="M1672.95,1409.35,1733.56,1390.35"/>
<path d="M1672.95,1409.35,1648.37,1495.93"/>
<path d="M1281.64,993.14,1422.55,1031.62"/>
<path d="M1281.64,993.14,1348.97,1089.47"/>
<path d="M1281.64,993.14,1270.17,1111.43"/>
<path d="M1281.64,993.14,1379.68,937.64"/>
<path d="M1281.64,993.14,1231.33,902.44"/>
<path d="M1281.64,993.14,1187.85,1004.66"/>
<path d="M981.41,813.10,951.74,837.52"/>
<path d="M981.41,813.10,877.54,739.13"/>
<path d="M1959.74,770.32,2028.72,619.35"/>
<path d="M1959.74,770.32,2094.69,795.76"/>
<path d="M1959.74,770.32,1873.53,736.64"/>
<path d="M1959.74,770.32,2075.63,712.45"/>
<path d="M1093.59,209.54,1058.66,96.12"/>
<path d="M1093.59,209.54,1086.74,87.92"/>
<path d="M1093.59,209.54,1041.19,271.79"/>
<path d="M1686.74,1651.69,1706.56,1566.02"/>
<path d="M1686.74,1651.69,1731.37,1745.36"/>
<path d="M1686.74,1651.69,1488.62,1689.55"/>
<path d="M794.85,1285.56,826.47,1336.75"/>
<path d="M794.85,1285.56,770.21,1246.85"/>
<path d="M794.85,1285.56,722.16,1311.04"/>
<path d="M794.85,1285.56,774.19,1352.30"/>
<path d="M2030.59,582.19,2053.38,544.39"/>
<path d="M2030.59,582.19,2028.72,619.35"/>
<path d="M1170.57,1257.86,1158.28,1223.83"/>
<path d="M1170.57,1257.86,1221.98,1290.61"/>
<path d="M1170.57,1257.86,1246.66,1212.68"/>
<path d="M1706.56,1566.02,1756.31,1529.20"/>
<path d="M1706.56,1566.02,1681.46,1539.08"/>
<path d="M2172.78,1794.34,2142.58,1920.95"/>
<path d="M2172.78,1794.34,2161.97,1762.41"/>
<path d="M1130.10,565.89,1109.28,742.08"/>
<path d="M1130.10,565.89,1064.84,569.35"/>
<path d="M1130.10,565.89,1145.22,471.51"/>
<path d="M1130.10,565.89,1241.69,598.08"/>
<path d="M1130.10,565.89,1204.89,484.43"/>
<path d="M824.49,87.11,947.95,24.63"/>
<path d="M824.49,87.11,762.10,109.11"/>
<path d="M824.49,87.11,846.34,209.82"/>
<path d="M970.29,1504.09,939.12,1596.59"/>
<path d="M970.29,1504.09,1136.72,1491.46"/>
<path d="M970.29,1504.09,959.32,1462.55"/>
<path d="M970.29,1504.09,862.40,1524.00"/>
<path d="M172.83,1541.53,199.81,1624.91"/>
<path d="M172.83,1541.53,51.65,1557.85"/>
<path d="M172.83,1541.53,186.72,1514.73"/>
<path d="M816.44,1209.80,937.57,1121.18"/>
<path d="M816.44,1209.80,770.21,1246.85"/>
<path d="M816.44,1209.80,711.25,1124.71"/>
<path d="M816.44,1209.80,856.64,1079.68"/>
<path d="M816.44,1209.80,957.64,1280.17"/>
<path d="M816.82,824.63,672.31,805.16"/>
<path d="M816.82,824.63,788.56,943.59"/>
<path d="M816.82,824.63,861.96,802.10"/>
<path d="M816.82,824.63,785.68,749.70"/>
<path d="M1813.68,407.10,1800.29,314.20"/>
<path d="M1813.68,407.10,1831.31,467.90"/>
<path d="M1813.68,407.10,1973.72,369.81"/>
<path d="M1813.68,407.10,1710.66,346.18"/>
<path d="M1158.28,1223.83,1123.24,1132.23"/>
<path d="M1158.28,1223.83,1029.80,1268.12"/>
<path d="M1158.28,1223.83,1246.66,1212.68"/>
<path d="M1270.67,1560.37,1286.46,1703.34"/>
<path d="M1270.67,1560.37,1328.82,1548.98"/>
<path d="M1270.67,1560.37,1293.29,1416.57"/>
<path d="M1270.67,1560.37,1231.96,1569.05"/>
<path d="M1270.67,1560.37,1225.43,1414.57"/>
<path d="M1781.35,2098.38,1809.31,2139.67"/>
<path d="M1781.35,2098.38,1771.66,2068.76"/>
<path d="M22.37,1247.76,160.58,1345.39"/>
<path d="M22.37,1247.76,63.09,1152.98"/>
<path d="M22.37,1247.76,118.78,1382.25"/>
<path d="M189.89,1769.44,283.33,1777.92"/>
<path d="M189.89,1769.44,176.96,1699.60"/>
<path d="M189.89,1769.44,205.33,1706.41"/>
<path d="M189.89,1769.44,158.20,1857.58"/>
<path d="M189.89,1769.44,127.33,1769.21"/>
<path d="M895.40,2065.25,834.35,2057.03"/>
<path d="M895.40,2065.25,930.42,1984.30"/>
<path d="M895.40,2065.25,850.16,2100.08"/>
<path d="M895.40,2065.25,1025.61,2087.29"/>
<path d="M645.49,2.11,693.58,42.00"/>
<path d="M645.49,2.11,617.67,44.20"/>
<path d="M1422.55,1031.62,1421.43,1069.78"/>
<path d="M1422.55,1031.62,1379.68,937.64"/>
<path d="M1422.55,1031.62,1480.08,1022.31"/>
<path d="M1021.51,255.83,977.15,337.06"/>
<path d="M1021.51,255.83,1041.19,271.79"/>
<path d="M1285.93,9.79,1448.64,34.86"/>
<path d="M2052.52,1342.43,2003.13,1379.05"/>
<path d="M2052.52,1342.43,2083.76,1184.18"/>
<path d="M2052.52,1342.43,2124.39,1372.80"/>
<path d="M2052.52,1342.43,1983.38,1263.25"/>
<path d="M1393.50,1543.01,1328.82,1548.98"/>
<path d="M1393.50,1543.01,1431.61,1479.61"/>
<path d="M1393.50,1543.01,1402.95,1608.04"/>
<path d="M1393.50,1543.01,1465.42,1572.69"/>
<path d="M160.58,1345.39,213.25,1351.96"/>
<path d="M160.58,1345.39,118.78,1382.25"/>
<path d="M160.58,1345.39,175.32,1440.25"/>
<path d="M1824.03,909.51,1721.41,844.41"/>
<path d="M1824.03,909.51,1710.86,972.17"/>
<path d="M1824.03,909.51,1914.70,1101.79"/>
<path d="M1824.03,909.51,1909.70,845.09"/>
<path d="M1824.03,909.51,1834.82,1129.62"/>
<path d="M547.19,1603.91,625.17,1609.89"/>
<path d="M547.19,1603.91,552.45,1491.78"/>
<path d="M547.19,1603.91,554.11,1666.57"/>
<path d="M547.19,1603.91,459.04,1552.59"/>
<path d="M547.19,1603.91,507.28,1656.78"/>
<path d="M103.09,1740.77,176.96,1699.60"/>
<path d="M103.09,1740.77,63.98,1774.83"/>
<path d="M103.09,1740.77,127.33,1769.21"/>
<path d="M672.31,805.16,788.56,943.59"/>
<path d="M672.31,805.16,766.71,715.18"/>
<path d="M672.31,805.16,785.68,749.70"/>
<path d="M672.31,805.16,626.62,780.40"/>
<path d="M1634.79,657.72,1614.46,709.73"/>
<path d="M1634.79,657.72,1492.31,609.73"/>
<path d="M1634.79,657.72,1802.02,665.71"/>
<path d="M1305.47,207.18,1262.39,234.58"/>
<path d="M1305.47,207.18,1309.97,242.01"/>
<path d="M1305.47,207.18,1336.68,197.96"/>
<path d="M1305.47,207.18,1269.16,176.62"/>
<path d="M572.24,2088.71,529.66,2122.06"/>
<path d="M572.24,2088.71,603.86,2164.63"/>
<path d="M572.24,2088.71,555.76,2026.18"/>
<path d="M572.24,2088.71,598.86,2077.77"/>
<path d="M1348.97,1089.47,1270.17,1111.43"/>
<path d="M1348.97,1089.47,1421.43,1069.78"/>
<path d="M1348.97,1089.47,1312.20,1166.06"/>
<path d="M552.25,735.58,568.75,796.89"/>
<path d="M552.25,735.58,622.50,670.35"/>
<path d="M552.25,735.58,626.62,780.40"/>
<path d="M552.25,735.58,544.98,674.28"/>
<path d="M552.25,735.58,465.02,799.62"/>
<path d="M1436.33,1915.81,1427.25,1841.01"/>
<path d="M1436.33,1915.81,1513.75,1971.39"/>
<path d="M1436.33,1915.81,1426.62,1966.58"/>
<path d="M1436.33,1915.81,1287.47,1891.40"/>
<path d="M1526.37,169.15,1646.06,151.04"/>
<path d="M1526.37,169.15,1336.68,197.96"/>
<path d="M1526.37,169.15,1383.81,299.37"/>
<path d="M1526.37,169.15,1568.85,39.14"/>
<path d="M1526.37,169.15,1608.41,329.21"/>
<path d="M1526.37,169.15,1451.06,77.47"/>
<path d="M951.74,837.52,861.96,802.10"/>
<path d="M951.74,837.52,925.95,900.50"/>
<path d="M1168.46,1542.22,1136.72,1491.46"/>
<path d="M1168.46,1542.22,1231.96,1569.05"/>
<path d="M877.54,739.13,861.96,802.10"/>
<path d="M877.54,739.13,810.01,646.36"/>
<path d="M877.54,739.13,785.68,749.70"/>
<path d="M478.74,349.13,421.55,106.36"/>
<path d="M478.74,349.13,435.55,393.05"/>
<path d="M478.74,349.13,611.63,250.62"/>
<path d="M478.74,349.13,723.60,412.94"/>
<path d="M2003.13,1379.05,1914.17,1433.36"/>
<path d="M2003.13,1379.05,2013.88,1407.69"/>
<path d="M2003.13,1379.05,1983.38,1263.25"/>
<path d="M2003.13,1379.05,1896.25,1279.64"/>
<path d="M264.67,1179.42,365.29,1194.24"/>
<path d="M264.67,1179.42,249.74,1107.53"/>
<path d="M264.67,1179.42,220.52,1313.11"/>
<path d="M947.95,24.63,1030.26,50.61"/>
<path d="M63.09,1152.98,100.64,1143.16"/>
<path d="M63.09,1152.98,16.66,998.38"/>
<path d="M788.56,943.59,867.87,1041.35"/>
<path d="M788.56,943.59,925.95,900.50"/>
<path d="M788.56,943.59,716.71,1066.91"/>
<path d="M1756.31,1529.20,1912.68,1617.19"/>
<path d="M1756.31,1529.20,1926.32,1591.13"/>
<path d="M1756.31,1529.20,1947.94,1521.31"/>
<path d="M1756.31,1529.20,1914.17,1433.36"/>
<path d="M1756.31,1529.20,1733.56,1390.35"/>
<path d="M1058.66,96.12,1086.74,87.92"/>
<path d="M1058.66,96.12,1030.26,50.61"/>
<path d="M701.53,1423.85,777.65,1439.20"/>
<path d="M701.53,1423.85,693.89,1534.86"/>
<path d="M701.53,1423.85,601.60,1358.64"/>
<path d="M701.53,1423.85,552.45,1491.78"/>
<path d="M977.15,337.06,1113.05,392.82"/>
<path d="M977.15,337.06,891.48,433.09"/>
<path d="M977.15,337.06,1073.40,455.78"/>
<path d="M977.15,337.06,1041.19,271.79"/>
<path d="M1286.46,1703.34,1378.75,1685.43"/>
<path d="M1286.46,1703.34,1231.96,1569.05"/>
<path d="M1286.46,1703.34,1132.92,1698.70"/>
<path d="M1286.46,1703.34,1299.60,1756.75"/>
<path d="M1658.05,1333.58,1708.73,1297.53"/>
<path d="M1658.05,1333.58,1733.56,1390.35"/>
<path d="M1658.05,1333.58,1602.80,1303.80"/>
<path d="M762.10,109.11,693.58,42.00"/>
<path d="M762.10,109.11,846.34,209.82"/>
<path d="M762.10,109.11,631.71,166.10"/>
<path d="M866.31,610.60,964.50,501.59"/>
<path d="M866.31,610.60,810.01,646.36"/>
<path d="M866.31,610.60,854.26,505.47"/>
<path d="M866.31,610.60,896.19,641.54"/>
<path d="M1153.94,2114.08,1120.26,2064.29"/>
<path d="M1153.94,2114.08,1080.94,2108.99"/>
<path d="M1153.94,2114.08,1204.78,2120.19"/>
<path d="M1657.24,848.72,1667.80,911.29"/>
<path d="M1657.24,848.72,1721.41,844.41"/>
<path d="M1657.24,848.72,1622.32,754.30"/>
<path d="M1657.24,848.72,1651.34,751.12"/>
<path d="M1912.68,1617.19,1926.32,1591.13"/>
<path d="M1912.68,1617.19,1992.19,1710.39"/>
<path d="M1912.68,1617.19,1865.05,1806.40"/>
<path d="M1912.68,1617.19,1731.37,1745.36"/>
<path d="M1339.18,1793.44,1427.25,1841.01"/>
<path d="M1339.18,1793.44,1378.75,1685.43"/>
<path d="M1339.18,1793.44,1244.83,1825.70"/>
<path d="M1339.18,1793.44,1299.60,1756.75"/>
<path d="M1339.18,1793.44,1287.47,1891.40"/>
<path d="M2093.39,1739.24,2048.55,1754.92"/>
<path d="M2093.39,1739.24,2091.29,1713.32"/>
<path d="M2093.39,1739.24,2115.72,1774.08"/>
<path d="M1113.05,392.82,1262.39,234.58"/>
<path d="M1113.05,392.82,1145.22,471.51"/>
<path d="M1113.05,392.82,1174.43,456.95"/>
<path d="M1113.05,392.82,1073.40,455.78"/>
<path d="M1113.05,392.82,1041.19,271.79"/>
<path d="M1568.36,1468.55,1648.37,1495.93"/>
<path d="M1568.36,1468.55,1524.37,1495.35"/>
<path d="M1568.36,1468.55,1592.55,1539.49"/>
<path d="M1789.75,1365.15,1708.73,1297.53"/>
<path d="M1789.75,1365.15,1914.17,1433.36"/>
<path d="M1789.75,1365.15,1733.56,1390.35"/>
<path d="M1789.75,1365.15,1836.35,1314.27"/>
<path d="M421.55,106.36,586.80,25.84"/>
<path d="M421.55,106.36,326.08,102.66"/>
<path d="M421.55,106.36,631.71,166.10"/>
<path d="M368.27,1140.63,365.29,1194.24"/>
<path d="M368.27,1140.63,455.22,1072.94"/>
<path d="M937.57,1121.18,1123.24,1132.23"/>
<path d="M937.57,1121.18,856.64,1079.68"/>
<path d="M937.57,1121.18,1107.39,1058.11"/>
<path d="M937.57,1121.18,957.64,1280.17"/>
<path d="M1284.33,1983.49,1402.99,2088.25"/>
<path d="M1284.33,1983.49,1099.93,1898.39"/>
<path d="M1284.33,1983.49,1119.46,2016.29"/>
<path d="M1284.33,1983.49,1426.62,1966.58"/>
<path d="M1284.33,1983.49,1254.23,2083.06"/>
<path d="M1284.33,1983.49,1287.47,1891.40"/>
<path d="M1270.17,1111.43,1123.24,1132.23"/>
<path d="M1270.17,1111.43,1187.85,1004.66"/>
<path d="M1270.17,1111.43,1246.66,1212.68"/>
<path d="M1270.17,1111.43,1312.20,1166.06"/>
<path d="M693.58,42.00,631.71,166.10"/>
<path d="M693.58,42.00,617.67,44.20"/>
<path d="M195.46,1900.68,158.20,1857.58"/>
<path d="M195.46,1900.68,163.67,1933.18"/>
<path d="M316.23,2037.90,384.39,2069.22"/>
<path d="M316.23,2037.90,360.19,2100.33"/>
<path d="M316.23,2037.90,256.78,2124.00"/>
<path d="M316.23,2037.90,252.77,1875.43"/>
<path d="M316.23,2037.90,210.49,2034.35"/>
<path d="M316.23,2037.90,376.75,1979.73"/>
<path d="M1086.74,87.92,1183.76,56.17"/>
<path d="M1704.19,270.73,1750.25,269.23"/>
<path d="M1704.19,270.73,1646.06,151.04"/>
<path d="M1704.19,270.73,1608.41,329.21"/>
<path d="M1704.19,270.73,1710.66,346.18"/>
<path d="M261.63,604.14,293.48,515.50"/>
<path d="M261.63,604.14,198.38,564.23"/>
<path d="M261.63,604.14,242.82,656.09"/>
<path d="M243.03,1435.18,213.25,1351.96"/>
<path d="M243.03,1435.18,367.45,1411.05"/>
<path d="M243.03,1435.18,186.72,1514.73"/>
<path d="M243.03,1435.18,175.32,1440.25"/>
<path d="M384.39,2069.22,360.19,2100.33"/>
<path d="M384.39,2069.22,529.66,2122.06"/>
<path d="M384.39,2069.22,555.76,2026.18"/>
<path d="M384.39,2069.22,376.75,1979.73"/>
<path d="M285.53,672.40,242.82,656.09"/>
<path d="M285.53,672.40,434.20,644.93"/>
<path d="M285.53,672.40,326.74,736.59"/>
<path d="M1444.13,676.87,1416.70,626.12"/>
<path d="M1444.13,676.87,1492.31,609.73"/>
<path d="M1444.13,676.87,1350.29,687.66"/>
<path d="M1444.13,676.87,1454.40,703.19"/>
<path d="M1123.24,1132.23,1107.39,1058.11"/>
<path d="M293.48,515.50,198.38,564.23"/>
<path d="M293.48,515.50,357.70,458.06"/>
<path d="M293.48,515.50,434.20,644.93"/>
<path d="M1272.43,2174.63,1402.99,2088.25"/>
<path d="M1272.43,2174.63,1204.78,2120.19"/>
<path d="M1272.43,2174.63,1254.23,2083.06"/>
<path d="M1667.80,911.29,1721.41,844.41"/>
<path d="M1667.80,911.29,1710.86,972.17"/>
<path d="M1667.80,911.29,1638.18,948.09"/>
<path d="M360.19,2100.33,256.78,2124.00"/>
<path d="M834.35,2057.03,748.78,1879.48"/>
<path d="M834.35,2057.03,850.16,2100.08"/>
<path d="M834.35,2057.03,689.11,2026.73"/>
<path d="M766.71,715.18,810.01,646.36"/>
<path d="M766.71,715.18,622.50,670.35"/>
<path d="M766.71,715.18,785.68,749.70"/>
<path d="M2154.37,1044.66,2083.76,1184.18"/>
<path d="M365.29,1194.24,262.21,1329.75"/>
<path d="M365.29,1194.24,503.05,1399.80"/>
<path d="M1546.22,1035.11,1458.27,1143.62"/>
<path d="M1546.22,1035.11,1480.08,1022.31"/>
<path d="M1546.22,1035.11,1572.45,1040.85"/>
<path d="M1104.16,775.59,1109.28,742.08"/>
<path d="M1104.16,775.59,1148.61,825.82"/>
<path d="M1104.16,775.59,1078.77,779.70"/>
<path d="M1421.43,1069.78,1458.27,1143.62"/>
<path d="M1458.27,1143.62,1432.61,1224.13"/>
<path d="M1458.27,1143.62,1568.10,1126.00"/>
<path d="M1458.27,1143.62,1312.20,1166.06"/>
<path d="M1800.29,314.20,1750.25,269.23"/>
<path d="M1800.29,314.20,1973.72,369.81"/>
<path d="M1800.29,314.20,1875.20,239.33"/>
<path d="M1800.29,314.20,1710.66,346.18"/>
<path d="M100.64,1143.16,161.79,1167.32"/>
<path d="M365.57,416.42,435.55,393.05"/>
<path d="M365.57,416.42,275.41,328.07"/>
<path d="M365.57,416.42,357.70,458.06"/>
<path d="M887.13,1646.65,842.27,1563.55"/>
<path d="M887.13,1646.65,939.12,1596.59"/>
<path d="M887.13,1646.65,953.22,1812.47"/>
<path d="M2176.56,615.00,2028.72,619.35"/>
<path d="M2176.56,615.00,2167.21,759.08"/>
<path d="M2176.56,615.00,2112.19,746.30"/>
<path d="M2176.56,615.00,2159.47,543.97"/>
<path d="M2176.56,615.00,2075.63,712.45"/>
<path d="M2033.82,399.07,2050.10,442.07"/>
<path d="M2033.82,399.07,2004.73,388.33"/>
<path d="M2033.82,399.07,2061.74,358.59"/>
<path d="M1379.68,937.64,1231.33,902.44"/>
<path d="M1379.68,937.64,1429.53,772.70"/>
<path d="M1379.68,937.64,1381.23,761.77"/>
<path d="M1379.68,937.64,1480.87,978.65"/>
<path d="M249.74,1107.53,311.83,1065.50"/>
<path d="M249.74,1107.53,241.80,1057.44"/>
<path d="M1231.33,902.44,1148.61,825.82"/>
<path d="M1231.33,902.44,1187.85,1004.66"/>
<path d="M1231.33,902.44,1381.23,761.77"/>
<path d="M620.58,1140.10,711.25,1124.71"/>
<path d="M620.58,1140.10,722.16,1311.04"/>
<path d="M620.58,1140.10,455.22,1072.94"/>
<path d="M620.58,1140.10,601.60,1358.64"/>
<path d="M2053.38,544.39,2050.10,442.07"/>
<path d="M2053.38,544.39,2159.47,543.97"/>
<path d="M262.21,1329.75,213.25,1351.96"/>
<path d="M262.21,1329.75,367.45,1411.05"/>
<path d="M262.21,1329.75,220.52,1313.11"/>
<path d="M736.62,332.05,611.63,250.62"/>
<path d="M736.62,332.05,846.34,209.82"/>
<path d="M736.62,332.05,846.83,406.45"/>
<path d="M736.62,332.05,723.60,412.94"/>
<path d="M1933.13,71.44,1820.63,12.75"/>
<path d="M1933.13,71.44,1943.65,139.18"/>
<path d="M1933.13,71.44,2061.34,107.83"/>
<path d="M1933.13,71.44,1765.43,126.61"/>
<path d="M1933.13,71.44,1942.21,27.67"/>
<path d="M2050.10,442.07,1859.19,522.37"/>
<path d="M842.27,1563.55,939.12,1596.59"/>
<path d="M842.27,1563.55,693.89,1534.86"/>
<path d="M842.27,1563.55,862.40,1524.00"/>
<path d="M183.61,2156.39,256.78,2124.00"/>
<path d="M183.61,2156.39,210.49,2034.35"/>
<path d="M184.68,839.23,208.93,853.67"/>
<path d="M184.68,839.23,82.77,748.99"/>
<path d="M184.68,839.23,242.82,656.09"/>
<path d="M283.33,1777.92,205.33,1706.41"/>
<path d="M283.33,1777.92,301.03,1731.42"/>
<path d="M283.33,1777.92,295.95,1817.55"/>
<path d="M435.55,393.05,467.66,443.35"/>
<path d="M1820.63,12.75,1942.21,27.67"/>
<path d="M1820.63,12.75,1735.01,47.74"/>
<path d="M555.85,590.56,635.63,617.87"/>
<path d="M555.85,590.56,544.98,674.28"/>
<path d="M555.85,590.56,649.77,547.94"/>
<path d="M555.85,590.56,434.20,644.93"/>
<path d="M555.85,590.56,541.86,560.70"/>
<path d="M1402.99,2088.25,1517.59,2160.16"/>
<path d="M1402.99,2088.25,1426.62,1966.58"/>
<path d="M1402.99,2088.25,1254.23,2083.06"/>
<path d="M1614.46,709.73,1562.37,736.39"/>
<path d="M1614.46,709.73,1622.32,754.30"/>
<path d="M939.12,1596.59,1132.92,1698.70"/>
<path d="M939.12,1596.59,862.40,1524.00"/>
<path d="M748.78,1879.48,924.79,1934.92"/>
<path d="M748.78,1879.48,953.22,1812.47"/>
<path d="M748.78,1879.48,700.55,1731.41"/>
<path d="M748.78,1879.48,772.37,1742.41"/>
<path d="M748.78,1879.48,671.18,1901.62"/>
<path d="M2129.76,1667.06,2038.38,1522.50"/>
<path d="M2129.76,1667.06,2091.29,1713.32"/>
<path d="M2129.76,1667.06,2161.97,1762.41"/>
<path d="M1432.61,1224.13,1386.55,1317.23"/>
<path d="M1432.61,1224.13,1542.16,1263.28"/>
<path d="M1432.61,1224.13,1452.68,1334.75"/>
<path d="M1432.61,1224.13,1331.71,1214.72"/>
<path d="M994.66,561.81,964.50,501.59"/>
<path d="M994.66,561.81,1007.12,589.09"/>
<path d="M994.66,561.81,1073.40,455.78"/>
<path d="M278.88,853.83,208.93,853.67"/>
<path d="M278.88,853.83,361.46,868.33"/>
<path d="M278.88,853.83,326.74,736.59"/>
<path d="M208.93,853.67,191.28,921.58"/>
<path d="M568.75,796.89,466.59,846.32"/>
<path d="M568.75,796.89,626.62,780.40"/>
<path d="M568.75,796.89,465.02,799.62"/>
<path d="M1543.22,1971.73,1517.59,2160.16"/>
<path d="M1543.22,1971.73,1513.75,1971.39"/>
<path d="M1543.22,1971.73,1628.52,1956.54"/>
<path d="M1543.22,1971.73,1598.42,1830.18"/>
<path d="M529.66,2122.06,603.86,2164.63"/>
<path d="M1926.32,1591.13,1968.39,1570.34"/>
<path d="M1109.28,742.08,1064.84,569.35"/>
<path d="M1109.28,742.08,1007.12,589.09"/>
<path d="M1109.28,742.08,1241.69,598.08"/>
<path d="M2141.18,2169.75,1979.10,2105.90"/>
<path d="M2141.18,2169.75,2050.71,2039.39"/>
<path d="M2141.18,2169.75,2165.77,2019.67"/>
<path d="M1809.31,2139.67,1889.88,2090.64"/>
<path d="M1809.31,2139.67,1846.17,2179.32"/>
<path d="M1429.53,772.70,1512.26,774.96"/>
<path d="M1429.53,772.70,1381.23,761.77"/>
<path d="M1429.53,772.70,1454.40,703.19"/>
<path d="M63.92,1813.21,63.98,1774.83"/>
<path d="M63.92,1813.21,122.02,1902.34"/>
<path d="M63.92,1813.21,18.68,1787.77"/>
<path d="M63.92,1813.21,158.20,1857.58"/>
<path d="M611.63,250.62,631.71,166.10"/>
<path d="M964.50,501.59,854.26,505.47"/>
<path d="M964.50,501.59,891.48,433.09"/>
<path d="M964.50,501.59,1073.40,455.78"/>
<path d="M1443.69,422.46,1401.57,364.89"/>
<path d="M1443.69,422.46,1608.41,329.21"/>
<path d="M1443.69,422.46,1384.77,438.02"/>
<path d="M1443.69,422.46,1515.62,523.19"/>
<path d="M1947.94,1521.31,2038.38,1522.50"/>
<path d="M1947.94,1521.31,1914.17,1433.36"/>
<path d="M1947.94,1521.31,2013.88,1407.69"/>
<path d="M1947.94,1521.31,1968.39,1570.34"/>
<path d="M1699.05,2049.95,1688.90,2148.08"/>
<path d="M1699.05,2049.95,1628.52,1956.54"/>
<path d="M1699.05,2049.95,1771.66,2068.76"/>
<path d="M1699.05,2049.95,1750.26,1998.33"/>
<path d="M1262.39,234.58,1309.97,242.01"/>
<path d="M1262.39,234.58,1269.16,176.62"/>
<path d="M458.15,549.69,434.20,644.93"/>
<path d="M458.15,549.69,541.86,560.70"/>
<path d="M458.15,549.69,453.77,517.94"/>
<path d="M1979.10,2105.90,1889.88,2090.64"/>
<path d="M1979.10,2105.90,2050.71,2039.39"/>
<path d="M1979.10,2105.90,1947.75,2149.14"/>
<path d="M777.65,1439.20,693.89,1534.86"/>
<path d="M777.65,1439.20,774.19,1352.30"/>
<path d="M777.65,1439.20,831.71,1432.43"/>
<path d="M1750.25,269.23,1765.43,126.61"/>
<path d="M1750.25,269.23,1710.66,346.18"/>
<path d="M1148.61,825.82,1350.29,687.66"/>
<path d="M176.96,1699.60,199.81,1624.91"/>
<path d="M176.96,1699.60,205.33,1706.41"/>
<path d="M176.96,1699.60,127.33,1769.21"/>
<path d="M176.96,1699.60,153.50,1644.06"/>
<path d="M635.63,617.87,810.01,646.36"/>
<path d="M635.63,617.87,622.50,670.35"/>
<path d="M635.63,617.87,649.77,547.94"/>
<path d="M112.28,66.46,71.67,2.41"/>
<path d="M112.28,66.46,108.97,187.93"/>
<path d="M112.28,66.46,172.04,95.40"/>
<path d="M2028.72,619.35,1884.67,616.80"/>
<path d="M2028.72,619.35,2075.63,712.45"/>
<path d="M2129.92,145.58,2148.50,22.96"/>
<path d="M2129.92,145.58,2061.34,107.83"/>
<path d="M2129.92,145.58,2061.74,358.59"/>
<path d="M1136.72,1491.46,1142.72,1351.57"/>
<path d="M1136.72,1491.46,1027.07,1377.52"/>
<path d="M1136.72,1491.46,1225.43,1414.57"/>
<path d="M256.78,2124.00,210.49,2034.35"/>
<path d="M467.66,443.35,357.70,458.06"/>
<path d="M467.66,443.35,453.77,517.94"/>
<path d="M1831.31,467.90,1973.72,369.81"/>
<path d="M1831.31,467.90,1793.25,505.21"/>
<path d="M1831.31,467.90,1859.19,522.37"/>
<path d="M2048.55,1754.92,2039.97,1703.84"/>
<path d="M2048.55,1754.92,1953.41,1796.93"/>
<path d="M16.66,998.38,82.77,748.99"/>
<path d="M16.66,998.38,191.28,921.58"/>
<path d="M275.41,328.07,326.08,102.66"/>
<path d="M275.41,328.07,158.89,510.02"/>
<path d="M275.41,328.07,183.43,240.19"/>
<path d="M867.87,1041.35,925.95,900.50"/>
<path d="M867.87,1041.35,856.64,1079.68"/>
<path d="M396.23,825.69,466.59,846.32"/>
<path d="M396.23,825.69,361.46,868.33"/>
<path d="M396.23,825.69,446.69,909.67"/>
<path d="M396.23,825.69,465.02,799.62"/>
<path d="M396.23,825.69,326.74,736.59"/>
<path d="M2038.38,1522.50,2013.88,1407.69"/>
<path d="M2038.38,1522.50,1968.39,1570.34"/>
<path d="M1328.82,1548.98,1293.29,1416.57"/>
<path d="M1562.37,736.39,1492.31,609.73"/>
<path d="M1562.37,736.39,1622.32,754.30"/>
<path d="M1562.37,736.39,1551.37,764.61"/>
<path d="M1064.84,569.35,1007.12,589.09"/>
<path d="M1064.84,569.35,1073.40,455.78"/>
<path d="M1721.41,844.41,1731.48,818.72"/>
<path d="M1517.59,2160.16,1688.90,2148.08"/>
<path d="M1517.59,2160.16,1513.75,1971.39"/>
<path d="M693.89,1534.86,625.17,1609.89"/>
<path d="M693.89,1534.86,552.45,1491.78"/>
<path d="M924.79,1934.92,993.99,1950.37"/>
<path d="M924.79,1934.92,930.42,1984.30"/>
<path d="M924.79,1934.92,989.37,1837.46"/>
<path d="M1478.02,1791.04,1427.25,1841.01"/>
<path d="M1478.02,1791.04,1378.75,1685.43"/>
<path d="M1478.02,1791.04,1488.62,1689.55"/>
<path d="M1478.02,1791.04,1598.42,1830.18"/>
<path d="M199.81,1624.91,240.01,1667.51"/>
<path d="M199.81,1624.91,153.50,1644.06"/>
<path d="M161.79,1167.32,220.52,1313.11"/>
<path d="M861.96,802.10,785.68,749.70"/>
<path d="M861.96,802.10,925.95,900.50"/>
<path d="M1633.33,9.57,1677.94,11.07"/>
<path d="M1633.33,9.57,1568.85,39.14"/>
<path d="M1633.33,9.57,1664.74,117.32"/>
<path d="M63.98,1774.83,18.68,1787.77"/>
<path d="M63.98,1774.83,127.33,1769.21"/>
<path d="M2039.97,1703.84,1992.19,1710.39"/>
<path d="M2039.97,1703.84,2091.29,1713.32"/>
<path d="M1183.76,56.17,1214.01,103.19"/>
<path d="M959.32,1462.55,878.97,1412.93"/>
<path d="M959.32,1462.55,935.29,1370.03"/>
<path d="M959.32,1462.55,1027.07,1377.52"/>
<path d="M959.32,1462.55,862.40,1524.00"/>
<path d="M1943.65,139.18,2061.34,107.83"/>
<path d="M1943.65,139.18,1765.43,126.61"/>
<path d="M1943.65,139.18,1875.20,239.33"/>
<path d="M2083.76,1184.18,1988.71,1182.32"/>
<path d="M1416.70,626.12,1492.31,609.73"/>
<path d="M1416.70,626.12,1464.45,569.82"/>
<path d="M1416.70,626.12,1350.29,687.66"/>
<path d="M1416.70,626.12,1318.94,474.62"/>
<path d="M878.97,1412.93,935.29,1370.03"/>
<path d="M878.97,1412.93,826.47,1336.75"/>
<path d="M878.97,1412.93,831.71,1432.43"/>
<path d="M1973.72,369.81,2004.73,388.33"/>
<path d="M1973.72,369.81,1875.20,239.33"/>
<path d="M1568.10,1126.00,1542.16,1263.28"/>
<path d="M1568.10,1126.00,1632.04,1189.59"/>
<path d="M1568.10,1126.00,1572.45,1040.85"/>
<path d="M1568.10,1126.00,1634.49,1064.32"/>
<path d="M1708.73,1297.53,1632.04,1189.59"/>
<path d="M1708.73,1297.53,1733.56,1390.35"/>
<path d="M1708.73,1297.53,1802.48,1260.93"/>
<path d="M1677.94,11.07,1735.01,47.74"/>
<path d="M1677.94,11.07,1664.74,117.32"/>
<path d="M1992.19,1710.39,1953.41,1796.93"/>
<path d="M1992.19,1710.39,1968.39,1570.34"/>
<path d="M1451.99,1642.33,1378.75,1685.43"/>
<path d="M1451.99,1642.33,1402.95,1608.04"/>
<path d="M1451.99,1642.33,1465.42,1572.69"/>
<path d="M1451.99,1642.33,1488.62,1689.55"/>
<path d="M1889.88,2090.64,1947.75,2149.14"/>
<path d="M1889.88,2090.64,1846.17,2179.32"/>
<path d="M1889.88,2090.64,1945.04,1861.29"/>
<path d="M363.11,1712.29,333.21,1720.88"/>
<path d="M363.11,1712.29,369.94,1809.69"/>
<path d="M363.11,1712.29,466.91,1747.31"/>
<path d="M363.11,1712.29,459.04,1552.59"/>
<path d="M213.25,1351.96,220.52,1313.11"/>
<path d="M213.25,1351.96,175.32,1440.25"/>
<path d="M1120.26,2064.29,1080.94,2108.99"/>
<path d="M1120.26,2064.29,1081.70,2018.62"/>
<path d="M1120.26,2064.29,1119.46,2016.29"/>
<path d="M333.21,1720.88,301.03,1731.42"/>
<path d="M333.21,1720.88,369.94,1809.69"/>
<path d="M1427.25,1841.01,1287.47,1891.40"/>
<path d="M1386.55,1317.23,1293.29,1416.57"/>
<path d="M1386.55,1317.23,1251.23,1354.15"/>
<path d="M1386.55,1317.23,1452.68,1334.75"/>
<path d="M1386.55,1317.23,1331.71,1214.72"/>
<path d="M1492.31,609.73,1464.45,569.82"/>
<path d="M622.50,670.35,626.62,780.40"/>
<path d="M622.50,670.35,544.98,674.28"/>
<path d="M1710.86,972.17,1638.18,948.09"/>
<path d="M1710.86,972.17,1634.49,1064.32"/>
<path d="M1710.86,972.17,1834.82,1129.62"/>
<path d="M2148.50,22.96,2098.97,16.78"/>
<path d="M1542.16,1263.28,1632.04,1189.59"/>
<path d="M1542.16,1263.28,1452.68,1334.75"/>
<path d="M1542.16,1263.28,1602.80,1303.80"/>
<path d="M1793.25,505.21,1828.28,547.23"/>
<path d="M854.26,505.47,755.14,439.26"/>
<path d="M854.26,505.47,891.48,433.09"/>
<path d="M935.29,1370.03,826.47,1336.75"/>
<path d="M935.29,1370.03,965.43,1353.05"/>
<path d="M1646.06,151.04,1664.74,117.32"/>
<path d="M826.47,1336.75,774.19,1352.30"/>
<path d="M826.47,1336.75,831.71,1432.43"/>
<path d="M826.47,1336.75,957.64,1280.17"/>
<path d="M1033.80,2041.55,993.99,1950.37"/>
<path d="M1033.80,2041.55,930.42,1984.30"/>
<path d="M1033.80,2041.55,1081.70,2018.62"/>
<path d="M1033.80,2041.55,1025.61,2087.29"/>
<path d="M770.21,1246.85,711.25,1124.71"/>
<path d="M770.21,1246.85,722.16,1311.04"/>
<path d="M252.77,1875.43,376.75,1979.73"/>
<path d="M252.77,1875.43,295.95,1817.55"/>
<path d="M1828.28,547.23,1811.95,602.54"/>
<path d="M1828.28,547.23,1859.19,522.37"/>
<path d="M1828.28,547.23,1884.67,616.80"/>
<path d="M1924.50,1216.53,1983.38,1263.25"/>
<path d="M1924.50,1216.53,1896.25,1279.64"/>
<path d="M1924.50,1216.53,1988.71,1182.32"/>
<path d="M1638.18,948.09,1572.45,1040.85"/>
<path d="M1638.18,948.09,1634.49,1064.32"/>
<path d="M1431.61,1479.61,1293.29,1416.57"/>
<path d="M1431.61,1479.61,1465.42,1572.69"/>
<path d="M1431.61,1479.61,1452.68,1334.75"/>
<path d="M1431.61,1479.61,1524.37,1495.35"/>
<path d="M110.50,297.42,108.97,187.93"/>
<path d="M110.50,297.42,71.13,298.17"/>
<path d="M110.50,297.42,158.89,510.02"/>
<path d="M110.50,297.42,151.85,199.99"/>
<path d="M110.50,297.42,183.43,240.19"/>
<path d="M603.86,2164.63,598.86,2077.77"/>
<path d="M311.83,1065.50,241.80,1057.44"/>
<path d="M311.83,1065.50,455.22,1072.94"/>
<path d="M82.77,748.99,242.82,656.09"/>
<path d="M82.77,748.99,16.26,550.87"/>
<path d="M198.38,564.23,158.89,510.02"/>
<path d="M925.95,900.50,1107.39,1058.11"/>
<path d="M1811.95,602.54,1884.67,616.80"/>
<path d="M1811.95,602.54,1802.02,665.71"/>
<path d="M711.25,1124.71,716.71,1066.91"/>
<path d="M1632.04,1189.59,1602.80,1303.80"/>
<path d="M1632.04,1189.59,1634.49,1064.32"/>
<path d="M1632.04,1189.59,1834.82,1129.62"/>
<path d="M86.22,2123.17,65.07,2176.41"/>
<path d="M86.22,2123.17,38.48,2128.57"/>
<path d="M953.22,1812.47,989.37,1837.46"/>
<path d="M1080.94,2108.99,1025.61,2087.29"/>
<path d="M2167.21,759.08,2112.19,746.30"/>
<path d="M2167.21,759.08,2142.99,810.48"/>
<path d="M205.33,1706.41,301.03,1731.42"/>
<path d="M205.33,1706.41,240.01,1667.51"/>
<path d="M241.80,1057.44,237.03,985.99"/>
<path d="M458.89,1468.11,367.45,1411.05"/>
<path d="M458.89,1468.11,552.45,1491.78"/>
<path d="M458.89,1468.11,503.05,1399.80"/>
<path d="M458.89,1468.11,438.34,1492.74"/>
<path d="M1914.17,1433.36,2013.88,1407.69"/>
<path d="M1914.17,1433.36,1896.25,1279.64"/>
<path d="M1914.17,1433.36,1836.35,1314.27"/>
<path d="M1622.32,754.30,1651.34,751.12"/>
<path d="M1401.57,364.89,1383.81,299.37"/>
<path d="M1401.57,364.89,1384.77,438.02"/>
<path d="M1401.57,364.89,1338.45,363.00"/>
<path d="M2061.34,107.83,2074.09,47.64"/>
<path d="M586.80,25.84,617.67,44.20"/>
<path d="M1515.64,1581.92,1498.07,1564.09"/>
<path d="M1515.64,1581.92,1592.55,1539.49"/>
<path d="M1738.64,1839.85,1865.05,1806.40"/>
<path d="M1738.64,1839.85,1731.37,1745.36"/>
<path d="M1738.64,1839.85,1713.73,1891.93"/>
<path d="M1738.64,1839.85,1598.42,1830.18"/>
<path d="M1029.80,1268.12,1051.01,1347.39"/>
<path d="M1029.80,1268.12,957.64,1280.17"/>
<path d="M625.17,1609.89,641.51,1643.03"/>
<path d="M625.17,1609.89,554.11,1666.57"/>
<path d="M301.03,1731.42,240.01,1667.51"/>
<path d="M1914.70,1101.79,1988.71,1182.32"/>
<path d="M1914.70,1101.79,1834.82,1129.62"/>
<path d="M108.97,187.93,151.85,199.99"/>
<path d="M108.97,187.93,172.04,95.40"/>
<path d="M463.16,980.68,455.22,1072.94"/>
<path d="M463.16,980.68,446.69,909.67"/>
<path d="M722.16,1311.04,601.60,1358.64"/>
<path d="M722.16,1311.04,774.19,1352.30"/>
<path d="M367.45,1411.05,438.34,1492.74"/>
<path d="M1480.08,1022.31,1480.87,978.65"/>
<path d="M846.83,406.45,755.14,439.26"/>
<path d="M846.83,406.45,891.48,433.09"/>
<path d="M237.03,985.99,191.28,921.58"/>
<path d="M2112.19,746.30,2142.99,810.48"/>
<path d="M2112.19,746.30,2094.69,795.76"/>
<path d="M2112.19,746.30,2075.63,712.45"/>
<path d="M1498.07,1564.09,1465.42,1572.69"/>
<path d="M1498.07,1564.09,1524.37,1495.35"/>
<path d="M1309.97,242.01,1383.81,299.37"/>
<path d="M1512.26,774.96,1551.37,764.61"/>
<path d="M1512.26,774.96,1480.87,978.65"/>
<path d="M1512.26,774.96,1454.40,703.19"/>
<path d="M1857.67,1272.76,1896.25,1279.64"/>
<path d="M1857.67,1272.76,1836.35,1314.27"/>
<path d="M1857.67,1272.76,1802.48,1260.93"/>
<path d="M1765.43,126.61,1735.01,47.74"/>
<path d="M1765.43,126.61,1875.20,239.33"/>
<path d="M1765.43,126.61,1664.74,117.32"/>
<path d="M555.76,2026.18,598.86,2077.77"/>
<path d="M555.76,2026.18,545.79,1888.44"/>
<path d="M555.76,2026.18,376.75,1979.73"/>
<path d="M555.76,2026.18,671.18,1901.62"/>
<path d="M2050.71,2039.39,2144.60,1965.72"/>
<path d="M2050.71,2039.39,2165.77,2019.67"/>
<path d="M2050.71,2039.39,1945.04,1861.29"/>
<path d="M1378.75,1685.43,1402.95,1608.04"/>
<path d="M1378.75,1685.43,1299.60,1756.75"/>
<path d="M466.59,846.32,446.69,909.67"/>
<path d="M466.59,846.32,465.02,799.62"/>
<path d="M702.65,491.21,649.77,547.94"/>
<path d="M702.65,491.21,755.14,439.26"/>
<path d="M702.65,491.21,723.60,412.94"/>
<path d="M1336.68,197.96,1451.06,77.47"/>
<path d="M1293.29,1416.57,1251.23,1354.15"/>
<path d="M1293.29,1416.57,1225.43,1414.57"/>
<path d="M601.60,1358.64,552.45,1491.78"/>
<path d="M601.60,1358.64,503.05,1399.80"/>
<path d="M1753.91,767.60,1651.34,751.12"/>
<path d="M1753.91,767.60,1731.48,818.72"/>
<path d="M1753.91,767.60,1772.74,731.21"/>
<path d="M1448.64,34.86,1568.85,39.14"/>
<path d="M1448.64,34.86,1451.06,77.47"/>
<path d="M1953.41,1796.93,1865.05,1806.40"/>
<path d="M1953.41,1796.93,1945.04,1861.29"/>
<path d="M1859.19,522.37,1884.67,616.80"/>
<path d="M993.99,1950.37,1099.93,1898.39"/>
<path d="M993.99,1950.37,930.42,1984.30"/>
<path d="M993.99,1950.37,1081.70,2018.62"/>
<path d="M993.99,1950.37,989.37,1837.46"/>
<path d="M1681.46,1539.08,1648.37,1495.93"/>
<path d="M1681.46,1539.08,1592.55,1539.49"/>
<path d="M357.70,458.06,453.77,517.94"/>
<path d="M700.55,1731.41,641.51,1643.03"/>
<path d="M700.55,1731.41,772.37,1742.41"/>
<path d="M700.55,1731.41,671.18,1901.62"/>
<path d="M1251.23,1354.15,1221.98,1290.61"/>
<path d="M1251.23,1354.15,1142.72,1351.57"/>
<path d="M1251.23,1354.15,1225.43,1414.57"/>
<path d="M544.98,674.28,434.20,644.93"/>
<path d="M1099.93,1898.39,1081.70,2018.62"/>
<path d="M1099.93,1898.39,1132.92,1698.70"/>
<path d="M1099.93,1898.39,1119.46,2016.29"/>
<path d="M1099.93,1898.39,989.37,1837.46"/>
<path d="M1099.93,1898.39,1244.83,1825.70"/>
<path d="M16.26,550.87,11.37,353.32"/>
<path d="M16.26,550.87,158.89,510.02"/>
<path d="M326.08,102.66,230.39,76.16"/>
<path d="M326.08,102.66,320.39,4.04"/>
<path d="M2074.09,47.64,2037.58,21.15"/>
<path d="M2074.09,47.64,2098.97,16.78"/>
<path d="M1884.67,616.80,1802.02,665.71"/>
<path d="M1884.67,616.80,1873.53,736.64"/>
<path d="M1947.75,2149.14,1846.17,2179.32"/>
<path d="M1651.34,751.12,1731.48,818.72"/>
<path d="M1214.01,103.19,1269.16,176.62"/>
<path d="M1051.01,1347.39,1142.72,1351.57"/>
<path d="M1051.01,1347.39,1027.07,1377.52"/>
<path d="M11.37,353.32,71.13,298.17"/>
<path d="M11.37,353.32,158.89,510.02"/>
<path d="M1513.75,1971.39,1426.62,1966.58"/>
<path d="M1007.12,589.09,896.19,641.54"/>
<path d="M859.45,2124.49,850.16,2100.08"/>
<path d="M230.39,76.16,320.39,4.04"/>
<path d="M230.39,76.16,187.93,72.13"/>
<path d="M774.19,1352.30,831.71,1432.43"/>
<path d="M1231.96,1569.05,1225.43,1414.57"/>
<path d="M856.64,1079.68,716.71,1066.91"/>
<path d="M89.30,1986.30,122.02,1902.34"/>
<path d="M89.30,1986.30,210.49,2034.35"/>
<path d="M89.30,1986.30,163.67,1933.18"/>
<path d="M755.14,439.26,723.60,412.94"/>
<path d="M1221.98,1290.61,1246.66,1212.68"/>
<path d="M434.20,644.93,465.02,799.62"/>
<path d="M434.20,644.93,326.74,736.59"/>
<path d="M1464.45,569.82,1384.77,438.02"/>
<path d="M1464.45,569.82,1515.62,523.19"/>
<path d="M2037.58,21.15,1942.21,27.67"/>
<path d="M1145.22,471.51,1174.43,456.95"/>
<path d="M1145.22,471.51,1073.40,455.78"/>
<path d="M1572.45,1040.85,1634.49,1064.32"/>
<path d="M1865.05,1806.40,1731.37,1745.36"/>
<path d="M1865.05,1806.40,1945.04,1861.29"/>
<path d="M122.02,1902.34,158.20,1857.58"/>
<path d="M122.02,1902.34,163.67,1933.18"/>
<path d="M598.86,2077.77,689.11,2026.73"/>
<path d="M1081.70,2018.62,1119.46,2016.29"/>
<path d="M1132.92,1698.70,989.37,1837.46"/>
<path d="M1132.92,1698.70,1244.83,1825.70"/>
<path d="M831.71,1432.43,862.40,1524.00"/>
<path d="M369.94,1809.69,545.79,1888.44"/>
<path d="M369.94,1809.69,376.75,1979.73"/>
<path d="M369.94,1809.69,466.91,1747.31"/>
<path d="M369.94,1809.69,295.95,1817.55"/>
<path d="M2142.99,810.48,2094.69,795.76"/>
<path d="M1383.81,299.37,1338.45,363.00"/>
<path d="M631.71,166.10,617.67,44.20"/>
<path d="M965.43,1353.05,957.64,1280.17"/>
<path d="M965.43,1353.05,1027.07,1377.52"/>
<path d="M1187.85,1004.66,1107.39,1058.11"/>
<path d="M545.79,1888.44,376.75,1979.73"/>
<path d="M545.79,1888.44,466.91,1747.31"/>
<path d="M545.79,1888.44,671.18,1901.62"/>
<path d="M1350.29,687.66,1381.23,761.77"/>
<path d="M1350.29,687.66,1241.69,598.08"/>
<path d="M51.65,1557.85,118.78,1382.25"/>
<path d="M51.65,1557.85,153.50,1644.06"/>
<path d="M210.49,2034.35,163.67,1933.18"/>
<path d="M1628.52,1956.54,1713.73,1891.93"/>
<path d="M1628.52,1956.54,1750.26,1998.33"/>
<path d="M1628.52,1956.54,1598.42,1830.18"/>
<path d="M2142.58,1920.95,2144.60,1965.72"/>
<path d="M2142.58,1920.95,1945.04,1861.29"/>
<path d="M118.78,1382.25,175.32,1440.25"/>
<path d="M1802.02,665.71,1873.53,736.64"/>
<path d="M1802.02,665.71,1772.74,731.21"/>
<path d="M1318.94,474.62,1241.69,598.08"/>
<path d="M1318.94,474.62,1384.77,438.02"/>
<path d="M1318.94,474.62,1338.45,363.00"/>
<path d="M1318.94,474.62,1204.89,484.43"/>
<path d="M151.85,199.99,183.43,240.19"/>
<path d="M151.85,199.99,172.04,95.40"/>
<path d="M1246.66,1212.68,1312.20,1166.06"/>
<path d="M1246.66,1212.68,1331.71,1214.72"/>
<path d="M1174.43,456.95,1204.89,484.43"/>
<path d="M1426.62,1966.58,1287.47,1891.40"/>
<path d="M466.91,1747.31,507.28,1656.78"/>
<path d="M172.04,95.40,187.93,72.13"/>
<path d="M641.51,1643.03,554.11,1666.57"/>
<path d="M361.46,868.33,446.69,909.67"/>
<path d="M1568.85,39.14,1664.74,117.32"/>
<path d="M1568.85,39.14,1451.06,77.47"/>
<path d="M552.45,1491.78,503.05,1399.80"/>
<path d="M552.45,1491.78,459.04,1552.59"/>
<path d="M554.11,1666.57,507.28,1656.78"/>
<path d="M1241.69,598.08,1204.89,484.43"/>
<path d="M186.72,1514.73,175.32,1440.25"/>
<path d="M1402.95,1608.04,1465.42,1572.69"/>
<path d="M1204.78,2120.19,1254.23,2083.06"/>
<path d="M1735.01,47.74,1664.74,117.32"/>
<path d="M1731.37,1745.36,1598.42,1830.18"/>
<path d="M1312.20,1166.06,1331.71,1214.72"/>
<path d="M65.07,2176.41,38.48,2128.57"/>
<path d="M1142.72,1351.57,1225.43,1414.57"/>
<path d="M1983.38,1263.25,1896.25,1279.64"/>
<path d="M1983.38,1263.25,1988.71,1182.32"/>
<path d="M1608.41,329.21,1710.66,346.18"/>
<path d="M1608.41,329.21,1515.62,523.19"/>
<path d="M1384.77,438.02,1338.45,363.00"/>
<path d="M1771.66,2068.76,1750.26,1998.33"/>
<path d="M158.20,1857.58,127.33,1769.21"/>
<path d="M459.04,1552.59,507.28,1656.78"/>
<path d="M459.04,1552.59,438.34,1492.74"/>
<path d="M1836.35,1314.27,1802.48,1260.93"/>
<path d="M1713.73,1891.93,1750.26,1998.33"/>
<path d="M1713.73,1891.93,1598.42,1830.18"/>
<path d="M1648.37,1495.93,1592.55,1539.49"/>
<path d="M2161.97,1762.41,2115.72,1774.08"/>
<path d="M1244.83,1825.70,1299.60,1756.75"/>
<path d="M1244.83,1825.70,1287.47,1891.40"/>
<path d="M671.18,1901.62,689.11,2026.73"/>
<path d="M1802.48,1260.93,1834.82,1129.62"/>
<path d="M1634.49,1064.32,1834.82,1129.62"/>
<path d="M2144.60,1965.72,2165.77,2019.67"/>
<path d="M1873.53,736.64,1772.74,731.21"/>
<path d="M1524.37,1495.35,1592.55,1539.49"/>
<path d="M1750.26,1998.33,1945.04,1861.29"/>
<circle cx="2156.65" cy="1195.49" r="10"/>
<text x="2156.65" y="1200.49">R0</text>
<circle cx="878.64" cy="275.84" r="10"/>
<text x="878.64" y="280.84">R1</text>
<circle cx="318.66" cy="1125.61" r="10"/>
<text x="318.66" y="1130.61">R2</text>
<circle cx="965.14" cy="123.46" r="10"/>
<text x="965.14" y="128.46">R3</text>
<circle cx="1244.11" cy="70.14" r="10"/>
<text x="1244.11" y="75.14">R4</text>
<circle cx="1918.02" cy="819.80" r="10"/>
<text x="1918.02" y="824.80">R5</text>
<circle cx="741.81" cy="1367.74" r="10"/>
<text x="741.81" y="1372.74">R6</text>
<circle cx="1899.85" cy="1203.03" r="10"/>
<text x="1899.85" y="1208.03">R7</text>
<circle cx="1023.88" cy="1234.93" r="10"/>
<text x="1023.88" y="1239.93">R8</text>
<circle cx="910.30" cy="674.77" r="10"/>
<text x="910.30" y="679.77">R9</text>
<circle cx="108.82" cy="2098.98" r="10"/>
<text x="108.82" y="2103.98">R10</text>
<circle cx="802.88" cy="1730.09" r="10"/>
<text x="802.88" y="1735.09">R11</text>
<circle cx="1148.68" cy="1574.38" r="10"/>
<text x="1148.68" y="1579.38">R12</text>
<circle cx="1742.59" cy="2141.64" r="10"/>
<text x="1742.59" y="2146.64">R13</text>
<circle cx="1597.40" cy="1391.43" r="10"/>
<text x="1597.40" y="1396.43">R14</text>
<circle cx="216.73" cy="1132.72" r="10"/>
<text x="216.73" y="1137.72">R15</text>
<circle cx="208.38" cy="1879.17" r="10"/>
<text x="208.38" y="1884.17">R16</text>
<circle cx="1058.44" cy="811.32" r="10"/>
<text x="1058.44" y="816.32">R17</text>
<circle cx="2075.65" cy="903.78" r="10"/>
<text x="2075.65" y="908.78">R18</text>
<circle cx="2121.70" cy="939.84" r="10"/>
<text x="2121.70" y="944.84">R19</text>
<circle cx="1136.18" cy="1320.01" r="10"/>
<text x="1136.18" y="1325.01">R20</text>
<circle cx="1212.10" cy="207.44" r="10"/>
<text x="1212.10" y="212.44">R21</text>
<circle cx="1679.00" cy="513.25" r="10"/>
<text x="1679.00" y="518.25">R22</text>
<circle cx="739.18" cy="533.35" r="10"/>
<text x="739.18" y="538.35">R23</text>
<circle cx="1672.95" cy="1409.35" r="10"/>
<text x="1672.95" y="1414.35">R24</text>
<circle cx="1281.64" cy="993.14" r="10"/>
<text x="1281.64" y="998.14">R25</text>
<circle cx="981.41" cy="813.10" r="10"/>
<text x="981.41" y="818.10">R26</text>
<circle cx="1959.74" cy="770.32" r="10"/>
<text x="1959.74" y="775.32">R27</text>
<circle cx="1093.59" cy="209.54" r="10"/>
<text x="1093.59" y="214.54">R28</text>
<circle cx="1686.74" cy="1651.69" r="10"/>
<text x="1686.74" y="1656.69">R29</text>
<circle cx="794.85" cy="1285.56" r="10"/>
<text x="794.85" y="1290.56">R30</text>
<circle cx="2030.59" cy="582.19" r="10"/>
<text x="2030.59" y="587.19">R31</text>
<circle cx="1170.57" cy="1257.86" r="10"/>
<text x="1170.57" y="1262.86">R32</text>
<circle cx="1706.56" cy="1566.02" r="10"/>
<text x="1706.56" y="1571.02">R33</text>
<circle cx="2172.78" cy="1794.34" r="10"/>
<text x="2172.78" y="1799.34">R34</text>
<circle cx="1130.10" cy="565.89" r="10"/>
<text x="1130.10" y="570.89">R35</text>
<circle cx="824.49" cy="87.11" r="10"/>
<text x="824.49" y="92.11">R36</text>
<circle cx="970.29" cy="1504.09" r="10"/>
<text x="970.29" y="1509.09">R37</text>
<circle cx="172.83" cy="1541.53" r="10"/>
<text x="172.83" y="1546.53">R38</text>
<circle cx="816.44" cy="1209.80" r="10"/>
<text x="816.44" y="1214.80">R39</text>
<circle cx="816.82" cy="824.63" r="10"/>
<text x="816.82" y="829.63">R40</text>
<circle cx="1813.68" cy="407.10" r="10"/>
<text x="1813.68" y="412.10">R41</text>
<circle cx="1158.28" cy="1223.83" r="10"/>
<text x="1158.28" y="1228.83">R42</text>
<circle cx="1270.67" cy="1560.37" r="10"/>
<text x="1270.67" y="1565.37">R43</text>
<circle cx="1781.35" cy="2098.38" r="10"/>
<text x="1781.35" y="2103.38">R44</text>
<circle cx="22.37" cy="1247.76" r="10"/>
<text x="22.37" y="1252.76">R45</text>
<circle cx="189.89" cy="1769.44" r="10"/>
<text x="189.89" y="1774.44">R46</text>
<circle cx="895.40" cy="2065.25" r="10"/>
<text x="895.40" y="2070.25">R47</text>
<circle cx="645.49" cy="2.11" r="10"/>
<text x="645.49" y="7.11">R48</text>
<circle cx="1422.55" cy="1031.62" r="10"/>
<text x="1422.55" y="1036.62">R49</text>
<circle cx="1021.51" cy="255.83" r="10"/>
<text x="1021.51" y="260.83">R50</text>
<circle cx="1285.93" cy="9.79" r="10"/>
<text x="1285.93" y="14.79">R51</text>
<circle cx="2052.52" cy="1342.43" r="10"/>
<text x="2052.52" y="1347.43">R52</text>
<circle cx="1393.50" cy="1543.01" r="10"/>
<text x="1393.50" y="1548.01">R53</text>
<circle cx="160.58" cy="1345.39" r="10"/>
<text x="160.58" y="1350.39">R54</text>
<circle cx="1824.03" cy="909.51" r="10"/>
<text x="1824.03" y="914.51">R55</text>
<circle cx="547.19" cy="1603.91" r="10"/>
<text x="547.19" y="1608.91">R56</text>
<circle cx="103.09" cy="1740.77" r="10"/>
<text x="103.09" y="1745.77">R57</text>
<circle cx="672.31" cy="805.16" r="10"/>
<text x="672.31" y="810.16">R58</text>
<circle cx="1634.79" cy="657.72" r="10"/>
<text x="1634.79" y="662.72">R59</text>
<circle cx="1305.47" cy="207.18" r="10"/>
<text x="1305.47" y="212.18">R60</text>
<circle cx="572.24" cy="2088.71" r="10"/>
<text x="572.24" y="2093.71">R61</text>
<circle cx="1348.97" cy="1089.47" r="10"/>
<text x="1348.97" y="1094.47">R62</text>
<circle cx="552.25" cy="735.58" r="10"/>
<text x="552.25" y="740.58">R63</text>
<circle cx="1436.33" cy="1915.81" r="10"/>
<text x="1436.33" y="1920.81">R64</text>
<circle cx="1526.37" cy="169.15" r="10"/>
<text x="1526.37" y="174.15">R65</text>
<circle cx="951.74" cy="837.52" r="10"/>
<text x="951.74" y="842.52">R66</text>
<circle cx="1168.46" cy="1542.22" r="10"/>
<text x="1168.46" y="1547.22">R67</text>
<circle cx="877.54" cy="739.13" r="10"/>
<text x="877.54" y="744.13">R68</text>
<circle cx="478.74" cy="349.13" r="10"/>
<text x="478.74" y="354.13">R69</text>
<circle cx="2003.13" cy="1379.05" r="10"/>
<text x="2003.13" y="1384.05">R70</text>
<circle cx="264.67" cy="1179.42" r="10"/>
<text x="264.67" y="1184.42">R71</text>
<circle cx="947.95" cy="24.63" r="10"/>
<text x="947.95" y="29.63">R72</text>
<circle cx="63.09" cy="1152.98" r="10"/>
<text x="63.09" y="1157.98">R73</text>
<circle cx="788.56" cy="943.59" r="10"/>
<text x="788.56" y="948.59">R74</text>
<circle cx="1756.31" cy="1529.20" r="10"/>
<text x="1756.31" y="1534.20">R75</text>
<circle cx="1058.66" cy="96.12" r="10"/>
<text x="1058.66" y="101.12">R76</text>
<circle cx="701.53" cy="1423.85" r="10"/>
<text x="701.53" y="1428.85">R77</text>
<circle cx="977.15" cy="337.06" r="10"/>
<text x="977.15" y="342.06">R78</text>
<circle cx="1286.46" cy="1703.34" r="10"/>
<text x="1286.46" y="1708.34">R79</text>
<circle cx="1658.05" cy="1333.58" r="10"/>
<text x="1658.05" y="1338.58">R80</text>
<circle cx="762.10" cy="109.11" r="10"/>
<text x="762.10" y="114.11">R81</text>
<circle cx="866.31" cy="610.60" r="10"/>
<text x="866.31" y="615.60">R82</text>
<circle cx="1153.94" cy="2114.08" r="10"/>
<text x="1153.94" y="2119.08">R83</text>
<circle cx="1657.24" cy="848.72" r="10"/>
<text x="1657.24" y="853.72">R84</text>
<circle cx="1912.68" cy="1617.19" r="10"/>
<text x="1912.68" y="1622.19">R85</text>
<circle cx="1339.18" cy="1793.44" r="10"/>
<text x="1339.18" y="1798.44">R86</text>
<circle cx="2093.39" cy="1739.24" r="10"/>
<text x="2093.39" y="1744.24">R87</text>
<circle cx="1113.05" cy="392.82" r="10"/>
<text x="1113.05" y="397.82">R88</text>
<circle cx="1568.36" cy="1468.55" r="10"/>
<text x="1568.36" y="1473.55">R89</text>
<circle cx="1789.75" cy="1365.15" r="10"/>
<text x="1789.75" y="1370.15">R90</text>
<circle cx="421.55" cy="106.36" r="10"/>
<text x="421.55" y="111.36">R91</text>
<circle cx="368.27" cy="1140.63" r="10"/>
<text x="368.27" y="1145.63">R92</text>
<circle cx="937.57" cy="1121.18" r="10"/>
<text x="937.57" y="1126.18">R93</text>
<circle cx="1284.33" cy="1983.49" r="10"/>
<text x="1284.33" y="1988.49">R94</text>
<circle cx="1270.17" cy="1111.43" r="10"/>
<text x="1270.17" y="1116.43">R95</text>
<circle cx="693.58" cy="42.00" r="10"/>
<text x="693.58" y="47.00">R96</text>
<circle cx="195.46" cy="1900.68" r="10"/>
<text x="195.46" y="1905.68">R97</text>
<circle cx="316.23" cy="2037.90" r="10"/>
<text x="316.23" y="2042.90">R98</text>
<circle cx="1086.74" cy="87.92" r="10"/>
<text x="1086.74" y="92.92">R99</text>
<circle cx="1704.19" cy="270.73" r="10"/>
<text x="1704.19" y="275.73">R100</text>
<circle cx="261.63" cy="604.14" r="10"/>
<text x="261.63" y="609.14">R101</text>
<circle cx="243.03" cy="1435.18" r="10"/>
<text x="243.03" y="1440.18">R102</text>
<circle cx="384.39" cy="2069.22" r="10"/>
<text x="384.39" y="2074.22">R103</text>
<circle cx="285.53" cy="672.40" r="10"/>
<text x="285.53" y="677.40">R104</text>
<circle cx="1444.13" cy="676.87" r="10"/>
<text x="1444.13" y="681.87">R105</text>
<circle cx="1123.24" cy="1132.23" r="10"/>
<text x="1123.24" y="1137.23">R106</text>
<circle cx="293.48" cy="515.50" r="10"/>
<text x="293.48" y="520.50">R107</text>
<circle cx="1272.43" cy="2174.63" r="10"/>
<text x="1272.43" y="2179.63">R108</text>
<circle cx="1667.80" cy="911.29" r="10"/>
<text x="1667.80" y="916.29">R109</text>
<circle cx="360.19" cy="2100.33" r="10"/>
<text x="360.19" y="2105.33">R110</text>
<circle cx="834.35" cy="2057.03" r="10"/>
<text x="834.35" y="2062.03">R111</text>
<circle cx="766.71" cy="715.18" r="10"/>
<text x="766.71" y="720.18">R112</text>
<circle cx="2154.37" cy="1044.66" r="10"/>
<text x="2154.37" y="1049.66">R113</text>
<circle cx="365.29" cy="1194.24" r="10"/>
<text x="365.29" y="1199.24">R114</text>
<circle cx="1546.22" cy="1035.11" r="10"/>
<text x="1546.22" y="1040.11">R115</text>
<circle cx="1104.16" cy="775.59" r="10"/>
<text x="1104.16" y="780.59">R116</text>
<circle cx="1421.43" cy="1069.78" r="10"/>
<text x="1421.43" y="1074.78">R117</text>
<circle cx="1458.27" cy="1143.62" r="10"/>
<text x="1458.27" y="1148.62">R118</text>
<circle cx="1800.29" cy="314.20" r="10"/>
<text x="1800.29" y="319.20">R119</text>
<circle cx="100.64" cy="1143.16" r="10"/>
<text x="100.64" y="1148.16">R120</text>
<circle cx="365.57" cy="416.42" r="10"/>
<text x="365.57" y="421.42">R121</text>
<circle cx="887.13" cy="1646.65" r="10"/>
<text x="887.13" y="1651.65">R122</text>
<circle cx="2176.56" cy="615.00" r="10"/>
<text x="2176.56" y="620.00">R123</text>
<circle cx="2033.82" cy="399.07" r="10"/>
<text x="2033.82" y="404.07">R124</text>
<circle cx="1379.68" cy="937.64" r="10"/>
<text x="1379.68" y="942.64">R125</text>
<circle cx="249.74" cy="1107.53" r="10"/>
<text x="249.74" y="1112.53">R126</text>
<circle cx="1231.33" cy="902.44" r="10"/>
<text x="1231.33" y="907.44">R127</text>
<circle cx="620.58" cy="1140.10" r="10"/>
<text x="620.58" y="1145.10">R128</text>
<circle cx="2053.38" cy="544.39" r="10"/>
<text x="2053.38" y="549.39">R129</text>
<circle cx="262.21" cy="1329.75" r="10"/>
<text x="262.21" y="1334.75">R130</text>
<circle cx="736.62" cy="332.05" r="10"/>
<text x="736.62" y="337.05">R131</text>
<circle cx="1933.13" cy="71.44" r="10"/>
<text x="1933.13" y="76.44">R132</text>
<circle cx="2050.10" cy="442.07" r="10"/>
<text x="2050.10" y="447.07">R133</text>
<circle cx="842.27" cy="1563.55" r="10"/>
<text x="842.27" y="1568.55">R134</text>
<circle cx="183.61" cy="2156.39" r="10"/>
<text x="183.61" y="2161.39">R135</text>
<circle cx="184.68" cy="839.23" r="10"/>
<text x="184.68" y="844.23">R136</text>
<circle cx="283.33" cy="1777.92" r="10"/>
<text x="283.33" y="1782.92">R137</text>
<circle cx="435.55" cy="393.05" r="10"/>
<text x="435.55" y="398.05">R138</text>
<circle cx="1820.63" cy="12.75" r="10"/>
<text x="1820.63" y="17.75">R139</text>
<circle cx="555.85" cy="590.56" r="10"/>
<text x="555.85" y="595.56">R140</text>
<circle cx="1402.99" cy="2088.25" r="10"/>
<text x="1402.99" y="2093.25">R141</text>
<circle cx="1614.46" cy="709.73" r="10"/>
<text x="1614.46" y="714.73">R142</text>
<circle cx="939.12" cy="1596.59" r="10"/>
<text x="939.12" y="1601.59">R143</text>
<circle cx="748.78" cy="1879.48" r="10"/>
<text x="748.78" y="1884.48">R144</text>
<circle cx="2129.76" cy="1667.06" r="10"/>
<text x="2129.76" y="1672.06">R145</text>
<circle cx="1432.61" cy="1224.13" r="10"/>
<text x="1432.61" y="1229.13">R146</text>
<circle cx="994.66" cy="561.81" r="10"/>
<text x="994.66" y="566.81">R147</text>
<circle cx="278.88" cy="853.83" r="10"/>
<text x="278.88" y="858.83">R148</text>
<circle cx="208.93" cy="853.67" r="10"/>
<text x="208.93" y="858.67">R149</text>
<circle cx="568.75" cy="796.89" r="10"/>
<text x="568.75" y="801.89">R150</text>
<circle cx="1543.22" cy="1971.73" r="10"/>
<text x="1543.22" y="1976.73">R151</text>
<circle cx="529.66" cy="2122.06" r="10"/>
<text x="529.66" y="2127.06">R152</text>
<circle cx="1926.32" cy="1591.13" r="10"/>
<text x="1926.32" y="1596.13">R153</text>
<circle cx="1109.28" cy="742.08" r="10"/>
<text x="1109.28" y="747.08">R154</text>
<circle cx="2141.18" cy="2169.75" r="10"/>
<text x="2141.18" y="2174.75">R155</text>
<circle cx="1809.31" cy="2139.67" r="10"/>
<text x="1809.31" y="2144.67">R156</text>
<circle cx="1429.53" cy="772.70" r="10"/>
<text x="1429.53" y="777.70">R157</text>
<circle cx="63.92" cy="1813.21" r="10"/>
<text x="63.92" y="1818.21">R158</text>
<circle cx="611.63" cy="250.62" r="10"/>
<text x="611.63" y="255.62">R159</text>
<circle cx="964.50" cy="501.59" r="10"/>
<text x="964.50" y="506.59">R160</text>
<circle cx="1443.69" cy="422.46" r="10"/>
<text x="1443.69" y="427.46">R161</text>
<circle cx="1947.94" cy="1521.31" r="10"/>
<text x="1947.94" y="1526.31">R162</text>
<circle cx="1699.05" cy="2049.95" r="10"/>
<text x="1699.05" y="2054.95">R163</text>
<circle cx="1262.39" cy="234.58" r="10"/>
<text x="1262.39" y="239.58">R164</text>
<circle cx="458.15" cy="549.69" r="10"/>
<text x="458.15" y="554.69">R165</text>
<circle cx="1979.10" cy="2105.90" r="10"/>
<text x="1979.10" y="2110.90">R166</text>
<circle cx="777.65" cy="1439.20" r="10"/>
<text x="777.65" y="1444.20">R167</text>
<circle cx="1750.25" cy="269.23" r="10"/>
<text x="1750.25" y="274.23">R168</text>
<circle cx="1148.61" cy="825.82" r="10"/>
<text x="1148.61" y="830.82">R169</text>
<circle cx="176.96" cy="1699.60" r="10"/>
<text x="176.96" y="1704.60">R170</text>
<circle cx="635.63" cy="617.87" r="10"/>
<text x="635.63" y="622.87">R171</text>
<circle cx="112.28" cy="66.46" r="10"/>
<text x="112.28" y="71.46">R172</text>
<circle cx="2028.72" cy="619.35" r="10"/>
<text x="2028.72" y="624.35">R173</text>
<circle cx="2129.92" cy="145.58" r="10"/>
<text x="2129.92" y="150.58">R174</text>
<circle cx="1136.72" cy="1491.46" r="10"/>
<text x="1136.72" y="1496.46">R175</text>
<circle cx="256.78" cy="2124.00" r="10"/>
<text x="256.78" y="2129.00">R176</text>
<circle cx="467.66" cy="443.35" r="10"/>
<text x="467.66" y="448.35">R177</text>
<circle cx="1831.31" cy="467.90" r="10"/>
<text x="1831.31" y="472.90">R178</text>
<circle cx="2048.55" cy="1754.92" r="10"/>
<text x="2048.55" y="1759.92">R179</text>
<circle cx="16.66" cy="998.38" r="10"/>
<text x="16.66" y="1003.38">R180</text>
<circle cx="275.41" cy="328.07" r="10"/>
<text x="275.41" y="333.07">R181</text>
<circle cx="867.87" cy="1041.35" r="10"/>
<text x="867.87" y="1046.35">R182</text>
<circle cx="396.23" cy="825.69" r="10"/>
<text x="396.23" y="830.69">R183</text>
<circle cx="2038.38" cy="1522.50" r="10"/>
<text x="2038.38" y="1527.50">R184</text>
<circle cx="1328.82" cy="1548.98" r="10"/>
<text x="1328.82" y="1553.98">R185</text>
<circle cx="1562.37" cy="736.39" r="10"/>
<text x="1562.37" y="741.39">R186</text>
<circle cx="1064.84" cy="569.35" r="10"/>
<text x="1064.84" y="574.35">R187</text>
<circle cx="1721.41" cy="844.41" r="10"/>
<text x="1721.41" y="849.41">R188</text>
<circle cx="1517.59" cy="2160.16" r="10"/>
<text x="1517.59" y="2165.16">R189</text>
<circle cx="693.89" cy="1534.86" r="10"/>
<text x="693.89" y="1539.86">R190</text>
<circle cx="924.79" cy="1934.92" r="10"/>
<text x="924.79" y="1939.92">R191</text>
<circle cx="1478.02" cy="1791.04" r="10"/>
<text x="1478.02" y="1796.04">R192</text>
<circle cx="199.81" cy="1624.91" r="10"/>
<text x="199.81" y="1629.91">R193</text>
<circle cx="161.79" cy="1167.32" r="10"/>
<text x="161.79" y="1172.32">R194</text>
<circle cx="861.96" cy="802.10" r="10"/>
<text x="861.96" y="807.10">R195</text>
<circle cx="1633.33" cy="9.57" r="10"/>
<text x="1633.33" y="14.57">R196</text>
<circle cx="63.98" cy="1774.83" r="10"/>
<text x="63.98" y="1779.83">R197</text>
<circle cx="2039.97" cy="1703.84" r="10"/>
<text x="2039.97" y="1708.84">R198</text>
<circle cx="1183.76" cy="56.17" r="10"/>
<text x="1183.76" y="61.17">R199</text>
<circle cx="959.32" cy="1462.55" r="10"/>
<text x="959.32" y="1467.55">R200</text>
<circle cx="1943.65" cy="139.18" r="10"/>
<text x="1943.65" y="144.18">R201</text>
<circle cx="2083.76" cy="1184.18" r="10"/>
<text x="2083.76" y="1189.18">R202</text>
<circle cx="1030.26" cy="50.61" r="10"/>
<text x="1030.26" y="55.61">R203</text>
<circle cx="1416.70" cy="626.12" r="10"/>
<text x="1416.70" y="631.12">R204</text>
<circle cx="878.97" cy="1412.93" r="10"/>
<text x="878.97" y="1417.93">R205</text>
<circle cx="1973.72" cy="369.81" r="10"/>
<text x="1973.72" y="374.81">R206</text>
<circle cx="1568.10" cy="1126.00" r="10"/>
<text x="1568.10" y="1131.00">R207</text>
<circle cx="1708.73" cy="1297.53" r="10"/>
<text x="1708.73" y="1302.53">R208</text>
<circle cx="1677.94" cy="11.07" r="10"/>
<text x="1677.94" y="16.07">R209</text>
<circle cx="1992.19" cy="1710.39" r="10"/>
<text x="1992.19" y="1715.39">R210</text>
<circle cx="1451.99" cy="1642.33" r="10"/>
<text x="1451.99" y="1647.33">R211</text>
<circle cx="810.01" cy="646.36" r="10"/>
<text x="810.01" y="651.36">R212</text>
<circle cx="1889.88" cy="2090.64" r="10"/>
<text x="1889.88" y="2095.64">R213</text>
<circle cx="363.11" cy="1712.29" r="10"/>
<text x="363.11" y="1717.29">R214</text>
<circle cx="213.25" cy="1351.96" r="10"/>
<text x="213.25" y="1356.96">R215</text>
<circle cx="1120.26" cy="2064.29" r="10"/>
<text x="1120.26" y="2069.29">R216</text>
<circle cx="333.21" cy="1720.88" r="10"/>
<text x="333.21" y="1725.88">R217</text>
<circle cx="1427.25" cy="1841.01" r="10"/>
<text x="1427.25" y="1846.01">R218</text>
<circle cx="1386.55" cy="1317.23" r="10"/>
<text x="1386.55" y="1322.23">R219</text>
<circle cx="1492.31" cy="609.73" r="10"/>
<text x="1492.31" y="614.73">R220</text>
<circle cx="622.50" cy="670.35" r="10"/>
<text x="622.50" y="675.35">R221</text>
<circle cx="1710.86" cy="972.17" r="10"/>
<text x="1710.86" y="977.17">R222</text>
<circle cx="2148.50" cy="22.96" r="10"/>
<text x="2148.50" y="27.96">R223</text>
<circle cx="1542.16" cy="1263.28" r="10"/>
<text x="1542.16" y="1268.28">R224</text>
<circle cx="1793.25" cy="505.21" r="10"/>
<text x="1793.25" y="510.21">R225</text>
<circle cx="854.26" cy="505.47" r="10"/>
<text x="854.26" y="510.47">R226</text>
<circle cx="785.68" cy="749.70" r="10"/>
<text x="785.68" y="754.70">R227</text>
<circle cx="2004.73" cy="388.33" r="10"/>
<text x="2004.73" y="393.33">R228</text>
<circle cx="935.29" cy="1370.03" r="10"/>
<text x="935.29" y="1375.03">R229</text>
<circle cx="1646.06" cy="151.04" r="10"/>
<text x="1646.06" y="156.04">R230</text>
<circle cx="2091.29" cy="1713.32" r="10"/>
<text x="2091.29" y="1718.32">R231</text>
<circle cx="826.47" cy="1336.75" r="10"/>
<text x="826.47" y="1341.75">R232</text>
<circle cx="1033.80" cy="2041.55" r="10"/>
<text x="1033.80" y="2046.55">R233</text>
<circle cx="770.21" cy="1246.85" r="10"/>
<text x="770.21" y="1251.85">R234</text>
<circle cx="252.77" cy="1875.43" r="10"/>
<text x="252.77" y="1880.43">R235</text>
<circle cx="1828.28" cy="547.23" r="10"/>
<text x="1828.28" y="552.23">R236</text>
<circle cx="1924.50" cy="1216.53" r="10"/>
<text x="1924.50" y="1221.53">R237</text>
<circle cx="1638.18" cy="948.09" r="10"/>
<text x="1638.18" y="953.09">R238</text>
<circle cx="846.34" cy="209.82" r="10"/>
<text x="846.34" y="214.82">R239</text>
<circle cx="1431.61" cy="1479.61" r="10"/>
<text x="1431.61" y="1484.61">R240</text>
<circle cx="110.50" cy="297.42" r="10"/>
<text x="110.50" y="302.42">R241</text>
<circle cx="603.86" cy="2164.63" r="10"/>
<text x="603.86" y="2169.63">R242</text>
<circle cx="311.83" cy="1065.50" r="10"/>
<text x="311.83" y="1070.50">R243</text>
<circle cx="82.77" cy="748.99" r="10"/>
<text x="82.77" y="753.99">R244</text>
<circle cx="198.38" cy="564.23" r="10"/>
<text x="198.38" y="569.23">R245</text>
<circle cx="925.95" cy="900.50" r="10"/>
<text x="925.95" y="905.50">R246</text>
<circle cx="1811.95" cy="602.54" r="10"/>
<text x="1811.95" y="607.54">R247</text>
<circle cx="711.25" cy="1124.71" r="10"/>
<text x="711.25" y="1129.71">R248</text>
<circle cx="1632.04" cy="1189.59" r="10"/>
<text x="1632.04" y="1194.59">R249</text>
<circle cx="86.22" cy="2123.17" r="10"/>
<text x="86.22" y="2128.17">R250</text>
<circle cx="953.22" cy="1812.47" r="10"/>
<text x="953.22" y="1817.47">R251</text>
<circle cx="1080.94" cy="2108.99" r="10"/>
<text x="1080.94" y="2113.99">R252</text>
<circle cx="2167.21" cy="759.08" r="10"/>
<text x="2167.21" y="764.08">R253</text>
<circle cx="205.33" cy="1706.41" r="10"/>
<text x="205.33" y="1711.41">R254</text>
<circle cx="241.80" cy="1057.44" r="10"/>
<text x="241.80" y="1062.44">R255</text>
<circle cx="242.82" cy="656.09" r="10"/>
<text x="242.82" y="661.09">R256</text>
<circle cx="458.89" cy="1468.11" r="10"/>
<text x="458.89" y="1473.11">R257</text>
<circle cx="1914.17" cy="1433.36" r="10"/>
<text x="1914.17" y="1438.36">R258</text>
<circle cx="1622.32" cy="754.30" r="10"/>
<text x="1622.32" y="759.30">R259</text>
<circle cx="1401.57" cy="364.89" r="10"/>
<text x="1401.57" y="369.89">R260</text>
<circle cx="2061.34" cy="107.83" r="10"/>
<text x="2061.34" y="112.83">R261</text>
<circle cx="586.80" cy="25.84" r="10"/>
<text x="586.80" y="30.84">R262</text>
<circle cx="1515.64" cy="1581.92" r="10"/>
<text x="1515.64" y="1586.92">R263</text>
<circle cx="1738.64" cy="1839.85" r="10"/>
<text x="1738.64" y="1844.85">R264</text>
<circle cx="1029.80" cy="1268.12" r="10"/>
<text x="1029.80" y="1273.12">R265</text>
<circle cx="625.17" cy="1609.89" r="10"/>
<text x="625.17" y="1614.89">R266</text>
<circle cx="301.03" cy="1731.42" r="10"/>
<text x="301.03" y="1736.42">R267</text>
<circle cx="1914.70" cy="1101.79" r="10"/>
<text x="1914.70" y="1106.79">R268</text>
<circle cx="71.67" cy="2.41" r="10"/>
<text x="71.67" y="7.41">R269</text>
<circle cx="108.97" cy="187.93" r="10"/>
<text x="108.97" y="192.93">R270</text>
<circle cx="463.16" cy="980.68" r="10"/>
<text x="463.16" y="985.68">R271</text>
<circle cx="722.16" cy="1311.04" r="10"/>
<text x="722.16" y="1316.04">R272</text>
<circle cx="367.45" cy="1411.05" r="10"/>
<text x="367.45" y="1416.05">R273</text>
<circle cx="1480.08" cy="1022.31" r="10"/>
<text x="1480.08" y="1027.31">R274</text>
<circle cx="846.83" cy="406.45" r="10"/>
<text x="846.83" y="411.45">R275</text>
<circle cx="237.03" cy="985.99" r="10"/>
<text x="237.03" y="990.99">R276</text>
<circle cx="2112.19" cy="746.30" r="10"/>
<text x="2112.19" y="751.30">R277</text>
<circle cx="1498.07" cy="1564.09" r="10"/>
<text x="1498.07" y="1569.09">R278</text>
<circle cx="1309.97" cy="242.01" r="10"/>
<text x="1309.97" y="247.01">R279</text>
<circle cx="1512.26" cy="774.96" r="10"/>
<text x="1512.26" y="779.96">R280</text>
<circle cx="1857.67" cy="1272.76" r="10"/>
<text x="1857.67" y="1277.76">R281</text>
<circle cx="1765.43" cy="126.61" r="10"/>
<text x="1765.43" y="131.61">R282</text>
<circle cx="555.76" cy="2026.18" r="10"/>
<text x="555.76" y="2031.18">R283</text>
<circle cx="2050.71" cy="2039.39" r="10"/>
<text x="2050.71" y="2044.39">R284</text>
<circle cx="1378.75" cy="1685.43" r="10"/>
<text x="1378.75" y="1690.43">R285</text>
<circle cx="466.59" cy="846.32" r="10"/>
<text x="466.59" y="851.32">R286</text>
<circle cx="702.65" cy="491.21" r="10"/>
<text x="702.65" y="496.21">R287</text>
<circle cx="1336.68" cy="197.96" r="10"/>
<text x="1336.68" y="202.96">R288</text>
<circle cx="1688.90" cy="2148.08" r="10"/>
<text x="1688.90" y="2153.08">R289</text>
<circle cx="1551.37" cy="764.61" r="10"/>
<text x="1551.37" y="769.61">R290</text>
<circle cx="2061.74" cy="358.59" r="10"/>
<text x="2061.74" y="363.59">R291</text>
<circle cx="1293.29" cy="1416.57" r="10"/>
<text x="1293.29" y="1421.57">R292</text>
<circle cx="455.22" cy="1072.94" r="10"/>
<text x="455.22" y="1077.94">R293</text>
<circle cx="601.60" cy="1358.64" r="10"/>
<text x="601.60" y="1363.64">R294</text>
<circle cx="626.62" cy="780.40" r="10"/>
<text x="626.62" y="785.40">R295</text>
<circle cx="1753.91" cy="767.60" r="10"/>
<text x="1753.91" y="772.60">R296</text>
<circle cx="1448.64" cy="34.86" r="10"/>
<text x="1448.64" y="39.86">R297</text>
<circle cx="1733.56" cy="1390.35" r="10"/>
<text x="1733.56" y="1395.35">R298</text>
<circle cx="1953.41" cy="1796.93" r="10"/>
<text x="1953.41" y="1801.93">R299</text>
<circle cx="1859.19" cy="522.37" r="10"/>
<text x="1859.19" y="527.37">R300</text>
<circle cx="993.99" cy="1950.37" r="10"/>
<text x="993.99" y="1955.37">R301</text>
<circle cx="1681.46" cy="1539.08" r="10"/>
<text x="1681.46" y="1544.08">R302</text>
<circle cx="357.70" cy="458.06" r="10"/>
<text x="357.70" y="463.06">R303</text>
<circle cx="700.55" cy="1731.41" r="10"/>
<text x="700.55" y="1736.41">R304</text>
<circle cx="1251.23" cy="1354.15" r="10"/>
<text x="1251.23" y="1359.15">R305</text>
<circle cx="544.98" cy="674.28" r="10"/>
<text x="544.98" y="679.28">R306</text>
<circle cx="1099.93" cy="1898.39" r="10"/>
<text x="1099.93" y="1903.39">R307</text>
<circle cx="16.26" cy="550.87" r="10"/>
<text x="16.26" y="555.87">R308</text>
<circle cx="326.08" cy="102.66" r="10"/>
<text x="326.08" y="107.66">R309</text>
<circle cx="649.77" cy="547.94" r="10"/>
<text x="649.77" y="552.94">R310</text>
<circle cx="2074.09" cy="47.64" r="10"/>
<text x="2074.09" y="52.64">R311</text>
<circle cx="1884.67" cy="616.80" r="10"/>
<text x="1884.67" y="621.80">R312</text>
<circle cx="1947.75" cy="2149.14" r="10"/>
<text x="1947.75" y="2154.14">R313</text>
<circle cx="1651.34" cy="751.12" r="10"/>
<text x="1651.34" y="756.12">R314</text>
<circle cx="1214.01" cy="103.19" r="10"/>
<text x="1214.01" y="108.19">R315</text>
<circle cx="1051.01" cy="1347.39" r="10"/>
<text x="1051.01" y="1352.39">R316</text>
<circle cx="11.37" cy="353.32" r="10"/>
<text x="11.37" y="358.32">R317</text>
<circle cx="191.28" cy="921.58" r="10"/>
<text x="191.28" y="926.58">R318</text>
<circle cx="1731.48" cy="818.72" r="10"/>
<text x="1731.48" y="823.72">R319</text>
<circle cx="930.42" cy="1984.30" r="10"/>
<text x="930.42" y="1989.30">R320</text>
<circle cx="1513.75" cy="1971.39" r="10"/>
<text x="1513.75" y="1976.39">R321</text>
<circle cx="1007.12" cy="589.09" r="10"/>
<text x="1007.12" y="594.09">R322</text>
<circle cx="859.45" cy="2124.49" r="10"/>
<text x="859.45" y="2129.49">R323</text>
<circle cx="230.39" cy="76.16" r="10"/>
<text x="230.39" y="81.16">R324</text>
<circle cx="774.19" cy="1352.30" r="10"/>
<text x="774.19" y="1357.30">R325</text>
<circle cx="1231.96" cy="1569.05" r="10"/>
<text x="1231.96" y="1574.05">R326</text>
<circle cx="856.64" cy="1079.68" r="10"/>
<text x="856.64" y="1084.68">R327</text>
<circle cx="89.30" cy="1986.30" r="10"/>
<text x="89.30" y="1991.30">R328</text>
<circle cx="755.14" cy="439.26" r="10"/>
<text x="755.14" y="444.26">R329</text>
<circle cx="1221.98" cy="1290.61" r="10"/>
<text x="1221.98" y="1295.61">R330</text>
<circle cx="434.20" cy="644.93" r="10"/>
<text x="434.20" y="649.93">R331</text>
<circle cx="1464.45" cy="569.82" r="10"/>
<text x="1464.45" y="574.82">R332</text>
<circle cx="891.48" cy="433.09" r="10"/>
<text x="891.48" y="438.09">R333</text>
<circle cx="2037.58" cy="21.15" r="10"/>
<text x="2037.58" y="26.15">R334</text>
<circle cx="1846.17" cy="2179.32" r="10"/>
<text x="1846.17" y="2184.32">R335</text>
<circle cx="1145.22" cy="471.51" r="10"/>
<text x="1145.22" y="476.51">R336</text>
<circle cx="1572.45" cy="1040.85" r="10"/>
<text x="1572.45" y="1045.85">R337</text>
<circle cx="1865.05" cy="1806.40" r="10"/>
<text x="1865.05" y="1811.40">R338</text>
<circle cx="122.02" cy="1902.34" r="10"/>
<text x="122.02" y="1907.34">R339</text>
<circle cx="598.86" cy="2077.77" r="10"/>
<text x="598.86" y="2082.77">R340</text>
<circle cx="1081.70" cy="2018.62" r="10"/>
<text x="1081.70" y="2023.62">R341</text>
<circle cx="1132.92" cy="1698.70" r="10"/>
<text x="1132.92" y="1703.70">R342</text>
<circle cx="831.71" cy="1432.43" r="10"/>
<text x="831.71" y="1437.43">R343</text>
<circle cx="369.94" cy="1809.69" r="10"/>
<text x="369.94" y="1814.69">R344</text>
<circle cx="2142.99" cy="810.48" r="10"/>
<text x="2142.99" y="815.48">R345</text>
<circle cx="1383.81" cy="299.37" r="10"/>
<text x="1383.81" y="304.37">R346</text>
<circle cx="541.86" cy="560.70" r="10"/>
<text x="541.86" y="565.70">R347</text>
<circle cx="631.71" cy="166.10" r="10"/>
<text x="631.71" y="171.10">R348</text>
<circle cx="896.19" cy="641.54" r="10"/>
<text x="896.19" y="646.54">R349</text>
<circle cx="965.43" cy="1353.05" r="10"/>
<text x="965.43" y="1358.05">R350</text>
<circle cx="1187.85" cy="1004.66" r="10"/>
<text x="1187.85" y="1009.66">R351</text>
<circle cx="545.79" cy="1888.44" r="10"/>
<text x="545.79" y="1893.44">R352</text>
<circle cx="1350.29" cy="687.66" r="10"/>
<text x="1350.29" y="692.66">R353</text>
<circle cx="51.65" cy="1557.85" r="10"/>
<text x="51.65" y="1562.85">R354</text>
<circle cx="716.71" cy="1066.91" r="10"/>
<text x="716.71" y="1071.91">R355</text>
<circle cx="210.49" cy="2034.35" r="10"/>
<text x="210.49" y="2039.35">R356</text>
<circle cx="1628.52" cy="1956.54" r="10"/>
<text x="1628.52" y="1961.54">R357</text>
<circle cx="320.39" cy="4.04" r="10"/>
<text x="320.39" y="9.04">R358</text>
<circle cx="1119.46" cy="2016.29" r="10"/>
<text x="1119.46" y="2021.29">R359</text>
<circle cx="376.75" cy="1979.73" r="10"/>
<text x="376.75" y="1984.73">R360</text>
<circle cx="1942.21" cy="27.67" r="10"/>
<text x="1942.21" y="32.67">R361</text>
<circle cx="2142.58" cy="1920.95" r="10"/>
<text x="2142.58" y="1925.95">R362</text>
<circle cx="18.68" cy="1787.77" r="10"/>
<text x="18.68" y="1792.77">R363</text>
<circle cx="118.78" cy="1382.25" r="10"/>
<text x="118.78" y="1387.25">R364</text>
<circle cx="71.13" cy="298.17" r="10"/>
<text x="71.13" y="303.17">R365</text>
<circle cx="1802.02" cy="665.71" r="10"/>
<text x="1802.02" y="670.71">R366</text>
<circle cx="158.89" cy="510.02" r="10"/>
<text x="158.89" y="515.02">R367</text>
<circle cx="1318.94" cy="474.62" r="10"/>
<text x="1318.94" y="479.62">R368</text>
<circle cx="151.85" cy="199.99" r="10"/>
<text x="151.85" y="204.99">R369</text>
<circle cx="220.52" cy="1313.11" r="10"/>
<text x="220.52" y="1318.11">R370</text>
<circle cx="1246.66" cy="1212.68" r="10"/>
<text x="1246.66" y="1217.68">R371</text>
<circle cx="1381.23" cy="761.77" r="10"/>
<text x="1381.23" y="766.77">R372</text>
<circle cx="1174.43" cy="456.95" r="10"/>
<text x="1174.43" y="461.95">R373</text>
<circle cx="183.43" cy="240.19" r="10"/>
<text x="183.43" y="245.19">R374</text>
<circle cx="1426.62" cy="1966.58" r="10"/>
<text x="1426.62" y="1971.58">R375</text>
<circle cx="466.91" cy="1747.31" r="10"/>
<text x="466.91" y="1752.31">R376</text>
<circle cx="172.04" cy="95.40" r="10"/>
<text x="172.04" y="100.40">R377</text>
<circle cx="641.51" cy="1643.03" r="10"/>
<text x="641.51" y="1648.03">R378</text>
<circle cx="1269.16" cy="176.62" r="10"/>
<text x="1269.16" y="181.62">R379</text>
<circle cx="361.46" cy="868.33" r="10"/>
<text x="361.46" y="873.33">R380</text>
<circle cx="1568.85" cy="39.14" r="10"/>
<text x="1568.85" y="44.14">R381</text>
<circle cx="2124.39" cy="1372.80" r="10"/>
<text x="2124.39" y="1377.80">R382</text>
<circle cx="552.45" cy="1491.78" r="10"/>
<text x="552.45" y="1496.78">R383</text>
<circle cx="554.11" cy="1666.57" r="10"/>
<text x="554.11" y="1671.57">R384</text>
<circle cx="1241.69" cy="598.08" r="10"/>
<text x="1241.69" y="603.08">R385</text>
<circle cx="186.72" cy="1514.73" r="10"/>
<text x="186.72" y="1519.73">R386</text>
<circle cx="1402.95" cy="1608.04" r="10"/>
<text x="1402.95" y="1613.04">R387</text>
<circle cx="1107.39" cy="1058.11" r="10"/>
<text x="1107.39" y="1063.11">R388</text>
<circle cx="989.37" cy="1837.46" r="10"/>
<text x="989.37" y="1842.46">R389</text>
<circle cx="1204.78" cy="2120.19" r="10"/>
<text x="1204.78" y="2125.19">R390</text>
<circle cx="1735.01" cy="47.74" r="10"/>
<text x="1735.01" y="52.74">R391</text>
<circle cx="1731.37" cy="1745.36" r="10"/>
<text x="1731.37" y="1750.36">R392</text>
<circle cx="1312.20" cy="1166.06" r="10"/>
<text x="1312.20" y="1171.06">R393</text>
<circle cx="1875.20" cy="239.33" r="10"/>
<text x="1875.20" y="244.33">R394</text>
<circle cx="65.07" cy="2176.41" r="10"/>
<text x="65.07" y="2181.41">R395</text>
<circle cx="1664.74" cy="117.32" r="10"/>
<text x="1664.74" y="122.32">R396</text>
<circle cx="1142.72" cy="1351.57" r="10"/>
<text x="1142.72" y="1356.57">R397</text>
<circle cx="2094.69" cy="795.76" r="10"/>
<text x="2094.69" y="800.76">R398</text>
<circle cx="957.64" cy="1280.17" r="10"/>
<text x="957.64" y="1285.17">R399</text>
<circle cx="2013.88" cy="1407.69" r="10"/>
<text x="2013.88" y="1412.69">R400</text>
<circle cx="175.32" cy="1440.25" r="10"/>
<text x="175.32" y="1445.25">R401</text>
<circle cx="503.05" cy="1399.80" r="10"/>
<text x="503.05" y="1404.80">R402</text>
<circle cx="446.69" cy="909.67" r="10"/>
<text x="446.69" y="914.67">R403</text>
<circle cx="465.02" cy="799.62" r="10"/>
<text x="465.02" y="804.62">R404</text>
<circle cx="453.77" cy="517.94" r="10"/>
<text x="453.77" y="522.94">R405</text>
<circle cx="1983.38" cy="1263.25" r="10"/>
<text x="1983.38" y="1268.25">R406</text>
<circle cx="240.01" cy="1667.51" r="10"/>
<text x="240.01" y="1672.51">R407</text>
<circle cx="1027.07" cy="1377.52" r="10"/>
<text x="1027.07" y="1382.52">R408</text>
<circle cx="1608.41" cy="329.21" r="10"/>
<text x="1608.41" y="334.21">R409</text>
<circle cx="1384.77" cy="438.02" r="10"/>
<text x="1384.77" y="443.02">R410</text>
<circle cx="1451.06" cy="77.47" r="10"/>
<text x="1451.06" y="82.47">R411</text>
<circle cx="1465.42" cy="1572.69" r="10"/>
<text x="1465.42" y="1577.69">R412</text>
<circle cx="295.95" cy="1817.55" r="10"/>
<text x="295.95" y="1822.55">R413</text>
<circle cx="1480.87" cy="978.65" r="10"/>
<text x="1480.87" y="983.65">R414</text>
<circle cx="723.60" cy="412.94" r="10"/>
<text x="723.60" y="417.94">R415</text>
<circle cx="1896.25" cy="1279.64" r="10"/>
<text x="1896.25" y="1284.64">R416</text>
<circle cx="1771.66" cy="2068.76" r="10"/>
<text x="1771.66" y="2073.76">R417</text>
<circle cx="158.20" cy="1857.58" r="10"/>
<text x="158.20" y="1862.58">R418</text>
<circle cx="459.04" cy="1552.59" r="10"/>
<text x="459.04" y="1557.59">R419</text>
<circle cx="862.40" cy="1524.00" r="10"/>
<text x="862.40" y="1529.00">R420</text>
<circle cx="1078.77" cy="779.70" r="10"/>
<text x="1078.77" y="784.70">R421</text>
<circle cx="1452.68" cy="1334.75" r="10"/>
<text x="1452.68" y="1339.75">R422</text>
<circle cx="326.74" cy="736.59" r="10"/>
<text x="326.74" y="741.59">R423</text>
<circle cx="1454.40" cy="703.19" r="10"/>
<text x="1454.40" y="708.19">R424</text>
<circle cx="1073.40" cy="455.78" r="10"/>
<text x="1073.40" y="460.78">R425</text>
<circle cx="1710.66" cy="346.18" r="10"/>
<text x="1710.66" y="351.18">R426</text>
<circle cx="1836.35" cy="1314.27" r="10"/>
<text x="1836.35" y="1319.27">R427</text>
<circle cx="1713.73" cy="1891.93" r="10"/>
<text x="1713.73" y="1896.93">R428</text>
<circle cx="1331.71" cy="1214.72" r="10"/>
<text x="1331.71" y="1219.72">R429</text>
<circle cx="507.28" cy="1656.78" r="10"/>
<text x="507.28" y="1661.78">R430</text>
<circle cx="1648.37" cy="1495.93" r="10"/>
<text x="1648.37" y="1500.93">R431</text>
<circle cx="2161.97" cy="1762.41" r="10"/>
<text x="2161.97" y="1767.41">R432</text>
<circle cx="1041.19" cy="271.79" r="10"/>
<text x="1041.19" y="276.79">R433</text>
<circle cx="850.16" cy="2100.08" r="10"/>
<text x="850.16" y="2105.08">R434</text>
<circle cx="2159.47" cy="543.97" r="10"/>
<text x="2159.47" y="548.97">R435</text>
<circle cx="2098.97" cy="16.78" r="10"/>
<text x="2098.97" y="21.78">R436</text>
<circle cx="2115.72" cy="1774.08" r="10"/>
<text x="2115.72" y="1779.08">R437</text>
<circle cx="1244.83" cy="1825.70" r="10"/>
<text x="1244.83" y="1830.70">R438</text>
<circle cx="772.37" cy="1742.41" r="10"/>
<text x="772.37" y="1747.41">R439</text>
<circle cx="1225.43" cy="1414.57" r="10"/>
<text x="1225.43" y="1419.57">R440</text>
<circle cx="1515.62" cy="523.19" r="10"/>
<text x="1515.62" y="528.19">R441</text>
<circle cx="1602.80" cy="1303.80" r="10"/>
<text x="1602.80" y="1308.80">R442</text>
<circle cx="1909.70" cy="845.09" r="10"/>
<text x="1909.70" y="850.09">R443</text>
<circle cx="671.18" cy="1901.62" r="10"/>
<text x="671.18" y="1906.62">R444</text>
<circle cx="1802.48" cy="1260.93" r="10"/>
<text x="1802.48" y="1265.93">R445</text>
<circle cx="1299.60" cy="1756.75" r="10"/>
<text x="1299.60" y="1761.75">R446</text>
<circle cx="1634.49" cy="1064.32" r="10"/>
<text x="1634.49" y="1069.32">R447</text>
<circle cx="163.67" cy="1933.18" r="10"/>
<text x="163.67" y="1938.18">R448</text>
<circle cx="2144.60" cy="1965.72" r="10"/>
<text x="2144.60" y="1970.72">R449</text>
<circle cx="127.33" cy="1769.21" r="10"/>
<text x="127.33" y="1774.21">R450</text>
<circle cx="2165.77" cy="2019.67" r="10"/>
<text x="2165.77" y="2024.67">R451</text>
<circle cx="38.48" cy="2128.57" r="10"/>
<text x="38.48" y="2133.57">R452</text>
<circle cx="153.50" cy="1644.06" r="10"/>
<text x="153.50" y="1649.06">R453</text>
<circle cx="1338.45" cy="363.00" r="10"/>
<text x="1338.45" y="368.00">R454</text>
<circle cx="187.93" cy="72.13" r="10"/>
<text x="187.93" y="77.13">R455</text>
<circle cx="1988.71" cy="1182.32" r="10"/>
<text x="1988.71" y="1187.32">R456</text>
<circle cx="1025.61" cy="2087.29" r="10"/>
<text x="1025.61" y="2092.29">R457</text>
<circle cx="689.11" cy="2026.73" r="10"/>
<text x="689.11" y="2031.73">R458</text>
<circle cx="1834.82" cy="1129.62" r="10"/>
<text x="1834.82" y="1134.62">R459</text>
<circle cx="438.34" cy="1492.74" r="10"/>
<text x="438.34" y="1497.74">R460</text>
<circle cx="1873.53" cy="736.64" r="10"/>
<text x="1873.53" y="741.64">R461</text>
<circle cx="1524.37" cy="1495.35" r="10"/>
<text x="1524.37" y="1500.35">R462</text>
<circle cx="1772.74" cy="731.21" r="10"/>
<text x="1772.74" y="736.21">R463</text>
<circle cx="1204.89" cy="484.43" r="10"/>
<text x="1204.89" y="489.43">R464</text>
<circle cx="617.67" cy="44.20" r="10"/>
<text x="617.67" y="49.20">R465</text>
<circle cx="2075.63" cy="712.45" r="10"/>
<text x="2075.63" y="717.45">R466</text>
<circle cx="1488.62" cy="1689.55" r="10"/>
<text x="1488.62" y="1694.55">R467</text>
<circle cx="1592.55" cy="1539.49" r="10"/>
<text x="1592.55" y="1544.49">R468</text>
<circle cx="1254.23" cy="2083.06" r="10"/>
<text x="1254.23" y="2088.06">R469</text>
<circle cx="1750.26" cy="1998.33" r="10"/>
<text x="1750.26" y="2003.33">R470</text>
<circle cx="1945.04" cy="1861.29" r="10"/>
<text x="1945.04" y="1866.29">R471</text>
<circle cx="1968.39" cy="1570.34" r="10"/>
<text x="1968.39" y="1575.34">R472</text>
<circle cx="1287.47" cy="1891.40" r="10"/>
<text x="1287.47" y="1896.40">R473</text>
<circle cx="1598.42" cy="1830.18" r="10"/>
<text x="1598.42" y="1835.18">R474</text>
</svg>
