<svg id="topo" viewBox="-11.57 -453.38 433.42 354.70" xmlns="http://www.w3.org/2000/svg">
<style>#topo path {fill: none; stroke: grey; stroke-width: 5.0000px;} #topo circle {fill: lightblue; stroke: none; stroke-width: 0.3px; vector-effect: non-scaling-stroke; r: 10.0000px;} #topo text {fill: black; stroke: none; font-size: 15.0000px; font-family: sans-serif; text-anchor:middle; transform: translateY(0.3em);} #topo path.country {fill: lightgrey; stroke: black; stroke-width: 1px; vector-effect: non-scaling-stroke; visibility: visible;} #topo path.selection {fill: none; stroke: red; stroke-width: 1px; vector-effect: non-scaling-stroke; visibility: visible;} #topo path.utilization {visibility: hidden;}</style>
<path data-id="0-8" d="M102.98,-435.94,222.42,-428.25"/>
<path data-id="0-11" d="M102.98,-435.94,36.58,-360.21"/>
<path data-id="0-19" d="M102.98,-435.94,202.10,-321.78"/>
<path data-id="1-2" d="M402.14,-380.61,400.40,-437.25"/>
<path data-id="1-8" d="M402.14,-380.61,222.42,-428.25"/>
<path data-id="1-14" d="M402.14,-380.61,262.41,-248.70"/>
<path data-id="1-16" d="M402.14,-380.61,330.19,-218.51"/>
<path data-id="1-19" d="M402.14,-380.61,202.10,-321.78"/>
<path data-id="2-8" d="M400.40,-437.25,222.42,-428.25"/>
<path data-id="3-17" d="M8.13,-258.63,34.49,-253.10"/>
<path data-id="4-5" d="M242.31,-194.46,193.38,-203.79"/>
<path data-id="4-14" d="M242.31,-194.46,262.41,-248.70"/>
<path data-id="4-15" d="M242.31,-194.46,230.67,-255.83"/>
<path data-id="4-16" d="M242.31,-194.46,330.19,-218.51"/>
<path data-id="5-10" d="M193.38,-203.79,124.54,-171.73"/>
<path data-id="5-12" d="M193.38,-203.79,178.56,-245.50"/>
<path data-id="5-15" d="M193.38,-203.79,230.67,-255.83"/>
<path data-id="6-16" d="M380.44,-174.14,330.19,-218.51"/>
<path data-id="7-11" d="M42.31,-277.35,36.58,-360.21"/>
<path data-id="7-12" d="M42.31,-277.35,178.56,-245.50"/>
<path data-id="7-17" d="M42.31,-277.35,34.49,-253.10"/>
<path data-id="8-19" d="M222.42,-428.25,202.10,-321.78"/>
<path data-id="9-12" d="M207.68,-268.50,178.56,-245.50"/>
<path data-id="9-15" d="M207.68,-268.50,230.67,-255.83"/>
<path data-id="9-19" d="M207.68,-268.50,202.10,-321.78"/>
<path data-id="10-13" d="M124.54,-171.73,35.41,-149.35"/>
<path data-id="10-17" d="M124.54,-171.73,34.49,-253.10"/>
<path data-id="11-19" d="M36.58,-360.21,202.10,-321.78"/>
<path data-id="13-17" d="M35.41,-149.35,34.49,-253.10"/>
<path data-id="13-18" d="M35.41,-149.35,22.14,-114.80"/>
<path data-id="14-15" d="M262.41,-248.70,230.67,-255.83"/>
<path data-id="14-16" d="M262.41,-248.70,330.19,-218.51"/>
<circle data-id="0" cx="102.98" cy="-435.94" r="10.00px"/>
<text data-id="0" x="102.98" y="-435.94">R0</text>
<circle data-id="1" cx="402.14" cy="-380.61" r="10.00px"/>
<text data-id="1" x="402.14" y="-380.61">R1</text>
<circle data-id="2" cx="400.40" cy="-437.25" r="10.00px"/>
<text data-id="2" x="400.40" y="-437.25">R2</text>
<circle data-id="3" cx="8.13" cy="-258.63" r="10.00px"/>
<text data-id="3" x="8.13" y="-258.63">R3</text>
<circle data-id="4" cx="242.31" cy="-194.46" r="10.00px"/>
<text data-id="4" x="242.31" y="-194.46">R4</text>
<circle data-id="5" cx="193.38" cy="-203.79" r="10.00px"/>
<text data-id="5" x="193.38" y="-203.79">R5</text>
<circle data-id="6" cx="380.44" cy="-174.14" r="10.00px"/>
<text data-id="6" x="380.44" y="-174.14">R6</text>
<circle data-id="7" cx="42.31" cy="-277.35" r="10.00px"/>
<text data-id="7" x="42.31" y="-277.35">R7</text>
<circle data-id="8" cx="222.42" cy="-428.25" r="10.00px"/>
<text data-id="8" x="222.42" y="-428.25">R8</text>
<circle data-id="9" cx="207.68" cy="-268.50" r="10.00px"/>
<text data-id="9" x="207.68" y="-268.50">R9</text>
<circle data-id="10" cx="124.54" cy="-171.73" r="10.00px"/>
<text data-id="10" x="124.54" y="-171.73">R10</text>
<circle data-id="11" cx="36.58" cy="-360.21" r="10.00px"/>
<text data-id="11" x="36.58" y="-360.21">R11</text>
<circle data-id="12" cx="178.56" cy="-245.50" r="10.00px"/>
<text data-id="12" x="178.56" y="-245.50">R12</text>
<circle data-id="13" cx="35.41" cy="-149.35" r="10.00px"/>
<text data-id="13" x="35.41" y="-149.35">R13</text>
<circle data-id="14" cx="262.41" cy="-248.70" r="10.00px"/>
<text data-id="14" x="262.41" y="-248.70">R14</text>
<circle data-id="15" cx="230.67" cy="-255.83" r="10.00px"/>
<text data-id="15" x="230.67" y="-255.83">R15</text>
<circle data-id="16" cx="330.19" cy="-218.51" r="10.00px"/>
<text data-id="16" x="330.19" y="-218.51">R16</text>
<circle data-id="17" cx="34.49" cy="-253.10" r="10.00px"/>
<text data-id="17" x="34.49" y="-253.10">R17</text>
<circle data-id="18" cx="22.14" cy="-114.80" r="10.00px"/>
<text data-id="18" x="22.14" y="-114.80">R18</text>
<circle data-id="19" cx="202.10" cy="-321.78" r="10.00px"/>
<text data-id="19" x="202.10" y="-321.78">R19</text>
</svg>
