<svg id="topo" viewBox="-4.75 -449.19 460.48 441.87" xmlns="http://www.w3.org/2000/svg">
<style>#topo path {fill: none; stroke: grey; stroke-width: 5.0000px;} #topo circle {fill: lightblue; stroke: none; stroke-width: 0.3px; vector-effect: non-scaling-stroke; r: 10.0000px;} #topo text {fill: black; stroke: none; font-size: 15.0000px; font-family: sans-serif; text-anchor:middle; transform: translateY(0.3em);} #topo path.country {fill: lightgrey; stroke: black; stroke-width: 1px; vector-effect: non-scaling-stroke; visibility: visible;} #topo path.selection {fill: none; stroke: red; stroke-width: 1px; vector-effect: non-scaling-stroke; visibility: visible;} #topo path.utilization {visibility: hidden;}</style>
<path data-id="0-9" d="M88.41,-285.38,70.70,-403.32"/>
<path data-id="0-11" d="M88.41,-285.38,16.18,-252.35"/>
<path data-id="0-18" d="M88.41,-285.38,180.53,-274.73"/>
<path data-id="1-4" d="M431.00,-352.35,336.61,-326.69"/>
<path data-id="1-10" d="M431.00,-352.35,409.75,-287.66"/>
<path data-id="1-17" d="M431.00,-352.35,378.39,-429.10"/>
<path data-id="2-6" d="M178.74,-46.29,215.47,-132.14"/>
<path data-id="2-12" d="M178.74,-46.29,46.95,-112.28"/>
<path data-id="2-14" d="M178.74,-46.29,219.25,-27.40"/>
<path data-id="3-11" d="M29.77,-144.83,16.18,-252.35"/>
<path data-id="3-12" d="M29.77,-144.83,46.95,-112.28"/>
<path data-id="3-15" d="M29.77,-144.83,178.52,-204.28"/>
<path data-id="4-10" d="M336.61,-326.69,409.75,-287.66"/>
<path data-id="4-13" d="M336.61,-326.69,267.63,-364.74"/>
<path data-id="4-17" d="M336.61,-326.69,378.39,-429.10"/>
<path data-id="5-7" d="M354.57,-159.28,434.80,-62.44"/>
<path data-id="5-10" d="M354.57,-159.28,409.75,-287.66"/>
<path data-id="5-19" d="M354.57,-159.28,283.61,-113.51"/>
<path data-id="6-8" d="M215.47,-132.14,194.46,-178.17"/>
<path data-id="6-19" d="M215.47,-132.14,283.61,-113.51"/>
<path data-id="8-12" d="M194.46,-178.17,46.95,-112.28"/>
<path data-id="8-15" d="M194.46,-178.17,178.52,-204.28"/>
<path data-id="9-16" d="M70.70,-403.32,220.36,-360.56"/>
<path data-id="12-15" d="M46.95,-112.28,178.52,-204.28"/>
<path data-id="13-16" d="M267.63,-364.74,220.36,-360.56"/>
<path data-id="13-17" d="M267.63,-364.74,378.39,-429.10"/>
<path data-id="14-19" d="M219.25,-27.40,283.61,-113.51"/>
<path data-id="15-18" d="M178.52,-204.28,180.53,-274.73"/>
<path data-id="16-18" d="M220.36,-360.56,180.53,-274.73"/>
<circle data-id="0" cx="88.41" cy="-285.38" r="10.00px"/>
<text data-id="0" x="88.41" y="-285.38">R0</text>
<circle data-id="1" cx="431.00" cy="-352.35" r="10.00px"/>
<text data-id="1" x="431.00" y="-352.35">R1</text>
<circle data-id="2" cx="178.74" cy="-46.29" r="10.00px"/>
<text data-id="2" x="178.74" y="-46.29">R2</text>
<circle data-id="3" cx="29.77" cy="-144.83" r="10.00px"/>
<text data-id="3" x="29.77" y="-144.83">R3</text>
<circle data-id="4" cx="336.61" cy="-326.69" r="10.00px"/>
<text data-id="4" x="336.61" y="-326.69">R4</text>
<circle data-id="5" cx="354.57" cy="-159.28" r="10.00px"/>
<text data-id="5" x="354.57" y="-159.28">R5</text>
<circle data-id="6" cx="215.47" cy="-132.14" r="10.00px"/>
<text data-id="6" x="215.47" y="-132.14">R6</text>
<circle data-id="7" cx="434.80" cy="-62.44" r="10.00px"/>
<text data-id="7" x="434.80" y="-62.44">R7</text>
<circle data-id="8" cx="194.46" cy="-178.17" r="10.00px"/>
<text data-id="8" x="194.46" y="-178.17">R8</text>
<circle data-id="9" cx="70.70" cy="-403.32" r="10.00px"/>
<text data-id="9" x="70.70" y="-403.32">R9</text>
<circle data-id="10" cx="409.75" cy="-287.66" r="10.00px"/>
<text data-id="10" x="409.75" y="-287.66">R10</text>
<circle data-id="11" cx="16.18" cy="-252.35" r="10.00px"/>
<text data-id="11" x="16.18" y="-252.35">R11</text>
<circle data-id="12" cx="46.95" cy="-112.28" r="10.00px"/>
<text data-id="12" x="46.95" y="-112.28">R12</text>
<circle data-id="13" cx="267.63" cy="-364.74" r="10.00px"/>
<text data-id="13" x="267.63" y="-364.74">R13</text>
<circle data-id="14" cx="219.25" cy="-27.40" r="10.00px"/>
<text data-id="14" x="219.25" y="-27.40">R14</text>
<circle data-id="15" cx="178.52" cy="-204.28" r="10.00px"/>
<text data-id="15" x="178.52" y="-204.28">R15</text>
<circle data-id="16" cx="220.36" cy="-360.56" r="10.00px"/>
<text data-id="16" x="220.36" y="-360.56">R16</text>
<circle data-id="17" cx="378.39" cy="-429.10" r="10.00px"/>
<text data-id="17" x="378.39" y="-429.10">R17</text>
<circle data-id="18" cx="180.53" cy="-274.73" r="10.00px"/>
<text data-id="18" x="180.53" y="-274.73">R18</text>
<circle data-id="19" cx="283.61" cy="-113.51" r="10.00px"/>
<text data-id="19" x="283.61" y="-113.51">R19</text>
</svg>
