<svg id="topo" viewBox="-16.91 -448.44 463.36 458.19" xmlns="http://www.w3.org/2000/svg">
<style>#topo path {fill: none; stroke: grey; stroke-width: 5.0000px;} #topo circle {fill: lightblue; stroke: none; stroke-width: 0.3px; vector-effect: non-scaling-stroke; r: 10.0000px;} #topo text {fill: black; stroke: none; font-size: 15.0000px; font-family: sans-serif; text-anchor:middle; transform: translateY(0.3em);} #topo path.country {fill: lightgrey; stroke: black; stroke-width: 1px; vector-effect: non-scaling-stroke; visibility: visible;} #topo path.selection {fill: none; stroke: red; stroke-width: 1px; vector-effect: non-scaling-stroke; visibility: visible;} #topo path.utilization {visibility: hidden;}</style>
<path data-id="0-10" d="M389.31,-12.77,417.75,-22.78"/>
<path data-id="0-15" d="M389.31,-12.77,310.29,-94.19"/>
<path data-id="1-10" d="M425.38,-64.93,417.75,-22.78"/>
<path data-id="1-14" d="M425.38,-64.93,387.56,-201.12"/>
<path data-id="1-15" d="M425.38,-64.93,310.29,-94.19"/>
<path data-id="2-7" d="M266.49,-112.69,171.35,-101.18"/>
<path data-id="2-12" d="M266.49,-112.69,291.49,-157.70"/>
<path data-id="2-15" d="M266.49,-112.69,310.29,-94.19"/>
<path data-id="2-18" d="M266.49,-112.69,259.90,-157.84"/>
<path data-id="3-8" d="M4.15,-375.18,116.86,-301.47"/>
<path data-id="3-16" d="M4.15,-375.18,71.45,-270.08"/>
<path data-id="4-7" d="M163.14,-11.08,171.35,-101.18"/>
<path data-id="5-7" d="M201.26,-162.76,171.35,-101.18"/>
<path data-id="5-18" d="M201.26,-162.76,259.90,-157.84"/>
<path data-id="5-19" d="M201.26,-162.76,150.53,-229.77"/>
<path data-id="6-13" d="M344.85,-343.32,206.91,-427.61"/>
<path data-id="6-17" d="M344.85,-343.32,383.23,-263.79"/>
<path data-id="8-13" d="M116.86,-301.47,206.91,-427.61"/>
<path data-id="8-16" d="M116.86,-301.47,71.45,-270.08"/>
<path data-id="8-19" d="M116.86,-301.47,150.53,-229.77"/>
<path data-id="9-11" d="M265.05,-192.58,321.36,-198.38"/>
<path data-id="9-12" d="M265.05,-192.58,291.49,-157.70"/>
<path data-id="9-18" d="M265.05,-192.58,259.90,-157.84"/>
<path data-id="11-12" d="M321.36,-198.38,291.49,-157.70"/>
<path data-id="11-14" d="M321.36,-198.38,387.56,-201.12"/>
<path data-id="11-17" d="M321.36,-198.38,383.23,-263.79"/>
<path data-id="12-15" d="M291.49,-157.70,310.29,-94.19"/>
<path data-id="12-18" d="M291.49,-157.70,259.90,-157.84"/>
<path data-id="14-17" d="M387.56,-201.12,383.23,-263.79"/>
<path data-id="16-19" d="M71.45,-270.08,150.53,-229.77"/>
<circle data-id="0" cx="389.31" cy="-12.77" r="10.00px"/>
<text data-id="0" x="389.31" y="-12.77">R0</text>
<circle data-id="1" cx="425.38" cy="-64.93" r="10.00px"/>
<text data-id="1" x="425.38" y="-64.93">R1</text>
<circle data-id="2" cx="266.49" cy="-112.69" r="10.00px"/>
<text data-id="2" x="266.49" y="-112.69">R2</text>
<circle data-id="3" cx="4.15" cy="-375.18" r="10.00px"/>
<text data-id="3" x="4.15" y="-375.18">R3</text>
<circle data-id="4" cx="163.14" cy="-11.08" r="10.00px"/>
<text data-id="4" x="163.14" y="-11.08">R4</text>
<circle data-id="5" cx="201.26" cy="-162.76" r="10.00px"/>
<text data-id="5" x="201.26" y="-162.76">R5</text>
<circle data-id="6" cx="344.85" cy="-343.32" r="10.00px"/>
<text data-id="6" x="344.85" y="-343.32">R6</text>
<circle data-id="7" cx="171.35" cy="-101.18" r="10.00px"/>
<text data-id="7" x="171.35" y="-101.18">R7</text>
<circle data-id="8" cx="116.86" cy="-301.47" r="10.00px"/>
<text data-id="8" x="116.86" y="-301.47">R8</text>
<circle data-id="9" cx="265.05" cy="-192.58" r="10.00px"/>
<text data-id="9" x="265.05" y="-192.58">R9</text>
<circle data-id="10" cx="417.75" cy="-22.78" r="10.00px"/>
<text data-id="10" x="417.75" y="-22.78">R10</text>
<circle data-id="11" cx="321.36" cy="-198.38" r="10.00px"/>
<text data-id="11" x="321.36" y="-198.38">R11</text>
<circle data-id="12" cx="291.49" cy="-157.70" r="10.00px"/>
<text data-id="12" x="291.49" y="-157.70">R12</text>
<circle data-id="13" cx="206.91" cy="-427.61" r="10.00px"/>
<text data-id="13" x="206.91" y="-427.61">R13</text>
<circle data-id="14" cx="387.56" cy="-201.12" r="10.00px"/>
<text data-id="14" x="387.56" y="-201.12">R14</text>
<circle data-id="15" cx="310.29" cy="-94.19" r="10.00px"/>
<text data-id="15" x="310.29" y="-94.19">R15</text>
<circle data-id="16" cx="71.45" cy="-270.08" r="10.00px"/>
<text data-id="16" x="71.45" y="-270.08">R16</text>
<circle data-id="17" cx="383.23" cy="-263.79" r="10.00px"/>
<text data-id="17" x="383.23" y="-263.79">R17</text>
<circle data-id="18" cx="259.90" cy="-157.84" r="10.00px"/>
<text data-id="18" x="259.90" y="-157.84">R18</text>
<circle data-id="19" cx="150.53" cy="-229.77" r="10.00px"/>
<text data-id="19" x="150.53" y="-229.77">R19</text>
</svg>
