<svg id="topo" viewBox="5.42 -446.83 439.58 454.76" xmlns="http://www.w3.org/2000/svg">
<style>#topo path {fill: none; stroke: grey; stroke-width: 5.0000px;} #topo circle {fill: lightblue; stroke: none; stroke-width: 0.3px; vector-effect: non-scaling-stroke; r: 10.0000px;} #topo text {fill: black; stroke: none; font-size: 15.0000px; font-family: sans-serif; text-anchor:middle; transform: translateY(0.3em);} #topo path.country {fill: lightgrey; stroke: black; stroke-width: 1px; vector-effect: non-scaling-stroke; visibility: visible;} #topo path.selection {fill: none; stroke: red; stroke-width: 1px; vector-effect: non-scaling-stroke; visibility: visible;} #topo path.utilization {visibility: hidden;}</style>
<path data-id="0-4" d="M80.72,-192.40,39.20,-123.70"/>
<path data-id="0-16" d="M80.72,-192.40,64.35,-214.05"/>
<path data-id="0-18" d="M80.72,-192.40,239.84,-237.40"/>
<path data-id="0-19" d="M80.72,-192.40,104.48,-122.22"/>
<path data-id="1-4" d="M41.45,-85.55,39.20,-123.70"/>
<path data-id="1-19" d="M41.45,-85.55,104.48,-122.22"/>
<path data-id="2-5" d="M235.39,-134.06,304.68,-116.07"/>
<path data-id="2-6" d="M235.39,-134.06,165.01,-28.40"/>
<path data-id="2-18" d="M235.39,-134.06,239.84,-237.40"/>
<path data-id="2-19" d="M235.39,-134.06,104.48,-122.22"/>
<path data-id="3-10" d="M228.81,-426.16,288.14,-283.99"/>
<path data-id="3-14" d="M228.81,-426.16,341.18,-375.50"/>
<path data-id="3-15" d="M228.81,-426.16,25.40,-325.58"/>
<path data-id="4-19" d="M39.20,-123.70,104.48,-122.22"/>
<path data-id="5-17" d="M304.68,-116.07,350.39,-96.56"/>
<path data-id="6-7" d="M165.01,-28.40,327.76,-12.74"/>
<path data-id="6-19" d="M165.01,-28.40,104.48,-122.22"/>
<path data-id="7-13" d="M327.76,-12.74,357.66,-19.66"/>
<path data-id="8-9" d="M359.65,-69.44,425.02,-121.08"/>
<path data-id="8-12" d="M359.65,-69.44,395.57,-24.81"/>
<path data-id="8-13" d="M359.65,-69.44,357.66,-19.66"/>
<path data-id="8-17" d="M359.65,-69.44,350.39,-96.56"/>
<path data-id="9-11" d="M425.02,-121.08,414.09,-333.70"/>
<path data-id="9-12" d="M425.02,-121.08,395.57,-24.81"/>
<path data-id="9-17" d="M425.02,-121.08,350.39,-96.56"/>
<path data-id="10-14" d="M288.14,-283.99,341.18,-375.50"/>
<path data-id="10-18" d="M288.14,-283.99,239.84,-237.40"/>
<path data-id="11-14" d="M414.09,-333.70,341.18,-375.50"/>
<path data-id="12-13" d="M395.57,-24.81,357.66,-19.66"/>
<path data-id="15-16" d="M25.40,-325.58,64.35,-214.05"/>
<circle data-id="0" cx="80.72" cy="-192.40" r="10.00px"/>
<text data-id="0" x="80.72" y="-192.40">R0</text>
<circle data-id="1" cx="41.45" cy="-85.55" r="10.00px"/>
<text data-id="1" x="41.45" y="-85.55">R1</text>
<circle data-id="2" cx="235.39" cy="-134.06" r="10.00px"/>
<text data-id="2" x="235.39" y="-134.06">R2</text>
<circle data-id="3" cx="228.81" cy="-426.16" r="10.00px"/>
<text data-id="3" x="228.81" y="-426.16">R3</text>
<circle data-id="4" cx="39.20" cy="-123.70" r="10.00px"/>
<text data-id="4" x="39.20" y="-123.70">R4</text>
<circle data-id="5" cx="304.68" cy="-116.07" r="10.00px"/>
<text data-id="5" x="304.68" y="-116.07">R5</text>
<circle data-id="6" cx="165.01" cy="-28.40" r="10.00px"/>
<text data-id="6" x="165.01" y="-28.40">R6</text>
<circle data-id="7" cx="327.76" cy="-12.74" r="10.00px"/>
<text data-id="7" x="327.76" y="-12.74">R7</text>
<circle data-id="8" cx="359.65" cy="-69.44" r="10.00px"/>
<text data-id="8" x="359.65" y="-69.44">R8</text>
<circle data-id="9" cx="425.02" cy="-121.08" r="10.00px"/>
<text data-id="9" x="425.02" y="-121.08">R9</text>
<circle data-id="10" cx="288.14" cy="-283.99" r="10.00px"/>
<text data-id="10" x="288.14" y="-283.99">R10</text>
<circle data-id="11" cx="414.09" cy="-333.70" r="10.00px"/>
<text data-id="11" x="414.09" y="-333.70">R11</text>
<circle data-id="12" cx="395.57" cy="-24.81" r="10.00px"/>
<text data-id="12" x="395.57" y="-24.81">R12</text>
<circle data-id="13" cx="357.66" cy="-19.66" r="10.00px"/>
<text data-id="13" x="357.66" y="-19.66">R13</text>
<circle data-id="14" cx="341.18" cy="-375.50" r="10.00px"/>
<text data-id="14" x="341.18" y="-375.50">R14</text>
<circle data-id="15" cx="25.40" cy="-325.58" r="10.00px"/>
<text data-id="15" x="25.40" y="-325.58">R15</text>
<circle data-id="16" cx="64.35" cy="-214.05" r="10.00px"/>
<text data-id="16" x="64.35" y="-214.05">R16</text>
<circle data-id="17" cx="350.39" cy="-96.56" r="10.00px"/>
<text data-id="17" x="350.39" y="-96.56">R17</text>
<circle data-id="18" cx="239.84" cy="-237.40" r="10.00px"/>
<text data-id="18" x="239.84" y="-237.40">R18</text>
<circle data-id="19" cx="104.48" cy="-122.22" r="10.00px"/>
<text data-id="19" x="104.48" y="-122.22">R19</text>
</svg>
