<svg id="topo" viewBox="-19.03 -776.41 785.97 804.54" xmlns="http://www.w3.org/2000/svg">
<style>#topo path {fill: none; stroke: grey; stroke-width: 5.0000px;} #topo circle {fill: lightblue; stroke: none; stroke-width: 0.3px; vector-effect: non-scaling-stroke; r: 10.0000px;} #topo text {fill: black; stroke: none; font-size: 15.0000px; font-family: sans-serif; text-anchor:middle; transform: translateY(0.3em);} #topo path.country {fill: lightgrey; stroke: black; stroke-width: 1px; vector-effect: non-scaling-stroke; visibility: visible;} #topo path.selection {fill: none; stroke: red; stroke-width: 1px; vector-effect: non-scaling-stroke; visibility: visible;} #topo path.utilization {visibility: hidden;}</style>
<path data-id="0-8" d="M160.72,-406.21,165.63,-373.20"/>
<path data-id="0-11" d="M160.72,-406.21,118.05,-367.09"/>
<path data-id="0-36" d="M160.72,-406.21,196.04,-483.85"/>
<path data-id="0-48" d="M160.72,-406.21,123.11,-455.38"/>
<path data-id="1-10" d="M203.95,-248.81,305.95,-314.42"/>
<path data-id="1-18" d="M203.95,-248.81,241.72,-217.46"/>
<path data-id="1-31" d="M203.95,-248.81,203.44,-209.79"/>
<path data-id="1-50" d="M203.95,-248.81,170.52,-282.49"/>
<path data-id="2-15" d="M364.69,-574.89,196.32,-533.35"/>
<path data-id="2-27" d="M364.69,-574.89,414.83,-573.45"/>
<path data-id="2-44" d="M364.69,-574.89,398.22,-622.40"/>
<path data-id="3-39" d="M402.15,-117.79,428.41,-210.06"/>
<path data-id="3-46" d="M402.15,-117.79,434.10,-94.81"/>
<path data-id="3-53" d="M402.15,-117.79,309.81,-191.90"/>
<path data-id="3-54" d="M402.15,-117.79,244.44,-72.05"/>
<path data-id="4-7" d="M461.90,-324.97,524.49,-192.69"/>
<path data-id="4-12" d="M461.90,-324.97,488.99,-341.38"/>
<path data-id="4-13" d="M461.90,-324.97,406.71,-345.79"/>
<path data-id="4-39" d="M461.90,-324.97,428.41,-210.06"/>
<path data-id="4-40" d="M461.90,-324.97,383.53,-271.60"/>
<path data-id="5-6" d="M420.23,-48.14,380.40,-25.27"/>
<path data-id="5-17" d="M420.23,-48.14,450.82,-45.90"/>
<path data-id="5-46" d="M420.23,-48.14,434.10,-94.81"/>
<path data-id="6-54" d="M380.40,-25.27,244.44,-72.05"/>
<path data-id="7-39" d="M524.49,-192.69,428.41,-210.06"/>
<path data-id="7-41" d="M524.49,-192.69,639.90,-222.28"/>
<path data-id="7-42" d="M524.49,-192.69,625.49,-86.57"/>
<path data-id="7-46" d="M524.49,-192.69,434.10,-94.81"/>
<path data-id="8-10" d="M165.63,-373.20,305.95,-314.42"/>
<path data-id="8-11" d="M165.63,-373.20,118.05,-367.09"/>
<path data-id="8-50" d="M165.63,-373.20,170.52,-282.49"/>
<path data-id="9-21" d="M670.57,-735.04,663.03,-643.63"/>
<path data-id="9-26" d="M670.57,-735.04,599.59,-676.32"/>
<path data-id="10-13" d="M305.95,-314.42,406.71,-345.79"/>
<path data-id="10-18" d="M305.95,-314.42,241.72,-217.46"/>
<path data-id="10-40" d="M305.95,-314.42,383.53,-271.60"/>
<path data-id="10-53" d="M305.95,-314.42,309.81,-191.90"/>
<path data-id="11-34" d="M118.05,-367.09,31.40,-424.24"/>
<path data-id="11-52" d="M118.05,-367.09,101.86,-345.49"/>
<path data-id="12-29" d="M488.99,-341.38,689.30,-445.89"/>
<path data-id="12-35" d="M488.99,-341.38,631.54,-268.60"/>
<path data-id="12-37" d="M488.99,-341.38,443.91,-519.33"/>
<path data-id="13-37" d="M406.71,-345.79,443.91,-519.33"/>
<path data-id="13-40" d="M406.71,-345.79,383.53,-271.60"/>
<path data-id="14-21" d="M614.37,-563.68,663.03,-643.63"/>
<path data-id="14-26" d="M614.37,-563.68,599.59,-676.32"/>
<path data-id="14-29" d="M614.37,-563.68,689.30,-445.89"/>
<path data-id="14-38" d="M614.37,-563.68,510.73,-616.98"/>
<path data-id="15-19" d="M196.32,-533.35,323.10,-684.48"/>
<path data-id="15-25" d="M196.32,-533.35,155.92,-617.25"/>
<path data-id="15-36" d="M196.32,-533.35,196.04,-483.85"/>
<path data-id="15-45" d="M196.32,-533.35,110.91,-579.31"/>
<path data-id="16-42" d="M659.71,-16.44,625.49,-86.57"/>
<path data-id="17-42" d="M450.82,-45.90,625.49,-86.57"/>
<path data-id="17-46" d="M450.82,-45.90,434.10,-94.81"/>
<path data-id="18-31" d="M241.72,-217.46,203.44,-209.79"/>
<path data-id="18-53" d="M241.72,-217.46,309.81,-191.90"/>
<path data-id="18-54" d="M241.72,-217.46,244.44,-72.05"/>
<path data-id="19-28" d="M323.10,-684.48,415.43,-662.52"/>
<path data-id="19-32" d="M323.10,-684.48,201.94,-699.99"/>
<path data-id="19-44" d="M323.10,-684.48,398.22,-622.40"/>
<path data-id="20-43" d="M180.87,-40.72,148.37,-129.05"/>
<path data-id="20-49" d="M180.87,-40.72,190.33,-8.44"/>
<path data-id="20-54" d="M180.87,-40.72,244.44,-72.05"/>
<path data-id="21-26" d="M663.03,-643.63,599.59,-676.32"/>
<path data-id="22-23" d="M29.80,-192.19,67.18,-184.87"/>
<path data-id="22-47" d="M29.80,-192.19,65.15,-287.34"/>
<path data-id="23-31" d="M67.18,-184.87,203.44,-209.79"/>
<path data-id="23-43" d="M67.18,-184.87,148.37,-129.05"/>
<path data-id="23-47" d="M67.18,-184.87,65.15,-287.34"/>
<path data-id="23-50" d="M67.18,-184.87,170.52,-282.49"/>
<path data-id="24-29" d="M731.22,-257.49,689.30,-445.89"/>
<path data-id="24-33" d="M731.22,-257.49,664.96,-166.24"/>
<path data-id="24-35" d="M731.22,-257.49,631.54,-268.60"/>
<path data-id="24-41" d="M731.22,-257.49,639.90,-222.28"/>
<path data-id="25-30" d="M155.92,-617.25,16.70,-739.84"/>
<path data-id="25-32" d="M155.92,-617.25,201.94,-699.99"/>
<path data-id="25-45" d="M155.92,-617.25,110.91,-579.31"/>
<path data-id="26-38" d="M599.59,-676.32,510.73,-616.98"/>
<path data-id="27-44" d="M414.83,-573.45,398.22,-622.40"/>
<path data-id="27-51" d="M414.83,-573.45,440.41,-550.93"/>
<path data-id="28-38" d="M415.43,-662.52,510.73,-616.98"/>
<path data-id="28-44" d="M415.43,-662.52,398.22,-622.40"/>
<path data-id="29-35" d="M689.30,-445.89,631.54,-268.60"/>
<path data-id="30-32" d="M16.70,-739.84,201.94,-699.99"/>
<path data-id="30-45" d="M16.70,-739.84,110.91,-579.31"/>
<path data-id="31-43" d="M203.44,-209.79,148.37,-129.05"/>
<path data-id="31-54" d="M203.44,-209.79,244.44,-72.05"/>
<path data-id="33-41" d="M664.96,-166.24,639.90,-222.28"/>
<path data-id="33-42" d="M664.96,-166.24,625.49,-86.57"/>
<path data-id="34-48" d="M31.40,-424.24,123.11,-455.38"/>
<path data-id="34-52" d="M31.40,-424.24,101.86,-345.49"/>
<path data-id="35-41" d="M631.54,-268.60,639.90,-222.28"/>
<path data-id="36-48" d="M196.04,-483.85,123.11,-455.38"/>
<path data-id="37-51" d="M443.91,-519.33,440.41,-550.93"/>
<path data-id="38-44" d="M510.73,-616.98,398.22,-622.40"/>
<path data-id="38-51" d="M510.73,-616.98,440.41,-550.93"/>
<path data-id="39-40" d="M428.41,-210.06,383.53,-271.60"/>
<path data-id="39-53" d="M428.41,-210.06,309.81,-191.90"/>
<path data-id="40-53" d="M383.53,-271.60,309.81,-191.90"/>
<path data-id="43-54" d="M148.37,-129.05,244.44,-72.05"/>
<path data-id="45-48" d="M110.91,-579.31,123.11,-455.38"/>
<path data-id="47-50" d="M65.15,-287.34,170.52,-282.49"/>
<path data-id="47-52" d="M65.15,-287.34,101.86,-345.49"/>
<path data-id="50-52" d="M170.52,-282.49,101.86,-345.49"/>
<path data-id="53-54" d="M309.81,-191.90,244.44,-72.05"/>
<circle data-id="0" cx="160.72" cy="-406.21" r="10.00px"/>
<text data-id="0" x="160.72" y="-406.21">R0</text>
<circle data-id="1" cx="203.95" cy="-248.81" r="10.00px"/>
<text data-id="1" x="203.95" y="-248.81">R1</text>
<circle data-id="2" cx="364.69" cy="-574.89" r="10.00px"/>
<text data-id="2" x="364.69" y="-574.89">R2</text>
<circle data-id="3" cx="402.15" cy="-117.79" r="10.00px"/>
<text data-id="3" x="402.15" y="-117.79">R3</text>
<circle data-id="4" cx="461.90" cy="-324.97" r="10.00px"/>
<text data-id="4" x="461.90" y="-324.97">R4</text>
<circle data-id="5" cx="420.23" cy="-48.14" r="10.00px"/>
<text data-id="5" x="420.23" y="-48.14">R5</text>
<circle data-id="6" cx="380.40" cy="-25.27" r="10.00px"/>
<text data-id="6" x="380.40" y="-25.27">R6</text>
<circle data-id="7" cx="524.49" cy="-192.69" r="10.00px"/>
<text data-id="7" x="524.49" y="-192.69">R7</text>
<circle data-id="8" cx="165.63" cy="-373.20" r="10.00px"/>
<text data-id="8" x="165.63" y="-373.20">R8</text>
<circle data-id="9" cx="670.57" cy="-735.04" r="10.00px"/>
<text data-id="9" x="670.57" y="-735.04">R9</text>
<circle data-id="10" cx="305.95" cy="-314.42" r="10.00px"/>
<text data-id="10" x="305.95" y="-314.42">R10</text>
<circle data-id="11" cx="118.05" cy="-367.09" r="10.00px"/>
<text data-id="11" x="118.05" y="-367.09">R11</text>
<circle data-id="12" cx="488.99" cy="-341.38" r="10.00px"/>
<text data-id="12" x="488.99" y="-341.38">R12</text>
<circle data-id="13" cx="406.71" cy="-345.79" r="10.00px"/>
<text data-id="13" x="406.71" y="-345.79">R13</text>
<circle data-id="14" cx="614.37" cy="-563.68" r="10.00px"/>
<text data-id="14" x="614.37" y="-563.68">R14</text>
<circle data-id="15" cx="196.32" cy="-533.35" r="10.00px"/>
<text data-id="15" x="196.32" y="-533.35">R15</text>
<circle data-id="16" cx="659.71" cy="-16.44" r="10.00px"/>
<text data-id="16" x="659.71" y="-16.44">R16</text>
<circle data-id="17" cx="450.82" cy="-45.90" r="10.00px"/>
<text data-id="17" x="450.82" y="-45.90">R17</text>
<circle data-id="18" cx="241.72" cy="-217.46" r="10.00px"/>
<text data-id="18" x="241.72" y="-217.46">R18</text>
<circle data-id="19" cx="323.10" cy="-684.48" r="10.00px"/>
<text data-id="19" x="323.10" y="-684.48">R19</text>
<circle data-id="20" cx="180.87" cy="-40.72" r="10.00px"/>
<text data-id="20" x="180.87" y="-40.72">R20</text>
<circle data-id="21" cx="663.03" cy="-643.63" r="10.00px"/>
<text data-id="21" x="663.03" y="-643.63">R21</text>
<circle data-id="22" cx="29.80" cy="-192.19" r="10.00px"/>
<text data-id="22" x="29.80" y="-192.19">R22</text>
<circle data-id="23" cx="67.18" cy="-184.87" r="10.00px"/>
<text data-id="23" x="67.18" y="-184.87">R23</text>
<circle data-id="24" cx="731.22" cy="-257.49" r="10.00px"/>
<text data-id="24" x="731.22" y="-257.49">R24</text>
<circle data-id="25" cx="155.92" cy="-617.25" r="10.00px"/>
<text data-id="25" x="155.92" y="-617.25">R25</text>
<circle data-id="26" cx="599.59" cy="-676.32" r="10.00px"/>
<text data-id="26" x="599.59" y="-676.32">R26</text>
<circle data-id="27" cx="414.83" cy="-573.45" r="10.00px"/>
<text data-id="27" x="414.83" y="-573.45">R27</text>
<circle data-id="28" cx="415.43" cy="-662.52" r="10.00px"/>
<text data-id="28" x="415.43" y="-662.52">R28</text>
<circle data-id="29" cx="689.30" cy="-445.89" r="10.00px"/>
<text data-id="29" x="689.30" y="-445.89">R29</text>
<circle data-id="30" cx="16.70" cy="-739.84" r="10.00px"/>
<text data-id="30" x="16.70" y="-739.84">R30</text>
<circle data-id="31" cx="203.44" cy="-209.79" r="10.00px"/>
<text data-id="31" x="203.44" y="-209.79">R31</text>
<circle data-id="32" cx="201.94" cy="-699.99" r="10.00px"/>
<text data-id="32" x="201.94" y="-699.99">R32</text>
<circle data-id="33" cx="664.96" cy="-166.24" r="10.00px"/>
<text data-id="33" x="664.96" y="-166.24">R33</text>
<circle data-id="34" cx="31.40" cy="-424.24" r="10.00px"/>
<text data-id="34" x="31.40" y="-424.24">R34</text>
<circle data-id="35" cx="631.54" cy="-268.60" r="10.00px"/>
<text data-id="35" x="631.54" y="-268.60">R35</text>
<circle data-id="36" cx="196.04" cy="-483.85" r="10.00px"/>
<text data-id="36" x="196.04" y="-483.85">R36</text>
<circle data-id="37" cx="443.91" cy="-519.33" r="10.00px"/>
<text data-id="37" x="443.91" y="-519.33">R37</text>
<circle data-id="38" cx="510.73" cy="-616.98" r="10.00px"/>
<text data-id="38" x="510.73" y="-616.98">R38</text>
<circle data-id="39" cx="428.41" cy="-210.06" r="10.00px"/>
<text data-id="39" x="428.41" y="-210.06">R39</text>
<circle data-id="40" cx="383.53" cy="-271.60" r="10.00px"/>
<text data-id="40" x="383.53" y="-271.60">R40</text>
<circle data-id="41" cx="639.90" cy="-222.28" r="10.00px"/>
<text data-id="41" x="639.90" y="-222.28">R41</text>
<circle data-id="42" cx="625.49" cy="-86.57" r="10.00px"/>
<text data-id="42" x="625.49" y="-86.57">R42</text>
<circle data-id="43" cx="148.37" cy="-129.05" r="10.00px"/>
<text data-id="43" x="148.37" y="-129.05">R43</text>
<circle data-id="44" cx="398.22" cy="-622.40" r="10.00px"/>
<text data-id="44" x="398.22" y="-622.40">R44</text>
<circle data-id="45" cx="110.91" cy="-579.31" r="10.00px"/>
<text data-id="45" x="110.91" y="-579.31">R45</text>
<circle data-id="46" cx="434.10" cy="-94.81" r="10.00px"/>
<text data-id="46" x="434.10" y="-94.81">R46</text>
<circle data-id="47" cx="65.15" cy="-287.34" r="10.00px"/>
<text data-id="47" x="65.15" y="-287.34">R47</text>
<circle data-id="48" cx="123.11" cy="-455.38" r="10.00px"/>
<text data-id="48" x="123.11" y="-455.38">R48</text>
<circle data-id="49" cx="190.33" cy="-8.44" r="10.00px"/>
<text data-id="49" x="190.33" y="-8.44">R49</text>
<circle data-id="50" cx="170.52" cy="-282.49" r="10.00px"/>
<text data-id="50" x="170.52" y="-282.49">R50</text>
<circle data-id="51" cx="440.41" cy="-550.93" r="10.00px"/>
<text data-id="51" x="440.41" y="-550.93">R51</text>
<circle data-id="52" cx="101.86" cy="-345.49" r="10.00px"/>
<text data-id="52" x="101.86" y="-345.49">R52</text>
<circle data-id="53" cx="309.81" cy="-191.90" r="10.00px"/>
<text data-id="53" x="309.81" y="-191.90">R53</text>
<circle data-id="54" cx="244.44" cy="-72.05" r="10.00px"/>
<text data-id="54" x="244.44" y="-72.05">R54</text>
</svg>
