<svg id="topo" viewBox="-35.06 -767.80 800.01 787.24" xmlns="http://www.w3.org/2000/svg">
<style>#topo path {fill: none; stroke: grey; stroke-width: 5.0000px;} #topo circle {fill: lightblue; stroke: none; stroke-width: 0.3px; vector-effect: non-scaling-stroke; r: 10.0000px;} #topo text {fill: black; stroke: none; font-size: 15.0000px; font-family: sans-serif; text-anchor:middle; transform: translateY(0.3em);} #topo path.country {fill: lightgrey; stroke: black; stroke-width: 1px; vector-effect: non-scaling-stroke; visibility: visible;} #topo path.selection {fill: none; stroke: red; stroke-width: 1px; vector-effect: non-scaling-stroke; visibility: visible;} #topo path.utilization {visibility: hidden;}</style>
<path data-id="0-24" d="M426.17,-441.64,359.59,-517.30"/>
<path data-id="0-30" d="M426.17,-441.64,373.24,-381.42"/>
<path data-id="0-42" d="M426.17,-441.64,505.73,-452.26"/>
<path data-id="1-8" d="M191.97,-133.45,298.96,-105.08"/>
<path data-id="1-47" d="M191.97,-133.45,299.76,-206.69"/>
<path data-id="1-50" d="M191.97,-133.45,238.05,-236.53"/>
<path data-id="1-52" d="M191.97,-133.45,112.54,-38.74"/>
<path data-id="1-53" d="M191.97,-133.45,154.27,-16.34"/>
<path data-id="2-18" d="M271.32,-654.91,208.63,-536.55"/>
<path data-id="2-26" d="M271.32,-654.91,388.21,-612.42"/>
<path data-id="2-31" d="M271.32,-654.91,361.34,-696.99"/>
<path data-id="2-35" d="M271.32,-654.91,160.55,-651.79"/>
<path data-id="2-46" d="M271.32,-654.91,178.04,-718.53"/>
<path data-id="3-14" d="M660.64,-450.79,529.14,-491.34"/>
<path data-id="3-27" d="M660.64,-450.79,664.98,-365.82"/>
<path data-id="3-38" d="M660.64,-450.79,530.20,-395.36"/>
<path data-id="3-44" d="M660.64,-450.79,661.76,-541.27"/>
<path data-id="4-31" d="M576.76,-701.53,361.34,-696.99"/>
<path data-id="4-34" d="M576.76,-701.53,669.94,-626.06"/>
<path data-id="4-45" d="M576.76,-701.53,510.73,-584.95"/>
<path data-id="5-32" d="M127.20,-479.81,110.48,-408.06"/>
<path data-id="5-33" d="M127.20,-479.81,51.15,-529.03"/>
<path data-id="5-40" d="M127.20,-479.81,151.71,-490.42"/>
<path data-id="5-43" d="M127.20,-479.81,103.19,-585.62"/>
<path data-id="6-21" d="M312.03,-415.51,190.74,-457.07"/>
<path data-id="6-24" d="M312.03,-415.51,359.59,-517.30"/>
<path data-id="6-30" d="M312.03,-415.51,373.24,-381.42"/>
<path data-id="6-50" d="M312.03,-415.51,238.05,-236.53"/>
<path data-id="7-23" d="M411.67,-310.59,341.22,-232.96"/>
<path data-id="7-28" d="M411.67,-310.59,516.98,-292.46"/>
<path data-id="7-30" d="M411.67,-310.59,373.24,-381.42"/>
<path data-id="7-36" d="M411.67,-310.59,445.47,-168.60"/>
<path data-id="7-38" d="M411.67,-310.59,530.20,-395.36"/>
<path data-id="8-11" d="M298.96,-105.08,326.35,-64.09"/>
<path data-id="8-22" d="M298.96,-105.08,323.86,-142.37"/>
<path data-id="9-24" d="M426.29,-592.52,359.59,-517.30"/>
<path data-id="9-26" d="M426.29,-592.52,388.21,-612.42"/>
<path data-id="9-45" d="M426.29,-592.52,510.73,-584.95"/>
<path data-id="10-23" d="M411.18,-157.96,341.22,-232.96"/>
<path data-id="10-36" d="M411.18,-157.96,445.47,-168.60"/>
<path data-id="10-39" d="M411.18,-157.96,374.90,-140.84"/>
<path data-id="11-39" d="M326.35,-64.09,374.90,-140.84"/>
<path data-id="12-15" d="M106.96,-307.21,57.90,-341.13"/>
<path data-id="12-32" d="M106.96,-307.21,110.48,-408.06"/>
<path data-id="12-50" d="M106.96,-307.21,238.05,-236.53"/>
<path data-id="13-17" d="M504.61,-185.44,618.93,-214.77"/>
<path data-id="13-28" d="M504.61,-185.44,516.98,-292.46"/>
<path data-id="13-29" d="M504.61,-185.44,502.42,-116.25"/>
<path data-id="13-36" d="M504.61,-185.44,445.47,-168.60"/>
<path data-id="14-42" d="M529.14,-491.34,505.73,-452.26"/>
<path data-id="14-44" d="M529.14,-491.34,661.76,-541.27"/>
<path data-id="14-45" d="M529.14,-491.34,510.73,-584.95"/>
<path data-id="15-32" d="M57.90,-341.13,110.48,-408.06"/>
<path data-id="16-17" d="M637.99,-298.98,618.93,-214.77"/>
<path data-id="16-27" d="M637.99,-298.98,664.98,-365.82"/>
<path data-id="16-28" d="M637.99,-298.98,516.98,-292.46"/>
<path data-id="16-38" d="M637.99,-298.98,530.20,-395.36"/>
<path data-id="16-48" d="M637.99,-298.98,665.58,-282.96"/>
<path data-id="17-20" d="M618.93,-214.77,665.04,-18.90"/>
<path data-id="17-28" d="M618.93,-214.77,516.98,-292.46"/>
<path data-id="17-41" d="M618.93,-214.77,728.59,-218.40"/>
<path data-id="17-48" d="M618.93,-214.77,665.58,-282.96"/>
<path data-id="18-21" d="M208.63,-536.55,190.74,-457.07"/>
<path data-id="18-24" d="M208.63,-536.55,359.59,-517.30"/>
<path data-id="18-35" d="M208.63,-536.55,160.55,-651.79"/>
<path data-id="18-40" d="M208.63,-536.55,151.71,-490.42"/>
<path data-id="18-43" d="M208.63,-536.55,103.19,-585.62"/>
<path data-id="19-37" d="M62.79,-711.14,76.12,-654.45"/>
<path data-id="19-49" d="M62.79,-711.14,5.92,-679.26"/>
<path data-id="19-54" d="M62.79,-711.14,81.35,-732.02"/>
<path data-id="20-29" d="M665.04,-18.90,502.42,-116.25"/>
<path data-id="20-41" d="M665.04,-18.90,728.59,-218.40"/>
<path data-id="21-32" d="M190.74,-457.07,110.48,-408.06"/>
<path data-id="21-40" d="M190.74,-457.07,151.71,-490.42"/>
<path data-id="21-50" d="M190.74,-457.07,238.05,-236.53"/>
<path data-id="22-39" d="M323.86,-142.37,374.90,-140.84"/>
<path data-id="22-47" d="M323.86,-142.37,299.76,-206.69"/>
<path data-id="23-39" d="M341.22,-232.96,374.90,-140.84"/>
<path data-id="23-47" d="M341.22,-232.96,299.76,-206.69"/>
<path data-id="24-26" d="M359.59,-517.30,388.21,-612.42"/>
<path data-id="25-52" d="M15.25,-39.63,112.54,-38.74"/>
<path data-id="26-31" d="M388.21,-612.42,361.34,-696.99"/>
<path data-id="27-38" d="M664.98,-365.82,530.20,-395.36"/>
<path data-id="28-38" d="M516.98,-292.46,530.20,-395.36"/>
<path data-id="29-36" d="M502.42,-116.25,445.47,-168.60"/>
<path data-id="33-43" d="M51.15,-529.03,103.19,-585.62"/>
<path data-id="33-51" d="M51.15,-529.03,1.31,-523.60"/>
<path data-id="34-44" d="M669.94,-626.06,661.76,-541.27"/>
<path data-id="34-45" d="M669.94,-626.06,510.73,-584.95"/>
<path data-id="35-37" d="M160.55,-651.79,76.12,-654.45"/>
<path data-id="35-43" d="M160.55,-651.79,103.19,-585.62"/>
<path data-id="35-46" d="M160.55,-651.79,178.04,-718.53"/>
<path data-id="35-54" d="M160.55,-651.79,81.35,-732.02"/>
<path data-id="37-43" d="M76.12,-654.45,103.19,-585.62"/>
<path data-id="37-49" d="M76.12,-654.45,5.92,-679.26"/>
<path data-id="38-42" d="M530.20,-395.36,505.73,-452.26"/>
<path data-id="40-43" d="M151.71,-490.42,103.19,-585.62"/>
<path data-id="41-48" d="M728.59,-218.40,665.58,-282.96"/>
<path data-id="44-45" d="M661.76,-541.27,510.73,-584.95"/>
<path data-id="46-54" d="M178.04,-718.53,81.35,-732.02"/>
<path data-id="47-50" d="M299.76,-206.69,238.05,-236.53"/>
<path data-id="49-51" d="M5.92,-679.26,1.31,-523.60"/>
<path data-id="52-53" d="M112.54,-38.74,154.27,-16.34"/>
<circle data-id="0" cx="426.17" cy="-441.64" r="10.00px"/>
<text data-id="0" x="426.17" y="-441.64">R0</text>
<circle data-id="1" cx="191.97" cy="-133.45" r="10.00px"/>
<text data-id="1" x="191.97" y="-133.45">R1</text>
<circle data-id="2" cx="271.32" cy="-654.91" r="10.00px"/>
<text data-id="2" x="271.32" y="-654.91">R2</text>
<circle data-id="3" cx="660.64" cy="-450.79" r="10.00px"/>
<text data-id="3" x="660.64" y="-450.79">R3</text>
<circle data-id="4" cx="576.76" cy="-701.53" r="10.00px"/>
<text data-id="4" x="576.76" y="-701.53">R4</text>
<circle data-id="5" cx="127.20" cy="-479.81" r="10.00px"/>
<text data-id="5" x="127.20" y="-479.81">R5</text>
<circle data-id="6" cx="312.03" cy="-415.51" r="10.00px"/>
<text data-id="6" x="312.03" y="-415.51">R6</text>
<circle data-id="7" cx="411.67" cy="-310.59" r="10.00px"/>
<text data-id="7" x="411.67" y="-310.59">R7</text>
<circle data-id="8" cx="298.96" cy="-105.08" r="10.00px"/>
<text data-id="8" x="298.96" y="-105.08">R8</text>
<circle data-id="9" cx="426.29" cy="-592.52" r="10.00px"/>
<text data-id="9" x="426.29" y="-592.52">R9</text>
<circle data-id="10" cx="411.18" cy="-157.96" r="10.00px"/>
<text data-id="10" x="411.18" y="-157.96">R10</text>
<circle data-id="11" cx="326.35" cy="-64.09" r="10.00px"/>
<text data-id="11" x="326.35" y="-64.09">R11</text>
<circle data-id="12" cx="106.96" cy="-307.21" r="10.00px"/>
<text data-id="12" x="106.96" y="-307.21">R12</text>
<circle data-id="13" cx="504.61" cy="-185.44" r="10.00px"/>
<text data-id="13" x="504.61" y="-185.44">R13</text>
<circle data-id="14" cx="529.14" cy="-491.34" r="10.00px"/>
<text data-id="14" x="529.14" y="-491.34">R14</text>
<circle data-id="15" cx="57.90" cy="-341.13" r="10.00px"/>
<text data-id="15" x="57.90" y="-341.13">R15</text>
<circle data-id="16" cx="637.99" cy="-298.98" r="10.00px"/>
<text data-id="16" x="637.99" y="-298.98">R16</text>
<circle data-id="17" cx="618.93" cy="-214.77" r="10.00px"/>
<text data-id="17" x="618.93" y="-214.77">R17</text>
<circle data-id="18" cx="208.63" cy="-536.55" r="10.00px"/>
<text data-id="18" x="208.63" y="-536.55">R18</text>
<circle data-id="19" cx="62.79" cy="-711.14" r="10.00px"/>
<text data-id="19" x="62.79" y="-711.14">R19</text>
<circle data-id="20" cx="665.04" cy="-18.90" r="10.00px"/>
<text data-id="20" x="665.04" y="-18.90">R20</text>
<circle data-id="21" cx="190.74" cy="-457.07" r="10.00px"/>
<text data-id="21" x="190.74" y="-457.07">R21</text>
<circle data-id="22" cx="323.86" cy="-142.37" r="10.00px"/>
<text data-id="22" x="323.86" y="-142.37">R22</text>
<circle data-id="23" cx="341.22" cy="-232.96" r="10.00px"/>
<text data-id="23" x="341.22" y="-232.96">R23</text>
<circle data-id="24" cx="359.59" cy="-517.30" r="10.00px"/>
<text data-id="24" x="359.59" y="-517.30">R24</text>
<circle data-id="25" cx="15.25" cy="-39.63" r="10.00px"/>
<text data-id="25" x="15.25" y="-39.63">R25</text>
<circle data-id="26" cx="388.21" cy="-612.42" r="10.00px"/>
<text data-id="26" x="388.21" y="-612.42">R26</text>
<circle data-id="27" cx="664.98" cy="-365.82" r="10.00px"/>
<text data-id="27" x="664.98" y="-365.82">R27</text>
<circle data-id="28" cx="516.98" cy="-292.46" r="10.00px"/>
<text data-id="28" x="516.98" y="-292.46">R28</text>
<circle data-id="29" cx="502.42" cy="-116.25" r="10.00px"/>
<text data-id="29" x="502.42" y="-116.25">R29</text>
<circle data-id="30" cx="373.24" cy="-381.42" r="10.00px"/>
<text data-id="30" x="373.24" y="-381.42">R30</text>
<circle data-id="31" cx="361.34" cy="-696.99" r="10.00px"/>
<text data-id="31" x="361.34" y="-696.99">R31</text>
<circle data-id="32" cx="110.48" cy="-408.06" r="10.00px"/>
<text data-id="32" x="110.48" y="-408.06">R32</text>
<circle data-id="33" cx="51.15" cy="-529.03" r="10.00px"/>
<text data-id="33" x="51.15" y="-529.03">R33</text>
<circle data-id="34" cx="669.94" cy="-626.06" r="10.00px"/>
<text data-id="34" x="669.94" y="-626.06">R34</text>
<circle data-id="35" cx="160.55" cy="-651.79" r="10.00px"/>
<text data-id="35" x="160.55" y="-651.79">R35</text>
<circle data-id="36" cx="445.47" cy="-168.60" r="10.00px"/>
<text data-id="36" x="445.47" y="-168.60">R36</text>
<circle data-id="37" cx="76.12" cy="-654.45" r="10.00px"/>
<text data-id="37" x="76.12" y="-654.45">R37</text>
<circle data-id="38" cx="530.20" cy="-395.36" r="10.00px"/>
<text data-id="38" x="530.20" y="-395.36">R38</text>
<circle data-id="39" cx="374.90" cy="-140.84" r="10.00px"/>
<text data-id="39" x="374.90" y="-140.84">R39</text>
<circle data-id="40" cx="151.71" cy="-490.42" r="10.00px"/>
<text data-id="40" x="151.71" y="-490.42">R40</text>
<circle data-id="41" cx="728.59" cy="-218.40" r="10.00px"/>
<text data-id="41" x="728.59" y="-218.40">R41</text>
<circle data-id="42" cx="505.73" cy="-452.26" r="10.00px"/>
<text data-id="42" x="505.73" y="-452.26">R42</text>
<circle data-id="43" cx="103.19" cy="-585.62" r="10.00px"/>
<text data-id="43" x="103.19" y="-585.62">R43</text>
<circle data-id="44" cx="661.76" cy="-541.27" r="10.00px"/>
<text data-id="44" x="661.76" y="-541.27">R44</text>
<circle data-id="45" cx="510.73" cy="-584.95" r="10.00px"/>
<text data-id="45" x="510.73" y="-584.95">R45</text>
<circle data-id="46" cx="178.04" cy="-718.53" r="10.00px"/>
<text data-id="46" x="178.04" y="-718.53">R46</text>
<circle data-id="47" cx="299.76" cy="-206.69" r="10.00px"/>
<text data-id="47" x="299.76" y="-206.69">R47</text>
<circle data-id="48" cx="665.58" cy="-282.96" r="10.00px"/>
<text data-id="48" x="665.58" y="-282.96">R48</text>
<circle data-id="49" cx="5.92" cy="-679.26" r="10.00px"/>
<text data-id="49" x="5.92" y="-679.26">R49</text>
<circle data-id="50" cx="238.05" cy="-236.53" r="10.00px"/>
<text data-id="50" x="238.05" y="-236.53">R50</text>
<circle data-id="51" cx="1.31" cy="-523.60" r="10.00px"/>
<text data-id="51" x="1.31" y="-523.60">R51</text>
<circle data-id="52" cx="112.54" cy="-38.74" r="10.00px"/>
<text data-id="52" x="112.54" y="-38.74">R52</text>
<circle data-id="53" cx="154.27" cy="-16.34" r="10.00px"/>
<text data-id="53" x="154.27" y="-16.34">R53</text>
<circle data-id="54" cx="81.35" cy="-732.02" r="10.00px"/>
<text data-id="54" x="81.35" y="-732.02">R54</text>
</svg>
