<svg id="topo" viewBox="-15.30 -767.22 761.96 791.55" xmlns="http://www.w3.org/2000/svg">
<style>#topo path {fill: none; stroke: grey; stroke-width: 5.0000px;} #topo circle {fill: lightblue; stroke: none; stroke-width: 0.3px; vector-effect: non-scaling-stroke; r: 10.0000px;} #topo text {fill: black; stroke: none; font-size: 15.0000px; font-family: sans-serif; text-anchor:middle; transform: translateY(0.3em);} #topo path.country {fill: lightgrey; stroke: black; stroke-width: 1px; vector-effect: non-scaling-stroke; visibility: visible;} #topo path.selection {fill: none; stroke: red; stroke-width: 1px; vector-effect: non-scaling-stroke; visibility: visible;} #topo path.utilization {visibility: hidden;}</style>
<path data-id="0-1" d="M38.03,-96.93,72.94,-110.62"/>
<path data-id="1-3" d="M72.94,-110.62,124.88,-55.25"/>
<path data-id="1-50" d="M72.94,-110.62,63.40,-144.04"/>
<path data-id="2-5" d="M628.89,-354.27,661.80,-435.59"/>
<path data-id="2-21" d="M628.89,-354.27,670.99,-331.12"/>
<path data-id="2-32" d="M628.89,-354.27,566.99,-361.76"/>
<path data-id="3-6" d="M124.88,-55.25,200.95,-73.93"/>
<path data-id="3-9" d="M124.88,-55.25,145.87,-11.65"/>
<path data-id="4-24" d="M413.07,-383.99,381.22,-368.28"/>
<path data-id="4-35" d="M413.07,-383.99,468.00,-435.18"/>
<path data-id="4-44" d="M413.07,-383.99,412.48,-350.11"/>
<path data-id="4-53" d="M413.07,-383.99,385.86,-411.99"/>
<path data-id="5-7" d="M661.80,-435.59,665.75,-479.61"/>
<path data-id="5-18" d="M661.80,-435.59,503.44,-483.81"/>
<path data-id="6-9" d="M200.95,-73.93,145.87,-11.65"/>
<path data-id="6-16" d="M200.95,-73.93,257.27,-55.51"/>
<path data-id="7-10" d="M665.75,-479.61,712.03,-479.38"/>
<path data-id="7-18" d="M665.75,-479.61,503.44,-483.81"/>
<path data-id="7-52" d="M665.75,-479.61,618.61,-559.39"/>
<path data-id="8-13" d="M370.07,-591.17,333.58,-636.60"/>
<path data-id="8-23" d="M370.07,-591.17,429.72,-550.74"/>
<path data-id="8-26" d="M370.07,-591.17,460.87,-612.97"/>
<path data-id="11-32" d="M446.34,-301.91,566.99,-361.76"/>
<path data-id="11-44" d="M446.34,-301.91,412.48,-350.11"/>
<path data-id="11-45" d="M446.34,-301.91,416.00,-207.38"/>
<path data-id="12-26" d="M495.96,-646.15,460.87,-612.97"/>
<path data-id="12-33" d="M495.96,-646.15,570.62,-588.27"/>
<path data-id="12-38" d="M495.96,-646.15,520.24,-568.57"/>
<path data-id="13-39" d="M333.58,-636.60,309.94,-626.44"/>
<path data-id="14-17" d="M155.64,-550.29,180.05,-452.35"/>
<path data-id="14-41" d="M155.64,-550.29,202.48,-586.23"/>
<path data-id="14-46" d="M155.64,-550.29,59.66,-477.80"/>
<path data-id="14-47" d="M155.64,-550.29,101.97,-583.90"/>
<path data-id="15-30" d="M688.83,-731.24,639.40,-674.74"/>
<path data-id="16-19" d="M257.27,-55.51,328.13,-119.34"/>
<path data-id="16-25" d="M257.27,-55.51,374.90,-47.39"/>
<path data-id="17-22" d="M180.05,-452.35,344.05,-453.39"/>
<path data-id="17-43" d="M180.05,-452.35,173.11,-328.93"/>
<path data-id="17-46" d="M180.05,-452.35,59.66,-477.80"/>
<path data-id="17-48" d="M180.05,-452.35,338.20,-401.88"/>
<path data-id="18-29" d="M503.44,-483.81,423.17,-519.28"/>
<path data-id="18-35" d="M503.44,-483.81,468.00,-435.18"/>
<path data-id="18-38" d="M503.44,-483.81,520.24,-568.57"/>
<path data-id="19-20" d="M328.13,-119.34,268.51,-310.14"/>
<path data-id="19-25" d="M328.13,-119.34,374.90,-47.39"/>
<path data-id="19-40" d="M328.13,-119.34,430.50,-100.37"/>
<path data-id="19-45" d="M328.13,-119.34,416.00,-207.38"/>
<path data-id="20-24" d="M268.51,-310.14,381.22,-368.28"/>
<path data-id="20-43" d="M268.51,-310.14,173.11,-328.93"/>
<path data-id="20-45" d="M268.51,-310.14,416.00,-207.38"/>
<path data-id="20-48" d="M268.51,-310.14,338.20,-401.88"/>
<path data-id="21-28" d="M670.99,-331.12,518.61,-87.93"/>
<path data-id="22-29" d="M344.05,-453.39,423.17,-519.28"/>
<path data-id="22-41" d="M344.05,-453.39,202.48,-586.23"/>
<path data-id="22-48" d="M344.05,-453.39,338.20,-401.88"/>
<path data-id="22-51" d="M344.05,-453.39,246.42,-613.59"/>
<path data-id="22-53" d="M344.05,-453.39,385.86,-411.99"/>
<path data-id="23-26" d="M429.72,-550.74,460.87,-612.97"/>
<path data-id="23-29" d="M429.72,-550.74,423.17,-519.28"/>
<path data-id="23-38" d="M429.72,-550.74,520.24,-568.57"/>
<path data-id="24-44" d="M381.22,-368.28,412.48,-350.11"/>
<path data-id="24-48" d="M381.22,-368.28,338.20,-401.88"/>
<path data-id="24-53" d="M381.22,-368.28,385.86,-411.99"/>
<path data-id="25-40" d="M374.90,-47.39,430.50,-100.37"/>
<path data-id="25-54" d="M374.90,-47.39,506.91,-19.93"/>
<path data-id="26-38" d="M460.87,-612.97,520.24,-568.57"/>
<path data-id="27-34" d="M83.99,-613.02,134.64,-650.63"/>
<path data-id="27-36" d="M83.99,-613.02,41.81,-705.58"/>
<path data-id="27-47" d="M83.99,-613.02,101.97,-583.90"/>
<path data-id="28-37" d="M518.61,-87.93,531.19,-35.48"/>
<path data-id="28-40" d="M518.61,-87.93,430.50,-100.37"/>
<path data-id="29-35" d="M423.17,-519.28,468.00,-435.18"/>
<path data-id="29-53" d="M423.17,-519.28,385.86,-411.99"/>
<path data-id="30-42" d="M639.40,-674.74,637.41,-587.26"/>
<path data-id="31-43" d="M19.34,-379.64,173.11,-328.93"/>
<path data-id="31-46" d="M19.34,-379.64,59.66,-477.80"/>
<path data-id="31-49" d="M19.34,-379.64,87.97,-189.99"/>
<path data-id="32-35" d="M566.99,-361.76,468.00,-435.18"/>
<path data-id="33-38" d="M570.62,-588.27,520.24,-568.57"/>
<path data-id="33-52" d="M570.62,-588.27,618.61,-559.39"/>
<path data-id="34-36" d="M134.64,-650.63,41.81,-705.58"/>
<path data-id="34-41" d="M134.64,-650.63,202.48,-586.23"/>
<path data-id="37-54" d="M531.19,-35.48,506.91,-19.93"/>
<path data-id="39-51" d="M309.94,-626.44,246.42,-613.59"/>
<path data-id="40-45" d="M430.50,-100.37,416.00,-207.38"/>
<path data-id="40-54" d="M430.50,-100.37,506.91,-19.93"/>
<path data-id="41-51" d="M202.48,-586.23,246.42,-613.59"/>
<path data-id="42-52" d="M637.41,-587.26,618.61,-559.39"/>
<path data-id="43-49" d="M173.11,-328.93,87.97,-189.99"/>
<path data-id="46-47" d="M59.66,-477.80,101.97,-583.90"/>
<path data-id="48-53" d="M338.20,-401.88,385.86,-411.99"/>
<path data-id="49-50" d="M87.97,-189.99,63.40,-144.04"/>
<circle data-id="0" cx="38.03" cy="-96.93" r="10.00px"/>
<text data-id="0" x="38.03" y="-96.93">R0</text>
<circle data-id="1" cx="72.94" cy="-110.62" r="10.00px"/>
<text data-id="1" x="72.94" y="-110.62">R1</text>
<circle data-id="2" cx="628.89" cy="-354.27" r="10.00px"/>
<text data-id="2" x="628.89" y="-354.27">R2</text>
<circle data-id="3" cx="124.88" cy="-55.25" r="10.00px"/>
<text data-id="3" x="124.88" y="-55.25">R3</text>
<circle data-id="4" cx="413.07" cy="-383.99" r="10.00px"/>
<text data-id="4" x="413.07" y="-383.99">R4</text>
<circle data-id="5" cx="661.80" cy="-435.59" r="10.00px"/>
<text data-id="5" x="661.80" y="-435.59">R5</text>
<circle data-id="6" cx="200.95" cy="-73.93" r="10.00px"/>
<text data-id="6" x="200.95" y="-73.93">R6</text>
<circle data-id="7" cx="665.75" cy="-479.61" r="10.00px"/>
<text data-id="7" x="665.75" y="-479.61">R7</text>
<circle data-id="8" cx="370.07" cy="-591.17" r="10.00px"/>
<text data-id="8" x="370.07" y="-591.17">R8</text>
<circle data-id="9" cx="145.87" cy="-11.65" r="10.00px"/>
<text data-id="9" x="145.87" y="-11.65">R9</text>
<circle data-id="10" cx="712.03" cy="-479.38" r="10.00px"/>
<text data-id="10" x="712.03" y="-479.38">R10</text>
<circle data-id="11" cx="446.34" cy="-301.91" r="10.00px"/>
<text data-id="11" x="446.34" y="-301.91">R11</text>
<circle data-id="12" cx="495.96" cy="-646.15" r="10.00px"/>
<text data-id="12" x="495.96" y="-646.15">R12</text>
<circle data-id="13" cx="333.58" cy="-636.60" r="10.00px"/>
<text data-id="13" x="333.58" y="-636.60">R13</text>
<circle data-id="14" cx="155.64" cy="-550.29" r="10.00px"/>
<text data-id="14" x="155.64" y="-550.29">R14</text>
<circle data-id="15" cx="688.83" cy="-731.24" r="10.00px"/>
<text data-id="15" x="688.83" y="-731.24">R15</text>
<circle data-id="16" cx="257.27" cy="-55.51" r="10.00px"/>
<text data-id="16" x="257.27" y="-55.51">R16</text>
<circle data-id="17" cx="180.05" cy="-452.35" r="10.00px"/>
<text data-id="17" x="180.05" y="-452.35">R17</text>
<circle data-id="18" cx="503.44" cy="-483.81" r="10.00px"/>
<text data-id="18" x="503.44" y="-483.81">R18</text>
<circle data-id="19" cx="328.13" cy="-119.34" r="10.00px"/>
<text data-id="19" x="328.13" y="-119.34">R19</text>
<circle data-id="20" cx="268.51" cy="-310.14" r="10.00px"/>
<text data-id="20" x="268.51" y="-310.14">R20</text>
<circle data-id="21" cx="670.99" cy="-331.12" r="10.00px"/>
<text data-id="21" x="670.99" y="-331.12">R21</text>
<circle data-id="22" cx="344.05" cy="-453.39" r="10.00px"/>
<text data-id="22" x="344.05" y="-453.39">R22</text>
<circle data-id="23" cx="429.72" cy="-550.74" r="10.00px"/>
<text data-id="23" x="429.72" y="-550.74">R23</text>
<circle data-id="24" cx="381.22" cy="-368.28" r="10.00px"/>
<text data-id="24" x="381.22" y="-368.28">R24</text>
<circle data-id="25" cx="374.90" cy="-47.39" r="10.00px"/>
<text data-id="25" x="374.90" y="-47.39">R25</text>
<circle data-id="26" cx="460.87" cy="-612.97" r="10.00px"/>
<text data-id="26" x="460.87" y="-612.97">R26</text>
<circle data-id="27" cx="83.99" cy="-613.02" r="10.00px"/>
<text data-id="27" x="83.99" y="-613.02">R27</text>
<circle data-id="28" cx="518.61" cy="-87.93" r="10.00px"/>
<text data-id="28" x="518.61" y="-87.93">R28</text>
<circle data-id="29" cx="423.17" cy="-519.28" r="10.00px"/>
<text data-id="29" x="423.17" y="-519.28">R29</text>
<circle data-id="30" cx="639.40" cy="-674.74" r="10.00px"/>
<text data-id="30" x="639.40" y="-674.74">R30</text>
<circle data-id="31" cx="19.34" cy="-379.64" r="10.00px"/>
<text data-id="31" x="19.34" y="-379.64">R31</text>
<circle data-id="32" cx="566.99" cy="-361.76" r="10.00px"/>
<text data-id="32" x="566.99" y="-361.76">R32</text>
<circle data-id="33" cx="570.62" cy="-588.27" r="10.00px"/>
<text data-id="33" x="570.62" y="-588.27">R33</text>
<circle data-id="34" cx="134.64" cy="-650.63" r="10.00px"/>
<text data-id="34" x="134.64" y="-650.63">R34</text>
<circle data-id="35" cx="468.00" cy="-435.18" r="10.00px"/>
<text data-id="35" x="468.00" y="-435.18">R35</text>
<circle data-id="36" cx="41.81" cy="-705.58" r="10.00px"/>
<text data-id="36" x="41.81" y="-705.58">R36</text>
<circle data-id="37" cx="531.19" cy="-35.48" r="10.00px"/>
<text data-id="37" x="531.19" y="-35.48">R37</text>
<circle data-id="38" cx="520.24" cy="-568.57" r="10.00px"/>
<text data-id="38" x="520.24" y="-568.57">R38</text>
<circle data-id="39" cx="309.94" cy="-626.44" r="10.00px"/>
<text data-id="39" x="309.94" y="-626.44">R39</text>
<circle data-id="40" cx="430.50" cy="-100.37" r="10.00px"/>
<text data-id="40" x="430.50" y="-100.37">R40</text>
<circle data-id="41" cx="202.48" cy="-586.23" r="10.00px"/>
<text data-id="41" x="202.48" y="-586.23">R41</text>
<circle data-id="42" cx="637.41" cy="-587.26" r="10.00px"/>
<text data-id="42" x="637.41" y="-587.26">R42</text>
<circle data-id="43" cx="173.11" cy="-328.93" r="10.00px"/>
<text data-id="43" x="173.11" y="-328.93">R43</text>
<circle data-id="44" cx="412.48" cy="-350.11" r="10.00px"/>
<text data-id="44" x="412.48" y="-350.11">R44</text>
<circle data-id="45" cx="416.00" cy="-207.38" r="10.00px"/>
<text data-id="45" x="416.00" y="-207.38">R45</text>
<circle data-id="46" cx="59.66" cy="-477.80" r="10.00px"/>
<text data-id="46" x="59.66" y="-477.80">R46</text>
<circle data-id="47" cx="101.97" cy="-583.90" r="10.00px"/>
<text data-id="47" x="101.97" y="-583.90">R47</text>
<circle data-id="48" cx="338.20" cy="-401.88" r="10.00px"/>
<text data-id="48" x="338.20" y="-401.88">R48</text>
<circle data-id="49" cx="87.97" cy="-189.99" r="10.00px"/>
<text data-id="49" x="87.97" y="-189.99">R49</text>
<circle data-id="50" cx="63.40" cy="-144.04" r="10.00px"/>
<text data-id="50" x="63.40" y="-144.04">R50</text>
<circle data-id="51" cx="246.42" cy="-613.59" r="10.00px"/>
<text data-id="51" x="246.42" y="-613.59">R51</text>
<circle data-id="52" cx="618.61" cy="-559.39" r="10.00px"/>
<text data-id="52" x="618.61" y="-559.39">R52</text>
<circle data-id="53" cx="385.86" cy="-411.99" r="10.00px"/>
<text data-id="53" x="385.86" y="-411.99">R53</text>
<circle data-id="54" cx="506.91" cy="-19.93" r="10.00px"/>
<text data-id="54" x="506.91" y="-19.93">R54</text>
</svg>
