<svg id="topo" width="1090.00" height="1035.65" viewBox="76.74 -45.00 1090.00 1035.65" xmlns="http://www.w3.org/2000/svg">
<style>#topo path {fill: none; stroke: grey; stroke-width: 6;} #topo circle {fill: lightblue; stroke: none;} #topo text {fill: black; stroke: none; font-size: 16; font-family: sans-serif; text-anchor:middle;}</style>
<path d="M615.22,473.91,736.96,684.78"/>
<path d="M615.22,473.91,402.17,310.87"/>
<path d="M615.22,473.91,834.78,365.22"/>
<path d="M980.43,576.09,1121.74,513.04"/>
<path d="M980.43,576.09,997.83,945.65"/>
<path d="M980.43,576.09,736.96,684.78"/>
<path d="M1121.74,513.04,997.83,945.65"/>
<path d="M1121.74,513.04,834.78,365.22"/>
<path d="M704.35,919.57,997.83,945.65"/>
<path d="M704.35,919.57,736.96,684.78"/>
<path d="M736.96,684.78,469.57,884.78"/>
<path d="M402.17,310.87,319.57,136.96"/>
<path d="M402.17,310.87,210.87,539.13"/>
<path d="M834.78,365.22,691.30,245.65"/>
<path d="M834.78,365.22,1006.52,76.09"/>
<path d="M691.30,245.65,319.57,136.96"/>
<path d="M691.30,245.65,550.00,0.00"/>
<path d="M691.30,245.65,1006.52,76.09"/>
<path d="M319.57,136.96,550.00,0.00"/>
<path d="M121.74,726.09,469.57,884.78"/>
<path d="M121.74,726.09,210.87,539.13"/>
<path d="M469.57,884.78,210.87,539.13"/>
<circle cx="615.22" cy="473.91" r="10"/>
<text x="615.22" y="478.91">N1</text>
<circle cx="980.43" cy="576.09" r="10"/>
<text x="980.43" y="581.09">N2</text>
<circle cx="1121.74" cy="513.04" r="10"/>
<text x="1121.74" y="518.04">N3</text>
<circle cx="704.35" cy="919.57" r="10"/>
<text x="704.35" y="924.57">N4</text>
<circle cx="997.83" cy="945.65" r="10"/>
<text x="997.83" y="950.65">N5</text>
<circle cx="736.96" cy="684.78" r="10"/>
<text x="736.96" y="689.78">N6</text>
<circle cx="402.17" cy="310.87" r="10"/>
<text x="402.17" y="315.87">N7</text>
<circle cx="834.78" cy="365.22" r="10"/>
<text x="834.78" y="370.22">N8</text>
<circle cx="691.30" cy="245.65" r="10"/>
<text x="691.30" y="250.65">N9</text>
<circle cx="319.57" cy="136.96" r="10"/>
<text x="319.57" y="141.96">N10</text>
<circle cx="121.74" cy="726.09" r="10"/>
<text x="121.74" y="731.09">N11</text>
<circle cx="550.00" cy="0.00" r="10"/>
<text x="550.00" y="5.00">N12</text>
<circle cx="469.57" cy="884.78" r="10"/>
<text x="469.57" y="889.78">N13</text>
<circle cx="210.87" cy="539.13" r="10"/>
<text x="210.87" y="544.13">N14</text>
<circle cx="1006.52" cy="76.09" r="10"/>
<text x="1006.52" y="81.09">N15</text>
</svg>
