<svg width="1025.56" height="1090.00" viewBox="-11.59 -45.00 1025.56 1090.00" xmlns="http://www.w3.org/2000/svg">
<style>path {fill: none; stroke: grey; stroke-width: 6;} circle {fill: lightblue; stroke: none;} text {fill: black; stroke: none; font-size: 16; font-family: sans-serif; text-anchor:middle;}</style>
<path d="M856.80,193.32,968.97,532.22"/>
<path d="M856.80,193.32,133.65,260.14"/>
<path d="M856.80,193.32,501.19,0.00"/>
<path d="M856.80,193.32,252.98,1000.00"/>
<path d="M856.80,193.32,391.41,195.70"/>
<path d="M856.80,193.32,532.22,479.71"/>
<path d="M856.80,193.32,33.41,627.68"/>
<path d="M532.22,479.71,968.97,532.22"/>
<path d="M532.22,479.71,916.47,1000.00"/>
<path d="M532.22,479.71,940.33,761.34"/>
<path d="M532.22,479.71,532.22,918.85"/>
<path d="M532.22,479.71,33.41,627.68"/>
<path d="M532.22,479.71,252.98,1000.00"/>
<path d="M532.22,479.71,391.41,195.70"/>
<path d="M968.97,532.22,532.22,918.85"/>
<path d="M968.97,532.22,33.41,627.68"/>
<path d="M968.97,532.22,501.19,0.00"/>
<path d="M968.97,532.22,391.41,195.70"/>
<path d="M968.97,532.22,252.98,1000.00"/>
<path d="M968.97,532.22,940.33,761.34"/>
<path d="M916.47,1000.00,33.41,627.68"/>
<path d="M916.47,1000.00,501.19,0.00"/>
<path d="M916.47,1000.00,391.41,195.70"/>
<path d="M916.47,1000.00,252.98,1000.00"/>
<path d="M916.47,1000.00,133.65,260.14"/>
<path d="M916.47,1000.00,940.33,761.34"/>
<path d="M916.47,1000.00,532.22,918.85"/>
<path d="M940.33,761.34,532.22,918.85"/>
<path d="M940.33,761.34,33.41,627.68"/>
<path d="M940.33,761.34,501.19,0.00"/>
<path d="M940.33,761.34,133.65,260.14"/>
<path d="M532.22,918.85,33.41,627.68"/>
<path d="M532.22,918.85,391.41,195.70"/>
<path d="M532.22,918.85,252.98,1000.00"/>
<path d="M133.65,260.14,33.41,627.68"/>
<path d="M133.65,260.14,252.98,1000.00"/>
<path d="M133.65,260.14,391.41,195.70"/>
<path d="M133.65,260.14,501.19,0.00"/>
<path d="M33.41,627.68,391.41,195.70"/>
<path d="M33.41,627.68,252.98,1000.00"/>
<path d="M501.19,0.00,391.41,195.70"/>
<path d="M501.19,0.00,252.98,1000.00"/>
<circle cx="856.80" cy="193.32" r="10"/>
<text x="856.80" y="198.32">1</text>
<circle cx="532.22" cy="479.71" r="10"/>
<text x="532.22" y="484.71">2</text>
<circle cx="968.97" cy="532.22" r="10"/>
<text x="968.97" y="537.22">3</text>
<circle cx="916.47" cy="1000.00" r="10"/>
<text x="916.47" y="1005.00">4</text>
<circle cx="940.33" cy="761.34" r="10"/>
<text x="940.33" y="766.34">5</text>
<circle cx="532.22" cy="918.85" r="10"/>
<text x="532.22" y="923.85">6</text>
<circle cx="133.65" cy="260.14" r="10"/>
<text x="133.65" y="265.14">7</text>
<circle cx="33.41" cy="627.68" r="10"/>
<text x="33.41" y="632.68">8</text>
<circle cx="501.19" cy="0.00" r="10"/>
<text x="501.19" y="5.00">9</text>
<circle cx="391.41" cy="195.70" r="10"/>
<text x="391.41" y="200.70">10</text>
<circle cx="252.98" cy="1000.00" r="10"/>
<text x="252.98" y="1005.00">11</text>
</svg>
