<svg width="1090.00" height="928.14" viewBox="23.74 -45.00 1090.00 928.14" xmlns="http://www.w3.org/2000/svg">
<style>path {fill: none; stroke: grey; stroke-width: 6;} circle {fill: lightblue; stroke: none;} text {fill: black; stroke: none; font-size: 16; font-family: sans-serif; text-anchor:middle;}</style>
<path d="M443.46,494.46,450.11,678.49"/>
<path d="M443.46,494.46,521.06,465.63"/>
<path d="M450.11,678.49,521.06,465.63"/>
<path d="M596.45,838.14,682.93,727.27"/>
<path d="M596.45,838.14,1068.74,578.71"/>
<path d="M596.45,838.14,128.60,631.93"/>
<path d="M596.45,838.14,521.06,465.63"/>
<path d="M636.36,532.15,643.02,627.49"/>
<path d="M636.36,532.15,813.75,549.89"/>
<path d="M636.36,532.15,521.06,465.63"/>
<path d="M643.02,627.49,813.75,549.89"/>
<path d="M813.75,549.89,682.93,727.27"/>
<path d="M813.75,549.89,880.27,592.02"/>
<path d="M682.93,727.27,880.27,592.02"/>
<path d="M880.27,592.02,1068.74,578.71"/>
<path d="M1068.74,578.71,569.84,210.64"/>
<path d="M1068.74,578.71,407.98,332.59"/>
<path d="M1068.74,578.71,915.74,152.99"/>
<path d="M1068.74,578.71,521.06,465.63"/>
<path d="M128.60,631.93,203.99,430.16"/>
<path d="M128.60,631.93,90.91,330.38"/>
<path d="M128.60,631.93,407.98,332.59"/>
<path d="M128.60,631.93,288.25,620.84"/>
<path d="M90.91,330.38,203.99,430.16"/>
<path d="M90.91,330.38,569.84,210.64"/>
<path d="M90.91,330.38,407.98,332.59"/>
<path d="M203.99,430.16,407.98,332.59"/>
<path d="M844.79,328.16,838.14,223.95"/>
<path d="M844.79,328.16,569.84,210.64"/>
<path d="M838.14,223.95,569.84,210.64"/>
<path d="M569.84,210.64,407.98,332.59"/>
<path d="M569.84,210.64,130.82,232.82"/>
<path d="M569.84,210.64,390.24,8.87"/>
<path d="M569.84,210.64,299.33,144.12"/>
<path d="M569.84,210.64,915.74,152.99"/>
<path d="M569.84,210.64,521.06,465.63"/>
<path d="M407.98,332.59,288.25,620.84"/>
<path d="M130.82,232.82,68.74,99.78"/>
<path d="M68.74,99.78,390.24,8.87"/>
<path d="M390.24,8.87,299.33,144.12"/>
<path d="M390.24,8.87,594.24,0.00"/>
<path d="M390.24,8.87,915.74,152.99"/>
<path d="M915.74,152.99,793.79,8.87"/>
<path d="M915.74,152.99,594.24,0.00"/>
<path d="M793.79,8.87,594.24,0.00"/>
<circle cx="443.46" cy="494.46" r="10"/>
<text x="443.46" y="499.46">N01</text>
<circle cx="450.11" cy="678.49" r="10"/>
<text x="450.11" y="683.49">N02</text>
<circle cx="596.45" cy="838.14" r="10"/>
<text x="596.45" y="843.14">N03</text>
<circle cx="636.36" cy="532.15" r="10"/>
<text x="636.36" y="537.15">N04</text>
<circle cx="643.02" cy="627.49" r="10"/>
<text x="643.02" y="632.49">N05</text>
<circle cx="813.75" cy="549.89" r="10"/>
<text x="813.75" y="554.89">N06</text>
<circle cx="682.93" cy="727.27" r="10"/>
<text x="682.93" y="732.27">N07</text>
<circle cx="880.27" cy="592.02" r="10"/>
<text x="880.27" y="597.02">N08</text>
<circle cx="1068.74" cy="578.71" r="10"/>
<text x="1068.74" y="583.71">N09</text>
<circle cx="128.60" cy="631.93" r="10"/>
<text x="128.60" y="636.93">N10</text>
<circle cx="90.91" cy="330.38" r="10"/>
<text x="90.91" y="335.38">N11</text>
<circle cx="203.99" cy="430.16" r="10"/>
<text x="203.99" y="435.16">N12</text>
<circle cx="844.79" cy="328.16" r="10"/>
<text x="844.79" y="333.16">N13</text>
<circle cx="838.14" cy="223.95" r="10"/>
<text x="838.14" y="228.95">N14</text>
<circle cx="569.84" cy="210.64" r="10"/>
<text x="569.84" y="215.64">N15</text>
<circle cx="407.98" cy="332.59" r="10"/>
<text x="407.98" y="337.59">N16</text>
<circle cx="288.25" cy="620.84" r="10"/>
<text x="288.25" y="625.84">N17</text>
<circle cx="130.82" cy="232.82" r="10"/>
<text x="130.82" y="237.82">N18</text>
<circle cx="68.74" cy="99.78" r="10"/>
<text x="68.74" y="104.78">N19</text>
<circle cx="390.24" cy="8.87" r="10"/>
<text x="390.24" y="13.87">N20</text>
<circle cx="299.33" cy="144.12" r="10"/>
<text x="299.33" y="149.12">N21</text>
<circle cx="915.74" cy="152.99" r="10"/>
<text x="915.74" y="157.99">N22</text>
<circle cx="793.79" cy="8.87" r="10"/>
<text x="793.79" y="13.87">N23</text>
<circle cx="594.24" cy="0.00" r="10"/>
<text x="594.24" y="5.00">N24</text>
<circle cx="521.06" cy="465.63" r="10"/>
<text x="521.06" y="470.63">N25</text>
</svg>
