<svg id="topo" width="1090.00" height="832.64" viewBox="-252.98 -45.00 1090.00 832.64" xmlns="http://www.w3.org/2000/svg">
<style>#topo path {fill: none; stroke: grey; stroke-width: 6;} #topo circle {fill: lightblue; stroke: none;} #topo text {fill: black; stroke: none; font-size: 16; font-family: sans-serif; text-anchor:middle;}</style>
<path d="M152.52,248.22,142.04,306.05"/>
<path d="M152.52,248.22,-140.68,136.29"/>
<path d="M152.52,248.22,338.18,210.01"/>
<path d="M152.52,248.22,-2.37,278.66"/>
<path d="M792.02,742.64,684.82,509.64"/>
<path d="M792.02,742.64,415.62,609.06"/>
<path d="M70.00,619.55,151.84,477.17"/>
<path d="M70.00,619.55,-115.66,652.35"/>
<path d="M684.82,509.64,643.22,414.27"/>
<path d="M684.82,509.64,526.55,475.48"/>
<path d="M446.74,244.50,416.64,139.67"/>
<path d="M446.74,244.50,338.18,210.01"/>
<path d="M446.74,244.50,383.16,387.89"/>
<path d="M446.74,244.50,481.91,321.27"/>
<path d="M446.74,244.50,696.31,250.25"/>
<path d="M-11.84,508.29,-115.66,652.35"/>
<path d="M-11.84,508.29,74.40,373.01"/>
<path d="M142.04,306.05,283.40,320.26"/>
<path d="M142.04,306.05,74.40,373.01"/>
<path d="M643.22,414.27,481.91,321.27"/>
<path d="M643.22,414.27,696.31,250.25"/>
<path d="M416.64,139.67,353.40,0.00"/>
<path d="M-207.98,214.07,-140.68,136.29"/>
<path d="M-207.98,214.07,-2.37,278.66"/>
<path d="M283.40,320.26,338.18,210.01"/>
<path d="M283.40,320.26,383.16,387.89"/>
<path d="M283.40,320.26,251.94,378.42"/>
<path d="M-2.37,278.66,74.40,373.01"/>
<path d="M151.84,477.17,74.40,373.01"/>
<path d="M151.84,477.17,281.37,416.64"/>
<path d="M308.08,482.25,383.16,387.89"/>
<path d="M308.08,482.25,415.62,609.06"/>
<path d="M308.08,482.25,281.37,416.64"/>
<path d="M383.16,387.89,548.19,386.20"/>
<path d="M353.40,0.00,609.74,11.84"/>
<path d="M74.40,373.01,251.94,378.42"/>
<path d="M481.91,321.27,548.19,386.20"/>
<path d="M415.62,609.06,526.55,475.48"/>
<path d="M609.74,11.84,696.31,250.25"/>
<path d="M251.94,378.42,281.37,416.64"/>
<path d="M548.19,386.20,526.55,475.48"/>
<circle cx="152.52" cy="248.22" r="10"/>
<text x="152.52" y="253.22">Amsterdam</text>
<circle cx="792.02" cy="742.64" r="10"/>
<text x="792.02" y="747.64">Athens</text>
<circle cx="70.00" cy="619.55" r="10"/>
<text x="70.00" y="624.55">Barcelona</text>
<circle cx="684.82" cy="509.64" r="10"/>
<text x="684.82" y="514.64">Belgrade</text>
<circle cx="446.74" cy="244.50" r="10"/>
<text x="446.74" y="249.50">Berlin</text>
<circle cx="-11.84" cy="508.29" r="10"/>
<text x="-11.84" y="513.29">Bordeaux</text>
<circle cx="142.04" cy="306.05" r="10"/>
<text x="142.04" y="311.05">Brussels</text>
<circle cx="643.22" cy="414.27" r="10"/>
<text x="643.22" y="419.27">Budapest</text>
<circle cx="416.64" cy="139.67" r="10"/>
<text x="416.64" y="144.67">Copenhagen</text>
<circle cx="-207.98" cy="214.07" r="10"/>
<text x="-207.98" y="219.07">Dublin</text>
<circle cx="283.40" cy="320.26" r="10"/>
<text x="283.40" y="325.26">Frankfurt</text>
<circle cx="-140.68" cy="136.29" r="10"/>
<text x="-140.68" y="141.29">Glasgow</text>
<circle cx="338.18" cy="210.01" r="10"/>
<text x="338.18" y="215.01">Hamburg</text>
<circle cx="-2.37" cy="278.66" r="10"/>
<text x="-2.37" y="283.66">London</text>
<circle cx="151.84" cy="477.17" r="10"/>
<text x="151.84" y="482.17">Lyon</text>
<circle cx="-115.66" cy="652.35" r="10"/>
<text x="-115.66" y="657.35">Madrid</text>
<circle cx="308.08" cy="482.25" r="10"/>
<text x="308.08" y="487.25">Milan</text>
<circle cx="383.16" cy="387.89" r="10"/>
<text x="383.16" y="392.89">Munich</text>
<circle cx="353.40" cy="0.00" r="10"/>
<text x="353.40" y="5.00">Oslo</text>
<circle cx="74.40" cy="373.01" r="10"/>
<text x="74.40" y="378.01">Paris</text>
<circle cx="481.91" cy="321.27" r="10"/>
<text x="481.91" y="326.27">Prague</text>
<circle cx="415.62" cy="609.06" r="10"/>
<text x="415.62" y="614.06">Rome</text>
<circle cx="609.74" cy="11.84" r="10"/>
<text x="609.74" y="16.84">Stockholm</text>
<circle cx="251.94" cy="378.42" r="10"/>
<text x="251.94" y="383.42">Strasbourg</text>
<circle cx="548.19" cy="386.20" r="10"/>
<text x="548.19" y="391.20">Vienna</text>
<circle cx="696.31" cy="250.25" r="10"/>
<text x="696.31" y="255.25">Warsaw</text>
<circle cx="526.55" cy="475.48" r="10"/>
<text x="526.55" y="480.48">Zagreb</text>
<circle cx="281.37" cy="416.64" r="10"/>
<text x="281.37" y="421.64">Zurich</text>
</svg>
