<svg id="topo" width="1090.00" height="463.67" viewBox="-2599.65 -45.00 1090.00 463.67" xmlns="http://www.w3.org/2000/svg">
<style>#topo path {fill: none; stroke: grey; stroke-width: 6;} #topo circle {fill: lightblue; stroke: none;} #topo text {fill: black; stroke: none; font-size: 16; font-family: sans-serif; text-anchor:middle;}</style>
<path d="M-2551.10,210.66,-2446.81,311.60"/>
<path d="M-2551.10,210.66,-2331.24,145.04"/>
<path d="M-2551.10,210.66,-2554.65,0.00"/>
<path d="M-2446.81,311.60,-1989.76,373.67"/>
<path d="M-2446.81,311.60,-2554.65,0.00"/>
<path d="M-2197.70,153.19,-2015.05,143.36"/>
<path d="M-2197.70,153.19,-1989.76,373.67"/>
<path d="M-2197.70,153.19,-2331.24,145.04"/>
<path d="M-1609.61,184.12,-1554.65,148.80"/>
<path d="M-1609.61,184.12,-1594.57,105.96"/>
<path d="M-1609.61,184.12,-1989.76,373.67"/>
<path d="M-1760.29,290.28,-1663.11,147.75"/>
<path d="M-1760.29,290.28,-1989.76,373.67"/>
<path d="M-1842.01,151.93,-2015.05,143.36"/>
<path d="M-1842.01,151.93,-1663.11,147.75"/>
<path d="M-1842.01,151.93,-2554.65,0.00"/>
<path d="M-1743.57,108.05,-1554.65,148.80"/>
<path d="M-1743.57,108.05,-1594.57,105.96"/>
<path d="M-1743.57,108.05,-2331.24,145.04"/>
<path d="M-1554.65,148.80,-1663.11,147.75"/>
<path d="M-1594.57,105.96,-1663.11,147.75"/>
<circle cx="-2551.10" cy="210.66" r="10"/>
<text x="-2551.10" y="215.66">Palo-Alto</text>
<circle cx="-2446.81" cy="311.60" r="10"/>
<text x="-2446.81" y="316.60">San-Diego</text>
<circle cx="-2197.70" cy="153.19" r="10"/>
<text x="-2197.70" y="158.19">Boulder</text>
<circle cx="-1609.61" cy="184.12" r="10"/>
<text x="-1609.61" y="189.12">Washington</text>
<circle cx="-1760.29" cy="290.28" r="10"/>
<text x="-1760.29" y="295.28">Atlanta</text>
<circle cx="-1842.01" cy="151.93" r="10"/>
<text x="-1842.01" y="156.93">Urbana-Champaign</text>
<circle cx="-1743.57" cy="108.05" r="10"/>
<text x="-1743.57" y="113.05">Ann-Arbor</text>
<circle cx="-2015.05" cy="143.36" r="10"/>
<text x="-2015.05" y="148.36">Lincoln</text>
<circle cx="-1554.65" cy="148.80" r="10"/>
<text x="-1554.65" y="153.80">Princeton</text>
<circle cx="-1594.57" cy="105.96" r="10"/>
<text x="-1594.57" y="110.96">Ithaca</text>
<circle cx="-1663.11" cy="147.75" r="10"/>
<text x="-1663.11" y="152.75">Pittsburgh</text>
<circle cx="-1989.76" cy="373.67" r="10"/>
<text x="-1989.76" y="378.67">Houston</text>
<circle cx="-2331.24" cy="145.04" r="10"/>
<text x="-2331.24" y="150.04">Salt-Lake-City</text>
<circle cx="-2554.65" cy="0.00" r="10"/>
<text x="-2554.65" y="5.00">Seattle</text>
</svg>
