<svg id="topo" viewBox="143.65 -438.30 513.70 358.60" xmlns="http://www.w3.org/2000/svg">
<style>#topo path {fill: none; stroke: grey; stroke-width: 1.8680px;} #topo circle {fill: lightblue; stroke: none; stroke-width: 0.3px; vector-effect: non-scaling-stroke; r: 3.7360px;} #topo text {fill: black; stroke: none; font-size: 5.6040px; font-family: sans-serif; text-anchor:middle; transform: translateY(0.3em);} #topo path.country {fill: lightgrey; stroke: black; stroke-width: 1px; vector-effect: non-scaling-stroke; visibility: visible;} #topo path.selection {fill: none; stroke: red; stroke-width: 1px; vector-effect: non-scaling-stroke; visibility: visible;} #topo path.utilization {visibility: hidden;}</style>
<path data-id="0-16" d="M167.00,-208.00,240.00,-117.00"/>
<path data-id="0-8" d="M167.00,-208.00,215.00,-188.00"/>
<path data-id="0-19" d="M167.00,-208.00,263.00,-228.00"/>
<path data-id="1-11" d="M475.00,-422.00,325.00,-410.00"/>
<path data-id="1-14" d="M475.00,-422.00,425.00,-207.00"/>
<path data-id="1-18" d="M475.00,-422.00,525.00,-397.00"/>
<path data-id="1-4" d="M475.00,-422.00,378.00,-306.00"/>
<path data-id="1-12" d="M475.00,-422.00,400.00,-390.00"/>
<path data-id="2-19" d="M324.00,-302.00,263.00,-228.00"/>
<path data-id="2-13" d="M324.00,-302.00,317.00,-208.00"/>
<path data-id="2-14" d="M324.00,-302.00,425.00,-207.00"/>
<path data-id="2-4" d="M324.00,-302.00,378.00,-306.00"/>
<path data-id="3-19" d="M186.00,-285.00,263.00,-228.00"/>
<path data-id="3-7" d="M186.00,-285.00,229.00,-291.00"/>
<path data-id="3-11" d="M186.00,-285.00,325.00,-410.00"/>
<path data-id="4-5" d="M378.00,-306.00,411.00,-291.00"/>
<path data-id="4-14" d="M378.00,-306.00,425.00,-207.00"/>
<path data-id="4-11" d="M378.00,-306.00,325.00,-410.00"/>
<path data-id="4-12" d="M378.00,-306.00,400.00,-390.00"/>
<path data-id="5-14" d="M411.00,-291.00,425.00,-207.00"/>
<path data-id="6-18" d="M634.00,-296.00,525.00,-397.00"/>
<path data-id="6-15" d="M634.00,-296.00,532.00,-271.00"/>
<path data-id="6-9" d="M634.00,-296.00,544.00,-96.00"/>
<path data-id="7-21" d="M229.00,-291.00,254.00,-349.00"/>
<path data-id="7-19" d="M229.00,-291.00,263.00,-228.00"/>
<path data-id="8-22" d="M215.00,-188.00,319.00,-127.00"/>
<path data-id="8-19" d="M215.00,-188.00,263.00,-228.00"/>
<path data-id="9-20" d="M544.00,-96.00,511.00,-160.00"/>
<path data-id="9-14" d="M544.00,-96.00,425.00,-207.00"/>
<path data-id="9-15" d="M544.00,-96.00,532.00,-271.00"/>
<path data-id="10-14" d="M482.00,-222.00,425.00,-207.00"/>
<path data-id="10-17" d="M482.00,-222.00,490.00,-189.00"/>
<path data-id="10-15" d="M482.00,-222.00,532.00,-271.00"/>
<path data-id="11-19" d="M325.00,-410.00,263.00,-228.00"/>
<path data-id="11-21" d="M325.00,-410.00,254.00,-349.00"/>
<path data-id="11-12" d="M325.00,-410.00,400.00,-390.00"/>
<path data-id="13-22" d="M317.00,-208.00,319.00,-127.00"/>
<path data-id="13-23" d="M317.00,-208.00,354.00,-187.00"/>
<path data-id="14-19" d="M425.00,-207.00,263.00,-228.00"/>
<path data-id="14-15" d="M425.00,-207.00,532.00,-271.00"/>
<path data-id="14-18" d="M425.00,-207.00,525.00,-397.00"/>
<path data-id="14-17" d="M425.00,-207.00,490.00,-189.00"/>
<path data-id="14-22" d="M425.00,-207.00,319.00,-127.00"/>
<path data-id="15-17" d="M532.00,-271.00,490.00,-189.00"/>
<path data-id="15-18" d="M532.00,-271.00,525.00,-397.00"/>
<path data-id="16-19" d="M240.00,-117.00,263.00,-228.00"/>
<path data-id="16-22" d="M240.00,-117.00,319.00,-127.00"/>
<path data-id="17-20" d="M490.00,-189.00,511.00,-160.00"/>
<path data-id="19-21" d="M263.00,-228.00,254.00,-349.00"/>
<path data-id="19-22" d="M263.00,-228.00,319.00,-127.00"/>
<path data-id="22-23" d="M319.00,-127.00,354.00,-187.00"/>
<circle data-id="0" cx="167.00" cy="-208.00" r="3.74px"/>
<text data-id="0" x="167.00" y="-208.00">N1</text>
<circle data-id="1" cx="475.00" cy="-422.00" r="3.74px"/>
<text data-id="1" x="475.00" y="-422.00">N2</text>
<circle data-id="2" cx="324.00" cy="-302.00" r="3.74px"/>
<text data-id="2" x="324.00" y="-302.00">N3</text>
<circle data-id="3" cx="186.00" cy="-285.00" r="3.74px"/>
<text data-id="3" x="186.00" y="-285.00">N4</text>
<circle data-id="4" cx="378.00" cy="-306.00" r="3.74px"/>
<text data-id="4" x="378.00" y="-306.00">N5</text>
<circle data-id="5" cx="411.00" cy="-291.00" r="3.74px"/>
<text data-id="5" x="411.00" y="-291.00">N6</text>
<circle data-id="6" cx="634.00" cy="-296.00" r="3.74px"/>
<text data-id="6" x="634.00" y="-296.00">N7</text>
<circle data-id="7" cx="229.00" cy="-291.00" r="3.74px"/>
<text data-id="7" x="229.00" y="-291.00">N8</text>
<circle data-id="8" cx="215.00" cy="-188.00" r="3.74px"/>
<text data-id="8" x="215.00" y="-188.00">N9</text>
<circle data-id="9" cx="544.00" cy="-96.00" r="3.74px"/>
<text data-id="9" x="544.00" y="-96.00">N10</text>
<circle data-id="10" cx="482.00" cy="-222.00" r="3.74px"/>
<text data-id="10" x="482.00" y="-222.00">N11</text>
<circle data-id="11" cx="325.00" cy="-410.00" r="3.74px"/>
<text data-id="11" x="325.00" y="-410.00">N12</text>
<circle data-id="12" cx="400.00" cy="-390.00" r="3.74px"/>
<text data-id="12" x="400.00" y="-390.00">N13</text>
<circle data-id="13" cx="317.00" cy="-208.00" r="3.74px"/>
<text data-id="13" x="317.00" y="-208.00">N14</text>
<circle data-id="14" cx="425.00" cy="-207.00" r="3.74px"/>
<text data-id="14" x="425.00" y="-207.00">N15</text>
<circle data-id="15" cx="532.00" cy="-271.00" r="3.74px"/>
<text data-id="15" x="532.00" y="-271.00">N16</text>
<circle data-id="16" cx="240.00" cy="-117.00" r="3.74px"/>
<text data-id="16" x="240.00" y="-117.00">N17</text>
<circle data-id="17" cx="490.00" cy="-189.00" r="3.74px"/>
<text data-id="17" x="490.00" y="-189.00">N18</text>
<circle data-id="18" cx="525.00" cy="-397.00" r="3.74px"/>
<text data-id="18" x="525.00" y="-397.00">N19</text>
<circle data-id="19" cx="263.00" cy="-228.00" r="3.74px"/>
<text data-id="19" x="263.00" y="-228.00">N20</text>
<circle data-id="20" cx="511.00" cy="-160.00" r="3.74px"/>
<text data-id="20" x="511.00" y="-160.00">N21</text>
<circle data-id="21" cx="254.00" cy="-349.00" r="3.74px"/>
<text data-id="21" x="254.00" y="-349.00">N22</text>
<circle data-id="22" cx="319.00" cy="-127.00" r="3.74px"/>
<text data-id="22" x="319.00" y="-127.00">N23</text>
<circle data-id="23" cx="354.00" cy="-187.00" r="3.74px"/>
<text data-id="23" x="354.00" y="-187.00">N24</text>
</svg>
