<svg width="1090.00" height="788.07" viewBox="312.60 -45.00 1090.00 788.07" xmlns="http://www.w3.org/2000/svg">
<style>path {fill: none; stroke: grey; stroke-width: 6;} circle {fill: lightblue; stroke: none;} text {fill: black; stroke: none; font-size: 16; font-family: sans-serif; text-anchor:middle;}</style>
<path d="M357.60,458.24,513.92,653.10"/>
<path d="M357.60,458.24,460.39,501.07"/>
<path d="M357.60,458.24,563.17,415.42"/>
<path d="M1017.13,0.00,695.93,25.70"/>
<path d="M1017.13,0.00,910.06,460.39"/>
<path d="M1017.13,0.00,1124.20,53.53"/>
<path d="M1017.13,0.00,809.42,248.39"/>
<path d="M1017.13,0.00,856.53,68.52"/>
<path d="M693.79,256.96,563.17,415.42"/>
<path d="M693.79,256.96,678.80,458.24"/>
<path d="M693.79,256.96,910.06,460.39"/>
<path d="M693.79,256.96,809.42,248.39"/>
<path d="M398.29,293.36,563.17,415.42"/>
<path d="M398.29,293.36,490.36,280.51"/>
<path d="M398.29,293.36,695.93,25.70"/>
<path d="M809.42,248.39,880.09,280.51"/>
<path d="M809.42,248.39,910.06,460.39"/>
<path d="M809.42,248.39,695.93,25.70"/>
<path d="M809.42,248.39,856.53,68.52"/>
<path d="M880.09,280.51,910.06,460.39"/>
<path d="M1357.60,269.81,1124.20,53.53"/>
<path d="M1357.60,269.81,1139.19,323.34"/>
<path d="M1357.60,269.81,1164.88,698.07"/>
<path d="M490.36,280.51,543.90,156.32"/>
<path d="M490.36,280.51,563.17,415.42"/>
<path d="M460.39,501.07,683.08,631.69"/>
<path d="M460.39,501.07,563.17,415.42"/>
<path d="M1164.88,698.07,1094.22,561.03"/>
<path d="M1164.88,698.07,910.06,460.39"/>
<path d="M1164.88,698.07,1139.19,323.34"/>
<path d="M1032.12,428.27,910.06,460.39"/>
<path d="M1032.12,428.27,1049.25,498.93"/>
<path d="M1032.12,428.27,1139.19,323.34"/>
<path d="M695.93,25.70,563.17,415.42"/>
<path d="M695.93,25.70,543.90,156.32"/>
<path d="M695.93,25.70,856.53,68.52"/>
<path d="M678.80,458.24,683.08,631.69"/>
<path d="M678.80,458.24,758.03,503.21"/>
<path d="M910.06,460.39,563.17,415.42"/>
<path d="M910.06,460.39,1139.19,323.34"/>
<path d="M910.06,460.39,1124.20,53.53"/>
<path d="M910.06,460.39,1049.25,498.93"/>
<path d="M910.06,460.39,683.08,631.69"/>
<path d="M1139.19,323.34,1049.25,498.93"/>
<path d="M1139.19,323.34,1124.20,53.53"/>
<path d="M513.92,653.10,563.17,415.42"/>
<path d="M513.92,653.10,683.08,631.69"/>
<path d="M1049.25,498.93,1094.22,561.03"/>
<path d="M563.17,415.42,543.90,156.32"/>
<path d="M563.17,415.42,683.08,631.69"/>
<path d="M683.08,631.69,758.03,503.21"/>
<circle cx="357.60" cy="458.24" r="10"/>
<text x="357.60" y="463.24">N1</text>
<circle cx="1017.13" cy="0.00" r="10"/>
<text x="1017.13" y="5.00">N2</text>
<circle cx="693.79" cy="256.96" r="10"/>
<text x="693.79" y="261.96">N3</text>
<circle cx="398.29" cy="293.36" r="10"/>
<text x="398.29" y="298.36">N4</text>
<circle cx="809.42" cy="248.39" r="10"/>
<text x="809.42" y="253.39">N5</text>
<circle cx="880.09" cy="280.51" r="10"/>
<text x="880.09" y="285.51">N6</text>
<circle cx="1357.60" cy="269.81" r="10"/>
<text x="1357.60" y="274.81">N7</text>
<circle cx="490.36" cy="280.51" r="10"/>
<text x="490.36" y="285.51">N8</text>
<circle cx="460.39" cy="501.07" r="10"/>
<text x="460.39" y="506.07">N9</text>
<circle cx="1164.88" cy="698.07" r="10"/>
<text x="1164.88" y="703.07">N10</text>
<circle cx="1032.12" cy="428.27" r="10"/>
<text x="1032.12" y="433.27">N11</text>
<circle cx="695.93" cy="25.70" r="10"/>
<text x="695.93" y="30.70">N12</text>
<circle cx="856.53" cy="68.52" r="10"/>
<text x="856.53" y="73.52">N13</text>
<circle cx="678.80" cy="458.24" r="10"/>
<text x="678.80" y="463.24">N14</text>
<circle cx="910.06" cy="460.39" r="10"/>
<text x="910.06" y="465.39">N15</text>
<circle cx="1139.19" cy="323.34" r="10"/>
<text x="1139.19" y="328.34">N16</text>
<circle cx="513.92" cy="653.10" r="10"/>
<text x="513.92" y="658.10">N17</text>
<circle cx="1049.25" cy="498.93" r="10"/>
<text x="1049.25" y="503.93">N18</text>
<circle cx="1124.20" cy="53.53" r="10"/>
<text x="1124.20" y="58.53">N19</text>
<circle cx="563.17" cy="415.42" r="10"/>
<text x="563.17" y="420.42">N20</text>
<circle cx="1094.22" cy="561.03" r="10"/>
<text x="1094.22" y="566.03">N21</text>
<circle cx="543.90" cy="156.32" r="10"/>
<text x="543.90" y="161.32">N22</text>
<circle cx="683.08" cy="631.69" r="10"/>
<text x="683.08" y="636.69">N23</text>
<circle cx="758.03" cy="503.21" r="10"/>
<text x="758.03" y="508.21">N24</text>
</svg>
