<svg width="527.01" height="1090.00" viewBox="-21.67 -45.00 527.01 1090.00" xmlns="http://www.w3.org/2000/svg">
<style>path {fill: none; stroke: grey; stroke-width: 6;} circle {fill: lightblue; stroke: none;} text {fill: black; stroke: none; font-size: 16; font-family: sans-serif; text-anchor:middle;}</style>
<path d="M377.92,220.84,349.92,287.71"/>
<path d="M377.92,220.84,345.26,171.07"/>
<path d="M377.92,220.84,398.13,161.74"/>
<path d="M410.58,548.99,381.03,634.53"/>
<path d="M410.58,548.99,416.80,359.25"/>
<path d="M410.58,548.99,455.68,496.11"/>
<path d="M164.85,390.36,292.38,572.32"/>
<path d="M164.85,390.36,97.98,399.69"/>
<path d="M164.85,390.36,317.26,427.68"/>
<path d="M118.20,799.38,127.53,743.39"/>
<path d="M118.20,799.38,136.86,872.47"/>
<path d="M121.31,564.54,55.99,545.88"/>
<path d="M121.31,564.54,167.96,620.53"/>
<path d="M323.48,791.60,295.49,846.03"/>
<path d="M323.48,791.60,272.16,752.72"/>
<path d="M119.75,177.29,174.18,121.31"/>
<path d="M119.75,177.29,166.41,284.60"/>
<path d="M343.70,1000.00,200.62,981.34"/>
<path d="M343.70,1000.00,446.35,909.80"/>
<path d="M216.17,570.76,292.38,572.32"/>
<path d="M216.17,570.76,149.30,510.11"/>
<path d="M216.17,570.76,248.83,674.96"/>
<path d="M381.03,634.53,292.38,572.32"/>
<path d="M381.03,634.53,444.79,654.74"/>
<path d="M381.03,634.53,248.83,674.96"/>
<path d="M381.03,634.53,317.26,427.68"/>
<path d="M381.03,634.53,374.81,743.39"/>
<path d="M220.84,925.35,200.62,981.34"/>
<path d="M104.20,978.23,200.62,981.34"/>
<path d="M104.20,978.23,37.33,962.67"/>
<path d="M337.48,0.00,331.26,101.09"/>
<path d="M337.48,0.00,202.18,18.66"/>
<path d="M337.48,0.00,398.13,161.74"/>
<path d="M337.48,0.00,174.18,121.31"/>
<path d="M337.48,0.00,166.41,284.60"/>
<path d="M337.48,0.00,458.79,178.85"/>
<path d="M345.26,171.07,255.05,213.06"/>
<path d="M345.26,171.07,349.92,287.71"/>
<path d="M345.26,171.07,284.60,149.30"/>
<path d="M32.66,780.72,136.86,872.47"/>
<path d="M32.66,780.72,77.76,695.18"/>
<path d="M32.66,780.72,23.33,632.97"/>
<path d="M174.18,121.31,202.18,18.66"/>
<path d="M174.18,121.31,166.41,284.60"/>
<path d="M295.49,846.03,370.14,872.47"/>
<path d="M295.49,846.03,192.85,765.16"/>
<path d="M32.66,66.87,82.43,104.20"/>
<path d="M32.66,66.87,35.77,169.52"/>
<path d="M370.14,872.47,446.35,909.80"/>
<path d="M94.87,511.66,163.30,561.43"/>
<path d="M94.87,511.66,99.53,452.57"/>
<path d="M149.30,510.11,99.53,452.57"/>
<path d="M255.05,213.06,284.60,149.30"/>
<path d="M255.05,213.06,295.49,250.39"/>
<path d="M331.26,101.09,284.60,149.30"/>
<path d="M23.33,632.97,55.99,545.88"/>
<path d="M23.33,632.97,82.43,653.19"/>
<path d="M23.33,632.97,77.76,695.18"/>
<path d="M23.33,632.97,52.88,307.93"/>
<path d="M167.96,620.53,132.19,656.30"/>
<path d="M167.96,620.53,163.30,561.43"/>
<path d="M167.96,620.53,272.16,752.72"/>
<path d="M77.76,695.18,127.53,743.39"/>
<path d="M192.85,765.16,127.53,743.39"/>
<path d="M192.85,765.16,272.16,752.72"/>
<path d="M317.26,427.68,363.92,367.03"/>
<path d="M317.26,427.68,292.38,572.32"/>
<path d="M317.26,427.68,321.93,541.21"/>
<path d="M317.26,427.68,349.92,287.71"/>
<path d="M317.26,427.68,295.49,250.39"/>
<path d="M317.26,427.68,416.80,359.25"/>
<path d="M317.26,427.68,455.68,413.69"/>
<path d="M317.26,427.68,52.88,307.93"/>
<path d="M321.93,541.21,292.38,572.32"/>
<path d="M292.38,572.32,248.83,674.96"/>
<path d="M292.38,572.32,97.98,399.69"/>
<path d="M292.38,572.32,99.53,452.57"/>
<path d="M292.38,572.32,166.41,284.60"/>
<path d="M292.38,572.32,272.16,752.72"/>
<path d="M349.92,287.71,363.92,367.03"/>
<path d="M349.92,287.71,416.80,359.25"/>
<path d="M248.83,674.96,163.30,561.43"/>
<path d="M248.83,674.96,272.16,752.72"/>
<path d="M93.31,258.16,52.88,307.93"/>
<path d="M93.31,258.16,82.43,104.20"/>
<path d="M200.62,981.34,446.35,909.80"/>
<path d="M200.62,981.34,136.86,872.47"/>
<path d="M250.39,292.38,242.61,348.37"/>
<path d="M250.39,292.38,295.49,250.39"/>
<path d="M460.34,449.46,455.68,496.11"/>
<path d="M460.34,449.46,455.68,413.69"/>
<path d="M416.80,359.25,455.68,413.69"/>
<path d="M166.41,284.60,242.61,348.37"/>
<path d="M444.79,654.74,446.35,909.80"/>
<path d="M444.79,654.74,374.81,743.39"/>
<path d="M398.13,161.74,458.79,178.85"/>
<path d="M35.77,169.52,32.66,267.50"/>
<path d="M446.35,909.80,374.81,743.39"/>
<path d="M446.35,909.80,136.86,872.47"/>
<path d="M455.68,413.69,458.79,178.85"/>
<path d="M82.43,653.19,132.19,656.30"/>
<path d="M55.99,545.88,52.88,307.93"/>
<path d="M97.98,399.69,52.88,307.93"/>
<path d="M52.88,307.93,32.66,267.50"/>
<path d="M27.99,860.03,136.86,872.47"/>
<path d="M27.99,860.03,37.33,962.67"/>
<path d="M136.86,872.47,37.33,962.67"/>
<path d="M136.86,872.47,272.16,752.72"/>
<circle cx="377.92" cy="220.84" r="10"/>
<text x="377.92" y="225.84">N1</text>
<circle cx="410.58" cy="548.99" r="10"/>
<text x="410.58" y="553.99">N2</text>
<circle cx="164.85" cy="390.36" r="10"/>
<text x="164.85" y="395.36">N3</text>
<circle cx="118.20" cy="799.38" r="10"/>
<text x="118.20" y="804.38">N4</text>
<circle cx="121.31" cy="564.54" r="10"/>
<text x="121.31" y="569.54">N5</text>
<circle cx="323.48" cy="791.60" r="10"/>
<text x="323.48" y="796.60">N6</text>
<circle cx="119.75" cy="177.29" r="10"/>
<text x="119.75" y="182.29">N7</text>
<circle cx="343.70" cy="1000.00" r="10"/>
<text x="343.70" y="1005.00">N8</text>
<circle cx="216.17" cy="570.76" r="10"/>
<text x="216.17" y="575.76">N9</text>
<circle cx="381.03" cy="634.53" r="10"/>
<text x="381.03" y="639.53">N10</text>
<circle cx="220.84" cy="925.35" r="10"/>
<text x="220.84" y="930.35">N11</text>
<circle cx="104.20" cy="978.23" r="10"/>
<text x="104.20" y="983.23">N12</text>
<circle cx="337.48" cy="0.00" r="10"/>
<text x="337.48" y="5.00">N13</text>
<circle cx="345.26" cy="171.07" r="10"/>
<text x="345.26" y="176.07">N14</text>
<circle cx="32.66" cy="780.72" r="10"/>
<text x="32.66" y="785.72">N15</text>
<circle cx="174.18" cy="121.31" r="10"/>
<text x="174.18" y="126.31">N16</text>
<circle cx="295.49" cy="846.03" r="10"/>
<text x="295.49" y="851.03">N17</text>
<circle cx="32.66" cy="66.87" r="10"/>
<text x="32.66" y="71.87">N18</text>
<circle cx="370.14" cy="872.47" r="10"/>
<text x="370.14" y="877.47">N19</text>
<circle cx="94.87" cy="511.66" r="10"/>
<text x="94.87" y="516.66">N20</text>
<circle cx="149.30" cy="510.11" r="10"/>
<text x="149.30" y="515.11">N21</text>
<circle cx="255.05" cy="213.06" r="10"/>
<text x="255.05" y="218.06">N22</text>
<circle cx="331.26" cy="101.09" r="10"/>
<text x="331.26" y="106.09">N23</text>
<circle cx="23.33" cy="632.97" r="10"/>
<text x="23.33" y="637.97">N24</text>
<circle cx="167.96" cy="620.53" r="10"/>
<text x="167.96" y="625.53">N25</text>
<circle cx="77.76" cy="695.18" r="10"/>
<text x="77.76" y="700.18">N26</text>
<circle cx="192.85" cy="765.16" r="10"/>
<text x="192.85" y="770.16">N27</text>
<circle cx="317.26" cy="427.68" r="10"/>
<text x="317.26" y="432.68">N28</text>
<circle cx="321.93" cy="541.21" r="10"/>
<text x="321.93" y="546.21">N29</text>
<circle cx="292.38" cy="572.32" r="10"/>
<text x="292.38" y="577.32">N30</text>
<circle cx="349.92" cy="287.71" r="10"/>
<text x="349.92" y="292.71">N31</text>
<circle cx="363.92" cy="367.03" r="10"/>
<text x="363.92" y="372.03">N32</text>
<circle cx="248.83" cy="674.96" r="10"/>
<text x="248.83" y="679.96">N33</text>
<circle cx="93.31" cy="258.16" r="10"/>
<text x="93.31" y="263.16">N34</text>
<circle cx="200.62" cy="981.34" r="10"/>
<text x="200.62" y="986.34">N35</text>
<circle cx="250.39" cy="292.38" r="10"/>
<text x="250.39" y="297.38">N36</text>
<circle cx="460.34" cy="449.46" r="10"/>
<text x="460.34" y="454.46">N37</text>
<circle cx="163.30" cy="561.43" r="10"/>
<text x="163.30" y="566.43">N38</text>
<circle cx="416.80" cy="359.25" r="10"/>
<text x="416.80" y="364.25">N39</text>
<circle cx="166.41" cy="284.60" r="10"/>
<text x="166.41" y="289.60">N40</text>
<circle cx="284.60" cy="149.30" r="10"/>
<text x="284.60" y="154.30">N41</text>
<circle cx="444.79" cy="654.74" r="10"/>
<text x="444.79" y="659.74">N42</text>
<circle cx="398.13" cy="161.74" r="10"/>
<text x="398.13" y="166.74">N43</text>
<circle cx="35.77" cy="169.52" r="10"/>
<text x="35.77" y="174.52">N44</text>
<circle cx="446.35" cy="909.80" r="10"/>
<text x="446.35" y="914.80">N45</text>
<circle cx="455.68" cy="413.69" r="10"/>
<text x="455.68" y="418.69">N46</text>
<circle cx="374.81" cy="743.39" r="10"/>
<text x="374.81" y="748.39">N47</text>
<circle cx="82.43" cy="653.19" r="10"/>
<text x="82.43" y="658.19">N48</text>
<circle cx="127.53" cy="743.39" r="10"/>
<text x="127.53" y="748.39">N49</text>
<circle cx="242.61" cy="348.37" r="10"/>
<text x="242.61" y="353.37">N50</text>
<circle cx="55.99" cy="545.88" r="10"/>
<text x="55.99" y="550.88">N51</text>
<circle cx="97.98" cy="399.69" r="10"/>
<text x="97.98" y="404.69">N52</text>
<circle cx="295.49" cy="250.39" r="10"/>
<text x="295.49" y="255.39">N53</text>
<circle cx="455.68" cy="496.11" r="10"/>
<text x="455.68" y="501.11">N54</text>
<circle cx="52.88" cy="307.93" r="10"/>
<text x="52.88" y="312.93">N55</text>
<circle cx="32.66" cy="267.50" r="10"/>
<text x="32.66" y="272.50">N56</text>
<circle cx="27.99" cy="860.03" r="10"/>
<text x="27.99" y="865.03">N57</text>
<circle cx="99.53" cy="452.57" r="10"/>
<text x="99.53" y="457.57">N58</text>
<circle cx="136.86" cy="872.47" r="10"/>
<text x="136.86" y="877.47">N59</text>
<circle cx="37.33" cy="962.67" r="10"/>
<text x="37.33" y="967.67">N60</text>
<circle cx="132.19" cy="656.30" r="10"/>
<text x="132.19" y="661.30">N61</text>
<circle cx="202.18" cy="18.66" r="10"/>
<text x="202.18" y="23.66">N62</text>
<circle cx="272.16" cy="752.72" r="10"/>
<text x="272.16" y="757.72">N63</text>
<circle cx="82.43" cy="104.20" r="10"/>
<text x="82.43" y="109.20">N64</text>
<circle cx="458.79" cy="178.85" r="10"/>
<text x="458.79" y="183.85">N65</text>
</svg>
