<svg id="topo" viewBox="-58.92 -1382.71 1437.84 1445.23" xmlns="http://www.w3.org/2000/svg">
<style>#topo path {fill: none; stroke: grey; stroke-width: 5.0000px;} #topo circle {fill: lightblue; stroke: none; stroke-width: 0.3px; vector-effect: non-scaling-stroke; r: 10.0000px;} #topo text {fill: black; stroke: none; font-size: 15.0000px; font-family: sans-serif; text-anchor:middle; transform: translateY(0.3em);} #topo path.country {fill: lightgrey; stroke: black; stroke-width: 1px; vector-effect: non-scaling-stroke; visibility: visible;} #topo path.selection {fill: none; stroke: red; stroke-width: 1px; vector-effect: non-scaling-stroke; visibility: visible;} #topo path.utilization {visibility: hidden;}</style>
<path data-id="0-26" d="M22.35,-1102.48,18.12,-929.02"/>
<path data-id="0-38" d="M22.35,-1102.48,6.61,-1174.35"/>
<path data-id="0-42" d="M22.35,-1102.48,164.24,-1150.97"/>
<path data-id="1-10" d="M554.67,-1262.24,520.85,-1147.48"/>
<path data-id="1-29" d="M554.67,-1262.24,632.50,-1267.88"/>
<path data-id="1-35" d="M554.67,-1262.24,626.15,-1175.92"/>
<path data-id="1-95" d="M554.67,-1262.24,498.18,-1266.87"/>
<path data-id="2-33" d="M876.46,-234.75,878.96,-162.60"/>
<path data-id="2-54" d="M876.46,-234.75,927.03,-171.66"/>
<path data-id="2-67" d="M876.46,-234.75,935.91,-241.32"/>
<path data-id="2-68" d="M876.46,-234.75,905.11,-288.43"/>
<path data-id="2-164" d="M876.46,-234.75,783.79,-311.26"/>
<path data-id="3-10" d="M420.81,-1124.72,520.85,-1147.48"/>
<path data-id="3-70" d="M420.81,-1124.72,379.18,-1126.37"/>
<path data-id="4-25" d="M817.98,-1139.97,793.61,-1079.38"/>
<path data-id="4-45" d="M817.98,-1139.97,746.17,-1099.73"/>
<path data-id="4-84" d="M817.98,-1139.97,903.17,-1175.31"/>
<path data-id="4-88" d="M817.98,-1139.97,912.68,-1088.87"/>
<path data-id="4-125" d="M817.98,-1139.97,792.98,-1174.79"/>
<path data-id="5-59" d="M1279.43,-49.17,1123.75,-13.57"/>
<path data-id="5-157" d="M1279.43,-49.17,1242.26,-137.93"/>
<path data-id="6-76" d="M365.97,-227.26,343.08,-190.81"/>
<path data-id="6-82" d="M365.97,-227.26,390.25,-169.16"/>
<path data-id="6-89" d="M365.97,-227.26,327.71,-243.11"/>
<path data-id="6-91" d="M365.97,-227.26,505.50,-326.57"/>
<path data-id="7-28" d="M993.41,-856.09,941.63,-760.82"/>
<path data-id="7-138" d="M993.41,-856.09,1029.08,-939.48"/>
<path data-id="7-168" d="M993.41,-856.09,922.00,-954.01"/>
<path data-id="7-174" d="M993.41,-856.09,1073.41,-890.72"/>
<path data-id="8-48" d="M1163.02,-984.01,1224.30,-1025.50"/>
<path data-id="8-118" d="M1163.02,-984.01,1307.27,-858.23"/>
<path data-id="8-134" d="M1163.02,-984.01,1126.32,-909.48"/>
<path data-id="8-156" d="M1163.02,-984.01,1134.52,-1020.97"/>
<path data-id="9-86" d="M1269.83,-327.60,1136.42,-322.47"/>
<path data-id="9-121" d="M1269.83,-327.60,1313.57,-392.26"/>
<path data-id="9-123" d="M1269.83,-327.60,1289.72,-212.74"/>
<path data-id="9-136" d="M1269.83,-327.60,1191.24,-218.26"/>
<path data-id="9-165" d="M1269.83,-327.60,1205.15,-428.02"/>
<path data-id="10-35" d="M520.85,-1147.48,626.15,-1175.92"/>
<path data-id="10-61" d="M520.85,-1147.48,509.28,-937.86"/>
<path data-id="10-95" d="M520.85,-1147.48,498.18,-1266.87"/>
<path data-id="11-46" d="M69.69,-112.57,45.73,-128.17"/>
<path data-id="11-97" d="M69.69,-112.57,70.95,-139.65"/>
<path data-id="11-141" d="M69.69,-112.57,104.46,-67.73"/>
<path data-id="12-41" d="M849.99,-336.29,838.01,-420.31"/>
<path data-id="12-68" d="M849.99,-336.29,905.11,-288.43"/>
<path data-id="12-164" d="M849.99,-336.29,783.79,-311.26"/>
<path data-id="12-170" d="M849.99,-336.29,964.99,-367.89"/>
<path data-id="13-20" d="M107.21,-863.54,105.01,-905.04"/>
<path data-id="13-32" d="M107.21,-863.54,142.40,-865.81"/>
<path data-id="13-111" d="M107.21,-863.54,6.43,-843.87"/>
<path data-id="13-130" d="M107.21,-863.54,40.20,-783.49"/>
<path data-id="13-155" d="M107.21,-863.54,122.56,-772.37"/>
<path data-id="14-51" d="M204.19,-160.83,244.53,-207.69"/>
<path data-id="14-92" d="M204.19,-160.83,245.37,-92.18"/>
<path data-id="14-124" d="M204.19,-160.83,175.11,-206.22"/>
<path data-id="14-141" d="M204.19,-160.83,104.46,-67.73"/>
<path data-id="15-21" d="M686.91,-869.19,635.08,-878.85"/>
<path data-id="15-104" d="M686.91,-869.19,784.50,-802.56"/>
<path data-id="15-161" d="M686.91,-869.19,741.94,-908.53"/>
<path data-id="16-17" d="M825.43,-586.99,796.72,-723.72"/>
<path data-id="16-39" d="M825.43,-586.99,723.64,-695.23"/>
<path data-id="16-40" d="M825.43,-586.99,950.38,-648.47"/>
<path data-id="16-142" d="M825.43,-586.99,829.74,-514.10"/>
<path data-id="16-146" d="M825.43,-586.99,693.23,-629.13"/>
<path data-id="16-163" d="M825.43,-586.99,679.85,-567.04"/>
<path data-id="17-28" d="M796.72,-723.72,941.63,-760.82"/>
<path data-id="17-39" d="M796.72,-723.72,723.64,-695.23"/>
<path data-id="17-40" d="M796.72,-723.72,950.38,-648.47"/>
<path data-id="17-104" d="M796.72,-723.72,784.50,-802.56"/>
<path data-id="18-29" d="M661.43,-1208.42,632.50,-1267.88"/>
<path data-id="18-35" d="M661.43,-1208.42,626.15,-1175.92"/>
<path data-id="18-106" d="M661.43,-1208.42,770.81,-1239.63"/>
<path data-id="18-117" d="M661.43,-1208.42,660.78,-1173.06"/>
<path data-id="19-24" d="M362.85,-844.89,301.07,-897.55"/>
<path data-id="19-31" d="M362.85,-844.89,517.68,-748.80"/>
<path data-id="19-61" d="M362.85,-844.89,509.28,-937.86"/>
<path data-id="19-73" d="M362.85,-844.89,368.93,-740.15"/>
<path data-id="20-26" d="M105.01,-905.04,18.12,-929.02"/>
<path data-id="20-32" d="M105.01,-905.04,142.40,-865.81"/>
<path data-id="20-42" d="M105.01,-905.04,164.24,-1150.97"/>
<path data-id="21-61" d="M635.08,-878.85,509.28,-937.86"/>
<path data-id="21-173" d="M635.08,-878.85,600.02,-793.02"/>
<path data-id="22-40" d="M1004.68,-482.46,950.38,-648.47"/>
<path data-id="22-43" d="M1004.68,-482.46,1101.33,-666.92"/>
<path data-id="22-78" d="M1004.68,-482.46,925.28,-470.69"/>
<path data-id="22-108" d="M1004.68,-482.46,1180.16,-562.81"/>
<path data-id="22-148" d="M1004.68,-482.46,1090.26,-425.72"/>
<path data-id="22-170" d="M1004.68,-482.46,964.99,-367.89"/>
<path data-id="23-49" d="M91.02,-413.20,146.16,-449.23"/>
<path data-id="23-166" d="M91.02,-413.20,59.77,-487.12"/>
<path data-id="23-167" d="M91.02,-413.20,27.15,-397.23"/>
<path data-id="24-122" d="M301.07,-897.55,287.64,-924.45"/>
<path data-id="25-45" d="M793.61,-1079.38,746.17,-1099.73"/>
<path data-id="25-88" d="M793.61,-1079.38,912.68,-1088.87"/>
<path data-id="25-168" d="M793.61,-1079.38,922.00,-954.01"/>
<path data-id="26-111" d="M18.12,-929.02,6.43,-843.87"/>
<path data-id="27-49" d="M327.29,-452.11,146.16,-449.23"/>
<path data-id="27-60" d="M327.29,-452.11,363.50,-427.60"/>
<path data-id="27-131" d="M327.29,-452.11,247.65,-571.11"/>
<path data-id="27-150" d="M327.29,-452.11,257.51,-351.37"/>
<path data-id="28-40" d="M941.63,-760.82,950.38,-648.47"/>
<path data-id="28-43" d="M941.63,-760.82,1101.33,-666.92"/>
<path data-id="28-74" d="M941.63,-760.82,818.42,-821.02"/>
<path data-id="30-33" d="M900.06,-113.63,878.96,-162.60"/>
<path data-id="30-54" d="M900.06,-113.63,927.03,-171.66"/>
<path data-id="30-109" d="M900.06,-113.63,997.28,-76.83"/>
<path data-id="30-120" d="M900.06,-113.63,839.08,-52.61"/>
<path data-id="31-61" d="M517.68,-748.80,509.28,-937.86"/>
<path data-id="31-73" d="M517.68,-748.80,368.93,-740.15"/>
<path data-id="31-159" d="M517.68,-748.80,522.25,-702.63"/>
<path data-id="31-173" d="M517.68,-748.80,600.02,-793.02"/>
<path data-id="32-47" d="M142.40,-865.81,219.16,-894.24"/>
<path data-id="32-155" d="M142.40,-865.81,122.56,-772.37"/>
<path data-id="33-54" d="M878.96,-162.60,927.03,-171.66"/>
<path data-id="33-58" d="M878.96,-162.60,808.77,-146.02"/>
<path data-id="34-79" d="M68.04,-10.06,174.28,-4.73"/>
<path data-id="34-141" d="M68.04,-10.06,104.46,-67.73"/>
<path data-id="35-117" d="M626.15,-1175.92,660.78,-1173.06"/>
<path data-id="36-77" d="M333.06,-633.44,312.96,-713.66"/>
<path data-id="36-98" d="M333.06,-633.44,404.19,-481.11"/>
<path data-id="36-131" d="M333.06,-633.44,247.65,-571.11"/>
<path data-id="37-70" d="M262.99,-1237.49,379.18,-1126.37"/>
<path data-id="37-110" d="M262.99,-1237.49,254.01,-1264.49"/>
<path data-id="38-94" d="M6.61,-1174.35,60.30,-1200.73"/>
<path data-id="39-135" d="M723.64,-695.23,580.40,-681.58"/>
<path data-id="39-146" d="M723.64,-695.23,693.23,-629.13"/>
<path data-id="39-173" d="M723.64,-695.23,600.02,-793.02"/>
<path data-id="40-43" d="M950.38,-648.47,1101.33,-666.92"/>
<path data-id="40-78" d="M950.38,-648.47,925.28,-470.69"/>
<path data-id="41-78" d="M838.01,-420.31,925.28,-470.69"/>
<path data-id="41-81" d="M838.01,-420.31,722.62,-504.38"/>
<path data-id="41-133" d="M838.01,-420.31,672.01,-394.47"/>
<path data-id="41-142" d="M838.01,-420.31,829.74,-514.10"/>
<path data-id="41-170" d="M838.01,-420.31,964.99,-367.89"/>
<path data-id="42-55" d="M164.24,-1150.97,296.07,-1036.55"/>
<path data-id="42-94" d="M164.24,-1150.97,60.30,-1200.73"/>
<path data-id="42-137" d="M164.24,-1150.97,198.63,-1247.35"/>
<path data-id="43-100" d="M1101.33,-666.92,1167.97,-685.39"/>
<path data-id="43-108" d="M1101.33,-666.92,1180.16,-562.81"/>
<path data-id="43-174" d="M1101.33,-666.92,1073.41,-890.72"/>
<path data-id="44-87" d="M1293.59,-1296.44,1190.32,-1296.08"/>
<path data-id="44-152" d="M1293.59,-1296.44,1249.09,-1217.73"/>
<path data-id="45-80" d="M746.17,-1099.73,710.37,-1116.82"/>
<path data-id="45-145" d="M746.17,-1099.73,748.24,-1146.31"/>
<path data-id="45-162" d="M746.17,-1099.73,714.08,-1048.18"/>
<path data-id="46-97" d="M45.73,-128.17,70.95,-139.65"/>
<path data-id="47-122" d="M219.16,-894.24,287.64,-924.45"/>
<path data-id="48-52" d="M1224.30,-1025.50,1269.69,-1023.26"/>
<path data-id="48-63" d="M1224.30,-1025.50,1205.31,-1075.70"/>
<path data-id="49-131" d="M146.16,-449.23,247.65,-571.11"/>
<path data-id="49-147" d="M146.16,-449.23,173.73,-604.26"/>
<path data-id="49-150" d="M146.16,-449.23,257.51,-351.37"/>
<path data-id="49-166" d="M146.16,-449.23,59.77,-487.12"/>
<path data-id="50-60" d="M472.98,-377.65,363.50,-427.60"/>
<path data-id="50-75" d="M472.98,-377.65,600.35,-512.09"/>
<path data-id="50-91" d="M472.98,-377.65,505.50,-326.57"/>
<path data-id="50-98" d="M472.98,-377.65,404.19,-481.11"/>
<path data-id="50-127" d="M472.98,-377.65,525.81,-342.64"/>
<path data-id="51-76" d="M244.53,-207.69,343.08,-190.81"/>
<path data-id="51-89" d="M244.53,-207.69,327.71,-243.11"/>
<path data-id="51-124" d="M244.53,-207.69,175.11,-206.22"/>
<path data-id="51-150" d="M244.53,-207.69,257.51,-351.37"/>
<path data-id="52-118" d="M1269.69,-1023.26,1307.27,-858.23"/>
<path data-id="53-54" d="M1016.17,-97.70,927.03,-171.66"/>
<path data-id="53-66" d="M1016.17,-97.70,1082.75,-110.79"/>
<path data-id="53-109" d="M1016.17,-97.70,997.28,-76.83"/>
<path data-id="53-140" d="M1016.17,-97.70,1017.68,-255.80"/>
<path data-id="54-67" d="M927.03,-171.66,935.91,-241.32"/>
<path data-id="54-109" d="M927.03,-171.66,997.28,-76.83"/>
<path data-id="55-70" d="M296.07,-1036.55,379.18,-1126.37"/>
<path data-id="55-129" d="M296.07,-1036.55,323.73,-1009.10"/>
<path data-id="56-82" d="M476.31,-175.74,390.25,-169.16"/>
<path data-id="56-91" d="M476.31,-175.74,505.50,-326.57"/>
<path data-id="56-114" d="M476.31,-175.74,406.46,-119.59"/>
<path data-id="56-144" d="M476.31,-175.74,564.48,-158.75"/>
<path data-id="57-58" d="M711.99,-129.74,808.77,-146.02"/>
<path data-id="57-102" d="M711.99,-129.74,715.55,-76.87"/>
<path data-id="57-144" d="M711.99,-129.74,564.48,-158.75"/>
<path data-id="58-116" d="M808.77,-146.02,747.82,-38.85"/>
<path data-id="58-120" d="M808.77,-146.02,839.08,-52.61"/>
<path data-id="59-66" d="M1123.75,-13.57,1082.75,-110.79"/>
<path data-id="59-157" d="M1123.75,-13.57,1242.26,-137.93"/>
<path data-id="60-98" d="M363.50,-427.60,404.19,-481.11"/>
<path data-id="61-93" d="M509.28,-937.86,370.73,-1009.84"/>
<path data-id="62-114" d="M399.85,-27.62,406.46,-119.59"/>
<path data-id="62-126" d="M399.85,-27.62,327.37,-3.17"/>
<path data-id="63-99" d="M1205.31,-1075.70,1168.23,-1100.83"/>
<path data-id="63-156" d="M1205.31,-1075.70,1134.52,-1020.97"/>
<path data-id="64-103" d="M1285.71,-613.72,1224.56,-577.37"/>
<path data-id="64-128" d="M1285.71,-613.72,1211.93,-670.55"/>
<path data-id="65-130" d="M51.66,-729.75,40.20,-783.49"/>
<path data-id="65-149" d="M51.66,-729.75,99.38,-607.41"/>
<path data-id="65-158" d="M51.66,-729.75,82.35,-741.84"/>
<path data-id="66-136" d="M1082.75,-110.79,1191.24,-218.26"/>
<path data-id="66-140" d="M1082.75,-110.79,1017.68,-255.80"/>
<path data-id="66-157" d="M1082.75,-110.79,1242.26,-137.93"/>
<path data-id="67-68" d="M935.91,-241.32,905.11,-288.43"/>
<path data-id="67-71" d="M935.91,-241.32,953.60,-299.92"/>
<path data-id="67-140" d="M935.91,-241.32,1017.68,-255.80"/>
<path data-id="68-71" d="M905.11,-288.43,953.60,-299.92"/>
<path data-id="69-147" d="M146.71,-622.86,173.73,-604.26"/>
<path data-id="69-149" d="M146.71,-622.86,99.38,-607.41"/>
<path data-id="69-158" d="M146.71,-622.86,82.35,-741.84"/>
<path data-id="69-171" d="M146.71,-622.86,171.23,-633.20"/>
<path data-id="70-93" d="M379.18,-1126.37,370.73,-1009.84"/>
<path data-id="71-140" d="M953.60,-299.92,1017.68,-255.80"/>
<path data-id="71-170" d="M953.60,-299.92,964.99,-367.89"/>
<path data-id="72-115" d="M1229.98,-1201.06,1125.39,-1233.79"/>
<path data-id="72-152" d="M1229.98,-1201.06,1249.09,-1217.73"/>
<path data-id="72-160" d="M1229.98,-1201.06,1200.10,-1154.43"/>
<path data-id="73-77" d="M368.93,-740.15,312.96,-713.66"/>
<path data-id="74-104" d="M818.42,-821.02,784.50,-802.56"/>
<path data-id="74-161" d="M818.42,-821.02,741.94,-908.53"/>
<path data-id="74-168" d="M818.42,-821.02,922.00,-954.01"/>
<path data-id="75-81" d="M600.35,-512.09,722.62,-504.38"/>
<path data-id="75-98" d="M600.35,-512.09,404.19,-481.11"/>
<path data-id="75-127" d="M600.35,-512.09,525.81,-342.64"/>
<path data-id="75-133" d="M600.35,-512.09,672.01,-394.47"/>
<path data-id="75-135" d="M600.35,-512.09,580.40,-681.58"/>
<path data-id="75-154" d="M600.35,-512.09,561.33,-327.67"/>
<path data-id="75-163" d="M600.35,-512.09,679.85,-567.04"/>
<path data-id="76-82" d="M343.08,-190.81,390.25,-169.16"/>
<path data-id="76-89" d="M343.08,-190.81,327.71,-243.11"/>
<path data-id="76-92" d="M343.08,-190.81,245.37,-92.18"/>
<path data-id="77-155" d="M312.96,-713.66,122.56,-772.37"/>
<path data-id="77-171" d="M312.96,-713.66,171.23,-633.20"/>
<path data-id="78-142" d="M925.28,-470.69,829.74,-514.10"/>
<path data-id="78-170" d="M925.28,-470.69,964.99,-367.89"/>
<path data-id="79-92" d="M174.28,-4.73,245.37,-92.18"/>
<path data-id="79-112" d="M174.28,-4.73,288.37,-4.98"/>
<path data-id="79-141" d="M174.28,-4.73,104.46,-67.73"/>
<path data-id="80-117" d="M710.37,-1116.82,660.78,-1173.06"/>
<path data-id="80-145" d="M710.37,-1116.82,748.24,-1146.31"/>
<path data-id="80-162" d="M710.37,-1116.82,714.08,-1048.18"/>
<path data-id="81-133" d="M722.62,-504.38,672.01,-394.47"/>
<path data-id="81-142" d="M722.62,-504.38,829.74,-514.10"/>
<path data-id="81-163" d="M722.62,-504.38,679.85,-567.04"/>
<path data-id="82-114" d="M390.25,-169.16,406.46,-119.59"/>
<path data-id="83-84" d="M810.45,-1199.84,903.17,-1175.31"/>
<path data-id="83-106" d="M810.45,-1199.84,770.81,-1239.63"/>
<path data-id="83-125" d="M810.45,-1199.84,792.98,-1174.79"/>
<path data-id="84-88" d="M903.17,-1175.31,912.68,-1088.87"/>
<path data-id="84-143" d="M903.17,-1175.31,963.61,-1222.34"/>
<path data-id="85-138" d="M1087.02,-1037.31,1029.08,-939.48"/>
<path data-id="85-156" d="M1087.02,-1037.31,1134.52,-1020.97"/>
<path data-id="85-169" d="M1087.02,-1037.31,1024.44,-1085.50"/>
<path data-id="86-136" d="M1136.42,-322.47,1191.24,-218.26"/>
<path data-id="86-140" d="M1136.42,-322.47,1017.68,-255.80"/>
<path data-id="86-148" d="M1136.42,-322.47,1090.26,-425.72"/>
<path data-id="86-165" d="M1136.42,-322.47,1205.15,-428.02"/>
<path data-id="86-170" d="M1136.42,-322.47,964.99,-367.89"/>
<path data-id="87-115" d="M1190.32,-1296.08,1125.39,-1233.79"/>
<path data-id="87-152" d="M1190.32,-1296.08,1249.09,-1217.73"/>
<path data-id="88-90" d="M912.68,-1088.87,991.91,-1058.91"/>
<path data-id="88-168" d="M912.68,-1088.87,922.00,-954.01"/>
<path data-id="89-150" d="M327.71,-243.11,257.51,-351.37"/>
<path data-id="90-138" d="M991.91,-1058.91,1029.08,-939.48"/>
<path data-id="90-168" d="M991.91,-1058.91,922.00,-954.01"/>
<path data-id="90-169" d="M991.91,-1058.91,1024.44,-1085.50"/>
<path data-id="91-127" d="M505.50,-326.57,525.81,-342.64"/>
<path data-id="91-144" d="M505.50,-326.57,564.48,-158.75"/>
<path data-id="92-112" d="M245.37,-92.18,288.37,-4.98"/>
<path data-id="92-114" d="M245.37,-92.18,406.46,-119.59"/>
<path data-id="92-141" d="M245.37,-92.18,104.46,-67.73"/>
<path data-id="93-129" d="M370.73,-1009.84,323.73,-1009.10"/>
<path data-id="94-137" d="M60.30,-1200.73,198.63,-1247.35"/>
<path data-id="95-105" d="M498.18,-1266.87,321.35,-1317.02"/>
<path data-id="96-99" d="M1131.53,-1168.32,1168.23,-1100.83"/>
<path data-id="96-115" d="M1131.53,-1168.32,1125.39,-1233.79"/>
<path data-id="96-151" d="M1131.53,-1168.32,1062.03,-1207.66"/>
<path data-id="96-160" d="M1131.53,-1168.32,1200.10,-1154.43"/>
<path data-id="96-169" d="M1131.53,-1168.32,1024.44,-1085.50"/>
<path data-id="97-113" d="M70.95,-139.65,36.56,-263.43"/>
<path data-id="97-124" d="M70.95,-139.65,175.11,-206.22"/>
<path data-id="98-159" d="M404.19,-481.11,522.25,-702.63"/>
<path data-id="99-156" d="M1168.23,-1100.83,1134.52,-1020.97"/>
<path data-id="99-160" d="M1168.23,-1100.83,1200.10,-1154.43"/>
<path data-id="100-128" d="M1167.97,-685.39,1211.93,-670.55"/>
<path data-id="100-134" d="M1167.97,-685.39,1126.32,-909.48"/>
<path data-id="100-174" d="M1167.97,-685.39,1073.41,-890.72"/>
<path data-id="101-118" d="M1305.65,-791.84,1307.27,-858.23"/>
<path data-id="101-119" d="M1305.65,-791.84,1263.61,-770.39"/>
<path data-id="102-107" d="M715.55,-76.87,698.15,-24.86"/>
<path data-id="102-116" d="M715.55,-76.87,747.82,-38.85"/>
<path data-id="103-108" d="M1224.56,-577.37,1180.16,-562.81"/>
<path data-id="103-128" d="M1224.56,-577.37,1211.93,-670.55"/>
<path data-id="103-172" d="M1224.56,-577.37,1229.48,-489.77"/>
<path data-id="104-161" d="M784.50,-802.56,741.94,-908.53"/>
<path data-id="105-110" d="M321.35,-1317.02,254.01,-1264.49"/>
<path data-id="107-116" d="M698.15,-24.86,747.82,-38.85"/>
<path data-id="108-148" d="M1180.16,-562.81,1090.26,-425.72"/>
<path data-id="108-172" d="M1180.16,-562.81,1229.48,-489.77"/>
<path data-id="110-137" d="M254.01,-1264.49,198.63,-1247.35"/>
<path data-id="111-130" d="M6.43,-843.87,40.20,-783.49"/>
<path data-id="112-126" d="M288.37,-4.98,327.37,-3.17"/>
<path data-id="113-124" d="M36.56,-263.43,175.11,-206.22"/>
<path data-id="113-167" d="M36.56,-263.43,27.15,-397.23"/>
<path data-id="115-151" d="M1125.39,-1233.79,1062.03,-1207.66"/>
<path data-id="116-120" d="M747.82,-38.85,839.08,-52.61"/>
<path data-id="118-134" d="M1307.27,-858.23,1126.32,-909.48"/>
<path data-id="119-128" d="M1263.61,-770.39,1211.93,-670.55"/>
<path data-id="119-134" d="M1263.61,-770.39,1126.32,-909.48"/>
<path data-id="121-139" d="M1313.57,-392.26,1278.25,-440.16"/>
<path data-id="122-129" d="M287.64,-924.45,323.73,-1009.10"/>
<path data-id="123-136" d="M1289.72,-212.74,1191.24,-218.26"/>
<path data-id="123-157" d="M1289.72,-212.74,1242.26,-137.93"/>
<path data-id="125-145" d="M792.98,-1174.79,748.24,-1146.31"/>
<path data-id="127-154" d="M525.81,-342.64,561.33,-327.67"/>
<path data-id="130-158" d="M40.20,-783.49,82.35,-741.84"/>
<path data-id="131-147" d="M247.65,-571.11,173.73,-604.26"/>
<path data-id="132-135" d="M560.87,-697.60,580.40,-681.58"/>
<path data-id="132-159" d="M560.87,-697.60,522.25,-702.63"/>
<path data-id="132-173" d="M560.87,-697.60,600.02,-793.02"/>
<path data-id="133-154" d="M672.01,-394.47,561.33,-327.67"/>
<path data-id="133-164" d="M672.01,-394.47,783.79,-311.26"/>
<path data-id="134-174" d="M1126.32,-909.48,1073.41,-890.72"/>
<path data-id="135-146" d="M580.40,-681.58,693.23,-629.13"/>
<path data-id="136-140" d="M1191.24,-218.26,1017.68,-255.80"/>
<path data-id="136-157" d="M1191.24,-218.26,1242.26,-137.93"/>
<path data-id="138-168" d="M1029.08,-939.48,922.00,-954.01"/>
<path data-id="138-174" d="M1029.08,-939.48,1073.41,-890.72"/>
<path data-id="139-165" d="M1278.25,-440.16,1205.15,-428.02"/>
<path data-id="139-172" d="M1278.25,-440.16,1229.48,-489.77"/>
<path data-id="143-151" d="M963.61,-1222.34,1062.03,-1207.66"/>
<path data-id="143-169" d="M963.61,-1222.34,1024.44,-1085.50"/>
<path data-id="144-154" d="M564.48,-158.75,561.33,-327.67"/>
<path data-id="146-163" d="M693.23,-629.13,679.85,-567.04"/>
<path data-id="147-171" d="M173.73,-604.26,171.23,-633.20"/>
<path data-id="148-165" d="M1090.26,-425.72,1205.15,-428.02"/>
<path data-id="148-170" d="M1090.26,-425.72,964.99,-367.89"/>
<path data-id="149-166" d="M99.38,-607.41,59.77,-487.12"/>
<path data-id="151-169" d="M1062.03,-1207.66,1024.44,-1085.50"/>
<path data-id="153-161" d="M714.53,-995.55,741.94,-908.53"/>
<path data-id="153-162" d="M714.53,-995.55,714.08,-1048.18"/>
<path data-id="155-158" d="M122.56,-772.37,82.35,-741.84"/>
<path data-id="155-171" d="M122.56,-772.37,171.23,-633.20"/>
<path data-id="161-168" d="M741.94,-908.53,922.00,-954.01"/>
<path data-id="165-172" d="M1205.15,-428.02,1229.48,-489.77"/>
<path data-id="166-167" d="M59.77,-487.12,27.15,-397.23"/>
<circle data-id="0" cx="22.35" cy="-1102.48" r="10.00px"/>
<text data-id="0" x="22.35" y="-1102.48">R0</text>
<circle data-id="1" cx="554.67" cy="-1262.24" r="10.00px"/>
<text data-id="1" x="554.67" y="-1262.24">R1</text>
<circle data-id="2" cx="876.46" cy="-234.75" r="10.00px"/>
<text data-id="2" x="876.46" y="-234.75">R2</text>
<circle data-id="3" cx="420.81" cy="-1124.72" r="10.00px"/>
<text data-id="3" x="420.81" y="-1124.72">R3</text>
<circle data-id="4" cx="817.98" cy="-1139.97" r="10.00px"/>
<text data-id="4" x="817.98" y="-1139.97">R4</text>
<circle data-id="5" cx="1279.43" cy="-49.17" r="10.00px"/>
<text data-id="5" x="1279.43" y="-49.17">R5</text>
<circle data-id="6" cx="365.97" cy="-227.26" r="10.00px"/>
<text data-id="6" x="365.97" y="-227.26">R6</text>
<circle data-id="7" cx="993.41" cy="-856.09" r="10.00px"/>
<text data-id="7" x="993.41" y="-856.09">R7</text>
<circle data-id="8" cx="1163.02" cy="-984.01" r="10.00px"/>
<text data-id="8" x="1163.02" y="-984.01">R8</text>
<circle data-id="9" cx="1269.83" cy="-327.60" r="10.00px"/>
<text data-id="9" x="1269.83" y="-327.60">R9</text>
<circle data-id="10" cx="520.85" cy="-1147.48" r="10.00px"/>
<text data-id="10" x="520.85" y="-1147.48">R10</text>
<circle data-id="11" cx="69.69" cy="-112.57" r="10.00px"/>
<text data-id="11" x="69.69" y="-112.57">R11</text>
<circle data-id="12" cx="849.99" cy="-336.29" r="10.00px"/>
<text data-id="12" x="849.99" y="-336.29">R12</text>
<circle data-id="13" cx="107.21" cy="-863.54" r="10.00px"/>
<text data-id="13" x="107.21" y="-863.54">R13</text>
<circle data-id="14" cx="204.19" cy="-160.83" r="10.00px"/>
<text data-id="14" x="204.19" y="-160.83">R14</text>
<circle data-id="15" cx="686.91" cy="-869.19" r="10.00px"/>
<text data-id="15" x="686.91" y="-869.19">R15</text>
<circle data-id="16" cx="825.43" cy="-586.99" r="10.00px"/>
<text data-id="16" x="825.43" y="-586.99">R16</text>
<circle data-id="17" cx="796.72" cy="-723.72" r="10.00px"/>
<text data-id="17" x="796.72" y="-723.72">R17</text>
<circle data-id="18" cx="661.43" cy="-1208.42" r="10.00px"/>
<text data-id="18" x="661.43" y="-1208.42">R18</text>
<circle data-id="19" cx="362.85" cy="-844.89" r="10.00px"/>
<text data-id="19" x="362.85" y="-844.89">R19</text>
<circle data-id="20" cx="105.01" cy="-905.04" r="10.00px"/>
<text data-id="20" x="105.01" y="-905.04">R20</text>
<circle data-id="21" cx="635.08" cy="-878.85" r="10.00px"/>
<text data-id="21" x="635.08" y="-878.85">R21</text>
<circle data-id="22" cx="1004.68" cy="-482.46" r="10.00px"/>
<text data-id="22" x="1004.68" y="-482.46">R22</text>
<circle data-id="23" cx="91.02" cy="-413.20" r="10.00px"/>
<text data-id="23" x="91.02" y="-413.20">R23</text>
<circle data-id="24" cx="301.07" cy="-897.55" r="10.00px"/>
<text data-id="24" x="301.07" y="-897.55">R24</text>
<circle data-id="25" cx="793.61" cy="-1079.38" r="10.00px"/>
<text data-id="25" x="793.61" y="-1079.38">R25</text>
<circle data-id="26" cx="18.12" cy="-929.02" r="10.00px"/>
<text data-id="26" x="18.12" y="-929.02">R26</text>
<circle data-id="27" cx="327.29" cy="-452.11" r="10.00px"/>
<text data-id="27" x="327.29" y="-452.11">R27</text>
<circle data-id="28" cx="941.63" cy="-760.82" r="10.00px"/>
<text data-id="28" x="941.63" y="-760.82">R28</text>
<circle data-id="29" cx="632.50" cy="-1267.88" r="10.00px"/>
<text data-id="29" x="632.50" y="-1267.88">R29</text>
<circle data-id="30" cx="900.06" cy="-113.63" r="10.00px"/>
<text data-id="30" x="900.06" y="-113.63">R30</text>
<circle data-id="31" cx="517.68" cy="-748.80" r="10.00px"/>
<text data-id="31" x="517.68" y="-748.80">R31</text>
<circle data-id="32" cx="142.40" cy="-865.81" r="10.00px"/>
<text data-id="32" x="142.40" y="-865.81">R32</text>
<circle data-id="33" cx="878.96" cy="-162.60" r="10.00px"/>
<text data-id="33" x="878.96" y="-162.60">R33</text>
<circle data-id="34" cx="68.04" cy="-10.06" r="10.00px"/>
<text data-id="34" x="68.04" y="-10.06">R34</text>
<circle data-id="35" cx="626.15" cy="-1175.92" r="10.00px"/>
<text data-id="35" x="626.15" y="-1175.92">R35</text>
<circle data-id="36" cx="333.06" cy="-633.44" r="10.00px"/>
<text data-id="36" x="333.06" y="-633.44">R36</text>
<circle data-id="37" cx="262.99" cy="-1237.49" r="10.00px"/>
<text data-id="37" x="262.99" y="-1237.49">R37</text>
<circle data-id="38" cx="6.61" cy="-1174.35" r="10.00px"/>
<text data-id="38" x="6.61" y="-1174.35">R38</text>
<circle data-id="39" cx="723.64" cy="-695.23" r="10.00px"/>
<text data-id="39" x="723.64" y="-695.23">R39</text>
<circle data-id="40" cx="950.38" cy="-648.47" r="10.00px"/>
<text data-id="40" x="950.38" y="-648.47">R40</text>
<circle data-id="41" cx="838.01" cy="-420.31" r="10.00px"/>
<text data-id="41" x="838.01" y="-420.31">R41</text>
<circle data-id="42" cx="164.24" cy="-1150.97" r="10.00px"/>
<text data-id="42" x="164.24" y="-1150.97">R42</text>
<circle data-id="43" cx="1101.33" cy="-666.92" r="10.00px"/>
<text data-id="43" x="1101.33" y="-666.92">R43</text>
<circle data-id="44" cx="1293.59" cy="-1296.44" r="10.00px"/>
<text data-id="44" x="1293.59" y="-1296.44">R44</text>
<circle data-id="45" cx="746.17" cy="-1099.73" r="10.00px"/>
<text data-id="45" x="746.17" y="-1099.73">R45</text>
<circle data-id="46" cx="45.73" cy="-128.17" r="10.00px"/>
<text data-id="46" x="45.73" y="-128.17">R46</text>
<circle data-id="47" cx="219.16" cy="-894.24" r="10.00px"/>
<text data-id="47" x="219.16" y="-894.24">R47</text>
<circle data-id="48" cx="1224.30" cy="-1025.50" r="10.00px"/>
<text data-id="48" x="1224.30" y="-1025.50">R48</text>
<circle data-id="49" cx="146.16" cy="-449.23" r="10.00px"/>
<text data-id="49" x="146.16" y="-449.23">R49</text>
<circle data-id="50" cx="472.98" cy="-377.65" r="10.00px"/>
<text data-id="50" x="472.98" y="-377.65">R50</text>
<circle data-id="51" cx="244.53" cy="-207.69" r="10.00px"/>
<text data-id="51" x="244.53" y="-207.69">R51</text>
<circle data-id="52" cx="1269.69" cy="-1023.26" r="10.00px"/>
<text data-id="52" x="1269.69" y="-1023.26">R52</text>
<circle data-id="53" cx="1016.17" cy="-97.70" r="10.00px"/>
<text data-id="53" x="1016.17" y="-97.70">R53</text>
<circle data-id="54" cx="927.03" cy="-171.66" r="10.00px"/>
<text data-id="54" x="927.03" y="-171.66">R54</text>
<circle data-id="55" cx="296.07" cy="-1036.55" r="10.00px"/>
<text data-id="55" x="296.07" y="-1036.55">R55</text>
<circle data-id="56" cx="476.31" cy="-175.74" r="10.00px"/>
<text data-id="56" x="476.31" y="-175.74">R56</text>
<circle data-id="57" cx="711.99" cy="-129.74" r="10.00px"/>
<text data-id="57" x="711.99" y="-129.74">R57</text>
<circle data-id="58" cx="808.77" cy="-146.02" r="10.00px"/>
<text data-id="58" x="808.77" y="-146.02">R58</text>
<circle data-id="59" cx="1123.75" cy="-13.57" r="10.00px"/>
<text data-id="59" x="1123.75" y="-13.57">R59</text>
<circle data-id="60" cx="363.50" cy="-427.60" r="10.00px"/>
<text data-id="60" x="363.50" y="-427.60">R60</text>
<circle data-id="61" cx="509.28" cy="-937.86" r="10.00px"/>
<text data-id="61" x="509.28" y="-937.86">R61</text>
<circle data-id="62" cx="399.85" cy="-27.62" r="10.00px"/>
<text data-id="62" x="399.85" y="-27.62">R62</text>
<circle data-id="63" cx="1205.31" cy="-1075.70" r="10.00px"/>
<text data-id="63" x="1205.31" y="-1075.70">R63</text>
<circle data-id="64" cx="1285.71" cy="-613.72" r="10.00px"/>
<text data-id="64" x="1285.71" y="-613.72">R64</text>
<circle data-id="65" cx="51.66" cy="-729.75" r="10.00px"/>
<text data-id="65" x="51.66" y="-729.75">R65</text>
<circle data-id="66" cx="1082.75" cy="-110.79" r="10.00px"/>
<text data-id="66" x="1082.75" y="-110.79">R66</text>
<circle data-id="67" cx="935.91" cy="-241.32" r="10.00px"/>
<text data-id="67" x="935.91" y="-241.32">R67</text>
<circle data-id="68" cx="905.11" cy="-288.43" r="10.00px"/>
<text data-id="68" x="905.11" y="-288.43">R68</text>
<circle data-id="69" cx="146.71" cy="-622.86" r="10.00px"/>
<text data-id="69" x="146.71" y="-622.86">R69</text>
<circle data-id="70" cx="379.18" cy="-1126.37" r="10.00px"/>
<text data-id="70" x="379.18" y="-1126.37">R70</text>
<circle data-id="71" cx="953.60" cy="-299.92" r="10.00px"/>
<text data-id="71" x="953.60" y="-299.92">R71</text>
<circle data-id="72" cx="1229.98" cy="-1201.06" r="10.00px"/>
<text data-id="72" x="1229.98" y="-1201.06">R72</text>
<circle data-id="73" cx="368.93" cy="-740.15" r="10.00px"/>
<text data-id="73" x="368.93" y="-740.15">R73</text>
<circle data-id="74" cx="818.42" cy="-821.02" r="10.00px"/>
<text data-id="74" x="818.42" y="-821.02">R74</text>
<circle data-id="75" cx="600.35" cy="-512.09" r="10.00px"/>
<text data-id="75" x="600.35" y="-512.09">R75</text>
<circle data-id="76" cx="343.08" cy="-190.81" r="10.00px"/>
<text data-id="76" x="343.08" y="-190.81">R76</text>
<circle data-id="77" cx="312.96" cy="-713.66" r="10.00px"/>
<text data-id="77" x="312.96" y="-713.66">R77</text>
<circle data-id="78" cx="925.28" cy="-470.69" r="10.00px"/>
<text data-id="78" x="925.28" y="-470.69">R78</text>
<circle data-id="79" cx="174.28" cy="-4.73" r="10.00px"/>
<text data-id="79" x="174.28" y="-4.73">R79</text>
<circle data-id="80" cx="710.37" cy="-1116.82" r="10.00px"/>
<text data-id="80" x="710.37" y="-1116.82">R80</text>
<circle data-id="81" cx="722.62" cy="-504.38" r="10.00px"/>
<text data-id="81" x="722.62" y="-504.38">R81</text>
<circle data-id="82" cx="390.25" cy="-169.16" r="10.00px"/>
<text data-id="82" x="390.25" y="-169.16">R82</text>
<circle data-id="83" cx="810.45" cy="-1199.84" r="10.00px"/>
<text data-id="83" x="810.45" y="-1199.84">R83</text>
<circle data-id="84" cx="903.17" cy="-1175.31" r="10.00px"/>
<text data-id="84" x="903.17" y="-1175.31">R84</text>
<circle data-id="85" cx="1087.02" cy="-1037.31" r="10.00px"/>
<text data-id="85" x="1087.02" y="-1037.31">R85</text>
<circle data-id="86" cx="1136.42" cy="-322.47" r="10.00px"/>
<text data-id="86" x="1136.42" y="-322.47">R86</text>
<circle data-id="87" cx="1190.32" cy="-1296.08" r="10.00px"/>
<text data-id="87" x="1190.32" y="-1296.08">R87</text>
<circle data-id="88" cx="912.68" cy="-1088.87" r="10.00px"/>
<text data-id="88" x="912.68" y="-1088.87">R88</text>
<circle data-id="89" cx="327.71" cy="-243.11" r="10.00px"/>
<text data-id="89" x="327.71" y="-243.11">R89</text>
<circle data-id="90" cx="991.91" cy="-1058.91" r="10.00px"/>
<text data-id="90" x="991.91" y="-1058.91">R90</text>
<circle data-id="91" cx="505.50" cy="-326.57" r="10.00px"/>
<text data-id="91" x="505.50" y="-326.57">R91</text>
<circle data-id="92" cx="245.37" cy="-92.18" r="10.00px"/>
<text data-id="92" x="245.37" y="-92.18">R92</text>
<circle data-id="93" cx="370.73" cy="-1009.84" r="10.00px"/>
<text data-id="93" x="370.73" y="-1009.84">R93</text>
<circle data-id="94" cx="60.30" cy="-1200.73" r="10.00px"/>
<text data-id="94" x="60.30" y="-1200.73">R94</text>
<circle data-id="95" cx="498.18" cy="-1266.87" r="10.00px"/>
<text data-id="95" x="498.18" y="-1266.87">R95</text>
<circle data-id="96" cx="1131.53" cy="-1168.32" r="10.00px"/>
<text data-id="96" x="1131.53" y="-1168.32">R96</text>
<circle data-id="97" cx="70.95" cy="-139.65" r="10.00px"/>
<text data-id="97" x="70.95" y="-139.65">R97</text>
<circle data-id="98" cx="404.19" cy="-481.11" r="10.00px"/>
<text data-id="98" x="404.19" y="-481.11">R98</text>
<circle data-id="99" cx="1168.23" cy="-1100.83" r="10.00px"/>
<text data-id="99" x="1168.23" y="-1100.83">R99</text>
<circle data-id="100" cx="1167.97" cy="-685.39" r="10.00px"/>
<text data-id="100" x="1167.97" y="-685.39">R100</text>
<circle data-id="101" cx="1305.65" cy="-791.84" r="10.00px"/>
<text data-id="101" x="1305.65" y="-791.84">R101</text>
<circle data-id="102" cx="715.55" cy="-76.87" r="10.00px"/>
<text data-id="102" x="715.55" y="-76.87">R102</text>
<circle data-id="103" cx="1224.56" cy="-577.37" r="10.00px"/>
<text data-id="103" x="1224.56" y="-577.37">R103</text>
<circle data-id="104" cx="784.50" cy="-802.56" r="10.00px"/>
<text data-id="104" x="784.50" y="-802.56">R104</text>
<circle data-id="105" cx="321.35" cy="-1317.02" r="10.00px"/>
<text data-id="105" x="321.35" y="-1317.02">R105</text>
<circle data-id="106" cx="770.81" cy="-1239.63" r="10.00px"/>
<text data-id="106" x="770.81" y="-1239.63">R106</text>
<circle data-id="107" cx="698.15" cy="-24.86" r="10.00px"/>
<text data-id="107" x="698.15" y="-24.86">R107</text>
<circle data-id="108" cx="1180.16" cy="-562.81" r="10.00px"/>
<text data-id="108" x="1180.16" y="-562.81">R108</text>
<circle data-id="109" cx="997.28" cy="-76.83" r="10.00px"/>
<text data-id="109" x="997.28" y="-76.83">R109</text>
<circle data-id="110" cx="254.01" cy="-1264.49" r="10.00px"/>
<text data-id="110" x="254.01" y="-1264.49">R110</text>
<circle data-id="111" cx="6.43" cy="-843.87" r="10.00px"/>
<text data-id="111" x="6.43" y="-843.87">R111</text>
<circle data-id="112" cx="288.37" cy="-4.98" r="10.00px"/>
<text data-id="112" x="288.37" y="-4.98">R112</text>
<circle data-id="113" cx="36.56" cy="-263.43" r="10.00px"/>
<text data-id="113" x="36.56" y="-263.43">R113</text>
<circle data-id="114" cx="406.46" cy="-119.59" r="10.00px"/>
<text data-id="114" x="406.46" y="-119.59">R114</text>
<circle data-id="115" cx="1125.39" cy="-1233.79" r="10.00px"/>
<text data-id="115" x="1125.39" y="-1233.79">R115</text>
<circle data-id="116" cx="747.82" cy="-38.85" r="10.00px"/>
<text data-id="116" x="747.82" y="-38.85">R116</text>
<circle data-id="117" cx="660.78" cy="-1173.06" r="10.00px"/>
<text data-id="117" x="660.78" y="-1173.06">R117</text>
<circle data-id="118" cx="1307.27" cy="-858.23" r="10.00px"/>
<text data-id="118" x="1307.27" y="-858.23">R118</text>
<circle data-id="119" cx="1263.61" cy="-770.39" r="10.00px"/>
<text data-id="119" x="1263.61" y="-770.39">R119</text>
<circle data-id="120" cx="839.08" cy="-52.61" r="10.00px"/>
<text data-id="120" x="839.08" y="-52.61">R120</text>
<circle data-id="121" cx="1313.57" cy="-392.26" r="10.00px"/>
<text data-id="121" x="1313.57" y="-392.26">R121</text>
<circle data-id="122" cx="287.64" cy="-924.45" r="10.00px"/>
<text data-id="122" x="287.64" y="-924.45">R122</text>
<circle data-id="123" cx="1289.72" cy="-212.74" r="10.00px"/>
<text data-id="123" x="1289.72" y="-212.74">R123</text>
<circle data-id="124" cx="175.11" cy="-206.22" r="10.00px"/>
<text data-id="124" x="175.11" y="-206.22">R124</text>
<circle data-id="125" cx="792.98" cy="-1174.79" r="10.00px"/>
<text data-id="125" x="792.98" y="-1174.79">R125</text>
<circle data-id="126" cx="327.37" cy="-3.17" r="10.00px"/>
<text data-id="126" x="327.37" y="-3.17">R126</text>
<circle data-id="127" cx="525.81" cy="-342.64" r="10.00px"/>
<text data-id="127" x="525.81" y="-342.64">R127</text>
<circle data-id="128" cx="1211.93" cy="-670.55" r="10.00px"/>
<text data-id="128" x="1211.93" y="-670.55">R128</text>
<circle data-id="129" cx="323.73" cy="-1009.10" r="10.00px"/>
<text data-id="129" x="323.73" y="-1009.10">R129</text>
<circle data-id="130" cx="40.20" cy="-783.49" r="10.00px"/>
<text data-id="130" x="40.20" y="-783.49">R130</text>
<circle data-id="131" cx="247.65" cy="-571.11" r="10.00px"/>
<text data-id="131" x="247.65" y="-571.11">R131</text>
<circle data-id="132" cx="560.87" cy="-697.60" r="10.00px"/>
<text data-id="132" x="560.87" y="-697.60">R132</text>
<circle data-id="133" cx="672.01" cy="-394.47" r="10.00px"/>
<text data-id="133" x="672.01" y="-394.47">R133</text>
<circle data-id="134" cx="1126.32" cy="-909.48" r="10.00px"/>
<text data-id="134" x="1126.32" y="-909.48">R134</text>
<circle data-id="135" cx="580.40" cy="-681.58" r="10.00px"/>
<text data-id="135" x="580.40" y="-681.58">R135</text>
<circle data-id="136" cx="1191.24" cy="-218.26" r="10.00px"/>
<text data-id="136" x="1191.24" y="-218.26">R136</text>
<circle data-id="137" cx="198.63" cy="-1247.35" r="10.00px"/>
<text data-id="137" x="198.63" y="-1247.35">R137</text>
<circle data-id="138" cx="1029.08" cy="-939.48" r="10.00px"/>
<text data-id="138" x="1029.08" y="-939.48">R138</text>
<circle data-id="139" cx="1278.25" cy="-440.16" r="10.00px"/>
<text data-id="139" x="1278.25" y="-440.16">R139</text>
<circle data-id="140" cx="1017.68" cy="-255.80" r="10.00px"/>
<text data-id="140" x="1017.68" y="-255.80">R140</text>
<circle data-id="141" cx="104.46" cy="-67.73" r="10.00px"/>
<text data-id="141" x="104.46" y="-67.73">R141</text>
<circle data-id="142" cx="829.74" cy="-514.10" r="10.00px"/>
<text data-id="142" x="829.74" y="-514.10">R142</text>
<circle data-id="143" cx="963.61" cy="-1222.34" r="10.00px"/>
<text data-id="143" x="963.61" y="-1222.34">R143</text>
<circle data-id="144" cx="564.48" cy="-158.75" r="10.00px"/>
<text data-id="144" x="564.48" y="-158.75">R144</text>
<circle data-id="145" cx="748.24" cy="-1146.31" r="10.00px"/>
<text data-id="145" x="748.24" y="-1146.31">R145</text>
<circle data-id="146" cx="693.23" cy="-629.13" r="10.00px"/>
<text data-id="146" x="693.23" y="-629.13">R146</text>
<circle data-id="147" cx="173.73" cy="-604.26" r="10.00px"/>
<text data-id="147" x="173.73" y="-604.26">R147</text>
<circle data-id="148" cx="1090.26" cy="-425.72" r="10.00px"/>
<text data-id="148" x="1090.26" y="-425.72">R148</text>
<circle data-id="149" cx="99.38" cy="-607.41" r="10.00px"/>
<text data-id="149" x="99.38" y="-607.41">R149</text>
<circle data-id="150" cx="257.51" cy="-351.37" r="10.00px"/>
<text data-id="150" x="257.51" y="-351.37">R150</text>
<circle data-id="151" cx="1062.03" cy="-1207.66" r="10.00px"/>
<text data-id="151" x="1062.03" y="-1207.66">R151</text>
<circle data-id="152" cx="1249.09" cy="-1217.73" r="10.00px"/>
<text data-id="152" x="1249.09" y="-1217.73">R152</text>
<circle data-id="153" cx="714.53" cy="-995.55" r="10.00px"/>
<text data-id="153" x="714.53" y="-995.55">R153</text>
<circle data-id="154" cx="561.33" cy="-327.67" r="10.00px"/>
<text data-id="154" x="561.33" y="-327.67">R154</text>
<circle data-id="155" cx="122.56" cy="-772.37" r="10.00px"/>
<text data-id="155" x="122.56" y="-772.37">R155</text>
<circle data-id="156" cx="1134.52" cy="-1020.97" r="10.00px"/>
<text data-id="156" x="1134.52" y="-1020.97">R156</text>
<circle data-id="157" cx="1242.26" cy="-137.93" r="10.00px"/>
<text data-id="157" x="1242.26" y="-137.93">R157</text>
<circle data-id="158" cx="82.35" cy="-741.84" r="10.00px"/>
<text data-id="158" x="82.35" y="-741.84">R158</text>
<circle data-id="159" cx="522.25" cy="-702.63" r="10.00px"/>
<text data-id="159" x="522.25" y="-702.63">R159</text>
<circle data-id="160" cx="1200.10" cy="-1154.43" r="10.00px"/>
<text data-id="160" x="1200.10" y="-1154.43">R160</text>
<circle data-id="161" cx="741.94" cy="-908.53" r="10.00px"/>
<text data-id="161" x="741.94" y="-908.53">R161</text>
<circle data-id="162" cx="714.08" cy="-1048.18" r="10.00px"/>
<text data-id="162" x="714.08" y="-1048.18">R162</text>
<circle data-id="163" cx="679.85" cy="-567.04" r="10.00px"/>
<text data-id="163" x="679.85" y="-567.04">R163</text>
<circle data-id="164" cx="783.79" cy="-311.26" r="10.00px"/>
<text data-id="164" x="783.79" y="-311.26">R164</text>
<circle data-id="165" cx="1205.15" cy="-428.02" r="10.00px"/>
<text data-id="165" x="1205.15" y="-428.02">R165</text>
<circle data-id="166" cx="59.77" cy="-487.12" r="10.00px"/>
<text data-id="166" x="59.77" y="-487.12">R166</text>
<circle data-id="167" cx="27.15" cy="-397.23" r="10.00px"/>
<text data-id="167" x="27.15" y="-397.23">R167</text>
<circle data-id="168" cx="922.00" cy="-954.01" r="10.00px"/>
<text data-id="168" x="922.00" y="-954.01">R168</text>
<circle data-id="169" cx="1024.44" cy="-1085.50" r="10.00px"/>
<text data-id="169" x="1024.44" y="-1085.50">R169</text>
<circle data-id="170" cx="964.99" cy="-367.89" r="10.00px"/>
<text data-id="170" x="964.99" y="-367.89">R170</text>
<circle data-id="171" cx="171.23" cy="-633.20" r="10.00px"/>
<text data-id="171" x="171.23" y="-633.20">R171</text>
<circle data-id="172" cx="1229.48" cy="-489.77" r="10.00px"/>
<text data-id="172" x="1229.48" y="-489.77">R172</text>
<circle data-id="173" cx="600.02" cy="-793.02" r="10.00px"/>
<text data-id="173" x="600.02" y="-793.02">R173</text>
<circle data-id="174" cx="1073.41" cy="-890.72" r="10.00px"/>
<text data-id="174" x="1073.41" y="-890.72">R174</text>
</svg>
