<svg id="topo" viewBox="-62.36 -1380.81 1444.00 1431.87" xmlns="http://www.w3.org/2000/svg">
<style>#topo path {fill: none; stroke: grey; stroke-width: 5.0000px;} #topo circle {fill: lightblue; stroke: none; stroke-width: 0.3px; vector-effect: non-scaling-stroke; r: 10.0000px;} #topo text {fill: black; stroke: none; font-size: 15.0000px; font-family: sans-serif; text-anchor:middle; transform: translateY(0.3em);} #topo path.country {fill: lightgrey; stroke: black; stroke-width: 1px; vector-effect: non-scaling-stroke; visibility: visible;} #topo path.selection {fill: none; stroke: red; stroke-width: 1px; vector-effect: non-scaling-stroke; visibility: visible;} #topo path.utilization {visibility: hidden;}</style>
<path data-id="0-87" d="M570.73,-626.35,469.54,-834.89"/>
<path data-id="0-123" d="M570.73,-626.35,298.51,-686.91"/>
<path data-id="0-145" d="M570.73,-626.35,361.52,-501.69"/>
<path data-id="0-167" d="M570.73,-626.35,604.84,-630.22"/>
<path data-id="1-24" d="M970.06,-195.97,977.67,-169.32"/>
<path data-id="1-36" d="M970.06,-195.97,974.44,-368.21"/>
<path data-id="1-49" d="M970.06,-195.97,842.51,-199.87"/>
<path data-id="2-6" d="M542.54,-324.20,468.61,-323.90"/>
<path data-id="2-69" d="M542.54,-324.20,584.69,-354.76"/>
<path data-id="2-74" d="M542.54,-324.20,579.67,-295.59"/>
<path data-id="2-88" d="M542.54,-324.20,496.32,-228.22"/>
<path data-id="2-111" d="M542.54,-324.20,504.40,-430.37"/>
<path data-id="3-11" d="M1262.56,-148.46,1215.63,-65.10"/>
<path data-id="3-139" d="M1262.56,-148.46,1268.37,-43.61"/>
<path data-id="3-168" d="M1262.56,-148.46,1255.58,-190.98"/>
<path data-id="4-59" d="M977.99,-1250.79,1026.92,-1248.32"/>
<path data-id="4-68" d="M977.99,-1250.79,969.44,-1083.89"/>
<path data-id="4-133" d="M977.99,-1250.79,1000.63,-1313.49"/>
<path data-id="4-151" d="M977.99,-1250.79,889.45,-1247.47"/>
<path data-id="5-7" d="M418.39,-1036.04,468.05,-1014.25"/>
<path data-id="5-35" d="M418.39,-1036.04,379.58,-1086.90"/>
<path data-id="5-97" d="M418.39,-1036.04,373.06,-1034.32"/>
<path data-id="6-88" d="M468.61,-323.90,496.32,-228.22"/>
<path data-id="6-104" d="M468.61,-323.90,402.27,-368.75"/>
<path data-id="6-111" d="M468.61,-323.90,504.40,-430.37"/>
<path data-id="7-48" d="M468.05,-1014.25,507.12,-1036.87"/>
<path data-id="7-127" d="M468.05,-1014.25,476.83,-919.86"/>
<path data-id="8-72" d="M1126.64,-152.73,1130.04,-85.83"/>
<path data-id="8-76" d="M1126.64,-152.73,1204.27,-193.73"/>
<path data-id="8-138" d="M1126.64,-152.73,1010.98,-154.00"/>
<path data-id="8-174" d="M1126.64,-152.73,1130.24,-218.55"/>
<path data-id="9-47" d="M14.51,-195.41,99.00,-122.57"/>
<path data-id="9-96" d="M14.51,-195.41,25.24,-270.72"/>
<path data-id="10-19" d="M651.46,-728.90,756.23,-776.37"/>
<path data-id="10-87" d="M651.46,-728.90,469.54,-834.89"/>
<path data-id="10-109" d="M651.46,-728.90,718.81,-664.31"/>
<path data-id="10-164" d="M651.46,-728.90,675.12,-823.23"/>
<path data-id="10-167" d="M651.46,-728.90,604.84,-630.22"/>
<path data-id="11-72" d="M1215.63,-65.10,1130.04,-85.83"/>
<path data-id="11-139" d="M1215.63,-65.10,1268.37,-43.61"/>
<path data-id="12-96" d="M4.58,-309.74,25.24,-270.72"/>
<path data-id="12-148" d="M4.58,-309.74,38.15,-380.30"/>
<path data-id="12-157" d="M4.58,-309.74,51.27,-308.80"/>
<path data-id="13-23" d="M588.54,-1288.14,543.88,-1135.58"/>
<path data-id="13-73" d="M588.54,-1288.14,660.65,-1261.30"/>
<path data-id="13-89" d="M588.54,-1288.14,593.87,-1315.73"/>
<path data-id="13-162" d="M588.54,-1288.14,446.49,-1166.60"/>
<path data-id="14-121" d="M330.12,-144.48,277.96,-51.98"/>
<path data-id="14-124" d="M330.12,-144.48,260.55,-276.84"/>
<path data-id="14-134" d="M330.12,-144.48,426.84,-121.11"/>
<path data-id="14-155" d="M330.12,-144.48,238.05,-138.31"/>
<path data-id="15-25" d="M875.70,-428.42,867.08,-478.83"/>
<path data-id="15-56" d="M875.70,-428.42,865.33,-371.05"/>
<path data-id="15-143" d="M875.70,-428.42,923.65,-451.56"/>
<path data-id="16-93" d="M164.11,-637.73,222.76,-622.11"/>
<path data-id="16-105" d="M164.11,-637.73,156.11,-563.60"/>
<path data-id="16-128" d="M164.11,-637.73,237.34,-758.55"/>
<path data-id="16-129" d="M164.11,-637.73,78.95,-682.25"/>
<path data-id="17-33" d="M619.54,-120.72,642.95,-167.16"/>
<path data-id="17-55" d="M619.54,-120.72,596.95,-35.82"/>
<path data-id="17-65" d="M619.54,-120.72,680.86,-36.01"/>
<path data-id="17-146" d="M619.54,-120.72,593.32,-134.57"/>
<path data-id="17-171" d="M619.54,-120.72,717.53,-63.97"/>
<path data-id="18-42" d="M120.46,-411.53,75.86,-506.56"/>
<path data-id="18-66" d="M120.46,-411.53,185.49,-478.13"/>
<path data-id="18-103" d="M120.46,-411.53,80.58,-378.74"/>
<path data-id="19-109" d="M756.23,-776.37,718.81,-664.31"/>
<path data-id="19-140" d="M756.23,-776.37,756.27,-890.05"/>
<path data-id="19-150" d="M756.23,-776.37,813.92,-728.15"/>
<path data-id="19-164" d="M756.23,-776.37,675.12,-823.23"/>
<path data-id="20-35" d="M347.31,-1105.01,379.58,-1086.90"/>
<path data-id="20-58" d="M347.31,-1105.01,378.41,-1227.47"/>
<path data-id="20-114" d="M347.31,-1105.01,304.92,-1028.59"/>
<path data-id="20-120" d="M347.31,-1105.01,249.37,-1131.44"/>
<path data-id="21-30" d="M29.38,-1054.93,87.34,-1136.11"/>
<path data-id="21-50" d="M29.38,-1054.93,3.28,-1009.00"/>
<path data-id="21-137" d="M29.38,-1054.93,79.94,-1009.00"/>
<path data-id="22-42" d="M60.53,-571.86,75.86,-506.56"/>
<path data-id="22-51" d="M60.53,-571.86,29.66,-612.65"/>
<path data-id="22-105" d="M60.53,-571.86,156.11,-563.60"/>
<path data-id="23-27" d="M543.88,-1135.58,580.86,-1052.52"/>
<path data-id="23-48" d="M543.88,-1135.58,507.12,-1036.87"/>
<path data-id="23-90" d="M543.88,-1135.58,647.21,-1160.57"/>
<path data-id="23-162" d="M543.88,-1135.58,446.49,-1166.60"/>
<path data-id="24-138" d="M977.67,-169.32,1010.98,-154.00"/>
<path data-id="25-83" d="M867.08,-478.83,916.19,-527.13"/>
<path data-id="25-95" d="M867.08,-478.83,686.31,-604.11"/>
<path data-id="25-143" d="M867.08,-478.83,923.65,-451.56"/>
<path data-id="26-31" d="M795.15,-1207.56,864.27,-1143.42"/>
<path data-id="26-37" d="M795.15,-1207.56,729.06,-1314.45"/>
<path data-id="26-39" d="M795.15,-1207.56,833.42,-1307.42"/>
<path data-id="26-52" d="M795.15,-1207.56,688.49,-1262.84"/>
<path data-id="26-90" d="M795.15,-1207.56,647.21,-1160.57"/>
<path data-id="26-151" d="M795.15,-1207.56,889.45,-1247.47"/>
<path data-id="27-48" d="M580.86,-1052.52,507.12,-1036.87"/>
<path data-id="27-90" d="M580.86,-1052.52,647.21,-1160.57"/>
<path data-id="27-144" d="M580.86,-1052.52,770.96,-1003.43"/>
<path data-id="27-164" d="M580.86,-1052.52,675.12,-823.23"/>
<path data-id="28-33" d="M707.52,-207.93,642.95,-167.16"/>
<path data-id="28-43" d="M707.52,-207.93,680.15,-246.42"/>
<path data-id="28-49" d="M707.52,-207.93,842.51,-199.87"/>
<path data-id="28-53" d="M707.52,-207.93,800.85,-278.44"/>
<path data-id="28-171" d="M707.52,-207.93,717.53,-63.97"/>
<path data-id="29-67" d="M1130.79,-690.77,1027.89,-614.78"/>
<path data-id="29-80" d="M1130.79,-690.77,1191.51,-719.00"/>
<path data-id="29-106" d="M1130.79,-690.77,1193.84,-559.20"/>
<path data-id="29-115" d="M1130.79,-690.77,1098.17,-734.37"/>
<path data-id="30-116" d="M87.34,-1136.11,139.76,-1126.27"/>
<path data-id="31-68" d="M864.27,-1143.42,969.44,-1083.89"/>
<path data-id="31-142" d="M864.27,-1143.42,885.87,-946.09"/>
<path data-id="31-144" d="M864.27,-1143.42,770.96,-1003.43"/>
<path data-id="31-151" d="M864.27,-1143.42,889.45,-1247.47"/>
<path data-id="32-56" d="M747.26,-352.53,865.33,-371.05"/>
<path data-id="32-57" d="M747.26,-352.53,633.50,-546.48"/>
<path data-id="32-69" d="M747.26,-352.53,584.69,-354.76"/>
<path data-id="32-85" d="M747.26,-352.53,744.50,-311.35"/>
<path data-id="33-43" d="M642.95,-167.16,680.15,-246.42"/>
<path data-id="33-146" d="M642.95,-167.16,593.32,-134.57"/>
<path data-id="34-126" d="M187.22,-138.52,234.67,-82.75"/>
<path data-id="34-131" d="M187.22,-138.52,131.42,-148.50"/>
<path data-id="34-155" d="M187.22,-138.52,238.05,-138.31"/>
<path data-id="35-97" d="M379.58,-1086.90,373.06,-1034.32"/>
<path data-id="35-162" d="M379.58,-1086.90,446.49,-1166.60"/>
<path data-id="36-56" d="M974.44,-368.21,865.33,-371.05"/>
<path data-id="36-98" d="M974.44,-368.21,1022.57,-443.98"/>
<path data-id="36-143" d="M974.44,-368.21,923.65,-451.56"/>
<path data-id="36-174" d="M974.44,-368.21,1130.24,-218.55"/>
<path data-id="37-39" d="M729.06,-1314.45,833.42,-1307.42"/>
<path data-id="37-52" d="M729.06,-1314.45,688.49,-1262.84"/>
<path data-id="38-101" d="M1316.01,-1119.28,1264.61,-988.77"/>
<path data-id="38-160" d="M1316.01,-1119.28,1271.28,-1149.47"/>
<path data-id="38-169" d="M1316.01,-1119.28,1313.12,-978.99"/>
<path data-id="39-151" d="M833.42,-1307.42,889.45,-1247.47"/>
<path data-id="40-103" d="M155.32,-284.53,80.58,-378.74"/>
<path data-id="40-124" d="M155.32,-284.53,260.55,-276.84"/>
<path data-id="40-131" d="M155.32,-284.53,131.42,-148.50"/>
<path data-id="40-157" d="M155.32,-284.53,51.27,-308.80"/>
<path data-id="41-123" d="M299.20,-725.76,298.51,-686.91"/>
<path data-id="41-128" d="M299.20,-725.76,237.34,-758.55"/>
<path data-id="41-153" d="M299.20,-725.76,296.17,-803.83"/>
<path data-id="42-66" d="M75.86,-506.56,185.49,-478.13"/>
<path data-id="42-105" d="M75.86,-506.56,156.11,-563.60"/>
<path data-id="42-148" d="M75.86,-506.56,38.15,-380.30"/>
<path data-id="43-45" d="M680.15,-246.42,695.15,-277.43"/>
<path data-id="43-74" d="M680.15,-246.42,579.67,-295.59"/>
<path data-id="44-54" d="M288.84,-911.22,155.85,-949.50"/>
<path data-id="44-70" d="M288.84,-911.22,160.30,-806.01"/>
<path data-id="44-87" d="M288.84,-911.22,469.54,-834.89"/>
<path data-id="44-114" d="M288.84,-911.22,304.92,-1028.59"/>
<path data-id="44-127" d="M288.84,-911.22,476.83,-919.86"/>
<path data-id="44-153" d="M288.84,-911.22,296.17,-803.83"/>
<path data-id="45-74" d="M695.15,-277.43,579.67,-295.59"/>
<path data-id="45-85" d="M695.15,-277.43,744.50,-311.35"/>
<path data-id="46-54" d="M177.18,-1084.13,155.85,-949.50"/>
<path data-id="46-114" d="M177.18,-1084.13,304.92,-1028.59"/>
<path data-id="46-116" d="M177.18,-1084.13,139.76,-1126.27"/>
<path data-id="46-120" d="M177.18,-1084.13,249.37,-1131.44"/>
<path data-id="46-137" d="M177.18,-1084.13,79.94,-1009.00"/>
<path data-id="47-131" d="M99.00,-122.57,131.42,-148.50"/>
<path data-id="48-162" d="M507.12,-1036.87,446.49,-1166.60"/>
<path data-id="49-53" d="M842.51,-199.87,800.85,-278.44"/>
<path data-id="49-166" d="M842.51,-199.87,843.58,-58.21"/>
<path data-id="49-171" d="M842.51,-199.87,717.53,-63.97"/>
<path data-id="50-137" d="M3.28,-1009.00,79.94,-1009.00"/>
<path data-id="51-129" d="M29.66,-612.65,78.95,-682.25"/>
<path data-id="52-73" d="M688.49,-1262.84,660.65,-1261.30"/>
<path data-id="53-56" d="M800.85,-278.44,865.33,-371.05"/>
<path data-id="53-85" d="M800.85,-278.44,744.50,-311.35"/>
<path data-id="54-70" d="M155.85,-949.50,160.30,-806.01"/>
<path data-id="54-114" d="M155.85,-949.50,304.92,-1028.59"/>
<path data-id="54-137" d="M155.85,-949.50,79.94,-1009.00"/>
<path data-id="55-65" d="M596.95,-35.82,680.86,-36.01"/>
<path data-id="55-91" d="M596.95,-35.82,499.62,-36.04"/>
<path data-id="55-100" d="M596.95,-35.82,550.69,-122.71"/>
<path data-id="55-132" d="M596.95,-35.82,516.39,-76.09"/>
<path data-id="57-69" d="M633.50,-546.48,584.69,-354.76"/>
<path data-id="57-95" d="M633.50,-546.48,686.31,-604.11"/>
<path data-id="57-111" d="M633.50,-546.48,504.40,-430.37"/>
<path data-id="57-167" d="M633.50,-546.48,604.84,-630.22"/>
<path data-id="58-120" d="M378.41,-1227.47,249.37,-1131.44"/>
<path data-id="58-135" d="M378.41,-1227.47,198.94,-1263.99"/>
<path data-id="58-162" d="M378.41,-1227.47,446.49,-1166.60"/>
<path data-id="59-94" d="M1026.92,-1248.32,1080.88,-1238.35"/>
<path data-id="59-133" d="M1026.92,-1248.32,1000.63,-1313.49"/>
<path data-id="60-84" d="M335.12,-342.55,346.36,-369.80"/>
<path data-id="60-124" d="M335.12,-342.55,260.55,-276.84"/>
<path data-id="61-66" d="M279.05,-452.92,185.49,-478.13"/>
<path data-id="61-92" d="M279.05,-452.92,315.75,-444.34"/>
<path data-id="61-149" d="M279.05,-452.92,278.14,-626.21"/>
<path data-id="62-64" d="M1182.41,-769.42,1229.87,-839.05"/>
<path data-id="62-80" d="M1182.41,-769.42,1191.51,-719.00"/>
<path data-id="62-110" d="M1182.41,-769.42,1270.50,-758.60"/>
<path data-id="62-113" d="M1182.41,-769.42,1099.86,-817.57"/>
<path data-id="62-115" d="M1182.41,-769.42,1098.17,-734.37"/>
<path data-id="63-92" d="M438.43,-435.76,315.75,-444.34"/>
<path data-id="63-104" d="M438.43,-435.76,402.27,-368.75"/>
<path data-id="63-111" d="M438.43,-435.76,504.40,-430.37"/>
<path data-id="63-145" d="M438.43,-435.76,361.52,-501.69"/>
<path data-id="64-77" d="M1229.87,-839.05,1136.66,-953.44"/>
<path data-id="64-101" d="M1229.87,-839.05,1264.61,-988.77"/>
<path data-id="64-110" d="M1229.87,-839.05,1270.50,-758.60"/>
<path data-id="64-163" d="M1229.87,-839.05,1306.36,-862.24"/>
<path data-id="65-171" d="M680.86,-36.01,717.53,-63.97"/>
<path data-id="66-130" d="M185.49,-478.13,190.68,-532.48"/>
<path data-id="67-81" d="M1027.89,-614.78,1000.64,-555.79"/>
<path data-id="67-108" d="M1027.89,-614.78,958.62,-683.13"/>
<path data-id="67-119" d="M1027.89,-614.78,1045.66,-707.86"/>
<path data-id="67-141" d="M1027.89,-614.78,1041.91,-562.79"/>
<path data-id="67-172" d="M1027.89,-614.78,935.31,-635.20"/>
<path data-id="68-82" d="M969.44,-1083.89,1071.39,-1084.45"/>
<path data-id="68-117" d="M969.44,-1083.89,1023.09,-975.62"/>
<path data-id="68-142" d="M969.44,-1083.89,885.87,-946.09"/>
<path data-id="69-74" d="M584.69,-354.76,579.67,-295.59"/>
<path data-id="69-111" d="M584.69,-354.76,504.40,-430.37"/>
<path data-id="70-128" d="M160.30,-806.01,237.34,-758.55"/>
<path data-id="70-129" d="M160.30,-806.01,78.95,-682.25"/>
<path data-id="71-75" d="M1201.40,-1230.26,1254.67,-1283.99"/>
<path data-id="71-82" d="M1201.40,-1230.26,1071.39,-1084.45"/>
<path data-id="71-94" d="M1201.40,-1230.26,1080.88,-1238.35"/>
<path data-id="71-160" d="M1201.40,-1230.26,1271.28,-1149.47"/>
<path data-id="72-170" d="M1130.04,-85.83,1080.19,-82.09"/>
<path data-id="73-90" d="M660.65,-1261.30,647.21,-1160.57"/>
<path data-id="74-88" d="M579.67,-295.59,496.32,-228.22"/>
<path data-id="76-86" d="M1204.27,-193.73,1231.84,-291.15"/>
<path data-id="76-168" d="M1204.27,-193.73,1255.58,-190.98"/>
<path data-id="76-174" d="M1204.27,-193.73,1130.24,-218.55"/>
<path data-id="77-113" d="M1136.66,-953.44,1099.86,-817.57"/>
<path data-id="77-136" d="M1136.66,-953.44,1124.84,-993.16"/>
<path data-id="78-101" d="M1183.11,-1012.06,1264.61,-988.77"/>
<path data-id="78-136" d="M1183.11,-1012.06,1124.84,-993.16"/>
<path data-id="78-160" d="M1183.11,-1012.06,1271.28,-1149.47"/>
<path data-id="79-98" d="M1241.51,-432.80,1022.57,-443.98"/>
<path data-id="79-102" d="M1241.51,-432.80,1231.83,-362.68"/>
<path data-id="79-165" d="M1241.51,-432.80,1292.14,-538.53"/>
<path data-id="79-173" d="M1241.51,-432.80,1259.72,-548.16"/>
<path data-id="80-110" d="M1191.51,-719.00,1270.50,-758.60"/>
<path data-id="80-156" d="M1191.51,-719.00,1261.10,-667.74"/>
<path data-id="81-141" d="M1000.64,-555.79,1041.91,-562.79"/>
<path data-id="81-147" d="M1000.64,-555.79,976.24,-526.26"/>
<path data-id="81-172" d="M1000.64,-555.79,935.31,-635.20"/>
<path data-id="82-94" d="M1071.39,-1084.45,1080.88,-1238.35"/>
<path data-id="82-117" d="M1071.39,-1084.45,1023.09,-975.62"/>
<path data-id="82-136" d="M1071.39,-1084.45,1124.84,-993.16"/>
<path data-id="82-160" d="M1071.39,-1084.45,1271.28,-1149.47"/>
<path data-id="83-109" d="M916.19,-527.13,718.81,-664.31"/>
<path data-id="83-143" d="M916.19,-527.13,923.65,-451.56"/>
<path data-id="83-147" d="M916.19,-527.13,976.24,-526.26"/>
<path data-id="83-172" d="M916.19,-527.13,935.31,-635.20"/>
<path data-id="84-92" d="M346.36,-369.80,315.75,-444.34"/>
<path data-id="84-104" d="M346.36,-369.80,402.27,-368.75"/>
<path data-id="86-102" d="M1231.84,-291.15,1231.83,-362.68"/>
<path data-id="86-118" d="M1231.84,-291.15,1274.37,-246.42"/>
<path data-id="86-174" d="M1231.84,-291.15,1130.24,-218.55"/>
<path data-id="87-127" d="M469.54,-834.89,476.83,-919.86"/>
<path data-id="87-153" d="M469.54,-834.89,296.17,-803.83"/>
<path data-id="87-164" d="M469.54,-834.89,675.12,-823.23"/>
<path data-id="88-154" d="M496.32,-228.22,490.27,-183.40"/>
<path data-id="90-144" d="M647.21,-1160.57,770.96,-1003.43"/>
<path data-id="91-132" d="M499.62,-36.04,516.39,-76.09"/>
<path data-id="91-159" d="M499.62,-36.04,452.33,-14.03"/>
<path data-id="91-161" d="M499.62,-36.04,478.80,-81.64"/>
<path data-id="92-145" d="M315.75,-444.34,361.52,-501.69"/>
<path data-id="93-105" d="M222.76,-622.11,156.11,-563.60"/>
<path data-id="93-130" d="M222.76,-622.11,190.68,-532.48"/>
<path data-id="93-149" d="M222.76,-622.11,278.14,-626.21"/>
<path data-id="95-109" d="M686.31,-604.11,718.81,-664.31"/>
<path data-id="95-167" d="M686.31,-604.11,604.84,-630.22"/>
<path data-id="96-157" d="M25.24,-270.72,51.27,-308.80"/>
<path data-id="97-114" d="M373.06,-1034.32,304.92,-1028.59"/>
<path data-id="98-102" d="M1022.57,-443.98,1231.83,-362.68"/>
<path data-id="98-141" d="M1022.57,-443.98,1041.91,-562.79"/>
<path data-id="98-143" d="M1022.57,-443.98,923.65,-451.56"/>
<path data-id="98-147" d="M1022.57,-443.98,976.24,-526.26"/>
<path data-id="99-107" d="M1067.69,-813.13,1039.02,-781.15"/>
<path data-id="99-113" d="M1067.69,-813.13,1099.86,-817.57"/>
<path data-id="99-115" d="M1067.69,-813.13,1098.17,-734.37"/>
<path data-id="99-117" d="M1067.69,-813.13,1023.09,-975.62"/>
<path data-id="100-132" d="M550.69,-122.71,516.39,-76.09"/>
<path data-id="100-146" d="M550.69,-122.71,593.32,-134.57"/>
<path data-id="100-154" d="M550.69,-122.71,490.27,-183.40"/>
<path data-id="101-169" d="M1264.61,-988.77,1313.12,-978.99"/>
<path data-id="103-148" d="M80.58,-378.74,38.15,-380.30"/>
<path data-id="103-157" d="M80.58,-378.74,51.27,-308.80"/>
<path data-id="105-130" d="M156.11,-563.60,190.68,-532.48"/>
<path data-id="106-141" d="M1193.84,-559.20,1041.91,-562.79"/>
<path data-id="106-156" d="M1193.84,-559.20,1261.10,-667.74"/>
<path data-id="106-173" d="M1193.84,-559.20,1259.72,-548.16"/>
<path data-id="107-112" d="M1039.02,-781.15,970.33,-824.90"/>
<path data-id="107-115" d="M1039.02,-781.15,1098.17,-734.37"/>
<path data-id="107-119" d="M1039.02,-781.15,1045.66,-707.86"/>
<path data-id="108-112" d="M958.62,-683.13,970.33,-824.90"/>
<path data-id="108-119" d="M958.62,-683.13,1045.66,-707.86"/>
<path data-id="108-122" d="M958.62,-683.13,878.62,-737.34"/>
<path data-id="108-172" d="M958.62,-683.13,935.31,-635.20"/>
<path data-id="109-150" d="M718.81,-664.31,813.92,-728.15"/>
<path data-id="110-156" d="M1270.50,-758.60,1261.10,-667.74"/>
<path data-id="110-163" d="M1270.50,-758.60,1306.36,-862.24"/>
<path data-id="112-117" d="M970.33,-824.90,1023.09,-975.62"/>
<path data-id="112-142" d="M970.33,-824.90,885.87,-946.09"/>
<path data-id="112-152" d="M970.33,-824.90,915.47,-810.41"/>
<path data-id="113-115" d="M1099.86,-817.57,1098.17,-734.37"/>
<path data-id="114-120" d="M304.92,-1028.59,249.37,-1131.44"/>
<path data-id="115-119" d="M1098.17,-734.37,1045.66,-707.86"/>
<path data-id="116-135" d="M139.76,-1126.27,198.94,-1263.99"/>
<path data-id="116-137" d="M139.76,-1126.27,79.94,-1009.00"/>
<path data-id="117-136" d="M1023.09,-975.62,1124.84,-993.16"/>
<path data-id="117-142" d="M1023.09,-975.62,885.87,-946.09"/>
<path data-id="118-168" d="M1274.37,-246.42,1255.58,-190.98"/>
<path data-id="120-135" d="M249.37,-1131.44,198.94,-1263.99"/>
<path data-id="121-126" d="M277.96,-51.98,234.67,-82.75"/>
<path data-id="121-159" d="M277.96,-51.98,452.33,-14.03"/>
<path data-id="122-150" d="M878.62,-737.34,813.92,-728.15"/>
<path data-id="122-152" d="M878.62,-737.34,915.47,-810.41"/>
<path data-id="123-149" d="M298.51,-686.91,278.14,-626.21"/>
<path data-id="124-155" d="M260.55,-276.84,238.05,-138.31"/>
<path data-id="125-138" d="M986.10,-80.57,1010.98,-154.00"/>
<path data-id="125-166" d="M986.10,-80.57,843.58,-58.21"/>
<path data-id="125-170" d="M986.10,-80.57,1080.19,-82.09"/>
<path data-id="126-155" d="M234.67,-82.75,238.05,-138.31"/>
<path data-id="127-164" d="M476.83,-919.86,675.12,-823.23"/>
<path data-id="128-153" d="M237.34,-758.55,296.17,-803.83"/>
<path data-id="132-161" d="M516.39,-76.09,478.80,-81.64"/>
<path data-id="134-154" d="M426.84,-121.11,490.27,-183.40"/>
<path data-id="134-161" d="M426.84,-121.11,478.80,-81.64"/>
<path data-id="138-170" d="M1010.98,-154.00,1080.19,-82.09"/>
<path data-id="140-142" d="M756.27,-890.05,885.87,-946.09"/>
<path data-id="140-144" d="M756.27,-890.05,770.96,-1003.43"/>
<path data-id="140-152" d="M756.27,-890.05,915.47,-810.41"/>
<path data-id="140-164" d="M756.27,-890.05,675.12,-823.23"/>
<path data-id="142-144" d="M885.87,-946.09,770.96,-1003.43"/>
<path data-id="142-152" d="M885.87,-946.09,915.47,-810.41"/>
<path data-id="143-147" d="M923.65,-451.56,976.24,-526.26"/>
<path data-id="145-149" d="M361.52,-501.69,278.14,-626.21"/>
<path data-id="148-157" d="M38.15,-380.30,51.27,-308.80"/>
<path data-id="154-161" d="M490.27,-183.40,478.80,-81.64"/>
<path data-id="156-173" d="M1261.10,-667.74,1259.72,-548.16"/>
<path data-id="158-166" d="M747.06,-42.84,843.58,-58.21"/>
<path data-id="158-171" d="M747.06,-42.84,717.53,-63.97"/>
<path data-id="163-169" d="M1306.36,-862.24,1313.12,-978.99"/>
<path data-id="165-173" d="M1292.14,-538.53,1259.72,-548.16"/>
<circle data-id="0" cx="570.73" cy="-626.35" r="10.00px"/>
<text data-id="0" x="570.73" y="-626.35">R0</text>
<circle data-id="1" cx="970.06" cy="-195.97" r="10.00px"/>
<text data-id="1" x="970.06" y="-195.97">R1</text>
<circle data-id="2" cx="542.54" cy="-324.20" r="10.00px"/>
<text data-id="2" x="542.54" y="-324.20">R2</text>
<circle data-id="3" cx="1262.56" cy="-148.46" r="10.00px"/>
<text data-id="3" x="1262.56" y="-148.46">R3</text>
<circle data-id="4" cx="977.99" cy="-1250.79" r="10.00px"/>
<text data-id="4" x="977.99" y="-1250.79">R4</text>
<circle data-id="5" cx="418.39" cy="-1036.04" r="10.00px"/>
<text data-id="5" x="418.39" y="-1036.04">R5</text>
<circle data-id="6" cx="468.61" cy="-323.90" r="10.00px"/>
<text data-id="6" x="468.61" y="-323.90">R6</text>
<circle data-id="7" cx="468.05" cy="-1014.25" r="10.00px"/>
<text data-id="7" x="468.05" y="-1014.25">R7</text>
<circle data-id="8" cx="1126.64" cy="-152.73" r="10.00px"/>
<text data-id="8" x="1126.64" y="-152.73">R8</text>
<circle data-id="9" cx="14.51" cy="-195.41" r="10.00px"/>
<text data-id="9" x="14.51" y="-195.41">R9</text>
<circle data-id="10" cx="651.46" cy="-728.90" r="10.00px"/>
<text data-id="10" x="651.46" y="-728.90">R10</text>
<circle data-id="11" cx="1215.63" cy="-65.10" r="10.00px"/>
<text data-id="11" x="1215.63" y="-65.10">R11</text>
<circle data-id="12" cx="4.58" cy="-309.74" r="10.00px"/>
<text data-id="12" x="4.58" y="-309.74">R12</text>
<circle data-id="13" cx="588.54" cy="-1288.14" r="10.00px"/>
<text data-id="13" x="588.54" y="-1288.14">R13</text>
<circle data-id="14" cx="330.12" cy="-144.48" r="10.00px"/>
<text data-id="14" x="330.12" y="-144.48">R14</text>
<circle data-id="15" cx="875.70" cy="-428.42" r="10.00px"/>
<text data-id="15" x="875.70" y="-428.42">R15</text>
<circle data-id="16" cx="164.11" cy="-637.73" r="10.00px"/>
<text data-id="16" x="164.11" y="-637.73">R16</text>
<circle data-id="17" cx="619.54" cy="-120.72" r="10.00px"/>
<text data-id="17" x="619.54" y="-120.72">R17</text>
<circle data-id="18" cx="120.46" cy="-411.53" r="10.00px"/>
<text data-id="18" x="120.46" y="-411.53">R18</text>
<circle data-id="19" cx="756.23" cy="-776.37" r="10.00px"/>
<text data-id="19" x="756.23" y="-776.37">R19</text>
<circle data-id="20" cx="347.31" cy="-1105.01" r="10.00px"/>
<text data-id="20" x="347.31" y="-1105.01">R20</text>
<circle data-id="21" cx="29.38" cy="-1054.93" r="10.00px"/>
<text data-id="21" x="29.38" y="-1054.93">R21</text>
<circle data-id="22" cx="60.53" cy="-571.86" r="10.00px"/>
<text data-id="22" x="60.53" y="-571.86">R22</text>
<circle data-id="23" cx="543.88" cy="-1135.58" r="10.00px"/>
<text data-id="23" x="543.88" y="-1135.58">R23</text>
<circle data-id="24" cx="977.67" cy="-169.32" r="10.00px"/>
<text data-id="24" x="977.67" y="-169.32">R24</text>
<circle data-id="25" cx="867.08" cy="-478.83" r="10.00px"/>
<text data-id="25" x="867.08" y="-478.83">R25</text>
<circle data-id="26" cx="795.15" cy="-1207.56" r="10.00px"/>
<text data-id="26" x="795.15" y="-1207.56">R26</text>
<circle data-id="27" cx="580.86" cy="-1052.52" r="10.00px"/>
<text data-id="27" x="580.86" y="-1052.52">R27</text>
<circle data-id="28" cx="707.52" cy="-207.93" r="10.00px"/>
<text data-id="28" x="707.52" y="-207.93">R28</text>
<circle data-id="29" cx="1130.79" cy="-690.77" r="10.00px"/>
<text data-id="29" x="1130.79" y="-690.77">R29</text>
<circle data-id="30" cx="87.34" cy="-1136.11" r="10.00px"/>
<text data-id="30" x="87.34" y="-1136.11">R30</text>
<circle data-id="31" cx="864.27" cy="-1143.42" r="10.00px"/>
<text data-id="31" x="864.27" y="-1143.42">R31</text>
<circle data-id="32" cx="747.26" cy="-352.53" r="10.00px"/>
<text data-id="32" x="747.26" y="-352.53">R32</text>
<circle data-id="33" cx="642.95" cy="-167.16" r="10.00px"/>
<text data-id="33" x="642.95" y="-167.16">R33</text>
<circle data-id="34" cx="187.22" cy="-138.52" r="10.00px"/>
<text data-id="34" x="187.22" y="-138.52">R34</text>
<circle data-id="35" cx="379.58" cy="-1086.90" r="10.00px"/>
<text data-id="35" x="379.58" y="-1086.90">R35</text>
<circle data-id="36" cx="974.44" cy="-368.21" r="10.00px"/>
<text data-id="36" x="974.44" y="-368.21">R36</text>
<circle data-id="37" cx="729.06" cy="-1314.45" r="10.00px"/>
<text data-id="37" x="729.06" y="-1314.45">R37</text>
<circle data-id="38" cx="1316.01" cy="-1119.28" r="10.00px"/>
<text data-id="38" x="1316.01" y="-1119.28">R38</text>
<circle data-id="39" cx="833.42" cy="-1307.42" r="10.00px"/>
<text data-id="39" x="833.42" y="-1307.42">R39</text>
<circle data-id="40" cx="155.32" cy="-284.53" r="10.00px"/>
<text data-id="40" x="155.32" y="-284.53">R40</text>
<circle data-id="41" cx="299.20" cy="-725.76" r="10.00px"/>
<text data-id="41" x="299.20" y="-725.76">R41</text>
<circle data-id="42" cx="75.86" cy="-506.56" r="10.00px"/>
<text data-id="42" x="75.86" y="-506.56">R42</text>
<circle data-id="43" cx="680.15" cy="-246.42" r="10.00px"/>
<text data-id="43" x="680.15" y="-246.42">R43</text>
<circle data-id="44" cx="288.84" cy="-911.22" r="10.00px"/>
<text data-id="44" x="288.84" y="-911.22">R44</text>
<circle data-id="45" cx="695.15" cy="-277.43" r="10.00px"/>
<text data-id="45" x="695.15" y="-277.43">R45</text>
<circle data-id="46" cx="177.18" cy="-1084.13" r="10.00px"/>
<text data-id="46" x="177.18" y="-1084.13">R46</text>
<circle data-id="47" cx="99.00" cy="-122.57" r="10.00px"/>
<text data-id="47" x="99.00" y="-122.57">R47</text>
<circle data-id="48" cx="507.12" cy="-1036.87" r="10.00px"/>
<text data-id="48" x="507.12" y="-1036.87">R48</text>
<circle data-id="49" cx="842.51" cy="-199.87" r="10.00px"/>
<text data-id="49" x="842.51" y="-199.87">R49</text>
<circle data-id="50" cx="3.28" cy="-1009.00" r="10.00px"/>
<text data-id="50" x="3.28" y="-1009.00">R50</text>
<circle data-id="51" cx="29.66" cy="-612.65" r="10.00px"/>
<text data-id="51" x="29.66" y="-612.65">R51</text>
<circle data-id="52" cx="688.49" cy="-1262.84" r="10.00px"/>
<text data-id="52" x="688.49" y="-1262.84">R52</text>
<circle data-id="53" cx="800.85" cy="-278.44" r="10.00px"/>
<text data-id="53" x="800.85" y="-278.44">R53</text>
<circle data-id="54" cx="155.85" cy="-949.50" r="10.00px"/>
<text data-id="54" x="155.85" y="-949.50">R54</text>
<circle data-id="55" cx="596.95" cy="-35.82" r="10.00px"/>
<text data-id="55" x="596.95" y="-35.82">R55</text>
<circle data-id="56" cx="865.33" cy="-371.05" r="10.00px"/>
<text data-id="56" x="865.33" y="-371.05">R56</text>
<circle data-id="57" cx="633.50" cy="-546.48" r="10.00px"/>
<text data-id="57" x="633.50" y="-546.48">R57</text>
<circle data-id="58" cx="378.41" cy="-1227.47" r="10.00px"/>
<text data-id="58" x="378.41" y="-1227.47">R58</text>
<circle data-id="59" cx="1026.92" cy="-1248.32" r="10.00px"/>
<text data-id="59" x="1026.92" y="-1248.32">R59</text>
<circle data-id="60" cx="335.12" cy="-342.55" r="10.00px"/>
<text data-id="60" x="335.12" y="-342.55">R60</text>
<circle data-id="61" cx="279.05" cy="-452.92" r="10.00px"/>
<text data-id="61" x="279.05" y="-452.92">R61</text>
<circle data-id="62" cx="1182.41" cy="-769.42" r="10.00px"/>
<text data-id="62" x="1182.41" y="-769.42">R62</text>
<circle data-id="63" cx="438.43" cy="-435.76" r="10.00px"/>
<text data-id="63" x="438.43" y="-435.76">R63</text>
<circle data-id="64" cx="1229.87" cy="-839.05" r="10.00px"/>
<text data-id="64" x="1229.87" y="-839.05">R64</text>
<circle data-id="65" cx="680.86" cy="-36.01" r="10.00px"/>
<text data-id="65" x="680.86" y="-36.01">R65</text>
<circle data-id="66" cx="185.49" cy="-478.13" r="10.00px"/>
<text data-id="66" x="185.49" y="-478.13">R66</text>
<circle data-id="67" cx="1027.89" cy="-614.78" r="10.00px"/>
<text data-id="67" x="1027.89" y="-614.78">R67</text>
<circle data-id="68" cx="969.44" cy="-1083.89" r="10.00px"/>
<text data-id="68" x="969.44" y="-1083.89">R68</text>
<circle data-id="69" cx="584.69" cy="-354.76" r="10.00px"/>
<text data-id="69" x="584.69" y="-354.76">R69</text>
<circle data-id="70" cx="160.30" cy="-806.01" r="10.00px"/>
<text data-id="70" x="160.30" y="-806.01">R70</text>
<circle data-id="71" cx="1201.40" cy="-1230.26" r="10.00px"/>
<text data-id="71" x="1201.40" y="-1230.26">R71</text>
<circle data-id="72" cx="1130.04" cy="-85.83" r="10.00px"/>
<text data-id="72" x="1130.04" y="-85.83">R72</text>
<circle data-id="73" cx="660.65" cy="-1261.30" r="10.00px"/>
<text data-id="73" x="660.65" y="-1261.30">R73</text>
<circle data-id="74" cx="579.67" cy="-295.59" r="10.00px"/>
<text data-id="74" x="579.67" y="-295.59">R74</text>
<circle data-id="75" cx="1254.67" cy="-1283.99" r="10.00px"/>
<text data-id="75" x="1254.67" y="-1283.99">R75</text>
<circle data-id="76" cx="1204.27" cy="-193.73" r="10.00px"/>
<text data-id="76" x="1204.27" y="-193.73">R76</text>
<circle data-id="77" cx="1136.66" cy="-953.44" r="10.00px"/>
<text data-id="77" x="1136.66" y="-953.44">R77</text>
<circle data-id="78" cx="1183.11" cy="-1012.06" r="10.00px"/>
<text data-id="78" x="1183.11" y="-1012.06">R78</text>
<circle data-id="79" cx="1241.51" cy="-432.80" r="10.00px"/>
<text data-id="79" x="1241.51" y="-432.80">R79</text>
<circle data-id="80" cx="1191.51" cy="-719.00" r="10.00px"/>
<text data-id="80" x="1191.51" y="-719.00">R80</text>
<circle data-id="81" cx="1000.64" cy="-555.79" r="10.00px"/>
<text data-id="81" x="1000.64" y="-555.79">R81</text>
<circle data-id="82" cx="1071.39" cy="-1084.45" r="10.00px"/>
<text data-id="82" x="1071.39" y="-1084.45">R82</text>
<circle data-id="83" cx="916.19" cy="-527.13" r="10.00px"/>
<text data-id="83" x="916.19" y="-527.13">R83</text>
<circle data-id="84" cx="346.36" cy="-369.80" r="10.00px"/>
<text data-id="84" x="346.36" y="-369.80">R84</text>
<circle data-id="85" cx="744.50" cy="-311.35" r="10.00px"/>
<text data-id="85" x="744.50" y="-311.35">R85</text>
<circle data-id="86" cx="1231.84" cy="-291.15" r="10.00px"/>
<text data-id="86" x="1231.84" y="-291.15">R86</text>
<circle data-id="87" cx="469.54" cy="-834.89" r="10.00px"/>
<text data-id="87" x="469.54" y="-834.89">R87</text>
<circle data-id="88" cx="496.32" cy="-228.22" r="10.00px"/>
<text data-id="88" x="496.32" y="-228.22">R88</text>
<circle data-id="89" cx="593.87" cy="-1315.73" r="10.00px"/>
<text data-id="89" x="593.87" y="-1315.73">R89</text>
<circle data-id="90" cx="647.21" cy="-1160.57" r="10.00px"/>
<text data-id="90" x="647.21" y="-1160.57">R90</text>
<circle data-id="91" cx="499.62" cy="-36.04" r="10.00px"/>
<text data-id="91" x="499.62" y="-36.04">R91</text>
<circle data-id="92" cx="315.75" cy="-444.34" r="10.00px"/>
<text data-id="92" x="315.75" y="-444.34">R92</text>
<circle data-id="93" cx="222.76" cy="-622.11" r="10.00px"/>
<text data-id="93" x="222.76" y="-622.11">R93</text>
<circle data-id="94" cx="1080.88" cy="-1238.35" r="10.00px"/>
<text data-id="94" x="1080.88" y="-1238.35">R94</text>
<circle data-id="95" cx="686.31" cy="-604.11" r="10.00px"/>
<text data-id="95" x="686.31" y="-604.11">R95</text>
<circle data-id="96" cx="25.24" cy="-270.72" r="10.00px"/>
<text data-id="96" x="25.24" y="-270.72">R96</text>
<circle data-id="97" cx="373.06" cy="-1034.32" r="10.00px"/>
<text data-id="97" x="373.06" y="-1034.32">R97</text>
<circle data-id="98" cx="1022.57" cy="-443.98" r="10.00px"/>
<text data-id="98" x="1022.57" y="-443.98">R98</text>
<circle data-id="99" cx="1067.69" cy="-813.13" r="10.00px"/>
<text data-id="99" x="1067.69" y="-813.13">R99</text>
<circle data-id="100" cx="550.69" cy="-122.71" r="10.00px"/>
<text data-id="100" x="550.69" y="-122.71">R100</text>
<circle data-id="101" cx="1264.61" cy="-988.77" r="10.00px"/>
<text data-id="101" x="1264.61" y="-988.77">R101</text>
<circle data-id="102" cx="1231.83" cy="-362.68" r="10.00px"/>
<text data-id="102" x="1231.83" y="-362.68">R102</text>
<circle data-id="103" cx="80.58" cy="-378.74" r="10.00px"/>
<text data-id="103" x="80.58" y="-378.74">R103</text>
<circle data-id="104" cx="402.27" cy="-368.75" r="10.00px"/>
<text data-id="104" x="402.27" y="-368.75">R104</text>
<circle data-id="105" cx="156.11" cy="-563.60" r="10.00px"/>
<text data-id="105" x="156.11" y="-563.60">R105</text>
<circle data-id="106" cx="1193.84" cy="-559.20" r="10.00px"/>
<text data-id="106" x="1193.84" y="-559.20">R106</text>
<circle data-id="107" cx="1039.02" cy="-781.15" r="10.00px"/>
<text data-id="107" x="1039.02" y="-781.15">R107</text>
<circle data-id="108" cx="958.62" cy="-683.13" r="10.00px"/>
<text data-id="108" x="958.62" y="-683.13">R108</text>
<circle data-id="109" cx="718.81" cy="-664.31" r="10.00px"/>
<text data-id="109" x="718.81" y="-664.31">R109</text>
<circle data-id="110" cx="1270.50" cy="-758.60" r="10.00px"/>
<text data-id="110" x="1270.50" y="-758.60">R110</text>
<circle data-id="111" cx="504.40" cy="-430.37" r="10.00px"/>
<text data-id="111" x="504.40" y="-430.37">R111</text>
<circle data-id="112" cx="970.33" cy="-824.90" r="10.00px"/>
<text data-id="112" x="970.33" y="-824.90">R112</text>
<circle data-id="113" cx="1099.86" cy="-817.57" r="10.00px"/>
<text data-id="113" x="1099.86" y="-817.57">R113</text>
<circle data-id="114" cx="304.92" cy="-1028.59" r="10.00px"/>
<text data-id="114" x="304.92" y="-1028.59">R114</text>
<circle data-id="115" cx="1098.17" cy="-734.37" r="10.00px"/>
<text data-id="115" x="1098.17" y="-734.37">R115</text>
<circle data-id="116" cx="139.76" cy="-1126.27" r="10.00px"/>
<text data-id="116" x="139.76" y="-1126.27">R116</text>
<circle data-id="117" cx="1023.09" cy="-975.62" r="10.00px"/>
<text data-id="117" x="1023.09" y="-975.62">R117</text>
<circle data-id="118" cx="1274.37" cy="-246.42" r="10.00px"/>
<text data-id="118" x="1274.37" y="-246.42">R118</text>
<circle data-id="119" cx="1045.66" cy="-707.86" r="10.00px"/>
<text data-id="119" x="1045.66" y="-707.86">R119</text>
<circle data-id="120" cx="249.37" cy="-1131.44" r="10.00px"/>
<text data-id="120" x="249.37" y="-1131.44">R120</text>
<circle data-id="121" cx="277.96" cy="-51.98" r="10.00px"/>
<text data-id="121" x="277.96" y="-51.98">R121</text>
<circle data-id="122" cx="878.62" cy="-737.34" r="10.00px"/>
<text data-id="122" x="878.62" y="-737.34">R122</text>
<circle data-id="123" cx="298.51" cy="-686.91" r="10.00px"/>
<text data-id="123" x="298.51" y="-686.91">R123</text>
<circle data-id="124" cx="260.55" cy="-276.84" r="10.00px"/>
<text data-id="124" x="260.55" y="-276.84">R124</text>
<circle data-id="125" cx="986.10" cy="-80.57" r="10.00px"/>
<text data-id="125" x="986.10" y="-80.57">R125</text>
<circle data-id="126" cx="234.67" cy="-82.75" r="10.00px"/>
<text data-id="126" x="234.67" y="-82.75">R126</text>
<circle data-id="127" cx="476.83" cy="-919.86" r="10.00px"/>
<text data-id="127" x="476.83" y="-919.86">R127</text>
<circle data-id="128" cx="237.34" cy="-758.55" r="10.00px"/>
<text data-id="128" x="237.34" y="-758.55">R128</text>
<circle data-id="129" cx="78.95" cy="-682.25" r="10.00px"/>
<text data-id="129" x="78.95" y="-682.25">R129</text>
<circle data-id="130" cx="190.68" cy="-532.48" r="10.00px"/>
<text data-id="130" x="190.68" y="-532.48">R130</text>
<circle data-id="131" cx="131.42" cy="-148.50" r="10.00px"/>
<text data-id="131" x="131.42" y="-148.50">R131</text>
<circle data-id="132" cx="516.39" cy="-76.09" r="10.00px"/>
<text data-id="132" x="516.39" y="-76.09">R132</text>
<circle data-id="133" cx="1000.63" cy="-1313.49" r="10.00px"/>
<text data-id="133" x="1000.63" y="-1313.49">R133</text>
<circle data-id="134" cx="426.84" cy="-121.11" r="10.00px"/>
<text data-id="134" x="426.84" y="-121.11">R134</text>
<circle data-id="135" cx="198.94" cy="-1263.99" r="10.00px"/>
<text data-id="135" x="198.94" y="-1263.99">R135</text>
<circle data-id="136" cx="1124.84" cy="-993.16" r="10.00px"/>
<text data-id="136" x="1124.84" y="-993.16">R136</text>
<circle data-id="137" cx="79.94" cy="-1009.00" r="10.00px"/>
<text data-id="137" x="79.94" y="-1009.00">R137</text>
<circle data-id="138" cx="1010.98" cy="-154.00" r="10.00px"/>
<text data-id="138" x="1010.98" y="-154.00">R138</text>
<circle data-id="139" cx="1268.37" cy="-43.61" r="10.00px"/>
<text data-id="139" x="1268.37" y="-43.61">R139</text>
<circle data-id="140" cx="756.27" cy="-890.05" r="10.00px"/>
<text data-id="140" x="756.27" y="-890.05">R140</text>
<circle data-id="141" cx="1041.91" cy="-562.79" r="10.00px"/>
<text data-id="141" x="1041.91" y="-562.79">R141</text>
<circle data-id="142" cx="885.87" cy="-946.09" r="10.00px"/>
<text data-id="142" x="885.87" y="-946.09">R142</text>
<circle data-id="143" cx="923.65" cy="-451.56" r="10.00px"/>
<text data-id="143" x="923.65" y="-451.56">R143</text>
<circle data-id="144" cx="770.96" cy="-1003.43" r="10.00px"/>
<text data-id="144" x="770.96" y="-1003.43">R144</text>
<circle data-id="145" cx="361.52" cy="-501.69" r="10.00px"/>
<text data-id="145" x="361.52" y="-501.69">R145</text>
<circle data-id="146" cx="593.32" cy="-134.57" r="10.00px"/>
<text data-id="146" x="593.32" y="-134.57">R146</text>
<circle data-id="147" cx="976.24" cy="-526.26" r="10.00px"/>
<text data-id="147" x="976.24" y="-526.26">R147</text>
<circle data-id="148" cx="38.15" cy="-380.30" r="10.00px"/>
<text data-id="148" x="38.15" y="-380.30">R148</text>
<circle data-id="149" cx="278.14" cy="-626.21" r="10.00px"/>
<text data-id="149" x="278.14" y="-626.21">R149</text>
<circle data-id="150" cx="813.92" cy="-728.15" r="10.00px"/>
<text data-id="150" x="813.92" y="-728.15">R150</text>
<circle data-id="151" cx="889.45" cy="-1247.47" r="10.00px"/>
<text data-id="151" x="889.45" y="-1247.47">R151</text>
<circle data-id="152" cx="915.47" cy="-810.41" r="10.00px"/>
<text data-id="152" x="915.47" y="-810.41">R152</text>
<circle data-id="153" cx="296.17" cy="-803.83" r="10.00px"/>
<text data-id="153" x="296.17" y="-803.83">R153</text>
<circle data-id="154" cx="490.27" cy="-183.40" r="10.00px"/>
<text data-id="154" x="490.27" y="-183.40">R154</text>
<circle data-id="155" cx="238.05" cy="-138.31" r="10.00px"/>
<text data-id="155" x="238.05" y="-138.31">R155</text>
<circle data-id="156" cx="1261.10" cy="-667.74" r="10.00px"/>
<text data-id="156" x="1261.10" y="-667.74">R156</text>
<circle data-id="157" cx="51.27" cy="-308.80" r="10.00px"/>
<text data-id="157" x="51.27" y="-308.80">R157</text>
<circle data-id="158" cx="747.06" cy="-42.84" r="10.00px"/>
<text data-id="158" x="747.06" y="-42.84">R158</text>
<circle data-id="159" cx="452.33" cy="-14.03" r="10.00px"/>
<text data-id="159" x="452.33" y="-14.03">R159</text>
<circle data-id="160" cx="1271.28" cy="-1149.47" r="10.00px"/>
<text data-id="160" x="1271.28" y="-1149.47">R160</text>
<circle data-id="161" cx="478.80" cy="-81.64" r="10.00px"/>
<text data-id="161" x="478.80" y="-81.64">R161</text>
<circle data-id="162" cx="446.49" cy="-1166.60" r="10.00px"/>
<text data-id="162" x="446.49" y="-1166.60">R162</text>
<circle data-id="163" cx="1306.36" cy="-862.24" r="10.00px"/>
<text data-id="163" x="1306.36" y="-862.24">R163</text>
<circle data-id="164" cx="675.12" cy="-823.23" r="10.00px"/>
<text data-id="164" x="675.12" y="-823.23">R164</text>
<circle data-id="165" cx="1292.14" cy="-538.53" r="10.00px"/>
<text data-id="165" x="1292.14" y="-538.53">R165</text>
<circle data-id="166" cx="843.58" cy="-58.21" r="10.00px"/>
<text data-id="166" x="843.58" y="-58.21">R166</text>
<circle data-id="167" cx="604.84" cy="-630.22" r="10.00px"/>
<text data-id="167" x="604.84" y="-630.22">R167</text>
<circle data-id="168" cx="1255.58" cy="-190.98" r="10.00px"/>
<text data-id="168" x="1255.58" y="-190.98">R168</text>
<circle data-id="169" cx="1313.12" cy="-978.99" r="10.00px"/>
<text data-id="169" x="1313.12" y="-978.99">R169</text>
<circle data-id="170" cx="1080.19" cy="-82.09" r="10.00px"/>
<text data-id="170" x="1080.19" y="-82.09">R170</text>
<circle data-id="171" cx="717.53" cy="-63.97" r="10.00px"/>
<text data-id="171" x="717.53" y="-63.97">R171</text>
<circle data-id="172" cx="935.31" cy="-635.20" r="10.00px"/>
<text data-id="172" x="935.31" y="-635.20">R172</text>
<circle data-id="173" cx="1259.72" cy="-548.16" r="10.00px"/>
<text data-id="173" x="1259.72" y="-548.16">R173</text>
<circle data-id="174" cx="1130.24" cy="-218.55" r="10.00px"/>
<text data-id="174" x="1130.24" y="-218.55">R174</text>
</svg>
