<svg id="topo" width="1396.75" height="1392.82" viewBox="-30.04 -26.76 1396.75 1392.82" xmlns="http://www.w3.org/2000/svg">
<style>#topo path {fill: none; stroke: grey; stroke-width: 6;} #topo circle {fill: lightblue; stroke: none;} #topo text {fill: black; stroke: none; font-size: 16; font-family: sans-serif; text-anchor:middle;}</style>
<path d="M839.09,55.00,823.80,105.26"/>
<path d="M839.09,55.00,749.79,44.68"/>
<path d="M839.09,55.00,861.25,95.49"/>
<path d="M922.56,548.84,953.02,604.36"/>
<path d="M922.56,548.84,847.57,440.15"/>
<path d="M922.56,548.84,840.49,585.93"/>
<path d="M922.56,548.84,968.27,516.61"/>
<path d="M47.93,334.67,174.76,342.25"/>
<path d="M47.93,334.67,14.96,269.87"/>
<path d="M47.93,334.67,74.46,445.76"/>
<path d="M565.87,436.37,479.05,394.73"/>
<path d="M565.87,436.37,627.05,431.99"/>
<path d="M565.87,436.37,615.46,378.22"/>
<path d="M565.87,436.37,513.06,528.51"/>
<path d="M904.35,1084.50,1008.74,1153.91"/>
<path d="M904.35,1084.50,1000.36,940.89"/>
<path d="M904.35,1084.50,1045.81,1057.81"/>
<path d="M904.35,1084.50,851.35,905.42"/>
<path d="M904.35,1084.50,795.54,1138.22"/>
<path d="M904.35,1084.50,894.42,1205.87"/>
<path d="M904.35,1084.50,742.89,959.24"/>
<path d="M259.08,846.26,310.69,840.29"/>
<path d="M259.08,846.26,272.94,947.86"/>
<path d="M259.08,846.26,223.81,849.85"/>
<path d="M259.08,846.26,275.12,731.82"/>
<path d="M497.92,803.62,463.19,792.08"/>
<path d="M497.92,803.62,568.64,865.18"/>
<path d="M497.92,803.62,512.35,781.88"/>
<path d="M974.19,1290.84,1023.08,1235.82"/>
<path d="M974.19,1290.84,920.47,1282.59"/>
<path d="M468.21,629.40,503.40,673.87"/>
<path d="M468.21,629.40,402.81,659.98"/>
<path d="M468.21,629.40,507.14,599.95"/>
<path d="M468.21,629.40,416.96,523.45"/>
<path d="M479.05,394.73,342.09,429.47"/>
<path d="M479.05,394.73,513.06,528.51"/>
<path d="M479.05,394.73,600.41,351.95"/>
<path d="M479.05,394.73,387.09,504.35"/>
<path d="M479.05,394.73,569.50,312.85"/>
<path d="M479.05,394.73,416.96,523.45"/>
<path d="M565.43,240.05,606.62,207.48"/>
<path d="M565.43,240.05,536.42,272.13"/>
<path d="M565.43,240.05,503.52,208.80"/>
<path d="M310.69,840.29,272.94,947.86"/>
<path d="M310.69,840.29,339.58,765.14"/>
<path d="M1266.40,227.31,1212.43,262.57"/>
<path d="M1266.40,227.31,1243.80,165.56"/>
<path d="M1266.40,227.31,1296.24,227.96"/>
<path d="M206.92,572.81,344.89,564.36"/>
<path d="M206.92,572.81,172.78,623.43"/>
<path d="M206.92,572.81,323.26,700.03"/>
<path d="M206.92,572.81,178.39,566.87"/>
<path d="M660.33,482.01,755.86,462.77"/>
<path d="M660.33,482.01,656.07,433.31"/>
<path d="M660.33,482.01,738.16,549.30"/>
<path d="M247.24,1174.39,277.01,1200.62"/>
<path d="M247.24,1174.39,308.42,1160.62"/>
<path d="M247.24,1174.39,208.86,1137.43"/>
<path d="M750.06,1285.55,655.53,1287.74"/>
<path d="M750.06,1285.55,795.54,1138.22"/>
<path d="M750.06,1285.55,894.42,1205.87"/>
<path d="M750.06,1285.55,920.47,1282.59"/>
<path d="M463.19,792.08,402.81,659.98"/>
<path d="M463.19,792.08,339.58,765.14"/>
<path d="M34.51,976.33,178.87,982.80"/>
<path d="M34.51,976.33,33.41,1050.49"/>
<path d="M34.51,976.33,90.41,876.10"/>
<path d="M1008.74,1153.91,1045.81,1057.81"/>
<path d="M1008.74,1153.91,1023.08,1235.82"/>
<path d="M1008.74,1153.91,1117.46,1138.56"/>
<path d="M1008.74,1153.91,894.42,1205.87"/>
<path d="M1036.31,328.12,1073.19,253.70"/>
<path d="M1036.31,328.12,1192.32,494.38"/>
<path d="M1036.31,328.12,1005.29,264.29"/>
<path d="M1036.31,328.12,1007.84,462.69"/>
<path d="M1036.31,328.12,956.24,326.36"/>
<path d="M823.80,105.26,808.98,129.02"/>
<path d="M823.80,105.26,749.79,44.68"/>
<path d="M823.80,105.26,861.25,95.49"/>
<path d="M823.80,105.26,875.35,163.86"/>
<path d="M386.28,24.61,457.42,76.70"/>
<path d="M386.28,24.61,395.43,105.80"/>
<path d="M386.28,24.61,322.25,73.41"/>
<path d="M386.28,24.61,487.90,18.24"/>
<path d="M1194.10,107.60,1150.71,171.37"/>
<path d="M1194.10,107.60,1296.28,70.61"/>
<path d="M1194.10,107.60,1243.80,165.56"/>
<path d="M1194.10,107.60,1275.51,135.99"/>
<path d="M1194.10,107.60,1160.11,86.36"/>
<path d="M627.05,431.99,615.46,378.22"/>
<path d="M627.05,431.99,656.07,433.31"/>
<path d="M1022.38,195.06,1063.28,223.17"/>
<path d="M1022.38,195.06,1005.29,264.29"/>
<path d="M1022.38,195.06,1011.16,143.74"/>
<path d="M1150.71,171.37,1243.80,165.56"/>
<path d="M1150.71,171.37,1136.65,222.35"/>
<path d="M1150.71,171.37,1040.84,119.94"/>
<path d="M1150.71,171.37,1160.11,86.36"/>
<path d="M159.94,650.61,275.12,731.82"/>
<path d="M159.94,650.61,172.78,623.43"/>
<path d="M159.94,650.61,151.78,836.07"/>
<path d="M159.94,650.61,108.86,831.34"/>
<path d="M447.57,1109.04,475.70,990.68"/>
<path d="M447.57,1109.04,345.87,987.61"/>
<path d="M447.57,1109.04,418.04,1176.63"/>
<path d="M783.72,257.56,890.73,208.79"/>
<path d="M783.72,257.56,752.58,227.32"/>
<path d="M783.72,257.56,665.22,390.19"/>
<path d="M783.72,257.56,835.59,311.48"/>
<path d="M178.87,982.80,259.51,994.23"/>
<path d="M178.87,982.80,90.41,876.10"/>
<path d="M178.87,982.80,115.19,1077.48"/>
<path d="M178.87,982.80,214.67,906.90"/>
<path d="M178.87,982.80,208.86,1137.43"/>
<path d="M1000.36,940.89,1045.81,1057.81"/>
<path d="M1000.36,940.89,851.35,905.42"/>
<path d="M1000.36,940.89,1108.90,912.79"/>
<path d="M1000.36,940.89,970.29,849.65"/>
<path d="M475.70,990.68,500.14,980.04"/>
<path d="M475.70,990.68,345.87,987.61"/>
<path d="M913.97,764.90,1001.34,768.23"/>
<path d="M913.97,764.90,889.19,783.62"/>
<path d="M913.97,764.90,887.00,752.15"/>
<path d="M913.97,764.90,970.29,849.65"/>
<path d="M1291.65,1311.53,1268.81,1292.49"/>
<path d="M1291.65,1311.53,1315.00,1268.75"/>
<path d="M1291.65,1311.53,1266.80,1321.06"/>
<path d="M348.22,1284.45,365.24,1203.36"/>
<path d="M348.22,1284.45,454.39,1254.38"/>
<path d="M348.22,1284.45,277.01,1200.62"/>
<path d="M1045.81,1057.81,1117.46,1138.56"/>
<path d="M1045.81,1057.81,1108.90,912.79"/>
<path d="M1045.81,1057.81,1160.86,1013.98"/>
<path d="M168.39,481.96,174.76,342.25"/>
<path d="M168.39,481.96,342.09,429.47"/>
<path d="M168.39,481.96,74.46,445.76"/>
<path d="M168.39,481.96,178.39,566.87"/>
<path d="M1296.28,70.61,1275.51,135.99"/>
<path d="M1296.28,70.61,1320.14,24.82"/>
<path d="M1230.68,1302.25,1268.81,1292.49"/>
<path d="M1230.68,1302.25,1193.86,1253.57"/>
<path d="M1230.68,1302.25,1266.80,1321.06"/>
<path d="M500.14,980.04,558.60,955.36"/>
<path d="M568.64,865.18,710.84,844.09"/>
<path d="M568.64,865.18,558.60,955.36"/>
<path d="M710.84,844.09,641.63,983.09"/>
<path d="M710.84,844.09,770.48,766.94"/>
<path d="M710.84,844.09,794.43,891.66"/>
<path d="M710.84,844.09,742.89,959.24"/>
<path d="M752.29,591.16,803.65,527.42"/>
<path d="M752.29,591.16,770.99,609.58"/>
<path d="M752.29,591.16,657.71,648.08"/>
<path d="M752.29,591.16,738.16,549.30"/>
<path d="M365.24,1203.36,454.39,1254.38"/>
<path d="M365.24,1203.36,308.42,1160.62"/>
<path d="M365.24,1203.36,418.04,1176.63"/>
<path d="M641.63,983.09,705.23,1045.87"/>
<path d="M641.63,983.09,558.60,955.36"/>
<path d="M641.63,983.09,742.89,959.24"/>
<path d="M953.02,604.36,1001.34,768.23"/>
<path d="M953.02,604.36,1012.39,605.42"/>
<path d="M953.02,604.36,887.00,752.15"/>
<path d="M808.98,129.02,708.48,122.07"/>
<path d="M808.98,129.02,752.58,227.32"/>
<path d="M808.98,129.02,875.35,163.86"/>
<path d="M174.76,342.25,342.09,429.47"/>
<path d="M174.76,342.25,74.46,445.76"/>
<path d="M174.76,342.25,324.86,126.77"/>
<path d="M344.89,564.36,360.40,623.37"/>
<path d="M344.89,564.36,387.09,504.35"/>
<path d="M33.41,1050.49,115.19,1077.48"/>
<path d="M33.41,1050.49,48.36,1172.59"/>
<path d="M14.96,269.87,227.31,53.45"/>
<path d="M1001.34,768.23,1012.39,605.42"/>
<path d="M1001.34,768.23,1107.93,790.72"/>
<path d="M1001.34,768.23,970.29,849.65"/>
<path d="M1268.81,1292.49,1315.00,1268.75"/>
<path d="M1268.81,1292.49,1266.80,1321.06"/>
<path d="M803.65,527.42,755.86,462.77"/>
<path d="M803.65,527.42,738.16,549.30"/>
<path d="M803.65,527.42,847.57,440.15"/>
<path d="M803.65,527.42,840.49,585.93"/>
<path d="M1320.32,606.01,1226.00,633.48"/>
<path d="M1320.32,606.01,1223.35,470.14"/>
<path d="M1320.32,606.01,1321.71,833.19"/>
<path d="M1320.32,606.01,1192.32,494.38"/>
<path d="M1118.64,76.09,1040.84,119.94"/>
<path d="M1118.64,76.09,1160.11,86.36"/>
<path d="M770.99,609.58,770.48,766.94"/>
<path d="M770.99,609.58,887.00,752.15"/>
<path d="M770.99,609.58,840.49,585.93"/>
<path d="M851.35,905.42,889.19,783.62"/>
<path d="M851.35,905.42,794.43,891.66"/>
<path d="M851.35,905.42,970.29,849.65"/>
<path d="M1023.08,1235.82,1193.86,1253.57"/>
<path d="M1023.08,1235.82,1117.46,1138.56"/>
<path d="M1023.08,1235.82,894.42,1205.87"/>
<path d="M342.09,429.47,387.09,504.35"/>
<path d="M342.09,429.47,324.86,126.77"/>
<path d="M927.93,256.41,890.73,208.79"/>
<path d="M927.93,256.41,1005.29,264.29"/>
<path d="M927.93,256.41,956.24,326.36"/>
<path d="M927.93,256.41,835.59,311.48"/>
<path d="M890.73,208.79,875.35,163.86"/>
<path d="M890.73,208.79,835.59,311.48"/>
<path d="M890.73,208.79,1011.16,143.74"/>
<path d="M1063.28,223.17,1073.19,253.70"/>
<path d="M1063.28,223.17,1005.29,264.29"/>
<path d="M1063.28,223.17,1136.65,222.35"/>
<path d="M117.58,1253.66,131.91,1198.97"/>
<path d="M457.42,76.70,395.43,105.80"/>
<path d="M457.42,76.70,487.90,18.24"/>
<path d="M457.42,76.70,503.52,208.80"/>
<path d="M1212.43,262.57,1310.30,357.83"/>
<path d="M1212.43,262.57,1136.65,222.35"/>
<path d="M360.40,623.37,402.81,659.98"/>
<path d="M360.40,623.37,323.26,700.03"/>
<path d="M657.71,648.08,770.48,766.94"/>
<path d="M657.71,648.08,503.40,673.87"/>
<path d="M657.71,648.08,507.14,599.95"/>
<path d="M1226.00,633.48,1123.88,740.18"/>
<path d="M1226.00,633.48,1012.39,605.42"/>
<path d="M1226.00,633.48,1321.71,833.19"/>
<path d="M1226.00,633.48,1192.32,494.38"/>
<path d="M951.58,477.89,1007.84,462.69"/>
<path d="M951.58,477.89,847.57,440.15"/>
<path d="M951.58,477.89,968.27,516.61"/>
<path d="M951.58,477.89,914.92,392.01"/>
<path d="M606.62,207.48,708.48,122.07"/>
<path d="M606.62,207.48,752.58,227.32"/>
<path d="M512.35,781.88,503.40,673.87"/>
<path d="M1243.80,165.56,1275.51,135.99"/>
<path d="M1198.05,941.25,1260.22,962.73"/>
<path d="M1198.05,941.25,1108.90,912.79"/>
<path d="M1198.05,941.25,1160.86,1013.98"/>
<path d="M1198.05,941.25,1212.59,850.71"/>
<path d="M1193.86,1253.57,1117.46,1138.56"/>
<path d="M1193.86,1253.57,1266.38,1141.60"/>
<path d="M1193.86,1253.57,1232.83,1123.98"/>
<path d="M889.19,783.62,770.48,766.94"/>
<path d="M889.19,783.62,887.00,752.15"/>
<path d="M889.19,783.62,970.29,849.65"/>
<path d="M272.94,947.86,345.87,987.61"/>
<path d="M272.94,947.86,259.51,994.23"/>
<path d="M272.94,947.86,214.67,906.90"/>
<path d="M749.79,44.68,708.48,122.07"/>
<path d="M1315.00,1268.75,1266.38,1141.60"/>
<path d="M1210.58,1107.70,1117.46,1138.56"/>
<path d="M1210.58,1107.70,1160.86,1013.98"/>
<path d="M1210.58,1107.70,1232.83,1123.98"/>
<path d="M1210.58,1107.70,1256.51,1014.01"/>
<path d="M1073.19,253.70,1005.29,264.29"/>
<path d="M1073.19,253.70,1136.65,222.35"/>
<path d="M770.48,766.94,887.00,752.15"/>
<path d="M770.48,766.94,794.43,891.66"/>
<path d="M503.40,673.87,507.14,599.95"/>
<path d="M1123.88,740.18,1012.39,605.42"/>
<path d="M1123.88,740.18,1107.93,790.72"/>
<path d="M1070.36,518.53,1012.39,605.42"/>
<path d="M1070.36,518.53,1192.32,494.38"/>
<path d="M1070.36,518.53,1019.81,496.87"/>
<path d="M223.81,849.85,151.78,836.07"/>
<path d="M223.81,849.85,214.67,906.90"/>
<path d="M708.48,122.07,752.58,227.32"/>
<path d="M708.48,122.07,487.90,18.24"/>
<path d="M275.12,731.82,323.26,700.03"/>
<path d="M275.12,731.82,339.58,765.14"/>
<path d="M1223.35,470.14,1192.32,494.38"/>
<path d="M1223.35,470.14,1310.30,357.83"/>
<path d="M1012.39,605.42,968.27,516.61"/>
<path d="M1012.39,605.42,1019.81,496.87"/>
<path d="M1321.71,833.19,1260.22,962.73"/>
<path d="M1321.71,833.19,1212.59,850.71"/>
<path d="M615.46,378.22,600.41,351.95"/>
<path d="M615.46,378.22,629.23,352.96"/>
<path d="M615.46,378.22,665.22,390.19"/>
<path d="M1296.24,227.96,1310.30,357.83"/>
<path d="M1260.22,962.73,1256.51,1014.01"/>
<path d="M395.43,105.80,322.25,73.41"/>
<path d="M395.43,105.80,324.86,126.77"/>
<path d="M395.43,105.80,503.52,208.80"/>
<path d="M124.57,578.20,172.78,623.43"/>
<path d="M124.57,578.20,48.95,496.18"/>
<path d="M124.57,578.20,178.39,566.87"/>
<path d="M124.57,578.20,80.95,597.66"/>
<path d="M1107.93,790.72,1108.90,912.79"/>
<path d="M1107.93,790.72,1212.59,850.71"/>
<path d="M74.46,445.76,48.95,496.18"/>
<path d="M172.78,623.43,178.39,566.87"/>
<path d="M345.87,987.61,259.51,994.23"/>
<path d="M345.87,987.61,308.42,1160.62"/>
<path d="M513.06,528.51,507.14,599.95"/>
<path d="M513.06,528.51,416.96,523.45"/>
<path d="M755.86,462.77,656.07,433.31"/>
<path d="M755.86,462.77,738.16,549.30"/>
<path d="M755.86,462.77,847.57,440.15"/>
<path d="M656.07,433.31,665.22,390.19"/>
<path d="M402.81,659.98,323.26,700.03"/>
<path d="M151.78,836.07,108.86,831.34"/>
<path d="M600.41,351.95,569.50,312.85"/>
<path d="M600.41,351.95,629.23,352.96"/>
<path d="M887.00,752.15,840.49,585.93"/>
<path d="M1005.29,264.29,956.24,326.36"/>
<path d="M1117.46,1138.56,1160.86,1013.98"/>
<path d="M387.09,504.35,416.96,523.45"/>
<path d="M1266.38,1141.60,1232.83,1123.98"/>
<path d="M861.25,95.49,875.35,163.86"/>
<path d="M259.51,994.23,308.42,1160.62"/>
<path d="M259.51,994.23,208.86,1137.43"/>
<path d="M454.39,1254.38,655.53,1287.74"/>
<path d="M454.39,1254.38,418.04,1176.63"/>
<path d="M752.58,227.32,629.23,352.96"/>
<path d="M875.35,163.86,1011.16,143.74"/>
<path d="M1007.84,462.69,1019.81,496.87"/>
<path d="M794.43,891.66,742.89,959.24"/>
<path d="M323.26,700.03,339.58,765.14"/>
<path d="M48.95,496.18,80.95,597.66"/>
<path d="M569.50,312.85,536.42,272.13"/>
<path d="M629.23,352.96,665.22,390.19"/>
<path d="M847.57,440.15,914.92,392.01"/>
<path d="M847.57,440.15,835.59,311.48"/>
<path d="M507.14,599.95,416.96,523.45"/>
<path d="M705.23,1045.87,795.54,1138.22"/>
<path d="M705.23,1045.87,742.89,959.24"/>
<path d="M322.25,73.41,324.86,126.77"/>
<path d="M322.25,73.41,227.31,53.45"/>
<path d="M536.42,272.13,503.52,208.80"/>
<path d="M1108.90,912.79,1160.86,1013.98"/>
<path d="M1108.90,912.79,1212.59,850.71"/>
<path d="M131.91,1198.97,115.19,1077.48"/>
<path d="M131.91,1198.97,48.36,1172.59"/>
<path d="M131.91,1198.97,208.86,1137.43"/>
<path d="M665.22,390.19,835.59,311.48"/>
<path d="M956.24,326.36,914.92,392.01"/>
<path d="M956.24,326.36,835.59,311.48"/>
<path d="M795.54,1138.22,894.42,1205.87"/>
<path d="M90.41,876.10,108.86,831.34"/>
<path d="M968.27,516.61,1019.81,496.87"/>
<path d="M115.19,1077.48,48.36,1172.59"/>
<path d="M115.19,1077.48,208.86,1137.43"/>
<path d="M914.92,392.01,835.59,311.48"/>
<path d="M1040.84,119.94,1011.16,143.74"/>
<path d="M277.01,1200.62,308.42,1160.62"/>
<path d="M1160.86,1013.98,1256.51,1014.01"/>
<path d="M894.42,1205.87,920.47,1282.59"/>
<circle cx="839.09" cy="55.00" r="10"/>
<text x="839.09" y="60.00">R0</text>
<circle cx="922.56" cy="548.84" r="10"/>
<text x="922.56" y="553.84">R1</text>
<circle cx="47.93" cy="334.67" r="10"/>
<text x="47.93" y="339.67">R2</text>
<circle cx="565.87" cy="436.37" r="10"/>
<text x="565.87" y="441.37">R3</text>
<circle cx="904.35" cy="1084.50" r="10"/>
<text x="904.35" y="1089.50">R4</text>
<circle cx="259.08" cy="846.26" r="10"/>
<text x="259.08" y="851.26">R5</text>
<circle cx="497.92" cy="803.62" r="10"/>
<text x="497.92" y="808.62">R6</text>
<circle cx="974.19" cy="1290.84" r="10"/>
<text x="974.19" y="1295.84">R7</text>
<circle cx="468.21" cy="629.40" r="10"/>
<text x="468.21" y="634.40">R8</text>
<circle cx="479.05" cy="394.73" r="10"/>
<text x="479.05" y="399.73">R9</text>
<circle cx="565.43" cy="240.05" r="10"/>
<text x="565.43" y="245.05">R10</text>
<circle cx="310.69" cy="840.29" r="10"/>
<text x="310.69" y="845.29">R11</text>
<circle cx="1266.40" cy="227.31" r="10"/>
<text x="1266.40" y="232.31">R12</text>
<circle cx="206.92" cy="572.81" r="10"/>
<text x="206.92" y="577.81">R13</text>
<circle cx="660.33" cy="482.01" r="10"/>
<text x="660.33" y="487.01">R14</text>
<circle cx="247.24" cy="1174.39" r="10"/>
<text x="247.24" y="1179.39">R15</text>
<circle cx="750.06" cy="1285.55" r="10"/>
<text x="750.06" y="1290.55">R16</text>
<circle cx="463.19" cy="792.08" r="10"/>
<text x="463.19" y="797.08">R17</text>
<circle cx="34.51" cy="976.33" r="10"/>
<text x="34.51" y="981.33">R18</text>
<circle cx="1008.74" cy="1153.91" r="10"/>
<text x="1008.74" y="1158.91">R19</text>
<circle cx="1036.31" cy="328.12" r="10"/>
<text x="1036.31" y="333.12">R20</text>
<circle cx="823.80" cy="105.26" r="10"/>
<text x="823.80" y="110.26">R21</text>
<circle cx="386.28" cy="24.61" r="10"/>
<text x="386.28" y="29.61">R22</text>
<circle cx="1194.10" cy="107.60" r="10"/>
<text x="1194.10" y="112.60">R23</text>
<circle cx="627.05" cy="431.99" r="10"/>
<text x="627.05" y="436.99">R24</text>
<circle cx="1022.38" cy="195.06" r="10"/>
<text x="1022.38" y="200.06">R25</text>
<circle cx="1150.71" cy="171.37" r="10"/>
<text x="1150.71" y="176.37">R26</text>
<circle cx="159.94" cy="650.61" r="10"/>
<text x="159.94" y="655.61">R27</text>
<circle cx="447.57" cy="1109.04" r="10"/>
<text x="447.57" y="1114.04">R28</text>
<circle cx="783.72" cy="257.56" r="10"/>
<text x="783.72" y="262.56">R29</text>
<circle cx="178.87" cy="982.80" r="10"/>
<text x="178.87" y="987.80">R30</text>
<circle cx="1000.36" cy="940.89" r="10"/>
<text x="1000.36" y="945.89">R31</text>
<circle cx="475.70" cy="990.68" r="10"/>
<text x="475.70" y="995.68">R32</text>
<circle cx="913.97" cy="764.90" r="10"/>
<text x="913.97" y="769.90">R33</text>
<circle cx="1291.65" cy="1311.53" r="10"/>
<text x="1291.65" y="1316.53">R34</text>
<circle cx="348.22" cy="1284.45" r="10"/>
<text x="348.22" y="1289.45">R35</text>
<circle cx="1045.81" cy="1057.81" r="10"/>
<text x="1045.81" y="1062.81">R36</text>
<circle cx="168.39" cy="481.96" r="10"/>
<text x="168.39" y="486.96">R37</text>
<circle cx="1296.28" cy="70.61" r="10"/>
<text x="1296.28" y="75.61">R38</text>
<circle cx="1230.68" cy="1302.25" r="10"/>
<text x="1230.68" y="1307.25">R39</text>
<circle cx="500.14" cy="980.04" r="10"/>
<text x="500.14" y="985.04">R40</text>
<circle cx="568.64" cy="865.18" r="10"/>
<text x="568.64" y="870.18">R41</text>
<circle cx="710.84" cy="844.09" r="10"/>
<text x="710.84" y="849.09">R42</text>
<circle cx="752.29" cy="591.16" r="10"/>
<text x="752.29" y="596.16">R43</text>
<circle cx="365.24" cy="1203.36" r="10"/>
<text x="365.24" y="1208.36">R44</text>
<circle cx="641.63" cy="983.09" r="10"/>
<text x="641.63" y="988.09">R45</text>
<circle cx="953.02" cy="604.36" r="10"/>
<text x="953.02" y="609.36">R46</text>
<circle cx="808.98" cy="129.02" r="10"/>
<text x="808.98" y="134.02">R47</text>
<circle cx="174.76" cy="342.25" r="10"/>
<text x="174.76" y="347.25">R48</text>
<circle cx="344.89" cy="564.36" r="10"/>
<text x="344.89" y="569.36">R49</text>
<circle cx="33.41" cy="1050.49" r="10"/>
<text x="33.41" y="1055.49">R50</text>
<circle cx="14.96" cy="269.87" r="10"/>
<text x="14.96" y="274.87">R51</text>
<circle cx="1001.34" cy="768.23" r="10"/>
<text x="1001.34" y="773.23">R52</text>
<circle cx="1268.81" cy="1292.49" r="10"/>
<text x="1268.81" y="1297.49">R53</text>
<circle cx="803.65" cy="527.42" r="10"/>
<text x="803.65" y="532.42">R54</text>
<circle cx="1320.32" cy="606.01" r="10"/>
<text x="1320.32" y="611.01">R55</text>
<circle cx="1118.64" cy="76.09" r="10"/>
<text x="1118.64" y="81.09">R56</text>
<circle cx="770.99" cy="609.58" r="10"/>
<text x="770.99" y="614.58">R57</text>
<circle cx="851.35" cy="905.42" r="10"/>
<text x="851.35" y="910.42">R58</text>
<circle cx="1023.08" cy="1235.82" r="10"/>
<text x="1023.08" y="1240.82">R59</text>
<circle cx="342.09" cy="429.47" r="10"/>
<text x="342.09" y="434.47">R60</text>
<circle cx="927.93" cy="256.41" r="10"/>
<text x="927.93" y="261.41">R61</text>
<circle cx="890.73" cy="208.79" r="10"/>
<text x="890.73" y="213.79">R62</text>
<circle cx="1063.28" cy="223.17" r="10"/>
<text x="1063.28" y="228.17">R63</text>
<circle cx="117.58" cy="1253.66" r="10"/>
<text x="117.58" y="1258.66">R64</text>
<circle cx="457.42" cy="76.70" r="10"/>
<text x="457.42" y="81.70">R65</text>
<circle cx="1212.43" cy="262.57" r="10"/>
<text x="1212.43" y="267.57">R66</text>
<circle cx="360.40" cy="623.37" r="10"/>
<text x="360.40" y="628.37">R67</text>
<circle cx="657.71" cy="648.08" r="10"/>
<text x="657.71" y="653.08">R68</text>
<circle cx="1226.00" cy="633.48" r="10"/>
<text x="1226.00" y="638.48">R69</text>
<circle cx="951.58" cy="477.89" r="10"/>
<text x="951.58" y="482.89">R70</text>
<circle cx="606.62" cy="207.48" r="10"/>
<text x="606.62" y="212.48">R71</text>
<circle cx="512.35" cy="781.88" r="10"/>
<text x="512.35" y="786.88">R72</text>
<circle cx="1243.80" cy="165.56" r="10"/>
<text x="1243.80" y="170.56">R73</text>
<circle cx="1198.05" cy="941.25" r="10"/>
<text x="1198.05" y="946.25">R74</text>
<circle cx="1193.86" cy="1253.57" r="10"/>
<text x="1193.86" y="1258.57">R75</text>
<circle cx="889.19" cy="783.62" r="10"/>
<text x="889.19" y="788.62">R76</text>
<circle cx="272.94" cy="947.86" r="10"/>
<text x="272.94" y="952.86">R77</text>
<circle cx="749.79" cy="44.68" r="10"/>
<text x="749.79" y="49.68">R78</text>
<circle cx="1315.00" cy="1268.75" r="10"/>
<text x="1315.00" y="1273.75">R79</text>
<circle cx="1210.58" cy="1107.70" r="10"/>
<text x="1210.58" y="1112.70">R80</text>
<circle cx="1073.19" cy="253.70" r="10"/>
<text x="1073.19" y="258.70">R81</text>
<circle cx="770.48" cy="766.94" r="10"/>
<text x="770.48" y="771.94">R82</text>
<circle cx="503.40" cy="673.87" r="10"/>
<text x="503.40" y="678.87">R83</text>
<circle cx="1123.88" cy="740.18" r="10"/>
<text x="1123.88" y="745.18">R84</text>
<circle cx="1070.36" cy="518.53" r="10"/>
<text x="1070.36" y="523.53">R85</text>
<circle cx="223.81" cy="849.85" r="10"/>
<text x="223.81" y="854.85">R86</text>
<circle cx="708.48" cy="122.07" r="10"/>
<text x="708.48" y="127.07">R87</text>
<circle cx="275.12" cy="731.82" r="10"/>
<text x="275.12" y="736.82">R88</text>
<circle cx="1223.35" cy="470.14" r="10"/>
<text x="1223.35" y="475.14">R89</text>
<circle cx="1012.39" cy="605.42" r="10"/>
<text x="1012.39" y="610.42">R90</text>
<circle cx="1321.71" cy="833.19" r="10"/>
<text x="1321.71" y="838.19">R91</text>
<circle cx="1192.32" cy="494.38" r="10"/>
<text x="1192.32" y="499.38">R92</text>
<circle cx="1275.51" cy="135.99" r="10"/>
<text x="1275.51" y="140.99">R93</text>
<circle cx="615.46" cy="378.22" r="10"/>
<text x="615.46" y="383.22">R94</text>
<circle cx="1296.24" cy="227.96" r="10"/>
<text x="1296.24" y="232.96">R95</text>
<circle cx="1260.22" cy="962.73" r="10"/>
<text x="1260.22" y="967.73">R96</text>
<circle cx="395.43" cy="105.80" r="10"/>
<text x="395.43" y="110.80">R97</text>
<circle cx="124.57" cy="578.20" r="10"/>
<text x="124.57" y="583.20">R98</text>
<circle cx="1107.93" cy="790.72" r="10"/>
<text x="1107.93" y="795.72">R99</text>
<circle cx="74.46" cy="445.76" r="10"/>
<text x="74.46" y="450.76">R100</text>
<circle cx="172.78" cy="623.43" r="10"/>
<text x="172.78" y="628.43">R101</text>
<circle cx="345.87" cy="987.61" r="10"/>
<text x="345.87" y="992.61">R102</text>
<circle cx="513.06" cy="528.51" r="10"/>
<text x="513.06" y="533.51">R103</text>
<circle cx="755.86" cy="462.77" r="10"/>
<text x="755.86" y="467.77">R104</text>
<circle cx="656.07" cy="433.31" r="10"/>
<text x="656.07" y="438.31">R105</text>
<circle cx="402.81" cy="659.98" r="10"/>
<text x="402.81" y="664.98">R106</text>
<circle cx="151.78" cy="836.07" r="10"/>
<text x="151.78" y="841.07">R107</text>
<circle cx="600.41" cy="351.95" r="10"/>
<text x="600.41" y="356.95">R108</text>
<circle cx="887.00" cy="752.15" r="10"/>
<text x="887.00" y="757.15">R109</text>
<circle cx="1005.29" cy="264.29" r="10"/>
<text x="1005.29" y="269.29">R110</text>
<circle cx="1117.46" cy="1138.56" r="10"/>
<text x="1117.46" y="1143.56">R111</text>
<circle cx="387.09" cy="504.35" r="10"/>
<text x="387.09" y="509.35">R112</text>
<circle cx="1266.38" cy="1141.60" r="10"/>
<text x="1266.38" y="1146.60">R113</text>
<circle cx="861.25" cy="95.49" r="10"/>
<text x="861.25" y="100.49">R114</text>
<circle cx="259.51" cy="994.23" r="10"/>
<text x="259.51" y="999.23">R115</text>
<circle cx="454.39" cy="1254.38" r="10"/>
<text x="454.39" y="1259.38">R116</text>
<circle cx="1266.80" cy="1321.06" r="10"/>
<text x="1266.80" y="1326.06">R117</text>
<circle cx="752.58" cy="227.32" r="10"/>
<text x="752.58" y="232.32">R118</text>
<circle cx="875.35" cy="163.86" r="10"/>
<text x="875.35" y="168.86">R119</text>
<circle cx="1007.84" cy="462.69" r="10"/>
<text x="1007.84" y="467.69">R120</text>
<circle cx="794.43" cy="891.66" r="10"/>
<text x="794.43" y="896.66">R121</text>
<circle cx="655.53" cy="1287.74" r="10"/>
<text x="655.53" y="1292.74">R122</text>
<circle cx="1310.30" cy="357.83" r="10"/>
<text x="1310.30" y="362.83">R123</text>
<circle cx="323.26" cy="700.03" r="10"/>
<text x="323.26" y="705.03">R124</text>
<circle cx="48.95" cy="496.18" r="10"/>
<text x="48.95" y="501.18">R125</text>
<circle cx="738.16" cy="549.30" r="10"/>
<text x="738.16" y="554.30">R126</text>
<circle cx="1136.65" cy="222.35" r="10"/>
<text x="1136.65" y="227.35">R127</text>
<circle cx="569.50" cy="312.85" r="10"/>
<text x="569.50" y="317.85">R128</text>
<circle cx="1320.14" cy="24.82" r="10"/>
<text x="1320.14" y="29.82">R129</text>
<circle cx="629.23" cy="352.96" r="10"/>
<text x="629.23" y="357.96">R130</text>
<circle cx="847.57" cy="440.15" r="10"/>
<text x="847.57" y="445.15">R131</text>
<circle cx="507.14" cy="599.95" r="10"/>
<text x="507.14" y="604.95">R132</text>
<circle cx="705.23" cy="1045.87" r="10"/>
<text x="705.23" y="1050.87">R133</text>
<circle cx="322.25" cy="73.41" r="10"/>
<text x="322.25" y="78.41">R134</text>
<circle cx="840.49" cy="585.93" r="10"/>
<text x="840.49" y="590.93">R135</text>
<circle cx="536.42" cy="272.13" r="10"/>
<text x="536.42" y="277.13">R136</text>
<circle cx="1108.90" cy="912.79" r="10"/>
<text x="1108.90" y="917.79">R137</text>
<circle cx="131.91" cy="1198.97" r="10"/>
<text x="131.91" y="1203.97">R138</text>
<circle cx="665.22" cy="390.19" r="10"/>
<text x="665.22" y="395.19">R139</text>
<circle cx="178.39" cy="566.87" r="10"/>
<text x="178.39" y="571.87">R140</text>
<circle cx="80.95" cy="597.66" r="10"/>
<text x="80.95" y="602.66">R141</text>
<circle cx="970.29" cy="849.65" r="10"/>
<text x="970.29" y="854.65">R142</text>
<circle cx="956.24" cy="326.36" r="10"/>
<text x="956.24" y="331.36">R143</text>
<circle cx="795.54" cy="1138.22" r="10"/>
<text x="795.54" y="1143.22">R144</text>
<circle cx="90.41" cy="876.10" r="10"/>
<text x="90.41" y="881.10">R145</text>
<circle cx="968.27" cy="516.61" r="10"/>
<text x="968.27" y="521.61">R146</text>
<circle cx="339.58" cy="765.14" r="10"/>
<text x="339.58" y="770.14">R147</text>
<circle cx="487.90" cy="18.24" r="10"/>
<text x="487.90" y="23.24">R148</text>
<circle cx="115.19" cy="1077.48" r="10"/>
<text x="115.19" y="1082.48">R149</text>
<circle cx="416.96" cy="523.45" r="10"/>
<text x="416.96" y="528.45">R150</text>
<circle cx="48.36" cy="1172.59" r="10"/>
<text x="48.36" y="1177.59">R151</text>
<circle cx="914.92" cy="392.01" r="10"/>
<text x="914.92" y="397.01">R152</text>
<circle cx="324.86" cy="126.77" r="10"/>
<text x="324.86" y="131.77">R153</text>
<circle cx="1040.84" cy="119.94" r="10"/>
<text x="1040.84" y="124.94">R154</text>
<circle cx="277.01" cy="1200.62" r="10"/>
<text x="277.01" y="1205.62">R155</text>
<circle cx="558.60" cy="955.36" r="10"/>
<text x="558.60" y="960.36">R156</text>
<circle cx="1160.86" cy="1013.98" r="10"/>
<text x="1160.86" y="1018.98">R157</text>
<circle cx="308.42" cy="1160.62" r="10"/>
<text x="308.42" y="1165.62">R158</text>
<circle cx="1019.81" cy="496.87" r="10"/>
<text x="1019.81" y="501.87">R159</text>
<circle cx="894.42" cy="1205.87" r="10"/>
<text x="894.42" y="1210.87">R160</text>
<circle cx="503.52" cy="208.80" r="10"/>
<text x="503.52" y="213.80">R161</text>
<circle cx="1232.83" cy="1123.98" r="10"/>
<text x="1232.83" y="1128.98">R162</text>
<circle cx="742.89" cy="959.24" r="10"/>
<text x="742.89" y="964.24">R163</text>
<circle cx="1212.59" cy="850.71" r="10"/>
<text x="1212.59" y="855.71">R164</text>
<circle cx="835.59" cy="311.48" r="10"/>
<text x="835.59" y="316.48">R165</text>
<circle cx="108.86" cy="831.34" r="10"/>
<text x="108.86" y="836.34">R166</text>
<circle cx="227.31" cy="53.45" r="10"/>
<text x="227.31" y="58.45">R167</text>
<circle cx="920.47" cy="1282.59" r="10"/>
<text x="920.47" y="1287.59">R168</text>
<circle cx="418.04" cy="1176.63" r="10"/>
<text x="418.04" y="1181.63">R169</text>
<circle cx="214.67" cy="906.90" r="10"/>
<text x="214.67" y="911.90">R170</text>
<circle cx="208.86" cy="1137.43" r="10"/>
<text x="208.86" y="1142.43">R171</text>
<circle cx="1011.16" cy="143.74" r="10"/>
<text x="1011.16" y="148.74">R172</text>
<circle cx="1160.11" cy="86.36" r="10"/>
<text x="1160.11" y="91.36">R173</text>
<circle cx="1256.51" cy="1014.01" r="10"/>
<text x="1256.51" y="1019.01">R174</text>
</svg>
