<svg id="topo" width="1401.80" height="1407.28" viewBox="-35.37 -39.62 1401.80 1407.28" xmlns="http://www.w3.org/2000/svg">
<style>#topo path {fill: none; stroke: grey; stroke-width: 6;} #topo circle {fill: lightblue; stroke: none;} #topo text {fill: black; stroke: none; font-size: 16; font-family: sans-serif; text-anchor:middle;}</style>
<path d="M323.15,415.99,292.10,362.38"/>
<path d="M323.15,415.99,351.39,410.66"/>
<path d="M323.15,415.99,287.46,456.40"/>
<path d="M978.73,1022.62,858.26,1007.42"/>
<path d="M978.73,1022.62,920.55,948.92"/>
<path d="M978.73,1022.62,963.83,1084.76"/>
<path d="M978.73,1022.62,1074.75,1044.06"/>
<path d="M965.64,667.40,1010.32,655.33"/>
<path d="M965.64,667.40,947.36,802.26"/>
<path d="M965.64,667.40,782.56,487.45"/>
<path d="M965.64,667.40,1031.84,781.58"/>
<path d="M998.30,280.16,976.66,95.19"/>
<path d="M998.30,280.16,1110.08,255.15"/>
<path d="M998.30,280.16,1025.64,346.11"/>
<path d="M998.30,280.16,888.54,175.93"/>
<path d="M998.30,280.16,868.54,278.74"/>
<path d="M1021.49,548.73,957.92,465.70"/>
<path d="M1021.49,548.73,1020.55,606.27"/>
<path d="M1021.49,548.73,1035.42,430.42"/>
<path d="M1021.49,548.73,1114.52,572.57"/>
<path d="M1237.39,85.78,1213.23,73.35"/>
<path d="M1237.39,85.78,1226.33,131.53"/>
<path d="M1237.39,85.78,1311.19,151.99"/>
<path d="M576.11,868.64,565.06,953.17"/>
<path d="M576.11,868.64,531.97,873.16"/>
<path d="M576.11,868.64,626.80,949.20"/>
<path d="M576.11,868.64,659.83,855.67"/>
<path d="M576.11,868.64,569.42,824.47"/>
<path d="M847.36,330.58,957.92,465.70"/>
<path d="M847.36,330.58,764.44,328.97"/>
<path d="M847.36,330.58,868.54,278.74"/>
<path d="M847.36,330.58,790.84,456.22"/>
<path d="M342.37,862.62,327.14,785.21"/>
<path d="M342.37,862.62,221.09,854.99"/>
<path d="M342.37,862.62,376.74,863.68"/>
<path d="M342.37,862.62,341.74,1017.87"/>
<path d="M744.87,1184.01,830.68,1082.60"/>
<path d="M744.87,1184.01,646.81,1124.79"/>
<path d="M744.87,1184.01,741.60,1265.58"/>
<path d="M744.87,1184.01,723.83,1025.14"/>
<path d="M488.38,197.54,524.38,236.52"/>
<path d="M488.38,197.54,558.58,188.63"/>
<path d="M488.38,197.54,452.06,176.67"/>
<path d="M488.38,197.54,405.03,333.27"/>
<path d="M1283.66,208.94,1188.07,200.69"/>
<path d="M1283.66,208.94,1236.75,276.69"/>
<path d="M1283.66,208.94,1226.33,131.53"/>
<path d="M1283.66,208.94,1311.19,151.99"/>
<path d="M429.36,1042.35,391.48,1011.49"/>
<path d="M429.36,1042.35,500.70,1026.47"/>
<path d="M429.36,1042.35,414.39,1081.74"/>
<path d="M368.22,1215.29,407.48,1228.73"/>
<path d="M368.22,1215.29,327.45,1171.27"/>
<path d="M858.26,1007.42,830.68,1082.60"/>
<path d="M858.26,1007.42,920.55,948.92"/>
<path d="M858.26,1007.42,963.83,1084.76"/>
<path d="M858.26,1007.42,765.07,907.06"/>
<path d="M858.26,1007.42,723.83,1025.14"/>
<path d="M309.25,1145.67,250.91,1116.20"/>
<path d="M309.25,1145.67,308.53,1110.13"/>
<path d="M309.25,1145.67,327.45,1171.27"/>
<path d="M1043.90,1248.83,1129.31,1234.24"/>
<path d="M1043.90,1248.83,950.76,1206.06"/>
<path d="M1043.90,1248.83,1075.34,1184.60"/>
<path d="M1043.90,1248.83,1092.79,1296.42"/>
<path d="M653.33,656.77,587.07,688.46"/>
<path d="M653.33,656.77,682.06,579.52"/>
<path d="M653.33,656.77,947.36,802.26"/>
<path d="M524.38,236.52,607.84,306.19"/>
<path d="M524.38,236.52,558.58,188.63"/>
<path d="M524.38,236.52,405.03,333.27"/>
<path d="M198.53,1072.64,203.61,1109.13"/>
<path d="M198.53,1072.64,110.43,1078.37"/>
<path d="M198.53,1072.64,146.97,1008.51"/>
<path d="M477.05,702.11,374.40,690.27"/>
<path d="M477.05,702.11,527.44,658.21"/>
<path d="M477.05,702.11,376.74,863.68"/>
<path d="M477.05,702.11,569.42,824.47"/>
<path d="M477.05,702.11,456.75,604.62"/>
<path d="M405.07,359.43,559.25,417.04"/>
<path d="M405.07,359.43,351.39,410.66"/>
<path d="M405.07,359.43,405.03,333.27"/>
<path d="M1188.07,200.69,1236.75,276.69"/>
<path d="M1188.07,200.69,1110.08,255.15"/>
<path d="M1188.07,200.69,1226.33,131.53"/>
<path d="M1188.07,200.69,1163.01,123.01"/>
<path d="M1110.51,625.61,1201.73,634.95"/>
<path d="M1110.51,625.61,1020.55,606.27"/>
<path d="M1110.51,625.61,1010.32,655.33"/>
<path d="M1110.51,625.61,1114.52,572.57"/>
<path d="M1110.51,625.61,1120.07,752.42"/>
<path d="M1301.07,1014.76,1262.60,941.37"/>
<path d="M1301.07,1014.76,1209.82,1086.63"/>
<path d="M1301.07,1014.76,1321.43,945.13"/>
<path d="M83.90,493.14,184.67,509.19"/>
<path d="M83.90,493.14,89.05,593.27"/>
<path d="M83.90,493.14,128.49,447.14"/>
<path d="M83.90,493.14,13.93,449.19"/>
<path d="M83.90,493.14,66.90,410.36"/>
<path d="M607.84,306.19,678.61,262.76"/>
<path d="M607.84,306.19,636.07,333.39"/>
<path d="M193.27,99.43,141.78,33.65"/>
<path d="M193.27,99.43,235.55,85.41"/>
<path d="M193.27,99.43,149.36,105.22"/>
<path d="M193.27,99.43,241.52,146.69"/>
<path d="M193.27,99.43,159.40,143.15"/>
<path d="M558.58,188.63,659.44,223.82"/>
<path d="M558.58,188.63,566.98,119.93"/>
<path d="M598.88,1115.57,646.89,1083.80"/>
<path d="M598.88,1115.57,646.81,1124.79"/>
<path d="M598.88,1115.57,573.09,1082.52"/>
<path d="M598.88,1115.57,532.73,1192.31"/>
<path d="M1201.73,634.95,1222.99,529.81"/>
<path d="M1201.73,634.95,1287.83,663.05"/>
<path d="M1201.73,634.95,1211.97,743.37"/>
<path d="M1201.73,634.95,1290.10,545.85"/>
<path d="M1201.73,634.95,1166.75,532.40"/>
<path d="M71.56,1276.26,203.61,1109.13"/>
<path d="M71.56,1276.26,23.58,1159.68"/>
<path d="M438.24,1253.25,407.48,1228.73"/>
<path d="M438.24,1253.25,464.71,1197.40"/>
<path d="M768.60,5.38,687.52,42.03"/>
<path d="M768.60,5.38,776.55,29.65"/>
<path d="M203.61,1109.13,250.91,1116.20"/>
<path d="M250.91,1116.20,308.53,1110.13"/>
<path d="M1236.75,276.69,1115.69,315.14"/>
<path d="M1236.75,276.69,1110.08,255.15"/>
<path d="M1236.75,276.69,1251.17,334.95"/>
<path d="M687.52,42.03,672.88,129.35"/>
<path d="M687.52,42.03,776.55,29.65"/>
<path d="M327.14,785.21,320.06,682.26"/>
<path d="M327.14,785.21,374.40,690.27"/>
<path d="M327.14,785.21,221.55,792.84"/>
<path d="M659.44,223.82,672.88,129.35"/>
<path d="M659.44,223.82,716.13,208.81"/>
<path d="M659.44,223.82,678.61,262.76"/>
<path d="M1262.60,941.37,1207.31,892.60"/>
<path d="M1262.60,941.37,1321.43,945.13"/>
<path d="M1262.60,941.37,1268.36,869.44"/>
<path d="M452.06,176.67,424.51,109.14"/>
<path d="M452.06,176.67,329.10,270.20"/>
<path d="M452.06,176.67,405.03,333.27"/>
<path d="M565.06,953.17,531.97,873.16"/>
<path d="M565.06,953.17,626.80,949.20"/>
<path d="M565.06,953.17,500.70,1026.47"/>
<path d="M565.06,953.17,566.28,1055.26"/>
<path d="M976.66,95.19,1110.08,255.15"/>
<path d="M976.66,95.19,975.56,43.11"/>
<path d="M976.66,95.19,1163.01,123.01"/>
<path d="M976.66,95.19,888.54,175.93"/>
<path d="M957.92,465.70,1035.42,430.42"/>
<path d="M957.92,465.70,790.84,456.22"/>
<path d="M184.67,509.19,89.05,593.27"/>
<path d="M184.67,509.19,284.31,631.10"/>
<path d="M184.67,509.19,128.49,447.14"/>
<path d="M184.67,509.19,287.46,456.40"/>
<path d="M824.07,146.73,776.55,29.65"/>
<path d="M824.07,146.73,829.38,204.63"/>
<path d="M824.07,146.73,888.54,175.93"/>
<path d="M824.07,146.73,774.28,162.60"/>
<path d="M89.05,593.27,163.60,702.73"/>
<path d="M830.68,1082.60,963.83,1084.76"/>
<path d="M830.68,1082.60,950.76,1206.06"/>
<path d="M830.68,1082.60,723.83,1025.14"/>
<path d="M1115.69,315.14,1110.08,255.15"/>
<path d="M1115.69,315.14,1118.35,349.33"/>
<path d="M1115.69,315.14,1025.64,346.11"/>
<path d="M1204.63,854.66,1058.06,817.61"/>
<path d="M1204.63,854.66,1207.31,892.60"/>
<path d="M1204.63,854.66,1120.07,752.42"/>
<path d="M1204.63,854.66,1211.97,743.37"/>
<path d="M1204.63,854.66,1268.36,869.44"/>
<path d="M920.55,948.92,897.57,871.00"/>
<path d="M391.48,1011.49,421.56,905.50"/>
<path d="M391.48,1011.49,341.74,1017.87"/>
<path d="M96.63,341.69,92.34,281.97"/>
<path d="M96.63,341.69,23.11,338.56"/>
<path d="M96.63,341.69,172.06,369.34"/>
<path d="M96.63,341.69,66.90,410.36"/>
<path d="M424.51,109.14,235.55,85.41"/>
<path d="M424.51,109.14,241.52,146.69"/>
<path d="M424.51,109.14,566.98,119.93"/>
<path d="M1129.31,1234.24,1154.39,1248.72"/>
<path d="M1129.31,1234.24,1075.34,1184.60"/>
<path d="M1129.31,1234.24,1092.79,1296.42"/>
<path d="M318.72,508.06,284.31,631.10"/>
<path d="M318.72,508.06,287.46,456.40"/>
<path d="M318.72,508.06,456.75,604.62"/>
<path d="M531.97,873.16,465.36,899.06"/>
<path d="M531.97,873.16,569.42,824.47"/>
<path d="M1213.23,73.35,1163.01,123.01"/>
<path d="M565.83,1222.69,741.60,1265.58"/>
<path d="M565.83,1222.69,532.73,1192.31"/>
<path d="M1309.03,1322.66,1279.28,1281.95"/>
<path d="M1058.06,817.61,1074.75,1044.06"/>
<path d="M1058.06,817.61,1120.07,752.42"/>
<path d="M1058.06,817.61,1031.84,781.58"/>
<path d="M350.08,1107.80,308.53,1110.13"/>
<path d="M350.08,1107.80,414.39,1081.74"/>
<path d="M350.08,1107.80,341.74,1017.87"/>
<path d="M135.91,934.46,221.09,854.99"/>
<path d="M135.91,934.46,146.97,1008.51"/>
<path d="M1214.40,1215.33,1154.39,1248.72"/>
<path d="M1214.40,1215.33,1209.82,1086.63"/>
<path d="M1214.40,1215.33,1279.28,1281.95"/>
<path d="M320.06,682.26,284.31,631.10"/>
<path d="M320.06,682.26,374.40,690.27"/>
<path d="M284.31,631.10,163.60,702.73"/>
<path d="M587.07,688.46,527.44,658.21"/>
<path d="M587.07,688.46,569.42,824.47"/>
<path d="M1222.99,529.81,1237.98,407.48"/>
<path d="M1222.99,529.81,1290.10,545.85"/>
<path d="M1222.99,529.81,1166.75,532.40"/>
<path d="M646.89,1083.80,646.81,1124.79"/>
<path d="M646.89,1083.80,626.80,949.20"/>
<path d="M646.89,1083.80,723.83,1025.14"/>
<path d="M92.34,281.97,9.63,265.50"/>
<path d="M92.34,281.97,23.11,338.56"/>
<path d="M92.34,281.97,218.81,233.90"/>
<path d="M92.34,281.97,159.40,143.15"/>
<path d="M163.60,702.73,221.55,792.84"/>
<path d="M668.25,475.05,731.42,359.54"/>
<path d="M668.25,475.05,682.06,579.52"/>
<path d="M668.25,475.05,582.57,467.83"/>
<path d="M668.25,475.05,636.07,333.39"/>
<path d="M668.25,475.05,782.56,487.45"/>
<path d="M308.53,1110.13,341.74,1017.87"/>
<path d="M1020.55,606.27,1010.32,655.33"/>
<path d="M1020.55,606.27,1114.52,572.57"/>
<path d="M559.25,417.04,582.57,467.83"/>
<path d="M559.25,417.04,636.07,333.39"/>
<path d="M672.88,129.35,716.13,208.81"/>
<path d="M672.88,129.35,774.28,162.60"/>
<path d="M672.88,129.35,566.98,119.93"/>
<path d="M731.42,359.54,764.44,328.97"/>
<path d="M731.42,359.54,678.61,262.76"/>
<path d="M731.42,359.54,636.07,333.39"/>
<path d="M731.42,359.54,790.84,456.22"/>
<path d="M374.40,690.27,456.75,604.62"/>
<path d="M163.10,10.55,141.78,33.65"/>
<path d="M1035.42,430.42,1118.35,349.33"/>
<path d="M1035.42,430.42,1025.64,346.11"/>
<path d="M1035.42,430.42,1166.75,532.40"/>
<path d="M23.58,1159.68,73.39,1072.80"/>
<path d="M329.10,270.20,292.10,362.38"/>
<path d="M329.10,270.20,405.03,333.27"/>
<path d="M329.10,270.20,260.94,237.10"/>
<path d="M963.83,1084.76,1013.78,1126.37"/>
<path d="M9.63,265.50,23.11,338.56"/>
<path d="M897.14,1279.45,950.76,1206.06"/>
<path d="M897.14,1279.45,741.60,1265.58"/>
<path d="M716.13,208.81,678.61,262.76"/>
<path d="M716.13,208.81,774.28,162.60"/>
<path d="M465.36,899.06,421.56,905.50"/>
<path d="M465.36,899.06,500.70,1026.47"/>
<path d="M1013.78,1126.37,950.76,1206.06"/>
<path d="M1013.78,1126.37,1074.75,1044.06"/>
<path d="M1013.78,1126.37,1075.34,1184.60"/>
<path d="M1226.33,131.53,1163.01,123.01"/>
<path d="M1226.33,131.53,1311.19,151.99"/>
<path d="M1287.83,663.05,1211.97,743.37"/>
<path d="M1287.83,663.05,1290.10,545.85"/>
<path d="M421.56,905.50,376.74,863.68"/>
<path d="M1207.31,892.60,1074.75,1044.06"/>
<path d="M1207.31,892.60,1268.36,869.44"/>
<path d="M1208.70,383.61,1251.17,334.95"/>
<path d="M1208.70,383.61,1237.98,407.48"/>
<path d="M1208.70,383.61,1118.35,349.33"/>
<path d="M1208.70,383.61,1260.79,378.53"/>
<path d="M776.55,29.65,975.56,43.11"/>
<path d="M776.55,29.65,774.28,162.60"/>
<path d="M141.78,33.65,149.36,105.22"/>
<path d="M221.09,854.99,221.55,792.84"/>
<path d="M292.10,362.38,172.06,369.34"/>
<path d="M128.49,447.14,172.06,369.34"/>
<path d="M128.49,447.14,66.90,410.36"/>
<path d="M626.80,949.20,659.83,855.67"/>
<path d="M626.80,949.20,765.07,907.06"/>
<path d="M626.80,949.20,723.83,1025.14"/>
<path d="M500.70,1026.47,566.28,1055.26"/>
<path d="M235.55,85.41,241.52,146.69"/>
<path d="M1010.32,655.33,1120.07,752.42"/>
<path d="M1010.32,655.33,1031.84,781.58"/>
<path d="M23.11,338.56,66.90,410.36"/>
<path d="M407.48,1228.73,464.71,1197.40"/>
<path d="M218.81,233.90,172.06,369.34"/>
<path d="M218.81,233.90,241.52,146.69"/>
<path d="M218.81,233.90,159.40,143.15"/>
<path d="M218.81,233.90,260.94,237.10"/>
<path d="M1074.75,1044.06,1209.82,1086.63"/>
<path d="M573.09,1082.52,566.28,1055.26"/>
<path d="M1251.17,334.95,1260.79,378.53"/>
<path d="M659.83,855.67,765.07,907.06"/>
<path d="M659.83,855.67,569.42,824.47"/>
<path d="M1314.05,463.08,1237.98,407.48"/>
<path d="M1314.05,463.08,1290.10,545.85"/>
<path d="M1314.05,463.08,1260.79,378.53"/>
<path d="M1237.98,407.48,1260.79,378.53"/>
<path d="M149.36,105.22,159.40,143.15"/>
<path d="M110.43,1078.37,73.39,1072.80"/>
<path d="M110.43,1078.37,146.97,1008.51"/>
<path d="M1118.35,349.33,1025.64,346.11"/>
<path d="M172.06,369.34,287.46,456.40"/>
<path d="M527.44,658.21,582.57,467.83"/>
<path d="M527.44,658.21,456.75,604.62"/>
<path d="M765.07,907.06,723.83,1025.14"/>
<path d="M765.07,907.06,897.57,871.00"/>
<path d="M1114.52,572.57,1166.75,532.40"/>
<path d="M764.44,328.97,678.61,262.76"/>
<path d="M764.44,328.97,829.38,204.63"/>
<path d="M682.06,579.52,782.56,487.45"/>
<path d="M582.57,467.83,456.75,604.62"/>
<path d="M414.39,1081.74,464.71,1197.40"/>
<path d="M1209.82,1086.63,1075.34,1184.60"/>
<path d="M241.52,146.69,159.40,143.15"/>
<path d="M241.52,146.69,260.94,237.10"/>
<path d="M1120.07,752.42,1211.97,743.37"/>
<path d="M1120.07,752.42,1031.84,781.58"/>
<path d="M678.61,262.76,636.07,333.39"/>
<path d="M13.93,449.19,66.90,410.36"/>
<path d="M897.57,871.00,947.36,802.26"/>
<path d="M464.71,1197.40,532.73,1192.31"/>
<path d="M829.38,204.63,888.54,175.93"/>
<path d="M829.38,204.63,774.28,162.60"/>
<path d="M829.38,204.63,868.54,278.74"/>
<path d="M888.54,175.93,868.54,278.74"/>
<path d="M947.36,802.26,1031.84,781.58"/>
<path d="M782.56,487.45,790.84,456.22"/>
<path d="M1321.43,945.13,1268.36,869.44"/>
<circle cx="323.15" cy="415.99" r="10"/>
<text x="323.15" y="420.99">R0</text>
<circle cx="978.73" cy="1022.62" r="10"/>
<text x="978.73" y="1027.62">R1</text>
<circle cx="965.64" cy="667.40" r="10"/>
<text x="965.64" y="672.40">R2</text>
<circle cx="998.30" cy="280.16" r="10"/>
<text x="998.30" y="285.16">R3</text>
<circle cx="1021.49" cy="548.73" r="10"/>
<text x="1021.49" y="553.73">R4</text>
<circle cx="1237.39" cy="85.78" r="10"/>
<text x="1237.39" y="90.78">R5</text>
<circle cx="576.11" cy="868.64" r="10"/>
<text x="576.11" y="873.64">R6</text>
<circle cx="847.36" cy="330.58" r="10"/>
<text x="847.36" y="335.58">R7</text>
<circle cx="342.37" cy="862.62" r="10"/>
<text x="342.37" y="867.62">R8</text>
<circle cx="744.87" cy="1184.01" r="10"/>
<text x="744.87" y="1189.01">R9</text>
<circle cx="488.38" cy="197.54" r="10"/>
<text x="488.38" y="202.54">R10</text>
<circle cx="1283.66" cy="208.94" r="10"/>
<text x="1283.66" y="213.94">R11</text>
<circle cx="429.36" cy="1042.35" r="10"/>
<text x="429.36" y="1047.35">R12</text>
<circle cx="368.22" cy="1215.29" r="10"/>
<text x="368.22" y="1220.29">R13</text>
<circle cx="858.26" cy="1007.42" r="10"/>
<text x="858.26" y="1012.42">R14</text>
<circle cx="309.25" cy="1145.67" r="10"/>
<text x="309.25" y="1150.67">R15</text>
<circle cx="1043.90" cy="1248.83" r="10"/>
<text x="1043.90" y="1253.83">R16</text>
<circle cx="653.33" cy="656.77" r="10"/>
<text x="653.33" y="661.77">R17</text>
<circle cx="524.38" cy="236.52" r="10"/>
<text x="524.38" y="241.52">R18</text>
<circle cx="198.53" cy="1072.64" r="10"/>
<text x="198.53" y="1077.64">R19</text>
<circle cx="477.05" cy="702.11" r="10"/>
<text x="477.05" y="707.11">R20</text>
<circle cx="405.07" cy="359.43" r="10"/>
<text x="405.07" y="364.43">R21</text>
<circle cx="1188.07" cy="200.69" r="10"/>
<text x="1188.07" y="205.69">R22</text>
<circle cx="1110.51" cy="625.61" r="10"/>
<text x="1110.51" y="630.61">R23</text>
<circle cx="1301.07" cy="1014.76" r="10"/>
<text x="1301.07" y="1019.76">R24</text>
<circle cx="83.90" cy="493.14" r="10"/>
<text x="83.90" y="498.14">R25</text>
<circle cx="607.84" cy="306.19" r="10"/>
<text x="607.84" y="311.19">R26</text>
<circle cx="193.27" cy="99.43" r="10"/>
<text x="193.27" y="104.43">R27</text>
<circle cx="558.58" cy="188.63" r="10"/>
<text x="558.58" y="193.63">R28</text>
<circle cx="598.88" cy="1115.57" r="10"/>
<text x="598.88" y="1120.57">R29</text>
<circle cx="1201.73" cy="634.95" r="10"/>
<text x="1201.73" y="639.95">R30</text>
<circle cx="71.56" cy="1276.26" r="10"/>
<text x="71.56" y="1281.26">R31</text>
<circle cx="438.24" cy="1253.25" r="10"/>
<text x="438.24" y="1258.25">R32</text>
<circle cx="768.60" cy="5.38" r="10"/>
<text x="768.60" y="10.38">R33</text>
<circle cx="203.61" cy="1109.13" r="10"/>
<text x="203.61" y="1114.13">R34</text>
<circle cx="250.91" cy="1116.20" r="10"/>
<text x="250.91" y="1121.20">R35</text>
<circle cx="1236.75" cy="276.69" r="10"/>
<text x="1236.75" y="281.69">R36</text>
<circle cx="687.52" cy="42.03" r="10"/>
<text x="687.52" y="47.03">R37</text>
<circle cx="327.14" cy="785.21" r="10"/>
<text x="327.14" y="790.21">R38</text>
<circle cx="659.44" cy="223.82" r="10"/>
<text x="659.44" y="228.82">R39</text>
<circle cx="1262.60" cy="941.37" r="10"/>
<text x="1262.60" y="946.37">R40</text>
<circle cx="452.06" cy="176.67" r="10"/>
<text x="452.06" y="181.67">R41</text>
<circle cx="565.06" cy="953.17" r="10"/>
<text x="565.06" y="958.17">R42</text>
<circle cx="976.66" cy="95.19" r="10"/>
<text x="976.66" y="100.19">R43</text>
<circle cx="957.92" cy="465.70" r="10"/>
<text x="957.92" y="470.70">R44</text>
<circle cx="184.67" cy="509.19" r="10"/>
<text x="184.67" y="514.19">R45</text>
<circle cx="824.07" cy="146.73" r="10"/>
<text x="824.07" y="151.73">R46</text>
<circle cx="89.05" cy="593.27" r="10"/>
<text x="89.05" y="598.27">R47</text>
<circle cx="830.68" cy="1082.60" r="10"/>
<text x="830.68" y="1087.60">R48</text>
<circle cx="1115.69" cy="315.14" r="10"/>
<text x="1115.69" y="320.14">R49</text>
<circle cx="1204.63" cy="854.66" r="10"/>
<text x="1204.63" y="859.66">R50</text>
<circle cx="920.55" cy="948.92" r="10"/>
<text x="920.55" y="953.92">R51</text>
<circle cx="391.48" cy="1011.49" r="10"/>
<text x="391.48" y="1016.49">R52</text>
<circle cx="96.63" cy="341.69" r="10"/>
<text x="96.63" y="346.69">R53</text>
<circle cx="424.51" cy="109.14" r="10"/>
<text x="424.51" y="114.14">R54</text>
<circle cx="1129.31" cy="1234.24" r="10"/>
<text x="1129.31" y="1239.24">R55</text>
<circle cx="318.72" cy="508.06" r="10"/>
<text x="318.72" y="513.06">R56</text>
<circle cx="531.97" cy="873.16" r="10"/>
<text x="531.97" y="878.16">R57</text>
<circle cx="1213.23" cy="73.35" r="10"/>
<text x="1213.23" y="78.35">R58</text>
<circle cx="565.83" cy="1222.69" r="10"/>
<text x="565.83" y="1227.69">R59</text>
<circle cx="1309.03" cy="1322.66" r="10"/>
<text x="1309.03" y="1327.66">R60</text>
<circle cx="1058.06" cy="817.61" r="10"/>
<text x="1058.06" y="822.61">R61</text>
<circle cx="350.08" cy="1107.80" r="10"/>
<text x="350.08" y="1112.80">R62</text>
<circle cx="135.91" cy="934.46" r="10"/>
<text x="135.91" y="939.46">R63</text>
<circle cx="1214.40" cy="1215.33" r="10"/>
<text x="1214.40" y="1220.33">R64</text>
<circle cx="320.06" cy="682.26" r="10"/>
<text x="320.06" y="687.26">R65</text>
<circle cx="284.31" cy="631.10" r="10"/>
<text x="284.31" y="636.10">R66</text>
<circle cx="587.07" cy="688.46" r="10"/>
<text x="587.07" y="693.46">R67</text>
<circle cx="1222.99" cy="529.81" r="10"/>
<text x="1222.99" y="534.81">R68</text>
<circle cx="646.89" cy="1083.80" r="10"/>
<text x="646.89" y="1088.80">R69</text>
<circle cx="92.34" cy="281.97" r="10"/>
<text x="92.34" y="286.97">R70</text>
<circle cx="163.60" cy="702.73" r="10"/>
<text x="163.60" y="707.73">R71</text>
<circle cx="646.81" cy="1124.79" r="10"/>
<text x="646.81" y="1129.79">R72</text>
<circle cx="668.25" cy="475.05" r="10"/>
<text x="668.25" y="480.05">R73</text>
<circle cx="308.53" cy="1110.13" r="10"/>
<text x="308.53" y="1115.13">R74</text>
<circle cx="1020.55" cy="606.27" r="10"/>
<text x="1020.55" y="611.27">R75</text>
<circle cx="559.25" cy="417.04" r="10"/>
<text x="559.25" y="422.04">R76</text>
<circle cx="672.88" cy="129.35" r="10"/>
<text x="672.88" y="134.35">R77</text>
<circle cx="731.42" cy="359.54" r="10"/>
<text x="731.42" y="364.54">R78</text>
<circle cx="374.40" cy="690.27" r="10"/>
<text x="374.40" y="695.27">R79</text>
<circle cx="163.10" cy="10.55" r="10"/>
<text x="163.10" y="15.55">R80</text>
<circle cx="1035.42" cy="430.42" r="10"/>
<text x="1035.42" y="435.42">R81</text>
<circle cx="23.58" cy="1159.68" r="10"/>
<text x="23.58" y="1164.68">R82</text>
<circle cx="329.10" cy="270.20" r="10"/>
<text x="329.10" y="275.20">R83</text>
<circle cx="963.83" cy="1084.76" r="10"/>
<text x="963.83" y="1089.76">R84</text>
<circle cx="9.63" cy="265.50" r="10"/>
<text x="9.63" y="270.50">R85</text>
<circle cx="897.14" cy="1279.45" r="10"/>
<text x="897.14" y="1284.45">R86</text>
<circle cx="1110.08" cy="255.15" r="10"/>
<text x="1110.08" y="260.15">R87</text>
<circle cx="716.13" cy="208.81" r="10"/>
<text x="716.13" y="213.81">R88</text>
<circle cx="465.36" cy="899.06" r="10"/>
<text x="465.36" y="904.06">R89</text>
<circle cx="1013.78" cy="1126.37" r="10"/>
<text x="1013.78" y="1131.37">R90</text>
<circle cx="1226.33" cy="131.53" r="10"/>
<text x="1226.33" y="136.53">R91</text>
<circle cx="1287.83" cy="663.05" r="10"/>
<text x="1287.83" y="668.05">R92</text>
<circle cx="421.56" cy="905.50" r="10"/>
<text x="421.56" y="910.50">R93</text>
<circle cx="1207.31" cy="892.60" r="10"/>
<text x="1207.31" y="897.60">R94</text>
<circle cx="1208.70" cy="383.61" r="10"/>
<text x="1208.70" y="388.61">R95</text>
<circle cx="776.55" cy="29.65" r="10"/>
<text x="776.55" y="34.65">R96</text>
<circle cx="141.78" cy="33.65" r="10"/>
<text x="141.78" y="38.65">R97</text>
<circle cx="221.09" cy="854.99" r="10"/>
<text x="221.09" y="859.99">R98</text>
<circle cx="292.10" cy="362.38" r="10"/>
<text x="292.10" y="367.38">R99</text>
<circle cx="128.49" cy="447.14" r="10"/>
<text x="128.49" y="452.14">R100</text>
<circle cx="950.76" cy="1206.06" r="10"/>
<text x="950.76" y="1211.06">R101</text>
<circle cx="626.80" cy="949.20" r="10"/>
<text x="626.80" y="954.20">R102</text>
<circle cx="500.70" cy="1026.47" r="10"/>
<text x="500.70" y="1031.47">R103</text>
<circle cx="235.55" cy="85.41" r="10"/>
<text x="235.55" y="90.41">R104</text>
<circle cx="1010.32" cy="655.33" r="10"/>
<text x="1010.32" y="660.33">R105</text>
<circle cx="23.11" cy="338.56" r="10"/>
<text x="23.11" y="343.56">R106</text>
<circle cx="407.48" cy="1228.73" r="10"/>
<text x="407.48" y="1233.73">R107</text>
<circle cx="218.81" cy="233.90" r="10"/>
<text x="218.81" y="238.90">R108</text>
<circle cx="1074.75" cy="1044.06" r="10"/>
<text x="1074.75" y="1049.06">R109</text>
<circle cx="1154.39" cy="1248.72" r="10"/>
<text x="1154.39" y="1253.72">R110</text>
<circle cx="573.09" cy="1082.52" r="10"/>
<text x="573.09" y="1087.52">R111</text>
<circle cx="1251.17" cy="334.95" r="10"/>
<text x="1251.17" y="339.95">R112</text>
<circle cx="659.83" cy="855.67" r="10"/>
<text x="659.83" y="860.67">R113</text>
<circle cx="1314.05" cy="463.08" r="10"/>
<text x="1314.05" y="468.08">R114</text>
<circle cx="1237.98" cy="407.48" r="10"/>
<text x="1237.98" y="412.48">R115</text>
<circle cx="351.39" cy="410.66" r="10"/>
<text x="351.39" y="415.66">R116</text>
<circle cx="975.56" cy="43.11" r="10"/>
<text x="975.56" y="48.11">R117</text>
<circle cx="149.36" cy="105.22" r="10"/>
<text x="149.36" y="110.22">R118</text>
<circle cx="110.43" cy="1078.37" r="10"/>
<text x="110.43" y="1083.37">R119</text>
<circle cx="1118.35" cy="349.33" r="10"/>
<text x="1118.35" y="354.33">R120</text>
<circle cx="172.06" cy="369.34" r="10"/>
<text x="172.06" y="374.34">R121</text>
<circle cx="741.60" cy="1265.58" r="10"/>
<text x="741.60" y="1270.58">R122</text>
<circle cx="527.44" cy="658.21" r="10"/>
<text x="527.44" y="663.21">R123</text>
<circle cx="765.07" cy="907.06" r="10"/>
<text x="765.07" y="912.06">R124</text>
<circle cx="405.03" cy="333.27" r="10"/>
<text x="405.03" y="338.27">R125</text>
<circle cx="1114.52" cy="572.57" r="10"/>
<text x="1114.52" y="577.57">R126</text>
<circle cx="764.44" cy="328.97" r="10"/>
<text x="764.44" y="333.97">R127</text>
<circle cx="682.06" cy="579.52" r="10"/>
<text x="682.06" y="584.52">R128</text>
<circle cx="582.57" cy="467.83" r="10"/>
<text x="582.57" y="472.83">R129</text>
<circle cx="414.39" cy="1081.74" r="10"/>
<text x="414.39" y="1086.74">R130</text>
<circle cx="287.46" cy="456.40" r="10"/>
<text x="287.46" y="461.40">R131</text>
<circle cx="1209.82" cy="1086.63" r="10"/>
<text x="1209.82" y="1091.63">R132</text>
<circle cx="241.52" cy="146.69" r="10"/>
<text x="241.52" y="151.69">R133</text>
<circle cx="1120.07" cy="752.42" r="10"/>
<text x="1120.07" y="757.42">R134</text>
<circle cx="678.61" cy="262.76" r="10"/>
<text x="678.61" y="267.76">R135</text>
<circle cx="1163.01" cy="123.01" r="10"/>
<text x="1163.01" y="128.01">R136</text>
<circle cx="723.83" cy="1025.14" r="10"/>
<text x="723.83" y="1030.14">R137</text>
<circle cx="1025.64" cy="346.11" r="10"/>
<text x="1025.64" y="351.11">R138</text>
<circle cx="13.93" cy="449.19" r="10"/>
<text x="13.93" y="454.19">R139</text>
<circle cx="376.74" cy="863.68" r="10"/>
<text x="376.74" y="868.68">R140</text>
<circle cx="897.57" cy="871.00" r="10"/>
<text x="897.57" y="876.00">R141</text>
<circle cx="464.71" cy="1197.40" r="10"/>
<text x="464.71" y="1202.40">R142</text>
<circle cx="636.07" cy="333.39" r="10"/>
<text x="636.07" y="338.39">R143</text>
<circle cx="1211.97" cy="743.37" r="10"/>
<text x="1211.97" y="748.37">R144</text>
<circle cx="566.28" cy="1055.26" r="10"/>
<text x="566.28" y="1060.26">R145</text>
<circle cx="66.90" cy="410.36" r="10"/>
<text x="66.90" y="415.36">R146</text>
<circle cx="73.39" cy="1072.80" r="10"/>
<text x="73.39" y="1077.80">R147</text>
<circle cx="829.38" cy="204.63" r="10"/>
<text x="829.38" y="209.63">R148</text>
<circle cx="341.74" cy="1017.87" r="10"/>
<text x="341.74" y="1022.87">R149</text>
<circle cx="1075.34" cy="1184.60" r="10"/>
<text x="1075.34" y="1189.60">R150</text>
<circle cx="1290.10" cy="545.85" r="10"/>
<text x="1290.10" y="550.85">R151</text>
<circle cx="1092.79" cy="1296.42" r="10"/>
<text x="1092.79" y="1301.42">R152</text>
<circle cx="1279.28" cy="1281.95" r="10"/>
<text x="1279.28" y="1286.95">R153</text>
<circle cx="159.40" cy="143.15" r="10"/>
<text x="159.40" y="148.15">R154</text>
<circle cx="146.97" cy="1008.51" r="10"/>
<text x="146.97" y="1013.51">R155</text>
<circle cx="1166.75" cy="532.40" r="10"/>
<text x="1166.75" y="537.40">R156</text>
<circle cx="569.42" cy="824.47" r="10"/>
<text x="569.42" y="829.47">R157</text>
<circle cx="1311.19" cy="151.99" r="10"/>
<text x="1311.19" y="156.99">R158</text>
<circle cx="888.54" cy="175.93" r="10"/>
<text x="888.54" y="180.93">R159</text>
<circle cx="947.36" cy="802.26" r="10"/>
<text x="947.36" y="807.26">R160</text>
<circle cx="532.73" cy="1192.31" r="10"/>
<text x="532.73" y="1197.31">R161</text>
<circle cx="782.56" cy="487.45" r="10"/>
<text x="782.56" y="492.45">R162</text>
<circle cx="327.45" cy="1171.27" r="10"/>
<text x="327.45" y="1176.27">R163</text>
<circle cx="774.28" cy="162.60" r="10"/>
<text x="774.28" y="167.60">R164</text>
<circle cx="221.55" cy="792.84" r="10"/>
<text x="221.55" y="797.84">R165</text>
<circle cx="566.98" cy="119.93" r="10"/>
<text x="566.98" y="124.93">R166</text>
<circle cx="1321.43" cy="945.13" r="10"/>
<text x="1321.43" y="950.13">R167</text>
<circle cx="1031.84" cy="781.58" r="10"/>
<text x="1031.84" y="786.58">R168</text>
<circle cx="868.54" cy="278.74" r="10"/>
<text x="868.54" y="283.74">R169</text>
<circle cx="790.84" cy="456.22" r="10"/>
<text x="790.84" y="461.22">R170</text>
<circle cx="1260.79" cy="378.53" r="10"/>
<text x="1260.79" y="383.53">R171</text>
<circle cx="260.94" cy="237.10" r="10"/>
<text x="260.94" y="242.10">R172</text>
<circle cx="1268.36" cy="869.44" r="10"/>
<text x="1268.36" y="874.44">R173</text>
<circle cx="456.75" cy="604.62" r="10"/>
<text x="456.75" y="609.62">R174</text>
</svg>
