<svg id="topo" viewBox="-48.54 -1388.79 1428.83 1453.37" xmlns="http://www.w3.org/2000/svg">
<style>#topo path {fill: none; stroke: grey; stroke-width: 5.0000px;} #topo circle {fill: lightblue; stroke: none; stroke-width: 0.3px; vector-effect: non-scaling-stroke; r: 10.0000px;} #topo text {fill: black; stroke: none; font-size: 15.0000px; font-family: sans-serif; text-anchor:middle; transform: translateY(0.3em);} #topo path.country {fill: lightgrey; stroke: black; stroke-width: 1px; vector-effect: non-scaling-stroke; visibility: visible;} #topo path.selection {fill: none; stroke: red; stroke-width: 1px; vector-effect: non-scaling-stroke; visibility: visible;} #topo path.utilization {visibility: hidden;}</style>
<path data-id="0-70" d="M36.04,-1172.44,16.41,-1124.61"/>
<path data-id="0-91" d="M36.04,-1172.44,72.41,-1223.87"/>
<path data-id="1-7" d="M334.61,-810.37,240.11,-829.55"/>
<path data-id="1-116" d="M334.61,-810.37,280.70,-698.61"/>
<path data-id="1-124" d="M334.61,-810.37,479.09,-783.22"/>
<path data-id="1-157" d="M334.61,-810.37,321.63,-854.92"/>
<path data-id="2-44" d="M511.18,-19.15,589.03,-19.05"/>
<path data-id="2-118" d="M511.18,-19.15,531.72,-84.84"/>
<path data-id="2-121" d="M511.18,-19.15,444.59,-34.52"/>
<path data-id="3-158" d="M80.13,-943.60,129.03,-895.12"/>
<path data-id="3-164" d="M80.13,-943.60,78.71,-1074.54"/>
<path data-id="4-55" d="M359.05,-1279.44,497.03,-1320.84"/>
<path data-id="4-102" d="M359.05,-1279.44,251.61,-1248.05"/>
<path data-id="4-109" d="M359.05,-1279.44,527.37,-1181.44"/>
<path data-id="5-35" d="M1241.27,-58.73,1310.72,-17.90"/>
<path data-id="5-103" d="M1241.27,-58.73,1236.18,-95.64"/>
<path data-id="6-15" d="M976.95,-736.74,983.21,-819.72"/>
<path data-id="6-114" d="M976.95,-736.74,968.80,-702.18"/>
<path data-id="6-144" d="M976.95,-736.74,944.88,-814.03"/>
<path data-id="6-160" d="M976.95,-736.74,1050.59,-785.42"/>
<path data-id="7-39" d="M240.11,-829.55,150.91,-834.28"/>
<path data-id="7-42" d="M240.11,-829.55,266.82,-924.90"/>
<path data-id="7-59" d="M240.11,-829.55,219.57,-783.04"/>
<path data-id="7-157" d="M240.11,-829.55,321.63,-854.92"/>
<path data-id="8-40" d="M1153.79,-689.68,1206.73,-594.87"/>
<path data-id="8-53" d="M1153.79,-689.68,1063.91,-582.98"/>
<path data-id="8-83" d="M1153.79,-689.68,1096.75,-717.97"/>
<path data-id="8-123" d="M1153.79,-689.68,1141.27,-767.88"/>
<path data-id="8-142" d="M1153.79,-689.68,1245.08,-682.01"/>
<path data-id="8-155" d="M1153.79,-689.68,1190.03,-768.91"/>
<path data-id="9-30" d="M232.91,-63.48,175.36,-238.26"/>
<path data-id="9-67" d="M232.91,-63.48,340.47,-1.49"/>
<path data-id="9-77" d="M232.91,-63.48,350.19,-228.70"/>
<path data-id="9-115" d="M232.91,-63.48,105.34,-97.10"/>
<path data-id="10-64" d="M275.95,-319.25,215.20,-285.82"/>
<path data-id="10-84" d="M275.95,-319.25,336.30,-258.98"/>
<path data-id="10-113" d="M275.95,-319.25,340.53,-337.30"/>
<path data-id="10-159" d="M275.95,-319.25,178.78,-397.48"/>
<path data-id="10-161" d="M275.95,-319.25,289.98,-375.41"/>
<path data-id="11-34" d="M959.34,-123.78,925.93,-236.63"/>
<path data-id="11-48" d="M959.34,-123.78,833.37,-46.03"/>
<path data-id="11-122" d="M959.34,-123.78,1054.18,-158.83"/>
<path data-id="11-148" d="M959.34,-123.78,808.11,-170.63"/>
<path data-id="12-98" d="M351.44,-453.53,313.94,-505.74"/>
<path data-id="12-100" d="M351.44,-453.53,399.01,-365.65"/>
<path data-id="12-113" d="M351.44,-453.53,340.53,-337.30"/>
<path data-id="12-161" d="M351.44,-453.53,289.98,-375.41"/>
<path data-id="12-165" d="M351.44,-453.53,416.00,-453.92"/>
<path data-id="13-36" d="M705.57,-848.06,640.24,-784.15"/>
<path data-id="13-54" d="M705.57,-848.06,632.91,-938.45"/>
<path data-id="13-169" d="M705.57,-848.06,814.29,-799.52"/>
<path data-id="13-171" d="M705.57,-848.06,746.44,-978.52"/>
<path data-id="14-119" d="M785.63,-200.24,882.98,-319.95"/>
<path data-id="14-136" d="M785.63,-200.24,734.36,-229.09"/>
<path data-id="14-148" d="M785.63,-200.24,808.11,-170.63"/>
<path data-id="14-172" d="M785.63,-200.24,734.58,-160.78"/>
<path data-id="15-17" d="M983.21,-819.72,1009.43,-906.38"/>
<path data-id="15-112" d="M983.21,-819.72,1077.35,-848.75"/>
<path data-id="15-144" d="M983.21,-819.72,944.88,-814.03"/>
<path data-id="15-160" d="M983.21,-819.72,1050.59,-785.42"/>
<path data-id="16-18" d="M915.32,-1319.24,1144.32,-1296.96"/>
<path data-id="16-43" d="M915.32,-1319.24,1123.93,-1205.51"/>
<path data-id="16-143" d="M915.32,-1319.24,762.72,-1305.81"/>
<path data-id="17-69" d="M1009.43,-906.38,978.69,-920.17"/>
<path data-id="17-112" d="M1009.43,-906.38,1077.35,-848.75"/>
<path data-id="18-43" d="M1144.32,-1296.96,1123.93,-1205.51"/>
<path data-id="18-49" d="M1144.32,-1296.96,1235.23,-1269.19"/>
<path data-id="19-20" d="M692.14,-166.67,666.97,-95.92"/>
<path data-id="19-38" d="M692.14,-166.67,641.56,-177.05"/>
<path data-id="19-136" d="M692.14,-166.67,734.36,-229.09"/>
<path data-id="19-172" d="M692.14,-166.67,734.58,-160.78"/>
<path data-id="20-38" d="M666.97,-95.92,641.56,-177.05"/>
<path data-id="20-47" d="M666.97,-95.92,737.79,-117.95"/>
<path data-id="20-129" d="M666.97,-95.92,592.47,-90.59"/>
<path data-id="21-86" d="M797.69,-432.70,821.38,-468.09"/>
<path data-id="21-104" d="M797.69,-432.70,594.46,-460.70"/>
<path data-id="21-145" d="M797.69,-432.70,782.10,-378.74"/>
<path data-id="22-62" d="M832.07,-1012.87,881.11,-990.94"/>
<path data-id="22-76" d="M832.07,-1012.87,849.21,-1054.32"/>
<path data-id="22-171" d="M832.07,-1012.87,746.44,-978.52"/>
<path data-id="23-93" d="M250.12,-1200.64,222.46,-1185.90"/>
<path data-id="23-102" d="M250.12,-1200.64,251.61,-1248.05"/>
<path data-id="23-174" d="M250.12,-1200.64,517.17,-1035.43"/>
<path data-id="24-94" d="M1236.74,-129.47,1273.36,-173.54"/>
<path data-id="24-103" d="M1236.74,-129.47,1236.18,-95.64"/>
<path data-id="24-133" d="M1236.74,-129.47,1199.03,-107.57"/>
<path data-id="25-45" d="M1112.46,-302.86,1112.73,-424.43"/>
<path data-id="25-61" d="M1112.46,-302.86,972.55,-296.46"/>
<path data-id="25-85" d="M1112.46,-302.86,1119.27,-157.31"/>
<path data-id="25-122" d="M1112.46,-302.86,1054.18,-158.83"/>
<path data-id="25-163" d="M1112.46,-302.86,1225.07,-296.32"/>
<path data-id="26-53" d="M987.39,-594.68,1063.91,-582.98"/>
<path data-id="26-88" d="M987.39,-594.68,891.44,-593.92"/>
<path data-id="26-135" d="M987.39,-594.68,900.43,-661.65"/>
<path data-id="26-153" d="M987.39,-594.68,1026.52,-631.98"/>
<path data-id="26-156" d="M987.39,-594.68,1010.33,-496.32"/>
<path data-id="27-40" d="M1292.32,-608.01,1206.73,-594.87"/>
<path data-id="27-142" d="M1292.32,-608.01,1245.08,-682.01"/>
<path data-id="28-127" d="M560.68,-1048.09,538.55,-1010.78"/>
<path data-id="28-139" d="M560.68,-1048.09,609.24,-1098.23"/>
<path data-id="28-174" d="M560.68,-1048.09,517.17,-1035.43"/>
<path data-id="29-73" d="M563.78,-567.10,727.06,-548.19"/>
<path data-id="29-95" d="M563.78,-567.10,508.04,-719.48"/>
<path data-id="29-104" d="M563.78,-567.10,594.46,-460.70"/>
<path data-id="29-107" d="M563.78,-567.10,445.46,-615.58"/>
<path data-id="29-141" d="M563.78,-567.10,643.89,-679.74"/>
<path data-id="29-165" d="M563.78,-567.10,416.00,-453.92"/>
<path data-id="30-37" d="M175.36,-238.26,186.87,-278.52"/>
<path data-id="30-82" d="M175.36,-238.26,120.96,-293.47"/>
<path data-id="30-99" d="M175.36,-238.26,120.22,-214.02"/>
<path data-id="31-50" d="M51.83,-720.84,36.26,-752.25"/>
<path data-id="31-52" d="M51.83,-720.84,138.49,-648.57"/>
<path data-id="31-65" d="M51.83,-720.84,167.21,-705.34"/>
<path data-id="31-75" d="M51.83,-720.84,167.97,-741.86"/>
<path data-id="31-137" d="M51.83,-720.84,32.97,-654.27"/>
<path data-id="32-71" d="M427.22,-332.55,484.84,-370.61"/>
<path data-id="32-84" d="M427.22,-332.55,336.30,-258.98"/>
<path data-id="32-100" d="M427.22,-332.55,399.01,-365.65"/>
<path data-id="32-105" d="M427.22,-332.55,489.66,-271.63"/>
<path data-id="33-60" d="M1183.24,-917.63,1246.82,-993.13"/>
<path data-id="33-134" d="M1183.24,-917.63,1152.80,-904.12"/>
<path data-id="34-61" d="M925.93,-236.63,972.55,-296.46"/>
<path data-id="34-119" d="M925.93,-236.63,882.98,-319.95"/>
<path data-id="34-122" d="M925.93,-236.63,1054.18,-158.83"/>
<path data-id="34-148" d="M925.93,-236.63,808.11,-170.63"/>
<path data-id="36-111" d="M640.24,-784.15,812.57,-700.81"/>
<path data-id="36-141" d="M640.24,-784.15,643.89,-679.74"/>
<path data-id="36-170" d="M640.24,-784.15,513.57,-754.37"/>
<path data-id="37-64" d="M186.87,-278.52,215.20,-285.82"/>
<path data-id="37-82" d="M186.87,-278.52,120.96,-293.47"/>
<path data-id="37-159" d="M186.87,-278.52,178.78,-397.48"/>
<path data-id="38-125" d="M641.56,-177.05,572.74,-289.99"/>
<path data-id="38-129" d="M641.56,-177.05,592.47,-90.59"/>
<path data-id="38-131" d="M641.56,-177.05,700.68,-255.28"/>
<path data-id="39-50" d="M150.91,-834.28,36.26,-752.25"/>
<path data-id="39-59" d="M150.91,-834.28,219.57,-783.04"/>
<path data-id="39-75" d="M150.91,-834.28,167.97,-741.86"/>
<path data-id="39-158" d="M150.91,-834.28,129.03,-895.12"/>
<path data-id="40-45" d="M1206.73,-594.87,1112.73,-424.43"/>
<path data-id="40-53" d="M1206.73,-594.87,1063.91,-582.98"/>
<path data-id="40-142" d="M1206.73,-594.87,1245.08,-682.01"/>
<path data-id="41-74" d="M918.10,-812.35,872.09,-879.95"/>
<path data-id="41-108" d="M918.10,-812.35,921.71,-893.59"/>
<path data-id="41-144" d="M918.10,-812.35,944.88,-814.03"/>
<path data-id="41-169" d="M918.10,-812.35,814.29,-799.52"/>
<path data-id="42-79" d="M266.82,-924.90,142.60,-1097.59"/>
<path data-id="42-96" d="M266.82,-924.90,302.60,-928.66"/>
<path data-id="42-158" d="M266.82,-924.90,129.03,-895.12"/>
<path data-id="43-46" d="M1123.93,-1205.51,819.45,-1120.07"/>
<path data-id="43-49" d="M1123.93,-1205.51,1235.23,-1269.19"/>
<path data-id="43-76" d="M1123.93,-1205.51,849.21,-1054.32"/>
<path data-id="43-130" d="M1123.93,-1205.51,1174.34,-1087.95"/>
<path data-id="44-118" d="M589.03,-19.05,531.72,-84.84"/>
<path data-id="44-129" d="M589.03,-19.05,592.47,-90.59"/>
<path data-id="45-138" d="M1112.73,-424.43,1067.69,-431.15"/>
<path data-id="46-72" d="M819.45,-1120.07,767.96,-1201.01"/>
<path data-id="46-76" d="M819.45,-1120.07,849.21,-1054.32"/>
<path data-id="47-48" d="M737.79,-117.95,833.37,-46.03"/>
<path data-id="47-172" d="M737.79,-117.95,734.58,-160.78"/>
<path data-id="47-173" d="M737.79,-117.95,786.83,-13.66"/>
<path data-id="48-148" d="M833.37,-46.03,808.11,-170.63"/>
<path data-id="48-173" d="M833.37,-46.03,786.83,-13.66"/>
<path data-id="49-68" d="M1235.23,-1269.19,1315.35,-1235.02"/>
<path data-id="51-72" d="M742.51,-1231.43,767.96,-1201.01"/>
<path data-id="51-87" d="M742.51,-1231.43,666.09,-1179.70"/>
<path data-id="51-120" d="M742.51,-1231.43,648.96,-1322.73"/>
<path data-id="51-143" d="M742.51,-1231.43,762.72,-1305.81"/>
<path data-id="52-65" d="M138.49,-648.57,167.21,-705.34"/>
<path data-id="52-80" d="M138.49,-648.57,252.41,-478.63"/>
<path data-id="52-137" d="M138.49,-648.57,32.97,-654.27"/>
<path data-id="52-150" d="M138.49,-648.57,40.56,-613.37"/>
<path data-id="53-153" d="M1063.91,-582.98,1026.52,-631.98"/>
<path data-id="53-156" d="M1063.91,-582.98,1010.33,-496.32"/>
<path data-id="54-57" d="M632.91,-938.45,529.38,-947.44"/>
<path data-id="54-127" d="M632.91,-938.45,538.55,-1010.78"/>
<path data-id="54-171" d="M632.91,-938.45,746.44,-978.52"/>
<path data-id="55-81" d="M497.03,-1320.84,574.89,-1262.82"/>
<path data-id="56-80" d="M31.32,-531.95,252.41,-478.63"/>
<path data-id="56-150" d="M31.32,-531.95,40.56,-613.37"/>
<path data-id="56-154" d="M31.32,-531.95,51.19,-373.51"/>
<path data-id="56-159" d="M31.32,-531.95,178.78,-397.48"/>
<path data-id="57-124" d="M529.38,-947.44,479.09,-783.22"/>
<path data-id="57-126" d="M529.38,-947.44,507.28,-967.92"/>
<path data-id="58-60" d="M1238.24,-1040.84,1246.82,-993.13"/>
<path data-id="58-68" d="M1238.24,-1040.84,1315.35,-1235.02"/>
<path data-id="58-130" d="M1238.24,-1040.84,1174.34,-1087.95"/>
<path data-id="59-75" d="M219.57,-783.04,167.97,-741.86"/>
<path data-id="59-116" d="M219.57,-783.04,280.70,-698.61"/>
<path data-id="61-119" d="M972.55,-296.46,882.98,-319.95"/>
<path data-id="61-122" d="M972.55,-296.46,1054.18,-158.83"/>
<path data-id="61-138" d="M972.55,-296.46,1067.69,-431.15"/>
<path data-id="62-69" d="M881.11,-990.94,978.69,-920.17"/>
<path data-id="62-74" d="M881.11,-990.94,872.09,-879.95"/>
<path data-id="62-108" d="M881.11,-990.94,921.71,-893.59"/>
<path data-id="63-99" d="M59.97,-153.90,120.22,-214.02"/>
<path data-id="63-115" d="M59.97,-153.90,105.34,-97.10"/>
<path data-id="64-159" d="M215.20,-285.82,178.78,-397.48"/>
<path data-id="65-75" d="M167.21,-705.34,167.97,-741.86"/>
<path data-id="65-116" d="M167.21,-705.34,280.70,-698.61"/>
<path data-id="66-78" d="M1309.97,-179.74,1271.71,-264.95"/>
<path data-id="66-94" d="M1309.97,-179.74,1273.36,-173.54"/>
<path data-id="67-121" d="M340.47,-1.49,444.59,-34.52"/>
<path data-id="68-130" d="M1315.35,-1235.02,1174.34,-1087.95"/>
<path data-id="69-108" d="M978.69,-920.17,921.71,-893.59"/>
<path data-id="70-164" d="M16.41,-1124.61,78.71,-1074.54"/>
<path data-id="71-89" d="M484.84,-370.61,597.06,-394.10"/>
<path data-id="71-117" d="M484.84,-370.61,512.53,-288.47"/>
<path data-id="71-165" d="M484.84,-370.61,416.00,-453.92"/>
<path data-id="73-86" d="M727.06,-548.19,821.38,-468.09"/>
<path data-id="73-104" d="M727.06,-548.19,594.46,-460.70"/>
<path data-id="73-147" d="M727.06,-548.19,809.14,-571.78"/>
<path data-id="73-151" d="M727.06,-548.19,706.84,-638.38"/>
<path data-id="74-108" d="M872.09,-879.95,921.71,-893.59"/>
<path data-id="74-169" d="M872.09,-879.95,814.29,-799.52"/>
<path data-id="74-171" d="M872.09,-879.95,746.44,-978.52"/>
<path data-id="77-84" d="M350.19,-228.70,336.30,-258.98"/>
<path data-id="77-167" d="M350.19,-228.70,421.26,-182.79"/>
<path data-id="78-94" d="M1271.71,-264.95,1273.36,-173.54"/>
<path data-id="78-166" d="M1271.71,-264.95,1256.32,-288.36"/>
<path data-id="79-110" d="M142.60,-1097.59,162.99,-1173.35"/>
<path data-id="79-149" d="M142.60,-1097.59,314.91,-965.03"/>
<path data-id="79-164" d="M142.60,-1097.59,78.71,-1074.54"/>
<path data-id="80-98" d="M252.41,-478.63,313.94,-505.74"/>
<path data-id="80-159" d="M252.41,-478.63,178.78,-397.48"/>
<path data-id="80-161" d="M252.41,-478.63,289.98,-375.41"/>
<path data-id="81-101" d="M574.89,-1262.82,567.54,-1192.62"/>
<path data-id="81-120" d="M574.89,-1262.82,648.96,-1322.73"/>
<path data-id="82-90" d="M120.96,-293.47,78.91,-339.97"/>
<path data-id="82-99" d="M120.96,-293.47,120.22,-214.02"/>
<path data-id="82-159" d="M120.96,-293.47,178.78,-397.48"/>
<path data-id="83-123" d="M1096.75,-717.97,1141.27,-767.88"/>
<path data-id="83-153" d="M1096.75,-717.97,1026.52,-631.98"/>
<path data-id="83-160" d="M1096.75,-717.97,1050.59,-785.42"/>
<path data-id="84-113" d="M336.30,-258.98,340.53,-337.30"/>
<path data-id="85-122" d="M1119.27,-157.31,1054.18,-158.83"/>
<path data-id="85-128" d="M1119.27,-157.31,1108.77,-93.79"/>
<path data-id="85-152" d="M1119.27,-157.31,1151.68,-116.13"/>
<path data-id="85-163" d="M1119.27,-157.31,1225.07,-296.32"/>
<path data-id="86-147" d="M821.38,-468.09,809.14,-571.78"/>
<path data-id="86-156" d="M821.38,-468.09,1010.33,-496.32"/>
<path data-id="87-101" d="M666.09,-1179.70,567.54,-1192.62"/>
<path data-id="87-120" d="M666.09,-1179.70,648.96,-1322.73"/>
<path data-id="87-139" d="M666.09,-1179.70,609.24,-1098.23"/>
<path data-id="87-168" d="M666.09,-1179.70,577.21,-1133.75"/>
<path data-id="88-135" d="M891.44,-593.92,900.43,-661.65"/>
<path data-id="88-147" d="M891.44,-593.92,809.14,-571.78"/>
<path data-id="89-104" d="M597.06,-394.10,594.46,-460.70"/>
<path data-id="89-125" d="M597.06,-394.10,572.74,-289.99"/>
<path data-id="89-162" d="M597.06,-394.10,714.57,-341.85"/>
<path data-id="90-154" d="M78.91,-339.97,51.19,-373.51"/>
<path data-id="90-159" d="M78.91,-339.97,178.78,-397.48"/>
<path data-id="91-110" d="M72.41,-1223.87,162.99,-1173.35"/>
<path data-id="92-117" d="M544.10,-291.61,512.53,-288.47"/>
<path data-id="92-125" d="M544.10,-291.61,572.74,-289.99"/>
<path data-id="93-110" d="M222.46,-1185.90,162.99,-1173.35"/>
<path data-id="93-149" d="M222.46,-1185.90,314.91,-965.03"/>
<path data-id="95-107" d="M508.04,-719.48,445.46,-615.58"/>
<path data-id="95-141" d="M508.04,-719.48,643.89,-679.74"/>
<path data-id="95-170" d="M508.04,-719.48,513.57,-754.37"/>
<path data-id="96-149" d="M302.60,-928.66,314.91,-965.03"/>
<path data-id="96-157" d="M302.60,-928.66,321.63,-854.92"/>
<path data-id="97-98" d="M324.72,-630.64,313.94,-505.74"/>
<path data-id="97-107" d="M324.72,-630.64,445.46,-615.58"/>
<path data-id="97-116" d="M324.72,-630.64,280.70,-698.61"/>
<path data-id="98-107" d="M313.94,-505.74,445.46,-615.58"/>
<path data-id="100-113" d="M399.01,-365.65,340.53,-337.30"/>
<path data-id="100-165" d="M399.01,-365.65,416.00,-453.92"/>
<path data-id="101-109" d="M567.54,-1192.62,527.37,-1181.44"/>
<path data-id="101-168" d="M567.54,-1192.62,577.21,-1133.75"/>
<path data-id="103-133" d="M1236.18,-95.64,1199.03,-107.57"/>
<path data-id="105-117" d="M489.66,-271.63,512.53,-288.47"/>
<path data-id="105-167" d="M489.66,-271.63,421.26,-182.79"/>
<path data-id="106-140" d="M752.15,-359.17,751.44,-290.51"/>
<path data-id="106-145" d="M752.15,-359.17,782.10,-378.74"/>
<path data-id="106-162" d="M752.15,-359.17,714.57,-341.85"/>
<path data-id="107-165" d="M445.46,-615.58,416.00,-453.92"/>
<path data-id="108-144" d="M921.71,-893.59,944.88,-814.03"/>
<path data-id="109-168" d="M527.37,-1181.44,577.21,-1133.75"/>
<path data-id="111-135" d="M812.57,-700.81,900.43,-661.65"/>
<path data-id="111-147" d="M812.57,-700.81,809.14,-571.78"/>
<path data-id="111-151" d="M812.57,-700.81,706.84,-638.38"/>
<path data-id="111-169" d="M812.57,-700.81,814.29,-799.52"/>
<path data-id="112-123" d="M1077.35,-848.75,1141.27,-767.88"/>
<path data-id="112-134" d="M1077.35,-848.75,1152.80,-904.12"/>
<path data-id="112-160" d="M1077.35,-848.75,1050.59,-785.42"/>
<path data-id="113-161" d="M340.53,-337.30,289.98,-375.41"/>
<path data-id="114-135" d="M968.80,-702.18,900.43,-661.65"/>
<path data-id="114-153" d="M968.80,-702.18,1026.52,-631.98"/>
<path data-id="118-129" d="M531.72,-84.84,592.47,-90.59"/>
<path data-id="118-167" d="M531.72,-84.84,421.26,-182.79"/>
<path data-id="119-140" d="M882.98,-319.95,751.44,-290.51"/>
<path data-id="119-145" d="M882.98,-319.95,782.10,-378.74"/>
<path data-id="119-156" d="M882.98,-319.95,1010.33,-496.32"/>
<path data-id="120-143" d="M648.96,-1322.73,762.72,-1305.81"/>
<path data-id="121-167" d="M444.59,-34.52,421.26,-182.79"/>
<path data-id="122-128" d="M1054.18,-158.83,1108.77,-93.79"/>
<path data-id="122-132" d="M1054.18,-158.83,1085.76,-79.26"/>
<path data-id="123-134" d="M1141.27,-767.88,1152.80,-904.12"/>
<path data-id="123-155" d="M1141.27,-767.88,1190.03,-768.91"/>
<path data-id="123-160" d="M1141.27,-767.88,1050.59,-785.42"/>
<path data-id="124-170" d="M479.09,-783.22,513.57,-754.37"/>
<path data-id="125-131" d="M572.74,-289.99,700.68,-255.28"/>
<path data-id="125-162" d="M572.74,-289.99,714.57,-341.85"/>
<path data-id="126-127" d="M507.28,-967.92,538.55,-1010.78"/>
<path data-id="126-149" d="M507.28,-967.92,314.91,-965.03"/>
<path data-id="126-157" d="M507.28,-967.92,321.63,-854.92"/>
<path data-id="127-174" d="M538.55,-1010.78,517.17,-1035.43"/>
<path data-id="128-132" d="M1108.77,-93.79,1085.76,-79.26"/>
<path data-id="128-152" d="M1108.77,-93.79,1151.68,-116.13"/>
<path data-id="131-136" d="M700.68,-255.28,734.36,-229.09"/>
<path data-id="131-140" d="M700.68,-255.28,751.44,-290.51"/>
<path data-id="131-162" d="M700.68,-255.28,714.57,-341.85"/>
<path data-id="133-152" d="M1199.03,-107.57,1151.68,-116.13"/>
<path data-id="134-155" d="M1152.80,-904.12,1190.03,-768.91"/>
<path data-id="136-140" d="M734.36,-229.09,751.44,-290.51"/>
<path data-id="136-172" d="M734.36,-229.09,734.58,-160.78"/>
<path data-id="137-150" d="M32.97,-654.27,40.56,-613.37"/>
<path data-id="138-156" d="M1067.69,-431.15,1010.33,-496.32"/>
<path data-id="139-168" d="M609.24,-1098.23,577.21,-1133.75"/>
<path data-id="139-171" d="M609.24,-1098.23,746.44,-978.52"/>
<path data-id="140-162" d="M751.44,-290.51,714.57,-341.85"/>
<path data-id="141-151" d="M643.89,-679.74,706.84,-638.38"/>
<path data-id="142-146" d="M1245.08,-682.01,1220.74,-763.69"/>
<path data-id="146-155" d="M1220.74,-763.69,1190.03,-768.91"/>
<path data-id="147-151" d="M809.14,-571.78,706.84,-638.38"/>
<path data-id="148-172" d="M808.11,-170.63,734.58,-160.78"/>
<path data-id="159-161" d="M178.78,-397.48,289.98,-375.41"/>
<path data-id="163-166" d="M1225.07,-296.32,1256.32,-288.36"/>
<circle data-id="0" cx="36.04" cy="-1172.44" r="10.00px"/>
<text data-id="0" x="36.04" y="-1172.44">R0</text>
<circle data-id="1" cx="334.61" cy="-810.37" r="10.00px"/>
<text data-id="1" x="334.61" y="-810.37">R1</text>
<circle data-id="2" cx="511.18" cy="-19.15" r="10.00px"/>
<text data-id="2" x="511.18" y="-19.15">R2</text>
<circle data-id="3" cx="80.13" cy="-943.60" r="10.00px"/>
<text data-id="3" x="80.13" y="-943.60">R3</text>
<circle data-id="4" cx="359.05" cy="-1279.44" r="10.00px"/>
<text data-id="4" x="359.05" y="-1279.44">R4</text>
<circle data-id="5" cx="1241.27" cy="-58.73" r="10.00px"/>
<text data-id="5" x="1241.27" y="-58.73">R5</text>
<circle data-id="6" cx="976.95" cy="-736.74" r="10.00px"/>
<text data-id="6" x="976.95" y="-736.74">R6</text>
<circle data-id="7" cx="240.11" cy="-829.55" r="10.00px"/>
<text data-id="7" x="240.11" y="-829.55">R7</text>
<circle data-id="8" cx="1153.79" cy="-689.68" r="10.00px"/>
<text data-id="8" x="1153.79" y="-689.68">R8</text>
<circle data-id="9" cx="232.91" cy="-63.48" r="10.00px"/>
<text data-id="9" x="232.91" y="-63.48">R9</text>
<circle data-id="10" cx="275.95" cy="-319.25" r="10.00px"/>
<text data-id="10" x="275.95" y="-319.25">R10</text>
<circle data-id="11" cx="959.34" cy="-123.78" r="10.00px"/>
<text data-id="11" x="959.34" y="-123.78">R11</text>
<circle data-id="12" cx="351.44" cy="-453.53" r="10.00px"/>
<text data-id="12" x="351.44" y="-453.53">R12</text>
<circle data-id="13" cx="705.57" cy="-848.06" r="10.00px"/>
<text data-id="13" x="705.57" y="-848.06">R13</text>
<circle data-id="14" cx="785.63" cy="-200.24" r="10.00px"/>
<text data-id="14" x="785.63" y="-200.24">R14</text>
<circle data-id="15" cx="983.21" cy="-819.72" r="10.00px"/>
<text data-id="15" x="983.21" y="-819.72">R15</text>
<circle data-id="16" cx="915.32" cy="-1319.24" r="10.00px"/>
<text data-id="16" x="915.32" y="-1319.24">R16</text>
<circle data-id="17" cx="1009.43" cy="-906.38" r="10.00px"/>
<text data-id="17" x="1009.43" y="-906.38">R17</text>
<circle data-id="18" cx="1144.32" cy="-1296.96" r="10.00px"/>
<text data-id="18" x="1144.32" y="-1296.96">R18</text>
<circle data-id="19" cx="692.14" cy="-166.67" r="10.00px"/>
<text data-id="19" x="692.14" y="-166.67">R19</text>
<circle data-id="20" cx="666.97" cy="-95.92" r="10.00px"/>
<text data-id="20" x="666.97" y="-95.92">R20</text>
<circle data-id="21" cx="797.69" cy="-432.70" r="10.00px"/>
<text data-id="21" x="797.69" y="-432.70">R21</text>
<circle data-id="22" cx="832.07" cy="-1012.87" r="10.00px"/>
<text data-id="22" x="832.07" y="-1012.87">R22</text>
<circle data-id="23" cx="250.12" cy="-1200.64" r="10.00px"/>
<text data-id="23" x="250.12" y="-1200.64">R23</text>
<circle data-id="24" cx="1236.74" cy="-129.47" r="10.00px"/>
<text data-id="24" x="1236.74" y="-129.47">R24</text>
<circle data-id="25" cx="1112.46" cy="-302.86" r="10.00px"/>
<text data-id="25" x="1112.46" y="-302.86">R25</text>
<circle data-id="26" cx="987.39" cy="-594.68" r="10.00px"/>
<text data-id="26" x="987.39" y="-594.68">R26</text>
<circle data-id="27" cx="1292.32" cy="-608.01" r="10.00px"/>
<text data-id="27" x="1292.32" y="-608.01">R27</text>
<circle data-id="28" cx="560.68" cy="-1048.09" r="10.00px"/>
<text data-id="28" x="560.68" y="-1048.09">R28</text>
<circle data-id="29" cx="563.78" cy="-567.10" r="10.00px"/>
<text data-id="29" x="563.78" y="-567.10">R29</text>
<circle data-id="30" cx="175.36" cy="-238.26" r="10.00px"/>
<text data-id="30" x="175.36" y="-238.26">R30</text>
<circle data-id="31" cx="51.83" cy="-720.84" r="10.00px"/>
<text data-id="31" x="51.83" y="-720.84">R31</text>
<circle data-id="32" cx="427.22" cy="-332.55" r="10.00px"/>
<text data-id="32" x="427.22" y="-332.55">R32</text>
<circle data-id="33" cx="1183.24" cy="-917.63" r="10.00px"/>
<text data-id="33" x="1183.24" y="-917.63">R33</text>
<circle data-id="34" cx="925.93" cy="-236.63" r="10.00px"/>
<text data-id="34" x="925.93" y="-236.63">R34</text>
<circle data-id="35" cx="1310.72" cy="-17.90" r="10.00px"/>
<text data-id="35" x="1310.72" y="-17.90">R35</text>
<circle data-id="36" cx="640.24" cy="-784.15" r="10.00px"/>
<text data-id="36" x="640.24" y="-784.15">R36</text>
<circle data-id="37" cx="186.87" cy="-278.52" r="10.00px"/>
<text data-id="37" x="186.87" y="-278.52">R37</text>
<circle data-id="38" cx="641.56" cy="-177.05" r="10.00px"/>
<text data-id="38" x="641.56" y="-177.05">R38</text>
<circle data-id="39" cx="150.91" cy="-834.28" r="10.00px"/>
<text data-id="39" x="150.91" y="-834.28">R39</text>
<circle data-id="40" cx="1206.73" cy="-594.87" r="10.00px"/>
<text data-id="40" x="1206.73" y="-594.87">R40</text>
<circle data-id="41" cx="918.10" cy="-812.35" r="10.00px"/>
<text data-id="41" x="918.10" y="-812.35">R41</text>
<circle data-id="42" cx="266.82" cy="-924.90" r="10.00px"/>
<text data-id="42" x="266.82" y="-924.90">R42</text>
<circle data-id="43" cx="1123.93" cy="-1205.51" r="10.00px"/>
<text data-id="43" x="1123.93" y="-1205.51">R43</text>
<circle data-id="44" cx="589.03" cy="-19.05" r="10.00px"/>
<text data-id="44" x="589.03" y="-19.05">R44</text>
<circle data-id="45" cx="1112.73" cy="-424.43" r="10.00px"/>
<text data-id="45" x="1112.73" y="-424.43">R45</text>
<circle data-id="46" cx="819.45" cy="-1120.07" r="10.00px"/>
<text data-id="46" x="819.45" y="-1120.07">R46</text>
<circle data-id="47" cx="737.79" cy="-117.95" r="10.00px"/>
<text data-id="47" x="737.79" y="-117.95">R47</text>
<circle data-id="48" cx="833.37" cy="-46.03" r="10.00px"/>
<text data-id="48" x="833.37" y="-46.03">R48</text>
<circle data-id="49" cx="1235.23" cy="-1269.19" r="10.00px"/>
<text data-id="49" x="1235.23" y="-1269.19">R49</text>
<circle data-id="50" cx="36.26" cy="-752.25" r="10.00px"/>
<text data-id="50" x="36.26" y="-752.25">R50</text>
<circle data-id="51" cx="742.51" cy="-1231.43" r="10.00px"/>
<text data-id="51" x="742.51" y="-1231.43">R51</text>
<circle data-id="52" cx="138.49" cy="-648.57" r="10.00px"/>
<text data-id="52" x="138.49" y="-648.57">R52</text>
<circle data-id="53" cx="1063.91" cy="-582.98" r="10.00px"/>
<text data-id="53" x="1063.91" y="-582.98">R53</text>
<circle data-id="54" cx="632.91" cy="-938.45" r="10.00px"/>
<text data-id="54" x="632.91" y="-938.45">R54</text>
<circle data-id="55" cx="497.03" cy="-1320.84" r="10.00px"/>
<text data-id="55" x="497.03" y="-1320.84">R55</text>
<circle data-id="56" cx="31.32" cy="-531.95" r="10.00px"/>
<text data-id="56" x="31.32" y="-531.95">R56</text>
<circle data-id="57" cx="529.38" cy="-947.44" r="10.00px"/>
<text data-id="57" x="529.38" y="-947.44">R57</text>
<circle data-id="58" cx="1238.24" cy="-1040.84" r="10.00px"/>
<text data-id="58" x="1238.24" y="-1040.84">R58</text>
<circle data-id="59" cx="219.57" cy="-783.04" r="10.00px"/>
<text data-id="59" x="219.57" y="-783.04">R59</text>
<circle data-id="60" cx="1246.82" cy="-993.13" r="10.00px"/>
<text data-id="60" x="1246.82" y="-993.13">R60</text>
<circle data-id="61" cx="972.55" cy="-296.46" r="10.00px"/>
<text data-id="61" x="972.55" y="-296.46">R61</text>
<circle data-id="62" cx="881.11" cy="-990.94" r="10.00px"/>
<text data-id="62" x="881.11" y="-990.94">R62</text>
<circle data-id="63" cx="59.97" cy="-153.90" r="10.00px"/>
<text data-id="63" x="59.97" y="-153.90">R63</text>
<circle data-id="64" cx="215.20" cy="-285.82" r="10.00px"/>
<text data-id="64" x="215.20" y="-285.82">R64</text>
<circle data-id="65" cx="167.21" cy="-705.34" r="10.00px"/>
<text data-id="65" x="167.21" y="-705.34">R65</text>
<circle data-id="66" cx="1309.97" cy="-179.74" r="10.00px"/>
<text data-id="66" x="1309.97" y="-179.74">R66</text>
<circle data-id="67" cx="340.47" cy="-1.49" r="10.00px"/>
<text data-id="67" x="340.47" y="-1.49">R67</text>
<circle data-id="68" cx="1315.35" cy="-1235.02" r="10.00px"/>
<text data-id="68" x="1315.35" y="-1235.02">R68</text>
<circle data-id="69" cx="978.69" cy="-920.17" r="10.00px"/>
<text data-id="69" x="978.69" y="-920.17">R69</text>
<circle data-id="70" cx="16.41" cy="-1124.61" r="10.00px"/>
<text data-id="70" x="16.41" y="-1124.61">R70</text>
<circle data-id="71" cx="484.84" cy="-370.61" r="10.00px"/>
<text data-id="71" x="484.84" y="-370.61">R71</text>
<circle data-id="72" cx="767.96" cy="-1201.01" r="10.00px"/>
<text data-id="72" x="767.96" y="-1201.01">R72</text>
<circle data-id="73" cx="727.06" cy="-548.19" r="10.00px"/>
<text data-id="73" x="727.06" y="-548.19">R73</text>
<circle data-id="74" cx="872.09" cy="-879.95" r="10.00px"/>
<text data-id="74" x="872.09" y="-879.95">R74</text>
<circle data-id="75" cx="167.97" cy="-741.86" r="10.00px"/>
<text data-id="75" x="167.97" y="-741.86">R75</text>
<circle data-id="76" cx="849.21" cy="-1054.32" r="10.00px"/>
<text data-id="76" x="849.21" y="-1054.32">R76</text>
<circle data-id="77" cx="350.19" cy="-228.70" r="10.00px"/>
<text data-id="77" x="350.19" y="-228.70">R77</text>
<circle data-id="78" cx="1271.71" cy="-264.95" r="10.00px"/>
<text data-id="78" x="1271.71" y="-264.95">R78</text>
<circle data-id="79" cx="142.60" cy="-1097.59" r="10.00px"/>
<text data-id="79" x="142.60" y="-1097.59">R79</text>
<circle data-id="80" cx="252.41" cy="-478.63" r="10.00px"/>
<text data-id="80" x="252.41" y="-478.63">R80</text>
<circle data-id="81" cx="574.89" cy="-1262.82" r="10.00px"/>
<text data-id="81" x="574.89" y="-1262.82">R81</text>
<circle data-id="82" cx="120.96" cy="-293.47" r="10.00px"/>
<text data-id="82" x="120.96" y="-293.47">R82</text>
<circle data-id="83" cx="1096.75" cy="-717.97" r="10.00px"/>
<text data-id="83" x="1096.75" y="-717.97">R83</text>
<circle data-id="84" cx="336.30" cy="-258.98" r="10.00px"/>
<text data-id="84" x="336.30" y="-258.98">R84</text>
<circle data-id="85" cx="1119.27" cy="-157.31" r="10.00px"/>
<text data-id="85" x="1119.27" y="-157.31">R85</text>
<circle data-id="86" cx="821.38" cy="-468.09" r="10.00px"/>
<text data-id="86" x="821.38" y="-468.09">R86</text>
<circle data-id="87" cx="666.09" cy="-1179.70" r="10.00px"/>
<text data-id="87" x="666.09" y="-1179.70">R87</text>
<circle data-id="88" cx="891.44" cy="-593.92" r="10.00px"/>
<text data-id="88" x="891.44" y="-593.92">R88</text>
<circle data-id="89" cx="597.06" cy="-394.10" r="10.00px"/>
<text data-id="89" x="597.06" y="-394.10">R89</text>
<circle data-id="90" cx="78.91" cy="-339.97" r="10.00px"/>
<text data-id="90" x="78.91" y="-339.97">R90</text>
<circle data-id="91" cx="72.41" cy="-1223.87" r="10.00px"/>
<text data-id="91" x="72.41" y="-1223.87">R91</text>
<circle data-id="92" cx="544.10" cy="-291.61" r="10.00px"/>
<text data-id="92" x="544.10" y="-291.61">R92</text>
<circle data-id="93" cx="222.46" cy="-1185.90" r="10.00px"/>
<text data-id="93" x="222.46" y="-1185.90">R93</text>
<circle data-id="94" cx="1273.36" cy="-173.54" r="10.00px"/>
<text data-id="94" x="1273.36" y="-173.54">R94</text>
<circle data-id="95" cx="508.04" cy="-719.48" r="10.00px"/>
<text data-id="95" x="508.04" y="-719.48">R95</text>
<circle data-id="96" cx="302.60" cy="-928.66" r="10.00px"/>
<text data-id="96" x="302.60" y="-928.66">R96</text>
<circle data-id="97" cx="324.72" cy="-630.64" r="10.00px"/>
<text data-id="97" x="324.72" y="-630.64">R97</text>
<circle data-id="98" cx="313.94" cy="-505.74" r="10.00px"/>
<text data-id="98" x="313.94" y="-505.74">R98</text>
<circle data-id="99" cx="120.22" cy="-214.02" r="10.00px"/>
<text data-id="99" x="120.22" y="-214.02">R99</text>
<circle data-id="100" cx="399.01" cy="-365.65" r="10.00px"/>
<text data-id="100" x="399.01" y="-365.65">R100</text>
<circle data-id="101" cx="567.54" cy="-1192.62" r="10.00px"/>
<text data-id="101" x="567.54" y="-1192.62">R101</text>
<circle data-id="102" cx="251.61" cy="-1248.05" r="10.00px"/>
<text data-id="102" x="251.61" y="-1248.05">R102</text>
<circle data-id="103" cx="1236.18" cy="-95.64" r="10.00px"/>
<text data-id="103" x="1236.18" y="-95.64">R103</text>
<circle data-id="104" cx="594.46" cy="-460.70" r="10.00px"/>
<text data-id="104" x="594.46" y="-460.70">R104</text>
<circle data-id="105" cx="489.66" cy="-271.63" r="10.00px"/>
<text data-id="105" x="489.66" y="-271.63">R105</text>
<circle data-id="106" cx="752.15" cy="-359.17" r="10.00px"/>
<text data-id="106" x="752.15" y="-359.17">R106</text>
<circle data-id="107" cx="445.46" cy="-615.58" r="10.00px"/>
<text data-id="107" x="445.46" y="-615.58">R107</text>
<circle data-id="108" cx="921.71" cy="-893.59" r="10.00px"/>
<text data-id="108" x="921.71" y="-893.59">R108</text>
<circle data-id="109" cx="527.37" cy="-1181.44" r="10.00px"/>
<text data-id="109" x="527.37" y="-1181.44">R109</text>
<circle data-id="110" cx="162.99" cy="-1173.35" r="10.00px"/>
<text data-id="110" x="162.99" y="-1173.35">R110</text>
<circle data-id="111" cx="812.57" cy="-700.81" r="10.00px"/>
<text data-id="111" x="812.57" y="-700.81">R111</text>
<circle data-id="112" cx="1077.35" cy="-848.75" r="10.00px"/>
<text data-id="112" x="1077.35" y="-848.75">R112</text>
<circle data-id="113" cx="340.53" cy="-337.30" r="10.00px"/>
<text data-id="113" x="340.53" y="-337.30">R113</text>
<circle data-id="114" cx="968.80" cy="-702.18" r="10.00px"/>
<text data-id="114" x="968.80" y="-702.18">R114</text>
<circle data-id="115" cx="105.34" cy="-97.10" r="10.00px"/>
<text data-id="115" x="105.34" y="-97.10">R115</text>
<circle data-id="116" cx="280.70" cy="-698.61" r="10.00px"/>
<text data-id="116" x="280.70" y="-698.61">R116</text>
<circle data-id="117" cx="512.53" cy="-288.47" r="10.00px"/>
<text data-id="117" x="512.53" y="-288.47">R117</text>
<circle data-id="118" cx="531.72" cy="-84.84" r="10.00px"/>
<text data-id="118" x="531.72" y="-84.84">R118</text>
<circle data-id="119" cx="882.98" cy="-319.95" r="10.00px"/>
<text data-id="119" x="882.98" y="-319.95">R119</text>
<circle data-id="120" cx="648.96" cy="-1322.73" r="10.00px"/>
<text data-id="120" x="648.96" y="-1322.73">R120</text>
<circle data-id="121" cx="444.59" cy="-34.52" r="10.00px"/>
<text data-id="121" x="444.59" y="-34.52">R121</text>
<circle data-id="122" cx="1054.18" cy="-158.83" r="10.00px"/>
<text data-id="122" x="1054.18" y="-158.83">R122</text>
<circle data-id="123" cx="1141.27" cy="-767.88" r="10.00px"/>
<text data-id="123" x="1141.27" y="-767.88">R123</text>
<circle data-id="124" cx="479.09" cy="-783.22" r="10.00px"/>
<text data-id="124" x="479.09" y="-783.22">R124</text>
<circle data-id="125" cx="572.74" cy="-289.99" r="10.00px"/>
<text data-id="125" x="572.74" y="-289.99">R125</text>
<circle data-id="126" cx="507.28" cy="-967.92" r="10.00px"/>
<text data-id="126" x="507.28" y="-967.92">R126</text>
<circle data-id="127" cx="538.55" cy="-1010.78" r="10.00px"/>
<text data-id="127" x="538.55" y="-1010.78">R127</text>
<circle data-id="128" cx="1108.77" cy="-93.79" r="10.00px"/>
<text data-id="128" x="1108.77" y="-93.79">R128</text>
<circle data-id="129" cx="592.47" cy="-90.59" r="10.00px"/>
<text data-id="129" x="592.47" y="-90.59">R129</text>
<circle data-id="130" cx="1174.34" cy="-1087.95" r="10.00px"/>
<text data-id="130" x="1174.34" y="-1087.95">R130</text>
<circle data-id="131" cx="700.68" cy="-255.28" r="10.00px"/>
<text data-id="131" x="700.68" y="-255.28">R131</text>
<circle data-id="132" cx="1085.76" cy="-79.26" r="10.00px"/>
<text data-id="132" x="1085.76" y="-79.26">R132</text>
<circle data-id="133" cx="1199.03" cy="-107.57" r="10.00px"/>
<text data-id="133" x="1199.03" y="-107.57">R133</text>
<circle data-id="134" cx="1152.80" cy="-904.12" r="10.00px"/>
<text data-id="134" x="1152.80" y="-904.12">R134</text>
<circle data-id="135" cx="900.43" cy="-661.65" r="10.00px"/>
<text data-id="135" x="900.43" y="-661.65">R135</text>
<circle data-id="136" cx="734.36" cy="-229.09" r="10.00px"/>
<text data-id="136" x="734.36" y="-229.09">R136</text>
<circle data-id="137" cx="32.97" cy="-654.27" r="10.00px"/>
<text data-id="137" x="32.97" y="-654.27">R137</text>
<circle data-id="138" cx="1067.69" cy="-431.15" r="10.00px"/>
<text data-id="138" x="1067.69" y="-431.15">R138</text>
<circle data-id="139" cx="609.24" cy="-1098.23" r="10.00px"/>
<text data-id="139" x="609.24" y="-1098.23">R139</text>
<circle data-id="140" cx="751.44" cy="-290.51" r="10.00px"/>
<text data-id="140" x="751.44" y="-290.51">R140</text>
<circle data-id="141" cx="643.89" cy="-679.74" r="10.00px"/>
<text data-id="141" x="643.89" y="-679.74">R141</text>
<circle data-id="142" cx="1245.08" cy="-682.01" r="10.00px"/>
<text data-id="142" x="1245.08" y="-682.01">R142</text>
<circle data-id="143" cx="762.72" cy="-1305.81" r="10.00px"/>
<text data-id="143" x="762.72" y="-1305.81">R143</text>
<circle data-id="144" cx="944.88" cy="-814.03" r="10.00px"/>
<text data-id="144" x="944.88" y="-814.03">R144</text>
<circle data-id="145" cx="782.10" cy="-378.74" r="10.00px"/>
<text data-id="145" x="782.10" y="-378.74">R145</text>
<circle data-id="146" cx="1220.74" cy="-763.69" r="10.00px"/>
<text data-id="146" x="1220.74" y="-763.69">R146</text>
<circle data-id="147" cx="809.14" cy="-571.78" r="10.00px"/>
<text data-id="147" x="809.14" y="-571.78">R147</text>
<circle data-id="148" cx="808.11" cy="-170.63" r="10.00px"/>
<text data-id="148" x="808.11" y="-170.63">R148</text>
<circle data-id="149" cx="314.91" cy="-965.03" r="10.00px"/>
<text data-id="149" x="314.91" y="-965.03">R149</text>
<circle data-id="150" cx="40.56" cy="-613.37" r="10.00px"/>
<text data-id="150" x="40.56" y="-613.37">R150</text>
<circle data-id="151" cx="706.84" cy="-638.38" r="10.00px"/>
<text data-id="151" x="706.84" y="-638.38">R151</text>
<circle data-id="152" cx="1151.68" cy="-116.13" r="10.00px"/>
<text data-id="152" x="1151.68" y="-116.13">R152</text>
<circle data-id="153" cx="1026.52" cy="-631.98" r="10.00px"/>
<text data-id="153" x="1026.52" y="-631.98">R153</text>
<circle data-id="154" cx="51.19" cy="-373.51" r="10.00px"/>
<text data-id="154" x="51.19" y="-373.51">R154</text>
<circle data-id="155" cx="1190.03" cy="-768.91" r="10.00px"/>
<text data-id="155" x="1190.03" y="-768.91">R155</text>
<circle data-id="156" cx="1010.33" cy="-496.32" r="10.00px"/>
<text data-id="156" x="1010.33" y="-496.32">R156</text>
<circle data-id="157" cx="321.63" cy="-854.92" r="10.00px"/>
<text data-id="157" x="321.63" y="-854.92">R157</text>
<circle data-id="158" cx="129.03" cy="-895.12" r="10.00px"/>
<text data-id="158" x="129.03" y="-895.12">R158</text>
<circle data-id="159" cx="178.78" cy="-397.48" r="10.00px"/>
<text data-id="159" x="178.78" y="-397.48">R159</text>
<circle data-id="160" cx="1050.59" cy="-785.42" r="10.00px"/>
<text data-id="160" x="1050.59" y="-785.42">R160</text>
<circle data-id="161" cx="289.98" cy="-375.41" r="10.00px"/>
<text data-id="161" x="289.98" y="-375.41">R161</text>
<circle data-id="162" cx="714.57" cy="-341.85" r="10.00px"/>
<text data-id="162" x="714.57" y="-341.85">R162</text>
<circle data-id="163" cx="1225.07" cy="-296.32" r="10.00px"/>
<text data-id="163" x="1225.07" y="-296.32">R163</text>
<circle data-id="164" cx="78.71" cy="-1074.54" r="10.00px"/>
<text data-id="164" x="78.71" y="-1074.54">R164</text>
<circle data-id="165" cx="416.00" cy="-453.92" r="10.00px"/>
<text data-id="165" x="416.00" y="-453.92">R165</text>
<circle data-id="166" cx="1256.32" cy="-288.36" r="10.00px"/>
<text data-id="166" x="1256.32" y="-288.36">R166</text>
<circle data-id="167" cx="421.26" cy="-182.79" r="10.00px"/>
<text data-id="167" x="421.26" y="-182.79">R167</text>
<circle data-id="168" cx="577.21" cy="-1133.75" r="10.00px"/>
<text data-id="168" x="577.21" y="-1133.75">R168</text>
<circle data-id="169" cx="814.29" cy="-799.52" r="10.00px"/>
<text data-id="169" x="814.29" y="-799.52">R169</text>
<circle data-id="170" cx="513.57" cy="-754.37" r="10.00px"/>
<text data-id="170" x="513.57" y="-754.37">R170</text>
<circle data-id="171" cx="746.44" cy="-978.52" r="10.00px"/>
<text data-id="171" x="746.44" y="-978.52">R171</text>
<circle data-id="172" cx="734.58" cy="-160.78" r="10.00px"/>
<text data-id="172" x="734.58" y="-160.78">R172</text>
<circle data-id="173" cx="786.83" cy="-13.66" r="10.00px"/>
<text data-id="173" x="786.83" y="-13.66">R173</text>
<circle data-id="174" cx="517.17" cy="-1035.43" r="10.00px"/>
<text data-id="174" x="517.17" y="-1035.43">R174</text>
</svg>
