<svg width="1395.39" height="1386.04" viewBox="-31.79 -21.17 1395.39 1386.04" xmlns="http://www.w3.org/2000/svg">
<style>path {fill: none; stroke: grey; stroke-width: 6;} circle {fill: lightblue; stroke: none;} text {fill: black; stroke: none; font-size: 16; font-family: sans-serif; text-anchor:middle;}</style>
<path d="M1052.45,103.89,1173.79,101.83"/>
<path d="M1052.45,103.89,952.65,204.42"/>
<path d="M1052.45,103.89,1087.84,202.39"/>
<path d="M1052.45,103.89,1057.14,68.03"/>
<path d="M1052.45,103.89,951.09,73.06"/>
<path d="M917.48,182.92,952.65,204.42"/>
<path d="M917.48,182.92,787.40,122.95"/>
<path d="M917.48,182.92,795.25,214.77"/>
<path d="M917.48,182.92,847.24,73.44"/>
<path d="M917.48,182.92,951.09,73.06"/>
<path d="M917.48,182.92,868.37,275.67"/>
<path d="M1118.23,1237.03,1165.78,1249.20"/>
<path d="M1118.23,1237.03,1116.33,1314.65"/>
<path d="M1118.23,1237.03,1104.29,1192.89"/>
<path d="M270.60,1016.92,340.15,1008.22"/>
<path d="M270.60,1016.92,279.98,1175.27"/>
<path d="M270.60,1016.92,204.88,976.87"/>
<path d="M156.35,792.15,41.79,712.84"/>
<path d="M156.35,792.15,203.86,737.13"/>
<path d="M156.35,792.15,78.28,886.00"/>
<path d="M156.35,792.15,204.88,976.87"/>
<path d="M1142.05,34.16,1173.79,101.83"/>
<path d="M1142.05,34.16,1115.41,23.83"/>
<path d="M1027.40,664.46,995.52,646.27"/>
<path d="M1027.40,664.46,1056.78,705.46"/>
<path d="M1027.40,664.46,1098.65,627.58"/>
<path d="M1027.40,664.46,953.63,742.97"/>
<path d="M495.07,876.72,431.34,861.69"/>
<path d="M495.07,876.72,536.77,862.51"/>
<path d="M495.07,876.72,494.54,778.55"/>
<path d="M423.67,1115.25,460.00,1117.50"/>
<path d="M423.67,1115.25,340.15,1008.22"/>
<path d="M423.67,1115.25,369.45,1131.79"/>
<path d="M1173.79,101.83,1087.84,202.39"/>
<path d="M1173.79,101.83,1251.27,101.63"/>
<path d="M64.63,1167.29,132.98,1208.96"/>
<path d="M64.63,1167.29,78.28,886.00"/>
<path d="M64.63,1167.29,204.88,976.87"/>
<path d="M612.63,1247.35,673.24,1300.51"/>
<path d="M612.63,1247.35,592.40,1171.45"/>
<path d="M612.63,1247.35,564.67,1289.58"/>
<path d="M612.63,1247.35,689.20,1199.52"/>
<path d="M33.23,552.89,110.80,508.09"/>
<path d="M33.23,552.89,13.21,578.14"/>
<path d="M33.23,552.89,143.88,619.42"/>
<path d="M460.00,1117.50,592.40,1171.45"/>
<path d="M460.00,1117.50,557.67,1042.23"/>
<path d="M698.19,784.57,631.75,904.37"/>
<path d="M698.19,784.57,752.28,736.48"/>
<path d="M698.19,784.57,690.24,739.43"/>
<path d="M698.19,784.57,649.99,770.10"/>
<path d="M952.65,204.42,1085.33,279.49"/>
<path d="M952.65,204.42,1087.84,202.39"/>
<path d="M952.65,204.42,991.09,318.70"/>
<path d="M952.65,204.42,934.44,326.12"/>
<path d="M952.65,204.42,868.37,275.67"/>
<path d="M41.79,712.84,13.21,578.14"/>
<path d="M41.79,712.84,78.28,886.00"/>
<path d="M41.79,712.84,143.88,619.42"/>
<path d="M360.14,146.56,279.11,107.18"/>
<path d="M360.14,146.56,485.33,193.10"/>
<path d="M360.14,146.56,323.00,235.32"/>
<path d="M360.14,146.56,460.52,42.21"/>
<path d="M360.14,146.56,270.21,204.14"/>
<path d="M392.41,539.37,456.11,633.00"/>
<path d="M392.41,539.37,307.52,710.61"/>
<path d="M392.41,539.37,439.59,501.92"/>
<path d="M392.41,539.37,252.17,653.69"/>
<path d="M392.41,539.37,417.49,480.04"/>
<path d="M392.41,539.37,211.19,557.23"/>
<path d="M392.41,539.37,335.41,447.86"/>
<path d="M646.87,430.43,795.25,214.77"/>
<path d="M646.87,430.43,538.65,396.38"/>
<path d="M646.87,430.43,690.85,182.79"/>
<path d="M646.87,430.43,825.56,420.36"/>
<path d="M646.87,430.43,554.96,367.21"/>
<path d="M646.87,430.43,621.84,471.17"/>
<path d="M995.52,646.27,900.24,595.22"/>
<path d="M995.52,646.27,953.63,742.97"/>
<path d="M970.39,355.88,925.75,384.29"/>
<path d="M970.39,355.88,991.09,318.70"/>
<path d="M970.39,355.88,934.44,326.12"/>
<path d="M970.39,355.88,985.77,384.32"/>
<path d="M462.74,314.50,435.54,359.41"/>
<path d="M462.74,314.50,485.33,193.10"/>
<path d="M462.74,314.50,539.46,232.98"/>
<path d="M462.74,314.50,554.96,367.21"/>
<path d="M188.97,477.66,110.80,508.09"/>
<path d="M188.97,477.66,211.19,557.23"/>
<path d="M188.97,477.66,166.80,567.87"/>
<path d="M188.97,477.66,134.41,434.68"/>
<path d="M188.97,477.66,224.52,392.21"/>
<path d="M188.97,477.66,335.41,447.86"/>
<path d="M925.41,1309.83,867.90,1304.33"/>
<path d="M925.41,1309.83,981.00,1230.60"/>
<path d="M345.87,1157.04,279.98,1175.27"/>
<path d="M345.87,1157.04,369.45,1131.79"/>
<path d="M595.14,797.23,631.75,904.37"/>
<path d="M595.14,797.23,536.77,862.51"/>
<path d="M595.14,797.23,560.12,780.65"/>
<path d="M595.14,797.23,620.54,763.86"/>
<path d="M1307.92,1208.68,1318.59,1016.61"/>
<path d="M1307.92,1208.68,1255.77,1032.70"/>
<path d="M1307.92,1208.68,1237.77,1204.68"/>
<path d="M1318.59,1016.61,1255.77,1032.70"/>
<path d="M1318.59,1016.61,1261.13,1000.71"/>
<path d="M333.15,734.71,456.11,633.00"/>
<path d="M333.15,734.71,307.52,710.61"/>
<path d="M333.15,734.71,431.34,861.69"/>
<path d="M333.15,734.71,494.54,778.55"/>
<path d="M631.75,904.37,590.94,970.89"/>
<path d="M631.75,904.37,536.77,862.51"/>
<path d="M631.75,904.37,658.33,923.61"/>
<path d="M812.05,87.03,787.40,122.95"/>
<path d="M812.05,87.03,772.16,79.30"/>
<path d="M812.05,87.03,847.24,73.44"/>
<path d="M1255.77,1032.70,1261.13,1000.71"/>
<path d="M1255.77,1032.70,1237.77,1204.68"/>
<path d="M165.70,359.76,234.34,226.12"/>
<path d="M165.70,359.76,133.98,370.80"/>
<path d="M165.70,359.76,224.52,392.21"/>
<path d="M1086.75,575.02,1070.84,549.24"/>
<path d="M1086.75,575.02,1098.65,627.58"/>
<path d="M1086.75,575.02,1233.10,528.57"/>
<path d="M1122.61,305.67,1117.22,242.83"/>
<path d="M1122.61,305.67,1085.33,279.49"/>
<path d="M1122.61,305.67,1101.75,373.18"/>
<path d="M1122.61,305.67,1167.35,291.12"/>
<path d="M1117.22,242.83,1085.33,279.49"/>
<path d="M1117.22,242.83,1087.84,202.39"/>
<path d="M1117.22,242.83,1167.35,291.12"/>
<path d="M825.57,927.18,848.85,848.38"/>
<path d="M825.57,927.18,989.35,1047.55"/>
<path d="M825.57,927.18,788.14,1087.48"/>
<path d="M825.57,927.18,892.86,1089.71"/>
<path d="M825.57,927.18,658.33,923.61"/>
<path d="M456.11,633.00,500.06,542.38"/>
<path d="M456.11,633.00,525.13,608.57"/>
<path d="M456.11,633.00,494.54,778.55"/>
<path d="M1102.02,852.82,1056.78,705.46"/>
<path d="M1102.02,852.82,1130.69,706.84"/>
<path d="M1102.02,852.82,1115.39,878.28"/>
<path d="M1102.02,852.82,994.96,860.04"/>
<path d="M251.14,1256.09,279.98,1175.27"/>
<path d="M251.14,1256.09,132.98,1208.96"/>
<path d="M251.14,1256.09,308.58,1286.94"/>
<path d="M307.52,710.61,252.17,653.69"/>
<path d="M307.52,710.61,203.86,737.13"/>
<path d="M1251.14,892.08,1292.64,850.10"/>
<path d="M1251.14,892.08,1261.13,1000.71"/>
<path d="M1251.14,892.08,1183.23,861.84"/>
<path d="M435.54,359.41,538.65,396.38"/>
<path d="M435.54,359.41,417.49,480.04"/>
<path d="M435.54,359.41,518.17,433.79"/>
<path d="M435.54,359.41,405.29,348.16"/>
<path d="M881.31,776.91,853.01,794.10"/>
<path d="M881.31,776.91,953.63,742.97"/>
<path d="M881.31,776.91,978.46,803.41"/>
<path d="M1110.58,970.47,1138.05,911.04"/>
<path d="M1110.58,970.47,1095.15,994.46"/>
<path d="M1110.58,970.47,1261.13,1000.71"/>
<path d="M439.59,501.92,500.06,542.38"/>
<path d="M439.59,501.92,417.49,480.04"/>
<path d="M439.59,501.92,505.75,491.14"/>
<path d="M1070.84,549.24,938.59,517.70"/>
<path d="M1070.84,549.24,1101.75,373.18"/>
<path d="M1070.84,549.24,963.53,416.67"/>
<path d="M340.15,1008.22,431.34,861.69"/>
<path d="M340.15,1008.22,369.45,1131.79"/>
<path d="M1056.78,705.46,1098.65,627.58"/>
<path d="M1056.78,705.46,1130.69,706.84"/>
<path d="M1056.78,705.46,953.63,742.97"/>
<path d="M1056.78,705.46,978.46,803.41"/>
<path d="M1085.33,279.49,991.09,318.70"/>
<path d="M787.40,122.95,795.25,214.77"/>
<path d="M787.40,122.95,772.16,79.30"/>
<path d="M787.40,122.95,690.85,182.79"/>
<path d="M673.24,1300.51,716.08,1261.39"/>
<path d="M1098.65,627.58,1130.69,706.84"/>
<path d="M252.17,653.69,203.86,737.13"/>
<path d="M252.17,653.69,143.88,619.42"/>
<path d="M252.17,653.69,211.19,557.23"/>
<path d="M795.25,214.77,690.85,182.79"/>
<path d="M795.25,214.77,868.37,275.67"/>
<path d="M1209.99,1239.61,1165.78,1249.20"/>
<path d="M1209.99,1239.61,1237.77,1204.68"/>
<path d="M431.34,861.69,494.54,778.55"/>
<path d="M1165.78,1249.20,1116.33,1314.65"/>
<path d="M1313.97,245.29,1292.13,192.01"/>
<path d="M1313.97,245.29,1263.08,300.81"/>
<path d="M1313.97,245.29,1265.27,228.06"/>
<path d="M234.34,226.12,32.88,225.84"/>
<path d="M234.34,226.12,270.21,204.14"/>
<path d="M867.90,1304.33,807.57,1243.71"/>
<path d="M867.90,1304.33,837.50,1319.87"/>
<path d="M642.01,683.65,716.84,687.37"/>
<path d="M642.01,683.65,525.13,608.57"/>
<path d="M642.01,683.65,690.24,739.43"/>
<path d="M642.01,683.65,649.99,770.10"/>
<path d="M642.01,683.65,640.64,575.64"/>
<path d="M642.01,683.65,620.54,763.86"/>
<path d="M110.80,508.09,166.80,567.87"/>
<path d="M110.80,508.09,134.41,434.68"/>
<path d="M1283.24,127.86,1292.13,192.01"/>
<path d="M1283.24,127.86,1251.27,101.63"/>
<path d="M279.11,107.18,248.02,36.80"/>
<path d="M279.11,107.18,270.21,204.14"/>
<path d="M1130.69,706.84,1234.33,695.85"/>
<path d="M1130.69,706.84,1183.23,861.84"/>
<path d="M203.86,737.13,143.88,619.42"/>
<path d="M1270.65,416.34,1101.75,373.18"/>
<path d="M1270.65,416.34,1263.08,300.81"/>
<path d="M1270.65,416.34,1260.56,506.16"/>
<path d="M925.75,384.29,909.75,421.38"/>
<path d="M925.75,384.29,963.53,416.67"/>
<path d="M925.75,384.29,934.44,326.12"/>
<path d="M925.75,384.29,985.77,384.32"/>
<path d="M1292.64,850.10,1234.33,695.85"/>
<path d="M1022.97,1096.50,1095.15,994.46"/>
<path d="M1022.97,1096.50,989.35,1047.55"/>
<path d="M1022.97,1096.50,1020.76,1209.63"/>
<path d="M1022.97,1096.50,1104.29,1192.89"/>
<path d="M538.65,396.38,518.17,433.79"/>
<path d="M538.65,396.38,554.96,367.21"/>
<path d="M538.65,396.38,621.84,471.17"/>
<path d="M772.16,79.30,652.06,79.31"/>
<path d="M279.98,1175.27,132.98,1208.96"/>
<path d="M500.06,542.38,525.13,608.57"/>
<path d="M500.06,542.38,505.75,491.14"/>
<path d="M716.84,687.37,877.25,562.82"/>
<path d="M716.84,687.37,752.28,736.48"/>
<path d="M716.84,687.37,690.24,739.43"/>
<path d="M716.84,687.37,900.24,595.22"/>
<path d="M132.98,1208.96,204.88,976.87"/>
<path d="M525.13,608.57,640.64,575.64"/>
<path d="M525.13,608.57,560.12,780.65"/>
<path d="M652.06,79.31,690.85,182.79"/>
<path d="M652.06,79.31,584.26,79.51"/>
<path d="M877.25,562.82,938.59,517.70"/>
<path d="M877.25,562.82,833.85,471.42"/>
<path d="M877.25,562.82,900.24,595.22"/>
<path d="M590.94,970.89,557.67,1042.23"/>
<path d="M590.94,970.89,536.77,862.51"/>
<path d="M590.94,970.89,658.33,923.61"/>
<path d="M752.28,736.48,690.24,739.43"/>
<path d="M752.28,736.48,900.24,595.22"/>
<path d="M752.28,736.48,853.01,794.10"/>
<path d="M909.75,421.38,938.59,517.70"/>
<path d="M909.75,421.38,833.85,471.42"/>
<path d="M909.75,421.38,963.53,416.67"/>
<path d="M909.75,421.38,825.56,420.36"/>
<path d="M78.28,886.00,204.88,976.87"/>
<path d="M485.33,193.10,539.46,232.98"/>
<path d="M485.33,193.10,542.07,195.73"/>
<path d="M485.33,193.10,460.52,42.21"/>
<path d="M1233.10,528.57,1101.75,373.18"/>
<path d="M1233.10,528.57,1234.33,695.85"/>
<path d="M1233.10,528.57,1260.56,506.16"/>
<path d="M690.85,182.79,542.07,195.73"/>
<path d="M1138.05,911.04,1115.39,878.28"/>
<path d="M1138.05,911.04,1261.13,1000.71"/>
<path d="M1138.05,911.04,1183.23,861.84"/>
<path d="M938.59,517.70,833.85,471.42"/>
<path d="M938.59,517.70,963.53,416.67"/>
<path d="M807.57,1243.71,837.50,1319.87"/>
<path d="M807.57,1243.71,716.08,1261.39"/>
<path d="M807.57,1243.71,783.54,1204.51"/>
<path d="M32.88,225.84,133.98,370.80"/>
<path d="M833.85,471.42,825.56,420.36"/>
<path d="M833.85,471.42,696.78,525.13"/>
<path d="M143.88,619.42,166.80,567.87"/>
<path d="M1115.39,878.28,1183.23,861.84"/>
<path d="M1095.15,994.46,1058.63,972.15"/>
<path d="M1101.75,373.18,991.09,318.70"/>
<path d="M1101.75,373.18,985.77,384.32"/>
<path d="M690.24,739.43,649.99,770.10"/>
<path d="M649.99,770.10,620.54,763.86"/>
<path d="M1057.14,68.03,1115.41,23.83"/>
<path d="M1057.14,68.03,951.09,73.06"/>
<path d="M417.49,480.04,335.41,447.86"/>
<path d="M211.19,557.23,166.80,567.87"/>
<path d="M211.19,557.23,335.41,447.86"/>
<path d="M1167.35,291.12,1263.08,300.81"/>
<path d="M1167.35,291.12,1265.27,228.06"/>
<path d="M584.26,79.51,556.80,88.79"/>
<path d="M592.40,1171.45,557.67,1042.23"/>
<path d="M592.40,1171.45,689.20,1199.52"/>
<path d="M853.01,794.10,849.73,820.81"/>
<path d="M849.73,820.81,848.85,848.38"/>
<path d="M518.17,433.79,505.75,491.14"/>
<path d="M518.17,433.79,621.84,471.17"/>
<path d="M556.80,88.79,542.07,195.73"/>
<path d="M556.80,88.79,460.52,42.21"/>
<path d="M564.67,1289.58,308.58,1286.94"/>
<path d="M963.53,416.67,985.77,384.32"/>
<path d="M323.00,235.32,405.29,348.16"/>
<path d="M323.00,235.32,224.52,392.21"/>
<path d="M323.00,235.32,270.21,204.14"/>
<path d="M848.85,848.38,994.96,860.04"/>
<path d="M640.64,575.64,621.84,471.17"/>
<path d="M640.64,575.64,696.78,525.13"/>
<path d="M1292.13,192.01,1265.27,228.06"/>
<path d="M989.35,1047.55,1058.63,972.15"/>
<path d="M989.35,1047.55,892.86,1089.71"/>
<path d="M847.24,73.44,951.09,73.06"/>
<path d="M1234.33,695.85,1183.23,861.84"/>
<path d="M825.56,420.36,868.37,275.67"/>
<path d="M539.46,232.98,554.96,367.21"/>
<path d="M539.46,232.98,542.07,195.73"/>
<path d="M557.67,1042.23,788.14,1087.48"/>
<path d="M337.93,400.51,405.29,348.16"/>
<path d="M337.93,400.51,224.52,392.21"/>
<path d="M337.93,400.51,335.41,447.86"/>
<path d="M994.96,860.04,1058.63,972.15"/>
<path d="M994.96,860.04,978.46,803.41"/>
<path d="M133.98,370.80,134.41,434.68"/>
<path d="M133.98,370.80,104.33,422.29"/>
<path d="M991.09,318.70,934.44,326.12"/>
<path d="M1263.08,300.81,1265.27,228.06"/>
<path d="M716.08,1261.39,783.54,1204.51"/>
<path d="M716.08,1261.39,689.20,1199.52"/>
<path d="M536.77,862.51,560.12,780.65"/>
<path d="M536.77,862.51,494.54,778.55"/>
<path d="M1020.76,1209.63,1104.29,1192.89"/>
<path d="M1020.76,1209.63,981.00,1230.60"/>
<path d="M560.12,780.65,494.54,778.55"/>
<path d="M934.44,326.12,868.37,275.67"/>
<path d="M783.54,1204.51,689.20,1199.52"/>
<path d="M783.54,1204.51,788.14,1087.48"/>
<path d="M505.75,491.14,621.84,471.17"/>
<path d="M689.20,1199.52,788.14,1087.48"/>
<path d="M788.14,1087.48,892.86,1089.71"/>
<path d="M788.14,1087.48,658.33,923.61"/>
<path d="M134.41,434.68,104.33,422.29"/>
<path d="M134.41,434.68,224.52,392.21"/>
<path d="M953.63,742.97,978.46,803.41"/>
<path d="M621.84,471.17,696.78,525.13"/>
<path d="M981.00,1230.60,892.86,1089.71"/>
<circle cx="1052.45" cy="103.89" r="10"/>
<text x="1052.45" y="108.89">R0</text>
<circle cx="917.48" cy="182.92" r="10"/>
<text x="917.48" y="187.92">R1</text>
<circle cx="1118.23" cy="1237.03" r="10"/>
<text x="1118.23" y="1242.03">R2</text>
<circle cx="270.60" cy="1016.92" r="10"/>
<text x="270.60" y="1021.92">R3</text>
<circle cx="156.35" cy="792.15" r="10"/>
<text x="156.35" y="797.15">R4</text>
<circle cx="1142.05" cy="34.16" r="10"/>
<text x="1142.05" y="39.16">R5</text>
<circle cx="1027.40" cy="664.46" r="10"/>
<text x="1027.40" y="669.46">R6</text>
<circle cx="495.07" cy="876.72" r="10"/>
<text x="495.07" y="881.72">R7</text>
<circle cx="423.67" cy="1115.25" r="10"/>
<text x="423.67" y="1120.25">R8</text>
<circle cx="1173.79" cy="101.83" r="10"/>
<text x="1173.79" y="106.83">R9</text>
<circle cx="64.63" cy="1167.29" r="10"/>
<text x="64.63" y="1172.29">R10</text>
<circle cx="612.63" cy="1247.35" r="10"/>
<text x="612.63" y="1252.35">R11</text>
<circle cx="33.23" cy="552.89" r="10"/>
<text x="33.23" y="557.89">R12</text>
<circle cx="460.00" cy="1117.50" r="10"/>
<text x="460.00" y="1122.50">R13</text>
<circle cx="698.19" cy="784.57" r="10"/>
<text x="698.19" y="789.57">R14</text>
<circle cx="952.65" cy="204.42" r="10"/>
<text x="952.65" y="209.42">R15</text>
<circle cx="41.79" cy="712.84" r="10"/>
<text x="41.79" y="717.84">R16</text>
<circle cx="360.14" cy="146.56" r="10"/>
<text x="360.14" y="151.56">R17</text>
<circle cx="392.41" cy="539.37" r="10"/>
<text x="392.41" y="544.37">R18</text>
<circle cx="646.87" cy="430.43" r="10"/>
<text x="646.87" y="435.43">R19</text>
<circle cx="995.52" cy="646.27" r="10"/>
<text x="995.52" y="651.27">R20</text>
<circle cx="970.39" cy="355.88" r="10"/>
<text x="970.39" y="360.88">R21</text>
<circle cx="462.74" cy="314.50" r="10"/>
<text x="462.74" y="319.50">R22</text>
<circle cx="188.97" cy="477.66" r="10"/>
<text x="188.97" y="482.66">R23</text>
<circle cx="925.41" cy="1309.83" r="10"/>
<text x="925.41" y="1314.83">R24</text>
<circle cx="345.87" cy="1157.04" r="10"/>
<text x="345.87" y="1162.04">R25</text>
<circle cx="595.14" cy="797.23" r="10"/>
<text x="595.14" y="802.23">R26</text>
<circle cx="1307.92" cy="1208.68" r="10"/>
<text x="1307.92" y="1213.68">R27</text>
<circle cx="1318.59" cy="1016.61" r="10"/>
<text x="1318.59" y="1021.61">R28</text>
<circle cx="333.15" cy="734.71" r="10"/>
<text x="333.15" y="739.71">R29</text>
<circle cx="631.75" cy="904.37" r="10"/>
<text x="631.75" y="909.37">R30</text>
<circle cx="812.05" cy="87.03" r="10"/>
<text x="812.05" y="92.03">R31</text>
<circle cx="1255.77" cy="1032.70" r="10"/>
<text x="1255.77" y="1037.70">R32</text>
<circle cx="165.70" cy="359.76" r="10"/>
<text x="165.70" y="364.76">R33</text>
<circle cx="1086.75" cy="575.02" r="10"/>
<text x="1086.75" y="580.02">R34</text>
<circle cx="1122.61" cy="305.67" r="10"/>
<text x="1122.61" y="310.67">R35</text>
<circle cx="1117.22" cy="242.83" r="10"/>
<text x="1117.22" y="247.83">R36</text>
<circle cx="825.57" cy="927.18" r="10"/>
<text x="825.57" y="932.18">R37</text>
<circle cx="456.11" cy="633.00" r="10"/>
<text x="456.11" y="638.00">R38</text>
<circle cx="1102.02" cy="852.82" r="10"/>
<text x="1102.02" y="857.82">R39</text>
<circle cx="251.14" cy="1256.09" r="10"/>
<text x="251.14" y="1261.09">R40</text>
<circle cx="307.52" cy="710.61" r="10"/>
<text x="307.52" y="715.61">R41</text>
<circle cx="1251.14" cy="892.08" r="10"/>
<text x="1251.14" y="897.08">R42</text>
<circle cx="435.54" cy="359.41" r="10"/>
<text x="435.54" y="364.41">R43</text>
<circle cx="881.31" cy="776.91" r="10"/>
<text x="881.31" y="781.91">R44</text>
<circle cx="1110.58" cy="970.47" r="10"/>
<text x="1110.58" y="975.47">R45</text>
<circle cx="439.59" cy="501.92" r="10"/>
<text x="439.59" y="506.92">R46</text>
<circle cx="1070.84" cy="549.24" r="10"/>
<text x="1070.84" y="554.24">R47</text>
<circle cx="340.15" cy="1008.22" r="10"/>
<text x="340.15" y="1013.22">R48</text>
<circle cx="1056.78" cy="705.46" r="10"/>
<text x="1056.78" y="710.46">R49</text>
<circle cx="1085.33" cy="279.49" r="10"/>
<text x="1085.33" y="284.49">R50</text>
<circle cx="787.40" cy="122.95" r="10"/>
<text x="787.40" y="127.95">R51</text>
<circle cx="673.24" cy="1300.51" r="10"/>
<text x="673.24" y="1305.51">R52</text>
<circle cx="1098.65" cy="627.58" r="10"/>
<text x="1098.65" y="632.58">R53</text>
<circle cx="252.17" cy="653.69" r="10"/>
<text x="252.17" y="658.69">R54</text>
<circle cx="1087.84" cy="202.39" r="10"/>
<text x="1087.84" y="207.39">R55</text>
<circle cx="795.25" cy="214.77" r="10"/>
<text x="795.25" y="219.77">R56</text>
<circle cx="1209.99" cy="1239.61" r="10"/>
<text x="1209.99" y="1244.61">R57</text>
<circle cx="431.34" cy="861.69" r="10"/>
<text x="431.34" y="866.69">R58</text>
<circle cx="1165.78" cy="1249.20" r="10"/>
<text x="1165.78" y="1254.20">R59</text>
<circle cx="1313.97" cy="245.29" r="10"/>
<text x="1313.97" y="250.29">R60</text>
<circle cx="234.34" cy="226.12" r="10"/>
<text x="234.34" y="231.12">R61</text>
<circle cx="867.90" cy="1304.33" r="10"/>
<text x="867.90" y="1309.33">R62</text>
<circle cx="642.01" cy="683.65" r="10"/>
<text x="642.01" y="688.65">R63</text>
<circle cx="110.80" cy="508.09" r="10"/>
<text x="110.80" y="513.09">R64</text>
<circle cx="1283.24" cy="127.86" r="10"/>
<text x="1283.24" y="132.86">R65</text>
<circle cx="279.11" cy="107.18" r="10"/>
<text x="279.11" y="112.18">R66</text>
<circle cx="1130.69" cy="706.84" r="10"/>
<text x="1130.69" y="711.84">R67</text>
<circle cx="203.86" cy="737.13" r="10"/>
<text x="203.86" y="742.13">R68</text>
<circle cx="1270.65" cy="416.34" r="10"/>
<text x="1270.65" y="421.34">R69</text>
<circle cx="925.75" cy="384.29" r="10"/>
<text x="925.75" y="389.29">R70</text>
<circle cx="1292.64" cy="850.10" r="10"/>
<text x="1292.64" y="855.10">R71</text>
<circle cx="1022.97" cy="1096.50" r="10"/>
<text x="1022.97" y="1101.50">R72</text>
<circle cx="538.65" cy="396.38" r="10"/>
<text x="538.65" y="401.38">R73</text>
<circle cx="772.16" cy="79.30" r="10"/>
<text x="772.16" y="84.30">R74</text>
<circle cx="279.98" cy="1175.27" r="10"/>
<text x="279.98" y="1180.27">R75</text>
<circle cx="500.06" cy="542.38" r="10"/>
<text x="500.06" y="547.38">R76</text>
<circle cx="716.84" cy="687.37" r="10"/>
<text x="716.84" y="692.37">R77</text>
<circle cx="132.98" cy="1208.96" r="10"/>
<text x="132.98" y="1213.96">R78</text>
<circle cx="13.21" cy="578.14" r="10"/>
<text x="13.21" y="583.14">R79</text>
<circle cx="525.13" cy="608.57" r="10"/>
<text x="525.13" y="613.57">R80</text>
<circle cx="652.06" cy="79.31" r="10"/>
<text x="652.06" y="84.31">R81</text>
<circle cx="877.25" cy="562.82" r="10"/>
<text x="877.25" y="567.82">R82</text>
<circle cx="590.94" cy="970.89" r="10"/>
<text x="590.94" y="975.89">R83</text>
<circle cx="752.28" cy="736.48" r="10"/>
<text x="752.28" y="741.48">R84</text>
<circle cx="909.75" cy="421.38" r="10"/>
<text x="909.75" y="426.38">R85</text>
<circle cx="78.28" cy="886.00" r="10"/>
<text x="78.28" y="891.00">R86</text>
<circle cx="485.33" cy="193.10" r="10"/>
<text x="485.33" y="198.10">R87</text>
<circle cx="1233.10" cy="528.57" r="10"/>
<text x="1233.10" y="533.57">R88</text>
<circle cx="690.85" cy="182.79" r="10"/>
<text x="690.85" y="187.79">R89</text>
<circle cx="1138.05" cy="911.04" r="10"/>
<text x="1138.05" y="916.04">R90</text>
<circle cx="938.59" cy="517.70" r="10"/>
<text x="938.59" y="522.70">R91</text>
<circle cx="807.57" cy="1243.71" r="10"/>
<text x="807.57" y="1248.71">R92</text>
<circle cx="32.88" cy="225.84" r="10"/>
<text x="32.88" y="230.84">R93</text>
<circle cx="833.85" cy="471.42" r="10"/>
<text x="833.85" y="476.42">R94</text>
<circle cx="143.88" cy="619.42" r="10"/>
<text x="143.88" y="624.42">R95</text>
<circle cx="1115.39" cy="878.28" r="10"/>
<text x="1115.39" y="883.28">R96</text>
<circle cx="1095.15" cy="994.46" r="10"/>
<text x="1095.15" y="999.46">R97</text>
<circle cx="1101.75" cy="373.18" r="10"/>
<text x="1101.75" y="378.18">R98</text>
<circle cx="690.24" cy="739.43" r="10"/>
<text x="690.24" y="744.43">R99</text>
<circle cx="649.99" cy="770.10" r="10"/>
<text x="649.99" y="775.10">R100</text>
<circle cx="1057.14" cy="68.03" r="10"/>
<text x="1057.14" y="73.03">R101</text>
<circle cx="417.49" cy="480.04" r="10"/>
<text x="417.49" y="485.04">R102</text>
<circle cx="211.19" cy="557.23" r="10"/>
<text x="211.19" y="562.23">R103</text>
<circle cx="837.50" cy="1319.87" r="10"/>
<text x="837.50" y="1324.87">R104</text>
<circle cx="1167.35" cy="291.12" r="10"/>
<text x="1167.35" y="296.12">R105</text>
<circle cx="900.24" cy="595.22" r="10"/>
<text x="900.24" y="600.22">R106</text>
<circle cx="584.26" cy="79.51" r="10"/>
<text x="584.26" y="84.51">R107</text>
<circle cx="592.40" cy="1171.45" r="10"/>
<text x="592.40" y="1176.45">R108</text>
<circle cx="853.01" cy="794.10" r="10"/>
<text x="853.01" y="799.10">R109</text>
<circle cx="1115.41" cy="23.83" r="10"/>
<text x="1115.41" y="28.83">R110</text>
<circle cx="849.73" cy="820.81" r="10"/>
<text x="849.73" y="825.81">R111</text>
<circle cx="518.17" cy="433.79" r="10"/>
<text x="518.17" y="438.79">R112</text>
<circle cx="556.80" cy="88.79" r="10"/>
<text x="556.80" y="93.79">R113</text>
<circle cx="564.67" cy="1289.58" r="10"/>
<text x="564.67" y="1294.58">R114</text>
<circle cx="1116.33" cy="1314.65" r="10"/>
<text x="1116.33" y="1319.65">R115</text>
<circle cx="963.53" cy="416.67" r="10"/>
<text x="963.53" y="421.67">R116</text>
<circle cx="323.00" cy="235.32" r="10"/>
<text x="323.00" y="240.32">R117</text>
<circle cx="848.85" cy="848.38" r="10"/>
<text x="848.85" y="853.38">R118</text>
<circle cx="640.64" cy="575.64" r="10"/>
<text x="640.64" y="580.64">R119</text>
<circle cx="1292.13" cy="192.01" r="10"/>
<text x="1292.13" y="197.01">R120</text>
<circle cx="1251.27" cy="101.63" r="10"/>
<text x="1251.27" y="106.63">R121</text>
<circle cx="989.35" cy="1047.55" r="10"/>
<text x="989.35" y="1052.55">R122</text>
<circle cx="847.24" cy="73.44" r="10"/>
<text x="847.24" y="78.44">R123</text>
<circle cx="1234.33" cy="695.85" r="10"/>
<text x="1234.33" y="700.85">R124</text>
<circle cx="825.56" cy="420.36" r="10"/>
<text x="825.56" y="425.36">R125</text>
<circle cx="539.46" cy="232.98" r="10"/>
<text x="539.46" y="237.98">R126</text>
<circle cx="557.67" cy="1042.23" r="10"/>
<text x="557.67" y="1047.23">R127</text>
<circle cx="337.93" cy="400.51" r="10"/>
<text x="337.93" y="405.51">R128</text>
<circle cx="554.96" cy="367.21" r="10"/>
<text x="554.96" y="372.21">R129</text>
<circle cx="308.58" cy="1286.94" r="10"/>
<text x="308.58" y="1291.94">R130</text>
<circle cx="994.96" cy="860.04" r="10"/>
<text x="994.96" y="865.04">R131</text>
<circle cx="133.98" cy="370.80" r="10"/>
<text x="133.98" y="375.80">R132</text>
<circle cx="991.09" cy="318.70" r="10"/>
<text x="991.09" y="323.70">R133</text>
<circle cx="1263.08" cy="300.81" r="10"/>
<text x="1263.08" y="305.81">R134</text>
<circle cx="716.08" cy="1261.39" r="10"/>
<text x="716.08" y="1266.39">R135</text>
<circle cx="536.77" cy="862.51" r="10"/>
<text x="536.77" y="867.51">R136</text>
<circle cx="1261.13" cy="1000.71" r="10"/>
<text x="1261.13" y="1005.71">R137</text>
<circle cx="1020.76" cy="1209.63" r="10"/>
<text x="1020.76" y="1214.63">R138</text>
<circle cx="542.07" cy="195.73" r="10"/>
<text x="542.07" y="200.73">R139</text>
<circle cx="1058.63" cy="972.15" r="10"/>
<text x="1058.63" y="977.15">R140</text>
<circle cx="560.12" cy="780.65" r="10"/>
<text x="560.12" y="785.65">R141</text>
<circle cx="166.80" cy="567.87" r="10"/>
<text x="166.80" y="572.87">R142</text>
<circle cx="369.45" cy="1131.79" r="10"/>
<text x="369.45" y="1136.79">R143</text>
<circle cx="951.09" cy="73.06" r="10"/>
<text x="951.09" y="78.06">R144</text>
<circle cx="934.44" cy="326.12" r="10"/>
<text x="934.44" y="331.12">R145</text>
<circle cx="405.29" cy="348.16" r="10"/>
<text x="405.29" y="353.16">R146</text>
<circle cx="783.54" cy="1204.51" r="10"/>
<text x="783.54" y="1209.51">R147</text>
<circle cx="494.54" cy="778.55" r="10"/>
<text x="494.54" y="783.55">R148</text>
<circle cx="505.75" cy="491.14" r="10"/>
<text x="505.75" y="496.14">R149</text>
<circle cx="620.54" cy="763.86" r="10"/>
<text x="620.54" y="768.86">R150</text>
<circle cx="689.20" cy="1199.52" r="10"/>
<text x="689.20" y="1204.52">R151</text>
<circle cx="788.14" cy="1087.48" r="10"/>
<text x="788.14" y="1092.48">R152</text>
<circle cx="1260.56" cy="506.16" r="10"/>
<text x="1260.56" y="511.16">R153</text>
<circle cx="134.41" cy="434.68" r="10"/>
<text x="134.41" y="439.68">R154</text>
<circle cx="1183.23" cy="861.84" r="10"/>
<text x="1183.23" y="866.84">R155</text>
<circle cx="953.63" cy="742.97" r="10"/>
<text x="953.63" y="747.97">R156</text>
<circle cx="1265.27" cy="228.06" r="10"/>
<text x="1265.27" y="233.06">R157</text>
<circle cx="1237.77" cy="1204.68" r="10"/>
<text x="1237.77" y="1209.68">R158</text>
<circle cx="1104.29" cy="1192.89" r="10"/>
<text x="1104.29" y="1197.89">R159</text>
<circle cx="621.84" cy="471.17" r="10"/>
<text x="621.84" y="476.17">R160</text>
<circle cx="248.02" cy="36.80" r="10"/>
<text x="248.02" y="41.80">R161</text>
<circle cx="981.00" cy="1230.60" r="10"/>
<text x="981.00" y="1235.60">R162</text>
<circle cx="985.77" cy="384.32" r="10"/>
<text x="985.77" y="389.32">R163</text>
<circle cx="868.37" cy="275.67" r="10"/>
<text x="868.37" y="280.67">R164</text>
<circle cx="978.46" cy="803.41" r="10"/>
<text x="978.46" y="808.41">R165</text>
<circle cx="204.88" cy="976.87" r="10"/>
<text x="204.88" y="981.87">R166</text>
<circle cx="892.86" cy="1089.71" r="10"/>
<text x="892.86" y="1094.71">R167</text>
<circle cx="104.33" cy="422.29" r="10"/>
<text x="104.33" y="427.29">R168</text>
<circle cx="696.78" cy="525.13" r="10"/>
<text x="696.78" y="530.13">R169</text>
<circle cx="224.52" cy="392.21" r="10"/>
<text x="224.52" y="397.21">R170</text>
<circle cx="335.41" cy="447.86" r="10"/>
<text x="335.41" y="452.86">R171</text>
<circle cx="460.52" cy="42.21" r="10"/>
<text x="460.52" y="47.21">R172</text>
<circle cx="658.33" cy="923.61" r="10"/>
<text x="658.33" y="928.61">R173</text>
<circle cx="270.21" cy="204.14" r="10"/>
<text x="270.21" y="209.14">R174</text>
</svg>
