<svg id="topo" viewBox="-52.06 -1384.67 1435.92 1425.64" xmlns="http://www.w3.org/2000/svg">
<style>#topo path {fill: none; stroke: grey; stroke-width: 5.0000px;} #topo circle {fill: lightblue; stroke: none; stroke-width: 0.3px; vector-effect: non-scaling-stroke; r: 10.0000px;} #topo text {fill: black; stroke: none; font-size: 15.0000px; font-family: sans-serif; text-anchor:middle; transform: translateY(0.3em);} #topo path.country {fill: lightgrey; stroke: black; stroke-width: 1px; vector-effect: non-scaling-stroke; visibility: visible;} #topo path.selection {fill: none; stroke: red; stroke-width: 1px; vector-effect: non-scaling-stroke; visibility: visible;} #topo path.utilization {visibility: hidden;}</style>
<path data-id="0-9" d="M1052.45,-103.89,1173.79,-101.83"/>
<path data-id="0-15" d="M1052.45,-103.89,952.65,-204.42"/>
<path data-id="0-55" d="M1052.45,-103.89,1087.84,-202.39"/>
<path data-id="0-101" d="M1052.45,-103.89,1057.14,-68.03"/>
<path data-id="0-144" d="M1052.45,-103.89,951.09,-73.06"/>
<path data-id="1-15" d="M917.48,-182.92,952.65,-204.42"/>
<path data-id="1-51" d="M917.48,-182.92,787.40,-122.95"/>
<path data-id="1-56" d="M917.48,-182.92,795.25,-214.77"/>
<path data-id="1-123" d="M917.48,-182.92,847.24,-73.44"/>
<path data-id="1-144" d="M917.48,-182.92,951.09,-73.06"/>
<path data-id="1-164" d="M917.48,-182.92,868.37,-275.67"/>
<path data-id="2-59" d="M1118.23,-1237.03,1165.78,-1249.20"/>
<path data-id="2-115" d="M1118.23,-1237.03,1116.33,-1314.65"/>
<path data-id="2-159" d="M1118.23,-1237.03,1104.29,-1192.89"/>
<path data-id="3-48" d="M270.60,-1016.92,340.15,-1008.22"/>
<path data-id="3-75" d="M270.60,-1016.92,279.98,-1175.27"/>
<path data-id="3-166" d="M270.60,-1016.92,204.88,-976.87"/>
<path data-id="4-16" d="M156.35,-792.15,41.79,-712.84"/>
<path data-id="4-68" d="M156.35,-792.15,203.86,-737.13"/>
<path data-id="4-86" d="M156.35,-792.15,78.28,-886.00"/>
<path data-id="4-166" d="M156.35,-792.15,204.88,-976.87"/>
<path data-id="5-9" d="M1142.05,-34.16,1173.79,-101.83"/>
<path data-id="5-110" d="M1142.05,-34.16,1115.41,-23.83"/>
<path data-id="6-20" d="M1027.40,-664.46,995.52,-646.27"/>
<path data-id="6-49" d="M1027.40,-664.46,1056.78,-705.46"/>
<path data-id="6-53" d="M1027.40,-664.46,1098.65,-627.58"/>
<path data-id="6-156" d="M1027.40,-664.46,953.63,-742.97"/>
<path data-id="7-58" d="M495.07,-876.72,431.34,-861.69"/>
<path data-id="7-136" d="M495.07,-876.72,536.77,-862.51"/>
<path data-id="7-148" d="M495.07,-876.72,494.54,-778.55"/>
<path data-id="8-13" d="M423.67,-1115.25,460.00,-1117.50"/>
<path data-id="8-48" d="M423.67,-1115.25,340.15,-1008.22"/>
<path data-id="8-143" d="M423.67,-1115.25,369.45,-1131.79"/>
<path data-id="9-55" d="M1173.79,-101.83,1087.84,-202.39"/>
<path data-id="9-121" d="M1173.79,-101.83,1251.27,-101.63"/>
<path data-id="10-78" d="M64.63,-1167.29,132.98,-1208.96"/>
<path data-id="10-86" d="M64.63,-1167.29,78.28,-886.00"/>
<path data-id="10-166" d="M64.63,-1167.29,204.88,-976.87"/>
<path data-id="11-52" d="M612.63,-1247.35,673.24,-1300.51"/>
<path data-id="11-108" d="M612.63,-1247.35,592.40,-1171.45"/>
<path data-id="11-114" d="M612.63,-1247.35,564.67,-1289.58"/>
<path data-id="11-151" d="M612.63,-1247.35,689.20,-1199.52"/>
<path data-id="12-64" d="M33.23,-552.89,110.80,-508.09"/>
<path data-id="12-79" d="M33.23,-552.89,13.21,-578.14"/>
<path data-id="12-95" d="M33.23,-552.89,143.88,-619.42"/>
<path data-id="13-108" d="M460.00,-1117.50,592.40,-1171.45"/>
<path data-id="13-127" d="M460.00,-1117.50,557.67,-1042.23"/>
<path data-id="14-30" d="M698.19,-784.57,631.75,-904.37"/>
<path data-id="14-84" d="M698.19,-784.57,752.28,-736.48"/>
<path data-id="14-99" d="M698.19,-784.57,690.24,-739.43"/>
<path data-id="14-100" d="M698.19,-784.57,649.99,-770.10"/>
<path data-id="15-50" d="M952.65,-204.42,1085.33,-279.49"/>
<path data-id="15-55" d="M952.65,-204.42,1087.84,-202.39"/>
<path data-id="15-133" d="M952.65,-204.42,991.09,-318.70"/>
<path data-id="15-145" d="M952.65,-204.42,934.44,-326.12"/>
<path data-id="15-164" d="M952.65,-204.42,868.37,-275.67"/>
<path data-id="16-79" d="M41.79,-712.84,13.21,-578.14"/>
<path data-id="16-86" d="M41.79,-712.84,78.28,-886.00"/>
<path data-id="16-95" d="M41.79,-712.84,143.88,-619.42"/>
<path data-id="17-66" d="M360.14,-146.56,279.11,-107.18"/>
<path data-id="17-87" d="M360.14,-146.56,485.33,-193.10"/>
<path data-id="17-117" d="M360.14,-146.56,323.00,-235.32"/>
<path data-id="17-172" d="M360.14,-146.56,460.52,-42.21"/>
<path data-id="17-174" d="M360.14,-146.56,270.21,-204.14"/>
<path data-id="18-38" d="M392.41,-539.37,456.11,-633.00"/>
<path data-id="18-41" d="M392.41,-539.37,307.52,-710.61"/>
<path data-id="18-46" d="M392.41,-539.37,439.59,-501.92"/>
<path data-id="18-54" d="M392.41,-539.37,252.17,-653.69"/>
<path data-id="18-102" d="M392.41,-539.37,417.49,-480.04"/>
<path data-id="18-103" d="M392.41,-539.37,211.19,-557.23"/>
<path data-id="18-171" d="M392.41,-539.37,335.41,-447.86"/>
<path data-id="19-56" d="M646.87,-430.43,795.25,-214.77"/>
<path data-id="19-73" d="M646.87,-430.43,538.65,-396.38"/>
<path data-id="19-89" d="M646.87,-430.43,690.85,-182.79"/>
<path data-id="19-125" d="M646.87,-430.43,825.56,-420.36"/>
<path data-id="19-129" d="M646.87,-430.43,554.96,-367.21"/>
<path data-id="19-160" d="M646.87,-430.43,621.84,-471.17"/>
<path data-id="20-106" d="M995.52,-646.27,900.24,-595.22"/>
<path data-id="20-156" d="M995.52,-646.27,953.63,-742.97"/>
<path data-id="21-70" d="M970.39,-355.88,925.75,-384.29"/>
<path data-id="21-133" d="M970.39,-355.88,991.09,-318.70"/>
<path data-id="21-145" d="M970.39,-355.88,934.44,-326.12"/>
<path data-id="21-163" d="M970.39,-355.88,985.77,-384.32"/>
<path data-id="22-43" d="M462.74,-314.50,435.54,-359.41"/>
<path data-id="22-87" d="M462.74,-314.50,485.33,-193.10"/>
<path data-id="22-126" d="M462.74,-314.50,539.46,-232.98"/>
<path data-id="22-129" d="M462.74,-314.50,554.96,-367.21"/>
<path data-id="23-64" d="M188.97,-477.66,110.80,-508.09"/>
<path data-id="23-103" d="M188.97,-477.66,211.19,-557.23"/>
<path data-id="23-142" d="M188.97,-477.66,166.80,-567.87"/>
<path data-id="23-154" d="M188.97,-477.66,134.41,-434.68"/>
<path data-id="23-170" d="M188.97,-477.66,224.52,-392.21"/>
<path data-id="23-171" d="M188.97,-477.66,335.41,-447.86"/>
<path data-id="24-62" d="M925.41,-1309.83,867.90,-1304.33"/>
<path data-id="24-162" d="M925.41,-1309.83,981.00,-1230.60"/>
<path data-id="25-75" d="M345.87,-1157.04,279.98,-1175.27"/>
<path data-id="25-143" d="M345.87,-1157.04,369.45,-1131.79"/>
<path data-id="26-30" d="M595.14,-797.23,631.75,-904.37"/>
<path data-id="26-136" d="M595.14,-797.23,536.77,-862.51"/>
<path data-id="26-141" d="M595.14,-797.23,560.12,-780.65"/>
<path data-id="26-150" d="M595.14,-797.23,620.54,-763.86"/>
<path data-id="27-28" d="M1307.92,-1208.68,1318.59,-1016.61"/>
<path data-id="27-32" d="M1307.92,-1208.68,1255.77,-1032.70"/>
<path data-id="27-158" d="M1307.92,-1208.68,1237.77,-1204.68"/>
<path data-id="28-32" d="M1318.59,-1016.61,1255.77,-1032.70"/>
<path data-id="28-137" d="M1318.59,-1016.61,1261.13,-1000.71"/>
<path data-id="29-38" d="M333.15,-734.71,456.11,-633.00"/>
<path data-id="29-41" d="M333.15,-734.71,307.52,-710.61"/>
<path data-id="29-58" d="M333.15,-734.71,431.34,-861.69"/>
<path data-id="29-148" d="M333.15,-734.71,494.54,-778.55"/>
<path data-id="30-83" d="M631.75,-904.37,590.94,-970.89"/>
<path data-id="30-136" d="M631.75,-904.37,536.77,-862.51"/>
<path data-id="30-173" d="M631.75,-904.37,658.33,-923.61"/>
<path data-id="31-51" d="M812.05,-87.03,787.40,-122.95"/>
<path data-id="31-74" d="M812.05,-87.03,772.16,-79.30"/>
<path data-id="31-123" d="M812.05,-87.03,847.24,-73.44"/>
<path data-id="32-137" d="M1255.77,-1032.70,1261.13,-1000.71"/>
<path data-id="32-158" d="M1255.77,-1032.70,1237.77,-1204.68"/>
<path data-id="33-61" d="M165.70,-359.76,234.34,-226.12"/>
<path data-id="33-132" d="M165.70,-359.76,133.98,-370.80"/>
<path data-id="33-170" d="M165.70,-359.76,224.52,-392.21"/>
<path data-id="34-47" d="M1086.75,-575.02,1070.84,-549.24"/>
<path data-id="34-53" d="M1086.75,-575.02,1098.65,-627.58"/>
<path data-id="34-88" d="M1086.75,-575.02,1233.10,-528.57"/>
<path data-id="35-36" d="M1122.61,-305.67,1117.22,-242.83"/>
<path data-id="35-50" d="M1122.61,-305.67,1085.33,-279.49"/>
<path data-id="35-98" d="M1122.61,-305.67,1101.75,-373.18"/>
<path data-id="35-105" d="M1122.61,-305.67,1167.35,-291.12"/>
<path data-id="36-50" d="M1117.22,-242.83,1085.33,-279.49"/>
<path data-id="36-55" d="M1117.22,-242.83,1087.84,-202.39"/>
<path data-id="36-105" d="M1117.22,-242.83,1167.35,-291.12"/>
<path data-id="37-118" d="M825.57,-927.18,848.85,-848.38"/>
<path data-id="37-122" d="M825.57,-927.18,989.35,-1047.55"/>
<path data-id="37-152" d="M825.57,-927.18,788.14,-1087.48"/>
<path data-id="37-167" d="M825.57,-927.18,892.86,-1089.71"/>
<path data-id="37-173" d="M825.57,-927.18,658.33,-923.61"/>
<path data-id="38-76" d="M456.11,-633.00,500.06,-542.38"/>
<path data-id="38-80" d="M456.11,-633.00,525.13,-608.57"/>
<path data-id="38-148" d="M456.11,-633.00,494.54,-778.55"/>
<path data-id="39-49" d="M1102.02,-852.82,1056.78,-705.46"/>
<path data-id="39-67" d="M1102.02,-852.82,1130.69,-706.84"/>
<path data-id="39-96" d="M1102.02,-852.82,1115.39,-878.28"/>
<path data-id="39-131" d="M1102.02,-852.82,994.96,-860.04"/>
<path data-id="40-75" d="M251.14,-1256.09,279.98,-1175.27"/>
<path data-id="40-78" d="M251.14,-1256.09,132.98,-1208.96"/>
<path data-id="40-130" d="M251.14,-1256.09,308.58,-1286.94"/>
<path data-id="41-54" d="M307.52,-710.61,252.17,-653.69"/>
<path data-id="41-68" d="M307.52,-710.61,203.86,-737.13"/>
<path data-id="42-71" d="M1251.14,-892.08,1292.64,-850.10"/>
<path data-id="42-137" d="M1251.14,-892.08,1261.13,-1000.71"/>
<path data-id="42-155" d="M1251.14,-892.08,1183.23,-861.84"/>
<path data-id="43-73" d="M435.54,-359.41,538.65,-396.38"/>
<path data-id="43-102" d="M435.54,-359.41,417.49,-480.04"/>
<path data-id="43-112" d="M435.54,-359.41,518.17,-433.79"/>
<path data-id="43-146" d="M435.54,-359.41,405.29,-348.16"/>
<path data-id="44-109" d="M881.31,-776.91,853.01,-794.10"/>
<path data-id="44-156" d="M881.31,-776.91,953.63,-742.97"/>
<path data-id="44-165" d="M881.31,-776.91,978.46,-803.41"/>
<path data-id="45-90" d="M1110.58,-970.47,1138.05,-911.04"/>
<path data-id="45-97" d="M1110.58,-970.47,1095.15,-994.46"/>
<path data-id="45-137" d="M1110.58,-970.47,1261.13,-1000.71"/>
<path data-id="46-76" d="M439.59,-501.92,500.06,-542.38"/>
<path data-id="46-102" d="M439.59,-501.92,417.49,-480.04"/>
<path data-id="46-149" d="M439.59,-501.92,505.75,-491.14"/>
<path data-id="47-91" d="M1070.84,-549.24,938.59,-517.70"/>
<path data-id="47-98" d="M1070.84,-549.24,1101.75,-373.18"/>
<path data-id="47-116" d="M1070.84,-549.24,963.53,-416.67"/>
<path data-id="48-58" d="M340.15,-1008.22,431.34,-861.69"/>
<path data-id="48-143" d="M340.15,-1008.22,369.45,-1131.79"/>
<path data-id="49-53" d="M1056.78,-705.46,1098.65,-627.58"/>
<path data-id="49-67" d="M1056.78,-705.46,1130.69,-706.84"/>
<path data-id="49-156" d="M1056.78,-705.46,953.63,-742.97"/>
<path data-id="49-165" d="M1056.78,-705.46,978.46,-803.41"/>
<path data-id="50-133" d="M1085.33,-279.49,991.09,-318.70"/>
<path data-id="51-56" d="M787.40,-122.95,795.25,-214.77"/>
<path data-id="51-74" d="M787.40,-122.95,772.16,-79.30"/>
<path data-id="51-89" d="M787.40,-122.95,690.85,-182.79"/>
<path data-id="52-135" d="M673.24,-1300.51,716.08,-1261.39"/>
<path data-id="53-67" d="M1098.65,-627.58,1130.69,-706.84"/>
<path data-id="54-68" d="M252.17,-653.69,203.86,-737.13"/>
<path data-id="54-95" d="M252.17,-653.69,143.88,-619.42"/>
<path data-id="54-103" d="M252.17,-653.69,211.19,-557.23"/>
<path data-id="56-89" d="M795.25,-214.77,690.85,-182.79"/>
<path data-id="56-164" d="M795.25,-214.77,868.37,-275.67"/>
<path data-id="57-59" d="M1209.99,-1239.61,1165.78,-1249.20"/>
<path data-id="57-158" d="M1209.99,-1239.61,1237.77,-1204.68"/>
<path data-id="58-148" d="M431.34,-861.69,494.54,-778.55"/>
<path data-id="59-115" d="M1165.78,-1249.20,1116.33,-1314.65"/>
<path data-id="60-120" d="M1313.97,-245.29,1292.13,-192.01"/>
<path data-id="60-134" d="M1313.97,-245.29,1263.08,-300.81"/>
<path data-id="60-157" d="M1313.97,-245.29,1265.27,-228.06"/>
<path data-id="61-93" d="M234.34,-226.12,32.88,-225.84"/>
<path data-id="61-174" d="M234.34,-226.12,270.21,-204.14"/>
<path data-id="62-92" d="M867.90,-1304.33,807.57,-1243.71"/>
<path data-id="62-104" d="M867.90,-1304.33,837.50,-1319.87"/>
<path data-id="63-77" d="M642.01,-683.65,716.84,-687.37"/>
<path data-id="63-80" d="M642.01,-683.65,525.13,-608.57"/>
<path data-id="63-99" d="M642.01,-683.65,690.24,-739.43"/>
<path data-id="63-100" d="M642.01,-683.65,649.99,-770.10"/>
<path data-id="63-119" d="M642.01,-683.65,640.64,-575.64"/>
<path data-id="63-150" d="M642.01,-683.65,620.54,-763.86"/>
<path data-id="64-142" d="M110.80,-508.09,166.80,-567.87"/>
<path data-id="64-154" d="M110.80,-508.09,134.41,-434.68"/>
<path data-id="65-120" d="M1283.24,-127.86,1292.13,-192.01"/>
<path data-id="65-121" d="M1283.24,-127.86,1251.27,-101.63"/>
<path data-id="66-161" d="M279.11,-107.18,248.02,-36.80"/>
<path data-id="66-174" d="M279.11,-107.18,270.21,-204.14"/>
<path data-id="67-124" d="M1130.69,-706.84,1234.33,-695.85"/>
<path data-id="67-155" d="M1130.69,-706.84,1183.23,-861.84"/>
<path data-id="68-95" d="M203.86,-737.13,143.88,-619.42"/>
<path data-id="69-98" d="M1270.65,-416.34,1101.75,-373.18"/>
<path data-id="69-134" d="M1270.65,-416.34,1263.08,-300.81"/>
<path data-id="69-153" d="M1270.65,-416.34,1260.56,-506.16"/>
<path data-id="70-85" d="M925.75,-384.29,909.75,-421.38"/>
<path data-id="70-116" d="M925.75,-384.29,963.53,-416.67"/>
<path data-id="70-145" d="M925.75,-384.29,934.44,-326.12"/>
<path data-id="70-163" d="M925.75,-384.29,985.77,-384.32"/>
<path data-id="71-124" d="M1292.64,-850.10,1234.33,-695.85"/>
<path data-id="72-97" d="M1022.97,-1096.50,1095.15,-994.46"/>
<path data-id="72-122" d="M1022.97,-1096.50,989.35,-1047.55"/>
<path data-id="72-138" d="M1022.97,-1096.50,1020.76,-1209.63"/>
<path data-id="72-159" d="M1022.97,-1096.50,1104.29,-1192.89"/>
<path data-id="73-112" d="M538.65,-396.38,518.17,-433.79"/>
<path data-id="73-129" d="M538.65,-396.38,554.96,-367.21"/>
<path data-id="73-160" d="M538.65,-396.38,621.84,-471.17"/>
<path data-id="74-81" d="M772.16,-79.30,652.06,-79.31"/>
<path data-id="75-78" d="M279.98,-1175.27,132.98,-1208.96"/>
<path data-id="76-80" d="M500.06,-542.38,525.13,-608.57"/>
<path data-id="76-149" d="M500.06,-542.38,505.75,-491.14"/>
<path data-id="77-82" d="M716.84,-687.37,877.25,-562.82"/>
<path data-id="77-84" d="M716.84,-687.37,752.28,-736.48"/>
<path data-id="77-99" d="M716.84,-687.37,690.24,-739.43"/>
<path data-id="77-106" d="M716.84,-687.37,900.24,-595.22"/>
<path data-id="78-166" d="M132.98,-1208.96,204.88,-976.87"/>
<path data-id="80-119" d="M525.13,-608.57,640.64,-575.64"/>
<path data-id="80-141" d="M525.13,-608.57,560.12,-780.65"/>
<path data-id="81-89" d="M652.06,-79.31,690.85,-182.79"/>
<path data-id="81-107" d="M652.06,-79.31,584.26,-79.51"/>
<path data-id="82-91" d="M877.25,-562.82,938.59,-517.70"/>
<path data-id="82-94" d="M877.25,-562.82,833.85,-471.42"/>
<path data-id="82-106" d="M877.25,-562.82,900.24,-595.22"/>
<path data-id="83-127" d="M590.94,-970.89,557.67,-1042.23"/>
<path data-id="83-136" d="M590.94,-970.89,536.77,-862.51"/>
<path data-id="83-173" d="M590.94,-970.89,658.33,-923.61"/>
<path data-id="84-99" d="M752.28,-736.48,690.24,-739.43"/>
<path data-id="84-106" d="M752.28,-736.48,900.24,-595.22"/>
<path data-id="84-109" d="M752.28,-736.48,853.01,-794.10"/>
<path data-id="85-91" d="M909.75,-421.38,938.59,-517.70"/>
<path data-id="85-94" d="M909.75,-421.38,833.85,-471.42"/>
<path data-id="85-116" d="M909.75,-421.38,963.53,-416.67"/>
<path data-id="85-125" d="M909.75,-421.38,825.56,-420.36"/>
<path data-id="86-166" d="M78.28,-886.00,204.88,-976.87"/>
<path data-id="87-126" d="M485.33,-193.10,539.46,-232.98"/>
<path data-id="87-139" d="M485.33,-193.10,542.07,-195.73"/>
<path data-id="87-172" d="M485.33,-193.10,460.52,-42.21"/>
<path data-id="88-98" d="M1233.10,-528.57,1101.75,-373.18"/>
<path data-id="88-124" d="M1233.10,-528.57,1234.33,-695.85"/>
<path data-id="88-153" d="M1233.10,-528.57,1260.56,-506.16"/>
<path data-id="89-139" d="M690.85,-182.79,542.07,-195.73"/>
<path data-id="90-96" d="M1138.05,-911.04,1115.39,-878.28"/>
<path data-id="90-137" d="M1138.05,-911.04,1261.13,-1000.71"/>
<path data-id="90-155" d="M1138.05,-911.04,1183.23,-861.84"/>
<path data-id="91-94" d="M938.59,-517.70,833.85,-471.42"/>
<path data-id="91-116" d="M938.59,-517.70,963.53,-416.67"/>
<path data-id="92-104" d="M807.57,-1243.71,837.50,-1319.87"/>
<path data-id="92-135" d="M807.57,-1243.71,716.08,-1261.39"/>
<path data-id="92-147" d="M807.57,-1243.71,783.54,-1204.51"/>
<path data-id="93-132" d="M32.88,-225.84,133.98,-370.80"/>
<path data-id="94-125" d="M833.85,-471.42,825.56,-420.36"/>
<path data-id="94-169" d="M833.85,-471.42,696.78,-525.13"/>
<path data-id="95-142" d="M143.88,-619.42,166.80,-567.87"/>
<path data-id="96-155" d="M1115.39,-878.28,1183.23,-861.84"/>
<path data-id="97-140" d="M1095.15,-994.46,1058.63,-972.15"/>
<path data-id="98-133" d="M1101.75,-373.18,991.09,-318.70"/>
<path data-id="98-163" d="M1101.75,-373.18,985.77,-384.32"/>
<path data-id="99-100" d="M690.24,-739.43,649.99,-770.10"/>
<path data-id="100-150" d="M649.99,-770.10,620.54,-763.86"/>
<path data-id="101-110" d="M1057.14,-68.03,1115.41,-23.83"/>
<path data-id="101-144" d="M1057.14,-68.03,951.09,-73.06"/>
<path data-id="102-171" d="M417.49,-480.04,335.41,-447.86"/>
<path data-id="103-142" d="M211.19,-557.23,166.80,-567.87"/>
<path data-id="103-171" d="M211.19,-557.23,335.41,-447.86"/>
<path data-id="105-134" d="M1167.35,-291.12,1263.08,-300.81"/>
<path data-id="105-157" d="M1167.35,-291.12,1265.27,-228.06"/>
<path data-id="107-113" d="M584.26,-79.51,556.80,-88.79"/>
<path data-id="108-127" d="M592.40,-1171.45,557.67,-1042.23"/>
<path data-id="108-151" d="M592.40,-1171.45,689.20,-1199.52"/>
<path data-id="109-111" d="M853.01,-794.10,849.73,-820.81"/>
<path data-id="111-118" d="M849.73,-820.81,848.85,-848.38"/>
<path data-id="112-149" d="M518.17,-433.79,505.75,-491.14"/>
<path data-id="112-160" d="M518.17,-433.79,621.84,-471.17"/>
<path data-id="113-139" d="M556.80,-88.79,542.07,-195.73"/>
<path data-id="113-172" d="M556.80,-88.79,460.52,-42.21"/>
<path data-id="114-130" d="M564.67,-1289.58,308.58,-1286.94"/>
<path data-id="116-163" d="M963.53,-416.67,985.77,-384.32"/>
<path data-id="117-146" d="M323.00,-235.32,405.29,-348.16"/>
<path data-id="117-170" d="M323.00,-235.32,224.52,-392.21"/>
<path data-id="117-174" d="M323.00,-235.32,270.21,-204.14"/>
<path data-id="118-131" d="M848.85,-848.38,994.96,-860.04"/>
<path data-id="119-160" d="M640.64,-575.64,621.84,-471.17"/>
<path data-id="119-169" d="M640.64,-575.64,696.78,-525.13"/>
<path data-id="120-157" d="M1292.13,-192.01,1265.27,-228.06"/>
<path data-id="122-140" d="M989.35,-1047.55,1058.63,-972.15"/>
<path data-id="122-167" d="M989.35,-1047.55,892.86,-1089.71"/>
<path data-id="123-144" d="M847.24,-73.44,951.09,-73.06"/>
<path data-id="124-155" d="M1234.33,-695.85,1183.23,-861.84"/>
<path data-id="125-164" d="M825.56,-420.36,868.37,-275.67"/>
<path data-id="126-129" d="M539.46,-232.98,554.96,-367.21"/>
<path data-id="126-139" d="M539.46,-232.98,542.07,-195.73"/>
<path data-id="127-152" d="M557.67,-1042.23,788.14,-1087.48"/>
<path data-id="128-146" d="M337.93,-400.51,405.29,-348.16"/>
<path data-id="128-170" d="M337.93,-400.51,224.52,-392.21"/>
<path data-id="128-171" d="M337.93,-400.51,335.41,-447.86"/>
<path data-id="131-140" d="M994.96,-860.04,1058.63,-972.15"/>
<path data-id="131-165" d="M994.96,-860.04,978.46,-803.41"/>
<path data-id="132-154" d="M133.98,-370.80,134.41,-434.68"/>
<path data-id="132-168" d="M133.98,-370.80,104.33,-422.29"/>
<path data-id="133-145" d="M991.09,-318.70,934.44,-326.12"/>
<path data-id="134-157" d="M1263.08,-300.81,1265.27,-228.06"/>
<path data-id="135-147" d="M716.08,-1261.39,783.54,-1204.51"/>
<path data-id="135-151" d="M716.08,-1261.39,689.20,-1199.52"/>
<path data-id="136-141" d="M536.77,-862.51,560.12,-780.65"/>
<path data-id="136-148" d="M536.77,-862.51,494.54,-778.55"/>
<path data-id="138-159" d="M1020.76,-1209.63,1104.29,-1192.89"/>
<path data-id="138-162" d="M1020.76,-1209.63,981.00,-1230.60"/>
<path data-id="141-148" d="M560.12,-780.65,494.54,-778.55"/>
<path data-id="145-164" d="M934.44,-326.12,868.37,-275.67"/>
<path data-id="147-151" d="M783.54,-1204.51,689.20,-1199.52"/>
<path data-id="147-152" d="M783.54,-1204.51,788.14,-1087.48"/>
<path data-id="149-160" d="M505.75,-491.14,621.84,-471.17"/>
<path data-id="151-152" d="M689.20,-1199.52,788.14,-1087.48"/>
<path data-id="152-167" d="M788.14,-1087.48,892.86,-1089.71"/>
<path data-id="152-173" d="M788.14,-1087.48,658.33,-923.61"/>
<path data-id="154-168" d="M134.41,-434.68,104.33,-422.29"/>
<path data-id="154-170" d="M134.41,-434.68,224.52,-392.21"/>
<path data-id="156-165" d="M953.63,-742.97,978.46,-803.41"/>
<path data-id="160-169" d="M621.84,-471.17,696.78,-525.13"/>
<path data-id="162-167" d="M981.00,-1230.60,892.86,-1089.71"/>
<circle data-id="0" cx="1052.45" cy="-103.89" r="10.00px"/>
<text data-id="0" x="1052.45" y="-103.89">R0</text>
<circle data-id="1" cx="917.48" cy="-182.92" r="10.00px"/>
<text data-id="1" x="917.48" y="-182.92">R1</text>
<circle data-id="2" cx="1118.23" cy="-1237.03" r="10.00px"/>
<text data-id="2" x="1118.23" y="-1237.03">R2</text>
<circle data-id="3" cx="270.60" cy="-1016.92" r="10.00px"/>
<text data-id="3" x="270.60" y="-1016.92">R3</text>
<circle data-id="4" cx="156.35" cy="-792.15" r="10.00px"/>
<text data-id="4" x="156.35" y="-792.15">R4</text>
<circle data-id="5" cx="1142.05" cy="-34.16" r="10.00px"/>
<text data-id="5" x="1142.05" y="-34.16">R5</text>
<circle data-id="6" cx="1027.40" cy="-664.46" r="10.00px"/>
<text data-id="6" x="1027.40" y="-664.46">R6</text>
<circle data-id="7" cx="495.07" cy="-876.72" r="10.00px"/>
<text data-id="7" x="495.07" y="-876.72">R7</text>
<circle data-id="8" cx="423.67" cy="-1115.25" r="10.00px"/>
<text data-id="8" x="423.67" y="-1115.25">R8</text>
<circle data-id="9" cx="1173.79" cy="-101.83" r="10.00px"/>
<text data-id="9" x="1173.79" y="-101.83">R9</text>
<circle data-id="10" cx="64.63" cy="-1167.29" r="10.00px"/>
<text data-id="10" x="64.63" y="-1167.29">R10</text>
<circle data-id="11" cx="612.63" cy="-1247.35" r="10.00px"/>
<text data-id="11" x="612.63" y="-1247.35">R11</text>
<circle data-id="12" cx="33.23" cy="-552.89" r="10.00px"/>
<text data-id="12" x="33.23" y="-552.89">R12</text>
<circle data-id="13" cx="460.00" cy="-1117.50" r="10.00px"/>
<text data-id="13" x="460.00" y="-1117.50">R13</text>
<circle data-id="14" cx="698.19" cy="-784.57" r="10.00px"/>
<text data-id="14" x="698.19" y="-784.57">R14</text>
<circle data-id="15" cx="952.65" cy="-204.42" r="10.00px"/>
<text data-id="15" x="952.65" y="-204.42">R15</text>
<circle data-id="16" cx="41.79" cy="-712.84" r="10.00px"/>
<text data-id="16" x="41.79" y="-712.84">R16</text>
<circle data-id="17" cx="360.14" cy="-146.56" r="10.00px"/>
<text data-id="17" x="360.14" y="-146.56">R17</text>
<circle data-id="18" cx="392.41" cy="-539.37" r="10.00px"/>
<text data-id="18" x="392.41" y="-539.37">R18</text>
<circle data-id="19" cx="646.87" cy="-430.43" r="10.00px"/>
<text data-id="19" x="646.87" y="-430.43">R19</text>
<circle data-id="20" cx="995.52" cy="-646.27" r="10.00px"/>
<text data-id="20" x="995.52" y="-646.27">R20</text>
<circle data-id="21" cx="970.39" cy="-355.88" r="10.00px"/>
<text data-id="21" x="970.39" y="-355.88">R21</text>
<circle data-id="22" cx="462.74" cy="-314.50" r="10.00px"/>
<text data-id="22" x="462.74" y="-314.50">R22</text>
<circle data-id="23" cx="188.97" cy="-477.66" r="10.00px"/>
<text data-id="23" x="188.97" y="-477.66">R23</text>
<circle data-id="24" cx="925.41" cy="-1309.83" r="10.00px"/>
<text data-id="24" x="925.41" y="-1309.83">R24</text>
<circle data-id="25" cx="345.87" cy="-1157.04" r="10.00px"/>
<text data-id="25" x="345.87" y="-1157.04">R25</text>
<circle data-id="26" cx="595.14" cy="-797.23" r="10.00px"/>
<text data-id="26" x="595.14" y="-797.23">R26</text>
<circle data-id="27" cx="1307.92" cy="-1208.68" r="10.00px"/>
<text data-id="27" x="1307.92" y="-1208.68">R27</text>
<circle data-id="28" cx="1318.59" cy="-1016.61" r="10.00px"/>
<text data-id="28" x="1318.59" y="-1016.61">R28</text>
<circle data-id="29" cx="333.15" cy="-734.71" r="10.00px"/>
<text data-id="29" x="333.15" y="-734.71">R29</text>
<circle data-id="30" cx="631.75" cy="-904.37" r="10.00px"/>
<text data-id="30" x="631.75" y="-904.37">R30</text>
<circle data-id="31" cx="812.05" cy="-87.03" r="10.00px"/>
<text data-id="31" x="812.05" y="-87.03">R31</text>
<circle data-id="32" cx="1255.77" cy="-1032.70" r="10.00px"/>
<text data-id="32" x="1255.77" y="-1032.70">R32</text>
<circle data-id="33" cx="165.70" cy="-359.76" r="10.00px"/>
<text data-id="33" x="165.70" y="-359.76">R33</text>
<circle data-id="34" cx="1086.75" cy="-575.02" r="10.00px"/>
<text data-id="34" x="1086.75" y="-575.02">R34</text>
<circle data-id="35" cx="1122.61" cy="-305.67" r="10.00px"/>
<text data-id="35" x="1122.61" y="-305.67">R35</text>
<circle data-id="36" cx="1117.22" cy="-242.83" r="10.00px"/>
<text data-id="36" x="1117.22" y="-242.83">R36</text>
<circle data-id="37" cx="825.57" cy="-927.18" r="10.00px"/>
<text data-id="37" x="825.57" y="-927.18">R37</text>
<circle data-id="38" cx="456.11" cy="-633.00" r="10.00px"/>
<text data-id="38" x="456.11" y="-633.00">R38</text>
<circle data-id="39" cx="1102.02" cy="-852.82" r="10.00px"/>
<text data-id="39" x="1102.02" y="-852.82">R39</text>
<circle data-id="40" cx="251.14" cy="-1256.09" r="10.00px"/>
<text data-id="40" x="251.14" y="-1256.09">R40</text>
<circle data-id="41" cx="307.52" cy="-710.61" r="10.00px"/>
<text data-id="41" x="307.52" y="-710.61">R41</text>
<circle data-id="42" cx="1251.14" cy="-892.08" r="10.00px"/>
<text data-id="42" x="1251.14" y="-892.08">R42</text>
<circle data-id="43" cx="435.54" cy="-359.41" r="10.00px"/>
<text data-id="43" x="435.54" y="-359.41">R43</text>
<circle data-id="44" cx="881.31" cy="-776.91" r="10.00px"/>
<text data-id="44" x="881.31" y="-776.91">R44</text>
<circle data-id="45" cx="1110.58" cy="-970.47" r="10.00px"/>
<text data-id="45" x="1110.58" y="-970.47">R45</text>
<circle data-id="46" cx="439.59" cy="-501.92" r="10.00px"/>
<text data-id="46" x="439.59" y="-501.92">R46</text>
<circle data-id="47" cx="1070.84" cy="-549.24" r="10.00px"/>
<text data-id="47" x="1070.84" y="-549.24">R47</text>
<circle data-id="48" cx="340.15" cy="-1008.22" r="10.00px"/>
<text data-id="48" x="340.15" y="-1008.22">R48</text>
<circle data-id="49" cx="1056.78" cy="-705.46" r="10.00px"/>
<text data-id="49" x="1056.78" y="-705.46">R49</text>
<circle data-id="50" cx="1085.33" cy="-279.49" r="10.00px"/>
<text data-id="50" x="1085.33" y="-279.49">R50</text>
<circle data-id="51" cx="787.40" cy="-122.95" r="10.00px"/>
<text data-id="51" x="787.40" y="-122.95">R51</text>
<circle data-id="52" cx="673.24" cy="-1300.51" r="10.00px"/>
<text data-id="52" x="673.24" y="-1300.51">R52</text>
<circle data-id="53" cx="1098.65" cy="-627.58" r="10.00px"/>
<text data-id="53" x="1098.65" y="-627.58">R53</text>
<circle data-id="54" cx="252.17" cy="-653.69" r="10.00px"/>
<text data-id="54" x="252.17" y="-653.69">R54</text>
<circle data-id="55" cx="1087.84" cy="-202.39" r="10.00px"/>
<text data-id="55" x="1087.84" y="-202.39">R55</text>
<circle data-id="56" cx="795.25" cy="-214.77" r="10.00px"/>
<text data-id="56" x="795.25" y="-214.77">R56</text>
<circle data-id="57" cx="1209.99" cy="-1239.61" r="10.00px"/>
<text data-id="57" x="1209.99" y="-1239.61">R57</text>
<circle data-id="58" cx="431.34" cy="-861.69" r="10.00px"/>
<text data-id="58" x="431.34" y="-861.69">R58</text>
<circle data-id="59" cx="1165.78" cy="-1249.20" r="10.00px"/>
<text data-id="59" x="1165.78" y="-1249.20">R59</text>
<circle data-id="60" cx="1313.97" cy="-245.29" r="10.00px"/>
<text data-id="60" x="1313.97" y="-245.29">R60</text>
<circle data-id="61" cx="234.34" cy="-226.12" r="10.00px"/>
<text data-id="61" x="234.34" y="-226.12">R61</text>
<circle data-id="62" cx="867.90" cy="-1304.33" r="10.00px"/>
<text data-id="62" x="867.90" y="-1304.33">R62</text>
<circle data-id="63" cx="642.01" cy="-683.65" r="10.00px"/>
<text data-id="63" x="642.01" y="-683.65">R63</text>
<circle data-id="64" cx="110.80" cy="-508.09" r="10.00px"/>
<text data-id="64" x="110.80" y="-508.09">R64</text>
<circle data-id="65" cx="1283.24" cy="-127.86" r="10.00px"/>
<text data-id="65" x="1283.24" y="-127.86">R65</text>
<circle data-id="66" cx="279.11" cy="-107.18" r="10.00px"/>
<text data-id="66" x="279.11" y="-107.18">R66</text>
<circle data-id="67" cx="1130.69" cy="-706.84" r="10.00px"/>
<text data-id="67" x="1130.69" y="-706.84">R67</text>
<circle data-id="68" cx="203.86" cy="-737.13" r="10.00px"/>
<text data-id="68" x="203.86" y="-737.13">R68</text>
<circle data-id="69" cx="1270.65" cy="-416.34" r="10.00px"/>
<text data-id="69" x="1270.65" y="-416.34">R69</text>
<circle data-id="70" cx="925.75" cy="-384.29" r="10.00px"/>
<text data-id="70" x="925.75" y="-384.29">R70</text>
<circle data-id="71" cx="1292.64" cy="-850.10" r="10.00px"/>
<text data-id="71" x="1292.64" y="-850.10">R71</text>
<circle data-id="72" cx="1022.97" cy="-1096.50" r="10.00px"/>
<text data-id="72" x="1022.97" y="-1096.50">R72</text>
<circle data-id="73" cx="538.65" cy="-396.38" r="10.00px"/>
<text data-id="73" x="538.65" y="-396.38">R73</text>
<circle data-id="74" cx="772.16" cy="-79.30" r="10.00px"/>
<text data-id="74" x="772.16" y="-79.30">R74</text>
<circle data-id="75" cx="279.98" cy="-1175.27" r="10.00px"/>
<text data-id="75" x="279.98" y="-1175.27">R75</text>
<circle data-id="76" cx="500.06" cy="-542.38" r="10.00px"/>
<text data-id="76" x="500.06" y="-542.38">R76</text>
<circle data-id="77" cx="716.84" cy="-687.37" r="10.00px"/>
<text data-id="77" x="716.84" y="-687.37">R77</text>
<circle data-id="78" cx="132.98" cy="-1208.96" r="10.00px"/>
<text data-id="78" x="132.98" y="-1208.96">R78</text>
<circle data-id="79" cx="13.21" cy="-578.14" r="10.00px"/>
<text data-id="79" x="13.21" y="-578.14">R79</text>
<circle data-id="80" cx="525.13" cy="-608.57" r="10.00px"/>
<text data-id="80" x="525.13" y="-608.57">R80</text>
<circle data-id="81" cx="652.06" cy="-79.31" r="10.00px"/>
<text data-id="81" x="652.06" y="-79.31">R81</text>
<circle data-id="82" cx="877.25" cy="-562.82" r="10.00px"/>
<text data-id="82" x="877.25" y="-562.82">R82</text>
<circle data-id="83" cx="590.94" cy="-970.89" r="10.00px"/>
<text data-id="83" x="590.94" y="-970.89">R83</text>
<circle data-id="84" cx="752.28" cy="-736.48" r="10.00px"/>
<text data-id="84" x="752.28" y="-736.48">R84</text>
<circle data-id="85" cx="909.75" cy="-421.38" r="10.00px"/>
<text data-id="85" x="909.75" y="-421.38">R85</text>
<circle data-id="86" cx="78.28" cy="-886.00" r="10.00px"/>
<text data-id="86" x="78.28" y="-886.00">R86</text>
<circle data-id="87" cx="485.33" cy="-193.10" r="10.00px"/>
<text data-id="87" x="485.33" y="-193.10">R87</text>
<circle data-id="88" cx="1233.10" cy="-528.57" r="10.00px"/>
<text data-id="88" x="1233.10" y="-528.57">R88</text>
<circle data-id="89" cx="690.85" cy="-182.79" r="10.00px"/>
<text data-id="89" x="690.85" y="-182.79">R89</text>
<circle data-id="90" cx="1138.05" cy="-911.04" r="10.00px"/>
<text data-id="90" x="1138.05" y="-911.04">R90</text>
<circle data-id="91" cx="938.59" cy="-517.70" r="10.00px"/>
<text data-id="91" x="938.59" y="-517.70">R91</text>
<circle data-id="92" cx="807.57" cy="-1243.71" r="10.00px"/>
<text data-id="92" x="807.57" y="-1243.71">R92</text>
<circle data-id="93" cx="32.88" cy="-225.84" r="10.00px"/>
<text data-id="93" x="32.88" y="-225.84">R93</text>
<circle data-id="94" cx="833.85" cy="-471.42" r="10.00px"/>
<text data-id="94" x="833.85" y="-471.42">R94</text>
<circle data-id="95" cx="143.88" cy="-619.42" r="10.00px"/>
<text data-id="95" x="143.88" y="-619.42">R95</text>
<circle data-id="96" cx="1115.39" cy="-878.28" r="10.00px"/>
<text data-id="96" x="1115.39" y="-878.28">R96</text>
<circle data-id="97" cx="1095.15" cy="-994.46" r="10.00px"/>
<text data-id="97" x="1095.15" y="-994.46">R97</text>
<circle data-id="98" cx="1101.75" cy="-373.18" r="10.00px"/>
<text data-id="98" x="1101.75" y="-373.18">R98</text>
<circle data-id="99" cx="690.24" cy="-739.43" r="10.00px"/>
<text data-id="99" x="690.24" y="-739.43">R99</text>
<circle data-id="100" cx="649.99" cy="-770.10" r="10.00px"/>
<text data-id="100" x="649.99" y="-770.10">R100</text>
<circle data-id="101" cx="1057.14" cy="-68.03" r="10.00px"/>
<text data-id="101" x="1057.14" y="-68.03">R101</text>
<circle data-id="102" cx="417.49" cy="-480.04" r="10.00px"/>
<text data-id="102" x="417.49" y="-480.04">R102</text>
<circle data-id="103" cx="211.19" cy="-557.23" r="10.00px"/>
<text data-id="103" x="211.19" y="-557.23">R103</text>
<circle data-id="104" cx="837.50" cy="-1319.87" r="10.00px"/>
<text data-id="104" x="837.50" y="-1319.87">R104</text>
<circle data-id="105" cx="1167.35" cy="-291.12" r="10.00px"/>
<text data-id="105" x="1167.35" y="-291.12">R105</text>
<circle data-id="106" cx="900.24" cy="-595.22" r="10.00px"/>
<text data-id="106" x="900.24" y="-595.22">R106</text>
<circle data-id="107" cx="584.26" cy="-79.51" r="10.00px"/>
<text data-id="107" x="584.26" y="-79.51">R107</text>
<circle data-id="108" cx="592.40" cy="-1171.45" r="10.00px"/>
<text data-id="108" x="592.40" y="-1171.45">R108</text>
<circle data-id="109" cx="853.01" cy="-794.10" r="10.00px"/>
<text data-id="109" x="853.01" y="-794.10">R109</text>
<circle data-id="110" cx="1115.41" cy="-23.83" r="10.00px"/>
<text data-id="110" x="1115.41" y="-23.83">R110</text>
<circle data-id="111" cx="849.73" cy="-820.81" r="10.00px"/>
<text data-id="111" x="849.73" y="-820.81">R111</text>
<circle data-id="112" cx="518.17" cy="-433.79" r="10.00px"/>
<text data-id="112" x="518.17" y="-433.79">R112</text>
<circle data-id="113" cx="556.80" cy="-88.79" r="10.00px"/>
<text data-id="113" x="556.80" y="-88.79">R113</text>
<circle data-id="114" cx="564.67" cy="-1289.58" r="10.00px"/>
<text data-id="114" x="564.67" y="-1289.58">R114</text>
<circle data-id="115" cx="1116.33" cy="-1314.65" r="10.00px"/>
<text data-id="115" x="1116.33" y="-1314.65">R115</text>
<circle data-id="116" cx="963.53" cy="-416.67" r="10.00px"/>
<text data-id="116" x="963.53" y="-416.67">R116</text>
<circle data-id="117" cx="323.00" cy="-235.32" r="10.00px"/>
<text data-id="117" x="323.00" y="-235.32">R117</text>
<circle data-id="118" cx="848.85" cy="-848.38" r="10.00px"/>
<text data-id="118" x="848.85" y="-848.38">R118</text>
<circle data-id="119" cx="640.64" cy="-575.64" r="10.00px"/>
<text data-id="119" x="640.64" y="-575.64">R119</text>
<circle data-id="120" cx="1292.13" cy="-192.01" r="10.00px"/>
<text data-id="120" x="1292.13" y="-192.01">R120</text>
<circle data-id="121" cx="1251.27" cy="-101.63" r="10.00px"/>
<text data-id="121" x="1251.27" y="-101.63">R121</text>
<circle data-id="122" cx="989.35" cy="-1047.55" r="10.00px"/>
<text data-id="122" x="989.35" y="-1047.55">R122</text>
<circle data-id="123" cx="847.24" cy="-73.44" r="10.00px"/>
<text data-id="123" x="847.24" y="-73.44">R123</text>
<circle data-id="124" cx="1234.33" cy="-695.85" r="10.00px"/>
<text data-id="124" x="1234.33" y="-695.85">R124</text>
<circle data-id="125" cx="825.56" cy="-420.36" r="10.00px"/>
<text data-id="125" x="825.56" y="-420.36">R125</text>
<circle data-id="126" cx="539.46" cy="-232.98" r="10.00px"/>
<text data-id="126" x="539.46" y="-232.98">R126</text>
<circle data-id="127" cx="557.67" cy="-1042.23" r="10.00px"/>
<text data-id="127" x="557.67" y="-1042.23">R127</text>
<circle data-id="128" cx="337.93" cy="-400.51" r="10.00px"/>
<text data-id="128" x="337.93" y="-400.51">R128</text>
<circle data-id="129" cx="554.96" cy="-367.21" r="10.00px"/>
<text data-id="129" x="554.96" y="-367.21">R129</text>
<circle data-id="130" cx="308.58" cy="-1286.94" r="10.00px"/>
<text data-id="130" x="308.58" y="-1286.94">R130</text>
<circle data-id="131" cx="994.96" cy="-860.04" r="10.00px"/>
<text data-id="131" x="994.96" y="-860.04">R131</text>
<circle data-id="132" cx="133.98" cy="-370.80" r="10.00px"/>
<text data-id="132" x="133.98" y="-370.80">R132</text>
<circle data-id="133" cx="991.09" cy="-318.70" r="10.00px"/>
<text data-id="133" x="991.09" y="-318.70">R133</text>
<circle data-id="134" cx="1263.08" cy="-300.81" r="10.00px"/>
<text data-id="134" x="1263.08" y="-300.81">R134</text>
<circle data-id="135" cx="716.08" cy="-1261.39" r="10.00px"/>
<text data-id="135" x="716.08" y="-1261.39">R135</text>
<circle data-id="136" cx="536.77" cy="-862.51" r="10.00px"/>
<text data-id="136" x="536.77" y="-862.51">R136</text>
<circle data-id="137" cx="1261.13" cy="-1000.71" r="10.00px"/>
<text data-id="137" x="1261.13" y="-1000.71">R137</text>
<circle data-id="138" cx="1020.76" cy="-1209.63" r="10.00px"/>
<text data-id="138" x="1020.76" y="-1209.63">R138</text>
<circle data-id="139" cx="542.07" cy="-195.73" r="10.00px"/>
<text data-id="139" x="542.07" y="-195.73">R139</text>
<circle data-id="140" cx="1058.63" cy="-972.15" r="10.00px"/>
<text data-id="140" x="1058.63" y="-972.15">R140</text>
<circle data-id="141" cx="560.12" cy="-780.65" r="10.00px"/>
<text data-id="141" x="560.12" y="-780.65">R141</text>
<circle data-id="142" cx="166.80" cy="-567.87" r="10.00px"/>
<text data-id="142" x="166.80" y="-567.87">R142</text>
<circle data-id="143" cx="369.45" cy="-1131.79" r="10.00px"/>
<text data-id="143" x="369.45" y="-1131.79">R143</text>
<circle data-id="144" cx="951.09" cy="-73.06" r="10.00px"/>
<text data-id="144" x="951.09" y="-73.06">R144</text>
<circle data-id="145" cx="934.44" cy="-326.12" r="10.00px"/>
<text data-id="145" x="934.44" y="-326.12">R145</text>
<circle data-id="146" cx="405.29" cy="-348.16" r="10.00px"/>
<text data-id="146" x="405.29" y="-348.16">R146</text>
<circle data-id="147" cx="783.54" cy="-1204.51" r="10.00px"/>
<text data-id="147" x="783.54" y="-1204.51">R147</text>
<circle data-id="148" cx="494.54" cy="-778.55" r="10.00px"/>
<text data-id="148" x="494.54" y="-778.55">R148</text>
<circle data-id="149" cx="505.75" cy="-491.14" r="10.00px"/>
<text data-id="149" x="505.75" y="-491.14">R149</text>
<circle data-id="150" cx="620.54" cy="-763.86" r="10.00px"/>
<text data-id="150" x="620.54" y="-763.86">R150</text>
<circle data-id="151" cx="689.20" cy="-1199.52" r="10.00px"/>
<text data-id="151" x="689.20" y="-1199.52">R151</text>
<circle data-id="152" cx="788.14" cy="-1087.48" r="10.00px"/>
<text data-id="152" x="788.14" y="-1087.48">R152</text>
<circle data-id="153" cx="1260.56" cy="-506.16" r="10.00px"/>
<text data-id="153" x="1260.56" y="-506.16">R153</text>
<circle data-id="154" cx="134.41" cy="-434.68" r="10.00px"/>
<text data-id="154" x="134.41" y="-434.68">R154</text>
<circle data-id="155" cx="1183.23" cy="-861.84" r="10.00px"/>
<text data-id="155" x="1183.23" y="-861.84">R155</text>
<circle data-id="156" cx="953.63" cy="-742.97" r="10.00px"/>
<text data-id="156" x="953.63" y="-742.97">R156</text>
<circle data-id="157" cx="1265.27" cy="-228.06" r="10.00px"/>
<text data-id="157" x="1265.27" y="-228.06">R157</text>
<circle data-id="158" cx="1237.77" cy="-1204.68" r="10.00px"/>
<text data-id="158" x="1237.77" y="-1204.68">R158</text>
<circle data-id="159" cx="1104.29" cy="-1192.89" r="10.00px"/>
<text data-id="159" x="1104.29" y="-1192.89">R159</text>
<circle data-id="160" cx="621.84" cy="-471.17" r="10.00px"/>
<text data-id="160" x="621.84" y="-471.17">R160</text>
<circle data-id="161" cx="248.02" cy="-36.80" r="10.00px"/>
<text data-id="161" x="248.02" y="-36.80">R161</text>
<circle data-id="162" cx="981.00" cy="-1230.60" r="10.00px"/>
<text data-id="162" x="981.00" y="-1230.60">R162</text>
<circle data-id="163" cx="985.77" cy="-384.32" r="10.00px"/>
<text data-id="163" x="985.77" y="-384.32">R163</text>
<circle data-id="164" cx="868.37" cy="-275.67" r="10.00px"/>
<text data-id="164" x="868.37" y="-275.67">R164</text>
<circle data-id="165" cx="978.46" cy="-803.41" r="10.00px"/>
<text data-id="165" x="978.46" y="-803.41">R165</text>
<circle data-id="166" cx="204.88" cy="-976.87" r="10.00px"/>
<text data-id="166" x="204.88" y="-976.87">R166</text>
<circle data-id="167" cx="892.86" cy="-1089.71" r="10.00px"/>
<text data-id="167" x="892.86" y="-1089.71">R167</text>
<circle data-id="168" cx="104.33" cy="-422.29" r="10.00px"/>
<text data-id="168" x="104.33" y="-422.29">R168</text>
<circle data-id="169" cx="696.78" cy="-525.13" r="10.00px"/>
<text data-id="169" x="696.78" y="-525.13">R169</text>
<circle data-id="170" cx="224.52" cy="-392.21" r="10.00px"/>
<text data-id="170" x="224.52" y="-392.21">R170</text>
<circle data-id="171" cx="335.41" cy="-447.86" r="10.00px"/>
<text data-id="171" x="335.41" y="-447.86">R171</text>
<circle data-id="172" cx="460.52" cy="-42.21" r="10.00px"/>
<text data-id="172" x="460.52" y="-42.21">R172</text>
<circle data-id="173" cx="658.33" cy="-923.61" r="10.00px"/>
<text data-id="173" x="658.33" y="-923.61">R173</text>
<circle data-id="174" cx="270.21" cy="-204.14" r="10.00px"/>
<text data-id="174" x="270.21" y="-204.14">R174</text>
</svg>
