<svg id="topo" viewBox="-49.03 -1167.36 1198.31 1215.70" xmlns="http://www.w3.org/2000/svg">
<style>#topo path {fill: none; stroke: grey; stroke-width: 5.0000px;} #topo circle {fill: lightblue; stroke: none; stroke-width: 0.3px; vector-effect: non-scaling-stroke; r: 10.0000px;} #topo text {fill: black; stroke: none; font-size: 15.0000px; font-family: sans-serif; text-anchor:middle; transform: translateY(0.3em);} #topo path.country {fill: lightgrey; stroke: black; stroke-width: 1px; vector-effect: non-scaling-stroke; visibility: visible;} #topo path.selection {fill: none; stroke: red; stroke-width: 1px; vector-effect: non-scaling-stroke; visibility: visible;} #topo path.utilization {visibility: hidden;}</style>
<path data-id="0-61" d="M374.07,-523.88,448.38,-429.76"/>
<path data-id="0-72" d="M374.07,-523.88,333.37,-518.63"/>
<path data-id="0-74" d="M374.07,-523.88,380.77,-420.12"/>
<path data-id="0-117" d="M374.07,-523.88,498.43,-485.20"/>
<path data-id="0-120" d="M374.07,-523.88,418.33,-580.91"/>
<path data-id="1-91" d="M999.06,-42.57,947.75,-78.58"/>
<path data-id="1-102" d="M999.06,-42.57,992.26,-8.49"/>
<path data-id="1-116" d="M999.06,-42.57,1031.98,-47.32"/>
<path data-id="2-44" d="M366.56,-106.47,452.78,-39.77"/>
<path data-id="2-46" d="M366.56,-106.47,350.21,-233.62"/>
<path data-id="2-58" d="M366.56,-106.47,434.68,-142.65"/>
<path data-id="2-119" d="M366.56,-106.47,341.12,-89.70"/>
<path data-id="3-9" d="M617.23,-738.62,454.03,-826.56"/>
<path data-id="3-33" d="M617.23,-738.62,587.92,-618.16"/>
<path data-id="3-37" d="M617.23,-738.62,611.39,-913.63"/>
<path data-id="3-63" d="M617.23,-738.62,703.95,-688.40"/>
<path data-id="3-75" d="M617.23,-738.62,402.65,-687.61"/>
<path data-id="3-104" d="M617.23,-738.62,679.05,-897.08"/>
<path data-id="4-67" d="M11.03,-384.14,51.53,-418.48"/>
<path data-id="4-82" d="M11.03,-384.14,140.63,-311.79"/>
<path data-id="4-123" d="M11.03,-384.14,46.49,-265.69"/>
<path data-id="5-12" d="M652.43,-934.56,614.56,-942.81"/>
<path data-id="5-37" d="M652.43,-934.56,611.39,-913.63"/>
<path data-id="5-51" d="M652.43,-934.56,669.18,-1027.06"/>
<path data-id="5-104" d="M652.43,-934.56,679.05,-897.08"/>
<path data-id="5-105" d="M652.43,-934.56,698.16,-933.20"/>
<path data-id="6-16" d="M207.05,-239.07,212.39,-214.52"/>
<path data-id="6-82" d="M207.05,-239.07,140.63,-311.79"/>
<path data-id="6-88" d="M207.05,-239.07,253.98,-346.17"/>
<path data-id="6-97" d="M207.05,-239.07,147.35,-225.06"/>
<path data-id="7-33" d="M625.13,-580.44,587.92,-618.16"/>
<path data-id="7-84" d="M625.13,-580.44,685.30,-560.45"/>
<path data-id="7-117" d="M625.13,-580.44,498.43,-485.20"/>
<path data-id="8-13" d="M258.61,-66.50,178.69,-149.99"/>
<path data-id="8-35" d="M258.61,-66.50,270.96,-38.82"/>
<path data-id="8-54" d="M258.61,-66.50,75.67,-23.21"/>
<path data-id="8-92" d="M258.61,-66.50,273.10,-133.52"/>
<path data-id="9-25" d="M454.03,-826.56,373.97,-916.64"/>
<path data-id="9-29" d="M454.03,-826.56,476.98,-968.00"/>
<path data-id="9-37" d="M454.03,-826.56,611.39,-913.63"/>
<path data-id="9-65" d="M454.03,-826.56,438.30,-802.86"/>
<path data-id="10-22" d="M180.17,-772.69,156.15,-818.59"/>
<path data-id="10-76" d="M180.17,-772.69,339.35,-817.76"/>
<path data-id="10-90" d="M180.17,-772.69,188.50,-732.92"/>
<path data-id="10-124" d="M180.17,-772.69,8.88,-736.89"/>
<path data-id="11-29" d="M344.23,-1096.34,476.98,-968.00"/>
<path data-id="11-60" d="M344.23,-1096.34,288.73,-1050.54"/>
<path data-id="12-29" d="M614.56,-942.81,476.98,-968.00"/>
<path data-id="12-37" d="M614.56,-942.81,611.39,-913.63"/>
<path data-id="12-51" d="M614.56,-942.81,669.18,-1027.06"/>
<path data-id="13-36" d="M178.69,-149.99,119.61,-133.13"/>
<path data-id="13-92" d="M178.69,-149.99,273.10,-133.52"/>
<path data-id="13-94" d="M178.69,-149.99,187.34,-195.98"/>
<path data-id="14-30" d="M924.47,-145.75,942.36,-180.76"/>
<path data-id="14-91" d="M924.47,-145.75,947.75,-78.58"/>
<path data-id="14-95" d="M924.47,-145.75,893.76,-176.54"/>
<path data-id="14-106" d="M924.47,-145.75,896.96,-74.48"/>
<path data-id="15-69" d="M875.74,-1105.99,843.49,-1089.46"/>
<path data-id="15-87" d="M875.74,-1105.99,982.15,-1098.18"/>
<path data-id="16-46" d="M212.39,-214.52,350.21,-233.62"/>
<path data-id="16-92" d="M212.39,-214.52,273.10,-133.52"/>
<path data-id="16-94" d="M212.39,-214.52,187.34,-195.98"/>
<path data-id="17-50" d="M1094.81,-584.10,1079.20,-498.92"/>
<path data-id="17-80" d="M1094.81,-584.10,1091.75,-745.20"/>
<path data-id="17-93" d="M1094.81,-584.10,1018.80,-699.91"/>
<path data-id="17-112" d="M1094.81,-584.10,957.29,-633.17"/>
<path data-id="18-23" d="M899.70,-475.07,799.97,-510.67"/>
<path data-id="18-40" d="M899.70,-475.07,931.90,-394.63"/>
<path data-id="18-47" d="M899.70,-475.07,885.66,-387.53"/>
<path data-id="18-50" d="M899.70,-475.07,1079.20,-498.92"/>
<path data-id="18-107" d="M899.70,-475.07,1076.40,-453.94"/>
<path data-id="18-112" d="M899.70,-475.07,957.29,-633.17"/>
<path data-id="19-23" d="M809.90,-570.31,799.97,-510.67"/>
<path data-id="19-31" d="M809.90,-570.31,720.44,-605.48"/>
<path data-id="19-110" d="M809.90,-570.31,867.02,-636.56"/>
<path data-id="20-86" d="M1082.90,-977.64,1079.72,-901.89"/>
<path data-id="20-101" d="M1082.90,-977.64,1031.54,-1011.05"/>
<path data-id="21-66" d="M549.77,-112.54,515.61,-117.71"/>
<path data-id="21-98" d="M549.77,-112.54,644.76,-6.92"/>
<path data-id="21-113" d="M549.77,-112.54,648.94,-117.54"/>
<path data-id="22-27" d="M156.15,-818.59,201.90,-935.63"/>
<path data-id="22-49" d="M156.15,-818.59,5.44,-841.90"/>
<path data-id="22-124" d="M156.15,-818.59,8.88,-736.89"/>
<path data-id="23-79" d="M799.97,-510.67,733.96,-514.31"/>
<path data-id="23-108" d="M799.97,-510.67,771.38,-472.01"/>
<path data-id="24-27" d="M270.98,-939.44,201.90,-935.63"/>
<path data-id="24-76" d="M270.98,-939.44,339.35,-817.76"/>
<path data-id="24-96" d="M270.98,-939.44,317.98,-960.74"/>
<path data-id="25-29" d="M373.97,-916.64,476.98,-968.00"/>
<path data-id="25-76" d="M373.97,-916.64,339.35,-817.76"/>
<path data-id="25-96" d="M373.97,-916.64,317.98,-960.74"/>
<path data-id="26-36" d="M95.86,-112.16,119.61,-133.13"/>
<path data-id="26-54" d="M95.86,-112.16,75.67,-23.21"/>
<path data-id="28-87" d="M1030.38,-1061.17,982.15,-1098.18"/>
<path data-id="28-101" d="M1030.38,-1061.17,1031.54,-1011.05"/>
<path data-id="29-68" d="M476.98,-968.00,622.70,-1107.75"/>
<path data-id="30-57" d="M942.36,-180.76,1060.56,-273.45"/>
<path data-id="30-95" d="M942.36,-180.76,893.76,-176.54"/>
<path data-id="31-63" d="M720.44,-605.48,703.95,-688.40"/>
<path data-id="31-84" d="M720.44,-605.48,685.30,-560.45"/>
<path data-id="32-48" d="M188.69,-375.10,278.43,-447.77"/>
<path data-id="32-67" d="M188.69,-375.10,51.53,-418.48"/>
<path data-id="32-82" d="M188.69,-375.10,140.63,-311.79"/>
<path data-id="32-88" d="M188.69,-375.10,253.98,-346.17"/>
<path data-id="33-63" d="M587.92,-618.16,703.95,-688.40"/>
<path data-id="33-75" d="M587.92,-618.16,402.65,-687.61"/>
<path data-id="33-117" d="M587.92,-618.16,498.43,-485.20"/>
<path data-id="33-120" d="M587.92,-618.16,418.33,-580.91"/>
<path data-id="34-43" d="M874.63,-286.04,781.60,-231.91"/>
<path data-id="34-57" d="M874.63,-286.04,1060.56,-273.45"/>
<path data-id="34-64" d="M874.63,-286.04,803.34,-372.01"/>
<path data-id="34-81" d="M874.63,-286.04,900.07,-348.53"/>
<path data-id="34-122" d="M874.63,-286.04,879.98,-244.37"/>
<path data-id="35-121" d="M270.96,-38.82,332.12,-52.28"/>
<path data-id="36-97" d="M119.61,-133.13,147.35,-225.06"/>
<path data-id="38-59" d="M277.14,-571.92,46.16,-562.67"/>
<path data-id="38-62" d="M277.14,-571.92,313.35,-576.33"/>
<path data-id="38-115" d="M277.14,-571.92,170.74,-705.71"/>
<path data-id="39-41" d="M681.43,-297.61,714.08,-392.76"/>
<path data-id="39-43" d="M681.43,-297.61,781.60,-231.91"/>
<path data-id="39-83" d="M681.43,-297.61,585.70,-421.51"/>
<path data-id="39-113" d="M681.43,-297.61,648.94,-117.54"/>
<path data-id="39-118" d="M681.43,-297.61,550.71,-363.57"/>
<path data-id="40-47" d="M931.90,-394.63,885.66,-387.53"/>
<path data-id="40-81" d="M931.90,-394.63,900.07,-348.53"/>
<path data-id="40-111" d="M931.90,-394.63,960.36,-373.64"/>
<path data-id="41-45" d="M714.08,-392.76,649.08,-436.61"/>
<path data-id="41-55" d="M714.08,-392.76,742.40,-452.34"/>
<path data-id="41-64" d="M714.08,-392.76,803.34,-372.01"/>
<path data-id="41-78" d="M714.08,-392.76,679.27,-454.55"/>
<path data-id="42-85" d="M798.67,-838.82,755.95,-731.96"/>
<path data-id="42-89" d="M798.67,-838.82,844.09,-814.30"/>
<path data-id="42-99" d="M798.67,-838.82,784.51,-724.47"/>
<path data-id="42-104" d="M798.67,-838.82,679.05,-897.08"/>
<path data-id="42-105" d="M798.67,-838.82,698.16,-933.20"/>
<path data-id="43-64" d="M781.60,-231.91,803.34,-372.01"/>
<path data-id="43-70" d="M781.60,-231.91,777.93,-197.13"/>
<path data-id="43-122" d="M781.60,-231.91,879.98,-244.37"/>
<path data-id="44-58" d="M452.78,-39.77,434.68,-142.65"/>
<path data-id="44-66" d="M452.78,-39.77,515.61,-117.71"/>
<path data-id="44-121" d="M452.78,-39.77,332.12,-52.28"/>
<path data-id="45-78" d="M649.08,-436.61,679.27,-454.55"/>
<path data-id="45-83" d="M649.08,-436.61,585.70,-421.51"/>
<path data-id="46-58" d="M350.21,-233.62,434.68,-142.65"/>
<path data-id="46-74" d="M350.21,-233.62,380.77,-420.12"/>
<path data-id="46-88" d="M350.21,-233.62,253.98,-346.17"/>
<path data-id="46-92" d="M350.21,-233.62,273.10,-133.52"/>
<path data-id="46-118" d="M350.21,-233.62,550.71,-363.57"/>
<path data-id="47-64" d="M885.66,-387.53,803.34,-372.01"/>
<path data-id="47-81" d="M885.66,-387.53,900.07,-348.53"/>
<path data-id="48-59" d="M278.43,-447.77,46.16,-562.67"/>
<path data-id="48-72" d="M278.43,-447.77,333.37,-518.63"/>
<path data-id="48-74" d="M278.43,-447.77,380.77,-420.12"/>
<path data-id="48-88" d="M278.43,-447.77,253.98,-346.17"/>
<path data-id="49-124" d="M5.44,-841.90,8.88,-736.89"/>
<path data-id="50-107" d="M1079.20,-498.92,1076.40,-453.94"/>
<path data-id="51-68" d="M669.18,-1027.06,622.70,-1107.75"/>
<path data-id="51-73" d="M669.18,-1027.06,785.85,-1090.97"/>
<path data-id="51-105" d="M669.18,-1027.06,698.16,-933.20"/>
<path data-id="52-54" d="M6.13,-22.96,75.67,-23.21"/>
<path data-id="53-59" d="M35.78,-452.40,46.16,-562.67"/>
<path data-id="53-67" d="M35.78,-452.40,51.53,-418.48"/>
<path data-id="55-64" d="M742.40,-452.34,803.34,-372.01"/>
<path data-id="55-78" d="M742.40,-452.34,679.27,-454.55"/>
<path data-id="55-79" d="M742.40,-452.34,733.96,-514.31"/>
<path data-id="55-108" d="M742.40,-452.34,771.38,-472.01"/>
<path data-id="56-69" d="M800.40,-1112.11,843.49,-1089.46"/>
<path data-id="56-73" d="M800.40,-1112.11,785.85,-1090.97"/>
<path data-id="57-107" d="M1060.56,-273.45,1076.40,-453.94"/>
<path data-id="57-111" d="M1060.56,-273.45,960.36,-373.64"/>
<path data-id="58-66" d="M434.68,-142.65,515.61,-117.71"/>
<path data-id="58-118" d="M434.68,-142.65,550.71,-363.57"/>
<path data-id="59-77" d="M46.16,-562.67,14.71,-608.73"/>
<path data-id="59-115" d="M46.16,-562.67,170.74,-705.71"/>
<path data-id="60-96" d="M288.73,-1050.54,317.98,-960.74"/>
<path data-id="61-74" d="M448.38,-429.76,380.77,-420.12"/>
<path data-id="61-117" d="M448.38,-429.76,498.43,-485.20"/>
<path data-id="61-118" d="M448.38,-429.76,550.71,-363.57"/>
<path data-id="62-71" d="M313.35,-576.33,381.22,-662.91"/>
<path data-id="62-72" d="M313.35,-576.33,333.37,-518.63"/>
<path data-id="62-120" d="M313.35,-576.33,418.33,-580.91"/>
<path data-id="63-85" d="M703.95,-688.40,755.95,-731.96"/>
<path data-id="64-108" d="M803.34,-372.01,771.38,-472.01"/>
<path data-id="65-75" d="M438.30,-802.86,402.65,-687.61"/>
<path data-id="65-76" d="M438.30,-802.86,339.35,-817.76"/>
<path data-id="66-118" d="M515.61,-117.71,550.71,-363.57"/>
<path data-id="67-82" d="M51.53,-418.48,140.63,-311.79"/>
<path data-id="69-109" d="M843.49,-1089.46,864.17,-847.92"/>
<path data-id="70-95" d="M777.93,-197.13,893.76,-176.54"/>
<path data-id="70-103" d="M777.93,-197.13,838.25,-29.62"/>
<path data-id="70-113" d="M777.93,-197.13,648.94,-117.54"/>
<path data-id="71-75" d="M381.22,-662.91,402.65,-687.61"/>
<path data-id="71-90" d="M381.22,-662.91,188.50,-732.92"/>
<path data-id="71-120" d="M381.22,-662.91,418.33,-580.91"/>
<path data-id="72-74" d="M333.37,-518.63,380.77,-420.12"/>
<path data-id="74-88" d="M380.77,-420.12,253.98,-346.17"/>
<path data-id="75-76" d="M402.65,-687.61,339.35,-817.76"/>
<path data-id="77-115" d="M14.71,-608.73,170.74,-705.71"/>
<path data-id="77-124" d="M14.71,-608.73,8.88,-736.89"/>
<path data-id="78-79" d="M679.27,-454.55,733.96,-514.31"/>
<path data-id="79-84" d="M733.96,-514.31,685.30,-560.45"/>
<path data-id="79-108" d="M733.96,-514.31,771.38,-472.01"/>
<path data-id="80-93" d="M1091.75,-745.20,1018.80,-699.91"/>
<path data-id="80-100" d="M1091.75,-745.20,1078.60,-838.73"/>
<path data-id="81-111" d="M900.07,-348.53,960.36,-373.64"/>
<path data-id="82-97" d="M140.63,-311.79,147.35,-225.06"/>
<path data-id="82-123" d="M140.63,-311.79,46.49,-265.69"/>
<path data-id="83-117" d="M585.70,-421.51,498.43,-485.20"/>
<path data-id="83-118" d="M585.70,-421.51,550.71,-363.57"/>
<path data-id="85-99" d="M755.95,-731.96,784.51,-724.47"/>
<path data-id="86-100" d="M1079.72,-901.89,1078.60,-838.73"/>
<path data-id="86-114" d="M1079.72,-901.89,1031.12,-884.76"/>
<path data-id="89-93" d="M844.09,-814.30,1018.80,-699.91"/>
<path data-id="89-99" d="M844.09,-814.30,784.51,-724.47"/>
<path data-id="89-109" d="M844.09,-814.30,864.17,-847.92"/>
<path data-id="90-115" d="M188.50,-732.92,170.74,-705.71"/>
<path data-id="91-106" d="M947.75,-78.58,896.96,-74.48"/>
<path data-id="92-119" d="M273.10,-133.52,341.12,-89.70"/>
<path data-id="93-112" d="M1018.80,-699.91,957.29,-633.17"/>
<path data-id="94-97" d="M187.34,-195.98,147.35,-225.06"/>
<path data-id="95-122" d="M893.76,-176.54,879.98,-244.37"/>
<path data-id="97-123" d="M147.35,-225.06,46.49,-265.69"/>
<path data-id="98-103" d="M644.76,-6.92,838.25,-29.62"/>
<path data-id="98-113" d="M644.76,-6.92,648.94,-117.54"/>
<path data-id="99-110" d="M784.51,-724.47,867.02,-636.56"/>
<path data-id="100-114" d="M1078.60,-838.73,1031.12,-884.76"/>
<path data-id="103-106" d="M838.25,-29.62,896.96,-74.48"/>
<path data-id="103-113" d="M838.25,-29.62,648.94,-117.54"/>
<path data-id="104-105" d="M679.05,-897.08,698.16,-933.20"/>
<path data-id="107-111" d="M1076.40,-453.94,960.36,-373.64"/>
<path data-id="109-114" d="M864.17,-847.92,1031.12,-884.76"/>
<path data-id="110-112" d="M867.02,-636.56,957.29,-633.17"/>
<path data-id="115-124" d="M170.74,-705.71,8.88,-736.89"/>
<path data-id="117-120" d="M498.43,-485.20,418.33,-580.91"/>
<path data-id="119-121" d="M341.12,-89.70,332.12,-52.28"/>
<circle data-id="0" cx="374.07" cy="-523.88" r="10.00px"/>
<text data-id="0" x="374.07" y="-523.88">R0</text>
<circle data-id="1" cx="999.06" cy="-42.57" r="10.00px"/>
<text data-id="1" x="999.06" y="-42.57">R1</text>
<circle data-id="2" cx="366.56" cy="-106.47" r="10.00px"/>
<text data-id="2" x="366.56" y="-106.47">R2</text>
<circle data-id="3" cx="617.23" cy="-738.62" r="10.00px"/>
<text data-id="3" x="617.23" y="-738.62">R3</text>
<circle data-id="4" cx="11.03" cy="-384.14" r="10.00px"/>
<text data-id="4" x="11.03" y="-384.14">R4</text>
<circle data-id="5" cx="652.43" cy="-934.56" r="10.00px"/>
<text data-id="5" x="652.43" y="-934.56">R5</text>
<circle data-id="6" cx="207.05" cy="-239.07" r="10.00px"/>
<text data-id="6" x="207.05" y="-239.07">R6</text>
<circle data-id="7" cx="625.13" cy="-580.44" r="10.00px"/>
<text data-id="7" x="625.13" y="-580.44">R7</text>
<circle data-id="8" cx="258.61" cy="-66.50" r="10.00px"/>
<text data-id="8" x="258.61" y="-66.50">R8</text>
<circle data-id="9" cx="454.03" cy="-826.56" r="10.00px"/>
<text data-id="9" x="454.03" y="-826.56">R9</text>
<circle data-id="10" cx="180.17" cy="-772.69" r="10.00px"/>
<text data-id="10" x="180.17" y="-772.69">R10</text>
<circle data-id="11" cx="344.23" cy="-1096.34" r="10.00px"/>
<text data-id="11" x="344.23" y="-1096.34">R11</text>
<circle data-id="12" cx="614.56" cy="-942.81" r="10.00px"/>
<text data-id="12" x="614.56" y="-942.81">R12</text>
<circle data-id="13" cx="178.69" cy="-149.99" r="10.00px"/>
<text data-id="13" x="178.69" y="-149.99">R13</text>
<circle data-id="14" cx="924.47" cy="-145.75" r="10.00px"/>
<text data-id="14" x="924.47" y="-145.75">R14</text>
<circle data-id="15" cx="875.74" cy="-1105.99" r="10.00px"/>
<text data-id="15" x="875.74" y="-1105.99">R15</text>
<circle data-id="16" cx="212.39" cy="-214.52" r="10.00px"/>
<text data-id="16" x="212.39" y="-214.52">R16</text>
<circle data-id="17" cx="1094.81" cy="-584.10" r="10.00px"/>
<text data-id="17" x="1094.81" y="-584.10">R17</text>
<circle data-id="18" cx="899.70" cy="-475.07" r="10.00px"/>
<text data-id="18" x="899.70" y="-475.07">R18</text>
<circle data-id="19" cx="809.90" cy="-570.31" r="10.00px"/>
<text data-id="19" x="809.90" y="-570.31">R19</text>
<circle data-id="20" cx="1082.90" cy="-977.64" r="10.00px"/>
<text data-id="20" x="1082.90" y="-977.64">R20</text>
<circle data-id="21" cx="549.77" cy="-112.54" r="10.00px"/>
<text data-id="21" x="549.77" y="-112.54">R21</text>
<circle data-id="22" cx="156.15" cy="-818.59" r="10.00px"/>
<text data-id="22" x="156.15" y="-818.59">R22</text>
<circle data-id="23" cx="799.97" cy="-510.67" r="10.00px"/>
<text data-id="23" x="799.97" y="-510.67">R23</text>
<circle data-id="24" cx="270.98" cy="-939.44" r="10.00px"/>
<text data-id="24" x="270.98" y="-939.44">R24</text>
<circle data-id="25" cx="373.97" cy="-916.64" r="10.00px"/>
<text data-id="25" x="373.97" y="-916.64">R25</text>
<circle data-id="26" cx="95.86" cy="-112.16" r="10.00px"/>
<text data-id="26" x="95.86" y="-112.16">R26</text>
<circle data-id="27" cx="201.90" cy="-935.63" r="10.00px"/>
<text data-id="27" x="201.90" y="-935.63">R27</text>
<circle data-id="28" cx="1030.38" cy="-1061.17" r="10.00px"/>
<text data-id="28" x="1030.38" y="-1061.17">R28</text>
<circle data-id="29" cx="476.98" cy="-968.00" r="10.00px"/>
<text data-id="29" x="476.98" y="-968.00">R29</text>
<circle data-id="30" cx="942.36" cy="-180.76" r="10.00px"/>
<text data-id="30" x="942.36" y="-180.76">R30</text>
<circle data-id="31" cx="720.44" cy="-605.48" r="10.00px"/>
<text data-id="31" x="720.44" y="-605.48">R31</text>
<circle data-id="32" cx="188.69" cy="-375.10" r="10.00px"/>
<text data-id="32" x="188.69" y="-375.10">R32</text>
<circle data-id="33" cx="587.92" cy="-618.16" r="10.00px"/>
<text data-id="33" x="587.92" y="-618.16">R33</text>
<circle data-id="34" cx="874.63" cy="-286.04" r="10.00px"/>
<text data-id="34" x="874.63" y="-286.04">R34</text>
<circle data-id="35" cx="270.96" cy="-38.82" r="10.00px"/>
<text data-id="35" x="270.96" y="-38.82">R35</text>
<circle data-id="36" cx="119.61" cy="-133.13" r="10.00px"/>
<text data-id="36" x="119.61" y="-133.13">R36</text>
<circle data-id="37" cx="611.39" cy="-913.63" r="10.00px"/>
<text data-id="37" x="611.39" y="-913.63">R37</text>
<circle data-id="38" cx="277.14" cy="-571.92" r="10.00px"/>
<text data-id="38" x="277.14" y="-571.92">R38</text>
<circle data-id="39" cx="681.43" cy="-297.61" r="10.00px"/>
<text data-id="39" x="681.43" y="-297.61">R39</text>
<circle data-id="40" cx="931.90" cy="-394.63" r="10.00px"/>
<text data-id="40" x="931.90" y="-394.63">R40</text>
<circle data-id="41" cx="714.08" cy="-392.76" r="10.00px"/>
<text data-id="41" x="714.08" y="-392.76">R41</text>
<circle data-id="42" cx="798.67" cy="-838.82" r="10.00px"/>
<text data-id="42" x="798.67" y="-838.82">R42</text>
<circle data-id="43" cx="781.60" cy="-231.91" r="10.00px"/>
<text data-id="43" x="781.60" y="-231.91">R43</text>
<circle data-id="44" cx="452.78" cy="-39.77" r="10.00px"/>
<text data-id="44" x="452.78" y="-39.77">R44</text>
<circle data-id="45" cx="649.08" cy="-436.61" r="10.00px"/>
<text data-id="45" x="649.08" y="-436.61">R45</text>
<circle data-id="46" cx="350.21" cy="-233.62" r="10.00px"/>
<text data-id="46" x="350.21" y="-233.62">R46</text>
<circle data-id="47" cx="885.66" cy="-387.53" r="10.00px"/>
<text data-id="47" x="885.66" y="-387.53">R47</text>
<circle data-id="48" cx="278.43" cy="-447.77" r="10.00px"/>
<text data-id="48" x="278.43" y="-447.77">R48</text>
<circle data-id="49" cx="5.44" cy="-841.90" r="10.00px"/>
<text data-id="49" x="5.44" y="-841.90">R49</text>
<circle data-id="50" cx="1079.20" cy="-498.92" r="10.00px"/>
<text data-id="50" x="1079.20" y="-498.92">R50</text>
<circle data-id="51" cx="669.18" cy="-1027.06" r="10.00px"/>
<text data-id="51" x="669.18" y="-1027.06">R51</text>
<circle data-id="52" cx="6.13" cy="-22.96" r="10.00px"/>
<text data-id="52" x="6.13" y="-22.96">R52</text>
<circle data-id="53" cx="35.78" cy="-452.40" r="10.00px"/>
<text data-id="53" x="35.78" y="-452.40">R53</text>
<circle data-id="54" cx="75.67" cy="-23.21" r="10.00px"/>
<text data-id="54" x="75.67" y="-23.21">R54</text>
<circle data-id="55" cx="742.40" cy="-452.34" r="10.00px"/>
<text data-id="55" x="742.40" y="-452.34">R55</text>
<circle data-id="56" cx="800.40" cy="-1112.11" r="10.00px"/>
<text data-id="56" x="800.40" y="-1112.11">R56</text>
<circle data-id="57" cx="1060.56" cy="-273.45" r="10.00px"/>
<text data-id="57" x="1060.56" y="-273.45">R57</text>
<circle data-id="58" cx="434.68" cy="-142.65" r="10.00px"/>
<text data-id="58" x="434.68" y="-142.65">R58</text>
<circle data-id="59" cx="46.16" cy="-562.67" r="10.00px"/>
<text data-id="59" x="46.16" y="-562.67">R59</text>
<circle data-id="60" cx="288.73" cy="-1050.54" r="10.00px"/>
<text data-id="60" x="288.73" y="-1050.54">R60</text>
<circle data-id="61" cx="448.38" cy="-429.76" r="10.00px"/>
<text data-id="61" x="448.38" y="-429.76">R61</text>
<circle data-id="62" cx="313.35" cy="-576.33" r="10.00px"/>
<text data-id="62" x="313.35" y="-576.33">R62</text>
<circle data-id="63" cx="703.95" cy="-688.40" r="10.00px"/>
<text data-id="63" x="703.95" y="-688.40">R63</text>
<circle data-id="64" cx="803.34" cy="-372.01" r="10.00px"/>
<text data-id="64" x="803.34" y="-372.01">R64</text>
<circle data-id="65" cx="438.30" cy="-802.86" r="10.00px"/>
<text data-id="65" x="438.30" y="-802.86">R65</text>
<circle data-id="66" cx="515.61" cy="-117.71" r="10.00px"/>
<text data-id="66" x="515.61" y="-117.71">R66</text>
<circle data-id="67" cx="51.53" cy="-418.48" r="10.00px"/>
<text data-id="67" x="51.53" y="-418.48">R67</text>
<circle data-id="68" cx="622.70" cy="-1107.75" r="10.00px"/>
<text data-id="68" x="622.70" y="-1107.75">R68</text>
<circle data-id="69" cx="843.49" cy="-1089.46" r="10.00px"/>
<text data-id="69" x="843.49" y="-1089.46">R69</text>
<circle data-id="70" cx="777.93" cy="-197.13" r="10.00px"/>
<text data-id="70" x="777.93" y="-197.13">R70</text>
<circle data-id="71" cx="381.22" cy="-662.91" r="10.00px"/>
<text data-id="71" x="381.22" y="-662.91">R71</text>
<circle data-id="72" cx="333.37" cy="-518.63" r="10.00px"/>
<text data-id="72" x="333.37" y="-518.63">R72</text>
<circle data-id="73" cx="785.85" cy="-1090.97" r="10.00px"/>
<text data-id="73" x="785.85" y="-1090.97">R73</text>
<circle data-id="74" cx="380.77" cy="-420.12" r="10.00px"/>
<text data-id="74" x="380.77" y="-420.12">R74</text>
<circle data-id="75" cx="402.65" cy="-687.61" r="10.00px"/>
<text data-id="75" x="402.65" y="-687.61">R75</text>
<circle data-id="76" cx="339.35" cy="-817.76" r="10.00px"/>
<text data-id="76" x="339.35" y="-817.76">R76</text>
<circle data-id="77" cx="14.71" cy="-608.73" r="10.00px"/>
<text data-id="77" x="14.71" y="-608.73">R77</text>
<circle data-id="78" cx="679.27" cy="-454.55" r="10.00px"/>
<text data-id="78" x="679.27" y="-454.55">R78</text>
<circle data-id="79" cx="733.96" cy="-514.31" r="10.00px"/>
<text data-id="79" x="733.96" y="-514.31">R79</text>
<circle data-id="80" cx="1091.75" cy="-745.20" r="10.00px"/>
<text data-id="80" x="1091.75" y="-745.20">R80</text>
<circle data-id="81" cx="900.07" cy="-348.53" r="10.00px"/>
<text data-id="81" x="900.07" y="-348.53">R81</text>
<circle data-id="82" cx="140.63" cy="-311.79" r="10.00px"/>
<text data-id="82" x="140.63" y="-311.79">R82</text>
<circle data-id="83" cx="585.70" cy="-421.51" r="10.00px"/>
<text data-id="83" x="585.70" y="-421.51">R83</text>
<circle data-id="84" cx="685.30" cy="-560.45" r="10.00px"/>
<text data-id="84" x="685.30" y="-560.45">R84</text>
<circle data-id="85" cx="755.95" cy="-731.96" r="10.00px"/>
<text data-id="85" x="755.95" y="-731.96">R85</text>
<circle data-id="86" cx="1079.72" cy="-901.89" r="10.00px"/>
<text data-id="86" x="1079.72" y="-901.89">R86</text>
<circle data-id="87" cx="982.15" cy="-1098.18" r="10.00px"/>
<text data-id="87" x="982.15" y="-1098.18">R87</text>
<circle data-id="88" cx="253.98" cy="-346.17" r="10.00px"/>
<text data-id="88" x="253.98" y="-346.17">R88</text>
<circle data-id="89" cx="844.09" cy="-814.30" r="10.00px"/>
<text data-id="89" x="844.09" y="-814.30">R89</text>
<circle data-id="90" cx="188.50" cy="-732.92" r="10.00px"/>
<text data-id="90" x="188.50" y="-732.92">R90</text>
<circle data-id="91" cx="947.75" cy="-78.58" r="10.00px"/>
<text data-id="91" x="947.75" y="-78.58">R91</text>
<circle data-id="92" cx="273.10" cy="-133.52" r="10.00px"/>
<text data-id="92" x="273.10" y="-133.52">R92</text>
<circle data-id="93" cx="1018.80" cy="-699.91" r="10.00px"/>
<text data-id="93" x="1018.80" y="-699.91">R93</text>
<circle data-id="94" cx="187.34" cy="-195.98" r="10.00px"/>
<text data-id="94" x="187.34" y="-195.98">R94</text>
<circle data-id="95" cx="893.76" cy="-176.54" r="10.00px"/>
<text data-id="95" x="893.76" y="-176.54">R95</text>
<circle data-id="96" cx="317.98" cy="-960.74" r="10.00px"/>
<text data-id="96" x="317.98" y="-960.74">R96</text>
<circle data-id="97" cx="147.35" cy="-225.06" r="10.00px"/>
<text data-id="97" x="147.35" y="-225.06">R97</text>
<circle data-id="98" cx="644.76" cy="-6.92" r="10.00px"/>
<text data-id="98" x="644.76" y="-6.92">R98</text>
<circle data-id="99" cx="784.51" cy="-724.47" r="10.00px"/>
<text data-id="99" x="784.51" y="-724.47">R99</text>
<circle data-id="100" cx="1078.60" cy="-838.73" r="10.00px"/>
<text data-id="100" x="1078.60" y="-838.73">R100</text>
<circle data-id="101" cx="1031.54" cy="-1011.05" r="10.00px"/>
<text data-id="101" x="1031.54" y="-1011.05">R101</text>
<circle data-id="102" cx="992.26" cy="-8.49" r="10.00px"/>
<text data-id="102" x="992.26" y="-8.49">R102</text>
<circle data-id="103" cx="838.25" cy="-29.62" r="10.00px"/>
<text data-id="103" x="838.25" y="-29.62">R103</text>
<circle data-id="104" cx="679.05" cy="-897.08" r="10.00px"/>
<text data-id="104" x="679.05" y="-897.08">R104</text>
<circle data-id="105" cx="698.16" cy="-933.20" r="10.00px"/>
<text data-id="105" x="698.16" y="-933.20">R105</text>
<circle data-id="106" cx="896.96" cy="-74.48" r="10.00px"/>
<text data-id="106" x="896.96" y="-74.48">R106</text>
<circle data-id="107" cx="1076.40" cy="-453.94" r="10.00px"/>
<text data-id="107" x="1076.40" y="-453.94">R107</text>
<circle data-id="108" cx="771.38" cy="-472.01" r="10.00px"/>
<text data-id="108" x="771.38" y="-472.01">R108</text>
<circle data-id="109" cx="864.17" cy="-847.92" r="10.00px"/>
<text data-id="109" x="864.17" y="-847.92">R109</text>
<circle data-id="110" cx="867.02" cy="-636.56" r="10.00px"/>
<text data-id="110" x="867.02" y="-636.56">R110</text>
<circle data-id="111" cx="960.36" cy="-373.64" r="10.00px"/>
<text data-id="111" x="960.36" y="-373.64">R111</text>
<circle data-id="112" cx="957.29" cy="-633.17" r="10.00px"/>
<text data-id="112" x="957.29" y="-633.17">R112</text>
<circle data-id="113" cx="648.94" cy="-117.54" r="10.00px"/>
<text data-id="113" x="648.94" y="-117.54">R113</text>
<circle data-id="114" cx="1031.12" cy="-884.76" r="10.00px"/>
<text data-id="114" x="1031.12" y="-884.76">R114</text>
<circle data-id="115" cx="170.74" cy="-705.71" r="10.00px"/>
<text data-id="115" x="170.74" y="-705.71">R115</text>
<circle data-id="116" cx="1031.98" cy="-47.32" r="10.00px"/>
<text data-id="116" x="1031.98" y="-47.32">R116</text>
<circle data-id="117" cx="498.43" cy="-485.20" r="10.00px"/>
<text data-id="117" x="498.43" y="-485.20">R117</text>
<circle data-id="118" cx="550.71" cy="-363.57" r="10.00px"/>
<text data-id="118" x="550.71" y="-363.57">R118</text>
<circle data-id="119" cx="341.12" cy="-89.70" r="10.00px"/>
<text data-id="119" x="341.12" y="-89.70">R119</text>
<circle data-id="120" cx="418.33" cy="-580.91" r="10.00px"/>
<text data-id="120" x="418.33" y="-580.91">R120</text>
<circle data-id="121" cx="332.12" cy="-52.28" r="10.00px"/>
<text data-id="121" x="332.12" y="-52.28">R121</text>
<circle data-id="122" cx="879.98" cy="-244.37" r="10.00px"/>
<text data-id="122" x="879.98" y="-244.37">R122</text>
<circle data-id="123" cx="46.49" cy="-265.69" r="10.00px"/>
<text data-id="123" x="46.49" y="-265.69">R123</text>
<circle data-id="124" cx="8.88" cy="-736.89" r="10.00px"/>
<text data-id="124" x="8.88" y="-736.89">R124</text>
</svg>
