<svg id="topo" viewBox="-51.97 -1172.53 1225.27 1222.34" xmlns="http://www.w3.org/2000/svg">
<style>#topo path {fill: none; stroke: grey; stroke-width: 5.0000px;} #topo circle {fill: lightblue; stroke: none; stroke-width: 0.3px; vector-effect: non-scaling-stroke; r: 10.0000px;} #topo text {fill: black; stroke: none; font-size: 15.0000px; font-family: sans-serif; text-anchor:middle; transform: translateY(0.3em);} #topo path.country {fill: lightgrey; stroke: black; stroke-width: 1px; vector-effect: non-scaling-stroke; visibility: visible;} #topo path.selection {fill: none; stroke: red; stroke-width: 1px; vector-effect: non-scaling-stroke; visibility: visible;} #topo path.utilization {visibility: hidden;}</style>
<path data-id="0-36" d="M618.62,-327.13,700.69,-410.83"/>
<path data-id="0-81" d="M618.62,-327.13,501.84,-238.72"/>
<path data-id="0-85" d="M618.62,-327.13,701.15,-326.06"/>
<path data-id="0-94" d="M618.62,-327.13,648.73,-177.96"/>
<path data-id="0-116" d="M618.62,-327.13,582.83,-479.20"/>
<path data-id="1-27" d="M827.80,-925.03,988.99,-890.61"/>
<path data-id="1-39" d="M827.80,-925.03,807.62,-969.84"/>
<path data-id="1-66" d="M827.80,-925.03,745.83,-875.18"/>
<path data-id="1-74" d="M827.80,-925.03,892.00,-687.49"/>
<path data-id="2-10" d="M264.42,-578.21,380.15,-469.19"/>
<path data-id="2-12" d="M264.42,-578.21,115.03,-609.50"/>
<path data-id="2-30" d="M264.42,-578.21,140.04,-677.44"/>
<path data-id="2-52" d="M264.42,-578.21,331.06,-613.63"/>
<path data-id="2-90" d="M264.42,-578.21,240.91,-476.53"/>
<path data-id="2-109" d="M264.42,-578.21,273.62,-700.92"/>
<path data-id="3-11" d="M1055.92,-354.04,1094.21,-111.84"/>
<path data-id="3-49" d="M1055.92,-354.04,1050.95,-393.78"/>
<path data-id="3-93" d="M1055.92,-354.04,961.34,-324.44"/>
<path data-id="4-44" d="M67.66,-132.78,51.69,-75.69"/>
<path data-id="4-62" d="M67.66,-132.78,48.70,-332.71"/>
<path data-id="4-72" d="M67.66,-132.78,271.41,-80.05"/>
<path data-id="4-92" d="M67.66,-132.78,289.90,-246.34"/>
<path data-id="5-41" d="M881.43,-224.68,770.04,-245.95"/>
<path data-id="5-77" d="M881.43,-224.68,879.84,-93.89"/>
<path data-id="5-93" d="M881.43,-224.68,961.34,-324.44"/>
<path data-id="5-106" d="M881.43,-224.68,939.69,-193.74"/>
<path data-id="6-18" d="M1045.78,-457.13,1109.43,-489.00"/>
<path data-id="6-34" d="M1045.78,-457.13,1006.78,-444.50"/>
<path data-id="6-49" d="M1045.78,-457.13,1050.95,-393.78"/>
<path data-id="7-53" d="M881.88,-659.30,928.18,-667.45"/>
<path data-id="7-61" d="M881.88,-659.30,906.01,-602.35"/>
<path data-id="7-74" d="M881.88,-659.30,892.00,-687.49"/>
<path data-id="7-113" d="M881.88,-659.30,809.81,-590.59"/>
<path data-id="8-12" d="M157.99,-480.68,115.03,-609.50"/>
<path data-id="8-76" d="M157.99,-480.68,192.14,-458.17"/>
<path data-id="8-98" d="M157.99,-480.68,156.96,-437.30"/>
<path data-id="9-59" d="M750.68,-1055.21,787.42,-1062.73"/>
<path data-id="9-120" d="M750.68,-1055.21,625.56,-1053.52"/>
<path data-id="10-25" d="M380.15,-469.19,256.37,-447.28"/>
<path data-id="10-52" d="M380.15,-469.19,331.06,-613.63"/>
<path data-id="10-57" d="M380.15,-469.19,418.20,-458.37"/>
<path data-id="10-84" d="M380.15,-469.19,325.59,-381.40"/>
<path data-id="11-56" d="M1094.21,-111.84,1111.50,-82.92"/>
<path data-id="11-67" d="M1094.21,-111.84,983.90,-71.92"/>
<path data-id="12-30" d="M115.03,-609.50,140.04,-677.44"/>
<path data-id="12-95" d="M115.03,-609.50,30.14,-581.75"/>
<path data-id="13-39" d="M722.75,-912.27,807.62,-969.84"/>
<path data-id="13-66" d="M722.75,-912.27,745.83,-875.18"/>
<path data-id="13-80" d="M722.75,-912.27,637.59,-839.21"/>
<path data-id="13-83" d="M722.75,-912.27,613.58,-987.21"/>
<path data-id="14-43" d="M415.80,-1055.92,478.69,-1116.97"/>
<path data-id="14-73" d="M415.80,-1055.92,447.71,-1034.05"/>
<path data-id="14-87" d="M415.80,-1055.92,393.79,-980.57"/>
<path data-id="14-97" d="M415.80,-1055.92,322.33,-1055.43"/>
<path data-id="15-30" d="M93.87,-830.19,140.04,-677.44"/>
<path data-id="15-65" d="M93.87,-830.19,44.84,-934.16"/>
<path data-id="15-88" d="M93.87,-830.19,248.81,-765.20"/>
<path data-id="15-115" d="M93.87,-830.19,129.41,-956.44"/>
<path data-id="15-118" d="M93.87,-830.19,249.97,-877.32"/>
<path data-id="16-21" d="M456.31,-658.07,539.32,-597.06"/>
<path data-id="16-26" d="M456.31,-658.07,467.16,-517.21"/>
<path data-id="16-28" d="M456.31,-658.07,381.52,-712.56"/>
<path data-id="16-40" d="M456.31,-658.07,517.26,-758.58"/>
<path data-id="16-55" d="M456.31,-658.07,360.86,-676.84"/>
<path data-id="17-19" d="M610.02,-95.91,615.84,-16.24"/>
<path data-id="17-94" d="M610.02,-95.91,648.73,-177.96"/>
<path data-id="17-110" d="M610.02,-95.91,689.68,-93.85"/>
<path data-id="17-123" d="M610.02,-95.91,575.97,-141.10"/>
<path data-id="18-99" d="M1109.43,-489.00,1057.39,-610.83"/>
<path data-id="19-51" d="M615.84,-16.24,440.70,-64.68"/>
<path data-id="19-110" d="M615.84,-16.24,689.68,-93.85"/>
<path data-id="20-34" d="M898.11,-402.53,1006.78,-444.50"/>
<path data-id="20-61" d="M898.11,-402.53,906.01,-602.35"/>
<path data-id="20-79" d="M898.11,-402.53,781.97,-331.52"/>
<path data-id="20-93" d="M898.11,-402.53,961.34,-324.44"/>
<path data-id="20-113" d="M898.11,-402.53,809.81,-590.59"/>
<path data-id="20-117" d="M898.11,-402.53,736.68,-459.16"/>
<path data-id="21-26" d="M539.32,-597.06,467.16,-517.21"/>
<path data-id="21-64" d="M539.32,-597.06,676.53,-578.45"/>
<path data-id="21-116" d="M539.32,-597.06,582.83,-479.20"/>
<path data-id="22-33" d="M459.25,-186.76,394.70,-180.07"/>
<path data-id="22-46" d="M459.25,-186.76,472.03,-154.37"/>
<path data-id="22-81" d="M459.25,-186.76,501.84,-238.72"/>
<path data-id="22-112" d="M459.25,-186.76,440.93,-264.86"/>
<path data-id="23-75" d="M1065.61,-1047.20,1047.88,-943.88"/>
<path data-id="23-107" d="M1065.61,-1047.20,1052.13,-1082.24"/>
<path data-id="23-122" d="M1065.61,-1047.20,1026.30,-1056.96"/>
<path data-id="24-68" d="M343.58,-905.84,364.91,-849.86"/>
<path data-id="24-87" d="M343.58,-905.84,393.79,-980.57"/>
<path data-id="24-111" d="M343.58,-905.84,448.89,-915.83"/>
<path data-id="24-118" d="M343.58,-905.84,249.97,-877.32"/>
<path data-id="25-84" d="M256.37,-447.28,325.59,-381.40"/>
<path data-id="25-90" d="M256.37,-447.28,240.91,-476.53"/>
<path data-id="26-52" d="M467.16,-517.21,331.06,-613.63"/>
<path data-id="26-58" d="M467.16,-517.21,458.30,-484.68"/>
<path data-id="26-102" d="M467.16,-517.21,349.29,-635.85"/>
<path data-id="26-116" d="M467.16,-517.21,582.83,-479.20"/>
<path data-id="27-75" d="M988.99,-890.61,1047.88,-943.88"/>
<path data-id="27-101" d="M988.99,-890.61,919.80,-1026.91"/>
<path data-id="27-104" d="M988.99,-890.61,1117.61,-829.86"/>
<path data-id="27-114" d="M988.99,-890.61,1061.94,-773.12"/>
<path data-id="28-40" d="M381.52,-712.56,517.26,-758.58"/>
<path data-id="28-55" d="M381.52,-712.56,360.86,-676.84"/>
<path data-id="28-82" d="M381.52,-712.56,317.88,-777.59"/>
<path data-id="29-31" d="M853.89,-72.82,732.98,-224.51"/>
<path data-id="29-77" d="M853.89,-72.82,879.84,-93.89"/>
<path data-id="29-110" d="M853.89,-72.82,689.68,-93.85"/>
<path data-id="30-88" d="M140.04,-677.44,248.81,-765.20"/>
<path data-id="30-109" d="M140.04,-677.44,273.62,-700.92"/>
<path data-id="31-41" d="M732.98,-224.51,770.04,-245.95"/>
<path data-id="31-85" d="M732.98,-224.51,701.15,-326.06"/>
<path data-id="31-94" d="M732.98,-224.51,648.73,-177.96"/>
<path data-id="32-64" d="M729.42,-786.72,676.53,-578.45"/>
<path data-id="32-66" d="M729.42,-786.72,745.83,-875.18"/>
<path data-id="32-74" d="M729.42,-786.72,892.00,-687.49"/>
<path data-id="32-80" d="M729.42,-786.72,637.59,-839.21"/>
<path data-id="32-113" d="M729.42,-786.72,809.81,-590.59"/>
<path data-id="33-70" d="M394.70,-180.07,438.18,-140.18"/>
<path data-id="33-91" d="M394.70,-180.07,366.09,-287.42"/>
<path data-id="33-92" d="M394.70,-180.07,289.90,-246.34"/>
<path data-id="33-105" d="M394.70,-180.07,360.09,-67.99"/>
<path data-id="33-112" d="M394.70,-180.07,440.93,-264.86"/>
<path data-id="34-49" d="M1006.78,-444.50,1050.95,-393.78"/>
<path data-id="34-61" d="M1006.78,-444.50,906.01,-602.35"/>
<path data-id="34-93" d="M1006.78,-444.50,961.34,-324.44"/>
<path data-id="35-37" d="M95.49,-965.65,40.17,-961.94"/>
<path data-id="35-38" d="M95.49,-965.65,119.92,-1093.86"/>
<path data-id="35-65" d="M95.49,-965.65,44.84,-934.16"/>
<path data-id="35-115" d="M95.49,-965.65,129.41,-956.44"/>
<path data-id="36-79" d="M700.69,-410.83,781.97,-331.52"/>
<path data-id="36-85" d="M700.69,-410.83,701.15,-326.06"/>
<path data-id="36-86" d="M700.69,-410.83,662.40,-470.20"/>
<path data-id="36-117" d="M700.69,-410.83,736.68,-459.16"/>
<path data-id="37-65" d="M40.17,-961.94,44.84,-934.16"/>
<path data-id="37-121" d="M40.17,-961.94,3.73,-978.79"/>
<path data-id="38-89" d="M119.92,-1093.86,181.87,-1074.09"/>
<path data-id="39-124" d="M807.62,-969.84,828.40,-1000.72"/>
<path data-id="40-68" d="M517.26,-758.58,364.91,-849.86"/>
<path data-id="40-119" d="M517.26,-758.58,550.30,-775.26"/>
<path data-id="41-79" d="M770.04,-245.95,781.97,-331.52"/>
<path data-id="41-85" d="M770.04,-245.95,701.15,-326.06"/>
<path data-id="42-51" d="M383.43,-5.75,440.70,-64.68"/>
<path data-id="42-105" d="M383.43,-5.75,360.09,-67.99"/>
<path data-id="43-63" d="M478.69,-1116.97,556.38,-1041.86"/>
<path data-id="43-73" d="M478.69,-1116.97,447.71,-1034.05"/>
<path data-id="45-67" d="M901.28,-69.57,983.90,-71.92"/>
<path data-id="45-77" d="M901.28,-69.57,879.84,-93.89"/>
<path data-id="46-70" d="M472.03,-154.37,438.18,-140.18"/>
<path data-id="46-123" d="M472.03,-154.37,575.97,-141.10"/>
<path data-id="47-67" d="M1024.45,-27.36,983.90,-71.92"/>
<path data-id="47-96" d="M1024.45,-27.36,1091.77,-10.94"/>
<path data-id="48-63" d="M563.36,-985.33,556.38,-1041.86"/>
<path data-id="48-69" d="M563.36,-985.33,541.67,-887.08"/>
<path data-id="48-83" d="M563.36,-985.33,613.58,-987.21"/>
<path data-id="48-111" d="M563.36,-985.33,448.89,-915.83"/>
<path data-id="50-69" d="M577.00,-832.45,541.67,-887.08"/>
<path data-id="50-80" d="M577.00,-832.45,637.59,-839.21"/>
<path data-id="50-119" d="M577.00,-832.45,550.30,-775.26"/>
<path data-id="51-70" d="M440.70,-64.68,438.18,-140.18"/>
<path data-id="51-105" d="M440.70,-64.68,360.09,-67.99"/>
<path data-id="52-102" d="M331.06,-613.63,349.29,-635.85"/>
<path data-id="53-61" d="M928.18,-667.45,906.01,-602.35"/>
<path data-id="53-74" d="M928.18,-667.45,892.00,-687.49"/>
<path data-id="53-103" d="M928.18,-667.45,966.30,-682.59"/>
<path data-id="54-99" d="M1026.21,-709.79,1057.39,-610.83"/>
<path data-id="54-103" d="M1026.21,-709.79,966.30,-682.59"/>
<path data-id="54-114" d="M1026.21,-709.79,1061.94,-773.12"/>
<path data-id="55-102" d="M360.86,-676.84,349.29,-635.85"/>
<path data-id="55-109" d="M360.86,-676.84,273.62,-700.92"/>
<path data-id="56-96" d="M1111.50,-82.92,1091.77,-10.94"/>
<path data-id="57-58" d="M418.20,-458.37,458.30,-484.68"/>
<path data-id="58-116" d="M458.30,-484.68,582.83,-479.20"/>
<path data-id="59-124" d="M787.42,-1062.73,828.40,-1000.72"/>
<path data-id="60-82" d="M274.85,-794.89,317.88,-777.59"/>
<path data-id="60-88" d="M274.85,-794.89,248.81,-765.20"/>
<path data-id="60-118" d="M274.85,-794.89,249.97,-877.32"/>
<path data-id="61-99" d="M906.01,-602.35,1057.39,-610.83"/>
<path data-id="61-113" d="M906.01,-602.35,809.81,-590.59"/>
<path data-id="62-92" d="M48.70,-332.71,289.90,-246.34"/>
<path data-id="62-98" d="M48.70,-332.71,156.96,-437.30"/>
<path data-id="63-73" d="M556.38,-1041.86,447.71,-1034.05"/>
<path data-id="63-120" d="M556.38,-1041.86,625.56,-1053.52"/>
<path data-id="64-86" d="M676.53,-578.45,662.40,-470.20"/>
<path data-id="64-100" d="M676.53,-578.45,760.57,-563.59"/>
<path data-id="66-80" d="M745.83,-875.18,637.59,-839.21"/>
<path data-id="67-106" d="M983.90,-71.92,939.69,-193.74"/>
<path data-id="68-82" d="M364.91,-849.86,317.88,-777.59"/>
<path data-id="68-111" d="M364.91,-849.86,448.89,-915.83"/>
<path data-id="69-111" d="M541.67,-887.08,448.89,-915.83"/>
<path data-id="70-105" d="M438.18,-140.18,360.09,-67.99"/>
<path data-id="71-101" d="M942.40,-1054.52,919.80,-1026.91"/>
<path data-id="71-122" d="M942.40,-1054.52,1026.30,-1056.96"/>
<path data-id="72-92" d="M271.41,-80.05,289.90,-246.34"/>
<path data-id="72-105" d="M271.41,-80.05,360.09,-67.99"/>
<path data-id="73-87" d="M447.71,-1034.05,393.79,-980.57"/>
<path data-id="75-101" d="M1047.88,-943.88,919.80,-1026.91"/>
<path data-id="75-104" d="M1047.88,-943.88,1117.61,-829.86"/>
<path data-id="76-90" d="M192.14,-458.17,240.91,-476.53"/>
<path data-id="76-98" d="M192.14,-458.17,156.96,-437.30"/>
<path data-id="77-106" d="M879.84,-93.89,939.69,-193.74"/>
<path data-id="78-89" d="M185.40,-1017.90,181.87,-1074.09"/>
<path data-id="78-97" d="M185.40,-1017.90,322.33,-1055.43"/>
<path data-id="78-115" d="M185.40,-1017.90,129.41,-956.44"/>
<path data-id="78-118" d="M185.40,-1017.90,249.97,-877.32"/>
<path data-id="79-85" d="M781.97,-331.52,701.15,-326.06"/>
<path data-id="80-83" d="M637.59,-839.21,613.58,-987.21"/>
<path data-id="81-112" d="M501.84,-238.72,440.93,-264.86"/>
<path data-id="81-123" d="M501.84,-238.72,575.97,-141.10"/>
<path data-id="82-109" d="M317.88,-777.59,273.62,-700.92"/>
<path data-id="83-120" d="M613.58,-987.21,625.56,-1053.52"/>
<path data-id="84-108" d="M325.59,-381.40,344.26,-329.58"/>
<path data-id="86-116" d="M662.40,-470.20,582.83,-479.20"/>
<path data-id="86-117" d="M662.40,-470.20,736.68,-459.16"/>
<path data-id="87-97" d="M393.79,-980.57,322.33,-1055.43"/>
<path data-id="87-111" d="M393.79,-980.57,448.89,-915.83"/>
<path data-id="88-109" d="M248.81,-765.20,273.62,-700.92"/>
<path data-id="89-97" d="M181.87,-1074.09,322.33,-1055.43"/>
<path data-id="91-92" d="M366.09,-287.42,289.90,-246.34"/>
<path data-id="91-108" d="M366.09,-287.42,344.26,-329.58"/>
<path data-id="91-112" d="M366.09,-287.42,440.93,-264.86"/>
<path data-id="93-106" d="M961.34,-324.44,939.69,-193.74"/>
<path data-id="94-110" d="M648.73,-177.96,689.68,-93.85"/>
<path data-id="94-123" d="M648.73,-177.96,575.97,-141.10"/>
<path data-id="99-103" d="M1057.39,-610.83,966.30,-682.59"/>
<path data-id="100-113" d="M760.57,-563.59,809.81,-590.59"/>
<path data-id="100-117" d="M760.57,-563.59,736.68,-459.16"/>
<path data-id="101-124" d="M919.80,-1026.91,828.40,-1000.72"/>
<path data-id="102-109" d="M349.29,-635.85,273.62,-700.92"/>
<path data-id="104-114" d="M1117.61,-829.86,1061.94,-773.12"/>
<path data-id="107-122" d="M1052.13,-1082.24,1026.30,-1056.96"/>
<path data-id="115-118" d="M129.41,-956.44,249.97,-877.32"/>
<circle data-id="0" cx="618.62" cy="-327.13" r="10.00px"/>
<text data-id="0" x="618.62" y="-327.13">R0</text>
<circle data-id="1" cx="827.80" cy="-925.03" r="10.00px"/>
<text data-id="1" x="827.80" y="-925.03">R1</text>
<circle data-id="2" cx="264.42" cy="-578.21" r="10.00px"/>
<text data-id="2" x="264.42" y="-578.21">R2</text>
<circle data-id="3" cx="1055.92" cy="-354.04" r="10.00px"/>
<text data-id="3" x="1055.92" y="-354.04">R3</text>
<circle data-id="4" cx="67.66" cy="-132.78" r="10.00px"/>
<text data-id="4" x="67.66" y="-132.78">R4</text>
<circle data-id="5" cx="881.43" cy="-224.68" r="10.00px"/>
<text data-id="5" x="881.43" y="-224.68">R5</text>
<circle data-id="6" cx="1045.78" cy="-457.13" r="10.00px"/>
<text data-id="6" x="1045.78" y="-457.13">R6</text>
<circle data-id="7" cx="881.88" cy="-659.30" r="10.00px"/>
<text data-id="7" x="881.88" y="-659.30">R7</text>
<circle data-id="8" cx="157.99" cy="-480.68" r="10.00px"/>
<text data-id="8" x="157.99" y="-480.68">R8</text>
<circle data-id="9" cx="750.68" cy="-1055.21" r="10.00px"/>
<text data-id="9" x="750.68" y="-1055.21">R9</text>
<circle data-id="10" cx="380.15" cy="-469.19" r="10.00px"/>
<text data-id="10" x="380.15" y="-469.19">R10</text>
<circle data-id="11" cx="1094.21" cy="-111.84" r="10.00px"/>
<text data-id="11" x="1094.21" y="-111.84">R11</text>
<circle data-id="12" cx="115.03" cy="-609.50" r="10.00px"/>
<text data-id="12" x="115.03" y="-609.50">R12</text>
<circle data-id="13" cx="722.75" cy="-912.27" r="10.00px"/>
<text data-id="13" x="722.75" y="-912.27">R13</text>
<circle data-id="14" cx="415.80" cy="-1055.92" r="10.00px"/>
<text data-id="14" x="415.80" y="-1055.92">R14</text>
<circle data-id="15" cx="93.87" cy="-830.19" r="10.00px"/>
<text data-id="15" x="93.87" y="-830.19">R15</text>
<circle data-id="16" cx="456.31" cy="-658.07" r="10.00px"/>
<text data-id="16" x="456.31" y="-658.07">R16</text>
<circle data-id="17" cx="610.02" cy="-95.91" r="10.00px"/>
<text data-id="17" x="610.02" y="-95.91">R17</text>
<circle data-id="18" cx="1109.43" cy="-489.00" r="10.00px"/>
<text data-id="18" x="1109.43" y="-489.00">R18</text>
<circle data-id="19" cx="615.84" cy="-16.24" r="10.00px"/>
<text data-id="19" x="615.84" y="-16.24">R19</text>
<circle data-id="20" cx="898.11" cy="-402.53" r="10.00px"/>
<text data-id="20" x="898.11" y="-402.53">R20</text>
<circle data-id="21" cx="539.32" cy="-597.06" r="10.00px"/>
<text data-id="21" x="539.32" y="-597.06">R21</text>
<circle data-id="22" cx="459.25" cy="-186.76" r="10.00px"/>
<text data-id="22" x="459.25" y="-186.76">R22</text>
<circle data-id="23" cx="1065.61" cy="-1047.20" r="10.00px"/>
<text data-id="23" x="1065.61" y="-1047.20">R23</text>
<circle data-id="24" cx="343.58" cy="-905.84" r="10.00px"/>
<text data-id="24" x="343.58" y="-905.84">R24</text>
<circle data-id="25" cx="256.37" cy="-447.28" r="10.00px"/>
<text data-id="25" x="256.37" y="-447.28">R25</text>
<circle data-id="26" cx="467.16" cy="-517.21" r="10.00px"/>
<text data-id="26" x="467.16" y="-517.21">R26</text>
<circle data-id="27" cx="988.99" cy="-890.61" r="10.00px"/>
<text data-id="27" x="988.99" y="-890.61">R27</text>
<circle data-id="28" cx="381.52" cy="-712.56" r="10.00px"/>
<text data-id="28" x="381.52" y="-712.56">R28</text>
<circle data-id="29" cx="853.89" cy="-72.82" r="10.00px"/>
<text data-id="29" x="853.89" y="-72.82">R29</text>
<circle data-id="30" cx="140.04" cy="-677.44" r="10.00px"/>
<text data-id="30" x="140.04" y="-677.44">R30</text>
<circle data-id="31" cx="732.98" cy="-224.51" r="10.00px"/>
<text data-id="31" x="732.98" y="-224.51">R31</text>
<circle data-id="32" cx="729.42" cy="-786.72" r="10.00px"/>
<text data-id="32" x="729.42" y="-786.72">R32</text>
<circle data-id="33" cx="394.70" cy="-180.07" r="10.00px"/>
<text data-id="33" x="394.70" y="-180.07">R33</text>
<circle data-id="34" cx="1006.78" cy="-444.50" r="10.00px"/>
<text data-id="34" x="1006.78" y="-444.50">R34</text>
<circle data-id="35" cx="95.49" cy="-965.65" r="10.00px"/>
<text data-id="35" x="95.49" y="-965.65">R35</text>
<circle data-id="36" cx="700.69" cy="-410.83" r="10.00px"/>
<text data-id="36" x="700.69" y="-410.83">R36</text>
<circle data-id="37" cx="40.17" cy="-961.94" r="10.00px"/>
<text data-id="37" x="40.17" y="-961.94">R37</text>
<circle data-id="38" cx="119.92" cy="-1093.86" r="10.00px"/>
<text data-id="38" x="119.92" y="-1093.86">R38</text>
<circle data-id="39" cx="807.62" cy="-969.84" r="10.00px"/>
<text data-id="39" x="807.62" y="-969.84">R39</text>
<circle data-id="40" cx="517.26" cy="-758.58" r="10.00px"/>
<text data-id="40" x="517.26" y="-758.58">R40</text>
<circle data-id="41" cx="770.04" cy="-245.95" r="10.00px"/>
<text data-id="41" x="770.04" y="-245.95">R41</text>
<circle data-id="42" cx="383.43" cy="-5.75" r="10.00px"/>
<text data-id="42" x="383.43" y="-5.75">R42</text>
<circle data-id="43" cx="478.69" cy="-1116.97" r="10.00px"/>
<text data-id="43" x="478.69" y="-1116.97">R43</text>
<circle data-id="44" cx="51.69" cy="-75.69" r="10.00px"/>
<text data-id="44" x="51.69" y="-75.69">R44</text>
<circle data-id="45" cx="901.28" cy="-69.57" r="10.00px"/>
<text data-id="45" x="901.28" y="-69.57">R45</text>
<circle data-id="46" cx="472.03" cy="-154.37" r="10.00px"/>
<text data-id="46" x="472.03" y="-154.37">R46</text>
<circle data-id="47" cx="1024.45" cy="-27.36" r="10.00px"/>
<text data-id="47" x="1024.45" y="-27.36">R47</text>
<circle data-id="48" cx="563.36" cy="-985.33" r="10.00px"/>
<text data-id="48" x="563.36" y="-985.33">R48</text>
<circle data-id="49" cx="1050.95" cy="-393.78" r="10.00px"/>
<text data-id="49" x="1050.95" y="-393.78">R49</text>
<circle data-id="50" cx="577.00" cy="-832.45" r="10.00px"/>
<text data-id="50" x="577.00" y="-832.45">R50</text>
<circle data-id="51" cx="440.70" cy="-64.68" r="10.00px"/>
<text data-id="51" x="440.70" y="-64.68">R51</text>
<circle data-id="52" cx="331.06" cy="-613.63" r="10.00px"/>
<text data-id="52" x="331.06" y="-613.63">R52</text>
<circle data-id="53" cx="928.18" cy="-667.45" r="10.00px"/>
<text data-id="53" x="928.18" y="-667.45">R53</text>
<circle data-id="54" cx="1026.21" cy="-709.79" r="10.00px"/>
<text data-id="54" x="1026.21" y="-709.79">R54</text>
<circle data-id="55" cx="360.86" cy="-676.84" r="10.00px"/>
<text data-id="55" x="360.86" y="-676.84">R55</text>
<circle data-id="56" cx="1111.50" cy="-82.92" r="10.00px"/>
<text data-id="56" x="1111.50" y="-82.92">R56</text>
<circle data-id="57" cx="418.20" cy="-458.37" r="10.00px"/>
<text data-id="57" x="418.20" y="-458.37">R57</text>
<circle data-id="58" cx="458.30" cy="-484.68" r="10.00px"/>
<text data-id="58" x="458.30" y="-484.68">R58</text>
<circle data-id="59" cx="787.42" cy="-1062.73" r="10.00px"/>
<text data-id="59" x="787.42" y="-1062.73">R59</text>
<circle data-id="60" cx="274.85" cy="-794.89" r="10.00px"/>
<text data-id="60" x="274.85" y="-794.89">R60</text>
<circle data-id="61" cx="906.01" cy="-602.35" r="10.00px"/>
<text data-id="61" x="906.01" y="-602.35">R61</text>
<circle data-id="62" cx="48.70" cy="-332.71" r="10.00px"/>
<text data-id="62" x="48.70" y="-332.71">R62</text>
<circle data-id="63" cx="556.38" cy="-1041.86" r="10.00px"/>
<text data-id="63" x="556.38" y="-1041.86">R63</text>
<circle data-id="64" cx="676.53" cy="-578.45" r="10.00px"/>
<text data-id="64" x="676.53" y="-578.45">R64</text>
<circle data-id="65" cx="44.84" cy="-934.16" r="10.00px"/>
<text data-id="65" x="44.84" y="-934.16">R65</text>
<circle data-id="66" cx="745.83" cy="-875.18" r="10.00px"/>
<text data-id="66" x="745.83" y="-875.18">R66</text>
<circle data-id="67" cx="983.90" cy="-71.92" r="10.00px"/>
<text data-id="67" x="983.90" y="-71.92">R67</text>
<circle data-id="68" cx="364.91" cy="-849.86" r="10.00px"/>
<text data-id="68" x="364.91" y="-849.86">R68</text>
<circle data-id="69" cx="541.67" cy="-887.08" r="10.00px"/>
<text data-id="69" x="541.67" y="-887.08">R69</text>
<circle data-id="70" cx="438.18" cy="-140.18" r="10.00px"/>
<text data-id="70" x="438.18" y="-140.18">R70</text>
<circle data-id="71" cx="942.40" cy="-1054.52" r="10.00px"/>
<text data-id="71" x="942.40" y="-1054.52">R71</text>
<circle data-id="72" cx="271.41" cy="-80.05" r="10.00px"/>
<text data-id="72" x="271.41" y="-80.05">R72</text>
<circle data-id="73" cx="447.71" cy="-1034.05" r="10.00px"/>
<text data-id="73" x="447.71" y="-1034.05">R73</text>
<circle data-id="74" cx="892.00" cy="-687.49" r="10.00px"/>
<text data-id="74" x="892.00" y="-687.49">R74</text>
<circle data-id="75" cx="1047.88" cy="-943.88" r="10.00px"/>
<text data-id="75" x="1047.88" y="-943.88">R75</text>
<circle data-id="76" cx="192.14" cy="-458.17" r="10.00px"/>
<text data-id="76" x="192.14" y="-458.17">R76</text>
<circle data-id="77" cx="879.84" cy="-93.89" r="10.00px"/>
<text data-id="77" x="879.84" y="-93.89">R77</text>
<circle data-id="78" cx="185.40" cy="-1017.90" r="10.00px"/>
<text data-id="78" x="185.40" y="-1017.90">R78</text>
<circle data-id="79" cx="781.97" cy="-331.52" r="10.00px"/>
<text data-id="79" x="781.97" y="-331.52">R79</text>
<circle data-id="80" cx="637.59" cy="-839.21" r="10.00px"/>
<text data-id="80" x="637.59" y="-839.21">R80</text>
<circle data-id="81" cx="501.84" cy="-238.72" r="10.00px"/>
<text data-id="81" x="501.84" y="-238.72">R81</text>
<circle data-id="82" cx="317.88" cy="-777.59" r="10.00px"/>
<text data-id="82" x="317.88" y="-777.59">R82</text>
<circle data-id="83" cx="613.58" cy="-987.21" r="10.00px"/>
<text data-id="83" x="613.58" y="-987.21">R83</text>
<circle data-id="84" cx="325.59" cy="-381.40" r="10.00px"/>
<text data-id="84" x="325.59" y="-381.40">R84</text>
<circle data-id="85" cx="701.15" cy="-326.06" r="10.00px"/>
<text data-id="85" x="701.15" y="-326.06">R85</text>
<circle data-id="86" cx="662.40" cy="-470.20" r="10.00px"/>
<text data-id="86" x="662.40" y="-470.20">R86</text>
<circle data-id="87" cx="393.79" cy="-980.57" r="10.00px"/>
<text data-id="87" x="393.79" y="-980.57">R87</text>
<circle data-id="88" cx="248.81" cy="-765.20" r="10.00px"/>
<text data-id="88" x="248.81" y="-765.20">R88</text>
<circle data-id="89" cx="181.87" cy="-1074.09" r="10.00px"/>
<text data-id="89" x="181.87" y="-1074.09">R89</text>
<circle data-id="90" cx="240.91" cy="-476.53" r="10.00px"/>
<text data-id="90" x="240.91" y="-476.53">R90</text>
<circle data-id="91" cx="366.09" cy="-287.42" r="10.00px"/>
<text data-id="91" x="366.09" y="-287.42">R91</text>
<circle data-id="92" cx="289.90" cy="-246.34" r="10.00px"/>
<text data-id="92" x="289.90" y="-246.34">R92</text>
<circle data-id="93" cx="961.34" cy="-324.44" r="10.00px"/>
<text data-id="93" x="961.34" y="-324.44">R93</text>
<circle data-id="94" cx="648.73" cy="-177.96" r="10.00px"/>
<text data-id="94" x="648.73" y="-177.96">R94</text>
<circle data-id="95" cx="30.14" cy="-581.75" r="10.00px"/>
<text data-id="95" x="30.14" y="-581.75">R95</text>
<circle data-id="96" cx="1091.77" cy="-10.94" r="10.00px"/>
<text data-id="96" x="1091.77" y="-10.94">R96</text>
<circle data-id="97" cx="322.33" cy="-1055.43" r="10.00px"/>
<text data-id="97" x="322.33" y="-1055.43">R97</text>
<circle data-id="98" cx="156.96" cy="-437.30" r="10.00px"/>
<text data-id="98" x="156.96" y="-437.30">R98</text>
<circle data-id="99" cx="1057.39" cy="-610.83" r="10.00px"/>
<text data-id="99" x="1057.39" y="-610.83">R99</text>
<circle data-id="100" cx="760.57" cy="-563.59" r="10.00px"/>
<text data-id="100" x="760.57" y="-563.59">R100</text>
<circle data-id="101" cx="919.80" cy="-1026.91" r="10.00px"/>
<text data-id="101" x="919.80" y="-1026.91">R101</text>
<circle data-id="102" cx="349.29" cy="-635.85" r="10.00px"/>
<text data-id="102" x="349.29" y="-635.85">R102</text>
<circle data-id="103" cx="966.30" cy="-682.59" r="10.00px"/>
<text data-id="103" x="966.30" y="-682.59">R103</text>
<circle data-id="104" cx="1117.61" cy="-829.86" r="10.00px"/>
<text data-id="104" x="1117.61" y="-829.86">R104</text>
<circle data-id="105" cx="360.09" cy="-67.99" r="10.00px"/>
<text data-id="105" x="360.09" y="-67.99">R105</text>
<circle data-id="106" cx="939.69" cy="-193.74" r="10.00px"/>
<text data-id="106" x="939.69" y="-193.74">R106</text>
<circle data-id="107" cx="1052.13" cy="-1082.24" r="10.00px"/>
<text data-id="107" x="1052.13" y="-1082.24">R107</text>
<circle data-id="108" cx="344.26" cy="-329.58" r="10.00px"/>
<text data-id="108" x="344.26" y="-329.58">R108</text>
<circle data-id="109" cx="273.62" cy="-700.92" r="10.00px"/>
<text data-id="109" x="273.62" y="-700.92">R109</text>
<circle data-id="110" cx="689.68" cy="-93.85" r="10.00px"/>
<text data-id="110" x="689.68" y="-93.85">R110</text>
<circle data-id="111" cx="448.89" cy="-915.83" r="10.00px"/>
<text data-id="111" x="448.89" y="-915.83">R111</text>
<circle data-id="112" cx="440.93" cy="-264.86" r="10.00px"/>
<text data-id="112" x="440.93" y="-264.86">R112</text>
<circle data-id="113" cx="809.81" cy="-590.59" r="10.00px"/>
<text data-id="113" x="809.81" y="-590.59">R113</text>
<circle data-id="114" cx="1061.94" cy="-773.12" r="10.00px"/>
<text data-id="114" x="1061.94" y="-773.12">R114</text>
<circle data-id="115" cx="129.41" cy="-956.44" r="10.00px"/>
<text data-id="115" x="129.41" y="-956.44">R115</text>
<circle data-id="116" cx="582.83" cy="-479.20" r="10.00px"/>
<text data-id="116" x="582.83" y="-479.20">R116</text>
<circle data-id="117" cx="736.68" cy="-459.16" r="10.00px"/>
<text data-id="117" x="736.68" y="-459.16">R117</text>
<circle data-id="118" cx="249.97" cy="-877.32" r="10.00px"/>
<text data-id="118" x="249.97" y="-877.32">R118</text>
<circle data-id="119" cx="550.30" cy="-775.26" r="10.00px"/>
<text data-id="119" x="550.30" y="-775.26">R119</text>
<circle data-id="120" cx="625.56" cy="-1053.52" r="10.00px"/>
<text data-id="120" x="625.56" y="-1053.52">R120</text>
<circle data-id="121" cx="3.73" cy="-978.79" r="10.00px"/>
<text data-id="121" x="3.73" y="-978.79">R121</text>
<circle data-id="122" cx="1026.30" cy="-1056.96" r="10.00px"/>
<text data-id="122" x="1026.30" y="-1056.96">R122</text>
<circle data-id="123" cx="575.97" cy="-141.10" r="10.00px"/>
<text data-id="123" x="575.97" y="-141.10">R123</text>
<circle data-id="124" cx="828.40" cy="-1000.72" r="10.00px"/>
<text data-id="124" x="828.40" y="-1000.72">R124</text>
</svg>
