<svg id="topo" viewBox="-47.59 -1153.31 1206.27 1200.93" xmlns="http://www.w3.org/2000/svg">
<style>#topo path {fill: none; stroke: grey; stroke-width: 5.0000px;} #topo circle {fill: lightblue; stroke: none; stroke-width: 0.3px; vector-effect: non-scaling-stroke; r: 10.0000px;} #topo text {fill: black; stroke: none; font-size: 15.0000px; font-family: sans-serif; text-anchor:middle; transform: translateY(0.3em);} #topo path.country {fill: lightgrey; stroke: black; stroke-width: 1px; vector-effect: non-scaling-stroke; visibility: visible;} #topo path.selection {fill: none; stroke: red; stroke-width: 1px; vector-effect: non-scaling-stroke; visibility: visible;} #topo path.utilization {visibility: hidden;}</style>
<path data-id="0-38" d="M211.35,-145.07,284.61,-140.88"/>
<path data-id="0-46" d="M211.35,-145.07,219.59,-222.60"/>
<path data-id="0-67" d="M211.35,-145.07,177.54,-170.05"/>
<path data-id="0-79" d="M211.35,-145.07,213.31,-85.56"/>
<path data-id="1-12" d="M18.08,-740.17,81.02,-714.25"/>
<path data-id="1-78" d="M18.08,-740.17,18.94,-829.51"/>
<path data-id="2-27" d="M123.43,-73.01,67.45,-162.44"/>
<path data-id="2-67" d="M123.43,-73.01,177.54,-170.05"/>
<path data-id="2-79" d="M123.43,-73.01,213.31,-85.56"/>
<path data-id="2-95" d="M123.43,-73.01,20.05,-73.44"/>
<path data-id="3-31" d="M556.72,-486.68,491.46,-450.67"/>
<path data-id="3-51" d="M556.72,-486.68,670.86,-447.76"/>
<path data-id="3-57" d="M556.72,-486.68,602.12,-671.97"/>
<path data-id="4-25" d="M700.72,-470.98,733.74,-606.13"/>
<path data-id="4-51" d="M700.72,-470.98,670.86,-447.76"/>
<path data-id="4-71" d="M700.72,-470.98,753.83,-462.27"/>
<path data-id="5-15" d="M197.47,-596.68,234.97,-418.18"/>
<path data-id="5-18" d="M197.47,-596.68,264.79,-764.10"/>
<path data-id="5-21" d="M197.47,-596.68,144.04,-582.80"/>
<path data-id="5-44" d="M197.47,-596.68,314.59,-456.49"/>
<path data-id="5-109" d="M197.47,-596.68,189.81,-790.65"/>
<path data-id="5-117" d="M197.47,-596.68,332.43,-711.70"/>
<path data-id="5-120" d="M197.47,-596.68,382.39,-638.59"/>
<path data-id="6-19" d="M434.62,-854.43,544.77,-777.16"/>
<path data-id="6-64" d="M434.62,-854.43,363.89,-862.07"/>
<path data-id="6-83" d="M434.62,-854.43,539.39,-986.05"/>
<path data-id="6-91" d="M434.62,-854.43,406.48,-804.06"/>
<path data-id="7-58" d="M717.09,-138.67,797.91,-90.35"/>
<path data-id="7-81" d="M717.09,-138.67,611.00,-174.45"/>
<path data-id="7-90" d="M717.09,-138.67,775.74,-279.75"/>
<path data-id="7-108" d="M717.09,-138.67,599.29,-119.71"/>
<path data-id="8-25" d="M665.19,-710.81,733.74,-606.13"/>
<path data-id="8-57" d="M665.19,-710.81,602.12,-671.97"/>
<path data-id="8-72" d="M665.19,-710.81,658.18,-749.25"/>
<path data-id="8-75" d="M665.19,-710.81,766.53,-670.79"/>
<path data-id="9-41" d="M682.16,-998.72,633.15,-975.65"/>
<path data-id="9-48" d="M682.16,-998.72,736.12,-901.82"/>
<path data-id="9-122" d="M682.16,-998.72,792.40,-968.57"/>
<path data-id="10-34" d="M983.85,-795.23,1007.46,-827.90"/>
<path data-id="10-60" d="M983.85,-795.23,925.96,-751.23"/>
<path data-id="10-98" d="M983.85,-795.23,1012.82,-755.08"/>
<path data-id="10-105" d="M983.85,-795.23,953.53,-814.66"/>
<path data-id="11-34" d="M1062.48,-926.89,1007.46,-827.90"/>
<path data-id="11-92" d="M1062.48,-926.89,1103.85,-775.27"/>
<path data-id="11-118" d="M1062.48,-926.89,1063.56,-989.64"/>
<path data-id="12-89" d="M81.02,-714.25,116.04,-596.89"/>
<path data-id="12-109" d="M81.02,-714.25,189.81,-790.65"/>
<path data-id="13-37" d="M475.33,-333.10,580.51,-222.09"/>
<path data-id="13-65" d="M475.33,-333.10,363.83,-434.25"/>
<path data-id="13-82" d="M475.33,-333.10,514.50,-387.24"/>
<path data-id="13-97" d="M475.33,-333.10,424.40,-287.56"/>
<path data-id="14-63" d="M978.00,-991.37,882.28,-862.09"/>
<path data-id="14-118" d="M978.00,-991.37,1063.56,-989.64"/>
<path data-id="14-122" d="M978.00,-991.37,792.40,-968.57"/>
<path data-id="15-21" d="M234.97,-418.18,144.04,-582.80"/>
<path data-id="15-50" d="M234.97,-418.18,261.36,-405.30"/>
<path data-id="15-66" d="M234.97,-418.18,53.11,-518.39"/>
<path data-id="15-112" d="M234.97,-418.18,223.69,-386.82"/>
<path data-id="16-20" d="M183.47,-319.70,94.46,-375.30"/>
<path data-id="16-46" d="M183.47,-319.70,219.59,-222.60"/>
<path data-id="16-80" d="M183.47,-319.70,102.82,-255.12"/>
<path data-id="16-84" d="M183.47,-319.70,263.33,-359.12"/>
<path data-id="16-112" d="M183.47,-319.70,223.69,-386.82"/>
<path data-id="17-30" d="M1100.44,-181.97,983.45,-124.66"/>
<path data-id="17-36" d="M1100.44,-181.97,1010.65,-69.67"/>
<path data-id="17-103" d="M1100.44,-181.97,1020.31,-239.26"/>
<path data-id="18-109" d="M264.79,-764.10,189.81,-790.65"/>
<path data-id="18-123" d="M264.79,-764.10,320.59,-779.51"/>
<path data-id="19-53" d="M544.77,-777.16,646.64,-902.05"/>
<path data-id="19-57" d="M544.77,-777.16,602.12,-671.97"/>
<path data-id="19-72" d="M544.77,-777.16,658.18,-749.25"/>
<path data-id="19-83" d="M544.77,-777.16,539.39,-986.05"/>
<path data-id="19-96" d="M544.77,-777.16,414.60,-773.57"/>
<path data-id="20-66" d="M94.46,-375.30,53.11,-518.39"/>
<path data-id="20-80" d="M94.46,-375.30,102.82,-255.12"/>
<path data-id="20-112" d="M94.46,-375.30,223.69,-386.82"/>
<path data-id="21-89" d="M144.04,-582.80,116.04,-596.89"/>
<path data-id="22-88" d="M979.91,-596.82,972.02,-534.67"/>
<path data-id="22-110" d="M979.91,-596.82,925.45,-563.84"/>
<path data-id="22-111" d="M979.91,-596.82,997.81,-638.44"/>
<path data-id="23-68" d="M583.61,-74.71,596.06,-37.77"/>
<path data-id="23-77" d="M583.61,-74.71,348.24,-113.55"/>
<path data-id="23-108" d="M583.61,-74.71,599.29,-119.71"/>
<path data-id="24-45" d="M1079.56,-477.73,975.62,-463.06"/>
<path data-id="24-52" d="M1079.56,-477.73,1083.62,-511.03"/>
<path data-id="25-75" d="M733.74,-606.13,766.53,-670.79"/>
<path data-id="25-106" d="M733.74,-606.13,798.92,-561.05"/>
<path data-id="26-41" d="M636.74,-944.90,633.15,-975.65"/>
<path data-id="26-53" d="M636.74,-944.90,646.64,-902.05"/>
<path data-id="27-43" d="M67.45,-162.44,164.99,-198.65"/>
<path data-id="27-80" d="M67.45,-162.44,102.82,-255.12"/>
<path data-id="27-95" d="M67.45,-162.44,20.05,-73.44"/>
<path data-id="27-107" d="M67.45,-162.44,17.97,-180.02"/>
<path data-id="28-94" d="M801.99,-883.80,852.79,-865.85"/>
<path data-id="28-101" d="M801.99,-883.80,773.52,-921.45"/>
<path data-id="28-104" d="M801.99,-883.80,730.40,-849.76"/>
<path data-id="29-76" d="M342.49,-342.36,315.78,-309.76"/>
<path data-id="29-93" d="M342.49,-342.36,313.49,-351.68"/>
<path data-id="29-115" d="M342.49,-342.36,372.00,-321.12"/>
<path data-id="30-36" d="M983.45,-124.66,1010.65,-69.67"/>
<path data-id="30-56" d="M983.45,-124.66,907.72,-84.24"/>
<path data-id="30-103" d="M983.45,-124.66,1020.31,-239.26"/>
<path data-id="31-62" d="M491.46,-450.67,402.27,-525.39"/>
<path data-id="31-65" d="M491.46,-450.67,363.83,-434.25"/>
<path data-id="31-82" d="M491.46,-450.67,514.50,-387.24"/>
<path data-id="32-41" d="M610.20,-988.66,633.15,-975.65"/>
<path data-id="32-83" d="M610.20,-988.66,539.39,-986.05"/>
<path data-id="32-121" d="M610.20,-988.66,587.79,-1049.59"/>
<path data-id="33-72" d="M724.74,-788.11,658.18,-749.25"/>
<path data-id="33-75" d="M724.74,-788.11,766.53,-670.79"/>
<path data-id="33-104" d="M724.74,-788.11,730.40,-849.76"/>
<path data-id="34-39" d="M1007.46,-827.90,1061.25,-763.80"/>
<path data-id="35-40" d="M923.60,-408.84,885.11,-454.54"/>
<path data-id="35-45" d="M923.60,-408.84,975.62,-463.06"/>
<path data-id="35-74" d="M923.60,-408.84,984.57,-350.95"/>
<path data-id="35-102" d="M923.60,-408.84,910.10,-370.93"/>
<path data-id="36-49" d="M1010.65,-69.67,941.52,-22.08"/>
<path data-id="36-56" d="M1010.65,-69.67,907.72,-84.24"/>
<path data-id="37-61" d="M580.51,-222.09,624.80,-274.53"/>
<path data-id="37-81" d="M580.51,-222.09,611.00,-174.45"/>
<path data-id="37-85" d="M580.51,-222.09,563.70,-191.52"/>
<path data-id="38-46" d="M284.61,-140.88,219.59,-222.60"/>
<path data-id="38-77" d="M284.61,-140.88,348.24,-113.55"/>
<path data-id="38-79" d="M284.61,-140.88,213.31,-85.56"/>
<path data-id="38-119" d="M284.61,-140.88,363.88,-172.81"/>
<path data-id="39-47" d="M1061.25,-763.80,1098.94,-627.40"/>
<path data-id="39-92" d="M1061.25,-763.80,1103.85,-775.27"/>
<path data-id="39-98" d="M1061.25,-763.80,1012.82,-755.08"/>
<path data-id="40-45" d="M885.11,-454.54,975.62,-463.06"/>
<path data-id="40-69" d="M885.11,-454.54,765.32,-427.93"/>
<path data-id="40-106" d="M885.11,-454.54,798.92,-561.05"/>
<path data-id="40-110" d="M885.11,-454.54,925.45,-563.84"/>
<path data-id="42-78" d="M7.24,-932.16,18.94,-829.51"/>
<path data-id="42-87" d="M7.24,-932.16,73.44,-1088.29"/>
<path data-id="42-113" d="M7.24,-932.16,134.33,-946.45"/>
<path data-id="43-46" d="M164.99,-198.65,219.59,-222.60"/>
<path data-id="43-67" d="M164.99,-198.65,177.54,-170.05"/>
<path data-id="43-80" d="M164.99,-198.65,102.82,-255.12"/>
<path data-id="44-54" d="M314.59,-456.49,312.65,-406.44"/>
<path data-id="44-62" d="M314.59,-456.49,402.27,-525.39"/>
<path data-id="44-65" d="M314.59,-456.49,363.83,-434.25"/>
<path data-id="45-74" d="M975.62,-463.06,984.57,-350.95"/>
<path data-id="45-88" d="M975.62,-463.06,972.02,-534.67"/>
<path data-id="46-67" d="M219.59,-222.60,177.54,-170.05"/>
<path data-id="46-76" d="M219.59,-222.60,315.78,-309.76"/>
<path data-id="47-52" d="M1098.94,-627.40,1083.62,-511.03"/>
<path data-id="47-92" d="M1098.94,-627.40,1103.85,-775.27"/>
<path data-id="47-111" d="M1098.94,-627.40,997.81,-638.44"/>
<path data-id="48-53" d="M736.12,-901.82,646.64,-902.05"/>
<path data-id="48-101" d="M736.12,-901.82,773.52,-921.45"/>
<path data-id="48-104" d="M736.12,-901.82,730.40,-849.76"/>
<path data-id="49-56" d="M941.52,-22.08,907.72,-84.24"/>
<path data-id="49-99" d="M941.52,-22.08,846.27,-6.97"/>
<path data-id="50-54" d="M261.36,-405.30,312.65,-406.44"/>
<path data-id="50-84" d="M261.36,-405.30,263.33,-359.12"/>
<path data-id="50-112" d="M261.36,-405.30,223.69,-386.82"/>
<path data-id="51-55" d="M670.86,-447.76,608.92,-344.40"/>
<path data-id="51-116" d="M670.86,-447.76,702.10,-371.14"/>
<path data-id="52-88" d="M1083.62,-511.03,972.02,-534.67"/>
<path data-id="53-72" d="M646.64,-902.05,658.18,-749.25"/>
<path data-id="53-104" d="M646.64,-902.05,730.40,-849.76"/>
<path data-id="54-65" d="M312.65,-406.44,363.83,-434.25"/>
<path data-id="54-84" d="M312.65,-406.44,263.33,-359.12"/>
<path data-id="54-93" d="M312.65,-406.44,313.49,-351.68"/>
<path data-id="55-61" d="M608.92,-344.40,624.80,-274.53"/>
<path data-id="55-82" d="M608.92,-344.40,514.50,-387.24"/>
<path data-id="55-116" d="M608.92,-344.40,702.10,-371.14"/>
<path data-id="56-58" d="M907.72,-84.24,797.91,-90.35"/>
<path data-id="56-99" d="M907.72,-84.24,846.27,-6.97"/>
<path data-id="57-62" d="M602.12,-671.97,402.27,-525.39"/>
<path data-id="57-120" d="M602.12,-671.97,382.39,-638.59"/>
<path data-id="58-99" d="M797.91,-90.35,846.27,-6.97"/>
<path data-id="59-60" d="M884.60,-611.87,925.96,-751.23"/>
<path data-id="59-75" d="M884.60,-611.87,766.53,-670.79"/>
<path data-id="59-106" d="M884.60,-611.87,798.92,-561.05"/>
<path data-id="59-110" d="M884.60,-611.87,925.45,-563.84"/>
<path data-id="60-75" d="M925.96,-751.23,766.53,-670.79"/>
<path data-id="60-98" d="M925.96,-751.23,1012.82,-755.08"/>
<path data-id="60-100" d="M925.96,-751.23,918.94,-827.34"/>
<path data-id="60-105" d="M925.96,-751.23,953.53,-814.66"/>
<path data-id="60-111" d="M925.96,-751.23,997.81,-638.44"/>
<path data-id="61-90" d="M624.80,-274.53,775.74,-279.75"/>
<path data-id="62-65" d="M402.27,-525.39,363.83,-434.25"/>
<path data-id="62-120" d="M402.27,-525.39,382.39,-638.59"/>
<path data-id="63-94" d="M882.28,-862.09,852.79,-865.85"/>
<path data-id="63-100" d="M882.28,-862.09,918.94,-827.34"/>
<path data-id="64-91" d="M363.89,-862.07,406.48,-804.06"/>
<path data-id="64-113" d="M363.89,-862.07,134.33,-946.45"/>
<path data-id="64-114" d="M363.89,-862.07,286.99,-1071.96"/>
<path data-id="64-123" d="M363.89,-862.07,320.59,-779.51"/>
<path data-id="66-89" d="M53.11,-518.39,116.04,-596.89"/>
<path data-id="69-71" d="M765.32,-427.93,753.83,-462.27"/>
<path data-id="69-116" d="M765.32,-427.93,702.10,-371.14"/>
<path data-id="70-86" d="M146.07,-1098.72,177.98,-1033.07"/>
<path data-id="70-87" d="M146.07,-1098.72,73.44,-1088.29"/>
<path data-id="71-106" d="M753.83,-462.27,798.92,-561.05"/>
<path data-id="73-86" d="M142.22,-991.83,177.98,-1033.07"/>
<path data-id="73-87" d="M142.22,-991.83,73.44,-1088.29"/>
<path data-id="73-113" d="M142.22,-991.83,134.33,-946.45"/>
<path data-id="74-102" d="M984.57,-350.95,910.10,-370.93"/>
<path data-id="74-103" d="M984.57,-350.95,1020.31,-239.26"/>
<path data-id="76-93" d="M315.78,-309.76,313.49,-351.68"/>
<path data-id="76-119" d="M315.78,-309.76,363.88,-172.81"/>
<path data-id="77-119" d="M348.24,-113.55,363.88,-172.81"/>
<path data-id="78-109" d="M18.94,-829.51,189.81,-790.65"/>
<path data-id="78-113" d="M18.94,-829.51,134.33,-946.45"/>
<path data-id="81-85" d="M611.00,-174.45,563.70,-191.52"/>
<path data-id="81-108" d="M611.00,-174.45,599.29,-119.71"/>
<path data-id="83-114" d="M539.39,-986.05,286.99,-1071.96"/>
<path data-id="83-121" d="M539.39,-986.05,587.79,-1049.59"/>
<path data-id="84-93" d="M263.33,-359.12,313.49,-351.68"/>
<path data-id="84-112" d="M263.33,-359.12,223.69,-386.82"/>
<path data-id="85-97" d="M563.70,-191.52,424.40,-287.56"/>
<path data-id="85-119" d="M563.70,-191.52,363.88,-172.81"/>
<path data-id="86-114" d="M177.98,-1033.07,286.99,-1071.96"/>
<path data-id="88-110" d="M972.02,-534.67,925.45,-563.84"/>
<path data-id="90-102" d="M775.74,-279.75,910.10,-370.93"/>
<path data-id="90-116" d="M775.74,-279.75,702.10,-371.14"/>
<path data-id="91-96" d="M406.48,-804.06,414.60,-773.57"/>
<path data-id="91-123" d="M406.48,-804.06,320.59,-779.51"/>
<path data-id="95-107" d="M20.05,-73.44,17.97,-180.02"/>
<path data-id="96-124" d="M414.60,-773.57,336.69,-751.56"/>
<path data-id="97-115" d="M424.40,-287.56,372.00,-321.12"/>
<path data-id="97-119" d="M424.40,-287.56,363.88,-172.81"/>
<path data-id="98-111" d="M1012.82,-755.08,997.81,-638.44"/>
<path data-id="100-105" d="M918.94,-827.34,953.53,-814.66"/>
<path data-id="101-122" d="M773.52,-921.45,792.40,-968.57"/>
<path data-id="109-113" d="M189.81,-790.65,134.33,-946.45"/>
<path data-id="117-120" d="M332.43,-711.70,382.39,-638.59"/>
<path data-id="117-124" d="M332.43,-711.70,336.69,-751.56"/>
<path data-id="123-124" d="M320.59,-779.51,336.69,-751.56"/>
<circle data-id="0" cx="211.35" cy="-145.07" r="10.00px"/>
<text data-id="0" x="211.35" y="-145.07">R0</text>
<circle data-id="1" cx="18.08" cy="-740.17" r="10.00px"/>
<text data-id="1" x="18.08" y="-740.17">R1</text>
<circle data-id="2" cx="123.43" cy="-73.01" r="10.00px"/>
<text data-id="2" x="123.43" y="-73.01">R2</text>
<circle data-id="3" cx="556.72" cy="-486.68" r="10.00px"/>
<text data-id="3" x="556.72" y="-486.68">R3</text>
<circle data-id="4" cx="700.72" cy="-470.98" r="10.00px"/>
<text data-id="4" x="700.72" y="-470.98">R4</text>
<circle data-id="5" cx="197.47" cy="-596.68" r="10.00px"/>
<text data-id="5" x="197.47" y="-596.68">R5</text>
<circle data-id="6" cx="434.62" cy="-854.43" r="10.00px"/>
<text data-id="6" x="434.62" y="-854.43">R6</text>
<circle data-id="7" cx="717.09" cy="-138.67" r="10.00px"/>
<text data-id="7" x="717.09" y="-138.67">R7</text>
<circle data-id="8" cx="665.19" cy="-710.81" r="10.00px"/>
<text data-id="8" x="665.19" y="-710.81">R8</text>
<circle data-id="9" cx="682.16" cy="-998.72" r="10.00px"/>
<text data-id="9" x="682.16" y="-998.72">R9</text>
<circle data-id="10" cx="983.85" cy="-795.23" r="10.00px"/>
<text data-id="10" x="983.85" y="-795.23">R10</text>
<circle data-id="11" cx="1062.48" cy="-926.89" r="10.00px"/>
<text data-id="11" x="1062.48" y="-926.89">R11</text>
<circle data-id="12" cx="81.02" cy="-714.25" r="10.00px"/>
<text data-id="12" x="81.02" y="-714.25">R12</text>
<circle data-id="13" cx="475.33" cy="-333.10" r="10.00px"/>
<text data-id="13" x="475.33" y="-333.10">R13</text>
<circle data-id="14" cx="978.00" cy="-991.37" r="10.00px"/>
<text data-id="14" x="978.00" y="-991.37">R14</text>
<circle data-id="15" cx="234.97" cy="-418.18" r="10.00px"/>
<text data-id="15" x="234.97" y="-418.18">R15</text>
<circle data-id="16" cx="183.47" cy="-319.70" r="10.00px"/>
<text data-id="16" x="183.47" y="-319.70">R16</text>
<circle data-id="17" cx="1100.44" cy="-181.97" r="10.00px"/>
<text data-id="17" x="1100.44" y="-181.97">R17</text>
<circle data-id="18" cx="264.79" cy="-764.10" r="10.00px"/>
<text data-id="18" x="264.79" y="-764.10">R18</text>
<circle data-id="19" cx="544.77" cy="-777.16" r="10.00px"/>
<text data-id="19" x="544.77" y="-777.16">R19</text>
<circle data-id="20" cx="94.46" cy="-375.30" r="10.00px"/>
<text data-id="20" x="94.46" y="-375.30">R20</text>
<circle data-id="21" cx="144.04" cy="-582.80" r="10.00px"/>
<text data-id="21" x="144.04" y="-582.80">R21</text>
<circle data-id="22" cx="979.91" cy="-596.82" r="10.00px"/>
<text data-id="22" x="979.91" y="-596.82">R22</text>
<circle data-id="23" cx="583.61" cy="-74.71" r="10.00px"/>
<text data-id="23" x="583.61" y="-74.71">R23</text>
<circle data-id="24" cx="1079.56" cy="-477.73" r="10.00px"/>
<text data-id="24" x="1079.56" y="-477.73">R24</text>
<circle data-id="25" cx="733.74" cy="-606.13" r="10.00px"/>
<text data-id="25" x="733.74" y="-606.13">R25</text>
<circle data-id="26" cx="636.74" cy="-944.90" r="10.00px"/>
<text data-id="26" x="636.74" y="-944.90">R26</text>
<circle data-id="27" cx="67.45" cy="-162.44" r="10.00px"/>
<text data-id="27" x="67.45" y="-162.44">R27</text>
<circle data-id="28" cx="801.99" cy="-883.80" r="10.00px"/>
<text data-id="28" x="801.99" y="-883.80">R28</text>
<circle data-id="29" cx="342.49" cy="-342.36" r="10.00px"/>
<text data-id="29" x="342.49" y="-342.36">R29</text>
<circle data-id="30" cx="983.45" cy="-124.66" r="10.00px"/>
<text data-id="30" x="983.45" y="-124.66">R30</text>
<circle data-id="31" cx="491.46" cy="-450.67" r="10.00px"/>
<text data-id="31" x="491.46" y="-450.67">R31</text>
<circle data-id="32" cx="610.20" cy="-988.66" r="10.00px"/>
<text data-id="32" x="610.20" y="-988.66">R32</text>
<circle data-id="33" cx="724.74" cy="-788.11" r="10.00px"/>
<text data-id="33" x="724.74" y="-788.11">R33</text>
<circle data-id="34" cx="1007.46" cy="-827.90" r="10.00px"/>
<text data-id="34" x="1007.46" y="-827.90">R34</text>
<circle data-id="35" cx="923.60" cy="-408.84" r="10.00px"/>
<text data-id="35" x="923.60" y="-408.84">R35</text>
<circle data-id="36" cx="1010.65" cy="-69.67" r="10.00px"/>
<text data-id="36" x="1010.65" y="-69.67">R36</text>
<circle data-id="37" cx="580.51" cy="-222.09" r="10.00px"/>
<text data-id="37" x="580.51" y="-222.09">R37</text>
<circle data-id="38" cx="284.61" cy="-140.88" r="10.00px"/>
<text data-id="38" x="284.61" y="-140.88">R38</text>
<circle data-id="39" cx="1061.25" cy="-763.80" r="10.00px"/>
<text data-id="39" x="1061.25" y="-763.80">R39</text>
<circle data-id="40" cx="885.11" cy="-454.54" r="10.00px"/>
<text data-id="40" x="885.11" y="-454.54">R40</text>
<circle data-id="41" cx="633.15" cy="-975.65" r="10.00px"/>
<text data-id="41" x="633.15" y="-975.65">R41</text>
<circle data-id="42" cx="7.24" cy="-932.16" r="10.00px"/>
<text data-id="42" x="7.24" y="-932.16">R42</text>
<circle data-id="43" cx="164.99" cy="-198.65" r="10.00px"/>
<text data-id="43" x="164.99" y="-198.65">R43</text>
<circle data-id="44" cx="314.59" cy="-456.49" r="10.00px"/>
<text data-id="44" x="314.59" y="-456.49">R44</text>
<circle data-id="45" cx="975.62" cy="-463.06" r="10.00px"/>
<text data-id="45" x="975.62" y="-463.06">R45</text>
<circle data-id="46" cx="219.59" cy="-222.60" r="10.00px"/>
<text data-id="46" x="219.59" y="-222.60">R46</text>
<circle data-id="47" cx="1098.94" cy="-627.40" r="10.00px"/>
<text data-id="47" x="1098.94" y="-627.40">R47</text>
<circle data-id="48" cx="736.12" cy="-901.82" r="10.00px"/>
<text data-id="48" x="736.12" y="-901.82">R48</text>
<circle data-id="49" cx="941.52" cy="-22.08" r="10.00px"/>
<text data-id="49" x="941.52" y="-22.08">R49</text>
<circle data-id="50" cx="261.36" cy="-405.30" r="10.00px"/>
<text data-id="50" x="261.36" y="-405.30">R50</text>
<circle data-id="51" cx="670.86" cy="-447.76" r="10.00px"/>
<text data-id="51" x="670.86" y="-447.76">R51</text>
<circle data-id="52" cx="1083.62" cy="-511.03" r="10.00px"/>
<text data-id="52" x="1083.62" y="-511.03">R52</text>
<circle data-id="53" cx="646.64" cy="-902.05" r="10.00px"/>
<text data-id="53" x="646.64" y="-902.05">R53</text>
<circle data-id="54" cx="312.65" cy="-406.44" r="10.00px"/>
<text data-id="54" x="312.65" y="-406.44">R54</text>
<circle data-id="55" cx="608.92" cy="-344.40" r="10.00px"/>
<text data-id="55" x="608.92" y="-344.40">R55</text>
<circle data-id="56" cx="907.72" cy="-84.24" r="10.00px"/>
<text data-id="56" x="907.72" y="-84.24">R56</text>
<circle data-id="57" cx="602.12" cy="-671.97" r="10.00px"/>
<text data-id="57" x="602.12" y="-671.97">R57</text>
<circle data-id="58" cx="797.91" cy="-90.35" r="10.00px"/>
<text data-id="58" x="797.91" y="-90.35">R58</text>
<circle data-id="59" cx="884.60" cy="-611.87" r="10.00px"/>
<text data-id="59" x="884.60" y="-611.87">R59</text>
<circle data-id="60" cx="925.96" cy="-751.23" r="10.00px"/>
<text data-id="60" x="925.96" y="-751.23">R60</text>
<circle data-id="61" cx="624.80" cy="-274.53" r="10.00px"/>
<text data-id="61" x="624.80" y="-274.53">R61</text>
<circle data-id="62" cx="402.27" cy="-525.39" r="10.00px"/>
<text data-id="62" x="402.27" y="-525.39">R62</text>
<circle data-id="63" cx="882.28" cy="-862.09" r="10.00px"/>
<text data-id="63" x="882.28" y="-862.09">R63</text>
<circle data-id="64" cx="363.89" cy="-862.07" r="10.00px"/>
<text data-id="64" x="363.89" y="-862.07">R64</text>
<circle data-id="65" cx="363.83" cy="-434.25" r="10.00px"/>
<text data-id="65" x="363.83" y="-434.25">R65</text>
<circle data-id="66" cx="53.11" cy="-518.39" r="10.00px"/>
<text data-id="66" x="53.11" y="-518.39">R66</text>
<circle data-id="67" cx="177.54" cy="-170.05" r="10.00px"/>
<text data-id="67" x="177.54" y="-170.05">R67</text>
<circle data-id="68" cx="596.06" cy="-37.77" r="10.00px"/>
<text data-id="68" x="596.06" y="-37.77">R68</text>
<circle data-id="69" cx="765.32" cy="-427.93" r="10.00px"/>
<text data-id="69" x="765.32" y="-427.93">R69</text>
<circle data-id="70" cx="146.07" cy="-1098.72" r="10.00px"/>
<text data-id="70" x="146.07" y="-1098.72">R70</text>
<circle data-id="71" cx="753.83" cy="-462.27" r="10.00px"/>
<text data-id="71" x="753.83" y="-462.27">R71</text>
<circle data-id="72" cx="658.18" cy="-749.25" r="10.00px"/>
<text data-id="72" x="658.18" y="-749.25">R72</text>
<circle data-id="73" cx="142.22" cy="-991.83" r="10.00px"/>
<text data-id="73" x="142.22" y="-991.83">R73</text>
<circle data-id="74" cx="984.57" cy="-350.95" r="10.00px"/>
<text data-id="74" x="984.57" y="-350.95">R74</text>
<circle data-id="75" cx="766.53" cy="-670.79" r="10.00px"/>
<text data-id="75" x="766.53" y="-670.79">R75</text>
<circle data-id="76" cx="315.78" cy="-309.76" r="10.00px"/>
<text data-id="76" x="315.78" y="-309.76">R76</text>
<circle data-id="77" cx="348.24" cy="-113.55" r="10.00px"/>
<text data-id="77" x="348.24" y="-113.55">R77</text>
<circle data-id="78" cx="18.94" cy="-829.51" r="10.00px"/>
<text data-id="78" x="18.94" y="-829.51">R78</text>
<circle data-id="79" cx="213.31" cy="-85.56" r="10.00px"/>
<text data-id="79" x="213.31" y="-85.56">R79</text>
<circle data-id="80" cx="102.82" cy="-255.12" r="10.00px"/>
<text data-id="80" x="102.82" y="-255.12">R80</text>
<circle data-id="81" cx="611.00" cy="-174.45" r="10.00px"/>
<text data-id="81" x="611.00" y="-174.45">R81</text>
<circle data-id="82" cx="514.50" cy="-387.24" r="10.00px"/>
<text data-id="82" x="514.50" y="-387.24">R82</text>
<circle data-id="83" cx="539.39" cy="-986.05" r="10.00px"/>
<text data-id="83" x="539.39" y="-986.05">R83</text>
<circle data-id="84" cx="263.33" cy="-359.12" r="10.00px"/>
<text data-id="84" x="263.33" y="-359.12">R84</text>
<circle data-id="85" cx="563.70" cy="-191.52" r="10.00px"/>
<text data-id="85" x="563.70" y="-191.52">R85</text>
<circle data-id="86" cx="177.98" cy="-1033.07" r="10.00px"/>
<text data-id="86" x="177.98" y="-1033.07">R86</text>
<circle data-id="87" cx="73.44" cy="-1088.29" r="10.00px"/>
<text data-id="87" x="73.44" y="-1088.29">R87</text>
<circle data-id="88" cx="972.02" cy="-534.67" r="10.00px"/>
<text data-id="88" x="972.02" y="-534.67">R88</text>
<circle data-id="89" cx="116.04" cy="-596.89" r="10.00px"/>
<text data-id="89" x="116.04" y="-596.89">R89</text>
<circle data-id="90" cx="775.74" cy="-279.75" r="10.00px"/>
<text data-id="90" x="775.74" y="-279.75">R90</text>
<circle data-id="91" cx="406.48" cy="-804.06" r="10.00px"/>
<text data-id="91" x="406.48" y="-804.06">R91</text>
<circle data-id="92" cx="1103.85" cy="-775.27" r="10.00px"/>
<text data-id="92" x="1103.85" y="-775.27">R92</text>
<circle data-id="93" cx="313.49" cy="-351.68" r="10.00px"/>
<text data-id="93" x="313.49" y="-351.68">R93</text>
<circle data-id="94" cx="852.79" cy="-865.85" r="10.00px"/>
<text data-id="94" x="852.79" y="-865.85">R94</text>
<circle data-id="95" cx="20.05" cy="-73.44" r="10.00px"/>
<text data-id="95" x="20.05" y="-73.44">R95</text>
<circle data-id="96" cx="414.60" cy="-773.57" r="10.00px"/>
<text data-id="96" x="414.60" y="-773.57">R96</text>
<circle data-id="97" cx="424.40" cy="-287.56" r="10.00px"/>
<text data-id="97" x="424.40" y="-287.56">R97</text>
<circle data-id="98" cx="1012.82" cy="-755.08" r="10.00px"/>
<text data-id="98" x="1012.82" y="-755.08">R98</text>
<circle data-id="99" cx="846.27" cy="-6.97" r="10.00px"/>
<text data-id="99" x="846.27" y="-6.97">R99</text>
<circle data-id="100" cx="918.94" cy="-827.34" r="10.00px"/>
<text data-id="100" x="918.94" y="-827.34">R100</text>
<circle data-id="101" cx="773.52" cy="-921.45" r="10.00px"/>
<text data-id="101" x="773.52" y="-921.45">R101</text>
<circle data-id="102" cx="910.10" cy="-370.93" r="10.00px"/>
<text data-id="102" x="910.10" y="-370.93">R102</text>
<circle data-id="103" cx="1020.31" cy="-239.26" r="10.00px"/>
<text data-id="103" x="1020.31" y="-239.26">R103</text>
<circle data-id="104" cx="730.40" cy="-849.76" r="10.00px"/>
<text data-id="104" x="730.40" y="-849.76">R104</text>
<circle data-id="105" cx="953.53" cy="-814.66" r="10.00px"/>
<text data-id="105" x="953.53" y="-814.66">R105</text>
<circle data-id="106" cx="798.92" cy="-561.05" r="10.00px"/>
<text data-id="106" x="798.92" y="-561.05">R106</text>
<circle data-id="107" cx="17.97" cy="-180.02" r="10.00px"/>
<text data-id="107" x="17.97" y="-180.02">R107</text>
<circle data-id="108" cx="599.29" cy="-119.71" r="10.00px"/>
<text data-id="108" x="599.29" y="-119.71">R108</text>
<circle data-id="109" cx="189.81" cy="-790.65" r="10.00px"/>
<text data-id="109" x="189.81" y="-790.65">R109</text>
<circle data-id="110" cx="925.45" cy="-563.84" r="10.00px"/>
<text data-id="110" x="925.45" y="-563.84">R110</text>
<circle data-id="111" cx="997.81" cy="-638.44" r="10.00px"/>
<text data-id="111" x="997.81" y="-638.44">R111</text>
<circle data-id="112" cx="223.69" cy="-386.82" r="10.00px"/>
<text data-id="112" x="223.69" y="-386.82">R112</text>
<circle data-id="113" cx="134.33" cy="-946.45" r="10.00px"/>
<text data-id="113" x="134.33" y="-946.45">R113</text>
<circle data-id="114" cx="286.99" cy="-1071.96" r="10.00px"/>
<text data-id="114" x="286.99" y="-1071.96">R114</text>
<circle data-id="115" cx="372.00" cy="-321.12" r="10.00px"/>
<text data-id="115" x="372.00" y="-321.12">R115</text>
<circle data-id="116" cx="702.10" cy="-371.14" r="10.00px"/>
<text data-id="116" x="702.10" y="-371.14">R116</text>
<circle data-id="117" cx="332.43" cy="-711.70" r="10.00px"/>
<text data-id="117" x="332.43" y="-711.70">R117</text>
<circle data-id="118" cx="1063.56" cy="-989.64" r="10.00px"/>
<text data-id="118" x="1063.56" y="-989.64">R118</text>
<circle data-id="119" cx="363.88" cy="-172.81" r="10.00px"/>
<text data-id="119" x="363.88" y="-172.81">R119</text>
<circle data-id="120" cx="382.39" cy="-638.59" r="10.00px"/>
<text data-id="120" x="382.39" y="-638.59">R120</text>
<circle data-id="121" cx="587.79" cy="-1049.59" r="10.00px"/>
<text data-id="121" x="587.79" y="-1049.59">R121</text>
<circle data-id="122" cx="792.40" cy="-968.57" r="10.00px"/>
<text data-id="122" x="792.40" y="-968.57">R122</text>
<circle data-id="123" cx="320.59" cy="-779.51" r="10.00px"/>
<text data-id="123" x="320.59" y="-779.51">R123</text>
<circle data-id="124" cx="336.69" cy="-751.56" r="10.00px"/>
<text data-id="124" x="336.69" y="-751.56">R124</text>
</svg>
