<svg id="topo" viewBox="-36.79 -873.03 907.61 895.55" xmlns="http://www.w3.org/2000/svg">
<style>#topo path {fill: none; stroke: grey; stroke-width: 5.0000px;} #topo circle {fill: lightblue; stroke: none; stroke-width: 0.3px; vector-effect: non-scaling-stroke; r: 10.0000px;} #topo text {fill: black; stroke: none; font-size: 15.0000px; font-family: sans-serif; text-anchor:middle; transform: translateY(0.3em);} #topo path.country {fill: lightgrey; stroke: black; stroke-width: 1px; vector-effect: non-scaling-stroke; visibility: visible;} #topo path.selection {fill: none; stroke: red; stroke-width: 1px; vector-effect: non-scaling-stroke; visibility: visible;} #topo path.utilization {visibility: hidden;}</style>
<path data-id="0-6" d="M294.46,-214.33,388.72,-107.54"/>
<path data-id="0-9" d="M294.46,-214.33,211.19,-180.96"/>
<path data-id="0-22" d="M294.46,-214.33,328.10,-334.16"/>
<path data-id="0-37" d="M294.46,-214.33,445.95,-278.04"/>
<path data-id="0-66" d="M294.46,-214.33,447.90,-207.68"/>
<path data-id="1-11" d="M281.14,-736.64,182.18,-757.91"/>
<path data-id="1-29" d="M281.14,-736.64,346.16,-676.28"/>
<path data-id="1-35" d="M281.14,-736.64,336.69,-777.09"/>
<path data-id="1-38" d="M281.14,-736.64,226.89,-608.81"/>
<path data-id="2-33" d="M127.18,-334.86,101.41,-329.31"/>
<path data-id="2-56" d="M127.18,-334.86,147.12,-448.08"/>
<path data-id="2-59" d="M127.18,-334.86,158.31,-272.79"/>
<path data-id="3-17" d="M524.15,-810.46,507.09,-832.33"/>
<path data-id="3-31" d="M524.15,-810.46,602.95,-729.71"/>
<path data-id="3-57" d="M524.15,-810.46,550.02,-708.00"/>
<path data-id="4-14" d="M494.40,-663.27,596.46,-564.62"/>
<path data-id="4-29" d="M494.40,-663.27,346.16,-676.28"/>
<path data-id="4-36" d="M494.40,-663.27,400.15,-814.98"/>
<path data-id="4-57" d="M494.40,-663.27,550.02,-708.00"/>
<path data-id="5-24" d="M646.78,-33.81,748.50,-132.56"/>
<path data-id="5-51" d="M646.78,-33.81,531.75,-73.85"/>
<path data-id="6-21" d="M388.72,-107.54,223.11,-108.30"/>
<path data-id="6-58" d="M388.72,-107.54,349.61,-29.97"/>
<path data-id="6-66" d="M388.72,-107.54,447.90,-207.68"/>
<path data-id="6-69" d="M388.72,-107.54,460.35,-68.26"/>
<path data-id="7-23" d="M542.05,-132.23,553.29,-288.85"/>
<path data-id="7-51" d="M542.05,-132.23,531.75,-73.85"/>
<path data-id="7-66" d="M542.05,-132.23,447.90,-207.68"/>
<path data-id="8-33" d="M73.09,-406.64,101.41,-329.31"/>
<path data-id="8-39" d="M73.09,-406.64,15.47,-333.37"/>
<path data-id="8-55" d="M73.09,-406.64,93.95,-445.11"/>
<path data-id="8-67" d="M73.09,-406.64,37.82,-425.72"/>
<path data-id="9-21" d="M211.19,-180.96,223.11,-108.30"/>
<path data-id="9-59" d="M211.19,-180.96,158.31,-272.79"/>
<path data-id="10-14" d="M687.47,-499.14,596.46,-564.62"/>
<path data-id="10-20" d="M687.47,-499.14,577.48,-526.81"/>
<path data-id="10-30" d="M687.47,-499.14,715.36,-457.26"/>
<path data-id="10-46" d="M687.47,-499.14,588.67,-458.39"/>
<path data-id="10-61" d="M687.47,-499.14,704.58,-522.48"/>
<path data-id="11-53" d="M182.18,-757.91,157.95,-777.50"/>
<path data-id="11-60" d="M182.18,-757.91,143.10,-719.34"/>
<path data-id="12-40" d="M127.47,-73.89,87.39,-43.33"/>
<path data-id="12-50" d="M127.47,-73.89,148.77,-50.08"/>
<path data-id="13-15" d="M191.86,-556.89,166.30,-542.92"/>
<path data-id="13-38" d="M191.86,-556.89,226.89,-608.81"/>
<path data-id="13-44" d="M191.86,-556.89,272.62,-535.61"/>
<path data-id="13-63" d="M191.86,-556.89,228.11,-476.10"/>
<path data-id="14-20" d="M596.46,-564.62,577.48,-526.81"/>
<path data-id="14-57" d="M596.46,-564.62,550.02,-708.00"/>
<path data-id="14-62" d="M596.46,-564.62,729.60,-625.96"/>
<path data-id="15-56" d="M166.30,-542.92,147.12,-448.08"/>
<path data-id="15-63" d="M166.30,-542.92,228.11,-476.10"/>
<path data-id="15-65" d="M166.30,-542.92,122.05,-575.62"/>
<path data-id="16-39" d="M26.15,-108.08,15.47,-333.37"/>
<path data-id="16-42" d="M26.15,-108.08,50.14,-87.54"/>
<path data-id="16-59" d="M26.15,-108.08,158.31,-272.79"/>
<path data-id="17-36" d="M507.09,-832.33,400.15,-814.98"/>
<path data-id="18-24" d="M825.01,-266.71,748.50,-132.56"/>
<path data-id="18-25" d="M825.01,-266.71,716.02,-316.43"/>
<path data-id="18-27" d="M825.01,-266.71,829.57,-514.97"/>
<path data-id="19-21" d="M313.91,-18.19,223.11,-108.30"/>
<path data-id="19-58" d="M313.91,-18.19,349.61,-29.97"/>
<path data-id="20-46" d="M577.48,-526.81,588.67,-458.39"/>
<path data-id="20-48" d="M577.48,-526.81,339.86,-513.82"/>
<path data-id="21-50" d="M223.11,-108.30,148.77,-50.08"/>
<path data-id="22-26" d="M328.10,-334.16,403.03,-380.21"/>
<path data-id="22-37" d="M328.10,-334.16,445.95,-278.04"/>
<path data-id="22-59" d="M328.10,-334.16,158.31,-272.79"/>
<path data-id="22-63" d="M328.10,-334.16,228.11,-476.10"/>
<path data-id="23-37" d="M553.29,-288.85,445.95,-278.04"/>
<path data-id="23-43" d="M553.29,-288.85,629.55,-321.60"/>
<path data-id="24-25" d="M748.50,-132.56,716.02,-316.43"/>
<path data-id="25-43" d="M716.02,-316.43,629.55,-321.60"/>
<path data-id="25-64" d="M716.02,-316.43,705.49,-361.00"/>
<path data-id="26-37" d="M403.03,-380.21,445.95,-278.04"/>
<path data-id="26-46" d="M403.03,-380.21,588.67,-458.39"/>
<path data-id="26-48" d="M403.03,-380.21,339.86,-513.82"/>
<path data-id="27-30" d="M829.57,-514.97,715.36,-457.26"/>
<path data-id="27-61" d="M829.57,-514.97,704.58,-522.48"/>
<path data-id="27-62" d="M829.57,-514.97,729.60,-625.96"/>
<path data-id="28-41" d="M44.80,-737.31,4.47,-702.01"/>
<path data-id="28-45" d="M44.80,-737.31,104.97,-756.66"/>
<path data-id="29-35" d="M346.16,-676.28,336.69,-777.09"/>
<path data-id="29-38" d="M346.16,-676.28,226.89,-608.81"/>
<path data-id="29-54" d="M346.16,-676.28,330.65,-549.57"/>
<path data-id="30-64" d="M715.36,-457.26,705.49,-361.00"/>
<path data-id="31-52" d="M602.95,-729.71,762.07,-788.82"/>
<path data-id="31-57" d="M602.95,-729.71,550.02,-708.00"/>
<path data-id="31-62" d="M602.95,-729.71,729.60,-625.96"/>
<path data-id="32-49" d="M80.86,-528.92,12.89,-454.04"/>
<path data-id="32-55" d="M80.86,-528.92,93.95,-445.11"/>
<path data-id="32-65" d="M80.86,-528.92,122.05,-575.62"/>
<path data-id="33-39" d="M101.41,-329.31,15.47,-333.37"/>
<path data-id="34-51" d="M501.68,-30.51,531.75,-73.85"/>
<path data-id="34-69" d="M501.68,-30.51,460.35,-68.26"/>
<path data-id="35-36" d="M336.69,-777.09,400.15,-814.98"/>
<path data-id="35-47" d="M336.69,-777.09,315.91,-814.79"/>
<path data-id="36-47" d="M400.15,-814.98,315.91,-814.79"/>
<path data-id="37-66" d="M445.95,-278.04,447.90,-207.68"/>
<path data-id="38-44" d="M226.89,-608.81,272.62,-535.61"/>
<path data-id="38-68" d="M226.89,-608.81,150.36,-683.25"/>
<path data-id="39-67" d="M15.47,-333.37,37.82,-425.72"/>
<path data-id="40-42" d="M87.39,-43.33,50.14,-87.54"/>
<path data-id="41-65" d="M4.47,-702.01,122.05,-575.62"/>
<path data-id="43-46" d="M629.55,-321.60,588.67,-458.39"/>
<path data-id="43-64" d="M629.55,-321.60,705.49,-361.00"/>
<path data-id="44-54" d="M272.62,-535.61,330.65,-549.57"/>
<path data-id="44-63" d="M272.62,-535.61,228.11,-476.10"/>
<path data-id="45-53" d="M104.97,-756.66,157.95,-777.50"/>
<path data-id="45-60" d="M104.97,-756.66,143.10,-719.34"/>
<path data-id="46-64" d="M588.67,-458.39,705.49,-361.00"/>
<path data-id="48-54" d="M339.86,-513.82,330.65,-549.57"/>
<path data-id="49-67" d="M12.89,-454.04,37.82,-425.72"/>
<path data-id="51-69" d="M531.75,-73.85,460.35,-68.26"/>
<path data-id="52-62" d="M762.07,-788.82,729.60,-625.96"/>
<path data-id="53-60" d="M157.95,-777.50,143.10,-719.34"/>
<path data-id="55-56" d="M93.95,-445.11,147.12,-448.08"/>
<path data-id="56-63" d="M147.12,-448.08,228.11,-476.10"/>
<path data-id="58-69" d="M349.61,-29.97,460.35,-68.26"/>
<path data-id="60-68" d="M143.10,-719.34,150.36,-683.25"/>
<path data-id="61-62" d="M704.58,-522.48,729.60,-625.96"/>
<path data-id="65-68" d="M122.05,-575.62,150.36,-683.25"/>
<path data-id="66-69" d="M447.90,-207.68,460.35,-68.26"/>
<circle data-id="0" cx="294.46" cy="-214.33" r="10.00px"/>
<text data-id="0" x="294.46" y="-214.33">R0</text>
<circle data-id="1" cx="281.14" cy="-736.64" r="10.00px"/>
<text data-id="1" x="281.14" y="-736.64">R1</text>
<circle data-id="2" cx="127.18" cy="-334.86" r="10.00px"/>
<text data-id="2" x="127.18" y="-334.86">R2</text>
<circle data-id="3" cx="524.15" cy="-810.46" r="10.00px"/>
<text data-id="3" x="524.15" y="-810.46">R3</text>
<circle data-id="4" cx="494.40" cy="-663.27" r="10.00px"/>
<text data-id="4" x="494.40" y="-663.27">R4</text>
<circle data-id="5" cx="646.78" cy="-33.81" r="10.00px"/>
<text data-id="5" x="646.78" y="-33.81">R5</text>
<circle data-id="6" cx="388.72" cy="-107.54" r="10.00px"/>
<text data-id="6" x="388.72" y="-107.54">R6</text>
<circle data-id="7" cx="542.05" cy="-132.23" r="10.00px"/>
<text data-id="7" x="542.05" y="-132.23">R7</text>
<circle data-id="8" cx="73.09" cy="-406.64" r="10.00px"/>
<text data-id="8" x="73.09" y="-406.64">R8</text>
<circle data-id="9" cx="211.19" cy="-180.96" r="10.00px"/>
<text data-id="9" x="211.19" y="-180.96">R9</text>
<circle data-id="10" cx="687.47" cy="-499.14" r="10.00px"/>
<text data-id="10" x="687.47" y="-499.14">R10</text>
<circle data-id="11" cx="182.18" cy="-757.91" r="10.00px"/>
<text data-id="11" x="182.18" y="-757.91">R11</text>
<circle data-id="12" cx="127.47" cy="-73.89" r="10.00px"/>
<text data-id="12" x="127.47" y="-73.89">R12</text>
<circle data-id="13" cx="191.86" cy="-556.89" r="10.00px"/>
<text data-id="13" x="191.86" y="-556.89">R13</text>
<circle data-id="14" cx="596.46" cy="-564.62" r="10.00px"/>
<text data-id="14" x="596.46" y="-564.62">R14</text>
<circle data-id="15" cx="166.30" cy="-542.92" r="10.00px"/>
<text data-id="15" x="166.30" y="-542.92">R15</text>
<circle data-id="16" cx="26.15" cy="-108.08" r="10.00px"/>
<text data-id="16" x="26.15" y="-108.08">R16</text>
<circle data-id="17" cx="507.09" cy="-832.33" r="10.00px"/>
<text data-id="17" x="507.09" y="-832.33">R17</text>
<circle data-id="18" cx="825.01" cy="-266.71" r="10.00px"/>
<text data-id="18" x="825.01" y="-266.71">R18</text>
<circle data-id="19" cx="313.91" cy="-18.19" r="10.00px"/>
<text data-id="19" x="313.91" y="-18.19">R19</text>
<circle data-id="20" cx="577.48" cy="-526.81" r="10.00px"/>
<text data-id="20" x="577.48" y="-526.81">R20</text>
<circle data-id="21" cx="223.11" cy="-108.30" r="10.00px"/>
<text data-id="21" x="223.11" y="-108.30">R21</text>
<circle data-id="22" cx="328.10" cy="-334.16" r="10.00px"/>
<text data-id="22" x="328.10" y="-334.16">R22</text>
<circle data-id="23" cx="553.29" cy="-288.85" r="10.00px"/>
<text data-id="23" x="553.29" y="-288.85">R23</text>
<circle data-id="24" cx="748.50" cy="-132.56" r="10.00px"/>
<text data-id="24" x="748.50" y="-132.56">R24</text>
<circle data-id="25" cx="716.02" cy="-316.43" r="10.00px"/>
<text data-id="25" x="716.02" y="-316.43">R25</text>
<circle data-id="26" cx="403.03" cy="-380.21" r="10.00px"/>
<text data-id="26" x="403.03" y="-380.21">R26</text>
<circle data-id="27" cx="829.57" cy="-514.97" r="10.00px"/>
<text data-id="27" x="829.57" y="-514.97">R27</text>
<circle data-id="28" cx="44.80" cy="-737.31" r="10.00px"/>
<text data-id="28" x="44.80" y="-737.31">R28</text>
<circle data-id="29" cx="346.16" cy="-676.28" r="10.00px"/>
<text data-id="29" x="346.16" y="-676.28">R29</text>
<circle data-id="30" cx="715.36" cy="-457.26" r="10.00px"/>
<text data-id="30" x="715.36" y="-457.26">R30</text>
<circle data-id="31" cx="602.95" cy="-729.71" r="10.00px"/>
<text data-id="31" x="602.95" y="-729.71">R31</text>
<circle data-id="32" cx="80.86" cy="-528.92" r="10.00px"/>
<text data-id="32" x="80.86" y="-528.92">R32</text>
<circle data-id="33" cx="101.41" cy="-329.31" r="10.00px"/>
<text data-id="33" x="101.41" y="-329.31">R33</text>
<circle data-id="34" cx="501.68" cy="-30.51" r="10.00px"/>
<text data-id="34" x="501.68" y="-30.51">R34</text>
<circle data-id="35" cx="336.69" cy="-777.09" r="10.00px"/>
<text data-id="35" x="336.69" y="-777.09">R35</text>
<circle data-id="36" cx="400.15" cy="-814.98" r="10.00px"/>
<text data-id="36" x="400.15" y="-814.98">R36</text>
<circle data-id="37" cx="445.95" cy="-278.04" r="10.00px"/>
<text data-id="37" x="445.95" y="-278.04">R37</text>
<circle data-id="38" cx="226.89" cy="-608.81" r="10.00px"/>
<text data-id="38" x="226.89" y="-608.81">R38</text>
<circle data-id="39" cx="15.47" cy="-333.37" r="10.00px"/>
<text data-id="39" x="15.47" y="-333.37">R39</text>
<circle data-id="40" cx="87.39" cy="-43.33" r="10.00px"/>
<text data-id="40" x="87.39" y="-43.33">R40</text>
<circle data-id="41" cx="4.47" cy="-702.01" r="10.00px"/>
<text data-id="41" x="4.47" y="-702.01">R41</text>
<circle data-id="42" cx="50.14" cy="-87.54" r="10.00px"/>
<text data-id="42" x="50.14" y="-87.54">R42</text>
<circle data-id="43" cx="629.55" cy="-321.60" r="10.00px"/>
<text data-id="43" x="629.55" y="-321.60">R43</text>
<circle data-id="44" cx="272.62" cy="-535.61" r="10.00px"/>
<text data-id="44" x="272.62" y="-535.61">R44</text>
<circle data-id="45" cx="104.97" cy="-756.66" r="10.00px"/>
<text data-id="45" x="104.97" y="-756.66">R45</text>
<circle data-id="46" cx="588.67" cy="-458.39" r="10.00px"/>
<text data-id="46" x="588.67" y="-458.39">R46</text>
<circle data-id="47" cx="315.91" cy="-814.79" r="10.00px"/>
<text data-id="47" x="315.91" y="-814.79">R47</text>
<circle data-id="48" cx="339.86" cy="-513.82" r="10.00px"/>
<text data-id="48" x="339.86" y="-513.82">R48</text>
<circle data-id="49" cx="12.89" cy="-454.04" r="10.00px"/>
<text data-id="49" x="12.89" y="-454.04">R49</text>
<circle data-id="50" cx="148.77" cy="-50.08" r="10.00px"/>
<text data-id="50" x="148.77" y="-50.08">R50</text>
<circle data-id="51" cx="531.75" cy="-73.85" r="10.00px"/>
<text data-id="51" x="531.75" y="-73.85">R51</text>
<circle data-id="52" cx="762.07" cy="-788.82" r="10.00px"/>
<text data-id="52" x="762.07" y="-788.82">R52</text>
<circle data-id="53" cx="157.95" cy="-777.50" r="10.00px"/>
<text data-id="53" x="157.95" y="-777.50">R53</text>
<circle data-id="54" cx="330.65" cy="-549.57" r="10.00px"/>
<text data-id="54" x="330.65" y="-549.57">R54</text>
<circle data-id="55" cx="93.95" cy="-445.11" r="10.00px"/>
<text data-id="55" x="93.95" y="-445.11">R55</text>
<circle data-id="56" cx="147.12" cy="-448.08" r="10.00px"/>
<text data-id="56" x="147.12" y="-448.08">R56</text>
<circle data-id="57" cx="550.02" cy="-708.00" r="10.00px"/>
<text data-id="57" x="550.02" y="-708.00">R57</text>
<circle data-id="58" cx="349.61" cy="-29.97" r="10.00px"/>
<text data-id="58" x="349.61" y="-29.97">R58</text>
<circle data-id="59" cx="158.31" cy="-272.79" r="10.00px"/>
<text data-id="59" x="158.31" y="-272.79">R59</text>
<circle data-id="60" cx="143.10" cy="-719.34" r="10.00px"/>
<text data-id="60" x="143.10" y="-719.34">R60</text>
<circle data-id="61" cx="704.58" cy="-522.48" r="10.00px"/>
<text data-id="61" x="704.58" y="-522.48">R61</text>
<circle data-id="62" cx="729.60" cy="-625.96" r="10.00px"/>
<text data-id="62" x="729.60" y="-625.96">R62</text>
<circle data-id="63" cx="228.11" cy="-476.10" r="10.00px"/>
<text data-id="63" x="228.11" y="-476.10">R63</text>
<circle data-id="64" cx="705.49" cy="-361.00" r="10.00px"/>
<text data-id="64" x="705.49" y="-361.00">R64</text>
<circle data-id="65" cx="122.05" cy="-575.62" r="10.00px"/>
<text data-id="65" x="122.05" y="-575.62">R65</text>
<circle data-id="66" cx="447.90" cy="-207.68" r="10.00px"/>
<text data-id="66" x="447.90" y="-207.68">R66</text>
<circle data-id="67" cx="37.82" cy="-425.72" r="10.00px"/>
<text data-id="67" x="37.82" y="-425.72">R67</text>
<circle data-id="68" cx="150.36" cy="-683.25" r="10.00px"/>
<text data-id="68" x="150.36" y="-683.25">R68</text>
<circle data-id="69" cx="460.35" cy="-68.26" r="10.00px"/>
<text data-id="69" x="460.35" y="-68.26">R69</text>
</svg>
