<svg width="1090.00" height="269.39" viewBox="-2429.14 -45.00 1090.00 269.39" xmlns="http://www.w3.org/2000/svg">
<style>path {fill: none; stroke: grey; stroke-width: 6;} circle {fill: lightblue; stroke: none;} text {fill: black; stroke: none; font-size: 16; font-family: sans-serif; text-anchor:middle;}</style>
<path d="M-1749.21,66.56,-1387.21,16.65"/>
<path d="M-1749.21,66.56,-2183.33,47.85"/>
<path d="M-1384.14,30.76,-1559.92,54.08"/>
<path d="M-1384.14,30.76,-1503.21,84.25"/>
<path d="M-1559.92,54.08,-1592.20,33.33"/>
<path d="M-1592.20,33.33,-1472.36,0.00"/>
<path d="M-1592.20,33.33,-1753.25,91.13"/>
<path d="M-1503.21,84.25,-1506.43,79.41"/>
<path d="M-1387.48,16.35,-1387.21,16.65"/>
<path d="M-1387.48,16.35,-1387.48,16.35"/>
<path d="M-1387.48,16.35,-1900.30,152.16"/>
<path d="M-1387.48,16.35,-1387.69,16.28"/>
<path d="M-1506.43,79.41,-1387.69,16.28"/>
<path d="M-1900.30,152.16,-2307.28,178.75"/>
<path d="M-2382.22,113.70,-2384.14,112.38"/>
<path d="M-2382.22,113.70,-2382.22,113.70"/>
<path d="M-2382.22,113.70,-2383.37,112.61"/>
<path d="M-1472.36,0.00,-1389.80,14.94"/>
<path d="M-2368.33,88.34,-2384.14,112.38"/>
<path d="M-2368.33,88.34,-2183.33,47.85"/>
<path d="M-2312.11,179.39,-2307.28,178.75"/>
<path d="M-2312.11,179.39,-2383.37,112.61"/>
<path d="M-2312.11,179.39,-2312.11,179.39"/>
<path d="M-2312.11,179.39,-2307.28,178.75"/>
<path d="M-2384.14,112.38,-2335.67,171.56"/>
<path d="M-2335.67,171.56,-2307.28,178.75"/>
<path d="M-2307.28,178.75,-2183.33,47.85"/>
<path d="M-1389.80,14.94,-1387.21,16.65"/>
<circle cx="-1749.21" cy="66.56" r="10"/>
<text x="-1749.21" y="71.56">ILLINOIS</text>
<circle cx="-1384.14" cy="30.76" r="10"/>
<text x="-1384.14" y="35.76">MITRE</text>
<circle cx="-1559.92" cy="54.08" r="10"/>
<text x="-1559.92" y="59.08">CARNEGIE</text>
<circle cx="-1592.20" cy="33.33" r="10"/>
<text x="-1592.20" y="38.33">CASE</text>
<circle cx="-1503.21" cy="84.25" r="10"/>
<text x="-1503.21" y="89.25">ETAC</text>
<circle cx="-1753.25" cy="91.13" r="10"/>
<text x="-1753.25" y="96.13">AFGWC</text>
<circle cx="-1387.48" cy="16.35" r="10"/>
<text x="-1387.48" y="21.35">BBN</text>
<circle cx="-1506.43" cy="79.41" r="10"/>
<text x="-1506.43" y="84.41">NBS</text>
<circle cx="-1900.30" cy="152.16" r="10"/>
<text x="-1900.30" y="157.16">Tinker</text>
<circle cx="-2382.22" cy="113.70" r="10"/>
<text x="-2382.22" y="118.70">AMES</text>
<circle cx="-1472.36" cy="0.00" r="10"/>
<text x="-1472.36" y="5.00">RADC</text>
<circle cx="-2368.33" cy="88.34" r="10"/>
<text x="-2368.33" y="93.34">McClellan</text>
<circle cx="-2312.11" cy="179.39" r="10"/>
<text x="-2312.11" y="184.39">RAND</text>
<circle cx="-2312.11" cy="179.39" r="10"/>
<text x="-2312.11" y="184.39">SDC</text>
<circle cx="-1387.69" cy="16.28" r="10"/>
<text x="-1387.69" y="21.28">HARVARD</text>
<circle cx="-2384.14" cy="112.38" r="10"/>
<text x="-2384.14" y="117.38">SRI</text>
<circle cx="-2335.67" cy="171.56" r="10"/>
<text x="-2335.67" y="176.56">UCSB</text>
<circle cx="-2307.28" cy="178.75" r="10"/>
<text x="-2307.28" y="183.75">UCLA</text>
<circle cx="-2383.37" cy="112.61" r="10"/>
<text x="-2383.37" y="117.61">Stanford</text>
<circle cx="-2307.28" cy="178.75" r="10"/>
<text x="-2307.28" y="183.75">USC</text>
<circle cx="-2183.33" cy="47.85" r="10"/>
<text x="-2183.33" y="52.85">UTAH</text>
<circle cx="-1389.80" cy="14.94" r="10"/>
<text x="-1389.80" y="19.94">Lincoln</text>
<circle cx="-1387.21" cy="16.65" r="10"/>
<text x="-1387.21" y="21.65">MIT</text>
</svg>
