<svg id="topo" width="1090.00" height="681.47" viewBox="1198.71 -45.00 1090.00 681.47" xmlns="http://www.w3.org/2000/svg">
<style>#topo path {fill: none; stroke: grey; stroke-width: 6;} #topo circle {fill: lightblue; stroke: none;} #topo text {fill: black; stroke: none; font-size: 16; font-family: sans-serif; text-anchor:middle;}</style>
<path d="M1779.96,211.53,1710.11,308.59"/>
<path d="M1779.96,211.53,1861.49,288.05"/>
<path d="M1710.11,308.59,1524.55,294.14"/>
<path d="M2243.71,591.47,1861.49,288.05"/>
<path d="M2243.71,591.47,2149.25,221.98"/>
<path d="M1703.68,0.00,1697.25,135.01"/>
<path d="M1703.68,0.00,1703.68,0.00"/>
<path d="M1703.68,0.00,1433.66,64.29"/>
<path d="M1524.55,294.14,1700.07,115.12"/>
<path d="M1259.39,149.91,1700.07,115.12"/>
<path d="M1259.39,149.91,1243.71,2.99"/>
<path d="M1433.66,64.29,1433.66,64.29"/>
<path d="M1433.66,64.29,1243.71,2.99"/>
<path d="M2035.67,263.05,1697.25,135.01"/>
<path d="M2035.67,263.05,2149.25,221.98"/>
<path d="M1928.69,19.29,1700.07,115.12"/>
<path d="M1928.69,19.29,2057.27,109.30"/>
<path d="M2057.27,109.30,1813.33,130.02"/>
<path d="M1813.33,130.02,1813.33,130.02"/>
<path d="M1813.33,130.02,1697.25,135.01"/>
<path d="M1700.07,115.12,1697.25,135.01"/>
<path d="M1700.07,115.12,1677.49,141.27"/>
<path d="M1697.25,135.01,1677.49,141.27"/>
<path d="M1677.49,141.27,1677.49,141.27"/>
<circle cx="1779.96" cy="211.53" r="10"/>
<text x="1779.96" y="216.53">Louvain-la-Neuve</text>
<circle cx="1710.11" cy="308.59" r="10"/>
<text x="1710.11" y="313.59">Charleroi</text>
<circle cx="2243.71" cy="591.47" r="10"/>
<text x="2243.71" y="596.47">Arlon</text>
<circle cx="1861.49" cy="288.05" r="10"/>
<text x="1861.49" y="293.05">Namur</text>
<circle cx="1703.68" cy="0.00" r="10"/>
<text x="1703.68" y="5.00">Antwerpen 2</text>
<circle cx="1703.68" cy="0.00" r="10"/>
<text x="1703.68" y="5.00">Antwerpen1</text>
<circle cx="1524.55" cy="294.14" r="10"/>
<text x="1524.55" y="299.14">Mons</text>
<circle cx="1259.39" cy="149.91" r="10"/>
<text x="1259.39" y="154.91">Korthijk</text>
<circle cx="1433.66" cy="64.29" r="10"/>
<text x="1433.66" y="69.29">Gent2</text>
<circle cx="1433.66" cy="64.29" r="10"/>
<text x="1433.66" y="69.29">Gent1</text>
<circle cx="2035.67" cy="263.05" r="10"/>
<text x="2035.67" y="268.05">Liege 1 </text>
<circle cx="2149.25" cy="221.98" r="10"/>
<text x="2149.25" y="226.98">Liege 2</text>
<circle cx="1243.71" cy="2.99" r="10"/>
<text x="1243.71" y="7.99">Brugge</text>
<circle cx="1928.69" cy="19.29" r="10"/>
<text x="1928.69" y="24.29">Geel</text>
<circle cx="2057.27" cy="109.30" r="10"/>
<text x="2057.27" y="114.30">Hasselt</text>
<circle cx="1813.33" cy="130.02" r="10"/>
<text x="1813.33" y="135.02">Leuven2</text>
<circle cx="1813.33" cy="130.02" r="10"/>
<text x="1813.33" y="135.02">Leuven1</text>
<circle cx="1700.07" cy="115.12" r="10"/>
<text x="1700.07" y="120.12">Vilvoorde</text>
<circle cx="1697.25" cy="135.01" r="10"/>
<text x="1697.25" y="140.01">Evere</text>
<circle cx="1677.49" cy="141.27" r="10"/>
<text x="1677.49" y="146.27">Brussels Science</text>
<circle cx="1677.49" cy="141.27" r="10"/>
<text x="1677.49" y="146.27">Brussels Campus</text>
</svg>
