<svg id="topo" viewBox="104.95 5.89 19.71 3.88" xmlns="http://www.w3.org/2000/svg">
<style>#topo path {fill: none; stroke: grey; stroke-width: 0.0717px;} #topo circle {fill: lightblue; stroke: none; stroke-width: 0.3px; vector-effect: non-scaling-stroke; r: 0.1434px;} #topo text {fill: black; stroke: none; font-size: 0.2150px; font-family: sans-serif; text-anchor:middle; transform: translateY(0.3em);} #topo path.country {fill: lightgrey; stroke: black; stroke-width: 1px; vector-effect: non-scaling-stroke; visibility: visible;} #topo path.selection {fill: none; stroke: red; stroke-width: 1px; vector-effect: non-scaling-stroke; visibility: visible;} #topo path.utilization {visibility: hidden;}</style>
<path class="country" d="M 97.48,-1.47 L 97.70,-1.18 L 97.79,-1.15 L 97.90,-1.02 L 97.93,-0.97 L 97.90,-0.88 L 97.88,-0.63 L 97.82,-0.56 L 97.68,-0.60 L 97.68,-0.64 L 97.60,-0.83 L 97.46,-0.94 L 97.41,-0.95 L 97.37,-1.06 L 97.30,-1.19 L 97.08,-1.43 L 97.24,-1.42 L 97.32,-1.48 L 97.34,-1.53 L 97.36,-1.54 L 97.48,-1.47 Z M 99.16,1.78 L 99.07,1.78 L 98.87,1.66 L 98.83,1.61 L 98.82,1.54 L 98.63,1.26 L 98.60,1.20 L 98.68,0.97 L 98.87,0.92 L 98.93,0.95 L 98.95,1.06 L 99.07,1.24 L 99.10,1.34 L 99.13,1.38 L 99.14,1.42 L 99.13,1.44 L 99.21,1.56 L 99.27,1.63 L 99.27,1.74 L 99.16,1.78 Z M 116.64,8.61 L 116.51,8.82 L 116.56,8.85 L 116.59,8.89 L 116.38,8.93 L 116.29,8.91 L 116.24,8.91 L 116.03,8.87 L 115.87,8.83 L 115.86,8.79 L 115.87,8.74 L 115.91,8.76 L 116.03,8.77 L 116.08,8.74 L 116.08,8.61 L 116.06,8.44 L 116.22,8.30 L 116.30,8.24 L 116.40,8.20 L 116.65,8.28 L 116.69,8.30 L 116.72,8.34 L 116.73,8.39 L 116.64,8.61 Z M 115.45,8.16 L 115.55,8.21 L 115.69,8.36 L 115.70,8.41 L 115.66,8.45 L 115.56,8.51 L 115.33,8.62 L 115.30,8.66 L 115.25,8.76 L 115.24,8.80 L 115.22,8.82 L 115.19,8.84 L 115.14,8.85 L 115.09,8.83 L 115.14,8.77 L 115.14,8.70 L 115.11,8.63 L 115.06,8.57 L 114.95,8.50 L 114.84,8.43 L 114.73,8.39 L 114.61,8.38 L 114.57,8.35 L 114.50,8.26 L 114.48,8.21 L 114.47,8.17 L 114.48,8.12 L 114.50,8.12 L 114.62,8.13 L 114.83,8.18 L 114.94,8.19 L 115.00,8.17 L 115.15,8.07 L 115.19,8.07 L 115.34,8.12 L 115.45,8.16 Z M 106.05,1.67 L 106.08,1.74 L 106.13,1.80 L 106.16,1.87 L 106.21,2.19 L 106.37,2.46 L 106.82,2.57 L 106.74,2.62 L 106.71,2.66 L 106.68,2.70 L 106.61,2.90 L 106.62,2.94 L 106.66,3.00 L 106.67,3.07 L 106.61,3.07 L 106.55,3.06 L 106.50,3.03 L 106.45,2.99 L 106.40,2.97 L 106.34,2.95 L 106.25,2.89 L 106.13,2.86 L 106.00,2.82 L 105.94,2.74 L 105.91,2.64 L 105.94,2.49 L 105.91,2.45 L 105.86,2.42 L 105.81,2.31 L 105.79,2.18 L 105.71,2.13 L 105.60,2.10 L 105.55,2.08 L 105.34,2.13 L 105.29,2.11 L 105.25,2.08 L 105.13,2.04 L 105.14,1.97 L 105.19,1.92 L 105.32,1.86 L 105.37,1.81 L 105.39,1.75 L 105.36,1.71 L 105.37,1.66 L 105.41,1.61 L 105.46,1.57 L 105.59,1.53 L 105.64,1.61 L 105.67,1.68 L 105.70,1.73 L 105.75,1.66 L 105.72,1.53 L 105.82,1.51 L 105.91,1.50 L 105.98,1.54 L 106.03,1.59 L 106.05,1.67 Z M 123.18,4.55 L 123.20,4.77 L 123.20,4.82 L 123.14,4.74 L 123.12,4.72 L 123.10,4.74 L 123.08,4.75 L 123.06,4.75 L 123.02,4.83 L 123.01,4.91 L 122.99,4.96 L 122.97,5.14 L 122.98,5.19 L 123.02,5.16 L 123.05,5.16 L 123.15,5.22 L 123.20,5.27 L 123.19,5.33 L 123.12,5.39 L 123.04,5.42 L 122.99,5.39 L 122.97,5.41 L 122.93,5.44 L 122.91,5.48 L 122.92,5.52 L 122.85,5.64 L 122.81,5.67 L 122.73,5.63 L 122.68,5.67 L 122.65,5.66 L 122.58,5.54 L 122.59,5.49 L 122.64,5.43 L 122.64,5.38 L 122.67,5.33 L 122.73,5.26 L 122.77,5.21 L 122.77,5.18 L 122.79,5.05 L 122.80,5.00 L 122.82,4.94 L 122.85,4.83 L 122.85,4.62 L 122.95,4.44 L 123.04,4.39 L 123.07,4.39 L 123.07,4.43 L 123.18,4.55 Z M 122.65,5.27 L 122.62,5.34 L 122.56,5.39 L 122.52,5.39 L 122.47,5.38 L 122.39,5.34 L 122.37,5.38 L 122.31,5.38 L 122.28,5.32 L 122.33,5.14 L 122.40,5.07 L 122.39,5.00 L 122.33,4.85 L 122.37,4.77 L 122.52,4.71 L 122.66,4.63 L 122.70,4.62 L 122.74,4.68 L 122.76,4.93 L 122.61,5.14 L 122.65,5.27 Z M 108.32,-3.69 L 108.18,-3.65 L 108.10,-3.70 L 108.19,-3.77 L 108.22,-3.77 L 108.24,-3.78 L 108.24,-3.81 L 108.09,-3.85 L 108.04,-3.89 L 108.00,-3.98 L 108.00,-4.04 L 108.20,-4.20 L 108.25,-4.22 L 108.26,-4.15 L 108.39,-3.99 L 108.40,-3.88 L 108.39,-3.84 L 108.32,-3.69 Z M 108.21,3.00 L 108.19,3.10 L 108.17,3.14 L 108.08,3.19 L 108.06,3.23 L 107.98,3.22 L 107.97,3.17 L 107.94,3.13 L 107.86,3.09 L 107.84,3.10 L 107.82,3.16 L 107.66,3.21 L 107.61,3.21 L 107.64,3.12 L 107.59,3.06 L 107.59,2.98 L 107.58,2.94 L 107.56,2.92 L 107.60,2.86 L 107.60,2.80 L 107.64,2.73 L 107.67,2.57 L 107.84,2.53 L 107.87,2.56 L 108.07,2.60 L 108.22,2.70 L 108.29,2.83 L 108.21,3.00 Z M 135.38,0.65 L 135.60,0.69 L 135.67,0.69 L 135.75,0.73 L 135.84,0.71 L 135.89,0.73 L 136.07,0.88 L 136.15,0.98 L 136.28,1.06 L 136.38,1.09 L 136.31,1.17 L 136.16,1.21 L 136.11,1.22 L 136.00,1.17 L 135.92,1.18 L 135.84,1.12 L 135.83,1.03 L 135.75,0.82 L 135.65,0.88 L 135.52,0.79 L 135.49,0.79 L 135.48,0.80 L 135.43,0.77 L 135.39,0.70 L 135.38,0.65 Z M 135.47,1.59 L 135.87,1.64 L 135.98,1.64 L 136.20,1.65 L 136.39,1.72 L 136.72,1.73 L 136.82,1.75 L 136.89,1.80 L 136.71,1.84 L 136.62,1.87 L 136.46,1.89 L 136.33,1.87 L 136.23,1.89 L 136.19,1.86 L 136.05,1.82 L 135.87,1.75 L 135.49,1.67 L 135.47,1.62 L 135.47,1.59 Z M 130.81,0.00 L 130.99,0.05 L 131.03,0.04 L 131.28,0.15 L 131.32,0.20 L 131.30,0.24 L 131.34,0.29 L 131.26,0.37 L 131.22,0.37 L 131.18,0.35 L 131.10,0.33 L 131.01,0.36 L 130.95,0.34 L 130.90,0.27 L 130.81,0.23 L 130.68,0.08 L 130.62,0.09 L 130.64,0.14 L 130.69,0.18 L 130.76,0.29 L 130.80,0.30 L 130.84,0.30 L 130.90,0.34 L 130.90,0.42 L 130.75,0.44 L 130.70,0.39 L 130.69,0.30 L 130.61,0.33 L 130.57,0.36 L 130.55,0.37 L 130.50,0.27 L 130.34,0.26 L 130.24,0.21 L 130.29,0.15 L 130.29,0.10 L 130.36,0.07 L 130.43,0.10 L 130.50,0.06 L 130.55,0.07 L 130.58,0.05 L 130.72,0.03 L 130.81,0.00 Z M 128.45,-2.05 L 128.30,-2.03 L 128.26,-2.08 L 128.22,-2.30 L 128.33,-2.47 L 128.47,-2.57 L 128.57,-2.60 L 128.60,-2.60 L 128.69,-2.47 L 128.62,-2.22 L 128.55,-2.10 L 128.45,-2.05 Z M 128.15,1.66 L 128.09,1.70 L 128.06,1.71 L 127.91,1.69 L 127.74,1.69 L 127.56,1.73 L 127.46,1.70 L 127.39,1.64 L 127.40,1.59 L 127.46,1.45 L 127.59,1.35 L 127.65,1.33 L 127.74,1.36 L 127.91,1.44 L 128.03,1.53 L 128.15,1.60 L 128.15,1.66 Z M 126.06,2.45 L 126.04,2.47 L 125.98,2.42 L 125.94,2.26 L 125.90,2.22 L 125.86,2.08 L 125.87,2.04 L 125.92,1.97 L 125.96,1.98 L 125.99,2.01 L 125.98,2.17 L 126.07,2.37 L 126.06,2.45 Z M 126.02,1.79 L 126.33,1.82 L 126.29,1.86 L 125.96,1.92 L 125.84,1.91 L 125.48,1.94 L 125.43,1.94 L 125.43,1.88 L 125.39,1.84 L 125.44,1.81 L 125.52,1.80 L 125.72,1.81 L 126.02,1.79 Z M 124.97,1.71 L 125.06,1.74 L 125.10,1.74 L 125.13,1.70 L 125.15,1.69 L 125.19,1.71 L 125.20,1.78 L 125.26,1.77 L 125.31,1.79 L 125.32,1.81 L 125.31,1.88 L 125.13,1.89 L 125.01,1.94 L 124.83,1.89 L 124.64,1.98 L 124.52,2.01 L 124.42,2.01 L 124.33,1.86 L 124.38,1.69 L 124.42,1.66 L 124.48,1.64 L 124.66,1.64 L 124.97,1.71 Z M 131.33,8.00 L 131.31,8.01 L 131.18,8.00 L 131.11,8.00 L 131.12,7.92 L 131.09,7.87 L 131.14,7.78 L 131.14,7.68 L 131.19,7.67 L 131.20,7.62 L 131.26,7.47 L 131.30,7.44 L 131.35,7.43 L 131.41,7.34 L 131.45,7.32 L 131.48,7.25 L 131.54,7.22 L 131.53,7.17 L 131.56,7.14 L 131.64,7.11 L 131.70,7.14 L 131.74,7.20 L 131.64,7.27 L 131.69,7.44 L 131.62,7.63 L 131.58,7.68 L 131.50,7.73 L 131.47,7.78 L 131.38,7.87 L 131.35,7.95 L 131.34,7.98 L 131.33,8.00 Z M 126.80,7.67 L 126.81,7.72 L 126.81,7.74 L 126.69,7.75 L 126.58,7.81 L 126.52,7.87 L 126.47,7.95 L 126.31,7.92 L 126.17,7.91 L 126.11,7.88 L 126.04,7.89 L 125.95,7.91 L 125.83,7.98 L 125.80,7.98 L 125.81,7.88 L 125.84,7.82 L 125.98,7.66 L 126.09,7.70 L 126.21,7.71 L 126.36,7.68 L 126.46,7.61 L 126.61,7.57 L 126.73,7.66 L 126.80,7.67 Z M 124.58,8.14 L 124.60,8.20 L 124.68,8.17 L 124.75,8.16 L 124.92,8.17 L 125.05,8.18 L 125.12,8.20 L 125.13,8.33 L 125.10,8.35 L 124.44,8.44 L 124.38,8.42 L 124.36,8.39 L 124.43,8.30 L 124.39,8.25 L 124.43,8.18 L 124.51,8.14 L 124.58,8.14 Z M 131.00,1.32 L 130.97,1.34 L 130.85,1.32 L 130.78,1.26 L 130.74,1.17 L 130.71,1.10 L 130.70,1.05 L 130.67,0.98 L 130.67,0.96 L 130.90,0.89 L 130.94,0.92 L 131.03,0.92 L 131.07,0.97 L 131.05,1.19 L 131.00,1.32 Z M 96.49,-5.23 L 96.62,-5.22 L 96.84,-5.27 L 96.97,-5.27 L 97.09,-5.23 L 97.19,-5.21 L 97.45,-5.24 L 97.50,-5.23 L 97.55,-5.21 L 97.59,-5.17 L 97.71,-5.04 L 97.91,-4.88 L 97.97,-4.78 L 98.00,-4.66 L 98.02,-4.64 L 98.25,-4.41 L 98.27,-4.32 L 98.24,-4.19 L 98.31,-4.09 L 98.53,-4.00 L 98.66,-3.93 L 98.69,-3.89 L 98.71,-3.83 L 98.78,-3.76 L 98.87,-3.71 L 99.15,-3.58 L 99.52,-3.31 L 99.73,-3.18 L 99.91,-2.99 L 99.97,-2.89 L 100.02,-2.79 L 100.13,-2.65 L 100.31,-2.47 L 100.35,-2.41 L 100.40,-2.33 L 100.46,-2.26 L 100.52,-2.19 L 100.60,-2.14 L 100.69,-2.12 L 100.82,-1.99 L 100.89,-1.95 L 100.88,-2.05 L 100.82,-2.14 L 100.82,-2.19 L 100.83,-2.24 L 100.88,-2.28 L 100.94,-2.29 L 101.05,-2.26 L 101.23,-2.10 L 101.30,-2.01 L 101.36,-1.89 L 101.41,-1.76 L 101.48,-1.69 L 101.57,-1.67 L 101.68,-1.66 L 101.78,-1.62 L 102.02,-1.44 L 102.10,-1.36 L 102.16,-1.26 L 102.20,-1.14 L 102.22,-1.02 L 102.24,-0.99 L 102.39,-0.84 L 102.47,-0.78 L 102.57,-0.75 L 102.85,-0.72 L 102.95,-0.66 L 103.03,-0.58 L 103.07,-0.49 L 103.01,-0.42 L 102.79,-0.30 L 102.55,-0.22 L 102.78,-0.24 L 102.90,-0.28 L 103.00,-0.33 L 103.11,-0.40 L 103.28,-0.49 L 103.34,-0.51 L 103.41,-0.51 L 103.48,-0.48 L 103.58,-0.39 L 103.67,-0.29 L 103.74,-0.17 L 103.79,-0.05 L 103.71,0.02 L 103.59,0.07 L 103.43,0.19 L 103.41,0.24 L 103.44,0.27 L 103.41,0.36 L 103.50,0.42 L 103.51,0.47 L 103.43,0.53 L 103.44,0.58 L 103.53,0.75 L 103.58,0.80 L 103.72,0.89 L 103.94,0.98 L 104.06,1.02 L 104.20,1.05 L 104.26,1.05 L 104.36,1.04 L 104.38,1.07 L 104.43,1.25 L 104.45,1.36 L 104.48,1.60 L 104.52,1.70 L 104.52,1.82 L 104.57,1.92 L 104.68,1.99 L 104.79,2.04 L 104.85,2.09 L 104.84,2.17 L 104.83,2.23 L 104.79,2.28 L 104.67,2.39 L 104.65,2.43 L 104.63,2.54 L 104.65,2.60 L 104.70,2.60 L 104.74,2.57 L 104.88,2.42 L 104.92,2.39 L 104.97,2.37 L 105.03,2.36 L 105.29,2.36 L 105.40,2.38 L 105.50,2.43 L 105.58,2.49 L 105.90,2.89 L 106.04,3.11 L 106.06,3.16 L 106.06,3.22 L 106.03,3.26 L 105.90,3.41 L 105.89,3.45 L 105.84,3.61 L 105.85,3.73 L 105.90,3.78 L 105.93,3.83 L 105.93,3.88 L 105.84,4.12 L 105.83,4.16 L 105.89,4.55 L 105.89,4.66 L 105.88,4.79 L 105.89,5.01 L 105.82,5.68 L 105.80,5.72 L 105.75,5.82 L 105.68,5.82 L 105.62,5.80 L 105.58,5.76 L 105.56,5.71 L 105.52,5.67 L 105.35,5.55 L 105.30,5.57 L 105.13,5.72 L 105.08,5.75 L 105.02,5.73 L 104.93,5.68 L 104.64,5.52 L 104.62,5.57 L 104.62,5.64 L 104.68,5.82 L 104.68,5.89 L 104.63,5.91 L 104.60,5.90 L 104.48,5.80 L 104.37,5.69 L 104.24,5.54 L 104.15,5.47 L 104.07,5.39 L 103.83,5.08 L 103.77,5.03 L 103.41,4.82 L 103.33,4.77 L 103.24,4.68 L 103.14,4.60 L 102.92,4.47 L 102.54,4.15 L 102.37,3.97 L 102.19,3.67 L 102.13,3.60 L 101.82,3.38 L 101.65,3.24 L 101.58,3.17 L 101.41,2.90 L 101.37,2.81 L 101.31,2.73 L 101.21,2.66 L 101.12,2.59 L 100.94,2.35 L 100.89,2.25 L 100.85,2.14 L 100.86,1.93 L 100.49,1.30 L 100.39,1.10 L 100.31,0.83 L 100.29,0.80 L 100.09,0.55 L 100.02,0.47 L 99.93,0.40 L 99.86,0.31 L 99.72,0.03 L 99.67,-0.05 L 99.60,-0.10 L 99.33,-0.21 L 99.24,-0.27 L 99.16,-0.35 L 99.11,-0.46 L 99.06,-0.69 L 98.94,-1.03 L 98.80,-1.49 L 98.70,-1.70 L 98.60,-1.86 L 98.56,-1.90 L 98.09,-2.20 L 98.01,-2.24 L 97.92,-2.26 L 97.80,-2.28 L 97.70,-2.36 L 97.66,-2.49 L 97.64,-2.68 L 97.62,-2.79 L 97.59,-2.85 L 97.39,-2.98 L 97.31,-3.08 L 97.25,-3.19 L 97.19,-3.28 L 96.97,-3.58 L 96.89,-3.65 L 96.80,-3.71 L 96.53,-3.77 L 96.44,-3.82 L 96.31,-3.99 L 96.23,-4.07 L 95.99,-4.26 L 95.58,-4.66 L 95.49,-4.76 L 95.43,-4.87 L 95.38,-4.98 L 95.21,-5.28 L 95.22,-5.35 L 95.25,-5.41 L 95.24,-5.46 L 95.22,-5.52 L 95.23,-5.56 L 95.28,-5.59 L 95.40,-5.63 L 95.52,-5.62 L 95.63,-5.61 L 95.74,-5.58 L 95.84,-5.51 L 96.03,-5.35 L 96.13,-5.29 L 96.25,-5.27 L 96.49,-5.23 Z M 122.78,8.61 L 122.64,8.65 L 122.55,8.68 L 122.47,8.73 L 122.42,8.73 L 122.32,8.74 L 122.19,8.73 L 122.09,8.74 L 121.84,8.86 L 121.74,8.87 L 121.65,8.90 L 121.62,8.85 L 121.58,8.82 L 121.50,8.81 L 121.41,8.81 L 121.33,8.92 L 121.19,8.90 L 121.14,8.90 L 121.09,8.93 L 121.04,8.94 L 120.98,8.93 L 120.78,8.85 L 120.55,8.80 L 120.32,8.82 L 120.12,8.78 L 120.01,8.81 L 119.91,8.86 L 119.88,8.81 L 119.84,8.76 L 119.81,8.70 L 119.81,8.62 L 119.82,8.57 L 119.85,8.52 L 119.87,8.47 L 119.87,8.42 L 119.92,8.45 L 119.96,8.44 L 120.10,8.38 L 120.23,8.29 L 120.35,8.26 L 120.42,8.25 L 120.49,8.27 L 120.55,8.26 L 120.61,8.24 L 120.71,8.31 L 120.75,8.32 L 120.89,8.33 L 121.01,8.37 L 121.12,8.42 L 121.28,8.48 L 121.37,8.55 L 121.44,8.58 L 121.50,8.59 L 121.55,8.58 L 121.61,8.53 L 121.68,8.51 L 121.75,8.51 L 121.86,8.49 L 121.91,8.48 L 121.97,8.46 L 122.02,8.47 L 122.07,8.50 L 122.26,8.62 L 122.32,8.63 L 122.43,8.60 L 122.47,8.57 L 122.48,8.51 L 122.51,8.47 L 122.56,8.43 L 122.60,8.40 L 122.75,8.35 L 122.85,8.30 L 122.92,8.22 L 122.76,8.19 L 122.79,8.13 L 122.85,8.09 L 122.92,8.11 L 122.98,8.15 L 123.01,8.33 L 122.96,8.35 L 122.92,8.38 L 122.90,8.42 L 122.81,8.48 L 122.85,8.56 L 122.82,8.60 L 122.78,8.61 Z M 120.01,9.37 L 120.06,9.42 L 120.22,9.51 L 120.25,9.54 L 120.26,9.60 L 120.29,9.65 L 120.36,9.65 L 120.44,9.65 L 120.50,9.67 L 120.56,9.72 L 120.63,9.81 L 120.70,9.90 L 120.78,9.96 L 120.83,10.04 L 120.80,10.11 L 120.70,10.21 L 120.64,10.23 L 120.56,10.24 L 120.44,10.29 L 120.39,10.26 L 120.26,10.24 L 120.14,10.20 L 120.05,10.12 L 120.00,10.04 L 119.93,9.97 L 119.81,9.92 L 119.60,9.77 L 119.47,9.76 L 119.42,9.77 L 119.36,9.77 L 119.09,9.71 L 119.04,9.67 L 119.01,9.62 L 118.98,9.57 L 118.96,9.52 L 118.99,9.47 L 119.03,9.44 L 119.19,9.38 L 119.30,9.37 L 119.42,9.37 L 119.61,9.35 L 119.80,9.38 L 119.85,9.36 L 119.94,9.30 L 119.97,9.32 L 120.01,9.37 Z M 118.24,8.32 L 118.29,8.36 L 118.34,8.35 L 118.43,8.29 L 118.49,8.27 L 118.55,8.27 L 118.61,8.28 L 118.67,8.32 L 118.69,8.39 L 118.71,8.41 L 118.75,8.33 L 118.79,8.31 L 118.85,8.29 L 118.93,8.30 L 118.99,8.34 L 119.04,8.46 L 119.04,8.56 L 119.06,8.60 L 119.10,8.63 L 119.13,8.67 L 119.10,8.71 L 119.08,8.73 L 119.01,8.75 L 118.97,8.74 L 118.94,8.71 L 118.90,8.70 L 118.82,8.71 L 118.75,8.74 L 118.76,8.77 L 118.82,8.79 L 118.84,8.81 L 118.83,8.83 L 118.81,8.84 L 118.73,8.81 L 118.67,8.81 L 118.48,8.86 L 118.43,8.86 L 118.40,8.81 L 118.40,8.70 L 118.38,8.67 L 118.23,8.81 L 118.19,8.84 L 118.13,8.86 L 118.07,8.85 L 117.86,8.93 L 117.80,8.92 L 117.73,8.92 L 117.51,9.01 L 117.39,9.03 L 117.33,9.03 L 117.27,9.03 L 117.21,9.03 L 117.16,9.07 L 117.06,9.10 L 116.96,9.08 L 116.87,9.05 L 116.79,9.01 L 116.77,8.96 L 116.77,8.89 L 116.81,8.81 L 116.78,8.66 L 116.80,8.60 L 116.84,8.53 L 116.89,8.51 L 116.95,8.50 L 117.06,8.44 L 117.16,8.37 L 117.22,8.37 L 117.36,8.43 L 117.43,8.43 L 117.57,8.43 L 117.62,8.46 L 117.64,8.54 L 117.67,8.56 L 117.71,8.58 L 117.81,8.71 L 117.89,8.70 L 117.97,8.73 L 118.10,8.65 L 118.21,8.65 L 118.23,8.59 L 118.17,8.53 L 118.10,8.48 L 118.06,8.46 L 118.02,8.47 L 117.98,8.46 L 117.81,8.34 L 117.77,8.28 L 117.74,8.20 L 117.76,8.15 L 117.87,8.10 L 117.92,8.09 L 118.12,8.12 L 118.15,8.15 L 118.20,8.27 L 118.24,8.32 Z M 124.89,-1.00 L 124.70,-0.83 L 124.64,-0.74 L 124.59,-0.66 L 124.51,-0.56 L 124.43,-0.47 L 124.38,-0.44 L 124.28,-0.40 L 124.22,-0.38 L 124.10,-0.37 L 123.75,-0.31 L 123.64,-0.30 L 123.53,-0.30 L 123.31,-0.32 L 123.27,-0.33 L 123.18,-0.42 L 123.08,-0.49 L 123.00,-0.49 L 122.91,-0.49 L 122.28,-0.48 L 122.06,-0.47 L 121.84,-0.44 L 121.72,-0.45 L 121.60,-0.49 L 121.52,-0.50 L 121.43,-0.49 L 121.01,-0.44 L 120.91,-0.45 L 120.70,-0.51 L 120.58,-0.53 L 120.46,-0.51 L 120.35,-0.45 L 120.31,-0.41 L 120.19,-0.27 L 120.13,-0.17 L 120.08,-0.04 L 120.04,0.09 L 120.01,0.20 L 120.01,0.31 L 120.03,0.43 L 120.06,0.56 L 120.10,0.65 L 120.24,0.87 L 120.27,0.90 L 120.43,0.96 L 120.52,1.04 L 120.61,1.26 L 120.67,1.37 L 120.73,1.37 L 120.80,1.36 L 120.92,1.38 L 121.03,1.41 L 121.15,1.34 L 121.21,1.21 L 121.28,1.12 L 121.43,0.94 L 121.52,0.86 L 121.58,0.83 L 121.63,0.84 L 121.68,0.89 L 121.74,0.93 L 121.85,0.95 L 121.97,0.93 L 122.09,0.88 L 122.14,0.84 L 122.17,0.79 L 122.28,0.76 L 122.53,0.76 L 122.66,0.77 L 122.89,0.76 L 122.89,0.72 L 122.84,0.69 L 122.83,0.66 L 122.87,0.64 L 123.02,0.60 L 123.17,0.57 L 123.28,0.59 L 123.38,0.65 L 123.42,0.71 L 123.43,0.78 L 123.40,0.96 L 123.38,1.00 L 123.30,1.03 L 123.23,1.00 L 123.15,0.91 L 123.05,0.87 L 122.90,0.90 L 122.85,0.93 L 122.81,0.97 L 122.72,1.06 L 122.66,1.18 L 122.51,1.35 L 122.33,1.50 L 122.25,1.56 L 122.16,1.59 L 121.86,1.69 L 121.78,1.77 L 121.72,1.86 L 121.65,1.90 L 121.57,1.91 L 121.51,1.89 L 121.39,1.83 L 121.36,1.88 L 121.35,1.95 L 121.41,1.97 L 121.50,2.05 L 121.57,2.15 L 121.62,2.17 L 121.73,2.21 L 121.77,2.24 L 121.85,2.33 L 121.97,2.54 L 122.01,2.66 L 122.08,2.75 L 122.29,2.91 L 122.30,2.95 L 122.29,3.00 L 122.31,3.05 L 122.38,3.14 L 122.40,3.20 L 122.32,3.28 L 122.31,3.38 L 122.26,3.53 L 122.25,3.58 L 122.25,3.62 L 122.29,3.66 L 122.33,3.69 L 122.39,3.71 L 122.43,3.74 L 122.53,3.85 L 122.58,3.88 L 122.61,3.92 L 122.61,3.98 L 122.65,4.02 L 122.69,4.08 L 122.75,4.10 L 122.78,4.08 L 122.80,4.05 L 122.85,4.06 L 122.88,4.11 L 122.89,4.17 L 122.90,4.23 L 122.90,4.35 L 122.87,4.39 L 122.82,4.39 L 122.72,4.34 L 122.72,4.38 L 122.72,4.41 L 122.67,4.42 L 122.61,4.42 L 122.47,4.42 L 122.21,4.50 L 122.11,4.54 L 122.05,4.62 L 122.05,4.68 L 122.07,4.79 L 122.04,4.83 L 121.92,4.85 L 121.75,4.82 L 121.65,4.79 L 121.59,4.76 L 121.51,4.68 L 121.49,4.58 L 121.54,4.28 L 121.56,4.24 L 121.58,4.21 L 121.61,4.16 L 121.62,4.09 L 121.54,4.01 L 121.42,3.98 L 121.31,3.92 L 120.91,3.56 L 120.89,3.52 L 120.89,3.46 L 120.91,3.40 L 121.04,3.21 L 121.05,3.17 L 121.07,3.01 L 121.07,2.88 L 121.05,2.75 L 120.99,2.67 L 120.88,2.65 L 120.77,2.64 L 120.65,2.67 L 120.54,2.73 L 120.34,2.87 L 120.26,2.95 L 120.25,3.05 L 120.30,3.15 L 120.36,3.25 L 120.39,3.35 L 120.44,3.71 L 120.44,3.75 L 120.38,3.85 L 120.36,4.09 L 120.38,4.42 L 120.42,4.62 L 120.40,4.73 L 120.31,4.96 L 120.28,5.09 L 120.28,5.15 L 120.39,5.39 L 120.42,5.49 L 120.43,5.59 L 120.31,5.54 L 120.26,5.54 L 120.20,5.56 L 120.08,5.58 L 119.95,5.58 L 119.91,5.60 L 119.82,5.66 L 119.76,5.69 L 119.72,5.69 L 119.56,5.61 L 119.46,5.52 L 119.38,5.42 L 119.36,5.31 L 119.39,5.20 L 119.43,5.08 L 119.52,4.88 L 119.52,4.74 L 119.54,4.63 L 119.59,4.52 L 119.61,4.42 L 119.62,4.03 L 119.61,4.00 L 119.49,3.77 L 119.48,3.73 L 119.48,3.67 L 119.49,3.61 L 119.49,3.55 L 119.47,3.51 L 119.42,3.48 L 119.36,3.46 L 119.24,3.48 L 118.99,3.54 L 118.92,3.48 L 118.87,3.40 L 118.83,3.28 L 118.81,3.16 L 118.82,3.04 L 118.86,2.93 L 118.83,2.85 L 118.78,2.76 L 118.78,2.72 L 118.81,2.68 L 118.85,2.65 L 118.91,2.63 L 118.96,2.60 L 119.09,2.48 L 119.14,2.38 L 119.14,2.26 L 119.17,2.14 L 119.24,2.03 L 119.32,1.93 L 119.35,1.83 L 119.31,1.66 L 119.32,1.58 L 119.31,1.50 L 119.31,1.41 L 119.36,1.24 L 119.51,0.91 L 119.65,0.73 L 119.71,0.68 L 119.79,0.76 L 119.84,0.86 L 119.85,0.77 L 119.83,0.69 L 119.77,0.48 L 119.72,0.09 L 119.74,0.05 L 119.79,0.06 L 119.84,0.02 L 119.87,-0.04 L 119.81,-0.19 L 119.81,-0.24 L 119.91,-0.45 L 120.00,-0.52 L 120.04,-0.57 L 120.06,-0.69 L 120.10,-0.74 L 120.16,-0.77 L 120.23,-0.86 L 120.27,-0.97 L 120.29,-0.98 L 120.32,-0.98 L 120.37,-0.89 L 120.42,-0.85 L 120.52,-0.82 L 120.60,-0.85 L 120.63,-0.90 L 120.66,-0.94 L 120.71,-0.99 L 120.75,-1.04 L 120.80,-1.15 L 120.87,-1.25 L 120.91,-1.29 L 120.97,-1.31 L 121.02,-1.33 L 121.08,-1.33 L 121.21,-1.26 L 121.28,-1.25 L 121.36,-1.25 L 121.40,-1.24 L 121.44,-1.21 L 121.47,-1.16 L 121.51,-1.10 L 121.55,-1.08 L 121.59,-1.07 L 121.87,-1.09 L 122.11,-1.03 L 122.44,-1.02 L 122.55,-0.98 L 122.66,-0.94 L 122.79,-0.86 L 122.84,-0.85 L 122.89,-0.85 L 122.96,-0.92 L 123.01,-0.94 L 123.07,-0.94 L 123.28,-0.93 L 123.85,-0.84 L 123.93,-0.85 L 124.27,-1.02 L 124.41,-1.19 L 124.53,-1.23 L 124.58,-1.30 L 124.60,-1.39 L 124.64,-1.42 L 124.75,-1.44 L 124.79,-1.47 L 124.86,-1.58 L 124.95,-1.67 L 124.99,-1.70 L 125.11,-1.69 L 125.16,-1.64 L 125.23,-1.50 L 125.22,-1.48 L 125.14,-1.41 L 125.12,-1.38 L 125.03,-1.18 L 124.97,-1.08 L 124.89,-1.00 Z M 107.37,6.01 L 107.47,6.12 L 107.56,6.18 L 107.67,6.22 L 107.78,6.22 L 107.88,6.23 L 108.01,6.28 L 108.14,6.30 L 108.20,6.29 L 108.25,6.27 L 108.30,6.27 L 108.33,6.29 L 108.42,6.38 L 108.52,6.47 L 108.54,6.52 L 108.60,6.73 L 108.68,6.79 L 108.78,6.81 L 108.90,6.81 L 109.02,6.82 L 109.29,6.87 L 109.40,6.86 L 109.50,6.81 L 109.59,6.84 L 109.82,6.90 L 109.94,6.92 L 110.07,6.90 L 110.20,6.90 L 110.26,6.91 L 110.32,6.94 L 110.37,6.95 L 110.43,6.95 L 110.52,6.90 L 110.58,6.81 L 110.63,6.69 L 110.67,6.57 L 110.70,6.52 L 110.74,6.47 L 110.78,6.44 L 110.83,6.42 L 110.97,6.44 L 111.00,6.46 L 111.15,6.67 L 111.18,6.69 L 111.34,6.70 L 111.39,6.69 L 111.48,6.65 L 111.54,6.65 L 111.64,6.70 L 111.69,6.74 L 111.74,6.77 L 111.99,6.81 L 112.09,6.89 L 112.14,6.91 L 112.31,6.89 L 112.43,6.90 L 112.54,6.93 L 112.59,7.05 L 112.63,7.18 L 112.65,7.22 L 112.75,7.27 L 112.79,7.30 L 112.78,7.43 L 112.79,7.55 L 113.01,7.66 L 113.25,7.72 L 113.50,7.72 L 113.75,7.70 L 113.88,7.68 L 114.04,7.63 L 114.07,7.63 L 114.38,7.77 L 114.41,7.79 L 114.44,7.90 L 114.44,8.00 L 114.38,8.26 L 114.38,8.33 L 114.39,8.41 L 114.45,8.56 L 114.48,8.60 L 114.60,8.68 L 114.60,8.73 L 114.58,8.77 L 114.46,8.74 L 114.38,8.71 L 114.34,8.65 L 114.28,8.61 L 114.16,8.63 L 113.94,8.57 L 113.69,8.48 L 113.25,8.29 L 113.13,8.29 L 113.02,8.31 L 112.90,8.36 L 112.77,8.40 L 112.68,8.41 L 112.59,8.40 L 112.35,8.35 L 112.12,8.32 L 111.51,8.31 L 111.34,8.26 L 111.06,8.24 L 110.83,8.20 L 110.61,8.15 L 110.04,7.89 L 109.85,7.83 L 109.28,7.70 L 109.19,7.69 L 108.99,7.70 L 108.86,7.67 L 108.74,7.67 L 108.57,7.71 L 108.52,7.74 L 108.45,7.80 L 108.34,7.79 L 108.22,7.78 L 107.92,7.72 L 107.80,7.69 L 107.70,7.64 L 107.60,7.57 L 107.55,7.54 L 107.28,7.47 L 107.07,7.45 L 106.63,7.42 L 106.54,7.39 L 106.46,7.37 L 106.41,7.31 L 106.42,7.24 L 106.45,7.18 L 106.49,7.11 L 106.52,7.05 L 106.20,6.93 L 105.94,6.86 L 105.83,6.85 L 105.72,6.85 L 105.60,6.86 L 105.48,6.85 L 105.42,6.83 L 105.36,6.83 L 105.30,6.84 L 105.26,6.84 L 105.24,6.78 L 105.27,6.73 L 105.34,6.67 L 105.37,6.66 L 105.39,6.75 L 105.40,6.77 L 105.46,6.79 L 105.48,6.78 L 105.58,6.67 L 105.61,6.62 L 105.66,6.47 L 105.71,6.50 L 105.76,6.48 L 105.79,6.46 L 105.87,6.12 L 105.94,6.02 L 106.03,5.93 L 106.07,5.91 L 106.17,5.96 L 106.35,5.98 L 106.46,6.02 L 106.57,6.02 L 106.68,6.04 L 106.83,6.10 L 106.88,6.09 L 106.93,6.07 L 107.01,6.01 L 107.05,5.90 L 107.16,5.96 L 107.33,5.98 L 107.37,6.01 Z M 109.63,-2.03 L 109.54,-1.90 L 109.55,-1.85 L 109.57,-1.81 L 109.64,-1.78 L 109.65,-1.61 L 109.74,-1.52 L 109.82,-1.44 L 109.88,-1.40 L 109.94,-1.34 L 109.99,-1.28 L 110.04,-1.24 L 110.11,-1.19 L 110.32,-1.00 L 110.40,-0.94 L 110.46,-0.88 L 110.51,-0.86 L 110.61,-0.88 L 110.94,-1.02 L 111.00,-1.03 L 111.10,-1.05 L 111.29,-1.04 L 111.48,-1.00 L 111.55,-0.99 L 111.61,-1.02 L 111.69,-1.01 L 111.77,-1.00 L 111.81,-1.01 L 111.92,-1.11 L 112.08,-1.14 L 112.13,-1.24 L 112.17,-1.34 L 112.19,-1.44 L 112.25,-1.48 L 112.34,-1.51 L 112.48,-1.56 L 112.94,-1.57 L 112.99,-1.55 L 113.00,-1.50 L 112.99,-1.46 L 113.01,-1.43 L 113.07,-1.43 L 113.13,-1.41 L 113.36,-1.33 L 113.46,-1.30 L 113.51,-1.31 L 113.62,-1.24 L 113.68,-1.26 L 113.76,-1.31 L 113.84,-1.38 L 113.90,-1.43 L 114.00,-1.46 L 114.13,-1.45 L 114.27,-1.47 L 114.39,-1.50 L 114.51,-1.45 L 114.55,-1.47 L 114.57,-1.51 L 114.63,-1.62 L 114.66,-1.69 L 114.69,-1.82 L 114.70,-1.85 L 114.75,-1.87 L 114.80,-1.89 L 114.81,-1.93 L 114.83,-1.98 L 114.82,-2.02 L 114.79,-2.05 L 114.76,-2.16 L 114.77,-2.21 L 114.79,-2.25 L 114.84,-2.27 L 114.97,-2.35 L 115.09,-2.45 L 115.15,-2.49 L 115.18,-2.52 L 115.18,-2.57 L 115.13,-2.61 L 115.08,-2.63 L 115.08,-2.69 L 115.08,-2.72 L 115.09,-2.76 L 115.09,-2.79 L 115.09,-2.84 L 115.12,-2.89 L 115.19,-2.97 L 115.25,-3.03 L 115.31,-2.99 L 115.38,-3.01 L 115.45,-3.03 L 115.49,-3.13 L 115.50,-3.17 L 115.49,-3.21 L 115.51,-3.34 L 115.52,-3.36 L 115.57,-3.45 L 115.57,-3.50 L 115.54,-3.63 L 115.56,-3.73 L 115.57,-3.94 L 115.60,-3.98 L 115.63,-4.08 L 115.68,-4.19 L 115.78,-4.25 L 115.84,-4.33 L 115.86,-4.35 L 115.90,-4.35 L 116.02,-4.29 L 116.13,-4.36 L 116.24,-4.36 L 116.32,-4.35 L 116.37,-4.33 L 116.41,-4.31 L 116.51,-4.37 L 116.55,-4.36 L 116.59,-4.34 L 116.64,-4.34 L 116.70,-4.35 L 116.84,-4.34 L 117.10,-4.34 L 117.28,-4.30 L 117.45,-4.19 L 117.54,-4.17 L 117.57,-4.17 L 117.57,-4.16 L 117.50,-4.13 L 117.47,-4.08 L 117.56,-3.99 L 117.57,-3.93 L 117.64,-3.88 L 117.73,-3.80 L 117.73,-3.77 L 117.76,-3.73 L 117.78,-3.69 L 117.71,-3.64 L 117.63,-3.64 L 117.57,-3.68 L 117.51,-3.73 L 117.49,-3.67 L 117.45,-3.63 L 117.29,-3.64 L 117.17,-3.64 L 117.06,-3.62 L 117.11,-3.61 L 117.17,-3.59 L 117.35,-3.43 L 117.38,-3.37 L 117.32,-3.24 L 117.35,-3.19 L 117.42,-3.17 L 117.51,-3.10 L 117.57,-3.10 L 117.61,-3.06 L 117.61,-3.00 L 117.64,-2.95 L 117.57,-2.93 L 117.64,-2.91 L 117.70,-2.89 L 117.66,-2.86 L 117.64,-2.83 L 117.67,-2.81 L 117.75,-2.78 L 117.79,-2.75 L 117.80,-2.67 L 117.89,-2.54 L 118.03,-2.38 L 118.07,-2.32 L 118.07,-2.26 L 118.04,-2.22 L 117.96,-2.16 L 117.89,-2.09 L 117.88,-2.06 L 117.79,-2.03 L 117.83,-2.00 L 117.86,-1.97 L 117.93,-1.87 L 118.08,-1.70 L 118.16,-1.64 L 118.47,-1.42 L 118.64,-1.32 L 118.85,-1.10 L 118.96,-1.04 L 118.98,-0.98 L 118.89,-0.89 L 118.76,-0.84 L 118.53,-0.81 L 118.31,-0.85 L 118.20,-0.87 L 118.10,-0.93 L 118.02,-1.04 L 117.91,-1.10 L 117.95,-1.03 L 117.98,-0.96 L 117.96,-0.89 L 117.92,-0.83 L 117.85,-0.79 L 117.78,-0.75 L 117.75,-0.73 L 117.55,-0.34 L 117.52,-0.24 L 117.46,0.20 L 117.46,0.32 L 117.55,0.55 L 117.56,0.68 L 117.57,0.73 L 117.56,0.77 L 117.52,0.80 L 117.36,0.87 L 117.24,0.93 L 117.15,1.01 L 117.07,1.11 L 117.00,1.19 L 116.91,1.22 L 116.85,1.22 L 116.80,1.18 L 116.76,1.12 L 116.74,1.04 L 116.73,1.10 L 116.73,1.15 L 116.76,1.21 L 116.77,1.27 L 116.75,1.33 L 116.72,1.38 L 116.61,1.43 L 116.55,1.47 L 116.55,1.55 L 116.52,1.60 L 116.48,1.63 L 116.33,1.71 L 116.30,1.74 L 116.28,1.78 L 116.35,1.78 L 116.42,1.78 L 116.43,1.86 L 116.45,1.92 L 116.42,2.05 L 116.31,2.14 L 116.37,2.16 L 116.42,2.19 L 116.53,2.21 L 116.57,2.30 L 116.55,2.41 L 116.53,2.51 L 116.45,2.54 L 116.40,2.52 L 116.35,2.52 L 116.32,2.55 L 116.31,2.60 L 116.38,2.58 L 116.37,2.71 L 116.35,2.83 L 116.33,2.90 L 116.29,2.96 L 116.23,2.98 L 116.17,2.93 L 116.15,2.98 L 116.17,3.03 L 116.26,3.13 L 116.21,3.15 L 116.17,3.18 L 116.15,3.23 L 116.06,3.35 L 116.02,3.43 L 116.00,3.52 L 115.96,3.60 L 115.26,3.91 L 114.69,4.17 L 114.65,4.15 L 114.63,4.11 L 114.61,3.70 L 114.54,3.49 L 114.53,3.38 L 114.45,3.48 L 114.40,3.47 L 114.34,3.44 L 114.30,3.41 L 114.30,3.36 L 114.34,3.24 L 114.29,3.31 L 114.24,3.36 L 114.18,3.35 L 114.13,3.33 L 114.11,3.29 L 114.08,3.28 L 113.96,3.39 L 113.80,3.46 L 113.71,3.46 L 113.63,3.42 L 113.64,3.33 L 113.63,3.25 L 113.61,3.20 L 113.57,3.18 L 113.53,3.18 L 113.41,3.23 L 113.37,3.22 L 113.34,3.25 L 113.03,2.93 L 112.97,3.19 L 112.76,3.32 L 112.60,3.40 L 112.44,3.37 L 112.28,3.32 L 112.13,3.38 L 111.95,3.53 L 111.91,3.55 L 111.86,3.55 L 111.82,3.53 L 111.83,3.42 L 111.84,3.31 L 111.82,3.06 L 111.81,3.01 L 111.76,2.94 L 111.69,2.89 L 111.66,2.93 L 111.63,2.98 L 111.49,2.97 L 111.37,2.93 L 111.26,2.96 L 111.04,3.06 L 110.93,3.07 L 110.87,3.05 L 110.83,3.00 L 110.85,2.95 L 110.90,2.91 L 110.81,2.94 L 110.74,2.99 L 110.70,3.02 L 110.67,3.00 L 110.57,2.89 L 110.38,2.93 L 110.35,2.95 L 110.30,2.99 L 110.26,2.97 L 110.23,2.93 L 110.22,2.69 L 110.12,2.23 L 110.10,2.00 L 110.07,1.95 L 109.96,1.86 L 109.96,1.74 L 110.02,1.64 L 110.04,1.53 L 110.02,1.40 L 109.98,1.27 L 109.94,1.18 L 109.87,1.10 L 109.79,1.01 L 109.68,0.94 L 109.45,0.87 L 109.33,0.88 L 109.29,0.85 L 109.26,0.81 L 109.27,0.73 L 109.31,0.68 L 109.37,0.67 L 109.37,0.64 L 109.26,0.58 L 109.16,0.49 L 109.13,0.45 L 109.12,0.39 L 109.12,0.27 L 109.15,0.19 L 109.16,0.14 L 109.19,0.01 L 109.26,-0.03 L 109.25,-0.06 L 109.22,-0.07 L 109.18,-0.12 L 109.15,-0.17 L 109.07,-0.25 L 108.94,-0.36 L 108.92,-0.53 L 108.91,-0.79 L 108.92,-0.91 L 108.96,-1.13 L 109.03,-1.20 L 109.09,-1.22 L 109.13,-1.25 L 109.10,-1.26 L 109.07,-1.25 L 109.01,-1.24 L 109.06,-1.44 L 109.08,-1.50 L 109.17,-1.61 L 109.27,-1.71 L 109.32,-1.82 L 109.38,-1.92 L 109.63,-2.03 Z M 127.73,-0.85 L 127.81,-0.83 L 127.88,-0.83 L 127.92,-0.88 L 127.93,-0.93 L 127.97,-1.04 L 128.06,-1.12 L 128.12,-1.13 L 128.16,-1.16 L 128.15,-1.24 L 128.16,-1.32 L 128.22,-1.40 L 128.42,-1.52 L 128.54,-1.56 L 128.69,-1.57 L 128.71,-1.53 L 128.69,-1.46 L 128.72,-1.37 L 128.70,-1.11 L 128.67,-1.07 L 128.51,-0.98 L 128.35,-0.91 L 128.30,-0.88 L 128.26,-0.80 L 128.26,-0.73 L 128.40,-0.64 L 128.61,-0.55 L 128.66,-0.51 L 128.68,-0.44 L 128.69,-0.36 L 128.74,-0.32 L 128.82,-0.31 L 128.86,-0.27 L 128.90,-0.22 L 128.54,-0.34 L 128.45,-0.39 L 128.33,-0.40 L 128.22,-0.41 L 128.11,-0.46 L 127.98,-0.47 L 127.92,-0.44 L 127.90,-0.37 L 127.89,-0.30 L 127.91,-0.21 L 127.91,-0.15 L 127.89,-0.05 L 127.98,0.25 L 128.09,0.49 L 128.25,0.73 L 128.33,0.82 L 128.43,0.89 L 128.28,0.87 L 128.23,0.79 L 128.05,0.71 L 128.01,0.66 L 127.89,0.42 L 127.85,0.38 L 127.74,0.30 L 127.69,0.24 L 127.67,0.16 L 127.69,0.08 L 127.68,-0.03 L 127.69,-0.15 L 127.71,-0.29 L 127.67,-0.34 L 127.62,-0.38 L 127.56,-0.49 L 127.54,-0.61 L 127.54,-0.68 L 127.57,-0.74 L 127.60,-0.80 L 127.61,-0.85 L 127.52,-0.92 L 127.43,-1.14 L 127.42,-1.25 L 127.54,-1.47 L 127.53,-1.57 L 127.56,-1.63 L 127.57,-1.70 L 127.63,-1.84 L 127.73,-1.97 L 127.90,-2.14 L 127.96,-2.17 L 128.04,-2.20 L 128.04,-2.16 L 128.03,-2.12 L 127.91,-1.95 L 127.89,-1.91 L 127.89,-1.83 L 127.95,-1.79 L 128.01,-1.70 L 128.02,-1.58 L 128.03,-1.46 L 128.01,-1.33 L 127.99,-1.29 L 127.89,-1.16 L 127.65,-1.01 L 127.63,-0.98 L 127.63,-0.94 L 127.68,-0.89 L 127.73,-0.85 Z M 129.75,2.87 L 129.98,2.98 L 130.10,2.99 L 130.30,2.98 L 130.38,2.99 L 130.57,3.13 L 130.63,3.23 L 130.64,3.31 L 130.67,3.39 L 130.72,3.41 L 130.77,3.42 L 130.85,3.53 L 130.86,3.57 L 130.81,3.86 L 130.58,3.75 L 130.36,3.63 L 130.27,3.58 L 130.02,3.47 L 129.98,3.44 L 129.95,3.39 L 129.84,3.33 L 129.63,3.32 L 129.55,3.32 L 129.51,3.33 L 129.52,3.36 L 129.52,3.43 L 129.47,3.45 L 129.33,3.41 L 129.21,3.39 L 129.11,3.35 L 128.97,3.33 L 128.95,3.30 L 128.96,3.27 L 128.96,3.24 L 128.93,3.23 L 128.86,3.23 L 128.80,3.27 L 128.75,3.30 L 128.68,3.40 L 128.64,3.43 L 128.52,3.45 L 128.47,3.44 L 128.42,3.42 L 128.28,3.24 L 128.23,3.20 L 128.18,3.17 L 128.13,3.16 L 128.08,3.18 L 128.06,3.24 L 128.04,3.30 L 128.03,3.34 L 127.97,3.44 L 127.92,3.51 L 127.90,3.50 L 127.93,3.40 L 127.93,3.34 L 127.90,3.28 L 127.88,3.22 L 128.11,2.93 L 128.20,2.87 L 128.57,2.84 L 128.79,2.86 L 128.91,2.85 L 128.99,2.83 L 129.06,2.84 L 129.07,2.90 L 129.12,2.94 L 129.17,2.93 L 129.28,2.89 L 129.37,2.82 L 129.43,2.79 L 129.48,2.79 L 129.54,2.79 L 129.60,2.81 L 129.75,2.87 Z M 126.86,3.09 L 127.03,3.17 L 127.06,3.22 L 127.09,3.28 L 127.12,3.31 L 127.16,3.34 L 127.23,3.39 L 127.24,3.47 L 127.23,3.63 L 127.16,3.65 L 127.09,3.67 L 126.94,3.76 L 126.87,3.78 L 126.79,3.79 L 126.74,3.81 L 126.69,3.82 L 126.55,3.77 L 126.41,3.71 L 126.21,3.61 L 126.18,3.58 L 126.15,3.52 L 126.06,3.42 L 126.03,3.36 L 126.03,3.17 L 126.05,3.13 L 126.09,3.11 L 126.22,3.15 L 126.31,3.10 L 126.56,3.07 L 126.81,3.07 L 126.86,3.09 Z M 124.92,8.94 L 124.92,9.03 L 124.94,9.05 L 124.97,9.06 L 125.10,9.00 L 125.12,9.02 L 125.15,9.04 L 125.15,9.12 L 125.10,9.19 L 124.98,9.19 L 124.96,9.21 L 124.96,9.25 L 124.97,9.29 L 125.00,9.33 L 125.03,9.38 L 125.07,9.51 L 125.00,9.57 L 124.96,9.67 L 124.84,9.76 L 124.71,9.91 L 124.60,9.99 L 124.51,10.09 L 124.43,10.15 L 124.33,10.17 L 124.18,10.18 L 123.97,10.29 L 123.86,10.34 L 123.75,10.35 L 123.64,10.31 L 123.60,10.27 L 123.61,10.22 L 123.65,10.17 L 123.69,10.13 L 123.72,10.08 L 123.60,10.02 L 123.59,9.97 L 123.64,9.84 L 123.67,9.71 L 123.71,9.61 L 123.88,9.45 L 123.98,9.37 L 124.04,9.34 L 124.05,9.38 L 124.09,9.42 L 124.12,9.42 L 124.13,9.41 L 124.28,9.43 L 124.32,9.41 L 124.38,9.35 L 124.41,9.31 L 124.44,9.24 L 124.44,9.19 L 124.58,9.16 L 124.65,9.12 L 124.71,9.06 L 124.89,8.97 L 124.92,8.94 Z M 134.75,5.71 L 134.74,5.75 L 134.74,5.82 L 134.75,5.88 L 134.71,5.95 L 134.75,6.05 L 134.76,6.10 L 134.76,6.17 L 134.74,6.20 L 134.71,6.30 L 134.68,6.33 L 134.66,6.34 L 134.64,6.37 L 134.44,6.33 L 134.36,6.27 L 134.28,6.20 L 134.26,6.17 L 134.18,6.09 L 134.15,6.06 L 134.15,6.02 L 134.23,6.01 L 134.30,6.01 L 134.30,5.97 L 134.34,5.83 L 134.23,5.74 L 134.21,5.71 L 134.25,5.68 L 134.34,5.71 L 134.46,5.56 L 134.49,5.53 L 134.51,5.44 L 134.57,5.43 L 134.62,5.44 L 134.65,5.49 L 134.66,5.54 L 134.65,5.58 L 134.70,5.60 L 134.75,5.71 Z M 134.54,6.44 L 134.52,6.51 L 134.50,6.59 L 134.41,6.68 L 134.36,6.81 L 134.32,6.85 L 134.20,6.91 L 134.09,6.83 L 134.06,6.77 L 134.11,6.47 L 134.15,6.48 L 134.18,6.48 L 134.19,6.46 L 134.12,6.43 L 134.11,6.26 L 134.11,6.19 L 134.17,6.18 L 134.23,6.23 L 134.32,6.32 L 134.42,6.39 L 134.54,6.44 Z M 138.54,8.27 L 138.30,8.41 L 137.98,8.38 L 137.87,8.38 L 137.69,8.41 L 137.65,8.39 L 137.69,8.26 L 137.83,7.93 L 138.01,7.64 L 138.08,7.57 L 138.19,7.50 L 138.30,7.44 L 138.54,7.38 L 138.77,7.39 L 138.80,7.41 L 138.90,7.51 L 138.96,7.59 L 138.99,7.70 L 138.89,7.88 L 138.79,8.06 L 138.61,8.20 L 138.54,8.27 Z M 140.97,2.61 L 140.97,2.61 L 140.97,2.68 L 140.97,2.80 L 140.97,3.01 L 140.97,3.21 L 140.97,3.41 L 140.97,3.62 L 140.97,3.82 L 140.97,4.02 L 140.97,4.23 L 140.97,4.43 L 140.97,4.63 L 140.97,4.84 L 140.97,5.04 L 140.97,5.24 L 140.97,5.45 L 140.97,5.65 L 140.97,5.85 L 140.97,6.06 L 140.98,6.26 L 140.98,6.35 L 140.94,6.45 L 140.87,6.61 L 140.86,6.74 L 140.92,6.84 L 140.98,6.91 L 140.98,7.07 L 140.98,7.28 L 140.98,7.48 L 140.98,7.68 L 140.98,7.89 L 140.98,8.09 L 140.98,8.29 L 140.98,8.50 L 140.98,8.70 L 140.98,8.90 L 140.98,9.11 L 140.98,9.12 L 140.92,9.09 L 140.79,8.97 L 140.66,8.85 L 140.58,8.73 L 140.49,8.62 L 140.10,8.30 L 140.00,8.20 L 139.98,8.17 L 139.99,8.14 L 140.04,8.08 L 140.12,7.92 L 140.03,8.02 L 139.93,8.10 L 139.79,8.11 L 139.65,8.13 L 139.52,8.17 L 139.39,8.19 L 139.32,8.17 L 139.28,8.11 L 139.26,8.05 L 139.25,7.98 L 139.19,8.09 L 139.08,8.14 L 138.93,8.26 L 138.89,8.24 L 138.86,8.19 L 138.86,8.15 L 138.89,8.09 L 138.91,8.04 L 138.94,7.91 L 139.00,7.84 L 139.05,7.69 L 139.07,7.64 L 139.09,7.59 L 139.05,7.53 L 138.98,7.51 L 138.94,7.47 L 138.89,7.37 L 138.85,7.34 L 138.79,7.30 L 138.75,7.25 L 138.80,7.22 L 138.86,7.20 L 138.92,7.20 L 139.02,7.23 L 139.06,7.23 L 139.18,7.19 L 139.11,7.20 L 139.05,7.20 L 138.85,7.14 L 138.72,7.07 L 138.60,6.94 L 138.60,6.91 L 138.68,6.89 L 138.86,6.86 L 138.81,6.79 L 138.73,6.73 L 138.70,6.63 L 138.64,6.56 L 138.52,6.45 L 138.44,6.34 L 138.37,6.12 L 138.30,5.95 L 138.31,5.89 L 138.37,5.84 L 138.28,5.84 L 138.20,5.81 L 138.24,5.72 L 138.34,5.68 L 138.25,5.69 L 138.17,5.71 L 138.13,5.72 L 138.09,5.71 L 138.07,5.68 L 138.06,5.63 L 138.08,5.55 L 138.06,5.47 L 137.98,5.43 L 137.92,5.37 L 137.89,5.35 L 137.84,5.35 L 137.80,5.31 L 137.76,5.26 L 137.31,5.01 L 137.28,4.95 L 137.24,4.98 L 137.20,4.99 L 137.14,4.95 L 137.09,4.92 L 137.03,4.93 L 136.97,4.91 L 136.92,4.90 L 136.86,4.89 L 136.62,4.82 L 136.39,4.70 L 136.21,4.65 L 136.10,4.58 L 135.98,4.53 L 135.72,4.48 L 135.45,4.44 L 135.35,4.44 L 135.27,4.45 L 135.20,4.45 L 134.75,4.20 L 134.68,4.08 L 134.69,4.01 L 134.71,3.95 L 134.89,3.94 L 134.76,3.92 L 134.71,3.93 L 134.60,3.98 L 134.55,3.98 L 134.47,3.95 L 134.39,3.91 L 134.27,3.95 L 134.20,3.89 L 134.18,3.83 L 134.15,3.80 L 134.10,3.80 L 134.04,3.82 L 133.97,3.82 L 133.93,3.78 L 133.90,3.72 L 133.86,3.68 L 133.81,3.65 L 133.72,3.58 L 133.68,3.48 L 133.68,3.31 L 133.70,3.25 L 133.78,3.15 L 133.84,3.05 L 133.77,3.04 L 133.70,3.09 L 133.67,3.13 L 133.66,3.19 L 133.65,3.36 L 133.60,3.42 L 133.52,3.41 L 133.54,3.52 L 133.51,3.62 L 133.42,3.73 L 133.41,3.79 L 133.42,3.84 L 133.40,3.90 L 133.25,4.06 L 133.20,4.07 L 133.09,4.07 L 132.97,4.09 L 132.91,4.06 L 132.87,4.01 L 132.84,3.95 L 132.79,3.83 L 132.75,3.70 L 132.87,3.55 L 132.83,3.41 L 132.75,3.29 L 132.55,3.13 L 132.35,2.98 L 132.25,2.94 L 132.10,2.93 L 132.05,2.91 L 132.01,2.86 L 131.97,2.79 L 132.07,2.76 L 132.23,2.68 L 132.32,2.68 L 132.58,2.73 L 132.65,2.77 L 132.73,2.79 L 132.90,2.66 L 133.03,2.49 L 133.12,2.45 L 133.19,2.44 L 133.26,2.45 L 133.41,2.51 L 133.53,2.54 L 133.61,2.55 L 133.65,2.60 L 133.70,2.62 L 133.71,2.54 L 133.75,2.45 L 133.83,2.42 L 133.88,2.42 L 133.90,2.39 L 133.90,2.30 L 133.79,2.29 L 133.85,2.22 L 133.90,2.18 L 133.92,2.15 L 133.92,2.10 L 133.71,2.19 L 133.49,2.23 L 133.36,2.22 L 133.22,2.21 L 132.96,2.27 L 132.86,2.27 L 132.63,2.25 L 132.50,2.22 L 132.40,2.24 L 132.31,2.24 L 132.21,2.18 L 132.12,2.09 L 132.08,2.03 L 132.02,1.99 L 132.00,1.93 L 131.94,1.71 L 131.93,1.56 L 131.83,1.56 L 131.73,1.54 L 131.29,1.39 L 131.24,1.43 L 131.18,1.45 L 131.12,1.46 L 131.06,1.45 L 131.00,1.42 L 131.00,1.38 L 131.05,1.28 L 131.09,1.25 L 131.15,1.22 L 131.19,1.17 L 131.25,1.01 L 131.26,0.95 L 131.25,0.90 L 131.26,0.86 L 131.30,0.83 L 131.46,0.78 L 131.80,0.70 L 131.89,0.66 L 131.96,0.58 L 132.05,0.54 L 132.08,0.49 L 132.13,0.45 L 132.39,0.36 L 132.51,0.35 L 132.63,0.36 L 132.86,0.42 L 133.08,0.51 L 133.27,0.64 L 133.47,0.73 L 133.72,0.74 L 133.85,0.73 L 133.97,0.74 L 134.02,0.77 L 134.11,0.85 L 134.09,0.90 L 134.07,1.00 L 134.12,1.10 L 134.19,1.20 L 134.25,1.31 L 134.26,1.36 L 134.24,1.47 L 134.22,1.53 L 134.15,1.62 L 134.11,1.72 L 134.13,1.84 L 134.15,1.97 L 134.14,2.08 L 134.16,2.20 L 134.19,2.31 L 134.36,2.62 L 134.46,2.83 L 134.49,2.71 L 134.48,2.58 L 134.52,2.54 L 134.57,2.51 L 134.63,2.54 L 134.64,2.59 L 134.65,2.71 L 134.70,2.93 L 134.77,2.94 L 134.84,2.91 L 134.86,2.98 L 134.85,3.11 L 134.89,3.21 L 134.92,3.25 L 135.04,3.33 L 135.09,3.35 L 135.25,3.37 L 135.37,3.37 L 135.49,3.35 L 135.56,3.27 L 135.63,3.19 L 135.86,3.00 L 135.93,2.90 L 135.99,2.76 L 136.01,2.73 L 136.24,2.58 L 136.27,2.53 L 136.30,2.43 L 136.35,2.33 L 136.39,2.27 L 136.61,2.22 L 136.84,2.20 L 137.07,2.11 L 137.17,2.03 L 137.18,1.97 L 137.13,1.88 L 137.12,1.84 L 137.18,1.80 L 137.38,1.69 L 137.62,1.57 L 137.81,1.48 L 137.91,1.48 L 138.01,1.56 L 138.11,1.62 L 138.65,1.79 L 138.74,1.85 L 138.81,1.92 L 138.92,1.97 L 139.04,1.99 L 139.15,2.04 L 139.25,2.10 L 139.48,2.21 L 139.79,2.35 L 139.87,2.36 L 140.15,2.35 L 140.20,2.38 L 140.25,2.41 L 140.29,2.42 L 140.62,2.45 L 140.67,2.47 L 140.72,2.51 L 140.75,2.61 L 140.97,2.61 Z M 138.90,8.39 L 138.85,8.40 L 138.59,8.37 L 138.57,8.33 L 138.56,8.31 L 138.62,8.27 L 138.68,8.20 L 138.76,8.17 L 138.80,8.17 L 138.90,8.34 L 138.90,8.39 Z M 101.71,-2.08 L 101.76,-2.00 L 101.77,-1.94 L 101.73,-1.88 L 101.72,-1.79 L 101.60,-1.72 L 101.50,-1.73 L 101.47,-1.76 L 101.40,-1.90 L 101.41,-2.02 L 101.45,-2.07 L 101.54,-2.06 L 101.64,-2.13 L 101.71,-2.08 Z M 102.43,-0.99 L 102.38,-0.96 L 102.33,-1.01 L 102.28,-1.08 L 102.26,-1.15 L 102.23,-1.26 L 102.23,-1.35 L 102.26,-1.40 L 102.28,-1.40 L 102.36,-1.35 L 102.41,-1.26 L 102.44,-1.23 L 102.45,-1.16 L 102.43,-1.07 L 102.43,-0.99 Z M 102.49,-1.46 L 102.50,-1.33 L 102.43,-1.36 L 102.37,-1.42 L 102.27,-1.45 L 102.16,-1.47 L 102.08,-1.50 L 102.02,-1.56 L 102.02,-1.59 L 102.02,-1.61 L 102.04,-1.63 L 102.47,-1.51 L 102.49,-1.46 Z M 103.03,-0.75 L 103.01,-0.71 L 102.97,-0.74 L 102.78,-0.78 L 102.71,-0.78 L 102.54,-0.83 L 102.49,-0.86 L 102.45,-0.89 L 102.47,-0.95 L 102.49,-0.99 L 102.51,-1.09 L 102.55,-1.13 L 102.63,-1.05 L 102.73,-0.99 L 102.78,-0.96 L 102.94,-0.89 L 103.00,-0.86 L 103.03,-0.75 Z M 103.17,-0.87 L 103.14,-0.84 L 103.09,-0.85 L 103.03,-0.88 L 102.96,-0.94 L 102.89,-1.00 L 102.79,-1.03 L 102.73,-1.04 L 102.70,-1.05 L 102.73,-1.16 L 102.79,-1.17 L 103.00,-1.07 L 103.07,-1.01 L 103.17,-0.87 Z M 103.28,-0.54 L 103.17,-0.54 L 103.14,-0.55 L 103.15,-0.64 L 103.19,-0.70 L 103.24,-0.70 L 103.30,-0.61 L 103.28,-0.54 Z M 103.45,-0.66 L 103.43,-0.65 L 103.34,-0.78 L 103.37,-0.85 L 103.39,-0.87 L 103.43,-0.82 L 103.47,-0.78 L 103.50,-0.72 L 103.45,-0.66 Z M 104.02,-1.18 L 104.09,-1.14 L 104.14,-1.17 L 104.14,-1.13 L 104.13,-1.09 L 104.07,-0.99 L 103.96,-1.01 L 103.94,-1.05 L 103.93,-1.07 L 103.95,-1.09 L 103.96,-1.14 L 104.00,-1.14 L 104.02,-1.18 Z M 104.59,-1.22 L 104.59,-1.14 L 104.65,-1.10 L 104.66,-1.05 L 104.65,-0.96 L 104.60,-0.86 L 104.58,-0.83 L 104.50,-0.85 L 104.48,-0.89 L 104.47,-0.91 L 104.48,-0.93 L 104.43,-0.96 L 104.46,-1.00 L 104.44,-1.05 L 104.29,-1.02 L 104.25,-1.01 L 104.24,-1.08 L 104.25,-1.10 L 104.36,-1.18 L 104.43,-1.20 L 104.50,-1.18 L 104.59,-1.22 Z M 104.78,0.18 L 104.81,0.19 L 104.84,0.14 L 104.91,0.21 L 104.95,0.25 L 105.01,0.28 L 104.95,0.28 L 104.93,0.32 L 104.91,0.32 L 104.70,0.21 L 104.57,0.25 L 104.47,0.21 L 104.45,0.19 L 104.50,0.13 L 104.54,-0.02 L 104.64,0.02 L 104.66,0.06 L 104.65,0.08 L 104.71,0.10 L 104.78,0.18 Z M 104.47,0.33 L 104.57,0.43 L 104.59,0.47 L 104.54,0.52 L 104.51,0.60 L 104.49,0.61 L 104.41,0.58 L 104.36,0.66 L 104.33,0.54 L 104.26,0.46 L 104.30,0.39 L 104.32,0.38 L 104.34,0.38 L 104.36,0.40 L 104.47,0.33 Z M 103.74,0.35 L 103.61,0.38 L 103.46,0.36 L 103.48,0.30 L 103.55,0.23 L 103.61,0.23 L 103.72,0.28 L 103.76,0.32 L 103.74,0.35 Z M 109.71,1.18 L 109.51,1.28 L 109.46,1.28 L 109.43,1.24 L 109.45,1.04 L 109.48,0.99 L 109.61,0.98 L 109.70,1.01 L 109.74,1.04 L 109.76,1.11 L 109.75,1.15 L 109.71,1.18 Z M 113.84,7.11 L 113.83,7.12 L 113.66,7.11 L 113.55,7.19 L 113.47,7.22 L 113.20,7.22 L 113.17,7.21 L 113.14,7.21 L 113.13,7.22 L 113.04,7.21 L 112.76,7.14 L 112.73,7.07 L 112.77,7.00 L 112.87,6.90 L 113.07,6.88 L 113.97,6.87 L 114.07,6.96 L 114.08,6.99 L 113.89,7.05 L 113.84,7.11 Z M 134.97,1.12 L 134.92,1.13 L 134.86,1.11 L 134.81,1.04 L 134.83,0.98 L 134.89,0.94 L 134.94,0.98 L 134.96,1.03 L 135.00,1.03 L 134.97,1.12 Z M 127.25,0.50 L 127.19,0.52 L 127.12,0.52 L 127.10,0.41 L 127.13,0.28 L 127.19,0.26 L 127.29,0.28 L 127.25,0.32 L 127.28,0.39 L 127.25,0.50 Z M 127.57,0.32 L 127.68,0.47 L 127.60,0.61 L 127.66,0.69 L 127.80,0.69 L 127.84,0.72 L 127.86,0.76 L 127.88,0.81 L 127.84,0.85 L 127.76,0.88 L 127.67,0.83 L 127.64,0.78 L 127.62,0.77 L 127.50,0.80 L 127.46,0.81 L 127.44,0.74 L 127.47,0.64 L 127.38,0.60 L 127.30,0.50 L 127.30,0.46 L 127.33,0.39 L 127.33,0.34 L 127.37,0.33 L 127.46,0.41 L 127.49,0.34 L 127.53,0.31 L 127.57,0.32 Z M 132.93,5.90 L 132.85,5.99 L 132.92,5.79 L 132.94,5.68 L 133.01,5.62 L 133.11,5.31 L 133.14,5.32 L 133.17,5.35 L 133.12,5.58 L 132.97,5.74 L 132.93,5.90 Z M 132.81,5.85 L 132.75,5.95 L 132.70,5.91 L 132.68,5.91 L 132.67,5.86 L 132.68,5.74 L 132.63,5.61 L 132.70,5.61 L 132.72,5.65 L 132.74,5.66 L 132.80,5.79 L 132.81,5.85 Z M 128.28,3.67 L 128.25,3.71 L 128.19,3.74 L 128.14,3.73 L 128.16,3.70 L 128.15,3.68 L 128.11,3.69 L 128.05,3.71 L 127.98,3.77 L 127.93,3.74 L 127.93,3.70 L 127.93,3.68 L 128.02,3.60 L 128.12,3.59 L 128.26,3.51 L 128.33,3.52 L 128.31,3.56 L 128.29,3.60 L 128.28,3.63 L 128.28,3.67 Z M 126.82,-4.03 L 126.78,-4.01 L 126.71,-4.02 L 126.70,-4.07 L 126.77,-4.16 L 126.81,-4.26 L 126.77,-4.28 L 126.72,-4.34 L 126.72,-4.42 L 126.76,-4.55 L 126.81,-4.54 L 126.87,-4.48 L 126.89,-4.37 L 126.92,-4.29 L 126.85,-4.18 L 126.82,-4.03 Z M 125.66,-3.44 L 125.63,-3.41 L 125.51,-3.46 L 125.52,-3.55 L 125.50,-3.59 L 125.47,-3.64 L 125.46,-3.68 L 125.47,-3.73 L 125.54,-3.67 L 125.59,-3.57 L 125.64,-3.48 L 125.66,-3.44 Z M 130.86,8.32 L 130.78,8.35 L 130.83,8.27 L 131.02,8.09 L 131.09,8.12 L 131.18,8.13 L 131.04,8.21 L 130.91,8.25 L 130.86,8.32 Z M 129.84,7.95 L 129.78,8.05 L 129.71,8.04 L 129.59,7.92 L 129.60,7.83 L 129.61,7.80 L 129.66,7.79 L 129.81,7.82 L 129.84,7.89 L 129.84,7.95 Z M 127.82,8.10 L 128.00,8.14 L 128.10,8.13 L 128.12,8.17 L 128.02,8.26 L 127.82,8.19 L 127.79,8.12 L 127.82,8.10 Z M 130.35,1.69 L 130.37,1.75 L 130.43,1.80 L 130.40,1.89 L 130.38,1.90 L 130.39,1.94 L 130.42,1.97 L 130.37,1.99 L 130.34,1.98 L 130.28,2.01 L 130.25,2.05 L 130.13,2.06 L 130.09,2.03 L 129.89,1.99 L 129.75,1.89 L 129.74,1.87 L 129.99,1.76 L 130.11,1.73 L 130.20,1.73 L 130.32,1.69 L 130.35,1.69 Z M 102.37,5.48 L 102.29,5.48 L 102.14,5.36 L 102.11,5.32 L 102.15,5.29 L 102.20,5.29 L 102.37,5.37 L 102.41,5.40 L 102.37,5.48 Z M 100.43,3.18 L 100.47,3.33 L 100.35,3.23 L 100.35,3.16 L 100.33,3.11 L 100.26,3.06 L 100.20,2.99 L 100.18,2.82 L 100.20,2.79 L 100.25,2.78 L 100.45,3.00 L 100.47,3.04 L 100.46,3.12 L 100.43,3.14 L 100.43,3.18 Z M 100.20,2.74 L 100.13,2.82 L 100.01,2.82 L 99.99,2.77 L 100.00,2.65 L 99.97,2.61 L 99.97,2.59 L 99.99,2.53 L 100.01,2.51 L 100.20,2.68 L 100.20,2.74 Z M 99.84,2.34 L 99.85,2.37 L 99.69,2.28 L 99.61,2.26 L 99.54,2.16 L 99.56,2.12 L 99.56,2.05 L 99.57,2.03 L 99.62,2.02 L 99.69,2.06 L 99.73,2.18 L 99.82,2.28 L 99.84,2.34 Z M 98.46,0.53 L 98.40,0.58 L 98.31,0.53 L 98.34,0.47 L 98.35,0.38 L 98.41,0.31 L 98.43,0.23 L 98.32,0.00 L 98.37,-0.01 L 98.42,0.02 L 98.48,0.17 L 98.54,0.26 L 98.52,0.38 L 98.46,0.53 Z M 96.46,-2.36 L 96.40,-2.35 L 96.34,-2.37 L 96.29,-2.43 L 96.02,-2.60 L 95.94,-2.60 L 95.88,-2.64 L 95.81,-2.66 L 95.73,-2.77 L 95.72,-2.83 L 95.77,-2.85 L 95.81,-2.92 L 95.90,-2.89 L 96.00,-2.78 L 96.10,-2.74 L 96.13,-2.72 L 96.18,-2.66 L 96.42,-2.52 L 96.44,-2.47 L 96.46,-2.42 L 96.46,-2.36 Z M 122.04,5.44 L 121.98,5.46 L 121.86,5.35 L 121.81,5.26 L 121.82,5.20 L 121.86,5.16 L 121.87,5.14 L 121.87,5.10 L 121.91,5.07 L 121.97,5.08 L 122.00,5.14 L 122.04,5.16 L 122.06,5.22 L 122.04,5.44 Z M 123.21,1.17 L 123.23,1.23 L 123.20,1.29 L 123.24,1.39 L 123.34,1.25 L 123.43,1.24 L 123.49,1.26 L 123.53,1.29 L 123.55,1.34 L 123.51,1.45 L 123.45,1.50 L 123.37,1.51 L 123.33,1.44 L 123.27,1.44 L 123.24,1.58 L 123.22,1.60 L 123.17,1.62 L 123.13,1.58 L 123.12,1.56 L 123.18,1.49 L 123.15,1.30 L 123.11,1.34 L 122.98,1.51 L 122.89,1.59 L 122.86,1.55 L 122.81,1.43 L 122.83,1.28 L 122.91,1.18 L 122.97,1.19 L 123.16,1.16 L 123.21,1.17 Z M 121.86,0.41 L 121.91,0.45 L 121.88,0.50 L 121.85,0.49 L 121.76,0.49 L 121.72,0.49 L 121.68,0.53 L 121.66,0.53 L 121.67,0.48 L 121.75,0.41 L 121.80,0.42 L 121.86,0.41 Z M 120.53,6.30 L 120.49,6.46 L 120.47,6.41 L 120.46,6.25 L 120.44,6.18 L 120.45,6.09 L 120.45,5.88 L 120.48,5.78 L 120.53,5.90 L 120.55,5.97 L 120.53,6.30 Z M 115.38,6.97 L 115.30,6.99 L 115.22,6.95 L 115.22,6.91 L 115.24,6.86 L 115.35,6.84 L 115.41,6.84 L 115.48,6.87 L 115.52,6.90 L 115.55,6.94 L 115.42,6.94 L 115.38,6.97 Z M 116.30,3.87 L 116.09,4.05 L 116.06,4.01 L 116.08,3.82 L 116.02,3.70 L 116.02,3.61 L 116.06,3.46 L 116.12,3.34 L 116.24,3.26 L 116.27,3.25 L 116.26,3.39 L 116.29,3.45 L 116.30,3.50 L 116.28,3.53 L 116.31,3.72 L 116.32,3.76 L 116.29,3.82 L 116.30,3.87 Z M 122.95,10.91 L 122.86,10.91 L 122.83,10.90 L 122.82,10.81 L 122.85,10.76 L 123.06,10.70 L 123.15,10.64 L 123.27,10.52 L 123.34,10.49 L 123.36,10.47 L 123.37,10.47 L 123.38,10.57 L 123.41,10.62 L 123.42,10.65 L 123.31,10.70 L 123.21,10.81 L 123.01,10.88 L 122.95,10.91 Z M 124.29,8.33 L 124.23,8.39 L 124.18,8.50 L 124.15,8.53 L 124.07,8.55 L 124.02,8.44 L 123.93,8.45 L 123.97,8.35 L 124.01,8.32 L 124.07,8.32 L 124.10,8.36 L 124.11,8.36 L 124.24,8.20 L 124.27,8.20 L 124.29,8.21 L 124.30,8.23 L 124.29,8.33 Z M 123.92,8.27 L 123.78,8.30 L 123.70,8.42 L 123.63,8.42 L 123.59,8.48 L 123.58,8.50 L 123.59,8.52 L 123.58,8.54 L 123.55,8.57 L 123.49,8.53 L 123.43,8.58 L 123.41,8.59 L 123.33,8.54 L 123.25,8.54 L 123.23,8.53 L 123.32,8.44 L 123.45,8.35 L 123.48,8.32 L 123.43,8.31 L 123.39,8.30 L 123.39,8.28 L 123.47,8.27 L 123.53,8.27 L 123.57,8.29 L 123.60,8.29 L 123.78,8.19 L 123.85,8.21 L 123.90,8.24 L 123.92,8.27 Z M 123.32,8.35 L 123.30,8.40 L 123.03,8.40 L 123.03,8.34 L 123.11,8.27 L 123.13,8.25 L 123.22,8.24 L 123.34,8.27 L 123.32,8.35 Z M 134.72,6.55 L 134.66,6.56 L 134.63,6.48 L 134.68,6.46 L 134.73,6.51 L 134.72,6.55 Z M 103.42,-1.05 L 103.43,-0.99 L 103.36,-1.01 L 103.32,-1.07 L 103.35,-1.12 L 103.38,-1.13 L 103.40,-1.07 L 103.42,-1.05 Z M 103.83,-0.80 L 103.83,-0.77 L 103.74,-0.83 L 103.74,-0.87 L 103.75,-0.89 L 103.81,-0.85 L 103.83,-0.80 Z M 104.24,-0.83 L 104.18,-0.80 L 104.10,-0.90 L 104.10,-0.92 L 104.11,-0.93 L 104.12,-0.94 L 104.17,-0.90 L 104.23,-0.88 L 104.24,-0.83 Z M 104.69,-0.06 L 104.70,-0.03 L 104.65,-0.06 L 104.62,-0.08 L 104.60,-0.10 L 104.50,-0.23 L 104.54,-0.22 L 104.66,-0.10 L 104.69,-0.06 Z M 106.29,-3.16 L 106.28,-3.09 L 106.21,-3.13 L 106.20,-3.20 L 106.22,-3.23 L 106.27,-3.22 L 106.29,-3.16 Z M 105.76,-2.86 L 105.72,-2.86 L 105.71,-2.89 L 105.71,-2.94 L 105.70,-2.98 L 105.69,-3.01 L 105.69,-3.06 L 105.73,-3.04 L 105.76,-3.01 L 105.79,-3.00 L 105.82,-2.98 L 105.84,-2.98 L 105.81,-2.90 L 105.76,-2.86 Z M 108.89,-2.91 L 108.84,-2.85 L 108.79,-2.89 L 108.87,-2.99 L 108.89,-3.00 L 108.89,-2.91 Z M 108.95,1.62 L 108.84,1.66 L 108.80,1.57 L 108.88,1.54 L 108.96,1.56 L 108.95,1.62 Z M 107.47,2.90 L 107.43,2.93 L 107.41,2.90 L 107.40,2.87 L 107.42,2.84 L 107.47,2.83 L 107.50,2.85 L 107.47,2.90 Z M 106.89,3.01 L 106.87,3.03 L 106.81,3.01 L 106.77,2.99 L 106.75,2.96 L 106.74,2.93 L 106.80,2.90 L 106.91,2.93 L 106.89,3.01 Z M 114.41,7.13 L 114.40,7.17 L 114.35,7.16 L 114.30,7.10 L 114.32,7.08 L 114.35,7.07 L 114.38,7.08 L 114.41,7.13 Z M 112.72,5.81 L 112.70,5.85 L 112.60,5.84 L 112.59,5.80 L 112.65,5.73 L 112.69,5.73 L 112.73,5.75 L 112.72,5.81 Z M 105.25,6.64 L 105.19,6.66 L 105.14,6.64 L 105.12,6.61 L 105.19,6.55 L 105.23,6.53 L 105.26,6.52 L 105.28,6.56 L 105.25,6.64 Z M 97.33,-2.08 L 97.33,-2.05 L 97.23,-2.16 L 97.11,-2.22 L 97.16,-2.23 L 97.25,-2.22 L 97.29,-2.20 L 97.33,-2.15 L 97.33,-2.08 Z M 95.36,-5.81 L 95.34,-5.78 L 95.28,-5.80 L 95.22,-5.89 L 95.24,-5.91 L 95.28,-5.90 L 95.36,-5.88 L 95.37,-5.84 L 95.36,-5.81 Z M 123.60,1.70 L 123.53,1.71 L 123.48,1.68 L 123.49,1.53 L 123.53,1.50 L 123.55,1.51 L 123.56,1.55 L 123.58,1.59 L 123.62,1.63 L 123.60,1.70 Z M 123.24,4.11 L 123.14,4.23 L 123.08,4.23 L 122.99,4.15 L 122.97,4.06 L 122.97,4.03 L 123.02,3.98 L 123.21,4.00 L 123.25,4.04 L 123.24,4.11 Z M 123.85,1.96 L 123.87,2.00 L 123.80,1.99 L 123.78,1.92 L 123.78,1.88 L 123.85,1.96 Z M 123.15,1.82 L 123.08,1.90 L 123.07,1.85 L 123.09,1.81 L 123.11,1.79 L 123.14,1.77 L 123.15,1.82 Z M 119.46,8.74 L 119.42,8.75 L 119.39,8.74 L 119.40,8.65 L 119.38,8.59 L 119.42,8.54 L 119.43,8.45 L 119.45,8.43 L 119.47,8.46 L 119.48,8.47 L 119.50,8.48 L 119.55,8.48 L 119.56,8.52 L 119.56,8.55 L 119.54,8.59 L 119.48,8.63 L 119.44,8.67 L 119.46,8.74 Z M 119.07,8.24 L 119.03,8.24 L 119.02,8.20 L 119.04,8.16 L 119.08,8.14 L 119.10,8.14 L 119.13,8.18 L 119.13,8.20 L 119.11,8.22 L 119.07,8.24 Z M 115.61,8.77 L 115.58,8.80 L 115.50,8.74 L 115.48,8.72 L 115.54,8.68 L 115.56,8.67 L 115.61,8.71 L 115.61,8.77 Z M 117.65,-4.17 L 117.75,-4.17 L 117.88,-4.19 L 117.92,-4.09 L 117.92,-4.05 L 117.74,-4.00 L 117.63,-4.12 L 117.65,-4.17 Z M 117.66,-3.28 L 117.65,-3.25 L 117.56,-3.33 L 117.54,-3.39 L 117.55,-3.43 L 117.64,-3.44 L 117.68,-3.41 L 117.66,-3.28 Z M 124.05,5.97 L 124.04,6.02 L 124.01,5.97 L 123.97,5.94 L 123.98,5.88 L 124.02,5.90 L 124.05,5.97 Z M 123.63,5.27 L 123.62,5.37 L 123.58,5.37 L 123.55,5.33 L 123.54,5.30 L 123.54,5.27 L 123.56,5.25 L 123.63,5.27 Z M 120.77,7.12 L 120.67,7.12 L 120.64,7.12 L 120.63,7.02 L 120.75,7.06 L 120.78,7.06 L 120.77,7.12 Z M 117.56,8.37 L 117.53,8.37 L 117.49,8.35 L 117.51,8.31 L 117.48,8.24 L 117.49,8.18 L 117.55,8.15 L 117.67,8.15 L 117.67,8.19 L 117.56,8.37 Z M 116.42,3.46 L 116.39,3.64 L 116.33,3.54 L 116.40,3.42 L 116.43,3.40 L 116.42,3.46 Z M 127.37,-0.79 L 127.34,-0.76 L 127.31,-0.77 L 127.29,-0.81 L 127.29,-0.84 L 127.32,-0.86 L 127.35,-0.85 L 127.37,-0.79 Z M 134.37,2.12 L 134.35,2.14 L 134.34,2.10 L 134.35,2.04 L 134.37,2.03 L 134.39,2.03 L 134.42,2.05 L 134.37,2.12 Z M 133.57,4.25 L 133.62,4.30 L 133.50,4.26 L 133.33,4.17 L 133.32,4.11 L 133.46,4.20 L 133.57,4.25 Z M 130.91,0.78 L 130.88,0.83 L 130.83,0.86 L 130.40,0.92 L 130.44,0.89 L 130.46,0.85 L 130.48,0.83 L 130.53,0.84 L 130.55,0.83 L 130.57,0.82 L 130.59,0.83 L 130.64,0.81 L 130.72,0.82 L 130.81,0.81 L 130.81,0.77 L 130.91,0.78 Z M 130.63,0.53 L 130.57,0.53 L 130.47,0.49 L 130.53,0.45 L 130.56,0.44 L 130.60,0.42 L 130.62,0.42 L 130.66,0.44 L 130.68,0.47 L 130.63,0.53 Z M 129.55,0.19 L 129.51,0.19 L 129.47,0.13 L 129.37,0.07 L 129.31,-0.05 L 129.54,0.14 L 129.55,0.19 Z M 127.45,0.01 L 127.45,0.04 L 127.42,-0.01 L 127.40,-0.02 L 127.42,-0.12 L 127.43,-0.14 L 127.45,-0.07 L 127.45,0.01 Z M 127.42,-0.64 L 127.38,-0.63 L 127.37,-0.63 L 127.36,-0.68 L 127.38,-0.74 L 127.42,-0.74 L 127.44,-0.73 L 127.45,-0.68 L 127.42,-0.64 Z M 127.30,0.78 L 127.29,0.80 L 127.18,0.78 L 127.16,0.76 L 127.21,0.62 L 127.26,0.62 L 127.30,0.76 L 127.30,0.78 Z M 128.72,3.55 L 128.72,3.59 L 128.71,3.60 L 128.66,3.59 L 128.62,3.59 L 128.59,3.51 L 128.59,3.49 L 128.67,3.52 L 128.69,3.52 L 128.72,3.55 Z M 128.56,3.59 L 128.39,3.64 L 128.43,3.54 L 128.45,3.51 L 128.54,3.54 L 128.56,3.59 Z M 126.72,-3.87 L 126.72,-3.83 L 126.66,-3.93 L 126.64,-4.04 L 126.69,-4.00 L 126.74,-3.92 L 126.72,-3.87 Z M 126.85,-3.77 L 126.84,-3.76 L 126.80,-3.78 L 126.78,-3.81 L 126.78,-3.84 L 126.80,-3.86 L 126.86,-3.81 L 126.86,-3.79 L 126.85,-3.77 Z M 125.41,-2.65 L 125.40,-2.63 L 125.36,-2.75 L 125.39,-2.81 L 125.44,-2.78 L 125.45,-2.76 L 125.40,-2.71 L 125.41,-2.65 Z M 131.98,7.20 L 131.97,7.25 L 131.93,7.23 L 131.88,7.17 L 131.82,7.16 L 131.78,7.14 L 131.75,7.12 L 131.92,7.10 L 131.98,7.20 Z M 128.67,7.18 L 128.62,7.21 L 128.55,7.16 L 128.53,7.13 L 128.58,7.08 L 128.63,7.07 L 128.66,7.09 L 128.67,7.11 L 128.67,7.14 L 128.67,7.18 Z M 127.42,7.62 L 127.36,7.65 L 127.38,7.57 L 127.37,7.51 L 127.48,7.53 L 127.47,7.58 L 127.46,7.60 L 127.42,7.62 Z M 123.42,10.30 L 123.33,10.34 L 123.33,10.26 L 123.40,10.17 L 123.46,10.14 L 123.49,10.18 L 123.50,10.19 L 123.41,10.23 L 123.42,10.30 Z M 121.88,10.59 L 121.83,10.60 L 121.73,10.57 L 121.70,10.56 L 121.80,10.51 L 121.87,10.44 L 121.95,10.43 L 122.00,10.45 L 121.98,10.53 L 121.88,10.59 Z M 134.82,6.43 L 134.80,6.44 L 134.80,6.39 L 134.82,6.35 L 134.85,6.32 L 134.89,6.32 L 134.82,6.43 Z M 134.67,6.75 L 134.66,6.77 L 134.63,6.73 L 134.63,6.71 L 134.66,6.66 L 134.70,6.63 L 134.74,6.62 L 134.73,6.67 L 134.67,6.75 Z M 127.99,2.94 L 127.94,3.02 L 127.85,3.02 L 127.83,3.00 L 127.94,2.95 L 127.99,2.94 Z M 127.61,3.32 L 127.63,3.36 L 127.53,3.33 L 127.49,3.29 L 127.53,3.26 L 127.55,3.25 L 127.61,3.32 Z M 122.98,8.55 L 122.95,8.60 L 122.89,8.59 L 122.90,8.53 L 122.93,8.50 L 123.01,8.45 L 123.09,8.44 L 123.14,8.46 L 123.15,8.48 L 123.03,8.49 L 122.98,8.55 Z"/>
<path data-id="0-1" d="M109.01,7.73,109.23,7.42"/>
<path data-id="0-3" d="M109.01,7.73,108.20,7.33"/>
<path data-id="1-6" d="M109.23,7.42,110.22,7.47"/>
<path data-id="2-26" d="M106.93,6.92,106.79,6.59"/>
<path data-id="2-23" d="M106.93,6.92,107.62,6.90"/>
<path data-id="3-23" d="M108.20,7.33,107.62,6.90"/>
<path data-id="4-21" d="M109.68,6.89,109.14,6.87"/>
<path data-id="4-5" d="M109.68,6.89,110.42,6.99"/>
<path data-id="5-8" d="M110.42,6.99,110.84,6.80"/>
<path data-id="5-9" d="M110.42,6.99,110.83,7.56"/>
<path data-id="6-7" d="M110.22,7.47,110.36,7.78"/>
<path data-id="7-9" d="M110.36,7.78,110.83,7.56"/>
<path data-id="8-14" d="M110.84,6.80,112.05,6.90"/>
<path data-id="9-13" d="M110.83,7.56,111.52,7.63"/>
<path data-id="10-15" d="M123.77,9.60,114.36,8.22"/>
<path data-id="11-17" d="M112.75,7.25,113.22,7.75"/>
<path data-id="11-12" d="M112.75,7.25,112.02,7.82"/>
<path data-id="11-14" d="M112.75,7.25,112.05,6.90"/>
<path data-id="12-18" d="M112.02,7.82,112.63,7.98"/>
<path data-id="12-13" d="M112.02,7.82,111.52,7.63"/>
<path data-id="15-16" d="M114.36,8.22,113.70,8.17"/>
<path data-id="16-17" d="M113.70,8.17,113.22,7.75"/>
<path data-id="16-18" d="M113.70,8.17,112.63,7.98"/>
<path data-id="20-26" d="M105.85,6.77,106.79,6.59"/>
<path data-id="20-28" d="M105.85,6.77,105.88,6.07"/>
<path data-id="21-22" d="M109.14,6.87,108.56,6.71"/>
<path data-id="22-23" d="M108.56,6.71,107.62,6.90"/>
<path data-id="23-24" d="M107.62,6.90,107.31,6.30"/>
<path data-id="24-25" d="M107.31,6.30,106.85,6.21"/>
<path data-id="25-26" d="M106.85,6.21,106.79,6.59"/>
<path data-id="25-27" d="M106.85,6.21,106.15,6.11"/>
<path data-id="27-28" d="M106.15,6.11,105.88,6.07"/>
<circle data-id="0" cx="109.01" cy="7.73" r="0.14px"/>
<text data-id="0" x="109.01" y="7.73">Cilacap</text>
<circle data-id="1" cx="109.23" cy="7.42" r="0.14px"/>
<text data-id="1" x="109.23" y="7.42">Purwokerto</text>
<circle data-id="2" cx="106.93" cy="6.92" r="0.14px"/>
<text data-id="2" x="106.93" y="6.92">Sukabumi</text>
<circle data-id="3" cx="108.20" cy="7.33" r="0.14px"/>
<text data-id="3" x="108.20" y="7.33">Tasikmalaya</text>
<circle data-id="4" cx="109.68" cy="6.89" r="0.14px"/>
<text data-id="4" x="109.68" y="6.89">Pekalongan</text>
<circle data-id="5" cx="110.42" cy="6.99" r="0.14px"/>
<text data-id="5" x="110.42" y="6.99">Semarang</text>
<circle data-id="6" cx="110.22" cy="7.47" r="0.14px"/>
<text data-id="6" x="110.22" y="7.47">Magelang</text>
<circle data-id="7" cx="110.36" cy="7.78" r="0.14px"/>
<text data-id="7" x="110.36" y="7.78">Yogyakarta</text>
<circle data-id="8" cx="110.84" cy="6.80" r="0.14px"/>
<text data-id="8" x="110.84" y="6.80">Kudus</text>
<circle data-id="9" cx="110.83" cy="7.56" r="0.14px"/>
<text data-id="9" x="110.83" y="7.56">Surakarta</text>
<circle data-id="10" cx="123.77" cy="9.60" r="0.14px"/>
<text data-id="10" x="123.77" y="9.60">Nusa Dua</text>
<circle data-id="11" cx="112.75" cy="7.25" r="0.14px"/>
<text data-id="11" x="112.75" y="7.25">Surabaya</text>
<circle data-id="12" cx="112.02" cy="7.82" r="0.14px"/>
<text data-id="12" x="112.02" y="7.82">Kediri</text>
<circle data-id="13" cx="111.52" cy="7.63" r="0.14px"/>
<text data-id="13" x="111.52" y="7.63">Madium</text>
<circle data-id="14" cx="112.05" cy="6.90" r="0.14px"/>
<text data-id="14" x="112.05" y="6.90">Tuban</text>
<circle data-id="15" cx="114.36" cy="8.22" r="0.14px"/>
<text data-id="15" x="114.36" y="8.22">Banyunwangi</text>
<circle data-id="16" cx="113.70" cy="8.17" r="0.14px"/>
<text data-id="16" x="113.70" y="8.17">Jember</text>
<circle data-id="17" cx="113.22" cy="7.75" r="0.14px"/>
<text data-id="17" x="113.22" y="7.75">Probolinggo</text>
<circle data-id="18" cx="112.63" cy="7.98" r="0.14px"/>
<text data-id="18" x="112.63" y="7.98">Malang</text>
<circle data-id="20" cx="105.85" cy="6.77" r="0.14px"/>
<text data-id="20" x="105.85" y="6.77">Cibaliung</text>
<circle data-id="21" cx="109.14" cy="6.87" r="0.14px"/>
<text data-id="21" x="109.14" y="6.87">Tegal</text>
<circle data-id="22" cx="108.56" cy="6.71" r="0.14px"/>
<text data-id="22" x="108.56" y="6.71">Cirebon</text>
<circle data-id="23" cx="107.62" cy="6.90" r="0.14px"/>
<text data-id="23" x="107.62" y="6.90">Bandung</text>
<circle data-id="24" cx="107.31" cy="6.30" r="0.14px"/>
<text data-id="24" x="107.31" y="6.30">Karawang</text>
<circle data-id="25" cx="106.85" cy="6.21" r="0.14px"/>
<text data-id="25" x="106.85" y="6.21">Jakarta</text>
<circle data-id="26" cx="106.79" cy="6.59" r="0.14px"/>
<text data-id="26" x="106.79" y="6.59">Bogor</text>
<circle data-id="27" cx="106.15" cy="6.11" r="0.14px"/>
<text data-id="27" x="106.15" y="6.11">Serang</text>
<circle data-id="28" cx="105.88" cy="6.07" r="0.14px"/>
<text data-id="28" x="105.88" y="6.07">Anyer</text>
</svg>
