<svg width="1090.00" height="820.34" viewBox="669.76 -45.00 1090.00 820.34" xmlns="http://www.w3.org/2000/svg">
<style>path {fill: none; stroke: grey; stroke-width: 6;} circle {fill: lightblue; stroke: none;} text {fill: black; stroke: none; font-size: 16; font-family: sans-serif; text-anchor:middle;}</style>
<path d="M1048.34,429.59,1120.09,149.95"/>
<path d="M1136.53,681.93,1018.95,355.96"/>
<path d="M1136.53,681.93,1483.61,700.91"/>
<path d="M1136.53,681.93,1120.09,149.95"/>
<path d="M1018.95,355.96,997.72,337.79"/>
<path d="M1018.95,355.96,1483.61,700.91"/>
<path d="M1018.95,355.96,986.24,233.70"/>
<path d="M1018.95,355.96,787.67,240.20"/>
<path d="M1018.95,355.96,714.76,182.05"/>
<path d="M1483.61,700.91,1714.76,730.34"/>
<path d="M757.71,87.64,714.76,182.05"/>
<path d="M714.76,182.05,1120.09,149.95"/>
<path d="M1245.87,0.00,1369.54,19.17"/>
<path d="M1245.87,0.00,1120.09,149.95"/>
<path d="M1369.54,19.17,1192.44,122.85"/>
<path d="M1369.54,19.17,1120.09,149.95"/>
<path d="M1369.54,19.17,1187.05,225.32"/>
<path d="M1192.44,122.85,1120.09,149.95"/>
<path d="M1120.09,149.95,1187.05,225.32"/>
<path d="M1120.09,149.95,986.24,233.70"/>
<circle cx="1048.34" cy="429.59" r="10"/>
<text x="1048.34" y="434.59">Jakarta</text>
<circle cx="1136.53" cy="681.93" r="10"/>
<text x="1136.53" y="686.93">Perth</text>
<circle cx="1018.95" cy="355.96" r="10"/>
<text x="1018.95" y="360.96">Singapore</text>
<circle cx="997.72" cy="337.79" r="10"/>
<text x="997.72" y="342.79">Kuala Lumpur</text>
<circle cx="1483.61" cy="700.91" r="10"/>
<text x="1483.61" y="705.91">Sydney</text>
<circle cx="1714.76" cy="730.34" r="10"/>
<text x="1714.76" y="735.34">Auckland</text>
<circle cx="757.71" cy="87.64" r="10"/>
<text x="757.71" y="92.64">New Delhi</text>
<circle cx="714.76" cy="182.05" r="10"/>
<text x="714.76" y="187.05">Mumbai</text>
<circle cx="1245.87" cy="0.00" r="10"/>
<text x="1245.87" y="5.00">Seoul</text>
<circle cx="1369.54" cy="19.17" r="10"/>
<text x="1369.54" y="24.17">Tokyo</text>
<circle cx="1192.44" cy="122.85" r="10"/>
<text x="1192.44" y="127.85">Taipei</text>
<circle cx="1120.09" cy="149.95" r="10"/>
<text x="1120.09" y="154.95">Hong Kong</text>
<circle cx="1187.05" cy="225.32" r="10"/>
<text x="1187.05" y="230.32">Manila</text>
<circle cx="986.24" cy="233.70" r="10"/>
<text x="986.24" y="238.70">Bangkok</text>
<circle cx="787.67" cy="240.20" r="10"/>
<text x="787.67" y="245.20">Chenai</text>
</svg>
