<svg id="topo" width="1090.00" height="723.06" viewBox="-245.85 -45.00 1090.00 723.06" xmlns="http://www.w3.org/2000/svg">
<style>#topo path {fill: none; stroke: grey; stroke-width: 6;} #topo circle {fill: lightblue; stroke: none;} #topo text {fill: black; stroke: none; font-size: 16; font-family: sans-serif; text-anchor:middle;}</style>
<path d="M610.20,406.10,-4.03,277.57"/>
<path d="M610.20,406.10,278.29,322.18"/>
<path d="M370.98,385.61,217.17,286.76"/>
<path d="M370.98,385.61,278.29,322.18"/>
<path d="M462.16,323.10,-4.03,277.57"/>
<path d="M462.16,323.10,278.29,322.18"/>
<path d="M524.70,383.33,278.29,322.18"/>
<path d="M524.70,383.33,156.71,249.83"/>
<path d="M217.17,286.76,278.29,322.18"/>
<path d="M217.17,286.76,156.71,249.83"/>
<path d="M278.29,322.18,274.02,410.31"/>
<path d="M278.29,322.18,294.51,471.28"/>
<path d="M278.29,322.18,-4.03,277.57"/>
<path d="M278.29,322.18,156.71,249.83"/>
<path d="M274.02,410.31,-4.03,277.57"/>
<path d="M75.28,362.67,-4.03,277.57"/>
<path d="M75.28,362.67,156.71,249.83"/>
<path d="M294.51,471.28,-4.03,277.57"/>
<path d="M69.19,601.90,-118.66,633.06"/>
<path d="M69.19,601.90,156.71,249.83"/>
<path d="M-166.65,324.32,-4.03,277.57"/>
<path d="M-118.66,633.06,-4.03,277.57"/>
<path d="M799.15,0.00,578.95,26.82"/>
<path d="M402.71,144.01,578.95,26.82"/>
<path d="M-4.03,277.57,-4.03,277.57"/>
<path d="M-4.03,277.57,156.71,249.83"/>
<path d="M-4.03,277.57,578.95,26.82"/>
<path d="M-4.03,277.57,-91.34,260.75"/>
<path d="M-4.03,277.57,-200.85,218.75"/>
<path d="M-4.03,277.57,139.37,298.66"/>
<path d="M-200.85,218.75,156.71,249.83"/>
<path d="M156.71,249.83,383.52,78.92"/>
<path d="M156.71,249.83,578.95,26.82"/>
<path d="M383.52,78.92,578.95,26.82"/>
<circle cx="610.20" cy="406.10" r="10"/>
<text x="610.20" y="411.10">Budapest</text>
<circle cx="370.98" cy="385.61" r="10"/>
<text x="370.98" y="390.61">Munich</text>
<circle cx="462.16" cy="323.10" r="10"/>
<text x="462.16" y="328.10">Prague</text>
<circle cx="524.70" cy="383.33" r="10"/>
<text x="524.70" y="388.33">Vienna</text>
<circle cx="217.17" cy="286.76" r="10"/>
<text x="217.17" y="291.76">Dusseldorf</text>
<circle cx="278.29" cy="322.18" r="10"/>
<text x="278.29" y="327.18">Frankfurt</text>
<circle cx="274.02" cy="410.31" r="10"/>
<text x="274.02" y="415.31">Zurich</text>
<circle cx="75.28" cy="362.67" r="10"/>
<text x="75.28" y="367.67">Paris</text>
<circle cx="294.51" cy="471.28" r="10"/>
<text x="294.51" y="476.28">Milan</text>
<circle cx="69.19" cy="601.90" r="10"/>
<text x="69.19" y="606.90">Barcelona</text>
<circle cx="-166.65" cy="324.32" r="10"/>
<text x="-166.65" y="329.32">Goonhilly</text>
<circle cx="-118.66" cy="633.06" r="10"/>
<text x="-118.66" y="638.06">Madrid</text>
<circle cx="799.15" cy="0.00" r="10"/>
<text x="799.15" y="5.00">Helsinki</text>
<circle cx="402.71" cy="144.01" r="10"/>
<text x="402.71" y="149.01">Copenhagen</text>
<circle cx="-4.03" cy="277.57" r="10"/>
<text x="-4.03" y="282.57">London</text>
<circle cx="-91.34" cy="260.75" r="10"/>
<text x="-91.34" y="265.75">Madley</text>
<circle cx="-200.85" cy="218.75" r="10"/>
<text x="-200.85" y="223.75">Dublin</text>
<circle cx="139.37" cy="298.66" r="10"/>
<text x="139.37" y="303.66">Brussels</text>
<circle cx="156.71" cy="249.83" r="10"/>
<text x="156.71" y="254.83">Amsterdam</text>
<circle cx="383.52" cy="78.92" r="10"/>
<text x="383.52" y="83.92">Gothenburg</text>
<circle cx="578.95" cy="26.82" r="10"/>
<text x="578.95" y="31.82">Stockholm</text>
</svg>
