<svg id="topo" viewBox="13.32 -46.57 5.95 4.11" xmlns="http://www.w3.org/2000/svg">
<style>#topo path {fill: none; stroke: grey; stroke-width: 0.0216px;} #topo circle {fill: lightblue; stroke: none; stroke-width: 0.3px; vector-effect: non-scaling-stroke; r: 0.0432px;} #topo text {fill: black; stroke: none; font-size: 0.0649px; font-family: sans-serif; text-anchor:middle; transform: translateY(0.3em);} #topo path.country {fill: lightgrey; stroke: black; stroke-width: 1px; vector-effect: non-scaling-stroke; visibility: visible;} #topo path.selection {fill: none; stroke: red; stroke-width: 1px; vector-effect: non-scaling-stroke; visibility: visible;} #topo path.utilization {visibility: hidden;}</style>
<path class="country" d="M 13.58,-45.52 L 13.62,-45.48 L 13.88,-45.43 L 13.94,-45.45 L 13.97,-45.48 L 13.97,-45.50 L 13.99,-45.51 L 14.09,-45.48 L 14.16,-45.49 L 14.28,-45.49 L 14.37,-45.48 L 14.43,-45.51 L 14.51,-45.60 L 14.53,-45.65 L 14.57,-45.66 L 14.59,-45.65 L 14.61,-45.61 L 14.65,-45.57 L 14.73,-45.51 L 14.79,-45.48 L 14.85,-45.47 L 14.90,-45.49 L 14.95,-45.50 L 15.11,-45.45 L 15.24,-45.44 L 15.34,-45.47 L 15.33,-45.50 L 15.29,-45.54 L 15.28,-45.58 L 15.29,-45.61 L 15.36,-45.65 L 15.35,-45.66 L 15.27,-45.72 L 15.28,-45.73 L 15.45,-45.80 L 15.62,-45.83 L 15.65,-45.86 L 15.67,-45.90 L 15.68,-45.98 L 15.67,-46.05 L 15.60,-46.11 L 15.59,-46.14 L 15.61,-46.17 L 15.64,-46.20 L 15.70,-46.21 L 15.78,-46.23 L 15.85,-46.26 L 15.93,-46.28 L 16.00,-46.31 L 16.07,-46.37 L 16.11,-46.38 L 16.23,-46.37 L 16.25,-46.39 L 16.24,-46.48 L 16.26,-46.51 L 16.30,-46.52 L 16.32,-46.53 L 16.43,-46.52 L 16.52,-46.50 L 16.57,-46.49 L 16.75,-46.42 L 16.87,-46.34 L 16.94,-46.25 L 17.03,-46.19 L 17.15,-46.14 L 17.24,-46.08 L 17.31,-46.00 L 17.41,-45.95 L 17.53,-45.94 L 17.61,-45.91 L 17.64,-45.87 L 17.71,-45.83 L 17.81,-45.79 L 17.96,-45.77 L 18.26,-45.77 L 18.29,-45.76 L 18.36,-45.75 L 18.44,-45.77 L 18.53,-45.80 L 18.56,-45.81 L 18.67,-45.91 L 18.72,-45.90 L 18.83,-45.91 L 18.90,-45.93 L 18.91,-45.93 L 18.90,-45.91 L 18.89,-45.87 L 18.84,-45.84 L 18.89,-45.77 L 18.95,-45.66 L 18.92,-45.60 L 18.95,-45.56 L 19.06,-45.53 L 19.06,-45.51 L 19.03,-45.50 L 19.01,-45.47 L 19.00,-45.40 L 19.09,-45.34 L 19.27,-45.28 L 19.33,-45.27 L 19.35,-45.25 L 19.38,-45.23 L 19.40,-45.21 L 19.40,-45.19 L 19.39,-45.17 L 19.30,-45.17 L 19.21,-45.17 L 19.14,-45.20 L 19.13,-45.18 L 19.13,-45.15 L 19.06,-45.14 L 19.10,-44.97 L 19.09,-44.93 L 19.06,-44.91 L 19.04,-44.92 L 19.01,-44.92 L 19.00,-44.90 L 19.01,-44.87 L 18.94,-44.87 L 18.84,-44.88 L 18.79,-44.91 L 18.78,-44.95 L 18.78,-44.98 L 18.75,-45.03 L 18.66,-45.08 L 18.49,-45.09 L 18.42,-45.10 L 18.36,-45.12 L 18.28,-45.13 L 18.22,-45.13 L 18.14,-45.12 L 18.00,-45.14 L 17.95,-45.11 L 17.87,-45.08 L 17.81,-45.08 L 17.69,-45.16 L 17.65,-45.16 L 17.55,-45.12 L 17.50,-45.12 L 17.47,-45.13 L 17.32,-45.16 L 17.26,-45.17 L 17.21,-45.16 L 17.13,-45.17 L 16.92,-45.28 L 16.79,-45.20 L 16.53,-45.22 L 16.45,-45.16 L 16.37,-45.06 L 16.29,-45.01 L 16.23,-45.03 L 16.16,-45.07 L 16.03,-45.19 L 15.96,-45.21 L 15.89,-45.22 L 15.82,-45.20 L 15.79,-45.18 L 15.76,-45.01 L 15.74,-44.86 L 15.74,-44.77 L 15.88,-44.68 L 16.05,-44.54 L 16.10,-44.52 L 16.13,-44.47 L 16.17,-44.35 L 16.21,-44.22 L 16.30,-44.12 L 16.38,-44.06 L 16.47,-44.00 L 16.59,-43.91 L 16.69,-43.82 L 16.71,-43.78 L 16.90,-43.65 L 17.08,-43.52 L 17.25,-43.47 L 17.27,-43.45 L 17.28,-43.34 L 17.29,-43.31 L 17.40,-43.20 L 17.62,-43.04 L 17.65,-43.01 L 17.66,-42.98 L 17.64,-42.96 L 17.59,-42.94 L 17.54,-42.96 L 17.33,-43.11 L 17.13,-43.21 L 16.90,-43.39 L 16.60,-43.46 L 16.39,-43.54 L 16.27,-43.53 L 16.13,-43.51 L 16.05,-43.51 L 15.99,-43.52 L 15.94,-43.57 L 15.95,-43.61 L 15.94,-43.66 L 15.82,-43.74 L 15.66,-43.81 L 15.50,-43.91 L 15.19,-44.17 L 15.12,-44.26 L 15.18,-44.27 L 15.23,-44.27 L 15.28,-44.29 L 15.37,-44.29 L 15.47,-44.27 L 15.38,-44.33 L 15.27,-44.38 L 14.98,-44.60 L 14.90,-44.71 L 14.89,-44.82 L 14.91,-44.97 L 14.85,-45.08 L 14.63,-45.22 L 14.55,-45.30 L 14.39,-45.34 L 14.31,-45.34 L 14.27,-45.28 L 14.24,-45.16 L 14.09,-45.00 L 14.04,-44.93 L 13.97,-44.84 L 13.90,-44.83 L 13.86,-44.84 L 13.74,-44.99 L 13.63,-45.11 L 13.61,-45.16 L 13.60,-45.23 L 13.52,-45.48 L 13.58,-45.52 Z M 16.65,-43.00 L 16.84,-42.97 L 16.97,-42.98 L 17.09,-42.96 L 17.17,-42.93 L 17.19,-42.92 L 17.09,-42.91 L 16.98,-42.93 L 16.85,-42.90 L 16.74,-42.91 L 16.70,-42.93 L 16.67,-42.96 L 16.65,-43.00 Z M 17.19,-43.13 L 17.12,-43.12 L 16.68,-43.12 L 16.55,-43.14 L 16.41,-43.20 L 16.38,-43.21 L 16.52,-43.23 L 16.66,-43.21 L 16.70,-43.17 L 17.06,-43.14 L 17.19,-43.13 Z M 16.79,-43.27 L 16.63,-43.27 L 16.49,-43.29 L 16.42,-43.32 L 16.43,-43.34 L 16.45,-43.39 L 16.60,-43.38 L 16.83,-43.35 L 16.89,-43.31 L 16.87,-43.30 L 16.79,-43.27 Z M 15.23,-44.06 L 15.25,-44.03 L 15.12,-44.09 L 15.07,-44.14 L 15.07,-44.16 L 15.23,-44.06 Z M 14.81,-44.98 L 14.69,-44.96 L 14.63,-44.99 L 14.61,-45.03 L 14.51,-45.04 L 14.45,-45.08 L 14.44,-45.10 L 14.52,-45.15 L 14.57,-45.22 L 14.63,-45.18 L 14.70,-45.09 L 14.74,-45.07 L 14.81,-44.98 Z M 14.83,-44.76 L 14.86,-44.71 L 14.76,-44.75 L 14.68,-44.77 L 14.66,-44.80 L 14.67,-44.82 L 14.69,-44.85 L 14.75,-44.84 L 14.76,-44.82 L 14.83,-44.76 Z M 15.19,-44.34 L 15.16,-44.31 L 15.10,-44.36 L 15.04,-44.39 L 15.00,-44.43 L 14.91,-44.49 L 14.88,-44.54 L 14.76,-44.66 L 14.74,-44.70 L 14.80,-44.65 L 14.86,-44.62 L 14.90,-44.61 L 15.01,-44.53 L 15.11,-44.44 L 15.24,-44.35 L 15.21,-44.35 L 15.19,-44.34 Z M 15.19,-43.92 L 15.20,-43.91 L 15.20,-43.90 L 15.15,-43.91 L 15.14,-43.91 L 14.89,-44.13 L 14.87,-44.17 L 14.95,-44.12 L 15.19,-43.92 Z M 15.37,-43.97 L 15.44,-43.90 L 15.37,-43.91 L 15.31,-43.96 L 15.27,-44.01 L 15.37,-43.97 Z M 14.49,-44.66 L 14.48,-44.62 L 14.42,-44.67 L 14.39,-44.76 L 14.31,-44.90 L 14.30,-44.94 L 14.34,-44.98 L 14.34,-45.02 L 14.29,-45.14 L 14.33,-45.16 L 14.36,-45.17 L 14.37,-45.08 L 14.39,-45.03 L 14.47,-44.97 L 14.45,-44.87 L 14.47,-44.73 L 14.48,-44.69 L 14.49,-44.66 Z M 17.61,-42.77 L 17.74,-42.70 L 17.34,-42.79 L 17.39,-42.80 L 17.43,-42.80 L 17.61,-42.77 Z M 18.44,-42.56 L 18.44,-42.52 L 18.48,-42.48 L 18.52,-42.43 L 18.33,-42.53 L 18.16,-42.63 L 17.82,-42.80 L 17.58,-42.84 L 17.26,-42.97 L 17.05,-43.01 L 17.13,-43.03 L 17.22,-43.03 L 17.72,-42.85 L 17.67,-42.90 L 17.74,-42.92 L 17.80,-42.90 L 17.84,-42.85 L 17.92,-42.81 L 18.04,-42.74 L 18.12,-42.69 L 18.30,-42.60 L 18.35,-42.59 L 18.44,-42.56 Z"/>
<path data-id="0-36" d="M17.25,-45.15,15.98,-45.81"/>
<path data-id="1-36" d="M16.78,-45.48,15.98,-45.81"/>
<path data-id="2-43" d="M18.02,-45.16,18.69,-45.55"/>
<path data-id="3-43" d="M17.69,-45.34,18.69,-45.55"/>
<path data-id="4-36" d="M16.08,-45.71,15.98,-45.81"/>
<path data-id="5-36" d="M15.55,-45.49,15.98,-45.81"/>
<path data-id="6-36" d="M16.38,-45.47,15.98,-45.81"/>
<path data-id="6-7" d="M16.38,-45.47,16.29,-45.44"/>
<path data-id="8-36" d="M15.65,-45.67,15.98,-45.81"/>
<path data-id="10-27" d="M16.44,-43.17,16.44,-43.51"/>
<path data-id="11-27" d="M18.09,-42.65,16.44,-43.51"/>
<path data-id="12-24" d="M13.64,-45.08,13.85,-44.87"/>
<path data-id="13-26" d="M13.72,-45.28,14.41,-45.34"/>
<path data-id="14-26" d="M14.31,-45.34,14.41,-45.34"/>
<path data-id="15-26" d="M13.59,-45.23,14.41,-45.34"/>
<path data-id="16-26" d="M13.66,-45.41,14.41,-45.34"/>
<path data-id="17-18" d="M15.24,-44.12,15.38,-44.11"/>
<path data-id="17-27" d="M15.24,-44.12,16.44,-43.51"/>
<path data-id="19-27" d="M16.20,-44.04,16.44,-43.51"/>
<path data-id="20-27" d="M16.25,-43.51,16.44,-43.51"/>
<path data-id="21-27" d="M16.73,-43.35,16.44,-43.51"/>
<path data-id="22-27" d="M16.50,-43.55,16.44,-43.51"/>
<path data-id="23-27" d="M15.91,-43.73,16.44,-43.51"/>
<path data-id="24-26" d="M13.85,-44.87,14.41,-45.34"/>
<path data-id="25-26" d="M14.47,-44.53,14.41,-45.34"/>
<path data-id="26-36" d="M14.41,-45.34,15.98,-45.81"/>
<path data-id="26-30" d="M14.41,-45.34,15.37,-44.55"/>
<path data-id="26-31" d="M14.41,-45.34,15.24,-44.87"/>
<path data-id="27-36" d="M16.44,-43.51,15.98,-45.81"/>
<path data-id="28-39" d="M16.43,-46.38,16.34,-46.30"/>
<path data-id="32-34" d="M18.80,-45.29,19.00,-45.34"/>
<path data-id="34-43" d="M19.00,-45.34,18.69,-45.55"/>
<path data-id="35-43" d="M18.41,-45.31,18.69,-45.55"/>
<path data-id="36-42" d="M15.98,-45.81,17.38,-45.83"/>
<path data-id="36-43" d="M15.98,-45.81,18.69,-45.55"/>
<path data-id="36-40" d="M15.98,-45.81,16.54,-46.02"/>
<path data-id="36-41" d="M15.98,-45.81,16.85,-45.90"/>
<path data-id="36-39" d="M15.98,-45.81,16.34,-46.30"/>
<path data-id="36-38" d="M15.98,-45.81,15.72,-45.80"/>
<path data-id="36-37" d="M15.98,-45.81,15.81,-45.86"/>
<circle data-id="0" cx="17.25" cy="-45.15" r="0.04px"/>
<text data-id="0" x="17.25" y="-45.15">Stara Gradnifska</text>
<circle data-id="1" cx="16.78" cy="-45.48" r="0.04px"/>
<text data-id="1" x="16.78" y="-45.48">Kutina</text>
<circle data-id="2" cx="18.02" cy="-45.16" r="0.04px"/>
<text data-id="2" x="18.02" y="-45.16">Slavonski</text>
<circle data-id="3" cx="17.69" cy="-45.34" r="0.04px"/>
<text data-id="3" x="17.69" y="-45.34">Pozega</text>
<circle data-id="4" cx="16.08" cy="-45.71" r="0.04px"/>
<text data-id="4" x="16.08" y="-45.71">Gorica</text>
<circle data-id="5" cx="15.55" cy="-45.49" r="0.04px"/>
<text data-id="5" x="15.55" y="-45.49">Karlovac</text>
<circle data-id="6" cx="16.38" cy="-45.47" r="0.04px"/>
<text data-id="6" x="16.38" y="-45.47">Sisak</text>
<circle data-id="7" cx="16.29" cy="-45.44" r="0.04px"/>
<text data-id="7" x="16.29" y="-45.44">Petrinja</text>
<circle data-id="8" cx="15.65" cy="-45.67" r="0.04px"/>
<text data-id="8" x="15.65" y="-45.67">Jastrebarsko</text>
<circle data-id="10" cx="16.44" cy="-43.17" r="0.04px"/>
<text data-id="10" x="16.44" y="-43.17">Hvar</text>
<circle data-id="11" cx="18.09" cy="-42.65" r="0.04px"/>
<text data-id="11" x="18.09" y="-42.65">Dubrovnik</text>
<circle data-id="12" cx="13.64" cy="-45.08" r="0.04px"/>
<text data-id="12" x="13.64" y="-45.08">Rovinj</text>
<circle data-id="13" cx="13.72" cy="-45.28" r="0.04px"/>
<text data-id="13" x="13.72" y="-45.28">Visnjan</text>
<circle data-id="14" cx="14.31" cy="-45.34" r="0.04px"/>
<text data-id="14" x="14.31" y="-45.34">Opatija</text>
<circle data-id="15" cx="13.59" cy="-45.23" r="0.04px"/>
<text data-id="15" x="13.59" y="-45.23">Porec</text>
<circle data-id="16" cx="13.66" cy="-45.41" r="0.04px"/>
<text data-id="16" x="13.66" y="-45.41">Buje</text>
<circle data-id="17" cx="15.24" cy="-44.12" r="0.04px"/>
<text data-id="17" x="15.24" y="-44.12">Zadar</text>
<circle data-id="18" cx="15.38" cy="-44.11" r="0.04px"/>
<text data-id="18" x="15.38" y="-44.11">Zenumik D</text>
<circle data-id="19" cx="16.20" cy="-44.04" r="0.04px"/>
<text data-id="19" x="16.20" y="-44.04">Knin</text>
<circle data-id="20" cx="16.25" cy="-43.51" r="0.04px"/>
<text data-id="20" x="16.25" y="-43.51">Trogic</text>
<circle data-id="21" cx="16.73" cy="-43.35" r="0.04px"/>
<text data-id="21" x="16.73" y="-43.35">Pucisca</text>
<circle data-id="22" cx="16.50" cy="-43.55" r="0.04px"/>
<text data-id="22" x="16.50" y="-43.55">Solin</text>
<circle data-id="23" cx="15.91" cy="-43.73" r="0.04px"/>
<text data-id="23" x="15.91" y="-43.73">Sibenik</text>
<circle data-id="24" cx="13.85" cy="-44.87" r="0.04px"/>
<text data-id="24" x="13.85" y="-44.87">Pula</text>
<circle data-id="25" cx="14.47" cy="-44.53" r="0.04px"/>
<text data-id="25" x="14.47" y="-44.53">M. Losinj</text>
<circle data-id="26" cx="14.41" cy="-45.34" r="0.04px"/>
<text data-id="26" x="14.41" y="-45.34">Rijeka</text>
<circle data-id="27" cx="16.44" cy="-43.51" r="0.04px"/>
<text data-id="27" x="16.44" y="-43.51">Split</text>
<circle data-id="28" cx="16.43" cy="-46.38" r="0.04px"/>
<text data-id="28" x="16.43" y="-46.38">Cakovec</text>
<circle data-id="30" cx="15.37" cy="-44.55" r="0.04px"/>
<text data-id="30" x="15.37" y="-44.55">Gospic</text>
<circle data-id="31" cx="15.24" cy="-44.87" r="0.04px"/>
<text data-id="31" x="15.24" y="-44.87">Otocac</text>
<circle data-id="32" cx="18.80" cy="-45.29" r="0.04px"/>
<text data-id="32" x="18.80" y="-45.29">Vinkovci</text>
<circle data-id="34" cx="19.00" cy="-45.34" r="0.04px"/>
<text data-id="34" x="19.00" y="-45.34">Vukovar</text>
<circle data-id="35" cx="18.41" cy="-45.31" r="0.04px"/>
<text data-id="35" x="18.41" y="-45.31">Dakovo</text>
<circle data-id="36" cx="15.98" cy="-45.81" r="0.04px"/>
<text data-id="36" x="15.98" y="-45.81">Zagreb</text>
<circle data-id="37" cx="15.81" cy="-45.86" r="0.04px"/>
<text data-id="37" x="15.81" y="-45.86">Zabresic</text>
<circle data-id="38" cx="15.72" cy="-45.80" r="0.04px"/>
<text data-id="38" x="15.72" y="-45.80">Samobor</text>
<circle data-id="39" cx="16.34" cy="-46.30" r="0.04px"/>
<text data-id="39" x="16.34" y="-46.30">Varazdin</text>
<circle data-id="40" cx="16.54" cy="-46.02" r="0.04px"/>
<text data-id="40" x="16.54" y="-46.02">Krizevci</text>
<circle data-id="41" cx="16.85" cy="-45.90" r="0.04px"/>
<text data-id="41" x="16.85" y="-45.90">Bjelovar</text>
<circle data-id="42" cx="17.38" cy="-45.83" r="0.04px"/>
<text data-id="42" x="17.38" y="-45.83">Virovitica</text>
<circle data-id="43" cx="18.69" cy="-45.55" r="0.04px"/>
<text data-id="43" x="18.69" y="-45.55">Osijek</text>
</svg>
