<svg width="1090.00" height="420.71" viewBox="1977.63 -45.00 1090.00 420.71" xmlns="http://www.w3.org/2000/svg">
<style>path {fill: none; stroke: grey; stroke-width: 6;} circle {fill: lightblue; stroke: none;} text {fill: black; stroke: none; font-size: 16; font-family: sans-serif; text-anchor:middle;}</style>
<path d="M2588.01,93.65,2687.94,143.48"/>
<path d="M2588.01,93.65,2461.07,2.46"/>
<path d="M2588.01,93.65,2578.83,121.19"/>
<path d="M2588.01,93.65,2988.36,154.88"/>
<path d="M2452.38,267.76,2365.96,295.48"/>
<path d="M2578.83,121.19,2357.20,113.46"/>
<path d="M2578.83,121.19,2495.72,136.29"/>
<path d="M2778.64,245.95,2714.72,259.40"/>
<path d="M2887.78,255.89,2819.95,193.97"/>
<path d="M2887.78,255.89,2714.72,259.40"/>
<path d="M2819.95,193.97,2988.36,154.88"/>
<path d="M2819.95,193.97,2714.72,259.40"/>
<path d="M2714.72,259.40,2759.52,330.71"/>
<path d="M2714.72,259.40,2357.20,113.46"/>
<path d="M2714.72,259.40,2365.96,295.48"/>
<path d="M2988.36,154.88,3022.63,153.26"/>
<path d="M2988.36,154.88,2926.34,137.88"/>
<path d="M2428.87,128.83,2471.31,104.57"/>
<path d="M2414.40,290.71,2365.96,295.48"/>
<path d="M2346.84,98.86,2357.20,113.46"/>
<path d="M2395.95,223.57,2357.20,113.46"/>
<path d="M2312.54,240.83,2365.96,295.48"/>
<path d="M2022.63,114.83,2186.69,169.13"/>
<path d="M2186.69,169.13,2293.70,19.85"/>
<path d="M2186.69,169.13,2357.20,113.46"/>
<path d="M2323.53,0.00,2293.70,19.85"/>
<path d="M2293.70,19.85,2357.20,113.46"/>
<path d="M2357.20,113.46,2461.07,2.46"/>
<path d="M2357.20,113.46,2471.31,104.57"/>
<path d="M2357.20,113.46,2365.96,295.48"/>
<circle cx="2588.01" cy="93.65" r="10"/>
<text x="2588.01" y="98.65">Hradec Kralove</text>
<circle cx="2687.94" cy="143.48" r="10"/>
<text x="2687.94" y="148.48">Ceska Trebova</text>
<circle cx="2452.38" cy="267.76" r="10"/>
<text x="2452.38" y="272.76">Jindrichuv Hradec</text>
<circle cx="2578.83" cy="121.19" r="10"/>
<text x="2578.83" y="126.19">Pardubice</text>
<circle cx="2778.64" cy="245.95" r="10"/>
<text x="2778.64" y="250.95">Vyskov</text>
<circle cx="2887.78" cy="255.89" r="10"/>
<text x="2887.78" y="260.89">Zlin</text>
<circle cx="2819.95" cy="193.97" r="10"/>
<text x="2819.95" y="198.97">Olomouc</text>
<circle cx="2714.72" cy="259.40" r="10"/>
<text x="2714.72" y="264.40">Brno</text>
<circle cx="2759.52" cy="330.71" r="10"/>
<text x="2759.52" y="335.71">Breclav,Lednice</text>
<circle cx="2988.36" cy="154.88" r="10"/>
<text x="2988.36" y="159.88">Ostrava</text>
<circle cx="2428.87" cy="128.83" r="10"/>
<text x="2428.87" y="133.83">Kostelec n C.L</text>
<circle cx="2414.40" cy="290.71" r="10"/>
<text x="2414.40" y="295.71">Trebon</text>
<circle cx="2926.34" cy="137.88" r="10"/>
<text x="2926.34" y="142.88">Opava</text>
<circle cx="3022.63" cy="153.26" r="10"/>
<text x="3022.63" y="158.26">Karvina</text>
<circle cx="2495.72" cy="136.29" r="10"/>
<text x="2495.72" y="141.29">Kutna Hora</text>
<circle cx="2346.84" cy="98.86" r="10"/>
<text x="2346.84" y="103.86">Rez</text>
<circle cx="2395.95" cy="223.57" r="10"/>
<text x="2395.95" y="228.57">Tabor</text>
<circle cx="2312.54" cy="240.83" r="10"/>
<text x="2312.54" y="245.83">Pisek</text>
<circle cx="2022.63" cy="114.83" r="10"/>
<text x="2022.63" y="119.83">Cheb</text>
<circle cx="2186.69" cy="169.13" r="10"/>
<text x="2186.69" y="174.13">Plzen</text>
<circle cx="2323.53" cy="0.00" r="10"/>
<text x="2323.53" y="5.00">Decin</text>
<circle cx="2293.70" cy="19.85" r="10"/>
<text x="2293.70" y="24.85">Usti nad Labem</text>
<circle cx="2357.20" cy="113.46" r="10"/>
<text x="2357.20" y="118.46">Praha</text>
<circle cx="2461.07" cy="2.46" r="10"/>
<text x="2461.07" y="7.46">Liberec</text>
<circle cx="2471.31" cy="104.57" r="10"/>
<text x="2471.31" y="109.57">Podebrady</text>
<circle cx="2365.96" cy="295.48" r="10"/>
<text x="2365.96" y="300.48">Ceske Budejovice</text>
</svg>
