<svg id="topo" width="1090.00" height="455.51" viewBox="2682.64 -45.00 1090.00 455.51" xmlns="http://www.w3.org/2000/svg">
<style>#topo path {fill: none; stroke: grey; stroke-width: 6;} #topo circle {fill: lightblue; stroke: none;} #topo text {fill: black; stroke: none; font-size: 16; font-family: sans-serif; text-anchor:middle;}</style>
<path d="M3727.64,190.13,3386.30,320.50"/>
<path d="M2727.64,207.90,2940.34,138.46"/>
<path d="M2940.34,138.46,3069.90,0.00"/>
<path d="M2940.34,138.46,2951.27,365.51"/>
<path d="M2940.34,138.46,3216.79,148.10"/>
<path d="M2940.34,138.46,3228.25,113.75"/>
<path d="M2940.34,138.46,3386.30,320.50"/>
<path d="M3517.57,238.88,3386.30,320.50"/>
<circle cx="3727.64" cy="190.13" r="10"/>
<text x="3727.64" y="195.13">Ostrava</text>
<circle cx="2727.64" cy="207.90" r="10"/>
<text x="2727.64" y="212.90">Plzen</text>
<circle cx="2940.34" cy="138.46" r="10"/>
<text x="2940.34" y="143.46">Praha</text>
<circle cx="3069.90" cy="0.00" r="10"/>
<text x="3069.90" y="5.00">Liberec</text>
<circle cx="2951.27" cy="365.51" r="10"/>
<text x="2951.27" y="370.51">Ceske Budejovice</text>
<circle cx="3216.79" cy="148.10" r="10"/>
<text x="3216.79" y="153.10">Pardubice</text>
<circle cx="3228.25" cy="113.75" r="10"/>
<text x="3228.25" y="118.75">Hradec Kralove</text>
<circle cx="3517.57" cy="238.88" r="10"/>
<text x="3517.57" y="243.88">Olomouc</text>
<circle cx="3386.30" cy="320.50" r="10"/>
<text x="3386.30" y="325.50">Brno</text>
</svg>
