<svg id="topo" width="1090.00" height="412.90" viewBox="-2428.57 -45.00 1090.00 412.90" xmlns="http://www.w3.org/2000/svg">
<style>#topo path {fill: none; stroke: grey; stroke-width: 6;} #topo circle {fill: lightblue; stroke: none;} #topo text {fill: black; stroke: none; font-size: 16; font-family: sans-serif; text-anchor:middle;}</style>
<path d="M-1463.48,46.85,-1557.56,37.34"/>
<path d="M-1463.48,46.85,-1491.68,59.74"/>
<path d="M-1557.56,37.34,-1440.94,32.01"/>
<path d="M-1557.56,37.34,-1491.68,59.74"/>
<path d="M-1557.56,37.34,-1587.22,24.86"/>
<path d="M-1508.19,93.55,-1491.68,59.74"/>
<path d="M-1508.19,93.55,-1531.14,128.24"/>
<path d="M-1491.68,59.74,-1643.08,167.63"/>
<path d="M-1383.57,0.00,-1440.94,32.01"/>
<path d="M-1383.57,0.00,-1415.22,11.58"/>
<path d="M-1884.88,186.44,-1856.77,245.23"/>
<path d="M-1884.88,186.44,-1643.08,167.63"/>
<path d="M-1884.88,186.44,-1842.45,63.17"/>
<path d="M-1884.88,186.44,-2302.27,161.73"/>
<path d="M-1440.94,32.01,-1706.59,9.90"/>
<path d="M-1440.94,32.01,-1415.22,11.58"/>
<path d="M-1440.94,32.01,-2383.57,89.24"/>
<path d="M-1643.08,167.63,-1605.51,280.59"/>
<path d="M-1560.43,316.13,-1605.51,280.59"/>
<path d="M-1560.43,316.13,-1561.41,322.90"/>
<path d="M-1560.43,316.13,-1584.50,269.08"/>
<path d="M-1584.50,269.08,-1589.88,234.16"/>
<path d="M-1589.88,234.16,-1531.14,128.24"/>
<path d="M-1587.22,24.86,-1706.59,9.90"/>
<path d="M-1587.22,24.86,-1590.65,16.72"/>
<path d="M-2383.57,89.24,-2044.11,51.00"/>
<path d="M-2383.57,89.24,-2302.27,161.73"/>
<path d="M-2044.11,51.00,-1842.45,63.17"/>
<path d="M-1842.45,63.17,-1706.59,9.90"/>
<circle cx="-1463.48" cy="46.85" r="10"/>
<text x="-1463.48" y="51.85">Philadelphia</text>
<circle cx="-1557.56" cy="37.34" r="10"/>
<text x="-1557.56" y="42.34">Pittsburgh</text>
<circle cx="-1508.19" cy="93.55" r="10"/>
<text x="-1508.19" y="98.55">Richmond</text>
<circle cx="-1491.68" cy="59.74" r="10"/>
<text x="-1491.68" y="64.74">Baltimore</text>
<circle cx="-1383.57" cy="0.00" r="10"/>
<text x="-1383.57" y="5.00">Boston</text>
<circle cx="-1884.88" cy="186.44" r="10"/>
<text x="-1884.88" y="191.44">Dallas</text>
<circle cx="-1440.94" cy="32.01" r="10"/>
<text x="-1440.94" y="37.01">New York</text>
<circle cx="-1415.22" cy="11.58" r="10"/>
<text x="-1415.22" y="16.58">Hartford</text>
<circle cx="-1856.77" cy="245.23" r="10"/>
<text x="-1856.77" y="250.23">Houston</text>
<circle cx="-1643.08" cy="167.63" r="10"/>
<text x="-1643.08" y="172.63">Atlanta</text>
<circle cx="-1560.43" cy="316.13" r="10"/>
<text x="-1560.43" y="321.13">Fort Lauderdale</text>
<circle cx="-1584.50" cy="269.08" r="10"/>
<text x="-1584.50" y="274.08">Orlando</text>
<circle cx="-1589.88" cy="234.16" r="10"/>
<text x="-1589.88" y="239.16">Jacksonville</text>
<circle cx="-1531.14" cy="128.24" r="10"/>
<text x="-1531.14" y="133.24">Raleigh</text>
<circle cx="-1605.51" cy="280.59" r="10"/>
<text x="-1605.51" y="285.59">Tampa</text>
<circle cx="-1561.41" cy="322.90" r="10"/>
<text x="-1561.41" y="327.90">Miami</text>
<circle cx="-1587.22" cy="24.86" r="10"/>
<text x="-1587.22" y="29.86">Akron</text>
<circle cx="-2383.57" cy="89.24" r="10"/>
<text x="-2383.57" y="94.24">San Francisco</text>
<circle cx="-2302.27" cy="161.73" r="10"/>
<text x="-2302.27" y="166.73">Los Angeles</text>
<circle cx="-2044.11" cy="51.00" r="10"/>
<text x="-2044.11" y="56.00">Denver</text>
<circle cx="-1842.45" cy="63.17" r="10"/>
<text x="-1842.45" y="68.17">Kansas City</text>
<circle cx="-1706.59" cy="9.90" r="10"/>
<text x="-1706.59" y="14.90">Chicago</text>
<circle cx="-1590.65" cy="16.72" r="10"/>
<text x="-1590.65" y="21.72">Cleveland</text>
</svg>
