<svg width="1090.00" height="820.34" viewBox="673.47 -45.00 1090.00 820.34" xmlns="http://www.w3.org/2000/svg">
<style>path {fill: none; stroke: grey; stroke-width: 6;} circle {fill: lightblue; stroke: none;} text {fill: black; stroke: none; font-size: 16; font-family: sans-serif; text-anchor:middle;}</style>
<path d="M1525.49,411.94,1461.08,352.15"/>
<path d="M1525.49,411.94,1622.53,386.25"/>
<path d="M1461.08,352.15,1299.59,558.82"/>
<path d="M1461.08,352.15,1368.02,400.13"/>
<path d="M1583.82,212.23,1583.82,212.23"/>
<path d="M1583.82,212.23,1583.82,212.23"/>
<path d="M1622.53,386.25,1543.09,227.05"/>
<path d="M1622.53,386.25,1299.59,558.82"/>
<path d="M1021.52,525.65,1025.53,496.58"/>
<path d="M1021.52,525.65,1026.41,580.32"/>
<path d="M1026.41,580.32,990.39,627.91"/>
<path d="M1368.02,400.13,1287.32,429.66"/>
<path d="M1287.32,429.66,1299.59,558.82"/>
<path d="M990.39,627.91,1025.53,496.58"/>
<path d="M990.39,627.91,1083.83,654.17"/>
<path d="M990.39,627.91,915.30,575.32"/>
<path d="M1083.83,654.17,1375.90,717.04"/>
<path d="M1007.81,270.22,1033.92,307.34"/>
<path d="M1007.81,270.22,1149.52,230.40"/>
<path d="M1007.81,270.22,900.62,278.60"/>
<path d="M1173.15,329.27,1149.52,230.40"/>
<path d="M1173.15,329.27,1121.98,354.86"/>
<path d="M1040.22,147.18,968.44,136.37"/>
<path d="M1040.22,147.18,1149.52,230.40"/>
<path d="M1040.22,147.18,1181.03,91.10"/>
<path d="M848.37,360.76,820.81,400.13"/>
<path d="M848.37,360.76,879.87,331.24"/>
<path d="M820.81,400.13,1025.53,496.58"/>
<path d="M820.81,400.13,838.53,423.75"/>
<path d="M838.53,423.75,718.47,418.64"/>
<path d="M1035.37,413.91,1021.59,441.47"/>
<path d="M1035.37,413.91,1121.98,354.86"/>
<path d="M1021.59,441.47,1025.53,496.58"/>
<path d="M1121.98,354.86,1033.92,307.34"/>
<path d="M968.44,136.37,900.62,278.60"/>
<path d="M900.62,278.60,828.69,339.11"/>
<path d="M826.72,600.91,1025.53,496.58"/>
<path d="M826.72,600.91,915.30,575.32"/>
<path d="M1181.03,91.10,1583.82,212.23"/>
<path d="M1181.03,91.10,1181.03,91.10"/>
<path d="M1196.96,0.00,1433.83,27.47"/>
<path d="M1196.96,0.00,1149.52,230.40"/>
<path d="M1433.83,27.47,1149.52,230.40"/>
<path d="M1433.83,27.47,1580.61,26.14"/>
<path d="M1377.87,254.47,1244.02,242.66"/>
<path d="M1377.87,254.47,1543.09,227.05"/>
<path d="M1244.02,242.66,1149.52,230.40"/>
<path d="M915.30,575.32,1025.53,496.58"/>
<path d="M1580.61,26.14,1543.09,227.05"/>
<path d="M879.87,331.24,852.31,335.18"/>
<path d="M852.31,335.18,828.69,339.11"/>
<path d="M1367.10,730.34,1428.52,626.69"/>
<path d="M1367.10,730.34,1375.90,717.04"/>
<path d="M1428.52,626.69,1299.59,558.82"/>
<path d="M1285.35,703.26,1375.90,717.04"/>
<path d="M1285.35,703.26,1299.59,558.82"/>
<path d="M1375.90,717.04,1025.53,496.58"/>
<path d="M828.69,339.11,1149.52,230.40"/>
<path d="M828.69,339.11,751.92,400.13"/>
<path d="M751.92,400.13,718.47,418.64"/>
<path d="M718.47,418.64,1025.53,496.58"/>
<path d="M1173.48,535.42,1025.53,496.58"/>
<path d="M1173.48,535.42,1299.59,558.82"/>
<path d="M1583.82,212.23,1583.82,212.23"/>
<path d="M1583.82,212.23,1583.82,212.23"/>
<path d="M1583.82,212.23,1543.09,227.05"/>
<path d="M1583.82,212.23,1608.17,230.85"/>
<path d="M1149.52,230.40,1025.53,496.58"/>
<path d="M1149.52,230.40,1543.09,227.05"/>
<path d="M1149.52,230.40,1299.59,558.82"/>
<path d="M1149.52,230.40,1718.47,233.16"/>
<path d="M1025.53,496.58,1543.09,227.05"/>
<path d="M1025.53,496.58,1299.59,558.82"/>
<path d="M1543.09,227.05,1299.59,558.82"/>
<path d="M1543.09,227.05,1367.43,516.50"/>
<path d="M1543.09,227.05,1718.47,233.16"/>
<path d="M1543.09,227.05,1583.82,212.23"/>
<path d="M1299.59,558.82,1367.43,516.50"/>
<path d="M1718.47,233.16,1583.82,212.23"/>
<path d="M1583.82,212.23,1608.17,230.85"/>
<circle cx="1525.49" cy="411.94" r="10"/>
<text x="1525.49" y="416.94">CHE</text>
<circle cx="1461.08" cy="352.15" r="10"/>
<text x="1461.08" y="357.15">LEI</text>
<circle cx="1583.82" cy="212.23" r="10"/>
<text x="1583.82" y="217.23">ADH</text>
<circle cx="1622.53" cy="386.25" r="10"/>
<text x="1622.53" y="391.25">DRE</text>
<circle cx="1021.52" cy="525.65" r="10"/>
<text x="1021.52" y="530.65">GSI</text>
<circle cx="1026.41" cy="580.32" r="10"/>
<text x="1026.41" y="585.32">HEI</text>
<circle cx="1368.02" cy="400.13" r="10"/>
<text x="1368.02" y="405.13">JEN</text>
<circle cx="1287.32" cy="429.66" r="10"/>
<text x="1287.32" y="434.66">ILM</text>
<circle cx="990.39" cy="627.91" r="10"/>
<text x="990.39" y="632.91">FZK</text>
<circle cx="1083.83" cy="654.17" r="10"/>
<text x="1083.83" y="659.17">STU</text>
<circle cx="1007.81" cy="270.22" r="10"/>
<text x="1007.81" y="275.22">BIE</text>
<circle cx="1173.15" cy="329.27" r="10"/>
<text x="1173.15" y="334.27">GOE</text>
<circle cx="1040.22" cy="147.18" r="10"/>
<text x="1040.22" y="152.18">BRE</text>
<circle cx="848.37" cy="360.76" r="10"/>
<text x="848.37" y="365.76">WUP</text>
<circle cx="820.81" cy="400.13" r="10"/>
<text x="820.81" y="405.13">BIR</text>
<circle cx="838.53" cy="423.75" r="10"/>
<text x="838.53" y="428.75">BON</text>
<circle cx="1035.37" cy="413.91" r="10"/>
<text x="1035.37" y="418.91">MAR</text>
<circle cx="1021.59" cy="441.47" r="10"/>
<text x="1021.59" y="446.47">GIE</text>
<circle cx="1121.98" cy="354.86" r="10"/>
<text x="1121.98" y="359.86">KAS</text>
<circle cx="1033.92" cy="307.34" r="10"/>
<text x="1033.92" y="312.34">PAD</text>
<circle cx="968.44" cy="136.37" r="10"/>
<text x="968.44" y="141.37">EWE</text>
<circle cx="900.62" cy="278.60" r="10"/>
<text x="900.62" y="283.60">MUE</text>
<circle cx="826.72" cy="600.91" r="10"/>
<text x="826.72" y="605.91">SAA</text>
<circle cx="1181.03" cy="91.10" r="10"/>
<text x="1181.03" y="96.10">DES</text>
<circle cx="1181.03" cy="91.10" r="10"/>
<text x="1181.03" y="96.10">HAM</text>
<circle cx="1196.96" cy="0.00" r="10"/>
<text x="1196.96" y="5.00">KIE</text>
<circle cx="1433.83" cy="27.47" r="10"/>
<text x="1433.83" y="32.47">ROS</text>
<circle cx="1377.87" cy="254.47" r="10"/>
<text x="1377.87" y="259.47">MAG</text>
<circle cx="1244.02" cy="242.66" r="10"/>
<text x="1244.02" y="247.66">BRA</text>
<circle cx="915.30" cy="575.32" r="10"/>
<text x="915.30" y="580.32">KAI</text>
<circle cx="1580.61" cy="26.14" r="10"/>
<text x="1580.61" y="31.14">GRE</text>
<circle cx="879.87" cy="331.24" r="10"/>
<text x="879.87" y="336.24">DOR</text>
<circle cx="852.31" cy="335.18" r="10"/>
<text x="852.31" y="340.18">BOC</text>
<circle cx="1367.10" cy="730.34" r="10"/>
<text x="1367.10" y="735.34">FHM</text>
<circle cx="1428.52" cy="626.69" r="10"/>
<text x="1428.52" y="631.69">REG</text>
<circle cx="1285.35" cy="703.26" r="10"/>
<text x="1285.35" y="708.26">AUG</text>
<circle cx="1375.90" cy="717.04" r="10"/>
<text x="1375.90" y="722.04">GAR</text>
<circle cx="828.69" cy="339.11" r="10"/>
<text x="828.69" y="344.11">DUI</text>
<circle cx="751.92" cy="400.13" r="10"/>
<text x="751.92" y="405.13">FZJ</text>
<circle cx="718.47" cy="418.64" r="10"/>
<text x="718.47" y="423.64">AAC</text>
<circle cx="1173.48" cy="535.42" r="10"/>
<text x="1173.48" y="540.42">WUE</text>
<circle cx="1583.82" cy="212.23" r="10"/>
<text x="1583.82" y="217.23">TUB</text>
<circle cx="1583.82" cy="212.23" r="10"/>
<text x="1583.82" y="217.23">HUB</text>
<circle cx="1149.52" cy="230.40" r="10"/>
<text x="1149.52" y="235.40">HAN</text>
<circle cx="1025.53" cy="496.58" r="10"/>
<text x="1025.53" y="501.58">FRA</text>
<circle cx="1543.09" cy="227.05" r="10"/>
<text x="1543.09" y="232.05">POT</text>
<circle cx="1299.59" cy="558.82" r="10"/>
<text x="1299.59" y="563.82">ERL</text>
<circle cx="1367.43" cy="516.50" r="10"/>
<text x="1367.43" y="521.50">BAY</text>
<circle cx="1718.47" cy="233.16" r="10"/>
<text x="1718.47" y="238.16">FFO</text>
<circle cx="1583.82" cy="212.23" r="10"/>
<text x="1583.82" y="217.23">ZIB</text>
<circle cx="1608.17" cy="230.85" r="10"/>
<text x="1608.17" y="235.85">ZEU</text>
</svg>
