<svg width="1090.00" height="458.95" viewBox="-2574.21 -45.00 1090.00 458.95" xmlns="http://www.w3.org/2000/svg">
<style>path {fill: none; stroke: grey; stroke-width: 6;} circle {fill: lightblue; stroke: none;} text {fill: black; stroke: none; font-size: 16; font-family: sans-serif; text-anchor:middle;}</style>
<path d="M-2373.78,236.76,-2437.82,280.53"/>
<path d="M-2373.78,236.76,-2310.62,292.97"/>
<path d="M-2373.78,236.76,-2306.85,142.22"/>
<path d="M-2437.82,280.53,-2310.62,292.97"/>
<path d="M-2437.82,280.53,-2514.34,212.45"/>
<path d="M-1995.86,306.69,-1807.07,119.76"/>
<path d="M-1995.86,306.69,-1966.10,368.95"/>
<path d="M-1995.86,306.69,-2310.62,292.97"/>
<path d="M-1995.86,306.69,-1588.25,180.68"/>
<path d="M-2514.34,212.45,-2518.21,210.64"/>
<path d="M-2529.21,44.02,-2524.42,8.37"/>
<path d="M-2529.21,44.02,-2504.84,187.14"/>
<path d="M-2504.84,187.14,-2524.42,8.37"/>
<path d="M-2504.84,187.14,-2306.85,142.22"/>
<path d="M-2504.84,187.14,-2518.21,210.64"/>
<path d="M-2518.21,210.64,-2522.11,1.08"/>
<path d="M-2524.42,8.37,-2522.11,1.08"/>
<path d="M-2522.11,1.08,-2420.96,0.00"/>
<path d="M-2522.11,1.08,-2395.76,83.40"/>
<path d="M-2522.11,1.08,-2306.85,142.22"/>
<path d="M-2522.11,1.08,-1922.81,55.23"/>
<path d="M-1739.82,286.78,-1966.10,368.95"/>
<path d="M-1739.82,286.78,-1588.25,180.68"/>
<path d="M-2420.96,0.00,-2395.76,83.40"/>
<path d="M-2395.76,83.40,-2306.85,142.22"/>
<path d="M-2306.85,142.22,-1807.07,119.76"/>
<path d="M-1922.81,55.23,-1807.07,119.76"/>
<path d="M-1807.07,119.76,-1600.19,92.86"/>
<path d="M-1600.19,92.86,-1529.21,142.73"/>
<path d="M-1529.21,142.73,-1588.25,180.68"/>
<circle cx="-2373.78" cy="236.76" r="10"/>
<text x="-2373.78" y="241.76">Las Vegas</text>
<circle cx="-2437.82" cy="280.53" r="10"/>
<text x="-2437.82" y="285.53">Los Angeles</text>
<circle cx="-1995.86" cy="306.69" r="10"/>
<text x="-1995.86" y="311.69">Dallas</text>
<circle cx="-2310.62" cy="292.97" r="10"/>
<text x="-2310.62" y="297.97">Phoenix</text>
<circle cx="-2514.34" cy="212.45" r="10"/>
<text x="-2514.34" y="217.45">Santa Clara</text>
<circle cx="-2529.21" cy="44.02" r="10"/>
<text x="-2529.21" y="49.02">Portland</text>
<circle cx="-2504.84" cy="187.14" r="10"/>
<text x="-2504.84" y="192.14">Sacramento</text>
<circle cx="-2518.21" cy="210.64" r="10"/>
<text x="-2518.21" y="215.64">Palo Alto</text>
<circle cx="-2524.42" cy="8.37" r="10"/>
<text x="-2524.42" y="13.37">Tacoma</text>
<circle cx="-2522.11" cy="1.08" r="10"/>
<text x="-2522.11" y="6.08">Seattle</text>
<circle cx="-1739.82" cy="286.78" r="10"/>
<text x="-1739.82" y="291.78">Atlanta</text>
<circle cx="-1966.10" cy="368.95" r="10"/>
<text x="-1966.10" y="373.95">Houston</text>
<circle cx="-2420.96" cy="0.00" r="10"/>
<text x="-2420.96" y="5.00">Spokane</text>
<circle cx="-2395.76" cy="83.40" r="10"/>
<text x="-2395.76" y="88.40">Boise</text>
<circle cx="-2306.85" cy="142.22" r="10"/>
<text x="-2306.85" y="147.22">Salt Lake City</text>
<circle cx="-1922.81" cy="55.23" r="10"/>
<text x="-1922.81" y="60.23">Minneapolis</text>
<circle cx="-1807.07" cy="119.76" r="10"/>
<text x="-1807.07" y="124.76">Chicago</text>
<circle cx="-1600.19" cy="92.86" r="10"/>
<text x="-1600.19" y="97.86">Rochester</text>
<circle cx="-1529.21" cy="142.73" r="10"/>
<text x="-1529.21" y="147.73">Newark</text>
<circle cx="-1588.25" cy="180.68" r="10"/>
<text x="-1588.25" y="185.68">Washington DC</text>
</svg>
