<svg width="1090.00" height="270.51" viewBox="-2766.68 -45.00 1090.00 270.51" xmlns="http://www.w3.org/2000/svg">
<style>path {fill: none; stroke: grey; stroke-width: 6;} circle {fill: lightblue; stroke: none;} text {fill: black; stroke: none; font-size: 16; font-family: sans-serif; text-anchor:middle;}</style>
<path d="M-2721.68,98.23,-2634.79,173.76"/>
<path d="M-2721.68,98.23,-2339.35,47.04"/>
<path d="M-2721.68,98.23,-1721.68,65.71"/>
<path d="M-2634.79,173.76,-1880.40,180.51"/>
<path d="M-2339.35,47.04,-1953.08,0.00"/>
<path d="M-1953.08,0.00,-1721.68,65.71"/>
<path d="M-1721.68,65.71,-1880.40,180.51"/>
<circle cx="-2721.68" cy="98.23" r="10"/>
<text x="-2721.68" y="103.23">Palo Alto</text>
<circle cx="-2634.79" cy="173.76" r="10"/>
<text x="-2634.79" y="178.76">Los Angeles</text>
<circle cx="-2339.35" cy="47.04" r="10"/>
<text x="-2339.35" y="52.04">Denver</text>
<circle cx="-1953.08" cy="0.00" r="10"/>
<text x="-1953.08" y="5.00">Chicago</text>
<circle cx="-1721.68" cy="65.71" r="10"/>
<text x="-1721.68" y="70.71">Vienna</text>
<circle cx="-1880.40" cy="180.51" r="10"/>
<text x="-1880.40" y="185.51">Atlanta</text>
</svg>
