<svg id="topo" viewBox="22.43 -44.25 5.75 2.99" xmlns="http://www.w3.org/2000/svg">
<style>#topo path {fill: none; stroke: grey; stroke-width: 0.0209px;} #topo circle {fill: lightblue; stroke: none; stroke-width: 0.3px; vector-effect: non-scaling-stroke; r: 0.0418px;} #topo text {fill: black; stroke: none; font-size: 0.0627px; font-family: sans-serif; text-anchor:middle; transform: translateY(0.3em);} #topo path.country {fill: lightgrey; stroke: black; stroke-width: 1px; vector-effect: non-scaling-stroke; visibility: visible;} #topo path.selection {fill: none; stroke: red; stroke-width: 1px; vector-effect: non-scaling-stroke; visibility: visible;} #topo path.utilization {visibility: hidden;}</style>
<path class="country" d="M 28.01,-41.97 L 27.88,-41.99 L 27.83,-41.98 L 27.80,-41.96 L 27.74,-41.96 L 27.66,-41.96 L 27.58,-41.93 L 27.53,-41.92 L 27.47,-41.95 L 27.36,-42.03 L 27.29,-42.08 L 27.24,-42.09 L 27.19,-42.08 L 27.01,-42.06 L 26.97,-42.03 L 26.88,-41.99 L 26.80,-41.98 L 26.68,-41.96 L 26.62,-41.96 L 26.58,-41.95 L 26.55,-41.90 L 26.53,-41.85 L 26.51,-41.83 L 26.36,-41.80 L 26.33,-41.77 L 26.32,-41.74 L 26.32,-41.72 L 26.20,-41.74 L 26.11,-41.73 L 26.09,-41.70 L 26.07,-41.67 L 26.08,-41.64 L 26.11,-41.61 L 26.14,-41.52 L 26.16,-41.43 L 26.14,-41.39 L 26.07,-41.35 L 25.92,-41.31 L 25.78,-41.33 L 25.72,-41.32 L 25.62,-41.31 L 25.53,-41.30 L 25.38,-41.26 L 25.25,-41.24 L 25.13,-41.32 L 24.99,-41.36 L 24.85,-41.39 L 24.80,-41.37 L 24.77,-41.36 L 24.65,-41.42 L 24.60,-41.44 L 24.57,-41.47 L 24.52,-41.55 L 24.49,-41.56 L 24.39,-41.52 L 24.29,-41.53 L 24.23,-41.53 L 24.06,-41.53 L 24.03,-41.47 L 24.01,-41.46 L 23.97,-41.45 L 23.88,-41.46 L 23.76,-41.41 L 23.64,-41.39 L 23.54,-41.39 L 23.43,-41.40 L 23.37,-41.39 L 23.24,-41.38 L 23.16,-41.32 L 23.03,-41.33 L 22.92,-41.34 L 22.93,-41.36 L 22.95,-41.61 L 23.01,-41.72 L 23.00,-41.74 L 22.99,-41.76 L 22.94,-41.78 L 22.91,-41.84 L 22.84,-41.99 L 22.80,-42.03 L 22.68,-42.06 L 22.58,-42.10 L 22.50,-42.17 L 22.34,-42.31 L 22.42,-42.33 L 22.45,-42.36 L 22.52,-42.44 L 22.53,-42.48 L 22.52,-42.50 L 22.47,-42.54 L 22.44,-42.63 L 22.46,-42.71 L 22.47,-42.75 L 22.44,-42.79 L 22.47,-42.84 L 22.52,-42.87 L 22.56,-42.88 L 22.71,-42.88 L 22.80,-42.99 L 22.86,-43.02 L 22.92,-43.08 L 22.94,-43.10 L 22.97,-43.14 L 22.98,-43.19 L 22.86,-43.25 L 22.82,-43.30 L 22.77,-43.35 L 22.70,-43.39 L 22.55,-43.45 L 22.50,-43.52 L 22.47,-43.60 L 22.44,-43.67 L 22.39,-43.71 L 22.39,-43.74 L 22.37,-43.78 L 22.37,-43.86 L 22.40,-43.97 L 22.42,-44.01 L 22.47,-44.02 L 22.60,-44.08 L 22.60,-44.15 L 22.63,-44.19 L 22.67,-44.22 L 22.71,-44.24 L 22.78,-44.20 L 22.95,-44.13 L 23.03,-44.08 L 23.02,-44.05 L 22.99,-44.02 L 22.91,-43.99 L 22.87,-43.95 L 22.86,-43.90 L 22.87,-43.86 L 22.92,-43.83 L 23.22,-43.87 L 23.53,-43.85 L 23.95,-43.79 L 24.23,-43.76 L 24.43,-43.79 L 24.81,-43.74 L 25.16,-43.69 L 25.50,-43.67 L 25.69,-43.71 L 25.82,-43.77 L 25.93,-43.87 L 26.22,-44.01 L 26.49,-44.08 L 26.85,-44.15 L 27.09,-44.17 L 27.12,-44.15 L 27.43,-44.02 L 27.56,-44.02 L 27.67,-44.00 L 27.71,-43.96 L 27.74,-43.96 L 27.88,-43.99 L 27.95,-43.92 L 28.05,-43.82 L 28.22,-43.77 L 28.38,-43.74 L 28.42,-43.74 L 28.59,-43.74 L 28.56,-43.50 L 28.47,-43.39 L 28.32,-43.43 L 28.13,-43.40 L 28.04,-43.27 L 27.98,-43.23 L 27.93,-43.19 L 27.90,-43.02 L 27.89,-42.75 L 27.82,-42.72 L 27.75,-42.71 L 27.48,-42.47 L 27.64,-42.40 L 27.71,-42.35 L 27.82,-42.21 L 27.98,-42.05 L 28.01,-41.97 Z"/>
<path data-id="0-3" d="M26.92,-43.27,26.59,-43.26"/>
<path data-id="0-6" d="M26.92,-43.27,27.83,-43.57"/>
<path data-id="1-6" d="M27.27,-44.12,27.83,-43.57"/>
<path data-id="2-3" d="M26.52,-43.53,26.59,-43.26"/>
<path data-id="2-28" d="M26.52,-43.53,25.97,-43.86"/>
<path data-id="4-5" d="M26.50,-42.48,26.33,-42.69"/>
<path data-id="4-7" d="M26.50,-42.48,27.47,-42.51"/>
<path data-id="5-8" d="M26.33,-42.69,25.64,-42.43"/>
<path data-id="6-11" d="M27.83,-43.57,27.92,-43.22"/>
<path data-id="7-11" d="M27.47,-42.51,27.92,-43.22"/>
<path data-id="7-14" d="M27.47,-42.51,23.32,-42.70"/>
<path data-id="8-17" d="M25.64,-42.43,25.57,-41.94"/>
<path data-id="8-12" d="M25.64,-42.43,24.75,-42.15"/>
<path data-id="8-14" d="M25.64,-42.43,23.32,-42.70"/>
<path data-id="8-9" d="M25.64,-42.43,25.33,-42.87"/>
<path data-id="10-17" d="M25.37,-41.65,25.57,-41.94"/>
<path data-id="11-14" d="M27.92,-43.22,23.32,-42.70"/>
<path data-id="12-14" d="M24.75,-42.15,23.32,-42.70"/>
<path data-id="12-16" d="M24.75,-42.15,26.32,-41.72"/>
<path data-id="12-17" d="M24.75,-42.15,25.57,-41.94"/>
<path data-id="12-23" d="M24.75,-42.15,24.33,-42.20"/>
<path data-id="12-24" d="M24.75,-42.15,24.69,-41.59"/>
<path data-id="14-33" d="M23.32,-42.70,23.56,-43.21"/>
<path data-id="14-18" d="M23.32,-42.70,24.80,-42.63"/>
<path data-id="14-19" d="M23.32,-42.70,22.69,-42.28"/>
<path data-id="14-20" d="M23.32,-42.70,23.03,-42.60"/>
<path data-id="14-21" d="M23.32,-42.70,25.11,-43.03"/>
<path data-id="14-23" d="M23.32,-42.70,24.33,-42.20"/>
<path data-id="14-26" d="M23.32,-42.70,23.10,-42.02"/>
<path data-id="22-35" d="M25.63,-43.08,24.72,-43.13"/>
<path data-id="22-28" d="M25.63,-43.08,25.97,-43.86"/>
<path data-id="25-26" d="M23.22,-41.40,23.10,-42.02"/>
<path data-id="30-32" d="M22.87,-43.99,23.23,-43.41"/>
<path data-id="31-32" d="M23.73,-43.78,23.23,-43.41"/>
<path data-id="32-33" d="M23.23,-43.41,23.56,-43.21"/>
<path data-id="32-34" d="M23.23,-43.41,24.62,-43.42"/>
<path data-id="34-35" d="M24.62,-43.42,24.72,-43.13"/>
<circle data-id="0" cx="26.92" cy="-43.27" r="0.04px"/>
<text data-id="0" x="26.92" y="-43.27">Shumen</text>
<circle data-id="1" cx="27.27" cy="-44.12" r="0.04px"/>
<text data-id="1" x="27.27" y="-44.12">Silistra</text>
<circle data-id="2" cx="26.52" cy="-43.53" r="0.04px"/>
<text data-id="2" x="26.52" y="-43.53">Razgrad</text>
<circle data-id="3" cx="26.59" cy="-43.26" r="0.04px"/>
<text data-id="3" x="26.59" y="-43.26">Turgovishte</text>
<circle data-id="4" cx="26.50" cy="-42.48" r="0.04px"/>
<text data-id="4" x="26.50" y="-42.48">Yambol</text>
<circle data-id="5" cx="26.33" cy="-42.69" r="0.04px"/>
<text data-id="5" x="26.33" y="-42.69">Sliven</text>
<circle data-id="6" cx="27.83" cy="-43.57" r="0.04px"/>
<text data-id="6" x="27.83" y="-43.57">Dobrich</text>
<circle data-id="7" cx="27.47" cy="-42.51" r="0.04px"/>
<text data-id="7" x="27.47" y="-42.51">Burgas</text>
<circle data-id="8" cx="25.64" cy="-42.43" r="0.04px"/>
<text data-id="8" x="25.64" y="-42.43">St Zagora</text>
<circle data-id="9" cx="25.33" cy="-42.87" r="0.04px"/>
<text data-id="9" x="25.33" y="-42.87">Gabrovo</text>
<circle data-id="10" cx="25.37" cy="-41.65" r="0.04px"/>
<text data-id="10" x="25.37" y="-41.65">Kurjiali</text>
<circle data-id="11" cx="27.92" cy="-43.22" r="0.04px"/>
<text data-id="11" x="27.92" y="-43.22">Varna</text>
<circle data-id="12" cx="24.75" cy="-42.15" r="0.04px"/>
<text data-id="12" x="24.75" y="-42.15">Plovdiv</text>
<circle data-id="14" cx="23.32" cy="-42.70" r="0.04px"/>
<text data-id="14" x="23.32" y="-42.70">Sofia</text>
<circle data-id="16" cx="26.32" cy="-41.72" r="0.04px"/>
<text data-id="16" x="26.32" y="-41.72">Kap Andreevo</text>
<circle data-id="17" cx="25.57" cy="-41.94" r="0.04px"/>
<text data-id="17" x="25.57" y="-41.94">Haskovo</text>
<circle data-id="18" cx="24.80" cy="-42.63" r="0.04px"/>
<text data-id="18" x="24.80" y="-42.63">Karlovo</text>
<circle data-id="19" cx="22.69" cy="-42.28" r="0.04px"/>
<text data-id="19" x="22.69" y="-42.28">Kiustendil</text>
<circle data-id="20" cx="23.03" cy="-42.60" r="0.04px"/>
<text data-id="20" x="23.03" y="-42.60">Pennik</text>
<circle data-id="21" cx="25.11" cy="-43.03" r="0.04px"/>
<text data-id="21" x="25.11" y="-43.03">Sevlievo</text>
<circle data-id="22" cx="25.63" cy="-43.08" r="0.04px"/>
<text data-id="22" x="25.63" y="-43.08">V Turnovo</text>
<circle data-id="23" cx="24.33" cy="-42.20" r="0.04px"/>
<text data-id="23" x="24.33" y="-42.20">Pazardjik</text>
<circle data-id="24" cx="24.69" cy="-41.59" r="0.04px"/>
<text data-id="24" x="24.69" y="-41.59">Smolian</text>
<circle data-id="25" cx="23.22" cy="-41.40" r="0.04px"/>
<text data-id="25" x="23.22" y="-41.40">Petrich</text>
<circle data-id="26" cx="23.10" cy="-42.02" r="0.04px"/>
<text data-id="26" x="23.10" y="-42.02">Blagoevgrad</text>
<circle data-id="28" cx="25.97" cy="-43.86" r="0.04px"/>
<text data-id="28" x="25.97" y="-43.86">Ruse</text>
<circle data-id="30" cx="22.87" cy="-43.99" r="0.04px"/>
<text data-id="30" x="22.87" y="-43.99">Vidin</text>
<circle data-id="31" cx="23.73" cy="-43.78" r="0.04px"/>
<text data-id="31" x="23.73" y="-43.78">Kozloduj</text>
<circle data-id="32" cx="23.23" cy="-43.41" r="0.04px"/>
<text data-id="32" x="23.23" y="-43.41">Montana</text>
<circle data-id="33" cx="23.56" cy="-43.21" r="0.04px"/>
<text data-id="33" x="23.56" y="-43.21">Vraca</text>
<circle data-id="34" cx="24.62" cy="-43.42" r="0.04px"/>
<text data-id="34" x="24.62" y="-43.42">Pleven</text>
<circle data-id="35" cx="24.72" cy="-43.13" r="0.04px"/>
<text data-id="35" x="24.72" y="-43.13">Lovech</text>
</svg>
