<svg id="topo" viewBox="21.10 -67.78 9.08 7.97" xmlns="http://www.w3.org/2000/svg">
<style>#topo path {fill: none; stroke: grey; stroke-width: 0.0330px;} #topo circle {fill: lightblue; stroke: none; stroke-width: 0.3px; vector-effect: non-scaling-stroke; r: 0.0660px;} #topo text {fill: black; stroke: none; font-size: 0.0991px; font-family: sans-serif; text-anchor:middle; transform: translateY(0.3em);} #topo path.country {fill: lightgrey; stroke: black; stroke-width: 1px; vector-effect: non-scaling-stroke; visibility: visible;} #topo path.selection {fill: none; stroke: red; stroke-width: 1px; vector-effect: non-scaling-stroke; visibility: visible;} #topo path.utilization {visibility: hidden;}</style>
<path class="country" d="M 24.16,-65.81 L 24.05,-65.99 L 23.99,-66.06 L 23.91,-66.15 L 23.75,-66.19 L 23.72,-66.22 L 23.70,-66.25 L 23.69,-66.30 L 23.67,-66.38 L 23.68,-66.44 L 23.70,-66.48 L 23.77,-66.51 L 23.87,-66.58 L 23.89,-66.63 L 23.89,-66.71 L 23.94,-66.78 L 23.99,-66.81 L 23.98,-66.84 L 23.94,-66.88 L 23.87,-66.93 L 23.76,-67.00 L 23.68,-67.07 L 23.64,-67.13 L 23.62,-67.18 L 23.63,-67.23 L 23.66,-67.27 L 23.76,-67.31 L 23.77,-67.33 L 23.73,-67.42 L 23.66,-67.44 L 23.54,-67.45 L 23.47,-67.45 L 23.45,-67.46 L 23.45,-67.48 L 23.47,-67.52 L 23.50,-67.56 L 23.54,-67.59 L 23.54,-67.61 L 23.50,-67.70 L 23.49,-67.80 L 23.50,-67.88 L 23.63,-67.93 L 23.64,-67.95 L 23.47,-68.02 L 23.36,-68.09 L 23.32,-68.13 L 23.18,-68.14 L 23.10,-68.26 L 22.98,-68.32 L 22.85,-68.37 L 22.78,-68.39 L 22.36,-68.46 L 22.20,-68.48 L 22.00,-68.52 L 21.85,-68.57 L 21.72,-68.61 L 21.62,-68.65 L 21.47,-68.69 L 21.42,-68.72 L 21.26,-68.79 L 21.18,-68.83 L 20.92,-68.91 L 20.91,-68.94 L 20.91,-68.97 L 20.90,-68.98 L 20.62,-69.04 L 20.68,-69.07 L 20.89,-69.07 L 21.07,-69.04 L 21.10,-69.05 L 21.13,-69.08 L 21.05,-69.19 L 21.07,-69.21 L 21.14,-69.25 L 21.27,-69.27 L 21.46,-69.28 L 21.59,-69.27 L 21.62,-69.27 L 21.82,-69.15 L 21.99,-69.04 L 22.08,-68.99 L 22.30,-68.86 L 22.38,-68.78 L 22.41,-68.72 L 22.50,-68.72 L 22.81,-68.70 L 23.07,-68.67 L 23.14,-68.64 L 23.32,-68.65 L 23.46,-68.68 L 23.71,-68.71 L 23.77,-68.76 L 23.85,-68.81 L 24.00,-68.80 L 24.15,-68.76 L 24.33,-68.71 L 24.49,-68.69 L 24.70,-68.65 L 24.80,-68.61 L 24.94,-68.59 L 25.09,-68.64 L 25.17,-68.77 L 25.25,-68.82 L 25.36,-68.86 L 25.48,-68.88 L 25.58,-68.89 L 25.65,-68.92 L 25.75,-68.99 L 25.77,-69.08 L 25.75,-69.23 L 25.77,-69.28 L 25.85,-69.37 L 25.96,-69.59 L 26.01,-69.65 L 26.07,-69.69 L 26.16,-69.71 L 26.31,-69.78 L 26.53,-69.92 L 26.58,-69.93 L 26.74,-69.93 L 26.93,-69.93 L 27.11,-69.90 L 27.13,-69.91 L 27.21,-69.92 L 27.35,-69.96 L 27.59,-70.04 L 27.75,-70.06 L 27.89,-70.06 L 28.05,-69.97 L 28.27,-69.87 L 28.41,-69.82 L 28.80,-69.73 L 29.14,-69.67 L 29.33,-69.47 L 29.24,-69.39 L 29.19,-69.37 L 29.02,-69.29 L 28.85,-69.18 L 28.83,-69.12 L 28.89,-69.06 L 28.97,-69.02 L 28.90,-69.01 L 28.69,-68.96 L 28.57,-68.93 L 28.41,-68.90 L 28.45,-68.87 L 28.71,-68.87 L 28.74,-68.86 L 28.77,-68.84 L 28.78,-68.81 L 28.75,-68.77 L 28.48,-68.54 L 28.47,-68.49 L 28.56,-68.35 L 28.69,-68.19 L 29.06,-68.12 L 29.34,-68.06 L 29.52,-67.93 L 29.82,-67.75 L 29.98,-67.69 L 29.99,-67.67 L 29.94,-67.55 L 29.75,-67.43 L 29.57,-67.32 L 29.39,-67.20 L 29.24,-67.10 L 29.09,-66.97 L 29.07,-66.93 L 29.07,-66.89 L 29.09,-66.85 L 29.29,-66.70 L 29.37,-66.62 L 29.46,-66.53 L 29.54,-66.44 L 29.59,-66.36 L 29.67,-66.28 L 29.72,-66.23 L 29.80,-66.18 L 29.90,-66.09 L 29.94,-66.02 L 30.09,-65.79 L 30.10,-65.73 L 30.10,-65.68 L 30.03,-65.67 L 29.88,-65.66 L 29.72,-65.63 L 29.72,-65.62 L 29.82,-65.57 L 29.73,-65.47 L 29.71,-65.34 L 29.62,-65.27 L 29.61,-65.25 L 29.61,-65.23 L 29.63,-65.22 L 29.81,-65.20 L 29.83,-65.19 L 29.83,-65.15 L 29.81,-65.11 L 29.72,-65.08 L 29.62,-65.04 L 29.60,-65.00 L 29.60,-64.97 L 29.64,-64.91 L 29.70,-64.85 L 29.78,-64.80 L 30.07,-64.77 L 30.11,-64.73 L 30.13,-64.69 L 30.12,-64.64 L 29.99,-64.56 L 29.99,-64.52 L 30.04,-64.44 L 30.11,-64.37 L 30.39,-64.28 L 30.49,-64.24 L 30.51,-64.20 L 30.53,-64.14 L 30.53,-64.08 L 30.50,-64.02 L 30.42,-63.95 L 30.21,-63.80 L 30.00,-63.75 L 29.99,-63.74 L 30.06,-63.69 L 30.42,-63.50 L 30.66,-63.42 L 30.97,-63.30 L 31.18,-63.21 L 31.25,-63.14 L 31.34,-63.07 L 31.44,-63.01 L 31.51,-62.96 L 31.54,-62.92 L 31.53,-62.89 L 31.44,-62.78 L 31.38,-62.69 L 31.29,-62.57 L 31.19,-62.48 L 30.94,-62.32 L 30.57,-62.13 L 30.48,-62.07 L 30.31,-61.96 L 30.01,-61.76 L 29.93,-61.71 L 29.69,-61.55 L 29.58,-61.49 L 29.49,-61.44 L 29.25,-61.29 L 28.99,-61.17 L 28.74,-61.06 L 28.66,-61.00 L 28.57,-60.96 L 28.46,-60.92 L 28.41,-60.90 L 28.15,-60.75 L 27.80,-60.54 L 27.76,-60.53 L 27.67,-60.50 L 27.53,-60.49 L 27.46,-60.46 L 27.24,-60.54 L 27.21,-60.54 L 27.08,-60.53 L 26.95,-60.47 L 26.72,-60.46 L 26.61,-60.44 L 26.53,-60.41 L 26.52,-60.47 L 26.55,-60.55 L 26.60,-60.60 L 26.61,-60.63 L 26.57,-60.62 L 26.50,-60.55 L 26.46,-60.47 L 26.38,-60.42 L 26.20,-60.41 L 26.04,-60.47 L 25.96,-60.47 L 26.01,-60.43 L 26.04,-60.37 L 26.04,-60.34 L 25.95,-60.35 L 25.85,-60.31 L 25.76,-60.27 L 25.72,-60.27 L 25.66,-60.33 L 25.55,-60.30 L 25.46,-60.26 L 25.27,-60.25 L 25.16,-60.19 L 24.96,-60.16 L 24.85,-60.16 L 24.60,-60.11 L 24.52,-60.05 L 24.45,-60.02 L 24.34,-60.04 L 24.03,-60.01 L 23.72,-59.97 L 23.59,-59.97 L 23.46,-59.99 L 23.33,-59.93 L 23.18,-59.84 L 23.02,-59.82 L 22.96,-59.83 L 23.01,-59.87 L 23.12,-59.91 L 23.19,-59.97 L 23.20,-60.02 L 23.15,-60.04 L 23.08,-60.05 L 22.99,-60.10 L 22.91,-60.21 L 22.87,-60.22 L 22.84,-60.19 L 22.82,-60.10 L 22.79,-60.08 L 22.75,-60.06 L 22.70,-60.04 L 22.65,-60.03 L 22.46,-60.03 L 22.44,-60.07 L 22.44,-60.09 L 22.47,-60.15 L 22.44,-60.16 L 22.47,-60.20 L 22.51,-60.20 L 22.56,-60.21 L 22.59,-60.23 L 22.59,-60.26 L 22.52,-60.26 L 22.51,-60.28 L 22.58,-60.36 L 22.58,-60.38 L 22.56,-60.39 L 22.52,-60.38 L 22.26,-60.40 L 21.93,-60.50 L 21.85,-60.51 L 21.81,-60.59 L 21.73,-60.58 L 21.61,-60.53 L 21.53,-60.57 L 21.44,-60.60 L 21.41,-60.64 L 21.41,-60.70 L 21.40,-60.77 L 21.38,-60.85 L 21.36,-60.97 L 21.38,-61.06 L 21.45,-61.13 L 21.48,-61.17 L 21.51,-61.28 L 21.52,-61.41 L 21.50,-61.45 L 21.51,-61.48 L 21.57,-61.48 L 21.55,-61.51 L 21.53,-61.52 L 21.50,-61.55 L 21.52,-61.57 L 21.59,-61.57 L 21.60,-61.58 L 21.61,-61.59 L 21.55,-61.67 L 21.55,-61.70 L 21.47,-61.81 L 21.38,-61.91 L 21.26,-61.99 L 21.30,-62.11 L 21.35,-62.22 L 21.34,-62.28 L 21.32,-62.34 L 21.17,-62.41 L 21.14,-62.51 L 21.10,-62.62 L 21.12,-62.69 L 21.14,-62.74 L 21.20,-62.79 L 21.46,-62.95 L 21.47,-63.03 L 21.65,-63.04 L 21.57,-63.11 L 21.55,-63.16 L 21.55,-63.20 L 21.80,-63.24 L 21.90,-63.21 L 22.12,-63.24 L 22.32,-63.31 L 22.32,-63.35 L 22.29,-63.38 L 22.24,-63.44 L 22.27,-63.45 L 22.35,-63.44 L 22.31,-63.47 L 22.32,-63.50 L 22.40,-63.49 L 22.53,-63.58 L 22.53,-63.65 L 22.76,-63.68 L 23.01,-63.82 L 23.13,-63.86 L 23.25,-63.90 L 23.49,-64.03 L 23.60,-64.04 L 23.65,-64.13 L 23.86,-64.26 L 23.92,-64.27 L 24.02,-64.39 L 24.28,-64.52 L 24.44,-64.68 L 24.53,-64.74 L 24.56,-64.80 L 24.66,-64.81 L 24.75,-64.85 L 24.94,-64.88 L 25.13,-64.88 L 25.21,-64.85 L 25.29,-64.86 L 25.28,-64.92 L 25.23,-64.95 L 25.27,-64.98 L 25.37,-65.01 L 25.36,-65.07 L 25.34,-65.10 L 25.26,-65.14 L 25.30,-65.24 L 25.31,-65.35 L 25.35,-65.48 L 25.24,-65.55 L 24.84,-65.66 L 24.76,-65.66 L 24.67,-65.67 L 24.58,-65.76 L 24.62,-65.83 L 24.63,-65.86 L 24.59,-65.86 L 24.53,-65.82 L 24.40,-65.78 L 24.24,-65.81 L 24.16,-65.81 Z M 21.99,-60.34 L 21.92,-60.33 L 21.82,-60.38 L 21.81,-60.40 L 21.85,-60.41 L 21.82,-60.45 L 21.83,-60.47 L 21.91,-60.44 L 21.95,-60.40 L 21.91,-60.39 L 21.98,-60.36 L 21.99,-60.34 Z M 21.22,-63.24 L 21.23,-63.22 L 21.29,-63.23 L 21.37,-63.26 L 21.42,-63.25 L 21.42,-63.20 L 21.38,-63.20 L 21.37,-63.21 L 21.32,-63.18 L 21.31,-63.16 L 21.25,-63.15 L 21.15,-63.20 L 21.08,-63.28 L 21.24,-63.28 L 21.22,-63.26 L 21.22,-63.24 Z M 22.18,-60.37 L 22.30,-60.35 L 22.35,-60.36 L 22.42,-60.30 L 22.31,-60.27 L 22.31,-60.23 L 22.35,-60.20 L 22.36,-60.17 L 22.26,-60.17 L 22.21,-60.20 L 22.19,-60.24 L 22.14,-60.26 L 22.08,-60.29 L 22.11,-60.31 L 22.13,-60.36 L 22.18,-60.37 Z M 21.45,-60.53 L 21.44,-60.48 L 21.37,-60.49 L 21.30,-60.48 L 21.24,-60.53 L 21.21,-60.60 L 21.22,-60.62 L 21.27,-60.64 L 21.30,-60.60 L 21.45,-60.53 Z M 21.83,-60.14 L 21.73,-60.11 L 21.70,-60.11 L 21.70,-60.17 L 21.76,-60.20 L 21.86,-60.20 L 21.83,-60.14 Z M 21.63,-60.11 L 21.54,-60.10 L 21.49,-60.13 L 21.51,-60.15 L 21.57,-60.17 L 21.63,-60.17 L 21.65,-60.14 L 21.63,-60.11 Z M 24.85,-64.99 L 24.70,-64.96 L 24.58,-64.98 L 24.58,-65.04 L 24.65,-65.07 L 24.79,-65.09 L 24.97,-65.06 L 25.00,-65.04 L 24.89,-65.03 L 24.85,-64.99 Z"/>
<path data-id="0-1" d="M26.70,-60.87,25.66,-60.98"/>
<path data-id="0-10" d="M26.70,-60.87,26.92,-60.47"/>
<path data-id="0-2" d="M26.70,-60.87,27.27,-61.69"/>
<path data-id="0-17" d="M26.70,-60.87,28.19,-61.06"/>
<path data-id="1-11" d="M25.66,-60.98,24.94,-60.17"/>
<path data-id="2-25" d="M27.27,-61.69,27.68,-62.89"/>
<path data-id="2-3" d="M27.27,-61.69,25.73,-62.23"/>
<path data-id="3-6" d="M25.73,-62.23,23.79,-61.50"/>
<path data-id="4-24" d="M22.83,-62.80,21.62,-63.10"/>
<path data-id="4-5" d="M22.83,-62.80,21.78,-61.48"/>
<path data-id="5-8" d="M21.78,-61.48,21.51,-61.13"/>
<path data-id="6-7" d="M23.79,-61.50,24.46,-61.00"/>
<path data-id="7-12" d="M24.46,-61.00,24.65,-60.21"/>
<path data-id="8-9" d="M21.51,-61.13,22.27,-60.45"/>
<path data-id="9-13" d="M22.27,-60.45,23.13,-60.38"/>
<path data-id="11-12" d="M24.94,-60.17,24.65,-60.21"/>
<path data-id="12-13" d="M24.65,-60.21,23.13,-60.38"/>
<path data-id="16-17" d="M29.77,-62.60,28.19,-61.06"/>
<path data-id="16-25" d="M29.77,-62.60,27.68,-62.89"/>
<path data-id="18-19" d="M25.47,-65.01,25.35,-65.18"/>
<path data-id="18-22" d="M25.47,-65.01,28.22,-64.50"/>
<path data-id="18-23" d="M25.47,-65.01,23.13,-63.84"/>
<path data-id="19-20" d="M25.35,-65.18,25.72,-66.50"/>
<path data-id="20-21" d="M25.72,-66.50,26.60,-67.42"/>
<path data-id="20-22" d="M25.72,-66.50,28.22,-64.50"/>
<path data-id="22-25" d="M28.22,-64.50,27.68,-62.89"/>
<path data-id="23-24" d="M23.13,-63.84,21.62,-63.10"/>
<circle data-id="0" cx="26.70" cy="-60.87" r="0.07px"/>
<text data-id="0" x="26.70" y="-60.87">Kouvola</text>
<circle data-id="1" cx="25.66" cy="-60.98" r="0.07px"/>
<text data-id="1" x="25.66" y="-60.98">Lahti</text>
<circle data-id="2" cx="27.27" cy="-61.69" r="0.07px"/>
<text data-id="2" x="27.27" y="-61.69">Mikkeli</text>
<circle data-id="3" cx="25.73" cy="-62.23" r="0.07px"/>
<text data-id="3" x="25.73" y="-62.23">Jyvaskyla</text>
<circle data-id="4" cx="22.83" cy="-62.80" r="0.07px"/>
<text data-id="4" x="22.83" y="-62.80">Seinajoki</text>
<circle data-id="5" cx="21.78" cy="-61.48" r="0.07px"/>
<text data-id="5" x="21.78" y="-61.48">Pori</text>
<circle data-id="6" cx="23.79" cy="-61.50" r="0.07px"/>
<text data-id="6" x="23.79" y="-61.50">Tampere</text>
<circle data-id="7" cx="24.46" cy="-61.00" r="0.07px"/>
<text data-id="7" x="24.46" y="-61.00">Hameenlinna</text>
<circle data-id="8" cx="21.51" cy="-61.13" r="0.07px"/>
<text data-id="8" x="21.51" y="-61.13">Rauma</text>
<circle data-id="9" cx="22.27" cy="-60.45" r="0.07px"/>
<text data-id="9" x="22.27" y="-60.45">Turku</text>
<circle data-id="10" cx="26.92" cy="-60.47" r="0.07px"/>
<text data-id="10" x="26.92" y="-60.47">Kotka</text>
<circle data-id="11" cx="24.94" cy="-60.17" r="0.07px"/>
<text data-id="11" x="24.94" y="-60.17">Helsinki</text>
<circle data-id="12" cx="24.65" cy="-60.21" r="0.07px"/>
<text data-id="12" x="24.65" y="-60.21">Espoo</text>
<circle data-id="13" cx="23.13" cy="-60.38" r="0.07px"/>
<text data-id="13" x="23.13" y="-60.38">Salo</text>
<circle data-id="16" cx="29.77" cy="-62.60" r="0.07px"/>
<text data-id="16" x="29.77" y="-62.60">Joensuu</text>
<circle data-id="17" cx="28.19" cy="-61.06" r="0.07px"/>
<text data-id="17" x="28.19" y="-61.06">Lappeenranta</text>
<circle data-id="18" cx="25.47" cy="-65.01" r="0.07px"/>
<text data-id="18" x="25.47" y="-65.01">Oulu</text>
<circle data-id="19" cx="25.35" cy="-65.18" r="0.07px"/>
<text data-id="19" x="25.35" y="-65.18">Haukipudas</text>
<circle data-id="20" cx="25.72" cy="-66.50" r="0.07px"/>
<text data-id="20" x="25.72" y="-66.50">Rovaniemi</text>
<circle data-id="21" cx="26.60" cy="-67.42" r="0.07px"/>
<text data-id="21" x="26.60" y="-67.42">Sodankyla</text>
<circle data-id="22" cx="28.22" cy="-64.50" r="0.07px"/>
<text data-id="22" x="28.22" y="-64.50">Ristijavi</text>
<circle data-id="23" cx="23.13" cy="-63.84" r="0.07px"/>
<text data-id="23" x="23.13" y="-63.84">Kokkola</text>
<circle data-id="24" cx="21.62" cy="-63.10" r="0.07px"/>
<text data-id="24" x="21.62" y="-63.10">Vaasa</text>
<circle data-id="25" cx="27.68" cy="-62.89" r="0.07px"/>
<text data-id="25" x="27.68" y="-62.89">Koupio</text>
</svg>
