<svg id="topo" width="1090.00" height="382.43" viewBox="-48.71 -45.00 1090.00 382.43" xmlns="http://www.w3.org/2000/svg">
<style>#topo path {fill: none; stroke: grey; stroke-width: 6;} #topo circle {fill: lightblue; stroke: none;} #topo text {fill: black; stroke: none; font-size: 16; font-family: sans-serif; text-anchor:middle;}</style>
<path d="M-3.71,180.52,129.51,199.19"/>
<path d="M-3.33,222.11,129.51,199.19"/>
<path d="M478.47,14.88,801.58,0.00"/>
<path d="M478.47,14.88,129.51,199.19"/>
<path d="M801.58,0.00,996.29,109.71"/>
<path d="M129.51,199.19,229.99,258.98"/>
<path d="M129.51,199.19,62.21,292.43"/>
<circle cx="-3.71" cy="180.52" r="10"/>
<text x="-3.71" y="185.52">New York</text>
<circle cx="-3.33" cy="222.11" r="10"/>
<text x="-3.33" y="227.11">London</text>
<circle cx="478.47" cy="14.88" r="10"/>
<text x="478.47" y="19.88">Stockholm</text>
<circle cx="801.58" cy="0.00" r="10"/>
<text x="801.58" y="5.00">St Petersburg</text>
<circle cx="996.29" cy="109.71" r="10"/>
<text x="996.29" y="114.71">Moscow</text>
<circle cx="129.51" cy="199.19" r="10"/>
<text x="129.51" y="204.19">Amsterdam</text>
<circle cx="229.99" cy="258.98" r="10"/>
<text x="229.99" y="263.98">Frankfurt</text>
<circle cx="62.21" cy="292.43" r="10"/>
<text x="62.21" y="297.43">Paris</text>
</svg>
