<svg id="topo" width="1090.00" height="653.13" viewBox="-412.92 -45.00 1090.00 653.13" xmlns="http://www.w3.org/2000/svg">
<style>#topo path {fill: none; stroke: grey; stroke-width: 6;} #topo circle {fill: lightblue; stroke: none;} #topo text {fill: black; stroke: none; font-size: 16; font-family: sans-serif; text-anchor:middle;}</style>
<path d="M82.16,212.37,73.08,237.97"/>
<path d="M82.16,212.37,211.15,156.89"/>
<path d="M82.16,212.37,225.35,209.84"/>
<path d="M82.16,212.37,242.40,489.04"/>
<path d="M73.08,237.97,-2.11,226.91"/>
<path d="M211.15,156.89,415.95,93.69"/>
<path d="M211.15,156.89,225.35,209.84"/>
<path d="M211.15,156.89,632.08,155.60"/>
<path d="M211.15,156.89,-367.92,14.73"/>
<path d="M211.15,156.89,427.96,0.00"/>
<path d="M211.15,156.89,303.56,95.44"/>
<path d="M285.10,211.65,450.34,188.97"/>
<path d="M285.10,211.65,225.35,209.84"/>
<path d="M285.10,211.65,242.32,250.78"/>
<path d="M225.35,209.84,242.32,250.78"/>
<path d="M225.35,209.84,103.01,258.79"/>
<path d="M225.35,209.84,125.14,303.55"/>
<path d="M225.35,209.84,583.93,563.13"/>
<path d="M225.35,209.84,240.06,280.72"/>
<path d="M225.35,209.84,632.08,155.60"/>
<path d="M242.32,250.78,287.46,283.38"/>
<path d="M103.01,258.79,39.47,271.53"/>
<path d="M39.47,271.53,125.14,303.55"/>
<path d="M39.47,271.53,-62.22,413.30"/>
<path d="M39.47,271.53,-2.11,226.91"/>
<path d="M125.14,303.55,209.77,388.46"/>
<path d="M125.14,303.55,-62.22,413.30"/>
<path d="M209.77,388.46,365.22,449.80"/>
<path d="M209.77,388.46,560.68,501.52"/>
<path d="M209.77,388.46,242.40,489.04"/>
<path d="M209.77,388.46,-62.22,413.30"/>
<path d="M209.77,388.46,240.06,280.72"/>
<path d="M365.22,449.80,560.68,501.52"/>
<path d="M365.22,449.80,391.93,374.97"/>
<path d="M365.22,449.80,240.06,280.72"/>
<path d="M586.64,436.11,391.93,374.97"/>
<path d="M586.64,436.11,438.68,345.82"/>
<path d="M438.68,345.82,319.94,294.30"/>
<path d="M438.68,345.82,391.93,374.97"/>
<path d="M319.94,294.30,287.46,283.38"/>
<path d="M319.94,294.30,391.93,374.97"/>
<path d="M319.94,294.30,277.92,332.39"/>
<path d="M287.46,283.38,240.06,280.72"/>
<path d="M-153.47,441.86,-62.22,413.30"/>
<path d="M-153.47,441.86,-2.11,226.91"/>
<path d="M277.92,332.39,243.74,318.62"/>
<path d="M243.74,318.62,240.06,280.72"/>
<path d="M450.34,188.97,405.07,135.54"/>
<path d="M-105.31,196.07,-2.11,226.91"/>
<path d="M427.96,0.00,303.56,95.44"/>
<path d="M303.56,95.44,374.19,76.64"/>
<path d="M415.95,93.69,405.07,135.54"/>
<circle cx="82.16" cy="212.37" r="10"/>
<text x="82.16" y="217.37">NL</text>
<circle cx="73.08" cy="237.97" r="10"/>
<text x="73.08" y="242.97">BE</text>
<circle cx="211.15" cy="156.89" r="10"/>
<text x="211.15" y="161.89">DK</text>
<circle cx="285.10" cy="211.65" r="10"/>
<text x="285.10" y="216.65">PL</text>
<circle cx="225.35" cy="209.84" r="10"/>
<text x="225.35" y="214.84">DE</text>
<circle cx="242.32" cy="250.78" r="10"/>
<text x="242.32" y="255.78">CZ</text>
<circle cx="103.01" cy="258.79" r="10"/>
<text x="103.01" y="263.79">LU</text>
<circle cx="39.47" cy="271.53" r="10"/>
<text x="39.47" y="276.53">FR</text>
<circle cx="125.14" cy="303.55" r="10"/>
<text x="125.14" y="308.55">CH</text>
<circle cx="209.77" cy="388.46" r="10"/>
<text x="209.77" y="393.46">IT</text>
<circle cx="365.22" cy="449.80" r="10"/>
<text x="365.22" y="454.80">GR</text>
<circle cx="560.68" cy="501.52" r="10"/>
<text x="560.68" y="506.52">CY</text>
<circle cx="583.93" cy="563.13" r="10"/>
<text x="583.93" y="568.13">IL</text>
<circle cx="242.40" cy="489.04" r="10"/>
<text x="242.40" y="494.04">MT</text>
<circle cx="586.64" cy="436.11" r="10"/>
<text x="586.64" y="441.11">TR</text>
<circle cx="438.68" cy="345.82" r="10"/>
<text x="438.68" y="350.82">RO</text>
<circle cx="319.94" cy="294.30" r="10"/>
<text x="319.94" y="299.30">HU</text>
<circle cx="287.46" cy="283.38" r="10"/>
<text x="287.46" y="288.38">SK</text>
<circle cx="-153.47" cy="441.86" r="10"/>
<text x="-153.47" y="446.86">PT</text>
<circle cx="-62.22" cy="413.30" r="10"/>
<text x="-62.22" y="418.30">ES</text>
<circle cx="391.93" cy="374.97" r="10"/>
<text x="391.93" y="379.97">BG</text>
<circle cx="277.92" cy="332.39" r="10"/>
<text x="277.92" y="337.39">HR</text>
<circle cx="243.74" cy="318.62" r="10"/>
<text x="243.74" y="323.62">SL</text>
<circle cx="240.06" cy="280.72" r="10"/>
<text x="240.06" y="285.72">AT</text>
<circle cx="450.34" cy="188.97" r="10"/>
<text x="450.34" y="193.97">LT</text>
<circle cx="632.08" cy="155.60" r="10"/>
<text x="632.08" y="160.60">RU</text>
<circle cx="-367.92" cy="14.73" r="10"/>
<text x="-367.92" y="19.73">IS</text>
<circle cx="-105.31" cy="196.07" r="10"/>
<text x="-105.31" y="201.07">IE</text>
<circle cx="-2.11" cy="226.91" r="10"/>
<text x="-2.11" y="231.91">UK</text>
<circle cx="427.96" cy="0.00" r="10"/>
<text x="427.96" y="5.00">NO</text>
<circle cx="303.56" cy="95.44" r="10"/>
<text x="303.56" y="100.44">SE</text>
<circle cx="374.19" cy="76.64" r="10"/>
<text x="374.19" y="81.64">FI</text>
<circle cx="415.95" cy="93.69" r="10"/>
<text x="415.95" y="98.69">EE</text>
<circle cx="405.07" cy="135.54" r="10"/>
<text x="405.07" y="140.54">LV</text>
</svg>
