<svg width="1090.00" height="726.62" viewBox="-253.13 -45.00 1090.00 726.62" xmlns="http://www.w3.org/2000/svg">
<style>path {fill: none; stroke: grey; stroke-width: 6;} circle {fill: lightblue; stroke: none;} text {fill: black; stroke: none; font-size: 16; font-family: sans-serif; text-anchor:middle;}</style>
<path d="M328.62,213.04,386.63,159.98"/>
<path d="M328.62,213.04,305.60,157.52"/>
<path d="M328.62,213.04,389.82,257.25"/>
<path d="M169.71,284.59,325.55,253.64"/>
<path d="M169.71,284.59,53.52,241.17"/>
<path d="M169.71,284.59,284.48,399.75"/>
<path d="M53.52,241.17,305.60,157.52"/>
<path d="M53.52,241.17,-84.37,433.43"/>
<path d="M53.52,241.17,99.10,195.67"/>
<path d="M53.52,241.17,139.69,223.90"/>
<path d="M53.52,241.17,-2.87,180.67"/>
<path d="M305.60,157.52,284.48,399.75"/>
<path d="M305.60,157.52,325.55,253.64"/>
<path d="M305.60,157.52,495.28,482.93"/>
<path d="M305.60,157.52,-142.81,138.84"/>
<path d="M305.60,157.52,411.66,2.38"/>
<path d="M305.60,157.52,111.42,160.95"/>
<path d="M-208.13,472.17,-84.37,433.43"/>
<path d="M389.82,257.25,433.88,272.06"/>
<path d="M284.48,399.75,-84.37,433.43"/>
<path d="M433.88,272.06,325.55,253.64"/>
<path d="M433.88,272.06,594.90,341.92"/>
<path d="M433.88,272.06,330.54,305.03"/>
<path d="M325.55,253.64,376.89,323.71"/>
<path d="M325.55,253.64,330.54,305.03"/>
<path d="M531.50,381.45,495.28,482.93"/>
<path d="M791.87,636.62,-2.87,180.67"/>
<path d="M760.35,553.06,495.28,482.93"/>
<path d="M495.28,482.93,-2.87,180.67"/>
<path d="M99.10,195.67,139.69,223.90"/>
<path d="M99.10,195.67,111.42,160.95"/>
<path d="M-142.81,138.84,-2.87,180.67"/>
<path d="M-2.87,180.67,411.66,2.38"/>
<path d="M-2.87,180.67,111.42,160.95"/>
<path d="M411.66,2.38,564.08,0.00"/>
<path d="M411.66,2.38,549.32,56.76"/>
<path d="M411.66,2.38,610.71,129.21"/>
<path d="M411.66,2.38,386.63,159.98"/>
<circle cx="328.62" cy="213.04" r="10"/>
<text x="328.62" y="218.04">CZ</text>
<circle cx="169.71" cy="284.59" r="10"/>
<text x="169.71" y="289.59">CH</text>
<circle cx="53.52" cy="241.17" r="10"/>
<text x="53.52" y="246.17">FR</text>
<circle cx="305.60" cy="157.52" r="10"/>
<text x="305.60" y="162.52">DE</text>
<circle cx="-208.13" cy="472.17" r="10"/>
<text x="-208.13" y="477.17">PT</text>
<circle cx="389.82" cy="257.25" r="10"/>
<text x="389.82" y="262.25">SK</text>
<circle cx="284.48" cy="399.75" r="10"/>
<text x="284.48" y="404.75">IT</text>
<circle cx="-84.37" cy="433.43" r="10"/>
<text x="-84.37" y="438.43">ES</text>
<circle cx="433.88" cy="272.06" r="10"/>
<text x="433.88" y="277.06">HU</text>
<circle cx="325.55" cy="253.64" r="10"/>
<text x="325.55" y="258.64">AT</text>
<circle cx="594.90" cy="341.92" r="10"/>
<text x="594.90" y="346.92">RO</text>
<circle cx="531.50" cy="381.45" r="10"/>
<text x="531.50" y="386.45">BG</text>
<circle cx="376.89" cy="323.71" r="10"/>
<text x="376.89" y="328.71">HR</text>
<circle cx="330.54" cy="305.03" r="10"/>
<text x="330.54" y="310.03">SL</text>
<circle cx="791.87" cy="636.62" r="10"/>
<text x="791.87" y="641.62">IL</text>
<circle cx="760.35" cy="553.06" r="10"/>
<text x="760.35" y="558.06">CY</text>
<circle cx="495.28" cy="482.93" r="10"/>
<text x="495.28" y="487.93">GR</text>
<circle cx="99.10" cy="195.67" r="10"/>
<text x="99.10" y="200.67">BE</text>
<circle cx="139.69" cy="223.90" r="10"/>
<text x="139.69" y="228.90">LU</text>
<circle cx="-142.81" cy="138.84" r="10"/>
<text x="-142.81" y="143.84">IE</text>
<circle cx="-2.87" cy="180.67" r="10"/>
<text x="-2.87" y="185.67">UK</text>
<circle cx="411.66" cy="2.38" r="10"/>
<text x="411.66" y="7.38">SE</text>
<circle cx="564.08" cy="0.00" r="10"/>
<text x="564.08" y="5.00">EE</text>
<circle cx="549.32" cy="56.76" r="10"/>
<text x="549.32" y="61.76">LV</text>
<circle cx="610.71" cy="129.21" r="10"/>
<text x="610.71" y="134.21">LT</text>
<circle cx="386.63" cy="159.98" r="10"/>
<text x="386.63" y="164.98">PL</text>
<circle cx="111.42" cy="160.95" r="10"/>
<text x="111.42" y="165.95">NL</text>
</svg>
