<svg width="1090.00" height="444.50" viewBox="2333.76 -45.00 1090.00 444.50" xmlns="http://www.w3.org/2000/svg">
<style>path {fill: none; stroke: grey; stroke-width: 6;} circle {fill: lightblue; stroke: none;} text {fill: black; stroke: none; font-size: 16; font-family: sans-serif; text-anchor:middle;}</style>
<path d="M2457.10,253.49,2472.35,188.44"/>
<path d="M2614.64,269.51,2675.05,331.30"/>
<path d="M2479.78,56.67,2593.35,19.67"/>
<path d="M2479.78,56.67,2378.76,98.76"/>
<path d="M2472.35,188.44,2600.69,148.46"/>
<path d="M2472.35,188.44,2378.76,98.76"/>
<path d="M2772.75,299.96,2879.52,214.25"/>
<path d="M2772.75,299.96,2675.05,331.30"/>
<path d="M2879.52,214.25,3069.37,290.51"/>
<path d="M2675.05,331.30,2665.15,125.50"/>
<path d="M2675.05,331.30,2708.95,250.00"/>
<path d="M3069.37,290.51,3166.30,354.50"/>
<path d="M2593.35,19.67,2782.58,0.00"/>
<path d="M2809.27,136.57,2665.15,125.50"/>
<path d="M3378.76,172.33,3308.63,153.11"/>
<path d="M3378.76,172.33,3188.35,216.53"/>
<path d="M3378.76,172.33,3265.03,286.54"/>
<path d="M3265.03,286.54,2864.60,320.43"/>
<path d="M2864.60,320.43,3166.30,354.50"/>
<path d="M3162.49,239.38,3188.35,216.53"/>
<path d="M2600.69,148.46,2665.15,125.50"/>
<path d="M3188.35,216.53,3039.09,159.45"/>
<path d="M2782.58,0.00,2834.21,30.53"/>
<path d="M2606.39,114.54,2665.15,125.50"/>
<path d="M2665.15,125.50,2754.30,65.75"/>
<circle cx="2457.10" cy="253.49" r="10"/>
<text x="2457.10" y="258.49">Klatovy</text>
<circle cx="2614.64" cy="269.51" r="10"/>
<text x="2614.64" y="274.51">Pisek</text>
<circle cx="2479.78" cy="56.67" r="10"/>
<text x="2479.78" y="61.67">Chomutov</text>
<circle cx="2472.35" cy="188.44" r="10"/>
<text x="2472.35" y="193.44">Plzen</text>
<circle cx="2772.75" cy="299.96" r="10"/>
<text x="2772.75" y="304.96">Jindrichuv Hradec</text>
<circle cx="2879.52" cy="214.25" r="10"/>
<text x="2879.52" y="219.25">Havlickuv Brod</text>
<circle cx="2675.05" cy="331.30" r="10"/>
<text x="2675.05" y="336.30">Ceske Budejovice</text>
<circle cx="2708.95" cy="250.00" r="10"/>
<text x="2708.95" y="255.00">Tabor</text>
<circle cx="3069.37" cy="290.51" r="10"/>
<text x="3069.37" y="295.51">Brno</text>
<circle cx="2593.35" cy="19.67" r="10"/>
<text x="2593.35" y="24.67">Usti nad Labem</text>
<circle cx="2809.27" cy="136.57" r="10"/>
<text x="2809.27" y="141.57">Kolin</text>
<circle cx="3378.76" cy="172.33" r="10"/>
<text x="3378.76" y="177.33">Ostrava</text>
<circle cx="3265.03" cy="286.54" r="10"/>
<text x="3265.03" y="291.54">Zlin</text>
<circle cx="2864.60" cy="320.43" r="10"/>
<text x="2864.60" y="325.43">Ostrokovice</text>
<circle cx="3166.30" cy="354.50" r="10"/>
<text x="3166.30" y="359.50">Hodonin</text>
<circle cx="3162.49" cy="239.38" r="10"/>
<text x="3162.49" y="244.38">Prostejov</text>
<circle cx="2600.69" cy="148.46" r="10"/>
<text x="2600.69" y="153.46">Beroun</text>
<circle cx="2378.76" cy="98.76" r="10"/>
<text x="2378.76" y="103.76">Karlovy vary</text>
<circle cx="3308.63" cy="153.11" r="10"/>
<text x="3308.63" y="158.11">Opava</text>
<circle cx="3188.35" cy="216.53" r="10"/>
<text x="3188.35" y="221.53">Olomouc</text>
<circle cx="3039.09" cy="159.45" r="10"/>
<text x="3039.09" y="164.45">Ceska Trebova</text>
<circle cx="2782.58" cy="0.00" r="10"/>
<text x="2782.58" y="5.00">Liberec</text>
<circle cx="2834.21" cy="30.53" r="10"/>
<text x="2834.21" y="35.53">Semily</text>
<circle cx="2606.39" cy="114.54" r="10"/>
<text x="2606.39" y="119.54">Kladno</text>
<circle cx="2665.15" cy="125.50" r="10"/>
<text x="2665.15" y="130.50">Prague</text>
<circle cx="2754.30" cy="65.75" r="10"/>
<text x="2754.30" y="70.75">Mlada Boleslay</text>
</svg>
