<svg width="1090.00" height="484.13" viewBox="3199.27 -45.00 1090.00 484.13" xmlns="http://www.w3.org/2000/svg">
<style>path {fill: none; stroke: grey; stroke-width: 6;} circle {fill: lightblue; stroke: none;} text {fill: black; stroke: none; font-size: 16; font-family: sans-serif; text-anchor:middle;}</style>
<path d="M4061.85,0.00,3721.12,117.65"/>
<path d="M3870.27,0.25,3721.12,117.65"/>
<path d="M3784.98,97.72,3721.12,117.65"/>
<path d="M3947.85,179.15,3721.12,117.65"/>
<path d="M3947.85,179.15,4227.98,110.75"/>
<path d="M3700.29,218.24,3848.43,233.32"/>
<path d="M3700.29,218.24,3721.12,117.65"/>
<path d="M4244.27,28.26,3721.12,117.65"/>
<path d="M4227.98,110.75,3937.73,360.97"/>
<path d="M3848.43,233.32,3937.73,360.97"/>
<path d="M3706.81,374.59,3721.12,117.65"/>
<path d="M3563.49,394.13,3721.12,117.65"/>
<path d="M3937.73,360.97,4123.74,276.87"/>
<path d="M3527.66,234.53,3721.12,117.65"/>
<path d="M3478.80,338.76,3721.12,117.65"/>
<path d="M3657.95,342.02,3721.12,117.65"/>
<path d="M3721.12,117.65,3739.38,61.89"/>
<path d="M3721.12,117.65,3320.70,321.79"/>
<path d="M3721.12,117.65,3598.08,177.86"/>
<path d="M3721.12,117.65,3599.32,104.23"/>
<path d="M3244.27,81.43,3446.57,81.43"/>
<path d="M3244.27,81.43,3248.48,169.86"/>
<path d="M3248.48,169.86,3291.94,246.25"/>
<path d="M3291.94,246.25,3500.59,196.75"/>
<path d="M3598.08,177.86,3500.59,196.75"/>
<path d="M3446.57,81.43,3599.32,104.23"/>
<circle cx="4061.85" cy="0.00" r="10"/>
<text x="4061.85" y="5.00">Miskolc</text>
<circle cx="3870.27" cy="0.25" r="10"/>
<text x="3870.27" y="5.25">Salgotarjan</text>
<circle cx="3784.98" cy="97.72" r="10"/>
<text x="3784.98" y="102.72">Godollo</text>
<circle cx="3947.85" cy="179.15" r="10"/>
<text x="3947.85" y="184.15">Szolnok</text>
<circle cx="3700.29" cy="218.24" r="10"/>
<text x="3700.29" y="223.24">Dunaujvaros</text>
<circle cx="4244.27" cy="28.26" r="10"/>
<text x="4244.27" y="33.26">Nyiregyhaza</text>
<circle cx="4227.98" cy="110.75" r="10"/>
<text x="4227.98" y="115.75">Debrecen</text>
<circle cx="3848.43" cy="233.32" r="10"/>
<text x="3848.43" y="238.32">Kecskemet</text>
<circle cx="3706.81" cy="374.59" r="10"/>
<text x="3706.81" y="379.59">Baja</text>
<circle cx="3563.49" cy="394.13" r="10"/>
<text x="3563.49" y="399.13">Pecs</text>
<circle cx="3937.73" cy="360.97" r="10"/>
<text x="3937.73" y="365.97">Szeged</text>
<circle cx="3527.66" cy="234.53" r="10"/>
<text x="3527.66" y="239.53">Siofok</text>
<circle cx="3478.80" cy="338.76" r="10"/>
<text x="3478.80" y="343.76">Kaposvar</text>
<circle cx="3657.95" cy="342.02" r="10"/>
<text x="3657.95" y="347.02">Szekszard</text>
<circle cx="4123.74" cy="276.87" r="10"/>
<text x="4123.74" y="281.87">Bekescsaba</text>
<circle cx="3721.12" cy="117.65" r="10"/>
<text x="3721.12" y="122.65">Budapest</text>
<circle cx="3739.38" cy="61.89" r="10"/>
<text x="3739.38" y="66.89">Vac</text>
<circle cx="3244.27" cy="81.43" r="10"/>
<text x="3244.27" y="86.43">Sopron</text>
<circle cx="3248.48" cy="169.86" r="10"/>
<text x="3248.48" y="174.86">Szombathely</text>
<circle cx="3291.94" cy="246.25" r="10"/>
<text x="3291.94" y="251.25">Zalaegerszeg</text>
<circle cx="3320.70" cy="321.79" r="10"/>
<text x="3320.70" y="326.79">Nagykanizsa</text>
<circle cx="3598.08" cy="177.86" r="10"/>
<text x="3598.08" y="182.86">Szekesfehervar</text>
<circle cx="3500.59" cy="196.75" r="10"/>
<text x="3500.59" y="201.75">Veszprem</text>
<circle cx="3446.57" cy="81.43" r="10"/>
<text x="3446.57" y="86.43">Gyor</text>
<circle cx="3599.32" cy="104.23" r="10"/>
<text x="3599.32" y="109.23">Tatabanya</text>
</svg>
