<svg width="1090.00" height="310.61" viewBox="-2143.54 -45.00 1090.00 310.61" xmlns="http://www.w3.org/2000/svg">
<style>path {fill: none; stroke: grey; stroke-width: 6;} circle {fill: lightblue; stroke: none;} text {fill: black; stroke: none; font-size: 16; font-family: sans-serif; text-anchor:middle;}</style>
<path d="M-1366.26,220.61,-1099.84,165.31"/>
<path d="M-1366.26,220.61,-2098.54,103.34"/>
<path d="M-1119.77,168.21,-1098.54,193.61"/>
<path d="M-1119.77,168.21,-1180.65,146.47"/>
<path d="M-1180.65,146.47,-1230.58,156.17"/>
<path d="M-1230.58,156.17,-1271.59,178.70"/>
<path d="M-1271.59,178.70,-1372.31,209.95"/>
<path d="M-1271.59,178.70,-1099.84,165.31"/>
<path d="M-1372.31,209.95,-1874.61,0.00"/>
<path d="M-1874.61,0.00,-1099.84,165.31"/>
<circle cx="-1366.26" cy="220.61" r="10"/>
<text x="-1366.26" y="225.61">New York</text>
<circle cx="-1119.77" cy="168.21" r="10"/>
<text x="-1119.77" y="173.21">Moncton</text>
<circle cx="-1180.65" cy="146.47" r="10"/>
<text x="-1180.65" y="151.47">Edmundston</text>
<circle cx="-1230.58" cy="156.17" r="10"/>
<text x="-1230.58" y="161.17">Quebec</text>
<circle cx="-1271.59" cy="178.70" r="10"/>
<text x="-1271.59" y="183.70">Montreal</text>
<circle cx="-1372.31" cy="209.95" r="10"/>
<text x="-1372.31" y="214.95">Toronto</text>
<circle cx="-1874.61" cy="0.00" r="10"/>
<text x="-1874.61" y="5.00">Buffalo</text>
<circle cx="-1099.84" cy="165.31" r="10"/>
<text x="-1099.84" y="170.31">Albany</text>
<circle cx="-2098.54" cy="103.34" r="10"/>
<text x="-2098.54" y="108.34">Boston</text>
<circle cx="-1098.54" cy="193.61" r="10"/>
<text x="-1098.54" y="198.61">Halifax</text>
</svg>
