<svg width="1090.00" height="578.43" viewBox="-3685.45 -45.00 1090.00 578.43" xmlns="http://www.w3.org/2000/svg">
<style>path {fill: none; stroke: grey; stroke-width: 6;} circle {fill: lightblue; stroke: none;} text {fill: black; stroke: none; font-size: 16; font-family: sans-serif; text-anchor:middle;}</style>
<path d="M-3322.54,210.50,-3218.36,268.52"/>
<path d="M-3322.54,210.50,-3640.45,151.96"/>
<path d="M-3322.54,210.50,-3393.13,166.52"/>
<path d="M-3121.85,230.78,-3073.76,199.14"/>
<path d="M-3121.85,230.78,-3080.67,198.25"/>
<path d="M-3121.85,230.78,-3218.36,268.52"/>
<path d="M-3080.67,198.25,-3218.36,268.52"/>
<path d="M-3080.67,198.25,-3063.66,185.86"/>
<path d="M-3080.67,198.25,-3073.76,199.14"/>
<path d="M-3218.36,268.52,-3205.48,273.07"/>
<path d="M-3266.17,404.40,-3357.73,427.04"/>
<path d="M-3266.17,404.40,-3217.23,330.41"/>
<path d="M-3357.73,427.04,-3504.96,488.43"/>
<path d="M-3205.48,273.07,-3217.23,330.41"/>
<path d="M-3073.76,199.14,-3063.38,118.63"/>
<path d="M-3073.76,199.14,-3054.35,185.05"/>
<path d="M-3063.66,185.86,-3054.35,185.05"/>
<path d="M-3054.35,185.05,-2951.39,130.85"/>
<path d="M-3640.45,151.96,-3393.13,166.52"/>
<path d="M-3393.13,166.52,-3276.13,108.92"/>
<path d="M-3276.13,108.92,-3298.47,75.12"/>
<path d="M-3276.13,108.92,-3063.38,118.63"/>
<path d="M-3298.47,75.12,-3056.39,0.00"/>
<path d="M-3056.39,0.00,-3063.38,118.63"/>
<path d="M-3056.39,0.00,-2640.45,35.84"/>
<path d="M-3063.38,118.63,-2951.39,130.85"/>
<path d="M-2951.39,130.85,-2640.45,35.84"/>
<circle cx="-3322.54" cy="210.50" r="10"/>
<text x="-3322.54" y="215.50">Pittsburgh</text>
<circle cx="-3121.85" cy="230.78" r="10"/>
<text x="-3121.85" y="235.78">Philadelphia</text>
<circle cx="-3080.67" cy="198.25" r="10"/>
<text x="-3080.67" y="203.25">Newark</text>
<circle cx="-3218.36" cy="268.52" r="10"/>
<text x="-3218.36" y="273.52">Ashburn</text>
<circle cx="-3266.17" cy="404.40" r="10"/>
<text x="-3266.17" y="409.40">Raleigh</text>
<circle cx="-3357.73" cy="427.04" r="10"/>
<text x="-3357.73" y="432.04">Charlotte</text>
<circle cx="-3205.48" cy="273.07" r="10"/>
<text x="-3205.48" y="278.07">McLean</text>
<circle cx="-3217.23" cy="330.41" r="10"/>
<text x="-3217.23" y="335.41">Richmond</text>
<circle cx="-3504.96" cy="488.43" r="10"/>
<text x="-3504.96" y="493.43">Atlanta</text>
<circle cx="-3073.76" cy="199.14" r="10"/>
<text x="-3073.76" y="204.14">New York</text>
<circle cx="-3063.66" cy="185.86" r="10"/>
<text x="-3063.66" y="190.86">White Plains</text>
<circle cx="-3054.35" cy="185.05" r="10"/>
<text x="-3054.35" y="190.05">Stamford</text>
<circle cx="-3640.45" cy="151.96" r="10"/>
<text x="-3640.45" y="156.96">Chicago</text>
<circle cx="-3393.13" cy="166.52" r="10"/>
<text x="-3393.13" y="171.52">Cleveland</text>
<circle cx="-3276.13" cy="108.92" r="10"/>
<text x="-3276.13" y="113.92">Buffalo</text>
<circle cx="-3298.47" cy="75.12" r="10"/>
<text x="-3298.47" y="80.12">Toronto</text>
<circle cx="-3056.39" cy="0.00" r="10"/>
<text x="-3056.39" y="5.00">Montreal</text>
<circle cx="-3063.38" cy="118.63" r="10"/>
<text x="-3063.38" y="123.63">Albany</text>
<circle cx="-2951.39" cy="130.85" r="10"/>
<text x="-2951.39" y="135.85">Boston</text>
<circle cx="-2640.45" cy="35.84" r="10"/>
<text x="-2640.45" y="40.84">Halifax</text>
</svg>
