<svg width="1090.00" height="278.61" viewBox="-512.07 -45.00 1090.00 278.61" xmlns="http://www.w3.org/2000/svg">
<style>path {fill: none; stroke: grey; stroke-width: 6;} circle {fill: lightblue; stroke: none;} text {fill: black; stroke: none; font-size: 16; font-family: sans-serif; text-anchor:middle;}</style>
<path d="M18.67,26.57,33.15,35.19"/>
<path d="M18.67,26.57,-0.48,29.87"/>
<path d="M18.67,26.57,8.97,40.01"/>
<path d="M18.67,26.57,-282.56,71.09"/>
<path d="M33.15,35.19,8.97,40.01"/>
<path d="M33.15,35.19,32.64,45.69"/>
<path d="M33.15,35.19,68.97,0.00"/>
<path d="M-0.48,29.87,-282.56,71.09"/>
<path d="M-0.48,29.87,-295.85,77.46"/>
<path d="M8.97,40.01,-295.85,77.46"/>
<path d="M-466.35,83.58,-465.76,83.17"/>
<path d="M-466.35,83.58,-465.76,83.17"/>
<path d="M-466.35,83.58,-321.03,188.61"/>
<path d="M-466.35,83.58,-321.03,188.61"/>
<path d="M-466.35,83.58,-451.46,96.52"/>
<path d="M-466.35,83.58,-295.85,77.46"/>
<path d="M-465.76,83.17,-321.03,188.61"/>
<path d="M-465.76,83.17,-321.03,188.61"/>
<path d="M-321.03,188.61,-282.56,71.09"/>
<path d="M-321.03,188.61,-321.03,188.61"/>
<path d="M-321.03,188.61,-467.07,44.77"/>
<path d="M-321.03,188.61,-334.65,66.75"/>
<path d="M-282.56,71.09,-282.56,71.09"/>
<path d="M-282.56,71.09,-282.56,71.09"/>
<path d="M-282.56,71.09,-282.56,71.09"/>
<path d="M-282.56,71.09,-303.22,59.69"/>
<path d="M-282.56,71.09,-451.46,96.52"/>
<path d="M-282.56,71.09,-334.65,66.75"/>
<path d="M-282.56,71.09,-295.85,77.46"/>
<path d="M-321.03,188.61,435.86,141.45"/>
<path d="M-321.03,188.61,532.93,90.56"/>
<path d="M-322.20,97.68,-369.61,101.37"/>
<path d="M-322.20,97.68,-295.85,77.46"/>
<path d="M-306.18,128.13,-295.85,77.46"/>
<path d="M-451.46,96.52,-369.61,101.37"/>
<path d="M-369.61,101.37,-334.65,66.75"/>
<path d="M-369.61,101.37,-295.85,77.46"/>
<circle cx="18.67" cy="26.57" r="10"/>
<text x="18.67" y="31.57">Amsterdam</text>
<circle cx="33.15" cy="35.19" r="10"/>
<text x="33.15" y="40.19">Frankfurt</text>
<circle cx="-0.48" cy="29.87" r="10"/>
<text x="-0.48" y="34.87">London</text>
<circle cx="8.97" cy="40.01" r="10"/>
<text x="8.97" y="45.01">Paris</text>
<circle cx="-466.35" cy="83.58" r="10"/>
<text x="-466.35" y="88.58">Palo Alto</text>
<circle cx="-465.76" cy="83.17" r="10"/>
<text x="-465.76" y="88.17">Fremont 1</text>
<circle cx="32.64" cy="45.69" r="10"/>
<text x="32.64" y="50.69">Zurich</text>
<circle cx="68.97" cy="0.00" r="10"/>
<text x="68.97" y="5.00">Stockholm</text>
<circle cx="-465.76" cy="83.17" r="10"/>
<text x="-465.76" y="88.17">Fremont 2</text>
<circle cx="-321.03" cy="188.61" r="10"/>
<text x="-321.03" y="193.61">San Jose 2</text>
<circle cx="-282.56" cy="71.09" r="10"/>
<text x="-282.56" y="76.09">New York 3</text>
<circle cx="-282.56" cy="71.09" r="10"/>
<text x="-282.56" y="76.09">New York 2</text>
<circle cx="-282.56" cy="71.09" r="10"/>
<text x="-282.56" y="76.09">New York 1</text>
<circle cx="-321.03" cy="188.61" r="10"/>
<text x="-321.03" y="193.61">San Jose 1</text>
<circle cx="-322.20" cy="97.68" r="10"/>
<text x="-322.20" y="102.68">Atlanta</text>
<circle cx="-306.18" cy="128.13" r="10"/>
<text x="-306.18" y="133.13">Miami</text>
<circle cx="435.86" cy="141.45" r="10"/>
<text x="435.86" y="146.45">Hong Kong</text>
<circle cx="532.93" cy="90.56" r="10"/>
<text x="532.93" y="95.56">Tokyo</text>
<circle cx="-467.07" cy="44.77" r="10"/>
<text x="-467.07" y="49.77">Seattle</text>
<circle cx="-451.46" cy="96.52" r="10"/>
<text x="-451.46" y="101.52">Los Angeles</text>
<circle cx="-369.61" cy="101.37" r="10"/>
<text x="-369.61" y="106.37">Dallas</text>
<circle cx="-334.65" cy="66.75" r="10"/>
<text x="-334.65" y="71.75">Chicago</text>
<circle cx="-303.22" cy="59.69" r="10"/>
<text x="-303.22" y="64.69">Toronto</text>
<circle cx="-295.85" cy="77.46" r="10"/>
<text x="-295.85" y="82.46">Ashburn</text>
</svg>
