<svg id="topo" width="1090.00" height="426.45" viewBox="-11746.50 -45.00 1090.00 426.45" xmlns="http://www.w3.org/2000/svg">
<style>#topo path {fill: none; stroke: grey; stroke-width: 6;} #topo circle {fill: lightblue; stroke: none;} #topo text {fill: black; stroke: none; font-size: 16; font-family: sans-serif; text-anchor:middle;}</style>
<path d="M-11131.02,94.57,-10993.05,127.16"/>
<path d="M-11131.02,94.57,-11178.77,73.06"/>
<path d="M-11131.02,94.57,-11151.20,145.90"/>
<path d="M-11131.02,94.57,-11277.28,119.23"/>
<path d="M-11131.02,94.57,-11048.90,147.41"/>
<path d="M-11131.02,94.57,-11242.74,114.79"/>
<path d="M-10993.05,127.16,-10905.16,145.90"/>
<path d="M-11200.11,42.88,-11232.99,12.09"/>
<path d="M-11200.11,42.88,-11163.90,11.37"/>
<path d="M-11200.11,42.88,-11178.77,73.06"/>
<path d="M-11200.11,42.88,-11250.36,46.93"/>
<path d="M-10763.55,119.58,-10701.50,100.05"/>
<path d="M-10763.55,119.58,-10823.83,112.98"/>
<path d="M-10701.50,100.05,-10731.06,57.89"/>
<path d="M-10701.50,100.05,-10905.16,145.90"/>
<path d="M-10905.16,145.90,-11085.64,264.80"/>
<path d="M-10905.16,145.90,-10823.83,112.98"/>
<path d="M-11048.90,147.41,-11145.46,181.92"/>
<path d="M-11701.50,251.30,-11541.01,190.87"/>
<path d="M-11701.50,251.30,-11681.79,226.36"/>
<path d="M-11155.56,336.45,-11179.79,313.31"/>
<path d="M-11155.56,336.45,-11557.58,143.30"/>
<path d="M-11179.79,313.31,-11226.60,330.89"/>
<path d="M-11265.44,189.32,-11106.04,173.62"/>
<path d="M-11265.44,189.32,-11277.28,119.23"/>
<path d="M-11265.44,189.32,-11242.74,143.01"/>
<path d="M-11265.44,189.32,-11285.37,271.76"/>
<path d="M-11085.64,264.80,-11059.58,281.66"/>
<path d="M-11085.64,264.80,-11251.51,305.77"/>
<path d="M-11085.64,264.80,-11096.15,222.46"/>
<path d="M-11096.15,222.46,-11106.04,173.62"/>
<path d="M-11106.04,173.62,-11145.46,181.92"/>
<path d="M-11106.04,173.62,-11151.20,145.90"/>
<path d="M-11059.58,281.66,-11083.19,287.47"/>
<path d="M-11083.19,287.47,-11557.58,143.30"/>
<path d="M-11557.58,143.30,-11541.01,190.87"/>
<path d="M-11557.58,143.30,-11572.59,85.66"/>
<path d="M-11599.27,193.54,-11681.79,226.36"/>
<path d="M-11251.51,305.77,-11226.60,330.89"/>
<path d="M-11251.51,305.77,-11285.37,271.76"/>
<path d="M-11251.51,305.77,-11362.44,260.61"/>
<path d="M-11251.51,305.77,-11309.88,190.80"/>
<path d="M-11309.30,244.76,-11285.37,271.76"/>
<path d="M-11309.30,244.76,-11362.44,260.61"/>
<path d="M-11404.34,229.21,-11362.44,260.61"/>
<path d="M-11404.34,229.21,-11518.59,213.65"/>
<path d="M-11541.01,190.87,-11478.99,160.59"/>
<path d="M-11541.01,190.87,-11518.59,213.65"/>
<path d="M-11309.88,190.80,-11277.28,119.23"/>
<path d="M-11478.99,160.59,-11277.28,119.23"/>
<path d="M-11478.99,160.59,-11467.01,135.83"/>
<path d="M-11478.99,160.59,-11502.64,123.56"/>
<path d="M-11242.74,143.01,-11242.74,114.79"/>
<path d="M-11467.01,135.83,-11447.95,133.12"/>
<path d="M-11447.95,133.12,-11430.95,138.03"/>
<path d="M-11447.95,133.12,-11477.69,101.54"/>
<path d="M-11232.99,12.09,-11250.36,46.93"/>
<path d="M-11513.21,0.00,-11476.14,61.47"/>
<path d="M-11513.21,0.00,-11517.98,44.40"/>
<path d="M-11517.98,44.40,-11572.59,85.66"/>
<path d="M-11572.59,85.66,-11545.74,96.16"/>
<path d="M-11545.74,96.16,-11502.64,123.56"/>
<path d="M-11502.64,123.56,-11477.69,101.54"/>
<path d="M-11477.69,101.54,-11476.14,61.47"/>
<circle cx="-11131.02" cy="94.57" r="10"/>
<text x="-11131.02" y="99.57">Gainesboro</text>
<circle cx="-10993.05" cy="127.16" r="10"/>
<text x="-10993.05" y="132.16">Wartburg</text>
<circle cx="-11200.11" cy="42.88" r="10"/>
<text x="-11200.11" y="47.88">Scottsville</text>
<circle cx="-11178.77" cy="73.06" r="10"/>
<text x="-11178.77" y="78.06">Lafayette</text>
<circle cx="-10763.55" cy="119.58" r="10"/>
<text x="-10763.55" y="124.58">Greenville</text>
<circle cx="-10701.50" cy="100.05" r="10"/>
<text x="-10701.50" y="105.05">Johnson City</text>
<circle cx="-10905.16" cy="145.90" r="10"/>
<text x="-10905.16" y="150.90">Knoxville</text>
<circle cx="-10823.83" cy="112.98" r="10"/>
<text x="-10823.83" y="117.98">Morristown</text>
<circle cx="-10731.06" cy="57.89" r="10"/>
<text x="-10731.06" y="62.89">Scott County</text>
<circle cx="-11048.90" cy="147.41" r="10"/>
<text x="-11048.90" y="152.41">Crossville</text>
<circle cx="-11701.50" cy="251.30" r="10"/>
<text x="-11701.50" y="256.30">Memphis</text>
<circle cx="-11155.56" cy="336.45" r="10"/>
<text x="-11155.56" y="341.45">Rainsville</text>
<circle cx="-11179.79" cy="313.31" r="10"/>
<text x="-11179.79" y="318.31">Scottsboro</text>
<circle cx="-11265.44" cy="189.32" r="10"/>
<text x="-11265.44" y="194.32">Chapel Hill</text>
<circle cx="-11085.64" cy="264.80" r="10"/>
<text x="-11085.64" y="269.80">Chattanooga</text>
<circle cx="-11096.15" cy="222.46" r="10"/>
<text x="-11096.15" y="227.46">Dunlap</text>
<circle cx="-11106.04" cy="173.62" r="10"/>
<text x="-11106.04" y="178.62">Spencer</text>
<circle cx="-11145.46" cy="181.92" r="10"/>
<text x="-11145.46" y="186.92">McMinnville</text>
<circle cx="-11059.58" cy="281.66" r="10"/>
<text x="-11059.58" y="286.66">Ringgold</text>
<circle cx="-11083.19" cy="287.47" r="10"/>
<text x="-11083.19" y="292.47">Chickamauga</text>
<circle cx="-11557.58" cy="143.30" r="10"/>
<text x="-11557.58" y="148.30">Trenton</text>
<circle cx="-11599.27" cy="193.54" r="10"/>
<text x="-11599.27" y="198.54">Brownsville</text>
<circle cx="-11681.79" cy="226.36" r="10"/>
<text x="-11681.79" y="231.36">Millington</text>
<circle cx="-11251.51" cy="305.77" r="10"/>
<text x="-11251.51" y="310.77">Huntsville</text>
<circle cx="-11226.60" cy="330.89" r="10"/>
<text x="-11226.60" y="335.89">New Hope</text>
<circle cx="-11309.30" cy="244.76" r="10"/>
<text x="-11309.30" y="249.76">Pulaski</text>
<circle cx="-11285.37" cy="271.76" r="10"/>
<text x="-11285.37" y="276.76">Ardmore</text>
<circle cx="-11404.34" cy="229.21" r="10"/>
<text x="-11404.34" y="234.21">Waynesboro</text>
<circle cx="-11362.44" cy="260.61" r="10"/>
<text x="-11362.44" y="265.61">Loretto</text>
<circle cx="-11541.01" cy="190.87" r="10"/>
<text x="-11541.01" y="195.87">Jackson</text>
<circle cx="-11518.59" cy="213.65" r="10"/>
<text x="-11518.59" y="218.65">Henderson</text>
<circle cx="-11309.88" cy="190.80" r="10"/>
<text x="-11309.88" y="195.80">Columbia</text>
<circle cx="-11478.99" cy="160.59" r="10"/>
<text x="-11478.99" y="165.59">Yuma</text>
<circle cx="-11277.28" cy="119.23" r="10"/>
<text x="-11277.28" y="124.23">Nashville</text>
<circle cx="-11242.74" cy="143.01" r="10"/>
<text x="-11242.74" y="148.01">Smyrna</text>
<circle cx="-11242.74" cy="114.79" r="10"/>
<text x="-11242.74" y="119.79">Mt Juliet</text>
<circle cx="-11151.20" cy="145.90" r="10"/>
<text x="-11151.20" y="150.90">Smithville</text>
<circle cx="-11467.01" cy="135.83" r="10"/>
<text x="-11467.01" y="140.83">Bruceton</text>
<circle cx="-11447.95" cy="133.12" r="10"/>
<text x="-11447.95" y="138.12">Camden</text>
<circle cx="-11430.95" cy="138.03" r="10"/>
<text x="-11430.95" y="143.03">New Johnsonville</text>
<circle cx="-11232.99" cy="12.09" r="10"/>
<text x="-11232.99" y="17.09">Bowling Green</text>
<circle cx="-11163.90" cy="11.37" r="10"/>
<text x="-11163.90" y="16.37">Glasgow</text>
<circle cx="-11513.21" cy="0.00" r="10"/>
<text x="-11513.21" y="5.00">Paducah</text>
<circle cx="-11517.98" cy="44.40" r="10"/>
<text x="-11517.98" y="49.40">Mayfield</text>
<circle cx="-11572.59" cy="85.66" r="10"/>
<text x="-11572.59" y="90.66">Union City</text>
<circle cx="-11545.74" cy="96.16" r="10"/>
<text x="-11545.74" y="101.16">Martin</text>
<circle cx="-11502.64" cy="123.56" r="10"/>
<text x="-11502.64" y="128.56">McKenzie</text>
<circle cx="-11477.69" cy="101.54" r="10"/>
<text x="-11477.69" y="106.54">Paris</text>
<circle cx="-11476.14" cy="61.47" r="10"/>
<text x="-11476.14" y="66.47">Murray</text>
<circle cx="-11250.36" cy="46.93" r="10"/>
<text x="-11250.36" y="51.93">Franklin</text>
</svg>
