<svg id="topo" width="1090.00" height="361.68" viewBox="-926.51 -45.00 1090.00 361.68" xmlns="http://www.w3.org/2000/svg">
<style>#topo path {fill: none; stroke: grey; stroke-width: 6;} #topo circle {fill: lightblue; stroke: none;} #topo text {fill: black; stroke: none; font-size: 16; font-family: sans-serif; text-anchor:middle;}</style>
<path d="M-583.04,174.51,-583.04,174.51"/>
<path d="M-583.04,174.51,-319.29,28.75"/>
<path d="M-583.04,174.51,-583.04,174.51"/>
<path d="M-583.04,174.51,-319.29,28.75"/>
<path d="M-549.18,105.74,-583.04,174.51"/>
<path d="M-549.18,105.74,-319.29,28.75"/>
<path d="M-446.20,212.37,-583.04,174.51"/>
<path d="M-446.20,212.37,-319.29,28.75"/>
<path d="M-784.33,250.86,-583.04,174.51"/>
<path d="M-784.33,250.86,-319.29,28.75"/>
<path d="M-881.51,264.74,-784.33,250.86"/>
<path d="M-583.04,174.51,-583.04,174.51"/>
<path d="M-583.04,174.51,-319.29,28.75"/>
<path d="M-784.33,250.86,-319.29,28.75"/>
<path d="M-784.33,250.86,-583.04,174.51"/>
<path d="M-555.28,271.68,-447.29,194.65"/>
<path d="M118.49,229.19,-58.08,204.34"/>
<path d="M-447.29,194.65,-583.04,174.51"/>
<path d="M-447.29,194.65,-319.29,28.75"/>
<path d="M-324.85,200.86,-583.04,174.51"/>
<path d="M-324.85,200.86,-319.29,28.75"/>
<path d="M-583.04,174.51,-319.29,28.75"/>
<path d="M-583.04,174.51,-58.08,204.34"/>
<path d="M-583.04,174.51,-58.08,204.34"/>
<path d="M-583.04,174.51,118.49,229.19"/>
<path d="M-583.04,174.51,-232.77,0.00"/>
<path d="M-583.04,174.51,-319.29,28.75"/>
<path d="M-319.29,28.75,-58.08,204.34"/>
<path d="M-319.29,28.75,-58.08,204.34"/>
<path d="M-319.29,28.75,118.49,229.19"/>
<path d="M-319.29,28.75,-232.77,0.00"/>
<path d="M-319.29,28.75,-319.29,28.75"/>
<circle cx="-583.04" cy="174.51" r="10"/>
<text x="-583.04" y="179.51">Southampton Aggregation</text>
<circle cx="-583.04" cy="174.51" r="10"/>
<text x="-583.04" y="179.51">Southampton</text>
<circle cx="-549.18" cy="105.74" r="10"/>
<text x="-549.18" y="110.74">Winchester</text>
<circle cx="-446.20" cy="212.37" r="10"/>
<text x="-446.20" y="217.37">Portsmouth</text>
<circle cx="-784.33" cy="250.86" r="10"/>
<text x="-784.33" y="255.86">Bournemouth</text>
<circle cx="-881.51" cy="264.74" r="10"/>
<text x="-881.51" y="269.74">Bere Regis Colocation</text>
<circle cx="-583.04" cy="174.51" r="10"/>
<text x="-583.04" y="179.51">Solent</text>
<circle cx="-784.33" cy="250.86" r="10"/>
<text x="-784.33" y="255.86">Bournemouth Aggregation</text>
<circle cx="-555.28" cy="271.68" r="10"/>
<text x="-555.28" y="276.68">Isle of Wight Colocation</text>
<circle cx="118.49" cy="229.19" r="10"/>
<text x="118.49" y="234.19">Hampton Park Colocation</text>
<circle cx="-447.29" cy="194.65" r="10"/>
<text x="-447.29" y="199.65">Wymering</text>
<circle cx="-324.85" cy="200.86" r="10"/>
<text x="-324.85" y="205.86">Chichester</text>
<circle cx="-583.04" cy="174.51" r="10"/>
<text x="-583.04" y="179.51">Southampton Core</text>
<circle cx="-319.29" cy="28.75" r="10"/>
<text x="-319.29" y="33.75">Aldershot Core</text>
<circle cx="-58.08" cy="204.34" r="10"/>
<text x="-58.08" y="209.34">Brighton Aggregation</text>
<circle cx="-58.08" cy="204.34" r="10"/>
<text x="-58.08" y="209.34">Brighton</text>
<circle cx="118.49" cy="229.19" r="10"/>
<text x="118.49" y="234.19">Sussex</text>
<circle cx="-232.77" cy="0.00" r="10"/>
<text x="-232.77" y="5.00">Surrey</text>
<circle cx="-319.29" cy="28.75" r="10"/>
<text x="-319.29" y="33.75">Aldershot Aggregation</text>
</svg>
