<svg width="1090.00" height="1089.57" viewBox="7329.33 -45.00 1090.00 1089.57" xmlns="http://www.w3.org/2000/svg">
<style>path {fill: none; stroke: grey; stroke-width: 6;} circle {fill: lightblue; stroke: none;} text {fill: black; stroke: none; font-size: 16; font-family: sans-serif; text-anchor:middle;}</style>
<path d="M7674.30,528.49,7818.55,499.64"/>
<path d="M7674.30,528.49,7558.89,615.04"/>
<path d="M7818.55,499.64,7703.15,571.76"/>
<path d="M7818.55,499.64,7899.24,498.09"/>
<path d="M7558.89,615.04,7374.33,999.57"/>
<path d="M8374.33,0.00,8054.05,464.16"/>
<path d="M7899.24,498.09,8054.05,464.16"/>
<path d="M7933.95,384.23,8054.05,464.16"/>
<path d="M8155.93,34.32,8128.52,311.02"/>
<path d="M8128.52,311.02,8054.05,464.16"/>
<circle cx="7674.30" cy="528.49" r="10"/>
<text x="7674.30" y="533.49">Chugoku</text>
<circle cx="7818.55" cy="499.64" r="10"/>
<text x="7818.55" y="504.64">Kinki</text>
<circle cx="7558.89" cy="615.04" r="10"/>
<text x="7558.89" y="620.04">Kyushu</text>
<circle cx="7703.15" cy="571.76" r="10"/>
<text x="7703.15" y="576.76">Shikoku</text>
<circle cx="8374.33" cy="0.00" r="10"/>
<text x="8374.33" y="5.00">Shinetsu</text>
<circle cx="7899.24" cy="498.09" r="10"/>
<text x="7899.24" y="503.09">Tokai</text>
<circle cx="7933.95" cy="384.23" r="10"/>
<text x="7933.95" y="389.23">Hokuriku</text>
<circle cx="7374.33" cy="999.57" r="10"/>
<text x="7374.33" y="1004.57">Okinawa</text>
<circle cx="8155.93" cy="34.32" r="10"/>
<text x="8155.93" y="39.32">Hokkaido</text>
<circle cx="8128.52" cy="311.02" r="10"/>
<text x="8128.52" y="316.02">Tohoku</text>
<circle cx="8054.05" cy="464.16" r="10"/>
<text x="8054.05" y="469.16">Tokyo</text>
</svg>
