<svg id="topo" width="790.51" height="1090.00" viewBox="31129.25 -45.00 790.51 1090.00" xmlns="http://www.w3.org/2000/svg">
<style>#topo path {fill: none; stroke: grey; stroke-width: 6;} #topo circle {fill: lightblue; stroke: none;} #topo text {fill: black; stroke: none; font-size: 16; font-family: sans-serif; text-anchor:middle;}</style>
<path d="M31328.73,430.28,31395.46,307.22"/>
<path d="M31174.25,1000.00,31271.24,594.68"/>
<path d="M31271.24,594.68,31395.46,307.22"/>
<path d="M31794.75,607.48,31395.46,307.22"/>
<path d="M31706.26,576.61,31395.46,307.22"/>
<path d="M31286.58,0.00,31395.46,307.22"/>
<path d="M31286.58,0.00,31225.93,28.25"/>
<path d="M31286.58,0.00,31294.23,68.29"/>
<path d="M31329.54,187.69,31395.46,307.22"/>
<path d="M31412.88,496.57,31395.46,307.22"/>
<path d="M31395.46,307.22,31874.76,378.47"/>
<path d="M31395.46,307.22,31684.08,418.37"/>
<circle cx="31328.73" cy="430.28" r="10"/>
<text x="31328.73" y="435.28">Jeonju</text>
<circle cx="31174.25" cy="1000.00" r="10"/>
<text x="31174.25" y="1005.00">Jeju</text>
<circle cx="31271.24" cy="594.68" r="10"/>
<text x="31271.24" y="599.68">Kwangju</text>
<circle cx="31794.75" cy="607.48" r="10"/>
<text x="31794.75" y="612.48">Busan</text>
<circle cx="31706.26" cy="576.61" r="10"/>
<text x="31706.26" y="581.61">Changwon</text>
<circle cx="31286.58" cy="0.00" r="10"/>
<text x="31286.58" y="5.00">Seoul</text>
<circle cx="31225.93" cy="28.25" r="10"/>
<text x="31225.93" y="33.25">Incheon</text>
<circle cx="31294.23" cy="68.29" r="10"/>
<text x="31294.23" y="73.29">Suwon</text>
<circle cx="31329.54" cy="187.69" r="10"/>
<text x="31329.54" y="192.69">Cheonan</text>
<circle cx="31412.88" cy="496.57" r="10"/>
<text x="31412.88" y="501.57">Ochang</text>
<circle cx="31395.46" cy="307.22" r="10"/>
<text x="31395.46" y="312.22">Daejeon</text>
<circle cx="31874.76" cy="378.47" r="10"/>
<text x="31874.76" y="383.47">Pohang</text>
<circle cx="31684.08" cy="418.37" r="10"/>
<text x="31684.08" y="423.37">Daegu</text>
</svg>
