<svg id="topo" width="1090.00" height="373.49" viewBox="2913.02 -45.00 1090.00 373.49" xmlns="http://www.w3.org/2000/svg">
<style>#topo path {fill: none; stroke: grey; stroke-width: 6;} #topo circle {fill: lightblue; stroke: none;} #topo text {fill: black; stroke: none; font-size: 16; font-family: sans-serif; text-anchor:middle;}</style>
<path d="M3406.37,182.82,3392.82,133.92"/>
<path d="M3345.81,188.29,3335.18,191.46"/>
<path d="M3823.80,281.83,3392.82,133.92"/>
<path d="M3427.45,167.57,3392.82,133.92"/>
<path d="M3223.33,202.35,3276.38,179.10"/>
<path d="M3171.48,168.55,3165.11,173.67"/>
<path d="M3335.18,191.46,3337.49,175.58"/>
<path d="M3335.18,191.46,3333.35,208.54"/>
<path d="M3276.38,179.10,3337.49,175.58"/>
<path d="M3476.83,104.00,3499.62,104.94"/>
<path d="M3463.38,40.66,3479.17,54.14"/>
<path d="M3165.11,173.67,3392.82,133.92"/>
<path d="M2975.18,184.03,2958.02,194.35"/>
<path d="M3596.79,218.16,3639.33,196.83"/>
<path d="M3596.79,218.16,3554.60,181.95"/>
<path d="M3554.60,181.95,3507.48,176.64"/>
<path d="M3789.52,189.30,3392.82,133.92"/>
<path d="M3765.37,101.32,3392.82,133.92"/>
<path d="M3565.32,0.00,3526.36,4.82"/>
<path d="M3565.32,0.00,3392.82,133.92"/>
<path d="M3428.31,20.25,3443.75,61.03"/>
<path d="M3502.12,18.38,3526.36,4.82"/>
<path d="M3502.12,18.38,3497.74,42.38"/>
<path d="M3502.12,18.38,3479.17,54.14"/>
<path d="M3615.12,38.25,3578.83,50.17"/>
<path d="M3479.17,54.14,3392.82,133.92"/>
<path d="M3479.17,54.14,3443.75,61.03"/>
<path d="M3443.75,61.03,3499.62,104.94"/>
<path d="M3535.63,176.29,3392.82,133.92"/>
<path d="M3578.83,50.17,3392.82,133.92"/>
<path d="M3844.72,196.70,3901.02,189.66"/>
<path d="M3844.72,196.70,3392.82,133.92"/>
<path d="M3844.72,196.70,3734.47,283.49"/>
<path d="M3416.54,108.10,3392.82,133.92"/>
<path d="M3416.54,108.10,3423.15,115.65"/>
<path d="M3507.48,176.64,3491.56,165.64"/>
<path d="M3479.87,162.20,3491.56,165.64"/>
<path d="M3479.87,162.20,3448.29,149.78"/>
<path d="M3392.82,133.92,3734.47,283.49"/>
<path d="M3392.82,133.92,2958.02,194.35"/>
<path d="M3392.82,133.92,3418.69,134.61"/>
<path d="M3392.82,133.92,3369.19,156.54"/>
<path d="M3392.82,133.92,3429.35,146.01"/>
<path d="M3392.82,133.92,3404.73,209.71"/>
<path d="M3392.82,133.92,3337.49,175.58"/>
<path d="M3392.82,133.92,3410.28,150.73"/>
<path d="M3392.82,133.92,3499.62,104.94"/>
<path d="M3392.82,133.92,3345.59,130.83"/>
<path d="M3392.82,133.92,3259.02,130.98"/>
<path d="M3392.82,133.92,3178.25,91.75"/>
<path d="M3392.82,133.92,3040.12,166.20"/>
<path d="M3392.82,133.92,3423.15,115.65"/>
<path d="M3392.82,133.92,3761.39,225.63"/>
<path d="M3392.82,133.92,3837.57,107.84"/>
<path d="M3392.82,133.92,3897.03,156.72"/>
<path d="M3734.47,283.49,3761.39,225.63"/>
<path d="M3034.57,71.51,3259.02,130.98"/>
<path d="M2979.29,191.74,2958.02,194.35"/>
<path d="M3369.19,156.54,3348.04,170.46"/>
<path d="M3448.29,149.78,3464.33,152.19"/>
<path d="M3448.29,149.78,3429.35,146.01"/>
<path d="M3639.33,196.83,3684.15,217.20"/>
<path d="M3337.49,175.58,3320.07,148.85"/>
<path d="M3337.49,175.58,3307.54,170.19"/>
<path d="M3337.49,175.58,3348.04,170.46"/>
<path d="M3482.49,80.95,3499.62,104.94"/>
<path d="M3499.62,104.94,3477.46,100.88"/>
<path d="M3499.62,104.94,3455.13,113.15"/>
<path d="M3897.03,156.72,3901.35,157.94"/>
<path d="M3901.35,157.94,3901.02,177.93"/>
<path d="M3893.98,187.31,3901.02,189.66"/>
<path d="M3901.02,189.66,3924.48,189.66"/>
<path d="M3901.02,189.66,3958.02,212.72"/>
<circle cx="3406.37" cy="182.82" r="10"/>
<text x="3406.37" y="187.82">Iecava</text>
<circle cx="3345.81" cy="188.29" r="10"/>
<text x="3345.81" y="193.29">Vircava</text>
<circle cx="3823.80" cy="281.83" r="10"/>
<text x="3823.80" y="286.83">Kraslava</text>
<circle cx="3427.45" cy="167.57" r="10"/>
<text x="3427.45" y="172.57">Baldone</text>
<circle cx="3223.33" cy="202.35" r="10"/>
<text x="3223.33" y="207.35">Auce</text>
<circle cx="3171.48" cy="168.55" r="10"/>
<text x="3171.48" y="173.55">Broceni</text>
<circle cx="3335.18" cy="191.46" r="10"/>
<text x="3335.18" y="196.46">Platone</text>
<circle cx="3276.38" cy="179.10" r="10"/>
<text x="3276.38" y="184.10">Dobele</text>
<circle cx="3476.83" cy="104.00" r="10"/>
<text x="3476.83" y="109.00">Krimulda</text>
<circle cx="3463.38" cy="40.66" r="10"/>
<text x="3463.38" y="45.66">Vijkene</text>
<circle cx="3165.11" cy="173.67" r="10"/>
<text x="3165.11" y="178.67">Saldus</text>
<circle cx="2975.18" cy="184.03" r="10"/>
<text x="2975.18" y="189.03">Kapsede</text>
<circle cx="3596.79" cy="218.16" r="10"/>
<text x="3596.79" y="223.16">Viesite</text>
<circle cx="3554.60" cy="181.95" r="10"/>
<text x="3554.60" y="186.95">Aizkroukle</text>
<circle cx="3789.52" cy="189.30" r="10"/>
<text x="3789.52" y="194.30">Vilani</text>
<circle cx="3765.37" cy="101.32" r="10"/>
<text x="3765.37" y="106.32">Gulbene</text>
<circle cx="3565.32" cy="0.00" r="10"/>
<text x="3565.32" y="5.00">Rujiena</text>
<circle cx="3428.31" cy="20.25" r="10"/>
<text x="3428.31" y="25.25">Salagriva</text>
<circle cx="3502.12" cy="18.38" r="10"/>
<text x="3502.12" y="23.38">Aloja</text>
<circle cx="3526.36" cy="4.82" r="10"/>
<text x="3526.36" y="9.82">Mazsalaca</text>
<circle cx="3615.12" cy="38.25" r="10"/>
<text x="3615.12" y="43.25">Strenci</text>
<circle cx="3497.74" cy="42.38" r="10"/>
<text x="3497.74" y="47.38">Pociems</text>
<circle cx="3479.17" cy="54.14" r="10"/>
<text x="3479.17" y="59.14">Limbazi</text>
<circle cx="3443.75" cy="61.03" r="10"/>
<text x="3443.75" y="66.03">Liepupe</text>
<circle cx="3535.63" cy="176.29" r="10"/>
<text x="3535.63" y="181.29">Skriveri</text>
<circle cx="3578.83" cy="50.17" r="10"/>
<text x="3578.83" y="55.17">Valmiera</text>
<circle cx="3844.72" cy="196.70" r="10"/>
<text x="3844.72" y="201.70">Rezekne</text>
<circle cx="3416.54" cy="108.10" r="10"/>
<text x="3416.54" y="113.10">Carnikava</text>
<circle cx="3507.48" cy="176.64" r="10"/>
<text x="3507.48" y="181.64">Jumprava</text>
<circle cx="3479.87" cy="162.20" r="10"/>
<text x="3479.87" y="167.20">Kegums</text>
<circle cx="3392.82" cy="133.92" r="10"/>
<text x="3392.82" y="138.92">Riga</text>
<circle cx="3734.47" cy="283.49" r="10"/>
<text x="3734.47" y="288.49">Daugapils</text>
<circle cx="3034.57" cy="71.51" r="10"/>
<text x="3034.57" y="76.51">Ventspits</text>
<circle cx="2979.29" cy="191.74" r="10"/>
<text x="2979.29" y="196.74">Grobina</text>
<circle cx="2958.02" cy="194.35" r="10"/>
<text x="2958.02" y="199.35">Liepaja</text>
<circle cx="3418.69" cy="134.61" r="10"/>
<text x="3418.69" y="139.61">Ulbroka</text>
<circle cx="3369.19" cy="156.54" r="10"/>
<text x="3369.19" y="161.54">Olaine</text>
<circle cx="3491.56" cy="165.64" r="10"/>
<text x="3491.56" y="170.64">Lielvarde</text>
<circle cx="3448.29" cy="149.78" r="10"/>
<text x="3448.29" y="154.78">Ikskile</text>
<circle cx="3429.35" cy="146.01" r="10"/>
<text x="3429.35" y="151.01">Salaspils</text>
<circle cx="3404.73" cy="209.71" r="10"/>
<text x="3404.73" y="214.71">Bauska</text>
<circle cx="3639.33" cy="196.83" r="10"/>
<text x="3639.33" y="201.83">Jekabpils</text>
<circle cx="3337.49" cy="175.58" r="10"/>
<text x="3337.49" y="180.58">Jelgava</text>
<circle cx="3320.07" cy="148.85" r="10"/>
<text x="3320.07" y="153.85">Kalnciems</text>
<circle cx="3410.28" cy="150.73" r="10"/>
<text x="3410.28" y="155.73">Kekava</text>
<circle cx="3307.54" cy="170.19" r="10"/>
<text x="3307.54" y="175.19">Livberze</text>
<circle cx="3482.49" cy="80.95" r="10"/>
<text x="3482.49" y="85.95">Ledurga</text>
<circle cx="3499.62" cy="104.94" r="10"/>
<text x="3499.62" y="109.94">Sigulda</text>
<circle cx="3345.59" cy="130.83" r="10"/>
<text x="3345.59" y="135.83">Jurmala</text>
<circle cx="3259.02" cy="130.98" r="10"/>
<text x="3259.02" y="135.98">Tukums</text>
<circle cx="3178.25" cy="91.75" r="10"/>
<text x="3178.25" y="96.75">Talsi</text>
<circle cx="3040.12" cy="166.20" r="10"/>
<text x="3040.12" y="171.20">Aizpute</text>
<circle cx="3477.46" cy="100.88" r="10"/>
<text x="3477.46" y="105.88">Ragona</text>
<circle cx="3455.13" cy="113.15" r="10"/>
<text x="3455.13" y="118.15">Vangazi</text>
<circle cx="3423.15" cy="115.65" r="10"/>
<text x="3423.15" y="120.65">Adazi</text>
<circle cx="3348.04" cy="170.46" r="10"/>
<text x="3348.04" y="175.46">Ozolnieki</text>
<circle cx="3333.35" cy="208.54" r="10"/>
<text x="3333.35" y="213.54">Eleja</text>
<circle cx="3464.33" cy="152.19" r="10"/>
<text x="3464.33" y="157.19">Ogre</text>
<circle cx="3761.39" cy="225.63" r="10"/>
<text x="3761.39" y="230.63">Preili</text>
<circle cx="3684.15" cy="217.20" r="10"/>
<text x="3684.15" y="222.20">Livani</text>
<circle cx="3837.57" cy="107.84" r="10"/>
<text x="3837.57" y="112.84">Balvi</text>
<circle cx="3897.03" cy="156.72" r="10"/>
<text x="3897.03" y="161.72">Karsava</text>
<circle cx="3901.35" cy="157.94" r="10"/>
<text x="3901.35" y="162.94">Malnava</text>
<circle cx="3901.02" cy="177.93" r="10"/>
<text x="3901.02" y="182.93">Pusmucova</text>
<circle cx="3893.98" cy="187.31" r="10"/>
<text x="3893.98" y="192.31">Zvigzdene</text>
<circle cx="3901.02" cy="189.66" r="10"/>
<text x="3901.02" y="194.66">Ludza</text>
<circle cx="3924.48" cy="189.66" r="10"/>
<text x="3924.48" y="194.66">Cibla</text>
<circle cx="3958.02" cy="212.72" r="10"/>
<text x="3958.02" y="217.72">Zilupe</text>
</svg>
