<svg id="topo" viewBox="20.80 -56.43 5.88 2.53" xmlns="http://www.w3.org/2000/svg">
<style>#topo path {fill: none; stroke: grey; stroke-width: 0.0214px;} #topo circle {fill: lightblue; stroke: none; stroke-width: 0.3px; vector-effect: non-scaling-stroke; r: 0.0428px;} #topo text {fill: black; stroke: none; font-size: 0.0642px; font-family: sans-serif; text-anchor:middle; transform: translateY(0.3em);} #topo path.country {fill: lightgrey; stroke: black; stroke-width: 1px; vector-effect: non-scaling-stroke; visibility: visible;} #topo path.selection {fill: none; stroke: red; stroke-width: 1px; vector-effect: non-scaling-stroke; visibility: visible;} #topo path.utilization {visibility: hidden;}</style>
<path class="country" d="M 20.96,-55.28 L 20.90,-55.29 L 21.01,-55.40 L 21.06,-55.48 L 21.09,-55.58 L 21.11,-55.62 L 21.12,-55.57 L 21.10,-55.49 L 21.03,-55.35 L 20.96,-55.28 Z M 22.77,-54.36 L 22.72,-54.41 L 22.68,-54.49 L 22.68,-54.56 L 22.71,-54.63 L 22.83,-54.84 L 22.82,-54.87 L 22.74,-54.93 L 22.63,-54.97 L 22.57,-55.06 L 22.35,-55.06 L 22.14,-55.06 L 22.07,-55.06 L 21.87,-55.10 L 21.68,-55.16 L 21.55,-55.20 L 21.45,-55.23 L 21.39,-55.28 L 21.30,-55.26 L 21.24,-55.26 L 21.24,-55.27 L 21.20,-55.34 L 21.24,-55.46 L 21.17,-55.62 L 21.06,-55.81 L 21.05,-56.02 L 21.05,-56.07 L 21.31,-56.19 L 21.65,-56.31 L 21.73,-56.33 L 22.04,-56.40 L 22.08,-56.41 L 22.37,-56.39 L 22.59,-56.38 L 22.77,-56.38 L 22.88,-56.40 L 22.97,-56.38 L 23.04,-56.32 L 23.12,-56.33 L 23.20,-56.37 L 23.61,-56.33 L 23.71,-56.33 L 23.81,-56.33 L 24.01,-56.30 L 24.12,-56.26 L 24.37,-56.28 L 24.47,-56.28 L 24.53,-56.30 L 24.70,-56.38 L 24.77,-56.40 L 24.84,-56.41 L 24.90,-56.40 L 24.94,-56.33 L 25.07,-56.20 L 25.21,-56.18 L 25.59,-56.13 L 25.66,-56.10 L 25.88,-55.99 L 26.00,-55.94 L 26.09,-55.90 L 26.21,-55.81 L 26.28,-55.75 L 26.40,-55.70 L 26.54,-55.67 L 26.59,-55.67 L 26.59,-55.62 L 26.57,-55.55 L 26.52,-55.45 L 26.47,-55.37 L 26.46,-55.34 L 26.50,-55.32 L 26.68,-55.31 L 26.76,-55.29 L 26.78,-55.27 L 26.73,-55.25 L 26.68,-55.22 L 26.65,-55.20 L 26.60,-55.13 L 26.29,-55.14 L 26.25,-55.12 L 26.23,-55.09 L 26.22,-55.05 L 26.18,-55.00 L 26.09,-54.96 L 25.96,-54.95 L 25.86,-54.92 L 25.78,-54.83 L 25.72,-54.72 L 25.72,-54.64 L 25.73,-54.59 L 25.72,-54.56 L 25.69,-54.54 L 25.62,-54.46 L 25.57,-54.38 L 25.55,-54.33 L 25.56,-54.31 L 25.62,-54.31 L 25.70,-54.29 L 25.75,-54.26 L 25.77,-54.22 L 25.77,-54.18 L 25.75,-54.16 L 25.68,-54.14 L 25.57,-54.14 L 25.51,-54.16 L 25.50,-54.18 L 25.53,-54.22 L 25.51,-54.26 L 25.46,-54.29 L 25.37,-54.25 L 25.28,-54.25 L 25.18,-54.21 L 25.11,-54.15 L 25.05,-54.13 L 24.87,-54.15 L 24.83,-54.12 L 24.79,-54.00 L 24.77,-53.97 L 24.62,-53.98 L 24.48,-53.93 L 24.32,-53.89 L 24.24,-53.92 L 24.19,-53.95 L 24.10,-53.95 L 24.01,-53.93 L 23.94,-53.94 L 23.87,-53.94 L 23.73,-53.91 L 23.56,-53.92 L 23.48,-53.94 L 23.48,-53.96 L 23.48,-54.01 L 23.48,-54.08 L 23.45,-54.14 L 23.37,-54.20 L 23.28,-54.24 L 23.17,-54.28 L 23.09,-54.30 L 23.04,-54.30 L 23.03,-54.33 L 23.02,-54.35 L 22.98,-54.37 L 22.89,-54.39 L 22.82,-54.40 L 22.77,-54.36 Z"/>
<path data-id="0-1" d="M26.25,-55.73,24.35,-55.73"/>
<path data-id="1-32" d="M24.35,-55.73,25.28,-54.69"/>
<path data-id="1-38" d="M24.35,-55.73,24.75,-56.20"/>
<path data-id="1-39" d="M24.35,-55.73,23.32,-55.93"/>
<path data-id="1-24" d="M24.35,-55.73,26.42,-55.60"/>
<path data-id="1-30" d="M24.35,-55.73,25.10,-55.53"/>
<path data-id="2-39" d="M25.58,-55.97,23.32,-55.93"/>
<path data-id="3-39" d="M24.97,-55.83,23.32,-55.93"/>
<path data-id="4-39" d="M22.93,-55.63,23.32,-55.93"/>
<path data-id="6-39" d="M23.53,-55.82,23.32,-55.93"/>
<path data-id="7-39" d="M21.84,-55.91,23.32,-55.93"/>
<path data-id="8-33" d="M22.29,-55.25,21.12,-55.72"/>
<path data-id="9-33" d="M21.70,-55.36,21.12,-55.72"/>
<path data-id="10-26" d="M23.95,-54.63,23.90,-54.90"/>
<path data-id="11-32" d="M24.93,-54.63,25.28,-54.69"/>
<path data-id="12-32" d="M26.17,-55.35,25.28,-54.69"/>
<path data-id="13-32" d="M24.75,-55.25,25.28,-54.69"/>
<path data-id="14-32" d="M24.95,-55.05,25.28,-54.69"/>
<path data-id="15-26" d="M22.77,-55.08,23.90,-54.90"/>
<path data-id="16-26" d="M23.04,-54.95,23.90,-54.90"/>
<path data-id="17-26" d="M23.03,-54.65,23.90,-54.90"/>
<path data-id="18-26" d="M23.35,-54.57,23.90,-54.90"/>
<path data-id="19-26" d="M24.05,-54.40,23.90,-54.90"/>
<path data-id="20-32" d="M23.97,-54.02,25.28,-54.69"/>
<path data-id="21-26" d="M25.38,-54.30,23.90,-54.90"/>
<path data-id="23-32" d="M25.42,-55.23,25.28,-54.69"/>
<path data-id="25-32" d="M24.40,-56.06,25.28,-54.69"/>
<path data-id="26-32" d="M23.90,-54.90,25.28,-54.69"/>
<path data-id="26-33" d="M23.90,-54.90,21.12,-55.72"/>
<path data-id="26-27" d="M23.90,-54.90,23.97,-55.29"/>
<path data-id="26-28" d="M23.90,-54.90,23.12,-55.37"/>
<path data-id="26-31" d="M23.90,-54.90,24.28,-55.08"/>
<path data-id="29-32" d="M25.60,-55.50,25.28,-54.69"/>
<path data-id="33-34" d="M21.12,-55.72,22.25,-55.98"/>
<path data-id="33-39" d="M21.12,-55.72,23.32,-55.93"/>
<path data-id="33-42" d="M21.12,-55.72,21.25,-55.88"/>
<path data-id="33-41" d="M21.12,-55.72,21.07,-55.92"/>
<path data-id="35-39" d="M22.33,-56.32,23.32,-55.93"/>
<path data-id="37-39" d="M23.62,-56.24,23.32,-55.93"/>
<circle data-id="0" cx="26.25" cy="-55.73" r="0.04px"/>
<text data-id="0" x="26.25" y="-55.73">Zarasai</text>
<circle data-id="1" cx="24.35" cy="-55.73" r="0.04px"/>
<text data-id="1" x="24.35" y="-55.73">Panevezys</text>
<circle data-id="2" cx="25.58" cy="-55.97" r="0.04px"/>
<text data-id="2" x="25.58" y="-55.97">Rokiskis</text>
<circle data-id="3" cx="24.97" cy="-55.83" r="0.04px"/>
<text data-id="3" x="24.97" y="-55.83">Kupiskis</text>
<circle data-id="4" cx="22.93" cy="-55.63" r="0.04px"/>
<text data-id="4" x="22.93" y="-55.63">Kelme</text>
<circle data-id="6" cx="23.53" cy="-55.82" r="0.04px"/>
<text data-id="6" x="23.53" y="-55.82">Radviliskis</text>
<circle data-id="7" cx="21.84" cy="-55.91" r="0.04px"/>
<text data-id="7" x="21.84" y="-55.91">Plunge</text>
<circle data-id="8" cx="22.29" cy="-55.25" r="0.04px"/>
<text data-id="8" x="22.29" y="-55.25">Taurage</text>
<circle data-id="9" cx="21.70" cy="-55.36" r="0.04px"/>
<text data-id="9" x="21.70" y="-55.36">Zemaiciu Naumiestis</text>
<circle data-id="10" cx="23.95" cy="-54.63" r="0.04px"/>
<text data-id="10" x="23.95" y="-54.63">Prienai</text>
<circle data-id="11" cx="24.93" cy="-54.63" r="0.04px"/>
<text data-id="11" x="24.93" y="-54.63">Trakar</text>
<circle data-id="12" cx="26.17" cy="-55.35" r="0.04px"/>
<text data-id="12" x="26.17" y="-55.35">Ignalina</text>
<circle data-id="13" cx="24.75" cy="-55.25" r="0.04px"/>
<text data-id="13" x="24.75" y="-55.25">Ukmerge</text>
<circle data-id="14" cx="24.95" cy="-55.05" r="0.04px"/>
<text data-id="14" x="24.95" y="-55.05">Sirvintos</text>
<circle data-id="15" cx="22.77" cy="-55.08" r="0.04px"/>
<text data-id="15" x="22.77" y="-55.08">Jurbarkas</text>
<circle data-id="16" cx="23.04" cy="-54.95" r="0.04px"/>
<text data-id="16" x="23.04" y="-54.95">Sakiai</text>
<circle data-id="17" cx="23.03" cy="-54.65" r="0.04px"/>
<text data-id="17" x="23.03" y="-54.65">Vilkaviskis</text>
<circle data-id="18" cx="23.35" cy="-54.57" r="0.04px"/>
<text data-id="18" x="23.35" y="-54.57">Marijampole</text>
<circle data-id="19" cx="24.05" cy="-54.40" r="0.04px"/>
<text data-id="19" x="24.05" y="-54.40">Alytus</text>
<circle data-id="20" cx="23.97" cy="-54.02" r="0.04px"/>
<text data-id="20" x="23.97" y="-54.02">Druskininkai</text>
<circle data-id="21" cx="25.38" cy="-54.30" r="0.04px"/>
<text data-id="21" x="25.38" y="-54.30">Salcininkai</text>
<circle data-id="23" cx="25.42" cy="-55.23" r="0.04px"/>
<text data-id="23" x="25.42" y="-55.23">Moletai</text>
<circle data-id="24" cx="26.42" cy="-55.60" r="0.04px"/>
<text data-id="24" x="26.42" y="-55.60">Visaginas</text>
<circle data-id="25" cx="24.40" cy="-56.06" r="0.04px"/>
<text data-id="25" x="24.40" y="-56.06">Pasvalys</text>
<circle data-id="26" cx="23.90" cy="-54.90" r="0.04px"/>
<text data-id="26" x="23.90" y="-54.90">Kaunas</text>
<circle data-id="27" cx="23.97" cy="-55.29" r="0.04px"/>
<text data-id="27" x="23.97" y="-55.29">Kedainiai</text>
<circle data-id="28" cx="23.12" cy="-55.37" r="0.04px"/>
<text data-id="28" x="23.12" y="-55.37">Raseiniai</text>
<circle data-id="29" cx="25.60" cy="-55.50" r="0.04px"/>
<text data-id="29" x="25.60" y="-55.50">Utena</text>
<circle data-id="30" cx="25.10" cy="-55.53" r="0.04px"/>
<text data-id="30" x="25.10" y="-55.53">Anyksciai</text>
<circle data-id="31" cx="24.28" cy="-55.08" r="0.04px"/>
<text data-id="31" x="24.28" y="-55.08">Jonava</text>
<circle data-id="32" cx="25.28" cy="-54.69" r="0.04px"/>
<text data-id="32" x="25.28" y="-54.69">Vilnius</text>
<circle data-id="33" cx="21.12" cy="-55.72" r="0.04px"/>
<text data-id="33" x="21.12" y="-55.72">Klaipeda</text>
<circle data-id="34" cx="22.25" cy="-55.98" r="0.04px"/>
<text data-id="34" x="22.25" y="-55.98">Telsiai</text>
<circle data-id="35" cx="22.33" cy="-56.32" r="0.04px"/>
<text data-id="35" x="22.33" y="-56.32">Mazeikiai</text>
<circle data-id="37" cx="23.62" cy="-56.24" r="0.04px"/>
<text data-id="37" x="23.62" y="-56.24">Joniskis</text>
<circle data-id="38" cx="24.75" cy="-56.20" r="0.04px"/>
<text data-id="38" x="24.75" y="-56.20">Birzai</text>
<circle data-id="39" cx="23.32" cy="-55.93" r="0.04px"/>
<text data-id="39" x="23.32" y="-55.93">Siauliai</text>
<circle data-id="41" cx="21.07" cy="-55.92" r="0.04px"/>
<text data-id="41" x="21.07" y="-55.92">Palanga</text>
<circle data-id="42" cx="21.25" cy="-55.88" r="0.04px"/>
<text data-id="42" x="21.25" y="-55.88">Kretinga</text>
</svg>
