<svg id="topo" viewBox="18.48 -43.07 1.33 0.68" xmlns="http://www.w3.org/2000/svg">
<style>#topo path {fill: none; stroke: grey; stroke-width: 0.0048px;} #topo circle {fill: lightblue; stroke: none; stroke-width: 0.3px; vector-effect: non-scaling-stroke; r: 0.0097px;} #topo text {fill: black; stroke: none; font-size: 0.0145px; font-family: sans-serif; text-anchor:middle; transform: translateY(0.3em);} #topo path.country {fill: lightgrey; stroke: black; stroke-width: 1px; vector-effect: non-scaling-stroke; visibility: visible;} #topo path.selection {fill: none; stroke: red; stroke-width: 1px; vector-effect: non-scaling-stroke; visibility: visible;} #topo path.utilization {visibility: hidden;}</style>
<path class="country" d="M 19.19,-43.53 L 19.19,-43.52 L 19.20,-43.49 L 19.22,-43.45 L 19.30,-43.41 L 19.41,-43.34 L 19.55,-43.21 L 19.61,-43.17 L 19.67,-43.16 L 19.78,-43.11 L 19.86,-43.10 L 19.94,-43.08 L 20.17,-42.97 L 20.27,-42.94 L 20.34,-42.89 L 20.35,-42.85 L 20.34,-42.83 L 20.22,-42.80 L 20.19,-42.75 L 20.13,-42.76 L 20.05,-42.76 L 20.03,-42.73 L 20.07,-42.69 L 20.09,-42.63 L 20.07,-42.56 L 20.06,-42.55 L 20.05,-42.55 L 19.94,-42.51 L 19.86,-42.49 L 19.79,-42.48 L 19.75,-42.50 L 19.74,-42.53 L 19.74,-42.61 L 19.73,-42.63 L 19.70,-42.65 L 19.65,-42.63 L 19.60,-42.57 L 19.54,-42.49 L 19.47,-42.42 L 19.40,-42.34 L 19.36,-42.29 L 19.29,-42.26 L 19.18,-42.28 L 19.10,-42.28 L 19.22,-42.16 L 19.34,-42.11 L 19.36,-42.07 L 19.35,-42.02 L 19.36,-42.00 L 19.35,-41.92 L 19.34,-41.87 L 19.19,-41.95 L 19.12,-42.06 L 18.89,-42.25 L 18.63,-42.38 L 18.62,-42.40 L 18.63,-42.42 L 18.65,-42.44 L 18.59,-42.44 L 18.55,-42.43 L 18.52,-42.43 L 18.48,-42.48 L 18.44,-42.52 L 18.44,-42.56 L 18.45,-42.56 L 18.48,-42.58 L 18.53,-42.62 L 18.55,-42.64 L 18.54,-42.67 L 18.47,-42.78 L 18.46,-42.84 L 18.44,-42.97 L 18.46,-43.00 L 18.49,-43.01 L 18.62,-43.03 L 18.62,-43.12 L 18.63,-43.15 L 18.66,-43.19 L 18.67,-43.23 L 18.75,-43.28 L 18.85,-43.35 L 18.90,-43.35 L 18.93,-43.34 L 18.98,-43.29 L 19.03,-43.29 L 19.04,-43.36 L 18.97,-43.44 L 18.94,-43.50 L 18.95,-43.53 L 18.97,-43.54 L 19.03,-43.53 L 19.08,-43.52 L 19.11,-43.53 L 19.16,-43.54 L 19.19,-43.53 Z"/>
<path data-id="0-2" d="M19.75,-43.04,19.26,-42.44"/>
<path data-id="1-2" d="M18.94,-42.77,19.26,-42.44"/>
<path data-id="2-3" d="M19.26,-42.44,18.83,-42.43"/>
<path data-id="2-4" d="M19.26,-42.44,18.77,-42.42"/>
<path data-id="2-5" d="M19.26,-42.44,18.54,-42.45"/>
<circle data-id="0" cx="19.75" cy="-43.04" r="0.01px"/>
<text data-id="0" x="19.75" y="-43.04">Bijelo Polje</text>
<circle data-id="1" cx="18.94" cy="-42.77" r="0.01px"/>
<text data-id="1" x="18.94" y="-42.77">Niksic</text>
<circle data-id="2" cx="19.26" cy="-42.44" r="0.01px"/>
<text data-id="2" x="19.26" y="-42.44">Podgorica</text>
<circle data-id="3" cx="18.83" cy="-42.43" r="0.01px"/>
<text data-id="3" x="18.83" y="-42.43">Njegusi</text>
<circle data-id="4" cx="18.77" cy="-42.42" r="0.01px"/>
<text data-id="4" x="18.77" y="-42.42">Kotor</text>
<circle data-id="5" cx="18.54" cy="-42.45" r="0.01px"/>
<text data-id="5" x="18.54" y="-42.45">Herceg Novi</text>
</svg>
