<svg width="1090.00" height="376.30" viewBox="3060.45 -45.00 1090.00 376.30" xmlns="http://www.w3.org/2000/svg">
<style>path {fill: none; stroke: grey; stroke-width: 6;} circle {fill: lightblue; stroke: none;} text {fill: black; stroke: none; font-size: 16; font-family: sans-serif; text-anchor:middle;}</style>
<path d="M3984.36,128.21,4017.43,53.59"/>
<path d="M3984.36,128.21,3972.74,151.89"/>
<path d="M4017.43,53.59,4102.63,0.00"/>
<path d="M3938.78,230.98,3886.42,277.37"/>
<path d="M3938.78,230.98,3998.07,209.53"/>
<path d="M4069.07,146.36,4053.82,171.58"/>
<path d="M4069.07,146.36,4105.45,75.93"/>
<path d="M4105.45,75.93,4102.63,0.00"/>
<path d="M3870.26,286.30,3715.82,200.14"/>
<path d="M3870.26,286.30,3886.42,277.37"/>
<path d="M3898.12,239.02,3886.42,277.37"/>
<path d="M3105.45,119.72,3715.82,200.14"/>
<path d="M3105.45,119.72,3256.48,87.99"/>
<path d="M3715.82,200.14,3693.48,134.91"/>
<path d="M4053.82,171.58,3998.07,209.53"/>
<path d="M3256.48,87.99,3693.48,134.91"/>
<circle cx="3984.36" cy="128.21" r="10"/>
<text x="3984.36" y="133.21">Dubbo</text>
<circle cx="4017.43" cy="53.59" r="10"/>
<text x="4017.43" y="58.59">Moree</text>
<circle cx="3972.74" cy="151.89" r="10"/>
<text x="3972.74" y="156.89">Parkes</text>
<circle cx="3938.78" cy="230.98" r="10"/>
<text x="3938.78" y="235.98">Albury</text>
<circle cx="4069.07" cy="146.36" r="10"/>
<text x="4069.07" y="151.36">Newcastle</text>
<circle cx="4105.45" cy="75.93" r="10"/>
<text x="4105.45" y="80.93">Coff's Harbour</text>
<circle cx="3870.26" cy="286.30" r="10"/>
<text x="3870.26" y="291.30">Geelong</text>
<circle cx="3898.12" cy="239.02" r="10"/>
<text x="3898.12" y="244.02">Shepparton</text>
<circle cx="3105.45" cy="119.72" r="10"/>
<text x="3105.45" y="124.72">Perth</text>
<circle cx="3715.82" cy="200.14" r="10"/>
<text x="3715.82" y="205.14">Adelaide</text>
<circle cx="3886.42" cy="277.37" r="10"/>
<text x="3886.42" y="282.37">Melbourne</text>
<circle cx="4053.82" cy="171.58" r="10"/>
<text x="4053.82" y="176.58">Sydney</text>
<circle cx="3998.07" cy="209.53" r="10"/>
<text x="3998.07" y="214.53">Canberra</text>
<circle cx="4102.63" cy="0.00" r="10"/>
<text x="4102.63" y="5.00">Brisbane</text>
<circle cx="3256.48" cy="87.99" r="10"/>
<text x="3256.48" y="92.99">Kalgoorlie</text>
<circle cx="3693.48" cy="134.91" r="10"/>
<text x="3693.48" y="139.91">Port Augusta</text>
</svg>
