<svg width="1090.00" height="888.79" viewBox="-15098.52 -45.00 1090.00 888.79" xmlns="http://www.w3.org/2000/svg">
<style>path {fill: none; stroke: grey; stroke-width: 6;} circle {fill: lightblue; stroke: none;} text {fill: black; stroke: none; font-size: 16; font-family: sans-serif; text-anchor:middle;}</style>
<path d="M-14636.72,285.52,-14603.85,230.92"/>
<path d="M-14636.72,285.52,-14590.80,322.45"/>
<path d="M-14636.72,285.52,-14670.89,325.26"/>
<path d="M-14603.85,230.92,-14800.56,281.05"/>
<path d="M-14603.85,230.92,-14556.23,198.11"/>
<path d="M-14514.53,377.64,-14590.80,322.45"/>
<path d="M-14514.53,377.64,-14408.65,417.28"/>
<path d="M-14514.53,377.64,-14513.23,466.96"/>
<path d="M-14563.66,80.44,-14497.32,123.09"/>
<path d="M-14563.66,80.44,-14728.45,28.50"/>
<path d="M-14563.66,80.44,-14561.25,1.10"/>
<path d="M-14497.32,123.09,-14452.51,99.30"/>
<path d="M-14497.32,123.09,-14417.88,144.06"/>
<path d="M-14497.32,123.09,-14556.23,198.11"/>
<path d="M-14497.32,123.09,-14535.10,155.65"/>
<path d="M-14556.23,198.11,-14535.10,155.65"/>
<path d="M-14452.51,99.30,-14413.97,78.18"/>
<path d="M-14452.51,99.30,-14417.88,144.06"/>
<path d="M-14606.11,544.39,-14555.53,599.63"/>
<path d="M-14606.11,544.39,-14638.48,452.46"/>
<path d="M-14762.17,532.00,-14806.53,542.59"/>
<path d="M-14762.17,532.00,-14638.48,452.46"/>
<path d="M-14670.89,325.26,-14882.91,392.35"/>
<path d="M-14670.89,325.26,-14638.48,452.46"/>
<path d="M-14638.48,452.46,-14806.53,542.59"/>
<path d="M-14638.48,452.46,-14513.23,466.96"/>
<path d="M-14513.23,466.96,-14453.92,597.83"/>
<path d="M-14513.23,466.96,-14408.65,417.28"/>
<path d="M-14513.23,466.96,-14324.10,565.16"/>
<path d="M-14324.10,565.16,-14250.43,508.76"/>
<path d="M-14453.92,597.83,-14439.07,673.59"/>
<path d="M-14439.07,673.59,-14650.22,798.79"/>
<path d="M-14439.07,673.59,-14555.53,599.63"/>
<path d="M-14439.07,673.59,-14250.43,508.76"/>
<path d="M-14555.53,599.63,-14571.99,650.36"/>
<path d="M-14571.99,650.36,-14605.21,689.20"/>
<path d="M-14605.21,689.20,-14650.22,798.79"/>
<path d="M-14605.21,689.20,-14587.50,774.80"/>
<path d="M-14605.21,689.20,-14572.55,735.91"/>
<path d="M-14806.53,542.59,-14650.22,798.79"/>
<path d="M-14806.53,542.59,-14930.28,361.64"/>
<path d="M-14587.50,774.80,-14650.22,798.79"/>
<path d="M-14842.06,417.29,-14882.91,392.35"/>
<path d="M-14882.91,392.35,-14930.28,361.64"/>
<path d="M-14800.56,281.05,-14884.01,298.57"/>
<path d="M-14800.56,281.05,-14693.83,139.50"/>
<path d="M-14912.91,163.39,-14884.01,298.57"/>
<path d="M-14912.91,163.39,-14693.83,139.50"/>
<path d="M-14754.04,52.14,-14728.45,28.50"/>
<path d="M-14930.28,361.64,-14964.10,329.13"/>
<path d="M-14930.28,361.64,-15053.52,348.30"/>
<path d="M-14964.10,329.13,-15053.52,348.30"/>
<path d="M-14964.10,329.13,-14884.01,298.57"/>
<path d="M-15053.52,348.30,-14884.01,298.57"/>
<path d="M-14250.43,508.76,-14408.65,417.28"/>
<path d="M-14250.43,508.76,-14080.27,411.81"/>
<path d="M-14408.65,417.28,-14248.93,262.43"/>
<path d="M-14728.45,28.50,-14654.03,0.00"/>
<path d="M-14654.03,0.00,-14561.25,1.10"/>
<path d="M-14413.97,78.18,-14205.62,132.47"/>
<path d="M-14205.62,132.47,-14053.52,104.92"/>
<path d="M-14205.62,132.47,-14248.93,262.43"/>
<path d="M-14053.52,104.92,-14248.93,262.43"/>
<path d="M-14248.93,262.43,-14080.27,411.81"/>
<circle cx="-14636.72" cy="285.52" r="10"/>
<text x="-14636.72" y="290.52">Rock Hill</text>
<circle cx="-14603.85" cy="230.92" r="10"/>
<text x="-14603.85" y="235.92">Charlotte</text>
<circle cx="-14514.53" cy="377.64" r="10"/>
<text x="-14514.53" y="382.64">Bethune</text>
<circle cx="-14590.80" cy="322.45" r="10"/>
<text x="-14590.80" y="327.45">Lancaster</text>
<circle cx="-14563.66" cy="80.44" r="10"/>
<text x="-14563.66" y="85.44">Courtney</text>
<circle cx="-14497.32" cy="123.09" r="10"/>
<text x="-14497.32" y="128.09">Lexington</text>
<circle cx="-14556.23" cy="198.11" r="10"/>
<text x="-14556.23" y="203.11">Concord</text>
<circle cx="-14535.10" cy="155.65" r="10"/>
<text x="-14535.10" y="160.65">Salisbury</text>
<circle cx="-14452.51" cy="99.30" r="10"/>
<text x="-14452.51" y="104.30">High Point</text>
<circle cx="-14417.88" cy="144.06" r="10"/>
<text x="-14417.88" y="149.06">Asheboro</text>
<circle cx="-14606.11" cy="544.39" r="10"/>
<text x="-14606.11" y="549.39">Orangeburg</text>
<circle cx="-14762.17" cy="532.00" r="10"/>
<text x="-14762.17" y="537.00">Aiken</text>
<circle cx="-14670.89" cy="325.26" r="10"/>
<text x="-14670.89" y="330.26">Chester</text>
<circle cx="-14638.48" cy="452.46" r="10"/>
<text x="-14638.48" y="457.46">Columbia</text>
<circle cx="-14513.23" cy="466.96" r="10"/>
<text x="-14513.23" y="471.96">Sumter</text>
<circle cx="-14324.10" cy="565.16" r="10"/>
<text x="-14324.10" y="570.16">Georgetown</text>
<circle cx="-14453.92" cy="597.83" r="10"/>
<text x="-14453.92" y="602.83">Moncks Corner</text>
<circle cx="-14439.07" cy="673.59" r="10"/>
<text x="-14439.07" y="678.59">Charleston</text>
<circle cx="-14555.53" cy="599.63" r="10"/>
<text x="-14555.53" y="604.63">St George</text>
<circle cx="-14571.99" cy="650.36" r="10"/>
<text x="-14571.99" y="655.36">Walterboro</text>
<circle cx="-14605.21" cy="689.20" r="10"/>
<text x="-14605.21" y="694.20">Yemassee</text>
<circle cx="-14806.53" cy="542.59" r="10"/>
<text x="-14806.53" y="547.59">Augusta</text>
<circle cx="-14587.50" cy="774.80" r="10"/>
<text x="-14587.50" y="779.80">Hilton Head</text>
<circle cx="-14572.55" cy="735.91" r="10"/>
<text x="-14572.55" y="740.91">Beaufort</text>
<circle cx="-14650.22" cy="798.79" r="10"/>
<text x="-14650.22" y="803.79">Savannah</text>
<circle cx="-14842.06" cy="417.29" r="10"/>
<text x="-14842.06" y="422.29">Greenwood</text>
<circle cx="-14882.91" cy="392.35" r="10"/>
<text x="-14882.91" y="397.35">Due West</text>
<circle cx="-14800.56" cy="281.05" r="10"/>
<text x="-14800.56" y="286.05">Spartanburg</text>
<circle cx="-14912.91" cy="163.39" r="10"/>
<text x="-14912.91" y="168.39">Asheville</text>
<circle cx="-14754.04" cy="52.14" r="10"/>
<text x="-14754.04" y="57.14">Boone</text>
<circle cx="-14693.83" cy="139.50" r="10"/>
<text x="-14693.83" y="144.50">Hickory</text>
<circle cx="-14930.28" cy="361.64" r="10"/>
<text x="-14930.28" y="366.64">Anderson</text>
<circle cx="-14964.10" cy="329.13" r="10"/>
<text x="-14964.10" y="334.13">Clemson</text>
<circle cx="-15053.52" cy="348.30" r="10"/>
<text x="-15053.52" y="353.30">Toccoa</text>
<circle cx="-14884.01" cy="298.57" r="10"/>
<text x="-14884.01" y="303.57">Greenville</text>
<circle cx="-14250.43" cy="508.76" r="10"/>
<text x="-14250.43" y="513.76">Myrtle Beach</text>
<circle cx="-14408.65" cy="417.28" r="10"/>
<text x="-14408.65" y="422.28">Florence</text>
<circle cx="-14728.45" cy="28.50" r="10"/>
<text x="-14728.45" y="33.50">Baldwin</text>
<circle cx="-14654.03" cy="0.00" r="10"/>
<text x="-14654.03" y="5.00">Sparta</text>
<circle cx="-14561.25" cy="1.10" r="10"/>
<text x="-14561.25" y="6.10">Level Cross</text>
<circle cx="-14413.97" cy="78.18" r="10"/>
<text x="-14413.97" y="83.18">Greensboro</text>
<circle cx="-14205.62" cy="132.47" r="10"/>
<text x="-14205.62" y="137.47">Raleigh</text>
<circle cx="-14053.52" cy="104.92" r="10"/>
<text x="-14053.52" y="109.92">Rocky Mount</text>
<circle cx="-14248.93" cy="262.43" r="10"/>
<text x="-14248.93" y="267.43">Fayetteville</text>
<circle cx="-14080.27" cy="411.81" r="10"/>
<text x="-14080.27" y="416.81">Wilmington</text>
</svg>
