<svg width="1090.00" height="421.54" viewBox="-1006.80 -45.00 1090.00 421.54" xmlns="http://www.w3.org/2000/svg">
<style>path {fill: none; stroke: grey; stroke-width: 6;} circle {fill: lightblue; stroke: none;} text {fill: black; stroke: none; font-size: 16; font-family: sans-serif; text-anchor:middle;}</style>
<path d="M-605.33,104.14,-578.13,91.09"/>
<path d="M-605.33,104.14,-659.23,145.50"/>
<path d="M-626.47,207.80,-659.23,145.50"/>
<path d="M-574.86,53.63,-578.13,91.09"/>
<path d="M-574.86,53.63,-620.40,67.76"/>
<path d="M-578.13,91.09,-0.98,6.76"/>
<path d="M-578.13,91.09,-684.72,82.21"/>
<path d="M-578.13,91.09,-620.40,67.76"/>
<path d="M-0.98,6.76,38.20,0.00"/>
<path d="M-684.72,82.21,-955.65,37.25"/>
<path d="M-684.72,82.21,-756.25,153.04"/>
<path d="M-684.72,82.21,-620.40,67.76"/>
<path d="M-620.40,67.76,-961.80,24.41"/>
<path d="M-961.80,24.41,-955.65,37.25"/>
<path d="M-955.65,37.25,-952.97,115.82"/>
<path d="M-952.97,115.82,-656.85,331.54"/>
<path d="M-656.85,331.54,-923.71,143.13"/>
<path d="M-923.71,143.13,-756.25,153.04"/>
<path d="M-756.25,153.04,-769.43,179.28"/>
<path d="M-756.25,153.04,-659.23,145.50"/>
<circle cx="-605.33" cy="104.14" r="10"/>
<text x="-605.33" y="109.14">Herndon/Ashburn</text>
<circle cx="-626.47" cy="207.80" r="10"/>
<text x="-626.47" y="212.80">Miami</text>
<circle cx="-574.86" cy="53.63" r="10"/>
<text x="-574.86" y="58.63">Montreal</text>
<circle cx="-578.13" cy="91.09" r="10"/>
<text x="-578.13" y="96.09">New York</text>
<circle cx="-0.98" cy="6.76" r="10"/>
<text x="-0.98" y="11.76">London</text>
<circle cx="38.20" cy="0.00" r="10"/>
<text x="38.20" y="5.00">Amsterdam</text>
<circle cx="-684.72" cy="82.21" r="10"/>
<text x="-684.72" y="87.21">Chicago</text>
<circle cx="-620.40" cy="67.76" r="10"/>
<text x="-620.40" y="72.76">Toronto</text>
<circle cx="-961.80" cy="24.41" r="10"/>
<text x="-961.80" y="29.41">Vancouver</text>
<circle cx="-955.65" cy="37.25" r="10"/>
<text x="-955.65" y="42.25">Seattle</text>
<circle cx="-952.97" cy="115.82" r="10"/>
<text x="-952.97" y="120.82">Fremont</text>
<circle cx="-656.85" cy="331.54" r="10"/>
<text x="-656.85" y="336.54">San Jose</text>
<circle cx="-923.71" cy="143.13" r="10"/>
<text x="-923.71" y="148.13">Los Angeles</text>
<circle cx="-756.25" cy="153.04" r="10"/>
<text x="-756.25" y="158.04">Dallas</text>
<circle cx="-769.43" cy="179.28" r="10"/>
<text x="-769.43" y="184.28">San Antonio</text>
<circle cx="-659.23" cy="145.50" r="10"/>
<text x="-659.23" y="150.50">Atlanta</text>
</svg>
