<svg width="1090.00" height="317.46" viewBox="-515.01 -45.00 1090.00 317.46" xmlns="http://www.w3.org/2000/svg">
<style>path {fill: none; stroke: grey; stroke-width: 6;} circle {fill: lightblue; stroke: none;} text {fill: black; stroke: none; font-size: 16; font-family: sans-serif; text-anchor:middle;}</style>
<path d="M520.36,224.64,450.21,215.71"/>
<path d="M520.36,224.64,520.36,224.64"/>
<path d="M529.99,168.47,450.21,215.71"/>
<path d="M529.99,168.47,-470.01,51.43"/>
<path d="M450.21,215.71,431.62,227.46"/>
<path d="M450.21,215.71,450.21,215.71"/>
<path d="M450.21,215.71,430.95,74.84"/>
<path d="M520.36,224.64,-470.01,51.43"/>
<path d="M-361.74,0.00,416.11,8.62"/>
<path d="M-361.74,0.00,-470.01,51.43"/>
<path d="M-361.74,0.00,-352.06,13.49"/>
<path d="M-352.06,13.49,-470.01,51.43"/>
<path d="M-470.01,51.43,416.11,8.62"/>
<path d="M-470.01,51.43,430.95,74.84"/>
<path d="M-470.01,51.43,-470.01,51.43"/>
<path d="M360.27,43.42,339.93,48.63"/>
<path d="M360.27,43.42,379.62,4.71"/>
<path d="M360.27,43.42,363.25,76.17"/>
<path d="M363.25,76.17,339.93,48.63"/>
<path d="M363.25,76.17,430.95,74.84"/>
<path d="M363.25,76.17,363.25,76.17"/>
<path d="M431.62,227.46,344.89,209.95"/>
<path d="M379.62,4.71,416.11,8.62"/>
<path d="M416.11,8.62,339.93,48.63"/>
<path d="M416.11,8.62,430.95,74.84"/>
<path d="M430.95,74.84,363.25,76.17"/>
<path d="M430.95,74.84,309.06,110.81"/>
<path d="M363.25,76.17,339.93,48.63"/>
<path d="M339.93,48.63,309.06,110.81"/>
<path d="M309.06,110.81,297.74,70.21"/>
<path d="M309.06,110.81,344.89,209.95"/>
<circle cx="520.36" cy="224.64" r="10"/>
<text x="520.36" y="229.64">Auckland 2</text>
<circle cx="529.99" cy="168.47" r="10"/>
<text x="529.99" y="173.47">Fiji</text>
<circle cx="450.21" cy="215.71" r="10"/>
<text x="450.21" y="220.71">Sydney 1</text>
<circle cx="520.36" cy="224.64" r="10"/>
<text x="520.36" y="229.64">Auckland 1</text>
<circle cx="-361.74" cy="0.00" r="10"/>
<text x="-361.74" y="5.00">Sacramento</text>
<circle cx="-352.06" cy="13.49" r="10"/>
<text x="-352.06" y="18.49">Los Angeles</text>
<circle cx="-470.01" cy="51.43" r="10"/>
<text x="-470.01" y="56.43">Hawaii 1</text>
<circle cx="-470.01" cy="51.43" r="10"/>
<text x="-470.01" y="56.43">Hawaii 2</text>
<circle cx="360.27" cy="43.42" r="10"/>
<text x="360.27" y="48.42">Taiwan</text>
<circle cx="363.25" cy="76.17" r="10"/>
<text x="363.25" y="81.17">Philippines 2</text>
<circle cx="431.62" cy="227.46" r="10"/>
<text x="431.62" y="232.46">Melbourne</text>
<circle cx="450.21" cy="215.71" r="10"/>
<text x="450.21" y="220.71">Sydney 2</text>
<circle cx="379.62" cy="4.71" r="10"/>
<text x="379.62" y="9.71">Korea</text>
<circle cx="416.11" cy="8.62" r="10"/>
<text x="416.11" y="13.62">Japan</text>
<circle cx="430.95" cy="74.84" r="10"/>
<text x="430.95" y="79.84">Guam</text>
<circle cx="363.25" cy="76.17" r="10"/>
<text x="363.25" y="81.17">Philippines 1</text>
<circle cx="339.93" cy="48.63" r="10"/>
<text x="339.93" y="53.63">Hong Kong</text>
<circle cx="309.06" cy="110.81" r="10"/>
<text x="309.06" y="115.81">Singapore/Malaysia</text>
<circle cx="297.74" cy="70.21" r="10"/>
<text x="297.74" y="75.21">Thailand</text>
<circle cx="344.89" cy="209.95" r="10"/>
<text x="344.89" y="214.95">Perth</text>
</svg>
