<svg width="1090.00" height="859.23" viewBox="-200.38 -45.00 1090.00 859.23" xmlns="http://www.w3.org/2000/svg">
<style>path {fill: none; stroke: grey; stroke-width: 6;} circle {fill: lightblue; stroke: none;} text {fill: black; stroke: none; font-size: 16; font-family: sans-serif; text-anchor:middle;}</style>
<path d="M-52.31,535.38,133.26,648.84"/>
<path d="M-52.31,535.38,30.77,373.85"/>
<path d="M133.26,648.84,447.69,450.77"/>
<path d="M133.26,648.84,358.46,649.23"/>
<path d="M175.38,250.77,216.81,164.30"/>
<path d="M116.10,443.24,30.77,373.85"/>
<path d="M463.08,306.15,556.92,312.31"/>
<path d="M556.92,312.31,715.38,189.23"/>
<path d="M556.92,312.31,447.69,450.77"/>
<path d="M358.46,649.23,498.46,676.92"/>
<path d="M284.62,447.69,447.69,450.77"/>
<path d="M527.69,504.61,447.69,450.77"/>
<path d="M650.51,647.17,844.62,769.23"/>
<path d="M650.51,647.17,498.46,676.92"/>
<path d="M447.69,450.77,216.81,164.30"/>
<path d="M447.69,450.77,498.46,676.92"/>
<path d="M216.81,164.30,30.77,373.85"/>
<path d="M216.81,164.30,572.31,180.00"/>
<path d="M216.81,164.30,372.31,127.69"/>
<path d="M216.81,164.30,260.87,112.19"/>
<path d="M216.81,164.30,283.08,0.00"/>
<path d="M216.81,164.30,101.48,109.86"/>
<path d="M216.81,164.30,-155.38,235.38"/>
<path d="M-143.39,315.33,30.77,373.85"/>
<path d="M-143.39,315.33,-155.38,235.38"/>
<path d="M715.38,189.23,572.31,180.00"/>
<path d="M101.48,109.86,-33.15,133.61"/>
<circle cx="-52.31" cy="535.38" r="10"/>
<text x="-52.31" y="540.38">Bordeaux</text>
<circle cx="133.26" cy="648.84" r="10"/>
<text x="133.26" y="653.84">Toulouse</text>
<circle cx="175.38" cy="250.77" r="10"/>
<text x="175.38" y="255.77">Orleans</text>
<circle cx="116.10" cy="443.24" r="10"/>
<text x="116.10" y="448.24">Limoges</text>
<circle cx="463.08" cy="306.15" r="10"/>
<text x="463.08" y="311.15">Dijon</text>
<circle cx="556.92" cy="312.31" r="10"/>
<text x="556.92" y="317.31">Besancon</text>
<circle cx="358.46" cy="649.23" r="10"/>
<text x="358.46" y="654.23">Montpellier</text>
<circle cx="284.62" cy="447.69" r="10"/>
<text x="284.62" y="452.69">Clermont-Ferrand</text>
<circle cx="527.69" cy="504.61" r="10"/>
<text x="527.69" y="509.61">Grenoble</text>
<circle cx="650.51" cy="647.17" r="10"/>
<text x="650.51" y="652.17">Sophia</text>
<circle cx="447.69" cy="450.77" r="10"/>
<text x="447.69" y="455.77">Lyon</text>
<circle cx="216.81" cy="164.30" r="10"/>
<text x="216.81" y="169.30">Paris</text>
<circle cx="844.62" cy="769.23" r="10"/>
<text x="844.62" y="774.23">Corte</text>
<circle cx="498.46" cy="676.92" r="10"/>
<text x="498.46" y="681.92">Marseille</text>
<circle cx="-143.39" cy="315.33" r="10"/>
<text x="-143.39" y="320.33">Nantes</text>
<circle cx="30.77" cy="373.85" r="10"/>
<text x="30.77" y="378.85">Poiters</text>
<circle cx="715.38" cy="189.23" r="10"/>
<text x="715.38" y="194.23">Strasbourg</text>
<circle cx="572.31" cy="180.00" r="10"/>
<text x="572.31" y="185.00">Nancy</text>
<circle cx="372.31" cy="127.69" r="10"/>
<text x="372.31" y="132.69">Reims</text>
<circle cx="260.87" cy="112.19" r="10"/>
<text x="260.87" y="117.19">Compiegne</text>
<circle cx="283.08" cy="0.00" r="10"/>
<text x="283.08" y="5.00">Lille</text>
<circle cx="101.48" cy="109.86" r="10"/>
<text x="101.48" y="114.86">Rouen</text>
<circle cx="-33.15" cy="133.61" r="10"/>
<text x="-33.15" y="138.61">Caen</text>
<circle cx="-155.38" cy="235.38" r="10"/>
<text x="-155.38" y="240.38">Rennes</text>
</svg>
