<svg id="topo" viewBox="-22.09 -66.29 4.19 3.00" xmlns="http://www.w3.org/2000/svg">
<style>#topo path {fill: none; stroke: grey; stroke-width: 0.0152px;} #topo circle {fill: lightblue; stroke: none; stroke-width: 0.3px; vector-effect: non-scaling-stroke; r: 0.0305px;} #topo text {fill: black; stroke: none; font-size: 0.0457px; font-family: sans-serif; text-anchor:middle; transform: translateY(0.3em);} #topo path.country {fill: lightgrey; stroke: black; stroke-width: 1px; vector-effect: non-scaling-stroke; visibility: visible;} #topo path.selection {fill: none; stroke: red; stroke-width: 1px; vector-effect: non-scaling-stroke; visibility: visible;} #topo path.utilization {visibility: hidden;}</style>
<path class="country" d="M -15.54,-66.23 L -15.43,-66.22 L -15.24,-66.26 L -15.16,-66.28 L -14.97,-66.36 L -14.86,-66.38 L -14.68,-66.38 L -14.60,-66.38 L -14.59,-66.37 L -14.70,-66.34 L -14.79,-66.33 L -14.91,-66.28 L -15.03,-66.18 L -15.12,-66.13 L -15.12,-66.10 L -15.01,-66.06 L -14.89,-66.04 L -14.79,-66.06 L -14.74,-66.05 L -14.70,-66.02 L -14.67,-65.99 L -14.67,-65.96 L -14.69,-65.90 L -14.75,-65.83 L -14.84,-65.78 L -14.83,-65.76 L -14.76,-65.76 L -14.43,-65.79 L -14.39,-65.79 L -14.37,-65.77 L -14.37,-65.74 L -14.35,-65.71 L -14.32,-65.68 L -14.33,-65.66 L -14.47,-65.58 L -14.30,-65.63 L -14.17,-65.64 L -13.94,-65.62 L -13.84,-65.59 L -13.79,-65.53 L -13.71,-65.55 L -13.67,-65.55 L -13.62,-65.52 L -13.62,-65.49 L -13.65,-65.44 L -13.67,-65.40 L -13.71,-65.38 L -13.78,-65.37 L -13.80,-65.35 L -13.77,-65.32 L -13.72,-65.29 L -13.65,-65.29 L -13.64,-65.28 L -13.64,-65.26 L -13.65,-65.24 L -13.67,-65.22 L -13.71,-65.22 L -13.75,-65.19 L -13.58,-65.14 L -13.56,-65.12 L -13.56,-65.10 L -13.57,-65.07 L -13.60,-65.04 L -13.65,-65.02 L -13.78,-65.01 L -13.85,-64.99 L -13.83,-64.96 L -13.83,-64.91 L -13.85,-64.86 L -13.95,-64.78 L -14.04,-64.74 L -14.14,-64.71 L -14.30,-64.72 L -14.39,-64.75 L -14.38,-64.68 L -14.47,-64.64 L -14.45,-64.60 L -14.42,-64.58 L -14.43,-64.54 L -14.48,-64.49 L -14.55,-64.45 L -14.63,-64.42 L -14.79,-64.38 L -14.93,-64.32 L -15.02,-64.30 L -15.26,-64.30 L -15.49,-64.26 L -15.83,-64.18 L -16.06,-64.11 L -16.24,-64.04 L -16.47,-63.92 L -16.64,-63.87 L -16.74,-63.85 L -16.93,-63.84 L -17.10,-63.81 L -17.63,-63.75 L -17.82,-63.71 L -17.84,-63.68 L -17.91,-63.64 L -17.92,-63.62 L -17.89,-63.61 L -17.88,-63.59 L -17.95,-63.54 L -18.08,-63.50 L -18.14,-63.50 L -18.22,-63.53 L -18.25,-63.53 L -18.27,-63.52 L -18.27,-63.51 L -18.22,-63.47 L -18.30,-63.45 L -18.65,-63.41 L -19.25,-63.44 L -19.49,-63.48 L -19.78,-63.54 L -19.95,-63.55 L -20.20,-63.56 L -20.40,-63.64 L -20.49,-63.69 L -20.50,-63.71 L -20.49,-63.73 L -20.47,-63.75 L -20.44,-63.76 L -20.37,-63.76 L -20.36,-63.76 L -20.41,-63.81 L -20.46,-63.79 L -20.59,-63.74 L -20.65,-63.74 L -20.73,-63.77 L -20.73,-63.79 L -20.88,-63.80 L -21.01,-63.84 L -21.14,-63.89 L -21.16,-63.91 L -21.09,-63.93 L -21.11,-63.94 L -21.15,-63.94 L -21.25,-63.94 L -21.39,-63.87 L -21.45,-63.86 L -22.37,-63.84 L -22.61,-63.84 L -22.65,-63.83 L -22.69,-63.87 L -22.73,-63.96 L -22.74,-64.02 L -22.73,-64.05 L -22.70,-64.08 L -22.65,-64.08 L -22.60,-64.05 L -22.56,-64.01 L -22.51,-63.99 L -22.19,-64.04 L -22.06,-64.07 L -22.00,-64.10 L -21.94,-64.15 L -21.87,-64.18 L -21.83,-64.21 L -21.77,-64.28 L -21.72,-64.32 L -21.67,-64.35 L -21.61,-64.37 L -21.46,-64.38 L -21.56,-64.40 L -21.65,-64.40 L -21.95,-64.31 L -22.05,-64.31 L -22.05,-64.33 L -22.01,-64.35 L -21.90,-64.39 L -21.97,-64.39 L -22.00,-64.41 L -22.00,-64.45 L -21.95,-64.51 L -21.70,-64.60 L -21.62,-64.61 L -21.59,-64.63 L -21.62,-64.64 L -21.67,-64.65 L -21.92,-64.56 L -22.11,-64.53 L -22.16,-64.54 L -22.25,-64.57 L -22.28,-64.59 L -22.32,-64.62 L -22.32,-64.65 L -22.23,-64.71 L -22.25,-64.73 L -22.31,-64.73 L -22.47,-64.79 L -22.72,-64.79 L -23.35,-64.82 L -23.48,-64.81 L -23.69,-64.76 L -23.82,-64.74 L -23.88,-64.75 L -23.93,-64.78 L -23.98,-64.82 L -24.03,-64.86 L -24.01,-64.90 L -23.92,-64.92 L -23.86,-64.92 L -23.69,-64.91 L -23.49,-64.95 L -23.35,-64.95 L -23.31,-64.96 L -23.24,-64.99 L -23.20,-65.00 L -23.14,-64.99 L -23.11,-64.97 L -22.90,-65.00 L -22.83,-65.02 L -22.82,-65.03 L -22.79,-65.05 L -22.68,-65.03 L -22.60,-65.03 L -22.49,-65.04 L -22.31,-65.05 L -21.89,-65.05 L -21.83,-65.08 L -21.80,-65.11 L -21.76,-65.17 L -21.78,-65.19 L -22.04,-65.13 L -22.10,-65.13 L -22.40,-65.16 L -22.51,-65.20 L -22.47,-65.23 L -22.31,-65.29 L -22.15,-65.34 L -21.91,-65.40 L -21.85,-65.42 L -21.84,-65.45 L -22.01,-65.49 L -22.31,-65.48 L -22.39,-65.54 L -22.64,-65.57 L -22.81,-65.55 L -22.90,-65.58 L -23.12,-65.53 L -23.60,-65.47 L -23.80,-65.42 L -23.90,-65.41 L -24.02,-65.45 L -24.22,-65.49 L -24.45,-65.50 L -24.48,-65.53 L -24.34,-65.60 L -24.25,-65.61 L -24.16,-65.61 L -23.98,-65.55 L -23.86,-65.54 L -24.01,-65.62 L -24.01,-65.65 L -24.02,-65.69 L -24.07,-65.71 L -24.11,-65.76 L -24.09,-65.78 L -24.03,-65.78 L -23.91,-65.77 L -23.62,-65.68 L -23.47,-65.69 L -23.39,-65.73 L -23.29,-65.75 L -23.32,-65.76 L -23.57,-65.76 L -23.70,-65.78 L -23.77,-65.81 L -23.83,-65.85 L -23.81,-65.87 L -23.74,-65.88 L -23.52,-65.88 L -23.67,-65.95 L -23.77,-66.00 L -23.78,-66.02 L -23.77,-66.04 L -23.76,-66.06 L -23.74,-66.07 L -23.49,-66.03 L -23.43,-66.02 L -23.48,-66.05 L -23.59,-66.09 L -23.60,-66.11 L -23.55,-66.12 L -23.53,-66.15 L -23.53,-66.16 L -23.45,-66.18 L -23.38,-66.18 L -23.30,-66.17 L -23.06,-66.09 L -23.03,-66.06 L -23.02,-66.03 L -23.03,-66.00 L -23.02,-65.98 L -22.93,-65.99 L -22.85,-65.98 L -22.82,-65.98 L -22.72,-66.04 L -22.66,-66.03 L -22.62,-66.00 L -22.61,-65.98 L -22.60,-65.94 L -22.62,-65.88 L -22.62,-65.87 L -22.55,-65.91 L -22.44,-65.91 L -22.43,-65.93 L -22.42,-66.00 L -22.43,-66.06 L -22.45,-66.07 L -22.81,-66.15 L -22.87,-66.17 L -22.95,-66.21 L -22.93,-66.23 L -22.86,-66.25 L -22.76,-66.26 L -22.51,-66.26 L -22.48,-66.27 L -22.53,-66.29 L -22.65,-66.30 L -22.67,-66.31 L -22.69,-66.34 L -22.82,-66.32 L -22.97,-66.32 L -23.12,-66.34 L -23.12,-66.36 L -23.06,-66.38 L -22.94,-66.43 L -22.89,-66.44 L -22.72,-66.43 L -22.56,-66.45 L -22.43,-66.43 L -22.32,-66.39 L -22.17,-66.31 L -21.97,-66.26 L -21.95,-66.24 L -21.84,-66.20 L -21.63,-66.09 L -21.41,-66.03 L -21.40,-66.01 L -21.43,-65.99 L -21.52,-65.97 L -21.50,-65.96 L -21.39,-65.94 L -21.31,-65.90 L -21.30,-65.88 L -21.37,-65.74 L -21.41,-65.71 L -21.46,-65.70 L -21.66,-65.72 L -21.61,-65.68 L -21.47,-65.64 L -21.43,-65.61 L -21.46,-65.58 L -21.44,-65.58 L -21.39,-65.59 L -21.36,-65.58 L -21.37,-65.54 L -21.40,-65.50 L -21.43,-65.47 L -21.42,-65.46 L -21.37,-65.47 L -21.31,-65.46 L -21.23,-65.42 L -21.16,-65.30 L -21.13,-65.27 L -21.11,-65.30 L -21.08,-65.38 L -21.05,-65.43 L -21.02,-65.43 L -21.00,-65.44 L -20.98,-65.47 L -20.94,-65.57 L -20.80,-65.64 L -20.74,-65.66 L -20.68,-65.66 L -20.65,-65.65 L -20.55,-65.58 L -20.49,-65.57 L -20.45,-65.57 L -20.41,-65.62 L -20.36,-65.72 L -20.34,-65.83 L -20.37,-65.95 L -20.36,-66.03 L -20.29,-66.08 L -20.21,-66.10 L -20.10,-66.08 L -20.03,-66.05 L -19.87,-65.93 L -19.75,-65.87 L -19.65,-65.80 L -19.59,-65.78 L -19.49,-65.77 L -19.46,-65.77 L -19.44,-65.79 L -19.43,-65.81 L -19.46,-65.98 L -19.43,-66.04 L -19.38,-66.08 L -19.20,-66.10 L -19.09,-66.12 L -18.99,-66.16 L -18.91,-66.18 L -18.85,-66.18 L -18.78,-66.17 L -18.71,-66.14 L -18.59,-66.07 L -18.45,-65.96 L -18.28,-65.88 L -18.18,-65.76 L -18.16,-65.74 L -18.14,-65.73 L -18.12,-65.75 L -18.10,-65.77 L -18.10,-65.83 L -18.15,-65.91 L -18.32,-66.09 L -18.32,-66.13 L -18.30,-66.16 L -18.18,-66.16 L -17.91,-66.14 L -17.82,-66.11 L -17.63,-66.00 L -17.58,-65.97 L -17.55,-65.96 L -17.54,-65.98 L -17.47,-66.00 L -17.42,-66.03 L -17.33,-66.09 L -17.15,-66.20 L -17.12,-66.21 L -17.06,-66.20 L -16.97,-66.17 L -16.93,-66.14 L -16.84,-66.13 L -16.75,-66.13 L -16.62,-66.17 L -16.49,-66.20 L -16.44,-66.25 L -16.43,-66.28 L -16.54,-66.45 L -16.49,-66.48 L -16.25,-66.52 L -16.04,-66.53 L -15.99,-66.51 L -15.85,-66.43 L -15.76,-66.39 L -15.71,-66.36 L -15.70,-66.29 L -15.65,-66.26 L -15.54,-66.23 Z"/>
<path data-id="0-2" d="M-18.09,-65.68,-18.09,-65.68"/>
<path data-id="0-3" d="M-18.09,-65.68,-18.09,-65.68"/>
<path data-id="1-10" d="M-21.90,-64.14,-21.90,-64.14"/>
<path data-id="1-3" d="M-21.90,-64.14,-18.09,-65.68"/>
<path data-id="2-3" d="M-18.09,-65.68,-18.09,-65.68"/>
<path data-id="6-15" d="M-18.91,-66.15,-18.91,-66.15"/>
<path data-id="8-9" d="M-21.90,-64.14,-21.90,-64.14"/>
<path data-id="8-15" d="M-21.90,-64.14,-18.91,-66.15"/>
<path data-id="9-10" d="M-21.90,-64.14,-21.90,-64.14"/>
<path data-id="10-11" d="M-21.90,-64.14,-21.90,-64.14"/>
<path data-id="11-12" d="M-21.90,-64.14,-21.90,-64.14"/>
<path data-id="12-13" d="M-21.90,-64.14,-21.90,-64.14"/>
<path data-id="13-14" d="M-21.90,-64.14,-20.29,-63.42"/>
<path data-id="14-15" d="M-20.29,-63.42,-18.91,-66.15"/>
<circle data-id="0" cx="-18.09" cy="-65.68" r="0.03px"/>
<text data-id="0" x="-18.09" y="-65.68">Solborg-Akureyri</text>
<circle data-id="1" cx="-21.90" cy="-64.14" r="0.03px"/>
<text data-id="1" x="-21.90" y="-64.14">Fjarski</text>
<circle data-id="2" cx="-18.09" cy="-65.68" r="0.03px"/>
<text data-id="2" x="-18.09" y="-65.68">FSA-Akureyri</text>
<circle data-id="3" cx="-18.09" cy="-65.68" r="0.03px"/>
<text data-id="3" x="-18.09" y="-65.68">DST-Akureyri</text>
<circle data-id="6" cx="-18.91" cy="-66.15" r="0.03px"/>
<text data-id="6" x="-18.91" y="-66.15">Hvanneyri</text>
<circle data-id="8" cx="-21.90" cy="-64.14" r="0.03px"/>
<text data-id="8" x="-21.90" y="-64.14">Grensas</text>
<circle data-id="9" cx="-21.90" cy="-64.14" r="0.03px"/>
<text data-id="9" x="-21.90" y="-64.14">Skulagata</text>
<circle data-id="10" cx="-21.90" cy="-64.14" r="0.03px"/>
<text data-id="10" x="-21.90" y="-64.14">Taeknigarour</text>
<circle data-id="11" cx="-21.90" cy="-64.14" r="0.03px"/>
<text data-id="11" x="-21.90" y="-64.14">Sturlugata</text>
<circle data-id="12" cx="-21.90" cy="-64.14" r="0.03px"/>
<text data-id="12" x="-21.90" y="-64.14">Hringbraut</text>
<circle data-id="13" cx="-21.90" cy="-64.14" r="0.03px"/>
<text data-id="13" x="-21.90" y="-64.14">Bustaoavegur</text>
<circle data-id="14" cx="-20.29" cy="-63.42" r="0.03px"/>
<text data-id="14" x="-20.29" y="-63.42">Ofanleiti</text>
<circle data-id="15" cx="-18.91" cy="-66.15" r="0.03px"/>
<text data-id="15" x="-18.91" y="-66.15">Keldhaholt</text>
</svg>
