<svg id="topo" width="1004.29" height="1090.00" viewBox="931.89 -45.00 1004.29 1090.00" xmlns="http://www.w3.org/2000/svg">
<style>#topo path {fill: none; stroke: grey; stroke-width: 6;} #topo circle {fill: lightblue; stroke: none;} #topo text {fill: black; stroke: none; font-size: 16; font-family: sans-serif; text-anchor:middle;}</style>
<path d="M976.89,828.46,1049.54,912.77"/>
<path d="M976.89,828.46,1056.35,827.33"/>
<path d="M976.89,828.46,1003.17,781.40"/>
<path d="M1130.22,772.62,1241.37,700.55"/>
<path d="M1130.22,772.62,1056.35,827.33"/>
<path d="M1130.22,772.62,1003.17,781.40"/>
<path d="M1241.37,700.55,1260.19,601.63"/>
<path d="M1241.37,700.55,1102.35,691.96"/>
<path d="M1241.37,700.55,1891.18,163.73"/>
<path d="M1102.35,691.96,1003.17,781.40"/>
<path d="M1049.54,912.77,1077.01,991.84"/>
<path d="M1274.85,770.54,1474.70,695.78"/>
<path d="M1274.85,770.54,1155.62,822.40"/>
<path d="M1155.62,822.40,1209.54,897.08"/>
<path d="M1209.54,897.08,1077.01,991.84"/>
<path d="M1209.54,897.08,1335.66,913.82"/>
<path d="M1077.01,991.84,1061.30,1000.00"/>
<path d="M1155.31,965.27,1247.04,950.68"/>
<path d="M1155.31,965.27,1061.30,1000.00"/>
<path d="M1247.04,950.68,1335.66,913.82"/>
<path d="M1493.57,833.87,1474.70,695.78"/>
<path d="M1474.70,695.78,1891.18,163.73"/>
<path d="M1474.70,695.78,1440.46,652.84"/>
<path d="M1651.05,0.00,1808.57,185.44"/>
<path d="M1808.57,185.44,1653.87,328.76"/>
<path d="M1653.87,328.76,1412.78,446.08"/>
<path d="M1412.78,446.08,1399.34,586.23"/>
<path d="M1399.34,586.23,1260.19,601.63"/>
<path d="M1399.34,586.23,1440.46,652.84"/>
<circle cx="976.89" cy="828.46" r="10"/>
<text x="976.89" y="833.46">Goteborg</text>
<circle cx="1130.22" cy="772.62" r="10"/>
<text x="1130.22" y="777.62">Skovde</text>
<circle cx="1241.37" cy="700.55" r="10"/>
<text x="1241.37" y="705.55">Orebro</text>
<circle cx="1102.35" cy="691.96" r="10"/>
<text x="1102.35" y="696.96">Karlstad</text>
<circle cx="1049.54" cy="912.77" r="10"/>
<text x="1049.54" y="917.77">Halmstad</text>
<circle cx="1274.85" cy="770.54" r="10"/>
<text x="1274.85" y="775.54">Linkoping</text>
<circle cx="1056.35" cy="827.33" r="10"/>
<text x="1056.35" y="832.33">Boras</text>
<circle cx="1003.17" cy="781.40" r="10"/>
<text x="1003.17" y="786.40">Trollhattan</text>
<circle cx="1155.62" cy="822.40" r="10"/>
<text x="1155.62" y="827.40">Jonkoping</text>
<circle cx="1209.54" cy="897.08" r="10"/>
<text x="1209.54" y="902.08">Vaxjo</text>
<circle cx="1077.01" cy="991.84" r="10"/>
<text x="1077.01" y="996.84">Lund</text>
<circle cx="1155.31" cy="965.27" r="10"/>
<text x="1155.31" y="970.27">Kristianstad</text>
<circle cx="1247.04" cy="950.68" r="10"/>
<text x="1247.04" y="955.68">Ronneby</text>
<circle cx="1335.66" cy="913.82" r="10"/>
<text x="1335.66" y="918.82">Kalmar</text>
<circle cx="1493.57" cy="833.87" r="10"/>
<text x="1493.57" y="838.87">Visby</text>
<circle cx="1061.30" cy="1000.00" r="10"/>
<text x="1061.30" y="1005.00">Malmo</text>
<circle cx="1474.70" cy="695.78" r="10"/>
<text x="1474.70" y="700.78">Stockholm</text>
<circle cx="1891.18" cy="163.73" r="10"/>
<text x="1891.18" y="168.73">Vasten</text>
<circle cx="1651.05" cy="0.00" r="10"/>
<text x="1651.05" y="5.00">Kiruna</text>
<circle cx="1808.57" cy="185.44" r="10"/>
<text x="1808.57" y="190.44">Lulea</text>
<circle cx="1653.87" cy="328.76" r="10"/>
<text x="1653.87" y="333.76">Umea</text>
<circle cx="1412.78" cy="446.08" r="10"/>
<text x="1412.78" y="451.08">Sundsvall</text>
<circle cx="1399.34" cy="586.23" r="10"/>
<text x="1399.34" y="591.23">Gavle</text>
<circle cx="1260.19" cy="601.63" r="10"/>
<text x="1260.19" y="606.63">Borlange</text>
<circle cx="1440.46" cy="652.84" r="10"/>
<text x="1440.46" y="657.84">Uppsala</text>
</svg>
