<svg id="topo" width="1090.00" height="527.55" viewBox="1619.80 -45.00 1090.00 527.55" xmlns="http://www.w3.org/2000/svg">
<style>#topo path {fill: none; stroke: grey; stroke-width: 6;} #topo circle {fill: lightblue; stroke: none;} #topo text {fill: black; stroke: none; font-size: 16; font-family: sans-serif; text-anchor:middle;}</style>
<path d="M1937.21,229.61,1796.76,307.19"/>
<path d="M1937.21,229.61,2017.43,190.14"/>
<path d="M2051.52,24.81,1971.77,142.57"/>
<path d="M2051.52,24.81,1989.56,77.22"/>
<path d="M2051.52,24.81,2017.43,190.14"/>
<path d="M2051.52,24.81,2225.32,33.37"/>
<path d="M2051.52,24.81,2316.11,76.75"/>
<path d="M1989.56,77.22,1877.54,178.30"/>
<path d="M2017.43,190.14,1796.76,307.19"/>
<path d="M2017.43,190.14,2416.04,437.55"/>
<path d="M2487.67,0.00,2539.53,61.25"/>
<path d="M2487.67,0.00,2316.11,76.75"/>
<path d="M2539.53,61.25,2187.10,71.00"/>
<path d="M2539.53,61.25,2582.48,130.93"/>
<path d="M2539.53,61.25,2370.28,40.63"/>
<path d="M2225.32,33.37,2316.11,76.75"/>
<path d="M2316.11,76.75,2250.97,171.49"/>
<path d="M2316.11,76.75,1796.76,307.19"/>
<path d="M2316.11,76.75,2287.00,79.87"/>
<path d="M2316.11,76.75,2370.28,40.63"/>
<path d="M2316.11,76.75,2316.11,76.75"/>
<path d="M2316.11,76.75,2389.86,114.97"/>
<path d="M2316.11,76.75,2416.04,437.55"/>
<path d="M2187.10,71.00,2582.36,216.75"/>
<path d="M2187.10,71.00,2664.80,229.09"/>
<path d="M2187.10,71.00,2582.48,130.93"/>
<path d="M2582.36,216.75,2664.80,229.09"/>
<path d="M2582.36,216.75,2389.86,114.97"/>
<path d="M1877.54,178.30,1796.76,307.19"/>
<path d="M1877.54,178.30,2003.46,124.04"/>
<path d="M1877.54,178.30,1799.02,236.07"/>
<path d="M1877.54,178.30,2316.11,76.75"/>
<path d="M2316.11,76.75,2316.47,92.95"/>
<path d="M2162.60,361.19,1915.85,419.13"/>
<path d="M2162.60,361.19,2416.04,437.55"/>
<path d="M1915.85,419.13,1796.76,307.19"/>
<path d="M2003.46,124.04,2316.11,76.75"/>
<path d="M2582.48,130.93,2389.86,114.97"/>
<path d="M2389.86,114.97,2416.04,437.55"/>
<path d="M2416.04,437.55,2250.97,171.49"/>
<path d="M2416.04,437.55,1796.76,307.19"/>
<path d="M2316.11,76.75,1971.77,142.57"/>
<path d="M2316.11,76.75,1664.80,392.19"/>
<path d="M2316.11,76.75,1796.76,307.19"/>
<path d="M1664.80,392.19,1796.76,307.19"/>
<path d="M1664.80,392.19,1664.80,392.19"/>
<path d="M1664.80,392.19,1796.76,307.19"/>
<path d="M1796.76,307.19,1796.76,307.19"/>
<path d="M1664.80,392.19,1796.76,307.19"/>
<path d="M1796.76,307.19,1799.02,236.07"/>
<path d="M2287.00,79.87,2316.47,92.95"/>
<circle cx="1937.21" cy="229.61" r="10"/>
<text x="1937.21" y="234.61">Fribourg</text>
<circle cx="2051.52" cy="24.81" r="10"/>
<text x="2051.52" y="29.81">Basel</text>
<circle cx="1989.56" cy="77.22" r="10"/>
<text x="1989.56" y="82.22">Delemont</text>
<circle cx="2017.43" cy="190.14" r="10"/>
<text x="2017.43" y="195.14">Bern</text>
<circle cx="2487.67" cy="0.00" r="10"/>
<text x="2487.67" y="5.00">Kreuzlingen</text>
<circle cx="2539.53" cy="61.25" r="10"/>
<text x="2539.53" y="66.25">St. Gallen</text>
<circle cx="2225.32" cy="33.37" r="10"/>
<text x="2225.32" y="38.37">Villigen PSI</text>
<circle cx="2316.11" cy="76.75" r="10"/>
<text x="2316.11" y="81.75">Zurich (ETH)</text>
<circle cx="2187.10" cy="71.00" r="10"/>
<text x="2187.10" y="76.00">Buchs SG</text>
<circle cx="2582.36" cy="216.75" r="10"/>
<text x="2582.36" y="221.75">Chur</text>
<circle cx="1877.54" cy="178.30" r="10"/>
<text x="1877.54" y="183.30">Neuchatel</text>
<circle cx="2316.11" cy="76.75" r="10"/>
<text x="2316.11" y="81.75">IXEurope Zurich</text>
<circle cx="2162.60" cy="361.19" r="10"/>
<text x="2162.60" y="366.19">Brig</text>
<circle cx="1915.85" cy="419.13" r="10"/>
<text x="1915.85" y="424.13">Martigny</text>
<circle cx="2003.46" cy="124.04" r="10"/>
<text x="2003.46" y="129.04">Grenchen</text>
<circle cx="2664.80" cy="229.09" r="10"/>
<text x="2664.80" y="234.09">Davos</text>
<circle cx="2582.48" cy="130.93" r="10"/>
<text x="2582.48" y="135.93">Liechtenstein</text>
<circle cx="2389.86" cy="114.97" r="10"/>
<text x="2389.86" y="119.97">Rapperswil</text>
<circle cx="2416.04" cy="437.55" r="10"/>
<text x="2416.04" y="442.55">Manno</text>
<circle cx="2316.11" cy="76.75" r="10"/>
<text x="2316.11" y="81.75">Zurich (University)</text>
<circle cx="2250.97" cy="171.49" r="10"/>
<text x="2250.97" y="176.49">Horw</text>
<circle cx="1971.77" cy="142.57" r="10"/>
<text x="1971.77" y="147.57">Brugg</text>
<circle cx="1664.80" cy="392.19" r="10"/>
<text x="1664.80" y="397.19">CERN</text>
<circle cx="1796.76" cy="307.19" r="10"/>
<text x="1796.76" y="312.19">Lausanne (University)</text>
<circle cx="1664.80" cy="392.19" r="10"/>
<text x="1664.80" y="397.19">Geneva</text>
<circle cx="1796.76" cy="307.19" r="10"/>
<text x="1796.76" y="312.19">Lausanne (EPFL)</text>
<circle cx="1799.02" cy="236.07" r="10"/>
<text x="1799.02" y="241.07">Yverdon</text>
<circle cx="2287.00" cy="79.87" r="10"/>
<text x="2287.00" y="84.87">Birmensdorf</text>
<circle cx="2316.47" cy="92.95" r="10"/>
<text x="2316.47" y="97.95">Rueschlikon</text>
<circle cx="2370.28" cy="40.63" r="10"/>
<text x="2370.28" y="45.63">Winterthur</text>
</svg>
