<svg width="740.95" height="1090.00" viewBox="2955.69 -45.00 740.95 1090.00" xmlns="http://www.w3.org/2000/svg">
<style>path {fill: none; stroke: grey; stroke-width: 6;} circle {fill: lightblue; stroke: none;} text {fill: black; stroke: none; font-size: 16; font-family: sans-serif; text-anchor:middle;}</style>
<path d="M3429.75,287.19,3416.67,270.66"/>
<path d="M3429.75,287.19,3517.22,276.17"/>
<path d="M3045.12,318.68,3000.69,382.23"/>
<path d="M3045.12,318.68,3084.02,286.50"/>
<path d="M3362.26,234.16,3334.02,194.90"/>
<path d="M3362.26,234.16,3343.66,224.52"/>
<path d="M3334.02,194.90,3281.68,162.53"/>
<path d="M3224.45,81.01,3343.66,224.52"/>
<path d="M3343.66,224.52,3416.67,270.66"/>
<path d="M3343.66,224.52,3320.25,240.36"/>
<path d="M3320.25,240.36,3338.84,262.40"/>
<path d="M3338.84,262.40,3382.23,282.37"/>
<path d="M3382.23,282.37,3359.50,320.25"/>
<path d="M3382.23,282.37,3247.25,283.06"/>
<path d="M3517.22,276.17,3511.71,313.36"/>
<path d="M3552.34,351.24,3572.31,350.55"/>
<path d="M3552.34,351.24,3594.35,355.37"/>
<path d="M3552.34,351.24,3526.86,342.98"/>
<path d="M3552.34,351.24,3561.29,391.87"/>
<path d="M3526.86,342.98,3511.71,313.36"/>
<path d="M3526.86,342.98,3526.17,369.15"/>
<path d="M3651.64,401.39,3608.82,411.16"/>
<path d="M3651.64,401.39,3526.17,369.15"/>
<path d="M3340.22,318.18,3359.50,320.25"/>
<path d="M3340.22,318.18,3247.25,283.06"/>
<path d="M3340.22,318.18,3303.72,376.71"/>
<path d="M3572.31,350.55,3594.35,355.37"/>
<path d="M3247.25,283.06,3230.54,250.40"/>
<path d="M3168.73,705.92,3196.97,664.60"/>
<path d="M3168.73,705.92,3206.75,797.81"/>
<path d="M3168.73,705.92,3179.06,707.99"/>
<path d="M3179.06,707.99,3078.51,678.37"/>
<path d="M3050.96,694.21,3050.96,694.21"/>
<path d="M3050.96,694.21,3094.35,802.34"/>
<path d="M3050.96,694.21,3106.06,699.72"/>
<path d="M3106.06,699.72,3078.51,678.37"/>
<path d="M3106.06,699.72,3144.60,796.81"/>
<path d="M3137.05,603.31,3078.51,678.37"/>
<path d="M3137.05,603.31,3174.93,617.77"/>
<path d="M3137.05,603.31,3088.15,545.45"/>
<path d="M3078.51,678.37,3066.80,643.94"/>
<path d="M3078.51,678.37,3050.96,694.21"/>
<path d="M3196.97,664.60,3242.75,616.04"/>
<path d="M3174.93,617.77,3242.75,616.04"/>
<path d="M3157.02,745.87,3094.35,802.34"/>
<path d="M3561.29,391.87,3507.58,416.67"/>
<path d="M3180.44,879.48,3215.56,943.53"/>
<path d="M3180.44,879.48,3252.01,887.62"/>
<path d="M3180.44,879.48,3196.28,875.34"/>
<path d="M3180.44,879.48,3153.58,942.15"/>
<path d="M3149.45,899.45,3153.58,942.15"/>
<path d="M3149.45,899.45,3167.36,888.43"/>
<path d="M3507.58,416.67,3373.28,456.61"/>
<path d="M3608.82,411.16,3546.83,497.93"/>
<path d="M3113.95,843.63,3094.35,802.34"/>
<path d="M3113.95,843.63,3130.85,869.15"/>
<path d="M3094.35,802.34,3130.85,869.15"/>
<path d="M3167.36,888.43,3130.85,869.15"/>
<path d="M3163.91,139.81,3183.20,157.71"/>
<path d="M3163.91,139.81,3157.04,80.85"/>
<path d="M3163.91,139.81,3182.51,136.36"/>
<path d="M3183.20,157.71,3191.09,150.73"/>
<path d="M3097.11,86.09,3096.42,59.23"/>
<path d="M3095.04,70.25,3093.62,26.87"/>
<path d="M3095.04,70.25,3096.42,59.23"/>
<path d="M3195.45,153.03,3191.09,150.73"/>
<path d="M3210.74,136.36,3255.51,142.56"/>
<path d="M3210.74,136.36,3199.72,149.45"/>
<path d="M3191.09,150.73,3132.92,221.76"/>
<path d="M3191.09,150.73,3182.51,136.36"/>
<path d="M3191.09,150.73,3210.05,197.66"/>
<path d="M3191.09,150.73,3199.72,149.45"/>
<path d="M3182.51,136.36,3181.13,107.44"/>
<path d="M3255.51,142.56,3281.68,162.53"/>
<path d="M3317.29,793.20,3281.68,769.97"/>
<path d="M3294.08,803.72,3298.76,841.05"/>
<path d="M3294.08,803.72,3281.68,769.97"/>
<path d="M3206.75,797.81,3212.12,865.01"/>
<path d="M3206.75,797.81,3230.03,852.62"/>
<path d="M3206.75,797.81,3228.65,791.32"/>
<path d="M3206.75,797.81,3167.34,825.46"/>
<path d="M3228.65,791.32,3281.68,769.97"/>
<path d="M3167.34,825.46,3130.85,869.15"/>
<path d="M3307.85,693.53,3331.27,651.51"/>
<path d="M3307.85,693.53,3304.41,737.60"/>
<path d="M3307.85,693.53,3442.15,602.62"/>
<path d="M3331.27,651.51,3242.75,616.04"/>
<path d="M3281.68,769.97,3304.41,737.60"/>
<path d="M3373.28,456.61,3291.32,459.37"/>
<path d="M3373.28,456.61,3537.19,480.03"/>
<path d="M3373.28,456.61,3303.72,376.71"/>
<path d="M3291.32,459.37,3268.60,460.05"/>
<path d="M3268.60,460.05,3212.81,469.01"/>
<path d="M3268.60,460.05,3248.62,476.58"/>
<path d="M3248.62,476.58,3276.86,509.64"/>
<path d="M3212.81,469.01,3148.07,485.54"/>
<path d="M3148.07,485.54,3122.59,465.56"/>
<path d="M3181.82,477.27,3122.59,465.56"/>
<path d="M3154.27,431.82,3122.59,465.56"/>
<path d="M3154.27,431.82,3111.57,400.14"/>
<path d="M3546.83,497.93,3537.19,480.03"/>
<path d="M3537.19,480.03,3442.15,602.62"/>
<path d="M3303.72,376.71,3283.06,349.17"/>
<path d="M3303.72,376.71,3133.61,395.26"/>
<path d="M3283.06,349.17,3252.75,349.17"/>
<path d="M3252.75,349.17,3170.11,342.29"/>
<path d="M3252.75,349.17,3215.56,361.57"/>
<path d="M3195.59,542.70,3112.95,512.40"/>
<path d="M3195.59,542.70,3226.93,605.53"/>
<path d="M3088.15,545.45,3112.95,512.40"/>
<path d="M3088.15,545.45,3049.59,508.26"/>
<path d="M3088.15,545.45,3051.87,568.75"/>
<path d="M3051.87,568.75,3010.25,548.30"/>
<path d="M3051.87,568.75,3057.16,603.31"/>
<path d="M3057.16,603.31,3066.80,643.94"/>
<path d="M3057.16,603.31,3081.16,637.56"/>
<path d="M3276.86,509.64,3242.75,616.04"/>
<path d="M3242.75,616.04,3226.93,605.53"/>
<path d="M3173.28,64.01,3134.30,57.16"/>
<path d="M3173.28,64.01,3172.76,78.72"/>
<path d="M3066.80,643.94,3081.16,637.56"/>
<path d="M3172.76,78.72,3181.13,107.44"/>
<path d="M3111.57,400.14,3130.85,376.03"/>
<path d="M3111.57,400.14,3133.61,395.26"/>
<path d="M3130.85,376.03,3198.35,372.59"/>
<path d="M3130.85,376.03,3101.93,370.52"/>
<path d="M3130.85,376.03,3133.61,395.26"/>
<path d="M3003.44,374.66,3014.46,358.82"/>
<path d="M3003.44,374.66,3013.77,401.51"/>
<path d="M3014.46,358.82,3000.69,382.23"/>
<path d="M3000.69,382.23,3013.77,401.51"/>
<path d="M3000.69,382.23,3101.93,370.52"/>
<path d="M3000.69,382.23,3042.70,393.94"/>
<path d="M3198.35,372.59,3170.11,342.29"/>
<path d="M3101.93,370.52,3084.02,286.50"/>
<path d="M3133.61,395.26,3215.56,361.57"/>
<path d="M3133.61,395.26,3170.11,342.29"/>
<path d="M3112.95,512.40,3122.59,465.56"/>
<path d="M3122.59,465.56,3090.22,470.39"/>
<path d="M3122.59,465.56,3009.64,459.37"/>
<path d="M3049.59,508.26,3090.22,470.39"/>
<path d="M3049.59,508.26,3010.25,548.30"/>
<path d="M3013.77,481.40,3009.64,459.37"/>
<path d="M3013.77,481.40,3010.25,548.30"/>
<path d="M3015.15,437.33,3009.64,459.37"/>
<path d="M3015.15,437.33,3024.79,412.53"/>
<path d="M3042.70,393.94,3024.79,412.53"/>
<path d="M3096.42,59.23,3134.30,57.16"/>
<path d="M3165.29,966.94,3178.37,983.47"/>
<path d="M3165.29,966.94,3152.20,921.49"/>
<path d="M3152.20,921.49,3161.85,938.02"/>
<path d="M3152.20,921.49,3163.91,946.28"/>
<path d="M3161.85,938.02,3153.58,942.15"/>
<path d="M3210.74,973.14,3227.96,923.55"/>
<path d="M3210.74,973.14,3215.56,943.53"/>
<path d="M3210.74,973.14,3227.96,983.47"/>
<path d="M3210.74,973.14,3205.23,1000.00"/>
<path d="M3227.96,983.47,3205.23,1000.00"/>
<path d="M3205.23,1000.00,3178.37,983.47"/>
<path d="M3230.54,250.40,3170.11,342.29"/>
<path d="M3230.54,250.40,3223.83,210.74"/>
<path d="M3170.11,342.29,3133.61,293.39"/>
<path d="M3084.02,241.05,3132.92,221.76"/>
<path d="M3223.83,210.74,3210.05,197.66"/>
<path d="M3133.61,293.39,3131.54,252.75"/>
<path d="M3084.02,286.50,3132.92,221.76"/>
<path d="M3084.02,286.50,3131.54,252.75"/>
<path d="M3131.54,252.75,3132.92,221.76"/>
<path d="M3215.56,943.53,3252.01,887.62"/>
<path d="M3215.56,943.53,3227.96,923.55"/>
<path d="M3215.56,943.53,3257.58,946.28"/>
<path d="M3252.01,887.62,3194.21,880.17"/>
<path d="M3196.28,875.34,3212.12,865.01"/>
<path d="M3230.03,852.62,3298.76,841.05"/>
<path d="M3194.21,880.17,3293.39,862.95"/>
<path d="M3293.39,862.95,3298.76,841.05"/>
<path d="M3126.03,0.00,3137.08,31.04"/>
<path d="M3126.03,0.00,3093.62,26.87"/>
<path d="M3137.08,31.04,3123.11,39.58"/>
<path d="M3123.11,39.58,3134.30,57.16"/>
<path d="M3134.30,57.16,3157.04,80.85"/>
<circle cx="3429.75" cy="287.19" r="10"/>
<text x="3429.75" y="292.19">Varanasi</text>
<circle cx="3045.12" cy="318.68" r="10"/>
<text x="3045.12" y="323.68">Udaipur</text>
<circle cx="3362.26" cy="234.16" r="10"/>
<text x="3362.26" y="239.16">Hadiagarh</text>
<circle cx="3334.02" cy="194.90" r="10"/>
<text x="3334.02" y="199.90">Sitapur</text>
<circle cx="3224.45" cy="81.01" r="10"/>
<text x="3224.45" y="86.01">Dehradun</text>
<circle cx="3343.66" cy="224.52" r="10"/>
<text x="3343.66" y="229.52">Lucknow</text>
<circle cx="3320.25" cy="240.36" r="10"/>
<text x="3320.25" y="245.36">Kanpur</text>
<circle cx="3338.84" cy="262.40" r="10"/>
<text x="3338.84" y="267.40">Fatehpur</text>
<circle cx="3416.67" cy="270.66" r="10"/>
<text x="3416.67" y="275.66">Jaunpur</text>
<circle cx="3382.23" cy="282.37" r="10"/>
<text x="3382.23" y="287.37">Allahabad</text>
<circle cx="3517.22" cy="276.17" r="10"/>
<text x="3517.22" y="281.17">Patna</text>
<circle cx="3552.34" cy="351.24" r="10"/>
<text x="3552.34" y="356.24">Bokaro</text>
<circle cx="3526.86" cy="342.98" r="10"/>
<text x="3526.86" y="347.98">Hazaribagh</text>
<circle cx="3511.71" cy="313.36" r="10"/>
<text x="3511.71" y="318.36">Gaya</text>
<circle cx="3651.64" cy="401.39" r="10"/>
<text x="3651.64" y="406.39">Kolkata</text>
<circle cx="3340.22" cy="318.18" r="10"/>
<text x="3340.22" y="323.18">Satna</text>
<circle cx="3572.31" cy="350.55" r="10"/>
<text x="3572.31" y="355.55">Dhanbad</text>
<circle cx="3594.35" cy="355.37" r="10"/>
<text x="3594.35" y="360.37">Asansol</text>
<circle cx="3359.50" cy="320.25" r="10"/>
<text x="3359.50" y="325.25">Rewa</text>
<circle cx="3247.25" cy="283.06" r="10"/>
<text x="3247.25" y="288.06">Jhansi</text>
<circle cx="3168.73" cy="705.92" r="10"/>
<text x="3168.73" y="710.92">Torangallu</text>
<circle cx="3179.06" cy="707.99" r="10"/>
<text x="3179.06" y="712.99">Bellary</text>
<circle cx="3050.96" cy="694.21" r="10"/>
<text x="3050.96" y="699.21">Goa</text>
<circle cx="3106.06" cy="699.72" r="10"/>
<text x="3106.06" y="704.72">Hubli</text>
<circle cx="3137.05" cy="603.31" r="10"/>
<text x="3137.05" y="608.31">Solapur</text>
<circle cx="3078.51" cy="678.37" r="10"/>
<text x="3078.51" y="683.37">Belgaum</text>
<circle cx="3196.97" cy="664.60" r="10"/>
<text x="3196.97" y="669.60">Raichur</text>
<circle cx="3174.93" cy="617.77" r="10"/>
<text x="3174.93" y="622.77">Gulbarga</text>
<circle cx="3157.02" cy="745.87" r="10"/>
<text x="3157.02" y="750.87">Chitradurg</text>
<circle cx="3050.96" cy="694.21" r="10"/>
<text x="3050.96" y="699.21">Panjim</text>
<circle cx="3526.17" cy="369.15" r="10"/>
<text x="3526.17" y="374.15">Ranchi</text>
<circle cx="3561.29" cy="391.87" r="10"/>
<text x="3561.29" y="396.87">Jamshedpur</text>
<circle cx="3180.44" cy="879.48" r="10"/>
<text x="3180.44" y="884.48">Coimbatore</text>
<circle cx="3149.45" cy="899.45" r="10"/>
<text x="3149.45" y="904.45">Thirussur</text>
<circle cx="3507.58" cy="416.67" r="10"/>
<text x="3507.58" y="421.67">Rourkela</text>
<circle cx="3608.82" cy="411.16" r="10"/>
<text x="3608.82" y="416.16">Kharagpur</text>
<circle cx="3113.95" cy="843.63" r="10"/>
<text x="3113.95" y="848.63">Cannonore</text>
<circle cx="3094.35" cy="802.34" r="10"/>
<text x="3094.35" y="807.34">Mangalore</text>
<circle cx="3167.36" cy="888.43" r="10"/>
<text x="3167.36" y="893.43">Palghat</text>
<circle cx="3130.85" cy="869.15" r="10"/>
<text x="3130.85" y="874.15">Kozhikode</text>
<circle cx="3163.91" cy="139.81" r="10"/>
<text x="3163.91" y="144.81">Rohtak</text>
<circle cx="3183.20" cy="157.71" r="10"/>
<text x="3183.20" y="162.71">Gurgaon</text>
<circle cx="3097.11" cy="86.09" r="10"/>
<text x="3097.11" y="91.09">Bhatinda</text>
<circle cx="3095.04" cy="70.25" r="10"/>
<text x="3095.04" y="75.25">Kot kapura</text>
<circle cx="3195.45" cy="153.03" r="10"/>
<text x="3195.45" y="158.03">Noida</text>
<circle cx="3210.74" cy="136.36" r="10"/>
<text x="3210.74" y="141.36">Meerut</text>
<circle cx="3191.09" cy="150.73" r="10"/>
<text x="3191.09" y="155.73">Delhi</text>
<circle cx="3182.51" cy="136.36" r="10"/>
<text x="3182.51" y="141.36">Sonipat</text>
<circle cx="3255.51" cy="142.56" r="10"/>
<text x="3255.51" y="147.56">Moradabad</text>
<circle cx="3281.68" cy="162.53" r="10"/>
<text x="3281.68" y="167.53">Bareilly</text>
<circle cx="3317.29" cy="793.20" r="10"/>
<text x="3317.29" y="798.20">Chennai</text>
<circle cx="3294.08" cy="803.72" r="10"/>
<text x="3294.08" y="808.72">Kanchipuram</text>
<circle cx="3206.75" cy="797.81" r="10"/>
<text x="3206.75" y="802.81">Bangalore</text>
<circle cx="3228.65" cy="791.32" r="10"/>
<text x="3228.65" y="796.32">Kolar</text>
<circle cx="3144.60" cy="796.81" r="10"/>
<text x="3144.60" y="801.81">Hassan</text>
<circle cx="3167.34" cy="825.46" r="10"/>
<text x="3167.34" y="830.46">Mysore</text>
<circle cx="3307.85" cy="693.53" r="10"/>
<text x="3307.85" y="698.53">Ongole</text>
<circle cx="3331.27" cy="651.51" r="10"/>
<text x="3331.27" y="656.51">Vijayavada</text>
<circle cx="3281.68" cy="769.97" r="10"/>
<text x="3281.68" y="774.97">Tirupati</text>
<circle cx="3304.41" cy="737.60" r="10"/>
<text x="3304.41" y="742.60">Nellore</text>
<circle cx="3373.28" cy="456.61" r="10"/>
<text x="3373.28" y="461.61">Raipur</text>
<circle cx="3291.32" cy="459.37" r="10"/>
<text x="3291.32" y="464.37">Bhandara</text>
<circle cx="3268.60" cy="460.05" r="10"/>
<text x="3268.60" y="465.05">Nagpur</text>
<circle cx="3248.62" cy="476.58" r="10"/>
<text x="3248.62" y="481.58">Wardha</text>
<circle cx="3212.81" cy="469.01" r="10"/>
<text x="3212.81" y="474.01">Amravati</text>
<circle cx="3148.07" cy="485.54" r="10"/>
<text x="3148.07" y="490.54">Buldhana</text>
<circle cx="3181.82" cy="477.27" r="10"/>
<text x="3181.82" y="482.27">Akola</text>
<circle cx="3154.27" cy="431.82" r="10"/>
<text x="3154.27" y="436.82">Khandwa</text>
<circle cx="3546.83" cy="497.93" r="10"/>
<text x="3546.83" y="502.93">Bhubaneshwar</text>
<circle cx="3537.19" cy="480.03" r="10"/>
<text x="3537.19" y="485.03">Dhenkanal</text>
<circle cx="3303.72" cy="376.71" r="10"/>
<text x="3303.72" y="381.71">Jabalpur</text>
<circle cx="3283.06" cy="349.17" r="10"/>
<text x="3283.06" y="354.17">Damoh</text>
<circle cx="3252.75" cy="349.17" r="10"/>
<text x="3252.75" y="354.17">Sagar</text>
<circle cx="3130.85" cy="869.15" r="10"/>
<text x="3130.85" y="874.15">Callicut</text>
<circle cx="3195.59" cy="542.70" r="10"/>
<text x="3195.59" y="547.70">Nanded</text>
<circle cx="3088.15" cy="545.45" r="10"/>
<text x="3088.15" y="550.45">Ahmednagar</text>
<circle cx="3051.87" cy="568.75" r="10"/>
<text x="3051.87" y="573.75">Pune</text>
<circle cx="3057.16" cy="603.31" r="10"/>
<text x="3057.16" y="608.31">Satara</text>
<circle cx="3442.15" cy="602.62" r="10"/>
<text x="3442.15" y="607.62">Visakhapatnam</text>
<circle cx="3276.86" cy="509.64" r="10"/>
<text x="3276.86" y="514.64">Chandrapur</text>
<circle cx="3242.75" cy="616.04" r="10"/>
<text x="3242.75" y="621.04">Hyderabad</text>
<circle cx="3226.93" cy="605.53" r="10"/>
<text x="3226.93" y="610.53">Sangareddy</text>
<circle cx="3173.28" cy="64.01" r="10"/>
<text x="3173.28" y="69.01">Chandigarh</text>
<circle cx="3066.80" cy="643.94" r="10"/>
<text x="3066.80" y="648.94">Kolhapur</text>
<circle cx="3081.16" cy="637.56" r="10"/>
<text x="3081.16" y="642.56">Sangli</text>
<circle cx="3172.76" cy="78.72" r="10"/>
<text x="3172.76" y="83.72">Ambala</text>
<circle cx="3111.57" cy="400.14" r="10"/>
<text x="3111.57" y="405.14">Dhar</text>
<circle cx="3130.85" cy="376.03" r="10"/>
<text x="3130.85" y="381.03">Ujjain</text>
<circle cx="3003.44" cy="374.66" r="10"/>
<text x="3003.44" y="379.66">Gandhinagar</text>
<circle cx="3014.46" cy="358.82" r="10"/>
<text x="3014.46" y="363.82">Himmatnagar</text>
<circle cx="3000.69" cy="382.23" r="10"/>
<text x="3000.69" y="387.23">Ahmedabad</text>
<circle cx="3013.77" cy="401.51" r="10"/>
<text x="3013.77" y="406.51">Anand</text>
<circle cx="3198.35" cy="372.59" r="10"/>
<text x="3198.35" y="377.59">Bhopal</text>
<circle cx="3101.93" cy="370.52" r="10"/>
<text x="3101.93" y="375.52">Ratlam</text>
<circle cx="3133.61" cy="395.26" r="10"/>
<text x="3133.61" y="400.26">Indore</text>
<circle cx="3215.56" cy="361.57" r="10"/>
<text x="3215.56" y="366.57">Vidisha</text>
<circle cx="3112.95" cy="512.40" r="10"/>
<text x="3112.95" y="517.40">Aurangabad</text>
<circle cx="3122.59" cy="465.56" r="10"/>
<text x="3122.59" y="470.56">Jalgaon</text>
<circle cx="3049.59" cy="508.26" r="10"/>
<text x="3049.59" y="513.26">Nasik</text>
<circle cx="3090.22" cy="470.39" r="10"/>
<text x="3090.22" y="475.39">Dhulia</text>
<circle cx="3013.77" cy="481.40" r="10"/>
<text x="3013.77" y="486.40">Valsad</text>
<circle cx="3010.25" cy="548.30" r="10"/>
<text x="3010.25" y="553.30">Mumbai</text>
<circle cx="3015.15" cy="437.33" r="10"/>
<text x="3015.15" y="442.33">Bharuch</text>
<circle cx="3009.64" cy="459.37" r="10"/>
<text x="3009.64" y="464.37">Surat</text>
<circle cx="3042.70" cy="393.94" r="10"/>
<text x="3042.70" y="398.94">Godhra</text>
<circle cx="3024.79" cy="412.53" r="10"/>
<text x="3024.79" y="417.53">Baroda</text>
<circle cx="3181.13" cy="107.44" r="10"/>
<text x="3181.13" y="112.44">Karnal</text>
<circle cx="3096.42" cy="59.23" r="10"/>
<text x="3096.42" y="64.23">Talwandi Bahi</text>
<circle cx="3165.29" cy="966.94" r="10"/>
<text x="3165.29" y="971.94">Kollam</text>
<circle cx="3152.20" cy="921.49" r="10"/>
<text x="3152.20" y="926.49">Ernakulam</text>
<circle cx="3163.91" cy="946.28" r="10"/>
<text x="3163.91" y="951.28">Thiruvalla</text>
<circle cx="3161.85" cy="938.02" r="10"/>
<text x="3161.85" y="943.02">Kottayem</text>
<circle cx="3210.74" cy="973.14" r="10"/>
<text x="3210.74" y="978.14">Tirunelveli</text>
<circle cx="3227.96" cy="983.47" r="10"/>
<text x="3227.96" y="988.47">Tiruchendur</text>
<circle cx="3205.23" cy="1000.00" r="10"/>
<text x="3205.23" y="1005.00">Kanyakumari</text>
<circle cx="3178.37" cy="983.47" r="10"/>
<text x="3178.37" y="988.47">Trivandrum</text>
<circle cx="3153.58" cy="942.15" r="10"/>
<text x="3153.58" y="947.15">Allepey</text>
<circle cx="3230.54" cy="250.40" r="10"/>
<text x="3230.54" y="255.40">Gwalior</text>
<circle cx="3170.11" cy="342.29" r="10"/>
<text x="3170.11" y="347.29">Rajgarh</text>
<circle cx="3084.02" cy="241.05" r="10"/>
<text x="3084.02" y="246.05">Ajmer</text>
<circle cx="3223.83" cy="210.74" r="10"/>
<text x="3223.83" y="215.74">Agra</text>
<circle cx="3210.05" cy="197.66" r="10"/>
<text x="3210.05" y="202.66">Mathura</text>
<circle cx="3199.72" cy="149.45" r="10"/>
<text x="3199.72" y="154.45">Ghaziabad</text>
<circle cx="3133.61" cy="293.39" r="10"/>
<text x="3133.61" y="298.39">Kota</text>
<circle cx="3084.02" cy="286.50" r="10"/>
<text x="3084.02" y="291.50">Bhilwara</text>
<circle cx="3131.54" cy="252.75" r="10"/>
<text x="3131.54" y="257.75">Tonk</text>
<circle cx="3132.92" cy="221.76" r="10"/>
<text x="3132.92" y="226.76">Jaipur</text>
<circle cx="3215.56" cy="943.53" r="10"/>
<text x="3215.56" y="948.53">Sivakasi</text>
<circle cx="3252.01" cy="887.62" r="10"/>
<text x="3252.01" y="892.62">Trichy</text>
<circle cx="3196.28" cy="875.34" r="10"/>
<text x="3196.28" y="880.34">Tirupur</text>
<circle cx="3212.12" cy="865.01" r="10"/>
<text x="3212.12" y="870.01">Erode</text>
<circle cx="3230.03" cy="852.62" r="10"/>
<text x="3230.03" y="857.62">Salem</text>
<circle cx="3194.21" cy="880.17" r="10"/>
<text x="3194.21" y="885.17">Palladam</text>
<circle cx="3293.39" cy="862.95" r="10"/>
<text x="3293.39" y="867.95">Chidambaram</text>
<circle cx="3298.76" cy="841.05" r="10"/>
<text x="3298.76" y="846.05">Pondicherry</text>
<circle cx="3126.03" cy="0.00" r="10"/>
<text x="3126.03" y="5.00">Pathankot</text>
<circle cx="3137.08" cy="31.04" r="10"/>
<text x="3137.08" y="36.04">Hoshiarpur</text>
<circle cx="3093.62" cy="26.87" r="10"/>
<text x="3093.62" y="31.87">Amritsar</text>
<circle cx="3123.11" cy="39.58" r="10"/>
<text x="3123.11" y="44.58">Jalandhar</text>
<circle cx="3134.30" cy="57.16" r="10"/>
<text x="3134.30" y="62.16">Ludhiana</text>
<circle cx="3157.04" cy="80.85" r="10"/>
<text x="3157.04" y="85.85">Patiala</text>
<circle cx="3257.58" cy="946.28" r="10"/>
<text x="3257.58" y="951.28">Ramanathapuram</text>
<circle cx="3227.96" cy="923.55" r="10"/>
<text x="3227.96" y="928.55">Madural</text>
</svg>
