<svg id="topo" viewBox="-10.66 -71.56 42.64 14.05" xmlns="http://www.w3.org/2000/svg">
<style>#topo path {fill: none; stroke: grey; stroke-width: 0.1551px;} #topo circle {fill: lightblue; stroke: none; stroke-width: 0.3px; vector-effect: non-scaling-stroke; r: 0.3101px;} #topo text {fill: black; stroke: none; font-size: 0.4652px; font-family: sans-serif; text-anchor:middle; transform: translateY(0.3em);} #topo path.country {fill: lightgrey; stroke: black; stroke-width: 1px; vector-effect: non-scaling-stroke; visibility: visible;} #topo path.selection {fill: none; stroke: red; stroke-width: 1px; vector-effect: non-scaling-stroke; visibility: visible;} #topo path.utilization {visibility: hidden;}</style>
<path class="country" d="M 20.62,-69.04 L 20.49,-69.03 L 20.12,-69.02 L 20.28,-68.93 L 20.34,-68.90 L 20.35,-68.85 L 20.32,-68.75 L 20.24,-68.67 L 20.15,-68.61 L 19.97,-68.54 L 20.24,-68.48 L 20.06,-68.39 L 19.97,-68.36 L 19.87,-68.36 L 19.69,-68.39 L 19.26,-68.47 L 19.05,-68.49 L 18.87,-68.50 L 18.77,-68.50 L 18.38,-68.56 L 18.30,-68.56 L 18.16,-68.53 L 18.15,-68.47 L 18.16,-68.32 L 18.18,-68.20 L 18.12,-68.13 L 18.07,-68.09 L 17.92,-67.96 L 17.56,-68.05 L 17.32,-68.10 L 17.17,-68.03 L 16.78,-67.90 L 16.59,-67.63 L 16.57,-67.62 L 16.46,-67.55 L 16.31,-67.52 L 16.19,-67.51 L 16.13,-67.43 L 16.28,-67.31 L 16.36,-67.25 L 16.43,-67.16 L 16.42,-67.09 L 16.40,-67.05 L 16.24,-66.98 L 15.88,-66.77 L 15.56,-66.55 L 15.42,-66.49 L 15.48,-66.31 L 15.37,-66.25 L 15.15,-66.19 L 15.04,-66.17 L 14.92,-66.15 L 14.54,-66.13 L 14.61,-65.93 L 14.64,-65.85 L 14.63,-65.79 L 14.60,-65.74 L 14.55,-65.65 L 14.48,-65.30 L 14.43,-65.26 L 14.35,-65.17 L 14.12,-64.95 L 13.92,-64.80 L 13.65,-64.58 L 13.87,-64.51 L 14.08,-64.46 L 14.12,-64.39 L 14.15,-64.26 L 14.14,-64.17 L 14.06,-64.10 L 14.00,-64.04 L 13.96,-64.01 L 13.67,-64.04 L 13.30,-64.07 L 13.20,-64.08 L 12.99,-64.05 L 12.79,-64.00 L 12.69,-63.96 L 12.66,-63.94 L 12.53,-63.84 L 12.30,-63.67 L 12.18,-63.60 L 12.21,-63.49 L 12.00,-63.29 L 12.14,-63.09 L 12.14,-63.08 L 12.22,-63.00 L 12.14,-62.95 L 12.11,-62.92 L 12.12,-62.83 L 12.14,-62.72 L 12.12,-62.66 L 12.11,-62.59 L 12.30,-62.29 L 12.30,-62.21 L 12.29,-62.17 L 12.23,-61.98 L 12.16,-61.72 L 12.29,-61.65 L 12.49,-61.57 L 12.60,-61.54 L 12.76,-61.45 L 12.88,-61.35 L 12.86,-61.29 L 12.83,-61.22 L 12.78,-61.17 L 12.73,-61.11 L 12.71,-61.06 L 12.68,-61.05 L 12.47,-61.04 L 12.35,-61.02 L 12.29,-61.00 L 12.31,-60.89 L 12.45,-60.69 L 12.55,-60.55 L 12.59,-60.45 L 12.55,-60.35 L 12.52,-60.31 L 12.51,-60.24 L 12.49,-60.11 L 12.40,-60.04 L 12.29,-59.97 L 12.17,-59.91 L 12.07,-59.90 L 11.99,-59.89 L 11.93,-59.86 L 11.88,-59.78 L 11.83,-59.70 L 11.68,-59.59 L 11.68,-59.56 L 11.74,-59.43 L 11.80,-59.29 L 11.75,-59.16 L 11.71,-59.02 L 11.64,-58.93 L 11.54,-58.89 L 11.47,-58.91 L 11.39,-59.04 L 11.39,-59.07 L 11.37,-59.10 L 11.13,-59.14 L 11.09,-59.14 L 11.00,-59.16 L 10.95,-59.17 L 10.83,-59.18 L 10.74,-59.30 L 10.64,-59.39 L 10.63,-59.43 L 10.63,-59.60 L 10.60,-59.68 L 10.60,-59.76 L 10.53,-59.70 L 10.57,-59.59 L 10.49,-59.54 L 10.40,-59.52 L 10.41,-59.46 L 10.45,-59.44 L 10.45,-59.38 L 10.43,-59.28 L 10.24,-59.06 L 10.21,-59.04 L 10.18,-59.01 L 10.08,-59.03 L 9.96,-58.97 L 9.84,-58.96 L 9.80,-59.03 L 9.64,-59.12 L 9.56,-59.11 L 9.63,-59.07 L 9.70,-59.01 L 9.66,-58.97 L 9.62,-58.95 L 9.55,-58.93 L 9.31,-58.86 L 9.40,-58.81 L 9.32,-58.75 L 9.24,-58.74 L 9.19,-58.71 L 9.18,-58.67 L 8.93,-58.57 L 8.52,-58.30 L 8.31,-58.22 L 8.17,-58.15 L 8.04,-58.15 L 7.88,-58.08 L 7.47,-58.02 L 7.19,-58.05 L 7.00,-58.02 L 6.90,-58.07 L 6.89,-58.10 L 6.90,-58.12 L 6.91,-58.14 L 6.88,-58.15 L 6.80,-58.15 L 6.77,-58.13 L 6.77,-58.08 L 6.73,-58.07 L 6.59,-58.10 L 6.56,-58.12 L 6.61,-58.18 L 6.69,-58.22 L 6.68,-58.23 L 6.66,-58.26 L 6.62,-58.27 L 6.49,-58.26 L 6.39,-58.27 L 6.05,-58.38 L 5.98,-58.43 L 5.71,-58.52 L 5.59,-58.62 L 5.52,-58.73 L 5.52,-58.82 L 5.56,-58.98 L 5.61,-59.01 L 5.85,-58.96 L 6.10,-58.87 L 6.14,-58.87 L 6.21,-58.94 L 6.36,-59.00 L 6.32,-59.02 L 6.10,-58.95 L 6.02,-58.99 L 5.89,-59.06 L 5.89,-59.10 L 5.95,-59.14 L 5.97,-59.19 L 5.94,-59.23 L 5.95,-59.30 L 6.05,-59.37 L 6.20,-59.44 L 6.31,-59.51 L 6.42,-59.55 L 6.40,-59.56 L 6.28,-59.53 L 6.16,-59.49 L 6.02,-59.41 L 5.85,-59.35 L 5.72,-59.33 L 5.66,-59.31 L 5.56,-59.29 L 5.47,-59.20 L 5.36,-59.17 L 5.17,-59.16 L 5.13,-59.23 L 5.19,-59.45 L 5.24,-59.56 L 5.30,-59.64 L 5.40,-59.66 L 5.47,-59.71 L 5.53,-59.71 L 5.58,-59.69 L 5.77,-59.66 L 5.87,-59.73 L 5.99,-59.74 L 6.22,-59.82 L 6.21,-59.83 L 6.06,-59.82 L 5.97,-59.81 L 5.83,-59.79 L 5.76,-59.81 L 5.73,-59.86 L 5.78,-59.91 L 6.00,-60.03 L 6.07,-60.08 L 6.11,-60.13 L 6.11,-60.17 L 6.14,-60.23 L 6.35,-60.35 L 6.52,-60.41 L 6.57,-60.36 L 6.53,-60.21 L 6.53,-60.15 L 6.66,-60.37 L 6.72,-60.42 L 6.79,-60.45 L 6.95,-60.48 L 7.00,-60.51 L 6.81,-60.50 L 6.35,-60.42 L 6.15,-60.35 L 6.10,-60.29 L 5.97,-60.21 L 5.90,-60.15 L 5.88,-60.07 L 5.80,-60.03 L 5.70,-60.01 L 5.56,-59.91 L 5.49,-59.83 L 5.35,-59.76 L 5.26,-59.71 L 5.23,-59.69 L 5.19,-59.64 L 5.15,-59.64 L 5.11,-59.67 L 5.10,-59.73 L 5.12,-59.83 L 5.19,-59.91 L 5.22,-59.98 L 5.17,-60.05 L 5.21,-60.09 L 5.27,-60.09 L 5.38,-60.07 L 5.49,-60.07 L 5.69,-60.12 L 5.66,-60.15 L 5.57,-60.16 L 5.42,-60.15 L 5.29,-60.21 L 5.18,-60.31 L 5.14,-60.45 L 5.17,-60.48 L 5.55,-60.62 L 5.65,-60.69 L 5.59,-60.69 L 5.45,-60.62 L 5.24,-60.57 L 5.12,-60.64 L 5.05,-60.71 L 5.01,-60.86 L 5.02,-60.94 L 5.01,-61.04 L 5.10,-61.07 L 5.19,-61.05 L 5.29,-61.05 L 5.51,-61.06 L 5.98,-61.12 L 6.29,-61.08 L 6.42,-61.08 L 6.61,-61.14 L 6.78,-61.14 L 6.90,-61.10 L 6.97,-61.06 L 6.98,-60.99 L 7.04,-60.95 L 7.08,-60.97 L 7.05,-61.02 L 7.04,-61.09 L 7.55,-61.18 L 7.60,-61.21 L 7.40,-61.22 L 7.35,-61.30 L 7.45,-61.42 L 7.44,-61.43 L 7.33,-61.37 L 7.28,-61.28 L 7.30,-61.21 L 7.28,-61.18 L 7.17,-61.17 L 6.94,-61.16 L 6.79,-61.19 L 6.66,-61.21 L 6.61,-61.23 L 6.63,-61.28 L 6.60,-61.29 L 6.54,-61.24 L 6.49,-61.15 L 6.38,-61.13 L 6.08,-61.17 L 5.65,-61.15 L 5.45,-61.10 L 5.32,-61.11 L 5.11,-61.19 L 5.02,-61.25 L 4.99,-61.38 L 5.00,-61.43 L 5.17,-61.46 L 5.26,-61.46 L 5.34,-61.49 L 5.27,-61.51 L 5.17,-61.54 L 5.10,-61.62 L 5.00,-61.65 L 4.93,-61.71 L 4.91,-61.81 L 4.93,-61.88 L 4.99,-61.90 L 5.12,-61.89 L 5.47,-61.90 L 5.79,-61.83 L 6.02,-61.79 L 6.47,-61.81 L 6.73,-61.87 L 6.68,-61.89 L 6.40,-61.85 L 6.13,-61.85 L 5.66,-61.92 L 5.47,-61.95 L 5.27,-61.94 L 5.16,-61.96 L 5.10,-62.03 L 5.14,-62.16 L 5.24,-62.19 L 5.29,-62.15 L 5.36,-62.15 L 5.42,-62.21 L 5.48,-62.24 L 5.53,-62.31 L 5.72,-62.38 L 5.80,-62.38 L 5.91,-62.42 L 5.98,-62.41 L 6.03,-62.38 L 6.08,-62.35 L 6.21,-62.35 L 6.58,-62.41 L 6.62,-62.42 L 6.69,-62.47 L 6.46,-62.45 L 6.26,-62.42 L 6.14,-62.41 L 6.12,-62.45 L 6.16,-62.48 L 6.24,-62.52 L 6.27,-62.58 L 6.35,-62.61 L 6.44,-62.61 L 6.62,-62.62 L 6.74,-62.64 L 6.96,-62.63 L 7.28,-62.60 L 7.49,-62.54 L 7.57,-62.55 L 7.65,-62.56 L 7.69,-62.59 L 7.53,-62.61 L 7.52,-62.65 L 7.54,-62.67 L 7.80,-62.72 L 8.10,-62.73 L 8.05,-62.77 L 7.41,-62.71 L 7.24,-62.75 L 7.11,-62.75 L 7.02,-62.73 L 6.78,-62.70 L 6.73,-62.72 L 6.78,-62.79 L 6.93,-62.90 L 6.94,-62.93 L 7.01,-62.96 L 7.39,-63.02 L 7.57,-63.10 L 7.65,-63.11 L 7.74,-63.10 L 7.86,-63.11 L 8.10,-63.09 L 8.21,-63.00 L 8.31,-62.97 L 8.62,-62.85 L 8.61,-62.88 L 8.34,-63.04 L 8.24,-63.08 L 8.16,-63.16 L 8.18,-63.24 L 8.27,-63.29 L 8.58,-63.31 L 8.64,-63.34 L 8.64,-63.39 L 8.59,-63.43 L 8.48,-63.42 L 8.39,-63.45 L 8.36,-63.50 L 8.40,-63.54 L 8.58,-63.60 L 8.67,-63.62 L 8.84,-63.65 L 9.14,-63.59 L 9.16,-63.57 L 9.08,-63.50 L 9.08,-63.46 L 9.16,-63.46 L 9.32,-63.57 L 9.52,-63.59 L 9.60,-63.61 L 9.70,-63.62 L 9.83,-63.52 L 9.89,-63.49 L 9.94,-63.48 L 9.98,-63.40 L 10.02,-63.39 L 10.08,-63.43 L 10.19,-63.45 L 10.34,-63.47 L 10.59,-63.45 L 10.70,-63.46 L 10.76,-63.46 L 10.71,-63.54 L 10.67,-63.56 L 10.73,-63.62 L 10.78,-63.65 L 10.95,-63.70 L 11.12,-63.72 L 11.23,-63.76 L 11.37,-63.80 L 11.35,-63.84 L 11.31,-63.88 L 11.21,-63.88 L 11.18,-63.90 L 11.29,-63.95 L 11.46,-64.00 L 11.43,-64.02 L 11.31,-64.05 L 11.21,-64.03 L 11.08,-63.99 L 10.91,-63.92 L 10.97,-63.90 L 11.05,-63.85 L 10.93,-63.77 L 10.34,-63.57 L 10.06,-63.51 L 9.92,-63.52 L 9.89,-63.58 L 9.83,-63.62 L 9.77,-63.70 L 9.66,-63.70 L 9.59,-63.68 L 9.57,-63.71 L 9.61,-63.79 L 9.71,-63.86 L 9.86,-63.92 L 9.94,-63.98 L 10.01,-64.08 L 10.24,-64.18 L 10.57,-64.42 L 10.83,-64.49 L 10.93,-64.58 L 11.09,-64.61 L 11.23,-64.68 L 11.33,-64.69 L 11.52,-64.74 L 11.63,-64.81 L 11.56,-64.82 L 11.39,-64.77 L 11.30,-64.75 L 11.30,-64.83 L 11.35,-64.91 L 11.49,-64.98 L 12.16,-65.18 L 12.23,-65.15 L 12.31,-65.09 L 12.51,-65.10 L 12.74,-65.21 L 12.92,-65.34 L 12.82,-65.32 L 12.72,-65.27 L 12.51,-65.20 L 12.42,-65.18 L 12.36,-65.19 L 12.33,-65.24 L 12.26,-65.26 L 12.20,-65.25 L 12.13,-65.28 L 12.12,-65.36 L 12.21,-65.49 L 12.27,-65.57 L 12.34,-65.63 L 12.63,-65.81 L 12.69,-65.90 L 12.82,-65.95 L 12.98,-65.94 L 13.03,-65.96 L 12.98,-66.02 L 12.79,-66.07 L 12.78,-66.10 L 13.39,-66.18 L 13.67,-66.18 L 13.76,-66.22 L 13.92,-66.25 L 14.03,-66.30 L 13.97,-66.32 L 13.68,-66.27 L 13.50,-66.25 L 13.42,-66.25 L 13.35,-66.24 L 13.12,-66.23 L 13.07,-66.43 L 13.10,-66.54 L 13.19,-66.54 L 13.21,-66.64 L 13.31,-66.70 L 13.45,-66.72 L 13.52,-66.74 L 13.62,-66.79 L 13.79,-66.78 L 13.96,-66.79 L 13.92,-66.82 L 13.70,-66.85 L 13.65,-66.91 L 13.73,-66.94 L 13.81,-66.96 L 13.88,-66.96 L 14.02,-67.07 L 14.11,-67.12 L 14.21,-67.11 L 14.34,-67.16 L 14.47,-67.14 L 14.60,-67.17 L 14.78,-67.19 L 15.42,-67.20 L 15.43,-67.25 L 15.30,-67.26 L 14.82,-67.27 L 14.58,-67.27 L 14.48,-67.26 L 14.44,-67.27 L 14.45,-67.30 L 14.54,-67.34 L 14.58,-67.39 L 14.75,-67.50 L 14.96,-67.57 L 15.12,-67.56 L 15.29,-67.48 L 15.41,-67.47 L 15.47,-67.45 L 15.55,-67.35 L 15.59,-67.35 L 15.58,-67.44 L 15.69,-67.52 L 15.66,-67.54 L 15.49,-67.51 L 15.35,-67.54 L 15.25,-67.60 L 15.22,-67.66 L 15.28,-67.71 L 15.35,-67.73 L 15.30,-67.77 L 15.04,-67.68 L 14.85,-67.66 L 14.78,-67.67 L 14.82,-67.75 L 14.80,-67.81 L 15.05,-67.96 L 15.13,-67.97 L 15.27,-67.96 L 15.40,-67.92 L 15.51,-67.93 L 15.62,-67.95 L 15.61,-67.99 L 15.36,-68.00 L 15.29,-68.04 L 15.32,-68.07 L 15.49,-68.10 L 15.66,-68.16 L 15.85,-68.18 L 16.01,-68.23 L 16.04,-68.22 L 16.06,-68.20 L 16.12,-68.03 L 16.26,-67.89 L 16.31,-67.88 L 16.26,-68.00 L 16.31,-68.04 L 16.37,-68.06 L 16.39,-68.09 L 16.32,-68.10 L 16.26,-68.14 L 16.17,-68.28 L 16.20,-68.32 L 16.39,-68.39 L 16.62,-68.41 L 16.86,-68.36 L 16.95,-68.35 L 17.09,-68.37 L 17.34,-68.41 L 17.48,-68.43 L 17.55,-68.43 L 17.57,-68.45 L 17.50,-68.46 L 17.48,-68.47 L 17.43,-68.48 L 17.20,-68.46 L 16.58,-68.47 L 16.53,-68.49 L 16.51,-68.53 L 16.58,-68.59 L 16.65,-68.63 L 16.88,-68.69 L 17.13,-68.69 L 17.39,-68.80 L 17.49,-68.88 L 17.55,-69.00 L 17.70,-69.10 L 18.10,-69.16 L 18.12,-69.18 L 18.08,-69.23 L 18.08,-69.33 L 18.19,-69.43 L 18.26,-69.47 L 18.29,-69.48 L 18.38,-69.44 L 18.48,-69.36 L 18.65,-69.32 L 18.86,-69.31 L 18.92,-69.34 L 18.75,-69.38 L 18.62,-69.43 L 18.61,-69.49 L 18.67,-69.52 L 18.77,-69.52 L 18.88,-69.52 L 18.99,-69.56 L 19.01,-69.59 L 19.01,-69.62 L 19.04,-69.66 L 19.20,-69.75 L 19.69,-69.80 L 19.72,-69.78 L 19.70,-69.61 L 19.64,-69.50 L 19.64,-69.42 L 19.74,-69.50 L 19.86,-69.72 L 19.96,-69.82 L 20.07,-69.88 L 20.15,-69.90 L 20.22,-69.93 L 20.32,-69.95 L 20.36,-69.92 L 20.39,-69.87 L 20.33,-69.68 L 20.34,-69.62 L 20.28,-69.54 L 20.04,-69.36 L 20.05,-69.33 L 20.11,-69.34 L 20.20,-69.37 L 20.49,-69.54 L 20.74,-69.52 L 20.74,-69.53 L 20.66,-69.58 L 20.56,-69.63 L 20.53,-69.69 L 20.55,-69.85 L 20.62,-69.91 L 20.84,-69.91 L 20.97,-69.92 L 21.03,-69.89 L 21.16,-69.89 L 21.25,-70.00 L 21.43,-70.01 L 21.59,-69.94 L 21.78,-69.89 L 21.93,-69.81 L 21.97,-69.83 L 21.89,-70.00 L 21.80,-70.07 L 21.61,-70.10 L 21.40,-70.17 L 21.35,-70.21 L 21.36,-70.23 L 21.54,-70.26 L 21.78,-70.23 L 22.00,-70.29 L 22.05,-70.28 L 22.22,-70.31 L 22.32,-70.26 L 22.38,-70.28 L 22.42,-70.34 L 22.68,-70.37 L 22.85,-70.34 L 22.94,-70.30 L 22.98,-70.24 L 23.05,-70.10 L 23.18,-70.03 L 23.26,-69.99 L 23.35,-69.98 L 23.40,-70.02 L 23.31,-70.06 L 23.29,-70.10 L 23.33,-70.21 L 23.38,-70.25 L 23.66,-70.40 L 23.90,-70.48 L 24.04,-70.49 L 24.29,-70.66 L 24.36,-70.69 L 24.42,-70.70 L 24.40,-70.75 L 24.27,-70.77 L 24.26,-70.83 L 24.44,-70.89 L 24.66,-71.00 L 24.76,-71.01 L 24.83,-70.98 L 25.04,-70.93 L 25.17,-70.87 L 25.26,-70.84 L 25.33,-70.85 L 25.38,-70.89 L 25.44,-70.91 L 25.57,-70.90 L 25.65,-70.87 L 25.71,-70.87 L 25.77,-70.85 L 25.78,-70.82 L 25.67,-70.78 L 25.47,-70.67 L 25.27,-70.55 L 25.21,-70.49 L 25.15,-70.32 L 24.99,-70.22 L 24.98,-70.14 L 25.04,-70.11 L 25.21,-70.14 L 25.42,-70.24 L 25.47,-70.34 L 25.99,-70.63 L 26.23,-70.78 L 26.51,-70.91 L 26.66,-70.94 L 26.73,-70.85 L 26.68,-70.74 L 26.56,-70.67 L 26.64,-70.64 L 26.63,-70.55 L 26.60,-70.50 L 26.58,-70.45 L 26.59,-70.41 L 26.67,-70.42 L 26.99,-70.51 L 27.07,-70.61 L 27.15,-70.68 L 27.18,-70.74 L 27.31,-70.80 L 27.55,-70.80 L 27.56,-70.83 L 27.27,-70.91 L 27.24,-70.95 L 27.33,-71.00 L 27.60,-71.09 L 27.73,-71.08 L 27.82,-71.06 L 28.14,-71.04 L 28.39,-70.98 L 28.38,-70.87 L 28.33,-70.83 L 28.27,-70.80 L 27.95,-70.72 L 27.90,-70.68 L 28.00,-70.66 L 28.22,-70.70 L 28.27,-70.67 L 28.20,-70.58 L 28.19,-70.44 L 28.17,-70.36 L 28.17,-70.29 L 28.19,-70.25 L 28.28,-70.40 L 28.31,-70.44 L 28.44,-70.50 L 28.48,-70.62 L 28.61,-70.76 L 28.75,-70.84 L 28.83,-70.86 L 29.10,-70.86 L 29.22,-70.83 L 29.32,-70.76 L 29.40,-70.73 L 29.64,-70.71 L 29.72,-70.67 L 29.74,-70.65 L 29.80,-70.64 L 29.96,-70.69 L 30.07,-70.70 L 30.24,-70.62 L 30.20,-70.56 L 30.21,-70.54 L 30.42,-70.55 L 30.60,-70.52 L 30.93,-70.40 L 30.96,-70.34 L 30.94,-70.27 L 30.47,-70.20 L 30.26,-70.12 L 29.93,-70.10 L 28.78,-70.15 L 28.80,-70.09 L 29.60,-69.98 L 29.65,-69.94 L 29.62,-69.87 L 29.62,-69.82 L 29.64,-69.78 L 29.69,-69.74 L 29.79,-69.73 L 29.99,-69.74 L 30.09,-69.72 L 30.16,-69.75 L 30.18,-69.84 L 30.24,-69.86 L 30.35,-69.83 L 30.40,-69.73 L 30.43,-69.72 L 30.48,-69.79 L 30.59,-69.79 L 30.71,-69.80 L 30.87,-69.78 L 30.92,-69.65 L 30.92,-69.61 L 30.90,-69.56 L 30.86,-69.54 L 30.79,-69.53 L 30.62,-69.53 L 30.38,-69.58 L 30.23,-69.63 L 30.18,-69.64 L 30.16,-69.63 L 30.20,-69.58 L 30.19,-69.54 L 30.16,-69.50 L 30.13,-69.46 L 30.09,-69.43 L 29.99,-69.39 L 29.83,-69.36 L 29.39,-69.30 L 29.35,-69.27 L 29.21,-69.10 L 29.17,-69.07 L 29.12,-69.05 L 28.97,-69.02 L 28.89,-69.06 L 28.83,-69.12 L 28.85,-69.18 L 29.02,-69.29 L 29.19,-69.37 L 29.24,-69.39 L 29.33,-69.47 L 29.14,-69.67 L 28.80,-69.73 L 28.41,-69.82 L 28.27,-69.87 L 28.05,-69.97 L 27.89,-70.06 L 27.75,-70.06 L 27.59,-70.04 L 27.35,-69.96 L 27.21,-69.92 L 27.13,-69.91 L 27.11,-69.90 L 26.93,-69.93 L 26.74,-69.93 L 26.58,-69.93 L 26.53,-69.92 L 26.31,-69.78 L 26.16,-69.71 L 26.07,-69.69 L 26.01,-69.65 L 25.96,-69.59 L 25.85,-69.37 L 25.77,-69.28 L 25.75,-69.23 L 25.77,-69.08 L 25.75,-68.99 L 25.65,-68.92 L 25.58,-68.89 L 25.48,-68.88 L 25.36,-68.86 L 25.25,-68.82 L 25.17,-68.77 L 25.09,-68.64 L 24.94,-68.59 L 24.80,-68.61 L 24.70,-68.65 L 24.49,-68.69 L 24.33,-68.71 L 24.15,-68.76 L 24.00,-68.80 L 23.85,-68.81 L 23.77,-68.76 L 23.71,-68.71 L 23.46,-68.68 L 23.32,-68.65 L 23.14,-68.64 L 23.07,-68.67 L 22.81,-68.70 L 22.50,-68.72 L 22.41,-68.72 L 22.38,-68.78 L 22.30,-68.86 L 22.08,-68.99 L 21.99,-69.04 L 21.82,-69.15 L 21.62,-69.27 L 21.59,-69.27 L 21.46,-69.28 L 21.27,-69.27 L 21.14,-69.25 L 21.07,-69.21 L 21.05,-69.19 L 21.13,-69.08 L 21.10,-69.05 L 21.07,-69.04 L 20.89,-69.07 L 20.68,-69.07 L 20.62,-69.04 Z M 4.96,-61.08 L 4.87,-61.07 L 4.80,-61.08 L 4.82,-61.18 L 4.86,-61.19 L 4.92,-61.20 L 4.97,-61.15 L 4.96,-61.08 Z M 5.09,-60.31 L 5.09,-60.19 L 5.00,-60.20 L 4.96,-60.24 L 4.94,-60.27 L 4.95,-60.34 L 4.93,-60.41 L 4.96,-60.45 L 4.99,-60.45 L 5.05,-60.39 L 5.09,-60.31 Z M 29.96,-69.80 L 29.77,-69.77 L 29.74,-69.79 L 29.79,-69.83 L 29.84,-69.91 L 29.91,-69.90 L 29.99,-69.87 L 30.06,-69.84 L 29.96,-69.80 Z M 11.97,-65.63 L 11.90,-65.60 L 11.78,-65.60 L 11.77,-65.63 L 11.80,-65.68 L 11.88,-65.71 L 11.97,-65.70 L 12.00,-65.68 L 11.97,-65.63 Z M 8.47,-63.67 L 8.36,-63.66 L 8.29,-63.69 L 8.45,-63.73 L 8.71,-63.77 L 8.73,-63.80 L 8.76,-63.80 L 8.81,-63.77 L 8.81,-63.73 L 8.79,-63.70 L 8.47,-63.67 Z M 8.10,-63.34 L 8.00,-63.34 L 7.89,-63.35 L 7.82,-63.39 L 7.80,-63.41 L 7.94,-63.45 L 8.07,-63.47 L 8.14,-63.43 L 8.14,-63.37 L 8.10,-63.34 Z M 23.44,-70.82 L 23.42,-70.78 L 23.39,-70.75 L 23.31,-70.72 L 23.07,-70.59 L 22.93,-70.57 L 22.88,-70.55 L 22.83,-70.54 L 22.66,-70.56 L 22.61,-70.53 L 22.56,-70.52 L 22.43,-70.51 L 22.36,-70.51 L 22.17,-70.56 L 22.06,-70.61 L 21.99,-70.66 L 22.17,-70.66 L 22.23,-70.67 L 22.35,-70.66 L 22.42,-70.70 L 22.57,-70.70 L 22.86,-70.73 L 22.96,-70.71 L 23.20,-70.82 L 23.28,-70.81 L 23.40,-70.84 L 23.44,-70.82 Z M 25.59,-71.14 L 25.85,-71.10 L 25.95,-71.10 L 26.08,-71.03 L 26.15,-71.04 L 26.13,-71.00 L 26.00,-70.98 L 25.79,-70.96 L 25.76,-70.95 L 25.58,-70.96 L 25.48,-71.02 L 25.31,-71.03 L 25.32,-71.05 L 25.42,-71.10 L 25.59,-71.14 Z M 23.62,-70.55 L 23.63,-70.50 L 23.64,-70.46 L 23.55,-70.41 L 23.33,-70.33 L 23.35,-70.32 L 23.27,-70.30 L 23.16,-70.28 L 23.10,-70.30 L 23.11,-70.36 L 23.09,-70.38 L 23.01,-70.35 L 22.92,-70.38 L 22.92,-70.42 L 22.94,-70.44 L 23.02,-70.49 L 23.16,-70.52 L 23.25,-70.51 L 23.55,-70.62 L 23.58,-70.59 L 23.62,-70.55 Z M 24.02,-70.57 L 23.83,-70.53 L 23.72,-70.56 L 23.67,-70.60 L 23.66,-70.68 L 23.69,-70.72 L 23.78,-70.75 L 23.84,-70.73 L 23.85,-70.71 L 23.96,-70.70 L 24.08,-70.65 L 24.02,-70.57 Z M 13.87,-68.27 L 13.93,-68.25 L 14.09,-68.25 L 14.12,-68.25 L 14.10,-68.22 L 14.03,-68.19 L 13.89,-68.17 L 13.82,-68.12 L 13.78,-68.10 L 13.66,-68.10 L 13.58,-68.09 L 13.50,-68.05 L 13.42,-68.08 L 13.40,-68.06 L 13.39,-68.02 L 13.35,-68.01 L 13.23,-68.00 L 13.20,-68.09 L 13.26,-68.12 L 13.30,-68.16 L 13.37,-68.17 L 13.43,-68.16 L 13.54,-68.25 L 13.69,-68.27 L 13.78,-68.28 L 13.87,-68.27 Z M 12.97,-67.87 L 12.82,-67.82 L 12.88,-67.92 L 12.96,-68.02 L 13.07,-68.07 L 13.12,-68.05 L 13.10,-68.00 L 13.10,-67.96 L 13.07,-67.93 L 12.97,-67.87 Z M 15.21,-68.94 L 15.34,-68.84 L 15.40,-68.78 L 15.35,-68.67 L 15.22,-68.62 L 15.03,-68.61 L 14.89,-68.61 L 14.80,-68.64 L 14.79,-68.67 L 14.74,-68.68 L 14.61,-68.64 L 14.52,-68.63 L 14.40,-68.66 L 14.37,-68.71 L 14.50,-68.77 L 14.55,-68.82 L 14.69,-68.81 L 14.72,-68.80 L 14.80,-68.79 L 14.85,-68.85 L 14.84,-68.89 L 14.87,-68.91 L 15.04,-68.89 L 15.04,-69.00 L 15.10,-69.01 L 15.13,-69.00 L 15.18,-68.98 L 15.21,-68.94 Z M 19.77,-70.22 L 19.82,-70.20 L 19.87,-70.21 L 19.91,-70.20 L 19.99,-70.15 L 20.08,-70.13 L 20.09,-70.10 L 20.01,-70.08 L 19.90,-70.07 L 19.78,-70.08 L 19.75,-70.11 L 19.71,-70.17 L 19.61,-70.22 L 19.60,-70.27 L 19.68,-70.27 L 19.77,-70.22 Z M 20.78,-70.09 L 20.73,-70.07 L 20.64,-70.06 L 20.60,-70.07 L 20.53,-70.08 L 20.46,-70.08 L 20.41,-70.12 L 20.41,-70.15 L 20.49,-70.20 L 20.65,-70.23 L 20.79,-70.22 L 20.82,-70.21 L 20.78,-70.09 Z M 19.26,-70.07 L 19.34,-70.01 L 19.42,-70.02 L 19.45,-70.04 L 19.50,-70.05 L 19.61,-70.02 L 19.59,-69.97 L 19.44,-69.91 L 19.33,-69.82 L 19.20,-69.80 L 19.13,-69.81 L 19.01,-69.76 L 18.91,-69.71 L 18.81,-69.64 L 18.80,-69.61 L 18.78,-69.58 L 18.41,-69.55 L 18.27,-69.54 L 18.13,-69.56 L 18.06,-69.60 L 18.08,-69.63 L 18.23,-69.64 L 18.23,-69.68 L 18.27,-69.70 L 18.32,-69.72 L 18.35,-69.77 L 18.41,-69.78 L 18.51,-69.77 L 18.58,-69.81 L 18.62,-69.81 L 18.67,-69.78 L 18.70,-69.82 L 18.67,-69.86 L 18.69,-69.89 L 18.82,-69.96 L 18.88,-70.01 L 18.97,-70.04 L 19.05,-70.04 L 19.07,-70.09 L 19.05,-70.13 L 19.06,-70.17 L 19.13,-70.24 L 19.21,-70.25 L 19.25,-70.18 L 19.26,-70.07 Z M 12.51,-65.90 L 12.43,-65.90 L 12.43,-65.94 L 12.48,-65.98 L 12.55,-66.00 L 12.64,-66.01 L 12.75,-66.01 L 12.78,-65.99 L 12.72,-65.96 L 12.51,-65.90 Z M 12.42,-66.04 L 12.33,-66.04 L 12.34,-66.08 L 12.42,-66.12 L 12.45,-66.15 L 12.46,-66.19 L 12.53,-66.21 L 12.62,-66.18 L 12.62,-66.12 L 12.58,-66.07 L 12.42,-66.04 Z M 11.23,-64.87 L 11.18,-64.84 L 11.06,-64.86 L 10.83,-64.84 L 10.74,-64.87 L 10.81,-64.92 L 11.02,-64.98 L 11.13,-64.98 L 11.25,-64.91 L 11.23,-64.87 Z M 17.50,-69.60 L 17.62,-69.54 L 17.68,-69.56 L 17.78,-69.56 L 17.86,-69.54 L 17.93,-69.51 L 18.00,-69.50 L 18.05,-69.46 L 18.08,-69.40 L 18.02,-69.35 L 17.94,-69.33 L 17.92,-69.27 L 17.95,-69.20 L 17.77,-69.17 L 17.57,-69.16 L 17.49,-69.20 L 17.32,-69.13 L 17.16,-69.03 L 17.08,-69.01 L 17.08,-69.05 L 16.96,-69.07 L 16.81,-69.07 L 16.82,-69.10 L 16.84,-69.11 L 16.97,-69.14 L 17.00,-69.19 L 16.97,-69.28 L 17.00,-69.33 L 17.00,-69.36 L 17.08,-69.40 L 17.36,-69.38 L 17.39,-69.42 L 17.37,-69.44 L 17.23,-69.48 L 17.25,-69.50 L 17.36,-69.53 L 17.45,-69.53 L 17.48,-69.57 L 17.49,-69.59 L 17.50,-69.60 Z M 15.76,-68.56 L 15.77,-68.55 L 15.91,-68.65 L 16.06,-68.68 L 16.07,-68.71 L 16.13,-68.75 L 16.12,-68.80 L 16.15,-68.84 L 16.23,-68.85 L 16.28,-68.87 L 16.33,-68.88 L 16.43,-68.84 L 16.48,-68.80 L 16.55,-68.72 L 16.52,-68.63 L 16.34,-68.57 L 16.19,-68.54 L 16.05,-68.46 L 15.98,-68.40 L 15.91,-68.39 L 15.87,-68.39 L 15.84,-68.41 L 15.76,-68.41 L 15.68,-68.36 L 15.44,-68.31 L 15.34,-68.33 L 15.34,-68.38 L 15.28,-68.37 L 15.19,-68.31 L 15.10,-68.29 L 15.04,-68.28 L 14.93,-68.31 L 14.63,-68.20 L 14.35,-68.18 L 14.26,-68.19 L 14.26,-68.26 L 14.44,-68.34 L 14.59,-68.40 L 15.10,-68.44 L 15.41,-68.62 L 15.49,-68.81 L 15.56,-68.87 L 15.53,-68.91 L 15.44,-68.92 L 15.44,-68.98 L 15.48,-69.04 L 15.65,-69.13 L 15.74,-69.17 L 15.89,-69.28 L 15.97,-69.30 L 16.05,-69.30 L 16.13,-69.27 L 16.11,-69.22 L 15.99,-69.11 L 15.81,-69.02 L 15.83,-68.96 L 15.91,-68.91 L 15.92,-68.82 L 15.93,-68.73 L 15.79,-68.62 L 15.76,-68.56 Z M -8.95,-70.84 L -9.05,-70.83 L -9.10,-70.85 L -8.96,-70.92 L -8.52,-71.03 L -8.34,-71.14 L -8.00,-71.18 L -7.98,-71.12 L -8.00,-71.04 L -8.30,-70.98 L -8.64,-70.94 L -8.95,-70.84 Z M 19.22,-74.39 L 19.10,-74.35 L 18.92,-74.41 L 18.80,-74.49 L 18.86,-74.51 L 19.18,-74.52 L 19.26,-74.48 L 19.27,-74.46 L 19.22,-74.39 Z M 26.88,-78.65 L 26.73,-78.65 L 26.46,-78.72 L 26.41,-78.78 L 26.46,-78.81 L 26.59,-78.81 L 26.79,-78.72 L 27.01,-78.70 L 26.88,-78.65 Z M 32.53,-80.12 L 31.58,-80.08 L 31.48,-80.11 L 33.02,-80.22 L 33.10,-80.23 L 33.38,-80.24 L 33.63,-80.22 L 33.56,-80.20 L 32.53,-80.12 Z M 21.61,-78.60 L 21.75,-78.57 L 22.04,-78.58 L 22.21,-78.41 L 22.30,-78.23 L 22.45,-78.22 L 22.73,-78.24 L 22.99,-78.25 L 23.12,-78.24 L 23.35,-78.19 L 23.45,-78.15 L 23.36,-78.12 L 23.15,-78.09 L 23.12,-77.99 L 23.33,-77.96 L 23.68,-77.88 L 23.88,-77.86 L 24.24,-77.90 L 24.57,-77.83 L 24.90,-77.76 L 24.13,-77.66 L 24.06,-77.63 L 23.95,-77.56 L 23.84,-77.50 L 23.74,-77.46 L 23.51,-77.40 L 23.38,-77.38 L 23.10,-77.39 L 23.00,-77.36 L 22.90,-77.31 L 22.80,-77.28 L 22.55,-77.27 L 22.43,-77.32 L 22.47,-77.33 L 22.49,-77.36 L 22.44,-77.43 L 22.68,-77.50 L 22.73,-77.54 L 22.69,-77.55 L 22.62,-77.55 L 22.45,-77.57 L 22.40,-77.57 L 22.25,-77.53 L 22.06,-77.50 L 21.86,-77.49 L 21.05,-77.44 L 20.93,-77.46 L 20.87,-77.57 L 21.20,-77.62 L 21.25,-77.71 L 21.33,-77.77 L 21.43,-77.81 L 21.61,-77.92 L 21.65,-77.92 L 21.21,-78.01 L 21.04,-78.06 L 20.84,-78.17 L 20.79,-78.25 L 20.53,-78.33 L 20.56,-78.42 L 20.37,-78.41 L 20.23,-78.48 L 20.36,-78.51 L 21.05,-78.56 L 21.45,-78.60 L 21.61,-78.60 Z M 20.90,-80.25 L 21.00,-80.24 L 21.55,-80.24 L 21.65,-80.22 L 21.70,-80.16 L 21.78,-80.14 L 21.90,-80.13 L 22.19,-80.06 L 22.29,-80.05 L 22.38,-80.09 L 22.44,-80.19 L 22.45,-80.31 L 22.42,-80.37 L 22.45,-80.40 L 22.55,-80.42 L 22.67,-80.41 L 22.79,-80.43 L 22.90,-80.47 L 23.01,-80.47 L 23.25,-80.45 L 23.32,-80.43 L 23.25,-80.38 L 23.22,-80.32 L 23.11,-80.19 L 23.35,-80.18 L 23.69,-80.21 L 23.77,-80.24 L 23.95,-80.30 L 24.14,-80.30 L 24.23,-80.30 L 24.28,-80.33 L 24.30,-80.36 L 24.40,-80.36 L 24.55,-80.30 L 24.61,-80.29 L 24.74,-80.30 L 24.79,-80.30 L 24.91,-80.28 L 25.47,-80.23 L 25.67,-80.21 L 25.75,-80.19 L 25.84,-80.18 L 26.44,-80.18 L 26.86,-80.16 L 27.02,-80.13 L 27.15,-80.06 L 27.20,-79.91 L 27.08,-79.87 L 26.22,-79.68 L 26.01,-79.62 L 25.90,-79.56 L 25.73,-79.44 L 25.64,-79.40 L 25.24,-79.35 L 25.15,-79.34 L 24.84,-79.37 L 24.75,-79.36 L 24.38,-79.30 L 24.26,-79.26 L 24.13,-79.22 L 23.95,-79.19 L 23.76,-79.21 L 22.90,-79.23 L 22.79,-79.26 L 22.70,-79.33 L 22.87,-79.41 L 21.91,-79.38 L 20.86,-79.40 L 20.81,-79.41 L 20.76,-79.44 L 20.40,-79.46 L 20.13,-79.49 L 19.90,-79.53 L 19.67,-79.59 L 19.75,-79.62 L 19.82,-79.63 L 20.01,-79.64 L 20.19,-79.63 L 20.49,-79.63 L 20.56,-79.69 L 20.69,-79.71 L 20.78,-79.75 L 20.46,-79.77 L 20.12,-79.78 L 19.90,-79.74 L 19.64,-79.73 L 19.40,-79.73 L 18.94,-79.74 L 18.73,-79.76 L 18.43,-79.82 L 18.32,-79.86 L 18.28,-79.89 L 18.26,-79.93 L 18.59,-79.97 L 18.73,-80.00 L 18.86,-80.04 L 18.34,-80.06 L 18.13,-80.09 L 17.92,-80.14 L 18.09,-80.17 L 18.78,-80.19 L 18.96,-80.17 L 19.14,-80.14 L 19.34,-80.12 L 19.54,-80.16 L 19.35,-80.19 L 19.19,-80.26 L 19.16,-80.30 L 19.18,-80.33 L 19.26,-80.34 L 19.33,-80.32 L 19.57,-80.25 L 19.75,-80.23 L 19.80,-80.29 L 19.81,-80.33 L 19.78,-80.35 L 19.69,-80.40 L 19.61,-80.46 L 19.73,-80.48 L 19.85,-80.47 L 20.10,-80.43 L 20.36,-80.40 L 20.48,-80.37 L 20.69,-80.30 L 20.90,-80.25 Z M 16.79,-79.91 L 16.84,-79.90 L 16.89,-79.92 L 16.93,-79.94 L 16.97,-79.96 L 17.22,-79.94 L 17.58,-79.88 L 17.68,-79.86 L 17.83,-79.80 L 17.96,-79.70 L 17.86,-79.64 L 17.73,-79.57 L 17.69,-79.53 L 17.73,-79.48 L 17.72,-79.43 L 17.67,-79.39 L 17.86,-79.44 L 18.27,-79.60 L 18.33,-79.61 L 18.40,-79.61 L 18.58,-79.57 L 18.75,-79.49 L 18.79,-79.46 L 18.82,-79.43 L 18.83,-79.38 L 18.82,-79.34 L 18.81,-79.30 L 18.72,-79.28 L 18.68,-79.26 L 18.77,-79.26 L 18.88,-79.23 L 18.98,-79.18 L 19.09,-79.16 L 19.49,-79.18 L 19.75,-79.15 L 19.89,-79.06 L 20.11,-79.08 L 20.11,-79.12 L 20.16,-79.15 L 20.46,-79.13 L 20.61,-79.11 L 20.77,-79.06 L 20.50,-78.98 L 20.72,-78.91 L 21.09,-78.85 L 21.31,-78.80 L 21.35,-78.77 L 21.39,-78.74 L 21.24,-78.70 L 21.10,-78.68 L 20.72,-78.67 L 20.39,-78.64 L 19.77,-78.62 L 19.68,-78.61 L 19.65,-78.60 L 19.62,-78.56 L 19.38,-78.48 L 19.15,-78.38 L 19.06,-78.32 L 18.98,-78.23 L 18.96,-78.18 L 19.01,-78.13 L 19.00,-78.08 L 18.82,-78.04 L 18.71,-78.04 L 18.57,-78.05 L 18.44,-78.03 L 18.43,-77.99 L 18.44,-77.94 L 18.40,-77.79 L 18.36,-77.68 L 18.30,-77.58 L 18.23,-77.52 L 18.14,-77.51 L 17.85,-77.50 L 17.62,-77.40 L 17.44,-77.23 L 17.35,-77.16 L 17.15,-77.05 L 17.19,-77.01 L 17.25,-76.97 L 17.14,-76.89 L 16.98,-76.81 L 16.98,-76.78 L 17.04,-76.72 L 17.06,-76.66 L 16.94,-76.61 L 16.70,-76.58 L 16.46,-76.61 L 16.35,-76.64 L 16.24,-76.70 L 16.12,-76.74 L 16.00,-76.76 L 15.55,-76.89 L 15.12,-77.09 L 14.74,-77.16 L 14.49,-77.20 L 14.37,-77.23 L 14.25,-77.28 L 14.15,-77.34 L 14.05,-77.40 L 14.00,-77.45 L 14.00,-77.51 L 14.03,-77.55 L 14.07,-77.56 L 14.38,-77.58 L 14.49,-77.57 L 14.60,-77.54 L 14.70,-77.53 L 14.92,-77.69 L 16.21,-77.78 L 16.62,-77.80 L 17.03,-77.80 L 16.97,-77.84 L 16.91,-77.90 L 16.85,-77.91 L 16.54,-77.88 L 16.06,-77.85 L 15.83,-77.85 L 15.59,-77.87 L 15.34,-77.86 L 15.10,-77.81 L 14.85,-77.78 L 14.60,-77.77 L 14.09,-77.77 L 13.96,-77.80 L 13.79,-77.85 L 13.75,-77.88 L 13.71,-77.92 L 13.68,-78.03 L 13.72,-78.06 L 13.77,-78.07 L 13.82,-78.09 L 13.94,-78.09 L 14.05,-78.07 L 14.31,-78.01 L 14.25,-78.07 L 14.99,-78.15 L 15.34,-78.22 L 15.52,-78.23 L 15.70,-78.23 L 15.66,-78.26 L 15.66,-78.30 L 15.78,-78.33 L 15.88,-78.34 L 16.15,-78.35 L 16.78,-78.35 L 17.00,-78.37 L 17.17,-78.42 L 16.99,-78.40 L 16.81,-78.40 L 16.73,-78.41 L 16.54,-78.45 L 16.45,-78.50 L 16.70,-78.61 L 16.78,-78.66 L 16.53,-78.66 L 16.45,-78.64 L 16.16,-78.54 L 15.94,-78.49 L 15.68,-78.47 L 15.42,-78.47 L 15.36,-78.49 L 15.28,-78.55 L 15.25,-78.59 L 15.26,-78.61 L 15.35,-78.66 L 15.39,-78.72 L 15.38,-78.77 L 15.32,-78.78 L 15.23,-78.73 L 15.14,-78.66 L 15.02,-78.63 L 14.89,-78.64 L 14.84,-78.67 L 14.79,-78.71 L 14.74,-78.72 L 14.69,-78.72 L 14.58,-78.70 L 14.47,-78.68 L 14.51,-78.63 L 14.52,-78.58 L 14.47,-78.54 L 14.43,-78.49 L 14.55,-78.46 L 14.64,-78.41 L 14.50,-78.39 L 14.36,-78.36 L 14.24,-78.31 L 14.11,-78.27 L 13.91,-78.27 L 13.65,-78.25 L 13.15,-78.24 L 12.91,-78.30 L 12.87,-78.33 L 12.82,-78.35 L 12.66,-78.38 L 12.43,-78.48 L 12.26,-78.59 L 12.14,-78.61 L 11.96,-78.64 L 11.87,-78.67 L 11.77,-78.72 L 11.75,-78.77 L 11.76,-78.81 L 11.86,-78.83 L 11.61,-78.88 L 11.37,-78.95 L 11.46,-78.97 L 11.55,-78.98 L 12.27,-78.90 L 12.32,-78.91 L 12.40,-78.95 L 12.38,-78.97 L 12.25,-78.98 L 12.09,-78.98 L 12.05,-78.98 L 11.98,-79.03 L 11.93,-79.08 L 11.90,-79.11 L 11.89,-79.15 L 12.02,-79.21 L 12.08,-79.27 L 11.98,-79.29 L 11.68,-79.29 L 11.58,-79.28 L 11.62,-79.21 L 11.52,-79.15 L 11.34,-79.11 L 11.21,-79.13 L 11.11,-79.23 L 10.98,-79.30 L 10.93,-79.35 L 10.89,-79.42 L 10.83,-79.46 L 10.74,-79.52 L 10.73,-79.56 L 10.74,-79.58 L 10.81,-79.64 L 10.75,-79.69 L 10.69,-79.73 L 10.68,-79.76 L 10.75,-79.79 L 10.80,-79.80 L 10.87,-79.80 L 11.05,-79.76 L 11.15,-79.72 L 11.19,-79.72 L 11.25,-79.78 L 11.34,-79.80 L 11.70,-79.82 L 12.10,-79.74 L 12.21,-79.72 L 12.29,-79.71 L 12.25,-79.75 L 12.22,-79.80 L 12.28,-79.82 L 12.60,-79.77 L 12.75,-79.78 L 13.11,-79.83 L 13.69,-79.86 L 13.91,-79.82 L 13.93,-79.79 L 13.92,-79.76 L 13.91,-79.75 L 13.78,-79.72 L 13.04,-79.69 L 12.56,-79.57 L 13.22,-79.59 L 13.33,-79.57 L 13.38,-79.48 L 13.43,-79.47 L 13.60,-79.46 L 13.72,-79.43 L 13.83,-79.38 L 13.96,-79.34 L 14.03,-79.34 L 14.06,-79.38 L 14.03,-79.43 L 14.01,-79.48 L 14.02,-79.54 L 14.04,-79.59 L 14.18,-79.62 L 14.38,-79.73 L 14.59,-79.80 L 14.83,-79.77 L 15.05,-79.68 L 15.25,-79.55 L 15.44,-79.41 L 15.66,-79.23 L 15.76,-79.17 L 15.86,-79.16 L 16.29,-78.98 L 16.34,-78.98 L 16.25,-79.11 L 16.03,-79.34 L 15.88,-79.52 L 15.84,-79.59 L 15.82,-79.68 L 15.83,-79.71 L 15.85,-79.73 L 15.96,-79.84 L 16.10,-79.88 L 16.06,-79.95 L 16.09,-80.01 L 16.25,-80.05 L 16.39,-80.05 L 16.52,-80.02 L 16.79,-79.91 Z M 11.25,-78.61 L 11.26,-78.54 L 11.42,-78.55 L 11.62,-78.48 L 11.83,-78.44 L 11.88,-78.41 L 11.93,-78.37 L 12.06,-78.31 L 12.12,-78.23 L 11.97,-78.22 L 11.76,-78.33 L 11.59,-78.39 L 11.37,-78.44 L 11.20,-78.44 L 11.12,-78.46 L 10.84,-78.64 L 10.79,-78.69 L 10.63,-78.75 L 10.56,-78.84 L 10.56,-78.90 L 10.77,-78.89 L 10.96,-78.85 L 11.12,-78.75 L 11.15,-78.72 L 11.08,-78.69 L 11.15,-78.64 L 11.25,-78.61 Z M 18.74,-80.30 L 18.53,-80.25 L 18.16,-80.29 L 18.21,-80.33 L 18.29,-80.36 L 18.52,-80.35 L 18.74,-80.30 Z M 29.05,-78.91 L 29.35,-78.91 L 29.65,-78.92 L 29.70,-78.90 L 29.31,-78.85 L 28.88,-78.88 L 28.49,-78.89 L 28.04,-78.83 L 27.89,-78.85 L 28.12,-78.91 L 28.37,-78.93 L 28.41,-78.96 L 28.51,-78.97 L 28.85,-78.97 L 29.05,-78.91 Z"/>
<path data-id="0-1" d="M10.75,-59.91,10.75,-59.91"/>
<path data-id="0-3" d="M10.75,-59.91,10.75,-59.91"/>
<path data-id="0-41" d="M10.75,-59.91,5.32,-60.39"/>
<path data-id="0-49" d="M10.75,-59.91,9.07,-59.43"/>
<path data-id="0-73" d="M10.75,-59.91,12.00,-60.19"/>
<path data-id="0-58" d="M10.75,-59.91,10.20,-63.97"/>
<path data-id="1-56" d="M10.75,-59.91,11.11,-59.28"/>
<path data-id="1-67" d="M10.75,-59.91,10.40,-63.43"/>
<path data-id="1-6" d="M10.75,-59.91,11.03,-59.98"/>
<path data-id="1-3" d="M10.75,-59.91,10.75,-59.91"/>
<path data-id="2-65" d="M10.69,-60.80,10.47,-61.12"/>
<path data-id="2-3" d="M10.69,-60.80,10.75,-59.91"/>
<path data-id="3-41" d="M10.75,-59.91,5.32,-60.39"/>
<path data-id="3-10" d="M10.75,-59.91,10.20,-59.74"/>
<path data-id="3-66" d="M10.75,-59.91,10.40,-63.43"/>
<path data-id="3-22" d="M10.75,-59.91,8.00,-58.15"/>
<path data-id="4-7" d="M10.26,-60.17,10.26,-60.17"/>
<path data-id="5-10" d="M9.65,-59.67,10.20,-59.74"/>
<path data-id="5-50" d="M9.65,-59.67,9.26,-59.56"/>
<path data-id="5-7" d="M9.65,-59.67,10.26,-60.17"/>
<path data-id="6-52" d="M11.03,-59.98,11.03,-59.98"/>
<path data-id="6-7" d="M11.03,-59.98,10.26,-60.17"/>
<path data-id="8-26" d="M18.96,-69.65,18.96,-69.65"/>
<path data-id="8-67" d="M18.96,-69.65,10.40,-63.43"/>
<path data-id="8-29" d="M18.96,-69.65,16.54,-68.80"/>
<path data-id="8-15" d="M18.96,-69.65,23.27,-69.97"/>
<path data-id="9-26" d="M17.43,-68.44,18.96,-69.65"/>
<path data-id="9-29" d="M17.43,-68.44,16.54,-68.80"/>
<path data-id="9-39" d="M17.43,-68.44,14.41,-67.28"/>
<path data-id="10-11" d="M10.20,-59.74,10.43,-59.41"/>
<path data-id="11-56" d="M10.43,-59.41,11.11,-59.28"/>
<path data-id="11-27" d="M10.43,-59.41,10.35,-59.62"/>
<path data-id="11-54" d="M10.43,-59.41,10.04,-59.05"/>
<path data-id="12-13" d="M29.75,-70.07,30.05,-69.73"/>
<path data-id="12-14" d="M29.75,-70.07,23.68,-70.66"/>
<path data-id="13-48" d="M30.05,-69.73,25.51,-69.47"/>
<path data-id="14-26" d="M23.68,-70.66,18.96,-69.65"/>
<path data-id="14-15" d="M23.68,-70.66,23.27,-69.97"/>
<path data-id="15-31" d="M23.27,-69.97,23.04,-69.01"/>
<path data-id="16-17" d="M5.48,-59.75,5.32,-60.39"/>
<path data-id="16-25" d="M5.48,-59.75,5.27,-59.41"/>
<path data-id="17-40" d="M5.32,-60.39,7.10,-61.23"/>
<path data-id="17-42" d="M5.32,-60.39,6.15,-62.47"/>
<path data-id="17-66" d="M5.32,-60.39,10.40,-63.43"/>
<path data-id="17-41" d="M5.32,-60.39,5.32,-60.39"/>
<path data-id="18-49" d="M9.66,-59.14,9.07,-59.43"/>
<path data-id="18-19" d="M9.66,-59.14,8.77,-58.46"/>
<path data-id="19-21" d="M8.77,-58.46,8.59,-58.34"/>
<path data-id="20-49" d="M8.00,-59.73,9.07,-59.43"/>
<path data-id="21-22" d="M8.59,-58.34,8.00,-58.15"/>
<path data-id="22-49" d="M8.00,-58.15,9.07,-59.43"/>
<path data-id="22-23" d="M8.00,-58.15,5.73,-58.97"/>
<path data-id="23-24" d="M5.73,-58.97,5.74,-58.85"/>
<path data-id="23-41" d="M5.73,-58.97,5.32,-60.39"/>
<path data-id="23-25" d="M5.73,-58.97,5.27,-59.41"/>
<path data-id="26-66" d="M18.96,-69.65,10.40,-63.43"/>
<path data-id="28-33" d="M-8.72,-70.92,-8.72,-70.92"/>
<path data-id="29-39" d="M16.54,-68.80,14.41,-67.28"/>
<path data-id="29-30" d="M16.54,-68.80,15.86,-69.13"/>
<path data-id="29-33" d="M16.54,-68.80,-8.72,-70.92"/>
<path data-id="31-48" d="M23.04,-69.01,25.51,-69.47"/>
<path data-id="32-34" d="M11.50,-64.47,11.50,-64.01"/>
<path data-id="32-37" d="M11.50,-64.47,14.14,-66.31"/>
<path data-id="33-60" d="M-8.72,-70.92,-8.72,-70.92"/>
<path data-id="33-62" d="M-8.72,-70.92,-8.72,-70.92"/>
<path data-id="33-55" d="M-8.72,-70.92,-8.72,-70.92"/>
<path data-id="34-66" d="M11.50,-64.01,10.40,-63.43"/>
<path data-id="34-47" d="M11.50,-64.01,10.97,-63.60"/>
<path data-id="35-66" d="M12.63,-66.02,10.40,-63.43"/>
<path data-id="35-36" d="M12.63,-66.02,13.02,-66.20"/>
<path data-id="36-37" d="M13.02,-66.20,14.14,-66.31"/>
<path data-id="36-39" d="M13.02,-66.20,14.41,-67.28"/>
<path data-id="37-67" d="M14.14,-66.31,10.40,-63.43"/>
<path data-id="37-38" d="M14.14,-66.31,14.14,-66.31"/>
<path data-id="37-39" d="M14.14,-66.31,14.41,-67.28"/>
<path data-id="37-63" d="M14.14,-66.31,14.14,-66.31"/>
<path data-id="40-43" d="M7.10,-61.23,5.86,-61.45"/>
<path data-id="40-61" d="M7.10,-61.23,6.21,-61.77"/>
<path data-id="42-66" d="M6.15,-62.47,10.40,-63.43"/>
<path data-id="42-44" d="M6.15,-62.47,7.16,-62.74"/>
<path data-id="42-45" d="M6.15,-62.47,6.07,-62.15"/>
<path data-id="43-45" d="M5.86,-61.45,6.07,-62.15"/>
<path data-id="44-46" d="M7.16,-62.74,7.73,-63.11"/>
<path data-id="46-68" d="M7.73,-63.11,10.40,-63.43"/>
<path data-id="47-51" d="M10.97,-63.60,10.95,-63.42"/>
<path data-id="49-50" d="M9.07,-59.43,9.26,-59.56"/>
<path data-id="51-67" d="M10.95,-63.42,10.40,-63.43"/>
<path data-id="53-57" d="M11.39,-59.12,11.39,-59.12"/>
<path data-id="56-57" d="M11.11,-59.28,11.39,-59.12"/>
<path data-id="57-59" d="M11.39,-59.12,10.93,-59.22"/>
<path data-id="58-59" d="M10.20,-63.97,10.93,-59.22"/>
<path data-id="64-72" d="M11.07,-60.79,11.56,-60.88"/>
<path data-id="64-65" d="M11.07,-60.79,10.47,-61.12"/>
<path data-id="66-67" d="M10.40,-63.43,10.40,-63.43"/>
<path data-id="66-68" d="M10.40,-63.43,10.40,-63.43"/>
<path data-id="67-68" d="M10.40,-63.43,10.40,-63.43"/>
<path data-id="68-69" d="M10.40,-63.43,10.78,-62.28"/>
<path data-id="69-70" d="M10.78,-62.28,11.12,-64.87"/>
<path data-id="70-71" d="M11.12,-64.87,11.36,-61.13"/>
<path data-id="71-72" d="M11.36,-61.13,11.56,-60.88"/>
<path data-id="72-73" d="M11.56,-60.88,12.00,-60.19"/>
<circle data-id="0" cx="10.75" cy="-59.91" r="0.31px"/>
<text data-id="0" x="10.75" y="-59.91">UiO</text>
<circle data-id="1" cx="10.75" cy="-59.91" r="0.31px"/>
<text data-id="1" x="10.75" y="-59.91">UiO</text>
<circle data-id="2" cx="10.69" cy="-60.80" r="0.31px"/>
<text data-id="2" x="10.69" y="-60.80">HiG Gjovik</text>
<circle data-id="3" cx="10.75" cy="-59.91" r="0.31px"/>
<text data-id="3" x="10.75" y="-59.91">UiO St Olavsplass 5</text>
<circle data-id="4" cx="10.26" cy="-60.17" r="0.31px"/>
<text data-id="4" x="10.26" y="-60.17">Statenskartverkgeodesi</text>
<circle data-id="5" cx="9.65" cy="-59.67" r="0.31px"/>
<text data-id="5" x="9.65" y="-59.67">HiBU Kongsberg</text>
<circle data-id="6" cx="11.03" cy="-59.98" r="0.31px"/>
<text data-id="6" x="11.03" y="-59.98">UNIK Kjeller</text>
<circle data-id="7" cx="10.26" cy="-60.17" r="0.31px"/>
<text data-id="7" x="10.26" y="-60.17">HiBu Honefoss</text>
<circle data-id="8" cx="18.96" cy="-69.65" r="0.31px"/>
<text data-id="8" x="18.96" y="-69.65">UiTo</text>
<circle data-id="9" cx="17.43" cy="-68.44" r="0.31px"/>
<text data-id="9" x="17.43" y="-68.44">HiN Narvik</text>
<circle data-id="10" cx="10.20" cy="-59.74" r="0.31px"/>
<text data-id="10" x="10.20" y="-59.74">HiBU Drammen</text>
<circle data-id="11" cx="10.43" cy="-59.41" r="0.31px"/>
<text data-id="11" x="10.43" y="-59.41">HVE Borre</text>
<circle data-id="12" cx="29.75" cy="-70.07" r="0.31px"/>
<text data-id="12" x="29.75" y="-70.07">HiF Vadso</text>
<circle data-id="13" cx="30.05" cy="-69.73" r="0.31px"/>
<text data-id="13" x="30.05" y="-69.73">HiF Kirkenes</text>
<circle data-id="14" cx="23.68" cy="-70.66" r="0.31px"/>
<text data-id="14" x="23.68" y="-70.66">HiF Hammerfest</text>
<circle data-id="15" cx="23.27" cy="-69.97" r="0.31px"/>
<text data-id="15" x="23.27" y="-69.97">HiF Alta</text>
<circle data-id="16" cx="5.48" cy="-59.75" r="0.31px"/>
<text data-id="16" x="5.48" y="-59.75">HSH Stord</text>
<circle data-id="17" cx="5.32" cy="-60.39" r="0.31px"/>
<text data-id="17" x="5.32" y="-60.39">UiB Hoyteklogibygget</text>
<circle data-id="18" cx="9.66" cy="-59.14" r="0.31px"/>
<text data-id="18" x="9.66" y="-59.14">HiT Porsgrunn</text>
<circle data-id="19" cx="8.77" cy="-58.46" r="0.31px"/>
<text data-id="19" x="8.77" y="-58.46">UiA Arendal</text>
<circle data-id="20" cx="8.00" cy="-59.73" r="0.31px"/>
<text data-id="20" x="8.00" y="-59.73">Hit Rauland</text>
<circle data-id="21" cx="8.59" cy="-58.34" r="0.31px"/>
<text data-id="21" x="8.59" y="-58.34">UiA Grimstad</text>
<circle data-id="22" cx="8.00" cy="-58.15" r="0.31px"/>
<text data-id="22" x="8.00" y="-58.15">UiA Kristiansand</text>
<circle data-id="23" cx="5.73" cy="-58.97" r="0.31px"/>
<text data-id="23" x="5.73" y="-58.97">UiS Stavanger</text>
<circle data-id="24" cx="5.74" cy="-58.85" r="0.31px"/>
<text data-id="24" x="5.74" y="-58.85">VetHS Sandnes</text>
<circle data-id="25" cx="5.27" cy="-59.41" r="0.31px"/>
<text data-id="25" x="5.27" y="-59.41">HSH Haugesund</text>
<circle data-id="26" cx="18.96" cy="-69.65" r="0.31px"/>
<text data-id="26" x="18.96" y="-69.65">UiTo</text>
<circle data-id="27" cx="10.35" cy="-59.62" r="0.31px"/>
<text data-id="27" x="10.35" y="-59.62">HVE Eik</text>
<circle data-id="28" cx="-8.72" cy="-70.92" r="0.31px"/>
<text data-id="28" x="-8.72" y="-70.92">Longyearbyen Skole</text>
<circle data-id="29" cx="16.54" cy="-68.80" r="0.31px"/>
<text data-id="29" x="16.54" y="-68.80">HiH Harstad</text>
<circle data-id="30" cx="15.86" cy="-69.13" r="0.31px"/>
<text data-id="30" x="15.86" y="-69.13">NRS Andoya</text>
<circle data-id="31" cx="23.04" cy="-69.01" r="0.31px"/>
<text data-id="31" x="23.04" y="-69.01">SA/SH Kautokeino</text>
<circle data-id="32" cx="11.50" cy="-64.47" r="0.31px"/>
<text data-id="32" x="11.50" y="-64.47">HiNT Namsos</text>
<circle data-id="33" cx="-8.72" cy="-70.92" r="0.31px"/>
<text data-id="33" x="-8.72" y="-70.92">UNIS Svalbard</text>
<circle data-id="34" cx="11.50" cy="-64.01" r="0.31px"/>
<text data-id="34" x="11.50" y="-64.01">HiNT Steinkjer</text>
<circle data-id="35" cx="12.63" cy="-66.02" r="0.31px"/>
<text data-id="35" x="12.63" y="-66.02">HiNe Sandnesjoen</text>
<circle data-id="36" cx="13.02" cy="-66.20" r="0.31px"/>
<text data-id="36" x="13.02" y="-66.20">HiNe Nesna</text>
<circle data-id="37" cx="14.14" cy="-66.31" r="0.31px"/>
<text data-id="37" x="14.14" y="-66.31">NB Mo i Rana</text>
<circle data-id="38" cx="14.14" cy="-66.31" r="0.31px"/>
<text data-id="38" x="14.14" y="-66.31">HBO Mo i Rana</text>
<circle data-id="39" cx="14.41" cy="-67.28" r="0.31px"/>
<text data-id="39" x="14.41" y="-67.28">HBO Bodo</text>
<circle data-id="40" cx="7.10" cy="-61.23" r="0.31px"/>
<text data-id="40" x="7.10" y="-61.23">HSF Songdal</text>
<circle data-id="41" cx="5.32" cy="-60.39" r="0.31px"/>
<text data-id="41" x="5.32" y="-60.39">UiB BT</text>
<circle data-id="42" cx="6.15" cy="-62.47" r="0.31px"/>
<text data-id="42" x="6.15" y="-62.47">HiA Alesund</text>
<circle data-id="43" cx="5.86" cy="-61.45" r="0.31px"/>
<text data-id="43" x="5.86" y="-61.45">HSF Forde</text>
<circle data-id="44" cx="7.16" cy="-62.74" r="0.31px"/>
<text data-id="44" x="7.16" y="-62.74">HSM Molde</text>
<circle data-id="45" cx="6.07" cy="-62.15" r="0.31px"/>
<text data-id="45" x="6.07" y="-62.15">HVO Volda</text>
<circle data-id="46" cx="7.73" cy="-63.11" r="0.31px"/>
<text data-id="46" x="7.73" y="-63.11">HSM Kristiansun</text>
<circle data-id="47" cx="10.97" cy="-63.60" r="0.31px"/>
<text data-id="47" x="10.97" y="-63.60">HiNT Levanger</text>
<circle data-id="48" cx="25.51" cy="-69.47" r="0.31px"/>
<text data-id="48" x="25.51" y="-69.47">UiTo Karasjok</text>
<circle data-id="49" cx="9.07" cy="-59.43" r="0.31px"/>
<text data-id="49" x="9.07" y="-59.43">HiT Bo</text>
<circle data-id="50" cx="9.26" cy="-59.56" r="0.31px"/>
<text data-id="50" x="9.26" y="-59.56">HiT Notodden</text>
<circle data-id="51" cx="10.95" cy="-63.42" r="0.31px"/>
<text data-id="51" x="10.95" y="-63.42">Hing Stjordal</text>
<circle data-id="52" cx="11.03" cy="-59.98" r="0.31px"/>
<text data-id="52" x="11.03" y="-59.98">HiAK Kjeller</text>
<circle data-id="53" cx="11.39" cy="-59.12" r="0.31px"/>
<text data-id="53" x="11.39" y="-59.12">HRP Halden</text>
<circle data-id="54" cx="10.04" cy="-59.05" r="0.31px"/>
<text data-id="54" x="10.04" y="-59.05">HVE Larvik</text>
<circle data-id="55" cx="-8.72" cy="-70.92" r="0.31px"/>
<text data-id="55" x="-8.72" y="-70.92">Eiscat</text>
<circle data-id="56" cx="11.11" cy="-59.28" r="0.31px"/>
<text data-id="56" x="11.11" y="-59.28">HiO Sarpsborg</text>
<circle data-id="57" cx="11.39" cy="-59.12" r="0.31px"/>
<text data-id="57" x="11.39" y="-59.12">HiO Halden</text>
<circle data-id="58" cx="10.20" cy="-63.97" r="0.31px"/>
<text data-id="58" x="10.20" y="-63.97">UMB As</text>
<circle data-id="59" cx="10.93" cy="-59.22" r="0.31px"/>
<text data-id="59" x="10.93" y="-59.22">HiO Fredrikstad</text>
<circle data-id="60" cx="-8.72" cy="-70.92" r="0.31px"/>
<text data-id="60" x="-8.72" y="-70.92">NyAlesund</text>
<circle data-id="61" cx="6.21" cy="-61.77" r="0.31px"/>
<text data-id="61" x="6.21" y="-61.77">HSF Sandane</text>
<circle data-id="62" cx="-8.72" cy="-70.92" r="0.31px"/>
<text data-id="62" x="-8.72" y="-70.92">NPolar Svalbard</text>
<circle data-id="63" cx="14.14" cy="-66.31" r="0.31px"/>
<text data-id="63" x="14.14" y="-66.31">HiNe Mo i Rana</text>
<circle data-id="64" cx="11.07" cy="-60.79" r="0.31px"/>
<text data-id="64" x="11.07" y="-60.79">HH Hamar</text>
<circle data-id="65" cx="10.47" cy="-61.12" r="0.31px"/>
<text data-id="65" x="10.47" y="-61.12">HiL Lillehammer</text>
<circle data-id="66" cx="10.40" cy="-63.43" r="0.31px"/>
<text data-id="66" x="10.40" y="-63.43">NTNU Hovedbygget</text>
<circle data-id="67" cx="10.40" cy="-63.43" r="0.31px"/>
<text data-id="67" x="10.40" y="-63.43">NTNU Realfagbygget</text>
<circle data-id="68" cx="10.40" cy="-63.43" r="0.31px"/>
<text data-id="68" x="10.40" y="-63.43">UNINETT Teknobyen</text>
<circle data-id="69" cx="10.78" cy="-62.28" r="0.31px"/>
<text data-id="69" x="10.78" y="-62.28">HH Tynset</text>
<circle data-id="70" cx="11.12" cy="-64.87" r="0.31px"/>
<text data-id="70" x="11.12" y="-64.87">HH Evenstad</text>
<circle data-id="71" cx="11.36" cy="-61.13" r="0.31px"/>
<text data-id="71" x="11.36" y="-61.13">HH Rena</text>
<circle data-id="72" cx="11.56" cy="-60.88" r="0.31px"/>
<text data-id="72" x="11.56" y="-60.88">HH Elverum</text>
<circle data-id="73" cx="12.00" cy="-60.19" r="0.31px"/>
<text data-id="73" x="12.00" y="-60.19">HH Kongsvinger</text>
</svg>
