<svg width="1086.41" height="1090.00" viewBox="-106.04 -45.00 1086.41 1090.00" xmlns="http://www.w3.org/2000/svg">
<style>path {fill: none; stroke: grey; stroke-width: 6;} circle {fill: lightblue; stroke: none;} text {fill: black; stroke: none; font-size: 16; font-family: sans-serif; text-anchor:middle;}</style>
<path d="M769.78,617.20,802.24,596.26"/>
<path d="M769.78,617.20,662.01,676.60"/>
<path d="M851.34,552.96,802.24,596.26"/>
<path d="M851.34,552.96,921.01,551.17"/>
<path d="M294.43,463.20,267.50,418.31"/>
<path d="M294.43,463.20,295.56,522.43"/>
<path d="M295.56,522.43,340.29,591.79"/>
<path d="M340.29,591.79,406.05,631.37"/>
<path d="M406.05,631.37,461.40,651.71"/>
<path d="M461.40,651.71,511.67,687.61"/>
<path d="M583.48,714.54,621.19,719.93"/>
<path d="M621.19,719.93,662.01,676.60"/>
<path d="M522.44,725.31,517.06,780.97"/>
<path d="M511.67,904.85,560.91,947.13"/>
<path d="M511.67,904.85,511.67,852.78"/>
<path d="M475.76,136.44,479.78,109.94"/>
<path d="M475.76,136.44,475.76,136.44"/>
<path d="M155.51,956.45,139.68,932.22"/>
<path d="M155.51,956.45,193.90,982.05"/>
<path d="M468.45,175.89,371.55,206.36"/>
<path d="M468.45,175.89,468.45,175.89"/>
<path d="M579.65,989.56,560.91,947.13"/>
<path d="M579.65,989.56,532.63,974.39"/>
<path d="M-61.04,824.06,3.59,858.17"/>
<path d="M-61.04,824.06,-10.77,818.67"/>
<path d="M362.79,375.01,308.80,380.61"/>
<path d="M362.79,375.01,450.63,369.84"/>
<path d="M308.80,380.61,253.01,391.01"/>
<path d="M536.80,393.18,450.63,369.84"/>
<path d="M536.80,393.18,614.00,407.54"/>
<path d="M350.09,193.90,315.98,219.03"/>
<path d="M350.09,193.90,400.36,154.40"/>
<path d="M350.09,193.90,371.55,206.36"/>
<path d="M310.46,323.96,240.02,363.65"/>
<path d="M310.46,323.96,314.18,276.48"/>
<path d="M315.98,219.03,314.18,276.48"/>
<path d="M400.36,154.40,468.45,175.89"/>
<path d="M475.76,136.44,468.45,175.89"/>
<path d="M921.01,551.17,818.67,529.62"/>
<path d="M818.67,529.62,813.29,491.92"/>
<path d="M667.86,409.34,754.04,407.54"/>
<path d="M667.86,409.34,614.00,407.54"/>
<path d="M834.83,420.11,813.29,491.92"/>
<path d="M834.83,420.11,754.04,407.54"/>
<path d="M834.83,420.11,771.99,386.00"/>
<path d="M911.82,322.62,935.37,254.94"/>
<path d="M911.82,322.62,771.99,386.00"/>
<path d="M935.37,254.94,935.37,254.94"/>
<path d="M935.37,254.94,894.08,253.14"/>
<path d="M253.01,391.01,253.01,391.01"/>
<path d="M253.01,391.01,240.02,363.65"/>
<path d="M-61.04,114.90,-19.73,147.61"/>
<path d="M-61.04,114.90,-13.54,105.01"/>
<path d="M-13.54,105.01,62.66,43.60"/>
<path d="M188.51,0.00,488.41,11.68"/>
<path d="M188.51,0.00,88.44,22.92"/>
<path d="M526.72,11.77,488.41,11.68"/>
<path d="M526.72,11.77,584.68,50.81"/>
<path d="M526.72,11.77,482.50,60.41"/>
<path d="M253.01,391.01,267.50,418.31"/>
<path d="M253.01,391.01,276.48,436.27"/>
<path d="M314.18,276.48,247.76,278.28"/>
<path d="M247.76,278.28,160.93,247.90"/>
<path d="M-19.73,147.61,25.13,181.33"/>
<path d="M482.50,60.41,479.78,109.94"/>
<path d="M139.68,932.22,73.61,894.08"/>
<path d="M73.61,894.08,3.59,858.17"/>
<path d="M143.63,527.83,204.67,491.92"/>
<path d="M143.63,527.83,73.61,549.37"/>
<path d="M35.91,635.55,73.61,549.37"/>
<path d="M35.91,635.55,-46.68,693.00"/>
<path d="M5.39,737.88,-10.77,818.67"/>
<path d="M5.39,737.88,-46.68,693.00"/>
<path d="M517.06,780.97,511.67,852.78"/>
<path d="M729.93,135.90,685.82,98.74"/>
<path d="M729.93,135.90,759.43,172.35"/>
<path d="M486.54,940.75,418.31,956.91"/>
<path d="M486.54,940.75,532.63,974.39"/>
<path d="M332.14,987.43,418.31,956.91"/>
<path d="M332.14,987.43,274.69,1000.00"/>
<path d="M193.90,982.05,274.69,1000.00"/>
<path d="M204.67,491.92,276.48,436.27"/>
<path d="M62.66,43.60,88.44,22.92"/>
<path d="M160.93,247.90,25.13,181.33"/>
<path d="M662.48,66.43,584.68,50.81"/>
<path d="M662.48,66.43,685.82,98.74"/>
<path d="M759.43,172.35,784.56,206.46"/>
<path d="M784.56,206.46,818.67,208.26"/>
<path d="M818.67,208.26,894.08,253.14"/>
<circle cx="769.78" cy="617.20" r="10"/>
<text x="769.78" y="622.20">Ependes</text>
<circle cx="851.34" cy="552.96" r="10"/>
<text x="851.34" y="557.96">Olten</text>
<circle cx="294.43" cy="463.20" r="10"/>
<text x="294.43" y="468.20">Souppes</text>
<circle cx="295.56" cy="522.43" r="10"/>
<text x="295.56" y="527.43">Briare</text>
<circle cx="340.29" cy="591.79" r="10"/>
<text x="340.29" y="596.79">Nevers</text>
<circle cx="406.05" cy="631.37" r="10"/>
<text x="406.05" y="636.37">Bourbon</text>
<circle cx="461.40" cy="651.71" r="10"/>
<text x="461.40" y="656.71">Charolles</text>
<circle cx="511.67" cy="687.61" r="10"/>
<text x="511.67" y="692.61">Belleville</text>
<circle cx="583.48" cy="714.54" r="10"/>
<text x="583.48" y="719.54">Sault Brenaz</text>
<circle cx="621.19" cy="719.93" r="10"/>
<text x="621.19" y="724.93">Lavours</text>
<circle cx="522.44" cy="725.31" r="10"/>
<text x="522.44" y="730.31">Lyon</text>
<circle cx="511.67" cy="904.85" r="10"/>
<text x="511.67" y="909.85">Montfaucon</text>
<circle cx="475.76" cy="136.44" r="10"/>
<text x="475.76" y="141.44">Antwerp (NMBS)</text>
<circle cx="155.51" cy="956.45" r="10"/>
<text x="155.51" y="961.45">Toulouse</text>
<circle cx="468.45" cy="175.89" r="10"/>
<text x="468.45" y="180.89">Brussels MIDI (NMBS)</text>
<circle cx="579.65" cy="989.56" r="10"/>
<text x="579.65" y="994.56">Marseille</text>
<circle cx="-61.04" cy="824.06" r="10"/>
<text x="-61.04" y="829.06">Bordeaux</text>
<circle cx="362.79" cy="375.01" r="10"/>
<text x="362.79" y="380.01">Azy-sur-Marne</text>
<circle cx="308.80" cy="380.61" r="10"/>
<text x="308.80" y="385.61">Meaux</text>
<circle cx="536.80" cy="393.18" r="10"/>
<text x="536.80" y="398.18">Revigny</text>
<circle cx="450.63" cy="369.84" r="10"/>
<text x="450.63" y="374.84">Conde-sur-Marne</text>
<circle cx="350.09" cy="193.90" r="10"/>
<text x="350.09" y="198.90">Leers-Nord Estampuis</text>
<circle cx="371.55" cy="206.36" r="10"/>
<text x="371.55" y="211.36">Antoing (NMBS)</text>
<circle cx="310.46" cy="323.96" r="10"/>
<text x="310.46" y="328.96">Thourotte</text>
<circle cx="315.98" cy="219.03" r="10"/>
<text x="315.98" y="224.03">Courrieres</text>
<circle cx="400.36" cy="154.40" r="10"/>
<text x="400.36" y="159.40">Gent</text>
<circle cx="475.76" cy="136.44" r="10"/>
<text x="475.76" y="141.44">Antwerp</text>
<circle cx="802.24" cy="596.26" r="10"/>
<text x="802.24" y="601.26">Bern</text>
<circle cx="921.01" cy="551.17" r="10"/>
<text x="921.01" y="556.17">Zurich</text>
<circle cx="818.67" cy="529.62" r="10"/>
<text x="818.67" y="534.62">Basel</text>
<circle cx="667.86" cy="409.34" r="10"/>
<text x="667.86" y="414.34">Nancy</text>
<circle cx="834.83" cy="420.11" r="10"/>
<text x="834.83" y="425.11">Strasbourg</text>
<circle cx="911.82" cy="322.62" r="10"/>
<text x="911.82" y="327.62">Mannheim</text>
<circle cx="935.37" cy="254.94" r="10"/>
<text x="935.37" y="259.94">Frankfurt</text>
<circle cx="935.37" cy="254.94" r="10"/>
<text x="935.37" y="259.94">Internexion</text>
<circle cx="253.01" cy="391.01" r="10"/>
<text x="253.01" y="396.01">Paris La Defense</text>
<circle cx="662.01" cy="676.60" r="10"/>
<text x="662.01" y="681.60">Geneva</text>
<circle cx="-61.04" cy="114.90" r="10"/>
<text x="-61.04" y="119.90">Egham</text>
<circle cx="-13.54" cy="105.01" r="10"/>
<text x="-13.54" y="110.01">London Telehouse North</text>
<circle cx="188.51" cy="0.00" r="10"/>
<text x="188.51" y="5.00">Lowestoft</text>
<circle cx="526.72" cy="11.77" r="10"/>
<text x="526.72" y="16.77">Amsterdam (Schipluidlaan/Deflandlaan)</text>
<circle cx="253.01" cy="391.01" r="10"/>
<text x="253.01" y="396.01">Paris (35Rdj)</text>
<circle cx="314.18" cy="276.48" r="10"/>
<text x="314.18" y="281.48">Biaches</text>
<circle cx="247.76" cy="278.28" r="10"/>
<text x="247.76" y="283.28">Amiens</text>
<circle cx="-19.73" cy="147.61" r="10"/>
<text x="-19.73" y="152.61">Crawley</text>
<circle cx="482.50" cy="60.41" r="10"/>
<text x="482.50" y="65.41">Rotterdam</text>
<circle cx="468.45" cy="175.89" r="10"/>
<text x="468.45" y="180.89">Brussels Tollaan</text>
<circle cx="139.68" cy="932.22" r="10"/>
<text x="139.68" y="937.22">Grisolles</text>
<circle cx="73.61" cy="894.08" r="10"/>
<text x="73.61" y="899.08">Bon-Encontre</text>
<circle cx="143.63" cy="527.83" r="10"/>
<text x="143.63" y="532.83">Blois</text>
<circle cx="813.29" cy="491.92" r="10"/>
<text x="813.29" y="496.92">Nambsheim</text>
<circle cx="35.91" cy="635.55" r="10"/>
<text x="35.91" y="640.55">Availles (Poiters)</text>
<circle cx="73.61" cy="549.37" r="10"/>
<text x="73.61" y="554.37">Veretz (Tours)</text>
<circle cx="5.39" cy="737.88" r="10"/>
<text x="5.39" y="742.88">Nersac</text>
<circle cx="-46.68" cy="693.00" r="10"/>
<text x="-46.68" y="698.00">Blanzay</text>
<circle cx="3.59" cy="858.17" r="10"/>
<text x="3.59" y="863.17">Meilhan</text>
<circle cx="-10.77" cy="818.67" r="10"/>
<text x="-10.77" y="823.67">St-Christophe</text>
<circle cx="517.06" cy="780.97" r="10"/>
<text x="517.06" y="785.97">Andancette</text>
<circle cx="729.93" cy="135.90" r="10"/>
<text x="729.93" y="140.90">Dusseldorf</text>
<circle cx="560.91" cy="947.13" r="10"/>
<text x="560.91" y="952.13">Cazan</text>
<circle cx="511.67" cy="852.78" r="10"/>
<text x="511.67" y="857.78">Montelimar</text>
<circle cx="486.54" cy="940.75" r="10"/>
<text x="486.54" y="945.75">Pichegu</text>
<circle cx="532.63" cy="974.39" r="10"/>
<text x="532.63" y="979.39">Fos</text>
<circle cx="332.14" cy="987.43" r="10"/>
<text x="332.14" y="992.43">Poilhes</text>
<circle cx="418.31" cy="956.91" r="10"/>
<text x="418.31" y="961.91">Sete (Montpellier)</text>
<circle cx="193.90" cy="982.05" r="10"/>
<text x="193.90" y="987.05">Avignonet</text>
<circle cx="274.69" cy="1000.00" r="10"/>
<text x="274.69" y="1005.00">Marseillette</text>
<circle cx="204.67" cy="491.92" r="10"/>
<text x="204.67" y="496.92">Artenay (Orleans)</text>
<circle cx="276.48" cy="436.27" r="10"/>
<text x="276.48" y="441.27">St-Martin</text>
<circle cx="62.66" cy="43.60" r="10"/>
<text x="62.66" y="48.60">Snow Hill</text>
<circle cx="88.44" cy="22.92" r="10"/>
<text x="88.44" y="27.92">Pakenham</text>
<circle cx="488.41" cy="11.68" r="10"/>
<text x="488.41" y="16.68">Zandvoort</text>
<circle cx="479.78" cy="109.94" r="10"/>
<text x="479.78" y="114.94">Essen</text>
<circle cx="267.50" cy="418.31" r="10"/>
<text x="267.50" y="423.31">Corbeil</text>
<circle cx="240.02" cy="363.65" r="10"/>
<text x="240.02" y="368.65">L'Isle Adam</text>
<circle cx="160.93" cy="247.90" r="10"/>
<text x="160.93" y="252.90">Cayeux-sur-Mer</text>
<circle cx="25.13" cy="181.33" r="10"/>
<text x="25.13" y="186.33">Polegate</text>
<circle cx="754.04" cy="407.54" r="10"/>
<text x="754.04" y="412.54">Xouxange</text>
<circle cx="614.00" cy="407.54" r="10"/>
<text x="614.00" y="412.54">Troussey</text>
<circle cx="662.48" cy="66.43" r="10"/>
<text x="662.48" y="71.43">Elten</text>
<circle cx="584.68" cy="50.81" r="10"/>
<text x="584.68" y="55.81">Leersum/Doorn??</text>
<circle cx="685.82" cy="98.74" r="10"/>
<text x="685.82" y="103.74">Kapella</text>
<circle cx="759.43" cy="172.35" r="10"/>
<text x="759.43" y="177.35">Porz</text>
<circle cx="784.56" cy="206.46" r="10"/>
<text x="784.56" y="211.46">Linz</text>
<circle cx="818.67" cy="208.26" r="10"/>
<text x="818.67" y="213.26">Dernbach</text>
<circle cx="894.08" cy="253.14" r="10"/>
<text x="894.08" y="258.14">Naurod</text>
<circle cx="771.99" cy="386.00" r="10"/>
<text x="771.99" y="391.00">Berg</text>
</svg>
