<svg id="topo" width="901.78" height="1090.00" viewBox="-876.31 -45.00 901.78 1090.00" xmlns="http://www.w3.org/2000/svg">
<style>#topo path {fill: none; stroke: grey; stroke-width: 6;} #topo circle {fill: lightblue; stroke: none;} #topo text {fill: black; stroke: none; font-size: 16; font-family: sans-serif; text-anchor:middle;}</style>
<path d="M-221.28,647.58,-172.47,722.43"/>
<path d="M-221.28,647.58,-224.63,585.05"/>
<path d="M-172.47,722.43,-147.58,763.09"/>
<path d="M-286.22,501.21,-224.63,585.05"/>
<path d="M-286.22,501.21,-302.22,420.48"/>
<path d="M-19.53,891.65,-24.55,867.20"/>
<path d="M-113.90,868.87,-189.61,877.41"/>
<path d="M-113.90,868.87,-24.55,867.20"/>
<path d="M-147.58,763.09,-24.55,867.20"/>
<path d="M-189.61,877.41,-261.69,759.49"/>
<path d="M-189.61,877.41,-27.23,1000.00"/>
<path d="M-189.61,877.41,-504.40,878.63"/>
<path d="M-261.69,759.49,-374.23,680.12"/>
<path d="M-374.23,680.12,-436.86,482.08"/>
<path d="M-530.43,426.30,-436.86,482.08"/>
<path d="M-530.43,426.30,-573.69,205.97"/>
<path d="M-831.31,16.57,-624.80,0.00"/>
<path d="M-831.31,16.57,-573.69,205.97"/>
<path d="M-624.80,0.00,-315.13,190.71"/>
<path d="M-315.13,190.71,-227.03,268.90"/>
<path d="M-227.03,268.90,-211.52,387.25"/>
<path d="M-299.38,383.99,-211.52,387.25"/>
<path d="M-299.38,383.99,-302.22,420.48"/>
<path d="M-211.52,387.25,-302.22,420.48"/>
<circle cx="-221.28" cy="647.58" r="10"/>
<text x="-221.28" y="652.58">Leicester</text>
<circle cx="-172.47" cy="722.43" r="10"/>
<text x="-172.47" y="727.43">Northampton</text>
<circle cx="-286.22" cy="501.21" r="10"/>
<text x="-286.22" y="506.21">Sheffield</text>
<circle cx="-224.63" cy="585.05" r="10"/>
<text x="-224.63" y="590.05">Nottingham</text>
<circle cx="-19.53" cy="891.65" r="10"/>
<text x="-19.53" y="896.65">Croydon</text>
<circle cx="-113.90" cy="868.87" r="10"/>
<text x="-113.90" y="873.87">Slough</text>
<circle cx="-147.58" cy="763.09" r="10"/>
<text x="-147.58" y="768.09">Milton Keynes</text>
<circle cx="-24.55" cy="867.20" r="10"/>
<text x="-24.55" y="872.20">London</text>
<circle cx="-189.61" cy="877.41" r="10"/>
<text x="-189.61" y="882.41">Reading</text>
<circle cx="-261.69" cy="759.49" r="10"/>
<text x="-261.69" y="764.49">Banbury</text>
<circle cx="-27.23" cy="1000.00" r="10"/>
<text x="-27.23" y="1005.00">Brighton</text>
<circle cx="-504.40" cy="878.63" r="10"/>
<text x="-504.40" y="883.63">Bristol</text>
<circle cx="-374.23" cy="680.12" r="10"/>
<text x="-374.23" y="685.12">Birmingham</text>
<circle cx="-530.43" cy="426.30" r="10"/>
<text x="-530.43" y="431.30">Preston</text>
<circle cx="-436.86" cy="482.08" r="10"/>
<text x="-436.86" y="487.08">Manchester</text>
<circle cx="-831.31" cy="16.57" r="10"/>
<text x="-831.31" y="21.57">Glasgow</text>
<circle cx="-624.80" cy="0.00" r="10"/>
<text x="-624.80" y="5.00">Edinburgh</text>
<circle cx="-315.13" cy="190.71" r="10"/>
<text x="-315.13" y="195.71">Newcastle</text>
<circle cx="-227.03" cy="268.90" r="10"/>
<text x="-227.03" y="273.90">Middlesborough</text>
<circle cx="-299.38" cy="383.99" r="10"/>
<text x="-299.38" y="388.99">Harrogate</text>
<circle cx="-211.52" cy="387.25" r="10"/>
<text x="-211.52" y="392.25">York</text>
<circle cx="-302.22" cy="420.48" r="10"/>
<text x="-302.22" y="425.48">Leeds</text>
<circle cx="-573.69" cy="205.97" r="10"/>
<text x="-573.69" y="210.97">Carlisle</text>
</svg>
