<svg id="topo" viewBox="-56.24 -1651.01 1714.93 1705.45" xmlns="http://www.w3.org/2000/svg">
<style>#topo path {fill: none; stroke: grey; stroke-width: 5.0000px;} #topo circle {fill: lightblue; stroke: none; stroke-width: 0.3px; vector-effect: non-scaling-stroke; r: 10.0000px;} #topo text {fill: black; stroke: none; font-size: 15.0000px; font-family: sans-serif; text-anchor:middle; transform: translateY(0.3em);} #topo path.country {fill: lightgrey; stroke: black; stroke-width: 1px; vector-effect: non-scaling-stroke; visibility: visible;} #topo path.selection {fill: none; stroke: red; stroke-width: 1px; vector-effect: non-scaling-stroke; visibility: visible;} #topo path.utilization {visibility: hidden;}</style>
<path data-id="0-4" d="M612.78,-1475.23,646.63,-1500.69"/>
<path data-id="0-74" d="M612.78,-1475.23,590.30,-1397.75"/>
<path data-id="0-86" d="M612.78,-1475.23,604.63,-1549.33"/>
<path data-id="1-131" d="M888.83,-107.97,974.78,-178.30"/>
<path data-id="1-157" d="M888.83,-107.97,883.59,-251.27"/>
<path data-id="1-211" d="M888.83,-107.97,860.44,-106.45"/>
<path data-id="2-46" d="M61.87,-380.92,47.46,-410.39"/>
<path data-id="2-203" d="M61.87,-380.92,55.23,-300.86"/>
<path data-id="2-246" d="M61.87,-380.92,75.97,-424.05"/>
<path data-id="3-9" d="M262.84,-591.78,299.96,-743.15"/>
<path data-id="3-130" d="M262.84,-591.78,207.72,-618.54"/>
<path data-id="3-216" d="M262.84,-591.78,407.01,-532.42"/>
<path data-id="3-225" d="M262.84,-591.78,205.10,-531.33"/>
<path data-id="4-86" d="M646.63,-1500.69,604.63,-1549.33"/>
<path data-id="4-133" d="M646.63,-1500.69,756.64,-1409.01"/>
<path data-id="5-22" d="M729.08,-864.19,749.04,-901.97"/>
<path data-id="5-51" d="M729.08,-864.19,690.62,-744.90"/>
<path data-id="5-120" d="M729.08,-864.19,597.43,-862.83"/>
<path data-id="5-174" d="M729.08,-864.19,645.37,-930.37"/>
<path data-id="5-175" d="M729.08,-864.19,776.76,-762.27"/>
<path data-id="6-48" d="M490.16,-1411.99,437.29,-1499.52"/>
<path data-id="6-74" d="M490.16,-1411.99,590.30,-1397.75"/>
<path data-id="6-135" d="M490.16,-1411.99,437.76,-1396.12"/>
<path data-id="6-239" d="M490.16,-1411.99,469.21,-1345.24"/>
<path data-id="7-69" d="M1282.37,-251.25,1330.22,-362.85"/>
<path data-id="7-146" d="M1282.37,-251.25,1370.27,-240.20"/>
<path data-id="7-186" d="M1282.37,-251.25,1206.63,-203.14"/>
<path data-id="7-210" d="M1282.37,-251.25,1194.67,-310.00"/>
<path data-id="7-229" d="M1282.37,-251.25,1299.06,-202.09"/>
<path data-id="8-11" d="M1294.30,-672.85,1330.46,-668.82"/>
<path data-id="8-118" d="M1294.30,-672.85,1013.20,-812.25"/>
<path data-id="8-152" d="M1294.30,-672.85,1324.39,-701.98"/>
<path data-id="8-167" d="M1294.30,-672.85,1255.49,-549.75"/>
<path data-id="9-92" d="M299.96,-743.15,263.29,-762.71"/>
<path data-id="9-130" d="M299.96,-743.15,207.72,-618.54"/>
<path data-id="9-189" d="M299.96,-743.15,444.17,-609.32"/>
<path data-id="9-198" d="M299.96,-743.15,355.91,-779.44"/>
<path data-id="10-24" d="M337.86,-913.78,421.54,-821.70"/>
<path data-id="10-143" d="M337.86,-913.78,204.53,-943.40"/>
<path data-id="10-176" d="M337.86,-913.78,207.92,-824.75"/>
<path data-id="10-198" d="M337.86,-913.78,355.91,-779.44"/>
<path data-id="10-218" d="M337.86,-913.78,372.91,-952.22"/>
<path data-id="11-95" d="M1330.46,-668.82,1445.51,-716.95"/>
<path data-id="11-152" d="M1330.46,-668.82,1324.39,-701.98"/>
<path data-id="11-247" d="M1330.46,-668.82,1369.79,-612.38"/>
<path data-id="12-22" d="M721.74,-1061.44,749.04,-901.97"/>
<path data-id="12-115" d="M721.74,-1061.44,768.66,-1114.59"/>
<path data-id="12-168" d="M721.74,-1061.44,679.32,-1166.44"/>
<path data-id="12-174" d="M721.74,-1061.44,645.37,-930.37"/>
<path data-id="12-213" d="M721.74,-1061.44,613.70,-1077.22"/>
<path data-id="13-50" d="M608.95,-915.12,547.53,-1021.98"/>
<path data-id="13-120" d="M608.95,-915.12,597.43,-862.83"/>
<path data-id="13-174" d="M608.95,-915.12,645.37,-930.37"/>
<path data-id="14-76" d="M537.16,-340.64,538.89,-300.85"/>
<path data-id="14-82" d="M537.16,-340.64,559.25,-384.31"/>
<path data-id="14-122" d="M537.16,-340.64,510.14,-305.39"/>
<path data-id="14-194" d="M537.16,-340.64,578.82,-342.62"/>
<path data-id="15-80" d="M1478.26,-724.56,1548.63,-800.63"/>
<path data-id="15-95" d="M1478.26,-724.56,1445.51,-716.95"/>
<path data-id="15-99" d="M1478.26,-724.56,1494.52,-692.78"/>
<path data-id="16-19" d="M1454.99,-1183.99,1344.91,-1258.15"/>
<path data-id="16-30" d="M1454.99,-1183.99,1419.83,-1157.25"/>
<path data-id="16-55" d="M1454.99,-1183.99,1480.90,-1170.08"/>
<path data-id="16-201" d="M1454.99,-1183.99,1464.06,-1338.38"/>
<path data-id="17-71" d="M566.20,-1224.09,612.34,-1154.92"/>
<path data-id="17-102" d="M566.20,-1224.09,645.27,-1367.11"/>
<path data-id="17-119" d="M566.20,-1224.09,537.17,-1104.90"/>
<path data-id="17-125" d="M566.20,-1224.09,488.96,-1166.15"/>
<path data-id="17-137" d="M566.20,-1224.09,674.04,-1347.94"/>
<path data-id="17-163" d="M566.20,-1224.09,504.77,-1305.75"/>
<path data-id="18-107" d="M391.29,-1305.96,346.60,-1415.78"/>
<path data-id="18-135" d="M391.29,-1305.96,437.76,-1396.12"/>
<path data-id="18-161" d="M391.29,-1305.96,323.07,-1301.54"/>
<path data-id="18-166" d="M391.29,-1305.96,384.56,-1268.89"/>
<path data-id="18-239" d="M391.29,-1305.96,469.21,-1345.24"/>
<path data-id="19-30" d="M1344.91,-1258.15,1419.83,-1157.25"/>
<path data-id="19-44" d="M1344.91,-1258.15,1294.36,-1387.26"/>
<path data-id="19-199" d="M1344.91,-1258.15,1370.41,-1131.44"/>
<path data-id="19-201" d="M1344.91,-1258.15,1464.06,-1338.38"/>
<path data-id="19-219" d="M1344.91,-1258.15,1148.73,-1250.27"/>
<path data-id="20-23" d="M809.31,-1357.66,796.38,-1251.44"/>
<path data-id="20-84" d="M809.31,-1357.66,744.51,-1280.49"/>
<path data-id="20-97" d="M809.31,-1357.66,826.93,-1375.73"/>
<path data-id="20-109" d="M809.31,-1357.66,788.40,-1405.54"/>
<path data-id="21-57" d="M1429.40,-374.74,1402.76,-350.77"/>
<path data-id="21-62" d="M1429.40,-374.74,1410.65,-476.18"/>
<path data-id="21-154" d="M1429.40,-374.74,1431.00,-346.95"/>
<path data-id="21-209" d="M1429.40,-374.74,1496.62,-443.58"/>
<path data-id="22-156" d="M749.04,-901.97,891.91,-879.05"/>
<path data-id="22-174" d="M749.04,-901.97,645.37,-930.37"/>
<path data-id="22-223" d="M749.04,-901.97,914.73,-1046.14"/>
<path data-id="23-84" d="M796.38,-1251.44,744.51,-1280.49"/>
<path data-id="23-234" d="M796.38,-1251.44,849.13,-1200.12"/>
<path data-id="24-120" d="M421.54,-821.70,597.43,-862.83"/>
<path data-id="24-139" d="M421.54,-821.70,479.31,-654.46"/>
<path data-id="24-198" d="M421.54,-821.70,355.91,-779.44"/>
<path data-id="25-107" d="M306.85,-1456.37,346.60,-1415.78"/>
<path data-id="25-128" d="M306.85,-1456.37,365.60,-1444.37"/>
<path data-id="25-242" d="M306.85,-1456.37,259.27,-1448.29"/>
<path data-id="26-61" d="M900.63,-592.80,897.08,-517.75"/>
<path data-id="26-100" d="M900.63,-592.80,1014.51,-537.47"/>
<path data-id="26-110" d="M900.63,-592.80,1023.18,-563.21"/>
<path data-id="26-187" d="M900.63,-592.80,796.47,-624.94"/>
<path data-id="26-202" d="M900.63,-592.80,906.60,-658.40"/>
<path data-id="27-35" d="M1195.89,-387.26,1300.04,-434.26"/>
<path data-id="27-69" d="M1195.89,-387.26,1330.22,-362.85"/>
<path data-id="27-124" d="M1195.89,-387.26,1126.46,-498.03"/>
<path data-id="27-210" d="M1195.89,-387.26,1194.67,-310.00"/>
<path data-id="28-45" d="M1171.99,-110.48,1095.22,-119.17"/>
<path data-id="28-64" d="M1171.99,-110.48,1157.74,-23.08"/>
<path data-id="28-66" d="M1171.99,-110.48,1359.85,-51.93"/>
<path data-id="28-186" d="M1171.99,-110.48,1206.63,-203.14"/>
<path data-id="29-60" d="M194.28,-235.22,135.65,-96.92"/>
<path data-id="29-72" d="M194.28,-235.22,25.45,-152.70"/>
<path data-id="29-77" d="M194.28,-235.22,303.61,-400.90"/>
<path data-id="29-123" d="M194.28,-235.22,211.50,-432.66"/>
<path data-id="29-148" d="M194.28,-235.22,259.16,-111.34"/>
<path data-id="29-203" d="M194.28,-235.22,55.23,-300.86"/>
<path data-id="30-199" d="M1419.83,-1157.25,1370.41,-1131.44"/>
<path data-id="31-33" d="M1566.65,-185.36,1565.05,-41.78"/>
<path data-id="31-101" d="M1566.65,-185.36,1489.61,-197.37"/>
<path data-id="31-188" d="M1566.65,-185.36,1570.93,-241.15"/>
<path data-id="32-54" d="M33.37,-1103.61,184.08,-1070.24"/>
<path data-id="32-105" d="M33.37,-1103.61,177.28,-1187.17"/>
<path data-id="32-142" d="M33.37,-1103.61,68.07,-1225.68"/>
<path data-id="32-220" d="M33.37,-1103.61,111.50,-957.71"/>
<path data-id="33-245" d="M1565.05,-41.78,1463.20,-74.39"/>
<path data-id="34-104" d="M1542.87,-484.70,1436.28,-524.73"/>
<path data-id="34-151" d="M1542.87,-484.70,1580.74,-370.18"/>
<path data-id="34-209" d="M1542.87,-484.70,1496.62,-443.58"/>
<path data-id="35-62" d="M1300.04,-434.26,1410.65,-476.18"/>
<path data-id="35-69" d="M1300.04,-434.26,1330.22,-362.85"/>
<path data-id="35-167" d="M1300.04,-434.26,1255.49,-549.75"/>
<path data-id="36-81" d="M68.13,-1424.08,35.79,-1418.53"/>
<path data-id="36-83" d="M68.13,-1424.08,146.90,-1360.74"/>
<path data-id="36-193" d="M68.13,-1424.08,67.79,-1502.60"/>
<path data-id="36-224" d="M68.13,-1424.08,113.56,-1487.36"/>
<path data-id="37-83" d="M212.90,-1267.67,146.90,-1360.74"/>
<path data-id="37-105" d="M212.90,-1267.67,177.28,-1187.17"/>
<path data-id="37-212" d="M212.90,-1267.67,262.80,-1287.16"/>
<path data-id="38-65" d="M1460.83,-608.81,1448.61,-565.95"/>
<path data-id="38-165" d="M1460.83,-608.81,1486.65,-668.40"/>
<path data-id="38-247" d="M1460.83,-608.81,1369.79,-612.38"/>
<path data-id="39-173" d="M1005.63,-1249.03,1045.59,-1185.82"/>
<path data-id="39-178" d="M1005.63,-1249.03,979.93,-1254.88"/>
<path data-id="39-243" d="M1005.63,-1249.03,1032.20,-1281.18"/>
<path data-id="40-43" d="M62.66,-572.67,21.71,-582.80"/>
<path data-id="40-58" d="M62.66,-572.67,104.64,-691.56"/>
<path data-id="40-68" d="M62.66,-572.67,71.83,-533.03"/>
<path data-id="40-116" d="M62.66,-572.67,68.52,-699.51"/>
<path data-id="40-130" d="M62.66,-572.67,207.72,-618.54"/>
<path data-id="41-87" d="M55.95,-844.04,43.85,-785.14"/>
<path data-id="41-176" d="M55.95,-844.04,207.92,-824.75"/>
<path data-id="41-220" d="M55.95,-844.04,111.50,-957.71"/>
<path data-id="42-61" d="M981.77,-454.87,897.08,-517.75"/>
<path data-id="42-100" d="M981.77,-454.87,1014.51,-537.47"/>
<path data-id="42-192" d="M981.77,-454.87,859.66,-415.44"/>
<path data-id="42-195" d="M981.77,-454.87,1041.86,-292.70"/>
<path data-id="43-116" d="M21.71,-582.80,68.52,-699.51"/>
<path data-id="43-230" d="M21.71,-582.80,28.43,-505.53"/>
<path data-id="44-155" d="M1294.36,-1387.26,1350.19,-1459.18"/>
<path data-id="44-201" d="M1294.36,-1387.26,1464.06,-1338.38"/>
<path data-id="44-226" d="M1294.36,-1387.26,1220.34,-1372.48"/>
<path data-id="44-244" d="M1294.36,-1387.26,1269.96,-1503.69"/>
<path data-id="45-134" d="M1095.22,-119.17,1025.24,-139.15"/>
<path data-id="45-200" d="M1095.22,-119.17,1088.03,-92.21"/>
<path data-id="46-230" d="M47.46,-410.39,28.43,-505.53"/>
<path data-id="46-246" d="M47.46,-410.39,75.97,-424.05"/>
<path data-id="47-49" d="M638.90,-680.98,650.37,-748.16"/>
<path data-id="47-98" d="M638.90,-680.98,685.58,-703.39"/>
<path data-id="47-233" d="M638.90,-680.98,715.48,-558.47"/>
<path data-id="47-241" d="M638.90,-680.98,553.04,-620.49"/>
<path data-id="48-86" d="M437.29,-1499.52,604.63,-1549.33"/>
<path data-id="48-128" d="M437.29,-1499.52,365.60,-1444.37"/>
<path data-id="48-135" d="M437.29,-1499.52,437.76,-1396.12"/>
<path data-id="49-51" d="M650.37,-748.16,690.62,-744.90"/>
<path data-id="49-98" d="M650.37,-748.16,685.58,-703.39"/>
<path data-id="49-120" d="M650.37,-748.16,597.43,-862.83"/>
<path data-id="50-141" d="M547.53,-1021.98,374.06,-980.36"/>
<path data-id="50-208" d="M547.53,-1021.98,560.33,-1095.25"/>
<path data-id="50-213" d="M547.53,-1021.98,613.70,-1077.22"/>
<path data-id="51-98" d="M690.62,-744.90,685.58,-703.39"/>
<path data-id="51-175" d="M690.62,-744.90,776.76,-762.27"/>
<path data-id="51-232" d="M690.62,-744.90,781.40,-700.96"/>
<path data-id="52-183" d="M1133.63,-1553.10,1196.36,-1499.73"/>
<path data-id="52-196" d="M1133.63,-1553.10,1004.83,-1549.83"/>
<path data-id="52-249" d="M1133.63,-1553.10,1080.83,-1406.46"/>
<path data-id="53-57" d="M1379.97,-288.62,1402.76,-350.77"/>
<path data-id="53-69" d="M1379.97,-288.62,1330.22,-362.85"/>
<path data-id="53-146" d="M1379.97,-288.62,1370.27,-240.20"/>
<path data-id="53-182" d="M1379.97,-288.62,1408.29,-285.08"/>
<path data-id="54-105" d="M184.08,-1070.24,177.28,-1187.17"/>
<path data-id="54-143" d="M184.08,-1070.24,204.53,-943.40"/>
<path data-id="54-150" d="M184.08,-1070.24,336.56,-987.13"/>
<path data-id="54-220" d="M184.08,-1070.24,111.50,-957.71"/>
<path data-id="54-240" d="M184.08,-1070.24,344.15,-1152.50"/>
<path data-id="55-106" d="M1480.90,-1170.08,1493.50,-1111.85"/>
<path data-id="55-126" d="M1480.90,-1170.08,1498.16,-1193.20"/>
<path data-id="56-85" d="M755.37,-179.78,692.74,-128.04"/>
<path data-id="56-103" d="M755.37,-179.78,675.52,-286.58"/>
<path data-id="56-157" d="M755.37,-179.78,883.59,-251.27"/>
<path data-id="56-211" d="M755.37,-179.78,860.44,-106.45"/>
<path data-id="57-69" d="M1402.76,-350.77,1330.22,-362.85"/>
<path data-id="57-154" d="M1402.76,-350.77,1431.00,-346.95"/>
<path data-id="57-182" d="M1402.76,-350.77,1408.29,-285.08"/>
<path data-id="58-92" d="M104.64,-691.56,263.29,-762.71"/>
<path data-id="58-116" d="M104.64,-691.56,68.52,-699.51"/>
<path data-id="58-130" d="M104.64,-691.56,207.72,-618.54"/>
<path data-id="58-176" d="M104.64,-691.56,207.92,-824.75"/>
<path data-id="59-124" d="M1163.71,-539.93,1126.46,-498.03"/>
<path data-id="59-132" d="M1163.71,-539.93,1095.34,-574.74"/>
<path data-id="59-167" d="M1163.71,-539.93,1255.49,-549.75"/>
<path data-id="60-72" d="M135.65,-96.92,25.45,-152.70"/>
<path data-id="60-91" d="M135.65,-96.92,184.63,-40.93"/>
<path data-id="60-148" d="M135.65,-96.92,259.16,-111.34"/>
<path data-id="60-164" d="M135.65,-96.92,71.31,-63.21"/>
<path data-id="61-100" d="M897.08,-517.75,1014.51,-537.47"/>
<path data-id="61-192" d="M897.08,-517.75,859.66,-415.44"/>
<path data-id="62-69" d="M1410.65,-476.18,1330.22,-362.85"/>
<path data-id="62-104" d="M1410.65,-476.18,1436.28,-524.73"/>
<path data-id="62-209" d="M1410.65,-476.18,1496.62,-443.58"/>
<path data-id="63-134" d="M1038.52,-93.49,1025.24,-139.15"/>
<path data-id="63-200" d="M1038.52,-93.49,1088.03,-92.21"/>
<path data-id="64-66" d="M1157.74,-23.08,1359.85,-51.93"/>
<path data-id="64-200" d="M1157.74,-23.08,1088.03,-92.21"/>
<path data-id="65-104" d="M1448.61,-565.95,1436.28,-524.73"/>
<path data-id="65-247" d="M1448.61,-565.95,1369.79,-612.38"/>
<path data-id="66-179" d="M1359.85,-51.93,1430.19,-190.90"/>
<path data-id="66-229" d="M1359.85,-51.93,1299.06,-202.09"/>
<path data-id="66-245" d="M1359.85,-51.93,1463.20,-74.39"/>
<path data-id="67-162" d="M652.19,-421.89,594.82,-434.95"/>
<path data-id="67-171" d="M652.19,-421.89,693.81,-498.72"/>
<path data-id="67-207" d="M652.19,-421.89,618.54,-384.13"/>
<path data-id="67-217" d="M652.19,-421.89,684.75,-363.83"/>
<path data-id="68-159" d="M71.83,-533.03,160.43,-510.16"/>
<path data-id="68-184" d="M71.83,-533.03,98.31,-479.22"/>
<path data-id="68-230" d="M71.83,-533.03,28.43,-505.53"/>
<path data-id="69-210" d="M1330.22,-362.85,1194.67,-310.00"/>
<path data-id="70-85" d="M703.81,-54.53,692.74,-128.04"/>
<path data-id="70-140" d="M703.81,-54.53,678.61,-39.86"/>
<path data-id="70-211" d="M703.81,-54.53,860.44,-106.45"/>
<path data-id="71-168" d="M612.34,-1154.92,679.32,-1166.44"/>
<path data-id="71-208" d="M612.34,-1154.92,560.33,-1095.25"/>
<path data-id="71-213" d="M612.34,-1154.92,613.70,-1077.22"/>
<path data-id="72-164" d="M25.45,-152.70,71.31,-63.21"/>
<path data-id="72-203" d="M25.45,-152.70,55.23,-300.86"/>
<path data-id="73-101" d="M1465.41,-327.40,1489.61,-197.37"/>
<path data-id="73-151" d="M1465.41,-327.40,1580.74,-370.18"/>
<path data-id="73-154" d="M1465.41,-327.40,1431.00,-346.95"/>
<path data-id="73-182" d="M1465.41,-327.40,1408.29,-285.08"/>
<path data-id="73-188" d="M1465.41,-327.40,1570.93,-241.15"/>
<path data-id="74-102" d="M590.30,-1397.75,645.27,-1367.11"/>
<path data-id="74-163" d="M590.30,-1397.75,504.77,-1305.75"/>
<path data-id="75-106" d="M1541.18,-1116.61,1493.50,-1111.85"/>
<path data-id="75-129" d="M1541.18,-1116.61,1570.88,-1033.46"/>
<path data-id="75-214" d="M1541.18,-1116.61,1538.33,-1032.82"/>
<path data-id="76-122" d="M538.89,-300.85,510.14,-305.39"/>
<path data-id="76-138" d="M538.89,-300.85,500.28,-237.08"/>
<path data-id="76-235" d="M538.89,-300.85,596.46,-259.24"/>
<path data-id="77-112" d="M303.61,-400.90,270.07,-469.11"/>
<path data-id="77-122" d="M303.61,-400.90,510.14,-305.39"/>
<path data-id="77-123" d="M303.61,-400.90,211.50,-432.66"/>
<path data-id="77-169" d="M303.61,-400.90,390.93,-130.67"/>
<path data-id="77-216" d="M303.61,-400.90,407.01,-532.42"/>
<path data-id="78-117" d="M1578.60,-1501.65,1554.20,-1533.91"/>
<path data-id="78-177" d="M1578.60,-1501.65,1576.34,-1432.92"/>
<path data-id="78-221" d="M1578.60,-1501.65,1521.15,-1496.47"/>
<path data-id="79-156" d="M997.41,-1007.06,891.91,-879.05"/>
<path data-id="79-158" d="M997.41,-1007.06,1072.96,-1116.07"/>
<path data-id="79-190" d="M997.41,-1007.06,1207.71,-921.19"/>
<path data-id="79-222" d="M997.41,-1007.06,929.74,-852.88"/>
<path data-id="79-223" d="M997.41,-1007.06,914.73,-1046.14"/>
<path data-id="80-129" d="M1548.63,-800.63,1570.88,-1033.46"/>
<path data-id="80-214" d="M1548.63,-800.63,1538.33,-1032.82"/>
<path data-id="80-231" d="M1548.63,-800.63,1424.03,-824.60"/>
<path data-id="81-142" d="M35.79,-1418.53,68.07,-1225.68"/>
<path data-id="82-162" d="M559.25,-384.31,594.82,-434.95"/>
<path data-id="82-194" d="M559.25,-384.31,578.82,-342.62"/>
<path data-id="82-207" d="M559.25,-384.31,618.54,-384.13"/>
<path data-id="83-142" d="M146.90,-1360.74,68.07,-1225.68"/>
<path data-id="83-242" d="M146.90,-1360.74,259.27,-1448.29"/>
<path data-id="84-137" d="M744.51,-1280.49,674.04,-1347.94"/>
<path data-id="84-168" d="M744.51,-1280.49,679.32,-1166.44"/>
<path data-id="85-153" d="M692.74,-128.04,610.37,-195.76"/>
<path data-id="85-236" d="M692.74,-128.04,598.74,-68.79"/>
<path data-id="87-145" d="M43.85,-785.14,62.50,-761.14"/>
<path data-id="88-113" d="M302.44,-94.80,401.27,-93.52"/>
<path data-id="88-148" d="M302.44,-94.80,259.16,-111.34"/>
<path data-id="88-169" d="M302.44,-94.80,390.93,-130.67"/>
<path data-id="89-177" d="M1501.71,-1348.49,1576.34,-1432.92"/>
<path data-id="89-201" d="M1501.71,-1348.49,1464.06,-1338.38"/>
<path data-id="90-131" d="M1009.70,-189.82,974.78,-178.30"/>
<path data-id="90-134" d="M1009.70,-189.82,1025.24,-139.15"/>
<path data-id="90-144" d="M1009.70,-189.82,1010.52,-230.28"/>
<path data-id="91-148" d="M184.63,-40.93,259.16,-111.34"/>
<path data-id="91-238" d="M184.63,-40.93,75.81,-25.21"/>
<path data-id="92-130" d="M263.29,-762.71,207.72,-618.54"/>
<path data-id="92-176" d="M263.29,-762.71,207.92,-824.75"/>
<path data-id="93-149" d="M876.04,-1221.13,942.13,-1143.29"/>
<path data-id="93-178" d="M876.04,-1221.13,979.93,-1254.88"/>
<path data-id="93-181" d="M876.04,-1221.13,896.70,-1373.03"/>
<path data-id="93-234" d="M876.04,-1221.13,849.13,-1200.12"/>
<path data-id="94-116" d="M31.28,-724.69,68.52,-699.51"/>
<path data-id="94-145" d="M31.28,-724.69,62.50,-761.14"/>
<path data-id="95-96" d="M1445.51,-716.95,1423.42,-755.95"/>
<path data-id="95-247" d="M1445.51,-716.95,1369.79,-612.38"/>
<path data-id="96-152" d="M1423.42,-755.95,1324.39,-701.98"/>
<path data-id="96-231" d="M1423.42,-755.95,1424.03,-824.60"/>
<path data-id="97-109" d="M826.93,-1375.73,788.40,-1405.54"/>
<path data-id="97-147" d="M826.93,-1375.73,878.38,-1429.19"/>
<path data-id="97-181" d="M826.93,-1375.73,896.70,-1373.03"/>
<path data-id="98-185" d="M685.58,-703.39,758.80,-664.38"/>
<path data-id="99-165" d="M1494.52,-692.78,1486.65,-668.40"/>
<path data-id="99-205" d="M1494.52,-692.78,1538.85,-663.46"/>
<path data-id="100-110" d="M1014.51,-537.47,1023.18,-563.21"/>
<path data-id="100-124" d="M1014.51,-537.47,1126.46,-498.03"/>
<path data-id="101-179" d="M1489.61,-197.37,1430.19,-190.90"/>
<path data-id="101-188" d="M1489.61,-197.37,1570.93,-241.15"/>
<path data-id="101-245" d="M1489.61,-197.37,1463.20,-74.39"/>
<path data-id="102-137" d="M645.27,-1367.11,674.04,-1347.94"/>
<path data-id="103-194" d="M675.52,-286.58,578.82,-342.62"/>
<path data-id="103-217" d="M675.52,-286.58,684.75,-363.83"/>
<path data-id="103-235" d="M675.52,-286.58,596.46,-259.24"/>
<path data-id="104-209" d="M1436.28,-524.73,1496.62,-443.58"/>
<path data-id="105-142" d="M177.28,-1187.17,68.07,-1225.68"/>
<path data-id="105-240" d="M177.28,-1187.17,344.15,-1152.50"/>
<path data-id="106-214" d="M1493.50,-1111.85,1538.33,-1032.82"/>
<path data-id="107-128" d="M346.60,-1415.78,365.60,-1444.37"/>
<path data-id="107-135" d="M346.60,-1415.78,437.76,-1396.12"/>
<path data-id="107-161" d="M346.60,-1415.78,323.07,-1301.54"/>
<path data-id="108-183" d="M1234.61,-1541.38,1196.36,-1499.73"/>
<path data-id="108-244" d="M1234.61,-1541.38,1269.96,-1503.69"/>
<path data-id="109-133" d="M788.40,-1405.54,756.64,-1409.01"/>
<path data-id="110-132" d="M1023.18,-563.21,1095.34,-574.74"/>
<path data-id="110-172" d="M1023.18,-563.21,954.19,-688.16"/>
<path data-id="111-157" d="M792.38,-393.50,883.59,-251.27"/>
<path data-id="111-171" d="M792.38,-393.50,693.81,-498.72"/>
<path data-id="111-192" d="M792.38,-393.50,859.66,-415.44"/>
<path data-id="111-217" d="M792.38,-393.50,684.75,-363.83"/>
<path data-id="112-123" d="M270.07,-469.11,211.50,-432.66"/>
<path data-id="112-216" d="M270.07,-469.11,407.01,-532.42"/>
<path data-id="112-225" d="M270.07,-469.11,205.10,-531.33"/>
<path data-id="113-169" d="M401.27,-93.52,390.93,-130.67"/>
<path data-id="113-170" d="M401.27,-93.52,417.51,-72.83"/>
<path data-id="114-170" d="M529.89,-71.58,417.51,-72.83"/>
<path data-id="114-227" d="M529.89,-71.58,499.07,-198.39"/>
<path data-id="114-236" d="M529.89,-71.58,598.74,-68.79"/>
<path data-id="115-168" d="M768.66,-1114.59,679.32,-1166.44"/>
<path data-id="115-191" d="M768.66,-1114.59,856.13,-1159.63"/>
<path data-id="116-145" d="M68.52,-699.51,62.50,-761.14"/>
<path data-id="117-221" d="M1554.20,-1533.91,1521.15,-1496.47"/>
<path data-id="118-180" d="M1013.20,-812.25,971.64,-795.55"/>
<path data-id="118-190" d="M1013.20,-812.25,1207.71,-921.19"/>
<path data-id="119-125" d="M537.17,-1104.90,488.96,-1166.15"/>
<path data-id="119-208" d="M537.17,-1104.90,560.33,-1095.25"/>
<path data-id="121-185" d="M768.24,-606.60,758.80,-664.38"/>
<path data-id="121-187" d="M768.24,-606.60,796.47,-624.94"/>
<path data-id="121-233" d="M768.24,-606.60,715.48,-558.47"/>
<path data-id="122-138" d="M510.14,-305.39,500.28,-237.08"/>
<path data-id="123-159" d="M211.50,-432.66,160.43,-510.16"/>
<path data-id="123-225" d="M211.50,-432.66,205.10,-531.33"/>
<path data-id="123-246" d="M211.50,-432.66,75.97,-424.05"/>
<path data-id="124-132" d="M1126.46,-498.03,1095.34,-574.74"/>
<path data-id="124-195" d="M1126.46,-498.03,1041.86,-292.70"/>
<path data-id="125-163" d="M488.96,-1166.15,504.77,-1305.75"/>
<path data-id="125-215" d="M488.96,-1166.15,465.11,-1154.87"/>
<path data-id="126-201" d="M1498.16,-1193.20,1464.06,-1338.38"/>
<path data-id="127-139" d="M510.79,-598.96,479.31,-654.46"/>
<path data-id="127-189" d="M510.79,-598.96,444.17,-609.32"/>
<path data-id="127-237" d="M510.79,-598.96,565.10,-518.27"/>
<path data-id="127-241" d="M510.79,-598.96,553.04,-620.49"/>
<path data-id="128-135" d="M365.60,-1444.37,437.76,-1396.12"/>
<path data-id="129-214" d="M1570.88,-1033.46,1538.33,-1032.82"/>
<path data-id="130-225" d="M207.72,-618.54,205.10,-531.33"/>
<path data-id="131-134" d="M974.78,-178.30,1025.24,-139.15"/>
<path data-id="131-157" d="M974.78,-178.30,883.59,-251.27"/>
<path data-id="132-206" d="M1095.34,-574.74,998.15,-720.06"/>
<path data-id="133-137" d="M756.64,-1409.01,674.04,-1347.94"/>
<path data-id="135-239" d="M437.76,-1396.12,469.21,-1345.24"/>
<path data-id="136-152" d="M1334.34,-835.07,1324.39,-701.98"/>
<path data-id="136-190" d="M1334.34,-835.07,1207.71,-921.19"/>
<path data-id="136-199" d="M1334.34,-835.07,1370.41,-1131.44"/>
<path data-id="136-231" d="M1334.34,-835.07,1424.03,-824.60"/>
<path data-id="138-153" d="M500.28,-237.08,610.37,-195.76"/>
<path data-id="138-227" d="M500.28,-237.08,499.07,-198.39"/>
<path data-id="138-235" d="M500.28,-237.08,596.46,-259.24"/>
<path data-id="139-189" d="M479.31,-654.46,444.17,-609.32"/>
<path data-id="139-198" d="M479.31,-654.46,355.91,-779.44"/>
<path data-id="140-236" d="M678.61,-39.86,598.74,-68.79"/>
<path data-id="141-150" d="M374.06,-980.36,336.56,-987.13"/>
<path data-id="141-215" d="M374.06,-980.36,465.11,-1154.87"/>
<path data-id="141-218" d="M374.06,-980.36,372.91,-952.22"/>
<path data-id="143-150" d="M204.53,-943.40,336.56,-987.13"/>
<path data-id="143-176" d="M204.53,-943.40,207.92,-824.75"/>
<path data-id="143-220" d="M204.53,-943.40,111.50,-957.71"/>
<path data-id="144-157" d="M1010.52,-230.28,883.59,-251.27"/>
<path data-id="144-195" d="M1010.52,-230.28,1041.86,-292.70"/>
<path data-id="145-176" d="M62.50,-761.14,207.92,-824.75"/>
<path data-id="146-179" d="M1370.27,-240.20,1430.19,-190.90"/>
<path data-id="146-229" d="M1370.27,-240.20,1299.06,-202.09"/>
<path data-id="147-160" d="M878.38,-1429.19,962.10,-1397.02"/>
<path data-id="147-181" d="M878.38,-1429.19,896.70,-1373.03"/>
<path data-id="147-196" d="M878.38,-1429.19,1004.83,-1549.83"/>
<path data-id="149-158" d="M942.13,-1143.29,1072.96,-1116.07"/>
<path data-id="149-173" d="M942.13,-1143.29,1045.59,-1185.82"/>
<path data-id="149-178" d="M942.13,-1143.29,979.93,-1254.88"/>
<path data-id="149-191" d="M942.13,-1143.29,856.13,-1159.63"/>
<path data-id="149-223" d="M942.13,-1143.29,914.73,-1046.14"/>
<path data-id="150-240" d="M336.56,-987.13,344.15,-1152.50"/>
<path data-id="151-188" d="M1580.74,-370.18,1570.93,-241.15"/>
<path data-id="151-209" d="M1580.74,-370.18,1496.62,-443.58"/>
<path data-id="153-227" d="M610.37,-195.76,499.07,-198.39"/>
<path data-id="153-235" d="M610.37,-195.76,596.46,-259.24"/>
<path data-id="153-236" d="M610.37,-195.76,598.74,-68.79"/>
<path data-id="154-182" d="M1431.00,-346.95,1408.29,-285.08"/>
<path data-id="155-201" d="M1350.19,-1459.18,1464.06,-1338.38"/>
<path data-id="155-204" d="M1350.19,-1459.18,1416.43,-1573.49"/>
<path data-id="155-221" d="M1350.19,-1459.18,1521.15,-1496.47"/>
<path data-id="155-244" d="M1350.19,-1459.18,1269.96,-1503.69"/>
<path data-id="156-175" d="M891.91,-879.05,776.76,-762.27"/>
<path data-id="156-222" d="M891.91,-879.05,929.74,-852.88"/>
<path data-id="156-223" d="M891.91,-879.05,914.73,-1046.14"/>
<path data-id="157-192" d="M883.59,-251.27,859.66,-415.44"/>
<path data-id="158-173" d="M1072.96,-1116.07,1045.59,-1185.82"/>
<path data-id="158-190" d="M1072.96,-1116.07,1207.71,-921.19"/>
<path data-id="159-184" d="M160.43,-510.16,98.31,-479.22"/>
<path data-id="159-225" d="M160.43,-510.16,205.10,-531.33"/>
<path data-id="160-181" d="M962.10,-1397.02,896.70,-1373.03"/>
<path data-id="160-196" d="M962.10,-1397.02,1004.83,-1549.83"/>
<path data-id="160-228" d="M962.10,-1397.02,992.65,-1316.21"/>
<path data-id="160-249" d="M962.10,-1397.02,1080.83,-1406.46"/>
<path data-id="161-166" d="M323.07,-1301.54,384.56,-1268.89"/>
<path data-id="161-212" d="M323.07,-1301.54,262.80,-1287.16"/>
<path data-id="162-207" d="M594.82,-434.95,618.54,-384.13"/>
<path data-id="162-237" d="M594.82,-434.95,565.10,-518.27"/>
<path data-id="163-239" d="M504.77,-1305.75,469.21,-1345.24"/>
<path data-id="164-238" d="M71.31,-63.21,75.81,-25.21"/>
<path data-id="165-205" d="M1486.65,-668.40,1538.85,-663.46"/>
<path data-id="166-215" d="M384.56,-1268.89,465.11,-1154.87"/>
<path data-id="166-240" d="M384.56,-1268.89,344.15,-1152.50"/>
<path data-id="167-247" d="M1255.49,-549.75,1369.79,-612.38"/>
<path data-id="169-227" d="M390.93,-130.67,499.07,-198.39"/>
<path data-id="171-233" d="M693.81,-498.72,715.48,-558.47"/>
<path data-id="171-237" d="M693.81,-498.72,565.10,-518.27"/>
<path data-id="172-202" d="M954.19,-688.16,906.60,-658.40"/>
<path data-id="172-206" d="M954.19,-688.16,998.15,-720.06"/>
<path data-id="173-219" d="M1045.59,-1185.82,1148.73,-1250.27"/>
<path data-id="174-213" d="M645.37,-930.37,613.70,-1077.22"/>
<path data-id="175-232" d="M776.76,-762.27,781.40,-700.96"/>
<path data-id="177-221" d="M1576.34,-1432.92,1521.15,-1496.47"/>
<path data-id="178-228" d="M979.93,-1254.88,992.65,-1316.21"/>
<path data-id="179-182" d="M1430.19,-190.90,1408.29,-285.08"/>
<path data-id="179-245" d="M1430.19,-190.90,1463.20,-74.39"/>
<path data-id="180-206" d="M971.64,-795.55,998.15,-720.06"/>
<path data-id="180-222" d="M971.64,-795.55,929.74,-852.88"/>
<path data-id="183-226" d="M1196.36,-1499.73,1220.34,-1372.48"/>
<path data-id="183-244" d="M1196.36,-1499.73,1269.96,-1503.69"/>
<path data-id="183-249" d="M1196.36,-1499.73,1080.83,-1406.46"/>
<path data-id="184-230" d="M98.31,-479.22,28.43,-505.53"/>
<path data-id="184-246" d="M98.31,-479.22,75.97,-424.05"/>
<path data-id="185-187" d="M758.80,-664.38,796.47,-624.94"/>
<path data-id="185-232" d="M758.80,-664.38,781.40,-700.96"/>
<path data-id="186-195" d="M1206.63,-203.14,1041.86,-292.70"/>
<path data-id="186-210" d="M1206.63,-203.14,1194.67,-310.00"/>
<path data-id="186-229" d="M1206.63,-203.14,1299.06,-202.09"/>
<path data-id="187-202" d="M796.47,-624.94,906.60,-658.40"/>
<path data-id="189-216" d="M444.17,-609.32,407.01,-532.42"/>
<path data-id="190-199" d="M1207.71,-921.19,1370.41,-1131.44"/>
<path data-id="191-223" d="M856.13,-1159.63,914.73,-1046.14"/>
<path data-id="191-234" d="M856.13,-1159.63,849.13,-1200.12"/>
<path data-id="193-224" d="M67.79,-1502.60,113.56,-1487.36"/>
<path data-id="193-248" d="M67.79,-1502.60,44.65,-1564.95"/>
<path data-id="194-207" d="M578.82,-342.62,618.54,-384.13"/>
<path data-id="194-235" d="M578.82,-342.62,596.46,-259.24"/>
<path data-id="195-210" d="M1041.86,-292.70,1194.67,-310.00"/>
<path data-id="196-249" d="M1004.83,-1549.83,1080.83,-1406.46"/>
<path data-id="197-224" d="M137.70,-1510.59,113.56,-1487.36"/>
<path data-id="197-242" d="M137.70,-1510.59,259.27,-1448.29"/>
<path data-id="202-232" d="M906.60,-658.40,781.40,-700.96"/>
<path data-id="204-221" d="M1416.43,-1573.49,1521.15,-1496.47"/>
<path data-id="207-217" d="M618.54,-384.13,684.75,-363.83"/>
<path data-id="208-213" d="M560.33,-1095.25,613.70,-1077.22"/>
<path data-id="212-240" d="M262.80,-1287.16,344.15,-1152.50"/>
<path data-id="212-242" d="M262.80,-1287.16,259.27,-1448.29"/>
<path data-id="214-231" d="M1538.33,-1032.82,1424.03,-824.60"/>
<path data-id="215-240" d="M465.11,-1154.87,344.15,-1152.50"/>
<path data-id="219-226" d="M1148.73,-1250.27,1220.34,-1372.48"/>
<path data-id="219-243" d="M1148.73,-1250.27,1032.20,-1281.18"/>
<path data-id="219-249" d="M1148.73,-1250.27,1080.83,-1406.46"/>
<path data-id="226-244" d="M1220.34,-1372.48,1269.96,-1503.69"/>
<path data-id="226-249" d="M1220.34,-1372.48,1080.83,-1406.46"/>
<path data-id="228-243" d="M992.65,-1316.21,1032.20,-1281.18"/>
<path data-id="228-249" d="M992.65,-1316.21,1080.83,-1406.46"/>
<path data-id="230-246" d="M28.43,-505.53,75.97,-424.05"/>
<path data-id="233-241" d="M715.48,-558.47,553.04,-620.49"/>
<path data-id="237-241" d="M565.10,-518.27,553.04,-620.49"/>
<path data-id="243-249" d="M1032.20,-1281.18,1080.83,-1406.46"/>
<circle data-id="0" cx="612.78" cy="-1475.23" r="10.00px"/>
<text data-id="0" x="612.78" y="-1475.23">R0</text>
<circle data-id="1" cx="888.83" cy="-107.97" r="10.00px"/>
<text data-id="1" x="888.83" y="-107.97">R1</text>
<circle data-id="2" cx="61.87" cy="-380.92" r="10.00px"/>
<text data-id="2" x="61.87" y="-380.92">R2</text>
<circle data-id="3" cx="262.84" cy="-591.78" r="10.00px"/>
<text data-id="3" x="262.84" y="-591.78">R3</text>
<circle data-id="4" cx="646.63" cy="-1500.69" r="10.00px"/>
<text data-id="4" x="646.63" y="-1500.69">R4</text>
<circle data-id="5" cx="729.08" cy="-864.19" r="10.00px"/>
<text data-id="5" x="729.08" y="-864.19">R5</text>
<circle data-id="6" cx="490.16" cy="-1411.99" r="10.00px"/>
<text data-id="6" x="490.16" y="-1411.99">R6</text>
<circle data-id="7" cx="1282.37" cy="-251.25" r="10.00px"/>
<text data-id="7" x="1282.37" y="-251.25">R7</text>
<circle data-id="8" cx="1294.30" cy="-672.85" r="10.00px"/>
<text data-id="8" x="1294.30" y="-672.85">R8</text>
<circle data-id="9" cx="299.96" cy="-743.15" r="10.00px"/>
<text data-id="9" x="299.96" y="-743.15">R9</text>
<circle data-id="10" cx="337.86" cy="-913.78" r="10.00px"/>
<text data-id="10" x="337.86" y="-913.78">R10</text>
<circle data-id="11" cx="1330.46" cy="-668.82" r="10.00px"/>
<text data-id="11" x="1330.46" y="-668.82">R11</text>
<circle data-id="12" cx="721.74" cy="-1061.44" r="10.00px"/>
<text data-id="12" x="721.74" y="-1061.44">R12</text>
<circle data-id="13" cx="608.95" cy="-915.12" r="10.00px"/>
<text data-id="13" x="608.95" y="-915.12">R13</text>
<circle data-id="14" cx="537.16" cy="-340.64" r="10.00px"/>
<text data-id="14" x="537.16" y="-340.64">R14</text>
<circle data-id="15" cx="1478.26" cy="-724.56" r="10.00px"/>
<text data-id="15" x="1478.26" y="-724.56">R15</text>
<circle data-id="16" cx="1454.99" cy="-1183.99" r="10.00px"/>
<text data-id="16" x="1454.99" y="-1183.99">R16</text>
<circle data-id="17" cx="566.20" cy="-1224.09" r="10.00px"/>
<text data-id="17" x="566.20" y="-1224.09">R17</text>
<circle data-id="18" cx="391.29" cy="-1305.96" r="10.00px"/>
<text data-id="18" x="391.29" y="-1305.96">R18</text>
<circle data-id="19" cx="1344.91" cy="-1258.15" r="10.00px"/>
<text data-id="19" x="1344.91" y="-1258.15">R19</text>
<circle data-id="20" cx="809.31" cy="-1357.66" r="10.00px"/>
<text data-id="20" x="809.31" y="-1357.66">R20</text>
<circle data-id="21" cx="1429.40" cy="-374.74" r="10.00px"/>
<text data-id="21" x="1429.40" y="-374.74">R21</text>
<circle data-id="22" cx="749.04" cy="-901.97" r="10.00px"/>
<text data-id="22" x="749.04" y="-901.97">R22</text>
<circle data-id="23" cx="796.38" cy="-1251.44" r="10.00px"/>
<text data-id="23" x="796.38" y="-1251.44">R23</text>
<circle data-id="24" cx="421.54" cy="-821.70" r="10.00px"/>
<text data-id="24" x="421.54" y="-821.70">R24</text>
<circle data-id="25" cx="306.85" cy="-1456.37" r="10.00px"/>
<text data-id="25" x="306.85" y="-1456.37">R25</text>
<circle data-id="26" cx="900.63" cy="-592.80" r="10.00px"/>
<text data-id="26" x="900.63" y="-592.80">R26</text>
<circle data-id="27" cx="1195.89" cy="-387.26" r="10.00px"/>
<text data-id="27" x="1195.89" y="-387.26">R27</text>
<circle data-id="28" cx="1171.99" cy="-110.48" r="10.00px"/>
<text data-id="28" x="1171.99" y="-110.48">R28</text>
<circle data-id="29" cx="194.28" cy="-235.22" r="10.00px"/>
<text data-id="29" x="194.28" y="-235.22">R29</text>
<circle data-id="30" cx="1419.83" cy="-1157.25" r="10.00px"/>
<text data-id="30" x="1419.83" y="-1157.25">R30</text>
<circle data-id="31" cx="1566.65" cy="-185.36" r="10.00px"/>
<text data-id="31" x="1566.65" y="-185.36">R31</text>
<circle data-id="32" cx="33.37" cy="-1103.61" r="10.00px"/>
<text data-id="32" x="33.37" y="-1103.61">R32</text>
<circle data-id="33" cx="1565.05" cy="-41.78" r="10.00px"/>
<text data-id="33" x="1565.05" y="-41.78">R33</text>
<circle data-id="34" cx="1542.87" cy="-484.70" r="10.00px"/>
<text data-id="34" x="1542.87" y="-484.70">R34</text>
<circle data-id="35" cx="1300.04" cy="-434.26" r="10.00px"/>
<text data-id="35" x="1300.04" y="-434.26">R35</text>
<circle data-id="36" cx="68.13" cy="-1424.08" r="10.00px"/>
<text data-id="36" x="68.13" y="-1424.08">R36</text>
<circle data-id="37" cx="212.90" cy="-1267.67" r="10.00px"/>
<text data-id="37" x="212.90" y="-1267.67">R37</text>
<circle data-id="38" cx="1460.83" cy="-608.81" r="10.00px"/>
<text data-id="38" x="1460.83" y="-608.81">R38</text>
<circle data-id="39" cx="1005.63" cy="-1249.03" r="10.00px"/>
<text data-id="39" x="1005.63" y="-1249.03">R39</text>
<circle data-id="40" cx="62.66" cy="-572.67" r="10.00px"/>
<text data-id="40" x="62.66" y="-572.67">R40</text>
<circle data-id="41" cx="55.95" cy="-844.04" r="10.00px"/>
<text data-id="41" x="55.95" y="-844.04">R41</text>
<circle data-id="42" cx="981.77" cy="-454.87" r="10.00px"/>
<text data-id="42" x="981.77" y="-454.87">R42</text>
<circle data-id="43" cx="21.71" cy="-582.80" r="10.00px"/>
<text data-id="43" x="21.71" y="-582.80">R43</text>
<circle data-id="44" cx="1294.36" cy="-1387.26" r="10.00px"/>
<text data-id="44" x="1294.36" y="-1387.26">R44</text>
<circle data-id="45" cx="1095.22" cy="-119.17" r="10.00px"/>
<text data-id="45" x="1095.22" y="-119.17">R45</text>
<circle data-id="46" cx="47.46" cy="-410.39" r="10.00px"/>
<text data-id="46" x="47.46" y="-410.39">R46</text>
<circle data-id="47" cx="638.90" cy="-680.98" r="10.00px"/>
<text data-id="47" x="638.90" y="-680.98">R47</text>
<circle data-id="48" cx="437.29" cy="-1499.52" r="10.00px"/>
<text data-id="48" x="437.29" y="-1499.52">R48</text>
<circle data-id="49" cx="650.37" cy="-748.16" r="10.00px"/>
<text data-id="49" x="650.37" y="-748.16">R49</text>
<circle data-id="50" cx="547.53" cy="-1021.98" r="10.00px"/>
<text data-id="50" x="547.53" y="-1021.98">R50</text>
<circle data-id="51" cx="690.62" cy="-744.90" r="10.00px"/>
<text data-id="51" x="690.62" y="-744.90">R51</text>
<circle data-id="52" cx="1133.63" cy="-1553.10" r="10.00px"/>
<text data-id="52" x="1133.63" y="-1553.10">R52</text>
<circle data-id="53" cx="1379.97" cy="-288.62" r="10.00px"/>
<text data-id="53" x="1379.97" y="-288.62">R53</text>
<circle data-id="54" cx="184.08" cy="-1070.24" r="10.00px"/>
<text data-id="54" x="184.08" y="-1070.24">R54</text>
<circle data-id="55" cx="1480.90" cy="-1170.08" r="10.00px"/>
<text data-id="55" x="1480.90" y="-1170.08">R55</text>
<circle data-id="56" cx="755.37" cy="-179.78" r="10.00px"/>
<text data-id="56" x="755.37" y="-179.78">R56</text>
<circle data-id="57" cx="1402.76" cy="-350.77" r="10.00px"/>
<text data-id="57" x="1402.76" y="-350.77">R57</text>
<circle data-id="58" cx="104.64" cy="-691.56" r="10.00px"/>
<text data-id="58" x="104.64" y="-691.56">R58</text>
<circle data-id="59" cx="1163.71" cy="-539.93" r="10.00px"/>
<text data-id="59" x="1163.71" y="-539.93">R59</text>
<circle data-id="60" cx="135.65" cy="-96.92" r="10.00px"/>
<text data-id="60" x="135.65" y="-96.92">R60</text>
<circle data-id="61" cx="897.08" cy="-517.75" r="10.00px"/>
<text data-id="61" x="897.08" y="-517.75">R61</text>
<circle data-id="62" cx="1410.65" cy="-476.18" r="10.00px"/>
<text data-id="62" x="1410.65" y="-476.18">R62</text>
<circle data-id="63" cx="1038.52" cy="-93.49" r="10.00px"/>
<text data-id="63" x="1038.52" y="-93.49">R63</text>
<circle data-id="64" cx="1157.74" cy="-23.08" r="10.00px"/>
<text data-id="64" x="1157.74" y="-23.08">R64</text>
<circle data-id="65" cx="1448.61" cy="-565.95" r="10.00px"/>
<text data-id="65" x="1448.61" y="-565.95">R65</text>
<circle data-id="66" cx="1359.85" cy="-51.93" r="10.00px"/>
<text data-id="66" x="1359.85" y="-51.93">R66</text>
<circle data-id="67" cx="652.19" cy="-421.89" r="10.00px"/>
<text data-id="67" x="652.19" y="-421.89">R67</text>
<circle data-id="68" cx="71.83" cy="-533.03" r="10.00px"/>
<text data-id="68" x="71.83" y="-533.03">R68</text>
<circle data-id="69" cx="1330.22" cy="-362.85" r="10.00px"/>
<text data-id="69" x="1330.22" y="-362.85">R69</text>
<circle data-id="70" cx="703.81" cy="-54.53" r="10.00px"/>
<text data-id="70" x="703.81" y="-54.53">R70</text>
<circle data-id="71" cx="612.34" cy="-1154.92" r="10.00px"/>
<text data-id="71" x="612.34" y="-1154.92">R71</text>
<circle data-id="72" cx="25.45" cy="-152.70" r="10.00px"/>
<text data-id="72" x="25.45" y="-152.70">R72</text>
<circle data-id="73" cx="1465.41" cy="-327.40" r="10.00px"/>
<text data-id="73" x="1465.41" y="-327.40">R73</text>
<circle data-id="74" cx="590.30" cy="-1397.75" r="10.00px"/>
<text data-id="74" x="590.30" y="-1397.75">R74</text>
<circle data-id="75" cx="1541.18" cy="-1116.61" r="10.00px"/>
<text data-id="75" x="1541.18" y="-1116.61">R75</text>
<circle data-id="76" cx="538.89" cy="-300.85" r="10.00px"/>
<text data-id="76" x="538.89" y="-300.85">R76</text>
<circle data-id="77" cx="303.61" cy="-400.90" r="10.00px"/>
<text data-id="77" x="303.61" y="-400.90">R77</text>
<circle data-id="78" cx="1578.60" cy="-1501.65" r="10.00px"/>
<text data-id="78" x="1578.60" y="-1501.65">R78</text>
<circle data-id="79" cx="997.41" cy="-1007.06" r="10.00px"/>
<text data-id="79" x="997.41" y="-1007.06">R79</text>
<circle data-id="80" cx="1548.63" cy="-800.63" r="10.00px"/>
<text data-id="80" x="1548.63" y="-800.63">R80</text>
<circle data-id="81" cx="35.79" cy="-1418.53" r="10.00px"/>
<text data-id="81" x="35.79" y="-1418.53">R81</text>
<circle data-id="82" cx="559.25" cy="-384.31" r="10.00px"/>
<text data-id="82" x="559.25" y="-384.31">R82</text>
<circle data-id="83" cx="146.90" cy="-1360.74" r="10.00px"/>
<text data-id="83" x="146.90" y="-1360.74">R83</text>
<circle data-id="84" cx="744.51" cy="-1280.49" r="10.00px"/>
<text data-id="84" x="744.51" y="-1280.49">R84</text>
<circle data-id="85" cx="692.74" cy="-128.04" r="10.00px"/>
<text data-id="85" x="692.74" y="-128.04">R85</text>
<circle data-id="86" cx="604.63" cy="-1549.33" r="10.00px"/>
<text data-id="86" x="604.63" y="-1549.33">R86</text>
<circle data-id="87" cx="43.85" cy="-785.14" r="10.00px"/>
<text data-id="87" x="43.85" y="-785.14">R87</text>
<circle data-id="88" cx="302.44" cy="-94.80" r="10.00px"/>
<text data-id="88" x="302.44" y="-94.80">R88</text>
<circle data-id="89" cx="1501.71" cy="-1348.49" r="10.00px"/>
<text data-id="89" x="1501.71" y="-1348.49">R89</text>
<circle data-id="90" cx="1009.70" cy="-189.82" r="10.00px"/>
<text data-id="90" x="1009.70" y="-189.82">R90</text>
<circle data-id="91" cx="184.63" cy="-40.93" r="10.00px"/>
<text data-id="91" x="184.63" y="-40.93">R91</text>
<circle data-id="92" cx="263.29" cy="-762.71" r="10.00px"/>
<text data-id="92" x="263.29" y="-762.71">R92</text>
<circle data-id="93" cx="876.04" cy="-1221.13" r="10.00px"/>
<text data-id="93" x="876.04" y="-1221.13">R93</text>
<circle data-id="94" cx="31.28" cy="-724.69" r="10.00px"/>
<text data-id="94" x="31.28" y="-724.69">R94</text>
<circle data-id="95" cx="1445.51" cy="-716.95" r="10.00px"/>
<text data-id="95" x="1445.51" y="-716.95">R95</text>
<circle data-id="96" cx="1423.42" cy="-755.95" r="10.00px"/>
<text data-id="96" x="1423.42" y="-755.95">R96</text>
<circle data-id="97" cx="826.93" cy="-1375.73" r="10.00px"/>
<text data-id="97" x="826.93" y="-1375.73">R97</text>
<circle data-id="98" cx="685.58" cy="-703.39" r="10.00px"/>
<text data-id="98" x="685.58" y="-703.39">R98</text>
<circle data-id="99" cx="1494.52" cy="-692.78" r="10.00px"/>
<text data-id="99" x="1494.52" y="-692.78">R99</text>
<circle data-id="100" cx="1014.51" cy="-537.47" r="10.00px"/>
<text data-id="100" x="1014.51" y="-537.47">R100</text>
<circle data-id="101" cx="1489.61" cy="-197.37" r="10.00px"/>
<text data-id="101" x="1489.61" y="-197.37">R101</text>
<circle data-id="102" cx="645.27" cy="-1367.11" r="10.00px"/>
<text data-id="102" x="645.27" y="-1367.11">R102</text>
<circle data-id="103" cx="675.52" cy="-286.58" r="10.00px"/>
<text data-id="103" x="675.52" y="-286.58">R103</text>
<circle data-id="104" cx="1436.28" cy="-524.73" r="10.00px"/>
<text data-id="104" x="1436.28" y="-524.73">R104</text>
<circle data-id="105" cx="177.28" cy="-1187.17" r="10.00px"/>
<text data-id="105" x="177.28" y="-1187.17">R105</text>
<circle data-id="106" cx="1493.50" cy="-1111.85" r="10.00px"/>
<text data-id="106" x="1493.50" y="-1111.85">R106</text>
<circle data-id="107" cx="346.60" cy="-1415.78" r="10.00px"/>
<text data-id="107" x="346.60" y="-1415.78">R107</text>
<circle data-id="108" cx="1234.61" cy="-1541.38" r="10.00px"/>
<text data-id="108" x="1234.61" y="-1541.38">R108</text>
<circle data-id="109" cx="788.40" cy="-1405.54" r="10.00px"/>
<text data-id="109" x="788.40" y="-1405.54">R109</text>
<circle data-id="110" cx="1023.18" cy="-563.21" r="10.00px"/>
<text data-id="110" x="1023.18" y="-563.21">R110</text>
<circle data-id="111" cx="792.38" cy="-393.50" r="10.00px"/>
<text data-id="111" x="792.38" y="-393.50">R111</text>
<circle data-id="112" cx="270.07" cy="-469.11" r="10.00px"/>
<text data-id="112" x="270.07" y="-469.11">R112</text>
<circle data-id="113" cx="401.27" cy="-93.52" r="10.00px"/>
<text data-id="113" x="401.27" y="-93.52">R113</text>
<circle data-id="114" cx="529.89" cy="-71.58" r="10.00px"/>
<text data-id="114" x="529.89" y="-71.58">R114</text>
<circle data-id="115" cx="768.66" cy="-1114.59" r="10.00px"/>
<text data-id="115" x="768.66" y="-1114.59">R115</text>
<circle data-id="116" cx="68.52" cy="-699.51" r="10.00px"/>
<text data-id="116" x="68.52" y="-699.51">R116</text>
<circle data-id="117" cx="1554.20" cy="-1533.91" r="10.00px"/>
<text data-id="117" x="1554.20" y="-1533.91">R117</text>
<circle data-id="118" cx="1013.20" cy="-812.25" r="10.00px"/>
<text data-id="118" x="1013.20" y="-812.25">R118</text>
<circle data-id="119" cx="537.17" cy="-1104.90" r="10.00px"/>
<text data-id="119" x="537.17" y="-1104.90">R119</text>
<circle data-id="120" cx="597.43" cy="-862.83" r="10.00px"/>
<text data-id="120" x="597.43" y="-862.83">R120</text>
<circle data-id="121" cx="768.24" cy="-606.60" r="10.00px"/>
<text data-id="121" x="768.24" y="-606.60">R121</text>
<circle data-id="122" cx="510.14" cy="-305.39" r="10.00px"/>
<text data-id="122" x="510.14" y="-305.39">R122</text>
<circle data-id="123" cx="211.50" cy="-432.66" r="10.00px"/>
<text data-id="123" x="211.50" y="-432.66">R123</text>
<circle data-id="124" cx="1126.46" cy="-498.03" r="10.00px"/>
<text data-id="124" x="1126.46" y="-498.03">R124</text>
<circle data-id="125" cx="488.96" cy="-1166.15" r="10.00px"/>
<text data-id="125" x="488.96" y="-1166.15">R125</text>
<circle data-id="126" cx="1498.16" cy="-1193.20" r="10.00px"/>
<text data-id="126" x="1498.16" y="-1193.20">R126</text>
<circle data-id="127" cx="510.79" cy="-598.96" r="10.00px"/>
<text data-id="127" x="510.79" y="-598.96">R127</text>
<circle data-id="128" cx="365.60" cy="-1444.37" r="10.00px"/>
<text data-id="128" x="365.60" y="-1444.37">R128</text>
<circle data-id="129" cx="1570.88" cy="-1033.46" r="10.00px"/>
<text data-id="129" x="1570.88" y="-1033.46">R129</text>
<circle data-id="130" cx="207.72" cy="-618.54" r="10.00px"/>
<text data-id="130" x="207.72" y="-618.54">R130</text>
<circle data-id="131" cx="974.78" cy="-178.30" r="10.00px"/>
<text data-id="131" x="974.78" y="-178.30">R131</text>
<circle data-id="132" cx="1095.34" cy="-574.74" r="10.00px"/>
<text data-id="132" x="1095.34" y="-574.74">R132</text>
<circle data-id="133" cx="756.64" cy="-1409.01" r="10.00px"/>
<text data-id="133" x="756.64" y="-1409.01">R133</text>
<circle data-id="134" cx="1025.24" cy="-139.15" r="10.00px"/>
<text data-id="134" x="1025.24" y="-139.15">R134</text>
<circle data-id="135" cx="437.76" cy="-1396.12" r="10.00px"/>
<text data-id="135" x="437.76" y="-1396.12">R135</text>
<circle data-id="136" cx="1334.34" cy="-835.07" r="10.00px"/>
<text data-id="136" x="1334.34" y="-835.07">R136</text>
<circle data-id="137" cx="674.04" cy="-1347.94" r="10.00px"/>
<text data-id="137" x="674.04" y="-1347.94">R137</text>
<circle data-id="138" cx="500.28" cy="-237.08" r="10.00px"/>
<text data-id="138" x="500.28" y="-237.08">R138</text>
<circle data-id="139" cx="479.31" cy="-654.46" r="10.00px"/>
<text data-id="139" x="479.31" y="-654.46">R139</text>
<circle data-id="140" cx="678.61" cy="-39.86" r="10.00px"/>
<text data-id="140" x="678.61" y="-39.86">R140</text>
<circle data-id="141" cx="374.06" cy="-980.36" r="10.00px"/>
<text data-id="141" x="374.06" y="-980.36">R141</text>
<circle data-id="142" cx="68.07" cy="-1225.68" r="10.00px"/>
<text data-id="142" x="68.07" y="-1225.68">R142</text>
<circle data-id="143" cx="204.53" cy="-943.40" r="10.00px"/>
<text data-id="143" x="204.53" y="-943.40">R143</text>
<circle data-id="144" cx="1010.52" cy="-230.28" r="10.00px"/>
<text data-id="144" x="1010.52" y="-230.28">R144</text>
<circle data-id="145" cx="62.50" cy="-761.14" r="10.00px"/>
<text data-id="145" x="62.50" y="-761.14">R145</text>
<circle data-id="146" cx="1370.27" cy="-240.20" r="10.00px"/>
<text data-id="146" x="1370.27" y="-240.20">R146</text>
<circle data-id="147" cx="878.38" cy="-1429.19" r="10.00px"/>
<text data-id="147" x="878.38" y="-1429.19">R147</text>
<circle data-id="148" cx="259.16" cy="-111.34" r="10.00px"/>
<text data-id="148" x="259.16" y="-111.34">R148</text>
<circle data-id="149" cx="942.13" cy="-1143.29" r="10.00px"/>
<text data-id="149" x="942.13" y="-1143.29">R149</text>
<circle data-id="150" cx="336.56" cy="-987.13" r="10.00px"/>
<text data-id="150" x="336.56" y="-987.13">R150</text>
<circle data-id="151" cx="1580.74" cy="-370.18" r="10.00px"/>
<text data-id="151" x="1580.74" y="-370.18">R151</text>
<circle data-id="152" cx="1324.39" cy="-701.98" r="10.00px"/>
<text data-id="152" x="1324.39" y="-701.98">R152</text>
<circle data-id="153" cx="610.37" cy="-195.76" r="10.00px"/>
<text data-id="153" x="610.37" y="-195.76">R153</text>
<circle data-id="154" cx="1431.00" cy="-346.95" r="10.00px"/>
<text data-id="154" x="1431.00" y="-346.95">R154</text>
<circle data-id="155" cx="1350.19" cy="-1459.18" r="10.00px"/>
<text data-id="155" x="1350.19" y="-1459.18">R155</text>
<circle data-id="156" cx="891.91" cy="-879.05" r="10.00px"/>
<text data-id="156" x="891.91" y="-879.05">R156</text>
<circle data-id="157" cx="883.59" cy="-251.27" r="10.00px"/>
<text data-id="157" x="883.59" y="-251.27">R157</text>
<circle data-id="158" cx="1072.96" cy="-1116.07" r="10.00px"/>
<text data-id="158" x="1072.96" y="-1116.07">R158</text>
<circle data-id="159" cx="160.43" cy="-510.16" r="10.00px"/>
<text data-id="159" x="160.43" y="-510.16">R159</text>
<circle data-id="160" cx="962.10" cy="-1397.02" r="10.00px"/>
<text data-id="160" x="962.10" y="-1397.02">R160</text>
<circle data-id="161" cx="323.07" cy="-1301.54" r="10.00px"/>
<text data-id="161" x="323.07" y="-1301.54">R161</text>
<circle data-id="162" cx="594.82" cy="-434.95" r="10.00px"/>
<text data-id="162" x="594.82" y="-434.95">R162</text>
<circle data-id="163" cx="504.77" cy="-1305.75" r="10.00px"/>
<text data-id="163" x="504.77" y="-1305.75">R163</text>
<circle data-id="164" cx="71.31" cy="-63.21" r="10.00px"/>
<text data-id="164" x="71.31" y="-63.21">R164</text>
<circle data-id="165" cx="1486.65" cy="-668.40" r="10.00px"/>
<text data-id="165" x="1486.65" y="-668.40">R165</text>
<circle data-id="166" cx="384.56" cy="-1268.89" r="10.00px"/>
<text data-id="166" x="384.56" y="-1268.89">R166</text>
<circle data-id="167" cx="1255.49" cy="-549.75" r="10.00px"/>
<text data-id="167" x="1255.49" y="-549.75">R167</text>
<circle data-id="168" cx="679.32" cy="-1166.44" r="10.00px"/>
<text data-id="168" x="679.32" y="-1166.44">R168</text>
<circle data-id="169" cx="390.93" cy="-130.67" r="10.00px"/>
<text data-id="169" x="390.93" y="-130.67">R169</text>
<circle data-id="170" cx="417.51" cy="-72.83" r="10.00px"/>
<text data-id="170" x="417.51" y="-72.83">R170</text>
<circle data-id="171" cx="693.81" cy="-498.72" r="10.00px"/>
<text data-id="171" x="693.81" y="-498.72">R171</text>
<circle data-id="172" cx="954.19" cy="-688.16" r="10.00px"/>
<text data-id="172" x="954.19" y="-688.16">R172</text>
<circle data-id="173" cx="1045.59" cy="-1185.82" r="10.00px"/>
<text data-id="173" x="1045.59" y="-1185.82">R173</text>
<circle data-id="174" cx="645.37" cy="-930.37" r="10.00px"/>
<text data-id="174" x="645.37" y="-930.37">R174</text>
<circle data-id="175" cx="776.76" cy="-762.27" r="10.00px"/>
<text data-id="175" x="776.76" y="-762.27">R175</text>
<circle data-id="176" cx="207.92" cy="-824.75" r="10.00px"/>
<text data-id="176" x="207.92" y="-824.75">R176</text>
<circle data-id="177" cx="1576.34" cy="-1432.92" r="10.00px"/>
<text data-id="177" x="1576.34" y="-1432.92">R177</text>
<circle data-id="178" cx="979.93" cy="-1254.88" r="10.00px"/>
<text data-id="178" x="979.93" y="-1254.88">R178</text>
<circle data-id="179" cx="1430.19" cy="-190.90" r="10.00px"/>
<text data-id="179" x="1430.19" y="-190.90">R179</text>
<circle data-id="180" cx="971.64" cy="-795.55" r="10.00px"/>
<text data-id="180" x="971.64" y="-795.55">R180</text>
<circle data-id="181" cx="896.70" cy="-1373.03" r="10.00px"/>
<text data-id="181" x="896.70" y="-1373.03">R181</text>
<circle data-id="182" cx="1408.29" cy="-285.08" r="10.00px"/>
<text data-id="182" x="1408.29" y="-285.08">R182</text>
<circle data-id="183" cx="1196.36" cy="-1499.73" r="10.00px"/>
<text data-id="183" x="1196.36" y="-1499.73">R183</text>
<circle data-id="184" cx="98.31" cy="-479.22" r="10.00px"/>
<text data-id="184" x="98.31" y="-479.22">R184</text>
<circle data-id="185" cx="758.80" cy="-664.38" r="10.00px"/>
<text data-id="185" x="758.80" y="-664.38">R185</text>
<circle data-id="186" cx="1206.63" cy="-203.14" r="10.00px"/>
<text data-id="186" x="1206.63" y="-203.14">R186</text>
<circle data-id="187" cx="796.47" cy="-624.94" r="10.00px"/>
<text data-id="187" x="796.47" y="-624.94">R187</text>
<circle data-id="188" cx="1570.93" cy="-241.15" r="10.00px"/>
<text data-id="188" x="1570.93" y="-241.15">R188</text>
<circle data-id="189" cx="444.17" cy="-609.32" r="10.00px"/>
<text data-id="189" x="444.17" y="-609.32">R189</text>
<circle data-id="190" cx="1207.71" cy="-921.19" r="10.00px"/>
<text data-id="190" x="1207.71" y="-921.19">R190</text>
<circle data-id="191" cx="856.13" cy="-1159.63" r="10.00px"/>
<text data-id="191" x="856.13" y="-1159.63">R191</text>
<circle data-id="192" cx="859.66" cy="-415.44" r="10.00px"/>
<text data-id="192" x="859.66" y="-415.44">R192</text>
<circle data-id="193" cx="67.79" cy="-1502.60" r="10.00px"/>
<text data-id="193" x="67.79" y="-1502.60">R193</text>
<circle data-id="194" cx="578.82" cy="-342.62" r="10.00px"/>
<text data-id="194" x="578.82" y="-342.62">R194</text>
<circle data-id="195" cx="1041.86" cy="-292.70" r="10.00px"/>
<text data-id="195" x="1041.86" y="-292.70">R195</text>
<circle data-id="196" cx="1004.83" cy="-1549.83" r="10.00px"/>
<text data-id="196" x="1004.83" y="-1549.83">R196</text>
<circle data-id="197" cx="137.70" cy="-1510.59" r="10.00px"/>
<text data-id="197" x="137.70" y="-1510.59">R197</text>
<circle data-id="198" cx="355.91" cy="-779.44" r="10.00px"/>
<text data-id="198" x="355.91" y="-779.44">R198</text>
<circle data-id="199" cx="1370.41" cy="-1131.44" r="10.00px"/>
<text data-id="199" x="1370.41" y="-1131.44">R199</text>
<circle data-id="200" cx="1088.03" cy="-92.21" r="10.00px"/>
<text data-id="200" x="1088.03" y="-92.21">R200</text>
<circle data-id="201" cx="1464.06" cy="-1338.38" r="10.00px"/>
<text data-id="201" x="1464.06" y="-1338.38">R201</text>
<circle data-id="202" cx="906.60" cy="-658.40" r="10.00px"/>
<text data-id="202" x="906.60" y="-658.40">R202</text>
<circle data-id="203" cx="55.23" cy="-300.86" r="10.00px"/>
<text data-id="203" x="55.23" y="-300.86">R203</text>
<circle data-id="204" cx="1416.43" cy="-1573.49" r="10.00px"/>
<text data-id="204" x="1416.43" y="-1573.49">R204</text>
<circle data-id="205" cx="1538.85" cy="-663.46" r="10.00px"/>
<text data-id="205" x="1538.85" y="-663.46">R205</text>
<circle data-id="206" cx="998.15" cy="-720.06" r="10.00px"/>
<text data-id="206" x="998.15" y="-720.06">R206</text>
<circle data-id="207" cx="618.54" cy="-384.13" r="10.00px"/>
<text data-id="207" x="618.54" y="-384.13">R207</text>
<circle data-id="208" cx="560.33" cy="-1095.25" r="10.00px"/>
<text data-id="208" x="560.33" y="-1095.25">R208</text>
<circle data-id="209" cx="1496.62" cy="-443.58" r="10.00px"/>
<text data-id="209" x="1496.62" y="-443.58">R209</text>
<circle data-id="210" cx="1194.67" cy="-310.00" r="10.00px"/>
<text data-id="210" x="1194.67" y="-310.00">R210</text>
<circle data-id="211" cx="860.44" cy="-106.45" r="10.00px"/>
<text data-id="211" x="860.44" y="-106.45">R211</text>
<circle data-id="212" cx="262.80" cy="-1287.16" r="10.00px"/>
<text data-id="212" x="262.80" y="-1287.16">R212</text>
<circle data-id="213" cx="613.70" cy="-1077.22" r="10.00px"/>
<text data-id="213" x="613.70" y="-1077.22">R213</text>
<circle data-id="214" cx="1538.33" cy="-1032.82" r="10.00px"/>
<text data-id="214" x="1538.33" y="-1032.82">R214</text>
<circle data-id="215" cx="465.11" cy="-1154.87" r="10.00px"/>
<text data-id="215" x="465.11" y="-1154.87">R215</text>
<circle data-id="216" cx="407.01" cy="-532.42" r="10.00px"/>
<text data-id="216" x="407.01" y="-532.42">R216</text>
<circle data-id="217" cx="684.75" cy="-363.83" r="10.00px"/>
<text data-id="217" x="684.75" y="-363.83">R217</text>
<circle data-id="218" cx="372.91" cy="-952.22" r="10.00px"/>
<text data-id="218" x="372.91" y="-952.22">R218</text>
<circle data-id="219" cx="1148.73" cy="-1250.27" r="10.00px"/>
<text data-id="219" x="1148.73" y="-1250.27">R219</text>
<circle data-id="220" cx="111.50" cy="-957.71" r="10.00px"/>
<text data-id="220" x="111.50" y="-957.71">R220</text>
<circle data-id="221" cx="1521.15" cy="-1496.47" r="10.00px"/>
<text data-id="221" x="1521.15" y="-1496.47">R221</text>
<circle data-id="222" cx="929.74" cy="-852.88" r="10.00px"/>
<text data-id="222" x="929.74" y="-852.88">R222</text>
<circle data-id="223" cx="914.73" cy="-1046.14" r="10.00px"/>
<text data-id="223" x="914.73" y="-1046.14">R223</text>
<circle data-id="224" cx="113.56" cy="-1487.36" r="10.00px"/>
<text data-id="224" x="113.56" y="-1487.36">R224</text>
<circle data-id="225" cx="205.10" cy="-531.33" r="10.00px"/>
<text data-id="225" x="205.10" y="-531.33">R225</text>
<circle data-id="226" cx="1220.34" cy="-1372.48" r="10.00px"/>
<text data-id="226" x="1220.34" y="-1372.48">R226</text>
<circle data-id="227" cx="499.07" cy="-198.39" r="10.00px"/>
<text data-id="227" x="499.07" y="-198.39">R227</text>
<circle data-id="228" cx="992.65" cy="-1316.21" r="10.00px"/>
<text data-id="228" x="992.65" y="-1316.21">R228</text>
<circle data-id="229" cx="1299.06" cy="-202.09" r="10.00px"/>
<text data-id="229" x="1299.06" y="-202.09">R229</text>
<circle data-id="230" cx="28.43" cy="-505.53" r="10.00px"/>
<text data-id="230" x="28.43" y="-505.53">R230</text>
<circle data-id="231" cx="1424.03" cy="-824.60" r="10.00px"/>
<text data-id="231" x="1424.03" y="-824.60">R231</text>
<circle data-id="232" cx="781.40" cy="-700.96" r="10.00px"/>
<text data-id="232" x="781.40" y="-700.96">R232</text>
<circle data-id="233" cx="715.48" cy="-558.47" r="10.00px"/>
<text data-id="233" x="715.48" y="-558.47">R233</text>
<circle data-id="234" cx="849.13" cy="-1200.12" r="10.00px"/>
<text data-id="234" x="849.13" y="-1200.12">R234</text>
<circle data-id="235" cx="596.46" cy="-259.24" r="10.00px"/>
<text data-id="235" x="596.46" y="-259.24">R235</text>
<circle data-id="236" cx="598.74" cy="-68.79" r="10.00px"/>
<text data-id="236" x="598.74" y="-68.79">R236</text>
<circle data-id="237" cx="565.10" cy="-518.27" r="10.00px"/>
<text data-id="237" x="565.10" y="-518.27">R237</text>
<circle data-id="238" cx="75.81" cy="-25.21" r="10.00px"/>
<text data-id="238" x="75.81" y="-25.21">R238</text>
<circle data-id="239" cx="469.21" cy="-1345.24" r="10.00px"/>
<text data-id="239" x="469.21" y="-1345.24">R239</text>
<circle data-id="240" cx="344.15" cy="-1152.50" r="10.00px"/>
<text data-id="240" x="344.15" y="-1152.50">R240</text>
<circle data-id="241" cx="553.04" cy="-620.49" r="10.00px"/>
<text data-id="241" x="553.04" y="-620.49">R241</text>
<circle data-id="242" cx="259.27" cy="-1448.29" r="10.00px"/>
<text data-id="242" x="259.27" y="-1448.29">R242</text>
<circle data-id="243" cx="1032.20" cy="-1281.18" r="10.00px"/>
<text data-id="243" x="1032.20" y="-1281.18">R243</text>
<circle data-id="244" cx="1269.96" cy="-1503.69" r="10.00px"/>
<text data-id="244" x="1269.96" y="-1503.69">R244</text>
<circle data-id="245" cx="1463.20" cy="-74.39" r="10.00px"/>
<text data-id="245" x="1463.20" y="-74.39">R245</text>
<circle data-id="246" cx="75.97" cy="-424.05" r="10.00px"/>
<text data-id="246" x="75.97" y="-424.05">R246</text>
<circle data-id="247" cx="1369.79" cy="-612.38" r="10.00px"/>
<text data-id="247" x="1369.79" y="-612.38">R247</text>
<circle data-id="248" cx="44.65" cy="-1564.95" r="10.00px"/>
<text data-id="248" x="44.65" y="-1564.95">R248</text>
<circle data-id="249" cx="1080.83" cy="-1406.46" r="10.00px"/>
<text data-id="249" x="1080.83" y="-1406.46">R249</text>
</svg>
