<svg id="topo" viewBox="-71.62 -1659.19 1728.24 1729.83" xmlns="http://www.w3.org/2000/svg">
<style>#topo path {fill: none; stroke: grey; stroke-width: 5.0000px;} #topo circle {fill: lightblue; stroke: none; stroke-width: 0.3px; vector-effect: non-scaling-stroke; r: 10.0000px;} #topo text {fill: black; stroke: none; font-size: 15.0000px; font-family: sans-serif; text-anchor:middle; transform: translateY(0.3em);} #topo path.country {fill: lightgrey; stroke: black; stroke-width: 1px; vector-effect: non-scaling-stroke; visibility: visible;} #topo path.selection {fill: none; stroke: red; stroke-width: 1px; vector-effect: non-scaling-stroke; visibility: visible;} #topo path.utilization {visibility: hidden;}</style>
<path data-id="0-91" d="M358.76,-556.58,272.12,-513.08"/>
<path data-id="0-195" d="M358.76,-556.58,427.01,-665.48"/>
<path data-id="0-217" d="M358.76,-556.58,285.09,-736.42"/>
<path data-id="0-220" d="M358.76,-556.58,393.78,-534.36"/>
<path data-id="1-94" d="M1117.68,-320.98,1070.99,-375.20"/>
<path data-id="1-97" d="M1117.68,-320.98,1249.64,-260.50"/>
<path data-id="1-110" d="M1117.68,-320.98,1124.64,-206.11"/>
<path data-id="1-219" d="M1117.68,-320.98,1264.28,-384.41"/>
<path data-id="2-20" d="M685.71,-925.89,714.87,-944.43"/>
<path data-id="2-24" d="M685.71,-925.89,740.49,-856.77"/>
<path data-id="2-45" d="M685.71,-925.89,643.71,-981.21"/>
<path data-id="2-117" d="M685.71,-925.89,554.59,-761.37"/>
<path data-id="2-135" d="M685.71,-925.89,624.25,-957.21"/>
<path data-id="3-4" d="M1412.79,-1470.38,1503.54,-1440.22"/>
<path data-id="3-12" d="M1412.79,-1470.38,1351.38,-1268.70"/>
<path data-id="3-120" d="M1412.79,-1470.38,1409.21,-1499.21"/>
<path data-id="3-122" d="M1412.79,-1470.38,1269.34,-1311.65"/>
<path data-id="4-12" d="M1503.54,-1440.22,1351.38,-1268.70"/>
<path data-id="4-63" d="M1503.54,-1440.22,1527.64,-1288.97"/>
<path data-id="4-79" d="M1503.54,-1440.22,1507.71,-1512.96"/>
<path data-id="5-141" d="M450.19,-79.74,599.82,-8.47"/>
<path data-id="5-173" d="M450.19,-79.74,407.45,-99.41"/>
<path data-id="5-182" d="M450.19,-79.74,378.85,-23.55"/>
<path data-id="5-200" d="M450.19,-79.74,564.55,-146.96"/>
<path data-id="6-30" d="M445.07,-948.55,420.59,-834.82"/>
<path data-id="6-33" d="M445.07,-948.55,516.43,-887.44"/>
<path data-id="6-96" d="M445.07,-948.55,496.27,-1021.55"/>
<path data-id="6-153" d="M445.07,-948.55,399.98,-1025.56"/>
<path data-id="7-118" d="M49.38,-542.40,104.94,-662.99"/>
<path data-id="7-127" d="M49.38,-542.40,64.95,-482.32"/>
<path data-id="7-158" d="M49.38,-542.40,7.11,-688.45"/>
<path data-id="7-185" d="M49.38,-542.40,189.75,-556.69"/>
<path data-id="8-38" d="M185.90,-1128.80,235.07,-1209.95"/>
<path data-id="8-73" d="M185.90,-1128.80,301.03,-1101.58"/>
<path data-id="8-213" d="M185.90,-1128.80,248.12,-1025.82"/>
<path data-id="8-235" d="M185.90,-1128.80,153.58,-1212.28"/>
<path data-id="8-249" d="M185.90,-1128.80,134.13,-1004.33"/>
<path data-id="9-57" d="M1377.29,-1138.72,1307.38,-1187.66"/>
<path data-id="9-119" d="M1377.29,-1138.72,1436.09,-1111.30"/>
<path data-id="9-180" d="M1377.29,-1138.72,1348.76,-1071.00"/>
<path data-id="10-28" d="M934.36,-576.78,903.84,-511.93"/>
<path data-id="10-64" d="M934.36,-576.78,967.14,-558.83"/>
<path data-id="10-95" d="M934.36,-576.78,961.79,-720.44"/>
<path data-id="10-194" d="M934.36,-576.78,871.90,-595.77"/>
<path data-id="11-73" d="M378.93,-1062.72,301.03,-1101.58"/>
<path data-id="11-153" d="M378.93,-1062.72,399.98,-1025.56"/>
<path data-id="11-166" d="M378.93,-1062.72,327.43,-1016.31"/>
<path data-id="11-188" d="M378.93,-1062.72,514.89,-1147.88"/>
<path data-id="11-212" d="M378.93,-1062.72,362.13,-1186.86"/>
<path data-id="12-57" d="M1351.38,-1268.70,1307.38,-1187.66"/>
<path data-id="12-63" d="M1351.38,-1268.70,1527.64,-1288.97"/>
<path data-id="12-78" d="M1351.38,-1268.70,1267.27,-1276.33"/>
<path data-id="13-14" d="M1397.54,-424.76,1473.70,-399.39"/>
<path data-id="13-34" d="M1397.54,-424.76,1328.39,-371.30"/>
<path data-id="13-69" d="M1397.54,-424.76,1307.68,-404.05"/>
<path data-id="13-121" d="M1397.54,-424.76,1408.32,-521.25"/>
<path data-id="13-240" d="M1397.54,-424.76,1409.07,-363.01"/>
<path data-id="14-223" d="M1473.70,-399.39,1568.53,-339.46"/>
<path data-id="14-240" d="M1473.70,-399.39,1409.07,-363.01"/>
<path data-id="15-123" d="M1450.82,-742.92,1417.06,-703.38"/>
<path data-id="15-140" d="M1450.82,-742.92,1451.17,-803.34"/>
<path data-id="16-18" d="M143.93,-943.95,48.95,-954.95"/>
<path data-id="16-144" d="M143.93,-943.95,174.08,-968.52"/>
<path data-id="16-187" d="M143.93,-943.95,204.89,-921.19"/>
<path data-id="16-249" d="M143.93,-943.95,134.13,-1004.33"/>
<path data-id="17-39" d="M691.17,-1222.11,703.62,-1197.74"/>
<path data-id="17-41" d="M691.17,-1222.11,596.25,-1170.61"/>
<path data-id="17-87" d="M691.17,-1222.11,814.26,-1284.09"/>
<path data-id="17-203" d="M691.17,-1222.11,666.80,-1265.89"/>
<path data-id="18-89" d="M48.95,-954.95,34.15,-885.57"/>
<path data-id="18-232" d="M48.95,-954.95,41.83,-1041.74"/>
<path data-id="18-249" d="M48.95,-954.95,134.13,-1004.33"/>
<path data-id="19-49" d="M1556.51,-88.93,1404.49,-291.46"/>
<path data-id="19-149" d="M1556.51,-88.93,1249.99,-96.07"/>
<path data-id="19-223" d="M1556.51,-88.93,1568.53,-339.46"/>
<path data-id="20-24" d="M714.87,-944.43,740.49,-856.77"/>
<path data-id="20-101" d="M714.87,-944.43,741.63,-1063.23"/>
<path data-id="20-174" d="M714.87,-944.43,892.51,-938.15"/>
<path data-id="21-93" d="M634.53,-1538.06,767.75,-1456.29"/>
<path data-id="21-147" d="M634.53,-1538.06,663.46,-1420.66"/>
<path data-id="21-196" d="M634.53,-1538.06,671.94,-1580.56"/>
<path data-id="21-224" d="M634.53,-1538.06,566.41,-1560.03"/>
<path data-id="22-29" d="M1192.81,-913.35,1242.44,-874.67"/>
<path data-id="22-68" d="M1192.81,-913.35,1157.88,-819.22"/>
<path data-id="22-175" d="M1192.81,-913.35,1098.80,-1048.48"/>
<path data-id="22-191" d="M1192.81,-913.35,1256.01,-1065.38"/>
<path data-id="23-113" d="M255.58,-816.68,241.36,-792.45"/>
<path data-id="23-125" d="M255.58,-816.68,288.18,-854.31"/>
<path data-id="23-187" d="M255.58,-816.68,204.89,-921.19"/>
<path data-id="24-103" d="M740.49,-856.77,783.35,-800.96"/>
<path data-id="24-117" d="M740.49,-856.77,554.59,-761.37"/>
<path data-id="24-174" d="M740.49,-856.77,892.51,-938.15"/>
<path data-id="25-50" d="M1428.12,-940.30,1499.39,-935.27"/>
<path data-id="25-109" d="M1428.12,-940.30,1373.37,-957.60"/>
<path data-id="25-168" d="M1428.12,-940.30,1477.75,-1003.92"/>
<path data-id="25-226" d="M1428.12,-940.30,1430.90,-856.40"/>
<path data-id="26-56" d="M1082.07,-1223.23,1153.40,-1387.62"/>
<path data-id="26-60" d="M1082.07,-1223.23,1146.53,-1095.50"/>
<path data-id="26-86" d="M1082.07,-1223.23,1203.99,-1202.51"/>
<path data-id="26-142" d="M1082.07,-1223.23,1005.90,-1277.22"/>
<path data-id="26-145" d="M1082.07,-1223.23,1040.73,-1129.26"/>
<path data-id="26-172" d="M1082.07,-1223.23,1221.50,-1321.06"/>
<path data-id="27-124" d="M255.95,-84.94,264.22,-139.10"/>
<path data-id="27-173" d="M255.95,-84.94,407.45,-99.41"/>
<path data-id="27-182" d="M255.95,-84.94,378.85,-23.55"/>
<path data-id="27-193" d="M255.95,-84.94,256.04,-12.52"/>
<path data-id="28-64" d="M903.84,-511.93,967.14,-558.83"/>
<path data-id="28-131" d="M903.84,-511.93,978.63,-536.43"/>
<path data-id="28-171" d="M903.84,-511.93,852.29,-560.64"/>
<path data-id="28-176" d="M903.84,-511.93,847.81,-409.29"/>
<path data-id="29-68" d="M1242.44,-874.67,1157.88,-819.22"/>
<path data-id="29-74" d="M1242.44,-874.67,1302.48,-808.58"/>
<path data-id="29-109" d="M1242.44,-874.67,1373.37,-957.60"/>
<path data-id="29-179" d="M1242.44,-874.67,1250.91,-790.93"/>
<path data-id="30-33" d="M420.59,-834.82,516.43,-887.44"/>
<path data-id="30-51" d="M420.59,-834.82,446.02,-801.12"/>
<path data-id="30-125" d="M420.59,-834.82,288.18,-854.31"/>
<path data-id="30-217" d="M420.59,-834.82,285.09,-736.42"/>
<path data-id="31-42" d="M1316.72,-572.26,1189.78,-590.34"/>
<path data-id="31-121" d="M1316.72,-572.26,1408.32,-521.25"/>
<path data-id="31-162" d="M1316.72,-572.26,1342.03,-621.49"/>
<path data-id="31-236" d="M1316.72,-572.26,1274.98,-458.23"/>
<path data-id="32-50" d="M1518.93,-829.97,1499.39,-935.27"/>
<path data-id="32-140" d="M1518.93,-829.97,1451.17,-803.34"/>
<path data-id="32-226" d="M1518.93,-829.97,1430.90,-856.40"/>
<path data-id="33-51" d="M516.43,-887.44,446.02,-801.12"/>
<path data-id="33-117" d="M516.43,-887.44,554.59,-761.37"/>
<path data-id="33-135" d="M516.43,-887.44,624.25,-957.21"/>
<path data-id="34-35" d="M1328.39,-371.30,1349.15,-275.96"/>
<path data-id="34-69" d="M1328.39,-371.30,1307.68,-404.05"/>
<path data-id="34-72" d="M1328.39,-371.30,1397.64,-323.46"/>
<path data-id="34-97" d="M1328.39,-371.30,1249.64,-260.50"/>
<path data-id="34-240" d="M1328.39,-371.30,1409.07,-363.01"/>
<path data-id="35-49" d="M1349.15,-275.96,1404.49,-291.46"/>
<path data-id="35-97" d="M1349.15,-275.96,1249.64,-260.50"/>
<path data-id="36-143" d="M835.22,-278.41,976.21,-235.00"/>
<path data-id="36-169" d="M835.22,-278.41,926.80,-98.92"/>
<path data-id="36-229" d="M835.22,-278.41,850.91,-324.21"/>
<path data-id="36-245" d="M835.22,-278.41,802.53,-299.78"/>
<path data-id="37-38" d="M224.00,-1264.25,235.07,-1209.95"/>
<path data-id="37-40" d="M224.00,-1264.25,206.20,-1288.76"/>
<path data-id="37-235" d="M224.00,-1264.25,153.58,-1212.28"/>
<path data-id="38-73" d="M235.07,-1209.95,301.03,-1101.58"/>
<path data-id="38-212" d="M235.07,-1209.95,362.13,-1186.86"/>
<path data-id="38-235" d="M235.07,-1209.95,153.58,-1212.28"/>
<path data-id="39-41" d="M703.62,-1197.74,596.25,-1170.61"/>
<path data-id="39-52" d="M703.62,-1197.74,725.31,-1143.63"/>
<path data-id="39-87" d="M703.62,-1197.74,814.26,-1284.09"/>
<path data-id="39-160" d="M703.62,-1197.74,606.95,-1145.64"/>
<path data-id="40-150" d="M206.20,-1288.76,308.60,-1368.61"/>
<path data-id="40-170" d="M206.20,-1288.76,124.66,-1393.78"/>
<path data-id="41-82" d="M596.25,-1170.61,568.44,-1254.81"/>
<path data-id="41-160" d="M596.25,-1170.61,606.95,-1145.64"/>
<path data-id="41-203" d="M596.25,-1170.61,666.80,-1265.89"/>
<path data-id="41-216" d="M596.25,-1170.61,565.59,-1151.79"/>
<path data-id="42-134" d="M1189.78,-590.34,1152.91,-636.75"/>
<path data-id="42-178" d="M1189.78,-590.34,1155.80,-474.50"/>
<path data-id="42-236" d="M1189.78,-590.34,1274.98,-458.23"/>
<path data-id="43-105" d="M158.25,-324.19,359.38,-207.60"/>
<path data-id="43-124" d="M158.25,-324.19,264.22,-139.10"/>
<path data-id="43-190" d="M158.25,-324.19,155.94,-362.44"/>
<path data-id="43-210" d="M158.25,-324.19,71.23,-287.37"/>
<path data-id="44-92" d="M399.49,-1348.05,484.26,-1236.37"/>
<path data-id="44-115" d="M399.49,-1348.05,437.96,-1391.01"/>
<path data-id="44-150" d="M399.49,-1348.05,308.60,-1368.61"/>
<path data-id="44-212" d="M399.49,-1348.05,362.13,-1186.86"/>
<path data-id="45-102" d="M643.71,-981.21,648.76,-1044.58"/>
<path data-id="45-135" d="M643.71,-981.21,624.25,-957.21"/>
<path data-id="46-82" d="M509.28,-1330.01,568.44,-1254.81"/>
<path data-id="46-92" d="M509.28,-1330.01,484.26,-1236.37"/>
<path data-id="46-107" d="M509.28,-1330.01,580.47,-1379.44"/>
<path data-id="46-115" d="M509.28,-1330.01,437.96,-1391.01"/>
<path data-id="47-101" d="M837.52,-1073.07,741.63,-1063.23"/>
<path data-id="47-151" d="M837.52,-1073.07,978.69,-1039.00"/>
<path data-id="47-174" d="M837.52,-1073.07,892.51,-938.15"/>
<path data-id="47-215" d="M837.52,-1073.07,850.48,-1138.22"/>
<path data-id="48-61" d="M1000.29,-709.49,1065.78,-635.99"/>
<path data-id="48-95" d="M1000.29,-709.49,961.79,-720.44"/>
<path data-id="48-136" d="M1000.29,-709.49,1012.18,-610.43"/>
<path data-id="48-161" d="M1000.29,-709.49,1059.71,-746.71"/>
<path data-id="49-72" d="M1404.49,-291.46,1397.64,-323.46"/>
<path data-id="50-168" d="M1499.39,-935.27,1477.75,-1003.92"/>
<path data-id="50-226" d="M1499.39,-935.27,1430.90,-856.40"/>
<path data-id="51-53" d="M446.02,-801.12,538.44,-732.43"/>
<path data-id="51-117" d="M446.02,-801.12,554.59,-761.37"/>
<path data-id="51-195" d="M446.02,-801.12,427.01,-665.48"/>
<path data-id="52-55" d="M725.31,-1143.63,678.35,-1064.30"/>
<path data-id="52-101" d="M725.31,-1143.63,741.63,-1063.23"/>
<path data-id="52-160" d="M725.31,-1143.63,606.95,-1145.64"/>
<path data-id="52-215" d="M725.31,-1143.63,850.48,-1138.22"/>
<path data-id="53-80" d="M538.44,-732.43,608.97,-670.43"/>
<path data-id="53-104" d="M538.44,-732.43,502.61,-621.83"/>
<path data-id="53-117" d="M538.44,-732.43,554.59,-761.37"/>
<path data-id="53-195" d="M538.44,-732.43,427.01,-665.48"/>
<path data-id="54-128" d="M967.38,-58.90,990.90,-43.50"/>
<path data-id="54-169" d="M967.38,-58.90,926.80,-98.92"/>
<path data-id="55-101" d="M678.35,-1064.30,741.63,-1063.23"/>
<path data-id="55-102" d="M678.35,-1064.30,648.76,-1044.58"/>
<path data-id="55-160" d="M678.35,-1064.30,606.95,-1145.64"/>
<path data-id="56-90" d="M1153.40,-1387.62,1141.97,-1480.15"/>
<path data-id="56-172" d="M1153.40,-1387.62,1221.50,-1321.06"/>
<path data-id="56-221" d="M1153.40,-1387.62,1092.43,-1399.73"/>
<path data-id="57-167" d="M1307.38,-1187.66,1266.40,-1203.44"/>
<path data-id="57-186" d="M1307.38,-1187.66,1260.39,-1096.30"/>
<path data-id="58-62" d="M740.60,-720.50,645.91,-644.60"/>
<path data-id="58-103" d="M740.60,-720.50,783.35,-800.96"/>
<path data-id="58-194" d="M740.60,-720.50,871.90,-595.77"/>
<path data-id="59-95" d="M962.83,-938.95,961.79,-720.44"/>
<path data-id="59-106" d="M962.83,-938.95,1072.52,-829.33"/>
<path data-id="59-151" d="M962.83,-938.95,978.69,-1039.00"/>
<path data-id="59-174" d="M962.83,-938.95,892.51,-938.15"/>
<path data-id="60-145" d="M1146.53,-1095.50,1040.73,-1129.26"/>
<path data-id="60-175" d="M1146.53,-1095.50,1098.80,-1048.48"/>
<path data-id="60-191" d="M1146.53,-1095.50,1256.01,-1065.38"/>
<path data-id="60-239" d="M1146.53,-1095.50,1198.21,-1140.27"/>
<path data-id="61-112" d="M1065.78,-635.99,1071.53,-488.72"/>
<path data-id="61-136" d="M1065.78,-635.99,1012.18,-610.43"/>
<path data-id="61-161" d="M1065.78,-635.99,1059.71,-746.71"/>
<path data-id="61-201" d="M1065.78,-635.99,1130.06,-662.46"/>
<path data-id="62-80" d="M645.91,-644.60,608.97,-670.43"/>
<path data-id="62-171" d="M645.91,-644.60,852.29,-560.64"/>
<path data-id="62-184" d="M645.91,-644.60,637.14,-572.59"/>
<path data-id="62-192" d="M645.91,-644.60,585.07,-590.50"/>
<path data-id="63-88" d="M1527.64,-1288.97,1529.45,-1109.76"/>
<path data-id="63-119" d="M1527.64,-1288.97,1436.09,-1111.30"/>
<path data-id="64-131" d="M967.14,-558.83,978.63,-536.43"/>
<path data-id="64-136" d="M967.14,-558.83,1012.18,-610.43"/>
<path data-id="65-138" d="M180.81,-1437.72,183.99,-1557.72"/>
<path data-id="65-170" d="M180.81,-1437.72,124.66,-1393.78"/>
<path data-id="65-238" d="M180.81,-1437.72,287.21,-1430.57"/>
<path data-id="65-247" d="M180.81,-1437.72,267.93,-1530.92"/>
<path data-id="66-87" d="M885.87,-1352.07,814.26,-1284.09"/>
<path data-id="66-132" d="M885.87,-1352.07,966.24,-1370.93"/>
<path data-id="66-152" d="M885.87,-1352.07,805.90,-1416.92"/>
<path data-id="66-159" d="M885.87,-1352.07,916.97,-1475.43"/>
<path data-id="66-234" d="M885.87,-1352.07,948.41,-1246.37"/>
<path data-id="67-110" d="M1151.14,-175.05,1124.64,-206.11"/>
<path data-id="67-130" d="M1151.14,-175.05,1154.18,-139.47"/>
<path data-id="67-225" d="M1151.14,-175.05,1212.46,-174.70"/>
<path data-id="68-148" d="M1157.88,-819.22,1105.54,-802.86"/>
<path data-id="68-179" d="M1157.88,-819.22,1250.91,-790.93"/>
<path data-id="68-204" d="M1157.88,-819.22,1161.78,-738.89"/>
<path data-id="69-219" d="M1307.68,-404.05,1264.28,-384.41"/>
<path data-id="69-236" d="M1307.68,-404.05,1274.98,-458.23"/>
<path data-id="70-132" d="M1003.41,-1368.42,966.24,-1370.93"/>
<path data-id="70-142" d="M1003.41,-1368.42,1005.90,-1277.22"/>
<path data-id="70-221" d="M1003.41,-1368.42,1092.43,-1399.73"/>
<path data-id="71-91" d="M350.23,-404.03,272.12,-513.08"/>
<path data-id="71-105" d="M350.23,-404.03,359.38,-207.60"/>
<path data-id="71-114" d="M350.23,-404.03,461.03,-412.67"/>
<path data-id="71-129" d="M350.23,-404.03,442.50,-484.39"/>
<path data-id="71-220" d="M350.23,-404.03,393.78,-534.36"/>
<path data-id="71-231" d="M350.23,-404.03,247.21,-391.64"/>
<path data-id="72-240" d="M1397.64,-323.46,1409.07,-363.01"/>
<path data-id="73-166" d="M301.03,-1101.58,327.43,-1016.31"/>
<path data-id="73-212" d="M301.03,-1101.58,362.13,-1186.86"/>
<path data-id="73-213" d="M301.03,-1101.58,248.12,-1025.82"/>
<path data-id="74-109" d="M1302.48,-808.58,1373.37,-957.60"/>
<path data-id="74-179" d="M1302.48,-808.58,1250.91,-790.93"/>
<path data-id="74-226" d="M1302.48,-808.58,1430.90,-856.40"/>
<path data-id="74-227" d="M1302.48,-808.58,1360.45,-683.78"/>
<path data-id="75-99" d="M20.36,-1476.74,6.93,-1513.36"/>
<path data-id="75-138" d="M20.36,-1476.74,183.99,-1557.72"/>
<path data-id="75-170" d="M20.36,-1476.74,124.66,-1393.78"/>
<path data-id="76-157" d="M416.89,-172.91,412.43,-212.82"/>
<path data-id="76-173" d="M416.89,-172.91,407.45,-99.41"/>
<path data-id="76-200" d="M416.89,-172.91,564.55,-146.96"/>
<path data-id="77-116" d="M1302.45,-1550.65,1218.32,-1528.72"/>
<path data-id="77-233" d="M1302.45,-1550.65,1350.39,-1552.08"/>
<path data-id="78-122" d="M1267.27,-1276.33,1269.34,-1311.65"/>
<path data-id="78-167" d="M1267.27,-1276.33,1266.40,-1203.44"/>
<path data-id="79-120" d="M1507.71,-1512.96,1409.21,-1499.21"/>
<path data-id="79-163" d="M1507.71,-1512.96,1578.06,-1520.50"/>
<path data-id="79-164" d="M1507.71,-1512.96,1488.33,-1572.37"/>
<path data-id="79-199" d="M1507.71,-1512.96,1550.56,-1561.58"/>
<path data-id="80-104" d="M608.97,-670.43,502.61,-621.83"/>
<path data-id="80-192" d="M608.97,-670.43,585.07,-590.50"/>
<path data-id="81-108" d="M1199.24,-7.98,1036.81,-25.09"/>
<path data-id="81-130" d="M1199.24,-7.98,1154.18,-139.47"/>
<path data-id="81-149" d="M1199.24,-7.98,1249.99,-96.07"/>
<path data-id="82-92" d="M568.44,-1254.81,484.26,-1236.37"/>
<path data-id="82-107" d="M568.44,-1254.81,580.47,-1379.44"/>
<path data-id="82-203" d="M568.44,-1254.81,666.80,-1265.89"/>
<path data-id="83-114" d="M516.43,-342.59,461.03,-412.67"/>
<path data-id="83-126" d="M516.43,-342.59,644.13,-353.19"/>
<path data-id="83-177" d="M516.43,-342.59,584.08,-211.45"/>
<path data-id="83-237" d="M516.43,-342.59,497.83,-436.62"/>
<path data-id="83-244" d="M516.43,-342.59,479.67,-318.37"/>
<path data-id="84-142" d="M1013.21,-1136.37,1005.90,-1277.22"/>
<path data-id="84-145" d="M1013.21,-1136.37,1040.73,-1129.26"/>
<path data-id="84-198" d="M1013.21,-1136.37,989.51,-1123.74"/>
<path data-id="84-234" d="M1013.21,-1136.37,948.41,-1246.37"/>
<path data-id="85-139" d="M755.44,-469.67,642.66,-439.69"/>
<path data-id="85-171" d="M755.44,-469.67,852.29,-560.64"/>
<path data-id="85-176" d="M755.44,-469.67,847.81,-409.29"/>
<path data-id="85-184" d="M755.44,-469.67,637.14,-572.59"/>
<path data-id="85-241" d="M755.44,-469.67,707.42,-319.44"/>
<path data-id="86-167" d="M1203.99,-1202.51,1266.40,-1203.44"/>
<path data-id="86-239" d="M1203.99,-1202.51,1198.21,-1140.27"/>
<path data-id="87-137" d="M814.26,-1284.09,906.48,-1164.97"/>
<path data-id="87-152" d="M814.26,-1284.09,805.90,-1416.92"/>
<path data-id="87-215" d="M814.26,-1284.09,850.48,-1138.22"/>
<path data-id="87-234" d="M814.26,-1284.09,948.41,-1246.37"/>
<path data-id="88-119" d="M1529.45,-1109.76,1436.09,-1111.30"/>
<path data-id="88-168" d="M1529.45,-1109.76,1477.75,-1003.92"/>
<path data-id="89-156" d="M34.15,-885.57,154.85,-736.98"/>
<path data-id="89-158" d="M34.15,-885.57,7.11,-688.45"/>
<path data-id="90-116" d="M1141.97,-1480.15,1218.32,-1528.72"/>
<path data-id="90-248" d="M1141.97,-1480.15,1079.60,-1462.19"/>
<path data-id="91-205" d="M272.12,-513.08,218.77,-500.73"/>
<path data-id="92-188" d="M484.26,-1236.37,514.89,-1147.88"/>
<path data-id="92-212" d="M484.26,-1236.37,362.13,-1186.86"/>
<path data-id="93-98" d="M767.75,-1456.29,831.39,-1452.85"/>
<path data-id="93-147" d="M767.75,-1456.29,663.46,-1420.66"/>
<path data-id="93-152" d="M767.75,-1456.29,805.90,-1416.92"/>
<path data-id="93-155" d="M767.75,-1456.29,793.21,-1515.54"/>
<path data-id="94-112" d="M1070.99,-375.20,1071.53,-488.72"/>
<path data-id="94-178" d="M1070.99,-375.20,1155.80,-474.50"/>
<path data-id="94-189" d="M1070.99,-375.20,1036.54,-350.76"/>
<path data-id="95-103" d="M961.79,-720.44,783.35,-800.96"/>
<path data-id="95-174" d="M961.79,-720.44,892.51,-938.15"/>
<path data-id="95-194" d="M961.79,-720.44,871.90,-595.77"/>
<path data-id="96-102" d="M496.27,-1021.55,648.76,-1044.58"/>
<path data-id="96-135" d="M496.27,-1021.55,624.25,-957.21"/>
<path data-id="96-153" d="M496.27,-1021.55,399.98,-1025.56"/>
<path data-id="96-188" d="M496.27,-1021.55,514.89,-1147.88"/>
<path data-id="97-219" d="M1249.64,-260.50,1264.28,-384.41"/>
<path data-id="97-225" d="M1249.64,-260.50,1212.46,-174.70"/>
<path data-id="98-152" d="M831.39,-1452.85,805.90,-1416.92"/>
<path data-id="98-155" d="M831.39,-1452.85,793.21,-1515.54"/>
<path data-id="98-159" d="M831.39,-1452.85,916.97,-1475.43"/>
<path data-id="99-138" d="M6.93,-1513.36,183.99,-1557.72"/>
<path data-id="100-208" d="M388.91,-1557.62,439.26,-1525.37"/>
<path data-id="100-211" d="M388.91,-1557.62,348.71,-1571.45"/>
<path data-id="102-160" d="M648.76,-1044.58,606.95,-1145.64"/>
<path data-id="103-174" d="M783.35,-800.96,892.51,-938.15"/>
<path data-id="104-192" d="M502.61,-621.83,585.07,-590.50"/>
<path data-id="104-195" d="M502.61,-621.83,427.01,-665.48"/>
<path data-id="104-230" d="M502.61,-621.83,478.03,-561.89"/>
<path data-id="105-124" d="M359.38,-207.60,264.22,-139.10"/>
<path data-id="105-157" d="M359.38,-207.60,412.43,-212.82"/>
<path data-id="105-231" d="M359.38,-207.60,247.21,-391.64"/>
<path data-id="106-148" d="M1072.52,-829.33,1105.54,-802.86"/>
<path data-id="106-161" d="M1072.52,-829.33,1059.71,-746.71"/>
<path data-id="107-147" d="M580.47,-1379.44,663.46,-1420.66"/>
<path data-id="107-203" d="M580.47,-1379.44,666.80,-1265.89"/>
<path data-id="107-224" d="M580.47,-1379.44,566.41,-1560.03"/>
<path data-id="108-128" d="M1036.81,-25.09,990.90,-43.50"/>
<path data-id="108-130" d="M1036.81,-25.09,1154.18,-139.47"/>
<path data-id="109-133" d="M1373.37,-957.60,1388.88,-1006.94"/>
<path data-id="110-143" d="M1124.64,-206.11,976.21,-235.00"/>
<path data-id="111-206" d="M767.28,-284.66,700.28,-273.13"/>
<path data-id="111-218" d="M767.28,-284.66,736.19,-223.25"/>
<path data-id="111-241" d="M767.28,-284.66,707.42,-319.44"/>
<path data-id="111-245" d="M767.28,-284.66,802.53,-299.78"/>
<path data-id="112-131" d="M1071.53,-488.72,978.63,-536.43"/>
<path data-id="112-178" d="M1071.53,-488.72,1155.80,-474.50"/>
<path data-id="113-156" d="M241.36,-792.45,154.85,-736.98"/>
<path data-id="113-217" d="M241.36,-792.45,285.09,-736.42"/>
<path data-id="114-237" d="M461.03,-412.67,497.83,-436.62"/>
<path data-id="114-243" d="M461.03,-412.67,461.59,-439.51"/>
<path data-id="114-244" d="M461.03,-412.67,479.67,-318.37"/>
<path data-id="115-208" d="M437.96,-1391.01,439.26,-1525.37"/>
<path data-id="118-156" d="M104.94,-662.99,154.85,-736.98"/>
<path data-id="118-158" d="M104.94,-662.99,7.11,-688.45"/>
<path data-id="118-185" d="M104.94,-662.99,189.75,-556.69"/>
<path data-id="119-133" d="M1436.09,-1111.30,1388.88,-1006.94"/>
<path data-id="119-168" d="M1436.09,-1111.30,1477.75,-1003.92"/>
<path data-id="119-180" d="M1436.09,-1111.30,1348.76,-1071.00"/>
<path data-id="120-164" d="M1409.21,-1499.21,1488.33,-1572.37"/>
<path data-id="120-222" d="M1409.21,-1499.21,1359.56,-1502.96"/>
<path data-id="121-165" d="M1408.32,-521.25,1518.86,-604.75"/>
<path data-id="121-236" d="M1408.32,-521.25,1274.98,-458.23"/>
<path data-id="121-242" d="M1408.32,-521.25,1439.19,-683.92"/>
<path data-id="122-172" d="M1269.34,-1311.65,1221.50,-1321.06"/>
<path data-id="122-222" d="M1269.34,-1311.65,1359.56,-1502.96"/>
<path data-id="123-227" d="M1417.06,-703.38,1360.45,-683.78"/>
<path data-id="123-242" d="M1417.06,-703.38,1439.19,-683.92"/>
<path data-id="124-146" d="M264.22,-139.10,66.03,-191.79"/>
<path data-id="124-173" d="M264.22,-139.10,407.45,-99.41"/>
<path data-id="125-166" d="M288.18,-854.31,327.43,-1016.31"/>
<path data-id="125-187" d="M288.18,-854.31,204.89,-921.19"/>
<path data-id="126-139" d="M644.13,-353.19,642.66,-439.69"/>
<path data-id="126-214" d="M644.13,-353.19,653.71,-285.59"/>
<path data-id="126-241" d="M644.13,-353.19,707.42,-319.44"/>
<path data-id="127-185" d="M64.95,-482.32,189.75,-556.69"/>
<path data-id="127-190" d="M64.95,-482.32,155.94,-362.44"/>
<path data-id="127-205" d="M64.95,-482.32,218.77,-500.73"/>
<path data-id="127-209" d="M64.95,-482.32,219.75,-434.53"/>
<path data-id="129-154" d="M442.50,-484.39,421.63,-526.71"/>
<path data-id="129-243" d="M442.50,-484.39,461.59,-439.51"/>
<path data-id="130-149" d="M1154.18,-139.47,1249.99,-96.07"/>
<path data-id="130-225" d="M1154.18,-139.47,1212.46,-174.70"/>
<path data-id="132-159" d="M966.24,-1370.93,916.97,-1475.43"/>
<path data-id="133-168" d="M1388.88,-1006.94,1477.75,-1003.92"/>
<path data-id="133-180" d="M1388.88,-1006.94,1348.76,-1071.00"/>
<path data-id="134-201" d="M1152.91,-636.75,1130.06,-662.46"/>
<path data-id="137-198" d="M906.48,-1164.97,989.51,-1123.74"/>
<path data-id="137-215" d="M906.48,-1164.97,850.48,-1138.22"/>
<path data-id="137-234" d="M906.48,-1164.97,948.41,-1246.37"/>
<path data-id="138-247" d="M183.99,-1557.72,267.93,-1530.92"/>
<path data-id="139-184" d="M642.66,-439.69,637.14,-572.59"/>
<path data-id="139-237" d="M642.66,-439.69,497.83,-436.62"/>
<path data-id="140-226" d="M1451.17,-803.34,1430.90,-856.40"/>
<path data-id="141-207" d="M599.82,-8.47,625.52,-104.80"/>
<path data-id="142-234" d="M1005.90,-1277.22,948.41,-1246.37"/>
<path data-id="143-169" d="M976.21,-235.00,926.80,-98.92"/>
<path data-id="143-181" d="M976.21,-235.00,943.32,-346.22"/>
<path data-id="143-189" d="M976.21,-235.00,1036.54,-350.76"/>
<path data-id="144-187" d="M174.08,-968.52,204.89,-921.19"/>
<path data-id="144-213" d="M174.08,-968.52,248.12,-1025.82"/>
<path data-id="144-249" d="M174.08,-968.52,134.13,-1004.33"/>
<path data-id="145-175" d="M1040.73,-1129.26,1098.80,-1048.48"/>
<path data-id="146-210" d="M66.03,-191.79,71.23,-287.37"/>
<path data-id="147-203" d="M663.46,-1420.66,666.80,-1265.89"/>
<path data-id="148-161" d="M1105.54,-802.86,1059.71,-746.71"/>
<path data-id="148-204" d="M1105.54,-802.86,1161.78,-738.89"/>
<path data-id="149-225" d="M1249.99,-96.07,1212.46,-174.70"/>
<path data-id="150-212" d="M308.60,-1368.61,362.13,-1186.86"/>
<path data-id="150-238" d="M308.60,-1368.61,287.21,-1430.57"/>
<path data-id="151-175" d="M978.69,-1039.00,1098.80,-1048.48"/>
<path data-id="151-198" d="M978.69,-1039.00,989.51,-1123.74"/>
<path data-id="153-166" d="M399.98,-1025.56,327.43,-1016.31"/>
<path data-id="154-220" d="M421.63,-526.71,393.78,-534.36"/>
<path data-id="154-230" d="M421.63,-526.71,478.03,-561.89"/>
<path data-id="155-196" d="M793.21,-1515.54,671.94,-1580.56"/>
<path data-id="157-177" d="M412.43,-212.82,584.08,-211.45"/>
<path data-id="157-244" d="M412.43,-212.82,479.67,-318.37"/>
<path data-id="159-246" d="M916.97,-1475.43,992.57,-1570.76"/>
<path data-id="159-248" d="M916.97,-1475.43,1079.60,-1462.19"/>
<path data-id="160-216" d="M606.95,-1145.64,565.59,-1151.79"/>
<path data-id="161-201" d="M1059.71,-746.71,1130.06,-662.46"/>
<path data-id="161-204" d="M1059.71,-746.71,1161.78,-738.89"/>
<path data-id="162-204" d="M1342.03,-621.49,1161.78,-738.89"/>
<path data-id="162-227" d="M1342.03,-621.49,1360.45,-683.78"/>
<path data-id="163-199" d="M1578.06,-1520.50,1550.56,-1561.58"/>
<path data-id="164-199" d="M1488.33,-1572.37,1550.56,-1561.58"/>
<path data-id="165-242" d="M1518.86,-604.75,1439.19,-683.92"/>
<path data-id="166-213" d="M327.43,-1016.31,248.12,-1025.82"/>
<path data-id="167-186" d="M1266.40,-1203.44,1260.39,-1096.30"/>
<path data-id="169-197" d="M926.80,-98.92,860.14,-62.14"/>
<path data-id="170-202" d="M124.66,-1393.78,98.14,-1249.74"/>
<path data-id="171-194" d="M852.29,-560.64,871.90,-595.77"/>
<path data-id="173-182" d="M407.45,-99.41,378.85,-23.55"/>
<path data-id="176-181" d="M847.81,-409.29,943.32,-346.22"/>
<path data-id="176-183" d="M847.81,-409.29,819.51,-364.44"/>
<path data-id="177-200" d="M584.08,-211.45,564.55,-146.96"/>
<path data-id="177-214" d="M584.08,-211.45,653.71,-285.59"/>
<path data-id="177-244" d="M584.08,-211.45,479.67,-318.37"/>
<path data-id="178-219" d="M1155.80,-474.50,1264.28,-384.41"/>
<path data-id="178-236" d="M1155.80,-474.50,1274.98,-458.23"/>
<path data-id="179-204" d="M1250.91,-790.93,1161.78,-738.89"/>
<path data-id="180-186" d="M1348.76,-1071.00,1260.39,-1096.30"/>
<path data-id="180-191" d="M1348.76,-1071.00,1256.01,-1065.38"/>
<path data-id="181-189" d="M943.32,-346.22,1036.54,-350.76"/>
<path data-id="181-229" d="M943.32,-346.22,850.91,-324.21"/>
<path data-id="182-193" d="M378.85,-23.55,256.04,-12.52"/>
<path data-id="183-229" d="M819.51,-364.44,850.91,-324.21"/>
<path data-id="183-245" d="M819.51,-364.44,802.53,-299.78"/>
<path data-id="184-192" d="M637.14,-572.59,585.07,-590.50"/>
<path data-id="185-205" d="M189.75,-556.69,218.77,-500.73"/>
<path data-id="185-217" d="M189.75,-556.69,285.09,-736.42"/>
<path data-id="186-191" d="M1260.39,-1096.30,1256.01,-1065.38"/>
<path data-id="186-239" d="M1260.39,-1096.30,1198.21,-1140.27"/>
<path data-id="188-212" d="M514.89,-1147.88,362.13,-1186.86"/>
<path data-id="188-216" d="M514.89,-1147.88,565.59,-1151.79"/>
<path data-id="190-209" d="M155.94,-362.44,219.75,-434.53"/>
<path data-id="190-231" d="M155.94,-362.44,247.21,-391.64"/>
<path data-id="195-217" d="M427.01,-665.48,285.09,-736.42"/>
<path data-id="197-228" d="M860.14,-62.14,705.66,-124.18"/>
<path data-id="198-234" d="M989.51,-1123.74,948.41,-1246.37"/>
<path data-id="200-207" d="M564.55,-146.96,625.52,-104.80"/>
<path data-id="201-204" d="M1130.06,-662.46,1161.78,-738.89"/>
<path data-id="202-235" d="M98.14,-1249.74,153.58,-1212.28"/>
<path data-id="205-209" d="M218.77,-500.73,219.75,-434.53"/>
<path data-id="206-214" d="M700.28,-273.13,653.71,-285.59"/>
<path data-id="206-218" d="M700.28,-273.13,736.19,-223.25"/>
<path data-id="206-241" d="M700.28,-273.13,707.42,-319.44"/>
<path data-id="207-228" d="M625.52,-104.80,705.66,-124.18"/>
<path data-id="208-224" d="M439.26,-1525.37,566.41,-1560.03"/>
<path data-id="209-231" d="M219.75,-434.53,247.21,-391.64"/>
<path data-id="211-247" d="M348.71,-1571.45,267.93,-1530.92"/>
<path data-id="214-241" d="M653.71,-285.59,707.42,-319.44"/>
<path data-id="218-228" d="M736.19,-223.25,705.66,-124.18"/>
<path data-id="219-236" d="M1264.28,-384.41,1274.98,-458.23"/>
<path data-id="221-248" d="M1092.43,-1399.73,1079.60,-1462.19"/>
<path data-id="222-233" d="M1359.56,-1502.96,1350.39,-1552.08"/>
<path data-id="229-245" d="M850.91,-324.21,802.53,-299.78"/>
<path data-id="232-249" d="M41.83,-1041.74,134.13,-1004.33"/>
<path data-id="237-243" d="M497.83,-436.62,461.59,-439.51"/>
<path data-id="238-247" d="M287.21,-1430.57,267.93,-1530.92"/>
<path data-id="246-248" d="M992.57,-1570.76,1079.60,-1462.19"/>
<circle data-id="0" cx="358.76" cy="-556.58" r="10.00px"/>
<text data-id="0" x="358.76" y="-556.58">R0</text>
<circle data-id="1" cx="1117.68" cy="-320.98" r="10.00px"/>
<text data-id="1" x="1117.68" y="-320.98">R1</text>
<circle data-id="2" cx="685.71" cy="-925.89" r="10.00px"/>
<text data-id="2" x="685.71" y="-925.89">R2</text>
<circle data-id="3" cx="1412.79" cy="-1470.38" r="10.00px"/>
<text data-id="3" x="1412.79" y="-1470.38">R3</text>
<circle data-id="4" cx="1503.54" cy="-1440.22" r="10.00px"/>
<text data-id="4" x="1503.54" y="-1440.22">R4</text>
<circle data-id="5" cx="450.19" cy="-79.74" r="10.00px"/>
<text data-id="5" x="450.19" y="-79.74">R5</text>
<circle data-id="6" cx="445.07" cy="-948.55" r="10.00px"/>
<text data-id="6" x="445.07" y="-948.55">R6</text>
<circle data-id="7" cx="49.38" cy="-542.40" r="10.00px"/>
<text data-id="7" x="49.38" y="-542.40">R7</text>
<circle data-id="8" cx="185.90" cy="-1128.80" r="10.00px"/>
<text data-id="8" x="185.90" y="-1128.80">R8</text>
<circle data-id="9" cx="1377.29" cy="-1138.72" r="10.00px"/>
<text data-id="9" x="1377.29" y="-1138.72">R9</text>
<circle data-id="10" cx="934.36" cy="-576.78" r="10.00px"/>
<text data-id="10" x="934.36" y="-576.78">R10</text>
<circle data-id="11" cx="378.93" cy="-1062.72" r="10.00px"/>
<text data-id="11" x="378.93" y="-1062.72">R11</text>
<circle data-id="12" cx="1351.38" cy="-1268.70" r="10.00px"/>
<text data-id="12" x="1351.38" y="-1268.70">R12</text>
<circle data-id="13" cx="1397.54" cy="-424.76" r="10.00px"/>
<text data-id="13" x="1397.54" y="-424.76">R13</text>
<circle data-id="14" cx="1473.70" cy="-399.39" r="10.00px"/>
<text data-id="14" x="1473.70" y="-399.39">R14</text>
<circle data-id="15" cx="1450.82" cy="-742.92" r="10.00px"/>
<text data-id="15" x="1450.82" y="-742.92">R15</text>
<circle data-id="16" cx="143.93" cy="-943.95" r="10.00px"/>
<text data-id="16" x="143.93" y="-943.95">R16</text>
<circle data-id="17" cx="691.17" cy="-1222.11" r="10.00px"/>
<text data-id="17" x="691.17" y="-1222.11">R17</text>
<circle data-id="18" cx="48.95" cy="-954.95" r="10.00px"/>
<text data-id="18" x="48.95" y="-954.95">R18</text>
<circle data-id="19" cx="1556.51" cy="-88.93" r="10.00px"/>
<text data-id="19" x="1556.51" y="-88.93">R19</text>
<circle data-id="20" cx="714.87" cy="-944.43" r="10.00px"/>
<text data-id="20" x="714.87" y="-944.43">R20</text>
<circle data-id="21" cx="634.53" cy="-1538.06" r="10.00px"/>
<text data-id="21" x="634.53" y="-1538.06">R21</text>
<circle data-id="22" cx="1192.81" cy="-913.35" r="10.00px"/>
<text data-id="22" x="1192.81" y="-913.35">R22</text>
<circle data-id="23" cx="255.58" cy="-816.68" r="10.00px"/>
<text data-id="23" x="255.58" y="-816.68">R23</text>
<circle data-id="24" cx="740.49" cy="-856.77" r="10.00px"/>
<text data-id="24" x="740.49" y="-856.77">R24</text>
<circle data-id="25" cx="1428.12" cy="-940.30" r="10.00px"/>
<text data-id="25" x="1428.12" y="-940.30">R25</text>
<circle data-id="26" cx="1082.07" cy="-1223.23" r="10.00px"/>
<text data-id="26" x="1082.07" y="-1223.23">R26</text>
<circle data-id="27" cx="255.95" cy="-84.94" r="10.00px"/>
<text data-id="27" x="255.95" y="-84.94">R27</text>
<circle data-id="28" cx="903.84" cy="-511.93" r="10.00px"/>
<text data-id="28" x="903.84" y="-511.93">R28</text>
<circle data-id="29" cx="1242.44" cy="-874.67" r="10.00px"/>
<text data-id="29" x="1242.44" y="-874.67">R29</text>
<circle data-id="30" cx="420.59" cy="-834.82" r="10.00px"/>
<text data-id="30" x="420.59" y="-834.82">R30</text>
<circle data-id="31" cx="1316.72" cy="-572.26" r="10.00px"/>
<text data-id="31" x="1316.72" y="-572.26">R31</text>
<circle data-id="32" cx="1518.93" cy="-829.97" r="10.00px"/>
<text data-id="32" x="1518.93" y="-829.97">R32</text>
<circle data-id="33" cx="516.43" cy="-887.44" r="10.00px"/>
<text data-id="33" x="516.43" y="-887.44">R33</text>
<circle data-id="34" cx="1328.39" cy="-371.30" r="10.00px"/>
<text data-id="34" x="1328.39" y="-371.30">R34</text>
<circle data-id="35" cx="1349.15" cy="-275.96" r="10.00px"/>
<text data-id="35" x="1349.15" y="-275.96">R35</text>
<circle data-id="36" cx="835.22" cy="-278.41" r="10.00px"/>
<text data-id="36" x="835.22" y="-278.41">R36</text>
<circle data-id="37" cx="224.00" cy="-1264.25" r="10.00px"/>
<text data-id="37" x="224.00" y="-1264.25">R37</text>
<circle data-id="38" cx="235.07" cy="-1209.95" r="10.00px"/>
<text data-id="38" x="235.07" y="-1209.95">R38</text>
<circle data-id="39" cx="703.62" cy="-1197.74" r="10.00px"/>
<text data-id="39" x="703.62" y="-1197.74">R39</text>
<circle data-id="40" cx="206.20" cy="-1288.76" r="10.00px"/>
<text data-id="40" x="206.20" y="-1288.76">R40</text>
<circle data-id="41" cx="596.25" cy="-1170.61" r="10.00px"/>
<text data-id="41" x="596.25" y="-1170.61">R41</text>
<circle data-id="42" cx="1189.78" cy="-590.34" r="10.00px"/>
<text data-id="42" x="1189.78" y="-590.34">R42</text>
<circle data-id="43" cx="158.25" cy="-324.19" r="10.00px"/>
<text data-id="43" x="158.25" y="-324.19">R43</text>
<circle data-id="44" cx="399.49" cy="-1348.05" r="10.00px"/>
<text data-id="44" x="399.49" y="-1348.05">R44</text>
<circle data-id="45" cx="643.71" cy="-981.21" r="10.00px"/>
<text data-id="45" x="643.71" y="-981.21">R45</text>
<circle data-id="46" cx="509.28" cy="-1330.01" r="10.00px"/>
<text data-id="46" x="509.28" y="-1330.01">R46</text>
<circle data-id="47" cx="837.52" cy="-1073.07" r="10.00px"/>
<text data-id="47" x="837.52" y="-1073.07">R47</text>
<circle data-id="48" cx="1000.29" cy="-709.49" r="10.00px"/>
<text data-id="48" x="1000.29" y="-709.49">R48</text>
<circle data-id="49" cx="1404.49" cy="-291.46" r="10.00px"/>
<text data-id="49" x="1404.49" y="-291.46">R49</text>
<circle data-id="50" cx="1499.39" cy="-935.27" r="10.00px"/>
<text data-id="50" x="1499.39" y="-935.27">R50</text>
<circle data-id="51" cx="446.02" cy="-801.12" r="10.00px"/>
<text data-id="51" x="446.02" y="-801.12">R51</text>
<circle data-id="52" cx="725.31" cy="-1143.63" r="10.00px"/>
<text data-id="52" x="725.31" y="-1143.63">R52</text>
<circle data-id="53" cx="538.44" cy="-732.43" r="10.00px"/>
<text data-id="53" x="538.44" y="-732.43">R53</text>
<circle data-id="54" cx="967.38" cy="-58.90" r="10.00px"/>
<text data-id="54" x="967.38" y="-58.90">R54</text>
<circle data-id="55" cx="678.35" cy="-1064.30" r="10.00px"/>
<text data-id="55" x="678.35" y="-1064.30">R55</text>
<circle data-id="56" cx="1153.40" cy="-1387.62" r="10.00px"/>
<text data-id="56" x="1153.40" y="-1387.62">R56</text>
<circle data-id="57" cx="1307.38" cy="-1187.66" r="10.00px"/>
<text data-id="57" x="1307.38" y="-1187.66">R57</text>
<circle data-id="58" cx="740.60" cy="-720.50" r="10.00px"/>
<text data-id="58" x="740.60" y="-720.50">R58</text>
<circle data-id="59" cx="962.83" cy="-938.95" r="10.00px"/>
<text data-id="59" x="962.83" y="-938.95">R59</text>
<circle data-id="60" cx="1146.53" cy="-1095.50" r="10.00px"/>
<text data-id="60" x="1146.53" y="-1095.50">R60</text>
<circle data-id="61" cx="1065.78" cy="-635.99" r="10.00px"/>
<text data-id="61" x="1065.78" y="-635.99">R61</text>
<circle data-id="62" cx="645.91" cy="-644.60" r="10.00px"/>
<text data-id="62" x="645.91" y="-644.60">R62</text>
<circle data-id="63" cx="1527.64" cy="-1288.97" r="10.00px"/>
<text data-id="63" x="1527.64" y="-1288.97">R63</text>
<circle data-id="64" cx="967.14" cy="-558.83" r="10.00px"/>
<text data-id="64" x="967.14" y="-558.83">R64</text>
<circle data-id="65" cx="180.81" cy="-1437.72" r="10.00px"/>
<text data-id="65" x="180.81" y="-1437.72">R65</text>
<circle data-id="66" cx="885.87" cy="-1352.07" r="10.00px"/>
<text data-id="66" x="885.87" y="-1352.07">R66</text>
<circle data-id="67" cx="1151.14" cy="-175.05" r="10.00px"/>
<text data-id="67" x="1151.14" y="-175.05">R67</text>
<circle data-id="68" cx="1157.88" cy="-819.22" r="10.00px"/>
<text data-id="68" x="1157.88" y="-819.22">R68</text>
<circle data-id="69" cx="1307.68" cy="-404.05" r="10.00px"/>
<text data-id="69" x="1307.68" y="-404.05">R69</text>
<circle data-id="70" cx="1003.41" cy="-1368.42" r="10.00px"/>
<text data-id="70" x="1003.41" y="-1368.42">R70</text>
<circle data-id="71" cx="350.23" cy="-404.03" r="10.00px"/>
<text data-id="71" x="350.23" y="-404.03">R71</text>
<circle data-id="72" cx="1397.64" cy="-323.46" r="10.00px"/>
<text data-id="72" x="1397.64" y="-323.46">R72</text>
<circle data-id="73" cx="301.03" cy="-1101.58" r="10.00px"/>
<text data-id="73" x="301.03" y="-1101.58">R73</text>
<circle data-id="74" cx="1302.48" cy="-808.58" r="10.00px"/>
<text data-id="74" x="1302.48" y="-808.58">R74</text>
<circle data-id="75" cx="20.36" cy="-1476.74" r="10.00px"/>
<text data-id="75" x="20.36" y="-1476.74">R75</text>
<circle data-id="76" cx="416.89" cy="-172.91" r="10.00px"/>
<text data-id="76" x="416.89" y="-172.91">R76</text>
<circle data-id="77" cx="1302.45" cy="-1550.65" r="10.00px"/>
<text data-id="77" x="1302.45" y="-1550.65">R77</text>
<circle data-id="78" cx="1267.27" cy="-1276.33" r="10.00px"/>
<text data-id="78" x="1267.27" y="-1276.33">R78</text>
<circle data-id="79" cx="1507.71" cy="-1512.96" r="10.00px"/>
<text data-id="79" x="1507.71" y="-1512.96">R79</text>
<circle data-id="80" cx="608.97" cy="-670.43" r="10.00px"/>
<text data-id="80" x="608.97" y="-670.43">R80</text>
<circle data-id="81" cx="1199.24" cy="-7.98" r="10.00px"/>
<text data-id="81" x="1199.24" y="-7.98">R81</text>
<circle data-id="82" cx="568.44" cy="-1254.81" r="10.00px"/>
<text data-id="82" x="568.44" y="-1254.81">R82</text>
<circle data-id="83" cx="516.43" cy="-342.59" r="10.00px"/>
<text data-id="83" x="516.43" y="-342.59">R83</text>
<circle data-id="84" cx="1013.21" cy="-1136.37" r="10.00px"/>
<text data-id="84" x="1013.21" y="-1136.37">R84</text>
<circle data-id="85" cx="755.44" cy="-469.67" r="10.00px"/>
<text data-id="85" x="755.44" y="-469.67">R85</text>
<circle data-id="86" cx="1203.99" cy="-1202.51" r="10.00px"/>
<text data-id="86" x="1203.99" y="-1202.51">R86</text>
<circle data-id="87" cx="814.26" cy="-1284.09" r="10.00px"/>
<text data-id="87" x="814.26" y="-1284.09">R87</text>
<circle data-id="88" cx="1529.45" cy="-1109.76" r="10.00px"/>
<text data-id="88" x="1529.45" y="-1109.76">R88</text>
<circle data-id="89" cx="34.15" cy="-885.57" r="10.00px"/>
<text data-id="89" x="34.15" y="-885.57">R89</text>
<circle data-id="90" cx="1141.97" cy="-1480.15" r="10.00px"/>
<text data-id="90" x="1141.97" y="-1480.15">R90</text>
<circle data-id="91" cx="272.12" cy="-513.08" r="10.00px"/>
<text data-id="91" x="272.12" y="-513.08">R91</text>
<circle data-id="92" cx="484.26" cy="-1236.37" r="10.00px"/>
<text data-id="92" x="484.26" y="-1236.37">R92</text>
<circle data-id="93" cx="767.75" cy="-1456.29" r="10.00px"/>
<text data-id="93" x="767.75" y="-1456.29">R93</text>
<circle data-id="94" cx="1070.99" cy="-375.20" r="10.00px"/>
<text data-id="94" x="1070.99" y="-375.20">R94</text>
<circle data-id="95" cx="961.79" cy="-720.44" r="10.00px"/>
<text data-id="95" x="961.79" y="-720.44">R95</text>
<circle data-id="96" cx="496.27" cy="-1021.55" r="10.00px"/>
<text data-id="96" x="496.27" y="-1021.55">R96</text>
<circle data-id="97" cx="1249.64" cy="-260.50" r="10.00px"/>
<text data-id="97" x="1249.64" y="-260.50">R97</text>
<circle data-id="98" cx="831.39" cy="-1452.85" r="10.00px"/>
<text data-id="98" x="831.39" y="-1452.85">R98</text>
<circle data-id="99" cx="6.93" cy="-1513.36" r="10.00px"/>
<text data-id="99" x="6.93" y="-1513.36">R99</text>
<circle data-id="100" cx="388.91" cy="-1557.62" r="10.00px"/>
<text data-id="100" x="388.91" y="-1557.62">R100</text>
<circle data-id="101" cx="741.63" cy="-1063.23" r="10.00px"/>
<text data-id="101" x="741.63" y="-1063.23">R101</text>
<circle data-id="102" cx="648.76" cy="-1044.58" r="10.00px"/>
<text data-id="102" x="648.76" y="-1044.58">R102</text>
<circle data-id="103" cx="783.35" cy="-800.96" r="10.00px"/>
<text data-id="103" x="783.35" y="-800.96">R103</text>
<circle data-id="104" cx="502.61" cy="-621.83" r="10.00px"/>
<text data-id="104" x="502.61" y="-621.83">R104</text>
<circle data-id="105" cx="359.38" cy="-207.60" r="10.00px"/>
<text data-id="105" x="359.38" y="-207.60">R105</text>
<circle data-id="106" cx="1072.52" cy="-829.33" r="10.00px"/>
<text data-id="106" x="1072.52" y="-829.33">R106</text>
<circle data-id="107" cx="580.47" cy="-1379.44" r="10.00px"/>
<text data-id="107" x="580.47" y="-1379.44">R107</text>
<circle data-id="108" cx="1036.81" cy="-25.09" r="10.00px"/>
<text data-id="108" x="1036.81" y="-25.09">R108</text>
<circle data-id="109" cx="1373.37" cy="-957.60" r="10.00px"/>
<text data-id="109" x="1373.37" y="-957.60">R109</text>
<circle data-id="110" cx="1124.64" cy="-206.11" r="10.00px"/>
<text data-id="110" x="1124.64" y="-206.11">R110</text>
<circle data-id="111" cx="767.28" cy="-284.66" r="10.00px"/>
<text data-id="111" x="767.28" y="-284.66">R111</text>
<circle data-id="112" cx="1071.53" cy="-488.72" r="10.00px"/>
<text data-id="112" x="1071.53" y="-488.72">R112</text>
<circle data-id="113" cx="241.36" cy="-792.45" r="10.00px"/>
<text data-id="113" x="241.36" y="-792.45">R113</text>
<circle data-id="114" cx="461.03" cy="-412.67" r="10.00px"/>
<text data-id="114" x="461.03" y="-412.67">R114</text>
<circle data-id="115" cx="437.96" cy="-1391.01" r="10.00px"/>
<text data-id="115" x="437.96" y="-1391.01">R115</text>
<circle data-id="116" cx="1218.32" cy="-1528.72" r="10.00px"/>
<text data-id="116" x="1218.32" y="-1528.72">R116</text>
<circle data-id="117" cx="554.59" cy="-761.37" r="10.00px"/>
<text data-id="117" x="554.59" y="-761.37">R117</text>
<circle data-id="118" cx="104.94" cy="-662.99" r="10.00px"/>
<text data-id="118" x="104.94" y="-662.99">R118</text>
<circle data-id="119" cx="1436.09" cy="-1111.30" r="10.00px"/>
<text data-id="119" x="1436.09" y="-1111.30">R119</text>
<circle data-id="120" cx="1409.21" cy="-1499.21" r="10.00px"/>
<text data-id="120" x="1409.21" y="-1499.21">R120</text>
<circle data-id="121" cx="1408.32" cy="-521.25" r="10.00px"/>
<text data-id="121" x="1408.32" y="-521.25">R121</text>
<circle data-id="122" cx="1269.34" cy="-1311.65" r="10.00px"/>
<text data-id="122" x="1269.34" y="-1311.65">R122</text>
<circle data-id="123" cx="1417.06" cy="-703.38" r="10.00px"/>
<text data-id="123" x="1417.06" y="-703.38">R123</text>
<circle data-id="124" cx="264.22" cy="-139.10" r="10.00px"/>
<text data-id="124" x="264.22" y="-139.10">R124</text>
<circle data-id="125" cx="288.18" cy="-854.31" r="10.00px"/>
<text data-id="125" x="288.18" y="-854.31">R125</text>
<circle data-id="126" cx="644.13" cy="-353.19" r="10.00px"/>
<text data-id="126" x="644.13" y="-353.19">R126</text>
<circle data-id="127" cx="64.95" cy="-482.32" r="10.00px"/>
<text data-id="127" x="64.95" y="-482.32">R127</text>
<circle data-id="128" cx="990.90" cy="-43.50" r="10.00px"/>
<text data-id="128" x="990.90" y="-43.50">R128</text>
<circle data-id="129" cx="442.50" cy="-484.39" r="10.00px"/>
<text data-id="129" x="442.50" y="-484.39">R129</text>
<circle data-id="130" cx="1154.18" cy="-139.47" r="10.00px"/>
<text data-id="130" x="1154.18" y="-139.47">R130</text>
<circle data-id="131" cx="978.63" cy="-536.43" r="10.00px"/>
<text data-id="131" x="978.63" y="-536.43">R131</text>
<circle data-id="132" cx="966.24" cy="-1370.93" r="10.00px"/>
<text data-id="132" x="966.24" y="-1370.93">R132</text>
<circle data-id="133" cx="1388.88" cy="-1006.94" r="10.00px"/>
<text data-id="133" x="1388.88" y="-1006.94">R133</text>
<circle data-id="134" cx="1152.91" cy="-636.75" r="10.00px"/>
<text data-id="134" x="1152.91" y="-636.75">R134</text>
<circle data-id="135" cx="624.25" cy="-957.21" r="10.00px"/>
<text data-id="135" x="624.25" y="-957.21">R135</text>
<circle data-id="136" cx="1012.18" cy="-610.43" r="10.00px"/>
<text data-id="136" x="1012.18" y="-610.43">R136</text>
<circle data-id="137" cx="906.48" cy="-1164.97" r="10.00px"/>
<text data-id="137" x="906.48" y="-1164.97">R137</text>
<circle data-id="138" cx="183.99" cy="-1557.72" r="10.00px"/>
<text data-id="138" x="183.99" y="-1557.72">R138</text>
<circle data-id="139" cx="642.66" cy="-439.69" r="10.00px"/>
<text data-id="139" x="642.66" y="-439.69">R139</text>
<circle data-id="140" cx="1451.17" cy="-803.34" r="10.00px"/>
<text data-id="140" x="1451.17" y="-803.34">R140</text>
<circle data-id="141" cx="599.82" cy="-8.47" r="10.00px"/>
<text data-id="141" x="599.82" y="-8.47">R141</text>
<circle data-id="142" cx="1005.90" cy="-1277.22" r="10.00px"/>
<text data-id="142" x="1005.90" y="-1277.22">R142</text>
<circle data-id="143" cx="976.21" cy="-235.00" r="10.00px"/>
<text data-id="143" x="976.21" y="-235.00">R143</text>
<circle data-id="144" cx="174.08" cy="-968.52" r="10.00px"/>
<text data-id="144" x="174.08" y="-968.52">R144</text>
<circle data-id="145" cx="1040.73" cy="-1129.26" r="10.00px"/>
<text data-id="145" x="1040.73" y="-1129.26">R145</text>
<circle data-id="146" cx="66.03" cy="-191.79" r="10.00px"/>
<text data-id="146" x="66.03" y="-191.79">R146</text>
<circle data-id="147" cx="663.46" cy="-1420.66" r="10.00px"/>
<text data-id="147" x="663.46" y="-1420.66">R147</text>
<circle data-id="148" cx="1105.54" cy="-802.86" r="10.00px"/>
<text data-id="148" x="1105.54" y="-802.86">R148</text>
<circle data-id="149" cx="1249.99" cy="-96.07" r="10.00px"/>
<text data-id="149" x="1249.99" y="-96.07">R149</text>
<circle data-id="150" cx="308.60" cy="-1368.61" r="10.00px"/>
<text data-id="150" x="308.60" y="-1368.61">R150</text>
<circle data-id="151" cx="978.69" cy="-1039.00" r="10.00px"/>
<text data-id="151" x="978.69" y="-1039.00">R151</text>
<circle data-id="152" cx="805.90" cy="-1416.92" r="10.00px"/>
<text data-id="152" x="805.90" y="-1416.92">R152</text>
<circle data-id="153" cx="399.98" cy="-1025.56" r="10.00px"/>
<text data-id="153" x="399.98" y="-1025.56">R153</text>
<circle data-id="154" cx="421.63" cy="-526.71" r="10.00px"/>
<text data-id="154" x="421.63" y="-526.71">R154</text>
<circle data-id="155" cx="793.21" cy="-1515.54" r="10.00px"/>
<text data-id="155" x="793.21" y="-1515.54">R155</text>
<circle data-id="156" cx="154.85" cy="-736.98" r="10.00px"/>
<text data-id="156" x="154.85" y="-736.98">R156</text>
<circle data-id="157" cx="412.43" cy="-212.82" r="10.00px"/>
<text data-id="157" x="412.43" y="-212.82">R157</text>
<circle data-id="158" cx="7.11" cy="-688.45" r="10.00px"/>
<text data-id="158" x="7.11" y="-688.45">R158</text>
<circle data-id="159" cx="916.97" cy="-1475.43" r="10.00px"/>
<text data-id="159" x="916.97" y="-1475.43">R159</text>
<circle data-id="160" cx="606.95" cy="-1145.64" r="10.00px"/>
<text data-id="160" x="606.95" y="-1145.64">R160</text>
<circle data-id="161" cx="1059.71" cy="-746.71" r="10.00px"/>
<text data-id="161" x="1059.71" y="-746.71">R161</text>
<circle data-id="162" cx="1342.03" cy="-621.49" r="10.00px"/>
<text data-id="162" x="1342.03" y="-621.49">R162</text>
<circle data-id="163" cx="1578.06" cy="-1520.50" r="10.00px"/>
<text data-id="163" x="1578.06" y="-1520.50">R163</text>
<circle data-id="164" cx="1488.33" cy="-1572.37" r="10.00px"/>
<text data-id="164" x="1488.33" y="-1572.37">R164</text>
<circle data-id="165" cx="1518.86" cy="-604.75" r="10.00px"/>
<text data-id="165" x="1518.86" y="-604.75">R165</text>
<circle data-id="166" cx="327.43" cy="-1016.31" r="10.00px"/>
<text data-id="166" x="327.43" y="-1016.31">R166</text>
<circle data-id="167" cx="1266.40" cy="-1203.44" r="10.00px"/>
<text data-id="167" x="1266.40" y="-1203.44">R167</text>
<circle data-id="168" cx="1477.75" cy="-1003.92" r="10.00px"/>
<text data-id="168" x="1477.75" y="-1003.92">R168</text>
<circle data-id="169" cx="926.80" cy="-98.92" r="10.00px"/>
<text data-id="169" x="926.80" y="-98.92">R169</text>
<circle data-id="170" cx="124.66" cy="-1393.78" r="10.00px"/>
<text data-id="170" x="124.66" y="-1393.78">R170</text>
<circle data-id="171" cx="852.29" cy="-560.64" r="10.00px"/>
<text data-id="171" x="852.29" y="-560.64">R171</text>
<circle data-id="172" cx="1221.50" cy="-1321.06" r="10.00px"/>
<text data-id="172" x="1221.50" y="-1321.06">R172</text>
<circle data-id="173" cx="407.45" cy="-99.41" r="10.00px"/>
<text data-id="173" x="407.45" y="-99.41">R173</text>
<circle data-id="174" cx="892.51" cy="-938.15" r="10.00px"/>
<text data-id="174" x="892.51" y="-938.15">R174</text>
<circle data-id="175" cx="1098.80" cy="-1048.48" r="10.00px"/>
<text data-id="175" x="1098.80" y="-1048.48">R175</text>
<circle data-id="176" cx="847.81" cy="-409.29" r="10.00px"/>
<text data-id="176" x="847.81" y="-409.29">R176</text>
<circle data-id="177" cx="584.08" cy="-211.45" r="10.00px"/>
<text data-id="177" x="584.08" y="-211.45">R177</text>
<circle data-id="178" cx="1155.80" cy="-474.50" r="10.00px"/>
<text data-id="178" x="1155.80" y="-474.50">R178</text>
<circle data-id="179" cx="1250.91" cy="-790.93" r="10.00px"/>
<text data-id="179" x="1250.91" y="-790.93">R179</text>
<circle data-id="180" cx="1348.76" cy="-1071.00" r="10.00px"/>
<text data-id="180" x="1348.76" y="-1071.00">R180</text>
<circle data-id="181" cx="943.32" cy="-346.22" r="10.00px"/>
<text data-id="181" x="943.32" y="-346.22">R181</text>
<circle data-id="182" cx="378.85" cy="-23.55" r="10.00px"/>
<text data-id="182" x="378.85" y="-23.55">R182</text>
<circle data-id="183" cx="819.51" cy="-364.44" r="10.00px"/>
<text data-id="183" x="819.51" y="-364.44">R183</text>
<circle data-id="184" cx="637.14" cy="-572.59" r="10.00px"/>
<text data-id="184" x="637.14" y="-572.59">R184</text>
<circle data-id="185" cx="189.75" cy="-556.69" r="10.00px"/>
<text data-id="185" x="189.75" y="-556.69">R185</text>
<circle data-id="186" cx="1260.39" cy="-1096.30" r="10.00px"/>
<text data-id="186" x="1260.39" y="-1096.30">R186</text>
<circle data-id="187" cx="204.89" cy="-921.19" r="10.00px"/>
<text data-id="187" x="204.89" y="-921.19">R187</text>
<circle data-id="188" cx="514.89" cy="-1147.88" r="10.00px"/>
<text data-id="188" x="514.89" y="-1147.88">R188</text>
<circle data-id="189" cx="1036.54" cy="-350.76" r="10.00px"/>
<text data-id="189" x="1036.54" y="-350.76">R189</text>
<circle data-id="190" cx="155.94" cy="-362.44" r="10.00px"/>
<text data-id="190" x="155.94" y="-362.44">R190</text>
<circle data-id="191" cx="1256.01" cy="-1065.38" r="10.00px"/>
<text data-id="191" x="1256.01" y="-1065.38">R191</text>
<circle data-id="192" cx="585.07" cy="-590.50" r="10.00px"/>
<text data-id="192" x="585.07" y="-590.50">R192</text>
<circle data-id="193" cx="256.04" cy="-12.52" r="10.00px"/>
<text data-id="193" x="256.04" y="-12.52">R193</text>
<circle data-id="194" cx="871.90" cy="-595.77" r="10.00px"/>
<text data-id="194" x="871.90" y="-595.77">R194</text>
<circle data-id="195" cx="427.01" cy="-665.48" r="10.00px"/>
<text data-id="195" x="427.01" y="-665.48">R195</text>
<circle data-id="196" cx="671.94" cy="-1580.56" r="10.00px"/>
<text data-id="196" x="671.94" y="-1580.56">R196</text>
<circle data-id="197" cx="860.14" cy="-62.14" r="10.00px"/>
<text data-id="197" x="860.14" y="-62.14">R197</text>
<circle data-id="198" cx="989.51" cy="-1123.74" r="10.00px"/>
<text data-id="198" x="989.51" y="-1123.74">R198</text>
<circle data-id="199" cx="1550.56" cy="-1561.58" r="10.00px"/>
<text data-id="199" x="1550.56" y="-1561.58">R199</text>
<circle data-id="200" cx="564.55" cy="-146.96" r="10.00px"/>
<text data-id="200" x="564.55" y="-146.96">R200</text>
<circle data-id="201" cx="1130.06" cy="-662.46" r="10.00px"/>
<text data-id="201" x="1130.06" y="-662.46">R201</text>
<circle data-id="202" cx="98.14" cy="-1249.74" r="10.00px"/>
<text data-id="202" x="98.14" y="-1249.74">R202</text>
<circle data-id="203" cx="666.80" cy="-1265.89" r="10.00px"/>
<text data-id="203" x="666.80" y="-1265.89">R203</text>
<circle data-id="204" cx="1161.78" cy="-738.89" r="10.00px"/>
<text data-id="204" x="1161.78" y="-738.89">R204</text>
<circle data-id="205" cx="218.77" cy="-500.73" r="10.00px"/>
<text data-id="205" x="218.77" y="-500.73">R205</text>
<circle data-id="206" cx="700.28" cy="-273.13" r="10.00px"/>
<text data-id="206" x="700.28" y="-273.13">R206</text>
<circle data-id="207" cx="625.52" cy="-104.80" r="10.00px"/>
<text data-id="207" x="625.52" y="-104.80">R207</text>
<circle data-id="208" cx="439.26" cy="-1525.37" r="10.00px"/>
<text data-id="208" x="439.26" y="-1525.37">R208</text>
<circle data-id="209" cx="219.75" cy="-434.53" r="10.00px"/>
<text data-id="209" x="219.75" y="-434.53">R209</text>
<circle data-id="210" cx="71.23" cy="-287.37" r="10.00px"/>
<text data-id="210" x="71.23" y="-287.37">R210</text>
<circle data-id="211" cx="348.71" cy="-1571.45" r="10.00px"/>
<text data-id="211" x="348.71" y="-1571.45">R211</text>
<circle data-id="212" cx="362.13" cy="-1186.86" r="10.00px"/>
<text data-id="212" x="362.13" y="-1186.86">R212</text>
<circle data-id="213" cx="248.12" cy="-1025.82" r="10.00px"/>
<text data-id="213" x="248.12" y="-1025.82">R213</text>
<circle data-id="214" cx="653.71" cy="-285.59" r="10.00px"/>
<text data-id="214" x="653.71" y="-285.59">R214</text>
<circle data-id="215" cx="850.48" cy="-1138.22" r="10.00px"/>
<text data-id="215" x="850.48" y="-1138.22">R215</text>
<circle data-id="216" cx="565.59" cy="-1151.79" r="10.00px"/>
<text data-id="216" x="565.59" y="-1151.79">R216</text>
<circle data-id="217" cx="285.09" cy="-736.42" r="10.00px"/>
<text data-id="217" x="285.09" y="-736.42">R217</text>
<circle data-id="218" cx="736.19" cy="-223.25" r="10.00px"/>
<text data-id="218" x="736.19" y="-223.25">R218</text>
<circle data-id="219" cx="1264.28" cy="-384.41" r="10.00px"/>
<text data-id="219" x="1264.28" y="-384.41">R219</text>
<circle data-id="220" cx="393.78" cy="-534.36" r="10.00px"/>
<text data-id="220" x="393.78" y="-534.36">R220</text>
<circle data-id="221" cx="1092.43" cy="-1399.73" r="10.00px"/>
<text data-id="221" x="1092.43" y="-1399.73">R221</text>
<circle data-id="222" cx="1359.56" cy="-1502.96" r="10.00px"/>
<text data-id="222" x="1359.56" y="-1502.96">R222</text>
<circle data-id="223" cx="1568.53" cy="-339.46" r="10.00px"/>
<text data-id="223" x="1568.53" y="-339.46">R223</text>
<circle data-id="224" cx="566.41" cy="-1560.03" r="10.00px"/>
<text data-id="224" x="566.41" y="-1560.03">R224</text>
<circle data-id="225" cx="1212.46" cy="-174.70" r="10.00px"/>
<text data-id="225" x="1212.46" y="-174.70">R225</text>
<circle data-id="226" cx="1430.90" cy="-856.40" r="10.00px"/>
<text data-id="226" x="1430.90" y="-856.40">R226</text>
<circle data-id="227" cx="1360.45" cy="-683.78" r="10.00px"/>
<text data-id="227" x="1360.45" y="-683.78">R227</text>
<circle data-id="228" cx="705.66" cy="-124.18" r="10.00px"/>
<text data-id="228" x="705.66" y="-124.18">R228</text>
<circle data-id="229" cx="850.91" cy="-324.21" r="10.00px"/>
<text data-id="229" x="850.91" y="-324.21">R229</text>
<circle data-id="230" cx="478.03" cy="-561.89" r="10.00px"/>
<text data-id="230" x="478.03" y="-561.89">R230</text>
<circle data-id="231" cx="247.21" cy="-391.64" r="10.00px"/>
<text data-id="231" x="247.21" y="-391.64">R231</text>
<circle data-id="232" cx="41.83" cy="-1041.74" r="10.00px"/>
<text data-id="232" x="41.83" y="-1041.74">R232</text>
<circle data-id="233" cx="1350.39" cy="-1552.08" r="10.00px"/>
<text data-id="233" x="1350.39" y="-1552.08">R233</text>
<circle data-id="234" cx="948.41" cy="-1246.37" r="10.00px"/>
<text data-id="234" x="948.41" y="-1246.37">R234</text>
<circle data-id="235" cx="153.58" cy="-1212.28" r="10.00px"/>
<text data-id="235" x="153.58" y="-1212.28">R235</text>
<circle data-id="236" cx="1274.98" cy="-458.23" r="10.00px"/>
<text data-id="236" x="1274.98" y="-458.23">R236</text>
<circle data-id="237" cx="497.83" cy="-436.62" r="10.00px"/>
<text data-id="237" x="497.83" y="-436.62">R237</text>
<circle data-id="238" cx="287.21" cy="-1430.57" r="10.00px"/>
<text data-id="238" x="287.21" y="-1430.57">R238</text>
<circle data-id="239" cx="1198.21" cy="-1140.27" r="10.00px"/>
<text data-id="239" x="1198.21" y="-1140.27">R239</text>
<circle data-id="240" cx="1409.07" cy="-363.01" r="10.00px"/>
<text data-id="240" x="1409.07" y="-363.01">R240</text>
<circle data-id="241" cx="707.42" cy="-319.44" r="10.00px"/>
<text data-id="241" x="707.42" y="-319.44">R241</text>
<circle data-id="242" cx="1439.19" cy="-683.92" r="10.00px"/>
<text data-id="242" x="1439.19" y="-683.92">R242</text>
<circle data-id="243" cx="461.59" cy="-439.51" r="10.00px"/>
<text data-id="243" x="461.59" y="-439.51">R243</text>
<circle data-id="244" cx="479.67" cy="-318.37" r="10.00px"/>
<text data-id="244" x="479.67" y="-318.37">R244</text>
<circle data-id="245" cx="802.53" cy="-299.78" r="10.00px"/>
<text data-id="245" x="802.53" y="-299.78">R245</text>
<circle data-id="246" cx="992.57" cy="-1570.76" r="10.00px"/>
<text data-id="246" x="992.57" y="-1570.76">R246</text>
<circle data-id="247" cx="267.93" cy="-1530.92" r="10.00px"/>
<text data-id="247" x="267.93" y="-1530.92">R247</text>
<circle data-id="248" cx="1079.60" cy="-1462.19" r="10.00px"/>
<text data-id="248" x="1079.60" y="-1462.19">R248</text>
<circle data-id="249" cx="134.13" cy="-1004.33" r="10.00px"/>
<text data-id="249" x="134.13" y="-1004.33">R249</text>
</svg>
