<svg width="1663.60" height="1666.78" viewBox="-40.58 -44.93 1663.60 1666.78" xmlns="http://www.w3.org/2000/svg">
<style>path {fill: none; stroke: grey; stroke-width: 6;} circle {fill: lightblue; stroke: none;} text {fill: black; stroke: none; font-size: 16; font-family: sans-serif; text-anchor:middle;}</style>
<path d="M640.89,778.63,654.82,801.28"/>
<path d="M640.89,778.63,733.94,694.57"/>
<path d="M640.89,778.63,570.48,741.65"/>
<path d="M392.58,369.13,334.61,394.68"/>
<path d="M392.58,369.13,343.21,319.69"/>
<path d="M392.58,369.13,408.99,427.95"/>
<path d="M392.58,369.13,488.13,272.58"/>
<path d="M1369.62,988.98,1346.29,843.66"/>
<path d="M1369.62,988.98,1413.95,975.08"/>
<path d="M1369.62,988.98,1278.32,886.58"/>
<path d="M1369.62,988.98,1355.86,1088.86"/>
<path d="M1369.62,988.98,1235.07,941.62"/>
<path d="M1561.45,1100.81,1554.37,985.99"/>
<path d="M1561.45,1100.81,1355.86,1088.86"/>
<path d="M1561.45,1100.81,1575.09,1336.15"/>
<path d="M1561.45,1100.81,1436.30,1226.65"/>
<path d="M1480.80,1435.82,1534.31,1443.69"/>
<path d="M1480.80,1435.82,1442.67,1430.56"/>
<path d="M1480.80,1435.82,1540.31,1368.18"/>
<path d="M280.66,77.26,195.08,68.23"/>
<path d="M280.66,77.26,255.45,118.92"/>
<path d="M280.66,77.26,497.73,94.62"/>
<path d="M334.61,394.68,302.57,383.10"/>
<path d="M334.61,394.68,343.21,319.69"/>
<path d="M334.61,394.68,408.99,427.95"/>
<path d="M334.61,394.68,359.17,472.40"/>
<path d="M302.57,383.10,256.31,405.59"/>
<path d="M302.57,383.10,343.21,319.69"/>
<path d="M302.57,383.10,243.98,379.02"/>
<path d="M725.28,795.10,838.96,856.65"/>
<path d="M725.28,795.10,749.86,888.13"/>
<path d="M725.28,795.10,680.91,816.45"/>
<path d="M725.28,795.10,733.94,694.57"/>
<path d="M1346.29,843.66,1371.38,826.51"/>
<path d="M1346.29,843.66,1313.50,830.44"/>
<path d="M1346.29,843.66,1413.95,975.08"/>
<path d="M1346.29,843.66,1335.97,784.06"/>
<path d="M932.01,1195.70,808.29,1101.50"/>
<path d="M932.01,1195.70,980.59,1219.74"/>
<path d="M932.01,1195.70,957.26,1066.20"/>
<path d="M932.01,1195.70,784.70,1143.89"/>
<path d="M932.01,1195.70,876.91,1051.13"/>
<path d="M568.50,589.34,583.74,546.02"/>
<path d="M568.50,589.34,434.10,603.69"/>
<path d="M568.50,589.34,554.07,652.01"/>
<path d="M851.03,114.42,1066.46,32.23"/>
<path d="M851.03,114.42,816.40,127.69"/>
<path d="M851.03,114.42,982.23,205.95"/>
<path d="M256.31,405.59,243.98,379.02"/>
<path d="M256.31,405.59,220.98,507.34"/>
<path d="M583.74,546.02,601.36,469.66"/>
<path d="M583.74,546.02,495.39,479.23"/>
<path d="M886.84,951.58,838.96,856.65"/>
<path d="M886.84,951.58,1022.47,866.83"/>
<path d="M886.84,951.58,737.14,1011.82"/>
<path d="M886.84,951.58,876.91,1051.13"/>
<path d="M1534.31,1443.69,1540.69,1471.59"/>
<path d="M1534.31,1443.69,1540.31,1368.18"/>
<path d="M52.91,1015.49,71.01,981.06"/>
<path d="M52.91,1015.49,4.42,1067.13"/>
<path d="M52.91,1015.49,142.63,1051.69"/>
<path d="M644.85,870.11,696.24,994.84"/>
<path d="M644.85,870.11,588.50,922.75"/>
<path d="M644.85,870.11,749.86,888.13"/>
<path d="M644.85,870.11,654.82,801.28"/>
<path d="M644.85,870.11,680.91,816.45"/>
<path d="M1142.89,1349.56,1151.76,1395.40"/>
<path d="M1142.89,1349.56,1240.61,1313.76"/>
<path d="M1142.89,1349.56,1024.97,1346.60"/>
<path d="M1142.89,1349.56,1128.40,1257.97"/>
<path d="M1279.25,1576.85,1147.79,1576.05"/>
<path d="M1279.25,1576.85,1315.75,1555.83"/>
<path d="M1279.25,1576.85,1297.97,1533.31"/>
<path d="M1292.66,135.25,1270.42,287.69"/>
<path d="M1292.66,135.25,1425.30,89.67"/>
<path d="M1292.66,135.25,1163.23,30.60"/>
<path d="M1292.66,135.25,1158.34,172.37"/>
<path d="M1046.70,351.90,1048.92,302.22"/>
<path d="M1046.70,351.90,954.85,306.22"/>
<path d="M1046.70,351.90,1093.38,448.64"/>
<path d="M1046.70,351.90,919.47,390.25"/>
<path d="M1046.70,351.90,1030.99,441.86"/>
<path d="M1046.70,351.90,1171.95,365.62"/>
<path d="M586.52,0.07,582.49,25.15"/>
<path d="M1151.76,1395.40,1298.95,1493.41"/>
<path d="M1151.76,1395.40,1043.45,1425.64"/>
<path d="M1151.76,1395.40,1065.49,1493.17"/>
<path d="M195.08,68.23,255.45,118.92"/>
<path d="M195.08,68.23,127.02,75.05"/>
<path d="M195.08,68.23,179.25,3.49"/>
<path d="M15.77,462.20,49.16,500.50"/>
<path d="M15.77,462.20,48.33,337.46"/>
<path d="M15.77,462.20,127.68,398.00"/>
<path d="M343.21,319.69,430.90,222.48"/>
<path d="M343.21,319.69,283.80,155.04"/>
<path d="M1429.74,661.49,1376.93,578.09"/>
<path d="M1429.74,661.49,1434.54,556.71"/>
<path d="M1429.74,661.49,1489.20,627.65"/>
<path d="M1429.74,661.49,1415.43,758.59"/>
<path d="M1429.74,661.49,1339.00,623.27"/>
<path d="M433.95,1451.59,513.89,1346.65"/>
<path d="M433.95,1451.59,384.59,1303.78"/>
<path d="M433.95,1451.59,578.17,1461.38"/>
<path d="M433.95,1451.59,320.30,1450.83"/>
<path d="M439.07,474.72,478.74,425.67"/>
<path d="M439.07,474.72,434.10,603.69"/>
<path d="M439.07,474.72,408.99,427.95"/>
<path d="M439.07,474.72,495.39,479.23"/>
<path d="M439.07,474.72,359.17,472.40"/>
<path d="M150.98,523.39,49.16,500.50"/>
<path d="M150.98,523.39,188.43,612.93"/>
<path d="M150.98,523.39,141.45,424.49"/>
<path d="M150.98,523.39,220.98,507.34"/>
<path d="M150.98,523.39,221.11,551.20"/>
<path d="M150.98,523.39,101.17,611.79"/>
<path d="M243.98,379.02,141.45,424.49"/>
<path d="M243.98,379.02,146.83,346.76"/>
<path d="M126.15,738.26,188.43,612.93"/>
<path d="M126.15,738.26,142.91,760.09"/>
<path d="M126.15,738.26,53.98,658.30"/>
<path d="M49.16,500.50,141.45,424.49"/>
<path d="M49.16,500.50,101.17,611.79"/>
<path d="M1371.38,826.51,1476.47,841.87"/>
<path d="M1371.38,826.51,1335.97,784.06"/>
<path d="M1371.38,826.51,1415.43,758.59"/>
<path d="M751.14,1418.50,656.52,1456.61"/>
<path d="M751.14,1418.50,858.73,1568.03"/>
<path d="M751.14,1418.50,720.18,1531.27"/>
<path d="M751.14,1418.50,814.40,1377.22"/>
<path d="M751.14,1418.50,724.72,1337.34"/>
<path d="M751.14,1418.50,646.62,1374.67"/>
<path d="M505.07,905.71,406.40,909.16"/>
<path d="M505.07,905.71,588.50,922.75"/>
<path d="M505.07,905.71,458.46,777.77"/>
<path d="M505.07,905.71,570.48,741.65"/>
<path d="M1067.37,1526.23,1147.79,1576.05"/>
<path d="M1067.37,1526.23,918.98,1523.36"/>
<path d="M1067.37,1526.23,1065.49,1493.17"/>
<path d="M1066.46,32.23,1093.03,50.49"/>
<path d="M289.09,1032.65,406.40,909.16"/>
<path d="M289.09,1032.65,269.24,1051.01"/>
<path d="M289.09,1032.65,243.26,841.09"/>
<path d="M656.52,1456.61,720.18,1531.27"/>
<path d="M656.52,1456.61,646.62,1374.67"/>
<path d="M656.52,1456.61,578.17,1461.38"/>
<path d="M656.52,1456.61,608.48,1523.77"/>
<path d="M478.74,425.67,540.58,369.52"/>
<path d="M478.74,425.67,408.99,427.95"/>
<path d="M478.74,425.67,495.39,479.23"/>
<path d="M1048.92,302.22,954.85,306.22"/>
<path d="M1048.92,302.22,1062.29,160.54"/>
<path d="M1048.92,302.22,982.23,205.95"/>
<path d="M1048.92,302.22,1158.34,172.37"/>
<path d="M1570.22,44.55,1540.86,168.79"/>
<path d="M1570.22,44.55,1464.71,111.22"/>
<path d="M1195.68,442.23,1093.38,448.64"/>
<path d="M1195.68,442.23,1318.20,549.28"/>
<path d="M1195.68,442.23,1247.64,369.22"/>
<path d="M1195.68,442.23,1171.95,365.62"/>
<path d="M1195.68,442.23,1118.99,654.78"/>
<path d="M1553.70,544.64,1559.36,508.78"/>
<path d="M1553.70,544.64,1489.20,627.65"/>
<path d="M1553.70,544.64,1507.48,526.21"/>
<path d="M1296.56,626.77,1318.20,549.28"/>
<path d="M1296.56,626.77,1250.09,708.81"/>
<path d="M1296.56,626.77,1339.00,623.27"/>
<path d="M176.79,1530.74,127.48,1444.97"/>
<path d="M176.79,1530.74,115.44,1526.51"/>
<path d="M176.79,1530.74,234.96,1509.43"/>
<path d="M986.27,1388.91,814.40,1377.22"/>
<path d="M986.27,1388.91,976.96,1437.74"/>
<path d="M986.27,1388.91,1024.97,1346.60"/>
<path d="M986.27,1388.91,1043.45,1425.64"/>
<path d="M1402.14,319.47,1488.10,237.37"/>
<path d="M1402.14,319.47,1513.04,314.71"/>
<path d="M1402.14,319.47,1270.42,287.69"/>
<path d="M1402.14,319.47,1338.13,420.44"/>
<path d="M1488.10,237.37,1513.04,314.71"/>
<path d="M1488.10,237.37,1540.86,168.79"/>
<path d="M1488.10,237.37,1464.71,111.22"/>
<path d="M434.10,603.69,554.07,652.01"/>
<path d="M434.10,603.69,327.71,567.93"/>
<path d="M434.10,603.69,495.39,479.23"/>
<path d="M434.10,603.69,458.46,777.77"/>
<path d="M434.10,603.69,309.25,778.91"/>
<path d="M196.85,1372.54,258.01,1443.00"/>
<path d="M196.85,1372.54,168.60,1376.38"/>
<path d="M196.85,1372.54,247.15,1258.62"/>
<path d="M1540.69,1471.59,1557.12,1499.42"/>
<path d="M1313.50,830.44,1278.32,886.58"/>
<path d="M1313.50,830.44,1285.63,825.74"/>
<path d="M1313.50,830.44,1335.97,784.06"/>
<path d="M155.41,1112.58,269.24,1051.01"/>
<path d="M155.41,1112.58,142.63,1051.69"/>
<path d="M155.41,1112.58,228.26,1209.86"/>
<path d="M155.41,1112.58,110.01,1283.71"/>
<path d="M155.41,1112.58,31.02,1107.16"/>
<path d="M858.73,1568.03,720.18,1531.27"/>
<path d="M858.73,1568.03,899.96,1540.55"/>
<path d="M1442.67,1430.56,1404.85,1465.38"/>
<path d="M1442.67,1430.56,1437.61,1349.52"/>
<path d="M855.64,382.37,865.15,478.92"/>
<path d="M855.64,382.37,770.08,304.42"/>
<path d="M855.64,382.37,926.58,271.47"/>
<path d="M855.64,382.37,919.47,390.25"/>
<path d="M855.64,382.37,807.26,404.29"/>
<path d="M1376.93,578.09,1434.54,556.71"/>
<path d="M1376.93,578.09,1405.74,531.22"/>
<path d="M1376.93,578.09,1318.20,549.28"/>
<path d="M1376.93,578.09,1339.00,623.27"/>
<path d="M1434.54,556.71,1405.74,531.22"/>
<path d="M1434.54,556.71,1489.20,627.65"/>
<path d="M1434.54,556.71,1507.48,526.21"/>
<path d="M188.43,612.93,299.27,604.62"/>
<path d="M188.43,612.93,221.11,551.20"/>
<path d="M188.43,612.93,101.17,611.79"/>
<path d="M188.43,612.93,231.59,701.87"/>
<path d="M1554.37,985.99,1413.95,975.08"/>
<path d="M1554.37,985.99,1510.80,903.47"/>
<path d="M1554.37,985.99,1578.02,923.05"/>
<path d="M522.95,1201.05,384.59,1303.78"/>
<path d="M522.95,1201.05,546.30,1212.83"/>
<path d="M522.95,1201.05,369.82,1278.22"/>
<path d="M954.85,306.22,926.58,271.47"/>
<path d="M954.85,306.22,919.47,390.25"/>
<path d="M1413.95,975.08,1510.80,903.47"/>
<path d="M141.45,424.49,220.98,507.34"/>
<path d="M141.45,424.49,127.68,398.00"/>
<path d="M714.63,280.60,770.08,304.42"/>
<path d="M714.63,280.60,593.35,235.36"/>
<path d="M714.63,280.60,791.13,224.33"/>
<path d="M714.63,280.60,675.38,137.88"/>
<path d="M714.63,280.60,566.58,358.94"/>
<path d="M1093.38,448.64,1030.99,441.86"/>
<path d="M1093.38,448.64,1171.95,365.62"/>
<path d="M48.33,337.46,121.74,227.33"/>
<path d="M48.33,337.46,146.83,346.76"/>
<path d="M48.33,337.46,127.68,398.00"/>
<path d="M372.38,863.84,406.40,909.16"/>
<path d="M372.38,863.84,348.45,841.74"/>
<path d="M372.38,863.84,390.94,814.32"/>
<path d="M1513.04,314.71,1566.05,387.09"/>
<path d="M540.58,369.52,601.36,469.66"/>
<path d="M540.58,369.52,513.14,286.83"/>
<path d="M540.58,369.52,566.58,358.94"/>
<path d="M299.27,604.62,327.71,567.93"/>
<path d="M299.27,604.62,221.11,551.20"/>
<path d="M299.27,604.62,231.59,701.87"/>
<path d="M513.89,1346.65,384.59,1303.78"/>
<path d="M513.89,1346.65,546.30,1212.83"/>
<path d="M513.89,1346.65,646.62,1374.67"/>
<path d="M513.89,1346.65,578.17,1461.38"/>
<path d="M146.16,966.42,71.01,981.06"/>
<path d="M146.16,966.42,66.56,954.30"/>
<path d="M146.16,966.42,269.24,1051.01"/>
<path d="M146.16,966.42,142.63,1051.69"/>
<path d="M146.16,966.42,243.26,841.09"/>
<path d="M865.15,478.92,738.05,487.88"/>
<path d="M865.15,478.92,847.88,581.50"/>
<path d="M865.15,478.92,920.43,481.36"/>
<path d="M865.15,478.92,807.26,404.29"/>
<path d="M121.74,227.33,146.83,346.76"/>
<path d="M121.74,227.33,255.45,118.92"/>
<path d="M121.74,227.33,127.02,75.05"/>
<path d="M121.74,227.33,283.80,155.04"/>
<path d="M720.18,1531.27,608.48,1523.77"/>
<path d="M408.99,427.95,359.17,472.40"/>
<path d="M902.06,660.10,894.63,606.81"/>
<path d="M902.06,660.10,883.09,687.39"/>
<path d="M902.06,660.10,1040.15,747.38"/>
<path d="M902.06,660.10,1011.66,591.67"/>
<path d="M146.83,346.76,127.68,398.00"/>
<path d="M1405.74,531.22,1338.13,420.44"/>
<path d="M808.29,1101.50,793.75,1070.61"/>
<path d="M808.29,1101.50,784.70,1143.89"/>
<path d="M808.29,1101.50,876.91,1051.13"/>
<path d="M816.40,127.69,822.51,160.90"/>
<path d="M816.40,127.69,700.53,90.24"/>
<path d="M770.08,304.42,926.58,271.47"/>
<path d="M770.08,304.42,791.13,224.33"/>
<path d="M770.08,304.42,807.26,404.29"/>
<path d="M71.01,981.06,66.56,954.30"/>
<path d="M71.01,981.06,142.63,1051.69"/>
<path d="M1404.85,1465.38,1315.75,1555.83"/>
<path d="M1404.85,1465.38,1386.82,1447.13"/>
<path d="M980.59,1219.74,968.27,1268.33"/>
<path d="M980.59,1219.74,1128.40,1257.97"/>
<path d="M980.59,1219.74,1061.77,1161.91"/>
<path d="M430.90,222.48,468.22,177.71"/>
<path d="M430.90,222.48,283.80,155.04"/>
<path d="M430.90,222.48,488.13,272.58"/>
<path d="M255.45,118.92,283.80,155.04"/>
<path d="M24.41,1463.29,22.58,1509.40"/>
<path d="M24.41,1463.29,127.48,1444.97"/>
<path d="M24.41,1463.29,77.63,1321.01"/>
<path d="M1270.42,287.69,1247.64,369.22"/>
<path d="M1270.42,287.69,1158.34,172.37"/>
<path d="M554.07,652.01,733.94,694.57"/>
<path d="M554.07,652.01,570.48,741.65"/>
<path d="M468.22,177.71,497.73,94.62"/>
<path d="M468.22,177.71,593.35,235.36"/>
<path d="M601.36,469.66,495.39,479.23"/>
<path d="M601.36,469.66,738.05,487.88"/>
<path d="M601.36,469.66,566.58,358.94"/>
<path d="M1510.80,903.47,1514.77,860.84"/>
<path d="M1510.80,903.47,1578.02,923.05"/>
<path d="M1278.32,886.58,1285.63,825.74"/>
<path d="M1278.32,886.58,1245.10,862.36"/>
<path d="M1278.32,886.58,1235.07,941.62"/>
<path d="M1540.31,1368.18,1575.09,1336.15"/>
<path d="M1540.31,1368.18,1437.61,1349.52"/>
<path d="M127.02,75.05,179.25,3.49"/>
<path d="M127.02,75.05,6.56,60.76"/>
<path d="M1286.31,1229.53,1355.86,1088.86"/>
<path d="M1286.31,1229.53,1312.38,1252.48"/>
<path d="M1286.31,1229.53,1263.25,1289.78"/>
<path d="M1286.31,1229.53,1170.05,998.20"/>
<path d="M327.71,567.93,359.17,472.40"/>
<path d="M1355.86,1088.86,1170.05,998.20"/>
<path d="M1355.86,1088.86,1436.30,1226.65"/>
<path d="M1312.38,1252.48,1263.25,1289.78"/>
<path d="M1312.38,1252.48,1437.61,1349.52"/>
<path d="M1312.38,1252.48,1436.30,1226.65"/>
<path d="M957.26,1066.20,1031.65,1021.21"/>
<path d="M957.26,1066.20,1061.90,1076.45"/>
<path d="M957.26,1066.20,876.91,1051.13"/>
<path d="M1315.75,1555.83,1297.97,1533.31"/>
<path d="M258.01,1443.00,127.48,1444.97"/>
<path d="M258.01,1443.00,320.30,1450.83"/>
<path d="M258.01,1443.00,234.96,1509.43"/>
<path d="M1514.77,860.84,1476.47,841.87"/>
<path d="M1514.77,860.84,1490.63,820.64"/>
<path d="M142.91,760.09,66.56,954.30"/>
<path d="M142.91,760.09,243.26,841.09"/>
<path d="M142.91,760.09,231.59,701.87"/>
<path d="M168.60,1376.38,127.48,1444.97"/>
<path d="M168.60,1376.38,110.01,1283.71"/>
<path d="M168.60,1376.38,77.63,1321.01"/>
<path d="M22.58,1509.40,76.50,1557.85"/>
<path d="M384.59,1303.78,369.82,1278.22"/>
<path d="M384.59,1303.78,320.30,1450.83"/>
<path d="M546.30,1212.83,590.27,1134.36"/>
<path d="M546.30,1212.83,646.62,1374.67"/>
<path d="M696.24,994.84,585.84,986.03"/>
<path d="M696.24,994.84,749.86,888.13"/>
<path d="M696.24,994.84,737.14,1011.82"/>
<path d="M696.24,994.84,660.82,1138.15"/>
<path d="M814.40,1377.22,918.98,1523.36"/>
<path d="M814.40,1377.22,976.96,1437.74"/>
<path d="M814.40,1377.22,968.27,1268.33"/>
<path d="M814.40,1377.22,724.72,1337.34"/>
<path d="M1263.25,1289.78,1240.61,1313.76"/>
<path d="M1263.25,1289.78,1386.82,1447.13"/>
<path d="M1575.09,1336.15,1436.30,1226.65"/>
<path d="M1559.36,508.78,1557.08,427.68"/>
<path d="M1559.36,508.78,1507.48,526.21"/>
<path d="M838.96,856.65,883.09,687.39"/>
<path d="M838.96,856.65,1022.47,866.83"/>
<path d="M838.96,856.65,749.86,888.13"/>
<path d="M838.96,856.65,1004.55,802.70"/>
<path d="M497.73,94.62,527.25,42.07"/>
<path d="M497.73,94.62,558.86,75.28"/>
<path d="M926.58,271.47,924.02,239.88"/>
<path d="M1285.63,825.74,1245.10,862.36"/>
<path d="M1285.63,825.74,1250.09,708.81"/>
<path d="M894.63,606.81,847.88,581.50"/>
<path d="M894.63,606.81,920.43,481.36"/>
<path d="M894.63,606.81,1011.66,591.67"/>
<path d="M1425.30,89.67,1464.71,111.22"/>
<path d="M1437.61,1349.52,1436.30,1226.65"/>
<path d="M527.25,42.07,582.49,25.15"/>
<path d="M527.25,42.07,558.86,75.28"/>
<path d="M918.98,1523.36,976.96,1437.74"/>
<path d="M918.98,1523.36,899.96,1540.55"/>
<path d="M1240.61,1313.76,1298.95,1493.41"/>
<path d="M1240.61,1313.76,1386.82,1447.13"/>
<path d="M1240.61,1313.76,1128.40,1257.97"/>
<path d="M555.85,1033.87,590.27,1134.36"/>
<path d="M555.85,1033.87,585.84,986.03"/>
<path d="M369.82,1278.22,324.23,1227.41"/>
<path d="M4.42,1067.13,31.02,1107.16"/>
<path d="M976.96,1437.74,1043.45,1425.64"/>
<path d="M1338.13,420.44,1318.20,549.28"/>
<path d="M1338.13,420.44,1247.64,369.22"/>
<path d="M1338.13,420.44,1557.08,427.68"/>
<path d="M127.48,1444.97,115.44,1526.51"/>
<path d="M590.27,1134.36,660.82,1138.15"/>
<path d="M738.05,487.88,847.88,581.50"/>
<path d="M738.05,487.88,733.94,694.57"/>
<path d="M738.05,487.88,807.26,404.29"/>
<path d="M585.84,986.03,588.50,922.75"/>
<path d="M593.35,235.36,513.14,286.83"/>
<path d="M593.35,235.36,675.38,137.88"/>
<path d="M593.35,235.36,566.58,358.94"/>
<path d="M593.35,235.36,558.86,75.28"/>
<path d="M791.13,224.33,924.02,239.88"/>
<path d="M791.13,224.33,822.51,160.90"/>
<path d="M791.13,224.33,675.38,137.88"/>
<path d="M1245.10,862.36,1162.30,789.43"/>
<path d="M1245.10,862.36,1235.07,941.62"/>
<path d="M883.09,687.39,1004.55,802.70"/>
<path d="M883.09,687.39,733.94,694.57"/>
<path d="M115.44,1526.51,76.50,1557.85"/>
<path d="M1162.30,789.43,1022.47,866.83"/>
<path d="M1162.30,789.43,1250.09,708.81"/>
<path d="M1162.30,789.43,1040.15,747.38"/>
<path d="M1162.30,789.43,1118.99,654.78"/>
<path d="M348.45,841.74,390.94,814.32"/>
<path d="M348.45,841.74,243.26,841.09"/>
<path d="M348.45,841.74,309.25,778.91"/>
<path d="M1544.53,1570.04,1557.12,1499.42"/>
<path d="M847.88,581.50,733.94,694.57"/>
<path d="M968.27,1268.33,1024.97,1346.60"/>
<path d="M968.27,1268.33,1128.40,1257.97"/>
<path d="M924.02,239.88,822.51,160.90"/>
<path d="M924.02,239.88,982.23,205.95"/>
<path d="M1022.47,866.83,1031.65,1021.21"/>
<path d="M1022.47,866.83,1004.55,802.70"/>
<path d="M1022.47,866.83,1170.05,998.20"/>
<path d="M1489.20,627.65,1507.48,526.21"/>
<path d="M19.43,946.10,66.56,954.30"/>
<path d="M1298.95,1493.41,1386.82,1447.13"/>
<path d="M1298.95,1493.41,1297.97,1533.31"/>
<path d="M16.79,1205.85,110.01,1283.71"/>
<path d="M16.79,1205.85,31.02,1107.16"/>
<path d="M16.79,1205.85,77.63,1321.01"/>
<path d="M1318.20,549.28,1339.00,623.27"/>
<path d="M724.72,1337.34,784.70,1143.89"/>
<path d="M724.72,1337.34,646.62,1374.67"/>
<path d="M724.72,1337.34,660.82,1138.15"/>
<path d="M1476.47,841.87,1490.63,820.64"/>
<path d="M793.75,1070.61,737.14,1011.82"/>
<path d="M793.75,1070.61,876.91,1051.13"/>
<path d="M1031.65,1021.21,1061.90,1076.45"/>
<path d="M1031.65,1021.21,1170.05,998.20"/>
<path d="M1024.97,1346.60,1128.40,1257.97"/>
<path d="M1024.97,1346.60,1043.45,1425.64"/>
<path d="M1235.07,941.62,1170.05,998.20"/>
<path d="M488.13,272.58,513.14,286.83"/>
<path d="M1128.40,1257.97,1061.77,1161.91"/>
<path d="M513.14,286.83,566.58,358.94"/>
<path d="M1043.45,1425.64,1065.49,1493.17"/>
<path d="M269.24,1051.01,142.63,1051.69"/>
<path d="M269.24,1051.01,228.26,1209.86"/>
<path d="M269.24,1051.01,324.23,1227.41"/>
<path d="M1250.09,708.81,1335.97,784.06"/>
<path d="M1250.09,708.81,1118.99,654.78"/>
<path d="M784.70,1143.89,660.82,1138.15"/>
<path d="M1335.97,784.06,1415.43,758.59"/>
<path d="M1335.97,784.06,1339.00,623.27"/>
<path d="M749.86,888.13,680.91,816.45"/>
<path d="M749.86,888.13,737.14,1011.82"/>
<path d="M1062.29,160.54,982.23,205.95"/>
<path d="M1062.29,160.54,1158.34,172.37"/>
<path d="M1062.29,160.54,1093.03,50.49"/>
<path d="M654.82,801.28,680.91,816.45"/>
<path d="M220.98,507.34,221.11,551.20"/>
<path d="M220.98,507.34,359.17,472.40"/>
<path d="M1415.43,758.59,1490.63,820.64"/>
<path d="M1040.15,747.38,1004.55,802.70"/>
<path d="M1040.15,747.38,1011.66,591.67"/>
<path d="M1040.15,747.38,1118.99,654.78"/>
<path d="M646.62,1374.67,578.17,1461.38"/>
<path d="M142.63,1051.69,31.02,1107.16"/>
<path d="M919.47,390.25,933.48,456.37"/>
<path d="M1061.90,1076.45,1170.05,998.20"/>
<path d="M1061.90,1076.45,1061.77,1161.91"/>
<path d="M1247.64,369.22,1171.95,365.62"/>
<path d="M228.26,1209.86,110.01,1283.71"/>
<path d="M228.26,1209.86,247.15,1258.62"/>
<path d="M228.26,1209.86,324.23,1227.41"/>
<path d="M700.53,90.24,582.49,25.15"/>
<path d="M700.53,90.24,675.38,137.88"/>
<path d="M700.53,90.24,558.86,75.28"/>
<path d="M390.94,814.32,458.46,777.77"/>
<path d="M390.94,814.32,309.25,778.91"/>
<path d="M243.26,841.09,309.25,778.91"/>
<path d="M243.26,841.09,231.59,701.87"/>
<path d="M578.17,1461.38,608.48,1523.77"/>
<path d="M110.01,1283.71,247.15,1258.62"/>
<path d="M110.01,1283.71,77.63,1321.01"/>
<path d="M737.14,1011.82,660.82,1138.15"/>
<path d="M1030.99,441.86,1018.84,504.43"/>
<path d="M1030.99,441.86,933.48,456.37"/>
<path d="M1557.08,427.68,1566.05,387.09"/>
<path d="M582.49,25.15,558.86,75.28"/>
<path d="M1540.86,168.79,1464.71,111.22"/>
<path d="M675.38,137.88,558.86,75.28"/>
<path d="M920.43,481.36,1018.84,504.43"/>
<path d="M920.43,481.36,933.48,456.37"/>
<path d="M1163.23,30.60,1158.34,172.37"/>
<path d="M1163.23,30.60,1093.03,50.49"/>
<path d="M458.46,777.77,570.48,741.65"/>
<path d="M1171.95,365.62,1158.34,172.37"/>
<path d="M1011.66,591.67,1018.84,504.43"/>
<path d="M1011.66,591.67,1118.99,654.78"/>
<path d="M1158.34,172.37,1093.03,50.49"/>
<path d="M1018.84,504.43,933.48,456.37"/>
<path d="M309.25,778.91,231.59,701.87"/>
<path d="M101.17,611.79,53.98,658.30"/>
<path d="M247.15,1258.62,324.23,1227.41"/>
<circle cx="640.89" cy="778.63" r="10"/>
<text x="640.89" y="783.63">R0</text>
<circle cx="392.58" cy="369.13" r="10"/>
<text x="392.58" y="374.13">R1</text>
<circle cx="1369.62" cy="988.98" r="10"/>
<text x="1369.62" y="993.98">R2</text>
<circle cx="1561.45" cy="1100.81" r="10"/>
<text x="1561.45" y="1105.81">R3</text>
<circle cx="1480.80" cy="1435.82" r="10"/>
<text x="1480.80" y="1440.82">R4</text>
<circle cx="280.66" cy="77.26" r="10"/>
<text x="280.66" y="82.26">R5</text>
<circle cx="334.61" cy="394.68" r="10"/>
<text x="334.61" y="399.68">R6</text>
<circle cx="302.57" cy="383.10" r="10"/>
<text x="302.57" y="388.10">R7</text>
<circle cx="725.28" cy="795.10" r="10"/>
<text x="725.28" y="800.10">R8</text>
<circle cx="1346.29" cy="843.66" r="10"/>
<text x="1346.29" y="848.66">R9</text>
<circle cx="932.01" cy="1195.70" r="10"/>
<text x="932.01" y="1200.70">R10</text>
<circle cx="568.50" cy="589.34" r="10"/>
<text x="568.50" y="594.34">R11</text>
<circle cx="851.03" cy="114.42" r="10"/>
<text x="851.03" y="119.42">R12</text>
<circle cx="256.31" cy="405.59" r="10"/>
<text x="256.31" y="410.59">R13</text>
<circle cx="583.74" cy="546.02" r="10"/>
<text x="583.74" y="551.02">R14</text>
<circle cx="886.84" cy="951.58" r="10"/>
<text x="886.84" y="956.58">R15</text>
<circle cx="1534.31" cy="1443.69" r="10"/>
<text x="1534.31" y="1448.69">R16</text>
<circle cx="52.91" cy="1015.49" r="10"/>
<text x="52.91" y="1020.49">R17</text>
<circle cx="644.85" cy="870.11" r="10"/>
<text x="644.85" y="875.11">R18</text>
<circle cx="1142.89" cy="1349.56" r="10"/>
<text x="1142.89" y="1354.56">R19</text>
<circle cx="1279.25" cy="1576.85" r="10"/>
<text x="1279.25" y="1581.85">R20</text>
<circle cx="1292.66" cy="135.25" r="10"/>
<text x="1292.66" y="140.25">R21</text>
<circle cx="1046.70" cy="351.90" r="10"/>
<text x="1046.70" y="356.90">R22</text>
<circle cx="586.52" cy="0.07" r="10"/>
<text x="586.52" y="5.07">R23</text>
<circle cx="1151.76" cy="1395.40" r="10"/>
<text x="1151.76" y="1400.40">R24</text>
<circle cx="195.08" cy="68.23" r="10"/>
<text x="195.08" y="73.23">R25</text>
<circle cx="15.77" cy="462.20" r="10"/>
<text x="15.77" y="467.20">R26</text>
<circle cx="343.21" cy="319.69" r="10"/>
<text x="343.21" y="324.69">R27</text>
<circle cx="1429.74" cy="661.49" r="10"/>
<text x="1429.74" y="666.49">R28</text>
<circle cx="433.95" cy="1451.59" r="10"/>
<text x="433.95" y="1456.59">R29</text>
<circle cx="439.07" cy="474.72" r="10"/>
<text x="439.07" y="479.72">R30</text>
<circle cx="150.98" cy="523.39" r="10"/>
<text x="150.98" y="528.39">R31</text>
<circle cx="243.98" cy="379.02" r="10"/>
<text x="243.98" y="384.02">R32</text>
<circle cx="126.15" cy="738.26" r="10"/>
<text x="126.15" y="743.26">R33</text>
<circle cx="49.16" cy="500.50" r="10"/>
<text x="49.16" y="505.50">R34</text>
<circle cx="1371.38" cy="826.51" r="10"/>
<text x="1371.38" y="831.51">R35</text>
<circle cx="751.14" cy="1418.50" r="10"/>
<text x="751.14" y="1423.50">R36</text>
<circle cx="505.07" cy="905.71" r="10"/>
<text x="505.07" y="910.71">R37</text>
<circle cx="1067.37" cy="1526.23" r="10"/>
<text x="1067.37" y="1531.23">R38</text>
<circle cx="1066.46" cy="32.23" r="10"/>
<text x="1066.46" y="37.23">R39</text>
<circle cx="289.09" cy="1032.65" r="10"/>
<text x="289.09" y="1037.65">R40</text>
<circle cx="656.52" cy="1456.61" r="10"/>
<text x="656.52" y="1461.61">R41</text>
<circle cx="478.74" cy="425.67" r="10"/>
<text x="478.74" y="430.67">R42</text>
<circle cx="1048.92" cy="302.22" r="10"/>
<text x="1048.92" y="307.22">R43</text>
<circle cx="1570.22" cy="44.55" r="10"/>
<text x="1570.22" y="49.55">R44</text>
<circle cx="1195.68" cy="442.23" r="10"/>
<text x="1195.68" y="447.23">R45</text>
<circle cx="1553.70" cy="544.64" r="10"/>
<text x="1553.70" y="549.64">R46</text>
<circle cx="1296.56" cy="626.77" r="10"/>
<text x="1296.56" y="631.77">R47</text>
<circle cx="176.79" cy="1530.74" r="10"/>
<text x="176.79" y="1535.74">R48</text>
<circle cx="986.27" cy="1388.91" r="10"/>
<text x="986.27" y="1393.91">R49</text>
<circle cx="1402.14" cy="319.47" r="10"/>
<text x="1402.14" y="324.47">R50</text>
<circle cx="1488.10" cy="237.37" r="10"/>
<text x="1488.10" y="242.37">R51</text>
<circle cx="434.10" cy="603.69" r="10"/>
<text x="434.10" y="608.69">R52</text>
<circle cx="196.85" cy="1372.54" r="10"/>
<text x="196.85" y="1377.54">R53</text>
<circle cx="1540.69" cy="1471.59" r="10"/>
<text x="1540.69" y="1476.59">R54</text>
<circle cx="1313.50" cy="830.44" r="10"/>
<text x="1313.50" y="835.44">R55</text>
<circle cx="155.41" cy="1112.58" r="10"/>
<text x="155.41" y="1117.58">R56</text>
<circle cx="858.73" cy="1568.03" r="10"/>
<text x="858.73" y="1573.03">R57</text>
<circle cx="1442.67" cy="1430.56" r="10"/>
<text x="1442.67" y="1435.56">R58</text>
<circle cx="855.64" cy="382.37" r="10"/>
<text x="855.64" y="387.37">R59</text>
<circle cx="1376.93" cy="578.09" r="10"/>
<text x="1376.93" y="583.09">R60</text>
<circle cx="1434.54" cy="556.71" r="10"/>
<text x="1434.54" y="561.71">R61</text>
<circle cx="188.43" cy="612.93" r="10"/>
<text x="188.43" y="617.93">R62</text>
<circle cx="1554.37" cy="985.99" r="10"/>
<text x="1554.37" y="990.99">R63</text>
<circle cx="522.95" cy="1201.05" r="10"/>
<text x="522.95" y="1206.05">R64</text>
<circle cx="954.85" cy="306.22" r="10"/>
<text x="954.85" y="311.22">R65</text>
<circle cx="1413.95" cy="975.08" r="10"/>
<text x="1413.95" y="980.08">R66</text>
<circle cx="141.45" cy="424.49" r="10"/>
<text x="141.45" y="429.49">R67</text>
<circle cx="714.63" cy="280.60" r="10"/>
<text x="714.63" y="285.60">R68</text>
<circle cx="1093.38" cy="448.64" r="10"/>
<text x="1093.38" y="453.64">R69</text>
<circle cx="48.33" cy="337.46" r="10"/>
<text x="48.33" y="342.46">R70</text>
<circle cx="372.38" cy="863.84" r="10"/>
<text x="372.38" y="868.84">R71</text>
<circle cx="1513.04" cy="314.71" r="10"/>
<text x="1513.04" y="319.71">R72</text>
<circle cx="540.58" cy="369.52" r="10"/>
<text x="540.58" y="374.52">R73</text>
<circle cx="299.27" cy="604.62" r="10"/>
<text x="299.27" y="609.62">R74</text>
<circle cx="513.89" cy="1346.65" r="10"/>
<text x="513.89" y="1351.65">R75</text>
<circle cx="146.16" cy="966.42" r="10"/>
<text x="146.16" y="971.42">R76</text>
<circle cx="865.15" cy="478.92" r="10"/>
<text x="865.15" y="483.92">R77</text>
<circle cx="121.74" cy="227.33" r="10"/>
<text x="121.74" y="232.33">R78</text>
<circle cx="720.18" cy="1531.27" r="10"/>
<text x="720.18" y="1536.27">R79</text>
<circle cx="408.99" cy="427.95" r="10"/>
<text x="408.99" y="432.95">R80</text>
<circle cx="902.06" cy="660.10" r="10"/>
<text x="902.06" y="665.10">R81</text>
<circle cx="146.83" cy="346.76" r="10"/>
<text x="146.83" y="351.76">R82</text>
<circle cx="1405.74" cy="531.22" r="10"/>
<text x="1405.74" y="536.22">R83</text>
<circle cx="808.29" cy="1101.50" r="10"/>
<text x="808.29" y="1106.50">R84</text>
<circle cx="816.40" cy="127.69" r="10"/>
<text x="816.40" y="132.69">R85</text>
<circle cx="770.08" cy="304.42" r="10"/>
<text x="770.08" y="309.42">R86</text>
<circle cx="71.01" cy="981.06" r="10"/>
<text x="71.01" y="986.06">R87</text>
<circle cx="1404.85" cy="1465.38" r="10"/>
<text x="1404.85" y="1470.38">R88</text>
<circle cx="980.59" cy="1219.74" r="10"/>
<text x="980.59" y="1224.74">R89</text>
<circle cx="430.90" cy="222.48" r="10"/>
<text x="430.90" y="227.48">R90</text>
<circle cx="255.45" cy="118.92" r="10"/>
<text x="255.45" y="123.92">R91</text>
<circle cx="24.41" cy="1463.29" r="10"/>
<text x="24.41" y="1468.29">R92</text>
<circle cx="1270.42" cy="287.69" r="10"/>
<text x="1270.42" y="292.69">R93</text>
<circle cx="554.07" cy="652.01" r="10"/>
<text x="554.07" y="657.01">R94</text>
<circle cx="468.22" cy="177.71" r="10"/>
<text x="468.22" y="182.71">R95</text>
<circle cx="1147.79" cy="1576.05" r="10"/>
<text x="1147.79" y="1581.05">R96</text>
<circle cx="601.36" cy="469.66" r="10"/>
<text x="601.36" y="474.66">R97</text>
<circle cx="406.40" cy="909.16" r="10"/>
<text x="406.40" y="914.16">R98</text>
<circle cx="1510.80" cy="903.47" r="10"/>
<text x="1510.80" y="908.47">R99</text>
<circle cx="1278.32" cy="886.58" r="10"/>
<text x="1278.32" y="891.58">R100</text>
<circle cx="1540.31" cy="1368.18" r="10"/>
<text x="1540.31" y="1373.18">R101</text>
<circle cx="127.02" cy="75.05" r="10"/>
<text x="127.02" y="80.05">R102</text>
<circle cx="1286.31" cy="1229.53" r="10"/>
<text x="1286.31" y="1234.53">R103</text>
<circle cx="327.71" cy="567.93" r="10"/>
<text x="327.71" y="572.93">R104</text>
<circle cx="1355.86" cy="1088.86" r="10"/>
<text x="1355.86" y="1093.86">R105</text>
<circle cx="1312.38" cy="1252.48" r="10"/>
<text x="1312.38" y="1257.48">R106</text>
<circle cx="957.26" cy="1066.20" r="10"/>
<text x="957.26" y="1071.20">R107</text>
<circle cx="1315.75" cy="1555.83" r="10"/>
<text x="1315.75" y="1560.83">R108</text>
<circle cx="258.01" cy="1443.00" r="10"/>
<text x="258.01" y="1448.00">R109</text>
<circle cx="1514.77" cy="860.84" r="10"/>
<text x="1514.77" y="865.84">R110</text>
<circle cx="142.91" cy="760.09" r="10"/>
<text x="142.91" y="765.09">R111</text>
<circle cx="168.60" cy="1376.38" r="10"/>
<text x="168.60" y="1381.38">R112</text>
<circle cx="22.58" cy="1509.40" r="10"/>
<text x="22.58" y="1514.40">R113</text>
<circle cx="384.59" cy="1303.78" r="10"/>
<text x="384.59" y="1308.78">R114</text>
<circle cx="546.30" cy="1212.83" r="10"/>
<text x="546.30" y="1217.83">R115</text>
<circle cx="696.24" cy="994.84" r="10"/>
<text x="696.24" y="999.84">R116</text>
<circle cx="814.40" cy="1377.22" r="10"/>
<text x="814.40" y="1382.22">R117</text>
<circle cx="1263.25" cy="1289.78" r="10"/>
<text x="1263.25" y="1294.78">R118</text>
<circle cx="1575.09" cy="1336.15" r="10"/>
<text x="1575.09" y="1341.15">R119</text>
<circle cx="1559.36" cy="508.78" r="10"/>
<text x="1559.36" y="513.78">R120</text>
<circle cx="838.96" cy="856.65" r="10"/>
<text x="838.96" y="861.65">R121</text>
<circle cx="497.73" cy="94.62" r="10"/>
<text x="497.73" y="99.62">R122</text>
<circle cx="926.58" cy="271.47" r="10"/>
<text x="926.58" y="276.47">R123</text>
<circle cx="1285.63" cy="825.74" r="10"/>
<text x="1285.63" y="830.74">R124</text>
<circle cx="894.63" cy="606.81" r="10"/>
<text x="894.63" y="611.81">R125</text>
<circle cx="495.39" cy="479.23" r="10"/>
<text x="495.39" y="484.23">R126</text>
<circle cx="1425.30" cy="89.67" r="10"/>
<text x="1425.30" y="94.67">R127</text>
<circle cx="1437.61" cy="1349.52" r="10"/>
<text x="1437.61" y="1354.52">R128</text>
<circle cx="527.25" cy="42.07" r="10"/>
<text x="527.25" y="47.07">R129</text>
<circle cx="918.98" cy="1523.36" r="10"/>
<text x="918.98" y="1528.36">R130</text>
<circle cx="1240.61" cy="1313.76" r="10"/>
<text x="1240.61" y="1318.76">R131</text>
<circle cx="555.85" cy="1033.87" r="10"/>
<text x="555.85" y="1038.87">R132</text>
<circle cx="369.82" cy="1278.22" r="10"/>
<text x="369.82" y="1283.22">R133</text>
<circle cx="4.42" cy="1067.13" r="10"/>
<text x="4.42" y="1072.13">R134</text>
<circle cx="976.96" cy="1437.74" r="10"/>
<text x="976.96" y="1442.74">R135</text>
<circle cx="1338.13" cy="420.44" r="10"/>
<text x="1338.13" y="425.44">R136</text>
<circle cx="127.48" cy="1444.97" r="10"/>
<text x="127.48" y="1449.97">R137</text>
<circle cx="590.27" cy="1134.36" r="10"/>
<text x="590.27" y="1139.36">R138</text>
<circle cx="738.05" cy="487.88" r="10"/>
<text x="738.05" y="492.88">R139</text>
<circle cx="585.84" cy="986.03" r="10"/>
<text x="585.84" y="991.03">R140</text>
<circle cx="593.35" cy="235.36" r="10"/>
<text x="593.35" y="240.36">R141</text>
<circle cx="791.13" cy="224.33" r="10"/>
<text x="791.13" y="229.33">R142</text>
<circle cx="1245.10" cy="862.36" r="10"/>
<text x="1245.10" y="867.36">R143</text>
<circle cx="883.09" cy="687.39" r="10"/>
<text x="883.09" y="692.39">R144</text>
<circle cx="115.44" cy="1526.51" r="10"/>
<text x="115.44" y="1531.51">R145</text>
<circle cx="1162.30" cy="789.43" r="10"/>
<text x="1162.30" y="794.43">R146</text>
<circle cx="348.45" cy="841.74" r="10"/>
<text x="348.45" y="846.74">R147</text>
<circle cx="1544.53" cy="1570.04" r="10"/>
<text x="1544.53" y="1575.04">R148</text>
<circle cx="847.88" cy="581.50" r="10"/>
<text x="847.88" y="586.50">R149</text>
<circle cx="968.27" cy="1268.33" r="10"/>
<text x="968.27" y="1273.33">R150</text>
<circle cx="924.02" cy="239.88" r="10"/>
<text x="924.02" y="244.88">R151</text>
<circle cx="1022.47" cy="866.83" r="10"/>
<text x="1022.47" y="871.83">R152</text>
<circle cx="1489.20" cy="627.65" r="10"/>
<text x="1489.20" y="632.65">R153</text>
<circle cx="179.25" cy="3.49" r="10"/>
<text x="179.25" y="8.49">R154</text>
<circle cx="822.51" cy="160.90" r="10"/>
<text x="822.51" y="165.90">R155</text>
<circle cx="19.43" cy="946.10" r="10"/>
<text x="19.43" y="951.10">R156</text>
<circle cx="1298.95" cy="1493.41" r="10"/>
<text x="1298.95" y="1498.41">R157</text>
<circle cx="16.79" cy="1205.85" r="10"/>
<text x="16.79" y="1210.85">R158</text>
<circle cx="1318.20" cy="549.28" r="10"/>
<text x="1318.20" y="554.28">R159</text>
<circle cx="1578.02" cy="923.05" r="10"/>
<text x="1578.02" y="928.05">R160</text>
<circle cx="1386.82" cy="1447.13" r="10"/>
<text x="1386.82" y="1452.13">R161</text>
<circle cx="66.56" cy="954.30" r="10"/>
<text x="66.56" y="959.30">R162</text>
<circle cx="588.50" cy="922.75" r="10"/>
<text x="588.50" y="927.75">R163</text>
<circle cx="724.72" cy="1337.34" r="10"/>
<text x="724.72" y="1342.34">R164</text>
<circle cx="899.96" cy="1540.55" r="10"/>
<text x="899.96" y="1545.55">R165</text>
<circle cx="1476.47" cy="841.87" r="10"/>
<text x="1476.47" y="846.87">R166</text>
<circle cx="793.75" cy="1070.61" r="10"/>
<text x="793.75" y="1075.61">R167</text>
<circle cx="1031.65" cy="1021.21" r="10"/>
<text x="1031.65" y="1026.21">R168</text>
<circle cx="1024.97" cy="1346.60" r="10"/>
<text x="1024.97" y="1351.60">R169</text>
<circle cx="1235.07" cy="941.62" r="10"/>
<text x="1235.07" y="946.62">R170</text>
<circle cx="283.80" cy="155.04" r="10"/>
<text x="283.80" y="160.04">R171</text>
<circle cx="6.56" cy="60.76" r="10"/>
<text x="6.56" y="65.76">R172</text>
<circle cx="488.13" cy="272.58" r="10"/>
<text x="488.13" y="277.58">R173</text>
<circle cx="1128.40" cy="1257.97" r="10"/>
<text x="1128.40" y="1262.97">R174</text>
<circle cx="513.14" cy="286.83" r="10"/>
<text x="513.14" y="291.83">R175</text>
<circle cx="1043.45" cy="1425.64" r="10"/>
<text x="1043.45" y="1430.64">R176</text>
<circle cx="1065.49" cy="1493.17" r="10"/>
<text x="1065.49" y="1498.17">R177</text>
<circle cx="269.24" cy="1051.01" r="10"/>
<text x="269.24" y="1056.01">R178</text>
<circle cx="1250.09" cy="708.81" r="10"/>
<text x="1250.09" y="713.81">R179</text>
<circle cx="784.70" cy="1143.89" r="10"/>
<text x="784.70" y="1148.89">R180</text>
<circle cx="1335.97" cy="784.06" r="10"/>
<text x="1335.97" y="789.06">R181</text>
<circle cx="749.86" cy="888.13" r="10"/>
<text x="749.86" y="893.13">R182</text>
<circle cx="1062.29" cy="160.54" r="10"/>
<text x="1062.29" y="165.54">R183</text>
<circle cx="654.82" cy="801.28" r="10"/>
<text x="654.82" y="806.28">R184</text>
<circle cx="220.98" cy="507.34" r="10"/>
<text x="220.98" y="512.34">R185</text>
<circle cx="1415.43" cy="758.59" r="10"/>
<text x="1415.43" y="763.59">R186</text>
<circle cx="1040.15" cy="747.38" r="10"/>
<text x="1040.15" y="752.38">R187</text>
<circle cx="646.62" cy="1374.67" r="10"/>
<text x="646.62" y="1379.67">R188</text>
<circle cx="142.63" cy="1051.69" r="10"/>
<text x="142.63" y="1056.69">R189</text>
<circle cx="919.47" cy="390.25" r="10"/>
<text x="919.47" y="395.25">R190</text>
<circle cx="1557.12" cy="1499.42" r="10"/>
<text x="1557.12" y="1504.42">R191</text>
<circle cx="680.91" cy="816.45" r="10"/>
<text x="680.91" y="821.45">R192</text>
<circle cx="1061.90" cy="1076.45" r="10"/>
<text x="1061.90" y="1081.45">R193</text>
<circle cx="1247.64" cy="369.22" r="10"/>
<text x="1247.64" y="374.22">R194</text>
<circle cx="228.26" cy="1209.86" r="10"/>
<text x="228.26" y="1214.86">R195</text>
<circle cx="700.53" cy="90.24" r="10"/>
<text x="700.53" y="95.24">R196</text>
<circle cx="390.94" cy="814.32" r="10"/>
<text x="390.94" y="819.32">R197</text>
<circle cx="243.26" cy="841.09" r="10"/>
<text x="243.26" y="846.09">R198</text>
<circle cx="578.17" cy="1461.38" r="10"/>
<text x="578.17" y="1466.38">R199</text>
<circle cx="110.01" cy="1283.71" r="10"/>
<text x="110.01" y="1288.71">R200</text>
<circle cx="982.23" cy="205.95" r="10"/>
<text x="982.23" y="210.95">R201</text>
<circle cx="737.14" cy="1011.82" r="10"/>
<text x="737.14" y="1016.82">R202</text>
<circle cx="1030.99" cy="441.86" r="10"/>
<text x="1030.99" y="446.86">R203</text>
<circle cx="1557.08" cy="427.68" r="10"/>
<text x="1557.08" y="432.68">R204</text>
<circle cx="582.49" cy="25.15" r="10"/>
<text x="582.49" y="30.15">R205</text>
<circle cx="127.68" cy="398.00" r="10"/>
<text x="127.68" y="403.00">R206</text>
<circle cx="1566.05" cy="387.09" r="10"/>
<text x="1566.05" y="392.09">R207</text>
<circle cx="1540.86" cy="168.79" r="10"/>
<text x="1540.86" y="173.79">R208</text>
<circle cx="31.02" cy="1107.16" r="10"/>
<text x="31.02" y="1112.16">R209</text>
<circle cx="876.91" cy="1051.13" r="10"/>
<text x="876.91" y="1056.13">R210</text>
<circle cx="675.38" cy="137.88" r="10"/>
<text x="675.38" y="142.88">R211</text>
<circle cx="920.43" cy="481.36" r="10"/>
<text x="920.43" y="486.36">R212</text>
<circle cx="1004.55" cy="802.70" r="10"/>
<text x="1004.55" y="807.70">R213</text>
<circle cx="1170.05" cy="998.20" r="10"/>
<text x="1170.05" y="1003.20">R214</text>
<circle cx="1163.23" cy="30.60" r="10"/>
<text x="1163.23" y="35.60">R215</text>
<circle cx="458.46" cy="777.77" r="10"/>
<text x="458.46" y="782.77">R216</text>
<circle cx="1171.95" cy="365.62" r="10"/>
<text x="1171.95" y="370.62">R217</text>
<circle cx="1011.66" cy="591.67" r="10"/>
<text x="1011.66" y="596.67">R218</text>
<circle cx="320.30" cy="1450.83" r="10"/>
<text x="320.30" y="1455.83">R219</text>
<circle cx="76.50" cy="1557.85" r="10"/>
<text x="76.50" y="1562.85">R220</text>
<circle cx="1464.71" cy="111.22" r="10"/>
<text x="1464.71" y="116.22">R221</text>
<circle cx="608.48" cy="1523.77" r="10"/>
<text x="608.48" y="1528.77">R222</text>
<circle cx="733.94" cy="694.57" r="10"/>
<text x="733.94" y="699.57">R223</text>
<circle cx="221.11" cy="551.20" r="10"/>
<text x="221.11" y="556.20">R224</text>
<circle cx="807.26" cy="404.29" r="10"/>
<text x="807.26" y="409.29">R225</text>
<circle cx="660.82" cy="1138.15" r="10"/>
<text x="660.82" y="1143.15">R226</text>
<circle cx="1158.34" cy="172.37" r="10"/>
<text x="1158.34" y="177.37">R227</text>
<circle cx="1297.97" cy="1533.31" r="10"/>
<text x="1297.97" y="1538.31">R228</text>
<circle cx="1507.48" cy="526.21" r="10"/>
<text x="1507.48" y="531.21">R229</text>
<circle cx="1018.84" cy="504.43" r="10"/>
<text x="1018.84" y="509.43">R230</text>
<circle cx="309.25" cy="778.91" r="10"/>
<text x="309.25" y="783.91">R231</text>
<circle cx="1061.77" cy="1161.91" r="10"/>
<text x="1061.77" y="1166.91">R232</text>
<circle cx="101.17" cy="611.79" r="10"/>
<text x="101.17" y="616.79">R233</text>
<circle cx="566.58" cy="358.94" r="10"/>
<text x="566.58" y="363.94">R234</text>
<circle cx="1093.03" cy="50.49" r="10"/>
<text x="1093.03" y="55.49">R235</text>
<circle cx="933.48" cy="456.37" r="10"/>
<text x="933.48" y="461.37">R236</text>
<circle cx="231.59" cy="701.87" r="10"/>
<text x="231.59" y="706.87">R237</text>
<circle cx="53.98" cy="658.30" r="10"/>
<text x="53.98" y="663.30">R238</text>
<circle cx="1118.99" cy="654.78" r="10"/>
<text x="1118.99" y="659.78">R239</text>
<circle cx="247.15" cy="1258.62" r="10"/>
<text x="247.15" y="1263.62">R240</text>
<circle cx="324.23" cy="1227.41" r="10"/>
<text x="324.23" y="1232.41">R241</text>
<circle cx="558.86" cy="75.28" r="10"/>
<text x="558.86" y="80.28">R242</text>
<circle cx="1339.00" cy="623.27" r="10"/>
<text x="1339.00" y="628.27">R243</text>
<circle cx="359.17" cy="472.40" r="10"/>
<text x="359.17" y="477.40">R244</text>
<circle cx="77.63" cy="1321.01" r="10"/>
<text x="77.63" y="1326.01">R245</text>
<circle cx="1490.63" cy="820.64" r="10"/>
<text x="1490.63" y="825.64">R246</text>
<circle cx="234.96" cy="1509.43" r="10"/>
<text x="234.96" y="1514.43">R247</text>
<circle cx="570.48" cy="741.65" r="10"/>
<text x="570.48" y="746.65">R248</text>
<circle cx="1436.30" cy="1226.65" r="10"/>
<text x="1436.30" y="1231.65">R249</text>
</svg>
