<svg id="topo" viewBox="-77.14 -1659.94 1703.69 1736.36" xmlns="http://www.w3.org/2000/svg">
<style>#topo path {fill: none; stroke: grey; stroke-width: 5.0000px;} #topo circle {fill: lightblue; stroke: none; stroke-width: 0.3px; vector-effect: non-scaling-stroke; r: 10.0000px;} #topo text {fill: black; stroke: none; font-size: 15.0000px; font-family: sans-serif; text-anchor:middle; transform: translateY(0.3em);} #topo path.country {fill: lightgrey; stroke: black; stroke-width: 1px; vector-effect: non-scaling-stroke; visibility: visible;} #topo path.selection {fill: none; stroke: red; stroke-width: 1px; vector-effect: non-scaling-stroke; visibility: visible;} #topo path.utilization {visibility: hidden;}</style>
<path data-id="0-1" d="M158.35,-274.22,40.57,-252.08"/>
<path data-id="0-32" d="M158.35,-274.22,275.22,-338.91"/>
<path data-id="0-62" d="M158.35,-274.22,114.26,-325.36"/>
<path data-id="0-87" d="M158.35,-274.22,124.37,-194.89"/>
<path data-id="0-185" d="M158.35,-274.22,315.55,-188.11"/>
<path data-id="1-62" d="M40.57,-252.08,114.26,-325.36"/>
<path data-id="1-105" d="M40.57,-252.08,61.99,-212.53"/>
<path data-id="2-22" d="M219.11,-838.66,137.39,-939.62"/>
<path data-id="2-157" d="M219.11,-838.66,323.72,-906.27"/>
<path data-id="2-191" d="M219.11,-838.66,244.48,-802.60"/>
<path data-id="3-55" d="M1277.96,-862.93,1221.40,-824.63"/>
<path data-id="3-103" d="M1277.96,-862.93,1238.94,-806.27"/>
<path data-id="3-113" d="M1277.96,-862.93,1331.43,-984.12"/>
<path data-id="3-132" d="M1277.96,-862.93,1347.31,-848.43"/>
<path data-id="3-146" d="M1277.96,-862.93,1178.82,-1013.01"/>
<path data-id="4-123" d="M782.92,-581.77,840.46,-601.00"/>
<path data-id="4-141" d="M782.92,-581.77,744.87,-681.63"/>
<path data-id="4-174" d="M782.92,-581.77,754.34,-543.86"/>
<path data-id="5-6" d="M1012.30,-146.53,998.49,-275.33"/>
<path data-id="5-29" d="M1012.30,-146.53,892.22,-183.91"/>
<path data-id="5-59" d="M1012.30,-146.53,1106.75,-225.61"/>
<path data-id="5-67" d="M1012.30,-146.53,1002.98,-102.75"/>
<path data-id="6-29" d="M998.49,-275.33,892.22,-183.91"/>
<path data-id="6-46" d="M998.49,-275.33,935.89,-411.01"/>
<path data-id="6-142" d="M998.49,-275.33,1033.69,-450.53"/>
<path data-id="6-165" d="M998.49,-275.33,1069.59,-288.70"/>
<path data-id="6-229" d="M998.49,-275.33,890.73,-367.02"/>
<path data-id="7-44" d="M226.03,-40.88,160.83,-34.10"/>
<path data-id="7-177" d="M226.03,-40.88,332.95,-49.43"/>
<path data-id="7-185" d="M226.03,-40.88,315.55,-188.11"/>
<path data-id="8-16" d="M1048.49,-1134.36,1075.66,-1079.54"/>
<path data-id="8-64" d="M1048.49,-1134.36,1099.62,-1105.52"/>
<path data-id="8-69" d="M1048.49,-1134.36,1004.22,-1241.57"/>
<path data-id="8-168" d="M1048.49,-1134.36,1174.05,-1251.26"/>
<path data-id="8-209" d="M1048.49,-1134.36,1037.14,-1076.73"/>
<path data-id="9-54" d="M655.80,-1062.89,741.58,-1155.89"/>
<path data-id="9-73" d="M655.80,-1062.89,620.99,-966.14"/>
<path data-id="9-101" d="M655.80,-1062.89,570.52,-1223.10"/>
<path data-id="9-112" d="M655.80,-1062.89,700.02,-998.66"/>
<path data-id="10-152" d="M40.97,-1533.42,244.49,-1581.01"/>
<path data-id="10-178" d="M40.97,-1533.42,263.53,-1378.24"/>
<path data-id="10-201" d="M40.97,-1533.42,40.73,-1224.87"/>
<path data-id="11-67" d="M1002.49,-2.50,1002.98,-102.75"/>
<path data-id="11-164" d="M1002.49,-2.50,1056.83,-73.61"/>
<path data-id="11-184" d="M1002.49,-2.50,734.00,-3.38"/>
<path data-id="12-142" d="M1058.84,-503.73,1033.69,-450.53"/>
<path data-id="12-162" d="M1058.84,-503.73,999.20,-569.82"/>
<path data-id="12-173" d="M1058.84,-503.73,967.56,-525.98"/>
<path data-id="12-176" d="M1058.84,-503.73,1092.54,-607.91"/>
<path data-id="12-220" d="M1058.84,-503.73,1123.50,-521.06"/>
<path data-id="13-98" d="M1360.10,-300.41,1274.79,-334.72"/>
<path data-id="13-108" d="M1360.10,-300.41,1385.95,-259.58"/>
<path data-id="13-122" d="M1360.10,-300.41,1309.77,-229.63"/>
<path data-id="13-143" d="M1360.10,-300.41,1402.12,-310.85"/>
<path data-id="13-149" d="M1360.10,-300.41,1359.29,-357.54"/>
<path data-id="14-92" d="M1474.36,-824.11,1467.21,-863.36"/>
<path data-id="14-135" d="M1474.36,-824.11,1501.30,-803.11"/>
<path data-id="15-135" d="M1534.41,-816.35,1501.30,-803.11"/>
<path data-id="15-196" d="M1534.41,-816.35,1537.88,-957.98"/>
<path data-id="16-64" d="M1075.66,-1079.54,1099.62,-1105.52"/>
<path data-id="16-76" d="M1075.66,-1079.54,1149.95,-1041.62"/>
<path data-id="16-209" d="M1075.66,-1079.54,1037.14,-1076.73"/>
<path data-id="16-247" d="M1075.66,-1079.54,1048.35,-1037.97"/>
<path data-id="17-101" d="M466.19,-972.69,570.52,-1223.10"/>
<path data-id="17-157" d="M466.19,-972.69,323.72,-906.27"/>
<path data-id="17-172" d="M466.19,-972.69,319.52,-1121.32"/>
<path data-id="17-194" d="M466.19,-972.69,519.73,-935.74"/>
<path data-id="17-202" d="M466.19,-972.69,298.51,-974.20"/>
<path data-id="18-47" d="M1462.13,-1013.67,1449.36,-985.99"/>
<path data-id="18-139" d="M1462.13,-1013.67,1533.95,-1036.29"/>
<path data-id="18-196" d="M1462.13,-1013.67,1537.88,-957.98"/>
<path data-id="18-224" d="M1462.13,-1013.67,1477.11,-1119.77"/>
<path data-id="19-51" d="M1209.91,-599.69,1217.84,-573.54"/>
<path data-id="19-66" d="M1209.91,-599.69,1257.96,-730.85"/>
<path data-id="19-72" d="M1209.91,-599.69,1158.50,-637.25"/>
<path data-id="19-156" d="M1209.91,-599.69,1356.53,-620.58"/>
<path data-id="19-206" d="M1209.91,-599.69,1176.67,-566.43"/>
<path data-id="20-90" d="M1301.05,-1232.34,1324.20,-1204.05"/>
<path data-id="20-117" d="M1301.05,-1232.34,1242.95,-1333.64"/>
<path data-id="20-168" d="M1301.05,-1232.34,1174.05,-1251.26"/>
<path data-id="21-63" d="M235.24,-1176.59,42.87,-1115.81"/>
<path data-id="21-160" d="M235.24,-1176.59,36.70,-1148.87"/>
<path data-id="21-172" d="M235.24,-1176.59,319.52,-1121.32"/>
<path data-id="21-179" d="M235.24,-1176.59,238.18,-1307.95"/>
<path data-id="21-195" d="M235.24,-1176.59,338.69,-1303.01"/>
<path data-id="21-201" d="M235.24,-1176.59,40.73,-1224.87"/>
<path data-id="21-214" d="M235.24,-1176.59,162.42,-984.22"/>
<path data-id="22-56" d="M137.39,-939.62,71.42,-976.53"/>
<path data-id="22-158" d="M137.39,-939.62,50.11,-917.72"/>
<path data-id="22-214" d="M137.39,-939.62,162.42,-984.22"/>
<path data-id="23-49" d="M853.74,-1299.31,833.47,-1262.83"/>
<path data-id="23-78" d="M853.74,-1299.31,912.64,-1307.13"/>
<path data-id="23-166" d="M853.74,-1299.31,878.19,-1378.62"/>
<path data-id="24-33" d="M1444.69,-186.35,1465.19,-132.53"/>
<path data-id="24-115" d="M1444.69,-186.35,1353.81,-180.86"/>
<path data-id="24-169" d="M1444.69,-186.35,1418.15,-236.72"/>
<path data-id="24-180" d="M1444.69,-186.35,1519.00,-181.43"/>
<path data-id="25-79" d="M305.97,-708.64,345.72,-843.00"/>
<path data-id="25-94" d="M305.97,-708.64,320.54,-631.78"/>
<path data-id="25-107" d="M305.97,-708.64,246.60,-665.00"/>
<path data-id="25-191" d="M305.97,-708.64,244.48,-802.60"/>
<path data-id="25-199" d="M305.97,-708.64,459.74,-760.67"/>
<path data-id="26-129" d="M780.29,-504.07,754.15,-420.55"/>
<path data-id="26-147" d="M780.29,-504.07,900.50,-517.98"/>
<path data-id="26-174" d="M780.29,-504.07,754.34,-543.86"/>
<path data-id="27-76" d="M1071.31,-977.52,1149.95,-1041.62"/>
<path data-id="27-88" d="M1071.31,-977.52,1030.87,-973.55"/>
<path data-id="27-171" d="M1071.31,-977.52,1056.65,-1008.40"/>
<path data-id="27-248" d="M1071.31,-977.52,1088.15,-952.36"/>
<path data-id="28-40" d="M500.27,-766.14,514.27,-813.09"/>
<path data-id="28-199" d="M500.27,-766.14,459.74,-760.67"/>
<path data-id="28-218" d="M500.27,-766.14,540.96,-779.22"/>
<path data-id="28-231" d="M500.27,-766.14,481.44,-631.63"/>
<path data-id="29-38" d="M892.22,-183.91,820.56,-249.46"/>
<path data-id="29-85" d="M892.22,-183.91,805.28,-217.04"/>
<path data-id="30-154" d="M1323.68,-1476.78,1436.02,-1317.06"/>
<path data-id="30-203" d="M1323.68,-1476.78,1470.12,-1539.09"/>
<path data-id="30-230" d="M1323.68,-1476.78,1142.41,-1539.07"/>
<path data-id="30-232" d="M1323.68,-1476.78,1476.70,-1507.98"/>
<path data-id="30-234" d="M1323.68,-1476.78,1234.48,-1405.62"/>
<path data-id="31-115" d="M1295.36,-89.48,1353.81,-180.86"/>
<path data-id="31-126" d="M1295.36,-89.48,1248.74,-170.41"/>
<path data-id="31-128" d="M1295.36,-89.48,1468.13,-53.89"/>
<path data-id="31-148" d="M1295.36,-89.48,1283.42,-58.57"/>
<path data-id="32-193" d="M275.22,-338.91,322.92,-337.05"/>
<path data-id="32-215" d="M275.22,-338.91,283.12,-375.00"/>
<path data-id="33-128" d="M1465.19,-132.53,1468.13,-53.89"/>
<path data-id="33-180" d="M1465.19,-132.53,1519.00,-181.43"/>
<path data-id="34-80" d="M598.17,-571.00,579.32,-506.37"/>
<path data-id="34-134" d="M598.17,-571.00,569.87,-598.45"/>
<path data-id="34-174" d="M598.17,-571.00,754.34,-543.86"/>
<path data-id="35-49" d="M855.50,-1154.06,833.47,-1262.83"/>
<path data-id="35-54" d="M855.50,-1154.06,741.58,-1155.89"/>
<path data-id="35-69" d="M855.50,-1154.06,1004.22,-1241.57"/>
<path data-id="35-119" d="M855.50,-1154.06,924.00,-1080.76"/>
<path data-id="35-239" d="M855.50,-1154.06,809.35,-1088.84"/>
<path data-id="36-153" d="M1403.47,-1273.36,1377.74,-1242.56"/>
<path data-id="36-154" d="M1403.47,-1273.36,1436.02,-1317.06"/>
<path data-id="37-83" d="M446.90,-1404.36,430.40,-1476.70"/>
<path data-id="37-140" d="M446.90,-1404.36,502.85,-1407.99"/>
<path data-id="37-219" d="M446.90,-1404.36,390.69,-1340.78"/>
<path data-id="37-222" d="M446.90,-1404.36,399.46,-1436.27"/>
<path data-id="38-85" d="M820.56,-249.46,805.28,-217.04"/>
<path data-id="38-225" d="M820.56,-249.46,787.65,-338.16"/>
<path data-id="38-229" d="M820.56,-249.46,890.73,-367.02"/>
<path data-id="39-93" d="M821.21,-720.77,817.56,-675.98"/>
<path data-id="39-221" d="M821.21,-720.77,868.95,-754.05"/>
<path data-id="40-131" d="M514.27,-813.09,531.72,-891.73"/>
<path data-id="40-192" d="M514.27,-813.09,474.08,-829.80"/>
<path data-id="40-218" d="M514.27,-813.09,540.96,-779.22"/>
<path data-id="41-104" d="M381.67,-187.53,422.56,-213.13"/>
<path data-id="41-161" d="M381.67,-187.53,355.64,-228.92"/>
<path data-id="41-185" d="M381.67,-187.53,315.55,-188.11"/>
<path data-id="41-189" d="M381.67,-187.53,383.00,-152.75"/>
<path data-id="42-102" d="M1478.77,-339.31,1443.17,-372.84"/>
<path data-id="42-143" d="M1478.77,-339.31,1402.12,-310.85"/>
<path data-id="42-180" d="M1478.77,-339.31,1519.00,-181.43"/>
<path data-id="43-73" d="M660.66,-964.72,620.99,-966.14"/>
<path data-id="43-112" d="M660.66,-964.72,700.02,-998.66"/>
<path data-id="43-118" d="M660.66,-964.72,673.74,-703.88"/>
<path data-id="44-87" d="M160.83,-34.10,124.37,-194.89"/>
<path data-id="44-237" d="M160.83,-34.10,100.05,-3.98"/>
<path data-id="45-49" d="M716.21,-1312.35,833.47,-1262.83"/>
<path data-id="45-54" d="M716.21,-1312.35,741.58,-1155.89"/>
<path data-id="45-100" d="M716.21,-1312.35,552.68,-1392.18"/>
<path data-id="45-111" d="M716.21,-1312.35,790.81,-1432.87"/>
<path data-id="45-249" d="M716.21,-1312.35,614.46,-1258.50"/>
<path data-id="46-142" d="M935.89,-411.01,1033.69,-450.53"/>
<path data-id="46-147" d="M935.89,-411.01,900.50,-517.98"/>
<path data-id="46-173" d="M935.89,-411.01,967.56,-525.98"/>
<path data-id="46-229" d="M935.89,-411.01,890.73,-367.02"/>
<path data-id="47-113" d="M1449.36,-985.99,1331.43,-984.12"/>
<path data-id="47-187" d="M1449.36,-985.99,1447.56,-929.62"/>
<path data-id="47-196" d="M1449.36,-985.99,1537.88,-957.98"/>
<path data-id="48-95" d="M1059.00,-1343.52,1087.73,-1445.37"/>
<path data-id="48-106" d="M1059.00,-1343.52,1016.39,-1423.44"/>
<path data-id="48-150" d="M1059.00,-1343.52,976.84,-1288.11"/>
<path data-id="48-168" d="M1059.00,-1343.52,1174.05,-1251.26"/>
<path data-id="48-211" d="M1059.00,-1343.52,1164.61,-1393.66"/>
<path data-id="49-54" d="M833.47,-1262.83,741.58,-1155.89"/>
<path data-id="50-86" d="M1058.59,-1555.65,1008.52,-1517.71"/>
<path data-id="50-230" d="M1058.59,-1555.65,1142.41,-1539.07"/>
<path data-id="50-244" d="M1058.59,-1555.65,1113.76,-1484.97"/>
<path data-id="51-114" d="M1217.84,-573.54,1385.59,-471.22"/>
<path data-id="51-116" d="M1217.84,-573.54,1229.82,-344.48"/>
<path data-id="51-156" d="M1217.84,-573.54,1356.53,-620.58"/>
<path data-id="51-206" d="M1217.84,-573.54,1176.67,-566.43"/>
<path data-id="52-135" d="M1441.65,-676.20,1501.30,-803.11"/>
<path data-id="52-156" d="M1441.65,-676.20,1356.53,-620.58"/>
<path data-id="52-200" d="M1441.65,-676.20,1304.45,-728.94"/>
<path data-id="52-207" d="M1441.65,-676.20,1450.88,-596.04"/>
<path data-id="53-110" d="M1541.65,-1522.38,1549.11,-1268.25"/>
<path data-id="53-203" d="M1541.65,-1522.38,1470.12,-1539.09"/>
<path data-id="53-232" d="M1541.65,-1522.38,1476.70,-1507.98"/>
<path data-id="54-239" d="M741.58,-1155.89,809.35,-1088.84"/>
<path data-id="54-249" d="M741.58,-1155.89,614.46,-1258.50"/>
<path data-id="55-103" d="M1221.40,-824.63,1238.94,-806.27"/>
<path data-id="55-136" d="M1221.40,-824.63,1123.77,-848.01"/>
<path data-id="55-183" d="M1221.40,-824.63,1103.10,-697.83"/>
<path data-id="56-158" d="M71.42,-976.53,50.11,-917.72"/>
<path data-id="56-228" d="M71.42,-976.53,0.30,-1073.82"/>
<path data-id="57-213" d="M213.24,-399.36,168.74,-375.02"/>
<path data-id="57-215" d="M213.24,-399.36,283.12,-375.00"/>
<path data-id="58-65" d="M430.52,-1253.27,532.22,-1267.03"/>
<path data-id="58-190" d="M430.52,-1253.27,336.82,-1145.18"/>
<path data-id="58-195" d="M430.52,-1253.27,338.69,-1303.01"/>
<path data-id="58-219" d="M430.52,-1253.27,390.69,-1340.78"/>
<path data-id="59-91" d="M1106.75,-225.61,1156.27,-217.36"/>
<path data-id="59-165" d="M1106.75,-225.61,1069.59,-288.70"/>
<path data-id="60-99" d="M2.81,-819.60,151.78,-674.70"/>
<path data-id="60-158" d="M2.81,-819.60,50.11,-917.72"/>
<path data-id="61-114" d="M1425.48,-498.29,1385.59,-471.22"/>
<path data-id="61-207" d="M1425.48,-498.29,1450.88,-596.04"/>
<path data-id="62-74" d="M114.26,-325.36,98.49,-346.57"/>
<path data-id="62-213" d="M114.26,-325.36,168.74,-375.02"/>
<path data-id="63-160" d="M42.87,-1115.81,36.70,-1148.87"/>
<path data-id="63-228" d="M42.87,-1115.81,0.30,-1073.82"/>
<path data-id="64-76" d="M1099.62,-1105.52,1149.95,-1041.62"/>
<path data-id="64-168" d="M1099.62,-1105.52,1174.05,-1251.26"/>
<path data-id="65-100" d="M532.22,-1267.03,552.68,-1392.18"/>
<path data-id="65-101" d="M532.22,-1267.03,570.52,-1223.10"/>
<path data-id="66-72" d="M1257.96,-730.85,1158.50,-637.25"/>
<path data-id="66-103" d="M1257.96,-730.85,1238.94,-806.27"/>
<path data-id="66-200" d="M1257.96,-730.85,1304.45,-728.94"/>
<path data-id="67-164" d="M1002.98,-102.75,1056.83,-73.61"/>
<path data-id="68-86" d="M951.52,-1467.86,1008.52,-1517.71"/>
<path data-id="68-97" d="M951.52,-1467.86,885.79,-1541.43"/>
<path data-id="68-106" d="M951.52,-1467.86,1016.39,-1423.44"/>
<path data-id="68-166" d="M951.52,-1467.86,878.19,-1378.62"/>
<path data-id="69-150" d="M1004.22,-1241.57,976.84,-1288.11"/>
<path data-id="69-168" d="M1004.22,-1241.57,1174.05,-1251.26"/>
<path data-id="70-82" d="M984.73,-778.19,1005.72,-806.52"/>
<path data-id="70-137" d="M984.73,-778.19,1044.35,-653.90"/>
<path data-id="70-183" d="M984.73,-778.19,1103.10,-697.83"/>
<path data-id="70-221" d="M984.73,-778.19,868.95,-754.05"/>
<path data-id="71-167" d="M486.69,-593.07,472.14,-506.06"/>
<path data-id="71-182" d="M486.69,-593.07,408.22,-583.50"/>
<path data-id="71-208" d="M486.69,-593.07,515.62,-626.46"/>
<path data-id="71-231" d="M486.69,-593.07,481.44,-631.63"/>
<path data-id="72-120" d="M1158.50,-637.25,1143.08,-568.99"/>
<path data-id="72-145" d="M1158.50,-637.25,1125.34,-660.90"/>
<path data-id="72-176" d="M1158.50,-637.25,1092.54,-607.91"/>
<path data-id="72-206" d="M1158.50,-637.25,1176.67,-566.43"/>
<path data-id="73-124" d="M620.99,-966.14,556.20,-933.70"/>
<path data-id="74-175" d="M98.49,-346.57,47.05,-490.29"/>
<path data-id="74-213" d="M98.49,-346.57,168.74,-375.02"/>
<path data-id="75-77" d="M724.63,-105.84,769.00,-220.83"/>
<path data-id="75-184" d="M724.63,-105.84,734.00,-3.38"/>
<path data-id="75-216" d="M724.63,-105.84,670.49,-174.48"/>
<path data-id="75-241" d="M724.63,-105.84,628.93,-80.98"/>
<path data-id="76-146" d="M1149.95,-1041.62,1178.82,-1013.01"/>
<path data-id="76-171" d="M1149.95,-1041.62,1056.65,-1008.40"/>
<path data-id="77-85" d="M769.00,-220.83,805.28,-217.04"/>
<path data-id="77-127" d="M769.00,-220.83,703.01,-326.96"/>
<path data-id="77-216" d="M769.00,-220.83,670.49,-174.48"/>
<path data-id="78-106" d="M912.64,-1307.13,1016.39,-1423.44"/>
<path data-id="78-150" d="M912.64,-1307.13,976.84,-1288.11"/>
<path data-id="78-166" d="M912.64,-1307.13,878.19,-1378.62"/>
<path data-id="79-157" d="M345.72,-843.00,323.72,-906.27"/>
<path data-id="79-191" d="M345.72,-843.00,244.48,-802.60"/>
<path data-id="79-192" d="M345.72,-843.00,474.08,-829.80"/>
<path data-id="79-199" d="M345.72,-843.00,459.74,-760.67"/>
<path data-id="80-84" d="M579.32,-506.37,712.47,-416.63"/>
<path data-id="80-167" d="M579.32,-506.37,472.14,-506.06"/>
<path data-id="80-236" d="M579.32,-506.37,580.73,-382.32"/>
<path data-id="81-99" d="M164.98,-648.28,151.78,-674.70"/>
<path data-id="81-107" d="M164.98,-648.28,246.60,-665.00"/>
<path data-id="81-175" d="M164.98,-648.28,47.05,-490.29"/>
<path data-id="82-121" d="M1005.72,-806.52,961.16,-912.26"/>
<path data-id="82-151" d="M1005.72,-806.52,1067.00,-865.26"/>
<path data-id="82-183" d="M1005.72,-806.52,1103.10,-697.83"/>
<path data-id="83-138" d="M430.40,-1476.70,355.20,-1483.86"/>
<path data-id="83-222" d="M430.40,-1476.70,399.46,-1436.27"/>
<path data-id="83-223" d="M430.40,-1476.70,453.95,-1556.57"/>
<path data-id="84-127" d="M712.47,-416.63,703.01,-326.96"/>
<path data-id="84-129" d="M712.47,-416.63,754.15,-420.55"/>
<path data-id="84-236" d="M712.47,-416.63,580.73,-382.32"/>
<path data-id="86-95" d="M1008.52,-1517.71,1087.73,-1445.37"/>
<path data-id="86-106" d="M1008.52,-1517.71,1016.39,-1423.44"/>
<path data-id="86-198" d="M1008.52,-1517.71,982.73,-1550.16"/>
<path data-id="87-105" d="M124.37,-194.89,61.99,-212.53"/>
<path data-id="87-185" d="M124.37,-194.89,315.55,-188.11"/>
<path data-id="88-121" d="M1030.87,-973.55,961.16,-912.26"/>
<path data-id="88-155" d="M1030.87,-973.55,981.31,-1054.64"/>
<path data-id="88-171" d="M1030.87,-973.55,1056.65,-1008.40"/>
<path data-id="88-233" d="M1030.87,-973.55,922.73,-969.60"/>
<path data-id="89-94" d="M387.31,-623.00,320.54,-631.78"/>
<path data-id="89-182" d="M387.31,-623.00,408.22,-583.50"/>
<path data-id="89-199" d="M387.31,-623.00,459.74,-760.67"/>
<path data-id="89-231" d="M387.31,-623.00,481.44,-631.63"/>
<path data-id="90-153" d="M1324.20,-1204.05,1377.74,-1242.56"/>
<path data-id="90-205" d="M1324.20,-1204.05,1264.30,-1091.65"/>
<path data-id="91-126" d="M1156.27,-217.36,1248.74,-170.41"/>
<path data-id="91-159" d="M1156.27,-217.36,1207.94,-307.16"/>
<path data-id="92-132" d="M1467.21,-863.36,1347.31,-848.43"/>
<path data-id="92-187" d="M1467.21,-863.36,1447.56,-929.62"/>
<path data-id="93-123" d="M817.56,-675.98,840.46,-601.00"/>
<path data-id="93-141" d="M817.56,-675.98,744.87,-681.63"/>
<path data-id="94-107" d="M320.54,-631.78,246.60,-665.00"/>
<path data-id="94-204" d="M320.54,-631.78,277.45,-592.24"/>
<path data-id="95-106" d="M1087.73,-1445.37,1016.39,-1423.44"/>
<path data-id="95-211" d="M1087.73,-1445.37,1164.61,-1393.66"/>
<path data-id="95-244" d="M1087.73,-1445.37,1113.76,-1484.97"/>
<path data-id="96-177" d="M417.88,-11.00,332.95,-49.43"/>
<path data-id="96-212" d="M417.88,-11.00,363.94,-75.88"/>
<path data-id="96-241" d="M417.88,-11.00,628.93,-80.98"/>
<path data-id="97-111" d="M885.79,-1541.43,790.81,-1432.87"/>
<path data-id="97-198" d="M885.79,-1541.43,982.73,-1550.16"/>
<path data-id="97-243" d="M885.79,-1541.43,838.43,-1579.80"/>
<path data-id="98-116" d="M1274.79,-334.72,1229.82,-344.48"/>
<path data-id="98-122" d="M1274.79,-334.72,1309.77,-229.63"/>
<path data-id="98-149" d="M1274.79,-334.72,1359.29,-357.54"/>
<path data-id="99-191" d="M151.78,-674.70,244.48,-802.60"/>
<path data-id="100-140" d="M552.68,-1392.18,502.85,-1407.99"/>
<path data-id="100-170" d="M552.68,-1392.18,589.15,-1478.31"/>
<path data-id="100-249" d="M552.68,-1392.18,614.46,-1258.50"/>
<path data-id="101-249" d="M570.52,-1223.10,614.46,-1258.50"/>
<path data-id="102-114" d="M1443.17,-372.84,1385.59,-471.22"/>
<path data-id="102-143" d="M1443.17,-372.84,1402.12,-310.85"/>
<path data-id="102-149" d="M1443.17,-372.84,1359.29,-357.54"/>
<path data-id="103-183" d="M1238.94,-806.27,1103.10,-697.83"/>
<path data-id="104-144" d="M422.56,-213.13,470.95,-176.72"/>
<path data-id="104-197" d="M422.56,-213.13,409.81,-371.70"/>
<path data-id="104-236" d="M422.56,-213.13,580.73,-382.32"/>
<path data-id="105-217" d="M61.99,-212.53,23.01,-150.04"/>
<path data-id="107-204" d="M246.60,-665.00,277.45,-592.24"/>
<path data-id="108-115" d="M1385.95,-259.58,1353.81,-180.86"/>
<path data-id="108-122" d="M1385.95,-259.58,1309.77,-229.63"/>
<path data-id="108-143" d="M1385.95,-259.58,1402.12,-310.85"/>
<path data-id="108-169" d="M1385.95,-259.58,1418.15,-236.72"/>
<path data-id="109-133" d="M302.81,-413.59,374.57,-414.34"/>
<path data-id="109-204" d="M302.81,-413.59,277.45,-592.24"/>
<path data-id="109-215" d="M302.81,-413.59,283.12,-375.00"/>
<path data-id="110-154" d="M1549.11,-1268.25,1436.02,-1317.06"/>
<path data-id="110-224" d="M1549.11,-1268.25,1477.11,-1119.77"/>
<path data-id="111-166" d="M790.81,-1432.87,878.19,-1378.62"/>
<path data-id="111-170" d="M790.81,-1432.87,589.15,-1478.31"/>
<path data-id="111-243" d="M790.81,-1432.87,838.43,-1579.80"/>
<path data-id="112-210" d="M700.02,-998.66,741.20,-1014.46"/>
<path data-id="113-130" d="M1331.43,-984.12,1375.12,-914.69"/>
<path data-id="113-146" d="M1331.43,-984.12,1178.82,-1013.01"/>
<path data-id="113-205" d="M1331.43,-984.12,1264.30,-1091.65"/>
<path data-id="114-149" d="M1385.59,-471.22,1359.29,-357.54"/>
<path data-id="115-122" d="M1353.81,-180.86,1309.77,-229.63"/>
<path data-id="115-126" d="M1353.81,-180.86,1248.74,-170.41"/>
<path data-id="115-169" d="M1353.81,-180.86,1418.15,-236.72"/>
<path data-id="116-142" d="M1229.82,-344.48,1033.69,-450.53"/>
<path data-id="116-159" d="M1229.82,-344.48,1207.94,-307.16"/>
<path data-id="116-220" d="M1229.82,-344.48,1123.50,-521.06"/>
<path data-id="117-168" d="M1242.95,-1333.64,1174.05,-1251.26"/>
<path data-id="117-211" d="M1242.95,-1333.64,1164.61,-1393.66"/>
<path data-id="117-234" d="M1242.95,-1333.64,1234.48,-1405.62"/>
<path data-id="118-141" d="M673.74,-703.88,744.87,-681.63"/>
<path data-id="118-218" d="M673.74,-703.88,540.96,-779.22"/>
<path data-id="118-238" d="M673.74,-703.88,582.58,-632.35"/>
<path data-id="119-155" d="M924.00,-1080.76,981.31,-1054.64"/>
<path data-id="119-163" d="M924.00,-1080.76,877.50,-1011.93"/>
<path data-id="119-239" d="M924.00,-1080.76,809.35,-1088.84"/>
<path data-id="120-176" d="M1143.08,-568.99,1092.54,-607.91"/>
<path data-id="120-206" d="M1143.08,-568.99,1176.67,-566.43"/>
<path data-id="120-220" d="M1143.08,-568.99,1123.50,-521.06"/>
<path data-id="121-151" d="M961.16,-912.26,1067.00,-865.26"/>
<path data-id="121-233" d="M961.16,-912.26,922.73,-969.60"/>
<path data-id="121-235" d="M961.16,-912.26,851.48,-790.94"/>
<path data-id="122-126" d="M1309.77,-229.63,1248.74,-170.41"/>
<path data-id="122-159" d="M1309.77,-229.63,1207.94,-307.16"/>
<path data-id="123-147" d="M840.46,-601.00,900.50,-517.98"/>
<path data-id="123-227" d="M840.46,-601.00,942.76,-558.35"/>
<path data-id="124-131" d="M556.20,-933.70,531.72,-891.73"/>
<path data-id="124-194" d="M556.20,-933.70,519.73,-935.74"/>
<path data-id="125-128" d="M1532.59,-49.62,1468.13,-53.89"/>
<path data-id="126-159" d="M1248.74,-170.41,1207.94,-307.16"/>
<path data-id="127-216" d="M703.01,-326.96,670.49,-174.48"/>
<path data-id="127-225" d="M703.01,-326.96,787.65,-338.16"/>
<path data-id="127-236" d="M703.01,-326.96,580.73,-382.32"/>
<path data-id="129-225" d="M754.15,-420.55,787.65,-338.16"/>
<path data-id="129-242" d="M754.15,-420.55,820.34,-389.95"/>
<path data-id="130-132" d="M1375.12,-914.69,1347.31,-848.43"/>
<path data-id="130-187" d="M1375.12,-914.69,1447.56,-929.62"/>
<path data-id="131-192" d="M531.72,-891.73,474.08,-829.80"/>
<path data-id="131-194" d="M531.72,-891.73,519.73,-935.74"/>
<path data-id="132-200" d="M1347.31,-848.43,1304.45,-728.94"/>
<path data-id="133-167" d="M374.57,-414.34,472.14,-506.06"/>
<path data-id="133-193" d="M374.57,-414.34,322.92,-337.05"/>
<path data-id="133-197" d="M374.57,-414.34,409.81,-371.70"/>
<path data-id="134-208" d="M569.87,-598.45,515.62,-626.46"/>
<path data-id="134-238" d="M569.87,-598.45,582.58,-632.35"/>
<path data-id="136-151" d="M1123.77,-848.01,1067.00,-865.26"/>
<path data-id="136-183" d="M1123.77,-848.01,1103.10,-697.83"/>
<path data-id="137-145" d="M1044.35,-653.90,1125.34,-660.90"/>
<path data-id="137-176" d="M1044.35,-653.90,1092.54,-607.91"/>
<path data-id="137-183" d="M1044.35,-653.90,1103.10,-697.83"/>
<path data-id="137-226" d="M1044.35,-653.90,990.83,-609.78"/>
<path data-id="138-152" d="M355.20,-1483.86,244.49,-1581.01"/>
<path data-id="138-178" d="M355.20,-1483.86,263.53,-1378.24"/>
<path data-id="138-222" d="M355.20,-1483.86,399.46,-1436.27"/>
<path data-id="139-196" d="M1533.95,-1036.29,1537.88,-957.98"/>
<path data-id="139-224" d="M1533.95,-1036.29,1477.11,-1119.77"/>
<path data-id="142-165" d="M1033.69,-450.53,1069.59,-288.70"/>
<path data-id="142-173" d="M1033.69,-450.53,967.56,-525.98"/>
<path data-id="143-149" d="M1402.12,-310.85,1359.29,-357.54"/>
<path data-id="144-189" d="M470.95,-176.72,383.00,-152.75"/>
<path data-id="144-240" d="M470.95,-176.72,533.39,-186.33"/>
<path data-id="145-176" d="M1125.34,-660.90,1092.54,-607.91"/>
<path data-id="145-183" d="M1125.34,-660.90,1103.10,-697.83"/>
<path data-id="146-205" d="M1178.82,-1013.01,1264.30,-1091.65"/>
<path data-id="146-248" d="M1178.82,-1013.01,1088.15,-952.36"/>
<path data-id="147-173" d="M900.50,-517.98,967.56,-525.98"/>
<path data-id="147-227" d="M900.50,-517.98,942.76,-558.35"/>
<path data-id="147-242" d="M900.50,-517.98,820.34,-389.95"/>
<path data-id="148-164" d="M1283.42,-58.57,1056.83,-73.61"/>
<path data-id="151-248" d="M1067.00,-865.26,1088.15,-952.36"/>
<path data-id="153-224" d="M1377.74,-1242.56,1477.11,-1119.77"/>
<path data-id="154-232" d="M1436.02,-1317.06,1476.70,-1507.98"/>
<path data-id="155-209" d="M981.31,-1054.64,1037.14,-1076.73"/>
<path data-id="155-233" d="M981.31,-1054.64,922.73,-969.60"/>
<path data-id="155-247" d="M981.31,-1054.64,1048.35,-1037.97"/>
<path data-id="156-200" d="M1356.53,-620.58,1304.45,-728.94"/>
<path data-id="156-207" d="M1356.53,-620.58,1450.88,-596.04"/>
<path data-id="157-202" d="M323.72,-906.27,298.51,-974.20"/>
<path data-id="159-165" d="M1207.94,-307.16,1069.59,-288.70"/>
<path data-id="160-201" d="M36.70,-1148.87,40.73,-1224.87"/>
<path data-id="161-185" d="M355.64,-228.92,315.55,-188.11"/>
<path data-id="161-193" d="M355.64,-228.92,322.92,-337.05"/>
<path data-id="162-173" d="M999.20,-569.82,967.56,-525.98"/>
<path data-id="162-176" d="M999.20,-569.82,1092.54,-607.91"/>
<path data-id="162-226" d="M999.20,-569.82,990.83,-609.78"/>
<path data-id="162-227" d="M999.20,-569.82,942.76,-558.35"/>
<path data-id="163-210" d="M877.50,-1011.93,741.20,-1014.46"/>
<path data-id="163-233" d="M877.50,-1011.93,922.73,-969.60"/>
<path data-id="163-239" d="M877.50,-1011.93,809.35,-1088.84"/>
<path data-id="163-246" d="M877.50,-1011.93,799.89,-926.17"/>
<path data-id="167-182" d="M472.14,-506.06,408.22,-583.50"/>
<path data-id="168-205" d="M1174.05,-1251.26,1264.30,-1091.65"/>
<path data-id="168-211" d="M1174.05,-1251.26,1164.61,-1393.66"/>
<path data-id="170-223" d="M589.15,-1478.31,453.95,-1556.57"/>
<path data-id="171-247" d="M1056.65,-1008.40,1048.35,-1037.97"/>
<path data-id="172-190" d="M319.52,-1121.32,336.82,-1145.18"/>
<path data-id="172-202" d="M319.52,-1121.32,298.51,-974.20"/>
<path data-id="173-227" d="M967.56,-525.98,942.76,-558.35"/>
<path data-id="175-213" d="M47.05,-490.29,168.74,-375.02"/>
<path data-id="177-212" d="M332.95,-49.43,363.94,-75.88"/>
<path data-id="178-179" d="M263.53,-1378.24,238.18,-1307.95"/>
<path data-id="178-188" d="M263.53,-1378.24,375.83,-1403.01"/>
<path data-id="178-195" d="M263.53,-1378.24,338.69,-1303.01"/>
<path data-id="179-195" d="M238.18,-1307.95,338.69,-1303.01"/>
<path data-id="179-201" d="M238.18,-1307.95,40.73,-1224.87"/>
<path data-id="181-216" d="M573.66,-182.88,670.49,-174.48"/>
<path data-id="181-236" d="M573.66,-182.88,580.73,-382.32"/>
<path data-id="181-240" d="M573.66,-182.88,533.39,-186.33"/>
<path data-id="181-241" d="M573.66,-182.88,628.93,-80.98"/>
<path data-id="182-231" d="M408.22,-583.50,481.44,-631.63"/>
<path data-id="184-241" d="M734.00,-3.38,628.93,-80.98"/>
<path data-id="185-245" d="M315.55,-188.11,364.71,-134.90"/>
<path data-id="186-235" d="M817.89,-806.48,851.48,-790.94"/>
<path data-id="186-246" d="M817.89,-806.48,799.89,-926.17"/>
<path data-id="187-196" d="M1447.56,-929.62,1537.88,-957.98"/>
<path data-id="188-219" d="M375.83,-1403.01,390.69,-1340.78"/>
<path data-id="188-222" d="M375.83,-1403.01,399.46,-1436.27"/>
<path data-id="189-245" d="M383.00,-152.75,364.71,-134.90"/>
<path data-id="190-195" d="M336.82,-1145.18,338.69,-1303.01"/>
<path data-id="192-199" d="M474.08,-829.80,459.74,-760.67"/>
<path data-id="193-197" d="M322.92,-337.05,409.81,-371.70"/>
<path data-id="193-215" d="M322.92,-337.05,283.12,-375.00"/>
<path data-id="195-219" d="M338.69,-1303.01,390.69,-1340.78"/>
<path data-id="197-236" d="M409.81,-371.70,580.73,-382.32"/>
<path data-id="199-231" d="M459.74,-760.67,481.44,-631.63"/>
<path data-id="202-214" d="M298.51,-974.20,162.42,-984.22"/>
<path data-id="203-232" d="M1470.12,-1539.09,1476.70,-1507.98"/>
<path data-id="205-224" d="M1264.30,-1091.65,1477.11,-1119.77"/>
<path data-id="208-231" d="M515.62,-626.46,481.44,-631.63"/>
<path data-id="208-238" d="M515.62,-626.46,582.58,-632.35"/>
<path data-id="209-247" d="M1037.14,-1076.73,1048.35,-1037.97"/>
<path data-id="210-239" d="M741.20,-1014.46,809.35,-1088.84"/>
<path data-id="210-246" d="M741.20,-1014.46,799.89,-926.17"/>
<path data-id="211-234" d="M1164.61,-1393.66,1234.48,-1405.62"/>
<path data-id="212-245" d="M363.94,-75.88,364.71,-134.90"/>
<path data-id="216-241" d="M670.49,-174.48,628.93,-80.98"/>
<path data-id="217-237" d="M23.01,-150.04,100.05,-3.98"/>
<path data-id="218-238" d="M540.96,-779.22,582.58,-632.35"/>
<path data-id="221-226" d="M868.95,-754.05,990.83,-609.78"/>
<path data-id="221-235" d="M868.95,-754.05,851.48,-790.94"/>
<path data-id="225-242" d="M787.65,-338.16,820.34,-389.95"/>
<path data-id="226-227" d="M990.83,-609.78,942.76,-558.35"/>
<path data-id="229-242" d="M890.73,-367.02,820.34,-389.95"/>
<path data-id="230-244" d="M1142.41,-1539.07,1113.76,-1484.97"/>
<path data-id="233-246" d="M922.73,-969.60,799.89,-926.17"/>
<path data-id="236-240" d="M580.73,-382.32,533.39,-186.33"/>
<circle data-id="0" cx="158.35" cy="-274.22" r="10.00px"/>
<text data-id="0" x="158.35" y="-274.22">R0</text>
<circle data-id="1" cx="40.57" cy="-252.08" r="10.00px"/>
<text data-id="1" x="40.57" y="-252.08">R1</text>
<circle data-id="2" cx="219.11" cy="-838.66" r="10.00px"/>
<text data-id="2" x="219.11" y="-838.66">R2</text>
<circle data-id="3" cx="1277.96" cy="-862.93" r="10.00px"/>
<text data-id="3" x="1277.96" y="-862.93">R3</text>
<circle data-id="4" cx="782.92" cy="-581.77" r="10.00px"/>
<text data-id="4" x="782.92" y="-581.77">R4</text>
<circle data-id="5" cx="1012.30" cy="-146.53" r="10.00px"/>
<text data-id="5" x="1012.30" y="-146.53">R5</text>
<circle data-id="6" cx="998.49" cy="-275.33" r="10.00px"/>
<text data-id="6" x="998.49" y="-275.33">R6</text>
<circle data-id="7" cx="226.03" cy="-40.88" r="10.00px"/>
<text data-id="7" x="226.03" y="-40.88">R7</text>
<circle data-id="8" cx="1048.49" cy="-1134.36" r="10.00px"/>
<text data-id="8" x="1048.49" y="-1134.36">R8</text>
<circle data-id="9" cx="655.80" cy="-1062.89" r="10.00px"/>
<text data-id="9" x="655.80" y="-1062.89">R9</text>
<circle data-id="10" cx="40.97" cy="-1533.42" r="10.00px"/>
<text data-id="10" x="40.97" y="-1533.42">R10</text>
<circle data-id="11" cx="1002.49" cy="-2.50" r="10.00px"/>
<text data-id="11" x="1002.49" y="-2.50">R11</text>
<circle data-id="12" cx="1058.84" cy="-503.73" r="10.00px"/>
<text data-id="12" x="1058.84" y="-503.73">R12</text>
<circle data-id="13" cx="1360.10" cy="-300.41" r="10.00px"/>
<text data-id="13" x="1360.10" y="-300.41">R13</text>
<circle data-id="14" cx="1474.36" cy="-824.11" r="10.00px"/>
<text data-id="14" x="1474.36" y="-824.11">R14</text>
<circle data-id="15" cx="1534.41" cy="-816.35" r="10.00px"/>
<text data-id="15" x="1534.41" y="-816.35">R15</text>
<circle data-id="16" cx="1075.66" cy="-1079.54" r="10.00px"/>
<text data-id="16" x="1075.66" y="-1079.54">R16</text>
<circle data-id="17" cx="466.19" cy="-972.69" r="10.00px"/>
<text data-id="17" x="466.19" y="-972.69">R17</text>
<circle data-id="18" cx="1462.13" cy="-1013.67" r="10.00px"/>
<text data-id="18" x="1462.13" y="-1013.67">R18</text>
<circle data-id="19" cx="1209.91" cy="-599.69" r="10.00px"/>
<text data-id="19" x="1209.91" y="-599.69">R19</text>
<circle data-id="20" cx="1301.05" cy="-1232.34" r="10.00px"/>
<text data-id="20" x="1301.05" y="-1232.34">R20</text>
<circle data-id="21" cx="235.24" cy="-1176.59" r="10.00px"/>
<text data-id="21" x="235.24" y="-1176.59">R21</text>
<circle data-id="22" cx="137.39" cy="-939.62" r="10.00px"/>
<text data-id="22" x="137.39" y="-939.62">R22</text>
<circle data-id="23" cx="853.74" cy="-1299.31" r="10.00px"/>
<text data-id="23" x="853.74" y="-1299.31">R23</text>
<circle data-id="24" cx="1444.69" cy="-186.35" r="10.00px"/>
<text data-id="24" x="1444.69" y="-186.35">R24</text>
<circle data-id="25" cx="305.97" cy="-708.64" r="10.00px"/>
<text data-id="25" x="305.97" y="-708.64">R25</text>
<circle data-id="26" cx="780.29" cy="-504.07" r="10.00px"/>
<text data-id="26" x="780.29" y="-504.07">R26</text>
<circle data-id="27" cx="1071.31" cy="-977.52" r="10.00px"/>
<text data-id="27" x="1071.31" y="-977.52">R27</text>
<circle data-id="28" cx="500.27" cy="-766.14" r="10.00px"/>
<text data-id="28" x="500.27" y="-766.14">R28</text>
<circle data-id="29" cx="892.22" cy="-183.91" r="10.00px"/>
<text data-id="29" x="892.22" y="-183.91">R29</text>
<circle data-id="30" cx="1323.68" cy="-1476.78" r="10.00px"/>
<text data-id="30" x="1323.68" y="-1476.78">R30</text>
<circle data-id="31" cx="1295.36" cy="-89.48" r="10.00px"/>
<text data-id="31" x="1295.36" y="-89.48">R31</text>
<circle data-id="32" cx="275.22" cy="-338.91" r="10.00px"/>
<text data-id="32" x="275.22" y="-338.91">R32</text>
<circle data-id="33" cx="1465.19" cy="-132.53" r="10.00px"/>
<text data-id="33" x="1465.19" y="-132.53">R33</text>
<circle data-id="34" cx="598.17" cy="-571.00" r="10.00px"/>
<text data-id="34" x="598.17" y="-571.00">R34</text>
<circle data-id="35" cx="855.50" cy="-1154.06" r="10.00px"/>
<text data-id="35" x="855.50" y="-1154.06">R35</text>
<circle data-id="36" cx="1403.47" cy="-1273.36" r="10.00px"/>
<text data-id="36" x="1403.47" y="-1273.36">R36</text>
<circle data-id="37" cx="446.90" cy="-1404.36" r="10.00px"/>
<text data-id="37" x="446.90" y="-1404.36">R37</text>
<circle data-id="38" cx="820.56" cy="-249.46" r="10.00px"/>
<text data-id="38" x="820.56" y="-249.46">R38</text>
<circle data-id="39" cx="821.21" cy="-720.77" r="10.00px"/>
<text data-id="39" x="821.21" y="-720.77">R39</text>
<circle data-id="40" cx="514.27" cy="-813.09" r="10.00px"/>
<text data-id="40" x="514.27" y="-813.09">R40</text>
<circle data-id="41" cx="381.67" cy="-187.53" r="10.00px"/>
<text data-id="41" x="381.67" y="-187.53">R41</text>
<circle data-id="42" cx="1478.77" cy="-339.31" r="10.00px"/>
<text data-id="42" x="1478.77" y="-339.31">R42</text>
<circle data-id="43" cx="660.66" cy="-964.72" r="10.00px"/>
<text data-id="43" x="660.66" y="-964.72">R43</text>
<circle data-id="44" cx="160.83" cy="-34.10" r="10.00px"/>
<text data-id="44" x="160.83" y="-34.10">R44</text>
<circle data-id="45" cx="716.21" cy="-1312.35" r="10.00px"/>
<text data-id="45" x="716.21" y="-1312.35">R45</text>
<circle data-id="46" cx="935.89" cy="-411.01" r="10.00px"/>
<text data-id="46" x="935.89" y="-411.01">R46</text>
<circle data-id="47" cx="1449.36" cy="-985.99" r="10.00px"/>
<text data-id="47" x="1449.36" y="-985.99">R47</text>
<circle data-id="48" cx="1059.00" cy="-1343.52" r="10.00px"/>
<text data-id="48" x="1059.00" y="-1343.52">R48</text>
<circle data-id="49" cx="833.47" cy="-1262.83" r="10.00px"/>
<text data-id="49" x="833.47" y="-1262.83">R49</text>
<circle data-id="50" cx="1058.59" cy="-1555.65" r="10.00px"/>
<text data-id="50" x="1058.59" y="-1555.65">R50</text>
<circle data-id="51" cx="1217.84" cy="-573.54" r="10.00px"/>
<text data-id="51" x="1217.84" y="-573.54">R51</text>
<circle data-id="52" cx="1441.65" cy="-676.20" r="10.00px"/>
<text data-id="52" x="1441.65" y="-676.20">R52</text>
<circle data-id="53" cx="1541.65" cy="-1522.38" r="10.00px"/>
<text data-id="53" x="1541.65" y="-1522.38">R53</text>
<circle data-id="54" cx="741.58" cy="-1155.89" r="10.00px"/>
<text data-id="54" x="741.58" y="-1155.89">R54</text>
<circle data-id="55" cx="1221.40" cy="-824.63" r="10.00px"/>
<text data-id="55" x="1221.40" y="-824.63">R55</text>
<circle data-id="56" cx="71.42" cy="-976.53" r="10.00px"/>
<text data-id="56" x="71.42" y="-976.53">R56</text>
<circle data-id="57" cx="213.24" cy="-399.36" r="10.00px"/>
<text data-id="57" x="213.24" y="-399.36">R57</text>
<circle data-id="58" cx="430.52" cy="-1253.27" r="10.00px"/>
<text data-id="58" x="430.52" y="-1253.27">R58</text>
<circle data-id="59" cx="1106.75" cy="-225.61" r="10.00px"/>
<text data-id="59" x="1106.75" y="-225.61">R59</text>
<circle data-id="60" cx="2.81" cy="-819.60" r="10.00px"/>
<text data-id="60" x="2.81" y="-819.60">R60</text>
<circle data-id="61" cx="1425.48" cy="-498.29" r="10.00px"/>
<text data-id="61" x="1425.48" y="-498.29">R61</text>
<circle data-id="62" cx="114.26" cy="-325.36" r="10.00px"/>
<text data-id="62" x="114.26" y="-325.36">R62</text>
<circle data-id="63" cx="42.87" cy="-1115.81" r="10.00px"/>
<text data-id="63" x="42.87" y="-1115.81">R63</text>
<circle data-id="64" cx="1099.62" cy="-1105.52" r="10.00px"/>
<text data-id="64" x="1099.62" y="-1105.52">R64</text>
<circle data-id="65" cx="532.22" cy="-1267.03" r="10.00px"/>
<text data-id="65" x="532.22" y="-1267.03">R65</text>
<circle data-id="66" cx="1257.96" cy="-730.85" r="10.00px"/>
<text data-id="66" x="1257.96" y="-730.85">R66</text>
<circle data-id="67" cx="1002.98" cy="-102.75" r="10.00px"/>
<text data-id="67" x="1002.98" y="-102.75">R67</text>
<circle data-id="68" cx="951.52" cy="-1467.86" r="10.00px"/>
<text data-id="68" x="951.52" y="-1467.86">R68</text>
<circle data-id="69" cx="1004.22" cy="-1241.57" r="10.00px"/>
<text data-id="69" x="1004.22" y="-1241.57">R69</text>
<circle data-id="70" cx="984.73" cy="-778.19" r="10.00px"/>
<text data-id="70" x="984.73" y="-778.19">R70</text>
<circle data-id="71" cx="486.69" cy="-593.07" r="10.00px"/>
<text data-id="71" x="486.69" y="-593.07">R71</text>
<circle data-id="72" cx="1158.50" cy="-637.25" r="10.00px"/>
<text data-id="72" x="1158.50" y="-637.25">R72</text>
<circle data-id="73" cx="620.99" cy="-966.14" r="10.00px"/>
<text data-id="73" x="620.99" y="-966.14">R73</text>
<circle data-id="74" cx="98.49" cy="-346.57" r="10.00px"/>
<text data-id="74" x="98.49" y="-346.57">R74</text>
<circle data-id="75" cx="724.63" cy="-105.84" r="10.00px"/>
<text data-id="75" x="724.63" y="-105.84">R75</text>
<circle data-id="76" cx="1149.95" cy="-1041.62" r="10.00px"/>
<text data-id="76" x="1149.95" y="-1041.62">R76</text>
<circle data-id="77" cx="769.00" cy="-220.83" r="10.00px"/>
<text data-id="77" x="769.00" y="-220.83">R77</text>
<circle data-id="78" cx="912.64" cy="-1307.13" r="10.00px"/>
<text data-id="78" x="912.64" y="-1307.13">R78</text>
<circle data-id="79" cx="345.72" cy="-843.00" r="10.00px"/>
<text data-id="79" x="345.72" y="-843.00">R79</text>
<circle data-id="80" cx="579.32" cy="-506.37" r="10.00px"/>
<text data-id="80" x="579.32" y="-506.37">R80</text>
<circle data-id="81" cx="164.98" cy="-648.28" r="10.00px"/>
<text data-id="81" x="164.98" y="-648.28">R81</text>
<circle data-id="82" cx="1005.72" cy="-806.52" r="10.00px"/>
<text data-id="82" x="1005.72" y="-806.52">R82</text>
<circle data-id="83" cx="430.40" cy="-1476.70" r="10.00px"/>
<text data-id="83" x="430.40" y="-1476.70">R83</text>
<circle data-id="84" cx="712.47" cy="-416.63" r="10.00px"/>
<text data-id="84" x="712.47" y="-416.63">R84</text>
<circle data-id="85" cx="805.28" cy="-217.04" r="10.00px"/>
<text data-id="85" x="805.28" y="-217.04">R85</text>
<circle data-id="86" cx="1008.52" cy="-1517.71" r="10.00px"/>
<text data-id="86" x="1008.52" y="-1517.71">R86</text>
<circle data-id="87" cx="124.37" cy="-194.89" r="10.00px"/>
<text data-id="87" x="124.37" y="-194.89">R87</text>
<circle data-id="88" cx="1030.87" cy="-973.55" r="10.00px"/>
<text data-id="88" x="1030.87" y="-973.55">R88</text>
<circle data-id="89" cx="387.31" cy="-623.00" r="10.00px"/>
<text data-id="89" x="387.31" y="-623.00">R89</text>
<circle data-id="90" cx="1324.20" cy="-1204.05" r="10.00px"/>
<text data-id="90" x="1324.20" y="-1204.05">R90</text>
<circle data-id="91" cx="1156.27" cy="-217.36" r="10.00px"/>
<text data-id="91" x="1156.27" y="-217.36">R91</text>
<circle data-id="92" cx="1467.21" cy="-863.36" r="10.00px"/>
<text data-id="92" x="1467.21" y="-863.36">R92</text>
<circle data-id="93" cx="817.56" cy="-675.98" r="10.00px"/>
<text data-id="93" x="817.56" y="-675.98">R93</text>
<circle data-id="94" cx="320.54" cy="-631.78" r="10.00px"/>
<text data-id="94" x="320.54" y="-631.78">R94</text>
<circle data-id="95" cx="1087.73" cy="-1445.37" r="10.00px"/>
<text data-id="95" x="1087.73" y="-1445.37">R95</text>
<circle data-id="96" cx="417.88" cy="-11.00" r="10.00px"/>
<text data-id="96" x="417.88" y="-11.00">R96</text>
<circle data-id="97" cx="885.79" cy="-1541.43" r="10.00px"/>
<text data-id="97" x="885.79" y="-1541.43">R97</text>
<circle data-id="98" cx="1274.79" cy="-334.72" r="10.00px"/>
<text data-id="98" x="1274.79" y="-334.72">R98</text>
<circle data-id="99" cx="151.78" cy="-674.70" r="10.00px"/>
<text data-id="99" x="151.78" y="-674.70">R99</text>
<circle data-id="100" cx="552.68" cy="-1392.18" r="10.00px"/>
<text data-id="100" x="552.68" y="-1392.18">R100</text>
<circle data-id="101" cx="570.52" cy="-1223.10" r="10.00px"/>
<text data-id="101" x="570.52" y="-1223.10">R101</text>
<circle data-id="102" cx="1443.17" cy="-372.84" r="10.00px"/>
<text data-id="102" x="1443.17" y="-372.84">R102</text>
<circle data-id="103" cx="1238.94" cy="-806.27" r="10.00px"/>
<text data-id="103" x="1238.94" y="-806.27">R103</text>
<circle data-id="104" cx="422.56" cy="-213.13" r="10.00px"/>
<text data-id="104" x="422.56" y="-213.13">R104</text>
<circle data-id="105" cx="61.99" cy="-212.53" r="10.00px"/>
<text data-id="105" x="61.99" y="-212.53">R105</text>
<circle data-id="106" cx="1016.39" cy="-1423.44" r="10.00px"/>
<text data-id="106" x="1016.39" y="-1423.44">R106</text>
<circle data-id="107" cx="246.60" cy="-665.00" r="10.00px"/>
<text data-id="107" x="246.60" y="-665.00">R107</text>
<circle data-id="108" cx="1385.95" cy="-259.58" r="10.00px"/>
<text data-id="108" x="1385.95" y="-259.58">R108</text>
<circle data-id="109" cx="302.81" cy="-413.59" r="10.00px"/>
<text data-id="109" x="302.81" y="-413.59">R109</text>
<circle data-id="110" cx="1549.11" cy="-1268.25" r="10.00px"/>
<text data-id="110" x="1549.11" y="-1268.25">R110</text>
<circle data-id="111" cx="790.81" cy="-1432.87" r="10.00px"/>
<text data-id="111" x="790.81" y="-1432.87">R111</text>
<circle data-id="112" cx="700.02" cy="-998.66" r="10.00px"/>
<text data-id="112" x="700.02" y="-998.66">R112</text>
<circle data-id="113" cx="1331.43" cy="-984.12" r="10.00px"/>
<text data-id="113" x="1331.43" y="-984.12">R113</text>
<circle data-id="114" cx="1385.59" cy="-471.22" r="10.00px"/>
<text data-id="114" x="1385.59" y="-471.22">R114</text>
<circle data-id="115" cx="1353.81" cy="-180.86" r="10.00px"/>
<text data-id="115" x="1353.81" y="-180.86">R115</text>
<circle data-id="116" cx="1229.82" cy="-344.48" r="10.00px"/>
<text data-id="116" x="1229.82" y="-344.48">R116</text>
<circle data-id="117" cx="1242.95" cy="-1333.64" r="10.00px"/>
<text data-id="117" x="1242.95" y="-1333.64">R117</text>
<circle data-id="118" cx="673.74" cy="-703.88" r="10.00px"/>
<text data-id="118" x="673.74" y="-703.88">R118</text>
<circle data-id="119" cx="924.00" cy="-1080.76" r="10.00px"/>
<text data-id="119" x="924.00" y="-1080.76">R119</text>
<circle data-id="120" cx="1143.08" cy="-568.99" r="10.00px"/>
<text data-id="120" x="1143.08" y="-568.99">R120</text>
<circle data-id="121" cx="961.16" cy="-912.26" r="10.00px"/>
<text data-id="121" x="961.16" y="-912.26">R121</text>
<circle data-id="122" cx="1309.77" cy="-229.63" r="10.00px"/>
<text data-id="122" x="1309.77" y="-229.63">R122</text>
<circle data-id="123" cx="840.46" cy="-601.00" r="10.00px"/>
<text data-id="123" x="840.46" y="-601.00">R123</text>
<circle data-id="124" cx="556.20" cy="-933.70" r="10.00px"/>
<text data-id="124" x="556.20" y="-933.70">R124</text>
<circle data-id="125" cx="1532.59" cy="-49.62" r="10.00px"/>
<text data-id="125" x="1532.59" y="-49.62">R125</text>
<circle data-id="126" cx="1248.74" cy="-170.41" r="10.00px"/>
<text data-id="126" x="1248.74" y="-170.41">R126</text>
<circle data-id="127" cx="703.01" cy="-326.96" r="10.00px"/>
<text data-id="127" x="703.01" y="-326.96">R127</text>
<circle data-id="128" cx="1468.13" cy="-53.89" r="10.00px"/>
<text data-id="128" x="1468.13" y="-53.89">R128</text>
<circle data-id="129" cx="754.15" cy="-420.55" r="10.00px"/>
<text data-id="129" x="754.15" y="-420.55">R129</text>
<circle data-id="130" cx="1375.12" cy="-914.69" r="10.00px"/>
<text data-id="130" x="1375.12" y="-914.69">R130</text>
<circle data-id="131" cx="531.72" cy="-891.73" r="10.00px"/>
<text data-id="131" x="531.72" y="-891.73">R131</text>
<circle data-id="132" cx="1347.31" cy="-848.43" r="10.00px"/>
<text data-id="132" x="1347.31" y="-848.43">R132</text>
<circle data-id="133" cx="374.57" cy="-414.34" r="10.00px"/>
<text data-id="133" x="374.57" y="-414.34">R133</text>
<circle data-id="134" cx="569.87" cy="-598.45" r="10.00px"/>
<text data-id="134" x="569.87" y="-598.45">R134</text>
<circle data-id="135" cx="1501.30" cy="-803.11" r="10.00px"/>
<text data-id="135" x="1501.30" y="-803.11">R135</text>
<circle data-id="136" cx="1123.77" cy="-848.01" r="10.00px"/>
<text data-id="136" x="1123.77" y="-848.01">R136</text>
<circle data-id="137" cx="1044.35" cy="-653.90" r="10.00px"/>
<text data-id="137" x="1044.35" y="-653.90">R137</text>
<circle data-id="138" cx="355.20" cy="-1483.86" r="10.00px"/>
<text data-id="138" x="355.20" y="-1483.86">R138</text>
<circle data-id="139" cx="1533.95" cy="-1036.29" r="10.00px"/>
<text data-id="139" x="1533.95" y="-1036.29">R139</text>
<circle data-id="140" cx="502.85" cy="-1407.99" r="10.00px"/>
<text data-id="140" x="502.85" y="-1407.99">R140</text>
<circle data-id="141" cx="744.87" cy="-681.63" r="10.00px"/>
<text data-id="141" x="744.87" y="-681.63">R141</text>
<circle data-id="142" cx="1033.69" cy="-450.53" r="10.00px"/>
<text data-id="142" x="1033.69" y="-450.53">R142</text>
<circle data-id="143" cx="1402.12" cy="-310.85" r="10.00px"/>
<text data-id="143" x="1402.12" y="-310.85">R143</text>
<circle data-id="144" cx="470.95" cy="-176.72" r="10.00px"/>
<text data-id="144" x="470.95" y="-176.72">R144</text>
<circle data-id="145" cx="1125.34" cy="-660.90" r="10.00px"/>
<text data-id="145" x="1125.34" y="-660.90">R145</text>
<circle data-id="146" cx="1178.82" cy="-1013.01" r="10.00px"/>
<text data-id="146" x="1178.82" y="-1013.01">R146</text>
<circle data-id="147" cx="900.50" cy="-517.98" r="10.00px"/>
<text data-id="147" x="900.50" y="-517.98">R147</text>
<circle data-id="148" cx="1283.42" cy="-58.57" r="10.00px"/>
<text data-id="148" x="1283.42" y="-58.57">R148</text>
<circle data-id="149" cx="1359.29" cy="-357.54" r="10.00px"/>
<text data-id="149" x="1359.29" y="-357.54">R149</text>
<circle data-id="150" cx="976.84" cy="-1288.11" r="10.00px"/>
<text data-id="150" x="976.84" y="-1288.11">R150</text>
<circle data-id="151" cx="1067.00" cy="-865.26" r="10.00px"/>
<text data-id="151" x="1067.00" y="-865.26">R151</text>
<circle data-id="152" cx="244.49" cy="-1581.01" r="10.00px"/>
<text data-id="152" x="244.49" y="-1581.01">R152</text>
<circle data-id="153" cx="1377.74" cy="-1242.56" r="10.00px"/>
<text data-id="153" x="1377.74" y="-1242.56">R153</text>
<circle data-id="154" cx="1436.02" cy="-1317.06" r="10.00px"/>
<text data-id="154" x="1436.02" y="-1317.06">R154</text>
<circle data-id="155" cx="981.31" cy="-1054.64" r="10.00px"/>
<text data-id="155" x="981.31" y="-1054.64">R155</text>
<circle data-id="156" cx="1356.53" cy="-620.58" r="10.00px"/>
<text data-id="156" x="1356.53" y="-620.58">R156</text>
<circle data-id="157" cx="323.72" cy="-906.27" r="10.00px"/>
<text data-id="157" x="323.72" y="-906.27">R157</text>
<circle data-id="158" cx="50.11" cy="-917.72" r="10.00px"/>
<text data-id="158" x="50.11" y="-917.72">R158</text>
<circle data-id="159" cx="1207.94" cy="-307.16" r="10.00px"/>
<text data-id="159" x="1207.94" y="-307.16">R159</text>
<circle data-id="160" cx="36.70" cy="-1148.87" r="10.00px"/>
<text data-id="160" x="36.70" y="-1148.87">R160</text>
<circle data-id="161" cx="355.64" cy="-228.92" r="10.00px"/>
<text data-id="161" x="355.64" y="-228.92">R161</text>
<circle data-id="162" cx="999.20" cy="-569.82" r="10.00px"/>
<text data-id="162" x="999.20" y="-569.82">R162</text>
<circle data-id="163" cx="877.50" cy="-1011.93" r="10.00px"/>
<text data-id="163" x="877.50" y="-1011.93">R163</text>
<circle data-id="164" cx="1056.83" cy="-73.61" r="10.00px"/>
<text data-id="164" x="1056.83" y="-73.61">R164</text>
<circle data-id="165" cx="1069.59" cy="-288.70" r="10.00px"/>
<text data-id="165" x="1069.59" y="-288.70">R165</text>
<circle data-id="166" cx="878.19" cy="-1378.62" r="10.00px"/>
<text data-id="166" x="878.19" y="-1378.62">R166</text>
<circle data-id="167" cx="472.14" cy="-506.06" r="10.00px"/>
<text data-id="167" x="472.14" y="-506.06">R167</text>
<circle data-id="168" cx="1174.05" cy="-1251.26" r="10.00px"/>
<text data-id="168" x="1174.05" y="-1251.26">R168</text>
<circle data-id="169" cx="1418.15" cy="-236.72" r="10.00px"/>
<text data-id="169" x="1418.15" y="-236.72">R169</text>
<circle data-id="170" cx="589.15" cy="-1478.31" r="10.00px"/>
<text data-id="170" x="589.15" y="-1478.31">R170</text>
<circle data-id="171" cx="1056.65" cy="-1008.40" r="10.00px"/>
<text data-id="171" x="1056.65" y="-1008.40">R171</text>
<circle data-id="172" cx="319.52" cy="-1121.32" r="10.00px"/>
<text data-id="172" x="319.52" y="-1121.32">R172</text>
<circle data-id="173" cx="967.56" cy="-525.98" r="10.00px"/>
<text data-id="173" x="967.56" y="-525.98">R173</text>
<circle data-id="174" cx="754.34" cy="-543.86" r="10.00px"/>
<text data-id="174" x="754.34" y="-543.86">R174</text>
<circle data-id="175" cx="47.05" cy="-490.29" r="10.00px"/>
<text data-id="175" x="47.05" y="-490.29">R175</text>
<circle data-id="176" cx="1092.54" cy="-607.91" r="10.00px"/>
<text data-id="176" x="1092.54" y="-607.91">R176</text>
<circle data-id="177" cx="332.95" cy="-49.43" r="10.00px"/>
<text data-id="177" x="332.95" y="-49.43">R177</text>
<circle data-id="178" cx="263.53" cy="-1378.24" r="10.00px"/>
<text data-id="178" x="263.53" y="-1378.24">R178</text>
<circle data-id="179" cx="238.18" cy="-1307.95" r="10.00px"/>
<text data-id="179" x="238.18" y="-1307.95">R179</text>
<circle data-id="180" cx="1519.00" cy="-181.43" r="10.00px"/>
<text data-id="180" x="1519.00" y="-181.43">R180</text>
<circle data-id="181" cx="573.66" cy="-182.88" r="10.00px"/>
<text data-id="181" x="573.66" y="-182.88">R181</text>
<circle data-id="182" cx="408.22" cy="-583.50" r="10.00px"/>
<text data-id="182" x="408.22" y="-583.50">R182</text>
<circle data-id="183" cx="1103.10" cy="-697.83" r="10.00px"/>
<text data-id="183" x="1103.10" y="-697.83">R183</text>
<circle data-id="184" cx="734.00" cy="-3.38" r="10.00px"/>
<text data-id="184" x="734.00" y="-3.38">R184</text>
<circle data-id="185" cx="315.55" cy="-188.11" r="10.00px"/>
<text data-id="185" x="315.55" y="-188.11">R185</text>
<circle data-id="186" cx="817.89" cy="-806.48" r="10.00px"/>
<text data-id="186" x="817.89" y="-806.48">R186</text>
<circle data-id="187" cx="1447.56" cy="-929.62" r="10.00px"/>
<text data-id="187" x="1447.56" y="-929.62">R187</text>
<circle data-id="188" cx="375.83" cy="-1403.01" r="10.00px"/>
<text data-id="188" x="375.83" y="-1403.01">R188</text>
<circle data-id="189" cx="383.00" cy="-152.75" r="10.00px"/>
<text data-id="189" x="383.00" y="-152.75">R189</text>
<circle data-id="190" cx="336.82" cy="-1145.18" r="10.00px"/>
<text data-id="190" x="336.82" y="-1145.18">R190</text>
<circle data-id="191" cx="244.48" cy="-802.60" r="10.00px"/>
<text data-id="191" x="244.48" y="-802.60">R191</text>
<circle data-id="192" cx="474.08" cy="-829.80" r="10.00px"/>
<text data-id="192" x="474.08" y="-829.80">R192</text>
<circle data-id="193" cx="322.92" cy="-337.05" r="10.00px"/>
<text data-id="193" x="322.92" y="-337.05">R193</text>
<circle data-id="194" cx="519.73" cy="-935.74" r="10.00px"/>
<text data-id="194" x="519.73" y="-935.74">R194</text>
<circle data-id="195" cx="338.69" cy="-1303.01" r="10.00px"/>
<text data-id="195" x="338.69" y="-1303.01">R195</text>
<circle data-id="196" cx="1537.88" cy="-957.98" r="10.00px"/>
<text data-id="196" x="1537.88" y="-957.98">R196</text>
<circle data-id="197" cx="409.81" cy="-371.70" r="10.00px"/>
<text data-id="197" x="409.81" y="-371.70">R197</text>
<circle data-id="198" cx="982.73" cy="-1550.16" r="10.00px"/>
<text data-id="198" x="982.73" y="-1550.16">R198</text>
<circle data-id="199" cx="459.74" cy="-760.67" r="10.00px"/>
<text data-id="199" x="459.74" y="-760.67">R199</text>
<circle data-id="200" cx="1304.45" cy="-728.94" r="10.00px"/>
<text data-id="200" x="1304.45" y="-728.94">R200</text>
<circle data-id="201" cx="40.73" cy="-1224.87" r="10.00px"/>
<text data-id="201" x="40.73" y="-1224.87">R201</text>
<circle data-id="202" cx="298.51" cy="-974.20" r="10.00px"/>
<text data-id="202" x="298.51" y="-974.20">R202</text>
<circle data-id="203" cx="1470.12" cy="-1539.09" r="10.00px"/>
<text data-id="203" x="1470.12" y="-1539.09">R203</text>
<circle data-id="204" cx="277.45" cy="-592.24" r="10.00px"/>
<text data-id="204" x="277.45" y="-592.24">R204</text>
<circle data-id="205" cx="1264.30" cy="-1091.65" r="10.00px"/>
<text data-id="205" x="1264.30" y="-1091.65">R205</text>
<circle data-id="206" cx="1176.67" cy="-566.43" r="10.00px"/>
<text data-id="206" x="1176.67" y="-566.43">R206</text>
<circle data-id="207" cx="1450.88" cy="-596.04" r="10.00px"/>
<text data-id="207" x="1450.88" y="-596.04">R207</text>
<circle data-id="208" cx="515.62" cy="-626.46" r="10.00px"/>
<text data-id="208" x="515.62" y="-626.46">R208</text>
<circle data-id="209" cx="1037.14" cy="-1076.73" r="10.00px"/>
<text data-id="209" x="1037.14" y="-1076.73">R209</text>
<circle data-id="210" cx="741.20" cy="-1014.46" r="10.00px"/>
<text data-id="210" x="741.20" y="-1014.46">R210</text>
<circle data-id="211" cx="1164.61" cy="-1393.66" r="10.00px"/>
<text data-id="211" x="1164.61" y="-1393.66">R211</text>
<circle data-id="212" cx="363.94" cy="-75.88" r="10.00px"/>
<text data-id="212" x="363.94" y="-75.88">R212</text>
<circle data-id="213" cx="168.74" cy="-375.02" r="10.00px"/>
<text data-id="213" x="168.74" y="-375.02">R213</text>
<circle data-id="214" cx="162.42" cy="-984.22" r="10.00px"/>
<text data-id="214" x="162.42" y="-984.22">R214</text>
<circle data-id="215" cx="283.12" cy="-375.00" r="10.00px"/>
<text data-id="215" x="283.12" y="-375.00">R215</text>
<circle data-id="216" cx="670.49" cy="-174.48" r="10.00px"/>
<text data-id="216" x="670.49" y="-174.48">R216</text>
<circle data-id="217" cx="23.01" cy="-150.04" r="10.00px"/>
<text data-id="217" x="23.01" y="-150.04">R217</text>
<circle data-id="218" cx="540.96" cy="-779.22" r="10.00px"/>
<text data-id="218" x="540.96" y="-779.22">R218</text>
<circle data-id="219" cx="390.69" cy="-1340.78" r="10.00px"/>
<text data-id="219" x="390.69" y="-1340.78">R219</text>
<circle data-id="220" cx="1123.50" cy="-521.06" r="10.00px"/>
<text data-id="220" x="1123.50" y="-521.06">R220</text>
<circle data-id="221" cx="868.95" cy="-754.05" r="10.00px"/>
<text data-id="221" x="868.95" y="-754.05">R221</text>
<circle data-id="222" cx="399.46" cy="-1436.27" r="10.00px"/>
<text data-id="222" x="399.46" y="-1436.27">R222</text>
<circle data-id="223" cx="453.95" cy="-1556.57" r="10.00px"/>
<text data-id="223" x="453.95" y="-1556.57">R223</text>
<circle data-id="224" cx="1477.11" cy="-1119.77" r="10.00px"/>
<text data-id="224" x="1477.11" y="-1119.77">R224</text>
<circle data-id="225" cx="787.65" cy="-338.16" r="10.00px"/>
<text data-id="225" x="787.65" y="-338.16">R225</text>
<circle data-id="226" cx="990.83" cy="-609.78" r="10.00px"/>
<text data-id="226" x="990.83" y="-609.78">R226</text>
<circle data-id="227" cx="942.76" cy="-558.35" r="10.00px"/>
<text data-id="227" x="942.76" y="-558.35">R227</text>
<circle data-id="228" cx="0.30" cy="-1073.82" r="10.00px"/>
<text data-id="228" x="0.30" y="-1073.82">R228</text>
<circle data-id="229" cx="890.73" cy="-367.02" r="10.00px"/>
<text data-id="229" x="890.73" y="-367.02">R229</text>
<circle data-id="230" cx="1142.41" cy="-1539.07" r="10.00px"/>
<text data-id="230" x="1142.41" y="-1539.07">R230</text>
<circle data-id="231" cx="481.44" cy="-631.63" r="10.00px"/>
<text data-id="231" x="481.44" y="-631.63">R231</text>
<circle data-id="232" cx="1476.70" cy="-1507.98" r="10.00px"/>
<text data-id="232" x="1476.70" y="-1507.98">R232</text>
<circle data-id="233" cx="922.73" cy="-969.60" r="10.00px"/>
<text data-id="233" x="922.73" y="-969.60">R233</text>
<circle data-id="234" cx="1234.48" cy="-1405.62" r="10.00px"/>
<text data-id="234" x="1234.48" y="-1405.62">R234</text>
<circle data-id="235" cx="851.48" cy="-790.94" r="10.00px"/>
<text data-id="235" x="851.48" y="-790.94">R235</text>
<circle data-id="236" cx="580.73" cy="-382.32" r="10.00px"/>
<text data-id="236" x="580.73" y="-382.32">R236</text>
<circle data-id="237" cx="100.05" cy="-3.98" r="10.00px"/>
<text data-id="237" x="100.05" y="-3.98">R237</text>
<circle data-id="238" cx="582.58" cy="-632.35" r="10.00px"/>
<text data-id="238" x="582.58" y="-632.35">R238</text>
<circle data-id="239" cx="809.35" cy="-1088.84" r="10.00px"/>
<text data-id="239" x="809.35" y="-1088.84">R239</text>
<circle data-id="240" cx="533.39" cy="-186.33" r="10.00px"/>
<text data-id="240" x="533.39" y="-186.33">R240</text>
<circle data-id="241" cx="628.93" cy="-80.98" r="10.00px"/>
<text data-id="241" x="628.93" y="-80.98">R241</text>
<circle data-id="242" cx="820.34" cy="-389.95" r="10.00px"/>
<text data-id="242" x="820.34" y="-389.95">R242</text>
<circle data-id="243" cx="838.43" cy="-1579.80" r="10.00px"/>
<text data-id="243" x="838.43" y="-1579.80">R243</text>
<circle data-id="244" cx="1113.76" cy="-1484.97" r="10.00px"/>
<text data-id="244" x="1113.76" y="-1484.97">R244</text>
<circle data-id="245" cx="364.71" cy="-134.90" r="10.00px"/>
<text data-id="245" x="364.71" y="-134.90">R245</text>
<circle data-id="246" cx="799.89" cy="-926.17" r="10.00px"/>
<text data-id="246" x="799.89" y="-926.17">R246</text>
<circle data-id="247" cx="1048.35" cy="-1037.97" r="10.00px"/>
<text data-id="247" x="1048.35" y="-1037.97">R247</text>
<circle data-id="248" cx="1088.15" cy="-952.36" r="10.00px"/>
<text data-id="248" x="1088.15" y="-952.36">R248</text>
<circle data-id="249" cx="614.46" cy="-1258.50" r="10.00px"/>
<text data-id="249" x="614.46" y="-1258.50">R249</text>
</svg>
