<svg width="1953.10" height="1941.85" viewBox="-39.52 -32.37 1953.10 1941.85" xmlns="http://www.w3.org/2000/svg">
<style>path {fill: none; stroke: grey; stroke-width: 6;} circle {fill: lightblue; stroke: none;} text {fill: black; stroke: none; font-size: 16; font-family: sans-serif; text-anchor:middle;}</style>
<path d="M1664.93,1501.33,1659.33,1542.21"/>
<path d="M1664.93,1501.33,1688.29,1424.01"/>
<path d="M751.22,1254.74,802.61,1348.50"/>
<path d="M751.22,1254.74,693.39,1287.61"/>
<path d="M751.22,1254.74,691.24,1153.61"/>
<path d="M751.22,1254.74,775.36,1247.37"/>
<path d="M1218.68,1826.48,1274.14,1733.48"/>
<path d="M1218.68,1826.48,1180.91,1852.80"/>
<path d="M1218.68,1826.48,1301.81,1818.91"/>
<path d="M1218.68,1826.48,1162.47,1708.23"/>
<path d="M1410.41,328.37,1460.40,340.72"/>
<path d="M1410.41,328.37,1462.03,289.58"/>
<path d="M1410.41,328.37,1383.14,351.87"/>
<path d="M1103.54,1326.98,904.18,1305.18"/>
<path d="M1103.54,1326.98,1169.10,1445.02"/>
<path d="M1103.54,1326.98,1068.35,1440.86"/>
<path d="M1103.54,1326.98,1147.26,1292.44"/>
<path d="M1807.10,909.39,1808.23,977.30"/>
<path d="M1807.10,909.39,1794.68,877.87"/>
<path d="M441.50,1417.95,470.24,1500.87"/>
<path d="M441.50,1417.95,403.98,1484.82"/>
<path d="M441.50,1417.95,313.50,1348.74"/>
<path d="M441.50,1417.95,453.67,1325.40"/>
<path d="M441.50,1417.95,499.42,1413.79"/>
<path d="M544.15,718.78,503.99,715.00"/>
<path d="M544.15,718.78,627.11,709.74"/>
<path d="M544.15,718.78,558.67,661.71"/>
<path d="M1660.30,1726.25,1568.07,1751.23"/>
<path d="M1660.30,1726.25,1642.33,1634.87"/>
<path d="M1660.30,1726.25,1785.42,1660.89"/>
<path d="M1660.30,1726.25,1611.28,1646.97"/>
<path d="M1660.30,1726.25,1752.03,1621.70"/>
<path d="M901.30,983.33,758.08,920.45"/>
<path d="M901.30,983.33,777.22,1051.03"/>
<path d="M901.30,983.33,924.97,964.23"/>
<path d="M901.30,983.33,990.11,1046.26"/>
<path d="M870.39,1272.83,802.61,1348.50"/>
<path d="M870.39,1272.83,904.18,1305.18"/>
<path d="M870.39,1272.83,775.36,1247.37"/>
<path d="M802.61,1348.50,693.39,1287.61"/>
<path d="M802.61,1348.50,791.46,1401.55"/>
<path d="M802.61,1348.50,904.18,1305.18"/>
<path d="M802.61,1348.50,775.36,1247.37"/>
<path d="M1016.34,533.74,1118.14,648.08"/>
<path d="M1016.34,533.74,992.10,511.03"/>
<path d="M1016.34,533.74,977.02,696.97"/>
<path d="M1016.34,533.74,1045.82,456.80"/>
<path d="M322.98,1681.28,344.73,1640.29"/>
<path d="M322.98,1681.28,241.12,1679.17"/>
<path d="M322.98,1681.28,384.73,1768.89"/>
<path d="M322.98,1681.28,388.65,1682.43"/>
<path d="M565.79,1489.46,470.24,1500.87"/>
<path d="M565.79,1489.46,554.70,1597.14"/>
<path d="M565.79,1489.46,561.53,1450.30"/>
<path d="M565.79,1489.46,678.53,1507.70"/>
<path d="M693.39,1287.61,634.40,1359.65"/>
<path d="M693.39,1287.61,691.24,1153.61"/>
<path d="M693.39,1287.61,637.80,1268.88"/>
<path d="M1568.07,1751.23,1505.52,1776.49"/>
<path d="M1568.07,1751.23,1499.52,1684.55"/>
<path d="M1568.07,1751.23,1611.28,1646.97"/>
<path d="M1568.07,1751.23,1578.06,1637.04"/>
<path d="M353.46,345.18,361.97,208.30"/>
<path d="M353.46,345.18,270.59,236.26"/>
<path d="M353.46,345.18,396.71,382.34"/>
<path d="M353.46,345.18,249.00,259.30"/>
<path d="M353.46,345.18,261.27,374.12"/>
<path d="M1336.32,1839.80,1301.81,1818.91"/>
<path d="M1336.32,1839.80,1413.64,1782.21"/>
<path d="M103.41,1233.18,195.43,1288.14"/>
<path d="M103.41,1233.18,185.19,1138.35"/>
<path d="M103.41,1233.18,5.48,1348.31"/>
<path d="M103.41,1233.18,71.03,1204.23"/>
<path d="M1808.23,977.30,1791.19,1038.64"/>
<path d="M1808.23,977.30,1723.53,1012.43"/>
<path d="M690.98,24.11,681.56,54.39"/>
<path d="M690.98,24.11,862.45,20.89"/>
<path d="M791.46,1401.55,634.40,1359.65"/>
<path d="M791.46,1401.55,750.59,1476.44"/>
<path d="M720.14,486.87,608.38,440.98"/>
<path d="M720.14,486.87,550.66,591.40"/>
<path d="M720.14,486.87,722.89,334.11"/>
<path d="M720.14,486.87,734.46,528.14"/>
<path d="M1347.07,963.70,1416.90,1072.80"/>
<path d="M1347.07,963.70,1489.97,852.88"/>
<path d="M1347.07,963.70,1483.50,1030.06"/>
<path d="M1347.07,963.70,1321.59,964.34"/>
<path d="M1347.07,963.70,1331.75,865.70"/>
<path d="M1115.78,902.03,1039.40,915.42"/>
<path d="M1115.78,902.03,1077.51,960.94"/>
<path d="M1115.78,902.03,1139.50,881.30"/>
<path d="M174.19,1806.56,241.12,1679.17"/>
<path d="M174.19,1806.56,367.32,1787.41"/>
<path d="M174.19,1806.56,100.05,1608.01"/>
<path d="M174.19,1806.56,91.93,1827.55"/>
<path d="M680.46,158.22,598.89,196.35"/>
<path d="M680.46,158.22,629.12,122.57"/>
<path d="M680.46,158.22,705.76,191.86"/>
<path d="M680.46,158.22,681.56,54.39"/>
<path d="M940.20,490.46,782.65,521.68"/>
<path d="M940.20,490.46,911.51,577.79"/>
<path d="M940.20,490.46,992.10,511.03"/>
<path d="M940.20,490.46,873.85,382.91"/>
<path d="M1487.00,769.60,1438.19,728.63"/>
<path d="M1487.00,769.60,1489.97,852.88"/>
<path d="M1487.00,769.60,1529.16,781.54"/>
<path d="M1487.00,769.60,1524.89,643.96"/>
<path d="M904.18,1305.18,1068.35,1440.86"/>
<path d="M904.18,1305.18,1022.38,1187.91"/>
<path d="M1851.52,124.34,1813.39,161.70"/>
<path d="M235.69,1482.83,224.57,1417.71"/>
<path d="M235.69,1482.83,313.63,1579.61"/>
<path d="M235.69,1482.83,185.90,1482.16"/>
<path d="M235.69,1482.83,290.24,1441.84"/>
<path d="M758.08,920.45,923.15,920.79"/>
<path d="M758.08,920.45,745.71,1029.26"/>
<path d="M758.08,920.45,656.73,983.91"/>
<path d="M758.08,920.45,865.17,715.21"/>
<path d="M758.08,920.45,635.22,737.07"/>
<path d="M758.08,920.45,710.60,710.79"/>
<path d="M1585.05,1087.23,1522.42,1085.49"/>
<path d="M1585.05,1087.23,1611.17,1094.05"/>
<path d="M1585.05,1087.23,1598.28,1038.00"/>
<path d="M1214.30,1039.91,1277.36,965.91"/>
<path d="M1214.30,1039.91,1160.68,903.13"/>
<path d="M1214.30,1039.91,1250.43,1200.92"/>
<path d="M1214.30,1039.91,1108.64,1030.24"/>
<path d="M321.34,1446.27,313.63,1579.61"/>
<path d="M321.34,1446.27,403.98,1484.82"/>
<path d="M321.34,1446.27,313.50,1348.74"/>
<path d="M321.34,1446.27,290.24,1441.84"/>
<path d="M1642.33,1634.87,1611.28,1646.97"/>
<path d="M1642.33,1634.87,1752.03,1621.70"/>
<path d="M1642.33,1634.87,1648.03,1584.05"/>
<path d="M1659.33,1542.21,1540.02,1526.18"/>
<path d="M1659.33,1542.21,1648.03,1584.05"/>
<path d="M1659.33,1542.21,1725.47,1554.79"/>
<path d="M1631.21,408.57,1674.82,586.93"/>
<path d="M1631.21,408.57,1664.13,268.00"/>
<path d="M1631.21,408.57,1708.50,377.21"/>
<path d="M1631.21,408.57,1579.36,571.83"/>
<path d="M1631.21,408.57,1589.28,397.49"/>
<path d="M1554.91,12.63,1674.60,45.00"/>
<path d="M1554.91,12.63,1506.26,25.48"/>
<path d="M1102.06,98.72,1072.09,59.01"/>
<path d="M1102.06,98.72,1000.08,209.62"/>
<path d="M1102.06,98.72,1119.30,79.42"/>
<path d="M1102.06,98.72,1194.88,191.96"/>
<path d="M344.73,1640.29,313.63,1579.61"/>
<path d="M344.73,1640.29,388.65,1682.43"/>
<path d="M470.24,1500.87,491.19,1646.00"/>
<path d="M470.24,1500.87,554.70,1597.14"/>
<path d="M470.24,1500.87,403.98,1484.82"/>
<path d="M470.24,1500.87,503.36,1442.41"/>
<path d="M241.12,1679.17,313.63,1579.61"/>
<path d="M241.12,1679.17,100.05,1608.01"/>
<path d="M241.12,1679.17,181.19,1530.94"/>
<path d="M532.47,59.30,516.85,108.71"/>
<path d="M532.47,59.30,629.12,122.57"/>
<path d="M135.90,496.04,135.21,467.48"/>
<path d="M135.90,496.04,164.68,533.71"/>
<path d="M135.90,496.04,78.96,566.38"/>
<path d="M135.90,496.04,54.80,496.80"/>
<path d="M135.21,467.48,261.27,374.12"/>
<path d="M135.21,467.48,77.95,358.94"/>
<path d="M135.21,467.48,267.37,459.12"/>
<path d="M135.21,467.48,54.80,496.80"/>
<path d="M923.15,920.79,865.17,715.21"/>
<path d="M923.15,920.79,1039.40,915.42"/>
<path d="M923.15,920.79,945.01,707.46"/>
<path d="M923.15,920.79,924.97,964.23"/>
<path d="M1377.43,1282.66,1511.64,1354.04"/>
<path d="M1377.43,1282.66,1403.77,1177.09"/>
<path d="M1377.43,1282.66,1250.43,1200.92"/>
<path d="M1377.43,1282.66,1355.36,1456.00"/>
<path d="M491.19,1646.00,554.70,1597.14"/>
<path d="M491.19,1646.00,596.75,1788.68"/>
<path d="M491.19,1646.00,388.65,1682.43"/>
<path d="M491.19,1646.00,464.77,1770.79"/>
<path d="M40.45,1036.81,124.68,996.97"/>
<path d="M40.45,1036.81,17.74,986.69"/>
<path d="M40.45,1036.81,185.19,1138.35"/>
<path d="M40.45,1036.81,71.03,1204.23"/>
<path d="M285.91,1126.44,326.37,1084.33"/>
<path d="M285.91,1126.44,216.17,1115.23"/>
<path d="M285.91,1126.44,258.64,1265.86"/>
<path d="M983.20,1619.94,1072.14,1645.98"/>
<path d="M983.20,1619.94,943.65,1569.97"/>
<path d="M983.20,1619.94,868.29,1640.89"/>
<path d="M983.20,1619.94,1047.46,1726.84"/>
<path d="M983.20,1619.94,1005.90,1589.41"/>
<path d="M492.39,116.95,361.97,208.30"/>
<path d="M492.39,116.95,516.85,108.71"/>
<path d="M492.39,116.95,540.83,242.64"/>
<path d="M1809.80,248.44,1664.13,268.00"/>
<path d="M1809.80,248.44,1868.59,329.01"/>
<path d="M1809.80,248.44,1814.68,344.37"/>
<path d="M1809.80,248.44,1813.39,161.70"/>
<path d="M1460.40,340.72,1473.38,406.12"/>
<path d="M1460.40,340.72,1462.03,289.58"/>
<path d="M641.24,1092.56,560.20,1077.08"/>
<path d="M641.24,1092.56,691.24,1153.61"/>
<path d="M641.24,1092.56,675.01,1016.32"/>
<path d="M829.76,1525.57,750.59,1476.44"/>
<path d="M829.76,1525.57,855.63,1566.26"/>
<path d="M829.76,1525.57,887.91,1514.47"/>
<path d="M538.84,508.04,608.38,440.98"/>
<path d="M538.84,508.04,514.91,384.19"/>
<path d="M538.84,508.04,502.84,522.43"/>
<path d="M538.84,508.04,550.66,591.40"/>
<path d="M1690.29,1163.16,1674.63,1190.36"/>
<path d="M1690.29,1163.16,1791.19,1038.64"/>
<path d="M1690.29,1163.16,1723.53,1012.43"/>
<path d="M1690.29,1163.16,1611.17,1094.05"/>
<path d="M1690.29,1163.16,1847.80,1198.66"/>
<path d="M224.57,1417.71,176.09,1399.62"/>
<path d="M224.57,1417.71,313.50,1348.74"/>
<path d="M224.57,1417.71,186.38,1436.22"/>
<path d="M224.57,1417.71,290.24,1441.84"/>
<path d="M598.89,196.35,516.85,108.71"/>
<path d="M598.89,196.35,677.45,263.79"/>
<path d="M598.89,196.35,629.12,122.57"/>
<path d="M598.89,196.35,540.83,242.64"/>
<path d="M1274.14,1733.48,1301.81,1818.91"/>
<path d="M1274.14,1733.48,1312.83,1699.54"/>
<path d="M1274.14,1733.48,1162.47,1708.23"/>
<path d="M1274.14,1733.48,1215.44,1634.22"/>
<path d="M543.98,1853.92,592.17,1850.11"/>
<path d="M543.98,1853.92,483.95,1806.23"/>
<path d="M543.98,1853.92,468.67,1864.33"/>
<path d="M1180.91,1852.80,1047.46,1726.84"/>
<path d="M634.40,1359.65,581.01,1433.37"/>
<path d="M634.40,1359.65,750.59,1476.44"/>
<path d="M634.40,1359.65,637.80,1268.88"/>
<path d="M634.40,1359.65,557.28,1409.81"/>
<path d="M68.46,842.23,165.16,918.31"/>
<path d="M68.46,842.23,119.12,813.76"/>
<path d="M68.46,842.23,17.74,986.69"/>
<path d="M1490.39,232.42,1462.03,289.58"/>
<path d="M1490.39,232.42,1664.13,268.00"/>
<path d="M1490.39,232.42,1471.27,199.40"/>
<path d="M1763.30,1406.52,1688.29,1424.01"/>
<path d="M1763.30,1406.52,1715.92,1330.83"/>
<path d="M1763.30,1406.52,1725.47,1554.79"/>
<path d="M1277.36,965.91,1291.74,844.63"/>
<path d="M1277.36,965.91,1160.68,903.13"/>
<path d="M1277.36,965.91,1321.59,964.34"/>
<path d="M1470.94,1131.99,1461.55,1167.89"/>
<path d="M1470.94,1131.99,1522.42,1085.49"/>
<path d="M1470.94,1131.99,1419.08,1109.60"/>
<path d="M361.97,208.30,540.83,242.64"/>
<path d="M361.97,208.30,497.63,353.01"/>
<path d="M361.97,208.30,290.42,194.77"/>
<path d="M554.70,1597.14,635.36,1612.70"/>
<path d="M445.10,388.41,425.76,482.55"/>
<path d="M445.10,388.41,514.91,384.19"/>
<path d="M445.10,388.41,396.71,382.34"/>
<path d="M445.10,388.41,497.63,353.01"/>
<path d="M1242.54,1560.07,1261.65,1481.21"/>
<path d="M1242.54,1560.07,1152.46,1514.95"/>
<path d="M1242.54,1560.07,1215.44,1634.22"/>
<path d="M1242.54,1560.07,1319.33,1551.00"/>
<path d="M534.06,1027.14,560.20,1077.08"/>
<path d="M534.06,1027.14,656.73,983.91"/>
<path d="M534.06,1027.14,326.37,1084.33"/>
<path d="M534.06,1027.14,434.27,803.40"/>
<path d="M385.86,601.45,503.99,715.00"/>
<path d="M385.86,601.45,412.43,565.61"/>
<path d="M385.86,601.45,354.77,666.60"/>
<path d="M385.86,601.45,300.79,572.64"/>
<path d="M1261.65,1481.21,1326.63,1452.67"/>
<path d="M1261.65,1481.21,1152.46,1514.95"/>
<path d="M1261.65,1481.21,1169.10,1445.02"/>
<path d="M1261.65,1481.21,1319.33,1551.00"/>
<path d="M1505.52,1776.49,1499.52,1684.55"/>
<path d="M1505.52,1776.49,1529.94,1859.95"/>
<path d="M1505.52,1776.49,1413.64,1782.21"/>
<path d="M1745.72,836.83,1794.68,877.87"/>
<path d="M1745.72,836.83,1615.75,873.00"/>
<path d="M1745.72,836.83,1653.89,980.63"/>
<path d="M1745.72,836.83,1779.99,746.81"/>
<path d="M1745.72,836.83,1633.07,713.02"/>
<path d="M1511.64,1354.04,1555.76,1367.58"/>
<path d="M1511.64,1354.04,1588.49,1222.13"/>
<path d="M1511.64,1354.04,1503.23,1193.05"/>
<path d="M1511.64,1354.04,1355.36,1456.00"/>
<path d="M1511.64,1354.04,1403.66,1501.68"/>
<path d="M1540.02,1526.18,1427.80,1599.14"/>
<path d="M1540.02,1526.18,1552.60,1590.46"/>
<path d="M1540.02,1526.18,1555.76,1367.58"/>
<path d="M1540.02,1526.18,1403.66,1501.68"/>
<path d="M378.00,796.78,400.79,744.63"/>
<path d="M378.00,796.78,434.27,803.40"/>
<path d="M378.00,796.78,322.62,792.70"/>
<path d="M1145.20,1238.40,1250.43,1200.92"/>
<path d="M1145.20,1238.40,1133.34,1270.41"/>
<path d="M1145.20,1238.40,1022.38,1187.91"/>
<path d="M1145.20,1238.40,1108.64,1030.24"/>
<path d="M1427.80,1599.14,1499.52,1684.55"/>
<path d="M1427.80,1599.14,1552.60,1590.46"/>
<path d="M1427.80,1599.14,1403.66,1501.68"/>
<path d="M1427.80,1599.14,1329.60,1601.83"/>
<path d="M503.99,715.00,400.79,744.63"/>
<path d="M503.99,715.00,434.27,803.40"/>
<path d="M1041.50,309.93,1000.08,209.62"/>
<path d="M1041.50,309.93,1165.69,282.72"/>
<path d="M1041.50,309.93,1030.15,367.58"/>
<path d="M1416.90,1072.80,1419.08,1109.60"/>
<path d="M1416.90,1072.80,1483.50,1030.06"/>
<path d="M516.85,108.71,629.12,122.57"/>
<path d="M516.85,108.71,540.83,242.64"/>
<path d="M799.45,1681.88,739.80,1700.21"/>
<path d="M799.45,1681.88,866.81,1665.91"/>
<path d="M799.45,1681.88,890.12,1854.81"/>
<path d="M799.45,1681.88,761.18,1635.31"/>
<path d="M745.71,1029.26,777.22,1051.03"/>
<path d="M745.71,1029.26,691.24,1153.61"/>
<path d="M745.71,1029.26,675.01,1016.32"/>
<path d="M777.22,1051.03,691.24,1153.61"/>
<path d="M1403.77,1177.09,1461.55,1167.89"/>
<path d="M1403.77,1177.09,1419.08,1109.60"/>
<path d="M1403.77,1177.09,1250.43,1200.92"/>
<path d="M313.63,1579.61,403.98,1484.82"/>
<path d="M313.63,1579.61,181.19,1530.94"/>
<path d="M1473.38,406.12,1394.64,575.98"/>
<path d="M1473.38,406.12,1515.64,435.19"/>
<path d="M1674.63,1190.36,1739.38,1270.26"/>
<path d="M1674.63,1190.36,1588.49,1222.13"/>
<path d="M248.85,872.70,165.16,918.31"/>
<path d="M248.85,872.70,326.37,1084.33"/>
<path d="M248.85,872.70,286.28,778.20"/>
<path d="M248.85,872.70,322.62,792.70"/>
<path d="M248.85,872.70,192.45,817.47"/>
<path d="M1143.21,493.62,1174.21,480.13"/>
<path d="M1143.21,493.62,1118.14,648.08"/>
<path d="M1143.21,493.62,1237.40,627.95"/>
<path d="M1143.21,493.62,1045.82,456.80"/>
<path d="M703.99,644.17,767.80,607.84"/>
<path d="M703.99,644.17,550.66,591.40"/>
<path d="M703.99,644.17,627.11,709.74"/>
<path d="M703.99,644.17,736.40,665.17"/>
<path d="M782.65,521.68,911.51,577.79"/>
<path d="M782.65,521.68,767.80,607.84"/>
<path d="M782.65,521.68,734.46,528.14"/>
<path d="M782.65,521.68,873.85,382.91"/>
<path d="M826.77,157.01,917.81,199.57"/>
<path d="M826.77,157.01,775.42,166.92"/>
<path d="M826.77,157.01,874.92,57.12"/>
<path d="M739.80,1700.21,635.36,1612.70"/>
<path d="M739.80,1700.21,688.70,1780.42"/>
<path d="M739.80,1700.21,761.18,1635.31"/>
<path d="M1674.60,45.00,1664.13,268.00"/>
<path d="M1674.60,45.00,1813.39,161.70"/>
<path d="M238.79,75.15,250.69,198.40"/>
<path d="M238.79,75.15,223.17,16.89"/>
<path d="M238.79,75.15,172.74,105.97"/>
<path d="M560.20,1077.08,656.73,983.91"/>
<path d="M560.20,1077.08,440.01,1190.88"/>
<path d="M1647.23,1403.87,1555.76,1367.58"/>
<path d="M1647.23,1403.87,1688.29,1424.01"/>
<path d="M1647.23,1403.87,1715.92,1330.83"/>
<path d="M608.38,440.98,514.91,384.19"/>
<path d="M608.38,440.98,615.26,354.82"/>
<path d="M1674.82,586.93,1579.36,571.83"/>
<path d="M1674.82,586.93,1767.68,604.86"/>
<path d="M1674.82,586.93,1612.89,688.44"/>
<path d="M1674.82,586.93,1755.68,666.18"/>
<path d="M1674.82,586.93,1759.66,546.02"/>
<path d="M1674.82,586.93,1723.70,695.80"/>
<path d="M656.73,983.91,635.22,737.07"/>
<path d="M656.73,983.91,675.01,1016.32"/>
<path d="M592.17,1850.11,627.34,1845.98"/>
<path d="M592.17,1850.11,596.75,1788.68"/>
<path d="M1831.81,622.63,1767.68,604.86"/>
<path d="M1831.81,622.63,1797.24,706.10"/>
<path d="M1831.81,622.63,1755.68,666.18"/>
<path d="M367.32,1787.41,384.73,1768.89"/>
<path d="M367.32,1787.41,427.45,1864.48"/>
<path d="M1072.14,1645.98,1092.17,1669.44"/>
<path d="M1072.14,1645.98,1005.90,1589.41"/>
<path d="M1072.14,1645.98,1096.86,1626.28"/>
<path d="M1499.18,130.50,1514.66,107.47"/>
<path d="M1499.18,130.50,1326.16,81.06"/>
<path d="M1499.18,130.50,1471.27,199.40"/>
<path d="M176.09,1399.62,186.38,1436.22"/>
<path d="M176.09,1399.62,195.43,1288.14"/>
<path d="M176.09,1399.62,5.48,1348.31"/>
<path d="M677.45,263.79,705.76,191.86"/>
<path d="M677.45,263.79,615.26,354.82"/>
<path d="M677.45,263.79,722.89,334.11"/>
<path d="M677.45,263.79,769.61,230.27"/>
<path d="M425.76,482.55,412.43,565.61"/>
<path d="M425.76,482.55,502.84,522.43"/>
<path d="M425.76,482.55,396.71,382.34"/>
<path d="M425.76,482.55,267.37,459.12"/>
<path d="M497.40,557.47,412.43,565.61"/>
<path d="M497.40,557.47,502.84,522.43"/>
<path d="M497.40,557.47,550.66,591.40"/>
<path d="M1174.21,480.13,1237.40,627.95"/>
<path d="M1174.21,480.13,1165.69,282.72"/>
<path d="M1174.21,480.13,1283.01,447.18"/>
<path d="M1664.13,268.00,1708.50,377.21"/>
<path d="M1664.13,268.00,1589.28,397.49"/>
<path d="M118.72,645.97,65.17,659.13"/>
<path d="M118.72,645.97,164.68,533.71"/>
<path d="M118.72,645.97,112.98,714.13"/>
<path d="M118.72,645.97,214.00,698.84"/>
<path d="M118.72,645.97,78.96,566.38"/>
<path d="M384.73,1768.89,388.65,1682.43"/>
<path d="M384.73,1768.89,464.77,1770.79"/>
<path d="M1785.42,1660.89,1824.12,1667.47"/>
<path d="M1785.42,1660.89,1752.03,1621.70"/>
<path d="M1785.42,1660.89,1796.19,1603.80"/>
<path d="M943.65,1569.97,966.99,1549.56"/>
<path d="M943.65,1569.97,868.29,1640.89"/>
<path d="M943.65,1569.97,909.67,1542.54"/>
<path d="M865.17,715.21,945.01,707.46"/>
<path d="M865.17,715.21,911.51,577.79"/>
<path d="M865.17,715.21,767.80,607.84"/>
<path d="M865.17,715.21,736.40,665.17"/>
<path d="M691.24,1153.61,637.80,1268.88"/>
<path d="M165.16,918.31,124.68,996.97"/>
<path d="M165.16,918.31,326.37,1084.33"/>
<path d="M165.16,918.31,119.12,813.76"/>
<path d="M165.16,918.31,192.45,817.47"/>
<path d="M334.80,1282.78,313.50,1348.74"/>
<path d="M334.80,1282.78,453.67,1325.40"/>
<path d="M334.80,1282.78,435.53,1221.90"/>
<path d="M334.80,1282.78,258.64,1265.86"/>
<path d="M917.81,199.57,874.92,57.12"/>
<path d="M917.81,199.57,931.99,233.72"/>
<path d="M917.81,199.57,952.04,62.41"/>
<path d="M1615.75,873.00,1653.89,980.63"/>
<path d="M1615.75,873.00,1489.97,852.88"/>
<path d="M1615.75,873.00,1529.16,781.54"/>
<path d="M1615.75,873.00,1633.07,713.02"/>
<path d="M1615.75,873.00,1605.59,979.33"/>
<path d="M427.45,1864.48,468.67,1864.33"/>
<path d="M1039.40,915.42,1077.51,960.94"/>
<path d="M1039.40,915.42,945.01,707.46"/>
<path d="M1039.40,915.42,1010.18,993.39"/>
<path d="M629.12,122.57,681.56,54.39"/>
<path d="M115.43,198.37,41.25,143.83"/>
<path d="M115.43,198.37,144.78,279.93"/>
<path d="M115.43,198.37,250.69,198.40"/>
<path d="M115.43,198.37,137.48,103.34"/>
<path d="M1499.52,1684.55,1413.64,1782.21"/>
<path d="M1499.52,1684.55,1578.06,1637.04"/>
<path d="M1394.64,575.98,1438.19,728.63"/>
<path d="M1394.64,575.98,1293.42,650.98"/>
<path d="M1394.64,575.98,1515.95,537.04"/>
<path d="M1394.64,575.98,1283.01,447.18"/>
<path d="M1394.64,575.98,1524.89,643.96"/>
<path d="M124.68,996.97,216.17,1115.23"/>
<path d="M124.68,996.97,17.74,986.69"/>
<path d="M124.68,996.97,185.19,1138.35"/>
<path d="M1461.55,1167.89,1503.23,1193.05"/>
<path d="M1791.19,1038.64,1723.53,1012.43"/>
<path d="M1791.19,1038.64,1866.57,1098.40"/>
<path d="M561.53,1450.30,581.01,1433.37"/>
<path d="M561.53,1450.30,503.36,1442.41"/>
<path d="M561.53,1450.30,557.28,1409.81"/>
<path d="M1868.59,329.01,1814.68,344.37"/>
<path d="M1072.09,59.01,1119.30,79.42"/>
<path d="M1072.09,59.01,952.04,62.41"/>
<path d="M1814.68,344.37,1708.50,377.21"/>
<path d="M1814.68,344.37,1739.50,419.94"/>
<path d="M1000.08,209.62,1194.88,191.96"/>
<path d="M1000.08,209.62,931.99,233.72"/>
<path d="M1000.08,209.62,952.04,62.41"/>
<path d="M483.95,1806.23,468.67,1864.33"/>
<path d="M483.95,1806.23,464.77,1770.79"/>
<path d="M1077.51,960.94,1010.18,993.39"/>
<path d="M1077.51,960.94,1108.64,1030.24"/>
<path d="M1438.19,728.63,1320.75,693.19"/>
<path d="M1438.19,728.63,1331.75,865.70"/>
<path d="M1438.19,728.63,1524.89,643.96"/>
<path d="M1739.38,1270.26,1733.88,1306.08"/>
<path d="M1739.38,1270.26,1847.80,1198.66"/>
<path d="M775.42,166.92,705.76,191.86"/>
<path d="M775.42,166.92,769.61,230.27"/>
<path d="M185.90,1482.16,186.38,1436.22"/>
<path d="M185.90,1482.16,181.19,1530.94"/>
<path d="M1552.60,1590.46,1648.03,1584.05"/>
<path d="M1552.60,1590.46,1578.06,1637.04"/>
<path d="M1653.89,980.63,1723.53,1012.43"/>
<path d="M1653.89,980.63,1605.59,979.33"/>
<path d="M313.50,1348.74,453.67,1325.40"/>
<path d="M313.50,1348.74,290.24,1441.84"/>
<path d="M313.50,1348.74,258.64,1265.86"/>
<path d="M945.01,707.46,911.51,577.79"/>
<path d="M945.01,707.46,977.02,696.97"/>
<path d="M1708.50,377.21,1739.50,419.94"/>
<path d="M1489.97,852.88,1529.16,781.54"/>
<path d="M1489.97,852.88,1483.50,1030.06"/>
<path d="M1489.97,852.88,1331.75,865.70"/>
<path d="M581.01,1433.37,678.53,1507.70"/>
<path d="M581.01,1433.37,557.28,1409.81"/>
<path d="M1171.01,45.75,1326.16,81.06"/>
<path d="M1171.01,45.75,1119.30,79.42"/>
<path d="M1171.01,45.75,1194.88,191.96"/>
<path d="M1118.14,648.08,977.02,696.97"/>
<path d="M1118.14,648.08,1122.97,674.55"/>
<path d="M874.92,57.12,862.45,20.89"/>
<path d="M874.92,57.12,952.04,62.41"/>
<path d="M1312.83,1699.54,1215.44,1634.22"/>
<path d="M1312.83,1699.54,1413.64,1782.21"/>
<path d="M1312.83,1699.54,1329.60,1601.83"/>
<path d="M1579.36,571.83,1612.89,688.44"/>
<path d="M1579.36,571.83,1515.95,537.04"/>
<path d="M1579.36,571.83,1524.89,643.96"/>
<path d="M1767.68,604.86,1755.68,666.18"/>
<path d="M1767.68,604.86,1759.66,546.02"/>
<path d="M911.51,577.79,992.10,511.03"/>
<path d="M911.51,577.79,977.02,696.97"/>
<path d="M911.51,577.79,767.80,607.84"/>
<path d="M1010.18,993.39,1108.64,1030.24"/>
<path d="M1010.18,993.39,924.97,964.23"/>
<path d="M1010.18,993.39,990.11,1046.26"/>
<path d="M992.10,511.03,1045.82,456.80"/>
<path d="M1162.47,1708.23,1215.44,1634.22"/>
<path d="M1162.47,1708.23,1092.17,1669.44"/>
<path d="M635.36,1612.70,596.75,1788.68"/>
<path d="M635.36,1612.70,678.53,1507.70"/>
<path d="M635.36,1612.70,761.18,1635.31"/>
<path d="M540.83,242.64,497.63,353.01"/>
<path d="M540.83,242.64,615.26,354.82"/>
<path d="M1733.88,1306.08,1715.92,1330.83"/>
<path d="M1514.66,107.47,1506.26,25.48"/>
<path d="M1326.63,1452.67,1355.36,1456.00"/>
<path d="M1326.63,1452.67,1319.33,1551.00"/>
<path d="M1529.16,781.54,1633.07,713.02"/>
<path d="M1529.16,781.54,1612.89,688.44"/>
<path d="M1529.16,781.54,1524.89,643.96"/>
<path d="M750.59,1476.44,678.53,1507.70"/>
<path d="M750.59,1476.44,761.18,1635.31"/>
<path d="M1723.53,1012.43,1611.17,1094.05"/>
<path d="M627.34,1845.98,596.75,1788.68"/>
<path d="M627.34,1845.98,763.76,1860.48"/>
<path d="M627.34,1845.98,688.70,1780.42"/>
<path d="M977.02,696.97,1122.97,674.55"/>
<path d="M977.02,696.97,1114.98,813.40"/>
<path d="M705.76,191.86,769.61,230.27"/>
<path d="M400.79,744.63,354.77,666.60"/>
<path d="M400.79,744.63,434.27,803.40"/>
<path d="M1779.99,746.81,1797.24,706.10"/>
<path d="M1779.99,746.81,1723.70,695.80"/>
<path d="M767.80,607.84,734.46,528.14"/>
<path d="M767.80,607.84,736.40,665.17"/>
<path d="M1335.45,326.66,1258.31,207.63"/>
<path d="M1335.45,326.66,1165.69,282.72"/>
<path d="M1335.45,326.66,1383.14,351.87"/>
<path d="M1335.45,326.66,1283.01,447.18"/>
<path d="M1326.16,81.06,1258.31,207.63"/>
<path d="M1326.16,81.06,1471.27,199.40"/>
<path d="M1326.16,81.06,1506.26,25.48"/>
<path d="M866.81,1665.91,890.12,1854.81"/>
<path d="M866.81,1665.91,868.29,1640.89"/>
<path d="M866.81,1665.91,1018.74,1748.39"/>
<path d="M1611.28,1646.97,1578.06,1637.04"/>
<path d="M1555.76,1367.58,1588.49,1222.13"/>
<path d="M1152.46,1514.95,1169.10,1445.02"/>
<path d="M1152.46,1514.95,1068.35,1440.86"/>
<path d="M1152.46,1514.95,1096.86,1626.28"/>
<path d="M966.99,1549.56,1068.35,1440.86"/>
<path d="M966.99,1549.56,1005.90,1589.41"/>
<path d="M596.75,1788.68,688.70,1780.42"/>
<path d="M1522.42,1085.49,1483.50,1030.06"/>
<path d="M514.91,384.19,497.63,353.01"/>
<path d="M514.91,384.19,615.26,354.82"/>
<path d="M65.17,659.13,112.98,714.13"/>
<path d="M65.17,659.13,78.96,566.38"/>
<path d="M1215.44,1634.22,1329.60,1601.83"/>
<path d="M1215.44,1634.22,1096.86,1626.28"/>
<path d="M41.25,143.83,137.48,103.34"/>
<path d="M890.12,1854.81,763.76,1860.48"/>
<path d="M890.12,1854.81,1018.74,1748.39"/>
<path d="M270.59,236.26,249.00,259.30"/>
<path d="M270.59,236.26,250.69,198.40"/>
<path d="M270.59,236.26,290.42,194.77"/>
<path d="M1320.75,693.19,1291.74,844.63"/>
<path d="M1320.75,693.19,1293.42,650.98"/>
<path d="M1588.49,1222.13,1503.23,1193.05"/>
<path d="M1588.49,1222.13,1611.17,1094.05"/>
<path d="M1588.49,1222.13,1715.92,1330.83"/>
<path d="M868.29,1640.89,855.63,1566.26"/>
<path d="M453.67,1325.40,435.53,1221.90"/>
<path d="M453.67,1325.40,637.80,1268.88"/>
<path d="M453.67,1325.40,499.42,1413.79"/>
<path d="M678.53,1507.70,761.18,1635.31"/>
<path d="M503.36,1442.41,499.42,1413.79"/>
<path d="M503.36,1442.41,557.28,1409.81"/>
<path d="M1589.28,397.49,1515.64,435.19"/>
<path d="M763.76,1860.48,688.70,1780.42"/>
<path d="M1611.17,1094.05,1598.28,1038.00"/>
<path d="M396.71,382.34,267.37,459.12"/>
<path d="M249.00,259.30,261.27,374.12"/>
<path d="M249.00,259.30,144.78,279.93"/>
<path d="M855.63,1566.26,909.67,1542.54"/>
<path d="M855.63,1566.26,887.91,1514.47"/>
<path d="M855.63,1566.26,761.18,1635.31"/>
<path d="M909.67,1542.54,887.91,1514.47"/>
<path d="M1169.10,1445.02,1068.35,1440.86"/>
<path d="M550.66,591.40,734.46,528.14"/>
<path d="M550.66,591.40,558.67,661.71"/>
<path d="M1258.31,207.63,1471.27,199.40"/>
<path d="M1258.31,207.63,1194.88,191.96"/>
<path d="M1688.29,1424.01,1715.92,1330.83"/>
<path d="M627.11,709.74,635.22,737.07"/>
<path d="M627.11,709.74,710.60,710.79"/>
<path d="M627.11,709.74,558.67,661.71"/>
<path d="M326.37,1084.33,440.01,1190.88"/>
<path d="M354.77,666.60,214.00,698.84"/>
<path d="M354.77,666.60,286.28,778.20"/>
<path d="M354.77,666.60,284.27,610.39"/>
<path d="M1633.07,713.02,1612.89,688.44"/>
<path d="M1633.07,713.02,1723.70,695.80"/>
<path d="M1237.40,627.95,1293.42,650.98"/>
<path d="M1237.40,627.95,1161.56,669.71"/>
<path d="M1237.40,627.95,1283.01,447.18"/>
<path d="M164.68,533.71,267.37,459.12"/>
<path d="M164.68,533.71,300.79,572.64"/>
<path d="M164.68,533.71,284.27,610.39"/>
<path d="M164.68,533.71,78.96,566.38"/>
<path d="M1291.74,844.63,1160.68,903.13"/>
<path d="M1291.74,844.63,1161.56,669.71"/>
<path d="M1291.74,844.63,1331.75,865.70"/>
<path d="M1866.57,1098.40,1847.80,1198.66"/>
<path d="M100.05,1608.01,91.93,1827.55"/>
<path d="M100.05,1608.01,145.23,1540.26"/>
<path d="M100.05,1608.01,41.66,1620.20"/>
<path d="M261.27,374.12,144.78,279.93"/>
<path d="M261.27,374.12,267.37,459.12"/>
<path d="M1122.97,674.55,1161.56,669.71"/>
<path d="M1122.97,674.55,1114.98,813.40"/>
<path d="M1165.69,282.72,1194.88,191.96"/>
<path d="M1165.69,282.72,1283.01,447.18"/>
<path d="M1160.68,903.13,1139.50,881.30"/>
<path d="M1824.12,1667.47,1796.19,1603.80"/>
<path d="M91.93,1827.55,48.96,1851.26"/>
<path d="M91.93,1827.55,41.66,1620.20"/>
<path d="M144.78,279.93,77.95,358.94"/>
<path d="M435.53,1221.90,637.80,1268.88"/>
<path d="M435.53,1221.90,440.01,1190.88"/>
<path d="M112.98,714.13,119.12,813.76"/>
<path d="M112.98,714.13,214.00,698.84"/>
<path d="M216.17,1115.23,185.19,1138.35"/>
<path d="M77.95,358.94,54.80,496.80"/>
<path d="M1045.82,456.80,1030.15,367.58"/>
<path d="M119.12,813.76,192.45,817.47"/>
<path d="M1797.24,706.10,1755.68,666.18"/>
<path d="M145.23,1540.26,181.19,1530.94"/>
<path d="M615.26,354.82,722.89,334.11"/>
<path d="M1612.89,688.44,1524.89,643.96"/>
<path d="M1047.46,1726.84,1092.17,1669.44"/>
<path d="M1047.46,1726.84,1018.74,1748.39"/>
<path d="M1752.03,1621.70,1725.47,1554.79"/>
<path d="M1752.03,1621.70,1796.19,1603.80"/>
<path d="M1355.36,1456.00,1403.66,1501.68"/>
<path d="M1355.36,1456.00,1319.33,1551.00"/>
<path d="M195.43,1288.14,258.64,1265.86"/>
<path d="M195.43,1288.14,185.19,1138.35"/>
<path d="M1133.34,1270.41,1147.26,1292.44"/>
<path d="M214.00,698.84,241.14,759.97"/>
<path d="M214.00,698.84,284.27,610.39"/>
<path d="M1022.38,1187.91,1108.64,1030.24"/>
<path d="M1022.38,1187.91,990.11,1046.26"/>
<path d="M1515.64,435.19,1515.95,537.04"/>
<path d="M1403.66,1501.68,1319.33,1551.00"/>
<path d="M1319.33,1551.00,1329.60,1601.83"/>
<path d="M250.69,198.40,290.42,194.77"/>
<path d="M250.69,198.40,172.74,105.97"/>
<path d="M267.37,459.12,300.79,572.64"/>
<path d="M1139.50,881.30,1114.98,813.40"/>
<path d="M388.65,1682.43,464.77,1770.79"/>
<path d="M1755.68,666.18,1723.70,695.80"/>
<path d="M1030.15,367.58,873.85,382.91"/>
<path d="M722.89,334.11,873.85,382.91"/>
<path d="M722.89,334.11,769.61,230.27"/>
<path d="M258.64,1265.86,185.19,1138.35"/>
<path d="M1092.17,1669.44,1096.86,1626.28"/>
<path d="M185.19,1138.35,71.03,1204.23"/>
<path d="M736.40,665.17,710.60,710.79"/>
<path d="M924.97,964.23,990.11,1046.26"/>
<path d="M1739.50,419.94,1759.66,546.02"/>
<path d="M1321.59,964.34,1331.75,865.70"/>
<path d="M1725.47,1554.79,1796.19,1603.80"/>
<path d="M499.42,1413.79,557.28,1409.81"/>
<path d="M635.22,737.07,710.60,710.79"/>
<path d="M1605.59,979.33,1598.28,1038.00"/>
<path d="M137.48,103.34,172.74,105.97"/>
<path d="M300.79,572.64,284.27,610.39"/>
<path d="M286.28,778.20,322.62,792.70"/>
<path d="M286.28,778.20,241.14,759.97"/>
<path d="M1383.14,351.87,1283.01,447.18"/>
<path d="M1515.95,537.04,1524.89,643.96"/>
<path d="M241.14,759.97,192.45,817.47"/>
<path d="M931.99,233.72,873.85,382.91"/>
<path d="M873.85,382.91,769.61,230.27"/>
<path d="M78.96,566.38,54.80,496.80"/>
<circle cx="1664.93" cy="1501.33" r="10"/>
<text x="1664.93" y="1506.33">R0</text>
<circle cx="751.22" cy="1254.74" r="10"/>
<text x="751.22" y="1259.74">R1</text>
<circle cx="1218.68" cy="1826.48" r="10"/>
<text x="1218.68" y="1831.48">R2</text>
<circle cx="1410.41" cy="328.37" r="10"/>
<text x="1410.41" y="333.37">R3</text>
<circle cx="1103.54" cy="1326.98" r="10"/>
<text x="1103.54" y="1331.98">R4</text>
<circle cx="1807.10" cy="909.39" r="10"/>
<text x="1807.10" y="914.39">R5</text>
<circle cx="441.50" cy="1417.95" r="10"/>
<text x="441.50" y="1422.95">R6</text>
<circle cx="544.15" cy="718.78" r="10"/>
<text x="544.15" y="723.78">R7</text>
<circle cx="1660.30" cy="1726.25" r="10"/>
<text x="1660.30" y="1731.25">R8</text>
<circle cx="901.30" cy="983.33" r="10"/>
<text x="901.30" y="988.33">R9</text>
<circle cx="870.39" cy="1272.83" r="10"/>
<text x="870.39" y="1277.83">R10</text>
<circle cx="802.61" cy="1348.50" r="10"/>
<text x="802.61" y="1353.50">R11</text>
<circle cx="1016.34" cy="533.74" r="10"/>
<text x="1016.34" y="538.74">R12</text>
<circle cx="322.98" cy="1681.28" r="10"/>
<text x="322.98" y="1686.28">R13</text>
<circle cx="565.79" cy="1489.46" r="10"/>
<text x="565.79" y="1494.46">R14</text>
<circle cx="693.39" cy="1287.61" r="10"/>
<text x="693.39" y="1292.61">R15</text>
<circle cx="1568.07" cy="1751.23" r="10"/>
<text x="1568.07" y="1756.23">R16</text>
<circle cx="353.46" cy="345.18" r="10"/>
<text x="353.46" y="350.18">R17</text>
<circle cx="1336.32" cy="1839.80" r="10"/>
<text x="1336.32" y="1844.80">R18</text>
<circle cx="103.41" cy="1233.18" r="10"/>
<text x="103.41" y="1238.18">R19</text>
<circle cx="1808.23" cy="977.30" r="10"/>
<text x="1808.23" y="982.30">R20</text>
<circle cx="690.98" cy="24.11" r="10"/>
<text x="690.98" y="29.11">R21</text>
<circle cx="791.46" cy="1401.55" r="10"/>
<text x="791.46" y="1406.55">R22</text>
<circle cx="720.14" cy="486.87" r="10"/>
<text x="720.14" y="491.87">R23</text>
<circle cx="1347.07" cy="963.70" r="10"/>
<text x="1347.07" y="968.70">R24</text>
<circle cx="1115.78" cy="902.03" r="10"/>
<text x="1115.78" y="907.03">R25</text>
<circle cx="174.19" cy="1806.56" r="10"/>
<text x="174.19" y="1811.56">R26</text>
<circle cx="680.46" cy="158.22" r="10"/>
<text x="680.46" y="163.22">R27</text>
<circle cx="940.20" cy="490.46" r="10"/>
<text x="940.20" y="495.46">R28</text>
<circle cx="1487.00" cy="769.60" r="10"/>
<text x="1487.00" y="774.60">R29</text>
<circle cx="904.18" cy="1305.18" r="10"/>
<text x="904.18" y="1310.18">R30</text>
<circle cx="1851.52" cy="124.34" r="10"/>
<text x="1851.52" y="129.34">R31</text>
<circle cx="235.69" cy="1482.83" r="10"/>
<text x="235.69" y="1487.83">R32</text>
<circle cx="758.08" cy="920.45" r="10"/>
<text x="758.08" y="925.45">R33</text>
<circle cx="1585.05" cy="1087.23" r="10"/>
<text x="1585.05" y="1092.23">R34</text>
<circle cx="1214.30" cy="1039.91" r="10"/>
<text x="1214.30" y="1044.91">R35</text>
<circle cx="321.34" cy="1446.27" r="10"/>
<text x="321.34" y="1451.27">R36</text>
<circle cx="1642.33" cy="1634.87" r="10"/>
<text x="1642.33" y="1639.87">R37</text>
<circle cx="1659.33" cy="1542.21" r="10"/>
<text x="1659.33" y="1547.21">R38</text>
<circle cx="1631.21" cy="408.57" r="10"/>
<text x="1631.21" y="413.57">R39</text>
<circle cx="1554.91" cy="12.63" r="10"/>
<text x="1554.91" y="17.63">R40</text>
<circle cx="1102.06" cy="98.72" r="10"/>
<text x="1102.06" y="103.72">R41</text>
<circle cx="344.73" cy="1640.29" r="10"/>
<text x="344.73" y="1645.29">R42</text>
<circle cx="470.24" cy="1500.87" r="10"/>
<text x="470.24" y="1505.87">R43</text>
<circle cx="241.12" cy="1679.17" r="10"/>
<text x="241.12" y="1684.17">R44</text>
<circle cx="532.47" cy="59.30" r="10"/>
<text x="532.47" y="64.30">R45</text>
<circle cx="135.90" cy="496.04" r="10"/>
<text x="135.90" y="501.04">R46</text>
<circle cx="135.21" cy="467.48" r="10"/>
<text x="135.21" y="472.48">R47</text>
<circle cx="923.15" cy="920.79" r="10"/>
<text x="923.15" y="925.79">R48</text>
<circle cx="1377.43" cy="1282.66" r="10"/>
<text x="1377.43" y="1287.66">R49</text>
<circle cx="491.19" cy="1646.00" r="10"/>
<text x="491.19" y="1651.00">R50</text>
<circle cx="40.45" cy="1036.81" r="10"/>
<text x="40.45" y="1041.81">R51</text>
<circle cx="285.91" cy="1126.44" r="10"/>
<text x="285.91" y="1131.44">R52</text>
<circle cx="983.20" cy="1619.94" r="10"/>
<text x="983.20" y="1624.94">R53</text>
<circle cx="492.39" cy="116.95" r="10"/>
<text x="492.39" y="121.95">R54</text>
<circle cx="1809.80" cy="248.44" r="10"/>
<text x="1809.80" y="253.44">R55</text>
<circle cx="1460.40" cy="340.72" r="10"/>
<text x="1460.40" y="345.72">R56</text>
<circle cx="641.24" cy="1092.56" r="10"/>
<text x="641.24" y="1097.56">R57</text>
<circle cx="829.76" cy="1525.57" r="10"/>
<text x="829.76" y="1530.57">R58</text>
<circle cx="538.84" cy="508.04" r="10"/>
<text x="538.84" y="513.04">R59</text>
<circle cx="1690.29" cy="1163.16" r="10"/>
<text x="1690.29" y="1168.16">R60</text>
<circle cx="224.57" cy="1417.71" r="10"/>
<text x="224.57" y="1422.71">R61</text>
<circle cx="598.89" cy="196.35" r="10"/>
<text x="598.89" y="201.35">R62</text>
<circle cx="1274.14" cy="1733.48" r="10"/>
<text x="1274.14" y="1738.48">R63</text>
<circle cx="543.98" cy="1853.92" r="10"/>
<text x="543.98" y="1858.92">R64</text>
<circle cx="1180.91" cy="1852.80" r="10"/>
<text x="1180.91" y="1857.80">R65</text>
<circle cx="634.40" cy="1359.65" r="10"/>
<text x="634.40" y="1364.65">R66</text>
<circle cx="68.46" cy="842.23" r="10"/>
<text x="68.46" y="847.23">R67</text>
<circle cx="1490.39" cy="232.42" r="10"/>
<text x="1490.39" y="237.42">R68</text>
<circle cx="1763.30" cy="1406.52" r="10"/>
<text x="1763.30" y="1411.52">R69</text>
<circle cx="1277.36" cy="965.91" r="10"/>
<text x="1277.36" y="970.91">R70</text>
<circle cx="1470.94" cy="1131.99" r="10"/>
<text x="1470.94" y="1136.99">R71</text>
<circle cx="361.97" cy="208.30" r="10"/>
<text x="361.97" y="213.30">R72</text>
<circle cx="554.70" cy="1597.14" r="10"/>
<text x="554.70" y="1602.14">R73</text>
<circle cx="445.10" cy="388.41" r="10"/>
<text x="445.10" y="393.41">R74</text>
<circle cx="1242.54" cy="1560.07" r="10"/>
<text x="1242.54" y="1565.07">R75</text>
<circle cx="534.06" cy="1027.14" r="10"/>
<text x="534.06" y="1032.14">R76</text>
<circle cx="385.86" cy="601.45" r="10"/>
<text x="385.86" y="606.45">R77</text>
<circle cx="1261.65" cy="1481.21" r="10"/>
<text x="1261.65" y="1486.21">R78</text>
<circle cx="1505.52" cy="1776.49" r="10"/>
<text x="1505.52" y="1781.49">R79</text>
<circle cx="1745.72" cy="836.83" r="10"/>
<text x="1745.72" y="841.83">R80</text>
<circle cx="1511.64" cy="1354.04" r="10"/>
<text x="1511.64" y="1359.04">R81</text>
<circle cx="1540.02" cy="1526.18" r="10"/>
<text x="1540.02" y="1531.18">R82</text>
<circle cx="378.00" cy="796.78" r="10"/>
<text x="378.00" y="801.78">R83</text>
<circle cx="1145.20" cy="1238.40" r="10"/>
<text x="1145.20" y="1243.40">R84</text>
<circle cx="1427.80" cy="1599.14" r="10"/>
<text x="1427.80" y="1604.14">R85</text>
<circle cx="1794.68" cy="877.87" r="10"/>
<text x="1794.68" y="882.87">R86</text>
<circle cx="503.99" cy="715.00" r="10"/>
<text x="503.99" y="720.00">R87</text>
<circle cx="1041.50" cy="309.93" r="10"/>
<text x="1041.50" y="314.93">R88</text>
<circle cx="1416.90" cy="1072.80" r="10"/>
<text x="1416.90" y="1077.80">R89</text>
<circle cx="516.85" cy="108.71" r="10"/>
<text x="516.85" y="113.71">R90</text>
<circle cx="799.45" cy="1681.88" r="10"/>
<text x="799.45" y="1686.88">R91</text>
<circle cx="745.71" cy="1029.26" r="10"/>
<text x="745.71" y="1034.26">R92</text>
<circle cx="777.22" cy="1051.03" r="10"/>
<text x="777.22" y="1056.03">R93</text>
<circle cx="1403.77" cy="1177.09" r="10"/>
<text x="1403.77" y="1182.09">R94</text>
<circle cx="313.63" cy="1579.61" r="10"/>
<text x="313.63" y="1584.61">R95</text>
<circle cx="1473.38" cy="406.12" r="10"/>
<text x="1473.38" y="411.12">R96</text>
<circle cx="1674.63" cy="1190.36" r="10"/>
<text x="1674.63" y="1195.36">R97</text>
<circle cx="248.85" cy="872.70" r="10"/>
<text x="248.85" y="877.70">R98</text>
<circle cx="1143.21" cy="493.62" r="10"/>
<text x="1143.21" y="498.62">R99</text>
<circle cx="703.99" cy="644.17" r="10"/>
<text x="703.99" y="649.17">R100</text>
<circle cx="782.65" cy="521.68" r="10"/>
<text x="782.65" y="526.68">R101</text>
<circle cx="826.77" cy="157.01" r="10"/>
<text x="826.77" y="162.01">R102</text>
<circle cx="739.80" cy="1700.21" r="10"/>
<text x="739.80" y="1705.21">R103</text>
<circle cx="1674.60" cy="45.00" r="10"/>
<text x="1674.60" y="50.00">R104</text>
<circle cx="238.79" cy="75.15" r="10"/>
<text x="238.79" y="80.15">R105</text>
<circle cx="560.20" cy="1077.08" r="10"/>
<text x="560.20" y="1082.08">R106</text>
<circle cx="1647.23" cy="1403.87" r="10"/>
<text x="1647.23" y="1408.87">R107</text>
<circle cx="608.38" cy="440.98" r="10"/>
<text x="608.38" y="445.98">R108</text>
<circle cx="1674.82" cy="586.93" r="10"/>
<text x="1674.82" y="591.93">R109</text>
<circle cx="656.73" cy="983.91" r="10"/>
<text x="656.73" y="988.91">R110</text>
<circle cx="592.17" cy="1850.11" r="10"/>
<text x="592.17" y="1855.11">R111</text>
<circle cx="1831.81" cy="622.63" r="10"/>
<text x="1831.81" y="627.63">R112</text>
<circle cx="367.32" cy="1787.41" r="10"/>
<text x="367.32" y="1792.41">R113</text>
<circle cx="1072.14" cy="1645.98" r="10"/>
<text x="1072.14" y="1650.98">R114</text>
<circle cx="1499.18" cy="130.50" r="10"/>
<text x="1499.18" y="135.50">R115</text>
<circle cx="176.09" cy="1399.62" r="10"/>
<text x="176.09" y="1404.62">R116</text>
<circle cx="677.45" cy="263.79" r="10"/>
<text x="677.45" y="268.79">R117</text>
<circle cx="1462.03" cy="289.58" r="10"/>
<text x="1462.03" y="294.58">R118</text>
<circle cx="425.76" cy="482.55" r="10"/>
<text x="425.76" y="487.55">R119</text>
<circle cx="497.40" cy="557.47" r="10"/>
<text x="497.40" y="562.47">R120</text>
<circle cx="1174.21" cy="480.13" r="10"/>
<text x="1174.21" y="485.13">R121</text>
<circle cx="1664.13" cy="268.00" r="10"/>
<text x="1664.13" y="273.00">R122</text>
<circle cx="118.72" cy="645.97" r="10"/>
<text x="118.72" y="650.97">R123</text>
<circle cx="384.73" cy="1768.89" r="10"/>
<text x="384.73" y="1773.89">R124</text>
<circle cx="1785.42" cy="1660.89" r="10"/>
<text x="1785.42" y="1665.89">R125</text>
<circle cx="943.65" cy="1569.97" r="10"/>
<text x="943.65" y="1574.97">R126</text>
<circle cx="865.17" cy="715.21" r="10"/>
<text x="865.17" y="720.21">R127</text>
<circle cx="691.24" cy="1153.61" r="10"/>
<text x="691.24" y="1158.61">R128</text>
<circle cx="165.16" cy="918.31" r="10"/>
<text x="165.16" y="923.31">R129</text>
<circle cx="1301.81" cy="1818.91" r="10"/>
<text x="1301.81" y="1823.91">R130</text>
<circle cx="334.80" cy="1282.78" r="10"/>
<text x="334.80" y="1287.78">R131</text>
<circle cx="917.81" cy="199.57" r="10"/>
<text x="917.81" y="204.57">R132</text>
<circle cx="1615.75" cy="873.00" r="10"/>
<text x="1615.75" y="878.00">R133</text>
<circle cx="427.45" cy="1864.48" r="10"/>
<text x="427.45" y="1869.48">R134</text>
<circle cx="1039.40" cy="915.42" r="10"/>
<text x="1039.40" y="920.42">R135</text>
<circle cx="629.12" cy="122.57" r="10"/>
<text x="629.12" y="127.57">R136</text>
<circle cx="115.43" cy="198.37" r="10"/>
<text x="115.43" y="203.37">R137</text>
<circle cx="1499.52" cy="1684.55" r="10"/>
<text x="1499.52" y="1689.55">R138</text>
<circle cx="1394.64" cy="575.98" r="10"/>
<text x="1394.64" y="580.98">R139</text>
<circle cx="124.68" cy="996.97" r="10"/>
<text x="124.68" y="1001.97">R140</text>
<circle cx="1461.55" cy="1167.89" r="10"/>
<text x="1461.55" y="1172.89">R141</text>
<circle cx="1791.19" cy="1038.64" r="10"/>
<text x="1791.19" y="1043.64">R142</text>
<circle cx="561.53" cy="1450.30" r="10"/>
<text x="561.53" y="1455.30">R143</text>
<circle cx="1868.59" cy="329.01" r="10"/>
<text x="1868.59" y="334.01">R144</text>
<circle cx="1072.09" cy="59.01" r="10"/>
<text x="1072.09" y="64.01">R145</text>
<circle cx="1814.68" cy="344.37" r="10"/>
<text x="1814.68" y="349.37">R146</text>
<circle cx="1000.08" cy="209.62" r="10"/>
<text x="1000.08" y="214.62">R147</text>
<circle cx="483.95" cy="1806.23" r="10"/>
<text x="483.95" y="1811.23">R148</text>
<circle cx="1077.51" cy="960.94" r="10"/>
<text x="1077.51" y="965.94">R149</text>
<circle cx="1438.19" cy="728.63" r="10"/>
<text x="1438.19" y="733.63">R150</text>
<circle cx="1739.38" cy="1270.26" r="10"/>
<text x="1739.38" y="1275.26">R151</text>
<circle cx="775.42" cy="166.92" r="10"/>
<text x="775.42" y="171.92">R152</text>
<circle cx="185.90" cy="1482.16" r="10"/>
<text x="185.90" y="1487.16">R153</text>
<circle cx="403.98" cy="1484.82" r="10"/>
<text x="403.98" y="1489.82">R154</text>
<circle cx="1552.60" cy="1590.46" r="10"/>
<text x="1552.60" y="1595.46">R155</text>
<circle cx="1653.89" cy="980.63" r="10"/>
<text x="1653.89" y="985.63">R156</text>
<circle cx="313.50" cy="1348.74" r="10"/>
<text x="313.50" y="1353.74">R157</text>
<circle cx="945.01" cy="707.46" r="10"/>
<text x="945.01" y="712.46">R158</text>
<circle cx="1708.50" cy="377.21" r="10"/>
<text x="1708.50" y="382.21">R159</text>
<circle cx="1489.97" cy="852.88" r="10"/>
<text x="1489.97" y="857.88">R160</text>
<circle cx="581.01" cy="1433.37" r="10"/>
<text x="581.01" y="1438.37">R161</text>
<circle cx="1171.01" cy="45.75" r="10"/>
<text x="1171.01" y="50.75">R162</text>
<circle cx="1118.14" cy="648.08" r="10"/>
<text x="1118.14" y="653.08">R163</text>
<circle cx="874.92" cy="57.12" r="10"/>
<text x="874.92" y="62.12">R164</text>
<circle cx="1312.83" cy="1699.54" r="10"/>
<text x="1312.83" y="1704.54">R165</text>
<circle cx="1579.36" cy="571.83" r="10"/>
<text x="1579.36" y="576.83">R166</text>
<circle cx="1767.68" cy="604.86" r="10"/>
<text x="1767.68" y="609.86">R167</text>
<circle cx="911.51" cy="577.79" r="10"/>
<text x="911.51" y="582.79">R168</text>
<circle cx="1010.18" cy="993.39" r="10"/>
<text x="1010.18" y="998.39">R169</text>
<circle cx="992.10" cy="511.03" r="10"/>
<text x="992.10" y="516.03">R170</text>
<circle cx="1162.47" cy="1708.23" r="10"/>
<text x="1162.47" y="1713.23">R171</text>
<circle cx="635.36" cy="1612.70" r="10"/>
<text x="635.36" y="1617.70">R172</text>
<circle cx="1813.39" cy="161.70" r="10"/>
<text x="1813.39" y="166.70">R173</text>
<circle cx="540.83" cy="242.64" r="10"/>
<text x="540.83" y="247.64">R174</text>
<circle cx="1733.88" cy="1306.08" r="10"/>
<text x="1733.88" y="1311.08">R175</text>
<circle cx="1514.66" cy="107.47" r="10"/>
<text x="1514.66" y="112.47">R176</text>
<circle cx="1326.63" cy="1452.67" r="10"/>
<text x="1326.63" y="1457.67">R177</text>
<circle cx="1529.16" cy="781.54" r="10"/>
<text x="1529.16" y="786.54">R178</text>
<circle cx="750.59" cy="1476.44" r="10"/>
<text x="750.59" y="1481.44">R179</text>
<circle cx="1723.53" cy="1012.43" r="10"/>
<text x="1723.53" y="1017.43">R180</text>
<circle cx="627.34" cy="1845.98" r="10"/>
<text x="627.34" y="1850.98">R181</text>
<circle cx="977.02" cy="696.97" r="10"/>
<text x="977.02" y="701.97">R182</text>
<circle cx="705.76" cy="191.86" r="10"/>
<text x="705.76" y="196.86">R183</text>
<circle cx="186.38" cy="1436.22" r="10"/>
<text x="186.38" y="1441.22">R184</text>
<circle cx="400.79" cy="744.63" r="10"/>
<text x="400.79" y="749.63">R185</text>
<circle cx="1779.99" cy="746.81" r="10"/>
<text x="1779.99" y="751.81">R186</text>
<circle cx="767.80" cy="607.84" r="10"/>
<text x="767.80" y="612.84">R187</text>
<circle cx="1335.45" cy="326.66" r="10"/>
<text x="1335.45" y="331.66">R188</text>
<circle cx="1326.16" cy="81.06" r="10"/>
<text x="1326.16" y="86.06">R189</text>
<circle cx="412.43" cy="565.61" r="10"/>
<text x="412.43" y="570.61">R190</text>
<circle cx="866.81" cy="1665.91" r="10"/>
<text x="866.81" y="1670.91">R191</text>
<circle cx="1611.28" cy="1646.97" r="10"/>
<text x="1611.28" y="1651.97">R192</text>
<circle cx="1555.76" cy="1367.58" r="10"/>
<text x="1555.76" y="1372.58">R193</text>
<circle cx="1152.46" cy="1514.95" r="10"/>
<text x="1152.46" y="1519.95">R194</text>
<circle cx="966.99" cy="1549.56" r="10"/>
<text x="966.99" y="1554.56">R195</text>
<circle cx="596.75" cy="1788.68" r="10"/>
<text x="596.75" y="1793.68">R196</text>
<circle cx="1522.42" cy="1085.49" r="10"/>
<text x="1522.42" y="1090.49">R197</text>
<circle cx="514.91" cy="384.19" r="10"/>
<text x="514.91" y="389.19">R198</text>
<circle cx="65.17" cy="659.13" r="10"/>
<text x="65.17" y="664.13">R199</text>
<circle cx="1215.44" cy="1634.22" r="10"/>
<text x="1215.44" y="1639.22">R200</text>
<circle cx="41.25" cy="143.83" r="10"/>
<text x="41.25" y="148.83">R201</text>
<circle cx="890.12" cy="1854.81" r="10"/>
<text x="890.12" y="1859.81">R202</text>
<circle cx="270.59" cy="236.26" r="10"/>
<text x="270.59" y="241.26">R203</text>
<circle cx="502.84" cy="522.43" r="10"/>
<text x="502.84" y="527.43">R204</text>
<circle cx="1320.75" cy="693.19" r="10"/>
<text x="1320.75" y="698.19">R205</text>
<circle cx="1588.49" cy="1222.13" r="10"/>
<text x="1588.49" y="1227.13">R206</text>
<circle cx="868.29" cy="1640.89" r="10"/>
<text x="868.29" y="1645.89">R207</text>
<circle cx="1503.23" cy="1193.05" r="10"/>
<text x="1503.23" y="1198.05">R208</text>
<circle cx="453.67" cy="1325.40" r="10"/>
<text x="453.67" y="1330.40">R209</text>
<circle cx="678.53" cy="1507.70" r="10"/>
<text x="678.53" y="1512.70">R210</text>
<circle cx="503.36" cy="1442.41" r="10"/>
<text x="503.36" y="1447.41">R211</text>
<circle cx="1589.28" cy="397.49" r="10"/>
<text x="1589.28" y="402.49">R212</text>
<circle cx="763.76" cy="1860.48" r="10"/>
<text x="763.76" y="1865.48">R213</text>
<circle cx="1611.17" cy="1094.05" r="10"/>
<text x="1611.17" y="1099.05">R214</text>
<circle cx="681.56" cy="54.39" r="10"/>
<text x="681.56" y="59.39">R215</text>
<circle cx="396.71" cy="382.34" r="10"/>
<text x="396.71" y="387.34">R216</text>
<circle cx="249.00" cy="259.30" r="10"/>
<text x="249.00" y="264.30">R217</text>
<circle cx="855.63" cy="1566.26" r="10"/>
<text x="855.63" y="1571.26">R218</text>
<circle cx="909.67" cy="1542.54" r="10"/>
<text x="909.67" y="1547.54">R219</text>
<circle cx="1169.10" cy="1445.02" r="10"/>
<text x="1169.10" y="1450.02">R220</text>
<circle cx="550.66" cy="591.40" r="10"/>
<text x="550.66" y="596.40">R221</text>
<circle cx="1258.31" cy="207.63" r="10"/>
<text x="1258.31" y="212.63">R222</text>
<circle cx="1688.29" cy="1424.01" r="10"/>
<text x="1688.29" y="1429.01">R223</text>
<circle cx="627.11" cy="709.74" r="10"/>
<text x="627.11" y="714.74">R224</text>
<circle cx="862.45" cy="20.89" r="10"/>
<text x="862.45" y="25.89">R225</text>
<circle cx="1419.08" cy="1109.60" r="10"/>
<text x="1419.08" y="1114.60">R226</text>
<circle cx="326.37" cy="1084.33" r="10"/>
<text x="326.37" y="1089.33">R227</text>
<circle cx="354.77" cy="666.60" r="10"/>
<text x="354.77" y="671.60">R228</text>
<circle cx="1633.07" cy="713.02" r="10"/>
<text x="1633.07" y="718.02">R229</text>
<circle cx="1237.40" cy="627.95" r="10"/>
<text x="1237.40" y="632.95">R230</text>
<circle cx="164.68" cy="533.71" r="10"/>
<text x="164.68" y="538.71">R231</text>
<circle cx="1291.74" cy="844.63" r="10"/>
<text x="1291.74" y="849.63">R232</text>
<circle cx="1866.57" cy="1098.40" r="10"/>
<text x="1866.57" y="1103.40">R233</text>
<circle cx="100.05" cy="1608.01" r="10"/>
<text x="100.05" y="1613.01">R234</text>
<circle cx="261.27" cy="374.12" r="10"/>
<text x="261.27" y="379.12">R235</text>
<circle cx="1122.97" cy="674.55" r="10"/>
<text x="1122.97" y="679.55">R236</text>
<circle cx="1529.94" cy="1859.95" r="10"/>
<text x="1529.94" y="1864.95">R237</text>
<circle cx="1165.69" cy="282.72" r="10"/>
<text x="1165.69" y="287.72">R238</text>
<circle cx="1160.68" cy="903.13" r="10"/>
<text x="1160.68" y="908.13">R239</text>
<circle cx="1293.42" cy="650.98" r="10"/>
<text x="1293.42" y="655.98">R240</text>
<circle cx="1824.12" cy="1667.47" r="10"/>
<text x="1824.12" y="1672.47">R241</text>
<circle cx="290.24" cy="1441.84" r="10"/>
<text x="290.24" y="1446.84">R242</text>
<circle cx="91.93" cy="1827.55" r="10"/>
<text x="91.93" y="1832.55">R243</text>
<circle cx="1715.92" cy="1330.83" r="10"/>
<text x="1715.92" y="1335.83">R244</text>
<circle cx="144.78" cy="279.93" r="10"/>
<text x="144.78" y="284.93">R245</text>
<circle cx="435.53" cy="1221.90" r="10"/>
<text x="435.53" y="1226.90">R246</text>
<circle cx="637.80" cy="1268.88" r="10"/>
<text x="637.80" y="1273.88">R247</text>
<circle cx="1250.43" cy="1200.92" r="10"/>
<text x="1250.43" y="1205.92">R248</text>
<circle cx="112.98" cy="714.13" r="10"/>
<text x="112.98" y="719.13">R249</text>
<circle cx="216.17" cy="1115.23" r="10"/>
<text x="216.17" y="1120.23">R250</text>
<circle cx="77.95" cy="358.94" r="10"/>
<text x="77.95" y="363.94">R251</text>
<circle cx="1045.82" cy="456.80" r="10"/>
<text x="1045.82" y="461.80">R252</text>
<circle cx="119.12" cy="813.76" r="10"/>
<text x="119.12" y="818.76">R253</text>
<circle cx="1797.24" cy="706.10" r="10"/>
<text x="1797.24" y="711.10">R254</text>
<circle cx="497.63" cy="353.01" r="10"/>
<text x="497.63" y="358.01">R255</text>
<circle cx="1068.35" cy="1440.86" r="10"/>
<text x="1068.35" y="1445.86">R256</text>
<circle cx="145.23" cy="1540.26" r="10"/>
<text x="145.23" y="1545.26">R257</text>
<circle cx="615.26" cy="354.82" r="10"/>
<text x="615.26" y="359.82">R258</text>
<circle cx="434.27" cy="803.40" r="10"/>
<text x="434.27" y="808.40">R259</text>
<circle cx="1612.89" cy="688.44" r="10"/>
<text x="1612.89" y="693.44">R260</text>
<circle cx="1047.46" cy="1726.84" r="10"/>
<text x="1047.46" y="1731.84">R261</text>
<circle cx="48.96" cy="1851.26" r="10"/>
<text x="48.96" y="1856.26">R262</text>
<circle cx="1752.03" cy="1621.70" r="10"/>
<text x="1752.03" y="1626.70">R263</text>
<circle cx="1355.36" cy="1456.00" r="10"/>
<text x="1355.36" y="1461.00">R264</text>
<circle cx="181.19" cy="1530.94" r="10"/>
<text x="181.19" y="1535.94">R265</text>
<circle cx="195.43" cy="1288.14" r="10"/>
<text x="195.43" y="1293.14">R266</text>
<circle cx="1133.34" cy="1270.41" r="10"/>
<text x="1133.34" y="1275.41">R267</text>
<circle cx="214.00" cy="698.84" r="10"/>
<text x="214.00" y="703.84">R268</text>
<circle cx="1022.38" cy="1187.91" r="10"/>
<text x="1022.38" y="1192.91">R269</text>
<circle cx="1119.30" cy="79.42" r="10"/>
<text x="1119.30" y="84.42">R270</text>
<circle cx="775.36" cy="1247.37" r="10"/>
<text x="775.36" y="1252.37">R271</text>
<circle cx="1515.64" cy="435.19" r="10"/>
<text x="1515.64" y="440.19">R272</text>
<circle cx="1403.66" cy="1501.68" r="10"/>
<text x="1403.66" y="1506.68">R273</text>
<circle cx="1319.33" cy="1551.00" r="10"/>
<text x="1319.33" y="1556.00">R274</text>
<circle cx="250.69" cy="198.40" r="10"/>
<text x="250.69" y="203.40">R275</text>
<circle cx="468.67" cy="1864.33" r="10"/>
<text x="468.67" y="1869.33">R276</text>
<circle cx="887.91" cy="1514.47" r="10"/>
<text x="887.91" y="1519.47">R277</text>
<circle cx="223.17" cy="16.89" r="10"/>
<text x="223.17" y="21.89">R278</text>
<circle cx="267.37" cy="459.12" r="10"/>
<text x="267.37" y="464.12">R279</text>
<circle cx="1161.56" cy="669.71" r="10"/>
<text x="1161.56" y="674.71">R280</text>
<circle cx="1139.50" cy="881.30" r="10"/>
<text x="1139.50" y="886.30">R281</text>
<circle cx="388.65" cy="1682.43" r="10"/>
<text x="388.65" y="1687.43">R282</text>
<circle cx="1413.64" cy="1782.21" r="10"/>
<text x="1413.64" y="1787.21">R283</text>
<circle cx="1648.03" cy="1584.05" r="10"/>
<text x="1648.03" y="1589.05">R284</text>
<circle cx="1755.68" cy="666.18" r="10"/>
<text x="1755.68" y="671.18">R285</text>
<circle cx="17.74" cy="986.69" r="10"/>
<text x="17.74" y="991.69">R286</text>
<circle cx="1471.27" cy="199.40" r="10"/>
<text x="1471.27" y="204.40">R287</text>
<circle cx="1483.50" cy="1030.06" r="10"/>
<text x="1483.50" y="1035.06">R288</text>
<circle cx="1030.15" cy="367.58" r="10"/>
<text x="1030.15" y="372.58">R289</text>
<circle cx="1194.88" cy="191.96" r="10"/>
<text x="1194.88" y="196.96">R290</text>
<circle cx="722.89" cy="334.11" r="10"/>
<text x="722.89" y="339.11">R291</text>
<circle cx="258.64" cy="1265.86" r="10"/>
<text x="258.64" y="1270.86">R292</text>
<circle cx="734.46" cy="528.14" r="10"/>
<text x="734.46" y="533.14">R293</text>
<circle cx="1092.17" cy="1669.44" r="10"/>
<text x="1092.17" y="1674.44">R294</text>
<circle cx="185.19" cy="1138.35" r="10"/>
<text x="185.19" y="1143.35">R295</text>
<circle cx="736.40" cy="665.17" r="10"/>
<text x="736.40" y="670.17">R296</text>
<circle cx="1578.06" cy="1637.04" r="10"/>
<text x="1578.06" y="1642.04">R297</text>
<circle cx="5.48" cy="1348.31" r="10"/>
<text x="5.48" y="1353.31">R298</text>
<circle cx="1108.64" cy="1030.24" r="10"/>
<text x="1108.64" y="1035.24">R299</text>
<circle cx="924.97" cy="964.23" r="10"/>
<text x="924.97" y="969.23">R300</text>
<circle cx="1739.50" cy="419.94" r="10"/>
<text x="1739.50" y="424.94">R301</text>
<circle cx="1321.59" cy="964.34" r="10"/>
<text x="1321.59" y="969.34">R302</text>
<circle cx="1005.90" cy="1589.41" r="10"/>
<text x="1005.90" y="1594.41">R303</text>
<circle cx="290.42" cy="194.77" r="10"/>
<text x="290.42" y="199.77">R304</text>
<circle cx="1725.47" cy="1554.79" r="10"/>
<text x="1725.47" y="1559.79">R305</text>
<circle cx="499.42" cy="1413.79" r="10"/>
<text x="499.42" y="1418.79">R306</text>
<circle cx="635.22" cy="737.07" r="10"/>
<text x="635.22" y="742.07">R307</text>
<circle cx="688.70" cy="1780.42" r="10"/>
<text x="688.70" y="1785.42">R308</text>
<circle cx="1605.59" cy="979.33" r="10"/>
<text x="1605.59" y="984.33">R309</text>
<circle cx="1796.19" cy="1603.80" r="10"/>
<text x="1796.19" y="1608.80">R310</text>
<circle cx="1847.80" cy="1198.66" r="10"/>
<text x="1847.80" y="1203.66">R311</text>
<circle cx="137.48" cy="103.34" r="10"/>
<text x="137.48" y="108.34">R312</text>
<circle cx="172.74" cy="105.97" r="10"/>
<text x="172.74" y="110.97">R313</text>
<circle cx="41.66" cy="1620.20" r="10"/>
<text x="41.66" y="1625.20">R314</text>
<circle cx="71.03" cy="1204.23" r="10"/>
<text x="71.03" y="1209.23">R315</text>
<circle cx="300.79" cy="572.64" r="10"/>
<text x="300.79" y="577.64">R316</text>
<circle cx="440.01" cy="1190.88" r="10"/>
<text x="440.01" y="1195.88">R317</text>
<circle cx="286.28" cy="778.20" r="10"/>
<text x="286.28" y="783.20">R318</text>
<circle cx="322.62" cy="792.70" r="10"/>
<text x="322.62" y="797.70">R319</text>
<circle cx="1383.14" cy="351.87" r="10"/>
<text x="1383.14" y="356.87">R320</text>
<circle cx="1515.95" cy="537.04" r="10"/>
<text x="1515.95" y="542.04">R321</text>
<circle cx="241.14" cy="759.97" r="10"/>
<text x="241.14" y="764.97">R322</text>
<circle cx="1283.01" cy="447.18" r="10"/>
<text x="1283.01" y="452.18">R323</text>
<circle cx="990.11" cy="1046.26" r="10"/>
<text x="990.11" y="1051.26">R324</text>
<circle cx="931.99" cy="233.72" r="10"/>
<text x="931.99" y="238.72">R325</text>
<circle cx="1329.60" cy="1601.83" r="10"/>
<text x="1329.60" y="1606.83">R326</text>
<circle cx="1759.66" cy="546.02" r="10"/>
<text x="1759.66" y="551.02">R327</text>
<circle cx="557.28" cy="1409.81" r="10"/>
<text x="557.28" y="1414.81">R328</text>
<circle cx="710.60" cy="710.79" r="10"/>
<text x="710.60" y="715.79">R329</text>
<circle cx="1506.26" cy="25.48" r="10"/>
<text x="1506.26" y="30.48">R330</text>
<circle cx="675.01" cy="1016.32" r="10"/>
<text x="675.01" y="1021.32">R331</text>
<circle cx="873.85" cy="382.91" r="10"/>
<text x="873.85" y="387.91">R332</text>
<circle cx="464.77" cy="1770.79" r="10"/>
<text x="464.77" y="1775.79">R333</text>
<circle cx="1096.86" cy="1626.28" r="10"/>
<text x="1096.86" y="1631.28">R334</text>
<circle cx="1147.26" cy="1292.44" r="10"/>
<text x="1147.26" y="1297.44">R335</text>
<circle cx="192.45" cy="817.47" r="10"/>
<text x="192.45" y="822.47">R336</text>
<circle cx="1331.75" cy="865.70" r="10"/>
<text x="1331.75" y="870.70">R337</text>
<circle cx="952.04" cy="62.41" r="10"/>
<text x="952.04" y="67.41">R338</text>
<circle cx="558.67" cy="661.71" r="10"/>
<text x="558.67" y="666.71">R339</text>
<circle cx="1018.74" cy="1748.39" r="10"/>
<text x="1018.74" y="1753.39">R340</text>
<circle cx="769.61" cy="230.27" r="10"/>
<text x="769.61" y="235.27">R341</text>
<circle cx="1524.89" cy="643.96" r="10"/>
<text x="1524.89" y="648.96">R342</text>
<circle cx="1114.98" cy="813.40" r="10"/>
<text x="1114.98" y="818.40">R343</text>
<circle cx="284.27" cy="610.39" r="10"/>
<text x="284.27" y="615.39">R344</text>
<circle cx="761.18" cy="1635.31" r="10"/>
<text x="761.18" y="1640.31">R345</text>
<circle cx="1723.70" cy="695.80" r="10"/>
<text x="1723.70" y="700.80">R346</text>
<circle cx="78.96" cy="566.38" r="10"/>
<text x="78.96" y="571.38">R347</text>
<circle cx="1598.28" cy="1038.00" r="10"/>
<text x="1598.28" y="1043.00">R348</text>
<circle cx="54.80" cy="496.80" r="10"/>
<text x="54.80" y="501.80">R349</text>
</svg>
