<svg id="topo" viewBox="-90.36 -1958.32 2032.77 2051.09" xmlns="http://www.w3.org/2000/svg">
<style>#topo path {fill: none; stroke: grey; stroke-width: 5.0000px;} #topo circle {fill: lightblue; stroke: none; stroke-width: 0.3px; vector-effect: non-scaling-stroke; r: 10.0000px;} #topo text {fill: black; stroke: none; font-size: 15.0000px; font-family: sans-serif; text-anchor:middle; transform: translateY(0.3em);} #topo path.country {fill: lightgrey; stroke: black; stroke-width: 1px; vector-effect: non-scaling-stroke; visibility: visible;} #topo path.selection {fill: none; stroke: red; stroke-width: 1px; vector-effect: non-scaling-stroke; visibility: visible;} #topo path.utilization {visibility: hidden;}</style>
<path data-id="0-10" d="M1375.75,-562.85,1291.22,-622.73"/>
<path data-id="0-50" d="M1375.75,-562.85,1503.88,-571.17"/>
<path data-id="0-123" d="M1375.75,-562.85,1403.00,-484.60"/>
<path data-id="0-199" d="M1375.75,-562.85,1413.95,-696.58"/>
<path data-id="0-205" d="M1375.75,-562.85,1465.86,-658.06"/>
<path data-id="1-3" d="M284.23,-757.16,222.35,-716.01"/>
<path data-id="1-17" d="M284.23,-757.16,265.81,-805.67"/>
<path data-id="1-195" d="M284.23,-757.16,323.84,-736.56"/>
<path data-id="2-43" d="M1163.03,-457.85,1143.21,-494.46"/>
<path data-id="2-65" d="M1163.03,-457.85,1372.47,-388.76"/>
<path data-id="2-66" d="M1163.03,-457.85,1114.87,-384.89"/>
<path data-id="3-151" d="M222.35,-716.01,148.01,-781.40"/>
<path data-id="3-249" d="M222.35,-716.01,266.12,-641.94"/>
<path data-id="3-295" d="M222.35,-716.01,126.98,-681.66"/>
<path data-id="4-17" d="M365.17,-803.44,265.81,-805.67"/>
<path data-id="4-130" d="M365.17,-803.44,367.09,-992.67"/>
<path data-id="4-195" d="M365.17,-803.44,323.84,-736.56"/>
<path data-id="4-345" d="M365.17,-803.44,449.48,-814.97"/>
<path data-id="5-69" d="M296.51,-417.25,368.42,-224.45"/>
<path data-id="5-87" d="M296.51,-417.25,474.41,-303.67"/>
<path data-id="5-135" d="M296.51,-417.25,118.06,-356.61"/>
<path data-id="5-219" d="M296.51,-417.25,396.31,-502.49"/>
<path data-id="5-296" d="M296.51,-417.25,279.49,-490.91"/>
<path data-id="6-212" d="M1625.02,-425.20,1585.67,-292.77"/>
<path data-id="6-247" d="M1625.02,-425.20,1616.42,-464.23"/>
<path data-id="6-281" d="M1625.02,-425.20,1688.21,-411.92"/>
<path data-id="7-18" d="M352.17,-110.50,158.72,-169.03"/>
<path data-id="7-69" d="M352.17,-110.50,368.42,-224.45"/>
<path data-id="7-133" d="M352.17,-110.50,412.16,-65.62"/>
<path data-id="7-231" d="M352.17,-110.50,150.30,-90.10"/>
<path data-id="7-273" d="M352.17,-110.50,435.11,-118.76"/>
<path data-id="8-46" d="M1656.96,-1028.26,1659.12,-930.55"/>
<path data-id="8-93" d="M1656.96,-1028.26,1657.86,-1126.63"/>
<path data-id="8-208" d="M1656.96,-1028.26,1617.50,-930.72"/>
<path data-id="8-240" d="M1656.96,-1028.26,1730.79,-1034.34"/>
<path data-id="8-285" d="M1656.96,-1028.26,1696.68,-938.90"/>
<path data-id="8-316" d="M1656.96,-1028.26,1544.97,-1065.33"/>
<path data-id="9-19" d="M103.36,-289.63,40.21,-349.21"/>
<path data-id="9-77" d="M103.36,-289.63,8.83,-302.16"/>
<path data-id="9-135" d="M103.36,-289.63,118.06,-356.61"/>
<path data-id="9-251" d="M103.36,-289.63,153.02,-203.88"/>
<path data-id="10-120" d="M1291.22,-622.73,1381.31,-706.95"/>
<path data-id="10-237" d="M1291.22,-622.73,1217.26,-612.41"/>
<path data-id="10-250" d="M1291.22,-622.73,1290.02,-763.37"/>
<path data-id="10-311" d="M1291.22,-622.73,1236.72,-744.37"/>
<path data-id="11-21" d="M393.96,-1781.80,343.76,-1732.01"/>
<path data-id="11-96" d="M393.96,-1781.80,399.14,-1728.73"/>
<path data-id="11-108" d="M393.96,-1781.80,304.87,-1828.07"/>
<path data-id="11-265" d="M393.96,-1781.80,494.82,-1770.46"/>
<path data-id="12-13" d="M735.02,-1616.56,879.11,-1652.26"/>
<path data-id="12-175" d="M735.02,-1616.56,728.07,-1716.41"/>
<path data-id="12-254" d="M735.02,-1616.56,711.49,-1587.84"/>
<path data-id="12-255" d="M735.02,-1616.56,867.90,-1487.29"/>
<path data-id="13-74" d="M879.11,-1652.26,965.29,-1578.36"/>
<path data-id="13-175" d="M879.11,-1652.26,728.07,-1716.41"/>
<path data-id="13-213" d="M879.11,-1652.26,982.84,-1707.72"/>
<path data-id="13-255" d="M879.11,-1652.26,867.90,-1487.29"/>
<path data-id="13-306" d="M879.11,-1652.26,885.28,-1730.11"/>
<path data-id="14-121" d="M5.84,-1618.89,72.38,-1645.96"/>
<path data-id="14-229" d="M5.84,-1618.89,2.03,-1652.44"/>
<path data-id="14-341" d="M5.84,-1618.89,42.97,-1589.23"/>
<path data-id="15-75" d="M655.23,-1027.89,656.77,-966.95"/>
<path data-id="15-115" d="M655.23,-1027.89,497.04,-1116.12"/>
<path data-id="15-187" d="M655.23,-1027.89,750.04,-1044.68"/>
<path data-id="15-283" d="M655.23,-1027.89,581.67,-1242.67"/>
<path data-id="16-29" d="M1765.06,-1544.66,1838.52,-1492.67"/>
<path data-id="16-119" d="M1765.06,-1544.66,1774.66,-1470.60"/>
<path data-id="16-185" d="M1765.06,-1544.66,1653.36,-1477.39"/>
<path data-id="16-301" d="M1765.06,-1544.66,1725.67,-1640.07"/>
<path data-id="17-105" d="M265.81,-805.67,264.44,-905.29"/>
<path data-id="17-287" d="M265.81,-805.67,178.36,-822.34"/>
<path data-id="18-69" d="M158.72,-169.03,368.42,-224.45"/>
<path data-id="18-231" d="M158.72,-169.03,150.30,-90.10"/>
<path data-id="18-251" d="M158.72,-169.03,153.02,-203.88"/>
<path data-id="19-77" d="M40.21,-349.21,8.83,-302.16"/>
<path data-id="19-110" d="M40.21,-349.21,44.25,-457.73"/>
<path data-id="19-135" d="M40.21,-349.21,118.06,-356.61"/>
<path data-id="20-116" d="M778.35,-843.55,847.55,-874.09"/>
<path data-id="20-154" d="M778.35,-843.55,747.94,-746.79"/>
<path data-id="20-159" d="M778.35,-843.55,710.96,-818.82"/>
<path data-id="20-193" d="M778.35,-843.55,746.43,-910.43"/>
<path data-id="21-32" d="M343.76,-1732.01,330.41,-1681.56"/>
<path data-id="21-96" d="M343.76,-1732.01,399.14,-1728.73"/>
<path data-id="21-108" d="M343.76,-1732.01,304.87,-1828.07"/>
<path data-id="21-280" d="M343.76,-1732.01,282.64,-1716.28"/>
<path data-id="22-112" d="M610.11,-827.34,685.17,-798.56"/>
<path data-id="22-137" d="M610.11,-827.34,629.11,-880.10"/>
<path data-id="22-248" d="M610.11,-827.34,549.98,-814.31"/>
<path data-id="23-92" d="M316.60,-1459.80,243.25,-1502.17"/>
<path data-id="23-153" d="M316.60,-1459.80,378.62,-1453.63"/>
<path data-id="23-232" d="M316.60,-1459.80,326.23,-1422.59"/>
<path data-id="24-40" d="M833.41,-1224.75,892.35,-1378.89"/>
<path data-id="24-57" d="M833.41,-1224.75,845.00,-1183.97"/>
<path data-id="24-67" d="M833.41,-1224.75,943.95,-1246.90"/>
<path data-id="24-142" d="M833.41,-1224.75,763.55,-1162.64"/>
<path data-id="24-349" d="M833.41,-1224.75,721.56,-1302.72"/>
<path data-id="25-131" d="M714.70,-1751.56,775.07,-1834.61"/>
<path data-id="25-175" d="M714.70,-1751.56,728.07,-1716.41"/>
<path data-id="25-184" d="M714.70,-1751.56,604.56,-1829.69"/>
<path data-id="25-286" d="M714.70,-1751.56,576.53,-1697.31"/>
<path data-id="26-56" d="M1655.76,-1199.88,1689.34,-1220.39"/>
<path data-id="26-139" d="M1655.76,-1199.88,1536.09,-1225.01"/>
<path data-id="26-299" d="M1655.76,-1199.88,1622.51,-1303.44"/>
<path data-id="26-309" d="M1655.76,-1199.88,1653.44,-1161.56"/>
<path data-id="27-34" d="M1257.39,-912.53,1365.26,-903.78"/>
<path data-id="27-79" d="M1257.39,-912.53,1124.39,-864.54"/>
<path data-id="27-194" d="M1257.39,-912.53,1157.23,-801.35"/>
<path data-id="27-230" d="M1257.39,-912.53,1130.39,-928.39"/>
<path data-id="27-244" d="M1257.39,-912.53,1217.64,-989.39"/>
<path data-id="27-250" d="M1257.39,-912.53,1290.02,-763.37"/>
<path data-id="28-40" d="M883.76,-1409.91,892.35,-1378.89"/>
<path data-id="28-161" d="M883.76,-1409.91,762.48,-1403.74"/>
<path data-id="28-167" d="M883.76,-1409.91,773.25,-1452.64"/>
<path data-id="28-255" d="M883.76,-1409.91,867.90,-1487.29"/>
<path data-id="28-279" d="M883.76,-1409.91,936.13,-1460.93"/>
<path data-id="29-119" d="M1838.52,-1492.67,1774.66,-1470.60"/>
<path data-id="30-105" d="M161.70,-1041.40,264.44,-905.29"/>
<path data-id="30-266" d="M161.70,-1041.40,78.03,-1049.71"/>
<path data-id="30-321" d="M161.70,-1041.40,281.24,-1053.53"/>
<path data-id="30-332" d="M161.70,-1041.40,174.27,-1163.21"/>
<path data-id="31-90" d="M877.66,-309.03,825.32,-265.31"/>
<path data-id="31-215" d="M877.66,-309.03,924.26,-296.53"/>
<path data-id="31-259" d="M877.66,-309.03,846.80,-247.58"/>
<path data-id="31-317" d="M877.66,-309.03,859.63,-379.54"/>
<path data-id="32-218" d="M330.41,-1681.56,255.89,-1657.23"/>
<path data-id="32-234" d="M330.41,-1681.56,419.46,-1556.68"/>
<path data-id="32-280" d="M330.41,-1681.56,282.64,-1716.28"/>
<path data-id="33-76" d="M949.41,-542.71,856.47,-575.74"/>
<path data-id="33-176" d="M949.41,-542.71,942.46,-503.46"/>
<path data-id="33-209" d="M949.41,-542.71,1017.02,-524.25"/>
<path data-id="34-124" d="M1365.26,-903.78,1343.55,-1057.56"/>
<path data-id="34-245" d="M1365.26,-903.78,1378.33,-857.68"/>
<path data-id="34-305" d="M1365.26,-903.78,1479.29,-1042.02"/>
<path data-id="35-216" d="M86.50,-792.81,76.90,-741.47"/>
<path data-id="35-221" d="M86.50,-792.81,54.29,-830.50"/>
<path data-id="35-334" d="M86.50,-792.81,132.69,-808.45"/>
<path data-id="36-198" d="M452.82,-1289.93,448.27,-1196.16"/>
<path data-id="36-283" d="M452.82,-1289.93,581.67,-1242.67"/>
<path data-id="36-297" d="M452.82,-1289.93,560.68,-1346.27"/>
<path data-id="36-307" d="M452.82,-1289.93,383.90,-1407.67"/>
<path data-id="36-308" d="M452.82,-1289.93,379.62,-1249.88"/>
<path data-id="37-97" d="M1693.46,-337.15,1832.60,-186.95"/>
<path data-id="37-200" d="M1693.46,-337.15,1681.52,-170.99"/>
<path data-id="37-212" d="M1693.46,-337.15,1585.67,-292.77"/>
<path data-id="37-281" d="M1693.46,-337.15,1688.21,-411.92"/>
<path data-id="38-134" d="M1120.58,-1080.22,1155.84,-1102.09"/>
<path data-id="38-180" d="M1120.58,-1080.22,1123.25,-1145.81"/>
<path data-id="38-182" d="M1120.58,-1080.22,1065.86,-1135.86"/>
<path data-id="38-346" d="M1120.58,-1080.22,1178.50,-983.58"/>
<path data-id="39-42" d="M89.88,-1607.11,248.11,-1609.89"/>
<path data-id="39-95" d="M89.88,-1607.11,96.35,-1474.48"/>
<path data-id="39-106" d="M89.88,-1607.11,241.77,-1533.27"/>
<path data-id="39-121" d="M89.88,-1607.11,72.38,-1645.96"/>
<path data-id="39-341" d="M89.88,-1607.11,42.97,-1589.23"/>
<path data-id="40-267" d="M892.35,-1378.89,946.51,-1376.71"/>
<path data-id="41-60" d="M123.44,-1284.27,117.52,-1362.87"/>
<path data-id="41-303" d="M123.44,-1284.27,271.64,-1275.51"/>
<path data-id="41-332" d="M123.44,-1284.27,174.27,-1163.21"/>
<path data-id="42-106" d="M248.11,-1609.89,241.77,-1533.27"/>
<path data-id="42-218" d="M248.11,-1609.89,255.89,-1657.23"/>
<path data-id="42-234" d="M248.11,-1609.89,419.46,-1556.68"/>
<path data-id="42-290" d="M248.11,-1609.89,90.52,-1669.90"/>
<path data-id="43-145" d="M1143.21,-494.46,1070.77,-618.02"/>
<path data-id="43-158" d="M1143.21,-494.46,1191.76,-542.26"/>
<path data-id="43-209" d="M1143.21,-494.46,1017.02,-524.25"/>
<path data-id="44-204" d="M1489.97,-1563.48,1470.61,-1516.03"/>
<path data-id="44-268" d="M1489.97,-1563.48,1526.09,-1586.18"/>
<path data-id="44-333" d="M1489.97,-1563.48,1369.77,-1644.42"/>
<path data-id="45-162" d="M683.08,-539.69,729.78,-402.18"/>
<path data-id="45-203" d="M683.08,-539.69,562.66,-717.50"/>
<path data-id="45-228" d="M683.08,-539.69,622.67,-502.81"/>
<path data-id="45-339" d="M683.08,-539.69,754.53,-634.65"/>
<path data-id="46-208" d="M1659.12,-930.55,1617.50,-930.72"/>
<path data-id="46-285" d="M1659.12,-930.55,1696.68,-938.90"/>
<path data-id="47-161" d="M600.62,-1357.75,762.48,-1403.74"/>
<path data-id="47-238" d="M600.62,-1357.75,613.69,-1459.26"/>
<path data-id="47-297" d="M600.62,-1357.75,560.68,-1346.27"/>
<path data-id="47-349" d="M600.62,-1357.75,721.56,-1302.72"/>
<path data-id="48-59" d="M469.01,-1087.48,452.49,-957.07"/>
<path data-id="48-94" d="M469.01,-1087.48,332.98,-1039.65"/>
<path data-id="48-115" d="M469.01,-1087.48,497.04,-1116.12"/>
<path data-id="48-130" d="M469.01,-1087.48,367.09,-992.67"/>
<path data-id="49-71" d="M1835.53,-742.77,1721.88,-746.33"/>
<path data-id="49-138" d="M1835.53,-742.77,1737.01,-601.58"/>
<path data-id="49-197" d="M1835.53,-742.77,1730.82,-830.87"/>
<path data-id="50-72" d="M1503.88,-571.17,1552.63,-609.45"/>
<path data-id="50-123" d="M1503.88,-571.17,1403.00,-484.60"/>
<path data-id="50-205" d="M1503.88,-571.17,1465.86,-658.06"/>
<path data-id="50-214" d="M1503.88,-571.17,1548.68,-563.39"/>
<path data-id="51-75" d="M764.64,-973.53,656.77,-966.95"/>
<path data-id="51-187" d="M764.64,-973.53,750.04,-1044.68"/>
<path data-id="51-193" d="M764.64,-973.53,746.43,-910.43"/>
<path data-id="51-239" d="M764.64,-973.53,848.26,-1056.50"/>
<path data-id="52-211" d="M565.70,-427.84,504.36,-399.72"/>
<path data-id="52-224" d="M565.70,-427.84,589.73,-344.67"/>
<path data-id="52-228" d="M565.70,-427.84,622.67,-502.81"/>
<path data-id="52-241" d="M565.70,-427.84,518.00,-374.61"/>
<path data-id="52-242" d="M565.70,-427.84,447.51,-605.15"/>
<path data-id="52-289" d="M565.70,-427.84,622.87,-408.96"/>
<path data-id="53-138" d="M1660.77,-482.08,1737.01,-601.58"/>
<path data-id="53-149" d="M1660.77,-482.08,1770.11,-502.18"/>
<path data-id="53-247" d="M1660.77,-482.08,1616.42,-464.23"/>
<path data-id="53-281" d="M1660.77,-482.08,1688.21,-411.92"/>
<path data-id="54-238" d="M550.00,-1498.57,613.69,-1459.26"/>
<path data-id="54-263" d="M550.00,-1498.57,509.65,-1506.11"/>
<path data-id="54-344" d="M550.00,-1498.57,541.24,-1536.51"/>
<path data-id="55-293" d="M1217.10,-0.46,1085.02,-47.94"/>
<path data-id="55-319" d="M1217.10,-0.46,1225.59,-60.66"/>
<path data-id="56-152" d="M1689.34,-1220.39,1742.92,-1226.97"/>
<path data-id="56-269" d="M1689.34,-1220.39,1709.77,-1267.13"/>
<path data-id="56-299" d="M1689.34,-1220.39,1622.51,-1303.44"/>
<path data-id="57-67" d="M845.00,-1183.97,943.95,-1246.90"/>
<path data-id="57-85" d="M845.00,-1183.97,787.26,-1075.51"/>
<path data-id="57-142" d="M845.00,-1183.97,763.55,-1162.64"/>
<path data-id="57-239" d="M845.00,-1183.97,848.26,-1056.50"/>
<path data-id="57-340" d="M845.00,-1183.97,938.42,-1156.56"/>
<path data-id="58-125" d="M1326.88,-1758.16,1487.41,-1703.13"/>
<path data-id="58-207" d="M1326.88,-1758.16,1276.85,-1747.53"/>
<path data-id="58-233" d="M1326.88,-1758.16,1503.60,-1754.24"/>
<path data-id="58-333" d="M1326.88,-1758.16,1369.77,-1644.42"/>
<path data-id="59-82" d="M452.49,-957.07,508.59,-920.18"/>
<path data-id="59-130" d="M452.49,-957.07,367.09,-992.67"/>
<path data-id="60-103" d="M117.52,-1362.87,5.90,-1363.85"/>
<path data-id="60-257" d="M117.52,-1362.87,281.52,-1360.59"/>
<path data-id="60-325" d="M117.52,-1362.87,89.03,-1426.37"/>
<path data-id="61-67" d="M1118.97,-1305.48,943.95,-1246.90"/>
<path data-id="61-107" d="M1118.97,-1305.48,1076.75,-1452.22"/>
<path data-id="61-223" d="M1118.97,-1305.48,1149.87,-1176.13"/>
<path data-id="61-267" d="M1118.97,-1305.48,946.51,-1376.71"/>
<path data-id="61-270" d="M1118.97,-1305.48,1200.46,-1278.16"/>
<path data-id="62-98" d="M1260.05,-297.70,1164.17,-322.48"/>
<path data-id="62-166" d="M1260.05,-297.70,1227.92,-159.80"/>
<path data-id="62-226" d="M1260.05,-297.70,1164.94,-241.80"/>
<path data-id="62-227" d="M1260.05,-297.70,1280.46,-162.08"/>
<path data-id="62-243" d="M1260.05,-297.70,1325.08,-304.51"/>
<path data-id="63-253" d="M1662.66,-1387.36,1622.25,-1411.28"/>
<path data-id="63-262" d="M1662.66,-1387.36,1716.89,-1403.93"/>
<path data-id="63-269" d="M1662.66,-1387.36,1709.77,-1267.13"/>
<path data-id="63-299" d="M1662.66,-1387.36,1622.51,-1303.44"/>
<path data-id="63-320" d="M1662.66,-1387.36,1657.38,-1449.93"/>
<path data-id="64-221" d="M10.67,-849.15,54.29,-830.50"/>
<path data-id="64-258" d="M10.67,-849.15,11.81,-903.06"/>
<path data-id="65-171" d="M1372.47,-388.76,1405.62,-403.67"/>
<path data-id="65-243" d="M1372.47,-388.76,1325.08,-304.51"/>
<path data-id="65-322" d="M1372.47,-388.76,1436.84,-291.76"/>
<path data-id="66-98" d="M1114.87,-384.89,1164.17,-322.48"/>
<path data-id="66-318" d="M1114.87,-384.89,1032.79,-382.40"/>
<path data-id="67-206" d="M943.95,-1246.90,971.21,-1155.28"/>
<path data-id="67-267" d="M943.95,-1246.90,946.51,-1376.71"/>
<path data-id="67-340" d="M943.95,-1246.90,938.42,-1156.56"/>
<path data-id="68-191" d="M498.81,-754.62,489.62,-823.69"/>
<path data-id="68-203" d="M498.81,-754.62,562.66,-717.50"/>
<path data-id="68-242" d="M498.81,-754.62,447.51,-605.15"/>
<path data-id="68-248" d="M498.81,-754.62,549.98,-814.31"/>
<path data-id="68-345" d="M498.81,-754.62,449.48,-814.97"/>
<path data-id="69-87" d="M368.42,-224.45,474.41,-303.67"/>
<path data-id="69-164" d="M368.42,-224.45,528.57,-225.19"/>
<path data-id="69-251" d="M368.42,-224.45,153.02,-203.88"/>
<path data-id="69-273" d="M368.42,-224.45,435.11,-118.76"/>
<path data-id="70-182" d="M1025.06,-1147.74,1065.86,-1135.86"/>
<path data-id="70-206" d="M1025.06,-1147.74,971.21,-1155.28"/>
<path data-id="70-300" d="M1025.06,-1147.74,976.13,-910.28"/>
<path data-id="71-72" d="M1721.88,-746.33,1552.63,-609.45"/>
<path data-id="71-138" d="M1721.88,-746.33,1737.01,-601.58"/>
<path data-id="71-144" d="M1721.88,-746.33,1466.88,-806.46"/>
<path data-id="71-197" d="M1721.88,-746.33,1730.82,-830.87"/>
<path data-id="72-138" d="M1552.63,-609.45,1737.01,-601.58"/>
<path data-id="72-205" d="M1552.63,-609.45,1465.86,-658.06"/>
<path data-id="72-214" d="M1552.63,-609.45,1548.68,-563.39"/>
<path data-id="73-116" d="M931.65,-915.44,847.55,-874.09"/>
<path data-id="73-239" d="M931.65,-915.44,848.26,-1056.50"/>
<path data-id="73-300" d="M931.65,-915.44,976.13,-910.28"/>
<path data-id="73-323" d="M931.65,-915.44,896.74,-782.93"/>
<path data-id="74-83" d="M965.29,-1578.36,1019.24,-1632.63"/>
<path data-id="74-88" d="M965.29,-1578.36,922.79,-1497.42"/>
<path data-id="74-330" d="M965.29,-1578.36,1095.58,-1530.33"/>
<path data-id="75-82" d="M656.77,-966.95,508.59,-920.18"/>
<path data-id="75-137" d="M656.77,-966.95,629.11,-880.10"/>
<path data-id="75-193" d="M656.77,-966.95,746.43,-910.43"/>
<path data-id="76-140" d="M856.47,-575.74,808.94,-667.30"/>
<path data-id="76-162" d="M856.47,-575.74,729.78,-402.18"/>
<path data-id="76-246" d="M856.47,-575.74,887.60,-701.30"/>
<path data-id="76-313" d="M856.47,-575.74,910.76,-506.78"/>
<path data-id="76-339" d="M856.47,-575.74,754.53,-634.65"/>
<path data-id="77-220" d="M8.83,-302.16,35.75,-67.43"/>
<path data-id="78-124" d="M1408.74,-1150.86,1343.55,-1057.56"/>
<path data-id="78-165" d="M1408.74,-1150.86,1442.76,-1111.41"/>
<path data-id="78-174" d="M1408.74,-1150.86,1383.58,-1176.95"/>
<path data-id="78-178" d="M1408.74,-1150.86,1486.18,-1175.16"/>
<path data-id="79-126" d="M1124.39,-864.54,1056.59,-857.81"/>
<path data-id="79-155" d="M1124.39,-864.54,1085.37,-895.04"/>
<path data-id="79-194" d="M1124.39,-864.54,1157.23,-801.35"/>
<path data-id="79-230" d="M1124.39,-864.54,1130.39,-928.39"/>
<path data-id="79-274" d="M1124.39,-864.54,1112.53,-794.75"/>
<path data-id="80-142" d="M691.02,-1223.19,763.55,-1162.64"/>
<path data-id="80-283" d="M691.02,-1223.19,581.67,-1242.67"/>
<path data-id="80-349" d="M691.02,-1223.19,721.56,-1302.72"/>
<path data-id="81-168" d="M6.58,-1820.76,10.57,-1743.16"/>
<path data-id="81-294" d="M6.58,-1820.76,201.23,-1865.09"/>
<path data-id="82-137" d="M508.59,-920.18,629.11,-880.10"/>
<path data-id="82-191" d="M508.59,-920.18,489.62,-823.69"/>
<path data-id="82-248" d="M508.59,-920.18,549.98,-814.31"/>
<path data-id="83-213" d="M1019.24,-1632.63,982.84,-1707.72"/>
<path data-id="83-330" d="M1019.24,-1632.63,1095.58,-1530.33"/>
<path data-id="83-336" d="M1019.24,-1632.63,1136.02,-1688.18"/>
<path data-id="84-124" d="M1214.15,-1015.86,1343.55,-1057.56"/>
<path data-id="84-134" d="M1214.15,-1015.86,1155.84,-1102.09"/>
<path data-id="84-190" d="M1214.15,-1015.86,1258.01,-1106.27"/>
<path data-id="84-244" d="M1214.15,-1015.86,1217.64,-989.39"/>
<path data-id="85-142" d="M787.26,-1075.51,763.55,-1162.64"/>
<path data-id="85-187" d="M787.26,-1075.51,750.04,-1044.68"/>
<path data-id="85-239" d="M787.26,-1075.51,848.26,-1056.50"/>
<path data-id="86-177" d="M51.20,-990.38,16.17,-953.14"/>
<path data-id="86-266" d="M51.20,-990.38,78.03,-1049.71"/>
<path data-id="87-217" d="M474.41,-303.67,509.64,-299.50"/>
<path data-id="87-241" d="M474.41,-303.67,518.00,-374.61"/>
<path data-id="88-255" d="M922.79,-1497.42,867.90,-1487.29"/>
<path data-id="88-279" d="M922.79,-1497.42,936.13,-1460.93"/>
<path data-id="89-109" d="M716.81,-117.44,669.21,-23.35"/>
<path data-id="89-160" d="M716.81,-117.44,662.56,-117.81"/>
<path data-id="89-163" d="M716.81,-117.44,810.08,-67.18"/>
<path data-id="89-312" d="M716.81,-117.44,734.28,-178.54"/>
<path data-id="90-127" d="M825.32,-265.31,778.58,-273.27"/>
<path data-id="90-259" d="M825.32,-265.31,846.80,-247.58"/>
<path data-id="91-93" d="M1785.06,-1153.11,1657.86,-1126.63"/>
<path data-id="91-146" d="M1785.06,-1153.11,1822.70,-1170.34"/>
<path data-id="91-152" d="M1785.06,-1153.11,1742.92,-1226.97"/>
<path data-id="91-240" d="M1785.06,-1153.11,1730.79,-1034.34"/>
<path data-id="91-309" d="M1785.06,-1153.11,1653.44,-1161.56"/>
<path data-id="92-95" d="M243.25,-1502.17,96.35,-1474.48"/>
<path data-id="92-106" d="M243.25,-1502.17,241.77,-1533.27"/>
<path data-id="93-240" d="M1657.86,-1126.63,1730.79,-1034.34"/>
<path data-id="93-309" d="M1657.86,-1126.63,1653.44,-1161.56"/>
<path data-id="93-316" d="M1657.86,-1126.63,1544.97,-1065.33"/>
<path data-id="94-130" d="M332.98,-1039.65,367.09,-992.67"/>
<path data-id="94-321" d="M332.98,-1039.65,281.24,-1053.53"/>
<path data-id="95-325" d="M96.35,-1474.48,89.03,-1426.37"/>
<path data-id="95-341" d="M96.35,-1474.48,42.97,-1589.23"/>
<path data-id="96-234" d="M399.14,-1728.73,419.46,-1556.68"/>
<path data-id="96-265" d="M399.14,-1728.73,494.82,-1770.46"/>
<path data-id="97-200" d="M1832.60,-186.95,1681.52,-170.99"/>
<path data-id="97-337" d="M1832.60,-186.95,1850.01,-89.80"/>
<path data-id="98-226" d="M1164.17,-322.48,1164.94,-241.80"/>
<path data-id="99-185" d="M1676.64,-1632.11,1653.36,-1477.39"/>
<path data-id="99-268" d="M1676.64,-1632.11,1526.09,-1586.18"/>
<path data-id="99-301" d="M1676.64,-1632.11,1725.67,-1640.07"/>
<path data-id="100-110" d="M105.49,-506.94,44.25,-457.73"/>
<path data-id="100-201" d="M105.49,-506.94,15.06,-565.61"/>
<path data-id="100-264" d="M105.49,-506.94,228.04,-597.18"/>
<path data-id="100-295" d="M105.49,-506.94,126.98,-681.66"/>
<path data-id="100-296" d="M105.49,-506.94,279.49,-490.91"/>
<path data-id="101-212" d="M1535.16,-302.52,1585.67,-292.77"/>
<path data-id="101-235" d="M1535.16,-302.52,1500.49,-256.33"/>
<path data-id="101-342" d="M1535.16,-302.52,1465.87,-341.53"/>
<path data-id="102-210" d="M369.47,-1199.04,404.03,-1172.75"/>
<path data-id="102-308" d="M369.47,-1199.04,379.62,-1249.88"/>
<path data-id="102-314" d="M369.47,-1199.04,340.40,-1147.59"/>
<path data-id="103-325" d="M5.90,-1363.85,89.03,-1426.37"/>
<path data-id="104-123" d="M1425.50,-438.65,1403.00,-484.60"/>
<path data-id="104-132" d="M1425.50,-438.65,1559.65,-515.79"/>
<path data-id="104-171" d="M1425.50,-438.65,1405.62,-403.67"/>
<path data-id="105-130" d="M264.44,-905.29,367.09,-992.67"/>
<path data-id="105-287" d="M264.44,-905.29,178.36,-822.34"/>
<path data-id="105-321" d="M264.44,-905.29,281.24,-1053.53"/>
<path data-id="107-267" d="M1076.75,-1452.22,946.51,-1376.71"/>
<path data-id="107-279" d="M1076.75,-1452.22,936.13,-1460.93"/>
<path data-id="107-315" d="M1076.75,-1452.22,1081.50,-1478.66"/>
<path data-id="108-280" d="M304.87,-1828.07,282.64,-1716.28"/>
<path data-id="108-294" d="M304.87,-1828.07,201.23,-1865.09"/>
<path data-id="109-160" d="M669.21,-23.35,662.56,-117.81"/>
<path data-id="109-163" d="M669.21,-23.35,810.08,-67.18"/>
<path data-id="109-338" d="M669.21,-23.35,512.58,-21.08"/>
<path data-id="110-135" d="M44.25,-457.73,118.06,-356.61"/>
<path data-id="110-201" d="M44.25,-457.73,15.06,-565.61"/>
<path data-id="111-222" d="M1687.02,-1862.74,1734.66,-1850.78"/>
<path data-id="111-233" d="M1687.02,-1862.74,1503.60,-1754.24"/>
<path data-id="111-278" d="M1687.02,-1862.74,1704.12,-1794.57"/>
<path data-id="112-154" d="M685.17,-798.56,747.94,-746.79"/>
<path data-id="112-159" d="M685.17,-798.56,710.96,-818.82"/>
<path data-id="113-143" d="M934.31,-94.59,896.99,-95.44"/>
<path data-id="113-157" d="M934.31,-94.59,910.43,-125.16"/>
<path data-id="113-170" d="M934.31,-94.59,920.93,-28.61"/>
<path data-id="113-181" d="M934.31,-94.59,995.42,-49.78"/>
<path data-id="114-220" d="M65.93,-35.43,35.75,-67.43"/>
<path data-id="114-231" d="M65.93,-35.43,150.30,-90.10"/>
<path data-id="114-348" d="M65.93,-35.43,127.75,-9.51"/>
<path data-id="115-310" d="M497.04,-1116.12,482.72,-1153.98"/>
<path data-id="116-323" d="M847.55,-874.09,896.74,-782.93"/>
<path data-id="117-120" d="M1369.01,-747.06,1381.31,-706.95"/>
<path data-id="117-144" d="M1369.01,-747.06,1466.88,-806.46"/>
<path data-id="117-245" d="M1369.01,-747.06,1378.33,-857.68"/>
<path data-id="117-250" d="M1369.01,-747.06,1290.02,-763.37"/>
<path data-id="118-131" d="M824.87,-1828.95,775.07,-1834.61"/>
<path data-id="118-306" d="M824.87,-1828.95,885.28,-1730.11"/>
<path data-id="119-185" d="M1774.66,-1470.60,1653.36,-1477.39"/>
<path data-id="119-262" d="M1774.66,-1470.60,1716.89,-1403.93"/>
<path data-id="120-199" d="M1381.31,-706.95,1413.95,-696.58"/>
<path data-id="121-229" d="M72.38,-1645.96,2.03,-1652.44"/>
<path data-id="121-290" d="M72.38,-1645.96,90.52,-1669.90"/>
<path data-id="121-341" d="M72.38,-1645.96,42.97,-1589.23"/>
<path data-id="122-136" d="M1782.36,-1771.41,1819.77,-1820.51"/>
<path data-id="122-222" d="M1782.36,-1771.41,1734.66,-1850.78"/>
<path data-id="122-278" d="M1782.36,-1771.41,1704.12,-1794.57"/>
<path data-id="122-301" d="M1782.36,-1771.41,1725.67,-1640.07"/>
<path data-id="124-165" d="M1343.55,-1057.56,1442.76,-1111.41"/>
<path data-id="124-190" d="M1343.55,-1057.56,1258.01,-1106.27"/>
<path data-id="124-305" d="M1343.55,-1057.56,1479.29,-1042.02"/>
<path data-id="125-233" d="M1487.41,-1703.13,1503.60,-1754.24"/>
<path data-id="125-268" d="M1487.41,-1703.13,1526.09,-1586.18"/>
<path data-id="125-333" d="M1487.41,-1703.13,1369.77,-1644.42"/>
<path data-id="126-155" d="M1056.59,-857.81,1085.37,-895.04"/>
<path data-id="126-156" d="M1056.59,-857.81,1011.39,-795.53"/>
<path data-id="126-274" d="M1056.59,-857.81,1112.53,-794.75"/>
<path data-id="126-300" d="M1056.59,-857.81,976.13,-910.28"/>
<path data-id="127-162" d="M778.58,-273.27,729.78,-402.18"/>
<path data-id="127-224" d="M778.58,-273.27,589.73,-344.67"/>
<path data-id="127-312" d="M778.58,-273.27,734.28,-178.54"/>
<path data-id="128-169" d="M915.39,-227.59,969.17,-225.73"/>
<path data-id="128-196" d="M915.39,-227.59,909.51,-178.30"/>
<path data-id="128-215" d="M915.39,-227.59,924.26,-296.53"/>
<path data-id="128-259" d="M915.39,-227.59,846.80,-247.58"/>
<path data-id="129-178" d="M1399.94,-1350.42,1486.18,-1175.16"/>
<path data-id="129-292" d="M1399.94,-1350.42,1349.91,-1318.95"/>
<path data-id="129-324" d="M1399.94,-1350.42,1442.06,-1372.67"/>
<path data-id="132-214" d="M1559.65,-515.79,1548.68,-563.39"/>
<path data-id="132-247" d="M1559.65,-515.79,1616.42,-464.23"/>
<path data-id="133-273" d="M412.16,-65.62,435.11,-118.76"/>
<path data-id="133-328" d="M412.16,-65.62,450.40,-78.27"/>
<path data-id="134-180" d="M1155.84,-1102.09,1123.25,-1145.81"/>
<path data-id="134-190" d="M1155.84,-1102.09,1258.01,-1106.27"/>
<path data-id="136-222" d="M1819.77,-1820.51,1734.66,-1850.78"/>
<path data-id="136-326" d="M1819.77,-1820.51,1847.57,-1853.86"/>
<path data-id="137-159" d="M629.11,-880.10,710.96,-818.82"/>
<path data-id="137-193" d="M629.11,-880.10,746.43,-910.43"/>
<path data-id="138-149" d="M1737.01,-601.58,1770.11,-502.18"/>
<path data-id="139-150" d="M1536.09,-1225.01,1541.71,-1338.05"/>
<path data-id="139-178" d="M1536.09,-1225.01,1486.18,-1175.16"/>
<path data-id="139-299" d="M1536.09,-1225.01,1622.51,-1303.44"/>
<path data-id="140-154" d="M808.94,-667.30,747.94,-746.79"/>
<path data-id="140-246" d="M808.94,-667.30,887.60,-701.30"/>
<path data-id="140-339" d="M808.94,-667.30,754.53,-634.65"/>
<path data-id="141-167" d="M707.64,-1503.64,773.25,-1452.64"/>
<path data-id="141-238" d="M707.64,-1503.64,613.69,-1459.26"/>
<path data-id="141-254" d="M707.64,-1503.64,711.49,-1587.84"/>
<path data-id="143-157" d="M896.99,-95.44,910.43,-125.16"/>
<path data-id="143-163" d="M896.99,-95.44,810.08,-67.18"/>
<path data-id="143-170" d="M896.99,-95.44,920.93,-28.61"/>
<path data-id="144-199" d="M1466.88,-806.46,1413.95,-696.58"/>
<path data-id="144-208" d="M1466.88,-806.46,1617.50,-930.72"/>
<path data-id="144-245" d="M1466.88,-806.46,1378.33,-857.68"/>
<path data-id="145-156" d="M1070.77,-618.02,1011.39,-795.53"/>
<path data-id="145-158" d="M1070.77,-618.02,1191.76,-542.26"/>
<path data-id="145-202" d="M1070.77,-618.02,1167.09,-685.10"/>
<path data-id="145-209" d="M1070.77,-618.02,1017.02,-524.25"/>
<path data-id="145-237" d="M1070.77,-618.02,1217.26,-612.41"/>
<path data-id="145-246" d="M1070.77,-618.02,887.60,-701.30"/>
<path data-id="146-256" d="M1822.70,-1170.34,1820.15,-1215.79"/>
<path data-id="147-200" d="M1735.51,-62.33,1681.52,-170.99"/>
<path data-id="147-236" d="M1735.51,-62.33,1624.75,-103.49"/>
<path data-id="147-337" d="M1735.51,-62.33,1850.01,-89.80"/>
<path data-id="148-219" d="M295.20,-552.57,396.31,-502.49"/>
<path data-id="148-249" d="M295.20,-552.57,266.12,-641.94"/>
<path data-id="148-264" d="M295.20,-552.57,228.04,-597.18"/>
<path data-id="148-296" d="M295.20,-552.57,279.49,-490.91"/>
<path data-id="149-277" d="M1770.11,-502.18,1740.50,-430.84"/>
<path data-id="149-304" d="M1770.11,-502.18,1822.80,-465.38"/>
<path data-id="150-253" d="M1541.71,-1338.05,1622.25,-1411.28"/>
<path data-id="150-275" d="M1541.71,-1338.05,1552.71,-1460.04"/>
<path data-id="150-288" d="M1541.71,-1338.05,1469.88,-1373.15"/>
<path data-id="150-299" d="M1541.71,-1338.05,1622.51,-1303.44"/>
<path data-id="151-287" d="M148.01,-781.40,178.36,-822.34"/>
<path data-id="151-295" d="M148.01,-781.40,126.98,-681.66"/>
<path data-id="151-334" d="M148.01,-781.40,132.69,-808.45"/>
<path data-id="152-256" d="M1742.92,-1226.97,1820.15,-1215.79"/>
<path data-id="152-269" d="M1742.92,-1226.97,1709.77,-1267.13"/>
<path data-id="153-232" d="M378.62,-1453.63,326.23,-1422.59"/>
<path data-id="153-234" d="M378.62,-1453.63,419.46,-1556.68"/>
<path data-id="153-263" d="M378.62,-1453.63,509.65,-1506.11"/>
<path data-id="153-307" d="M378.62,-1453.63,383.90,-1407.67"/>
<path data-id="154-159" d="M747.94,-746.79,710.96,-818.82"/>
<path data-id="154-302" d="M747.94,-746.79,731.72,-663.16"/>
<path data-id="154-323" d="M747.94,-746.79,896.74,-782.93"/>
<path data-id="155-230" d="M1085.37,-895.04,1130.39,-928.39"/>
<path data-id="156-274" d="M1011.39,-795.53,1112.53,-794.75"/>
<path data-id="156-300" d="M1011.39,-795.53,976.13,-910.28"/>
<path data-id="156-323" d="M1011.39,-795.53,896.74,-782.93"/>
<path data-id="157-188" d="M910.43,-125.16,817.68,-171.99"/>
<path data-id="157-196" d="M910.43,-125.16,909.51,-178.30"/>
<path data-id="158-272" d="M1191.76,-542.26,1216.90,-559.60"/>
<path data-id="159-193" d="M710.96,-818.82,746.43,-910.43"/>
<path data-id="160-164" d="M662.56,-117.81,528.57,-225.19"/>
<path data-id="160-172" d="M662.56,-117.81,492.35,-93.43"/>
<path data-id="160-338" d="M662.56,-117.81,512.58,-21.08"/>
<path data-id="161-167" d="M762.48,-1403.74,773.25,-1452.64"/>
<path data-id="161-349" d="M762.48,-1403.74,721.56,-1302.72"/>
<path data-id="162-289" d="M729.78,-402.18,622.87,-408.96"/>
<path data-id="162-317" d="M729.78,-402.18,859.63,-379.54"/>
<path data-id="163-188" d="M810.08,-67.18,817.68,-171.99"/>
<path data-id="164-172" d="M528.57,-225.19,492.35,-93.43"/>
<path data-id="164-217" d="M528.57,-225.19,509.64,-299.50"/>
<path data-id="164-273" d="M528.57,-225.19,435.11,-118.76"/>
<path data-id="165-178" d="M1442.76,-1111.41,1486.18,-1175.16"/>
<path data-id="165-305" d="M1442.76,-1111.41,1479.29,-1042.02"/>
<path data-id="166-227" d="M1227.92,-159.80,1280.46,-162.08"/>
<path data-id="166-252" d="M1227.92,-159.80,1166.46,-215.01"/>
<path data-id="166-319" d="M1227.92,-159.80,1225.59,-60.66"/>
<path data-id="167-255" d="M773.25,-1452.64,867.90,-1487.29"/>
<path data-id="168-229" d="M10.57,-1743.16,2.03,-1652.44"/>
<path data-id="168-290" d="M10.57,-1743.16,90.52,-1669.90"/>
<path data-id="169-215" d="M969.17,-225.73,924.26,-296.53"/>
<path data-id="169-226" d="M969.17,-225.73,1164.94,-241.80"/>
<path data-id="169-252" d="M969.17,-225.73,1166.46,-215.01"/>
<path data-id="169-282" d="M969.17,-225.73,992.58,-313.52"/>
<path data-id="169-335" d="M969.17,-225.73,975.66,-179.98"/>
<path data-id="170-181" d="M920.93,-28.61,995.42,-49.78"/>
<path data-id="171-342" d="M1405.62,-403.67,1465.87,-341.53"/>
<path data-id="172-328" d="M492.35,-93.43,450.40,-78.27"/>
<path data-id="172-338" d="M492.35,-93.43,512.58,-21.08"/>
<path data-id="173-194" d="M1144.87,-724.27,1157.23,-801.35"/>
<path data-id="173-202" d="M1144.87,-724.27,1167.09,-685.10"/>
<path data-id="173-274" d="M1144.87,-724.27,1112.53,-794.75"/>
<path data-id="173-311" d="M1144.87,-724.27,1236.72,-744.37"/>
<path data-id="174-190" d="M1383.58,-1176.95,1258.01,-1106.27"/>
<path data-id="174-270" d="M1383.58,-1176.95,1200.46,-1278.16"/>
<path data-id="174-292" d="M1383.58,-1176.95,1349.91,-1318.95"/>
<path data-id="175-286" d="M728.07,-1716.41,576.53,-1697.31"/>
<path data-id="175-306" d="M728.07,-1716.41,885.28,-1730.11"/>
<path data-id="176-189" d="M942.46,-503.46,968.76,-381.60"/>
<path data-id="176-209" d="M942.46,-503.46,1017.02,-524.25"/>
<path data-id="176-313" d="M942.46,-503.46,910.76,-506.78"/>
<path data-id="177-258" d="M16.17,-953.14,11.81,-903.06"/>
<path data-id="178-316" d="M1486.18,-1175.16,1544.97,-1065.33"/>
<path data-id="179-236" d="M1498.80,-141.04,1624.75,-103.49"/>
<path data-id="179-261" d="M1498.80,-141.04,1382.31,-121.76"/>
<path data-id="179-276" d="M1498.80,-141.04,1482.44,-174.75"/>
<path data-id="179-343" d="M1498.80,-141.04,1600.68,-200.65"/>
<path data-id="180-182" d="M1123.25,-1145.81,1065.86,-1135.86"/>
<path data-id="180-223" d="M1123.25,-1145.81,1149.87,-1176.13"/>
<path data-id="181-293" d="M995.42,-49.78,1085.02,-47.94"/>
<path data-id="183-314" d="M287.12,-1090.69,340.40,-1147.59"/>
<path data-id="183-321" d="M287.12,-1090.69,281.24,-1053.53"/>
<path data-id="183-332" d="M287.12,-1090.69,174.27,-1163.21"/>
<path data-id="184-186" d="M604.56,-1829.69,544.00,-1845.51"/>
<path data-id="184-286" d="M604.56,-1829.69,576.53,-1697.31"/>
<path data-id="185-275" d="M1653.36,-1477.39,1552.71,-1460.04"/>
<path data-id="185-320" d="M1653.36,-1477.39,1657.38,-1449.93"/>
<path data-id="186-265" d="M544.00,-1845.51,494.82,-1770.46"/>
<path data-id="188-196" d="M817.68,-171.99,909.51,-178.30"/>
<path data-id="188-259" d="M817.68,-171.99,846.80,-247.58"/>
<path data-id="188-312" d="M817.68,-171.99,734.28,-178.54"/>
<path data-id="189-215" d="M968.76,-381.60,924.26,-296.53"/>
<path data-id="189-282" d="M968.76,-381.60,992.58,-313.52"/>
<path data-id="189-317" d="M968.76,-381.60,859.63,-379.54"/>
<path data-id="189-318" d="M968.76,-381.60,1032.79,-382.40"/>
<path data-id="191-248" d="M489.62,-823.69,549.98,-814.31"/>
<path data-id="191-345" d="M489.62,-823.69,449.48,-814.97"/>
<path data-id="192-207" d="M1210.29,-1749.32,1276.85,-1747.53"/>
<path data-id="192-260" d="M1210.29,-1749.32,1177.12,-1692.72"/>
<path data-id="192-291" d="M1210.29,-1749.32,1251.28,-1853.95"/>
<path data-id="192-298" d="M1210.29,-1749.32,1226.96,-1704.28"/>
<path data-id="194-274" d="M1157.23,-801.35,1112.53,-794.75"/>
<path data-id="194-311" d="M1157.23,-801.35,1236.72,-744.37"/>
<path data-id="195-242" d="M323.84,-736.56,447.51,-605.15"/>
<path data-id="195-249" d="M323.84,-736.56,266.12,-641.94"/>
<path data-id="196-335" d="M909.51,-178.30,975.66,-179.98"/>
<path data-id="197-285" d="M1730.82,-830.87,1696.68,-938.90"/>
<path data-id="198-210" d="M448.27,-1196.16,404.03,-1172.75"/>
<path data-id="198-283" d="M448.27,-1196.16,581.67,-1242.67"/>
<path data-id="198-308" d="M448.27,-1196.16,379.62,-1249.88"/>
<path data-id="198-310" d="M448.27,-1196.16,482.72,-1153.98"/>
<path data-id="199-205" d="M1413.95,-696.58,1465.86,-658.06"/>
<path data-id="200-236" d="M1681.52,-170.99,1624.75,-103.49"/>
<path data-id="200-343" d="M1681.52,-170.99,1600.68,-200.65"/>
<path data-id="201-284" d="M15.06,-565.61,16.19,-738.74"/>
<path data-id="201-295" d="M15.06,-565.61,126.98,-681.66"/>
<path data-id="202-237" d="M1167.09,-685.10,1217.26,-612.41"/>
<path data-id="202-311" d="M1167.09,-685.10,1236.72,-744.37"/>
<path data-id="203-228" d="M562.66,-717.50,622.67,-502.81"/>
<path data-id="203-242" d="M562.66,-717.50,447.51,-605.15"/>
<path data-id="203-248" d="M562.66,-717.50,549.98,-814.31"/>
<path data-id="203-302" d="M562.66,-717.50,731.72,-663.16"/>
<path data-id="204-275" d="M1470.61,-1516.03,1552.71,-1460.04"/>
<path data-id="204-329" d="M1470.61,-1516.03,1432.66,-1443.23"/>
<path data-id="206-300" d="M971.21,-1155.28,976.13,-910.28"/>
<path data-id="206-340" d="M971.21,-1155.28,938.42,-1156.56"/>
<path data-id="207-291" d="M1276.85,-1747.53,1251.28,-1853.95"/>
<path data-id="207-298" d="M1276.85,-1747.53,1226.96,-1704.28"/>
<path data-id="208-316" d="M1617.50,-930.72,1544.97,-1065.33"/>
<path data-id="209-318" d="M1017.02,-524.25,1032.79,-382.40"/>
<path data-id="210-314" d="M404.03,-1172.75,340.40,-1147.59"/>
<path data-id="211-219" d="M504.36,-399.72,396.31,-502.49"/>
<path data-id="211-241" d="M504.36,-399.72,518.00,-374.61"/>
<path data-id="212-343" d="M1585.67,-292.77,1600.68,-200.65"/>
<path data-id="213-306" d="M982.84,-1707.72,885.28,-1730.11"/>
<path data-id="215-282" d="M924.26,-296.53,992.58,-313.52"/>
<path data-id="216-284" d="M76.90,-741.47,16.19,-738.74"/>
<path data-id="216-295" d="M76.90,-741.47,126.98,-681.66"/>
<path data-id="217-224" d="M509.64,-299.50,589.73,-344.67"/>
<path data-id="217-241" d="M509.64,-299.50,518.00,-374.61"/>
<path data-id="218-280" d="M255.89,-1657.23,282.64,-1716.28"/>
<path data-id="218-290" d="M255.89,-1657.23,90.52,-1669.90"/>
<path data-id="219-242" d="M396.31,-502.49,447.51,-605.15"/>
<path data-id="219-296" d="M396.31,-502.49,279.49,-490.91"/>
<path data-id="221-284" d="M54.29,-830.50,16.19,-738.74"/>
<path data-id="222-278" d="M1734.66,-1850.78,1704.12,-1794.57"/>
<path data-id="223-270" d="M1149.87,-1176.13,1200.46,-1278.16"/>
<path data-id="224-241" d="M589.73,-344.67,518.00,-374.61"/>
<path data-id="224-289" d="M589.73,-344.67,622.87,-408.96"/>
<path data-id="224-312" d="M589.73,-344.67,734.28,-178.54"/>
<path data-id="225-303" d="M353.22,-1262.02,271.64,-1275.51"/>
<path data-id="225-307" d="M353.22,-1262.02,383.90,-1407.67"/>
<path data-id="225-308" d="M353.22,-1262.02,379.62,-1249.88"/>
<path data-id="226-252" d="M1164.94,-241.80,1166.46,-215.01"/>
<path data-id="226-282" d="M1164.94,-241.80,992.58,-313.52"/>
<path data-id="227-261" d="M1280.46,-162.08,1382.31,-121.76"/>
<path data-id="227-331" d="M1280.46,-162.08,1347.34,-231.67"/>
<path data-id="228-242" d="M622.67,-502.81,447.51,-605.15"/>
<path data-id="228-289" d="M622.67,-502.81,622.87,-408.96"/>
<path data-id="230-346" d="M1130.39,-928.39,1178.50,-983.58"/>
<path data-id="231-348" d="M150.30,-90.10,127.75,-9.51"/>
<path data-id="232-257" d="M326.23,-1422.59,281.52,-1360.59"/>
<path data-id="232-307" d="M326.23,-1422.59,383.90,-1407.67"/>
<path data-id="233-278" d="M1503.60,-1754.24,1704.12,-1794.57"/>
<path data-id="234-263" d="M419.46,-1556.68,509.65,-1506.11"/>
<path data-id="235-276" d="M1500.49,-256.33,1482.44,-174.75"/>
<path data-id="235-322" d="M1500.49,-256.33,1436.84,-291.76"/>
<path data-id="235-342" d="M1500.49,-256.33,1465.87,-341.53"/>
<path data-id="235-343" d="M1500.49,-256.33,1600.68,-200.65"/>
<path data-id="236-343" d="M1624.75,-103.49,1600.68,-200.65"/>
<path data-id="237-272" d="M1217.26,-612.41,1216.90,-559.60"/>
<path data-id="239-340" d="M848.26,-1056.50,938.42,-1156.56"/>
<path data-id="240-285" d="M1730.79,-1034.34,1696.68,-938.90"/>
<path data-id="242-249" d="M447.51,-605.15,266.12,-641.94"/>
<path data-id="243-322" d="M1325.08,-304.51,1436.84,-291.76"/>
<path data-id="243-331" d="M1325.08,-304.51,1347.34,-231.67"/>
<path data-id="244-346" d="M1217.64,-989.39,1178.50,-983.58"/>
<path data-id="245-250" d="M1378.33,-857.68,1290.02,-763.37"/>
<path data-id="246-323" d="M887.60,-701.30,896.74,-782.93"/>
<path data-id="249-264" d="M266.12,-641.94,228.04,-597.18"/>
<path data-id="250-311" d="M1290.02,-763.37,1236.72,-744.37"/>
<path data-id="252-293" d="M1166.46,-215.01,1085.02,-47.94"/>
<path data-id="252-335" d="M1166.46,-215.01,975.66,-179.98"/>
<path data-id="253-275" d="M1622.25,-1411.28,1552.71,-1460.04"/>
<path data-id="253-320" d="M1622.25,-1411.28,1657.38,-1449.93"/>
<path data-id="254-286" d="M711.49,-1587.84,576.53,-1697.31"/>
<path data-id="254-344" d="M711.49,-1587.84,541.24,-1536.51"/>
<path data-id="257-303" d="M281.52,-1360.59,271.64,-1275.51"/>
<path data-id="260-336" d="M1177.12,-1692.72,1136.02,-1688.18"/>
<path data-id="260-347" d="M1177.12,-1692.72,1211.70,-1679.98"/>
<path data-id="261-276" d="M1382.31,-121.76,1482.44,-174.75"/>
<path data-id="261-327" d="M1382.31,-121.76,1382.69,-214.38"/>
<path data-id="262-269" d="M1716.89,-1403.93,1709.77,-1267.13"/>
<path data-id="262-320" d="M1716.89,-1403.93,1657.38,-1449.93"/>
<path data-id="263-344" d="M509.65,-1506.11,541.24,-1536.51"/>
<path data-id="264-295" d="M228.04,-597.18,126.98,-681.66"/>
<path data-id="265-286" d="M494.82,-1770.46,576.53,-1697.31"/>
<path data-id="267-279" d="M946.51,-1376.71,936.13,-1460.93"/>
<path data-id="269-299" d="M1709.77,-1267.13,1622.51,-1303.44"/>
<path data-id="270-292" d="M1200.46,-1278.16,1349.91,-1318.95"/>
<path data-id="271-328" d="M492.80,-3.29,450.40,-78.27"/>
<path data-id="271-338" d="M492.80,-3.29,512.58,-21.08"/>
<path data-id="273-328" d="M435.11,-118.76,450.40,-78.27"/>
<path data-id="275-288" d="M1552.71,-1460.04,1469.88,-1373.15"/>
<path data-id="275-329" d="M1552.71,-1460.04,1432.66,-1443.23"/>
<path data-id="276-327" d="M1482.44,-174.75,1382.69,-214.38"/>
<path data-id="276-343" d="M1482.44,-174.75,1600.68,-200.65"/>
<path data-id="277-281" d="M1740.50,-430.84,1688.21,-411.92"/>
<path data-id="277-304" d="M1740.50,-430.84,1822.80,-465.38"/>
<path data-id="278-301" d="M1704.12,-1794.57,1725.67,-1640.07"/>
<path data-id="282-318" d="M992.58,-313.52,1032.79,-382.40"/>
<path data-id="283-297" d="M581.67,-1242.67,560.68,-1346.27"/>
<path data-id="283-310" d="M581.67,-1242.67,482.72,-1153.98"/>
<path data-id="286-344" d="M576.53,-1697.31,541.24,-1536.51"/>
<path data-id="287-334" d="M178.36,-822.34,132.69,-808.45"/>
<path data-id="288-324" d="M1469.88,-1373.15,1442.06,-1372.67"/>
<path data-id="290-294" d="M90.52,-1669.90,201.23,-1865.09"/>
<path data-id="293-319" d="M1085.02,-47.94,1225.59,-60.66"/>
<path data-id="298-347" d="M1226.96,-1704.28,1211.70,-1679.98"/>
<path data-id="302-339" d="M731.72,-663.16,754.53,-634.65"/>
<path data-id="303-332" d="M271.64,-1275.51,174.27,-1163.21"/>
<path data-id="305-316" d="M1479.29,-1042.02,1544.97,-1065.33"/>
<path data-id="313-317" d="M910.76,-506.78,859.63,-379.54"/>
<path data-id="315-330" d="M1081.50,-1478.66,1095.58,-1530.33"/>
<path data-id="322-327" d="M1436.84,-291.76,1382.69,-214.38"/>
<path data-id="322-342" d="M1436.84,-291.76,1465.87,-341.53"/>
<path data-id="324-329" d="M1442.06,-1372.67,1432.66,-1443.23"/>
<path data-id="327-331" d="M1382.69,-214.38,1347.34,-231.67"/>
<path data-id="328-338" d="M450.40,-78.27,512.58,-21.08"/>
<path data-id="329-330" d="M1432.66,-1443.23,1095.58,-1530.33"/>
<path data-id="330-336" d="M1095.58,-1530.33,1136.02,-1688.18"/>
<circle data-id="0" cx="1375.75" cy="-562.85" r="10.00px"/>
<text data-id="0" x="1375.75" y="-562.85">R0</text>
<circle data-id="1" cx="284.23" cy="-757.16" r="10.00px"/>
<text data-id="1" x="284.23" y="-757.16">R1</text>
<circle data-id="2" cx="1163.03" cy="-457.85" r="10.00px"/>
<text data-id="2" x="1163.03" y="-457.85">R2</text>
<circle data-id="3" cx="222.35" cy="-716.01" r="10.00px"/>
<text data-id="3" x="222.35" y="-716.01">R3</text>
<circle data-id="4" cx="365.17" cy="-803.44" r="10.00px"/>
<text data-id="4" x="365.17" y="-803.44">R4</text>
<circle data-id="5" cx="296.51" cy="-417.25" r="10.00px"/>
<text data-id="5" x="296.51" y="-417.25">R5</text>
<circle data-id="6" cx="1625.02" cy="-425.20" r="10.00px"/>
<text data-id="6" x="1625.02" y="-425.20">R6</text>
<circle data-id="7" cx="352.17" cy="-110.50" r="10.00px"/>
<text data-id="7" x="352.17" y="-110.50">R7</text>
<circle data-id="8" cx="1656.96" cy="-1028.26" r="10.00px"/>
<text data-id="8" x="1656.96" y="-1028.26">R8</text>
<circle data-id="9" cx="103.36" cy="-289.63" r="10.00px"/>
<text data-id="9" x="103.36" y="-289.63">R9</text>
<circle data-id="10" cx="1291.22" cy="-622.73" r="10.00px"/>
<text data-id="10" x="1291.22" y="-622.73">R10</text>
<circle data-id="11" cx="393.96" cy="-1781.80" r="10.00px"/>
<text data-id="11" x="393.96" y="-1781.80">R11</text>
<circle data-id="12" cx="735.02" cy="-1616.56" r="10.00px"/>
<text data-id="12" x="735.02" y="-1616.56">R12</text>
<circle data-id="13" cx="879.11" cy="-1652.26" r="10.00px"/>
<text data-id="13" x="879.11" y="-1652.26">R13</text>
<circle data-id="14" cx="5.84" cy="-1618.89" r="10.00px"/>
<text data-id="14" x="5.84" y="-1618.89">R14</text>
<circle data-id="15" cx="655.23" cy="-1027.89" r="10.00px"/>
<text data-id="15" x="655.23" y="-1027.89">R15</text>
<circle data-id="16" cx="1765.06" cy="-1544.66" r="10.00px"/>
<text data-id="16" x="1765.06" y="-1544.66">R16</text>
<circle data-id="17" cx="265.81" cy="-805.67" r="10.00px"/>
<text data-id="17" x="265.81" y="-805.67">R17</text>
<circle data-id="18" cx="158.72" cy="-169.03" r="10.00px"/>
<text data-id="18" x="158.72" y="-169.03">R18</text>
<circle data-id="19" cx="40.21" cy="-349.21" r="10.00px"/>
<text data-id="19" x="40.21" y="-349.21">R19</text>
<circle data-id="20" cx="778.35" cy="-843.55" r="10.00px"/>
<text data-id="20" x="778.35" y="-843.55">R20</text>
<circle data-id="21" cx="343.76" cy="-1732.01" r="10.00px"/>
<text data-id="21" x="343.76" y="-1732.01">R21</text>
<circle data-id="22" cx="610.11" cy="-827.34" r="10.00px"/>
<text data-id="22" x="610.11" y="-827.34">R22</text>
<circle data-id="23" cx="316.60" cy="-1459.80" r="10.00px"/>
<text data-id="23" x="316.60" y="-1459.80">R23</text>
<circle data-id="24" cx="833.41" cy="-1224.75" r="10.00px"/>
<text data-id="24" x="833.41" y="-1224.75">R24</text>
<circle data-id="25" cx="714.70" cy="-1751.56" r="10.00px"/>
<text data-id="25" x="714.70" y="-1751.56">R25</text>
<circle data-id="26" cx="1655.76" cy="-1199.88" r="10.00px"/>
<text data-id="26" x="1655.76" y="-1199.88">R26</text>
<circle data-id="27" cx="1257.39" cy="-912.53" r="10.00px"/>
<text data-id="27" x="1257.39" y="-912.53">R27</text>
<circle data-id="28" cx="883.76" cy="-1409.91" r="10.00px"/>
<text data-id="28" x="883.76" y="-1409.91">R28</text>
<circle data-id="29" cx="1838.52" cy="-1492.67" r="10.00px"/>
<text data-id="29" x="1838.52" y="-1492.67">R29</text>
<circle data-id="30" cx="161.70" cy="-1041.40" r="10.00px"/>
<text data-id="30" x="161.70" y="-1041.40">R30</text>
<circle data-id="31" cx="877.66" cy="-309.03" r="10.00px"/>
<text data-id="31" x="877.66" y="-309.03">R31</text>
<circle data-id="32" cx="330.41" cy="-1681.56" r="10.00px"/>
<text data-id="32" x="330.41" y="-1681.56">R32</text>
<circle data-id="33" cx="949.41" cy="-542.71" r="10.00px"/>
<text data-id="33" x="949.41" y="-542.71">R33</text>
<circle data-id="34" cx="1365.26" cy="-903.78" r="10.00px"/>
<text data-id="34" x="1365.26" y="-903.78">R34</text>
<circle data-id="35" cx="86.50" cy="-792.81" r="10.00px"/>
<text data-id="35" x="86.50" y="-792.81">R35</text>
<circle data-id="36" cx="452.82" cy="-1289.93" r="10.00px"/>
<text data-id="36" x="452.82" y="-1289.93">R36</text>
<circle data-id="37" cx="1693.46" cy="-337.15" r="10.00px"/>
<text data-id="37" x="1693.46" y="-337.15">R37</text>
<circle data-id="38" cx="1120.58" cy="-1080.22" r="10.00px"/>
<text data-id="38" x="1120.58" y="-1080.22">R38</text>
<circle data-id="39" cx="89.88" cy="-1607.11" r="10.00px"/>
<text data-id="39" x="89.88" y="-1607.11">R39</text>
<circle data-id="40" cx="892.35" cy="-1378.89" r="10.00px"/>
<text data-id="40" x="892.35" y="-1378.89">R40</text>
<circle data-id="41" cx="123.44" cy="-1284.27" r="10.00px"/>
<text data-id="41" x="123.44" y="-1284.27">R41</text>
<circle data-id="42" cx="248.11" cy="-1609.89" r="10.00px"/>
<text data-id="42" x="248.11" y="-1609.89">R42</text>
<circle data-id="43" cx="1143.21" cy="-494.46" r="10.00px"/>
<text data-id="43" x="1143.21" y="-494.46">R43</text>
<circle data-id="44" cx="1489.97" cy="-1563.48" r="10.00px"/>
<text data-id="44" x="1489.97" y="-1563.48">R44</text>
<circle data-id="45" cx="683.08" cy="-539.69" r="10.00px"/>
<text data-id="45" x="683.08" y="-539.69">R45</text>
<circle data-id="46" cx="1659.12" cy="-930.55" r="10.00px"/>
<text data-id="46" x="1659.12" y="-930.55">R46</text>
<circle data-id="47" cx="600.62" cy="-1357.75" r="10.00px"/>
<text data-id="47" x="600.62" y="-1357.75">R47</text>
<circle data-id="48" cx="469.01" cy="-1087.48" r="10.00px"/>
<text data-id="48" x="469.01" y="-1087.48">R48</text>
<circle data-id="49" cx="1835.53" cy="-742.77" r="10.00px"/>
<text data-id="49" x="1835.53" y="-742.77">R49</text>
<circle data-id="50" cx="1503.88" cy="-571.17" r="10.00px"/>
<text data-id="50" x="1503.88" y="-571.17">R50</text>
<circle data-id="51" cx="764.64" cy="-973.53" r="10.00px"/>
<text data-id="51" x="764.64" y="-973.53">R51</text>
<circle data-id="52" cx="565.70" cy="-427.84" r="10.00px"/>
<text data-id="52" x="565.70" y="-427.84">R52</text>
<circle data-id="53" cx="1660.77" cy="-482.08" r="10.00px"/>
<text data-id="53" x="1660.77" y="-482.08">R53</text>
<circle data-id="54" cx="550.00" cy="-1498.57" r="10.00px"/>
<text data-id="54" x="550.00" y="-1498.57">R54</text>
<circle data-id="55" cx="1217.10" cy="-0.46" r="10.00px"/>
<text data-id="55" x="1217.10" y="-0.46">R55</text>
<circle data-id="56" cx="1689.34" cy="-1220.39" r="10.00px"/>
<text data-id="56" x="1689.34" y="-1220.39">R56</text>
<circle data-id="57" cx="845.00" cy="-1183.97" r="10.00px"/>
<text data-id="57" x="845.00" y="-1183.97">R57</text>
<circle data-id="58" cx="1326.88" cy="-1758.16" r="10.00px"/>
<text data-id="58" x="1326.88" y="-1758.16">R58</text>
<circle data-id="59" cx="452.49" cy="-957.07" r="10.00px"/>
<text data-id="59" x="452.49" y="-957.07">R59</text>
<circle data-id="60" cx="117.52" cy="-1362.87" r="10.00px"/>
<text data-id="60" x="117.52" y="-1362.87">R60</text>
<circle data-id="61" cx="1118.97" cy="-1305.48" r="10.00px"/>
<text data-id="61" x="1118.97" y="-1305.48">R61</text>
<circle data-id="62" cx="1260.05" cy="-297.70" r="10.00px"/>
<text data-id="62" x="1260.05" y="-297.70">R62</text>
<circle data-id="63" cx="1662.66" cy="-1387.36" r="10.00px"/>
<text data-id="63" x="1662.66" y="-1387.36">R63</text>
<circle data-id="64" cx="10.67" cy="-849.15" r="10.00px"/>
<text data-id="64" x="10.67" y="-849.15">R64</text>
<circle data-id="65" cx="1372.47" cy="-388.76" r="10.00px"/>
<text data-id="65" x="1372.47" y="-388.76">R65</text>
<circle data-id="66" cx="1114.87" cy="-384.89" r="10.00px"/>
<text data-id="66" x="1114.87" y="-384.89">R66</text>
<circle data-id="67" cx="943.95" cy="-1246.90" r="10.00px"/>
<text data-id="67" x="943.95" y="-1246.90">R67</text>
<circle data-id="68" cx="498.81" cy="-754.62" r="10.00px"/>
<text data-id="68" x="498.81" y="-754.62">R68</text>
<circle data-id="69" cx="368.42" cy="-224.45" r="10.00px"/>
<text data-id="69" x="368.42" y="-224.45">R69</text>
<circle data-id="70" cx="1025.06" cy="-1147.74" r="10.00px"/>
<text data-id="70" x="1025.06" y="-1147.74">R70</text>
<circle data-id="71" cx="1721.88" cy="-746.33" r="10.00px"/>
<text data-id="71" x="1721.88" y="-746.33">R71</text>
<circle data-id="72" cx="1552.63" cy="-609.45" r="10.00px"/>
<text data-id="72" x="1552.63" y="-609.45">R72</text>
<circle data-id="73" cx="931.65" cy="-915.44" r="10.00px"/>
<text data-id="73" x="931.65" y="-915.44">R73</text>
<circle data-id="74" cx="965.29" cy="-1578.36" r="10.00px"/>
<text data-id="74" x="965.29" y="-1578.36">R74</text>
<circle data-id="75" cx="656.77" cy="-966.95" r="10.00px"/>
<text data-id="75" x="656.77" y="-966.95">R75</text>
<circle data-id="76" cx="856.47" cy="-575.74" r="10.00px"/>
<text data-id="76" x="856.47" y="-575.74">R76</text>
<circle data-id="77" cx="8.83" cy="-302.16" r="10.00px"/>
<text data-id="77" x="8.83" y="-302.16">R77</text>
<circle data-id="78" cx="1408.74" cy="-1150.86" r="10.00px"/>
<text data-id="78" x="1408.74" y="-1150.86">R78</text>
<circle data-id="79" cx="1124.39" cy="-864.54" r="10.00px"/>
<text data-id="79" x="1124.39" y="-864.54">R79</text>
<circle data-id="80" cx="691.02" cy="-1223.19" r="10.00px"/>
<text data-id="80" x="691.02" y="-1223.19">R80</text>
<circle data-id="81" cx="6.58" cy="-1820.76" r="10.00px"/>
<text data-id="81" x="6.58" y="-1820.76">R81</text>
<circle data-id="82" cx="508.59" cy="-920.18" r="10.00px"/>
<text data-id="82" x="508.59" y="-920.18">R82</text>
<circle data-id="83" cx="1019.24" cy="-1632.63" r="10.00px"/>
<text data-id="83" x="1019.24" y="-1632.63">R83</text>
<circle data-id="84" cx="1214.15" cy="-1015.86" r="10.00px"/>
<text data-id="84" x="1214.15" y="-1015.86">R84</text>
<circle data-id="85" cx="787.26" cy="-1075.51" r="10.00px"/>
<text data-id="85" x="787.26" y="-1075.51">R85</text>
<circle data-id="86" cx="51.20" cy="-990.38" r="10.00px"/>
<text data-id="86" x="51.20" y="-990.38">R86</text>
<circle data-id="87" cx="474.41" cy="-303.67" r="10.00px"/>
<text data-id="87" x="474.41" y="-303.67">R87</text>
<circle data-id="88" cx="922.79" cy="-1497.42" r="10.00px"/>
<text data-id="88" x="922.79" y="-1497.42">R88</text>
<circle data-id="89" cx="716.81" cy="-117.44" r="10.00px"/>
<text data-id="89" x="716.81" y="-117.44">R89</text>
<circle data-id="90" cx="825.32" cy="-265.31" r="10.00px"/>
<text data-id="90" x="825.32" y="-265.31">R90</text>
<circle data-id="91" cx="1785.06" cy="-1153.11" r="10.00px"/>
<text data-id="91" x="1785.06" y="-1153.11">R91</text>
<circle data-id="92" cx="243.25" cy="-1502.17" r="10.00px"/>
<text data-id="92" x="243.25" y="-1502.17">R92</text>
<circle data-id="93" cx="1657.86" cy="-1126.63" r="10.00px"/>
<text data-id="93" x="1657.86" y="-1126.63">R93</text>
<circle data-id="94" cx="332.98" cy="-1039.65" r="10.00px"/>
<text data-id="94" x="332.98" y="-1039.65">R94</text>
<circle data-id="95" cx="96.35" cy="-1474.48" r="10.00px"/>
<text data-id="95" x="96.35" y="-1474.48">R95</text>
<circle data-id="96" cx="399.14" cy="-1728.73" r="10.00px"/>
<text data-id="96" x="399.14" y="-1728.73">R96</text>
<circle data-id="97" cx="1832.60" cy="-186.95" r="10.00px"/>
<text data-id="97" x="1832.60" y="-186.95">R97</text>
<circle data-id="98" cx="1164.17" cy="-322.48" r="10.00px"/>
<text data-id="98" x="1164.17" y="-322.48">R98</text>
<circle data-id="99" cx="1676.64" cy="-1632.11" r="10.00px"/>
<text data-id="99" x="1676.64" y="-1632.11">R99</text>
<circle data-id="100" cx="105.49" cy="-506.94" r="10.00px"/>
<text data-id="100" x="105.49" y="-506.94">R100</text>
<circle data-id="101" cx="1535.16" cy="-302.52" r="10.00px"/>
<text data-id="101" x="1535.16" y="-302.52">R101</text>
<circle data-id="102" cx="369.47" cy="-1199.04" r="10.00px"/>
<text data-id="102" x="369.47" y="-1199.04">R102</text>
<circle data-id="103" cx="5.90" cy="-1363.85" r="10.00px"/>
<text data-id="103" x="5.90" y="-1363.85">R103</text>
<circle data-id="104" cx="1425.50" cy="-438.65" r="10.00px"/>
<text data-id="104" x="1425.50" y="-438.65">R104</text>
<circle data-id="105" cx="264.44" cy="-905.29" r="10.00px"/>
<text data-id="105" x="264.44" y="-905.29">R105</text>
<circle data-id="106" cx="241.77" cy="-1533.27" r="10.00px"/>
<text data-id="106" x="241.77" y="-1533.27">R106</text>
<circle data-id="107" cx="1076.75" cy="-1452.22" r="10.00px"/>
<text data-id="107" x="1076.75" y="-1452.22">R107</text>
<circle data-id="108" cx="304.87" cy="-1828.07" r="10.00px"/>
<text data-id="108" x="304.87" y="-1828.07">R108</text>
<circle data-id="109" cx="669.21" cy="-23.35" r="10.00px"/>
<text data-id="109" x="669.21" y="-23.35">R109</text>
<circle data-id="110" cx="44.25" cy="-457.73" r="10.00px"/>
<text data-id="110" x="44.25" y="-457.73">R110</text>
<circle data-id="111" cx="1687.02" cy="-1862.74" r="10.00px"/>
<text data-id="111" x="1687.02" y="-1862.74">R111</text>
<circle data-id="112" cx="685.17" cy="-798.56" r="10.00px"/>
<text data-id="112" x="685.17" y="-798.56">R112</text>
<circle data-id="113" cx="934.31" cy="-94.59" r="10.00px"/>
<text data-id="113" x="934.31" y="-94.59">R113</text>
<circle data-id="114" cx="65.93" cy="-35.43" r="10.00px"/>
<text data-id="114" x="65.93" y="-35.43">R114</text>
<circle data-id="115" cx="497.04" cy="-1116.12" r="10.00px"/>
<text data-id="115" x="497.04" y="-1116.12">R115</text>
<circle data-id="116" cx="847.55" cy="-874.09" r="10.00px"/>
<text data-id="116" x="847.55" y="-874.09">R116</text>
<circle data-id="117" cx="1369.01" cy="-747.06" r="10.00px"/>
<text data-id="117" x="1369.01" y="-747.06">R117</text>
<circle data-id="118" cx="824.87" cy="-1828.95" r="10.00px"/>
<text data-id="118" x="824.87" y="-1828.95">R118</text>
<circle data-id="119" cx="1774.66" cy="-1470.60" r="10.00px"/>
<text data-id="119" x="1774.66" y="-1470.60">R119</text>
<circle data-id="120" cx="1381.31" cy="-706.95" r="10.00px"/>
<text data-id="120" x="1381.31" y="-706.95">R120</text>
<circle data-id="121" cx="72.38" cy="-1645.96" r="10.00px"/>
<text data-id="121" x="72.38" y="-1645.96">R121</text>
<circle data-id="122" cx="1782.36" cy="-1771.41" r="10.00px"/>
<text data-id="122" x="1782.36" y="-1771.41">R122</text>
<circle data-id="123" cx="1403.00" cy="-484.60" r="10.00px"/>
<text data-id="123" x="1403.00" y="-484.60">R123</text>
<circle data-id="124" cx="1343.55" cy="-1057.56" r="10.00px"/>
<text data-id="124" x="1343.55" y="-1057.56">R124</text>
<circle data-id="125" cx="1487.41" cy="-1703.13" r="10.00px"/>
<text data-id="125" x="1487.41" y="-1703.13">R125</text>
<circle data-id="126" cx="1056.59" cy="-857.81" r="10.00px"/>
<text data-id="126" x="1056.59" y="-857.81">R126</text>
<circle data-id="127" cx="778.58" cy="-273.27" r="10.00px"/>
<text data-id="127" x="778.58" y="-273.27">R127</text>
<circle data-id="128" cx="915.39" cy="-227.59" r="10.00px"/>
<text data-id="128" x="915.39" y="-227.59">R128</text>
<circle data-id="129" cx="1399.94" cy="-1350.42" r="10.00px"/>
<text data-id="129" x="1399.94" y="-1350.42">R129</text>
<circle data-id="130" cx="367.09" cy="-992.67" r="10.00px"/>
<text data-id="130" x="367.09" y="-992.67">R130</text>
<circle data-id="131" cx="775.07" cy="-1834.61" r="10.00px"/>
<text data-id="131" x="775.07" y="-1834.61">R131</text>
<circle data-id="132" cx="1559.65" cy="-515.79" r="10.00px"/>
<text data-id="132" x="1559.65" y="-515.79">R132</text>
<circle data-id="133" cx="412.16" cy="-65.62" r="10.00px"/>
<text data-id="133" x="412.16" y="-65.62">R133</text>
<circle data-id="134" cx="1155.84" cy="-1102.09" r="10.00px"/>
<text data-id="134" x="1155.84" y="-1102.09">R134</text>
<circle data-id="135" cx="118.06" cy="-356.61" r="10.00px"/>
<text data-id="135" x="118.06" y="-356.61">R135</text>
<circle data-id="136" cx="1819.77" cy="-1820.51" r="10.00px"/>
<text data-id="136" x="1819.77" y="-1820.51">R136</text>
<circle data-id="137" cx="629.11" cy="-880.10" r="10.00px"/>
<text data-id="137" x="629.11" y="-880.10">R137</text>
<circle data-id="138" cx="1737.01" cy="-601.58" r="10.00px"/>
<text data-id="138" x="1737.01" y="-601.58">R138</text>
<circle data-id="139" cx="1536.09" cy="-1225.01" r="10.00px"/>
<text data-id="139" x="1536.09" y="-1225.01">R139</text>
<circle data-id="140" cx="808.94" cy="-667.30" r="10.00px"/>
<text data-id="140" x="808.94" y="-667.30">R140</text>
<circle data-id="141" cx="707.64" cy="-1503.64" r="10.00px"/>
<text data-id="141" x="707.64" y="-1503.64">R141</text>
<circle data-id="142" cx="763.55" cy="-1162.64" r="10.00px"/>
<text data-id="142" x="763.55" y="-1162.64">R142</text>
<circle data-id="143" cx="896.99" cy="-95.44" r="10.00px"/>
<text data-id="143" x="896.99" y="-95.44">R143</text>
<circle data-id="144" cx="1466.88" cy="-806.46" r="10.00px"/>
<text data-id="144" x="1466.88" y="-806.46">R144</text>
<circle data-id="145" cx="1070.77" cy="-618.02" r="10.00px"/>
<text data-id="145" x="1070.77" y="-618.02">R145</text>
<circle data-id="146" cx="1822.70" cy="-1170.34" r="10.00px"/>
<text data-id="146" x="1822.70" y="-1170.34">R146</text>
<circle data-id="147" cx="1735.51" cy="-62.33" r="10.00px"/>
<text data-id="147" x="1735.51" y="-62.33">R147</text>
<circle data-id="148" cx="295.20" cy="-552.57" r="10.00px"/>
<text data-id="148" x="295.20" y="-552.57">R148</text>
<circle data-id="149" cx="1770.11" cy="-502.18" r="10.00px"/>
<text data-id="149" x="1770.11" y="-502.18">R149</text>
<circle data-id="150" cx="1541.71" cy="-1338.05" r="10.00px"/>
<text data-id="150" x="1541.71" y="-1338.05">R150</text>
<circle data-id="151" cx="148.01" cy="-781.40" r="10.00px"/>
<text data-id="151" x="148.01" y="-781.40">R151</text>
<circle data-id="152" cx="1742.92" cy="-1226.97" r="10.00px"/>
<text data-id="152" x="1742.92" y="-1226.97">R152</text>
<circle data-id="153" cx="378.62" cy="-1453.63" r="10.00px"/>
<text data-id="153" x="378.62" y="-1453.63">R153</text>
<circle data-id="154" cx="747.94" cy="-746.79" r="10.00px"/>
<text data-id="154" x="747.94" y="-746.79">R154</text>
<circle data-id="155" cx="1085.37" cy="-895.04" r="10.00px"/>
<text data-id="155" x="1085.37" y="-895.04">R155</text>
<circle data-id="156" cx="1011.39" cy="-795.53" r="10.00px"/>
<text data-id="156" x="1011.39" y="-795.53">R156</text>
<circle data-id="157" cx="910.43" cy="-125.16" r="10.00px"/>
<text data-id="157" x="910.43" y="-125.16">R157</text>
<circle data-id="158" cx="1191.76" cy="-542.26" r="10.00px"/>
<text data-id="158" x="1191.76" y="-542.26">R158</text>
<circle data-id="159" cx="710.96" cy="-818.82" r="10.00px"/>
<text data-id="159" x="710.96" y="-818.82">R159</text>
<circle data-id="160" cx="662.56" cy="-117.81" r="10.00px"/>
<text data-id="160" x="662.56" y="-117.81">R160</text>
<circle data-id="161" cx="762.48" cy="-1403.74" r="10.00px"/>
<text data-id="161" x="762.48" y="-1403.74">R161</text>
<circle data-id="162" cx="729.78" cy="-402.18" r="10.00px"/>
<text data-id="162" x="729.78" y="-402.18">R162</text>
<circle data-id="163" cx="810.08" cy="-67.18" r="10.00px"/>
<text data-id="163" x="810.08" y="-67.18">R163</text>
<circle data-id="164" cx="528.57" cy="-225.19" r="10.00px"/>
<text data-id="164" x="528.57" y="-225.19">R164</text>
<circle data-id="165" cx="1442.76" cy="-1111.41" r="10.00px"/>
<text data-id="165" x="1442.76" y="-1111.41">R165</text>
<circle data-id="166" cx="1227.92" cy="-159.80" r="10.00px"/>
<text data-id="166" x="1227.92" y="-159.80">R166</text>
<circle data-id="167" cx="773.25" cy="-1452.64" r="10.00px"/>
<text data-id="167" x="773.25" y="-1452.64">R167</text>
<circle data-id="168" cx="10.57" cy="-1743.16" r="10.00px"/>
<text data-id="168" x="10.57" y="-1743.16">R168</text>
<circle data-id="169" cx="969.17" cy="-225.73" r="10.00px"/>
<text data-id="169" x="969.17" y="-225.73">R169</text>
<circle data-id="170" cx="920.93" cy="-28.61" r="10.00px"/>
<text data-id="170" x="920.93" y="-28.61">R170</text>
<circle data-id="171" cx="1405.62" cy="-403.67" r="10.00px"/>
<text data-id="171" x="1405.62" y="-403.67">R171</text>
<circle data-id="172" cx="492.35" cy="-93.43" r="10.00px"/>
<text data-id="172" x="492.35" y="-93.43">R172</text>
<circle data-id="173" cx="1144.87" cy="-724.27" r="10.00px"/>
<text data-id="173" x="1144.87" y="-724.27">R173</text>
<circle data-id="174" cx="1383.58" cy="-1176.95" r="10.00px"/>
<text data-id="174" x="1383.58" y="-1176.95">R174</text>
<circle data-id="175" cx="728.07" cy="-1716.41" r="10.00px"/>
<text data-id="175" x="728.07" y="-1716.41">R175</text>
<circle data-id="176" cx="942.46" cy="-503.46" r="10.00px"/>
<text data-id="176" x="942.46" y="-503.46">R176</text>
<circle data-id="177" cx="16.17" cy="-953.14" r="10.00px"/>
<text data-id="177" x="16.17" y="-953.14">R177</text>
<circle data-id="178" cx="1486.18" cy="-1175.16" r="10.00px"/>
<text data-id="178" x="1486.18" y="-1175.16">R178</text>
<circle data-id="179" cx="1498.80" cy="-141.04" r="10.00px"/>
<text data-id="179" x="1498.80" y="-141.04">R179</text>
<circle data-id="180" cx="1123.25" cy="-1145.81" r="10.00px"/>
<text data-id="180" x="1123.25" y="-1145.81">R180</text>
<circle data-id="181" cx="995.42" cy="-49.78" r="10.00px"/>
<text data-id="181" x="995.42" y="-49.78">R181</text>
<circle data-id="182" cx="1065.86" cy="-1135.86" r="10.00px"/>
<text data-id="182" x="1065.86" y="-1135.86">R182</text>
<circle data-id="183" cx="287.12" cy="-1090.69" r="10.00px"/>
<text data-id="183" x="287.12" y="-1090.69">R183</text>
<circle data-id="184" cx="604.56" cy="-1829.69" r="10.00px"/>
<text data-id="184" x="604.56" y="-1829.69">R184</text>
<circle data-id="185" cx="1653.36" cy="-1477.39" r="10.00px"/>
<text data-id="185" x="1653.36" y="-1477.39">R185</text>
<circle data-id="186" cx="544.00" cy="-1845.51" r="10.00px"/>
<text data-id="186" x="544.00" y="-1845.51">R186</text>
<circle data-id="187" cx="750.04" cy="-1044.68" r="10.00px"/>
<text data-id="187" x="750.04" y="-1044.68">R187</text>
<circle data-id="188" cx="817.68" cy="-171.99" r="10.00px"/>
<text data-id="188" x="817.68" y="-171.99">R188</text>
<circle data-id="189" cx="968.76" cy="-381.60" r="10.00px"/>
<text data-id="189" x="968.76" y="-381.60">R189</text>
<circle data-id="190" cx="1258.01" cy="-1106.27" r="10.00px"/>
<text data-id="190" x="1258.01" y="-1106.27">R190</text>
<circle data-id="191" cx="489.62" cy="-823.69" r="10.00px"/>
<text data-id="191" x="489.62" y="-823.69">R191</text>
<circle data-id="192" cx="1210.29" cy="-1749.32" r="10.00px"/>
<text data-id="192" x="1210.29" y="-1749.32">R192</text>
<circle data-id="193" cx="746.43" cy="-910.43" r="10.00px"/>
<text data-id="193" x="746.43" y="-910.43">R193</text>
<circle data-id="194" cx="1157.23" cy="-801.35" r="10.00px"/>
<text data-id="194" x="1157.23" y="-801.35">R194</text>
<circle data-id="195" cx="323.84" cy="-736.56" r="10.00px"/>
<text data-id="195" x="323.84" y="-736.56">R195</text>
<circle data-id="196" cx="909.51" cy="-178.30" r="10.00px"/>
<text data-id="196" x="909.51" y="-178.30">R196</text>
<circle data-id="197" cx="1730.82" cy="-830.87" r="10.00px"/>
<text data-id="197" x="1730.82" y="-830.87">R197</text>
<circle data-id="198" cx="448.27" cy="-1196.16" r="10.00px"/>
<text data-id="198" x="448.27" y="-1196.16">R198</text>
<circle data-id="199" cx="1413.95" cy="-696.58" r="10.00px"/>
<text data-id="199" x="1413.95" y="-696.58">R199</text>
<circle data-id="200" cx="1681.52" cy="-170.99" r="10.00px"/>
<text data-id="200" x="1681.52" y="-170.99">R200</text>
<circle data-id="201" cx="15.06" cy="-565.61" r="10.00px"/>
<text data-id="201" x="15.06" y="-565.61">R201</text>
<circle data-id="202" cx="1167.09" cy="-685.10" r="10.00px"/>
<text data-id="202" x="1167.09" y="-685.10">R202</text>
<circle data-id="203" cx="562.66" cy="-717.50" r="10.00px"/>
<text data-id="203" x="562.66" y="-717.50">R203</text>
<circle data-id="204" cx="1470.61" cy="-1516.03" r="10.00px"/>
<text data-id="204" x="1470.61" y="-1516.03">R204</text>
<circle data-id="205" cx="1465.86" cy="-658.06" r="10.00px"/>
<text data-id="205" x="1465.86" y="-658.06">R205</text>
<circle data-id="206" cx="971.21" cy="-1155.28" r="10.00px"/>
<text data-id="206" x="971.21" y="-1155.28">R206</text>
<circle data-id="207" cx="1276.85" cy="-1747.53" r="10.00px"/>
<text data-id="207" x="1276.85" y="-1747.53">R207</text>
<circle data-id="208" cx="1617.50" cy="-930.72" r="10.00px"/>
<text data-id="208" x="1617.50" y="-930.72">R208</text>
<circle data-id="209" cx="1017.02" cy="-524.25" r="10.00px"/>
<text data-id="209" x="1017.02" y="-524.25">R209</text>
<circle data-id="210" cx="404.03" cy="-1172.75" r="10.00px"/>
<text data-id="210" x="404.03" y="-1172.75">R210</text>
<circle data-id="211" cx="504.36" cy="-399.72" r="10.00px"/>
<text data-id="211" x="504.36" y="-399.72">R211</text>
<circle data-id="212" cx="1585.67" cy="-292.77" r="10.00px"/>
<text data-id="212" x="1585.67" y="-292.77">R212</text>
<circle data-id="213" cx="982.84" cy="-1707.72" r="10.00px"/>
<text data-id="213" x="982.84" y="-1707.72">R213</text>
<circle data-id="214" cx="1548.68" cy="-563.39" r="10.00px"/>
<text data-id="214" x="1548.68" y="-563.39">R214</text>
<circle data-id="215" cx="924.26" cy="-296.53" r="10.00px"/>
<text data-id="215" x="924.26" y="-296.53">R215</text>
<circle data-id="216" cx="76.90" cy="-741.47" r="10.00px"/>
<text data-id="216" x="76.90" y="-741.47">R216</text>
<circle data-id="217" cx="509.64" cy="-299.50" r="10.00px"/>
<text data-id="217" x="509.64" y="-299.50">R217</text>
<circle data-id="218" cx="255.89" cy="-1657.23" r="10.00px"/>
<text data-id="218" x="255.89" y="-1657.23">R218</text>
<circle data-id="219" cx="396.31" cy="-502.49" r="10.00px"/>
<text data-id="219" x="396.31" y="-502.49">R219</text>
<circle data-id="220" cx="35.75" cy="-67.43" r="10.00px"/>
<text data-id="220" x="35.75" y="-67.43">R220</text>
<circle data-id="221" cx="54.29" cy="-830.50" r="10.00px"/>
<text data-id="221" x="54.29" y="-830.50">R221</text>
<circle data-id="222" cx="1734.66" cy="-1850.78" r="10.00px"/>
<text data-id="222" x="1734.66" y="-1850.78">R222</text>
<circle data-id="223" cx="1149.87" cy="-1176.13" r="10.00px"/>
<text data-id="223" x="1149.87" y="-1176.13">R223</text>
<circle data-id="224" cx="589.73" cy="-344.67" r="10.00px"/>
<text data-id="224" x="589.73" y="-344.67">R224</text>
<circle data-id="225" cx="353.22" cy="-1262.02" r="10.00px"/>
<text data-id="225" x="353.22" y="-1262.02">R225</text>
<circle data-id="226" cx="1164.94" cy="-241.80" r="10.00px"/>
<text data-id="226" x="1164.94" y="-241.80">R226</text>
<circle data-id="227" cx="1280.46" cy="-162.08" r="10.00px"/>
<text data-id="227" x="1280.46" y="-162.08">R227</text>
<circle data-id="228" cx="622.67" cy="-502.81" r="10.00px"/>
<text data-id="228" x="622.67" y="-502.81">R228</text>
<circle data-id="229" cx="2.03" cy="-1652.44" r="10.00px"/>
<text data-id="229" x="2.03" y="-1652.44">R229</text>
<circle data-id="230" cx="1130.39" cy="-928.39" r="10.00px"/>
<text data-id="230" x="1130.39" y="-928.39">R230</text>
<circle data-id="231" cx="150.30" cy="-90.10" r="10.00px"/>
<text data-id="231" x="150.30" y="-90.10">R231</text>
<circle data-id="232" cx="326.23" cy="-1422.59" r="10.00px"/>
<text data-id="232" x="326.23" y="-1422.59">R232</text>
<circle data-id="233" cx="1503.60" cy="-1754.24" r="10.00px"/>
<text data-id="233" x="1503.60" y="-1754.24">R233</text>
<circle data-id="234" cx="419.46" cy="-1556.68" r="10.00px"/>
<text data-id="234" x="419.46" y="-1556.68">R234</text>
<circle data-id="235" cx="1500.49" cy="-256.33" r="10.00px"/>
<text data-id="235" x="1500.49" y="-256.33">R235</text>
<circle data-id="236" cx="1624.75" cy="-103.49" r="10.00px"/>
<text data-id="236" x="1624.75" y="-103.49">R236</text>
<circle data-id="237" cx="1217.26" cy="-612.41" r="10.00px"/>
<text data-id="237" x="1217.26" y="-612.41">R237</text>
<circle data-id="238" cx="613.69" cy="-1459.26" r="10.00px"/>
<text data-id="238" x="613.69" y="-1459.26">R238</text>
<circle data-id="239" cx="848.26" cy="-1056.50" r="10.00px"/>
<text data-id="239" x="848.26" y="-1056.50">R239</text>
<circle data-id="240" cx="1730.79" cy="-1034.34" r="10.00px"/>
<text data-id="240" x="1730.79" y="-1034.34">R240</text>
<circle data-id="241" cx="518.00" cy="-374.61" r="10.00px"/>
<text data-id="241" x="518.00" y="-374.61">R241</text>
<circle data-id="242" cx="447.51" cy="-605.15" r="10.00px"/>
<text data-id="242" x="447.51" y="-605.15">R242</text>
<circle data-id="243" cx="1325.08" cy="-304.51" r="10.00px"/>
<text data-id="243" x="1325.08" y="-304.51">R243</text>
<circle data-id="244" cx="1217.64" cy="-989.39" r="10.00px"/>
<text data-id="244" x="1217.64" y="-989.39">R244</text>
<circle data-id="245" cx="1378.33" cy="-857.68" r="10.00px"/>
<text data-id="245" x="1378.33" y="-857.68">R245</text>
<circle data-id="246" cx="887.60" cy="-701.30" r="10.00px"/>
<text data-id="246" x="887.60" y="-701.30">R246</text>
<circle data-id="247" cx="1616.42" cy="-464.23" r="10.00px"/>
<text data-id="247" x="1616.42" y="-464.23">R247</text>
<circle data-id="248" cx="549.98" cy="-814.31" r="10.00px"/>
<text data-id="248" x="549.98" y="-814.31">R248</text>
<circle data-id="249" cx="266.12" cy="-641.94" r="10.00px"/>
<text data-id="249" x="266.12" y="-641.94">R249</text>
<circle data-id="250" cx="1290.02" cy="-763.37" r="10.00px"/>
<text data-id="250" x="1290.02" y="-763.37">R250</text>
<circle data-id="251" cx="153.02" cy="-203.88" r="10.00px"/>
<text data-id="251" x="153.02" y="-203.88">R251</text>
<circle data-id="252" cx="1166.46" cy="-215.01" r="10.00px"/>
<text data-id="252" x="1166.46" y="-215.01">R252</text>
<circle data-id="253" cx="1622.25" cy="-1411.28" r="10.00px"/>
<text data-id="253" x="1622.25" y="-1411.28">R253</text>
<circle data-id="254" cx="711.49" cy="-1587.84" r="10.00px"/>
<text data-id="254" x="711.49" y="-1587.84">R254</text>
<circle data-id="255" cx="867.90" cy="-1487.29" r="10.00px"/>
<text data-id="255" x="867.90" y="-1487.29">R255</text>
<circle data-id="256" cx="1820.15" cy="-1215.79" r="10.00px"/>
<text data-id="256" x="1820.15" y="-1215.79">R256</text>
<circle data-id="257" cx="281.52" cy="-1360.59" r="10.00px"/>
<text data-id="257" x="281.52" y="-1360.59">R257</text>
<circle data-id="258" cx="11.81" cy="-903.06" r="10.00px"/>
<text data-id="258" x="11.81" y="-903.06">R258</text>
<circle data-id="259" cx="846.80" cy="-247.58" r="10.00px"/>
<text data-id="259" x="846.80" y="-247.58">R259</text>
<circle data-id="260" cx="1177.12" cy="-1692.72" r="10.00px"/>
<text data-id="260" x="1177.12" y="-1692.72">R260</text>
<circle data-id="261" cx="1382.31" cy="-121.76" r="10.00px"/>
<text data-id="261" x="1382.31" y="-121.76">R261</text>
<circle data-id="262" cx="1716.89" cy="-1403.93" r="10.00px"/>
<text data-id="262" x="1716.89" y="-1403.93">R262</text>
<circle data-id="263" cx="509.65" cy="-1506.11" r="10.00px"/>
<text data-id="263" x="509.65" y="-1506.11">R263</text>
<circle data-id="264" cx="228.04" cy="-597.18" r="10.00px"/>
<text data-id="264" x="228.04" y="-597.18">R264</text>
<circle data-id="265" cx="494.82" cy="-1770.46" r="10.00px"/>
<text data-id="265" x="494.82" y="-1770.46">R265</text>
<circle data-id="266" cx="78.03" cy="-1049.71" r="10.00px"/>
<text data-id="266" x="78.03" y="-1049.71">R266</text>
<circle data-id="267" cx="946.51" cy="-1376.71" r="10.00px"/>
<text data-id="267" x="946.51" y="-1376.71">R267</text>
<circle data-id="268" cx="1526.09" cy="-1586.18" r="10.00px"/>
<text data-id="268" x="1526.09" y="-1586.18">R268</text>
<circle data-id="269" cx="1709.77" cy="-1267.13" r="10.00px"/>
<text data-id="269" x="1709.77" y="-1267.13">R269</text>
<circle data-id="270" cx="1200.46" cy="-1278.16" r="10.00px"/>
<text data-id="270" x="1200.46" y="-1278.16">R270</text>
<circle data-id="271" cx="492.80" cy="-3.29" r="10.00px"/>
<text data-id="271" x="492.80" y="-3.29">R271</text>
<circle data-id="272" cx="1216.90" cy="-559.60" r="10.00px"/>
<text data-id="272" x="1216.90" y="-559.60">R272</text>
<circle data-id="273" cx="435.11" cy="-118.76" r="10.00px"/>
<text data-id="273" x="435.11" y="-118.76">R273</text>
<circle data-id="274" cx="1112.53" cy="-794.75" r="10.00px"/>
<text data-id="274" x="1112.53" y="-794.75">R274</text>
<circle data-id="275" cx="1552.71" cy="-1460.04" r="10.00px"/>
<text data-id="275" x="1552.71" y="-1460.04">R275</text>
<circle data-id="276" cx="1482.44" cy="-174.75" r="10.00px"/>
<text data-id="276" x="1482.44" y="-174.75">R276</text>
<circle data-id="277" cx="1740.50" cy="-430.84" r="10.00px"/>
<text data-id="277" x="1740.50" y="-430.84">R277</text>
<circle data-id="278" cx="1704.12" cy="-1794.57" r="10.00px"/>
<text data-id="278" x="1704.12" y="-1794.57">R278</text>
<circle data-id="279" cx="936.13" cy="-1460.93" r="10.00px"/>
<text data-id="279" x="936.13" y="-1460.93">R279</text>
<circle data-id="280" cx="282.64" cy="-1716.28" r="10.00px"/>
<text data-id="280" x="282.64" y="-1716.28">R280</text>
<circle data-id="281" cx="1688.21" cy="-411.92" r="10.00px"/>
<text data-id="281" x="1688.21" y="-411.92">R281</text>
<circle data-id="282" cx="992.58" cy="-313.52" r="10.00px"/>
<text data-id="282" x="992.58" y="-313.52">R282</text>
<circle data-id="283" cx="581.67" cy="-1242.67" r="10.00px"/>
<text data-id="283" x="581.67" y="-1242.67">R283</text>
<circle data-id="284" cx="16.19" cy="-738.74" r="10.00px"/>
<text data-id="284" x="16.19" y="-738.74">R284</text>
<circle data-id="285" cx="1696.68" cy="-938.90" r="10.00px"/>
<text data-id="285" x="1696.68" y="-938.90">R285</text>
<circle data-id="286" cx="576.53" cy="-1697.31" r="10.00px"/>
<text data-id="286" x="576.53" y="-1697.31">R286</text>
<circle data-id="287" cx="178.36" cy="-822.34" r="10.00px"/>
<text data-id="287" x="178.36" y="-822.34">R287</text>
<circle data-id="288" cx="1469.88" cy="-1373.15" r="10.00px"/>
<text data-id="288" x="1469.88" y="-1373.15">R288</text>
<circle data-id="289" cx="622.87" cy="-408.96" r="10.00px"/>
<text data-id="289" x="622.87" y="-408.96">R289</text>
<circle data-id="290" cx="90.52" cy="-1669.90" r="10.00px"/>
<text data-id="290" x="90.52" y="-1669.90">R290</text>
<circle data-id="291" cx="1251.28" cy="-1853.95" r="10.00px"/>
<text data-id="291" x="1251.28" y="-1853.95">R291</text>
<circle data-id="292" cx="1349.91" cy="-1318.95" r="10.00px"/>
<text data-id="292" x="1349.91" y="-1318.95">R292</text>
<circle data-id="293" cx="1085.02" cy="-47.94" r="10.00px"/>
<text data-id="293" x="1085.02" y="-47.94">R293</text>
<circle data-id="294" cx="201.23" cy="-1865.09" r="10.00px"/>
<text data-id="294" x="201.23" y="-1865.09">R294</text>
<circle data-id="295" cx="126.98" cy="-681.66" r="10.00px"/>
<text data-id="295" x="126.98" y="-681.66">R295</text>
<circle data-id="296" cx="279.49" cy="-490.91" r="10.00px"/>
<text data-id="296" x="279.49" y="-490.91">R296</text>
<circle data-id="297" cx="560.68" cy="-1346.27" r="10.00px"/>
<text data-id="297" x="560.68" y="-1346.27">R297</text>
<circle data-id="298" cx="1226.96" cy="-1704.28" r="10.00px"/>
<text data-id="298" x="1226.96" y="-1704.28">R298</text>
<circle data-id="299" cx="1622.51" cy="-1303.44" r="10.00px"/>
<text data-id="299" x="1622.51" y="-1303.44">R299</text>
<circle data-id="300" cx="976.13" cy="-910.28" r="10.00px"/>
<text data-id="300" x="976.13" y="-910.28">R300</text>
<circle data-id="301" cx="1725.67" cy="-1640.07" r="10.00px"/>
<text data-id="301" x="1725.67" y="-1640.07">R301</text>
<circle data-id="302" cx="731.72" cy="-663.16" r="10.00px"/>
<text data-id="302" x="731.72" y="-663.16">R302</text>
<circle data-id="303" cx="271.64" cy="-1275.51" r="10.00px"/>
<text data-id="303" x="271.64" y="-1275.51">R303</text>
<circle data-id="304" cx="1822.80" cy="-465.38" r="10.00px"/>
<text data-id="304" x="1822.80" y="-465.38">R304</text>
<circle data-id="305" cx="1479.29" cy="-1042.02" r="10.00px"/>
<text data-id="305" x="1479.29" y="-1042.02">R305</text>
<circle data-id="306" cx="885.28" cy="-1730.11" r="10.00px"/>
<text data-id="306" x="885.28" y="-1730.11">R306</text>
<circle data-id="307" cx="383.90" cy="-1407.67" r="10.00px"/>
<text data-id="307" x="383.90" y="-1407.67">R307</text>
<circle data-id="308" cx="379.62" cy="-1249.88" r="10.00px"/>
<text data-id="308" x="379.62" y="-1249.88">R308</text>
<circle data-id="309" cx="1653.44" cy="-1161.56" r="10.00px"/>
<text data-id="309" x="1653.44" y="-1161.56">R309</text>
<circle data-id="310" cx="482.72" cy="-1153.98" r="10.00px"/>
<text data-id="310" x="482.72" y="-1153.98">R310</text>
<circle data-id="311" cx="1236.72" cy="-744.37" r="10.00px"/>
<text data-id="311" x="1236.72" y="-744.37">R311</text>
<circle data-id="312" cx="734.28" cy="-178.54" r="10.00px"/>
<text data-id="312" x="734.28" y="-178.54">R312</text>
<circle data-id="313" cx="910.76" cy="-506.78" r="10.00px"/>
<text data-id="313" x="910.76" y="-506.78">R313</text>
<circle data-id="314" cx="340.40" cy="-1147.59" r="10.00px"/>
<text data-id="314" x="340.40" y="-1147.59">R314</text>
<circle data-id="315" cx="1081.50" cy="-1478.66" r="10.00px"/>
<text data-id="315" x="1081.50" y="-1478.66">R315</text>
<circle data-id="316" cx="1544.97" cy="-1065.33" r="10.00px"/>
<text data-id="316" x="1544.97" y="-1065.33">R316</text>
<circle data-id="317" cx="859.63" cy="-379.54" r="10.00px"/>
<text data-id="317" x="859.63" y="-379.54">R317</text>
<circle data-id="318" cx="1032.79" cy="-382.40" r="10.00px"/>
<text data-id="318" x="1032.79" y="-382.40">R318</text>
<circle data-id="319" cx="1225.59" cy="-60.66" r="10.00px"/>
<text data-id="319" x="1225.59" y="-60.66">R319</text>
<circle data-id="320" cx="1657.38" cy="-1449.93" r="10.00px"/>
<text data-id="320" x="1657.38" y="-1449.93">R320</text>
<circle data-id="321" cx="281.24" cy="-1053.53" r="10.00px"/>
<text data-id="321" x="281.24" y="-1053.53">R321</text>
<circle data-id="322" cx="1436.84" cy="-291.76" r="10.00px"/>
<text data-id="322" x="1436.84" y="-291.76">R322</text>
<circle data-id="323" cx="896.74" cy="-782.93" r="10.00px"/>
<text data-id="323" x="896.74" y="-782.93">R323</text>
<circle data-id="324" cx="1442.06" cy="-1372.67" r="10.00px"/>
<text data-id="324" x="1442.06" y="-1372.67">R324</text>
<circle data-id="325" cx="89.03" cy="-1426.37" r="10.00px"/>
<text data-id="325" x="89.03" y="-1426.37">R325</text>
<circle data-id="326" cx="1847.57" cy="-1853.86" r="10.00px"/>
<text data-id="326" x="1847.57" y="-1853.86">R326</text>
<circle data-id="327" cx="1382.69" cy="-214.38" r="10.00px"/>
<text data-id="327" x="1382.69" y="-214.38">R327</text>
<circle data-id="328" cx="450.40" cy="-78.27" r="10.00px"/>
<text data-id="328" x="450.40" y="-78.27">R328</text>
<circle data-id="329" cx="1432.66" cy="-1443.23" r="10.00px"/>
<text data-id="329" x="1432.66" y="-1443.23">R329</text>
<circle data-id="330" cx="1095.58" cy="-1530.33" r="10.00px"/>
<text data-id="330" x="1095.58" y="-1530.33">R330</text>
<circle data-id="331" cx="1347.34" cy="-231.67" r="10.00px"/>
<text data-id="331" x="1347.34" y="-231.67">R331</text>
<circle data-id="332" cx="174.27" cy="-1163.21" r="10.00px"/>
<text data-id="332" x="174.27" y="-1163.21">R332</text>
<circle data-id="333" cx="1369.77" cy="-1644.42" r="10.00px"/>
<text data-id="333" x="1369.77" y="-1644.42">R333</text>
<circle data-id="334" cx="132.69" cy="-808.45" r="10.00px"/>
<text data-id="334" x="132.69" y="-808.45">R334</text>
<circle data-id="335" cx="975.66" cy="-179.98" r="10.00px"/>
<text data-id="335" x="975.66" y="-179.98">R335</text>
<circle data-id="336" cx="1136.02" cy="-1688.18" r="10.00px"/>
<text data-id="336" x="1136.02" y="-1688.18">R336</text>
<circle data-id="337" cx="1850.01" cy="-89.80" r="10.00px"/>
<text data-id="337" x="1850.01" y="-89.80">R337</text>
<circle data-id="338" cx="512.58" cy="-21.08" r="10.00px"/>
<text data-id="338" x="512.58" y="-21.08">R338</text>
<circle data-id="339" cx="754.53" cy="-634.65" r="10.00px"/>
<text data-id="339" x="754.53" y="-634.65">R339</text>
<circle data-id="340" cx="938.42" cy="-1156.56" r="10.00px"/>
<text data-id="340" x="938.42" y="-1156.56">R340</text>
<circle data-id="341" cx="42.97" cy="-1589.23" r="10.00px"/>
<text data-id="341" x="42.97" y="-1589.23">R341</text>
<circle data-id="342" cx="1465.87" cy="-341.53" r="10.00px"/>
<text data-id="342" x="1465.87" y="-341.53">R342</text>
<circle data-id="343" cx="1600.68" cy="-200.65" r="10.00px"/>
<text data-id="343" x="1600.68" y="-200.65">R343</text>
<circle data-id="344" cx="541.24" cy="-1536.51" r="10.00px"/>
<text data-id="344" x="541.24" y="-1536.51">R344</text>
<circle data-id="345" cx="449.48" cy="-814.97" r="10.00px"/>
<text data-id="345" x="449.48" y="-814.97">R345</text>
<circle data-id="346" cx="1178.50" cy="-983.58" r="10.00px"/>
<text data-id="346" x="1178.50" y="-983.58">R346</text>
<circle data-id="347" cx="1211.70" cy="-1679.98" r="10.00px"/>
<text data-id="347" x="1211.70" y="-1679.98">R347</text>
<circle data-id="348" cx="127.75" cy="-9.51" r="10.00px"/>
<text data-id="348" x="127.75" y="-9.51">R348</text>
<circle data-id="349" cx="721.56" cy="-1302.72" r="10.00px"/>
<text data-id="349" x="721.56" y="-1302.72">R349</text>
</svg>
