<svg width="1952.63" height="1959.33" viewBox="-36.89 -44.24 1952.63 1959.33" xmlns="http://www.w3.org/2000/svg">
<style>path {fill: none; stroke: grey; stroke-width: 6;} circle {fill: lightblue; stroke: none;} text {fill: black; stroke: none; font-size: 16; font-family: sans-serif; text-anchor:middle;}</style>
<path d="M1217.08,1584.82,1289.40,1750.05"/>
<path d="M1217.08,1584.82,1264.24,1569.72"/>
<path d="M1217.08,1584.82,1197.03,1527.51"/>
<path d="M1217.08,1584.82,1155.11,1606.65"/>
<path d="M1127.85,892.04,1008.38,896.79"/>
<path d="M1127.85,892.04,1170.04,925.63"/>
<path d="M1127.85,892.04,1174.92,893.17"/>
<path d="M1127.85,892.04,1127.67,814.43"/>
<path d="M1127.85,892.04,1044.46,821.06"/>
<path d="M1127.85,892.04,1047.28,962.16"/>
<path d="M1519.96,1217.40,1560.82,1246.47"/>
<path d="M1519.96,1217.40,1573.19,1222.26"/>
<path d="M1519.96,1217.40,1519.86,1291.40"/>
<path d="M1519.96,1217.40,1454.31,1148.54"/>
<path d="M1519.96,1217.40,1556.87,1145.88"/>
<path d="M1519.96,1217.40,1489.39,1284.31"/>
<path d="M1768.72,285.62,1793.83,312.49"/>
<path d="M1768.72,285.62,1724.09,233.43"/>
<path d="M1390.93,1078.65,1561.26,977.44"/>
<path d="M1390.93,1078.65,1454.31,1148.54"/>
<path d="M1390.93,1078.65,1278.12,1196.33"/>
<path d="M1390.93,1078.65,1254.76,1014.44"/>
<path d="M1390.93,1078.65,1388.96,954.57"/>
<path d="M1246.79,1324.71,1148.12,1501.33"/>
<path d="M1246.79,1324.71,1145.91,1229.37"/>
<path d="M1246.79,1324.71,1324.69,1372.73"/>
<path d="M1246.79,1324.71,1278.12,1196.33"/>
<path d="M1246.79,1324.71,1197.03,1527.51"/>
<path d="M1246.79,1324.71,1084.62,1387.53"/>
<path d="M1474.07,1609.67,1572.36,1564.51"/>
<path d="M1474.07,1609.67,1559.03,1640.95"/>
<path d="M1474.07,1609.67,1502.86,1712.99"/>
<path d="M1474.07,1609.67,1505.59,1437.01"/>
<path d="M1474.07,1609.67,1400.46,1501.07"/>
<path d="M1474.07,1609.67,1433.61,1668.84"/>
<path d="M1710.82,1870.09,1675.16,1821.78"/>
<path d="M1710.82,1870.09,1755.28,1766.28"/>
<path d="M123.28,1327.29,97.76,1295.55"/>
<path d="M123.28,1327.29,346.74,1325.86"/>
<path d="M160.16,235.54,107.83,144.96"/>
<path d="M160.16,235.54,245.88,230.39"/>
<path d="M160.16,235.54,124.39,380.50"/>
<path d="M160.16,235.54,227.11,280.91"/>
<path d="M160.16,235.54,231.21,195.28"/>
<path d="M160.16,235.54,54.06,315.18"/>
<path d="M160.16,235.54,165.28,126.33"/>
<path d="M1130.03,55.98,1015.87,104.35"/>
<path d="M1130.03,55.98,1119.42,0.76"/>
<path d="M1130.03,55.98,1224.03,168.24"/>
<path d="M1585.80,167.01,1329.61,46.99"/>
<path d="M1585.80,167.01,1337.64,277.86"/>
<path d="M1585.80,167.01,1464.06,360.08"/>
<path d="M1585.80,167.01,1652.80,268.76"/>
<path d="M1585.80,167.01,1630.42,141.28"/>
<path d="M135.65,550.48,65.03,523.09"/>
<path d="M135.65,550.48,26.66,635.84"/>
<path d="M135.65,550.48,130.44,458.02"/>
<path d="M135.65,550.48,181.76,605.02"/>
<path d="M135.65,550.48,229.34,486.04"/>
<path d="M1793.83,312.49,1797.68,389.90"/>
<path d="M8.30,1592.03,25.86,1344.39"/>
<path d="M8.30,1592.03,39.56,1701.53"/>
<path d="M8.30,1592.03,76.97,1625.63"/>
<path d="M468.56,1216.07,380.35,1200.78"/>
<path d="M468.56,1216.07,370.44,1310.95"/>
<path d="M468.56,1216.07,512.80,1191.57"/>
<path d="M1148.12,1501.33,1197.03,1527.51"/>
<path d="M1148.12,1501.33,1104.11,1470.21"/>
<path d="M451.87,1005.32,527.60,992.37"/>
<path d="M451.87,1005.32,497.83,1137.55"/>
<path d="M451.87,1005.32,433.96,824.99"/>
<path d="M451.87,1005.32,392.21,1026.95"/>
<path d="M107.83,144.96,165.28,126.33"/>
<path d="M107.83,144.96,134.04,103.81"/>
<path d="M107.83,144.96,23.79,177.36"/>
<path d="M1645.55,1096.80,1690.81,1211.65"/>
<path d="M1645.55,1096.80,1698.66,1055.40"/>
<path d="M1645.55,1096.80,1556.87,1145.88"/>
<path d="M1645.55,1096.80,1606.02,994.65"/>
<path d="M256.60,1660.51,262.74,1750.13"/>
<path d="M256.60,1660.51,319.64,1671.79"/>
<path d="M256.60,1660.51,223.63,1660.04"/>
<path d="M1661.04,466.35,1824.74,489.55"/>
<path d="M1661.04,466.35,1538.31,508.72"/>
<path d="M1661.04,466.35,1797.68,389.90"/>
<path d="M1661.04,466.35,1652.80,268.76"/>
<path d="M1661.04,466.35,1632.50,704.07"/>
<path d="M1661.04,466.35,1762.05,665.40"/>
<path d="M336.83,865.28,248.62,817.21"/>
<path d="M336.83,865.28,286.16,770.82"/>
<path d="M336.83,865.28,334.88,904.31"/>
<path d="M336.83,865.28,433.96,824.99"/>
<path d="M1008.38,896.79,955.10,835.26"/>
<path d="M1008.38,896.79,978.02,975.28"/>
<path d="M1008.38,896.79,933.97,937.25"/>
<path d="M1008.38,896.79,1044.46,821.06"/>
<path d="M1008.38,896.79,1047.28,962.16"/>
<path d="M988.41,535.78,1025.85,586.84"/>
<path d="M988.41,535.78,976.23,484.44"/>
<path d="M522.78,607.67,500.16,459.40"/>
<path d="M522.78,607.67,404.09,618.08"/>
<path d="M522.78,607.67,568.04,621.11"/>
<path d="M522.78,607.67,397.03,476.38"/>
<path d="M522.78,607.67,546.14,638.75"/>
<path d="M248.62,817.21,243.29,777.70"/>
<path d="M248.62,817.21,247.26,909.38"/>
<path d="M248.62,817.21,87.58,871.25"/>
<path d="M280.73,1010.21,295.89,934.35"/>
<path d="M280.73,1010.21,290.72,1071.42"/>
<path d="M280.73,1010.21,392.21,1026.95"/>
<path d="M280.73,1010.21,320.01,942.86"/>
<path d="M280.73,1010.21,255.63,933.07"/>
<path d="M857.23,900.70,868.40,1040.40"/>
<path d="M857.23,900.70,955.10,835.26"/>
<path d="M857.23,900.70,760.70,1035.72"/>
<path d="M857.23,900.70,933.97,937.25"/>
<path d="M857.23,900.70,811.32,756.89"/>
<path d="M857.23,900.70,724.74,934.63"/>
<path d="M835.60,515.71,916.57,689.26"/>
<path d="M835.60,515.71,719.21,585.67"/>
<path d="M835.60,515.71,824.28,482.89"/>
<path d="M835.60,515.71,807.98,710.54"/>
<path d="M835.60,515.71,853.72,487.15"/>
<path d="M412.86,1696.87,448.30,1680.00"/>
<path d="M412.86,1696.87,335.03,1766.82"/>
<path d="M412.86,1696.87,340.96,1658.66"/>
<path d="M380.35,1200.78,290.72,1071.42"/>
<path d="M380.35,1200.78,370.44,1310.95"/>
<path d="M380.35,1200.78,392.21,1026.95"/>
<path d="M684.13,303.26,635.67,288.05"/>
<path d="M684.13,303.26,671.72,330.06"/>
<path d="M684.13,303.26,761.66,293.78"/>
<path d="M738.96,1291.26,679.62,1195.87"/>
<path d="M738.96,1291.26,597.28,1250.16"/>
<path d="M738.96,1291.26,797.21,1261.34"/>
<path d="M738.96,1291.26,744.35,1333.09"/>
<path d="M10.49,1143.38,15.80,1063.07"/>
<path d="M10.49,1143.38,127.28,1239.32"/>
<path d="M10.49,1143.38,158.92,1108.11"/>
<path d="M584.85,1633.90,553.08,1604.38"/>
<path d="M584.85,1633.90,643.70,1699.53"/>
<path d="M584.85,1633.90,604.23,1603.53"/>
<path d="M1015.87,104.35,1037.92,8.58"/>
<path d="M1015.87,104.35,949.94,108.39"/>
<path d="M1015.87,104.35,1030.40,188.56"/>
<path d="M679.62,1195.87,589.29,1137.23"/>
<path d="M679.62,1195.87,769.81,1158.87"/>
<path d="M679.62,1195.87,597.28,1250.16"/>
<path d="M679.62,1195.87,701.07,1078.78"/>
<path d="M1169.51,980.02,1055.81,1035.55"/>
<path d="M1169.51,980.02,1170.04,925.63"/>
<path d="M1169.51,980.02,1240.08,969.30"/>
<path d="M1169.51,980.02,1047.28,962.16"/>
<path d="M262.74,1750.13,263.53,1828.98"/>
<path d="M262.74,1750.13,318.53,1810.43"/>
<path d="M262.74,1750.13,168.92,1744.59"/>
<path d="M262.74,1750.13,335.03,1766.82"/>
<path d="M262.74,1750.13,319.64,1671.79"/>
<path d="M589.29,1137.23,597.28,1250.16"/>
<path d="M589.29,1137.23,497.83,1137.55"/>
<path d="M589.29,1137.23,575.29,1062.93"/>
<path d="M589.29,1137.23,701.07,1078.78"/>
<path d="M589.29,1137.23,512.80,1191.57"/>
<path d="M908.98,1058.54,868.40,1040.40"/>
<path d="M908.98,1058.54,978.75,1034.47"/>
<path d="M908.98,1058.54,900.64,1108.67"/>
<path d="M1055.81,1035.55,984.32,1125.23"/>
<path d="M1055.81,1035.55,1014.73,1021.12"/>
<path d="M1055.81,1035.55,1093.70,1168.70"/>
<path d="M1055.81,1035.55,1047.28,962.16"/>
<path d="M1467.01,1423.21,1383.02,1410.26"/>
<path d="M1467.01,1423.21,1505.59,1437.01"/>
<path d="M1467.01,1423.21,1400.46,1501.07"/>
<path d="M1467.01,1423.21,1489.39,1284.31"/>
<path d="M1090.94,545.57,1151.47,595.01"/>
<path d="M1090.94,545.57,1080.21,401.46"/>
<path d="M1090.94,545.57,1057.07,569.87"/>
<path d="M1090.94,545.57,1210.75,417.80"/>
<path d="M245.88,230.39,227.11,280.91"/>
<path d="M245.88,230.39,231.21,195.28"/>
<path d="M245.88,230.39,301.98,266.14"/>
<path d="M1560.82,1246.47,1573.19,1222.26"/>
<path d="M1560.82,1246.47,1519.86,1291.40"/>
<path d="M1572.36,1564.51,1624.21,1443.60"/>
<path d="M1572.36,1564.51,1599.29,1591.34"/>
<path d="M1572.36,1564.51,1505.59,1437.01"/>
<path d="M916.57,689.26,942.75,758.24"/>
<path d="M916.57,689.26,807.98,710.54"/>
<path d="M916.57,689.26,1003.84,651.52"/>
<path d="M822.12,1150.53,769.81,1158.87"/>
<path d="M822.12,1150.53,870.93,1250.27"/>
<path d="M822.12,1150.53,900.64,1108.67"/>
<path d="M822.12,1150.53,760.70,1035.72"/>
<path d="M822.12,1150.53,797.21,1261.34"/>
<path d="M527.60,992.37,562.42,963.52"/>
<path d="M527.60,992.37,584.70,1001.21"/>
<path d="M527.60,992.37,433.96,824.99"/>
<path d="M803.11,1690.83,898.36,1689.79"/>
<path d="M803.11,1690.83,839.80,1524.59"/>
<path d="M803.11,1690.83,751.41,1718.25"/>
<path d="M803.11,1690.83,739.26,1580.63"/>
<path d="M574.42,1579.67,649.20,1498.37"/>
<path d="M574.42,1579.67,553.08,1604.38"/>
<path d="M574.42,1579.67,583.63,1447.85"/>
<path d="M574.42,1579.67,604.23,1603.53"/>
<path d="M482.22,415.21,500.16,459.40"/>
<path d="M482.22,415.21,432.18,369.77"/>
<path d="M482.22,415.21,468.08,450.64"/>
<path d="M263.53,1828.98,318.53,1810.43"/>
<path d="M1289.40,1750.05,1371.06,1696.94"/>
<path d="M1289.40,1750.05,1368.75,1812.31"/>
<path d="M1289.40,1750.05,1225.70,1846.74"/>
<path d="M1289.40,1750.05,1264.24,1569.72"/>
<path d="M1289.40,1750.05,1157.34,1770.35"/>
<path d="M1037.92,8.58,1119.42,0.76"/>
<path d="M705.84,1727.28,716.25,1688.83"/>
<path d="M705.84,1727.28,643.70,1699.53"/>
<path d="M705.84,1727.28,626.51,1868.86"/>
<path d="M705.84,1727.28,751.41,1718.25"/>
<path d="M661.70,846.03,724.49,682.87"/>
<path d="M661.70,846.03,705.74,884.19"/>
<path d="M661.70,846.03,653.00,938.99"/>
<path d="M661.70,846.03,568.89,697.44"/>
<path d="M661.70,846.03,433.96,824.99"/>
<path d="M661.70,846.03,762.70,710.67"/>
<path d="M661.70,846.03,811.32,756.89"/>
<path d="M1382.24,1344.24,1383.02,1410.26"/>
<path d="M1382.24,1344.24,1324.69,1372.73"/>
<path d="M1382.24,1344.24,1278.12,1196.33"/>
<path d="M1382.24,1344.24,1489.39,1284.31"/>
<path d="M1503.84,928.67,1531.23,843.49"/>
<path d="M1503.84,928.67,1561.26,977.44"/>
<path d="M1503.84,928.67,1457.28,869.15"/>
<path d="M1503.84,928.67,1388.96,954.57"/>
<path d="M868.40,1040.40,760.70,1035.72"/>
<path d="M868.40,1040.40,933.97,937.25"/>
<path d="M1145.91,1229.37,1113.02,1215.82"/>
<path d="M1145.91,1229.37,1278.12,1196.33"/>
<path d="M1145.91,1229.37,1084.62,1387.53"/>
<path d="M113.84,694.84,26.66,635.84"/>
<path d="M113.84,694.84,184.58,684.14"/>
<path d="M113.84,694.84,17.09,853.10"/>
<path d="M113.84,694.84,87.58,871.25"/>
<path d="M1383.02,1410.26,1400.46,1501.07"/>
<path d="M1383.02,1410.26,1324.69,1372.73"/>
<path d="M1383.02,1410.26,1341.56,1437.65"/>
<path d="M1110.72,390.55,1080.21,401.46"/>
<path d="M1110.72,390.55,1157.01,382.14"/>
<path d="M1110.72,390.55,1080.31,336.80"/>
<path d="M1584.25,11.38,1329.61,46.99"/>
<path d="M1584.25,11.38,1638.56,58.86"/>
<path d="M1531.23,843.49,1445.44,714.37"/>
<path d="M1531.23,843.49,1672.08,883.84"/>
<path d="M1531.23,843.49,1457.28,869.15"/>
<path d="M1531.23,843.49,1632.50,704.07"/>
<path d="M1561.26,977.44,1598.91,961.58"/>
<path d="M1561.26,977.44,1606.02,994.65"/>
<path d="M898.36,1689.79,839.80,1524.59"/>
<path d="M898.36,1689.79,926.95,1731.25"/>
<path d="M898.36,1689.79,985.33,1579.55"/>
<path d="M318.53,1810.43,340.57,1791.61"/>
<path d="M1402.77,396.98,1439.32,395.81"/>
<path d="M1402.77,396.98,1337.64,277.86"/>
<path d="M1402.77,396.98,1379.43,426.95"/>
<path d="M124.39,380.50,227.11,280.91"/>
<path d="M124.39,380.50,255.91,384.30"/>
<path d="M124.39,380.50,54.06,315.18"/>
<path d="M124.39,380.50,130.44,458.02"/>
<path d="M124.39,380.50,68.19,398.15"/>
<path d="M1824.74,489.55,1837.23,419.88"/>
<path d="M1824.74,489.55,1762.05,665.40"/>
<path d="M1113.02,1215.82,959.30,1239.45"/>
<path d="M1113.02,1215.82,1093.70,1168.70"/>
<path d="M1371.06,1696.94,1368.75,1812.31"/>
<path d="M1371.06,1696.94,1392.36,1647.30"/>
<path d="M1371.06,1696.94,1433.61,1668.84"/>
<path d="M724.49,682.87,719.21,585.67"/>
<path d="M724.49,682.87,568.89,697.44"/>
<path d="M724.49,682.87,762.70,710.67"/>
<path d="M724.49,682.87,568.04,621.11"/>
<path d="M30.53,1020.27,15.80,1063.07"/>
<path d="M30.53,1020.27,74.74,976.72"/>
<path d="M30.53,1020.27,158.92,1108.11"/>
<path d="M295.89,934.35,320.01,942.86"/>
<path d="M295.89,934.35,255.63,933.07"/>
<path d="M922.83,172.59,949.94,108.39"/>
<path d="M922.83,172.59,851.53,229.89"/>
<path d="M922.83,172.59,880.55,254.92"/>
<path d="M922.83,172.59,1030.40,188.56"/>
<path d="M966.71,1351.30,963.09,1436.62"/>
<path d="M966.71,1351.30,952.16,1268.98"/>
<path d="M966.71,1351.30,877.81,1334.43"/>
<path d="M966.71,1351.30,905.58,1387.88"/>
<path d="M966.71,1351.30,1084.62,1387.53"/>
<path d="M122.51,26.80,86.89,68.06"/>
<path d="M122.51,26.80,134.04,103.81"/>
<path d="M1761.66,1429.25,1624.21,1443.60"/>
<path d="M1761.66,1429.25,1870.74,1371.36"/>
<path d="M1761.66,1429.25,1723.46,1276.18"/>
<path d="M1761.66,1429.25,1761.01,1562.47"/>
<path d="M562.42,963.52,653.00,938.99"/>
<path d="M562.42,963.52,584.70,1001.21"/>
<path d="M562.42,963.52,433.96,824.99"/>
<path d="M1329.61,46.99,1262.22,137.91"/>
<path d="M1624.21,1443.60,1586.60,1402.79"/>
<path d="M1624.21,1443.60,1761.01,1562.47"/>
<path d="M769.81,1158.87,701.07,1078.78"/>
<path d="M769.81,1158.87,760.70,1035.72"/>
<path d="M769.81,1158.87,797.21,1261.34"/>
<path d="M65.03,523.09,26.66,635.84"/>
<path d="M65.03,523.09,130.44,458.02"/>
<path d="M65.03,523.09,33.15,447.24"/>
<path d="M1445.44,714.37,1457.28,869.15"/>
<path d="M1445.44,714.37,1632.50,704.07"/>
<path d="M1445.44,714.37,1415.15,637.23"/>
<path d="M227.11,280.91,255.91,384.30"/>
<path d="M227.11,280.91,301.98,266.14"/>
<path d="M227.11,280.91,311.49,368.75"/>
<path d="M870.93,1250.27,952.16,1268.98"/>
<path d="M870.93,1250.27,797.21,1261.34"/>
<path d="M870.93,1250.27,877.81,1334.43"/>
<path d="M86.89,68.06,134.04,103.81"/>
<path d="M373.59,450.15,432.18,369.77"/>
<path d="M373.59,450.15,397.03,476.38"/>
<path d="M373.59,450.15,276.96,439.37"/>
<path d="M373.59,450.15,311.49,368.75"/>
<path d="M8.11,1833.31,59.85,1774.94"/>
<path d="M705.74,884.19,653.00,938.99"/>
<path d="M705.74,884.19,811.32,756.89"/>
<path d="M705.74,884.19,724.74,934.63"/>
<path d="M978.75,1034.47,978.02,975.28"/>
<path d="M978.75,1034.47,984.32,1125.23"/>
<path d="M978.75,1034.47,1014.73,1021.12"/>
<path d="M1848.37,1744.54,1867.39,1570.77"/>
<path d="M1848.37,1744.54,1739.35,1680.94"/>
<path d="M1848.37,1744.54,1755.28,1766.28"/>
<path d="M15.80,1063.07,158.92,1108.11"/>
<path d="M458.61,1852.31,374.84,1824.49"/>
<path d="M458.61,1852.31,520.14,1813.79"/>
<path d="M1439.32,395.81,1464.06,360.08"/>
<path d="M1439.32,395.81,1503.40,492.07"/>
<path d="M255.91,384.30,218.61,457.34"/>
<path d="M255.91,384.30,276.96,439.37"/>
<path d="M255.91,384.30,311.49,368.75"/>
<path d="M286.16,770.82,243.29,777.70"/>
<path d="M286.16,770.82,318.99,727.36"/>
<path d="M608.12,1414.00,671.37,1476.43"/>
<path d="M608.12,1414.00,736.72,1401.22"/>
<path d="M608.12,1414.00,583.63,1447.85"/>
<path d="M608.12,1414.00,572.69,1379.93"/>
<path d="M959.30,1239.45,952.16,1268.98"/>
<path d="M959.30,1239.45,900.64,1108.67"/>
<path d="M959.30,1239.45,984.32,1125.23"/>
<path d="M959.30,1239.45,1093.70,1168.70"/>
<path d="M334.88,904.31,320.01,942.86"/>
<path d="M963.09,1436.62,828.89,1479.70"/>
<path d="M963.09,1436.62,985.33,1579.55"/>
<path d="M963.09,1436.62,1104.11,1470.21"/>
<path d="M963.09,1436.62,905.58,1387.88"/>
<path d="M963.09,1436.62,1084.62,1387.53"/>
<path d="M955.10,835.26,942.75,758.24"/>
<path d="M955.10,835.26,933.97,937.25"/>
<path d="M955.10,835.26,1044.46,821.06"/>
<path d="M1781.96,778.48,1865.75,838.26"/>
<path d="M1781.96,778.48,1805.62,706.15"/>
<path d="M1781.96,778.48,1771.01,702.94"/>
<path d="M1781.96,778.48,1744.56,719.00"/>
<path d="M1781.96,778.48,1743.45,835.44"/>
<path d="M1662.49,1762.19,1648.29,1740.69"/>
<path d="M1662.49,1762.19,1728.59,1722.09"/>
<path d="M1662.49,1762.19,1675.16,1821.78"/>
<path d="M1662.49,1762.19,1755.28,1766.28"/>
<path d="M1189.74,688.70,1074.82,681.29"/>
<path d="M1189.74,688.70,1093.24,740.91"/>
<path d="M1189.74,688.70,1160.93,619.20"/>
<path d="M1189.74,688.70,1415.15,637.23"/>
<path d="M25.86,1344.39,97.76,1295.55"/>
<path d="M671.37,1476.43,702.96,1496.02"/>
<path d="M671.37,1476.43,649.20,1498.37"/>
<path d="M671.37,1476.43,736.72,1401.22"/>
<path d="M1074.82,681.29,1093.24,740.91"/>
<path d="M1074.82,681.29,1160.93,619.20"/>
<path d="M1074.82,681.29,1003.84,651.52"/>
<path d="M719.21,585.67,568.04,621.11"/>
<path d="M719.21,585.67,642.92,428.04"/>
<path d="M243.29,777.70,184.58,684.14"/>
<path d="M824.28,482.89,853.72,487.15"/>
<path d="M824.28,482.89,785.59,374.78"/>
<path d="M824.28,482.89,642.92,428.04"/>
<path d="M702.96,1496.02,736.72,1401.22"/>
<path d="M702.96,1496.02,828.89,1479.70"/>
<path d="M702.96,1496.02,739.26,1580.63"/>
<path d="M1141.55,301.84,1337.64,277.86"/>
<path d="M1141.55,301.84,1157.01,382.14"/>
<path d="M1141.55,301.84,1080.31,336.80"/>
<path d="M1141.55,301.84,1030.40,188.56"/>
<path d="M1141.55,301.84,1224.03,168.24"/>
<path d="M1151.47,595.01,1311.32,479.04"/>
<path d="M1151.47,595.01,1210.75,417.80"/>
<path d="M1151.47,595.01,1160.93,619.20"/>
<path d="M1870.74,1371.36,1867.39,1570.77"/>
<path d="M1870.74,1371.36,1832.06,1261.68"/>
<path d="M920.89,446.75,853.72,487.15"/>
<path d="M920.89,446.75,976.23,484.44"/>
<path d="M920.89,446.75,915.32,409.99"/>
<path d="M635.67,288.05,627.69,245.82"/>
<path d="M635.67,288.05,671.72,330.06"/>
<path d="M111.77,1752.52,168.92,1744.59"/>
<path d="M111.77,1752.52,94.01,1731.38"/>
<path d="M111.77,1752.52,104.33,1796.18"/>
<path d="M111.77,1752.52,59.85,1774.94"/>
<path d="M942.75,758.24,811.32,756.89"/>
<path d="M942.75,758.24,1039.29,786.50"/>
<path d="M597.28,1250.16,562.45,1273.43"/>
<path d="M597.28,1250.16,540.03,1239.00"/>
<path d="M1337.64,277.86,1464.06,360.08"/>
<path d="M1337.64,277.86,1210.75,417.80"/>
<path d="M1337.64,277.86,1262.22,137.91"/>
<path d="M1337.64,277.86,1224.03,168.24"/>
<path d="M839.80,1524.59,828.89,1479.70"/>
<path d="M839.80,1524.59,985.33,1579.55"/>
<path d="M839.80,1524.59,739.26,1580.63"/>
<path d="M649.20,1498.37,583.63,1447.85"/>
<path d="M649.20,1498.37,604.23,1603.53"/>
<path d="M497.83,1137.55,575.29,1062.93"/>
<path d="M497.83,1137.55,392.21,1026.95"/>
<path d="M497.83,1137.55,512.80,1191.57"/>
<path d="M290.72,1071.42,190.44,1137.61"/>
<path d="M290.72,1071.42,392.21,1026.95"/>
<path d="M1726.72,688.20,1771.01,702.94"/>
<path d="M1726.72,688.20,1632.50,704.07"/>
<path d="M1726.72,688.20,1744.56,719.00"/>
<path d="M1726.72,688.20,1762.05,665.40"/>
<path d="M1170.04,925.63,1174.92,893.17"/>
<path d="M1170.04,925.63,1240.08,969.30"/>
<path d="M1799.50,1021.78,1780.05,1004.23"/>
<path d="M1799.50,1021.78,1866.61,937.63"/>
<path d="M1799.50,1021.78,1832.06,1261.68"/>
<path d="M1780.05,1004.23,1698.66,1055.40"/>
<path d="M1780.05,1004.23,1866.61,937.63"/>
<path d="M1780.05,1004.23,1750.29,893.00"/>
<path d="M500.16,459.40,642.92,428.04"/>
<path d="M500.16,459.40,468.08,450.64"/>
<path d="M1559.03,1640.95,1616.26,1617.78"/>
<path d="M1559.03,1640.95,1502.86,1712.99"/>
<path d="M1559.03,1640.95,1599.29,1591.34"/>
<path d="M1559.03,1640.95,1648.29,1740.69"/>
<path d="M1093.24,740.91,1127.67,814.43"/>
<path d="M1093.24,740.91,1039.29,786.50"/>
<path d="M653.00,938.99,647.47,980.70"/>
<path d="M653.00,938.99,724.74,934.63"/>
<path d="M184.58,684.14,236.69,636.56"/>
<path d="M184.58,684.14,181.76,605.02"/>
<path d="M184.58,684.14,318.99,727.36"/>
<path d="M404.09,618.08,397.03,476.38"/>
<path d="M404.09,618.08,318.99,727.36"/>
<path d="M404.09,618.08,318.27,569.34"/>
<path d="M1865.75,838.26,1866.61,937.63"/>
<path d="M1865.75,838.26,1743.45,835.44"/>
<path d="M1865.75,838.26,1750.29,893.00"/>
<path d="M1616.26,1617.78,1599.29,1591.34"/>
<path d="M1616.26,1617.78,1648.29,1740.69"/>
<path d="M1616.26,1617.78,1739.35,1680.94"/>
<path d="M1616.26,1617.78,1761.01,1562.47"/>
<path d="M97.76,1295.55,127.28,1239.32"/>
<path d="M647.47,980.70,584.70,1001.21"/>
<path d="M647.47,980.70,701.07,1078.78"/>
<path d="M647.47,980.70,760.70,1035.72"/>
<path d="M545.71,118.39,531.74,207.44"/>
<path d="M545.71,118.39,377.71,180.07"/>
<path d="M545.71,118.39,608.25,166.26"/>
<path d="M545.71,118.39,418.08,67.89"/>
<path d="M17.09,853.10,87.58,871.25"/>
<path d="M575.29,1062.93,584.70,1001.21"/>
<path d="M575.29,1062.93,701.07,1078.78"/>
<path d="M416.12,338.50,432.18,369.77"/>
<path d="M416.12,338.50,430.26,272.98"/>
<path d="M416.12,338.50,385.50,304.67"/>
<path d="M553.08,1604.38,472.13,1646.33"/>
<path d="M231.21,195.28,165.28,126.33"/>
<path d="M231.21,195.28,327.50,73.84"/>
<path d="M1573.19,1222.26,1690.81,1211.65"/>
<path d="M1573.19,1222.26,1556.87,1145.88"/>
<path d="M1296.12,934.48,1240.08,969.30"/>
<path d="M1296.12,934.48,1388.96,954.57"/>
<path d="M1379.43,426.95,1311.32,479.04"/>
<path d="M1379.43,426.95,1352.10,529.93"/>
<path d="M716.25,1688.83,643.70,1699.53"/>
<path d="M716.25,1688.83,751.41,1718.25"/>
<path d="M716.25,1688.83,739.26,1580.63"/>
<path d="M736.72,1401.22,828.89,1479.70"/>
<path d="M736.72,1401.22,744.35,1333.09"/>
<path d="M168.92,1744.59,223.63,1660.04"/>
<path d="M952.16,1268.98,877.81,1334.43"/>
<path d="M1368.75,1812.31,1502.86,1712.99"/>
<path d="M1368.75,1812.31,1225.70,1846.74"/>
<path d="M1598.91,961.58,1672.08,883.84"/>
<path d="M1598.91,961.58,1606.02,994.65"/>
<path d="M1672.08,883.84,1695.51,808.69"/>
<path d="M1672.08,883.84,1743.45,835.44"/>
<path d="M1672.08,883.84,1750.29,893.00"/>
<path d="M448.30,1680.00,472.13,1646.33"/>
<path d="M448.30,1680.00,520.14,1813.79"/>
<path d="M1805.62,706.15,1771.01,702.94"/>
<path d="M1311.32,479.04,1210.75,417.80"/>
<path d="M1311.32,479.04,1352.10,529.93"/>
<path d="M243.92,564.22,236.69,636.56"/>
<path d="M243.92,564.22,181.76,605.02"/>
<path d="M243.92,564.22,229.34,486.04"/>
<path d="M243.92,564.22,318.27,569.34"/>
<path d="M978.02,975.28,1014.73,1021.12"/>
<path d="M978.02,975.28,933.97,937.25"/>
<path d="M978.02,975.28,1047.28,962.16"/>
<path d="M1014.47,1590.45,968.65,1739.71"/>
<path d="M1014.47,1590.45,985.33,1579.55"/>
<path d="M1014.47,1590.45,1155.11,1606.65"/>
<path d="M1014.47,1590.45,1104.11,1470.21"/>
<path d="M568.89,697.44,433.96,824.99"/>
<path d="M568.89,697.44,546.14,638.75"/>
<path d="M1837.23,419.88,1797.68,389.90"/>
<path d="M54.06,315.18,68.19,398.15"/>
<path d="M54.06,315.18,23.79,177.36"/>
<path d="M1363.16,1551.26,1376.08,1513.89"/>
<path d="M1363.16,1551.26,1264.24,1569.72"/>
<path d="M1363.16,1551.26,1372.58,1617.01"/>
<path d="M695.95,7.22,861.76,53.58"/>
<path d="M695.95,7.22,672.90,132.26"/>
<path d="M247.26,909.38,87.58,871.25"/>
<path d="M247.26,909.38,255.63,933.07"/>
<path d="M247.26,909.38,74.74,976.72"/>
<path d="M1538.31,508.72,1503.40,492.07"/>
<path d="M1538.31,508.72,1519.38,577.24"/>
<path d="M861.76,53.58,949.94,108.39"/>
<path d="M861.76,53.58,672.90,132.26"/>
<path d="M627.69,245.82,531.74,207.44"/>
<path d="M627.69,245.82,608.25,166.26"/>
<path d="M627.69,245.82,531.85,258.86"/>
<path d="M346.74,1325.86,370.44,1310.95"/>
<path d="M346.74,1325.86,372.16,1565.22"/>
<path d="M346.74,1325.86,127.28,1239.32"/>
<path d="M531.74,207.44,377.71,180.07"/>
<path d="M531.74,207.44,608.25,166.26"/>
<path d="M531.74,207.44,531.85,258.86"/>
<path d="M1080.21,401.46,1056.10,376.89"/>
<path d="M1080.21,401.46,976.23,484.44"/>
<path d="M190.44,1137.61,127.28,1239.32"/>
<path d="M190.44,1137.61,158.92,1108.11"/>
<path d="M377.71,180.07,301.98,266.14"/>
<path d="M377.71,180.07,430.26,272.98"/>
<path d="M377.71,180.07,327.50,73.84"/>
<path d="M377.71,180.07,418.08,67.89"/>
<path d="M236.69,636.56,181.76,605.02"/>
<path d="M236.69,636.56,318.99,727.36"/>
<path d="M1502.86,1712.99,1648.29,1740.69"/>
<path d="M1502.86,1712.99,1433.61,1668.84"/>
<path d="M301.98,266.14,385.50,304.67"/>
<path d="M301.98,266.14,311.49,368.75"/>
<path d="M1025.85,586.84,1057.07,569.87"/>
<path d="M1025.85,586.84,1003.84,651.52"/>
<path d="M130.44,458.02,218.61,457.34"/>
<path d="M130.44,458.02,68.19,398.15"/>
<path d="M130.44,458.02,33.15,447.24"/>
<path d="M1586.60,1402.79,1544.68,1382.23"/>
<path d="M1586.60,1402.79,1608.74,1381.07"/>
<path d="M583.63,1447.85,372.16,1565.22"/>
<path d="M828.89,1479.70,905.58,1387.88"/>
<path d="M562.45,1273.43,562.05,1350.89"/>
<path d="M562.45,1273.43,540.03,1239.00"/>
<path d="M433.96,824.99,318.99,727.36"/>
<path d="M762.70,710.67,807.98,710.54"/>
<path d="M1056.10,376.89,976.23,484.44"/>
<path d="M1056.10,376.89,1080.31,336.80"/>
<path d="M1056.10,376.89,915.32,409.99"/>
<path d="M1056.10,376.89,880.55,254.92"/>
<path d="M165.28,126.33,327.50,73.84"/>
<path d="M165.28,126.33,134.04,103.81"/>
<path d="M1392.36,1647.30,1433.61,1668.84"/>
<path d="M1392.36,1647.30,1372.58,1617.01"/>
<path d="M39.56,1701.53,94.01,1731.38"/>
<path d="M39.56,1701.53,76.97,1625.63"/>
<path d="M39.56,1701.53,59.85,1774.94"/>
<path d="M1464.06,360.08,1652.80,268.76"/>
<path d="M643.70,1699.53,626.51,1868.86"/>
<path d="M643.70,1699.53,520.14,1813.79"/>
<path d="M1225.70,1846.74,1168.78,1853.02"/>
<path d="M430.26,272.98,385.50,304.67"/>
<path d="M430.26,272.98,531.85,258.86"/>
<path d="M1505.59,1437.01,1544.68,1382.23"/>
<path d="M807.98,710.54,811.32,756.89"/>
<path d="M1728.59,1722.09,1739.35,1680.94"/>
<path d="M1728.59,1722.09,1755.28,1766.28"/>
<path d="M94.01,1731.38,59.85,1774.94"/>
<path d="M104.33,1796.18,59.85,1774.94"/>
<path d="M1690.81,1211.65,1723.46,1276.18"/>
<path d="M1771.01,702.94,1744.56,719.00"/>
<path d="M1771.01,702.94,1762.05,665.40"/>
<path d="M568.04,621.11,546.14,638.75"/>
<path d="M568.04,621.11,642.92,428.04"/>
<path d="M1457.28,869.15,1388.96,954.57"/>
<path d="M1723.46,1276.18,1608.74,1381.07"/>
<path d="M1723.46,1276.18,1832.06,1261.68"/>
<path d="M1652.80,268.76,1630.42,141.28"/>
<path d="M1652.80,268.76,1724.09,233.43"/>
<path d="M1638.56,58.86,1630.42,141.28"/>
<path d="M1400.46,1501.07,1376.08,1513.89"/>
<path d="M1400.46,1501.07,1341.56,1437.65"/>
<path d="M335.03,1766.82,319.64,1671.79"/>
<path d="M335.03,1766.82,340.57,1791.61"/>
<path d="M926.95,1731.25,968.65,1739.71"/>
<path d="M926.95,1731.25,944.61,1756.87"/>
<path d="M562.05,1350.89,370.44,1310.95"/>
<path d="M562.05,1350.89,572.69,1379.93"/>
<path d="M1157.01,382.14,1210.75,417.80"/>
<path d="M1376.08,1513.89,1341.56,1437.65"/>
<path d="M1632.50,704.07,1695.51,808.69"/>
<path d="M1632.50,704.07,1519.38,577.24"/>
<path d="M1698.66,1055.40,1606.02,994.65"/>
<path d="M229.34,486.04,218.61,457.34"/>
<path d="M229.34,486.04,276.96,439.37"/>
<path d="M218.61,457.34,276.96,439.37"/>
<path d="M1080.31,336.80,880.55,254.92"/>
<path d="M1080.31,336.80,1030.40,188.56"/>
<path d="M372.16,1565.22,340.96,1658.66"/>
<path d="M372.16,1565.22,472.13,1646.33"/>
<path d="M1264.24,1569.72,1372.58,1617.01"/>
<path d="M900.64,1108.67,984.32,1125.23"/>
<path d="M785.59,374.78,671.72,330.06"/>
<path d="M785.59,374.78,915.32,409.99"/>
<path d="M785.59,374.78,761.66,293.78"/>
<path d="M785.59,374.78,642.92,428.04"/>
<path d="M626.51,1868.86,520.14,1813.79"/>
<path d="M1324.69,1372.73,1341.56,1437.65"/>
<path d="M1866.61,937.63,1750.29,893.00"/>
<path d="M984.32,1125.23,1093.70,1168.70"/>
<path d="M701.07,1078.78,760.70,1035.72"/>
<path d="M608.25,166.26,672.90,132.26"/>
<path d="M760.70,1035.72,724.74,934.63"/>
<path d="M76.97,1625.63,223.63,1660.04"/>
<path d="M1519.86,1291.40,1544.68,1382.23"/>
<path d="M1519.86,1291.40,1489.39,1284.31"/>
<path d="M1695.51,808.69,1744.56,719.00"/>
<path d="M1695.51,808.69,1743.45,835.44"/>
<path d="M1127.67,814.43,1044.46,821.06"/>
<path d="M327.50,73.84,418.08,67.89"/>
<path d="M1503.40,492.07,1352.10,529.93"/>
<path d="M1014.73,1021.12,1047.28,962.16"/>
<path d="M1157.34,1770.35,968.65,1739.71"/>
<path d="M1157.34,1770.35,1155.11,1606.65"/>
<path d="M1157.34,1770.35,1168.78,1853.02"/>
<path d="M797.21,1261.34,877.81,1334.43"/>
<path d="M397.03,476.38,468.08,450.64"/>
<path d="M397.03,476.38,318.27,569.34"/>
<path d="M1743.45,835.44,1750.29,893.00"/>
<path d="M1630.42,141.28,1724.09,233.43"/>
<path d="M68.19,398.15,33.15,447.24"/>
<path d="M1867.39,1570.77,1761.01,1562.47"/>
<path d="M1454.31,1148.54,1278.12,1196.33"/>
<path d="M1454.31,1148.54,1556.87,1145.88"/>
<path d="M1262.22,137.91,1224.03,168.24"/>
<path d="M385.50,304.67,311.49,368.75"/>
<path d="M392.21,1026.95,320.01,942.86"/>
<path d="M671.72,330.06,642.92,428.04"/>
<path d="M1675.16,1821.78,1755.28,1766.28"/>
<path d="M319.64,1671.79,340.96,1658.66"/>
<path d="M851.53,229.89,880.55,254.92"/>
<path d="M851.53,229.89,761.66,293.78"/>
<path d="M851.53,229.89,672.90,132.26"/>
<path d="M1278.12,1196.33,1254.76,1014.44"/>
<path d="M87.58,871.25,74.74,976.72"/>
<path d="M915.32,409.99,880.55,254.92"/>
<path d="M744.35,1333.09,877.81,1334.43"/>
<path d="M512.80,1191.57,540.03,1239.00"/>
<path d="M1160.93,619.20,1352.10,529.93"/>
<path d="M604.23,1603.53,739.26,1580.63"/>
<path d="M968.65,1739.71,944.61,1756.87"/>
<path d="M761.66,293.78,672.90,132.26"/>
<path d="M1739.35,1680.94,1761.01,1562.47"/>
<path d="M1197.03,1527.51,1341.56,1437.65"/>
<path d="M1254.76,1014.44,1240.08,969.30"/>
<path d="M1254.76,1014.44,1093.70,1168.70"/>
<path d="M1352.10,529.93,1415.15,637.23"/>
<path d="M255.63,933.07,74.74,976.72"/>
<path d="M1415.15,637.23,1519.38,577.24"/>
<path d="M276.96,439.37,311.49,368.75"/>
<path d="M276.96,439.37,318.27,569.34"/>
<path d="M374.84,1824.49,340.57,1791.61"/>
<path d="M74.74,976.72,158.92,1108.11"/>
<path d="M1039.29,786.50,1044.46,821.06"/>
<path d="M1104.11,1470.21,1084.62,1387.53"/>
<path d="M877.81,1334.43,905.58,1387.88"/>
<path d="M318.99,727.36,318.27,569.34"/>
<path d="M1030.40,188.56,1224.03,168.24"/>
<circle cx="1217.08" cy="1584.82" r="10"/>
<text x="1217.08" y="1589.82">R0</text>
<circle cx="1127.85" cy="892.04" r="10"/>
<text x="1127.85" y="897.04">R1</text>
<circle cx="1519.96" cy="1217.40" r="10"/>
<text x="1519.96" y="1222.40">R2</text>
<circle cx="1768.72" cy="285.62" r="10"/>
<text x="1768.72" y="290.62">R3</text>
<circle cx="1390.93" cy="1078.65" r="10"/>
<text x="1390.93" y="1083.65">R4</text>
<circle cx="1246.79" cy="1324.71" r="10"/>
<text x="1246.79" y="1329.71">R5</text>
<circle cx="1474.07" cy="1609.67" r="10"/>
<text x="1474.07" y="1614.67">R6</text>
<circle cx="1710.82" cy="1870.09" r="10"/>
<text x="1710.82" y="1875.09">R7</text>
<circle cx="123.28" cy="1327.29" r="10"/>
<text x="123.28" y="1332.29">R8</text>
<circle cx="160.16" cy="235.54" r="10"/>
<text x="160.16" y="240.54">R9</text>
<circle cx="1130.03" cy="55.98" r="10"/>
<text x="1130.03" y="60.98">R10</text>
<circle cx="1585.80" cy="167.01" r="10"/>
<text x="1585.80" y="172.01">R11</text>
<circle cx="135.65" cy="550.48" r="10"/>
<text x="135.65" y="555.48">R12</text>
<circle cx="1793.83" cy="312.49" r="10"/>
<text x="1793.83" y="317.49">R13</text>
<circle cx="8.30" cy="1592.03" r="10"/>
<text x="8.30" y="1597.03">R14</text>
<circle cx="468.56" cy="1216.07" r="10"/>
<text x="468.56" y="1221.07">R15</text>
<circle cx="1148.12" cy="1501.33" r="10"/>
<text x="1148.12" y="1506.33">R16</text>
<circle cx="451.87" cy="1005.32" r="10"/>
<text x="451.87" y="1010.32">R17</text>
<circle cx="107.83" cy="144.96" r="10"/>
<text x="107.83" y="149.96">R18</text>
<circle cx="1645.55" cy="1096.80" r="10"/>
<text x="1645.55" y="1101.80">R19</text>
<circle cx="256.60" cy="1660.51" r="10"/>
<text x="256.60" y="1665.51">R20</text>
<circle cx="1661.04" cy="466.35" r="10"/>
<text x="1661.04" y="471.35">R21</text>
<circle cx="336.83" cy="865.28" r="10"/>
<text x="336.83" y="870.28">R22</text>
<circle cx="1008.38" cy="896.79" r="10"/>
<text x="1008.38" y="901.79">R23</text>
<circle cx="988.41" cy="535.78" r="10"/>
<text x="988.41" y="540.78">R24</text>
<circle cx="522.78" cy="607.67" r="10"/>
<text x="522.78" y="612.67">R25</text>
<circle cx="248.62" cy="817.21" r="10"/>
<text x="248.62" y="822.21">R26</text>
<circle cx="280.73" cy="1010.21" r="10"/>
<text x="280.73" y="1015.21">R27</text>
<circle cx="857.23" cy="900.70" r="10"/>
<text x="857.23" y="905.70">R28</text>
<circle cx="835.60" cy="515.71" r="10"/>
<text x="835.60" y="520.71">R29</text>
<circle cx="412.86" cy="1696.87" r="10"/>
<text x="412.86" y="1701.87">R30</text>
<circle cx="380.35" cy="1200.78" r="10"/>
<text x="380.35" y="1205.78">R31</text>
<circle cx="684.13" cy="303.26" r="10"/>
<text x="684.13" y="308.26">R32</text>
<circle cx="738.96" cy="1291.26" r="10"/>
<text x="738.96" y="1296.26">R33</text>
<circle cx="10.49" cy="1143.38" r="10"/>
<text x="10.49" y="1148.38">R34</text>
<circle cx="584.85" cy="1633.90" r="10"/>
<text x="584.85" y="1638.90">R35</text>
<circle cx="1015.87" cy="104.35" r="10"/>
<text x="1015.87" y="109.35">R36</text>
<circle cx="679.62" cy="1195.87" r="10"/>
<text x="679.62" y="1200.87">R37</text>
<circle cx="1169.51" cy="980.02" r="10"/>
<text x="1169.51" y="985.02">R38</text>
<circle cx="262.74" cy="1750.13" r="10"/>
<text x="262.74" y="1755.13">R39</text>
<circle cx="589.29" cy="1137.23" r="10"/>
<text x="589.29" y="1142.23">R40</text>
<circle cx="908.98" cy="1058.54" r="10"/>
<text x="908.98" y="1063.54">R41</text>
<circle cx="1055.81" cy="1035.55" r="10"/>
<text x="1055.81" y="1040.55">R42</text>
<circle cx="1467.01" cy="1423.21" r="10"/>
<text x="1467.01" y="1428.21">R43</text>
<circle cx="1090.94" cy="545.57" r="10"/>
<text x="1090.94" y="550.57">R44</text>
<circle cx="245.88" cy="230.39" r="10"/>
<text x="245.88" y="235.39">R45</text>
<circle cx="1560.82" cy="1246.47" r="10"/>
<text x="1560.82" y="1251.47">R46</text>
<circle cx="1572.36" cy="1564.51" r="10"/>
<text x="1572.36" y="1569.51">R47</text>
<circle cx="916.57" cy="689.26" r="10"/>
<text x="916.57" y="694.26">R48</text>
<circle cx="822.12" cy="1150.53" r="10"/>
<text x="822.12" y="1155.53">R49</text>
<circle cx="527.60" cy="992.37" r="10"/>
<text x="527.60" y="997.37">R50</text>
<circle cx="803.11" cy="1690.83" r="10"/>
<text x="803.11" y="1695.83">R51</text>
<circle cx="574.42" cy="1579.67" r="10"/>
<text x="574.42" y="1584.67">R52</text>
<circle cx="482.22" cy="415.21" r="10"/>
<text x="482.22" y="420.21">R53</text>
<circle cx="263.53" cy="1828.98" r="10"/>
<text x="263.53" y="1833.98">R54</text>
<circle cx="1289.40" cy="1750.05" r="10"/>
<text x="1289.40" y="1755.05">R55</text>
<circle cx="1037.92" cy="8.58" r="10"/>
<text x="1037.92" y="13.58">R56</text>
<circle cx="705.84" cy="1727.28" r="10"/>
<text x="705.84" y="1732.28">R57</text>
<circle cx="661.70" cy="846.03" r="10"/>
<text x="661.70" y="851.03">R58</text>
<circle cx="1382.24" cy="1344.24" r="10"/>
<text x="1382.24" y="1349.24">R59</text>
<circle cx="1503.84" cy="928.67" r="10"/>
<text x="1503.84" y="933.67">R60</text>
<circle cx="868.40" cy="1040.40" r="10"/>
<text x="868.40" y="1045.40">R61</text>
<circle cx="1145.91" cy="1229.37" r="10"/>
<text x="1145.91" y="1234.37">R62</text>
<circle cx="113.84" cy="694.84" r="10"/>
<text x="113.84" y="699.84">R63</text>
<circle cx="1383.02" cy="1410.26" r="10"/>
<text x="1383.02" y="1415.26">R64</text>
<circle cx="1110.72" cy="390.55" r="10"/>
<text x="1110.72" y="395.55">R65</text>
<circle cx="1584.25" cy="11.38" r="10"/>
<text x="1584.25" y="16.38">R66</text>
<circle cx="1531.23" cy="843.49" r="10"/>
<text x="1531.23" y="848.49">R67</text>
<circle cx="1561.26" cy="977.44" r="10"/>
<text x="1561.26" y="982.44">R68</text>
<circle cx="898.36" cy="1689.79" r="10"/>
<text x="898.36" y="1694.79">R69</text>
<circle cx="318.53" cy="1810.43" r="10"/>
<text x="318.53" y="1815.43">R70</text>
<circle cx="1402.77" cy="396.98" r="10"/>
<text x="1402.77" y="401.98">R71</text>
<circle cx="124.39" cy="380.50" r="10"/>
<text x="124.39" y="385.50">R72</text>
<circle cx="1824.74" cy="489.55" r="10"/>
<text x="1824.74" y="494.55">R73</text>
<circle cx="1113.02" cy="1215.82" r="10"/>
<text x="1113.02" y="1220.82">R74</text>
<circle cx="1371.06" cy="1696.94" r="10"/>
<text x="1371.06" y="1701.94">R75</text>
<circle cx="724.49" cy="682.87" r="10"/>
<text x="724.49" y="687.87">R76</text>
<circle cx="30.53" cy="1020.27" r="10"/>
<text x="30.53" y="1025.27">R77</text>
<circle cx="295.89" cy="934.35" r="10"/>
<text x="295.89" y="939.35">R78</text>
<circle cx="922.83" cy="172.59" r="10"/>
<text x="922.83" y="177.59">R79</text>
<circle cx="966.71" cy="1351.30" r="10"/>
<text x="966.71" y="1356.30">R80</text>
<circle cx="122.51" cy="26.80" r="10"/>
<text x="122.51" y="31.80">R81</text>
<circle cx="1761.66" cy="1429.25" r="10"/>
<text x="1761.66" y="1434.25">R82</text>
<circle cx="562.42" cy="963.52" r="10"/>
<text x="562.42" y="968.52">R83</text>
<circle cx="1329.61" cy="46.99" r="10"/>
<text x="1329.61" y="51.99">R84</text>
<circle cx="1624.21" cy="1443.60" r="10"/>
<text x="1624.21" y="1448.60">R85</text>
<circle cx="769.81" cy="1158.87" r="10"/>
<text x="769.81" y="1163.87">R86</text>
<circle cx="65.03" cy="523.09" r="10"/>
<text x="65.03" y="528.09">R87</text>
<circle cx="1445.44" cy="714.37" r="10"/>
<text x="1445.44" y="719.37">R88</text>
<circle cx="227.11" cy="280.91" r="10"/>
<text x="227.11" y="285.91">R89</text>
<circle cx="870.93" cy="1250.27" r="10"/>
<text x="870.93" y="1255.27">R90</text>
<circle cx="86.89" cy="68.06" r="10"/>
<text x="86.89" y="73.06">R91</text>
<circle cx="373.59" cy="450.15" r="10"/>
<text x="373.59" y="455.15">R92</text>
<circle cx="8.11" cy="1833.31" r="10"/>
<text x="8.11" y="1838.31">R93</text>
<circle cx="705.74" cy="884.19" r="10"/>
<text x="705.74" y="889.19">R94</text>
<circle cx="978.75" cy="1034.47" r="10"/>
<text x="978.75" y="1039.47">R95</text>
<circle cx="1848.37" cy="1744.54" r="10"/>
<text x="1848.37" y="1749.54">R96</text>
<circle cx="15.80" cy="1063.07" r="10"/>
<text x="15.80" y="1068.07">R97</text>
<circle cx="458.61" cy="1852.31" r="10"/>
<text x="458.61" y="1857.31">R98</text>
<circle cx="1439.32" cy="395.81" r="10"/>
<text x="1439.32" y="400.81">R99</text>
<circle cx="255.91" cy="384.30" r="10"/>
<text x="255.91" y="389.30">R100</text>
<circle cx="286.16" cy="770.82" r="10"/>
<text x="286.16" y="775.82">R101</text>
<circle cx="608.12" cy="1414.00" r="10"/>
<text x="608.12" y="1419.00">R102</text>
<circle cx="959.30" cy="1239.45" r="10"/>
<text x="959.30" y="1244.45">R103</text>
<circle cx="334.88" cy="904.31" r="10"/>
<text x="334.88" y="909.31">R104</text>
<circle cx="963.09" cy="1436.62" r="10"/>
<text x="963.09" y="1441.62">R105</text>
<circle cx="955.10" cy="835.26" r="10"/>
<text x="955.10" y="840.26">R106</text>
<circle cx="1781.96" cy="778.48" r="10"/>
<text x="1781.96" y="783.48">R107</text>
<circle cx="1662.49" cy="1762.19" r="10"/>
<text x="1662.49" y="1767.19">R108</text>
<circle cx="1189.74" cy="688.70" r="10"/>
<text x="1189.74" y="693.70">R109</text>
<circle cx="25.86" cy="1344.39" r="10"/>
<text x="25.86" y="1349.39">R110</text>
<circle cx="671.37" cy="1476.43" r="10"/>
<text x="671.37" y="1481.43">R111</text>
<circle cx="1074.82" cy="681.29" r="10"/>
<text x="1074.82" y="686.29">R112</text>
<circle cx="719.21" cy="585.67" r="10"/>
<text x="719.21" y="590.67">R113</text>
<circle cx="243.29" cy="777.70" r="10"/>
<text x="243.29" y="782.70">R114</text>
<circle cx="824.28" cy="482.89" r="10"/>
<text x="824.28" y="487.89">R115</text>
<circle cx="702.96" cy="1496.02" r="10"/>
<text x="702.96" y="1501.02">R116</text>
<circle cx="1141.55" cy="301.84" r="10"/>
<text x="1141.55" y="306.84">R117</text>
<circle cx="1151.47" cy="595.01" r="10"/>
<text x="1151.47" y="600.01">R118</text>
<circle cx="26.66" cy="635.84" r="10"/>
<text x="26.66" y="640.84">R119</text>
<circle cx="1870.74" cy="1371.36" r="10"/>
<text x="1870.74" y="1376.36">R120</text>
<circle cx="920.89" cy="446.75" r="10"/>
<text x="920.89" y="451.75">R121</text>
<circle cx="635.67" cy="288.05" r="10"/>
<text x="635.67" y="293.05">R122</text>
<circle cx="111.77" cy="1752.52" r="10"/>
<text x="111.77" y="1757.52">R123</text>
<circle cx="942.75" cy="758.24" r="10"/>
<text x="942.75" y="763.24">R124</text>
<circle cx="597.28" cy="1250.16" r="10"/>
<text x="597.28" y="1255.16">R125</text>
<circle cx="1337.64" cy="277.86" r="10"/>
<text x="1337.64" y="282.86">R126</text>
<circle cx="839.80" cy="1524.59" r="10"/>
<text x="839.80" y="1529.59">R127</text>
<circle cx="649.20" cy="1498.37" r="10"/>
<text x="649.20" y="1503.37">R128</text>
<circle cx="497.83" cy="1137.55" r="10"/>
<text x="497.83" y="1142.55">R129</text>
<circle cx="290.72" cy="1071.42" r="10"/>
<text x="290.72" y="1076.42">R130</text>
<circle cx="1726.72" cy="688.20" r="10"/>
<text x="1726.72" y="693.20">R131</text>
<circle cx="1170.04" cy="925.63" r="10"/>
<text x="1170.04" y="930.63">R132</text>
<circle cx="1799.50" cy="1021.78" r="10"/>
<text x="1799.50" y="1026.78">R133</text>
<circle cx="1780.05" cy="1004.23" r="10"/>
<text x="1780.05" y="1009.23">R134</text>
<circle cx="500.16" cy="459.40" r="10"/>
<text x="500.16" y="464.40">R135</text>
<circle cx="1559.03" cy="1640.95" r="10"/>
<text x="1559.03" y="1645.95">R136</text>
<circle cx="1093.24" cy="740.91" r="10"/>
<text x="1093.24" y="745.91">R137</text>
<circle cx="653.00" cy="938.99" r="10"/>
<text x="653.00" y="943.99">R138</text>
<circle cx="184.58" cy="684.14" r="10"/>
<text x="184.58" y="689.14">R139</text>
<circle cx="404.09" cy="618.08" r="10"/>
<text x="404.09" y="623.08">R140</text>
<circle cx="1865.75" cy="838.26" r="10"/>
<text x="1865.75" y="843.26">R141</text>
<circle cx="1616.26" cy="1617.78" r="10"/>
<text x="1616.26" y="1622.78">R142</text>
<circle cx="97.76" cy="1295.55" r="10"/>
<text x="97.76" y="1300.55">R143</text>
<circle cx="647.47" cy="980.70" r="10"/>
<text x="647.47" y="985.70">R144</text>
<circle cx="545.71" cy="118.39" r="10"/>
<text x="545.71" y="123.39">R145</text>
<circle cx="17.09" cy="853.10" r="10"/>
<text x="17.09" y="858.10">R146</text>
<circle cx="575.29" cy="1062.93" r="10"/>
<text x="575.29" y="1067.93">R147</text>
<circle cx="416.12" cy="338.50" r="10"/>
<text x="416.12" y="343.50">R148</text>
<circle cx="553.08" cy="1604.38" r="10"/>
<text x="553.08" y="1609.38">R149</text>
<circle cx="231.21" cy="195.28" r="10"/>
<text x="231.21" y="200.28">R150</text>
<circle cx="1573.19" cy="1222.26" r="10"/>
<text x="1573.19" y="1227.26">R151</text>
<circle cx="1296.12" cy="934.48" r="10"/>
<text x="1296.12" y="939.48">R152</text>
<circle cx="1379.43" cy="426.95" r="10"/>
<text x="1379.43" y="431.95">R153</text>
<circle cx="716.25" cy="1688.83" r="10"/>
<text x="716.25" y="1693.83">R154</text>
<circle cx="736.72" cy="1401.22" r="10"/>
<text x="736.72" y="1406.22">R155</text>
<circle cx="168.92" cy="1744.59" r="10"/>
<text x="168.92" y="1749.59">R156</text>
<circle cx="952.16" cy="1268.98" r="10"/>
<text x="952.16" y="1273.98">R157</text>
<circle cx="1368.75" cy="1812.31" r="10"/>
<text x="1368.75" y="1817.31">R158</text>
<circle cx="1598.91" cy="961.58" r="10"/>
<text x="1598.91" y="966.58">R159</text>
<circle cx="1672.08" cy="883.84" r="10"/>
<text x="1672.08" y="888.84">R160</text>
<circle cx="448.30" cy="1680.00" r="10"/>
<text x="448.30" y="1685.00">R161</text>
<circle cx="584.70" cy="1001.21" r="10"/>
<text x="584.70" y="1006.21">R162</text>
<circle cx="1805.62" cy="706.15" r="10"/>
<text x="1805.62" y="711.15">R163</text>
<circle cx="1311.32" cy="479.04" r="10"/>
<text x="1311.32" y="484.04">R164</text>
<circle cx="243.92" cy="564.22" r="10"/>
<text x="243.92" y="569.22">R165</text>
<circle cx="978.02" cy="975.28" r="10"/>
<text x="978.02" y="980.28">R166</text>
<circle cx="1014.47" cy="1590.45" r="10"/>
<text x="1014.47" y="1595.45">R167</text>
<circle cx="568.89" cy="697.44" r="10"/>
<text x="568.89" y="702.44">R168</text>
<circle cx="1837.23" cy="419.88" r="10"/>
<text x="1837.23" y="424.88">R169</text>
<circle cx="54.06" cy="315.18" r="10"/>
<text x="54.06" y="320.18">R170</text>
<circle cx="1363.16" cy="1551.26" r="10"/>
<text x="1363.16" y="1556.26">R171</text>
<circle cx="695.95" cy="7.22" r="10"/>
<text x="695.95" y="12.22">R172</text>
<circle cx="247.26" cy="909.38" r="10"/>
<text x="247.26" y="914.38">R173</text>
<circle cx="1538.31" cy="508.72" r="10"/>
<text x="1538.31" y="513.72">R174</text>
<circle cx="861.76" cy="53.58" r="10"/>
<text x="861.76" y="58.58">R175</text>
<circle cx="627.69" cy="245.82" r="10"/>
<text x="627.69" y="250.82">R176</text>
<circle cx="346.74" cy="1325.86" r="10"/>
<text x="346.74" y="1330.86">R177</text>
<circle cx="531.74" cy="207.44" r="10"/>
<text x="531.74" y="212.44">R178</text>
<circle cx="1080.21" cy="401.46" r="10"/>
<text x="1080.21" y="406.46">R179</text>
<circle cx="949.94" cy="108.39" r="10"/>
<text x="949.94" y="113.39">R180</text>
<circle cx="1174.92" cy="893.17" r="10"/>
<text x="1174.92" y="898.17">R181</text>
<circle cx="432.18" cy="369.77" r="10"/>
<text x="432.18" y="374.77">R182</text>
<circle cx="190.44" cy="1137.61" r="10"/>
<text x="190.44" y="1142.61">R183</text>
<circle cx="377.71" cy="180.07" r="10"/>
<text x="377.71" y="185.07">R184</text>
<circle cx="236.69" cy="636.56" r="10"/>
<text x="236.69" y="641.56">R185</text>
<circle cx="1502.86" cy="1712.99" r="10"/>
<text x="1502.86" y="1717.99">R186</text>
<circle cx="301.98" cy="266.14" r="10"/>
<text x="301.98" y="271.14">R187</text>
<circle cx="1025.85" cy="586.84" r="10"/>
<text x="1025.85" y="591.84">R188</text>
<circle cx="130.44" cy="458.02" r="10"/>
<text x="130.44" y="463.02">R189</text>
<circle cx="1586.60" cy="1402.79" r="10"/>
<text x="1586.60" y="1407.79">R190</text>
<circle cx="583.63" cy="1447.85" r="10"/>
<text x="583.63" y="1452.85">R191</text>
<circle cx="828.89" cy="1479.70" r="10"/>
<text x="828.89" y="1484.70">R192</text>
<circle cx="562.45" cy="1273.43" r="10"/>
<text x="562.45" y="1278.43">R193</text>
<circle cx="1797.68" cy="389.90" r="10"/>
<text x="1797.68" y="394.90">R194</text>
<circle cx="433.96" cy="824.99" r="10"/>
<text x="433.96" y="829.99">R195</text>
<circle cx="762.70" cy="710.67" r="10"/>
<text x="762.70" y="715.67">R196</text>
<circle cx="1599.29" cy="1591.34" r="10"/>
<text x="1599.29" y="1596.34">R197</text>
<circle cx="1056.10" cy="376.89" r="10"/>
<text x="1056.10" y="381.89">R198</text>
<circle cx="165.28" cy="126.33" r="10"/>
<text x="165.28" y="131.33">R199</text>
<circle cx="1392.36" cy="1647.30" r="10"/>
<text x="1392.36" y="1652.30">R200</text>
<circle cx="1648.29" cy="1740.69" r="10"/>
<text x="1648.29" y="1745.69">R201</text>
<circle cx="39.56" cy="1701.53" r="10"/>
<text x="39.56" y="1706.53">R202</text>
<circle cx="1464.06" cy="360.08" r="10"/>
<text x="1464.06" y="365.08">R203</text>
<circle cx="643.70" cy="1699.53" r="10"/>
<text x="643.70" y="1704.53">R204</text>
<circle cx="1225.70" cy="1846.74" r="10"/>
<text x="1225.70" y="1851.74">R205</text>
<circle cx="181.76" cy="605.02" r="10"/>
<text x="181.76" y="610.02">R206</text>
<circle cx="430.26" cy="272.98" r="10"/>
<text x="430.26" y="277.98">R207</text>
<circle cx="1505.59" cy="1437.01" r="10"/>
<text x="1505.59" y="1442.01">R208</text>
<circle cx="807.98" cy="710.54" r="10"/>
<text x="807.98" y="715.54">R209</text>
<circle cx="1728.59" cy="1722.09" r="10"/>
<text x="1728.59" y="1727.09">R210</text>
<circle cx="94.01" cy="1731.38" r="10"/>
<text x="94.01" y="1736.38">R211</text>
<circle cx="104.33" cy="1796.18" r="10"/>
<text x="104.33" y="1801.18">R212</text>
<circle cx="1690.81" cy="1211.65" r="10"/>
<text x="1690.81" y="1216.65">R213</text>
<circle cx="1771.01" cy="702.94" r="10"/>
<text x="1771.01" y="707.94">R214</text>
<circle cx="568.04" cy="621.11" r="10"/>
<text x="568.04" y="626.11">R215</text>
<circle cx="1057.07" cy="569.87" r="10"/>
<text x="1057.07" y="574.87">R216</text>
<circle cx="1457.28" cy="869.15" r="10"/>
<text x="1457.28" y="874.15">R217</text>
<circle cx="1723.46" cy="1276.18" r="10"/>
<text x="1723.46" y="1281.18">R218</text>
<circle cx="1652.80" cy="268.76" r="10"/>
<text x="1652.80" y="273.76">R219</text>
<circle cx="1638.56" cy="58.86" r="10"/>
<text x="1638.56" y="63.86">R220</text>
<circle cx="1400.46" cy="1501.07" r="10"/>
<text x="1400.46" y="1506.07">R221</text>
<circle cx="335.03" cy="1766.82" r="10"/>
<text x="335.03" y="1771.82">R222</text>
<circle cx="926.95" cy="1731.25" r="10"/>
<text x="926.95" y="1736.25">R223</text>
<circle cx="562.05" cy="1350.89" r="10"/>
<text x="562.05" y="1355.89">R224</text>
<circle cx="1157.01" cy="382.14" r="10"/>
<text x="1157.01" y="387.14">R225</text>
<circle cx="853.72" cy="487.15" r="10"/>
<text x="853.72" y="492.15">R226</text>
<circle cx="370.44" cy="1310.95" r="10"/>
<text x="370.44" y="1315.95">R227</text>
<circle cx="1376.08" cy="1513.89" r="10"/>
<text x="1376.08" y="1518.89">R228</text>
<circle cx="1632.50" cy="704.07" r="10"/>
<text x="1632.50" y="709.07">R229</text>
<circle cx="1698.66" cy="1055.40" r="10"/>
<text x="1698.66" y="1060.40">R230</text>
<circle cx="229.34" cy="486.04" r="10"/>
<text x="229.34" y="491.04">R231</text>
<circle cx="976.23" cy="484.44" r="10"/>
<text x="976.23" y="489.44">R232</text>
<circle cx="218.61" cy="457.34" r="10"/>
<text x="218.61" y="462.34">R233</text>
<circle cx="1080.31" cy="336.80" r="10"/>
<text x="1080.31" y="341.80">R234</text>
<circle cx="372.16" cy="1565.22" r="10"/>
<text x="372.16" y="1570.22">R235</text>
<circle cx="1264.24" cy="1569.72" r="10"/>
<text x="1264.24" y="1574.72">R236</text>
<circle cx="900.64" cy="1108.67" r="10"/>
<text x="900.64" y="1113.67">R237</text>
<circle cx="785.59" cy="374.78" r="10"/>
<text x="785.59" y="379.78">R238</text>
<circle cx="626.51" cy="1868.86" r="10"/>
<text x="626.51" y="1873.86">R239</text>
<circle cx="1324.69" cy="1372.73" r="10"/>
<text x="1324.69" y="1377.73">R240</text>
<circle cx="1866.61" cy="937.63" r="10"/>
<text x="1866.61" y="942.63">R241</text>
<circle cx="984.32" cy="1125.23" r="10"/>
<text x="984.32" y="1130.23">R242</text>
<circle cx="701.07" cy="1078.78" r="10"/>
<text x="701.07" y="1083.78">R243</text>
<circle cx="608.25" cy="166.26" r="10"/>
<text x="608.25" y="171.26">R244</text>
<circle cx="760.70" cy="1035.72" r="10"/>
<text x="760.70" y="1040.72">R245</text>
<circle cx="76.97" cy="1625.63" r="10"/>
<text x="76.97" y="1630.63">R246</text>
<circle cx="1519.86" cy="1291.40" r="10"/>
<text x="1519.86" y="1296.40">R247</text>
<circle cx="1695.51" cy="808.69" r="10"/>
<text x="1695.51" y="813.69">R248</text>
<circle cx="1127.67" cy="814.43" r="10"/>
<text x="1127.67" y="819.43">R249</text>
<circle cx="327.50" cy="73.84" r="10"/>
<text x="327.50" y="78.84">R250</text>
<circle cx="1503.40" cy="492.07" r="10"/>
<text x="1503.40" y="497.07">R251</text>
<circle cx="1014.73" cy="1021.12" r="10"/>
<text x="1014.73" y="1026.12">R252</text>
<circle cx="1157.34" cy="1770.35" r="10"/>
<text x="1157.34" y="1775.35">R253</text>
<circle cx="1744.56" cy="719.00" r="10"/>
<text x="1744.56" y="724.00">R254</text>
<circle cx="797.21" cy="1261.34" r="10"/>
<text x="797.21" y="1266.34">R255</text>
<circle cx="397.03" cy="476.38" r="10"/>
<text x="397.03" y="481.38">R256</text>
<circle cx="1743.45" cy="835.44" r="10"/>
<text x="1743.45" y="840.44">R257</text>
<circle cx="1630.42" cy="141.28" r="10"/>
<text x="1630.42" y="146.28">R258</text>
<circle cx="1210.75" cy="417.80" r="10"/>
<text x="1210.75" y="422.80">R259</text>
<circle cx="68.19" cy="398.15" r="10"/>
<text x="68.19" y="403.15">R260</text>
<circle cx="1867.39" cy="1570.77" r="10"/>
<text x="1867.39" y="1575.77">R261</text>
<circle cx="1454.31" cy="1148.54" r="10"/>
<text x="1454.31" y="1153.54">R262</text>
<circle cx="751.41" cy="1718.25" r="10"/>
<text x="751.41" y="1723.25">R263</text>
<circle cx="1262.22" cy="137.91" r="10"/>
<text x="1262.22" y="142.91">R264</text>
<circle cx="546.14" cy="638.75" r="10"/>
<text x="546.14" y="643.75">R265</text>
<circle cx="385.50" cy="304.67" r="10"/>
<text x="385.50" y="309.67">R266</text>
<circle cx="392.21" cy="1026.95" r="10"/>
<text x="392.21" y="1031.95">R267</text>
<circle cx="671.72" cy="330.06" r="10"/>
<text x="671.72" y="335.06">R268</text>
<circle cx="1750.29" cy="893.00" r="10"/>
<text x="1750.29" y="898.00">R269</text>
<circle cx="1675.16" cy="1821.78" r="10"/>
<text x="1675.16" y="1826.78">R270</text>
<circle cx="319.64" cy="1671.79" r="10"/>
<text x="319.64" y="1676.79">R271</text>
<circle cx="851.53" cy="229.89" r="10"/>
<text x="851.53" y="234.89">R272</text>
<circle cx="1278.12" cy="1196.33" r="10"/>
<text x="1278.12" y="1201.33">R273</text>
<circle cx="1762.05" cy="665.40" r="10"/>
<text x="1762.05" y="670.40">R274</text>
<circle cx="1556.87" cy="1145.88" r="10"/>
<text x="1556.87" y="1150.88">R275</text>
<circle cx="87.58" cy="871.25" r="10"/>
<text x="87.58" y="876.25">R276</text>
<circle cx="340.96" cy="1658.66" r="10"/>
<text x="340.96" y="1663.66">R277</text>
<circle cx="915.32" cy="409.99" r="10"/>
<text x="915.32" y="414.99">R278</text>
<circle cx="1544.68" cy="1382.23" r="10"/>
<text x="1544.68" y="1387.23">R279</text>
<circle cx="744.35" cy="1333.09" r="10"/>
<text x="744.35" y="1338.09">R280</text>
<circle cx="512.80" cy="1191.57" r="10"/>
<text x="512.80" y="1196.57">R281</text>
<circle cx="320.01" cy="942.86" r="10"/>
<text x="320.01" y="947.86">R282</text>
<circle cx="1724.09" cy="233.43" r="10"/>
<text x="1724.09" y="238.43">R283</text>
<circle cx="1160.93" cy="619.20" r="10"/>
<text x="1160.93" y="624.20">R284</text>
<circle cx="604.23" cy="1603.53" r="10"/>
<text x="604.23" y="1608.53">R285</text>
<circle cx="134.04" cy="103.81" r="10"/>
<text x="134.04" y="108.81">R286</text>
<circle cx="968.65" cy="1739.71" r="10"/>
<text x="968.65" y="1744.71">R287</text>
<circle cx="531.85" cy="258.86" r="10"/>
<text x="531.85" y="263.86">R288</text>
<circle cx="880.55" cy="254.92" r="10"/>
<text x="880.55" y="259.92">R289</text>
<circle cx="761.66" cy="293.78" r="10"/>
<text x="761.66" y="298.78">R290</text>
<circle cx="1739.35" cy="1680.94" r="10"/>
<text x="1739.35" y="1685.94">R291</text>
<circle cx="1433.61" cy="1668.84" r="10"/>
<text x="1433.61" y="1673.84">R292</text>
<circle cx="985.33" cy="1579.55" r="10"/>
<text x="985.33" y="1584.55">R293</text>
<circle cx="1197.03" cy="1527.51" r="10"/>
<text x="1197.03" y="1532.51">R294</text>
<circle cx="1341.56" cy="1437.65" r="10"/>
<text x="1341.56" y="1442.65">R295</text>
<circle cx="1254.76" cy="1014.44" r="10"/>
<text x="1254.76" y="1019.44">R296</text>
<circle cx="1352.10" cy="529.93" r="10"/>
<text x="1352.10" y="534.93">R297</text>
<circle cx="255.63" cy="933.07" r="10"/>
<text x="255.63" y="938.07">R298</text>
<circle cx="1240.08" cy="969.30" r="10"/>
<text x="1240.08" y="974.30">R299</text>
<circle cx="59.85" cy="1774.94" r="10"/>
<text x="59.85" y="1779.94">R300</text>
<circle cx="418.08" cy="67.89" r="10"/>
<text x="418.08" y="72.89">R301</text>
<circle cx="1415.15" cy="637.23" r="10"/>
<text x="1415.15" y="642.23">R302</text>
<circle cx="1155.11" cy="1606.65" r="10"/>
<text x="1155.11" y="1611.65">R303</text>
<circle cx="472.13" cy="1646.33" r="10"/>
<text x="472.13" y="1651.33">R304</text>
<circle cx="1119.42" cy="0.76" r="10"/>
<text x="1119.42" y="5.76">R305</text>
<circle cx="276.96" cy="439.37" r="10"/>
<text x="276.96" y="444.37">R306</text>
<circle cx="572.69" cy="1379.93" r="10"/>
<text x="572.69" y="1384.93">R307</text>
<circle cx="23.79" cy="177.36" r="10"/>
<text x="23.79" y="182.36">R308</text>
<circle cx="933.97" cy="937.25" r="10"/>
<text x="933.97" y="942.25">R309</text>
<circle cx="811.32" cy="756.89" r="10"/>
<text x="811.32" y="761.89">R310</text>
<circle cx="374.84" cy="1824.49" r="10"/>
<text x="374.84" y="1829.49">R311</text>
<circle cx="127.28" cy="1239.32" r="10"/>
<text x="127.28" y="1244.32">R312</text>
<circle cx="74.74" cy="976.72" r="10"/>
<text x="74.74" y="981.72">R313</text>
<circle cx="1039.29" cy="786.50" r="10"/>
<text x="1039.29" y="791.50">R314</text>
<circle cx="1519.38" cy="577.24" r="10"/>
<text x="1519.38" y="582.24">R315</text>
<circle cx="1606.02" cy="994.65" r="10"/>
<text x="1606.02" y="999.65">R316</text>
<circle cx="672.90" cy="132.26" r="10"/>
<text x="672.90" y="137.26">R317</text>
<circle cx="1104.11" cy="1470.21" r="10"/>
<text x="1104.11" y="1475.21">R318</text>
<circle cx="1608.74" cy="1381.07" r="10"/>
<text x="1608.74" y="1386.07">R319</text>
<circle cx="340.57" cy="1791.61" r="10"/>
<text x="340.57" y="1796.61">R320</text>
<circle cx="540.03" cy="1239.00" r="10"/>
<text x="540.03" y="1244.00">R321</text>
<circle cx="520.14" cy="1813.79" r="10"/>
<text x="520.14" y="1818.79">R322</text>
<circle cx="1832.06" cy="1261.68" r="10"/>
<text x="1832.06" y="1266.68">R323</text>
<circle cx="877.81" cy="1334.43" r="10"/>
<text x="877.81" y="1339.43">R324</text>
<circle cx="724.74" cy="934.63" r="10"/>
<text x="724.74" y="939.63">R325</text>
<circle cx="1372.58" cy="1617.01" r="10"/>
<text x="1372.58" y="1622.01">R326</text>
<circle cx="1003.84" cy="651.52" r="10"/>
<text x="1003.84" y="656.52">R327</text>
<circle cx="944.61" cy="1756.87" r="10"/>
<text x="944.61" y="1761.87">R328</text>
<circle cx="1388.96" cy="954.57" r="10"/>
<text x="1388.96" y="959.57">R329</text>
<circle cx="1093.70" cy="1168.70" r="10"/>
<text x="1093.70" y="1173.70">R330</text>
<circle cx="1044.46" cy="821.06" r="10"/>
<text x="1044.46" y="826.06">R331</text>
<circle cx="905.58" cy="1387.88" r="10"/>
<text x="905.58" y="1392.88">R332</text>
<circle cx="1489.39" cy="1284.31" r="10"/>
<text x="1489.39" y="1289.31">R333</text>
<circle cx="1755.28" cy="1766.28" r="10"/>
<text x="1755.28" y="1771.28">R334</text>
<circle cx="318.99" cy="727.36" r="10"/>
<text x="318.99" y="732.36">R335</text>
<circle cx="223.63" cy="1660.04" r="10"/>
<text x="223.63" y="1665.04">R336</text>
<circle cx="642.92" cy="428.04" r="10"/>
<text x="642.92" y="433.04">R337</text>
<circle cx="1761.01" cy="1562.47" r="10"/>
<text x="1761.01" y="1567.47">R338</text>
<circle cx="311.49" cy="368.75" r="10"/>
<text x="311.49" y="373.75">R339</text>
<circle cx="158.92" cy="1108.11" r="10"/>
<text x="158.92" y="1113.11">R340</text>
<circle cx="1030.40" cy="188.56" r="10"/>
<text x="1030.40" y="193.56">R341</text>
<circle cx="33.15" cy="447.24" r="10"/>
<text x="33.15" y="452.24">R342</text>
<circle cx="468.08" cy="450.64" r="10"/>
<text x="468.08" y="455.64">R343</text>
<circle cx="1047.28" cy="962.16" r="10"/>
<text x="1047.28" y="967.16">R344</text>
<circle cx="1168.78" cy="1853.02" r="10"/>
<text x="1168.78" y="1858.02">R345</text>
<circle cx="1084.62" cy="1387.53" r="10"/>
<text x="1084.62" y="1392.53">R346</text>
<circle cx="318.27" cy="569.34" r="10"/>
<text x="318.27" y="574.34">R347</text>
<circle cx="1224.03" cy="168.24" r="10"/>
<text x="1224.03" y="173.24">R348</text>
<circle cx="739.26" cy="1580.63" r="10"/>
<text x="739.26" y="1585.63">R349</text>
</svg>
