<svg id="topo" viewBox="-92.87 -1954.36 2051.35 2045.59" xmlns="http://www.w3.org/2000/svg">
<style>#topo path {fill: none; stroke: grey; stroke-width: 5.0000px;} #topo circle {fill: lightblue; stroke: none; stroke-width: 0.3px; vector-effect: non-scaling-stroke; r: 10.0000px;} #topo text {fill: black; stroke: none; font-size: 15.0000px; font-family: sans-serif; text-anchor:middle; transform: translateY(0.3em);} #topo path.country {fill: lightgrey; stroke: black; stroke-width: 1px; vector-effect: non-scaling-stroke; visibility: visible;} #topo path.selection {fill: none; stroke: red; stroke-width: 1px; vector-effect: non-scaling-stroke; visibility: visible;} #topo path.utilization {visibility: hidden;}</style>
<path data-id="0-87" d="M187.41,-228.35,190.98,-266.68"/>
<path data-id="0-162" d="M187.41,-228.35,192.03,-193.65"/>
<path data-id="0-312" d="M187.41,-228.35,235.85,-224.75"/>
<path data-id="1-4" d="M841.45,-1831.04,745.99,-1713.51"/>
<path data-id="1-8" d="M841.45,-1831.04,910.11,-1641.47"/>
<path data-id="1-53" d="M841.45,-1831.04,787.10,-1861.38"/>
<path data-id="1-189" d="M841.45,-1831.04,974.93,-1766.44"/>
<path data-id="2-34" d="M219.00,-1565.46,259.08,-1509.45"/>
<path data-id="2-48" d="M219.00,-1565.46,169.64,-1674.29"/>
<path data-id="2-245" d="M219.00,-1565.46,151.18,-1558.65"/>
<path data-id="2-251" d="M219.00,-1565.46,284.65,-1612.23"/>
<path data-id="2-275" d="M219.00,-1565.46,231.91,-1492.27"/>
<path data-id="3-29" d="M157.50,-284.84,116.17,-303.14"/>
<path data-id="3-72" d="M157.50,-284.84,165.84,-323.54"/>
<path data-id="3-87" d="M157.50,-284.84,190.98,-266.68"/>
<path data-id="4-53" d="M745.99,-1713.51,787.10,-1861.38"/>
<path data-id="4-156" d="M745.99,-1713.51,752.11,-1667.31"/>
<path data-id="4-314" d="M745.99,-1713.51,672.75,-1688.52"/>
<path data-id="5-40" d="M1654.43,-514.24,1651.82,-612.09"/>
<path data-id="5-192" d="M1654.43,-514.24,1691.46,-488.64"/>
<path data-id="5-223" d="M1654.43,-514.24,1650.54,-476.55"/>
<path data-id="5-240" d="M1654.43,-514.24,1612.93,-526.31"/>
<path data-id="6-57" d="M495.39,-883.92,459.87,-805.86"/>
<path data-id="6-90" d="M495.39,-883.92,555.99,-896.06"/>
<path data-id="6-254" d="M495.39,-883.92,528.90,-821.00"/>
<path data-id="6-327" d="M495.39,-883.92,462.26,-940.89"/>
<path data-id="7-84" d="M231.49,-1351.05,215.58,-1431.53"/>
<path data-id="7-152" d="M231.49,-1351.05,134.81,-1343.42"/>
<path data-id="7-203" d="M231.49,-1351.05,157.56,-1289.47"/>
<path data-id="7-209" d="M231.49,-1351.05,169.02,-1396.21"/>
<path data-id="7-326" d="M231.49,-1351.05,277.39,-1378.69"/>
<path data-id="8-77" d="M910.11,-1641.47,803.76,-1613.43"/>
<path data-id="8-172" d="M910.11,-1641.47,1005.63,-1569.14"/>
<path data-id="8-189" d="M910.11,-1641.47,974.93,-1766.44"/>
<path data-id="9-48" d="M191.31,-1717.32,169.64,-1674.29"/>
<path data-id="9-163" d="M191.31,-1717.32,146.93,-1756.15"/>
<path data-id="9-255" d="M191.31,-1717.32,226.54,-1714.81"/>
<path data-id="10-36" d="M0.38,-21.90,22.24,-87.45"/>
<path data-id="10-108" d="M0.38,-21.90,72.26,-41.08"/>
<path data-id="11-35" d="M558.66,-355.27,553.62,-461.28"/>
<path data-id="11-70" d="M558.66,-355.27,593.68,-359.99"/>
<path data-id="11-91" d="M558.66,-355.27,476.82,-333.31"/>
<path data-id="11-234" d="M558.66,-355.27,505.54,-273.28"/>
<path data-id="11-272" d="M558.66,-355.27,479.42,-451.34"/>
<path data-id="12-71" d="M982.18,-858.09,1116.32,-756.81"/>
<path data-id="12-153" d="M982.18,-858.09,1207.35,-934.07"/>
<path data-id="12-160" d="M982.18,-858.09,1091.37,-1031.10"/>
<path data-id="12-193" d="M982.18,-858.09,951.49,-789.07"/>
<path data-id="12-291" d="M982.18,-858.09,933.50,-941.16"/>
<path data-id="13-78" d="M684.76,-340.05,755.15,-304.73"/>
<path data-id="13-232" d="M684.76,-340.05,701.05,-257.72"/>
<path data-id="13-304" d="M684.76,-340.05,697.51,-388.35"/>
<path data-id="13-318" d="M684.76,-340.05,655.25,-392.14"/>
<path data-id="14-188" d="M867.92,-1227.74,730.71,-1384.15"/>
<path data-id="14-256" d="M867.92,-1227.74,922.54,-1296.89"/>
<path data-id="14-270" d="M867.92,-1227.74,911.52,-1182.06"/>
<path data-id="14-328" d="M867.92,-1227.74,706.29,-1144.96"/>
<path data-id="15-81" d="M1821.49,-520.09,1807.77,-454.64"/>
<path data-id="15-116" d="M1821.49,-520.09,1783.30,-716.77"/>
<path data-id="15-192" d="M1821.49,-520.09,1691.46,-488.64"/>
<path data-id="16-68" d="M928.91,-625.04,785.12,-731.72"/>
<path data-id="16-73" d="M928.91,-625.04,774.12,-512.25"/>
<path data-id="16-180" d="M928.91,-625.04,968.99,-698.39"/>
<path data-id="16-202" d="M928.91,-625.04,740.90,-614.69"/>
<path data-id="16-257" d="M928.91,-625.04,989.02,-537.32"/>
<path data-id="16-280" d="M928.91,-625.04,1000.70,-637.34"/>
<path data-id="17-102" d="M1094.49,-481.07,1019.03,-521.34"/>
<path data-id="17-173" d="M1094.49,-481.07,1052.55,-314.31"/>
<path data-id="17-198" d="M1094.49,-481.07,1240.03,-429.51"/>
<path data-id="17-250" d="M1094.49,-481.07,965.74,-360.60"/>
<path data-id="17-338" d="M1094.49,-481.07,1121.31,-589.17"/>
<path data-id="18-152" d="M44.14,-1353.52,134.81,-1343.42"/>
<path data-id="18-208" d="M44.14,-1353.52,92.60,-1415.21"/>
<path data-id="18-295" d="M44.14,-1353.52,58.33,-1313.24"/>
<path data-id="19-86" d="M430.98,-1469.78,373.64,-1553.80"/>
<path data-id="19-95" d="M430.98,-1469.78,454.24,-1338.90"/>
<path data-id="19-181" d="M430.98,-1469.78,302.41,-1354.18"/>
<path data-id="19-182" d="M430.98,-1469.78,474.29,-1493.75"/>
<path data-id="19-227" d="M430.98,-1469.78,522.80,-1373.91"/>
<path data-id="20-59" d="M1636.29,-1518.01,1540.93,-1600.02"/>
<path data-id="20-62" d="M1636.29,-1518.01,1687.70,-1517.16"/>
<path data-id="20-195" d="M1636.29,-1518.01,1629.41,-1316.46"/>
<path data-id="20-196" d="M1636.29,-1518.01,1415.74,-1432.78"/>
<path data-id="20-319" d="M1636.29,-1518.01,1679.93,-1611.87"/>
<path data-id="20-336" d="M1636.29,-1518.01,1525.18,-1333.85"/>
<path data-id="21-104" d="M35.41,-811.31,23.70,-909.12"/>
<path data-id="21-294" d="M35.41,-811.31,67.61,-768.60"/>
<path data-id="21-333" d="M35.41,-811.31,106.69,-844.95"/>
<path data-id="22-172" d="M1094.91,-1630.10,1005.63,-1569.14"/>
<path data-id="22-176" d="M1094.91,-1630.10,1145.65,-1734.40"/>
<path data-id="22-189" d="M1094.91,-1630.10,974.93,-1766.44"/>
<path data-id="22-229" d="M1094.91,-1630.10,1158.07,-1602.71"/>
<path data-id="23-218" d="M27.18,-494.67,74.00,-496.26"/>
<path data-id="24-68" d="M711.04,-717.09,785.12,-731.72"/>
<path data-id="24-274" d="M711.04,-717.09,626.85,-727.79"/>
<path data-id="24-335" d="M711.04,-717.09,679.74,-678.56"/>
<path data-id="25-186" d="M1823.41,-243.82,1778.13,-293.13"/>
<path data-id="25-313" d="M1823.41,-243.82,1829.00,-178.47"/>
<path data-id="26-94" d="M318.97,-1265.30,404.47,-1316.35"/>
<path data-id="26-181" d="M318.97,-1265.30,302.41,-1354.18"/>
<path data-id="26-197" d="M318.97,-1265.30,332.79,-1173.78"/>
<path data-id="26-230" d="M318.97,-1265.30,408.67,-1265.41"/>
<path data-id="26-310" d="M318.97,-1265.30,239.83,-1180.96"/>
<path data-id="27-72" d="M133.86,-356.14,165.84,-323.54"/>
<path data-id="27-105" d="M133.86,-356.14,94.29,-453.25"/>
<path data-id="27-137" d="M133.86,-356.14,108.70,-350.63"/>
<path data-id="27-263" d="M133.86,-356.14,159.01,-461.39"/>
<path data-id="28-79" d="M1331.26,-513.97,1214.17,-608.60"/>
<path data-id="28-100" d="M1331.26,-513.97,1319.49,-682.15"/>
<path data-id="28-142" d="M1331.26,-513.97,1400.75,-498.92"/>
<path data-id="28-198" d="M1331.26,-513.97,1240.03,-429.51"/>
<path data-id="28-289" d="M1331.26,-513.97,1339.79,-350.63"/>
<path data-id="29-72" d="M116.17,-303.14,165.84,-323.54"/>
<path data-id="29-109" d="M116.17,-303.14,49.91,-291.69"/>
<path data-id="29-137" d="M116.17,-303.14,108.70,-350.63"/>
<path data-id="30-110" d="M156.06,-1008.54,136.18,-905.85"/>
<path data-id="30-133" d="M156.06,-1008.54,223.41,-1058.89"/>
<path data-id="30-184" d="M156.06,-1008.54,53.12,-931.33"/>
<path data-id="30-281" d="M156.06,-1008.54,170.97,-1075.44"/>
<path data-id="31-49" d="M1548.91,-1630.87,1362.36,-1665.07"/>
<path data-id="31-59" d="M1548.91,-1630.87,1540.93,-1600.02"/>
<path data-id="31-67" d="M1548.91,-1630.87,1637.67,-1732.36"/>
<path data-id="31-106" d="M1548.91,-1630.87,1510.85,-1750.73"/>
<path data-id="31-319" d="M1548.91,-1630.87,1679.93,-1611.87"/>
<path data-id="31-329" d="M1548.91,-1630.87,1592.64,-1767.33"/>
<path data-id="32-46" d="M1308.14,-1239.89,1206.02,-1268.15"/>
<path data-id="32-122" d="M1308.14,-1239.89,1277.42,-1200.94"/>
<path data-id="32-129" d="M1308.14,-1239.89,1380.87,-1244.32"/>
<path data-id="32-225" d="M1308.14,-1239.89,1371.65,-1279.68"/>
<path data-id="32-296" d="M1308.14,-1239.89,1317.13,-1315.18"/>
<path data-id="33-63" d="M601.69,-187.31,551.89,-237.73"/>
<path data-id="33-148" d="M601.69,-187.31,605.90,-54.93"/>
<path data-id="33-232" d="M601.69,-187.31,701.05,-257.72"/>
<path data-id="33-348" d="M601.69,-187.31,456.76,-84.16"/>
<path data-id="34-86" d="M259.08,-1509.45,373.64,-1553.80"/>
<path data-id="34-251" d="M259.08,-1509.45,284.65,-1612.23"/>
<path data-id="34-275" d="M259.08,-1509.45,231.91,-1492.27"/>
<path data-id="35-70" d="M553.62,-461.28,593.68,-359.99"/>
<path data-id="35-117" d="M553.62,-461.28,549.83,-511.23"/>
<path data-id="35-145" d="M553.62,-461.28,654.19,-473.30"/>
<path data-id="35-272" d="M553.62,-461.28,479.42,-451.34"/>
<path data-id="35-318" d="M553.62,-461.28,655.25,-392.14"/>
<path data-id="36-108" d="M22.24,-87.45,72.26,-41.08"/>
<path data-id="36-109" d="M22.24,-87.45,49.91,-291.69"/>
<path data-id="36-238" d="M22.24,-87.45,94.90,-101.87"/>
<path data-id="37-97" d="M290.80,-52.11,359.28,-53.78"/>
<path data-id="37-317" d="M290.80,-52.11,248.94,-84.05"/>
<path data-id="38-76" d="M1286.47,-1540.69,1239.06,-1481.38"/>
<path data-id="38-306" d="M1286.47,-1540.69,1318.67,-1572.04"/>
<path data-id="38-337" d="M1286.47,-1540.69,1254.89,-1634.83"/>
<path data-id="38-339" d="M1286.47,-1540.69,1147.79,-1576.69"/>
<path data-id="38-342" d="M1286.47,-1540.69,1343.58,-1451.99"/>
<path data-id="39-41" d="M885.81,-308.77,834.99,-105.30"/>
<path data-id="39-141" d="M885.81,-308.77,964.16,-280.55"/>
<path data-id="39-228" d="M885.81,-308.77,854.22,-325.87"/>
<path data-id="39-250" d="M885.81,-308.77,965.74,-360.60"/>
<path data-id="40-116" d="M1651.82,-612.09,1783.30,-716.77"/>
<path data-id="40-146" d="M1651.82,-612.09,1615.83,-602.93"/>
<path data-id="40-265" d="M1651.82,-612.09,1622.61,-798.61"/>
<path data-id="41-50" d="M834.99,-105.30,994.61,-166.86"/>
<path data-id="41-78" d="M834.99,-105.30,755.15,-304.73"/>
<path data-id="41-232" d="M834.99,-105.30,701.05,-257.72"/>
<path data-id="41-242" d="M834.99,-105.30,696.23,-7.31"/>
<path data-id="41-260" d="M834.99,-105.30,975.26,-41.97"/>
<path data-id="42-126" d="M44.21,-1658.76,93.54,-1593.31"/>
<path data-id="42-332" d="M44.21,-1658.76,106.51,-1722.90"/>
<path data-id="42-346" d="M44.21,-1658.76,38.85,-1786.33"/>
<path data-id="43-93" d="M546.14,-1511.47,662.43,-1505.59"/>
<path data-id="43-182" d="M546.14,-1511.47,474.29,-1493.75"/>
<path data-id="43-194" d="M546.14,-1511.47,647.60,-1441.33"/>
<path data-id="43-227" d="M546.14,-1511.47,522.80,-1373.91"/>
<path data-id="43-273" d="M546.14,-1511.47,518.79,-1629.29"/>
<path data-id="44-64" d="M1625.84,-848.51,1578.93,-831.70"/>
<path data-id="44-265" d="M1625.84,-848.51,1622.61,-798.61"/>
<path data-id="44-293" d="M1625.84,-848.51,1649.84,-811.41"/>
<path data-id="44-334" d="M1625.84,-848.51,1573.18,-871.14"/>
<path data-id="45-121" d="M1705.37,-367.91,1737.93,-357.13"/>
<path data-id="45-158" d="M1705.37,-367.91,1616.91,-445.24"/>
<path data-id="45-192" d="M1705.37,-367.91,1691.46,-488.64"/>
<path data-id="45-223" d="M1705.37,-367.91,1650.54,-476.55"/>
<path data-id="45-235" d="M1705.37,-367.91,1602.86,-284.59"/>
<path data-id="46-122" d="M1206.02,-1268.15,1277.42,-1200.94"/>
<path data-id="46-124" d="M1206.02,-1268.15,1183.77,-1209.65"/>
<path data-id="46-286" d="M1206.02,-1268.15,1045.42,-1270.35"/>
<path data-id="46-292" d="M1206.02,-1268.15,1218.00,-1340.54"/>
<path data-id="46-296" d="M1206.02,-1268.15,1317.13,-1315.18"/>
<path data-id="47-49" d="M1314.77,-1701.75,1362.36,-1665.07"/>
<path data-id="47-132" d="M1314.77,-1701.75,1299.35,-1744.34"/>
<path data-id="47-237" d="M1314.77,-1701.75,1381.85,-1717.83"/>
<path data-id="47-253" d="M1314.77,-1701.75,1320.38,-1621.99"/>
<path data-id="47-337" d="M1314.77,-1701.75,1254.89,-1634.83"/>
<path data-id="48-126" d="M169.64,-1674.29,93.54,-1593.31"/>
<path data-id="48-245" d="M169.64,-1674.29,151.18,-1558.65"/>
<path data-id="48-251" d="M169.64,-1674.29,284.65,-1612.23"/>
<path data-id="48-332" d="M169.64,-1674.29,106.51,-1722.90"/>
<path data-id="49-59" d="M1362.36,-1665.07,1540.93,-1600.02"/>
<path data-id="49-237" d="M1362.36,-1665.07,1381.85,-1717.83"/>
<path data-id="49-253" d="M1362.36,-1665.07,1320.38,-1621.99"/>
<path data-id="50-141" d="M994.61,-166.86,964.16,-280.55"/>
<path data-id="50-177" d="M994.61,-166.86,1151.78,-156.36"/>
<path data-id="50-260" d="M994.61,-166.86,975.26,-41.97"/>
<path data-id="50-308" d="M994.61,-166.86,1089.55,-274.36"/>
<path data-id="51-203" d="M108.57,-1203.41,157.56,-1289.47"/>
<path data-id="51-288" d="M108.57,-1203.41,74.71,-1277.74"/>
<path data-id="51-301" d="M108.57,-1203.41,178.30,-1160.10"/>
<path data-id="52-82" d="M1864.45,-1159.22,1804.64,-1305.02"/>
<path data-id="52-216" d="M1864.45,-1159.22,1835.41,-885.76"/>
<path data-id="52-247" d="M1864.45,-1159.22,1689.53,-1244.42"/>
<path data-id="53-277" d="M787.10,-1861.38,669.36,-1854.74"/>
<path data-id="54-66" d="M242.54,-1803.51,117.24,-1835.53"/>
<path data-id="54-163" d="M242.54,-1803.51,146.93,-1756.15"/>
<path data-id="54-255" d="M242.54,-1803.51,226.54,-1714.81"/>
<path data-id="54-268" d="M242.54,-1803.51,274.50,-1792.69"/>
<path data-id="55-98" d="M308.30,-219.95,339.76,-252.01"/>
<path data-id="55-123" d="M308.30,-219.95,258.16,-260.16"/>
<path data-id="55-249" d="M308.30,-219.95,393.18,-154.46"/>
<path data-id="55-312" d="M308.30,-219.95,235.85,-224.75"/>
<path data-id="56-96" d="M899.68,-423.96,798.96,-459.77"/>
<path data-id="56-136" d="M899.68,-423.96,878.04,-384.26"/>
<path data-id="56-250" d="M899.68,-423.96,965.74,-360.60"/>
<path data-id="56-257" d="M899.68,-423.96,989.02,-537.32"/>
<path data-id="57-154" d="M459.87,-805.86,273.36,-679.17"/>
<path data-id="57-254" d="M459.87,-805.86,528.90,-821.00"/>
<path data-id="57-266" d="M459.87,-805.86,540.39,-660.60"/>
<path data-id="57-276" d="M459.87,-805.86,195.82,-794.21"/>
<path data-id="58-127" d="M1433.39,-940.50,1537.13,-1165.53"/>
<path data-id="58-206" d="M1433.39,-940.50,1335.94,-948.31"/>
<path data-id="58-282" d="M1433.39,-940.50,1390.15,-772.46"/>
<path data-id="58-315" d="M1433.39,-940.50,1511.36,-887.03"/>
<path data-id="59-259" d="M1540.93,-1600.02,1379.17,-1526.57"/>
<path data-id="60-174" d="M1771.99,-1839.58,1855.46,-1643.25"/>
<path data-id="60-233" d="M1771.99,-1839.58,1715.47,-1860.93"/>
<path data-id="60-279" d="M1771.99,-1839.58,1686.12,-1717.10"/>
<path data-id="61-138" d="M656.96,-632.41,582.42,-627.56"/>
<path data-id="61-145" d="M656.96,-632.41,654.19,-473.30"/>
<path data-id="61-202" d="M656.96,-632.41,740.90,-614.69"/>
<path data-id="61-215" d="M656.96,-632.41,696.14,-479.35"/>
<path data-id="61-267" d="M656.96,-632.41,609.29,-673.88"/>
<path data-id="61-335" d="M656.96,-632.41,679.74,-678.56"/>
<path data-id="62-92" d="M1687.70,-1517.16,1793.11,-1504.71"/>
<path data-id="62-319" d="M1687.70,-1517.16,1679.93,-1611.87"/>
<path data-id="62-323" d="M1687.70,-1517.16,1717.97,-1349.90"/>
<path data-id="63-234" d="M551.89,-237.73,505.54,-273.28"/>
<path data-id="63-348" d="M551.89,-237.73,456.76,-84.16"/>
<path data-id="64-144" d="M1578.93,-831.70,1467.19,-735.49"/>
<path data-id="64-265" d="M1578.93,-831.70,1622.61,-798.61"/>
<path data-id="64-334" d="M1578.93,-831.70,1573.18,-871.14"/>
<path data-id="65-92" d="M1792.32,-1467.76,1793.11,-1504.71"/>
<path data-id="65-169" d="M1792.32,-1467.76,1839.85,-1462.13"/>
<path data-id="65-323" d="M1792.32,-1467.76,1717.97,-1349.90"/>
<path data-id="66-163" d="M117.24,-1835.53,146.93,-1756.15"/>
<path data-id="66-320" d="M117.24,-1835.53,14.84,-1838.51"/>
<path data-id="66-346" d="M117.24,-1835.53,38.85,-1786.33"/>
<path data-id="67-233" d="M1637.67,-1732.36,1715.47,-1860.93"/>
<path data-id="67-279" d="M1637.67,-1732.36,1686.12,-1717.10"/>
<path data-id="67-329" d="M1637.67,-1732.36,1592.64,-1767.33"/>
<path data-id="68-202" d="M785.12,-731.72,740.90,-614.69"/>
<path data-id="68-322" d="M785.12,-731.72,956.06,-761.91"/>
<path data-id="68-325" d="M785.12,-731.72,815.48,-827.54"/>
<path data-id="69-185" d="M643.64,-1761.59,524.58,-1745.58"/>
<path data-id="69-284" d="M643.64,-1761.59,648.65,-1798.91"/>
<path data-id="69-314" d="M643.64,-1761.59,672.75,-1688.52"/>
<path data-id="70-318" d="M593.68,-359.99,655.25,-392.14"/>
<path data-id="71-79" d="M1116.32,-756.81,1214.17,-608.60"/>
<path data-id="71-100" d="M1116.32,-756.81,1319.49,-682.15"/>
<path data-id="71-134" d="M1116.32,-756.81,1068.43,-607.67"/>
<path data-id="71-180" d="M1116.32,-756.81,968.99,-698.39"/>
<path data-id="71-224" d="M1116.32,-756.81,1241.37,-900.42"/>
<path data-id="71-280" d="M1116.32,-756.81,1000.70,-637.34"/>
<path data-id="71-322" d="M1116.32,-756.81,956.06,-761.91"/>
<path data-id="72-222" d="M165.84,-323.54,243.58,-304.67"/>
<path data-id="73-96" d="M774.12,-512.25,798.96,-459.77"/>
<path data-id="73-149" d="M774.12,-512.25,746.13,-472.27"/>
<path data-id="73-202" d="M774.12,-512.25,740.90,-614.69"/>
<path data-id="74-213" d="M217.23,-123.56,226.31,-153.81"/>
<path data-id="74-238" d="M217.23,-123.56,94.90,-101.87"/>
<path data-id="74-317" d="M217.23,-123.56,248.94,-84.05"/>
<path data-id="75-277" d="M644.68,-1835.73,669.36,-1854.74"/>
<path data-id="75-284" d="M644.68,-1835.73,648.65,-1798.91"/>
<path data-id="76-297" d="M1239.06,-1481.38,1179.51,-1415.78"/>
<path data-id="76-339" d="M1239.06,-1481.38,1147.79,-1576.69"/>
<path data-id="76-342" d="M1239.06,-1481.38,1343.58,-1451.99"/>
<path data-id="77-156" d="M803.76,-1613.43,752.11,-1667.31"/>
<path data-id="77-167" d="M803.76,-1613.43,782.26,-1557.58"/>
<path data-id="78-228" d="M755.15,-304.73,854.22,-325.87"/>
<path data-id="78-232" d="M755.15,-304.73,701.05,-257.72"/>
<path data-id="79-100" d="M1214.17,-608.60,1319.49,-682.15"/>
<path data-id="79-198" d="M1214.17,-608.60,1240.03,-429.51"/>
<path data-id="79-338" d="M1214.17,-608.60,1121.31,-589.17"/>
<path data-id="80-99" d="M326.70,-582.98,274.08,-589.56"/>
<path data-id="80-155" d="M326.70,-582.98,292.60,-619.93"/>
<path data-id="80-307" d="M326.70,-582.98,439.36,-562.28"/>
<path data-id="80-330" d="M326.70,-582.98,340.24,-489.02"/>
<path data-id="81-121" d="M1807.77,-454.64,1737.93,-357.13"/>
<path data-id="81-192" d="M1807.77,-454.64,1691.46,-488.64"/>
<path data-id="82-168" d="M1804.64,-1305.02,1827.71,-1333.70"/>
<path data-id="82-247" d="M1804.64,-1305.02,1689.53,-1244.42"/>
<path data-id="82-323" d="M1804.64,-1305.02,1717.97,-1349.90"/>
<path data-id="83-117" d="M524.92,-557.18,549.83,-511.23"/>
<path data-id="83-138" d="M524.92,-557.18,582.42,-627.56"/>
<path data-id="83-266" d="M524.92,-557.18,540.39,-660.60"/>
<path data-id="83-307" d="M524.92,-557.18,439.36,-562.28"/>
<path data-id="84-209" d="M215.58,-1431.53,169.02,-1396.21"/>
<path data-id="84-262" d="M215.58,-1431.53,156.27,-1435.49"/>
<path data-id="84-275" d="M215.58,-1431.53,231.91,-1492.27"/>
<path data-id="84-326" d="M215.58,-1431.53,277.39,-1378.69"/>
<path data-id="85-128" d="M785.68,-934.52,815.32,-881.43"/>
<path data-id="85-175" d="M785.68,-934.52,829.74,-935.06"/>
<path data-id="85-219" d="M785.68,-934.52,803.13,-1012.00"/>
<path data-id="85-303" d="M785.68,-934.52,706.21,-947.59"/>
<path data-id="86-125" d="M373.64,-1553.80,441.75,-1574.13"/>
<path data-id="86-251" d="M373.64,-1553.80,284.65,-1612.23"/>
<path data-id="87-123" d="M190.98,-266.68,258.16,-260.16"/>
<path data-id="87-222" d="M190.98,-266.68,243.58,-304.67"/>
<path data-id="87-312" d="M190.98,-266.68,235.85,-224.75"/>
<path data-id="88-89" d="M334.00,-1060.80,299.52,-1119.07"/>
<path data-id="88-133" d="M334.00,-1060.80,223.41,-1058.89"/>
<path data-id="88-170" d="M334.00,-1060.80,360.20,-949.64"/>
<path data-id="88-199" d="M334.00,-1060.80,434.31,-1129.70"/>
<path data-id="88-340" d="M334.00,-1060.80,473.48,-979.61"/>
<path data-id="89-133" d="M299.52,-1119.07,223.41,-1058.89"/>
<path data-id="89-197" d="M299.52,-1119.07,332.79,-1173.78"/>
<path data-id="89-207" d="M299.52,-1119.07,267.08,-1153.39"/>
<path data-id="90-115" d="M555.99,-896.06,620.74,-952.85"/>
<path data-id="90-246" d="M555.99,-896.06,611.65,-882.89"/>
<path data-id="90-254" d="M555.99,-896.06,528.90,-821.00"/>
<path data-id="91-140" d="M476.82,-333.31,454.81,-410.26"/>
<path data-id="91-234" d="M476.82,-333.31,505.54,-273.28"/>
<path data-id="91-236" d="M476.82,-333.31,376.33,-338.63"/>
<path data-id="91-258" d="M476.82,-333.31,428.05,-270.34"/>
<path data-id="92-174" d="M1793.11,-1504.71,1855.46,-1643.25"/>
<path data-id="92-179" d="M1793.11,-1504.71,1721.42,-1640.66"/>
<path data-id="93-194" d="M662.43,-1505.59,647.60,-1441.33"/>
<path data-id="93-205" d="M662.43,-1505.59,702.47,-1550.50"/>
<path data-id="94-95" d="M404.47,-1316.35,454.24,-1338.90"/>
<path data-id="94-181" d="M404.47,-1316.35,302.41,-1354.18"/>
<path data-id="94-230" d="M404.47,-1316.35,408.67,-1265.41"/>
<path data-id="95-227" d="M454.24,-1338.90,522.80,-1373.91"/>
<path data-id="96-136" d="M798.96,-459.77,878.04,-384.26"/>
<path data-id="96-149" d="M798.96,-459.77,746.13,-472.27"/>
<path data-id="97-212" d="M359.28,-53.78,372.43,-82.65"/>
<path data-id="98-236" d="M339.76,-252.01,376.33,-338.63"/>
<path data-id="98-249" d="M339.76,-252.01,393.18,-154.46"/>
<path data-id="98-258" d="M339.76,-252.01,428.05,-270.34"/>
<path data-id="99-107" d="M274.08,-589.56,253.72,-527.36"/>
<path data-id="99-155" d="M274.08,-589.56,292.60,-619.93"/>
<path data-id="100-282" d="M1319.49,-682.15,1390.15,-772.46"/>
<path data-id="100-324" d="M1319.49,-682.15,1453.74,-546.89"/>
<path data-id="101-287" d="M1207.40,-1841.62,1304.01,-1827.29"/>
<path data-id="101-309" d="M1207.40,-1841.62,1183.35,-1809.09"/>
<path data-id="102-250" d="M1019.03,-521.34,965.74,-360.60"/>
<path data-id="102-257" d="M1019.03,-521.34,989.02,-537.32"/>
<path data-id="102-290" d="M1019.03,-521.34,1050.72,-586.51"/>
<path data-id="103-210" d="M1372.94,-249.64,1384.33,-204.61"/>
<path data-id="103-302" d="M1372.94,-249.64,1337.19,-279.51"/>
<path data-id="103-331" d="M1372.94,-249.64,1532.49,-274.55"/>
<path data-id="104-184" d="M23.70,-909.12,53.12,-931.33"/>
<path data-id="104-333" d="M23.70,-909.12,106.69,-844.95"/>
<path data-id="105-137" d="M94.29,-453.25,108.70,-350.63"/>
<path data-id="105-218" d="M94.29,-453.25,74.00,-496.26"/>
<path data-id="105-263" d="M94.29,-453.25,159.01,-461.39"/>
<path data-id="106-201" d="M1510.85,-1750.73,1420.23,-1745.08"/>
<path data-id="106-252" d="M1510.85,-1750.73,1463.49,-1848.18"/>
<path data-id="106-329" d="M1510.85,-1750.73,1592.64,-1767.33"/>
<path data-id="107-161" d="M253.72,-527.36,105.41,-561.11"/>
<path data-id="107-217" d="M253.72,-527.36,301.67,-418.98"/>
<path data-id="107-263" d="M253.72,-527.36,159.01,-461.39"/>
<path data-id="107-330" d="M253.72,-527.36,340.24,-489.02"/>
<path data-id="108-238" d="M72.26,-41.08,94.90,-101.87"/>
<path data-id="109-238" d="M49.91,-291.69,94.90,-101.87"/>
<path data-id="110-130" d="M136.18,-905.85,175.68,-838.62"/>
<path data-id="110-170" d="M136.18,-905.85,360.20,-949.64"/>
<path data-id="110-184" d="M136.18,-905.85,53.12,-931.33"/>
<path data-id="110-333" d="M136.18,-905.85,106.69,-844.95"/>
<path data-id="111-135" d="M1638.16,-1284.43,1626.70,-1258.67"/>
<path data-id="111-195" d="M1638.16,-1284.43,1629.41,-1316.46"/>
<path data-id="111-247" d="M1638.16,-1284.43,1689.53,-1244.42"/>
<path data-id="111-349" d="M1638.16,-1284.43,1590.78,-1285.79"/>
<path data-id="112-233" d="M1590.79,-1822.24,1715.47,-1860.93"/>
<path data-id="112-252" d="M1590.79,-1822.24,1463.49,-1848.18"/>
<path data-id="112-329" d="M1590.79,-1822.24,1592.64,-1767.33"/>
<path data-id="113-154" d="M177.96,-773.58,273.36,-679.17"/>
<path data-id="113-161" d="M177.96,-773.58,105.41,-561.11"/>
<path data-id="113-276" d="M177.96,-773.58,195.82,-794.21"/>
<path data-id="113-294" d="M177.96,-773.58,67.61,-768.60"/>
<path data-id="114-131" d="M1477.35,-557.49,1542.88,-518.23"/>
<path data-id="114-324" d="M1477.35,-557.49,1453.74,-546.89"/>
<path data-id="114-347" d="M1477.35,-557.49,1536.02,-653.38"/>
<path data-id="115-246" d="M620.74,-952.85,611.65,-882.89"/>
<path data-id="115-271" d="M620.74,-952.85,492.20,-1004.61"/>
<path data-id="115-303" d="M620.74,-952.85,706.21,-947.59"/>
<path data-id="115-311" d="M620.74,-952.85,644.63,-990.08"/>
<path data-id="116-216" d="M1783.30,-716.77,1835.41,-885.76"/>
<path data-id="116-293" d="M1783.30,-716.77,1649.84,-811.41"/>
<path data-id="117-145" d="M549.83,-511.23,654.19,-473.30"/>
<path data-id="118-198" d="M1248.72,-390.53,1240.03,-429.51"/>
<path data-id="118-289" d="M1248.72,-390.53,1339.79,-350.63"/>
<path data-id="118-308" d="M1248.72,-390.53,1089.55,-274.36"/>
<path data-id="119-159" d="M529.23,-1152.53,508.17,-1103.32"/>
<path data-id="119-239" d="M529.23,-1152.53,618.33,-1128.04"/>
<path data-id="119-321" d="M529.23,-1152.53,514.94,-1199.01"/>
<path data-id="120-131" d="M1580.18,-572.83,1542.88,-518.23"/>
<path data-id="120-146" d="M1580.18,-572.83,1615.83,-602.93"/>
<path data-id="120-240" d="M1580.18,-572.83,1612.93,-526.31"/>
<path data-id="120-347" d="M1580.18,-572.83,1536.02,-653.38"/>
<path data-id="121-186" d="M1737.93,-357.13,1778.13,-293.13"/>
<path data-id="122-124" d="M1277.42,-1200.94,1183.77,-1209.65"/>
<path data-id="122-147" d="M1277.42,-1200.94,1336.42,-1082.88"/>
<path data-id="123-222" d="M258.16,-260.16,243.58,-304.67"/>
<path data-id="123-312" d="M258.16,-260.16,235.85,-224.75"/>
<path data-id="124-157" d="M1183.77,-1209.65,1109.87,-1161.32"/>
<path data-id="124-286" d="M1183.77,-1209.65,1045.42,-1270.35"/>
<path data-id="125-182" d="M441.75,-1574.13,474.29,-1493.75"/>
<path data-id="125-269" d="M441.75,-1574.13,353.73,-1757.06"/>
<path data-id="125-273" d="M441.75,-1574.13,518.79,-1629.29"/>
<path data-id="126-220" d="M93.54,-1593.31,76.61,-1502.23"/>
<path data-id="126-244" d="M93.54,-1593.31,38.45,-1550.49"/>
<path data-id="126-245" d="M93.54,-1593.31,151.18,-1558.65"/>
<path data-id="127-129" d="M1537.13,-1165.53,1380.87,-1244.32"/>
<path data-id="127-147" d="M1537.13,-1165.53,1336.42,-1082.88"/>
<path data-id="127-204" d="M1537.13,-1165.53,1543.50,-929.44"/>
<path data-id="127-343" d="M1537.13,-1165.53,1588.43,-1182.60"/>
<path data-id="128-175" d="M815.32,-881.43,829.74,-935.06"/>
<path data-id="128-325" d="M815.32,-881.43,815.48,-827.54"/>
<path data-id="129-147" d="M1380.87,-1244.32,1336.42,-1082.88"/>
<path data-id="129-225" d="M1380.87,-1244.32,1371.65,-1279.68"/>
<path data-id="130-170" d="M175.68,-838.62,360.20,-949.64"/>
<path data-id="130-276" d="M175.68,-838.62,195.82,-794.21"/>
<path data-id="130-333" d="M175.68,-838.62,106.69,-844.95"/>
<path data-id="131-158" d="M1542.88,-518.23,1616.91,-445.24"/>
<path data-id="131-214" d="M1542.88,-518.23,1534.35,-387.14"/>
<path data-id="131-240" d="M1542.88,-518.23,1612.93,-526.31"/>
<path data-id="132-187" d="M1299.35,-1744.34,1213.18,-1714.65"/>
<path data-id="132-287" d="M1299.35,-1744.34,1304.01,-1827.29"/>
<path data-id="132-309" d="M1299.35,-1744.34,1183.35,-1809.09"/>
<path data-id="133-143" d="M223.41,-1058.89,239.07,-1153.49"/>
<path data-id="133-281" d="M223.41,-1058.89,170.97,-1075.44"/>
<path data-id="134-280" d="M1068.43,-607.67,1000.70,-637.34"/>
<path data-id="134-290" d="M1068.43,-607.67,1050.72,-586.51"/>
<path data-id="134-338" d="M1068.43,-607.67,1121.31,-589.17"/>
<path data-id="135-247" d="M1626.70,-1258.67,1689.53,-1244.42"/>
<path data-id="135-343" d="M1626.70,-1258.67,1588.43,-1182.60"/>
<path data-id="135-349" d="M1626.70,-1258.67,1590.78,-1285.79"/>
<path data-id="136-228" d="M878.04,-384.26,854.22,-325.87"/>
<path data-id="136-250" d="M878.04,-384.26,965.74,-360.60"/>
<path data-id="138-266" d="M582.42,-627.56,540.39,-660.60"/>
<path data-id="138-267" d="M582.42,-627.56,609.29,-673.88"/>
<path data-id="139-174" d="M1721.01,-1684.14,1855.46,-1643.25"/>
<path data-id="139-179" d="M1721.01,-1684.14,1721.42,-1640.66"/>
<path data-id="139-279" d="M1721.01,-1684.14,1686.12,-1717.10"/>
<path data-id="140-183" d="M454.81,-410.26,413.63,-451.15"/>
<path data-id="140-236" d="M454.81,-410.26,376.33,-338.63"/>
<path data-id="140-272" d="M454.81,-410.26,479.42,-451.34"/>
<path data-id="141-173" d="M964.16,-280.55,1052.55,-314.31"/>
<path data-id="141-250" d="M964.16,-280.55,965.74,-360.60"/>
<path data-id="142-214" d="M1400.75,-498.92,1534.35,-387.14"/>
<path data-id="142-221" d="M1400.75,-498.92,1387.84,-346.59"/>
<path data-id="142-324" d="M1400.75,-498.92,1453.74,-546.89"/>
<path data-id="143-207" d="M239.07,-1153.49,267.08,-1153.39"/>
<path data-id="143-281" d="M239.07,-1153.49,170.97,-1075.44"/>
<path data-id="143-301" d="M239.07,-1153.49,178.30,-1160.10"/>
<path data-id="143-310" d="M239.07,-1153.49,239.83,-1180.96"/>
<path data-id="144-282" d="M1467.19,-735.49,1390.15,-772.46"/>
<path data-id="144-315" d="M1467.19,-735.49,1511.36,-887.03"/>
<path data-id="144-347" d="M1467.19,-735.49,1536.02,-653.38"/>
<path data-id="145-215" d="M654.19,-473.30,696.14,-479.35"/>
<path data-id="145-318" d="M654.19,-473.30,655.25,-392.14"/>
<path data-id="146-347" d="M1615.83,-602.93,1536.02,-653.38"/>
<path data-id="147-248" d="M1336.42,-1082.88,1293.26,-997.95"/>
<path data-id="148-242" d="M605.90,-54.93,696.23,-7.31"/>
<path data-id="148-348" d="M605.90,-54.93,456.76,-84.16"/>
<path data-id="149-215" d="M746.13,-472.27,696.14,-479.35"/>
<path data-id="149-304" d="M746.13,-472.27,697.51,-388.35"/>
<path data-id="150-157" d="M1022.53,-1138.06,1109.87,-1161.32"/>
<path data-id="150-160" d="M1022.53,-1138.06,1091.37,-1031.10"/>
<path data-id="150-190" d="M1022.53,-1138.06,910.53,-1059.54"/>
<path data-id="150-270" d="M1022.53,-1138.06,911.52,-1182.06"/>
<path data-id="150-286" d="M1022.53,-1138.06,1045.42,-1270.35"/>
<path data-id="151-178" d="M1574.28,-203.36,1740.15,-21.68"/>
<path data-id="151-261" d="M1574.28,-203.36,1437.07,-1.75"/>
<path data-id="151-331" d="M1574.28,-203.36,1532.49,-274.55"/>
<path data-id="151-345" d="M1574.28,-203.36,1599.26,-255.28"/>
<path data-id="152-203" d="M134.81,-1343.42,157.56,-1289.47"/>
<path data-id="152-208" d="M134.81,-1343.42,92.60,-1415.21"/>
<path data-id="152-209" d="M134.81,-1343.42,169.02,-1396.21"/>
<path data-id="152-288" d="M134.81,-1343.42,74.71,-1277.74"/>
<path data-id="152-295" d="M134.81,-1343.42,58.33,-1313.24"/>
<path data-id="153-160" d="M1207.35,-934.07,1091.37,-1031.10"/>
<path data-id="153-224" d="M1207.35,-934.07,1241.37,-900.42"/>
<path data-id="153-248" d="M1207.35,-934.07,1293.26,-997.95"/>
<path data-id="154-155" d="M273.36,-679.17,292.60,-619.93"/>
<path data-id="156-165" d="M752.11,-1667.31,732.94,-1545.90"/>
<path data-id="156-314" d="M752.11,-1667.31,672.75,-1688.52"/>
<path data-id="157-160" d="M1109.87,-1161.32,1091.37,-1031.10"/>
<path data-id="157-286" d="M1109.87,-1161.32,1045.42,-1270.35"/>
<path data-id="158-214" d="M1616.91,-445.24,1534.35,-387.14"/>
<path data-id="158-223" d="M1616.91,-445.24,1650.54,-476.55"/>
<path data-id="159-199" d="M508.17,-1103.32,434.31,-1129.70"/>
<path data-id="159-271" d="M508.17,-1103.32,492.20,-1004.61"/>
<path data-id="160-190" d="M1091.37,-1031.10,910.53,-1059.54"/>
<path data-id="160-291" d="M1091.37,-1031.10,933.50,-941.16"/>
<path data-id="161-218" d="M105.41,-561.11,74.00,-496.26"/>
<path data-id="161-263" d="M105.41,-561.11,159.01,-461.39"/>
<path data-id="161-294" d="M105.41,-561.11,67.61,-768.60"/>
<path data-id="162-213" d="M192.03,-193.65,226.31,-153.81"/>
<path data-id="162-238" d="M192.03,-193.65,94.90,-101.87"/>
<path data-id="162-312" d="M192.03,-193.65,235.85,-224.75"/>
<path data-id="163-332" d="M146.93,-1756.15,106.51,-1722.90"/>
<path data-id="164-201" d="M1340.91,-1855.57,1420.23,-1745.08"/>
<path data-id="164-252" d="M1340.91,-1855.57,1463.49,-1848.18"/>
<path data-id="164-287" d="M1340.91,-1855.57,1304.01,-1827.29"/>
<path data-id="165-167" d="M732.94,-1545.90,782.26,-1557.58"/>
<path data-id="165-205" d="M732.94,-1545.90,702.47,-1550.50"/>
<path data-id="166-211" d="M725.88,-1095.16,803.05,-1044.74"/>
<path data-id="166-231" d="M725.88,-1095.16,661.27,-1025.32"/>
<path data-id="166-285" d="M725.88,-1095.16,707.88,-998.49"/>
<path data-id="166-328" d="M725.88,-1095.16,706.29,-1144.96"/>
<path data-id="167-278" d="M782.26,-1557.58,976.19,-1332.76"/>
<path data-id="168-169" d="M1827.71,-1333.70,1839.85,-1462.13"/>
<path data-id="170-327" d="M360.20,-949.64,462.26,-940.89"/>
<path data-id="171-243" d="M1019.56,-1350.57,1032.75,-1464.74"/>
<path data-id="171-278" d="M1019.56,-1350.57,976.19,-1332.76"/>
<path data-id="171-286" d="M1019.56,-1350.57,1045.42,-1270.35"/>
<path data-id="171-297" d="M1019.56,-1350.57,1179.51,-1415.78"/>
<path data-id="172-243" d="M1005.63,-1569.14,1032.75,-1464.74"/>
<path data-id="173-250" d="M1052.55,-314.31,965.74,-360.60"/>
<path data-id="173-308" d="M1052.55,-314.31,1089.55,-274.36"/>
<path data-id="174-179" d="M1855.46,-1643.25,1721.42,-1640.66"/>
<path data-id="175-219" d="M829.74,-935.06,803.13,-1012.00"/>
<path data-id="175-291" d="M829.74,-935.06,933.50,-941.16"/>
<path data-id="176-187" d="M1145.65,-1734.40,1213.18,-1714.65"/>
<path data-id="176-200" d="M1145.65,-1734.40,1077.83,-1780.63"/>
<path data-id="176-229" d="M1145.65,-1734.40,1158.07,-1602.71"/>
<path data-id="176-309" d="M1145.65,-1734.40,1183.35,-1809.09"/>
<path data-id="177-264" d="M1151.78,-156.36,1252.63,-128.20"/>
<path data-id="177-305" d="M1151.78,-156.36,1150.61,-4.76"/>
<path data-id="177-308" d="M1151.78,-156.36,1089.55,-274.36"/>
<path data-id="178-261" d="M1740.15,-21.68,1437.07,-1.75"/>
<path data-id="178-298" d="M1740.15,-21.68,1818.44,-18.09"/>
<path data-id="179-319" d="M1721.42,-1640.66,1679.93,-1611.87"/>
<path data-id="180-280" d="M968.99,-698.39,1000.70,-637.34"/>
<path data-id="180-322" d="M968.99,-698.39,956.06,-761.91"/>
<path data-id="181-326" d="M302.41,-1354.18,277.39,-1378.69"/>
<path data-id="182-227" d="M474.29,-1493.75,522.80,-1373.91"/>
<path data-id="183-236" d="M413.63,-451.15,376.33,-338.63"/>
<path data-id="183-272" d="M413.63,-451.15,479.42,-451.34"/>
<path data-id="183-307" d="M413.63,-451.15,439.36,-562.28"/>
<path data-id="183-330" d="M413.63,-451.15,340.24,-489.02"/>
<path data-id="184-333" d="M53.12,-931.33,106.69,-844.95"/>
<path data-id="185-273" d="M524.58,-1745.58,518.79,-1629.29"/>
<path data-id="185-283" d="M524.58,-1745.58,380.62,-1813.78"/>
<path data-id="186-300" d="M1778.13,-293.13,1713.76,-251.55"/>
<path data-id="187-229" d="M1213.18,-1714.65,1158.07,-1602.71"/>
<path data-id="187-309" d="M1213.18,-1714.65,1183.35,-1809.09"/>
<path data-id="187-337" d="M1213.18,-1714.65,1254.89,-1634.83"/>
<path data-id="188-191" d="M730.71,-1384.15,603.89,-1238.55"/>
<path data-id="188-194" d="M730.71,-1384.15,647.60,-1441.33"/>
<path data-id="188-256" d="M730.71,-1384.15,922.54,-1296.89"/>
<path data-id="189-200" d="M974.93,-1766.44,1077.83,-1780.63"/>
<path data-id="190-270" d="M910.53,-1059.54,911.52,-1182.06"/>
<path data-id="190-291" d="M910.53,-1059.54,933.50,-941.16"/>
<path data-id="190-341" d="M910.53,-1059.54,863.37,-1068.83"/>
<path data-id="191-194" d="M603.89,-1238.55,647.60,-1441.33"/>
<path data-id="191-227" d="M603.89,-1238.55,522.80,-1373.91"/>
<path data-id="191-239" d="M603.89,-1238.55,618.33,-1128.04"/>
<path data-id="191-321" d="M603.89,-1238.55,514.94,-1199.01"/>
<path data-id="191-328" d="M603.89,-1238.55,706.29,-1144.96"/>
<path data-id="192-223" d="M1691.46,-488.64,1650.54,-476.55"/>
<path data-id="193-322" d="M951.49,-789.07,956.06,-761.91"/>
<path data-id="193-325" d="M951.49,-789.07,815.48,-827.54"/>
<path data-id="194-227" d="M647.60,-1441.33,522.80,-1373.91"/>
<path data-id="195-323" d="M1629.41,-1316.46,1717.97,-1349.90"/>
<path data-id="195-349" d="M1629.41,-1316.46,1590.78,-1285.79"/>
<path data-id="196-225" d="M1415.74,-1432.78,1371.65,-1279.68"/>
<path data-id="196-259" d="M1415.74,-1432.78,1379.17,-1526.57"/>
<path data-id="196-296" d="M1415.74,-1432.78,1317.13,-1315.18"/>
<path data-id="196-336" d="M1415.74,-1432.78,1525.18,-1333.85"/>
<path data-id="196-342" d="M1415.74,-1432.78,1343.58,-1451.99"/>
<path data-id="197-199" d="M332.79,-1173.78,434.31,-1129.70"/>
<path data-id="197-207" d="M332.79,-1173.78,267.08,-1153.39"/>
<path data-id="197-230" d="M332.79,-1173.78,408.67,-1265.41"/>
<path data-id="199-230" d="M434.31,-1129.70,408.67,-1265.41"/>
<path data-id="199-321" d="M434.31,-1129.70,514.94,-1199.01"/>
<path data-id="200-309" d="M1077.83,-1780.63,1183.35,-1809.09"/>
<path data-id="201-237" d="M1420.23,-1745.08,1381.85,-1717.83"/>
<path data-id="201-252" d="M1420.23,-1745.08,1463.49,-1848.18"/>
<path data-id="202-335" d="M740.90,-614.69,679.74,-678.56"/>
<path data-id="203-288" d="M157.56,-1289.47,74.71,-1277.74"/>
<path data-id="203-310" d="M157.56,-1289.47,239.83,-1180.96"/>
<path data-id="204-315" d="M1543.50,-929.44,1511.36,-887.03"/>
<path data-id="204-334" d="M1543.50,-929.44,1573.18,-871.14"/>
<path data-id="205-314" d="M702.47,-1550.50,672.75,-1688.52"/>
<path data-id="206-224" d="M1335.94,-948.31,1241.37,-900.42"/>
<path data-id="206-248" d="M1335.94,-948.31,1293.26,-997.95"/>
<path data-id="206-282" d="M1335.94,-948.31,1390.15,-772.46"/>
<path data-id="207-310" d="M267.08,-1153.39,239.83,-1180.96"/>
<path data-id="208-220" d="M92.60,-1415.21,76.61,-1502.23"/>
<path data-id="208-262" d="M92.60,-1415.21,156.27,-1435.49"/>
<path data-id="208-316" d="M92.60,-1415.21,50.89,-1491.87"/>
<path data-id="209-262" d="M169.02,-1396.21,156.27,-1435.49"/>
<path data-id="210-261" d="M1384.33,-204.61,1437.07,-1.75"/>
<path data-id="210-264" d="M1384.33,-204.61,1252.63,-128.20"/>
<path data-id="210-331" d="M1384.33,-204.61,1532.49,-274.55"/>
<path data-id="211-219" d="M803.05,-1044.74,803.13,-1012.00"/>
<path data-id="211-341" d="M803.05,-1044.74,863.37,-1068.83"/>
<path data-id="212-249" d="M372.43,-82.65,393.18,-154.46"/>
<path data-id="212-348" d="M372.43,-82.65,456.76,-84.16"/>
<path data-id="213-312" d="M226.31,-153.81,235.85,-224.75"/>
<path data-id="214-221" d="M1534.35,-387.14,1387.84,-346.59"/>
<path data-id="214-235" d="M1534.35,-387.14,1602.86,-284.59"/>
<path data-id="214-331" d="M1534.35,-387.14,1532.49,-274.55"/>
<path data-id="215-304" d="M696.14,-479.35,697.51,-388.35"/>
<path data-id="216-293" d="M1835.41,-885.76,1649.84,-811.41"/>
<path data-id="216-343" d="M1835.41,-885.76,1588.43,-1182.60"/>
<path data-id="217-222" d="M301.67,-418.98,243.58,-304.67"/>
<path data-id="217-236" d="M301.67,-418.98,376.33,-338.63"/>
<path data-id="217-263" d="M301.67,-418.98,159.01,-461.39"/>
<path data-id="217-330" d="M301.67,-418.98,340.24,-489.02"/>
<path data-id="219-285" d="M803.13,-1012.00,707.88,-998.49"/>
<path data-id="220-244" d="M76.61,-1502.23,38.45,-1550.49"/>
<path data-id="220-245" d="M76.61,-1502.23,151.18,-1558.65"/>
<path data-id="220-262" d="M76.61,-1502.23,156.27,-1435.49"/>
<path data-id="220-316" d="M76.61,-1502.23,50.89,-1491.87"/>
<path data-id="221-289" d="M1387.84,-346.59,1339.79,-350.63"/>
<path data-id="221-331" d="M1387.84,-346.59,1532.49,-274.55"/>
<path data-id="222-236" d="M243.58,-304.67,376.33,-338.63"/>
<path data-id="224-248" d="M1241.37,-900.42,1293.26,-997.95"/>
<path data-id="224-282" d="M1241.37,-900.42,1390.15,-772.46"/>
<path data-id="225-296" d="M1371.65,-1279.68,1317.13,-1315.18"/>
<path data-id="225-336" d="M1371.65,-1279.68,1525.18,-1333.85"/>
<path data-id="226-289" d="M1323.79,-301.93,1339.79,-350.63"/>
<path data-id="226-302" d="M1323.79,-301.93,1337.19,-279.51"/>
<path data-id="229-337" d="M1158.07,-1602.71,1254.89,-1634.83"/>
<path data-id="229-339" d="M1158.07,-1602.71,1147.79,-1576.69"/>
<path data-id="230-321" d="M408.67,-1265.41,514.94,-1199.01"/>
<path data-id="231-239" d="M661.27,-1025.32,618.33,-1128.04"/>
<path data-id="231-285" d="M661.27,-1025.32,707.88,-998.49"/>
<path data-id="231-311" d="M661.27,-1025.32,644.63,-990.08"/>
<path data-id="233-279" d="M1715.47,-1860.93,1686.12,-1717.10"/>
<path data-id="234-258" d="M505.54,-273.28,428.05,-270.34"/>
<path data-id="235-300" d="M1602.86,-284.59,1713.76,-251.55"/>
<path data-id="235-331" d="M1602.86,-284.59,1532.49,-274.55"/>
<path data-id="235-345" d="M1602.86,-284.59,1599.26,-255.28"/>
<path data-id="236-258" d="M376.33,-338.63,428.05,-270.34"/>
<path data-id="239-328" d="M618.33,-1128.04,706.29,-1144.96"/>
<path data-id="241-246" d="M615.28,-828.34,611.65,-882.89"/>
<path data-id="241-254" d="M615.28,-828.34,528.90,-821.00"/>
<path data-id="241-274" d="M615.28,-828.34,626.85,-727.79"/>
<path data-id="241-299" d="M615.28,-828.34,585.54,-727.57"/>
<path data-id="241-325" d="M615.28,-828.34,815.48,-827.54"/>
<path data-id="243-297" d="M1032.75,-1464.74,1179.51,-1415.78"/>
<path data-id="243-339" d="M1032.75,-1464.74,1147.79,-1576.69"/>
<path data-id="244-316" d="M38.45,-1550.49,50.89,-1491.87"/>
<path data-id="245-262" d="M151.18,-1558.65,156.27,-1435.49"/>
<path data-id="247-323" d="M1689.53,-1244.42,1717.97,-1349.90"/>
<path data-id="249-258" d="M393.18,-154.46,428.05,-270.34"/>
<path data-id="249-348" d="M393.18,-154.46,456.76,-84.16"/>
<path data-id="251-255" d="M284.65,-1612.23,226.54,-1714.81"/>
<path data-id="251-269" d="M284.65,-1612.23,353.73,-1757.06"/>
<path data-id="253-306" d="M1320.38,-1621.99,1318.67,-1572.04"/>
<path data-id="253-337" d="M1320.38,-1621.99,1254.89,-1634.83"/>
<path data-id="254-299" d="M528.90,-821.00,585.54,-727.57"/>
<path data-id="255-268" d="M226.54,-1714.81,274.50,-1792.69"/>
<path data-id="256-278" d="M922.54,-1296.89,976.19,-1332.76"/>
<path data-id="257-280" d="M989.02,-537.32,1000.70,-637.34"/>
<path data-id="257-290" d="M989.02,-537.32,1050.72,-586.51"/>
<path data-id="259-306" d="M1379.17,-1526.57,1318.67,-1572.04"/>
<path data-id="259-342" d="M1379.17,-1526.57,1343.58,-1451.99"/>
<path data-id="260-305" d="M975.26,-41.97,1150.61,-4.76"/>
<path data-id="261-264" d="M1437.07,-1.75,1252.63,-128.20"/>
<path data-id="264-302" d="M1252.63,-128.20,1337.19,-279.51"/>
<path data-id="264-305" d="M1252.63,-128.20,1150.61,-4.76"/>
<path data-id="265-293" d="M1622.61,-798.61,1649.84,-811.41"/>
<path data-id="265-347" d="M1622.61,-798.61,1536.02,-653.38"/>
<path data-id="266-267" d="M540.39,-660.60,609.29,-673.88"/>
<path data-id="266-299" d="M540.39,-660.60,585.54,-727.57"/>
<path data-id="267-274" d="M609.29,-673.88,626.85,-727.79"/>
<path data-id="267-299" d="M609.29,-673.88,585.54,-727.57"/>
<path data-id="267-335" d="M609.29,-673.88,679.74,-678.56"/>
<path data-id="268-269" d="M274.50,-1792.69,353.73,-1757.06"/>
<path data-id="269-283" d="M353.73,-1757.06,380.62,-1813.78"/>
<path data-id="270-286" d="M911.52,-1182.06,1045.42,-1270.35"/>
<path data-id="270-341" d="M911.52,-1182.06,863.37,-1068.83"/>
<path data-id="271-340" d="M492.20,-1004.61,473.48,-979.61"/>
<path data-id="272-307" d="M479.42,-451.34,439.36,-562.28"/>
<path data-id="273-314" d="M518.79,-1629.29,672.75,-1688.52"/>
<path data-id="274-299" d="M626.85,-727.79,585.54,-727.57"/>
<path data-id="274-335" d="M626.85,-727.79,679.74,-678.56"/>
<path data-id="278-286" d="M976.19,-1332.76,1045.42,-1270.35"/>
<path data-id="280-290" d="M1000.70,-637.34,1050.72,-586.51"/>
<path data-id="281-301" d="M170.97,-1075.44,178.30,-1160.10"/>
<path data-id="282-315" d="M1390.15,-772.46,1511.36,-887.03"/>
<path data-id="285-303" d="M707.88,-998.49,706.21,-947.59"/>
<path data-id="285-311" d="M707.88,-998.49,644.63,-990.08"/>
<path data-id="288-295" d="M74.71,-1277.74,58.33,-1313.24"/>
<path data-id="292-296" d="M1218.00,-1340.54,1317.13,-1315.18"/>
<path data-id="292-297" d="M1218.00,-1340.54,1179.51,-1415.78"/>
<path data-id="292-342" d="M1218.00,-1340.54,1343.58,-1451.99"/>
<path data-id="294-333" d="M67.61,-768.60,106.69,-844.95"/>
<path data-id="296-342" d="M1317.13,-1315.18,1343.58,-1451.99"/>
<path data-id="298-344" d="M1818.44,-18.09,1865.24,-84.49"/>
<path data-id="300-345" d="M1713.76,-251.55,1599.26,-255.28"/>
<path data-id="301-310" d="M178.30,-1160.10,239.83,-1180.96"/>
<path data-id="303-311" d="M706.21,-947.59,644.63,-990.08"/>
<path data-id="304-318" d="M697.51,-388.35,655.25,-392.14"/>
<path data-id="307-330" d="M439.36,-562.28,340.24,-489.02"/>
<path data-id="313-344" d="M1829.00,-178.47,1865.24,-84.49"/>
<path data-id="315-334" d="M1511.36,-887.03,1573.18,-871.14"/>
<path data-id="320-346" d="M14.84,-1838.51,38.85,-1786.33"/>
<path data-id="327-340" d="M462.26,-940.89,473.48,-979.61"/>
<path data-id="331-345" d="M1532.49,-274.55,1599.26,-255.28"/>
<path data-id="332-346" d="M106.51,-1722.90,38.85,-1786.33"/>
<path data-id="336-349" d="M1525.18,-1333.85,1590.78,-1285.79"/>
<circle data-id="0" cx="187.41" cy="-228.35" r="10.00px"/>
<text data-id="0" x="187.41" y="-228.35">R0</text>
<circle data-id="1" cx="841.45" cy="-1831.04" r="10.00px"/>
<text data-id="1" x="841.45" y="-1831.04">R1</text>
<circle data-id="2" cx="219.00" cy="-1565.46" r="10.00px"/>
<text data-id="2" x="219.00" y="-1565.46">R2</text>
<circle data-id="3" cx="157.50" cy="-284.84" r="10.00px"/>
<text data-id="3" x="157.50" y="-284.84">R3</text>
<circle data-id="4" cx="745.99" cy="-1713.51" r="10.00px"/>
<text data-id="4" x="745.99" y="-1713.51">R4</text>
<circle data-id="5" cx="1654.43" cy="-514.24" r="10.00px"/>
<text data-id="5" x="1654.43" y="-514.24">R5</text>
<circle data-id="6" cx="495.39" cy="-883.92" r="10.00px"/>
<text data-id="6" x="495.39" y="-883.92">R6</text>
<circle data-id="7" cx="231.49" cy="-1351.05" r="10.00px"/>
<text data-id="7" x="231.49" y="-1351.05">R7</text>
<circle data-id="8" cx="910.11" cy="-1641.47" r="10.00px"/>
<text data-id="8" x="910.11" y="-1641.47">R8</text>
<circle data-id="9" cx="191.31" cy="-1717.32" r="10.00px"/>
<text data-id="9" x="191.31" y="-1717.32">R9</text>
<circle data-id="10" cx="0.38" cy="-21.90" r="10.00px"/>
<text data-id="10" x="0.38" y="-21.90">R10</text>
<circle data-id="11" cx="558.66" cy="-355.27" r="10.00px"/>
<text data-id="11" x="558.66" y="-355.27">R11</text>
<circle data-id="12" cx="982.18" cy="-858.09" r="10.00px"/>
<text data-id="12" x="982.18" y="-858.09">R12</text>
<circle data-id="13" cx="684.76" cy="-340.05" r="10.00px"/>
<text data-id="13" x="684.76" y="-340.05">R13</text>
<circle data-id="14" cx="867.92" cy="-1227.74" r="10.00px"/>
<text data-id="14" x="867.92" y="-1227.74">R14</text>
<circle data-id="15" cx="1821.49" cy="-520.09" r="10.00px"/>
<text data-id="15" x="1821.49" y="-520.09">R15</text>
<circle data-id="16" cx="928.91" cy="-625.04" r="10.00px"/>
<text data-id="16" x="928.91" y="-625.04">R16</text>
<circle data-id="17" cx="1094.49" cy="-481.07" r="10.00px"/>
<text data-id="17" x="1094.49" y="-481.07">R17</text>
<circle data-id="18" cx="44.14" cy="-1353.52" r="10.00px"/>
<text data-id="18" x="44.14" y="-1353.52">R18</text>
<circle data-id="19" cx="430.98" cy="-1469.78" r="10.00px"/>
<text data-id="19" x="430.98" y="-1469.78">R19</text>
<circle data-id="20" cx="1636.29" cy="-1518.01" r="10.00px"/>
<text data-id="20" x="1636.29" y="-1518.01">R20</text>
<circle data-id="21" cx="35.41" cy="-811.31" r="10.00px"/>
<text data-id="21" x="35.41" y="-811.31">R21</text>
<circle data-id="22" cx="1094.91" cy="-1630.10" r="10.00px"/>
<text data-id="22" x="1094.91" y="-1630.10">R22</text>
<circle data-id="23" cx="27.18" cy="-494.67" r="10.00px"/>
<text data-id="23" x="27.18" y="-494.67">R23</text>
<circle data-id="24" cx="711.04" cy="-717.09" r="10.00px"/>
<text data-id="24" x="711.04" y="-717.09">R24</text>
<circle data-id="25" cx="1823.41" cy="-243.82" r="10.00px"/>
<text data-id="25" x="1823.41" y="-243.82">R25</text>
<circle data-id="26" cx="318.97" cy="-1265.30" r="10.00px"/>
<text data-id="26" x="318.97" y="-1265.30">R26</text>
<circle data-id="27" cx="133.86" cy="-356.14" r="10.00px"/>
<text data-id="27" x="133.86" y="-356.14">R27</text>
<circle data-id="28" cx="1331.26" cy="-513.97" r="10.00px"/>
<text data-id="28" x="1331.26" y="-513.97">R28</text>
<circle data-id="29" cx="116.17" cy="-303.14" r="10.00px"/>
<text data-id="29" x="116.17" y="-303.14">R29</text>
<circle data-id="30" cx="156.06" cy="-1008.54" r="10.00px"/>
<text data-id="30" x="156.06" y="-1008.54">R30</text>
<circle data-id="31" cx="1548.91" cy="-1630.87" r="10.00px"/>
<text data-id="31" x="1548.91" y="-1630.87">R31</text>
<circle data-id="32" cx="1308.14" cy="-1239.89" r="10.00px"/>
<text data-id="32" x="1308.14" y="-1239.89">R32</text>
<circle data-id="33" cx="601.69" cy="-187.31" r="10.00px"/>
<text data-id="33" x="601.69" y="-187.31">R33</text>
<circle data-id="34" cx="259.08" cy="-1509.45" r="10.00px"/>
<text data-id="34" x="259.08" y="-1509.45">R34</text>
<circle data-id="35" cx="553.62" cy="-461.28" r="10.00px"/>
<text data-id="35" x="553.62" y="-461.28">R35</text>
<circle data-id="36" cx="22.24" cy="-87.45" r="10.00px"/>
<text data-id="36" x="22.24" y="-87.45">R36</text>
<circle data-id="37" cx="290.80" cy="-52.11" r="10.00px"/>
<text data-id="37" x="290.80" y="-52.11">R37</text>
<circle data-id="38" cx="1286.47" cy="-1540.69" r="10.00px"/>
<text data-id="38" x="1286.47" y="-1540.69">R38</text>
<circle data-id="39" cx="885.81" cy="-308.77" r="10.00px"/>
<text data-id="39" x="885.81" y="-308.77">R39</text>
<circle data-id="40" cx="1651.82" cy="-612.09" r="10.00px"/>
<text data-id="40" x="1651.82" y="-612.09">R40</text>
<circle data-id="41" cx="834.99" cy="-105.30" r="10.00px"/>
<text data-id="41" x="834.99" y="-105.30">R41</text>
<circle data-id="42" cx="44.21" cy="-1658.76" r="10.00px"/>
<text data-id="42" x="44.21" y="-1658.76">R42</text>
<circle data-id="43" cx="546.14" cy="-1511.47" r="10.00px"/>
<text data-id="43" x="546.14" y="-1511.47">R43</text>
<circle data-id="44" cx="1625.84" cy="-848.51" r="10.00px"/>
<text data-id="44" x="1625.84" y="-848.51">R44</text>
<circle data-id="45" cx="1705.37" cy="-367.91" r="10.00px"/>
<text data-id="45" x="1705.37" y="-367.91">R45</text>
<circle data-id="46" cx="1206.02" cy="-1268.15" r="10.00px"/>
<text data-id="46" x="1206.02" y="-1268.15">R46</text>
<circle data-id="47" cx="1314.77" cy="-1701.75" r="10.00px"/>
<text data-id="47" x="1314.77" y="-1701.75">R47</text>
<circle data-id="48" cx="169.64" cy="-1674.29" r="10.00px"/>
<text data-id="48" x="169.64" y="-1674.29">R48</text>
<circle data-id="49" cx="1362.36" cy="-1665.07" r="10.00px"/>
<text data-id="49" x="1362.36" y="-1665.07">R49</text>
<circle data-id="50" cx="994.61" cy="-166.86" r="10.00px"/>
<text data-id="50" x="994.61" y="-166.86">R50</text>
<circle data-id="51" cx="108.57" cy="-1203.41" r="10.00px"/>
<text data-id="51" x="108.57" y="-1203.41">R51</text>
<circle data-id="52" cx="1864.45" cy="-1159.22" r="10.00px"/>
<text data-id="52" x="1864.45" y="-1159.22">R52</text>
<circle data-id="53" cx="787.10" cy="-1861.38" r="10.00px"/>
<text data-id="53" x="787.10" y="-1861.38">R53</text>
<circle data-id="54" cx="242.54" cy="-1803.51" r="10.00px"/>
<text data-id="54" x="242.54" y="-1803.51">R54</text>
<circle data-id="55" cx="308.30" cy="-219.95" r="10.00px"/>
<text data-id="55" x="308.30" y="-219.95">R55</text>
<circle data-id="56" cx="899.68" cy="-423.96" r="10.00px"/>
<text data-id="56" x="899.68" y="-423.96">R56</text>
<circle data-id="57" cx="459.87" cy="-805.86" r="10.00px"/>
<text data-id="57" x="459.87" y="-805.86">R57</text>
<circle data-id="58" cx="1433.39" cy="-940.50" r="10.00px"/>
<text data-id="58" x="1433.39" y="-940.50">R58</text>
<circle data-id="59" cx="1540.93" cy="-1600.02" r="10.00px"/>
<text data-id="59" x="1540.93" y="-1600.02">R59</text>
<circle data-id="60" cx="1771.99" cy="-1839.58" r="10.00px"/>
<text data-id="60" x="1771.99" y="-1839.58">R60</text>
<circle data-id="61" cx="656.96" cy="-632.41" r="10.00px"/>
<text data-id="61" x="656.96" y="-632.41">R61</text>
<circle data-id="62" cx="1687.70" cy="-1517.16" r="10.00px"/>
<text data-id="62" x="1687.70" y="-1517.16">R62</text>
<circle data-id="63" cx="551.89" cy="-237.73" r="10.00px"/>
<text data-id="63" x="551.89" y="-237.73">R63</text>
<circle data-id="64" cx="1578.93" cy="-831.70" r="10.00px"/>
<text data-id="64" x="1578.93" y="-831.70">R64</text>
<circle data-id="65" cx="1792.32" cy="-1467.76" r="10.00px"/>
<text data-id="65" x="1792.32" y="-1467.76">R65</text>
<circle data-id="66" cx="117.24" cy="-1835.53" r="10.00px"/>
<text data-id="66" x="117.24" y="-1835.53">R66</text>
<circle data-id="67" cx="1637.67" cy="-1732.36" r="10.00px"/>
<text data-id="67" x="1637.67" y="-1732.36">R67</text>
<circle data-id="68" cx="785.12" cy="-731.72" r="10.00px"/>
<text data-id="68" x="785.12" y="-731.72">R68</text>
<circle data-id="69" cx="643.64" cy="-1761.59" r="10.00px"/>
<text data-id="69" x="643.64" y="-1761.59">R69</text>
<circle data-id="70" cx="593.68" cy="-359.99" r="10.00px"/>
<text data-id="70" x="593.68" y="-359.99">R70</text>
<circle data-id="71" cx="1116.32" cy="-756.81" r="10.00px"/>
<text data-id="71" x="1116.32" y="-756.81">R71</text>
<circle data-id="72" cx="165.84" cy="-323.54" r="10.00px"/>
<text data-id="72" x="165.84" y="-323.54">R72</text>
<circle data-id="73" cx="774.12" cy="-512.25" r="10.00px"/>
<text data-id="73" x="774.12" y="-512.25">R73</text>
<circle data-id="74" cx="217.23" cy="-123.56" r="10.00px"/>
<text data-id="74" x="217.23" y="-123.56">R74</text>
<circle data-id="75" cx="644.68" cy="-1835.73" r="10.00px"/>
<text data-id="75" x="644.68" y="-1835.73">R75</text>
<circle data-id="76" cx="1239.06" cy="-1481.38" r="10.00px"/>
<text data-id="76" x="1239.06" y="-1481.38">R76</text>
<circle data-id="77" cx="803.76" cy="-1613.43" r="10.00px"/>
<text data-id="77" x="803.76" y="-1613.43">R77</text>
<circle data-id="78" cx="755.15" cy="-304.73" r="10.00px"/>
<text data-id="78" x="755.15" y="-304.73">R78</text>
<circle data-id="79" cx="1214.17" cy="-608.60" r="10.00px"/>
<text data-id="79" x="1214.17" y="-608.60">R79</text>
<circle data-id="80" cx="326.70" cy="-582.98" r="10.00px"/>
<text data-id="80" x="326.70" y="-582.98">R80</text>
<circle data-id="81" cx="1807.77" cy="-454.64" r="10.00px"/>
<text data-id="81" x="1807.77" y="-454.64">R81</text>
<circle data-id="82" cx="1804.64" cy="-1305.02" r="10.00px"/>
<text data-id="82" x="1804.64" y="-1305.02">R82</text>
<circle data-id="83" cx="524.92" cy="-557.18" r="10.00px"/>
<text data-id="83" x="524.92" y="-557.18">R83</text>
<circle data-id="84" cx="215.58" cy="-1431.53" r="10.00px"/>
<text data-id="84" x="215.58" y="-1431.53">R84</text>
<circle data-id="85" cx="785.68" cy="-934.52" r="10.00px"/>
<text data-id="85" x="785.68" y="-934.52">R85</text>
<circle data-id="86" cx="373.64" cy="-1553.80" r="10.00px"/>
<text data-id="86" x="373.64" y="-1553.80">R86</text>
<circle data-id="87" cx="190.98" cy="-266.68" r="10.00px"/>
<text data-id="87" x="190.98" y="-266.68">R87</text>
<circle data-id="88" cx="334.00" cy="-1060.80" r="10.00px"/>
<text data-id="88" x="334.00" y="-1060.80">R88</text>
<circle data-id="89" cx="299.52" cy="-1119.07" r="10.00px"/>
<text data-id="89" x="299.52" y="-1119.07">R89</text>
<circle data-id="90" cx="555.99" cy="-896.06" r="10.00px"/>
<text data-id="90" x="555.99" y="-896.06">R90</text>
<circle data-id="91" cx="476.82" cy="-333.31" r="10.00px"/>
<text data-id="91" x="476.82" y="-333.31">R91</text>
<circle data-id="92" cx="1793.11" cy="-1504.71" r="10.00px"/>
<text data-id="92" x="1793.11" y="-1504.71">R92</text>
<circle data-id="93" cx="662.43" cy="-1505.59" r="10.00px"/>
<text data-id="93" x="662.43" y="-1505.59">R93</text>
<circle data-id="94" cx="404.47" cy="-1316.35" r="10.00px"/>
<text data-id="94" x="404.47" y="-1316.35">R94</text>
<circle data-id="95" cx="454.24" cy="-1338.90" r="10.00px"/>
<text data-id="95" x="454.24" y="-1338.90">R95</text>
<circle data-id="96" cx="798.96" cy="-459.77" r="10.00px"/>
<text data-id="96" x="798.96" y="-459.77">R96</text>
<circle data-id="97" cx="359.28" cy="-53.78" r="10.00px"/>
<text data-id="97" x="359.28" y="-53.78">R97</text>
<circle data-id="98" cx="339.76" cy="-252.01" r="10.00px"/>
<text data-id="98" x="339.76" y="-252.01">R98</text>
<circle data-id="99" cx="274.08" cy="-589.56" r="10.00px"/>
<text data-id="99" x="274.08" y="-589.56">R99</text>
<circle data-id="100" cx="1319.49" cy="-682.15" r="10.00px"/>
<text data-id="100" x="1319.49" y="-682.15">R100</text>
<circle data-id="101" cx="1207.40" cy="-1841.62" r="10.00px"/>
<text data-id="101" x="1207.40" y="-1841.62">R101</text>
<circle data-id="102" cx="1019.03" cy="-521.34" r="10.00px"/>
<text data-id="102" x="1019.03" y="-521.34">R102</text>
<circle data-id="103" cx="1372.94" cy="-249.64" r="10.00px"/>
<text data-id="103" x="1372.94" y="-249.64">R103</text>
<circle data-id="104" cx="23.70" cy="-909.12" r="10.00px"/>
<text data-id="104" x="23.70" y="-909.12">R104</text>
<circle data-id="105" cx="94.29" cy="-453.25" r="10.00px"/>
<text data-id="105" x="94.29" y="-453.25">R105</text>
<circle data-id="106" cx="1510.85" cy="-1750.73" r="10.00px"/>
<text data-id="106" x="1510.85" y="-1750.73">R106</text>
<circle data-id="107" cx="253.72" cy="-527.36" r="10.00px"/>
<text data-id="107" x="253.72" y="-527.36">R107</text>
<circle data-id="108" cx="72.26" cy="-41.08" r="10.00px"/>
<text data-id="108" x="72.26" y="-41.08">R108</text>
<circle data-id="109" cx="49.91" cy="-291.69" r="10.00px"/>
<text data-id="109" x="49.91" y="-291.69">R109</text>
<circle data-id="110" cx="136.18" cy="-905.85" r="10.00px"/>
<text data-id="110" x="136.18" y="-905.85">R110</text>
<circle data-id="111" cx="1638.16" cy="-1284.43" r="10.00px"/>
<text data-id="111" x="1638.16" y="-1284.43">R111</text>
<circle data-id="112" cx="1590.79" cy="-1822.24" r="10.00px"/>
<text data-id="112" x="1590.79" y="-1822.24">R112</text>
<circle data-id="113" cx="177.96" cy="-773.58" r="10.00px"/>
<text data-id="113" x="177.96" y="-773.58">R113</text>
<circle data-id="114" cx="1477.35" cy="-557.49" r="10.00px"/>
<text data-id="114" x="1477.35" y="-557.49">R114</text>
<circle data-id="115" cx="620.74" cy="-952.85" r="10.00px"/>
<text data-id="115" x="620.74" y="-952.85">R115</text>
<circle data-id="116" cx="1783.30" cy="-716.77" r="10.00px"/>
<text data-id="116" x="1783.30" y="-716.77">R116</text>
<circle data-id="117" cx="549.83" cy="-511.23" r="10.00px"/>
<text data-id="117" x="549.83" y="-511.23">R117</text>
<circle data-id="118" cx="1248.72" cy="-390.53" r="10.00px"/>
<text data-id="118" x="1248.72" y="-390.53">R118</text>
<circle data-id="119" cx="529.23" cy="-1152.53" r="10.00px"/>
<text data-id="119" x="529.23" y="-1152.53">R119</text>
<circle data-id="120" cx="1580.18" cy="-572.83" r="10.00px"/>
<text data-id="120" x="1580.18" y="-572.83">R120</text>
<circle data-id="121" cx="1737.93" cy="-357.13" r="10.00px"/>
<text data-id="121" x="1737.93" y="-357.13">R121</text>
<circle data-id="122" cx="1277.42" cy="-1200.94" r="10.00px"/>
<text data-id="122" x="1277.42" y="-1200.94">R122</text>
<circle data-id="123" cx="258.16" cy="-260.16" r="10.00px"/>
<text data-id="123" x="258.16" y="-260.16">R123</text>
<circle data-id="124" cx="1183.77" cy="-1209.65" r="10.00px"/>
<text data-id="124" x="1183.77" y="-1209.65">R124</text>
<circle data-id="125" cx="441.75" cy="-1574.13" r="10.00px"/>
<text data-id="125" x="441.75" y="-1574.13">R125</text>
<circle data-id="126" cx="93.54" cy="-1593.31" r="10.00px"/>
<text data-id="126" x="93.54" y="-1593.31">R126</text>
<circle data-id="127" cx="1537.13" cy="-1165.53" r="10.00px"/>
<text data-id="127" x="1537.13" y="-1165.53">R127</text>
<circle data-id="128" cx="815.32" cy="-881.43" r="10.00px"/>
<text data-id="128" x="815.32" y="-881.43">R128</text>
<circle data-id="129" cx="1380.87" cy="-1244.32" r="10.00px"/>
<text data-id="129" x="1380.87" y="-1244.32">R129</text>
<circle data-id="130" cx="175.68" cy="-838.62" r="10.00px"/>
<text data-id="130" x="175.68" y="-838.62">R130</text>
<circle data-id="131" cx="1542.88" cy="-518.23" r="10.00px"/>
<text data-id="131" x="1542.88" y="-518.23">R131</text>
<circle data-id="132" cx="1299.35" cy="-1744.34" r="10.00px"/>
<text data-id="132" x="1299.35" y="-1744.34">R132</text>
<circle data-id="133" cx="223.41" cy="-1058.89" r="10.00px"/>
<text data-id="133" x="223.41" y="-1058.89">R133</text>
<circle data-id="134" cx="1068.43" cy="-607.67" r="10.00px"/>
<text data-id="134" x="1068.43" y="-607.67">R134</text>
<circle data-id="135" cx="1626.70" cy="-1258.67" r="10.00px"/>
<text data-id="135" x="1626.70" y="-1258.67">R135</text>
<circle data-id="136" cx="878.04" cy="-384.26" r="10.00px"/>
<text data-id="136" x="878.04" y="-384.26">R136</text>
<circle data-id="137" cx="108.70" cy="-350.63" r="10.00px"/>
<text data-id="137" x="108.70" y="-350.63">R137</text>
<circle data-id="138" cx="582.42" cy="-627.56" r="10.00px"/>
<text data-id="138" x="582.42" y="-627.56">R138</text>
<circle data-id="139" cx="1721.01" cy="-1684.14" r="10.00px"/>
<text data-id="139" x="1721.01" y="-1684.14">R139</text>
<circle data-id="140" cx="454.81" cy="-410.26" r="10.00px"/>
<text data-id="140" x="454.81" y="-410.26">R140</text>
<circle data-id="141" cx="964.16" cy="-280.55" r="10.00px"/>
<text data-id="141" x="964.16" y="-280.55">R141</text>
<circle data-id="142" cx="1400.75" cy="-498.92" r="10.00px"/>
<text data-id="142" x="1400.75" y="-498.92">R142</text>
<circle data-id="143" cx="239.07" cy="-1153.49" r="10.00px"/>
<text data-id="143" x="239.07" y="-1153.49">R143</text>
<circle data-id="144" cx="1467.19" cy="-735.49" r="10.00px"/>
<text data-id="144" x="1467.19" y="-735.49">R144</text>
<circle data-id="145" cx="654.19" cy="-473.30" r="10.00px"/>
<text data-id="145" x="654.19" y="-473.30">R145</text>
<circle data-id="146" cx="1615.83" cy="-602.93" r="10.00px"/>
<text data-id="146" x="1615.83" y="-602.93">R146</text>
<circle data-id="147" cx="1336.42" cy="-1082.88" r="10.00px"/>
<text data-id="147" x="1336.42" y="-1082.88">R147</text>
<circle data-id="148" cx="605.90" cy="-54.93" r="10.00px"/>
<text data-id="148" x="605.90" y="-54.93">R148</text>
<circle data-id="149" cx="746.13" cy="-472.27" r="10.00px"/>
<text data-id="149" x="746.13" y="-472.27">R149</text>
<circle data-id="150" cx="1022.53" cy="-1138.06" r="10.00px"/>
<text data-id="150" x="1022.53" y="-1138.06">R150</text>
<circle data-id="151" cx="1574.28" cy="-203.36" r="10.00px"/>
<text data-id="151" x="1574.28" y="-203.36">R151</text>
<circle data-id="152" cx="134.81" cy="-1343.42" r="10.00px"/>
<text data-id="152" x="134.81" y="-1343.42">R152</text>
<circle data-id="153" cx="1207.35" cy="-934.07" r="10.00px"/>
<text data-id="153" x="1207.35" y="-934.07">R153</text>
<circle data-id="154" cx="273.36" cy="-679.17" r="10.00px"/>
<text data-id="154" x="273.36" y="-679.17">R154</text>
<circle data-id="155" cx="292.60" cy="-619.93" r="10.00px"/>
<text data-id="155" x="292.60" y="-619.93">R155</text>
<circle data-id="156" cx="752.11" cy="-1667.31" r="10.00px"/>
<text data-id="156" x="752.11" y="-1667.31">R156</text>
<circle data-id="157" cx="1109.87" cy="-1161.32" r="10.00px"/>
<text data-id="157" x="1109.87" y="-1161.32">R157</text>
<circle data-id="158" cx="1616.91" cy="-445.24" r="10.00px"/>
<text data-id="158" x="1616.91" y="-445.24">R158</text>
<circle data-id="159" cx="508.17" cy="-1103.32" r="10.00px"/>
<text data-id="159" x="508.17" y="-1103.32">R159</text>
<circle data-id="160" cx="1091.37" cy="-1031.10" r="10.00px"/>
<text data-id="160" x="1091.37" y="-1031.10">R160</text>
<circle data-id="161" cx="105.41" cy="-561.11" r="10.00px"/>
<text data-id="161" x="105.41" y="-561.11">R161</text>
<circle data-id="162" cx="192.03" cy="-193.65" r="10.00px"/>
<text data-id="162" x="192.03" y="-193.65">R162</text>
<circle data-id="163" cx="146.93" cy="-1756.15" r="10.00px"/>
<text data-id="163" x="146.93" y="-1756.15">R163</text>
<circle data-id="164" cx="1340.91" cy="-1855.57" r="10.00px"/>
<text data-id="164" x="1340.91" y="-1855.57">R164</text>
<circle data-id="165" cx="732.94" cy="-1545.90" r="10.00px"/>
<text data-id="165" x="732.94" y="-1545.90">R165</text>
<circle data-id="166" cx="725.88" cy="-1095.16" r="10.00px"/>
<text data-id="166" x="725.88" y="-1095.16">R166</text>
<circle data-id="167" cx="782.26" cy="-1557.58" r="10.00px"/>
<text data-id="167" x="782.26" y="-1557.58">R167</text>
<circle data-id="168" cx="1827.71" cy="-1333.70" r="10.00px"/>
<text data-id="168" x="1827.71" y="-1333.70">R168</text>
<circle data-id="169" cx="1839.85" cy="-1462.13" r="10.00px"/>
<text data-id="169" x="1839.85" y="-1462.13">R169</text>
<circle data-id="170" cx="360.20" cy="-949.64" r="10.00px"/>
<text data-id="170" x="360.20" y="-949.64">R170</text>
<circle data-id="171" cx="1019.56" cy="-1350.57" r="10.00px"/>
<text data-id="171" x="1019.56" y="-1350.57">R171</text>
<circle data-id="172" cx="1005.63" cy="-1569.14" r="10.00px"/>
<text data-id="172" x="1005.63" y="-1569.14">R172</text>
<circle data-id="173" cx="1052.55" cy="-314.31" r="10.00px"/>
<text data-id="173" x="1052.55" y="-314.31">R173</text>
<circle data-id="174" cx="1855.46" cy="-1643.25" r="10.00px"/>
<text data-id="174" x="1855.46" y="-1643.25">R174</text>
<circle data-id="175" cx="829.74" cy="-935.06" r="10.00px"/>
<text data-id="175" x="829.74" y="-935.06">R175</text>
<circle data-id="176" cx="1145.65" cy="-1734.40" r="10.00px"/>
<text data-id="176" x="1145.65" y="-1734.40">R176</text>
<circle data-id="177" cx="1151.78" cy="-156.36" r="10.00px"/>
<text data-id="177" x="1151.78" y="-156.36">R177</text>
<circle data-id="178" cx="1740.15" cy="-21.68" r="10.00px"/>
<text data-id="178" x="1740.15" y="-21.68">R178</text>
<circle data-id="179" cx="1721.42" cy="-1640.66" r="10.00px"/>
<text data-id="179" x="1721.42" y="-1640.66">R179</text>
<circle data-id="180" cx="968.99" cy="-698.39" r="10.00px"/>
<text data-id="180" x="968.99" y="-698.39">R180</text>
<circle data-id="181" cx="302.41" cy="-1354.18" r="10.00px"/>
<text data-id="181" x="302.41" y="-1354.18">R181</text>
<circle data-id="182" cx="474.29" cy="-1493.75" r="10.00px"/>
<text data-id="182" x="474.29" y="-1493.75">R182</text>
<circle data-id="183" cx="413.63" cy="-451.15" r="10.00px"/>
<text data-id="183" x="413.63" y="-451.15">R183</text>
<circle data-id="184" cx="53.12" cy="-931.33" r="10.00px"/>
<text data-id="184" x="53.12" y="-931.33">R184</text>
<circle data-id="185" cx="524.58" cy="-1745.58" r="10.00px"/>
<text data-id="185" x="524.58" y="-1745.58">R185</text>
<circle data-id="186" cx="1778.13" cy="-293.13" r="10.00px"/>
<text data-id="186" x="1778.13" y="-293.13">R186</text>
<circle data-id="187" cx="1213.18" cy="-1714.65" r="10.00px"/>
<text data-id="187" x="1213.18" y="-1714.65">R187</text>
<circle data-id="188" cx="730.71" cy="-1384.15" r="10.00px"/>
<text data-id="188" x="730.71" y="-1384.15">R188</text>
<circle data-id="189" cx="974.93" cy="-1766.44" r="10.00px"/>
<text data-id="189" x="974.93" y="-1766.44">R189</text>
<circle data-id="190" cx="910.53" cy="-1059.54" r="10.00px"/>
<text data-id="190" x="910.53" y="-1059.54">R190</text>
<circle data-id="191" cx="603.89" cy="-1238.55" r="10.00px"/>
<text data-id="191" x="603.89" y="-1238.55">R191</text>
<circle data-id="192" cx="1691.46" cy="-488.64" r="10.00px"/>
<text data-id="192" x="1691.46" y="-488.64">R192</text>
<circle data-id="193" cx="951.49" cy="-789.07" r="10.00px"/>
<text data-id="193" x="951.49" y="-789.07">R193</text>
<circle data-id="194" cx="647.60" cy="-1441.33" r="10.00px"/>
<text data-id="194" x="647.60" y="-1441.33">R194</text>
<circle data-id="195" cx="1629.41" cy="-1316.46" r="10.00px"/>
<text data-id="195" x="1629.41" y="-1316.46">R195</text>
<circle data-id="196" cx="1415.74" cy="-1432.78" r="10.00px"/>
<text data-id="196" x="1415.74" y="-1432.78">R196</text>
<circle data-id="197" cx="332.79" cy="-1173.78" r="10.00px"/>
<text data-id="197" x="332.79" y="-1173.78">R197</text>
<circle data-id="198" cx="1240.03" cy="-429.51" r="10.00px"/>
<text data-id="198" x="1240.03" y="-429.51">R198</text>
<circle data-id="199" cx="434.31" cy="-1129.70" r="10.00px"/>
<text data-id="199" x="434.31" y="-1129.70">R199</text>
<circle data-id="200" cx="1077.83" cy="-1780.63" r="10.00px"/>
<text data-id="200" x="1077.83" y="-1780.63">R200</text>
<circle data-id="201" cx="1420.23" cy="-1745.08" r="10.00px"/>
<text data-id="201" x="1420.23" y="-1745.08">R201</text>
<circle data-id="202" cx="740.90" cy="-614.69" r="10.00px"/>
<text data-id="202" x="740.90" y="-614.69">R202</text>
<circle data-id="203" cx="157.56" cy="-1289.47" r="10.00px"/>
<text data-id="203" x="157.56" y="-1289.47">R203</text>
<circle data-id="204" cx="1543.50" cy="-929.44" r="10.00px"/>
<text data-id="204" x="1543.50" y="-929.44">R204</text>
<circle data-id="205" cx="702.47" cy="-1550.50" r="10.00px"/>
<text data-id="205" x="702.47" y="-1550.50">R205</text>
<circle data-id="206" cx="1335.94" cy="-948.31" r="10.00px"/>
<text data-id="206" x="1335.94" y="-948.31">R206</text>
<circle data-id="207" cx="267.08" cy="-1153.39" r="10.00px"/>
<text data-id="207" x="267.08" y="-1153.39">R207</text>
<circle data-id="208" cx="92.60" cy="-1415.21" r="10.00px"/>
<text data-id="208" x="92.60" y="-1415.21">R208</text>
<circle data-id="209" cx="169.02" cy="-1396.21" r="10.00px"/>
<text data-id="209" x="169.02" y="-1396.21">R209</text>
<circle data-id="210" cx="1384.33" cy="-204.61" r="10.00px"/>
<text data-id="210" x="1384.33" y="-204.61">R210</text>
<circle data-id="211" cx="803.05" cy="-1044.74" r="10.00px"/>
<text data-id="211" x="803.05" y="-1044.74">R211</text>
<circle data-id="212" cx="372.43" cy="-82.65" r="10.00px"/>
<text data-id="212" x="372.43" y="-82.65">R212</text>
<circle data-id="213" cx="226.31" cy="-153.81" r="10.00px"/>
<text data-id="213" x="226.31" y="-153.81">R213</text>
<circle data-id="214" cx="1534.35" cy="-387.14" r="10.00px"/>
<text data-id="214" x="1534.35" y="-387.14">R214</text>
<circle data-id="215" cx="696.14" cy="-479.35" r="10.00px"/>
<text data-id="215" x="696.14" y="-479.35">R215</text>
<circle data-id="216" cx="1835.41" cy="-885.76" r="10.00px"/>
<text data-id="216" x="1835.41" y="-885.76">R216</text>
<circle data-id="217" cx="301.67" cy="-418.98" r="10.00px"/>
<text data-id="217" x="301.67" y="-418.98">R217</text>
<circle data-id="218" cx="74.00" cy="-496.26" r="10.00px"/>
<text data-id="218" x="74.00" y="-496.26">R218</text>
<circle data-id="219" cx="803.13" cy="-1012.00" r="10.00px"/>
<text data-id="219" x="803.13" y="-1012.00">R219</text>
<circle data-id="220" cx="76.61" cy="-1502.23" r="10.00px"/>
<text data-id="220" x="76.61" y="-1502.23">R220</text>
<circle data-id="221" cx="1387.84" cy="-346.59" r="10.00px"/>
<text data-id="221" x="1387.84" y="-346.59">R221</text>
<circle data-id="222" cx="243.58" cy="-304.67" r="10.00px"/>
<text data-id="222" x="243.58" y="-304.67">R222</text>
<circle data-id="223" cx="1650.54" cy="-476.55" r="10.00px"/>
<text data-id="223" x="1650.54" y="-476.55">R223</text>
<circle data-id="224" cx="1241.37" cy="-900.42" r="10.00px"/>
<text data-id="224" x="1241.37" y="-900.42">R224</text>
<circle data-id="225" cx="1371.65" cy="-1279.68" r="10.00px"/>
<text data-id="225" x="1371.65" y="-1279.68">R225</text>
<circle data-id="226" cx="1323.79" cy="-301.93" r="10.00px"/>
<text data-id="226" x="1323.79" y="-301.93">R226</text>
<circle data-id="227" cx="522.80" cy="-1373.91" r="10.00px"/>
<text data-id="227" x="522.80" y="-1373.91">R227</text>
<circle data-id="228" cx="854.22" cy="-325.87" r="10.00px"/>
<text data-id="228" x="854.22" y="-325.87">R228</text>
<circle data-id="229" cx="1158.07" cy="-1602.71" r="10.00px"/>
<text data-id="229" x="1158.07" y="-1602.71">R229</text>
<circle data-id="230" cx="408.67" cy="-1265.41" r="10.00px"/>
<text data-id="230" x="408.67" y="-1265.41">R230</text>
<circle data-id="231" cx="661.27" cy="-1025.32" r="10.00px"/>
<text data-id="231" x="661.27" y="-1025.32">R231</text>
<circle data-id="232" cx="701.05" cy="-257.72" r="10.00px"/>
<text data-id="232" x="701.05" y="-257.72">R232</text>
<circle data-id="233" cx="1715.47" cy="-1860.93" r="10.00px"/>
<text data-id="233" x="1715.47" y="-1860.93">R233</text>
<circle data-id="234" cx="505.54" cy="-273.28" r="10.00px"/>
<text data-id="234" x="505.54" y="-273.28">R234</text>
<circle data-id="235" cx="1602.86" cy="-284.59" r="10.00px"/>
<text data-id="235" x="1602.86" y="-284.59">R235</text>
<circle data-id="236" cx="376.33" cy="-338.63" r="10.00px"/>
<text data-id="236" x="376.33" y="-338.63">R236</text>
<circle data-id="237" cx="1381.85" cy="-1717.83" r="10.00px"/>
<text data-id="237" x="1381.85" y="-1717.83">R237</text>
<circle data-id="238" cx="94.90" cy="-101.87" r="10.00px"/>
<text data-id="238" x="94.90" y="-101.87">R238</text>
<circle data-id="239" cx="618.33" cy="-1128.04" r="10.00px"/>
<text data-id="239" x="618.33" y="-1128.04">R239</text>
<circle data-id="240" cx="1612.93" cy="-526.31" r="10.00px"/>
<text data-id="240" x="1612.93" y="-526.31">R240</text>
<circle data-id="241" cx="615.28" cy="-828.34" r="10.00px"/>
<text data-id="241" x="615.28" y="-828.34">R241</text>
<circle data-id="242" cx="696.23" cy="-7.31" r="10.00px"/>
<text data-id="242" x="696.23" y="-7.31">R242</text>
<circle data-id="243" cx="1032.75" cy="-1464.74" r="10.00px"/>
<text data-id="243" x="1032.75" y="-1464.74">R243</text>
<circle data-id="244" cx="38.45" cy="-1550.49" r="10.00px"/>
<text data-id="244" x="38.45" y="-1550.49">R244</text>
<circle data-id="245" cx="151.18" cy="-1558.65" r="10.00px"/>
<text data-id="245" x="151.18" y="-1558.65">R245</text>
<circle data-id="246" cx="611.65" cy="-882.89" r="10.00px"/>
<text data-id="246" x="611.65" y="-882.89">R246</text>
<circle data-id="247" cx="1689.53" cy="-1244.42" r="10.00px"/>
<text data-id="247" x="1689.53" y="-1244.42">R247</text>
<circle data-id="248" cx="1293.26" cy="-997.95" r="10.00px"/>
<text data-id="248" x="1293.26" y="-997.95">R248</text>
<circle data-id="249" cx="393.18" cy="-154.46" r="10.00px"/>
<text data-id="249" x="393.18" y="-154.46">R249</text>
<circle data-id="250" cx="965.74" cy="-360.60" r="10.00px"/>
<text data-id="250" x="965.74" y="-360.60">R250</text>
<circle data-id="251" cx="284.65" cy="-1612.23" r="10.00px"/>
<text data-id="251" x="284.65" y="-1612.23">R251</text>
<circle data-id="252" cx="1463.49" cy="-1848.18" r="10.00px"/>
<text data-id="252" x="1463.49" y="-1848.18">R252</text>
<circle data-id="253" cx="1320.38" cy="-1621.99" r="10.00px"/>
<text data-id="253" x="1320.38" y="-1621.99">R253</text>
<circle data-id="254" cx="528.90" cy="-821.00" r="10.00px"/>
<text data-id="254" x="528.90" y="-821.00">R254</text>
<circle data-id="255" cx="226.54" cy="-1714.81" r="10.00px"/>
<text data-id="255" x="226.54" y="-1714.81">R255</text>
<circle data-id="256" cx="922.54" cy="-1296.89" r="10.00px"/>
<text data-id="256" x="922.54" y="-1296.89">R256</text>
<circle data-id="257" cx="989.02" cy="-537.32" r="10.00px"/>
<text data-id="257" x="989.02" y="-537.32">R257</text>
<circle data-id="258" cx="428.05" cy="-270.34" r="10.00px"/>
<text data-id="258" x="428.05" y="-270.34">R258</text>
<circle data-id="259" cx="1379.17" cy="-1526.57" r="10.00px"/>
<text data-id="259" x="1379.17" y="-1526.57">R259</text>
<circle data-id="260" cx="975.26" cy="-41.97" r="10.00px"/>
<text data-id="260" x="975.26" y="-41.97">R260</text>
<circle data-id="261" cx="1437.07" cy="-1.75" r="10.00px"/>
<text data-id="261" x="1437.07" y="-1.75">R261</text>
<circle data-id="262" cx="156.27" cy="-1435.49" r="10.00px"/>
<text data-id="262" x="156.27" y="-1435.49">R262</text>
<circle data-id="263" cx="159.01" cy="-461.39" r="10.00px"/>
<text data-id="263" x="159.01" y="-461.39">R263</text>
<circle data-id="264" cx="1252.63" cy="-128.20" r="10.00px"/>
<text data-id="264" x="1252.63" y="-128.20">R264</text>
<circle data-id="265" cx="1622.61" cy="-798.61" r="10.00px"/>
<text data-id="265" x="1622.61" y="-798.61">R265</text>
<circle data-id="266" cx="540.39" cy="-660.60" r="10.00px"/>
<text data-id="266" x="540.39" y="-660.60">R266</text>
<circle data-id="267" cx="609.29" cy="-673.88" r="10.00px"/>
<text data-id="267" x="609.29" y="-673.88">R267</text>
<circle data-id="268" cx="274.50" cy="-1792.69" r="10.00px"/>
<text data-id="268" x="274.50" y="-1792.69">R268</text>
<circle data-id="269" cx="353.73" cy="-1757.06" r="10.00px"/>
<text data-id="269" x="353.73" y="-1757.06">R269</text>
<circle data-id="270" cx="911.52" cy="-1182.06" r="10.00px"/>
<text data-id="270" x="911.52" y="-1182.06">R270</text>
<circle data-id="271" cx="492.20" cy="-1004.61" r="10.00px"/>
<text data-id="271" x="492.20" y="-1004.61">R271</text>
<circle data-id="272" cx="479.42" cy="-451.34" r="10.00px"/>
<text data-id="272" x="479.42" y="-451.34">R272</text>
<circle data-id="273" cx="518.79" cy="-1629.29" r="10.00px"/>
<text data-id="273" x="518.79" y="-1629.29">R273</text>
<circle data-id="274" cx="626.85" cy="-727.79" r="10.00px"/>
<text data-id="274" x="626.85" y="-727.79">R274</text>
<circle data-id="275" cx="231.91" cy="-1492.27" r="10.00px"/>
<text data-id="275" x="231.91" y="-1492.27">R275</text>
<circle data-id="276" cx="195.82" cy="-794.21" r="10.00px"/>
<text data-id="276" x="195.82" y="-794.21">R276</text>
<circle data-id="277" cx="669.36" cy="-1854.74" r="10.00px"/>
<text data-id="277" x="669.36" y="-1854.74">R277</text>
<circle data-id="278" cx="976.19" cy="-1332.76" r="10.00px"/>
<text data-id="278" x="976.19" y="-1332.76">R278</text>
<circle data-id="279" cx="1686.12" cy="-1717.10" r="10.00px"/>
<text data-id="279" x="1686.12" y="-1717.10">R279</text>
<circle data-id="280" cx="1000.70" cy="-637.34" r="10.00px"/>
<text data-id="280" x="1000.70" y="-637.34">R280</text>
<circle data-id="281" cx="170.97" cy="-1075.44" r="10.00px"/>
<text data-id="281" x="170.97" y="-1075.44">R281</text>
<circle data-id="282" cx="1390.15" cy="-772.46" r="10.00px"/>
<text data-id="282" x="1390.15" y="-772.46">R282</text>
<circle data-id="283" cx="380.62" cy="-1813.78" r="10.00px"/>
<text data-id="283" x="380.62" y="-1813.78">R283</text>
<circle data-id="284" cx="648.65" cy="-1798.91" r="10.00px"/>
<text data-id="284" x="648.65" y="-1798.91">R284</text>
<circle data-id="285" cx="707.88" cy="-998.49" r="10.00px"/>
<text data-id="285" x="707.88" y="-998.49">R285</text>
<circle data-id="286" cx="1045.42" cy="-1270.35" r="10.00px"/>
<text data-id="286" x="1045.42" y="-1270.35">R286</text>
<circle data-id="287" cx="1304.01" cy="-1827.29" r="10.00px"/>
<text data-id="287" x="1304.01" y="-1827.29">R287</text>
<circle data-id="288" cx="74.71" cy="-1277.74" r="10.00px"/>
<text data-id="288" x="74.71" y="-1277.74">R288</text>
<circle data-id="289" cx="1339.79" cy="-350.63" r="10.00px"/>
<text data-id="289" x="1339.79" y="-350.63">R289</text>
<circle data-id="290" cx="1050.72" cy="-586.51" r="10.00px"/>
<text data-id="290" x="1050.72" y="-586.51">R290</text>
<circle data-id="291" cx="933.50" cy="-941.16" r="10.00px"/>
<text data-id="291" x="933.50" y="-941.16">R291</text>
<circle data-id="292" cx="1218.00" cy="-1340.54" r="10.00px"/>
<text data-id="292" x="1218.00" y="-1340.54">R292</text>
<circle data-id="293" cx="1649.84" cy="-811.41" r="10.00px"/>
<text data-id="293" x="1649.84" y="-811.41">R293</text>
<circle data-id="294" cx="67.61" cy="-768.60" r="10.00px"/>
<text data-id="294" x="67.61" y="-768.60">R294</text>
<circle data-id="295" cx="58.33" cy="-1313.24" r="10.00px"/>
<text data-id="295" x="58.33" y="-1313.24">R295</text>
<circle data-id="296" cx="1317.13" cy="-1315.18" r="10.00px"/>
<text data-id="296" x="1317.13" y="-1315.18">R296</text>
<circle data-id="297" cx="1179.51" cy="-1415.78" r="10.00px"/>
<text data-id="297" x="1179.51" y="-1415.78">R297</text>
<circle data-id="298" cx="1818.44" cy="-18.09" r="10.00px"/>
<text data-id="298" x="1818.44" y="-18.09">R298</text>
<circle data-id="299" cx="585.54" cy="-727.57" r="10.00px"/>
<text data-id="299" x="585.54" y="-727.57">R299</text>
<circle data-id="300" cx="1713.76" cy="-251.55" r="10.00px"/>
<text data-id="300" x="1713.76" y="-251.55">R300</text>
<circle data-id="301" cx="178.30" cy="-1160.10" r="10.00px"/>
<text data-id="301" x="178.30" y="-1160.10">R301</text>
<circle data-id="302" cx="1337.19" cy="-279.51" r="10.00px"/>
<text data-id="302" x="1337.19" y="-279.51">R302</text>
<circle data-id="303" cx="706.21" cy="-947.59" r="10.00px"/>
<text data-id="303" x="706.21" y="-947.59">R303</text>
<circle data-id="304" cx="697.51" cy="-388.35" r="10.00px"/>
<text data-id="304" x="697.51" y="-388.35">R304</text>
<circle data-id="305" cx="1150.61" cy="-4.76" r="10.00px"/>
<text data-id="305" x="1150.61" y="-4.76">R305</text>
<circle data-id="306" cx="1318.67" cy="-1572.04" r="10.00px"/>
<text data-id="306" x="1318.67" y="-1572.04">R306</text>
<circle data-id="307" cx="439.36" cy="-562.28" r="10.00px"/>
<text data-id="307" x="439.36" y="-562.28">R307</text>
<circle data-id="308" cx="1089.55" cy="-274.36" r="10.00px"/>
<text data-id="308" x="1089.55" y="-274.36">R308</text>
<circle data-id="309" cx="1183.35" cy="-1809.09" r="10.00px"/>
<text data-id="309" x="1183.35" y="-1809.09">R309</text>
<circle data-id="310" cx="239.83" cy="-1180.96" r="10.00px"/>
<text data-id="310" x="239.83" y="-1180.96">R310</text>
<circle data-id="311" cx="644.63" cy="-990.08" r="10.00px"/>
<text data-id="311" x="644.63" y="-990.08">R311</text>
<circle data-id="312" cx="235.85" cy="-224.75" r="10.00px"/>
<text data-id="312" x="235.85" y="-224.75">R312</text>
<circle data-id="313" cx="1829.00" cy="-178.47" r="10.00px"/>
<text data-id="313" x="1829.00" y="-178.47">R313</text>
<circle data-id="314" cx="672.75" cy="-1688.52" r="10.00px"/>
<text data-id="314" x="672.75" y="-1688.52">R314</text>
<circle data-id="315" cx="1511.36" cy="-887.03" r="10.00px"/>
<text data-id="315" x="1511.36" y="-887.03">R315</text>
<circle data-id="316" cx="50.89" cy="-1491.87" r="10.00px"/>
<text data-id="316" x="50.89" y="-1491.87">R316</text>
<circle data-id="317" cx="248.94" cy="-84.05" r="10.00px"/>
<text data-id="317" x="248.94" y="-84.05">R317</text>
<circle data-id="318" cx="655.25" cy="-392.14" r="10.00px"/>
<text data-id="318" x="655.25" y="-392.14">R318</text>
<circle data-id="319" cx="1679.93" cy="-1611.87" r="10.00px"/>
<text data-id="319" x="1679.93" y="-1611.87">R319</text>
<circle data-id="320" cx="14.84" cy="-1838.51" r="10.00px"/>
<text data-id="320" x="14.84" y="-1838.51">R320</text>
<circle data-id="321" cx="514.94" cy="-1199.01" r="10.00px"/>
<text data-id="321" x="514.94" y="-1199.01">R321</text>
<circle data-id="322" cx="956.06" cy="-761.91" r="10.00px"/>
<text data-id="322" x="956.06" y="-761.91">R322</text>
<circle data-id="323" cx="1717.97" cy="-1349.90" r="10.00px"/>
<text data-id="323" x="1717.97" y="-1349.90">R323</text>
<circle data-id="324" cx="1453.74" cy="-546.89" r="10.00px"/>
<text data-id="324" x="1453.74" y="-546.89">R324</text>
<circle data-id="325" cx="815.48" cy="-827.54" r="10.00px"/>
<text data-id="325" x="815.48" y="-827.54">R325</text>
<circle data-id="326" cx="277.39" cy="-1378.69" r="10.00px"/>
<text data-id="326" x="277.39" y="-1378.69">R326</text>
<circle data-id="327" cx="462.26" cy="-940.89" r="10.00px"/>
<text data-id="327" x="462.26" y="-940.89">R327</text>
<circle data-id="328" cx="706.29" cy="-1144.96" r="10.00px"/>
<text data-id="328" x="706.29" y="-1144.96">R328</text>
<circle data-id="329" cx="1592.64" cy="-1767.33" r="10.00px"/>
<text data-id="329" x="1592.64" y="-1767.33">R329</text>
<circle data-id="330" cx="340.24" cy="-489.02" r="10.00px"/>
<text data-id="330" x="340.24" y="-489.02">R330</text>
<circle data-id="331" cx="1532.49" cy="-274.55" r="10.00px"/>
<text data-id="331" x="1532.49" y="-274.55">R331</text>
<circle data-id="332" cx="106.51" cy="-1722.90" r="10.00px"/>
<text data-id="332" x="106.51" y="-1722.90">R332</text>
<circle data-id="333" cx="106.69" cy="-844.95" r="10.00px"/>
<text data-id="333" x="106.69" y="-844.95">R333</text>
<circle data-id="334" cx="1573.18" cy="-871.14" r="10.00px"/>
<text data-id="334" x="1573.18" y="-871.14">R334</text>
<circle data-id="335" cx="679.74" cy="-678.56" r="10.00px"/>
<text data-id="335" x="679.74" y="-678.56">R335</text>
<circle data-id="336" cx="1525.18" cy="-1333.85" r="10.00px"/>
<text data-id="336" x="1525.18" y="-1333.85">R336</text>
<circle data-id="337" cx="1254.89" cy="-1634.83" r="10.00px"/>
<text data-id="337" x="1254.89" y="-1634.83">R337</text>
<circle data-id="338" cx="1121.31" cy="-589.17" r="10.00px"/>
<text data-id="338" x="1121.31" y="-589.17">R338</text>
<circle data-id="339" cx="1147.79" cy="-1576.69" r="10.00px"/>
<text data-id="339" x="1147.79" y="-1576.69">R339</text>
<circle data-id="340" cx="473.48" cy="-979.61" r="10.00px"/>
<text data-id="340" x="473.48" y="-979.61">R340</text>
<circle data-id="341" cx="863.37" cy="-1068.83" r="10.00px"/>
<text data-id="341" x="863.37" y="-1068.83">R341</text>
<circle data-id="342" cx="1343.58" cy="-1451.99" r="10.00px"/>
<text data-id="342" x="1343.58" y="-1451.99">R342</text>
<circle data-id="343" cx="1588.43" cy="-1182.60" r="10.00px"/>
<text data-id="343" x="1588.43" y="-1182.60">R343</text>
<circle data-id="344" cx="1865.24" cy="-84.49" r="10.00px"/>
<text data-id="344" x="1865.24" y="-84.49">R344</text>
<circle data-id="345" cx="1599.26" cy="-255.28" r="10.00px"/>
<text data-id="345" x="1599.26" y="-255.28">R345</text>
<circle data-id="346" cx="38.85" cy="-1786.33" r="10.00px"/>
<text data-id="346" x="38.85" y="-1786.33">R346</text>
<circle data-id="347" cx="1536.02" cy="-653.38" r="10.00px"/>
<text data-id="347" x="1536.02" y="-653.38">R347</text>
<circle data-id="348" cx="456.76" cy="-84.16" r="10.00px"/>
<text data-id="348" x="456.76" y="-84.16">R348</text>
<circle data-id="349" cx="1590.78" cy="-1285.79" r="10.00px"/>
<text data-id="349" x="1590.78" y="-1285.79">R349</text>
</svg>
