<svg id="topo" viewBox="-21.52 -603.75 614.58 625.51" xmlns="http://www.w3.org/2000/svg">
<style>#topo path {fill: none; stroke: grey; stroke-width: 5.0000px;} #topo circle {fill: lightblue; stroke: none; stroke-width: 0.3px; vector-effect: non-scaling-stroke; r: 10.0000px;} #topo text {fill: black; stroke: none; font-size: 15.0000px; font-family: sans-serif; text-anchor:middle; transform: translateY(0.3em);} #topo path.country {fill: lightgrey; stroke: black; stroke-width: 1px; vector-effect: non-scaling-stroke; visibility: visible;} #topo path.selection {fill: none; stroke: red; stroke-width: 1px; vector-effect: non-scaling-stroke; visibility: visible;} #topo path.utilization {visibility: hidden;}</style>
<path data-id="0-1" d="M324.61,-444.03,442.11,-511.77"/>
<path data-id="0-5" d="M324.61,-444.03,424.39,-346.27"/>
<path data-id="0-17" d="M324.61,-444.03,351.86,-571.66"/>
<path data-id="0-18" d="M324.61,-444.03,297.81,-447.64"/>
<path data-id="0-34" d="M324.61,-444.03,308.98,-366.07"/>
<path data-id="1-3" d="M442.11,-511.77,446.60,-549.72"/>
<path data-id="1-25" d="M442.11,-511.77,464.94,-481.23"/>
<path data-id="2-17" d="M169.14,-571.24,351.86,-571.66"/>
<path data-id="2-18" d="M169.14,-571.24,297.81,-447.64"/>
<path data-id="2-26" d="M169.14,-571.24,55.94,-561.51"/>
<path data-id="3-14" d="M446.60,-549.72,486.59,-575.32"/>
<path data-id="3-17" d="M446.60,-549.72,351.86,-571.66"/>
<path data-id="4-16" d="M162.17,-216.90,230.09,-156.57"/>
<path data-id="4-21" d="M162.17,-216.90,57.90,-223.25"/>
<path data-id="4-27" d="M162.17,-216.90,103.85,-76.25"/>
<path data-id="4-32" d="M162.17,-216.90,261.47,-234.08"/>
<path data-id="5-20" d="M424.39,-346.27,396.79,-324.40"/>
<path data-id="5-22" d="M424.39,-346.27,504.74,-261.60"/>
<path data-id="5-25" d="M424.39,-346.27,464.94,-481.23"/>
<path data-id="5-28" d="M424.39,-346.27,528.06,-363.65"/>
<path data-id="6-15" d="M443.92,-215.52,293.00,-233.64"/>
<path data-id="6-20" d="M443.92,-215.52,396.79,-324.40"/>
<path data-id="6-22" d="M443.92,-215.52,504.74,-261.60"/>
<path data-id="6-31" d="M443.92,-215.52,445.27,-172.89"/>
<path data-id="7-12" d="M565.13,-6.67,500.55,-49.14"/>
<path data-id="8-18" d="M14.92,-399.39,297.81,-447.64"/>
<path data-id="8-26" d="M14.92,-399.39,55.94,-561.51"/>
<path data-id="8-29" d="M14.92,-399.39,6.42,-275.64"/>
<path data-id="8-34" d="M14.92,-399.39,308.98,-366.07"/>
<path data-id="9-21" d="M30.51,-138.82,57.90,-223.25"/>
<path data-id="9-27" d="M30.51,-138.82,103.85,-76.25"/>
<path data-id="9-33" d="M30.51,-138.82,31.72,-230.57"/>
<path data-id="10-16" d="M192.26,-92.91,230.09,-156.57"/>
<path data-id="10-27" d="M192.26,-92.91,103.85,-76.25"/>
<path data-id="11-27" d="M97.11,-43.55,103.85,-76.25"/>
<path data-id="12-30" d="M500.55,-49.14,490.41,-97.77"/>
<path data-id="13-22" d="M538.02,-322.94,504.74,-261.60"/>
<path data-id="13-28" d="M538.02,-322.94,528.06,-363.65"/>
<path data-id="14-19" d="M486.59,-575.32,525.92,-491.09"/>
<path data-id="15-20" d="M293.00,-233.64,396.79,-324.40"/>
<path data-id="15-24" d="M293.00,-233.64,344.95,-129.70"/>
<path data-id="15-32" d="M293.00,-233.64,261.47,-234.08"/>
<path data-id="15-34" d="M293.00,-233.64,308.98,-366.07"/>
<path data-id="16-24" d="M230.09,-156.57,344.95,-129.70"/>
<path data-id="16-32" d="M230.09,-156.57,261.47,-234.08"/>
<path data-id="18-34" d="M297.81,-447.64,308.98,-366.07"/>
<path data-id="19-25" d="M525.92,-491.09,464.94,-481.23"/>
<path data-id="19-28" d="M525.92,-491.09,528.06,-363.65"/>
<path data-id="20-34" d="M396.79,-324.40,308.98,-366.07"/>
<path data-id="21-33" d="M57.90,-223.25,31.72,-230.57"/>
<path data-id="23-24" d="M402.76,-153.66,344.95,-129.70"/>
<path data-id="23-31" d="M402.76,-153.66,445.27,-172.89"/>
<path data-id="25-28" d="M464.94,-481.23,528.06,-363.65"/>
<path data-id="29-33" d="M6.42,-275.64,31.72,-230.57"/>
<path data-id="30-31" d="M490.41,-97.77,445.27,-172.89"/>
<circle data-id="0" cx="324.61" cy="-444.03" r="10.00px"/>
<text data-id="0" x="324.61" y="-444.03">R0</text>
<circle data-id="1" cx="442.11" cy="-511.77" r="10.00px"/>
<text data-id="1" x="442.11" y="-511.77">R1</text>
<circle data-id="2" cx="169.14" cy="-571.24" r="10.00px"/>
<text data-id="2" x="169.14" y="-571.24">R2</text>
<circle data-id="3" cx="446.60" cy="-549.72" r="10.00px"/>
<text data-id="3" x="446.60" y="-549.72">R3</text>
<circle data-id="4" cx="162.17" cy="-216.90" r="10.00px"/>
<text data-id="4" x="162.17" y="-216.90">R4</text>
<circle data-id="5" cx="424.39" cy="-346.27" r="10.00px"/>
<text data-id="5" x="424.39" y="-346.27">R5</text>
<circle data-id="6" cx="443.92" cy="-215.52" r="10.00px"/>
<text data-id="6" x="443.92" y="-215.52">R6</text>
<circle data-id="7" cx="565.13" cy="-6.67" r="10.00px"/>
<text data-id="7" x="565.13" y="-6.67">R7</text>
<circle data-id="8" cx="14.92" cy="-399.39" r="10.00px"/>
<text data-id="8" x="14.92" y="-399.39">R8</text>
<circle data-id="9" cx="30.51" cy="-138.82" r="10.00px"/>
<text data-id="9" x="30.51" y="-138.82">R9</text>
<circle data-id="10" cx="192.26" cy="-92.91" r="10.00px"/>
<text data-id="10" x="192.26" y="-92.91">R10</text>
<circle data-id="11" cx="97.11" cy="-43.55" r="10.00px"/>
<text data-id="11" x="97.11" y="-43.55">R11</text>
<circle data-id="12" cx="500.55" cy="-49.14" r="10.00px"/>
<text data-id="12" x="500.55" y="-49.14">R12</text>
<circle data-id="13" cx="538.02" cy="-322.94" r="10.00px"/>
<text data-id="13" x="538.02" y="-322.94">R13</text>
<circle data-id="14" cx="486.59" cy="-575.32" r="10.00px"/>
<text data-id="14" x="486.59" y="-575.32">R14</text>
<circle data-id="15" cx="293.00" cy="-233.64" r="10.00px"/>
<text data-id="15" x="293.00" y="-233.64">R15</text>
<circle data-id="16" cx="230.09" cy="-156.57" r="10.00px"/>
<text data-id="16" x="230.09" y="-156.57">R16</text>
<circle data-id="17" cx="351.86" cy="-571.66" r="10.00px"/>
<text data-id="17" x="351.86" y="-571.66">R17</text>
<circle data-id="18" cx="297.81" cy="-447.64" r="10.00px"/>
<text data-id="18" x="297.81" y="-447.64">R18</text>
<circle data-id="19" cx="525.92" cy="-491.09" r="10.00px"/>
<text data-id="19" x="525.92" y="-491.09">R19</text>
<circle data-id="20" cx="396.79" cy="-324.40" r="10.00px"/>
<text data-id="20" x="396.79" y="-324.40">R20</text>
<circle data-id="21" cx="57.90" cy="-223.25" r="10.00px"/>
<text data-id="21" x="57.90" y="-223.25">R21</text>
<circle data-id="22" cx="504.74" cy="-261.60" r="10.00px"/>
<text data-id="22" x="504.74" y="-261.60">R22</text>
<circle data-id="23" cx="402.76" cy="-153.66" r="10.00px"/>
<text data-id="23" x="402.76" y="-153.66">R23</text>
<circle data-id="24" cx="344.95" cy="-129.70" r="10.00px"/>
<text data-id="24" x="344.95" y="-129.70">R24</text>
<circle data-id="25" cx="464.94" cy="-481.23" r="10.00px"/>
<text data-id="25" x="464.94" y="-481.23">R25</text>
<circle data-id="26" cx="55.94" cy="-561.51" r="10.00px"/>
<text data-id="26" x="55.94" y="-561.51">R26</text>
<circle data-id="27" cx="103.85" cy="-76.25" r="10.00px"/>
<text data-id="27" x="103.85" y="-76.25">R27</text>
<circle data-id="28" cx="528.06" cy="-363.65" r="10.00px"/>
<text data-id="28" x="528.06" y="-363.65">R28</text>
<circle data-id="29" cx="6.42" cy="-275.64" r="10.00px"/>
<text data-id="29" x="6.42" y="-275.64">R29</text>
<circle data-id="30" cx="490.41" cy="-97.77" r="10.00px"/>
<text data-id="30" x="490.41" y="-97.77">R30</text>
<circle data-id="31" cx="445.27" cy="-172.89" r="10.00px"/>
<text data-id="31" x="445.27" y="-172.89">R31</text>
<circle data-id="32" cx="261.47" cy="-234.08" r="10.00px"/>
<text data-id="32" x="261.47" y="-234.08">R32</text>
<circle data-id="33" cx="31.72" cy="-230.57" r="10.00px"/>
<text data-id="33" x="31.72" y="-230.57">R33</text>
<circle data-id="34" cx="308.98" cy="-366.07" r="10.00px"/>
<text data-id="34" x="308.98" y="-366.07">R34</text>
</svg>
