<svg width="789.39" height="771.33" viewBox="-40.23 -38.75 789.39 771.33" xmlns="http://www.w3.org/2000/svg">
<style>path {fill: none; stroke: grey; stroke-width: 6;} circle {fill: lightblue; stroke: none;} text {fill: black; stroke: none; font-size: 16; font-family: sans-serif; text-anchor:middle;}</style>
<path d="M351.81,188.21,450.72,171.46"/>
<path d="M351.81,188.21,304.26,160.67"/>
<path d="M351.81,188.21,409.47,291.16"/>
<path d="M351.81,188.21,365.29,65.88"/>
<path d="M351.81,188.21,332.47,285.03"/>
<path d="M450.72,171.46,478.32,60.27"/>
<path d="M450.72,171.46,644.04,191.69"/>
<path d="M450.72,171.46,409.47,291.16"/>
<path d="M450.72,171.46,365.29,65.88"/>
<path d="M334.58,686.13,442.27,683.35"/>
<path d="M334.58,686.13,350.80,627.59"/>
<path d="M334.58,686.13,303.88,655.13"/>
<path d="M60.24,224.42,69.24,96.77"/>
<path d="M60.24,224.42,13.56,313.64"/>
<path d="M60.24,224.42,101.15,219.90"/>
<path d="M478.32,60.27,644.04,191.69"/>
<path d="M478.32,60.27,365.29,65.88"/>
<path d="M478.32,60.27,682.92,55.68"/>
<path d="M478.32,60.27,452.14,6.25"/>
<path d="M108.41,583.56,158.52,513.24"/>
<path d="M108.41,583.56,170.41,635.90"/>
<path d="M692.77,225.81,561.32,454.76"/>
<path d="M692.77,225.81,644.04,191.69"/>
<path d="M692.77,225.81,704.15,493.21"/>
<path d="M133.62,687.57,188.22,657.62"/>
<path d="M133.62,687.57,170.41,635.90"/>
<path d="M232.58,426.94,88.47,403.36"/>
<path d="M232.58,426.94,260.03,365.38"/>
<path d="M232.58,426.94,158.52,513.24"/>
<path d="M232.58,426.94,256.34,548.15"/>
<path d="M429.56,449.00,561.32,454.76"/>
<path d="M429.56,449.00,441.55,492.13"/>
<path d="M429.56,449.00,456.04,367.32"/>
<path d="M429.56,449.00,305.55,381.71"/>
<path d="M647.28,680.56,579.43,603.29"/>
<path d="M647.28,680.56,691.80,601.23"/>
<path d="M647.28,680.56,521.65,677.69"/>
<path d="M490.13,583.30,561.32,454.76"/>
<path d="M490.13,583.30,441.55,492.13"/>
<path d="M490.13,583.30,442.27,683.35"/>
<path d="M490.13,583.30,350.80,627.59"/>
<path d="M490.13,583.30,576.28,578.10"/>
<path d="M490.13,583.30,521.65,677.69"/>
<path d="M561.32,454.76,441.55,492.13"/>
<path d="M561.32,454.76,576.28,578.10"/>
<path d="M561.32,454.76,456.04,367.32"/>
<path d="M561.32,454.76,704.15,493.21"/>
<path d="M304.26,160.67,365.29,65.88"/>
<path d="M304.26,160.67,265.93,173.77"/>
<path d="M188.22,657.62,295.76,580.52"/>
<path d="M188.22,657.62,303.88,655.13"/>
<path d="M188.22,657.62,170.41,635.90"/>
<path d="M644.04,191.69,489.64,325.26"/>
<path d="M644.04,191.69,682.92,55.68"/>
<path d="M489.64,325.26,409.47,291.16"/>
<path d="M489.64,325.26,456.04,367.32"/>
<path d="M190.68,147.96,69.24,96.77"/>
<path d="M190.68,147.96,265.93,173.77"/>
<path d="M190.68,147.96,224.03,245.22"/>
<path d="M190.68,147.96,112.89,35.47"/>
<path d="M190.68,147.96,101.15,219.90"/>
<path d="M409.47,291.16,373.59,328.85"/>
<path d="M409.47,291.16,332.47,285.03"/>
<path d="M409.47,291.16,456.04,367.32"/>
<path d="M441.55,492.13,350.80,627.59"/>
<path d="M441.55,492.13,295.76,580.52"/>
<path d="M579.43,603.29,576.28,578.10"/>
<path d="M579.43,603.29,691.80,601.23"/>
<path d="M579.43,603.29,521.65,677.69"/>
<path d="M442.27,683.35,350.80,627.59"/>
<path d="M442.27,683.35,521.65,677.69"/>
<path d="M350.80,627.59,295.76,580.52"/>
<path d="M350.80,627.59,303.88,655.13"/>
<path d="M576.28,578.10,704.15,493.21"/>
<path d="M88.47,403.36,158.52,513.24"/>
<path d="M88.47,403.36,23.69,366.19"/>
<path d="M88.47,403.36,224.03,245.22"/>
<path d="M365.29,65.88,452.14,6.25"/>
<path d="M260.03,365.38,332.47,285.03"/>
<path d="M260.03,365.38,224.03,245.22"/>
<path d="M260.03,365.38,305.55,381.71"/>
<path d="M4.77,6.38,79.41,62.16"/>
<path d="M691.80,601.23,704.15,493.21"/>
<path d="M158.52,513.24,256.34,548.15"/>
<path d="M69.24,96.77,79.41,62.16"/>
<path d="M69.24,96.77,101.15,219.90"/>
<path d="M265.93,173.77,332.47,285.03"/>
<path d="M265.93,173.77,224.03,245.22"/>
<path d="M23.69,366.19,13.56,313.64"/>
<path d="M373.59,328.85,332.47,285.03"/>
<path d="M373.59,328.85,456.04,367.32"/>
<path d="M373.59,328.85,305.55,381.71"/>
<path d="M295.76,580.52,256.34,548.15"/>
<path d="M295.76,580.52,303.88,655.13"/>
<path d="M332.47,285.03,224.03,245.22"/>
<path d="M332.47,285.03,305.55,381.71"/>
<path d="M256.34,548.15,170.41,635.90"/>
<path d="M224.03,245.22,101.15,219.90"/>
<path d="M79.41,62.16,112.89,35.47"/>
<circle cx="351.81" cy="188.21" r="10"/>
<text x="351.81" y="193.21">R0</text>
<circle cx="450.72" cy="171.46" r="10"/>
<text x="450.72" y="176.46">R1</text>
<circle cx="334.58" cy="686.13" r="10"/>
<text x="334.58" y="691.13">R2</text>
<circle cx="60.24" cy="224.42" r="10"/>
<text x="60.24" y="229.42">R3</text>
<circle cx="478.32" cy="60.27" r="10"/>
<text x="478.32" y="65.27">R4</text>
<circle cx="108.41" cy="583.56" r="10"/>
<text x="108.41" y="588.56">R5</text>
<circle cx="692.77" cy="225.81" r="10"/>
<text x="692.77" y="230.81">R6</text>
<circle cx="133.62" cy="687.57" r="10"/>
<text x="133.62" y="692.57">R7</text>
<circle cx="232.58" cy="426.94" r="10"/>
<text x="232.58" y="431.94">R8</text>
<circle cx="429.56" cy="449.00" r="10"/>
<text x="429.56" y="454.00">R9</text>
<circle cx="647.28" cy="680.56" r="10"/>
<text x="647.28" y="685.56">R10</text>
<circle cx="490.13" cy="583.30" r="10"/>
<text x="490.13" y="588.30">R11</text>
<circle cx="561.32" cy="454.76" r="10"/>
<text x="561.32" y="459.76">R12</text>
<circle cx="304.26" cy="160.67" r="10"/>
<text x="304.26" y="165.67">R13</text>
<circle cx="188.22" cy="657.62" r="10"/>
<text x="188.22" y="662.62">R14</text>
<circle cx="644.04" cy="191.69" r="10"/>
<text x="644.04" y="196.69">R15</text>
<circle cx="489.64" cy="325.26" r="10"/>
<text x="489.64" y="330.26">R16</text>
<circle cx="190.68" cy="147.96" r="10"/>
<text x="190.68" y="152.96">R17</text>
<circle cx="409.47" cy="291.16" r="10"/>
<text x="409.47" y="296.16">R18</text>
<circle cx="441.55" cy="492.13" r="10"/>
<text x="441.55" y="497.13">R19</text>
<circle cx="579.43" cy="603.29" r="10"/>
<text x="579.43" y="608.29">R20</text>
<circle cx="442.27" cy="683.35" r="10"/>
<text x="442.27" y="688.35">R21</text>
<circle cx="350.80" cy="627.59" r="10"/>
<text x="350.80" y="632.59">R22</text>
<circle cx="576.28" cy="578.10" r="10"/>
<text x="576.28" y="583.10">R23</text>
<circle cx="88.47" cy="403.36" r="10"/>
<text x="88.47" y="408.36">R24</text>
<circle cx="365.29" cy="65.88" r="10"/>
<text x="365.29" y="70.88">R25</text>
<circle cx="260.03" cy="365.38" r="10"/>
<text x="260.03" y="370.38">R26</text>
<circle cx="4.77" cy="6.38" r="10"/>
<text x="4.77" y="11.38">R27</text>
<circle cx="691.80" cy="601.23" r="10"/>
<text x="691.80" y="606.23">R28</text>
<circle cx="158.52" cy="513.24" r="10"/>
<text x="158.52" y="518.24">R29</text>
<circle cx="69.24" cy="96.77" r="10"/>
<text x="69.24" y="101.77">R30</text>
<circle cx="265.93" cy="173.77" r="10"/>
<text x="265.93" y="178.77">R31</text>
<circle cx="23.69" cy="366.19" r="10"/>
<text x="23.69" y="371.19">R32</text>
<circle cx="682.92" cy="55.68" r="10"/>
<text x="682.92" y="60.68">R33</text>
<circle cx="373.59" cy="328.85" r="10"/>
<text x="373.59" y="333.85">R34</text>
<circle cx="295.76" cy="580.52" r="10"/>
<text x="295.76" y="585.52">R35</text>
<circle cx="332.47" cy="285.03" r="10"/>
<text x="332.47" y="290.03">R36</text>
<circle cx="256.34" cy="548.15" r="10"/>
<text x="256.34" y="553.15">R37</text>
<circle cx="13.56" cy="313.64" r="10"/>
<text x="13.56" y="318.64">R38</text>
<circle cx="452.14" cy="6.25" r="10"/>
<text x="452.14" y="11.25">R39</text>
<circle cx="224.03" cy="245.22" r="10"/>
<text x="224.03" y="250.22">R40</text>
<circle cx="456.04" cy="367.32" r="10"/>
<text x="456.04" y="372.32">R41</text>
<circle cx="303.88" cy="655.13" r="10"/>
<text x="303.88" y="660.13">R42</text>
<circle cx="79.41" cy="62.16" r="10"/>
<text x="79.41" y="67.16">R43</text>
<circle cx="112.89" cy="35.47" r="10"/>
<text x="112.89" y="40.47">R44</text>
<circle cx="101.15" cy="219.90" r="10"/>
<text x="101.15" y="224.90">R45</text>
<circle cx="521.65" cy="677.69" r="10"/>
<text x="521.65" y="682.69">R46</text>
<circle cx="170.41" cy="635.90" r="10"/>
<text x="170.41" y="640.90">R47</text>
<circle cx="704.15" cy="493.21" r="10"/>
<text x="704.15" y="498.21">R48</text>
<circle cx="305.55" cy="381.71" r="10"/>
<text x="305.55" y="386.71">R49</text>
</svg>
