<svg id="topo" viewBox="-33.66 -724.51 760.64 753.89" xmlns="http://www.w3.org/2000/svg">
<style>#topo path {fill: none; stroke: grey; stroke-width: 5.0000px;} #topo circle {fill: lightblue; stroke: none; stroke-width: 0.3px; vector-effect: non-scaling-stroke; r: 10.0000px;} #topo text {fill: black; stroke: none; font-size: 15.0000px; font-family: sans-serif; text-anchor:middle; transform: translateY(0.3em);} #topo path.country {fill: lightgrey; stroke: black; stroke-width: 1px; vector-effect: non-scaling-stroke; visibility: visible;} #topo path.selection {fill: none; stroke: red; stroke-width: 1px; vector-effect: non-scaling-stroke; visibility: visible;} #topo path.utilization {visibility: hidden;}</style>
<path data-id="0-19" d="M594.89,-60.04,565.14,-123.25"/>
<path data-id="0-23" d="M594.89,-60.04,547.01,-37.24"/>
<path data-id="0-37" d="M594.89,-60.04,569.16,-4.89"/>
<path data-id="0-39" d="M594.89,-60.04,649.02,-158.42"/>
<path data-id="1-21" d="M83.54,-195.57,51.02,-224.29"/>
<path data-id="1-30" d="M83.54,-195.57,141.29,-104.50"/>
<path data-id="1-33" d="M83.54,-195.57,151.53,-197.49"/>
<path data-id="1-34" d="M83.54,-195.57,17.34,-121.51"/>
<path data-id="2-21" d="M79.08,-265.08,51.02,-224.29"/>
<path data-id="2-47" d="M79.08,-265.08,53.02,-390.38"/>
<path data-id="3-7" d="M32.36,-584.25,105.23,-481.32"/>
<path data-id="3-9" d="M32.36,-584.25,58.93,-607.86"/>
<path data-id="3-38" d="M32.36,-584.25,1.45,-527.89"/>
<path data-id="4-8" d="M266.94,-87.32,213.92,-40.45"/>
<path data-id="4-25" d="M266.94,-87.32,297.05,-125.34"/>
<path data-id="4-49" d="M266.94,-87.32,171.10,-103.76"/>
<path data-id="5-14" d="M668.28,-506.38,539.84,-613.58"/>
<path data-id="5-17" d="M668.28,-506.38,692.41,-684.67"/>
<path data-id="5-29" d="M668.28,-506.38,536.18,-406.47"/>
<path data-id="5-32" d="M668.28,-506.38,686.50,-377.19"/>
<path data-id="5-44" d="M668.28,-506.38,515.15,-497.06"/>
<path data-id="6-10" d="M630.54,-225.33,519.12,-258.50"/>
<path data-id="6-20" d="M630.54,-225.33,629.03,-356.10"/>
<path data-id="6-26" d="M630.54,-225.33,546.60,-309.41"/>
<path data-id="6-39" d="M630.54,-225.33,649.02,-158.42"/>
<path data-id="7-27" d="M105.23,-481.32,286.34,-460.95"/>
<path data-id="7-38" d="M105.23,-481.32,1.45,-527.89"/>
<path data-id="7-40" d="M105.23,-481.32,222.32,-560.21"/>
<path data-id="7-42" d="M105.23,-481.32,5.54,-428.92"/>
<path data-id="7-46" d="M105.23,-481.32,141.26,-599.88"/>
<path data-id="7-47" d="M105.23,-481.32,53.02,-390.38"/>
<path data-id="8-49" d="M213.92,-40.45,171.10,-103.76"/>
<path data-id="9-22" d="M58.93,-607.86,70.87,-678.71"/>
<path data-id="9-24" d="M58.93,-607.86,0.92,-684.72"/>
<path data-id="9-46" d="M58.93,-607.86,141.26,-599.88"/>
<path data-id="10-19" d="M519.12,-258.50,565.14,-123.25"/>
<path data-id="10-26" d="M519.12,-258.50,546.60,-309.41"/>
<path data-id="10-31" d="M519.12,-258.50,361.71,-217.14"/>
<path data-id="11-12" d="M412.37,-672.02,486.90,-645.81"/>
<path data-id="11-35" d="M412.37,-672.02,268.14,-538.09"/>
<path data-id="12-14" d="M486.90,-645.81,539.84,-613.58"/>
<path data-id="12-18" d="M486.90,-645.81,570.22,-690.24"/>
<path data-id="12-45" d="M486.90,-645.81,458.21,-496.21"/>
<path data-id="13-21" d="M18.15,-246.62,51.02,-224.29"/>
<path data-id="14-18" d="M539.84,-613.58,570.22,-690.24"/>
<path data-id="14-44" d="M539.84,-613.58,515.15,-497.06"/>
<path data-id="15-27" d="M322.69,-455.82,286.34,-460.95"/>
<path data-id="15-43" d="M322.69,-455.82,407.32,-449.60"/>
<path data-id="15-48" d="M322.69,-455.82,328.49,-299.35"/>
<path data-id="16-22" d="M145.27,-675.77,70.87,-678.71"/>
<path data-id="16-46" d="M145.27,-675.77,141.26,-599.88"/>
<path data-id="17-18" d="M692.41,-684.67,570.22,-690.24"/>
<path data-id="19-39" d="M565.14,-123.25,649.02,-158.42"/>
<path data-id="19-41" d="M565.14,-123.25,379.32,-98.73"/>
<path data-id="20-26" d="M629.03,-356.10,546.60,-309.41"/>
<path data-id="20-29" d="M629.03,-356.10,536.18,-406.47"/>
<path data-id="20-32" d="M629.03,-356.10,686.50,-377.19"/>
<path data-id="21-34" d="M51.02,-224.29,17.34,-121.51"/>
<path data-id="22-24" d="M70.87,-678.71,0.92,-684.72"/>
<path data-id="22-46" d="M70.87,-678.71,141.26,-599.88"/>
<path data-id="23-37" d="M547.01,-37.24,569.16,-4.89"/>
<path data-id="23-41" d="M547.01,-37.24,379.32,-98.73"/>
<path data-id="25-31" d="M297.05,-125.34,361.71,-217.14"/>
<path data-id="25-41" d="M297.05,-125.34,379.32,-98.73"/>
<path data-id="26-29" d="M546.60,-309.41,536.18,-406.47"/>
<path data-id="26-36" d="M546.60,-309.41,490.94,-379.71"/>
<path data-id="27-35" d="M286.34,-460.95,268.14,-538.09"/>
<path data-id="28-34" d="M2.01,-70.14,17.34,-121.51"/>
<path data-id="29-36" d="M536.18,-406.47,490.94,-379.71"/>
<path data-id="29-44" d="M536.18,-406.47,515.15,-497.06"/>
<path data-id="30-33" d="M141.29,-104.50,151.53,-197.49"/>
<path data-id="30-34" d="M141.29,-104.50,17.34,-121.51"/>
<path data-id="30-49" d="M141.29,-104.50,171.10,-103.76"/>
<path data-id="31-41" d="M361.71,-217.14,379.32,-98.73"/>
<path data-id="31-48" d="M361.71,-217.14,328.49,-299.35"/>
<path data-id="33-48" d="M151.53,-197.49,328.49,-299.35"/>
<path data-id="33-49" d="M151.53,-197.49,171.10,-103.76"/>
<path data-id="35-40" d="M268.14,-538.09,222.32,-560.21"/>
<path data-id="36-43" d="M490.94,-379.71,407.32,-449.60"/>
<path data-id="36-45" d="M490.94,-379.71,458.21,-496.21"/>
<path data-id="36-48" d="M490.94,-379.71,328.49,-299.35"/>
<path data-id="38-42" d="M1.45,-527.89,5.54,-428.92"/>
<path data-id="40-46" d="M222.32,-560.21,141.26,-599.88"/>
<path data-id="42-47" d="M5.54,-428.92,53.02,-390.38"/>
<path data-id="43-45" d="M407.32,-449.60,458.21,-496.21"/>
<path data-id="43-48" d="M407.32,-449.60,328.49,-299.35"/>
<path data-id="44-45" d="M515.15,-497.06,458.21,-496.21"/>
<circle data-id="0" cx="594.89" cy="-60.04" r="10.00px"/>
<text data-id="0" x="594.89" y="-60.04">R0</text>
<circle data-id="1" cx="83.54" cy="-195.57" r="10.00px"/>
<text data-id="1" x="83.54" y="-195.57">R1</text>
<circle data-id="2" cx="79.08" cy="-265.08" r="10.00px"/>
<text data-id="2" x="79.08" y="-265.08">R2</text>
<circle data-id="3" cx="32.36" cy="-584.25" r="10.00px"/>
<text data-id="3" x="32.36" y="-584.25">R3</text>
<circle data-id="4" cx="266.94" cy="-87.32" r="10.00px"/>
<text data-id="4" x="266.94" y="-87.32">R4</text>
<circle data-id="5" cx="668.28" cy="-506.38" r="10.00px"/>
<text data-id="5" x="668.28" y="-506.38">R5</text>
<circle data-id="6" cx="630.54" cy="-225.33" r="10.00px"/>
<text data-id="6" x="630.54" y="-225.33">R6</text>
<circle data-id="7" cx="105.23" cy="-481.32" r="10.00px"/>
<text data-id="7" x="105.23" y="-481.32">R7</text>
<circle data-id="8" cx="213.92" cy="-40.45" r="10.00px"/>
<text data-id="8" x="213.92" y="-40.45">R8</text>
<circle data-id="9" cx="58.93" cy="-607.86" r="10.00px"/>
<text data-id="9" x="58.93" y="-607.86">R9</text>
<circle data-id="10" cx="519.12" cy="-258.50" r="10.00px"/>
<text data-id="10" x="519.12" y="-258.50">R10</text>
<circle data-id="11" cx="412.37" cy="-672.02" r="10.00px"/>
<text data-id="11" x="412.37" y="-672.02">R11</text>
<circle data-id="12" cx="486.90" cy="-645.81" r="10.00px"/>
<text data-id="12" x="486.90" y="-645.81">R12</text>
<circle data-id="13" cx="18.15" cy="-246.62" r="10.00px"/>
<text data-id="13" x="18.15" y="-246.62">R13</text>
<circle data-id="14" cx="539.84" cy="-613.58" r="10.00px"/>
<text data-id="14" x="539.84" y="-613.58">R14</text>
<circle data-id="15" cx="322.69" cy="-455.82" r="10.00px"/>
<text data-id="15" x="322.69" y="-455.82">R15</text>
<circle data-id="16" cx="145.27" cy="-675.77" r="10.00px"/>
<text data-id="16" x="145.27" y="-675.77">R16</text>
<circle data-id="17" cx="692.41" cy="-684.67" r="10.00px"/>
<text data-id="17" x="692.41" y="-684.67">R17</text>
<circle data-id="18" cx="570.22" cy="-690.24" r="10.00px"/>
<text data-id="18" x="570.22" y="-690.24">R18</text>
<circle data-id="19" cx="565.14" cy="-123.25" r="10.00px"/>
<text data-id="19" x="565.14" y="-123.25">R19</text>
<circle data-id="20" cx="629.03" cy="-356.10" r="10.00px"/>
<text data-id="20" x="629.03" y="-356.10">R20</text>
<circle data-id="21" cx="51.02" cy="-224.29" r="10.00px"/>
<text data-id="21" x="51.02" y="-224.29">R21</text>
<circle data-id="22" cx="70.87" cy="-678.71" r="10.00px"/>
<text data-id="22" x="70.87" y="-678.71">R22</text>
<circle data-id="23" cx="547.01" cy="-37.24" r="10.00px"/>
<text data-id="23" x="547.01" y="-37.24">R23</text>
<circle data-id="24" cx="0.92" cy="-684.72" r="10.00px"/>
<text data-id="24" x="0.92" y="-684.72">R24</text>
<circle data-id="25" cx="297.05" cy="-125.34" r="10.00px"/>
<text data-id="25" x="297.05" y="-125.34">R25</text>
<circle data-id="26" cx="546.60" cy="-309.41" r="10.00px"/>
<text data-id="26" x="546.60" y="-309.41">R26</text>
<circle data-id="27" cx="286.34" cy="-460.95" r="10.00px"/>
<text data-id="27" x="286.34" y="-460.95">R27</text>
<circle data-id="28" cx="2.01" cy="-70.14" r="10.00px"/>
<text data-id="28" x="2.01" y="-70.14">R28</text>
<circle data-id="29" cx="536.18" cy="-406.47" r="10.00px"/>
<text data-id="29" x="536.18" y="-406.47">R29</text>
<circle data-id="30" cx="141.29" cy="-104.50" r="10.00px"/>
<text data-id="30" x="141.29" y="-104.50">R30</text>
<circle data-id="31" cx="361.71" cy="-217.14" r="10.00px"/>
<text data-id="31" x="361.71" y="-217.14">R31</text>
<circle data-id="32" cx="686.50" cy="-377.19" r="10.00px"/>
<text data-id="32" x="686.50" y="-377.19">R32</text>
<circle data-id="33" cx="151.53" cy="-197.49" r="10.00px"/>
<text data-id="33" x="151.53" y="-197.49">R33</text>
<circle data-id="34" cx="17.34" cy="-121.51" r="10.00px"/>
<text data-id="34" x="17.34" y="-121.51">R34</text>
<circle data-id="35" cx="268.14" cy="-538.09" r="10.00px"/>
<text data-id="35" x="268.14" y="-538.09">R35</text>
<circle data-id="36" cx="490.94" cy="-379.71" r="10.00px"/>
<text data-id="36" x="490.94" y="-379.71">R36</text>
<circle data-id="37" cx="569.16" cy="-4.89" r="10.00px"/>
<text data-id="37" x="569.16" y="-4.89">R37</text>
<circle data-id="38" cx="1.45" cy="-527.89" r="10.00px"/>
<text data-id="38" x="1.45" y="-527.89">R38</text>
<circle data-id="39" cx="649.02" cy="-158.42" r="10.00px"/>
<text data-id="39" x="649.02" y="-158.42">R39</text>
<circle data-id="40" cx="222.32" cy="-560.21" r="10.00px"/>
<text data-id="40" x="222.32" y="-560.21">R40</text>
<circle data-id="41" cx="379.32" cy="-98.73" r="10.00px"/>
<text data-id="41" x="379.32" y="-98.73">R41</text>
<circle data-id="42" cx="5.54" cy="-428.92" r="10.00px"/>
<text data-id="42" x="5.54" y="-428.92">R42</text>
<circle data-id="43" cx="407.32" cy="-449.60" r="10.00px"/>
<text data-id="43" x="407.32" y="-449.60">R43</text>
<circle data-id="44" cx="515.15" cy="-497.06" r="10.00px"/>
<text data-id="44" x="515.15" y="-497.06">R44</text>
<circle data-id="45" cx="458.21" cy="-496.21" r="10.00px"/>
<text data-id="45" x="458.21" y="-496.21">R45</text>
<circle data-id="46" cx="141.26" cy="-599.88" r="10.00px"/>
<text data-id="46" x="141.26" y="-599.88">R46</text>
<circle data-id="47" cx="53.02" cy="-390.38" r="10.00px"/>
<text data-id="47" x="53.02" y="-390.38">R47</text>
<circle data-id="48" cx="328.49" cy="-299.35" r="10.00px"/>
<text data-id="48" x="328.49" y="-299.35">R48</text>
<circle data-id="49" cx="171.10" cy="-103.76" r="10.00px"/>
<text data-id="49" x="171.10" y="-103.76">R49</text>
</svg>
