<svg id="topo" width="2324.46" height="2319.84" viewBox="-44.97 -42.46 2324.46 2319.84" xmlns="http://www.w3.org/2000/svg">
<style>#topo path {fill: none; stroke: grey; stroke-width: 6;} #topo circle {fill: lightblue; stroke: none;} #topo text {fill: black; stroke: none; font-size: 16; font-family: sans-serif; text-anchor:middle;}</style>
<path d="M544.48,2059.52,643.74,2012.29"/>
<path d="M544.48,2059.52,620.42,2093.11"/>
<path d="M544.48,2059.52,493.35,2202.18"/>
<path d="M544.48,2059.52,549.03,1966.55"/>
<path d="M544.48,2059.52,477.95,2021.23"/>
<path d="M487.85,1597.62,489.22,1680.48"/>
<path d="M487.85,1597.62,406.57,1591.15"/>
<path d="M487.85,1597.62,498.99,1569.64"/>
<path d="M911.29,1745.79,1025.31,1648.46"/>
<path d="M911.29,1745.79,798.83,1826.46"/>
<path d="M911.29,1745.79,847.27,1665.29"/>
<path d="M911.29,1745.79,933.19,1832.60"/>
<path d="M1084.60,1643.32,1093.58,1608.95"/>
<path d="M1084.60,1643.32,1025.31,1648.46"/>
<path d="M1084.60,1643.32,1034.53,1610.49"/>
<path d="M1084.60,1643.32,1209.44,1666.43"/>
<path d="M1084.60,1643.32,1103.85,1728.99"/>
<path d="M1584.13,567.41,1648.27,511.93"/>
<path d="M1584.13,567.41,1689.24,590.96"/>
<path d="M1584.13,567.41,1646.27,686.46"/>
<path d="M1584.13,567.41,1540.69,598.97"/>
<path d="M1833.04,1034.35,1776.94,1071.30"/>
<path d="M1833.04,1034.35,1844.08,917.32"/>
<path d="M1833.04,1034.35,1992.96,1039.42"/>
<path d="M1833.04,1034.35,1863.37,1120.38"/>
<path d="M1159.04,1033.18,1237.85,1109.80"/>
<path d="M1159.04,1033.18,1126.25,1065.60"/>
<path d="M1159.04,1033.18,1094.38,1030.23"/>
<path d="M1159.04,1033.18,1123.86,969.01"/>
<path d="M0.54,1512.35,53.07,1548.82"/>
<path d="M0.54,1512.35,46.58,1401.63"/>
<path d="M1648.27,511.93,1610.45,437.63"/>
<path d="M1648.27,511.93,1747.29,436.49"/>
<path d="M1648.27,511.93,1681.77,540.43"/>
<path d="M1207.39,530.45,1200.22,462.75"/>
<path d="M1207.39,530.45,1197.80,635.61"/>
<path d="M1207.39,530.45,1146.22,509.97"/>
<path d="M1207.39,530.45,1282.80,570.83"/>
<path d="M1207.39,530.45,1134.21,550.68"/>
<path d="M1262.74,866.34,1404.48,940.00"/>
<path d="M1262.74,866.34,1246.34,817.12"/>
<path d="M1262.74,866.34,1123.86,969.01"/>
<path d="M1262.74,866.34,1297.25,1098.20"/>
<path d="M2069.43,2062.29,2050.56,1906.92"/>
<path d="M2069.43,2062.29,2110.39,2058.15"/>
<path d="M2069.43,2062.29,1921.60,1961.30"/>
<path d="M2069.43,2062.29,2013.95,2136.30"/>
<path d="M1733.17,1348.53,1766.51,1349.51"/>
<path d="M1733.17,1348.53,1727.56,1202.04"/>
<path d="M1733.17,1348.53,1553.76,1260.79"/>
<path d="M1733.17,1348.53,1605.90,1414.19"/>
<path d="M347.32,1619.10,409.36,1699.95"/>
<path d="M347.32,1619.10,357.22,1569.97"/>
<path d="M347.32,1619.10,406.57,1591.15"/>
<path d="M347.32,1619.10,325.13,1600.73"/>
<path d="M2160.62,2.54,2163.38,27.99"/>
<path d="M439.29,568.26,405.55,462.50"/>
<path d="M439.29,568.26,455.40,628.45"/>
<path d="M439.29,568.26,194.18,577.18"/>
<path d="M439.29,568.26,539.76,533.49"/>
<path d="M339.39,2052.09,408.25,2091.13"/>
<path d="M339.39,2052.09,313.64,1933.62"/>
<path d="M339.39,2052.09,258.41,1955.10"/>
<path d="M339.39,2052.09,159.96,2104.54"/>
<path d="M339.39,2052.09,338.75,2186.98"/>
<path d="M1444.97,2112.69,1410.12,2114.95"/>
<path d="M1444.97,2112.69,1445.08,2006.66"/>
<path d="M1444.97,2112.69,1488.47,2130.12"/>
<path d="M1138.50,1476.40,1067.31,1431.28"/>
<path d="M1138.50,1476.40,1274.35,1336.82"/>
<path d="M1138.50,1476.40,1138.33,1515.34"/>
<path d="M1339.58,2065.27,1303.79,1958.64"/>
<path d="M1339.58,2065.27,1262.48,2116.59"/>
<path d="M1339.58,2065.27,1244.49,2009.47"/>
<path d="M1339.58,2065.27,1367.28,2119.56"/>
<path d="M1339.58,2065.27,1445.08,2006.66"/>
<path d="M410.16,426.88,405.55,462.50"/>
<path d="M410.16,426.88,423.55,401.36"/>
<path d="M410.16,426.88,327.64,351.42"/>
<path d="M1665.43,908.24,1612.74,891.76"/>
<path d="M1665.43,908.24,1662.66,1007.86"/>
<path d="M1665.43,908.24,1805.63,904.05"/>
<path d="M1665.43,908.24,1727.97,802.95"/>
<path d="M1093.58,1608.95,1034.53,1610.49"/>
<path d="M1093.58,1608.95,1180.87,1543.58"/>
<path d="M1093.58,1608.95,1209.44,1666.43"/>
<path d="M1093.58,1608.95,1138.33,1515.34"/>
<path d="M1854.01,247.60,1809.44,220.92"/>
<path d="M1854.01,247.60,1919.63,330.53"/>
<path d="M1854.01,247.60,1963.33,187.97"/>
<path d="M1854.01,247.60,1977.34,215.62"/>
<path d="M1854.01,247.60,1814.37,332.09"/>
<path d="M1025.31,1648.46,847.27,1665.29"/>
<path d="M1025.31,1648.46,1034.53,1610.49"/>
<path d="M2216.16,1321.64,2123.65,1291.50"/>
<path d="M2216.16,1321.64,2145.02,1378.36"/>
<path d="M1575.01,79.37,1538.37,222.67"/>
<path d="M1575.01,79.37,1676.49,151.70"/>
<path d="M1575.01,79.37,1496.36,93.44"/>
<path d="M1575.01,79.37,1694.45,17.83"/>
<path d="M458.17,66.72,502.19,152.66"/>
<path d="M458.17,66.72,349.29,61.09"/>
<path d="M458.17,66.72,567.36,50.64"/>
<path d="M2049.97,1252.10,2034.06,1356.36"/>
<path d="M2049.97,1252.10,2073.81,1160.04"/>
<path d="M2049.97,1252.10,2123.65,1291.50"/>
<path d="M2049.97,1252.10,1984.52,1148.24"/>
<path d="M2049.97,1252.10,1890.89,1285.07"/>
<path d="M1491.64,1598.61,1514.27,1554.41"/>
<path d="M1491.64,1598.61,1475.49,1674.89"/>
<path d="M1491.64,1598.61,1529.38,1621.20"/>
<path d="M1491.64,1598.61,1409.15,1601.57"/>
<path d="M1281.73,709.94,1272.53,669.42"/>
<path d="M1281.73,709.94,1251.48,763.97"/>
<path d="M1281.73,709.94,1373.20,670.68"/>
<path d="M1843.78,364.34,1747.29,436.49"/>
<path d="M1843.78,364.34,1919.63,330.53"/>
<path d="M1843.78,364.34,1849.90,457.97"/>
<path d="M1843.78,364.34,1814.37,332.09"/>
<path d="M213.41,187.97,257.02,108.16"/>
<path d="M213.41,187.97,186.84,172.68"/>
<path d="M213.41,187.97,327.64,351.42"/>
<path d="M213.41,187.97,163.68,272.07"/>
<path d="M213.41,187.97,379.36,254.20"/>
<path d="M168.02,777.55,88.60,638.88"/>
<path d="M168.02,777.55,164.28,843.17"/>
<path d="M168.02,777.55,339.01,806.17"/>
<path d="M168.02,777.55,252.02,687.31"/>
<path d="M122.55,1221.18,142.01,1201.62"/>
<path d="M122.55,1221.18,46.58,1401.63"/>
<path d="M122.55,1221.18,79.99,1158.50"/>
<path d="M122.55,1221.18,196.64,1299.05"/>
<path d="M1454.90,521.45,1309.37,447.26"/>
<path d="M1454.90,521.45,1610.45,437.63"/>
<path d="M1454.90,521.45,1540.69,598.97"/>
<path d="M1454.90,521.45,1458.30,622.05"/>
<path d="M1454.90,521.45,1441.19,310.84"/>
<path d="M310.31,1008.53,277.41,907.87"/>
<path d="M310.31,1008.53,315.45,1037.02"/>
<path d="M310.31,1008.53,229.08,977.43"/>
<path d="M1769.63,1770.70,1715.74,1844.59"/>
<path d="M1769.63,1770.70,1797.17,1797.08"/>
<path d="M1769.63,1770.70,1594.42,1714.88"/>
<path d="M1769.63,1770.70,1814.44,1731.19"/>
<path d="M2034.06,1356.36,1978.56,1499.07"/>
<path d="M2034.06,1356.36,2123.65,1291.50"/>
<path d="M2034.06,1356.36,2118.06,1422.25"/>
<path d="M2034.06,1356.36,1890.89,1285.07"/>
<path d="M2034.06,1356.36,2145.02,1378.36"/>
<path d="M489.22,1680.48,664.31,1673.85"/>
<path d="M489.22,1680.48,409.36,1699.95"/>
<path d="M489.22,1680.48,551.93,1767.43"/>
<path d="M502.19,152.66,525.77,253.61"/>
<path d="M502.19,152.66,690.72,144.49"/>
<path d="M502.19,152.66,567.36,50.64"/>
<path d="M502.19,152.66,379.36,254.20"/>
<path d="M1117.26,1195.21,1137.97,1240.83"/>
<path d="M1117.26,1195.21,1126.25,1065.60"/>
<path d="M1117.26,1195.21,943.89,1228.74"/>
<path d="M1117.26,1195.21,1180.81,1210.51"/>
<path d="M1689.24,590.96,1784.61,720.44"/>
<path d="M1689.24,590.96,1646.27,686.46"/>
<path d="M1689.24,590.96,1817.39,643.38"/>
<path d="M1689.24,590.96,1681.77,540.43"/>
<path d="M463.02,332.66,525.77,253.61"/>
<path d="M463.02,332.66,421.47,359.42"/>
<path d="M463.02,332.66,431.62,293.99"/>
<path d="M463.02,332.66,536.86,419.48"/>
<path d="M463.02,332.66,563.45,345.31"/>
<path d="M1477.76,125.31,1538.37,222.67"/>
<path d="M1477.76,125.31,1452.61,203.52"/>
<path d="M1477.76,125.31,1496.36,93.44"/>
<path d="M1477.76,125.31,1412.04,70.48"/>
<path d="M1477.76,125.31,1393.04,137.73"/>
<path d="M53.07,1548.82,103.30,1563.41"/>
<path d="M53.07,1548.82,10.35,1729.13"/>
<path d="M53.07,1548.82,96.34,1532.84"/>
<path d="M798.83,1826.46,902.19,1882.95"/>
<path d="M798.83,1826.46,763.05,1790.28"/>
<path d="M798.83,1826.46,848.65,1916.05"/>
<path d="M978.09,1943.24,902.19,1882.95"/>
<path d="M978.09,1943.24,814.81,2112.71"/>
<path d="M978.09,1943.24,1042.72,1851.36"/>
<path d="M978.09,1943.24,1057.52,1969.17"/>
<path d="M2030.38,1698.07,1917.74,1783.81"/>
<path d="M2030.38,1698.07,2075.58,1585.07"/>
<path d="M2030.38,1698.07,1957.47,1618.48"/>
<path d="M2030.38,1698.07,2110.82,1724.78"/>
<path d="M418.04,873.11,456.96,833.66"/>
<path d="M418.04,873.11,468.61,887.52"/>
<path d="M418.04,873.11,374.55,831.51"/>
<path d="M418.04,873.11,357.80,855.63"/>
<path d="M1309.37,447.26,1225.11,377.29"/>
<path d="M1309.37,447.26,1328.90,328.83"/>
<path d="M1309.37,447.26,1200.22,462.75"/>
<path d="M1309.37,447.26,1282.80,570.83"/>
<path d="M752.06,42.03,688.67,36.98"/>
<path d="M752.06,42.03,690.72,144.49"/>
<path d="M752.06,42.03,943.58,4.12"/>
<path d="M752.06,42.03,849.15,191.13"/>
<path d="M1382.48,629.70,1273.38,604.21"/>
<path d="M1382.48,629.70,1373.20,670.68"/>
<path d="M1382.48,629.70,1282.80,570.83"/>
<path d="M1382.48,629.70,1458.30,622.05"/>
<path d="M33.16,943.85,62.08,957.76"/>
<path d="M33.16,943.85,48.71,862.83"/>
<path d="M62.08,957.76,112.13,957.21"/>
<path d="M62.08,957.76,29.33,1080.93"/>
<path d="M62.08,957.76,111.64,925.60"/>
<path d="M338.22,91.58,257.02,108.16"/>
<path d="M338.22,91.58,349.29,61.09"/>
<path d="M338.22,91.58,379.36,254.20"/>
<path d="M1011.86,121.15,1172.62,122.54"/>
<path d="M1011.86,121.15,1037.39,248.44"/>
<path d="M1011.86,121.15,1014.51,26.04"/>
<path d="M1011.86,121.15,950.41,197.91"/>
<path d="M800.58,928.92,763.45,987.09"/>
<path d="M800.58,928.92,746.50,933.79"/>
<path d="M800.58,928.92,842.37,1021.69"/>
<path d="M800.58,928.92,778.15,891.77"/>
<path d="M800.58,928.92,917.65,964.62"/>
<path d="M1158.56,725.41,1272.53,669.42"/>
<path d="M1158.56,725.41,962.15,623.95"/>
<path d="M1158.56,725.41,1197.80,635.61"/>
<path d="M1158.56,725.41,1251.48,763.97"/>
<path d="M1158.56,725.41,982.06,810.50"/>
<path d="M1303.79,1958.64,1222.83,1930.09"/>
<path d="M1303.79,1958.64,1244.49,2009.47"/>
<path d="M1303.79,1958.64,1343.02,1867.44"/>
<path d="M1303.79,1958.64,1406.67,1931.67"/>
<path d="M1049.98,1402.18,1137.97,1240.83"/>
<path d="M1049.98,1402.18,1005.87,1424.21"/>
<path d="M1049.98,1402.18,943.89,1228.74"/>
<path d="M1049.98,1402.18,1067.31,1431.28"/>
<path d="M1245.56,1141.62,1237.85,1109.80"/>
<path d="M1245.56,1141.62,1217.91,1218.98"/>
<path d="M1245.56,1141.62,1220.36,1139.10"/>
<path d="M1245.56,1141.62,1297.25,1098.20"/>
<path d="M1611.49,1448.63,1514.27,1554.41"/>
<path d="M1611.49,1448.63,1532.69,1429.89"/>
<path d="M1611.49,1448.63,1605.90,1414.19"/>
<path d="M1611.49,1448.63,1776.97,1510.24"/>
<path d="M257.02,108.16,186.84,172.68"/>
<path d="M257.02,108.16,148.05,71.55"/>
<path d="M1392.18,1393.02,1425.07,1402.13"/>
<path d="M1392.18,1393.02,1364.68,1395.52"/>
<path d="M1392.18,1393.02,1367.62,1365.74"/>
<path d="M1237.85,1109.80,1220.36,1139.10"/>
<path d="M1237.85,1109.80,1297.25,1098.20"/>
<path d="M1784.61,720.44,1646.27,686.46"/>
<path d="M1784.61,720.44,1817.39,643.38"/>
<path d="M1784.61,720.44,1817.17,795.40"/>
<path d="M1784.61,720.44,1727.97,802.95"/>
<path d="M1217.91,1218.98,1220.36,1139.10"/>
<path d="M1217.91,1218.98,1274.35,1336.82"/>
<path d="M1217.91,1218.98,1180.81,1210.51"/>
<path d="M1776.94,1071.30,1769.35,1115.15"/>
<path d="M1776.94,1071.30,1662.66,1007.86"/>
<path d="M1776.94,1071.30,1863.37,1120.38"/>
<path d="M1832.49,1527.08,1978.56,1499.07"/>
<path d="M1832.49,1527.08,1786.54,1556.20"/>
<path d="M1832.49,1527.08,1812.10,1436.15"/>
<path d="M1832.49,1527.08,1776.97,1510.24"/>
<path d="M1832.49,1527.08,1957.47,1618.48"/>
<path d="M293.01,1637.85,130.09,1746.03"/>
<path d="M293.01,1637.85,292.75,1576.15"/>
<path d="M293.01,1637.85,325.13,1600.73"/>
<path d="M88.60,638.88,75.12,608.00"/>
<path d="M88.60,638.88,194.18,577.18"/>
<path d="M88.60,638.88,252.02,687.31"/>
<path d="M653.67,837.80,644.27,797.94"/>
<path d="M653.67,837.80,552.69,909.15"/>
<path d="M653.67,837.80,682.96,852.13"/>
<path d="M653.67,837.80,620.18,956.11"/>
<path d="M664.31,1673.85,667.76,1733.40"/>
<path d="M664.31,1673.85,734.08,1657.55"/>
<path d="M664.31,1673.85,623.80,1550.58"/>
<path d="M2163.38,27.99,2186.82,101.26"/>
<path d="M2163.38,27.99,1996.11,57.42"/>
<path d="M35.10,1929.67,103.67,1896.69"/>
<path d="M35.10,1929.67,58.85,2000.18"/>
<path d="M35.10,1929.67,28.57,2001.36"/>
<path d="M35.10,1929.67,0.03,1858.20"/>
<path d="M35.10,1929.67,100.50,1970.49"/>
<path d="M847.27,1665.29,763.05,1790.28"/>
<path d="M847.27,1665.29,734.08,1657.55"/>
<path d="M847.27,1665.29,895.47,1565.33"/>
<path d="M847.27,1665.29,753.20,1515.01"/>
<path d="M1272.53,669.42,1197.80,635.61"/>
<path d="M1272.53,669.42,1273.38,604.21"/>
<path d="M1272.53,669.42,1373.20,670.68"/>
<path d="M1610.45,437.63,1633.57,388.05"/>
<path d="M1610.45,437.63,1441.19,310.84"/>
<path d="M1466.00,837.47,1612.74,891.76"/>
<path d="M1466.00,837.47,1603.27,807.58"/>
<path d="M1466.00,837.47,1404.48,940.00"/>
<path d="M1466.00,837.47,1251.48,763.97"/>
<path d="M1466.00,837.47,1467.36,712.88"/>
<path d="M488.04,1961.08,544.72,1882.90"/>
<path d="M488.04,1961.08,445.06,1915.60"/>
<path d="M488.04,1961.08,549.03,1966.55"/>
<path d="M488.04,1961.08,477.95,2021.23"/>
<path d="M43.50,615.77,60.75,568.23"/>
<path d="M43.50,615.77,75.12,608.00"/>
<path d="M2009.14,2180.72,1961.75,2175.21"/>
<path d="M2009.14,2180.72,2013.95,2136.30"/>
<path d="M2186.82,101.26,2138.71,169.02"/>
<path d="M2186.82,101.26,2178.56,190.64"/>
<path d="M2186.82,101.26,2211.80,99.76"/>
<path d="M456.96,833.66,468.61,887.52"/>
<path d="M456.96,833.66,488.94,796.14"/>
<path d="M1225.11,377.29,1200.22,462.75"/>
<path d="M1225.11,377.29,1253.94,316.99"/>
<path d="M1225.11,377.29,1160.36,291.34"/>
<path d="M2218.84,537.35,2127.20,567.05"/>
<path d="M2218.84,537.35,2151.80,316.03"/>
<path d="M2073.81,1160.04,2017.03,1111.13"/>
<path d="M2073.81,1160.04,2102.78,1125.73"/>
<path d="M584.94,700.45,644.27,797.94"/>
<path d="M584.94,700.45,521.85,742.75"/>
<path d="M584.94,700.45,568.53,636.52"/>
<path d="M584.94,700.45,724.06,743.27"/>
<path d="M578.19,1832.74,667.76,1733.40"/>
<path d="M578.19,1832.74,692.63,1864.50"/>
<path d="M578.19,1832.74,695.25,1810.19"/>
<path d="M578.19,1832.74,544.72,1882.90"/>
<path d="M578.19,1832.74,551.93,1767.43"/>
<path d="M1468.29,261.86,1538.37,222.67"/>
<path d="M1468.29,261.86,1452.61,203.52"/>
<path d="M1468.29,261.86,1441.19,310.84"/>
<path d="M409.36,1699.95,406.57,1591.15"/>
<path d="M409.36,1699.95,418.01,1799.39"/>
<path d="M1769.35,1115.15,1765.75,1159.17"/>
<path d="M1769.35,1115.15,1660.29,1111.56"/>
<path d="M1769.35,1115.15,1863.37,1120.38"/>
<path d="M902.19,1882.95,848.65,1916.05"/>
<path d="M902.19,1882.95,933.19,1832.60"/>
<path d="M557.49,1381.25,490.04,1358.39"/>
<path d="M557.49,1381.25,585.87,1347.78"/>
<path d="M557.49,1381.25,527.20,1418.54"/>
<path d="M557.49,1381.25,645.81,1443.34"/>
<path d="M408.25,2091.13,493.35,2202.18"/>
<path d="M408.25,2091.13,338.75,2186.98"/>
<path d="M408.25,2091.13,477.95,2021.23"/>
<path d="M2017.03,1111.13,2102.78,1125.73"/>
<path d="M2017.03,1111.13,1984.52,1148.24"/>
<path d="M2017.03,1111.13,2077.55,1072.37"/>
<path d="M2017.03,1111.13,1992.96,1039.42"/>
<path d="M2127.20,567.05,1918.27,570.40"/>
<path d="M2127.20,567.05,2172.63,758.60"/>
<path d="M2127.20,567.05,1926.14,758.87"/>
<path d="M2127.20,567.05,2022.72,332.38"/>
<path d="M2050.56,1906.92,2075.19,1882.65"/>
<path d="M2050.56,1906.92,1921.60,1961.30"/>
<path d="M2050.56,1906.92,1961.63,1841.70"/>
<path d="M1140.50,1818.47,1216.25,1888.62"/>
<path d="M1140.50,1818.47,1116.49,1947.80"/>
<path d="M1140.50,1818.47,1042.72,1851.36"/>
<path d="M1140.50,1818.47,1293.34,1732.38"/>
<path d="M1140.50,1818.47,1103.85,1728.99"/>
<path d="M1425.07,1402.13,1532.69,1429.89"/>
<path d="M1425.07,1402.13,1409.15,1601.57"/>
<path d="M1425.07,1402.13,1420.54,1310.06"/>
<path d="M2075.19,1882.65,2111.95,1910.54"/>
<path d="M2075.19,1882.65,2175.56,1788.53"/>
<path d="M2075.19,1882.65,2110.82,1724.78"/>
<path d="M1216.25,1888.62,1222.83,1930.09"/>
<path d="M1216.25,1888.62,1343.02,1867.44"/>
<path d="M1216.25,1888.62,1293.34,1732.38"/>
<path d="M694.20,1008.82,763.45,987.09"/>
<path d="M694.20,1008.82,564.74,1040.52"/>
<path d="M694.20,1008.82,696.11,1083.52"/>
<path d="M694.20,1008.82,746.50,933.79"/>
<path d="M694.20,1008.82,620.18,956.11"/>
<path d="M2147.84,886.93,2172.63,758.60"/>
<path d="M2147.84,886.93,2034.20,1023.89"/>
<path d="M2147.84,886.93,2054.18,805.12"/>
<path d="M644.27,797.94,521.85,742.75"/>
<path d="M644.27,797.94,724.06,743.27"/>
<path d="M130.09,1746.03,103.30,1563.41"/>
<path d="M130.09,1746.03,135.56,1857.47"/>
<path d="M130.09,1746.03,7.74,1793.95"/>
<path d="M130.09,1746.03,10.35,1729.13"/>
<path d="M2111.95,1910.54,2110.39,2058.15"/>
<path d="M2111.95,1910.54,2189.94,1902.86"/>
<path d="M468.61,887.52,523.89,910.18"/>
<path d="M468.61,887.52,436.25,1054.47"/>
<path d="M1820.49,1382.24,1793.22,1373.33"/>
<path d="M1820.49,1382.24,1848.44,1333.51"/>
<path d="M1820.49,1382.24,1818.41,1410.51"/>
<path d="M1961.75,2175.21,2013.95,2136.30"/>
<path d="M1961.75,2175.21,1724.52,2114.14"/>
<path d="M525.77,253.61,618.96,300.60"/>
<path d="M525.77,253.61,431.62,293.99"/>
<path d="M525.77,253.61,690.72,144.49"/>
<path d="M525.77,253.61,563.45,345.31"/>
<path d="M962.15,623.95,976.97,549.44"/>
<path d="M962.15,623.95,897.68,756.21"/>
<path d="M112.13,957.21,169.52,1044.28"/>
<path d="M112.13,957.21,183.06,939.83"/>
<path d="M112.13,957.21,111.64,925.60"/>
<path d="M886.08,1004.66,902.90,1062.09"/>
<path d="M886.08,1004.66,842.37,1021.69"/>
<path d="M886.08,1004.66,917.65,964.62"/>
<path d="M1500.15,702.28,1603.27,807.58"/>
<path d="M1500.15,702.28,1646.27,686.46"/>
<path d="M1500.15,702.28,1540.69,598.97"/>
<path d="M1500.15,702.28,1467.36,712.88"/>
<path d="M1500.15,702.28,1458.30,622.05"/>
<path d="M421.47,359.42,431.62,293.99"/>
<path d="M421.47,359.42,423.55,401.36"/>
<path d="M421.47,359.42,327.64,351.42"/>
<path d="M2102.78,1125.73,2077.55,1072.37"/>
<path d="M2110.39,2058.15,2146.95,2062.70"/>
<path d="M100.12,1134.60,142.01,1201.62"/>
<path d="M100.12,1134.60,166.08,1162.33"/>
<path d="M100.12,1134.60,169.52,1044.28"/>
<path d="M100.12,1134.60,79.99,1158.50"/>
<path d="M100.12,1134.60,29.33,1080.93"/>
<path d="M142.01,1201.62,166.08,1162.33"/>
<path d="M142.01,1201.62,79.99,1158.50"/>
<path d="M142.01,1201.62,239.98,1211.16"/>
<path d="M763.45,987.09,746.50,933.79"/>
<path d="M763.45,987.09,842.37,1021.69"/>
<path d="M763.45,987.09,801.09,1070.66"/>
<path d="M2158.76,1432.42,2209.80,1538.23"/>
<path d="M2158.76,1432.42,2118.06,1422.25"/>
<path d="M2158.76,1432.42,2145.02,1378.36"/>
<path d="M133.47,424.40,158.70,428.75"/>
<path d="M133.47,424.40,102.54,488.08"/>
<path d="M133.47,424.40,100.59,379.27"/>
<path d="M166.08,1162.33,169.52,1044.28"/>
<path d="M166.08,1162.33,239.98,1211.16"/>
<path d="M166.08,1162.33,260.98,1151.49"/>
<path d="M1364.68,1395.52,1367.62,1365.74"/>
<path d="M1364.68,1395.52,1267.91,1532.40"/>
<path d="M1328.90,328.83,1350.32,287.53"/>
<path d="M1328.90,328.83,1253.94,316.99"/>
<path d="M552.69,909.15,566.21,949.64"/>
<path d="M552.69,909.15,523.89,910.18"/>
<path d="M197.17,480.36,158.70,428.75"/>
<path d="M197.17,480.36,405.55,462.50"/>
<path d="M197.17,480.36,251.92,369.51"/>
<path d="M197.17,480.36,102.54,488.08"/>
<path d="M197.17,480.36,194.18,577.18"/>
<path d="M1809.44,220.92,1732.61,180.14"/>
<path d="M1809.44,220.92,1849.17,82.77"/>
<path d="M1034.53,1610.49,944.64,1565.65"/>
<path d="M1200.22,462.75,1146.22,509.97"/>
<path d="M103.67,1896.69,135.56,1857.47"/>
<path d="M103.67,1896.69,100.50,1970.49"/>
<path d="M362.02,1541.66,357.22,1569.97"/>
<path d="M362.02,1541.66,271.11,1458.73"/>
<path d="M758.80,765.33,682.96,852.13"/>
<path d="M758.80,765.33,778.15,891.77"/>
<path d="M758.80,765.33,826.89,801.01"/>
<path d="M758.80,765.33,724.06,743.27"/>
<path d="M1222.83,1930.09,1206.79,1974.94"/>
<path d="M2234.49,1791.11,2194.73,1766.84"/>
<path d="M2234.49,1791.11,2212.26,1843.28"/>
<path d="M359.36,1906.55,313.64,1933.62"/>
<path d="M359.36,1906.55,445.06,1915.60"/>
<path d="M359.36,1906.55,418.01,1799.39"/>
<path d="M1172.62,122.54,1037.39,248.44"/>
<path d="M1172.62,122.54,1014.51,26.04"/>
<path d="M1172.62,122.54,1269.13,51.66"/>
<path d="M1172.62,122.54,1256.84,193.15"/>
<path d="M1172.62,122.54,1160.36,291.34"/>
<path d="M217.41,1479.59,292.75,1576.15"/>
<path d="M217.41,1479.59,271.11,1458.73"/>
<path d="M217.41,1479.59,199.36,1455.45"/>
<path d="M1022.72,317.03,1037.39,248.44"/>
<path d="M1022.72,317.03,989.81,341.15"/>
<path d="M1022.72,317.03,950.31,263.08"/>
<path d="M1022.72,317.03,1103.26,311.63"/>
<path d="M1538.37,222.67,1452.61,203.52"/>
<path d="M1538.37,222.67,1633.57,388.05"/>
<path d="M1538.37,222.67,1674.86,195.55"/>
<path d="M357.22,1569.97,406.57,1591.15"/>
<path d="M357.22,1569.97,325.13,1600.73"/>
<path d="M1296.00,183.46,1256.84,193.15"/>
<path d="M1296.00,183.46,1320.87,113.13"/>
<path d="M1296.00,183.46,1304.21,230.87"/>
<path d="M1296.00,183.46,1368.22,198.94"/>
<path d="M1715.74,1844.59,1730.60,1914.94"/>
<path d="M1715.74,1844.59,1661.71,1905.93"/>
<path d="M1715.74,1844.59,1797.17,1797.08"/>
<path d="M1715.74,1844.59,1594.42,1714.88"/>
<path d="M1859.86,1701.85,1882.66,1661.35"/>
<path d="M1859.86,1701.85,1917.74,1783.81"/>
<path d="M1859.86,1701.85,1814.44,1731.19"/>
<path d="M313.64,1933.62,258.41,1955.10"/>
<path d="M1514.27,1554.41,1532.69,1429.89"/>
<path d="M667.76,1733.40,695.25,1810.19"/>
<path d="M667.76,1733.40,551.93,1767.43"/>
<path d="M1367.62,1365.74,1274.35,1336.82"/>
<path d="M1367.62,1365.74,1420.54,1310.06"/>
<path d="M1037.39,248.44,950.31,263.08"/>
<path d="M1037.39,248.44,1103.26,311.63"/>
<path d="M1037.39,248.44,950.41,197.91"/>
<path d="M1766.51,1349.51,1793.22,1373.33"/>
<path d="M1766.51,1349.51,1768.01,1191.99"/>
<path d="M158.70,428.75,251.92,369.51"/>
<path d="M1197.80,635.61,1273.38,604.21"/>
<path d="M1197.80,635.61,1134.21,550.68"/>
<path d="M1918.27,570.40,1926.14,758.87"/>
<path d="M1918.27,570.40,1817.39,643.38"/>
<path d="M1918.27,570.40,1899.72,464.00"/>
<path d="M2194.73,1766.84,2175.56,1788.53"/>
<path d="M2194.73,1766.84,2110.82,1724.78"/>
<path d="M1747.29,436.49,1721.63,396.24"/>
<path d="M1747.29,436.49,1849.90,457.97"/>
<path d="M1747.29,436.49,1681.77,540.43"/>
<path d="M564.74,1040.52,566.21,949.64"/>
<path d="M564.74,1040.52,696.11,1083.52"/>
<path d="M564.74,1040.52,574.39,1144.84"/>
<path d="M564.74,1040.52,620.18,956.11"/>
<path d="M564.74,1040.52,460.24,1136.41"/>
<path d="M564.74,1040.52,436.25,1054.47"/>
<path d="M60.75,568.23,75.12,608.00"/>
<path d="M60.75,568.23,102.54,488.08"/>
<path d="M1612.74,891.76,1603.27,807.58"/>
<path d="M692.63,1864.50,695.25,1810.19"/>
<path d="M692.63,1864.50,685.22,1925.53"/>
<path d="M1603.27,807.58,1646.27,686.46"/>
<path d="M1603.27,807.58,1727.97,802.95"/>
<path d="M1805.18,1592.39,1786.54,1556.20"/>
<path d="M1805.18,1592.39,1882.66,1661.35"/>
<path d="M1426.97,2211.43,1410.12,2114.95"/>
<path d="M1426.97,2211.43,1464.44,2196.63"/>
<path d="M1978.56,1499.07,2118.06,1422.25"/>
<path d="M1978.56,1499.07,2075.58,1585.07"/>
<path d="M1978.56,1499.07,1957.47,1618.48"/>
<path d="M490.04,1358.39,527.20,1418.54"/>
<path d="M490.04,1358.39,271.11,1458.73"/>
<path d="M490.04,1358.39,421.20,1238.74"/>
<path d="M490.04,1358.39,555.41,1214.05"/>
<path d="M790.34,1169.70,823.63,1238.64"/>
<path d="M790.34,1169.70,770.09,1095.89"/>
<path d="M790.34,1169.70,759.32,1170.24"/>
<path d="M763.05,1790.28,734.08,1657.55"/>
<path d="M763.05,1790.28,742.80,1809.09"/>
<path d="M1646.27,686.46,1540.69,598.97"/>
<path d="M1646.27,686.46,1727.97,802.95"/>
<path d="M682.96,852.13,746.50,933.79"/>
<path d="M682.96,852.13,778.15,891.77"/>
<path d="M682.96,852.13,620.18,956.11"/>
<path d="M682.96,852.13,724.06,743.27"/>
<path d="M2172.63,758.60,2054.18,805.12"/>
<path d="M976.97,549.44,978.77,494.00"/>
<path d="M976.97,549.44,1134.21,550.68"/>
<path d="M566.21,949.64,620.18,956.11"/>
<path d="M1895.06,885.94,1926.14,758.87"/>
<path d="M1895.06,885.94,1844.08,917.32"/>
<path d="M1895.06,885.94,1992.96,1039.42"/>
<path d="M1895.06,885.94,1817.17,795.40"/>
<path d="M1895.06,885.94,2054.18,805.12"/>
<path d="M696.11,1083.52,681.93,1212.43"/>
<path d="M696.11,1083.52,574.39,1144.84"/>
<path d="M696.11,1083.52,770.09,1095.89"/>
<path d="M1273.38,604.21,1282.80,570.83"/>
<path d="M1262.48,2116.59,1244.49,2009.47"/>
<path d="M1262.48,2116.59,1208.93,2176.02"/>
<path d="M1262.48,2116.59,1367.28,2119.56"/>
<path d="M1159.26,2192.16,1175.25,2159.51"/>
<path d="M1159.26,2192.16,1122.67,2158.81"/>
<path d="M1159.26,2192.16,1195.86,2206.85"/>
<path d="M1732.61,180.14,1676.49,151.70"/>
<path d="M1732.61,180.14,1691.09,221.86"/>
<path d="M1732.61,180.14,1674.86,195.55"/>
<path d="M1732.61,180.14,1721.54,70.09"/>
<path d="M1732.61,180.14,1849.17,82.77"/>
<path d="M1926.14,758.87,1817.39,643.38"/>
<path d="M1926.14,758.87,1817.17,795.40"/>
<path d="M1926.14,758.87,2054.18,805.12"/>
<path d="M695.25,1810.19,742.80,1809.09"/>
<path d="M1721.63,396.24,1633.57,388.05"/>
<path d="M1721.63,396.24,1763.40,348.27"/>
<path d="M848.65,1916.05,685.22,1925.53"/>
<path d="M848.65,1916.05,757.50,2016.68"/>
<path d="M169.52,1044.28,183.06,939.83"/>
<path d="M169.52,1044.28,254.86,1073.95"/>
<path d="M169.52,1044.28,229.08,977.43"/>
<path d="M1180.87,1543.58,1267.91,1532.40"/>
<path d="M1180.87,1543.58,1209.44,1666.43"/>
<path d="M1180.87,1543.58,1138.33,1515.34"/>
<path d="M1180.87,1543.58,1265.24,1603.85"/>
<path d="M292.75,1576.15,271.11,1458.73"/>
<path d="M292.75,1576.15,325.13,1600.73"/>
<path d="M1727.56,1202.04,1671.74,1158.75"/>
<path d="M1727.56,1202.04,1768.01,1191.99"/>
<path d="M1116.49,1947.80,1206.79,1974.94"/>
<path d="M1116.49,1947.80,1042.72,1851.36"/>
<path d="M1116.49,1947.80,1057.52,1969.17"/>
<path d="M1496.06,1187.81,1492.54,1138.61"/>
<path d="M1496.06,1187.81,1487.74,1238.76"/>
<path d="M1496.06,1187.81,1527.88,1216.35"/>
<path d="M1921.60,1961.30,1899.17,1881.58"/>
<path d="M1921.60,1961.30,2013.95,2136.30"/>
<path d="M1921.60,1961.30,1743.73,1987.46"/>
<path d="M2209.80,1538.23,2161.54,1593.70"/>
<path d="M544.72,1882.90,445.06,1915.60"/>
<path d="M544.72,1882.90,685.22,1925.53"/>
<path d="M544.72,1882.90,418.01,1799.39"/>
<path d="M544.72,1882.90,549.03,1966.55"/>
<path d="M902.90,1062.09,842.37,1021.69"/>
<path d="M902.90,1062.09,943.89,1228.74"/>
<path d="M902.90,1062.09,1094.38,1030.23"/>
<path d="M1553.76,1260.79,1671.74,1158.75"/>
<path d="M1553.76,1260.79,1550.97,1362.34"/>
<path d="M1553.76,1260.79,1527.88,1216.35"/>
<path d="M405.55,462.50,539.76,533.49"/>
<path d="M1730.60,1914.94,1661.71,1905.93"/>
<path d="M1730.60,1914.94,1845.35,1841.84"/>
<path d="M1730.60,1914.94,1743.73,1987.46"/>
<path d="M637.82,457.39,633.08,533.75"/>
<path d="M637.82,457.39,536.86,419.48"/>
<path d="M637.82,457.39,777.46,438.96"/>
<path d="M637.82,457.39,590.42,494.21"/>
<path d="M681.93,1212.43,585.87,1347.78"/>
<path d="M681.93,1212.43,765.11,1406.54"/>
<path d="M681.93,1212.43,574.39,1144.84"/>
<path d="M681.93,1212.43,759.32,1170.24"/>
<path d="M681.93,1212.43,555.41,1214.05"/>
<path d="M585.87,1347.78,645.81,1443.34"/>
<path d="M585.87,1347.78,555.41,1214.05"/>
<path d="M372.82,1100.51,260.98,1151.49"/>
<path d="M372.82,1100.51,341.81,1228.49"/>
<path d="M372.82,1100.51,460.24,1136.41"/>
<path d="M372.82,1100.51,315.45,1037.02"/>
<path d="M372.82,1100.51,436.25,1054.47"/>
<path d="M1268.87,241.02,1256.84,193.15"/>
<path d="M1268.87,241.02,1253.94,316.99"/>
<path d="M1268.87,241.02,1304.21,230.87"/>
<path d="M1268.87,241.02,1160.36,291.34"/>
<path d="M1244.49,2009.47,1206.79,1974.94"/>
<path d="M1899.17,1881.58,1931.18,1853.87"/>
<path d="M1899.17,1881.58,1845.35,1841.84"/>
<path d="M58.85,2000.18,130.42,2012.78"/>
<path d="M58.85,2000.18,28.57,2001.36"/>
<path d="M58.85,2000.18,100.50,1970.49"/>
<path d="M30.55,49.29,37.35,23.17"/>
<path d="M30.55,49.29,119.32,142.93"/>
<path d="M30.55,49.29,148.05,71.55"/>
<path d="M1919.63,330.53,1977.34,215.62"/>
<path d="M1919.63,330.53,2022.72,332.38"/>
<path d="M1919.63,330.53,1899.72,464.00"/>
<path d="M46.58,1401.63,143.02,1453.85"/>
<path d="M46.58,1401.63,96.34,1532.84"/>
<path d="M765.11,1406.54,823.63,1238.64"/>
<path d="M765.11,1406.54,645.81,1443.34"/>
<path d="M765.11,1406.54,753.20,1515.01"/>
<path d="M765.11,1406.54,969.25,1458.50"/>
<path d="M79.99,1158.50,29.33,1080.93"/>
<path d="M37.35,23.17,148.05,71.55"/>
<path d="M823.63,1238.64,943.89,1228.74"/>
<path d="M1931.18,1853.87,1917.74,1783.81"/>
<path d="M1931.18,1853.87,1961.63,1841.70"/>
<path d="M537.02,609.69,455.40,628.45"/>
<path d="M537.02,609.69,568.53,636.52"/>
<path d="M537.02,609.69,470.08,659.45"/>
<path d="M537.02,609.69,560.91,594.90"/>
<path d="M618.96,300.60,743.33,234.53"/>
<path d="M618.96,300.60,690.72,144.49"/>
<path d="M618.96,300.60,563.45,345.31"/>
<path d="M618.96,300.60,797.99,370.99"/>
<path d="M2233.34,2007.04,2223.90,1967.97"/>
<path d="M2233.34,2007.04,2146.95,2062.70"/>
<path d="M643.74,2012.29,685.22,1925.53"/>
<path d="M643.74,2012.29,620.42,2093.11"/>
<path d="M643.74,2012.29,757.50,2016.68"/>
<path d="M643.74,2012.29,741.92,2087.02"/>
<path d="M643.74,2012.29,549.03,1966.55"/>
<path d="M989.81,341.15,950.31,263.08"/>
<path d="M989.81,341.15,978.77,494.00"/>
<path d="M989.81,341.15,1087.64,477.81"/>
<path d="M989.81,341.15,894.07,391.09"/>
<path d="M1475.49,1674.89,1529.38,1621.20"/>
<path d="M1475.49,1674.89,1470.44,1735.80"/>
<path d="M1475.49,1674.89,1409.15,1601.57"/>
<path d="M1404.48,940.00,1492.54,1138.61"/>
<path d="M1404.48,940.00,1297.25,1098.20"/>
<path d="M1786.54,1556.20,1596.02,1652.73"/>
<path d="M1786.54,1556.20,1776.97,1510.24"/>
<path d="M1676.49,151.70,1674.86,195.55"/>
<path d="M1676.49,151.70,1721.54,70.09"/>
<path d="M950.31,263.08,950.41,197.91"/>
<path d="M374.55,831.51,339.01,806.17"/>
<path d="M374.55,831.51,357.80,855.63"/>
<path d="M534.24,2232.38,620.42,2093.11"/>
<path d="M534.24,2232.38,493.35,2202.18"/>
<path d="M534.24,2232.38,690.68,2173.67"/>
<path d="M277.41,907.87,183.06,939.83"/>
<path d="M277.41,907.87,164.28,843.17"/>
<path d="M277.41,907.87,357.80,855.63"/>
<path d="M277.41,907.87,229.08,977.43"/>
<path d="M130.42,2012.78,258.41,1955.10"/>
<path d="M130.42,2012.78,159.96,2104.54"/>
<path d="M130.42,2012.78,100.50,1970.49"/>
<path d="M933.19,1832.60,1042.72,1851.36"/>
<path d="M2138.71,169.02,2178.56,190.64"/>
<path d="M2138.71,169.02,2104.81,252.66"/>
<path d="M2138.71,169.02,1994.44,164.00"/>
<path d="M1350.32,287.53,1441.19,310.84"/>
<path d="M1350.32,287.53,1304.21,230.87"/>
<path d="M1350.32,287.53,1368.22,198.94"/>
<path d="M633.08,533.75,560.91,594.90"/>
<path d="M633.08,533.75,590.42,494.21"/>
<path d="M978.77,494.00,1087.64,477.81"/>
<path d="M978.77,494.00,894.07,391.09"/>
<path d="M978.77,494.00,844.91,472.73"/>
<path d="M1426.37,1885.60,1343.02,1867.44"/>
<path d="M1426.37,1885.60,1453.10,1889.90"/>
<path d="M1426.37,1885.60,1406.67,1931.67"/>
<path d="M1426.37,1885.60,1470.44,1735.80"/>
<path d="M2141.21,2112.01,2146.95,2062.70"/>
<path d="M1882.66,1661.35,1957.47,1618.48"/>
<path d="M1410.12,2114.95,1367.28,2119.56"/>
<path d="M1540.69,598.97,1458.30,622.05"/>
<path d="M1963.33,187.97,1977.34,215.62"/>
<path d="M1963.33,187.97,1849.17,82.77"/>
<path d="M1963.33,187.97,1994.44,164.00"/>
<path d="M75.27,274.53,44.56,372.71"/>
<path d="M75.27,274.53,124.36,262.58"/>
<path d="M75.27,274.53,100.59,379.27"/>
<path d="M143.02,1453.85,175.54,1420.62"/>
<path d="M143.02,1453.85,199.36,1455.45"/>
<path d="M143.02,1453.85,96.34,1532.84"/>
<path d="M1661.71,1905.93,1608.61,1934.17"/>
<path d="M1661.71,1905.93,1521.67,1751.93"/>
<path d="M1452.61,203.52,1393.04,137.73"/>
<path d="M1452.61,203.52,1368.22,198.94"/>
<path d="M527.20,1418.54,542.62,1471.45"/>
<path d="M1175.25,2159.51,1208.93,2176.02"/>
<path d="M1175.25,2159.51,1122.67,2158.81"/>
<path d="M2175.56,1788.53,2212.26,1843.28"/>
<path d="M2175.56,1788.53,2110.82,1724.78"/>
<path d="M1464.44,2196.63,1581.94,2170.76"/>
<path d="M1464.44,2196.63,1488.47,2130.12"/>
<path d="M1137.97,1240.83,1180.81,1210.51"/>
<path d="M1797.17,1797.08,1845.35,1841.84"/>
<path d="M1797.17,1797.08,1814.44,1731.19"/>
<path d="M44.56,372.71,19.29,395.17"/>
<path d="M44.56,372.71,100.59,379.27"/>
<path d="M2123.65,1291.50,2145.02,1378.36"/>
<path d="M746.50,933.79,778.15,891.77"/>
<path d="M746.50,933.79,620.18,956.11"/>
<path d="M1126.25,1065.60,1220.36,1139.10"/>
<path d="M1126.25,1065.60,1094.38,1030.23"/>
<path d="M1014.51,26.04,943.58,4.12"/>
<path d="M1343.02,1867.44,1406.67,1931.67"/>
<path d="M1343.02,1867.44,1293.34,1732.38"/>
<path d="M431.62,293.99,379.36,254.20"/>
<path d="M183.06,939.83,164.28,843.17"/>
<path d="M183.06,939.83,111.64,925.60"/>
<path d="M183.06,939.83,229.08,977.43"/>
<path d="M911.61,185.77,950.41,197.91"/>
<path d="M911.61,185.77,849.15,191.13"/>
<path d="M0.03,1858.20,7.74,1793.95"/>
<path d="M271.11,1458.73,242.99,1327.17"/>
<path d="M445.06,1915.60,418.01,1799.39"/>
<path d="M1269.13,51.66,1320.87,113.13"/>
<path d="M814.81,2112.71,795.55,2194.77"/>
<path d="M814.81,2112.71,741.92,2087.02"/>
<path d="M814.81,2112.71,986.12,2134.58"/>
<path d="M743.33,234.53,690.72,144.49"/>
<path d="M743.33,234.53,785.82,236.42"/>
<path d="M1146.22,509.97,1087.64,477.81"/>
<path d="M1146.22,509.97,1134.21,550.68"/>
<path d="M1691.09,221.86,1633.57,388.05"/>
<path d="M1691.09,221.86,1674.86,195.55"/>
<path d="M1691.09,221.86,1763.40,348.27"/>
<path d="M124.36,262.58,186.84,172.68"/>
<path d="M124.36,262.58,119.32,142.93"/>
<path d="M124.36,262.58,163.68,272.07"/>
<path d="M688.67,36.98,690.72,144.49"/>
<path d="M688.67,36.98,567.36,50.64"/>
<path d="M734.08,1657.55,753.20,1515.01"/>
<path d="M574.39,1144.84,460.24,1136.41"/>
<path d="M574.39,1144.84,555.41,1214.05"/>
<path d="M523.89,910.18,436.25,1054.47"/>
<path d="M536.86,419.48,423.55,401.36"/>
<path d="M536.86,419.48,563.45,345.31"/>
<path d="M536.86,419.48,590.42,494.21"/>
<path d="M2034.20,1023.89,2077.55,1072.37"/>
<path d="M2034.20,1023.89,1992.96,1039.42"/>
<path d="M2161.54,1593.70,2075.58,1585.07"/>
<path d="M2161.54,1593.70,2110.82,1724.78"/>
<path d="M1977.34,215.62,2022.72,332.38"/>
<path d="M1977.34,215.62,2104.81,252.66"/>
<path d="M1453.10,1889.90,1470.44,1735.80"/>
<path d="M1453.10,1889.90,1492.84,1963.54"/>
<path d="M1453.10,1889.90,1521.67,1751.93"/>
<path d="M1984.52,1148.24,1890.89,1285.07"/>
<path d="M1984.52,1148.24,1863.37,1120.38"/>
<path d="M1892.90,24.38,1996.11,57.42"/>
<path d="M1892.90,24.38,1849.17,82.77"/>
<path d="M1529.38,1621.20,1596.02,1652.73"/>
<path d="M1844.08,917.32,1805.63,904.05"/>
<path d="M1581.94,2170.76,1724.52,2114.14"/>
<path d="M1581.94,2170.76,1596.56,1993.02"/>
<path d="M1581.94,2170.76,1488.47,2130.12"/>
<path d="M645.81,1443.34,623.80,1550.58"/>
<path d="M645.81,1443.34,542.62,1471.45"/>
<path d="M645.81,1443.34,753.20,1515.01"/>
<path d="M103.30,1563.41,10.35,1729.13"/>
<path d="M103.30,1563.41,96.34,1532.84"/>
<path d="M1532.69,1429.89,1605.90,1414.19"/>
<path d="M1532.69,1429.89,1550.97,1362.34"/>
<path d="M1845.35,1841.84,1917.74,1783.81"/>
<path d="M1087.64,477.81,1103.26,311.63"/>
<path d="M842.37,1021.69,801.09,1070.66"/>
<path d="M778.15,891.77,826.89,801.01"/>
<path d="M685.22,1925.53,757.50,2016.68"/>
<path d="M685.22,1925.53,549.03,1966.55"/>
<path d="M455.40,628.45,470.08,659.45"/>
<path d="M455.40,628.45,252.02,687.31"/>
<path d="M258.41,1955.10,135.56,1857.47"/>
<path d="M1208.93,2176.02,1195.86,2206.85"/>
<path d="M894.07,391.09,836.75,425.73"/>
<path d="M1042.72,1851.36,1057.52,1969.17"/>
<path d="M1042.72,1851.36,1103.85,1728.99"/>
<path d="M251.92,369.51,327.64,351.42"/>
<path d="M251.92,369.51,163.68,272.07"/>
<path d="M1267.91,1532.40,1274.35,1336.82"/>
<path d="M1267.91,1532.40,1297.95,1561.30"/>
<path d="M1103.26,311.63,1160.36,291.34"/>
<path d="M895.47,1565.33,944.64,1565.65"/>
<path d="M895.47,1565.33,753.20,1515.01"/>
<path d="M164.28,843.17,111.64,925.60"/>
<path d="M164.28,843.17,48.71,862.83"/>
<path d="M690.72,144.49,567.36,50.64"/>
<path d="M523.71,1557.09,623.80,1550.58"/>
<path d="M523.71,1557.09,542.62,1471.45"/>
<path d="M523.71,1557.09,498.99,1569.64"/>
<path d="M1406.67,1931.67,1445.08,2006.66"/>
<path d="M1406.67,1931.67,1492.84,1963.54"/>
<path d="M239.98,1211.16,260.98,1151.49"/>
<path d="M239.98,1211.16,341.81,1228.49"/>
<path d="M239.98,1211.16,196.64,1299.05"/>
<path d="M175.54,1420.62,199.36,1455.45"/>
<path d="M175.54,1420.62,196.64,1299.05"/>
<path d="M175.54,1420.62,242.99,1327.17"/>
<path d="M1251.48,763.97,1246.34,817.12"/>
<path d="M1496.36,93.44,1412.04,70.48"/>
<path d="M1496.36,93.44,1472.30,10.63"/>
<path d="M1568.30,1964.73,1608.61,1934.17"/>
<path d="M1568.30,1964.73,1492.84,1963.54"/>
<path d="M1568.30,1964.73,1596.56,1993.02"/>
<path d="M1848.44,1333.51,1768.01,1191.99"/>
<path d="M1848.44,1333.51,1890.89,1285.07"/>
<path d="M795.55,2194.77,690.68,2173.67"/>
<path d="M2212.26,1843.28,2189.94,1902.86"/>
<path d="M19.29,395.17,102.54,488.08"/>
<path d="M1765.75,1159.17,1768.01,1191.99"/>
<path d="M418.01,1799.39,551.93,1767.43"/>
<path d="M1005.87,1424.21,943.89,1228.74"/>
<path d="M1005.87,1424.21,969.25,1458.50"/>
<path d="M620.42,2093.11,741.92,2087.02"/>
<path d="M620.42,2093.11,493.35,2202.18"/>
<path d="M620.42,2093.11,690.68,2173.67"/>
<path d="M2178.56,190.64,2232.52,239.07"/>
<path d="M2178.56,190.64,2104.81,252.66"/>
<path d="M969.27,871.63,1123.86,969.01"/>
<path d="M969.27,871.63,917.65,964.62"/>
<path d="M969.27,871.63,982.06,810.50"/>
<path d="M757.50,2016.68,741.92,2087.02"/>
<path d="M1412.04,70.48,1320.87,113.13"/>
<path d="M1412.04,70.48,1393.04,137.73"/>
<path d="M1412.04,70.48,1472.30,10.63"/>
<path d="M623.80,1550.58,542.62,1471.45"/>
<path d="M623.80,1550.58,753.20,1515.01"/>
<path d="M1122.67,2158.81,986.12,2134.58"/>
<path d="M1122.67,2158.81,1074.92,2039.64"/>
<path d="M1917.74,1783.81,1961.63,1841.70"/>
<path d="M1743.73,1987.46,1739.65,2030.79"/>
<path d="M1743.73,1987.46,1596.56,1993.02"/>
<path d="M1220.36,1139.10,1180.81,1210.51"/>
<path d="M1470.44,1735.80,1293.34,1732.38"/>
<path d="M1470.44,1735.80,1521.67,1751.93"/>
<path d="M1094.38,1030.23,1123.86,969.01"/>
<path d="M1094.38,1030.23,917.65,964.62"/>
<path d="M75.12,608.00,194.18,577.18"/>
<path d="M186.84,172.68,119.32,142.93"/>
<path d="M186.84,172.68,163.68,272.07"/>
<path d="M1373.20,670.68,1467.36,712.88"/>
<path d="M1256.84,193.15,1304.21,230.87"/>
<path d="M1320.87,113.13,1393.04,137.73"/>
<path d="M1320.87,113.13,1368.22,198.94"/>
<path d="M1633.57,388.05,1441.19,310.84"/>
<path d="M1849.90,457.97,1899.72,464.00"/>
<path d="M1253.94,316.99,1160.36,291.34"/>
<path d="M801.09,1070.66,770.09,1095.89"/>
<path d="M1608.61,1934.17,1521.67,1751.93"/>
<path d="M1608.61,1934.17,1596.56,1993.02"/>
<path d="M159.96,2104.54,338.75,2186.98"/>
<path d="M135.56,1857.47,7.74,1793.95"/>
<path d="M7.74,1793.95,10.35,1729.13"/>
<path d="M1624.73,1128.88,1671.74,1158.75"/>
<path d="M1624.73,1128.88,1492.54,1138.61"/>
<path d="M1624.73,1128.88,1660.29,1111.56"/>
<path d="M1624.73,1128.88,1527.88,1216.35"/>
<path d="M2022.72,332.38,2151.80,316.03"/>
<path d="M2022.72,332.38,2104.81,252.66"/>
<path d="M1662.66,1007.86,1660.29,1111.56"/>
<path d="M1992.96,1039.42,1863.37,1120.38"/>
<path d="M2223.90,1967.97,2189.94,1902.86"/>
<path d="M2151.80,316.03,2232.52,239.07"/>
<path d="M2151.80,316.03,2104.81,252.66"/>
<path d="M521.85,742.75,488.94,796.14"/>
<path d="M521.85,742.75,470.08,659.45"/>
<path d="M1596.02,1652.73,1594.42,1714.88"/>
<path d="M844.91,472.73,777.46,438.96"/>
<path d="M844.91,472.73,836.75,425.73"/>
<path d="M844.91,472.73,724.06,743.27"/>
<path d="M119.32,142.93,148.05,71.55"/>
<path d="M1293.34,1732.38,1209.44,1666.43"/>
<path d="M1293.34,1732.38,1375.75,1614.69"/>
<path d="M1293.34,1732.38,1265.24,1603.85"/>
<path d="M1763.40,348.27,1814.37,332.09"/>
<path d="M1467.36,712.88,1458.30,622.05"/>
<path d="M111.64,925.60,48.71,862.83"/>
<path d="M260.98,1151.49,341.81,1228.49"/>
<path d="M260.98,1151.49,254.86,1073.95"/>
<path d="M741.92,2087.02,690.68,2173.67"/>
<path d="M421.20,1238.74,341.81,1228.49"/>
<path d="M421.20,1238.74,460.24,1136.41"/>
<path d="M421.20,1238.74,555.41,1214.05"/>
<path d="M327.64,351.42,379.36,254.20"/>
<path d="M1671.74,1158.75,1660.29,1111.56"/>
<path d="M777.46,438.96,797.99,370.99"/>
<path d="M777.46,438.96,836.75,425.73"/>
<path d="M1445.08,2006.66,1492.84,1963.54"/>
<path d="M797.99,370.99,785.82,236.42"/>
<path d="M797.99,370.99,836.75,425.73"/>
<path d="M770.09,1095.89,759.32,1170.24"/>
<path d="M1057.52,1969.17,1074.92,2039.64"/>
<path d="M493.35,2202.18,338.75,2186.98"/>
<path d="M163.68,272.07,100.59,379.27"/>
<path d="M2118.06,1422.25,2075.58,1585.07"/>
<path d="M2118.06,1422.25,2145.02,1378.36"/>
<path d="M1492.54,1138.61,1297.25,1098.20"/>
<path d="M785.82,236.42,849.15,191.13"/>
<path d="M102.54,488.08,194.18,577.18"/>
<path d="M1768.01,1191.99,1890.89,1285.07"/>
<path d="M1721.54,70.09,1694.45,17.83"/>
<path d="M1721.54,70.09,1849.17,82.77"/>
<path d="M568.53,636.52,560.91,594.90"/>
<path d="M1996.11,57.42,1994.44,164.00"/>
<path d="M470.08,659.45,339.01,806.17"/>
<path d="M944.64,1565.65,969.25,1458.50"/>
<path d="M560.91,594.90,539.76,533.49"/>
<path d="M1409.15,1601.57,1375.75,1614.69"/>
<path d="M194.18,577.18,252.02,687.31"/>
<path d="M339.01,806.17,252.02,687.31"/>
<path d="M1521.67,1751.93,1594.42,1714.88"/>
<path d="M1739.65,2030.79,1724.52,2114.14"/>
<path d="M1739.65,2030.79,1596.56,1993.02"/>
<path d="M341.81,1228.49,242.99,1327.17"/>
<path d="M1420.54,1310.06,1487.74,1238.76"/>
<path d="M1420.54,1310.06,1297.25,1098.20"/>
<path d="M1420.54,1310.06,1550.97,1362.34"/>
<path d="M1209.44,1666.43,1103.85,1728.99"/>
<path d="M1209.44,1666.43,1265.24,1603.85"/>
<path d="M2075.58,1585.07,1957.47,1618.48"/>
<path d="M2075.58,1585.07,2110.82,1724.78"/>
<path d="M1817.17,795.40,1805.63,904.05"/>
<path d="M1817.17,795.40,1727.97,802.95"/>
<path d="M1890.89,1285.07,1863.37,1120.38"/>
<path d="M1812.10,1436.15,1818.41,1410.51"/>
<path d="M1812.10,1436.15,1776.97,1510.24"/>
<path d="M254.86,1073.95,315.45,1037.02"/>
<path d="M254.86,1073.95,229.08,977.43"/>
<path d="M460.24,1136.41,555.41,1214.05"/>
<path d="M460.24,1136.41,436.25,1054.47"/>
<path d="M590.42,494.21,539.76,533.49"/>
<path d="M1304.21,230.87,1368.22,198.94"/>
<path d="M1487.74,1238.76,1527.88,1216.35"/>
<path d="M1393.04,137.73,1368.22,198.94"/>
<path d="M1375.75,1614.69,1297.95,1561.30"/>
<path d="M1605.90,1414.19,1550.97,1362.34"/>
<path d="M982.06,810.50,885.53,779.39"/>
<path d="M982.06,810.50,897.68,756.21"/>
<path d="M2104.81,252.66,1994.44,164.00"/>
<path d="M826.89,801.01,885.53,779.39"/>
<path d="M1805.63,904.05,1727.97,802.95"/>
<path d="M885.53,779.39,897.68,756.21"/>
<path d="M196.64,1299.05,242.99,1327.17"/>
<path d="M986.12,2134.58,1074.92,2039.64"/>
<path d="M1265.24,1603.85,1297.95,1561.30"/>
<path d="M1596.56,1993.02,1488.47,2130.12"/>
<circle cx="544.48" cy="2059.52" r="10"/>
<text x="544.48" y="2064.52">R0</text>
<circle cx="487.85" cy="1597.62" r="10"/>
<text x="487.85" y="1602.62">R1</text>
<circle cx="911.29" cy="1745.79" r="10"/>
<text x="911.29" y="1750.79">R2</text>
<circle cx="1084.60" cy="1643.32" r="10"/>
<text x="1084.60" y="1648.32">R3</text>
<circle cx="1584.13" cy="567.41" r="10"/>
<text x="1584.13" y="572.41">R4</text>
<circle cx="1833.04" cy="1034.35" r="10"/>
<text x="1833.04" y="1039.35">R5</text>
<circle cx="1159.04" cy="1033.18" r="10"/>
<text x="1159.04" y="1038.18">R6</text>
<circle cx="0.54" cy="1512.35" r="10"/>
<text x="0.54" y="1517.35">R7</text>
<circle cx="1648.27" cy="511.93" r="10"/>
<text x="1648.27" y="516.93">R8</text>
<circle cx="1207.39" cy="530.45" r="10"/>
<text x="1207.39" y="535.45">R9</text>
<circle cx="1262.74" cy="866.34" r="10"/>
<text x="1262.74" y="871.34">R10</text>
<circle cx="2069.43" cy="2062.29" r="10"/>
<text x="2069.43" y="2067.29">R11</text>
<circle cx="1733.17" cy="1348.53" r="10"/>
<text x="1733.17" y="1353.53">R12</text>
<circle cx="347.32" cy="1619.10" r="10"/>
<text x="347.32" y="1624.10">R13</text>
<circle cx="2160.62" cy="2.54" r="10"/>
<text x="2160.62" y="7.54">R14</text>
<circle cx="439.29" cy="568.26" r="10"/>
<text x="439.29" y="573.26">R15</text>
<circle cx="339.39" cy="2052.09" r="10"/>
<text x="339.39" y="2057.09">R16</text>
<circle cx="1444.97" cy="2112.69" r="10"/>
<text x="1444.97" y="2117.69">R17</text>
<circle cx="1138.50" cy="1476.40" r="10"/>
<text x="1138.50" y="1481.40">R18</text>
<circle cx="1339.58" cy="2065.27" r="10"/>
<text x="1339.58" y="2070.27">R19</text>
<circle cx="410.16" cy="426.88" r="10"/>
<text x="410.16" y="431.88">R20</text>
<circle cx="1665.43" cy="908.24" r="10"/>
<text x="1665.43" y="913.24">R21</text>
<circle cx="1093.58" cy="1608.95" r="10"/>
<text x="1093.58" y="1613.95">R22</text>
<circle cx="1854.01" cy="247.60" r="10"/>
<text x="1854.01" y="252.60">R23</text>
<circle cx="1025.31" cy="1648.46" r="10"/>
<text x="1025.31" y="1653.46">R24</text>
<circle cx="2216.16" cy="1321.64" r="10"/>
<text x="2216.16" y="1326.64">R25</text>
<circle cx="1575.01" cy="79.37" r="10"/>
<text x="1575.01" y="84.37">R26</text>
<circle cx="458.17" cy="66.72" r="10"/>
<text x="458.17" y="71.72">R27</text>
<circle cx="2049.97" cy="1252.10" r="10"/>
<text x="2049.97" y="1257.10">R28</text>
<circle cx="1491.64" cy="1598.61" r="10"/>
<text x="1491.64" y="1603.61">R29</text>
<circle cx="1281.73" cy="709.94" r="10"/>
<text x="1281.73" y="714.94">R30</text>
<circle cx="1843.78" cy="364.34" r="10"/>
<text x="1843.78" y="369.34">R31</text>
<circle cx="213.41" cy="187.97" r="10"/>
<text x="213.41" y="192.97">R32</text>
<circle cx="168.02" cy="777.55" r="10"/>
<text x="168.02" y="782.55">R33</text>
<circle cx="122.55" cy="1221.18" r="10"/>
<text x="122.55" y="1226.18">R34</text>
<circle cx="1454.90" cy="521.45" r="10"/>
<text x="1454.90" y="526.45">R35</text>
<circle cx="310.31" cy="1008.53" r="10"/>
<text x="310.31" y="1013.53">R36</text>
<circle cx="1769.63" cy="1770.70" r="10"/>
<text x="1769.63" y="1775.70">R37</text>
<circle cx="2034.06" cy="1356.36" r="10"/>
<text x="2034.06" y="1361.36">R38</text>
<circle cx="489.22" cy="1680.48" r="10"/>
<text x="489.22" y="1685.48">R39</text>
<circle cx="502.19" cy="152.66" r="10"/>
<text x="502.19" y="157.66">R40</text>
<circle cx="1117.26" cy="1195.21" r="10"/>
<text x="1117.26" y="1200.21">R41</text>
<circle cx="1689.24" cy="590.96" r="10"/>
<text x="1689.24" y="595.96">R42</text>
<circle cx="463.02" cy="332.66" r="10"/>
<text x="463.02" y="337.66">R43</text>
<circle cx="1477.76" cy="125.31" r="10"/>
<text x="1477.76" y="130.31">R44</text>
<circle cx="53.07" cy="1548.82" r="10"/>
<text x="53.07" y="1553.82">R45</text>
<circle cx="798.83" cy="1826.46" r="10"/>
<text x="798.83" y="1831.46">R46</text>
<circle cx="978.09" cy="1943.24" r="10"/>
<text x="978.09" y="1948.24">R47</text>
<circle cx="2030.38" cy="1698.07" r="10"/>
<text x="2030.38" y="1703.07">R48</text>
<circle cx="418.04" cy="873.11" r="10"/>
<text x="418.04" y="878.11">R49</text>
<circle cx="1309.37" cy="447.26" r="10"/>
<text x="1309.37" y="452.26">R50</text>
<circle cx="752.06" cy="42.03" r="10"/>
<text x="752.06" y="47.03">R51</text>
<circle cx="1382.48" cy="629.70" r="10"/>
<text x="1382.48" y="634.70">R52</text>
<circle cx="33.16" cy="943.85" r="10"/>
<text x="33.16" y="948.85">R53</text>
<circle cx="62.08" cy="957.76" r="10"/>
<text x="62.08" y="962.76">R54</text>
<circle cx="338.22" cy="91.58" r="10"/>
<text x="338.22" y="96.58">R55</text>
<circle cx="1011.86" cy="121.15" r="10"/>
<text x="1011.86" y="126.15">R56</text>
<circle cx="800.58" cy="928.92" r="10"/>
<text x="800.58" y="933.92">R57</text>
<circle cx="1158.56" cy="725.41" r="10"/>
<text x="1158.56" y="730.41">R58</text>
<circle cx="1303.79" cy="1958.64" r="10"/>
<text x="1303.79" y="1963.64">R59</text>
<circle cx="1049.98" cy="1402.18" r="10"/>
<text x="1049.98" y="1407.18">R60</text>
<circle cx="1245.56" cy="1141.62" r="10"/>
<text x="1245.56" y="1146.62">R61</text>
<circle cx="1611.49" cy="1448.63" r="10"/>
<text x="1611.49" y="1453.63">R62</text>
<circle cx="257.02" cy="108.16" r="10"/>
<text x="257.02" y="113.16">R63</text>
<circle cx="1392.18" cy="1393.02" r="10"/>
<text x="1392.18" y="1398.02">R64</text>
<circle cx="1237.85" cy="1109.80" r="10"/>
<text x="1237.85" y="1114.80">R65</text>
<circle cx="1784.61" cy="720.44" r="10"/>
<text x="1784.61" y="725.44">R66</text>
<circle cx="1217.91" cy="1218.98" r="10"/>
<text x="1217.91" y="1223.98">R67</text>
<circle cx="1776.94" cy="1071.30" r="10"/>
<text x="1776.94" y="1076.30">R68</text>
<circle cx="1832.49" cy="1527.08" r="10"/>
<text x="1832.49" y="1532.08">R69</text>
<circle cx="293.01" cy="1637.85" r="10"/>
<text x="293.01" y="1642.85">R70</text>
<circle cx="88.60" cy="638.88" r="10"/>
<text x="88.60" y="643.88">R71</text>
<circle cx="653.67" cy="837.80" r="10"/>
<text x="653.67" y="842.80">R72</text>
<circle cx="664.31" cy="1673.85" r="10"/>
<text x="664.31" y="1678.85">R73</text>
<circle cx="2163.38" cy="27.99" r="10"/>
<text x="2163.38" y="32.99">R74</text>
<circle cx="35.10" cy="1929.67" r="10"/>
<text x="35.10" y="1934.67">R75</text>
<circle cx="847.27" cy="1665.29" r="10"/>
<text x="847.27" y="1670.29">R76</text>
<circle cx="1272.53" cy="669.42" r="10"/>
<text x="1272.53" y="674.42">R77</text>
<circle cx="1610.45" cy="437.63" r="10"/>
<text x="1610.45" y="442.63">R78</text>
<circle cx="1466.00" cy="837.47" r="10"/>
<text x="1466.00" y="842.47">R79</text>
<circle cx="488.04" cy="1961.08" r="10"/>
<text x="488.04" y="1966.08">R80</text>
<circle cx="43.50" cy="615.77" r="10"/>
<text x="43.50" y="620.77">R81</text>
<circle cx="2009.14" cy="2180.72" r="10"/>
<text x="2009.14" y="2185.72">R82</text>
<circle cx="2186.82" cy="101.26" r="10"/>
<text x="2186.82" y="106.26">R83</text>
<circle cx="456.96" cy="833.66" r="10"/>
<text x="456.96" y="838.66">R84</text>
<circle cx="1225.11" cy="377.29" r="10"/>
<text x="1225.11" y="382.29">R85</text>
<circle cx="2218.84" cy="537.35" r="10"/>
<text x="2218.84" y="542.35">R86</text>
<circle cx="2073.81" cy="1160.04" r="10"/>
<text x="2073.81" y="1165.04">R87</text>
<circle cx="584.94" cy="700.45" r="10"/>
<text x="584.94" y="705.45">R88</text>
<circle cx="578.19" cy="1832.74" r="10"/>
<text x="578.19" y="1837.74">R89</text>
<circle cx="1468.29" cy="261.86" r="10"/>
<text x="1468.29" y="266.86">R90</text>
<circle cx="409.36" cy="1699.95" r="10"/>
<text x="409.36" y="1704.95">R91</text>
<circle cx="1769.35" cy="1115.15" r="10"/>
<text x="1769.35" y="1120.15">R92</text>
<circle cx="902.19" cy="1882.95" r="10"/>
<text x="902.19" y="1887.95">R93</text>
<circle cx="557.49" cy="1381.25" r="10"/>
<text x="557.49" y="1386.25">R94</text>
<circle cx="408.25" cy="2091.13" r="10"/>
<text x="408.25" y="2096.13">R95</text>
<circle cx="2017.03" cy="1111.13" r="10"/>
<text x="2017.03" y="1116.13">R96</text>
<circle cx="2127.20" cy="567.05" r="10"/>
<text x="2127.20" y="572.05">R97</text>
<circle cx="2050.56" cy="1906.92" r="10"/>
<text x="2050.56" y="1911.92">R98</text>
<circle cx="1140.50" cy="1818.47" r="10"/>
<text x="1140.50" y="1823.47">R99</text>
<circle cx="1425.07" cy="1402.13" r="10"/>
<text x="1425.07" y="1407.13">R100</text>
<circle cx="2075.19" cy="1882.65" r="10"/>
<text x="2075.19" y="1887.65">R101</text>
<circle cx="1216.25" cy="1888.62" r="10"/>
<text x="1216.25" y="1893.62">R102</text>
<circle cx="694.20" cy="1008.82" r="10"/>
<text x="694.20" y="1013.82">R103</text>
<circle cx="2147.84" cy="886.93" r="10"/>
<text x="2147.84" y="891.93">R104</text>
<circle cx="644.27" cy="797.94" r="10"/>
<text x="644.27" y="802.94">R105</text>
<circle cx="130.09" cy="1746.03" r="10"/>
<text x="130.09" y="1751.03">R106</text>
<circle cx="2111.95" cy="1910.54" r="10"/>
<text x="2111.95" y="1915.54">R107</text>
<circle cx="468.61" cy="887.52" r="10"/>
<text x="468.61" y="892.52">R108</text>
<circle cx="1820.49" cy="1382.24" r="10"/>
<text x="1820.49" y="1387.24">R109</text>
<circle cx="1961.75" cy="2175.21" r="10"/>
<text x="1961.75" y="2180.21">R110</text>
<circle cx="525.77" cy="253.61" r="10"/>
<text x="525.77" y="258.61">R111</text>
<circle cx="962.15" cy="623.95" r="10"/>
<text x="962.15" y="628.95">R112</text>
<circle cx="112.13" cy="957.21" r="10"/>
<text x="112.13" y="962.21">R113</text>
<circle cx="886.08" cy="1004.66" r="10"/>
<text x="886.08" y="1009.66">R114</text>
<circle cx="1500.15" cy="702.28" r="10"/>
<text x="1500.15" y="707.28">R115</text>
<circle cx="421.47" cy="359.42" r="10"/>
<text x="421.47" y="364.42">R116</text>
<circle cx="2102.78" cy="1125.73" r="10"/>
<text x="2102.78" y="1130.73">R117</text>
<circle cx="2110.39" cy="2058.15" r="10"/>
<text x="2110.39" y="2063.15">R118</text>
<circle cx="100.12" cy="1134.60" r="10"/>
<text x="100.12" y="1139.60">R119</text>
<circle cx="142.01" cy="1201.62" r="10"/>
<text x="142.01" y="1206.62">R120</text>
<circle cx="763.45" cy="987.09" r="10"/>
<text x="763.45" y="992.09">R121</text>
<circle cx="2158.76" cy="1432.42" r="10"/>
<text x="2158.76" y="1437.42">R122</text>
<circle cx="133.47" cy="424.40" r="10"/>
<text x="133.47" y="429.40">R123</text>
<circle cx="166.08" cy="1162.33" r="10"/>
<text x="166.08" y="1167.33">R124</text>
<circle cx="1364.68" cy="1395.52" r="10"/>
<text x="1364.68" y="1400.52">R125</text>
<circle cx="1328.90" cy="328.83" r="10"/>
<text x="1328.90" y="333.83">R126</text>
<circle cx="552.69" cy="909.15" r="10"/>
<text x="552.69" y="914.15">R127</text>
<circle cx="197.17" cy="480.36" r="10"/>
<text x="197.17" y="485.36">R128</text>
<circle cx="1809.44" cy="220.92" r="10"/>
<text x="1809.44" y="225.92">R129</text>
<circle cx="1034.53" cy="1610.49" r="10"/>
<text x="1034.53" y="1615.49">R130</text>
<circle cx="1200.22" cy="462.75" r="10"/>
<text x="1200.22" y="467.75">R131</text>
<circle cx="103.67" cy="1896.69" r="10"/>
<text x="103.67" y="1901.69">R132</text>
<circle cx="362.02" cy="1541.66" r="10"/>
<text x="362.02" y="1546.66">R133</text>
<circle cx="758.80" cy="765.33" r="10"/>
<text x="758.80" y="770.33">R134</text>
<circle cx="1222.83" cy="1930.09" r="10"/>
<text x="1222.83" y="1935.09">R135</text>
<circle cx="2234.49" cy="1791.11" r="10"/>
<text x="2234.49" y="1796.11">R136</text>
<circle cx="359.36" cy="1906.55" r="10"/>
<text x="359.36" y="1911.55">R137</text>
<circle cx="1172.62" cy="122.54" r="10"/>
<text x="1172.62" y="127.54">R138</text>
<circle cx="217.41" cy="1479.59" r="10"/>
<text x="217.41" y="1484.59">R139</text>
<circle cx="1022.72" cy="317.03" r="10"/>
<text x="1022.72" y="322.03">R140</text>
<circle cx="1538.37" cy="222.67" r="10"/>
<text x="1538.37" y="227.67">R141</text>
<circle cx="357.22" cy="1569.97" r="10"/>
<text x="357.22" y="1574.97">R142</text>
<circle cx="1296.00" cy="183.46" r="10"/>
<text x="1296.00" y="188.46">R143</text>
<circle cx="1715.74" cy="1844.59" r="10"/>
<text x="1715.74" y="1849.59">R144</text>
<circle cx="1859.86" cy="1701.85" r="10"/>
<text x="1859.86" y="1706.85">R145</text>
<circle cx="313.64" cy="1933.62" r="10"/>
<text x="313.64" y="1938.62">R146</text>
<circle cx="1514.27" cy="1554.41" r="10"/>
<text x="1514.27" y="1559.41">R147</text>
<circle cx="667.76" cy="1733.40" r="10"/>
<text x="667.76" y="1738.40">R148</text>
<circle cx="1367.62" cy="1365.74" r="10"/>
<text x="1367.62" y="1370.74">R149</text>
<circle cx="1037.39" cy="248.44" r="10"/>
<text x="1037.39" y="253.44">R150</text>
<circle cx="1766.51" cy="1349.51" r="10"/>
<text x="1766.51" y="1354.51">R151</text>
<circle cx="158.70" cy="428.75" r="10"/>
<text x="158.70" y="433.75">R152</text>
<circle cx="1197.80" cy="635.61" r="10"/>
<text x="1197.80" y="640.61">R153</text>
<circle cx="1918.27" cy="570.40" r="10"/>
<text x="1918.27" y="575.40">R154</text>
<circle cx="2194.73" cy="1766.84" r="10"/>
<text x="2194.73" y="1771.84">R155</text>
<circle cx="1747.29" cy="436.49" r="10"/>
<text x="1747.29" y="441.49">R156</text>
<circle cx="564.74" cy="1040.52" r="10"/>
<text x="564.74" y="1045.52">R157</text>
<circle cx="60.75" cy="568.23" r="10"/>
<text x="60.75" y="573.23">R158</text>
<circle cx="1612.74" cy="891.76" r="10"/>
<text x="1612.74" y="896.76">R159</text>
<circle cx="692.63" cy="1864.50" r="10"/>
<text x="692.63" y="1869.50">R160</text>
<circle cx="1603.27" cy="807.58" r="10"/>
<text x="1603.27" y="812.58">R161</text>
<circle cx="1805.18" cy="1592.39" r="10"/>
<text x="1805.18" y="1597.39">R162</text>
<circle cx="1426.97" cy="2211.43" r="10"/>
<text x="1426.97" y="2216.43">R163</text>
<circle cx="1978.56" cy="1499.07" r="10"/>
<text x="1978.56" y="1504.07">R164</text>
<circle cx="490.04" cy="1358.39" r="10"/>
<text x="490.04" y="1363.39">R165</text>
<circle cx="790.34" cy="1169.70" r="10"/>
<text x="790.34" y="1174.70">R166</text>
<circle cx="763.05" cy="1790.28" r="10"/>
<text x="763.05" y="1795.28">R167</text>
<circle cx="1646.27" cy="686.46" r="10"/>
<text x="1646.27" y="691.46">R168</text>
<circle cx="682.96" cy="852.13" r="10"/>
<text x="682.96" y="857.13">R169</text>
<circle cx="2172.63" cy="758.60" r="10"/>
<text x="2172.63" y="763.60">R170</text>
<circle cx="976.97" cy="549.44" r="10"/>
<text x="976.97" y="554.44">R171</text>
<circle cx="566.21" cy="949.64" r="10"/>
<text x="566.21" y="954.64">R172</text>
<circle cx="1895.06" cy="885.94" r="10"/>
<text x="1895.06" y="890.94">R173</text>
<circle cx="696.11" cy="1083.52" r="10"/>
<text x="696.11" y="1088.52">R174</text>
<circle cx="406.57" cy="1591.15" r="10"/>
<text x="406.57" y="1596.15">R175</text>
<circle cx="1273.38" cy="604.21" r="10"/>
<text x="1273.38" y="609.21">R176</text>
<circle cx="1262.48" cy="2116.59" r="10"/>
<text x="1262.48" y="2121.59">R177</text>
<circle cx="1159.26" cy="2192.16" r="10"/>
<text x="1159.26" y="2197.16">R178</text>
<circle cx="1732.61" cy="180.14" r="10"/>
<text x="1732.61" y="185.14">R179</text>
<circle cx="1926.14" cy="758.87" r="10"/>
<text x="1926.14" y="763.87">R180</text>
<circle cx="695.25" cy="1810.19" r="10"/>
<text x="695.25" y="1815.19">R181</text>
<circle cx="1721.63" cy="396.24" r="10"/>
<text x="1721.63" y="401.24">R182</text>
<circle cx="848.65" cy="1916.05" r="10"/>
<text x="848.65" y="1921.05">R183</text>
<circle cx="169.52" cy="1044.28" r="10"/>
<text x="169.52" y="1049.28">R184</text>
<circle cx="1180.87" cy="1543.58" r="10"/>
<text x="1180.87" y="1548.58">R185</text>
<circle cx="292.75" cy="1576.15" r="10"/>
<text x="292.75" y="1581.15">R186</text>
<circle cx="1727.56" cy="1202.04" r="10"/>
<text x="1727.56" y="1207.04">R187</text>
<circle cx="1116.49" cy="1947.80" r="10"/>
<text x="1116.49" y="1952.80">R188</text>
<circle cx="1496.06" cy="1187.81" r="10"/>
<text x="1496.06" y="1192.81">R189</text>
<circle cx="1921.60" cy="1961.30" r="10"/>
<text x="1921.60" y="1966.30">R190</text>
<circle cx="2209.80" cy="1538.23" r="10"/>
<text x="2209.80" y="1543.23">R191</text>
<circle cx="544.72" cy="1882.90" r="10"/>
<text x="544.72" y="1887.90">R192</text>
<circle cx="902.90" cy="1062.09" r="10"/>
<text x="902.90" y="1067.09">R193</text>
<circle cx="1553.76" cy="1260.79" r="10"/>
<text x="1553.76" y="1265.79">R194</text>
<circle cx="405.55" cy="462.50" r="10"/>
<text x="405.55" y="467.50">R195</text>
<circle cx="1730.60" cy="1914.94" r="10"/>
<text x="1730.60" y="1919.94">R196</text>
<circle cx="349.29" cy="61.09" r="10"/>
<text x="349.29" y="66.09">R197</text>
<circle cx="637.82" cy="457.39" r="10"/>
<text x="637.82" y="462.39">R198</text>
<circle cx="681.93" cy="1212.43" r="10"/>
<text x="681.93" y="1217.43">R199</text>
<circle cx="585.87" cy="1347.78" r="10"/>
<text x="585.87" y="1352.78">R200</text>
<circle cx="372.82" cy="1100.51" r="10"/>
<text x="372.82" y="1105.51">R201</text>
<circle cx="1268.87" cy="241.02" r="10"/>
<text x="1268.87" y="246.02">R202</text>
<circle cx="1244.49" cy="2009.47" r="10"/>
<text x="1244.49" y="2014.47">R203</text>
<circle cx="1899.17" cy="1881.58" r="10"/>
<text x="1899.17" y="1886.58">R204</text>
<circle cx="58.85" cy="2000.18" r="10"/>
<text x="58.85" y="2005.18">R205</text>
<circle cx="30.55" cy="49.29" r="10"/>
<text x="30.55" y="54.29">R206</text>
<circle cx="1919.63" cy="330.53" r="10"/>
<text x="1919.63" y="335.53">R207</text>
<circle cx="46.58" cy="1401.63" r="10"/>
<text x="46.58" y="1406.63">R208</text>
<circle cx="765.11" cy="1406.54" r="10"/>
<text x="765.11" y="1411.54">R209</text>
<circle cx="79.99" cy="1158.50" r="10"/>
<text x="79.99" y="1163.50">R210</text>
<circle cx="37.35" cy="23.17" r="10"/>
<text x="37.35" y="28.17">R211</text>
<circle cx="823.63" cy="1238.64" r="10"/>
<text x="823.63" y="1243.64">R212</text>
<circle cx="1931.18" cy="1853.87" r="10"/>
<text x="1931.18" y="1858.87">R213</text>
<circle cx="1817.39" cy="643.38" r="10"/>
<text x="1817.39" y="648.38">R214</text>
<circle cx="537.02" cy="609.69" r="10"/>
<text x="537.02" y="614.69">R215</text>
<circle cx="618.96" cy="300.60" r="10"/>
<text x="618.96" y="305.60">R216</text>
<circle cx="2233.34" cy="2007.04" r="10"/>
<text x="2233.34" y="2012.04">R217</text>
<circle cx="643.74" cy="2012.29" r="10"/>
<text x="643.74" y="2017.29">R218</text>
<circle cx="989.81" cy="341.15" r="10"/>
<text x="989.81" y="346.15">R219</text>
<circle cx="1793.22" cy="1373.33" r="10"/>
<text x="1793.22" y="1378.33">R220</text>
<circle cx="1475.49" cy="1674.89" r="10"/>
<text x="1475.49" y="1679.89">R221</text>
<circle cx="1404.48" cy="940.00" r="10"/>
<text x="1404.48" y="945.00">R222</text>
<circle cx="1786.54" cy="1556.20" r="10"/>
<text x="1786.54" y="1561.20">R223</text>
<circle cx="1676.49" cy="151.70" r="10"/>
<text x="1676.49" y="156.70">R224</text>
<circle cx="950.31" cy="263.08" r="10"/>
<text x="950.31" y="268.08">R225</text>
<circle cx="374.55" cy="831.51" r="10"/>
<text x="374.55" y="836.51">R226</text>
<circle cx="534.24" cy="2232.38" r="10"/>
<text x="534.24" y="2237.38">R227</text>
<circle cx="277.41" cy="907.87" r="10"/>
<text x="277.41" y="912.87">R228</text>
<circle cx="130.42" cy="2012.78" r="10"/>
<text x="130.42" y="2017.78">R229</text>
<circle cx="933.19" cy="1832.60" r="10"/>
<text x="933.19" y="1837.60">R230</text>
<circle cx="2138.71" cy="169.02" r="10"/>
<text x="2138.71" y="174.02">R231</text>
<circle cx="1350.32" cy="287.53" r="10"/>
<text x="1350.32" y="292.53">R232</text>
<circle cx="633.08" cy="533.75" r="10"/>
<text x="633.08" y="538.75">R233</text>
<circle cx="978.77" cy="494.00" r="10"/>
<text x="978.77" y="499.00">R234</text>
<circle cx="1426.37" cy="1885.60" r="10"/>
<text x="1426.37" y="1890.60">R235</text>
<circle cx="2141.21" cy="2112.01" r="10"/>
<text x="2141.21" y="2117.01">R236</text>
<circle cx="1882.66" cy="1661.35" r="10"/>
<text x="1882.66" y="1666.35">R237</text>
<circle cx="1410.12" cy="2114.95" r="10"/>
<text x="1410.12" y="2119.95">R238</text>
<circle cx="1540.69" cy="598.97" r="10"/>
<text x="1540.69" y="603.97">R239</text>
<circle cx="1963.33" cy="187.97" r="10"/>
<text x="1963.33" y="192.97">R240</text>
<circle cx="75.27" cy="274.53" r="10"/>
<text x="75.27" y="279.53">R241</text>
<circle cx="29.33" cy="1080.93" r="10"/>
<text x="29.33" y="1085.93">R242</text>
<circle cx="143.02" cy="1453.85" r="10"/>
<text x="143.02" y="1458.85">R243</text>
<circle cx="28.57" cy="2001.36" r="10"/>
<text x="28.57" y="2006.36">R244</text>
<circle cx="1206.79" cy="1974.94" r="10"/>
<text x="1206.79" y="1979.94">R245</text>
<circle cx="2013.95" cy="2136.30" r="10"/>
<text x="2013.95" y="2141.30">R246</text>
<circle cx="1661.71" cy="1905.93" r="10"/>
<text x="1661.71" y="1910.93">R247</text>
<circle cx="1452.61" cy="203.52" r="10"/>
<text x="1452.61" y="208.52">R248</text>
<circle cx="527.20" cy="1418.54" r="10"/>
<text x="527.20" y="1423.54">R249</text>
<circle cx="1175.25" cy="2159.51" r="10"/>
<text x="1175.25" y="2164.51">R250</text>
<circle cx="2175.56" cy="1788.53" r="10"/>
<text x="2175.56" y="1793.53">R251</text>
<circle cx="1464.44" cy="2196.63" r="10"/>
<text x="1464.44" y="2201.63">R252</text>
<circle cx="1137.97" cy="1240.83" r="10"/>
<text x="1137.97" y="1245.83">R253</text>
<circle cx="1797.17" cy="1797.08" r="10"/>
<text x="1797.17" y="1802.08">R254</text>
<circle cx="44.56" cy="372.71" r="10"/>
<text x="44.56" y="377.71">R255</text>
<circle cx="2123.65" cy="1291.50" r="10"/>
<text x="2123.65" y="1296.50">R256</text>
<circle cx="746.50" cy="933.79" r="10"/>
<text x="746.50" y="938.79">R257</text>
<circle cx="1126.25" cy="1065.60" r="10"/>
<text x="1126.25" y="1070.60">R258</text>
<circle cx="1014.51" cy="26.04" r="10"/>
<text x="1014.51" y="31.04">R259</text>
<circle cx="1343.02" cy="1867.44" r="10"/>
<text x="1343.02" y="1872.44">R260</text>
<circle cx="431.62" cy="293.99" r="10"/>
<text x="431.62" y="298.99">R261</text>
<circle cx="183.06" cy="939.83" r="10"/>
<text x="183.06" y="944.83">R262</text>
<circle cx="911.61" cy="185.77" r="10"/>
<text x="911.61" y="190.77">R263</text>
<circle cx="0.03" cy="1858.20" r="10"/>
<text x="0.03" y="1863.20">R264</text>
<circle cx="271.11" cy="1458.73" r="10"/>
<text x="271.11" y="1463.73">R265</text>
<circle cx="445.06" cy="1915.60" r="10"/>
<text x="445.06" y="1920.60">R266</text>
<circle cx="1269.13" cy="51.66" r="10"/>
<text x="1269.13" y="56.66">R267</text>
<circle cx="814.81" cy="2112.71" r="10"/>
<text x="814.81" y="2117.71">R268</text>
<circle cx="743.33" cy="234.53" r="10"/>
<text x="743.33" y="239.53">R269</text>
<circle cx="1146.22" cy="509.97" r="10"/>
<text x="1146.22" y="514.97">R270</text>
<circle cx="1691.09" cy="221.86" r="10"/>
<text x="1691.09" y="226.86">R271</text>
<circle cx="124.36" cy="262.58" r="10"/>
<text x="124.36" y="267.58">R272</text>
<circle cx="688.67" cy="36.98" r="10"/>
<text x="688.67" y="41.98">R273</text>
<circle cx="734.08" cy="1657.55" r="10"/>
<text x="734.08" y="1662.55">R274</text>
<circle cx="574.39" cy="1144.84" r="10"/>
<text x="574.39" y="1149.84">R275</text>
<circle cx="523.89" cy="910.18" r="10"/>
<text x="523.89" y="915.18">R276</text>
<circle cx="536.86" cy="419.48" r="10"/>
<text x="536.86" y="424.48">R277</text>
<circle cx="2034.20" cy="1023.89" r="10"/>
<text x="2034.20" y="1028.89">R278</text>
<circle cx="2161.54" cy="1593.70" r="10"/>
<text x="2161.54" y="1598.70">R279</text>
<circle cx="1977.34" cy="215.62" r="10"/>
<text x="1977.34" y="220.62">R280</text>
<circle cx="423.55" cy="401.36" r="10"/>
<text x="423.55" y="406.36">R281</text>
<circle cx="1453.10" cy="1889.90" r="10"/>
<text x="1453.10" y="1894.90">R282</text>
<circle cx="1984.52" cy="1148.24" r="10"/>
<text x="1984.52" y="1153.24">R283</text>
<circle cx="1892.90" cy="24.38" r="10"/>
<text x="1892.90" y="29.38">R284</text>
<circle cx="1529.38" cy="1621.20" r="10"/>
<text x="1529.38" y="1626.20">R285</text>
<circle cx="2077.55" cy="1072.37" r="10"/>
<text x="2077.55" y="1077.37">R286</text>
<circle cx="1844.08" cy="917.32" r="10"/>
<text x="1844.08" y="922.32">R287</text>
<circle cx="1581.94" cy="2170.76" r="10"/>
<text x="1581.94" y="2175.76">R288</text>
<circle cx="645.81" cy="1443.34" r="10"/>
<text x="645.81" y="1448.34">R289</text>
<circle cx="103.30" cy="1563.41" r="10"/>
<text x="103.30" y="1568.41">R290</text>
<circle cx="1532.69" cy="1429.89" r="10"/>
<text x="1532.69" y="1434.89">R291</text>
<circle cx="1845.35" cy="1841.84" r="10"/>
<text x="1845.35" y="1846.84">R292</text>
<circle cx="1087.64" cy="477.81" r="10"/>
<text x="1087.64" y="482.81">R293</text>
<circle cx="842.37" cy="1021.69" r="10"/>
<text x="842.37" y="1026.69">R294</text>
<circle cx="778.15" cy="891.77" r="10"/>
<text x="778.15" y="896.77">R295</text>
<circle cx="685.22" cy="1925.53" r="10"/>
<text x="685.22" y="1930.53">R296</text>
<circle cx="455.40" cy="628.45" r="10"/>
<text x="455.40" y="633.45">R297</text>
<circle cx="258.41" cy="1955.10" r="10"/>
<text x="258.41" y="1960.10">R298</text>
<circle cx="1208.93" cy="2176.02" r="10"/>
<text x="1208.93" y="2181.02">R299</text>
<circle cx="894.07" cy="391.09" r="10"/>
<text x="894.07" y="396.09">R300</text>
<circle cx="1042.72" cy="1851.36" r="10"/>
<text x="1042.72" y="1856.36">R301</text>
<circle cx="251.92" cy="369.51" r="10"/>
<text x="251.92" y="374.51">R302</text>
<circle cx="1267.91" cy="1532.40" r="10"/>
<text x="1267.91" y="1537.40">R303</text>
<circle cx="1103.26" cy="311.63" r="10"/>
<text x="1103.26" y="316.63">R304</text>
<circle cx="895.47" cy="1565.33" r="10"/>
<text x="895.47" y="1570.33">R305</text>
<circle cx="164.28" cy="843.17" r="10"/>
<text x="164.28" y="848.17">R306</text>
<circle cx="690.72" cy="144.49" r="10"/>
<text x="690.72" y="149.49">R307</text>
<circle cx="523.71" cy="1557.09" r="10"/>
<text x="523.71" y="1562.09">R308</text>
<circle cx="1406.67" cy="1931.67" r="10"/>
<text x="1406.67" y="1936.67">R309</text>
<circle cx="239.98" cy="1211.16" r="10"/>
<text x="239.98" y="1216.16">R310</text>
<circle cx="175.54" cy="1420.62" r="10"/>
<text x="175.54" y="1425.62">R311</text>
<circle cx="1251.48" cy="763.97" r="10"/>
<text x="1251.48" y="768.97">R312</text>
<circle cx="1246.34" cy="817.12" r="10"/>
<text x="1246.34" y="822.12">R313</text>
<circle cx="950.41" cy="197.91" r="10"/>
<text x="950.41" y="202.91">R314</text>
<circle cx="1496.36" cy="93.44" r="10"/>
<text x="1496.36" y="98.44">R315</text>
<circle cx="1568.30" cy="1964.73" r="10"/>
<text x="1568.30" y="1969.73">R316</text>
<circle cx="1848.44" cy="1333.51" r="10"/>
<text x="1848.44" y="1338.51">R317</text>
<circle cx="795.55" cy="2194.77" r="10"/>
<text x="795.55" y="2199.77">R318</text>
<circle cx="2212.26" cy="1843.28" r="10"/>
<text x="2212.26" y="1848.28">R319</text>
<circle cx="19.29" cy="395.17" r="10"/>
<text x="19.29" y="400.17">R320</text>
<circle cx="1765.75" cy="1159.17" r="10"/>
<text x="1765.75" y="1164.17">R321</text>
<circle cx="418.01" cy="1799.39" r="10"/>
<text x="418.01" y="1804.39">R322</text>
<circle cx="1005.87" cy="1424.21" r="10"/>
<text x="1005.87" y="1429.21">R323</text>
<circle cx="620.42" cy="2093.11" r="10"/>
<text x="620.42" y="2098.11">R324</text>
<circle cx="2178.56" cy="190.64" r="10"/>
<text x="2178.56" y="195.64">R325</text>
<circle cx="969.27" cy="871.63" r="10"/>
<text x="969.27" y="876.63">R326</text>
<circle cx="943.89" cy="1228.74" r="10"/>
<text x="943.89" y="1233.74">R327</text>
<circle cx="620.18" cy="956.11" r="10"/>
<text x="620.18" y="961.11">R328</text>
<circle cx="757.50" cy="2016.68" r="10"/>
<text x="757.50" y="2021.68">R329</text>
<circle cx="1412.04" cy="70.48" r="10"/>
<text x="1412.04" y="75.48">R330</text>
<circle cx="623.80" cy="1550.58" r="10"/>
<text x="623.80" y="1555.58">R331</text>
<circle cx="1122.67" cy="2158.81" r="10"/>
<text x="1122.67" y="2163.81">R332</text>
<circle cx="1917.74" cy="1783.81" r="10"/>
<text x="1917.74" y="1788.81">R333</text>
<circle cx="1743.73" cy="1987.46" r="10"/>
<text x="1743.73" y="1992.46">R334</text>
<circle cx="1220.36" cy="1139.10" r="10"/>
<text x="1220.36" y="1144.10">R335</text>
<circle cx="1470.44" cy="1735.80" r="10"/>
<text x="1470.44" y="1740.80">R336</text>
<circle cx="563.45" cy="345.31" r="10"/>
<text x="563.45" y="350.31">R337</text>
<circle cx="1094.38" cy="1030.23" r="10"/>
<text x="1094.38" y="1035.23">R338</text>
<circle cx="75.12" cy="608.00" r="10"/>
<text x="75.12" y="613.00">R339</text>
<circle cx="186.84" cy="172.68" r="10"/>
<text x="186.84" y="177.68">R340</text>
<circle cx="1067.31" cy="1431.28" r="10"/>
<text x="1067.31" y="1436.28">R341</text>
<circle cx="1373.20" cy="670.68" r="10"/>
<text x="1373.20" y="675.68">R342</text>
<circle cx="1256.84" cy="193.15" r="10"/>
<text x="1256.84" y="198.15">R343</text>
<circle cx="1320.87" cy="113.13" r="10"/>
<text x="1320.87" y="118.13">R344</text>
<circle cx="1633.57" cy="388.05" r="10"/>
<text x="1633.57" y="393.05">R345</text>
<circle cx="1849.90" cy="457.97" r="10"/>
<text x="1849.90" y="462.97">R346</text>
<circle cx="1253.94" cy="316.99" r="10"/>
<text x="1253.94" y="321.99">R347</text>
<circle cx="801.09" cy="1070.66" r="10"/>
<text x="801.09" y="1075.66">R348</text>
<circle cx="1608.61" cy="1934.17" r="10"/>
<text x="1608.61" y="1939.17">R349</text>
<circle cx="567.36" cy="50.64" r="10"/>
<text x="567.36" y="55.64">R350</text>
<circle cx="159.96" cy="2104.54" r="10"/>
<text x="159.96" y="2109.54">R351</text>
<circle cx="135.56" cy="1857.47" r="10"/>
<text x="135.56" y="1862.47">R352</text>
<circle cx="1367.28" cy="2119.56" r="10"/>
<text x="1367.28" y="2124.56">R353</text>
<circle cx="7.74" cy="1793.95" r="10"/>
<text x="7.74" y="1798.95">R354</text>
<circle cx="1624.73" cy="1128.88" r="10"/>
<text x="1624.73" y="1133.88">R355</text>
<circle cx="2022.72" cy="332.38" r="10"/>
<text x="2022.72" y="337.38">R356</text>
<circle cx="1662.66" cy="1007.86" r="10"/>
<text x="1662.66" y="1012.86">R357</text>
<circle cx="1992.96" cy="1039.42" r="10"/>
<text x="1992.96" y="1044.42">R358</text>
<circle cx="2223.90" cy="1967.97" r="10"/>
<text x="2223.90" y="1972.97">R359</text>
<circle cx="2151.80" cy="316.03" r="10"/>
<text x="2151.80" y="321.03">R360</text>
<circle cx="521.85" cy="742.75" r="10"/>
<text x="521.85" y="747.75">R361</text>
<circle cx="2211.80" cy="99.76" r="10"/>
<text x="2211.80" y="104.76">R362</text>
<circle cx="1596.02" cy="1652.73" r="10"/>
<text x="1596.02" y="1657.73">R363</text>
<circle cx="1674.86" cy="195.55" r="10"/>
<text x="1674.86" y="200.55">R364</text>
<circle cx="844.91" cy="472.73" r="10"/>
<text x="844.91" y="477.73">R365</text>
<circle cx="119.32" cy="142.93" r="10"/>
<text x="119.32" y="147.93">R366</text>
<circle cx="1293.34" cy="1732.38" r="10"/>
<text x="1293.34" y="1737.38">R367</text>
<circle cx="1763.40" cy="348.27" r="10"/>
<text x="1763.40" y="353.27">R368</text>
<circle cx="1274.35" cy="1336.82" r="10"/>
<text x="1274.35" y="1341.82">R369</text>
<circle cx="1467.36" cy="712.88" r="10"/>
<text x="1467.36" y="717.88">R370</text>
<circle cx="111.64" cy="925.60" r="10"/>
<text x="111.64" y="930.60">R371</text>
<circle cx="260.98" cy="1151.49" r="10"/>
<text x="260.98" y="1156.49">R372</text>
<circle cx="741.92" cy="2087.02" r="10"/>
<text x="741.92" y="2092.02">R373</text>
<circle cx="421.20" cy="1238.74" r="10"/>
<text x="421.20" y="1243.74">R374</text>
<circle cx="1123.86" cy="969.01" r="10"/>
<text x="1123.86" y="974.01">R375</text>
<circle cx="327.64" cy="351.42" r="10"/>
<text x="327.64" y="356.42">R376</text>
<circle cx="1671.74" cy="1158.75" r="10"/>
<text x="1671.74" y="1163.75">R377</text>
<circle cx="777.46" cy="438.96" r="10"/>
<text x="777.46" y="443.96">R378</text>
<circle cx="1445.08" cy="2006.66" r="10"/>
<text x="1445.08" y="2011.66">R379</text>
<circle cx="1282.80" cy="570.83" r="10"/>
<text x="1282.80" y="575.83">R380</text>
<circle cx="797.99" cy="370.99" r="10"/>
<text x="797.99" y="375.99">R381</text>
<circle cx="1492.84" cy="1963.54" r="10"/>
<text x="1492.84" y="1968.54">R382</text>
<circle cx="542.62" cy="1471.45" r="10"/>
<text x="542.62" y="1476.45">R383</text>
<circle cx="770.09" cy="1095.89" r="10"/>
<text x="770.09" y="1100.89">R384</text>
<circle cx="1057.52" cy="1969.17" r="10"/>
<text x="1057.52" y="1974.17">R385</text>
<circle cx="1814.37" cy="332.09" r="10"/>
<text x="1814.37" y="337.09">R386</text>
<circle cx="493.35" cy="2202.18" r="10"/>
<text x="493.35" y="2207.18">R387</text>
<circle cx="2146.95" cy="2062.70" r="10"/>
<text x="2146.95" y="2067.70">R388</text>
<circle cx="163.68" cy="272.07" r="10"/>
<text x="163.68" y="277.07">R389</text>
<circle cx="488.94" cy="796.14" r="10"/>
<text x="488.94" y="801.14">R390</text>
<circle cx="2118.06" cy="1422.25" r="10"/>
<text x="2118.06" y="1427.25">R391</text>
<circle cx="1492.54" cy="1138.61" r="10"/>
<text x="1492.54" y="1143.61">R392</text>
<circle cx="785.82" cy="236.42" r="10"/>
<text x="785.82" y="241.42">R393</text>
<circle cx="102.54" cy="488.08" r="10"/>
<text x="102.54" y="493.08">R394</text>
<circle cx="1768.01" cy="1191.99" r="10"/>
<text x="1768.01" y="1196.99">R395</text>
<circle cx="1721.54" cy="70.09" r="10"/>
<text x="1721.54" y="75.09">R396</text>
<circle cx="568.53" cy="636.52" r="10"/>
<text x="568.53" y="641.52">R397</text>
<circle cx="1996.11" cy="57.42" r="10"/>
<text x="1996.11" y="62.42">R398</text>
<circle cx="1458.30" cy="622.05" r="10"/>
<text x="1458.30" y="627.05">R399</text>
<circle cx="10.35" cy="1729.13" r="10"/>
<text x="10.35" y="1734.13">R400</text>
<circle cx="759.32" cy="1170.24" r="10"/>
<text x="759.32" y="1175.24">R401</text>
<circle cx="470.08" cy="659.45" r="10"/>
<text x="470.08" y="664.45">R402</text>
<circle cx="1694.45" cy="17.83" r="10"/>
<text x="1694.45" y="22.83">R403</text>
<circle cx="498.99" cy="1569.64" r="10"/>
<text x="498.99" y="1574.64">R404</text>
<circle cx="1441.19" cy="310.84" r="10"/>
<text x="1441.19" y="315.84">R405</text>
<circle cx="944.64" cy="1565.65" r="10"/>
<text x="944.64" y="1570.65">R406</text>
<circle cx="560.91" cy="594.90" r="10"/>
<text x="560.91" y="599.90">R407</text>
<circle cx="48.71" cy="862.83" r="10"/>
<text x="48.71" y="867.83">R408</text>
<circle cx="1409.15" cy="1601.57" r="10"/>
<text x="1409.15" y="1606.57">R409</text>
<circle cx="1681.77" cy="540.43" r="10"/>
<text x="1681.77" y="545.43">R410</text>
<circle cx="194.18" cy="577.18" r="10"/>
<text x="194.18" y="582.18">R411</text>
<circle cx="339.01" cy="806.17" r="10"/>
<text x="339.01" y="811.17">R412</text>
<circle cx="753.20" cy="1515.01" r="10"/>
<text x="753.20" y="1520.01">R413</text>
<circle cx="690.68" cy="2173.67" r="10"/>
<text x="690.68" y="2178.67">R414</text>
<circle cx="199.36" cy="1455.45" r="10"/>
<text x="199.36" y="1460.45">R415</text>
<circle cx="1521.67" cy="1751.93" r="10"/>
<text x="1521.67" y="1756.93">R416</text>
<circle cx="2232.52" cy="239.07" r="10"/>
<text x="2232.52" y="244.07">R417</text>
<circle cx="1660.29" cy="1111.56" r="10"/>
<text x="1660.29" y="1116.56">R418</text>
<circle cx="1739.65" cy="2030.79" r="10"/>
<text x="1739.65" y="2035.79">R419</text>
<circle cx="341.81" cy="1228.49" r="10"/>
<text x="341.81" y="1233.49">R420</text>
<circle cx="1420.54" cy="1310.06" r="10"/>
<text x="1420.54" y="1315.06">R421</text>
<circle cx="1961.63" cy="1841.70" r="10"/>
<text x="1961.63" y="1846.70">R422</text>
<circle cx="551.93" cy="1767.43" r="10"/>
<text x="551.93" y="1772.43">R423</text>
<circle cx="1209.44" cy="1666.43" r="10"/>
<text x="1209.44" y="1671.43">R424</text>
<circle cx="917.65" cy="964.62" r="10"/>
<text x="917.65" y="969.62">R425</text>
<circle cx="2075.58" cy="1585.07" r="10"/>
<text x="2075.58" y="1590.07">R426</text>
<circle cx="943.58" cy="4.12" r="10"/>
<text x="943.58" y="9.12">R427</text>
<circle cx="1817.17" cy="795.40" r="10"/>
<text x="1817.17" y="800.40">R428</text>
<circle cx="2189.94" cy="1902.86" r="10"/>
<text x="2189.94" y="1907.86">R429</text>
<circle cx="1890.89" cy="1285.07" r="10"/>
<text x="1890.89" y="1290.07">R430</text>
<circle cx="1812.10" cy="1436.15" r="10"/>
<text x="1812.10" y="1441.15">R431</text>
<circle cx="254.86" cy="1073.95" r="10"/>
<text x="254.86" y="1078.95">R432</text>
<circle cx="357.80" cy="855.63" r="10"/>
<text x="357.80" y="860.63">R433</text>
<circle cx="1863.37" cy="1120.38" r="10"/>
<text x="1863.37" y="1125.38">R434</text>
<circle cx="1138.33" cy="1515.34" r="10"/>
<text x="1138.33" y="1520.34">R435</text>
<circle cx="460.24" cy="1136.41" r="10"/>
<text x="460.24" y="1141.41">R436</text>
<circle cx="590.42" cy="494.21" r="10"/>
<text x="590.42" y="499.21">R437</text>
<circle cx="1304.21" cy="230.87" r="10"/>
<text x="1304.21" y="235.87">R438</text>
<circle cx="555.41" cy="1214.05" r="10"/>
<text x="555.41" y="1219.05">R439</text>
<circle cx="1487.74" cy="1238.76" r="10"/>
<text x="1487.74" y="1243.76">R440</text>
<circle cx="1393.04" cy="137.73" r="10"/>
<text x="1393.04" y="142.73">R441</text>
<circle cx="148.05" cy="71.55" r="10"/>
<text x="148.05" y="76.55">R442</text>
<circle cx="1134.21" cy="550.68" r="10"/>
<text x="1134.21" y="555.68">R443</text>
<circle cx="1368.22" cy="198.94" r="10"/>
<text x="1368.22" y="203.94">R444</text>
<circle cx="325.13" cy="1600.73" r="10"/>
<text x="325.13" y="1605.73">R445</text>
<circle cx="1375.75" cy="1614.69" r="10"/>
<text x="1375.75" y="1619.69">R446</text>
<circle cx="1472.30" cy="10.63" r="10"/>
<text x="1472.30" y="15.63">R447</text>
<circle cx="1605.90" cy="1414.19" r="10"/>
<text x="1605.90" y="1419.19">R448</text>
<circle cx="315.45" cy="1037.02" r="10"/>
<text x="315.45" y="1042.02">R449</text>
<circle cx="1818.41" cy="1410.51" r="10"/>
<text x="1818.41" y="1415.51">R450</text>
<circle cx="2054.18" cy="805.12" r="10"/>
<text x="2054.18" y="810.12">R451</text>
<circle cx="1103.85" cy="1728.99" r="10"/>
<text x="1103.85" y="1733.99">R452</text>
<circle cx="1849.17" cy="82.77" r="10"/>
<text x="1849.17" y="87.77">R453</text>
<circle cx="539.76" cy="533.49" r="10"/>
<text x="539.76" y="538.49">R454</text>
<circle cx="982.06" cy="810.50" r="10"/>
<text x="982.06" y="815.50">R455</text>
<circle cx="436.25" cy="1054.47" r="10"/>
<text x="436.25" y="1059.47">R456</text>
<circle cx="2104.81" cy="252.66" r="10"/>
<text x="2104.81" y="257.66">R457</text>
<circle cx="826.89" cy="801.01" r="10"/>
<text x="826.89" y="806.01">R458</text>
<circle cx="229.08" cy="977.43" r="10"/>
<text x="229.08" y="982.43">R459</text>
<circle cx="1724.52" cy="2114.14" r="10"/>
<text x="1724.52" y="2119.14">R460</text>
<circle cx="1776.97" cy="1510.24" r="10"/>
<text x="1776.97" y="1515.24">R461</text>
<circle cx="836.75" cy="425.73" r="10"/>
<text x="836.75" y="430.73">R462</text>
<circle cx="1957.47" cy="1618.48" r="10"/>
<text x="1957.47" y="1623.48">R463</text>
<circle cx="1297.25" cy="1098.20" r="10"/>
<text x="1297.25" y="1103.20">R464</text>
<circle cx="1805.63" cy="904.05" r="10"/>
<text x="1805.63" y="909.05">R465</text>
<circle cx="885.53" cy="779.39" r="10"/>
<text x="885.53" y="784.39">R466</text>
<circle cx="1550.97" cy="1362.34" r="10"/>
<text x="1550.97" y="1367.34">R467</text>
<circle cx="96.34" cy="1532.84" r="10"/>
<text x="96.34" y="1537.84">R468</text>
<circle cx="338.75" cy="2186.98" r="10"/>
<text x="338.75" y="2191.98">R469</text>
<circle cx="549.03" cy="1966.55" r="10"/>
<text x="549.03" y="1971.55">R470</text>
<circle cx="969.25" cy="1458.50" r="10"/>
<text x="969.25" y="1463.50">R471</text>
<circle cx="1195.86" cy="2206.85" r="10"/>
<text x="1195.86" y="2211.85">R472</text>
<circle cx="1160.36" cy="291.34" r="10"/>
<text x="1160.36" y="296.34">R473</text>
<circle cx="379.36" cy="254.20" r="10"/>
<text x="379.36" y="259.20">R474</text>
<circle cx="196.64" cy="1299.05" r="10"/>
<text x="196.64" y="1304.05">R475</text>
<circle cx="100.59" cy="379.27" r="10"/>
<text x="100.59" y="384.27">R476</text>
<circle cx="2145.02" cy="1378.36" r="10"/>
<text x="2145.02" y="1383.36">R477</text>
<circle cx="1594.42" cy="1714.88" r="10"/>
<text x="1594.42" y="1719.88">R478</text>
<circle cx="986.12" cy="2134.58" r="10"/>
<text x="986.12" y="2139.58">R479</text>
<circle cx="1180.81" cy="1210.51" r="10"/>
<text x="1180.81" y="1215.51">R480</text>
<circle cx="1994.44" cy="164.00" r="10"/>
<text x="1994.44" y="169.00">R481</text>
<circle cx="100.50" cy="1970.49" r="10"/>
<text x="100.50" y="1975.49">R482</text>
<circle cx="1814.44" cy="1731.19" r="10"/>
<text x="1814.44" y="1736.19">R483</text>
<circle cx="1265.24" cy="1603.85" r="10"/>
<text x="1265.24" y="1608.85">R484</text>
<circle cx="2110.82" cy="1724.78" r="10"/>
<text x="2110.82" y="1729.78">R485</text>
<circle cx="897.68" cy="756.21" r="10"/>
<text x="897.68" y="761.21">R486</text>
<circle cx="742.80" cy="1809.09" r="10"/>
<text x="742.80" y="1814.09">R487</text>
<circle cx="252.02" cy="687.31" r="10"/>
<text x="252.02" y="692.31">R488</text>
<circle cx="1899.72" cy="464.00" r="10"/>
<text x="1899.72" y="469.00">R489</text>
<circle cx="724.06" cy="743.27" r="10"/>
<text x="724.06" y="748.27">R490</text>
<circle cx="1727.97" cy="802.95" r="10"/>
<text x="1727.97" y="807.95">R491</text>
<circle cx="242.99" cy="1327.17" r="10"/>
<text x="242.99" y="1332.17">R492</text>
<circle cx="1074.92" cy="2039.64" r="10"/>
<text x="1074.92" y="2044.64">R493</text>
<circle cx="477.95" cy="2021.23" r="10"/>
<text x="477.95" y="2026.23">R494</text>
<circle cx="1596.56" cy="1993.02" r="10"/>
<text x="1596.56" y="1998.02">R495</text>
<circle cx="1527.88" cy="1216.35" r="10"/>
<text x="1527.88" y="1221.35">R496</text>
<circle cx="849.15" cy="191.13" r="10"/>
<text x="849.15" y="196.13">R497</text>
<circle cx="1488.47" cy="2130.12" r="10"/>
<text x="1488.47" y="2135.12">R498</text>
<circle cx="1297.95" cy="1561.30" r="10"/>
<text x="1297.95" y="1566.30">R499</text>
</svg>
