<svg id="topo" width="2318.47" height="2323.48" viewBox="-42.02 -42.83 2318.47 2323.48" xmlns="http://www.w3.org/2000/svg">
<style>#topo path {fill: none; stroke: grey; stroke-width: 6;} #topo circle {fill: lightblue; stroke: none;} #topo text {fill: black; stroke: none; font-size: 16; font-family: sans-serif; text-anchor:middle;}</style>
<path d="M1722.45,617.41,1612.67,528.95"/>
<path d="M1722.45,617.41,1674.20,662.18"/>
<path d="M1722.45,617.41,1808.14,668.65"/>
<path d="M1722.45,617.41,1779.03,573.72"/>
<path d="M1585.30,964.93,1550.12,925.17"/>
<path d="M1585.30,964.93,1632.97,1033.77"/>
<path d="M1585.30,964.93,1706.25,922.71"/>
<path d="M1585.30,964.93,1641.00,851.62"/>
<path d="M637.65,2193.52,545.76,2100.35"/>
<path d="M637.65,2193.52,657.25,2216.83"/>
<path d="M637.65,2193.52,572.98,2235.65"/>
<path d="M637.65,2193.52,654.38,2114.90"/>
<path d="M207.98,1873.49,205.63,1921.72"/>
<path d="M207.98,1873.49,266.19,1891.16"/>
<path d="M207.98,1873.49,108.06,1873.06"/>
<path d="M207.98,1873.49,201.83,1804.18"/>
<path d="M1308.23,2120.09,1376.10,2027.08"/>
<path d="M1308.23,2120.09,1254.64,2114.17"/>
<path d="M995.11,2210.87,1079.30,2218.98"/>
<path d="M995.11,2210.87,995.64,2142.30"/>
<path d="M588.83,954.44,475.44,946.18"/>
<path d="M588.83,954.44,603.54,895.50"/>
<path d="M588.83,954.44,573.39,1011.23"/>
<path d="M545.76,2100.35,561.75,2061.05"/>
<path d="M545.76,2100.35,525.48,2200.07"/>
<path d="M545.76,2100.35,404.74,2108.81"/>
<path d="M1473.07,1425.48,1443.26,1451.77"/>
<path d="M1473.07,1425.48,1552.99,1442.63"/>
<path d="M1473.07,1425.48,1435.71,1345.08"/>
<path d="M1473.07,1425.48,1551.91,1397.60"/>
<path d="M1153.61,941.66,1085.51,945.16"/>
<path d="M1153.61,941.66,1161.35,1007.57"/>
<path d="M1153.61,941.66,1165.23,817.21"/>
<path d="M1153.61,941.66,1234.05,915.70"/>
<path d="M1589.07,2166.92,1645.54,2219.60"/>
<path d="M1589.07,2166.92,1698.42,2149.94"/>
<path d="M1589.07,2166.92,1503.43,2196.81"/>
<path d="M1589.07,2166.92,1500.31,2141.60"/>
<path d="M1589.07,2166.92,1570.05,2071.78"/>
<path d="M308.64,735.34,371.69,752.24"/>
<path d="M308.64,735.34,315.09,668.29"/>
<path d="M308.64,735.34,249.23,686.64"/>
<path d="M308.64,735.34,267.36,766.71"/>
<path d="M308.64,735.34,288.99,794.48"/>
<path d="M308.64,735.34,346.89,677.74"/>
<path d="M2053.04,2144.09,2061.37,2092.07"/>
<path d="M2053.04,2144.09,2010.56,2105.67"/>
<path d="M2053.04,2144.09,2053.63,2181.63"/>
<path d="M736.37,1346.70,783.97,1328.62"/>
<path d="M736.37,1346.70,759.20,1436.16"/>
<path d="M736.37,1346.70,715.52,1323.04"/>
<path d="M736.37,1346.70,643.62,1417.35"/>
<path d="M1417.31,2055.82,1376.10,2027.08"/>
<path d="M1417.31,2055.82,1456.47,2053.41"/>
<path d="M1725.41,1839.45,1639.05,1849.71"/>
<path d="M1725.41,1839.45,1790.00,1863.26"/>
<path d="M1725.41,1839.45,1748.17,1886.46"/>
<path d="M1725.41,1839.45,1697.26,1730.87"/>
<path d="M1631.98,99.85,1547.12,24.76"/>
<path d="M1631.98,99.85,1686.02,195.31"/>
<path d="M1631.98,99.85,1711.66,77.28"/>
<path d="M1631.98,99.85,1565.58,161.67"/>
<path d="M1631.98,99.85,1646.58,213.08"/>
<path d="M1631.98,99.85,1709.46,114.76"/>
<path d="M1221.58,157.49,1252.05,90.94"/>
<path d="M1221.58,157.49,1255.89,166.18"/>
<path d="M1221.58,157.49,1184.93,230.72"/>
<path d="M1221.58,157.49,1123.86,153.07"/>
<path d="M62.24,1417.48,41.34,1526.24"/>
<path d="M62.24,1417.48,113.59,1392.52"/>
<path d="M797.52,898.02,800.93,941.90"/>
<path d="M797.52,898.02,726.77,891.97"/>
<path d="M797.52,898.02,909.87,882.14"/>
<path d="M797.52,898.02,749.36,792.27"/>
<path d="M797.52,898.02,809.61,780.08"/>
<path d="M1800.59,1353.76,1909.62,1405.92"/>
<path d="M1800.59,1353.76,1730.86,1372.23"/>
<path d="M1800.59,1353.76,1839.61,1294.31"/>
<path d="M1800.59,1353.76,1788.42,1450.36"/>
<path d="M661.54,753.72,583.73,875.54"/>
<path d="M661.54,753.72,644.93,713.88"/>
<path d="M661.54,753.72,749.36,792.27"/>
<path d="M2052.81,1044.54,1991.25,1012.64"/>
<path d="M2052.81,1044.54,2051.64,1072.08"/>
<path d="M2052.81,1044.54,2016.22,994.16"/>
<path d="M2052.81,1044.54,2081.62,972.03"/>
<path d="M1645.54,2219.60,1698.42,2149.94"/>
<path d="M1645.54,2219.60,1745.51,2192.41"/>
<path d="M1527.88,870.51,1550.12,925.17"/>
<path d="M1527.88,870.51,1569.61,836.32"/>
<path d="M1527.88,870.51,1419.04,837.88"/>
<path d="M1909.62,1405.92,1839.61,1294.31"/>
<path d="M1909.62,1405.92,1835.53,1463.67"/>
<path d="M1909.62,1405.92,1957.36,1371.39"/>
<path d="M1909.62,1405.92,1943.41,1513.29"/>
<path d="M2156.11,1498.56,2092.24,1594.89"/>
<path d="M2156.11,1498.56,2201.72,1516.52"/>
<path d="M2156.11,1498.56,2065.81,1505.28"/>
<path d="M2156.11,1498.56,2192.07,1261.77"/>
<path d="M1085.51,945.16,1038.81,879.38"/>
<path d="M1085.51,945.16,992.73,922.87"/>
<path d="M1085.51,945.16,1020.63,1045.69"/>
<path d="M1383.75,100.00,1252.05,90.94"/>
<path d="M1383.75,100.00,1459.51,100.82"/>
<path d="M1383.75,100.00,1420.62,205.94"/>
<path d="M1383.75,100.00,1255.89,166.18"/>
<path d="M1593.81,546.55,1612.67,528.95"/>
<path d="M1593.81,546.55,1567.12,532.31"/>
<path d="M1593.81,546.55,1615.09,701.42"/>
<path d="M1593.81,546.55,1674.20,662.18"/>
<path d="M1376.10,2027.08,1444.31,1915.82"/>
<path d="M1376.10,2027.08,1296.32,1964.59"/>
<path d="M1068.45,828.47,1038.81,879.38"/>
<path d="M1068.45,828.47,1115.25,798.48"/>
<path d="M1068.45,828.47,959.85,700.09"/>
<path d="M1443.26,1451.77,1393.15,1533.63"/>
<path d="M1443.26,1451.77,1344.17,1488.71"/>
<path d="M373.89,1333.83,367.91,1377.02"/>
<path d="M373.89,1333.83,423.43,1299.31"/>
<path d="M373.89,1333.83,357.37,1213.12"/>
<path d="M373.89,1333.83,472.02,1378.09"/>
<path d="M1859.14,339.53,1793.78,371.35"/>
<path d="M1859.14,339.53,1776.51,306.70"/>
<path d="M1859.14,339.53,1894.15,262.80"/>
<path d="M1859.14,339.53,1830.06,236.03"/>
<path d="M1859.14,339.53,2037.79,367.92"/>
<path d="M1859.14,339.53,1891.54,475.44"/>
<path d="M1552.99,1442.63,1551.91,1397.60"/>
<path d="M1552.99,1442.63,1491.78,1610.42"/>
<path d="M1552.99,1442.63,1694.35,1445.23"/>
<path d="M1832.84,137.71,2024.06,197.50"/>
<path d="M1832.84,137.71,1781.77,154.70"/>
<path d="M1832.84,137.71,1830.06,236.03"/>
<path d="M1832.84,137.71,1862.14,49.42"/>
<path d="M1399.13,303.25,1412.54,359.40"/>
<path d="M1399.13,303.25,1447.02,292.74"/>
<path d="M1399.13,303.25,1420.62,205.94"/>
<path d="M1399.13,303.25,1275.17,288.10"/>
<path d="M1812.72,932.92,1851.80,1023.35"/>
<path d="M1812.72,932.92,1808.85,858.06"/>
<path d="M1812.72,932.92,1706.25,922.71"/>
<path d="M1812.72,932.92,1874.95,951.03"/>
<path d="M2116.74,2226.89,2053.63,2181.63"/>
<path d="M2116.74,2226.89,2228.44,2148.90"/>
<path d="M371.69,752.24,346.89,677.74"/>
<path d="M371.69,752.24,428.79,675.38"/>
<path d="M126.40,1727.56,188.63,1759.85"/>
<path d="M126.40,1727.56,65.24,1735.56"/>
<path d="M126.40,1727.56,108.06,1873.06"/>
<path d="M126.40,1727.56,157.17,1657.95"/>
<path d="M2092.24,1594.89,2065.81,1505.28"/>
<path d="M2092.24,1594.89,2020.22,1636.04"/>
<path d="M2092.24,1594.89,2032.66,1538.30"/>
<path d="M423.56,962.12,475.44,946.18"/>
<path d="M423.56,962.12,400.73,995.91"/>
<path d="M423.56,962.12,398.67,955.41"/>
<path d="M1987.19,1889.23,2000.06,1972.84"/>
<path d="M1987.19,1889.23,1921.99,1903.02"/>
<path d="M1987.19,1889.23,1924.73,1849.72"/>
<path d="M1987.19,1889.23,2070.85,1696.94"/>
<path d="M685.74,2024.24,705.28,2100.62"/>
<path d="M685.74,2024.24,591.93,2054.09"/>
<path d="M685.74,2024.24,680.58,1994.76"/>
<path d="M685.74,2024.24,740.71,2058.00"/>
<path d="M367.91,1377.02,363.65,1425.39"/>
<path d="M367.91,1377.02,244.60,1360.32"/>
<path d="M367.91,1377.02,472.02,1378.09"/>
<path d="M171.36,1081.97,342.27,1024.17"/>
<path d="M171.36,1081.97,163.18,900.38"/>
<path d="M171.36,1081.97,194.98,1303.12"/>
<path d="M171.36,1081.97,357.37,1213.12"/>
<path d="M171.36,1081.97,50.79,1142.33"/>
<path d="M1876.70,1660.21,1805.68,1696.93"/>
<path d="M1876.70,1660.21,1939.11,1648.20"/>
<path d="M1876.70,1660.21,1945.87,1725.76"/>
<path d="M864.68,951.03,800.93,941.90"/>
<path d="M864.68,951.03,922.90,964.46"/>
<path d="M864.68,951.03,909.87,882.14"/>
<path d="M864.68,951.03,801.58,1009.85"/>
<path d="M864.68,951.03,893.76,1045.61"/>
<path d="M800.93,941.90,801.58,1009.85"/>
<path d="M952.30,1702.70,880.20,1679.75"/>
<path d="M952.30,1702.70,979.45,1843.20"/>
<path d="M952.30,1702.70,1020.77,1829.90"/>
<path d="M952.30,1702.70,1152.45,1721.16"/>
<path d="M952.30,1702.70,1040.62,1596.02"/>
<path d="M1547.12,24.76,1565.58,161.67"/>
<path d="M1547.12,24.76,1459.51,100.82"/>
<path d="M1639.05,1849.71,1597.94,1688.62"/>
<path d="M1639.05,1849.71,1575.67,1865.93"/>
<path d="M1639.05,1849.71,1697.26,1730.87"/>
<path d="M1639.05,1849.71,1711.14,1988.77"/>
<path d="M778.40,1906.89,706.44,1819.79"/>
<path d="M778.40,1906.89,818.76,1881.04"/>
<path d="M778.40,1906.89,754.00,1959.27"/>
<path d="M778.40,1906.89,814.63,1940.22"/>
<path d="M1739.22,2040.00,1698.42,2149.94"/>
<path d="M1739.22,2040.00,1832.78,2074.33"/>
<path d="M1739.22,2040.00,1802.85,2123.71"/>
<path d="M1739.22,2040.00,1855.35,1958.65"/>
<path d="M1739.22,2040.00,1711.14,1988.77"/>
<path d="M1510.30,339.73,1430.83,388.16"/>
<path d="M1510.30,339.73,1447.02,292.74"/>
<path d="M1510.30,339.73,1565.58,161.67"/>
<path d="M1510.30,339.73,1646.58,213.08"/>
<path d="M1510.30,339.73,1529.50,360.08"/>
<path d="M1510.30,339.73,1462.97,410.59"/>
<path d="M1951.82,2203.13,1971.23,2185.49"/>
<path d="M1951.82,2203.13,1869.71,2139.59"/>
<path d="M274.76,1648.09,188.63,1759.85"/>
<path d="M274.76,1648.09,235.15,1781.73"/>
<path d="M274.76,1648.09,386.90,1571.70"/>
<path d="M274.76,1648.09,372.12,1781.21"/>
<path d="M274.76,1648.09,253.67,1567.55"/>
<path d="M274.76,1648.09,157.17,1657.95"/>
<path d="M1252.05,90.94,1210.22,30.97"/>
<path d="M1252.05,90.94,1255.89,166.18"/>
<path d="M2034.12,1190.09,1948.58,1298.02"/>
<path d="M2034.12,1190.09,2167.60,1221.59"/>
<path d="M2034.12,1190.09,2051.64,1072.08"/>
<path d="M2034.12,1190.09,1906.45,1212.95"/>
<path d="M1368.84,463.68,1393.83,528.66"/>
<path d="M1368.84,463.68,1431.54,446.12"/>
<path d="M1368.84,463.68,1307.12,468.55"/>
<path d="M1368.84,463.68,1424.74,516.46"/>
<path d="M1730.72,256.49,1776.51,306.70"/>
<path d="M1730.72,256.49,1686.02,195.31"/>
<path d="M1730.72,256.49,1781.77,154.70"/>
<path d="M1730.72,256.49,1830.06,236.03"/>
<path d="M1053.88,2124.97,1159.00,1951.64"/>
<path d="M1053.88,2124.97,995.64,2142.30"/>
<path d="M1053.88,2124.97,1077.49,2142.07"/>
<path d="M381.72,1136.31,342.27,1024.17"/>
<path d="M381.72,1136.31,430.92,1134.61"/>
<path d="M381.72,1136.31,357.37,1213.12"/>
<path d="M188.63,1759.85,201.83,1804.18"/>
<path d="M188.63,1759.85,235.15,1781.73"/>
<path d="M1971.23,2185.49,2010.56,2105.67"/>
<path d="M1971.23,2185.49,2053.63,2181.63"/>
<path d="M2024.06,197.50,1916.36,53.13"/>
<path d="M2024.06,197.50,1894.15,262.80"/>
<path d="M2024.06,197.50,2093.78,245.24"/>
<path d="M2024.06,197.50,2065.00,265.72"/>
<path d="M726.77,891.97,603.54,895.50"/>
<path d="M726.77,891.97,749.36,792.27"/>
<path d="M955.18,584.11,930.97,667.92"/>
<path d="M955.18,584.11,980.72,566.15"/>
<path d="M955.18,584.11,838.74,581.15"/>
<path d="M955.18,584.11,922.80,495.66"/>
<path d="M955.18,584.11,879.01,515.27"/>
<path d="M41.34,1526.24,97.76,1561.66"/>
<path d="M41.34,1526.24,54.97,1596.76"/>
<path d="M1793.78,371.35,1747.53,435.87"/>
<path d="M1793.78,371.35,1776.51,306.70"/>
<path d="M1793.78,371.35,1891.54,475.44"/>
<path d="M1698.42,2149.94,1650.51,2016.03"/>
<path d="M1698.42,2149.94,1745.51,2192.41"/>
<path d="M1698.42,2149.94,1760.73,2162.22"/>
<path d="M75.22,545.93,30.18,656.02"/>
<path d="M75.22,545.93,118.91,507.16"/>
<path d="M1948.58,1298.02,1871.11,1259.55"/>
<path d="M1948.58,1298.02,1957.36,1371.39"/>
<path d="M1948.58,1298.02,1906.45,1212.95"/>
<path d="M1240.70,353.41,1220.42,376.57"/>
<path d="M1240.70,353.41,1275.17,288.10"/>
<path d="M642.00,1945.19,591.93,2054.09"/>
<path d="M642.00,1945.19,527.66,2011.55"/>
<path d="M642.00,1945.19,650.89,1827.17"/>
<path d="M642.00,1945.19,678.88,1951.62"/>
<path d="M642.00,1945.19,496.90,1883.43"/>
<path d="M216.89,2152.73,199.03,2092.15"/>
<path d="M216.89,2152.73,53.74,2215.95"/>
<path d="M216.89,2152.73,332.16,2234.14"/>
<path d="M216.89,2152.73,404.74,2108.81"/>
<path d="M1550.12,925.17,1454.56,996.07"/>
<path d="M2000.06,1972.84,1921.99,1903.02"/>
<path d="M2000.06,1972.84,1932.84,2012.04"/>
<path d="M2000.06,1972.84,1997.74,2018.14"/>
<path d="M2.98,1971.09,90.06,1918.88"/>
<path d="M2.98,1971.09,20.76,2075.86"/>
<path d="M1604.66,1998.48,1580.11,1902.58"/>
<path d="M1604.66,1998.48,1650.51,2016.03"/>
<path d="M1604.66,1998.48,1570.05,2071.78"/>
<path d="M1624.97,1156.93,1819.22,1136.10"/>
<path d="M1624.97,1156.93,1625.28,1086.75"/>
<path d="M1624.97,1156.93,1650.05,1308.84"/>
<path d="M1624.97,1156.93,1451.59,1243.77"/>
<path d="M503.31,483.55,589.87,456.74"/>
<path d="M503.31,483.55,509.49,519.93"/>
<path d="M503.31,483.55,498.86,375.25"/>
<path d="M503.31,483.55,427.21,430.90"/>
<path d="M342.27,1024.17,400.73,995.91"/>
<path d="M342.27,1024.17,347.72,918.71"/>
<path d="M1832.78,2074.33,1932.84,2012.04"/>
<path d="M1832.78,2074.33,1802.85,2123.71"/>
<path d="M1832.78,2074.33,1869.71,2139.59"/>
<path d="M1832.78,2074.33,1855.35,1958.65"/>
<path d="M1730.86,1372.23,1710.88,1351.88"/>
<path d="M1730.86,1372.23,1694.35,1445.23"/>
<path d="M1730.86,1372.23,1788.42,1450.36"/>
<path d="M1612.67,528.95,1735.61,475.82"/>
<path d="M131.10,417.95,183.91,383.16"/>
<path d="M131.10,417.95,65.62,397.95"/>
<path d="M131.10,417.95,118.91,507.16"/>
<path d="M1747.53,435.87,1735.61,475.82"/>
<path d="M1747.53,435.87,1529.50,360.08"/>
<path d="M1747.53,435.87,1891.54,475.44"/>
<path d="M1159.00,1951.64,1080.09,1869.48"/>
<path d="M1159.00,1951.64,1219.29,1892.63"/>
<path d="M1159.00,1951.64,1254.64,2114.17"/>
<path d="M838.21,1267.05,930.19,1189.14"/>
<path d="M838.21,1267.05,792.11,1293.04"/>
<path d="M838.21,1267.05,911.57,1400.55"/>
<path d="M2093.15,576.83,2061.99,567.45"/>
<path d="M2093.15,576.83,2111.80,697.90"/>
<path d="M2093.15,576.83,2188.78,404.88"/>
<path d="M2093.15,576.83,2211.46,599.35"/>
<path d="M1580.11,1902.58,1575.67,1865.93"/>
<path d="M1896.03,1850.39,1921.99,1903.02"/>
<path d="M1896.03,1850.39,1790.00,1863.26"/>
<path d="M1896.03,1850.39,1805.68,1696.93"/>
<path d="M1896.03,1850.39,1924.73,1849.72"/>
<path d="M1776.51,306.70,1830.06,236.03"/>
<path d="M1407.02,1163.13,1306.92,1237.99"/>
<path d="M1407.02,1163.13,1451.59,1243.77"/>
<path d="M1407.02,1163.13,1400.38,1087.16"/>
<path d="M2104.41,822.83,2156.70,911.93"/>
<path d="M2104.41,822.83,2111.80,697.90"/>
<path d="M2104.41,822.83,2220.84,845.63"/>
<path d="M2104.41,822.83,1946.17,842.19"/>
<path d="M2104.41,822.83,2093.22,911.78"/>
<path d="M2104.41,822.83,2045.27,737.25"/>
<path d="M2104.41,822.83,2156.24,714.02"/>
<path d="M881.29,1502.83,1014.80,1444.43"/>
<path d="M881.29,1502.83,831.38,1515.87"/>
<path d="M881.29,1502.83,1040.62,1596.02"/>
<path d="M881.29,1502.83,911.57,1400.55"/>
<path d="M776.22,151.33,782.52,177.19"/>
<path d="M776.22,151.33,872.14,27.93"/>
<path d="M776.22,151.33,736.01,131.06"/>
<path d="M476.56,1978.25,527.66,2011.55"/>
<path d="M476.56,1978.25,445.63,1996.47"/>
<path d="M476.56,1978.25,496.90,1883.43"/>
<path d="M705.28,2100.62,795.69,2137.73"/>
<path d="M705.28,2100.62,740.71,2058.00"/>
<path d="M705.28,2100.62,700.59,2218.73"/>
<path d="M705.28,2100.62,654.38,2114.90"/>
<path d="M591.93,2054.09,561.75,2061.05"/>
<path d="M591.93,2054.09,654.38,2114.90"/>
<path d="M706.44,1819.79,852.73,1742.23"/>
<path d="M706.44,1819.79,650.89,1827.17"/>
<path d="M706.44,1819.79,678.88,1951.62"/>
<path d="M2201.72,1516.52,2231.45,1486.95"/>
<path d="M2201.72,1516.52,2209.90,1750.51"/>
<path d="M30.18,656.02,174.85,610.38"/>
<path d="M30.18,656.02,46.77,855.38"/>
<path d="M1839.61,1294.31,1871.11,1259.55"/>
<path d="M1038.81,879.38,992.73,922.87"/>
<path d="M1080.09,1869.48,1219.29,1892.63"/>
<path d="M1080.09,1869.48,1020.77,1829.90"/>
<path d="M1080.09,1869.48,1152.45,1721.16"/>
<path d="M2065.81,1505.28,2048.22,1467.36"/>
<path d="M2065.81,1505.28,2032.66,1538.30"/>
<path d="M1103.99,428.63,1104.29,610.60"/>
<path d="M1103.99,428.63,998.20,520.59"/>
<path d="M1103.99,428.63,1220.42,376.57"/>
<path d="M1103.99,428.63,1247.31,439.23"/>
<path d="M1103.99,428.63,956.65,277.72"/>
<path d="M1871.11,1259.55,1906.45,1212.95"/>
<path d="M795.69,2137.73,792.79,2031.22"/>
<path d="M795.69,2137.73,740.71,2058.00"/>
<path d="M795.69,2137.73,700.59,2218.73"/>
<path d="M795.69,2137.73,841.20,2042.90"/>
<path d="M795.69,2137.73,899.63,2095.87"/>
<path d="M205.63,1921.72,266.19,1891.16"/>
<path d="M205.63,1921.72,90.06,1918.88"/>
<path d="M205.63,1921.72,258.50,2037.38"/>
<path d="M205.63,1921.72,108.06,1873.06"/>
<path d="M1430.83,388.16,1412.54,359.40"/>
<path d="M1430.83,388.16,1431.54,446.12"/>
<path d="M1430.83,388.16,1462.97,410.59"/>
<path d="M1435.71,1345.08,1329.64,1316.43"/>
<path d="M1435.71,1345.08,1470.39,1307.64"/>
<path d="M1921.99,1903.02,1932.84,2012.04"/>
<path d="M1921.99,1903.02,1924.73,1849.72"/>
<path d="M1921.99,1903.02,1855.35,1958.65"/>
<path d="M1916.36,53.13,1862.14,49.42"/>
<path d="M1024.08,1361.21,1014.80,1444.43"/>
<path d="M1024.08,1361.21,930.19,1189.14"/>
<path d="M1024.08,1361.21,1117.73,1426.34"/>
<path d="M1024.08,1361.21,1019.91,1185.53"/>
<path d="M1024.08,1361.21,1183.29,1278.21"/>
<path d="M1024.08,1361.21,911.57,1400.55"/>
<path d="M657.25,2216.83,700.59,2218.73"/>
<path d="M400.67,1903.07,266.19,1891.16"/>
<path d="M400.67,1903.07,372.12,1781.21"/>
<path d="M400.67,1903.07,411.04,1942.09"/>
<path d="M400.67,1903.07,496.90,1883.43"/>
<path d="M400.67,1903.07,436.63,1791.57"/>
<path d="M1334.57,787.93,1299.54,923.51"/>
<path d="M1334.57,787.93,1241.01,848.58"/>
<path d="M1334.57,787.93,1335.87,722.52"/>
<path d="M1334.57,787.93,1419.04,837.88"/>
<path d="M2167.60,1221.59,2192.07,1261.77"/>
<path d="M418.26,2022.38,393.81,2057.42"/>
<path d="M418.26,2022.38,445.63,1996.47"/>
<path d="M45.26,1670.11,65.24,1735.56"/>
<path d="M45.26,1670.11,131.00,1632.16"/>
<path d="M45.26,1670.11,54.97,1596.76"/>
<path d="M1735.61,475.82,1781.67,548.77"/>
<path d="M2228.85,130.84,2201.77,332.32"/>
<path d="M2228.85,130.84,2116.51,259.92"/>
<path d="M1422.16,1712.89,1597.94,1688.62"/>
<path d="M1422.16,1712.89,1219.29,1892.63"/>
<path d="M1422.16,1712.89,1491.78,1610.42"/>
<path d="M1422.16,1712.89,1371.35,1596.92"/>
<path d="M1422.16,1712.89,1467.49,1835.74"/>
<path d="M1412.54,359.40,1447.02,292.74"/>
<path d="M1115.25,798.48,1150.78,736.37"/>
<path d="M1115.25,798.48,1165.23,817.21"/>
<path d="M815.95,1584.97,880.20,1679.75"/>
<path d="M815.95,1584.97,831.38,1515.87"/>
<path d="M815.95,1584.97,667.69,1576.93"/>
<path d="M571.28,22.68,792.35,10.33"/>
<path d="M571.28,22.68,514.24,159.46"/>
<path d="M571.28,22.68,641.53,165.73"/>
<path d="M571.28,22.68,462.13,14.93"/>
<path d="M571.28,22.68,482.23,139.92"/>
<path d="M1597.94,1688.62,1491.78,1610.42"/>
<path d="M1597.94,1688.62,1525.38,1846.90"/>
<path d="M1597.94,1688.62,1697.26,1730.87"/>
<path d="M1597.94,1688.62,1715.89,1578.20"/>
<path d="M126.33,75.77,41.01,10.03"/>
<path d="M126.33,75.77,146.05,7.24"/>
<path d="M126.33,75.77,280.88,129.02"/>
<path d="M126.33,75.77,137.29,160.67"/>
<path d="M547.31,1623.34,528.70,1510.04"/>
<path d="M547.31,1623.34,616.65,1746.14"/>
<path d="M547.31,1623.34,510.09,1645.01"/>
<path d="M547.31,1623.34,667.69,1576.93"/>
<path d="M547.31,1623.34,628.65,1494.81"/>
<path d="M487.00,189.94,311.04,169.70"/>
<path d="M487.00,189.94,469.84,259.85"/>
<path d="M487.00,189.94,514.24,159.46"/>
<path d="M487.00,189.94,482.23,139.92"/>
<path d="M1569.61,836.32,1555.44,739.97"/>
<path d="M1569.61,836.32,1641.00,851.62"/>
<path d="M1219.29,1892.63,1152.45,1721.16"/>
<path d="M1219.29,1892.63,1296.32,1964.59"/>
<path d="M1790.00,1863.26,1805.68,1696.93"/>
<path d="M1790.00,1863.26,1748.17,1886.46"/>
<path d="M1790.00,1863.26,1855.35,1958.65"/>
<path d="M183.91,383.16,253.79,541.69"/>
<path d="M183.91,383.16,283.62,379.13"/>
<path d="M183.91,383.16,123.34,186.85"/>
<path d="M183.91,383.16,258.10,289.89"/>
<path d="M1244.98,1037.90,1241.90,1165.79"/>
<path d="M1244.98,1037.90,1160.32,1059.96"/>
<path d="M1244.98,1037.90,1161.35,1007.57"/>
<path d="M1244.98,1037.90,1299.32,1041.60"/>
<path d="M1244.98,1037.90,1277.40,949.30"/>
<path d="M1241.90,1165.79,1066.02,1176.30"/>
<path d="M1241.90,1165.79,1160.32,1059.96"/>
<path d="M1241.90,1165.79,1299.32,1041.60"/>
<path d="M1241.90,1165.79,1306.92,1237.99"/>
<path d="M1241.90,1165.79,1183.29,1278.21"/>
<path d="M348.10,376.89,425.10,331.49"/>
<path d="M348.10,376.89,404.38,454.03"/>
<path d="M348.10,376.89,283.62,379.13"/>
<path d="M348.10,376.89,363.66,303.80"/>
<path d="M348.10,376.89,427.21,430.90"/>
<path d="M1014.80,1444.43,1117.73,1426.34"/>
<path d="M1014.80,1444.43,1040.62,1596.02"/>
<path d="M1014.80,1444.43,911.57,1400.55"/>
<path d="M1894.15,262.80,1830.06,236.03"/>
<path d="M1894.15,262.80,2037.79,367.92"/>
<path d="M438.09,1243.08,430.92,1134.61"/>
<path d="M438.09,1243.08,423.43,1299.31"/>
<path d="M438.09,1243.08,616.54,1220.20"/>
<path d="M438.09,1243.08,357.37,1213.12"/>
<path d="M1551.91,1397.60,1573.28,1325.04"/>
<path d="M1551.91,1397.60,1470.39,1307.64"/>
<path d="M475.44,946.18,583.73,875.54"/>
<path d="M475.44,946.18,573.39,1011.23"/>
<path d="M930.97,667.92,838.74,581.15"/>
<path d="M930.97,667.92,959.85,700.09"/>
<path d="M930.97,667.92,809.61,780.08"/>
<path d="M311.04,169.70,469.84,259.85"/>
<path d="M311.04,169.70,363.66,303.80"/>
<path d="M311.04,169.70,406.85,62.02"/>
<path d="M311.04,169.70,280.88,129.02"/>
<path d="M311.04,169.70,265.02,234.80"/>
<path d="M311.04,169.70,482.23,139.92"/>
<path d="M1991.48,2055.25,1932.84,2012.04"/>
<path d="M1991.48,2055.25,2010.56,2105.67"/>
<path d="M1991.48,2055.25,1869.71,2139.59"/>
<path d="M1991.48,2055.25,1997.74,2018.14"/>
<path d="M839.79,254.37,892.23,158.40"/>
<path d="M839.79,254.37,802.97,260.14"/>
<path d="M839.79,254.37,888.13,338.47"/>
<path d="M839.79,254.37,956.65,277.72"/>
<path d="M329.05,565.00,404.38,454.03"/>
<path d="M329.05,565.00,315.09,668.29"/>
<path d="M329.05,565.00,284.82,555.02"/>
<path d="M1299.54,923.51,1361.04,964.06"/>
<path d="M1299.54,923.51,1277.40,949.30"/>
<path d="M1299.54,923.51,1419.04,837.88"/>
<path d="M589.87,456.74,646.55,469.44"/>
<path d="M589.87,456.74,583.95,358.74"/>
<path d="M589.87,456.74,631.06,368.54"/>
<path d="M589.87,456.74,498.86,375.25"/>
<path d="M589.87,456.74,617.74,543.27"/>
<path d="M434.62,1455.90,528.70,1510.04"/>
<path d="M434.62,1455.90,363.65,1425.39"/>
<path d="M434.62,1455.90,386.90,1571.70"/>
<path d="M434.62,1455.90,472.02,1378.09"/>
<path d="M1851.80,1023.35,1861.77,1099.68"/>
<path d="M1851.80,1023.35,1991.25,1012.64"/>
<path d="M1851.80,1023.35,1632.97,1033.77"/>
<path d="M1851.80,1023.35,1874.95,951.03"/>
<path d="M266.19,1891.16,372.12,1781.21"/>
<path d="M1525.50,532.16,1463.86,618.47"/>
<path d="M1525.50,532.16,1451.05,504.99"/>
<path d="M1525.50,532.16,1567.12,532.31"/>
<path d="M1104.29,610.60,1047.82,642.88"/>
<path d="M1104.29,610.60,998.20,520.59"/>
<path d="M1104.29,610.60,1247.31,439.23"/>
<path d="M1104.29,610.60,1167.34,696.46"/>
<path d="M1686.02,195.31,1646.58,213.08"/>
<path d="M1686.02,195.31,1781.77,154.70"/>
<path d="M1686.02,195.31,1709.46,114.76"/>
<path d="M430.92,1134.61,615.66,1144.04"/>
<path d="M430.92,1134.61,400.73,995.91"/>
<path d="M430.92,1134.61,573.39,1011.23"/>
<path d="M2162.78,347.31,2090.89,301.12"/>
<path d="M2162.78,347.31,2201.77,332.32"/>
<path d="M2162.78,347.31,2188.78,404.88"/>
<path d="M880.20,1679.75,852.73,1742.23"/>
<path d="M42.17,311.13,65.62,397.95"/>
<path d="M42.17,311.13,123.34,186.85"/>
<path d="M42.17,311.13,59.65,176.95"/>
<path d="M1711.66,77.28,1816.06,2.17"/>
<path d="M1711.66,77.28,1709.46,114.76"/>
<path d="M831.38,1515.87,809.92,1462.79"/>
<path d="M1932.84,2012.04,1855.35,1958.65"/>
<path d="M1932.84,2012.04,1997.74,2018.14"/>
<path d="M680.58,1994.76,754.00,1959.27"/>
<path d="M680.58,1994.76,678.88,1951.62"/>
<path d="M2061.37,2092.07,2010.56,2105.67"/>
<path d="M2061.37,2092.07,2198.70,2049.26"/>
<path d="M2061.37,2092.07,2228.44,2148.90"/>
<path d="M892.23,158.40,782.52,177.19"/>
<path d="M892.23,158.40,981.35,190.30"/>
<path d="M892.23,158.40,872.14,27.93"/>
<path d="M646.55,469.44,711.34,552.74"/>
<path d="M646.55,469.44,758.57,509.47"/>
<path d="M646.55,469.44,631.06,368.54"/>
<path d="M646.55,469.44,617.74,543.27"/>
<path d="M646.55,469.44,724.28,371.58"/>
<path d="M2093.78,245.24,2116.51,259.92"/>
<path d="M2093.78,245.24,2065.00,265.72"/>
<path d="M2048.22,1467.36,2192.07,1261.77"/>
<path d="M2048.22,1467.36,1957.36,1371.39"/>
<path d="M2048.22,1467.36,1943.41,1513.29"/>
<path d="M1805.68,1696.93,1697.26,1730.87"/>
<path d="M1805.68,1696.93,1715.89,1578.20"/>
<path d="M2090.89,301.12,2116.51,259.92"/>
<path d="M2090.89,301.12,2065.00,265.72"/>
<path d="M2090.89,301.12,2037.79,367.92"/>
<path d="M148.89,530.47,222.09,586.42"/>
<path d="M148.89,530.47,253.79,541.69"/>
<path d="M148.89,530.47,174.85,610.38"/>
<path d="M148.89,530.47,118.91,507.16"/>
<path d="M1748.17,1886.46,1711.14,1988.77"/>
<path d="M1447.02,292.74,1420.62,205.94"/>
<path d="M2192.07,1261.77,2231.45,1486.95"/>
<path d="M1808.85,858.06,1946.17,842.19"/>
<path d="M1808.85,858.06,1814.90,812.25"/>
<path d="M1808.85,858.06,1725.50,854.59"/>
<path d="M1924.73,1849.72,1945.87,1725.76"/>
<path d="M1650.51,2016.03,1711.14,1988.77"/>
<path d="M1555.44,739.97,1463.86,618.47"/>
<path d="M1555.44,739.97,1615.09,701.42"/>
<path d="M1555.44,739.97,1419.04,837.88"/>
<path d="M222.09,586.42,315.09,668.29"/>
<path d="M222.09,586.42,249.23,686.64"/>
<path d="M222.09,586.42,253.79,541.69"/>
<path d="M222.09,586.42,174.85,610.38"/>
<path d="M583.95,358.74,631.06,368.54"/>
<path d="M583.95,358.74,498.86,375.25"/>
<path d="M583.95,358.74,641.53,165.73"/>
<path d="M425.10,331.49,469.84,259.85"/>
<path d="M425.10,331.49,363.66,303.80"/>
<path d="M425.10,331.49,498.86,375.25"/>
<path d="M425.10,331.49,427.21,430.90"/>
<path d="M90.06,1918.88,108.06,1873.06"/>
<path d="M90.06,1918.88,199.03,2092.15"/>
<path d="M2201.77,332.32,2188.78,404.88"/>
<path d="M792.79,2031.22,740.71,2058.00"/>
<path d="M792.79,2031.22,754.00,1959.27"/>
<path d="M792.79,2031.22,841.20,2042.90"/>
<path d="M792.79,2031.22,845.71,1957.21"/>
<path d="M792.79,2031.22,814.63,1940.22"/>
<path d="M1745.51,2192.41,1760.73,2162.22"/>
<path d="M1491.78,1610.42,1393.15,1533.63"/>
<path d="M1491.78,1610.42,1371.35,1596.92"/>
<path d="M740.71,2058.00,754.00,1959.27"/>
<path d="M1066.02,1176.30,1160.32,1059.96"/>
<path d="M1066.02,1176.30,1034.77,1079.01"/>
<path d="M1066.02,1176.30,1019.91,1185.53"/>
<path d="M1066.02,1176.30,1183.29,1278.21"/>
<path d="M528.70,1510.04,434.33,1593.44"/>
<path d="M528.70,1510.04,628.65,1494.81"/>
<path d="M404.38,454.03,427.21,430.90"/>
<path d="M315.09,668.29,249.23,686.64"/>
<path d="M315.09,668.29,346.89,677.74"/>
<path d="M979.45,1843.20,1020.77,1829.90"/>
<path d="M979.45,1843.20,938.00,1880.41"/>
<path d="M979.45,1843.20,852.73,1742.23"/>
<path d="M1393.83,528.66,1463.86,618.47"/>
<path d="M1393.83,528.66,1424.74,516.46"/>
<path d="M1575.67,1865.93,1525.38,1846.90"/>
<path d="M65.24,1735.56,23.63,1805.40"/>
<path d="M1393.15,1533.63,1371.35,1596.92"/>
<path d="M1393.15,1533.63,1298.13,1559.28"/>
<path d="M1393.15,1533.63,1344.17,1488.71"/>
<path d="M1802.85,2123.71,1869.71,2139.59"/>
<path d="M1802.85,2123.71,1760.73,2162.22"/>
<path d="M1802.85,2123.71,1802.22,2168.27"/>
<path d="M1710.88,1351.88,1650.05,1308.84"/>
<path d="M1160.32,1059.96,1161.35,1007.57"/>
<path d="M1160.32,1059.96,1034.77,1079.01"/>
<path d="M922.90,964.46,939.91,945.90"/>
<path d="M922.90,964.46,1020.63,1045.69"/>
<path d="M922.90,964.46,893.76,1045.61"/>
<path d="M469.84,259.85,498.86,375.25"/>
<path d="M930.19,1189.14,1019.91,1185.53"/>
<path d="M930.19,1189.14,893.76,1045.61"/>
<path d="M1861.77,1099.68,1819.22,1136.10"/>
<path d="M1861.77,1099.68,1991.25,1012.64"/>
<path d="M1861.77,1099.68,1885.72,1168.88"/>
<path d="M615.66,1144.04,573.39,1011.23"/>
<path d="M615.66,1144.04,616.54,1220.20"/>
<path d="M615.66,1144.04,801.58,1009.85"/>
<path d="M2156.70,911.93,2220.84,845.63"/>
<path d="M2156.70,911.93,2124.09,933.76"/>
<path d="M711.34,552.74,758.57,509.47"/>
<path d="M711.34,552.74,709.56,607.61"/>
<path d="M711.34,552.74,617.74,543.27"/>
<path d="M258.50,2037.38,393.81,2057.42"/>
<path d="M258.50,2037.38,199.03,2092.15"/>
<path d="M108.06,1873.06,201.83,1804.18"/>
<path d="M108.06,1873.06,23.63,1805.40"/>
<path d="M695.92,683.03,709.56,607.61"/>
<path d="M695.92,683.03,644.93,713.88"/>
<path d="M695.92,683.03,749.36,792.27"/>
<path d="M97.76,1561.66,137.27,1597.88"/>
<path d="M97.76,1561.66,177.92,1515.82"/>
<path d="M97.76,1561.66,54.97,1596.76"/>
<path d="M517.64,1344.59,601.09,1356.86"/>
<path d="M517.64,1344.59,492.49,1335.64"/>
<path d="M517.64,1344.59,616.54,1220.20"/>
<path d="M1869.71,2139.59,1802.22,2168.27"/>
<path d="M818.76,1881.04,852.73,1742.23"/>
<path d="M818.76,1881.04,888.97,1925.52"/>
<path d="M818.76,1881.04,814.63,1940.22"/>
<path d="M818.76,1881.04,899.58,1899.71"/>
<path d="M980.72,566.15,1047.82,642.88"/>
<path d="M980.72,566.15,998.20,520.59"/>
<path d="M980.72,566.15,922.80,495.66"/>
<path d="M1855.35,1958.65,1711.14,1988.77"/>
<path d="M1371.35,1596.92,1298.13,1559.28"/>
<path d="M284.82,555.02,253.79,541.69"/>
<path d="M1161.35,1007.57,1020.63,1045.69"/>
<path d="M690.80,1306.94,601.09,1356.86"/>
<path d="M690.80,1306.94,616.54,1220.20"/>
<path d="M690.80,1306.94,715.52,1323.04"/>
<path d="M690.80,1306.94,643.62,1417.35"/>
<path d="M690.80,1306.94,734.10,1279.94"/>
<path d="M10.91,2226.23,53.74,2215.95"/>
<path d="M838.74,581.15,758.57,509.47"/>
<path d="M838.74,581.15,709.56,607.61"/>
<path d="M838.74,581.15,879.01,515.27"/>
<path d="M838.74,581.15,809.61,780.08"/>
<path d="M572.98,2235.65,525.48,2200.07"/>
<path d="M249.23,686.64,267.36,766.71"/>
<path d="M249.23,686.64,174.85,610.38"/>
<path d="M1079.30,2218.98,1231.70,2207.56"/>
<path d="M1079.30,2218.98,1077.49,2142.07"/>
<path d="M2061.99,567.45,2019.02,541.81"/>
<path d="M163.18,900.38,288.99,794.48"/>
<path d="M163.18,900.38,46.77,855.38"/>
<path d="M163.18,900.38,347.72,918.71"/>
<path d="M1694.35,1445.23,1788.42,1450.36"/>
<path d="M1694.35,1445.23,1698.40,1554.74"/>
<path d="M216.67,1363.67,194.98,1303.12"/>
<path d="M216.67,1363.67,244.60,1360.32"/>
<path d="M216.67,1363.67,113.59,1392.52"/>
<path d="M561.75,2061.05,527.66,2011.55"/>
<path d="M1456.47,2053.41,1444.31,1915.82"/>
<path d="M1456.47,2053.41,1473.47,2078.18"/>
<path d="M1299.32,1041.60,1361.04,964.06"/>
<path d="M1299.32,1041.60,1277.40,949.30"/>
<path d="M1299.32,1041.60,1400.38,1087.16"/>
<path d="M1503.43,2196.81,1500.31,2141.60"/>
<path d="M1361.04,964.06,1419.04,837.88"/>
<path d="M1361.04,964.06,1400.38,1087.16"/>
<path d="M1361.04,964.06,1454.56,996.07"/>
<path d="M1047.82,642.88,959.85,700.09"/>
<path d="M901.10,402.65,922.80,495.66"/>
<path d="M901.10,402.65,888.13,338.47"/>
<path d="M901.10,402.65,956.12,481.60"/>
<path d="M758.57,509.47,724.28,371.58"/>
<path d="M758.57,509.47,879.01,515.27"/>
<path d="M782.52,177.19,802.97,260.14"/>
<path d="M1525.38,1846.90,1467.49,1835.74"/>
<path d="M201.83,1804.18,235.15,1781.73"/>
<path d="M1819.22,1136.10,1885.72,1168.88"/>
<path d="M1819.22,1136.10,1625.28,1086.75"/>
<path d="M1819.22,1136.10,1650.05,1308.84"/>
<path d="M1565.58,161.67,1459.51,100.82"/>
<path d="M1565.58,161.67,1420.62,205.94"/>
<path d="M1565.58,161.67,1646.58,213.08"/>
<path d="M235.15,1781.73,372.12,1781.21"/>
<path d="M1991.25,1012.64,2016.22,994.16"/>
<path d="M1991.25,1012.64,1874.95,951.03"/>
<path d="M1463.86,618.47,1335.87,722.52"/>
<path d="M1463.86,618.47,1424.74,516.46"/>
<path d="M253.79,541.69,283.62,379.13"/>
<path d="M792.35,10.33,872.14,27.93"/>
<path d="M792.35,10.33,736.01,131.06"/>
<path d="M1697.26,1730.87,1715.89,1578.20"/>
<path d="M1177.99,40.34,1210.22,30.97"/>
<path d="M1177.99,40.34,1077.44,98.82"/>
<path d="M1177.99,40.34,1123.86,153.07"/>
<path d="M1885.72,1168.88,1906.45,1212.95"/>
<path d="M603.54,895.50,583.73,875.54"/>
<path d="M754.00,1959.27,678.88,1951.62"/>
<path d="M754.00,1959.27,814.63,1940.22"/>
<path d="M998.20,520.59,956.12,481.60"/>
<path d="M393.81,2057.42,404.74,2108.81"/>
<path d="M423.43,1299.31,492.49,1335.64"/>
<path d="M1150.78,736.37,1165.23,817.21"/>
<path d="M1150.78,736.37,1167.34,696.46"/>
<path d="M1781.67,548.77,1916.14,514.53"/>
<path d="M1781.67,548.77,1891.54,475.44"/>
<path d="M1781.67,548.77,1779.03,573.72"/>
<path d="M525.48,2200.07,332.16,2234.14"/>
<path d="M525.48,2200.07,404.74,2108.81"/>
<path d="M959.85,700.09,939.19,885.35"/>
<path d="M959.85,700.09,809.61,780.08"/>
<path d="M1715.89,1578.20,1698.40,1554.74"/>
<path d="M631.06,368.54,724.28,371.58"/>
<path d="M631.06,368.54,641.53,165.73"/>
<path d="M194.98,1303.12,113.59,1392.52"/>
<path d="M194.98,1303.12,357.37,1213.12"/>
<path d="M194.98,1303.12,50.79,1142.33"/>
<path d="M939.91,945.90,939.19,885.35"/>
<path d="M939.91,945.90,992.73,922.87"/>
<path d="M939.91,945.90,1020.63,1045.69"/>
<path d="M1034.77,1079.01,1020.63,1045.69"/>
<path d="M1034.77,1079.01,1019.91,1185.53"/>
<path d="M1165.23,817.21,1241.01,848.58"/>
<path d="M1451.05,504.99,1431.54,446.12"/>
<path d="M1451.05,504.99,1424.74,516.46"/>
<path d="M783.97,1328.62,792.11,1293.04"/>
<path d="M783.97,1328.62,911.57,1400.55"/>
<path d="M783.97,1328.62,734.10,1279.94"/>
<path d="M583.73,875.54,524.53,744.39"/>
<path d="M1020.77,1829.90,1152.45,1721.16"/>
<path d="M939.19,885.35,992.73,922.87"/>
<path d="M939.19,885.35,909.87,882.14"/>
<path d="M1431.54,446.12,1462.97,410.59"/>
<path d="M400.73,995.91,398.67,955.41"/>
<path d="M267.36,766.71,288.99,794.48"/>
<path d="M1241.01,848.58,1234.05,915.70"/>
<path d="M1329.64,1316.43,1306.92,1237.99"/>
<path d="M1329.64,1316.43,1183.29,1278.21"/>
<path d="M1329.64,1316.43,1451.59,1243.77"/>
<path d="M1329.64,1316.43,1208.20,1400.44"/>
<path d="M1329.64,1316.43,1344.17,1488.71"/>
<path d="M1152.45,1721.16,1040.62,1596.02"/>
<path d="M1152.45,1721.16,1259.88,1589.57"/>
<path d="M1234.05,915.70,1277.40,949.30"/>
<path d="M509.49,519.93,534.46,627.87"/>
<path d="M509.49,519.93,617.74,543.27"/>
<path d="M1306.92,1237.99,1183.29,1278.21"/>
<path d="M1306.92,1237.99,1451.59,1243.77"/>
<path d="M288.99,794.48,347.72,918.71"/>
<path d="M2111.80,697.90,2045.27,737.25"/>
<path d="M2111.80,697.90,2156.24,714.02"/>
<path d="M1816.06,2.17,1862.14,49.42"/>
<path d="M2070.85,1696.94,2031.87,1660.74"/>
<path d="M2070.85,1696.94,2209.90,1750.51"/>
<path d="M2220.84,845.63,2156.24,714.02"/>
<path d="M1946.17,842.19,1814.90,812.25"/>
<path d="M1946.17,842.19,1933.44,775.90"/>
<path d="M1946.17,842.19,2016.22,994.16"/>
<path d="M1946.17,842.19,2093.22,911.78"/>
<path d="M1946.17,842.19,1874.95,951.03"/>
<path d="M938.00,1880.41,852.73,1742.23"/>
<path d="M938.00,1880.41,915.85,1924.92"/>
<path d="M938.00,1880.41,899.58,1899.71"/>
<path d="M601.09,1356.86,616.54,1220.20"/>
<path d="M601.09,1356.86,643.62,1417.35"/>
<path d="M1114.67,190.08,981.35,190.30"/>
<path d="M1114.67,190.08,1184.93,230.72"/>
<path d="M1114.67,190.08,1123.86,153.07"/>
<path d="M1288.93,1535.80,1208.20,1400.44"/>
<path d="M1288.93,1535.80,1298.13,1559.28"/>
<path d="M1288.93,1535.80,1344.17,1488.71"/>
<path d="M1939.11,1648.20,2020.22,1636.04"/>
<path d="M1939.11,1648.20,1945.87,1725.76"/>
<path d="M1939.11,1648.20,1988.83,1690.83"/>
<path d="M1939.11,1648.20,1919.69,1532.72"/>
<path d="M841.20,2042.90,845.71,1957.21"/>
<path d="M841.20,2042.90,899.63,2095.87"/>
<path d="M2020.22,1636.04,2032.66,1538.30"/>
<path d="M2020.22,1636.04,2031.87,1660.74"/>
<path d="M283.62,379.13,258.10,289.89"/>
<path d="M363.65,1425.39,265.21,1443.06"/>
<path d="M1625.28,1086.75,1632.97,1033.77"/>
<path d="M1459.51,100.82,1420.62,205.94"/>
<path d="M1444.31,1915.82,1296.32,1964.59"/>
<path d="M1444.31,1915.82,1467.49,1835.74"/>
<path d="M386.90,1571.70,434.33,1593.44"/>
<path d="M386.90,1571.70,265.21,1443.06"/>
<path d="M386.90,1571.70,253.67,1567.55"/>
<path d="M1220.42,376.57,1247.31,439.23"/>
<path d="M759.20,1436.16,809.92,1462.79"/>
<path d="M759.20,1436.16,667.69,1576.93"/>
<path d="M759.20,1436.16,643.62,1417.35"/>
<path d="M1420.62,205.94,1255.89,166.18"/>
<path d="M981.35,190.30,1077.44,98.82"/>
<path d="M981.35,190.30,956.65,277.72"/>
<path d="M1296.32,1964.59,1254.64,2114.17"/>
<path d="M2019.02,541.81,1916.14,514.53"/>
<path d="M2019.02,541.81,1933.08,684.70"/>
<path d="M2019.02,541.81,2017.17,502.73"/>
<path d="M2032.66,1538.30,1943.41,1513.29"/>
<path d="M1567.12,532.31,1529.50,360.08"/>
<path d="M244.60,1360.32,265.21,1443.06"/>
<path d="M534.46,627.87,617.74,543.27"/>
<path d="M534.46,627.87,644.93,713.88"/>
<path d="M534.46,627.87,476.06,707.61"/>
<path d="M123.34,186.85,59.65,176.95"/>
<path d="M123.34,186.85,265.02,234.80"/>
<path d="M123.34,186.85,137.29,160.67"/>
<path d="M363.66,303.80,258.10,289.89"/>
<path d="M1916.14,514.53,1933.08,684.70"/>
<path d="M1916.14,514.53,2017.17,502.73"/>
<path d="M1916.14,514.53,1891.54,475.44"/>
<path d="M852.73,1742.23,899.58,1899.71"/>
<path d="M498.86,375.25,427.21,430.90"/>
<path d="M1814.90,812.25,1849.49,761.82"/>
<path d="M1760.73,2162.22,1802.22,2168.27"/>
<path d="M1573.28,1325.04,1470.39,1307.64"/>
<path d="M1573.28,1325.04,1650.05,1308.84"/>
<path d="M1646.58,213.08,1529.50,360.08"/>
<path d="M1632.97,1033.77,1706.25,922.71"/>
<path d="M922.80,495.66,879.01,515.27"/>
<path d="M922.80,495.66,956.12,481.60"/>
<path d="M1307.12,468.55,1247.31,439.23"/>
<path d="M1307.12,468.55,1167.34,696.46"/>
<path d="M514.24,159.46,641.53,165.73"/>
<path d="M514.24,159.46,482.23,139.92"/>
<path d="M1788.42,1450.36,1835.53,1463.67"/>
<path d="M1788.42,1450.36,1698.40,1554.74"/>
<path d="M872.14,27.93,1077.44,98.82"/>
<path d="M888.97,1925.52,845.71,1957.21"/>
<path d="M888.97,1925.52,915.85,1924.92"/>
<path d="M888.97,1925.52,899.58,1899.71"/>
<path d="M434.33,1593.44,510.09,1645.01"/>
<path d="M434.33,1593.44,424.92,1768.66"/>
<path d="M992.73,922.87,1020.63,1045.69"/>
<path d="M199.03,2092.15,20.76,2075.86"/>
<path d="M265.21,1443.06,222.26,1526.23"/>
<path d="M1781.77,154.70,1830.06,236.03"/>
<path d="M1781.77,154.70,1709.46,114.76"/>
<path d="M1020.63,1045.69,893.76,1045.61"/>
<path d="M1945.87,1725.76,1988.83,1690.83"/>
<path d="M1615.09,701.42,1674.20,662.18"/>
<path d="M1615.09,701.42,1641.00,851.62"/>
<path d="M1335.87,722.52,1167.34,696.46"/>
<path d="M1500.31,2141.60,1570.05,2071.78"/>
<path d="M1500.31,2141.60,1473.47,2078.18"/>
<path d="M995.64,2142.30,899.63,2095.87"/>
<path d="M1470.39,1307.64,1451.59,1243.77"/>
<path d="M1835.53,1463.67,1919.69,1532.72"/>
<path d="M1674.20,662.18,1725.50,854.59"/>
<path d="M1529.50,360.08,1462.97,410.59"/>
<path d="M372.12,1781.21,424.92,1768.66"/>
<path d="M1077.44,98.82,1123.86,153.07"/>
<path d="M802.97,260.14,724.28,371.58"/>
<path d="M1275.17,288.10,1255.89,166.18"/>
<path d="M1275.17,288.10,1184.93,230.72"/>
<path d="M53.74,2215.95,20.76,2075.86"/>
<path d="M445.63,1996.47,411.04,1942.09"/>
<path d="M616.65,1746.14,510.09,1645.01"/>
<path d="M616.65,1746.14,667.69,1576.93"/>
<path d="M616.65,1746.14,650.89,1827.17"/>
<path d="M616.65,1746.14,542.04,1814.90"/>
<path d="M1117.73,1426.34,1208.20,1400.44"/>
<path d="M1933.44,775.90,1849.49,761.82"/>
<path d="M1933.44,775.90,1933.08,684.70"/>
<path d="M1933.44,775.90,2045.27,737.25"/>
<path d="M510.09,1645.01,424.92,1768.66"/>
<path d="M510.09,1645.01,542.04,1814.90"/>
<path d="M137.27,1597.88,177.92,1515.82"/>
<path d="M137.27,1597.88,253.67,1567.55"/>
<path d="M137.27,1597.88,131.00,1632.16"/>
<path d="M2016.22,994.16,2081.62,972.03"/>
<path d="M888.13,338.47,724.28,371.58"/>
<path d="M888.13,338.47,956.65,277.72"/>
<path d="M1570.05,2071.78,1473.47,2078.18"/>
<path d="M492.49,1335.64,472.02,1378.09"/>
<path d="M845.71,1957.21,814.63,1940.22"/>
<path d="M2031.87,1660.74,1988.83,1690.83"/>
<path d="M406.85,62.02,462.13,14.93"/>
<path d="M406.85,62.02,280.88,129.02"/>
<path d="M406.85,62.02,482.23,139.92"/>
<path d="M792.11,1293.04,734.10,1279.94"/>
<path d="M177.92,1515.82,222.26,1526.23"/>
<path d="M177.92,1515.82,113.59,1392.52"/>
<path d="M909.87,882.14,809.61,780.08"/>
<path d="M809.92,1462.79,911.57,1400.55"/>
<path d="M667.69,1576.93,628.65,1494.81"/>
<path d="M2124.09,933.76,2093.22,911.78"/>
<path d="M2124.09,933.76,2081.62,972.03"/>
<path d="M253.67,1567.55,222.26,1526.23"/>
<path d="M253.67,1567.55,157.17,1657.95"/>
<path d="M724.28,371.58,641.53,165.73"/>
<path d="M650.89,1827.17,542.04,1814.90"/>
<path d="M641.53,165.73,736.01,131.06"/>
<path d="M131.00,1632.16,54.97,1596.76"/>
<path d="M131.00,1632.16,157.17,1657.95"/>
<path d="M644.93,713.88,524.53,744.39"/>
<path d="M346.89,677.74,428.79,675.38"/>
<path d="M332.16,2234.14,404.74,2108.81"/>
<path d="M1040.62,1596.02,1259.88,1589.57"/>
<path d="M1725.50,854.59,1706.25,922.71"/>
<path d="M1725.50,854.59,1641.00,851.62"/>
<path d="M411.04,1942.09,496.90,1883.43"/>
<path d="M2093.22,911.78,2081.62,972.03"/>
<path d="M476.06,707.61,428.79,675.38"/>
<path d="M476.06,707.61,524.53,744.39"/>
<path d="M462.13,14.93,482.23,139.92"/>
<path d="M1943.41,1513.29,1919.69,1532.72"/>
<path d="M1183.29,1278.21,1208.20,1400.44"/>
<path d="M41.01,10.03,146.05,7.24"/>
<path d="M749.36,792.27,809.61,780.08"/>
<path d="M1419.04,837.88,1454.56,996.07"/>
<path d="M915.85,1924.92,899.58,1899.71"/>
<path d="M1849.49,761.82,1808.14,668.65"/>
<path d="M1849.49,761.82,1933.08,684.70"/>
<path d="M1231.70,2207.56,1077.49,2142.07"/>
<path d="M1231.70,2207.56,1254.64,2114.17"/>
<path d="M1808.14,668.65,1933.08,684.70"/>
<path d="M1808.14,668.65,1779.03,573.72"/>
<path d="M1933.08,684.70,2045.27,737.25"/>
<path d="M258.10,289.89,265.02,234.80"/>
<path d="M1706.25,922.71,1641.00,851.62"/>
<path d="M2037.79,367.92,2017.17,502.73"/>
<path d="M2037.79,367.92,1891.54,475.44"/>
<path d="M715.52,1323.04,643.62,1417.35"/>
<path d="M715.52,1323.04,734.10,1279.94"/>
<path d="M1259.88,1589.57,1298.13,1559.28"/>
<path d="M398.67,955.41,347.72,918.71"/>
<path d="M628.65,1494.81,643.62,1417.35"/>
<path d="M1400.38,1087.16,1454.56,996.07"/>
<path d="M2188.78,404.88,2017.17,502.73"/>
<path d="M2188.78,404.88,2211.46,599.35"/>
<path d="M2198.70,2049.26,2209.90,1750.51"/>
<path d="M2198.70,2049.26,2228.44,2148.90"/>
<path d="M496.90,1883.43,436.63,1791.57"/>
<path d="M496.90,1883.43,542.04,1814.90"/>
<path d="M424.92,1768.66,436.63,1791.57"/>
<path d="M436.63,1791.57,542.04,1814.90"/>
<path d="M1077.49,2142.07,1254.64,2114.17"/>
<path d="M280.88,129.02,137.29,160.67"/>
<path d="M1208.20,1400.44,1344.17,1488.71"/>
<path d="M265.02,234.80,137.29,160.67"/>
<path d="M801.58,1009.85,893.76,1045.61"/>
<path d="M801.58,1009.85,734.10,1279.94"/>
<path d="M2156.24,714.02,2211.46,599.35"/>
<path d="M14.51,1089.90,46.77,855.38"/>
<path d="M14.51,1089.90,50.79,1142.33"/>
<circle cx="1722.45" cy="617.41" r="10"/>
<text x="1722.45" y="622.41">R0</text>
<circle cx="1585.30" cy="964.93" r="10"/>
<text x="1585.30" y="969.93">R1</text>
<circle cx="637.65" cy="2193.52" r="10"/>
<text x="637.65" y="2198.52">R2</text>
<circle cx="207.98" cy="1873.49" r="10"/>
<text x="207.98" y="1878.49">R3</text>
<circle cx="1308.23" cy="2120.09" r="10"/>
<text x="1308.23" y="2125.09">R4</text>
<circle cx="995.11" cy="2210.87" r="10"/>
<text x="995.11" y="2215.87">R5</text>
<circle cx="588.83" cy="954.44" r="10"/>
<text x="588.83" y="959.44">R6</text>
<circle cx="545.76" cy="2100.35" r="10"/>
<text x="545.76" y="2105.35">R7</text>
<circle cx="1473.07" cy="1425.48" r="10"/>
<text x="1473.07" y="1430.48">R8</text>
<circle cx="1153.61" cy="941.66" r="10"/>
<text x="1153.61" y="946.66">R9</text>
<circle cx="1589.07" cy="2166.92" r="10"/>
<text x="1589.07" y="2171.92">R10</text>
<circle cx="308.64" cy="735.34" r="10"/>
<text x="308.64" y="740.34">R11</text>
<circle cx="2053.04" cy="2144.09" r="10"/>
<text x="2053.04" y="2149.09">R12</text>
<circle cx="736.37" cy="1346.70" r="10"/>
<text x="736.37" y="1351.70">R13</text>
<circle cx="1417.31" cy="2055.82" r="10"/>
<text x="1417.31" y="2060.82">R14</text>
<circle cx="1725.41" cy="1839.45" r="10"/>
<text x="1725.41" y="1844.45">R15</text>
<circle cx="1631.98" cy="99.85" r="10"/>
<text x="1631.98" y="104.85">R16</text>
<circle cx="1221.58" cy="157.49" r="10"/>
<text x="1221.58" y="162.49">R17</text>
<circle cx="62.24" cy="1417.48" r="10"/>
<text x="62.24" y="1422.48">R18</text>
<circle cx="797.52" cy="898.02" r="10"/>
<text x="797.52" y="903.02">R19</text>
<circle cx="1800.59" cy="1353.76" r="10"/>
<text x="1800.59" y="1358.76">R20</text>
<circle cx="661.54" cy="753.72" r="10"/>
<text x="661.54" y="758.72">R21</text>
<circle cx="2052.81" cy="1044.54" r="10"/>
<text x="2052.81" y="1049.54">R22</text>
<circle cx="1645.54" cy="2219.60" r="10"/>
<text x="1645.54" y="2224.60">R23</text>
<circle cx="1527.88" cy="870.51" r="10"/>
<text x="1527.88" y="875.51">R24</text>
<circle cx="1909.62" cy="1405.92" r="10"/>
<text x="1909.62" y="1410.92">R25</text>
<circle cx="2156.11" cy="1498.56" r="10"/>
<text x="2156.11" y="1503.56">R26</text>
<circle cx="1085.51" cy="945.16" r="10"/>
<text x="1085.51" y="950.16">R27</text>
<circle cx="1383.75" cy="100.00" r="10"/>
<text x="1383.75" y="105.00">R28</text>
<circle cx="1593.81" cy="546.55" r="10"/>
<text x="1593.81" y="551.55">R29</text>
<circle cx="1376.10" cy="2027.08" r="10"/>
<text x="1376.10" y="2032.08">R30</text>
<circle cx="1068.45" cy="828.47" r="10"/>
<text x="1068.45" y="833.47">R31</text>
<circle cx="1443.26" cy="1451.77" r="10"/>
<text x="1443.26" y="1456.77">R32</text>
<circle cx="373.89" cy="1333.83" r="10"/>
<text x="373.89" y="1338.83">R33</text>
<circle cx="1859.14" cy="339.53" r="10"/>
<text x="1859.14" y="344.53">R34</text>
<circle cx="1552.99" cy="1442.63" r="10"/>
<text x="1552.99" y="1447.63">R35</text>
<circle cx="1832.84" cy="137.71" r="10"/>
<text x="1832.84" y="142.71">R36</text>
<circle cx="1399.13" cy="303.25" r="10"/>
<text x="1399.13" y="308.25">R37</text>
<circle cx="1812.72" cy="932.92" r="10"/>
<text x="1812.72" y="937.92">R38</text>
<circle cx="2116.74" cy="2226.89" r="10"/>
<text x="2116.74" y="2231.89">R39</text>
<circle cx="371.69" cy="752.24" r="10"/>
<text x="371.69" y="757.24">R40</text>
<circle cx="126.40" cy="1727.56" r="10"/>
<text x="126.40" y="1732.56">R41</text>
<circle cx="2092.24" cy="1594.89" r="10"/>
<text x="2092.24" y="1599.89">R42</text>
<circle cx="423.56" cy="962.12" r="10"/>
<text x="423.56" y="967.12">R43</text>
<circle cx="1987.19" cy="1889.23" r="10"/>
<text x="1987.19" y="1894.23">R44</text>
<circle cx="685.74" cy="2024.24" r="10"/>
<text x="685.74" y="2029.24">R45</text>
<circle cx="367.91" cy="1377.02" r="10"/>
<text x="367.91" y="1382.02">R46</text>
<circle cx="171.36" cy="1081.97" r="10"/>
<text x="171.36" y="1086.97">R47</text>
<circle cx="1876.70" cy="1660.21" r="10"/>
<text x="1876.70" y="1665.21">R48</text>
<circle cx="864.68" cy="951.03" r="10"/>
<text x="864.68" y="956.03">R49</text>
<circle cx="800.93" cy="941.90" r="10"/>
<text x="800.93" y="946.90">R50</text>
<circle cx="952.30" cy="1702.70" r="10"/>
<text x="952.30" y="1707.70">R51</text>
<circle cx="1547.12" cy="24.76" r="10"/>
<text x="1547.12" y="29.76">R52</text>
<circle cx="1639.05" cy="1849.71" r="10"/>
<text x="1639.05" y="1854.71">R53</text>
<circle cx="778.40" cy="1906.89" r="10"/>
<text x="778.40" y="1911.89">R54</text>
<circle cx="1739.22" cy="2040.00" r="10"/>
<text x="1739.22" y="2045.00">R55</text>
<circle cx="1510.30" cy="339.73" r="10"/>
<text x="1510.30" y="344.73">R56</text>
<circle cx="1951.82" cy="2203.13" r="10"/>
<text x="1951.82" y="2208.13">R57</text>
<circle cx="274.76" cy="1648.09" r="10"/>
<text x="274.76" y="1653.09">R58</text>
<circle cx="1252.05" cy="90.94" r="10"/>
<text x="1252.05" y="95.94">R59</text>
<circle cx="2034.12" cy="1190.09" r="10"/>
<text x="2034.12" y="1195.09">R60</text>
<circle cx="1368.84" cy="463.68" r="10"/>
<text x="1368.84" y="468.68">R61</text>
<circle cx="1730.72" cy="256.49" r="10"/>
<text x="1730.72" y="261.49">R62</text>
<circle cx="1053.88" cy="2124.97" r="10"/>
<text x="1053.88" y="2129.97">R63</text>
<circle cx="381.72" cy="1136.31" r="10"/>
<text x="381.72" y="1141.31">R64</text>
<circle cx="188.63" cy="1759.85" r="10"/>
<text x="188.63" y="1764.85">R65</text>
<circle cx="1971.23" cy="2185.49" r="10"/>
<text x="1971.23" y="2190.49">R66</text>
<circle cx="2024.06" cy="197.50" r="10"/>
<text x="2024.06" y="202.50">R67</text>
<circle cx="726.77" cy="891.97" r="10"/>
<text x="726.77" y="896.97">R68</text>
<circle cx="955.18" cy="584.11" r="10"/>
<text x="955.18" y="589.11">R69</text>
<circle cx="41.34" cy="1526.24" r="10"/>
<text x="41.34" y="1531.24">R70</text>
<circle cx="1793.78" cy="371.35" r="10"/>
<text x="1793.78" y="376.35">R71</text>
<circle cx="1698.42" cy="2149.94" r="10"/>
<text x="1698.42" y="2154.94">R72</text>
<circle cx="75.22" cy="545.93" r="10"/>
<text x="75.22" y="550.93">R73</text>
<circle cx="1948.58" cy="1298.02" r="10"/>
<text x="1948.58" y="1303.02">R74</text>
<circle cx="1240.70" cy="353.41" r="10"/>
<text x="1240.70" y="358.41">R75</text>
<circle cx="642.00" cy="1945.19" r="10"/>
<text x="642.00" y="1950.19">R76</text>
<circle cx="216.89" cy="2152.73" r="10"/>
<text x="216.89" y="2157.73">R77</text>
<circle cx="1550.12" cy="925.17" r="10"/>
<text x="1550.12" y="930.17">R78</text>
<circle cx="2000.06" cy="1972.84" r="10"/>
<text x="2000.06" y="1977.84">R79</text>
<circle cx="2.98" cy="1971.09" r="10"/>
<text x="2.98" y="1976.09">R80</text>
<circle cx="1604.66" cy="1998.48" r="10"/>
<text x="1604.66" y="2003.48">R81</text>
<circle cx="1624.97" cy="1156.93" r="10"/>
<text x="1624.97" y="1161.93">R82</text>
<circle cx="503.31" cy="483.55" r="10"/>
<text x="503.31" y="488.55">R83</text>
<circle cx="342.27" cy="1024.17" r="10"/>
<text x="342.27" y="1029.17">R84</text>
<circle cx="1832.78" cy="2074.33" r="10"/>
<text x="1832.78" y="2079.33">R85</text>
<circle cx="1730.86" cy="1372.23" r="10"/>
<text x="1730.86" y="1377.23">R86</text>
<circle cx="1612.67" cy="528.95" r="10"/>
<text x="1612.67" y="533.95">R87</text>
<circle cx="131.10" cy="417.95" r="10"/>
<text x="131.10" y="422.95">R88</text>
<circle cx="1747.53" cy="435.87" r="10"/>
<text x="1747.53" y="440.87">R89</text>
<circle cx="1159.00" cy="1951.64" r="10"/>
<text x="1159.00" y="1956.64">R90</text>
<circle cx="838.21" cy="1267.05" r="10"/>
<text x="838.21" y="1272.05">R91</text>
<circle cx="2093.15" cy="576.83" r="10"/>
<text x="2093.15" y="581.83">R92</text>
<circle cx="1580.11" cy="1902.58" r="10"/>
<text x="1580.11" y="1907.58">R93</text>
<circle cx="1896.03" cy="1850.39" r="10"/>
<text x="1896.03" y="1855.39">R94</text>
<circle cx="1776.51" cy="306.70" r="10"/>
<text x="1776.51" y="311.70">R95</text>
<circle cx="1407.02" cy="1163.13" r="10"/>
<text x="1407.02" y="1168.13">R96</text>
<circle cx="2104.41" cy="822.83" r="10"/>
<text x="2104.41" y="827.83">R97</text>
<circle cx="881.29" cy="1502.83" r="10"/>
<text x="881.29" y="1507.83">R98</text>
<circle cx="776.22" cy="151.33" r="10"/>
<text x="776.22" y="156.33">R99</text>
<circle cx="476.56" cy="1978.25" r="10"/>
<text x="476.56" y="1983.25">R100</text>
<circle cx="705.28" cy="2100.62" r="10"/>
<text x="705.28" y="2105.62">R101</text>
<circle cx="591.93" cy="2054.09" r="10"/>
<text x="591.93" y="2059.09">R102</text>
<circle cx="706.44" cy="1819.79" r="10"/>
<text x="706.44" y="1824.79">R103</text>
<circle cx="2201.72" cy="1516.52" r="10"/>
<text x="2201.72" y="1521.52">R104</text>
<circle cx="30.18" cy="656.02" r="10"/>
<text x="30.18" y="661.02">R105</text>
<circle cx="1839.61" cy="1294.31" r="10"/>
<text x="1839.61" y="1299.31">R106</text>
<circle cx="1038.81" cy="879.38" r="10"/>
<text x="1038.81" y="884.38">R107</text>
<circle cx="1080.09" cy="1869.48" r="10"/>
<text x="1080.09" y="1874.48">R108</text>
<circle cx="2065.81" cy="1505.28" r="10"/>
<text x="2065.81" y="1510.28">R109</text>
<circle cx="1103.99" cy="428.63" r="10"/>
<text x="1103.99" y="433.63">R110</text>
<circle cx="1871.11" cy="1259.55" r="10"/>
<text x="1871.11" y="1264.55">R111</text>
<circle cx="795.69" cy="2137.73" r="10"/>
<text x="795.69" y="2142.73">R112</text>
<circle cx="205.63" cy="1921.72" r="10"/>
<text x="205.63" y="1926.72">R113</text>
<circle cx="1430.83" cy="388.16" r="10"/>
<text x="1430.83" y="393.16">R114</text>
<circle cx="1435.71" cy="1345.08" r="10"/>
<text x="1435.71" y="1350.08">R115</text>
<circle cx="1921.99" cy="1903.02" r="10"/>
<text x="1921.99" y="1908.02">R116</text>
<circle cx="1916.36" cy="53.13" r="10"/>
<text x="1916.36" y="58.13">R117</text>
<circle cx="1024.08" cy="1361.21" r="10"/>
<text x="1024.08" y="1366.21">R118</text>
<circle cx="657.25" cy="2216.83" r="10"/>
<text x="657.25" y="2221.83">R119</text>
<circle cx="400.67" cy="1903.07" r="10"/>
<text x="400.67" y="1908.07">R120</text>
<circle cx="1334.57" cy="787.93" r="10"/>
<text x="1334.57" y="792.93">R121</text>
<circle cx="2167.60" cy="1221.59" r="10"/>
<text x="2167.60" y="1226.59">R122</text>
<circle cx="418.26" cy="2022.38" r="10"/>
<text x="418.26" y="2027.38">R123</text>
<circle cx="45.26" cy="1670.11" r="10"/>
<text x="45.26" y="1675.11">R124</text>
<circle cx="1735.61" cy="475.82" r="10"/>
<text x="1735.61" y="480.82">R125</text>
<circle cx="2228.85" cy="130.84" r="10"/>
<text x="2228.85" y="135.84">R126</text>
<circle cx="1422.16" cy="1712.89" r="10"/>
<text x="1422.16" y="1717.89">R127</text>
<circle cx="1412.54" cy="359.40" r="10"/>
<text x="1412.54" y="364.40">R128</text>
<circle cx="1115.25" cy="798.48" r="10"/>
<text x="1115.25" y="803.48">R129</text>
<circle cx="815.95" cy="1584.97" r="10"/>
<text x="815.95" y="1589.97">R130</text>
<circle cx="571.28" cy="22.68" r="10"/>
<text x="571.28" y="27.68">R131</text>
<circle cx="1597.94" cy="1688.62" r="10"/>
<text x="1597.94" y="1693.62">R132</text>
<circle cx="126.33" cy="75.77" r="10"/>
<text x="126.33" y="80.77">R133</text>
<circle cx="547.31" cy="1623.34" r="10"/>
<text x="547.31" y="1628.34">R134</text>
<circle cx="487.00" cy="189.94" r="10"/>
<text x="487.00" y="194.94">R135</text>
<circle cx="1569.61" cy="836.32" r="10"/>
<text x="1569.61" y="841.32">R136</text>
<circle cx="1219.29" cy="1892.63" r="10"/>
<text x="1219.29" y="1897.63">R137</text>
<circle cx="1790.00" cy="1863.26" r="10"/>
<text x="1790.00" y="1868.26">R138</text>
<circle cx="183.91" cy="383.16" r="10"/>
<text x="183.91" y="388.16">R139</text>
<circle cx="1244.98" cy="1037.90" r="10"/>
<text x="1244.98" y="1042.90">R140</text>
<circle cx="1241.90" cy="1165.79" r="10"/>
<text x="1241.90" y="1170.79">R141</text>
<circle cx="348.10" cy="376.89" r="10"/>
<text x="348.10" y="381.89">R142</text>
<circle cx="1014.80" cy="1444.43" r="10"/>
<text x="1014.80" y="1449.43">R143</text>
<circle cx="1894.15" cy="262.80" r="10"/>
<text x="1894.15" y="267.80">R144</text>
<circle cx="438.09" cy="1243.08" r="10"/>
<text x="438.09" y="1248.08">R145</text>
<circle cx="1551.91" cy="1397.60" r="10"/>
<text x="1551.91" y="1402.60">R146</text>
<circle cx="475.44" cy="946.18" r="10"/>
<text x="475.44" y="951.18">R147</text>
<circle cx="930.97" cy="667.92" r="10"/>
<text x="930.97" y="672.92">R148</text>
<circle cx="311.04" cy="169.70" r="10"/>
<text x="311.04" y="174.70">R149</text>
<circle cx="1991.48" cy="2055.25" r="10"/>
<text x="1991.48" y="2060.25">R150</text>
<circle cx="839.79" cy="254.37" r="10"/>
<text x="839.79" y="259.37">R151</text>
<circle cx="329.05" cy="565.00" r="10"/>
<text x="329.05" y="570.00">R152</text>
<circle cx="1299.54" cy="923.51" r="10"/>
<text x="1299.54" y="928.51">R153</text>
<circle cx="589.87" cy="456.74" r="10"/>
<text x="589.87" y="461.74">R154</text>
<circle cx="434.62" cy="1455.90" r="10"/>
<text x="434.62" y="1460.90">R155</text>
<circle cx="1851.80" cy="1023.35" r="10"/>
<text x="1851.80" y="1028.35">R156</text>
<circle cx="266.19" cy="1891.16" r="10"/>
<text x="266.19" y="1896.16">R157</text>
<circle cx="1525.50" cy="532.16" r="10"/>
<text x="1525.50" y="537.16">R158</text>
<circle cx="1104.29" cy="610.60" r="10"/>
<text x="1104.29" y="615.60">R159</text>
<circle cx="1686.02" cy="195.31" r="10"/>
<text x="1686.02" y="200.31">R160</text>
<circle cx="430.92" cy="1134.61" r="10"/>
<text x="430.92" y="1139.61">R161</text>
<circle cx="2162.78" cy="347.31" r="10"/>
<text x="2162.78" y="352.31">R162</text>
<circle cx="880.20" cy="1679.75" r="10"/>
<text x="880.20" y="1684.75">R163</text>
<circle cx="42.17" cy="311.13" r="10"/>
<text x="42.17" y="316.13">R164</text>
<circle cx="1711.66" cy="77.28" r="10"/>
<text x="1711.66" y="82.28">R165</text>
<circle cx="831.38" cy="1515.87" r="10"/>
<text x="831.38" y="1520.87">R166</text>
<circle cx="1932.84" cy="2012.04" r="10"/>
<text x="1932.84" y="2017.04">R167</text>
<circle cx="680.58" cy="1994.76" r="10"/>
<text x="680.58" y="1999.76">R168</text>
<circle cx="2061.37" cy="2092.07" r="10"/>
<text x="2061.37" y="2097.07">R169</text>
<circle cx="892.23" cy="158.40" r="10"/>
<text x="892.23" y="163.40">R170</text>
<circle cx="646.55" cy="469.44" r="10"/>
<text x="646.55" y="474.44">R171</text>
<circle cx="2093.78" cy="245.24" r="10"/>
<text x="2093.78" y="250.24">R172</text>
<circle cx="2048.22" cy="1467.36" r="10"/>
<text x="2048.22" y="1472.36">R173</text>
<circle cx="1805.68" cy="1696.93" r="10"/>
<text x="1805.68" y="1701.93">R174</text>
<circle cx="2090.89" cy="301.12" r="10"/>
<text x="2090.89" y="306.12">R175</text>
<circle cx="148.89" cy="530.47" r="10"/>
<text x="148.89" y="535.47">R176</text>
<circle cx="1748.17" cy="1886.46" r="10"/>
<text x="1748.17" y="1891.46">R177</text>
<circle cx="1447.02" cy="292.74" r="10"/>
<text x="1447.02" y="297.74">R178</text>
<circle cx="2192.07" cy="1261.77" r="10"/>
<text x="2192.07" y="1266.77">R179</text>
<circle cx="1808.85" cy="858.06" r="10"/>
<text x="1808.85" y="863.06">R180</text>
<circle cx="1924.73" cy="1849.72" r="10"/>
<text x="1924.73" y="1854.72">R181</text>
<circle cx="1650.51" cy="2016.03" r="10"/>
<text x="1650.51" y="2021.03">R182</text>
<circle cx="1555.44" cy="739.97" r="10"/>
<text x="1555.44" y="744.97">R183</text>
<circle cx="222.09" cy="586.42" r="10"/>
<text x="222.09" y="591.42">R184</text>
<circle cx="583.95" cy="358.74" r="10"/>
<text x="583.95" y="363.74">R185</text>
<circle cx="425.10" cy="331.49" r="10"/>
<text x="425.10" y="336.49">R186</text>
<circle cx="90.06" cy="1918.88" r="10"/>
<text x="90.06" y="1923.88">R187</text>
<circle cx="2201.77" cy="332.32" r="10"/>
<text x="2201.77" y="337.32">R188</text>
<circle cx="792.79" cy="2031.22" r="10"/>
<text x="792.79" y="2036.22">R189</text>
<circle cx="1745.51" cy="2192.41" r="10"/>
<text x="1745.51" y="2197.41">R190</text>
<circle cx="1491.78" cy="1610.42" r="10"/>
<text x="1491.78" y="1615.42">R191</text>
<circle cx="740.71" cy="2058.00" r="10"/>
<text x="740.71" y="2063.00">R192</text>
<circle cx="1066.02" cy="1176.30" r="10"/>
<text x="1066.02" y="1181.30">R193</text>
<circle cx="528.70" cy="1510.04" r="10"/>
<text x="528.70" y="1515.04">R194</text>
<circle cx="404.38" cy="454.03" r="10"/>
<text x="404.38" y="459.03">R195</text>
<circle cx="315.09" cy="668.29" r="10"/>
<text x="315.09" y="673.29">R196</text>
<circle cx="979.45" cy="1843.20" r="10"/>
<text x="979.45" y="1848.20">R197</text>
<circle cx="1393.83" cy="528.66" r="10"/>
<text x="1393.83" y="533.66">R198</text>
<circle cx="1575.67" cy="1865.93" r="10"/>
<text x="1575.67" y="1870.93">R199</text>
<circle cx="65.24" cy="1735.56" r="10"/>
<text x="65.24" y="1740.56">R200</text>
<circle cx="1393.15" cy="1533.63" r="10"/>
<text x="1393.15" y="1538.63">R201</text>
<circle cx="1802.85" cy="2123.71" r="10"/>
<text x="1802.85" y="2128.71">R202</text>
<circle cx="1710.88" cy="1351.88" r="10"/>
<text x="1710.88" y="1356.88">R203</text>
<circle cx="1160.32" cy="1059.96" r="10"/>
<text x="1160.32" y="1064.96">R204</text>
<circle cx="922.90" cy="964.46" r="10"/>
<text x="922.90" y="969.46">R205</text>
<circle cx="2010.56" cy="2105.67" r="10"/>
<text x="2010.56" y="2110.67">R206</text>
<circle cx="469.84" cy="259.85" r="10"/>
<text x="469.84" y="264.85">R207</text>
<circle cx="930.19" cy="1189.14" r="10"/>
<text x="930.19" y="1194.14">R208</text>
<circle cx="1861.77" cy="1099.68" r="10"/>
<text x="1861.77" y="1104.68">R209</text>
<circle cx="615.66" cy="1144.04" r="10"/>
<text x="615.66" y="1149.04">R210</text>
<circle cx="2156.70" cy="911.93" r="10"/>
<text x="2156.70" y="916.93">R211</text>
<circle cx="711.34" cy="552.74" r="10"/>
<text x="711.34" y="557.74">R212</text>
<circle cx="258.50" cy="2037.38" r="10"/>
<text x="258.50" y="2042.38">R213</text>
<circle cx="108.06" cy="1873.06" r="10"/>
<text x="108.06" y="1878.06">R214</text>
<circle cx="695.92" cy="683.03" r="10"/>
<text x="695.92" y="688.03">R215</text>
<circle cx="97.76" cy="1561.66" r="10"/>
<text x="97.76" y="1566.66">R216</text>
<circle cx="517.64" cy="1344.59" r="10"/>
<text x="517.64" y="1349.59">R217</text>
<circle cx="1869.71" cy="2139.59" r="10"/>
<text x="1869.71" y="2144.59">R218</text>
<circle cx="818.76" cy="1881.04" r="10"/>
<text x="818.76" y="1886.04">R219</text>
<circle cx="980.72" cy="566.15" r="10"/>
<text x="980.72" y="571.15">R220</text>
<circle cx="1855.35" cy="1958.65" r="10"/>
<text x="1855.35" y="1963.65">R221</text>
<circle cx="1371.35" cy="1596.92" r="10"/>
<text x="1371.35" y="1601.92">R222</text>
<circle cx="284.82" cy="555.02" r="10"/>
<text x="284.82" y="560.02">R223</text>
<circle cx="1161.35" cy="1007.57" r="10"/>
<text x="1161.35" y="1012.57">R224</text>
<circle cx="690.80" cy="1306.94" r="10"/>
<text x="690.80" y="1311.94">R225</text>
<circle cx="10.91" cy="2226.23" r="10"/>
<text x="10.91" y="2231.23">R226</text>
<circle cx="838.74" cy="581.15" r="10"/>
<text x="838.74" y="586.15">R227</text>
<circle cx="572.98" cy="2235.65" r="10"/>
<text x="572.98" y="2240.65">R228</text>
<circle cx="249.23" cy="686.64" r="10"/>
<text x="249.23" y="691.64">R229</text>
<circle cx="1079.30" cy="2218.98" r="10"/>
<text x="1079.30" y="2223.98">R230</text>
<circle cx="2061.99" cy="567.45" r="10"/>
<text x="2061.99" y="572.45">R231</text>
<circle cx="163.18" cy="900.38" r="10"/>
<text x="163.18" y="905.38">R232</text>
<circle cx="1694.35" cy="1445.23" r="10"/>
<text x="1694.35" y="1450.23">R233</text>
<circle cx="216.67" cy="1363.67" r="10"/>
<text x="216.67" y="1368.67">R234</text>
<circle cx="561.75" cy="2061.05" r="10"/>
<text x="561.75" y="2066.05">R235</text>
<circle cx="1456.47" cy="2053.41" r="10"/>
<text x="1456.47" y="2058.41">R236</text>
<circle cx="1299.32" cy="1041.60" r="10"/>
<text x="1299.32" y="1046.60">R237</text>
<circle cx="1503.43" cy="2196.81" r="10"/>
<text x="1503.43" y="2201.81">R238</text>
<circle cx="1361.04" cy="964.06" r="10"/>
<text x="1361.04" y="969.06">R239</text>
<circle cx="1047.82" cy="642.88" r="10"/>
<text x="1047.82" y="647.88">R240</text>
<circle cx="901.10" cy="402.65" r="10"/>
<text x="901.10" y="407.65">R241</text>
<circle cx="758.57" cy="509.47" r="10"/>
<text x="758.57" y="514.47">R242</text>
<circle cx="782.52" cy="177.19" r="10"/>
<text x="782.52" y="182.19">R243</text>
<circle cx="1525.38" cy="1846.90" r="10"/>
<text x="1525.38" y="1851.90">R244</text>
<circle cx="201.83" cy="1804.18" r="10"/>
<text x="201.83" y="1809.18">R245</text>
<circle cx="1819.22" cy="1136.10" r="10"/>
<text x="1819.22" y="1141.10">R246</text>
<circle cx="1565.58" cy="161.67" r="10"/>
<text x="1565.58" y="166.67">R247</text>
<circle cx="700.59" cy="2218.73" r="10"/>
<text x="700.59" y="2223.73">R248</text>
<circle cx="235.15" cy="1781.73" r="10"/>
<text x="235.15" y="1786.73">R249</text>
<circle cx="1991.25" cy="1012.64" r="10"/>
<text x="1991.25" y="1017.64">R250</text>
<circle cx="1463.86" cy="618.47" r="10"/>
<text x="1463.86" y="623.47">R251</text>
<circle cx="253.79" cy="541.69" r="10"/>
<text x="253.79" y="546.69">R252</text>
<circle cx="792.35" cy="10.33" r="10"/>
<text x="792.35" y="15.33">R253</text>
<circle cx="1697.26" cy="1730.87" r="10"/>
<text x="1697.26" y="1735.87">R254</text>
<circle cx="1177.99" cy="40.34" r="10"/>
<text x="1177.99" y="45.34">R255</text>
<circle cx="1885.72" cy="1168.88" r="10"/>
<text x="1885.72" y="1173.88">R256</text>
<circle cx="603.54" cy="895.50" r="10"/>
<text x="603.54" y="900.50">R257</text>
<circle cx="754.00" cy="1959.27" r="10"/>
<text x="754.00" y="1964.27">R258</text>
<circle cx="998.20" cy="520.59" r="10"/>
<text x="998.20" y="525.59">R259</text>
<circle cx="393.81" cy="2057.42" r="10"/>
<text x="393.81" y="2062.42">R260</text>
<circle cx="423.43" cy="1299.31" r="10"/>
<text x="423.43" y="1304.31">R261</text>
<circle cx="1150.78" cy="736.37" r="10"/>
<text x="1150.78" y="741.37">R262</text>
<circle cx="1781.67" cy="548.77" r="10"/>
<text x="1781.67" y="553.77">R263</text>
<circle cx="525.48" cy="2200.07" r="10"/>
<text x="525.48" y="2205.07">R264</text>
<circle cx="959.85" cy="700.09" r="10"/>
<text x="959.85" y="705.09">R265</text>
<circle cx="1715.89" cy="1578.20" r="10"/>
<text x="1715.89" y="1583.20">R266</text>
<circle cx="631.06" cy="368.54" r="10"/>
<text x="631.06" y="373.54">R267</text>
<circle cx="194.98" cy="1303.12" r="10"/>
<text x="194.98" y="1308.12">R268</text>
<circle cx="65.62" cy="397.95" r="10"/>
<text x="65.62" y="402.95">R269</text>
<circle cx="939.91" cy="945.90" r="10"/>
<text x="939.91" y="950.90">R270</text>
<circle cx="1034.77" cy="1079.01" r="10"/>
<text x="1034.77" y="1084.01">R271</text>
<circle cx="1165.23" cy="817.21" r="10"/>
<text x="1165.23" y="822.21">R272</text>
<circle cx="1451.05" cy="504.99" r="10"/>
<text x="1451.05" y="509.99">R273</text>
<circle cx="783.97" cy="1328.62" r="10"/>
<text x="783.97" y="1333.62">R274</text>
<circle cx="583.73" cy="875.54" r="10"/>
<text x="583.73" y="880.54">R275</text>
<circle cx="1020.77" cy="1829.90" r="10"/>
<text x="1020.77" y="1834.90">R276</text>
<circle cx="939.19" cy="885.35" r="10"/>
<text x="939.19" y="890.35">R277</text>
<circle cx="1431.54" cy="446.12" r="10"/>
<text x="1431.54" y="451.12">R278</text>
<circle cx="400.73" cy="995.91" r="10"/>
<text x="400.73" y="1000.91">R279</text>
<circle cx="267.36" cy="766.71" r="10"/>
<text x="267.36" y="771.71">R280</text>
<circle cx="1241.01" cy="848.58" r="10"/>
<text x="1241.01" y="853.58">R281</text>
<circle cx="654.38" cy="2114.90" r="10"/>
<text x="654.38" y="2119.90">R282</text>
<circle cx="1329.64" cy="1316.43" r="10"/>
<text x="1329.64" y="1321.43">R283</text>
<circle cx="1152.45" cy="1721.16" r="10"/>
<text x="1152.45" y="1726.16">R284</text>
<circle cx="1234.05" cy="915.70" r="10"/>
<text x="1234.05" y="920.70">R285</text>
<circle cx="509.49" cy="519.93" r="10"/>
<text x="509.49" y="524.93">R286</text>
<circle cx="1306.92" cy="1237.99" r="10"/>
<text x="1306.92" y="1242.99">R287</text>
<circle cx="288.99" cy="794.48" r="10"/>
<text x="288.99" y="799.48">R288</text>
<circle cx="2116.51" cy="259.92" r="10"/>
<text x="2116.51" y="264.92">R289</text>
<circle cx="2111.80" cy="697.90" r="10"/>
<text x="2111.80" y="702.90">R290</text>
<circle cx="174.85" cy="610.38" r="10"/>
<text x="174.85" y="615.38">R291</text>
<circle cx="1816.06" cy="2.17" r="10"/>
<text x="1816.06" y="7.17">R292</text>
<circle cx="2070.85" cy="1696.94" r="10"/>
<text x="2070.85" y="1701.94">R293</text>
<circle cx="1210.22" cy="30.97" r="10"/>
<text x="1210.22" y="35.97">R294</text>
<circle cx="2220.84" cy="845.63" r="10"/>
<text x="2220.84" y="850.63">R295</text>
<circle cx="1946.17" cy="842.19" r="10"/>
<text x="1946.17" y="847.19">R296</text>
<circle cx="938.00" cy="1880.41" r="10"/>
<text x="938.00" y="1885.41">R297</text>
<circle cx="601.09" cy="1356.86" r="10"/>
<text x="601.09" y="1361.86">R298</text>
<circle cx="1114.67" cy="190.08" r="10"/>
<text x="1114.67" y="195.08">R299</text>
<circle cx="1288.93" cy="1535.80" r="10"/>
<text x="1288.93" y="1540.80">R300</text>
<circle cx="1939.11" cy="1648.20" r="10"/>
<text x="1939.11" y="1653.20">R301</text>
<circle cx="841.20" cy="2042.90" r="10"/>
<text x="841.20" y="2047.90">R302</text>
<circle cx="23.63" cy="1805.40" r="10"/>
<text x="23.63" y="1810.40">R303</text>
<circle cx="2020.22" cy="1636.04" r="10"/>
<text x="2020.22" y="1641.04">R304</text>
<circle cx="283.62" cy="379.13" r="10"/>
<text x="283.62" y="384.13">R305</text>
<circle cx="527.66" cy="2011.55" r="10"/>
<text x="527.66" y="2016.55">R306</text>
<circle cx="363.65" cy="1425.39" r="10"/>
<text x="363.65" y="1430.39">R307</text>
<circle cx="1625.28" cy="1086.75" r="10"/>
<text x="1625.28" y="1091.75">R308</text>
<circle cx="1459.51" cy="100.82" r="10"/>
<text x="1459.51" y="105.82">R309</text>
<circle cx="1444.31" cy="1915.82" r="10"/>
<text x="1444.31" y="1920.82">R310</text>
<circle cx="386.90" cy="1571.70" r="10"/>
<text x="386.90" y="1576.70">R311</text>
<circle cx="1711.14" cy="1988.77" r="10"/>
<text x="1711.14" y="1993.77">R312</text>
<circle cx="1220.42" cy="376.57" r="10"/>
<text x="1220.42" y="381.57">R313</text>
<circle cx="759.20" cy="1436.16" r="10"/>
<text x="759.20" y="1441.16">R314</text>
<circle cx="1420.62" cy="205.94" r="10"/>
<text x="1420.62" y="210.94">R315</text>
<circle cx="981.35" cy="190.30" r="10"/>
<text x="981.35" y="195.30">R316</text>
<circle cx="1296.32" cy="1964.59" r="10"/>
<text x="1296.32" y="1969.59">R317</text>
<circle cx="2019.02" cy="541.81" r="10"/>
<text x="2019.02" y="546.81">R318</text>
<circle cx="2032.66" cy="1538.30" r="10"/>
<text x="2032.66" y="1543.30">R319</text>
<circle cx="1567.12" cy="532.31" r="10"/>
<text x="1567.12" y="537.31">R320</text>
<circle cx="244.60" cy="1360.32" r="10"/>
<text x="244.60" y="1365.32">R321</text>
<circle cx="534.46" cy="627.87" r="10"/>
<text x="534.46" y="632.87">R322</text>
<circle cx="123.34" cy="186.85" r="10"/>
<text x="123.34" y="191.85">R323</text>
<circle cx="363.66" cy="303.80" r="10"/>
<text x="363.66" y="308.80">R324</text>
<circle cx="1916.14" cy="514.53" r="10"/>
<text x="1916.14" y="519.53">R325</text>
<circle cx="852.73" cy="1742.23" r="10"/>
<text x="852.73" y="1747.23">R326</text>
<circle cx="498.86" cy="375.25" r="10"/>
<text x="498.86" y="380.25">R327</text>
<circle cx="1814.90" cy="812.25" r="10"/>
<text x="1814.90" y="817.25">R328</text>
<circle cx="1760.73" cy="2162.22" r="10"/>
<text x="1760.73" y="2167.22">R329</text>
<circle cx="1573.28" cy="1325.04" r="10"/>
<text x="1573.28" y="1330.04">R330</text>
<circle cx="1646.58" cy="213.08" r="10"/>
<text x="1646.58" y="218.08">R331</text>
<circle cx="1632.97" cy="1033.77" r="10"/>
<text x="1632.97" y="1038.77">R332</text>
<circle cx="922.80" cy="495.66" r="10"/>
<text x="922.80" y="500.66">R333</text>
<circle cx="2051.64" cy="1072.08" r="10"/>
<text x="2051.64" y="1077.08">R334</text>
<circle cx="1307.12" cy="468.55" r="10"/>
<text x="1307.12" y="473.55">R335</text>
<circle cx="1247.31" cy="439.23" r="10"/>
<text x="1247.31" y="444.23">R336</text>
<circle cx="514.24" cy="159.46" r="10"/>
<text x="514.24" y="164.46">R337</text>
<circle cx="1788.42" cy="1450.36" r="10"/>
<text x="1788.42" y="1455.36">R338</text>
<circle cx="118.91" cy="507.16" r="10"/>
<text x="118.91" y="512.16">R339</text>
<circle cx="872.14" cy="27.93" r="10"/>
<text x="872.14" y="32.93">R340</text>
<circle cx="888.97" cy="1925.52" r="10"/>
<text x="888.97" y="1930.52">R341</text>
<circle cx="434.33" cy="1593.44" r="10"/>
<text x="434.33" y="1598.44">R342</text>
<circle cx="992.73" cy="922.87" r="10"/>
<text x="992.73" y="927.87">R343</text>
<circle cx="573.39" cy="1011.23" r="10"/>
<text x="573.39" y="1016.23">R344</text>
<circle cx="199.03" cy="2092.15" r="10"/>
<text x="199.03" y="2097.15">R345</text>
<circle cx="265.21" cy="1443.06" r="10"/>
<text x="265.21" y="1448.06">R346</text>
<circle cx="709.56" cy="607.61" r="10"/>
<text x="709.56" y="612.61">R347</text>
<circle cx="2065.00" cy="265.72" r="10"/>
<text x="2065.00" y="270.72">R348</text>
<circle cx="1781.77" cy="154.70" r="10"/>
<text x="1781.77" y="159.70">R349</text>
<circle cx="617.74" cy="543.27" r="10"/>
<text x="617.74" y="548.27">R350</text>
<circle cx="1830.06" cy="236.03" r="10"/>
<text x="1830.06" y="241.03">R351</text>
<circle cx="1020.63" cy="1045.69" r="10"/>
<text x="1020.63" y="1050.69">R352</text>
<circle cx="1945.87" cy="1725.76" r="10"/>
<text x="1945.87" y="1730.76">R353</text>
<circle cx="1615.09" cy="701.42" r="10"/>
<text x="1615.09" y="706.42">R354</text>
<circle cx="1335.87" cy="722.52" r="10"/>
<text x="1335.87" y="727.52">R355</text>
<circle cx="1500.31" cy="2141.60" r="10"/>
<text x="1500.31" y="2146.60">R356</text>
<circle cx="995.64" cy="2142.30" r="10"/>
<text x="995.64" y="2147.30">R357</text>
<circle cx="1470.39" cy="1307.64" r="10"/>
<text x="1470.39" y="1312.64">R358</text>
<circle cx="1835.53" cy="1463.67" r="10"/>
<text x="1835.53" y="1468.67">R359</text>
<circle cx="1674.20" cy="662.18" r="10"/>
<text x="1674.20" y="667.18">R360</text>
<circle cx="1529.50" cy="360.08" r="10"/>
<text x="1529.50" y="365.08">R361</text>
<circle cx="372.12" cy="1781.21" r="10"/>
<text x="372.12" y="1786.21">R362</text>
<circle cx="1957.36" cy="1371.39" r="10"/>
<text x="1957.36" y="1376.39">R363</text>
<circle cx="1077.44" cy="98.82" r="10"/>
<text x="1077.44" y="103.82">R364</text>
<circle cx="802.97" cy="260.14" r="10"/>
<text x="802.97" y="265.14">R365</text>
<circle cx="1997.74" cy="2018.14" r="10"/>
<text x="1997.74" y="2023.14">R366</text>
<circle cx="1277.40" cy="949.30" r="10"/>
<text x="1277.40" y="954.30">R367</text>
<circle cx="1275.17" cy="288.10" r="10"/>
<text x="1275.17" y="293.10">R368</text>
<circle cx="53.74" cy="2215.95" r="10"/>
<text x="53.74" y="2220.95">R369</text>
<circle cx="1862.14" cy="49.42" r="10"/>
<text x="1862.14" y="54.42">R370</text>
<circle cx="445.63" cy="1996.47" r="10"/>
<text x="445.63" y="2001.47">R371</text>
<circle cx="616.65" cy="1746.14" r="10"/>
<text x="616.65" y="1751.14">R372</text>
<circle cx="1117.73" cy="1426.34" r="10"/>
<text x="1117.73" y="1431.34">R373</text>
<circle cx="1933.44" cy="775.90" r="10"/>
<text x="1933.44" y="780.90">R374</text>
<circle cx="510.09" cy="1645.01" r="10"/>
<text x="510.09" y="1650.01">R375</text>
<circle cx="1167.34" cy="696.46" r="10"/>
<text x="1167.34" y="701.46">R376</text>
<circle cx="137.27" cy="1597.88" r="10"/>
<text x="137.27" y="1602.88">R377</text>
<circle cx="2016.22" cy="994.16" r="10"/>
<text x="2016.22" y="999.16">R378</text>
<circle cx="888.13" cy="338.47" r="10"/>
<text x="888.13" y="343.47">R379</text>
<circle cx="1802.22" cy="2168.27" r="10"/>
<text x="1802.22" y="2173.27">R380</text>
<circle cx="1255.89" cy="166.18" r="10"/>
<text x="1255.89" y="171.18">R381</text>
<circle cx="1570.05" cy="2071.78" r="10"/>
<text x="1570.05" y="2076.78">R382</text>
<circle cx="492.49" cy="1335.64" r="10"/>
<text x="492.49" y="1340.64">R383</text>
<circle cx="1650.05" cy="1308.84" r="10"/>
<text x="1650.05" y="1313.84">R384</text>
<circle cx="845.71" cy="1957.21" r="10"/>
<text x="845.71" y="1962.21">R385</text>
<circle cx="20.76" cy="2075.86" r="10"/>
<text x="20.76" y="2080.86">R386</text>
<circle cx="1709.46" cy="114.76" r="10"/>
<text x="1709.46" y="119.76">R387</text>
<circle cx="2031.87" cy="1660.74" r="10"/>
<text x="2031.87" y="1665.74">R388</text>
<circle cx="406.85" cy="62.02" r="10"/>
<text x="406.85" y="67.02">R389</text>
<circle cx="792.11" cy="1293.04" r="10"/>
<text x="792.11" y="1298.04">R390</text>
<circle cx="177.92" cy="1515.82" r="10"/>
<text x="177.92" y="1520.82">R391</text>
<circle cx="1019.91" cy="1185.53" r="10"/>
<text x="1019.91" y="1190.53">R392</text>
<circle cx="909.87" cy="882.14" r="10"/>
<text x="909.87" y="887.14">R393</text>
<circle cx="809.92" cy="1462.79" r="10"/>
<text x="809.92" y="1467.79">R394</text>
<circle cx="667.69" cy="1576.93" r="10"/>
<text x="667.69" y="1581.93">R395</text>
<circle cx="2124.09" cy="933.76" r="10"/>
<text x="2124.09" y="938.76">R396</text>
<circle cx="253.67" cy="1567.55" r="10"/>
<text x="253.67" y="1572.55">R397</text>
<circle cx="724.28" cy="371.58" r="10"/>
<text x="724.28" y="376.58">R398</text>
<circle cx="427.21" cy="430.90" r="10"/>
<text x="427.21" y="435.90">R399</text>
<circle cx="1473.47" cy="2078.18" r="10"/>
<text x="1473.47" y="2083.18">R400</text>
<circle cx="650.89" cy="1827.17" r="10"/>
<text x="650.89" y="1832.17">R401</text>
<circle cx="641.53" cy="165.73" r="10"/>
<text x="641.53" y="170.73">R402</text>
<circle cx="131.00" cy="1632.16" r="10"/>
<text x="131.00" y="1637.16">R403</text>
<circle cx="644.93" cy="713.88" r="10"/>
<text x="644.93" y="718.88">R404</text>
<circle cx="736.01" cy="131.06" r="10"/>
<text x="736.01" y="136.06">R405</text>
<circle cx="616.54" cy="1220.20" r="10"/>
<text x="616.54" y="1225.20">R406</text>
<circle cx="222.26" cy="1526.23" r="10"/>
<text x="222.26" y="1531.23">R407</text>
<circle cx="346.89" cy="677.74" r="10"/>
<text x="346.89" y="682.74">R408</text>
<circle cx="332.16" cy="2234.14" r="10"/>
<text x="332.16" y="2239.14">R409</text>
<circle cx="1040.62" cy="1596.02" r="10"/>
<text x="1040.62" y="1601.02">R410</text>
<circle cx="1725.50" cy="854.59" r="10"/>
<text x="1725.50" y="859.59">R411</text>
<circle cx="411.04" cy="1942.09" r="10"/>
<text x="411.04" y="1947.09">R412</text>
<circle cx="2093.22" cy="911.78" r="10"/>
<text x="2093.22" y="916.78">R413</text>
<circle cx="59.65" cy="176.95" r="10"/>
<text x="59.65" y="181.95">R414</text>
<circle cx="476.06" cy="707.61" r="10"/>
<text x="476.06" y="712.61">R415</text>
<circle cx="879.01" cy="515.27" r="10"/>
<text x="879.01" y="520.27">R416</text>
<circle cx="462.13" cy="14.93" r="10"/>
<text x="462.13" y="19.93">R417</text>
<circle cx="1943.41" cy="1513.29" r="10"/>
<text x="1943.41" y="1518.29">R418</text>
<circle cx="1183.29" cy="1278.21" r="10"/>
<text x="1183.29" y="1283.21">R419</text>
<circle cx="1451.59" cy="1243.77" r="10"/>
<text x="1451.59" y="1248.77">R420</text>
<circle cx="41.01" cy="10.03" r="10"/>
<text x="41.01" y="15.03">R421</text>
<circle cx="956.12" cy="481.60" r="10"/>
<text x="956.12" y="486.60">R422</text>
<circle cx="749.36" cy="792.27" r="10"/>
<text x="749.36" y="797.27">R423</text>
<circle cx="2231.45" cy="1486.95" r="10"/>
<text x="2231.45" y="1491.95">R424</text>
<circle cx="1419.04" cy="837.88" r="10"/>
<text x="1419.04" y="842.88">R425</text>
<circle cx="915.85" cy="1924.92" r="10"/>
<text x="915.85" y="1929.92">R426</text>
<circle cx="1849.49" cy="761.82" r="10"/>
<text x="1849.49" y="766.82">R427</text>
<circle cx="146.05" cy="7.24" r="10"/>
<text x="146.05" y="12.24">R428</text>
<circle cx="911.57" cy="1400.55" r="10"/>
<text x="911.57" y="1405.55">R429</text>
<circle cx="1231.70" cy="2207.56" r="10"/>
<text x="1231.70" y="2212.56">R430</text>
<circle cx="1184.93" cy="230.72" r="10"/>
<text x="1184.93" y="235.72">R431</text>
<circle cx="1123.86" cy="153.07" r="10"/>
<text x="1123.86" y="158.07">R432</text>
<circle cx="54.97" cy="1596.76" r="10"/>
<text x="54.97" y="1601.76">R433</text>
<circle cx="1808.14" cy="668.65" r="10"/>
<text x="1808.14" y="673.65">R434</text>
<circle cx="1933.08" cy="684.70" r="10"/>
<text x="1933.08" y="689.70">R435</text>
<circle cx="258.10" cy="289.89" r="10"/>
<text x="258.10" y="294.89">R436</text>
<circle cx="1706.25" cy="922.71" r="10"/>
<text x="1706.25" y="927.71">R437</text>
<circle cx="2037.79" cy="367.92" r="10"/>
<text x="2037.79" y="372.92">R438</text>
<circle cx="404.74" cy="2108.81" r="10"/>
<text x="404.74" y="2113.81">R439</text>
<circle cx="113.59" cy="1392.52" r="10"/>
<text x="113.59" y="1397.52">R440</text>
<circle cx="715.52" cy="1323.04" r="10"/>
<text x="715.52" y="1328.04">R441</text>
<circle cx="1259.88" cy="1589.57" r="10"/>
<text x="1259.88" y="1594.57">R442</text>
<circle cx="1988.83" cy="1690.83" r="10"/>
<text x="1988.83" y="1695.83">R443</text>
<circle cx="398.67" cy="955.41" r="10"/>
<text x="398.67" y="960.41">R444</text>
<circle cx="628.65" cy="1494.81" r="10"/>
<text x="628.65" y="1499.81">R445</text>
<circle cx="1400.38" cy="1087.16" r="10"/>
<text x="1400.38" y="1092.16">R446</text>
<circle cx="2045.27" cy="737.25" r="10"/>
<text x="2045.27" y="742.25">R447</text>
<circle cx="428.79" cy="675.38" r="10"/>
<text x="428.79" y="680.38">R448</text>
<circle cx="678.88" cy="1951.62" r="10"/>
<text x="678.88" y="1956.62">R449</text>
<circle cx="2188.78" cy="404.88" r="10"/>
<text x="2188.78" y="409.88">R450</text>
<circle cx="2198.70" cy="2049.26" r="10"/>
<text x="2198.70" y="2054.26">R451</text>
<circle cx="809.61" cy="780.08" r="10"/>
<text x="809.61" y="785.08">R452</text>
<circle cx="496.90" cy="1883.43" r="10"/>
<text x="496.90" y="1888.43">R453</text>
<circle cx="424.92" cy="1768.66" r="10"/>
<text x="424.92" y="1773.66">R454</text>
<circle cx="436.63" cy="1791.57" r="10"/>
<text x="436.63" y="1796.57">R455</text>
<circle cx="1077.49" cy="2142.07" r="10"/>
<text x="1077.49" y="2147.07">R456</text>
<circle cx="280.88" cy="129.02" r="10"/>
<text x="280.88" y="134.02">R457</text>
<circle cx="1208.20" cy="1400.44" r="10"/>
<text x="1208.20" y="1405.44">R458</text>
<circle cx="956.65" cy="277.72" r="10"/>
<text x="956.65" y="282.72">R459</text>
<circle cx="1641.00" cy="851.62" r="10"/>
<text x="1641.00" y="856.62">R460</text>
<circle cx="1298.13" cy="1559.28" r="10"/>
<text x="1298.13" y="1564.28">R461</text>
<circle cx="1344.17" cy="1488.71" r="10"/>
<text x="1344.17" y="1493.71">R462</text>
<circle cx="2017.17" cy="502.73" r="10"/>
<text x="2017.17" y="507.73">R463</text>
<circle cx="814.63" cy="1940.22" r="10"/>
<text x="814.63" y="1945.22">R464</text>
<circle cx="899.63" cy="2095.87" r="10"/>
<text x="899.63" y="2100.87">R465</text>
<circle cx="1462.97" cy="410.59" r="10"/>
<text x="1462.97" y="415.59">R466</text>
<circle cx="1906.45" cy="1212.95" r="10"/>
<text x="1906.45" y="1217.95">R467</text>
<circle cx="2209.90" cy="1750.51" r="10"/>
<text x="2209.90" y="1755.51">R468</text>
<circle cx="2081.62" cy="972.03" r="10"/>
<text x="2081.62" y="977.03">R469</text>
<circle cx="265.02" cy="234.80" r="10"/>
<text x="265.02" y="239.80">R470</text>
<circle cx="801.58" cy="1009.85" r="10"/>
<text x="801.58" y="1014.85">R471</text>
<circle cx="357.37" cy="1213.12" r="10"/>
<text x="357.37" y="1218.12">R472</text>
<circle cx="643.62" cy="1417.35" r="10"/>
<text x="643.62" y="1422.35">R473</text>
<circle cx="542.04" cy="1814.90" r="10"/>
<text x="542.04" y="1819.90">R474</text>
<circle cx="1454.56" cy="996.07" r="10"/>
<text x="1454.56" y="1001.07">R475</text>
<circle cx="2156.24" cy="714.02" r="10"/>
<text x="2156.24" y="719.02">R476</text>
<circle cx="1467.49" cy="1835.74" r="10"/>
<text x="1467.49" y="1840.74">R477</text>
<circle cx="137.29" cy="160.67" r="10"/>
<text x="137.29" y="165.67">R478</text>
<circle cx="157.17" cy="1657.95" r="10"/>
<text x="157.17" y="1662.95">R479</text>
<circle cx="14.51" cy="1089.90" r="10"/>
<text x="14.51" y="1094.90">R480</text>
<circle cx="1891.54" cy="475.44" r="10"/>
<text x="1891.54" y="480.44">R481</text>
<circle cx="1779.03" cy="573.72" r="10"/>
<text x="1779.03" y="578.72">R482</text>
<circle cx="46.77" cy="855.38" r="10"/>
<text x="46.77" y="860.38">R483</text>
<circle cx="482.23" cy="139.92" r="10"/>
<text x="482.23" y="144.92">R484</text>
<circle cx="1874.95" cy="951.03" r="10"/>
<text x="1874.95" y="956.03">R485</text>
<circle cx="899.58" cy="1899.71" r="10"/>
<text x="899.58" y="1904.71">R486</text>
<circle cx="893.76" cy="1045.61" r="10"/>
<text x="893.76" y="1050.61">R487</text>
<circle cx="472.02" cy="1378.09" r="10"/>
<text x="472.02" y="1383.09">R488</text>
<circle cx="347.72" cy="918.71" r="10"/>
<text x="347.72" y="923.71">R489</text>
<circle cx="524.53" cy="744.39" r="10"/>
<text x="524.53" y="749.39">R490</text>
<circle cx="1424.74" cy="516.46" r="10"/>
<text x="1424.74" y="521.46">R491</text>
<circle cx="2211.46" cy="599.35" r="10"/>
<text x="2211.46" y="604.35">R492</text>
<circle cx="1698.40" cy="1554.74" r="10"/>
<text x="1698.40" y="1559.74">R493</text>
<circle cx="2053.63" cy="2181.63" r="10"/>
<text x="2053.63" y="2186.63">R494</text>
<circle cx="2228.44" cy="2148.90" r="10"/>
<text x="2228.44" y="2153.90">R495</text>
<circle cx="50.79" cy="1142.33" r="10"/>
<text x="50.79" y="1147.33">R496</text>
<circle cx="1254.64" cy="2114.17" r="10"/>
<text x="1254.64" y="2119.17">R497</text>
<circle cx="1919.69" cy="1532.72" r="10"/>
<text x="1919.69" y="1537.72">R498</text>
<circle cx="734.10" cy="1279.94" r="10"/>
<text x="734.10" y="1284.94">R499</text>
</svg>
