<svg id="topo" width="2314.02" height="2322.50" viewBox="-33.94 -44.82 2314.02 2322.50" xmlns="http://www.w3.org/2000/svg">
<style>#topo path {fill: none; stroke: grey; stroke-width: 6;} #topo circle {fill: lightblue; stroke: none;} #topo text {fill: black; stroke: none; font-size: 16; font-family: sans-serif; text-anchor:middle;}</style>
<path d="M961.75,794.60,1092.29,706.19"/>
<path d="M961.75,794.60,887.97,784.97"/>
<path d="M961.75,794.60,1032.99,873.25"/>
<path d="M961.75,794.60,934.17,875.10"/>
<path d="M961.75,794.60,896.71,825.86"/>
<path d="M2018.84,1851.20,2049.37,1835.60"/>
<path d="M2018.84,1851.20,1974.27,1810.42"/>
<path d="M2018.84,1851.20,2015.06,1893.24"/>
<path d="M219.35,635.54,384.61,668.02"/>
<path d="M219.35,635.54,366.03,590.35"/>
<path d="M219.35,635.54,190.75,580.10"/>
<path d="M219.35,635.54,69.20,662.76"/>
<path d="M219.35,635.54,244.52,736.69"/>
<path d="M1060.47,1487.90,1062.92,1373.43"/>
<path d="M1060.47,1487.90,1159.27,1419.59"/>
<path d="M1060.47,1487.90,973.55,1527.62"/>
<path d="M1060.47,1487.90,1084.51,1577.49"/>
<path d="M275.97,2089.40,324.15,2189.79"/>
<path d="M275.97,2089.40,281.52,2001.26"/>
<path d="M275.97,2089.40,185.53,2232.67"/>
<path d="M275.97,2089.40,375.52,2055.57"/>
<path d="M275.97,2089.40,126.09,2125.61"/>
<path d="M956.15,2160.33,964.44,2062.11"/>
<path d="M956.15,2160.33,897.69,2194.46"/>
<path d="M956.15,2160.33,1104.84,2208.93"/>
<path d="M956.15,2160.33,1112.84,2118.70"/>
<path d="M956.15,2160.33,888.90,2127.89"/>
<path d="M307.64,1851.41,399.51,1937.33"/>
<path d="M307.64,1851.41,419.63,1698.47"/>
<path d="M307.64,1851.41,281.52,2001.26"/>
<path d="M307.64,1851.41,257.90,1826.20"/>
<path d="M58.23,445.98,61.17,420.60"/>
<path d="M58.23,445.98,73.63,526.92"/>
<path d="M1513.93,761.58,1569.63,609.73"/>
<path d="M1513.93,761.58,1603.32,766.35"/>
<path d="M1513.93,761.58,1455.34,770.59"/>
<path d="M399.51,1937.33,453.62,1992.72"/>
<path d="M399.51,1937.33,522.05,1740.41"/>
<path d="M399.51,1937.33,370.85,1994.97"/>
<path d="M480.60,1236.75,506.79,1293.32"/>
<path d="M480.60,1236.75,433.08,1235.07"/>
<path d="M480.60,1236.75,498.22,1205.96"/>
<path d="M888.79,1093.72,937.52,1015.68"/>
<path d="M888.79,1093.72,925.94,1153.87"/>
<path d="M888.79,1093.72,799.44,1092.57"/>
<path d="M238.92,1670.42,174.18,1610.31"/>
<path d="M238.92,1670.42,263.84,1656.51"/>
<path d="M238.92,1670.42,245.05,1696.43"/>
<path d="M715.31,1653.79,803.77,1727.81"/>
<path d="M715.31,1653.79,609.56,1771.21"/>
<path d="M715.31,1653.79,590.27,1576.97"/>
<path d="M715.31,1653.79,780.23,1598.56"/>
<path d="M1064.60,407.85,1088.26,385.00"/>
<path d="M1064.60,407.85,974.22,346.87"/>
<path d="M1064.60,407.85,1099.97,497.14"/>
<path d="M1465.55,500.38,1569.63,609.73"/>
<path d="M1465.55,500.38,1337.25,404.67"/>
<path d="M1465.55,500.38,1415.55,625.21"/>
<path d="M1465.55,500.38,1604.18,462.14"/>
<path d="M1465.55,500.38,1479.25,388.41"/>
<path d="M1465.55,500.38,1325.71,495.49"/>
<path d="M1508.40,1382.46,1535.30,1412.71"/>
<path d="M1508.40,1382.46,1554.40,1367.22"/>
<path d="M1508.40,1382.46,1455.29,1442.72"/>
<path d="M1508.40,1382.46,1470.18,1270.00"/>
<path d="M768.54,740.89,635.81,810.50"/>
<path d="M768.54,740.89,644.98,703.34"/>
<path d="M768.54,740.89,844.59,663.02"/>
<path d="M768.54,740.89,790.59,764.88"/>
<path d="M43.13,2133.19,11.06,2072.61"/>
<path d="M43.13,2133.19,126.09,2125.61"/>
<path d="M635.81,810.50,774.74,898.16"/>
<path d="M635.81,810.50,621.40,726.98"/>
<path d="M635.81,810.50,742.19,930.37"/>
<path d="M635.81,810.50,655.72,964.03"/>
<path d="M635.81,810.50,523.47,840.22"/>
<path d="M887.44,1395.91,920.40,1382.24"/>
<path d="M887.44,1395.91,919.91,1423.91"/>
<path d="M887.44,1395.91,756.08,1362.12"/>
<path d="M159.64,1055.13,91.87,957.36"/>
<path d="M159.64,1055.13,119.48,1083.59"/>
<path d="M159.64,1055.13,191.44,1164.28"/>
<path d="M159.64,1055.13,190.47,1051.94"/>
<path d="M578.12,279.28,538.33,233.97"/>
<path d="M578.12,279.28,634.74,224.89"/>
<path d="M578.12,279.28,609.05,330.49"/>
<path d="M578.12,279.28,517.27,268.93"/>
<path d="M803.77,1727.81,780.23,1598.56"/>
<path d="M803.77,1727.81,772.62,1839.35"/>
<path d="M803.77,1727.81,849.32,1806.75"/>
<path d="M803.77,1727.81,890.58,1666.42"/>
<path d="M1289.54,387.35,1206.46,379.72"/>
<path d="M1289.54,387.35,1337.25,404.67"/>
<path d="M1289.54,387.35,1319.53,264.95"/>
<path d="M1289.54,387.35,1224.96,306.60"/>
<path d="M2159.49,1737.07,2115.40,1776.09"/>
<path d="M2159.49,1737.07,2189.58,1626.49"/>
<path d="M2159.49,1737.07,2208.96,1874.11"/>
<path d="M2175.93,1499.11,2187.66,1581.88"/>
<path d="M2175.93,1499.11,2188.11,1449.46"/>
<path d="M419.40,1412.14,344.79,1453.43"/>
<path d="M419.40,1412.14,527.92,1528.66"/>
<path d="M419.40,1412.14,359.04,1324.67"/>
<path d="M419.40,1412.14,528.59,1327.36"/>
<path d="M609.56,1771.21,590.27,1576.97"/>
<path d="M609.56,1771.21,601.31,1948.62"/>
<path d="M609.56,1771.21,522.05,1740.41"/>
<path d="M609.56,1771.21,718.05,1852.93"/>
<path d="M1862.42,237.08,1789.54,191.72"/>
<path d="M1862.42,237.08,1939.47,230.23"/>
<path d="M1862.42,237.08,1890.78,409.86"/>
<path d="M105.85,1819.12,70.56,1760.29"/>
<path d="M105.85,1819.12,105.26,1868.33"/>
<path d="M105.85,1819.12,257.90,1826.20"/>
<path d="M105.85,1819.12,245.05,1696.43"/>
<path d="M1274.66,133.02,1288.93,158.97"/>
<path d="M1274.66,133.02,1197.75,136.23"/>
<path d="M1274.66,133.02,1335.78,127.27"/>
<path d="M1274.66,133.02,1264.02,89.51"/>
<path d="M1192.66,1393.80,1159.27,1419.59"/>
<path d="M1192.66,1393.80,1239.60,1370.27"/>
<path d="M1192.66,1393.80,1198.99,1464.41"/>
<path d="M1192.66,1393.80,1110.48,1335.82"/>
<path d="M1206.46,379.72,1088.26,385.00"/>
<path d="M1206.46,379.72,1224.96,306.60"/>
<path d="M1206.46,379.72,1179.48,484.71"/>
<path d="M1145.06,2035.19,1250.55,1996.04"/>
<path d="M1145.06,2035.19,1112.84,2118.70"/>
<path d="M1145.06,2035.19,1155.79,2113.51"/>
<path d="M1145.06,2035.19,1197.49,1937.58"/>
<path d="M1145.06,2035.19,1011.12,1979.21"/>
<path d="M246.29,206.27,195.57,192.59"/>
<path d="M246.29,206.27,371.12,232.05"/>
<path d="M246.29,206.27,245.60,116.64"/>
<path d="M246.29,206.27,242.84,264.64"/>
<path d="M870.31,2105.33,896.44,2064.17"/>
<path d="M870.31,2105.33,839.51,2137.08"/>
<path d="M870.31,2105.33,818.73,2065.62"/>
<path d="M870.31,2105.33,888.90,2127.89"/>
<path d="M886.38,519.72,919.70,409.78"/>
<path d="M886.38,519.72,830.17,406.92"/>
<path d="M886.38,519.72,1057.31,588.91"/>
<path d="M886.38,519.72,779.95,579.44"/>
<path d="M886.38,519.72,873.24,606.87"/>
<path d="M886.38,519.72,763.22,527.29"/>
<path d="M1062.92,1373.43,1159.27,1419.59"/>
<path d="M1062.92,1373.43,920.40,1382.24"/>
<path d="M1062.92,1373.43,997.40,1301.66"/>
<path d="M1062.92,1373.43,1110.48,1335.82"/>
<path d="M1433.03,201.80,1451.80,305.50"/>
<path d="M1433.03,201.80,1383.52,202.34"/>
<path d="M1433.03,201.80,1402.62,166.64"/>
<path d="M1433.03,201.80,1480.20,113.39"/>
<path d="M1433.03,201.80,1535.14,235.94"/>
<path d="M1462.98,1179.83,1372.92,1255.59"/>
<path d="M1462.98,1179.83,1410.40,1117.64"/>
<path d="M1462.98,1179.83,1518.37,1043.17"/>
<path d="M1462.98,1179.83,1534.29,1208.90"/>
<path d="M1462.98,1179.83,1470.18,1270.00"/>
<path d="M1462.98,1179.83,1556.31,1149.94"/>
<path d="M1321.02,1574.46,1296.94,1565.77"/>
<path d="M1321.02,1574.46,1356.74,1627.81"/>
<path d="M1714.34,2007.46,1501.53,1934.55"/>
<path d="M1714.34,2007.46,1853.69,1958.98"/>
<path d="M1714.34,2007.46,1670.69,1872.62"/>
<path d="M1714.34,2007.46,1790.07,2075.00"/>
<path d="M1714.34,2007.46,1711.65,2085.03"/>
<path d="M1059.73,964.48,1036.83,988.79"/>
<path d="M1059.73,964.48,1133.09,988.18"/>
<path d="M1059.73,964.48,1056.98,898.72"/>
<path d="M1535.30,1412.71,1554.40,1367.22"/>
<path d="M1535.30,1412.71,1455.29,1442.72"/>
<path d="M1535.30,1412.71,1564.98,1498.96"/>
<path d="M1535.30,1412.71,1630.50,1411.33"/>
<path d="M1233.65,1678.22,1296.94,1565.77"/>
<path d="M1233.65,1678.22,1356.74,1627.81"/>
<path d="M1233.65,1678.22,1184.64,1659.20"/>
<path d="M1233.65,1678.22,1217.09,1736.87"/>
<path d="M2101.19,508.37,2077.01,441.27"/>
<path d="M2101.19,508.37,2123.44,582.31"/>
<path d="M2101.19,508.37,2021.22,576.15"/>
<path d="M2101.19,508.37,2231.76,485.84"/>
<path d="M1550.44,1844.45,1517.22,1889.94"/>
<path d="M1550.44,1844.45,1553.16,1809.61"/>
<path d="M1550.44,1844.45,1670.69,1872.62"/>
<path d="M1550.44,1844.45,1443.30,1801.08"/>
<path d="M1043.38,184.55,1060.00,206.54"/>
<path d="M1043.38,184.55,958.25,44.84"/>
<path d="M1043.38,184.55,971.93,213.78"/>
<path d="M1043.38,184.55,1131.20,128.08"/>
<path d="M1005.32,1946.00,1122.40,1832.14"/>
<path d="M1005.32,1946.00,925.29,1927.99"/>
<path d="M1005.32,1946.00,1197.49,1937.58"/>
<path d="M1005.32,1946.00,1011.12,1979.21"/>
<path d="M1434.98,1732.01,1418.13,1656.46"/>
<path d="M1434.98,1732.01,1496.59,1696.71"/>
<path d="M1434.98,1732.01,1331.58,1800.66"/>
<path d="M1434.98,1732.01,1443.30,1801.08"/>
<path d="M384.61,668.02,366.03,590.35"/>
<path d="M384.61,668.02,376.79,768.96"/>
<path d="M384.61,668.02,287.42,754.30"/>
<path d="M384.61,668.02,430.64,695.15"/>
<path d="M153.18,870.08,91.87,957.36"/>
<path d="M153.18,870.08,332.93,879.63"/>
<path d="M153.18,870.08,170.42,787.11"/>
<path d="M153.18,870.08,62.30,840.98"/>
<path d="M1982.12,1324.93,2025.96,1295.04"/>
<path d="M1982.12,1324.93,1898.72,1234.43"/>
<path d="M1982.12,1324.93,1878.47,1410.86"/>
<path d="M1982.12,1324.93,2073.95,1369.76"/>
<path d="M1982.12,1324.93,1939.41,1200.74"/>
<path d="M2115.40,1776.09,2176.42,1887.93"/>
<path d="M2115.40,1776.09,2049.37,1835.60"/>
<path d="M2115.40,1776.09,2059.20,1713.41"/>
<path d="M2115.40,1776.09,2005.10,1768.23"/>
<path d="M1029.96,1184.59,1103.30,1303.49"/>
<path d="M1029.96,1184.59,970.17,1248.95"/>
<path d="M1029.96,1184.59,1036.83,988.79"/>
<path d="M1029.96,1184.59,1209.59,1114.16"/>
<path d="M1029.96,1184.59,1129.58,1035.61"/>
<path d="M1029.96,1184.59,925.94,1153.87"/>
<path d="M356.63,805.99,376.79,768.96"/>
<path d="M356.63,805.99,330.87,803.10"/>
<path d="M356.63,805.99,332.93,879.63"/>
<path d="M356.63,805.99,445.26,884.22"/>
<path d="M1954.76,1106.41,2054.44,1097.93"/>
<path d="M1954.76,1106.41,2031.07,977.59"/>
<path d="M1954.76,1106.41,1871.60,905.76"/>
<path d="M1954.76,1106.41,1884.78,1156.41"/>
<path d="M1954.76,1106.41,1939.41,1200.74"/>
<path d="M2150.74,320.83,2077.01,441.27"/>
<path d="M2150.74,320.83,2159.61,230.77"/>
<path d="M2150.74,320.83,2231.76,485.84"/>
<path d="M1372.92,1255.59,1248.65,1193.32"/>
<path d="M1372.92,1255.59,1239.60,1370.27"/>
<path d="M1372.92,1255.59,1410.40,1117.64"/>
<path d="M1372.92,1255.59,1386.76,1462.14"/>
<path d="M1372.92,1255.59,1470.18,1270.00"/>
<path d="M1372.92,1255.59,1314.93,1443.49"/>
<path d="M1372.92,1255.59,1369.24,1113.22"/>
<path d="M538.33,233.97,634.74,224.89"/>
<path d="M538.33,233.97,574.52,128.12"/>
<path d="M538.33,233.97,515.83,139.68"/>
<path d="M538.33,233.97,472.94,225.22"/>
<path d="M538.33,233.97,517.27,268.93"/>
<path d="M1235.84,701.44,1126.05,821.69"/>
<path d="M1235.84,701.44,1321.50,843.10"/>
<path d="M1235.84,701.44,1212.79,658.20"/>
<path d="M1235.84,701.44,1373.29,703.35"/>
<path d="M1288.93,158.97,1383.52,202.34"/>
<path d="M1288.93,158.97,1335.78,127.27"/>
<path d="M1288.93,158.97,1293.13,229.65"/>
<path d="M70.56,1760.29,56.39,1719.34"/>
<path d="M70.56,1760.29,245.05,1696.43"/>
<path d="M61.17,420.60,93.13,404.03"/>
<path d="M948.47,383.45,919.70,409.78"/>
<path d="M948.47,383.45,974.22,346.87"/>
<path d="M590.27,1576.97,527.92,1528.66"/>
<path d="M590.27,1576.97,522.05,1740.41"/>
<path d="M590.27,1576.97,473.50,1618.86"/>
<path d="M590.27,1576.97,699.62,1447.83"/>
<path d="M21.96,805.73,69.20,662.76"/>
<path d="M21.96,805.73,62.30,840.98"/>
<path d="M324.15,2189.79,185.53,2232.67"/>
<path d="M324.15,2189.79,409.35,2087.54"/>
<path d="M1789.54,191.72,1665.24,325.68"/>
<path d="M1789.54,191.72,1843.27,102.90"/>
<path d="M1789.54,191.72,1750.81,155.53"/>
<path d="M1126.05,821.69,1092.29,706.19"/>
<path d="M1126.05,821.69,1321.50,843.10"/>
<path d="M1126.05,821.69,1032.99,873.25"/>
<path d="M1126.05,821.69,1056.98,898.72"/>
<path d="M896.44,2064.17,964.44,2062.11"/>
<path d="M896.44,2064.17,837.72,2009.73"/>
<path d="M896.44,2064.17,818.73,2065.62"/>
<path d="M896.44,2064.17,925.29,1927.99"/>
<path d="M301.84,1221.32,349.79,1243.72"/>
<path d="M301.84,1221.32,208.73,1287.62"/>
<path d="M301.84,1221.32,284.63,1188.41"/>
<path d="M117.61,1231.34,116.84,1353.61"/>
<path d="M117.61,1231.34,168.13,1222.45"/>
<path d="M117.61,1231.34,53.95,1270.02"/>
<path d="M621.83,2165.89,590.25,2186.16"/>
<path d="M621.83,2165.89,681.10,2155.75"/>
<path d="M621.83,2165.89,630.70,2203.13"/>
<path d="M621.83,2165.89,580.19,2162.61"/>
<path d="M2119.51,1967.90,2000.50,1984.04"/>
<path d="M2119.51,1967.90,2183.25,2178.94"/>
<path d="M2119.51,1967.90,2176.42,1887.93"/>
<path d="M2119.51,1967.90,2015.06,1893.24"/>
<path d="M2202.68,137.33,2166.26,202.64"/>
<path d="M2202.68,137.33,2235.08,123.21"/>
<path d="M2202.68,137.33,2180.43,11.58"/>
<path d="M1159.27,1419.59,1198.99,1464.41"/>
<path d="M1159.27,1419.59,1110.48,1335.82"/>
<path d="M116.84,1353.61,188.83,1497.66"/>
<path d="M116.84,1353.61,239.43,1331.62"/>
<path d="M116.84,1353.61,208.73,1287.62"/>
<path d="M116.84,1353.61,187.48,1265.62"/>
<path d="M116.84,1353.61,53.95,1270.02"/>
<path d="M116.84,1353.61,13.33,1343.58"/>
<path d="M1569.63,609.73,1415.55,625.21"/>
<path d="M1569.63,609.73,1604.18,462.14"/>
<path d="M1569.63,609.73,1631.22,681.53"/>
<path d="M1569.63,609.73,1708.78,607.74"/>
<path d="M716.95,1196.95,778.79,1124.30"/>
<path d="M716.95,1196.95,671.18,1266.41"/>
<path d="M716.95,1196.95,600.87,1211.27"/>
<path d="M716.95,1196.95,684.77,1057.98"/>
<path d="M1247.66,267.32,1197.75,136.23"/>
<path d="M1247.66,267.32,1319.53,264.95"/>
<path d="M1247.66,267.32,1224.96,306.60"/>
<path d="M1247.66,267.32,1293.13,229.65"/>
<path d="M1247.66,267.32,1140.68,179.51"/>
<path d="M1320.28,949.72,1133.09,988.18"/>
<path d="M1320.28,949.72,1321.50,843.10"/>
<path d="M1320.28,949.72,1358.20,1001.40"/>
<path d="M1320.28,949.72,1359.17,853.49"/>
<path d="M1771.82,611.15,1737.28,650.57"/>
<path d="M1771.82,611.15,1793.72,446.55"/>
<path d="M1771.82,611.15,1708.78,607.74"/>
<path d="M1771.82,611.15,2021.22,576.15"/>
<path d="M419.63,1698.47,420.96,1654.91"/>
<path d="M419.63,1698.47,263.84,1656.51"/>
<path d="M419.63,1698.47,522.05,1740.41"/>
<path d="M919.70,409.78,830.17,406.92"/>
<path d="M919.70,409.78,857.99,359.01"/>
<path d="M1248.65,1193.32,1239.60,1370.27"/>
<path d="M1248.65,1193.32,1103.30,1303.49"/>
<path d="M1248.65,1193.32,1209.59,1114.16"/>
<path d="M1248.65,1193.32,1369.24,1113.22"/>
<path d="M1239.60,1370.27,1314.93,1443.49"/>
<path d="M1845.39,768.43,1719.43,719.62"/>
<path d="M1845.39,768.43,1861.38,860.30"/>
<path d="M1845.39,768.43,1929.39,760.94"/>
<path d="M1103.30,1303.49,997.40,1301.66"/>
<path d="M1103.30,1303.49,1110.48,1335.82"/>
<path d="M366.03,590.35,397.33,547.35"/>
<path d="M970.17,1248.95,997.40,1301.66"/>
<path d="M970.17,1248.95,882.06,1185.92"/>
<path d="M970.17,1248.95,925.94,1153.87"/>
<path d="M970.17,1248.95,952.10,1309.22"/>
<path d="M1036.83,988.79,995.94,975.18"/>
<path d="M1036.83,988.79,1129.58,1035.61"/>
<path d="M736.91,420.08,830.17,406.92"/>
<path d="M736.91,420.08,609.05,330.49"/>
<path d="M736.91,420.08,698.07,499.67"/>
<path d="M736.91,420.08,569.89,408.20"/>
<path d="M736.91,420.08,763.22,527.29"/>
<path d="M2034.45,129.41,2008.34,146.73"/>
<path d="M2034.45,129.41,2029.70,21.89"/>
<path d="M2034.45,129.41,2086.86,194.49"/>
<path d="M804.38,248.68,857.99,359.01"/>
<path d="M804.38,248.68,665.79,223.13"/>
<path d="M804.38,248.68,844.02,150.77"/>
<path d="M174.18,1610.31,72.41,1577.52"/>
<path d="M174.18,1610.31,56.39,1719.34"/>
<path d="M174.18,1610.31,168.41,1559.97"/>
<path d="M174.18,1610.31,247.89,1615.15"/>
<path d="M920.40,1382.24,919.91,1423.91"/>
<path d="M920.40,1382.24,952.10,1309.22"/>
<path d="M397.33,547.35,388.57,479.71"/>
<path d="M397.33,547.35,348.62,499.33"/>
<path d="M774.74,898.16,790.59,764.88"/>
<path d="M774.74,898.16,742.19,930.37"/>
<path d="M774.74,898.16,896.71,825.86"/>
<path d="M774.74,898.16,873.92,961.58"/>
<path d="M420.96,1654.91,263.84,1656.51"/>
<path d="M420.96,1654.91,415.80,1567.82"/>
<path d="M420.96,1654.91,473.50,1618.86"/>
<path d="M778.79,1124.30,684.77,1057.98"/>
<path d="M778.79,1124.30,882.06,1185.92"/>
<path d="M778.79,1124.30,799.44,1092.57"/>
<path d="M1928.66,1921.60,1853.69,1958.98"/>
<path d="M1928.66,1921.60,1974.27,1810.42"/>
<path d="M1928.66,1921.60,1975.68,1946.71"/>
<path d="M1928.66,1921.60,1870.80,1817.32"/>
<path d="M348.49,1287.14,239.43,1331.62"/>
<path d="M348.49,1287.14,349.79,1243.72"/>
<path d="M348.49,1287.14,359.04,1324.67"/>
<path d="M344.79,1453.43,372.58,1506.03"/>
<path d="M344.79,1453.43,295.40,1528.61"/>
<path d="M344.79,1453.43,359.04,1324.67"/>
<path d="M344.79,1453.43,303.07,1431.67"/>
<path d="M73.63,526.92,190.75,580.10"/>
<path d="M73.63,526.92,187.23,475.00"/>
<path d="M73.63,526.92,66.57,618.27"/>
<path d="M818.01,1834.53,772.62,1839.35"/>
<path d="M818.01,1834.53,837.72,2009.73"/>
<path d="M818.01,1834.53,849.32,1806.75"/>
<path d="M818.01,1834.53,925.29,1927.99"/>
<path d="M1368.81,4.83,1437.45,57.59"/>
<path d="M1368.81,4.83,1374.67,79.74"/>
<path d="M311.29,1070.45,329.79,1144.43"/>
<path d="M311.29,1070.45,332.93,879.63"/>
<path d="M311.29,1070.45,191.44,1164.28"/>
<path d="M311.29,1070.45,409.28,1048.24"/>
<path d="M311.29,1070.45,190.47,1051.94"/>
<path d="M1060.00,206.54,1088.26,385.00"/>
<path d="M1060.00,206.54,1140.68,179.51"/>
<path d="M997.40,1301.66,952.10,1309.22"/>
<path d="M281.52,2001.26,105.26,1868.33"/>
<path d="M281.52,2001.26,370.85,1994.97"/>
<path d="M281.52,2001.26,78.87,1991.29"/>
<path d="M958.25,44.84,1094.30,28.52"/>
<path d="M958.25,44.84,892.47,111.22"/>
<path d="M123.00,269.70,195.57,192.59"/>
<path d="M123.00,269.70,93.13,404.03"/>
<path d="M123.00,269.70,217.96,282.82"/>
<path d="M123.00,269.70,77.44,253.22"/>
<path d="M1435.32,2093.01,1480.58,2090.69"/>
<path d="M1435.32,2093.01,1383.01,2112.21"/>
<path d="M1501.53,1934.55,1517.22,1889.94"/>
<path d="M1501.53,1934.55,1480.58,2090.69"/>
<path d="M1501.53,1934.55,1393.17,1985.12"/>
<path d="M1501.53,1934.55,1393.46,1866.81"/>
<path d="M1629.08,2149.05,1588.13,2150.35"/>
<path d="M1629.08,2149.05,1711.65,2085.03"/>
<path d="M1629.08,2149.05,1717.42,2222.92"/>
<path d="M458.60,142.18,515.83,139.68"/>
<path d="M458.60,142.18,447.20,169.79"/>
<path d="M458.60,142.18,394.77,97.57"/>
<path d="M458.60,142.18,422.74,71.75"/>
<path d="M1308.25,1051.53,1209.59,1114.16"/>
<path d="M1308.25,1051.53,1358.20,1001.40"/>
<path d="M1308.25,1051.53,1369.24,1113.22"/>
<path d="M1487.52,317.71,1451.80,305.50"/>
<path d="M1487.52,317.71,1563.03,315.58"/>
<path d="M1487.52,317.71,1461.84,368.13"/>
<path d="M1487.52,317.71,1535.14,235.94"/>
<path d="M265.26,465.16,234.01,342.31"/>
<path d="M265.26,465.16,392.94,372.38"/>
<path d="M265.26,465.16,348.62,499.33"/>
<path d="M265.26,465.16,187.23,475.00"/>
<path d="M265.26,465.16,352.82,337.32"/>
<path d="M2077.01,441.27,2044.62,426.58"/>
<path d="M1250.55,1996.04,1186.96,2118.01"/>
<path d="M1250.55,1996.04,1197.49,1937.58"/>
<path d="M1250.55,1996.04,1358.01,2051.95"/>
<path d="M185.53,2232.67,138.89,2209.38"/>
<path d="M1337.25,404.67,1373.85,331.75"/>
<path d="M1337.25,404.67,1325.71,495.49"/>
<path d="M830.17,406.92,857.99,359.01"/>
<path d="M830.17,406.92,763.22,527.29"/>
<path d="M1122.40,1832.14,1197.49,1937.58"/>
<path d="M1122.40,1832.14,943.09,1777.47"/>
<path d="M1122.40,1832.14,1184.53,1776.17"/>
<path d="M644.98,703.34,621.40,726.98"/>
<path d="M644.98,703.34,779.95,579.44"/>
<path d="M644.98,703.34,594.62,632.53"/>
<path d="M982.90,1609.87,973.55,1527.62"/>
<path d="M982.90,1609.87,1084.51,1577.49"/>
<path d="M982.90,1609.87,960.10,1662.14"/>
<path d="M105.26,1868.33,257.90,1826.20"/>
<path d="M105.26,1868.33,78.87,1991.29"/>
<path d="M1759.54,1106.52,1664.26,1044.64"/>
<path d="M1759.54,1106.52,1804.73,1177.52"/>
<path d="M1759.54,1106.52,1695.64,1190.68"/>
<path d="M1759.54,1106.52,1785.12,1054.65"/>
<path d="M188.65,132.33,195.57,192.59"/>
<path d="M188.65,132.33,206.05,40.66"/>
<path d="M188.65,132.33,245.60,116.64"/>
<path d="M188.65,132.33,129.42,75.54"/>
<path d="M188.65,132.33,75.87,137.68"/>
<path d="M453.62,1992.72,375.52,2055.57"/>
<path d="M453.62,1992.72,370.85,1994.97"/>
<path d="M453.62,1992.72,495.63,1960.39"/>
<path d="M453.62,1992.72,570.03,2070.75"/>
<path d="M453.62,1992.72,409.35,2087.54"/>
<path d="M2000.50,1984.04,2004.82,2053.16"/>
<path d="M2000.50,1984.04,1975.68,1946.71"/>
<path d="M1451.80,305.50,1461.84,368.13"/>
<path d="M1451.80,305.50,1408.57,348.05"/>
<path d="M1383.52,202.34,1319.53,264.95"/>
<path d="M1383.52,202.34,1402.62,166.64"/>
<path d="M1383.52,202.34,1293.13,229.65"/>
<path d="M1846.50,1183.53,1804.73,1177.52"/>
<path d="M1846.50,1183.53,1889.38,1189.06"/>
<path d="M1846.50,1183.53,1884.78,1156.41"/>
<path d="M1846.50,1183.53,1857.54,1233.21"/>
<path d="M263.84,1656.51,415.80,1567.82"/>
<path d="M263.84,1656.51,247.89,1615.15"/>
<path d="M2025.96,1295.04,2054.44,1097.93"/>
<path d="M2025.96,1295.04,2121.34,1279.65"/>
<path d="M2025.96,1295.04,2073.95,1369.76"/>
<path d="M2025.96,1295.04,1939.41,1200.74"/>
<path d="M190.75,580.10,187.23,475.00"/>
<path d="M190.75,580.10,66.57,618.27"/>
<path d="M1198.99,1464.41,1302.16,1503.57"/>
<path d="M1198.99,1464.41,1162.42,1573.29"/>
<path d="M1198.99,1464.41,1314.93,1443.49"/>
<path d="M72.41,1577.52,56.39,1719.34"/>
<path d="M72.41,1577.52,168.41,1559.97"/>
<path d="M72.41,1577.52,13.33,1343.58"/>
<path d="M601.31,1948.62,718.05,1852.93"/>
<path d="M601.31,1948.62,495.63,1960.39"/>
<path d="M601.31,1948.62,611.88,1978.26"/>
<path d="M527.92,1528.66,415.80,1567.82"/>
<path d="M527.92,1528.66,605.90,1340.38"/>
<path d="M527.92,1528.66,528.59,1327.36"/>
<path d="M527.92,1528.66,473.50,1618.86"/>
<path d="M1981.56,1703.25,1951.54,1723.76"/>
<path d="M1981.56,1703.25,2014.20,1670.14"/>
<path d="M1981.56,1703.25,2005.10,1768.23"/>
<path d="M1981.56,1703.25,1936.40,1648.53"/>
<path d="M1057.31,588.91,1073.59,621.18"/>
<path d="M1057.31,588.91,873.24,606.87"/>
<path d="M1057.31,588.91,1100.89,558.08"/>
<path d="M1437.45,57.59,1397.01,99.92"/>
<path d="M1437.45,57.59,1480.20,113.39"/>
<path d="M1719.43,719.62,1737.28,650.57"/>
<path d="M1719.43,719.62,1688.18,736.12"/>
<path d="M1719.43,719.62,1669.31,691.04"/>
<path d="M2044.62,426.58,1939.47,230.23"/>
<path d="M2044.62,426.58,1890.78,409.86"/>
<path d="M634.74,224.89,665.79,223.13"/>
<path d="M634.74,224.89,574.52,128.12"/>
<path d="M506.79,1293.32,600.87,1211.27"/>
<path d="M506.79,1293.32,528.59,1327.36"/>
<path d="M2185.75,1258.20,2172.43,1302.83"/>
<path d="M2185.75,1258.20,2160.23,1114.35"/>
<path d="M2185.75,1258.20,2121.34,1279.65"/>
<path d="M1665.24,325.68,1604.18,462.14"/>
<path d="M1665.24,325.68,1793.72,446.55"/>
<path d="M1665.24,325.68,1563.03,315.58"/>
<path d="M1665.24,325.68,1610.03,212.65"/>
<path d="M497.41,688.27,621.40,726.98"/>
<path d="M497.41,688.27,430.64,695.15"/>
<path d="M497.41,688.27,463.36,773.63"/>
<path d="M497.41,688.27,594.62,632.53"/>
<path d="M234.01,342.31,187.23,475.00"/>
<path d="M234.01,342.31,352.82,337.32"/>
<path d="M234.01,342.31,93.13,404.03"/>
<path d="M234.01,342.31,245.71,297.57"/>
<path d="M388.57,479.71,392.94,372.38"/>
<path d="M388.57,479.71,348.62,499.33"/>
<path d="M388.57,479.71,569.89,408.20"/>
<path d="M433.08,1235.07,349.79,1243.72"/>
<path d="M376.79,768.96,430.64,695.15"/>
<path d="M376.79,768.96,463.36,773.63"/>
<path d="M1092.29,706.19,1073.59,621.18"/>
<path d="M1092.29,706.19,1212.79,658.20"/>
<path d="M1461.45,1568.06,1455.29,1442.72"/>
<path d="M1461.45,1568.06,1418.13,1656.46"/>
<path d="M1461.45,1568.06,1386.76,1462.14"/>
<path d="M1461.45,1568.06,1493.43,1587.91"/>
<path d="M995.94,975.18,937.52,1015.68"/>
<path d="M995.94,975.18,934.17,875.10"/>
<path d="M1209.59,1114.16,1129.58,1035.61"/>
<path d="M937.52,1015.68,873.92,961.58"/>
<path d="M1133.09,988.18,1129.58,1035.61"/>
<path d="M1415.55,625.21,1373.29,703.35"/>
<path d="M1415.55,625.21,1302.03,603.98"/>
<path d="M1415.55,625.21,1325.71,495.49"/>
<path d="M375.52,2055.57,370.85,1994.97"/>
<path d="M375.52,2055.57,409.35,2087.54"/>
<path d="M844.59,663.02,887.97,784.97"/>
<path d="M844.59,663.02,779.95,579.44"/>
<path d="M844.59,663.02,875.78,658.59"/>
<path d="M2166.26,202.64,2159.61,230.77"/>
<path d="M2166.26,202.64,2086.86,194.49"/>
<path d="M1568.55,144.29,1616.78,119.13"/>
<path d="M1568.55,144.29,1610.03,212.65"/>
<path d="M1568.55,144.29,1480.20,113.39"/>
<path d="M1568.55,144.29,1639.76,176.70"/>
<path d="M1568.55,144.29,1535.14,235.94"/>
<path d="M522.05,1740.41,495.63,1960.39"/>
<path d="M522.05,1740.41,473.50,1618.86"/>
<path d="M2159.61,230.77,2086.86,194.49"/>
<path d="M780.23,1598.56,911.83,1468.30"/>
<path d="M780.23,1598.56,890.58,1666.42"/>
<path d="M780.23,1598.56,699.62,1447.83"/>
<path d="M609.05,330.49,569.89,408.20"/>
<path d="M2054.44,1097.93,2121.32,1114.14"/>
<path d="M2054.44,1097.93,2031.07,977.59"/>
<path d="M1302.16,1503.57,1386.76,1462.14"/>
<path d="M1302.16,1503.57,1296.94,1565.77"/>
<path d="M1302.16,1503.57,1314.93,1443.49"/>
<path d="M138.89,2209.38,126.09,2125.61"/>
<path d="M772.62,1839.35,718.05,1852.93"/>
<path d="M1616.78,119.13,1655.28,125.30"/>
<path d="M1616.78,119.13,1639.76,176.70"/>
<path d="M559.94,2094.66,570.03,2070.75"/>
<path d="M559.94,2094.66,409.35,2087.54"/>
<path d="M559.94,2094.66,580.19,2162.61"/>
<path d="M1162.42,1573.29,1296.94,1565.77"/>
<path d="M1162.42,1573.29,1084.51,1577.49"/>
<path d="M1162.42,1573.29,1184.64,1659.20"/>
<path d="M69.20,662.76,66.57,618.27"/>
<path d="M69.20,662.76,170.42,787.11"/>
<path d="M2214.25,1912.99,2176.42,1887.93"/>
<path d="M2214.25,1912.99,2208.96,1874.11"/>
<path d="M2183.25,2178.94,1907.35,2229.08"/>
<path d="M2183.25,2178.94,2004.82,2053.16"/>
<path d="M1517.22,1889.94,1393.46,1866.81"/>
<path d="M1517.22,1889.94,1443.30,1801.08"/>
<path d="M1725.60,1542.37,1677.45,1473.06"/>
<path d="M1725.60,1542.37,1757.65,1597.59"/>
<path d="M1725.60,1542.37,1619.64,1615.45"/>
<path d="M415.80,1567.82,372.58,1506.03"/>
<path d="M415.80,1567.82,473.50,1618.86"/>
<path d="M964.44,2062.11,1112.84,2118.70"/>
<path d="M964.44,2062.11,1011.12,1979.21"/>
<path d="M1951.54,1723.76,2005.10,1768.23"/>
<path d="M1951.54,1723.76,1936.40,1648.53"/>
<path d="M1951.54,1723.76,1937.27,1759.32"/>
<path d="M1480.58,2090.69,1533.52,2110.67"/>
<path d="M1197.75,136.23,1131.20,128.08"/>
<path d="M1197.75,136.23,1162.62,89.68"/>
<path d="M1197.75,136.23,1264.02,89.51"/>
<path d="M1197.75,136.23,1140.68,179.51"/>
<path d="M188.83,1497.66,239.43,1331.62"/>
<path d="M188.83,1497.66,168.41,1559.97"/>
<path d="M188.83,1497.66,295.40,1528.61"/>
<path d="M188.83,1497.66,303.07,1431.67"/>
<path d="M605.90,1340.38,671.18,1266.41"/>
<path d="M605.90,1340.38,600.87,1211.27"/>
<path d="M605.90,1340.38,756.08,1362.12"/>
<path d="M605.90,1340.38,528.59,1327.36"/>
<path d="M605.90,1340.38,699.62,1447.83"/>
<path d="M1073.59,621.18,1212.79,658.20"/>
<path d="M887.97,784.97,790.59,764.88"/>
<path d="M887.97,784.97,896.71,825.86"/>
<path d="M887.97,784.97,875.78,658.59"/>
<path d="M1971.36,869.19,1861.38,860.30"/>
<path d="M1971.36,869.19,2031.07,977.59"/>
<path d="M1971.36,869.19,1871.60,905.76"/>
<path d="M1971.36,869.19,1929.39,760.94"/>
<path d="M1186.96,2118.01,1359.09,2192.86"/>
<path d="M1186.96,2118.01,1155.79,2113.51"/>
<path d="M1818.55,1357.58,1782.88,1379.39"/>
<path d="M1818.55,1357.58,1878.47,1410.86"/>
<path d="M1818.55,1357.58,1766.95,1295.08"/>
<path d="M1818.55,1357.58,1857.54,1233.21"/>
<path d="M590.25,2186.16,630.70,2203.13"/>
<path d="M590.25,2186.16,580.19,2162.61"/>
<path d="M392.94,372.38,408.05,340.37"/>
<path d="M392.94,372.38,352.82,337.32"/>
<path d="M665.79,223.13,799.17,112.68"/>
<path d="M408.05,340.37,384.62,266.00"/>
<path d="M408.05,340.37,455.14,295.61"/>
<path d="M408.05,340.37,352.82,337.32"/>
<path d="M897.69,2194.46,839.51,2137.08"/>
<path d="M897.69,2194.46,888.90,2127.89"/>
<path d="M1939.47,230.23,2008.34,146.73"/>
<path d="M1939.47,230.23,1890.78,409.86"/>
<path d="M329.79,1144.43,409.28,1048.24"/>
<path d="M329.79,1144.43,284.63,1188.41"/>
<path d="M384.62,266.00,455.14,295.61"/>
<path d="M384.62,266.00,352.82,337.32"/>
<path d="M384.62,266.00,371.12,232.05"/>
<path d="M384.62,266.00,472.94,225.22"/>
<path d="M596.29,64.16,574.52,128.12"/>
<path d="M596.29,64.16,677.62,5.89"/>
<path d="M287.42,754.30,330.87,803.10"/>
<path d="M287.42,754.30,260.97,775.69"/>
<path d="M287.42,754.30,244.52,736.69"/>
<path d="M372.58,1506.03,295.40,1528.61"/>
<path d="M2189.58,1626.49,2187.66,1581.88"/>
<path d="M56.39,1719.34,245.05,1696.43"/>
<path d="M1608.40,959.73,1594.37,993.14"/>
<path d="M1608.40,959.73,1646.57,861.20"/>
<path d="M91.87,957.36,12.81,925.13"/>
<path d="M91.87,957.36,62.30,840.98"/>
<path d="M1637.41,1736.95,1553.16,1809.61"/>
<path d="M1637.41,1736.95,1670.69,1872.62"/>
<path d="M1637.41,1736.95,1496.59,1696.71"/>
<path d="M1637.41,1736.95,1619.64,1615.45"/>
<path d="M1637.41,1736.95,1756.45,1624.90"/>
<path d="M1637.41,1736.95,1870.80,1817.32"/>
<path d="M330.87,803.10,332.93,879.63"/>
<path d="M1410.40,1117.64,1518.37,1043.17"/>
<path d="M1410.40,1117.64,1369.24,1113.22"/>
<path d="M1737.28,650.57,1669.31,691.04"/>
<path d="M1737.28,650.57,1708.78,607.74"/>
<path d="M1321.50,843.10,1373.29,703.35"/>
<path d="M1321.50,843.10,1359.17,853.49"/>
<path d="M1604.18,462.14,1793.72,446.55"/>
<path d="M1604.18,462.14,1563.03,315.58"/>
<path d="M1604.18,462.14,1708.78,607.74"/>
<path d="M1604.18,462.14,1479.25,388.41"/>
<path d="M799.17,112.68,739.77,0.18"/>
<path d="M799.17,112.68,844.02,150.77"/>
<path d="M1664.26,1044.64,1594.37,993.14"/>
<path d="M1664.26,1044.64,1695.64,1190.68"/>
<path d="M1664.26,1044.64,1785.12,1054.65"/>
<path d="M1664.26,1044.64,1610.53,1192.82"/>
<path d="M1664.26,1044.64,1556.31,1149.94"/>
<path d="M1778.93,78.03,1720.62,17.72"/>
<path d="M1778.93,78.03,1843.27,102.90"/>
<path d="M1778.93,78.03,1750.81,155.53"/>
<path d="M1553.16,1809.61,1496.59,1696.71"/>
<path d="M1553.16,1809.61,1443.30,1801.08"/>
<path d="M2176.42,1887.93,2208.96,1874.11"/>
<path d="M2176.42,1887.93,2049.37,1835.60"/>
<path d="M1373.85,331.75,1319.53,264.95"/>
<path d="M1373.85,331.75,1408.57,348.05"/>
<path d="M187.23,475.00,93.13,404.03"/>
<path d="M455.14,295.61,472.94,225.22"/>
<path d="M455.14,295.61,569.89,408.20"/>
<path d="M455.14,295.61,517.27,268.93"/>
<path d="M1088.26,385.00,1179.48,484.71"/>
<path d="M2206.20,1054.71,2128.08,950.51"/>
<path d="M2206.20,1054.71,2160.23,1114.35"/>
<path d="M2206.20,1054.71,2228.42,1068.16"/>
<path d="M239.43,1331.62,208.73,1287.62"/>
<path d="M239.43,1331.62,359.04,1324.67"/>
<path d="M239.43,1331.62,303.07,1431.67"/>
<path d="M971.93,213.78,974.22,346.87"/>
<path d="M971.93,213.78,952.11,190.40"/>
<path d="M1646.61,1492.07,1564.98,1498.96"/>
<path d="M1646.61,1492.07,1630.50,1411.33"/>
<path d="M1646.61,1492.07,1677.45,1473.06"/>
<path d="M1646.61,1492.07,1619.64,1615.45"/>
<path d="M1319.53,264.95,1293.13,229.65"/>
<path d="M12.81,925.13,62.30,840.98"/>
<path d="M837.72,2009.73,818.73,2065.62"/>
<path d="M837.72,2009.73,611.88,1978.26"/>
<path d="M837.72,2009.73,925.29,1927.99"/>
<path d="M1554.40,1367.22,1576.77,1341.94"/>
<path d="M1554.40,1367.22,1630.50,1411.33"/>
<path d="M1094.30,28.52,1162.62,89.68"/>
<path d="M1094.30,28.52,1131.30,7.87"/>
<path d="M206.05,40.66,245.60,116.64"/>
<path d="M206.05,40.66,129.42,75.54"/>
<path d="M1804.73,1177.52,1695.64,1190.68"/>
<path d="M1804.73,1177.52,1766.95,1295.08"/>
<path d="M495.63,1960.39,570.03,2070.75"/>
<path d="M2222.85,1428.03,2172.43,1302.83"/>
<path d="M2222.85,1428.03,2188.11,1449.46"/>
<path d="M839.51,2137.08,768.98,2152.83"/>
<path d="M839.51,2137.08,818.73,2065.62"/>
<path d="M839.51,2137.08,888.90,2127.89"/>
<path d="M1470.41,972.56,1358.20,1001.40"/>
<path d="M1470.41,972.56,1501.64,968.76"/>
<path d="M1470.41,972.56,1468.40,879.92"/>
<path d="M1603.32,766.35,1631.22,681.53"/>
<path d="M1603.32,766.35,1644.53,765.26"/>
<path d="M1603.32,766.35,1646.57,861.20"/>
<path d="M1032.99,873.25,1056.98,898.72"/>
<path d="M1032.99,873.25,934.17,875.10"/>
<path d="M1335.78,127.27,1397.01,99.92"/>
<path d="M1335.78,127.27,1402.62,166.64"/>
<path d="M1335.78,127.27,1374.67,79.74"/>
<path d="M1455.34,770.59,1373.29,703.35"/>
<path d="M1455.34,770.59,1447.99,862.77"/>
<path d="M1455.34,770.59,1359.17,853.49"/>
<path d="M1594.37,993.14,1518.37,1043.17"/>
<path d="M1594.37,993.14,1501.64,968.76"/>
<path d="M2008.34,146.73,1843.27,102.90"/>
<path d="M1142.81,2147.53,1112.84,2118.70"/>
<path d="M1142.81,2147.53,1155.79,2113.51"/>
<path d="M1142.81,2147.53,1133.43,2210.75"/>
<path d="M168.13,1222.45,187.48,1265.62"/>
<path d="M168.13,1222.45,167.56,1189.97"/>
<path d="M1265.53,1811.61,1331.58,1800.66"/>
<path d="M1265.53,1811.61,1290.45,1846.11"/>
<path d="M1265.53,1811.61,1217.09,1736.87"/>
<path d="M1265.53,1811.61,1184.53,1776.17"/>
<path d="M1793.72,446.55,1834.94,429.40"/>
<path d="M742.19,930.37,655.72,964.03"/>
<path d="M742.19,930.37,799.44,1092.57"/>
<path d="M1720.62,17.72,1655.28,125.30"/>
<path d="M1563.03,315.58,1610.03,212.65"/>
<path d="M1563.03,315.58,1535.14,235.94"/>
<path d="M260.97,775.69,170.42,787.11"/>
<path d="M260.97,775.69,244.52,736.69"/>
<path d="M352.82,337.32,245.71,297.57"/>
<path d="M655.72,964.03,684.77,1057.98"/>
<path d="M655.72,964.03,516.65,934.02"/>
<path d="M257.90,1826.20,245.05,1696.43"/>
<path d="M1212.79,658.20,1302.03,603.98"/>
<path d="M1212.79,658.20,1179.48,484.71"/>
<path d="M1212.79,658.20,1100.89,558.08"/>
<path d="M1518.37,1043.17,1501.64,968.76"/>
<path d="M1518.37,1043.17,1556.31,1149.94"/>
<path d="M671.18,1266.41,600.87,1211.27"/>
<path d="M671.18,1266.41,756.08,1362.12"/>
<path d="M574.52,128.12,515.83,139.68"/>
<path d="M1631.22,681.53,1644.53,765.26"/>
<path d="M1631.22,681.53,1669.31,691.04"/>
<path d="M1853.69,1958.98,1670.69,1872.62"/>
<path d="M1853.69,1958.98,1790.07,2075.00"/>
<path d="M1853.69,1958.98,1839.23,2093.85"/>
<path d="M1853.69,1958.98,1870.80,1817.32"/>
<path d="M1131.20,128.08,1162.62,89.68"/>
<path d="M1131.20,128.08,1140.68,179.51"/>
<path d="M1455.29,1442.72,1386.76,1462.14"/>
<path d="M1455.29,1442.72,1564.98,1498.96"/>
<path d="M1418.13,1656.46,1496.59,1696.71"/>
<path d="M1418.13,1656.46,1356.74,1627.81"/>
<path d="M1418.13,1656.46,1493.43,1587.91"/>
<path d="M1907.35,2229.08,1757.19,2187.69"/>
<path d="M1907.35,2229.08,2004.82,2053.16"/>
<path d="M1907.35,2229.08,1839.23,2093.85"/>
<path d="M955.61,1707.35,890.58,1666.42"/>
<path d="M955.61,1707.35,960.10,1662.14"/>
<path d="M955.61,1707.35,943.09,1777.47"/>
<path d="M1397.01,99.92,1402.62,166.64"/>
<path d="M1397.01,99.92,1480.20,113.39"/>
<path d="M1397.01,99.92,1374.67,79.74"/>
<path d="M570.03,2070.75,611.88,1978.26"/>
<path d="M1670.69,1872.62,1870.80,1817.32"/>
<path d="M523.47,840.22,516.65,934.02"/>
<path d="M523.47,840.22,463.36,773.63"/>
<path d="M523.47,840.22,445.26,884.22"/>
<path d="M217.96,282.82,242.84,264.64"/>
<path d="M217.96,282.82,245.71,297.57"/>
<path d="M371.12,232.05,242.84,264.64"/>
<path d="M371.12,232.05,472.94,225.22"/>
<path d="M371.12,232.05,447.20,169.79"/>
<path d="M119.48,1083.59,191.44,1164.28"/>
<path d="M952.11,190.40,844.02,150.77"/>
<path d="M952.11,190.40,892.47,111.22"/>
<path d="M1757.19,2187.69,1790.07,2075.00"/>
<path d="M1757.19,2187.69,1711.65,2085.03"/>
<path d="M1757.19,2187.69,1717.42,2222.92"/>
<path d="M1757.19,2187.69,1839.23,2093.85"/>
<path d="M295.40,1528.61,247.89,1615.15"/>
<path d="M295.40,1528.61,303.07,1431.67"/>
<path d="M1610.03,212.65,1639.76,176.70"/>
<path d="M1610.03,212.65,1535.14,235.94"/>
<path d="M1834.94,429.40,1890.78,409.86"/>
<path d="M245.60,116.64,394.77,97.57"/>
<path d="M208.73,1287.62,187.48,1265.62"/>
<path d="M1461.84,368.13,1408.57,348.05"/>
<path d="M1461.84,368.13,1479.25,388.41"/>
<path d="M1373.29,703.35,1302.03,603.98"/>
<path d="M1373.29,703.35,1359.17,853.49"/>
<path d="M1533.52,2110.67,1588.13,2150.35"/>
<path d="M1533.52,2110.67,1542.16,2203.62"/>
<path d="M779.95,579.44,873.24,606.87"/>
<path d="M779.95,579.44,763.22,527.29"/>
<path d="M779.95,579.44,594.62,632.53"/>
<path d="M1386.76,1462.14,1314.93,1443.49"/>
<path d="M600.87,1211.27,684.77,1057.98"/>
<path d="M600.87,1211.27,498.22,1205.96"/>
<path d="M919.91,1423.91,911.83,1468.30"/>
<path d="M1393.17,1985.12,1393.46,1866.81"/>
<path d="M1393.17,1985.12,1358.01,2051.95"/>
<path d="M1534.29,1208.90,1470.18,1270.00"/>
<path d="M1534.29,1208.90,1576.77,1341.94"/>
<path d="M1534.29,1208.90,1610.53,1192.82"/>
<path d="M1534.29,1208.90,1556.31,1149.94"/>
<path d="M681.10,2155.75,756.29,2104.32"/>
<path d="M681.10,2155.75,768.98,2152.83"/>
<path d="M681.10,2155.75,630.70,2203.13"/>
<path d="M756.08,1362.12,882.06,1185.92"/>
<path d="M756.08,1362.12,699.62,1447.83"/>
<path d="M2049.37,1835.60,2005.10,1768.23"/>
<path d="M756.29,2104.32,768.98,2152.83"/>
<path d="M756.29,2104.32,818.73,2065.62"/>
<path d="M756.29,2104.32,611.88,1978.26"/>
<path d="M1644.53,765.26,1688.18,736.12"/>
<path d="M1644.53,765.26,1646.57,861.20"/>
<path d="M677.62,5.89,739.77,0.18"/>
<path d="M1470.18,1270.00,1576.77,1341.94"/>
<path d="M1162.62,89.68,1131.30,7.87"/>
<path d="M2059.20,1713.41,2014.20,1670.14"/>
<path d="M2059.20,1713.41,2005.10,1768.23"/>
<path d="M2128.08,950.51,2121.32,1114.14"/>
<path d="M2128.08,950.51,2031.07,977.59"/>
<path d="M1359.09,2192.86,1542.16,2203.62"/>
<path d="M1359.09,2192.86,1383.01,2112.21"/>
<path d="M911.83,1468.30,973.55,1527.62"/>
<path d="M2121.32,1114.14,2160.23,1114.35"/>
<path d="M2121.32,1114.14,2121.34,1279.65"/>
<path d="M242.84,264.64,245.71,297.57"/>
<path d="M359.04,1324.67,303.07,1431.67"/>
<path d="M129.42,75.54,41.96,78.79"/>
<path d="M129.42,75.54,75.87,137.68"/>
<path d="M1564.98,1498.96,1630.50,1411.33"/>
<path d="M1564.98,1498.96,1493.43,1587.91"/>
<path d="M1564.98,1498.96,1619.64,1615.45"/>
<path d="M1790.07,2075.00,1711.65,2085.03"/>
<path d="M1790.07,2075.00,1839.23,2093.85"/>
<path d="M1447.99,862.77,1468.40,879.92"/>
<path d="M1447.99,862.77,1359.17,853.49"/>
<path d="M2014.20,1670.14,1997.22,1647.05"/>
<path d="M2172.43,1302.83,2130.53,1402.08"/>
<path d="M2172.43,1302.83,2121.34,1279.65"/>
<path d="M684.77,1057.98,799.44,1092.57"/>
<path d="M1655.28,125.30,1750.81,155.53"/>
<path d="M1655.28,125.30,1639.76,176.70"/>
<path d="M1688.18,736.12,1669.31,691.04"/>
<path d="M1695.64,1190.68,1610.53,1192.82"/>
<path d="M1695.64,1190.68,1766.95,1295.08"/>
<path d="M187.48,1265.62,284.63,1188.41"/>
<path d="M1588.13,2150.35,1542.16,2203.62"/>
<path d="M515.83,139.68,472.94,225.22"/>
<path d="M332.93,879.63,409.28,1048.24"/>
<path d="M332.93,879.63,190.47,1051.94"/>
<path d="M332.93,879.63,445.26,884.22"/>
<path d="M191.44,1164.28,167.56,1189.97"/>
<path d="M191.44,1164.28,284.63,1188.41"/>
<path d="M191.44,1164.28,190.47,1051.94"/>
<path d="M1669.31,691.04,1708.78,607.74"/>
<path d="M849.32,1806.75,925.29,1927.99"/>
<path d="M849.32,1806.75,943.09,1777.47"/>
<path d="M1402.62,166.64,1480.20,113.39"/>
<path d="M1496.59,1696.71,1493.43,1587.91"/>
<path d="M1496.59,1696.71,1619.64,1615.45"/>
<path d="M1974.27,1810.42,2005.10,1768.23"/>
<path d="M1974.27,1810.42,1937.27,1759.32"/>
<path d="M1974.27,1810.42,1870.80,1817.32"/>
<path d="M1104.84,2208.93,1133.43,2210.75"/>
<path d="M2004.82,2053.16,1839.23,2093.85"/>
<path d="M41.96,78.79,75.87,137.68"/>
<path d="M1785.12,1054.65,1871.60,905.76"/>
<path d="M1785.12,1054.65,1884.78,1156.41"/>
<path d="M1861.38,860.30,1871.60,905.76"/>
<path d="M1861.38,860.30,1929.39,760.94"/>
<path d="M1861.38,860.30,1646.57,861.20"/>
<path d="M409.28,1048.24,498.22,1205.96"/>
<path d="M409.28,1048.24,501.58,973.89"/>
<path d="M1576.77,1341.94,1610.53,1192.82"/>
<path d="M1576.77,1341.94,1630.50,1411.33"/>
<path d="M1576.77,1341.94,1766.95,1295.08"/>
<path d="M934.17,875.10,896.71,825.86"/>
<path d="M934.17,875.10,873.92,961.58"/>
<path d="M1610.53,1192.82,1556.31,1149.94"/>
<path d="M1356.74,1627.81,1331.58,1800.66"/>
<path d="M1975.68,1946.71,2015.06,1893.24"/>
<path d="M1630.50,1411.33,1782.88,1379.39"/>
<path d="M1630.50,1411.33,1677.45,1473.06"/>
<path d="M1898.72,1234.43,1889.38,1189.06"/>
<path d="M1898.72,1234.43,1939.41,1200.74"/>
<path d="M1898.72,1234.43,1857.54,1233.21"/>
<path d="M2130.53,1402.08,2073.95,1369.76"/>
<path d="M2130.53,1402.08,2188.11,1449.46"/>
<path d="M1493.43,1587.91,1619.64,1615.45"/>
<path d="M1302.03,603.98,1179.48,484.71"/>
<path d="M1302.03,603.98,1325.71,495.49"/>
<path d="M873.24,606.87,875.78,658.59"/>
<path d="M1112.84,2118.70,1155.79,2113.51"/>
<path d="M844.02,150.77,892.47,111.22"/>
<path d="M1782.88,1379.39,1677.45,1473.06"/>
<path d="M1782.88,1379.39,1766.95,1295.08"/>
<path d="M1393.46,1866.81,1331.58,1800.66"/>
<path d="M1393.46,1866.81,1290.45,1846.11"/>
<path d="M1393.46,1866.81,1443.30,1801.08"/>
<path d="M2005.10,1768.23,1937.27,1759.32"/>
<path d="M1843.27,102.90,2029.70,21.89"/>
<path d="M1843.27,102.90,1750.81,155.53"/>
<path d="M2029.70,21.89,2180.43,11.58"/>
<path d="M1889.38,1189.06,1884.78,1156.41"/>
<path d="M1889.38,1189.06,1939.41,1200.74"/>
<path d="M1889.38,1189.06,1857.54,1233.21"/>
<path d="M1936.40,1648.53,1997.22,1647.05"/>
<path d="M1936.40,1648.53,1878.47,1410.86"/>
<path d="M1936.40,1648.53,1756.45,1624.90"/>
<path d="M973.55,1527.62,1084.51,1577.49"/>
<path d="M11.06,2072.61,78.87,1991.29"/>
<path d="M472.94,225.22,447.20,169.79"/>
<path d="M472.94,225.22,517.27,268.93"/>
<path d="M2123.44,582.31,2021.22,576.15"/>
<path d="M2123.44,582.31,2068.50,653.64"/>
<path d="M2123.44,582.31,2231.76,485.84"/>
<path d="M2123.44,582.31,2196.21,625.02"/>
<path d="M698.07,499.67,569.89,408.20"/>
<path d="M698.07,499.67,763.22,527.29"/>
<path d="M698.07,499.67,594.62,632.53"/>
<path d="M78.87,1991.29,126.09,2125.61"/>
<path d="M2121.34,1279.65,2073.95,1369.76"/>
<path d="M882.06,1185.92,925.94,1153.87"/>
<path d="M882.06,1185.92,799.44,1092.57"/>
<path d="M53.95,1270.02,13.33,1343.58"/>
<path d="M1750.81,155.53,1639.76,176.70"/>
<path d="M516.65,934.02,501.58,973.89"/>
<path d="M516.65,934.02,445.26,884.22"/>
<path d="M75.87,137.68,77.44,253.22"/>
<path d="M799.44,1092.57,873.92,961.58"/>
<path d="M1383.01,2112.21,1358.01,2051.95"/>
<path d="M1501.64,968.76,1468.40,879.92"/>
<path d="M890.58,1666.42,960.10,1662.14"/>
<path d="M1480.20,113.39,1535.14,235.94"/>
<path d="M2021.22,576.15,2068.50,653.64"/>
<path d="M2021.22,576.15,1890.78,409.86"/>
<path d="M1757.65,1597.59,1619.64,1615.45"/>
<path d="M1757.65,1597.59,1756.45,1624.90"/>
<path d="M1929.39,760.94,2068.50,653.64"/>
<path d="M170.42,787.11,244.52,736.69"/>
<path d="M170.42,787.11,62.30,840.98"/>
<path d="M1619.64,1615.45,1756.45,1624.90"/>
<path d="M1179.48,484.71,1325.71,495.49"/>
<path d="M1179.48,484.71,1099.97,497.14"/>
<path d="M430.64,695.15,463.36,773.63"/>
<path d="M2235.08,123.21,2180.43,11.58"/>
<path d="M1756.45,1624.90,1870.80,1817.32"/>
<path d="M463.36,773.63,445.26,884.22"/>
<path d="M569.89,408.20,594.62,632.53"/>
<path d="M925.29,1927.99,943.09,1777.47"/>
<path d="M1766.95,1295.08,1857.54,1233.21"/>
<path d="M1197.49,1937.58,1290.45,1846.11"/>
<path d="M1331.58,1800.66,1290.45,1846.11"/>
<path d="M1331.58,1800.66,1443.30,1801.08"/>
<path d="M1468.40,879.92,1646.57,861.20"/>
<path d="M1937.27,1759.32,1870.80,1817.32"/>
<path d="M2231.76,485.84,2196.21,625.02"/>
<path d="M1217.09,1736.87,1184.53,1776.17"/>
<path d="M394.77,97.57,422.74,71.75"/>
<path d="M1100.89,558.08,1099.97,497.14"/>
<circle cx="961.75" cy="794.60" r="10"/>
<text x="961.75" y="799.60">R0</text>
<circle cx="2018.84" cy="1851.20" r="10"/>
<text x="2018.84" y="1856.20">R1</text>
<circle cx="219.35" cy="635.54" r="10"/>
<text x="219.35" y="640.54">R2</text>
<circle cx="1060.47" cy="1487.90" r="10"/>
<text x="1060.47" y="1492.90">R3</text>
<circle cx="275.97" cy="2089.40" r="10"/>
<text x="275.97" y="2094.40">R4</text>
<circle cx="956.15" cy="2160.33" r="10"/>
<text x="956.15" y="2165.33">R5</text>
<circle cx="307.64" cy="1851.41" r="10"/>
<text x="307.64" y="1856.41">R6</text>
<circle cx="58.23" cy="445.98" r="10"/>
<text x="58.23" y="450.98">R7</text>
<circle cx="1513.93" cy="761.58" r="10"/>
<text x="1513.93" y="766.58">R8</text>
<circle cx="399.51" cy="1937.33" r="10"/>
<text x="399.51" y="1942.33">R9</text>
<circle cx="480.60" cy="1236.75" r="10"/>
<text x="480.60" y="1241.75">R10</text>
<circle cx="888.79" cy="1093.72" r="10"/>
<text x="888.79" y="1098.72">R11</text>
<circle cx="238.92" cy="1670.42" r="10"/>
<text x="238.92" y="1675.42">R12</text>
<circle cx="715.31" cy="1653.79" r="10"/>
<text x="715.31" y="1658.79">R13</text>
<circle cx="1064.60" cy="407.85" r="10"/>
<text x="1064.60" y="412.85">R14</text>
<circle cx="1465.55" cy="500.38" r="10"/>
<text x="1465.55" y="505.38">R15</text>
<circle cx="1508.40" cy="1382.46" r="10"/>
<text x="1508.40" y="1387.46">R16</text>
<circle cx="768.54" cy="740.89" r="10"/>
<text x="768.54" y="745.89">R17</text>
<circle cx="43.13" cy="2133.19" r="10"/>
<text x="43.13" y="2138.19">R18</text>
<circle cx="635.81" cy="810.50" r="10"/>
<text x="635.81" y="815.50">R19</text>
<circle cx="887.44" cy="1395.91" r="10"/>
<text x="887.44" y="1400.91">R20</text>
<circle cx="159.64" cy="1055.13" r="10"/>
<text x="159.64" y="1060.13">R21</text>
<circle cx="578.12" cy="279.28" r="10"/>
<text x="578.12" y="284.28">R22</text>
<circle cx="803.77" cy="1727.81" r="10"/>
<text x="803.77" y="1732.81">R23</text>
<circle cx="1289.54" cy="387.35" r="10"/>
<text x="1289.54" y="392.35">R24</text>
<circle cx="2159.49" cy="1737.07" r="10"/>
<text x="2159.49" y="1742.07">R25</text>
<circle cx="2175.93" cy="1499.11" r="10"/>
<text x="2175.93" y="1504.11">R26</text>
<circle cx="419.40" cy="1412.14" r="10"/>
<text x="419.40" y="1417.14">R27</text>
<circle cx="609.56" cy="1771.21" r="10"/>
<text x="609.56" y="1776.21">R28</text>
<circle cx="1862.42" cy="237.08" r="10"/>
<text x="1862.42" y="242.08">R29</text>
<circle cx="105.85" cy="1819.12" r="10"/>
<text x="105.85" y="1824.12">R30</text>
<circle cx="1274.66" cy="133.02" r="10"/>
<text x="1274.66" y="138.02">R31</text>
<circle cx="1192.66" cy="1393.80" r="10"/>
<text x="1192.66" y="1398.80">R32</text>
<circle cx="1206.46" cy="379.72" r="10"/>
<text x="1206.46" y="384.72">R33</text>
<circle cx="1145.06" cy="2035.19" r="10"/>
<text x="1145.06" y="2040.19">R34</text>
<circle cx="246.29" cy="206.27" r="10"/>
<text x="246.29" y="211.27">R35</text>
<circle cx="870.31" cy="2105.33" r="10"/>
<text x="870.31" y="2110.33">R36</text>
<circle cx="886.38" cy="519.72" r="10"/>
<text x="886.38" y="524.72">R37</text>
<circle cx="1062.92" cy="1373.43" r="10"/>
<text x="1062.92" y="1378.43">R38</text>
<circle cx="1433.03" cy="201.80" r="10"/>
<text x="1433.03" y="206.80">R39</text>
<circle cx="1462.98" cy="1179.83" r="10"/>
<text x="1462.98" y="1184.83">R40</text>
<circle cx="1321.02" cy="1574.46" r="10"/>
<text x="1321.02" y="1579.46">R41</text>
<circle cx="1714.34" cy="2007.46" r="10"/>
<text x="1714.34" y="2012.46">R42</text>
<circle cx="1059.73" cy="964.48" r="10"/>
<text x="1059.73" y="969.48">R43</text>
<circle cx="1535.30" cy="1412.71" r="10"/>
<text x="1535.30" y="1417.71">R44</text>
<circle cx="1233.65" cy="1678.22" r="10"/>
<text x="1233.65" y="1683.22">R45</text>
<circle cx="2101.19" cy="508.37" r="10"/>
<text x="2101.19" y="513.37">R46</text>
<circle cx="1550.44" cy="1844.45" r="10"/>
<text x="1550.44" y="1849.45">R47</text>
<circle cx="1043.38" cy="184.55" r="10"/>
<text x="1043.38" y="189.55">R48</text>
<circle cx="1005.32" cy="1946.00" r="10"/>
<text x="1005.32" y="1951.00">R49</text>
<circle cx="1434.98" cy="1732.01" r="10"/>
<text x="1434.98" y="1737.01">R50</text>
<circle cx="384.61" cy="668.02" r="10"/>
<text x="384.61" y="673.02">R51</text>
<circle cx="153.18" cy="870.08" r="10"/>
<text x="153.18" y="875.08">R52</text>
<circle cx="1982.12" cy="1324.93" r="10"/>
<text x="1982.12" y="1329.93">R53</text>
<circle cx="2115.40" cy="1776.09" r="10"/>
<text x="2115.40" y="1781.09">R54</text>
<circle cx="1029.96" cy="1184.59" r="10"/>
<text x="1029.96" y="1189.59">R55</text>
<circle cx="356.63" cy="805.99" r="10"/>
<text x="356.63" y="810.99">R56</text>
<circle cx="1954.76" cy="1106.41" r="10"/>
<text x="1954.76" y="1111.41">R57</text>
<circle cx="2150.74" cy="320.83" r="10"/>
<text x="2150.74" y="325.83">R58</text>
<circle cx="1372.92" cy="1255.59" r="10"/>
<text x="1372.92" y="1260.59">R59</text>
<circle cx="538.33" cy="233.97" r="10"/>
<text x="538.33" y="238.97">R60</text>
<circle cx="1235.84" cy="701.44" r="10"/>
<text x="1235.84" y="706.44">R61</text>
<circle cx="1288.93" cy="158.97" r="10"/>
<text x="1288.93" y="163.97">R62</text>
<circle cx="70.56" cy="1760.29" r="10"/>
<text x="70.56" y="1765.29">R63</text>
<circle cx="61.17" cy="420.60" r="10"/>
<text x="61.17" y="425.60">R64</text>
<circle cx="948.47" cy="383.45" r="10"/>
<text x="948.47" y="388.45">R65</text>
<circle cx="590.27" cy="1576.97" r="10"/>
<text x="590.27" y="1581.97">R66</text>
<circle cx="21.96" cy="805.73" r="10"/>
<text x="21.96" y="810.73">R67</text>
<circle cx="324.15" cy="2189.79" r="10"/>
<text x="324.15" y="2194.79">R68</text>
<circle cx="1789.54" cy="191.72" r="10"/>
<text x="1789.54" y="196.72">R69</text>
<circle cx="1126.05" cy="821.69" r="10"/>
<text x="1126.05" y="826.69">R70</text>
<circle cx="896.44" cy="2064.17" r="10"/>
<text x="896.44" y="2069.17">R71</text>
<circle cx="301.84" cy="1221.32" r="10"/>
<text x="301.84" y="1226.32">R72</text>
<circle cx="117.61" cy="1231.34" r="10"/>
<text x="117.61" y="1236.34">R73</text>
<circle cx="621.83" cy="2165.89" r="10"/>
<text x="621.83" y="2170.89">R74</text>
<circle cx="2119.51" cy="1967.90" r="10"/>
<text x="2119.51" y="1972.90">R75</text>
<circle cx="2202.68" cy="137.33" r="10"/>
<text x="2202.68" y="142.33">R76</text>
<circle cx="1159.27" cy="1419.59" r="10"/>
<text x="1159.27" y="1424.59">R77</text>
<circle cx="116.84" cy="1353.61" r="10"/>
<text x="116.84" y="1358.61">R78</text>
<circle cx="1569.63" cy="609.73" r="10"/>
<text x="1569.63" y="614.73">R79</text>
<circle cx="716.95" cy="1196.95" r="10"/>
<text x="716.95" y="1201.95">R80</text>
<circle cx="1247.66" cy="267.32" r="10"/>
<text x="1247.66" y="272.32">R81</text>
<circle cx="1320.28" cy="949.72" r="10"/>
<text x="1320.28" y="954.72">R82</text>
<circle cx="1771.82" cy="611.15" r="10"/>
<text x="1771.82" y="616.15">R83</text>
<circle cx="419.63" cy="1698.47" r="10"/>
<text x="419.63" y="1703.47">R84</text>
<circle cx="919.70" cy="409.78" r="10"/>
<text x="919.70" y="414.78">R85</text>
<circle cx="1248.65" cy="1193.32" r="10"/>
<text x="1248.65" y="1198.32">R86</text>
<circle cx="1239.60" cy="1370.27" r="10"/>
<text x="1239.60" y="1375.27">R87</text>
<circle cx="1845.39" cy="768.43" r="10"/>
<text x="1845.39" y="773.43">R88</text>
<circle cx="1103.30" cy="1303.49" r="10"/>
<text x="1103.30" y="1308.49">R89</text>
<circle cx="366.03" cy="590.35" r="10"/>
<text x="366.03" y="595.35">R90</text>
<circle cx="970.17" cy="1248.95" r="10"/>
<text x="970.17" y="1253.95">R91</text>
<circle cx="1036.83" cy="988.79" r="10"/>
<text x="1036.83" y="993.79">R92</text>
<circle cx="736.91" cy="420.08" r="10"/>
<text x="736.91" y="425.08">R93</text>
<circle cx="2034.45" cy="129.41" r="10"/>
<text x="2034.45" y="134.41">R94</text>
<circle cx="804.38" cy="248.68" r="10"/>
<text x="804.38" y="253.68">R95</text>
<circle cx="174.18" cy="1610.31" r="10"/>
<text x="174.18" y="1615.31">R96</text>
<circle cx="920.40" cy="1382.24" r="10"/>
<text x="920.40" y="1387.24">R97</text>
<circle cx="397.33" cy="547.35" r="10"/>
<text x="397.33" y="552.35">R98</text>
<circle cx="774.74" cy="898.16" r="10"/>
<text x="774.74" y="903.16">R99</text>
<circle cx="420.96" cy="1654.91" r="10"/>
<text x="420.96" y="1659.91">R100</text>
<circle cx="778.79" cy="1124.30" r="10"/>
<text x="778.79" y="1129.30">R101</text>
<circle cx="1928.66" cy="1921.60" r="10"/>
<text x="1928.66" y="1926.60">R102</text>
<circle cx="348.49" cy="1287.14" r="10"/>
<text x="348.49" y="1292.14">R103</text>
<circle cx="344.79" cy="1453.43" r="10"/>
<text x="344.79" y="1458.43">R104</text>
<circle cx="73.63" cy="526.92" r="10"/>
<text x="73.63" y="531.92">R105</text>
<circle cx="818.01" cy="1834.53" r="10"/>
<text x="818.01" y="1839.53">R106</text>
<circle cx="1368.81" cy="4.83" r="10"/>
<text x="1368.81" y="9.83">R107</text>
<circle cx="311.29" cy="1070.45" r="10"/>
<text x="311.29" y="1075.45">R108</text>
<circle cx="1060.00" cy="206.54" r="10"/>
<text x="1060.00" y="211.54">R109</text>
<circle cx="997.40" cy="1301.66" r="10"/>
<text x="997.40" y="1306.66">R110</text>
<circle cx="281.52" cy="2001.26" r="10"/>
<text x="281.52" y="2006.26">R111</text>
<circle cx="958.25" cy="44.84" r="10"/>
<text x="958.25" y="49.84">R112</text>
<circle cx="123.00" cy="269.70" r="10"/>
<text x="123.00" y="274.70">R113</text>
<circle cx="1435.32" cy="2093.01" r="10"/>
<text x="1435.32" y="2098.01">R114</text>
<circle cx="1501.53" cy="1934.55" r="10"/>
<text x="1501.53" y="1939.55">R115</text>
<circle cx="1629.08" cy="2149.05" r="10"/>
<text x="1629.08" y="2154.05">R116</text>
<circle cx="458.60" cy="142.18" r="10"/>
<text x="458.60" y="147.18">R117</text>
<circle cx="1308.25" cy="1051.53" r="10"/>
<text x="1308.25" y="1056.53">R118</text>
<circle cx="1487.52" cy="317.71" r="10"/>
<text x="1487.52" y="322.71">R119</text>
<circle cx="265.26" cy="465.16" r="10"/>
<text x="265.26" y="470.16">R120</text>
<circle cx="2077.01" cy="441.27" r="10"/>
<text x="2077.01" y="446.27">R121</text>
<circle cx="1250.55" cy="1996.04" r="10"/>
<text x="1250.55" y="2001.04">R122</text>
<circle cx="185.53" cy="2232.67" r="10"/>
<text x="185.53" y="2237.67">R123</text>
<circle cx="1337.25" cy="404.67" r="10"/>
<text x="1337.25" y="409.67">R124</text>
<circle cx="830.17" cy="406.92" r="10"/>
<text x="830.17" y="411.92">R125</text>
<circle cx="1122.40" cy="1832.14" r="10"/>
<text x="1122.40" y="1837.14">R126</text>
<circle cx="644.98" cy="703.34" r="10"/>
<text x="644.98" y="708.34">R127</text>
<circle cx="982.90" cy="1609.87" r="10"/>
<text x="982.90" y="1614.87">R128</text>
<circle cx="105.26" cy="1868.33" r="10"/>
<text x="105.26" y="1873.33">R129</text>
<circle cx="1759.54" cy="1106.52" r="10"/>
<text x="1759.54" y="1111.52">R130</text>
<circle cx="188.65" cy="132.33" r="10"/>
<text x="188.65" y="137.33">R131</text>
<circle cx="453.62" cy="1992.72" r="10"/>
<text x="453.62" y="1997.72">R132</text>
<circle cx="2000.50" cy="1984.04" r="10"/>
<text x="2000.50" y="1989.04">R133</text>
<circle cx="1451.80" cy="305.50" r="10"/>
<text x="1451.80" y="310.50">R134</text>
<circle cx="1383.52" cy="202.34" r="10"/>
<text x="1383.52" y="207.34">R135</text>
<circle cx="1846.50" cy="1183.53" r="10"/>
<text x="1846.50" y="1188.53">R136</text>
<circle cx="263.84" cy="1656.51" r="10"/>
<text x="263.84" y="1661.51">R137</text>
<circle cx="2025.96" cy="1295.04" r="10"/>
<text x="2025.96" y="1300.04">R138</text>
<circle cx="190.75" cy="580.10" r="10"/>
<text x="190.75" y="585.10">R139</text>
<circle cx="1198.99" cy="1464.41" r="10"/>
<text x="1198.99" y="1469.41">R140</text>
<circle cx="72.41" cy="1577.52" r="10"/>
<text x="72.41" y="1582.52">R141</text>
<circle cx="857.99" cy="359.01" r="10"/>
<text x="857.99" y="364.01">R142</text>
<circle cx="601.31" cy="1948.62" r="10"/>
<text x="601.31" y="1953.62">R143</text>
<circle cx="527.92" cy="1528.66" r="10"/>
<text x="527.92" y="1533.66">R144</text>
<circle cx="1981.56" cy="1703.25" r="10"/>
<text x="1981.56" y="1708.25">R145</text>
<circle cx="1057.31" cy="588.91" r="10"/>
<text x="1057.31" y="593.91">R146</text>
<circle cx="1437.45" cy="57.59" r="10"/>
<text x="1437.45" y="62.59">R147</text>
<circle cx="1719.43" cy="719.62" r="10"/>
<text x="1719.43" y="724.62">R148</text>
<circle cx="2044.62" cy="426.58" r="10"/>
<text x="2044.62" y="431.58">R149</text>
<circle cx="634.74" cy="224.89" r="10"/>
<text x="634.74" y="229.89">R150</text>
<circle cx="506.79" cy="1293.32" r="10"/>
<text x="506.79" y="1298.32">R151</text>
<circle cx="2185.75" cy="1258.20" r="10"/>
<text x="2185.75" y="1263.20">R152</text>
<circle cx="1665.24" cy="325.68" r="10"/>
<text x="1665.24" y="330.68">R153</text>
<circle cx="497.41" cy="688.27" r="10"/>
<text x="497.41" y="693.27">R154</text>
<circle cx="234.01" cy="342.31" r="10"/>
<text x="234.01" y="347.31">R155</text>
<circle cx="388.57" cy="479.71" r="10"/>
<text x="388.57" y="484.71">R156</text>
<circle cx="433.08" cy="1235.07" r="10"/>
<text x="433.08" y="1240.07">R157</text>
<circle cx="376.79" cy="768.96" r="10"/>
<text x="376.79" y="773.96">R158</text>
<circle cx="1092.29" cy="706.19" r="10"/>
<text x="1092.29" y="711.19">R159</text>
<circle cx="1461.45" cy="1568.06" r="10"/>
<text x="1461.45" y="1573.06">R160</text>
<circle cx="995.94" cy="975.18" r="10"/>
<text x="995.94" y="980.18">R161</text>
<circle cx="1209.59" cy="1114.16" r="10"/>
<text x="1209.59" y="1119.16">R162</text>
<circle cx="937.52" cy="1015.68" r="10"/>
<text x="937.52" y="1020.68">R163</text>
<circle cx="1133.09" cy="988.18" r="10"/>
<text x="1133.09" y="993.18">R164</text>
<circle cx="1415.55" cy="625.21" r="10"/>
<text x="1415.55" y="630.21">R165</text>
<circle cx="375.52" cy="2055.57" r="10"/>
<text x="375.52" y="2060.57">R166</text>
<circle cx="195.57" cy="192.59" r="10"/>
<text x="195.57" y="197.59">R167</text>
<circle cx="844.59" cy="663.02" r="10"/>
<text x="844.59" y="668.02">R168</text>
<circle cx="2166.26" cy="202.64" r="10"/>
<text x="2166.26" y="207.64">R169</text>
<circle cx="1568.55" cy="144.29" r="10"/>
<text x="1568.55" y="149.29">R170</text>
<circle cx="522.05" cy="1740.41" r="10"/>
<text x="522.05" y="1745.41">R171</text>
<circle cx="2159.61" cy="230.77" r="10"/>
<text x="2159.61" y="235.77">R172</text>
<circle cx="780.23" cy="1598.56" r="10"/>
<text x="780.23" y="1603.56">R173</text>
<circle cx="1129.58" cy="1035.61" r="10"/>
<text x="1129.58" y="1040.61">R174</text>
<circle cx="609.05" cy="330.49" r="10"/>
<text x="609.05" y="335.49">R175</text>
<circle cx="2054.44" cy="1097.93" r="10"/>
<text x="2054.44" y="1102.93">R176</text>
<circle cx="1302.16" cy="1503.57" r="10"/>
<text x="1302.16" y="1508.57">R177</text>
<circle cx="138.89" cy="2209.38" r="10"/>
<text x="138.89" y="2214.38">R178</text>
<circle cx="772.62" cy="1839.35" r="10"/>
<text x="772.62" y="1844.35">R179</text>
<circle cx="1616.78" cy="119.13" r="10"/>
<text x="1616.78" y="124.13">R180</text>
<circle cx="559.94" cy="2094.66" r="10"/>
<text x="559.94" y="2099.66">R181</text>
<circle cx="1162.42" cy="1573.29" r="10"/>
<text x="1162.42" y="1578.29">R182</text>
<circle cx="69.20" cy="662.76" r="10"/>
<text x="69.20" y="667.76">R183</text>
<circle cx="2214.25" cy="1912.99" r="10"/>
<text x="2214.25" y="1917.99">R184</text>
<circle cx="2183.25" cy="2178.94" r="10"/>
<text x="2183.25" y="2183.94">R185</text>
<circle cx="1517.22" cy="1889.94" r="10"/>
<text x="1517.22" y="1894.94">R186</text>
<circle cx="1725.60" cy="1542.37" r="10"/>
<text x="1725.60" y="1547.37">R187</text>
<circle cx="415.80" cy="1567.82" r="10"/>
<text x="415.80" y="1572.82">R188</text>
<circle cx="964.44" cy="2062.11" r="10"/>
<text x="964.44" y="2067.11">R189</text>
<circle cx="1951.54" cy="1723.76" r="10"/>
<text x="1951.54" y="1728.76">R190</text>
<circle cx="1480.58" cy="2090.69" r="10"/>
<text x="1480.58" y="2095.69">R191</text>
<circle cx="1197.75" cy="136.23" r="10"/>
<text x="1197.75" y="141.23">R192</text>
<circle cx="188.83" cy="1497.66" r="10"/>
<text x="188.83" y="1502.66">R193</text>
<circle cx="605.90" cy="1340.38" r="10"/>
<text x="605.90" y="1345.38">R194</text>
<circle cx="1073.59" cy="621.18" r="10"/>
<text x="1073.59" y="626.18">R195</text>
<circle cx="887.97" cy="784.97" r="10"/>
<text x="887.97" y="789.97">R196</text>
<circle cx="621.40" cy="726.98" r="10"/>
<text x="621.40" y="731.98">R197</text>
<circle cx="1971.36" cy="869.19" r="10"/>
<text x="1971.36" y="874.19">R198</text>
<circle cx="1186.96" cy="2118.01" r="10"/>
<text x="1186.96" y="2123.01">R199</text>
<circle cx="1818.55" cy="1357.58" r="10"/>
<text x="1818.55" y="1362.58">R200</text>
<circle cx="590.25" cy="2186.16" r="10"/>
<text x="590.25" y="2191.16">R201</text>
<circle cx="790.59" cy="764.88" r="10"/>
<text x="790.59" y="769.88">R202</text>
<circle cx="392.94" cy="372.38" r="10"/>
<text x="392.94" y="377.38">R203</text>
<circle cx="665.79" cy="223.13" r="10"/>
<text x="665.79" y="228.13">R204</text>
<circle cx="408.05" cy="340.37" r="10"/>
<text x="408.05" y="345.37">R205</text>
<circle cx="897.69" cy="2194.46" r="10"/>
<text x="897.69" y="2199.46">R206</text>
<circle cx="1939.47" cy="230.23" r="10"/>
<text x="1939.47" y="235.23">R207</text>
<circle cx="329.79" cy="1144.43" r="10"/>
<text x="329.79" y="1149.43">R208</text>
<circle cx="384.62" cy="266.00" r="10"/>
<text x="384.62" y="271.00">R209</text>
<circle cx="596.29" cy="64.16" r="10"/>
<text x="596.29" y="69.16">R210</text>
<circle cx="287.42" cy="754.30" r="10"/>
<text x="287.42" y="759.30">R211</text>
<circle cx="372.58" cy="1506.03" r="10"/>
<text x="372.58" y="1511.03">R212</text>
<circle cx="2189.58" cy="1626.49" r="10"/>
<text x="2189.58" y="1631.49">R213</text>
<circle cx="56.39" cy="1719.34" r="10"/>
<text x="56.39" y="1724.34">R214</text>
<circle cx="348.62" cy="499.33" r="10"/>
<text x="348.62" y="504.33">R215</text>
<circle cx="1608.40" cy="959.73" r="10"/>
<text x="1608.40" y="964.73">R216</text>
<circle cx="91.87" cy="957.36" r="10"/>
<text x="91.87" y="962.36">R217</text>
<circle cx="1637.41" cy="1736.95" r="10"/>
<text x="1637.41" y="1741.95">R218</text>
<circle cx="330.87" cy="803.10" r="10"/>
<text x="330.87" y="808.10">R219</text>
<circle cx="1410.40" cy="1117.64" r="10"/>
<text x="1410.40" y="1122.64">R220</text>
<circle cx="1737.28" cy="650.57" r="10"/>
<text x="1737.28" y="655.57">R221</text>
<circle cx="1321.50" cy="843.10" r="10"/>
<text x="1321.50" y="848.10">R222</text>
<circle cx="1604.18" cy="462.14" r="10"/>
<text x="1604.18" y="467.14">R223</text>
<circle cx="799.17" cy="112.68" r="10"/>
<text x="799.17" y="117.68">R224</text>
<circle cx="1664.26" cy="1044.64" r="10"/>
<text x="1664.26" y="1049.64">R225</text>
<circle cx="1778.93" cy="78.03" r="10"/>
<text x="1778.93" y="83.03">R226</text>
<circle cx="1553.16" cy="1809.61" r="10"/>
<text x="1553.16" y="1814.61">R227</text>
<circle cx="2176.42" cy="1887.93" r="10"/>
<text x="2176.42" y="1892.93">R228</text>
<circle cx="1373.85" cy="331.75" r="10"/>
<text x="1373.85" y="336.75">R229</text>
<circle cx="187.23" cy="475.00" r="10"/>
<text x="187.23" y="480.00">R230</text>
<circle cx="455.14" cy="295.61" r="10"/>
<text x="455.14" y="300.61">R231</text>
<circle cx="1088.26" cy="385.00" r="10"/>
<text x="1088.26" y="390.00">R232</text>
<circle cx="2206.20" cy="1054.71" r="10"/>
<text x="2206.20" y="1059.71">R233</text>
<circle cx="239.43" cy="1331.62" r="10"/>
<text x="239.43" y="1336.62">R234</text>
<circle cx="971.93" cy="213.78" r="10"/>
<text x="971.93" y="218.78">R235</text>
<circle cx="1646.61" cy="1492.07" r="10"/>
<text x="1646.61" y="1497.07">R236</text>
<circle cx="1319.53" cy="264.95" r="10"/>
<text x="1319.53" y="269.95">R237</text>
<circle cx="12.81" cy="925.13" r="10"/>
<text x="12.81" y="930.13">R238</text>
<circle cx="837.72" cy="2009.73" r="10"/>
<text x="837.72" y="2014.73">R239</text>
<circle cx="1554.40" cy="1367.22" r="10"/>
<text x="1554.40" y="1372.22">R240</text>
<circle cx="1094.30" cy="28.52" r="10"/>
<text x="1094.30" y="33.52">R241</text>
<circle cx="370.85" cy="1994.97" r="10"/>
<text x="370.85" y="1999.97">R242</text>
<circle cx="718.05" cy="1852.93" r="10"/>
<text x="718.05" y="1857.93">R243</text>
<circle cx="206.05" cy="40.66" r="10"/>
<text x="206.05" y="45.66">R244</text>
<circle cx="1804.73" cy="1177.52" r="10"/>
<text x="1804.73" y="1182.52">R245</text>
<circle cx="495.63" cy="1960.39" r="10"/>
<text x="495.63" y="1965.39">R246</text>
<circle cx="2222.85" cy="1428.03" r="10"/>
<text x="2222.85" y="1433.03">R247</text>
<circle cx="839.51" cy="2137.08" r="10"/>
<text x="839.51" y="2142.08">R248</text>
<circle cx="1470.41" cy="972.56" r="10"/>
<text x="1470.41" y="977.56">R249</text>
<circle cx="1603.32" cy="766.35" r="10"/>
<text x="1603.32" y="771.35">R250</text>
<circle cx="1032.99" cy="873.25" r="10"/>
<text x="1032.99" y="878.25">R251</text>
<circle cx="1335.78" cy="127.27" r="10"/>
<text x="1335.78" y="132.27">R252</text>
<circle cx="1455.34" cy="770.59" r="10"/>
<text x="1455.34" y="775.59">R253</text>
<circle cx="1594.37" cy="993.14" r="10"/>
<text x="1594.37" y="998.14">R254</text>
<circle cx="2008.34" cy="146.73" r="10"/>
<text x="2008.34" y="151.73">R255</text>
<circle cx="1142.81" cy="2147.53" r="10"/>
<text x="1142.81" y="2152.53">R256</text>
<circle cx="168.13" cy="1222.45" r="10"/>
<text x="168.13" y="1227.45">R257</text>
<circle cx="1265.53" cy="1811.61" r="10"/>
<text x="1265.53" y="1816.61">R258</text>
<circle cx="1793.72" cy="446.55" r="10"/>
<text x="1793.72" y="451.55">R259</text>
<circle cx="742.19" cy="930.37" r="10"/>
<text x="742.19" y="935.37">R260</text>
<circle cx="1720.62" cy="17.72" r="10"/>
<text x="1720.62" y="22.72">R261</text>
<circle cx="1563.03" cy="315.58" r="10"/>
<text x="1563.03" y="320.58">R262</text>
<circle cx="260.97" cy="775.69" r="10"/>
<text x="260.97" y="780.69">R263</text>
<circle cx="352.82" cy="337.32" r="10"/>
<text x="352.82" y="342.32">R264</text>
<circle cx="655.72" cy="964.03" r="10"/>
<text x="655.72" y="969.03">R265</text>
<circle cx="257.90" cy="1826.20" r="10"/>
<text x="257.90" y="1831.20">R266</text>
<circle cx="1212.79" cy="658.20" r="10"/>
<text x="1212.79" y="663.20">R267</text>
<circle cx="93.13" cy="404.03" r="10"/>
<text x="93.13" y="409.03">R268</text>
<circle cx="1518.37" cy="1043.17" r="10"/>
<text x="1518.37" y="1048.17">R269</text>
<circle cx="671.18" cy="1266.41" r="10"/>
<text x="671.18" y="1271.41">R270</text>
<circle cx="574.52" cy="128.12" r="10"/>
<text x="574.52" y="133.12">R271</text>
<circle cx="1631.22" cy="681.53" r="10"/>
<text x="1631.22" y="686.53">R272</text>
<circle cx="1853.69" cy="1958.98" r="10"/>
<text x="1853.69" y="1963.98">R273</text>
<circle cx="1131.20" cy="128.08" r="10"/>
<text x="1131.20" y="133.08">R274</text>
<circle cx="1455.29" cy="1442.72" r="10"/>
<text x="1455.29" y="1447.72">R275</text>
<circle cx="1418.13" cy="1656.46" r="10"/>
<text x="1418.13" y="1661.46">R276</text>
<circle cx="1907.35" cy="2229.08" r="10"/>
<text x="1907.35" y="2234.08">R277</text>
<circle cx="955.61" cy="1707.35" r="10"/>
<text x="955.61" y="1712.35">R278</text>
<circle cx="1397.01" cy="99.92" r="10"/>
<text x="1397.01" y="104.92">R279</text>
<circle cx="570.03" cy="2070.75" r="10"/>
<text x="570.03" y="2075.75">R280</text>
<circle cx="168.41" cy="1559.97" r="10"/>
<text x="168.41" y="1564.97">R281</text>
<circle cx="1670.69" cy="1872.62" r="10"/>
<text x="1670.69" y="1877.62">R282</text>
<circle cx="2208.96" cy="1874.11" r="10"/>
<text x="2208.96" y="1879.11">R283</text>
<circle cx="523.47" cy="840.22" r="10"/>
<text x="523.47" y="845.22">R284</text>
<circle cx="974.22" cy="346.87" r="10"/>
<text x="974.22" y="351.87">R285</text>
<circle cx="217.96" cy="282.82" r="10"/>
<text x="217.96" y="287.82">R286</text>
<circle cx="349.79" cy="1243.72" r="10"/>
<text x="349.79" y="1248.72">R287</text>
<circle cx="371.12" cy="232.05" r="10"/>
<text x="371.12" y="237.05">R288</text>
<circle cx="119.48" cy="1083.59" r="10"/>
<text x="119.48" y="1088.59">R289</text>
<circle cx="952.11" cy="190.40" r="10"/>
<text x="952.11" y="195.40">R290</text>
<circle cx="1757.19" cy="2187.69" r="10"/>
<text x="1757.19" y="2192.69">R291</text>
<circle cx="295.40" cy="1528.61" r="10"/>
<text x="295.40" y="1533.61">R292</text>
<circle cx="1610.03" cy="212.65" r="10"/>
<text x="1610.03" y="217.65">R293</text>
<circle cx="1834.94" cy="429.40" r="10"/>
<text x="1834.94" y="434.40">R294</text>
<circle cx="245.60" cy="116.64" r="10"/>
<text x="245.60" y="121.64">R295</text>
<circle cx="208.73" cy="1287.62" r="10"/>
<text x="208.73" y="1292.62">R296</text>
<circle cx="1461.84" cy="368.13" r="10"/>
<text x="1461.84" y="373.13">R297</text>
<circle cx="1373.29" cy="703.35" r="10"/>
<text x="1373.29" y="708.35">R298</text>
<circle cx="1533.52" cy="2110.67" r="10"/>
<text x="1533.52" y="2115.67">R299</text>
<circle cx="779.95" cy="579.44" r="10"/>
<text x="779.95" y="584.44">R300</text>
<circle cx="1386.76" cy="1462.14" r="10"/>
<text x="1386.76" y="1467.14">R301</text>
<circle cx="600.87" cy="1211.27" r="10"/>
<text x="600.87" y="1216.27">R302</text>
<circle cx="919.91" cy="1423.91" r="10"/>
<text x="919.91" y="1428.91">R303</text>
<circle cx="1393.17" cy="1985.12" r="10"/>
<text x="1393.17" y="1990.12">R304</text>
<circle cx="1534.29" cy="1208.90" r="10"/>
<text x="1534.29" y="1213.90">R305</text>
<circle cx="681.10" cy="2155.75" r="10"/>
<text x="681.10" y="2160.75">R306</text>
<circle cx="756.08" cy="1362.12" r="10"/>
<text x="756.08" y="1367.12">R307</text>
<circle cx="2049.37" cy="1835.60" r="10"/>
<text x="2049.37" y="1840.60">R308</text>
<circle cx="756.29" cy="2104.32" r="10"/>
<text x="756.29" y="2109.32">R309</text>
<circle cx="1644.53" cy="765.26" r="10"/>
<text x="1644.53" y="770.26">R310</text>
<circle cx="677.62" cy="5.89" r="10"/>
<text x="677.62" y="10.89">R311</text>
<circle cx="1470.18" cy="1270.00" r="10"/>
<text x="1470.18" y="1275.00">R312</text>
<circle cx="2187.66" cy="1581.88" r="10"/>
<text x="2187.66" y="1586.88">R313</text>
<circle cx="1162.62" cy="89.68" r="10"/>
<text x="1162.62" y="94.68">R314</text>
<circle cx="2059.20" cy="1713.41" r="10"/>
<text x="2059.20" y="1718.41">R315</text>
<circle cx="2128.08" cy="950.51" r="10"/>
<text x="2128.08" y="955.51">R316</text>
<circle cx="1359.09" cy="2192.86" r="10"/>
<text x="1359.09" y="2197.86">R317</text>
<circle cx="911.83" cy="1468.30" r="10"/>
<text x="911.83" y="1473.30">R318</text>
<circle cx="2121.32" cy="1114.14" r="10"/>
<text x="2121.32" y="1119.14">R319</text>
<circle cx="242.84" cy="264.64" r="10"/>
<text x="242.84" y="269.64">R320</text>
<circle cx="359.04" cy="1324.67" r="10"/>
<text x="359.04" y="1329.67">R321</text>
<circle cx="528.59" cy="1327.36" r="10"/>
<text x="528.59" y="1332.36">R322</text>
<circle cx="129.42" cy="75.54" r="10"/>
<text x="129.42" y="80.54">R323</text>
<circle cx="768.98" cy="2152.83" r="10"/>
<text x="768.98" y="2157.83">R324</text>
<circle cx="1564.98" cy="1498.96" r="10"/>
<text x="1564.98" y="1503.96">R325</text>
<circle cx="1790.07" cy="2075.00" r="10"/>
<text x="1790.07" y="2080.00">R326</text>
<circle cx="1447.99" cy="862.77" r="10"/>
<text x="1447.99" y="867.77">R327</text>
<circle cx="2014.20" cy="1670.14" r="10"/>
<text x="2014.20" y="1675.14">R328</text>
<circle cx="1224.96" cy="306.60" r="10"/>
<text x="1224.96" y="311.60">R329</text>
<circle cx="1358.20" cy="1001.40" r="10"/>
<text x="1358.20" y="1006.40">R330</text>
<circle cx="2172.43" cy="1302.83" r="10"/>
<text x="2172.43" y="1307.83">R331</text>
<circle cx="684.77" cy="1057.98" r="10"/>
<text x="684.77" y="1062.98">R332</text>
<circle cx="1655.28" cy="125.30" r="10"/>
<text x="1655.28" y="130.30">R333</text>
<circle cx="2160.23" cy="1114.35" r="10"/>
<text x="2160.23" y="1119.35">R334</text>
<circle cx="1688.18" cy="736.12" r="10"/>
<text x="1688.18" y="741.12">R335</text>
<circle cx="1695.64" cy="1190.68" r="10"/>
<text x="1695.64" y="1195.68">R336</text>
<circle cx="187.48" cy="1265.62" r="10"/>
<text x="187.48" y="1270.62">R337</text>
<circle cx="1588.13" cy="2150.35" r="10"/>
<text x="1588.13" y="2155.35">R338</text>
<circle cx="515.83" cy="139.68" r="10"/>
<text x="515.83" y="144.68">R339</text>
<circle cx="332.93" cy="879.63" r="10"/>
<text x="332.93" y="884.63">R340</text>
<circle cx="1408.57" cy="348.05" r="10"/>
<text x="1408.57" y="353.05">R341</text>
<circle cx="473.50" cy="1618.86" r="10"/>
<text x="473.50" y="1623.86">R342</text>
<circle cx="191.44" cy="1164.28" r="10"/>
<text x="191.44" y="1169.28">R343</text>
<circle cx="1669.31" cy="691.04" r="10"/>
<text x="1669.31" y="696.04">R344</text>
<circle cx="849.32" cy="1806.75" r="10"/>
<text x="849.32" y="1811.75">R345</text>
<circle cx="1296.94" cy="1565.77" r="10"/>
<text x="1296.94" y="1570.77">R346</text>
<circle cx="245.05" cy="1696.43" r="10"/>
<text x="245.05" y="1701.43">R347</text>
<circle cx="1402.62" cy="166.64" r="10"/>
<text x="1402.62" y="171.64">R348</text>
<circle cx="818.73" cy="2065.62" r="10"/>
<text x="818.73" y="2070.62">R349</text>
<circle cx="1496.59" cy="1696.71" r="10"/>
<text x="1496.59" y="1701.71">R350</text>
<circle cx="1974.27" cy="1810.42" r="10"/>
<text x="1974.27" y="1815.42">R351</text>
<circle cx="1104.84" cy="2208.93" r="10"/>
<text x="1104.84" y="2213.93">R352</text>
<circle cx="2004.82" cy="2053.16" r="10"/>
<text x="2004.82" y="2058.16">R353</text>
<circle cx="41.96" cy="78.79" r="10"/>
<text x="41.96" y="83.79">R354</text>
<circle cx="1785.12" cy="1054.65" r="10"/>
<text x="1785.12" y="1059.65">R355</text>
<circle cx="1056.98" cy="898.72" r="10"/>
<text x="1056.98" y="903.72">R356</text>
<circle cx="1861.38" cy="860.30" r="10"/>
<text x="1861.38" y="865.30">R357</text>
<circle cx="409.28" cy="1048.24" r="10"/>
<text x="409.28" y="1053.24">R358</text>
<circle cx="1314.93" cy="1443.49" r="10"/>
<text x="1314.93" y="1448.49">R359</text>
<circle cx="1110.48" cy="1335.82" r="10"/>
<text x="1110.48" y="1340.82">R360</text>
<circle cx="1576.77" cy="1341.94" r="10"/>
<text x="1576.77" y="1346.94">R361</text>
<circle cx="934.17" cy="875.10" r="10"/>
<text x="934.17" y="880.10">R362</text>
<circle cx="2031.07" cy="977.59" r="10"/>
<text x="2031.07" y="982.59">R363</text>
<circle cx="167.56" cy="1189.97" r="10"/>
<text x="167.56" y="1194.97">R364</text>
<circle cx="1610.53" cy="1192.82" r="10"/>
<text x="1610.53" y="1197.82">R365</text>
<circle cx="739.77" cy="0.18" r="10"/>
<text x="739.77" y="5.18">R366</text>
<circle cx="1356.74" cy="1627.81" r="10"/>
<text x="1356.74" y="1632.81">R367</text>
<circle cx="1975.68" cy="1946.71" r="10"/>
<text x="1975.68" y="1951.71">R368</text>
<circle cx="284.63" cy="1188.41" r="10"/>
<text x="284.63" y="1193.41">R369</text>
<circle cx="1630.50" cy="1411.33" r="10"/>
<text x="1630.50" y="1416.33">R370</text>
<circle cx="1898.72" cy="1234.43" r="10"/>
<text x="1898.72" y="1239.43">R371</text>
<circle cx="2130.53" cy="1402.08" r="10"/>
<text x="2130.53" y="1407.08">R372</text>
<circle cx="1493.43" cy="1587.91" r="10"/>
<text x="1493.43" y="1592.91">R373</text>
<circle cx="1711.65" cy="2085.03" r="10"/>
<text x="1711.65" y="2090.03">R374</text>
<circle cx="66.57" cy="618.27" r="10"/>
<text x="66.57" y="623.27">R375</text>
<circle cx="1302.03" cy="603.98" r="10"/>
<text x="1302.03" y="608.98">R376</text>
<circle cx="873.24" cy="606.87" r="10"/>
<text x="873.24" y="611.87">R377</text>
<circle cx="611.88" cy="1978.26" r="10"/>
<text x="611.88" y="1983.26">R378</text>
<circle cx="1112.84" cy="2118.70" r="10"/>
<text x="1112.84" y="2123.70">R379</text>
<circle cx="844.02" cy="150.77" r="10"/>
<text x="844.02" y="155.77">R380</text>
<circle cx="1369.24" cy="1113.22" r="10"/>
<text x="1369.24" y="1118.22">R381</text>
<circle cx="245.71" cy="297.57" r="10"/>
<text x="245.71" y="302.57">R382</text>
<circle cx="1782.88" cy="1379.39" r="10"/>
<text x="1782.88" y="1384.39">R383</text>
<circle cx="1717.42" cy="2222.92" r="10"/>
<text x="1717.42" y="2227.92">R384</text>
<circle cx="1393.46" cy="1866.81" r="10"/>
<text x="1393.46" y="1871.81">R385</text>
<circle cx="1871.60" cy="905.76" r="10"/>
<text x="1871.60" y="910.76">R386</text>
<circle cx="2005.10" cy="1768.23" r="10"/>
<text x="2005.10" y="1773.23">R387</text>
<circle cx="1843.27" cy="102.90" r="10"/>
<text x="1843.27" y="107.90">R388</text>
<circle cx="1708.78" cy="607.74" r="10"/>
<text x="1708.78" y="612.74">R389</text>
<circle cx="2029.70" cy="21.89" r="10"/>
<text x="2029.70" y="26.89">R390</text>
<circle cx="247.89" cy="1615.15" r="10"/>
<text x="247.89" y="1620.15">R391</text>
<circle cx="1889.38" cy="1189.06" r="10"/>
<text x="1889.38" y="1194.06">R392</text>
<circle cx="1936.40" cy="1648.53" r="10"/>
<text x="1936.40" y="1653.53">R393</text>
<circle cx="896.71" cy="825.86" r="10"/>
<text x="896.71" y="830.86">R394</text>
<circle cx="1884.78" cy="1156.41" r="10"/>
<text x="1884.78" y="1161.41">R395</text>
<circle cx="630.70" cy="2203.13" r="10"/>
<text x="630.70" y="2208.13">R396</text>
<circle cx="1131.30" cy="7.87" r="10"/>
<text x="1131.30" y="12.87">R397</text>
<circle cx="973.55" cy="1527.62" r="10"/>
<text x="973.55" y="1532.62">R398</text>
<circle cx="11.06" cy="2072.61" r="10"/>
<text x="11.06" y="2077.61">R399</text>
<circle cx="472.94" cy="225.22" r="10"/>
<text x="472.94" y="230.22">R400</text>
<circle cx="2123.44" cy="582.31" r="10"/>
<text x="2123.44" y="587.31">R401</text>
<circle cx="698.07" cy="499.67" r="10"/>
<text x="698.07" y="504.67">R402</text>
<circle cx="78.87" cy="1991.29" r="10"/>
<text x="78.87" y="1996.29">R403</text>
<circle cx="2121.34" cy="1279.65" r="10"/>
<text x="2121.34" y="1284.65">R404</text>
<circle cx="882.06" cy="1185.92" r="10"/>
<text x="882.06" y="1190.92">R405</text>
<circle cx="925.94" cy="1153.87" r="10"/>
<text x="925.94" y="1158.87">R406</text>
<circle cx="1155.79" cy="2113.51" r="10"/>
<text x="1155.79" y="2118.51">R407</text>
<circle cx="53.95" cy="1270.02" r="10"/>
<text x="53.95" y="1275.02">R408</text>
<circle cx="1750.81" cy="155.53" r="10"/>
<text x="1750.81" y="160.53">R409</text>
<circle cx="498.22" cy="1205.96" r="10"/>
<text x="498.22" y="1210.96">R410</text>
<circle cx="1542.16" cy="2203.62" r="10"/>
<text x="1542.16" y="2208.62">R411</text>
<circle cx="516.65" cy="934.02" r="10"/>
<text x="516.65" y="939.02">R412</text>
<circle cx="1677.45" cy="1473.06" r="10"/>
<text x="1677.45" y="1478.06">R413</text>
<circle cx="952.10" cy="1309.22" r="10"/>
<text x="952.10" y="1314.22">R414</text>
<circle cx="75.87" cy="137.68" r="10"/>
<text x="75.87" y="142.68">R415</text>
<circle cx="126.09" cy="2125.61" r="10"/>
<text x="126.09" y="2130.61">R416</text>
<circle cx="799.44" cy="1092.57" r="10"/>
<text x="799.44" y="1097.57">R417</text>
<circle cx="1383.01" cy="2112.21" r="10"/>
<text x="1383.01" y="2117.21">R418</text>
<circle cx="77.44" cy="253.22" r="10"/>
<text x="77.44" y="258.22">R419</text>
<circle cx="1839.23" cy="2093.85" r="10"/>
<text x="1839.23" y="2098.85">R420</text>
<circle cx="1293.13" cy="229.65" r="10"/>
<text x="1293.13" y="234.65">R421</text>
<circle cx="303.07" cy="1431.67" r="10"/>
<text x="303.07" y="1436.67">R422</text>
<circle cx="1501.64" cy="968.76" r="10"/>
<text x="1501.64" y="973.76">R423</text>
<circle cx="890.58" cy="1666.42" r="10"/>
<text x="890.58" y="1671.42">R424</text>
<circle cx="1480.20" cy="113.39" r="10"/>
<text x="1480.20" y="118.39">R425</text>
<circle cx="2021.22" cy="576.15" r="10"/>
<text x="2021.22" y="581.15">R426</text>
<circle cx="1757.65" cy="1597.59" r="10"/>
<text x="1757.65" y="1602.59">R427</text>
<circle cx="409.35" cy="2087.54" r="10"/>
<text x="409.35" y="2092.54">R428</text>
<circle cx="2228.42" cy="1068.16" r="10"/>
<text x="2228.42" y="1073.16">R429</text>
<circle cx="1929.39" cy="760.94" r="10"/>
<text x="1929.39" y="765.94">R430</text>
<circle cx="1997.22" cy="1647.05" r="10"/>
<text x="1997.22" y="1652.05">R431</text>
<circle cx="1556.31" cy="1149.94" r="10"/>
<text x="1556.31" y="1154.94">R432</text>
<circle cx="1878.47" cy="1410.86" r="10"/>
<text x="1878.47" y="1415.86">R433</text>
<circle cx="170.42" cy="787.11" r="10"/>
<text x="170.42" y="792.11">R434</text>
<circle cx="2086.86" cy="194.49" r="10"/>
<text x="2086.86" y="199.49">R435</text>
<circle cx="190.47" cy="1051.94" r="10"/>
<text x="190.47" y="1056.94">R436</text>
<circle cx="1619.64" cy="1615.45" r="10"/>
<text x="1619.64" y="1620.45">R437</text>
<circle cx="1179.48" cy="484.71" r="10"/>
<text x="1179.48" y="489.71">R438</text>
<circle cx="244.52" cy="736.69" r="10"/>
<text x="244.52" y="741.69">R439</text>
<circle cx="430.64" cy="695.15" r="10"/>
<text x="430.64" y="700.15">R440</text>
<circle cx="2235.08" cy="123.21" r="10"/>
<text x="2235.08" y="128.21">R441</text>
<circle cx="447.20" cy="169.79" r="10"/>
<text x="447.20" y="174.79">R442</text>
<circle cx="2073.95" cy="1369.76" r="10"/>
<text x="2073.95" y="1374.76">R443</text>
<circle cx="892.47" cy="111.22" r="10"/>
<text x="892.47" y="116.22">R444</text>
<circle cx="1756.45" cy="1624.90" r="10"/>
<text x="1756.45" y="1629.90">R445</text>
<circle cx="875.78" cy="658.59" r="10"/>
<text x="875.78" y="663.59">R446</text>
<circle cx="463.36" cy="773.63" r="10"/>
<text x="463.36" y="778.63">R447</text>
<circle cx="2188.11" cy="1449.46" r="10"/>
<text x="2188.11" y="1454.46">R448</text>
<circle cx="1084.51" cy="1577.49" r="10"/>
<text x="1084.51" y="1582.49">R449</text>
<circle cx="2180.43" cy="11.58" r="10"/>
<text x="2180.43" y="16.58">R450</text>
<circle cx="1479.25" cy="388.41" r="10"/>
<text x="1479.25" y="393.41">R451</text>
<circle cx="13.33" cy="1343.58" r="10"/>
<text x="13.33" y="1348.58">R452</text>
<circle cx="569.89" cy="408.20" r="10"/>
<text x="569.89" y="413.20">R453</text>
<circle cx="517.27" cy="268.93" r="10"/>
<text x="517.27" y="273.93">R454</text>
<circle cx="1184.64" cy="1659.20" r="10"/>
<text x="1184.64" y="1664.20">R455</text>
<circle cx="925.29" cy="1927.99" r="10"/>
<text x="925.29" y="1932.99">R456</text>
<circle cx="1639.76" cy="176.70" r="10"/>
<text x="1639.76" y="181.70">R457</text>
<circle cx="1766.95" cy="1295.08" r="10"/>
<text x="1766.95" y="1300.08">R458</text>
<circle cx="1197.49" cy="1937.58" r="10"/>
<text x="1197.49" y="1942.58">R459</text>
<circle cx="62.30" cy="840.98" r="10"/>
<text x="62.30" y="845.98">R460</text>
<circle cx="1331.58" cy="1800.66" r="10"/>
<text x="1331.58" y="1805.66">R461</text>
<circle cx="1133.43" cy="2210.75" r="10"/>
<text x="1133.43" y="2215.75">R462</text>
<circle cx="1011.12" cy="1979.21" r="10"/>
<text x="1011.12" y="1984.21">R463</text>
<circle cx="763.22" cy="527.29" r="10"/>
<text x="763.22" y="532.29">R464</text>
<circle cx="1264.02" cy="89.51" r="10"/>
<text x="1264.02" y="94.51">R465</text>
<circle cx="594.62" cy="632.53" r="10"/>
<text x="594.62" y="637.53">R466</text>
<circle cx="1468.40" cy="879.92" r="10"/>
<text x="1468.40" y="884.92">R467</text>
<circle cx="2068.50" cy="653.64" r="10"/>
<text x="2068.50" y="658.64">R468</text>
<circle cx="501.58" cy="973.89" r="10"/>
<text x="501.58" y="978.89">R469</text>
<circle cx="1325.71" cy="495.49" r="10"/>
<text x="1325.71" y="500.49">R470</text>
<circle cx="1937.27" cy="1759.32" r="10"/>
<text x="1937.27" y="1764.32">R471</text>
<circle cx="1358.01" cy="2051.95" r="10"/>
<text x="1358.01" y="2056.95">R472</text>
<circle cx="960.10" cy="1662.14" r="10"/>
<text x="960.10" y="1667.14">R473</text>
<circle cx="699.62" cy="1447.83" r="10"/>
<text x="699.62" y="1452.83">R474</text>
<circle cx="1140.68" cy="179.51" r="10"/>
<text x="1140.68" y="184.51">R475</text>
<circle cx="873.92" cy="961.58" r="10"/>
<text x="873.92" y="966.58">R476</text>
<circle cx="2231.76" cy="485.84" r="10"/>
<text x="2231.76" y="490.84">R477</text>
<circle cx="1870.80" cy="1817.32" r="10"/>
<text x="1870.80" y="1822.32">R478</text>
<circle cx="1359.17" cy="853.49" r="10"/>
<text x="1359.17" y="858.49">R479</text>
<circle cx="1890.78" cy="409.86" r="10"/>
<text x="1890.78" y="414.86">R480</text>
<circle cx="1290.45" cy="1846.11" r="10"/>
<text x="1290.45" y="1851.11">R481</text>
<circle cx="943.09" cy="1777.47" r="10"/>
<text x="943.09" y="1782.47">R482</text>
<circle cx="1217.09" cy="1736.87" r="10"/>
<text x="1217.09" y="1741.87">R483</text>
<circle cx="1646.57" cy="861.20" r="10"/>
<text x="1646.57" y="866.20">R484</text>
<circle cx="1939.41" cy="1200.74" r="10"/>
<text x="1939.41" y="1205.74">R485</text>
<circle cx="394.77" cy="97.57" r="10"/>
<text x="394.77" y="102.57">R486</text>
<circle cx="2196.21" cy="625.02" r="10"/>
<text x="2196.21" y="630.02">R487</text>
<circle cx="1857.54" cy="1233.21" r="10"/>
<text x="1857.54" y="1238.21">R488</text>
<circle cx="1535.14" cy="235.94" r="10"/>
<text x="1535.14" y="240.94">R489</text>
<circle cx="580.19" cy="2162.61" r="10"/>
<text x="580.19" y="2167.61">R490</text>
<circle cx="1184.53" cy="1776.17" r="10"/>
<text x="1184.53" y="1781.17">R491</text>
<circle cx="1374.67" cy="79.74" r="10"/>
<text x="1374.67" y="84.74">R492</text>
<circle cx="888.90" cy="2127.89" r="10"/>
<text x="888.90" y="2132.89">R493</text>
<circle cx="2015.06" cy="1893.24" r="10"/>
<text x="2015.06" y="1898.24">R494</text>
<circle cx="422.74" cy="71.75" r="10"/>
<text x="422.74" y="76.75">R495</text>
<circle cx="1100.89" cy="558.08" r="10"/>
<text x="1100.89" y="563.08">R496</text>
<circle cx="1443.30" cy="1801.08" r="10"/>
<text x="1443.30" y="1806.08">R497</text>
<circle cx="1099.97" cy="497.14" r="10"/>
<text x="1099.97" y="502.14">R498</text>
<circle cx="445.26" cy="884.22" r="10"/>
<text x="445.26" y="889.22">R499</text>
</svg>
