<svg id="topo" viewBox="-61.10 -1281.45 1346.16 1332.87" xmlns="http://www.w3.org/2000/svg">
<style>#topo path {fill: none; stroke: grey; stroke-width: 5.0000px;} #topo circle {fill: lightblue; stroke: none; stroke-width: 0.3px; vector-effect: non-scaling-stroke; r: 10.0000px;} #topo text {fill: black; stroke: none; font-size: 15.0000px; font-family: sans-serif; text-anchor:middle; transform: translateY(0.3em);} #topo path.country {fill: lightgrey; stroke: black; stroke-width: 1px; vector-effect: non-scaling-stroke; visibility: visible;} #topo path.selection {fill: none; stroke: red; stroke-width: 1px; vector-effect: non-scaling-stroke; visibility: visible;} #topo path.utilization {visibility: hidden;}</style>
<path data-id="0-91" d="M1015.66,-47.26,1049.13,-63.61"/>
<path data-id="0-138" d="M1015.66,-47.26,849.40,-69.22"/>
<path data-id="1-15" d="M583.05,-1032.72,573.62,-1211.17"/>
<path data-id="1-45" d="M583.05,-1032.72,558.45,-983.18"/>
<path data-id="1-79" d="M583.05,-1032.72,657.88,-1173.44"/>
<path data-id="1-128" d="M583.05,-1032.72,732.44,-1088.80"/>
<path data-id="1-129" d="M583.05,-1032.72,443.68,-1177.53"/>
<path data-id="2-6" d="M994.70,-896.98,1178.54,-859.27"/>
<path data-id="2-13" d="M994.70,-896.98,977.96,-840.86"/>
<path data-id="2-25" d="M994.70,-896.98,1044.15,-977.71"/>
<path data-id="2-86" d="M994.70,-896.98,892.17,-927.61"/>
<path data-id="3-6" d="M1189.71,-941.04,1178.54,-859.27"/>
<path data-id="3-25" d="M1189.71,-941.04,1044.15,-977.71"/>
<path data-id="3-31" d="M1189.71,-941.04,1137.12,-1163.35"/>
<path data-id="4-106" d="M115.14,-663.72,239.72,-613.26"/>
<path data-id="4-108" d="M115.14,-663.72,66.73,-727.00"/>
<path data-id="4-117" d="M115.14,-663.72,70.73,-475.25"/>
<path data-id="4-123" d="M115.14,-663.72,201.57,-729.51"/>
<path data-id="4-142" d="M115.14,-663.72,1.32,-530.30"/>
<path data-id="5-12" d="M217.43,-1200.41,182.18,-1103.24"/>
<path data-id="5-100" d="M217.43,-1200.41,247.54,-1203.76"/>
<path data-id="5-148" d="M217.43,-1200.41,89.50,-1139.38"/>
<path data-id="6-49" d="M1178.54,-859.27,1195.64,-832.20"/>
<path data-id="6-75" d="M1178.54,-859.27,1157.01,-811.81"/>
<path data-id="7-17" d="M810.01,-384.89,952.75,-414.59"/>
<path data-id="7-59" d="M810.01,-384.89,914.99,-513.79"/>
<path data-id="7-94" d="M810.01,-384.89,822.89,-324.45"/>
<path data-id="7-131" d="M810.01,-384.89,711.74,-393.83"/>
<path data-id="8-24" d="M87.23,-137.53,220.43,-167.79"/>
<path data-id="8-60" d="M87.23,-137.53,35.72,-236.14"/>
<path data-id="8-66" d="M87.23,-137.53,102.13,-60.80"/>
<path data-id="8-124" d="M87.23,-137.53,196.04,-222.51"/>
<path data-id="9-39" d="M299.48,-750.89,246.95,-735.20"/>
<path data-id="9-126" d="M299.48,-750.89,243.96,-844.10"/>
<path data-id="9-134" d="M299.48,-750.89,340.94,-717.14"/>
<path data-id="10-33" d="M799.87,-159.15,798.83,-49.46"/>
<path data-id="10-54" d="M799.87,-159.15,692.41,-95.70"/>
<path data-id="10-72" d="M799.87,-159.15,680.46,-124.16"/>
<path data-id="10-82" d="M799.87,-159.15,855.86,-134.62"/>
<path data-id="10-135" d="M799.87,-159.15,781.93,-209.34"/>
<path data-id="11-13" d="M1003.12,-810.60,977.96,-840.86"/>
<path data-id="11-73" d="M1003.12,-810.60,935.60,-784.31"/>
<path data-id="11-75" d="M1003.12,-810.60,1157.01,-811.81"/>
<path data-id="11-114" d="M1003.12,-810.60,1006.31,-751.86"/>
<path data-id="12-22" d="M182.18,-1103.24,227.52,-1095.95"/>
<path data-id="12-109" d="M182.18,-1103.24,65.16,-974.96"/>
<path data-id="12-148" d="M182.18,-1103.24,89.50,-1139.38"/>
<path data-id="13-35" d="M977.96,-840.86,881.57,-839.19"/>
<path data-id="13-73" d="M977.96,-840.86,935.60,-784.31"/>
<path data-id="14-50" d="M1060.00,-219.22,1044.27,-127.81"/>
<path data-id="14-94" d="M1060.00,-219.22,822.89,-324.45"/>
<path data-id="14-147" d="M1060.00,-219.22,1111.27,-286.37"/>
<path data-id="15-79" d="M573.62,-1211.17,657.88,-1173.44"/>
<path data-id="15-120" d="M573.62,-1211.17,455.16,-1217.62"/>
<path data-id="16-29" d="M285.92,-554.03,326.46,-660.79"/>
<path data-id="16-87" d="M285.92,-554.03,170.04,-403.55"/>
<path data-id="16-106" d="M285.92,-554.03,239.72,-613.26"/>
<path data-id="16-137" d="M285.92,-554.03,371.28,-494.40"/>
<path data-id="17-59" d="M952.75,-414.59,914.99,-513.79"/>
<path data-id="17-94" d="M952.75,-414.59,822.89,-324.45"/>
<path data-id="17-119" d="M952.75,-414.59,1045.70,-425.94"/>
<path data-id="18-93" d="M1164.73,-254.43,1208.63,-90.93"/>
<path data-id="18-140" d="M1164.73,-254.43,1212.44,-299.36"/>
<path data-id="18-147" d="M1164.73,-254.43,1111.27,-286.37"/>
<path data-id="19-21" d="M421.23,-705.49,415.88,-748.50"/>
<path data-id="19-40" d="M421.23,-705.49,546.91,-684.56"/>
<path data-id="19-92" d="M421.23,-705.49,524.40,-590.05"/>
<path data-id="19-134" d="M421.23,-705.49,340.94,-717.14"/>
<path data-id="20-84" d="M866.46,-1210.63,1070.52,-1210.79"/>
<path data-id="20-89" d="M866.46,-1210.63,1056.31,-1100.10"/>
<path data-id="20-105" d="M866.46,-1210.63,782.86,-1156.65"/>
<path data-id="21-51" d="M415.88,-748.50,424.36,-820.54"/>
<path data-id="21-134" d="M415.88,-748.50,340.94,-717.14"/>
<path data-id="22-69" d="M227.52,-1095.95,264.14,-1130.47"/>
<path data-id="22-78" d="M227.52,-1095.95,269.18,-1031.49"/>
<path data-id="23-63" d="M942.10,-711.11,944.91,-669.88"/>
<path data-id="23-73" d="M942.10,-711.11,935.60,-784.31"/>
<path data-id="23-114" d="M942.10,-711.11,1006.31,-751.86"/>
<path data-id="24-65" d="M220.43,-167.79,391.66,-96.23"/>
<path data-id="24-124" d="M220.43,-167.79,196.04,-222.51"/>
<path data-id="24-127" d="M220.43,-167.79,149.59,-36.38"/>
<path data-id="25-81" d="M1044.15,-977.71,1042.85,-1022.77"/>
<path data-id="26-81" d="M868.91,-1017.63,1042.85,-1022.77"/>
<path data-id="26-96" d="M868.91,-1017.63,894.78,-957.09"/>
<path data-id="26-105" d="M868.91,-1017.63,782.86,-1156.65"/>
<path data-id="26-128" d="M868.91,-1017.63,732.44,-1088.80"/>
<path data-id="27-38" d="M270.35,-292.75,348.23,-349.61"/>
<path data-id="27-112" d="M270.35,-292.75,242.76,-294.55"/>
<path data-id="28-98" d="M1197.60,-529.81,1223.87,-453.06"/>
<path data-id="28-125" d="M1197.60,-529.81,1137.28,-614.40"/>
<path data-id="28-144" d="M1197.60,-529.81,1130.61,-512.67"/>
<path data-id="29-106" d="M326.46,-660.79,239.72,-613.26"/>
<path data-id="29-134" d="M326.46,-660.79,340.94,-717.14"/>
<path data-id="30-37" d="M88.26,-281.16,209.00,-294.13"/>
<path data-id="30-60" d="M88.26,-281.16,35.72,-236.14"/>
<path data-id="30-113" d="M88.26,-281.16,61.68,-358.58"/>
<path data-id="30-124" d="M88.26,-281.16,196.04,-222.51"/>
<path data-id="31-104" d="M1137.12,-1163.35,1108.35,-1168.25"/>
<path data-id="32-57" d="M185.52,-868.92,49.95,-792.03"/>
<path data-id="32-70" d="M185.52,-868.92,253.97,-883.86"/>
<path data-id="32-109" d="M185.52,-868.92,65.16,-974.96"/>
<path data-id="32-126" d="M185.52,-868.92,243.96,-844.10"/>
<path data-id="33-54" d="M798.83,-49.46,692.41,-95.70"/>
<path data-id="33-138" d="M798.83,-49.46,849.40,-69.22"/>
<path data-id="34-41" d="M264.49,-997.77,319.06,-917.84"/>
<path data-id="34-70" d="M264.49,-997.77,253.97,-883.86"/>
<path data-id="34-78" d="M264.49,-997.77,269.18,-1031.49"/>
<path data-id="34-109" d="M264.49,-997.77,65.16,-974.96"/>
<path data-id="35-68" d="M881.57,-839.19,802.40,-781.96"/>
<path data-id="35-73" d="M881.57,-839.19,935.60,-784.31"/>
<path data-id="35-86" d="M881.57,-839.19,892.17,-927.61"/>
<path data-id="36-68" d="M746.89,-595.21,802.40,-781.96"/>
<path data-id="36-145" d="M746.89,-595.21,870.32,-573.98"/>
<path data-id="36-146" d="M746.89,-595.21,695.54,-544.60"/>
<path data-id="37-87" d="M209.00,-294.13,170.04,-403.55"/>
<path data-id="37-112" d="M209.00,-294.13,242.76,-294.55"/>
<path data-id="37-124" d="M209.00,-294.13,196.04,-222.51"/>
<path data-id="38-64" d="M348.23,-349.61,385.27,-356.52"/>
<path data-id="39-106" d="M246.95,-735.20,239.72,-613.26"/>
<path data-id="39-123" d="M246.95,-735.20,201.57,-729.51"/>
<path data-id="39-126" d="M246.95,-735.20,243.96,-844.10"/>
<path data-id="40-47" d="M546.91,-684.56,608.42,-828.43"/>
<path data-id="40-92" d="M546.91,-684.56,524.40,-590.05"/>
<path data-id="41-70" d="M319.06,-917.84,253.97,-883.86"/>
<path data-id="41-118" d="M319.06,-917.84,362.69,-936.09"/>
<path data-id="42-59" d="M992.80,-567.53,914.99,-513.79"/>
<path data-id="42-62" d="M992.80,-567.53,1060.69,-572.16"/>
<path data-id="42-74" d="M992.80,-567.53,1006.37,-605.10"/>
<path data-id="42-119" d="M992.80,-567.53,1045.70,-425.94"/>
<path data-id="43-75" d="M1147.49,-740.86,1157.01,-811.81"/>
<path data-id="43-114" d="M1147.49,-740.86,1006.31,-751.86"/>
<path data-id="43-125" d="M1147.49,-740.86,1137.28,-614.40"/>
<path data-id="44-77" d="M791.39,-305.77,745.47,-274.89"/>
<path data-id="44-94" d="M791.39,-305.77,822.89,-324.45"/>
<path data-id="44-131" d="M791.39,-305.77,711.74,-393.83"/>
<path data-id="45-55" d="M558.45,-983.18,461.25,-989.36"/>
<path data-id="45-149" d="M558.45,-983.18,593.81,-904.27"/>
<path data-id="46-65" d="M416.49,-115.25,391.66,-96.23"/>
<path data-id="46-132" d="M416.49,-115.25,457.51,-211.59"/>
<path data-id="47-51" d="M608.42,-828.43,424.36,-820.54"/>
<path data-id="47-68" d="M608.42,-828.43,802.40,-781.96"/>
<path data-id="47-149" d="M608.42,-828.43,593.81,-904.27"/>
<path data-id="48-54" d="M670.10,-54.47,692.41,-95.70"/>
<path data-id="49-75" d="M1195.64,-832.20,1157.01,-811.81"/>
<path data-id="50-82" d="M1044.27,-127.81,855.86,-134.62"/>
<path data-id="50-91" d="M1044.27,-127.81,1049.13,-63.61"/>
<path data-id="50-93" d="M1044.27,-127.81,1208.63,-90.93"/>
<path data-id="51-118" d="M424.36,-820.54,362.69,-936.09"/>
<path data-id="51-149" d="M424.36,-820.54,593.81,-904.27"/>
<path data-id="52-77" d="M668.23,-248.68,745.47,-274.89"/>
<path data-id="52-95" d="M668.23,-248.68,660.32,-187.72"/>
<path data-id="52-99" d="M668.23,-248.68,640.04,-320.82"/>
<path data-id="53-92" d="M546.83,-500.00,524.40,-590.05"/>
<path data-id="53-107" d="M546.83,-500.00,539.26,-444.32"/>
<path data-id="53-110" d="M546.83,-500.00,478.55,-507.74"/>
<path data-id="53-146" d="M546.83,-500.00,695.54,-544.60"/>
<path data-id="54-72" d="M692.41,-95.70,680.46,-124.16"/>
<path data-id="55-97" d="M461.25,-989.36,407.09,-964.06"/>
<path data-id="55-129" d="M461.25,-989.36,443.68,-1177.53"/>
<path data-id="56-102" d="M1077.61,-439.29,1125.63,-368.77"/>
<path data-id="56-119" d="M1077.61,-439.29,1045.70,-425.94"/>
<path data-id="56-139" d="M1077.61,-439.29,1100.12,-359.57"/>
<path data-id="56-144" d="M1077.61,-439.29,1130.61,-512.67"/>
<path data-id="57-101" d="M49.95,-792.03,22.67,-962.75"/>
<path data-id="57-108" d="M49.95,-792.03,66.73,-727.00"/>
<path data-id="58-95" d="M504.36,-192.09,660.32,-187.72"/>
<path data-id="58-132" d="M504.36,-192.09,457.51,-211.59"/>
<path data-id="58-133" d="M504.36,-192.09,500.52,-297.20"/>
<path data-id="59-145" d="M914.99,-513.79,870.32,-573.98"/>
<path data-id="61-115" d="M23.24,-1220.87,0.09,-1206.56"/>
<path data-id="61-148" d="M23.24,-1220.87,89.50,-1139.38"/>
<path data-id="62-74" d="M1060.69,-572.16,1006.37,-605.10"/>
<path data-id="62-125" d="M1060.69,-572.16,1137.28,-614.40"/>
<path data-id="62-144" d="M1060.69,-572.16,1130.61,-512.67"/>
<path data-id="63-74" d="M944.91,-669.88,1006.37,-605.10"/>
<path data-id="63-145" d="M944.91,-669.88,870.32,-573.98"/>
<path data-id="64-80" d="M385.27,-356.52,468.82,-369.64"/>
<path data-id="64-88" d="M385.27,-356.52,377.58,-432.02"/>
<path data-id="66-67" d="M102.13,-60.80,98.19,-9.17"/>
<path data-id="66-127" d="M102.13,-60.80,149.59,-36.38"/>
<path data-id="67-127" d="M98.19,-9.17,149.59,-36.38"/>
<path data-id="69-121" d="M264.14,-1130.47,259.14,-1167.57"/>
<path data-id="69-141" d="M264.14,-1130.47,301.53,-1118.38"/>
<path data-id="70-126" d="M253.97,-883.86,243.96,-844.10"/>
<path data-id="71-85" d="M665.99,-418.12,590.69,-406.15"/>
<path data-id="71-90" d="M665.99,-418.12,666.46,-356.32"/>
<path data-id="71-111" d="M665.99,-418.12,713.59,-468.97"/>
<path data-id="71-131" d="M665.99,-418.12,711.74,-393.83"/>
<path data-id="72-95" d="M680.46,-124.16,660.32,-187.72"/>
<path data-id="72-135" d="M680.46,-124.16,781.93,-209.34"/>
<path data-id="73-114" d="M935.60,-784.31,1006.31,-751.86"/>
<path data-id="76-80" d="M479.05,-451.15,468.82,-369.64"/>
<path data-id="76-88" d="M479.05,-451.15,377.58,-432.02"/>
<path data-id="76-107" d="M479.05,-451.15,539.26,-444.32"/>
<path data-id="76-110" d="M479.05,-451.15,478.55,-507.74"/>
<path data-id="76-137" d="M479.05,-451.15,371.28,-494.40"/>
<path data-id="77-90" d="M745.47,-274.89,666.46,-356.32"/>
<path data-id="77-131" d="M745.47,-274.89,711.74,-393.83"/>
<path data-id="77-135" d="M745.47,-274.89,781.93,-209.34"/>
<path data-id="78-141" d="M269.18,-1031.49,301.53,-1118.38"/>
<path data-id="79-128" d="M657.88,-1173.44,732.44,-1088.80"/>
<path data-id="79-143" d="M657.88,-1173.44,749.27,-1201.51"/>
<path data-id="80-88" d="M468.82,-369.64,377.58,-432.02"/>
<path data-id="80-133" d="M468.82,-369.64,500.52,-297.20"/>
<path data-id="80-136" d="M468.82,-369.64,535.76,-322.44"/>
<path data-id="81-89" d="M1042.85,-1022.77,1056.31,-1100.10"/>
<path data-id="82-138" d="M855.86,-134.62,849.40,-69.22"/>
<path data-id="83-91" d="M1214.33,-12.60,1049.13,-63.61"/>
<path data-id="83-93" d="M1214.33,-12.60,1208.63,-90.93"/>
<path data-id="84-104" d="M1070.52,-1210.79,1108.35,-1168.25"/>
<path data-id="85-90" d="M590.69,-406.15,666.46,-356.32"/>
<path data-id="85-99" d="M590.69,-406.15,640.04,-320.82"/>
<path data-id="85-122" d="M590.69,-406.15,571.61,-434.60"/>
<path data-id="85-136" d="M590.69,-406.15,535.76,-322.44"/>
<path data-id="86-96" d="M892.17,-927.61,894.78,-957.09"/>
<path data-id="87-113" d="M170.04,-403.55,61.68,-358.58"/>
<path data-id="87-117" d="M170.04,-403.55,70.73,-475.25"/>
<path data-id="88-137" d="M377.58,-432.02,371.28,-494.40"/>
<path data-id="89-104" d="M1056.31,-1100.10,1108.35,-1168.25"/>
<path data-id="90-99" d="M666.46,-356.32,640.04,-320.82"/>
<path data-id="90-131" d="M666.46,-356.32,711.74,-393.83"/>
<path data-id="91-93" d="M1049.13,-63.61,1208.63,-90.93"/>
<path data-id="92-110" d="M524.40,-590.05,478.55,-507.74"/>
<path data-id="92-146" d="M524.40,-590.05,695.54,-544.60"/>
<path data-id="95-135" d="M660.32,-187.72,781.93,-209.34"/>
<path data-id="97-118" d="M407.09,-964.06,362.69,-936.09"/>
<path data-id="98-116" d="M1223.87,-453.06,1167.54,-364.76"/>
<path data-id="99-136" d="M640.04,-320.82,535.76,-322.44"/>
<path data-id="100-121" d="M247.54,-1203.76,259.14,-1167.57"/>
<path data-id="101-103" d="M22.67,-962.75,8.31,-1127.42"/>
<path data-id="101-109" d="M22.67,-962.75,65.16,-974.96"/>
<path data-id="102-116" d="M1125.63,-368.77,1167.54,-364.76"/>
<path data-id="102-139" d="M1125.63,-368.77,1100.12,-359.57"/>
<path data-id="103-109" d="M8.31,-1127.42,65.16,-974.96"/>
<path data-id="103-115" d="M8.31,-1127.42,0.09,-1206.56"/>
<path data-id="103-148" d="M8.31,-1127.42,89.50,-1139.38"/>
<path data-id="105-128" d="M782.86,-1156.65,732.44,-1088.80"/>
<path data-id="105-143" d="M782.86,-1156.65,749.27,-1201.51"/>
<path data-id="106-117" d="M239.72,-613.26,70.73,-475.25"/>
<path data-id="106-123" d="M239.72,-613.26,201.57,-729.51"/>
<path data-id="107-122" d="M539.26,-444.32,571.61,-434.60"/>
<path data-id="109-148" d="M65.16,-974.96,89.50,-1139.38"/>
<path data-id="110-137" d="M478.55,-507.74,371.28,-494.40"/>
<path data-id="111-131" d="M713.59,-468.97,711.74,-393.83"/>
<path data-id="111-146" d="M713.59,-468.97,695.54,-544.60"/>
<path data-id="113-117" d="M61.68,-358.58,70.73,-475.25"/>
<path data-id="113-130" d="M61.68,-358.58,6.77,-449.49"/>
<path data-id="114-125" d="M1006.31,-751.86,1137.28,-614.40"/>
<path data-id="116-140" d="M1167.54,-364.76,1212.44,-299.36"/>
<path data-id="117-130" d="M70.73,-475.25,6.77,-449.49"/>
<path data-id="117-142" d="M70.73,-475.25,1.32,-530.30"/>
<path data-id="119-139" d="M1045.70,-425.94,1100.12,-359.57"/>
<path data-id="120-129" d="M455.16,-1217.62,443.68,-1177.53"/>
<path data-id="125-144" d="M1137.28,-614.40,1130.61,-512.67"/>
<path data-id="129-141" d="M443.68,-1177.53,301.53,-1118.38"/>
<path data-id="130-142" d="M6.77,-449.49,1.32,-530.30"/>
<path data-id="132-133" d="M457.51,-211.59,500.52,-297.20"/>
<path data-id="133-136" d="M500.52,-297.20,535.76,-322.44"/>
<path data-id="139-147" d="M1100.12,-359.57,1111.27,-286.37"/>
<circle data-id="0" cx="1015.66" cy="-47.26" r="10.00px"/>
<text data-id="0" x="1015.66" y="-47.26">R0</text>
<circle data-id="1" cx="583.05" cy="-1032.72" r="10.00px"/>
<text data-id="1" x="583.05" y="-1032.72">R1</text>
<circle data-id="2" cx="994.70" cy="-896.98" r="10.00px"/>
<text data-id="2" x="994.70" y="-896.98">R2</text>
<circle data-id="3" cx="1189.71" cy="-941.04" r="10.00px"/>
<text data-id="3" x="1189.71" y="-941.04">R3</text>
<circle data-id="4" cx="115.14" cy="-663.72" r="10.00px"/>
<text data-id="4" x="115.14" y="-663.72">R4</text>
<circle data-id="5" cx="217.43" cy="-1200.41" r="10.00px"/>
<text data-id="5" x="217.43" y="-1200.41">R5</text>
<circle data-id="6" cx="1178.54" cy="-859.27" r="10.00px"/>
<text data-id="6" x="1178.54" y="-859.27">R6</text>
<circle data-id="7" cx="810.01" cy="-384.89" r="10.00px"/>
<text data-id="7" x="810.01" y="-384.89">R7</text>
<circle data-id="8" cx="87.23" cy="-137.53" r="10.00px"/>
<text data-id="8" x="87.23" y="-137.53">R8</text>
<circle data-id="9" cx="299.48" cy="-750.89" r="10.00px"/>
<text data-id="9" x="299.48" y="-750.89">R9</text>
<circle data-id="10" cx="799.87" cy="-159.15" r="10.00px"/>
<text data-id="10" x="799.87" y="-159.15">R10</text>
<circle data-id="11" cx="1003.12" cy="-810.60" r="10.00px"/>
<text data-id="11" x="1003.12" y="-810.60">R11</text>
<circle data-id="12" cx="182.18" cy="-1103.24" r="10.00px"/>
<text data-id="12" x="182.18" y="-1103.24">R12</text>
<circle data-id="13" cx="977.96" cy="-840.86" r="10.00px"/>
<text data-id="13" x="977.96" y="-840.86">R13</text>
<circle data-id="14" cx="1060.00" cy="-219.22" r="10.00px"/>
<text data-id="14" x="1060.00" y="-219.22">R14</text>
<circle data-id="15" cx="573.62" cy="-1211.17" r="10.00px"/>
<text data-id="15" x="573.62" y="-1211.17">R15</text>
<circle data-id="16" cx="285.92" cy="-554.03" r="10.00px"/>
<text data-id="16" x="285.92" y="-554.03">R16</text>
<circle data-id="17" cx="952.75" cy="-414.59" r="10.00px"/>
<text data-id="17" x="952.75" y="-414.59">R17</text>
<circle data-id="18" cx="1164.73" cy="-254.43" r="10.00px"/>
<text data-id="18" x="1164.73" y="-254.43">R18</text>
<circle data-id="19" cx="421.23" cy="-705.49" r="10.00px"/>
<text data-id="19" x="421.23" y="-705.49">R19</text>
<circle data-id="20" cx="866.46" cy="-1210.63" r="10.00px"/>
<text data-id="20" x="866.46" y="-1210.63">R20</text>
<circle data-id="21" cx="415.88" cy="-748.50" r="10.00px"/>
<text data-id="21" x="415.88" y="-748.50">R21</text>
<circle data-id="22" cx="227.52" cy="-1095.95" r="10.00px"/>
<text data-id="22" x="227.52" y="-1095.95">R22</text>
<circle data-id="23" cx="942.10" cy="-711.11" r="10.00px"/>
<text data-id="23" x="942.10" y="-711.11">R23</text>
<circle data-id="24" cx="220.43" cy="-167.79" r="10.00px"/>
<text data-id="24" x="220.43" y="-167.79">R24</text>
<circle data-id="25" cx="1044.15" cy="-977.71" r="10.00px"/>
<text data-id="25" x="1044.15" y="-977.71">R25</text>
<circle data-id="26" cx="868.91" cy="-1017.63" r="10.00px"/>
<text data-id="26" x="868.91" y="-1017.63">R26</text>
<circle data-id="27" cx="270.35" cy="-292.75" r="10.00px"/>
<text data-id="27" x="270.35" y="-292.75">R27</text>
<circle data-id="28" cx="1197.60" cy="-529.81" r="10.00px"/>
<text data-id="28" x="1197.60" y="-529.81">R28</text>
<circle data-id="29" cx="326.46" cy="-660.79" r="10.00px"/>
<text data-id="29" x="326.46" y="-660.79">R29</text>
<circle data-id="30" cx="88.26" cy="-281.16" r="10.00px"/>
<text data-id="30" x="88.26" y="-281.16">R30</text>
<circle data-id="31" cx="1137.12" cy="-1163.35" r="10.00px"/>
<text data-id="31" x="1137.12" y="-1163.35">R31</text>
<circle data-id="32" cx="185.52" cy="-868.92" r="10.00px"/>
<text data-id="32" x="185.52" y="-868.92">R32</text>
<circle data-id="33" cx="798.83" cy="-49.46" r="10.00px"/>
<text data-id="33" x="798.83" y="-49.46">R33</text>
<circle data-id="34" cx="264.49" cy="-997.77" r="10.00px"/>
<text data-id="34" x="264.49" y="-997.77">R34</text>
<circle data-id="35" cx="881.57" cy="-839.19" r="10.00px"/>
<text data-id="35" x="881.57" y="-839.19">R35</text>
<circle data-id="36" cx="746.89" cy="-595.21" r="10.00px"/>
<text data-id="36" x="746.89" y="-595.21">R36</text>
<circle data-id="37" cx="209.00" cy="-294.13" r="10.00px"/>
<text data-id="37" x="209.00" y="-294.13">R37</text>
<circle data-id="38" cx="348.23" cy="-349.61" r="10.00px"/>
<text data-id="38" x="348.23" y="-349.61">R38</text>
<circle data-id="39" cx="246.95" cy="-735.20" r="10.00px"/>
<text data-id="39" x="246.95" y="-735.20">R39</text>
<circle data-id="40" cx="546.91" cy="-684.56" r="10.00px"/>
<text data-id="40" x="546.91" y="-684.56">R40</text>
<circle data-id="41" cx="319.06" cy="-917.84" r="10.00px"/>
<text data-id="41" x="319.06" y="-917.84">R41</text>
<circle data-id="42" cx="992.80" cy="-567.53" r="10.00px"/>
<text data-id="42" x="992.80" y="-567.53">R42</text>
<circle data-id="43" cx="1147.49" cy="-740.86" r="10.00px"/>
<text data-id="43" x="1147.49" y="-740.86">R43</text>
<circle data-id="44" cx="791.39" cy="-305.77" r="10.00px"/>
<text data-id="44" x="791.39" y="-305.77">R44</text>
<circle data-id="45" cx="558.45" cy="-983.18" r="10.00px"/>
<text data-id="45" x="558.45" y="-983.18">R45</text>
<circle data-id="46" cx="416.49" cy="-115.25" r="10.00px"/>
<text data-id="46" x="416.49" y="-115.25">R46</text>
<circle data-id="47" cx="608.42" cy="-828.43" r="10.00px"/>
<text data-id="47" x="608.42" y="-828.43">R47</text>
<circle data-id="48" cx="670.10" cy="-54.47" r="10.00px"/>
<text data-id="48" x="670.10" y="-54.47">R48</text>
<circle data-id="49" cx="1195.64" cy="-832.20" r="10.00px"/>
<text data-id="49" x="1195.64" y="-832.20">R49</text>
<circle data-id="50" cx="1044.27" cy="-127.81" r="10.00px"/>
<text data-id="50" x="1044.27" y="-127.81">R50</text>
<circle data-id="51" cx="424.36" cy="-820.54" r="10.00px"/>
<text data-id="51" x="424.36" y="-820.54">R51</text>
<circle data-id="52" cx="668.23" cy="-248.68" r="10.00px"/>
<text data-id="52" x="668.23" y="-248.68">R52</text>
<circle data-id="53" cx="546.83" cy="-500.00" r="10.00px"/>
<text data-id="53" x="546.83" y="-500.00">R53</text>
<circle data-id="54" cx="692.41" cy="-95.70" r="10.00px"/>
<text data-id="54" x="692.41" y="-95.70">R54</text>
<circle data-id="55" cx="461.25" cy="-989.36" r="10.00px"/>
<text data-id="55" x="461.25" y="-989.36">R55</text>
<circle data-id="56" cx="1077.61" cy="-439.29" r="10.00px"/>
<text data-id="56" x="1077.61" y="-439.29">R56</text>
<circle data-id="57" cx="49.95" cy="-792.03" r="10.00px"/>
<text data-id="57" x="49.95" y="-792.03">R57</text>
<circle data-id="58" cx="504.36" cy="-192.09" r="10.00px"/>
<text data-id="58" x="504.36" y="-192.09">R58</text>
<circle data-id="59" cx="914.99" cy="-513.79" r="10.00px"/>
<text data-id="59" x="914.99" y="-513.79">R59</text>
<circle data-id="60" cx="35.72" cy="-236.14" r="10.00px"/>
<text data-id="60" x="35.72" y="-236.14">R60</text>
<circle data-id="61" cx="23.24" cy="-1220.87" r="10.00px"/>
<text data-id="61" x="23.24" y="-1220.87">R61</text>
<circle data-id="62" cx="1060.69" cy="-572.16" r="10.00px"/>
<text data-id="62" x="1060.69" y="-572.16">R62</text>
<circle data-id="63" cx="944.91" cy="-669.88" r="10.00px"/>
<text data-id="63" x="944.91" y="-669.88">R63</text>
<circle data-id="64" cx="385.27" cy="-356.52" r="10.00px"/>
<text data-id="64" x="385.27" y="-356.52">R64</text>
<circle data-id="65" cx="391.66" cy="-96.23" r="10.00px"/>
<text data-id="65" x="391.66" y="-96.23">R65</text>
<circle data-id="66" cx="102.13" cy="-60.80" r="10.00px"/>
<text data-id="66" x="102.13" y="-60.80">R66</text>
<circle data-id="67" cx="98.19" cy="-9.17" r="10.00px"/>
<text data-id="67" x="98.19" y="-9.17">R67</text>
<circle data-id="68" cx="802.40" cy="-781.96" r="10.00px"/>
<text data-id="68" x="802.40" y="-781.96">R68</text>
<circle data-id="69" cx="264.14" cy="-1130.47" r="10.00px"/>
<text data-id="69" x="264.14" y="-1130.47">R69</text>
<circle data-id="70" cx="253.97" cy="-883.86" r="10.00px"/>
<text data-id="70" x="253.97" y="-883.86">R70</text>
<circle data-id="71" cx="665.99" cy="-418.12" r="10.00px"/>
<text data-id="71" x="665.99" y="-418.12">R71</text>
<circle data-id="72" cx="680.46" cy="-124.16" r="10.00px"/>
<text data-id="72" x="680.46" y="-124.16">R72</text>
<circle data-id="73" cx="935.60" cy="-784.31" r="10.00px"/>
<text data-id="73" x="935.60" y="-784.31">R73</text>
<circle data-id="74" cx="1006.37" cy="-605.10" r="10.00px"/>
<text data-id="74" x="1006.37" y="-605.10">R74</text>
<circle data-id="75" cx="1157.01" cy="-811.81" r="10.00px"/>
<text data-id="75" x="1157.01" y="-811.81">R75</text>
<circle data-id="76" cx="479.05" cy="-451.15" r="10.00px"/>
<text data-id="76" x="479.05" y="-451.15">R76</text>
<circle data-id="77" cx="745.47" cy="-274.89" r="10.00px"/>
<text data-id="77" x="745.47" y="-274.89">R77</text>
<circle data-id="78" cx="269.18" cy="-1031.49" r="10.00px"/>
<text data-id="78" x="269.18" y="-1031.49">R78</text>
<circle data-id="79" cx="657.88" cy="-1173.44" r="10.00px"/>
<text data-id="79" x="657.88" y="-1173.44">R79</text>
<circle data-id="80" cx="468.82" cy="-369.64" r="10.00px"/>
<text data-id="80" x="468.82" y="-369.64">R80</text>
<circle data-id="81" cx="1042.85" cy="-1022.77" r="10.00px"/>
<text data-id="81" x="1042.85" y="-1022.77">R81</text>
<circle data-id="82" cx="855.86" cy="-134.62" r="10.00px"/>
<text data-id="82" x="855.86" y="-134.62">R82</text>
<circle data-id="83" cx="1214.33" cy="-12.60" r="10.00px"/>
<text data-id="83" x="1214.33" y="-12.60">R83</text>
<circle data-id="84" cx="1070.52" cy="-1210.79" r="10.00px"/>
<text data-id="84" x="1070.52" y="-1210.79">R84</text>
<circle data-id="85" cx="590.69" cy="-406.15" r="10.00px"/>
<text data-id="85" x="590.69" y="-406.15">R85</text>
<circle data-id="86" cx="892.17" cy="-927.61" r="10.00px"/>
<text data-id="86" x="892.17" y="-927.61">R86</text>
<circle data-id="87" cx="170.04" cy="-403.55" r="10.00px"/>
<text data-id="87" x="170.04" y="-403.55">R87</text>
<circle data-id="88" cx="377.58" cy="-432.02" r="10.00px"/>
<text data-id="88" x="377.58" y="-432.02">R88</text>
<circle data-id="89" cx="1056.31" cy="-1100.10" r="10.00px"/>
<text data-id="89" x="1056.31" y="-1100.10">R89</text>
<circle data-id="90" cx="666.46" cy="-356.32" r="10.00px"/>
<text data-id="90" x="666.46" y="-356.32">R90</text>
<circle data-id="91" cx="1049.13" cy="-63.61" r="10.00px"/>
<text data-id="91" x="1049.13" y="-63.61">R91</text>
<circle data-id="92" cx="524.40" cy="-590.05" r="10.00px"/>
<text data-id="92" x="524.40" y="-590.05">R92</text>
<circle data-id="93" cx="1208.63" cy="-90.93" r="10.00px"/>
<text data-id="93" x="1208.63" y="-90.93">R93</text>
<circle data-id="94" cx="822.89" cy="-324.45" r="10.00px"/>
<text data-id="94" x="822.89" y="-324.45">R94</text>
<circle data-id="95" cx="660.32" cy="-187.72" r="10.00px"/>
<text data-id="95" x="660.32" y="-187.72">R95</text>
<circle data-id="96" cx="894.78" cy="-957.09" r="10.00px"/>
<text data-id="96" x="894.78" y="-957.09">R96</text>
<circle data-id="97" cx="407.09" cy="-964.06" r="10.00px"/>
<text data-id="97" x="407.09" y="-964.06">R97</text>
<circle data-id="98" cx="1223.87" cy="-453.06" r="10.00px"/>
<text data-id="98" x="1223.87" y="-453.06">R98</text>
<circle data-id="99" cx="640.04" cy="-320.82" r="10.00px"/>
<text data-id="99" x="640.04" y="-320.82">R99</text>
<circle data-id="100" cx="247.54" cy="-1203.76" r="10.00px"/>
<text data-id="100" x="247.54" y="-1203.76">R100</text>
<circle data-id="101" cx="22.67" cy="-962.75" r="10.00px"/>
<text data-id="101" x="22.67" y="-962.75">R101</text>
<circle data-id="102" cx="1125.63" cy="-368.77" r="10.00px"/>
<text data-id="102" x="1125.63" y="-368.77">R102</text>
<circle data-id="103" cx="8.31" cy="-1127.42" r="10.00px"/>
<text data-id="103" x="8.31" y="-1127.42">R103</text>
<circle data-id="104" cx="1108.35" cy="-1168.25" r="10.00px"/>
<text data-id="104" x="1108.35" y="-1168.25">R104</text>
<circle data-id="105" cx="782.86" cy="-1156.65" r="10.00px"/>
<text data-id="105" x="782.86" y="-1156.65">R105</text>
<circle data-id="106" cx="239.72" cy="-613.26" r="10.00px"/>
<text data-id="106" x="239.72" y="-613.26">R106</text>
<circle data-id="107" cx="539.26" cy="-444.32" r="10.00px"/>
<text data-id="107" x="539.26" y="-444.32">R107</text>
<circle data-id="108" cx="66.73" cy="-727.00" r="10.00px"/>
<text data-id="108" x="66.73" y="-727.00">R108</text>
<circle data-id="109" cx="65.16" cy="-974.96" r="10.00px"/>
<text data-id="109" x="65.16" y="-974.96">R109</text>
<circle data-id="110" cx="478.55" cy="-507.74" r="10.00px"/>
<text data-id="110" x="478.55" y="-507.74">R110</text>
<circle data-id="111" cx="713.59" cy="-468.97" r="10.00px"/>
<text data-id="111" x="713.59" y="-468.97">R111</text>
<circle data-id="112" cx="242.76" cy="-294.55" r="10.00px"/>
<text data-id="112" x="242.76" y="-294.55">R112</text>
<circle data-id="113" cx="61.68" cy="-358.58" r="10.00px"/>
<text data-id="113" x="61.68" y="-358.58">R113</text>
<circle data-id="114" cx="1006.31" cy="-751.86" r="10.00px"/>
<text data-id="114" x="1006.31" y="-751.86">R114</text>
<circle data-id="115" cx="0.09" cy="-1206.56" r="10.00px"/>
<text data-id="115" x="0.09" y="-1206.56">R115</text>
<circle data-id="116" cx="1167.54" cy="-364.76" r="10.00px"/>
<text data-id="116" x="1167.54" y="-364.76">R116</text>
<circle data-id="117" cx="70.73" cy="-475.25" r="10.00px"/>
<text data-id="117" x="70.73" y="-475.25">R117</text>
<circle data-id="118" cx="362.69" cy="-936.09" r="10.00px"/>
<text data-id="118" x="362.69" y="-936.09">R118</text>
<circle data-id="119" cx="1045.70" cy="-425.94" r="10.00px"/>
<text data-id="119" x="1045.70" y="-425.94">R119</text>
<circle data-id="120" cx="455.16" cy="-1217.62" r="10.00px"/>
<text data-id="120" x="455.16" y="-1217.62">R120</text>
<circle data-id="121" cx="259.14" cy="-1167.57" r="10.00px"/>
<text data-id="121" x="259.14" y="-1167.57">R121</text>
<circle data-id="122" cx="571.61" cy="-434.60" r="10.00px"/>
<text data-id="122" x="571.61" y="-434.60">R122</text>
<circle data-id="123" cx="201.57" cy="-729.51" r="10.00px"/>
<text data-id="123" x="201.57" y="-729.51">R123</text>
<circle data-id="124" cx="196.04" cy="-222.51" r="10.00px"/>
<text data-id="124" x="196.04" y="-222.51">R124</text>
<circle data-id="125" cx="1137.28" cy="-614.40" r="10.00px"/>
<text data-id="125" x="1137.28" y="-614.40">R125</text>
<circle data-id="126" cx="243.96" cy="-844.10" r="10.00px"/>
<text data-id="126" x="243.96" y="-844.10">R126</text>
<circle data-id="127" cx="149.59" cy="-36.38" r="10.00px"/>
<text data-id="127" x="149.59" y="-36.38">R127</text>
<circle data-id="128" cx="732.44" cy="-1088.80" r="10.00px"/>
<text data-id="128" x="732.44" y="-1088.80">R128</text>
<circle data-id="129" cx="443.68" cy="-1177.53" r="10.00px"/>
<text data-id="129" x="443.68" y="-1177.53">R129</text>
<circle data-id="130" cx="6.77" cy="-449.49" r="10.00px"/>
<text data-id="130" x="6.77" y="-449.49">R130</text>
<circle data-id="131" cx="711.74" cy="-393.83" r="10.00px"/>
<text data-id="131" x="711.74" y="-393.83">R131</text>
<circle data-id="132" cx="457.51" cy="-211.59" r="10.00px"/>
<text data-id="132" x="457.51" y="-211.59">R132</text>
<circle data-id="133" cx="500.52" cy="-297.20" r="10.00px"/>
<text data-id="133" x="500.52" y="-297.20">R133</text>
<circle data-id="134" cx="340.94" cy="-717.14" r="10.00px"/>
<text data-id="134" x="340.94" y="-717.14">R134</text>
<circle data-id="135" cx="781.93" cy="-209.34" r="10.00px"/>
<text data-id="135" x="781.93" y="-209.34">R135</text>
<circle data-id="136" cx="535.76" cy="-322.44" r="10.00px"/>
<text data-id="136" x="535.76" y="-322.44">R136</text>
<circle data-id="137" cx="371.28" cy="-494.40" r="10.00px"/>
<text data-id="137" x="371.28" y="-494.40">R137</text>
<circle data-id="138" cx="849.40" cy="-69.22" r="10.00px"/>
<text data-id="138" x="849.40" y="-69.22">R138</text>
<circle data-id="139" cx="1100.12" cy="-359.57" r="10.00px"/>
<text data-id="139" x="1100.12" y="-359.57">R139</text>
<circle data-id="140" cx="1212.44" cy="-299.36" r="10.00px"/>
<text data-id="140" x="1212.44" y="-299.36">R140</text>
<circle data-id="141" cx="301.53" cy="-1118.38" r="10.00px"/>
<text data-id="141" x="301.53" y="-1118.38">R141</text>
<circle data-id="142" cx="1.32" cy="-530.30" r="10.00px"/>
<text data-id="142" x="1.32" y="-530.30">R142</text>
<circle data-id="143" cx="749.27" cy="-1201.51" r="10.00px"/>
<text data-id="143" x="749.27" y="-1201.51">R143</text>
<circle data-id="144" cx="1130.61" cy="-512.67" r="10.00px"/>
<text data-id="144" x="1130.61" y="-512.67">R144</text>
<circle data-id="145" cx="870.32" cy="-573.98" r="10.00px"/>
<text data-id="145" x="870.32" y="-573.98">R145</text>
<circle data-id="146" cx="695.54" cy="-544.60" r="10.00px"/>
<text data-id="146" x="695.54" y="-544.60">R146</text>
<circle data-id="147" cx="1111.27" cy="-286.37" r="10.00px"/>
<text data-id="147" x="1111.27" y="-286.37">R147</text>
<circle data-id="148" cx="89.50" cy="-1139.38" r="10.00px"/>
<text data-id="148" x="89.50" y="-1139.38">R148</text>
<circle data-id="149" cx="593.81" cy="-904.27" r="10.00px"/>
<text data-id="149" x="593.81" y="-904.27">R149</text>
</svg>
