<svg id="topo" viewBox="-67.75 -1476.42 1550.67 1529.97" xmlns="http://www.w3.org/2000/svg">
<style>#topo path {fill: none; stroke: grey; stroke-width: 5.0000px;} #topo circle {fill: lightblue; stroke: none; stroke-width: 0.3px; vector-effect: non-scaling-stroke; r: 10.0000px;} #topo text {fill: black; stroke: none; font-size: 15.0000px; font-family: sans-serif; text-anchor:middle; transform: translateY(0.3em);} #topo path.country {fill: lightgrey; stroke: black; stroke-width: 1px; vector-effect: non-scaling-stroke; visibility: visible;} #topo path.selection {fill: none; stroke: red; stroke-width: 1px; vector-effect: non-scaling-stroke; visibility: visible;} #topo path.utilization {visibility: hidden;}</style>
<path data-id="0-43" d="M64.50,-287.72,70.12,-203.11"/>
<path data-id="0-46" d="M64.50,-287.72,41.92,-375.54"/>
<path data-id="1-35" d="M1002.85,-202.02,1040.30,-299.77"/>
<path data-id="1-67" d="M1002.85,-202.02,956.75,-229.13"/>
<path data-id="1-173" d="M1002.85,-202.02,1007.27,-142.20"/>
<path data-id="2-13" d="M1216.24,-377.19,1217.61,-541.86"/>
<path data-id="2-39" d="M1216.24,-377.19,1300.88,-412.31"/>
<path data-id="2-56" d="M1216.24,-377.19,1229.90,-344.19"/>
<path data-id="2-142" d="M1216.24,-377.19,1135.65,-411.08"/>
<path data-id="3-28" d="M16.23,-622.21,2.73,-748.11"/>
<path data-id="3-72" d="M16.23,-622.21,77.96,-567.87"/>
<path data-id="3-145" d="M16.23,-622.21,27.22,-539.55"/>
<path data-id="3-157" d="M16.23,-622.21,75.39,-652.08"/>
<path data-id="4-44" d="M236.47,-22.95,193.96,-16.00"/>
<path data-id="4-150" d="M236.47,-22.95,364.90,-42.06"/>
<path data-id="4-178" d="M236.47,-22.95,288.04,-166.61"/>
<path data-id="5-27" d="M393.34,-650.26,487.97,-728.65"/>
<path data-id="5-117" d="M393.34,-650.26,315.74,-649.08"/>
<path data-id="5-188" d="M393.34,-650.26,415.77,-597.55"/>
<path data-id="5-193" d="M393.34,-650.26,370.35,-610.12"/>
<path data-id="5-194" d="M393.34,-650.26,382.39,-784.16"/>
<path data-id="6-18" d="M272.74,-1206.08,335.87,-1059.76"/>
<path data-id="6-22" d="M272.74,-1206.08,409.80,-1246.59"/>
<path data-id="6-53" d="M272.74,-1206.08,143.51,-1168.87"/>
<path data-id="6-82" d="M272.74,-1206.08,230.52,-1084.19"/>
<path data-id="6-91" d="M272.74,-1206.08,388.94,-1145.31"/>
<path data-id="6-109" d="M272.74,-1206.08,215.65,-1257.60"/>
<path data-id="6-131" d="M272.74,-1206.08,303.02,-1304.53"/>
<path data-id="7-29" d="M424.30,-991.12,435.24,-955.13"/>
<path data-id="7-59" d="M424.30,-991.12,338.42,-1001.70"/>
<path data-id="7-116" d="M424.30,-991.12,513.64,-1056.66"/>
<path data-id="7-198" d="M424.30,-991.12,412.69,-1116.82"/>
<path data-id="8-40" d="M496.32,-142.75,555.14,-56.15"/>
<path data-id="8-60" d="M496.32,-142.75,486.88,-223.62"/>
<path data-id="8-96" d="M496.32,-142.75,458.02,-209.00"/>
<path data-id="8-150" d="M496.32,-142.75,364.90,-42.06"/>
<path data-id="8-168" d="M496.32,-142.75,555.06,-154.85"/>
<path data-id="9-50" d="M614.60,-969.66,625.34,-1031.16"/>
<path data-id="9-58" d="M614.60,-969.66,648.01,-957.02"/>
<path data-id="9-140" d="M614.60,-969.66,471.51,-900.95"/>
<path data-id="10-19" d="M688.73,-908.20,820.38,-973.72"/>
<path data-id="10-58" d="M688.73,-908.20,648.01,-957.02"/>
<path data-id="10-146" d="M688.73,-908.20,837.57,-853.75"/>
<path data-id="10-183" d="M688.73,-908.20,620.60,-860.25"/>
<path data-id="11-43" d="M172.16,-197.85,70.12,-203.11"/>
<path data-id="11-107" d="M172.16,-197.85,98.63,-116.53"/>
<path data-id="11-159" d="M172.16,-197.85,270.73,-218.49"/>
<path data-id="12-17" d="M184.04,-695.32,206.01,-765.79"/>
<path data-id="12-120" d="M184.04,-695.32,238.18,-646.59"/>
<path data-id="12-130" d="M184.04,-695.32,258.53,-685.26"/>
<path data-id="12-144" d="M184.04,-695.32,113.86,-708.45"/>
<path data-id="13-39" d="M1217.61,-541.86,1300.88,-412.31"/>
<path data-id="13-45" d="M1217.61,-541.86,1126.57,-642.74"/>
<path data-id="13-111" d="M1217.61,-541.86,1311.24,-620.79"/>
<path data-id="13-169" d="M1217.61,-541.86,1282.59,-646.06"/>
<path data-id="13-199" d="M1217.61,-541.86,1120.50,-543.94"/>
<path data-id="14-35" d="M1160.05,-157.26,1040.30,-299.77"/>
<path data-id="14-49" d="M1160.05,-157.26,1130.99,-138.46"/>
<path data-id="14-137" d="M1160.05,-157.26,1224.90,-305.08"/>
<path data-id="14-170" d="M1160.05,-157.26,1213.19,-110.02"/>
<path data-id="15-29" d="M318.75,-952.17,435.24,-955.13"/>
<path data-id="15-52" d="M318.75,-952.17,271.37,-933.52"/>
<path data-id="15-55" d="M318.75,-952.17,314.44,-885.41"/>
<path data-id="15-59" d="M318.75,-952.17,338.42,-1001.70"/>
<path data-id="15-129" d="M318.75,-952.17,296.41,-1017.66"/>
<path data-id="16-64" d="M1110.99,-1122.39,1122.97,-1082.90"/>
<path data-id="16-90" d="M1110.99,-1122.39,980.51,-1140.87"/>
<path data-id="16-132" d="M1110.99,-1122.39,989.13,-1171.05"/>
<path data-id="16-147" d="M1110.99,-1122.39,1169.19,-1131.53"/>
<path data-id="16-162" d="M1110.99,-1122.39,1166.72,-1103.69"/>
<path data-id="16-180" d="M1110.99,-1122.39,1132.39,-1192.62"/>
<path data-id="17-55" d="M206.01,-765.79,314.44,-885.41"/>
<path data-id="17-119" d="M206.01,-765.79,130.32,-901.48"/>
<path data-id="17-124" d="M206.01,-765.79,273.31,-723.37"/>
<path data-id="17-141" d="M206.01,-765.79,58.06,-844.90"/>
<path data-id="18-59" d="M335.87,-1059.76,338.42,-1001.70"/>
<path data-id="18-82" d="M335.87,-1059.76,230.52,-1084.19"/>
<path data-id="18-91" d="M335.87,-1059.76,388.94,-1145.31"/>
<path data-id="18-129" d="M335.87,-1059.76,296.41,-1017.66"/>
<path data-id="18-198" d="M335.87,-1059.76,412.69,-1116.82"/>
<path data-id="19-84" d="M820.38,-973.72,853.17,-972.77"/>
<path data-id="19-125" d="M820.38,-973.72,792.43,-1038.45"/>
<path data-id="19-146" d="M820.38,-973.72,837.57,-853.75"/>
<path data-id="20-155" d="M1108.37,-1394.47,1219.91,-1368.28"/>
<path data-id="20-161" d="M1108.37,-1394.47,995.06,-1330.04"/>
<path data-id="20-180" d="M1108.37,-1394.47,1132.39,-1192.62"/>
<path data-id="21-34" d="M659.37,-1406.84,771.86,-1392.53"/>
<path data-id="21-88" d="M659.37,-1406.84,761.92,-1354.76"/>
<path data-id="21-143" d="M659.37,-1406.84,535.59,-1354.24"/>
<path data-id="21-195" d="M659.37,-1406.84,623.45,-1212.01"/>
<path data-id="22-91" d="M409.80,-1246.59,388.94,-1145.31"/>
<path data-id="22-131" d="M409.80,-1246.59,303.02,-1304.53"/>
<path data-id="22-143" d="M409.80,-1246.59,535.59,-1354.24"/>
<path data-id="22-160" d="M409.80,-1246.59,490.83,-1196.85"/>
<path data-id="23-53" d="M149.39,-1013.07,143.51,-1168.87"/>
<path data-id="23-82" d="M149.39,-1013.07,230.52,-1084.19"/>
<path data-id="23-138" d="M149.39,-1013.07,36.21,-1093.08"/>
<path data-id="23-167" d="M149.39,-1013.07,138.64,-968.49"/>
<path data-id="23-197" d="M149.39,-1013.07,42.54,-1004.95"/>
<path data-id="24-70" d="M1268.21,-784.99,1348.94,-839.03"/>
<path data-id="24-92" d="M1268.21,-784.99,1288.97,-701.70"/>
<path data-id="24-121" d="M1268.21,-784.99,1279.23,-880.24"/>
<path data-id="24-191" d="M1268.21,-784.99,1139.47,-715.18"/>
<path data-id="25-77" d="M510.62,-1167.62,587.32,-1120.64"/>
<path data-id="25-116" d="M510.62,-1167.62,513.64,-1056.66"/>
<path data-id="25-160" d="M510.62,-1167.62,490.83,-1196.85"/>
<path data-id="25-195" d="M510.62,-1167.62,623.45,-1212.01"/>
<path data-id="25-198" d="M510.62,-1167.62,412.69,-1116.82"/>
<path data-id="26-64" d="M1151.65,-1010.51,1122.97,-1082.90"/>
<path data-id="26-76" d="M1151.65,-1010.51,1014.17,-997.59"/>
<path data-id="26-94" d="M1151.65,-1010.51,1142.56,-918.92"/>
<path data-id="26-99" d="M1151.65,-1010.51,1212.75,-1064.21"/>
<path data-id="26-104" d="M1151.65,-1010.51,1236.50,-910.67"/>
<path data-id="26-148" d="M1151.65,-1010.51,1022.46,-958.74"/>
<path data-id="27-105" d="M487.97,-728.65,498.99,-605.72"/>
<path data-id="27-134" d="M487.97,-728.65,614.87,-757.85"/>
<path data-id="27-176" d="M487.97,-728.65,544.41,-819.65"/>
<path data-id="27-192" d="M487.97,-728.65,561.19,-659.90"/>
<path data-id="27-194" d="M487.97,-728.65,382.39,-784.16"/>
<path data-id="28-37" d="M2.73,-748.11,65.60,-719.72"/>
<path data-id="28-141" d="M2.73,-748.11,58.06,-844.90"/>
<path data-id="29-140" d="M435.24,-955.13,471.51,-900.95"/>
<path data-id="30-68" d="M166.57,-488.70,196.50,-536.72"/>
<path data-id="30-171" d="M166.57,-488.70,273.76,-485.42"/>
<path data-id="30-186" d="M166.57,-488.70,123.13,-503.09"/>
<path data-id="31-51" d="M1384.20,-1073.74,1397.89,-979.95"/>
<path data-id="31-73" d="M1384.20,-1073.74,1307.90,-1351.24"/>
<path data-id="31-87" d="M1384.20,-1073.74,1334.29,-1023.69"/>
<path data-id="32-83" d="M912.03,-513.75,927.92,-555.63"/>
<path data-id="32-101" d="M912.03,-513.75,719.90,-457.30"/>
<path data-id="32-108" d="M912.03,-513.75,903.88,-404.13"/>
<path data-id="32-185" d="M912.03,-513.75,942.12,-520.31"/>
<path data-id="33-44" d="M139.86,-43.83,193.96,-16.00"/>
<path data-id="33-65" d="M139.86,-43.83,45.38,-83.83"/>
<path data-id="33-107" d="M139.86,-43.83,98.63,-116.53"/>
<path data-id="33-112" d="M139.86,-43.83,33.61,-45.30"/>
<path data-id="34-88" d="M771.86,-1392.53,761.92,-1354.76"/>
<path data-id="34-98" d="M771.86,-1392.53,856.23,-1406.88"/>
<path data-id="35-67" d="M1040.30,-299.77,956.75,-229.13"/>
<path data-id="35-108" d="M1040.30,-299.77,903.88,-404.13"/>
<path data-id="35-137" d="M1040.30,-299.77,1224.90,-305.08"/>
<path data-id="35-142" d="M1040.30,-299.77,1135.65,-411.08"/>
<path data-id="36-39" d="M1374.35,-318.63,1300.88,-412.31"/>
<path data-id="36-56" d="M1374.35,-318.63,1229.90,-344.19"/>
<path data-id="36-85" d="M1374.35,-318.63,1359.17,-191.39"/>
<path data-id="36-133" d="M1374.35,-318.63,1408.93,-431.18"/>
<path data-id="36-137" d="M1374.35,-318.63,1224.90,-305.08"/>
<path data-id="36-152" d="M1374.35,-318.63,1327.13,-204.31"/>
<path data-id="36-175" d="M1374.35,-318.63,1412.44,-186.21"/>
<path data-id="37-141" d="M65.60,-719.72,58.06,-844.90"/>
<path data-id="37-144" d="M65.60,-719.72,113.86,-708.45"/>
<path data-id="37-157" d="M65.60,-719.72,75.39,-652.08"/>
<path data-id="38-40" d="M634.61,-97.05,555.14,-56.15"/>
<path data-id="38-48" d="M634.61,-97.05,733.56,-189.15"/>
<path data-id="38-118" d="M634.61,-97.05,763.87,-125.89"/>
<path data-id="38-165" d="M634.61,-97.05,659.10,-40.37"/>
<path data-id="38-168" d="M634.61,-97.05,555.06,-154.85"/>
<path data-id="39-133" d="M1300.88,-412.31,1408.93,-431.18"/>
<path data-id="40-150" d="M555.14,-56.15,364.90,-42.06"/>
<path data-id="40-165" d="M555.14,-56.15,659.10,-40.37"/>
<path data-id="40-168" d="M555.14,-56.15,555.06,-154.85"/>
<path data-id="41-62" d="M19.20,-1341.58,57.03,-1336.09"/>
<path data-id="42-51" d="M1365.06,-880.73,1397.89,-979.95"/>
<path data-id="42-70" d="M1365.06,-880.73,1348.94,-839.03"/>
<path data-id="42-121" d="M1365.06,-880.73,1279.23,-880.24"/>
<path data-id="43-54" d="M70.12,-203.11,55.53,-155.87"/>
<path data-id="45-63" d="M1126.57,-642.74,1086.42,-631.82"/>
<path data-id="45-79" d="M1126.57,-642.74,1158.18,-687.68"/>
<path data-id="46-145" d="M41.92,-375.54,27.22,-539.55"/>
<path data-id="46-186" d="M41.92,-375.54,123.13,-503.09"/>
<path data-id="47-61" d="M649.99,-733.42,907.28,-725.00"/>
<path data-id="47-71" d="M649.99,-733.42,623.01,-614.27"/>
<path data-id="47-134" d="M649.99,-733.42,614.87,-757.85"/>
<path data-id="47-146" d="M649.99,-733.42,837.57,-853.75"/>
<path data-id="47-190" d="M649.99,-733.42,582.28,-644.88"/>
<path data-id="48-126" d="M733.56,-189.15,775.44,-165.29"/>
<path data-id="48-164" d="M733.56,-189.15,720.84,-221.22"/>
<path data-id="49-173" d="M1130.99,-138.46,1007.27,-142.20"/>
<path data-id="50-77" d="M625.34,-1031.16,587.32,-1120.64"/>
<path data-id="50-116" d="M625.34,-1031.16,513.64,-1056.66"/>
<path data-id="50-125" d="M625.34,-1031.16,792.43,-1038.45"/>
<path data-id="51-87" d="M1397.89,-979.95,1334.29,-1023.69"/>
<path data-id="52-55" d="M271.37,-933.52,314.44,-885.41"/>
<path data-id="52-119" d="M271.37,-933.52,130.32,-901.48"/>
<path data-id="52-167" d="M271.37,-933.52,138.64,-968.49"/>
<path data-id="53-82" d="M143.51,-1168.87,230.52,-1084.19"/>
<path data-id="53-86" d="M143.51,-1168.87,136.04,-1252.22"/>
<path data-id="53-109" d="M143.51,-1168.87,215.65,-1257.60"/>
<path data-id="53-138" d="M143.51,-1168.87,36.21,-1093.08"/>
<path data-id="54-65" d="M55.53,-155.87,45.38,-83.83"/>
<path data-id="54-107" d="M55.53,-155.87,98.63,-116.53"/>
<path data-id="55-124" d="M314.44,-885.41,273.31,-723.37"/>
<path data-id="55-194" d="M314.44,-885.41,382.39,-784.16"/>
<path data-id="56-137" d="M1229.90,-344.19,1224.90,-305.08"/>
<path data-id="57-63" d="M1095.30,-583.21,1086.42,-631.82"/>
<path data-id="57-74" d="M1095.30,-583.21,995.76,-550.60"/>
<path data-id="57-199" d="M1095.30,-583.21,1120.50,-543.94"/>
<path data-id="58-125" d="M648.01,-957.02,792.43,-1038.45"/>
<path data-id="58-183" d="M648.01,-957.02,620.60,-860.25"/>
<path data-id="59-129" d="M338.42,-1001.70,296.41,-1017.66"/>
<path data-id="60-96" d="M486.88,-223.62,458.02,-209.00"/>
<path data-id="60-168" d="M486.88,-223.62,555.06,-154.85"/>
<path data-id="60-189" d="M486.88,-223.62,529.50,-313.27"/>
<path data-id="61-103" d="M907.28,-725.00,855.17,-617.76"/>
<path data-id="61-122" d="M907.28,-725.00,927.17,-860.92"/>
<path data-id="61-146" d="M907.28,-725.00,837.57,-853.75"/>
<path data-id="61-151" d="M907.28,-725.00,959.27,-711.33"/>
<path data-id="61-177" d="M907.28,-725.00,942.05,-657.90"/>
<path data-id="62-86" d="M57.03,-1336.09,136.04,-1252.22"/>
<path data-id="62-196" d="M57.03,-1336.09,134.54,-1360.07"/>
<path data-id="63-97" d="M1086.42,-631.82,1014.37,-784.00"/>
<path data-id="63-151" d="M1086.42,-631.82,959.27,-711.33"/>
<path data-id="63-177" d="M1086.42,-631.82,942.05,-657.90"/>
<path data-id="64-76" d="M1122.97,-1082.90,1014.17,-997.59"/>
<path data-id="64-162" d="M1122.97,-1082.90,1166.72,-1103.69"/>
<path data-id="65-107" d="M45.38,-83.83,98.63,-116.53"/>
<path data-id="65-112" d="M45.38,-83.83,33.61,-45.30"/>
<path data-id="66-71" d="M693.33,-598.12,623.01,-614.27"/>
<path data-id="66-136" d="M693.33,-598.12,752.42,-568.90"/>
<path data-id="66-154" d="M693.33,-598.12,637.98,-503.12"/>
<path data-id="67-100" d="M956.75,-229.13,882.60,-379.13"/>
<path data-id="67-110" d="M956.75,-229.13,849.49,-234.74"/>
<path data-id="68-120" d="M196.50,-536.72,238.18,-646.59"/>
<path data-id="68-171" d="M196.50,-536.72,273.76,-485.42"/>
<path data-id="68-181" d="M196.50,-536.72,104.36,-563.02"/>
<path data-id="69-75" d="M1396.57,-27.21,1221.64,-57.82"/>
<path data-id="69-85" d="M1396.57,-27.21,1359.17,-191.39"/>
<path data-id="69-89" d="M1396.57,-27.21,1252.11,-131.27"/>
<path data-id="69-175" d="M1396.57,-27.21,1412.44,-186.21"/>
<path data-id="70-95" d="M1348.94,-839.03,1398.36,-692.27"/>
<path data-id="70-121" d="M1348.94,-839.03,1279.23,-880.24"/>
<path data-id="71-153" d="M623.01,-614.27,541.27,-545.86"/>
<path data-id="71-154" d="M623.01,-614.27,637.98,-503.12"/>
<path data-id="71-190" d="M623.01,-614.27,582.28,-644.88"/>
<path data-id="72-145" d="M77.96,-567.87,27.22,-539.55"/>
<path data-id="72-157" d="M77.96,-567.87,75.39,-652.08"/>
<path data-id="72-181" d="M77.96,-567.87,104.36,-563.02"/>
<path data-id="73-155" d="M1307.90,-1351.24,1219.91,-1368.28"/>
<path data-id="74-80" d="M995.76,-550.60,1105.17,-505.26"/>
<path data-id="74-83" d="M995.76,-550.60,927.92,-555.63"/>
<path data-id="74-177" d="M995.76,-550.60,942.05,-657.90"/>
<path data-id="74-185" d="M995.76,-550.60,942.12,-520.31"/>
<path data-id="75-170" d="M1221.64,-57.82,1213.19,-110.02"/>
<path data-id="76-114" d="M1014.17,-997.59,935.19,-1035.93"/>
<path data-id="76-148" d="M1014.17,-997.59,1022.46,-958.74"/>
<path data-id="77-102" d="M587.32,-1120.64,798.97,-1142.04"/>
<path data-id="77-116" d="M587.32,-1120.64,513.64,-1056.66"/>
<path data-id="77-195" d="M587.32,-1120.64,623.45,-1212.01"/>
<path data-id="78-100" d="M836.30,-339.75,882.60,-379.13"/>
<path data-id="78-101" d="M836.30,-339.75,719.90,-457.30"/>
<path data-id="78-110" d="M836.30,-339.75,849.49,-234.74"/>
<path data-id="78-164" d="M836.30,-339.75,720.84,-221.22"/>
<path data-id="79-184" d="M1158.18,-687.68,1236.69,-676.16"/>
<path data-id="79-191" d="M1158.18,-687.68,1139.47,-715.18"/>
<path data-id="80-142" d="M1105.17,-505.26,1135.65,-411.08"/>
<path data-id="80-199" d="M1105.17,-505.26,1120.50,-543.94"/>
<path data-id="81-115" d="M478.57,-472.92,461.52,-572.83"/>
<path data-id="81-127" d="M478.57,-472.92,562.41,-515.02"/>
<path data-id="81-153" d="M478.57,-472.92,541.27,-545.86"/>
<path data-id="81-156" d="M478.57,-472.92,402.97,-397.59"/>
<path data-id="81-189" d="M478.57,-472.92,529.50,-313.27"/>
<path data-id="82-129" d="M230.52,-1084.19,296.41,-1017.66"/>
<path data-id="83-103" d="M927.92,-555.63,855.17,-617.76"/>
<path data-id="83-177" d="M927.92,-555.63,942.05,-657.90"/>
<path data-id="83-185" d="M927.92,-555.63,942.12,-520.31"/>
<path data-id="84-114" d="M853.17,-972.77,935.19,-1035.93"/>
<path data-id="84-122" d="M853.17,-972.77,927.17,-860.92"/>
<path data-id="84-146" d="M853.17,-972.77,837.57,-853.75"/>
<path data-id="85-152" d="M1359.17,-191.39,1327.13,-204.31"/>
<path data-id="85-175" d="M1359.17,-191.39,1412.44,-186.21"/>
<path data-id="86-109" d="M136.04,-1252.22,215.65,-1257.60"/>
<path data-id="86-196" d="M136.04,-1252.22,134.54,-1360.07"/>
<path data-id="87-121" d="M1334.29,-1023.69,1279.23,-880.24"/>
<path data-id="87-149" d="M1334.29,-1023.69,1280.12,-1028.38"/>
<path data-id="88-166" d="M761.92,-1354.76,721.70,-1243.65"/>
<path data-id="89-137" d="M1252.11,-131.27,1224.90,-305.08"/>
<path data-id="89-152" d="M1252.11,-131.27,1327.13,-204.31"/>
<path data-id="89-170" d="M1252.11,-131.27,1213.19,-110.02"/>
<path data-id="90-113" d="M980.51,-1140.87,929.64,-1069.85"/>
<path data-id="90-132" d="M980.51,-1140.87,989.13,-1171.05"/>
<path data-id="91-160" d="M388.94,-1145.31,490.83,-1196.85"/>
<path data-id="91-198" d="M388.94,-1145.31,412.69,-1116.82"/>
<path data-id="92-139" d="M1288.97,-701.70,1345.67,-667.63"/>
<path data-id="92-169" d="M1288.97,-701.70,1282.59,-646.06"/>
<path data-id="92-184" d="M1288.97,-701.70,1236.69,-676.16"/>
<path data-id="93-134" d="M593.97,-825.56,614.87,-757.85"/>
<path data-id="93-176" d="M593.97,-825.56,544.41,-819.65"/>
<path data-id="93-183" d="M593.97,-825.56,620.60,-860.25"/>
<path data-id="94-97" d="M1142.56,-918.92,1014.37,-784.00"/>
<path data-id="94-104" d="M1142.56,-918.92,1236.50,-910.67"/>
<path data-id="94-148" d="M1142.56,-918.92,1022.46,-958.74"/>
<path data-id="94-191" d="M1142.56,-918.92,1139.47,-715.18"/>
<path data-id="95-139" d="M1398.36,-692.27,1345.67,-667.63"/>
<path data-id="95-158" d="M1398.36,-692.27,1411.52,-576.30"/>
<path data-id="96-123" d="M458.02,-209.00,369.26,-244.43"/>
<path data-id="97-122" d="M1014.37,-784.00,927.17,-860.92"/>
<path data-id="97-148" d="M1014.37,-784.00,1022.46,-958.74"/>
<path data-id="97-151" d="M1014.37,-784.00,959.27,-711.33"/>
<path data-id="97-191" d="M1014.37,-784.00,1139.47,-715.18"/>
<path data-id="98-106" d="M856.23,-1406.88,948.40,-1249.63"/>
<path data-id="98-161" d="M856.23,-1406.88,995.06,-1330.04"/>
<path data-id="99-149" d="M1212.75,-1064.21,1280.12,-1028.38"/>
<path data-id="99-162" d="M1212.75,-1064.21,1166.72,-1103.69"/>
<path data-id="100-108" d="M882.60,-379.13,903.88,-404.13"/>
<path data-id="101-136" d="M719.90,-457.30,752.42,-568.90"/>
<path data-id="101-154" d="M719.90,-457.30,637.98,-503.12"/>
<path data-id="102-113" d="M798.97,-1142.04,929.64,-1069.85"/>
<path data-id="102-125" d="M798.97,-1142.04,792.43,-1038.45"/>
<path data-id="102-174" d="M798.97,-1142.04,761.40,-1217.83"/>
<path data-id="102-182" d="M798.97,-1142.04,951.21,-1192.32"/>
<path data-id="103-136" d="M855.17,-617.76,752.42,-568.90"/>
<path data-id="103-177" d="M855.17,-617.76,942.05,-657.90"/>
<path data-id="104-121" d="M1236.50,-910.67,1279.23,-880.24"/>
<path data-id="104-149" d="M1236.50,-910.67,1280.12,-1028.38"/>
<path data-id="105-115" d="M498.99,-605.72,461.52,-572.83"/>
<path data-id="105-153" d="M498.99,-605.72,541.27,-545.86"/>
<path data-id="105-192" d="M498.99,-605.72,561.19,-659.90"/>
<path data-id="106-135" d="M948.40,-1249.63,1007.88,-1224.15"/>
<path data-id="106-161" d="M948.40,-1249.63,995.06,-1330.04"/>
<path data-id="106-174" d="M948.40,-1249.63,761.40,-1217.83"/>
<path data-id="106-182" d="M948.40,-1249.63,951.21,-1192.32"/>
<path data-id="109-179" d="M215.65,-1257.60,260.53,-1320.37"/>
<path data-id="110-126" d="M849.49,-234.74,775.44,-165.29"/>
<path data-id="111-139" d="M1311.24,-620.79,1345.67,-667.63"/>
<path data-id="111-158" d="M1311.24,-620.79,1411.52,-576.30"/>
<path data-id="111-169" d="M1311.24,-620.79,1282.59,-646.06"/>
<path data-id="113-114" d="M929.64,-1069.85,935.19,-1035.93"/>
<path data-id="113-125" d="M929.64,-1069.85,792.43,-1038.45"/>
<path data-id="115-153" d="M461.52,-572.83,541.27,-545.86"/>
<path data-id="115-188" d="M461.52,-572.83,415.77,-597.55"/>
<path data-id="116-198" d="M513.64,-1056.66,412.69,-1116.82"/>
<path data-id="117-120" d="M315.74,-649.08,238.18,-646.59"/>
<path data-id="117-130" d="M315.74,-649.08,258.53,-685.26"/>
<path data-id="117-171" d="M315.74,-649.08,273.76,-485.42"/>
<path data-id="117-193" d="M315.74,-649.08,370.35,-610.12"/>
<path data-id="117-194" d="M315.74,-649.08,382.39,-784.16"/>
<path data-id="118-126" d="M763.87,-125.89,775.44,-165.29"/>
<path data-id="118-165" d="M763.87,-125.89,659.10,-40.37"/>
<path data-id="118-172" d="M763.87,-125.89,989.68,-43.96"/>
<path data-id="119-141" d="M130.32,-901.48,58.06,-844.90"/>
<path data-id="119-167" d="M130.32,-901.48,138.64,-968.49"/>
<path data-id="120-130" d="M238.18,-646.59,258.53,-685.26"/>
<path data-id="122-146" d="M927.17,-860.92,837.57,-853.75"/>
<path data-id="122-148" d="M927.17,-860.92,1022.46,-958.74"/>
<path data-id="123-156" d="M369.26,-244.43,402.97,-397.59"/>
<path data-id="123-159" d="M369.26,-244.43,270.73,-218.49"/>
<path data-id="123-178" d="M369.26,-244.43,288.04,-166.61"/>
<path data-id="124-130" d="M273.31,-723.37,258.53,-685.26"/>
<path data-id="124-194" d="M273.31,-723.37,382.39,-784.16"/>
<path data-id="127-153" d="M562.41,-515.02,541.27,-545.86"/>
<path data-id="127-187" d="M562.41,-515.02,582.59,-499.08"/>
<path data-id="128-179" d="M208.19,-1362.30,260.53,-1320.37"/>
<path data-id="128-196" d="M208.19,-1362.30,134.54,-1360.07"/>
<path data-id="131-179" d="M303.02,-1304.53,260.53,-1320.37"/>
<path data-id="132-135" d="M989.13,-1171.05,1007.88,-1224.15"/>
<path data-id="132-182" d="M989.13,-1171.05,951.21,-1192.32"/>
<path data-id="133-158" d="M1408.93,-431.18,1411.52,-576.30"/>
<path data-id="134-192" d="M614.87,-757.85,561.19,-659.90"/>
<path data-id="135-161" d="M1007.88,-1224.15,995.06,-1330.04"/>
<path data-id="135-180" d="M1007.88,-1224.15,1132.39,-1192.62"/>
<path data-id="135-182" d="M1007.88,-1224.15,951.21,-1192.32"/>
<path data-id="137-152" d="M1224.90,-305.08,1327.13,-204.31"/>
<path data-id="138-197" d="M36.21,-1093.08,42.54,-1004.95"/>
<path data-id="139-158" d="M1345.67,-667.63,1411.52,-576.30"/>
<path data-id="139-169" d="M1345.67,-667.63,1282.59,-646.06"/>
<path data-id="140-176" d="M471.51,-900.95,544.41,-819.65"/>
<path data-id="140-194" d="M471.51,-900.95,382.39,-784.16"/>
<path data-id="141-197" d="M58.06,-844.90,42.54,-1004.95"/>
<path data-id="143-160" d="M535.59,-1354.24,490.83,-1196.85"/>
<path data-id="143-195" d="M535.59,-1354.24,623.45,-1212.01"/>
<path data-id="144-157" d="M113.86,-708.45,75.39,-652.08"/>
<path data-id="147-162" d="M1169.19,-1131.53,1166.72,-1103.69"/>
<path data-id="147-180" d="M1169.19,-1131.53,1132.39,-1192.62"/>
<path data-id="150-178" d="M364.90,-42.06,288.04,-166.61"/>
<path data-id="151-177" d="M959.27,-711.33,942.05,-657.90"/>
<path data-id="153-190" d="M541.27,-545.86,582.28,-644.88"/>
<path data-id="154-187" d="M637.98,-503.12,582.59,-499.08"/>
<path data-id="155-180" d="M1219.91,-1368.28,1132.39,-1192.62"/>
<path data-id="156-163" d="M402.97,-397.59,286.08,-431.07"/>
<path data-id="156-189" d="M402.97,-397.59,529.50,-313.27"/>
<path data-id="159-163" d="M270.73,-218.49,286.08,-431.07"/>
<path data-id="159-178" d="M270.73,-218.49,288.04,-166.61"/>
<path data-id="160-198" d="M490.83,-1196.85,412.69,-1116.82"/>
<path data-id="163-171" d="M286.08,-431.07,273.76,-485.42"/>
<path data-id="164-168" d="M720.84,-221.22,555.06,-154.85"/>
<path data-id="164-189" d="M720.84,-221.22,529.50,-313.27"/>
<path data-id="166-174" d="M721.70,-1243.65,761.40,-1217.83"/>
<path data-id="166-195" d="M721.70,-1243.65,623.45,-1212.01"/>
<path data-id="167-197" d="M138.64,-968.49,42.54,-1004.95"/>
<path data-id="169-184" d="M1282.59,-646.06,1236.69,-676.16"/>
<path data-id="171-193" d="M273.76,-485.42,370.35,-610.12"/>
<path data-id="172-173" d="M989.68,-43.96,1007.27,-142.20"/>
<path data-id="181-186" d="M104.36,-563.02,123.13,-503.09"/>
<path data-id="187-189" d="M582.59,-499.08,529.50,-313.27"/>
<path data-id="188-193" d="M415.77,-597.55,370.35,-610.12"/>
<path data-id="190-192" d="M582.28,-644.88,561.19,-659.90"/>
<circle data-id="0" cx="64.50" cy="-287.72" r="10.00px"/>
<text data-id="0" x="64.50" y="-287.72">R0</text>
<circle data-id="1" cx="1002.85" cy="-202.02" r="10.00px"/>
<text data-id="1" x="1002.85" y="-202.02">R1</text>
<circle data-id="2" cx="1216.24" cy="-377.19" r="10.00px"/>
<text data-id="2" x="1216.24" y="-377.19">R2</text>
<circle data-id="3" cx="16.23" cy="-622.21" r="10.00px"/>
<text data-id="3" x="16.23" y="-622.21">R3</text>
<circle data-id="4" cx="236.47" cy="-22.95" r="10.00px"/>
<text data-id="4" x="236.47" y="-22.95">R4</text>
<circle data-id="5" cx="393.34" cy="-650.26" r="10.00px"/>
<text data-id="5" x="393.34" y="-650.26">R5</text>
<circle data-id="6" cx="272.74" cy="-1206.08" r="10.00px"/>
<text data-id="6" x="272.74" y="-1206.08">R6</text>
<circle data-id="7" cx="424.30" cy="-991.12" r="10.00px"/>
<text data-id="7" x="424.30" y="-991.12">R7</text>
<circle data-id="8" cx="496.32" cy="-142.75" r="10.00px"/>
<text data-id="8" x="496.32" y="-142.75">R8</text>
<circle data-id="9" cx="614.60" cy="-969.66" r="10.00px"/>
<text data-id="9" x="614.60" y="-969.66">R9</text>
<circle data-id="10" cx="688.73" cy="-908.20" r="10.00px"/>
<text data-id="10" x="688.73" y="-908.20">R10</text>
<circle data-id="11" cx="172.16" cy="-197.85" r="10.00px"/>
<text data-id="11" x="172.16" y="-197.85">R11</text>
<circle data-id="12" cx="184.04" cy="-695.32" r="10.00px"/>
<text data-id="12" x="184.04" y="-695.32">R12</text>
<circle data-id="13" cx="1217.61" cy="-541.86" r="10.00px"/>
<text data-id="13" x="1217.61" y="-541.86">R13</text>
<circle data-id="14" cx="1160.05" cy="-157.26" r="10.00px"/>
<text data-id="14" x="1160.05" y="-157.26">R14</text>
<circle data-id="15" cx="318.75" cy="-952.17" r="10.00px"/>
<text data-id="15" x="318.75" y="-952.17">R15</text>
<circle data-id="16" cx="1110.99" cy="-1122.39" r="10.00px"/>
<text data-id="16" x="1110.99" y="-1122.39">R16</text>
<circle data-id="17" cx="206.01" cy="-765.79" r="10.00px"/>
<text data-id="17" x="206.01" y="-765.79">R17</text>
<circle data-id="18" cx="335.87" cy="-1059.76" r="10.00px"/>
<text data-id="18" x="335.87" y="-1059.76">R18</text>
<circle data-id="19" cx="820.38" cy="-973.72" r="10.00px"/>
<text data-id="19" x="820.38" y="-973.72">R19</text>
<circle data-id="20" cx="1108.37" cy="-1394.47" r="10.00px"/>
<text data-id="20" x="1108.37" y="-1394.47">R20</text>
<circle data-id="21" cx="659.37" cy="-1406.84" r="10.00px"/>
<text data-id="21" x="659.37" y="-1406.84">R21</text>
<circle data-id="22" cx="409.80" cy="-1246.59" r="10.00px"/>
<text data-id="22" x="409.80" y="-1246.59">R22</text>
<circle data-id="23" cx="149.39" cy="-1013.07" r="10.00px"/>
<text data-id="23" x="149.39" y="-1013.07">R23</text>
<circle data-id="24" cx="1268.21" cy="-784.99" r="10.00px"/>
<text data-id="24" x="1268.21" y="-784.99">R24</text>
<circle data-id="25" cx="510.62" cy="-1167.62" r="10.00px"/>
<text data-id="25" x="510.62" y="-1167.62">R25</text>
<circle data-id="26" cx="1151.65" cy="-1010.51" r="10.00px"/>
<text data-id="26" x="1151.65" y="-1010.51">R26</text>
<circle data-id="27" cx="487.97" cy="-728.65" r="10.00px"/>
<text data-id="27" x="487.97" y="-728.65">R27</text>
<circle data-id="28" cx="2.73" cy="-748.11" r="10.00px"/>
<text data-id="28" x="2.73" y="-748.11">R28</text>
<circle data-id="29" cx="435.24" cy="-955.13" r="10.00px"/>
<text data-id="29" x="435.24" y="-955.13">R29</text>
<circle data-id="30" cx="166.57" cy="-488.70" r="10.00px"/>
<text data-id="30" x="166.57" y="-488.70">R30</text>
<circle data-id="31" cx="1384.20" cy="-1073.74" r="10.00px"/>
<text data-id="31" x="1384.20" y="-1073.74">R31</text>
<circle data-id="32" cx="912.03" cy="-513.75" r="10.00px"/>
<text data-id="32" x="912.03" y="-513.75">R32</text>
<circle data-id="33" cx="139.86" cy="-43.83" r="10.00px"/>
<text data-id="33" x="139.86" y="-43.83">R33</text>
<circle data-id="34" cx="771.86" cy="-1392.53" r="10.00px"/>
<text data-id="34" x="771.86" y="-1392.53">R34</text>
<circle data-id="35" cx="1040.30" cy="-299.77" r="10.00px"/>
<text data-id="35" x="1040.30" y="-299.77">R35</text>
<circle data-id="36" cx="1374.35" cy="-318.63" r="10.00px"/>
<text data-id="36" x="1374.35" y="-318.63">R36</text>
<circle data-id="37" cx="65.60" cy="-719.72" r="10.00px"/>
<text data-id="37" x="65.60" y="-719.72">R37</text>
<circle data-id="38" cx="634.61" cy="-97.05" r="10.00px"/>
<text data-id="38" x="634.61" y="-97.05">R38</text>
<circle data-id="39" cx="1300.88" cy="-412.31" r="10.00px"/>
<text data-id="39" x="1300.88" y="-412.31">R39</text>
<circle data-id="40" cx="555.14" cy="-56.15" r="10.00px"/>
<text data-id="40" x="555.14" y="-56.15">R40</text>
<circle data-id="41" cx="19.20" cy="-1341.58" r="10.00px"/>
<text data-id="41" x="19.20" y="-1341.58">R41</text>
<circle data-id="42" cx="1365.06" cy="-880.73" r="10.00px"/>
<text data-id="42" x="1365.06" y="-880.73">R42</text>
<circle data-id="43" cx="70.12" cy="-203.11" r="10.00px"/>
<text data-id="43" x="70.12" y="-203.11">R43</text>
<circle data-id="44" cx="193.96" cy="-16.00" r="10.00px"/>
<text data-id="44" x="193.96" y="-16.00">R44</text>
<circle data-id="45" cx="1126.57" cy="-642.74" r="10.00px"/>
<text data-id="45" x="1126.57" y="-642.74">R45</text>
<circle data-id="46" cx="41.92" cy="-375.54" r="10.00px"/>
<text data-id="46" x="41.92" y="-375.54">R46</text>
<circle data-id="47" cx="649.99" cy="-733.42" r="10.00px"/>
<text data-id="47" x="649.99" y="-733.42">R47</text>
<circle data-id="48" cx="733.56" cy="-189.15" r="10.00px"/>
<text data-id="48" x="733.56" y="-189.15">R48</text>
<circle data-id="49" cx="1130.99" cy="-138.46" r="10.00px"/>
<text data-id="49" x="1130.99" y="-138.46">R49</text>
<circle data-id="50" cx="625.34" cy="-1031.16" r="10.00px"/>
<text data-id="50" x="625.34" y="-1031.16">R50</text>
<circle data-id="51" cx="1397.89" cy="-979.95" r="10.00px"/>
<text data-id="51" x="1397.89" y="-979.95">R51</text>
<circle data-id="52" cx="271.37" cy="-933.52" r="10.00px"/>
<text data-id="52" x="271.37" y="-933.52">R52</text>
<circle data-id="53" cx="143.51" cy="-1168.87" r="10.00px"/>
<text data-id="53" x="143.51" y="-1168.87">R53</text>
<circle data-id="54" cx="55.53" cy="-155.87" r="10.00px"/>
<text data-id="54" x="55.53" y="-155.87">R54</text>
<circle data-id="55" cx="314.44" cy="-885.41" r="10.00px"/>
<text data-id="55" x="314.44" y="-885.41">R55</text>
<circle data-id="56" cx="1229.90" cy="-344.19" r="10.00px"/>
<text data-id="56" x="1229.90" y="-344.19">R56</text>
<circle data-id="57" cx="1095.30" cy="-583.21" r="10.00px"/>
<text data-id="57" x="1095.30" y="-583.21">R57</text>
<circle data-id="58" cx="648.01" cy="-957.02" r="10.00px"/>
<text data-id="58" x="648.01" y="-957.02">R58</text>
<circle data-id="59" cx="338.42" cy="-1001.70" r="10.00px"/>
<text data-id="59" x="338.42" y="-1001.70">R59</text>
<circle data-id="60" cx="486.88" cy="-223.62" r="10.00px"/>
<text data-id="60" x="486.88" y="-223.62">R60</text>
<circle data-id="61" cx="907.28" cy="-725.00" r="10.00px"/>
<text data-id="61" x="907.28" y="-725.00">R61</text>
<circle data-id="62" cx="57.03" cy="-1336.09" r="10.00px"/>
<text data-id="62" x="57.03" y="-1336.09">R62</text>
<circle data-id="63" cx="1086.42" cy="-631.82" r="10.00px"/>
<text data-id="63" x="1086.42" y="-631.82">R63</text>
<circle data-id="64" cx="1122.97" cy="-1082.90" r="10.00px"/>
<text data-id="64" x="1122.97" y="-1082.90">R64</text>
<circle data-id="65" cx="45.38" cy="-83.83" r="10.00px"/>
<text data-id="65" x="45.38" y="-83.83">R65</text>
<circle data-id="66" cx="693.33" cy="-598.12" r="10.00px"/>
<text data-id="66" x="693.33" y="-598.12">R66</text>
<circle data-id="67" cx="956.75" cy="-229.13" r="10.00px"/>
<text data-id="67" x="956.75" y="-229.13">R67</text>
<circle data-id="68" cx="196.50" cy="-536.72" r="10.00px"/>
<text data-id="68" x="196.50" y="-536.72">R68</text>
<circle data-id="69" cx="1396.57" cy="-27.21" r="10.00px"/>
<text data-id="69" x="1396.57" y="-27.21">R69</text>
<circle data-id="70" cx="1348.94" cy="-839.03" r="10.00px"/>
<text data-id="70" x="1348.94" y="-839.03">R70</text>
<circle data-id="71" cx="623.01" cy="-614.27" r="10.00px"/>
<text data-id="71" x="623.01" y="-614.27">R71</text>
<circle data-id="72" cx="77.96" cy="-567.87" r="10.00px"/>
<text data-id="72" x="77.96" y="-567.87">R72</text>
<circle data-id="73" cx="1307.90" cy="-1351.24" r="10.00px"/>
<text data-id="73" x="1307.90" y="-1351.24">R73</text>
<circle data-id="74" cx="995.76" cy="-550.60" r="10.00px"/>
<text data-id="74" x="995.76" y="-550.60">R74</text>
<circle data-id="75" cx="1221.64" cy="-57.82" r="10.00px"/>
<text data-id="75" x="1221.64" y="-57.82">R75</text>
<circle data-id="76" cx="1014.17" cy="-997.59" r="10.00px"/>
<text data-id="76" x="1014.17" y="-997.59">R76</text>
<circle data-id="77" cx="587.32" cy="-1120.64" r="10.00px"/>
<text data-id="77" x="587.32" y="-1120.64">R77</text>
<circle data-id="78" cx="836.30" cy="-339.75" r="10.00px"/>
<text data-id="78" x="836.30" y="-339.75">R78</text>
<circle data-id="79" cx="1158.18" cy="-687.68" r="10.00px"/>
<text data-id="79" x="1158.18" y="-687.68">R79</text>
<circle data-id="80" cx="1105.17" cy="-505.26" r="10.00px"/>
<text data-id="80" x="1105.17" y="-505.26">R80</text>
<circle data-id="81" cx="478.57" cy="-472.92" r="10.00px"/>
<text data-id="81" x="478.57" y="-472.92">R81</text>
<circle data-id="82" cx="230.52" cy="-1084.19" r="10.00px"/>
<text data-id="82" x="230.52" y="-1084.19">R82</text>
<circle data-id="83" cx="927.92" cy="-555.63" r="10.00px"/>
<text data-id="83" x="927.92" y="-555.63">R83</text>
<circle data-id="84" cx="853.17" cy="-972.77" r="10.00px"/>
<text data-id="84" x="853.17" y="-972.77">R84</text>
<circle data-id="85" cx="1359.17" cy="-191.39" r="10.00px"/>
<text data-id="85" x="1359.17" y="-191.39">R85</text>
<circle data-id="86" cx="136.04" cy="-1252.22" r="10.00px"/>
<text data-id="86" x="136.04" y="-1252.22">R86</text>
<circle data-id="87" cx="1334.29" cy="-1023.69" r="10.00px"/>
<text data-id="87" x="1334.29" y="-1023.69">R87</text>
<circle data-id="88" cx="761.92" cy="-1354.76" r="10.00px"/>
<text data-id="88" x="761.92" y="-1354.76">R88</text>
<circle data-id="89" cx="1252.11" cy="-131.27" r="10.00px"/>
<text data-id="89" x="1252.11" y="-131.27">R89</text>
<circle data-id="90" cx="980.51" cy="-1140.87" r="10.00px"/>
<text data-id="90" x="980.51" y="-1140.87">R90</text>
<circle data-id="91" cx="388.94" cy="-1145.31" r="10.00px"/>
<text data-id="91" x="388.94" y="-1145.31">R91</text>
<circle data-id="92" cx="1288.97" cy="-701.70" r="10.00px"/>
<text data-id="92" x="1288.97" y="-701.70">R92</text>
<circle data-id="93" cx="593.97" cy="-825.56" r="10.00px"/>
<text data-id="93" x="593.97" y="-825.56">R93</text>
<circle data-id="94" cx="1142.56" cy="-918.92" r="10.00px"/>
<text data-id="94" x="1142.56" y="-918.92">R94</text>
<circle data-id="95" cx="1398.36" cy="-692.27" r="10.00px"/>
<text data-id="95" x="1398.36" y="-692.27">R95</text>
<circle data-id="96" cx="458.02" cy="-209.00" r="10.00px"/>
<text data-id="96" x="458.02" y="-209.00">R96</text>
<circle data-id="97" cx="1014.37" cy="-784.00" r="10.00px"/>
<text data-id="97" x="1014.37" y="-784.00">R97</text>
<circle data-id="98" cx="856.23" cy="-1406.88" r="10.00px"/>
<text data-id="98" x="856.23" y="-1406.88">R98</text>
<circle data-id="99" cx="1212.75" cy="-1064.21" r="10.00px"/>
<text data-id="99" x="1212.75" y="-1064.21">R99</text>
<circle data-id="100" cx="882.60" cy="-379.13" r="10.00px"/>
<text data-id="100" x="882.60" y="-379.13">R100</text>
<circle data-id="101" cx="719.90" cy="-457.30" r="10.00px"/>
<text data-id="101" x="719.90" y="-457.30">R101</text>
<circle data-id="102" cx="798.97" cy="-1142.04" r="10.00px"/>
<text data-id="102" x="798.97" y="-1142.04">R102</text>
<circle data-id="103" cx="855.17" cy="-617.76" r="10.00px"/>
<text data-id="103" x="855.17" y="-617.76">R103</text>
<circle data-id="104" cx="1236.50" cy="-910.67" r="10.00px"/>
<text data-id="104" x="1236.50" y="-910.67">R104</text>
<circle data-id="105" cx="498.99" cy="-605.72" r="10.00px"/>
<text data-id="105" x="498.99" y="-605.72">R105</text>
<circle data-id="106" cx="948.40" cy="-1249.63" r="10.00px"/>
<text data-id="106" x="948.40" y="-1249.63">R106</text>
<circle data-id="107" cx="98.63" cy="-116.53" r="10.00px"/>
<text data-id="107" x="98.63" y="-116.53">R107</text>
<circle data-id="108" cx="903.88" cy="-404.13" r="10.00px"/>
<text data-id="108" x="903.88" y="-404.13">R108</text>
<circle data-id="109" cx="215.65" cy="-1257.60" r="10.00px"/>
<text data-id="109" x="215.65" y="-1257.60">R109</text>
<circle data-id="110" cx="849.49" cy="-234.74" r="10.00px"/>
<text data-id="110" x="849.49" y="-234.74">R110</text>
<circle data-id="111" cx="1311.24" cy="-620.79" r="10.00px"/>
<text data-id="111" x="1311.24" y="-620.79">R111</text>
<circle data-id="112" cx="33.61" cy="-45.30" r="10.00px"/>
<text data-id="112" x="33.61" y="-45.30">R112</text>
<circle data-id="113" cx="929.64" cy="-1069.85" r="10.00px"/>
<text data-id="113" x="929.64" y="-1069.85">R113</text>
<circle data-id="114" cx="935.19" cy="-1035.93" r="10.00px"/>
<text data-id="114" x="935.19" y="-1035.93">R114</text>
<circle data-id="115" cx="461.52" cy="-572.83" r="10.00px"/>
<text data-id="115" x="461.52" y="-572.83">R115</text>
<circle data-id="116" cx="513.64" cy="-1056.66" r="10.00px"/>
<text data-id="116" x="513.64" y="-1056.66">R116</text>
<circle data-id="117" cx="315.74" cy="-649.08" r="10.00px"/>
<text data-id="117" x="315.74" y="-649.08">R117</text>
<circle data-id="118" cx="763.87" cy="-125.89" r="10.00px"/>
<text data-id="118" x="763.87" y="-125.89">R118</text>
<circle data-id="119" cx="130.32" cy="-901.48" r="10.00px"/>
<text data-id="119" x="130.32" y="-901.48">R119</text>
<circle data-id="120" cx="238.18" cy="-646.59" r="10.00px"/>
<text data-id="120" x="238.18" y="-646.59">R120</text>
<circle data-id="121" cx="1279.23" cy="-880.24" r="10.00px"/>
<text data-id="121" x="1279.23" y="-880.24">R121</text>
<circle data-id="122" cx="927.17" cy="-860.92" r="10.00px"/>
<text data-id="122" x="927.17" y="-860.92">R122</text>
<circle data-id="123" cx="369.26" cy="-244.43" r="10.00px"/>
<text data-id="123" x="369.26" y="-244.43">R123</text>
<circle data-id="124" cx="273.31" cy="-723.37" r="10.00px"/>
<text data-id="124" x="273.31" y="-723.37">R124</text>
<circle data-id="125" cx="792.43" cy="-1038.45" r="10.00px"/>
<text data-id="125" x="792.43" y="-1038.45">R125</text>
<circle data-id="126" cx="775.44" cy="-165.29" r="10.00px"/>
<text data-id="126" x="775.44" y="-165.29">R126</text>
<circle data-id="127" cx="562.41" cy="-515.02" r="10.00px"/>
<text data-id="127" x="562.41" y="-515.02">R127</text>
<circle data-id="128" cx="208.19" cy="-1362.30" r="10.00px"/>
<text data-id="128" x="208.19" y="-1362.30">R128</text>
<circle data-id="129" cx="296.41" cy="-1017.66" r="10.00px"/>
<text data-id="129" x="296.41" y="-1017.66">R129</text>
<circle data-id="130" cx="258.53" cy="-685.26" r="10.00px"/>
<text data-id="130" x="258.53" y="-685.26">R130</text>
<circle data-id="131" cx="303.02" cy="-1304.53" r="10.00px"/>
<text data-id="131" x="303.02" y="-1304.53">R131</text>
<circle data-id="132" cx="989.13" cy="-1171.05" r="10.00px"/>
<text data-id="132" x="989.13" y="-1171.05">R132</text>
<circle data-id="133" cx="1408.93" cy="-431.18" r="10.00px"/>
<text data-id="133" x="1408.93" y="-431.18">R133</text>
<circle data-id="134" cx="614.87" cy="-757.85" r="10.00px"/>
<text data-id="134" x="614.87" y="-757.85">R134</text>
<circle data-id="135" cx="1007.88" cy="-1224.15" r="10.00px"/>
<text data-id="135" x="1007.88" y="-1224.15">R135</text>
<circle data-id="136" cx="752.42" cy="-568.90" r="10.00px"/>
<text data-id="136" x="752.42" y="-568.90">R136</text>
<circle data-id="137" cx="1224.90" cy="-305.08" r="10.00px"/>
<text data-id="137" x="1224.90" y="-305.08">R137</text>
<circle data-id="138" cx="36.21" cy="-1093.08" r="10.00px"/>
<text data-id="138" x="36.21" y="-1093.08">R138</text>
<circle data-id="139" cx="1345.67" cy="-667.63" r="10.00px"/>
<text data-id="139" x="1345.67" y="-667.63">R139</text>
<circle data-id="140" cx="471.51" cy="-900.95" r="10.00px"/>
<text data-id="140" x="471.51" y="-900.95">R140</text>
<circle data-id="141" cx="58.06" cy="-844.90" r="10.00px"/>
<text data-id="141" x="58.06" y="-844.90">R141</text>
<circle data-id="142" cx="1135.65" cy="-411.08" r="10.00px"/>
<text data-id="142" x="1135.65" y="-411.08">R142</text>
<circle data-id="143" cx="535.59" cy="-1354.24" r="10.00px"/>
<text data-id="143" x="535.59" y="-1354.24">R143</text>
<circle data-id="144" cx="113.86" cy="-708.45" r="10.00px"/>
<text data-id="144" x="113.86" y="-708.45">R144</text>
<circle data-id="145" cx="27.22" cy="-539.55" r="10.00px"/>
<text data-id="145" x="27.22" y="-539.55">R145</text>
<circle data-id="146" cx="837.57" cy="-853.75" r="10.00px"/>
<text data-id="146" x="837.57" y="-853.75">R146</text>
<circle data-id="147" cx="1169.19" cy="-1131.53" r="10.00px"/>
<text data-id="147" x="1169.19" y="-1131.53">R147</text>
<circle data-id="148" cx="1022.46" cy="-958.74" r="10.00px"/>
<text data-id="148" x="1022.46" y="-958.74">R148</text>
<circle data-id="149" cx="1280.12" cy="-1028.38" r="10.00px"/>
<text data-id="149" x="1280.12" y="-1028.38">R149</text>
<circle data-id="150" cx="364.90" cy="-42.06" r="10.00px"/>
<text data-id="150" x="364.90" y="-42.06">R150</text>
<circle data-id="151" cx="959.27" cy="-711.33" r="10.00px"/>
<text data-id="151" x="959.27" y="-711.33">R151</text>
<circle data-id="152" cx="1327.13" cy="-204.31" r="10.00px"/>
<text data-id="152" x="1327.13" y="-204.31">R152</text>
<circle data-id="153" cx="541.27" cy="-545.86" r="10.00px"/>
<text data-id="153" x="541.27" y="-545.86">R153</text>
<circle data-id="154" cx="637.98" cy="-503.12" r="10.00px"/>
<text data-id="154" x="637.98" y="-503.12">R154</text>
<circle data-id="155" cx="1219.91" cy="-1368.28" r="10.00px"/>
<text data-id="155" x="1219.91" y="-1368.28">R155</text>
<circle data-id="156" cx="402.97" cy="-397.59" r="10.00px"/>
<text data-id="156" x="402.97" y="-397.59">R156</text>
<circle data-id="157" cx="75.39" cy="-652.08" r="10.00px"/>
<text data-id="157" x="75.39" y="-652.08">R157</text>
<circle data-id="158" cx="1411.52" cy="-576.30" r="10.00px"/>
<text data-id="158" x="1411.52" y="-576.30">R158</text>
<circle data-id="159" cx="270.73" cy="-218.49" r="10.00px"/>
<text data-id="159" x="270.73" y="-218.49">R159</text>
<circle data-id="160" cx="490.83" cy="-1196.85" r="10.00px"/>
<text data-id="160" x="490.83" y="-1196.85">R160</text>
<circle data-id="161" cx="995.06" cy="-1330.04" r="10.00px"/>
<text data-id="161" x="995.06" y="-1330.04">R161</text>
<circle data-id="162" cx="1166.72" cy="-1103.69" r="10.00px"/>
<text data-id="162" x="1166.72" y="-1103.69">R162</text>
<circle data-id="163" cx="286.08" cy="-431.07" r="10.00px"/>
<text data-id="163" x="286.08" y="-431.07">R163</text>
<circle data-id="164" cx="720.84" cy="-221.22" r="10.00px"/>
<text data-id="164" x="720.84" y="-221.22">R164</text>
<circle data-id="165" cx="659.10" cy="-40.37" r="10.00px"/>
<text data-id="165" x="659.10" y="-40.37">R165</text>
<circle data-id="166" cx="721.70" cy="-1243.65" r="10.00px"/>
<text data-id="166" x="721.70" y="-1243.65">R166</text>
<circle data-id="167" cx="138.64" cy="-968.49" r="10.00px"/>
<text data-id="167" x="138.64" y="-968.49">R167</text>
<circle data-id="168" cx="555.06" cy="-154.85" r="10.00px"/>
<text data-id="168" x="555.06" y="-154.85">R168</text>
<circle data-id="169" cx="1282.59" cy="-646.06" r="10.00px"/>
<text data-id="169" x="1282.59" y="-646.06">R169</text>
<circle data-id="170" cx="1213.19" cy="-110.02" r="10.00px"/>
<text data-id="170" x="1213.19" y="-110.02">R170</text>
<circle data-id="171" cx="273.76" cy="-485.42" r="10.00px"/>
<text data-id="171" x="273.76" y="-485.42">R171</text>
<circle data-id="172" cx="989.68" cy="-43.96" r="10.00px"/>
<text data-id="172" x="989.68" y="-43.96">R172</text>
<circle data-id="173" cx="1007.27" cy="-142.20" r="10.00px"/>
<text data-id="173" x="1007.27" y="-142.20">R173</text>
<circle data-id="174" cx="761.40" cy="-1217.83" r="10.00px"/>
<text data-id="174" x="761.40" y="-1217.83">R174</text>
<circle data-id="175" cx="1412.44" cy="-186.21" r="10.00px"/>
<text data-id="175" x="1412.44" y="-186.21">R175</text>
<circle data-id="176" cx="544.41" cy="-819.65" r="10.00px"/>
<text data-id="176" x="544.41" y="-819.65">R176</text>
<circle data-id="177" cx="942.05" cy="-657.90" r="10.00px"/>
<text data-id="177" x="942.05" y="-657.90">R177</text>
<circle data-id="178" cx="288.04" cy="-166.61" r="10.00px"/>
<text data-id="178" x="288.04" y="-166.61">R178</text>
<circle data-id="179" cx="260.53" cy="-1320.37" r="10.00px"/>
<text data-id="179" x="260.53" y="-1320.37">R179</text>
<circle data-id="180" cx="1132.39" cy="-1192.62" r="10.00px"/>
<text data-id="180" x="1132.39" y="-1192.62">R180</text>
<circle data-id="181" cx="104.36" cy="-563.02" r="10.00px"/>
<text data-id="181" x="104.36" y="-563.02">R181</text>
<circle data-id="182" cx="951.21" cy="-1192.32" r="10.00px"/>
<text data-id="182" x="951.21" y="-1192.32">R182</text>
<circle data-id="183" cx="620.60" cy="-860.25" r="10.00px"/>
<text data-id="183" x="620.60" y="-860.25">R183</text>
<circle data-id="184" cx="1236.69" cy="-676.16" r="10.00px"/>
<text data-id="184" x="1236.69" y="-676.16">R184</text>
<circle data-id="185" cx="942.12" cy="-520.31" r="10.00px"/>
<text data-id="185" x="942.12" y="-520.31">R185</text>
<circle data-id="186" cx="123.13" cy="-503.09" r="10.00px"/>
<text data-id="186" x="123.13" y="-503.09">R186</text>
<circle data-id="187" cx="582.59" cy="-499.08" r="10.00px"/>
<text data-id="187" x="582.59" y="-499.08">R187</text>
<circle data-id="188" cx="415.77" cy="-597.55" r="10.00px"/>
<text data-id="188" x="415.77" y="-597.55">R188</text>
<circle data-id="189" cx="529.50" cy="-313.27" r="10.00px"/>
<text data-id="189" x="529.50" y="-313.27">R189</text>
<circle data-id="190" cx="582.28" cy="-644.88" r="10.00px"/>
<text data-id="190" x="582.28" y="-644.88">R190</text>
<circle data-id="191" cx="1139.47" cy="-715.18" r="10.00px"/>
<text data-id="191" x="1139.47" y="-715.18">R191</text>
<circle data-id="192" cx="561.19" cy="-659.90" r="10.00px"/>
<text data-id="192" x="561.19" y="-659.90">R192</text>
<circle data-id="193" cx="370.35" cy="-610.12" r="10.00px"/>
<text data-id="193" x="370.35" y="-610.12">R193</text>
<circle data-id="194" cx="382.39" cy="-784.16" r="10.00px"/>
<text data-id="194" x="382.39" y="-784.16">R194</text>
<circle data-id="195" cx="623.45" cy="-1212.01" r="10.00px"/>
<text data-id="195" x="623.45" y="-1212.01">R195</text>
<circle data-id="196" cx="134.54" cy="-1360.07" r="10.00px"/>
<text data-id="196" x="134.54" y="-1360.07">R196</text>
<circle data-id="197" cx="42.54" cy="-1004.95" r="10.00px"/>
<text data-id="197" x="42.54" y="-1004.95">R197</text>
<circle data-id="198" cx="412.69" cy="-1116.82" r="10.00px"/>
<text data-id="198" x="412.69" y="-1116.82">R198</text>
<circle data-id="199" cx="1120.50" cy="-543.94" r="10.00px"/>
<text data-id="199" x="1120.50" y="-543.94">R199</text>
</svg>
