<svg id="topo" viewBox="-64.64 -1476.35 1546.70 1530.23" xmlns="http://www.w3.org/2000/svg">
<style>#topo path {fill: none; stroke: grey; stroke-width: 5.0000px;} #topo circle {fill: lightblue; stroke: none; stroke-width: 0.3px; vector-effect: non-scaling-stroke; r: 10.0000px;} #topo text {fill: black; stroke: none; font-size: 15.0000px; font-family: sans-serif; text-anchor:middle; transform: translateY(0.3em);} #topo path.country {fill: lightgrey; stroke: black; stroke-width: 1px; vector-effect: non-scaling-stroke; visibility: visible;} #topo path.selection {fill: none; stroke: red; stroke-width: 1px; vector-effect: non-scaling-stroke; visibility: visible;} #topo path.utilization {visibility: hidden;}</style>
<path data-id="0-169" d="M1365.40,-310.16,1331.40,-503.35"/>
<path data-id="0-184" d="M1365.40,-310.16,1307.36,-312.48"/>
<path data-id="0-190" d="M1365.40,-310.16,1411.76,-295.09"/>
<path data-id="1-7" d="M101.22,-305.56,132.69,-275.98"/>
<path data-id="1-79" d="M101.22,-305.56,5.67,-344.74"/>
<path data-id="1-80" d="M101.22,-305.56,97.25,-248.07"/>
<path data-id="1-108" d="M101.22,-305.56,80.48,-382.11"/>
<path data-id="1-178" d="M101.22,-305.56,106.57,-381.79"/>
<path data-id="2-62" d="M367.97,-1264.69,283.58,-1148.66"/>
<path data-id="2-106" d="M367.97,-1264.69,421.02,-1142.73"/>
<path data-id="2-134" d="M367.97,-1264.69,250.90,-1315.88"/>
<path data-id="2-137" d="M367.97,-1264.69,492.70,-1188.22"/>
<path data-id="2-146" d="M367.97,-1264.69,401.55,-1402.62"/>
<path data-id="2-198" d="M367.97,-1264.69,248.10,-1200.52"/>
<path data-id="3-66" d="M1218.09,-1036.14,1332.06,-1011.68"/>
<path data-id="3-121" d="M1218.09,-1036.14,1205.17,-1009.86"/>
<path data-id="3-189" d="M1218.09,-1036.14,1176.34,-1137.69"/>
<path data-id="4-67" d="M144.55,-1240.47,199.14,-1198.07"/>
<path data-id="4-69" d="M144.55,-1240.47,199.31,-1362.91"/>
<path data-id="4-94" d="M144.55,-1240.47,62.92,-1137.25"/>
<path data-id="4-95" d="M144.55,-1240.47,106.56,-1259.37"/>
<path data-id="4-197" d="M144.55,-1240.47,209.36,-1225.66"/>
<path data-id="5-31" d="M1190.53,-344.39,1163.17,-191.26"/>
<path data-id="5-35" d="M1190.53,-344.39,1085.45,-478.78"/>
<path data-id="5-65" d="M1190.53,-344.39,1040.59,-311.70"/>
<path data-id="5-169" d="M1190.53,-344.39,1331.40,-503.35"/>
<path data-id="5-184" d="M1190.53,-344.39,1307.36,-312.48"/>
<path data-id="6-36" d="M791.21,-1048.52,717.65,-1180.05"/>
<path data-id="6-86" d="M791.21,-1048.52,664.06,-1064.42"/>
<path data-id="6-113" d="M791.21,-1048.52,689.12,-995.15"/>
<path data-id="6-123" d="M791.21,-1048.52,885.28,-1142.53"/>
<path data-id="6-149" d="M791.21,-1048.52,920.55,-947.43"/>
<path data-id="6-155" d="M791.21,-1048.52,783.03,-957.09"/>
<path data-id="7-63" d="M132.69,-275.98,176.94,-322.71"/>
<path data-id="7-80" d="M132.69,-275.98,97.25,-248.07"/>
<path data-id="8-60" d="M236.89,-323.88,240.61,-290.64"/>
<path data-id="8-63" d="M236.89,-323.88,176.94,-322.71"/>
<path data-id="8-93" d="M236.89,-323.88,300.84,-332.64"/>
<path data-id="8-163" d="M236.89,-323.88,284.94,-417.26"/>
<path data-id="9-176" d="M796.35,-1394.36,813.36,-1342.25"/>
<path data-id="9-177" d="M796.35,-1394.36,707.29,-1406.79"/>
<path data-id="10-82" d="M803.53,-818.08,730.51,-774.69"/>
<path data-id="10-102" d="M803.53,-818.08,827.58,-769.04"/>
<path data-id="10-149" d="M803.53,-818.08,920.55,-947.43"/>
<path data-id="10-155" d="M803.53,-818.08,783.03,-957.09"/>
<path data-id="11-34" d="M1017.62,-1246.95,1019.69,-1280.04"/>
<path data-id="11-85" d="M1017.62,-1246.95,922.49,-1261.64"/>
<path data-id="11-152" d="M1017.62,-1246.95,1037.63,-1145.59"/>
<path data-id="12-26" d="M1231.87,-1375.84,1270.92,-1335.73"/>
<path data-id="12-136" d="M1231.87,-1375.84,1207.24,-1314.49"/>
<path data-id="13-47" d="M1049.07,-848.69,1159.27,-919.32"/>
<path data-id="13-61" d="M1049.07,-848.69,998.77,-975.17"/>
<path data-id="13-101" d="M1049.07,-848.69,1157.73,-817.47"/>
<path data-id="13-109" d="M1049.07,-848.69,972.91,-836.99"/>
<path data-id="14-22" d="M700.89,-64.69,662.92,-68.43"/>
<path data-id="14-68" d="M700.89,-64.69,677.11,-151.82"/>
<path data-id="15-44" d="M373.61,-315.80,433.52,-215.33"/>
<path data-id="15-120" d="M373.61,-315.80,315.53,-275.77"/>
<path data-id="15-128" d="M373.61,-315.80,334.52,-358.40"/>
<path data-id="15-166" d="M373.61,-315.80,384.92,-381.85"/>
<path data-id="16-76" d="M66.92,-453.51,148.21,-492.19"/>
<path data-id="16-108" d="M66.92,-453.51,80.48,-382.11"/>
<path data-id="17-72" d="M154.86,-894.07,143.11,-866.33"/>
<path data-id="17-74" d="M154.86,-894.07,187.87,-939.80"/>
<path data-id="17-112" d="M154.86,-894.07,87.38,-990.47"/>
<path data-id="18-44" d="M319.15,-153.67,433.52,-215.33"/>
<path data-id="18-120" d="M319.15,-153.67,315.53,-275.77"/>
<path data-id="18-173" d="M319.15,-153.67,189.53,-142.09"/>
<path data-id="18-182" d="M319.15,-153.67,318.17,-91.84"/>
<path data-id="19-30" d="M765.38,-1231.72,754.62,-1277.17"/>
<path data-id="19-85" d="M765.38,-1231.72,922.49,-1261.64"/>
<path data-id="19-122" d="M765.38,-1231.72,716.30,-1209.37"/>
<path data-id="19-123" d="M765.38,-1231.72,885.28,-1142.53"/>
<path data-id="20-89" d="M504.89,-655.80,469.63,-700.01"/>
<path data-id="20-104" d="M504.89,-655.80,557.04,-701.28"/>
<path data-id="20-116" d="M504.89,-655.80,519.09,-619.50"/>
<path data-id="21-33" d="M659.45,-271.32,694.86,-172.72"/>
<path data-id="21-58" d="M659.45,-271.32,604.86,-224.29"/>
<path data-id="21-131" d="M659.45,-271.32,719.82,-190.86"/>
<path data-id="21-132" d="M659.45,-271.32,542.03,-355.82"/>
<path data-id="21-135" d="M659.45,-271.32,687.38,-434.12"/>
<path data-id="22-68" d="M662.92,-68.43,677.11,-151.82"/>
<path data-id="22-125" d="M662.92,-68.43,621.10,-55.05"/>
<path data-id="23-46" d="M132.71,-778.86,28.14,-801.79"/>
<path data-id="23-75" d="M132.71,-778.86,254.28,-674.39"/>
<path data-id="23-103" d="M132.71,-778.86,57.34,-672.49"/>
<path data-id="23-147" d="M132.71,-778.86,136.40,-663.84"/>
<path data-id="23-161" d="M132.71,-778.86,167.99,-813.18"/>
<path data-id="24-117" d="M15.23,-1303.29,74.31,-1390.81"/>
<path data-id="24-175" d="M15.23,-1303.29,89.80,-1297.07"/>
<path data-id="25-51" d="M517.89,-759.68,594.78,-759.29"/>
<path data-id="25-89" d="M517.89,-759.68,469.63,-700.01"/>
<path data-id="25-104" d="M517.89,-759.68,557.04,-701.28"/>
<path data-id="25-172" d="M517.89,-759.68,553.05,-808.26"/>
<path data-id="26-81" d="M1270.92,-1335.73,1342.38,-1359.40"/>
<path data-id="26-136" d="M1270.92,-1335.73,1207.24,-1314.49"/>
<path data-id="26-195" d="M1270.92,-1335.73,1353.21,-1268.84"/>
<path data-id="27-131" d="M958.22,-195.93,719.82,-190.86"/>
<path data-id="27-133" d="M958.22,-195.93,954.61,-267.11"/>
<path data-id="27-181" d="M958.22,-195.93,1072.16,-177.75"/>
<path data-id="28-73" d="M600.04,-1206.91,553.24,-1270.47"/>
<path data-id="28-122" d="M600.04,-1206.91,716.30,-1209.37"/>
<path data-id="28-126" d="M600.04,-1206.91,670.76,-1125.62"/>
<path data-id="28-137" d="M600.04,-1206.91,492.70,-1188.22"/>
<path data-id="28-192" d="M600.04,-1206.91,658.51,-1269.02"/>
<path data-id="29-75" d="M298.44,-770.42,254.28,-674.39"/>
<path data-id="29-89" d="M298.44,-770.42,469.63,-700.01"/>
<path data-id="29-161" d="M298.44,-770.42,167.99,-813.18"/>
<path data-id="29-179" d="M298.44,-770.42,410.90,-957.31"/>
<path data-id="30-105" d="M754.62,-1277.17,680.84,-1367.57"/>
<path data-id="30-144" d="M754.62,-1277.17,656.68,-1346.98"/>
<path data-id="30-176" d="M754.62,-1277.17,813.36,-1342.25"/>
<path data-id="30-192" d="M754.62,-1277.17,658.51,-1269.02"/>
<path data-id="31-38" d="M1163.17,-191.26,1183.41,-151.75"/>
<path data-id="31-181" d="M1163.17,-191.26,1072.16,-177.75"/>
<path data-id="31-184" d="M1163.17,-191.26,1307.36,-312.48"/>
<path data-id="32-48" d="M595.15,-620.42,768.71,-554.38"/>
<path data-id="32-50" d="M595.15,-620.42,680.09,-744.35"/>
<path data-id="32-104" d="M595.15,-620.42,557.04,-701.28"/>
<path data-id="32-116" d="M595.15,-620.42,519.09,-619.50"/>
<path data-id="32-141" d="M595.15,-620.42,732.52,-689.10"/>
<path data-id="32-187" d="M595.15,-620.42,561.28,-580.64"/>
<path data-id="33-58" d="M694.86,-172.72,604.86,-224.29"/>
<path data-id="33-68" d="M694.86,-172.72,677.11,-151.82"/>
<path data-id="33-131" d="M694.86,-172.72,719.82,-190.86"/>
<path data-id="34-85" d="M1019.69,-1280.04,922.49,-1261.64"/>
<path data-id="34-142" d="M1019.69,-1280.04,1066.65,-1305.63"/>
<path data-id="35-43" d="M1085.45,-478.78,1099.99,-511.99"/>
<path data-id="35-57" d="M1085.45,-478.78,1074.00,-510.91"/>
<path data-id="35-65" d="M1085.45,-478.78,1040.59,-311.70"/>
<path data-id="35-170" d="M1085.45,-478.78,1023.98,-477.35"/>
<path data-id="36-122" d="M717.65,-1180.05,716.30,-1209.37"/>
<path data-id="36-126" d="M717.65,-1180.05,670.76,-1125.62"/>
<path data-id="37-86" d="M499.74,-1096.21,664.06,-1064.42"/>
<path data-id="37-97" d="M499.74,-1096.21,473.80,-1022.59"/>
<path data-id="37-106" d="M499.74,-1096.21,421.02,-1142.73"/>
<path data-id="37-126" d="M499.74,-1096.21,670.76,-1125.62"/>
<path data-id="37-137" d="M499.74,-1096.21,492.70,-1188.22"/>
<path data-id="38-40" d="M1183.41,-151.75,1226.83,-101.85"/>
<path data-id="38-42" d="M1183.41,-151.75,1080.85,-112.02"/>
<path data-id="38-55" d="M1183.41,-151.75,1255.08,-139.84"/>
<path data-id="38-98" d="M1183.41,-151.75,1134.52,-52.01"/>
<path data-id="39-62" d="M368.44,-1002.46,283.58,-1148.66"/>
<path data-id="39-74" d="M368.44,-1002.46,187.87,-939.80"/>
<path data-id="39-97" d="M368.44,-1002.46,473.80,-1022.59"/>
<path data-id="39-100" d="M368.44,-1002.46,197.41,-1063.11"/>
<path data-id="39-106" d="M368.44,-1002.46,421.02,-1142.73"/>
<path data-id="39-179" d="M368.44,-1002.46,410.90,-957.31"/>
<path data-id="40-55" d="M1226.83,-101.85,1255.08,-139.84"/>
<path data-id="40-98" d="M1226.83,-101.85,1134.52,-52.01"/>
<path data-id="41-67" d="M85.75,-1100.99,199.14,-1198.07"/>
<path data-id="41-94" d="M85.75,-1100.99,62.92,-1137.25"/>
<path data-id="41-100" d="M85.75,-1100.99,197.41,-1063.11"/>
<path data-id="41-112" d="M85.75,-1100.99,87.38,-990.47"/>
<path data-id="42-98" d="M1080.85,-112.02,1134.52,-52.01"/>
<path data-id="42-181" d="M1080.85,-112.02,1072.16,-177.75"/>
<path data-id="43-57" d="M1099.99,-511.99,1074.00,-510.91"/>
<path data-id="43-153" d="M1099.99,-511.99,1100.60,-542.74"/>
<path data-id="44-118" d="M433.52,-215.33,533.42,-174.30"/>
<path data-id="44-120" d="M433.52,-215.33,315.53,-275.77"/>
<path data-id="44-138" d="M433.52,-215.33,547.78,-259.59"/>
<path data-id="45-77" d="M1406.93,-642.96,1316.77,-647.72"/>
<path data-id="45-124" d="M1406.93,-642.96,1400.54,-718.73"/>
<path data-id="46-53" d="M28.14,-801.79,13.32,-765.24"/>
<path data-id="46-72" d="M28.14,-801.79,143.11,-866.33"/>
<path data-id="47-101" d="M1159.27,-919.32,1157.73,-817.47"/>
<path data-id="47-121" d="M1159.27,-919.32,1205.17,-1009.86"/>
<path data-id="47-143" d="M1159.27,-919.32,1138.62,-999.55"/>
<path data-id="47-151" d="M1159.27,-919.32,1288.82,-876.02"/>
<path data-id="47-186" d="M1159.27,-919.32,1287.33,-949.18"/>
<path data-id="48-135" d="M768.71,-554.38,687.38,-434.12"/>
<path data-id="48-158" d="M768.71,-554.38,781.01,-608.53"/>
<path data-id="48-165" d="M768.71,-554.38,806.45,-536.30"/>
<path data-id="49-119" d="M976.55,-558.09,867.84,-594.48"/>
<path data-id="49-129" d="M976.55,-558.09,920.91,-503.81"/>
<path data-id="49-168" d="M976.55,-558.09,929.59,-653.39"/>
<path data-id="49-170" d="M976.55,-558.09,1023.98,-477.35"/>
<path data-id="49-183" d="M976.55,-558.09,1059.38,-544.26"/>
<path data-id="50-51" d="M680.09,-744.35,594.78,-759.29"/>
<path data-id="50-82" d="M680.09,-744.35,730.51,-774.69"/>
<path data-id="50-180" d="M680.09,-744.35,701.88,-807.21"/>
<path data-id="50-188" d="M680.09,-744.35,720.45,-713.60"/>
<path data-id="51-104" d="M594.78,-759.29,557.04,-701.28"/>
<path data-id="51-172" d="M594.78,-759.29,553.05,-808.26"/>
<path data-id="51-199" d="M594.78,-759.29,659.99,-846.79"/>
<path data-id="52-81" d="M1343.26,-1402.45,1342.38,-1359.40"/>
<path data-id="52-87" d="M1343.26,-1402.45,1407.39,-1398.75"/>
<path data-id="53-103" d="M13.32,-765.24,57.34,-672.49"/>
<path data-id="54-64" d="M197.51,-15.68,253.82,-46.55"/>
<path data-id="54-140" d="M197.51,-15.68,34.26,-107.76"/>
<path data-id="54-173" d="M197.51,-15.68,189.53,-142.09"/>
<path data-id="55-184" d="M1255.08,-139.84,1307.36,-312.48"/>
<path data-id="55-196" d="M1255.08,-139.84,1355.09,-72.01"/>
<path data-id="56-75" d="M302.10,-623.66,254.28,-674.39"/>
<path data-id="56-89" d="M302.10,-623.66,469.63,-700.01"/>
<path data-id="56-96" d="M302.10,-623.66,360.64,-499.37"/>
<path data-id="56-185" d="M302.10,-623.66,153.19,-568.94"/>
<path data-id="56-194" d="M302.10,-623.66,494.33,-606.35"/>
<path data-id="57-170" d="M1074.00,-510.91,1023.98,-477.35"/>
<path data-id="57-183" d="M1074.00,-510.91,1059.38,-544.26"/>
<path data-id="58-68" d="M604.86,-224.29,677.11,-151.82"/>
<path data-id="58-118" d="M604.86,-224.29,533.42,-174.30"/>
<path data-id="58-138" d="M604.86,-224.29,547.78,-259.59"/>
<path data-id="59-76" d="M161.81,-464.53,148.21,-492.19"/>
<path data-id="59-163" d="M161.81,-464.53,284.94,-417.26"/>
<path data-id="59-178" d="M161.81,-464.53,106.57,-381.79"/>
<path data-id="60-120" d="M240.61,-290.64,315.53,-275.77"/>
<path data-id="60-157" d="M240.61,-290.64,160.69,-160.96"/>
<path data-id="61-109" d="M998.77,-975.17,972.91,-836.99"/>
<path data-id="61-143" d="M998.77,-975.17,1138.62,-999.55"/>
<path data-id="61-149" d="M998.77,-975.17,920.55,-947.43"/>
<path data-id="61-171" d="M998.77,-975.17,993.94,-1125.59"/>
<path data-id="62-100" d="M283.58,-1148.66,197.41,-1063.11"/>
<path data-id="62-106" d="M283.58,-1148.66,421.02,-1142.73"/>
<path data-id="62-198" d="M283.58,-1148.66,248.10,-1200.52"/>
<path data-id="63-178" d="M176.94,-322.71,106.57,-381.79"/>
<path data-id="64-92" d="M253.82,-46.55,354.57,-32.19"/>
<path data-id="64-173" d="M253.82,-46.55,189.53,-142.09"/>
<path data-id="64-182" d="M253.82,-46.55,318.17,-91.84"/>
<path data-id="65-83" d="M1040.59,-311.70,993.23,-340.82"/>
<path data-id="65-133" d="M1040.59,-311.70,954.61,-267.11"/>
<path data-id="65-181" d="M1040.59,-311.70,1072.16,-177.75"/>
<path data-id="66-160" d="M1332.06,-1011.68,1407.78,-1035.04"/>
<path data-id="66-186" d="M1332.06,-1011.68,1287.33,-949.18"/>
<path data-id="67-100" d="M199.14,-1198.07,197.41,-1063.11"/>
<path data-id="67-197" d="M199.14,-1198.07,209.36,-1225.66"/>
<path data-id="67-198" d="M199.14,-1198.07,248.10,-1200.52"/>
<path data-id="69-117" d="M199.31,-1362.91,74.31,-1390.81"/>
<path data-id="69-134" d="M199.31,-1362.91,250.90,-1315.88"/>
<path data-id="69-175" d="M199.31,-1362.91,89.80,-1297.07"/>
<path data-id="69-193" d="M199.31,-1362.91,207.18,-1402.34"/>
<path data-id="70-115" d="M1133.78,-547.16,1195.64,-613.79"/>
<path data-id="70-153" d="M1133.78,-547.16,1100.60,-542.74"/>
<path data-id="71-196" d="M1396.79,-21.14,1355.09,-72.01"/>
<path data-id="72-161" d="M143.11,-866.33,167.99,-813.18"/>
<path data-id="73-137" d="M553.24,-1270.47,492.70,-1188.22"/>
<path data-id="73-144" d="M553.24,-1270.47,656.68,-1346.98"/>
<path data-id="73-146" d="M553.24,-1270.47,401.55,-1402.62"/>
<path data-id="73-192" d="M553.24,-1270.47,658.51,-1269.02"/>
<path data-id="74-100" d="M187.87,-939.80,197.41,-1063.11"/>
<path data-id="74-112" d="M187.87,-939.80,87.38,-990.47"/>
<path data-id="75-147" d="M254.28,-674.39,136.40,-663.84"/>
<path data-id="75-161" d="M254.28,-674.39,167.99,-813.18"/>
<path data-id="75-185" d="M254.28,-674.39,153.19,-568.94"/>
<path data-id="76-185" d="M148.21,-492.19,153.19,-568.94"/>
<path data-id="77-90" d="M1316.77,-647.72,1309.13,-563.65"/>
<path data-id="77-115" d="M1316.77,-647.72,1195.64,-613.79"/>
<path data-id="77-154" d="M1316.77,-647.72,1305.47,-691.32"/>
<path data-id="78-91" d="M591.08,-928.07,648.52,-958.92"/>
<path data-id="78-97" d="M591.08,-928.07,473.80,-1022.59"/>
<path data-id="78-148" d="M591.08,-928.07,555.35,-878.56"/>
<path data-id="78-199" d="M591.08,-928.07,659.99,-846.79"/>
<path data-id="79-108" d="M5.67,-344.74,80.48,-382.11"/>
<path data-id="79-110" d="M5.67,-344.74,27.83,-210.55"/>
<path data-id="80-110" d="M97.25,-248.07,27.83,-210.55"/>
<path data-id="80-157" d="M97.25,-248.07,160.69,-160.96"/>
<path data-id="80-191" d="M97.25,-248.07,79.13,-166.08"/>
<path data-id="81-87" d="M1342.38,-1359.40,1407.39,-1398.75"/>
<path data-id="81-195" d="M1342.38,-1359.40,1353.21,-1268.84"/>
<path data-id="82-102" d="M730.51,-774.69,827.58,-769.04"/>
<path data-id="82-180" d="M730.51,-774.69,701.88,-807.21"/>
<path data-id="82-188" d="M730.51,-774.69,720.45,-713.60"/>
<path data-id="83-107" d="M993.23,-340.82,948.37,-448.48"/>
<path data-id="83-133" d="M993.23,-340.82,954.61,-267.11"/>
<path data-id="83-170" d="M993.23,-340.82,1023.98,-477.35"/>
<path data-id="84-88" d="M1170.68,-1247.44,1177.32,-1200.38"/>
<path data-id="84-136" d="M1170.68,-1247.44,1207.24,-1314.49"/>
<path data-id="84-162" d="M1170.68,-1247.44,1119.42,-1302.48"/>
<path data-id="85-123" d="M922.49,-1261.64,885.28,-1142.53"/>
<path data-id="85-171" d="M922.49,-1261.64,993.94,-1125.59"/>
<path data-id="85-176" d="M922.49,-1261.64,813.36,-1342.25"/>
<path data-id="86-113" d="M664.06,-1064.42,689.12,-995.15"/>
<path data-id="86-126" d="M664.06,-1064.42,670.76,-1125.62"/>
<path data-id="88-164" d="M1177.32,-1200.38,1096.98,-1144.51"/>
<path data-id="88-189" d="M1177.32,-1200.38,1176.34,-1137.69"/>
<path data-id="88-195" d="M1177.32,-1200.38,1353.21,-1268.84"/>
<path data-id="89-104" d="M469.63,-700.01,557.04,-701.28"/>
<path data-id="90-115" d="M1309.13,-563.65,1195.64,-613.79"/>
<path data-id="90-169" d="M1309.13,-563.65,1331.40,-503.35"/>
<path data-id="91-113" d="M648.52,-958.92,689.12,-995.15"/>
<path data-id="91-199" d="M648.52,-958.92,659.99,-846.79"/>
<path data-id="92-125" d="M354.57,-32.19,621.10,-55.05"/>
<path data-id="92-182" d="M354.57,-32.19,318.17,-91.84"/>
<path data-id="93-120" d="M300.84,-332.64,315.53,-275.77"/>
<path data-id="93-128" d="M300.84,-332.64,334.52,-358.40"/>
<path data-id="93-163" d="M300.84,-332.64,284.94,-417.26"/>
<path data-id="94-95" d="M62.92,-1137.25,106.56,-1259.37"/>
<path data-id="95-175" d="M106.56,-1259.37,89.80,-1297.07"/>
<path data-id="96-130" d="M360.64,-499.37,441.57,-450.06"/>
<path data-id="96-163" d="M360.64,-499.37,284.94,-417.26"/>
<path data-id="96-166" d="M360.64,-499.37,384.92,-381.85"/>
<path data-id="96-194" d="M360.64,-499.37,494.33,-606.35"/>
<path data-id="97-179" d="M473.80,-1022.59,410.90,-957.31"/>
<path data-id="99-130" d="M522.45,-544.53,441.57,-450.06"/>
<path data-id="99-135" d="M522.45,-544.53,687.38,-434.12"/>
<path data-id="99-187" d="M522.45,-544.53,561.28,-580.64"/>
<path data-id="99-194" d="M522.45,-544.53,494.33,-606.35"/>
<path data-id="100-112" d="M197.41,-1063.11,87.38,-990.47"/>
<path data-id="101-151" d="M1157.73,-817.47,1288.82,-876.02"/>
<path data-id="101-159" d="M1157.73,-817.47,1178.20,-749.83"/>
<path data-id="102-109" d="M827.58,-769.04,972.91,-836.99"/>
<path data-id="102-127" d="M827.58,-769.04,881.35,-690.41"/>
<path data-id="102-150" d="M827.58,-769.04,771.43,-703.34"/>
<path data-id="103-147" d="M57.34,-672.49,136.40,-663.84"/>
<path data-id="105-144" d="M680.84,-1367.57,656.68,-1346.98"/>
<path data-id="105-177" d="M680.84,-1367.57,707.29,-1406.79"/>
<path data-id="106-137" d="M421.02,-1142.73,492.70,-1188.22"/>
<path data-id="107-129" d="M948.37,-448.48,920.91,-503.81"/>
<path data-id="107-145" d="M948.37,-448.48,835.50,-450.31"/>
<path data-id="107-170" d="M948.37,-448.48,1023.98,-477.35"/>
<path data-id="108-178" d="M80.48,-382.11,106.57,-381.79"/>
<path data-id="109-114" d="M972.91,-836.99,974.01,-752.33"/>
<path data-id="109-149" d="M972.91,-836.99,920.55,-947.43"/>
<path data-id="110-191" d="M27.83,-210.55,79.13,-166.08"/>
<path data-id="111-114" d="M1128.81,-696.00,974.01,-752.33"/>
<path data-id="111-115" d="M1128.81,-696.00,1195.64,-613.79"/>
<path data-id="111-159" d="M1128.81,-696.00,1178.20,-749.83"/>
<path data-id="111-174" d="M1128.81,-696.00,1077.05,-568.61"/>
<path data-id="113-155" d="M689.12,-995.15,783.03,-957.09"/>
<path data-id="114-127" d="M974.01,-752.33,881.35,-690.41"/>
<path data-id="114-168" d="M974.01,-752.33,929.59,-653.39"/>
<path data-id="116-187" d="M519.09,-619.50,561.28,-580.64"/>
<path data-id="116-194" d="M519.09,-619.50,494.33,-606.35"/>
<path data-id="117-175" d="M74.31,-1390.81,89.80,-1297.07"/>
<path data-id="117-193" d="M74.31,-1390.81,207.18,-1402.34"/>
<path data-id="118-125" d="M533.42,-174.30,621.10,-55.05"/>
<path data-id="118-138" d="M533.42,-174.30,547.78,-259.59"/>
<path data-id="119-127" d="M867.84,-594.48,881.35,-690.41"/>
<path data-id="119-129" d="M867.84,-594.48,920.91,-503.81"/>
<path data-id="119-139" d="M867.84,-594.48,821.97,-657.81"/>
<path data-id="119-158" d="M867.84,-594.48,781.01,-608.53"/>
<path data-id="119-165" d="M867.84,-594.48,806.45,-536.30"/>
<path data-id="119-168" d="M867.84,-594.48,929.59,-653.39"/>
<path data-id="121-143" d="M1205.17,-1009.86,1138.62,-999.55"/>
<path data-id="121-186" d="M1205.17,-1009.86,1287.33,-949.18"/>
<path data-id="122-192" d="M716.30,-1209.37,658.51,-1269.02"/>
<path data-id="123-149" d="M885.28,-1142.53,920.55,-947.43"/>
<path data-id="123-171" d="M885.28,-1142.53,993.94,-1125.59"/>
<path data-id="124-154" d="M1400.54,-718.73,1305.47,-691.32"/>
<path data-id="124-156" d="M1400.54,-718.73,1349.66,-762.91"/>
<path data-id="127-139" d="M881.35,-690.41,821.97,-657.81"/>
<path data-id="127-168" d="M881.35,-690.41,929.59,-653.39"/>
<path data-id="128-163" d="M334.52,-358.40,284.94,-417.26"/>
<path data-id="128-166" d="M334.52,-358.40,384.92,-381.85"/>
<path data-id="129-145" d="M920.91,-503.81,835.50,-450.31"/>
<path data-id="129-165" d="M920.91,-503.81,806.45,-536.30"/>
<path data-id="130-166" d="M441.57,-450.06,384.92,-381.85"/>
<path data-id="130-167" d="M441.57,-450.06,471.61,-420.18"/>
<path data-id="131-133" d="M719.82,-190.86,954.61,-267.11"/>
<path data-id="132-135" d="M542.03,-355.82,687.38,-434.12"/>
<path data-id="132-138" d="M542.03,-355.82,547.78,-259.59"/>
<path data-id="132-167" d="M542.03,-355.82,471.61,-420.18"/>
<path data-id="134-146" d="M250.90,-1315.88,401.55,-1402.62"/>
<path data-id="134-197" d="M250.90,-1315.88,209.36,-1225.66"/>
<path data-id="135-145" d="M687.38,-434.12,835.50,-450.31"/>
<path data-id="135-187" d="M687.38,-434.12,561.28,-580.64"/>
<path data-id="136-162" d="M1207.24,-1314.49,1119.42,-1302.48"/>
<path data-id="139-150" d="M821.97,-657.81,771.43,-703.34"/>
<path data-id="139-158" d="M821.97,-657.81,781.01,-608.53"/>
<path data-id="140-191" d="M34.26,-107.76,79.13,-166.08"/>
<path data-id="141-150" d="M732.52,-689.10,771.43,-703.34"/>
<path data-id="141-158" d="M732.52,-689.10,781.01,-608.53"/>
<path data-id="141-188" d="M732.52,-689.10,720.45,-713.60"/>
<path data-id="142-162" d="M1066.65,-1305.63,1119.42,-1302.48"/>
<path data-id="143-164" d="M1138.62,-999.55,1096.98,-1144.51"/>
<path data-id="144-192" d="M656.68,-1346.98,658.51,-1269.02"/>
<path data-id="145-165" d="M835.50,-450.31,806.45,-536.30"/>
<path data-id="146-193" d="M401.55,-1402.62,207.18,-1402.34"/>
<path data-id="147-185" d="M136.40,-663.84,153.19,-568.94"/>
<path data-id="148-172" d="M555.35,-878.56,553.05,-808.26"/>
<path data-id="148-179" d="M555.35,-878.56,410.90,-957.31"/>
<path data-id="148-199" d="M555.35,-878.56,659.99,-846.79"/>
<path data-id="149-155" d="M920.55,-947.43,783.03,-957.09"/>
<path data-id="151-156" d="M1288.82,-876.02,1349.66,-762.91"/>
<path data-id="151-186" d="M1288.82,-876.02,1287.33,-949.18"/>
<path data-id="152-164" d="M1037.63,-1145.59,1096.98,-1144.51"/>
<path data-id="152-171" d="M1037.63,-1145.59,993.94,-1125.59"/>
<path data-id="153-174" d="M1100.60,-542.74,1077.05,-568.61"/>
<path data-id="153-183" d="M1100.60,-542.74,1059.38,-544.26"/>
<path data-id="154-156" d="M1305.47,-691.32,1349.66,-762.91"/>
<path data-id="154-159" d="M1305.47,-691.32,1178.20,-749.83"/>
<path data-id="155-180" d="M783.03,-957.09,701.88,-807.21"/>
<path data-id="155-199" d="M783.03,-957.09,659.99,-846.79"/>
<path data-id="157-173" d="M160.69,-160.96,189.53,-142.09"/>
<path data-id="157-191" d="M160.69,-160.96,79.13,-166.08"/>
<path data-id="160-195" d="M1407.78,-1035.04,1353.21,-1268.84"/>
<path data-id="164-189" d="M1096.98,-1144.51,1176.34,-1137.69"/>
<path data-id="166-167" d="M384.92,-381.85,471.61,-420.18"/>
<path data-id="169-184" d="M1331.40,-503.35,1307.36,-312.48"/>
<path data-id="172-199" d="M553.05,-808.26,659.99,-846.79"/>
<path data-id="173-182" d="M189.53,-142.09,318.17,-91.84"/>
<path data-id="174-183" d="M1077.05,-568.61,1059.38,-544.26"/>
<path data-id="180-199" d="M701.88,-807.21,659.99,-846.79"/>
<path data-id="190-196" d="M1411.76,-295.09,1355.09,-72.01"/>
<path data-id="197-198" d="M209.36,-1225.66,248.10,-1200.52"/>
<circle data-id="0" cx="1365.40" cy="-310.16" r="10.00px"/>
<text data-id="0" x="1365.40" y="-310.16">R0</text>
<circle data-id="1" cx="101.22" cy="-305.56" r="10.00px"/>
<text data-id="1" x="101.22" y="-305.56">R1</text>
<circle data-id="2" cx="367.97" cy="-1264.69" r="10.00px"/>
<text data-id="2" x="367.97" y="-1264.69">R2</text>
<circle data-id="3" cx="1218.09" cy="-1036.14" r="10.00px"/>
<text data-id="3" x="1218.09" y="-1036.14">R3</text>
<circle data-id="4" cx="144.55" cy="-1240.47" r="10.00px"/>
<text data-id="4" x="144.55" y="-1240.47">R4</text>
<circle data-id="5" cx="1190.53" cy="-344.39" r="10.00px"/>
<text data-id="5" x="1190.53" y="-344.39">R5</text>
<circle data-id="6" cx="791.21" cy="-1048.52" r="10.00px"/>
<text data-id="6" x="791.21" y="-1048.52">R6</text>
<circle data-id="7" cx="132.69" cy="-275.98" r="10.00px"/>
<text data-id="7" x="132.69" y="-275.98">R7</text>
<circle data-id="8" cx="236.89" cy="-323.88" r="10.00px"/>
<text data-id="8" x="236.89" y="-323.88">R8</text>
<circle data-id="9" cx="796.35" cy="-1394.36" r="10.00px"/>
<text data-id="9" x="796.35" y="-1394.36">R9</text>
<circle data-id="10" cx="803.53" cy="-818.08" r="10.00px"/>
<text data-id="10" x="803.53" y="-818.08">R10</text>
<circle data-id="11" cx="1017.62" cy="-1246.95" r="10.00px"/>
<text data-id="11" x="1017.62" y="-1246.95">R11</text>
<circle data-id="12" cx="1231.87" cy="-1375.84" r="10.00px"/>
<text data-id="12" x="1231.87" y="-1375.84">R12</text>
<circle data-id="13" cx="1049.07" cy="-848.69" r="10.00px"/>
<text data-id="13" x="1049.07" y="-848.69">R13</text>
<circle data-id="14" cx="700.89" cy="-64.69" r="10.00px"/>
<text data-id="14" x="700.89" y="-64.69">R14</text>
<circle data-id="15" cx="373.61" cy="-315.80" r="10.00px"/>
<text data-id="15" x="373.61" y="-315.80">R15</text>
<circle data-id="16" cx="66.92" cy="-453.51" r="10.00px"/>
<text data-id="16" x="66.92" y="-453.51">R16</text>
<circle data-id="17" cx="154.86" cy="-894.07" r="10.00px"/>
<text data-id="17" x="154.86" y="-894.07">R17</text>
<circle data-id="18" cx="319.15" cy="-153.67" r="10.00px"/>
<text data-id="18" x="319.15" y="-153.67">R18</text>
<circle data-id="19" cx="765.38" cy="-1231.72" r="10.00px"/>
<text data-id="19" x="765.38" y="-1231.72">R19</text>
<circle data-id="20" cx="504.89" cy="-655.80" r="10.00px"/>
<text data-id="20" x="504.89" y="-655.80">R20</text>
<circle data-id="21" cx="659.45" cy="-271.32" r="10.00px"/>
<text data-id="21" x="659.45" y="-271.32">R21</text>
<circle data-id="22" cx="662.92" cy="-68.43" r="10.00px"/>
<text data-id="22" x="662.92" y="-68.43">R22</text>
<circle data-id="23" cx="132.71" cy="-778.86" r="10.00px"/>
<text data-id="23" x="132.71" y="-778.86">R23</text>
<circle data-id="24" cx="15.23" cy="-1303.29" r="10.00px"/>
<text data-id="24" x="15.23" y="-1303.29">R24</text>
<circle data-id="25" cx="517.89" cy="-759.68" r="10.00px"/>
<text data-id="25" x="517.89" y="-759.68">R25</text>
<circle data-id="26" cx="1270.92" cy="-1335.73" r="10.00px"/>
<text data-id="26" x="1270.92" y="-1335.73">R26</text>
<circle data-id="27" cx="958.22" cy="-195.93" r="10.00px"/>
<text data-id="27" x="958.22" y="-195.93">R27</text>
<circle data-id="28" cx="600.04" cy="-1206.91" r="10.00px"/>
<text data-id="28" x="600.04" y="-1206.91">R28</text>
<circle data-id="29" cx="298.44" cy="-770.42" r="10.00px"/>
<text data-id="29" x="298.44" y="-770.42">R29</text>
<circle data-id="30" cx="754.62" cy="-1277.17" r="10.00px"/>
<text data-id="30" x="754.62" y="-1277.17">R30</text>
<circle data-id="31" cx="1163.17" cy="-191.26" r="10.00px"/>
<text data-id="31" x="1163.17" y="-191.26">R31</text>
<circle data-id="32" cx="595.15" cy="-620.42" r="10.00px"/>
<text data-id="32" x="595.15" y="-620.42">R32</text>
<circle data-id="33" cx="694.86" cy="-172.72" r="10.00px"/>
<text data-id="33" x="694.86" y="-172.72">R33</text>
<circle data-id="34" cx="1019.69" cy="-1280.04" r="10.00px"/>
<text data-id="34" x="1019.69" y="-1280.04">R34</text>
<circle data-id="35" cx="1085.45" cy="-478.78" r="10.00px"/>
<text data-id="35" x="1085.45" y="-478.78">R35</text>
<circle data-id="36" cx="717.65" cy="-1180.05" r="10.00px"/>
<text data-id="36" x="717.65" y="-1180.05">R36</text>
<circle data-id="37" cx="499.74" cy="-1096.21" r="10.00px"/>
<text data-id="37" x="499.74" y="-1096.21">R37</text>
<circle data-id="38" cx="1183.41" cy="-151.75" r="10.00px"/>
<text data-id="38" x="1183.41" y="-151.75">R38</text>
<circle data-id="39" cx="368.44" cy="-1002.46" r="10.00px"/>
<text data-id="39" x="368.44" y="-1002.46">R39</text>
<circle data-id="40" cx="1226.83" cy="-101.85" r="10.00px"/>
<text data-id="40" x="1226.83" y="-101.85">R40</text>
<circle data-id="41" cx="85.75" cy="-1100.99" r="10.00px"/>
<text data-id="41" x="85.75" y="-1100.99">R41</text>
<circle data-id="42" cx="1080.85" cy="-112.02" r="10.00px"/>
<text data-id="42" x="1080.85" y="-112.02">R42</text>
<circle data-id="43" cx="1099.99" cy="-511.99" r="10.00px"/>
<text data-id="43" x="1099.99" y="-511.99">R43</text>
<circle data-id="44" cx="433.52" cy="-215.33" r="10.00px"/>
<text data-id="44" x="433.52" y="-215.33">R44</text>
<circle data-id="45" cx="1406.93" cy="-642.96" r="10.00px"/>
<text data-id="45" x="1406.93" y="-642.96">R45</text>
<circle data-id="46" cx="28.14" cy="-801.79" r="10.00px"/>
<text data-id="46" x="28.14" y="-801.79">R46</text>
<circle data-id="47" cx="1159.27" cy="-919.32" r="10.00px"/>
<text data-id="47" x="1159.27" y="-919.32">R47</text>
<circle data-id="48" cx="768.71" cy="-554.38" r="10.00px"/>
<text data-id="48" x="768.71" y="-554.38">R48</text>
<circle data-id="49" cx="976.55" cy="-558.09" r="10.00px"/>
<text data-id="49" x="976.55" y="-558.09">R49</text>
<circle data-id="50" cx="680.09" cy="-744.35" r="10.00px"/>
<text data-id="50" x="680.09" y="-744.35">R50</text>
<circle data-id="51" cx="594.78" cy="-759.29" r="10.00px"/>
<text data-id="51" x="594.78" y="-759.29">R51</text>
<circle data-id="52" cx="1343.26" cy="-1402.45" r="10.00px"/>
<text data-id="52" x="1343.26" y="-1402.45">R52</text>
<circle data-id="53" cx="13.32" cy="-765.24" r="10.00px"/>
<text data-id="53" x="13.32" y="-765.24">R53</text>
<circle data-id="54" cx="197.51" cy="-15.68" r="10.00px"/>
<text data-id="54" x="197.51" y="-15.68">R54</text>
<circle data-id="55" cx="1255.08" cy="-139.84" r="10.00px"/>
<text data-id="55" x="1255.08" y="-139.84">R55</text>
<circle data-id="56" cx="302.10" cy="-623.66" r="10.00px"/>
<text data-id="56" x="302.10" y="-623.66">R56</text>
<circle data-id="57" cx="1074.00" cy="-510.91" r="10.00px"/>
<text data-id="57" x="1074.00" y="-510.91">R57</text>
<circle data-id="58" cx="604.86" cy="-224.29" r="10.00px"/>
<text data-id="58" x="604.86" y="-224.29">R58</text>
<circle data-id="59" cx="161.81" cy="-464.53" r="10.00px"/>
<text data-id="59" x="161.81" y="-464.53">R59</text>
<circle data-id="60" cx="240.61" cy="-290.64" r="10.00px"/>
<text data-id="60" x="240.61" y="-290.64">R60</text>
<circle data-id="61" cx="998.77" cy="-975.17" r="10.00px"/>
<text data-id="61" x="998.77" y="-975.17">R61</text>
<circle data-id="62" cx="283.58" cy="-1148.66" r="10.00px"/>
<text data-id="62" x="283.58" y="-1148.66">R62</text>
<circle data-id="63" cx="176.94" cy="-322.71" r="10.00px"/>
<text data-id="63" x="176.94" y="-322.71">R63</text>
<circle data-id="64" cx="253.82" cy="-46.55" r="10.00px"/>
<text data-id="64" x="253.82" y="-46.55">R64</text>
<circle data-id="65" cx="1040.59" cy="-311.70" r="10.00px"/>
<text data-id="65" x="1040.59" y="-311.70">R65</text>
<circle data-id="66" cx="1332.06" cy="-1011.68" r="10.00px"/>
<text data-id="66" x="1332.06" y="-1011.68">R66</text>
<circle data-id="67" cx="199.14" cy="-1198.07" r="10.00px"/>
<text data-id="67" x="199.14" y="-1198.07">R67</text>
<circle data-id="68" cx="677.11" cy="-151.82" r="10.00px"/>
<text data-id="68" x="677.11" y="-151.82">R68</text>
<circle data-id="69" cx="199.31" cy="-1362.91" r="10.00px"/>
<text data-id="69" x="199.31" y="-1362.91">R69</text>
<circle data-id="70" cx="1133.78" cy="-547.16" r="10.00px"/>
<text data-id="70" x="1133.78" y="-547.16">R70</text>
<circle data-id="71" cx="1396.79" cy="-21.14" r="10.00px"/>
<text data-id="71" x="1396.79" y="-21.14">R71</text>
<circle data-id="72" cx="143.11" cy="-866.33" r="10.00px"/>
<text data-id="72" x="143.11" y="-866.33">R72</text>
<circle data-id="73" cx="553.24" cy="-1270.47" r="10.00px"/>
<text data-id="73" x="553.24" y="-1270.47">R73</text>
<circle data-id="74" cx="187.87" cy="-939.80" r="10.00px"/>
<text data-id="74" x="187.87" y="-939.80">R74</text>
<circle data-id="75" cx="254.28" cy="-674.39" r="10.00px"/>
<text data-id="75" x="254.28" y="-674.39">R75</text>
<circle data-id="76" cx="148.21" cy="-492.19" r="10.00px"/>
<text data-id="76" x="148.21" y="-492.19">R76</text>
<circle data-id="77" cx="1316.77" cy="-647.72" r="10.00px"/>
<text data-id="77" x="1316.77" y="-647.72">R77</text>
<circle data-id="78" cx="591.08" cy="-928.07" r="10.00px"/>
<text data-id="78" x="591.08" y="-928.07">R78</text>
<circle data-id="79" cx="5.67" cy="-344.74" r="10.00px"/>
<text data-id="79" x="5.67" y="-344.74">R79</text>
<circle data-id="80" cx="97.25" cy="-248.07" r="10.00px"/>
<text data-id="80" x="97.25" y="-248.07">R80</text>
<circle data-id="81" cx="1342.38" cy="-1359.40" r="10.00px"/>
<text data-id="81" x="1342.38" y="-1359.40">R81</text>
<circle data-id="82" cx="730.51" cy="-774.69" r="10.00px"/>
<text data-id="82" x="730.51" y="-774.69">R82</text>
<circle data-id="83" cx="993.23" cy="-340.82" r="10.00px"/>
<text data-id="83" x="993.23" y="-340.82">R83</text>
<circle data-id="84" cx="1170.68" cy="-1247.44" r="10.00px"/>
<text data-id="84" x="1170.68" y="-1247.44">R84</text>
<circle data-id="85" cx="922.49" cy="-1261.64" r="10.00px"/>
<text data-id="85" x="922.49" y="-1261.64">R85</text>
<circle data-id="86" cx="664.06" cy="-1064.42" r="10.00px"/>
<text data-id="86" x="664.06" y="-1064.42">R86</text>
<circle data-id="87" cx="1407.39" cy="-1398.75" r="10.00px"/>
<text data-id="87" x="1407.39" y="-1398.75">R87</text>
<circle data-id="88" cx="1177.32" cy="-1200.38" r="10.00px"/>
<text data-id="88" x="1177.32" y="-1200.38">R88</text>
<circle data-id="89" cx="469.63" cy="-700.01" r="10.00px"/>
<text data-id="89" x="469.63" y="-700.01">R89</text>
<circle data-id="90" cx="1309.13" cy="-563.65" r="10.00px"/>
<text data-id="90" x="1309.13" y="-563.65">R90</text>
<circle data-id="91" cx="648.52" cy="-958.92" r="10.00px"/>
<text data-id="91" x="648.52" y="-958.92">R91</text>
<circle data-id="92" cx="354.57" cy="-32.19" r="10.00px"/>
<text data-id="92" x="354.57" y="-32.19">R92</text>
<circle data-id="93" cx="300.84" cy="-332.64" r="10.00px"/>
<text data-id="93" x="300.84" y="-332.64">R93</text>
<circle data-id="94" cx="62.92" cy="-1137.25" r="10.00px"/>
<text data-id="94" x="62.92" y="-1137.25">R94</text>
<circle data-id="95" cx="106.56" cy="-1259.37" r="10.00px"/>
<text data-id="95" x="106.56" y="-1259.37">R95</text>
<circle data-id="96" cx="360.64" cy="-499.37" r="10.00px"/>
<text data-id="96" x="360.64" y="-499.37">R96</text>
<circle data-id="97" cx="473.80" cy="-1022.59" r="10.00px"/>
<text data-id="97" x="473.80" y="-1022.59">R97</text>
<circle data-id="98" cx="1134.52" cy="-52.01" r="10.00px"/>
<text data-id="98" x="1134.52" y="-52.01">R98</text>
<circle data-id="99" cx="522.45" cy="-544.53" r="10.00px"/>
<text data-id="99" x="522.45" y="-544.53">R99</text>
<circle data-id="100" cx="197.41" cy="-1063.11" r="10.00px"/>
<text data-id="100" x="197.41" y="-1063.11">R100</text>
<circle data-id="101" cx="1157.73" cy="-817.47" r="10.00px"/>
<text data-id="101" x="1157.73" y="-817.47">R101</text>
<circle data-id="102" cx="827.58" cy="-769.04" r="10.00px"/>
<text data-id="102" x="827.58" y="-769.04">R102</text>
<circle data-id="103" cx="57.34" cy="-672.49" r="10.00px"/>
<text data-id="103" x="57.34" y="-672.49">R103</text>
<circle data-id="104" cx="557.04" cy="-701.28" r="10.00px"/>
<text data-id="104" x="557.04" y="-701.28">R104</text>
<circle data-id="105" cx="680.84" cy="-1367.57" r="10.00px"/>
<text data-id="105" x="680.84" y="-1367.57">R105</text>
<circle data-id="106" cx="421.02" cy="-1142.73" r="10.00px"/>
<text data-id="106" x="421.02" y="-1142.73">R106</text>
<circle data-id="107" cx="948.37" cy="-448.48" r="10.00px"/>
<text data-id="107" x="948.37" y="-448.48">R107</text>
<circle data-id="108" cx="80.48" cy="-382.11" r="10.00px"/>
<text data-id="108" x="80.48" y="-382.11">R108</text>
<circle data-id="109" cx="972.91" cy="-836.99" r="10.00px"/>
<text data-id="109" x="972.91" y="-836.99">R109</text>
<circle data-id="110" cx="27.83" cy="-210.55" r="10.00px"/>
<text data-id="110" x="27.83" y="-210.55">R110</text>
<circle data-id="111" cx="1128.81" cy="-696.00" r="10.00px"/>
<text data-id="111" x="1128.81" y="-696.00">R111</text>
<circle data-id="112" cx="87.38" cy="-990.47" r="10.00px"/>
<text data-id="112" x="87.38" y="-990.47">R112</text>
<circle data-id="113" cx="689.12" cy="-995.15" r="10.00px"/>
<text data-id="113" x="689.12" y="-995.15">R113</text>
<circle data-id="114" cx="974.01" cy="-752.33" r="10.00px"/>
<text data-id="114" x="974.01" y="-752.33">R114</text>
<circle data-id="115" cx="1195.64" cy="-613.79" r="10.00px"/>
<text data-id="115" x="1195.64" y="-613.79">R115</text>
<circle data-id="116" cx="519.09" cy="-619.50" r="10.00px"/>
<text data-id="116" x="519.09" y="-619.50">R116</text>
<circle data-id="117" cx="74.31" cy="-1390.81" r="10.00px"/>
<text data-id="117" x="74.31" y="-1390.81">R117</text>
<circle data-id="118" cx="533.42" cy="-174.30" r="10.00px"/>
<text data-id="118" x="533.42" y="-174.30">R118</text>
<circle data-id="119" cx="867.84" cy="-594.48" r="10.00px"/>
<text data-id="119" x="867.84" y="-594.48">R119</text>
<circle data-id="120" cx="315.53" cy="-275.77" r="10.00px"/>
<text data-id="120" x="315.53" y="-275.77">R120</text>
<circle data-id="121" cx="1205.17" cy="-1009.86" r="10.00px"/>
<text data-id="121" x="1205.17" y="-1009.86">R121</text>
<circle data-id="122" cx="716.30" cy="-1209.37" r="10.00px"/>
<text data-id="122" x="716.30" y="-1209.37">R122</text>
<circle data-id="123" cx="885.28" cy="-1142.53" r="10.00px"/>
<text data-id="123" x="885.28" y="-1142.53">R123</text>
<circle data-id="124" cx="1400.54" cy="-718.73" r="10.00px"/>
<text data-id="124" x="1400.54" y="-718.73">R124</text>
<circle data-id="125" cx="621.10" cy="-55.05" r="10.00px"/>
<text data-id="125" x="621.10" y="-55.05">R125</text>
<circle data-id="126" cx="670.76" cy="-1125.62" r="10.00px"/>
<text data-id="126" x="670.76" y="-1125.62">R126</text>
<circle data-id="127" cx="881.35" cy="-690.41" r="10.00px"/>
<text data-id="127" x="881.35" y="-690.41">R127</text>
<circle data-id="128" cx="334.52" cy="-358.40" r="10.00px"/>
<text data-id="128" x="334.52" y="-358.40">R128</text>
<circle data-id="129" cx="920.91" cy="-503.81" r="10.00px"/>
<text data-id="129" x="920.91" y="-503.81">R129</text>
<circle data-id="130" cx="441.57" cy="-450.06" r="10.00px"/>
<text data-id="130" x="441.57" y="-450.06">R130</text>
<circle data-id="131" cx="719.82" cy="-190.86" r="10.00px"/>
<text data-id="131" x="719.82" y="-190.86">R131</text>
<circle data-id="132" cx="542.03" cy="-355.82" r="10.00px"/>
<text data-id="132" x="542.03" y="-355.82">R132</text>
<circle data-id="133" cx="954.61" cy="-267.11" r="10.00px"/>
<text data-id="133" x="954.61" y="-267.11">R133</text>
<circle data-id="134" cx="250.90" cy="-1315.88" r="10.00px"/>
<text data-id="134" x="250.90" y="-1315.88">R134</text>
<circle data-id="135" cx="687.38" cy="-434.12" r="10.00px"/>
<text data-id="135" x="687.38" y="-434.12">R135</text>
<circle data-id="136" cx="1207.24" cy="-1314.49" r="10.00px"/>
<text data-id="136" x="1207.24" y="-1314.49">R136</text>
<circle data-id="137" cx="492.70" cy="-1188.22" r="10.00px"/>
<text data-id="137" x="492.70" y="-1188.22">R137</text>
<circle data-id="138" cx="547.78" cy="-259.59" r="10.00px"/>
<text data-id="138" x="547.78" y="-259.59">R138</text>
<circle data-id="139" cx="821.97" cy="-657.81" r="10.00px"/>
<text data-id="139" x="821.97" y="-657.81">R139</text>
<circle data-id="140" cx="34.26" cy="-107.76" r="10.00px"/>
<text data-id="140" x="34.26" y="-107.76">R140</text>
<circle data-id="141" cx="732.52" cy="-689.10" r="10.00px"/>
<text data-id="141" x="732.52" y="-689.10">R141</text>
<circle data-id="142" cx="1066.65" cy="-1305.63" r="10.00px"/>
<text data-id="142" x="1066.65" y="-1305.63">R142</text>
<circle data-id="143" cx="1138.62" cy="-999.55" r="10.00px"/>
<text data-id="143" x="1138.62" y="-999.55">R143</text>
<circle data-id="144" cx="656.68" cy="-1346.98" r="10.00px"/>
<text data-id="144" x="656.68" y="-1346.98">R144</text>
<circle data-id="145" cx="835.50" cy="-450.31" r="10.00px"/>
<text data-id="145" x="835.50" y="-450.31">R145</text>
<circle data-id="146" cx="401.55" cy="-1402.62" r="10.00px"/>
<text data-id="146" x="401.55" y="-1402.62">R146</text>
<circle data-id="147" cx="136.40" cy="-663.84" r="10.00px"/>
<text data-id="147" x="136.40" y="-663.84">R147</text>
<circle data-id="148" cx="555.35" cy="-878.56" r="10.00px"/>
<text data-id="148" x="555.35" y="-878.56">R148</text>
<circle data-id="149" cx="920.55" cy="-947.43" r="10.00px"/>
<text data-id="149" x="920.55" y="-947.43">R149</text>
<circle data-id="150" cx="771.43" cy="-703.34" r="10.00px"/>
<text data-id="150" x="771.43" y="-703.34">R150</text>
<circle data-id="151" cx="1288.82" cy="-876.02" r="10.00px"/>
<text data-id="151" x="1288.82" y="-876.02">R151</text>
<circle data-id="152" cx="1037.63" cy="-1145.59" r="10.00px"/>
<text data-id="152" x="1037.63" y="-1145.59">R152</text>
<circle data-id="153" cx="1100.60" cy="-542.74" r="10.00px"/>
<text data-id="153" x="1100.60" y="-542.74">R153</text>
<circle data-id="154" cx="1305.47" cy="-691.32" r="10.00px"/>
<text data-id="154" x="1305.47" y="-691.32">R154</text>
<circle data-id="155" cx="783.03" cy="-957.09" r="10.00px"/>
<text data-id="155" x="783.03" y="-957.09">R155</text>
<circle data-id="156" cx="1349.66" cy="-762.91" r="10.00px"/>
<text data-id="156" x="1349.66" y="-762.91">R156</text>
<circle data-id="157" cx="160.69" cy="-160.96" r="10.00px"/>
<text data-id="157" x="160.69" y="-160.96">R157</text>
<circle data-id="158" cx="781.01" cy="-608.53" r="10.00px"/>
<text data-id="158" x="781.01" y="-608.53">R158</text>
<circle data-id="159" cx="1178.20" cy="-749.83" r="10.00px"/>
<text data-id="159" x="1178.20" y="-749.83">R159</text>
<circle data-id="160" cx="1407.78" cy="-1035.04" r="10.00px"/>
<text data-id="160" x="1407.78" y="-1035.04">R160</text>
<circle data-id="161" cx="167.99" cy="-813.18" r="10.00px"/>
<text data-id="161" x="167.99" y="-813.18">R161</text>
<circle data-id="162" cx="1119.42" cy="-1302.48" r="10.00px"/>
<text data-id="162" x="1119.42" y="-1302.48">R162</text>
<circle data-id="163" cx="284.94" cy="-417.26" r="10.00px"/>
<text data-id="163" x="284.94" y="-417.26">R163</text>
<circle data-id="164" cx="1096.98" cy="-1144.51" r="10.00px"/>
<text data-id="164" x="1096.98" y="-1144.51">R164</text>
<circle data-id="165" cx="806.45" cy="-536.30" r="10.00px"/>
<text data-id="165" x="806.45" y="-536.30">R165</text>
<circle data-id="166" cx="384.92" cy="-381.85" r="10.00px"/>
<text data-id="166" x="384.92" y="-381.85">R166</text>
<circle data-id="167" cx="471.61" cy="-420.18" r="10.00px"/>
<text data-id="167" x="471.61" y="-420.18">R167</text>
<circle data-id="168" cx="929.59" cy="-653.39" r="10.00px"/>
<text data-id="168" x="929.59" y="-653.39">R168</text>
<circle data-id="169" cx="1331.40" cy="-503.35" r="10.00px"/>
<text data-id="169" x="1331.40" y="-503.35">R169</text>
<circle data-id="170" cx="1023.98" cy="-477.35" r="10.00px"/>
<text data-id="170" x="1023.98" y="-477.35">R170</text>
<circle data-id="171" cx="993.94" cy="-1125.59" r="10.00px"/>
<text data-id="171" x="993.94" y="-1125.59">R171</text>
<circle data-id="172" cx="553.05" cy="-808.26" r="10.00px"/>
<text data-id="172" x="553.05" y="-808.26">R172</text>
<circle data-id="173" cx="189.53" cy="-142.09" r="10.00px"/>
<text data-id="173" x="189.53" y="-142.09">R173</text>
<circle data-id="174" cx="1077.05" cy="-568.61" r="10.00px"/>
<text data-id="174" x="1077.05" y="-568.61">R174</text>
<circle data-id="175" cx="89.80" cy="-1297.07" r="10.00px"/>
<text data-id="175" x="89.80" y="-1297.07">R175</text>
<circle data-id="176" cx="813.36" cy="-1342.25" r="10.00px"/>
<text data-id="176" x="813.36" y="-1342.25">R176</text>
<circle data-id="177" cx="707.29" cy="-1406.79" r="10.00px"/>
<text data-id="177" x="707.29" y="-1406.79">R177</text>
<circle data-id="178" cx="106.57" cy="-381.79" r="10.00px"/>
<text data-id="178" x="106.57" y="-381.79">R178</text>
<circle data-id="179" cx="410.90" cy="-957.31" r="10.00px"/>
<text data-id="179" x="410.90" y="-957.31">R179</text>
<circle data-id="180" cx="701.88" cy="-807.21" r="10.00px"/>
<text data-id="180" x="701.88" y="-807.21">R180</text>
<circle data-id="181" cx="1072.16" cy="-177.75" r="10.00px"/>
<text data-id="181" x="1072.16" y="-177.75">R181</text>
<circle data-id="182" cx="318.17" cy="-91.84" r="10.00px"/>
<text data-id="182" x="318.17" y="-91.84">R182</text>
<circle data-id="183" cx="1059.38" cy="-544.26" r="10.00px"/>
<text data-id="183" x="1059.38" y="-544.26">R183</text>
<circle data-id="184" cx="1307.36" cy="-312.48" r="10.00px"/>
<text data-id="184" x="1307.36" y="-312.48">R184</text>
<circle data-id="185" cx="153.19" cy="-568.94" r="10.00px"/>
<text data-id="185" x="153.19" y="-568.94">R185</text>
<circle data-id="186" cx="1287.33" cy="-949.18" r="10.00px"/>
<text data-id="186" x="1287.33" y="-949.18">R186</text>
<circle data-id="187" cx="561.28" cy="-580.64" r="10.00px"/>
<text data-id="187" x="561.28" y="-580.64">R187</text>
<circle data-id="188" cx="720.45" cy="-713.60" r="10.00px"/>
<text data-id="188" x="720.45" y="-713.60">R188</text>
<circle data-id="189" cx="1176.34" cy="-1137.69" r="10.00px"/>
<text data-id="189" x="1176.34" y="-1137.69">R189</text>
<circle data-id="190" cx="1411.76" cy="-295.09" r="10.00px"/>
<text data-id="190" x="1411.76" y="-295.09">R190</text>
<circle data-id="191" cx="79.13" cy="-166.08" r="10.00px"/>
<text data-id="191" x="79.13" y="-166.08">R191</text>
<circle data-id="192" cx="658.51" cy="-1269.02" r="10.00px"/>
<text data-id="192" x="658.51" y="-1269.02">R192</text>
<circle data-id="193" cx="207.18" cy="-1402.34" r="10.00px"/>
<text data-id="193" x="207.18" y="-1402.34">R193</text>
<circle data-id="194" cx="494.33" cy="-606.35" r="10.00px"/>
<text data-id="194" x="494.33" y="-606.35">R194</text>
<circle data-id="195" cx="1353.21" cy="-1268.84" r="10.00px"/>
<text data-id="195" x="1353.21" y="-1268.84">R195</text>
<circle data-id="196" cx="1355.09" cy="-72.01" r="10.00px"/>
<text data-id="196" x="1355.09" y="-72.01">R196</text>
<circle data-id="197" cx="209.36" cy="-1225.66" r="10.00px"/>
<text data-id="197" x="209.36" y="-1225.66">R197</text>
<circle data-id="198" cx="248.10" cy="-1200.52" r="10.00px"/>
<text data-id="198" x="248.10" y="-1200.52">R198</text>
<circle data-id="199" cx="659.99" cy="-846.79" r="10.00px"/>
<text data-id="199" x="659.99" y="-846.79">R199</text>
</svg>
