<svg id="topo" viewBox="-11.75 -395.15 351.76 385.33" xmlns="http://www.w3.org/2000/svg">
<style>#topo path {fill: none; stroke: grey; stroke-width: 5.0000px;} #topo circle {fill: lightblue; stroke: none; stroke-width: 0.3px; vector-effect: non-scaling-stroke; r: 10.0000px;} #topo text {fill: black; stroke: none; font-size: 15.0000px; font-family: sans-serif; text-anchor:middle; transform: translateY(0.3em);} #topo path.country {fill: lightgrey; stroke: black; stroke-width: 1px; vector-effect: non-scaling-stroke; visibility: visible;} #topo path.selection {fill: none; stroke: red; stroke-width: 1px; vector-effect: non-scaling-stroke; visibility: visible;} #topo path.utilization {visibility: hidden;}</style>
<path data-id="0-5" d="M81.33,-138.13,121.93,-187.42"/>
<path data-id="1-11" d="M88.68,-377.64,105.15,-317.37"/>
<path data-id="1-13" d="M88.68,-377.64,71.09,-323.82"/>
<path data-id="2-9" d="M208.62,-126.86,324.03,-27.33"/>
<path data-id="2-10" d="M208.62,-126.86,192.71,-152.25"/>
<path data-id="3-6" d="M233.38,-218.28,158.79,-284.17"/>
<path data-id="3-7" d="M233.38,-218.28,273.30,-212.81"/>
<path data-id="3-8" d="M233.38,-218.28,227.20,-179.10"/>
<path data-id="3-14" d="M233.38,-218.28,153.79,-224.21"/>
<path data-id="4-5" d="M74.77,-233.17,121.93,-187.42"/>
<path data-id="4-6" d="M74.77,-233.17,158.79,-284.17"/>
<path data-id="4-11" d="M74.77,-233.17,105.15,-317.37"/>
<path data-id="4-13" d="M74.77,-233.17,71.09,-323.82"/>
<path data-id="4-14" d="M74.77,-233.17,153.79,-224.21"/>
<path data-id="5-10" d="M121.93,-187.42,192.71,-152.25"/>
<path data-id="5-14" d="M121.93,-187.42,153.79,-224.21"/>
<path data-id="6-11" d="M158.79,-284.17,105.15,-317.37"/>
<path data-id="6-14" d="M158.79,-284.17,153.79,-224.21"/>
<path data-id="8-10" d="M227.20,-179.10,192.71,-152.25"/>
<path data-id="8-14" d="M227.20,-179.10,153.79,-224.21"/>
<path data-id="10-14" d="M192.71,-152.25,153.79,-224.21"/>
<path data-id="11-13" d="M105.15,-317.37,71.09,-323.82"/>
<path data-id="12-13" d="M4.24,-325.31,71.09,-323.82"/>
<circle data-id="0" cx="81.33" cy="-138.13" r="10.00px"/>
<text data-id="0" x="81.33" y="-138.13">R0</text>
<circle data-id="1" cx="88.68" cy="-377.64" r="10.00px"/>
<text data-id="1" x="88.68" y="-377.64">R1</text>
<circle data-id="2" cx="208.62" cy="-126.86" r="10.00px"/>
<text data-id="2" x="208.62" y="-126.86">R2</text>
<circle data-id="3" cx="233.38" cy="-218.28" r="10.00px"/>
<text data-id="3" x="233.38" y="-218.28">R3</text>
<circle data-id="4" cx="74.77" cy="-233.17" r="10.00px"/>
<text data-id="4" x="74.77" y="-233.17">R4</text>
<circle data-id="5" cx="121.93" cy="-187.42" r="10.00px"/>
<text data-id="5" x="121.93" y="-187.42">R5</text>
<circle data-id="6" cx="158.79" cy="-284.17" r="10.00px"/>
<text data-id="6" x="158.79" y="-284.17">R6</text>
<circle data-id="7" cx="273.30" cy="-212.81" r="10.00px"/>
<text data-id="7" x="273.30" y="-212.81">R7</text>
<circle data-id="8" cx="227.20" cy="-179.10" r="10.00px"/>
<text data-id="8" x="227.20" y="-179.10">R8</text>
<circle data-id="9" cx="324.03" cy="-27.33" r="10.00px"/>
<text data-id="9" x="324.03" y="-27.33">R9</text>
<circle data-id="10" cx="192.71" cy="-152.25" r="10.00px"/>
<text data-id="10" x="192.71" y="-152.25">R10</text>
<circle data-id="11" cx="105.15" cy="-317.37" r="10.00px"/>
<text data-id="11" x="105.15" y="-317.37">R11</text>
<circle data-id="12" cx="4.24" cy="-325.31" r="10.00px"/>
<text data-id="12" x="4.24" y="-325.31">R12</text>
<circle data-id="13" cx="71.09" cy="-323.82" r="10.00px"/>
<text data-id="13" x="71.09" y="-323.82">R13</text>
<circle data-id="14" cx="153.79" cy="-224.21" r="10.00px"/>
<text data-id="14" x="153.79" y="-224.21">R14</text>
</svg>
