<svg id="topo" viewBox="-17.73 -388.17 410.98 391.42" xmlns="http://www.w3.org/2000/svg">
<style>#topo path {fill: none; stroke: grey; stroke-width: 5.0000px;} #topo circle {fill: lightblue; stroke: none; stroke-width: 0.3px; vector-effect: non-scaling-stroke; r: 10.0000px;} #topo text {fill: black; stroke: none; font-size: 15.0000px; font-family: sans-serif; text-anchor:middle; transform: translateY(0.3em);} #topo path.country {fill: lightgrey; stroke: black; stroke-width: 1px; vector-effect: non-scaling-stroke; visibility: visible;} #topo path.selection {fill: none; stroke: red; stroke-width: 1px; vector-effect: non-scaling-stroke; visibility: visible;} #topo path.utilization {visibility: hidden;}</style>
<path data-id="0-11" d="M356.88,-370.38,345.46,-334.85"/>
<path data-id="1-4" d="M72.61,-279.92,73.40,-254.19"/>
<path data-id="1-7" d="M72.61,-279.92,0.95,-305.94"/>
<path data-id="1-13" d="M72.61,-279.92,246.74,-345.36"/>
<path data-id="2-3" d="M108.89,-112.14,91.62,-171.29"/>
<path data-id="2-8" d="M108.89,-112.14,94.72,-81.41"/>
<path data-id="2-12" d="M108.89,-112.14,185.92,-105.11"/>
<path data-id="3-4" d="M91.62,-171.29,73.40,-254.19"/>
<path data-id="3-5" d="M91.62,-171.29,275.16,-249.81"/>
<path data-id="4-5" d="M73.40,-254.19,275.16,-249.81"/>
<path data-id="5-6" d="M275.16,-249.81,374.57,-214.24"/>
<path data-id="5-11" d="M275.16,-249.81,345.46,-334.85"/>
<path data-id="5-12" d="M275.16,-249.81,185.92,-105.11"/>
<path data-id="5-13" d="M275.16,-249.81,246.74,-345.36"/>
<path data-id="6-9" d="M374.57,-214.24,274.37,-14.54"/>
<path data-id="6-11" d="M374.57,-214.24,345.46,-334.85"/>
<path data-id="8-10" d="M94.72,-81.41,68.69,-70.40"/>
<path data-id="9-12" d="M274.37,-14.54,185.92,-105.11"/>
<path data-id="10-14" d="M68.69,-70.40,34.01,-75.34"/>
<path data-id="11-13" d="M345.46,-334.85,246.74,-345.36"/>
<circle data-id="0" cx="356.88" cy="-370.38" r="10.00px"/>
<text data-id="0" x="356.88" y="-370.38">R0</text>
<circle data-id="1" cx="72.61" cy="-279.92" r="10.00px"/>
<text data-id="1" x="72.61" y="-279.92">R1</text>
<circle data-id="2" cx="108.89" cy="-112.14" r="10.00px"/>
<text data-id="2" x="108.89" y="-112.14">R2</text>
<circle data-id="3" cx="91.62" cy="-171.29" r="10.00px"/>
<text data-id="3" x="91.62" y="-171.29">R3</text>
<circle data-id="4" cx="73.40" cy="-254.19" r="10.00px"/>
<text data-id="4" x="73.40" y="-254.19">R4</text>
<circle data-id="5" cx="275.16" cy="-249.81" r="10.00px"/>
<text data-id="5" x="275.16" y="-249.81">R5</text>
<circle data-id="6" cx="374.57" cy="-214.24" r="10.00px"/>
<text data-id="6" x="374.57" y="-214.24">R6</text>
<circle data-id="7" cx="0.95" cy="-305.94" r="10.00px"/>
<text data-id="7" x="0.95" y="-305.94">R7</text>
<circle data-id="8" cx="94.72" cy="-81.41" r="10.00px"/>
<text data-id="8" x="94.72" y="-81.41">R8</text>
<circle data-id="9" cx="274.37" cy="-14.54" r="10.00px"/>
<text data-id="9" x="274.37" y="-14.54">R9</text>
<circle data-id="10" cx="68.69" cy="-70.40" r="10.00px"/>
<text data-id="10" x="68.69" y="-70.40">R10</text>
<circle data-id="11" cx="345.46" cy="-334.85" r="10.00px"/>
<text data-id="11" x="345.46" y="-334.85">R11</text>
<circle data-id="12" cx="185.92" cy="-105.11" r="10.00px"/>
<text data-id="12" x="185.92" y="-105.11">R12</text>
<circle data-id="13" cx="246.74" cy="-345.36" r="10.00px"/>
<text data-id="13" x="246.74" y="-345.36">R13</text>
<circle data-id="14" cx="34.01" cy="-75.34" r="10.00px"/>
<text data-id="14" x="34.01" y="-75.34">R14</text>
</svg>
