<svg id="topo" viewBox="-90.80 -2098.71 2184.62 2197.98" xmlns="http://www.w3.org/2000/svg">
<style>#topo path {fill: none; stroke: grey; stroke-width: 5.0000px;} #topo circle {fill: lightblue; stroke: none; stroke-width: 0.3px; vector-effect: non-scaling-stroke; r: 10.0000px;} #topo text {fill: black; stroke: none; font-size: 15.0000px; font-family: sans-serif; text-anchor:middle; transform: translateY(0.3em);} #topo path.country {fill: lightgrey; stroke: black; stroke-width: 1px; vector-effect: non-scaling-stroke; visibility: visible;} #topo path.selection {fill: none; stroke: red; stroke-width: 1px; vector-effect: non-scaling-stroke; visibility: visible;} #topo path.utilization {visibility: hidden;}</style>
<path data-id="0-134" d="M1081.50,-1503.55,1048.96,-1546.56"/>
<path data-id="0-180" d="M1081.50,-1503.55,1093.86,-1442.25"/>
<path data-id="0-224" d="M1081.50,-1503.55,984.13,-1483.37"/>
<path data-id="0-289" d="M1081.50,-1503.55,1146.49,-1507.43"/>
<path data-id="1-20" d="M1513.32,-489.75,1590.82,-534.61"/>
<path data-id="1-27" d="M1513.32,-489.75,1465.82,-413.14"/>
<path data-id="1-75" d="M1513.32,-489.75,1412.10,-510.02"/>
<path data-id="1-112" d="M1513.32,-489.75,1609.35,-484.20"/>
<path data-id="1-276" d="M1513.32,-489.75,1495.34,-573.28"/>
<path data-id="2-54" d="M1950.37,-1693.34,1888.06,-1805.08"/>
<path data-id="2-63" d="M1950.37,-1693.34,1940.44,-1657.59"/>
<path data-id="2-282" d="M1950.37,-1693.34,1994.52,-1656.50"/>
<path data-id="3-118" d="M514.94,-702.64,561.67,-700.45"/>
<path data-id="3-260" d="M514.94,-702.64,524.59,-767.41"/>
<path data-id="3-306" d="M514.94,-702.64,351.74,-775.08"/>
<path data-id="3-367" d="M514.94,-702.64,353.73,-528.16"/>
<path data-id="4-42" d="M27.04,-1176.34,82.64,-1195.12"/>
<path data-id="4-308" d="M27.04,-1176.34,40.19,-1218.02"/>
<path data-id="5-8" d="M1987.35,-335.21,1924.50,-390.93"/>
<path data-id="5-69" d="M1987.35,-335.21,1925.22,-260.60"/>
<path data-id="6-173" d="M913.76,-256.27,935.32,-297.42"/>
<path data-id="6-211" d="M913.76,-256.27,882.47,-257.82"/>
<path data-id="6-346" d="M913.76,-256.27,939.49,-145.50"/>
<path data-id="7-65" d="M1480.88,-1829.26,1369.05,-1782.33"/>
<path data-id="7-175" d="M1480.88,-1829.26,1489.26,-1900.53"/>
<path data-id="7-272" d="M1480.88,-1829.26,1499.06,-1770.96"/>
<path data-id="7-398" d="M1480.88,-1829.26,1422.83,-1890.03"/>
<path data-id="8-257" d="M1924.50,-390.93,1851.14,-289.73"/>
<path data-id="8-279" d="M1924.50,-390.93,1827.71,-424.62"/>
<path data-id="8-305" d="M1924.50,-390.93,1913.73,-555.16"/>
<path data-id="9-39" d="M1645.11,-1894.23,1834.99,-1848.83"/>
<path data-id="9-149" d="M1645.11,-1894.23,1587.92,-1984.06"/>
<path data-id="9-175" d="M1645.11,-1894.23,1489.26,-1900.53"/>
<path data-id="9-313" d="M1645.11,-1894.23,1787.25,-1781.50"/>
<path data-id="10-58" d="M1179.77,-813.09,1207.92,-756.33"/>
<path data-id="10-113" d="M1179.77,-813.09,1212.45,-860.17"/>
<path data-id="10-160" d="M1179.77,-813.09,1255.56,-819.88"/>
<path data-id="10-220" d="M1179.77,-813.09,1066.61,-724.49"/>
<path data-id="10-292" d="M1179.77,-813.09,1045.69,-804.70"/>
<path data-id="11-157" d="M123.23,-845.08,18.39,-733.14"/>
<path data-id="11-212" d="M123.23,-845.08,111.02,-722.45"/>
<path data-id="11-237" d="M123.23,-845.08,133.65,-878.07"/>
<path data-id="11-380" d="M123.23,-845.08,196.56,-725.13"/>
<path data-id="12-78" d="M320.99,-323.39,428.83,-367.22"/>
<path data-id="12-124" d="M320.99,-323.39,278.13,-309.53"/>
<path data-id="12-181" d="M320.99,-323.39,305.08,-351.84"/>
<path data-id="12-236" d="M320.99,-323.39,380.87,-278.52"/>
<path data-id="13-67" d="M1321.49,-441.22,1193.92,-485.34"/>
<path data-id="13-126" d="M1321.49,-441.22,1363.54,-528.61"/>
<path data-id="13-240" d="M1321.49,-441.22,1340.52,-406.67"/>
<path data-id="13-275" d="M1321.49,-441.22,1278.26,-396.35"/>
<path data-id="14-22" d="M1548.32,-1621.11,1667.87,-1442.39"/>
<path data-id="14-164" d="M1548.32,-1621.11,1502.41,-1569.20"/>
<path data-id="14-280" d="M1548.32,-1621.11,1516.97,-1713.51"/>
<path data-id="14-302" d="M1548.32,-1621.11,1748.45,-1598.17"/>
<path data-id="15-41" d="M1794.46,-1523.70,1861.07,-1608.18"/>
<path data-id="15-363" d="M1794.46,-1523.70,1762.21,-1565.36"/>
<path data-id="15-383" d="M1794.46,-1523.70,1806.24,-1487.42"/>
<path data-id="16-124" d="M235.64,-318.85,278.13,-309.53"/>
<path data-id="16-214" d="M235.64,-318.85,115.15,-325.51"/>
<path data-id="16-265" d="M235.64,-318.85,257.22,-367.25"/>
<path data-id="16-378" d="M235.64,-318.85,131.03,-244.58"/>
<path data-id="17-62" d="M999.86,-153.86,1055.14,-239.31"/>
<path data-id="17-115" d="M999.86,-153.86,1038.39,-87.49"/>
<path data-id="17-346" d="M999.86,-153.86,939.49,-145.50"/>
<path data-id="18-35" d="M310.81,-97.82,283.67,-28.04"/>
<path data-id="18-127" d="M310.81,-97.82,386.99,-151.64"/>
<path data-id="18-263" d="M310.81,-97.82,374.85,-77.66"/>
<path data-id="18-342" d="M310.81,-97.82,291.68,-175.51"/>
<path data-id="19-218" d="M1203.45,-1019.81,1225.84,-953.99"/>
<path data-id="19-219" d="M1203.45,-1019.81,1019.87,-966.01"/>
<path data-id="19-387" d="M1203.45,-1019.81,1237.45,-1050.28"/>
<path data-id="20-112" d="M1590.82,-534.61,1609.35,-484.20"/>
<path data-id="20-137" d="M1590.82,-534.61,1620.31,-618.31"/>
<path data-id="20-276" d="M1590.82,-534.61,1495.34,-573.28"/>
<path data-id="20-351" d="M1590.82,-534.61,1649.28,-523.94"/>
<path data-id="21-151" d="M256.94,-1743.27,225.53,-1901.35"/>
<path data-id="21-153" d="M256.94,-1743.27,349.93,-1777.16"/>
<path data-id="21-162" d="M256.94,-1743.27,73.55,-1747.15"/>
<path data-id="21-255" d="M256.94,-1743.27,302.11,-1643.75"/>
<path data-id="21-341" d="M256.94,-1743.27,177.47,-1640.10"/>
<path data-id="21-365" d="M256.94,-1743.27,241.60,-1619.99"/>
<path data-id="22-33" d="M1667.87,-1442.39,1495.53,-1501.53"/>
<path data-id="22-188" d="M1667.87,-1442.39,1627.39,-1350.21"/>
<path data-id="22-287" d="M1667.87,-1442.39,1694.25,-1418.12"/>
<path data-id="23-142" d="M778.02,-1050.33,817.93,-1001.36"/>
<path data-id="23-238" d="M778.02,-1050.33,716.96,-1043.90"/>
<path data-id="23-374" d="M778.02,-1050.33,810.52,-1074.51"/>
<path data-id="24-66" d="M1460.93,-1182.13,1566.37,-1135.22"/>
<path data-id="24-297" d="M1460.93,-1182.13,1475.77,-1079.75"/>
<path data-id="24-335" d="M1460.93,-1182.13,1418.72,-1221.81"/>
<path data-id="25-42" d="M68.74,-1249.81,82.64,-1195.12"/>
<path data-id="25-106" d="M68.74,-1249.81,161.33,-1255.20"/>
<path data-id="25-233" d="M68.74,-1249.81,38.25,-1350.85"/>
<path data-id="25-308" d="M68.74,-1249.81,40.19,-1218.02"/>
<path data-id="26-133" d="M91.10,-1441.28,218.37,-1391.09"/>
<path data-id="26-233" d="M91.10,-1441.28,38.25,-1350.85"/>
<path data-id="26-284" d="M91.10,-1441.28,187.37,-1544.96"/>
<path data-id="27-75" d="M1465.82,-413.14,1412.10,-510.02"/>
<path data-id="27-240" d="M1465.82,-413.14,1340.52,-406.67"/>
<path data-id="27-307" d="M1465.82,-413.14,1515.10,-324.46"/>
<path data-id="28-85" d="M1426.81,-33.72,1456.72,-0.63"/>
<path data-id="28-90" d="M1426.81,-33.72,1413.84,-62.80"/>
<path data-id="28-344" d="M1426.81,-33.72,1457.94,-53.60"/>
<path data-id="29-74" d="M732.90,-314.67,798.93,-452.34"/>
<path data-id="29-131" d="M732.90,-314.67,712.63,-268.19"/>
<path data-id="29-321" d="M732.90,-314.67,791.49,-310.77"/>
<path data-id="29-386" d="M732.90,-314.67,686.46,-333.06"/>
<path data-id="30-197" d="M477.08,-1006.67,462.25,-1108.01"/>
<path data-id="30-235" d="M477.08,-1006.67,389.57,-1009.57"/>
<path data-id="30-311" d="M477.08,-1006.67,460.63,-966.83"/>
<path data-id="30-333" d="M477.08,-1006.67,520.64,-1068.20"/>
<path data-id="31-52" d="M1659.44,-816.77,1787.96,-810.00"/>
<path data-id="31-77" d="M1659.44,-816.77,1663.58,-916.10"/>
<path data-id="31-122" d="M1659.44,-816.77,1706.36,-744.87"/>
<path data-id="31-128" d="M1659.44,-816.77,1554.66,-764.67"/>
<path data-id="32-35" d="M294.32,-2.34,283.67,-28.04"/>
<path data-id="33-164" d="M1495.53,-1501.53,1502.41,-1569.20"/>
<path data-id="33-188" d="M1495.53,-1501.53,1627.39,-1350.21"/>
<path data-id="33-200" d="M1495.53,-1501.53,1408.62,-1358.31"/>
<path data-id="33-350" d="M1495.53,-1501.53,1374.76,-1565.69"/>
<path data-id="33-389" d="M1495.53,-1501.53,1337.41,-1491.95"/>
<path data-id="34-138" d="M528.74,-1846.90,604.68,-1811.94"/>
<path data-id="34-221" d="M528.74,-1846.90,546.87,-1925.15"/>
<path data-id="34-320" d="M528.74,-1846.90,518.26,-1804.73"/>
<path data-id="35-267" d="M283.67,-28.04,221.82,-13.00"/>
<path data-id="36-227" d="M599.07,-447.89,590.55,-558.32"/>
<path data-id="36-298" d="M599.07,-447.89,636.34,-397.66"/>
<path data-id="36-343" d="M599.07,-447.89,523.49,-406.02"/>
<path data-id="37-71" d="M346.39,-1965.91,491.37,-1990.09"/>
<path data-id="37-153" d="M346.39,-1965.91,349.93,-1777.16"/>
<path data-id="37-339" d="M346.39,-1965.91,444.09,-1810.43"/>
<path data-id="37-391" d="M346.39,-1965.91,315.32,-1975.53"/>
<path data-id="38-241" d="M862.81,-1534.15,905.17,-1561.03"/>
<path data-id="38-273" d="M862.81,-1534.15,839.50,-1553.33"/>
<path data-id="38-349" d="M862.81,-1534.15,857.46,-1472.88"/>
<path data-id="39-73" d="M1834.99,-1848.83,1876.27,-1845.50"/>
<path data-id="39-313" d="M1834.99,-1848.83,1787.25,-1781.50"/>
<path data-id="40-64" d="M1152.04,-509.04,1183.01,-554.92"/>
<path data-id="40-67" d="M1152.04,-509.04,1193.92,-485.34"/>
<path data-id="40-161" d="M1152.04,-509.04,1098.16,-365.73"/>
<path data-id="40-354" d="M1152.04,-509.04,1049.30,-455.37"/>
<path data-id="41-63" d="M1861.07,-1608.18,1940.44,-1657.59"/>
<path data-id="41-76" d="M1861.07,-1608.18,1927.14,-1587.07"/>
<path data-id="41-313" d="M1861.07,-1608.18,1787.25,-1781.50"/>
<path data-id="41-340" d="M1861.07,-1608.18,1773.60,-1609.90"/>
<path data-id="42-106" d="M82.64,-1195.12,161.33,-1255.20"/>
<path data-id="42-169" d="M82.64,-1195.12,168.81,-1152.25"/>
<path data-id="42-308" d="M82.64,-1195.12,40.19,-1218.02"/>
<path data-id="42-382" d="M82.64,-1195.12,133.91,-1125.33"/>
<path data-id="43-148" d="M46.01,-103.81,8.50,-111.58"/>
<path data-id="43-209" d="M46.01,-103.81,41.19,-2.33"/>
<path data-id="43-325" d="M46.01,-103.81,77.14,-114.60"/>
<path data-id="44-173" d="M908.01,-428.16,935.32,-297.42"/>
<path data-id="44-202" d="M908.01,-428.16,861.10,-491.34"/>
<path data-id="44-321" d="M908.01,-428.16,791.49,-310.77"/>
<path data-id="44-393" d="M908.01,-428.16,991.91,-471.00"/>
<path data-id="45-109" d="M949.85,-1067.91,1022.36,-1127.14"/>
<path data-id="45-154" d="M949.85,-1067.91,931.05,-1084.60"/>
<path data-id="45-203" d="M949.85,-1067.91,950.94,-1025.81"/>
<path data-id="46-57" d="M358.25,-1518.10,434.78,-1514.34"/>
<path data-id="46-136" d="M358.25,-1518.10,350.81,-1391.86"/>
<path data-id="46-255" d="M358.25,-1518.10,302.11,-1643.75"/>
<path data-id="46-284" d="M358.25,-1518.10,187.37,-1544.96"/>
<path data-id="46-331" d="M358.25,-1518.10,427.77,-1566.93"/>
<path data-id="47-56" d="M486.36,-203.13,439.14,-165.70"/>
<path data-id="47-60" d="M486.36,-203.13,521.83,-264.93"/>
<path data-id="47-236" d="M486.36,-203.13,380.87,-278.52"/>
<path data-id="47-247" d="M486.36,-203.13,565.29,-73.31"/>
<path data-id="47-338" d="M486.36,-203.13,639.44,-184.60"/>
<path data-id="48-114" d="M436.58,-1215.40,378.67,-1161.80"/>
<path data-id="48-156" d="M436.58,-1215.40,463.07,-1312.75"/>
<path data-id="48-197" d="M436.58,-1215.40,462.25,-1108.01"/>
<path data-id="48-228" d="M436.58,-1215.40,517.29,-1278.69"/>
<path data-id="49-200" d="M1313.45,-1265.58,1408.62,-1358.31"/>
<path data-id="49-248" d="M1313.45,-1265.58,1269.11,-1239.14"/>
<path data-id="49-335" d="M1313.45,-1265.58,1418.72,-1221.81"/>
<path data-id="50-97" d="M1856.74,-1370.14,1724.91,-1387.29"/>
<path data-id="50-144" d="M1856.74,-1370.14,1756.10,-1455.02"/>
<path data-id="50-223" d="M1856.74,-1370.14,1811.98,-1238.38"/>
<path data-id="50-352" d="M1856.74,-1370.14,1924.24,-1322.54"/>
<path data-id="50-383" d="M1856.74,-1370.14,1806.24,-1487.42"/>
<path data-id="51-74" d="M824.41,-472.18,798.93,-452.34"/>
<path data-id="51-185" d="M824.41,-472.18,743.89,-618.26"/>
<path data-id="51-202" d="M824.41,-472.18,861.10,-491.34"/>
<path data-id="52-102" d="M1787.96,-810.00,1830.65,-912.88"/>
<path data-id="52-122" d="M1787.96,-810.00,1706.36,-744.87"/>
<path data-id="52-155" d="M1787.96,-810.00,1827.68,-773.93"/>
<path data-id="53-132" d="M1750.05,-492.26,1768.29,-364.83"/>
<path data-id="53-163" d="M1750.05,-492.26,1683.76,-465.10"/>
<path data-id="53-254" d="M1750.05,-492.26,1829.31,-619.86"/>
<path data-id="53-279" d="M1750.05,-492.26,1827.71,-424.62"/>
<path data-id="53-305" d="M1750.05,-492.26,1913.73,-555.16"/>
<path data-id="54-73" d="M1888.06,-1805.08,1876.27,-1845.50"/>
<path data-id="54-313" d="M1888.06,-1805.08,1787.25,-1781.50"/>
<path data-id="55-95" d="M1667.30,-635.99,1624.18,-644.14"/>
<path data-id="55-122" d="M1667.30,-635.99,1706.36,-744.87"/>
<path data-id="55-137" d="M1667.30,-635.99,1620.31,-618.31"/>
<path data-id="55-254" d="M1667.30,-635.99,1829.31,-619.86"/>
<path data-id="56-127" d="M439.14,-165.70,386.99,-151.64"/>
<path data-id="56-247" d="M439.14,-165.70,565.29,-73.31"/>
<path data-id="56-286" d="M439.14,-165.70,389.55,-191.45"/>
<path data-id="57-125" d="M434.78,-1514.34,611.74,-1338.84"/>
<path data-id="57-170" d="M434.78,-1514.34,559.74,-1546.30"/>
<path data-id="57-331" d="M434.78,-1514.34,427.77,-1566.93"/>
<path data-id="58-160" d="M1207.92,-756.33,1255.56,-819.88"/>
<path data-id="58-220" d="M1207.92,-756.33,1066.61,-724.49"/>
<path data-id="58-232" d="M1207.92,-756.33,1124.78,-642.69"/>
<path data-id="58-329" d="M1207.92,-756.33,1205.80,-599.31"/>
<path data-id="58-355" d="M1207.92,-756.33,1305.38,-666.53"/>
<path data-id="58-384" d="M1207.92,-756.33,1244.14,-605.29"/>
<path data-id="59-79" d="M89.10,-627.43,12.98,-628.20"/>
<path data-id="59-86" d="M89.10,-627.43,198.21,-558.84"/>
<path data-id="59-104" d="M89.10,-627.43,39.70,-584.92"/>
<path data-id="59-157" d="M89.10,-627.43,18.39,-733.14"/>
<path data-id="59-212" d="M89.10,-627.43,111.02,-722.45"/>
<path data-id="59-268" d="M89.10,-627.43,186.76,-687.31"/>
<path data-id="60-215" d="M521.83,-264.93,531.71,-317.03"/>
<path data-id="60-236" d="M521.83,-264.93,380.87,-278.52"/>
<path data-id="60-338" d="M521.83,-264.93,639.44,-184.60"/>
<path data-id="61-120" d="M653.36,-1708.33,847.90,-1794.49"/>
<path data-id="61-138" d="M653.36,-1708.33,604.68,-1811.94"/>
<path data-id="61-277" d="M653.36,-1708.33,569.81,-1668.48"/>
<path data-id="61-317" d="M653.36,-1708.33,762.27,-1616.81"/>
<path data-id="61-396" d="M653.36,-1708.33,602.14,-1640.59"/>
<path data-id="62-68" d="M1055.14,-239.31,1160.19,-208.21"/>
<path data-id="62-161" d="M1055.14,-239.31,1098.16,-365.73"/>
<path data-id="62-173" d="M1055.14,-239.31,935.32,-297.42"/>
<path data-id="63-76" d="M1940.44,-1657.59,1927.14,-1587.07"/>
<path data-id="63-282" d="M1940.44,-1657.59,1994.52,-1656.50"/>
<path data-id="64-67" d="M1183.01,-554.92,1193.92,-485.34"/>
<path data-id="64-329" d="M1183.01,-554.92,1205.80,-599.31"/>
<path data-id="65-129" d="M1369.05,-1782.33,1325.81,-1764.35"/>
<path data-id="65-216" d="M1369.05,-1782.33,1422.64,-1742.67"/>
<path data-id="65-398" d="M1369.05,-1782.33,1422.83,-1890.03"/>
<path data-id="66-281" d="M1566.37,-1135.22,1574.10,-1301.70"/>
<path data-id="66-297" d="M1566.37,-1135.22,1475.77,-1079.75"/>
<path data-id="66-315" d="M1566.37,-1135.22,1653.14,-1209.36"/>
<path data-id="66-326" d="M1566.37,-1135.22,1531.33,-1017.21"/>
<path data-id="66-364" d="M1566.37,-1135.22,1632.37,-1102.09"/>
<path data-id="67-161" d="M1193.92,-485.34,1098.16,-365.73"/>
<path data-id="67-275" d="M1193.92,-485.34,1278.26,-396.35"/>
<path data-id="68-96" d="M1160.19,-208.21,1135.43,-59.58"/>
<path data-id="68-115" d="M1160.19,-208.21,1038.39,-87.49"/>
<path data-id="68-161" d="M1160.19,-208.21,1098.16,-365.73"/>
<path data-id="68-361" d="M1160.19,-208.21,1248.78,-216.03"/>
<path data-id="69-257" d="M1925.22,-260.60,1851.14,-289.73"/>
<path data-id="69-264" d="M1925.22,-260.60,1862.28,-204.54"/>
<path data-id="70-133" d="M237.48,-1308.09,218.37,-1391.09"/>
<path data-id="70-136" d="M237.48,-1308.09,350.81,-1391.86"/>
<path data-id="70-300" d="M237.48,-1308.09,223.91,-1250.30"/>
<path data-id="71-221" d="M491.37,-1990.09,546.87,-1925.15"/>
<path data-id="72-152" d="M773.23,-1126.09,624.99,-1235.92"/>
<path data-id="72-242" d="M773.23,-1126.09,945.99,-1200.52"/>
<path data-id="72-262" d="M773.23,-1126.09,861.65,-1265.85"/>
<path data-id="72-374" d="M773.23,-1126.09,810.52,-1074.51"/>
<path data-id="72-388" d="M773.23,-1126.09,770.67,-1266.72"/>
<path data-id="73-182" d="M1876.27,-1845.50,1889.10,-1915.74"/>
<path data-id="74-222" d="M798.93,-452.34,690.25,-577.26"/>
<path data-id="74-298" d="M798.93,-452.34,636.34,-397.66"/>
<path data-id="74-321" d="M798.93,-452.34,791.49,-310.77"/>
<path data-id="75-126" d="M1412.10,-510.02,1363.54,-528.61"/>
<path data-id="75-168" d="M1412.10,-510.02,1413.84,-652.16"/>
<path data-id="75-276" d="M1412.10,-510.02,1495.34,-573.28"/>
<path data-id="76-246" d="M1927.14,-1587.07,1971.72,-1561.34"/>
<path data-id="77-243" d="M1663.58,-916.10,1707.80,-976.06"/>
<path data-id="77-395" d="M1663.58,-916.10,1602.55,-1015.42"/>
<path data-id="78-234" d="M428.83,-367.22,346.02,-444.43"/>
<path data-id="78-236" d="M428.83,-367.22,380.87,-278.52"/>
<path data-id="78-330" d="M428.83,-367.22,492.06,-335.35"/>
<path data-id="78-343" d="M428.83,-367.22,523.49,-406.02"/>
<path data-id="79-104" d="M12.98,-628.20,39.70,-584.92"/>
<path data-id="79-157" d="M12.98,-628.20,18.39,-733.14"/>
<path data-id="80-91" d="M1538.23,-231.41,1621.93,-157.87"/>
<path data-id="80-93" d="M1538.23,-231.41,1473.50,-235.81"/>
<path data-id="80-307" d="M1538.23,-231.41,1515.10,-324.46"/>
<path data-id="80-309" d="M1538.23,-231.41,1584.76,-120.27"/>
<path data-id="80-318" d="M1538.23,-231.41,1612.78,-260.39"/>
<path data-id="81-116" d="M725.53,-1875.63,693.65,-1922.75"/>
<path data-id="81-208" d="M725.53,-1875.63,822.09,-1872.91"/>
<path data-id="81-397" d="M725.53,-1875.63,641.66,-1843.42"/>
<path data-id="82-189" d="M318.87,-872.46,219.70,-889.02"/>
<path data-id="82-206" d="M318.87,-872.46,338.81,-972.38"/>
<path data-id="82-306" d="M318.87,-872.46,351.74,-775.08"/>
<path data-id="82-356" d="M318.87,-872.46,447.00,-894.38"/>
<path data-id="83-192" d="M1869.70,-1030.16,1844.29,-956.30"/>
<path data-id="83-205" d="M1869.70,-1030.16,1789.38,-1005.49"/>
<path data-id="83-359" d="M1869.70,-1030.16,1822.71,-1086.65"/>
<path data-id="83-381" d="M1869.70,-1030.16,1982.43,-1049.27"/>
<path data-id="84-177" d="M1412.31,-1914.48,1284.43,-1955.00"/>
<path data-id="84-398" d="M1412.31,-1914.48,1422.83,-1890.03"/>
<path data-id="85-344" d="M1456.72,-0.63,1457.94,-53.60"/>
<path data-id="86-268" d="M198.21,-558.84,186.76,-687.31"/>
<path data-id="86-296" d="M198.21,-558.84,180.27,-497.98"/>
<path data-id="86-367" d="M198.21,-558.84,353.73,-528.16"/>
<path data-id="87-119" d="M840.00,-236.46,694.42,-153.66"/>
<path data-id="87-211" d="M840.00,-236.46,882.47,-257.82"/>
<path data-id="87-310" d="M840.00,-236.46,837.79,-138.87"/>
<path data-id="87-321" d="M840.00,-236.46,791.49,-310.77"/>
<path data-id="88-243" d="M1688.93,-1002.86,1707.80,-976.06"/>
<path data-id="88-364" d="M1688.93,-1002.86,1632.37,-1102.09"/>
<path data-id="88-395" d="M1688.93,-1002.86,1602.55,-1015.42"/>
<path data-id="89-117" d="M1872.39,-14.66,1883.75,-165.20"/>
<path data-id="89-261" d="M1872.39,-14.66,1805.87,-38.68"/>
<path data-id="90-174" d="M1413.84,-62.80,1342.44,-47.23"/>
<path data-id="90-183" d="M1413.84,-62.80,1415.02,-169.77"/>
<path data-id="90-195" d="M1413.84,-62.80,1343.37,-102.15"/>
<path data-id="90-344" d="M1413.84,-62.80,1457.94,-53.60"/>
<path data-id="91-103" d="M1621.93,-157.87,1679.10,-119.11"/>
<path data-id="91-309" d="M1621.93,-157.87,1584.76,-120.27"/>
<path data-id="91-318" d="M1621.93,-157.87,1612.78,-260.39"/>
<path data-id="92-100" d="M688.41,-631.40,725.49,-648.64"/>
<path data-id="92-147" d="M688.41,-631.40,715.26,-604.75"/>
<path data-id="92-304" d="M688.41,-631.40,633.72,-607.89"/>
<path data-id="92-370" d="M688.41,-631.40,619.33,-706.30"/>
<path data-id="93-196" d="M1473.50,-235.81,1451.20,-215.13"/>
<path data-id="93-307" d="M1473.50,-235.81,1515.10,-324.46"/>
<path data-id="94-113" d="M1223.24,-890.03,1212.45,-860.17"/>
<path data-id="94-218" d="M1223.24,-890.03,1225.84,-953.99"/>
<path data-id="95-137" d="M1624.18,-644.14,1620.31,-618.31"/>
<path data-id="95-301" d="M1624.18,-644.14,1544.91,-657.07"/>
<path data-id="96-115" d="M1135.43,-59.58,1038.39,-87.49"/>
<path data-id="96-274" d="M1135.43,-59.58,1147.34,-11.73"/>
<path data-id="96-323" d="M1135.43,-59.58,1242.97,-35.62"/>
<path data-id="97-144" d="M1724.91,-1387.29,1756.10,-1455.02"/>
<path data-id="97-188" d="M1724.91,-1387.29,1627.39,-1350.21"/>
<path data-id="97-207" d="M1724.91,-1387.29,1687.44,-1273.12"/>
<path data-id="97-223" d="M1724.91,-1387.29,1811.98,-1238.38"/>
<path data-id="97-287" d="M1724.91,-1387.29,1694.25,-1418.12"/>
<path data-id="98-166" d="M1292.66,-1681.51,1391.63,-1592.08"/>
<path data-id="98-258" d="M1292.66,-1681.51,1125.33,-1665.51"/>
<path data-id="98-278" d="M1292.66,-1681.51,1305.44,-1737.68"/>
<path data-id="98-327" d="M1292.66,-1681.51,1270.10,-1743.53"/>
<path data-id="98-371" d="M1292.66,-1681.51,1253.12,-1599.77"/>
<path data-id="99-167" d="M701.68,-952.85,627.62,-1023.62"/>
<path data-id="99-217" d="M701.68,-952.85,635.84,-834.73"/>
<path data-id="99-238" d="M701.68,-952.85,716.96,-1043.90"/>
<path data-id="99-239" d="M701.68,-952.85,764.61,-929.19"/>
<path data-id="100-147" d="M725.49,-648.64,715.26,-604.75"/>
<path data-id="100-158" d="M725.49,-648.64,795.94,-787.50"/>
<path data-id="100-185" d="M725.49,-648.64,743.89,-618.26"/>
<path data-id="100-319" d="M725.49,-648.64,741.43,-796.58"/>
<path data-id="101-129" d="M1258.88,-1802.39,1325.81,-1764.35"/>
<path data-id="101-187" d="M1258.88,-1802.39,1266.29,-1907.73"/>
<path data-id="101-327" d="M1258.88,-1802.39,1270.10,-1743.53"/>
<path data-id="101-390" d="M1258.88,-1802.39,1172.19,-1835.94"/>
<path data-id="102-192" d="M1830.65,-912.88,1844.29,-956.30"/>
<path data-id="102-392" d="M1830.65,-912.88,1864.33,-794.17"/>
<path data-id="103-198" d="M1679.10,-119.11,1671.51,-32.28"/>
<path data-id="103-399" d="M1679.10,-119.11,1734.95,-145.49"/>
<path data-id="104-296" d="M39.70,-584.92,180.27,-497.98"/>
<path data-id="105-143" d="M925.35,-598.74,951.05,-622.81"/>
<path data-id="105-202" d="M925.35,-598.74,861.10,-491.34"/>
<path data-id="105-369" d="M925.35,-598.74,835.72,-627.52"/>
<path data-id="105-393" d="M925.35,-598.74,991.91,-471.00"/>
<path data-id="106-169" d="M161.33,-1255.20,168.81,-1152.25"/>
<path data-id="106-300" d="M161.33,-1255.20,223.91,-1250.30"/>
<path data-id="107-153" d="M473.59,-1692.53,349.93,-1777.16"/>
<path data-id="107-255" d="M473.59,-1692.53,302.11,-1643.75"/>
<path data-id="107-277" d="M473.59,-1692.53,569.81,-1668.48"/>
<path data-id="107-331" d="M473.59,-1692.53,427.77,-1566.93"/>
<path data-id="107-385" d="M473.59,-1692.53,509.36,-1732.50"/>
<path data-id="108-314" d="M72.23,-155.16,109.70,-203.40"/>
<path data-id="108-325" d="M72.23,-155.16,77.14,-114.60"/>
<path data-id="108-377" d="M72.23,-155.16,17.76,-204.11"/>
<path data-id="109-159" d="M1022.36,-1127.14,1123.92,-1135.11"/>
<path data-id="109-256" d="M1022.36,-1127.14,1026.01,-1160.11"/>
<path data-id="110-160" d="M1327.65,-925.72,1255.56,-819.88"/>
<path data-id="110-191" d="M1327.65,-925.72,1373.47,-777.00"/>
<path data-id="110-322" d="M1327.65,-925.72,1280.54,-961.97"/>
<path data-id="110-326" d="M1327.65,-925.72,1531.33,-1017.21"/>
<path data-id="111-213" d="M1784.25,-214.05,1788.45,-244.11"/>
<path data-id="111-264" d="M1784.25,-214.05,1862.28,-204.54"/>
<path data-id="111-288" d="M1784.25,-214.05,1801.90,-159.18"/>
<path data-id="111-318" d="M1784.25,-214.05,1612.78,-260.39"/>
<path data-id="111-399" d="M1784.25,-214.05,1734.95,-145.49"/>
<path data-id="112-163" d="M1609.35,-484.20,1683.76,-465.10"/>
<path data-id="112-307" d="M1609.35,-484.20,1515.10,-324.46"/>
<path data-id="112-351" d="M1609.35,-484.20,1649.28,-523.94"/>
<path data-id="113-160" d="M1212.45,-860.17,1255.56,-819.88"/>
<path data-id="114-194" d="M378.67,-1161.80,232.33,-1097.35"/>
<path data-id="114-324" d="M378.67,-1161.80,226.45,-1219.36"/>
<path data-id="114-328" d="M378.67,-1161.80,391.23,-1120.86"/>
<path data-id="115-348" d="M1038.39,-87.49,899.81,-8.07"/>
<path data-id="116-312" d="M693.65,-1922.75,666.50,-1946.64"/>
<path data-id="116-397" d="M693.65,-1922.75,641.66,-1843.42"/>
<path data-id="117-264" d="M1883.75,-165.20,1862.28,-204.54"/>
<path data-id="117-288" d="M1883.75,-165.20,1801.90,-159.18"/>
<path data-id="118-130" d="M561.67,-700.45,576.80,-656.47"/>
<path data-id="118-179" d="M561.67,-700.45,597.94,-720.75"/>
<path data-id="118-260" d="M561.67,-700.45,524.59,-767.41"/>
<path data-id="119-131" d="M694.42,-153.66,712.63,-268.19"/>
<path data-id="119-310" d="M694.42,-153.66,837.79,-138.87"/>
<path data-id="119-338" d="M694.42,-153.66,639.44,-184.60"/>
<path data-id="120-208" d="M847.90,-1794.49,822.09,-1872.91"/>
<path data-id="120-250" d="M847.90,-1794.49,921.45,-1749.16"/>
<path data-id="120-269" d="M847.90,-1794.49,907.08,-1845.10"/>
<path data-id="120-317" d="M847.90,-1794.49,762.27,-1616.81"/>
<path data-id="121-261" d="M1791.99,-126.96,1805.87,-38.68"/>
<path data-id="121-288" d="M1791.99,-126.96,1801.90,-159.18"/>
<path data-id="121-295" d="M1791.99,-126.96,1764.72,-119.26"/>
<path data-id="122-254" d="M1706.36,-744.87,1829.31,-619.86"/>
<path data-id="123-199" d="M1090.40,-1802.27,1062.60,-1814.03"/>
<path data-id="123-299" d="M1090.40,-1802.27,1125.62,-1775.45"/>
<path data-id="124-181" d="M278.13,-309.53,305.08,-351.84"/>
<path data-id="124-265" d="M278.13,-309.53,257.22,-367.25"/>
<path data-id="124-342" d="M278.13,-309.53,291.68,-175.51"/>
<path data-id="125-139" d="M611.74,-1338.84,623.20,-1306.36"/>
<path data-id="125-140" d="M611.74,-1338.84,691.60,-1394.06"/>
<path data-id="125-228" d="M611.74,-1338.84,517.29,-1278.69"/>
<path data-id="126-168" d="M1363.54,-528.61,1413.84,-652.16"/>
<path data-id="126-355" d="M1363.54,-528.61,1305.38,-666.53"/>
<path data-id="126-384" d="M1363.54,-528.61,1244.14,-605.29"/>
<path data-id="127-263" d="M386.99,-151.64,374.85,-77.66"/>
<path data-id="127-286" d="M386.99,-151.64,389.55,-191.45"/>
<path data-id="127-342" d="M386.99,-151.64,291.68,-175.51"/>
<path data-id="128-301" d="M1554.66,-764.67,1544.91,-657.07"/>
<path data-id="128-379" d="M1554.66,-764.67,1466.42,-715.88"/>
<path data-id="129-278" d="M1325.81,-1764.35,1305.44,-1737.68"/>
<path data-id="130-227" d="M576.80,-656.47,590.55,-558.32"/>
<path data-id="130-304" d="M576.80,-656.47,633.72,-607.89"/>
<path data-id="130-370" d="M576.80,-656.47,619.33,-706.30"/>
<path data-id="131-290" d="M712.63,-268.19,674.64,-308.68"/>
<path data-id="131-338" d="M712.63,-268.19,639.44,-184.60"/>
<path data-id="132-163" d="M1768.29,-364.83,1683.76,-465.10"/>
<path data-id="132-213" d="M1768.29,-364.83,1788.45,-244.11"/>
<path data-id="132-257" d="M1768.29,-364.83,1851.14,-289.73"/>
<path data-id="132-279" d="M1768.29,-364.83,1827.71,-424.62"/>
<path data-id="132-318" d="M1768.29,-364.83,1612.78,-260.39"/>
<path data-id="133-136" d="M218.37,-1391.09,350.81,-1391.86"/>
<path data-id="133-284" d="M218.37,-1391.09,187.37,-1544.96"/>
<path data-id="134-224" d="M1048.96,-1546.56,984.13,-1483.37"/>
<path data-id="134-252" d="M1048.96,-1546.56,1060.06,-1589.73"/>
<path data-id="135-151" d="M256.37,-1960.19,225.53,-1901.35"/>
<path data-id="135-391" d="M256.37,-1960.19,315.32,-1975.53"/>
<path data-id="136-156" d="M350.81,-1391.86,463.07,-1312.75"/>
<path data-id="137-351" d="M1620.31,-618.31,1649.28,-523.94"/>
<path data-id="138-320" d="M604.68,-1811.94,518.26,-1804.73"/>
<path data-id="138-397" d="M604.68,-1811.94,641.66,-1843.42"/>
<path data-id="139-152" d="M623.20,-1306.36,624.99,-1235.92"/>
<path data-id="139-228" d="M623.20,-1306.36,517.29,-1278.69"/>
<path data-id="139-388" d="M623.20,-1306.36,770.67,-1266.72"/>
<path data-id="140-204" d="M691.60,-1394.06,774.49,-1395.57"/>
<path data-id="140-294" d="M691.60,-1394.06,647.82,-1495.77"/>
<path data-id="140-388" d="M691.60,-1394.06,770.67,-1266.72"/>
<path data-id="141-171" d="M137.48,-1003.50,104.77,-999.34"/>
<path data-id="141-193" d="M137.48,-1003.50,221.35,-1009.33"/>
<path data-id="141-345" d="M137.48,-1003.50,135.06,-946.64"/>
<path data-id="141-382" d="M137.48,-1003.50,133.91,-1125.33"/>
<path data-id="142-154" d="M817.93,-1001.36,931.05,-1084.60"/>
<path data-id="142-203" d="M817.93,-1001.36,950.94,-1025.81"/>
<path data-id="142-336" d="M817.93,-1001.36,806.52,-956.14"/>
<path data-id="142-374" d="M817.93,-1001.36,810.52,-1074.51"/>
<path data-id="143-220" d="M951.05,-622.81,1066.61,-724.49"/>
<path data-id="143-232" d="M951.05,-622.81,1124.78,-642.69"/>
<path data-id="143-283" d="M951.05,-622.81,893.24,-747.47"/>
<path data-id="144-287" d="M1756.10,-1455.02,1694.25,-1418.12"/>
<path data-id="144-383" d="M1756.10,-1455.02,1806.24,-1487.42"/>
<path data-id="145-167" d="M548.68,-874.09,627.62,-1023.62"/>
<path data-id="145-217" d="M548.68,-874.09,635.84,-834.73"/>
<path data-id="145-260" d="M548.68,-874.09,524.59,-767.41"/>
<path data-id="145-356" d="M548.68,-874.09,447.00,-894.38"/>
<path data-id="146-214" d="M66.90,-303.21,115.15,-325.51"/>
<path data-id="146-377" d="M66.90,-303.21,17.76,-204.11"/>
<path data-id="146-378" d="M66.90,-303.21,131.03,-244.58"/>
<path data-id="147-185" d="M715.26,-604.75,743.89,-618.26"/>
<path data-id="147-222" d="M715.26,-604.75,690.25,-577.26"/>
<path data-id="148-377" d="M8.50,-111.58,17.76,-204.11"/>
<path data-id="149-175" d="M1587.92,-1984.06,1489.26,-1900.53"/>
<path data-id="150-203" d="M968.08,-907.93,950.94,-1025.81"/>
<path data-id="150-219" d="M968.08,-907.93,1019.87,-966.01"/>
<path data-id="150-293" d="M968.08,-907.93,966.60,-860.59"/>
<path data-id="151-153" d="M225.53,-1901.35,349.93,-1777.16"/>
<path data-id="151-162" d="M225.53,-1901.35,73.55,-1747.15"/>
<path data-id="151-366" d="M225.53,-1901.35,79.67,-1924.15"/>
<path data-id="152-270" d="M624.99,-1235.92,583.65,-1202.43"/>
<path data-id="152-388" d="M624.99,-1235.92,770.67,-1266.72"/>
<path data-id="153-255" d="M349.93,-1777.16,302.11,-1643.75"/>
<path data-id="153-339" d="M349.93,-1777.16,444.09,-1810.43"/>
<path data-id="154-242" d="M931.05,-1084.60,945.99,-1200.52"/>
<path data-id="154-374" d="M931.05,-1084.60,810.52,-1074.51"/>
<path data-id="155-254" d="M1827.68,-773.93,1829.31,-619.86"/>
<path data-id="155-392" d="M1827.68,-773.93,1864.33,-794.17"/>
<path data-id="156-228" d="M463.07,-1312.75,517.29,-1278.69"/>
<path data-id="157-212" d="M18.39,-733.14,111.02,-722.45"/>
<path data-id="158-239" d="M795.94,-787.50,764.61,-929.19"/>
<path data-id="158-283" d="M795.94,-787.50,893.24,-747.47"/>
<path data-id="158-319" d="M795.94,-787.50,741.43,-796.58"/>
<path data-id="158-337" d="M795.94,-787.50,810.90,-644.97"/>
<path data-id="158-368" d="M795.94,-787.50,895.97,-855.07"/>
<path data-id="159-176" d="M1123.92,-1135.11,1167.03,-1131.79"/>
<path data-id="159-256" d="M1123.92,-1135.11,1026.01,-1160.11"/>
<path data-id="160-191" d="M1255.56,-819.88,1373.47,-777.00"/>
<path data-id="161-173" d="M1098.16,-365.73,935.32,-297.42"/>
<path data-id="161-275" d="M1098.16,-365.73,1278.26,-396.35"/>
<path data-id="161-354" d="M1098.16,-365.73,1049.30,-455.37"/>
<path data-id="162-244" d="M73.55,-1747.15,35.84,-1660.44"/>
<path data-id="162-341" d="M73.55,-1747.15,177.47,-1640.10"/>
<path data-id="162-366" d="M73.55,-1747.15,79.67,-1924.15"/>
<path data-id="163-318" d="M1683.76,-465.10,1612.78,-260.39"/>
<path data-id="163-351" d="M1683.76,-465.10,1649.28,-523.94"/>
<path data-id="164-334" d="M1502.41,-1569.20,1450.87,-1602.33"/>
<path data-id="165-168" d="M1416.75,-692.67,1413.84,-652.16"/>
<path data-id="165-191" d="M1416.75,-692.67,1373.47,-777.00"/>
<path data-id="165-355" d="M1416.75,-692.67,1305.38,-666.53"/>
<path data-id="165-379" d="M1416.75,-692.67,1466.42,-715.88"/>
<path data-id="166-216" d="M1391.63,-1592.08,1422.64,-1742.67"/>
<path data-id="166-334" d="M1391.63,-1592.08,1450.87,-1602.33"/>
<path data-id="166-350" d="M1391.63,-1592.08,1374.76,-1565.69"/>
<path data-id="167-238" d="M627.62,-1023.62,716.96,-1043.90"/>
<path data-id="167-360" d="M627.62,-1023.62,602.85,-1079.08"/>
<path data-id="168-276" d="M1413.84,-652.16,1495.34,-573.28"/>
<path data-id="168-355" d="M1413.84,-652.16,1305.38,-666.53"/>
<path data-id="169-194" d="M168.81,-1152.25,232.33,-1097.35"/>
<path data-id="169-324" d="M168.81,-1152.25,226.45,-1219.36"/>
<path data-id="169-382" d="M168.81,-1152.25,133.91,-1125.33"/>
<path data-id="170-294" d="M559.74,-1546.30,647.82,-1495.77"/>
<path data-id="170-331" d="M559.74,-1546.30,427.77,-1566.93"/>
<path data-id="170-396" d="M559.74,-1546.30,602.14,-1640.59"/>
<path data-id="171-345" d="M104.77,-999.34,135.06,-946.64"/>
<path data-id="172-204" d="M721.10,-1558.37,774.49,-1395.57"/>
<path data-id="172-273" d="M721.10,-1558.37,839.50,-1553.33"/>
<path data-id="172-294" d="M721.10,-1558.37,647.82,-1495.77"/>
<path data-id="172-317" d="M721.10,-1558.37,762.27,-1616.81"/>
<path data-id="172-396" d="M721.10,-1558.37,602.14,-1640.59"/>
<path data-id="174-195" d="M1342.44,-47.23,1343.37,-102.15"/>
<path data-id="174-266" d="M1342.44,-47.23,1291.68,-54.88"/>
<path data-id="175-398" d="M1489.26,-1900.53,1422.83,-1890.03"/>
<path data-id="176-226" d="M1167.03,-1131.79,1199.20,-1175.69"/>
<path data-id="176-387" d="M1167.03,-1131.79,1237.45,-1050.28"/>
<path data-id="177-187" d="M1284.43,-1955.00,1266.29,-1907.73"/>
<path data-id="177-303" d="M1284.43,-1955.00,1154.50,-1994.29"/>
<path data-id="177-375" d="M1284.43,-1955.00,1297.21,-1998.80"/>
<path data-id="178-183" d="M1313.10,-305.24,1415.02,-169.77"/>
<path data-id="178-196" d="M1313.10,-305.24,1451.20,-215.13"/>
<path data-id="178-240" d="M1313.10,-305.24,1340.52,-406.67"/>
<path data-id="178-275" d="M1313.10,-305.24,1278.26,-396.35"/>
<path data-id="178-361" d="M1313.10,-305.24,1248.78,-216.03"/>
<path data-id="179-225" d="M597.94,-720.75,652.18,-793.62"/>
<path data-id="179-260" d="M597.94,-720.75,524.59,-767.41"/>
<path data-id="179-370" d="M597.94,-720.75,619.33,-706.30"/>
<path data-id="180-224" d="M1093.86,-1442.25,984.13,-1483.37"/>
<path data-id="180-249" d="M1093.86,-1442.25,1198.79,-1325.93"/>
<path data-id="180-289" d="M1093.86,-1442.25,1146.49,-1507.43"/>
<path data-id="181-234" d="M305.08,-351.84,346.02,-444.43"/>
<path data-id="181-265" d="M305.08,-351.84,257.22,-367.25"/>
<path data-id="183-195" d="M1415.02,-169.77,1343.37,-102.15"/>
<path data-id="183-196" d="M1415.02,-169.77,1451.20,-215.13"/>
<path data-id="183-361" d="M1415.02,-169.77,1248.78,-216.03"/>
<path data-id="184-215" d="M577.42,-346.63,531.71,-317.03"/>
<path data-id="184-290" d="M577.42,-346.63,674.64,-308.68"/>
<path data-id="184-298" d="M577.42,-346.63,636.34,-397.66"/>
<path data-id="184-343" d="M577.42,-346.63,523.49,-406.02"/>
<path data-id="185-337" d="M743.89,-618.26,810.90,-644.97"/>
<path data-id="186-310" d="M873.01,-2.07,837.79,-138.87"/>
<path data-id="186-348" d="M873.01,-2.07,899.81,-8.07"/>
<path data-id="187-303" d="M1266.29,-1907.73,1154.50,-1994.29"/>
<path data-id="187-390" d="M1266.29,-1907.73,1172.19,-1835.94"/>
<path data-id="188-207" d="M1627.39,-1350.21,1687.44,-1273.12"/>
<path data-id="188-281" d="M1627.39,-1350.21,1574.10,-1301.70"/>
<path data-id="188-287" d="M1627.39,-1350.21,1694.25,-1418.12"/>
<path data-id="189-193" d="M219.70,-889.02,221.35,-1009.33"/>
<path data-id="189-253" d="M219.70,-889.02,162.26,-876.27"/>
<path data-id="189-372" d="M219.70,-889.02,284.66,-723.08"/>
<path data-id="189-380" d="M219.70,-889.02,196.56,-725.13"/>
<path data-id="190-226" d="M1252.38,-1210.66,1199.20,-1175.69"/>
<path data-id="190-248" d="M1252.38,-1210.66,1269.11,-1239.14"/>
<path data-id="191-355" d="M1373.47,-777.00,1305.38,-666.53"/>
<path data-id="192-205" d="M1844.29,-956.30,1789.38,-1005.49"/>
<path data-id="193-194" d="M221.35,-1009.33,232.33,-1097.35"/>
<path data-id="193-394" d="M221.35,-1009.33,287.02,-1012.62"/>
<path data-id="194-328" d="M232.33,-1097.35,391.23,-1120.86"/>
<path data-id="194-394" d="M232.33,-1097.35,287.02,-1012.62"/>
<path data-id="195-266" d="M1343.37,-102.15,1291.68,-54.88"/>
<path data-id="195-361" d="M1343.37,-102.15,1248.78,-216.03"/>
<path data-id="197-270" d="M462.25,-1108.01,583.65,-1202.43"/>
<path data-id="197-291" d="M462.25,-1108.01,389.95,-1058.05"/>
<path data-id="197-328" d="M462.25,-1108.01,391.23,-1120.86"/>
<path data-id="197-333" d="M462.25,-1108.01,520.64,-1068.20"/>
<path data-id="198-261" d="M1671.51,-32.28,1805.87,-38.68"/>
<path data-id="198-309" d="M1671.51,-32.28,1584.76,-120.27"/>
<path data-id="199-357" d="M1062.60,-1814.03,1008.46,-1836.15"/>
<path data-id="200-376" d="M1408.62,-1358.31,1477.92,-1285.40"/>
<path data-id="200-389" d="M1408.62,-1358.31,1337.41,-1491.95"/>
<path data-id="201-242" d="M926.57,-1280.27,945.99,-1200.52"/>
<path data-id="201-249" d="M926.57,-1280.27,1198.79,-1325.93"/>
<path data-id="201-251" d="M926.57,-1280.27,955.99,-1422.15"/>
<path data-id="201-262" d="M926.57,-1280.27,861.65,-1265.85"/>
<path data-id="202-369" d="M861.10,-491.34,835.72,-627.52"/>
<path data-id="203-219" d="M950.94,-1025.81,1019.87,-966.01"/>
<path data-id="204-271" d="M774.49,-1395.57,820.53,-1381.03"/>
<path data-id="205-243" d="M1789.38,-1005.49,1707.80,-976.06"/>
<path data-id="205-332" d="M1789.38,-1005.49,1788.74,-1083.99"/>
<path data-id="206-235" d="M338.81,-972.38,389.57,-1009.57"/>
<path data-id="206-356" d="M338.81,-972.38,447.00,-894.38"/>
<path data-id="206-394" d="M338.81,-972.38,287.02,-1012.62"/>
<path data-id="207-231" d="M1687.44,-1273.12,1753.59,-1218.67"/>
<path data-id="207-281" d="M1687.44,-1273.12,1574.10,-1301.70"/>
<path data-id="207-315" d="M1687.44,-1273.12,1653.14,-1209.36"/>
<path data-id="208-269" d="M822.09,-1872.91,907.08,-1845.10"/>
<path data-id="209-267" d="M41.19,-2.33,221.82,-13.00"/>
<path data-id="210-241" d="M976.08,-1647.86,905.17,-1561.03"/>
<path data-id="210-250" d="M976.08,-1647.86,921.45,-1749.16"/>
<path data-id="210-252" d="M976.08,-1647.86,1060.06,-1589.73"/>
<path data-id="210-362" d="M976.08,-1647.86,1100.41,-1697.55"/>
<path data-id="212-268" d="M111.02,-722.45,186.76,-687.31"/>
<path data-id="212-380" d="M111.02,-722.45,196.56,-725.13"/>
<path data-id="213-257" d="M1788.45,-244.11,1851.14,-289.73"/>
<path data-id="213-264" d="M1788.45,-244.11,1862.28,-204.54"/>
<path data-id="213-318" d="M1788.45,-244.11,1612.78,-260.39"/>
<path data-id="214-316" d="M115.15,-325.51,150.09,-443.95"/>
<path data-id="214-378" d="M115.15,-325.51,131.03,-244.58"/>
<path data-id="215-330" d="M531.71,-317.03,492.06,-335.35"/>
<path data-id="216-272" d="M1422.64,-1742.67,1499.06,-1770.96"/>
<path data-id="216-280" d="M1422.64,-1742.67,1516.97,-1713.51"/>
<path data-id="216-334" d="M1422.64,-1742.67,1450.87,-1602.33"/>
<path data-id="217-225" d="M635.84,-834.73,652.18,-793.62"/>
<path data-id="217-260" d="M635.84,-834.73,524.59,-767.41"/>
<path data-id="218-322" d="M1225.84,-953.99,1280.54,-961.97"/>
<path data-id="220-232" d="M1066.61,-724.49,1124.78,-642.69"/>
<path data-id="220-283" d="M1066.61,-724.49,893.24,-747.47"/>
<path data-id="220-292" d="M1066.61,-724.49,1045.69,-804.70"/>
<path data-id="221-312" d="M546.87,-1925.15,666.50,-1946.64"/>
<path data-id="221-397" d="M546.87,-1925.15,641.66,-1843.42"/>
<path data-id="222-304" d="M690.25,-577.26,633.72,-607.89"/>
<path data-id="223-231" d="M1811.98,-1238.38,1753.59,-1218.67"/>
<path data-id="223-245" d="M1811.98,-1238.38,1986.11,-1225.30"/>
<path data-id="223-352" d="M1811.98,-1238.38,1924.24,-1322.54"/>
<path data-id="223-359" d="M1811.98,-1238.38,1822.71,-1086.65"/>
<path data-id="224-241" d="M984.13,-1483.37,905.17,-1561.03"/>
<path data-id="224-251" d="M984.13,-1483.37,955.99,-1422.15"/>
<path data-id="224-349" d="M984.13,-1483.37,857.46,-1472.88"/>
<path data-id="225-319" d="M652.18,-793.62,741.43,-796.58"/>
<path data-id="225-370" d="M652.18,-793.62,619.33,-706.30"/>
<path data-id="227-304" d="M590.55,-558.32,633.72,-607.89"/>
<path data-id="227-367" d="M590.55,-558.32,353.73,-528.16"/>
<path data-id="228-270" d="M517.29,-1278.69,583.65,-1202.43"/>
<path data-id="229-252" d="M1198.75,-1570.82,1060.06,-1589.73"/>
<path data-id="229-258" d="M1198.75,-1570.82,1125.33,-1665.51"/>
<path data-id="229-289" d="M1198.75,-1570.82,1146.49,-1507.43"/>
<path data-id="229-371" d="M1198.75,-1570.82,1253.12,-1599.77"/>
<path data-id="229-373" d="M1198.75,-1570.82,1280.45,-1533.42"/>
<path data-id="230-297" d="M1320.37,-1030.21,1475.77,-1079.75"/>
<path data-id="230-322" d="M1320.37,-1030.21,1280.54,-961.97"/>
<path data-id="230-387" d="M1320.37,-1030.21,1237.45,-1050.28"/>
<path data-id="231-315" d="M1753.59,-1218.67,1653.14,-1209.36"/>
<path data-id="231-332" d="M1753.59,-1218.67,1788.74,-1083.99"/>
<path data-id="232-329" d="M1124.78,-642.69,1205.80,-599.31"/>
<path data-id="234-296" d="M346.02,-444.43,180.27,-497.98"/>
<path data-id="234-367" d="M346.02,-444.43,353.73,-528.16"/>
<path data-id="235-291" d="M389.57,-1009.57,389.95,-1058.05"/>
<path data-id="235-311" d="M389.57,-1009.57,460.63,-966.83"/>
<path data-id="236-286" d="M380.87,-278.52,389.55,-191.45"/>
<path data-id="237-253" d="M133.65,-878.07,162.26,-876.27"/>
<path data-id="237-345" d="M133.65,-878.07,135.06,-946.64"/>
<path data-id="239-319" d="M764.61,-929.19,741.43,-796.58"/>
<path data-id="239-336" d="M764.61,-929.19,806.52,-956.14"/>
<path data-id="240-275" d="M1340.52,-406.67,1278.26,-396.35"/>
<path data-id="242-256" d="M945.99,-1200.52,1026.01,-1160.11"/>
<path data-id="244-259" d="M35.84,-1660.44,118.00,-1616.07"/>
<path data-id="245-352" d="M1986.11,-1225.30,1924.24,-1322.54"/>
<path data-id="245-359" d="M1986.11,-1225.30,1822.71,-1086.65"/>
<path data-id="245-381" d="M1986.11,-1225.30,1982.43,-1049.27"/>
<path data-id="246-282" d="M1971.72,-1561.34,1994.52,-1656.50"/>
<path data-id="247-263" d="M565.29,-73.31,374.85,-77.66"/>
<path data-id="247-338" d="M565.29,-73.31,639.44,-184.60"/>
<path data-id="248-249" d="M1269.11,-1239.14,1198.79,-1325.93"/>
<path data-id="249-373" d="M1198.79,-1325.93,1280.45,-1533.42"/>
<path data-id="249-389" d="M1198.79,-1325.93,1337.41,-1491.95"/>
<path data-id="250-269" d="M921.45,-1749.16,907.08,-1845.10"/>
<path data-id="250-317" d="M921.45,-1749.16,762.27,-1616.81"/>
<path data-id="250-357" d="M921.45,-1749.16,1008.46,-1836.15"/>
<path data-id="251-271" d="M955.99,-1422.15,820.53,-1381.03"/>
<path data-id="251-349" d="M955.99,-1422.15,857.46,-1472.88"/>
<path data-id="252-258" d="M1060.06,-1589.73,1125.33,-1665.51"/>
<path data-id="254-305" d="M1829.31,-619.86,1913.73,-555.16"/>
<path data-id="255-331" d="M302.11,-1643.75,427.77,-1566.93"/>
<path data-id="255-365" d="M302.11,-1643.75,241.60,-1619.99"/>
<path data-id="257-264" d="M1851.14,-289.73,1862.28,-204.54"/>
<path data-id="257-279" d="M1851.14,-289.73,1827.71,-424.62"/>
<path data-id="258-327" d="M1125.33,-1665.51,1270.10,-1743.53"/>
<path data-id="258-362" d="M1125.33,-1665.51,1100.41,-1697.55"/>
<path data-id="259-284" d="M118.00,-1616.07,187.37,-1544.96"/>
<path data-id="259-341" d="M118.00,-1616.07,177.47,-1640.10"/>
<path data-id="260-306" d="M524.59,-767.41,351.74,-775.08"/>
<path data-id="260-356" d="M524.59,-767.41,447.00,-894.38"/>
<path data-id="261-295" d="M1805.87,-38.68,1764.72,-119.26"/>
<path data-id="262-358" d="M861.65,-1265.85,830.64,-1315.32"/>
<path data-id="262-388" d="M861.65,-1265.85,770.67,-1266.72"/>
<path data-id="264-288" d="M1862.28,-204.54,1801.90,-159.18"/>
<path data-id="265-316" d="M257.22,-367.25,150.09,-443.95"/>
<path data-id="266-323" d="M1291.68,-54.88,1242.97,-35.62"/>
<path data-id="267-325" d="M221.82,-13.00,77.14,-114.60"/>
<path data-id="268-380" d="M186.76,-687.31,196.56,-725.13"/>
<path data-id="269-285" d="M907.08,-1845.10,984.85,-1947.86"/>
<path data-id="269-357" d="M907.08,-1845.10,1008.46,-1836.15"/>
<path data-id="270-333" d="M583.65,-1202.43,520.64,-1068.20"/>
<path data-id="270-360" d="M583.65,-1202.43,602.85,-1079.08"/>
<path data-id="271-349" d="M820.53,-1381.03,857.46,-1472.88"/>
<path data-id="271-358" d="M820.53,-1381.03,830.64,-1315.32"/>
<path data-id="272-280" d="M1499.06,-1770.96,1516.97,-1713.51"/>
<path data-id="273-317" d="M839.50,-1553.33,762.27,-1616.81"/>
<path data-id="274-323" d="M1147.34,-11.73,1242.97,-35.62"/>
<path data-id="276-301" d="M1495.34,-573.28,1544.91,-657.07"/>
<path data-id="277-385" d="M569.81,-1668.48,509.36,-1732.50"/>
<path data-id="277-396" d="M569.81,-1668.48,602.14,-1640.59"/>
<path data-id="278-327" d="M1305.44,-1737.68,1270.10,-1743.53"/>
<path data-id="279-305" d="M1827.71,-424.62,1913.73,-555.16"/>
<path data-id="280-313" d="M1516.97,-1713.51,1787.25,-1781.50"/>
<path data-id="280-334" d="M1516.97,-1713.51,1450.87,-1602.33"/>
<path data-id="281-315" d="M1574.10,-1301.70,1653.14,-1209.36"/>
<path data-id="281-376" d="M1574.10,-1301.70,1477.92,-1285.40"/>
<path data-id="283-292" d="M893.24,-747.47,1045.69,-804.70"/>
<path data-id="283-337" d="M893.24,-747.47,810.90,-644.97"/>
<path data-id="283-368" d="M893.24,-747.47,895.97,-855.07"/>
<path data-id="283-369" d="M893.24,-747.47,835.72,-627.52"/>
<path data-id="284-341" d="M187.37,-1544.96,177.47,-1640.10"/>
<path data-id="284-365" d="M187.37,-1544.96,241.60,-1619.99"/>
<path data-id="285-303" d="M984.85,-1947.86,1154.50,-1994.29"/>
<path data-id="285-357" d="M984.85,-1947.86,1008.46,-1836.15"/>
<path data-id="286-342" d="M389.55,-191.45,291.68,-175.51"/>
<path data-id="290-386" d="M674.64,-308.68,686.46,-333.06"/>
<path data-id="291-328" d="M389.95,-1058.05,391.23,-1120.86"/>
<path data-id="291-394" d="M389.95,-1058.05,287.02,-1012.62"/>
<path data-id="292-293" d="M1045.69,-804.70,966.60,-860.59"/>
<path data-id="293-368" d="M966.60,-860.59,895.97,-855.07"/>
<path data-id="295-399" d="M1764.72,-119.26,1734.95,-145.49"/>
<path data-id="296-316" d="M180.27,-497.98,150.09,-443.95"/>
<path data-id="297-326" d="M1475.77,-1079.75,1531.33,-1017.21"/>
<path data-id="298-386" d="M636.34,-397.66,686.46,-333.06"/>
<path data-id="299-327" d="M1125.62,-1775.45,1270.10,-1743.53"/>
<path data-id="299-353" d="M1125.62,-1775.45,1121.73,-1742.66"/>
<path data-id="299-390" d="M1125.62,-1775.45,1172.19,-1835.94"/>
<path data-id="300-324" d="M223.91,-1250.30,226.45,-1219.36"/>
<path data-id="301-379" d="M1544.91,-657.07,1466.42,-715.88"/>
<path data-id="302-340" d="M1748.45,-1598.17,1773.60,-1609.90"/>
<path data-id="302-363" d="M1748.45,-1598.17,1762.21,-1565.36"/>
<path data-id="303-375" d="M1154.50,-1994.29,1297.21,-1998.80"/>
<path data-id="303-390" d="M1154.50,-1994.29,1172.19,-1835.94"/>
<path data-id="306-356" d="M351.74,-775.08,447.00,-894.38"/>
<path data-id="306-372" d="M351.74,-775.08,284.66,-723.08"/>
<path data-id="307-318" d="M1515.10,-324.46,1612.78,-260.39"/>
<path data-id="309-344" d="M1584.76,-120.27,1457.94,-53.60"/>
<path data-id="310-346" d="M837.79,-138.87,939.49,-145.50"/>
<path data-id="311-356" d="M460.63,-966.83,447.00,-894.38"/>
<path data-id="313-340" d="M1787.25,-1781.50,1773.60,-1609.90"/>
<path data-id="314-377" d="M109.70,-203.40,17.76,-204.11"/>
<path data-id="314-378" d="M109.70,-203.40,131.03,-244.58"/>
<path data-id="315-364" d="M1653.14,-1209.36,1632.37,-1102.09"/>
<path data-id="320-339" d="M518.26,-1804.73,444.09,-1810.43"/>
<path data-id="320-385" d="M518.26,-1804.73,509.36,-1732.50"/>
<path data-id="322-387" d="M1280.54,-961.97,1237.45,-1050.28"/>
<path data-id="326-395" d="M1531.33,-1017.21,1602.55,-1015.42"/>
<path data-id="327-353" d="M1270.10,-1743.53,1121.73,-1742.66"/>
<path data-id="329-384" d="M1205.80,-599.31,1244.14,-605.29"/>
<path data-id="330-343" d="M492.06,-335.35,523.49,-406.02"/>
<path data-id="332-359" d="M1788.74,-1083.99,1822.71,-1086.65"/>
<path data-id="332-364" d="M1788.74,-1083.99,1632.37,-1102.09"/>
<path data-id="333-360" d="M520.64,-1068.20,602.85,-1079.08"/>
<path data-id="335-376" d="M1418.72,-1221.81,1477.92,-1285.40"/>
<path data-id="336-368" d="M806.52,-956.14,895.97,-855.07"/>
<path data-id="337-369" d="M810.90,-644.97,835.72,-627.52"/>
<path data-id="339-385" d="M444.09,-1810.43,509.36,-1732.50"/>
<path data-id="341-365" d="M177.47,-1640.10,241.60,-1619.99"/>
<path data-id="342-378" d="M291.68,-175.51,131.03,-244.58"/>
<path data-id="346-348" d="M939.49,-145.50,899.81,-8.07"/>
<path data-id="347-350" d="M1289.96,-1562.92,1374.76,-1565.69"/>
<path data-id="347-371" d="M1289.96,-1562.92,1253.12,-1599.77"/>
<path data-id="347-373" d="M1289.96,-1562.92,1280.45,-1533.42"/>
<path data-id="350-389" d="M1374.76,-1565.69,1337.41,-1491.95"/>
<path data-id="353-362" d="M1121.73,-1742.66,1100.41,-1697.55"/>
<path data-id="354-393" d="M1049.30,-455.37,991.91,-471.00"/>
<path data-id="355-384" d="M1305.38,-666.53,1244.14,-605.29"/>
<path data-id="358-388" d="M830.64,-1315.32,770.67,-1266.72"/>
<path data-id="364-395" d="M1632.37,-1102.09,1602.55,-1015.42"/>
<path data-id="367-372" d="M353.73,-528.16,284.66,-723.08"/>
<path data-id="372-380" d="M284.66,-723.08,196.56,-725.13"/>
<path data-id="373-389" d="M1280.45,-1533.42,1337.41,-1491.95"/>
<circle data-id="0" cx="1081.50" cy="-1503.55" r="10.00px"/>
<text data-id="0" x="1081.50" y="-1503.55">R0</text>
<circle data-id="1" cx="1513.32" cy="-489.75" r="10.00px"/>
<text data-id="1" x="1513.32" y="-489.75">R1</text>
<circle data-id="2" cx="1950.37" cy="-1693.34" r="10.00px"/>
<text data-id="2" x="1950.37" y="-1693.34">R2</text>
<circle data-id="3" cx="514.94" cy="-702.64" r="10.00px"/>
<text data-id="3" x="514.94" y="-702.64">R3</text>
<circle data-id="4" cx="27.04" cy="-1176.34" r="10.00px"/>
<text data-id="4" x="27.04" y="-1176.34">R4</text>
<circle data-id="5" cx="1987.35" cy="-335.21" r="10.00px"/>
<text data-id="5" x="1987.35" y="-335.21">R5</text>
<circle data-id="6" cx="913.76" cy="-256.27" r="10.00px"/>
<text data-id="6" x="913.76" y="-256.27">R6</text>
<circle data-id="7" cx="1480.88" cy="-1829.26" r="10.00px"/>
<text data-id="7" x="1480.88" y="-1829.26">R7</text>
<circle data-id="8" cx="1924.50" cy="-390.93" r="10.00px"/>
<text data-id="8" x="1924.50" y="-390.93">R8</text>
<circle data-id="9" cx="1645.11" cy="-1894.23" r="10.00px"/>
<text data-id="9" x="1645.11" y="-1894.23">R9</text>
<circle data-id="10" cx="1179.77" cy="-813.09" r="10.00px"/>
<text data-id="10" x="1179.77" y="-813.09">R10</text>
<circle data-id="11" cx="123.23" cy="-845.08" r="10.00px"/>
<text data-id="11" x="123.23" y="-845.08">R11</text>
<circle data-id="12" cx="320.99" cy="-323.39" r="10.00px"/>
<text data-id="12" x="320.99" y="-323.39">R12</text>
<circle data-id="13" cx="1321.49" cy="-441.22" r="10.00px"/>
<text data-id="13" x="1321.49" y="-441.22">R13</text>
<circle data-id="14" cx="1548.32" cy="-1621.11" r="10.00px"/>
<text data-id="14" x="1548.32" y="-1621.11">R14</text>
<circle data-id="15" cx="1794.46" cy="-1523.70" r="10.00px"/>
<text data-id="15" x="1794.46" y="-1523.70">R15</text>
<circle data-id="16" cx="235.64" cy="-318.85" r="10.00px"/>
<text data-id="16" x="235.64" y="-318.85">R16</text>
<circle data-id="17" cx="999.86" cy="-153.86" r="10.00px"/>
<text data-id="17" x="999.86" y="-153.86">R17</text>
<circle data-id="18" cx="310.81" cy="-97.82" r="10.00px"/>
<text data-id="18" x="310.81" y="-97.82">R18</text>
<circle data-id="19" cx="1203.45" cy="-1019.81" r="10.00px"/>
<text data-id="19" x="1203.45" y="-1019.81">R19</text>
<circle data-id="20" cx="1590.82" cy="-534.61" r="10.00px"/>
<text data-id="20" x="1590.82" y="-534.61">R20</text>
<circle data-id="21" cx="256.94" cy="-1743.27" r="10.00px"/>
<text data-id="21" x="256.94" y="-1743.27">R21</text>
<circle data-id="22" cx="1667.87" cy="-1442.39" r="10.00px"/>
<text data-id="22" x="1667.87" y="-1442.39">R22</text>
<circle data-id="23" cx="778.02" cy="-1050.33" r="10.00px"/>
<text data-id="23" x="778.02" y="-1050.33">R23</text>
<circle data-id="24" cx="1460.93" cy="-1182.13" r="10.00px"/>
<text data-id="24" x="1460.93" y="-1182.13">R24</text>
<circle data-id="25" cx="68.74" cy="-1249.81" r="10.00px"/>
<text data-id="25" x="68.74" y="-1249.81">R25</text>
<circle data-id="26" cx="91.10" cy="-1441.28" r="10.00px"/>
<text data-id="26" x="91.10" y="-1441.28">R26</text>
<circle data-id="27" cx="1465.82" cy="-413.14" r="10.00px"/>
<text data-id="27" x="1465.82" y="-413.14">R27</text>
<circle data-id="28" cx="1426.81" cy="-33.72" r="10.00px"/>
<text data-id="28" x="1426.81" y="-33.72">R28</text>
<circle data-id="29" cx="732.90" cy="-314.67" r="10.00px"/>
<text data-id="29" x="732.90" y="-314.67">R29</text>
<circle data-id="30" cx="477.08" cy="-1006.67" r="10.00px"/>
<text data-id="30" x="477.08" y="-1006.67">R30</text>
<circle data-id="31" cx="1659.44" cy="-816.77" r="10.00px"/>
<text data-id="31" x="1659.44" y="-816.77">R31</text>
<circle data-id="32" cx="294.32" cy="-2.34" r="10.00px"/>
<text data-id="32" x="294.32" y="-2.34">R32</text>
<circle data-id="33" cx="1495.53" cy="-1501.53" r="10.00px"/>
<text data-id="33" x="1495.53" y="-1501.53">R33</text>
<circle data-id="34" cx="528.74" cy="-1846.90" r="10.00px"/>
<text data-id="34" x="528.74" y="-1846.90">R34</text>
<circle data-id="35" cx="283.67" cy="-28.04" r="10.00px"/>
<text data-id="35" x="283.67" y="-28.04">R35</text>
<circle data-id="36" cx="599.07" cy="-447.89" r="10.00px"/>
<text data-id="36" x="599.07" y="-447.89">R36</text>
<circle data-id="37" cx="346.39" cy="-1965.91" r="10.00px"/>
<text data-id="37" x="346.39" y="-1965.91">R37</text>
<circle data-id="38" cx="862.81" cy="-1534.15" r="10.00px"/>
<text data-id="38" x="862.81" y="-1534.15">R38</text>
<circle data-id="39" cx="1834.99" cy="-1848.83" r="10.00px"/>
<text data-id="39" x="1834.99" y="-1848.83">R39</text>
<circle data-id="40" cx="1152.04" cy="-509.04" r="10.00px"/>
<text data-id="40" x="1152.04" y="-509.04">R40</text>
<circle data-id="41" cx="1861.07" cy="-1608.18" r="10.00px"/>
<text data-id="41" x="1861.07" y="-1608.18">R41</text>
<circle data-id="42" cx="82.64" cy="-1195.12" r="10.00px"/>
<text data-id="42" x="82.64" y="-1195.12">R42</text>
<circle data-id="43" cx="46.01" cy="-103.81" r="10.00px"/>
<text data-id="43" x="46.01" y="-103.81">R43</text>
<circle data-id="44" cx="908.01" cy="-428.16" r="10.00px"/>
<text data-id="44" x="908.01" y="-428.16">R44</text>
<circle data-id="45" cx="949.85" cy="-1067.91" r="10.00px"/>
<text data-id="45" x="949.85" y="-1067.91">R45</text>
<circle data-id="46" cx="358.25" cy="-1518.10" r="10.00px"/>
<text data-id="46" x="358.25" y="-1518.10">R46</text>
<circle data-id="47" cx="486.36" cy="-203.13" r="10.00px"/>
<text data-id="47" x="486.36" y="-203.13">R47</text>
<circle data-id="48" cx="436.58" cy="-1215.40" r="10.00px"/>
<text data-id="48" x="436.58" y="-1215.40">R48</text>
<circle data-id="49" cx="1313.45" cy="-1265.58" r="10.00px"/>
<text data-id="49" x="1313.45" y="-1265.58">R49</text>
<circle data-id="50" cx="1856.74" cy="-1370.14" r="10.00px"/>
<text data-id="50" x="1856.74" y="-1370.14">R50</text>
<circle data-id="51" cx="824.41" cy="-472.18" r="10.00px"/>
<text data-id="51" x="824.41" y="-472.18">R51</text>
<circle data-id="52" cx="1787.96" cy="-810.00" r="10.00px"/>
<text data-id="52" x="1787.96" y="-810.00">R52</text>
<circle data-id="53" cx="1750.05" cy="-492.26" r="10.00px"/>
<text data-id="53" x="1750.05" y="-492.26">R53</text>
<circle data-id="54" cx="1888.06" cy="-1805.08" r="10.00px"/>
<text data-id="54" x="1888.06" y="-1805.08">R54</text>
<circle data-id="55" cx="1667.30" cy="-635.99" r="10.00px"/>
<text data-id="55" x="1667.30" y="-635.99">R55</text>
<circle data-id="56" cx="439.14" cy="-165.70" r="10.00px"/>
<text data-id="56" x="439.14" y="-165.70">R56</text>
<circle data-id="57" cx="434.78" cy="-1514.34" r="10.00px"/>
<text data-id="57" x="434.78" y="-1514.34">R57</text>
<circle data-id="58" cx="1207.92" cy="-756.33" r="10.00px"/>
<text data-id="58" x="1207.92" y="-756.33">R58</text>
<circle data-id="59" cx="89.10" cy="-627.43" r="10.00px"/>
<text data-id="59" x="89.10" y="-627.43">R59</text>
<circle data-id="60" cx="521.83" cy="-264.93" r="10.00px"/>
<text data-id="60" x="521.83" y="-264.93">R60</text>
<circle data-id="61" cx="653.36" cy="-1708.33" r="10.00px"/>
<text data-id="61" x="653.36" y="-1708.33">R61</text>
<circle data-id="62" cx="1055.14" cy="-239.31" r="10.00px"/>
<text data-id="62" x="1055.14" y="-239.31">R62</text>
<circle data-id="63" cx="1940.44" cy="-1657.59" r="10.00px"/>
<text data-id="63" x="1940.44" y="-1657.59">R63</text>
<circle data-id="64" cx="1183.01" cy="-554.92" r="10.00px"/>
<text data-id="64" x="1183.01" y="-554.92">R64</text>
<circle data-id="65" cx="1369.05" cy="-1782.33" r="10.00px"/>
<text data-id="65" x="1369.05" y="-1782.33">R65</text>
<circle data-id="66" cx="1566.37" cy="-1135.22" r="10.00px"/>
<text data-id="66" x="1566.37" y="-1135.22">R66</text>
<circle data-id="67" cx="1193.92" cy="-485.34" r="10.00px"/>
<text data-id="67" x="1193.92" y="-485.34">R67</text>
<circle data-id="68" cx="1160.19" cy="-208.21" r="10.00px"/>
<text data-id="68" x="1160.19" y="-208.21">R68</text>
<circle data-id="69" cx="1925.22" cy="-260.60" r="10.00px"/>
<text data-id="69" x="1925.22" y="-260.60">R69</text>
<circle data-id="70" cx="237.48" cy="-1308.09" r="10.00px"/>
<text data-id="70" x="237.48" y="-1308.09">R70</text>
<circle data-id="71" cx="491.37" cy="-1990.09" r="10.00px"/>
<text data-id="71" x="491.37" y="-1990.09">R71</text>
<circle data-id="72" cx="773.23" cy="-1126.09" r="10.00px"/>
<text data-id="72" x="773.23" y="-1126.09">R72</text>
<circle data-id="73" cx="1876.27" cy="-1845.50" r="10.00px"/>
<text data-id="73" x="1876.27" y="-1845.50">R73</text>
<circle data-id="74" cx="798.93" cy="-452.34" r="10.00px"/>
<text data-id="74" x="798.93" y="-452.34">R74</text>
<circle data-id="75" cx="1412.10" cy="-510.02" r="10.00px"/>
<text data-id="75" x="1412.10" y="-510.02">R75</text>
<circle data-id="76" cx="1927.14" cy="-1587.07" r="10.00px"/>
<text data-id="76" x="1927.14" y="-1587.07">R76</text>
<circle data-id="77" cx="1663.58" cy="-916.10" r="10.00px"/>
<text data-id="77" x="1663.58" y="-916.10">R77</text>
<circle data-id="78" cx="428.83" cy="-367.22" r="10.00px"/>
<text data-id="78" x="428.83" y="-367.22">R78</text>
<circle data-id="79" cx="12.98" cy="-628.20" r="10.00px"/>
<text data-id="79" x="12.98" y="-628.20">R79</text>
<circle data-id="80" cx="1538.23" cy="-231.41" r="10.00px"/>
<text data-id="80" x="1538.23" y="-231.41">R80</text>
<circle data-id="81" cx="725.53" cy="-1875.63" r="10.00px"/>
<text data-id="81" x="725.53" y="-1875.63">R81</text>
<circle data-id="82" cx="318.87" cy="-872.46" r="10.00px"/>
<text data-id="82" x="318.87" y="-872.46">R82</text>
<circle data-id="83" cx="1869.70" cy="-1030.16" r="10.00px"/>
<text data-id="83" x="1869.70" y="-1030.16">R83</text>
<circle data-id="84" cx="1412.31" cy="-1914.48" r="10.00px"/>
<text data-id="84" x="1412.31" y="-1914.48">R84</text>
<circle data-id="85" cx="1456.72" cy="-0.63" r="10.00px"/>
<text data-id="85" x="1456.72" y="-0.63">R85</text>
<circle data-id="86" cx="198.21" cy="-558.84" r="10.00px"/>
<text data-id="86" x="198.21" y="-558.84">R86</text>
<circle data-id="87" cx="840.00" cy="-236.46" r="10.00px"/>
<text data-id="87" x="840.00" y="-236.46">R87</text>
<circle data-id="88" cx="1688.93" cy="-1002.86" r="10.00px"/>
<text data-id="88" x="1688.93" y="-1002.86">R88</text>
<circle data-id="89" cx="1872.39" cy="-14.66" r="10.00px"/>
<text data-id="89" x="1872.39" y="-14.66">R89</text>
<circle data-id="90" cx="1413.84" cy="-62.80" r="10.00px"/>
<text data-id="90" x="1413.84" y="-62.80">R90</text>
<circle data-id="91" cx="1621.93" cy="-157.87" r="10.00px"/>
<text data-id="91" x="1621.93" y="-157.87">R91</text>
<circle data-id="92" cx="688.41" cy="-631.40" r="10.00px"/>
<text data-id="92" x="688.41" y="-631.40">R92</text>
<circle data-id="93" cx="1473.50" cy="-235.81" r="10.00px"/>
<text data-id="93" x="1473.50" y="-235.81">R93</text>
<circle data-id="94" cx="1223.24" cy="-890.03" r="10.00px"/>
<text data-id="94" x="1223.24" y="-890.03">R94</text>
<circle data-id="95" cx="1624.18" cy="-644.14" r="10.00px"/>
<text data-id="95" x="1624.18" y="-644.14">R95</text>
<circle data-id="96" cx="1135.43" cy="-59.58" r="10.00px"/>
<text data-id="96" x="1135.43" y="-59.58">R96</text>
<circle data-id="97" cx="1724.91" cy="-1387.29" r="10.00px"/>
<text data-id="97" x="1724.91" y="-1387.29">R97</text>
<circle data-id="98" cx="1292.66" cy="-1681.51" r="10.00px"/>
<text data-id="98" x="1292.66" y="-1681.51">R98</text>
<circle data-id="99" cx="701.68" cy="-952.85" r="10.00px"/>
<text data-id="99" x="701.68" y="-952.85">R99</text>
<circle data-id="100" cx="725.49" cy="-648.64" r="10.00px"/>
<text data-id="100" x="725.49" y="-648.64">R100</text>
<circle data-id="101" cx="1258.88" cy="-1802.39" r="10.00px"/>
<text data-id="101" x="1258.88" y="-1802.39">R101</text>
<circle data-id="102" cx="1830.65" cy="-912.88" r="10.00px"/>
<text data-id="102" x="1830.65" y="-912.88">R102</text>
<circle data-id="103" cx="1679.10" cy="-119.11" r="10.00px"/>
<text data-id="103" x="1679.10" y="-119.11">R103</text>
<circle data-id="104" cx="39.70" cy="-584.92" r="10.00px"/>
<text data-id="104" x="39.70" y="-584.92">R104</text>
<circle data-id="105" cx="925.35" cy="-598.74" r="10.00px"/>
<text data-id="105" x="925.35" y="-598.74">R105</text>
<circle data-id="106" cx="161.33" cy="-1255.20" r="10.00px"/>
<text data-id="106" x="161.33" y="-1255.20">R106</text>
<circle data-id="107" cx="473.59" cy="-1692.53" r="10.00px"/>
<text data-id="107" x="473.59" y="-1692.53">R107</text>
<circle data-id="108" cx="72.23" cy="-155.16" r="10.00px"/>
<text data-id="108" x="72.23" y="-155.16">R108</text>
<circle data-id="109" cx="1022.36" cy="-1127.14" r="10.00px"/>
<text data-id="109" x="1022.36" y="-1127.14">R109</text>
<circle data-id="110" cx="1327.65" cy="-925.72" r="10.00px"/>
<text data-id="110" x="1327.65" y="-925.72">R110</text>
<circle data-id="111" cx="1784.25" cy="-214.05" r="10.00px"/>
<text data-id="111" x="1784.25" y="-214.05">R111</text>
<circle data-id="112" cx="1609.35" cy="-484.20" r="10.00px"/>
<text data-id="112" x="1609.35" y="-484.20">R112</text>
<circle data-id="113" cx="1212.45" cy="-860.17" r="10.00px"/>
<text data-id="113" x="1212.45" y="-860.17">R113</text>
<circle data-id="114" cx="378.67" cy="-1161.80" r="10.00px"/>
<text data-id="114" x="378.67" y="-1161.80">R114</text>
<circle data-id="115" cx="1038.39" cy="-87.49" r="10.00px"/>
<text data-id="115" x="1038.39" y="-87.49">R115</text>
<circle data-id="116" cx="693.65" cy="-1922.75" r="10.00px"/>
<text data-id="116" x="693.65" y="-1922.75">R116</text>
<circle data-id="117" cx="1883.75" cy="-165.20" r="10.00px"/>
<text data-id="117" x="1883.75" y="-165.20">R117</text>
<circle data-id="118" cx="561.67" cy="-700.45" r="10.00px"/>
<text data-id="118" x="561.67" y="-700.45">R118</text>
<circle data-id="119" cx="694.42" cy="-153.66" r="10.00px"/>
<text data-id="119" x="694.42" y="-153.66">R119</text>
<circle data-id="120" cx="847.90" cy="-1794.49" r="10.00px"/>
<text data-id="120" x="847.90" y="-1794.49">R120</text>
<circle data-id="121" cx="1791.99" cy="-126.96" r="10.00px"/>
<text data-id="121" x="1791.99" y="-126.96">R121</text>
<circle data-id="122" cx="1706.36" cy="-744.87" r="10.00px"/>
<text data-id="122" x="1706.36" y="-744.87">R122</text>
<circle data-id="123" cx="1090.40" cy="-1802.27" r="10.00px"/>
<text data-id="123" x="1090.40" y="-1802.27">R123</text>
<circle data-id="124" cx="278.13" cy="-309.53" r="10.00px"/>
<text data-id="124" x="278.13" y="-309.53">R124</text>
<circle data-id="125" cx="611.74" cy="-1338.84" r="10.00px"/>
<text data-id="125" x="611.74" y="-1338.84">R125</text>
<circle data-id="126" cx="1363.54" cy="-528.61" r="10.00px"/>
<text data-id="126" x="1363.54" y="-528.61">R126</text>
<circle data-id="127" cx="386.99" cy="-151.64" r="10.00px"/>
<text data-id="127" x="386.99" y="-151.64">R127</text>
<circle data-id="128" cx="1554.66" cy="-764.67" r="10.00px"/>
<text data-id="128" x="1554.66" y="-764.67">R128</text>
<circle data-id="129" cx="1325.81" cy="-1764.35" r="10.00px"/>
<text data-id="129" x="1325.81" y="-1764.35">R129</text>
<circle data-id="130" cx="576.80" cy="-656.47" r="10.00px"/>
<text data-id="130" x="576.80" y="-656.47">R130</text>
<circle data-id="131" cx="712.63" cy="-268.19" r="10.00px"/>
<text data-id="131" x="712.63" y="-268.19">R131</text>
<circle data-id="132" cx="1768.29" cy="-364.83" r="10.00px"/>
<text data-id="132" x="1768.29" y="-364.83">R132</text>
<circle data-id="133" cx="218.37" cy="-1391.09" r="10.00px"/>
<text data-id="133" x="218.37" y="-1391.09">R133</text>
<circle data-id="134" cx="1048.96" cy="-1546.56" r="10.00px"/>
<text data-id="134" x="1048.96" y="-1546.56">R134</text>
<circle data-id="135" cx="256.37" cy="-1960.19" r="10.00px"/>
<text data-id="135" x="256.37" y="-1960.19">R135</text>
<circle data-id="136" cx="350.81" cy="-1391.86" r="10.00px"/>
<text data-id="136" x="350.81" y="-1391.86">R136</text>
<circle data-id="137" cx="1620.31" cy="-618.31" r="10.00px"/>
<text data-id="137" x="1620.31" y="-618.31">R137</text>
<circle data-id="138" cx="604.68" cy="-1811.94" r="10.00px"/>
<text data-id="138" x="604.68" y="-1811.94">R138</text>
<circle data-id="139" cx="623.20" cy="-1306.36" r="10.00px"/>
<text data-id="139" x="623.20" y="-1306.36">R139</text>
<circle data-id="140" cx="691.60" cy="-1394.06" r="10.00px"/>
<text data-id="140" x="691.60" y="-1394.06">R140</text>
<circle data-id="141" cx="137.48" cy="-1003.50" r="10.00px"/>
<text data-id="141" x="137.48" y="-1003.50">R141</text>
<circle data-id="142" cx="817.93" cy="-1001.36" r="10.00px"/>
<text data-id="142" x="817.93" y="-1001.36">R142</text>
<circle data-id="143" cx="951.05" cy="-622.81" r="10.00px"/>
<text data-id="143" x="951.05" y="-622.81">R143</text>
<circle data-id="144" cx="1756.10" cy="-1455.02" r="10.00px"/>
<text data-id="144" x="1756.10" y="-1455.02">R144</text>
<circle data-id="145" cx="548.68" cy="-874.09" r="10.00px"/>
<text data-id="145" x="548.68" y="-874.09">R145</text>
<circle data-id="146" cx="66.90" cy="-303.21" r="10.00px"/>
<text data-id="146" x="66.90" y="-303.21">R146</text>
<circle data-id="147" cx="715.26" cy="-604.75" r="10.00px"/>
<text data-id="147" x="715.26" y="-604.75">R147</text>
<circle data-id="148" cx="8.50" cy="-111.58" r="10.00px"/>
<text data-id="148" x="8.50" y="-111.58">R148</text>
<circle data-id="149" cx="1587.92" cy="-1984.06" r="10.00px"/>
<text data-id="149" x="1587.92" y="-1984.06">R149</text>
<circle data-id="150" cx="968.08" cy="-907.93" r="10.00px"/>
<text data-id="150" x="968.08" y="-907.93">R150</text>
<circle data-id="151" cx="225.53" cy="-1901.35" r="10.00px"/>
<text data-id="151" x="225.53" y="-1901.35">R151</text>
<circle data-id="152" cx="624.99" cy="-1235.92" r="10.00px"/>
<text data-id="152" x="624.99" y="-1235.92">R152</text>
<circle data-id="153" cx="349.93" cy="-1777.16" r="10.00px"/>
<text data-id="153" x="349.93" y="-1777.16">R153</text>
<circle data-id="154" cx="931.05" cy="-1084.60" r="10.00px"/>
<text data-id="154" x="931.05" y="-1084.60">R154</text>
<circle data-id="155" cx="1827.68" cy="-773.93" r="10.00px"/>
<text data-id="155" x="1827.68" y="-773.93">R155</text>
<circle data-id="156" cx="463.07" cy="-1312.75" r="10.00px"/>
<text data-id="156" x="463.07" y="-1312.75">R156</text>
<circle data-id="157" cx="18.39" cy="-733.14" r="10.00px"/>
<text data-id="157" x="18.39" y="-733.14">R157</text>
<circle data-id="158" cx="795.94" cy="-787.50" r="10.00px"/>
<text data-id="158" x="795.94" y="-787.50">R158</text>
<circle data-id="159" cx="1123.92" cy="-1135.11" r="10.00px"/>
<text data-id="159" x="1123.92" y="-1135.11">R159</text>
<circle data-id="160" cx="1255.56" cy="-819.88" r="10.00px"/>
<text data-id="160" x="1255.56" y="-819.88">R160</text>
<circle data-id="161" cx="1098.16" cy="-365.73" r="10.00px"/>
<text data-id="161" x="1098.16" y="-365.73">R161</text>
<circle data-id="162" cx="73.55" cy="-1747.15" r="10.00px"/>
<text data-id="162" x="73.55" y="-1747.15">R162</text>
<circle data-id="163" cx="1683.76" cy="-465.10" r="10.00px"/>
<text data-id="163" x="1683.76" y="-465.10">R163</text>
<circle data-id="164" cx="1502.41" cy="-1569.20" r="10.00px"/>
<text data-id="164" x="1502.41" y="-1569.20">R164</text>
<circle data-id="165" cx="1416.75" cy="-692.67" r="10.00px"/>
<text data-id="165" x="1416.75" y="-692.67">R165</text>
<circle data-id="166" cx="1391.63" cy="-1592.08" r="10.00px"/>
<text data-id="166" x="1391.63" y="-1592.08">R166</text>
<circle data-id="167" cx="627.62" cy="-1023.62" r="10.00px"/>
<text data-id="167" x="627.62" y="-1023.62">R167</text>
<circle data-id="168" cx="1413.84" cy="-652.16" r="10.00px"/>
<text data-id="168" x="1413.84" y="-652.16">R168</text>
<circle data-id="169" cx="168.81" cy="-1152.25" r="10.00px"/>
<text data-id="169" x="168.81" y="-1152.25">R169</text>
<circle data-id="170" cx="559.74" cy="-1546.30" r="10.00px"/>
<text data-id="170" x="559.74" y="-1546.30">R170</text>
<circle data-id="171" cx="104.77" cy="-999.34" r="10.00px"/>
<text data-id="171" x="104.77" y="-999.34">R171</text>
<circle data-id="172" cx="721.10" cy="-1558.37" r="10.00px"/>
<text data-id="172" x="721.10" y="-1558.37">R172</text>
<circle data-id="173" cx="935.32" cy="-297.42" r="10.00px"/>
<text data-id="173" x="935.32" y="-297.42">R173</text>
<circle data-id="174" cx="1342.44" cy="-47.23" r="10.00px"/>
<text data-id="174" x="1342.44" y="-47.23">R174</text>
<circle data-id="175" cx="1489.26" cy="-1900.53" r="10.00px"/>
<text data-id="175" x="1489.26" y="-1900.53">R175</text>
<circle data-id="176" cx="1167.03" cy="-1131.79" r="10.00px"/>
<text data-id="176" x="1167.03" y="-1131.79">R176</text>
<circle data-id="177" cx="1284.43" cy="-1955.00" r="10.00px"/>
<text data-id="177" x="1284.43" y="-1955.00">R177</text>
<circle data-id="178" cx="1313.10" cy="-305.24" r="10.00px"/>
<text data-id="178" x="1313.10" y="-305.24">R178</text>
<circle data-id="179" cx="597.94" cy="-720.75" r="10.00px"/>
<text data-id="179" x="597.94" y="-720.75">R179</text>
<circle data-id="180" cx="1093.86" cy="-1442.25" r="10.00px"/>
<text data-id="180" x="1093.86" y="-1442.25">R180</text>
<circle data-id="181" cx="305.08" cy="-351.84" r="10.00px"/>
<text data-id="181" x="305.08" y="-351.84">R181</text>
<circle data-id="182" cx="1889.10" cy="-1915.74" r="10.00px"/>
<text data-id="182" x="1889.10" y="-1915.74">R182</text>
<circle data-id="183" cx="1415.02" cy="-169.77" r="10.00px"/>
<text data-id="183" x="1415.02" y="-169.77">R183</text>
<circle data-id="184" cx="577.42" cy="-346.63" r="10.00px"/>
<text data-id="184" x="577.42" y="-346.63">R184</text>
<circle data-id="185" cx="743.89" cy="-618.26" r="10.00px"/>
<text data-id="185" x="743.89" y="-618.26">R185</text>
<circle data-id="186" cx="873.01" cy="-2.07" r="10.00px"/>
<text data-id="186" x="873.01" y="-2.07">R186</text>
<circle data-id="187" cx="1266.29" cy="-1907.73" r="10.00px"/>
<text data-id="187" x="1266.29" y="-1907.73">R187</text>
<circle data-id="188" cx="1627.39" cy="-1350.21" r="10.00px"/>
<text data-id="188" x="1627.39" y="-1350.21">R188</text>
<circle data-id="189" cx="219.70" cy="-889.02" r="10.00px"/>
<text data-id="189" x="219.70" y="-889.02">R189</text>
<circle data-id="190" cx="1252.38" cy="-1210.66" r="10.00px"/>
<text data-id="190" x="1252.38" y="-1210.66">R190</text>
<circle data-id="191" cx="1373.47" cy="-777.00" r="10.00px"/>
<text data-id="191" x="1373.47" y="-777.00">R191</text>
<circle data-id="192" cx="1844.29" cy="-956.30" r="10.00px"/>
<text data-id="192" x="1844.29" y="-956.30">R192</text>
<circle data-id="193" cx="221.35" cy="-1009.33" r="10.00px"/>
<text data-id="193" x="221.35" y="-1009.33">R193</text>
<circle data-id="194" cx="232.33" cy="-1097.35" r="10.00px"/>
<text data-id="194" x="232.33" y="-1097.35">R194</text>
<circle data-id="195" cx="1343.37" cy="-102.15" r="10.00px"/>
<text data-id="195" x="1343.37" y="-102.15">R195</text>
<circle data-id="196" cx="1451.20" cy="-215.13" r="10.00px"/>
<text data-id="196" x="1451.20" y="-215.13">R196</text>
<circle data-id="197" cx="462.25" cy="-1108.01" r="10.00px"/>
<text data-id="197" x="462.25" y="-1108.01">R197</text>
<circle data-id="198" cx="1671.51" cy="-32.28" r="10.00px"/>
<text data-id="198" x="1671.51" y="-32.28">R198</text>
<circle data-id="199" cx="1062.60" cy="-1814.03" r="10.00px"/>
<text data-id="199" x="1062.60" y="-1814.03">R199</text>
<circle data-id="200" cx="1408.62" cy="-1358.31" r="10.00px"/>
<text data-id="200" x="1408.62" y="-1358.31">R200</text>
<circle data-id="201" cx="926.57" cy="-1280.27" r="10.00px"/>
<text data-id="201" x="926.57" y="-1280.27">R201</text>
<circle data-id="202" cx="861.10" cy="-491.34" r="10.00px"/>
<text data-id="202" x="861.10" y="-491.34">R202</text>
<circle data-id="203" cx="950.94" cy="-1025.81" r="10.00px"/>
<text data-id="203" x="950.94" y="-1025.81">R203</text>
<circle data-id="204" cx="774.49" cy="-1395.57" r="10.00px"/>
<text data-id="204" x="774.49" y="-1395.57">R204</text>
<circle data-id="205" cx="1789.38" cy="-1005.49" r="10.00px"/>
<text data-id="205" x="1789.38" y="-1005.49">R205</text>
<circle data-id="206" cx="338.81" cy="-972.38" r="10.00px"/>
<text data-id="206" x="338.81" y="-972.38">R206</text>
<circle data-id="207" cx="1687.44" cy="-1273.12" r="10.00px"/>
<text data-id="207" x="1687.44" y="-1273.12">R207</text>
<circle data-id="208" cx="822.09" cy="-1872.91" r="10.00px"/>
<text data-id="208" x="822.09" y="-1872.91">R208</text>
<circle data-id="209" cx="41.19" cy="-2.33" r="10.00px"/>
<text data-id="209" x="41.19" y="-2.33">R209</text>
<circle data-id="210" cx="976.08" cy="-1647.86" r="10.00px"/>
<text data-id="210" x="976.08" y="-1647.86">R210</text>
<circle data-id="211" cx="882.47" cy="-257.82" r="10.00px"/>
<text data-id="211" x="882.47" y="-257.82">R211</text>
<circle data-id="212" cx="111.02" cy="-722.45" r="10.00px"/>
<text data-id="212" x="111.02" y="-722.45">R212</text>
<circle data-id="213" cx="1788.45" cy="-244.11" r="10.00px"/>
<text data-id="213" x="1788.45" y="-244.11">R213</text>
<circle data-id="214" cx="115.15" cy="-325.51" r="10.00px"/>
<text data-id="214" x="115.15" y="-325.51">R214</text>
<circle data-id="215" cx="531.71" cy="-317.03" r="10.00px"/>
<text data-id="215" x="531.71" y="-317.03">R215</text>
<circle data-id="216" cx="1422.64" cy="-1742.67" r="10.00px"/>
<text data-id="216" x="1422.64" y="-1742.67">R216</text>
<circle data-id="217" cx="635.84" cy="-834.73" r="10.00px"/>
<text data-id="217" x="635.84" y="-834.73">R217</text>
<circle data-id="218" cx="1225.84" cy="-953.99" r="10.00px"/>
<text data-id="218" x="1225.84" y="-953.99">R218</text>
<circle data-id="219" cx="1019.87" cy="-966.01" r="10.00px"/>
<text data-id="219" x="1019.87" y="-966.01">R219</text>
<circle data-id="220" cx="1066.61" cy="-724.49" r="10.00px"/>
<text data-id="220" x="1066.61" y="-724.49">R220</text>
<circle data-id="221" cx="546.87" cy="-1925.15" r="10.00px"/>
<text data-id="221" x="546.87" y="-1925.15">R221</text>
<circle data-id="222" cx="690.25" cy="-577.26" r="10.00px"/>
<text data-id="222" x="690.25" y="-577.26">R222</text>
<circle data-id="223" cx="1811.98" cy="-1238.38" r="10.00px"/>
<text data-id="223" x="1811.98" y="-1238.38">R223</text>
<circle data-id="224" cx="984.13" cy="-1483.37" r="10.00px"/>
<text data-id="224" x="984.13" y="-1483.37">R224</text>
<circle data-id="225" cx="652.18" cy="-793.62" r="10.00px"/>
<text data-id="225" x="652.18" y="-793.62">R225</text>
<circle data-id="226" cx="1199.20" cy="-1175.69" r="10.00px"/>
<text data-id="226" x="1199.20" y="-1175.69">R226</text>
<circle data-id="227" cx="590.55" cy="-558.32" r="10.00px"/>
<text data-id="227" x="590.55" y="-558.32">R227</text>
<circle data-id="228" cx="517.29" cy="-1278.69" r="10.00px"/>
<text data-id="228" x="517.29" y="-1278.69">R228</text>
<circle data-id="229" cx="1198.75" cy="-1570.82" r="10.00px"/>
<text data-id="229" x="1198.75" y="-1570.82">R229</text>
<circle data-id="230" cx="1320.37" cy="-1030.21" r="10.00px"/>
<text data-id="230" x="1320.37" y="-1030.21">R230</text>
<circle data-id="231" cx="1753.59" cy="-1218.67" r="10.00px"/>
<text data-id="231" x="1753.59" y="-1218.67">R231</text>
<circle data-id="232" cx="1124.78" cy="-642.69" r="10.00px"/>
<text data-id="232" x="1124.78" y="-642.69">R232</text>
<circle data-id="233" cx="38.25" cy="-1350.85" r="10.00px"/>
<text data-id="233" x="38.25" y="-1350.85">R233</text>
<circle data-id="234" cx="346.02" cy="-444.43" r="10.00px"/>
<text data-id="234" x="346.02" y="-444.43">R234</text>
<circle data-id="235" cx="389.57" cy="-1009.57" r="10.00px"/>
<text data-id="235" x="389.57" y="-1009.57">R235</text>
<circle data-id="236" cx="380.87" cy="-278.52" r="10.00px"/>
<text data-id="236" x="380.87" y="-278.52">R236</text>
<circle data-id="237" cx="133.65" cy="-878.07" r="10.00px"/>
<text data-id="237" x="133.65" y="-878.07">R237</text>
<circle data-id="238" cx="716.96" cy="-1043.90" r="10.00px"/>
<text data-id="238" x="716.96" y="-1043.90">R238</text>
<circle data-id="239" cx="764.61" cy="-929.19" r="10.00px"/>
<text data-id="239" x="764.61" y="-929.19">R239</text>
<circle data-id="240" cx="1340.52" cy="-406.67" r="10.00px"/>
<text data-id="240" x="1340.52" y="-406.67">R240</text>
<circle data-id="241" cx="905.17" cy="-1561.03" r="10.00px"/>
<text data-id="241" x="905.17" y="-1561.03">R241</text>
<circle data-id="242" cx="945.99" cy="-1200.52" r="10.00px"/>
<text data-id="242" x="945.99" y="-1200.52">R242</text>
<circle data-id="243" cx="1707.80" cy="-976.06" r="10.00px"/>
<text data-id="243" x="1707.80" y="-976.06">R243</text>
<circle data-id="244" cx="35.84" cy="-1660.44" r="10.00px"/>
<text data-id="244" x="35.84" y="-1660.44">R244</text>
<circle data-id="245" cx="1986.11" cy="-1225.30" r="10.00px"/>
<text data-id="245" x="1986.11" y="-1225.30">R245</text>
<circle data-id="246" cx="1971.72" cy="-1561.34" r="10.00px"/>
<text data-id="246" x="1971.72" y="-1561.34">R246</text>
<circle data-id="247" cx="565.29" cy="-73.31" r="10.00px"/>
<text data-id="247" x="565.29" y="-73.31">R247</text>
<circle data-id="248" cx="1269.11" cy="-1239.14" r="10.00px"/>
<text data-id="248" x="1269.11" y="-1239.14">R248</text>
<circle data-id="249" cx="1198.79" cy="-1325.93" r="10.00px"/>
<text data-id="249" x="1198.79" y="-1325.93">R249</text>
<circle data-id="250" cx="921.45" cy="-1749.16" r="10.00px"/>
<text data-id="250" x="921.45" y="-1749.16">R250</text>
<circle data-id="251" cx="955.99" cy="-1422.15" r="10.00px"/>
<text data-id="251" x="955.99" y="-1422.15">R251</text>
<circle data-id="252" cx="1060.06" cy="-1589.73" r="10.00px"/>
<text data-id="252" x="1060.06" y="-1589.73">R252</text>
<circle data-id="253" cx="162.26" cy="-876.27" r="10.00px"/>
<text data-id="253" x="162.26" y="-876.27">R253</text>
<circle data-id="254" cx="1829.31" cy="-619.86" r="10.00px"/>
<text data-id="254" x="1829.31" y="-619.86">R254</text>
<circle data-id="255" cx="302.11" cy="-1643.75" r="10.00px"/>
<text data-id="255" x="302.11" y="-1643.75">R255</text>
<circle data-id="256" cx="1026.01" cy="-1160.11" r="10.00px"/>
<text data-id="256" x="1026.01" y="-1160.11">R256</text>
<circle data-id="257" cx="1851.14" cy="-289.73" r="10.00px"/>
<text data-id="257" x="1851.14" y="-289.73">R257</text>
<circle data-id="258" cx="1125.33" cy="-1665.51" r="10.00px"/>
<text data-id="258" x="1125.33" y="-1665.51">R258</text>
<circle data-id="259" cx="118.00" cy="-1616.07" r="10.00px"/>
<text data-id="259" x="118.00" y="-1616.07">R259</text>
<circle data-id="260" cx="524.59" cy="-767.41" r="10.00px"/>
<text data-id="260" x="524.59" y="-767.41">R260</text>
<circle data-id="261" cx="1805.87" cy="-38.68" r="10.00px"/>
<text data-id="261" x="1805.87" y="-38.68">R261</text>
<circle data-id="262" cx="861.65" cy="-1265.85" r="10.00px"/>
<text data-id="262" x="861.65" y="-1265.85">R262</text>
<circle data-id="263" cx="374.85" cy="-77.66" r="10.00px"/>
<text data-id="263" x="374.85" y="-77.66">R263</text>
<circle data-id="264" cx="1862.28" cy="-204.54" r="10.00px"/>
<text data-id="264" x="1862.28" y="-204.54">R264</text>
<circle data-id="265" cx="257.22" cy="-367.25" r="10.00px"/>
<text data-id="265" x="257.22" y="-367.25">R265</text>
<circle data-id="266" cx="1291.68" cy="-54.88" r="10.00px"/>
<text data-id="266" x="1291.68" y="-54.88">R266</text>
<circle data-id="267" cx="221.82" cy="-13.00" r="10.00px"/>
<text data-id="267" x="221.82" y="-13.00">R267</text>
<circle data-id="268" cx="186.76" cy="-687.31" r="10.00px"/>
<text data-id="268" x="186.76" y="-687.31">R268</text>
<circle data-id="269" cx="907.08" cy="-1845.10" r="10.00px"/>
<text data-id="269" x="907.08" y="-1845.10">R269</text>
<circle data-id="270" cx="583.65" cy="-1202.43" r="10.00px"/>
<text data-id="270" x="583.65" y="-1202.43">R270</text>
<circle data-id="271" cx="820.53" cy="-1381.03" r="10.00px"/>
<text data-id="271" x="820.53" y="-1381.03">R271</text>
<circle data-id="272" cx="1499.06" cy="-1770.96" r="10.00px"/>
<text data-id="272" x="1499.06" y="-1770.96">R272</text>
<circle data-id="273" cx="839.50" cy="-1553.33" r="10.00px"/>
<text data-id="273" x="839.50" y="-1553.33">R273</text>
<circle data-id="274" cx="1147.34" cy="-11.73" r="10.00px"/>
<text data-id="274" x="1147.34" y="-11.73">R274</text>
<circle data-id="275" cx="1278.26" cy="-396.35" r="10.00px"/>
<text data-id="275" x="1278.26" y="-396.35">R275</text>
<circle data-id="276" cx="1495.34" cy="-573.28" r="10.00px"/>
<text data-id="276" x="1495.34" y="-573.28">R276</text>
<circle data-id="277" cx="569.81" cy="-1668.48" r="10.00px"/>
<text data-id="277" x="569.81" y="-1668.48">R277</text>
<circle data-id="278" cx="1305.44" cy="-1737.68" r="10.00px"/>
<text data-id="278" x="1305.44" y="-1737.68">R278</text>
<circle data-id="279" cx="1827.71" cy="-424.62" r="10.00px"/>
<text data-id="279" x="1827.71" y="-424.62">R279</text>
<circle data-id="280" cx="1516.97" cy="-1713.51" r="10.00px"/>
<text data-id="280" x="1516.97" y="-1713.51">R280</text>
<circle data-id="281" cx="1574.10" cy="-1301.70" r="10.00px"/>
<text data-id="281" x="1574.10" y="-1301.70">R281</text>
<circle data-id="282" cx="1994.52" cy="-1656.50" r="10.00px"/>
<text data-id="282" x="1994.52" y="-1656.50">R282</text>
<circle data-id="283" cx="893.24" cy="-747.47" r="10.00px"/>
<text data-id="283" x="893.24" y="-747.47">R283</text>
<circle data-id="284" cx="187.37" cy="-1544.96" r="10.00px"/>
<text data-id="284" x="187.37" y="-1544.96">R284</text>
<circle data-id="285" cx="984.85" cy="-1947.86" r="10.00px"/>
<text data-id="285" x="984.85" y="-1947.86">R285</text>
<circle data-id="286" cx="389.55" cy="-191.45" r="10.00px"/>
<text data-id="286" x="389.55" y="-191.45">R286</text>
<circle data-id="287" cx="1694.25" cy="-1418.12" r="10.00px"/>
<text data-id="287" x="1694.25" y="-1418.12">R287</text>
<circle data-id="288" cx="1801.90" cy="-159.18" r="10.00px"/>
<text data-id="288" x="1801.90" y="-159.18">R288</text>
<circle data-id="289" cx="1146.49" cy="-1507.43" r="10.00px"/>
<text data-id="289" x="1146.49" y="-1507.43">R289</text>
<circle data-id="290" cx="674.64" cy="-308.68" r="10.00px"/>
<text data-id="290" x="674.64" y="-308.68">R290</text>
<circle data-id="291" cx="389.95" cy="-1058.05" r="10.00px"/>
<text data-id="291" x="389.95" y="-1058.05">R291</text>
<circle data-id="292" cx="1045.69" cy="-804.70" r="10.00px"/>
<text data-id="292" x="1045.69" y="-804.70">R292</text>
<circle data-id="293" cx="966.60" cy="-860.59" r="10.00px"/>
<text data-id="293" x="966.60" y="-860.59">R293</text>
<circle data-id="294" cx="647.82" cy="-1495.77" r="10.00px"/>
<text data-id="294" x="647.82" y="-1495.77">R294</text>
<circle data-id="295" cx="1764.72" cy="-119.26" r="10.00px"/>
<text data-id="295" x="1764.72" y="-119.26">R295</text>
<circle data-id="296" cx="180.27" cy="-497.98" r="10.00px"/>
<text data-id="296" x="180.27" y="-497.98">R296</text>
<circle data-id="297" cx="1475.77" cy="-1079.75" r="10.00px"/>
<text data-id="297" x="1475.77" y="-1079.75">R297</text>
<circle data-id="298" cx="636.34" cy="-397.66" r="10.00px"/>
<text data-id="298" x="636.34" y="-397.66">R298</text>
<circle data-id="299" cx="1125.62" cy="-1775.45" r="10.00px"/>
<text data-id="299" x="1125.62" y="-1775.45">R299</text>
<circle data-id="300" cx="223.91" cy="-1250.30" r="10.00px"/>
<text data-id="300" x="223.91" y="-1250.30">R300</text>
<circle data-id="301" cx="1544.91" cy="-657.07" r="10.00px"/>
<text data-id="301" x="1544.91" y="-657.07">R301</text>
<circle data-id="302" cx="1748.45" cy="-1598.17" r="10.00px"/>
<text data-id="302" x="1748.45" y="-1598.17">R302</text>
<circle data-id="303" cx="1154.50" cy="-1994.29" r="10.00px"/>
<text data-id="303" x="1154.50" y="-1994.29">R303</text>
<circle data-id="304" cx="633.72" cy="-607.89" r="10.00px"/>
<text data-id="304" x="633.72" y="-607.89">R304</text>
<circle data-id="305" cx="1913.73" cy="-555.16" r="10.00px"/>
<text data-id="305" x="1913.73" y="-555.16">R305</text>
<circle data-id="306" cx="351.74" cy="-775.08" r="10.00px"/>
<text data-id="306" x="351.74" y="-775.08">R306</text>
<circle data-id="307" cx="1515.10" cy="-324.46" r="10.00px"/>
<text data-id="307" x="1515.10" y="-324.46">R307</text>
<circle data-id="308" cx="40.19" cy="-1218.02" r="10.00px"/>
<text data-id="308" x="40.19" y="-1218.02">R308</text>
<circle data-id="309" cx="1584.76" cy="-120.27" r="10.00px"/>
<text data-id="309" x="1584.76" y="-120.27">R309</text>
<circle data-id="310" cx="837.79" cy="-138.87" r="10.00px"/>
<text data-id="310" x="837.79" y="-138.87">R310</text>
<circle data-id="311" cx="460.63" cy="-966.83" r="10.00px"/>
<text data-id="311" x="460.63" y="-966.83">R311</text>
<circle data-id="312" cx="666.50" cy="-1946.64" r="10.00px"/>
<text data-id="312" x="666.50" y="-1946.64">R312</text>
<circle data-id="313" cx="1787.25" cy="-1781.50" r="10.00px"/>
<text data-id="313" x="1787.25" y="-1781.50">R313</text>
<circle data-id="314" cx="109.70" cy="-203.40" r="10.00px"/>
<text data-id="314" x="109.70" y="-203.40">R314</text>
<circle data-id="315" cx="1653.14" cy="-1209.36" r="10.00px"/>
<text data-id="315" x="1653.14" y="-1209.36">R315</text>
<circle data-id="316" cx="150.09" cy="-443.95" r="10.00px"/>
<text data-id="316" x="150.09" y="-443.95">R316</text>
<circle data-id="317" cx="762.27" cy="-1616.81" r="10.00px"/>
<text data-id="317" x="762.27" y="-1616.81">R317</text>
<circle data-id="318" cx="1612.78" cy="-260.39" r="10.00px"/>
<text data-id="318" x="1612.78" y="-260.39">R318</text>
<circle data-id="319" cx="741.43" cy="-796.58" r="10.00px"/>
<text data-id="319" x="741.43" y="-796.58">R319</text>
<circle data-id="320" cx="518.26" cy="-1804.73" r="10.00px"/>
<text data-id="320" x="518.26" y="-1804.73">R320</text>
<circle data-id="321" cx="791.49" cy="-310.77" r="10.00px"/>
<text data-id="321" x="791.49" y="-310.77">R321</text>
<circle data-id="322" cx="1280.54" cy="-961.97" r="10.00px"/>
<text data-id="322" x="1280.54" y="-961.97">R322</text>
<circle data-id="323" cx="1242.97" cy="-35.62" r="10.00px"/>
<text data-id="323" x="1242.97" y="-35.62">R323</text>
<circle data-id="324" cx="226.45" cy="-1219.36" r="10.00px"/>
<text data-id="324" x="226.45" y="-1219.36">R324</text>
<circle data-id="325" cx="77.14" cy="-114.60" r="10.00px"/>
<text data-id="325" x="77.14" y="-114.60">R325</text>
<circle data-id="326" cx="1531.33" cy="-1017.21" r="10.00px"/>
<text data-id="326" x="1531.33" y="-1017.21">R326</text>
<circle data-id="327" cx="1270.10" cy="-1743.53" r="10.00px"/>
<text data-id="327" x="1270.10" y="-1743.53">R327</text>
<circle data-id="328" cx="391.23" cy="-1120.86" r="10.00px"/>
<text data-id="328" x="391.23" y="-1120.86">R328</text>
<circle data-id="329" cx="1205.80" cy="-599.31" r="10.00px"/>
<text data-id="329" x="1205.80" y="-599.31">R329</text>
<circle data-id="330" cx="492.06" cy="-335.35" r="10.00px"/>
<text data-id="330" x="492.06" y="-335.35">R330</text>
<circle data-id="331" cx="427.77" cy="-1566.93" r="10.00px"/>
<text data-id="331" x="427.77" y="-1566.93">R331</text>
<circle data-id="332" cx="1788.74" cy="-1083.99" r="10.00px"/>
<text data-id="332" x="1788.74" y="-1083.99">R332</text>
<circle data-id="333" cx="520.64" cy="-1068.20" r="10.00px"/>
<text data-id="333" x="520.64" y="-1068.20">R333</text>
<circle data-id="334" cx="1450.87" cy="-1602.33" r="10.00px"/>
<text data-id="334" x="1450.87" y="-1602.33">R334</text>
<circle data-id="335" cx="1418.72" cy="-1221.81" r="10.00px"/>
<text data-id="335" x="1418.72" y="-1221.81">R335</text>
<circle data-id="336" cx="806.52" cy="-956.14" r="10.00px"/>
<text data-id="336" x="806.52" y="-956.14">R336</text>
<circle data-id="337" cx="810.90" cy="-644.97" r="10.00px"/>
<text data-id="337" x="810.90" y="-644.97">R337</text>
<circle data-id="338" cx="639.44" cy="-184.60" r="10.00px"/>
<text data-id="338" x="639.44" y="-184.60">R338</text>
<circle data-id="339" cx="444.09" cy="-1810.43" r="10.00px"/>
<text data-id="339" x="444.09" y="-1810.43">R339</text>
<circle data-id="340" cx="1773.60" cy="-1609.90" r="10.00px"/>
<text data-id="340" x="1773.60" y="-1609.90">R340</text>
<circle data-id="341" cx="177.47" cy="-1640.10" r="10.00px"/>
<text data-id="341" x="177.47" y="-1640.10">R341</text>
<circle data-id="342" cx="291.68" cy="-175.51" r="10.00px"/>
<text data-id="342" x="291.68" y="-175.51">R342</text>
<circle data-id="343" cx="523.49" cy="-406.02" r="10.00px"/>
<text data-id="343" x="523.49" y="-406.02">R343</text>
<circle data-id="344" cx="1457.94" cy="-53.60" r="10.00px"/>
<text data-id="344" x="1457.94" y="-53.60">R344</text>
<circle data-id="345" cx="135.06" cy="-946.64" r="10.00px"/>
<text data-id="345" x="135.06" y="-946.64">R345</text>
<circle data-id="346" cx="939.49" cy="-145.50" r="10.00px"/>
<text data-id="346" x="939.49" y="-145.50">R346</text>
<circle data-id="347" cx="1289.96" cy="-1562.92" r="10.00px"/>
<text data-id="347" x="1289.96" y="-1562.92">R347</text>
<circle data-id="348" cx="899.81" cy="-8.07" r="10.00px"/>
<text data-id="348" x="899.81" y="-8.07">R348</text>
<circle data-id="349" cx="857.46" cy="-1472.88" r="10.00px"/>
<text data-id="349" x="857.46" y="-1472.88">R349</text>
<circle data-id="350" cx="1374.76" cy="-1565.69" r="10.00px"/>
<text data-id="350" x="1374.76" y="-1565.69">R350</text>
<circle data-id="351" cx="1649.28" cy="-523.94" r="10.00px"/>
<text data-id="351" x="1649.28" y="-523.94">R351</text>
<circle data-id="352" cx="1924.24" cy="-1322.54" r="10.00px"/>
<text data-id="352" x="1924.24" y="-1322.54">R352</text>
<circle data-id="353" cx="1121.73" cy="-1742.66" r="10.00px"/>
<text data-id="353" x="1121.73" y="-1742.66">R353</text>
<circle data-id="354" cx="1049.30" cy="-455.37" r="10.00px"/>
<text data-id="354" x="1049.30" y="-455.37">R354</text>
<circle data-id="355" cx="1305.38" cy="-666.53" r="10.00px"/>
<text data-id="355" x="1305.38" y="-666.53">R355</text>
<circle data-id="356" cx="447.00" cy="-894.38" r="10.00px"/>
<text data-id="356" x="447.00" y="-894.38">R356</text>
<circle data-id="357" cx="1008.46" cy="-1836.15" r="10.00px"/>
<text data-id="357" x="1008.46" y="-1836.15">R357</text>
<circle data-id="358" cx="830.64" cy="-1315.32" r="10.00px"/>
<text data-id="358" x="830.64" y="-1315.32">R358</text>
<circle data-id="359" cx="1822.71" cy="-1086.65" r="10.00px"/>
<text data-id="359" x="1822.71" y="-1086.65">R359</text>
<circle data-id="360" cx="602.85" cy="-1079.08" r="10.00px"/>
<text data-id="360" x="602.85" y="-1079.08">R360</text>
<circle data-id="361" cx="1248.78" cy="-216.03" r="10.00px"/>
<text data-id="361" x="1248.78" y="-216.03">R361</text>
<circle data-id="362" cx="1100.41" cy="-1697.55" r="10.00px"/>
<text data-id="362" x="1100.41" y="-1697.55">R362</text>
<circle data-id="363" cx="1762.21" cy="-1565.36" r="10.00px"/>
<text data-id="363" x="1762.21" y="-1565.36">R363</text>
<circle data-id="364" cx="1632.37" cy="-1102.09" r="10.00px"/>
<text data-id="364" x="1632.37" y="-1102.09">R364</text>
<circle data-id="365" cx="241.60" cy="-1619.99" r="10.00px"/>
<text data-id="365" x="241.60" y="-1619.99">R365</text>
<circle data-id="366" cx="79.67" cy="-1924.15" r="10.00px"/>
<text data-id="366" x="79.67" y="-1924.15">R366</text>
<circle data-id="367" cx="353.73" cy="-528.16" r="10.00px"/>
<text data-id="367" x="353.73" y="-528.16">R367</text>
<circle data-id="368" cx="895.97" cy="-855.07" r="10.00px"/>
<text data-id="368" x="895.97" y="-855.07">R368</text>
<circle data-id="369" cx="835.72" cy="-627.52" r="10.00px"/>
<text data-id="369" x="835.72" y="-627.52">R369</text>
<circle data-id="370" cx="619.33" cy="-706.30" r="10.00px"/>
<text data-id="370" x="619.33" y="-706.30">R370</text>
<circle data-id="371" cx="1253.12" cy="-1599.77" r="10.00px"/>
<text data-id="371" x="1253.12" y="-1599.77">R371</text>
<circle data-id="372" cx="284.66" cy="-723.08" r="10.00px"/>
<text data-id="372" x="284.66" y="-723.08">R372</text>
<circle data-id="373" cx="1280.45" cy="-1533.42" r="10.00px"/>
<text data-id="373" x="1280.45" y="-1533.42">R373</text>
<circle data-id="374" cx="810.52" cy="-1074.51" r="10.00px"/>
<text data-id="374" x="810.52" y="-1074.51">R374</text>
<circle data-id="375" cx="1297.21" cy="-1998.80" r="10.00px"/>
<text data-id="375" x="1297.21" y="-1998.80">R375</text>
<circle data-id="376" cx="1477.92" cy="-1285.40" r="10.00px"/>
<text data-id="376" x="1477.92" y="-1285.40">R376</text>
<circle data-id="377" cx="17.76" cy="-204.11" r="10.00px"/>
<text data-id="377" x="17.76" y="-204.11">R377</text>
<circle data-id="378" cx="131.03" cy="-244.58" r="10.00px"/>
<text data-id="378" x="131.03" y="-244.58">R378</text>
<circle data-id="379" cx="1466.42" cy="-715.88" r="10.00px"/>
<text data-id="379" x="1466.42" y="-715.88">R379</text>
<circle data-id="380" cx="196.56" cy="-725.13" r="10.00px"/>
<text data-id="380" x="196.56" y="-725.13">R380</text>
<circle data-id="381" cx="1982.43" cy="-1049.27" r="10.00px"/>
<text data-id="381" x="1982.43" y="-1049.27">R381</text>
<circle data-id="382" cx="133.91" cy="-1125.33" r="10.00px"/>
<text data-id="382" x="133.91" y="-1125.33">R382</text>
<circle data-id="383" cx="1806.24" cy="-1487.42" r="10.00px"/>
<text data-id="383" x="1806.24" y="-1487.42">R383</text>
<circle data-id="384" cx="1244.14" cy="-605.29" r="10.00px"/>
<text data-id="384" x="1244.14" y="-605.29">R384</text>
<circle data-id="385" cx="509.36" cy="-1732.50" r="10.00px"/>
<text data-id="385" x="509.36" y="-1732.50">R385</text>
<circle data-id="386" cx="686.46" cy="-333.06" r="10.00px"/>
<text data-id="386" x="686.46" y="-333.06">R386</text>
<circle data-id="387" cx="1237.45" cy="-1050.28" r="10.00px"/>
<text data-id="387" x="1237.45" y="-1050.28">R387</text>
<circle data-id="388" cx="770.67" cy="-1266.72" r="10.00px"/>
<text data-id="388" x="770.67" y="-1266.72">R388</text>
<circle data-id="389" cx="1337.41" cy="-1491.95" r="10.00px"/>
<text data-id="389" x="1337.41" y="-1491.95">R389</text>
<circle data-id="390" cx="1172.19" cy="-1835.94" r="10.00px"/>
<text data-id="390" x="1172.19" y="-1835.94">R390</text>
<circle data-id="391" cx="315.32" cy="-1975.53" r="10.00px"/>
<text data-id="391" x="315.32" y="-1975.53">R391</text>
<circle data-id="392" cx="1864.33" cy="-794.17" r="10.00px"/>
<text data-id="392" x="1864.33" y="-794.17">R392</text>
<circle data-id="393" cx="991.91" cy="-471.00" r="10.00px"/>
<text data-id="393" x="991.91" y="-471.00">R393</text>
<circle data-id="394" cx="287.02" cy="-1012.62" r="10.00px"/>
<text data-id="394" x="287.02" y="-1012.62">R394</text>
<circle data-id="395" cx="1602.55" cy="-1015.42" r="10.00px"/>
<text data-id="395" x="1602.55" y="-1015.42">R395</text>
<circle data-id="396" cx="602.14" cy="-1640.59" r="10.00px"/>
<text data-id="396" x="602.14" y="-1640.59">R396</text>
<circle data-id="397" cx="641.66" cy="-1843.42" r="10.00px"/>
<text data-id="397" x="641.66" y="-1843.42">R397</text>
<circle data-id="398" cx="1422.83" cy="-1890.03" r="10.00px"/>
<text data-id="398" x="1422.83" y="-1890.03">R398</text>
<circle data-id="399" cx="1734.95" cy="-145.49" r="10.00px"/>
<text data-id="399" x="1734.95" y="-145.49">R399</text>
</svg>
