<svg id="topo" viewBox="-39.39 -965.11 1004.04 1009.53" xmlns="http://www.w3.org/2000/svg">
<style>#topo path {fill: none; stroke: grey; stroke-width: 5.0000px;} #topo circle {fill: lightblue; stroke: none; stroke-width: 0.3px; vector-effect: non-scaling-stroke; r: 10.0000px;} #topo text {fill: black; stroke: none; font-size: 15.0000px; font-family: sans-serif; text-anchor:middle; transform: translateY(0.3em);} #topo path.country {fill: lightgrey; stroke: black; stroke-width: 1px; vector-effect: non-scaling-stroke; visibility: visible;} #topo path.selection {fill: none; stroke: red; stroke-width: 1px; vector-effect: non-scaling-stroke; visibility: visible;} #topo path.utilization {visibility: hidden;}</style>
<path data-id="0-8" d="M848.49,-318.46,739.41,-206.77"/>
<path data-id="0-54" d="M848.49,-318.46,706.97,-314.59"/>
<path data-id="0-68" d="M848.49,-318.46,858.07,-342.36"/>
<path data-id="0-70" d="M848.49,-318.46,857.98,-207.47"/>
<path data-id="1-35" d="M248.61,-505.06,324.31,-454.75"/>
<path data-id="1-52" d="M248.61,-505.06,200.09,-339.14"/>
<path data-id="1-61" d="M248.61,-505.06,213.64,-573.46"/>
<path data-id="1-65" d="M248.61,-505.06,374.53,-562.78"/>
<path data-id="1-73" d="M248.61,-505.06,62.35,-485.73"/>
<path data-id="1-77" d="M248.61,-505.06,245.95,-575.15"/>
<path data-id="2-46" d="M213.41,-211.11,228.91,-251.78"/>
<path data-id="2-50" d="M213.41,-211.11,204.49,-161.77"/>
<path data-id="2-56" d="M213.41,-211.11,322.92,-209.60"/>
<path data-id="3-19" d="M827.56,-457.43,821.30,-611.83"/>
<path data-id="3-49" d="M827.56,-457.43,919.01,-579.84"/>
<path data-id="3-68" d="M827.56,-457.43,858.07,-342.36"/>
<path data-id="3-76" d="M827.56,-457.43,726.87,-465.01"/>
<path data-id="4-13" d="M506.04,-747.69,383.92,-865.30"/>
<path data-id="4-24" d="M506.04,-747.69,284.70,-730.53"/>
<path data-id="4-26" d="M506.04,-747.69,523.25,-671.16"/>
<path data-id="4-38" d="M506.04,-747.69,485.27,-919.22"/>
<path data-id="4-82" d="M506.04,-747.69,597.29,-754.71"/>
<path data-id="5-7" d="M566.29,-291.17,452.61,-336.05"/>
<path data-id="5-18" d="M566.29,-291.17,586.36,-309.91"/>
<path data-id="5-55" d="M566.29,-291.17,554.80,-225.59"/>
<path data-id="6-16" d="M192.86,-618.97,161.35,-591.25"/>
<path data-id="6-24" d="M192.86,-618.97,284.70,-730.53"/>
<path data-id="6-58" d="M192.86,-618.97,171.08,-770.72"/>
<path data-id="6-61" d="M192.86,-618.97,213.64,-573.46"/>
<path data-id="7-22" d="M452.61,-336.05,429.70,-409.84"/>
<path data-id="7-45" d="M452.61,-336.05,400.42,-295.67"/>
<path data-id="7-51" d="M452.61,-336.05,565.72,-424.90"/>
<path data-id="7-62" d="M452.61,-336.05,504.43,-212.06"/>
<path data-id="8-54" d="M739.41,-206.77,706.97,-314.59"/>
<path data-id="8-70" d="M739.41,-206.77,857.98,-207.47"/>
<path data-id="8-81" d="M739.41,-206.77,722.01,-178.11"/>
<path data-id="9-33" d="M341.13,-60.92,308.42,-123.96"/>
<path data-id="9-62" d="M341.13,-60.92,504.43,-212.06"/>
<path data-id="9-79" d="M341.13,-60.92,290.41,-101.70"/>
<path data-id="10-25" d="M687.71,-30.55,721.16,-81.42"/>
<path data-id="10-48" d="M687.71,-30.55,813.10,-16.83"/>
<path data-id="11-23" d="M38.77,-220.96,156.96,-137.57"/>
<path data-id="11-34" d="M38.77,-220.96,46.22,-114.33"/>
<path data-id="11-80" d="M38.77,-220.96,52.07,-271.74"/>
<path data-id="12-40" d="M658.06,-569.92,622.39,-503.15"/>
<path data-id="12-47" d="M658.06,-569.92,585.17,-523.35"/>
<path data-id="12-53" d="M658.06,-569.92,632.40,-590.27"/>
<path data-id="12-66" d="M658.06,-569.92,685.47,-602.14"/>
<path data-id="12-76" d="M658.06,-569.92,726.87,-465.01"/>
<path data-id="13-20" d="M383.92,-865.30,339.12,-911.58"/>
<path data-id="13-29" d="M383.92,-865.30,322.87,-824.66"/>
<path data-id="13-38" d="M383.92,-865.30,485.27,-919.22"/>
<path data-id="14-41" d="M6.25,-897.10,13.54,-820.76"/>
<path data-id="15-17" d="M318.59,-347.74,340.83,-387.31"/>
<path data-id="15-46" d="M318.59,-347.74,228.91,-251.78"/>
<path data-id="15-52" d="M318.59,-347.74,200.09,-339.14"/>
<path data-id="15-59" d="M318.59,-347.74,360.15,-278.38"/>
<path data-id="16-28" d="M161.35,-591.25,75.19,-560.97"/>
<path data-id="16-61" d="M161.35,-591.25,213.64,-573.46"/>
<path data-id="16-71" d="M161.35,-591.25,96.47,-648.69"/>
<path data-id="17-35" d="M340.83,-387.31,324.31,-454.75"/>
<path data-id="17-44" d="M340.83,-387.31,401.61,-434.17"/>
<path data-id="18-32" d="M586.36,-309.91,624.16,-340.60"/>
<path data-id="19-31" d="M821.30,-611.83,804.43,-778.16"/>
<path data-id="19-49" d="M821.30,-611.83,919.01,-579.84"/>
<path data-id="19-64" d="M821.30,-611.83,700.82,-694.15"/>
<path data-id="19-66" d="M821.30,-611.83,685.47,-602.14"/>
<path data-id="19-76" d="M821.30,-611.83,726.87,-465.01"/>
<path data-id="20-29" d="M339.12,-911.58,322.87,-824.66"/>
<path data-id="21-28" d="M34.39,-587.03,75.19,-560.97"/>
<path data-id="21-71" d="M34.39,-587.03,96.47,-648.69"/>
<path data-id="22-44" d="M429.70,-409.84,401.61,-434.17"/>
<path data-id="22-51" d="M429.70,-409.84,565.72,-424.90"/>
<path data-id="23-34" d="M156.96,-137.57,46.22,-114.33"/>
<path data-id="23-50" d="M156.96,-137.57,204.49,-161.77"/>
<path data-id="23-67" d="M156.96,-137.57,193.84,-113.92"/>
<path data-id="24-29" d="M284.70,-730.53,322.87,-824.66"/>
<path data-id="24-58" d="M284.70,-730.53,171.08,-770.72"/>
<path data-id="24-65" d="M284.70,-730.53,374.53,-562.78"/>
<path data-id="25-30" d="M721.16,-81.42,798.17,-117.29"/>
<path data-id="25-48" d="M721.16,-81.42,813.10,-16.83"/>
<path data-id="25-83" d="M721.16,-81.42,696.67,-114.62"/>
<path data-id="26-37" d="M523.25,-671.16,453.63,-588.28"/>
<path data-id="26-69" d="M523.25,-671.16,590.85,-609.98"/>
<path data-id="26-82" d="M523.25,-671.16,597.29,-754.71"/>
<path data-id="27-64" d="M667.46,-683.02,700.82,-694.15"/>
<path data-id="27-66" d="M667.46,-683.02,685.47,-602.14"/>
<path data-id="27-69" d="M667.46,-683.02,590.85,-609.98"/>
<path data-id="27-82" d="M667.46,-683.02,597.29,-754.71"/>
<path data-id="28-71" d="M75.19,-560.97,96.47,-648.69"/>
<path data-id="28-73" d="M75.19,-560.97,62.35,-485.73"/>
<path data-id="30-48" d="M798.17,-117.29,813.10,-16.83"/>
<path data-id="30-70" d="M798.17,-117.29,857.98,-207.47"/>
<path data-id="30-81" d="M798.17,-117.29,722.01,-178.11"/>
<path data-id="31-42" d="M804.43,-778.16,672.32,-856.33"/>
<path data-id="31-64" d="M804.43,-778.16,700.82,-694.15"/>
<path data-id="32-54" d="M624.16,-340.60,706.97,-314.59"/>
<path data-id="32-72" d="M624.16,-340.60,611.87,-407.01"/>
<path data-id="33-56" d="M308.42,-123.96,322.92,-209.60"/>
<path data-id="33-79" d="M308.42,-123.96,290.41,-101.70"/>
<path data-id="35-44" d="M324.31,-454.75,401.61,-434.17"/>
<path data-id="35-65" d="M324.31,-454.75,374.53,-562.78"/>
<path data-id="36-58" d="M106.49,-709.70,171.08,-770.72"/>
<path data-id="36-71" d="M106.49,-709.70,96.47,-648.69"/>
<path data-id="36-78" d="M106.49,-709.70,92.17,-817.07"/>
<path data-id="37-65" d="M453.63,-588.28,374.53,-562.78"/>
<path data-id="37-84" d="M453.63,-588.28,470.63,-564.33"/>
<path data-id="38-63" d="M485.27,-919.22,624.44,-876.51"/>
<path data-id="39-73" d="M25.46,-468.47,62.35,-485.73"/>
<path data-id="39-75" d="M25.46,-468.47,120.46,-311.69"/>
<path data-id="39-80" d="M25.46,-468.47,52.07,-271.74"/>
<path data-id="40-47" d="M622.39,-503.15,585.17,-523.35"/>
<path data-id="40-51" d="M622.39,-503.15,565.72,-424.90"/>
<path data-id="40-72" d="M622.39,-503.15,611.87,-407.01"/>
<path data-id="40-76" d="M622.39,-503.15,726.87,-465.01"/>
<path data-id="41-78" d="M13.54,-820.76,92.17,-817.07"/>
<path data-id="42-63" d="M672.32,-856.33,624.44,-876.51"/>
<path data-id="42-64" d="M672.32,-856.33,700.82,-694.15"/>
<path data-id="42-82" d="M672.32,-856.33,597.29,-754.71"/>
<path data-id="43-48" d="M872.35,-1.47,813.10,-16.83"/>
<path data-id="44-65" d="M401.61,-434.17,374.53,-562.78"/>
<path data-id="44-84" d="M401.61,-434.17,470.63,-564.33"/>
<path data-id="45-59" d="M400.42,-295.67,360.15,-278.38"/>
<path data-id="45-62" d="M400.42,-295.67,504.43,-212.06"/>
<path data-id="46-52" d="M228.91,-251.78,200.09,-339.14"/>
<path data-id="46-56" d="M228.91,-251.78,322.92,-209.60"/>
<path data-id="46-60" d="M228.91,-251.78,168.76,-307.95"/>
<path data-id="47-51" d="M585.17,-523.35,565.72,-424.90"/>
<path data-id="47-53" d="M585.17,-523.35,632.40,-590.27"/>
<path data-id="47-69" d="M585.17,-523.35,590.85,-609.98"/>
<path data-id="47-84" d="M585.17,-523.35,470.63,-564.33"/>
<path data-id="50-67" d="M204.49,-161.77,193.84,-113.92"/>
<path data-id="50-79" d="M204.49,-161.77,290.41,-101.70"/>
<path data-id="51-72" d="M565.72,-424.90,611.87,-407.01"/>
<path data-id="52-60" d="M200.09,-339.14,168.76,-307.95"/>
<path data-id="52-73" d="M200.09,-339.14,62.35,-485.73"/>
<path data-id="53-69" d="M632.40,-590.27,590.85,-609.98"/>
<path data-id="54-76" d="M706.97,-314.59,726.87,-465.01"/>
<path data-id="55-62" d="M554.80,-225.59,504.43,-212.06"/>
<path data-id="55-74" d="M554.80,-225.59,662.93,-129.12"/>
<path data-id="56-59" d="M322.92,-209.60,360.15,-278.38"/>
<path data-id="57-67" d="M212.31,-58.14,193.84,-113.92"/>
<path data-id="57-79" d="M212.31,-58.14,290.41,-101.70"/>
<path data-id="58-78" d="M171.08,-770.72,92.17,-817.07"/>
<path data-id="60-75" d="M168.76,-307.95,120.46,-311.69"/>
<path data-id="61-77" d="M213.64,-573.46,245.95,-575.15"/>
<path data-id="63-82" d="M624.44,-876.51,597.29,-754.71"/>
<path data-id="65-77" d="M374.53,-562.78,245.95,-575.15"/>
<path data-id="67-79" d="M193.84,-113.92,290.41,-101.70"/>
<path data-id="69-84" d="M590.85,-609.98,470.63,-564.33"/>
<path data-id="72-76" d="M611.87,-407.01,726.87,-465.01"/>
<path data-id="73-75" d="M62.35,-485.73,120.46,-311.69"/>
<path data-id="74-81" d="M662.93,-129.12,722.01,-178.11"/>
<path data-id="74-83" d="M662.93,-129.12,696.67,-114.62"/>
<path data-id="75-80" d="M120.46,-311.69,52.07,-271.74"/>
<path data-id="81-83" d="M722.01,-178.11,696.67,-114.62"/>
<circle data-id="0" cx="848.49" cy="-318.46" r="10.00px"/>
<text data-id="0" x="848.49" y="-318.46">R0</text>
<circle data-id="1" cx="248.61" cy="-505.06" r="10.00px"/>
<text data-id="1" x="248.61" y="-505.06">R1</text>
<circle data-id="2" cx="213.41" cy="-211.11" r="10.00px"/>
<text data-id="2" x="213.41" y="-211.11">R2</text>
<circle data-id="3" cx="827.56" cy="-457.43" r="10.00px"/>
<text data-id="3" x="827.56" y="-457.43">R3</text>
<circle data-id="4" cx="506.04" cy="-747.69" r="10.00px"/>
<text data-id="4" x="506.04" y="-747.69">R4</text>
<circle data-id="5" cx="566.29" cy="-291.17" r="10.00px"/>
<text data-id="5" x="566.29" y="-291.17">R5</text>
<circle data-id="6" cx="192.86" cy="-618.97" r="10.00px"/>
<text data-id="6" x="192.86" y="-618.97">R6</text>
<circle data-id="7" cx="452.61" cy="-336.05" r="10.00px"/>
<text data-id="7" x="452.61" y="-336.05">R7</text>
<circle data-id="8" cx="739.41" cy="-206.77" r="10.00px"/>
<text data-id="8" x="739.41" y="-206.77">R8</text>
<circle data-id="9" cx="341.13" cy="-60.92" r="10.00px"/>
<text data-id="9" x="341.13" y="-60.92">R9</text>
<circle data-id="10" cx="687.71" cy="-30.55" r="10.00px"/>
<text data-id="10" x="687.71" y="-30.55">R10</text>
<circle data-id="11" cx="38.77" cy="-220.96" r="10.00px"/>
<text data-id="11" x="38.77" y="-220.96">R11</text>
<circle data-id="12" cx="658.06" cy="-569.92" r="10.00px"/>
<text data-id="12" x="658.06" y="-569.92">R12</text>
<circle data-id="13" cx="383.92" cy="-865.30" r="10.00px"/>
<text data-id="13" x="383.92" y="-865.30">R13</text>
<circle data-id="14" cx="6.25" cy="-897.10" r="10.00px"/>
<text data-id="14" x="6.25" y="-897.10">R14</text>
<circle data-id="15" cx="318.59" cy="-347.74" r="10.00px"/>
<text data-id="15" x="318.59" y="-347.74">R15</text>
<circle data-id="16" cx="161.35" cy="-591.25" r="10.00px"/>
<text data-id="16" x="161.35" y="-591.25">R16</text>
<circle data-id="17" cx="340.83" cy="-387.31" r="10.00px"/>
<text data-id="17" x="340.83" y="-387.31">R17</text>
<circle data-id="18" cx="586.36" cy="-309.91" r="10.00px"/>
<text data-id="18" x="586.36" y="-309.91">R18</text>
<circle data-id="19" cx="821.30" cy="-611.83" r="10.00px"/>
<text data-id="19" x="821.30" y="-611.83">R19</text>
<circle data-id="20" cx="339.12" cy="-911.58" r="10.00px"/>
<text data-id="20" x="339.12" y="-911.58">R20</text>
<circle data-id="21" cx="34.39" cy="-587.03" r="10.00px"/>
<text data-id="21" x="34.39" y="-587.03">R21</text>
<circle data-id="22" cx="429.70" cy="-409.84" r="10.00px"/>
<text data-id="22" x="429.70" y="-409.84">R22</text>
<circle data-id="23" cx="156.96" cy="-137.57" r="10.00px"/>
<text data-id="23" x="156.96" y="-137.57">R23</text>
<circle data-id="24" cx="284.70" cy="-730.53" r="10.00px"/>
<text data-id="24" x="284.70" y="-730.53">R24</text>
<circle data-id="25" cx="721.16" cy="-81.42" r="10.00px"/>
<text data-id="25" x="721.16" y="-81.42">R25</text>
<circle data-id="26" cx="523.25" cy="-671.16" r="10.00px"/>
<text data-id="26" x="523.25" y="-671.16">R26</text>
<circle data-id="27" cx="667.46" cy="-683.02" r="10.00px"/>
<text data-id="27" x="667.46" y="-683.02">R27</text>
<circle data-id="28" cx="75.19" cy="-560.97" r="10.00px"/>
<text data-id="28" x="75.19" y="-560.97">R28</text>
<circle data-id="29" cx="322.87" cy="-824.66" r="10.00px"/>
<text data-id="29" x="322.87" y="-824.66">R29</text>
<circle data-id="30" cx="798.17" cy="-117.29" r="10.00px"/>
<text data-id="30" x="798.17" y="-117.29">R30</text>
<circle data-id="31" cx="804.43" cy="-778.16" r="10.00px"/>
<text data-id="31" x="804.43" y="-778.16">R31</text>
<circle data-id="32" cx="624.16" cy="-340.60" r="10.00px"/>
<text data-id="32" x="624.16" y="-340.60">R32</text>
<circle data-id="33" cx="308.42" cy="-123.96" r="10.00px"/>
<text data-id="33" x="308.42" y="-123.96">R33</text>
<circle data-id="34" cx="46.22" cy="-114.33" r="10.00px"/>
<text data-id="34" x="46.22" y="-114.33">R34</text>
<circle data-id="35" cx="324.31" cy="-454.75" r="10.00px"/>
<text data-id="35" x="324.31" y="-454.75">R35</text>
<circle data-id="36" cx="106.49" cy="-709.70" r="10.00px"/>
<text data-id="36" x="106.49" y="-709.70">R36</text>
<circle data-id="37" cx="453.63" cy="-588.28" r="10.00px"/>
<text data-id="37" x="453.63" y="-588.28">R37</text>
<circle data-id="38" cx="485.27" cy="-919.22" r="10.00px"/>
<text data-id="38" x="485.27" y="-919.22">R38</text>
<circle data-id="39" cx="25.46" cy="-468.47" r="10.00px"/>
<text data-id="39" x="25.46" y="-468.47">R39</text>
<circle data-id="40" cx="622.39" cy="-503.15" r="10.00px"/>
<text data-id="40" x="622.39" y="-503.15">R40</text>
<circle data-id="41" cx="13.54" cy="-820.76" r="10.00px"/>
<text data-id="41" x="13.54" y="-820.76">R41</text>
<circle data-id="42" cx="672.32" cy="-856.33" r="10.00px"/>
<text data-id="42" x="672.32" y="-856.33">R42</text>
<circle data-id="43" cx="872.35" cy="-1.47" r="10.00px"/>
<text data-id="43" x="872.35" y="-1.47">R43</text>
<circle data-id="44" cx="401.61" cy="-434.17" r="10.00px"/>
<text data-id="44" x="401.61" y="-434.17">R44</text>
<circle data-id="45" cx="400.42" cy="-295.67" r="10.00px"/>
<text data-id="45" x="400.42" y="-295.67">R45</text>
<circle data-id="46" cx="228.91" cy="-251.78" r="10.00px"/>
<text data-id="46" x="228.91" y="-251.78">R46</text>
<circle data-id="47" cx="585.17" cy="-523.35" r="10.00px"/>
<text data-id="47" x="585.17" y="-523.35">R47</text>
<circle data-id="48" cx="813.10" cy="-16.83" r="10.00px"/>
<text data-id="48" x="813.10" y="-16.83">R48</text>
<circle data-id="49" cx="919.01" cy="-579.84" r="10.00px"/>
<text data-id="49" x="919.01" y="-579.84">R49</text>
<circle data-id="50" cx="204.49" cy="-161.77" r="10.00px"/>
<text data-id="50" x="204.49" y="-161.77">R50</text>
<circle data-id="51" cx="565.72" cy="-424.90" r="10.00px"/>
<text data-id="51" x="565.72" y="-424.90">R51</text>
<circle data-id="52" cx="200.09" cy="-339.14" r="10.00px"/>
<text data-id="52" x="200.09" y="-339.14">R52</text>
<circle data-id="53" cx="632.40" cy="-590.27" r="10.00px"/>
<text data-id="53" x="632.40" y="-590.27">R53</text>
<circle data-id="54" cx="706.97" cy="-314.59" r="10.00px"/>
<text data-id="54" x="706.97" y="-314.59">R54</text>
<circle data-id="55" cx="554.80" cy="-225.59" r="10.00px"/>
<text data-id="55" x="554.80" y="-225.59">R55</text>
<circle data-id="56" cx="322.92" cy="-209.60" r="10.00px"/>
<text data-id="56" x="322.92" y="-209.60">R56</text>
<circle data-id="57" cx="212.31" cy="-58.14" r="10.00px"/>
<text data-id="57" x="212.31" y="-58.14">R57</text>
<circle data-id="58" cx="171.08" cy="-770.72" r="10.00px"/>
<text data-id="58" x="171.08" y="-770.72">R58</text>
<circle data-id="59" cx="360.15" cy="-278.38" r="10.00px"/>
<text data-id="59" x="360.15" y="-278.38">R59</text>
<circle data-id="60" cx="168.76" cy="-307.95" r="10.00px"/>
<text data-id="60" x="168.76" y="-307.95">R60</text>
<circle data-id="61" cx="213.64" cy="-573.46" r="10.00px"/>
<text data-id="61" x="213.64" y="-573.46">R61</text>
<circle data-id="62" cx="504.43" cy="-212.06" r="10.00px"/>
<text data-id="62" x="504.43" y="-212.06">R62</text>
<circle data-id="63" cx="624.44" cy="-876.51" r="10.00px"/>
<text data-id="63" x="624.44" y="-876.51">R63</text>
<circle data-id="64" cx="700.82" cy="-694.15" r="10.00px"/>
<text data-id="64" x="700.82" y="-694.15">R64</text>
<circle data-id="65" cx="374.53" cy="-562.78" r="10.00px"/>
<text data-id="65" x="374.53" y="-562.78">R65</text>
<circle data-id="66" cx="685.47" cy="-602.14" r="10.00px"/>
<text data-id="66" x="685.47" y="-602.14">R66</text>
<circle data-id="67" cx="193.84" cy="-113.92" r="10.00px"/>
<text data-id="67" x="193.84" y="-113.92">R67</text>
<circle data-id="68" cx="858.07" cy="-342.36" r="10.00px"/>
<text data-id="68" x="858.07" y="-342.36">R68</text>
<circle data-id="69" cx="590.85" cy="-609.98" r="10.00px"/>
<text data-id="69" x="590.85" y="-609.98">R69</text>
<circle data-id="70" cx="857.98" cy="-207.47" r="10.00px"/>
<text data-id="70" x="857.98" y="-207.47">R70</text>
<circle data-id="71" cx="96.47" cy="-648.69" r="10.00px"/>
<text data-id="71" x="96.47" y="-648.69">R71</text>
<circle data-id="72" cx="611.87" cy="-407.01" r="10.00px"/>
<text data-id="72" x="611.87" y="-407.01">R72</text>
<circle data-id="73" cx="62.35" cy="-485.73" r="10.00px"/>
<text data-id="73" x="62.35" y="-485.73">R73</text>
<circle data-id="74" cx="662.93" cy="-129.12" r="10.00px"/>
<text data-id="74" x="662.93" y="-129.12">R74</text>
<circle data-id="75" cx="120.46" cy="-311.69" r="10.00px"/>
<text data-id="75" x="120.46" y="-311.69">R75</text>
<circle data-id="76" cx="726.87" cy="-465.01" r="10.00px"/>
<text data-id="76" x="726.87" y="-465.01">R76</text>
<circle data-id="77" cx="245.95" cy="-575.15" r="10.00px"/>
<text data-id="77" x="245.95" y="-575.15">R77</text>
<circle data-id="78" cx="92.17" cy="-817.07" r="10.00px"/>
<text data-id="78" x="92.17" y="-817.07">R78</text>
<circle data-id="79" cx="290.41" cy="-101.70" r="10.00px"/>
<text data-id="79" x="290.41" y="-101.70">R79</text>
<circle data-id="80" cx="52.07" cy="-271.74" r="10.00px"/>
<text data-id="80" x="52.07" y="-271.74">R80</text>
<circle data-id="81" cx="722.01" cy="-178.11" r="10.00px"/>
<text data-id="81" x="722.01" y="-178.11">R81</text>
<circle data-id="82" cx="597.29" cy="-754.71" r="10.00px"/>
<text data-id="82" x="597.29" y="-754.71">R82</text>
<circle data-id="83" cx="696.67" cy="-114.62" r="10.00px"/>
<text data-id="83" x="696.67" y="-114.62">R83</text>
<circle data-id="84" cx="470.63" cy="-564.33" r="10.00px"/>
<text data-id="84" x="470.63" y="-564.33">R84</text>
</svg>
