<svg id="topo" viewBox="-20.12 -942.46 985.13 963.59" xmlns="http://www.w3.org/2000/svg">
<style>#topo path {fill: none; stroke: grey; stroke-width: 5.0000px;} #topo circle {fill: lightblue; stroke: none; stroke-width: 0.3px; vector-effect: non-scaling-stroke; r: 10.0000px;} #topo text {fill: black; stroke: none; font-size: 15.0000px; font-family: sans-serif; text-anchor:middle; transform: translateY(0.3em);} #topo path.country {fill: lightgrey; stroke: black; stroke-width: 1px; vector-effect: non-scaling-stroke; visibility: visible;} #topo path.selection {fill: none; stroke: red; stroke-width: 1px; vector-effect: non-scaling-stroke; visibility: visible;} #topo path.utilization {visibility: hidden;}</style>
<path data-id="0-19" d="M727.17,-650.34,791.83,-650.24"/>
<path data-id="0-23" d="M727.17,-650.34,595.87,-630.31"/>
<path data-id="0-56" d="M727.17,-650.34,778.23,-785.84"/>
<path data-id="0-69" d="M727.17,-650.34,746.00,-546.87"/>
<path data-id="1-5" d="M699.14,-240.57,737.49,-264.32"/>
<path data-id="1-26" d="M699.14,-240.57,671.63,-253.99"/>
<path data-id="1-40" d="M699.14,-240.57,686.38,-148.01"/>
<path data-id="2-5" d="M834.96,-319.88,737.49,-264.32"/>
<path data-id="2-25" d="M834.96,-319.88,868.69,-335.89"/>
<path data-id="2-48" d="M834.96,-319.88,893.87,-139.54"/>
<path data-id="2-75" d="M834.96,-319.88,860.78,-134.31"/>
<path data-id="3-6" d="M484.34,-632.48,571.59,-752.78"/>
<path data-id="3-23" d="M484.34,-632.48,595.87,-630.31"/>
<path data-id="3-47" d="M484.34,-632.48,429.18,-566.93"/>
<path data-id="3-51" d="M484.34,-632.48,579.00,-478.92"/>
<path data-id="3-81" d="M484.34,-632.48,401.54,-649.08"/>
<path data-id="4-50" d="M309.48,-898.66,392.45,-879.26"/>
<path data-id="4-76" d="M309.48,-898.66,245.14,-862.02"/>
<path data-id="5-75" d="M737.49,-264.32,860.78,-134.31"/>
<path data-id="6-23" d="M571.59,-752.78,595.87,-630.31"/>
<path data-id="6-30" d="M571.59,-752.78,529.95,-798.58"/>
<path data-id="6-80" d="M571.59,-752.78,582.37,-782.11"/>
<path data-id="7-19" d="M856.12,-695.88,791.83,-650.24"/>
<path data-id="7-56" d="M856.12,-695.88,778.23,-785.84"/>
<path data-id="7-79" d="M856.12,-695.88,865.65,-856.29"/>
<path data-id="7-83" d="M856.12,-695.88,881.50,-579.09"/>
<path data-id="8-13" d="M556.96,-373.68,621.60,-379.26"/>
<path data-id="8-55" d="M556.96,-373.68,592.28,-454.19"/>
<path data-id="8-57" d="M556.96,-373.68,562.01,-248.69"/>
<path data-id="8-64" d="M556.96,-373.68,423.02,-425.10"/>
<path data-id="8-72" d="M556.96,-373.68,399.43,-277.64"/>
<path data-id="9-32" d="M180.65,-659.50,24.65,-688.22"/>
<path data-id="9-33" d="M180.65,-659.50,330.35,-686.02"/>
<path data-id="9-43" d="M180.65,-659.50,176.05,-526.36"/>
<path data-id="9-74" d="M180.65,-659.50,163.39,-734.28"/>
<path data-id="9-84" d="M180.65,-659.50,341.72,-566.86"/>
<path data-id="10-61" d="M92.94,-284.54,140.65,-214.50"/>
<path data-id="10-73" d="M92.94,-284.54,117.80,-317.97"/>
<path data-id="11-27" d="M371.97,-161.49,350.63,-181.21"/>
<path data-id="11-49" d="M371.97,-161.49,377.20,-108.14"/>
<path data-id="11-77" d="M371.97,-161.49,423.52,-205.95"/>
<path data-id="11-82" d="M371.97,-161.49,425.48,-121.71"/>
<path data-id="12-14" d="M220.44,-796.90,166.41,-858.93"/>
<path data-id="12-33" d="M220.44,-796.90,330.35,-686.02"/>
<path data-id="12-74" d="M220.44,-796.90,163.39,-734.28"/>
<path data-id="12-76" d="M220.44,-796.90,245.14,-862.02"/>
<path data-id="13-24" d="M621.60,-379.26,788.82,-452.27"/>
<path data-id="13-26" d="M621.60,-379.26,671.63,-253.99"/>
<path data-id="13-55" d="M621.60,-379.26,592.28,-454.19"/>
<path data-id="14-15" d="M166.41,-858.93,177.68,-896.88"/>
<path data-id="14-65" d="M166.41,-858.93,50.38,-821.56"/>
<path data-id="14-76" d="M166.41,-858.93,245.14,-862.02"/>
<path data-id="15-76" d="M177.68,-896.88,245.14,-862.02"/>
<path data-id="16-38" d="M520.30,-132.97,612.88,-97.30"/>
<path data-id="16-41" d="M520.30,-132.97,556.00,-23.62"/>
<path data-id="16-42" d="M520.30,-132.97,449.35,-230.11"/>
<path data-id="16-57" d="M520.30,-132.97,562.01,-248.69"/>
<path data-id="16-77" d="M520.30,-132.97,423.52,-205.95"/>
<path data-id="16-82" d="M520.30,-132.97,425.48,-121.71"/>
<path data-id="17-20" d="M182.96,-227.55,214.43,-201.72"/>
<path data-id="17-61" d="M182.96,-227.55,140.65,-214.50"/>
<path data-id="17-63" d="M182.96,-227.55,247.60,-365.99"/>
<path data-id="17-73" d="M182.96,-227.55,117.80,-317.97"/>
<path data-id="18-39" d="M60.85,-381.86,59.67,-421.53"/>
<path data-id="18-73" d="M60.85,-381.86,117.80,-317.97"/>
<path data-id="19-56" d="M791.83,-650.24,778.23,-785.84"/>
<path data-id="19-66" d="M791.83,-650.24,809.32,-574.71"/>
<path data-id="20-27" d="M214.43,-201.72,350.63,-181.21"/>
<path data-id="20-35" d="M214.43,-201.72,310.56,-287.45"/>
<path data-id="20-68" d="M214.43,-201.72,198.91,-172.92"/>
<path data-id="21-30" d="M471.98,-846.40,529.95,-798.58"/>
<path data-id="21-33" d="M471.98,-846.40,330.35,-686.02"/>
<path data-id="21-50" d="M471.98,-846.40,392.45,-879.26"/>
<path data-id="21-81" d="M471.98,-846.40,401.54,-649.08"/>
<path data-id="22-44" d="M919.25,-114.04,920.23,-38.60"/>
<path data-id="22-48" d="M919.25,-114.04,893.87,-139.54"/>
<path data-id="23-51" d="M595.87,-630.31,579.00,-478.92"/>
<path data-id="24-36" d="M788.82,-452.27,814.73,-462.53"/>
<path data-id="24-55" d="M788.82,-452.27,592.28,-454.19"/>
<path data-id="24-69" d="M788.82,-452.27,746.00,-546.87"/>
<path data-id="25-67" d="M868.69,-335.89,830.92,-430.98"/>
<path data-id="26-45" d="M671.63,-253.99,648.88,-222.52"/>
<path data-id="27-35" d="M350.63,-181.21,310.56,-287.45"/>
<path data-id="28-52" d="M357.44,-373.60,336.95,-404.69"/>
<path data-id="28-54" d="M357.44,-373.60,312.92,-345.16"/>
<path data-id="28-64" d="M357.44,-373.60,423.02,-425.10"/>
<path data-id="28-72" d="M357.44,-373.60,399.43,-277.64"/>
<path data-id="29-38" d="M654.39,-160.84,612.88,-97.30"/>
<path data-id="29-40" d="M654.39,-160.84,686.38,-148.01"/>
<path data-id="29-45" d="M654.39,-160.84,648.88,-222.52"/>
<path data-id="30-80" d="M529.95,-798.58,582.37,-782.11"/>
<path data-id="31-40" d="M745.77,-73.57,686.38,-148.01"/>
<path data-id="31-46" d="M745.77,-73.57,857.31,-22.67"/>
<path data-id="31-75" d="M745.77,-73.57,860.78,-134.31"/>
<path data-id="32-34" d="M24.65,-688.22,40.55,-528.23"/>
<path data-id="32-65" d="M24.65,-688.22,50.38,-821.56"/>
<path data-id="32-74" d="M24.65,-688.22,163.39,-734.28"/>
<path data-id="33-50" d="M330.35,-686.02,392.45,-879.26"/>
<path data-id="33-81" d="M330.35,-686.02,401.54,-649.08"/>
<path data-id="33-84" d="M330.35,-686.02,341.72,-566.86"/>
<path data-id="34-37" d="M40.55,-528.23,34.17,-461.23"/>
<path data-id="34-43" d="M40.55,-528.23,176.05,-526.36"/>
<path data-id="35-54" d="M310.56,-287.45,312.92,-345.16"/>
<path data-id="35-72" d="M310.56,-287.45,399.43,-277.64"/>
<path data-id="36-62" d="M814.73,-462.53,880.85,-477.92"/>
<path data-id="36-66" d="M814.73,-462.53,809.32,-574.71"/>
<path data-id="36-67" d="M814.73,-462.53,830.92,-430.98"/>
<path data-id="37-39" d="M34.17,-461.23,59.67,-421.53"/>
<path data-id="38-41" d="M612.88,-97.30,556.00,-23.62"/>
<path data-id="39-71" d="M59.67,-421.53,93.94,-423.04"/>
<path data-id="42-57" d="M449.35,-230.11,562.01,-248.69"/>
<path data-id="42-72" d="M449.35,-230.11,399.43,-277.64"/>
<path data-id="42-77" d="M449.35,-230.11,423.52,-205.95"/>
<path data-id="43-63" d="M176.05,-526.36,247.60,-365.99"/>
<path data-id="43-71" d="M176.05,-526.36,93.94,-423.04"/>
<path data-id="43-84" d="M176.05,-526.36,341.72,-566.86"/>
<path data-id="44-46" d="M920.23,-38.60,857.31,-22.67"/>
<path data-id="45-57" d="M648.88,-222.52,562.01,-248.69"/>
<path data-id="46-75" d="M857.31,-22.67,860.78,-134.31"/>
<path data-id="47-59" d="M429.18,-566.93,452.65,-503.79"/>
<path data-id="47-78" d="M429.18,-566.93,411.17,-494.82"/>
<path data-id="47-81" d="M429.18,-566.93,401.54,-649.08"/>
<path data-id="47-84" d="M429.18,-566.93,341.72,-566.86"/>
<path data-id="48-75" d="M893.87,-139.54,860.78,-134.31"/>
<path data-id="49-53" d="M377.20,-108.14,251.30,-49.99"/>
<path data-id="49-82" d="M377.20,-108.14,425.48,-121.71"/>
<path data-id="51-55" d="M579.00,-478.92,592.28,-454.19"/>
<path data-id="51-59" d="M579.00,-478.92,452.65,-503.79"/>
<path data-id="51-69" d="M579.00,-478.92,746.00,-546.87"/>
<path data-id="52-54" d="M336.95,-404.69,312.92,-345.16"/>
<path data-id="52-64" d="M336.95,-404.69,423.02,-425.10"/>
<path data-id="53-58" d="M251.30,-49.99,193.14,-101.92"/>
<path data-id="54-63" d="M312.92,-345.16,247.60,-365.99"/>
<path data-id="55-69" d="M592.28,-454.19,746.00,-546.87"/>
<path data-id="56-79" d="M778.23,-785.84,865.65,-856.29"/>
<path data-id="56-80" d="M778.23,-785.84,582.37,-782.11"/>
<path data-id="58-68" d="M193.14,-101.92,198.91,-172.92"/>
<path data-id="58-70" d="M193.14,-101.92,128.79,-72.40"/>
<path data-id="59-78" d="M452.65,-503.79,411.17,-494.82"/>
<path data-id="60-61" d="M39.20,-121.82,140.65,-214.50"/>
<path data-id="60-70" d="M39.20,-121.82,128.79,-72.40"/>
<path data-id="61-68" d="M140.65,-214.50,198.91,-172.92"/>
<path data-id="62-66" d="M880.85,-477.92,809.32,-574.71"/>
<path data-id="62-67" d="M880.85,-477.92,830.92,-430.98"/>
<path data-id="62-83" d="M880.85,-477.92,881.50,-579.09"/>
<path data-id="63-71" d="M247.60,-365.99,93.94,-423.04"/>
<path data-id="63-73" d="M247.60,-365.99,117.80,-317.97"/>
<path data-id="64-78" d="M423.02,-425.10,411.17,-494.82"/>
<path data-id="65-74" d="M50.38,-821.56,163.39,-734.28"/>
<path data-id="66-69" d="M809.32,-574.71,746.00,-546.87"/>
<path data-id="66-83" d="M809.32,-574.71,881.50,-579.09"/>
<path data-id="72-77" d="M399.43,-277.64,423.52,-205.95"/>
<path data-id="77-82" d="M423.52,-205.95,425.48,-121.71"/>
<path data-id="78-84" d="M411.17,-494.82,341.72,-566.86"/>
<path data-id="81-84" d="M401.54,-649.08,341.72,-566.86"/>
<circle data-id="0" cx="727.17" cy="-650.34" r="10.00px"/>
<text data-id="0" x="727.17" y="-650.34">R0</text>
<circle data-id="1" cx="699.14" cy="-240.57" r="10.00px"/>
<text data-id="1" x="699.14" y="-240.57">R1</text>
<circle data-id="2" cx="834.96" cy="-319.88" r="10.00px"/>
<text data-id="2" x="834.96" y="-319.88">R2</text>
<circle data-id="3" cx="484.34" cy="-632.48" r="10.00px"/>
<text data-id="3" x="484.34" y="-632.48">R3</text>
<circle data-id="4" cx="309.48" cy="-898.66" r="10.00px"/>
<text data-id="4" x="309.48" y="-898.66">R4</text>
<circle data-id="5" cx="737.49" cy="-264.32" r="10.00px"/>
<text data-id="5" x="737.49" y="-264.32">R5</text>
<circle data-id="6" cx="571.59" cy="-752.78" r="10.00px"/>
<text data-id="6" x="571.59" y="-752.78">R6</text>
<circle data-id="7" cx="856.12" cy="-695.88" r="10.00px"/>
<text data-id="7" x="856.12" y="-695.88">R7</text>
<circle data-id="8" cx="556.96" cy="-373.68" r="10.00px"/>
<text data-id="8" x="556.96" y="-373.68">R8</text>
<circle data-id="9" cx="180.65" cy="-659.50" r="10.00px"/>
<text data-id="9" x="180.65" y="-659.50">R9</text>
<circle data-id="10" cx="92.94" cy="-284.54" r="10.00px"/>
<text data-id="10" x="92.94" y="-284.54">R10</text>
<circle data-id="11" cx="371.97" cy="-161.49" r="10.00px"/>
<text data-id="11" x="371.97" y="-161.49">R11</text>
<circle data-id="12" cx="220.44" cy="-796.90" r="10.00px"/>
<text data-id="12" x="220.44" y="-796.90">R12</text>
<circle data-id="13" cx="621.60" cy="-379.26" r="10.00px"/>
<text data-id="13" x="621.60" y="-379.26">R13</text>
<circle data-id="14" cx="166.41" cy="-858.93" r="10.00px"/>
<text data-id="14" x="166.41" y="-858.93">R14</text>
<circle data-id="15" cx="177.68" cy="-896.88" r="10.00px"/>
<text data-id="15" x="177.68" y="-896.88">R15</text>
<circle data-id="16" cx="520.30" cy="-132.97" r="10.00px"/>
<text data-id="16" x="520.30" y="-132.97">R16</text>
<circle data-id="17" cx="182.96" cy="-227.55" r="10.00px"/>
<text data-id="17" x="182.96" y="-227.55">R17</text>
<circle data-id="18" cx="60.85" cy="-381.86" r="10.00px"/>
<text data-id="18" x="60.85" y="-381.86">R18</text>
<circle data-id="19" cx="791.83" cy="-650.24" r="10.00px"/>
<text data-id="19" x="791.83" y="-650.24">R19</text>
<circle data-id="20" cx="214.43" cy="-201.72" r="10.00px"/>
<text data-id="20" x="214.43" y="-201.72">R20</text>
<circle data-id="21" cx="471.98" cy="-846.40" r="10.00px"/>
<text data-id="21" x="471.98" y="-846.40">R21</text>
<circle data-id="22" cx="919.25" cy="-114.04" r="10.00px"/>
<text data-id="22" x="919.25" y="-114.04">R22</text>
<circle data-id="23" cx="595.87" cy="-630.31" r="10.00px"/>
<text data-id="23" x="595.87" y="-630.31">R23</text>
<circle data-id="24" cx="788.82" cy="-452.27" r="10.00px"/>
<text data-id="24" x="788.82" y="-452.27">R24</text>
<circle data-id="25" cx="868.69" cy="-335.89" r="10.00px"/>
<text data-id="25" x="868.69" y="-335.89">R25</text>
<circle data-id="26" cx="671.63" cy="-253.99" r="10.00px"/>
<text data-id="26" x="671.63" y="-253.99">R26</text>
<circle data-id="27" cx="350.63" cy="-181.21" r="10.00px"/>
<text data-id="27" x="350.63" y="-181.21">R27</text>
<circle data-id="28" cx="357.44" cy="-373.60" r="10.00px"/>
<text data-id="28" x="357.44" y="-373.60">R28</text>
<circle data-id="29" cx="654.39" cy="-160.84" r="10.00px"/>
<text data-id="29" x="654.39" y="-160.84">R29</text>
<circle data-id="30" cx="529.95" cy="-798.58" r="10.00px"/>
<text data-id="30" x="529.95" y="-798.58">R30</text>
<circle data-id="31" cx="745.77" cy="-73.57" r="10.00px"/>
<text data-id="31" x="745.77" y="-73.57">R31</text>
<circle data-id="32" cx="24.65" cy="-688.22" r="10.00px"/>
<text data-id="32" x="24.65" y="-688.22">R32</text>
<circle data-id="33" cx="330.35" cy="-686.02" r="10.00px"/>
<text data-id="33" x="330.35" y="-686.02">R33</text>
<circle data-id="34" cx="40.55" cy="-528.23" r="10.00px"/>
<text data-id="34" x="40.55" y="-528.23">R34</text>
<circle data-id="35" cx="310.56" cy="-287.45" r="10.00px"/>
<text data-id="35" x="310.56" y="-287.45">R35</text>
<circle data-id="36" cx="814.73" cy="-462.53" r="10.00px"/>
<text data-id="36" x="814.73" y="-462.53">R36</text>
<circle data-id="37" cx="34.17" cy="-461.23" r="10.00px"/>
<text data-id="37" x="34.17" y="-461.23">R37</text>
<circle data-id="38" cx="612.88" cy="-97.30" r="10.00px"/>
<text data-id="38" x="612.88" y="-97.30">R38</text>
<circle data-id="39" cx="59.67" cy="-421.53" r="10.00px"/>
<text data-id="39" x="59.67" y="-421.53">R39</text>
<circle data-id="40" cx="686.38" cy="-148.01" r="10.00px"/>
<text data-id="40" x="686.38" y="-148.01">R40</text>
<circle data-id="41" cx="556.00" cy="-23.62" r="10.00px"/>
<text data-id="41" x="556.00" y="-23.62">R41</text>
<circle data-id="42" cx="449.35" cy="-230.11" r="10.00px"/>
<text data-id="42" x="449.35" y="-230.11">R42</text>
<circle data-id="43" cx="176.05" cy="-526.36" r="10.00px"/>
<text data-id="43" x="176.05" y="-526.36">R43</text>
<circle data-id="44" cx="920.23" cy="-38.60" r="10.00px"/>
<text data-id="44" x="920.23" y="-38.60">R44</text>
<circle data-id="45" cx="648.88" cy="-222.52" r="10.00px"/>
<text data-id="45" x="648.88" y="-222.52">R45</text>
<circle data-id="46" cx="857.31" cy="-22.67" r="10.00px"/>
<text data-id="46" x="857.31" y="-22.67">R46</text>
<circle data-id="47" cx="429.18" cy="-566.93" r="10.00px"/>
<text data-id="47" x="429.18" y="-566.93">R47</text>
<circle data-id="48" cx="893.87" cy="-139.54" r="10.00px"/>
<text data-id="48" x="893.87" y="-139.54">R48</text>
<circle data-id="49" cx="377.20" cy="-108.14" r="10.00px"/>
<text data-id="49" x="377.20" y="-108.14">R49</text>
<circle data-id="50" cx="392.45" cy="-879.26" r="10.00px"/>
<text data-id="50" x="392.45" y="-879.26">R50</text>
<circle data-id="51" cx="579.00" cy="-478.92" r="10.00px"/>
<text data-id="51" x="579.00" y="-478.92">R51</text>
<circle data-id="52" cx="336.95" cy="-404.69" r="10.00px"/>
<text data-id="52" x="336.95" y="-404.69">R52</text>
<circle data-id="53" cx="251.30" cy="-49.99" r="10.00px"/>
<text data-id="53" x="251.30" y="-49.99">R53</text>
<circle data-id="54" cx="312.92" cy="-345.16" r="10.00px"/>
<text data-id="54" x="312.92" y="-345.16">R54</text>
<circle data-id="55" cx="592.28" cy="-454.19" r="10.00px"/>
<text data-id="55" x="592.28" y="-454.19">R55</text>
<circle data-id="56" cx="778.23" cy="-785.84" r="10.00px"/>
<text data-id="56" x="778.23" y="-785.84">R56</text>
<circle data-id="57" cx="562.01" cy="-248.69" r="10.00px"/>
<text data-id="57" x="562.01" y="-248.69">R57</text>
<circle data-id="58" cx="193.14" cy="-101.92" r="10.00px"/>
<text data-id="58" x="193.14" y="-101.92">R58</text>
<circle data-id="59" cx="452.65" cy="-503.79" r="10.00px"/>
<text data-id="59" x="452.65" y="-503.79">R59</text>
<circle data-id="60" cx="39.20" cy="-121.82" r="10.00px"/>
<text data-id="60" x="39.20" y="-121.82">R60</text>
<circle data-id="61" cx="140.65" cy="-214.50" r="10.00px"/>
<text data-id="61" x="140.65" y="-214.50">R61</text>
<circle data-id="62" cx="880.85" cy="-477.92" r="10.00px"/>
<text data-id="62" x="880.85" y="-477.92">R62</text>
<circle data-id="63" cx="247.60" cy="-365.99" r="10.00px"/>
<text data-id="63" x="247.60" y="-365.99">R63</text>
<circle data-id="64" cx="423.02" cy="-425.10" r="10.00px"/>
<text data-id="64" x="423.02" y="-425.10">R64</text>
<circle data-id="65" cx="50.38" cy="-821.56" r="10.00px"/>
<text data-id="65" x="50.38" y="-821.56">R65</text>
<circle data-id="66" cx="809.32" cy="-574.71" r="10.00px"/>
<text data-id="66" x="809.32" y="-574.71">R66</text>
<circle data-id="67" cx="830.92" cy="-430.98" r="10.00px"/>
<text data-id="67" x="830.92" y="-430.98">R67</text>
<circle data-id="68" cx="198.91" cy="-172.92" r="10.00px"/>
<text data-id="68" x="198.91" y="-172.92">R68</text>
<circle data-id="69" cx="746.00" cy="-546.87" r="10.00px"/>
<text data-id="69" x="746.00" y="-546.87">R69</text>
<circle data-id="70" cx="128.79" cy="-72.40" r="10.00px"/>
<text data-id="70" x="128.79" y="-72.40">R70</text>
<circle data-id="71" cx="93.94" cy="-423.04" r="10.00px"/>
<text data-id="71" x="93.94" y="-423.04">R71</text>
<circle data-id="72" cx="399.43" cy="-277.64" r="10.00px"/>
<text data-id="72" x="399.43" y="-277.64">R72</text>
<circle data-id="73" cx="117.80" cy="-317.97" r="10.00px"/>
<text data-id="73" x="117.80" y="-317.97">R73</text>
<circle data-id="74" cx="163.39" cy="-734.28" r="10.00px"/>
<text data-id="74" x="163.39" y="-734.28">R74</text>
<circle data-id="75" cx="860.78" cy="-134.31" r="10.00px"/>
<text data-id="75" x="860.78" y="-134.31">R75</text>
<circle data-id="76" cx="245.14" cy="-862.02" r="10.00px"/>
<text data-id="76" x="245.14" y="-862.02">R76</text>
<circle data-id="77" cx="423.52" cy="-205.95" r="10.00px"/>
<text data-id="77" x="423.52" y="-205.95">R77</text>
<circle data-id="78" cx="411.17" cy="-494.82" r="10.00px"/>
<text data-id="78" x="411.17" y="-494.82">R78</text>
<circle data-id="79" cx="865.65" cy="-856.29" r="10.00px"/>
<text data-id="79" x="865.65" y="-856.29">R79</text>
<circle data-id="80" cx="582.37" cy="-782.11" r="10.00px"/>
<text data-id="80" x="582.37" y="-782.11">R80</text>
<circle data-id="81" cx="401.54" cy="-649.08" r="10.00px"/>
<text data-id="81" x="401.54" y="-649.08">R81</text>
<circle data-id="82" cx="425.48" cy="-121.71" r="10.00px"/>
<text data-id="82" x="425.48" y="-121.71">R82</text>
<circle data-id="83" cx="881.50" cy="-579.09" r="10.00px"/>
<text data-id="83" x="881.50" y="-579.09">R83</text>
<circle data-id="84" cx="341.72" cy="-566.86" r="10.00px"/>
<text data-id="84" x="341.72" y="-566.86">R84</text>
</svg>
