<svg id="topo" viewBox="-83.43 -1886.65 1971.41 1976.23" xmlns="http://www.w3.org/2000/svg">
<style>#topo path {fill: none; stroke: grey; stroke-width: 5.0000px;} #topo circle {fill: lightblue; stroke: none; stroke-width: 0.3px; vector-effect: non-scaling-stroke; r: 10.0000px;} #topo text {fill: black; stroke: none; font-size: 15.0000px; font-family: sans-serif; text-anchor:middle; transform: translateY(0.3em);} #topo path.country {fill: lightgrey; stroke: black; stroke-width: 1px; vector-effect: non-scaling-stroke; visibility: visible;} #topo path.selection {fill: none; stroke: red; stroke-width: 1px; vector-effect: non-scaling-stroke; visibility: visible;} #topo path.utilization {visibility: hidden;}</style>
<path data-id="0-147" d="M819.87,-1716.42,959.90,-1690.46"/>
<path data-id="0-192" d="M819.87,-1716.42,799.43,-1737.56"/>
<path data-id="0-193" d="M819.87,-1716.42,907.42,-1626.81"/>
<path data-id="0-235" d="M819.87,-1716.42,789.53,-1686.76"/>
<path data-id="0-274" d="M819.87,-1716.42,820.86,-1754.30"/>
<path data-id="1-119" d="M241.39,-310.81,339.07,-295.22"/>
<path data-id="1-127" d="M241.39,-310.81,158.49,-301.11"/>
<path data-id="1-169" d="M241.39,-310.81,278.00,-118.24"/>
<path data-id="1-266" d="M241.39,-310.81,228.23,-429.30"/>
<path data-id="2-8" d="M99.13,-1237.19,36.06,-1294.55"/>
<path data-id="2-116" d="M99.13,-1237.19,175.79,-1318.86"/>
<path data-id="2-175" d="M99.13,-1237.19,67.93,-1213.79"/>
<path data-id="2-257" d="M99.13,-1237.19,107.77,-1180.49"/>
<path data-id="2-300" d="M99.13,-1237.19,226.55,-1210.08"/>
<path data-id="3-149" d="M507.68,-632.73,397.93,-675.85"/>
<path data-id="3-217" d="M507.68,-632.73,567.04,-575.82"/>
<path data-id="3-324" d="M507.68,-632.73,584.02,-747.10"/>
<path data-id="4-154" d="M1177.03,-1626.12,1248.38,-1517.82"/>
<path data-id="4-212" d="M1177.03,-1626.12,1174.50,-1501.42"/>
<path data-id="4-221" d="M1177.03,-1626.12,1199.86,-1663.08"/>
<path data-id="4-232" d="M1177.03,-1626.12,1140.45,-1681.89"/>
<path data-id="5-55" d="M360.55,-109.32,408.11,-251.04"/>
<path data-id="5-169" d="M360.55,-109.32,278.00,-118.24"/>
<path data-id="5-249" d="M360.55,-109.32,420.16,-67.86"/>
<path data-id="6-188" d="M613.50,-1493.95,580.52,-1402.52"/>
<path data-id="6-205" d="M613.50,-1493.95,669.23,-1481.38"/>
<path data-id="6-265" d="M613.50,-1493.95,560.80,-1508.13"/>
<path data-id="7-53" d="M125.05,-510.95,62.46,-559.77"/>
<path data-id="7-102" d="M125.05,-510.95,68.17,-504.58"/>
<path data-id="7-183" d="M125.05,-510.95,148.75,-607.39"/>
<path data-id="7-297" d="M125.05,-510.95,144.97,-431.73"/>
<path data-id="8-206" d="M36.06,-1294.55,17.08,-1230.24"/>
<path data-id="9-95" d="M1421.81,-30.92,1247.53,-139.47"/>
<path data-id="9-144" d="M1421.81,-30.92,1439.61,-52.81"/>
<path data-id="10-87" d="M1517.91,-1149.34,1391.49,-1176.26"/>
<path data-id="10-90" d="M1517.91,-1149.34,1649.40,-1133.91"/>
<path data-id="10-110" d="M1517.91,-1149.34,1488.67,-987.00"/>
<path data-id="10-111" d="M1517.91,-1149.34,1485.48,-1255.02"/>
<path data-id="10-225" d="M1517.91,-1149.34,1448.09,-1005.31"/>
<path data-id="10-273" d="M1517.91,-1149.34,1592.26,-1216.35"/>
<path data-id="10-320" d="M1517.91,-1149.34,1601.78,-998.80"/>
<path data-id="11-16" d="M1635.94,-1758.91,1684.16,-1786.65"/>
<path data-id="11-32" d="M1635.94,-1758.91,1564.30,-1725.05"/>
<path data-id="11-106" d="M1635.94,-1758.91,1722.91,-1603.67"/>
<path data-id="12-143" d="M901.10,-1550.77,877.88,-1586.77"/>
<path data-id="12-162" d="M901.10,-1550.77,868.84,-1500.66"/>
<path data-id="12-241" d="M901.10,-1550.77,993.46,-1500.67"/>
<path data-id="13-26" d="M1649.76,-229.97,1636.46,-350.37"/>
<path data-id="13-38" d="M1649.76,-229.97,1704.86,-267.80"/>
<path data-id="13-78" d="M1649.76,-229.97,1621.21,-206.25"/>
<path data-id="13-234" d="M1649.76,-229.97,1739.26,-90.70"/>
<path data-id="14-104" d="M1102.74,-47.95,1106.77,-103.13"/>
<path data-id="14-284" d="M1102.74,-47.95,1073.30,-5.72"/>
<path data-id="15-54" d="M1785.10,-1475.89,1761.84,-1382.85"/>
<path data-id="15-86" d="M1785.10,-1475.89,1719.77,-1405.90"/>
<path data-id="15-289" d="M1785.10,-1475.89,1750.61,-1509.18"/>
<path data-id="17-31" d="M179.47,-751.26,159.01,-726.58"/>
<path data-id="17-288" d="M179.47,-751.26,170.02,-827.23"/>
<path data-id="17-301" d="M179.47,-751.26,345.22,-681.03"/>
<path data-id="18-183" d="M323.08,-549.03,148.75,-607.39"/>
<path data-id="18-191" d="M323.08,-549.03,513.90,-506.33"/>
<path data-id="18-233" d="M323.08,-549.03,338.01,-449.84"/>
<path data-id="18-301" d="M323.08,-549.03,345.22,-681.03"/>
<path data-id="19-52" d="M1524.54,-922.23,1490.08,-931.02"/>
<path data-id="19-109" d="M1524.54,-922.23,1490.81,-851.75"/>
<path data-id="19-114" d="M1524.54,-922.23,1560.09,-964.44"/>
<path data-id="19-245" d="M1524.54,-922.23,1619.18,-899.40"/>
<path data-id="20-97" d="M667.02,-766.17,732.01,-749.97"/>
<path data-id="20-213" d="M667.02,-766.17,711.98,-871.74"/>
<path data-id="20-229" d="M667.02,-766.17,632.24,-721.63"/>
<path data-id="21-91" d="M849.88,-1082.52,754.81,-1068.51"/>
<path data-id="21-203" d="M849.88,-1082.52,781.95,-960.93"/>
<path data-id="21-256" d="M849.88,-1082.52,891.58,-1072.82"/>
<path data-id="21-278" d="M849.88,-1082.52,839.22,-1203.84"/>
<path data-id="21-305" d="M849.88,-1082.52,768.33,-1185.15"/>
<path data-id="22-266" d="M185.25,-430.95,228.23,-429.30"/>
<path data-id="22-297" d="M185.25,-430.95,144.97,-431.73"/>
<path data-id="23-85" d="M1280.60,-801.52,1315.18,-853.59"/>
<path data-id="23-259" d="M1280.60,-801.52,1252.77,-831.25"/>
<path data-id="23-276" d="M1280.60,-801.52,1117.90,-532.42"/>
<path data-id="23-277" d="M1280.60,-801.52,1410.62,-655.29"/>
<path data-id="24-87" d="M1383.42,-1321.45,1391.49,-1176.26"/>
<path data-id="24-111" d="M1383.42,-1321.45,1485.48,-1255.02"/>
<path data-id="24-218" d="M1383.42,-1321.45,1310.69,-1282.48"/>
<path data-id="24-268" d="M1383.42,-1321.45,1486.65,-1417.89"/>
<path data-id="24-317" d="M1383.42,-1321.45,1304.61,-1328.87"/>
<path data-id="25-174" d="M1765.01,-475.59,1749.60,-375.10"/>
<path data-id="25-237" d="M1765.01,-475.59,1731.38,-533.43"/>
<path data-id="26-107" d="M1636.46,-350.37,1667.97,-356.13"/>
<path data-id="26-152" d="M1636.46,-350.37,1468.24,-430.41"/>
<path data-id="26-240" d="M1636.46,-350.37,1589.66,-537.56"/>
<path data-id="27-100" d="M97.48,-1001.30,108.07,-970.30"/>
<path data-id="27-122" d="M97.48,-1001.30,19.55,-1029.12"/>
<path data-id="27-242" d="M97.48,-1001.30,69.06,-1144.11"/>
<path data-id="28-150" d="M517.89,-1180.56,413.31,-1206.25"/>
<path data-id="28-160" d="M517.89,-1180.56,644.44,-1188.75"/>
<path data-id="28-181" d="M517.89,-1180.56,621.78,-1071.60"/>
<path data-id="28-315" d="M517.89,-1180.56,503.73,-1312.28"/>
<path data-id="29-81" d="M1279.66,-402.84,1203.43,-313.18"/>
<path data-id="29-152" d="M1279.66,-402.84,1468.24,-430.41"/>
<path data-id="29-176" d="M1279.66,-402.84,1228.62,-456.97"/>
<path data-id="29-309" d="M1279.66,-402.84,1367.18,-579.16"/>
<path data-id="30-50" d="M1003.16,-1702.02,1028.47,-1784.01"/>
<path data-id="30-147" d="M1003.16,-1702.02,959.90,-1690.46"/>
<path data-id="30-197" d="M1003.16,-1702.02,1094.69,-1747.62"/>
<path data-id="31-93" d="M159.01,-726.58,55.74,-742.22"/>
<path data-id="31-183" d="M159.01,-726.58,148.75,-607.39"/>
<path data-id="32-161" d="M1564.30,-1725.05,1532.94,-1781.47"/>
<path data-id="32-184" d="M1564.30,-1725.05,1531.88,-1684.04"/>
<path data-id="33-43" d="M1254.20,-1303.39,1093.46,-1195.47"/>
<path data-id="33-132" d="M1254.20,-1303.39,1290.62,-1247.15"/>
<path data-id="33-158" d="M1254.20,-1303.39,1151.24,-1386.89"/>
<path data-id="33-218" d="M1254.20,-1303.39,1310.69,-1282.48"/>
<path data-id="33-294" d="M1254.20,-1303.39,1278.94,-1326.46"/>
<path data-id="34-36" d="M492.25,-327.96,434.50,-288.60"/>
<path data-id="34-179" d="M492.25,-327.96,619.34,-428.31"/>
<path data-id="34-191" d="M492.25,-327.96,513.90,-506.33"/>
<path data-id="34-303" d="M492.25,-327.96,582.18,-194.63"/>
<path data-id="34-311" d="M492.25,-327.96,652.16,-274.31"/>
<path data-id="35-154" d="M1301.93,-1649.39,1248.38,-1517.82"/>
<path data-id="35-185" d="M1301.93,-1649.39,1317.90,-1768.36"/>
<path data-id="35-221" d="M1301.93,-1649.39,1199.86,-1663.08"/>
<path data-id="35-246" d="M1301.93,-1649.39,1394.92,-1730.98"/>
<path data-id="35-290" d="M1301.93,-1649.39,1387.52,-1538.29"/>
<path data-id="36-55" d="M434.50,-288.60,408.11,-251.04"/>
<path data-id="36-125" d="M434.50,-288.60,393.57,-340.42"/>
<path data-id="37-200" d="M1780.02,-667.73,1786.77,-740.42"/>
<path data-id="37-237" d="M1780.02,-667.73,1731.38,-533.43"/>
<path data-id="38-96" d="M1704.86,-267.80,1740.12,-305.89"/>
<path data-id="38-107" d="M1704.86,-267.80,1667.97,-356.13"/>
<path data-id="39-80" d="M800.97,-569.24,741.64,-504.40"/>
<path data-id="39-199" d="M800.97,-569.24,843.22,-527.95"/>
<path data-id="39-254" d="M800.97,-569.24,753.10,-641.73"/>
<path data-id="39-323" d="M800.97,-569.24,846.14,-664.68"/>
<path data-id="40-90" d="M1718.22,-1147.87,1649.40,-1133.91"/>
<path data-id="40-189" d="M1718.22,-1147.87,1773.47,-1220.16"/>
<path data-id="40-226" d="M1718.22,-1147.87,1706.76,-1234.97"/>
<path data-id="40-302" d="M1718.22,-1147.87,1777.03,-1031.62"/>
<path data-id="41-99" d="M395.36,-1239.00,239.87,-1158.21"/>
<path data-id="41-150" d="M395.36,-1239.00,413.31,-1206.25"/>
<path data-id="41-238" d="M395.36,-1239.00,376.93,-1308.74"/>
<path data-id="41-300" d="M395.36,-1239.00,226.55,-1210.08"/>
<path data-id="41-315" d="M395.36,-1239.00,503.73,-1312.28"/>
<path data-id="42-64" d="M1488.66,-519.93,1572.51,-574.68"/>
<path data-id="42-73" d="M1488.66,-519.93,1461.05,-676.70"/>
<path data-id="42-152" d="M1488.66,-519.93,1468.24,-430.41"/>
<path data-id="42-240" d="M1488.66,-519.93,1589.66,-537.56"/>
<path data-id="42-277" d="M1488.66,-519.93,1410.62,-655.29"/>
<path data-id="42-309" d="M1488.66,-519.93,1367.18,-579.16"/>
<path data-id="43-48" d="M1093.46,-1195.47,1060.20,-1316.36"/>
<path data-id="43-70" d="M1093.46,-1195.47,1169.59,-1131.78"/>
<path data-id="43-173" d="M1093.46,-1195.47,1073.13,-1170.30"/>
<path data-id="44-145" d="M1224.94,-945.16,1194.90,-1005.16"/>
<path data-id="44-228" d="M1224.94,-945.16,1308.36,-955.11"/>
<path data-id="44-262" d="M1224.94,-945.16,1154.70,-917.77"/>
<path data-id="44-286" d="M1224.94,-945.16,1216.05,-855.54"/>
<path data-id="45-124" d="M392.14,-1490.94,354.72,-1475.32"/>
<path data-id="45-215" d="M392.14,-1490.94,458.91,-1522.68"/>
<path data-id="45-308" d="M392.14,-1490.94,415.74,-1368.26"/>
<path data-id="46-55" d="M507.86,-178.36,408.11,-251.04"/>
<path data-id="46-82" d="M507.86,-178.36,475.89,-93.87"/>
<path data-id="46-303" d="M507.86,-178.36,582.18,-194.63"/>
<path data-id="47-56" d="M958.66,-50.70,998.76,-226.70"/>
<path data-id="47-67" d="M958.66,-50.70,834.54,-208.97"/>
<path data-id="47-321" d="M958.66,-50.70,1040.01,-1.94"/>
<path data-id="48-105" d="M1060.20,-1316.36,977.25,-1206.35"/>
<path data-id="48-158" d="M1060.20,-1316.36,1151.24,-1386.89"/>
<path data-id="48-250" d="M1060.20,-1316.36,1044.52,-1348.40"/>
<path data-id="48-285" d="M1060.20,-1316.36,1052.22,-1184.35"/>
<path data-id="49-70" d="M1160.64,-1042.82,1169.59,-1131.78"/>
<path data-id="49-112" d="M1160.64,-1042.82,1245.44,-1064.45"/>
<path data-id="49-145" d="M1160.64,-1042.82,1194.90,-1005.16"/>
<path data-id="49-170" d="M1160.64,-1042.82,1070.25,-963.49"/>
<path data-id="50-197" d="M1028.47,-1784.01,1094.69,-1747.62"/>
<path data-id="50-204" d="M1028.47,-1784.01,1090.06,-1796.82"/>
<path data-id="51-72" d="M673.29,-1793.56,747.81,-1767.13"/>
<path data-id="51-164" d="M673.29,-1793.56,649.14,-1663.35"/>
<path data-id="51-307" d="M673.29,-1793.56,586.52,-1709.63"/>
<path data-id="52-109" d="M1490.08,-931.02,1490.81,-851.75"/>
<path data-id="52-110" d="M1490.08,-931.02,1488.67,-987.00"/>
<path data-id="52-167" d="M1490.08,-931.02,1324.87,-882.33"/>
<path data-id="53-93" d="M62.46,-559.77,55.74,-742.22"/>
<path data-id="53-102" d="M62.46,-559.77,68.17,-504.58"/>
<path data-id="53-183" d="M62.46,-559.77,148.75,-607.39"/>
<path data-id="54-86" d="M1761.84,-1382.85,1719.77,-1405.90"/>
<path data-id="54-123" d="M1761.84,-1382.85,1772.58,-1300.29"/>
<path data-id="54-211" d="M1761.84,-1382.85,1712.71,-1351.96"/>
<path data-id="55-119" d="M408.11,-251.04,339.07,-295.22"/>
<path data-id="56-79" d="M998.76,-226.70,863.80,-274.53"/>
<path data-id="56-180" d="M998.76,-226.70,1104.98,-242.88"/>
<path data-id="56-209" d="M998.76,-226.70,957.31,-421.67"/>
<path data-id="57-92" d="M289.88,-1750.18,298.47,-1516.93"/>
<path data-id="57-168" d="M289.88,-1750.18,384.78,-1789.94"/>
<path data-id="57-182" d="M289.88,-1750.18,231.58,-1737.84"/>
<path data-id="58-171" d="M605.13,-0.25,530.54,-20.98"/>
<path data-id="58-201" d="M605.13,-0.25,664.85,-110.03"/>
<path data-id="59-190" d="M1590.72,-1396.39,1518.49,-1455.43"/>
<path data-id="59-267" d="M1590.72,-1396.39,1562.67,-1378.80"/>
<path data-id="59-272" d="M1590.72,-1396.39,1629.60,-1396.71"/>
<path data-id="60-74" d="M698.52,-1584.96,752.37,-1627.06"/>
<path data-id="60-178" d="M698.52,-1584.96,732.35,-1529.05"/>
<path data-id="60-269" d="M698.52,-1584.96,684.34,-1653.51"/>
<path data-id="61-154" d="M1309.88,-1402.03,1248.38,-1517.82"/>
<path data-id="61-158" d="M1309.88,-1402.03,1151.24,-1386.89"/>
<path data-id="61-290" d="M1309.88,-1402.03,1387.52,-1538.29"/>
<path data-id="61-306" d="M1309.88,-1402.03,1443.35,-1486.02"/>
<path data-id="61-317" d="M1309.88,-1402.03,1304.61,-1328.87"/>
<path data-id="62-81" d="M1283.32,-212.13,1203.43,-313.18"/>
<path data-id="62-95" d="M1283.32,-212.13,1247.53,-139.47"/>
<path data-id="62-291" d="M1283.32,-212.13,1201.53,-178.77"/>
<path data-id="62-313" d="M1283.32,-212.13,1381.43,-202.91"/>
<path data-id="63-117" d="M232.92,-840.21,282.55,-912.25"/>
<path data-id="63-137" d="M232.92,-840.21,230.77,-924.77"/>
<path data-id="63-288" d="M232.92,-840.21,170.02,-827.23"/>
<path data-id="63-301" d="M232.92,-840.21,345.22,-681.03"/>
<path data-id="63-312" d="M232.92,-840.21,156.20,-901.09"/>
<path data-id="64-73" d="M1572.51,-574.68,1461.05,-676.70"/>
<path data-id="64-240" d="M1572.51,-574.68,1589.66,-537.56"/>
<path data-id="65-127" d="M134.03,-289.59,158.49,-301.11"/>
<path data-id="65-208" d="M134.03,-289.59,97.39,-252.73"/>
<path data-id="65-222" d="M134.03,-289.59,117.65,-373.49"/>
<path data-id="66-88" d="M885.27,-505.27,918.93,-635.49"/>
<path data-id="66-151" d="M885.27,-505.27,798.68,-347.54"/>
<path data-id="66-199" d="M885.27,-505.27,843.22,-527.95"/>
<path data-id="66-209" d="M885.27,-505.27,957.31,-421.67"/>
<path data-id="66-299" d="M885.27,-505.27,1007.83,-519.05"/>
<path data-id="67-79" d="M834.54,-208.97,863.80,-274.53"/>
<path data-id="67-120" d="M834.54,-208.97,787.43,-303.77"/>
<path data-id="67-253" d="M834.54,-208.97,751.56,-244.82"/>
<path data-id="68-105" d="M956.78,-1376.18,977.25,-1206.35"/>
<path data-id="68-131" d="M956.78,-1376.18,822.89,-1267.15"/>
<path data-id="68-162" d="M956.78,-1376.18,868.84,-1500.66"/>
<path data-id="68-219" d="M956.78,-1376.18,987.42,-1377.66"/>
<path data-id="68-316" d="M956.78,-1376.18,783.49,-1389.56"/>
<path data-id="69-118" d="M742.84,-932.93,749.87,-869.54"/>
<path data-id="69-203" d="M742.84,-932.93,781.95,-960.93"/>
<path data-id="69-213" d="M742.84,-932.93,711.98,-871.74"/>
<path data-id="69-247" d="M742.84,-932.93,801.60,-895.94"/>
<path data-id="69-280" d="M742.84,-932.93,707.72,-970.91"/>
<path data-id="70-112" d="M1169.59,-1131.78,1245.44,-1064.45"/>
<path data-id="70-173" d="M1169.59,-1131.78,1073.13,-1170.30"/>
<path data-id="70-281" d="M1169.59,-1131.78,1266.48,-1183.23"/>
<path data-id="71-136" d="M951.15,-1004.34,949.66,-1066.15"/>
<path data-id="71-141" d="M951.15,-1004.34,942.29,-939.06"/>
<path data-id="71-170" d="M951.15,-1004.34,1070.25,-963.49"/>
<path data-id="71-203" d="M951.15,-1004.34,781.95,-960.93"/>
<path data-id="72-192" d="M747.81,-1767.13,799.43,-1737.56"/>
<path data-id="72-269" d="M747.81,-1767.13,684.34,-1653.51"/>
<path data-id="73-128" d="M1461.05,-676.70,1537.27,-785.60"/>
<path data-id="73-135" d="M1461.05,-676.70,1503.99,-798.59"/>
<path data-id="73-277" d="M1461.05,-676.70,1410.62,-655.29"/>
<path data-id="74-143" d="M752.37,-1627.06,877.88,-1586.77"/>
<path data-id="74-235" d="M752.37,-1627.06,789.53,-1686.76"/>
<path data-id="74-269" d="M752.37,-1627.06,684.34,-1653.51"/>
<path data-id="75-188" d="M699.07,-1433.24,580.52,-1402.52"/>
<path data-id="75-205" d="M699.07,-1433.24,669.23,-1481.38"/>
<path data-id="75-318" d="M699.07,-1433.24,682.99,-1328.32"/>
<path data-id="75-322" d="M699.07,-1433.24,726.40,-1449.43"/>
<path data-id="76-106" d="M1550.35,-1637.95,1722.91,-1603.67"/>
<path data-id="76-184" d="M1550.35,-1637.95,1531.88,-1684.04"/>
<path data-id="76-258" d="M1550.35,-1637.95,1528.04,-1572.04"/>
<path data-id="77-151" d="M725.53,-422.21,798.68,-347.54"/>
<path data-id="77-179" d="M725.53,-422.21,619.34,-428.31"/>
<path data-id="77-223" d="M725.53,-422.21,738.03,-445.50"/>
<path data-id="77-252" d="M725.53,-422.21,740.20,-317.67"/>
<path data-id="78-148" d="M1621.21,-206.25,1697.88,-76.77"/>
<path data-id="78-153" d="M1621.21,-206.25,1572.07,-204.24"/>
<path data-id="78-295" d="M1621.21,-206.25,1588.56,-181.33"/>
<path data-id="79-120" d="M863.80,-274.53,787.43,-303.77"/>
<path data-id="79-209" d="M863.80,-274.53,957.31,-421.67"/>
<path data-id="80-103" d="M741.64,-504.40,762.41,-476.02"/>
<path data-id="80-251" d="M741.64,-504.40,717.65,-493.53"/>
<path data-id="81-180" d="M1203.43,-313.18,1104.98,-242.88"/>
<path data-id="81-291" d="M1203.43,-313.18,1201.53,-178.77"/>
<path data-id="82-171" d="M475.89,-93.87,530.54,-20.98"/>
<path data-id="82-249" d="M475.89,-93.87,420.16,-67.86"/>
<path data-id="83-107" d="M1669.17,-524.75,1667.97,-356.13"/>
<path data-id="83-237" d="M1669.17,-524.75,1731.38,-533.43"/>
<path data-id="83-240" d="M1669.17,-524.75,1589.66,-537.56"/>
<path data-id="84-97" d="M806.37,-799.83,732.01,-749.97"/>
<path data-id="84-118" d="M806.37,-799.83,749.87,-869.54"/>
<path data-id="84-247" d="M806.37,-799.83,801.60,-895.94"/>
<path data-id="84-279" d="M806.37,-799.83,834.65,-775.39"/>
<path data-id="85-167" d="M1315.18,-853.59,1324.87,-882.33"/>
<path data-id="85-259" d="M1315.18,-853.59,1252.77,-831.25"/>
<path data-id="86-187" d="M1719.77,-1405.90,1669.13,-1481.59"/>
<path data-id="86-211" d="M1719.77,-1405.90,1712.71,-1351.96"/>
<path data-id="86-272" d="M1719.77,-1405.90,1629.60,-1396.71"/>
<path data-id="87-108" d="M1391.49,-1176.26,1347.34,-1055.06"/>
<path data-id="87-111" d="M1391.49,-1176.26,1485.48,-1255.02"/>
<path data-id="87-248" d="M1391.49,-1176.26,1324.73,-1183.11"/>
<path data-id="88-199" d="M918.93,-635.49,843.22,-527.95"/>
<path data-id="88-214" d="M918.93,-635.49,915.27,-723.32"/>
<path data-id="88-299" d="M918.93,-635.49,1007.83,-519.05"/>
<path data-id="88-323" d="M918.93,-635.49,846.14,-664.68"/>
<path data-id="89-132" d="M1304.77,-1220.56,1290.62,-1247.15"/>
<path data-id="89-163" d="M1304.77,-1220.56,1270.55,-1217.41"/>
<path data-id="89-248" d="M1304.77,-1220.56,1324.73,-1183.11"/>
<path data-id="90-273" d="M1649.40,-1133.91,1592.26,-1216.35"/>
<path data-id="90-320" d="M1649.40,-1133.91,1601.78,-998.80"/>
<path data-id="91-196" d="M754.81,-1068.51,704.24,-1064.45"/>
<path data-id="91-203" d="M754.81,-1068.51,781.95,-960.93"/>
<path data-id="91-305" d="M754.81,-1068.51,768.33,-1185.15"/>
<path data-id="92-124" d="M298.47,-1516.93,354.72,-1475.32"/>
<path data-id="92-130" d="M298.47,-1516.93,244.75,-1439.20"/>
<path data-id="92-182" d="M298.47,-1516.93,231.58,-1737.84"/>
<path data-id="93-243" d="M55.74,-742.22,6.18,-772.78"/>
<path data-id="93-288" d="M55.74,-742.22,170.02,-827.23"/>
<path data-id="94-126" d="M295.67,-1064.09,324.02,-1092.06"/>
<path data-id="94-157" d="M295.67,-1064.09,333.05,-948.83"/>
<path data-id="94-263" d="M295.67,-1064.09,300.92,-1110.51"/>
<path data-id="94-283" d="M295.67,-1064.09,216.75,-1004.99"/>
<path data-id="95-291" d="M1247.53,-139.47,1201.53,-178.77"/>
<path data-id="96-107" d="M1740.12,-305.89,1667.97,-356.13"/>
<path data-id="96-174" d="M1740.12,-305.89,1749.60,-375.10"/>
<path data-id="97-118" d="M732.01,-749.97,749.87,-869.54"/>
<path data-id="97-213" d="M732.01,-749.97,711.98,-871.74"/>
<path data-id="97-264" d="M732.01,-749.97,714.31,-672.51"/>
<path data-id="97-323" d="M732.01,-749.97,846.14,-664.68"/>
<path data-id="98-156" d="M698.69,-1291.24,726.13,-1282.01"/>
<path data-id="98-160" d="M698.69,-1291.24,644.44,-1188.75"/>
<path data-id="98-318" d="M698.69,-1291.24,682.99,-1328.32"/>
<path data-id="99-263" d="M239.87,-1158.21,300.92,-1110.51"/>
<path data-id="99-300" d="M239.87,-1158.21,226.55,-1210.08"/>
<path data-id="100-146" d="M108.07,-970.30,186.48,-957.94"/>
<path data-id="100-231" d="M108.07,-970.30,89.72,-943.71"/>
<path data-id="100-312" d="M108.07,-970.30,156.20,-901.09"/>
<path data-id="101-116" d="M239.86,-1314.04,175.79,-1318.86"/>
<path data-id="101-159" d="M239.86,-1314.04,294.34,-1389.60"/>
<path data-id="101-238" d="M239.86,-1314.04,376.93,-1308.74"/>
<path data-id="101-287" d="M239.86,-1314.04,207.33,-1399.54"/>
<path data-id="101-300" d="M239.86,-1314.04,226.55,-1210.08"/>
<path data-id="102-261" d="M68.17,-504.58,35.07,-405.28"/>
<path data-id="103-199" d="M762.41,-476.02,843.22,-527.95"/>
<path data-id="103-223" d="M762.41,-476.02,738.03,-445.50"/>
<path data-id="104-202" d="M1106.77,-103.13,1125.27,-168.27"/>
<path data-id="105-136" d="M977.25,-1206.35,949.66,-1066.15"/>
<path data-id="105-278" d="M977.25,-1206.35,839.22,-1203.84"/>
<path data-id="105-285" d="M977.25,-1206.35,1052.22,-1184.35"/>
<path data-id="106-166" d="M1722.91,-1603.67,1563.10,-1534.62"/>
<path data-id="106-289" d="M1722.91,-1603.67,1750.61,-1509.18"/>
<path data-id="107-174" d="M1667.97,-356.13,1749.60,-375.10"/>
<path data-id="108-112" d="M1347.34,-1055.06,1245.44,-1064.45"/>
<path data-id="108-248" d="M1347.34,-1055.06,1324.73,-1183.11"/>
<path data-id="108-271" d="M1347.34,-1055.06,1360.00,-1029.15"/>
<path data-id="109-135" d="M1490.81,-851.75,1503.99,-798.59"/>
<path data-id="109-167" d="M1490.81,-851.75,1324.87,-882.33"/>
<path data-id="110-114" d="M1488.67,-987.00,1560.09,-964.44"/>
<path data-id="110-225" d="M1488.67,-987.00,1448.09,-1005.31"/>
<path data-id="111-267" d="M1485.48,-1255.02,1562.67,-1378.80"/>
<path data-id="111-268" d="M1485.48,-1255.02,1486.65,-1417.89"/>
<path data-id="111-273" d="M1485.48,-1255.02,1592.26,-1216.35"/>
<path data-id="112-145" d="M1245.44,-1064.45,1194.90,-1005.16"/>
<path data-id="112-228" d="M1245.44,-1064.45,1308.36,-955.11"/>
<path data-id="112-281" d="M1245.44,-1064.45,1266.48,-1183.23"/>
<path data-id="113-208" d="M21.28,-210.74,97.39,-252.73"/>
<path data-id="113-260" d="M21.28,-210.74,65.48,-68.02"/>
<path data-id="114-245" d="M1560.09,-964.44,1619.18,-899.40"/>
<path data-id="114-320" d="M1560.09,-964.44,1601.78,-998.80"/>
<path data-id="115-182" d="M176.33,-1774.67,231.58,-1737.84"/>
<path data-id="115-194" d="M176.33,-1774.67,67.82,-1628.23"/>
<path data-id="115-255" d="M176.33,-1774.67,21.41,-1780.99"/>
<path data-id="116-287" d="M175.79,-1318.86,207.33,-1399.54"/>
<path data-id="116-300" d="M175.79,-1318.86,226.55,-1210.08"/>
<path data-id="117-137" d="M282.55,-912.25,230.77,-924.77"/>
<path data-id="117-157" d="M282.55,-912.25,333.05,-948.83"/>
<path data-id="118-213" d="M749.87,-869.54,711.98,-871.74"/>
<path data-id="118-247" d="M749.87,-869.54,801.60,-895.94"/>
<path data-id="119-125" d="M339.07,-295.22,393.57,-340.42"/>
<path data-id="119-169" d="M339.07,-295.22,278.00,-118.24"/>
<path data-id="120-151" d="M787.43,-303.77,798.68,-347.54"/>
<path data-id="120-252" d="M787.43,-303.77,740.20,-317.67"/>
<path data-id="120-253" d="M787.43,-303.77,751.56,-244.82"/>
<path data-id="121-144" d="M1554.91,-72.27,1439.61,-52.81"/>
<path data-id="121-220" d="M1554.91,-72.27,1642.40,-25.79"/>
<path data-id="121-295" d="M1554.91,-72.27,1588.56,-181.33"/>
<path data-id="122-242" d="M19.55,-1029.12,69.06,-1144.11"/>
<path data-id="123-140" d="M1772.58,-1300.29,1798.37,-1295.63"/>
<path data-id="123-189" d="M1772.58,-1300.29,1773.47,-1220.16"/>
<path data-id="123-211" d="M1772.58,-1300.29,1712.71,-1351.96"/>
<path data-id="123-226" d="M1772.58,-1300.29,1706.76,-1234.97"/>
<path data-id="124-130" d="M354.72,-1475.32,244.75,-1439.20"/>
<path data-id="124-159" d="M354.72,-1475.32,294.34,-1389.60"/>
<path data-id="124-308" d="M354.72,-1475.32,415.74,-1368.26"/>
<path data-id="125-172" d="M393.57,-340.42,378.27,-382.69"/>
<path data-id="126-263" d="M324.02,-1092.06,300.92,-1110.51"/>
<path data-id="126-270" d="M324.02,-1092.06,394.25,-1146.76"/>
<path data-id="126-319" d="M324.02,-1092.06,532.94,-964.90"/>
<path data-id="127-222" d="M158.49,-301.11,117.65,-373.49"/>
<path data-id="128-135" d="M1537.27,-785.60,1503.99,-798.59"/>
<path data-id="128-245" d="M1537.27,-785.60,1619.18,-899.40"/>
<path data-id="128-282" d="M1537.27,-785.60,1654.29,-852.13"/>
<path data-id="129-188" d="M506.74,-1456.01,580.52,-1402.52"/>
<path data-id="129-215" d="M506.74,-1456.01,458.91,-1522.68"/>
<path data-id="129-265" d="M506.74,-1456.01,560.80,-1508.13"/>
<path data-id="129-308" d="M506.74,-1456.01,415.74,-1368.26"/>
<path data-id="129-315" d="M506.74,-1456.01,503.73,-1312.28"/>
<path data-id="130-159" d="M244.75,-1439.20,294.34,-1389.60"/>
<path data-id="130-165" d="M244.75,-1439.20,170.31,-1457.99"/>
<path data-id="130-287" d="M244.75,-1439.20,207.33,-1399.54"/>
<path data-id="131-198" d="M822.89,-1267.15,776.08,-1252.85"/>
<path data-id="131-278" d="M822.89,-1267.15,839.22,-1203.84"/>
<path data-id="131-316" d="M822.89,-1267.15,783.49,-1389.56"/>
<path data-id="132-163" d="M1290.62,-1247.15,1270.55,-1217.41"/>
<path data-id="132-218" d="M1290.62,-1247.15,1310.69,-1282.48"/>
<path data-id="133-162" d="M770.29,-1457.04,868.84,-1500.66"/>
<path data-id="133-227" d="M770.29,-1457.04,727.99,-1475.74"/>
<path data-id="133-316" d="M770.29,-1457.04,783.49,-1389.56"/>
<path data-id="133-322" d="M770.29,-1457.04,726.40,-1449.43"/>
<path data-id="134-180" d="M1010.80,-460.59,1104.98,-242.88"/>
<path data-id="134-209" d="M1010.80,-460.59,957.31,-421.67"/>
<path data-id="134-299" d="M1010.80,-460.59,1007.83,-519.05"/>
<path data-id="134-304" d="M1010.80,-460.59,1129.31,-477.64"/>
<path data-id="136-256" d="M949.66,-1066.15,891.58,-1072.82"/>
<path data-id="136-285" d="M949.66,-1066.15,1052.22,-1184.35"/>
<path data-id="137-146" d="M230.77,-924.77,186.48,-957.94"/>
<path data-id="137-312" d="M230.77,-924.77,156.20,-901.09"/>
<path data-id="138-200" d="M1791.19,-842.36,1786.77,-740.42"/>
<path data-id="138-239" d="M1791.19,-842.36,1690.10,-821.12"/>
<path data-id="138-302" d="M1791.19,-842.36,1777.03,-1031.62"/>
<path data-id="139-236" d="M393.24,-871.82,433.33,-849.82"/>
<path data-id="139-314" d="M393.24,-871.82,398.17,-902.42"/>
<path data-id="140-189" d="M1798.37,-1295.63,1773.47,-1220.16"/>
<path data-id="141-170" d="M942.29,-939.06,1070.25,-963.49"/>
<path data-id="141-177" d="M942.29,-939.06,982.71,-745.27"/>
<path data-id="141-203" d="M942.29,-939.06,781.95,-960.93"/>
<path data-id="141-247" d="M942.29,-939.06,801.60,-895.94"/>
<path data-id="142-177" d="M1051.44,-733.06,982.71,-745.27"/>
<path data-id="142-207" d="M1051.44,-733.06,1127.26,-878.18"/>
<path data-id="142-276" d="M1051.44,-733.06,1117.90,-532.42"/>
<path data-id="142-299" d="M1051.44,-733.06,1007.83,-519.05"/>
<path data-id="143-178" d="M877.88,-1586.77,732.35,-1529.05"/>
<path data-id="143-193" d="M877.88,-1586.77,907.42,-1626.81"/>
<path data-id="143-235" d="M877.88,-1586.77,789.53,-1686.76"/>
<path data-id="144-292" d="M1439.61,-52.81,1493.23,-217.28"/>
<path data-id="144-313" d="M1439.61,-52.81,1381.43,-202.91"/>
<path data-id="145-262" d="M1194.90,-1005.16,1154.70,-917.77"/>
<path data-id="146-283" d="M186.48,-957.94,216.75,-1004.99"/>
<path data-id="146-312" d="M186.48,-957.94,156.20,-901.09"/>
<path data-id="147-193" d="M959.90,-1690.46,907.42,-1626.81"/>
<path data-id="148-220" d="M1697.88,-76.77,1642.40,-25.79"/>
<path data-id="148-234" d="M1697.88,-76.77,1739.26,-90.70"/>
<path data-id="148-295" d="M1697.88,-76.77,1588.56,-181.33"/>
<path data-id="149-230" d="M397.93,-675.85,418.05,-756.00"/>
<path data-id="149-301" d="M397.93,-675.85,345.22,-681.03"/>
<path data-id="150-270" d="M413.31,-1206.25,394.25,-1146.76"/>
<path data-id="151-209" d="M798.68,-347.54,957.31,-421.67"/>
<path data-id="151-252" d="M798.68,-347.54,740.20,-317.67"/>
<path data-id="152-292" d="M1468.24,-430.41,1493.23,-217.28"/>
<path data-id="153-292" d="M1572.07,-204.24,1493.23,-217.28"/>
<path data-id="153-295" d="M1572.07,-204.24,1588.56,-181.33"/>
<path data-id="154-212" d="M1248.38,-1517.82,1174.50,-1501.42"/>
<path data-id="154-290" d="M1248.38,-1517.82,1387.52,-1538.29"/>
<path data-id="155-230" d="M529.24,-804.66,418.05,-756.00"/>
<path data-id="155-236" d="M529.24,-804.66,433.33,-849.82"/>
<path data-id="155-319" d="M529.24,-804.66,532.94,-964.90"/>
<path data-id="155-324" d="M529.24,-804.66,584.02,-747.10"/>
<path data-id="156-198" d="M726.13,-1282.01,776.08,-1252.85"/>
<path data-id="156-316" d="M726.13,-1282.01,783.49,-1389.56"/>
<path data-id="157-283" d="M333.05,-948.83,216.75,-1004.99"/>
<path data-id="157-314" d="M333.05,-948.83,398.17,-902.42"/>
<path data-id="158-212" d="M1151.24,-1386.89,1174.50,-1501.42"/>
<path data-id="158-244" d="M1151.24,-1386.89,1039.58,-1373.58"/>
<path data-id="158-250" d="M1151.24,-1386.89,1044.52,-1348.40"/>
<path data-id="159-238" d="M294.34,-1389.60,376.93,-1308.74"/>
<path data-id="159-287" d="M294.34,-1389.60,207.33,-1399.54"/>
<path data-id="159-308" d="M294.34,-1389.60,415.74,-1368.26"/>
<path data-id="160-181" d="M644.44,-1188.75,621.78,-1071.60"/>
<path data-id="160-196" d="M644.44,-1188.75,704.24,-1064.45"/>
<path data-id="160-210" d="M644.44,-1188.75,745.43,-1197.79"/>
<path data-id="161-296" d="M1532.94,-1781.47,1488.15,-1715.73"/>
<path data-id="163-281" d="M1270.55,-1217.41,1266.48,-1183.23"/>
<path data-id="164-269" d="M649.14,-1663.35,684.34,-1653.51"/>
<path data-id="164-293" d="M649.14,-1663.35,557.85,-1639.23"/>
<path data-id="164-307" d="M649.14,-1663.35,586.52,-1709.63"/>
<path data-id="165-194" d="M170.31,-1457.99,67.82,-1628.23"/>
<path data-id="165-287" d="M170.31,-1457.99,207.33,-1399.54"/>
<path data-id="166-187" d="M1563.10,-1534.62,1669.13,-1481.59"/>
<path data-id="166-190" d="M1563.10,-1534.62,1518.49,-1455.43"/>
<path data-id="166-258" d="M1563.10,-1534.62,1528.04,-1572.04"/>
<path data-id="167-228" d="M1324.87,-882.33,1308.36,-955.11"/>
<path data-id="168-293" d="M384.78,-1789.94,557.85,-1639.23"/>
<path data-id="168-307" d="M384.78,-1789.94,586.52,-1709.63"/>
<path data-id="169-208" d="M278.00,-118.24,97.39,-252.73"/>
<path data-id="169-260" d="M278.00,-118.24,65.48,-68.02"/>
<path data-id="170-207" d="M1070.25,-963.49,1127.26,-878.18"/>
<path data-id="170-262" d="M1070.25,-963.49,1154.70,-917.77"/>
<path data-id="172-191" d="M378.27,-382.69,513.90,-506.33"/>
<path data-id="172-233" d="M378.27,-382.69,338.01,-449.84"/>
<path data-id="173-285" d="M1073.13,-1170.30,1052.22,-1184.35"/>
<path data-id="175-206" d="M67.93,-1213.79,17.08,-1230.24"/>
<path data-id="175-257" d="M67.93,-1213.79,107.77,-1180.49"/>
<path data-id="175-298" d="M67.93,-1213.79,41.31,-1169.98"/>
<path data-id="176-304" d="M1228.62,-456.97,1129.31,-477.64"/>
<path data-id="176-309" d="M1228.62,-456.97,1367.18,-579.16"/>
<path data-id="177-216" d="M982.71,-745.27,945.75,-726.49"/>
<path data-id="178-205" d="M732.35,-1529.05,669.23,-1481.38"/>
<path data-id="178-227" d="M732.35,-1529.05,727.99,-1475.74"/>
<path data-id="179-191" d="M619.34,-428.31,513.90,-506.33"/>
<path data-id="179-217" d="M619.34,-428.31,567.04,-575.82"/>
<path data-id="179-251" d="M619.34,-428.31,717.65,-493.53"/>
<path data-id="179-311" d="M619.34,-428.31,652.16,-274.31"/>
<path data-id="180-202" d="M1104.98,-242.88,1125.27,-168.27"/>
<path data-id="181-196" d="M621.78,-1071.60,704.24,-1064.45"/>
<path data-id="181-319" d="M621.78,-1071.60,532.94,-964.90"/>
<path data-id="183-301" d="M148.75,-607.39,345.22,-681.03"/>
<path data-id="184-296" d="M1531.88,-1684.04,1488.15,-1715.73"/>
<path data-id="185-246" d="M1317.90,-1768.36,1394.92,-1730.98"/>
<path data-id="185-275" d="M1317.90,-1768.36,1189.46,-1717.64"/>
<path data-id="185-310" d="M1317.90,-1768.36,1181.35,-1761.01"/>
<path data-id="186-201" d="M646.34,-137.98,664.85,-110.03"/>
<path data-id="186-253" d="M646.34,-137.98,751.56,-244.82"/>
<path data-id="186-303" d="M646.34,-137.98,582.18,-194.63"/>
<path data-id="187-272" d="M1669.13,-1481.59,1629.60,-1396.71"/>
<path data-id="187-289" d="M1669.13,-1481.59,1750.61,-1509.18"/>
<path data-id="188-265" d="M580.52,-1402.52,560.80,-1508.13"/>
<path data-id="188-315" d="M580.52,-1402.52,503.73,-1312.28"/>
<path data-id="188-318" d="M580.52,-1402.52,682.99,-1328.32"/>
<path data-id="189-226" d="M1773.47,-1220.16,1706.76,-1234.97"/>
<path data-id="190-267" d="M1518.49,-1455.43,1562.67,-1378.80"/>
<path data-id="190-268" d="M1518.49,-1455.43,1486.65,-1417.89"/>
<path data-id="190-306" d="M1518.49,-1455.43,1443.35,-1486.02"/>
<path data-id="191-217" d="M513.90,-506.33,567.04,-575.82"/>
<path data-id="191-233" d="M513.90,-506.33,338.01,-449.84"/>
<path data-id="192-274" d="M799.43,-1737.56,820.86,-1754.30"/>
<path data-id="193-235" d="M907.42,-1626.81,789.53,-1686.76"/>
<path data-id="194-255" d="M67.82,-1628.23,21.41,-1780.99"/>
<path data-id="195-225" d="M1359.23,-998.31,1448.09,-1005.31"/>
<path data-id="195-228" d="M1359.23,-998.31,1308.36,-955.11"/>
<path data-id="195-271" d="M1359.23,-998.31,1360.00,-1029.15"/>
<path data-id="196-280" d="M704.24,-1064.45,707.72,-970.91"/>
<path data-id="197-204" d="M1094.69,-1747.62,1090.06,-1796.82"/>
<path data-id="197-232" d="M1094.69,-1747.62,1140.45,-1681.89"/>
<path data-id="197-310" d="M1094.69,-1747.62,1181.35,-1761.01"/>
<path data-id="198-210" d="M776.08,-1252.85,745.43,-1197.79"/>
<path data-id="198-278" d="M776.08,-1252.85,839.22,-1203.84"/>
<path data-id="198-305" d="M776.08,-1252.85,768.33,-1185.15"/>
<path data-id="200-239" d="M1786.77,-740.42,1690.10,-821.12"/>
<path data-id="202-291" d="M1125.27,-168.27,1201.53,-178.77"/>
<path data-id="203-247" d="M781.95,-960.93,801.60,-895.94"/>
<path data-id="204-310" d="M1090.06,-1796.82,1181.35,-1761.01"/>
<path data-id="205-227" d="M669.23,-1481.38,727.99,-1475.74"/>
<path data-id="206-298" d="M17.08,-1230.24,41.31,-1169.98"/>
<path data-id="207-262" d="M1127.26,-878.18,1154.70,-917.77"/>
<path data-id="207-286" d="M1127.26,-878.18,1216.05,-855.54"/>
<path data-id="208-224" d="M97.39,-252.73,42.38,-361.69"/>
<path data-id="210-305" d="M745.43,-1197.79,768.33,-1185.15"/>
<path data-id="211-226" d="M1712.71,-1351.96,1706.76,-1234.97"/>
<path data-id="211-272" d="M1712.71,-1351.96,1629.60,-1396.71"/>
<path data-id="212-241" d="M1174.50,-1501.42,993.46,-1500.67"/>
<path data-id="214-216" d="M915.27,-723.32,945.75,-726.49"/>
<path data-id="214-279" d="M915.27,-723.32,834.65,-775.39"/>
<path data-id="214-323" d="M915.27,-723.32,846.14,-664.68"/>
<path data-id="215-265" d="M458.91,-1522.68,560.80,-1508.13"/>
<path data-id="215-293" d="M458.91,-1522.68,557.85,-1639.23"/>
<path data-id="217-229" d="M567.04,-575.82,632.24,-721.63"/>
<path data-id="217-251" d="M567.04,-575.82,717.65,-493.53"/>
<path data-id="217-264" d="M567.04,-575.82,714.31,-672.51"/>
<path data-id="218-317" d="M1310.69,-1282.48,1304.61,-1328.87"/>
<path data-id="219-241" d="M987.42,-1377.66,993.46,-1500.67"/>
<path data-id="219-244" d="M987.42,-1377.66,1039.58,-1373.58"/>
<path data-id="221-232" d="M1199.86,-1663.08,1140.45,-1681.89"/>
<path data-id="221-275" d="M1199.86,-1663.08,1189.46,-1717.64"/>
<path data-id="222-224" d="M117.65,-373.49,42.38,-361.69"/>
<path data-id="222-297" d="M117.65,-373.49,144.97,-431.73"/>
<path data-id="223-251" d="M738.03,-445.50,717.65,-493.53"/>
<path data-id="224-261" d="M42.38,-361.69,35.07,-405.28"/>
<path data-id="225-271" d="M1448.09,-1005.31,1360.00,-1029.15"/>
<path data-id="226-273" d="M1706.76,-1234.97,1592.26,-1216.35"/>
<path data-id="227-322" d="M727.99,-1475.74,726.40,-1449.43"/>
<path data-id="229-264" d="M632.24,-721.63,714.31,-672.51"/>
<path data-id="229-324" d="M632.24,-721.63,584.02,-747.10"/>
<path data-id="230-236" d="M418.05,-756.00,433.33,-849.82"/>
<path data-id="231-243" d="M89.72,-943.71,6.18,-772.78"/>
<path data-id="231-312" d="M89.72,-943.71,156.20,-901.09"/>
<path data-id="232-275" d="M1140.45,-1681.89,1189.46,-1717.64"/>
<path data-id="233-266" d="M338.01,-449.84,228.23,-429.30"/>
<path data-id="236-319" d="M433.33,-849.82,532.94,-964.90"/>
<path data-id="238-308" d="M376.93,-1308.74,415.74,-1368.26"/>
<path data-id="239-282" d="M1690.10,-821.12,1654.29,-852.13"/>
<path data-id="242-257" d="M69.06,-1144.11,107.77,-1180.49"/>
<path data-id="242-298" d="M69.06,-1144.11,41.31,-1169.98"/>
<path data-id="244-250" d="M1039.58,-1373.58,1044.52,-1348.40"/>
<path data-id="245-282" d="M1619.18,-899.40,1654.29,-852.13"/>
<path data-id="245-320" d="M1619.18,-899.40,1601.78,-998.80"/>
<path data-id="246-296" d="M1394.92,-1730.98,1488.15,-1715.73"/>
<path data-id="248-281" d="M1324.73,-1183.11,1266.48,-1183.23"/>
<path data-id="252-253" d="M740.20,-317.67,751.56,-244.82"/>
<path data-id="252-311" d="M740.20,-317.67,652.16,-274.31"/>
<path data-id="253-311" d="M751.56,-244.82,652.16,-274.31"/>
<path data-id="254-264" d="M753.10,-641.73,714.31,-672.51"/>
<path data-id="254-323" d="M753.10,-641.73,846.14,-664.68"/>
<path data-id="257-300" d="M107.77,-1180.49,226.55,-1210.08"/>
<path data-id="258-306" d="M1528.04,-1572.04,1443.35,-1486.02"/>
<path data-id="259-286" d="M1252.77,-831.25,1216.05,-855.54"/>
<path data-id="262-286" d="M1154.70,-917.77,1216.05,-855.54"/>
<path data-id="265-293" d="M560.80,-1508.13,557.85,-1639.23"/>
<path data-id="267-268" d="M1562.67,-1378.80,1486.65,-1417.89"/>
<path data-id="267-273" d="M1562.67,-1378.80,1592.26,-1216.35"/>
<path data-id="268-306" d="M1486.65,-1417.89,1443.35,-1486.02"/>
<path data-id="270-319" d="M394.25,-1146.76,532.94,-964.90"/>
<path data-id="275-310" d="M1189.46,-1717.64,1181.35,-1761.01"/>
<path data-id="276-299" d="M1117.90,-532.42,1007.83,-519.05"/>
<path data-id="276-304" d="M1117.90,-532.42,1129.31,-477.64"/>
<path data-id="277-309" d="M1410.62,-655.29,1367.18,-579.16"/>
<path data-id="278-305" d="M839.22,-1203.84,768.33,-1185.15"/>
<path data-id="279-323" d="M834.65,-775.39,846.14,-664.68"/>
<path data-id="280-319" d="M707.72,-970.91,532.94,-964.90"/>
<path data-id="284-321" d="M1073.30,-5.72,1040.01,-1.94"/>
<path data-id="288-312" d="M170.02,-827.23,156.20,-901.09"/>
<path data-id="290-296" d="M1387.52,-1538.29,1488.15,-1715.73"/>
<path data-id="290-306" d="M1387.52,-1538.29,1443.35,-1486.02"/>
<path data-id="292-313" d="M1493.23,-217.28,1381.43,-202.91"/>
<path data-id="293-307" d="M557.85,-1639.23,586.52,-1709.63"/>
<path data-id="294-317" d="M1278.94,-1326.46,1304.61,-1328.87"/>
<path data-id="302-320" d="M1777.03,-1031.62,1601.78,-998.80"/>
<path data-id="303-311" d="M582.18,-194.63,652.16,-274.31"/>
<path data-id="308-315" d="M415.74,-1368.26,503.73,-1312.28"/>
<path data-id="314-319" d="M398.17,-902.42,532.94,-964.90"/>
<path data-id="316-318" d="M783.49,-1389.56,682.99,-1328.32"/>
<circle data-id="0" cx="819.87" cy="-1716.42" r="10.00px"/>
<text data-id="0" x="819.87" y="-1716.42">R0</text>
<circle data-id="1" cx="241.39" cy="-310.81" r="10.00px"/>
<text data-id="1" x="241.39" y="-310.81">R1</text>
<circle data-id="2" cx="99.13" cy="-1237.19" r="10.00px"/>
<text data-id="2" x="99.13" y="-1237.19">R2</text>
<circle data-id="3" cx="507.68" cy="-632.73" r="10.00px"/>
<text data-id="3" x="507.68" y="-632.73">R3</text>
<circle data-id="4" cx="1177.03" cy="-1626.12" r="10.00px"/>
<text data-id="4" x="1177.03" y="-1626.12">R4</text>
<circle data-id="5" cx="360.55" cy="-109.32" r="10.00px"/>
<text data-id="5" x="360.55" y="-109.32">R5</text>
<circle data-id="6" cx="613.50" cy="-1493.95" r="10.00px"/>
<text data-id="6" x="613.50" y="-1493.95">R6</text>
<circle data-id="7" cx="125.05" cy="-510.95" r="10.00px"/>
<text data-id="7" x="125.05" y="-510.95">R7</text>
<circle data-id="8" cx="36.06" cy="-1294.55" r="10.00px"/>
<text data-id="8" x="36.06" y="-1294.55">R8</text>
<circle data-id="9" cx="1421.81" cy="-30.92" r="10.00px"/>
<text data-id="9" x="1421.81" y="-30.92">R9</text>
<circle data-id="10" cx="1517.91" cy="-1149.34" r="10.00px"/>
<text data-id="10" x="1517.91" y="-1149.34">R10</text>
<circle data-id="11" cx="1635.94" cy="-1758.91" r="10.00px"/>
<text data-id="11" x="1635.94" y="-1758.91">R11</text>
<circle data-id="12" cx="901.10" cy="-1550.77" r="10.00px"/>
<text data-id="12" x="901.10" y="-1550.77">R12</text>
<circle data-id="13" cx="1649.76" cy="-229.97" r="10.00px"/>
<text data-id="13" x="1649.76" y="-229.97">R13</text>
<circle data-id="14" cx="1102.74" cy="-47.95" r="10.00px"/>
<text data-id="14" x="1102.74" y="-47.95">R14</text>
<circle data-id="15" cx="1785.10" cy="-1475.89" r="10.00px"/>
<text data-id="15" x="1785.10" y="-1475.89">R15</text>
<circle data-id="16" cx="1684.16" cy="-1786.65" r="10.00px"/>
<text data-id="16" x="1684.16" y="-1786.65">R16</text>
<circle data-id="17" cx="179.47" cy="-751.26" r="10.00px"/>
<text data-id="17" x="179.47" y="-751.26">R17</text>
<circle data-id="18" cx="323.08" cy="-549.03" r="10.00px"/>
<text data-id="18" x="323.08" y="-549.03">R18</text>
<circle data-id="19" cx="1524.54" cy="-922.23" r="10.00px"/>
<text data-id="19" x="1524.54" y="-922.23">R19</text>
<circle data-id="20" cx="667.02" cy="-766.17" r="10.00px"/>
<text data-id="20" x="667.02" y="-766.17">R20</text>
<circle data-id="21" cx="849.88" cy="-1082.52" r="10.00px"/>
<text data-id="21" x="849.88" y="-1082.52">R21</text>
<circle data-id="22" cx="185.25" cy="-430.95" r="10.00px"/>
<text data-id="22" x="185.25" y="-430.95">R22</text>
<circle data-id="23" cx="1280.60" cy="-801.52" r="10.00px"/>
<text data-id="23" x="1280.60" y="-801.52">R23</text>
<circle data-id="24" cx="1383.42" cy="-1321.45" r="10.00px"/>
<text data-id="24" x="1383.42" y="-1321.45">R24</text>
<circle data-id="25" cx="1765.01" cy="-475.59" r="10.00px"/>
<text data-id="25" x="1765.01" y="-475.59">R25</text>
<circle data-id="26" cx="1636.46" cy="-350.37" r="10.00px"/>
<text data-id="26" x="1636.46" y="-350.37">R26</text>
<circle data-id="27" cx="97.48" cy="-1001.30" r="10.00px"/>
<text data-id="27" x="97.48" y="-1001.30">R27</text>
<circle data-id="28" cx="517.89" cy="-1180.56" r="10.00px"/>
<text data-id="28" x="517.89" y="-1180.56">R28</text>
<circle data-id="29" cx="1279.66" cy="-402.84" r="10.00px"/>
<text data-id="29" x="1279.66" y="-402.84">R29</text>
<circle data-id="30" cx="1003.16" cy="-1702.02" r="10.00px"/>
<text data-id="30" x="1003.16" y="-1702.02">R30</text>
<circle data-id="31" cx="159.01" cy="-726.58" r="10.00px"/>
<text data-id="31" x="159.01" y="-726.58">R31</text>
<circle data-id="32" cx="1564.30" cy="-1725.05" r="10.00px"/>
<text data-id="32" x="1564.30" y="-1725.05">R32</text>
<circle data-id="33" cx="1254.20" cy="-1303.39" r="10.00px"/>
<text data-id="33" x="1254.20" y="-1303.39">R33</text>
<circle data-id="34" cx="492.25" cy="-327.96" r="10.00px"/>
<text data-id="34" x="492.25" y="-327.96">R34</text>
<circle data-id="35" cx="1301.93" cy="-1649.39" r="10.00px"/>
<text data-id="35" x="1301.93" y="-1649.39">R35</text>
<circle data-id="36" cx="434.50" cy="-288.60" r="10.00px"/>
<text data-id="36" x="434.50" y="-288.60">R36</text>
<circle data-id="37" cx="1780.02" cy="-667.73" r="10.00px"/>
<text data-id="37" x="1780.02" y="-667.73">R37</text>
<circle data-id="38" cx="1704.86" cy="-267.80" r="10.00px"/>
<text data-id="38" x="1704.86" y="-267.80">R38</text>
<circle data-id="39" cx="800.97" cy="-569.24" r="10.00px"/>
<text data-id="39" x="800.97" y="-569.24">R39</text>
<circle data-id="40" cx="1718.22" cy="-1147.87" r="10.00px"/>
<text data-id="40" x="1718.22" y="-1147.87">R40</text>
<circle data-id="41" cx="395.36" cy="-1239.00" r="10.00px"/>
<text data-id="41" x="395.36" y="-1239.00">R41</text>
<circle data-id="42" cx="1488.66" cy="-519.93" r="10.00px"/>
<text data-id="42" x="1488.66" y="-519.93">R42</text>
<circle data-id="43" cx="1093.46" cy="-1195.47" r="10.00px"/>
<text data-id="43" x="1093.46" y="-1195.47">R43</text>
<circle data-id="44" cx="1224.94" cy="-945.16" r="10.00px"/>
<text data-id="44" x="1224.94" y="-945.16">R44</text>
<circle data-id="45" cx="392.14" cy="-1490.94" r="10.00px"/>
<text data-id="45" x="392.14" y="-1490.94">R45</text>
<circle data-id="46" cx="507.86" cy="-178.36" r="10.00px"/>
<text data-id="46" x="507.86" y="-178.36">R46</text>
<circle data-id="47" cx="958.66" cy="-50.70" r="10.00px"/>
<text data-id="47" x="958.66" y="-50.70">R47</text>
<circle data-id="48" cx="1060.20" cy="-1316.36" r="10.00px"/>
<text data-id="48" x="1060.20" y="-1316.36">R48</text>
<circle data-id="49" cx="1160.64" cy="-1042.82" r="10.00px"/>
<text data-id="49" x="1160.64" y="-1042.82">R49</text>
<circle data-id="50" cx="1028.47" cy="-1784.01" r="10.00px"/>
<text data-id="50" x="1028.47" y="-1784.01">R50</text>
<circle data-id="51" cx="673.29" cy="-1793.56" r="10.00px"/>
<text data-id="51" x="673.29" y="-1793.56">R51</text>
<circle data-id="52" cx="1490.08" cy="-931.02" r="10.00px"/>
<text data-id="52" x="1490.08" y="-931.02">R52</text>
<circle data-id="53" cx="62.46" cy="-559.77" r="10.00px"/>
<text data-id="53" x="62.46" y="-559.77">R53</text>
<circle data-id="54" cx="1761.84" cy="-1382.85" r="10.00px"/>
<text data-id="54" x="1761.84" y="-1382.85">R54</text>
<circle data-id="55" cx="408.11" cy="-251.04" r="10.00px"/>
<text data-id="55" x="408.11" y="-251.04">R55</text>
<circle data-id="56" cx="998.76" cy="-226.70" r="10.00px"/>
<text data-id="56" x="998.76" y="-226.70">R56</text>
<circle data-id="57" cx="289.88" cy="-1750.18" r="10.00px"/>
<text data-id="57" x="289.88" y="-1750.18">R57</text>
<circle data-id="58" cx="605.13" cy="-0.25" r="10.00px"/>
<text data-id="58" x="605.13" y="-0.25">R58</text>
<circle data-id="59" cx="1590.72" cy="-1396.39" r="10.00px"/>
<text data-id="59" x="1590.72" y="-1396.39">R59</text>
<circle data-id="60" cx="698.52" cy="-1584.96" r="10.00px"/>
<text data-id="60" x="698.52" y="-1584.96">R60</text>
<circle data-id="61" cx="1309.88" cy="-1402.03" r="10.00px"/>
<text data-id="61" x="1309.88" y="-1402.03">R61</text>
<circle data-id="62" cx="1283.32" cy="-212.13" r="10.00px"/>
<text data-id="62" x="1283.32" y="-212.13">R62</text>
<circle data-id="63" cx="232.92" cy="-840.21" r="10.00px"/>
<text data-id="63" x="232.92" y="-840.21">R63</text>
<circle data-id="64" cx="1572.51" cy="-574.68" r="10.00px"/>
<text data-id="64" x="1572.51" y="-574.68">R64</text>
<circle data-id="65" cx="134.03" cy="-289.59" r="10.00px"/>
<text data-id="65" x="134.03" y="-289.59">R65</text>
<circle data-id="66" cx="885.27" cy="-505.27" r="10.00px"/>
<text data-id="66" x="885.27" y="-505.27">R66</text>
<circle data-id="67" cx="834.54" cy="-208.97" r="10.00px"/>
<text data-id="67" x="834.54" y="-208.97">R67</text>
<circle data-id="68" cx="956.78" cy="-1376.18" r="10.00px"/>
<text data-id="68" x="956.78" y="-1376.18">R68</text>
<circle data-id="69" cx="742.84" cy="-932.93" r="10.00px"/>
<text data-id="69" x="742.84" y="-932.93">R69</text>
<circle data-id="70" cx="1169.59" cy="-1131.78" r="10.00px"/>
<text data-id="70" x="1169.59" y="-1131.78">R70</text>
<circle data-id="71" cx="951.15" cy="-1004.34" r="10.00px"/>
<text data-id="71" x="951.15" y="-1004.34">R71</text>
<circle data-id="72" cx="747.81" cy="-1767.13" r="10.00px"/>
<text data-id="72" x="747.81" y="-1767.13">R72</text>
<circle data-id="73" cx="1461.05" cy="-676.70" r="10.00px"/>
<text data-id="73" x="1461.05" y="-676.70">R73</text>
<circle data-id="74" cx="752.37" cy="-1627.06" r="10.00px"/>
<text data-id="74" x="752.37" y="-1627.06">R74</text>
<circle data-id="75" cx="699.07" cy="-1433.24" r="10.00px"/>
<text data-id="75" x="699.07" y="-1433.24">R75</text>
<circle data-id="76" cx="1550.35" cy="-1637.95" r="10.00px"/>
<text data-id="76" x="1550.35" y="-1637.95">R76</text>
<circle data-id="77" cx="725.53" cy="-422.21" r="10.00px"/>
<text data-id="77" x="725.53" y="-422.21">R77</text>
<circle data-id="78" cx="1621.21" cy="-206.25" r="10.00px"/>
<text data-id="78" x="1621.21" y="-206.25">R78</text>
<circle data-id="79" cx="863.80" cy="-274.53" r="10.00px"/>
<text data-id="79" x="863.80" y="-274.53">R79</text>
<circle data-id="80" cx="741.64" cy="-504.40" r="10.00px"/>
<text data-id="80" x="741.64" y="-504.40">R80</text>
<circle data-id="81" cx="1203.43" cy="-313.18" r="10.00px"/>
<text data-id="81" x="1203.43" y="-313.18">R81</text>
<circle data-id="82" cx="475.89" cy="-93.87" r="10.00px"/>
<text data-id="82" x="475.89" y="-93.87">R82</text>
<circle data-id="83" cx="1669.17" cy="-524.75" r="10.00px"/>
<text data-id="83" x="1669.17" y="-524.75">R83</text>
<circle data-id="84" cx="806.37" cy="-799.83" r="10.00px"/>
<text data-id="84" x="806.37" y="-799.83">R84</text>
<circle data-id="85" cx="1315.18" cy="-853.59" r="10.00px"/>
<text data-id="85" x="1315.18" y="-853.59">R85</text>
<circle data-id="86" cx="1719.77" cy="-1405.90" r="10.00px"/>
<text data-id="86" x="1719.77" y="-1405.90">R86</text>
<circle data-id="87" cx="1391.49" cy="-1176.26" r="10.00px"/>
<text data-id="87" x="1391.49" y="-1176.26">R87</text>
<circle data-id="88" cx="918.93" cy="-635.49" r="10.00px"/>
<text data-id="88" x="918.93" y="-635.49">R88</text>
<circle data-id="89" cx="1304.77" cy="-1220.56" r="10.00px"/>
<text data-id="89" x="1304.77" y="-1220.56">R89</text>
<circle data-id="90" cx="1649.40" cy="-1133.91" r="10.00px"/>
<text data-id="90" x="1649.40" y="-1133.91">R90</text>
<circle data-id="91" cx="754.81" cy="-1068.51" r="10.00px"/>
<text data-id="91" x="754.81" y="-1068.51">R91</text>
<circle data-id="92" cx="298.47" cy="-1516.93" r="10.00px"/>
<text data-id="92" x="298.47" y="-1516.93">R92</text>
<circle data-id="93" cx="55.74" cy="-742.22" r="10.00px"/>
<text data-id="93" x="55.74" y="-742.22">R93</text>
<circle data-id="94" cx="295.67" cy="-1064.09" r="10.00px"/>
<text data-id="94" x="295.67" y="-1064.09">R94</text>
<circle data-id="95" cx="1247.53" cy="-139.47" r="10.00px"/>
<text data-id="95" x="1247.53" y="-139.47">R95</text>
<circle data-id="96" cx="1740.12" cy="-305.89" r="10.00px"/>
<text data-id="96" x="1740.12" y="-305.89">R96</text>
<circle data-id="97" cx="732.01" cy="-749.97" r="10.00px"/>
<text data-id="97" x="732.01" y="-749.97">R97</text>
<circle data-id="98" cx="698.69" cy="-1291.24" r="10.00px"/>
<text data-id="98" x="698.69" y="-1291.24">R98</text>
<circle data-id="99" cx="239.87" cy="-1158.21" r="10.00px"/>
<text data-id="99" x="239.87" y="-1158.21">R99</text>
<circle data-id="100" cx="108.07" cy="-970.30" r="10.00px"/>
<text data-id="100" x="108.07" y="-970.30">R100</text>
<circle data-id="101" cx="239.86" cy="-1314.04" r="10.00px"/>
<text data-id="101" x="239.86" y="-1314.04">R101</text>
<circle data-id="102" cx="68.17" cy="-504.58" r="10.00px"/>
<text data-id="102" x="68.17" y="-504.58">R102</text>
<circle data-id="103" cx="762.41" cy="-476.02" r="10.00px"/>
<text data-id="103" x="762.41" y="-476.02">R103</text>
<circle data-id="104" cx="1106.77" cy="-103.13" r="10.00px"/>
<text data-id="104" x="1106.77" y="-103.13">R104</text>
<circle data-id="105" cx="977.25" cy="-1206.35" r="10.00px"/>
<text data-id="105" x="977.25" y="-1206.35">R105</text>
<circle data-id="106" cx="1722.91" cy="-1603.67" r="10.00px"/>
<text data-id="106" x="1722.91" y="-1603.67">R106</text>
<circle data-id="107" cx="1667.97" cy="-356.13" r="10.00px"/>
<text data-id="107" x="1667.97" y="-356.13">R107</text>
<circle data-id="108" cx="1347.34" cy="-1055.06" r="10.00px"/>
<text data-id="108" x="1347.34" y="-1055.06">R108</text>
<circle data-id="109" cx="1490.81" cy="-851.75" r="10.00px"/>
<text data-id="109" x="1490.81" y="-851.75">R109</text>
<circle data-id="110" cx="1488.67" cy="-987.00" r="10.00px"/>
<text data-id="110" x="1488.67" y="-987.00">R110</text>
<circle data-id="111" cx="1485.48" cy="-1255.02" r="10.00px"/>
<text data-id="111" x="1485.48" y="-1255.02">R111</text>
<circle data-id="112" cx="1245.44" cy="-1064.45" r="10.00px"/>
<text data-id="112" x="1245.44" y="-1064.45">R112</text>
<circle data-id="113" cx="21.28" cy="-210.74" r="10.00px"/>
<text data-id="113" x="21.28" y="-210.74">R113</text>
<circle data-id="114" cx="1560.09" cy="-964.44" r="10.00px"/>
<text data-id="114" x="1560.09" y="-964.44">R114</text>
<circle data-id="115" cx="176.33" cy="-1774.67" r="10.00px"/>
<text data-id="115" x="176.33" y="-1774.67">R115</text>
<circle data-id="116" cx="175.79" cy="-1318.86" r="10.00px"/>
<text data-id="116" x="175.79" y="-1318.86">R116</text>
<circle data-id="117" cx="282.55" cy="-912.25" r="10.00px"/>
<text data-id="117" x="282.55" y="-912.25">R117</text>
<circle data-id="118" cx="749.87" cy="-869.54" r="10.00px"/>
<text data-id="118" x="749.87" y="-869.54">R118</text>
<circle data-id="119" cx="339.07" cy="-295.22" r="10.00px"/>
<text data-id="119" x="339.07" y="-295.22">R119</text>
<circle data-id="120" cx="787.43" cy="-303.77" r="10.00px"/>
<text data-id="120" x="787.43" y="-303.77">R120</text>
<circle data-id="121" cx="1554.91" cy="-72.27" r="10.00px"/>
<text data-id="121" x="1554.91" y="-72.27">R121</text>
<circle data-id="122" cx="19.55" cy="-1029.12" r="10.00px"/>
<text data-id="122" x="19.55" y="-1029.12">R122</text>
<circle data-id="123" cx="1772.58" cy="-1300.29" r="10.00px"/>
<text data-id="123" x="1772.58" y="-1300.29">R123</text>
<circle data-id="124" cx="354.72" cy="-1475.32" r="10.00px"/>
<text data-id="124" x="354.72" y="-1475.32">R124</text>
<circle data-id="125" cx="393.57" cy="-340.42" r="10.00px"/>
<text data-id="125" x="393.57" y="-340.42">R125</text>
<circle data-id="126" cx="324.02" cy="-1092.06" r="10.00px"/>
<text data-id="126" x="324.02" y="-1092.06">R126</text>
<circle data-id="127" cx="158.49" cy="-301.11" r="10.00px"/>
<text data-id="127" x="158.49" y="-301.11">R127</text>
<circle data-id="128" cx="1537.27" cy="-785.60" r="10.00px"/>
<text data-id="128" x="1537.27" y="-785.60">R128</text>
<circle data-id="129" cx="506.74" cy="-1456.01" r="10.00px"/>
<text data-id="129" x="506.74" y="-1456.01">R129</text>
<circle data-id="130" cx="244.75" cy="-1439.20" r="10.00px"/>
<text data-id="130" x="244.75" y="-1439.20">R130</text>
<circle data-id="131" cx="822.89" cy="-1267.15" r="10.00px"/>
<text data-id="131" x="822.89" y="-1267.15">R131</text>
<circle data-id="132" cx="1290.62" cy="-1247.15" r="10.00px"/>
<text data-id="132" x="1290.62" y="-1247.15">R132</text>
<circle data-id="133" cx="770.29" cy="-1457.04" r="10.00px"/>
<text data-id="133" x="770.29" y="-1457.04">R133</text>
<circle data-id="134" cx="1010.80" cy="-460.59" r="10.00px"/>
<text data-id="134" x="1010.80" y="-460.59">R134</text>
<circle data-id="135" cx="1503.99" cy="-798.59" r="10.00px"/>
<text data-id="135" x="1503.99" y="-798.59">R135</text>
<circle data-id="136" cx="949.66" cy="-1066.15" r="10.00px"/>
<text data-id="136" x="949.66" y="-1066.15">R136</text>
<circle data-id="137" cx="230.77" cy="-924.77" r="10.00px"/>
<text data-id="137" x="230.77" y="-924.77">R137</text>
<circle data-id="138" cx="1791.19" cy="-842.36" r="10.00px"/>
<text data-id="138" x="1791.19" y="-842.36">R138</text>
<circle data-id="139" cx="393.24" cy="-871.82" r="10.00px"/>
<text data-id="139" x="393.24" y="-871.82">R139</text>
<circle data-id="140" cx="1798.37" cy="-1295.63" r="10.00px"/>
<text data-id="140" x="1798.37" y="-1295.63">R140</text>
<circle data-id="141" cx="942.29" cy="-939.06" r="10.00px"/>
<text data-id="141" x="942.29" y="-939.06">R141</text>
<circle data-id="142" cx="1051.44" cy="-733.06" r="10.00px"/>
<text data-id="142" x="1051.44" y="-733.06">R142</text>
<circle data-id="143" cx="877.88" cy="-1586.77" r="10.00px"/>
<text data-id="143" x="877.88" y="-1586.77">R143</text>
<circle data-id="144" cx="1439.61" cy="-52.81" r="10.00px"/>
<text data-id="144" x="1439.61" y="-52.81">R144</text>
<circle data-id="145" cx="1194.90" cy="-1005.16" r="10.00px"/>
<text data-id="145" x="1194.90" y="-1005.16">R145</text>
<circle data-id="146" cx="186.48" cy="-957.94" r="10.00px"/>
<text data-id="146" x="186.48" y="-957.94">R146</text>
<circle data-id="147" cx="959.90" cy="-1690.46" r="10.00px"/>
<text data-id="147" x="959.90" y="-1690.46">R147</text>
<circle data-id="148" cx="1697.88" cy="-76.77" r="10.00px"/>
<text data-id="148" x="1697.88" y="-76.77">R148</text>
<circle data-id="149" cx="397.93" cy="-675.85" r="10.00px"/>
<text data-id="149" x="397.93" y="-675.85">R149</text>
<circle data-id="150" cx="413.31" cy="-1206.25" r="10.00px"/>
<text data-id="150" x="413.31" y="-1206.25">R150</text>
<circle data-id="151" cx="798.68" cy="-347.54" r="10.00px"/>
<text data-id="151" x="798.68" y="-347.54">R151</text>
<circle data-id="152" cx="1468.24" cy="-430.41" r="10.00px"/>
<text data-id="152" x="1468.24" y="-430.41">R152</text>
<circle data-id="153" cx="1572.07" cy="-204.24" r="10.00px"/>
<text data-id="153" x="1572.07" y="-204.24">R153</text>
<circle data-id="154" cx="1248.38" cy="-1517.82" r="10.00px"/>
<text data-id="154" x="1248.38" y="-1517.82">R154</text>
<circle data-id="155" cx="529.24" cy="-804.66" r="10.00px"/>
<text data-id="155" x="529.24" y="-804.66">R155</text>
<circle data-id="156" cx="726.13" cy="-1282.01" r="10.00px"/>
<text data-id="156" x="726.13" y="-1282.01">R156</text>
<circle data-id="157" cx="333.05" cy="-948.83" r="10.00px"/>
<text data-id="157" x="333.05" y="-948.83">R157</text>
<circle data-id="158" cx="1151.24" cy="-1386.89" r="10.00px"/>
<text data-id="158" x="1151.24" y="-1386.89">R158</text>
<circle data-id="159" cx="294.34" cy="-1389.60" r="10.00px"/>
<text data-id="159" x="294.34" y="-1389.60">R159</text>
<circle data-id="160" cx="644.44" cy="-1188.75" r="10.00px"/>
<text data-id="160" x="644.44" y="-1188.75">R160</text>
<circle data-id="161" cx="1532.94" cy="-1781.47" r="10.00px"/>
<text data-id="161" x="1532.94" y="-1781.47">R161</text>
<circle data-id="162" cx="868.84" cy="-1500.66" r="10.00px"/>
<text data-id="162" x="868.84" y="-1500.66">R162</text>
<circle data-id="163" cx="1270.55" cy="-1217.41" r="10.00px"/>
<text data-id="163" x="1270.55" y="-1217.41">R163</text>
<circle data-id="164" cx="649.14" cy="-1663.35" r="10.00px"/>
<text data-id="164" x="649.14" y="-1663.35">R164</text>
<circle data-id="165" cx="170.31" cy="-1457.99" r="10.00px"/>
<text data-id="165" x="170.31" y="-1457.99">R165</text>
<circle data-id="166" cx="1563.10" cy="-1534.62" r="10.00px"/>
<text data-id="166" x="1563.10" y="-1534.62">R166</text>
<circle data-id="167" cx="1324.87" cy="-882.33" r="10.00px"/>
<text data-id="167" x="1324.87" y="-882.33">R167</text>
<circle data-id="168" cx="384.78" cy="-1789.94" r="10.00px"/>
<text data-id="168" x="384.78" y="-1789.94">R168</text>
<circle data-id="169" cx="278.00" cy="-118.24" r="10.00px"/>
<text data-id="169" x="278.00" y="-118.24">R169</text>
<circle data-id="170" cx="1070.25" cy="-963.49" r="10.00px"/>
<text data-id="170" x="1070.25" y="-963.49">R170</text>
<circle data-id="171" cx="530.54" cy="-20.98" r="10.00px"/>
<text data-id="171" x="530.54" y="-20.98">R171</text>
<circle data-id="172" cx="378.27" cy="-382.69" r="10.00px"/>
<text data-id="172" x="378.27" y="-382.69">R172</text>
<circle data-id="173" cx="1073.13" cy="-1170.30" r="10.00px"/>
<text data-id="173" x="1073.13" y="-1170.30">R173</text>
<circle data-id="174" cx="1749.60" cy="-375.10" r="10.00px"/>
<text data-id="174" x="1749.60" y="-375.10">R174</text>
<circle data-id="175" cx="67.93" cy="-1213.79" r="10.00px"/>
<text data-id="175" x="67.93" y="-1213.79">R175</text>
<circle data-id="176" cx="1228.62" cy="-456.97" r="10.00px"/>
<text data-id="176" x="1228.62" y="-456.97">R176</text>
<circle data-id="177" cx="982.71" cy="-745.27" r="10.00px"/>
<text data-id="177" x="982.71" y="-745.27">R177</text>
<circle data-id="178" cx="732.35" cy="-1529.05" r="10.00px"/>
<text data-id="178" x="732.35" y="-1529.05">R178</text>
<circle data-id="179" cx="619.34" cy="-428.31" r="10.00px"/>
<text data-id="179" x="619.34" y="-428.31">R179</text>
<circle data-id="180" cx="1104.98" cy="-242.88" r="10.00px"/>
<text data-id="180" x="1104.98" y="-242.88">R180</text>
<circle data-id="181" cx="621.78" cy="-1071.60" r="10.00px"/>
<text data-id="181" x="621.78" y="-1071.60">R181</text>
<circle data-id="182" cx="231.58" cy="-1737.84" r="10.00px"/>
<text data-id="182" x="231.58" y="-1737.84">R182</text>
<circle data-id="183" cx="148.75" cy="-607.39" r="10.00px"/>
<text data-id="183" x="148.75" y="-607.39">R183</text>
<circle data-id="184" cx="1531.88" cy="-1684.04" r="10.00px"/>
<text data-id="184" x="1531.88" y="-1684.04">R184</text>
<circle data-id="185" cx="1317.90" cy="-1768.36" r="10.00px"/>
<text data-id="185" x="1317.90" y="-1768.36">R185</text>
<circle data-id="186" cx="646.34" cy="-137.98" r="10.00px"/>
<text data-id="186" x="646.34" y="-137.98">R186</text>
<circle data-id="187" cx="1669.13" cy="-1481.59" r="10.00px"/>
<text data-id="187" x="1669.13" y="-1481.59">R187</text>
<circle data-id="188" cx="580.52" cy="-1402.52" r="10.00px"/>
<text data-id="188" x="580.52" y="-1402.52">R188</text>
<circle data-id="189" cx="1773.47" cy="-1220.16" r="10.00px"/>
<text data-id="189" x="1773.47" y="-1220.16">R189</text>
<circle data-id="190" cx="1518.49" cy="-1455.43" r="10.00px"/>
<text data-id="190" x="1518.49" y="-1455.43">R190</text>
<circle data-id="191" cx="513.90" cy="-506.33" r="10.00px"/>
<text data-id="191" x="513.90" y="-506.33">R191</text>
<circle data-id="192" cx="799.43" cy="-1737.56" r="10.00px"/>
<text data-id="192" x="799.43" y="-1737.56">R192</text>
<circle data-id="193" cx="907.42" cy="-1626.81" r="10.00px"/>
<text data-id="193" x="907.42" y="-1626.81">R193</text>
<circle data-id="194" cx="67.82" cy="-1628.23" r="10.00px"/>
<text data-id="194" x="67.82" y="-1628.23">R194</text>
<circle data-id="195" cx="1359.23" cy="-998.31" r="10.00px"/>
<text data-id="195" x="1359.23" y="-998.31">R195</text>
<circle data-id="196" cx="704.24" cy="-1064.45" r="10.00px"/>
<text data-id="196" x="704.24" y="-1064.45">R196</text>
<circle data-id="197" cx="1094.69" cy="-1747.62" r="10.00px"/>
<text data-id="197" x="1094.69" y="-1747.62">R197</text>
<circle data-id="198" cx="776.08" cy="-1252.85" r="10.00px"/>
<text data-id="198" x="776.08" y="-1252.85">R198</text>
<circle data-id="199" cx="843.22" cy="-527.95" r="10.00px"/>
<text data-id="199" x="843.22" y="-527.95">R199</text>
<circle data-id="200" cx="1786.77" cy="-740.42" r="10.00px"/>
<text data-id="200" x="1786.77" y="-740.42">R200</text>
<circle data-id="201" cx="664.85" cy="-110.03" r="10.00px"/>
<text data-id="201" x="664.85" y="-110.03">R201</text>
<circle data-id="202" cx="1125.27" cy="-168.27" r="10.00px"/>
<text data-id="202" x="1125.27" y="-168.27">R202</text>
<circle data-id="203" cx="781.95" cy="-960.93" r="10.00px"/>
<text data-id="203" x="781.95" y="-960.93">R203</text>
<circle data-id="204" cx="1090.06" cy="-1796.82" r="10.00px"/>
<text data-id="204" x="1090.06" y="-1796.82">R204</text>
<circle data-id="205" cx="669.23" cy="-1481.38" r="10.00px"/>
<text data-id="205" x="669.23" y="-1481.38">R205</text>
<circle data-id="206" cx="17.08" cy="-1230.24" r="10.00px"/>
<text data-id="206" x="17.08" y="-1230.24">R206</text>
<circle data-id="207" cx="1127.26" cy="-878.18" r="10.00px"/>
<text data-id="207" x="1127.26" y="-878.18">R207</text>
<circle data-id="208" cx="97.39" cy="-252.73" r="10.00px"/>
<text data-id="208" x="97.39" y="-252.73">R208</text>
<circle data-id="209" cx="957.31" cy="-421.67" r="10.00px"/>
<text data-id="209" x="957.31" y="-421.67">R209</text>
<circle data-id="210" cx="745.43" cy="-1197.79" r="10.00px"/>
<text data-id="210" x="745.43" y="-1197.79">R210</text>
<circle data-id="211" cx="1712.71" cy="-1351.96" r="10.00px"/>
<text data-id="211" x="1712.71" y="-1351.96">R211</text>
<circle data-id="212" cx="1174.50" cy="-1501.42" r="10.00px"/>
<text data-id="212" x="1174.50" y="-1501.42">R212</text>
<circle data-id="213" cx="711.98" cy="-871.74" r="10.00px"/>
<text data-id="213" x="711.98" y="-871.74">R213</text>
<circle data-id="214" cx="915.27" cy="-723.32" r="10.00px"/>
<text data-id="214" x="915.27" y="-723.32">R214</text>
<circle data-id="215" cx="458.91" cy="-1522.68" r="10.00px"/>
<text data-id="215" x="458.91" y="-1522.68">R215</text>
<circle data-id="216" cx="945.75" cy="-726.49" r="10.00px"/>
<text data-id="216" x="945.75" y="-726.49">R216</text>
<circle data-id="217" cx="567.04" cy="-575.82" r="10.00px"/>
<text data-id="217" x="567.04" y="-575.82">R217</text>
<circle data-id="218" cx="1310.69" cy="-1282.48" r="10.00px"/>
<text data-id="218" x="1310.69" y="-1282.48">R218</text>
<circle data-id="219" cx="987.42" cy="-1377.66" r="10.00px"/>
<text data-id="219" x="987.42" y="-1377.66">R219</text>
<circle data-id="220" cx="1642.40" cy="-25.79" r="10.00px"/>
<text data-id="220" x="1642.40" y="-25.79">R220</text>
<circle data-id="221" cx="1199.86" cy="-1663.08" r="10.00px"/>
<text data-id="221" x="1199.86" y="-1663.08">R221</text>
<circle data-id="222" cx="117.65" cy="-373.49" r="10.00px"/>
<text data-id="222" x="117.65" y="-373.49">R222</text>
<circle data-id="223" cx="738.03" cy="-445.50" r="10.00px"/>
<text data-id="223" x="738.03" y="-445.50">R223</text>
<circle data-id="224" cx="42.38" cy="-361.69" r="10.00px"/>
<text data-id="224" x="42.38" y="-361.69">R224</text>
<circle data-id="225" cx="1448.09" cy="-1005.31" r="10.00px"/>
<text data-id="225" x="1448.09" y="-1005.31">R225</text>
<circle data-id="226" cx="1706.76" cy="-1234.97" r="10.00px"/>
<text data-id="226" x="1706.76" y="-1234.97">R226</text>
<circle data-id="227" cx="727.99" cy="-1475.74" r="10.00px"/>
<text data-id="227" x="727.99" y="-1475.74">R227</text>
<circle data-id="228" cx="1308.36" cy="-955.11" r="10.00px"/>
<text data-id="228" x="1308.36" y="-955.11">R228</text>
<circle data-id="229" cx="632.24" cy="-721.63" r="10.00px"/>
<text data-id="229" x="632.24" y="-721.63">R229</text>
<circle data-id="230" cx="418.05" cy="-756.00" r="10.00px"/>
<text data-id="230" x="418.05" y="-756.00">R230</text>
<circle data-id="231" cx="89.72" cy="-943.71" r="10.00px"/>
<text data-id="231" x="89.72" y="-943.71">R231</text>
<circle data-id="232" cx="1140.45" cy="-1681.89" r="10.00px"/>
<text data-id="232" x="1140.45" y="-1681.89">R232</text>
<circle data-id="233" cx="338.01" cy="-449.84" r="10.00px"/>
<text data-id="233" x="338.01" y="-449.84">R233</text>
<circle data-id="234" cx="1739.26" cy="-90.70" r="10.00px"/>
<text data-id="234" x="1739.26" y="-90.70">R234</text>
<circle data-id="235" cx="789.53" cy="-1686.76" r="10.00px"/>
<text data-id="235" x="789.53" y="-1686.76">R235</text>
<circle data-id="236" cx="433.33" cy="-849.82" r="10.00px"/>
<text data-id="236" x="433.33" y="-849.82">R236</text>
<circle data-id="237" cx="1731.38" cy="-533.43" r="10.00px"/>
<text data-id="237" x="1731.38" y="-533.43">R237</text>
<circle data-id="238" cx="376.93" cy="-1308.74" r="10.00px"/>
<text data-id="238" x="376.93" y="-1308.74">R238</text>
<circle data-id="239" cx="1690.10" cy="-821.12" r="10.00px"/>
<text data-id="239" x="1690.10" y="-821.12">R239</text>
<circle data-id="240" cx="1589.66" cy="-537.56" r="10.00px"/>
<text data-id="240" x="1589.66" y="-537.56">R240</text>
<circle data-id="241" cx="993.46" cy="-1500.67" r="10.00px"/>
<text data-id="241" x="993.46" y="-1500.67">R241</text>
<circle data-id="242" cx="69.06" cy="-1144.11" r="10.00px"/>
<text data-id="242" x="69.06" y="-1144.11">R242</text>
<circle data-id="243" cx="6.18" cy="-772.78" r="10.00px"/>
<text data-id="243" x="6.18" y="-772.78">R243</text>
<circle data-id="244" cx="1039.58" cy="-1373.58" r="10.00px"/>
<text data-id="244" x="1039.58" y="-1373.58">R244</text>
<circle data-id="245" cx="1619.18" cy="-899.40" r="10.00px"/>
<text data-id="245" x="1619.18" y="-899.40">R245</text>
<circle data-id="246" cx="1394.92" cy="-1730.98" r="10.00px"/>
<text data-id="246" x="1394.92" y="-1730.98">R246</text>
<circle data-id="247" cx="801.60" cy="-895.94" r="10.00px"/>
<text data-id="247" x="801.60" y="-895.94">R247</text>
<circle data-id="248" cx="1324.73" cy="-1183.11" r="10.00px"/>
<text data-id="248" x="1324.73" y="-1183.11">R248</text>
<circle data-id="249" cx="420.16" cy="-67.86" r="10.00px"/>
<text data-id="249" x="420.16" y="-67.86">R249</text>
<circle data-id="250" cx="1044.52" cy="-1348.40" r="10.00px"/>
<text data-id="250" x="1044.52" y="-1348.40">R250</text>
<circle data-id="251" cx="717.65" cy="-493.53" r="10.00px"/>
<text data-id="251" x="717.65" y="-493.53">R251</text>
<circle data-id="252" cx="740.20" cy="-317.67" r="10.00px"/>
<text data-id="252" x="740.20" y="-317.67">R252</text>
<circle data-id="253" cx="751.56" cy="-244.82" r="10.00px"/>
<text data-id="253" x="751.56" y="-244.82">R253</text>
<circle data-id="254" cx="753.10" cy="-641.73" r="10.00px"/>
<text data-id="254" x="753.10" y="-641.73">R254</text>
<circle data-id="255" cx="21.41" cy="-1780.99" r="10.00px"/>
<text data-id="255" x="21.41" y="-1780.99">R255</text>
<circle data-id="256" cx="891.58" cy="-1072.82" r="10.00px"/>
<text data-id="256" x="891.58" y="-1072.82">R256</text>
<circle data-id="257" cx="107.77" cy="-1180.49" r="10.00px"/>
<text data-id="257" x="107.77" y="-1180.49">R257</text>
<circle data-id="258" cx="1528.04" cy="-1572.04" r="10.00px"/>
<text data-id="258" x="1528.04" y="-1572.04">R258</text>
<circle data-id="259" cx="1252.77" cy="-831.25" r="10.00px"/>
<text data-id="259" x="1252.77" y="-831.25">R259</text>
<circle data-id="260" cx="65.48" cy="-68.02" r="10.00px"/>
<text data-id="260" x="65.48" y="-68.02">R260</text>
<circle data-id="261" cx="35.07" cy="-405.28" r="10.00px"/>
<text data-id="261" x="35.07" y="-405.28">R261</text>
<circle data-id="262" cx="1154.70" cy="-917.77" r="10.00px"/>
<text data-id="262" x="1154.70" y="-917.77">R262</text>
<circle data-id="263" cx="300.92" cy="-1110.51" r="10.00px"/>
<text data-id="263" x="300.92" y="-1110.51">R263</text>
<circle data-id="264" cx="714.31" cy="-672.51" r="10.00px"/>
<text data-id="264" x="714.31" y="-672.51">R264</text>
<circle data-id="265" cx="560.80" cy="-1508.13" r="10.00px"/>
<text data-id="265" x="560.80" y="-1508.13">R265</text>
<circle data-id="266" cx="228.23" cy="-429.30" r="10.00px"/>
<text data-id="266" x="228.23" y="-429.30">R266</text>
<circle data-id="267" cx="1562.67" cy="-1378.80" r="10.00px"/>
<text data-id="267" x="1562.67" y="-1378.80">R267</text>
<circle data-id="268" cx="1486.65" cy="-1417.89" r="10.00px"/>
<text data-id="268" x="1486.65" y="-1417.89">R268</text>
<circle data-id="269" cx="684.34" cy="-1653.51" r="10.00px"/>
<text data-id="269" x="684.34" y="-1653.51">R269</text>
<circle data-id="270" cx="394.25" cy="-1146.76" r="10.00px"/>
<text data-id="270" x="394.25" y="-1146.76">R270</text>
<circle data-id="271" cx="1360.00" cy="-1029.15" r="10.00px"/>
<text data-id="271" x="1360.00" y="-1029.15">R271</text>
<circle data-id="272" cx="1629.60" cy="-1396.71" r="10.00px"/>
<text data-id="272" x="1629.60" y="-1396.71">R272</text>
<circle data-id="273" cx="1592.26" cy="-1216.35" r="10.00px"/>
<text data-id="273" x="1592.26" y="-1216.35">R273</text>
<circle data-id="274" cx="820.86" cy="-1754.30" r="10.00px"/>
<text data-id="274" x="820.86" y="-1754.30">R274</text>
<circle data-id="275" cx="1189.46" cy="-1717.64" r="10.00px"/>
<text data-id="275" x="1189.46" y="-1717.64">R275</text>
<circle data-id="276" cx="1117.90" cy="-532.42" r="10.00px"/>
<text data-id="276" x="1117.90" y="-532.42">R276</text>
<circle data-id="277" cx="1410.62" cy="-655.29" r="10.00px"/>
<text data-id="277" x="1410.62" y="-655.29">R277</text>
<circle data-id="278" cx="839.22" cy="-1203.84" r="10.00px"/>
<text data-id="278" x="839.22" y="-1203.84">R278</text>
<circle data-id="279" cx="834.65" cy="-775.39" r="10.00px"/>
<text data-id="279" x="834.65" y="-775.39">R279</text>
<circle data-id="280" cx="707.72" cy="-970.91" r="10.00px"/>
<text data-id="280" x="707.72" y="-970.91">R280</text>
<circle data-id="281" cx="1266.48" cy="-1183.23" r="10.00px"/>
<text data-id="281" x="1266.48" y="-1183.23">R281</text>
<circle data-id="282" cx="1654.29" cy="-852.13" r="10.00px"/>
<text data-id="282" x="1654.29" y="-852.13">R282</text>
<circle data-id="283" cx="216.75" cy="-1004.99" r="10.00px"/>
<text data-id="283" x="216.75" y="-1004.99">R283</text>
<circle data-id="284" cx="1073.30" cy="-5.72" r="10.00px"/>
<text data-id="284" x="1073.30" y="-5.72">R284</text>
<circle data-id="285" cx="1052.22" cy="-1184.35" r="10.00px"/>
<text data-id="285" x="1052.22" y="-1184.35">R285</text>
<circle data-id="286" cx="1216.05" cy="-855.54" r="10.00px"/>
<text data-id="286" x="1216.05" y="-855.54">R286</text>
<circle data-id="287" cx="207.33" cy="-1399.54" r="10.00px"/>
<text data-id="287" x="207.33" y="-1399.54">R287</text>
<circle data-id="288" cx="170.02" cy="-827.23" r="10.00px"/>
<text data-id="288" x="170.02" y="-827.23">R288</text>
<circle data-id="289" cx="1750.61" cy="-1509.18" r="10.00px"/>
<text data-id="289" x="1750.61" y="-1509.18">R289</text>
<circle data-id="290" cx="1387.52" cy="-1538.29" r="10.00px"/>
<text data-id="290" x="1387.52" y="-1538.29">R290</text>
<circle data-id="291" cx="1201.53" cy="-178.77" r="10.00px"/>
<text data-id="291" x="1201.53" y="-178.77">R291</text>
<circle data-id="292" cx="1493.23" cy="-217.28" r="10.00px"/>
<text data-id="292" x="1493.23" y="-217.28">R292</text>
<circle data-id="293" cx="557.85" cy="-1639.23" r="10.00px"/>
<text data-id="293" x="557.85" y="-1639.23">R293</text>
<circle data-id="294" cx="1278.94" cy="-1326.46" r="10.00px"/>
<text data-id="294" x="1278.94" y="-1326.46">R294</text>
<circle data-id="295" cx="1588.56" cy="-181.33" r="10.00px"/>
<text data-id="295" x="1588.56" y="-181.33">R295</text>
<circle data-id="296" cx="1488.15" cy="-1715.73" r="10.00px"/>
<text data-id="296" x="1488.15" y="-1715.73">R296</text>
<circle data-id="297" cx="144.97" cy="-431.73" r="10.00px"/>
<text data-id="297" x="144.97" y="-431.73">R297</text>
<circle data-id="298" cx="41.31" cy="-1169.98" r="10.00px"/>
<text data-id="298" x="41.31" y="-1169.98">R298</text>
<circle data-id="299" cx="1007.83" cy="-519.05" r="10.00px"/>
<text data-id="299" x="1007.83" y="-519.05">R299</text>
<circle data-id="300" cx="226.55" cy="-1210.08" r="10.00px"/>
<text data-id="300" x="226.55" y="-1210.08">R300</text>
<circle data-id="301" cx="345.22" cy="-681.03" r="10.00px"/>
<text data-id="301" x="345.22" y="-681.03">R301</text>
<circle data-id="302" cx="1777.03" cy="-1031.62" r="10.00px"/>
<text data-id="302" x="1777.03" y="-1031.62">R302</text>
<circle data-id="303" cx="582.18" cy="-194.63" r="10.00px"/>
<text data-id="303" x="582.18" y="-194.63">R303</text>
<circle data-id="304" cx="1129.31" cy="-477.64" r="10.00px"/>
<text data-id="304" x="1129.31" y="-477.64">R304</text>
<circle data-id="305" cx="768.33" cy="-1185.15" r="10.00px"/>
<text data-id="305" x="768.33" y="-1185.15">R305</text>
<circle data-id="306" cx="1443.35" cy="-1486.02" r="10.00px"/>
<text data-id="306" x="1443.35" y="-1486.02">R306</text>
<circle data-id="307" cx="586.52" cy="-1709.63" r="10.00px"/>
<text data-id="307" x="586.52" y="-1709.63">R307</text>
<circle data-id="308" cx="415.74" cy="-1368.26" r="10.00px"/>
<text data-id="308" x="415.74" y="-1368.26">R308</text>
<circle data-id="309" cx="1367.18" cy="-579.16" r="10.00px"/>
<text data-id="309" x="1367.18" y="-579.16">R309</text>
<circle data-id="310" cx="1181.35" cy="-1761.01" r="10.00px"/>
<text data-id="310" x="1181.35" y="-1761.01">R310</text>
<circle data-id="311" cx="652.16" cy="-274.31" r="10.00px"/>
<text data-id="311" x="652.16" y="-274.31">R311</text>
<circle data-id="312" cx="156.20" cy="-901.09" r="10.00px"/>
<text data-id="312" x="156.20" y="-901.09">R312</text>
<circle data-id="313" cx="1381.43" cy="-202.91" r="10.00px"/>
<text data-id="313" x="1381.43" y="-202.91">R313</text>
<circle data-id="314" cx="398.17" cy="-902.42" r="10.00px"/>
<text data-id="314" x="398.17" y="-902.42">R314</text>
<circle data-id="315" cx="503.73" cy="-1312.28" r="10.00px"/>
<text data-id="315" x="503.73" y="-1312.28">R315</text>
<circle data-id="316" cx="783.49" cy="-1389.56" r="10.00px"/>
<text data-id="316" x="783.49" y="-1389.56">R316</text>
<circle data-id="317" cx="1304.61" cy="-1328.87" r="10.00px"/>
<text data-id="317" x="1304.61" y="-1328.87">R317</text>
<circle data-id="318" cx="682.99" cy="-1328.32" r="10.00px"/>
<text data-id="318" x="682.99" y="-1328.32">R318</text>
<circle data-id="319" cx="532.94" cy="-964.90" r="10.00px"/>
<text data-id="319" x="532.94" y="-964.90">R319</text>
<circle data-id="320" cx="1601.78" cy="-998.80" r="10.00px"/>
<text data-id="320" x="1601.78" y="-998.80">R320</text>
<circle data-id="321" cx="1040.01" cy="-1.94" r="10.00px"/>
<text data-id="321" x="1040.01" y="-1.94">R321</text>
<circle data-id="322" cx="726.40" cy="-1449.43" r="10.00px"/>
<text data-id="322" x="726.40" y="-1449.43">R322</text>
<circle data-id="323" cx="846.14" cy="-664.68" r="10.00px"/>
<text data-id="323" x="846.14" y="-664.68">R323</text>
<circle data-id="324" cx="584.02" cy="-747.10" r="10.00px"/>
<text data-id="324" x="584.02" y="-747.10">R324</text>
</svg>
