<svg width="1881.97" height="1883.02" viewBox="-34.56 -42.02 1881.97 1883.02" xmlns="http://www.w3.org/2000/svg">
<style>path {fill: none; stroke: grey; stroke-width: 6;} circle {fill: lightblue; stroke: none;} text {fill: black; stroke: none; font-size: 16; font-family: sans-serif; text-anchor:middle;}</style>
<path d="M1054.58,1533.93,958.78,1612.30"/>
<path d="M1054.58,1533.93,1096.30,1607.35"/>
<path d="M1054.58,1533.93,919.44,1450.79"/>
<path d="M1054.58,1533.93,1094.27,1490.14"/>
<path d="M189.51,1138.74,223.04,1144.13"/>
<path d="M189.51,1138.74,148.05,990.82"/>
<path d="M189.51,1138.74,214.17,972.46"/>
<path d="M189.51,1138.74,134.72,1179.85"/>
<path d="M1562.54,730.28,1520.88,588.05"/>
<path d="M1562.54,730.28,1415.76,675.62"/>
<path d="M1562.54,730.28,1628.74,651.85"/>
<path d="M1562.54,730.28,1632.19,730.04"/>
<path d="M1562.54,730.28,1549.07,769.36"/>
<path d="M1749.58,1530.37,1802.41,1731.29"/>
<path d="M1749.58,1530.37,1514.17,1592.68"/>
<path d="M1749.58,1530.37,1758.33,1383.47"/>
<path d="M1749.58,1530.37,1580.20,1680.64"/>
<path d="M1749.58,1530.37,1619.65,1430.80"/>
<path d="M147.77,210.74,81.22,277.11"/>
<path d="M147.77,210.74,37.11,192.94"/>
<path d="M147.77,210.74,196.62,187.79"/>
<path d="M147.77,210.74,232.35,281.55"/>
<path d="M1422.86,1661.91,1419.94,1594.16"/>
<path d="M1422.86,1661.91,1331.55,1662.11"/>
<path d="M1422.86,1661.91,1478.69,1686.57"/>
<path d="M1422.86,1661.91,1468.27,1628.14"/>
<path d="M1026.60,628.04,992.74,576.67"/>
<path d="M1026.60,628.04,1010.26,658.50"/>
<path d="M1026.60,628.04,1113.47,603.93"/>
<path d="M500.17,1716.43,510.70,1607.02"/>
<path d="M500.17,1716.43,367.05,1758.41"/>
<path d="M500.17,1716.43,500.77,1777.03"/>
<path d="M500.17,1716.43,549.63,1722.84"/>
<path d="M500.17,1716.43,458.90,1602.30"/>
<path d="M880.45,1062.75,852.26,1031.19"/>
<path d="M880.45,1062.75,899.28,1167.60"/>
<path d="M880.45,1062.75,1008.99,1119.65"/>
<path d="M880.45,1062.75,1034.12,916.84"/>
<path d="M880.45,1062.75,841.44,1141.36"/>
<path d="M547.40,1348.50,563.84,1468.61"/>
<path d="M547.40,1348.50,581.15,1300.84"/>
<path d="M547.40,1348.50,497.71,1373.38"/>
<path d="M717.22,1658.37,778.83,1672.96"/>
<path d="M717.22,1658.37,765.99,1638.72"/>
<path d="M717.22,1658.37,585.55,1678.62"/>
<path d="M717.22,1658.37,646.51,1748.42"/>
<path d="M904.47,462.53,992.74,576.67"/>
<path d="M904.47,462.53,879.60,450.00"/>
<path d="M904.47,462.53,927.38,425.93"/>
<path d="M1520.88,588.05,1415.76,675.62"/>
<path d="M1520.88,588.05,1628.74,651.85"/>
<path d="M1520.88,588.05,1618.44,572.04"/>
<path d="M1520.88,588.05,1431.89,393.61"/>
<path d="M1183.78,135.07,1281.11,133.20"/>
<path d="M1183.78,135.07,1149.15,53.84"/>
<path d="M1183.78,135.07,1163.94,166.04"/>
<path d="M1750.97,1118.09,1624.49,1069.68"/>
<path d="M1750.97,1118.09,1722.96,1154.45"/>
<path d="M1750.97,1118.09,1756.67,1043.11"/>
<path d="M1750.97,1118.09,1781.64,1123.56"/>
<path d="M871.11,1550.99,958.78,1612.30"/>
<path d="M871.11,1550.99,788.15,1584.70"/>
<path d="M871.11,1550.99,919.44,1450.79"/>
<path d="M374.56,425.14,339.28,460.64"/>
<path d="M374.56,425.14,453.77,471.74"/>
<path d="M374.56,425.14,469.28,430.97"/>
<path d="M374.56,425.14,349.99,418.56"/>
<path d="M563.84,1468.61,667.45,1356.85"/>
<path d="M563.84,1468.61,588.21,1484.52"/>
<path d="M563.84,1468.61,515.57,1537.54"/>
<path d="M563.84,1468.61,497.71,1373.38"/>
<path d="M1077.87,424.86,1167.28,309.18"/>
<path d="M1077.87,424.86,1119.32,472.27"/>
<path d="M1077.87,424.86,1055.01,412.14"/>
<path d="M1077.87,424.86,1065.04,492.53"/>
<path d="M1358.05,1586.14,1308.98,1493.58"/>
<path d="M1358.05,1586.14,1331.55,1662.11"/>
<path d="M1358.05,1586.14,1382.87,1580.67"/>
<path d="M1358.05,1586.14,1266.82,1557.41"/>
<path d="M1415.76,675.62,1259.65,622.43"/>
<path d="M1415.76,675.62,1266.00,714.28"/>
<path d="M1415.76,675.62,1343.53,804.89"/>
<path d="M1415.76,675.62,1297.48,570.78"/>
<path d="M49.42,1495.10,233.73,1458.73"/>
<path d="M49.42,1495.10,98.71,1572.01"/>
<path d="M49.42,1495.10,124.97,1355.06"/>
<path d="M263.06,961.74,392.93,990.15"/>
<path d="M263.06,961.74,214.17,972.46"/>
<path d="M263.06,961.74,391.27,947.26"/>
<path d="M263.06,961.74,273.40,916.93"/>
<path d="M263.06,961.74,297.47,1160.23"/>
<path d="M702.18,1249.04,667.45,1356.85"/>
<path d="M702.18,1249.04,629.89,1322.32"/>
<path d="M702.18,1249.04,731.25,1103.11"/>
<path d="M702.18,1249.04,822.84,1206.61"/>
<path d="M702.18,1249.04,813.34,1377.18"/>
<path d="M1199.23,607.05,1152.91,718.10"/>
<path d="M1199.23,607.05,1259.65,622.43"/>
<path d="M1199.23,607.05,1210.86,548.33"/>
<path d="M1199.23,607.05,1113.47,603.93"/>
<path d="M413.93,1363.56,327.54,1346.67"/>
<path d="M413.93,1363.56,353.55,1431.58"/>
<path d="M413.93,1363.56,497.71,1373.38"/>
<path d="M1624.49,1069.68,1722.96,1154.45"/>
<path d="M1624.49,1069.68,1675.73,1194.74"/>
<path d="M1624.49,1069.68,1756.67,1043.11"/>
<path d="M1624.49,1069.68,1576.14,1010.55"/>
<path d="M1221.38,1643.67,1331.55,1662.11"/>
<path d="M1221.38,1643.67,1266.82,1557.41"/>
<path d="M1221.38,1643.67,1146.64,1613.30"/>
<path d="M1221.38,1643.67,1123.39,1689.29"/>
<path d="M1221.38,1643.67,1233.39,1796.00"/>
<path d="M1784.76,764.12,1742.71,864.58"/>
<path d="M1784.76,764.12,1789.99,610.85"/>
<path d="M1784.76,764.12,1723.73,610.44"/>
<path d="M1784.76,764.12,1680.41,726.00"/>
<path d="M385.92,864.99,353.36,894.46"/>
<path d="M385.92,864.99,470.10,896.14"/>
<path d="M385.92,864.99,393.07,781.65"/>
<path d="M1752.03,429.40,1765.65,484.90"/>
<path d="M1752.03,429.40,1795.24,471.16"/>
<path d="M1752.03,429.40,1683.08,359.62"/>
<path d="M1752.03,429.40,1782.84,413.16"/>
<path d="M1214.52,1063.53,1298.64,1134.40"/>
<path d="M1214.52,1063.53,1168.32,1132.14"/>
<path d="M1214.52,1063.53,1319.84,1085.36"/>
<path d="M1214.52,1063.53,1166.47,1047.48"/>
<path d="M1214.52,1063.53,1216.36,963.08"/>
<path d="M382.91,22.36,426.47,106.80"/>
<path d="M382.91,22.36,276.25,86.06"/>
<path d="M1244.82,362.28,1356.68,360.83"/>
<path d="M1244.82,362.28,1260.57,474.15"/>
<path d="M1244.82,362.28,1256.85,318.39"/>
<path d="M1244.82,362.28,1167.28,309.18"/>
<path d="M1244.82,362.28,1119.32,472.27"/>
<path d="M1416.70,1259.10,1442.37,1315.86"/>
<path d="M1416.70,1259.10,1455.25,1114.66"/>
<path d="M1416.70,1259.10,1312.66,1156.61"/>
<path d="M1039.69,1107.43,1008.99,1119.65"/>
<path d="M1039.69,1107.43,1124.69,1032.99"/>
<path d="M1039.69,1107.43,1096.35,1152.72"/>
<path d="M81.22,277.11,37.11,192.94"/>
<path d="M81.22,277.11,14.91,282.30"/>
<path d="M81.22,277.11,89.14,352.91"/>
<path d="M667.45,1356.85,629.89,1322.32"/>
<path d="M667.45,1356.85,698.39,1382.57"/>
<path d="M667.45,1356.85,588.21,1484.52"/>
<path d="M223.04,1144.13,297.47,1160.23"/>
<path d="M222.72,166.26,196.62,187.79"/>
<path d="M222.72,166.26,158.89,91.53"/>
<path d="M222.72,166.26,265.20,184.15"/>
<path d="M222.72,166.26,276.25,86.06"/>
<path d="M1403.90,37.64,1298.95,43.61"/>
<path d="M1403.90,37.64,1530.92,144.35"/>
<path d="M1403.90,37.64,1321.84,157.59"/>
<path d="M1403.90,37.64,1429.97,12.74"/>
<path d="M1403.90,37.64,1440.86,227.74"/>
<path d="M1356.68,360.83,1260.57,474.15"/>
<path d="M1356.68,360.83,1256.85,318.39"/>
<path d="M1356.68,360.83,1431.89,393.61"/>
<path d="M1204.08,833.40,1126.20,854.26"/>
<path d="M1204.08,833.40,1117.18,768.85"/>
<path d="M1204.08,833.40,1333.35,836.70"/>
<path d="M1204.08,833.40,1266.00,714.28"/>
<path d="M1204.08,833.40,1216.36,963.08"/>
<path d="M100.12,851.11,149.28,790.09"/>
<path d="M100.12,851.11,190.82,926.02"/>
<path d="M100.12,851.11,53.84,834.44"/>
<path d="M1126.20,854.26,1117.18,768.85"/>
<path d="M1126.20,854.26,1054.86,892.50"/>
<path d="M1126.20,854.26,1216.36,963.08"/>
<path d="M663.19,842.11,706.36,743.13"/>
<path d="M663.19,842.11,584.92,754.27"/>
<path d="M663.19,842.11,634.43,915.80"/>
<path d="M663.19,842.11,775.53,828.14"/>
<path d="M1722.96,1154.45,1675.73,1194.74"/>
<path d="M1722.96,1154.45,1764.43,1225.46"/>
<path d="M1298.95,43.61,1281.11,133.20"/>
<path d="M1298.95,43.61,1149.15,53.84"/>
<path d="M949.30,800.37,923.97,759.71"/>
<path d="M949.30,800.37,955.38,874.09"/>
<path d="M949.30,800.37,911.40,801.98"/>
<path d="M949.30,800.37,980.69,782.56"/>
<path d="M992.74,576.67,1101.64,524.75"/>
<path d="M992.74,576.67,1065.04,492.53"/>
<path d="M624.39,284.80,633.37,166.92"/>
<path d="M624.39,284.80,751.75,386.73"/>
<path d="M624.39,284.80,693.67,226.13"/>
<path d="M624.39,284.80,476.21,232.42"/>
<path d="M624.39,284.80,516.46,391.96"/>
<path d="M706.36,743.13,745.55,673.24"/>
<path d="M706.36,743.13,584.92,754.27"/>
<path d="M706.36,743.13,782.44,713.20"/>
<path d="M706.36,743.13,601.59,597.63"/>
<path d="M706.36,743.13,775.53,828.14"/>
<path d="M1260.57,474.15,1119.32,472.27"/>
<path d="M1260.57,474.15,1210.86,548.33"/>
<path d="M1260.57,474.15,1297.48,570.78"/>
<path d="M1281.11,133.20,1223.89,209.52"/>
<path d="M1281.11,133.20,1321.84,157.59"/>
<path d="M629.89,1322.32,581.15,1300.84"/>
<path d="M58.59,520.80,140.04,595.19"/>
<path d="M58.59,520.80,57.21,379.29"/>
<path d="M58.59,520.80,116.43,618.73"/>
<path d="M58.59,520.80,219.97,481.99"/>
<path d="M58.59,520.80,155.65,406.51"/>
<path d="M58.59,520.80,10.44,653.78"/>
<path d="M37.11,192.94,14.91,282.30"/>
<path d="M37.11,192.94,158.89,91.53"/>
<path d="M1330.01,1732.81,1331.55,1662.11"/>
<path d="M1330.01,1732.81,1474.74,1739.99"/>
<path d="M1330.01,1732.81,1308.10,1788.92"/>
<path d="M140.04,595.19,116.43,618.73"/>
<path d="M140.04,595.19,224.08,553.67"/>
<path d="M958.78,1612.30,1096.30,1607.35"/>
<path d="M958.78,1612.30,956.67,1662.19"/>
<path d="M1675.73,1194.74,1677.99,1263.56"/>
<path d="M1675.73,1194.74,1764.43,1225.46"/>
<path d="M1256.85,318.39,1167.28,309.18"/>
<path d="M1256.85,318.39,1248.43,279.44"/>
<path d="M1223.89,209.52,1120.26,228.53"/>
<path d="M1223.89,209.52,1163.94,166.04"/>
<path d="M1223.89,209.52,1248.43,279.44"/>
<path d="M1684.36,584.03,1765.65,484.90"/>
<path d="M1684.36,584.03,1618.44,572.04"/>
<path d="M1684.36,584.03,1672.57,630.06"/>
<path d="M1684.36,584.03,1723.73,610.44"/>
<path d="M57.21,379.29,14.91,282.30"/>
<path d="M57.21,379.29,89.14,352.91"/>
<path d="M148.05,990.82,214.17,972.46"/>
<path d="M148.05,990.82,190.82,926.02"/>
<path d="M148.05,990.82,16.54,1160.43"/>
<path d="M1802.41,1731.29,1764.86,1742.65"/>
<path d="M766.84,2.98,787.77,96.06"/>
<path d="M766.84,2.98,725.10,81.63"/>
<path d="M766.84,2.98,898.70,13.09"/>
<path d="M1419.94,1594.16,1468.27,1628.14"/>
<path d="M1419.94,1594.16,1382.87,1580.67"/>
<path d="M1419.94,1594.16,1494.42,1560.65"/>
<path d="M339.28,460.64,314.45,422.21"/>
<path d="M339.28,460.64,340.88,512.38"/>
<path d="M339.28,460.64,349.99,418.56"/>
<path d="M116.43,618.73,149.28,790.09"/>
<path d="M116.43,618.73,10.44,653.78"/>
<path d="M240.81,27.12,199.88,13.22"/>
<path d="M240.81,27.12,276.25,86.06"/>
<path d="M149.28,790.09,10.44,653.78"/>
<path d="M149.28,790.09,351.56,760.30"/>
<path d="M392.93,990.15,391.27,947.26"/>
<path d="M392.93,990.15,392.75,1064.03"/>
<path d="M1634.50,236.69,1708.42,176.29"/>
<path d="M1634.50,236.69,1603.70,315.41"/>
<path d="M1634.50,236.69,1572.46,220.43"/>
<path d="M233.73,1458.73,256.41,1333.11"/>
<path d="M233.73,1458.73,353.55,1431.58"/>
<path d="M233.73,1458.73,98.71,1572.01"/>
<path d="M233.73,1458.73,124.97,1355.06"/>
<path d="M233.73,1458.73,319.22,1505.56"/>
<path d="M1764.34,193.03,1751.02,350.60"/>
<path d="M1764.34,193.03,1751.77,78.69"/>
<path d="M1764.34,193.03,1708.42,176.29"/>
<path d="M731.25,1103.11,785.02,1042.71"/>
<path d="M731.25,1103.11,636.82,1016.78"/>
<path d="M731.25,1103.11,841.44,1141.36"/>
<path d="M1751.02,350.60,1683.08,359.62"/>
<path d="M1751.02,350.60,1782.84,413.16"/>
<path d="M1347.24,1465.13,1364.88,1411.74"/>
<path d="M1347.24,1465.13,1308.98,1493.58"/>
<path d="M1347.24,1465.13,1410.20,1469.28"/>
<path d="M1347.24,1465.13,1382.87,1580.67"/>
<path d="M284.04,1691.44,266.56,1710.56"/>
<path d="M284.04,1691.44,367.05,1758.41"/>
<path d="M284.04,1691.44,341.42,1608.54"/>
<path d="M453.77,471.74,469.28,430.97"/>
<path d="M453.77,471.74,558.11,467.93"/>
<path d="M453.77,471.74,441.18,532.58"/>
<path d="M256.41,1333.11,124.97,1355.06"/>
<path d="M256.41,1333.11,303.29,1337.85"/>
<path d="M256.41,1333.11,134.72,1179.85"/>
<path d="M633.37,166.92,679.74,145.77"/>
<path d="M633.37,166.92,549.62,80.35"/>
<path d="M633.37,166.92,693.67,226.13"/>
<path d="M633.37,166.92,476.21,232.42"/>
<path d="M375.35,535.90,385.36,599.55"/>
<path d="M375.35,535.90,441.18,532.58"/>
<path d="M375.35,535.90,340.88,512.38"/>
<path d="M266.56,1710.56,89.58,1615.39"/>
<path d="M923.97,759.71,978.98,685.03"/>
<path d="M923.97,759.71,782.44,713.20"/>
<path d="M923.97,759.71,911.40,801.98"/>
<path d="M727.19,143.34,787.77,96.06"/>
<path d="M727.19,143.34,725.10,81.63"/>
<path d="M727.19,143.34,679.74,145.77"/>
<path d="M727.19,143.34,684.99,94.41"/>
<path d="M727.19,143.34,719.42,192.05"/>
<path d="M1756.67,1043.11,1742.71,864.58"/>
<path d="M1548.45,1448.89,1410.20,1469.28"/>
<path d="M1548.45,1448.89,1541.42,1420.70"/>
<path d="M1548.45,1448.89,1494.42,1560.65"/>
<path d="M1548.45,1448.89,1619.65,1430.80"/>
<path d="M1751.77,78.69,1757.29,3.90"/>
<path d="M1751.77,78.69,1708.42,176.29"/>
<path d="M1751.77,78.69,1675.40,101.30"/>
<path d="M745.55,673.24,845.61,506.45"/>
<path d="M745.55,673.24,782.44,713.20"/>
<path d="M745.55,673.24,601.59,597.63"/>
<path d="M1276.58,1163.07,1298.64,1134.40"/>
<path d="M1276.58,1163.07,1246.00,1185.73"/>
<path d="M1276.58,1163.07,1312.66,1156.61"/>
<path d="M1120.26,228.53,1021.29,246.71"/>
<path d="M1120.26,228.53,1167.28,309.18"/>
<path d="M1120.26,228.53,995.08,61.84"/>
<path d="M1120.26,228.53,1163.94,166.04"/>
<path d="M787.77,96.06,725.10,81.63"/>
<path d="M787.77,96.06,883.18,144.80"/>
<path d="M787.77,96.06,898.70,13.09"/>
<path d="M822.84,1206.61,813.34,1377.18"/>
<path d="M822.84,1206.61,888.43,1200.39"/>
<path d="M822.84,1206.61,841.44,1141.36"/>
<path d="M788.15,1584.70,765.99,1638.72"/>
<path d="M788.15,1584.70,685.55,1480.00"/>
<path d="M1364.88,1411.74,1172.07,1325.65"/>
<path d="M1364.88,1411.74,1410.20,1469.28"/>
<path d="M1364.88,1411.74,1407.93,1362.98"/>
<path d="M196.62,187.79,232.35,281.55"/>
<path d="M196.62,187.79,158.89,91.53"/>
<path d="M1514.17,1592.68,1512.22,1679.79"/>
<path d="M1514.17,1592.68,1468.27,1628.14"/>
<path d="M1514.17,1592.68,1494.42,1560.65"/>
<path d="M1514.17,1592.68,1580.20,1680.64"/>
<path d="M1535.86,1343.31,1442.37,1315.86"/>
<path d="M1535.86,1343.31,1576.11,1386.93"/>
<path d="M1628.74,651.85,1632.19,730.04"/>
<path d="M1628.74,651.85,1618.44,572.04"/>
<path d="M1628.74,651.85,1672.57,630.06"/>
<path d="M1628.74,651.85,1680.41,726.00"/>
<path d="M232.35,281.55,155.65,406.51"/>
<path d="M232.35,281.55,89.14,352.91"/>
<path d="M232.35,281.55,265.20,184.15"/>
<path d="M232.35,281.55,328.20,289.12"/>
<path d="M232.35,281.55,314.45,422.21"/>
<path d="M1579.50,76.03,1551.53,94.27"/>
<path d="M1579.50,76.03,1675.40,101.30"/>
<path d="M219.97,481.99,155.65,406.51"/>
<path d="M219.97,481.99,314.45,422.21"/>
<path d="M219.97,481.99,224.08,553.67"/>
<path d="M214.17,972.46,190.82,926.02"/>
<path d="M1143.49,12.15,1149.15,53.84"/>
<path d="M1143.49,12.15,1034.86,14.95"/>
<path d="M778.83,1672.96,765.99,1638.72"/>
<path d="M778.83,1672.96,930.86,1688.49"/>
<path d="M1172.07,1325.65,1308.98,1493.58"/>
<path d="M1172.07,1325.65,1083.70,1309.02"/>
<path d="M1172.07,1325.65,1170.15,1494.07"/>
<path d="M1172.07,1325.65,1078.96,1377.82"/>
<path d="M1172.07,1325.65,1169.81,1205.84"/>
<path d="M1298.64,1134.40,1319.84,1085.36"/>
<path d="M1298.64,1134.40,1312.66,1156.61"/>
<path d="M608.14,940.98,634.43,915.80"/>
<path d="M608.14,940.98,557.07,929.89"/>
<path d="M608.14,940.98,636.82,1016.78"/>
<path d="M199.88,13.22,158.89,91.53"/>
<path d="M1764.86,1742.65,1580.20,1680.64"/>
<path d="M1308.98,1493.58,1266.82,1557.41"/>
<path d="M982.16,398.21,985.64,333.80"/>
<path d="M982.16,398.21,927.38,425.93"/>
<path d="M982.16,398.21,1055.01,412.14"/>
<path d="M1246.00,1185.73,1168.32,1132.14"/>
<path d="M1246.00,1185.73,1169.81,1205.84"/>
<path d="M1021.29,246.71,985.64,333.80"/>
<path d="M1021.29,246.71,991.83,233.02"/>
<path d="M725.10,81.63,684.99,94.41"/>
<path d="M1765.65,484.90,1795.24,471.16"/>
<path d="M1765.65,484.90,1789.99,610.85"/>
<path d="M1765.65,484.90,1723.73,610.44"/>
<path d="M323.39,1233.56,319.03,1205.16"/>
<path d="M323.39,1233.56,303.29,1337.85"/>
<path d="M1622.28,856.05,1742.71,864.58"/>
<path d="M1622.28,856.05,1529.09,901.69"/>
<path d="M1622.28,856.05,1625.28,815.77"/>
<path d="M698.39,1382.57,685.55,1480.00"/>
<path d="M698.39,1382.57,813.34,1377.18"/>
<path d="M1506.51,1772.40,1474.74,1739.99"/>
<path d="M1506.51,1772.40,1552.25,1717.66"/>
<path d="M1331.55,1662.11,1266.82,1557.41"/>
<path d="M327.54,1346.67,353.55,1431.58"/>
<path d="M327.54,1346.67,303.29,1337.85"/>
<path d="M1117.18,768.85,1152.91,718.10"/>
<path d="M1117.18,768.85,1010.26,658.50"/>
<path d="M1117.18,768.85,980.69,782.56"/>
<path d="M845.61,506.45,879.60,450.00"/>
<path d="M845.61,506.45,746.15,425.23"/>
<path d="M353.36,894.46,391.27,947.26"/>
<path d="M353.36,894.46,273.40,916.93"/>
<path d="M1474.74,1739.99,1478.69,1686.57"/>
<path d="M1474.74,1739.99,1552.25,1717.66"/>
<path d="M1167.28,309.18,985.64,333.80"/>
<path d="M1167.28,309.18,1248.43,279.44"/>
<path d="M1478.69,1686.57,1512.22,1679.79"/>
<path d="M1478.69,1686.57,1468.27,1628.14"/>
<path d="M1512.22,1679.79,1468.27,1628.14"/>
<path d="M1512.22,1679.79,1552.25,1717.66"/>
<path d="M1512.22,1679.79,1580.20,1680.64"/>
<path d="M385.36,599.55,285.17,550.98"/>
<path d="M385.36,599.55,354.54,727.26"/>
<path d="M385.36,599.55,441.18,532.58"/>
<path d="M385.36,599.55,486.74,578.91"/>
<path d="M1576.14,1010.55,1521.49,1007.41"/>
<path d="M1576.14,1010.55,1529.09,901.69"/>
<path d="M1083.70,1309.02,1051.55,1366.10"/>
<path d="M1083.70,1309.02,1058.73,1287.66"/>
<path d="M1083.70,1309.02,1078.96,1377.82"/>
<path d="M1083.70,1309.02,1169.81,1205.84"/>
<path d="M158.89,91.53,276.25,86.06"/>
<path d="M971.89,1219.30,1058.73,1287.66"/>
<path d="M971.89,1219.30,922.61,1223.07"/>
<path d="M971.89,1219.30,1008.99,1119.65"/>
<path d="M971.89,1219.30,1096.35,1152.72"/>
<path d="M155.65,406.51,89.14,352.91"/>
<path d="M353.55,1431.58,366.37,1465.18"/>
<path d="M98.71,1572.01,89.58,1615.39"/>
<path d="M1632.19,730.04,1625.28,815.77"/>
<path d="M1632.19,730.04,1680.41,726.00"/>
<path d="M879.60,450.00,746.15,425.23"/>
<path d="M879.60,450.00,802.37,336.73"/>
<path d="M584.92,754.27,470.10,896.14"/>
<path d="M584.92,754.27,545.11,735.51"/>
<path d="M584.92,754.27,557.07,929.89"/>
<path d="M1549.07,769.36,1529.09,901.69"/>
<path d="M1549.07,769.36,1399.34,856.05"/>
<path d="M1549.07,769.36,1625.28,815.77"/>
<path d="M978.98,685.03,1010.26,658.50"/>
<path d="M978.98,685.03,980.69,782.56"/>
<path d="M1795.24,471.16,1782.84,413.16"/>
<path d="M510.70,1607.02,585.55,1678.62"/>
<path d="M510.70,1607.02,515.57,1537.54"/>
<path d="M510.70,1607.02,458.90,1602.30"/>
<path d="M285.17,550.98,340.88,512.38"/>
<path d="M285.17,550.98,224.08,553.67"/>
<path d="M1152.91,718.10,1010.26,658.50"/>
<path d="M1152.91,718.10,1266.00,714.28"/>
<path d="M1152.91,718.10,1113.47,603.93"/>
<path d="M852.26,1031.19,955.38,874.09"/>
<path d="M852.26,1031.19,794.35,923.52"/>
<path d="M852.26,1031.19,785.02,1042.71"/>
<path d="M1677.99,1263.56,1635.27,1365.91"/>
<path d="M1677.99,1263.56,1742.06,1322.83"/>
<path d="M1677.99,1263.56,1764.43,1225.46"/>
<path d="M883.18,144.80,995.08,61.84"/>
<path d="M883.18,144.80,875.25,308.82"/>
<path d="M883.18,144.80,991.83,233.02"/>
<path d="M883.18,144.80,898.70,13.09"/>
<path d="M955.38,874.09,794.35,923.52"/>
<path d="M955.38,874.09,1034.12,916.84"/>
<path d="M1742.71,864.58,1625.28,815.77"/>
<path d="M1742.71,864.58,1680.41,726.00"/>
<path d="M265.20,184.15,426.47,106.80"/>
<path d="M265.20,184.15,328.20,289.12"/>
<path d="M265.20,184.15,276.25,86.06"/>
<path d="M190.82,926.02,273.40,916.93"/>
<path d="M1410.20,1469.28,1382.87,1580.67"/>
<path d="M1410.20,1469.28,1541.42,1420.70"/>
<path d="M1410.20,1469.28,1494.42,1560.65"/>
<path d="M124.97,1355.06,36.76,1189.57"/>
<path d="M124.97,1355.06,134.72,1179.85"/>
<path d="M679.74,145.77,684.99,94.41"/>
<path d="M679.74,145.77,719.42,192.05"/>
<path d="M1781.64,1123.56,1764.43,1225.46"/>
<path d="M1051.55,1366.10,919.44,1450.79"/>
<path d="M1051.55,1366.10,1078.96,1377.82"/>
<path d="M1051.55,1366.10,926.16,1332.33"/>
<path d="M354.54,727.26,351.56,760.30"/>
<path d="M433.89,1108.18,581.15,1300.84"/>
<path d="M433.89,1108.18,319.03,1205.16"/>
<path d="M433.89,1108.18,392.75,1064.03"/>
<path d="M433.89,1108.18,636.82,1016.78"/>
<path d="M433.89,1108.18,297.47,1160.23"/>
<path d="M1058.73,1287.66,926.16,1332.33"/>
<path d="M1058.73,1287.66,1169.81,1205.84"/>
<path d="M1058.73,1287.66,1096.35,1152.72"/>
<path d="M1119.32,472.27,1101.64,524.75"/>
<path d="M1119.32,472.27,1210.86,548.33"/>
<path d="M1119.32,472.27,1065.04,492.53"/>
<path d="M1618.44,572.04,1672.57,630.06"/>
<path d="M794.35,923.52,634.43,915.80"/>
<path d="M794.35,923.52,785.02,1042.71"/>
<path d="M794.35,923.52,911.40,801.98"/>
<path d="M794.35,923.52,636.82,1016.78"/>
<path d="M794.35,923.52,775.53,828.14"/>
<path d="M1442.37,1315.86,1407.93,1362.98"/>
<path d="M751.75,386.73,746.15,425.23"/>
<path d="M751.75,386.73,802.37,336.73"/>
<path d="M1789.99,610.85,1723.73,610.44"/>
<path d="M782.44,713.20,775.53,828.14"/>
<path d="M1466.61,931.06,1521.49,1007.41"/>
<path d="M1466.61,931.06,1529.09,901.69"/>
<path d="M1466.61,931.06,1399.34,856.05"/>
<path d="M1466.61,931.06,1365.56,1033.59"/>
<path d="M985.64,333.80,929.30,313.62"/>
<path d="M426.47,106.80,328.20,289.12"/>
<path d="M426.47,106.80,549.62,80.35"/>
<path d="M426.47,106.80,476.21,232.42"/>
<path d="M426.47,106.80,276.25,86.06"/>
<path d="M1708.42,176.29,1675.40,101.30"/>
<path d="M36.76,1189.57,16.54,1160.43"/>
<path d="M36.76,1189.57,134.72,1179.85"/>
<path d="M367.05,1758.41,500.77,1777.03"/>
<path d="M367.05,1758.41,458.90,1602.30"/>
<path d="M1168.32,1132.14,1166.47,1047.48"/>
<path d="M1168.32,1132.14,1169.81,1205.84"/>
<path d="M1168.32,1132.14,1096.35,1152.72"/>
<path d="M391.27,947.26,470.10,896.14"/>
<path d="M995.08,61.84,1034.86,14.95"/>
<path d="M995.08,61.84,991.83,233.02"/>
<path d="M995.08,61.84,898.70,13.09"/>
<path d="M328.20,289.12,314.45,422.21"/>
<path d="M328.20,289.12,476.21,232.42"/>
<path d="M328.20,289.12,349.99,418.56"/>
<path d="M314.45,422.21,349.99,418.56"/>
<path d="M1521.49,1007.41,1529.09,901.69"/>
<path d="M1521.49,1007.41,1365.56,1033.59"/>
<path d="M1521.49,1007.41,1455.25,1114.66"/>
<path d="M1758.33,1383.47,1635.27,1365.91"/>
<path d="M1758.33,1383.47,1742.06,1322.83"/>
<path d="M1551.53,94.27,1530.92,144.35"/>
<path d="M1551.53,94.27,1429.97,12.74"/>
<path d="M470.10,896.14,545.11,735.51"/>
<path d="M470.10,896.14,557.07,929.89"/>
<path d="M585.55,1678.62,549.63,1722.84"/>
<path d="M585.55,1678.62,646.51,1748.42"/>
<path d="M929.30,313.62,927.38,425.93"/>
<path d="M929.30,313.62,875.25,308.82"/>
<path d="M929.30,313.62,991.83,233.02"/>
<path d="M1576.11,1386.93,1635.27,1365.91"/>
<path d="M1576.11,1386.93,1541.42,1420.70"/>
<path d="M1576.11,1386.93,1619.65,1430.80"/>
<path d="M500.77,1777.03,549.63,1722.84"/>
<path d="M588.21,1484.52,685.55,1480.00"/>
<path d="M409.75,1564.17,319.22,1505.56"/>
<path d="M409.75,1564.17,458.90,1602.30"/>
<path d="M409.75,1564.17,341.42,1608.54"/>
<path d="M409.75,1564.17,366.37,1465.18"/>
<path d="M601.59,597.63,558.11,467.93"/>
<path d="M601.59,597.63,545.11,735.51"/>
<path d="M601.59,597.63,486.74,578.91"/>
<path d="M601.59,597.63,746.15,425.23"/>
<path d="M53.84,834.44,10.44,653.78"/>
<path d="M1101.64,524.75,1210.86,548.33"/>
<path d="M1101.64,524.75,1065.04,492.53"/>
<path d="M1101.64,524.75,1113.47,603.93"/>
<path d="M1333.35,836.70,1399.34,856.05"/>
<path d="M1333.35,836.70,1343.53,804.89"/>
<path d="M1333.35,836.70,1216.36,963.08"/>
<path d="M922.61,1223.07,926.16,1332.33"/>
<path d="M922.61,1223.07,888.43,1200.39"/>
<path d="M469.28,430.97,558.11,467.93"/>
<path d="M469.28,430.97,516.46,391.96"/>
<path d="M1259.65,622.43,1266.00,714.28"/>
<path d="M1259.65,622.43,1297.48,570.78"/>
<path d="M1051.22,1769.05,930.86,1688.49"/>
<path d="M1051.22,1769.05,956.67,1662.19"/>
<path d="M1051.22,1769.05,1123.39,1689.29"/>
<path d="M1051.22,1769.05,1233.39,1796.00"/>
<path d="M558.11,467.93,486.74,578.91"/>
<path d="M558.11,467.93,746.15,425.23"/>
<path d="M558.11,467.93,516.46,391.96"/>
<path d="M1054.86,892.50,1034.12,916.84"/>
<path d="M1054.86,892.50,980.69,782.56"/>
<path d="M1635.27,1365.91,1742.06,1322.83"/>
<path d="M1635.27,1365.91,1619.65,1430.80"/>
<path d="M1467.53,271.90,1603.70,315.41"/>
<path d="M1467.53,271.90,1470.88,343.47"/>
<path d="M1467.53,271.90,1572.46,220.43"/>
<path d="M1467.53,271.90,1440.86,227.74"/>
<path d="M899.28,1167.60,1008.99,1119.65"/>
<path d="M899.28,1167.60,888.43,1200.39"/>
<path d="M899.28,1167.60,841.44,1141.36"/>
<path d="M549.62,80.35,684.99,94.41"/>
<path d="M549.62,80.35,476.21,232.42"/>
<path d="M1308.10,1788.92,1233.39,1796.00"/>
<path d="M319.03,1205.16,297.47,1160.23"/>
<path d="M785.02,1042.71,636.82,1016.78"/>
<path d="M785.02,1042.71,841.44,1141.36"/>
<path d="M1603.70,315.41,1470.88,343.47"/>
<path d="M1603.70,315.41,1572.46,220.43"/>
<path d="M1603.70,315.41,1683.08,359.62"/>
<path d="M319.22,1505.56,341.42,1608.54"/>
<path d="M319.22,1505.56,366.37,1465.18"/>
<path d="M1319.84,1085.36,1393.13,1092.29"/>
<path d="M1319.84,1085.36,1365.56,1033.59"/>
<path d="M1096.30,1607.35,1146.64,1613.30"/>
<path d="M1096.30,1607.35,1123.39,1689.29"/>
<path d="M515.57,1537.54,458.90,1602.30"/>
<path d="M393.07,781.65,545.11,735.51"/>
<path d="M393.07,781.65,351.56,760.30"/>
<path d="M1431.89,393.61,1470.88,343.47"/>
<path d="M721.24,237.38,802.37,336.73"/>
<path d="M721.24,237.38,693.67,226.13"/>
<path d="M721.24,237.38,719.42,192.05"/>
<path d="M1170.15,1494.07,1266.82,1557.41"/>
<path d="M1170.15,1494.07,1146.64,1613.30"/>
<path d="M1170.15,1494.07,1094.27,1490.14"/>
<path d="M1530.92,144.35,1559.68,162.02"/>
<path d="M1530.92,144.35,1440.86,227.74"/>
<path d="M441.18,532.58,486.74,578.91"/>
<path d="M1672.57,630.06,1723.73,610.44"/>
<path d="M1672.57,630.06,1680.41,726.00"/>
<path d="M1034.12,916.84,1124.69,1032.99"/>
<path d="M930.86,1688.49,956.67,1662.19"/>
<path d="M911.40,801.98,775.53,828.14"/>
<path d="M545.11,735.51,486.74,578.91"/>
<path d="M1407.93,1362.98,1541.42,1420.70"/>
<path d="M392.75,1064.03,297.47,1160.23"/>
<path d="M1399.34,856.05,1343.53,804.89"/>
<path d="M813.34,1377.18,919.44,1450.79"/>
<path d="M813.34,1377.18,926.16,1332.33"/>
<path d="M919.44,1450.79,926.16,1332.33"/>
<path d="M1210.86,548.33,1297.48,570.78"/>
<path d="M1146.64,1613.30,1123.39,1689.29"/>
<path d="M1572.46,220.43,1559.68,162.02"/>
<path d="M549.63,1722.84,646.51,1748.42"/>
<path d="M1742.06,1322.83,1764.43,1225.46"/>
<path d="M1393.13,1092.29,1365.56,1033.59"/>
<path d="M1393.13,1092.29,1455.25,1114.66"/>
<path d="M1365.56,1033.59,1216.36,963.08"/>
<path d="M1078.96,1377.82,1094.27,1490.14"/>
<path d="M802.37,336.73,875.25,308.82"/>
<path d="M1124.69,1032.99,1166.47,1047.48"/>
<path d="M1124.69,1032.99,1096.35,1152.72"/>
<path d="M1552.25,1717.66,1580.20,1680.64"/>
<path d="M956.67,1662.19,1123.39,1689.29"/>
<path d="M1166.47,1047.48,1216.36,963.08"/>
<path d="M1266.00,714.28,1343.53,804.89"/>
<path d="M693.67,226.13,719.42,192.05"/>
<path d="M476.21,232.42,516.46,391.96"/>
<path d="M1321.84,157.59,1440.86,227.74"/>
<path d="M1169.81,1205.84,1096.35,1152.72"/>
<path d="M1559.68,162.02,1675.40,101.30"/>
<path d="M1123.39,1689.29,1233.39,1796.00"/>
<circle cx="1054.58" cy="1533.93" r="10"/>
<text x="1054.58" y="1538.93">R0</text>
<circle cx="189.51" cy="1138.74" r="10"/>
<text x="189.51" y="1143.74">R1</text>
<circle cx="1562.54" cy="730.28" r="10"/>
<text x="1562.54" y="735.28">R2</text>
<circle cx="1749.58" cy="1530.37" r="10"/>
<text x="1749.58" y="1535.37">R3</text>
<circle cx="147.77" cy="210.74" r="10"/>
<text x="147.77" y="215.74">R4</text>
<circle cx="1422.86" cy="1661.91" r="10"/>
<text x="1422.86" y="1666.91">R5</text>
<circle cx="1026.60" cy="628.04" r="10"/>
<text x="1026.60" y="633.04">R6</text>
<circle cx="500.17" cy="1716.43" r="10"/>
<text x="500.17" y="1721.43">R7</text>
<circle cx="880.45" cy="1062.75" r="10"/>
<text x="880.45" y="1067.75">R8</text>
<circle cx="547.40" cy="1348.50" r="10"/>
<text x="547.40" y="1353.50">R9</text>
<circle cx="717.22" cy="1658.37" r="10"/>
<text x="717.22" y="1663.37">R10</text>
<circle cx="904.47" cy="462.53" r="10"/>
<text x="904.47" y="467.53">R11</text>
<circle cx="1520.88" cy="588.05" r="10"/>
<text x="1520.88" y="593.05">R12</text>
<circle cx="1183.78" cy="135.07" r="10"/>
<text x="1183.78" y="140.07">R13</text>
<circle cx="1750.97" cy="1118.09" r="10"/>
<text x="1750.97" y="1123.09">R14</text>
<circle cx="871.11" cy="1550.99" r="10"/>
<text x="871.11" y="1555.99">R15</text>
<circle cx="374.56" cy="425.14" r="10"/>
<text x="374.56" y="430.14">R16</text>
<circle cx="563.84" cy="1468.61" r="10"/>
<text x="563.84" y="1473.61">R17</text>
<circle cx="1077.87" cy="424.86" r="10"/>
<text x="1077.87" y="429.86">R18</text>
<circle cx="1358.05" cy="1586.14" r="10"/>
<text x="1358.05" y="1591.14">R19</text>
<circle cx="1415.76" cy="675.62" r="10"/>
<text x="1415.76" y="680.62">R20</text>
<circle cx="49.42" cy="1495.10" r="10"/>
<text x="49.42" y="1500.10">R21</text>
<circle cx="263.06" cy="961.74" r="10"/>
<text x="263.06" y="966.74">R22</text>
<circle cx="702.18" cy="1249.04" r="10"/>
<text x="702.18" y="1254.04">R23</text>
<circle cx="1199.23" cy="607.05" r="10"/>
<text x="1199.23" y="612.05">R24</text>
<circle cx="413.93" cy="1363.56" r="10"/>
<text x="413.93" y="1368.56">R25</text>
<circle cx="1624.49" cy="1069.68" r="10"/>
<text x="1624.49" y="1074.68">R26</text>
<circle cx="1221.38" cy="1643.67" r="10"/>
<text x="1221.38" y="1648.67">R27</text>
<circle cx="1784.76" cy="764.12" r="10"/>
<text x="1784.76" y="769.12">R28</text>
<circle cx="385.92" cy="864.99" r="10"/>
<text x="385.92" y="869.99">R29</text>
<circle cx="1752.03" cy="429.40" r="10"/>
<text x="1752.03" y="434.40">R30</text>
<circle cx="1214.52" cy="1063.53" r="10"/>
<text x="1214.52" y="1068.53">R31</text>
<circle cx="382.91" cy="22.36" r="10"/>
<text x="382.91" y="27.36">R32</text>
<circle cx="1244.82" cy="362.28" r="10"/>
<text x="1244.82" y="367.28">R33</text>
<circle cx="1416.70" cy="1259.10" r="10"/>
<text x="1416.70" y="1264.10">R34</text>
<circle cx="1039.69" cy="1107.43" r="10"/>
<text x="1039.69" y="1112.43">R35</text>
<circle cx="81.22" cy="277.11" r="10"/>
<text x="81.22" y="282.11">R36</text>
<circle cx="667.45" cy="1356.85" r="10"/>
<text x="667.45" y="1361.85">R37</text>
<circle cx="223.04" cy="1144.13" r="10"/>
<text x="223.04" y="1149.13">R38</text>
<circle cx="222.72" cy="166.26" r="10"/>
<text x="222.72" y="171.26">R39</text>
<circle cx="1403.90" cy="37.64" r="10"/>
<text x="1403.90" y="42.64">R40</text>
<circle cx="1356.68" cy="360.83" r="10"/>
<text x="1356.68" y="365.83">R41</text>
<circle cx="1204.08" cy="833.40" r="10"/>
<text x="1204.08" y="838.40">R42</text>
<circle cx="100.12" cy="851.11" r="10"/>
<text x="100.12" y="856.11">R43</text>
<circle cx="1126.20" cy="854.26" r="10"/>
<text x="1126.20" y="859.26">R44</text>
<circle cx="663.19" cy="842.11" r="10"/>
<text x="663.19" y="847.11">R45</text>
<circle cx="1722.96" cy="1154.45" r="10"/>
<text x="1722.96" y="1159.45">R46</text>
<circle cx="1298.95" cy="43.61" r="10"/>
<text x="1298.95" y="48.61">R47</text>
<circle cx="949.30" cy="800.37" r="10"/>
<text x="949.30" y="805.37">R48</text>
<circle cx="992.74" cy="576.67" r="10"/>
<text x="992.74" y="581.67">R49</text>
<circle cx="624.39" cy="284.80" r="10"/>
<text x="624.39" y="289.80">R50</text>
<circle cx="706.36" cy="743.13" r="10"/>
<text x="706.36" y="748.13">R51</text>
<circle cx="1260.57" cy="474.15" r="10"/>
<text x="1260.57" y="479.15">R52</text>
<circle cx="1281.11" cy="133.20" r="10"/>
<text x="1281.11" y="138.20">R53</text>
<circle cx="629.89" cy="1322.32" r="10"/>
<text x="629.89" y="1327.32">R54</text>
<circle cx="58.59" cy="520.80" r="10"/>
<text x="58.59" y="525.80">R55</text>
<circle cx="37.11" cy="192.94" r="10"/>
<text x="37.11" y="197.94">R56</text>
<circle cx="1330.01" cy="1732.81" r="10"/>
<text x="1330.01" y="1737.81">R57</text>
<circle cx="140.04" cy="595.19" r="10"/>
<text x="140.04" y="600.19">R58</text>
<circle cx="958.78" cy="1612.30" r="10"/>
<text x="958.78" y="1617.30">R59</text>
<circle cx="1675.73" cy="1194.74" r="10"/>
<text x="1675.73" y="1199.74">R60</text>
<circle cx="1256.85" cy="318.39" r="10"/>
<text x="1256.85" y="323.39">R61</text>
<circle cx="1223.89" cy="209.52" r="10"/>
<text x="1223.89" y="214.52">R62</text>
<circle cx="1684.36" cy="584.03" r="10"/>
<text x="1684.36" y="589.03">R63</text>
<circle cx="57.21" cy="379.29" r="10"/>
<text x="57.21" y="384.29">R64</text>
<circle cx="148.05" cy="990.82" r="10"/>
<text x="148.05" y="995.82">R65</text>
<circle cx="1802.41" cy="1731.29" r="10"/>
<text x="1802.41" y="1736.29">R66</text>
<circle cx="766.84" cy="2.98" r="10"/>
<text x="766.84" y="7.98">R67</text>
<circle cx="1419.94" cy="1594.16" r="10"/>
<text x="1419.94" y="1599.16">R68</text>
<circle cx="339.28" cy="460.64" r="10"/>
<text x="339.28" y="465.64">R69</text>
<circle cx="116.43" cy="618.73" r="10"/>
<text x="116.43" y="623.73">R70</text>
<circle cx="240.81" cy="27.12" r="10"/>
<text x="240.81" y="32.12">R71</text>
<circle cx="149.28" cy="790.09" r="10"/>
<text x="149.28" y="795.09">R72</text>
<circle cx="392.93" cy="990.15" r="10"/>
<text x="392.93" y="995.15">R73</text>
<circle cx="1634.50" cy="236.69" r="10"/>
<text x="1634.50" y="241.69">R74</text>
<circle cx="233.73" cy="1458.73" r="10"/>
<text x="233.73" y="1463.73">R75</text>
<circle cx="1764.34" cy="193.03" r="10"/>
<text x="1764.34" y="198.03">R76</text>
<circle cx="731.25" cy="1103.11" r="10"/>
<text x="731.25" y="1108.11">R77</text>
<circle cx="1751.02" cy="350.60" r="10"/>
<text x="1751.02" y="355.60">R78</text>
<circle cx="1347.24" cy="1465.13" r="10"/>
<text x="1347.24" y="1470.13">R79</text>
<circle cx="284.04" cy="1691.44" r="10"/>
<text x="284.04" y="1696.44">R80</text>
<circle cx="453.77" cy="471.74" r="10"/>
<text x="453.77" y="476.74">R81</text>
<circle cx="256.41" cy="1333.11" r="10"/>
<text x="256.41" y="1338.11">R82</text>
<circle cx="633.37" cy="166.92" r="10"/>
<text x="633.37" y="171.92">R83</text>
<circle cx="375.35" cy="535.90" r="10"/>
<text x="375.35" y="540.90">R84</text>
<circle cx="266.56" cy="1710.56" r="10"/>
<text x="266.56" y="1715.56">R85</text>
<circle cx="923.97" cy="759.71" r="10"/>
<text x="923.97" y="764.71">R86</text>
<circle cx="727.19" cy="143.34" r="10"/>
<text x="727.19" y="148.34">R87</text>
<circle cx="1756.67" cy="1043.11" r="10"/>
<text x="1756.67" y="1048.11">R88</text>
<circle cx="14.91" cy="282.30" r="10"/>
<text x="14.91" y="287.30">R89</text>
<circle cx="1548.45" cy="1448.89" r="10"/>
<text x="1548.45" y="1453.89">R90</text>
<circle cx="1751.77" cy="78.69" r="10"/>
<text x="1751.77" y="83.69">R91</text>
<circle cx="745.55" cy="673.24" r="10"/>
<text x="745.55" y="678.24">R92</text>
<circle cx="1276.58" cy="1163.07" r="10"/>
<text x="1276.58" y="1168.07">R93</text>
<circle cx="1120.26" cy="228.53" r="10"/>
<text x="1120.26" y="233.53">R94</text>
<circle cx="787.77" cy="96.06" r="10"/>
<text x="787.77" y="101.06">R95</text>
<circle cx="822.84" cy="1206.61" r="10"/>
<text x="822.84" y="1211.61">R96</text>
<circle cx="788.15" cy="1584.70" r="10"/>
<text x="788.15" y="1589.70">R97</text>
<circle cx="1364.88" cy="1411.74" r="10"/>
<text x="1364.88" y="1416.74">R98</text>
<circle cx="196.62" cy="187.79" r="10"/>
<text x="196.62" y="192.79">R99</text>
<circle cx="1514.17" cy="1592.68" r="10"/>
<text x="1514.17" y="1597.68">R100</text>
<circle cx="1535.86" cy="1343.31" r="10"/>
<text x="1535.86" y="1348.31">R101</text>
<circle cx="1628.74" cy="651.85" r="10"/>
<text x="1628.74" y="656.85">R102</text>
<circle cx="232.35" cy="281.55" r="10"/>
<text x="232.35" y="286.55">R103</text>
<circle cx="1579.50" cy="76.03" r="10"/>
<text x="1579.50" y="81.03">R104</text>
<circle cx="219.97" cy="481.99" r="10"/>
<text x="219.97" y="486.99">R105</text>
<circle cx="214.17" cy="972.46" r="10"/>
<text x="214.17" y="977.46">R106</text>
<circle cx="1143.49" cy="12.15" r="10"/>
<text x="1143.49" y="17.15">R107</text>
<circle cx="778.83" cy="1672.96" r="10"/>
<text x="778.83" y="1677.96">R108</text>
<circle cx="1172.07" cy="1325.65" r="10"/>
<text x="1172.07" y="1330.65">R109</text>
<circle cx="1298.64" cy="1134.40" r="10"/>
<text x="1298.64" y="1139.40">R110</text>
<circle cx="608.14" cy="940.98" r="10"/>
<text x="608.14" y="945.98">R111</text>
<circle cx="199.88" cy="13.22" r="10"/>
<text x="199.88" y="18.22">R112</text>
<circle cx="1764.86" cy="1742.65" r="10"/>
<text x="1764.86" y="1747.65">R113</text>
<circle cx="1308.98" cy="1493.58" r="10"/>
<text x="1308.98" y="1498.58">R114</text>
<circle cx="982.16" cy="398.21" r="10"/>
<text x="982.16" y="403.21">R115</text>
<circle cx="1246.00" cy="1185.73" r="10"/>
<text x="1246.00" y="1190.73">R116</text>
<circle cx="1021.29" cy="246.71" r="10"/>
<text x="1021.29" y="251.71">R117</text>
<circle cx="725.10" cy="81.63" r="10"/>
<text x="725.10" y="86.63">R118</text>
<circle cx="1765.65" cy="484.90" r="10"/>
<text x="1765.65" y="489.90">R119</text>
<circle cx="323.39" cy="1233.56" r="10"/>
<text x="323.39" y="1238.56">R120</text>
<circle cx="1622.28" cy="856.05" r="10"/>
<text x="1622.28" y="861.05">R121</text>
<circle cx="698.39" cy="1382.57" r="10"/>
<text x="698.39" y="1387.57">R122</text>
<circle cx="1506.51" cy="1772.40" r="10"/>
<text x="1506.51" y="1777.40">R123</text>
<circle cx="1331.55" cy="1662.11" r="10"/>
<text x="1331.55" y="1667.11">R124</text>
<circle cx="327.54" cy="1346.67" r="10"/>
<text x="327.54" y="1351.67">R125</text>
<circle cx="1117.18" cy="768.85" r="10"/>
<text x="1117.18" y="773.85">R126</text>
<circle cx="845.61" cy="506.45" r="10"/>
<text x="845.61" y="511.45">R127</text>
<circle cx="353.36" cy="894.46" r="10"/>
<text x="353.36" y="899.46">R128</text>
<circle cx="1474.74" cy="1739.99" r="10"/>
<text x="1474.74" y="1744.99">R129</text>
<circle cx="1167.28" cy="309.18" r="10"/>
<text x="1167.28" y="314.18">R130</text>
<circle cx="1478.69" cy="1686.57" r="10"/>
<text x="1478.69" y="1691.57">R131</text>
<circle cx="1512.22" cy="1679.79" r="10"/>
<text x="1512.22" y="1684.79">R132</text>
<circle cx="385.36" cy="599.55" r="10"/>
<text x="385.36" y="604.55">R133</text>
<circle cx="1576.14" cy="1010.55" r="10"/>
<text x="1576.14" y="1015.55">R134</text>
<circle cx="1083.70" cy="1309.02" r="10"/>
<text x="1083.70" y="1314.02">R135</text>
<circle cx="158.89" cy="91.53" r="10"/>
<text x="158.89" y="96.53">R136</text>
<circle cx="971.89" cy="1219.30" r="10"/>
<text x="971.89" y="1224.30">R137</text>
<circle cx="155.65" cy="406.51" r="10"/>
<text x="155.65" y="411.51">R138</text>
<circle cx="353.55" cy="1431.58" r="10"/>
<text x="353.55" y="1436.58">R139</text>
<circle cx="1757.29" cy="3.90" r="10"/>
<text x="1757.29" y="8.90">R140</text>
<circle cx="98.71" cy="1572.01" r="10"/>
<text x="98.71" y="1577.01">R141</text>
<circle cx="1632.19" cy="730.04" r="10"/>
<text x="1632.19" y="735.04">R142</text>
<circle cx="879.60" cy="450.00" r="10"/>
<text x="879.60" y="455.00">R143</text>
<circle cx="584.92" cy="754.27" r="10"/>
<text x="584.92" y="759.27">R144</text>
<circle cx="1549.07" cy="769.36" r="10"/>
<text x="1549.07" y="774.36">R145</text>
<circle cx="765.99" cy="1638.72" r="10"/>
<text x="765.99" y="1643.72">R146</text>
<circle cx="89.14" cy="352.91" r="10"/>
<text x="89.14" y="357.91">R147</text>
<circle cx="978.98" cy="685.03" r="10"/>
<text x="978.98" y="690.03">R148</text>
<circle cx="1795.24" cy="471.16" r="10"/>
<text x="1795.24" y="476.16">R149</text>
<circle cx="510.70" cy="1607.02" r="10"/>
<text x="510.70" y="1612.02">R150</text>
<circle cx="285.17" cy="550.98" r="10"/>
<text x="285.17" y="555.98">R151</text>
<circle cx="1152.91" cy="718.10" r="10"/>
<text x="1152.91" y="723.10">R152</text>
<circle cx="852.26" cy="1031.19" r="10"/>
<text x="852.26" y="1036.19">R153</text>
<circle cx="1677.99" cy="1263.56" r="10"/>
<text x="1677.99" y="1268.56">R154</text>
<circle cx="883.18" cy="144.80" r="10"/>
<text x="883.18" y="149.80">R155</text>
<circle cx="955.38" cy="874.09" r="10"/>
<text x="955.38" y="879.09">R156</text>
<circle cx="1742.71" cy="864.58" r="10"/>
<text x="1742.71" y="869.58">R157</text>
<circle cx="1149.15" cy="53.84" r="10"/>
<text x="1149.15" y="58.84">R158</text>
<circle cx="265.20" cy="184.15" r="10"/>
<text x="265.20" y="189.15">R159</text>
<circle cx="190.82" cy="926.02" r="10"/>
<text x="190.82" y="931.02">R160</text>
<circle cx="1410.20" cy="1469.28" r="10"/>
<text x="1410.20" y="1474.28">R161</text>
<circle cx="124.97" cy="1355.06" r="10"/>
<text x="124.97" y="1360.06">R162</text>
<circle cx="679.74" cy="145.77" r="10"/>
<text x="679.74" y="150.77">R163</text>
<circle cx="1781.64" cy="1123.56" r="10"/>
<text x="1781.64" y="1128.56">R164</text>
<circle cx="1051.55" cy="1366.10" r="10"/>
<text x="1051.55" y="1371.10">R165</text>
<circle cx="354.54" cy="727.26" r="10"/>
<text x="354.54" y="732.26">R166</text>
<circle cx="433.89" cy="1108.18" r="10"/>
<text x="433.89" y="1113.18">R167</text>
<circle cx="1058.73" cy="1287.66" r="10"/>
<text x="1058.73" y="1292.66">R168</text>
<circle cx="1119.32" cy="472.27" r="10"/>
<text x="1119.32" y="477.27">R169</text>
<circle cx="1618.44" cy="572.04" r="10"/>
<text x="1618.44" y="577.04">R170</text>
<circle cx="794.35" cy="923.52" r="10"/>
<text x="794.35" y="928.52">R171</text>
<circle cx="1442.37" cy="1315.86" r="10"/>
<text x="1442.37" y="1320.86">R172</text>
<circle cx="751.75" cy="386.73" r="10"/>
<text x="751.75" y="391.73">R173</text>
<circle cx="1789.99" cy="610.85" r="10"/>
<text x="1789.99" y="615.85">R174</text>
<circle cx="782.44" cy="713.20" r="10"/>
<text x="782.44" y="718.20">R175</text>
<circle cx="1466.61" cy="931.06" r="10"/>
<text x="1466.61" y="936.06">R176</text>
<circle cx="985.64" cy="333.80" r="10"/>
<text x="985.64" y="338.80">R177</text>
<circle cx="426.47" cy="106.80" r="10"/>
<text x="426.47" y="111.80">R178</text>
<circle cx="1708.42" cy="176.29" r="10"/>
<text x="1708.42" y="181.29">R179</text>
<circle cx="36.76" cy="1189.57" r="10"/>
<text x="36.76" y="1194.57">R180</text>
<circle cx="634.43" cy="915.80" r="10"/>
<text x="634.43" y="920.80">R181</text>
<circle cx="367.05" cy="1758.41" r="10"/>
<text x="367.05" y="1763.41">R182</text>
<circle cx="1168.32" cy="1132.14" r="10"/>
<text x="1168.32" y="1137.14">R183</text>
<circle cx="391.27" cy="947.26" r="10"/>
<text x="391.27" y="952.26">R184</text>
<circle cx="995.08" cy="61.84" r="10"/>
<text x="995.08" y="66.84">R185</text>
<circle cx="328.20" cy="289.12" r="10"/>
<text x="328.20" y="294.12">R186</text>
<circle cx="314.45" cy="422.21" r="10"/>
<text x="314.45" y="427.21">R187</text>
<circle cx="1521.49" cy="1007.41" r="10"/>
<text x="1521.49" y="1012.41">R188</text>
<circle cx="1758.33" cy="1383.47" r="10"/>
<text x="1758.33" y="1388.47">R189</text>
<circle cx="1551.53" cy="94.27" r="10"/>
<text x="1551.53" y="99.27">R190</text>
<circle cx="470.10" cy="896.14" r="10"/>
<text x="470.10" y="901.14">R191</text>
<circle cx="585.55" cy="1678.62" r="10"/>
<text x="585.55" y="1683.62">R192</text>
<circle cx="929.30" cy="313.62" r="10"/>
<text x="929.30" y="318.62">R193</text>
<circle cx="1529.09" cy="901.69" r="10"/>
<text x="1529.09" y="906.69">R194</text>
<circle cx="1576.11" cy="1386.93" r="10"/>
<text x="1576.11" y="1391.93">R195</text>
<circle cx="500.77" cy="1777.03" r="10"/>
<text x="500.77" y="1782.03">R196</text>
<circle cx="588.21" cy="1484.52" r="10"/>
<text x="588.21" y="1489.52">R197</text>
<circle cx="409.75" cy="1564.17" r="10"/>
<text x="409.75" y="1569.17">R198</text>
<circle cx="601.59" cy="597.63" r="10"/>
<text x="601.59" y="602.63">R199</text>
<circle cx="53.84" cy="834.44" r="10"/>
<text x="53.84" y="839.44">R200</text>
<circle cx="1468.27" cy="1628.14" r="10"/>
<text x="1468.27" y="1633.14">R201</text>
<circle cx="1101.64" cy="524.75" r="10"/>
<text x="1101.64" y="529.75">R202</text>
<circle cx="1333.35" cy="836.70" r="10"/>
<text x="1333.35" y="841.70">R203</text>
<circle cx="922.61" cy="1223.07" r="10"/>
<text x="922.61" y="1228.07">R204</text>
<circle cx="469.28" cy="430.97" r="10"/>
<text x="469.28" y="435.97">R205</text>
<circle cx="1259.65" cy="622.43" r="10"/>
<text x="1259.65" y="627.43">R206</text>
<circle cx="1051.22" cy="1769.05" r="10"/>
<text x="1051.22" y="1774.05">R207</text>
<circle cx="558.11" cy="467.93" r="10"/>
<text x="558.11" y="472.93">R208</text>
<circle cx="581.15" cy="1300.84" r="10"/>
<text x="581.15" y="1305.84">R209</text>
<circle cx="927.38" cy="425.93" r="10"/>
<text x="927.38" y="430.93">R210</text>
<circle cx="1054.86" cy="892.50" r="10"/>
<text x="1054.86" y="897.50">R211</text>
<circle cx="1635.27" cy="1365.91" r="10"/>
<text x="1635.27" y="1370.91">R212</text>
<circle cx="1467.53" cy="271.90" r="10"/>
<text x="1467.53" y="276.90">R213</text>
<circle cx="899.28" cy="1167.60" r="10"/>
<text x="899.28" y="1172.60">R214</text>
<circle cx="273.40" cy="916.93" r="10"/>
<text x="273.40" y="921.93">R215</text>
<circle cx="549.62" cy="80.35" r="10"/>
<text x="549.62" y="85.35">R216</text>
<circle cx="1308.10" cy="1788.92" r="10"/>
<text x="1308.10" y="1793.92">R217</text>
<circle cx="319.03" cy="1205.16" r="10"/>
<text x="319.03" y="1210.16">R218</text>
<circle cx="785.02" cy="1042.71" r="10"/>
<text x="785.02" y="1047.71">R219</text>
<circle cx="1603.70" cy="315.41" r="10"/>
<text x="1603.70" y="320.41">R220</text>
<circle cx="319.22" cy="1505.56" r="10"/>
<text x="319.22" y="1510.56">R221</text>
<circle cx="1319.84" cy="1085.36" r="10"/>
<text x="1319.84" y="1090.36">R222</text>
<circle cx="1055.01" cy="412.14" r="10"/>
<text x="1055.01" y="417.14">R223</text>
<circle cx="1008.99" cy="1119.65" r="10"/>
<text x="1008.99" y="1124.65">R224</text>
<circle cx="1096.30" cy="1607.35" r="10"/>
<text x="1096.30" y="1612.35">R225</text>
<circle cx="515.57" cy="1537.54" r="10"/>
<text x="515.57" y="1542.54">R226</text>
<circle cx="393.07" cy="781.65" r="10"/>
<text x="393.07" y="786.65">R227</text>
<circle cx="1431.89" cy="393.61" r="10"/>
<text x="1431.89" y="398.61">R228</text>
<circle cx="685.55" cy="1480.00" r="10"/>
<text x="685.55" y="1485.00">R229</text>
<circle cx="721.24" cy="237.38" r="10"/>
<text x="721.24" y="242.38">R230</text>
<circle cx="684.99" cy="94.41" r="10"/>
<text x="684.99" y="99.41">R231</text>
<circle cx="1170.15" cy="1494.07" r="10"/>
<text x="1170.15" y="1499.07">R232</text>
<circle cx="1530.92" cy="144.35" r="10"/>
<text x="1530.92" y="149.35">R233</text>
<circle cx="441.18" cy="532.58" r="10"/>
<text x="441.18" y="537.58">R234</text>
<circle cx="1672.57" cy="630.06" r="10"/>
<text x="1672.57" y="635.06">R235</text>
<circle cx="1034.12" cy="916.84" r="10"/>
<text x="1034.12" y="921.84">R236</text>
<circle cx="10.44" cy="653.78" r="10"/>
<text x="10.44" y="658.78">R237</text>
<circle cx="1382.87" cy="1580.67" r="10"/>
<text x="1382.87" y="1585.67">R238</text>
<circle cx="930.86" cy="1688.49" r="10"/>
<text x="930.86" y="1693.49">R239</text>
<circle cx="911.40" cy="801.98" r="10"/>
<text x="911.40" y="806.98">R240</text>
<circle cx="545.11" cy="735.51" r="10"/>
<text x="545.11" y="740.51">R241</text>
<circle cx="557.07" cy="929.89" r="10"/>
<text x="557.07" y="934.89">R242</text>
<circle cx="486.74" cy="578.91" r="10"/>
<text x="486.74" y="583.91">R243</text>
<circle cx="1723.73" cy="610.44" r="10"/>
<text x="1723.73" y="615.44">R244</text>
<circle cx="1407.93" cy="1362.98" r="10"/>
<text x="1407.93" y="1367.98">R245</text>
<circle cx="392.75" cy="1064.03" r="10"/>
<text x="392.75" y="1069.03">R246</text>
<circle cx="636.82" cy="1016.78" r="10"/>
<text x="636.82" y="1021.78">R247</text>
<circle cx="1399.34" cy="856.05" r="10"/>
<text x="1399.34" y="861.05">R248</text>
<circle cx="340.88" cy="512.38" r="10"/>
<text x="340.88" y="517.38">R249</text>
<circle cx="813.34" cy="1377.18" r="10"/>
<text x="813.34" y="1382.18">R250</text>
<circle cx="1625.28" cy="815.77" r="10"/>
<text x="1625.28" y="820.77">R251</text>
<circle cx="1470.88" cy="343.47" r="10"/>
<text x="1470.88" y="348.47">R252</text>
<circle cx="919.44" cy="1450.79" r="10"/>
<text x="919.44" y="1455.79">R253</text>
<circle cx="1266.82" cy="1557.41" r="10"/>
<text x="1266.82" y="1562.41">R254</text>
<circle cx="1210.86" cy="548.33" r="10"/>
<text x="1210.86" y="553.33">R255</text>
<circle cx="1146.64" cy="1613.30" r="10"/>
<text x="1146.64" y="1618.30">R256</text>
<circle cx="1572.46" cy="220.43" r="10"/>
<text x="1572.46" y="225.43">R257</text>
<circle cx="549.63" cy="1722.84" r="10"/>
<text x="549.63" y="1727.84">R258</text>
<circle cx="746.15" cy="425.23" r="10"/>
<text x="746.15" y="430.23">R259</text>
<circle cx="1742.06" cy="1322.83" r="10"/>
<text x="1742.06" y="1327.83">R260</text>
<circle cx="1393.13" cy="1092.29" r="10"/>
<text x="1393.13" y="1097.29">R261</text>
<circle cx="1365.56" cy="1033.59" r="10"/>
<text x="1365.56" y="1038.59">R262</text>
<circle cx="1455.25" cy="1114.66" r="10"/>
<text x="1455.25" y="1119.66">R263</text>
<circle cx="297.47" cy="1160.23" r="10"/>
<text x="297.47" y="1165.23">R264</text>
<circle cx="458.90" cy="1602.30" r="10"/>
<text x="458.90" y="1607.30">R265</text>
<circle cx="1078.96" cy="1377.82" r="10"/>
<text x="1078.96" y="1382.82">R266</text>
<circle cx="802.37" cy="336.73" r="10"/>
<text x="802.37" y="341.73">R267</text>
<circle cx="1124.69" cy="1032.99" r="10"/>
<text x="1124.69" y="1037.99">R268</text>
<circle cx="1552.25" cy="1717.66" r="10"/>
<text x="1552.25" y="1722.66">R269</text>
<circle cx="926.16" cy="1332.33" r="10"/>
<text x="926.16" y="1337.33">R270</text>
<circle cx="956.67" cy="1662.19" r="10"/>
<text x="956.67" y="1667.19">R271</text>
<circle cx="1166.47" cy="1047.48" r="10"/>
<text x="1166.47" y="1052.48">R272</text>
<circle cx="1034.86" cy="14.95" r="10"/>
<text x="1034.86" y="19.95">R273</text>
<circle cx="1680.41" cy="726.00" r="10"/>
<text x="1680.41" y="731.00">R274</text>
<circle cx="875.25" cy="308.82" r="10"/>
<text x="875.25" y="313.82">R275</text>
<circle cx="1683.08" cy="359.62" r="10"/>
<text x="1683.08" y="364.62">R276</text>
<circle cx="1010.26" cy="658.50" r="10"/>
<text x="1010.26" y="663.50">R277</text>
<circle cx="497.71" cy="1373.38" r="10"/>
<text x="497.71" y="1378.38">R278</text>
<circle cx="1312.66" cy="1156.61" r="10"/>
<text x="1312.66" y="1161.61">R279</text>
<circle cx="888.43" cy="1200.39" r="10"/>
<text x="888.43" y="1205.39">R280</text>
<circle cx="1266.00" cy="714.28" r="10"/>
<text x="1266.00" y="719.28">R281</text>
<circle cx="693.67" cy="226.13" r="10"/>
<text x="693.67" y="231.13">R282</text>
<circle cx="476.21" cy="232.42" r="10"/>
<text x="476.21" y="237.42">R283</text>
<circle cx="1321.84" cy="157.59" r="10"/>
<text x="1321.84" y="162.59">R284</text>
<circle cx="1541.42" cy="1420.70" r="10"/>
<text x="1541.42" y="1425.70">R285</text>
<circle cx="516.46" cy="391.96" r="10"/>
<text x="516.46" y="396.96">R286</text>
<circle cx="1163.94" cy="166.04" r="10"/>
<text x="1163.94" y="171.04">R287</text>
<circle cx="991.83" cy="233.02" r="10"/>
<text x="991.83" y="238.02">R288</text>
<circle cx="775.53" cy="828.14" r="10"/>
<text x="775.53" y="833.14">R289</text>
<circle cx="1494.42" cy="1560.65" r="10"/>
<text x="1494.42" y="1565.65">R290</text>
<circle cx="980.69" cy="782.56" r="10"/>
<text x="980.69" y="787.56">R291</text>
<circle cx="719.42" cy="192.05" r="10"/>
<text x="719.42" y="197.05">R292</text>
<circle cx="1764.43" cy="1225.46" r="10"/>
<text x="1764.43" y="1230.46">R293</text>
<circle cx="1248.43" cy="279.44" r="10"/>
<text x="1248.43" y="284.44">R294</text>
<circle cx="1065.04" cy="492.53" r="10"/>
<text x="1065.04" y="497.53">R295</text>
<circle cx="16.54" cy="1160.43" r="10"/>
<text x="16.54" y="1165.43">R296</text>
<circle cx="1169.81" cy="1205.84" r="10"/>
<text x="1169.81" y="1210.84">R297</text>
<circle cx="276.25" cy="86.06" r="10"/>
<text x="276.25" y="91.06">R298</text>
<circle cx="89.58" cy="1615.39" r="10"/>
<text x="89.58" y="1620.39">R299</text>
<circle cx="1343.53" cy="804.89" r="10"/>
<text x="1343.53" y="809.89">R300</text>
<circle cx="1782.84" cy="413.16" r="10"/>
<text x="1782.84" y="418.16">R301</text>
<circle cx="1559.68" cy="162.02" r="10"/>
<text x="1559.68" y="167.02">R302</text>
<circle cx="1580.20" cy="1680.64" r="10"/>
<text x="1580.20" y="1685.64">R303</text>
<circle cx="1675.40" cy="101.30" r="10"/>
<text x="1675.40" y="106.30">R304</text>
<circle cx="1297.48" cy="570.78" r="10"/>
<text x="1297.48" y="575.78">R305</text>
<circle cx="1096.35" cy="1152.72" r="10"/>
<text x="1096.35" y="1157.72">R306</text>
<circle cx="898.70" cy="13.09" r="10"/>
<text x="898.70" y="18.09">R307</text>
<circle cx="841.44" cy="1141.36" r="10"/>
<text x="841.44" y="1146.36">R308</text>
<circle cx="646.51" cy="1748.42" r="10"/>
<text x="646.51" y="1753.42">R309</text>
<circle cx="1429.97" cy="12.74" r="10"/>
<text x="1429.97" y="17.74">R310</text>
<circle cx="224.08" cy="553.67" r="10"/>
<text x="224.08" y="558.67">R311</text>
<circle cx="303.29" cy="1337.85" r="10"/>
<text x="303.29" y="1342.85">R312</text>
<circle cx="351.56" cy="760.30" r="10"/>
<text x="351.56" y="765.30">R313</text>
<circle cx="1094.27" cy="1490.14" r="10"/>
<text x="1094.27" y="1495.14">R314</text>
<circle cx="341.42" cy="1608.54" r="10"/>
<text x="341.42" y="1613.54">R315</text>
<circle cx="134.72" cy="1179.85" r="10"/>
<text x="134.72" y="1184.85">R316</text>
<circle cx="1123.39" cy="1689.29" r="10"/>
<text x="1123.39" y="1694.29">R317</text>
<circle cx="1233.39" cy="1796.00" r="10"/>
<text x="1233.39" y="1801.00">R318</text>
<circle cx="1216.36" cy="963.08" r="10"/>
<text x="1216.36" y="968.08">R319</text>
<circle cx="366.37" cy="1465.18" r="10"/>
<text x="366.37" y="1470.18">R320</text>
<circle cx="1113.47" cy="603.93" r="10"/>
<text x="1113.47" y="608.93">R321</text>
<circle cx="1619.65" cy="1430.80" r="10"/>
<text x="1619.65" y="1435.80">R322</text>
<circle cx="1440.86" cy="227.74" r="10"/>
<text x="1440.86" y="232.74">R323</text>
<circle cx="349.99" cy="418.56" r="10"/>
<text x="349.99" y="423.56">R324</text>
</svg>
