<svg width="1887.26" height="1888.45" viewBox="-43.05 -41.93 1887.26 1888.45" xmlns="http://www.w3.org/2000/svg">
<style>path {fill: none; stroke: grey; stroke-width: 6;} circle {fill: lightblue; stroke: none;} text {fill: black; stroke: none; font-size: 16; font-family: sans-serif; text-anchor:middle;}</style>
<path d="M1029.16,899.57,1042.23,1107.33"/>
<path d="M1029.16,899.57,829.72,845.62"/>
<path d="M1029.16,899.57,819.92,931.98"/>
<path d="M1029.16,899.57,936.43,1039.34"/>
<path d="M1029.16,899.57,1099.63,891.94"/>
<path d="M1148.94,1264.34,1232.89,1273.65"/>
<path d="M1148.94,1264.34,1088.00,1283.96"/>
<path d="M1148.94,1264.34,1194.02,1341.34"/>
<path d="M1148.94,1264.34,1114.77,1190.88"/>
<path d="M1765.84,1480.25,1799.21,1533.33"/>
<path d="M1765.84,1480.25,1599.23,1537.86"/>
<path d="M1765.84,1480.25,1774.07,1413.14"/>
<path d="M309.05,1513.65,285.38,1625.49"/>
<path d="M309.05,1513.65,152.67,1541.60"/>
<path d="M309.05,1513.65,365.28,1540.73"/>
<path d="M309.05,1513.65,314.81,1402.97"/>
<path d="M309.05,1513.65,183.88,1460.45"/>
<path d="M1223.93,1649.12,1152.14,1656.84"/>
<path d="M1223.93,1649.12,1270.24,1605.76"/>
<path d="M1223.93,1649.12,1262.44,1718.13"/>
<path d="M1223.93,1649.12,1178.16,1557.58"/>
<path d="M1298.53,1425.90,1380.72,1541.18"/>
<path d="M1298.53,1425.90,1270.24,1605.76"/>
<path d="M1298.53,1425.90,1261.45,1387.87"/>
<path d="M1298.53,1425.90,1439.29,1349.54"/>
<path d="M1298.53,1425.90,1217.08,1434.14"/>
<path d="M1298.53,1425.90,1394.29,1291.08"/>
<path d="M444.09,1573.90,419.52,1485.84"/>
<path d="M444.09,1573.90,415.62,1576.49"/>
<path d="M444.09,1573.90,466.48,1476.40"/>
<path d="M444.09,1573.90,468.28,1600.50"/>
<path d="M420.34,301.72,469.64,230.57"/>
<path d="M420.34,301.72,269.35,355.85"/>
<path d="M420.34,301.72,504.54,274.62"/>
<path d="M420.34,301.72,363.41,222.84"/>
<path d="M420.34,301.72,435.72,326.59"/>
<path d="M982.54,304.83,819.03,150.59"/>
<path d="M982.54,304.83,814.69,334.30"/>
<path d="M982.54,304.83,1054.93,265.49"/>
<path d="M982.54,304.83,976.52,418.41"/>
<path d="M1084.10,738.49,1039.56,592.15"/>
<path d="M1084.10,738.49,1156.35,655.89"/>
<path d="M1084.10,738.49,1143.29,753.49"/>
<path d="M1084.10,738.49,1099.63,891.94"/>
<path d="M1084.10,738.49,788.22,733.92"/>
<path d="M852.61,46.86,728.33,49.62"/>
<path d="M852.61,46.86,968.06,51.85"/>
<path d="M852.61,46.86,819.03,150.59"/>
<path d="M1340.93,442.75,1141.79,512.22"/>
<path d="M1340.93,442.75,1348.11,492.88"/>
<path d="M1340.93,442.75,1337.92,384.46"/>
<path d="M1457.25,932.20,1349.74,935.47"/>
<path d="M1457.25,932.20,1421.91,871.67"/>
<path d="M1457.25,932.20,1421.03,1066.50"/>
<path d="M1457.25,932.20,1489.79,925.32"/>
<path d="M772.30,1086.56,715.44,1076.60"/>
<path d="M772.30,1086.56,851.78,1119.34"/>
<path d="M772.30,1086.56,764.05,1155.26"/>
<path d="M772.30,1086.56,794.61,1004.96"/>
<path d="M1172.24,15.60,1141.35,33.89"/>
<path d="M1172.24,15.60,1249.39,61.95"/>
<path d="M1172.24,15.60,1212.95,121.09"/>
<path d="M728.33,49.62,819.03,150.59"/>
<path d="M728.33,49.62,653.09,94.53"/>
<path d="M1682.59,243.58,1759.67,11.19"/>
<path d="M1682.59,243.58,1579.46,219.12"/>
<path d="M1682.59,243.58,1684.75,388.88"/>
<path d="M1682.59,243.58,1623.89,369.93"/>
<path d="M1682.59,243.58,1735.30,259.22"/>
<path d="M1216.39,913.37,1306.53,936.11"/>
<path d="M1216.39,913.37,1225.56,880.94"/>
<path d="M1216.39,913.37,1099.63,891.94"/>
<path d="M1216.39,913.37,1101.82,1123.47"/>
<path d="M25.86,344.60,100.65,312.95"/>
<path d="M25.86,344.60,5.82,434.25"/>
<path d="M25.86,344.60,7.10,325.62"/>
<path d="M1042.23,1107.33,936.43,1039.34"/>
<path d="M1042.23,1107.33,988.78,1214.29"/>
<path d="M1042.23,1107.33,901.84,1127.36"/>
<path d="M1042.23,1107.33,1101.82,1123.47"/>
<path d="M579.19,1498.33,606.66,1461.08"/>
<path d="M579.19,1498.33,630.48,1600.81"/>
<path d="M579.19,1498.33,546.86,1499.87"/>
<path d="M1349.74,935.47,1421.91,871.67"/>
<path d="M1349.74,935.47,1338.74,868.82"/>
<path d="M1349.74,935.47,1306.53,936.11"/>
<path d="M1349.74,935.47,1319.34,986.47"/>
<path d="M352.58,1709.46,285.38,1625.49"/>
<path d="M352.58,1709.46,298.56,1793.71"/>
<path d="M352.58,1709.46,442.20,1678.68"/>
<path d="M352.58,1709.46,282.99,1715.13"/>
<path d="M352.58,1709.46,409.92,1755.82"/>
<path d="M1173.37,569.59,1141.79,512.22"/>
<path d="M1173.37,569.59,1039.56,592.15"/>
<path d="M1173.37,569.59,1246.75,628.83"/>
<path d="M1173.37,569.59,1224.02,651.01"/>
<path d="M1173.37,569.59,1156.35,655.89"/>
<path d="M21.24,1342.82,121.38,1393.73"/>
<path d="M21.24,1342.82,80.99,1434.00"/>
<path d="M21.24,1342.82,46.56,1141.60"/>
<path d="M21.24,1342.82,169.00,1177.43"/>
<path d="M1338.55,311.12,1352.35,348.47"/>
<path d="M1338.55,311.12,1391.31,242.92"/>
<path d="M1338.55,311.12,1253.38,266.31"/>
<path d="M617.38,1374.43,634.16,1442.65"/>
<path d="M617.38,1374.43,494.81,1296.48"/>
<path d="M617.38,1374.43,480.50,1344.40"/>
<path d="M617.38,1374.43,647.70,1343.08"/>
<path d="M321.11,492.33,269.35,355.85"/>
<path d="M321.11,492.33,393.76,458.63"/>
<path d="M321.11,492.33,311.24,594.40"/>
<path d="M424.09,1388.51,419.52,1485.84"/>
<path d="M424.09,1388.51,397.91,1379.41"/>
<path d="M424.09,1388.51,455.66,1367.60"/>
<path d="M424.09,1388.51,466.48,1476.40"/>
<path d="M1799.21,1533.33,1796.59,1735.53"/>
<path d="M469.64,230.57,504.54,274.62"/>
<path d="M469.64,230.57,445.38,30.92"/>
<path d="M469.64,230.57,363.41,222.84"/>
<path d="M1226.66,1401.85,1261.45,1387.87"/>
<path d="M1226.66,1401.85,1217.08,1434.14"/>
<path d="M1226.66,1401.85,1194.02,1341.34"/>
<path d="M829.72,845.62,819.92,931.98"/>
<path d="M829.72,845.62,772.17,780.07"/>
<path d="M829.72,845.62,677.07,872.51"/>
<path d="M1421.91,871.67,1526.32,877.53"/>
<path d="M1421.91,871.67,1338.74,868.82"/>
<path d="M1421.91,871.67,1485.40,773.73"/>
<path d="M1753.10,821.12,1739.59,986.73"/>
<path d="M1753.10,821.12,1782.31,665.37"/>
<path d="M1753.10,821.12,1695.80,812.27"/>
<path d="M1015.26,1498.31,993.97,1572.02"/>
<path d="M1015.26,1498.31,983.46,1478.26"/>
<path d="M1015.26,1498.31,1142.79,1432.60"/>
<path d="M1015.26,1498.31,1178.16,1557.58"/>
<path d="M1141.79,512.22,1039.56,592.15"/>
<path d="M1141.79,512.22,956.54,459.63"/>
<path d="M1141.79,512.22,1253.38,266.31"/>
<path d="M1141.79,512.22,976.52,418.41"/>
<path d="M827.81,1613.69,803.77,1644.19"/>
<path d="M827.81,1613.69,1008.33,1801.52"/>
<path d="M827.81,1613.69,890.07,1573.60"/>
<path d="M1652.92,4.01,1759.67,11.19"/>
<path d="M1652.92,4.01,1620.18,55.30"/>
<path d="M1052.60,1629.60,993.97,1572.02"/>
<path d="M1052.60,1629.60,1008.33,1801.52"/>
<path d="M1052.60,1629.60,1122.72,1619.80"/>
<path d="M667.01,630.71,722.84,573.25"/>
<path d="M667.01,630.71,724.99,676.91"/>
<path d="M667.01,630.71,588.19,657.83"/>
<path d="M667.01,630.71,667.44,572.38"/>
<path d="M185.57,1033.89,127.62,1086.86"/>
<path d="M185.57,1033.89,244.70,1156.54"/>
<path d="M185.57,1033.89,229.18,970.07"/>
<path d="M185.57,1033.89,271.90,1029.62"/>
<path d="M185.57,1033.89,71.87,937.10"/>
<path d="M202.61,1670.44,143.97,1643.56"/>
<path d="M202.61,1670.44,253.06,1637.56"/>
<path d="M202.61,1670.44,199.87,1707.71"/>
<path d="M697.88,388.62,764.28,359.18"/>
<path d="M697.88,388.62,571.13,401.34"/>
<path d="M697.88,388.62,696.53,361.51"/>
<path d="M697.88,388.62,715.78,495.22"/>
<path d="M1152.14,1656.84,1008.33,1801.52"/>
<path d="M1152.14,1656.84,1122.72,1619.80"/>
<path d="M1352.35,348.47,1403.48,353.77"/>
<path d="M1352.35,348.47,1337.92,384.46"/>
<path d="M419.52,1485.84,415.62,1576.49"/>
<path d="M419.52,1485.84,341.56,1396.81"/>
<path d="M419.52,1485.84,466.48,1476.40"/>
<path d="M419.52,1485.84,365.28,1540.73"/>
<path d="M1093.77,45.62,1012.14,65.64"/>
<path d="M1093.77,45.62,1141.35,33.89"/>
<path d="M1093.77,45.62,1111.39,167.40"/>
<path d="M1350.33,523.67,1348.11,492.88"/>
<path d="M1350.33,523.67,1246.75,628.83"/>
<path d="M1350.33,523.67,1376.04,566.04"/>
<path d="M1391.31,242.92,1407.15,176.62"/>
<path d="M1391.31,242.92,1414.31,257.64"/>
<path d="M1380.72,1541.18,1270.24,1605.76"/>
<path d="M1380.72,1541.18,1439.29,1349.54"/>
<path d="M1380.72,1541.18,1383.83,1662.87"/>
<path d="M1380.72,1541.18,1443.86,1541.39"/>
<path d="M1453.90,1117.48,1403.99,1255.17"/>
<path d="M1453.90,1117.48,1557.48,1156.84"/>
<path d="M1453.90,1117.48,1421.03,1066.50"/>
<path d="M269.35,355.85,393.76,458.63"/>
<path d="M269.35,355.85,363.41,222.84"/>
<path d="M269.35,355.85,235.28,317.84"/>
<path d="M657.37,1721.43,630.48,1600.81"/>
<path d="M657.37,1721.43,668.67,1781.56"/>
<path d="M657.37,1721.43,522.66,1794.13"/>
<path d="M657.37,1721.43,703.15,1712.38"/>
<path d="M143.97,1643.56,152.67,1541.60"/>
<path d="M143.97,1643.56,125.03,1677.98"/>
<path d="M881.40,1183.29,851.78,1119.34"/>
<path d="M881.40,1183.29,988.78,1214.29"/>
<path d="M881.40,1183.29,901.84,1127.36"/>
<path d="M881.40,1183.29,778.72,1285.53"/>
<path d="M881.40,1183.29,957.59,1277.69"/>
<path d="M881.40,1183.29,757.19,1236.70"/>
<path d="M337.86,199.02,261.63,224.55"/>
<path d="M337.86,199.02,244.22,112.57"/>
<path d="M337.86,199.02,445.38,30.92"/>
<path d="M337.86,199.02,363.41,222.84"/>
<path d="M1039.56,592.15,956.54,459.63"/>
<path d="M1039.56,592.15,1156.35,655.89"/>
<path d="M1039.56,592.15,788.22,733.92"/>
<path d="M993.97,1572.02,898.17,1508.08"/>
<path d="M993.97,1572.02,890.07,1573.60"/>
<path d="M1710.71,1238.71,1720.88,1208.06"/>
<path d="M1710.71,1238.71,1665.68,1289.57"/>
<path d="M415.62,1576.49,365.28,1540.73"/>
<path d="M621.39,162.32,613.74,196.16"/>
<path d="M621.39,162.32,653.09,94.53"/>
<path d="M621.39,162.32,445.38,30.92"/>
<path d="M613.74,196.16,672.04,216.09"/>
<path d="M613.74,196.16,565.25,284.75"/>
<path d="M588.79,341.51,644.30,297.79"/>
<path d="M588.79,341.51,565.25,284.75"/>
<path d="M588.79,341.51,571.13,401.34"/>
<path d="M588.79,341.51,542.50,344.64"/>
<path d="M634.16,1442.65,606.66,1461.08"/>
<path d="M31.48,511.41,37.74,684.59"/>
<path d="M31.48,511.41,5.82,434.25"/>
<path d="M31.48,511.41,129.11,655.47"/>
<path d="M31.48,511.41,184.10,585.30"/>
<path d="M500.71,712.93,554.72,619.35"/>
<path d="M500.71,712.93,570.76,807.01"/>
<path d="M500.71,712.93,388.02,693.58"/>
<path d="M500.71,712.93,460.12,808.64"/>
<path d="M500.71,712.93,588.19,657.83"/>
<path d="M1270.24,1605.76,1383.83,1662.87"/>
<path d="M1270.24,1605.76,1306.18,1715.51"/>
<path d="M1270.24,1605.76,1178.16,1557.58"/>
<path d="M1.95,1489.25,152.67,1541.60"/>
<path d="M1.95,1489.25,80.99,1434.00"/>
<path d="M1.95,1489.25,36.63,1691.72"/>
<path d="M1.95,1489.25,89.21,1676.03"/>
<path d="M968.06,51.85,1012.14,65.64"/>
<path d="M285.38,1625.49,253.06,1637.56"/>
<path d="M285.38,1625.49,282.99,1715.13"/>
<path d="M285.38,1625.49,365.28,1540.73"/>
<path d="M475.61,1090.63,530.15,1059.89"/>
<path d="M475.61,1090.63,508.44,1144.49"/>
<path d="M475.61,1090.63,554.60,1113.88"/>
<path d="M475.61,1090.63,426.54,1116.07"/>
<path d="M121.38,1393.73,80.99,1434.00"/>
<path d="M121.38,1393.73,165.41,1392.91"/>
<path d="M1599.23,1537.86,1692.95,1751.70"/>
<path d="M1599.23,1537.86,1628.18,1357.93"/>
<path d="M1599.23,1537.86,1527.34,1714.18"/>
<path d="M1599.23,1537.86,1483.25,1525.79"/>
<path d="M1414.79,1784.78,1441.70,1710.88"/>
<path d="M1414.79,1784.78,1374.89,1715.42"/>
<path d="M1414.79,1784.78,1572.15,1790.10"/>
<path d="M279.35,924.50,285.14,877.99"/>
<path d="M279.35,924.50,229.18,970.07"/>
<path d="M279.35,924.50,306.53,966.21"/>
<path d="M530.64,1525.90,518.49,1571.31"/>
<path d="M530.64,1525.90,546.86,1499.87"/>
<path d="M530.64,1525.90,466.48,1476.40"/>
<path d="M127.62,1086.86,91.87,1059.52"/>
<path d="M127.62,1086.86,46.56,1141.60"/>
<path d="M127.62,1086.86,169.00,1177.43"/>
<path d="M91.87,1059.52,46.56,1141.60"/>
<path d="M91.87,1059.52,71.87,937.10"/>
<path d="M1403.99,1255.17,1565.15,1244.52"/>
<path d="M1403.99,1255.17,1557.48,1156.84"/>
<path d="M1403.99,1255.17,1394.29,1291.08"/>
<path d="M672.04,216.09,644.30,297.79"/>
<path d="M672.04,216.09,738.20,241.82"/>
<path d="M554.72,619.35,588.19,657.83"/>
<path d="M554.72,619.35,592.71,570.37"/>
<path d="M554.72,619.35,459.15,472.03"/>
<path d="M393.76,458.63,463.45,345.00"/>
<path d="M393.76,458.63,459.15,472.03"/>
<path d="M721.64,935.88,819.92,931.98"/>
<path d="M721.64,935.88,677.07,872.51"/>
<path d="M721.64,935.88,711.33,996.65"/>
<path d="M721.64,935.88,794.61,1004.96"/>
<path d="M630.48,1600.81,540.55,1589.32"/>
<path d="M819.92,931.98,936.43,1039.34"/>
<path d="M819.92,931.98,794.61,1004.96"/>
<path d="M362.09,828.58,388.02,693.58"/>
<path d="M362.09,828.58,285.14,877.99"/>
<path d="M362.09,828.58,386.20,860.36"/>
<path d="M772.17,780.07,683.25,758.50"/>
<path d="M772.17,780.07,788.22,733.92"/>
<path d="M244.70,1156.54,221.04,1285.58"/>
<path d="M244.70,1156.54,169.00,1177.43"/>
<path d="M244.70,1156.54,271.90,1029.62"/>
<path d="M244.70,1156.54,271.55,1157.04"/>
<path d="M530.15,1059.89,641.16,1038.63"/>
<path d="M530.15,1059.89,593.59,969.01"/>
<path d="M530.15,1059.89,554.60,1113.88"/>
<path d="M747.27,1694.95,803.77,1644.19"/>
<path d="M747.27,1694.95,742.02,1725.97"/>
<path d="M747.27,1694.95,703.15,1712.38"/>
<path d="M1692.95,1751.70,1796.59,1735.53"/>
<path d="M1692.95,1751.70,1572.15,1790.10"/>
<path d="M508.44,1144.49,491.24,1166.75"/>
<path d="M508.44,1144.49,554.60,1113.88"/>
<path d="M956.54,459.63,784.79,386.53"/>
<path d="M956.54,459.63,976.52,418.41"/>
<path d="M956.54,459.63,767.63,531.94"/>
<path d="M1232.89,1273.65,1246.66,1296.25"/>
<path d="M1232.89,1273.65,1343.59,1005.44"/>
<path d="M1555.72,145.35,1407.15,176.62"/>
<path d="M1555.72,145.35,1620.18,55.30"/>
<path d="M1555.72,145.35,1472.82,53.69"/>
<path d="M1555.72,145.35,1579.46,219.12"/>
<path d="M1515.91,399.69,1526.36,508.28"/>
<path d="M1515.91,399.69,1505.76,255.38"/>
<path d="M1515.91,399.69,1623.89,369.93"/>
<path d="M1515.91,399.69,1403.48,353.77"/>
<path d="M1515.91,399.69,1481.71,506.31"/>
<path d="M100.65,312.95,26.56,292.18"/>
<path d="M100.65,312.95,122.96,365.00"/>
<path d="M100.65,312.95,63.83,179.67"/>
<path d="M1088.00,1283.96,1033.04,1238.38"/>
<path d="M1088.00,1283.96,1075.77,1310.40"/>
<path d="M1088.00,1283.96,1114.77,1190.88"/>
<path d="M911.82,1480.29,842.67,1365.16"/>
<path d="M911.82,1480.29,983.46,1478.26"/>
<path d="M911.82,1480.29,898.17,1508.08"/>
<path d="M803.77,1644.19,1008.33,1801.52"/>
<path d="M37.74,684.59,129.11,655.47"/>
<path d="M37.74,684.59,37.73,826.77"/>
<path d="M1348.11,492.88,1481.71,506.31"/>
<path d="M722.84,573.25,724.99,676.91"/>
<path d="M722.84,573.25,693.13,548.94"/>
<path d="M722.84,573.25,767.63,531.94"/>
<path d="M936.43,1039.34,901.84,1127.36"/>
<path d="M936.43,1039.34,794.61,1004.96"/>
<path d="M641.16,1038.63,686.31,1025.87"/>
<path d="M641.16,1038.63,554.60,1113.88"/>
<path d="M641.16,1038.63,637.60,1006.72"/>
<path d="M1246.75,628.83,1376.04,566.04"/>
<path d="M1246.75,628.83,1224.02,651.01"/>
<path d="M1720.88,1208.06,1635.96,1174.28"/>
<path d="M1012.14,65.64,1111.39,167.40"/>
<path d="M1441.70,1710.88,1383.83,1662.87"/>
<path d="M1441.70,1710.88,1527.34,1714.18"/>
<path d="M1441.70,1710.88,1374.89,1715.42"/>
<path d="M74.00,835.81,175.64,809.95"/>
<path d="M74.00,835.81,71.87,937.10"/>
<path d="M74.00,835.81,37.73,826.77"/>
<path d="M715.44,1076.60,686.31,1025.87"/>
<path d="M819.03,150.59,738.20,241.82"/>
<path d="M397.91,1379.41,341.56,1396.81"/>
<path d="M397.91,1379.41,359.54,1337.36"/>
<path d="M1407.15,176.62,1472.82,53.69"/>
<path d="M1407.15,176.62,1370.88,141.00"/>
<path d="M1261.45,1387.87,1246.66,1296.25"/>
<path d="M1261.45,1387.87,1394.29,1291.08"/>
<path d="M1526.32,877.53,1613.00,806.77"/>
<path d="M1526.32,877.53,1485.40,773.73"/>
<path d="M1526.32,877.53,1542.48,762.07"/>
<path d="M1526.32,877.53,1489.79,925.32"/>
<path d="M1526.32,877.53,1560.99,928.97"/>
<path d="M261.63,224.55,244.22,112.57"/>
<path d="M261.63,224.55,63.83,179.67"/>
<path d="M261.63,224.55,235.28,317.84"/>
<path d="M494.81,1296.48,480.50,1344.40"/>
<path d="M494.81,1296.48,635.77,1303.26"/>
<path d="M494.81,1296.48,495.03,1246.78"/>
<path d="M1338.74,868.82,1224.02,651.01"/>
<path d="M1338.74,868.82,1306.53,936.11"/>
<path d="M1338.74,868.82,1225.56,880.94"/>
<path d="M1141.35,33.89,1212.95,121.09"/>
<path d="M1666.18,1045.23,1649.23,1090.97"/>
<path d="M1666.18,1045.23,1560.99,928.97"/>
<path d="M1666.18,1045.23,1715.56,1036.71"/>
<path d="M152.67,1541.60,80.99,1434.00"/>
<path d="M152.67,1541.60,253.06,1637.56"/>
<path d="M152.67,1541.60,183.88,1460.45"/>
<path d="M742.02,1725.97,1008.33,1801.52"/>
<path d="M742.02,1725.97,703.15,1712.38"/>
<path d="M1759.67,11.19,1735.30,259.22"/>
<path d="M455.66,1367.60,480.50,1344.40"/>
<path d="M80.99,1434.00,183.88,1460.45"/>
<path d="M1249.39,61.95,1212.95,121.09"/>
<path d="M1249.39,61.95,1273.13,53.59"/>
<path d="M764.28,359.18,784.79,386.53"/>
<path d="M764.28,359.18,714.85,310.93"/>
<path d="M764.28,359.18,814.69,334.30"/>
<path d="M764.28,359.18,760.82,302.50"/>
<path d="M764.28,359.18,696.53,361.51"/>
<path d="M616.90,785.09,570.76,807.01"/>
<path d="M616.90,785.09,588.19,657.83"/>
<path d="M616.90,785.09,639.92,802.97"/>
<path d="M1033.04,1238.38,988.78,1214.29"/>
<path d="M1033.04,1238.38,957.59,1277.69"/>
<path d="M1033.04,1238.38,1114.77,1190.88"/>
<path d="M1439.29,1349.54,1565.15,1244.52"/>
<path d="M1439.29,1349.54,1394.29,1291.08"/>
<path d="M1439.29,1349.54,1628.18,1357.93"/>
<path d="M1439.29,1349.54,1483.25,1525.79"/>
<path d="M1620.18,55.30,1472.82,53.69"/>
<path d="M1526.36,508.28,1671.50,685.79"/>
<path d="M1526.36,508.28,1481.71,506.31"/>
<path d="M1383.83,1662.87,1443.86,1541.39"/>
<path d="M1383.83,1662.87,1374.89,1715.42"/>
<path d="M1111.39,167.40,1212.95,121.09"/>
<path d="M1111.39,167.40,1109.20,224.83"/>
<path d="M221.04,1285.58,169.00,1177.43"/>
<path d="M221.04,1285.58,165.41,1392.91"/>
<path d="M221.04,1285.58,314.81,1402.97"/>
<path d="M221.04,1285.58,336.88,1298.94"/>
<path d="M504.54,274.62,565.25,284.75"/>
<path d="M504.54,274.62,463.45,345.00"/>
<path d="M504.54,274.62,542.50,344.64"/>
<path d="M504.54,274.62,435.72,326.59"/>
<path d="M298.56,1793.71,282.99,1715.13"/>
<path d="M298.56,1793.71,409.92,1755.82"/>
<path d="M1613.00,806.77,1671.50,685.79"/>
<path d="M1613.00,806.77,1695.80,812.27"/>
<path d="M1613.00,806.77,1542.48,762.07"/>
<path d="M1472.82,53.69,1358.62,86.60"/>
<path d="M784.79,386.53,814.69,334.30"/>
<path d="M784.79,386.53,715.78,495.22"/>
<path d="M46.56,1141.60,169.00,1177.43"/>
<path d="M1565.15,1244.52,1557.48,1156.84"/>
<path d="M1565.15,1244.52,1665.68,1289.57"/>
<path d="M1565.15,1244.52,1635.96,1174.28"/>
<path d="M1565.15,1244.52,1628.18,1357.93"/>
<path d="M518.49,1571.31,468.28,1600.50"/>
<path d="M518.49,1571.31,540.55,1589.32"/>
<path d="M1253.38,266.31,1212.95,121.09"/>
<path d="M1253.38,266.31,1370.88,141.00"/>
<path d="M1253.38,266.31,1109.20,224.83"/>
<path d="M341.56,1396.81,314.81,1402.97"/>
<path d="M341.56,1396.81,359.54,1337.36"/>
<path d="M851.78,1119.34,764.05,1155.26"/>
<path d="M851.78,1119.34,901.84,1127.36"/>
<path d="M570.76,807.01,539.04,849.11"/>
<path d="M491.83,885.84,539.04,849.11"/>
<path d="M491.83,885.84,593.59,969.01"/>
<path d="M491.83,885.84,460.12,808.64"/>
<path d="M491.83,885.84,349.59,1060.58"/>
<path d="M491.83,885.84,386.20,860.36"/>
<path d="M388.02,693.58,460.12,808.64"/>
<path d="M388.02,693.58,163.91,712.90"/>
<path d="M388.02,693.58,311.24,594.40"/>
<path d="M1217.08,1434.14,1142.79,1432.60"/>
<path d="M1217.08,1434.14,1178.16,1557.58"/>
<path d="M1246.66,1296.25,1394.29,1291.08"/>
<path d="M1246.66,1296.25,1194.02,1341.34"/>
<path d="M714.85,310.93,644.30,297.79"/>
<path d="M714.85,310.93,760.82,302.50"/>
<path d="M714.85,310.93,738.20,241.82"/>
<path d="M714.85,310.93,696.53,361.51"/>
<path d="M442.20,1678.68,468.28,1600.50"/>
<path d="M442.20,1678.68,409.92,1755.82"/>
<path d="M253.06,1637.56,282.99,1715.13"/>
<path d="M1649.23,1090.97,1557.48,1156.84"/>
<path d="M1649.23,1090.97,1635.96,1174.28"/>
<path d="M491.24,1166.75,453.01,1222.99"/>
<path d="M491.24,1166.75,426.54,1116.07"/>
<path d="M491.24,1166.75,495.03,1246.78"/>
<path d="M162.13,3.07,244.22,112.57"/>
<path d="M162.13,3.07,275.18,54.57"/>
<path d="M162.13,3.07,82.17,69.71"/>
<path d="M175.64,809.95,209.32,861.81"/>
<path d="M175.64,809.95,163.91,712.90"/>
<path d="M644.30,297.79,565.25,284.75"/>
<path d="M644.30,297.79,696.53,361.51"/>
<path d="M1739.59,986.73,1715.56,1036.71"/>
<path d="M285.14,877.99,209.32,861.81"/>
<path d="M546.86,1499.87,466.48,1476.40"/>
<path d="M565.25,284.75,542.50,344.64"/>
<path d="M539.04,849.11,593.59,969.01"/>
<path d="M539.04,849.11,460.12,808.64"/>
<path d="M593.59,969.01,677.07,872.51"/>
<path d="M593.59,969.01,637.60,1006.72"/>
<path d="M814.69,334.30,760.82,302.50"/>
<path d="M814.69,334.30,976.52,418.41"/>
<path d="M842.67,1365.16,819.43,1346.14"/>
<path d="M842.67,1365.16,957.59,1277.69"/>
<path d="M1671.50,685.79,1782.31,665.37"/>
<path d="M1671.50,685.79,1684.75,388.88"/>
<path d="M1671.50,685.79,1695.80,812.27"/>
<path d="M1671.50,685.79,1535.75,736.74"/>
<path d="M1468.23,586.50,1376.04,566.04"/>
<path d="M1468.23,586.50,1470.93,714.28"/>
<path d="M1468.23,586.50,1481.71,506.31"/>
<path d="M244.22,112.57,275.18,54.57"/>
<path d="M244.22,112.57,82.17,69.71"/>
<path d="M244.22,112.57,63.83,179.67"/>
<path d="M26.56,292.18,63.83,179.67"/>
<path d="M26.56,292.18,7.10,325.62"/>
<path d="M571.13,401.34,592.71,570.37"/>
<path d="M571.13,401.34,459.15,472.03"/>
<path d="M571.13,401.34,542.50,344.64"/>
<path d="M677.07,872.51,673.35,789.82"/>
<path d="M677.07,872.51,639.92,802.97"/>
<path d="M460.12,808.64,386.20,860.36"/>
<path d="M1557.48,1156.84,1635.96,1174.28"/>
<path d="M282.99,1715.13,199.87,1707.71"/>
<path d="M26.94,1767.97,36.63,1691.72"/>
<path d="M1376.04,566.04,1481.71,506.31"/>
<path d="M463.45,345.00,459.15,472.03"/>
<path d="M463.45,345.00,542.50,344.64"/>
<path d="M463.45,345.00,435.72,326.59"/>
<path d="M1579.46,219.12,1568.83,249.82"/>
<path d="M229.18,970.07,209.32,861.81"/>
<path d="M229.18,970.07,271.90,1029.62"/>
<path d="M229.18,970.07,71.87,937.10"/>
<path d="M229.18,970.07,306.53,966.21"/>
<path d="M1306.18,1715.51,1262.44,1718.13"/>
<path d="M1306.18,1715.51,1374.89,1715.42"/>
<path d="M1224.02,651.01,1156.35,655.89"/>
<path d="M165.41,1392.91,314.81,1402.97"/>
<path d="M165.41,1392.91,183.88,1460.45"/>
<path d="M209.32,861.81,71.87,937.10"/>
<path d="M275.18,54.57,445.38,30.92"/>
<path d="M724.99,676.91,683.25,758.50"/>
<path d="M724.99,676.91,788.22,733.92"/>
<path d="M1485.40,773.73,1470.93,714.28"/>
<path d="M1485.40,773.73,1542.48,762.07"/>
<path d="M1485.40,773.73,1535.75,736.74"/>
<path d="M1765.08,320.70,1684.75,388.88"/>
<path d="M1765.08,320.70,1735.30,259.22"/>
<path d="M1470.93,714.28,1535.75,736.74"/>
<path d="M1421.03,1066.50,1343.59,1005.44"/>
<path d="M983.46,1478.26,1075.77,1310.40"/>
<path d="M983.46,1478.26,957.59,1277.69"/>
<path d="M199.87,1707.71,125.03,1677.98"/>
<path d="M898.17,1508.08,890.07,1573.60"/>
<path d="M1156.35,655.89,1143.29,753.49"/>
<path d="M129.11,655.47,184.10,585.30"/>
<path d="M129.11,655.47,162.16,676.00"/>
<path d="M1782.31,665.37,1684.75,388.88"/>
<path d="M588.19,657.83,683.25,758.50"/>
<path d="M271.90,1029.62,349.59,1060.58"/>
<path d="M271.90,1029.62,271.55,1157.04"/>
<path d="M271.90,1029.62,306.53,966.21"/>
<path d="M1505.76,255.38,1568.83,249.82"/>
<path d="M1505.76,255.38,1414.31,257.64"/>
<path d="M635.77,1303.26,554.60,1113.88"/>
<path d="M635.77,1303.26,675.07,1324.32"/>
<path d="M635.77,1303.26,647.70,1343.08"/>
<path d="M673.35,789.82,639.92,802.97"/>
<path d="M673.35,789.82,683.25,758.50"/>
<path d="M349.59,1060.58,271.55,1157.04"/>
<path d="M349.59,1060.58,306.53,966.21"/>
<path d="M349.59,1060.58,426.54,1116.07"/>
<path d="M1684.75,388.88,1623.89,369.93"/>
<path d="M1306.53,936.11,1225.56,880.94"/>
<path d="M1306.53,936.11,1319.34,986.47"/>
<path d="M1623.89,369.93,1568.83,249.82"/>
<path d="M453.01,1222.99,271.55,1157.04"/>
<path d="M453.01,1222.99,336.88,1298.94"/>
<path d="M453.01,1222.99,495.03,1246.78"/>
<path d="M10.16,854.99,71.87,937.10"/>
<path d="M10.16,854.99,37.73,826.77"/>
<path d="M1212.95,121.09,1370.88,141.00"/>
<path d="M1665.68,1289.57,1774.07,1413.14"/>
<path d="M1665.68,1289.57,1635.96,1174.28"/>
<path d="M1665.68,1289.57,1628.18,1357.93"/>
<path d="M667.44,572.38,592.71,570.37"/>
<path d="M667.44,572.38,693.13,548.94"/>
<path d="M1075.77,1310.40,1142.79,1432.60"/>
<path d="M1075.77,1310.40,1194.02,1341.34"/>
<path d="M271.55,1157.04,336.88,1298.94"/>
<path d="M1403.48,353.77,1414.31,257.64"/>
<path d="M1774.07,1413.14,1628.18,1357.93"/>
<path d="M686.31,1025.87,711.33,996.65"/>
<path d="M686.31,1025.87,637.60,1006.72"/>
<path d="M668.67,1781.56,522.66,1794.13"/>
<path d="M764.05,1155.26,757.19,1236.70"/>
<path d="M1054.93,265.49,1109.20,224.83"/>
<path d="M988.78,1214.29,901.84,1127.36"/>
<path d="M988.78,1214.29,957.59,1277.69"/>
<path d="M653.09,94.53,445.38,30.92"/>
<path d="M163.91,712.90,162.16,676.00"/>
<path d="M1358.62,86.60,1370.88,141.00"/>
<path d="M1358.62,86.60,1334.38,36.44"/>
<path d="M592.71,570.37,459.15,472.03"/>
<path d="M1142.79,1432.60,1194.02,1341.34"/>
<path d="M1142.79,1432.60,1178.16,1557.58"/>
<path d="M1542.48,762.07,1535.75,736.74"/>
<path d="M1343.59,1005.44,1319.34,986.47"/>
<path d="M1334.38,36.44,1273.13,53.59"/>
<path d="M125.03,1677.98,89.21,1676.03"/>
<path d="M386.20,860.36,306.53,966.21"/>
<path d="M1527.34,1714.18,1572.15,1790.10"/>
<path d="M1527.34,1714.18,1483.25,1525.79"/>
<path d="M710.60,1288.93,778.72,1285.53"/>
<path d="M710.60,1288.93,675.07,1324.32"/>
<path d="M710.60,1288.93,757.19,1236.70"/>
<path d="M184.10,585.30,122.96,365.00"/>
<path d="M184.10,585.30,311.24,594.40"/>
<path d="M184.10,585.30,162.16,676.00"/>
<path d="M1443.86,1541.39,1483.25,1525.79"/>
<path d="M1143.29,753.49,1225.56,880.94"/>
<path d="M1143.29,753.49,1099.63,891.94"/>
<path d="M819.43,1346.14,778.72,1285.53"/>
<path d="M760.82,302.50,738.20,241.82"/>
<path d="M693.13,548.94,715.78,495.22"/>
<path d="M409.92,1755.82,436.80,1769.20"/>
<path d="M1489.79,925.32,1560.99,928.97"/>
<path d="M82.17,69.71,63.83,179.67"/>
<path d="M82.17,69.71,16.80,29.65"/>
<path d="M522.66,1794.13,436.80,1769.20"/>
<path d="M711.33,996.65,794.61,1004.96"/>
<path d="M122.96,365.00,235.28,317.84"/>
<path d="M778.72,1285.53,757.19,1236.70"/>
<path d="M1122.72,1619.80,1178.16,1557.58"/>
<path d="M675.07,1324.32,647.70,1343.08"/>
<path d="M36.63,1691.72,89.21,1676.03"/>
<path d="M1114.77,1190.88,1101.82,1123.47"/>
<path d="M1319.34,986.47,1101.82,1123.47"/>
<path d="M314.81,1402.97,183.88,1460.45"/>
<path d="M336.88,1298.94,359.54,1337.36"/>
<path d="M767.63,531.94,715.78,495.22"/>
<circle cx="1029.16" cy="899.57" r="10"/>
<text x="1029.16" y="904.57">R0</text>
<circle cx="1148.94" cy="1264.34" r="10"/>
<text x="1148.94" y="1269.34">R1</text>
<circle cx="1765.84" cy="1480.25" r="10"/>
<text x="1765.84" y="1485.25">R2</text>
<circle cx="309.05" cy="1513.65" r="10"/>
<text x="309.05" y="1518.65">R3</text>
<circle cx="1223.93" cy="1649.12" r="10"/>
<text x="1223.93" y="1654.12">R4</text>
<circle cx="1298.53" cy="1425.90" r="10"/>
<text x="1298.53" y="1430.90">R5</text>
<circle cx="444.09" cy="1573.90" r="10"/>
<text x="444.09" y="1578.90">R6</text>
<circle cx="420.34" cy="301.72" r="10"/>
<text x="420.34" y="306.72">R7</text>
<circle cx="982.54" cy="304.83" r="10"/>
<text x="982.54" y="309.83">R8</text>
<circle cx="1084.10" cy="738.49" r="10"/>
<text x="1084.10" y="743.49">R9</text>
<circle cx="852.61" cy="46.86" r="10"/>
<text x="852.61" y="51.86">R10</text>
<circle cx="1340.93" cy="442.75" r="10"/>
<text x="1340.93" y="447.75">R11</text>
<circle cx="1457.25" cy="932.20" r="10"/>
<text x="1457.25" y="937.20">R12</text>
<circle cx="772.30" cy="1086.56" r="10"/>
<text x="772.30" y="1091.56">R13</text>
<circle cx="1172.24" cy="15.60" r="10"/>
<text x="1172.24" y="20.60">R14</text>
<circle cx="728.33" cy="49.62" r="10"/>
<text x="728.33" y="54.62">R15</text>
<circle cx="1682.59" cy="243.58" r="10"/>
<text x="1682.59" y="248.58">R16</text>
<circle cx="1216.39" cy="913.37" r="10"/>
<text x="1216.39" y="918.37">R17</text>
<circle cx="25.86" cy="344.60" r="10"/>
<text x="25.86" y="349.60">R18</text>
<circle cx="1042.23" cy="1107.33" r="10"/>
<text x="1042.23" y="1112.33">R19</text>
<circle cx="579.19" cy="1498.33" r="10"/>
<text x="579.19" y="1503.33">R20</text>
<circle cx="1349.74" cy="935.47" r="10"/>
<text x="1349.74" y="940.47">R21</text>
<circle cx="352.58" cy="1709.46" r="10"/>
<text x="352.58" y="1714.46">R22</text>
<circle cx="1173.37" cy="569.59" r="10"/>
<text x="1173.37" y="574.59">R23</text>
<circle cx="21.24" cy="1342.82" r="10"/>
<text x="21.24" y="1347.82">R24</text>
<circle cx="1338.55" cy="311.12" r="10"/>
<text x="1338.55" y="316.12">R25</text>
<circle cx="617.38" cy="1374.43" r="10"/>
<text x="617.38" y="1379.43">R26</text>
<circle cx="321.11" cy="492.33" r="10"/>
<text x="321.11" y="497.33">R27</text>
<circle cx="424.09" cy="1388.51" r="10"/>
<text x="424.09" y="1393.51">R28</text>
<circle cx="1799.21" cy="1533.33" r="10"/>
<text x="1799.21" y="1538.33">R29</text>
<circle cx="469.64" cy="230.57" r="10"/>
<text x="469.64" y="235.57">R30</text>
<circle cx="1226.66" cy="1401.85" r="10"/>
<text x="1226.66" y="1406.85">R31</text>
<circle cx="829.72" cy="845.62" r="10"/>
<text x="829.72" y="850.62">R32</text>
<circle cx="1421.91" cy="871.67" r="10"/>
<text x="1421.91" y="876.67">R33</text>
<circle cx="1753.10" cy="821.12" r="10"/>
<text x="1753.10" y="826.12">R34</text>
<circle cx="1015.26" cy="1498.31" r="10"/>
<text x="1015.26" y="1503.31">R35</text>
<circle cx="1141.79" cy="512.22" r="10"/>
<text x="1141.79" y="517.22">R36</text>
<circle cx="827.81" cy="1613.69" r="10"/>
<text x="827.81" y="1618.69">R37</text>
<circle cx="1652.92" cy="4.01" r="10"/>
<text x="1652.92" y="9.01">R38</text>
<circle cx="1052.60" cy="1629.60" r="10"/>
<text x="1052.60" y="1634.60">R39</text>
<circle cx="667.01" cy="630.71" r="10"/>
<text x="667.01" y="635.71">R40</text>
<circle cx="185.57" cy="1033.89" r="10"/>
<text x="185.57" y="1038.89">R41</text>
<circle cx="202.61" cy="1670.44" r="10"/>
<text x="202.61" y="1675.44">R42</text>
<circle cx="697.88" cy="388.62" r="10"/>
<text x="697.88" y="393.62">R43</text>
<circle cx="1152.14" cy="1656.84" r="10"/>
<text x="1152.14" y="1661.84">R44</text>
<circle cx="1352.35" cy="348.47" r="10"/>
<text x="1352.35" y="353.47">R45</text>
<circle cx="419.52" cy="1485.84" r="10"/>
<text x="419.52" y="1490.84">R46</text>
<circle cx="1093.77" cy="45.62" r="10"/>
<text x="1093.77" y="50.62">R47</text>
<circle cx="1350.33" cy="523.67" r="10"/>
<text x="1350.33" y="528.67">R48</text>
<circle cx="1391.31" cy="242.92" r="10"/>
<text x="1391.31" y="247.92">R49</text>
<circle cx="1380.72" cy="1541.18" r="10"/>
<text x="1380.72" y="1546.18">R50</text>
<circle cx="1453.90" cy="1117.48" r="10"/>
<text x="1453.90" y="1122.48">R51</text>
<circle cx="269.35" cy="355.85" r="10"/>
<text x="269.35" y="360.85">R52</text>
<circle cx="657.37" cy="1721.43" r="10"/>
<text x="657.37" y="1726.43">R53</text>
<circle cx="143.97" cy="1643.56" r="10"/>
<text x="143.97" y="1648.56">R54</text>
<circle cx="881.40" cy="1183.29" r="10"/>
<text x="881.40" y="1188.29">R55</text>
<circle cx="337.86" cy="199.02" r="10"/>
<text x="337.86" y="204.02">R56</text>
<circle cx="1039.56" cy="592.15" r="10"/>
<text x="1039.56" y="597.15">R57</text>
<circle cx="993.97" cy="1572.02" r="10"/>
<text x="993.97" y="1577.02">R58</text>
<circle cx="1710.71" cy="1238.71" r="10"/>
<text x="1710.71" y="1243.71">R59</text>
<circle cx="415.62" cy="1576.49" r="10"/>
<text x="415.62" y="1581.49">R60</text>
<circle cx="621.39" cy="162.32" r="10"/>
<text x="621.39" y="167.32">R61</text>
<circle cx="613.74" cy="196.16" r="10"/>
<text x="613.74" y="201.16">R62</text>
<circle cx="588.79" cy="341.51" r="10"/>
<text x="588.79" y="346.51">R63</text>
<circle cx="634.16" cy="1442.65" r="10"/>
<text x="634.16" y="1447.65">R64</text>
<circle cx="31.48" cy="511.41" r="10"/>
<text x="31.48" y="516.41">R65</text>
<circle cx="500.71" cy="712.93" r="10"/>
<text x="500.71" y="717.93">R66</text>
<circle cx="1270.24" cy="1605.76" r="10"/>
<text x="1270.24" y="1610.76">R67</text>
<circle cx="1.95" cy="1489.25" r="10"/>
<text x="1.95" y="1494.25">R68</text>
<circle cx="968.06" cy="51.85" r="10"/>
<text x="968.06" y="56.85">R69</text>
<circle cx="285.38" cy="1625.49" r="10"/>
<text x="285.38" y="1630.49">R70</text>
<circle cx="475.61" cy="1090.63" r="10"/>
<text x="475.61" y="1095.63">R71</text>
<circle cx="121.38" cy="1393.73" r="10"/>
<text x="121.38" y="1398.73">R72</text>
<circle cx="1599.23" cy="1537.86" r="10"/>
<text x="1599.23" y="1542.86">R73</text>
<circle cx="1414.79" cy="1784.78" r="10"/>
<text x="1414.79" y="1789.78">R74</text>
<circle cx="279.35" cy="924.50" r="10"/>
<text x="279.35" y="929.50">R75</text>
<circle cx="530.64" cy="1525.90" r="10"/>
<text x="530.64" y="1530.90">R76</text>
<circle cx="127.62" cy="1086.86" r="10"/>
<text x="127.62" y="1091.86">R77</text>
<circle cx="91.87" cy="1059.52" r="10"/>
<text x="91.87" y="1064.52">R78</text>
<circle cx="1403.99" cy="1255.17" r="10"/>
<text x="1403.99" y="1260.17">R79</text>
<circle cx="672.04" cy="216.09" r="10"/>
<text x="672.04" y="221.09">R80</text>
<circle cx="554.72" cy="619.35" r="10"/>
<text x="554.72" y="624.35">R81</text>
<circle cx="393.76" cy="458.63" r="10"/>
<text x="393.76" y="463.63">R82</text>
<circle cx="721.64" cy="935.88" r="10"/>
<text x="721.64" y="940.88">R83</text>
<circle cx="606.66" cy="1461.08" r="10"/>
<text x="606.66" y="1466.08">R84</text>
<circle cx="630.48" cy="1600.81" r="10"/>
<text x="630.48" y="1605.81">R85</text>
<circle cx="819.92" cy="931.98" r="10"/>
<text x="819.92" y="936.98">R86</text>
<circle cx="362.09" cy="828.58" r="10"/>
<text x="362.09" y="833.58">R87</text>
<circle cx="772.17" cy="780.07" r="10"/>
<text x="772.17" y="785.07">R88</text>
<circle cx="244.70" cy="1156.54" r="10"/>
<text x="244.70" y="1161.54">R89</text>
<circle cx="530.15" cy="1059.89" r="10"/>
<text x="530.15" y="1064.89">R90</text>
<circle cx="747.27" cy="1694.95" r="10"/>
<text x="747.27" y="1699.95">R91</text>
<circle cx="1692.95" cy="1751.70" r="10"/>
<text x="1692.95" y="1756.70">R92</text>
<circle cx="508.44" cy="1144.49" r="10"/>
<text x="508.44" y="1149.49">R93</text>
<circle cx="956.54" cy="459.63" r="10"/>
<text x="956.54" y="464.63">R94</text>
<circle cx="1232.89" cy="1273.65" r="10"/>
<text x="1232.89" y="1278.65">R95</text>
<circle cx="1555.72" cy="145.35" r="10"/>
<text x="1555.72" y="150.35">R96</text>
<circle cx="1515.91" cy="399.69" r="10"/>
<text x="1515.91" y="404.69">R97</text>
<circle cx="100.65" cy="312.95" r="10"/>
<text x="100.65" y="317.95">R98</text>
<circle cx="1088.00" cy="1283.96" r="10"/>
<text x="1088.00" y="1288.96">R99</text>
<circle cx="911.82" cy="1480.29" r="10"/>
<text x="911.82" y="1485.29">R100</text>
<circle cx="803.77" cy="1644.19" r="10"/>
<text x="803.77" y="1649.19">R101</text>
<circle cx="37.74" cy="684.59" r="10"/>
<text x="37.74" y="689.59">R102</text>
<circle cx="1348.11" cy="492.88" r="10"/>
<text x="1348.11" y="497.88">R103</text>
<circle cx="722.84" cy="573.25" r="10"/>
<text x="722.84" y="578.25">R104</text>
<circle cx="936.43" cy="1039.34" r="10"/>
<text x="936.43" y="1044.34">R105</text>
<circle cx="641.16" cy="1038.63" r="10"/>
<text x="641.16" y="1043.63">R106</text>
<circle cx="1246.75" cy="628.83" r="10"/>
<text x="1246.75" y="633.83">R107</text>
<circle cx="1720.88" cy="1208.06" r="10"/>
<text x="1720.88" y="1213.06">R108</text>
<circle cx="1012.14" cy="65.64" r="10"/>
<text x="1012.14" y="70.64">R109</text>
<circle cx="1441.70" cy="1710.88" r="10"/>
<text x="1441.70" y="1715.88">R110</text>
<circle cx="74.00" cy="835.81" r="10"/>
<text x="74.00" y="840.81">R111</text>
<circle cx="5.82" cy="434.25" r="10"/>
<text x="5.82" y="439.25">R112</text>
<circle cx="715.44" cy="1076.60" r="10"/>
<text x="715.44" y="1081.60">R113</text>
<circle cx="819.03" cy="150.59" r="10"/>
<text x="819.03" y="155.59">R114</text>
<circle cx="397.91" cy="1379.41" r="10"/>
<text x="397.91" y="1384.41">R115</text>
<circle cx="1407.15" cy="176.62" r="10"/>
<text x="1407.15" y="181.62">R116</text>
<circle cx="1261.45" cy="1387.87" r="10"/>
<text x="1261.45" y="1392.87">R117</text>
<circle cx="1526.32" cy="877.53" r="10"/>
<text x="1526.32" y="882.53">R118</text>
<circle cx="261.63" cy="224.55" r="10"/>
<text x="261.63" y="229.55">R119</text>
<circle cx="494.81" cy="1296.48" r="10"/>
<text x="494.81" y="1301.48">R120</text>
<circle cx="1338.74" cy="868.82" r="10"/>
<text x="1338.74" y="873.82">R121</text>
<circle cx="1141.35" cy="33.89" r="10"/>
<text x="1141.35" y="38.89">R122</text>
<circle cx="1666.18" cy="1045.23" r="10"/>
<text x="1666.18" y="1050.23">R123</text>
<circle cx="152.67" cy="1541.60" r="10"/>
<text x="152.67" y="1546.60">R124</text>
<circle cx="742.02" cy="1725.97" r="10"/>
<text x="742.02" y="1730.97">R125</text>
<circle cx="1759.67" cy="11.19" r="10"/>
<text x="1759.67" y="16.19">R126</text>
<circle cx="455.66" cy="1367.60" r="10"/>
<text x="455.66" y="1372.60">R127</text>
<circle cx="80.99" cy="1434.00" r="10"/>
<text x="80.99" y="1439.00">R128</text>
<circle cx="1249.39" cy="61.95" r="10"/>
<text x="1249.39" y="66.95">R129</text>
<circle cx="764.28" cy="359.18" r="10"/>
<text x="764.28" y="364.18">R130</text>
<circle cx="616.90" cy="785.09" r="10"/>
<text x="616.90" y="790.09">R131</text>
<circle cx="1033.04" cy="1238.38" r="10"/>
<text x="1033.04" y="1243.38">R132</text>
<circle cx="1439.29" cy="1349.54" r="10"/>
<text x="1439.29" y="1354.54">R133</text>
<circle cx="1620.18" cy="55.30" r="10"/>
<text x="1620.18" y="60.30">R134</text>
<circle cx="1526.36" cy="508.28" r="10"/>
<text x="1526.36" y="513.28">R135</text>
<circle cx="1383.83" cy="1662.87" r="10"/>
<text x="1383.83" y="1667.87">R136</text>
<circle cx="1111.39" cy="167.40" r="10"/>
<text x="1111.39" y="172.40">R137</text>
<circle cx="221.04" cy="1285.58" r="10"/>
<text x="221.04" y="1290.58">R138</text>
<circle cx="504.54" cy="274.62" r="10"/>
<text x="504.54" y="279.62">R139</text>
<circle cx="298.56" cy="1793.71" r="10"/>
<text x="298.56" y="1798.71">R140</text>
<circle cx="1613.00" cy="806.77" r="10"/>
<text x="1613.00" y="811.77">R141</text>
<circle cx="1472.82" cy="53.69" r="10"/>
<text x="1472.82" y="58.69">R142</text>
<circle cx="784.79" cy="386.53" r="10"/>
<text x="784.79" y="391.53">R143</text>
<circle cx="46.56" cy="1141.60" r="10"/>
<text x="46.56" y="1146.60">R144</text>
<circle cx="1565.15" cy="1244.52" r="10"/>
<text x="1565.15" y="1249.52">R145</text>
<circle cx="518.49" cy="1571.31" r="10"/>
<text x="518.49" y="1576.31">R146</text>
<circle cx="480.50" cy="1344.40" r="10"/>
<text x="480.50" y="1349.40">R147</text>
<circle cx="1253.38" cy="266.31" r="10"/>
<text x="1253.38" y="271.31">R148</text>
<circle cx="341.56" cy="1396.81" r="10"/>
<text x="341.56" y="1401.81">R149</text>
<circle cx="851.78" cy="1119.34" r="10"/>
<text x="851.78" y="1124.34">R150</text>
<circle cx="570.76" cy="807.01" r="10"/>
<text x="570.76" y="812.01">R151</text>
<circle cx="491.83" cy="885.84" r="10"/>
<text x="491.83" y="890.84">R152</text>
<circle cx="388.02" cy="693.58" r="10"/>
<text x="388.02" y="698.58">R153</text>
<circle cx="1217.08" cy="1434.14" r="10"/>
<text x="1217.08" y="1439.14">R154</text>
<circle cx="1246.66" cy="1296.25" r="10"/>
<text x="1246.66" y="1301.25">R155</text>
<circle cx="714.85" cy="310.93" r="10"/>
<text x="714.85" y="315.93">R156</text>
<circle cx="442.20" cy="1678.68" r="10"/>
<text x="442.20" y="1683.68">R157</text>
<circle cx="169.00" cy="1177.43" r="10"/>
<text x="169.00" y="1182.43">R158</text>
<circle cx="253.06" cy="1637.56" r="10"/>
<text x="253.06" y="1642.56">R159</text>
<circle cx="1649.23" cy="1090.97" r="10"/>
<text x="1649.23" y="1095.97">R160</text>
<circle cx="491.24" cy="1166.75" r="10"/>
<text x="491.24" y="1171.75">R161</text>
<circle cx="162.13" cy="3.07" r="10"/>
<text x="162.13" y="8.07">R162</text>
<circle cx="175.64" cy="809.95" r="10"/>
<text x="175.64" y="814.95">R163</text>
<circle cx="644.30" cy="297.79" r="10"/>
<text x="644.30" y="302.79">R164</text>
<circle cx="1739.59" cy="986.73" r="10"/>
<text x="1739.59" y="991.73">R165</text>
<circle cx="285.14" cy="877.99" r="10"/>
<text x="285.14" y="882.99">R166</text>
<circle cx="546.86" cy="1499.87" r="10"/>
<text x="546.86" y="1504.87">R167</text>
<circle cx="565.25" cy="284.75" r="10"/>
<text x="565.25" y="289.75">R168</text>
<circle cx="539.04" cy="849.11" r="10"/>
<text x="539.04" y="854.11">R169</text>
<circle cx="593.59" cy="969.01" r="10"/>
<text x="593.59" y="974.01">R170</text>
<circle cx="814.69" cy="334.30" r="10"/>
<text x="814.69" y="339.30">R171</text>
<circle cx="842.67" cy="1365.16" r="10"/>
<text x="842.67" y="1370.16">R172</text>
<circle cx="1671.50" cy="685.79" r="10"/>
<text x="1671.50" y="690.79">R173</text>
<circle cx="1468.23" cy="586.50" r="10"/>
<text x="1468.23" y="591.50">R174</text>
<circle cx="244.22" cy="112.57" r="10"/>
<text x="244.22" y="117.57">R175</text>
<circle cx="26.56" cy="292.18" r="10"/>
<text x="26.56" y="297.18">R176</text>
<circle cx="571.13" cy="401.34" r="10"/>
<text x="571.13" y="406.34">R177</text>
<circle cx="677.07" cy="872.51" r="10"/>
<text x="677.07" y="877.51">R178</text>
<circle cx="460.12" cy="808.64" r="10"/>
<text x="460.12" y="813.64">R179</text>
<circle cx="1557.48" cy="1156.84" r="10"/>
<text x="1557.48" y="1161.84">R180</text>
<circle cx="282.99" cy="1715.13" r="10"/>
<text x="282.99" y="1720.13">R181</text>
<circle cx="26.94" cy="1767.97" r="10"/>
<text x="26.94" y="1772.97">R182</text>
<circle cx="1376.04" cy="566.04" r="10"/>
<text x="1376.04" y="571.04">R183</text>
<circle cx="463.45" cy="345.00" r="10"/>
<text x="463.45" y="350.00">R184</text>
<circle cx="1579.46" cy="219.12" r="10"/>
<text x="1579.46" y="224.12">R185</text>
<circle cx="466.48" cy="1476.40" r="10"/>
<text x="466.48" y="1481.40">R186</text>
<circle cx="1394.29" cy="1291.08" r="10"/>
<text x="1394.29" y="1296.08">R187</text>
<circle cx="229.18" cy="970.07" r="10"/>
<text x="229.18" y="975.07">R188</text>
<circle cx="1306.18" cy="1715.51" r="10"/>
<text x="1306.18" y="1720.51">R189</text>
<circle cx="1224.02" cy="651.01" r="10"/>
<text x="1224.02" y="656.01">R190</text>
<circle cx="165.41" cy="1392.91" r="10"/>
<text x="165.41" y="1397.91">R191</text>
<circle cx="209.32" cy="861.81" r="10"/>
<text x="209.32" y="866.81">R192</text>
<circle cx="275.18" cy="54.57" r="10"/>
<text x="275.18" y="59.57">R193</text>
<circle cx="724.99" cy="676.91" r="10"/>
<text x="724.99" y="681.91">R194</text>
<circle cx="468.28" cy="1600.50" r="10"/>
<text x="468.28" y="1605.50">R195</text>
<circle cx="1485.40" cy="773.73" r="10"/>
<text x="1485.40" y="778.73">R196</text>
<circle cx="1765.08" cy="320.70" r="10"/>
<text x="1765.08" y="325.70">R197</text>
<circle cx="1470.93" cy="714.28" r="10"/>
<text x="1470.93" y="719.28">R198</text>
<circle cx="1421.03" cy="1066.50" r="10"/>
<text x="1421.03" y="1071.50">R199</text>
<circle cx="983.46" cy="1478.26" r="10"/>
<text x="983.46" y="1483.26">R200</text>
<circle cx="199.87" cy="1707.71" r="10"/>
<text x="199.87" y="1712.71">R201</text>
<circle cx="898.17" cy="1508.08" r="10"/>
<text x="898.17" y="1513.08">R202</text>
<circle cx="1156.35" cy="655.89" r="10"/>
<text x="1156.35" y="660.89">R203</text>
<circle cx="129.11" cy="655.47" r="10"/>
<text x="129.11" y="660.47">R204</text>
<circle cx="1782.31" cy="665.37" r="10"/>
<text x="1782.31" y="670.37">R205</text>
<circle cx="588.19" cy="657.83" r="10"/>
<text x="588.19" y="662.83">R206</text>
<circle cx="271.90" cy="1029.62" r="10"/>
<text x="271.90" y="1034.62">R207</text>
<circle cx="1796.59" cy="1735.53" r="10"/>
<text x="1796.59" y="1740.53">R208</text>
<circle cx="1505.76" cy="255.38" r="10"/>
<text x="1505.76" y="260.38">R209</text>
<circle cx="635.77" cy="1303.26" r="10"/>
<text x="635.77" y="1308.26">R210</text>
<circle cx="673.35" cy="789.82" r="10"/>
<text x="673.35" y="794.82">R211</text>
<circle cx="349.59" cy="1060.58" r="10"/>
<text x="349.59" y="1065.58">R212</text>
<circle cx="1684.75" cy="388.88" r="10"/>
<text x="1684.75" y="393.88">R213</text>
<circle cx="1306.53" cy="936.11" r="10"/>
<text x="1306.53" y="941.11">R214</text>
<circle cx="1623.89" cy="369.93" r="10"/>
<text x="1623.89" y="374.93">R215</text>
<circle cx="453.01" cy="1222.99" r="10"/>
<text x="453.01" y="1227.99">R216</text>
<circle cx="1695.80" cy="812.27" r="10"/>
<text x="1695.80" y="817.27">R217</text>
<circle cx="10.16" cy="854.99" r="10"/>
<text x="10.16" y="859.99">R218</text>
<circle cx="1212.95" cy="121.09" r="10"/>
<text x="1212.95" y="126.09">R219</text>
<circle cx="1665.68" cy="1289.57" r="10"/>
<text x="1665.68" y="1294.57">R220</text>
<circle cx="667.44" cy="572.38" r="10"/>
<text x="667.44" y="577.38">R221</text>
<circle cx="1075.77" cy="1310.40" r="10"/>
<text x="1075.77" y="1315.40">R222</text>
<circle cx="271.55" cy="1157.04" r="10"/>
<text x="271.55" y="1162.04">R223</text>
<circle cx="71.87" cy="937.10" r="10"/>
<text x="71.87" y="942.10">R224</text>
<circle cx="1403.48" cy="353.77" r="10"/>
<text x="1403.48" y="358.77">R225</text>
<circle cx="1774.07" cy="1413.14" r="10"/>
<text x="1774.07" y="1418.14">R226</text>
<circle cx="686.31" cy="1025.87" r="10"/>
<text x="686.31" y="1030.87">R227</text>
<circle cx="1635.96" cy="1174.28" r="10"/>
<text x="1635.96" y="1179.28">R228</text>
<circle cx="668.67" cy="1781.56" r="10"/>
<text x="668.67" y="1786.56">R229</text>
<circle cx="764.05" cy="1155.26" r="10"/>
<text x="764.05" y="1160.26">R230</text>
<circle cx="1628.18" cy="1357.93" r="10"/>
<text x="1628.18" y="1362.93">R231</text>
<circle cx="1054.93" cy="265.49" r="10"/>
<text x="1054.93" y="270.49">R232</text>
<circle cx="988.78" cy="1214.29" r="10"/>
<text x="988.78" y="1219.29">R233</text>
<circle cx="653.09" cy="94.53" r="10"/>
<text x="653.09" y="99.53">R234</text>
<circle cx="163.91" cy="712.90" r="10"/>
<text x="163.91" y="717.90">R235</text>
<circle cx="639.92" cy="802.97" r="10"/>
<text x="639.92" y="807.97">R236</text>
<circle cx="1358.62" cy="86.60" r="10"/>
<text x="1358.62" y="91.60">R237</text>
<circle cx="592.71" cy="570.37" r="10"/>
<text x="592.71" y="575.37">R238</text>
<circle cx="1568.83" cy="249.82" r="10"/>
<text x="1568.83" y="254.82">R239</text>
<circle cx="1142.79" cy="1432.60" r="10"/>
<text x="1142.79" y="1437.60">R240</text>
<circle cx="1542.48" cy="762.07" r="10"/>
<text x="1542.48" y="767.07">R241</text>
<circle cx="1343.59" cy="1005.44" r="10"/>
<text x="1343.59" y="1010.44">R242</text>
<circle cx="1370.88" cy="141.00" r="10"/>
<text x="1370.88" y="146.00">R243</text>
<circle cx="459.15" cy="472.03" r="10"/>
<text x="459.15" y="477.03">R244</text>
<circle cx="1334.38" cy="36.44" r="10"/>
<text x="1334.38" y="41.44">R245</text>
<circle cx="125.03" cy="1677.98" r="10"/>
<text x="125.03" y="1682.98">R246</text>
<circle cx="386.20" cy="860.36" r="10"/>
<text x="386.20" y="865.36">R247</text>
<circle cx="37.73" cy="826.77" r="10"/>
<text x="37.73" y="831.77">R248</text>
<circle cx="1527.34" cy="1714.18" r="10"/>
<text x="1527.34" y="1719.18">R249</text>
<circle cx="1337.92" cy="384.46" r="10"/>
<text x="1337.92" y="389.46">R250</text>
<circle cx="710.60" cy="1288.93" r="10"/>
<text x="710.60" y="1293.93">R251</text>
<circle cx="554.60" cy="1113.88" r="10"/>
<text x="554.60" y="1118.88">R252</text>
<circle cx="445.38" cy="30.92" r="10"/>
<text x="445.38" y="35.92">R253</text>
<circle cx="184.10" cy="585.30" r="10"/>
<text x="184.10" y="590.30">R254</text>
<circle cx="1481.71" cy="506.31" r="10"/>
<text x="1481.71" y="511.31">R255</text>
<circle cx="1262.44" cy="1718.13" r="10"/>
<text x="1262.44" y="1723.13">R256</text>
<circle cx="1443.86" cy="1541.39" r="10"/>
<text x="1443.86" y="1546.39">R257</text>
<circle cx="306.53" cy="966.21" r="10"/>
<text x="306.53" y="971.21">R258</text>
<circle cx="1273.13" cy="53.59" r="10"/>
<text x="1273.13" y="58.59">R259</text>
<circle cx="1535.75" cy="736.74" r="10"/>
<text x="1535.75" y="741.74">R260</text>
<circle cx="1143.29" cy="753.49" r="10"/>
<text x="1143.29" y="758.49">R261</text>
<circle cx="365.28" cy="1540.73" r="10"/>
<text x="365.28" y="1545.73">R262</text>
<circle cx="683.25" cy="758.50" r="10"/>
<text x="683.25" y="763.50">R263</text>
<circle cx="819.43" cy="1346.14" r="10"/>
<text x="819.43" y="1351.14">R264</text>
<circle cx="1225.56" cy="880.94" r="10"/>
<text x="1225.56" y="885.94">R265</text>
<circle cx="1008.33" cy="1801.52" r="10"/>
<text x="1008.33" y="1806.52">R266</text>
<circle cx="760.82" cy="302.50" r="10"/>
<text x="760.82" y="307.50">R267</text>
<circle cx="901.84" cy="1127.36" r="10"/>
<text x="901.84" y="1132.36">R268</text>
<circle cx="693.13" cy="548.94" r="10"/>
<text x="693.13" y="553.94">R269</text>
<circle cx="409.92" cy="1755.82" r="10"/>
<text x="409.92" y="1760.82">R270</text>
<circle cx="1489.79" cy="925.32" r="10"/>
<text x="1489.79" y="930.32">R271</text>
<circle cx="738.20" cy="241.82" r="10"/>
<text x="738.20" y="246.82">R272</text>
<circle cx="540.55" cy="1589.32" r="10"/>
<text x="540.55" y="1594.32">R273</text>
<circle cx="82.17" cy="69.71" r="10"/>
<text x="82.17" y="74.71">R274</text>
<circle cx="522.66" cy="1794.13" r="10"/>
<text x="522.66" y="1799.13">R275</text>
<circle cx="711.33" cy="996.65" r="10"/>
<text x="711.33" y="1001.65">R276</text>
<circle cx="703.15" cy="1712.38" r="10"/>
<text x="703.15" y="1717.38">R277</text>
<circle cx="122.96" cy="365.00" r="10"/>
<text x="122.96" y="370.00">R278</text>
<circle cx="426.54" cy="1116.07" r="10"/>
<text x="426.54" y="1121.07">R279</text>
<circle cx="311.24" cy="594.40" r="10"/>
<text x="311.24" y="599.40">R280</text>
<circle cx="63.83" cy="179.67" r="10"/>
<text x="63.83" y="184.67">R281</text>
<circle cx="794.61" cy="1004.96" r="10"/>
<text x="794.61" y="1009.96">R282</text>
<circle cx="778.72" cy="1285.53" r="10"/>
<text x="778.72" y="1290.53">R283</text>
<circle cx="1122.72" cy="1619.80" r="10"/>
<text x="1122.72" y="1624.80">R284</text>
<circle cx="637.60" cy="1006.72" r="10"/>
<text x="637.60" y="1011.72">R285</text>
<circle cx="957.59" cy="1277.69" r="10"/>
<text x="957.59" y="1282.69">R286</text>
<circle cx="1560.99" cy="928.97" r="10"/>
<text x="1560.99" y="933.97">R287</text>
<circle cx="1099.63" cy="891.94" r="10"/>
<text x="1099.63" y="896.94">R288</text>
<circle cx="675.07" cy="1324.32" r="10"/>
<text x="675.07" y="1329.32">R289</text>
<circle cx="36.63" cy="1691.72" r="10"/>
<text x="36.63" y="1696.72">R290</text>
<circle cx="1374.89" cy="1715.42" r="10"/>
<text x="1374.89" y="1720.42">R291</text>
<circle cx="976.52" cy="418.41" r="10"/>
<text x="976.52" y="423.41">R292</text>
<circle cx="1194.02" cy="1341.34" r="10"/>
<text x="1194.02" y="1346.34">R293</text>
<circle cx="1572.15" cy="1790.10" r="10"/>
<text x="1572.15" y="1795.10">R294</text>
<circle cx="1114.77" cy="1190.88" r="10"/>
<text x="1114.77" y="1195.88">R295</text>
<circle cx="1414.31" cy="257.64" r="10"/>
<text x="1414.31" y="262.64">R296</text>
<circle cx="1735.30" cy="259.22" r="10"/>
<text x="1735.30" y="264.22">R297</text>
<circle cx="89.21" cy="1676.03" r="10"/>
<text x="89.21" y="1681.03">R298</text>
<circle cx="1319.34" cy="986.47" r="10"/>
<text x="1319.34" y="991.47">R299</text>
<circle cx="314.81" cy="1402.97" r="10"/>
<text x="314.81" y="1407.97">R300</text>
<circle cx="1715.56" cy="1036.71" r="10"/>
<text x="1715.56" y="1041.71">R301</text>
<circle cx="16.80" cy="29.65" r="10"/>
<text x="16.80" y="34.65">R302</text>
<circle cx="890.07" cy="1573.60" r="10"/>
<text x="890.07" y="1578.60">R303</text>
<circle cx="183.88" cy="1460.45" r="10"/>
<text x="183.88" y="1465.45">R304</text>
<circle cx="363.41" cy="222.84" r="10"/>
<text x="363.41" y="227.84">R305</text>
<circle cx="542.50" cy="344.64" r="10"/>
<text x="542.50" y="349.64">R306</text>
<circle cx="1178.16" cy="1557.58" r="10"/>
<text x="1178.16" y="1562.58">R307</text>
<circle cx="162.16" cy="676.00" r="10"/>
<text x="162.16" y="681.00">R308</text>
<circle cx="696.53" cy="361.51" r="10"/>
<text x="696.53" y="366.51">R309</text>
<circle cx="235.28" cy="317.84" r="10"/>
<text x="235.28" y="322.84">R310</text>
<circle cx="336.88" cy="1298.94" r="10"/>
<text x="336.88" y="1303.94">R311</text>
<circle cx="647.70" cy="1343.08" r="10"/>
<text x="647.70" y="1348.08">R312</text>
<circle cx="1101.82" cy="1123.47" r="10"/>
<text x="1101.82" y="1128.47">R313</text>
<circle cx="436.80" cy="1769.20" r="10"/>
<text x="436.80" y="1774.20">R314</text>
<circle cx="7.10" cy="325.62" r="10"/>
<text x="7.10" y="330.62">R315</text>
<circle cx="788.22" cy="733.92" r="10"/>
<text x="788.22" y="738.92">R316</text>
<circle cx="757.19" cy="1236.70" r="10"/>
<text x="757.19" y="1241.70">R317</text>
<circle cx="435.72" cy="326.59" r="10"/>
<text x="435.72" y="331.59">R318</text>
<circle cx="767.63" cy="531.94" r="10"/>
<text x="767.63" y="536.94">R319</text>
<circle cx="359.54" cy="1337.36" r="10"/>
<text x="359.54" y="1342.36">R320</text>
<circle cx="715.78" cy="495.22" r="10"/>
<text x="715.78" y="500.22">R321</text>
<circle cx="495.03" cy="1246.78" r="10"/>
<text x="495.03" y="1251.78">R322</text>
<circle cx="1109.20" cy="224.83" r="10"/>
<text x="1109.20" y="229.83">R323</text>
<circle cx="1483.25" cy="1525.79" r="10"/>
<text x="1483.25" y="1530.79">R324</text>
</svg>
