<svg id="topo" viewBox="-89.37 -1884.51 1978.44 1966.41" xmlns="http://www.w3.org/2000/svg">
<style>#topo path {fill: none; stroke: grey; stroke-width: 5.0000px;} #topo circle {fill: lightblue; stroke: none; stroke-width: 0.3px; vector-effect: non-scaling-stroke; r: 10.0000px;} #topo text {fill: black; stroke: none; font-size: 15.0000px; font-family: sans-serif; text-anchor:middle; transform: translateY(0.3em);} #topo path.country {fill: lightgrey; stroke: black; stroke-width: 1px; vector-effect: non-scaling-stroke; visibility: visible;} #topo path.selection {fill: none; stroke: red; stroke-width: 1px; vector-effect: non-scaling-stroke; visibility: visible;} #topo path.utilization {visibility: hidden;}</style>
<path data-id="0-84" d="M1168.40,-1282.65,1263.62,-1238.77"/>
<path data-id="0-93" d="M1168.40,-1282.65,1198.43,-1356.68"/>
<path data-id="0-303" d="M1168.40,-1282.65,1117.03,-1119.22"/>
<path data-id="0-316" d="M1168.40,-1282.65,1051.20,-1336.02"/>
<path data-id="1-4" d="M479.28,-823.13,500.94,-750.12"/>
<path data-id="1-107" d="M479.28,-823.13,560.05,-831.62"/>
<path data-id="1-270" d="M479.28,-823.13,509.48,-915.99"/>
<path data-id="1-305" d="M479.28,-823.13,354.55,-743.87"/>
<path data-id="2-15" d="M768.59,-1180.16,796.93,-1122.88"/>
<path data-id="2-153" d="M768.59,-1180.16,815.12,-1197.14"/>
<path data-id="2-202" d="M768.59,-1180.16,673.92,-1368.70"/>
<path data-id="2-221" d="M768.59,-1180.16,617.89,-1088.66"/>
<path data-id="2-273" d="M768.59,-1180.16,623.48,-1204.27"/>
<path data-id="3-28" d="M1264.19,-1469.09,1299.49,-1455.39"/>
<path data-id="3-110" d="M1264.19,-1469.09,1198.65,-1452.81"/>
<path data-id="3-289" d="M1264.19,-1469.09,1310.89,-1588.66"/>
<path data-id="4-59" d="M500.94,-750.12,528.39,-729.08"/>
<path data-id="4-107" d="M500.94,-750.12,560.05,-831.62"/>
<path data-id="4-305" d="M500.94,-750.12,354.55,-743.87"/>
<path data-id="5-8" d="M791.55,-1605.41,895.62,-1586.75"/>
<path data-id="5-88" d="M791.55,-1605.41,660.94,-1663.72"/>
<path data-id="5-123" d="M791.55,-1605.41,668.32,-1568.03"/>
<path data-id="5-147" d="M791.55,-1605.41,790.06,-1539.83"/>
<path data-id="5-274" d="M791.55,-1605.41,901.68,-1745.44"/>
<path data-id="6-20" d="M602.83,-1517.89,616.86,-1596.90"/>
<path data-id="6-30" d="M602.83,-1517.89,610.86,-1434.58"/>
<path data-id="6-89" d="M602.83,-1517.89,442.03,-1531.33"/>
<path data-id="6-123" d="M602.83,-1517.89,668.32,-1568.03"/>
<path data-id="6-258" d="M602.83,-1517.89,646.74,-1459.53"/>
<path data-id="7-26" d="M665.40,-1757.49,613.18,-1744.40"/>
<path data-id="7-88" d="M665.40,-1757.49,660.94,-1663.72"/>
<path data-id="7-152" d="M665.40,-1757.49,635.20,-1795.12"/>
<path data-id="7-274" d="M665.40,-1757.49,901.68,-1745.44"/>
<path data-id="8-73" d="M895.62,-1586.75,1065.17,-1546.96"/>
<path data-id="8-80" d="M895.62,-1586.75,979.22,-1664.94"/>
<path data-id="8-147" d="M895.62,-1586.75,790.06,-1539.83"/>
<path data-id="8-238" d="M895.62,-1586.75,902.66,-1498.16"/>
<path data-id="8-274" d="M895.62,-1586.75,901.68,-1745.44"/>
<path data-id="9-95" d="M1367.91,-430.29,1316.73,-304.52"/>
<path data-id="9-96" d="M1367.91,-430.29,1414.58,-400.25"/>
<path data-id="9-234" d="M1367.91,-430.29,1302.43,-434.70"/>
<path data-id="9-309" d="M1367.91,-430.29,1362.75,-466.29"/>
<path data-id="10-37" d="M1657.53,-1565.60,1663.40,-1454.71"/>
<path data-id="10-233" d="M1657.53,-1565.60,1639.42,-1605.59"/>
<path data-id="10-251" d="M1657.53,-1565.60,1799.14,-1595.66"/>
<path data-id="11-22" d="M118.22,-740.05,108.78,-792.97"/>
<path data-id="11-41" d="M118.22,-740.05,192.31,-798.65"/>
<path data-id="11-124" d="M118.22,-740.05,184.78,-730.03"/>
<path data-id="11-139" d="M118.22,-740.05,102.21,-693.22"/>
<path data-id="12-160" d="M1370.08,-1596.12,1400.75,-1556.57"/>
<path data-id="12-225" d="M1370.08,-1596.12,1321.93,-1654.42"/>
<path data-id="12-236" d="M1370.08,-1596.12,1400.74,-1618.37"/>
<path data-id="12-289" d="M1370.08,-1596.12,1310.89,-1588.66"/>
<path data-id="13-78" d="M794.40,-937.63,829.20,-859.18"/>
<path data-id="13-137" d="M794.40,-937.63,873.79,-902.17"/>
<path data-id="13-219" d="M794.40,-937.63,797.19,-1070.21"/>
<path data-id="13-292" d="M794.40,-937.63,766.17,-908.72"/>
<path data-id="14-42" d="M1268.68,-533.19,1305.45,-471.26"/>
<path data-id="14-56" d="M1268.68,-533.19,1338.65,-540.88"/>
<path data-id="14-208" d="M1268.68,-533.19,1170.62,-561.43"/>
<path data-id="14-243" d="M1268.68,-533.19,1202.25,-662.52"/>
<path data-id="15-219" d="M796.93,-1122.88,797.19,-1070.21"/>
<path data-id="15-221" d="M796.93,-1122.88,617.89,-1088.66"/>
<path data-id="15-300" d="M796.93,-1122.88,837.69,-1177.08"/>
<path data-id="16-51" d="M1335.42,-215.86,1229.35,-97.31"/>
<path data-id="16-95" d="M1335.42,-215.86,1316.73,-304.52"/>
<path data-id="16-156" d="M1335.42,-215.86,1364.82,-189.90"/>
<path data-id="16-170" d="M1335.42,-215.86,1197.68,-252.37"/>
<path data-id="17-32" d="M1713.85,-1262.21,1613.33,-1239.33"/>
<path data-id="17-52" d="M1713.85,-1262.21,1732.95,-1235.74"/>
<path data-id="17-97" d="M1713.85,-1262.21,1762.39,-1292.25"/>
<path data-id="17-213" d="M1713.85,-1262.21,1684.82,-1374.57"/>
<path data-id="18-29" d="M929.89,-356.38,1014.12,-362.48"/>
<path data-id="18-125" d="M929.89,-356.38,865.55,-295.13"/>
<path data-id="18-189" d="M929.89,-356.38,876.83,-394.59"/>
<path data-id="19-182" d="M1166.26,-903.49,1235.01,-892.56"/>
<path data-id="19-249" d="M1166.26,-903.49,1143.96,-830.68"/>
<path data-id="19-255" d="M1166.26,-903.49,1171.64,-991.52"/>
<path data-id="20-88" d="M616.86,-1596.90,660.94,-1663.72"/>
<path data-id="20-123" d="M616.86,-1596.90,668.32,-1568.03"/>
<path data-id="20-220" d="M616.86,-1596.90,591.10,-1629.27"/>
<path data-id="21-122" d="M1754.13,-929.22,1631.54,-914.40"/>
<path data-id="21-133" d="M1754.13,-929.22,1741.31,-1059.47"/>
<path data-id="21-239" d="M1754.13,-929.22,1798.86,-881.06"/>
<path data-id="21-271" d="M1754.13,-929.22,1645.14,-1009.27"/>
<path data-id="21-323" d="M1754.13,-929.22,1694.65,-828.33"/>
<path data-id="22-41" d="M108.78,-792.97,192.31,-798.65"/>
<path data-id="22-304" d="M108.78,-792.97,76.61,-811.68"/>
<path data-id="23-34" d="M1333.71,-811.27,1344.82,-862.87"/>
<path data-id="23-106" d="M1333.71,-811.27,1350.39,-739.25"/>
<path data-id="24-170" d="M1169.66,-216.43,1197.68,-252.37"/>
<path data-id="24-190" d="M1169.66,-216.43,1138.32,-160.76"/>
<path data-id="25-30" d="M404.35,-1336.28,610.86,-1434.58"/>
<path data-id="25-53" d="M404.35,-1336.28,374.79,-1432.86"/>
<path data-id="25-54" d="M404.35,-1336.28,441.15,-1272.27"/>
<path data-id="25-150" d="M404.35,-1336.28,277.16,-1349.48"/>
<path data-id="25-293" d="M404.35,-1336.28,273.58,-1297.21"/>
<path data-id="26-88" d="M613.18,-1744.40,660.94,-1663.72"/>
<path data-id="26-152" d="M613.18,-1744.40,635.20,-1795.12"/>
<path data-id="26-242" d="M613.18,-1744.40,560.65,-1650.17"/>
<path data-id="26-308" d="M613.18,-1744.40,494.79,-1730.70"/>
<path data-id="27-46" d="M677.44,-185.97,673.03,-66.52"/>
<path data-id="27-180" d="M677.44,-185.97,564.07,-170.81"/>
<path data-id="27-203" d="M677.44,-185.97,748.95,-65.74"/>
<path data-id="27-218" d="M677.44,-185.97,709.13,-204.85"/>
<path data-id="27-235" d="M677.44,-185.97,663.92,-252.31"/>
<path data-id="28-48" d="M1299.49,-1455.39,1436.14,-1419.67"/>
<path data-id="28-159" d="M1299.49,-1455.39,1340.30,-1250.92"/>
<path data-id="28-160" d="M1299.49,-1455.39,1400.75,-1556.57"/>
<path data-id="28-289" d="M1299.49,-1455.39,1310.89,-1588.66"/>
<path data-id="29-230" d="M1014.12,-362.48,1052.15,-368.38"/>
<path data-id="30-54" d="M610.86,-1434.58,441.15,-1272.27"/>
<path data-id="30-142" d="M610.86,-1434.58,669.88,-1408.22"/>
<path data-id="30-258" d="M610.86,-1434.58,646.74,-1459.53"/>
<path data-id="31-65" d="M919.08,-1253.11,983.30,-1191.68"/>
<path data-id="31-164" d="M919.08,-1253.11,960.40,-1304.01"/>
<path data-id="31-231" d="M919.08,-1253.11,828.13,-1345.66"/>
<path data-id="31-300" d="M919.08,-1253.11,837.69,-1177.08"/>
<path data-id="31-301" d="M919.08,-1253.11,898.17,-1149.47"/>
<path data-id="32-38" d="M1613.33,-1239.33,1516.57,-1246.23"/>
<path data-id="32-57" d="M1613.33,-1239.33,1532.05,-1280.36"/>
<path data-id="32-69" d="M1613.33,-1239.33,1588.96,-1151.02"/>
<path data-id="32-213" d="M1613.33,-1239.33,1684.82,-1374.57"/>
<path data-id="33-47" d="M348.72,-19.66,281.16,-34.03"/>
<path data-id="33-232" d="M348.72,-19.66,395.54,-59.28"/>
<path data-id="34-131" d="M1344.82,-862.87,1317.09,-906.76"/>
<path data-id="34-228" d="M1344.82,-862.87,1441.61,-950.11"/>
<path data-id="34-247" d="M1344.82,-862.87,1507.37,-814.32"/>
<path data-id="35-114" d="M1084.89,-845.32,1085.71,-786.04"/>
<path data-id="35-162" d="M1084.89,-845.32,1018.02,-887.39"/>
<path data-id="35-249" d="M1084.89,-845.32,1143.96,-830.68"/>
<path data-id="36-38" d="M1405.11,-1057.17,1516.57,-1246.23"/>
<path data-id="36-101" d="M1405.11,-1057.17,1451.15,-1276.85"/>
<path data-id="36-134" d="M1405.11,-1057.17,1272.43,-1098.71"/>
<path data-id="36-159" d="M1405.11,-1057.17,1340.30,-1250.92"/>
<path data-id="36-228" d="M1405.11,-1057.17,1441.61,-950.11"/>
<path data-id="36-275" d="M1405.11,-1057.17,1593.33,-1095.23"/>
<path data-id="37-213" d="M1663.40,-1454.71,1684.82,-1374.57"/>
<path data-id="37-320" d="M1663.40,-1454.71,1518.57,-1415.23"/>
<path data-id="38-57" d="M1516.57,-1246.23,1532.05,-1280.36"/>
<path data-id="38-69" d="M1516.57,-1246.23,1588.96,-1151.02"/>
<path data-id="38-101" d="M1516.57,-1246.23,1451.15,-1276.85"/>
<path data-id="39-71" d="M278.75,-1765.08,406.91,-1754.40"/>
<path data-id="39-119" d="M278.75,-1765.08,318.86,-1649.88"/>
<path data-id="39-167" d="M278.75,-1765.08,114.33,-1779.52"/>
<path data-id="39-188" d="M278.75,-1765.08,237.46,-1684.18"/>
<path data-id="40-104" d="M1567.39,-1593.81,1487.20,-1591.81"/>
<path data-id="40-233" d="M1567.39,-1593.81,1639.42,-1605.59"/>
<path data-id="40-254" d="M1567.39,-1593.81,1530.64,-1739.91"/>
<path data-id="41-124" d="M192.31,-798.65,184.78,-730.03"/>
<path data-id="41-176" d="M192.31,-798.65,235.14,-856.09"/>
<path data-id="41-265" d="M192.31,-798.65,324.22,-716.33"/>
<path data-id="42-56" d="M1305.45,-471.26,1338.65,-540.88"/>
<path data-id="42-234" d="M1305.45,-471.26,1302.43,-434.70"/>
<path data-id="42-309" d="M1305.45,-471.26,1362.75,-466.29"/>
<path data-id="43-74" d="M364.55,-163.30,288.51,-158.05"/>
<path data-id="43-76" d="M364.55,-163.30,443.84,-107.00"/>
<path data-id="43-126" d="M364.55,-163.30,331.68,-221.84"/>
<path data-id="43-179" d="M364.55,-163.30,488.62,-201.21"/>
<path data-id="43-232" d="M364.55,-163.30,395.54,-59.28"/>
<path data-id="44-163" d="M171.53,-1388.92,75.91,-1369.87"/>
<path data-id="44-178" d="M171.53,-1388.92,265.14,-1399.88"/>
<path data-id="44-215" d="M171.53,-1388.92,228.36,-1268.01"/>
<path data-id="44-257" d="M171.53,-1388.92,171.38,-1520.39"/>
<path data-id="45-161" d="M18.49,-533.34,0.56,-612.33"/>
<path data-id="45-184" d="M18.49,-533.34,115.43,-543.58"/>
<path data-id="45-209" d="M18.49,-533.34,97.19,-438.55"/>
<path data-id="45-313" d="M18.49,-533.34,16.21,-422.82"/>
<path data-id="46-203" d="M673.03,-66.52,748.95,-65.74"/>
<path data-id="46-264" d="M673.03,-66.52,657.74,-26.93"/>
<path data-id="46-267" d="M673.03,-66.52,640.34,-64.66"/>
<path data-id="47-94" d="M281.16,-34.03,181.60,-8.10"/>
<path data-id="47-138" d="M281.16,-34.03,270.72,-97.85"/>
<path data-id="48-101" d="M1436.14,-1419.67,1451.15,-1276.85"/>
<path data-id="48-319" d="M1436.14,-1419.67,1469.18,-1435.92"/>
<path data-id="49-115" d="M801.25,-390.26,625.44,-383.94"/>
<path data-id="49-125" d="M801.25,-390.26,865.55,-295.13"/>
<path data-id="49-189" d="M801.25,-390.26,876.83,-394.59"/>
<path data-id="49-235" d="M801.25,-390.26,663.92,-252.31"/>
<path data-id="49-268" d="M801.25,-390.26,667.95,-482.11"/>
<path data-id="50-64" d="M1527.62,-961.77,1583.42,-822.48"/>
<path data-id="50-122" d="M1527.62,-961.77,1631.54,-914.40"/>
<path data-id="50-228" d="M1527.62,-961.77,1441.61,-950.11"/>
<path data-id="50-247" d="M1527.62,-961.77,1507.37,-814.32"/>
<path data-id="50-271" d="M1527.62,-961.77,1645.14,-1009.27"/>
<path data-id="50-275" d="M1527.62,-961.77,1593.33,-1095.23"/>
<path data-id="51-92" d="M1229.35,-97.31,1189.92,-65.25"/>
<path data-id="51-260" d="M1229.35,-97.31,1436.56,-21.76"/>
<path data-id="51-282" d="M1229.35,-97.31,1170.89,-119.24"/>
<path data-id="52-85" d="M1732.95,-1235.74,1631.18,-1119.37"/>
<path data-id="52-97" d="M1732.95,-1235.74,1762.39,-1292.25"/>
<path data-id="52-181" d="M1732.95,-1235.74,1795.89,-1127.46"/>
<path data-id="52-302" d="M1732.95,-1235.74,1743.33,-1116.34"/>
<path data-id="53-178" d="M374.79,-1432.86,265.14,-1399.88"/>
<path data-id="53-266" d="M374.79,-1432.86,358.60,-1490.83"/>
<path data-id="54-157" d="M441.15,-1272.27,380.27,-1231.30"/>
<path data-id="54-296" d="M441.15,-1272.27,454.15,-1198.71"/>
<path data-id="55-79" d="M1549.16,-61.15,1521.25,-39.82"/>
<path data-id="55-216" d="M1549.16,-61.15,1600.52,-39.24"/>
<path data-id="56-111" d="M1338.65,-540.88,1347.75,-675.12"/>
<path data-id="56-226" d="M1338.65,-540.88,1415.12,-528.85"/>
<path data-id="56-309" d="M1338.65,-540.88,1362.75,-466.29"/>
<path data-id="57-101" d="M1532.05,-1280.36,1451.15,-1276.85"/>
<path data-id="57-109" d="M1532.05,-1280.36,1525.81,-1374.28"/>
<path data-id="58-141" d="M1686.91,-190.06,1624.73,-164.85"/>
<path data-id="58-146" d="M1686.91,-190.06,1692.41,-314.87"/>
<path data-id="58-285" d="M1686.91,-190.06,1767.90,-269.52"/>
<path data-id="59-171" d="M528.39,-729.08,406.12,-557.16"/>
<path data-id="59-322" d="M528.39,-729.08,594.65,-750.91"/>
<path data-id="60-191" d="M12.57,-885.65,3.23,-858.10"/>
<path data-id="60-290" d="M12.57,-885.65,104.83,-962.44"/>
<path data-id="60-297" d="M12.57,-885.65,27.51,-1021.38"/>
<path data-id="61-104" d="M1439.80,-1712.03,1487.20,-1591.81"/>
<path data-id="61-196" d="M1439.80,-1712.03,1510.56,-1787.34"/>
<path data-id="61-225" d="M1439.80,-1712.03,1321.93,-1654.42"/>
<path data-id="61-236" d="M1439.80,-1712.03,1400.74,-1618.37"/>
<path data-id="61-246" d="M1439.80,-1712.03,1389.30,-1767.78"/>
<path data-id="61-254" d="M1439.80,-1712.03,1530.64,-1739.91"/>
<path data-id="62-68" d="M1027.85,-1369.94,972.53,-1376.23"/>
<path data-id="62-204" d="M1027.85,-1369.94,1119.70,-1491.47"/>
<path data-id="62-316" d="M1027.85,-1369.94,1051.20,-1336.02"/>
<path data-id="63-250" d="M1057.58,-1013.12,1138.99,-1005.18"/>
<path data-id="63-303" d="M1057.58,-1013.12,1117.03,-1119.22"/>
<path data-id="63-310" d="M1057.58,-1013.12,1031.10,-1008.64"/>
<path data-id="64-91" d="M1583.42,-822.48,1653.58,-819.60"/>
<path data-id="64-122" d="M1583.42,-822.48,1631.54,-914.40"/>
<path data-id="64-151" d="M1583.42,-822.48,1576.20,-645.08"/>
<path data-id="64-247" d="M1583.42,-822.48,1507.37,-814.32"/>
<path data-id="65-248" d="M983.30,-1191.68,1000.46,-1149.02"/>
<path data-id="65-301" d="M983.30,-1191.68,898.17,-1149.47"/>
<path data-id="66-67" d="M271.44,-657.80,262.37,-524.78"/>
<path data-id="66-124" d="M271.44,-657.80,184.78,-730.03"/>
<path data-id="66-171" d="M271.44,-657.80,406.12,-557.16"/>
<path data-id="66-183" d="M271.44,-657.80,197.85,-537.15"/>
<path data-id="66-214" d="M271.44,-657.80,179.30,-654.70"/>
<path data-id="66-265" d="M271.44,-657.80,324.22,-716.33"/>
<path data-id="67-99" d="M262.37,-524.78,272.78,-482.30"/>
<path data-id="67-171" d="M262.37,-524.78,406.12,-557.16"/>
<path data-id="67-183" d="M262.37,-524.78,197.85,-537.15"/>
<path data-id="68-164" d="M972.53,-1376.23,960.40,-1304.01"/>
<path data-id="68-231" d="M972.53,-1376.23,828.13,-1345.66"/>
<path data-id="68-238" d="M972.53,-1376.23,902.66,-1498.16"/>
<path data-id="69-85" d="M1588.96,-1151.02,1631.18,-1119.37"/>
<path data-id="69-275" d="M1588.96,-1151.02,1593.33,-1095.23"/>
<path data-id="70-82" d="M1539.79,-392.04,1516.38,-288.89"/>
<path data-id="70-96" d="M1539.79,-392.04,1414.58,-400.25"/>
<path data-id="70-146" d="M1539.79,-392.04,1692.41,-314.87"/>
<path data-id="70-227" d="M1539.79,-392.04,1581.24,-446.22"/>
<path data-id="70-253" d="M1539.79,-392.04,1546.09,-450.72"/>
<path data-id="71-119" d="M406.91,-1754.40,318.86,-1649.88"/>
<path data-id="71-272" d="M406.91,-1754.40,485.62,-1768.30"/>
<path data-id="72-121" d="M301.98,-1055.33,288.54,-1104.73"/>
<path data-id="72-197" d="M301.98,-1055.33,360.88,-981.81"/>
<path data-id="72-312" d="M301.98,-1055.33,194.35,-958.70"/>
<path data-id="73-238" d="M1065.17,-1546.96,902.66,-1498.16"/>
<path data-id="73-261" d="M1065.17,-1546.96,1085.46,-1590.91"/>
<path data-id="73-286" d="M1065.17,-1546.96,1093.71,-1513.52"/>
<path data-id="74-126" d="M288.51,-158.05,331.68,-221.84"/>
<path data-id="74-135" d="M288.51,-158.05,264.82,-246.89"/>
<path data-id="74-138" d="M288.51,-158.05,270.72,-97.85"/>
<path data-id="74-200" d="M288.51,-158.05,240.86,-169.62"/>
<path data-id="75-104" d="M1454.28,-1582.43,1487.20,-1591.81"/>
<path data-id="75-118" d="M1454.28,-1582.43,1440.41,-1524.67"/>
<path data-id="75-160" d="M1454.28,-1582.43,1400.75,-1556.57"/>
<path data-id="75-236" d="M1454.28,-1582.43,1400.74,-1618.37"/>
<path data-id="76-81" d="M443.84,-107.00,492.73,-134.09"/>
<path data-id="76-172" d="M443.84,-107.00,483.17,-75.45"/>
<path data-id="76-232" d="M443.84,-107.00,395.54,-59.28"/>
<path data-id="77-136" d="M362.09,-1584.33,321.45,-1527.76"/>
<path data-id="77-223" d="M362.09,-1584.33,348.46,-1611.37"/>
<path data-id="77-315" d="M362.09,-1584.33,396.30,-1550.14"/>
<path data-id="78-137" d="M829.20,-859.18,873.79,-902.17"/>
<path data-id="78-155" d="M829.20,-859.18,720.21,-768.82"/>
<path data-id="78-277" d="M829.20,-859.18,851.76,-758.34"/>
<path data-id="78-292" d="M829.20,-859.18,766.17,-908.72"/>
<path data-id="78-311" d="M829.20,-859.18,912.64,-851.45"/>
<path data-id="79-211" d="M1521.25,-39.82,1431.20,-132.99"/>
<path data-id="79-217" d="M1521.25,-39.82,1517.85,-14.05"/>
<path data-id="80-262" d="M979.22,-1664.94,1027.06,-1660.33"/>
<path data-id="80-274" d="M979.22,-1664.94,901.68,-1745.44"/>
<path data-id="81-172" d="M492.73,-134.09,483.17,-75.45"/>
<path data-id="81-179" d="M492.73,-134.09,488.62,-201.21"/>
<path data-id="81-180" d="M492.73,-134.09,564.07,-170.81"/>
<path data-id="82-96" d="M1516.38,-288.89,1414.58,-400.25"/>
<path data-id="82-146" d="M1516.38,-288.89,1692.41,-314.87"/>
<path data-id="82-314" d="M1516.38,-288.89,1499.78,-256.22"/>
<path data-id="83-172" d="M436.05,-15.63,483.17,-75.45"/>
<path data-id="83-232" d="M436.05,-15.63,395.54,-59.28"/>
<path data-id="84-134" d="M1263.62,-1238.77,1272.43,-1098.71"/>
<path data-id="84-159" d="M1263.62,-1238.77,1340.30,-1250.92"/>
<path data-id="84-174" d="M1263.62,-1238.77,1227.87,-1104.57"/>
<path data-id="85-133" d="M1631.18,-1119.37,1741.31,-1059.47"/>
<path data-id="85-275" d="M1631.18,-1119.37,1593.33,-1095.23"/>
<path data-id="85-302" d="M1631.18,-1119.37,1743.33,-1116.34"/>
<path data-id="86-177" d="M121.40,-1035.96,189.67,-1096.03"/>
<path data-id="86-198" d="M121.40,-1035.96,40.58,-1090.05"/>
<path data-id="86-290" d="M121.40,-1035.96,104.83,-962.44"/>
<path data-id="86-297" d="M121.40,-1035.96,27.51,-1021.38"/>
<path data-id="86-312" d="M121.40,-1035.96,194.35,-958.70"/>
<path data-id="87-99" d="M235.07,-441.85,272.78,-482.30"/>
<path data-id="87-183" d="M235.07,-441.85,197.85,-537.15"/>
<path data-id="87-192" d="M235.07,-441.85,317.14,-409.93"/>
<path data-id="87-240" d="M235.07,-441.85,210.73,-430.64"/>
<path data-id="88-123" d="M660.94,-1663.72,668.32,-1568.03"/>
<path data-id="88-220" d="M660.94,-1663.72,591.10,-1629.27"/>
<path data-id="89-242" d="M442.03,-1531.33,560.65,-1650.17"/>
<path data-id="89-315" d="M442.03,-1531.33,396.30,-1550.14"/>
<path data-id="90-98" d="M411.40,-318.46,358.80,-256.02"/>
<path data-id="90-105" d="M411.40,-318.46,415.86,-379.22"/>
<path data-id="90-317" d="M411.40,-318.46,442.30,-293.82"/>
<path data-id="91-122" d="M1653.58,-819.60,1631.54,-914.40"/>
<path data-id="91-151" d="M1653.58,-819.60,1576.20,-645.08"/>
<path data-id="91-323" d="M1653.58,-819.60,1694.65,-828.33"/>
<path data-id="92-282" d="M1189.92,-65.25,1170.89,-119.24"/>
<path data-id="93-110" d="M1198.43,-1356.68,1198.65,-1452.81"/>
<path data-id="93-316" d="M1198.43,-1356.68,1051.20,-1336.02"/>
<path data-id="94-102" d="M181.60,-8.10,13.49,-147.92"/>
<path data-id="94-165" d="M181.60,-8.10,91.34,-205.99"/>
<path data-id="94-276" d="M181.60,-8.10,13.75,-7.48"/>
<path data-id="95-96" d="M1316.73,-304.52,1414.58,-400.25"/>
<path data-id="95-149" d="M1316.73,-304.52,1195.18,-361.72"/>
<path data-id="95-170" d="M1316.73,-304.52,1197.68,-252.37"/>
<path data-id="95-234" d="M1316.73,-304.52,1302.43,-434.70"/>
<path data-id="95-314" d="M1316.73,-304.52,1499.78,-256.22"/>
<path data-id="96-291" d="M1414.58,-400.25,1450.04,-504.93"/>
<path data-id="97-213" d="M1762.39,-1292.25,1684.82,-1374.57"/>
<path data-id="98-126" d="M358.80,-256.02,331.68,-221.84"/>
<path data-id="99-171" d="M272.78,-482.30,406.12,-557.16"/>
<path data-id="99-192" d="M272.78,-482.30,317.14,-409.93"/>
<path data-id="100-123" d="M767.15,-1493.99,668.32,-1568.03"/>
<path data-id="100-147" d="M767.15,-1493.99,790.06,-1539.83"/>
<path data-id="100-168" d="M767.15,-1493.99,799.30,-1437.42"/>
<path data-id="100-258" d="M767.15,-1493.99,646.74,-1459.53"/>
<path data-id="101-109" d="M1451.15,-1276.85,1525.81,-1374.28"/>
<path data-id="101-159" d="M1451.15,-1276.85,1340.30,-1250.92"/>
<path data-id="102-165" d="M13.49,-147.92,91.34,-205.99"/>
<path data-id="102-276" d="M13.49,-147.92,13.75,-7.48"/>
<path data-id="103-118" d="M1486.01,-1467.32,1440.41,-1524.67"/>
<path data-id="103-319" d="M1486.01,-1467.32,1469.18,-1435.92"/>
<path data-id="103-320" d="M1486.01,-1467.32,1518.57,-1415.23"/>
<path data-id="104-254" d="M1487.20,-1591.81,1530.64,-1739.91"/>
<path data-id="105-171" d="M415.86,-379.22,406.12,-557.16"/>
<path data-id="105-192" d="M415.86,-379.22,317.14,-409.93"/>
<path data-id="105-210" d="M415.86,-379.22,504.40,-364.28"/>
<path data-id="106-111" d="M1350.39,-739.25,1347.75,-675.12"/>
<path data-id="106-306" d="M1350.39,-739.25,1398.53,-739.56"/>
<path data-id="107-259" d="M560.05,-831.62,593.53,-962.17"/>
<path data-id="107-270" d="M560.05,-831.62,509.48,-915.99"/>
<path data-id="107-278" d="M560.05,-831.62,648.40,-822.95"/>
<path data-id="107-322" d="M560.05,-831.62,594.65,-750.91"/>
<path data-id="108-113" d="M128.02,-1596.64,113.78,-1552.83"/>
<path data-id="108-245" d="M128.02,-1596.64,148.53,-1650.42"/>
<path data-id="109-213" d="M1525.81,-1374.28,1684.82,-1374.57"/>
<path data-id="109-320" d="M1525.81,-1374.28,1518.57,-1415.23"/>
<path data-id="110-186" d="M1198.65,-1452.81,1167.19,-1491.25"/>
<path data-id="111-207" d="M1347.75,-675.12,1458.70,-644.38"/>
<path data-id="111-243" d="M1347.75,-675.12,1202.25,-662.52"/>
<path data-id="112-121" d="M253.80,-1151.72,288.54,-1104.73"/>
<path data-id="112-177" d="M253.80,-1151.72,189.67,-1096.03"/>
<path data-id="112-215" d="M253.80,-1151.72,228.36,-1268.01"/>
<path data-id="113-132" d="M113.78,-1552.83,69.66,-1503.60"/>
<path data-id="113-257" d="M113.78,-1552.83,171.38,-1520.39"/>
<path data-id="114-143" d="M1085.71,-786.04,1074.29,-739.09"/>
<path data-id="114-249" d="M1085.71,-786.04,1143.96,-830.68"/>
<path data-id="115-128" d="M625.44,-383.94,577.52,-455.32"/>
<path data-id="115-210" d="M625.44,-383.94,504.40,-364.28"/>
<path data-id="115-235" d="M625.44,-383.94,663.92,-252.31"/>
<path data-id="115-268" d="M625.44,-383.94,667.95,-482.11"/>
<path data-id="115-281" d="M625.44,-383.94,580.50,-262.67"/>
<path data-id="116-144" d="M978.73,-689.85,1048.69,-743.89"/>
<path data-id="116-145" d="M978.73,-689.85,1016.81,-769.26"/>
<path data-id="116-237" d="M978.73,-689.85,925.62,-712.64"/>
<path data-id="116-288" d="M978.73,-689.85,1053.85,-628.48"/>
<path data-id="116-294" d="M978.73,-689.85,944.96,-610.61"/>
<path data-id="117-206" d="M1560.43,-552.70,1515.33,-495.69"/>
<path data-id="117-207" d="M1560.43,-552.70,1458.70,-644.38"/>
<path data-id="117-227" d="M1560.43,-552.70,1581.24,-446.22"/>
<path data-id="117-279" d="M1560.43,-552.70,1595.83,-592.25"/>
<path data-id="118-160" d="M1440.41,-1524.67,1400.75,-1556.57"/>
<path data-id="119-222" d="M318.86,-1649.88,251.10,-1657.26"/>
<path data-id="119-223" d="M318.86,-1649.88,348.46,-1611.37"/>
<path data-id="120-225" d="M1155.66,-1710.21,1321.93,-1654.42"/>
<path data-id="120-261" d="M1155.66,-1710.21,1085.46,-1590.91"/>
<path data-id="120-262" d="M1155.66,-1710.21,1027.06,-1660.33"/>
<path data-id="121-177" d="M288.54,-1104.73,189.67,-1096.03"/>
<path data-id="121-195" d="M288.54,-1104.73,323.04,-1120.56"/>
<path data-id="122-271" d="M1631.54,-914.40,1645.14,-1009.27"/>
<path data-id="123-147" d="M668.32,-1568.03,790.06,-1539.83"/>
<path data-id="124-214" d="M184.78,-730.03,179.30,-654.70"/>
<path data-id="125-148" d="M865.55,-295.13,769.68,-207.62"/>
<path data-id="125-189" d="M865.55,-295.13,876.83,-394.59"/>
<path data-id="125-324" d="M865.55,-295.13,884.74,-245.81"/>
<path data-id="126-135" d="M331.68,-221.84,264.82,-246.89"/>
<path data-id="127-199" d="M540.47,-1183.25,530.45,-1035.17"/>
<path data-id="127-221" d="M540.47,-1183.25,617.89,-1088.66"/>
<path data-id="127-273" d="M540.47,-1183.25,623.48,-1204.27"/>
<path data-id="127-321" d="M540.47,-1183.25,503.30,-1203.56"/>
<path data-id="128-268" d="M577.52,-455.32,667.95,-482.11"/>
<path data-id="128-287" d="M577.52,-455.32,545.96,-453.43"/>
<path data-id="128-307" d="M577.52,-455.32,632.87,-526.63"/>
<path data-id="129-143" d="M1127.09,-704.77,1074.29,-739.09"/>
<path data-id="129-243" d="M1127.09,-704.77,1202.25,-662.52"/>
<path data-id="129-288" d="M1127.09,-704.77,1053.85,-628.48"/>
<path data-id="130-166" d="M1793.32,-1628.35,1636.89,-1722.20"/>
<path data-id="130-233" d="M1793.32,-1628.35,1639.42,-1605.59"/>
<path data-id="130-251" d="M1793.32,-1628.35,1799.14,-1595.66"/>
<path data-id="131-134" d="M1317.09,-906.76,1272.43,-1098.71"/>
<path data-id="131-182" d="M1317.09,-906.76,1235.01,-892.56"/>
<path data-id="131-228" d="M1317.09,-906.76,1441.61,-950.11"/>
<path data-id="132-173" d="M69.66,-1503.60,68.40,-1396.06"/>
<path data-id="133-271" d="M1741.31,-1059.47,1645.14,-1009.27"/>
<path data-id="133-298" d="M1741.31,-1059.47,1773.12,-1064.12"/>
<path data-id="133-302" d="M1741.31,-1059.47,1743.33,-1116.34"/>
<path data-id="134-174" d="M1272.43,-1098.71,1227.87,-1104.57"/>
<path data-id="135-192" d="M264.82,-246.89,317.14,-409.93"/>
<path data-id="135-200" d="M264.82,-246.89,240.86,-169.62"/>
<path data-id="135-240" d="M264.82,-246.89,210.73,-430.64"/>
<path data-id="135-283" d="M264.82,-246.89,186.64,-203.65"/>
<path data-id="135-299" d="M264.82,-246.89,127.59,-355.15"/>
<path data-id="136-178" d="M321.45,-1527.76,265.14,-1399.88"/>
<path data-id="136-257" d="M321.45,-1527.76,171.38,-1520.39"/>
<path data-id="136-266" d="M321.45,-1527.76,358.60,-1490.83"/>
<path data-id="136-315" d="M321.45,-1527.76,396.30,-1550.14"/>
<path data-id="137-311" d="M873.79,-902.17,912.64,-851.45"/>
<path data-id="138-200" d="M270.72,-97.85,240.86,-169.62"/>
<path data-id="139-184" d="M102.21,-693.22,115.43,-543.58"/>
<path data-id="139-214" d="M102.21,-693.22,179.30,-654.70"/>
<path data-id="139-269" d="M102.21,-693.22,21.05,-635.92"/>
<path data-id="140-151" d="M1731.91,-714.59,1576.20,-645.08"/>
<path data-id="140-280" d="M1731.91,-714.59,1720.42,-525.05"/>
<path data-id="140-323" d="M1731.91,-714.59,1694.65,-828.33"/>
<path data-id="141-256" d="M1624.73,-164.85,1629.97,-105.91"/>
<path data-id="141-314" d="M1624.73,-164.85,1499.78,-256.22"/>
<path data-id="142-202" d="M669.88,-1408.22,673.92,-1368.70"/>
<path data-id="142-224" d="M669.88,-1408.22,724.00,-1394.43"/>
<path data-id="142-258" d="M669.88,-1408.22,646.74,-1459.53"/>
<path data-id="143-144" d="M1074.29,-739.09,1048.69,-743.89"/>
<path data-id="143-288" d="M1074.29,-739.09,1053.85,-628.48"/>
<path data-id="144-145" d="M1048.69,-743.89,1016.81,-769.26"/>
<path data-id="145-162" d="M1016.81,-769.26,1018.02,-887.39"/>
<path data-id="145-311" d="M1016.81,-769.26,912.64,-851.45"/>
<path data-id="146-205" d="M1692.41,-314.87,1689.72,-427.73"/>
<path data-id="146-285" d="M1692.41,-314.87,1767.90,-269.52"/>
<path data-id="147-238" d="M790.06,-1539.83,902.66,-1498.16"/>
<path data-id="148-203" d="M769.68,-207.62,748.95,-65.74"/>
<path data-id="148-218" d="M769.68,-207.62,709.13,-204.85"/>
<path data-id="148-324" d="M769.68,-207.62,884.74,-245.81"/>
<path data-id="149-170" d="M1195.18,-361.72,1197.68,-252.37"/>
<path data-id="149-208" d="M1195.18,-361.72,1170.62,-561.43"/>
<path data-id="149-230" d="M1195.18,-361.72,1052.15,-368.38"/>
<path data-id="149-234" d="M1195.18,-361.72,1302.43,-434.70"/>
<path data-id="150-178" d="M277.16,-1349.48,265.14,-1399.88"/>
<path data-id="150-293" d="M277.16,-1349.48,273.58,-1297.21"/>
<path data-id="151-207" d="M1576.20,-645.08,1458.70,-644.38"/>
<path data-id="151-247" d="M1576.20,-645.08,1507.37,-814.32"/>
<path data-id="151-279" d="M1576.20,-645.08,1595.83,-592.25"/>
<path data-id="153-231" d="M815.12,-1197.14,828.13,-1345.66"/>
<path data-id="153-300" d="M815.12,-1197.14,837.69,-1177.08"/>
<path data-id="154-175" d="M914.73,-531.26,654.42,-588.45"/>
<path data-id="154-189" d="M914.73,-531.26,876.83,-394.59"/>
<path data-id="154-294" d="M914.73,-531.26,944.96,-610.61"/>
<path data-id="155-175" d="M720.21,-768.82,654.42,-588.45"/>
<path data-id="155-277" d="M720.21,-768.82,851.76,-758.34"/>
<path data-id="155-278" d="M720.21,-768.82,648.40,-822.95"/>
<path data-id="155-292" d="M720.21,-768.82,766.17,-908.72"/>
<path data-id="155-322" d="M720.21,-768.82,594.65,-750.91"/>
<path data-id="156-211" d="M1364.82,-189.90,1431.20,-132.99"/>
<path data-id="156-314" d="M1364.82,-189.90,1499.78,-256.22"/>
<path data-id="157-195" d="M380.27,-1231.30,323.04,-1120.56"/>
<path data-id="157-293" d="M380.27,-1231.30,273.58,-1297.21"/>
<path data-id="157-296" d="M380.27,-1231.30,454.15,-1198.71"/>
<path data-id="158-167" d="M84.34,-1737.91,114.33,-1779.52"/>
<path data-id="158-252" d="M84.34,-1737.91,58.71,-1736.56"/>
<path data-id="158-295" d="M84.34,-1737.91,111.06,-1694.87"/>
<path data-id="160-236" d="M1400.75,-1556.57,1400.74,-1618.37"/>
<path data-id="161-269" d="M0.56,-612.33,21.05,-635.92"/>
<path data-id="162-310" d="M1018.02,-887.39,1031.10,-1008.64"/>
<path data-id="162-311" d="M1018.02,-887.39,912.64,-851.45"/>
<path data-id="163-173" d="M75.91,-1369.87,68.40,-1396.06"/>
<path data-id="163-244" d="M75.91,-1369.87,9.71,-1235.12"/>
<path data-id="164-231" d="M960.40,-1304.01,828.13,-1345.66"/>
<path data-id="164-316" d="M960.40,-1304.01,1051.20,-1336.02"/>
<path data-id="165-283" d="M91.34,-205.99,186.64,-203.65"/>
<path data-id="165-299" d="M91.34,-205.99,127.59,-355.15"/>
<path data-id="166-233" d="M1636.89,-1722.20,1639.42,-1605.59"/>
<path data-id="166-254" d="M1636.89,-1722.20,1530.64,-1739.91"/>
<path data-id="168-224" d="M799.30,-1437.42,724.00,-1394.43"/>
<path data-id="168-231" d="M799.30,-1437.42,828.13,-1345.66"/>
<path data-id="168-238" d="M799.30,-1437.42,902.66,-1498.16"/>
<path data-id="169-207" d="M1439.17,-740.08,1458.70,-644.38"/>
<path data-id="169-247" d="M1439.17,-740.08,1507.37,-814.32"/>
<path data-id="169-306" d="M1439.17,-740.08,1398.53,-739.56"/>
<path data-id="171-192" d="M406.12,-557.16,317.14,-409.93"/>
<path data-id="171-265" d="M406.12,-557.16,324.22,-716.33"/>
<path data-id="171-287" d="M406.12,-557.16,545.96,-453.43"/>
<path data-id="172-267" d="M483.17,-75.45,640.34,-64.66"/>
<path data-id="174-255" d="M1227.87,-1104.57,1171.64,-991.52"/>
<path data-id="174-303" d="M1227.87,-1104.57,1117.03,-1119.22"/>
<path data-id="175-307" d="M654.42,-588.45,632.87,-526.63"/>
<path data-id="175-322" d="M654.42,-588.45,594.65,-750.91"/>
<path data-id="176-193" d="M235.14,-856.09,268.04,-834.95"/>
<path data-id="176-197" d="M235.14,-856.09,360.88,-981.81"/>
<path data-id="176-312" d="M235.14,-856.09,194.35,-958.70"/>
<path data-id="177-312" d="M189.67,-1096.03,194.35,-958.70"/>
<path data-id="178-257" d="M265.14,-1399.88,171.38,-1520.39"/>
<path data-id="179-194" d="M488.62,-201.21,553.25,-205.46"/>
<path data-id="179-317" d="M488.62,-201.21,442.30,-293.82"/>
<path data-id="180-194" d="M564.07,-170.81,553.25,-205.46"/>
<path data-id="180-267" d="M564.07,-170.81,640.34,-64.66"/>
<path data-id="181-298" d="M1795.89,-1127.46,1773.12,-1064.12"/>
<path data-id="181-302" d="M1795.89,-1127.46,1743.33,-1116.34"/>
<path data-id="183-201" d="M197.85,-537.15,148.82,-510.57"/>
<path data-id="183-214" d="M197.85,-537.15,179.30,-654.70"/>
<path data-id="184-201" d="M115.43,-543.58,148.82,-510.57"/>
<path data-id="184-214" d="M115.43,-543.58,179.30,-654.70"/>
<path data-id="184-269" d="M115.43,-543.58,21.05,-635.92"/>
<path data-id="185-201" d="M163.93,-433.21,148.82,-510.57"/>
<path data-id="185-209" d="M163.93,-433.21,97.19,-438.55"/>
<path data-id="185-240" d="M163.93,-433.21,210.73,-430.64"/>
<path data-id="185-299" d="M163.93,-433.21,127.59,-355.15"/>
<path data-id="186-204" d="M1167.19,-1491.25,1119.70,-1491.47"/>
<path data-id="187-190" d="M1070.60,-93.16,1138.32,-160.76"/>
<path data-id="187-212" d="M1070.60,-93.16,848.13,-33.32"/>
<path data-id="187-282" d="M1070.60,-93.16,1170.89,-119.24"/>
<path data-id="187-324" d="M1070.60,-93.16,884.74,-245.81"/>
<path data-id="188-222" d="M237.46,-1684.18,251.10,-1657.26"/>
<path data-id="188-245" d="M237.46,-1684.18,148.53,-1650.42"/>
<path data-id="190-282" d="M1138.32,-160.76,1170.89,-119.24"/>
<path data-id="191-304" d="M3.23,-858.10,76.61,-811.68"/>
<path data-id="193-197" d="M268.04,-834.95,360.88,-981.81"/>
<path data-id="193-265" d="M268.04,-834.95,324.22,-716.33"/>
<path data-id="193-305" d="M268.04,-834.95,354.55,-743.87"/>
<path data-id="194-281" d="M553.25,-205.46,580.50,-262.67"/>
<path data-id="195-199" d="M323.04,-1120.56,530.45,-1035.17"/>
<path data-id="196-246" d="M1510.56,-1787.34,1389.30,-1767.78"/>
<path data-id="196-254" d="M1510.56,-1787.34,1530.64,-1739.91"/>
<path data-id="197-199" d="M360.88,-981.81,530.45,-1035.17"/>
<path data-id="197-270" d="M360.88,-981.81,509.48,-915.99"/>
<path data-id="197-312" d="M360.88,-981.81,194.35,-958.70"/>
<path data-id="198-244" d="M40.58,-1090.05,9.71,-1235.12"/>
<path data-id="198-297" d="M40.58,-1090.05,27.51,-1021.38"/>
<path data-id="199-221" d="M530.45,-1035.17,617.89,-1088.66"/>
<path data-id="199-229" d="M530.45,-1035.17,629.27,-996.78"/>
<path data-id="199-259" d="M530.45,-1035.17,593.53,-962.17"/>
<path data-id="199-270" d="M530.45,-1035.17,509.48,-915.99"/>
<path data-id="200-283" d="M240.86,-169.62,186.64,-203.65"/>
<path data-id="201-209" d="M148.82,-510.57,97.19,-438.55"/>
<path data-id="202-224" d="M673.92,-1368.70,724.00,-1394.43"/>
<path data-id="202-273" d="M673.92,-1368.70,623.48,-1204.27"/>
<path data-id="203-212" d="M748.95,-65.74,848.13,-33.32"/>
<path data-id="204-286" d="M1119.70,-1491.47,1093.71,-1513.52"/>
<path data-id="205-227" d="M1689.72,-427.73,1581.24,-446.22"/>
<path data-id="205-280" d="M1689.72,-427.73,1720.42,-525.05"/>
<path data-id="206-253" d="M1515.33,-495.69,1546.09,-450.72"/>
<path data-id="206-291" d="M1515.33,-495.69,1450.04,-504.93"/>
<path data-id="207-226" d="M1458.70,-644.38,1415.12,-528.85"/>
<path data-id="208-230" d="M1170.62,-561.43,1052.15,-368.38"/>
<path data-id="208-243" d="M1170.62,-561.43,1202.25,-662.52"/>
<path data-id="208-284" d="M1170.62,-561.43,1050.80,-591.88"/>
<path data-id="209-299" d="M97.19,-438.55,127.59,-355.15"/>
<path data-id="209-313" d="M97.19,-438.55,16.21,-422.82"/>
<path data-id="210-281" d="M504.40,-364.28,580.50,-262.67"/>
<path data-id="210-287" d="M504.40,-364.28,545.96,-453.43"/>
<path data-id="210-317" d="M504.40,-364.28,442.30,-293.82"/>
<path data-id="211-260" d="M1431.20,-132.99,1436.56,-21.76"/>
<path data-id="211-314" d="M1431.20,-132.99,1499.78,-256.22"/>
<path data-id="212-324" d="M848.13,-33.32,884.74,-245.81"/>
<path data-id="215-244" d="M228.36,-1268.01,9.71,-1235.12"/>
<path data-id="215-293" d="M228.36,-1268.01,273.58,-1297.21"/>
<path data-id="216-256" d="M1600.52,-39.24,1629.97,-105.91"/>
<path data-id="217-260" d="M1517.85,-14.05,1436.56,-21.76"/>
<path data-id="218-235" d="M709.13,-204.85,663.92,-252.31"/>
<path data-id="219-221" d="M797.19,-1070.21,617.89,-1088.66"/>
<path data-id="219-263" d="M797.19,-1070.21,664.41,-994.28"/>
<path data-id="220-242" d="M591.10,-1629.27,560.65,-1650.17"/>
<path data-id="221-229" d="M617.89,-1088.66,629.27,-996.78"/>
<path data-id="221-273" d="M617.89,-1088.66,623.48,-1204.27"/>
<path data-id="222-257" d="M251.10,-1657.26,171.38,-1520.39"/>
<path data-id="224-231" d="M724.00,-1394.43,828.13,-1345.66"/>
<path data-id="225-246" d="M1321.93,-1654.42,1389.30,-1767.78"/>
<path data-id="225-289" d="M1321.93,-1654.42,1310.89,-1588.66"/>
<path data-id="226-291" d="M1415.12,-528.85,1450.04,-504.93"/>
<path data-id="226-309" d="M1415.12,-528.85,1362.75,-466.29"/>
<path data-id="227-253" d="M1581.24,-446.22,1546.09,-450.72"/>
<path data-id="228-247" d="M1441.61,-950.11,1507.37,-814.32"/>
<path data-id="229-259" d="M629.27,-996.78,593.53,-962.17"/>
<path data-id="229-263" d="M629.27,-996.78,664.41,-994.28"/>
<path data-id="230-284" d="M1052.15,-368.38,1050.80,-591.88"/>
<path data-id="234-309" d="M1302.43,-434.70,1362.75,-466.29"/>
<path data-id="235-281" d="M663.92,-252.31,580.50,-262.67"/>
<path data-id="237-277" d="M925.62,-712.64,851.76,-758.34"/>
<path data-id="237-311" d="M925.62,-712.64,912.64,-851.45"/>
<path data-id="239-323" d="M1798.86,-881.06,1694.65,-828.33"/>
<path data-id="241-274" d="M909.38,-1780.47,901.68,-1745.44"/>
<path data-id="242-308" d="M560.65,-1650.17,494.79,-1730.70"/>
<path data-id="245-295" d="M148.53,-1650.42,111.06,-1694.87"/>
<path data-id="248-301" d="M1000.46,-1149.02,898.17,-1149.47"/>
<path data-id="248-303" d="M1000.46,-1149.02,1117.03,-1119.22"/>
<path data-id="248-310" d="M1000.46,-1149.02,1031.10,-1008.64"/>
<path data-id="250-255" d="M1138.99,-1005.18,1171.64,-991.52"/>
<path data-id="250-303" d="M1138.99,-1005.18,1117.03,-1119.22"/>
<path data-id="259-270" d="M593.53,-962.17,509.48,-915.99"/>
<path data-id="259-278" d="M593.53,-962.17,648.40,-822.95"/>
<path data-id="261-262" d="M1085.46,-1590.91,1027.06,-1660.33"/>
<path data-id="263-292" d="M664.41,-994.28,766.17,-908.72"/>
<path data-id="264-267" d="M657.74,-26.93,640.34,-64.66"/>
<path data-id="265-305" d="M324.22,-716.33,354.55,-743.87"/>
<path data-id="266-315" d="M358.60,-1490.83,396.30,-1550.14"/>
<path data-id="268-307" d="M667.95,-482.11,632.87,-526.63"/>
<path data-id="271-275" d="M1645.14,-1009.27,1593.33,-1095.23"/>
<path data-id="272-308" d="M485.62,-1768.30,494.79,-1730.70"/>
<path data-id="277-311" d="M851.76,-758.34,912.64,-851.45"/>
<path data-id="278-292" d="M648.40,-822.95,766.17,-908.72"/>
<path data-id="278-322" d="M648.40,-822.95,594.65,-750.91"/>
<path data-id="279-280" d="M1595.83,-592.25,1720.42,-525.05"/>
<path data-id="281-317" d="M580.50,-262.67,442.30,-293.82"/>
<path data-id="283-299" d="M186.64,-203.65,127.59,-355.15"/>
<path data-id="284-288" d="M1050.80,-591.88,1053.85,-628.48"/>
<path data-id="284-294" d="M1050.80,-591.88,944.96,-610.61"/>
<path data-id="288-294" d="M1053.85,-628.48,944.96,-610.61"/>
<path data-id="290-297" d="M104.83,-962.44,27.51,-1021.38"/>
<path data-id="290-304" d="M104.83,-962.44,76.61,-811.68"/>
<path data-id="290-312" d="M104.83,-962.44,194.35,-958.70"/>
<path data-id="296-321" d="M454.15,-1198.71,503.30,-1203.56"/>
<path data-id="298-302" d="M1773.12,-1064.12,1743.33,-1116.34"/>
<path data-id="299-318" d="M127.59,-355.15,3.80,-399.61"/>
<path data-id="300-301" d="M837.69,-1177.08,898.17,-1149.47"/>
<path data-id="313-318" d="M16.21,-422.82,3.80,-399.61"/>
<path data-id="319-320" d="M1469.18,-1435.92,1518.57,-1415.23"/>
<circle data-id="0" cx="1168.40" cy="-1282.65" r="10.00px"/>
<text data-id="0" x="1168.40" y="-1282.65">R0</text>
<circle data-id="1" cx="479.28" cy="-823.13" r="10.00px"/>
<text data-id="1" x="479.28" y="-823.13">R1</text>
<circle data-id="2" cx="768.59" cy="-1180.16" r="10.00px"/>
<text data-id="2" x="768.59" y="-1180.16">R2</text>
<circle data-id="3" cx="1264.19" cy="-1469.09" r="10.00px"/>
<text data-id="3" x="1264.19" y="-1469.09">R3</text>
<circle data-id="4" cx="500.94" cy="-750.12" r="10.00px"/>
<text data-id="4" x="500.94" y="-750.12">R4</text>
<circle data-id="5" cx="791.55" cy="-1605.41" r="10.00px"/>
<text data-id="5" x="791.55" y="-1605.41">R5</text>
<circle data-id="6" cx="602.83" cy="-1517.89" r="10.00px"/>
<text data-id="6" x="602.83" y="-1517.89">R6</text>
<circle data-id="7" cx="665.40" cy="-1757.49" r="10.00px"/>
<text data-id="7" x="665.40" y="-1757.49">R7</text>
<circle data-id="8" cx="895.62" cy="-1586.75" r="10.00px"/>
<text data-id="8" x="895.62" y="-1586.75">R8</text>
<circle data-id="9" cx="1367.91" cy="-430.29" r="10.00px"/>
<text data-id="9" x="1367.91" y="-430.29">R9</text>
<circle data-id="10" cx="1657.53" cy="-1565.60" r="10.00px"/>
<text data-id="10" x="1657.53" y="-1565.60">R10</text>
<circle data-id="11" cx="118.22" cy="-740.05" r="10.00px"/>
<text data-id="11" x="118.22" y="-740.05">R11</text>
<circle data-id="12" cx="1370.08" cy="-1596.12" r="10.00px"/>
<text data-id="12" x="1370.08" y="-1596.12">R12</text>
<circle data-id="13" cx="794.40" cy="-937.63" r="10.00px"/>
<text data-id="13" x="794.40" y="-937.63">R13</text>
<circle data-id="14" cx="1268.68" cy="-533.19" r="10.00px"/>
<text data-id="14" x="1268.68" y="-533.19">R14</text>
<circle data-id="15" cx="796.93" cy="-1122.88" r="10.00px"/>
<text data-id="15" x="796.93" y="-1122.88">R15</text>
<circle data-id="16" cx="1335.42" cy="-215.86" r="10.00px"/>
<text data-id="16" x="1335.42" y="-215.86">R16</text>
<circle data-id="17" cx="1713.85" cy="-1262.21" r="10.00px"/>
<text data-id="17" x="1713.85" y="-1262.21">R17</text>
<circle data-id="18" cx="929.89" cy="-356.38" r="10.00px"/>
<text data-id="18" x="929.89" y="-356.38">R18</text>
<circle data-id="19" cx="1166.26" cy="-903.49" r="10.00px"/>
<text data-id="19" x="1166.26" y="-903.49">R19</text>
<circle data-id="20" cx="616.86" cy="-1596.90" r="10.00px"/>
<text data-id="20" x="616.86" y="-1596.90">R20</text>
<circle data-id="21" cx="1754.13" cy="-929.22" r="10.00px"/>
<text data-id="21" x="1754.13" y="-929.22">R21</text>
<circle data-id="22" cx="108.78" cy="-792.97" r="10.00px"/>
<text data-id="22" x="108.78" y="-792.97">R22</text>
<circle data-id="23" cx="1333.71" cy="-811.27" r="10.00px"/>
<text data-id="23" x="1333.71" y="-811.27">R23</text>
<circle data-id="24" cx="1169.66" cy="-216.43" r="10.00px"/>
<text data-id="24" x="1169.66" y="-216.43">R24</text>
<circle data-id="25" cx="404.35" cy="-1336.28" r="10.00px"/>
<text data-id="25" x="404.35" y="-1336.28">R25</text>
<circle data-id="26" cx="613.18" cy="-1744.40" r="10.00px"/>
<text data-id="26" x="613.18" y="-1744.40">R26</text>
<circle data-id="27" cx="677.44" cy="-185.97" r="10.00px"/>
<text data-id="27" x="677.44" y="-185.97">R27</text>
<circle data-id="28" cx="1299.49" cy="-1455.39" r="10.00px"/>
<text data-id="28" x="1299.49" y="-1455.39">R28</text>
<circle data-id="29" cx="1014.12" cy="-362.48" r="10.00px"/>
<text data-id="29" x="1014.12" y="-362.48">R29</text>
<circle data-id="30" cx="610.86" cy="-1434.58" r="10.00px"/>
<text data-id="30" x="610.86" y="-1434.58">R30</text>
<circle data-id="31" cx="919.08" cy="-1253.11" r="10.00px"/>
<text data-id="31" x="919.08" y="-1253.11">R31</text>
<circle data-id="32" cx="1613.33" cy="-1239.33" r="10.00px"/>
<text data-id="32" x="1613.33" y="-1239.33">R32</text>
<circle data-id="33" cx="348.72" cy="-19.66" r="10.00px"/>
<text data-id="33" x="348.72" y="-19.66">R33</text>
<circle data-id="34" cx="1344.82" cy="-862.87" r="10.00px"/>
<text data-id="34" x="1344.82" y="-862.87">R34</text>
<circle data-id="35" cx="1084.89" cy="-845.32" r="10.00px"/>
<text data-id="35" x="1084.89" y="-845.32">R35</text>
<circle data-id="36" cx="1405.11" cy="-1057.17" r="10.00px"/>
<text data-id="36" x="1405.11" y="-1057.17">R36</text>
<circle data-id="37" cx="1663.40" cy="-1454.71" r="10.00px"/>
<text data-id="37" x="1663.40" y="-1454.71">R37</text>
<circle data-id="38" cx="1516.57" cy="-1246.23" r="10.00px"/>
<text data-id="38" x="1516.57" y="-1246.23">R38</text>
<circle data-id="39" cx="278.75" cy="-1765.08" r="10.00px"/>
<text data-id="39" x="278.75" y="-1765.08">R39</text>
<circle data-id="40" cx="1567.39" cy="-1593.81" r="10.00px"/>
<text data-id="40" x="1567.39" y="-1593.81">R40</text>
<circle data-id="41" cx="192.31" cy="-798.65" r="10.00px"/>
<text data-id="41" x="192.31" y="-798.65">R41</text>
<circle data-id="42" cx="1305.45" cy="-471.26" r="10.00px"/>
<text data-id="42" x="1305.45" y="-471.26">R42</text>
<circle data-id="43" cx="364.55" cy="-163.30" r="10.00px"/>
<text data-id="43" x="364.55" y="-163.30">R43</text>
<circle data-id="44" cx="171.53" cy="-1388.92" r="10.00px"/>
<text data-id="44" x="171.53" y="-1388.92">R44</text>
<circle data-id="45" cx="18.49" cy="-533.34" r="10.00px"/>
<text data-id="45" x="18.49" y="-533.34">R45</text>
<circle data-id="46" cx="673.03" cy="-66.52" r="10.00px"/>
<text data-id="46" x="673.03" y="-66.52">R46</text>
<circle data-id="47" cx="281.16" cy="-34.03" r="10.00px"/>
<text data-id="47" x="281.16" y="-34.03">R47</text>
<circle data-id="48" cx="1436.14" cy="-1419.67" r="10.00px"/>
<text data-id="48" x="1436.14" y="-1419.67">R48</text>
<circle data-id="49" cx="801.25" cy="-390.26" r="10.00px"/>
<text data-id="49" x="801.25" y="-390.26">R49</text>
<circle data-id="50" cx="1527.62" cy="-961.77" r="10.00px"/>
<text data-id="50" x="1527.62" y="-961.77">R50</text>
<circle data-id="51" cx="1229.35" cy="-97.31" r="10.00px"/>
<text data-id="51" x="1229.35" y="-97.31">R51</text>
<circle data-id="52" cx="1732.95" cy="-1235.74" r="10.00px"/>
<text data-id="52" x="1732.95" y="-1235.74">R52</text>
<circle data-id="53" cx="374.79" cy="-1432.86" r="10.00px"/>
<text data-id="53" x="374.79" y="-1432.86">R53</text>
<circle data-id="54" cx="441.15" cy="-1272.27" r="10.00px"/>
<text data-id="54" x="441.15" y="-1272.27">R54</text>
<circle data-id="55" cx="1549.16" cy="-61.15" r="10.00px"/>
<text data-id="55" x="1549.16" y="-61.15">R55</text>
<circle data-id="56" cx="1338.65" cy="-540.88" r="10.00px"/>
<text data-id="56" x="1338.65" y="-540.88">R56</text>
<circle data-id="57" cx="1532.05" cy="-1280.36" r="10.00px"/>
<text data-id="57" x="1532.05" y="-1280.36">R57</text>
<circle data-id="58" cx="1686.91" cy="-190.06" r="10.00px"/>
<text data-id="58" x="1686.91" y="-190.06">R58</text>
<circle data-id="59" cx="528.39" cy="-729.08" r="10.00px"/>
<text data-id="59" x="528.39" y="-729.08">R59</text>
<circle data-id="60" cx="12.57" cy="-885.65" r="10.00px"/>
<text data-id="60" x="12.57" y="-885.65">R60</text>
<circle data-id="61" cx="1439.80" cy="-1712.03" r="10.00px"/>
<text data-id="61" x="1439.80" y="-1712.03">R61</text>
<circle data-id="62" cx="1027.85" cy="-1369.94" r="10.00px"/>
<text data-id="62" x="1027.85" y="-1369.94">R62</text>
<circle data-id="63" cx="1057.58" cy="-1013.12" r="10.00px"/>
<text data-id="63" x="1057.58" y="-1013.12">R63</text>
<circle data-id="64" cx="1583.42" cy="-822.48" r="10.00px"/>
<text data-id="64" x="1583.42" y="-822.48">R64</text>
<circle data-id="65" cx="983.30" cy="-1191.68" r="10.00px"/>
<text data-id="65" x="983.30" y="-1191.68">R65</text>
<circle data-id="66" cx="271.44" cy="-657.80" r="10.00px"/>
<text data-id="66" x="271.44" y="-657.80">R66</text>
<circle data-id="67" cx="262.37" cy="-524.78" r="10.00px"/>
<text data-id="67" x="262.37" y="-524.78">R67</text>
<circle data-id="68" cx="972.53" cy="-1376.23" r="10.00px"/>
<text data-id="68" x="972.53" y="-1376.23">R68</text>
<circle data-id="69" cx="1588.96" cy="-1151.02" r="10.00px"/>
<text data-id="69" x="1588.96" y="-1151.02">R69</text>
<circle data-id="70" cx="1539.79" cy="-392.04" r="10.00px"/>
<text data-id="70" x="1539.79" y="-392.04">R70</text>
<circle data-id="71" cx="406.91" cy="-1754.40" r="10.00px"/>
<text data-id="71" x="406.91" y="-1754.40">R71</text>
<circle data-id="72" cx="301.98" cy="-1055.33" r="10.00px"/>
<text data-id="72" x="301.98" y="-1055.33">R72</text>
<circle data-id="73" cx="1065.17" cy="-1546.96" r="10.00px"/>
<text data-id="73" x="1065.17" y="-1546.96">R73</text>
<circle data-id="74" cx="288.51" cy="-158.05" r="10.00px"/>
<text data-id="74" x="288.51" y="-158.05">R74</text>
<circle data-id="75" cx="1454.28" cy="-1582.43" r="10.00px"/>
<text data-id="75" x="1454.28" y="-1582.43">R75</text>
<circle data-id="76" cx="443.84" cy="-107.00" r="10.00px"/>
<text data-id="76" x="443.84" y="-107.00">R76</text>
<circle data-id="77" cx="362.09" cy="-1584.33" r="10.00px"/>
<text data-id="77" x="362.09" y="-1584.33">R77</text>
<circle data-id="78" cx="829.20" cy="-859.18" r="10.00px"/>
<text data-id="78" x="829.20" y="-859.18">R78</text>
<circle data-id="79" cx="1521.25" cy="-39.82" r="10.00px"/>
<text data-id="79" x="1521.25" y="-39.82">R79</text>
<circle data-id="80" cx="979.22" cy="-1664.94" r="10.00px"/>
<text data-id="80" x="979.22" y="-1664.94">R80</text>
<circle data-id="81" cx="492.73" cy="-134.09" r="10.00px"/>
<text data-id="81" x="492.73" y="-134.09">R81</text>
<circle data-id="82" cx="1516.38" cy="-288.89" r="10.00px"/>
<text data-id="82" x="1516.38" y="-288.89">R82</text>
<circle data-id="83" cx="436.05" cy="-15.63" r="10.00px"/>
<text data-id="83" x="436.05" y="-15.63">R83</text>
<circle data-id="84" cx="1263.62" cy="-1238.77" r="10.00px"/>
<text data-id="84" x="1263.62" y="-1238.77">R84</text>
<circle data-id="85" cx="1631.18" cy="-1119.37" r="10.00px"/>
<text data-id="85" x="1631.18" y="-1119.37">R85</text>
<circle data-id="86" cx="121.40" cy="-1035.96" r="10.00px"/>
<text data-id="86" x="121.40" y="-1035.96">R86</text>
<circle data-id="87" cx="235.07" cy="-441.85" r="10.00px"/>
<text data-id="87" x="235.07" y="-441.85">R87</text>
<circle data-id="88" cx="660.94" cy="-1663.72" r="10.00px"/>
<text data-id="88" x="660.94" y="-1663.72">R88</text>
<circle data-id="89" cx="442.03" cy="-1531.33" r="10.00px"/>
<text data-id="89" x="442.03" y="-1531.33">R89</text>
<circle data-id="90" cx="411.40" cy="-318.46" r="10.00px"/>
<text data-id="90" x="411.40" y="-318.46">R90</text>
<circle data-id="91" cx="1653.58" cy="-819.60" r="10.00px"/>
<text data-id="91" x="1653.58" y="-819.60">R91</text>
<circle data-id="92" cx="1189.92" cy="-65.25" r="10.00px"/>
<text data-id="92" x="1189.92" y="-65.25">R92</text>
<circle data-id="93" cx="1198.43" cy="-1356.68" r="10.00px"/>
<text data-id="93" x="1198.43" y="-1356.68">R93</text>
<circle data-id="94" cx="181.60" cy="-8.10" r="10.00px"/>
<text data-id="94" x="181.60" y="-8.10">R94</text>
<circle data-id="95" cx="1316.73" cy="-304.52" r="10.00px"/>
<text data-id="95" x="1316.73" y="-304.52">R95</text>
<circle data-id="96" cx="1414.58" cy="-400.25" r="10.00px"/>
<text data-id="96" x="1414.58" y="-400.25">R96</text>
<circle data-id="97" cx="1762.39" cy="-1292.25" r="10.00px"/>
<text data-id="97" x="1762.39" y="-1292.25">R97</text>
<circle data-id="98" cx="358.80" cy="-256.02" r="10.00px"/>
<text data-id="98" x="358.80" y="-256.02">R98</text>
<circle data-id="99" cx="272.78" cy="-482.30" r="10.00px"/>
<text data-id="99" x="272.78" y="-482.30">R99</text>
<circle data-id="100" cx="767.15" cy="-1493.99" r="10.00px"/>
<text data-id="100" x="767.15" y="-1493.99">R100</text>
<circle data-id="101" cx="1451.15" cy="-1276.85" r="10.00px"/>
<text data-id="101" x="1451.15" y="-1276.85">R101</text>
<circle data-id="102" cx="13.49" cy="-147.92" r="10.00px"/>
<text data-id="102" x="13.49" y="-147.92">R102</text>
<circle data-id="103" cx="1486.01" cy="-1467.32" r="10.00px"/>
<text data-id="103" x="1486.01" y="-1467.32">R103</text>
<circle data-id="104" cx="1487.20" cy="-1591.81" r="10.00px"/>
<text data-id="104" x="1487.20" y="-1591.81">R104</text>
<circle data-id="105" cx="415.86" cy="-379.22" r="10.00px"/>
<text data-id="105" x="415.86" y="-379.22">R105</text>
<circle data-id="106" cx="1350.39" cy="-739.25" r="10.00px"/>
<text data-id="106" x="1350.39" y="-739.25">R106</text>
<circle data-id="107" cx="560.05" cy="-831.62" r="10.00px"/>
<text data-id="107" x="560.05" y="-831.62">R107</text>
<circle data-id="108" cx="128.02" cy="-1596.64" r="10.00px"/>
<text data-id="108" x="128.02" y="-1596.64">R108</text>
<circle data-id="109" cx="1525.81" cy="-1374.28" r="10.00px"/>
<text data-id="109" x="1525.81" y="-1374.28">R109</text>
<circle data-id="110" cx="1198.65" cy="-1452.81" r="10.00px"/>
<text data-id="110" x="1198.65" y="-1452.81">R110</text>
<circle data-id="111" cx="1347.75" cy="-675.12" r="10.00px"/>
<text data-id="111" x="1347.75" y="-675.12">R111</text>
<circle data-id="112" cx="253.80" cy="-1151.72" r="10.00px"/>
<text data-id="112" x="253.80" y="-1151.72">R112</text>
<circle data-id="113" cx="113.78" cy="-1552.83" r="10.00px"/>
<text data-id="113" x="113.78" y="-1552.83">R113</text>
<circle data-id="114" cx="1085.71" cy="-786.04" r="10.00px"/>
<text data-id="114" x="1085.71" y="-786.04">R114</text>
<circle data-id="115" cx="625.44" cy="-383.94" r="10.00px"/>
<text data-id="115" x="625.44" y="-383.94">R115</text>
<circle data-id="116" cx="978.73" cy="-689.85" r="10.00px"/>
<text data-id="116" x="978.73" y="-689.85">R116</text>
<circle data-id="117" cx="1560.43" cy="-552.70" r="10.00px"/>
<text data-id="117" x="1560.43" y="-552.70">R117</text>
<circle data-id="118" cx="1440.41" cy="-1524.67" r="10.00px"/>
<text data-id="118" x="1440.41" y="-1524.67">R118</text>
<circle data-id="119" cx="318.86" cy="-1649.88" r="10.00px"/>
<text data-id="119" x="318.86" y="-1649.88">R119</text>
<circle data-id="120" cx="1155.66" cy="-1710.21" r="10.00px"/>
<text data-id="120" x="1155.66" y="-1710.21">R120</text>
<circle data-id="121" cx="288.54" cy="-1104.73" r="10.00px"/>
<text data-id="121" x="288.54" y="-1104.73">R121</text>
<circle data-id="122" cx="1631.54" cy="-914.40" r="10.00px"/>
<text data-id="122" x="1631.54" y="-914.40">R122</text>
<circle data-id="123" cx="668.32" cy="-1568.03" r="10.00px"/>
<text data-id="123" x="668.32" y="-1568.03">R123</text>
<circle data-id="124" cx="184.78" cy="-730.03" r="10.00px"/>
<text data-id="124" x="184.78" y="-730.03">R124</text>
<circle data-id="125" cx="865.55" cy="-295.13" r="10.00px"/>
<text data-id="125" x="865.55" y="-295.13">R125</text>
<circle data-id="126" cx="331.68" cy="-221.84" r="10.00px"/>
<text data-id="126" x="331.68" y="-221.84">R126</text>
<circle data-id="127" cx="540.47" cy="-1183.25" r="10.00px"/>
<text data-id="127" x="540.47" y="-1183.25">R127</text>
<circle data-id="128" cx="577.52" cy="-455.32" r="10.00px"/>
<text data-id="128" x="577.52" y="-455.32">R128</text>
<circle data-id="129" cx="1127.09" cy="-704.77" r="10.00px"/>
<text data-id="129" x="1127.09" y="-704.77">R129</text>
<circle data-id="130" cx="1793.32" cy="-1628.35" r="10.00px"/>
<text data-id="130" x="1793.32" y="-1628.35">R130</text>
<circle data-id="131" cx="1317.09" cy="-906.76" r="10.00px"/>
<text data-id="131" x="1317.09" y="-906.76">R131</text>
<circle data-id="132" cx="69.66" cy="-1503.60" r="10.00px"/>
<text data-id="132" x="69.66" y="-1503.60">R132</text>
<circle data-id="133" cx="1741.31" cy="-1059.47" r="10.00px"/>
<text data-id="133" x="1741.31" y="-1059.47">R133</text>
<circle data-id="134" cx="1272.43" cy="-1098.71" r="10.00px"/>
<text data-id="134" x="1272.43" y="-1098.71">R134</text>
<circle data-id="135" cx="264.82" cy="-246.89" r="10.00px"/>
<text data-id="135" x="264.82" y="-246.89">R135</text>
<circle data-id="136" cx="321.45" cy="-1527.76" r="10.00px"/>
<text data-id="136" x="321.45" y="-1527.76">R136</text>
<circle data-id="137" cx="873.79" cy="-902.17" r="10.00px"/>
<text data-id="137" x="873.79" y="-902.17">R137</text>
<circle data-id="138" cx="270.72" cy="-97.85" r="10.00px"/>
<text data-id="138" x="270.72" y="-97.85">R138</text>
<circle data-id="139" cx="102.21" cy="-693.22" r="10.00px"/>
<text data-id="139" x="102.21" y="-693.22">R139</text>
<circle data-id="140" cx="1731.91" cy="-714.59" r="10.00px"/>
<text data-id="140" x="1731.91" y="-714.59">R140</text>
<circle data-id="141" cx="1624.73" cy="-164.85" r="10.00px"/>
<text data-id="141" x="1624.73" y="-164.85">R141</text>
<circle data-id="142" cx="669.88" cy="-1408.22" r="10.00px"/>
<text data-id="142" x="669.88" y="-1408.22">R142</text>
<circle data-id="143" cx="1074.29" cy="-739.09" r="10.00px"/>
<text data-id="143" x="1074.29" y="-739.09">R143</text>
<circle data-id="144" cx="1048.69" cy="-743.89" r="10.00px"/>
<text data-id="144" x="1048.69" y="-743.89">R144</text>
<circle data-id="145" cx="1016.81" cy="-769.26" r="10.00px"/>
<text data-id="145" x="1016.81" y="-769.26">R145</text>
<circle data-id="146" cx="1692.41" cy="-314.87" r="10.00px"/>
<text data-id="146" x="1692.41" y="-314.87">R146</text>
<circle data-id="147" cx="790.06" cy="-1539.83" r="10.00px"/>
<text data-id="147" x="790.06" y="-1539.83">R147</text>
<circle data-id="148" cx="769.68" cy="-207.62" r="10.00px"/>
<text data-id="148" x="769.68" y="-207.62">R148</text>
<circle data-id="149" cx="1195.18" cy="-361.72" r="10.00px"/>
<text data-id="149" x="1195.18" y="-361.72">R149</text>
<circle data-id="150" cx="277.16" cy="-1349.48" r="10.00px"/>
<text data-id="150" x="277.16" y="-1349.48">R150</text>
<circle data-id="151" cx="1576.20" cy="-645.08" r="10.00px"/>
<text data-id="151" x="1576.20" y="-645.08">R151</text>
<circle data-id="152" cx="635.20" cy="-1795.12" r="10.00px"/>
<text data-id="152" x="635.20" y="-1795.12">R152</text>
<circle data-id="153" cx="815.12" cy="-1197.14" r="10.00px"/>
<text data-id="153" x="815.12" y="-1197.14">R153</text>
<circle data-id="154" cx="914.73" cy="-531.26" r="10.00px"/>
<text data-id="154" x="914.73" y="-531.26">R154</text>
<circle data-id="155" cx="720.21" cy="-768.82" r="10.00px"/>
<text data-id="155" x="720.21" y="-768.82">R155</text>
<circle data-id="156" cx="1364.82" cy="-189.90" r="10.00px"/>
<text data-id="156" x="1364.82" y="-189.90">R156</text>
<circle data-id="157" cx="380.27" cy="-1231.30" r="10.00px"/>
<text data-id="157" x="380.27" y="-1231.30">R157</text>
<circle data-id="158" cx="84.34" cy="-1737.91" r="10.00px"/>
<text data-id="158" x="84.34" y="-1737.91">R158</text>
<circle data-id="159" cx="1340.30" cy="-1250.92" r="10.00px"/>
<text data-id="159" x="1340.30" y="-1250.92">R159</text>
<circle data-id="160" cx="1400.75" cy="-1556.57" r="10.00px"/>
<text data-id="160" x="1400.75" y="-1556.57">R160</text>
<circle data-id="161" cx="0.56" cy="-612.33" r="10.00px"/>
<text data-id="161" x="0.56" y="-612.33">R161</text>
<circle data-id="162" cx="1018.02" cy="-887.39" r="10.00px"/>
<text data-id="162" x="1018.02" y="-887.39">R162</text>
<circle data-id="163" cx="75.91" cy="-1369.87" r="10.00px"/>
<text data-id="163" x="75.91" y="-1369.87">R163</text>
<circle data-id="164" cx="960.40" cy="-1304.01" r="10.00px"/>
<text data-id="164" x="960.40" y="-1304.01">R164</text>
<circle data-id="165" cx="91.34" cy="-205.99" r="10.00px"/>
<text data-id="165" x="91.34" y="-205.99">R165</text>
<circle data-id="166" cx="1636.89" cy="-1722.20" r="10.00px"/>
<text data-id="166" x="1636.89" y="-1722.20">R166</text>
<circle data-id="167" cx="114.33" cy="-1779.52" r="10.00px"/>
<text data-id="167" x="114.33" y="-1779.52">R167</text>
<circle data-id="168" cx="799.30" cy="-1437.42" r="10.00px"/>
<text data-id="168" x="799.30" y="-1437.42">R168</text>
<circle data-id="169" cx="1439.17" cy="-740.08" r="10.00px"/>
<text data-id="169" x="1439.17" y="-740.08">R169</text>
<circle data-id="170" cx="1197.68" cy="-252.37" r="10.00px"/>
<text data-id="170" x="1197.68" y="-252.37">R170</text>
<circle data-id="171" cx="406.12" cy="-557.16" r="10.00px"/>
<text data-id="171" x="406.12" y="-557.16">R171</text>
<circle data-id="172" cx="483.17" cy="-75.45" r="10.00px"/>
<text data-id="172" x="483.17" y="-75.45">R172</text>
<circle data-id="173" cx="68.40" cy="-1396.06" r="10.00px"/>
<text data-id="173" x="68.40" y="-1396.06">R173</text>
<circle data-id="174" cx="1227.87" cy="-1104.57" r="10.00px"/>
<text data-id="174" x="1227.87" y="-1104.57">R174</text>
<circle data-id="175" cx="654.42" cy="-588.45" r="10.00px"/>
<text data-id="175" x="654.42" y="-588.45">R175</text>
<circle data-id="176" cx="235.14" cy="-856.09" r="10.00px"/>
<text data-id="176" x="235.14" y="-856.09">R176</text>
<circle data-id="177" cx="189.67" cy="-1096.03" r="10.00px"/>
<text data-id="177" x="189.67" y="-1096.03">R177</text>
<circle data-id="178" cx="265.14" cy="-1399.88" r="10.00px"/>
<text data-id="178" x="265.14" y="-1399.88">R178</text>
<circle data-id="179" cx="488.62" cy="-201.21" r="10.00px"/>
<text data-id="179" x="488.62" y="-201.21">R179</text>
<circle data-id="180" cx="564.07" cy="-170.81" r="10.00px"/>
<text data-id="180" x="564.07" y="-170.81">R180</text>
<circle data-id="181" cx="1795.89" cy="-1127.46" r="10.00px"/>
<text data-id="181" x="1795.89" y="-1127.46">R181</text>
<circle data-id="182" cx="1235.01" cy="-892.56" r="10.00px"/>
<text data-id="182" x="1235.01" y="-892.56">R182</text>
<circle data-id="183" cx="197.85" cy="-537.15" r="10.00px"/>
<text data-id="183" x="197.85" y="-537.15">R183</text>
<circle data-id="184" cx="115.43" cy="-543.58" r="10.00px"/>
<text data-id="184" x="115.43" y="-543.58">R184</text>
<circle data-id="185" cx="163.93" cy="-433.21" r="10.00px"/>
<text data-id="185" x="163.93" y="-433.21">R185</text>
<circle data-id="186" cx="1167.19" cy="-1491.25" r="10.00px"/>
<text data-id="186" x="1167.19" y="-1491.25">R186</text>
<circle data-id="187" cx="1070.60" cy="-93.16" r="10.00px"/>
<text data-id="187" x="1070.60" y="-93.16">R187</text>
<circle data-id="188" cx="237.46" cy="-1684.18" r="10.00px"/>
<text data-id="188" x="237.46" y="-1684.18">R188</text>
<circle data-id="189" cx="876.83" cy="-394.59" r="10.00px"/>
<text data-id="189" x="876.83" y="-394.59">R189</text>
<circle data-id="190" cx="1138.32" cy="-160.76" r="10.00px"/>
<text data-id="190" x="1138.32" y="-160.76">R190</text>
<circle data-id="191" cx="3.23" cy="-858.10" r="10.00px"/>
<text data-id="191" x="3.23" y="-858.10">R191</text>
<circle data-id="192" cx="317.14" cy="-409.93" r="10.00px"/>
<text data-id="192" x="317.14" y="-409.93">R192</text>
<circle data-id="193" cx="268.04" cy="-834.95" r="10.00px"/>
<text data-id="193" x="268.04" y="-834.95">R193</text>
<circle data-id="194" cx="553.25" cy="-205.46" r="10.00px"/>
<text data-id="194" x="553.25" y="-205.46">R194</text>
<circle data-id="195" cx="323.04" cy="-1120.56" r="10.00px"/>
<text data-id="195" x="323.04" y="-1120.56">R195</text>
<circle data-id="196" cx="1510.56" cy="-1787.34" r="10.00px"/>
<text data-id="196" x="1510.56" y="-1787.34">R196</text>
<circle data-id="197" cx="360.88" cy="-981.81" r="10.00px"/>
<text data-id="197" x="360.88" y="-981.81">R197</text>
<circle data-id="198" cx="40.58" cy="-1090.05" r="10.00px"/>
<text data-id="198" x="40.58" y="-1090.05">R198</text>
<circle data-id="199" cx="530.45" cy="-1035.17" r="10.00px"/>
<text data-id="199" x="530.45" y="-1035.17">R199</text>
<circle data-id="200" cx="240.86" cy="-169.62" r="10.00px"/>
<text data-id="200" x="240.86" y="-169.62">R200</text>
<circle data-id="201" cx="148.82" cy="-510.57" r="10.00px"/>
<text data-id="201" x="148.82" y="-510.57">R201</text>
<circle data-id="202" cx="673.92" cy="-1368.70" r="10.00px"/>
<text data-id="202" x="673.92" y="-1368.70">R202</text>
<circle data-id="203" cx="748.95" cy="-65.74" r="10.00px"/>
<text data-id="203" x="748.95" y="-65.74">R203</text>
<circle data-id="204" cx="1119.70" cy="-1491.47" r="10.00px"/>
<text data-id="204" x="1119.70" y="-1491.47">R204</text>
<circle data-id="205" cx="1689.72" cy="-427.73" r="10.00px"/>
<text data-id="205" x="1689.72" y="-427.73">R205</text>
<circle data-id="206" cx="1515.33" cy="-495.69" r="10.00px"/>
<text data-id="206" x="1515.33" y="-495.69">R206</text>
<circle data-id="207" cx="1458.70" cy="-644.38" r="10.00px"/>
<text data-id="207" x="1458.70" y="-644.38">R207</text>
<circle data-id="208" cx="1170.62" cy="-561.43" r="10.00px"/>
<text data-id="208" x="1170.62" y="-561.43">R208</text>
<circle data-id="209" cx="97.19" cy="-438.55" r="10.00px"/>
<text data-id="209" x="97.19" y="-438.55">R209</text>
<circle data-id="210" cx="504.40" cy="-364.28" r="10.00px"/>
<text data-id="210" x="504.40" y="-364.28">R210</text>
<circle data-id="211" cx="1431.20" cy="-132.99" r="10.00px"/>
<text data-id="211" x="1431.20" y="-132.99">R211</text>
<circle data-id="212" cx="848.13" cy="-33.32" r="10.00px"/>
<text data-id="212" x="848.13" y="-33.32">R212</text>
<circle data-id="213" cx="1684.82" cy="-1374.57" r="10.00px"/>
<text data-id="213" x="1684.82" y="-1374.57">R213</text>
<circle data-id="214" cx="179.30" cy="-654.70" r="10.00px"/>
<text data-id="214" x="179.30" y="-654.70">R214</text>
<circle data-id="215" cx="228.36" cy="-1268.01" r="10.00px"/>
<text data-id="215" x="228.36" y="-1268.01">R215</text>
<circle data-id="216" cx="1600.52" cy="-39.24" r="10.00px"/>
<text data-id="216" x="1600.52" y="-39.24">R216</text>
<circle data-id="217" cx="1517.85" cy="-14.05" r="10.00px"/>
<text data-id="217" x="1517.85" y="-14.05">R217</text>
<circle data-id="218" cx="709.13" cy="-204.85" r="10.00px"/>
<text data-id="218" x="709.13" y="-204.85">R218</text>
<circle data-id="219" cx="797.19" cy="-1070.21" r="10.00px"/>
<text data-id="219" x="797.19" y="-1070.21">R219</text>
<circle data-id="220" cx="591.10" cy="-1629.27" r="10.00px"/>
<text data-id="220" x="591.10" y="-1629.27">R220</text>
<circle data-id="221" cx="617.89" cy="-1088.66" r="10.00px"/>
<text data-id="221" x="617.89" y="-1088.66">R221</text>
<circle data-id="222" cx="251.10" cy="-1657.26" r="10.00px"/>
<text data-id="222" x="251.10" y="-1657.26">R222</text>
<circle data-id="223" cx="348.46" cy="-1611.37" r="10.00px"/>
<text data-id="223" x="348.46" y="-1611.37">R223</text>
<circle data-id="224" cx="724.00" cy="-1394.43" r="10.00px"/>
<text data-id="224" x="724.00" y="-1394.43">R224</text>
<circle data-id="225" cx="1321.93" cy="-1654.42" r="10.00px"/>
<text data-id="225" x="1321.93" y="-1654.42">R225</text>
<circle data-id="226" cx="1415.12" cy="-528.85" r="10.00px"/>
<text data-id="226" x="1415.12" y="-528.85">R226</text>
<circle data-id="227" cx="1581.24" cy="-446.22" r="10.00px"/>
<text data-id="227" x="1581.24" y="-446.22">R227</text>
<circle data-id="228" cx="1441.61" cy="-950.11" r="10.00px"/>
<text data-id="228" x="1441.61" y="-950.11">R228</text>
<circle data-id="229" cx="629.27" cy="-996.78" r="10.00px"/>
<text data-id="229" x="629.27" y="-996.78">R229</text>
<circle data-id="230" cx="1052.15" cy="-368.38" r="10.00px"/>
<text data-id="230" x="1052.15" y="-368.38">R230</text>
<circle data-id="231" cx="828.13" cy="-1345.66" r="10.00px"/>
<text data-id="231" x="828.13" y="-1345.66">R231</text>
<circle data-id="232" cx="395.54" cy="-59.28" r="10.00px"/>
<text data-id="232" x="395.54" y="-59.28">R232</text>
<circle data-id="233" cx="1639.42" cy="-1605.59" r="10.00px"/>
<text data-id="233" x="1639.42" y="-1605.59">R233</text>
<circle data-id="234" cx="1302.43" cy="-434.70" r="10.00px"/>
<text data-id="234" x="1302.43" y="-434.70">R234</text>
<circle data-id="235" cx="663.92" cy="-252.31" r="10.00px"/>
<text data-id="235" x="663.92" y="-252.31">R235</text>
<circle data-id="236" cx="1400.74" cy="-1618.37" r="10.00px"/>
<text data-id="236" x="1400.74" y="-1618.37">R236</text>
<circle data-id="237" cx="925.62" cy="-712.64" r="10.00px"/>
<text data-id="237" x="925.62" y="-712.64">R237</text>
<circle data-id="238" cx="902.66" cy="-1498.16" r="10.00px"/>
<text data-id="238" x="902.66" y="-1498.16">R238</text>
<circle data-id="239" cx="1798.86" cy="-881.06" r="10.00px"/>
<text data-id="239" x="1798.86" y="-881.06">R239</text>
<circle data-id="240" cx="210.73" cy="-430.64" r="10.00px"/>
<text data-id="240" x="210.73" y="-430.64">R240</text>
<circle data-id="241" cx="909.38" cy="-1780.47" r="10.00px"/>
<text data-id="241" x="909.38" y="-1780.47">R241</text>
<circle data-id="242" cx="560.65" cy="-1650.17" r="10.00px"/>
<text data-id="242" x="560.65" y="-1650.17">R242</text>
<circle data-id="243" cx="1202.25" cy="-662.52" r="10.00px"/>
<text data-id="243" x="1202.25" y="-662.52">R243</text>
<circle data-id="244" cx="9.71" cy="-1235.12" r="10.00px"/>
<text data-id="244" x="9.71" y="-1235.12">R244</text>
<circle data-id="245" cx="148.53" cy="-1650.42" r="10.00px"/>
<text data-id="245" x="148.53" y="-1650.42">R245</text>
<circle data-id="246" cx="1389.30" cy="-1767.78" r="10.00px"/>
<text data-id="246" x="1389.30" y="-1767.78">R246</text>
<circle data-id="247" cx="1507.37" cy="-814.32" r="10.00px"/>
<text data-id="247" x="1507.37" y="-814.32">R247</text>
<circle data-id="248" cx="1000.46" cy="-1149.02" r="10.00px"/>
<text data-id="248" x="1000.46" y="-1149.02">R248</text>
<circle data-id="249" cx="1143.96" cy="-830.68" r="10.00px"/>
<text data-id="249" x="1143.96" y="-830.68">R249</text>
<circle data-id="250" cx="1138.99" cy="-1005.18" r="10.00px"/>
<text data-id="250" x="1138.99" y="-1005.18">R250</text>
<circle data-id="251" cx="1799.14" cy="-1595.66" r="10.00px"/>
<text data-id="251" x="1799.14" y="-1595.66">R251</text>
<circle data-id="252" cx="58.71" cy="-1736.56" r="10.00px"/>
<text data-id="252" x="58.71" y="-1736.56">R252</text>
<circle data-id="253" cx="1546.09" cy="-450.72" r="10.00px"/>
<text data-id="253" x="1546.09" y="-450.72">R253</text>
<circle data-id="254" cx="1530.64" cy="-1739.91" r="10.00px"/>
<text data-id="254" x="1530.64" y="-1739.91">R254</text>
<circle data-id="255" cx="1171.64" cy="-991.52" r="10.00px"/>
<text data-id="255" x="1171.64" y="-991.52">R255</text>
<circle data-id="256" cx="1629.97" cy="-105.91" r="10.00px"/>
<text data-id="256" x="1629.97" y="-105.91">R256</text>
<circle data-id="257" cx="171.38" cy="-1520.39" r="10.00px"/>
<text data-id="257" x="171.38" y="-1520.39">R257</text>
<circle data-id="258" cx="646.74" cy="-1459.53" r="10.00px"/>
<text data-id="258" x="646.74" y="-1459.53">R258</text>
<circle data-id="259" cx="593.53" cy="-962.17" r="10.00px"/>
<text data-id="259" x="593.53" y="-962.17">R259</text>
<circle data-id="260" cx="1436.56" cy="-21.76" r="10.00px"/>
<text data-id="260" x="1436.56" y="-21.76">R260</text>
<circle data-id="261" cx="1085.46" cy="-1590.91" r="10.00px"/>
<text data-id="261" x="1085.46" y="-1590.91">R261</text>
<circle data-id="262" cx="1027.06" cy="-1660.33" r="10.00px"/>
<text data-id="262" x="1027.06" y="-1660.33">R262</text>
<circle data-id="263" cx="664.41" cy="-994.28" r="10.00px"/>
<text data-id="263" x="664.41" y="-994.28">R263</text>
<circle data-id="264" cx="657.74" cy="-26.93" r="10.00px"/>
<text data-id="264" x="657.74" y="-26.93">R264</text>
<circle data-id="265" cx="324.22" cy="-716.33" r="10.00px"/>
<text data-id="265" x="324.22" y="-716.33">R265</text>
<circle data-id="266" cx="358.60" cy="-1490.83" r="10.00px"/>
<text data-id="266" x="358.60" y="-1490.83">R266</text>
<circle data-id="267" cx="640.34" cy="-64.66" r="10.00px"/>
<text data-id="267" x="640.34" y="-64.66">R267</text>
<circle data-id="268" cx="667.95" cy="-482.11" r="10.00px"/>
<text data-id="268" x="667.95" y="-482.11">R268</text>
<circle data-id="269" cx="21.05" cy="-635.92" r="10.00px"/>
<text data-id="269" x="21.05" y="-635.92">R269</text>
<circle data-id="270" cx="509.48" cy="-915.99" r="10.00px"/>
<text data-id="270" x="509.48" y="-915.99">R270</text>
<circle data-id="271" cx="1645.14" cy="-1009.27" r="10.00px"/>
<text data-id="271" x="1645.14" y="-1009.27">R271</text>
<circle data-id="272" cx="485.62" cy="-1768.30" r="10.00px"/>
<text data-id="272" x="485.62" y="-1768.30">R272</text>
<circle data-id="273" cx="623.48" cy="-1204.27" r="10.00px"/>
<text data-id="273" x="623.48" y="-1204.27">R273</text>
<circle data-id="274" cx="901.68" cy="-1745.44" r="10.00px"/>
<text data-id="274" x="901.68" y="-1745.44">R274</text>
<circle data-id="275" cx="1593.33" cy="-1095.23" r="10.00px"/>
<text data-id="275" x="1593.33" y="-1095.23">R275</text>
<circle data-id="276" cx="13.75" cy="-7.48" r="10.00px"/>
<text data-id="276" x="13.75" y="-7.48">R276</text>
<circle data-id="277" cx="851.76" cy="-758.34" r="10.00px"/>
<text data-id="277" x="851.76" y="-758.34">R277</text>
<circle data-id="278" cx="648.40" cy="-822.95" r="10.00px"/>
<text data-id="278" x="648.40" y="-822.95">R278</text>
<circle data-id="279" cx="1595.83" cy="-592.25" r="10.00px"/>
<text data-id="279" x="1595.83" y="-592.25">R279</text>
<circle data-id="280" cx="1720.42" cy="-525.05" r="10.00px"/>
<text data-id="280" x="1720.42" y="-525.05">R280</text>
<circle data-id="281" cx="580.50" cy="-262.67" r="10.00px"/>
<text data-id="281" x="580.50" y="-262.67">R281</text>
<circle data-id="282" cx="1170.89" cy="-119.24" r="10.00px"/>
<text data-id="282" x="1170.89" y="-119.24">R282</text>
<circle data-id="283" cx="186.64" cy="-203.65" r="10.00px"/>
<text data-id="283" x="186.64" y="-203.65">R283</text>
<circle data-id="284" cx="1050.80" cy="-591.88" r="10.00px"/>
<text data-id="284" x="1050.80" y="-591.88">R284</text>
<circle data-id="285" cx="1767.90" cy="-269.52" r="10.00px"/>
<text data-id="285" x="1767.90" y="-269.52">R285</text>
<circle data-id="286" cx="1093.71" cy="-1513.52" r="10.00px"/>
<text data-id="286" x="1093.71" y="-1513.52">R286</text>
<circle data-id="287" cx="545.96" cy="-453.43" r="10.00px"/>
<text data-id="287" x="545.96" y="-453.43">R287</text>
<circle data-id="288" cx="1053.85" cy="-628.48" r="10.00px"/>
<text data-id="288" x="1053.85" y="-628.48">R288</text>
<circle data-id="289" cx="1310.89" cy="-1588.66" r="10.00px"/>
<text data-id="289" x="1310.89" y="-1588.66">R289</text>
<circle data-id="290" cx="104.83" cy="-962.44" r="10.00px"/>
<text data-id="290" x="104.83" y="-962.44">R290</text>
<circle data-id="291" cx="1450.04" cy="-504.93" r="10.00px"/>
<text data-id="291" x="1450.04" y="-504.93">R291</text>
<circle data-id="292" cx="766.17" cy="-908.72" r="10.00px"/>
<text data-id="292" x="766.17" y="-908.72">R292</text>
<circle data-id="293" cx="273.58" cy="-1297.21" r="10.00px"/>
<text data-id="293" x="273.58" y="-1297.21">R293</text>
<circle data-id="294" cx="944.96" cy="-610.61" r="10.00px"/>
<text data-id="294" x="944.96" y="-610.61">R294</text>
<circle data-id="295" cx="111.06" cy="-1694.87" r="10.00px"/>
<text data-id="295" x="111.06" y="-1694.87">R295</text>
<circle data-id="296" cx="454.15" cy="-1198.71" r="10.00px"/>
<text data-id="296" x="454.15" y="-1198.71">R296</text>
<circle data-id="297" cx="27.51" cy="-1021.38" r="10.00px"/>
<text data-id="297" x="27.51" y="-1021.38">R297</text>
<circle data-id="298" cx="1773.12" cy="-1064.12" r="10.00px"/>
<text data-id="298" x="1773.12" y="-1064.12">R298</text>
<circle data-id="299" cx="127.59" cy="-355.15" r="10.00px"/>
<text data-id="299" x="127.59" y="-355.15">R299</text>
<circle data-id="300" cx="837.69" cy="-1177.08" r="10.00px"/>
<text data-id="300" x="837.69" y="-1177.08">R300</text>
<circle data-id="301" cx="898.17" cy="-1149.47" r="10.00px"/>
<text data-id="301" x="898.17" y="-1149.47">R301</text>
<circle data-id="302" cx="1743.33" cy="-1116.34" r="10.00px"/>
<text data-id="302" x="1743.33" y="-1116.34">R302</text>
<circle data-id="303" cx="1117.03" cy="-1119.22" r="10.00px"/>
<text data-id="303" x="1117.03" y="-1119.22">R303</text>
<circle data-id="304" cx="76.61" cy="-811.68" r="10.00px"/>
<text data-id="304" x="76.61" y="-811.68">R304</text>
<circle data-id="305" cx="354.55" cy="-743.87" r="10.00px"/>
<text data-id="305" x="354.55" y="-743.87">R305</text>
<circle data-id="306" cx="1398.53" cy="-739.56" r="10.00px"/>
<text data-id="306" x="1398.53" y="-739.56">R306</text>
<circle data-id="307" cx="632.87" cy="-526.63" r="10.00px"/>
<text data-id="307" x="632.87" y="-526.63">R307</text>
<circle data-id="308" cx="494.79" cy="-1730.70" r="10.00px"/>
<text data-id="308" x="494.79" y="-1730.70">R308</text>
<circle data-id="309" cx="1362.75" cy="-466.29" r="10.00px"/>
<text data-id="309" x="1362.75" y="-466.29">R309</text>
<circle data-id="310" cx="1031.10" cy="-1008.64" r="10.00px"/>
<text data-id="310" x="1031.10" y="-1008.64">R310</text>
<circle data-id="311" cx="912.64" cy="-851.45" r="10.00px"/>
<text data-id="311" x="912.64" y="-851.45">R311</text>
<circle data-id="312" cx="194.35" cy="-958.70" r="10.00px"/>
<text data-id="312" x="194.35" y="-958.70">R312</text>
<circle data-id="313" cx="16.21" cy="-422.82" r="10.00px"/>
<text data-id="313" x="16.21" y="-422.82">R313</text>
<circle data-id="314" cx="1499.78" cy="-256.22" r="10.00px"/>
<text data-id="314" x="1499.78" y="-256.22">R314</text>
<circle data-id="315" cx="396.30" cy="-1550.14" r="10.00px"/>
<text data-id="315" x="396.30" y="-1550.14">R315</text>
<circle data-id="316" cx="1051.20" cy="-1336.02" r="10.00px"/>
<text data-id="316" x="1051.20" y="-1336.02">R316</text>
<circle data-id="317" cx="442.30" cy="-293.82" r="10.00px"/>
<text data-id="317" x="442.30" y="-293.82">R317</text>
<circle data-id="318" cx="3.80" cy="-399.61" r="10.00px"/>
<text data-id="318" x="3.80" y="-399.61">R318</text>
<circle data-id="319" cx="1469.18" cy="-1435.92" r="10.00px"/>
<text data-id="319" x="1469.18" y="-1435.92">R319</text>
<circle data-id="320" cx="1518.57" cy="-1415.23" r="10.00px"/>
<text data-id="320" x="1518.57" y="-1415.23">R320</text>
<circle data-id="321" cx="503.30" cy="-1203.56" r="10.00px"/>
<text data-id="321" x="503.30" y="-1203.56">R321</text>
<circle data-id="322" cx="594.65" cy="-750.91" r="10.00px"/>
<text data-id="322" x="594.65" y="-750.91">R322</text>
<circle data-id="323" cx="1694.65" cy="-828.33" r="10.00px"/>
<text data-id="323" x="1694.65" y="-828.33">R323</text>
<circle data-id="324" cx="884.74" cy="-245.81" r="10.00px"/>
<text data-id="324" x="884.74" y="-245.81">R324</text>
</svg>
