<svg id="topo" width="1886.66" height="1888.69" viewBox="-38.95 -41.48 1886.66 1888.69" xmlns="http://www.w3.org/2000/svg">
<style>#topo path {fill: none; stroke: grey; stroke-width: 6;} #topo circle {fill: lightblue; stroke: none;} #topo text {fill: black; stroke: none; font-size: 16; font-family: sans-serif; text-anchor:middle;}</style>
<path d="M1205.48,824.81,1147.42,771.53"/>
<path d="M1205.48,824.81,1248.98,785.50"/>
<path d="M1205.48,824.81,1293.18,902.21"/>
<path d="M1205.48,824.81,1221.31,942.79"/>
<path d="M1205.48,824.81,1107.44,886.23"/>
<path d="M275.85,369.66,156.82,374.09"/>
<path d="M275.85,369.66,346.39,370.72"/>
<path d="M275.85,369.66,195.17,302.53"/>
<path d="M275.85,369.66,236.96,446.08"/>
<path d="M499.53,780.12,400.51,729.84"/>
<path d="M499.53,780.12,519.66,738.08"/>
<path d="M499.53,780.12,545.08,792.80"/>
<path d="M499.53,780.12,465.56,812.58"/>
<path d="M1205.54,670.95,1126.79,677.97"/>
<path d="M1205.54,670.95,1169.37,741.27"/>
<path d="M1205.54,670.95,1230.99,716.48"/>
<path d="M1205.54,670.95,1228.11,647.66"/>
<path d="M1775.60,1601.27,1775.57,1684.67"/>
<path d="M1775.60,1601.27,1740.10,1512.57"/>
<path d="M1775.60,1601.27,1717.28,1620.92"/>
<path d="M1207.96,1197.19,1295.03,1251.37"/>
<path d="M1207.96,1197.19,1308.68,1142.89"/>
<path d="M1207.96,1197.19,1086.99,1150.17"/>
<path d="M1207.96,1197.19,1239.23,1296.70"/>
<path d="M1207.96,1197.19,1212.52,1036.89"/>
<path d="M1207.96,1197.19,1111.66,1093.33"/>
<path d="M1516.49,1681.90,1542.81,1572.07"/>
<path d="M1516.49,1681.90,1616.41,1637.89"/>
<path d="M1516.49,1681.90,1419.16,1712.74"/>
<path d="M36.24,171.99,83.65,196.37"/>
<path d="M668.21,1267.36,675.41,1148.81"/>
<path d="M668.21,1267.36,649.78,1339.20"/>
<path d="M668.21,1267.36,607.26,1266.40"/>
<path d="M668.21,1267.36,732.91,1285.56"/>
<path d="M1713.14,1084.46,1719.41,1161.27"/>
<path d="M1713.14,1084.46,1748.34,1078.68"/>
<path d="M1713.14,1084.46,1585.86,1108.53"/>
<path d="M1713.14,1084.46,1616.81,1018.77"/>
<path d="M1713.14,1084.46,1719.26,1014.40"/>
<path d="M597.45,1579.49,687.49,1595.02"/>
<path d="M597.45,1579.49,607.67,1540.11"/>
<path d="M597.45,1579.49,583.55,1607.02"/>
<path d="M347.99,173.04,346.39,370.72"/>
<path d="M347.99,173.04,366.98,155.57"/>
<path d="M347.99,173.04,253.67,144.81"/>
<path d="M291.02,941.45,341.27,910.45"/>
<path d="M291.02,941.45,201.00,1020.39"/>
<path d="M291.02,941.45,280.78,906.86"/>
<path d="M1184.40,1723.05,1159.21,1773.75"/>
<path d="M1184.40,1723.05,1081.15,1694.56"/>
<path d="M1184.40,1723.05,1292.30,1712.59"/>
<path d="M1184.40,1723.05,1227.41,1651.20"/>
<path d="M1613.43,392.60,1717.31,474.57"/>
<path d="M1613.43,392.60,1646.94,309.48"/>
<path d="M1613.43,392.60,1690.61,328.51"/>
<path d="M1613.43,392.60,1573.73,423.53"/>
<path d="M1399.80,1443.42,1478.28,1361.40"/>
<path d="M1399.80,1443.42,1376.59,1331.98"/>
<path d="M1399.80,1443.42,1403.15,1472.86"/>
<path d="M391.92,1738.60,341.36,1703.00"/>
<path d="M391.92,1738.60,535.86,1778.29"/>
<path d="M391.92,1738.60,428.27,1692.52"/>
<path d="M1768.39,900.82,1737.55,863.92"/>
<path d="M1768.39,900.82,1719.26,1014.40"/>
<path d="M189.61,1498.89,284.75,1564.09"/>
<path d="M189.61,1498.89,172.05,1566.96"/>
<path d="M189.61,1498.89,138.18,1472.35"/>
<path d="M1760.58,1372.58,1740.10,1512.57"/>
<path d="M1760.58,1372.58,1742.31,1343.14"/>
<path d="M494.45,1501.74,460.88,1482.79"/>
<path d="M494.45,1501.74,625.56,1476.82"/>
<path d="M494.45,1501.74,418.59,1582.69"/>
<path d="M494.45,1501.74,607.67,1540.11"/>
<path d="M494.45,1501.74,587.23,1295.65"/>
<path d="M1537.64,808.85,1477.54,874.69"/>
<path d="M1537.64,808.85,1454.41,844.36"/>
<path d="M1537.64,808.85,1677.04,775.73"/>
<path d="M1537.64,808.85,1522.54,753.23"/>
<path d="M1537.64,808.85,1524.89,887.56"/>
<path d="M460.88,1482.79,418.59,1582.69"/>
<path d="M460.88,1482.79,587.23,1295.65"/>
<path d="M460.88,1482.79,345.50,1407.14"/>
<path d="M460.88,1482.79,341.72,1543.10"/>
<path d="M1772.51,1275.97,1716.70,1216.54"/>
<path d="M1772.51,1275.97,1777.63,1161.54"/>
<path d="M1772.51,1275.97,1742.31,1343.14"/>
<path d="M1191.89,1794.60,1159.21,1773.75"/>
<path d="M1191.89,1794.60,1292.30,1712.59"/>
<path d="M1353.76,1274.56,1295.03,1251.37"/>
<path d="M1353.76,1274.56,1378.92,1206.30"/>
<path d="M1353.76,1274.56,1376.59,1331.98"/>
<path d="M1353.76,1274.56,1496.55,1262.74"/>
<path d="M65.01,1353.81,93.00,1334.12"/>
<path d="M699.95,1710.83,582.55,1639.78"/>
<path d="M699.95,1710.83,713.02,1762.46"/>
<path d="M699.95,1710.83,726.85,1655.71"/>
<path d="M699.95,1710.83,567.89,1767.50"/>
<path d="M110.51,663.05,221.39,612.63"/>
<path d="M110.51,663.05,39.56,710.51"/>
<path d="M110.51,663.05,235.87,651.47"/>
<path d="M110.51,663.05,80.93,446.16"/>
<path d="M110.51,663.05,222.46,703.91"/>
<path d="M110.51,663.05,125.96,761.61"/>
<path d="M1757.27,1717.81,1775.57,1684.67"/>
<path d="M1757.27,1717.81,1748.27,1749.73"/>
<path d="M1757.27,1717.81,1720.12,1719.17"/>
<path d="M1147.42,771.53,1049.21,781.39"/>
<path d="M1147.42,771.53,1107.44,886.23"/>
<path d="M1147.42,771.53,1056.30,712.93"/>
<path d="M1147.42,771.53,1169.37,741.27"/>
<path d="M1542.81,1572.07,1636.07,1489.62"/>
<path d="M1542.81,1572.07,1616.41,1637.89"/>
<path d="M1542.81,1572.07,1477.68,1549.93"/>
<path d="M1719.41,1161.27,1670.13,1166.65"/>
<path d="M1719.41,1161.27,1716.70,1216.54"/>
<path d="M1719.41,1161.27,1777.63,1161.54"/>
<path d="M1737.55,863.92,1726.97,811.76"/>
<path d="M1737.55,863.92,1595.02,912.73"/>
<path d="M594.74,791.73,556.82,817.20"/>
<path d="M594.74,791.73,676.55,750.56"/>
<path d="M594.74,791.73,545.08,792.80"/>
<path d="M594.74,791.73,602.21,829.13"/>
<path d="M1049.21,781.39,929.37,700.10"/>
<path d="M1049.21,781.39,920.69,814.15"/>
<path d="M1049.21,781.39,1056.30,712.93"/>
<path d="M1049.21,781.39,1050.30,873.56"/>
<path d="M1768.87,264.15,1656.71,163.42"/>
<path d="M1768.87,264.15,1690.61,328.51"/>
<path d="M1768.87,264.15,1618.56,224.36"/>
<path d="M1768.87,264.15,1715.05,113.41"/>
<path d="M582.55,1639.78,523.78,1685.71"/>
<path d="M582.55,1639.78,583.55,1607.02"/>
<path d="M625.56,1476.82,784.48,1433.38"/>
<path d="M625.56,1476.82,607.67,1540.11"/>
<path d="M625.56,1476.82,649.78,1339.20"/>
<path d="M1295.03,1251.37,1308.68,1142.89"/>
<path d="M1295.03,1251.37,1378.92,1206.30"/>
<path d="M1295.03,1251.37,1239.23,1296.70"/>
<path d="M341.36,1703.00,300.16,1614.41"/>
<path d="M341.36,1703.00,278.42,1633.70"/>
<path d="M341.36,1703.00,302.50,1719.33"/>
<path d="M1650.00,575.43,1499.58,643.32"/>
<path d="M1650.00,575.43,1723.22,504.78"/>
<path d="M1650.00,575.43,1674.71,612.50"/>
<path d="M1650.00,575.43,1591.54,509.41"/>
<path d="M1656.71,163.42,1573.55,103.21"/>
<path d="M1656.71,163.42,1618.56,224.36"/>
<path d="M1656.71,163.42,1715.05,113.41"/>
<path d="M556.82,817.20,545.08,792.80"/>
<path d="M556.82,817.20,602.21,829.13"/>
<path d="M556.82,817.20,544.89,841.06"/>
<path d="M687.49,1595.02,709.61,1571.12"/>
<path d="M687.49,1595.02,607.67,1540.11"/>
<path d="M687.49,1595.02,726.85,1655.71"/>
<path d="M120.00,5.20,125.56,126.17"/>
<path d="M120.00,5.20,78.98,14.01"/>
<path d="M120.00,5.20,193.42,25.62"/>
<path d="M535.41,450.73,545.21,490.01"/>
<path d="M535.41,450.73,370.90,473.19"/>
<path d="M535.41,450.73,687.12,264.76"/>
<path d="M341.27,910.45,395.29,952.69"/>
<path d="M341.27,910.45,280.78,906.86"/>
<path d="M341.27,910.45,394.32,844.22"/>
<path d="M1433.57,132.99,1308.77,248.64"/>
<path d="M1433.57,132.99,1503.45,83.74"/>
<path d="M1433.57,132.99,1295.71,83.78"/>
<path d="M1433.57,132.99,1288.98,226.12"/>
<path d="M1433.57,132.99,1436.22,263.68"/>
<path d="M72.02,824.88,39.56,710.51"/>
<path d="M72.02,824.88,125.96,761.61"/>
<path d="M72.02,824.88,55.22,946.50"/>
<path d="M72.02,824.88,136.03,953.83"/>
<path d="M72.02,824.88,154.56,792.91"/>
<path d="M1248.98,785.50,1271.37,712.61"/>
<path d="M1248.98,785.50,1169.37,741.27"/>
<path d="M1248.98,785.50,1330.49,856.27"/>
<path d="M1248.98,785.50,1230.99,716.48"/>
<path d="M1670.13,1166.65,1716.70,1216.54"/>
<path d="M1670.13,1166.65,1585.86,1108.53"/>
<path d="M1670.13,1166.65,1657.10,1231.15"/>
<path d="M541.55,95.16,404.94,11.15"/>
<path d="M541.55,95.16,582.35,101.04"/>
<path d="M541.55,95.16,423.03,124.40"/>
<path d="M1019.11,462.71,939.77,512.63"/>
<path d="M1019.11,462.71,1044.12,443.08"/>
<path d="M1019.11,462.71,982.94,383.50"/>
<path d="M1019.11,462.71,997.07,581.51"/>
<path d="M1499.58,643.32,1480.81,507.36"/>
<path d="M1499.58,643.32,1609.78,694.66"/>
<path d="M1499.58,643.32,1495.05,721.68"/>
<path d="M1499.58,643.32,1591.54,509.41"/>
<path d="M1499.58,643.32,1402.65,580.43"/>
<path d="M93.00,1334.12,134.66,1388.84"/>
<path d="M93.00,1334.12,124.50,1300.58"/>
<path d="M1170.44,356.55,1048.82,195.64"/>
<path d="M1170.44,356.55,1255.66,293.33"/>
<path d="M1170.44,356.55,1120.98,445.43"/>
<path d="M1170.44,356.55,1208.27,428.71"/>
<path d="M1170.44,356.55,1091.66,375.59"/>
<path d="M1048.82,195.64,964.95,235.89"/>
<path d="M1048.82,195.64,1164.00,118.24"/>
<path d="M1048.82,195.64,1188.20,194.21"/>
<path d="M1048.82,195.64,956.13,120.63"/>
<path d="M1048.82,195.64,1091.66,375.59"/>
<path d="M1534.39,446.68,1573.73,423.53"/>
<path d="M1534.39,446.68,1504.74,460.88"/>
<path d="M1534.39,446.68,1511.68,420.93"/>
<path d="M1534.39,446.68,1591.54,509.41"/>
<path d="M538.06,1190.05,452.70,1216.50"/>
<path d="M538.06,1190.05,449.41,1141.70"/>
<path d="M538.06,1190.05,575.72,1156.36"/>
<path d="M538.06,1190.05,607.26,1266.40"/>
<path d="M221.39,612.63,235.87,651.47"/>
<path d="M221.39,612.63,80.93,446.16"/>
<path d="M221.39,612.63,236.96,446.08"/>
<path d="M221.39,612.63,314.28,609.72"/>
<path d="M39.56,710.51,125.96,761.61"/>
<path d="M934.92,968.93,1138.46,982.61"/>
<path d="M934.92,968.93,909.80,935.99"/>
<path d="M934.92,968.93,909.51,1107.94"/>
<path d="M934.92,968.93,1050.30,873.56"/>
<path d="M934.92,968.93,1111.66,1093.33"/>
<path d="M713.02,1762.46,817.36,1759.27"/>
<path d="M713.02,1762.46,567.89,1767.50"/>
<path d="M709.61,1571.12,824.47,1535.19"/>
<path d="M709.61,1571.12,784.48,1433.38"/>
<path d="M1716.70,1216.54,1657.10,1231.15"/>
<path d="M1717.31,474.57,1690.61,328.51"/>
<path d="M1717.31,474.57,1723.22,504.78"/>
<path d="M1717.31,474.57,1591.54,509.41"/>
<path d="M545.21,490.01,459.27,578.58"/>
<path d="M545.21,490.01,636.42,509.49"/>
<path d="M545.21,490.01,569.72,554.44"/>
<path d="M607.92,874.22,577.08,954.43"/>
<path d="M607.92,874.22,602.21,829.13"/>
<path d="M607.92,874.22,544.89,841.06"/>
<path d="M418.59,1582.69,583.55,1607.02"/>
<path d="M418.59,1582.69,428.27,1692.52"/>
<path d="M418.59,1582.69,341.72,1543.10"/>
<path d="M1691.46,1754.26,1664.20,1802.21"/>
<path d="M1691.46,1754.26,1720.12,1719.17"/>
<path d="M1691.46,1754.26,1733.35,1774.65"/>
<path d="M1691.46,1754.26,1665.34,1721.82"/>
<path d="M577.08,954.43,500.86,940.65"/>
<path d="M577.08,954.43,707.97,1010.60"/>
<path d="M577.08,954.43,657.29,1067.99"/>
<path d="M577.08,954.43,592.60,1106.52"/>
<path d="M1136.22,1355.21,1082.85,1342.16"/>
<path d="M1136.22,1355.21,1217.77,1351.83"/>
<path d="M824.47,1535.19,1082.85,1342.16"/>
<path d="M824.47,1535.19,872.77,1637.72"/>
<path d="M824.47,1535.19,784.48,1433.38"/>
<path d="M1480.81,507.36,1504.74,460.88"/>
<path d="M1480.81,507.36,1591.54,509.41"/>
<path d="M1480.81,507.36,1402.65,580.43"/>
<path d="M186.50,784.27,210.12,807.83"/>
<path d="M186.50,784.27,222.46,703.91"/>
<path d="M186.50,784.27,154.56,792.91"/>
<path d="M1748.34,1078.68,1777.63,1161.54"/>
<path d="M1748.34,1078.68,1719.26,1014.40"/>
<path d="M850.74,1717.77,817.36,1759.27"/>
<path d="M850.74,1717.77,872.77,1637.72"/>
<path d="M850.74,1717.77,726.85,1655.71"/>
<path d="M156.82,374.09,80.93,446.16"/>
<path d="M156.82,374.09,195.17,302.53"/>
<path d="M156.82,374.09,236.96,446.08"/>
<path d="M1595.35,41.28,1573.55,103.21"/>
<path d="M1595.35,41.28,1715.05,113.41"/>
<path d="M223.66,232.80,125.56,126.17"/>
<path d="M223.66,232.80,195.17,302.53"/>
<path d="M223.66,232.80,253.67,144.81"/>
<path d="M223.66,232.80,83.65,196.37"/>
<path d="M929.37,700.10,920.69,814.15"/>
<path d="M929.37,700.10,758.79,596.17"/>
<path d="M929.37,700.10,814.00,762.24"/>
<path d="M929.37,700.10,1022.36,664.53"/>
<path d="M929.37,700.10,956.28,615.75"/>
<path d="M817.36,1759.27,726.85,1655.71"/>
<path d="M201.00,1020.39,364.58,1158.35"/>
<path d="M201.00,1020.39,249.78,1222.17"/>
<path d="M201.00,1020.39,141.75,1024.93"/>
<path d="M395.29,952.69,500.86,940.65"/>
<path d="M395.29,952.69,394.32,844.22"/>
<path d="M395.29,952.69,414.10,1041.18"/>
<path d="M157.16,1704.05,208.32,1724.64"/>
<path d="M157.16,1704.05,172.05,1566.96"/>
<path d="M157.16,1704.05,77.12,1723.37"/>
<path d="M157.16,1704.05,92.28,1654.60"/>
<path d="M964.95,235.89,982.94,383.50"/>
<path d="M964.95,235.89,956.13,120.63"/>
<path d="M964.95,235.89,852.91,306.09"/>
<path d="M1477.54,874.69,1454.41,844.36"/>
<path d="M1477.54,874.69,1524.89,887.56"/>
<path d="M1477.54,874.69,1426.40,931.35"/>
<path d="M420.90,683.87,459.27,578.58"/>
<path d="M420.90,683.87,400.51,729.84"/>
<path d="M420.90,683.87,519.66,738.08"/>
<path d="M420.90,683.87,367.45,621.83"/>
<path d="M1573.55,103.21,1538.47,120.09"/>
<path d="M1293.18,902.21,1221.31,942.79"/>
<path d="M1293.18,902.21,1317.93,950.73"/>
<path d="M1293.18,902.21,1330.49,856.27"/>
<path d="M1228.49,1325.91,1217.77,1351.83"/>
<path d="M1228.49,1325.91,1239.23,1296.70"/>
<path d="M1308.68,1142.89,1350.77,1152.14"/>
<path d="M1308.68,1142.89,1212.52,1036.89"/>
<path d="M1308.68,1142.89,1362.64,1000.22"/>
<path d="M346.39,370.72,370.90,473.19"/>
<path d="M1585.86,1108.53,1616.81,1018.77"/>
<path d="M1585.86,1108.53,1550.93,1072.20"/>
<path d="M1585.86,1108.53,1521.72,1190.43"/>
<path d="M1082.85,1342.16,974.65,1245.88"/>
<path d="M1082.85,1342.16,1086.99,1150.17"/>
<path d="M1646.94,309.48,1690.61,328.51"/>
<path d="M1646.94,309.48,1618.56,224.36"/>
<path d="M701.63,231.75,677.28,198.34"/>
<path d="M701.63,231.75,745.58,207.89"/>
<path d="M701.63,231.75,687.12,264.76"/>
<path d="M1489.84,1460.94,1636.07,1489.62"/>
<path d="M1489.84,1460.94,1478.28,1361.40"/>
<path d="M1489.84,1460.94,1637.94,1395.56"/>
<path d="M1489.84,1460.94,1464.49,1471.57"/>
<path d="M207.67,102.49,125.56,126.17"/>
<path d="M207.67,102.49,253.67,144.81"/>
<path d="M207.67,102.49,218.23,64.05"/>
<path d="M1308.77,248.64,1255.66,293.33"/>
<path d="M1308.77,248.64,1390.02,375.51"/>
<path d="M1308.77,248.64,1288.98,226.12"/>
<path d="M1308.77,248.64,1436.22,263.68"/>
<path d="M125.56,126.17,83.65,196.37"/>
<path d="M125.56,126.17,78.98,14.01"/>
<path d="M235.87,651.47,265.02,667.74"/>
<path d="M235.87,651.47,222.46,703.91"/>
<path d="M974.65,1245.88,1086.99,1150.17"/>
<path d="M974.65,1245.88,939.45,1258.52"/>
<path d="M974.65,1245.88,909.51,1107.94"/>
<path d="M1454.41,844.36,1330.49,856.27"/>
<path d="M1636.07,1489.62,1616.41,1637.89"/>
<path d="M1636.07,1489.62,1637.94,1395.56"/>
<path d="M1636.07,1489.62,1643.97,1640.04"/>
<path d="M1636.07,1489.62,1740.10,1512.57"/>
<path d="M768.28,164.47,843.00,112.36"/>
<path d="M768.28,164.47,745.58,207.89"/>
<path d="M768.28,164.47,761.18,75.73"/>
<path d="M843.00,112.36,761.18,75.73"/>
<path d="M843.00,112.36,942.91,85.83"/>
<path d="M48.71,418.03,80.93,446.16"/>
<path d="M48.71,418.03,83.65,196.37"/>
<path d="M1616.81,1018.77,1550.93,1072.20"/>
<path d="M1616.81,1018.77,1719.26,1014.40"/>
<path d="M1616.81,1018.77,1553.00,983.97"/>
<path d="M1616.81,1018.77,1595.02,912.73"/>
<path d="M675.41,1148.81,799.90,1129.69"/>
<path d="M675.41,1148.81,657.29,1067.99"/>
<path d="M675.41,1148.81,575.72,1156.36"/>
<path d="M675.41,1148.81,592.60,1106.52"/>
<path d="M371.42,772.38,265.02,667.74"/>
<path d="M371.42,772.38,400.51,729.84"/>
<path d="M371.42,772.38,210.12,807.83"/>
<path d="M371.42,772.38,394.32,844.22"/>
<path d="M371.42,772.38,465.56,812.58"/>
<path d="M1323.07,1500.03,1403.15,1472.86"/>
<path d="M1323.07,1500.03,1419.16,1712.74"/>
<path d="M1323.07,1500.03,1227.41,1651.20"/>
<path d="M1323.07,1500.03,1233.74,1431.27"/>
<path d="M1164.00,118.24,1188.20,194.21"/>
<path d="M1164.00,118.24,1228.31,142.58"/>
<path d="M1164.00,118.24,982.85,71.27"/>
<path d="M1726.97,811.76,1677.04,775.73"/>
<path d="M872.77,1637.72,1081.15,1694.56"/>
<path d="M872.77,1637.72,726.85,1655.71"/>
<path d="M265.02,667.74,400.51,729.84"/>
<path d="M265.02,667.74,222.46,703.91"/>
<path d="M265.02,667.74,314.28,609.72"/>
<path d="M83.13,1135.30,141.75,1024.93"/>
<path d="M83.13,1135.30,59.69,1005.29"/>
<path d="M83.13,1135.30,232.71,1242.28"/>
<path d="M83.13,1135.30,124.50,1300.58"/>
<path d="M452.70,1216.50,449.41,1141.70"/>
<path d="M452.70,1216.50,374.46,1202.02"/>
<path d="M1677.04,775.73,1609.78,694.66"/>
<path d="M1677.04,775.73,1595.02,912.73"/>
<path d="M1478.28,1361.40,1637.94,1395.56"/>
<path d="M1478.28,1361.40,1376.59,1331.98"/>
<path d="M1478.28,1361.40,1496.55,1262.74"/>
<path d="M321.89,1516.03,284.75,1564.09"/>
<path d="M321.89,1516.03,345.50,1407.14"/>
<path d="M321.89,1516.03,341.72,1543.10"/>
<path d="M1217.77,1351.83,1233.74,1431.27"/>
<path d="M1775.57,1684.67,1717.28,1620.92"/>
<path d="M1271.37,712.61,1291.54,633.15"/>
<path d="M1271.37,712.61,1495.05,721.68"/>
<path d="M1271.37,712.61,1230.99,716.48"/>
<path d="M1271.37,712.61,1228.11,647.66"/>
<path d="M677.28,198.34,582.35,101.04"/>
<path d="M677.28,198.34,630.57,68.37"/>
<path d="M1188.20,194.21,1228.31,142.58"/>
<path d="M1188.20,194.21,1231.81,215.02"/>
<path d="M1367.13,410.43,1246.56,410.61"/>
<path d="M1367.13,410.43,1255.66,293.33"/>
<path d="M1367.13,410.43,1390.02,375.51"/>
<path d="M1367.13,410.43,1402.65,580.43"/>
<path d="M1616.41,1637.89,1643.97,1640.04"/>
<path d="M459.27,578.58,370.90,473.19"/>
<path d="M459.27,578.58,569.72,554.44"/>
<path d="M459.27,578.58,367.45,621.83"/>
<path d="M1637.94,1395.56,1645.75,1261.49"/>
<path d="M1637.94,1395.56,1742.31,1343.14"/>
<path d="M500.86,940.65,470.88,1080.98"/>
<path d="M500.86,940.65,544.89,841.06"/>
<path d="M500.86,940.65,394.32,844.22"/>
<path d="M500.86,940.65,465.56,812.58"/>
<path d="M500.86,940.65,414.10,1041.18"/>
<path d="M784.48,1433.38,649.78,1339.20"/>
<path d="M784.48,1433.38,876.69,1284.20"/>
<path d="M784.48,1433.38,732.91,1285.56"/>
<path d="M300.16,1614.41,284.75,1564.09"/>
<path d="M300.16,1614.41,278.42,1633.70"/>
<path d="M195.17,302.53,83.65,196.37"/>
<path d="M1522.54,753.23,1609.78,694.66"/>
<path d="M1522.54,753.23,1495.05,721.68"/>
<path d="M6.05,1792.59,50.23,1720.79"/>
<path d="M1657.10,1231.15,1521.72,1190.43"/>
<path d="M1657.10,1231.15,1645.75,1261.49"/>
<path d="M801.07,299.62,745.58,207.89"/>
<path d="M801.07,299.62,824.78,336.11"/>
<path d="M801.07,299.62,852.91,306.09"/>
<path d="M801.07,299.62,687.12,264.76"/>
<path d="M1748.27,1749.73,1720.12,1719.17"/>
<path d="M1748.27,1749.73,1733.35,1774.65"/>
<path d="M1748.27,1749.73,1802.71,1777.50"/>
<path d="M1378.92,1206.30,1521.72,1190.43"/>
<path d="M1378.92,1206.30,1350.77,1152.14"/>
<path d="M1378.92,1206.30,1496.55,1262.74"/>
<path d="M707.97,1010.60,799.90,1129.69"/>
<path d="M707.97,1010.60,657.29,1067.99"/>
<path d="M707.97,1010.60,814.00,762.24"/>
<path d="M707.97,1010.60,909.80,935.99"/>
<path d="M799.90,1129.69,876.69,1284.20"/>
<path d="M799.90,1129.69,732.91,1285.56"/>
<path d="M799.90,1129.69,909.51,1107.94"/>
<path d="M370.90,473.19,236.96,446.08"/>
<path d="M370.90,473.19,314.28,609.72"/>
<path d="M370.90,473.19,367.45,621.83"/>
<path d="M1550.93,1072.20,1412.72,1013.53"/>
<path d="M1550.93,1072.20,1553.00,983.97"/>
<path d="M1503.45,83.74,1538.47,120.09"/>
<path d="M1221.31,942.79,1107.44,886.23"/>
<path d="M1221.31,942.79,1138.46,982.61"/>
<path d="M1221.31,942.79,1317.93,950.73"/>
<path d="M1221.31,942.79,1212.52,1036.89"/>
<path d="M1221.31,942.79,1158.34,1015.63"/>
<path d="M1618.56,224.36,1538.47,120.09"/>
<path d="M1618.56,224.36,1436.22,263.68"/>
<path d="M636.42,509.49,758.79,596.17"/>
<path d="M636.42,509.49,569.72,554.44"/>
<path d="M636.42,509.49,673.11,634.47"/>
<path d="M636.42,509.49,752.84,444.59"/>
<path d="M1376.59,1331.98,1233.74,1431.27"/>
<path d="M1376.59,1331.98,1496.55,1262.74"/>
<path d="M1573.73,423.53,1591.54,509.41"/>
<path d="M284.75,1564.09,172.05,1566.96"/>
<path d="M284.75,1564.09,341.72,1543.10"/>
<path d="M920.69,814.15,814.00,762.24"/>
<path d="M920.69,814.15,909.80,935.99"/>
<path d="M920.69,814.15,1050.30,873.56"/>
<path d="M523.78,1685.71,535.86,1778.29"/>
<path d="M523.78,1685.71,428.27,1692.52"/>
<path d="M523.78,1685.71,567.89,1767.50"/>
<path d="M400.51,729.84,519.66,738.08"/>
<path d="M400.51,729.84,465.56,812.58"/>
<path d="M1107.44,886.23,1138.46,982.61"/>
<path d="M1107.44,886.23,1050.30,873.56"/>
<path d="M1643.97,1640.04,1717.28,1620.92"/>
<path d="M1643.97,1640.04,1665.34,1721.82"/>
<path d="M1056.30,712.93,1126.79,677.97"/>
<path d="M1056.30,712.93,1022.36,664.53"/>
<path d="M1265.63,190.75,1228.31,142.58"/>
<path d="M1265.63,190.75,1288.98,226.12"/>
<path d="M1265.63,190.75,1231.81,215.02"/>
<path d="M939.77,512.63,817.39,493.12"/>
<path d="M939.77,512.63,997.07,581.51"/>
<path d="M676.55,750.56,664.76,711.97"/>
<path d="M676.55,750.56,814.00,762.24"/>
<path d="M364.58,1158.35,449.41,1141.70"/>
<path d="M364.58,1158.35,249.78,1222.17"/>
<path d="M364.58,1158.35,374.46,1202.02"/>
<path d="M364.58,1158.35,414.10,1041.18"/>
<path d="M1521.72,1190.43,1645.75,1261.49"/>
<path d="M1521.72,1190.43,1496.55,1262.74"/>
<path d="M1246.56,410.61,1255.66,293.33"/>
<path d="M1246.56,410.61,1208.27,428.71"/>
<path d="M126.26,1435.49,134.66,1388.84"/>
<path d="M126.26,1435.49,138.18,1472.35"/>
<path d="M664.76,711.97,673.11,634.47"/>
<path d="M758.79,596.17,814.00,762.24"/>
<path d="M758.79,596.17,817.39,493.12"/>
<path d="M758.79,596.17,673.11,634.47"/>
<path d="M758.79,596.17,956.28,615.75"/>
<path d="M1350.77,1152.14,1412.72,1013.53"/>
<path d="M1350.77,1152.14,1362.64,1000.22"/>
<path d="M1228.31,142.58,1295.71,83.78"/>
<path d="M1228.31,142.58,1231.81,215.02"/>
<path d="M366.98,155.57,423.03,124.40"/>
<path d="M366.98,155.57,392.47,99.40"/>
<path d="M1138.46,982.61,1158.34,1015.63"/>
<path d="M519.66,738.08,545.08,792.80"/>
<path d="M519.66,738.08,569.72,554.44"/>
<path d="M208.32,1724.64,278.42,1633.70"/>
<path d="M208.32,1724.64,302.50,1719.33"/>
<path d="M236.96,446.08,314.28,609.72"/>
<path d="M1464.58,397.14,1390.02,375.51"/>
<path d="M1464.58,397.14,1511.68,420.93"/>
<path d="M1464.58,397.14,1436.22,263.68"/>
<path d="M1044.12,443.08,1120.98,445.43"/>
<path d="M1044.12,443.08,982.94,383.50"/>
<path d="M1044.12,443.08,1091.66,375.59"/>
<path d="M1556.77,921.68,1524.89,887.56"/>
<path d="M1556.77,921.68,1553.00,983.97"/>
<path d="M1556.77,921.68,1595.02,912.73"/>
<path d="M674.14,22.00,610.55,13.37"/>
<path d="M674.14,22.00,723.77,3.52"/>
<path d="M674.14,22.00,630.57,68.37"/>
<path d="M649.78,1339.20,587.23,1295.65"/>
<path d="M649.78,1339.20,732.91,1285.56"/>
<path d="M657.29,1067.99,592.60,1106.52"/>
<path d="M1159.21,1773.75,1081.15,1694.56"/>
<path d="M535.86,1778.29,567.89,1767.50"/>
<path d="M404.94,11.15,366.76,85.65"/>
<path d="M1255.66,293.33,1390.02,375.51"/>
<path d="M1255.66,293.33,1239.67,249.49"/>
<path d="M134.66,1388.84,310.62,1332.05"/>
<path d="M210.12,807.83,280.78,906.86"/>
<path d="M210.12,807.83,136.03,953.83"/>
<path d="M172.05,1566.96,103.64,1588.45"/>
<path d="M172.05,1566.96,278.42,1633.70"/>
<path d="M1172.67,545.12,1120.98,445.43"/>
<path d="M1172.67,545.12,1126.79,677.97"/>
<path d="M1172.67,545.12,1029.75,627.65"/>
<path d="M1172.67,545.12,1208.27,428.71"/>
<path d="M1172.67,545.12,1228.11,647.66"/>
<path d="M761.18,75.73,723.77,3.52"/>
<path d="M449.41,1141.70,470.88,1080.98"/>
<path d="M449.41,1141.70,374.46,1202.02"/>
<path d="M1720.12,1719.17,1717.28,1620.92"/>
<path d="M1720.12,1719.17,1665.34,1721.82"/>
<path d="M1403.15,1472.86,1464.49,1471.57"/>
<path d="M1412.72,1013.53,1553.00,983.97"/>
<path d="M1412.72,1013.53,1426.40,931.35"/>
<path d="M1412.72,1013.53,1362.64,1000.22"/>
<path d="M982.85,71.27,942.91,85.83"/>
<path d="M982.85,71.27,956.13,120.63"/>
<path d="M103.64,1588.45,138.18,1472.35"/>
<path d="M103.64,1588.45,92.28,1654.60"/>
<path d="M582.35,101.04,630.57,68.37"/>
<path d="M1419.16,1712.74,1292.30,1712.59"/>
<path d="M1740.10,1512.57,1717.28,1620.92"/>
<path d="M824.78,336.11,852.91,306.09"/>
<path d="M824.78,336.11,752.84,444.59"/>
<path d="M470.88,1080.98,575.72,1156.36"/>
<path d="M470.88,1080.98,592.60,1106.52"/>
<path d="M470.88,1080.98,414.10,1041.18"/>
<path d="M1477.68,1549.93,1464.49,1471.57"/>
<path d="M1086.99,1150.17,909.51,1107.94"/>
<path d="M1086.99,1150.17,1111.66,1093.33"/>
<path d="M942.91,85.83,956.13,120.63"/>
<path d="M1390.02,375.51,1436.22,263.68"/>
<path d="M366.76,85.65,253.67,144.81"/>
<path d="M366.76,85.65,218.23,64.05"/>
<path d="M366.76,85.65,392.47,99.40"/>
<path d="M817.39,493.12,752.84,444.59"/>
<path d="M125.96,761.61,154.56,792.91"/>
<path d="M280.78,906.86,136.03,953.83"/>
<path d="M1504.74,460.88,1511.68,420.93"/>
<path d="M249.78,1222.17,232.71,1242.28"/>
<path d="M249.78,1222.17,374.46,1202.02"/>
<path d="M1553.00,983.97,1426.40,931.35"/>
<path d="M1317.93,950.73,1426.40,931.35"/>
<path d="M1317.93,950.73,1362.64,1000.22"/>
<path d="M1723.22,504.78,1591.54,509.41"/>
<path d="M1723.22,504.78,1762.74,554.37"/>
<path d="M1120.98,445.43,1208.27,428.71"/>
<path d="M1120.98,445.43,1091.66,375.59"/>
<path d="M1126.79,677.97,1169.37,741.27"/>
<path d="M1126.79,677.97,1029.75,627.65"/>
<path d="M141.75,1024.93,59.69,1005.29"/>
<path d="M141.75,1024.93,136.03,953.83"/>
<path d="M278.42,1633.70,302.50,1719.33"/>
<path d="M575.72,1156.36,607.26,1266.40"/>
<path d="M575.72,1156.36,592.60,1106.52"/>
<path d="M587.23,1295.65,607.26,1266.40"/>
<path d="M1292.30,1712.59,1227.41,1651.20"/>
<path d="M876.69,1284.20,939.45,1258.52"/>
<path d="M876.69,1284.20,732.91,1285.56"/>
<path d="M1288.98,226.12,1231.81,215.02"/>
<path d="M1288.98,226.12,1239.67,249.49"/>
<path d="M610.55,13.37,630.57,68.37"/>
<path d="M909.80,935.99,1050.30,873.56"/>
<path d="M59.69,1005.29,55.22,946.50"/>
<path d="M59.69,1005.29,136.03,953.83"/>
<path d="M1291.54,633.15,1228.11,647.66"/>
<path d="M1291.54,633.15,1402.65,580.43"/>
<path d="M1609.78,694.66,1674.71,612.50"/>
<path d="M1169.37,741.27,1230.99,716.48"/>
<path d="M77.12,1723.37,92.28,1654.60"/>
<path d="M77.12,1723.37,50.23,1720.79"/>
<path d="M1426.40,931.35,1330.49,856.27"/>
<path d="M1426.40,931.35,1362.64,1000.22"/>
<path d="M55.22,946.50,136.03,953.83"/>
<path d="M345.50,1407.14,310.62,1332.05"/>
<path d="M939.45,1258.52,909.51,1107.94"/>
<path d="M544.89,841.06,465.56,812.58"/>
<path d="M1022.36,664.53,1029.75,627.65"/>
<path d="M1022.36,664.53,956.28,615.75"/>
<path d="M569.72,554.44,673.11,634.47"/>
<path d="M1029.75,627.65,956.28,615.75"/>
<path d="M1029.75,627.65,997.07,581.51"/>
<path d="M232.71,1242.28,310.62,1332.05"/>
<path d="M232.71,1242.28,124.50,1300.58"/>
<path d="M394.32,844.22,465.56,812.58"/>
<path d="M218.23,64.05,193.42,25.62"/>
<path d="M136.03,953.83,154.56,792.91"/>
<path d="M1212.52,1036.89,1158.34,1015.63"/>
<path d="M310.62,1332.05,374.46,1202.02"/>
<path d="M423.03,124.40,392.47,99.40"/>
<path d="M1158.34,1015.63,1111.66,1093.33"/>
<path d="M1645.75,1261.49,1742.31,1343.14"/>
<path d="M1645.75,1261.49,1496.55,1262.74"/>
<path d="M1674.71,612.50,1762.74,554.37"/>
<path d="M982.94,383.50,852.91,306.09"/>
<path d="M982.94,383.50,1091.66,375.59"/>
<path d="M1231.81,215.02,1239.67,249.49"/>
<path d="M752.84,444.59,687.12,264.76"/>
<path d="M956.28,615.75,997.07,581.51"/>
<path d="M314.28,609.72,367.45,621.83"/>
<circle cx="1205.48" cy="824.81" r="10"/>
<text x="1205.48" y="829.81">R0</text>
<circle cx="275.85" cy="369.66" r="10"/>
<text x="275.85" y="374.66">R1</text>
<circle cx="499.53" cy="780.12" r="10"/>
<text x="499.53" y="785.12">R2</text>
<circle cx="1205.54" cy="670.95" r="10"/>
<text x="1205.54" y="675.95">R3</text>
<circle cx="1775.60" cy="1601.27" r="10"/>
<text x="1775.60" y="1606.27">R4</text>
<circle cx="1207.96" cy="1197.19" r="10"/>
<text x="1207.96" y="1202.19">R5</text>
<circle cx="1516.49" cy="1681.90" r="10"/>
<text x="1516.49" y="1686.90">R6</text>
<circle cx="36.24" cy="171.99" r="10"/>
<text x="36.24" y="176.99">R7</text>
<circle cx="668.21" cy="1267.36" r="10"/>
<text x="668.21" y="1272.36">R8</text>
<circle cx="1713.14" cy="1084.46" r="10"/>
<text x="1713.14" y="1089.46">R9</text>
<circle cx="597.45" cy="1579.49" r="10"/>
<text x="597.45" y="1584.49">R10</text>
<circle cx="347.99" cy="173.04" r="10"/>
<text x="347.99" y="178.04">R11</text>
<circle cx="291.02" cy="941.45" r="10"/>
<text x="291.02" y="946.45">R12</text>
<circle cx="1184.40" cy="1723.05" r="10"/>
<text x="1184.40" y="1728.05">R13</text>
<circle cx="1613.43" cy="392.60" r="10"/>
<text x="1613.43" y="397.60">R14</text>
<circle cx="1399.80" cy="1443.42" r="10"/>
<text x="1399.80" y="1448.42">R15</text>
<circle cx="391.92" cy="1738.60" r="10"/>
<text x="391.92" y="1743.60">R16</text>
<circle cx="1768.39" cy="900.82" r="10"/>
<text x="1768.39" y="905.82">R17</text>
<circle cx="189.61" cy="1498.89" r="10"/>
<text x="189.61" y="1503.89">R18</text>
<circle cx="1760.58" cy="1372.58" r="10"/>
<text x="1760.58" y="1377.58">R19</text>
<circle cx="494.45" cy="1501.74" r="10"/>
<text x="494.45" y="1506.74">R20</text>
<circle cx="1537.64" cy="808.85" r="10"/>
<text x="1537.64" y="813.85">R21</text>
<circle cx="460.88" cy="1482.79" r="10"/>
<text x="460.88" y="1487.79">R22</text>
<circle cx="1772.51" cy="1275.97" r="10"/>
<text x="1772.51" y="1280.97">R23</text>
<circle cx="1191.89" cy="1794.60" r="10"/>
<text x="1191.89" y="1799.60">R24</text>
<circle cx="1353.76" cy="1274.56" r="10"/>
<text x="1353.76" y="1279.56">R25</text>
<circle cx="65.01" cy="1353.81" r="10"/>
<text x="65.01" y="1358.81">R26</text>
<circle cx="699.95" cy="1710.83" r="10"/>
<text x="699.95" y="1715.83">R27</text>
<circle cx="110.51" cy="663.05" r="10"/>
<text x="110.51" y="668.05">R28</text>
<circle cx="1757.27" cy="1717.81" r="10"/>
<text x="1757.27" y="1722.81">R29</text>
<circle cx="1147.42" cy="771.53" r="10"/>
<text x="1147.42" y="776.53">R30</text>
<circle cx="1542.81" cy="1572.07" r="10"/>
<text x="1542.81" y="1577.07">R31</text>
<circle cx="1719.41" cy="1161.27" r="10"/>
<text x="1719.41" y="1166.27">R32</text>
<circle cx="1737.55" cy="863.92" r="10"/>
<text x="1737.55" y="868.92">R33</text>
<circle cx="594.74" cy="791.73" r="10"/>
<text x="594.74" y="796.73">R34</text>
<circle cx="1049.21" cy="781.39" r="10"/>
<text x="1049.21" y="786.39">R35</text>
<circle cx="1768.87" cy="264.15" r="10"/>
<text x="1768.87" y="269.15">R36</text>
<circle cx="582.55" cy="1639.78" r="10"/>
<text x="582.55" y="1644.78">R37</text>
<circle cx="625.56" cy="1476.82" r="10"/>
<text x="625.56" y="1481.82">R38</text>
<circle cx="1295.03" cy="1251.37" r="10"/>
<text x="1295.03" y="1256.37">R39</text>
<circle cx="341.36" cy="1703.00" r="10"/>
<text x="341.36" y="1708.00">R40</text>
<circle cx="1650.00" cy="575.43" r="10"/>
<text x="1650.00" y="580.43">R41</text>
<circle cx="1656.71" cy="163.42" r="10"/>
<text x="1656.71" y="168.42">R42</text>
<circle cx="556.82" cy="817.20" r="10"/>
<text x="556.82" y="822.20">R43</text>
<circle cx="687.49" cy="1595.02" r="10"/>
<text x="687.49" y="1600.02">R44</text>
<circle cx="120.00" cy="5.20" r="10"/>
<text x="120.00" y="10.20">R45</text>
<circle cx="535.41" cy="450.73" r="10"/>
<text x="535.41" y="455.73">R46</text>
<circle cx="341.27" cy="910.45" r="10"/>
<text x="341.27" y="915.45">R47</text>
<circle cx="1433.57" cy="132.99" r="10"/>
<text x="1433.57" y="137.99">R48</text>
<circle cx="72.02" cy="824.88" r="10"/>
<text x="72.02" y="829.88">R49</text>
<circle cx="1248.98" cy="785.50" r="10"/>
<text x="1248.98" y="790.50">R50</text>
<circle cx="1670.13" cy="1166.65" r="10"/>
<text x="1670.13" y="1171.65">R51</text>
<circle cx="541.55" cy="95.16" r="10"/>
<text x="541.55" y="100.16">R52</text>
<circle cx="1019.11" cy="462.71" r="10"/>
<text x="1019.11" y="467.71">R53</text>
<circle cx="1499.58" cy="643.32" r="10"/>
<text x="1499.58" y="648.32">R54</text>
<circle cx="93.00" cy="1334.12" r="10"/>
<text x="93.00" y="1339.12">R55</text>
<circle cx="1170.44" cy="356.55" r="10"/>
<text x="1170.44" y="361.55">R56</text>
<circle cx="1048.82" cy="195.64" r="10"/>
<text x="1048.82" y="200.64">R57</text>
<circle cx="1534.39" cy="446.68" r="10"/>
<text x="1534.39" y="451.68">R58</text>
<circle cx="538.06" cy="1190.05" r="10"/>
<text x="538.06" y="1195.05">R59</text>
<circle cx="221.39" cy="612.63" r="10"/>
<text x="221.39" y="617.63">R60</text>
<circle cx="39.56" cy="710.51" r="10"/>
<text x="39.56" y="715.51">R61</text>
<circle cx="934.92" cy="968.93" r="10"/>
<text x="934.92" y="973.93">R62</text>
<circle cx="713.02" cy="1762.46" r="10"/>
<text x="713.02" y="1767.46">R63</text>
<circle cx="709.61" cy="1571.12" r="10"/>
<text x="709.61" y="1576.12">R64</text>
<circle cx="1716.70" cy="1216.54" r="10"/>
<text x="1716.70" y="1221.54">R65</text>
<circle cx="1717.31" cy="474.57" r="10"/>
<text x="1717.31" y="479.57">R66</text>
<circle cx="545.21" cy="490.01" r="10"/>
<text x="545.21" y="495.01">R67</text>
<circle cx="607.92" cy="874.22" r="10"/>
<text x="607.92" y="879.22">R68</text>
<circle cx="418.59" cy="1582.69" r="10"/>
<text x="418.59" y="1587.69">R69</text>
<circle cx="1691.46" cy="1754.26" r="10"/>
<text x="1691.46" y="1759.26">R70</text>
<circle cx="577.08" cy="954.43" r="10"/>
<text x="577.08" y="959.43">R71</text>
<circle cx="1136.22" cy="1355.21" r="10"/>
<text x="1136.22" y="1360.21">R72</text>
<circle cx="824.47" cy="1535.19" r="10"/>
<text x="824.47" y="1540.19">R73</text>
<circle cx="1480.81" cy="507.36" r="10"/>
<text x="1480.81" y="512.36">R74</text>
<circle cx="186.50" cy="784.27" r="10"/>
<text x="186.50" y="789.27">R75</text>
<circle cx="1748.34" cy="1078.68" r="10"/>
<text x="1748.34" y="1083.68">R76</text>
<circle cx="850.74" cy="1717.77" r="10"/>
<text x="850.74" y="1722.77">R77</text>
<circle cx="156.82" cy="374.09" r="10"/>
<text x="156.82" y="379.09">R78</text>
<circle cx="1595.35" cy="41.28" r="10"/>
<text x="1595.35" y="46.28">R79</text>
<circle cx="223.66" cy="232.80" r="10"/>
<text x="223.66" y="237.80">R80</text>
<circle cx="929.37" cy="700.10" r="10"/>
<text x="929.37" y="705.10">R81</text>
<circle cx="817.36" cy="1759.27" r="10"/>
<text x="817.36" y="1764.27">R82</text>
<circle cx="201.00" cy="1020.39" r="10"/>
<text x="201.00" y="1025.39">R83</text>
<circle cx="395.29" cy="952.69" r="10"/>
<text x="395.29" y="957.69">R84</text>
<circle cx="157.16" cy="1704.05" r="10"/>
<text x="157.16" y="1709.05">R85</text>
<circle cx="964.95" cy="235.89" r="10"/>
<text x="964.95" y="240.89">R86</text>
<circle cx="1477.54" cy="874.69" r="10"/>
<text x="1477.54" y="879.69">R87</text>
<circle cx="420.90" cy="683.87" r="10"/>
<text x="420.90" y="688.87">R88</text>
<circle cx="1573.55" cy="103.21" r="10"/>
<text x="1573.55" y="108.21">R89</text>
<circle cx="1293.18" cy="902.21" r="10"/>
<text x="1293.18" y="907.21">R90</text>
<circle cx="1228.49" cy="1325.91" r="10"/>
<text x="1228.49" y="1330.91">R91</text>
<circle cx="1308.68" cy="1142.89" r="10"/>
<text x="1308.68" y="1147.89">R92</text>
<circle cx="346.39" cy="370.72" r="10"/>
<text x="346.39" y="375.72">R93</text>
<circle cx="1585.86" cy="1108.53" r="10"/>
<text x="1585.86" y="1113.53">R94</text>
<circle cx="1082.85" cy="1342.16" r="10"/>
<text x="1082.85" y="1347.16">R95</text>
<circle cx="1664.20" cy="1802.21" r="10"/>
<text x="1664.20" y="1807.21">R96</text>
<circle cx="1646.94" cy="309.48" r="10"/>
<text x="1646.94" y="314.48">R97</text>
<circle cx="701.63" cy="231.75" r="10"/>
<text x="701.63" y="236.75">R98</text>
<circle cx="1489.84" cy="1460.94" r="10"/>
<text x="1489.84" y="1465.94">R99</text>
<circle cx="207.67" cy="102.49" r="10"/>
<text x="207.67" y="107.49">R100</text>
<circle cx="1308.77" cy="248.64" r="10"/>
<text x="1308.77" y="253.64">R101</text>
<circle cx="125.56" cy="126.17" r="10"/>
<text x="125.56" y="131.17">R102</text>
<circle cx="235.87" cy="651.47" r="10"/>
<text x="235.87" y="656.47">R103</text>
<circle cx="974.65" cy="1245.88" r="10"/>
<text x="974.65" y="1250.88">R104</text>
<circle cx="1454.41" cy="844.36" r="10"/>
<text x="1454.41" y="849.36">R105</text>
<circle cx="1636.07" cy="1489.62" r="10"/>
<text x="1636.07" y="1494.62">R106</text>
<circle cx="768.28" cy="164.47" r="10"/>
<text x="768.28" y="169.47">R107</text>
<circle cx="843.00" cy="112.36" r="10"/>
<text x="843.00" y="117.36">R108</text>
<circle cx="48.71" cy="418.03" r="10"/>
<text x="48.71" y="423.03">R109</text>
<circle cx="1777.63" cy="1161.54" r="10"/>
<text x="1777.63" y="1166.54">R110</text>
<circle cx="1616.81" cy="1018.77" r="10"/>
<text x="1616.81" y="1023.77">R111</text>
<circle cx="80.93" cy="446.16" r="10"/>
<text x="80.93" y="451.16">R112</text>
<circle cx="675.41" cy="1148.81" r="10"/>
<text x="675.41" y="1153.81">R113</text>
<circle cx="371.42" cy="772.38" r="10"/>
<text x="371.42" y="777.38">R114</text>
<circle cx="1323.07" cy="1500.03" r="10"/>
<text x="1323.07" y="1505.03">R115</text>
<circle cx="1164.00" cy="118.24" r="10"/>
<text x="1164.00" y="123.24">R116</text>
<circle cx="1726.97" cy="811.76" r="10"/>
<text x="1726.97" y="816.76">R117</text>
<circle cx="872.77" cy="1637.72" r="10"/>
<text x="872.77" y="1642.72">R118</text>
<circle cx="265.02" cy="667.74" r="10"/>
<text x="265.02" y="672.74">R119</text>
<circle cx="83.13" cy="1135.30" r="10"/>
<text x="83.13" y="1140.30">R120</text>
<circle cx="452.70" cy="1216.50" r="10"/>
<text x="452.70" y="1221.50">R121</text>
<circle cx="1677.04" cy="775.73" r="10"/>
<text x="1677.04" y="780.73">R122</text>
<circle cx="1690.61" cy="328.51" r="10"/>
<text x="1690.61" y="333.51">R123</text>
<circle cx="1478.28" cy="1361.40" r="10"/>
<text x="1478.28" y="1366.40">R124</text>
<circle cx="321.89" cy="1516.03" r="10"/>
<text x="321.89" y="1521.03">R125</text>
<circle cx="1217.77" cy="1351.83" r="10"/>
<text x="1217.77" y="1356.83">R126</text>
<circle cx="1775.57" cy="1684.67" r="10"/>
<text x="1775.57" y="1689.67">R127</text>
<circle cx="1271.37" cy="712.61" r="10"/>
<text x="1271.37" y="717.61">R128</text>
<circle cx="677.28" cy="198.34" r="10"/>
<text x="677.28" y="203.34">R129</text>
<circle cx="1188.20" cy="194.21" r="10"/>
<text x="1188.20" y="199.21">R130</text>
<circle cx="1367.13" cy="410.43" r="10"/>
<text x="1367.13" y="415.43">R131</text>
<circle cx="1616.41" cy="1637.89" r="10"/>
<text x="1616.41" y="1642.89">R132</text>
<circle cx="459.27" cy="578.58" r="10"/>
<text x="459.27" y="583.58">R133</text>
<circle cx="1637.94" cy="1395.56" r="10"/>
<text x="1637.94" y="1400.56">R134</text>
<circle cx="500.86" cy="940.65" r="10"/>
<text x="500.86" y="945.65">R135</text>
<circle cx="784.48" cy="1433.38" r="10"/>
<text x="784.48" y="1438.38">R136</text>
<circle cx="300.16" cy="1614.41" r="10"/>
<text x="300.16" y="1619.41">R137</text>
<circle cx="195.17" cy="302.53" r="10"/>
<text x="195.17" y="307.53">R138</text>
<circle cx="1522.54" cy="753.23" r="10"/>
<text x="1522.54" y="758.23">R139</text>
<circle cx="6.05" cy="1792.59" r="10"/>
<text x="6.05" y="1797.59">R140</text>
<circle cx="1657.10" cy="1231.15" r="10"/>
<text x="1657.10" y="1236.15">R141</text>
<circle cx="801.07" cy="299.62" r="10"/>
<text x="801.07" y="304.62">R142</text>
<circle cx="1748.27" cy="1749.73" r="10"/>
<text x="1748.27" y="1754.73">R143</text>
<circle cx="1378.92" cy="1206.30" r="10"/>
<text x="1378.92" y="1211.30">R144</text>
<circle cx="707.97" cy="1010.60" r="10"/>
<text x="707.97" y="1015.60">R145</text>
<circle cx="799.90" cy="1129.69" r="10"/>
<text x="799.90" y="1134.69">R146</text>
<circle cx="370.90" cy="473.19" r="10"/>
<text x="370.90" y="478.19">R147</text>
<circle cx="1550.93" cy="1072.20" r="10"/>
<text x="1550.93" y="1077.20">R148</text>
<circle cx="1503.45" cy="83.74" r="10"/>
<text x="1503.45" y="88.74">R149</text>
<circle cx="607.67" cy="1540.11" r="10"/>
<text x="607.67" y="1545.11">R150</text>
<circle cx="1221.31" cy="942.79" r="10"/>
<text x="1221.31" y="947.79">R151</text>
<circle cx="1618.56" cy="224.36" r="10"/>
<text x="1618.56" y="229.36">R152</text>
<circle cx="636.42" cy="509.49" r="10"/>
<text x="636.42" y="514.49">R153</text>
<circle cx="1376.59" cy="1331.98" r="10"/>
<text x="1376.59" y="1336.98">R154</text>
<circle cx="1573.73" cy="423.53" r="10"/>
<text x="1573.73" y="428.53">R155</text>
<circle cx="284.75" cy="1564.09" r="10"/>
<text x="284.75" y="1569.09">R156</text>
<circle cx="920.69" cy="814.15" r="10"/>
<text x="920.69" y="819.15">R157</text>
<circle cx="523.78" cy="1685.71" r="10"/>
<text x="523.78" y="1690.71">R158</text>
<circle cx="400.51" cy="729.84" r="10"/>
<text x="400.51" y="734.84">R159</text>
<circle cx="1107.44" cy="886.23" r="10"/>
<text x="1107.44" y="891.23">R160</text>
<circle cx="1643.97" cy="1640.04" r="10"/>
<text x="1643.97" y="1645.04">R161</text>
<circle cx="1056.30" cy="712.93" r="10"/>
<text x="1056.30" y="717.93">R162</text>
<circle cx="1265.63" cy="190.75" r="10"/>
<text x="1265.63" y="195.75">R163</text>
<circle cx="939.77" cy="512.63" r="10"/>
<text x="939.77" y="517.63">R164</text>
<circle cx="676.55" cy="750.56" r="10"/>
<text x="676.55" y="755.56">R165</text>
<circle cx="364.58" cy="1158.35" r="10"/>
<text x="364.58" y="1163.35">R166</text>
<circle cx="1521.72" cy="1190.43" r="10"/>
<text x="1521.72" y="1195.43">R167</text>
<circle cx="1246.56" cy="410.61" r="10"/>
<text x="1246.56" y="415.61">R168</text>
<circle cx="126.26" cy="1435.49" r="10"/>
<text x="126.26" y="1440.49">R169</text>
<circle cx="664.76" cy="711.97" r="10"/>
<text x="664.76" y="716.97">R170</text>
<circle cx="758.79" cy="596.17" r="10"/>
<text x="758.79" y="601.17">R171</text>
<circle cx="1719.26" cy="1014.40" r="10"/>
<text x="1719.26" y="1019.40">R172</text>
<circle cx="1350.77" cy="1152.14" r="10"/>
<text x="1350.77" y="1157.14">R173</text>
<circle cx="583.55" cy="1607.02" r="10"/>
<text x="583.55" y="1612.02">R174</text>
<circle cx="1228.31" cy="142.58" r="10"/>
<text x="1228.31" y="147.58">R175</text>
<circle cx="366.98" cy="155.57" r="10"/>
<text x="366.98" y="160.57">R176</text>
<circle cx="1138.46" cy="982.61" r="10"/>
<text x="1138.46" y="987.61">R177</text>
<circle cx="519.66" cy="738.08" r="10"/>
<text x="519.66" y="743.08">R178</text>
<circle cx="208.32" cy="1724.64" r="10"/>
<text x="208.32" y="1729.64">R179</text>
<circle cx="236.96" cy="446.08" r="10"/>
<text x="236.96" y="451.08">R180</text>
<circle cx="1464.58" cy="397.14" r="10"/>
<text x="1464.58" y="402.14">R181</text>
<circle cx="1044.12" cy="443.08" r="10"/>
<text x="1044.12" y="448.08">R182</text>
<circle cx="1556.77" cy="921.68" r="10"/>
<text x="1556.77" y="926.68">R183</text>
<circle cx="674.14" cy="22.00" r="10"/>
<text x="674.14" y="27.00">R184</text>
<circle cx="649.78" cy="1339.20" r="10"/>
<text x="649.78" y="1344.20">R185</text>
<circle cx="657.29" cy="1067.99" r="10"/>
<text x="657.29" y="1072.99">R186</text>
<circle cx="1159.21" cy="1773.75" r="10"/>
<text x="1159.21" y="1778.75">R187</text>
<circle cx="535.86" cy="1778.29" r="10"/>
<text x="535.86" y="1783.29">R188</text>
<circle cx="404.94" cy="11.15" r="10"/>
<text x="404.94" y="16.15">R189</text>
<circle cx="1255.66" cy="293.33" r="10"/>
<text x="1255.66" y="298.33">R190</text>
<circle cx="134.66" cy="1388.84" r="10"/>
<text x="134.66" y="1393.84">R191</text>
<circle cx="210.12" cy="807.83" r="10"/>
<text x="210.12" y="812.83">R192</text>
<circle cx="172.05" cy="1566.96" r="10"/>
<text x="172.05" y="1571.96">R193</text>
<circle cx="745.58" cy="207.89" r="10"/>
<text x="745.58" y="212.89">R194</text>
<circle cx="1081.15" cy="1694.56" r="10"/>
<text x="1081.15" y="1699.56">R195</text>
<circle cx="222.46" cy="703.91" r="10"/>
<text x="222.46" y="708.91">R196</text>
<circle cx="1172.67" cy="545.12" r="10"/>
<text x="1172.67" y="550.12">R197</text>
<circle cx="761.18" cy="75.73" r="10"/>
<text x="761.18" y="80.73">R198</text>
<circle cx="449.41" cy="1141.70" r="10"/>
<text x="449.41" y="1146.70">R199</text>
<circle cx="1720.12" cy="1719.17" r="10"/>
<text x="1720.12" y="1724.17">R200</text>
<circle cx="1403.15" cy="1472.86" r="10"/>
<text x="1403.15" y="1477.86">R201</text>
<circle cx="1412.72" cy="1013.53" r="10"/>
<text x="1412.72" y="1018.53">R202</text>
<circle cx="982.85" cy="71.27" r="10"/>
<text x="982.85" y="76.27">R203</text>
<circle cx="103.64" cy="1588.45" r="10"/>
<text x="103.64" y="1593.45">R204</text>
<circle cx="582.35" cy="101.04" r="10"/>
<text x="582.35" y="106.04">R205</text>
<circle cx="1419.16" cy="1712.74" r="10"/>
<text x="1419.16" y="1717.74">R206</text>
<circle cx="1740.10" cy="1512.57" r="10"/>
<text x="1740.10" y="1517.57">R207</text>
<circle cx="814.00" cy="762.24" r="10"/>
<text x="814.00" y="767.24">R208</text>
<circle cx="824.78" cy="336.11" r="10"/>
<text x="824.78" y="341.11">R209</text>
<circle cx="470.88" cy="1080.98" r="10"/>
<text x="470.88" y="1085.98">R210</text>
<circle cx="1477.68" cy="1549.93" r="10"/>
<text x="1477.68" y="1554.93">R211</text>
<circle cx="1717.28" cy="1620.92" r="10"/>
<text x="1717.28" y="1625.92">R212</text>
<circle cx="1086.99" cy="1150.17" r="10"/>
<text x="1086.99" y="1155.17">R213</text>
<circle cx="942.91" cy="85.83" r="10"/>
<text x="942.91" y="90.83">R214</text>
<circle cx="1390.02" cy="375.51" r="10"/>
<text x="1390.02" y="380.51">R215</text>
<circle cx="1239.23" cy="1296.70" r="10"/>
<text x="1239.23" y="1301.70">R216</text>
<circle cx="1524.89" cy="887.56" r="10"/>
<text x="1524.89" y="892.56">R217</text>
<circle cx="366.76" cy="85.65" r="10"/>
<text x="366.76" y="90.65">R218</text>
<circle cx="428.27" cy="1692.52" r="10"/>
<text x="428.27" y="1697.52">R219</text>
<circle cx="817.39" cy="493.12" r="10"/>
<text x="817.39" y="498.12">R220</text>
<circle cx="125.96" cy="761.61" r="10"/>
<text x="125.96" y="766.61">R221</text>
<circle cx="280.78" cy="906.86" r="10"/>
<text x="280.78" y="911.86">R222</text>
<circle cx="1504.74" cy="460.88" r="10"/>
<text x="1504.74" y="465.88">R223</text>
<circle cx="249.78" cy="1222.17" r="10"/>
<text x="249.78" y="1227.17">R224</text>
<circle cx="1553.00" cy="983.97" r="10"/>
<text x="1553.00" y="988.97">R225</text>
<circle cx="253.67" cy="144.81" r="10"/>
<text x="253.67" y="149.81">R226</text>
<circle cx="1317.93" cy="950.73" r="10"/>
<text x="1317.93" y="955.73">R227</text>
<circle cx="1723.22" cy="504.78" r="10"/>
<text x="1723.22" y="509.78">R228</text>
<circle cx="1715.05" cy="113.41" r="10"/>
<text x="1715.05" y="118.41">R229</text>
<circle cx="1120.98" cy="445.43" r="10"/>
<text x="1120.98" y="450.43">R230</text>
<circle cx="83.65" cy="196.37" r="10"/>
<text x="83.65" y="201.37">R231</text>
<circle cx="1126.79" cy="677.97" r="10"/>
<text x="1126.79" y="682.97">R232</text>
<circle cx="138.18" cy="1472.35" r="10"/>
<text x="138.18" y="1477.35">R233</text>
<circle cx="141.75" cy="1024.93" r="10"/>
<text x="141.75" y="1029.93">R234</text>
<circle cx="278.42" cy="1633.70" r="10"/>
<text x="278.42" y="1638.70">R235</text>
<circle cx="545.08" cy="792.80" r="10"/>
<text x="545.08" y="797.80">R236</text>
<circle cx="1733.35" cy="1774.65" r="10"/>
<text x="1733.35" y="1779.65">R237</text>
<circle cx="575.72" cy="1156.36" r="10"/>
<text x="575.72" y="1161.36">R238</text>
<circle cx="587.23" cy="1295.65" r="10"/>
<text x="587.23" y="1300.65">R239</text>
<circle cx="1292.30" cy="1712.59" r="10"/>
<text x="1292.30" y="1717.59">R240</text>
<circle cx="876.69" cy="1284.20" r="10"/>
<text x="876.69" y="1289.20">R241</text>
<circle cx="1295.71" cy="83.78" r="10"/>
<text x="1295.71" y="88.78">R242</text>
<circle cx="1288.98" cy="226.12" r="10"/>
<text x="1288.98" y="231.12">R243</text>
<circle cx="610.55" cy="13.37" r="10"/>
<text x="610.55" y="18.37">R244</text>
<circle cx="909.80" cy="935.99" r="10"/>
<text x="909.80" y="940.99">R245</text>
<circle cx="59.69" cy="1005.29" r="10"/>
<text x="59.69" y="1010.29">R246</text>
<circle cx="1291.54" cy="633.15" r="10"/>
<text x="1291.54" y="638.15">R247</text>
<circle cx="726.85" cy="1655.71" r="10"/>
<text x="726.85" y="1660.71">R248</text>
<circle cx="1609.78" cy="694.66" r="10"/>
<text x="1609.78" y="699.66">R249</text>
<circle cx="723.77" cy="3.52" r="10"/>
<text x="723.77" y="8.52">R250</text>
<circle cx="1169.37" cy="741.27" r="10"/>
<text x="1169.37" y="746.27">R251</text>
<circle cx="602.21" cy="829.13" r="10"/>
<text x="602.21" y="834.13">R252</text>
<circle cx="77.12" cy="1723.37" r="10"/>
<text x="77.12" y="1728.37">R253</text>
<circle cx="1426.40" cy="931.35" r="10"/>
<text x="1426.40" y="936.35">R254</text>
<circle cx="55.22" cy="946.50" r="10"/>
<text x="55.22" y="951.50">R255</text>
<circle cx="345.50" cy="1407.14" r="10"/>
<text x="345.50" y="1412.14">R256</text>
<circle cx="92.28" cy="1654.60" r="10"/>
<text x="92.28" y="1659.60">R257</text>
<circle cx="939.45" cy="1258.52" r="10"/>
<text x="939.45" y="1263.52">R258</text>
<circle cx="544.89" cy="841.06" r="10"/>
<text x="544.89" y="846.06">R259</text>
<circle cx="1538.47" cy="120.09" r="10"/>
<text x="1538.47" y="125.09">R260</text>
<circle cx="302.50" cy="1719.33" r="10"/>
<text x="302.50" y="1724.33">R261</text>
<circle cx="607.26" cy="1266.40" r="10"/>
<text x="607.26" y="1271.40">R262</text>
<circle cx="1022.36" cy="664.53" r="10"/>
<text x="1022.36" y="669.53">R263</text>
<circle cx="569.72" cy="554.44" r="10"/>
<text x="569.72" y="559.44">R264</text>
<circle cx="1227.41" cy="1651.20" r="10"/>
<text x="1227.41" y="1656.20">R265</text>
<circle cx="1029.75" cy="627.65" r="10"/>
<text x="1029.75" y="632.65">R266</text>
<circle cx="1511.68" cy="420.93" r="10"/>
<text x="1511.68" y="425.93">R267</text>
<circle cx="232.71" cy="1242.28" r="10"/>
<text x="232.71" y="1247.28">R268</text>
<circle cx="394.32" cy="844.22" r="10"/>
<text x="394.32" y="849.22">R269</text>
<circle cx="1208.27" cy="428.71" r="10"/>
<text x="1208.27" y="433.71">R270</text>
<circle cx="218.23" cy="64.05" r="10"/>
<text x="218.23" y="69.05">R271</text>
<circle cx="1665.34" cy="1721.82" r="10"/>
<text x="1665.34" y="1726.82">R272</text>
<circle cx="341.72" cy="1543.10" r="10"/>
<text x="341.72" y="1548.10">R273</text>
<circle cx="136.03" cy="953.83" r="10"/>
<text x="136.03" y="958.83">R274</text>
<circle cx="78.98" cy="14.01" r="10"/>
<text x="78.98" y="19.01">R275</text>
<circle cx="1595.02" cy="912.73" r="10"/>
<text x="1595.02" y="917.73">R276</text>
<circle cx="1495.05" cy="721.68" r="10"/>
<text x="1495.05" y="726.68">R277</text>
<circle cx="50.23" cy="1720.79" r="10"/>
<text x="50.23" y="1725.79">R278</text>
<circle cx="732.91" cy="1285.56" r="10"/>
<text x="732.91" y="1290.56">R279</text>
<circle cx="1212.52" cy="1036.89" r="10"/>
<text x="1212.52" y="1041.89">R280</text>
<circle cx="310.62" cy="1332.05" r="10"/>
<text x="310.62" y="1337.05">R281</text>
<circle cx="673.11" cy="634.47" r="10"/>
<text x="673.11" y="639.47">R282</text>
<circle cx="1436.22" cy="263.68" r="10"/>
<text x="1436.22" y="268.68">R283</text>
<circle cx="423.03" cy="124.40" r="10"/>
<text x="423.03" y="129.40">R284</text>
<circle cx="1158.34" cy="1015.63" r="10"/>
<text x="1158.34" y="1020.63">R285</text>
<circle cx="1645.75" cy="1261.49" r="10"/>
<text x="1645.75" y="1266.49">R286</text>
<circle cx="909.51" cy="1107.94" r="10"/>
<text x="909.51" y="1112.94">R287</text>
<circle cx="592.60" cy="1106.52" r="10"/>
<text x="592.60" y="1111.52">R288</text>
<circle cx="1674.71" cy="612.50" r="10"/>
<text x="1674.71" y="617.50">R289</text>
<circle cx="374.46" cy="1202.02" r="10"/>
<text x="374.46" y="1207.02">R290</text>
<circle cx="154.56" cy="792.91" r="10"/>
<text x="154.56" y="797.91">R291</text>
<circle cx="630.57" cy="68.37" r="10"/>
<text x="630.57" y="73.37">R292</text>
<circle cx="982.94" cy="383.50" r="10"/>
<text x="982.94" y="388.50">R293</text>
<circle cx="956.13" cy="120.63" r="10"/>
<text x="956.13" y="125.63">R294</text>
<circle cx="1231.81" cy="215.02" r="10"/>
<text x="1231.81" y="220.02">R295</text>
<circle cx="852.91" cy="306.09" r="10"/>
<text x="852.91" y="311.09">R296</text>
<circle cx="1591.54" cy="509.41" r="10"/>
<text x="1591.54" y="514.41">R297</text>
<circle cx="1330.49" cy="856.27" r="10"/>
<text x="1330.49" y="861.27">R298</text>
<circle cx="1742.31" cy="1343.14" r="10"/>
<text x="1742.31" y="1348.14">R299</text>
<circle cx="465.56" cy="812.58" r="10"/>
<text x="465.56" y="817.58">R300</text>
<circle cx="124.50" cy="1300.58" r="10"/>
<text x="124.50" y="1305.58">R301</text>
<circle cx="1233.74" cy="1431.27" r="10"/>
<text x="1233.74" y="1436.27">R302</text>
<circle cx="752.84" cy="444.59" r="10"/>
<text x="752.84" y="449.59">R303</text>
<circle cx="956.28" cy="615.75" r="10"/>
<text x="956.28" y="620.75">R304</text>
<circle cx="314.28" cy="609.72" r="10"/>
<text x="314.28" y="614.72">R305</text>
<circle cx="1091.66" cy="375.59" r="10"/>
<text x="1091.66" y="380.59">R306</text>
<circle cx="1050.30" cy="873.56" r="10"/>
<text x="1050.30" y="878.56">R307</text>
<circle cx="193.42" cy="25.62" r="10"/>
<text x="193.42" y="30.62">R308</text>
<circle cx="567.89" cy="1767.50" r="10"/>
<text x="567.89" y="1772.50">R309</text>
<circle cx="1230.99" cy="716.48" r="10"/>
<text x="1230.99" y="721.48">R310</text>
<circle cx="1239.67" cy="249.49" r="10"/>
<text x="1239.67" y="254.49">R311</text>
<circle cx="1496.55" cy="1262.74" r="10"/>
<text x="1496.55" y="1267.74">R312</text>
<circle cx="1362.64" cy="1000.22" r="10"/>
<text x="1362.64" y="1005.22">R313</text>
<circle cx="414.10" cy="1041.18" r="10"/>
<text x="414.10" y="1046.18">R314</text>
<circle cx="367.45" cy="621.83" r="10"/>
<text x="367.45" y="626.83">R315</text>
<circle cx="1228.11" cy="647.66" r="10"/>
<text x="1228.11" y="652.66">R316</text>
<circle cx="1762.74" cy="554.37" r="10"/>
<text x="1762.74" y="559.37">R317</text>
<circle cx="1464.49" cy="1471.57" r="10"/>
<text x="1464.49" y="1476.57">R318</text>
<circle cx="1802.71" cy="1777.50" r="10"/>
<text x="1802.71" y="1782.50">R319</text>
<circle cx="1111.66" cy="1093.33" r="10"/>
<text x="1111.66" y="1098.33">R320</text>
<circle cx="997.07" cy="581.51" r="10"/>
<text x="997.07" y="586.51">R321</text>
<circle cx="687.12" cy="264.76" r="10"/>
<text x="687.12" y="269.76">R322</text>
<circle cx="392.47" cy="99.40" r="10"/>
<text x="392.47" y="104.40">R323</text>
<circle cx="1402.65" cy="580.43" r="10"/>
<text x="1402.65" y="585.43">R324</text>
</svg>
