<svg width="1578.14" height="1578.47" viewBox="-38.39 -33.62 1578.14 1578.47" xmlns="http://www.w3.org/2000/svg">
<style>path {fill: none; stroke: grey; stroke-width: 6;} circle {fill: lightblue; stroke: none;} text {fill: black; stroke: none; font-size: 16; font-family: sans-serif; text-anchor:middle;}</style>
<path d="M1050.07,359.23,1052.46,284.29"/>
<path d="M1050.07,359.23,1123.86,383.94"/>
<path d="M1050.07,359.23,924.31,378.42"/>
<path d="M1050.07,359.23,960.06,436.58"/>
<path d="M1091.97,1374.97,890.86,1383.58"/>
<path d="M1091.97,1374.97,1138.73,1378.79"/>
<path d="M1052.46,284.29,1018.87,129.49"/>
<path d="M1052.46,284.29,953.82,155.89"/>
<path d="M1052.46,284.29,1084.49,281.85"/>
<path d="M1052.46,284.29,897.46,206.13"/>
<path d="M1323.48,1145.51,1228.80,1276.54"/>
<path d="M1323.48,1145.51,1238.49,1113.02"/>
<path d="M1323.48,1145.51,1405.23,1336.93"/>
<path d="M1323.48,1145.51,1282.37,1030.34"/>
<path d="M1323.48,1145.51,1410.46,1029.69"/>
<path d="M213.42,12.79,272.47,35.80"/>
<path d="M213.42,12.79,206.19,81.80"/>
<path d="M213.42,12.79,178.35,11.38"/>
<path d="M272.47,35.80,206.19,81.80"/>
<path d="M272.47,35.80,355.39,85.85"/>
<path d="M1038.54,762.77,1111.44,695.99"/>
<path d="M1038.54,762.77,1124.87,728.57"/>
<path d="M1038.54,762.77,928.22,738.07"/>
<path d="M1038.54,762.77,989.40,876.34"/>
<path d="M1410.22,321.23,1406.07,198.18"/>
<path d="M1410.22,321.23,1478.68,330.94"/>
<path d="M1410.22,321.23,1393.16,359.78"/>
<path d="M437.17,147.45,483.19,169.89"/>
<path d="M437.17,147.45,401.15,186.86"/>
<path d="M437.17,147.45,380.58,151.15"/>
<path d="M1480.46,668.62,1494.75,764.95"/>
<path d="M1480.46,668.62,1412.39,702.89"/>
<path d="M1480.46,668.62,1445.34,623.70"/>
<path d="M206.19,81.80,203.09,143.61"/>
<path d="M206.19,81.80,178.35,11.38"/>
<path d="M206.19,81.80,114.11,64.56"/>
<path d="M1180.23,1016.59,1221.12,1002.90"/>
<path d="M1180.23,1016.59,1154.81,1074.19"/>
<path d="M1180.23,1016.59,989.40,876.34"/>
<path d="M195.48,932.98,158.58,1059.95"/>
<path d="M195.48,932.98,131.17,864.00"/>
<path d="M195.48,932.98,280.24,934.45"/>
<path d="M195.48,932.98,44.08,970.76"/>
<path d="M195.48,932.98,79.90,1027.32"/>
<path d="M195.48,932.98,214.88,825.64"/>
<path d="M195.48,932.98,250.46,979.32"/>
<path d="M902.68,464.66,891.78,432.13"/>
<path d="M902.68,464.66,902.38,501.33"/>
<path d="M902.68,464.66,960.06,436.58"/>
<path d="M1221.12,1002.90,1249.52,1048.24"/>
<path d="M1221.12,1002.90,1272.98,1006.06"/>
<path d="M1221.12,1002.90,1274.88,961.06"/>
<path d="M1494.75,764.95,1412.39,702.89"/>
<path d="M1494.75,764.95,1478.61,917.68"/>
<path d="M1494.75,764.95,1366.80,780.30"/>
<path d="M1304.04,437.80,1420.21,422.66"/>
<path d="M1304.04,437.80,1349.00,523.94"/>
<path d="M1304.04,437.80,1315.81,353.64"/>
<path d="M1304.04,437.80,1196.00,448.23"/>
<path d="M81.17,259.96,216.49,218.74"/>
<path d="M81.17,259.96,182.53,171.25"/>
<path d="M81.17,259.96,66.68,355.95"/>
<path d="M81.17,259.96,13.28,66.06"/>
<path d="M1459.48,508.95,1445.34,623.70"/>
<path d="M1459.48,508.95,1420.21,422.66"/>
<path d="M1459.48,508.95,1349.00,523.94"/>
<path d="M264.19,1034.96,307.49,1042.13"/>
<path d="M264.19,1034.96,248.08,1063.54"/>
<path d="M264.19,1034.96,250.46,979.32"/>
<path d="M891.78,432.13,830.67,451.68"/>
<path d="M891.78,432.13,924.31,378.42"/>
<path d="M891.78,432.13,960.06,436.58"/>
<path d="M1228.80,1276.54,1405.23,1336.93"/>
<path d="M1228.80,1276.54,1186.02,1174.61"/>
<path d="M1228.80,1276.54,1138.73,1378.79"/>
<path d="M1126.80,1108.58,1056.17,1075.95"/>
<path d="M1126.80,1108.58,1154.81,1074.19"/>
<path d="M1126.80,1108.58,1186.02,1174.61"/>
<path d="M1005.88,566.85,1111.44,695.99"/>
<path d="M1005.88,566.85,944.83,558.23"/>
<path d="M1005.88,566.85,1111.49,555.94"/>
<path d="M117.34,1270.70,60.47,1205.52"/>
<path d="M117.34,1270.70,147.59,1328.74"/>
<path d="M117.34,1270.70,65.05,1302.07"/>
<path d="M316.85,327.27,308.48,363.09"/>
<path d="M316.85,327.27,434.47,356.24"/>
<path d="M316.85,327.27,302.83,291.67"/>
<path d="M876.11,1499.85,890.86,1383.58"/>
<path d="M876.11,1499.85,823.40,1461.96"/>
<path d="M146.65,1122.13,60.47,1205.52"/>
<path d="M146.65,1122.13,158.58,1059.95"/>
<path d="M146.65,1122.13,204.99,1111.19"/>
<path d="M1406.07,198.18,1254.07,266.34"/>
<path d="M1406.07,198.18,1435.84,153.61"/>
<path d="M913.29,183.49,953.82,155.89"/>
<path d="M913.29,183.49,898.80,96.43"/>
<path d="M913.29,183.49,897.46,206.13"/>
<path d="M45.50,1355.39,128.03,1427.35"/>
<path d="M45.50,1355.39,65.05,1302.07"/>
<path d="M1191.16,1499.59,1182.70,1431.79"/>
<path d="M1191.16,1499.59,1380.03,1442.07"/>
<path d="M1254.07,266.34,1187.30,325.01"/>
<path d="M1254.07,266.34,1237.77,241.16"/>
<path d="M1254.07,266.34,1315.81,353.64"/>
<path d="M812.24,492.82,902.38,501.33"/>
<path d="M812.24,492.82,699.54,479.08"/>
<path d="M812.24,492.82,830.67,451.68"/>
<path d="M812.24,492.82,842.63,602.18"/>
<path d="M60.47,1205.52,31.51,1202.86"/>
<path d="M60.47,1205.52,65.05,1302.07"/>
<path d="M1018.87,129.49,1056.68,112.98"/>
<path d="M1018.87,129.49,953.82,155.89"/>
<path d="M1018.87,129.49,953.28,22.93"/>
<path d="M1208.20,589.02,1276.55,705.38"/>
<path d="M1208.20,589.02,1111.44,695.99"/>
<path d="M1208.20,589.02,1111.49,555.94"/>
<path d="M1208.20,589.02,1349.00,523.94"/>
<path d="M1208.20,589.02,1196.00,448.23"/>
<path d="M365.53,749.49,330.94,852.45"/>
<path d="M365.53,749.49,263.82,770.89"/>
<path d="M365.53,749.49,430.55,735.42"/>
<path d="M365.53,749.49,381.38,706.50"/>
<path d="M365.53,749.49,296.31,675.19"/>
<path d="M744.92,1027.33,934.57,946.84"/>
<path d="M744.92,1027.33,646.74,1022.87"/>
<path d="M744.92,1027.33,720.02,867.34"/>
<path d="M744.92,1027.33,826.75,1097.84"/>
<path d="M744.92,1027.33,745.58,1111.78"/>
<path d="M483.19,169.89,500.87,256.70"/>
<path d="M483.19,169.89,508.16,155.03"/>
<path d="M630.37,1431.07,587.47,1465.59"/>
<path d="M630.37,1431.07,615.66,1394.57"/>
<path d="M630.37,1431.07,688.59,1483.52"/>
<path d="M128.03,1427.35,147.59,1328.74"/>
<path d="M330.94,852.45,263.82,770.89"/>
<path d="M330.94,852.45,280.24,934.45"/>
<path d="M330.94,852.45,244.09,828.21"/>
<path d="M330.94,852.45,392.89,914.21"/>
<path d="M479.98,406.58,320.11,485.98"/>
<path d="M479.98,406.58,452.42,527.37"/>
<path d="M479.98,406.58,434.47,356.24"/>
<path d="M479.98,406.58,519.70,392.01"/>
<path d="M1146.73,35.86,1056.68,112.98"/>
<path d="M1146.73,35.86,1139.60,202.30"/>
<path d="M1146.73,35.86,1269.13,41.98"/>
<path d="M320.75,248.56,313.99,221.14"/>
<path d="M320.75,248.56,250.78,249.53"/>
<path d="M320.75,248.56,372.74,225.81"/>
<path d="M320.75,248.56,302.83,291.67"/>
<path d="M1276.55,705.38,1412.39,702.89"/>
<path d="M1276.55,705.38,1124.87,728.57"/>
<path d="M1276.55,705.38,1230.53,797.86"/>
<path d="M1276.55,705.38,1366.80,780.30"/>
<path d="M1276.55,705.38,1349.00,523.94"/>
<path d="M1412.39,702.89,1445.34,623.70"/>
<path d="M1412.39,702.89,1366.80,780.30"/>
<path d="M1056.68,112.98,1139.60,202.30"/>
<path d="M263.82,770.89,182.49,776.30"/>
<path d="M263.82,770.89,296.31,675.19"/>
<path d="M263.82,770.89,244.09,828.21"/>
<path d="M320.11,485.98,249.07,549.86"/>
<path d="M320.11,485.98,452.42,527.37"/>
<path d="M320.11,485.98,434.47,356.24"/>
<path d="M320.11,485.98,322.18,595.23"/>
<path d="M320.11,485.98,274.06,400.23"/>
<path d="M95.12,727.16,182.49,776.30"/>
<path d="M95.12,727.16,87.62,841.12"/>
<path d="M95.12,727.16,249.07,549.86"/>
<path d="M95.12,727.16,28.98,675.97"/>
<path d="M633.73,137.05,527.57,57.54"/>
<path d="M633.73,137.05,707.58,99.42"/>
<path d="M633.73,137.05,508.16,155.03"/>
<path d="M633.73,137.05,740.52,264.20"/>
<path d="M633.73,137.05,594.02,343.69"/>
<path d="M844.50,1229.68,830.30,1266.80"/>
<path d="M844.50,1229.68,841.18,1136.38"/>
<path d="M355.39,85.85,380.58,151.15"/>
<path d="M1139.60,202.30,1206.68,232.44"/>
<path d="M1139.60,202.30,1084.49,281.85"/>
<path d="M1139.60,202.30,1269.13,41.98"/>
<path d="M943.54,985.34,934.57,946.84"/>
<path d="M943.54,985.34,826.75,1097.84"/>
<path d="M943.54,985.34,982.54,1048.89"/>
<path d="M902.38,501.33,909.88,543.72"/>
<path d="M1238.49,1113.02,1154.81,1074.19"/>
<path d="M1238.49,1113.02,1249.52,1048.24"/>
<path d="M1238.49,1113.02,1186.02,1174.61"/>
<path d="M203.09,143.61,182.53,171.25"/>
<path d="M182.49,776.30,131.17,864.00"/>
<path d="M182.49,776.30,214.88,825.64"/>
<path d="M387.51,1242.79,455.78,1252.90"/>
<path d="M387.51,1242.79,360.89,1297.31"/>
<path d="M387.51,1242.79,274.74,1217.31"/>
<path d="M953.82,155.89,898.80,96.43"/>
<path d="M1056.17,1075.95,982.54,1048.89"/>
<path d="M54.92,606.45,87.13,438.08"/>
<path d="M54.92,606.45,28.98,675.97"/>
<path d="M54.92,606.45,212.76,513.33"/>
<path d="M1445.34,623.70,1349.00,523.94"/>
<path d="M505.51,593.52,430.55,735.42"/>
<path d="M505.51,593.52,381.38,706.50"/>
<path d="M505.51,593.52,564.20,685.38"/>
<path d="M505.51,593.52,618.64,463.05"/>
<path d="M505.51,593.52,452.42,527.37"/>
<path d="M158.58,1059.95,79.90,1027.32"/>
<path d="M158.58,1059.95,248.08,1063.54"/>
<path d="M158.58,1059.95,250.46,979.32"/>
<path d="M158.58,1059.95,204.99,1111.19"/>
<path d="M495.68,1052.31,646.74,1022.87"/>
<path d="M495.68,1052.31,455.78,1252.90"/>
<path d="M495.68,1052.31,617.97,938.87"/>
<path d="M495.68,1052.31,610.54,1265.78"/>
<path d="M495.68,1052.31,477.03,1020.67"/>
<path d="M934.57,946.84,720.02,867.34"/>
<path d="M934.57,946.84,989.40,876.34"/>
<path d="M885.22,350.02,897.46,206.13"/>
<path d="M885.22,350.02,924.31,378.42"/>
<path d="M885.22,350.02,778.42,314.11"/>
<path d="M646.74,1022.87,617.97,938.87"/>
<path d="M592.78,733.90,665.94,774.46"/>
<path d="M592.78,733.90,469.62,784.31"/>
<path d="M592.78,733.90,564.20,685.38"/>
<path d="M1111.44,695.99,1124.87,728.57"/>
<path d="M1111.44,695.99,1111.49,555.94"/>
<path d="M1478.68,330.94,1420.21,422.66"/>
<path d="M898.80,96.43,814.98,196.54"/>
<path d="M898.80,96.43,799.00,84.63"/>
<path d="M898.80,96.43,953.28,22.93"/>
<path d="M890.86,1383.58,801.80,1369.05"/>
<path d="M890.86,1383.58,862.74,1332.61"/>
<path d="M890.86,1383.58,823.40,1461.96"/>
<path d="M189.65,396.50,87.13,438.08"/>
<path d="M189.65,396.50,66.68,355.95"/>
<path d="M189.65,396.50,250.78,249.53"/>
<path d="M189.65,396.50,274.06,400.23"/>
<path d="M189.65,396.50,212.76,513.33"/>
<path d="M1473.60,1043.50,1451.08,1008.45"/>
<path d="M455.78,1252.90,610.54,1265.78"/>
<path d="M455.78,1252.90,546.53,1378.34"/>
<path d="M1187.30,325.01,1206.68,232.44"/>
<path d="M1187.30,325.01,1123.86,383.94"/>
<path d="M1187.30,325.01,1084.49,281.85"/>
<path d="M1187.30,325.01,1315.81,353.64"/>
<path d="M1187.30,325.01,1196.00,448.23"/>
<path d="M1206.68,232.44,1237.77,241.16"/>
<path d="M1206.68,232.44,1269.13,41.98"/>
<path d="M430.55,735.42,381.38,706.50"/>
<path d="M430.55,735.42,469.62,784.31"/>
<path d="M430.55,735.42,564.20,685.38"/>
<path d="M254.13,1345.25,241.33,1312.66"/>
<path d="M254.13,1345.25,402.43,1391.50"/>
<path d="M254.13,1345.25,360.89,1297.31"/>
<path d="M254.13,1345.25,381.06,1429.30"/>
<path d="M1420.21,422.66,1349.00,523.94"/>
<path d="M1420.21,422.66,1393.16,359.78"/>
<path d="M216.49,218.74,182.53,171.25"/>
<path d="M216.49,218.74,250.78,249.53"/>
<path d="M1154.81,1074.19,1249.52,1048.24"/>
<path d="M617.97,938.87,720.02,867.34"/>
<path d="M617.97,938.87,476.77,832.96"/>
<path d="M617.97,938.87,477.03,1020.67"/>
<path d="M617.97,938.87,461.33,966.59"/>
<path d="M665.94,774.46,720.02,867.34"/>
<path d="M665.94,774.46,745.18,651.16"/>
<path d="M1237.77,241.16,1269.13,41.98"/>
<path d="M416.45,1486.97,587.47,1465.59"/>
<path d="M416.45,1486.97,381.06,1429.30"/>
<path d="M416.45,1486.97,546.53,1378.34"/>
<path d="M31.51,1202.86,6.61,1274.10"/>
<path d="M147.59,1328.74,65.05,1302.07"/>
<path d="M147.59,1328.74,241.33,1312.66"/>
<path d="M694.28,1217.68,830.30,1266.80"/>
<path d="M694.28,1217.68,745.58,1111.78"/>
<path d="M694.28,1217.68,673.83,1246.69"/>
<path d="M720.02,867.34,852.05,714.74"/>
<path d="M737.05,42.33,799.00,84.63"/>
<path d="M737.05,42.33,707.58,99.42"/>
<path d="M307.49,1042.13,402.17,955.70"/>
<path d="M381.38,706.50,296.31,675.19"/>
<path d="M699.54,479.08,646.72,456.82"/>
<path d="M699.54,479.08,745.18,651.16"/>
<path d="M699.54,479.08,644.06,484.18"/>
<path d="M1451.08,1008.45,1410.46,1029.69"/>
<path d="M1451.08,1008.45,1460.89,980.76"/>
<path d="M1182.70,1431.79,1380.03,1442.07"/>
<path d="M1182.70,1431.79,1138.73,1378.79"/>
<path d="M131.17,864.00,87.62,841.12"/>
<path d="M131.17,864.00,214.88,825.64"/>
<path d="M87.13,438.08,212.76,513.33"/>
<path d="M87.13,438.08,39.39,393.79"/>
<path d="M646.72,456.82,618.64,463.05"/>
<path d="M646.72,456.82,684.45,343.56"/>
<path d="M646.72,456.82,594.02,343.69"/>
<path d="M646.72,456.82,644.06,484.18"/>
<path d="M826.75,1097.84,745.58,1111.78"/>
<path d="M826.75,1097.84,841.18,1136.38"/>
<path d="M826.75,1097.84,982.54,1048.89"/>
<path d="M801.80,1369.05,615.58,1340.09"/>
<path d="M801.80,1369.05,707.20,1463.96"/>
<path d="M801.80,1369.05,862.74,1332.61"/>
<path d="M801.80,1369.05,823.40,1461.96"/>
<path d="M801.80,1369.05,673.83,1246.69"/>
<path d="M830.67,451.68,747.68,332.38"/>
<path d="M830.67,451.68,778.42,314.11"/>
<path d="M930.74,613.20,944.83,558.23"/>
<path d="M930.74,613.20,928.22,738.07"/>
<path d="M930.74,613.20,907.08,578.77"/>
<path d="M930.74,613.20,852.05,714.74"/>
<path d="M830.30,1266.80,878.89,1289.78"/>
<path d="M1124.87,728.57,1230.53,797.86"/>
<path d="M296.31,675.19,322.18,595.23"/>
<path d="M1380.03,1442.07,1405.23,1336.93"/>
<path d="M814.98,196.54,799.00,84.63"/>
<path d="M814.98,196.54,897.46,206.13"/>
<path d="M814.98,196.54,707.58,99.42"/>
<path d="M814.98,196.54,740.52,264.20"/>
<path d="M469.62,784.31,564.20,685.38"/>
<path d="M469.62,784.31,476.77,832.96"/>
<path d="M1478.61,917.68,1345.40,820.01"/>
<path d="M1478.61,917.68,1460.89,980.76"/>
<path d="M65.05,1302.07,6.61,1274.10"/>
<path d="M615.58,1340.09,610.54,1265.78"/>
<path d="M615.58,1340.09,615.66,1394.57"/>
<path d="M615.58,1340.09,546.53,1378.34"/>
<path d="M280.24,934.45,244.09,828.21"/>
<path d="M280.24,934.45,250.46,979.32"/>
<path d="M280.24,934.45,392.89,914.21"/>
<path d="M44.08,970.76,59.82,1004.67"/>
<path d="M44.08,970.76,23.43,922.72"/>
<path d="M66.68,355.95,39.39,393.79"/>
<path d="M87.62,841.12,23.43,922.72"/>
<path d="M944.83,558.23,907.08,578.77"/>
<path d="M944.83,558.23,909.88,543.72"/>
<path d="M587.47,1465.59,546.53,1378.34"/>
<path d="M610.54,1265.78,673.83,1246.69"/>
<path d="M476.77,832.96,461.33,966.59"/>
<path d="M476.77,832.96,392.89,914.21"/>
<path d="M241.33,1312.66,360.89,1297.31"/>
<path d="M241.33,1312.66,274.74,1217.31"/>
<path d="M1345.40,820.01,1230.53,797.86"/>
<path d="M1345.40,820.01,1366.80,780.30"/>
<path d="M1345.40,820.01,1332.88,986.79"/>
<path d="M1345.40,820.01,1274.88,961.06"/>
<path d="M545.75,327.74,434.47,356.24"/>
<path d="M545.75,327.74,500.87,256.70"/>
<path d="M545.75,327.74,519.70,392.01"/>
<path d="M545.75,327.74,594.02,343.69"/>
<path d="M313.99,221.14,250.78,249.53"/>
<path d="M313.99,221.14,372.74,225.81"/>
<path d="M249.07,549.86,322.18,595.23"/>
<path d="M249.07,549.86,212.76,513.33"/>
<path d="M826.69,687.84,745.18,651.16"/>
<path d="M826.69,687.84,852.05,714.74"/>
<path d="M826.69,687.84,842.63,602.18"/>
<path d="M477.03,1020.67,461.33,966.59"/>
<path d="M244.09,828.21,214.88,825.64"/>
<path d="M1123.86,383.94,1084.49,281.85"/>
<path d="M1123.86,383.94,1196.00,448.23"/>
<path d="M618.64,463.05,452.42,527.37"/>
<path d="M618.64,463.05,519.70,392.01"/>
<path d="M618.64,463.05,594.02,343.69"/>
<path d="M618.64,463.05,644.06,484.18"/>
<path d="M308.48,363.09,434.47,356.24"/>
<path d="M308.48,363.09,274.06,400.23"/>
<path d="M79.90,1027.32,59.82,1004.67"/>
<path d="M747.68,332.38,684.45,343.56"/>
<path d="M747.68,332.38,778.42,314.11"/>
<path d="M747.68,332.38,740.52,264.20"/>
<path d="M402.17,955.70,461.33,966.59"/>
<path d="M402.17,955.70,392.89,914.21"/>
<path d="M928.22,738.07,989.40,876.34"/>
<path d="M928.22,738.07,852.05,714.74"/>
<path d="M907.08,578.77,909.88,543.72"/>
<path d="M907.08,578.77,842.63,602.18"/>
<path d="M402.43,1391.50,360.89,1297.31"/>
<path d="M402.43,1391.50,381.06,1429.30"/>
<path d="M402.43,1391.50,546.53,1378.34"/>
<path d="M452.42,527.37,322.18,595.23"/>
<path d="M707.20,1463.96,823.40,1461.96"/>
<path d="M707.20,1463.96,688.59,1483.52"/>
<path d="M360.89,1297.31,274.74,1217.31"/>
<path d="M799.00,84.63,707.58,99.42"/>
<path d="M178.35,11.38,114.11,64.56"/>
<path d="M248.08,1063.54,272.40,1151.40"/>
<path d="M248.08,1063.54,204.99,1111.19"/>
<path d="M7.57,414.39,39.39,393.79"/>
<path d="M1230.53,797.86,1274.88,961.06"/>
<path d="M1249.52,1048.24,1282.37,1030.34"/>
<path d="M1269.13,41.98,1435.84,153.61"/>
<path d="M1272.98,1006.06,1282.37,1030.34"/>
<path d="M1272.98,1006.06,1332.88,986.79"/>
<path d="M1272.98,1006.06,1274.88,961.06"/>
<path d="M434.47,356.24,372.74,225.81"/>
<path d="M434.47,356.24,500.87,256.70"/>
<path d="M615.66,1394.57,546.53,1378.34"/>
<path d="M862.74,1332.61,878.89,1289.78"/>
<path d="M1435.84,153.61,1477.69,140.54"/>
<path d="M1111.49,555.94,1196.00,448.23"/>
<path d="M527.57,57.54,508.16,155.03"/>
<path d="M707.58,99.42,740.52,264.20"/>
<path d="M684.45,343.56,594.02,343.69"/>
<path d="M250.78,249.53,302.83,291.67"/>
<path d="M841.18,1136.38,982.54,1048.89"/>
<path d="M745.18,651.16,842.63,602.18"/>
<path d="M1315.81,353.64,1393.16,359.78"/>
<path d="M1282.37,1030.34,1332.88,986.79"/>
<path d="M274.06,400.23,212.76,513.33"/>
<path d="M1410.46,1029.69,1332.88,986.79"/>
<path d="M372.74,225.81,401.15,186.86"/>
<path d="M274.74,1217.31,272.40,1151.40"/>
<path d="M924.31,378.42,960.06,436.58"/>
<path d="M401.15,186.86,500.87,256.70"/>
<path d="M401.15,186.86,380.58,151.15"/>
<path d="M13.28,66.06,114.11,64.56"/>
<path d="M778.42,314.11,740.52,264.20"/>
<path d="M1332.88,986.79,1274.88,961.06"/>
<path d="M272.40,1151.40,204.99,1111.19"/>
<circle cx="1050.07" cy="359.23" r="10"/>
<text x="1050.07" y="364.23">R0</text>
<circle cx="1091.97" cy="1374.97" r="10"/>
<text x="1091.97" y="1379.97">R1</text>
<circle cx="1052.46" cy="284.29" r="10"/>
<text x="1052.46" y="289.29">R2</text>
<circle cx="1323.48" cy="1145.51" r="10"/>
<text x="1323.48" y="1150.51">R3</text>
<circle cx="213.42" cy="12.79" r="10"/>
<text x="213.42" y="17.79">R4</text>
<circle cx="272.47" cy="35.80" r="10"/>
<text x="272.47" y="40.80">R5</text>
<circle cx="1038.54" cy="762.77" r="10"/>
<text x="1038.54" y="767.77">R6</text>
<circle cx="1410.22" cy="321.23" r="10"/>
<text x="1410.22" y="326.23">R7</text>
<circle cx="437.17" cy="147.45" r="10"/>
<text x="437.17" y="152.45">R8</text>
<circle cx="1480.46" cy="668.62" r="10"/>
<text x="1480.46" y="673.62">R9</text>
<circle cx="206.19" cy="81.80" r="10"/>
<text x="206.19" y="86.80">R10</text>
<circle cx="1180.23" cy="1016.59" r="10"/>
<text x="1180.23" y="1021.59">R11</text>
<circle cx="195.48" cy="932.98" r="10"/>
<text x="195.48" y="937.98">R12</text>
<circle cx="902.68" cy="464.66" r="10"/>
<text x="902.68" y="469.66">R13</text>
<circle cx="1221.12" cy="1002.90" r="10"/>
<text x="1221.12" y="1007.90">R14</text>
<circle cx="1494.75" cy="764.95" r="10"/>
<text x="1494.75" y="769.95">R15</text>
<circle cx="1304.04" cy="437.80" r="10"/>
<text x="1304.04" y="442.80">R16</text>
<circle cx="81.17" cy="259.96" r="10"/>
<text x="81.17" y="264.96">R17</text>
<circle cx="1459.48" cy="508.95" r="10"/>
<text x="1459.48" y="513.95">R18</text>
<circle cx="264.19" cy="1034.96" r="10"/>
<text x="264.19" y="1039.96">R19</text>
<circle cx="891.78" cy="432.13" r="10"/>
<text x="891.78" y="437.13">R20</text>
<circle cx="1228.80" cy="1276.54" r="10"/>
<text x="1228.80" y="1281.54">R21</text>
<circle cx="1126.80" cy="1108.58" r="10"/>
<text x="1126.80" y="1113.58">R22</text>
<circle cx="1005.88" cy="566.85" r="10"/>
<text x="1005.88" y="571.85">R23</text>
<circle cx="117.34" cy="1270.70" r="10"/>
<text x="117.34" y="1275.70">R24</text>
<circle cx="316.85" cy="327.27" r="10"/>
<text x="316.85" y="332.27">R25</text>
<circle cx="876.11" cy="1499.85" r="10"/>
<text x="876.11" y="1504.85">R26</text>
<circle cx="146.65" cy="1122.13" r="10"/>
<text x="146.65" y="1127.13">R27</text>
<circle cx="1406.07" cy="198.18" r="10"/>
<text x="1406.07" y="203.18">R28</text>
<circle cx="913.29" cy="183.49" r="10"/>
<text x="913.29" y="188.49">R29</text>
<circle cx="45.50" cy="1355.39" r="10"/>
<text x="45.50" y="1360.39">R30</text>
<circle cx="1191.16" cy="1499.59" r="10"/>
<text x="1191.16" y="1504.59">R31</text>
<circle cx="1254.07" cy="266.34" r="10"/>
<text x="1254.07" y="271.34">R32</text>
<circle cx="812.24" cy="492.82" r="10"/>
<text x="812.24" y="497.82">R33</text>
<circle cx="60.47" cy="1205.52" r="10"/>
<text x="60.47" y="1210.52">R34</text>
<circle cx="1018.87" cy="129.49" r="10"/>
<text x="1018.87" y="134.49">R35</text>
<circle cx="1208.20" cy="589.02" r="10"/>
<text x="1208.20" y="594.02">R36</text>
<circle cx="365.53" cy="749.49" r="10"/>
<text x="365.53" y="754.49">R37</text>
<circle cx="744.92" cy="1027.33" r="10"/>
<text x="744.92" y="1032.33">R38</text>
<circle cx="483.19" cy="169.89" r="10"/>
<text x="483.19" y="174.89">R39</text>
<circle cx="630.37" cy="1431.07" r="10"/>
<text x="630.37" y="1436.07">R40</text>
<circle cx="128.03" cy="1427.35" r="10"/>
<text x="128.03" y="1432.35">R41</text>
<circle cx="330.94" cy="852.45" r="10"/>
<text x="330.94" y="857.45">R42</text>
<circle cx="479.98" cy="406.58" r="10"/>
<text x="479.98" y="411.58">R43</text>
<circle cx="1146.73" cy="35.86" r="10"/>
<text x="1146.73" y="40.86">R44</text>
<circle cx="320.75" cy="248.56" r="10"/>
<text x="320.75" y="253.56">R45</text>
<circle cx="1276.55" cy="705.38" r="10"/>
<text x="1276.55" y="710.38">R46</text>
<circle cx="1412.39" cy="702.89" r="10"/>
<text x="1412.39" y="707.89">R47</text>
<circle cx="1056.68" cy="112.98" r="10"/>
<text x="1056.68" y="117.98">R48</text>
<circle cx="263.82" cy="770.89" r="10"/>
<text x="263.82" y="775.89">R49</text>
<circle cx="320.11" cy="485.98" r="10"/>
<text x="320.11" y="490.98">R50</text>
<circle cx="95.12" cy="727.16" r="10"/>
<text x="95.12" y="732.16">R51</text>
<circle cx="633.73" cy="137.05" r="10"/>
<text x="633.73" y="142.05">R52</text>
<circle cx="844.50" cy="1229.68" r="10"/>
<text x="844.50" y="1234.68">R53</text>
<circle cx="355.39" cy="85.85" r="10"/>
<text x="355.39" y="90.85">R54</text>
<circle cx="1139.60" cy="202.30" r="10"/>
<text x="1139.60" y="207.30">R55</text>
<circle cx="943.54" cy="985.34" r="10"/>
<text x="943.54" y="990.34">R56</text>
<circle cx="902.38" cy="501.33" r="10"/>
<text x="902.38" y="506.33">R57</text>
<circle cx="1238.49" cy="1113.02" r="10"/>
<text x="1238.49" y="1118.02">R58</text>
<circle cx="203.09" cy="143.61" r="10"/>
<text x="203.09" y="148.61">R59</text>
<circle cx="182.49" cy="776.30" r="10"/>
<text x="182.49" y="781.30">R60</text>
<circle cx="387.51" cy="1242.79" r="10"/>
<text x="387.51" y="1247.79">R61</text>
<circle cx="953.82" cy="155.89" r="10"/>
<text x="953.82" y="160.89">R62</text>
<circle cx="1056.17" cy="1075.95" r="10"/>
<text x="1056.17" y="1080.95">R63</text>
<circle cx="54.92" cy="606.45" r="10"/>
<text x="54.92" y="611.45">R64</text>
<circle cx="1445.34" cy="623.70" r="10"/>
<text x="1445.34" y="628.70">R65</text>
<circle cx="505.51" cy="593.52" r="10"/>
<text x="505.51" y="598.52">R66</text>
<circle cx="158.58" cy="1059.95" r="10"/>
<text x="158.58" y="1064.95">R67</text>
<circle cx="495.68" cy="1052.31" r="10"/>
<text x="495.68" y="1057.31">R68</text>
<circle cx="934.57" cy="946.84" r="10"/>
<text x="934.57" y="951.84">R69</text>
<circle cx="885.22" cy="350.02" r="10"/>
<text x="885.22" y="355.02">R70</text>
<circle cx="646.74" cy="1022.87" r="10"/>
<text x="646.74" y="1027.87">R71</text>
<circle cx="592.78" cy="733.90" r="10"/>
<text x="592.78" y="738.90">R72</text>
<circle cx="1111.44" cy="695.99" r="10"/>
<text x="1111.44" y="700.99">R73</text>
<circle cx="1478.68" cy="330.94" r="10"/>
<text x="1478.68" y="335.94">R74</text>
<circle cx="898.80" cy="96.43" r="10"/>
<text x="898.80" y="101.43">R75</text>
<circle cx="890.86" cy="1383.58" r="10"/>
<text x="890.86" y="1388.58">R76</text>
<circle cx="189.65" cy="396.50" r="10"/>
<text x="189.65" y="401.50">R77</text>
<circle cx="1473.60" cy="1043.50" r="10"/>
<text x="1473.60" y="1048.50">R78</text>
<circle cx="455.78" cy="1252.90" r="10"/>
<text x="455.78" y="1257.90">R79</text>
<circle cx="1187.30" cy="325.01" r="10"/>
<text x="1187.30" y="330.01">R80</text>
<circle cx="1206.68" cy="232.44" r="10"/>
<text x="1206.68" y="237.44">R81</text>
<circle cx="430.55" cy="735.42" r="10"/>
<text x="430.55" y="740.42">R82</text>
<circle cx="254.13" cy="1345.25" r="10"/>
<text x="254.13" y="1350.25">R83</text>
<circle cx="1420.21" cy="422.66" r="10"/>
<text x="1420.21" y="427.66">R84</text>
<circle cx="216.49" cy="218.74" r="10"/>
<text x="216.49" y="223.74">R85</text>
<circle cx="1154.81" cy="1074.19" r="10"/>
<text x="1154.81" y="1079.19">R86</text>
<circle cx="617.97" cy="938.87" r="10"/>
<text x="617.97" y="943.87">R87</text>
<circle cx="665.94" cy="774.46" r="10"/>
<text x="665.94" y="779.46">R88</text>
<circle cx="1237.77" cy="241.16" r="10"/>
<text x="1237.77" y="246.16">R89</text>
<circle cx="416.45" cy="1486.97" r="10"/>
<text x="416.45" y="1491.97">R90</text>
<circle cx="31.51" cy="1202.86" r="10"/>
<text x="31.51" y="1207.86">R91</text>
<circle cx="147.59" cy="1328.74" r="10"/>
<text x="147.59" y="1333.74">R92</text>
<circle cx="694.28" cy="1217.68" r="10"/>
<text x="694.28" y="1222.68">R93</text>
<circle cx="720.02" cy="867.34" r="10"/>
<text x="720.02" y="872.34">R94</text>
<circle cx="737.05" cy="42.33" r="10"/>
<text x="737.05" y="47.33">R95</text>
<circle cx="307.49" cy="1042.13" r="10"/>
<text x="307.49" y="1047.13">R96</text>
<circle cx="381.38" cy="706.50" r="10"/>
<text x="381.38" y="711.50">R97</text>
<circle cx="699.54" cy="479.08" r="10"/>
<text x="699.54" y="484.08">R98</text>
<circle cx="1451.08" cy="1008.45" r="10"/>
<text x="1451.08" y="1013.45">R99</text>
<circle cx="1182.70" cy="1431.79" r="10"/>
<text x="1182.70" y="1436.79">R100</text>
<circle cx="131.17" cy="864.00" r="10"/>
<text x="131.17" y="869.00">R101</text>
<circle cx="87.13" cy="438.08" r="10"/>
<text x="87.13" y="443.08">R102</text>
<circle cx="646.72" cy="456.82" r="10"/>
<text x="646.72" y="461.82">R103</text>
<circle cx="826.75" cy="1097.84" r="10"/>
<text x="826.75" y="1102.84">R104</text>
<circle cx="801.80" cy="1369.05" r="10"/>
<text x="801.80" y="1374.05">R105</text>
<circle cx="830.67" cy="451.68" r="10"/>
<text x="830.67" y="456.68">R106</text>
<circle cx="930.74" cy="613.20" r="10"/>
<text x="930.74" y="618.20">R107</text>
<circle cx="830.30" cy="1266.80" r="10"/>
<text x="830.30" y="1271.80">R108</text>
<circle cx="1124.87" cy="728.57" r="10"/>
<text x="1124.87" y="733.57">R109</text>
<circle cx="296.31" cy="675.19" r="10"/>
<text x="296.31" y="680.19">R110</text>
<circle cx="1380.03" cy="1442.07" r="10"/>
<text x="1380.03" y="1447.07">R111</text>
<circle cx="814.98" cy="196.54" r="10"/>
<text x="814.98" y="201.54">R112</text>
<circle cx="469.62" cy="784.31" r="10"/>
<text x="469.62" y="789.31">R113</text>
<circle cx="564.20" cy="685.38" r="10"/>
<text x="564.20" y="690.38">R114</text>
<circle cx="1478.61" cy="917.68" r="10"/>
<text x="1478.61" y="922.68">R115</text>
<circle cx="65.05" cy="1302.07" r="10"/>
<text x="65.05" y="1307.07">R116</text>
<circle cx="615.58" cy="1340.09" r="10"/>
<text x="615.58" y="1345.09">R117</text>
<circle cx="280.24" cy="934.45" r="10"/>
<text x="280.24" y="939.45">R118</text>
<circle cx="182.53" cy="171.25" r="10"/>
<text x="182.53" y="176.25">R119</text>
<circle cx="44.08" cy="970.76" r="10"/>
<text x="44.08" y="975.76">R120</text>
<circle cx="66.68" cy="355.95" r="10"/>
<text x="66.68" y="360.95">R121</text>
<circle cx="87.62" cy="841.12" r="10"/>
<text x="87.62" y="846.12">R122</text>
<circle cx="944.83" cy="558.23" r="10"/>
<text x="944.83" y="563.23">R123</text>
<circle cx="587.47" cy="1465.59" r="10"/>
<text x="587.47" y="1470.59">R124</text>
<circle cx="610.54" cy="1265.78" r="10"/>
<text x="610.54" y="1270.78">R125</text>
<circle cx="476.77" cy="832.96" r="10"/>
<text x="476.77" y="837.96">R126</text>
<circle cx="241.33" cy="1312.66" r="10"/>
<text x="241.33" y="1317.66">R127</text>
<circle cx="1345.40" cy="820.01" r="10"/>
<text x="1345.40" y="825.01">R128</text>
<circle cx="545.75" cy="327.74" r="10"/>
<text x="545.75" y="332.74">R129</text>
<circle cx="1405.23" cy="1336.93" r="10"/>
<text x="1405.23" y="1341.93">R130</text>
<circle cx="313.99" cy="221.14" r="10"/>
<text x="313.99" y="226.14">R131</text>
<circle cx="249.07" cy="549.86" r="10"/>
<text x="249.07" y="554.86">R132</text>
<circle cx="826.69" cy="687.84" r="10"/>
<text x="826.69" y="692.84">R133</text>
<circle cx="477.03" cy="1020.67" r="10"/>
<text x="477.03" y="1025.67">R134</text>
<circle cx="244.09" cy="828.21" r="10"/>
<text x="244.09" y="833.21">R135</text>
<circle cx="1123.86" cy="383.94" r="10"/>
<text x="1123.86" y="388.94">R136</text>
<circle cx="618.64" cy="463.05" r="10"/>
<text x="618.64" y="468.05">R137</text>
<circle cx="308.48" cy="363.09" r="10"/>
<text x="308.48" y="368.09">R138</text>
<circle cx="79.90" cy="1027.32" r="10"/>
<text x="79.90" y="1032.32">R139</text>
<circle cx="747.68" cy="332.38" r="10"/>
<text x="747.68" y="337.38">R140</text>
<circle cx="402.17" cy="955.70" r="10"/>
<text x="402.17" y="960.70">R141</text>
<circle cx="928.22" cy="738.07" r="10"/>
<text x="928.22" y="743.07">R142</text>
<circle cx="907.08" cy="578.77" r="10"/>
<text x="907.08" y="583.77">R143</text>
<circle cx="402.43" cy="1391.50" r="10"/>
<text x="402.43" y="1396.50">R144</text>
<circle cx="989.40" cy="876.34" r="10"/>
<text x="989.40" y="881.34">R145</text>
<circle cx="452.42" cy="527.37" r="10"/>
<text x="452.42" y="532.37">R146</text>
<circle cx="707.20" cy="1463.96" r="10"/>
<text x="707.20" y="1468.96">R147</text>
<circle cx="360.89" cy="1297.31" r="10"/>
<text x="360.89" y="1302.31">R148</text>
<circle cx="799.00" cy="84.63" r="10"/>
<text x="799.00" y="89.63">R149</text>
<circle cx="178.35" cy="11.38" r="10"/>
<text x="178.35" y="16.38">R150</text>
<circle cx="248.08" cy="1063.54" r="10"/>
<text x="248.08" y="1068.54">R151</text>
<circle cx="7.57" cy="414.39" r="10"/>
<text x="7.57" y="419.39">R152</text>
<circle cx="1230.53" cy="797.86" r="10"/>
<text x="1230.53" y="802.86">R153</text>
<circle cx="1249.52" cy="1048.24" r="10"/>
<text x="1249.52" y="1053.24">R154</text>
<circle cx="1084.49" cy="281.85" r="10"/>
<text x="1084.49" y="286.85">R155</text>
<circle cx="1269.13" cy="41.98" r="10"/>
<text x="1269.13" y="46.98">R156</text>
<circle cx="1272.98" cy="1006.06" r="10"/>
<text x="1272.98" y="1011.06">R157</text>
<circle cx="214.88" cy="825.64" r="10"/>
<text x="214.88" y="830.64">R158</text>
<circle cx="434.47" cy="356.24" r="10"/>
<text x="434.47" y="361.24">R159</text>
<circle cx="615.66" cy="1394.57" r="10"/>
<text x="615.66" y="1399.57">R160</text>
<circle cx="862.74" cy="1332.61" r="10"/>
<text x="862.74" y="1337.61">R161</text>
<circle cx="897.46" cy="206.13" r="10"/>
<text x="897.46" y="211.13">R162</text>
<circle cx="1435.84" cy="153.61" r="10"/>
<text x="1435.84" y="158.61">R163</text>
<circle cx="1111.49" cy="555.94" r="10"/>
<text x="1111.49" y="560.94">R164</text>
<circle cx="823.40" cy="1461.96" r="10"/>
<text x="823.40" y="1466.96">R165</text>
<circle cx="745.58" cy="1111.78" r="10"/>
<text x="745.58" y="1116.78">R166</text>
<circle cx="953.28" cy="22.93" r="10"/>
<text x="953.28" y="27.93">R167</text>
<circle cx="1186.02" cy="1174.61" r="10"/>
<text x="1186.02" y="1179.61">R168</text>
<circle cx="1366.80" cy="780.30" r="10"/>
<text x="1366.80" y="785.30">R169</text>
<circle cx="381.06" cy="1429.30" r="10"/>
<text x="381.06" y="1434.30">R170</text>
<circle cx="527.57" cy="57.54" r="10"/>
<text x="527.57" y="62.54">R171</text>
<circle cx="707.58" cy="99.42" r="10"/>
<text x="707.58" y="104.42">R172</text>
<circle cx="28.98" cy="675.97" r="10"/>
<text x="28.98" y="680.97">R173</text>
<circle cx="6.61" cy="1274.10" r="10"/>
<text x="6.61" y="1279.10">R174</text>
<circle cx="461.33" cy="966.59" r="10"/>
<text x="461.33" y="971.59">R175</text>
<circle cx="1349.00" cy="523.94" r="10"/>
<text x="1349.00" y="528.94">R176</text>
<circle cx="684.45" cy="343.56" r="10"/>
<text x="684.45" y="348.56">R177</text>
<circle cx="250.78" cy="249.53" r="10"/>
<text x="250.78" y="254.53">R178</text>
<circle cx="59.82" cy="1004.67" r="10"/>
<text x="59.82" y="1009.67">R179</text>
<circle cx="841.18" cy="1136.38" r="10"/>
<text x="841.18" y="1141.38">R180</text>
<circle cx="878.89" cy="1289.78" r="10"/>
<text x="878.89" y="1294.78">R181</text>
<circle cx="745.18" cy="651.16" r="10"/>
<text x="745.18" y="656.16">R182</text>
<circle cx="852.05" cy="714.74" r="10"/>
<text x="852.05" y="719.74">R183</text>
<circle cx="1315.81" cy="353.64" r="10"/>
<text x="1315.81" y="358.64">R184</text>
<circle cx="322.18" cy="595.23" r="10"/>
<text x="322.18" y="600.23">R185</text>
<circle cx="1282.37" cy="1030.34" r="10"/>
<text x="1282.37" y="1035.34">R186</text>
<circle cx="274.06" cy="400.23" r="10"/>
<text x="274.06" y="405.23">R187</text>
<circle cx="909.88" cy="543.72" r="10"/>
<text x="909.88" y="548.72">R188</text>
<circle cx="1410.46" cy="1029.69" r="10"/>
<text x="1410.46" y="1034.69">R189</text>
<circle cx="1138.73" cy="1378.79" r="10"/>
<text x="1138.73" y="1383.79">R190</text>
<circle cx="250.46" cy="979.32" r="10"/>
<text x="250.46" y="984.32">R191</text>
<circle cx="372.74" cy="225.81" r="10"/>
<text x="372.74" y="230.81">R192</text>
<circle cx="274.74" cy="1217.31" r="10"/>
<text x="274.74" y="1222.31">R193</text>
<circle cx="23.43" cy="922.72" r="10"/>
<text x="23.43" y="927.72">R194</text>
<circle cx="924.31" cy="378.42" r="10"/>
<text x="924.31" y="383.42">R195</text>
<circle cx="401.15" cy="186.86" r="10"/>
<text x="401.15" y="191.86">R196</text>
<circle cx="13.28" cy="66.06" r="10"/>
<text x="13.28" y="71.06">R197</text>
<circle cx="500.87" cy="256.70" r="10"/>
<text x="500.87" y="261.70">R198</text>
<circle cx="842.63" cy="602.18" r="10"/>
<text x="842.63" y="607.18">R199</text>
<circle cx="960.06" cy="436.58" r="10"/>
<text x="960.06" y="441.58">R200</text>
<circle cx="778.42" cy="314.11" r="10"/>
<text x="778.42" y="319.11">R201</text>
<circle cx="1332.88" cy="986.79" r="10"/>
<text x="1332.88" y="991.79">R202</text>
<circle cx="508.16" cy="155.03" r="10"/>
<text x="508.16" y="160.03">R203</text>
<circle cx="272.40" cy="1151.40" r="10"/>
<text x="272.40" y="1156.40">R204</text>
<circle cx="673.83" cy="1246.69" r="10"/>
<text x="673.83" y="1251.69">R205</text>
<circle cx="1393.16" cy="359.78" r="10"/>
<text x="1393.16" y="364.78">R206</text>
<circle cx="392.89" cy="914.21" r="10"/>
<text x="392.89" y="919.21">R207</text>
<circle cx="212.76" cy="513.33" r="10"/>
<text x="212.76" y="518.33">R208</text>
<circle cx="740.52" cy="264.20" r="10"/>
<text x="740.52" y="269.20">R209</text>
<circle cx="114.11" cy="64.56" r="10"/>
<text x="114.11" y="69.56">R210</text>
<circle cx="519.70" cy="392.01" r="10"/>
<text x="519.70" y="397.01">R211</text>
<circle cx="688.59" cy="1483.52" r="10"/>
<text x="688.59" y="1488.52">R212</text>
<circle cx="302.83" cy="291.67" r="10"/>
<text x="302.83" y="296.67">R213</text>
<circle cx="594.02" cy="343.69" r="10"/>
<text x="594.02" y="348.69">R214</text>
<circle cx="39.39" cy="393.79" r="10"/>
<text x="39.39" y="398.79">R215</text>
<circle cx="1477.69" cy="140.54" r="10"/>
<text x="1477.69" y="145.54">R216</text>
<circle cx="982.54" cy="1048.89" r="10"/>
<text x="982.54" y="1053.89">R217</text>
<circle cx="644.06" cy="484.18" r="10"/>
<text x="644.06" y="489.18">R218</text>
<circle cx="380.58" cy="151.15" r="10"/>
<text x="380.58" y="156.15">R219</text>
<circle cx="546.53" cy="1378.34" r="10"/>
<text x="546.53" y="1383.34">R220</text>
<circle cx="1274.88" cy="961.06" r="10"/>
<text x="1274.88" y="966.06">R221</text>
<circle cx="1196.00" cy="448.23" r="10"/>
<text x="1196.00" y="453.23">R222</text>
<circle cx="204.99" cy="1111.19" r="10"/>
<text x="204.99" y="1116.19">R223</text>
<circle cx="1460.89" cy="980.76" r="10"/>
<text x="1460.89" y="985.76">R224</text>
</svg>
