<svg id="topo" viewBox="-67.80 -1574.27 1636.95 1637.32" xmlns="http://www.w3.org/2000/svg">
<style>#topo path {fill: none; stroke: grey; stroke-width: 5.0000px;} #topo circle {fill: lightblue; stroke: none; stroke-width: 0.3px; vector-effect: non-scaling-stroke; r: 10.0000px;} #topo text {fill: black; stroke: none; font-size: 15.0000px; font-family: sans-serif; text-anchor:middle; transform: translateY(0.3em);} #topo path.country {fill: lightgrey; stroke: black; stroke-width: 1px; vector-effect: non-scaling-stroke; visibility: visible;} #topo path.selection {fill: none; stroke: red; stroke-width: 1px; vector-effect: non-scaling-stroke; visibility: visible;} #topo path.utilization {visibility: hidden;}</style>
<path data-id="0-2" d="M1050.07,-359.23,1052.46,-284.29"/>
<path data-id="0-136" d="M1050.07,-359.23,1123.86,-383.94"/>
<path data-id="0-195" d="M1050.07,-359.23,924.31,-378.42"/>
<path data-id="0-200" d="M1050.07,-359.23,960.06,-436.58"/>
<path data-id="1-76" d="M1091.97,-1374.97,890.86,-1383.58"/>
<path data-id="1-190" d="M1091.97,-1374.97,1138.73,-1378.79"/>
<path data-id="2-35" d="M1052.46,-284.29,1018.87,-129.49"/>
<path data-id="2-62" d="M1052.46,-284.29,953.82,-155.89"/>
<path data-id="2-155" d="M1052.46,-284.29,1084.49,-281.85"/>
<path data-id="2-162" d="M1052.46,-284.29,897.46,-206.13"/>
<path data-id="3-21" d="M1323.48,-1145.51,1228.80,-1276.54"/>
<path data-id="3-58" d="M1323.48,-1145.51,1238.49,-1113.02"/>
<path data-id="3-130" d="M1323.48,-1145.51,1405.23,-1336.93"/>
<path data-id="3-186" d="M1323.48,-1145.51,1282.37,-1030.34"/>
<path data-id="3-189" d="M1323.48,-1145.51,1410.46,-1029.69"/>
<path data-id="4-5" d="M213.42,-12.79,272.47,-35.80"/>
<path data-id="4-10" d="M213.42,-12.79,206.19,-81.80"/>
<path data-id="4-150" d="M213.42,-12.79,178.35,-11.38"/>
<path data-id="5-10" d="M272.47,-35.80,206.19,-81.80"/>
<path data-id="5-54" d="M272.47,-35.80,355.39,-85.85"/>
<path data-id="6-73" d="M1038.54,-762.77,1111.44,-695.99"/>
<path data-id="6-109" d="M1038.54,-762.77,1124.87,-728.57"/>
<path data-id="6-142" d="M1038.54,-762.77,928.22,-738.07"/>
<path data-id="6-145" d="M1038.54,-762.77,989.40,-876.34"/>
<path data-id="7-28" d="M1410.22,-321.23,1406.07,-198.18"/>
<path data-id="7-74" d="M1410.22,-321.23,1478.68,-330.94"/>
<path data-id="7-206" d="M1410.22,-321.23,1393.16,-359.78"/>
<path data-id="8-39" d="M437.17,-147.45,483.19,-169.89"/>
<path data-id="8-196" d="M437.17,-147.45,401.15,-186.86"/>
<path data-id="8-219" d="M437.17,-147.45,380.58,-151.15"/>
<path data-id="9-15" d="M1480.46,-668.62,1494.75,-764.95"/>
<path data-id="9-47" d="M1480.46,-668.62,1412.39,-702.89"/>
<path data-id="9-65" d="M1480.46,-668.62,1445.34,-623.70"/>
<path data-id="10-59" d="M206.19,-81.80,203.09,-143.61"/>
<path data-id="10-150" d="M206.19,-81.80,178.35,-11.38"/>
<path data-id="10-210" d="M206.19,-81.80,114.11,-64.56"/>
<path data-id="11-14" d="M1180.23,-1016.59,1221.12,-1002.90"/>
<path data-id="11-86" d="M1180.23,-1016.59,1154.81,-1074.19"/>
<path data-id="11-145" d="M1180.23,-1016.59,989.40,-876.34"/>
<path data-id="12-67" d="M195.48,-932.98,158.58,-1059.95"/>
<path data-id="12-101" d="M195.48,-932.98,131.17,-864.00"/>
<path data-id="12-118" d="M195.48,-932.98,280.24,-934.45"/>
<path data-id="12-120" d="M195.48,-932.98,44.08,-970.76"/>
<path data-id="12-139" d="M195.48,-932.98,79.90,-1027.32"/>
<path data-id="12-158" d="M195.48,-932.98,214.88,-825.64"/>
<path data-id="12-191" d="M195.48,-932.98,250.46,-979.32"/>
<path data-id="13-20" d="M902.68,-464.66,891.78,-432.13"/>
<path data-id="13-57" d="M902.68,-464.66,902.38,-501.33"/>
<path data-id="13-200" d="M902.68,-464.66,960.06,-436.58"/>
<path data-id="14-154" d="M1221.12,-1002.90,1249.52,-1048.24"/>
<path data-id="14-157" d="M1221.12,-1002.90,1272.98,-1006.06"/>
<path data-id="14-221" d="M1221.12,-1002.90,1274.88,-961.06"/>
<path data-id="15-47" d="M1494.75,-764.95,1412.39,-702.89"/>
<path data-id="15-115" d="M1494.75,-764.95,1478.61,-917.68"/>
<path data-id="15-169" d="M1494.75,-764.95,1366.80,-780.30"/>
<path data-id="16-84" d="M1304.04,-437.80,1420.21,-422.66"/>
<path data-id="16-176" d="M1304.04,-437.80,1349.00,-523.94"/>
<path data-id="16-184" d="M1304.04,-437.80,1315.81,-353.64"/>
<path data-id="16-222" d="M1304.04,-437.80,1196.00,-448.23"/>
<path data-id="17-85" d="M81.17,-259.96,216.49,-218.74"/>
<path data-id="17-119" d="M81.17,-259.96,182.53,-171.25"/>
<path data-id="17-121" d="M81.17,-259.96,66.68,-355.95"/>
<path data-id="17-197" d="M81.17,-259.96,13.28,-66.06"/>
<path data-id="18-65" d="M1459.48,-508.95,1445.34,-623.70"/>
<path data-id="18-84" d="M1459.48,-508.95,1420.21,-422.66"/>
<path data-id="18-176" d="M1459.48,-508.95,1349.00,-523.94"/>
<path data-id="19-96" d="M264.19,-1034.96,307.49,-1042.13"/>
<path data-id="19-151" d="M264.19,-1034.96,248.08,-1063.54"/>
<path data-id="19-191" d="M264.19,-1034.96,250.46,-979.32"/>
<path data-id="20-106" d="M891.78,-432.13,830.67,-451.68"/>
<path data-id="20-195" d="M891.78,-432.13,924.31,-378.42"/>
<path data-id="20-200" d="M891.78,-432.13,960.06,-436.58"/>
<path data-id="21-130" d="M1228.80,-1276.54,1405.23,-1336.93"/>
<path data-id="21-168" d="M1228.80,-1276.54,1186.02,-1174.61"/>
<path data-id="21-190" d="M1228.80,-1276.54,1138.73,-1378.79"/>
<path data-id="22-63" d="M1126.80,-1108.58,1056.17,-1075.95"/>
<path data-id="22-86" d="M1126.80,-1108.58,1154.81,-1074.19"/>
<path data-id="22-168" d="M1126.80,-1108.58,1186.02,-1174.61"/>
<path data-id="23-73" d="M1005.88,-566.85,1111.44,-695.99"/>
<path data-id="23-123" d="M1005.88,-566.85,944.83,-558.23"/>
<path data-id="23-164" d="M1005.88,-566.85,1111.49,-555.94"/>
<path data-id="24-34" d="M117.34,-1270.70,60.47,-1205.52"/>
<path data-id="24-92" d="M117.34,-1270.70,147.59,-1328.74"/>
<path data-id="24-116" d="M117.34,-1270.70,65.05,-1302.07"/>
<path data-id="25-138" d="M316.85,-327.27,308.48,-363.09"/>
<path data-id="25-159" d="M316.85,-327.27,434.47,-356.24"/>
<path data-id="25-213" d="M316.85,-327.27,302.83,-291.67"/>
<path data-id="26-76" d="M876.11,-1499.85,890.86,-1383.58"/>
<path data-id="26-165" d="M876.11,-1499.85,823.40,-1461.96"/>
<path data-id="27-34" d="M146.65,-1122.13,60.47,-1205.52"/>
<path data-id="27-67" d="M146.65,-1122.13,158.58,-1059.95"/>
<path data-id="27-223" d="M146.65,-1122.13,204.99,-1111.19"/>
<path data-id="28-32" d="M1406.07,-198.18,1254.07,-266.34"/>
<path data-id="28-163" d="M1406.07,-198.18,1435.84,-153.61"/>
<path data-id="29-62" d="M913.29,-183.49,953.82,-155.89"/>
<path data-id="29-75" d="M913.29,-183.49,898.80,-96.43"/>
<path data-id="29-162" d="M913.29,-183.49,897.46,-206.13"/>
<path data-id="30-41" d="M45.50,-1355.39,128.03,-1427.35"/>
<path data-id="30-116" d="M45.50,-1355.39,65.05,-1302.07"/>
<path data-id="31-100" d="M1191.16,-1499.59,1182.70,-1431.79"/>
<path data-id="31-111" d="M1191.16,-1499.59,1380.03,-1442.07"/>
<path data-id="32-80" d="M1254.07,-266.34,1187.30,-325.01"/>
<path data-id="32-89" d="M1254.07,-266.34,1237.77,-241.16"/>
<path data-id="32-184" d="M1254.07,-266.34,1315.81,-353.64"/>
<path data-id="33-57" d="M812.24,-492.82,902.38,-501.33"/>
<path data-id="33-98" d="M812.24,-492.82,699.54,-479.08"/>
<path data-id="33-106" d="M812.24,-492.82,830.67,-451.68"/>
<path data-id="33-199" d="M812.24,-492.82,842.63,-602.18"/>
<path data-id="34-91" d="M60.47,-1205.52,31.51,-1202.86"/>
<path data-id="34-116" d="M60.47,-1205.52,65.05,-1302.07"/>
<path data-id="35-48" d="M1018.87,-129.49,1056.68,-112.98"/>
<path data-id="35-62" d="M1018.87,-129.49,953.82,-155.89"/>
<path data-id="35-167" d="M1018.87,-129.49,953.28,-22.93"/>
<path data-id="36-46" d="M1208.20,-589.02,1276.55,-705.38"/>
<path data-id="36-73" d="M1208.20,-589.02,1111.44,-695.99"/>
<path data-id="36-164" d="M1208.20,-589.02,1111.49,-555.94"/>
<path data-id="36-176" d="M1208.20,-589.02,1349.00,-523.94"/>
<path data-id="36-222" d="M1208.20,-589.02,1196.00,-448.23"/>
<path data-id="37-42" d="M365.53,-749.49,330.94,-852.45"/>
<path data-id="37-49" d="M365.53,-749.49,263.82,-770.89"/>
<path data-id="37-82" d="M365.53,-749.49,430.55,-735.42"/>
<path data-id="37-97" d="M365.53,-749.49,381.38,-706.50"/>
<path data-id="37-110" d="M365.53,-749.49,296.31,-675.19"/>
<path data-id="38-69" d="M744.92,-1027.33,934.57,-946.84"/>
<path data-id="38-71" d="M744.92,-1027.33,646.74,-1022.87"/>
<path data-id="38-94" d="M744.92,-1027.33,720.02,-867.34"/>
<path data-id="38-104" d="M744.92,-1027.33,826.75,-1097.84"/>
<path data-id="38-166" d="M744.92,-1027.33,745.58,-1111.78"/>
<path data-id="39-198" d="M483.19,-169.89,500.87,-256.70"/>
<path data-id="39-203" d="M483.19,-169.89,508.16,-155.03"/>
<path data-id="40-124" d="M630.37,-1431.07,587.47,-1465.59"/>
<path data-id="40-160" d="M630.37,-1431.07,615.66,-1394.57"/>
<path data-id="40-212" d="M630.37,-1431.07,688.59,-1483.52"/>
<path data-id="41-92" d="M128.03,-1427.35,147.59,-1328.74"/>
<path data-id="42-49" d="M330.94,-852.45,263.82,-770.89"/>
<path data-id="42-118" d="M330.94,-852.45,280.24,-934.45"/>
<path data-id="42-135" d="M330.94,-852.45,244.09,-828.21"/>
<path data-id="42-207" d="M330.94,-852.45,392.89,-914.21"/>
<path data-id="43-50" d="M479.98,-406.58,320.11,-485.98"/>
<path data-id="43-146" d="M479.98,-406.58,452.42,-527.37"/>
<path data-id="43-159" d="M479.98,-406.58,434.47,-356.24"/>
<path data-id="43-211" d="M479.98,-406.58,519.70,-392.01"/>
<path data-id="44-48" d="M1146.73,-35.86,1056.68,-112.98"/>
<path data-id="44-55" d="M1146.73,-35.86,1139.60,-202.30"/>
<path data-id="44-156" d="M1146.73,-35.86,1269.13,-41.98"/>
<path data-id="45-131" d="M320.75,-248.56,313.99,-221.14"/>
<path data-id="45-178" d="M320.75,-248.56,250.78,-249.53"/>
<path data-id="45-192" d="M320.75,-248.56,372.74,-225.81"/>
<path data-id="45-213" d="M320.75,-248.56,302.83,-291.67"/>
<path data-id="46-47" d="M1276.55,-705.38,1412.39,-702.89"/>
<path data-id="46-109" d="M1276.55,-705.38,1124.87,-728.57"/>
<path data-id="46-153" d="M1276.55,-705.38,1230.53,-797.86"/>
<path data-id="46-169" d="M1276.55,-705.38,1366.80,-780.30"/>
<path data-id="46-176" d="M1276.55,-705.38,1349.00,-523.94"/>
<path data-id="47-65" d="M1412.39,-702.89,1445.34,-623.70"/>
<path data-id="47-169" d="M1412.39,-702.89,1366.80,-780.30"/>
<path data-id="48-55" d="M1056.68,-112.98,1139.60,-202.30"/>
<path data-id="49-60" d="M263.82,-770.89,182.49,-776.30"/>
<path data-id="49-110" d="M263.82,-770.89,296.31,-675.19"/>
<path data-id="49-135" d="M263.82,-770.89,244.09,-828.21"/>
<path data-id="50-132" d="M320.11,-485.98,249.07,-549.86"/>
<path data-id="50-146" d="M320.11,-485.98,452.42,-527.37"/>
<path data-id="50-159" d="M320.11,-485.98,434.47,-356.24"/>
<path data-id="50-185" d="M320.11,-485.98,322.18,-595.23"/>
<path data-id="50-187" d="M320.11,-485.98,274.06,-400.23"/>
<path data-id="51-60" d="M95.12,-727.16,182.49,-776.30"/>
<path data-id="51-122" d="M95.12,-727.16,87.62,-841.12"/>
<path data-id="51-132" d="M95.12,-727.16,249.07,-549.86"/>
<path data-id="51-173" d="M95.12,-727.16,28.98,-675.97"/>
<path data-id="52-171" d="M633.73,-137.05,527.57,-57.54"/>
<path data-id="52-172" d="M633.73,-137.05,707.58,-99.42"/>
<path data-id="52-203" d="M633.73,-137.05,508.16,-155.03"/>
<path data-id="52-209" d="M633.73,-137.05,740.52,-264.20"/>
<path data-id="52-214" d="M633.73,-137.05,594.02,-343.69"/>
<path data-id="53-108" d="M844.50,-1229.68,830.30,-1266.80"/>
<path data-id="53-180" d="M844.50,-1229.68,841.18,-1136.38"/>
<path data-id="54-219" d="M355.39,-85.85,380.58,-151.15"/>
<path data-id="55-81" d="M1139.60,-202.30,1206.68,-232.44"/>
<path data-id="55-155" d="M1139.60,-202.30,1084.49,-281.85"/>
<path data-id="55-156" d="M1139.60,-202.30,1269.13,-41.98"/>
<path data-id="56-69" d="M943.54,-985.34,934.57,-946.84"/>
<path data-id="56-104" d="M943.54,-985.34,826.75,-1097.84"/>
<path data-id="56-217" d="M943.54,-985.34,982.54,-1048.89"/>
<path data-id="57-188" d="M902.38,-501.33,909.88,-543.72"/>
<path data-id="58-86" d="M1238.49,-1113.02,1154.81,-1074.19"/>
<path data-id="58-154" d="M1238.49,-1113.02,1249.52,-1048.24"/>
<path data-id="58-168" d="M1238.49,-1113.02,1186.02,-1174.61"/>
<path data-id="59-119" d="M203.09,-143.61,182.53,-171.25"/>
<path data-id="60-101" d="M182.49,-776.30,131.17,-864.00"/>
<path data-id="60-158" d="M182.49,-776.30,214.88,-825.64"/>
<path data-id="61-79" d="M387.51,-1242.79,455.78,-1252.90"/>
<path data-id="61-148" d="M387.51,-1242.79,360.89,-1297.31"/>
<path data-id="61-193" d="M387.51,-1242.79,274.74,-1217.31"/>
<path data-id="62-75" d="M953.82,-155.89,898.80,-96.43"/>
<path data-id="63-217" d="M1056.17,-1075.95,982.54,-1048.89"/>
<path data-id="64-102" d="M54.92,-606.45,87.13,-438.08"/>
<path data-id="64-173" d="M54.92,-606.45,28.98,-675.97"/>
<path data-id="64-208" d="M54.92,-606.45,212.76,-513.33"/>
<path data-id="65-176" d="M1445.34,-623.70,1349.00,-523.94"/>
<path data-id="66-82" d="M505.51,-593.52,430.55,-735.42"/>
<path data-id="66-97" d="M505.51,-593.52,381.38,-706.50"/>
<path data-id="66-114" d="M505.51,-593.52,564.20,-685.38"/>
<path data-id="66-137" d="M505.51,-593.52,618.64,-463.05"/>
<path data-id="66-146" d="M505.51,-593.52,452.42,-527.37"/>
<path data-id="67-139" d="M158.58,-1059.95,79.90,-1027.32"/>
<path data-id="67-151" d="M158.58,-1059.95,248.08,-1063.54"/>
<path data-id="67-191" d="M158.58,-1059.95,250.46,-979.32"/>
<path data-id="67-223" d="M158.58,-1059.95,204.99,-1111.19"/>
<path data-id="68-71" d="M495.68,-1052.31,646.74,-1022.87"/>
<path data-id="68-79" d="M495.68,-1052.31,455.78,-1252.90"/>
<path data-id="68-87" d="M495.68,-1052.31,617.97,-938.87"/>
<path data-id="68-125" d="M495.68,-1052.31,610.54,-1265.78"/>
<path data-id="68-134" d="M495.68,-1052.31,477.03,-1020.67"/>
<path data-id="69-94" d="M934.57,-946.84,720.02,-867.34"/>
<path data-id="69-145" d="M934.57,-946.84,989.40,-876.34"/>
<path data-id="70-162" d="M885.22,-350.02,897.46,-206.13"/>
<path data-id="70-195" d="M885.22,-350.02,924.31,-378.42"/>
<path data-id="70-201" d="M885.22,-350.02,778.42,-314.11"/>
<path data-id="71-87" d="M646.74,-1022.87,617.97,-938.87"/>
<path data-id="72-88" d="M592.78,-733.90,665.94,-774.46"/>
<path data-id="72-113" d="M592.78,-733.90,469.62,-784.31"/>
<path data-id="72-114" d="M592.78,-733.90,564.20,-685.38"/>
<path data-id="73-109" d="M1111.44,-695.99,1124.87,-728.57"/>
<path data-id="73-164" d="M1111.44,-695.99,1111.49,-555.94"/>
<path data-id="74-84" d="M1478.68,-330.94,1420.21,-422.66"/>
<path data-id="75-112" d="M898.80,-96.43,814.98,-196.54"/>
<path data-id="75-149" d="M898.80,-96.43,799.00,-84.63"/>
<path data-id="75-167" d="M898.80,-96.43,953.28,-22.93"/>
<path data-id="76-105" d="M890.86,-1383.58,801.80,-1369.05"/>
<path data-id="76-161" d="M890.86,-1383.58,862.74,-1332.61"/>
<path data-id="76-165" d="M890.86,-1383.58,823.40,-1461.96"/>
<path data-id="77-102" d="M189.65,-396.50,87.13,-438.08"/>
<path data-id="77-121" d="M189.65,-396.50,66.68,-355.95"/>
<path data-id="77-178" d="M189.65,-396.50,250.78,-249.53"/>
<path data-id="77-187" d="M189.65,-396.50,274.06,-400.23"/>
<path data-id="77-208" d="M189.65,-396.50,212.76,-513.33"/>
<path data-id="78-99" d="M1473.60,-1043.50,1451.08,-1008.45"/>
<path data-id="79-125" d="M455.78,-1252.90,610.54,-1265.78"/>
<path data-id="79-220" d="M455.78,-1252.90,546.53,-1378.34"/>
<path data-id="80-81" d="M1187.30,-325.01,1206.68,-232.44"/>
<path data-id="80-136" d="M1187.30,-325.01,1123.86,-383.94"/>
<path data-id="80-155" d="M1187.30,-325.01,1084.49,-281.85"/>
<path data-id="80-184" d="M1187.30,-325.01,1315.81,-353.64"/>
<path data-id="80-222" d="M1187.30,-325.01,1196.00,-448.23"/>
<path data-id="81-89" d="M1206.68,-232.44,1237.77,-241.16"/>
<path data-id="81-156" d="M1206.68,-232.44,1269.13,-41.98"/>
<path data-id="82-97" d="M430.55,-735.42,381.38,-706.50"/>
<path data-id="82-113" d="M430.55,-735.42,469.62,-784.31"/>
<path data-id="82-114" d="M430.55,-735.42,564.20,-685.38"/>
<path data-id="83-127" d="M254.13,-1345.25,241.33,-1312.66"/>
<path data-id="83-144" d="M254.13,-1345.25,402.43,-1391.50"/>
<path data-id="83-148" d="M254.13,-1345.25,360.89,-1297.31"/>
<path data-id="83-170" d="M254.13,-1345.25,381.06,-1429.30"/>
<path data-id="84-176" d="M1420.21,-422.66,1349.00,-523.94"/>
<path data-id="84-206" d="M1420.21,-422.66,1393.16,-359.78"/>
<path data-id="85-119" d="M216.49,-218.74,182.53,-171.25"/>
<path data-id="85-178" d="M216.49,-218.74,250.78,-249.53"/>
<path data-id="86-154" d="M1154.81,-1074.19,1249.52,-1048.24"/>
<path data-id="87-94" d="M617.97,-938.87,720.02,-867.34"/>
<path data-id="87-126" d="M617.97,-938.87,476.77,-832.96"/>
<path data-id="87-134" d="M617.97,-938.87,477.03,-1020.67"/>
<path data-id="87-175" d="M617.97,-938.87,461.33,-966.59"/>
<path data-id="88-94" d="M665.94,-774.46,720.02,-867.34"/>
<path data-id="88-182" d="M665.94,-774.46,745.18,-651.16"/>
<path data-id="89-156" d="M1237.77,-241.16,1269.13,-41.98"/>
<path data-id="90-124" d="M416.45,-1486.97,587.47,-1465.59"/>
<path data-id="90-170" d="M416.45,-1486.97,381.06,-1429.30"/>
<path data-id="90-220" d="M416.45,-1486.97,546.53,-1378.34"/>
<path data-id="91-174" d="M31.51,-1202.86,6.61,-1274.10"/>
<path data-id="92-116" d="M147.59,-1328.74,65.05,-1302.07"/>
<path data-id="92-127" d="M147.59,-1328.74,241.33,-1312.66"/>
<path data-id="93-108" d="M694.28,-1217.68,830.30,-1266.80"/>
<path data-id="93-166" d="M694.28,-1217.68,745.58,-1111.78"/>
<path data-id="93-205" d="M694.28,-1217.68,673.83,-1246.69"/>
<path data-id="94-183" d="M720.02,-867.34,852.05,-714.74"/>
<path data-id="95-149" d="M737.05,-42.33,799.00,-84.63"/>
<path data-id="95-172" d="M737.05,-42.33,707.58,-99.42"/>
<path data-id="96-141" d="M307.49,-1042.13,402.17,-955.70"/>
<path data-id="97-110" d="M381.38,-706.50,296.31,-675.19"/>
<path data-id="98-103" d="M699.54,-479.08,646.72,-456.82"/>
<path data-id="98-182" d="M699.54,-479.08,745.18,-651.16"/>
<path data-id="98-218" d="M699.54,-479.08,644.06,-484.18"/>
<path data-id="99-189" d="M1451.08,-1008.45,1410.46,-1029.69"/>
<path data-id="99-224" d="M1451.08,-1008.45,1460.89,-980.76"/>
<path data-id="100-111" d="M1182.70,-1431.79,1380.03,-1442.07"/>
<path data-id="100-190" d="M1182.70,-1431.79,1138.73,-1378.79"/>
<path data-id="101-122" d="M131.17,-864.00,87.62,-841.12"/>
<path data-id="101-158" d="M131.17,-864.00,214.88,-825.64"/>
<path data-id="102-208" d="M87.13,-438.08,212.76,-513.33"/>
<path data-id="102-215" d="M87.13,-438.08,39.39,-393.79"/>
<path data-id="103-137" d="M646.72,-456.82,618.64,-463.05"/>
<path data-id="103-177" d="M646.72,-456.82,684.45,-343.56"/>
<path data-id="103-214" d="M646.72,-456.82,594.02,-343.69"/>
<path data-id="103-218" d="M646.72,-456.82,644.06,-484.18"/>
<path data-id="104-166" d="M826.75,-1097.84,745.58,-1111.78"/>
<path data-id="104-180" d="M826.75,-1097.84,841.18,-1136.38"/>
<path data-id="104-217" d="M826.75,-1097.84,982.54,-1048.89"/>
<path data-id="105-117" d="M801.80,-1369.05,615.58,-1340.09"/>
<path data-id="105-147" d="M801.80,-1369.05,707.20,-1463.96"/>
<path data-id="105-161" d="M801.80,-1369.05,862.74,-1332.61"/>
<path data-id="105-165" d="M801.80,-1369.05,823.40,-1461.96"/>
<path data-id="105-205" d="M801.80,-1369.05,673.83,-1246.69"/>
<path data-id="106-140" d="M830.67,-451.68,747.68,-332.38"/>
<path data-id="106-201" d="M830.67,-451.68,778.42,-314.11"/>
<path data-id="107-123" d="M930.74,-613.20,944.83,-558.23"/>
<path data-id="107-142" d="M930.74,-613.20,928.22,-738.07"/>
<path data-id="107-143" d="M930.74,-613.20,907.08,-578.77"/>
<path data-id="107-183" d="M930.74,-613.20,852.05,-714.74"/>
<path data-id="108-181" d="M830.30,-1266.80,878.89,-1289.78"/>
<path data-id="109-153" d="M1124.87,-728.57,1230.53,-797.86"/>
<path data-id="110-185" d="M296.31,-675.19,322.18,-595.23"/>
<path data-id="111-130" d="M1380.03,-1442.07,1405.23,-1336.93"/>
<path data-id="112-149" d="M814.98,-196.54,799.00,-84.63"/>
<path data-id="112-162" d="M814.98,-196.54,897.46,-206.13"/>
<path data-id="112-172" d="M814.98,-196.54,707.58,-99.42"/>
<path data-id="112-209" d="M814.98,-196.54,740.52,-264.20"/>
<path data-id="113-114" d="M469.62,-784.31,564.20,-685.38"/>
<path data-id="113-126" d="M469.62,-784.31,476.77,-832.96"/>
<path data-id="115-128" d="M1478.61,-917.68,1345.40,-820.01"/>
<path data-id="115-224" d="M1478.61,-917.68,1460.89,-980.76"/>
<path data-id="116-174" d="M65.05,-1302.07,6.61,-1274.10"/>
<path data-id="117-125" d="M615.58,-1340.09,610.54,-1265.78"/>
<path data-id="117-160" d="M615.58,-1340.09,615.66,-1394.57"/>
<path data-id="117-220" d="M615.58,-1340.09,546.53,-1378.34"/>
<path data-id="118-135" d="M280.24,-934.45,244.09,-828.21"/>
<path data-id="118-191" d="M280.24,-934.45,250.46,-979.32"/>
<path data-id="118-207" d="M280.24,-934.45,392.89,-914.21"/>
<path data-id="120-179" d="M44.08,-970.76,59.82,-1004.67"/>
<path data-id="120-194" d="M44.08,-970.76,23.43,-922.72"/>
<path data-id="121-215" d="M66.68,-355.95,39.39,-393.79"/>
<path data-id="122-194" d="M87.62,-841.12,23.43,-922.72"/>
<path data-id="123-143" d="M944.83,-558.23,907.08,-578.77"/>
<path data-id="123-188" d="M944.83,-558.23,909.88,-543.72"/>
<path data-id="124-220" d="M587.47,-1465.59,546.53,-1378.34"/>
<path data-id="125-205" d="M610.54,-1265.78,673.83,-1246.69"/>
<path data-id="126-175" d="M476.77,-832.96,461.33,-966.59"/>
<path data-id="126-207" d="M476.77,-832.96,392.89,-914.21"/>
<path data-id="127-148" d="M241.33,-1312.66,360.89,-1297.31"/>
<path data-id="127-193" d="M241.33,-1312.66,274.74,-1217.31"/>
<path data-id="128-153" d="M1345.40,-820.01,1230.53,-797.86"/>
<path data-id="128-169" d="M1345.40,-820.01,1366.80,-780.30"/>
<path data-id="128-202" d="M1345.40,-820.01,1332.88,-986.79"/>
<path data-id="128-221" d="M1345.40,-820.01,1274.88,-961.06"/>
<path data-id="129-159" d="M545.75,-327.74,434.47,-356.24"/>
<path data-id="129-198" d="M545.75,-327.74,500.87,-256.70"/>
<path data-id="129-211" d="M545.75,-327.74,519.70,-392.01"/>
<path data-id="129-214" d="M545.75,-327.74,594.02,-343.69"/>
<path data-id="131-178" d="M313.99,-221.14,250.78,-249.53"/>
<path data-id="131-192" d="M313.99,-221.14,372.74,-225.81"/>
<path data-id="132-185" d="M249.07,-549.86,322.18,-595.23"/>
<path data-id="132-208" d="M249.07,-549.86,212.76,-513.33"/>
<path data-id="133-182" d="M826.69,-687.84,745.18,-651.16"/>
<path data-id="133-183" d="M826.69,-687.84,852.05,-714.74"/>
<path data-id="133-199" d="M826.69,-687.84,842.63,-602.18"/>
<path data-id="134-175" d="M477.03,-1020.67,461.33,-966.59"/>
<path data-id="135-158" d="M244.09,-828.21,214.88,-825.64"/>
<path data-id="136-155" d="M1123.86,-383.94,1084.49,-281.85"/>
<path data-id="136-222" d="M1123.86,-383.94,1196.00,-448.23"/>
<path data-id="137-146" d="M618.64,-463.05,452.42,-527.37"/>
<path data-id="137-211" d="M618.64,-463.05,519.70,-392.01"/>
<path data-id="137-214" d="M618.64,-463.05,594.02,-343.69"/>
<path data-id="137-218" d="M618.64,-463.05,644.06,-484.18"/>
<path data-id="138-159" d="M308.48,-363.09,434.47,-356.24"/>
<path data-id="138-187" d="M308.48,-363.09,274.06,-400.23"/>
<path data-id="139-179" d="M79.90,-1027.32,59.82,-1004.67"/>
<path data-id="140-177" d="M747.68,-332.38,684.45,-343.56"/>
<path data-id="140-201" d="M747.68,-332.38,778.42,-314.11"/>
<path data-id="140-209" d="M747.68,-332.38,740.52,-264.20"/>
<path data-id="141-175" d="M402.17,-955.70,461.33,-966.59"/>
<path data-id="141-207" d="M402.17,-955.70,392.89,-914.21"/>
<path data-id="142-145" d="M928.22,-738.07,989.40,-876.34"/>
<path data-id="142-183" d="M928.22,-738.07,852.05,-714.74"/>
<path data-id="143-188" d="M907.08,-578.77,909.88,-543.72"/>
<path data-id="143-199" d="M907.08,-578.77,842.63,-602.18"/>
<path data-id="144-148" d="M402.43,-1391.50,360.89,-1297.31"/>
<path data-id="144-170" d="M402.43,-1391.50,381.06,-1429.30"/>
<path data-id="144-220" d="M402.43,-1391.50,546.53,-1378.34"/>
<path data-id="146-185" d="M452.42,-527.37,322.18,-595.23"/>
<path data-id="147-165" d="M707.20,-1463.96,823.40,-1461.96"/>
<path data-id="147-212" d="M707.20,-1463.96,688.59,-1483.52"/>
<path data-id="148-193" d="M360.89,-1297.31,274.74,-1217.31"/>
<path data-id="149-172" d="M799.00,-84.63,707.58,-99.42"/>
<path data-id="150-210" d="M178.35,-11.38,114.11,-64.56"/>
<path data-id="151-204" d="M248.08,-1063.54,272.40,-1151.40"/>
<path data-id="151-223" d="M248.08,-1063.54,204.99,-1111.19"/>
<path data-id="152-215" d="M7.57,-414.39,39.39,-393.79"/>
<path data-id="153-221" d="M1230.53,-797.86,1274.88,-961.06"/>
<path data-id="154-186" d="M1249.52,-1048.24,1282.37,-1030.34"/>
<path data-id="156-163" d="M1269.13,-41.98,1435.84,-153.61"/>
<path data-id="157-186" d="M1272.98,-1006.06,1282.37,-1030.34"/>
<path data-id="157-202" d="M1272.98,-1006.06,1332.88,-986.79"/>
<path data-id="157-221" d="M1272.98,-1006.06,1274.88,-961.06"/>
<path data-id="159-192" d="M434.47,-356.24,372.74,-225.81"/>
<path data-id="159-198" d="M434.47,-356.24,500.87,-256.70"/>
<path data-id="160-220" d="M615.66,-1394.57,546.53,-1378.34"/>
<path data-id="161-181" d="M862.74,-1332.61,878.89,-1289.78"/>
<path data-id="163-216" d="M1435.84,-153.61,1477.69,-140.54"/>
<path data-id="164-222" d="M1111.49,-555.94,1196.00,-448.23"/>
<path data-id="171-203" d="M527.57,-57.54,508.16,-155.03"/>
<path data-id="172-209" d="M707.58,-99.42,740.52,-264.20"/>
<path data-id="177-214" d="M684.45,-343.56,594.02,-343.69"/>
<path data-id="178-213" d="M250.78,-249.53,302.83,-291.67"/>
<path data-id="180-217" d="M841.18,-1136.38,982.54,-1048.89"/>
<path data-id="182-199" d="M745.18,-651.16,842.63,-602.18"/>
<path data-id="184-206" d="M1315.81,-353.64,1393.16,-359.78"/>
<path data-id="186-202" d="M1282.37,-1030.34,1332.88,-986.79"/>
<path data-id="187-208" d="M274.06,-400.23,212.76,-513.33"/>
<path data-id="189-202" d="M1410.46,-1029.69,1332.88,-986.79"/>
<path data-id="192-196" d="M372.74,-225.81,401.15,-186.86"/>
<path data-id="193-204" d="M274.74,-1217.31,272.40,-1151.40"/>
<path data-id="195-200" d="M924.31,-378.42,960.06,-436.58"/>
<path data-id="196-198" d="M401.15,-186.86,500.87,-256.70"/>
<path data-id="196-219" d="M401.15,-186.86,380.58,-151.15"/>
<path data-id="197-210" d="M13.28,-66.06,114.11,-64.56"/>
<path data-id="201-209" d="M778.42,-314.11,740.52,-264.20"/>
<path data-id="202-221" d="M1332.88,-986.79,1274.88,-961.06"/>
<path data-id="204-223" d="M272.40,-1151.40,204.99,-1111.19"/>
<circle data-id="0" cx="1050.07" cy="-359.23" r="10.00px"/>
<text data-id="0" x="1050.07" y="-359.23">R0</text>
<circle data-id="1" cx="1091.97" cy="-1374.97" r="10.00px"/>
<text data-id="1" x="1091.97" y="-1374.97">R1</text>
<circle data-id="2" cx="1052.46" cy="-284.29" r="10.00px"/>
<text data-id="2" x="1052.46" y="-284.29">R2</text>
<circle data-id="3" cx="1323.48" cy="-1145.51" r="10.00px"/>
<text data-id="3" x="1323.48" y="-1145.51">R3</text>
<circle data-id="4" cx="213.42" cy="-12.79" r="10.00px"/>
<text data-id="4" x="213.42" y="-12.79">R4</text>
<circle data-id="5" cx="272.47" cy="-35.80" r="10.00px"/>
<text data-id="5" x="272.47" y="-35.80">R5</text>
<circle data-id="6" cx="1038.54" cy="-762.77" r="10.00px"/>
<text data-id="6" x="1038.54" y="-762.77">R6</text>
<circle data-id="7" cx="1410.22" cy="-321.23" r="10.00px"/>
<text data-id="7" x="1410.22" y="-321.23">R7</text>
<circle data-id="8" cx="437.17" cy="-147.45" r="10.00px"/>
<text data-id="8" x="437.17" y="-147.45">R8</text>
<circle data-id="9" cx="1480.46" cy="-668.62" r="10.00px"/>
<text data-id="9" x="1480.46" y="-668.62">R9</text>
<circle data-id="10" cx="206.19" cy="-81.80" r="10.00px"/>
<text data-id="10" x="206.19" y="-81.80">R10</text>
<circle data-id="11" cx="1180.23" cy="-1016.59" r="10.00px"/>
<text data-id="11" x="1180.23" y="-1016.59">R11</text>
<circle data-id="12" cx="195.48" cy="-932.98" r="10.00px"/>
<text data-id="12" x="195.48" y="-932.98">R12</text>
<circle data-id="13" cx="902.68" cy="-464.66" r="10.00px"/>
<text data-id="13" x="902.68" y="-464.66">R13</text>
<circle data-id="14" cx="1221.12" cy="-1002.90" r="10.00px"/>
<text data-id="14" x="1221.12" y="-1002.90">R14</text>
<circle data-id="15" cx="1494.75" cy="-764.95" r="10.00px"/>
<text data-id="15" x="1494.75" y="-764.95">R15</text>
<circle data-id="16" cx="1304.04" cy="-437.80" r="10.00px"/>
<text data-id="16" x="1304.04" y="-437.80">R16</text>
<circle data-id="17" cx="81.17" cy="-259.96" r="10.00px"/>
<text data-id="17" x="81.17" y="-259.96">R17</text>
<circle data-id="18" cx="1459.48" cy="-508.95" r="10.00px"/>
<text data-id="18" x="1459.48" y="-508.95">R18</text>
<circle data-id="19" cx="264.19" cy="-1034.96" r="10.00px"/>
<text data-id="19" x="264.19" y="-1034.96">R19</text>
<circle data-id="20" cx="891.78" cy="-432.13" r="10.00px"/>
<text data-id="20" x="891.78" y="-432.13">R20</text>
<circle data-id="21" cx="1228.80" cy="-1276.54" r="10.00px"/>
<text data-id="21" x="1228.80" y="-1276.54">R21</text>
<circle data-id="22" cx="1126.80" cy="-1108.58" r="10.00px"/>
<text data-id="22" x="1126.80" y="-1108.58">R22</text>
<circle data-id="23" cx="1005.88" cy="-566.85" r="10.00px"/>
<text data-id="23" x="1005.88" y="-566.85">R23</text>
<circle data-id="24" cx="117.34" cy="-1270.70" r="10.00px"/>
<text data-id="24" x="117.34" y="-1270.70">R24</text>
<circle data-id="25" cx="316.85" cy="-327.27" r="10.00px"/>
<text data-id="25" x="316.85" y="-327.27">R25</text>
<circle data-id="26" cx="876.11" cy="-1499.85" r="10.00px"/>
<text data-id="26" x="876.11" y="-1499.85">R26</text>
<circle data-id="27" cx="146.65" cy="-1122.13" r="10.00px"/>
<text data-id="27" x="146.65" y="-1122.13">R27</text>
<circle data-id="28" cx="1406.07" cy="-198.18" r="10.00px"/>
<text data-id="28" x="1406.07" y="-198.18">R28</text>
<circle data-id="29" cx="913.29" cy="-183.49" r="10.00px"/>
<text data-id="29" x="913.29" y="-183.49">R29</text>
<circle data-id="30" cx="45.50" cy="-1355.39" r="10.00px"/>
<text data-id="30" x="45.50" y="-1355.39">R30</text>
<circle data-id="31" cx="1191.16" cy="-1499.59" r="10.00px"/>
<text data-id="31" x="1191.16" y="-1499.59">R31</text>
<circle data-id="32" cx="1254.07" cy="-266.34" r="10.00px"/>
<text data-id="32" x="1254.07" y="-266.34">R32</text>
<circle data-id="33" cx="812.24" cy="-492.82" r="10.00px"/>
<text data-id="33" x="812.24" y="-492.82">R33</text>
<circle data-id="34" cx="60.47" cy="-1205.52" r="10.00px"/>
<text data-id="34" x="60.47" y="-1205.52">R34</text>
<circle data-id="35" cx="1018.87" cy="-129.49" r="10.00px"/>
<text data-id="35" x="1018.87" y="-129.49">R35</text>
<circle data-id="36" cx="1208.20" cy="-589.02" r="10.00px"/>
<text data-id="36" x="1208.20" y="-589.02">R36</text>
<circle data-id="37" cx="365.53" cy="-749.49" r="10.00px"/>
<text data-id="37" x="365.53" y="-749.49">R37</text>
<circle data-id="38" cx="744.92" cy="-1027.33" r="10.00px"/>
<text data-id="38" x="744.92" y="-1027.33">R38</text>
<circle data-id="39" cx="483.19" cy="-169.89" r="10.00px"/>
<text data-id="39" x="483.19" y="-169.89">R39</text>
<circle data-id="40" cx="630.37" cy="-1431.07" r="10.00px"/>
<text data-id="40" x="630.37" y="-1431.07">R40</text>
<circle data-id="41" cx="128.03" cy="-1427.35" r="10.00px"/>
<text data-id="41" x="128.03" y="-1427.35">R41</text>
<circle data-id="42" cx="330.94" cy="-852.45" r="10.00px"/>
<text data-id="42" x="330.94" y="-852.45">R42</text>
<circle data-id="43" cx="479.98" cy="-406.58" r="10.00px"/>
<text data-id="43" x="479.98" y="-406.58">R43</text>
<circle data-id="44" cx="1146.73" cy="-35.86" r="10.00px"/>
<text data-id="44" x="1146.73" y="-35.86">R44</text>
<circle data-id="45" cx="320.75" cy="-248.56" r="10.00px"/>
<text data-id="45" x="320.75" y="-248.56">R45</text>
<circle data-id="46" cx="1276.55" cy="-705.38" r="10.00px"/>
<text data-id="46" x="1276.55" y="-705.38">R46</text>
<circle data-id="47" cx="1412.39" cy="-702.89" r="10.00px"/>
<text data-id="47" x="1412.39" y="-702.89">R47</text>
<circle data-id="48" cx="1056.68" cy="-112.98" r="10.00px"/>
<text data-id="48" x="1056.68" y="-112.98">R48</text>
<circle data-id="49" cx="263.82" cy="-770.89" r="10.00px"/>
<text data-id="49" x="263.82" y="-770.89">R49</text>
<circle data-id="50" cx="320.11" cy="-485.98" r="10.00px"/>
<text data-id="50" x="320.11" y="-485.98">R50</text>
<circle data-id="51" cx="95.12" cy="-727.16" r="10.00px"/>
<text data-id="51" x="95.12" y="-727.16">R51</text>
<circle data-id="52" cx="633.73" cy="-137.05" r="10.00px"/>
<text data-id="52" x="633.73" y="-137.05">R52</text>
<circle data-id="53" cx="844.50" cy="-1229.68" r="10.00px"/>
<text data-id="53" x="844.50" y="-1229.68">R53</text>
<circle data-id="54" cx="355.39" cy="-85.85" r="10.00px"/>
<text data-id="54" x="355.39" y="-85.85">R54</text>
<circle data-id="55" cx="1139.60" cy="-202.30" r="10.00px"/>
<text data-id="55" x="1139.60" y="-202.30">R55</text>
<circle data-id="56" cx="943.54" cy="-985.34" r="10.00px"/>
<text data-id="56" x="943.54" y="-985.34">R56</text>
<circle data-id="57" cx="902.38" cy="-501.33" r="10.00px"/>
<text data-id="57" x="902.38" y="-501.33">R57</text>
<circle data-id="58" cx="1238.49" cy="-1113.02" r="10.00px"/>
<text data-id="58" x="1238.49" y="-1113.02">R58</text>
<circle data-id="59" cx="203.09" cy="-143.61" r="10.00px"/>
<text data-id="59" x="203.09" y="-143.61">R59</text>
<circle data-id="60" cx="182.49" cy="-776.30" r="10.00px"/>
<text data-id="60" x="182.49" y="-776.30">R60</text>
<circle data-id="61" cx="387.51" cy="-1242.79" r="10.00px"/>
<text data-id="61" x="387.51" y="-1242.79">R61</text>
<circle data-id="62" cx="953.82" cy="-155.89" r="10.00px"/>
<text data-id="62" x="953.82" y="-155.89">R62</text>
<circle data-id="63" cx="1056.17" cy="-1075.95" r="10.00px"/>
<text data-id="63" x="1056.17" y="-1075.95">R63</text>
<circle data-id="64" cx="54.92" cy="-606.45" r="10.00px"/>
<text data-id="64" x="54.92" y="-606.45">R64</text>
<circle data-id="65" cx="1445.34" cy="-623.70" r="10.00px"/>
<text data-id="65" x="1445.34" y="-623.70">R65</text>
<circle data-id="66" cx="505.51" cy="-593.52" r="10.00px"/>
<text data-id="66" x="505.51" y="-593.52">R66</text>
<circle data-id="67" cx="158.58" cy="-1059.95" r="10.00px"/>
<text data-id="67" x="158.58" y="-1059.95">R67</text>
<circle data-id="68" cx="495.68" cy="-1052.31" r="10.00px"/>
<text data-id="68" x="495.68" y="-1052.31">R68</text>
<circle data-id="69" cx="934.57" cy="-946.84" r="10.00px"/>
<text data-id="69" x="934.57" y="-946.84">R69</text>
<circle data-id="70" cx="885.22" cy="-350.02" r="10.00px"/>
<text data-id="70" x="885.22" y="-350.02">R70</text>
<circle data-id="71" cx="646.74" cy="-1022.87" r="10.00px"/>
<text data-id="71" x="646.74" y="-1022.87">R71</text>
<circle data-id="72" cx="592.78" cy="-733.90" r="10.00px"/>
<text data-id="72" x="592.78" y="-733.90">R72</text>
<circle data-id="73" cx="1111.44" cy="-695.99" r="10.00px"/>
<text data-id="73" x="1111.44" y="-695.99">R73</text>
<circle data-id="74" cx="1478.68" cy="-330.94" r="10.00px"/>
<text data-id="74" x="1478.68" y="-330.94">R74</text>
<circle data-id="75" cx="898.80" cy="-96.43" r="10.00px"/>
<text data-id="75" x="898.80" y="-96.43">R75</text>
<circle data-id="76" cx="890.86" cy="-1383.58" r="10.00px"/>
<text data-id="76" x="890.86" y="-1383.58">R76</text>
<circle data-id="77" cx="189.65" cy="-396.50" r="10.00px"/>
<text data-id="77" x="189.65" y="-396.50">R77</text>
<circle data-id="78" cx="1473.60" cy="-1043.50" r="10.00px"/>
<text data-id="78" x="1473.60" y="-1043.50">R78</text>
<circle data-id="79" cx="455.78" cy="-1252.90" r="10.00px"/>
<text data-id="79" x="455.78" y="-1252.90">R79</text>
<circle data-id="80" cx="1187.30" cy="-325.01" r="10.00px"/>
<text data-id="80" x="1187.30" y="-325.01">R80</text>
<circle data-id="81" cx="1206.68" cy="-232.44" r="10.00px"/>
<text data-id="81" x="1206.68" y="-232.44">R81</text>
<circle data-id="82" cx="430.55" cy="-735.42" r="10.00px"/>
<text data-id="82" x="430.55" y="-735.42">R82</text>
<circle data-id="83" cx="254.13" cy="-1345.25" r="10.00px"/>
<text data-id="83" x="254.13" y="-1345.25">R83</text>
<circle data-id="84" cx="1420.21" cy="-422.66" r="10.00px"/>
<text data-id="84" x="1420.21" y="-422.66">R84</text>
<circle data-id="85" cx="216.49" cy="-218.74" r="10.00px"/>
<text data-id="85" x="216.49" y="-218.74">R85</text>
<circle data-id="86" cx="1154.81" cy="-1074.19" r="10.00px"/>
<text data-id="86" x="1154.81" y="-1074.19">R86</text>
<circle data-id="87" cx="617.97" cy="-938.87" r="10.00px"/>
<text data-id="87" x="617.97" y="-938.87">R87</text>
<circle data-id="88" cx="665.94" cy="-774.46" r="10.00px"/>
<text data-id="88" x="665.94" y="-774.46">R88</text>
<circle data-id="89" cx="1237.77" cy="-241.16" r="10.00px"/>
<text data-id="89" x="1237.77" y="-241.16">R89</text>
<circle data-id="90" cx="416.45" cy="-1486.97" r="10.00px"/>
<text data-id="90" x="416.45" y="-1486.97">R90</text>
<circle data-id="91" cx="31.51" cy="-1202.86" r="10.00px"/>
<text data-id="91" x="31.51" y="-1202.86">R91</text>
<circle data-id="92" cx="147.59" cy="-1328.74" r="10.00px"/>
<text data-id="92" x="147.59" y="-1328.74">R92</text>
<circle data-id="93" cx="694.28" cy="-1217.68" r="10.00px"/>
<text data-id="93" x="694.28" y="-1217.68">R93</text>
<circle data-id="94" cx="720.02" cy="-867.34" r="10.00px"/>
<text data-id="94" x="720.02" y="-867.34">R94</text>
<circle data-id="95" cx="737.05" cy="-42.33" r="10.00px"/>
<text data-id="95" x="737.05" y="-42.33">R95</text>
<circle data-id="96" cx="307.49" cy="-1042.13" r="10.00px"/>
<text data-id="96" x="307.49" y="-1042.13">R96</text>
<circle data-id="97" cx="381.38" cy="-706.50" r="10.00px"/>
<text data-id="97" x="381.38" y="-706.50">R97</text>
<circle data-id="98" cx="699.54" cy="-479.08" r="10.00px"/>
<text data-id="98" x="699.54" y="-479.08">R98</text>
<circle data-id="99" cx="1451.08" cy="-1008.45" r="10.00px"/>
<text data-id="99" x="1451.08" y="-1008.45">R99</text>
<circle data-id="100" cx="1182.70" cy="-1431.79" r="10.00px"/>
<text data-id="100" x="1182.70" y="-1431.79">R100</text>
<circle data-id="101" cx="131.17" cy="-864.00" r="10.00px"/>
<text data-id="101" x="131.17" y="-864.00">R101</text>
<circle data-id="102" cx="87.13" cy="-438.08" r="10.00px"/>
<text data-id="102" x="87.13" y="-438.08">R102</text>
<circle data-id="103" cx="646.72" cy="-456.82" r="10.00px"/>
<text data-id="103" x="646.72" y="-456.82">R103</text>
<circle data-id="104" cx="826.75" cy="-1097.84" r="10.00px"/>
<text data-id="104" x="826.75" y="-1097.84">R104</text>
<circle data-id="105" cx="801.80" cy="-1369.05" r="10.00px"/>
<text data-id="105" x="801.80" y="-1369.05">R105</text>
<circle data-id="106" cx="830.67" cy="-451.68" r="10.00px"/>
<text data-id="106" x="830.67" y="-451.68">R106</text>
<circle data-id="107" cx="930.74" cy="-613.20" r="10.00px"/>
<text data-id="107" x="930.74" y="-613.20">R107</text>
<circle data-id="108" cx="830.30" cy="-1266.80" r="10.00px"/>
<text data-id="108" x="830.30" y="-1266.80">R108</text>
<circle data-id="109" cx="1124.87" cy="-728.57" r="10.00px"/>
<text data-id="109" x="1124.87" y="-728.57">R109</text>
<circle data-id="110" cx="296.31" cy="-675.19" r="10.00px"/>
<text data-id="110" x="296.31" y="-675.19">R110</text>
<circle data-id="111" cx="1380.03" cy="-1442.07" r="10.00px"/>
<text data-id="111" x="1380.03" y="-1442.07">R111</text>
<circle data-id="112" cx="814.98" cy="-196.54" r="10.00px"/>
<text data-id="112" x="814.98" y="-196.54">R112</text>
<circle data-id="113" cx="469.62" cy="-784.31" r="10.00px"/>
<text data-id="113" x="469.62" y="-784.31">R113</text>
<circle data-id="114" cx="564.20" cy="-685.38" r="10.00px"/>
<text data-id="114" x="564.20" y="-685.38">R114</text>
<circle data-id="115" cx="1478.61" cy="-917.68" r="10.00px"/>
<text data-id="115" x="1478.61" y="-917.68">R115</text>
<circle data-id="116" cx="65.05" cy="-1302.07" r="10.00px"/>
<text data-id="116" x="65.05" y="-1302.07">R116</text>
<circle data-id="117" cx="615.58" cy="-1340.09" r="10.00px"/>
<text data-id="117" x="615.58" y="-1340.09">R117</text>
<circle data-id="118" cx="280.24" cy="-934.45" r="10.00px"/>
<text data-id="118" x="280.24" y="-934.45">R118</text>
<circle data-id="119" cx="182.53" cy="-171.25" r="10.00px"/>
<text data-id="119" x="182.53" y="-171.25">R119</text>
<circle data-id="120" cx="44.08" cy="-970.76" r="10.00px"/>
<text data-id="120" x="44.08" y="-970.76">R120</text>
<circle data-id="121" cx="66.68" cy="-355.95" r="10.00px"/>
<text data-id="121" x="66.68" y="-355.95">R121</text>
<circle data-id="122" cx="87.62" cy="-841.12" r="10.00px"/>
<text data-id="122" x="87.62" y="-841.12">R122</text>
<circle data-id="123" cx="944.83" cy="-558.23" r="10.00px"/>
<text data-id="123" x="944.83" y="-558.23">R123</text>
<circle data-id="124" cx="587.47" cy="-1465.59" r="10.00px"/>
<text data-id="124" x="587.47" y="-1465.59">R124</text>
<circle data-id="125" cx="610.54" cy="-1265.78" r="10.00px"/>
<text data-id="125" x="610.54" y="-1265.78">R125</text>
<circle data-id="126" cx="476.77" cy="-832.96" r="10.00px"/>
<text data-id="126" x="476.77" y="-832.96">R126</text>
<circle data-id="127" cx="241.33" cy="-1312.66" r="10.00px"/>
<text data-id="127" x="241.33" y="-1312.66">R127</text>
<circle data-id="128" cx="1345.40" cy="-820.01" r="10.00px"/>
<text data-id="128" x="1345.40" y="-820.01">R128</text>
<circle data-id="129" cx="545.75" cy="-327.74" r="10.00px"/>
<text data-id="129" x="545.75" y="-327.74">R129</text>
<circle data-id="130" cx="1405.23" cy="-1336.93" r="10.00px"/>
<text data-id="130" x="1405.23" y="-1336.93">R130</text>
<circle data-id="131" cx="313.99" cy="-221.14" r="10.00px"/>
<text data-id="131" x="313.99" y="-221.14">R131</text>
<circle data-id="132" cx="249.07" cy="-549.86" r="10.00px"/>
<text data-id="132" x="249.07" y="-549.86">R132</text>
<circle data-id="133" cx="826.69" cy="-687.84" r="10.00px"/>
<text data-id="133" x="826.69" y="-687.84">R133</text>
<circle data-id="134" cx="477.03" cy="-1020.67" r="10.00px"/>
<text data-id="134" x="477.03" y="-1020.67">R134</text>
<circle data-id="135" cx="244.09" cy="-828.21" r="10.00px"/>
<text data-id="135" x="244.09" y="-828.21">R135</text>
<circle data-id="136" cx="1123.86" cy="-383.94" r="10.00px"/>
<text data-id="136" x="1123.86" y="-383.94">R136</text>
<circle data-id="137" cx="618.64" cy="-463.05" r="10.00px"/>
<text data-id="137" x="618.64" y="-463.05">R137</text>
<circle data-id="138" cx="308.48" cy="-363.09" r="10.00px"/>
<text data-id="138" x="308.48" y="-363.09">R138</text>
<circle data-id="139" cx="79.90" cy="-1027.32" r="10.00px"/>
<text data-id="139" x="79.90" y="-1027.32">R139</text>
<circle data-id="140" cx="747.68" cy="-332.38" r="10.00px"/>
<text data-id="140" x="747.68" y="-332.38">R140</text>
<circle data-id="141" cx="402.17" cy="-955.70" r="10.00px"/>
<text data-id="141" x="402.17" y="-955.70">R141</text>
<circle data-id="142" cx="928.22" cy="-738.07" r="10.00px"/>
<text data-id="142" x="928.22" y="-738.07">R142</text>
<circle data-id="143" cx="907.08" cy="-578.77" r="10.00px"/>
<text data-id="143" x="907.08" y="-578.77">R143</text>
<circle data-id="144" cx="402.43" cy="-1391.50" r="10.00px"/>
<text data-id="144" x="402.43" y="-1391.50">R144</text>
<circle data-id="145" cx="989.40" cy="-876.34" r="10.00px"/>
<text data-id="145" x="989.40" y="-876.34">R145</text>
<circle data-id="146" cx="452.42" cy="-527.37" r="10.00px"/>
<text data-id="146" x="452.42" y="-527.37">R146</text>
<circle data-id="147" cx="707.20" cy="-1463.96" r="10.00px"/>
<text data-id="147" x="707.20" y="-1463.96">R147</text>
<circle data-id="148" cx="360.89" cy="-1297.31" r="10.00px"/>
<text data-id="148" x="360.89" y="-1297.31">R148</text>
<circle data-id="149" cx="799.00" cy="-84.63" r="10.00px"/>
<text data-id="149" x="799.00" y="-84.63">R149</text>
<circle data-id="150" cx="178.35" cy="-11.38" r="10.00px"/>
<text data-id="150" x="178.35" y="-11.38">R150</text>
<circle data-id="151" cx="248.08" cy="-1063.54" r="10.00px"/>
<text data-id="151" x="248.08" y="-1063.54">R151</text>
<circle data-id="152" cx="7.57" cy="-414.39" r="10.00px"/>
<text data-id="152" x="7.57" y="-414.39">R152</text>
<circle data-id="153" cx="1230.53" cy="-797.86" r="10.00px"/>
<text data-id="153" x="1230.53" y="-797.86">R153</text>
<circle data-id="154" cx="1249.52" cy="-1048.24" r="10.00px"/>
<text data-id="154" x="1249.52" y="-1048.24">R154</text>
<circle data-id="155" cx="1084.49" cy="-281.85" r="10.00px"/>
<text data-id="155" x="1084.49" y="-281.85">R155</text>
<circle data-id="156" cx="1269.13" cy="-41.98" r="10.00px"/>
<text data-id="156" x="1269.13" y="-41.98">R156</text>
<circle data-id="157" cx="1272.98" cy="-1006.06" r="10.00px"/>
<text data-id="157" x="1272.98" y="-1006.06">R157</text>
<circle data-id="158" cx="214.88" cy="-825.64" r="10.00px"/>
<text data-id="158" x="214.88" y="-825.64">R158</text>
<circle data-id="159" cx="434.47" cy="-356.24" r="10.00px"/>
<text data-id="159" x="434.47" y="-356.24">R159</text>
<circle data-id="160" cx="615.66" cy="-1394.57" r="10.00px"/>
<text data-id="160" x="615.66" y="-1394.57">R160</text>
<circle data-id="161" cx="862.74" cy="-1332.61" r="10.00px"/>
<text data-id="161" x="862.74" y="-1332.61">R161</text>
<circle data-id="162" cx="897.46" cy="-206.13" r="10.00px"/>
<text data-id="162" x="897.46" y="-206.13">R162</text>
<circle data-id="163" cx="1435.84" cy="-153.61" r="10.00px"/>
<text data-id="163" x="1435.84" y="-153.61">R163</text>
<circle data-id="164" cx="1111.49" cy="-555.94" r="10.00px"/>
<text data-id="164" x="1111.49" y="-555.94">R164</text>
<circle data-id="165" cx="823.40" cy="-1461.96" r="10.00px"/>
<text data-id="165" x="823.40" y="-1461.96">R165</text>
<circle data-id="166" cx="745.58" cy="-1111.78" r="10.00px"/>
<text data-id="166" x="745.58" y="-1111.78">R166</text>
<circle data-id="167" cx="953.28" cy="-22.93" r="10.00px"/>
<text data-id="167" x="953.28" y="-22.93">R167</text>
<circle data-id="168" cx="1186.02" cy="-1174.61" r="10.00px"/>
<text data-id="168" x="1186.02" y="-1174.61">R168</text>
<circle data-id="169" cx="1366.80" cy="-780.30" r="10.00px"/>
<text data-id="169" x="1366.80" y="-780.30">R169</text>
<circle data-id="170" cx="381.06" cy="-1429.30" r="10.00px"/>
<text data-id="170" x="381.06" y="-1429.30">R170</text>
<circle data-id="171" cx="527.57" cy="-57.54" r="10.00px"/>
<text data-id="171" x="527.57" y="-57.54">R171</text>
<circle data-id="172" cx="707.58" cy="-99.42" r="10.00px"/>
<text data-id="172" x="707.58" y="-99.42">R172</text>
<circle data-id="173" cx="28.98" cy="-675.97" r="10.00px"/>
<text data-id="173" x="28.98" y="-675.97">R173</text>
<circle data-id="174" cx="6.61" cy="-1274.10" r="10.00px"/>
<text data-id="174" x="6.61" y="-1274.10">R174</text>
<circle data-id="175" cx="461.33" cy="-966.59" r="10.00px"/>
<text data-id="175" x="461.33" y="-966.59">R175</text>
<circle data-id="176" cx="1349.00" cy="-523.94" r="10.00px"/>
<text data-id="176" x="1349.00" y="-523.94">R176</text>
<circle data-id="177" cx="684.45" cy="-343.56" r="10.00px"/>
<text data-id="177" x="684.45" y="-343.56">R177</text>
<circle data-id="178" cx="250.78" cy="-249.53" r="10.00px"/>
<text data-id="178" x="250.78" y="-249.53">R178</text>
<circle data-id="179" cx="59.82" cy="-1004.67" r="10.00px"/>
<text data-id="179" x="59.82" y="-1004.67">R179</text>
<circle data-id="180" cx="841.18" cy="-1136.38" r="10.00px"/>
<text data-id="180" x="841.18" y="-1136.38">R180</text>
<circle data-id="181" cx="878.89" cy="-1289.78" r="10.00px"/>
<text data-id="181" x="878.89" y="-1289.78">R181</text>
<circle data-id="182" cx="745.18" cy="-651.16" r="10.00px"/>
<text data-id="182" x="745.18" y="-651.16">R182</text>
<circle data-id="183" cx="852.05" cy="-714.74" r="10.00px"/>
<text data-id="183" x="852.05" y="-714.74">R183</text>
<circle data-id="184" cx="1315.81" cy="-353.64" r="10.00px"/>
<text data-id="184" x="1315.81" y="-353.64">R184</text>
<circle data-id="185" cx="322.18" cy="-595.23" r="10.00px"/>
<text data-id="185" x="322.18" y="-595.23">R185</text>
<circle data-id="186" cx="1282.37" cy="-1030.34" r="10.00px"/>
<text data-id="186" x="1282.37" y="-1030.34">R186</text>
<circle data-id="187" cx="274.06" cy="-400.23" r="10.00px"/>
<text data-id="187" x="274.06" y="-400.23">R187</text>
<circle data-id="188" cx="909.88" cy="-543.72" r="10.00px"/>
<text data-id="188" x="909.88" y="-543.72">R188</text>
<circle data-id="189" cx="1410.46" cy="-1029.69" r="10.00px"/>
<text data-id="189" x="1410.46" y="-1029.69">R189</text>
<circle data-id="190" cx="1138.73" cy="-1378.79" r="10.00px"/>
<text data-id="190" x="1138.73" y="-1378.79">R190</text>
<circle data-id="191" cx="250.46" cy="-979.32" r="10.00px"/>
<text data-id="191" x="250.46" y="-979.32">R191</text>
<circle data-id="192" cx="372.74" cy="-225.81" r="10.00px"/>
<text data-id="192" x="372.74" y="-225.81">R192</text>
<circle data-id="193" cx="274.74" cy="-1217.31" r="10.00px"/>
<text data-id="193" x="274.74" y="-1217.31">R193</text>
<circle data-id="194" cx="23.43" cy="-922.72" r="10.00px"/>
<text data-id="194" x="23.43" y="-922.72">R194</text>
<circle data-id="195" cx="924.31" cy="-378.42" r="10.00px"/>
<text data-id="195" x="924.31" y="-378.42">R195</text>
<circle data-id="196" cx="401.15" cy="-186.86" r="10.00px"/>
<text data-id="196" x="401.15" y="-186.86">R196</text>
<circle data-id="197" cx="13.28" cy="-66.06" r="10.00px"/>
<text data-id="197" x="13.28" y="-66.06">R197</text>
<circle data-id="198" cx="500.87" cy="-256.70" r="10.00px"/>
<text data-id="198" x="500.87" y="-256.70">R198</text>
<circle data-id="199" cx="842.63" cy="-602.18" r="10.00px"/>
<text data-id="199" x="842.63" y="-602.18">R199</text>
<circle data-id="200" cx="960.06" cy="-436.58" r="10.00px"/>
<text data-id="200" x="960.06" y="-436.58">R200</text>
<circle data-id="201" cx="778.42" cy="-314.11" r="10.00px"/>
<text data-id="201" x="778.42" y="-314.11">R201</text>
<circle data-id="202" cx="1332.88" cy="-986.79" r="10.00px"/>
<text data-id="202" x="1332.88" y="-986.79">R202</text>
<circle data-id="203" cx="508.16" cy="-155.03" r="10.00px"/>
<text data-id="203" x="508.16" y="-155.03">R203</text>
<circle data-id="204" cx="272.40" cy="-1151.40" r="10.00px"/>
<text data-id="204" x="272.40" y="-1151.40">R204</text>
<circle data-id="205" cx="673.83" cy="-1246.69" r="10.00px"/>
<text data-id="205" x="673.83" y="-1246.69">R205</text>
<circle data-id="206" cx="1393.16" cy="-359.78" r="10.00px"/>
<text data-id="206" x="1393.16" y="-359.78">R206</text>
<circle data-id="207" cx="392.89" cy="-914.21" r="10.00px"/>
<text data-id="207" x="392.89" y="-914.21">R207</text>
<circle data-id="208" cx="212.76" cy="-513.33" r="10.00px"/>
<text data-id="208" x="212.76" y="-513.33">R208</text>
<circle data-id="209" cx="740.52" cy="-264.20" r="10.00px"/>
<text data-id="209" x="740.52" y="-264.20">R209</text>
<circle data-id="210" cx="114.11" cy="-64.56" r="10.00px"/>
<text data-id="210" x="114.11" y="-64.56">R210</text>
<circle data-id="211" cx="519.70" cy="-392.01" r="10.00px"/>
<text data-id="211" x="519.70" y="-392.01">R211</text>
<circle data-id="212" cx="688.59" cy="-1483.52" r="10.00px"/>
<text data-id="212" x="688.59" y="-1483.52">R212</text>
<circle data-id="213" cx="302.83" cy="-291.67" r="10.00px"/>
<text data-id="213" x="302.83" y="-291.67">R213</text>
<circle data-id="214" cx="594.02" cy="-343.69" r="10.00px"/>
<text data-id="214" x="594.02" y="-343.69">R214</text>
<circle data-id="215" cx="39.39" cy="-393.79" r="10.00px"/>
<text data-id="215" x="39.39" y="-393.79">R215</text>
<circle data-id="216" cx="1477.69" cy="-140.54" r="10.00px"/>
<text data-id="216" x="1477.69" y="-140.54">R216</text>
<circle data-id="217" cx="982.54" cy="-1048.89" r="10.00px"/>
<text data-id="217" x="982.54" y="-1048.89">R217</text>
<circle data-id="218" cx="644.06" cy="-484.18" r="10.00px"/>
<text data-id="218" x="644.06" y="-484.18">R218</text>
<circle data-id="219" cx="380.58" cy="-151.15" r="10.00px"/>
<text data-id="219" x="380.58" y="-151.15">R219</text>
<circle data-id="220" cx="546.53" cy="-1378.34" r="10.00px"/>
<text data-id="220" x="546.53" y="-1378.34">R220</text>
<circle data-id="221" cx="1274.88" cy="-961.06" r="10.00px"/>
<text data-id="221" x="1274.88" y="-961.06">R221</text>
<circle data-id="222" cx="1196.00" cy="-448.23" r="10.00px"/>
<text data-id="222" x="1196.00" y="-448.23">R222</text>
<circle data-id="223" cx="204.99" cy="-1111.19" r="10.00px"/>
<text data-id="223" x="204.99" y="-1111.19">R223</text>
<circle data-id="224" cx="1460.89" cy="-980.76" r="10.00px"/>
<text data-id="224" x="1460.89" y="-980.76">R224</text>
</svg>
