<svg id="topo" viewBox="-70.43 -1571.62 1642.25 1629.47" xmlns="http://www.w3.org/2000/svg">
<style>#topo path {fill: none; stroke: grey; stroke-width: 5.0000px;} #topo circle {fill: lightblue; stroke: none; stroke-width: 0.3px; vector-effect: non-scaling-stroke; r: 10.0000px;} #topo text {fill: black; stroke: none; font-size: 15.0000px; font-family: sans-serif; text-anchor:middle; transform: translateY(0.3em);} #topo path.country {fill: lightgrey; stroke: black; stroke-width: 1px; vector-effect: non-scaling-stroke; visibility: visible;} #topo path.selection {fill: none; stroke: red; stroke-width: 1px; vector-effect: non-scaling-stroke; visibility: visible;} #topo path.utilization {visibility: hidden;}</style>
<path data-id="0-70" d="M31.38,-818.32,57.91,-848.76"/>
<path data-id="0-99" d="M31.38,-818.32,62.03,-723.47"/>
<path data-id="1-112" d="M650.71,-326.18,637.72,-434.32"/>
<path data-id="1-144" d="M650.71,-326.18,559.04,-285.83"/>
<path data-id="1-153" d="M650.71,-326.18,532.65,-405.96"/>
<path data-id="1-158" d="M650.71,-326.18,665.76,-226.65"/>
<path data-id="2-54" d="M181.48,-412.49,224.64,-419.69"/>
<path data-id="2-116" d="M181.48,-412.49,226.60,-307.50"/>
<path data-id="2-206" d="M181.48,-412.49,68.08,-432.96"/>
<path data-id="3-58" d="M711.73,-1497.55,711.86,-1338.95"/>
<path data-id="3-156" d="M711.73,-1497.55,852.84,-1407.36"/>
<path data-id="3-170" d="M711.73,-1497.55,616.37,-1402.25"/>
<path data-id="4-19" d="M1219.48,-313.44,1142.87,-358.66"/>
<path data-id="4-34" d="M1219.48,-313.44,1271.12,-391.89"/>
<path data-id="4-162" d="M1219.48,-313.44,1264.24,-275.87"/>
<path data-id="5-51" d="M1342.63,-998.78,1345.05,-951.20"/>
<path data-id="5-115" d="M1342.63,-998.78,1263.14,-1038.39"/>
<path data-id="5-148" d="M1342.63,-998.78,1420.90,-1130.44"/>
<path data-id="5-186" d="M1342.63,-998.78,1497.18,-984.53"/>
<path data-id="6-78" d="M850.00,-132.90,738.83,-93.37"/>
<path data-id="6-157" d="M850.00,-132.90,772.65,-177.86"/>
<path data-id="6-217" d="M850.00,-132.90,882.27,-108.84"/>
<path data-id="7-17" d="M911.24,-416.26,933.91,-492.24"/>
<path data-id="7-105" d="M911.24,-416.26,852.52,-478.45"/>
<path data-id="7-167" d="M911.24,-416.26,931.24,-250.42"/>
<path data-id="7-213" d="M911.24,-416.26,997.32,-369.56"/>
<path data-id="8-49" d="M537.79,-1107.98,493.86,-1189.92"/>
<path data-id="8-61" d="M537.79,-1107.98,627.06,-1151.27"/>
<path data-id="8-101" d="M537.79,-1107.98,468.43,-1123.44"/>
<path data-id="8-187" d="M537.79,-1107.98,494.36,-1015.45"/>
<path data-id="9-56" d="M640.41,-682.75,702.42,-683.82"/>
<path data-id="9-130" d="M640.41,-682.75,582.89,-715.18"/>
<path data-id="9-181" d="M640.41,-682.75,654.63,-731.67"/>
<path data-id="10-15" d="M284.33,-80.91,142.37,-150.46"/>
<path data-id="10-37" d="M284.33,-80.91,216.11,-197.25"/>
<path data-id="10-66" d="M284.33,-80.91,184.02,-16.22"/>
<path data-id="10-117" d="M284.33,-80.91,317.67,-130.06"/>
<path data-id="10-163" d="M284.33,-80.91,367.40,-44.77"/>
<path data-id="11-14" d="M869.32,-768.99,978.54,-679.40"/>
<path data-id="11-16" d="M869.32,-768.99,863.67,-650.55"/>
<path data-id="11-95" d="M869.32,-768.99,730.31,-789.66"/>
<path data-id="11-161" d="M869.32,-768.99,850.20,-856.90"/>
<path data-id="11-183" d="M869.32,-768.99,914.83,-815.81"/>
<path data-id="12-39" d="M337.52,-766.12,248.10,-761.13"/>
<path data-id="12-81" d="M337.52,-766.12,302.81,-848.14"/>
<path data-id="12-126" d="M337.52,-766.12,387.00,-782.12"/>
<path data-id="13-57" d="M1088.62,-811.70,965.00,-814.50"/>
<path data-id="13-69" d="M1088.62,-811.70,1025.79,-745.76"/>
<path data-id="13-79" d="M1088.62,-811.70,1113.81,-685.19"/>
<path data-id="13-122" d="M1088.62,-811.70,1158.03,-919.65"/>
<path data-id="14-16" d="M978.54,-679.40,863.67,-650.55"/>
<path data-id="14-17" d="M978.54,-679.40,933.91,-492.24"/>
<path data-id="14-69" d="M978.54,-679.40,1025.79,-745.76"/>
<path data-id="14-165" d="M978.54,-679.40,1107.30,-628.16"/>
<path data-id="15-21" d="M142.37,-150.46,54.56,-157.17"/>
<path data-id="15-37" d="M142.37,-150.46,216.11,-197.25"/>
<path data-id="15-66" d="M142.37,-150.46,184.02,-16.22"/>
<path data-id="15-93" d="M142.37,-150.46,160.37,-258.78"/>
<path data-id="15-96" d="M142.37,-150.46,64.44,-16.58"/>
<path data-id="16-114" d="M863.67,-650.55,815.82,-627.23"/>
<path data-id="17-64" d="M933.91,-492.24,1109.05,-526.81"/>
<path data-id="17-105" d="M933.91,-492.24,852.52,-478.45"/>
<path data-id="17-123" d="M933.91,-492.24,1090.39,-576.01"/>
<path data-id="18-28" d="M377.32,-898.87,358.07,-929.31"/>
<path data-id="18-53" d="M377.32,-898.87,348.38,-874.34"/>
<path data-id="18-73" d="M377.32,-898.87,408.78,-941.20"/>
<path data-id="19-119" d="M1142.87,-358.66,1068.18,-355.71"/>
<path data-id="19-140" d="M1142.87,-358.66,1181.77,-481.17"/>
<path data-id="20-42" d="M810.15,-909.90,835.78,-985.42"/>
<path data-id="20-60" d="M810.15,-909.90,876.27,-967.48"/>
<path data-id="20-161" d="M810.15,-909.90,850.20,-856.90"/>
<path data-id="20-179" d="M810.15,-909.90,747.31,-871.36"/>
<path data-id="21-96" d="M54.56,-157.17,64.44,-16.58"/>
<path data-id="21-138" d="M54.56,-157.17,7.61,-138.44"/>
<path data-id="22-41" d="M1170.08,-679.45,1253.09,-700.55"/>
<path data-id="22-75" d="M1170.08,-679.45,1151.93,-604.84"/>
<path data-id="22-79" d="M1170.08,-679.45,1113.81,-685.19"/>
<path data-id="22-88" d="M1170.08,-679.45,1245.82,-639.29"/>
<path data-id="23-106" d="M1076.14,-1032.37,1119.30,-1083.01"/>
<path data-id="23-122" d="M1076.14,-1032.37,1158.03,-919.65"/>
<path data-id="23-136" d="M1076.14,-1032.37,1052.13,-1043.64"/>
<path data-id="24-28" d="M290.41,-993.41,358.07,-929.31"/>
<path data-id="24-120" d="M290.41,-993.41,374.39,-1015.44"/>
<path data-id="24-139" d="M290.41,-993.41,242.20,-995.98"/>
<path data-id="24-166" d="M290.41,-993.41,268.54,-1099.62"/>
<path data-id="25-47" d="M705.59,-1286.26,695.91,-1258.19"/>
<path data-id="25-58" d="M705.59,-1286.26,711.86,-1338.95"/>
<path data-id="25-141" d="M705.59,-1286.26,665.33,-1274.53"/>
<path data-id="25-175" d="M705.59,-1286.26,773.52,-1292.98"/>
<path data-id="26-154" d="M482.45,-115.02,465.60,-19.68"/>
<path data-id="26-163" d="M482.45,-115.02,367.40,-44.77"/>
<path data-id="26-177" d="M482.45,-115.02,426.10,-151.63"/>
<path data-id="26-209" d="M482.45,-115.02,497.95,-227.35"/>
<path data-id="26-222" d="M482.45,-115.02,691.94,-62.12"/>
<path data-id="27-72" d="M469.70,-717.49,568.14,-875.02"/>
<path data-id="27-102" d="M469.70,-717.49,517.71,-603.05"/>
<path data-id="27-130" d="M469.70,-717.49,582.89,-715.18"/>
<path data-id="27-159" d="M469.70,-717.49,430.86,-719.90"/>
<path data-id="28-73" d="M358.07,-929.31,408.78,-941.20"/>
<path data-id="28-120" d="M358.07,-929.31,374.39,-1015.44"/>
<path data-id="29-157" d="M714.88,-209.46,772.65,-177.86"/>
<path data-id="29-158" d="M714.88,-209.46,665.76,-226.65"/>
<path data-id="30-54" d="M277.60,-372.88,224.64,-419.69"/>
<path data-id="30-97" d="M277.60,-372.88,331.17,-379.45"/>
<path data-id="30-116" d="M277.60,-372.88,226.60,-307.50"/>
<path data-id="30-180" d="M277.60,-372.88,320.53,-413.83"/>
<path data-id="31-63" d="M1349.83,-1187.34,1315.68,-1199.46"/>
<path data-id="31-115" d="M1349.83,-1187.34,1263.14,-1038.39"/>
<path data-id="31-148" d="M1349.83,-1187.34,1420.90,-1130.44"/>
<path data-id="31-221" d="M1349.83,-1187.34,1431.91,-1255.22"/>
<path data-id="32-203" d="M4.22,-602.07,79.03,-666.00"/>
<path data-id="32-223" d="M4.22,-602.07,58.86,-496.20"/>
<path data-id="33-82" d="M1207.96,-1170.06,1254.85,-1238.41"/>
<path data-id="33-103" d="M1207.96,-1170.06,1153.09,-1284.37"/>
<path data-id="33-121" d="M1207.96,-1170.06,1106.24,-1230.08"/>
<path data-id="33-142" d="M1207.96,-1170.06,1284.11,-1205.56"/>
<path data-id="33-212" d="M1207.96,-1170.06,1212.60,-1142.63"/>
<path data-id="34-35" d="M1271.12,-391.89,1252.66,-517.57"/>
<path data-id="34-76" d="M1271.12,-391.89,1334.58,-478.73"/>
<path data-id="34-140" d="M1271.12,-391.89,1181.77,-481.17"/>
<path data-id="34-172" d="M1271.12,-391.89,1335.73,-370.86"/>
<path data-id="35-76" d="M1252.66,-517.57,1334.58,-478.73"/>
<path data-id="35-124" d="M1252.66,-517.57,1232.03,-589.23"/>
<path data-id="35-140" d="M1252.66,-517.57,1181.77,-481.17"/>
<path data-id="35-164" d="M1252.66,-517.57,1361.91,-539.10"/>
<path data-id="35-185" d="M1252.66,-517.57,1170.43,-536.04"/>
<path data-id="36-129" d="M416.56,-1333.11,322.23,-1357.74"/>
<path data-id="36-132" d="M416.56,-1333.11,523.29,-1298.45"/>
<path data-id="36-149" d="M416.56,-1333.11,552.67,-1417.80"/>
<path data-id="36-193" d="M416.56,-1333.11,412.97,-1430.45"/>
<path data-id="36-204" d="M416.56,-1333.11,420.68,-1232.43"/>
<path data-id="37-93" d="M216.11,-197.25,160.37,-258.78"/>
<path data-id="37-117" d="M216.11,-197.25,317.67,-130.06"/>
<path data-id="37-173" d="M216.11,-197.25,269.01,-235.60"/>
<path data-id="38-42" d="M716.64,-1112.67,835.78,-985.42"/>
<path data-id="38-85" d="M716.64,-1112.67,777.76,-1137.91"/>
<path data-id="38-92" d="M716.64,-1112.67,684.00,-1151.06"/>
<path data-id="38-218" d="M716.64,-1112.67,680.88,-1059.29"/>
<path data-id="39-55" d="M248.10,-761.13,342.67,-580.63"/>
<path data-id="39-70" d="M248.10,-761.13,57.91,-848.76"/>
<path data-id="39-81" d="M248.10,-761.13,302.81,-848.14"/>
<path data-id="39-99" d="M248.10,-761.13,62.03,-723.47"/>
<path data-id="39-146" d="M248.10,-761.13,71.68,-871.72"/>
<path data-id="39-203" d="M248.10,-761.13,79.03,-666.00"/>
<path data-id="40-171" d="M1442.40,-783.96,1394.41,-726.22"/>
<path data-id="40-178" d="M1442.40,-783.96,1379.64,-832.95"/>
<path data-id="41-88" d="M1253.09,-700.55,1245.82,-639.29"/>
<path data-id="41-145" d="M1253.09,-700.55,1325.39,-799.35"/>
<path data-id="41-190" d="M1253.09,-700.55,1324.37,-689.48"/>
<path data-id="42-60" d="M835.78,-985.42,876.27,-967.48"/>
<path data-id="42-83" d="M835.78,-985.42,877.74,-1123.04"/>
<path data-id="42-85" d="M835.78,-985.42,777.76,-1137.91"/>
<path data-id="42-218" d="M835.78,-985.42,680.88,-1059.29"/>
<path data-id="43-88" d="M1336.25,-638.87,1245.82,-639.29"/>
<path data-id="43-164" d="M1336.25,-638.87,1361.91,-539.10"/>
<path data-id="43-190" d="M1336.25,-638.87,1324.37,-689.48"/>
<path data-id="44-78" d="M765.29,-29.85,738.83,-93.37"/>
<path data-id="44-80" d="M765.29,-29.85,848.35,-42.95"/>
<path data-id="44-222" d="M765.29,-29.85,691.94,-62.12"/>
<path data-id="45-46" d="M1412.21,-379.11,1406.30,-312.02"/>
<path data-id="45-151" d="M1412.21,-379.11,1424.43,-426.67"/>
<path data-id="45-172" d="M1412.21,-379.11,1335.73,-370.86"/>
<path data-id="46-118" d="M1406.30,-312.02,1411.86,-276.21"/>
<path data-id="46-172" d="M1406.30,-312.02,1335.73,-370.86"/>
<path data-id="47-48" d="M695.91,-1258.19,764.60,-1216.65"/>
<path data-id="47-141" d="M695.91,-1258.19,665.33,-1274.53"/>
<path data-id="47-207" d="M695.91,-1258.19,711.74,-1186.16"/>
<path data-id="48-85" d="M764.60,-1216.65,777.76,-1137.91"/>
<path data-id="48-175" d="M764.60,-1216.65,773.52,-1292.98"/>
<path data-id="48-207" d="M764.60,-1216.65,711.74,-1186.16"/>
<path data-id="49-101" d="M493.86,-1189.92,468.43,-1123.44"/>
<path data-id="49-125" d="M493.86,-1189.92,409.45,-1206.96"/>
<path data-id="49-132" d="M493.86,-1189.92,523.29,-1298.45"/>
<path data-id="49-204" d="M493.86,-1189.92,420.68,-1232.43"/>
<path data-id="50-51" d="M1340.59,-842.97,1345.05,-951.20"/>
<path data-id="50-122" d="M1340.59,-842.97,1158.03,-919.65"/>
<path data-id="50-145" d="M1340.59,-842.97,1325.39,-799.35"/>
<path data-id="50-178" d="M1340.59,-842.97,1379.64,-832.95"/>
<path data-id="51-186" d="M1345.05,-951.20,1497.18,-984.53"/>
<path data-id="52-90" d="M84.19,-1316.97,37.78,-1254.54"/>
<path data-id="52-110" d="M84.19,-1316.97,93.09,-1226.37"/>
<path data-id="52-129" d="M84.19,-1316.97,322.23,-1357.74"/>
<path data-id="52-168" d="M84.19,-1316.97,42.73,-1362.24"/>
<path data-id="52-176" d="M84.19,-1316.97,245.31,-1455.91"/>
<path data-id="53-81" d="M348.38,-874.34,302.81,-848.14"/>
<path data-id="53-126" d="M348.38,-874.34,387.00,-782.12"/>
<path data-id="55-152" d="M342.67,-580.63,386.49,-570.01"/>
<path data-id="55-180" d="M342.67,-580.63,320.53,-413.83"/>
<path data-id="55-203" d="M342.67,-580.63,79.03,-666.00"/>
<path data-id="56-95" d="M702.42,-683.82,730.31,-789.66"/>
<path data-id="56-114" d="M702.42,-683.82,815.82,-627.23"/>
<path data-id="56-181" d="M702.42,-683.82,654.63,-731.67"/>
<path data-id="56-199" d="M702.42,-683.82,784.57,-591.34"/>
<path data-id="57-69" d="M965.00,-814.50,1025.79,-745.76"/>
<path data-id="57-183" d="M965.00,-814.50,914.83,-815.81"/>
<path data-id="57-200" d="M965.00,-814.50,935.34,-858.80"/>
<path data-id="58-156" d="M711.86,-1338.95,852.84,-1407.36"/>
<path data-id="58-170" d="M711.86,-1338.95,616.37,-1402.25"/>
<path data-id="58-175" d="M711.86,-1338.95,773.52,-1292.98"/>
<path data-id="59-128" d="M1371.34,-1467.27,1345.78,-1479.87"/>
<path data-id="59-131" d="M1371.34,-1467.27,1328.49,-1289.75"/>
<path data-id="60-150" d="M876.27,-967.48,914.63,-935.83"/>
<path data-id="61-92" d="M627.06,-1151.27,684.00,-1151.06"/>
<path data-id="61-141" d="M627.06,-1151.27,665.33,-1274.53"/>
<path data-id="61-218" d="M627.06,-1151.27,680.88,-1059.29"/>
<path data-id="62-108" d="M46.50,-1481.86,7.91,-1451.41"/>
<path data-id="62-176" d="M46.50,-1481.86,245.31,-1455.91"/>
<path data-id="63-131" d="M1315.68,-1199.46,1328.49,-1289.75"/>
<path data-id="63-142" d="M1315.68,-1199.46,1284.11,-1205.56"/>
<path data-id="64-119" d="M1109.05,-526.81,1068.18,-355.71"/>
<path data-id="64-189" d="M1109.05,-526.81,1114.78,-560.94"/>
<path data-id="64-195" d="M1109.05,-526.81,1148.24,-518.90"/>
<path data-id="65-103" d="M1047.20,-1384.72,1153.09,-1284.37"/>
<path data-id="65-111" d="M1047.20,-1384.72,1104.98,-1465.09"/>
<path data-id="65-201" d="M1047.20,-1384.72,973.27,-1333.67"/>
<path data-id="66-96" d="M184.02,-16.22,64.44,-16.58"/>
<path data-id="67-111" d="M1247.79,-1459.47,1104.98,-1465.09"/>
<path data-id="67-127" d="M1247.79,-1459.47,1200.88,-1324.10"/>
<path data-id="67-128" d="M1247.79,-1459.47,1345.78,-1479.87"/>
<path data-id="67-131" d="M1247.79,-1459.47,1328.49,-1289.75"/>
<path data-id="68-94" d="M1496.91,-87.21,1361.46,-143.75"/>
<path data-id="69-79" d="M1025.79,-745.76,1113.81,-685.19"/>
<path data-id="70-146" d="M57.91,-848.76,71.68,-871.72"/>
<path data-id="71-86" d="M1248.29,-165.38,1287.51,-112.55"/>
<path data-id="71-162" d="M1248.29,-165.38,1264.24,-275.87"/>
<path data-id="71-205" d="M1248.29,-165.38,1372.22,-242.02"/>
<path data-id="71-215" d="M1248.29,-165.38,1176.71,-141.53"/>
<path data-id="72-126" d="M568.14,-875.02,387.00,-782.12"/>
<path data-id="72-133" d="M568.14,-875.02,495.86,-930.36"/>
<path data-id="72-155" d="M568.14,-875.02,601.84,-840.91"/>
<path data-id="73-120" d="M408.78,-941.20,374.39,-1015.44"/>
<path data-id="73-133" d="M408.78,-941.20,495.86,-930.36"/>
<path data-id="73-187" d="M408.78,-941.20,494.36,-1015.45"/>
<path data-id="74-89" d="M1004.52,-241.45,1002.52,-202.52"/>
<path data-id="74-167" d="M1004.52,-241.45,931.24,-250.42"/>
<path data-id="74-198" d="M1004.52,-241.45,1035.37,-240.31"/>
<path data-id="74-213" d="M1004.52,-241.45,997.32,-369.56"/>
<path data-id="75-124" d="M1151.93,-604.84,1232.03,-589.23"/>
<path data-id="75-165" d="M1151.93,-604.84,1107.30,-628.16"/>
<path data-id="75-185" d="M1151.93,-604.84,1170.43,-536.04"/>
<path data-id="75-189" d="M1151.93,-604.84,1114.78,-560.94"/>
<path data-id="76-87" d="M1334.58,-478.73,1367.44,-453.51"/>
<path data-id="76-164" d="M1334.58,-478.73,1361.91,-539.10"/>
<path data-id="77-153" d="M425.33,-446.92,532.65,-405.96"/>
<path data-id="77-180" d="M425.33,-446.92,320.53,-413.83"/>
<path data-id="77-184" d="M425.33,-446.92,509.76,-356.32"/>
<path data-id="77-220" d="M425.33,-446.92,468.33,-504.40"/>
<path data-id="78-157" d="M738.83,-93.37,772.65,-177.86"/>
<path data-id="78-222" d="M738.83,-93.37,691.94,-62.12"/>
<path data-id="79-165" d="M1113.81,-685.19,1107.30,-628.16"/>
<path data-id="80-217" d="M848.35,-42.95,882.27,-108.84"/>
<path data-id="81-188" d="M302.81,-848.14,224.47,-975.51"/>
<path data-id="82-103" d="M1254.85,-1238.41,1153.09,-1284.37"/>
<path data-id="82-127" d="M1254.85,-1238.41,1200.88,-1324.10"/>
<path data-id="82-131" d="M1254.85,-1238.41,1328.49,-1289.75"/>
<path data-id="82-142" d="M1254.85,-1238.41,1284.11,-1205.56"/>
<path data-id="83-85" d="M877.74,-1123.04,777.76,-1137.91"/>
<path data-id="83-109" d="M877.74,-1123.04,869.82,-1291.78"/>
<path data-id="83-160" d="M877.74,-1123.04,992.42,-1132.92"/>
<path data-id="84-137" d="M743.61,-527.06,809.40,-480.27"/>
<path data-id="84-169" d="M743.61,-527.06,825.02,-562.28"/>
<path data-id="84-197" d="M743.61,-527.06,670.62,-477.27"/>
<path data-id="84-199" d="M743.61,-527.06,784.57,-591.34"/>
<path data-id="85-207" d="M777.76,-1137.91,711.74,-1186.16"/>
<path data-id="86-94" d="M1287.51,-112.55,1361.46,-143.75"/>
<path data-id="86-194" d="M1287.51,-112.55,1226.42,-17.18"/>
<path data-id="87-151" d="M1367.44,-453.51,1424.43,-426.67"/>
<path data-id="87-172" d="M1367.44,-453.51,1335.73,-370.86"/>
<path data-id="88-124" d="M1245.82,-639.29,1232.03,-589.23"/>
<path data-id="88-190" d="M1245.82,-639.29,1324.37,-689.48"/>
<path data-id="89-147" d="M1002.52,-202.52,968.83,-97.68"/>
<path data-id="89-192" d="M1002.52,-202.52,909.45,-139.37"/>
<path data-id="89-196" d="M1002.52,-202.52,1041.82,-196.50"/>
<path data-id="90-110" d="M37.78,-1254.54,93.09,-1226.37"/>
<path data-id="90-135" d="M37.78,-1254.54,11.50,-1334.37"/>
<path data-id="91-146" d="M40.08,-910.06,71.68,-871.72"/>
<path data-id="91-214" d="M40.08,-910.06,177.06,-1027.95"/>
<path data-id="91-224" d="M40.08,-910.06,68.91,-1089.11"/>
<path data-id="92-207" d="M684.00,-1151.06,711.74,-1186.16"/>
<path data-id="93-116" d="M160.37,-258.78,226.60,-307.50"/>
<path data-id="94-205" d="M1361.46,-143.75,1372.22,-242.02"/>
<path data-id="95-179" d="M730.31,-789.66,747.31,-871.36"/>
<path data-id="95-181" d="M730.31,-789.66,654.63,-731.67"/>
<path data-id="95-202" d="M730.31,-789.66,681.49,-860.23"/>
<path data-id="96-138" d="M64.44,-16.58,7.61,-138.44"/>
<path data-id="97-180" d="M331.17,-379.45,320.53,-413.83"/>
<path data-id="97-219" d="M331.17,-379.45,393.08,-235.52"/>
<path data-id="98-106" d="M1250.42,-1014.60,1119.30,-1083.01"/>
<path data-id="98-115" d="M1250.42,-1014.60,1263.14,-1038.39"/>
<path data-id="98-122" d="M1250.42,-1014.60,1158.03,-919.65"/>
<path data-id="99-203" d="M62.03,-723.47,79.03,-666.00"/>
<path data-id="100-174" d="M1174.26,-20.74,1118.35,-117.45"/>
<path data-id="100-194" d="M1174.26,-20.74,1226.42,-17.18"/>
<path data-id="100-215" d="M1174.26,-20.74,1176.71,-141.53"/>
<path data-id="101-125" d="M468.43,-1123.44,409.45,-1206.96"/>
<path data-id="101-187" d="M468.43,-1123.44,494.36,-1015.45"/>
<path data-id="101-210" d="M468.43,-1123.44,363.24,-1094.85"/>
<path data-id="102-130" d="M517.71,-603.05,582.89,-715.18"/>
<path data-id="102-134" d="M517.71,-603.05,410.99,-616.11"/>
<path data-id="102-197" d="M517.71,-603.05,670.62,-477.27"/>
<path data-id="102-220" d="M517.71,-603.05,468.33,-504.40"/>
<path data-id="103-121" d="M1153.09,-1284.37,1106.24,-1230.08"/>
<path data-id="103-127" d="M1153.09,-1284.37,1200.88,-1324.10"/>
<path data-id="104-206" d="M29.97,-418.56,68.08,-432.96"/>
<path data-id="105-137" d="M852.52,-478.45,809.40,-480.27"/>
<path data-id="105-169" d="M852.52,-478.45,825.02,-562.28"/>
<path data-id="106-121" d="M1119.30,-1083.01,1106.24,-1230.08"/>
<path data-id="106-212" d="M1119.30,-1083.01,1212.60,-1142.63"/>
<path data-id="107-144" d="M510.00,-326.86,559.04,-285.83"/>
<path data-id="107-184" d="M510.00,-326.86,509.76,-356.32"/>
<path data-id="107-209" d="M510.00,-326.86,497.95,-227.35"/>
<path data-id="108-168" d="M7.91,-1451.41,42.73,-1362.24"/>
<path data-id="109-143" d="M869.82,-1291.78,931.83,-1368.41"/>
<path data-id="109-156" d="M869.82,-1291.78,852.84,-1407.36"/>
<path data-id="109-160" d="M869.82,-1291.78,992.42,-1132.92"/>
<path data-id="109-175" d="M869.82,-1291.78,773.52,-1292.98"/>
<path data-id="109-201" d="M869.82,-1291.78,973.27,-1333.67"/>
<path data-id="110-211" d="M93.09,-1226.37,162.90,-1218.04"/>
<path data-id="110-224" d="M93.09,-1226.37,68.91,-1089.11"/>
<path data-id="111-127" d="M1104.98,-1465.09,1200.88,-1324.10"/>
<path data-id="112-153" d="M637.72,-434.32,532.65,-405.96"/>
<path data-id="112-197" d="M637.72,-434.32,670.62,-477.27"/>
<path data-id="113-166" d="M290.33,-1115.12,268.54,-1099.62"/>
<path data-id="113-191" d="M290.33,-1115.12,343.94,-1164.49"/>
<path data-id="113-210" d="M290.33,-1115.12,363.24,-1094.85"/>
<path data-id="114-169" d="M815.82,-627.23,825.02,-562.28"/>
<path data-id="114-199" d="M815.82,-627.23,784.57,-591.34"/>
<path data-id="115-212" d="M1263.14,-1038.39,1212.60,-1142.63"/>
<path data-id="116-173" d="M226.60,-307.50,269.01,-235.60"/>
<path data-id="117-163" d="M317.67,-130.06,367.40,-44.77"/>
<path data-id="117-173" d="M317.67,-130.06,269.01,-235.60"/>
<path data-id="117-177" d="M317.67,-130.06,426.10,-151.63"/>
<path data-id="117-219" d="M317.67,-130.06,393.08,-235.52"/>
<path data-id="118-205" d="M1411.86,-276.21,1372.22,-242.02"/>
<path data-id="119-198" d="M1068.18,-355.71,1035.37,-240.31"/>
<path data-id="119-213" d="M1068.18,-355.71,997.32,-369.56"/>
<path data-id="120-187" d="M374.39,-1015.44,494.36,-1015.45"/>
<path data-id="120-210" d="M374.39,-1015.44,363.24,-1094.85"/>
<path data-id="121-160" d="M1106.24,-1230.08,992.42,-1132.92"/>
<path data-id="121-201" d="M1106.24,-1230.08,973.27,-1333.67"/>
<path data-id="122-208" d="M1158.03,-919.65,961.99,-904.63"/>
<path data-id="123-165" d="M1090.39,-576.01,1107.30,-628.16"/>
<path data-id="123-189" d="M1090.39,-576.01,1114.78,-560.94"/>
<path data-id="124-185" d="M1232.03,-589.23,1170.43,-536.04"/>
<path data-id="125-191" d="M409.45,-1206.96,343.94,-1164.49"/>
<path data-id="125-204" d="M409.45,-1206.96,420.68,-1232.43"/>
<path data-id="126-159" d="M387.00,-782.12,430.86,-719.90"/>
<path data-id="127-131" d="M1200.88,-1324.10,1328.49,-1289.75"/>
<path data-id="129-182" d="M322.23,-1357.74,283.52,-1441.30"/>
<path data-id="129-193" d="M322.23,-1357.74,412.97,-1430.45"/>
<path data-id="129-211" d="M322.23,-1357.74,162.90,-1218.04"/>
<path data-id="130-155" d="M582.89,-715.18,601.84,-840.91"/>
<path data-id="130-181" d="M582.89,-715.18,654.63,-731.67"/>
<path data-id="131-142" d="M1328.49,-1289.75,1284.11,-1205.56"/>
<path data-id="131-221" d="M1328.49,-1289.75,1431.91,-1255.22"/>
<path data-id="132-141" d="M523.29,-1298.45,665.33,-1274.53"/>
<path data-id="132-149" d="M523.29,-1298.45,552.67,-1417.80"/>
<path data-id="132-204" d="M523.29,-1298.45,420.68,-1232.43"/>
<path data-id="133-187" d="M495.86,-930.36,494.36,-1015.45"/>
<path data-id="134-152" d="M410.99,-616.11,386.49,-570.01"/>
<path data-id="134-159" d="M410.99,-616.11,430.86,-719.90"/>
<path data-id="135-168" d="M11.50,-1334.37,42.73,-1362.24"/>
<path data-id="136-150" d="M1052.13,-1043.64,914.63,-935.83"/>
<path data-id="136-160" d="M1052.13,-1043.64,992.42,-1132.92"/>
<path data-id="136-208" d="M1052.13,-1043.64,961.99,-904.63"/>
<path data-id="137-169" d="M809.40,-480.27,825.02,-562.28"/>
<path data-id="139-166" d="M242.20,-995.98,268.54,-1099.62"/>
<path data-id="139-188" d="M242.20,-995.98,224.47,-975.51"/>
<path data-id="139-214" d="M242.20,-995.98,177.06,-1027.95"/>
<path data-id="140-185" d="M1181.77,-481.17,1170.43,-536.04"/>
<path data-id="140-195" d="M1181.77,-481.17,1148.24,-518.90"/>
<path data-id="141-170" d="M665.33,-1274.53,616.37,-1402.25"/>
<path data-id="143-156" d="M931.83,-1368.41,852.84,-1407.36"/>
<path data-id="143-201" d="M931.83,-1368.41,973.27,-1333.67"/>
<path data-id="144-158" d="M559.04,-285.83,665.76,-226.65"/>
<path data-id="144-209" d="M559.04,-285.83,497.95,-227.35"/>
<path data-id="145-171" d="M1325.39,-799.35,1394.41,-726.22"/>
<path data-id="145-190" d="M1325.39,-799.35,1324.37,-689.48"/>
<path data-id="146-188" d="M71.68,-871.72,224.47,-975.51"/>
<path data-id="147-174" d="M968.83,-97.68,1118.35,-117.45"/>
<path data-id="147-192" d="M968.83,-97.68,909.45,-139.37"/>
<path data-id="148-186" d="M1420.90,-1130.44,1497.18,-984.53"/>
<path data-id="148-221" d="M1420.90,-1130.44,1431.91,-1255.22"/>
<path data-id="149-170" d="M552.67,-1417.80,616.37,-1402.25"/>
<path data-id="149-193" d="M552.67,-1417.80,412.97,-1430.45"/>
<path data-id="150-161" d="M914.63,-935.83,850.20,-856.90"/>
<path data-id="150-208" d="M914.63,-935.83,961.99,-904.63"/>
<path data-id="152-220" d="M386.49,-570.01,468.33,-504.40"/>
<path data-id="153-184" d="M532.65,-405.96,509.76,-356.32"/>
<path data-id="153-220" d="M532.65,-405.96,468.33,-504.40"/>
<path data-id="154-163" d="M465.60,-19.68,367.40,-44.77"/>
<path data-id="154-222" d="M465.60,-19.68,691.94,-62.12"/>
<path data-id="155-181" d="M601.84,-840.91,654.63,-731.67"/>
<path data-id="155-202" d="M601.84,-840.91,681.49,-860.23"/>
<path data-id="156-175" d="M852.84,-1407.36,773.52,-1292.98"/>
<path data-id="160-201" d="M992.42,-1132.92,973.27,-1333.67"/>
<path data-id="161-183" d="M850.20,-856.90,914.83,-815.81"/>
<path data-id="161-200" d="M850.20,-856.90,935.34,-858.80"/>
<path data-id="162-172" d="M1264.24,-275.87,1335.73,-370.86"/>
<path data-id="162-205" d="M1264.24,-275.87,1372.22,-242.02"/>
<path data-id="163-177" d="M367.40,-44.77,426.10,-151.63"/>
<path data-id="166-211" d="M268.54,-1099.62,162.90,-1218.04"/>
<path data-id="166-214" d="M268.54,-1099.62,177.06,-1027.95"/>
<path data-id="167-192" d="M931.24,-250.42,909.45,-139.37"/>
<path data-id="167-213" d="M931.24,-250.42,997.32,-369.56"/>
<path data-id="169-199" d="M825.02,-562.28,784.57,-591.34"/>
<path data-id="171-178" d="M1394.41,-726.22,1379.64,-832.95"/>
<path data-id="171-190" d="M1394.41,-726.22,1324.37,-689.48"/>
<path data-id="173-219" d="M269.01,-235.60,393.08,-235.52"/>
<path data-id="174-196" d="M1118.35,-117.45,1041.82,-196.50"/>
<path data-id="174-215" d="M1118.35,-117.45,1176.71,-141.53"/>
<path data-id="176-182" d="M245.31,-1455.91,283.52,-1441.30"/>
<path data-id="177-209" d="M426.10,-151.63,497.95,-227.35"/>
<path data-id="177-219" d="M426.10,-151.63,393.08,-235.52"/>
<path data-id="178-186" d="M1379.64,-832.95,1497.18,-984.53"/>
<path data-id="179-202" d="M747.31,-871.36,681.49,-860.23"/>
<path data-id="179-216" d="M747.31,-871.36,704.82,-915.13"/>
<path data-id="182-193" d="M283.52,-1441.30,412.97,-1430.45"/>
<path data-id="183-200" d="M914.83,-815.81,935.34,-858.80"/>
<path data-id="185-195" d="M1170.43,-536.04,1148.24,-518.90"/>
<path data-id="188-214" d="M224.47,-975.51,177.06,-1027.95"/>
<path data-id="191-210" d="M343.94,-1164.49,363.24,-1094.85"/>
<path data-id="192-217" d="M909.45,-139.37,882.27,-108.84"/>
<path data-id="196-198" d="M1041.82,-196.50,1035.37,-240.31"/>
<path data-id="200-208" d="M935.34,-858.80,961.99,-904.63"/>
<path data-id="202-216" d="M681.49,-860.23,704.82,-915.13"/>
<path data-id="206-223" d="M68.08,-432.96,58.86,-496.20"/>
<path data-id="209-219" d="M497.95,-227.35,393.08,-235.52"/>
<path data-id="211-214" d="M162.90,-1218.04,177.06,-1027.95"/>
<path data-id="214-224" d="M177.06,-1027.95,68.91,-1089.11"/>
<path data-id="216-218" d="M704.82,-915.13,680.88,-1059.29"/>
<circle data-id="0" cx="31.38" cy="-818.32" r="10.00px"/>
<text data-id="0" x="31.38" y="-818.32">R0</text>
<circle data-id="1" cx="650.71" cy="-326.18" r="10.00px"/>
<text data-id="1" x="650.71" y="-326.18">R1</text>
<circle data-id="2" cx="181.48" cy="-412.49" r="10.00px"/>
<text data-id="2" x="181.48" y="-412.49">R2</text>
<circle data-id="3" cx="711.73" cy="-1497.55" r="10.00px"/>
<text data-id="3" x="711.73" y="-1497.55">R3</text>
<circle data-id="4" cx="1219.48" cy="-313.44" r="10.00px"/>
<text data-id="4" x="1219.48" y="-313.44">R4</text>
<circle data-id="5" cx="1342.63" cy="-998.78" r="10.00px"/>
<text data-id="5" x="1342.63" y="-998.78">R5</text>
<circle data-id="6" cx="850.00" cy="-132.90" r="10.00px"/>
<text data-id="6" x="850.00" y="-132.90">R6</text>
<circle data-id="7" cx="911.24" cy="-416.26" r="10.00px"/>
<text data-id="7" x="911.24" y="-416.26">R7</text>
<circle data-id="8" cx="537.79" cy="-1107.98" r="10.00px"/>
<text data-id="8" x="537.79" y="-1107.98">R8</text>
<circle data-id="9" cx="640.41" cy="-682.75" r="10.00px"/>
<text data-id="9" x="640.41" y="-682.75">R9</text>
<circle data-id="10" cx="284.33" cy="-80.91" r="10.00px"/>
<text data-id="10" x="284.33" y="-80.91">R10</text>
<circle data-id="11" cx="869.32" cy="-768.99" r="10.00px"/>
<text data-id="11" x="869.32" y="-768.99">R11</text>
<circle data-id="12" cx="337.52" cy="-766.12" r="10.00px"/>
<text data-id="12" x="337.52" y="-766.12">R12</text>
<circle data-id="13" cx="1088.62" cy="-811.70" r="10.00px"/>
<text data-id="13" x="1088.62" y="-811.70">R13</text>
<circle data-id="14" cx="978.54" cy="-679.40" r="10.00px"/>
<text data-id="14" x="978.54" y="-679.40">R14</text>
<circle data-id="15" cx="142.37" cy="-150.46" r="10.00px"/>
<text data-id="15" x="142.37" y="-150.46">R15</text>
<circle data-id="16" cx="863.67" cy="-650.55" r="10.00px"/>
<text data-id="16" x="863.67" y="-650.55">R16</text>
<circle data-id="17" cx="933.91" cy="-492.24" r="10.00px"/>
<text data-id="17" x="933.91" y="-492.24">R17</text>
<circle data-id="18" cx="377.32" cy="-898.87" r="10.00px"/>
<text data-id="18" x="377.32" y="-898.87">R18</text>
<circle data-id="19" cx="1142.87" cy="-358.66" r="10.00px"/>
<text data-id="19" x="1142.87" y="-358.66">R19</text>
<circle data-id="20" cx="810.15" cy="-909.90" r="10.00px"/>
<text data-id="20" x="810.15" y="-909.90">R20</text>
<circle data-id="21" cx="54.56" cy="-157.17" r="10.00px"/>
<text data-id="21" x="54.56" y="-157.17">R21</text>
<circle data-id="22" cx="1170.08" cy="-679.45" r="10.00px"/>
<text data-id="22" x="1170.08" y="-679.45">R22</text>
<circle data-id="23" cx="1076.14" cy="-1032.37" r="10.00px"/>
<text data-id="23" x="1076.14" y="-1032.37">R23</text>
<circle data-id="24" cx="290.41" cy="-993.41" r="10.00px"/>
<text data-id="24" x="290.41" y="-993.41">R24</text>
<circle data-id="25" cx="705.59" cy="-1286.26" r="10.00px"/>
<text data-id="25" x="705.59" y="-1286.26">R25</text>
<circle data-id="26" cx="482.45" cy="-115.02" r="10.00px"/>
<text data-id="26" x="482.45" y="-115.02">R26</text>
<circle data-id="27" cx="469.70" cy="-717.49" r="10.00px"/>
<text data-id="27" x="469.70" y="-717.49">R27</text>
<circle data-id="28" cx="358.07" cy="-929.31" r="10.00px"/>
<text data-id="28" x="358.07" y="-929.31">R28</text>
<circle data-id="29" cx="714.88" cy="-209.46" r="10.00px"/>
<text data-id="29" x="714.88" y="-209.46">R29</text>
<circle data-id="30" cx="277.60" cy="-372.88" r="10.00px"/>
<text data-id="30" x="277.60" y="-372.88">R30</text>
<circle data-id="31" cx="1349.83" cy="-1187.34" r="10.00px"/>
<text data-id="31" x="1349.83" y="-1187.34">R31</text>
<circle data-id="32" cx="4.22" cy="-602.07" r="10.00px"/>
<text data-id="32" x="4.22" y="-602.07">R32</text>
<circle data-id="33" cx="1207.96" cy="-1170.06" r="10.00px"/>
<text data-id="33" x="1207.96" y="-1170.06">R33</text>
<circle data-id="34" cx="1271.12" cy="-391.89" r="10.00px"/>
<text data-id="34" x="1271.12" y="-391.89">R34</text>
<circle data-id="35" cx="1252.66" cy="-517.57" r="10.00px"/>
<text data-id="35" x="1252.66" y="-517.57">R35</text>
<circle data-id="36" cx="416.56" cy="-1333.11" r="10.00px"/>
<text data-id="36" x="416.56" y="-1333.11">R36</text>
<circle data-id="37" cx="216.11" cy="-197.25" r="10.00px"/>
<text data-id="37" x="216.11" y="-197.25">R37</text>
<circle data-id="38" cx="716.64" cy="-1112.67" r="10.00px"/>
<text data-id="38" x="716.64" y="-1112.67">R38</text>
<circle data-id="39" cx="248.10" cy="-761.13" r="10.00px"/>
<text data-id="39" x="248.10" y="-761.13">R39</text>
<circle data-id="40" cx="1442.40" cy="-783.96" r="10.00px"/>
<text data-id="40" x="1442.40" y="-783.96">R40</text>
<circle data-id="41" cx="1253.09" cy="-700.55" r="10.00px"/>
<text data-id="41" x="1253.09" y="-700.55">R41</text>
<circle data-id="42" cx="835.78" cy="-985.42" r="10.00px"/>
<text data-id="42" x="835.78" y="-985.42">R42</text>
<circle data-id="43" cx="1336.25" cy="-638.87" r="10.00px"/>
<text data-id="43" x="1336.25" y="-638.87">R43</text>
<circle data-id="44" cx="765.29" cy="-29.85" r="10.00px"/>
<text data-id="44" x="765.29" y="-29.85">R44</text>
<circle data-id="45" cx="1412.21" cy="-379.11" r="10.00px"/>
<text data-id="45" x="1412.21" y="-379.11">R45</text>
<circle data-id="46" cx="1406.30" cy="-312.02" r="10.00px"/>
<text data-id="46" x="1406.30" y="-312.02">R46</text>
<circle data-id="47" cx="695.91" cy="-1258.19" r="10.00px"/>
<text data-id="47" x="695.91" y="-1258.19">R47</text>
<circle data-id="48" cx="764.60" cy="-1216.65" r="10.00px"/>
<text data-id="48" x="764.60" y="-1216.65">R48</text>
<circle data-id="49" cx="493.86" cy="-1189.92" r="10.00px"/>
<text data-id="49" x="493.86" y="-1189.92">R49</text>
<circle data-id="50" cx="1340.59" cy="-842.97" r="10.00px"/>
<text data-id="50" x="1340.59" y="-842.97">R50</text>
<circle data-id="51" cx="1345.05" cy="-951.20" r="10.00px"/>
<text data-id="51" x="1345.05" y="-951.20">R51</text>
<circle data-id="52" cx="84.19" cy="-1316.97" r="10.00px"/>
<text data-id="52" x="84.19" y="-1316.97">R52</text>
<circle data-id="53" cx="348.38" cy="-874.34" r="10.00px"/>
<text data-id="53" x="348.38" y="-874.34">R53</text>
<circle data-id="54" cx="224.64" cy="-419.69" r="10.00px"/>
<text data-id="54" x="224.64" y="-419.69">R54</text>
<circle data-id="55" cx="342.67" cy="-580.63" r="10.00px"/>
<text data-id="55" x="342.67" y="-580.63">R55</text>
<circle data-id="56" cx="702.42" cy="-683.82" r="10.00px"/>
<text data-id="56" x="702.42" y="-683.82">R56</text>
<circle data-id="57" cx="965.00" cy="-814.50" r="10.00px"/>
<text data-id="57" x="965.00" y="-814.50">R57</text>
<circle data-id="58" cx="711.86" cy="-1338.95" r="10.00px"/>
<text data-id="58" x="711.86" y="-1338.95">R58</text>
<circle data-id="59" cx="1371.34" cy="-1467.27" r="10.00px"/>
<text data-id="59" x="1371.34" y="-1467.27">R59</text>
<circle data-id="60" cx="876.27" cy="-967.48" r="10.00px"/>
<text data-id="60" x="876.27" y="-967.48">R60</text>
<circle data-id="61" cx="627.06" cy="-1151.27" r="10.00px"/>
<text data-id="61" x="627.06" y="-1151.27">R61</text>
<circle data-id="62" cx="46.50" cy="-1481.86" r="10.00px"/>
<text data-id="62" x="46.50" y="-1481.86">R62</text>
<circle data-id="63" cx="1315.68" cy="-1199.46" r="10.00px"/>
<text data-id="63" x="1315.68" y="-1199.46">R63</text>
<circle data-id="64" cx="1109.05" cy="-526.81" r="10.00px"/>
<text data-id="64" x="1109.05" y="-526.81">R64</text>
<circle data-id="65" cx="1047.20" cy="-1384.72" r="10.00px"/>
<text data-id="65" x="1047.20" y="-1384.72">R65</text>
<circle data-id="66" cx="184.02" cy="-16.22" r="10.00px"/>
<text data-id="66" x="184.02" y="-16.22">R66</text>
<circle data-id="67" cx="1247.79" cy="-1459.47" r="10.00px"/>
<text data-id="67" x="1247.79" y="-1459.47">R67</text>
<circle data-id="68" cx="1496.91" cy="-87.21" r="10.00px"/>
<text data-id="68" x="1496.91" y="-87.21">R68</text>
<circle data-id="69" cx="1025.79" cy="-745.76" r="10.00px"/>
<text data-id="69" x="1025.79" y="-745.76">R69</text>
<circle data-id="70" cx="57.91" cy="-848.76" r="10.00px"/>
<text data-id="70" x="57.91" y="-848.76">R70</text>
<circle data-id="71" cx="1248.29" cy="-165.38" r="10.00px"/>
<text data-id="71" x="1248.29" y="-165.38">R71</text>
<circle data-id="72" cx="568.14" cy="-875.02" r="10.00px"/>
<text data-id="72" x="568.14" y="-875.02">R72</text>
<circle data-id="73" cx="408.78" cy="-941.20" r="10.00px"/>
<text data-id="73" x="408.78" y="-941.20">R73</text>
<circle data-id="74" cx="1004.52" cy="-241.45" r="10.00px"/>
<text data-id="74" x="1004.52" y="-241.45">R74</text>
<circle data-id="75" cx="1151.93" cy="-604.84" r="10.00px"/>
<text data-id="75" x="1151.93" y="-604.84">R75</text>
<circle data-id="76" cx="1334.58" cy="-478.73" r="10.00px"/>
<text data-id="76" x="1334.58" y="-478.73">R76</text>
<circle data-id="77" cx="425.33" cy="-446.92" r="10.00px"/>
<text data-id="77" x="425.33" y="-446.92">R77</text>
<circle data-id="78" cx="738.83" cy="-93.37" r="10.00px"/>
<text data-id="78" x="738.83" y="-93.37">R78</text>
<circle data-id="79" cx="1113.81" cy="-685.19" r="10.00px"/>
<text data-id="79" x="1113.81" y="-685.19">R79</text>
<circle data-id="80" cx="848.35" cy="-42.95" r="10.00px"/>
<text data-id="80" x="848.35" y="-42.95">R80</text>
<circle data-id="81" cx="302.81" cy="-848.14" r="10.00px"/>
<text data-id="81" x="302.81" y="-848.14">R81</text>
<circle data-id="82" cx="1254.85" cy="-1238.41" r="10.00px"/>
<text data-id="82" x="1254.85" y="-1238.41">R82</text>
<circle data-id="83" cx="877.74" cy="-1123.04" r="10.00px"/>
<text data-id="83" x="877.74" y="-1123.04">R83</text>
<circle data-id="84" cx="743.61" cy="-527.06" r="10.00px"/>
<text data-id="84" x="743.61" y="-527.06">R84</text>
<circle data-id="85" cx="777.76" cy="-1137.91" r="10.00px"/>
<text data-id="85" x="777.76" y="-1137.91">R85</text>
<circle data-id="86" cx="1287.51" cy="-112.55" r="10.00px"/>
<text data-id="86" x="1287.51" y="-112.55">R86</text>
<circle data-id="87" cx="1367.44" cy="-453.51" r="10.00px"/>
<text data-id="87" x="1367.44" y="-453.51">R87</text>
<circle data-id="88" cx="1245.82" cy="-639.29" r="10.00px"/>
<text data-id="88" x="1245.82" y="-639.29">R88</text>
<circle data-id="89" cx="1002.52" cy="-202.52" r="10.00px"/>
<text data-id="89" x="1002.52" y="-202.52">R89</text>
<circle data-id="90" cx="37.78" cy="-1254.54" r="10.00px"/>
<text data-id="90" x="37.78" y="-1254.54">R90</text>
<circle data-id="91" cx="40.08" cy="-910.06" r="10.00px"/>
<text data-id="91" x="40.08" y="-910.06">R91</text>
<circle data-id="92" cx="684.00" cy="-1151.06" r="10.00px"/>
<text data-id="92" x="684.00" y="-1151.06">R92</text>
<circle data-id="93" cx="160.37" cy="-258.78" r="10.00px"/>
<text data-id="93" x="160.37" y="-258.78">R93</text>
<circle data-id="94" cx="1361.46" cy="-143.75" r="10.00px"/>
<text data-id="94" x="1361.46" y="-143.75">R94</text>
<circle data-id="95" cx="730.31" cy="-789.66" r="10.00px"/>
<text data-id="95" x="730.31" y="-789.66">R95</text>
<circle data-id="96" cx="64.44" cy="-16.58" r="10.00px"/>
<text data-id="96" x="64.44" y="-16.58">R96</text>
<circle data-id="97" cx="331.17" cy="-379.45" r="10.00px"/>
<text data-id="97" x="331.17" y="-379.45">R97</text>
<circle data-id="98" cx="1250.42" cy="-1014.60" r="10.00px"/>
<text data-id="98" x="1250.42" y="-1014.60">R98</text>
<circle data-id="99" cx="62.03" cy="-723.47" r="10.00px"/>
<text data-id="99" x="62.03" y="-723.47">R99</text>
<circle data-id="100" cx="1174.26" cy="-20.74" r="10.00px"/>
<text data-id="100" x="1174.26" y="-20.74">R100</text>
<circle data-id="101" cx="468.43" cy="-1123.44" r="10.00px"/>
<text data-id="101" x="468.43" y="-1123.44">R101</text>
<circle data-id="102" cx="517.71" cy="-603.05" r="10.00px"/>
<text data-id="102" x="517.71" y="-603.05">R102</text>
<circle data-id="103" cx="1153.09" cy="-1284.37" r="10.00px"/>
<text data-id="103" x="1153.09" y="-1284.37">R103</text>
<circle data-id="104" cx="29.97" cy="-418.56" r="10.00px"/>
<text data-id="104" x="29.97" y="-418.56">R104</text>
<circle data-id="105" cx="852.52" cy="-478.45" r="10.00px"/>
<text data-id="105" x="852.52" y="-478.45">R105</text>
<circle data-id="106" cx="1119.30" cy="-1083.01" r="10.00px"/>
<text data-id="106" x="1119.30" y="-1083.01">R106</text>
<circle data-id="107" cx="510.00" cy="-326.86" r="10.00px"/>
<text data-id="107" x="510.00" y="-326.86">R107</text>
<circle data-id="108" cx="7.91" cy="-1451.41" r="10.00px"/>
<text data-id="108" x="7.91" y="-1451.41">R108</text>
<circle data-id="109" cx="869.82" cy="-1291.78" r="10.00px"/>
<text data-id="109" x="869.82" y="-1291.78">R109</text>
<circle data-id="110" cx="93.09" cy="-1226.37" r="10.00px"/>
<text data-id="110" x="93.09" y="-1226.37">R110</text>
<circle data-id="111" cx="1104.98" cy="-1465.09" r="10.00px"/>
<text data-id="111" x="1104.98" y="-1465.09">R111</text>
<circle data-id="112" cx="637.72" cy="-434.32" r="10.00px"/>
<text data-id="112" x="637.72" y="-434.32">R112</text>
<circle data-id="113" cx="290.33" cy="-1115.12" r="10.00px"/>
<text data-id="113" x="290.33" y="-1115.12">R113</text>
<circle data-id="114" cx="815.82" cy="-627.23" r="10.00px"/>
<text data-id="114" x="815.82" y="-627.23">R114</text>
<circle data-id="115" cx="1263.14" cy="-1038.39" r="10.00px"/>
<text data-id="115" x="1263.14" y="-1038.39">R115</text>
<circle data-id="116" cx="226.60" cy="-307.50" r="10.00px"/>
<text data-id="116" x="226.60" y="-307.50">R116</text>
<circle data-id="117" cx="317.67" cy="-130.06" r="10.00px"/>
<text data-id="117" x="317.67" y="-130.06">R117</text>
<circle data-id="118" cx="1411.86" cy="-276.21" r="10.00px"/>
<text data-id="118" x="1411.86" y="-276.21">R118</text>
<circle data-id="119" cx="1068.18" cy="-355.71" r="10.00px"/>
<text data-id="119" x="1068.18" y="-355.71">R119</text>
<circle data-id="120" cx="374.39" cy="-1015.44" r="10.00px"/>
<text data-id="120" x="374.39" y="-1015.44">R120</text>
<circle data-id="121" cx="1106.24" cy="-1230.08" r="10.00px"/>
<text data-id="121" x="1106.24" y="-1230.08">R121</text>
<circle data-id="122" cx="1158.03" cy="-919.65" r="10.00px"/>
<text data-id="122" x="1158.03" y="-919.65">R122</text>
<circle data-id="123" cx="1090.39" cy="-576.01" r="10.00px"/>
<text data-id="123" x="1090.39" y="-576.01">R123</text>
<circle data-id="124" cx="1232.03" cy="-589.23" r="10.00px"/>
<text data-id="124" x="1232.03" y="-589.23">R124</text>
<circle data-id="125" cx="409.45" cy="-1206.96" r="10.00px"/>
<text data-id="125" x="409.45" y="-1206.96">R125</text>
<circle data-id="126" cx="387.00" cy="-782.12" r="10.00px"/>
<text data-id="126" x="387.00" y="-782.12">R126</text>
<circle data-id="127" cx="1200.88" cy="-1324.10" r="10.00px"/>
<text data-id="127" x="1200.88" y="-1324.10">R127</text>
<circle data-id="128" cx="1345.78" cy="-1479.87" r="10.00px"/>
<text data-id="128" x="1345.78" y="-1479.87">R128</text>
<circle data-id="129" cx="322.23" cy="-1357.74" r="10.00px"/>
<text data-id="129" x="322.23" y="-1357.74">R129</text>
<circle data-id="130" cx="582.89" cy="-715.18" r="10.00px"/>
<text data-id="130" x="582.89" y="-715.18">R130</text>
<circle data-id="131" cx="1328.49" cy="-1289.75" r="10.00px"/>
<text data-id="131" x="1328.49" y="-1289.75">R131</text>
<circle data-id="132" cx="523.29" cy="-1298.45" r="10.00px"/>
<text data-id="132" x="523.29" y="-1298.45">R132</text>
<circle data-id="133" cx="495.86" cy="-930.36" r="10.00px"/>
<text data-id="133" x="495.86" y="-930.36">R133</text>
<circle data-id="134" cx="410.99" cy="-616.11" r="10.00px"/>
<text data-id="134" x="410.99" y="-616.11">R134</text>
<circle data-id="135" cx="11.50" cy="-1334.37" r="10.00px"/>
<text data-id="135" x="11.50" y="-1334.37">R135</text>
<circle data-id="136" cx="1052.13" cy="-1043.64" r="10.00px"/>
<text data-id="136" x="1052.13" y="-1043.64">R136</text>
<circle data-id="137" cx="809.40" cy="-480.27" r="10.00px"/>
<text data-id="137" x="809.40" y="-480.27">R137</text>
<circle data-id="138" cx="7.61" cy="-138.44" r="10.00px"/>
<text data-id="138" x="7.61" y="-138.44">R138</text>
<circle data-id="139" cx="242.20" cy="-995.98" r="10.00px"/>
<text data-id="139" x="242.20" y="-995.98">R139</text>
<circle data-id="140" cx="1181.77" cy="-481.17" r="10.00px"/>
<text data-id="140" x="1181.77" y="-481.17">R140</text>
<circle data-id="141" cx="665.33" cy="-1274.53" r="10.00px"/>
<text data-id="141" x="665.33" y="-1274.53">R141</text>
<circle data-id="142" cx="1284.11" cy="-1205.56" r="10.00px"/>
<text data-id="142" x="1284.11" y="-1205.56">R142</text>
<circle data-id="143" cx="931.83" cy="-1368.41" r="10.00px"/>
<text data-id="143" x="931.83" y="-1368.41">R143</text>
<circle data-id="144" cx="559.04" cy="-285.83" r="10.00px"/>
<text data-id="144" x="559.04" y="-285.83">R144</text>
<circle data-id="145" cx="1325.39" cy="-799.35" r="10.00px"/>
<text data-id="145" x="1325.39" y="-799.35">R145</text>
<circle data-id="146" cx="71.68" cy="-871.72" r="10.00px"/>
<text data-id="146" x="71.68" y="-871.72">R146</text>
<circle data-id="147" cx="968.83" cy="-97.68" r="10.00px"/>
<text data-id="147" x="968.83" y="-97.68">R147</text>
<circle data-id="148" cx="1420.90" cy="-1130.44" r="10.00px"/>
<text data-id="148" x="1420.90" y="-1130.44">R148</text>
<circle data-id="149" cx="552.67" cy="-1417.80" r="10.00px"/>
<text data-id="149" x="552.67" y="-1417.80">R149</text>
<circle data-id="150" cx="914.63" cy="-935.83" r="10.00px"/>
<text data-id="150" x="914.63" y="-935.83">R150</text>
<circle data-id="151" cx="1424.43" cy="-426.67" r="10.00px"/>
<text data-id="151" x="1424.43" y="-426.67">R151</text>
<circle data-id="152" cx="386.49" cy="-570.01" r="10.00px"/>
<text data-id="152" x="386.49" y="-570.01">R152</text>
<circle data-id="153" cx="532.65" cy="-405.96" r="10.00px"/>
<text data-id="153" x="532.65" y="-405.96">R153</text>
<circle data-id="154" cx="465.60" cy="-19.68" r="10.00px"/>
<text data-id="154" x="465.60" y="-19.68">R154</text>
<circle data-id="155" cx="601.84" cy="-840.91" r="10.00px"/>
<text data-id="155" x="601.84" y="-840.91">R155</text>
<circle data-id="156" cx="852.84" cy="-1407.36" r="10.00px"/>
<text data-id="156" x="852.84" y="-1407.36">R156</text>
<circle data-id="157" cx="772.65" cy="-177.86" r="10.00px"/>
<text data-id="157" x="772.65" y="-177.86">R157</text>
<circle data-id="158" cx="665.76" cy="-226.65" r="10.00px"/>
<text data-id="158" x="665.76" y="-226.65">R158</text>
<circle data-id="159" cx="430.86" cy="-719.90" r="10.00px"/>
<text data-id="159" x="430.86" y="-719.90">R159</text>
<circle data-id="160" cx="992.42" cy="-1132.92" r="10.00px"/>
<text data-id="160" x="992.42" y="-1132.92">R160</text>
<circle data-id="161" cx="850.20" cy="-856.90" r="10.00px"/>
<text data-id="161" x="850.20" y="-856.90">R161</text>
<circle data-id="162" cx="1264.24" cy="-275.87" r="10.00px"/>
<text data-id="162" x="1264.24" y="-275.87">R162</text>
<circle data-id="163" cx="367.40" cy="-44.77" r="10.00px"/>
<text data-id="163" x="367.40" y="-44.77">R163</text>
<circle data-id="164" cx="1361.91" cy="-539.10" r="10.00px"/>
<text data-id="164" x="1361.91" y="-539.10">R164</text>
<circle data-id="165" cx="1107.30" cy="-628.16" r="10.00px"/>
<text data-id="165" x="1107.30" y="-628.16">R165</text>
<circle data-id="166" cx="268.54" cy="-1099.62" r="10.00px"/>
<text data-id="166" x="268.54" y="-1099.62">R166</text>
<circle data-id="167" cx="931.24" cy="-250.42" r="10.00px"/>
<text data-id="167" x="931.24" y="-250.42">R167</text>
<circle data-id="168" cx="42.73" cy="-1362.24" r="10.00px"/>
<text data-id="168" x="42.73" y="-1362.24">R168</text>
<circle data-id="169" cx="825.02" cy="-562.28" r="10.00px"/>
<text data-id="169" x="825.02" y="-562.28">R169</text>
<circle data-id="170" cx="616.37" cy="-1402.25" r="10.00px"/>
<text data-id="170" x="616.37" y="-1402.25">R170</text>
<circle data-id="171" cx="1394.41" cy="-726.22" r="10.00px"/>
<text data-id="171" x="1394.41" y="-726.22">R171</text>
<circle data-id="172" cx="1335.73" cy="-370.86" r="10.00px"/>
<text data-id="172" x="1335.73" y="-370.86">R172</text>
<circle data-id="173" cx="269.01" cy="-235.60" r="10.00px"/>
<text data-id="173" x="269.01" y="-235.60">R173</text>
<circle data-id="174" cx="1118.35" cy="-117.45" r="10.00px"/>
<text data-id="174" x="1118.35" y="-117.45">R174</text>
<circle data-id="175" cx="773.52" cy="-1292.98" r="10.00px"/>
<text data-id="175" x="773.52" y="-1292.98">R175</text>
<circle data-id="176" cx="245.31" cy="-1455.91" r="10.00px"/>
<text data-id="176" x="245.31" y="-1455.91">R176</text>
<circle data-id="177" cx="426.10" cy="-151.63" r="10.00px"/>
<text data-id="177" x="426.10" y="-151.63">R177</text>
<circle data-id="178" cx="1379.64" cy="-832.95" r="10.00px"/>
<text data-id="178" x="1379.64" y="-832.95">R178</text>
<circle data-id="179" cx="747.31" cy="-871.36" r="10.00px"/>
<text data-id="179" x="747.31" y="-871.36">R179</text>
<circle data-id="180" cx="320.53" cy="-413.83" r="10.00px"/>
<text data-id="180" x="320.53" y="-413.83">R180</text>
<circle data-id="181" cx="654.63" cy="-731.67" r="10.00px"/>
<text data-id="181" x="654.63" y="-731.67">R181</text>
<circle data-id="182" cx="283.52" cy="-1441.30" r="10.00px"/>
<text data-id="182" x="283.52" y="-1441.30">R182</text>
<circle data-id="183" cx="914.83" cy="-815.81" r="10.00px"/>
<text data-id="183" x="914.83" y="-815.81">R183</text>
<circle data-id="184" cx="509.76" cy="-356.32" r="10.00px"/>
<text data-id="184" x="509.76" y="-356.32">R184</text>
<circle data-id="185" cx="1170.43" cy="-536.04" r="10.00px"/>
<text data-id="185" x="1170.43" y="-536.04">R185</text>
<circle data-id="186" cx="1497.18" cy="-984.53" r="10.00px"/>
<text data-id="186" x="1497.18" y="-984.53">R186</text>
<circle data-id="187" cx="494.36" cy="-1015.45" r="10.00px"/>
<text data-id="187" x="494.36" y="-1015.45">R187</text>
<circle data-id="188" cx="224.47" cy="-975.51" r="10.00px"/>
<text data-id="188" x="224.47" y="-975.51">R188</text>
<circle data-id="189" cx="1114.78" cy="-560.94" r="10.00px"/>
<text data-id="189" x="1114.78" y="-560.94">R189</text>
<circle data-id="190" cx="1324.37" cy="-689.48" r="10.00px"/>
<text data-id="190" x="1324.37" y="-689.48">R190</text>
<circle data-id="191" cx="343.94" cy="-1164.49" r="10.00px"/>
<text data-id="191" x="343.94" y="-1164.49">R191</text>
<circle data-id="192" cx="909.45" cy="-139.37" r="10.00px"/>
<text data-id="192" x="909.45" y="-139.37">R192</text>
<circle data-id="193" cx="412.97" cy="-1430.45" r="10.00px"/>
<text data-id="193" x="412.97" y="-1430.45">R193</text>
<circle data-id="194" cx="1226.42" cy="-17.18" r="10.00px"/>
<text data-id="194" x="1226.42" y="-17.18">R194</text>
<circle data-id="195" cx="1148.24" cy="-518.90" r="10.00px"/>
<text data-id="195" x="1148.24" y="-518.90">R195</text>
<circle data-id="196" cx="1041.82" cy="-196.50" r="10.00px"/>
<text data-id="196" x="1041.82" y="-196.50">R196</text>
<circle data-id="197" cx="670.62" cy="-477.27" r="10.00px"/>
<text data-id="197" x="670.62" y="-477.27">R197</text>
<circle data-id="198" cx="1035.37" cy="-240.31" r="10.00px"/>
<text data-id="198" x="1035.37" y="-240.31">R198</text>
<circle data-id="199" cx="784.57" cy="-591.34" r="10.00px"/>
<text data-id="199" x="784.57" y="-591.34">R199</text>
<circle data-id="200" cx="935.34" cy="-858.80" r="10.00px"/>
<text data-id="200" x="935.34" y="-858.80">R200</text>
<circle data-id="201" cx="973.27" cy="-1333.67" r="10.00px"/>
<text data-id="201" x="973.27" y="-1333.67">R201</text>
<circle data-id="202" cx="681.49" cy="-860.23" r="10.00px"/>
<text data-id="202" x="681.49" y="-860.23">R202</text>
<circle data-id="203" cx="79.03" cy="-666.00" r="10.00px"/>
<text data-id="203" x="79.03" y="-666.00">R203</text>
<circle data-id="204" cx="420.68" cy="-1232.43" r="10.00px"/>
<text data-id="204" x="420.68" y="-1232.43">R204</text>
<circle data-id="205" cx="1372.22" cy="-242.02" r="10.00px"/>
<text data-id="205" x="1372.22" y="-242.02">R205</text>
<circle data-id="206" cx="68.08" cy="-432.96" r="10.00px"/>
<text data-id="206" x="68.08" y="-432.96">R206</text>
<circle data-id="207" cx="711.74" cy="-1186.16" r="10.00px"/>
<text data-id="207" x="711.74" y="-1186.16">R207</text>
<circle data-id="208" cx="961.99" cy="-904.63" r="10.00px"/>
<text data-id="208" x="961.99" y="-904.63">R208</text>
<circle data-id="209" cx="497.95" cy="-227.35" r="10.00px"/>
<text data-id="209" x="497.95" y="-227.35">R209</text>
<circle data-id="210" cx="363.24" cy="-1094.85" r="10.00px"/>
<text data-id="210" x="363.24" y="-1094.85">R210</text>
<circle data-id="211" cx="162.90" cy="-1218.04" r="10.00px"/>
<text data-id="211" x="162.90" y="-1218.04">R211</text>
<circle data-id="212" cx="1212.60" cy="-1142.63" r="10.00px"/>
<text data-id="212" x="1212.60" y="-1142.63">R212</text>
<circle data-id="213" cx="997.32" cy="-369.56" r="10.00px"/>
<text data-id="213" x="997.32" y="-369.56">R213</text>
<circle data-id="214" cx="177.06" cy="-1027.95" r="10.00px"/>
<text data-id="214" x="177.06" y="-1027.95">R214</text>
<circle data-id="215" cx="1176.71" cy="-141.53" r="10.00px"/>
<text data-id="215" x="1176.71" y="-141.53">R215</text>
<circle data-id="216" cx="704.82" cy="-915.13" r="10.00px"/>
<text data-id="216" x="704.82" y="-915.13">R216</text>
<circle data-id="217" cx="882.27" cy="-108.84" r="10.00px"/>
<text data-id="217" x="882.27" y="-108.84">R217</text>
<circle data-id="218" cx="680.88" cy="-1059.29" r="10.00px"/>
<text data-id="218" x="680.88" y="-1059.29">R218</text>
<circle data-id="219" cx="393.08" cy="-235.52" r="10.00px"/>
<text data-id="219" x="393.08" y="-235.52">R219</text>
<circle data-id="220" cx="468.33" cy="-504.40" r="10.00px"/>
<text data-id="220" x="468.33" y="-504.40">R220</text>
<circle data-id="221" cx="1431.91" cy="-1255.22" r="10.00px"/>
<text data-id="221" x="1431.91" y="-1255.22">R221</text>
<circle data-id="222" cx="691.94" cy="-62.12" r="10.00px"/>
<text data-id="222" x="691.94" y="-62.12">R222</text>
<circle data-id="223" cx="58.86" cy="-496.20" r="10.00px"/>
<text data-id="223" x="58.86" y="-496.20">R223</text>
<circle data-id="224" cx="68.91" cy="-1089.11" r="10.00px"/>
<text data-id="224" x="68.91" y="-1089.11">R224</text>
</svg>
