<svg id="topo" width="1582.07" height="1563.03" viewBox="-41.40 -37.58 1582.07 1563.03" xmlns="http://www.w3.org/2000/svg">
<style>#topo path {fill: none; stroke: grey; stroke-width: 6;} #topo circle {fill: lightblue; stroke: none;} #topo text {fill: black; stroke: none; font-size: 16; font-family: sans-serif; text-anchor:middle;}</style>
<path d="M673.59,675.51,576.81,666.96"/>
<path d="M673.59,675.51,659.21,720.95"/>
<path d="M673.59,675.51,591.10,585.22"/>
<path d="M673.59,675.51,704.18,715.60"/>
<path d="M673.59,675.51,748.26,624.73"/>
<path d="M750.61,1193.02,665.49,1177.84"/>
<path d="M750.61,1193.02,715.94,1267.59"/>
<path d="M750.61,1193.02,814.28,1111.30"/>
<path d="M750.61,1193.02,864.56,1276.31"/>
<path d="M1314.83,565.40,1388.49,420.98"/>
<path d="M1314.83,565.40,1224.12,484.98"/>
<path d="M1314.83,565.40,1312.22,658.69"/>
<path d="M1314.83,565.40,1445.49,648.25"/>
<path d="M1314.83,565.40,1214.09,573.69"/>
<path d="M1188.05,307.67,1273.92,373.74"/>
<path d="M1188.05,307.67,1107.92,471.97"/>
<path d="M1188.05,307.67,1272.10,236.85"/>
<path d="M1188.05,307.67,1034.14,281.76"/>
<path d="M1188.05,307.67,1087.24,210.96"/>
<path d="M1388.49,420.98,1378.50,390.50"/>
<path d="M1388.49,420.98,1491.60,432.54"/>
<path d="M576.81,666.96,620.90,754.49"/>
<path d="M576.81,666.96,659.21,720.95"/>
<path d="M576.81,666.96,507.95,786.26"/>
<path d="M576.81,666.96,505.42,611.25"/>
<path d="M576.81,666.96,591.10,585.22"/>
<path d="M752.16,700.27,882.11,700.72"/>
<path d="M752.16,700.27,704.18,715.60"/>
<path d="M752.16,700.27,756.56,774.32"/>
<path d="M752.16,700.27,748.26,624.73"/>
<path d="M902.20,419.81,815.72,421.09"/>
<path d="M902.20,419.81,982.40,471.94"/>
<path d="M902.20,419.81,899.31,311.47"/>
<path d="M902.20,419.81,870.11,463.62"/>
<path d="M902.20,419.81,835.26,321.28"/>
<path d="M1383.72,1419.75,1472.51,1393.32"/>
<path d="M1383.72,1419.75,1349.16,1287.62"/>
<path d="M1383.72,1419.75,1304.19,1323.34"/>
<path d="M1383.72,1419.75,1277.48,1419.78"/>
<path d="M1383.72,1419.75,1435.82,1358.49"/>
<path d="M1383.72,1419.75,1352.46,1469.93"/>
<path d="M1430.12,164.39,1472.44,55.55"/>
<path d="M1430.12,164.39,1409.02,323.56"/>
<path d="M1430.12,164.39,1322.72,189.30"/>
<path d="M1430.12,164.39,1323.05,85.69"/>
<path d="M790.87,121.37,951.83,244.50"/>
<path d="M790.87,121.37,742.00,146.94"/>
<path d="M790.87,121.37,906.38,82.71"/>
<path d="M575.98,495.06,700.38,452.49"/>
<path d="M575.98,495.06,554.47,452.85"/>
<path d="M575.98,495.06,476.83,536.89"/>
<path d="M575.98,495.06,591.78,521.66"/>
<path d="M1493.58,636.83,1491.60,432.54"/>
<path d="M1493.58,636.83,1445.49,648.25"/>
<path d="M1493.58,636.83,1478.98,684.02"/>
<path d="M1495.67,1296.40,1425.76,1232.82"/>
<path d="M1495.67,1296.40,1472.51,1393.32"/>
<path d="M1495.67,1296.40,1435.82,1358.49"/>
<path d="M1495.67,1296.40,1457.50,1209.05"/>
<path d="M64.18,1371.50,46.90,1332.40"/>
<path d="M64.18,1371.50,103.83,1400.29"/>
<path d="M117.49,627.58,197.72,565.10"/>
<path d="M117.49,627.58,105.74,586.01"/>
<path d="M117.49,627.58,78.47,687.19"/>
<path d="M117.49,627.58,231.11,728.63"/>
<path d="M1272.61,940.48,1172.81,913.10"/>
<path d="M1272.61,940.48,1298.74,996.11"/>
<path d="M1272.61,940.48,1297.06,805.24"/>
<path d="M1272.61,940.48,1359.03,934.28"/>
<path d="M1219.65,1197.38,1142.96,1255.83"/>
<path d="M1219.65,1197.38,1431.95,1147.62"/>
<path d="M1219.65,1197.38,1076.77,1165.11"/>
<path d="M1219.65,1197.38,1101.30,1114.31"/>
<path d="M1219.65,1197.38,1349.16,1287.62"/>
<path d="M1219.65,1197.38,1304.19,1323.34"/>
<path d="M1219.65,1197.38,1259.73,1022.52"/>
<path d="M647.10,152.04,742.00,146.94"/>
<path d="M647.10,152.04,563.03,83.39"/>
<path d="M647.10,152.04,683.94,213.74"/>
<path d="M647.10,152.04,624.78,233.75"/>
<path d="M575.44,829.24,620.90,754.49"/>
<path d="M575.44,829.24,553.15,813.46"/>
<path d="M575.44,829.24,695.57,873.79"/>
<path d="M4.69,7.42,38.36,16.52"/>
<path d="M620.90,754.49,659.21,720.95"/>
<path d="M620.90,754.49,553.15,813.46"/>
<path d="M620.90,754.49,695.57,873.79"/>
<path d="M882.11,700.72,816.82,590.48"/>
<path d="M882.11,700.72,867.75,583.66"/>
<path d="M882.11,700.72,756.56,774.32"/>
<path d="M882.11,700.72,940.65,645.28"/>
<path d="M951.83,244.50,1025.92,239.29"/>
<path d="M951.83,244.50,899.31,311.47"/>
<path d="M951.83,244.50,906.38,82.71"/>
<path d="M815.72,421.09,804.11,329.58"/>
<path d="M815.72,421.09,700.38,452.49"/>
<path d="M815.72,421.09,762.86,527.05"/>
<path d="M815.72,421.09,870.11,463.62"/>
<path d="M925.38,34.95,906.38,82.71"/>
<path d="M261.04,639.25,262.25,672.69"/>
<path d="M261.04,639.25,197.72,565.10"/>
<path d="M261.04,639.25,285.12,591.30"/>
<path d="M67.87,206.97,38.36,16.52"/>
<path d="M67.87,206.97,113.56,187.88"/>
<path d="M67.87,206.97,52.16,285.54"/>
<path d="M131.73,917.90,183.36,1013.36"/>
<path d="M131.73,917.90,67.48,926.97"/>
<path d="M131.73,917.90,182.66,852.09"/>
<path d="M986.54,676.67,1087.45,620.85"/>
<path d="M986.54,676.67,940.65,645.28"/>
<path d="M804.11,329.58,772.77,217.33"/>
<path d="M804.11,329.58,835.26,321.28"/>
<path d="M1425.76,1232.82,1349.16,1287.62"/>
<path d="M1425.76,1232.82,1435.82,1358.49"/>
<path d="M1425.76,1232.82,1457.50,1209.05"/>
<path d="M38.16,1256.15,62.21,1304.59"/>
<path d="M38.16,1256.15,86.34,1144.24"/>
<path d="M659.21,720.95,696.34,748.27"/>
<path d="M659.21,720.95,704.18,715.60"/>
<path d="M982.40,471.94,1026.45,443.81"/>
<path d="M982.40,471.94,1038.34,502.67"/>
<path d="M982.40,471.94,904.51,497.53"/>
<path d="M700.38,452.49,762.86,527.05"/>
<path d="M700.38,452.49,591.78,521.66"/>
<path d="M700.38,452.49,624.78,233.75"/>
<path d="M361.15,1285.10,342.07,1227.81"/>
<path d="M361.15,1285.10,401.69,1240.17"/>
<path d="M361.15,1285.10,377.54,1387.18"/>
<path d="M361.15,1285.10,202.85,1274.94"/>
<path d="M361.15,1285.10,467.73,1351.80"/>
<path d="M1124.92,941.34,1029.73,1020.16"/>
<path d="M1124.92,941.34,1124.79,1057.37"/>
<path d="M1124.92,941.34,1172.81,913.10"/>
<path d="M1124.92,941.34,1080.07,872.99"/>
<path d="M314.92,187.65,358.87,132.89"/>
<path d="M314.92,187.65,113.56,187.88"/>
<path d="M314.92,187.65,329.17,314.67"/>
<path d="M772.77,217.33,742.00,146.94"/>
<path d="M772.77,217.33,683.94,213.74"/>
<path d="M1029.73,1020.16,1124.79,1057.37"/>
<path d="M1029.73,1020.16,854.14,978.00"/>
<path d="M1029.73,1020.16,1101.30,1114.31"/>
<path d="M1029.73,1020.16,988.87,1107.75"/>
<path d="M183.36,1013.36,71.99,1036.24"/>
<path d="M183.36,1013.36,170.75,1085.53"/>
<path d="M183.36,1013.36,227.09,999.36"/>
<path d="M507.95,786.26,446.37,657.07"/>
<path d="M507.95,786.26,553.15,813.46"/>
<path d="M507.95,786.26,327.21,789.65"/>
<path d="M507.95,786.26,508.80,860.92"/>
<path d="M663.91,989.17,640.21,1011.83"/>
<path d="M663.91,989.17,734.17,1005.45"/>
<path d="M663.91,989.17,695.57,873.79"/>
<path d="M663.91,989.17,704.54,1040.25"/>
<path d="M696.34,748.27,704.18,715.60"/>
<path d="M696.34,748.27,756.56,774.32"/>
<path d="M295.51,885.07,182.66,852.09"/>
<path d="M295.51,885.07,327.21,789.65"/>
<path d="M295.51,885.07,227.09,999.36"/>
<path d="M295.51,885.07,393.84,997.19"/>
<path d="M295.51,885.07,508.80,860.92"/>
<path d="M742.00,146.94,683.94,213.74"/>
<path d="M1472.51,1393.32,1435.82,1358.49"/>
<path d="M1255.15,1449.35,1310.51,1476.54"/>
<path d="M1255.15,1449.35,1277.48,1419.78"/>
<path d="M1255.15,1449.35,1197.81,1422.13"/>
<path d="M540.15,325.80,496.46,396.50"/>
<path d="M540.15,325.80,525.30,268.41"/>
<path d="M342.68,547.42,226.05,505.43"/>
<path d="M342.68,547.42,342.68,490.69"/>
<path d="M342.68,547.42,408.55,567.09"/>
<path d="M342.68,547.42,285.12,591.30"/>
<path d="M71.99,1036.24,170.75,1085.53"/>
<path d="M71.99,1036.24,67.48,926.97"/>
<path d="M71.99,1036.24,86.34,1144.24"/>
<path d="M71.99,1036.24,3.60,1014.39"/>
<path d="M1273.92,373.74,1378.50,390.50"/>
<path d="M1273.92,373.74,1224.12,484.98"/>
<path d="M1273.92,373.74,1272.10,236.85"/>
<path d="M665.49,1177.84,715.94,1267.59"/>
<path d="M665.49,1177.84,500.27,1193.56"/>
<path d="M665.49,1177.84,627.57,1261.33"/>
<path d="M665.49,1177.84,662.19,1092.54"/>
<path d="M1142.96,1255.83,1076.77,1165.11"/>
<path d="M1142.96,1255.83,1151.40,1280.42"/>
<path d="M1142.96,1255.83,1040.12,1197.28"/>
<path d="M1026.45,443.81,1038.34,502.67"/>
<path d="M1026.45,443.81,1107.92,471.97"/>
<path d="M1026.45,443.81,1034.14,281.76"/>
<path d="M505.42,611.25,591.10,585.22"/>
<path d="M505.42,611.25,446.37,657.07"/>
<path d="M505.42,611.25,476.83,536.89"/>
<path d="M505.42,611.25,408.55,567.09"/>
<path d="M762.86,527.05,591.10,585.22"/>
<path d="M762.86,527.05,816.82,590.48"/>
<path d="M762.86,527.05,870.11,463.62"/>
<path d="M762.86,527.05,748.26,624.73"/>
<path d="M94.94,1431.34,114.98,1451.13"/>
<path d="M94.94,1431.34,103.83,1400.29"/>
<path d="M758.03,1435.06,832.29,1461.77"/>
<path d="M758.03,1435.06,699.73,1454.33"/>
<path d="M758.03,1435.06,778.65,1387.57"/>
<path d="M671.63,1061.26,662.19,1092.54"/>
<path d="M671.63,1061.26,640.21,1011.83"/>
<path d="M671.63,1061.26,704.54,1040.25"/>
<path d="M715.94,1267.59,627.57,1261.33"/>
<path d="M715.94,1267.59,832.78,1323.81"/>
<path d="M715.94,1267.59,778.65,1387.57"/>
<path d="M1055.17,550.16,1038.34,502.67"/>
<path d="M1055.17,550.16,1087.45,620.85"/>
<path d="M1055.17,550.16,940.65,645.28"/>
<path d="M225.95,405.71,52.16,285.54"/>
<path d="M225.95,405.71,167.79,472.48"/>
<path d="M225.95,405.71,252.60,422.06"/>
<path d="M1000.65,1367.42,981.90,1225.04"/>
<path d="M1000.65,1367.42,832.78,1323.81"/>
<path d="M1000.65,1367.42,1119.57,1416.71"/>
<path d="M1000.65,1367.42,864.56,1276.31"/>
<path d="M1000.65,1367.42,821.30,1405.49"/>
<path d="M334.56,1070.11,170.75,1085.53"/>
<path d="M334.56,1070.11,342.07,1227.81"/>
<path d="M334.56,1070.11,227.09,999.36"/>
<path d="M334.56,1070.11,393.84,997.19"/>
<path d="M334.56,1070.11,378.75,1078.37"/>
<path d="M500.27,1193.56,464.40,1255.56"/>
<path d="M500.27,1193.56,378.75,1078.37"/>
<path d="M500.27,1193.56,518.16,1089.14"/>
<path d="M139.22,1366.88,62.21,1304.59"/>
<path d="M139.22,1366.88,202.85,1274.94"/>
<path d="M139.22,1366.88,142.80,1399.75"/>
<path d="M139.22,1366.88,103.83,1400.29"/>
<path d="M591.10,585.22,591.78,521.66"/>
<path d="M1246.76,794.85,1297.06,805.24"/>
<path d="M1246.76,794.85,1166.90,829.27"/>
<path d="M1246.76,794.85,1263.78,693.87"/>
<path d="M1124.79,1057.37,1101.30,1114.31"/>
<path d="M1124.79,1057.37,1259.73,1022.52"/>
<path d="M1431.95,1147.62,1461.41,1119.62"/>
<path d="M1431.95,1147.62,1457.50,1209.05"/>
<path d="M1025.92,239.29,1034.14,281.76"/>
<path d="M1025.92,239.29,1087.24,210.96"/>
<path d="M627.57,1261.33,584.31,1293.36"/>
<path d="M170.75,1085.53,86.34,1144.24"/>
<path d="M170.75,1085.53,195.63,1243.64"/>
<path d="M342.07,1227.81,401.69,1240.17"/>
<path d="M342.07,1227.81,195.63,1243.64"/>
<path d="M342.07,1227.81,202.85,1274.94"/>
<path d="M342.07,1227.81,378.75,1078.37"/>
<path d="M226.05,505.43,342.68,490.69"/>
<path d="M226.05,505.43,197.72,565.10"/>
<path d="M226.05,505.43,177.76,499.47"/>
<path d="M226.05,505.43,252.60,422.06"/>
<path d="M226.05,505.43,285.12,591.30"/>
<path d="M662.19,1092.54,606.36,1086.35"/>
<path d="M1310.51,1476.54,1277.48,1419.78"/>
<path d="M1310.51,1476.54,1352.46,1469.93"/>
<path d="M899.31,311.47,835.26,321.28"/>
<path d="M877.68,1087.63,927.80,1116.99"/>
<path d="M877.68,1087.63,814.28,1111.30"/>
<path d="M877.68,1087.63,818.84,1032.81"/>
<path d="M401.69,1240.17,464.40,1255.56"/>
<path d="M401.69,1240.17,378.75,1078.37"/>
<path d="M1357.75,982.50,1298.74,996.11"/>
<path d="M1357.75,982.50,1359.03,934.28"/>
<path d="M1357.75,982.50,1416.46,1069.56"/>
<path d="M578.91,1480.45,538.30,1402.18"/>
<path d="M578.91,1480.45,623.95,1471.78"/>
<path d="M1125.11,677.13,1134.60,765.84"/>
<path d="M1125.11,677.13,1087.45,620.85"/>
<path d="M1125.11,677.13,1214.09,573.69"/>
<path d="M1125.11,677.13,1263.78,693.87"/>
<path d="M981.90,1225.04,927.80,1116.99"/>
<path d="M981.90,1225.04,864.56,1276.31"/>
<path d="M981.90,1225.04,1040.12,1197.28"/>
<path d="M538.30,1402.18,607.82,1333.36"/>
<path d="M538.30,1402.18,467.73,1351.80"/>
<path d="M21.61,821.46,67.48,926.97"/>
<path d="M21.61,821.46,182.66,852.09"/>
<path d="M21.61,821.46,93.08,740.70"/>
<path d="M1076.77,1165.11,1101.30,1114.31"/>
<path d="M1076.77,1165.11,1040.12,1197.28"/>
<path d="M1076.77,1165.11,1030.57,1152.39"/>
<path d="M277.87,15.51,394.82,107.85"/>
<path d="M277.87,15.51,38.36,16.52"/>
<path d="M277.87,15.51,358.87,132.89"/>
<path d="M277.87,15.51,113.56,187.88"/>
<path d="M62.21,1304.59,195.63,1243.64"/>
<path d="M62.21,1304.59,202.85,1274.94"/>
<path d="M62.21,1304.59,46.90,1332.40"/>
<path d="M1378.50,390.50,1409.02,323.56"/>
<path d="M1134.60,765.84,1080.07,872.99"/>
<path d="M1134.60,765.84,1166.90,829.27"/>
<path d="M1134.60,765.84,1263.78,693.87"/>
<path d="M640.21,1011.83,606.36,1086.35"/>
<path d="M640.21,1011.83,704.54,1040.25"/>
<path d="M640.21,1011.83,538.34,929.41"/>
<path d="M464.40,1255.56,491.81,1272.39"/>
<path d="M1472.44,55.55,1323.05,85.69"/>
<path d="M394.82,107.85,358.87,132.89"/>
<path d="M394.82,107.85,442.16,150.65"/>
<path d="M927.80,1116.99,864.56,1276.31"/>
<path d="M927.80,1116.99,988.87,1107.75"/>
<path d="M67.48,926.97,3.60,1014.39"/>
<path d="M1038.34,502.67,1107.92,471.97"/>
<path d="M832.78,1323.81,778.65,1387.57"/>
<path d="M832.78,1323.81,864.56,1276.31"/>
<path d="M832.78,1323.81,821.30,1405.49"/>
<path d="M86.34,1144.24,195.63,1243.64"/>
<path d="M38.36,16.52,113.56,187.88"/>
<path d="M606.36,1086.35,518.16,1089.14"/>
<path d="M832.29,1461.77,821.30,1405.49"/>
<path d="M446.37,657.07,262.25,672.69"/>
<path d="M446.37,657.07,327.21,789.65"/>
<path d="M446.37,657.07,408.55,567.09"/>
<path d="M816.82,590.48,867.75,583.66"/>
<path d="M816.82,590.48,748.26,624.73"/>
<path d="M867.75,583.66,940.65,645.28"/>
<path d="M867.75,583.66,904.51,497.53"/>
<path d="M756.56,774.32,735.81,840.97"/>
<path d="M1119.57,1416.71,1137.88,1474.65"/>
<path d="M1119.57,1416.71,1131.80,1389.35"/>
<path d="M553.15,813.46,508.80,860.92"/>
<path d="M342.68,490.69,295.78,371.41"/>
<path d="M342.68,490.69,496.46,396.50"/>
<path d="M342.68,490.69,252.60,422.06"/>
<path d="M554.47,452.85,476.83,536.89"/>
<path d="M554.47,452.85,496.46,396.50"/>
<path d="M854.14,978.00,817.48,994.43"/>
<path d="M195.63,1243.64,202.85,1274.94"/>
<path d="M1172.81,913.10,1166.36,854.94"/>
<path d="M295.78,371.41,329.17,314.67"/>
<path d="M295.78,371.41,252.60,422.06"/>
<path d="M699.73,1454.33,623.95,1471.78"/>
<path d="M699.73,1454.33,607.82,1333.36"/>
<path d="M814.28,1111.30,864.56,1276.31"/>
<path d="M814.28,1111.30,818.84,1032.81"/>
<path d="M814.28,1111.30,704.54,1040.25"/>
<path d="M377.54,1387.18,467.73,1351.80"/>
<path d="M377.54,1387.18,142.80,1399.75"/>
<path d="M1180.94,1400.56,1197.81,1422.13"/>
<path d="M1180.94,1400.56,1131.80,1389.35"/>
<path d="M1151.40,1280.42,1304.19,1323.34"/>
<path d="M1151.40,1280.42,1131.80,1389.35"/>
<path d="M1349.16,1287.62,1304.19,1323.34"/>
<path d="M1349.16,1287.62,1435.82,1358.49"/>
<path d="M1087.45,620.85,1214.09,573.69"/>
<path d="M491.81,1272.39,584.31,1293.36"/>
<path d="M491.81,1272.39,467.73,1351.80"/>
<path d="M1224.12,484.98,1107.92,471.97"/>
<path d="M1224.12,484.98,1214.09,573.69"/>
<path d="M262.25,672.69,231.11,728.63"/>
<path d="M1166.36,854.94,1080.07,872.99"/>
<path d="M1166.36,854.94,1166.90,829.27"/>
<path d="M114.98,1451.13,142.80,1399.75"/>
<path d="M778.65,1387.57,821.30,1405.49"/>
<path d="M778.65,1387.57,607.82,1333.36"/>
<path d="M1395.19,762.95,1312.22,658.69"/>
<path d="M1395.19,762.95,1297.06,805.24"/>
<path d="M1395.19,762.95,1359.03,934.28"/>
<path d="M1395.19,762.95,1450.83,732.90"/>
<path d="M1461.41,1119.62,1486.95,1063.90"/>
<path d="M1461.41,1119.62,1416.46,1069.56"/>
<path d="M1304.19,1323.34,1277.48,1419.78"/>
<path d="M197.72,565.10,177.76,499.47"/>
<path d="M197.72,565.10,105.74,586.01"/>
<path d="M197.72,565.10,285.12,591.30"/>
<path d="M1312.22,658.69,1445.49,648.25"/>
<path d="M1312.22,658.69,1214.09,573.69"/>
<path d="M1312.22,658.69,1263.78,693.87"/>
<path d="M478.76,1030.18,393.84,997.19"/>
<path d="M478.76,1030.18,378.75,1078.37"/>
<path d="M478.76,1030.18,518.16,1089.14"/>
<path d="M478.76,1030.18,538.34,929.41"/>
<path d="M1491.60,432.54,1409.02,323.56"/>
<path d="M1409.02,323.56,1322.72,189.30"/>
<path d="M1409.02,323.56,1272.10,236.85"/>
<path d="M734.17,1005.45,818.84,1032.81"/>
<path d="M734.17,1005.45,695.57,873.79"/>
<path d="M734.17,1005.45,704.54,1040.25"/>
<path d="M734.17,1005.45,817.48,994.43"/>
<path d="M735.81,840.97,695.57,873.79"/>
<path d="M735.81,840.97,817.48,994.43"/>
<path d="M988.87,1107.75,1030.57,1152.39"/>
<path d="M177.76,499.47,95.33,523.90"/>
<path d="M177.76,499.47,167.79,472.48"/>
<path d="M182.66,852.09,231.11,728.63"/>
<path d="M182.66,852.09,93.08,740.70"/>
<path d="M563.03,83.39,442.16,150.65"/>
<path d="M563.03,83.39,525.30,268.41"/>
<path d="M442.16,150.65,525.30,268.41"/>
<path d="M1107.92,471.97,1214.09,573.69"/>
<path d="M327.21,789.65,508.80,860.92"/>
<path d="M327.21,789.65,231.11,728.63"/>
<path d="M1256.82,98.09,1241.19,78.32"/>
<path d="M1256.82,98.09,1322.72,189.30"/>
<path d="M1256.82,98.09,1087.24,210.96"/>
<path d="M1256.82,98.09,1323.05,85.69"/>
<path d="M52.16,285.54,21.43,346.09"/>
<path d="M623.95,1471.78,607.82,1333.36"/>
<path d="M1241.19,78.32,1087.24,210.96"/>
<path d="M476.83,536.89,408.55,567.09"/>
<path d="M584.31,1293.36,607.82,1333.36"/>
<path d="M1322.72,189.30,1272.10,236.85"/>
<path d="M1322.72,189.30,1323.05,85.69"/>
<path d="M1259.73,1022.52,1298.74,996.11"/>
<path d="M496.46,396.50,329.17,314.67"/>
<path d="M870.11,463.62,904.51,497.53"/>
<path d="M1445.49,648.25,1478.98,684.02"/>
<path d="M1214.09,573.69,1263.78,693.87"/>
<path d="M393.84,997.19,378.75,1078.37"/>
<path d="M508.80,860.92,538.34,929.41"/>
<path d="M683.94,213.74,624.78,233.75"/>
<path d="M1297.06,805.24,1359.03,934.28"/>
<path d="M818.84,1032.81,817.48,994.43"/>
<path d="M105.74,586.01,95.33,523.90"/>
<path d="M95.33,523.90,167.79,472.48"/>
<path d="M95.33,523.90,21.43,346.09"/>
<path d="M695.57,873.79,538.34,929.41"/>
<path d="M142.80,1399.75,103.83,1400.29"/>
<path d="M167.79,472.48,21.43,346.09"/>
<path d="M78.47,687.19,93.08,740.70"/>
<path d="M1478.98,684.02,1450.83,732.90"/>
<path d="M1197.81,1422.13,1137.88,1474.65"/>
<path d="M329.17,314.67,525.30,268.41"/>
<path d="M1040.12,1197.28,1030.57,1152.39"/>
<path d="M231.11,728.63,93.08,740.70"/>
<path d="M1486.95,1063.90,1416.46,1069.56"/>
<path d="M624.78,233.75,525.30,268.41"/>
<circle cx="673.59" cy="675.51" r="10"/>
<text x="673.59" y="680.51">R0</text>
<circle cx="750.61" cy="1193.02" r="10"/>
<text x="750.61" y="1198.02">R1</text>
<circle cx="1314.83" cy="565.40" r="10"/>
<text x="1314.83" y="570.40">R2</text>
<circle cx="1188.05" cy="307.67" r="10"/>
<text x="1188.05" y="312.67">R3</text>
<circle cx="1388.49" cy="420.98" r="10"/>
<text x="1388.49" y="425.98">R4</text>
<circle cx="576.81" cy="666.96" r="10"/>
<text x="576.81" y="671.96">R5</text>
<circle cx="752.16" cy="700.27" r="10"/>
<text x="752.16" y="705.27">R6</text>
<circle cx="902.20" cy="419.81" r="10"/>
<text x="902.20" y="424.81">R7</text>
<circle cx="1383.72" cy="1419.75" r="10"/>
<text x="1383.72" y="1424.75">R8</text>
<circle cx="1430.12" cy="164.39" r="10"/>
<text x="1430.12" y="169.39">R9</text>
<circle cx="790.87" cy="121.37" r="10"/>
<text x="790.87" y="126.37">R10</text>
<circle cx="575.98" cy="495.06" r="10"/>
<text x="575.98" y="500.06">R11</text>
<circle cx="1493.58" cy="636.83" r="10"/>
<text x="1493.58" y="641.83">R12</text>
<circle cx="1495.67" cy="1296.40" r="10"/>
<text x="1495.67" y="1301.40">R13</text>
<circle cx="64.18" cy="1371.50" r="10"/>
<text x="64.18" y="1376.50">R14</text>
<circle cx="117.49" cy="627.58" r="10"/>
<text x="117.49" y="632.58">R15</text>
<circle cx="1272.61" cy="940.48" r="10"/>
<text x="1272.61" y="945.48">R16</text>
<circle cx="1219.65" cy="1197.38" r="10"/>
<text x="1219.65" y="1202.38">R17</text>
<circle cx="647.10" cy="152.04" r="10"/>
<text x="647.10" y="157.04">R18</text>
<circle cx="575.44" cy="829.24" r="10"/>
<text x="575.44" y="834.24">R19</text>
<circle cx="4.69" cy="7.42" r="10"/>
<text x="4.69" y="12.42">R20</text>
<circle cx="620.90" cy="754.49" r="10"/>
<text x="620.90" y="759.49">R21</text>
<circle cx="882.11" cy="700.72" r="10"/>
<text x="882.11" y="705.72">R22</text>
<circle cx="951.83" cy="244.50" r="10"/>
<text x="951.83" y="249.50">R23</text>
<circle cx="815.72" cy="421.09" r="10"/>
<text x="815.72" y="426.09">R24</text>
<circle cx="925.38" cy="34.95" r="10"/>
<text x="925.38" y="39.95">R25</text>
<circle cx="261.04" cy="639.25" r="10"/>
<text x="261.04" y="644.25">R26</text>
<circle cx="67.87" cy="206.97" r="10"/>
<text x="67.87" y="211.97">R27</text>
<circle cx="131.73" cy="917.90" r="10"/>
<text x="131.73" y="922.90">R28</text>
<circle cx="986.54" cy="676.67" r="10"/>
<text x="986.54" y="681.67">R29</text>
<circle cx="804.11" cy="329.58" r="10"/>
<text x="804.11" y="334.58">R30</text>
<circle cx="1425.76" cy="1232.82" r="10"/>
<text x="1425.76" y="1237.82">R31</text>
<circle cx="38.16" cy="1256.15" r="10"/>
<text x="38.16" y="1261.15">R32</text>
<circle cx="659.21" cy="720.95" r="10"/>
<text x="659.21" y="725.95">R33</text>
<circle cx="982.40" cy="471.94" r="10"/>
<text x="982.40" y="476.94">R34</text>
<circle cx="700.38" cy="452.49" r="10"/>
<text x="700.38" y="457.49">R35</text>
<circle cx="361.15" cy="1285.10" r="10"/>
<text x="361.15" y="1290.10">R36</text>
<circle cx="1124.92" cy="941.34" r="10"/>
<text x="1124.92" y="946.34">R37</text>
<circle cx="314.92" cy="187.65" r="10"/>
<text x="314.92" y="192.65">R38</text>
<circle cx="772.77" cy="217.33" r="10"/>
<text x="772.77" y="222.33">R39</text>
<circle cx="1029.73" cy="1020.16" r="10"/>
<text x="1029.73" y="1025.16">R40</text>
<circle cx="183.36" cy="1013.36" r="10"/>
<text x="183.36" y="1018.36">R41</text>
<circle cx="507.95" cy="786.26" r="10"/>
<text x="507.95" y="791.26">R42</text>
<circle cx="663.91" cy="989.17" r="10"/>
<text x="663.91" y="994.17">R43</text>
<circle cx="696.34" cy="748.27" r="10"/>
<text x="696.34" y="753.27">R44</text>
<circle cx="295.51" cy="885.07" r="10"/>
<text x="295.51" y="890.07">R45</text>
<circle cx="742.00" cy="146.94" r="10"/>
<text x="742.00" y="151.94">R46</text>
<circle cx="1472.51" cy="1393.32" r="10"/>
<text x="1472.51" y="1398.32">R47</text>
<circle cx="1255.15" cy="1449.35" r="10"/>
<text x="1255.15" y="1454.35">R48</text>
<circle cx="540.15" cy="325.80" r="10"/>
<text x="540.15" y="330.80">R49</text>
<circle cx="342.68" cy="547.42" r="10"/>
<text x="342.68" y="552.42">R50</text>
<circle cx="71.99" cy="1036.24" r="10"/>
<text x="71.99" y="1041.24">R51</text>
<circle cx="1273.92" cy="373.74" r="10"/>
<text x="1273.92" y="378.74">R52</text>
<circle cx="665.49" cy="1177.84" r="10"/>
<text x="665.49" y="1182.84">R53</text>
<circle cx="1142.96" cy="1255.83" r="10"/>
<text x="1142.96" y="1260.83">R54</text>
<circle cx="1026.45" cy="443.81" r="10"/>
<text x="1026.45" y="448.81">R55</text>
<circle cx="505.42" cy="611.25" r="10"/>
<text x="505.42" y="616.25">R56</text>
<circle cx="762.86" cy="527.05" r="10"/>
<text x="762.86" y="532.05">R57</text>
<circle cx="94.94" cy="1431.34" r="10"/>
<text x="94.94" y="1436.34">R58</text>
<circle cx="758.03" cy="1435.06" r="10"/>
<text x="758.03" y="1440.06">R59</text>
<circle cx="671.63" cy="1061.26" r="10"/>
<text x="671.63" y="1066.26">R60</text>
<circle cx="715.94" cy="1267.59" r="10"/>
<text x="715.94" y="1272.59">R61</text>
<circle cx="1055.17" cy="550.16" r="10"/>
<text x="1055.17" y="555.16">R62</text>
<circle cx="225.95" cy="405.71" r="10"/>
<text x="225.95" y="410.71">R63</text>
<circle cx="1000.65" cy="1367.42" r="10"/>
<text x="1000.65" y="1372.42">R64</text>
<circle cx="334.56" cy="1070.11" r="10"/>
<text x="334.56" y="1075.11">R65</text>
<circle cx="500.27" cy="1193.56" r="10"/>
<text x="500.27" y="1198.56">R66</text>
<circle cx="139.22" cy="1366.88" r="10"/>
<text x="139.22" y="1371.88">R67</text>
<circle cx="591.10" cy="585.22" r="10"/>
<text x="591.10" y="590.22">R68</text>
<circle cx="1246.76" cy="794.85" r="10"/>
<text x="1246.76" y="799.85">R69</text>
<circle cx="704.18" cy="715.60" r="10"/>
<text x="704.18" y="720.60">R70</text>
<circle cx="1124.79" cy="1057.37" r="10"/>
<text x="1124.79" y="1062.37">R71</text>
<circle cx="1431.95" cy="1147.62" r="10"/>
<text x="1431.95" y="1152.62">R72</text>
<circle cx="1025.92" cy="239.29" r="10"/>
<text x="1025.92" y="244.29">R73</text>
<circle cx="627.57" cy="1261.33" r="10"/>
<text x="627.57" y="1266.33">R74</text>
<circle cx="170.75" cy="1085.53" r="10"/>
<text x="170.75" y="1090.53">R75</text>
<circle cx="342.07" cy="1227.81" r="10"/>
<text x="342.07" y="1232.81">R76</text>
<circle cx="226.05" cy="505.43" r="10"/>
<text x="226.05" y="510.43">R77</text>
<circle cx="662.19" cy="1092.54" r="10"/>
<text x="662.19" y="1097.54">R78</text>
<circle cx="1310.51" cy="1476.54" r="10"/>
<text x="1310.51" y="1481.54">R79</text>
<circle cx="899.31" cy="311.47" r="10"/>
<text x="899.31" y="316.47">R80</text>
<circle cx="877.68" cy="1087.63" r="10"/>
<text x="877.68" y="1092.63">R81</text>
<circle cx="401.69" cy="1240.17" r="10"/>
<text x="401.69" y="1245.17">R82</text>
<circle cx="1357.75" cy="982.50" r="10"/>
<text x="1357.75" y="987.50">R83</text>
<circle cx="578.91" cy="1480.45" r="10"/>
<text x="578.91" y="1485.45">R84</text>
<circle cx="1125.11" cy="677.13" r="10"/>
<text x="1125.11" y="682.13">R85</text>
<circle cx="981.90" cy="1225.04" r="10"/>
<text x="981.90" y="1230.04">R86</text>
<circle cx="538.30" cy="1402.18" r="10"/>
<text x="538.30" y="1407.18">R87</text>
<circle cx="21.61" cy="821.46" r="10"/>
<text x="21.61" y="826.46">R88</text>
<circle cx="1076.77" cy="1165.11" r="10"/>
<text x="1076.77" y="1170.11">R89</text>
<circle cx="277.87" cy="15.51" r="10"/>
<text x="277.87" y="20.51">R90</text>
<circle cx="62.21" cy="1304.59" r="10"/>
<text x="62.21" y="1309.59">R91</text>
<circle cx="1378.50" cy="390.50" r="10"/>
<text x="1378.50" y="395.50">R92</text>
<circle cx="1134.60" cy="765.84" r="10"/>
<text x="1134.60" y="770.84">R93</text>
<circle cx="640.21" cy="1011.83" r="10"/>
<text x="640.21" y="1016.83">R94</text>
<circle cx="464.40" cy="1255.56" r="10"/>
<text x="464.40" y="1260.56">R95</text>
<circle cx="1472.44" cy="55.55" r="10"/>
<text x="1472.44" y="60.55">R96</text>
<circle cx="394.82" cy="107.85" r="10"/>
<text x="394.82" y="112.85">R97</text>
<circle cx="927.80" cy="1116.99" r="10"/>
<text x="927.80" y="1121.99">R98</text>
<circle cx="67.48" cy="926.97" r="10"/>
<text x="67.48" y="931.97">R99</text>
<circle cx="1038.34" cy="502.67" r="10"/>
<text x="1038.34" y="507.67">R100</text>
<circle cx="832.78" cy="1323.81" r="10"/>
<text x="832.78" y="1328.81">R101</text>
<circle cx="86.34" cy="1144.24" r="10"/>
<text x="86.34" y="1149.24">R102</text>
<circle cx="38.36" cy="16.52" r="10"/>
<text x="38.36" y="21.52">R103</text>
<circle cx="606.36" cy="1086.35" r="10"/>
<text x="606.36" y="1091.35">R104</text>
<circle cx="832.29" cy="1461.77" r="10"/>
<text x="832.29" y="1466.77">R105</text>
<circle cx="446.37" cy="657.07" r="10"/>
<text x="446.37" y="662.07">R106</text>
<circle cx="816.82" cy="590.48" r="10"/>
<text x="816.82" y="595.48">R107</text>
<circle cx="867.75" cy="583.66" r="10"/>
<text x="867.75" y="588.66">R108</text>
<circle cx="756.56" cy="774.32" r="10"/>
<text x="756.56" y="779.32">R109</text>
<circle cx="1119.57" cy="1416.71" r="10"/>
<text x="1119.57" y="1421.71">R110</text>
<circle cx="553.15" cy="813.46" r="10"/>
<text x="553.15" y="818.46">R111</text>
<circle cx="342.68" cy="490.69" r="10"/>
<text x="342.68" y="495.69">R112</text>
<circle cx="554.47" cy="452.85" r="10"/>
<text x="554.47" y="457.85">R113</text>
<circle cx="854.14" cy="978.00" r="10"/>
<text x="854.14" y="983.00">R114</text>
<circle cx="358.87" cy="132.89" r="10"/>
<text x="358.87" y="137.89">R115</text>
<circle cx="195.63" cy="1243.64" r="10"/>
<text x="195.63" y="1248.64">R116</text>
<circle cx="1172.81" cy="913.10" r="10"/>
<text x="1172.81" y="918.10">R117</text>
<circle cx="295.78" cy="371.41" r="10"/>
<text x="295.78" y="376.41">R118</text>
<circle cx="699.73" cy="1454.33" r="10"/>
<text x="699.73" y="1459.33">R119</text>
<circle cx="814.28" cy="1111.30" r="10"/>
<text x="814.28" y="1116.30">R120</text>
<circle cx="377.54" cy="1387.18" r="10"/>
<text x="377.54" y="1392.18">R121</text>
<circle cx="1101.30" cy="1114.31" r="10"/>
<text x="1101.30" y="1119.31">R122</text>
<circle cx="1180.94" cy="1400.56" r="10"/>
<text x="1180.94" y="1405.56">R123</text>
<circle cx="1151.40" cy="1280.42" r="10"/>
<text x="1151.40" y="1285.42">R124</text>
<circle cx="1349.16" cy="1287.62" r="10"/>
<text x="1349.16" y="1292.62">R125</text>
<circle cx="1087.45" cy="620.85" r="10"/>
<text x="1087.45" y="625.85">R126</text>
<circle cx="491.81" cy="1272.39" r="10"/>
<text x="491.81" y="1277.39">R127</text>
<circle cx="1224.12" cy="484.98" r="10"/>
<text x="1224.12" y="489.98">R128</text>
<circle cx="262.25" cy="672.69" r="10"/>
<text x="262.25" y="677.69">R129</text>
<circle cx="1166.36" cy="854.94" r="10"/>
<text x="1166.36" y="859.94">R130</text>
<circle cx="114.98" cy="1451.13" r="10"/>
<text x="114.98" y="1456.13">R131</text>
<circle cx="778.65" cy="1387.57" r="10"/>
<text x="778.65" y="1392.57">R132</text>
<circle cx="202.85" cy="1274.94" r="10"/>
<text x="202.85" y="1279.94">R133</text>
<circle cx="1395.19" cy="762.95" r="10"/>
<text x="1395.19" y="767.95">R134</text>
<circle cx="1461.41" cy="1119.62" r="10"/>
<text x="1461.41" y="1124.62">R135</text>
<circle cx="1304.19" cy="1323.34" r="10"/>
<text x="1304.19" y="1328.34">R136</text>
<circle cx="197.72" cy="565.10" r="10"/>
<text x="197.72" y="570.10">R137</text>
<circle cx="1312.22" cy="658.69" r="10"/>
<text x="1312.22" y="663.69">R138</text>
<circle cx="478.76" cy="1030.18" r="10"/>
<text x="478.76" y="1035.18">R139</text>
<circle cx="1491.60" cy="432.54" r="10"/>
<text x="1491.60" y="437.54">R140</text>
<circle cx="1409.02" cy="323.56" r="10"/>
<text x="1409.02" y="328.56">R141</text>
<circle cx="734.17" cy="1005.45" r="10"/>
<text x="734.17" y="1010.45">R142</text>
<circle cx="1277.48" cy="1419.78" r="10"/>
<text x="1277.48" y="1424.78">R143</text>
<circle cx="864.56" cy="1276.31" r="10"/>
<text x="864.56" y="1281.31">R144</text>
<circle cx="735.81" cy="840.97" r="10"/>
<text x="735.81" y="845.97">R145</text>
<circle cx="988.87" cy="1107.75" r="10"/>
<text x="988.87" y="1112.75">R146</text>
<circle cx="177.76" cy="499.47" r="10"/>
<text x="177.76" y="504.47">R147</text>
<circle cx="182.66" cy="852.09" r="10"/>
<text x="182.66" y="857.09">R148</text>
<circle cx="563.03" cy="83.39" r="10"/>
<text x="563.03" y="88.39">R149</text>
<circle cx="442.16" cy="150.65" r="10"/>
<text x="442.16" y="155.65">R150</text>
<circle cx="940.65" cy="645.28" r="10"/>
<text x="940.65" y="650.28">R151</text>
<circle cx="1107.92" cy="471.97" r="10"/>
<text x="1107.92" y="476.97">R152</text>
<circle cx="327.21" cy="789.65" r="10"/>
<text x="327.21" y="794.65">R153</text>
<circle cx="113.56" cy="187.88" r="10"/>
<text x="113.56" y="192.88">R154</text>
<circle cx="1256.82" cy="98.09" r="10"/>
<text x="1256.82" y="103.09">R155</text>
<circle cx="821.30" cy="1405.49" r="10"/>
<text x="821.30" y="1410.49">R156</text>
<circle cx="46.90" cy="1332.40" r="10"/>
<text x="46.90" y="1337.40">R157</text>
<circle cx="52.16" cy="285.54" r="10"/>
<text x="52.16" y="290.54">R158</text>
<circle cx="623.95" cy="1471.78" r="10"/>
<text x="623.95" y="1476.78">R159</text>
<circle cx="1241.19" cy="78.32" r="10"/>
<text x="1241.19" y="83.32">R160</text>
<circle cx="476.83" cy="536.89" r="10"/>
<text x="476.83" y="541.89">R161</text>
<circle cx="584.31" cy="1293.36" r="10"/>
<text x="584.31" y="1298.36">R162</text>
<circle cx="227.09" cy="999.36" r="10"/>
<text x="227.09" y="1004.36">R163</text>
<circle cx="1322.72" cy="189.30" r="10"/>
<text x="1322.72" y="194.30">R164</text>
<circle cx="607.82" cy="1333.36" r="10"/>
<text x="607.82" y="1338.36">R165</text>
<circle cx="1080.07" cy="872.99" r="10"/>
<text x="1080.07" y="877.99">R166</text>
<circle cx="1272.10" cy="236.85" r="10"/>
<text x="1272.10" y="241.85">R167</text>
<circle cx="1034.14" cy="281.76" r="10"/>
<text x="1034.14" y="286.76">R168</text>
<circle cx="1259.73" cy="1022.52" r="10"/>
<text x="1259.73" y="1027.52">R169</text>
<circle cx="496.46" cy="396.50" r="10"/>
<text x="496.46" y="401.50">R170</text>
<circle cx="870.11" cy="463.62" r="10"/>
<text x="870.11" y="468.62">R171</text>
<circle cx="1298.74" cy="996.11" r="10"/>
<text x="1298.74" y="1001.11">R172</text>
<circle cx="1445.49" cy="648.25" r="10"/>
<text x="1445.49" y="653.25">R173</text>
<circle cx="835.26" cy="321.28" r="10"/>
<text x="835.26" y="326.28">R174</text>
<circle cx="1214.09" cy="573.69" r="10"/>
<text x="1214.09" y="578.69">R175</text>
<circle cx="393.84" cy="997.19" r="10"/>
<text x="393.84" y="1002.19">R176</text>
<circle cx="508.80" cy="860.92" r="10"/>
<text x="508.80" y="865.92">R177</text>
<circle cx="683.94" cy="213.74" r="10"/>
<text x="683.94" y="218.74">R178</text>
<circle cx="1435.82" cy="1358.49" r="10"/>
<text x="1435.82" y="1363.49">R179</text>
<circle cx="1297.06" cy="805.24" r="10"/>
<text x="1297.06" y="810.24">R180</text>
<circle cx="748.26" cy="624.73" r="10"/>
<text x="748.26" y="629.73">R181</text>
<circle cx="467.73" cy="1351.80" r="10"/>
<text x="467.73" y="1356.80">R182</text>
<circle cx="1166.90" cy="829.27" r="10"/>
<text x="1166.90" y="834.27">R183</text>
<circle cx="3.60" cy="1014.39" r="10"/>
<text x="3.60" y="1019.39">R184</text>
<circle cx="408.55" cy="567.09" r="10"/>
<text x="408.55" y="572.09">R185</text>
<circle cx="1359.03" cy="934.28" r="10"/>
<text x="1359.03" y="939.28">R186</text>
<circle cx="818.84" cy="1032.81" r="10"/>
<text x="818.84" y="1037.81">R187</text>
<circle cx="105.74" cy="586.01" r="10"/>
<text x="105.74" y="591.01">R188</text>
<circle cx="95.33" cy="523.90" r="10"/>
<text x="95.33" y="528.90">R189</text>
<circle cx="695.57" cy="873.79" r="10"/>
<text x="695.57" y="878.79">R190</text>
<circle cx="142.80" cy="1399.75" r="10"/>
<text x="142.80" y="1404.75">R191</text>
<circle cx="167.79" cy="472.48" r="10"/>
<text x="167.79" y="477.48">R192</text>
<circle cx="78.47" cy="687.19" r="10"/>
<text x="78.47" y="692.19">R193</text>
<circle cx="1478.98" cy="684.02" r="10"/>
<text x="1478.98" y="689.02">R194</text>
<circle cx="1197.81" cy="1422.13" r="10"/>
<text x="1197.81" y="1427.13">R195</text>
<circle cx="906.38" cy="82.71" r="10"/>
<text x="906.38" y="87.71">R196</text>
<circle cx="1087.24" cy="210.96" r="10"/>
<text x="1087.24" y="215.96">R197</text>
<circle cx="378.75" cy="1078.37" r="10"/>
<text x="378.75" y="1083.37">R198</text>
<circle cx="1450.83" cy="732.90" r="10"/>
<text x="1450.83" y="737.90">R199</text>
<circle cx="704.54" cy="1040.25" r="10"/>
<text x="704.54" y="1045.25">R200</text>
<circle cx="904.51" cy="497.53" r="10"/>
<text x="904.51" y="502.53">R201</text>
<circle cx="1263.78" cy="693.87" r="10"/>
<text x="1263.78" y="698.87">R202</text>
<circle cx="1352.46" cy="1469.93" r="10"/>
<text x="1352.46" y="1474.93">R203</text>
<circle cx="103.83" cy="1400.29" r="10"/>
<text x="103.83" y="1405.29">R204</text>
<circle cx="1323.05" cy="85.69" r="10"/>
<text x="1323.05" y="90.69">R205</text>
<circle cx="518.16" cy="1089.14" r="10"/>
<text x="518.16" y="1094.14">R206</text>
<circle cx="329.17" cy="314.67" r="10"/>
<text x="329.17" y="319.67">R207</text>
<circle cx="252.60" cy="422.06" r="10"/>
<text x="252.60" y="427.06">R208</text>
<circle cx="1040.12" cy="1197.28" r="10"/>
<text x="1040.12" y="1202.28">R209</text>
<circle cx="231.11" cy="728.63" r="10"/>
<text x="231.11" y="733.63">R210</text>
<circle cx="1457.50" cy="1209.05" r="10"/>
<text x="1457.50" y="1214.05">R211</text>
<circle cx="93.08" cy="740.70" r="10"/>
<text x="93.08" y="745.70">R212</text>
<circle cx="21.43" cy="346.09" r="10"/>
<text x="21.43" y="351.09">R213</text>
<circle cx="591.78" cy="521.66" r="10"/>
<text x="591.78" y="526.66">R214</text>
<circle cx="1486.95" cy="1063.90" r="10"/>
<text x="1486.95" y="1068.90">R215</text>
<circle cx="624.78" cy="233.75" r="10"/>
<text x="624.78" y="238.75">R216</text>
<circle cx="1030.57" cy="1152.39" r="10"/>
<text x="1030.57" y="1157.39">R217</text>
<circle cx="525.30" cy="268.41" r="10"/>
<text x="525.30" y="273.41">R218</text>
<circle cx="285.12" cy="591.30" r="10"/>
<text x="285.12" y="596.30">R219</text>
<circle cx="817.48" cy="994.43" r="10"/>
<text x="817.48" y="999.43">R220</text>
<circle cx="1137.88" cy="1474.65" r="10"/>
<text x="1137.88" y="1479.65">R221</text>
<circle cx="1416.46" cy="1069.56" r="10"/>
<text x="1416.46" y="1074.56">R222</text>
<circle cx="538.34" cy="929.41" r="10"/>
<text x="538.34" y="934.41">R223</text>
<circle cx="1131.80" cy="1389.35" r="10"/>
<text x="1131.80" y="1394.35">R224</text>
</svg>
