<svg id="topo" viewBox="-71.54 -1561.64 1642.55 1630.57" xmlns="http://www.w3.org/2000/svg">
<style>#topo path {fill: none; stroke: grey; stroke-width: 5.0000px;} #topo circle {fill: lightblue; stroke: none; stroke-width: 0.3px; vector-effect: non-scaling-stroke; r: 10.0000px;} #topo text {fill: black; stroke: none; font-size: 15.0000px; font-family: sans-serif; text-anchor:middle; transform: translateY(0.3em);} #topo path.country {fill: lightgrey; stroke: black; stroke-width: 1px; vector-effect: non-scaling-stroke; visibility: visible;} #topo path.selection {fill: none; stroke: red; stroke-width: 1px; vector-effect: non-scaling-stroke; visibility: visible;} #topo path.utilization {visibility: hidden;}</style>
<path data-id="0-16" d="M368.40,-1409.67,462.53,-1363.47"/>
<path data-id="0-130" d="M368.40,-1409.67,349.27,-1391.58"/>
<path data-id="0-188" d="M368.40,-1409.67,363.29,-1457.97"/>
<path data-id="1-6" d="M646.80,-994.40,572.88,-1090.13"/>
<path data-id="1-64" d="M646.80,-994.40,695.50,-966.49"/>
<path data-id="1-113" d="M646.80,-994.40,486.33,-924.38"/>
<path data-id="1-137" d="M646.80,-994.40,651.02,-1111.95"/>
<path data-id="1-186" d="M646.80,-994.40,717.26,-1035.39"/>
<path data-id="2-4" d="M1281.02,-710.18,1235.06,-618.57"/>
<path data-id="2-28" d="M1281.02,-710.18,1354.77,-720.96"/>
<path data-id="2-76" d="M1281.02,-710.18,1338.49,-680.38"/>
<path data-id="2-99" d="M1281.02,-710.18,1333.72,-754.71"/>
<path data-id="2-206" d="M1281.02,-710.18,1242.14,-814.02"/>
<path data-id="3-40" d="M798.86,-1083.46,848.37,-1099.49"/>
<path data-id="3-46" d="M798.86,-1083.46,728.28,-1069.73"/>
<path data-id="3-150" d="M798.86,-1083.46,794.04,-1039.11"/>
<path data-id="4-62" d="M1235.06,-618.57,1344.99,-531.65"/>
<path data-id="4-76" d="M1235.06,-618.57,1338.49,-680.38"/>
<path data-id="4-91" d="M1235.06,-618.57,1137.36,-622.57"/>
<path data-id="5-20" d="M1487.08,-1210.79,1422.81,-1338.53"/>
<path data-id="5-49" d="M1487.08,-1210.79,1276.28,-1251.70"/>
<path data-id="5-108" d="M1487.08,-1210.79,1357.53,-1044.28"/>
<path data-id="5-214" d="M1487.08,-1210.79,1315.15,-1111.04"/>
<path data-id="5-219" d="M1487.08,-1210.79,1441.50,-1017.73"/>
<path data-id="6-34" d="M572.88,-1090.13,535.23,-1064.76"/>
<path data-id="6-93" d="M572.88,-1090.13,528.91,-1123.81"/>
<path data-id="6-137" d="M572.88,-1090.13,651.02,-1111.95"/>
<path data-id="6-170" d="M572.88,-1090.13,574.13,-1151.47"/>
<path data-id="7-12" d="M1056.86,-647.80,894.64,-633.05"/>
<path data-id="7-13" d="M1056.86,-647.80,1087.46,-695.35"/>
<path data-id="7-154" d="M1056.86,-647.80,965.13,-536.05"/>
<path data-id="7-182" d="M1056.86,-647.80,1117.48,-603.22"/>
<path data-id="8-87" d="M300.13,-482.49,317.89,-389.95"/>
<path data-id="8-111" d="M300.13,-482.49,487.55,-427.55"/>
<path data-id="8-123" d="M300.13,-482.49,266.52,-461.24"/>
<path data-id="8-159" d="M300.13,-482.49,306.14,-540.39"/>
<path data-id="9-100" d="M1135.11,-72.52,1039.85,-65.75"/>
<path data-id="9-148" d="M1135.11,-72.52,1288.70,-129.06"/>
<path data-id="9-185" d="M1135.11,-72.52,1123.39,-106.31"/>
<path data-id="9-217" d="M1135.11,-72.52,1112.26,-5.18"/>
<path data-id="10-156" d="M1181.42,-1432.49,1144.27,-1351.74"/>
<path data-id="10-178" d="M1181.42,-1432.49,1388.17,-1483.64"/>
<path data-id="10-224" d="M1181.42,-1432.49,1205.71,-1367.58"/>
<path data-id="11-24" d="M218.99,-245.36,302.55,-283.48"/>
<path data-id="11-107" d="M218.99,-245.36,236.37,-199.40"/>
<path data-id="11-162" d="M218.99,-245.36,208.20,-275.86"/>
<path data-id="12-52" d="M894.64,-633.05,745.98,-618.96"/>
<path data-id="12-154" d="M894.64,-633.05,965.13,-536.05"/>
<path data-id="12-176" d="M894.64,-633.05,852.42,-741.57"/>
<path data-id="12-198" d="M894.64,-633.05,799.19,-515.68"/>
<path data-id="13-39" d="M1087.46,-695.35,1099.78,-767.21"/>
<path data-id="13-91" d="M1087.46,-695.35,1137.36,-622.57"/>
<path data-id="14-88" d="M61.72,-119.21,53.85,-200.43"/>
<path data-id="14-105" d="M61.72,-119.21,137.58,-135.07"/>
<path data-id="14-205" d="M61.72,-119.21,92.70,-84.15"/>
<path data-id="15-55" d="M856.69,-1311.32,935.95,-1277.85"/>
<path data-id="15-89" d="M856.69,-1311.32,844.24,-1271.36"/>
<path data-id="15-173" d="M856.69,-1311.32,923.24,-1331.77"/>
<path data-id="15-200" d="M856.69,-1311.32,858.34,-1385.03"/>
<path data-id="16-26" d="M462.53,-1363.47,385.21,-1339.44"/>
<path data-id="16-131" d="M462.53,-1363.47,588.12,-1459.36"/>
<path data-id="16-207" d="M462.53,-1363.47,511.78,-1301.96"/>
<path data-id="17-71" d="M49.09,-244.47,68.75,-278.66"/>
<path data-id="17-88" d="M49.09,-244.47,53.85,-200.43"/>
<path data-id="18-51" d="M324.66,-37.64,455.83,-16.82"/>
<path data-id="18-161" d="M324.66,-37.64,413.24,-224.81"/>
<path data-id="18-166" d="M324.66,-37.64,266.33,-61.01"/>
<path data-id="18-201" d="M324.66,-37.64,304.58,-17.20"/>
<path data-id="19-58" d="M691.16,-285.63,676.21,-247.65"/>
<path data-id="19-80" d="M691.16,-285.63,616.92,-366.49"/>
<path data-id="19-196" d="M691.16,-285.63,710.63,-313.14"/>
<path data-id="20-30" d="M1422.81,-1338.53,1450.88,-1355.09"/>
<path data-id="20-49" d="M1422.81,-1338.53,1276.28,-1251.70"/>
<path data-id="20-194" d="M1422.81,-1338.53,1420.07,-1369.17"/>
<path data-id="21-27" d="M1094.49,-1048.36,1085.62,-995.49"/>
<path data-id="21-102" d="M1094.49,-1048.36,1151.51,-1086.80"/>
<path data-id="21-145" d="M1094.49,-1048.36,1067.69,-1106.08"/>
<path data-id="22-31" d="M190.62,-1007.47,15.17,-976.73"/>
<path data-id="22-81" d="M190.62,-1007.47,170.34,-1072.30"/>
<path data-id="22-98" d="M190.62,-1007.47,260.05,-1000.62"/>
<path data-id="22-184" d="M190.62,-1007.47,192.23,-979.31"/>
<path data-id="23-70" d="M383.34,-933.51,364.86,-975.38"/>
<path data-id="23-113" d="M383.34,-933.51,486.33,-924.38"/>
<path data-id="23-133" d="M383.34,-933.51,354.94,-922.49"/>
<path data-id="23-172" d="M383.34,-933.51,479.89,-864.76"/>
<path data-id="24-50" d="M302.55,-283.48,314.66,-347.79"/>
<path data-id="24-163" d="M302.55,-283.48,237.80,-308.06"/>
<path data-id="24-197" d="M302.55,-283.48,342.25,-256.75"/>
<path data-id="25-37" d="M1172.98,-290.34,1249.64,-377.91"/>
<path data-id="25-59" d="M1172.98,-290.34,1201.17,-242.94"/>
<path data-id="25-72" d="M1172.98,-290.34,1146.76,-250.45"/>
<path data-id="25-151" d="M1172.98,-290.34,1103.98,-350.09"/>
<path data-id="25-204" d="M1172.98,-290.34,1271.16,-301.20"/>
<path data-id="26-117" d="M385.21,-1339.44,361.54,-1236.39"/>
<path data-id="26-130" d="M385.21,-1339.44,349.27,-1391.58"/>
<path data-id="27-53" d="M1085.62,-995.49,1108.97,-946.38"/>
<path data-id="28-63" d="M1354.77,-720.96,1424.53,-743.52"/>
<path data-id="28-76" d="M1354.77,-720.96,1338.49,-680.38"/>
<path data-id="28-99" d="M1354.77,-720.96,1333.72,-754.71"/>
<path data-id="28-223" d="M1354.77,-720.96,1376.03,-694.94"/>
<path data-id="29-123" d="M217.62,-531.88,266.52,-461.24"/>
<path data-id="29-124" d="M217.62,-531.88,286.62,-712.47"/>
<path data-id="29-128" d="M217.62,-531.88,211.13,-455.72"/>
<path data-id="29-132" d="M217.62,-531.88,97.65,-609.22"/>
<path data-id="29-159" d="M217.62,-531.88,306.14,-540.39"/>
<path data-id="30-194" d="M1450.88,-1355.09,1420.07,-1369.17"/>
<path data-id="31-81" d="M15.17,-976.73,170.34,-1072.30"/>
<path data-id="31-110" d="M15.17,-976.73,3.12,-1119.17"/>
<path data-id="31-184" d="M15.17,-976.73,192.23,-979.31"/>
<path data-id="31-221" d="M15.17,-976.73,69.56,-843.70"/>
<path data-id="32-103" d="M509.80,-720.06,533.39,-763.19"/>
<path data-id="32-147" d="M509.80,-720.06,514.49,-616.04"/>
<path data-id="32-164" d="M509.80,-720.06,558.74,-742.67"/>
<path data-id="32-195" d="M509.80,-720.06,442.81,-783.41"/>
<path data-id="32-216" d="M509.80,-720.06,398.68,-630.08"/>
<path data-id="33-121" d="M800.83,-995.84,967.01,-845.37"/>
<path data-id="33-150" d="M800.83,-995.84,794.04,-1039.11"/>
<path data-id="33-215" d="M800.83,-995.84,756.86,-938.90"/>
<path data-id="34-70" d="M535.23,-1064.76,364.86,-975.38"/>
<path data-id="34-93" d="M535.23,-1064.76,528.91,-1123.81"/>
<path data-id="34-113" d="M535.23,-1064.76,486.33,-924.38"/>
<path data-id="35-161" d="M449.42,-199.34,413.24,-224.81"/>
<path data-id="35-174" d="M449.42,-199.34,520.21,-334.64"/>
<path data-id="35-181" d="M449.42,-199.34,480.07,-145.69"/>
<path data-id="36-45" d="M824.41,-736.00,790.48,-737.98"/>
<path data-id="36-176" d="M824.41,-736.00,852.42,-741.57"/>
<path data-id="37-61" d="M1249.64,-377.91,1350.71,-330.86"/>
<path data-id="37-62" d="M1249.64,-377.91,1344.99,-531.65"/>
<path data-id="37-182" d="M1249.64,-377.91,1117.48,-603.22"/>
<path data-id="37-204" d="M1249.64,-377.91,1271.16,-301.20"/>
<path data-id="38-85" d="M111.94,-1180.23,108.87,-1132.76"/>
<path data-id="38-160" d="M111.94,-1180.23,190.20,-1271.79"/>
<path data-id="38-168" d="M111.94,-1180.23,39.46,-1195.93"/>
<path data-id="39-57" d="M1099.78,-767.21,1122.57,-785.74"/>
<path data-id="39-140" d="M1099.78,-767.21,1038.22,-867.04"/>
<path data-id="40-104" d="M848.37,-1099.49,898.22,-1125.13"/>
<path data-id="40-126" d="M848.37,-1099.49,882.10,-1070.83"/>
<path data-id="41-43" d="M1115.68,-901.32,1174.79,-906.83"/>
<path data-id="41-53" d="M1115.68,-901.32,1108.97,-946.38"/>
<path data-id="41-57" d="M1115.68,-901.32,1122.57,-785.74"/>
<path data-id="41-118" d="M1115.68,-901.32,1145.57,-948.91"/>
<path data-id="41-140" d="M1115.68,-901.32,1038.22,-867.04"/>
<path data-id="42-71" d="M150.91,-274.28,68.75,-278.66"/>
<path data-id="42-162" d="M150.91,-274.28,208.20,-275.86"/>
<path data-id="42-187" d="M150.91,-274.28,145.24,-385.30"/>
<path data-id="42-190" d="M150.91,-274.28,180.00,-161.84"/>
<path data-id="43-60" d="M1174.79,-906.83,1245.14,-944.67"/>
<path data-id="43-94" d="M1174.79,-906.83,1238.36,-883.83"/>
<path data-id="43-118" d="M1174.79,-906.83,1145.57,-948.91"/>
<path data-id="44-62" d="M1465.63,-433.99,1344.99,-531.65"/>
<path data-id="44-69" d="M1465.63,-433.99,1386.19,-327.37"/>
<path data-id="44-116" d="M1465.63,-433.99,1496.35,-249.04"/>
<path data-id="44-165" d="M1465.63,-433.99,1418.99,-586.01"/>
<path data-id="45-52" d="M790.48,-737.98,745.98,-618.96"/>
<path data-id="45-220" d="M790.48,-737.98,778.29,-785.25"/>
<path data-id="46-137" d="M728.28,-1069.73,651.02,-1111.95"/>
<path data-id="46-150" d="M728.28,-1069.73,794.04,-1039.11"/>
<path data-id="46-186" d="M728.28,-1069.73,717.26,-1035.39"/>
<path data-id="47-78" d="M1015.49,-207.65,1058.91,-216.01"/>
<path data-id="47-97" d="M1015.49,-207.65,1000.26,-148.27"/>
<path data-id="47-141" d="M1015.49,-207.65,935.97,-307.92"/>
<path data-id="47-155" d="M1015.49,-207.65,895.29,-252.21"/>
<path data-id="48-86" d="M815.31,-439.45,884.51,-362.66"/>
<path data-id="48-144" d="M815.31,-439.45,738.72,-317.89"/>
<path data-id="48-154" d="M815.31,-439.45,965.13,-536.05"/>
<path data-id="48-198" d="M815.31,-439.45,799.19,-515.68"/>
<path data-id="48-202" d="M815.31,-439.45,704.33,-348.58"/>
<path data-id="49-65" d="M1276.28,-1251.70,1240.91,-1295.30"/>
<path data-id="49-214" d="M1276.28,-1251.70,1315.15,-1111.04"/>
<path data-id="49-218" d="M1276.28,-1251.70,1146.21,-1190.43"/>
<path data-id="50-87" d="M314.66,-347.79,317.89,-389.95"/>
<path data-id="50-125" d="M314.66,-347.79,400.64,-323.81"/>
<path data-id="50-163" d="M314.66,-347.79,237.80,-308.06"/>
<path data-id="51-115" d="M455.83,-16.82,527.42,-65.39"/>
<path data-id="52-152" d="M745.98,-618.96,694.30,-551.43"/>
<path data-id="52-198" d="M745.98,-618.96,799.19,-515.68"/>
<path data-id="53-118" d="M1108.97,-946.38,1145.57,-948.91"/>
<path data-id="54-107" d="M232.20,-117.59,236.37,-199.40"/>
<path data-id="54-166" d="M232.20,-117.59,266.33,-61.01"/>
<path data-id="54-183" d="M232.20,-117.59,131.52,-94.50"/>
<path data-id="54-190" d="M232.20,-117.59,180.00,-161.84"/>
<path data-id="55-89" d="M935.95,-1277.85,844.24,-1271.36"/>
<path data-id="55-142" d="M935.95,-1277.85,1028.04,-1219.02"/>
<path data-id="55-173" d="M935.95,-1277.85,923.24,-1331.77"/>
<path data-id="55-192" d="M935.95,-1277.85,973.99,-1162.91"/>
<path data-id="56-70" d="M361.19,-1167.50,364.86,-975.38"/>
<path data-id="56-93" d="M361.19,-1167.50,528.91,-1123.81"/>
<path data-id="56-112" d="M361.19,-1167.50,255.29,-1143.93"/>
<path data-id="56-117" d="M361.19,-1167.50,361.54,-1236.39"/>
<path data-id="56-122" d="M361.19,-1167.50,530.61,-1225.83"/>
<path data-id="56-177" d="M361.19,-1167.50,281.81,-1236.25"/>
<path data-id="57-140" d="M1122.57,-785.74,1038.22,-867.04"/>
<path data-id="57-206" d="M1122.57,-785.74,1242.14,-814.02"/>
<path data-id="58-127" d="M676.21,-247.65,706.21,-108.64"/>
<path data-id="58-181" d="M676.21,-247.65,480.07,-145.69"/>
<path data-id="59-68" d="M1201.17,-242.94,1345.28,-211.56"/>
<path data-id="59-72" d="M1201.17,-242.94,1146.76,-250.45"/>
<path data-id="59-148" d="M1201.17,-242.94,1288.70,-129.06"/>
<path data-id="59-179" d="M1201.17,-242.94,1336.22,-182.06"/>
<path data-id="59-204" d="M1201.17,-242.94,1271.16,-301.20"/>
<path data-id="60-74" d="M1245.14,-944.67,1264.54,-1029.73"/>
<path data-id="60-94" d="M1245.14,-944.67,1238.36,-883.83"/>
<path data-id="60-222" d="M1245.14,-944.67,1351.31,-927.13"/>
<path data-id="61-62" d="M1350.71,-330.86,1344.99,-531.65"/>
<path data-id="61-68" d="M1350.71,-330.86,1345.28,-211.56"/>
<path data-id="61-69" d="M1350.71,-330.86,1386.19,-327.37"/>
<path data-id="61-204" d="M1350.71,-330.86,1271.16,-301.20"/>
<path data-id="62-76" d="M1344.99,-531.65,1338.49,-680.38"/>
<path data-id="62-165" d="M1344.99,-531.65,1418.99,-586.01"/>
<path data-id="63-171" d="M1424.53,-743.52,1427.60,-926.99"/>
<path data-id="63-210" d="M1424.53,-743.52,1493.82,-667.21"/>
<path data-id="63-223" d="M1424.53,-743.52,1376.03,-694.94"/>
<path data-id="64-103" d="M695.50,-966.49,533.39,-763.19"/>
<path data-id="64-186" d="M695.50,-966.49,717.26,-1035.39"/>
<path data-id="64-215" d="M695.50,-966.49,756.86,-938.90"/>
<path data-id="65-138" d="M1240.91,-1295.30,1395.44,-1396.39"/>
<path data-id="65-218" d="M1240.91,-1295.30,1146.21,-1190.43"/>
<path data-id="65-224" d="M1240.91,-1295.30,1205.71,-1367.58"/>
<path data-id="66-96" d="M1413.21,-140.21,1431.26,-170.58"/>
<path data-id="66-129" d="M1413.21,-140.21,1317.63,-82.95"/>
<path data-id="66-158" d="M1413.21,-140.21,1494.59,-94.59"/>
<path data-id="66-179" d="M1413.21,-140.21,1336.22,-182.06"/>
<path data-id="67-120" d="M126.35,-1410.02,144.66,-1429.28"/>
<path data-id="67-160" d="M126.35,-1410.02,190.20,-1271.79"/>
<path data-id="67-189" d="M126.35,-1410.02,53.23,-1427.51"/>
<path data-id="68-69" d="M1345.28,-211.56,1386.19,-327.37"/>
<path data-id="68-96" d="M1345.28,-211.56,1431.26,-170.58"/>
<path data-id="68-179" d="M1345.28,-211.56,1336.22,-182.06"/>
<path data-id="68-204" d="M1345.28,-211.56,1271.16,-301.20"/>
<path data-id="69-116" d="M1386.19,-327.37,1496.35,-249.04"/>
<path data-id="70-98" d="M364.86,-975.38,260.05,-1000.62"/>
<path data-id="70-133" d="M364.86,-975.38,354.94,-922.49"/>
<path data-id="71-143" d="M68.75,-278.66,14.71,-352.88"/>
<path data-id="71-187" d="M68.75,-278.66,145.24,-385.30"/>
<path data-id="72-78" d="M1146.76,-250.45,1058.91,-216.01"/>
<path data-id="72-169" d="M1146.76,-250.45,1128.04,-142.63"/>
<path data-id="73-175" d="M698.32,-1487.52,801.57,-1447.80"/>
<path data-id="73-193" d="M698.32,-1487.52,808.47,-1485.21"/>
<path data-id="73-212" d="M698.32,-1487.52,682.99,-1446.34"/>
<path data-id="74-102" d="M1264.54,-1029.73,1151.51,-1086.80"/>
<path data-id="74-108" d="M1264.54,-1029.73,1357.53,-1044.28"/>
<path data-id="74-214" d="M1264.54,-1029.73,1315.15,-1111.04"/>
<path data-id="74-222" d="M1264.54,-1029.73,1351.31,-927.13"/>
<path data-id="75-86" d="M1027.92,-410.30,884.51,-362.66"/>
<path data-id="75-141" d="M1027.92,-410.30,935.97,-307.92"/>
<path data-id="75-154" d="M1027.92,-410.30,965.13,-536.05"/>
<path data-id="75-182" d="M1027.92,-410.30,1117.48,-603.22"/>
<path data-id="75-203" d="M1027.92,-410.30,1088.40,-398.58"/>
<path data-id="76-223" d="M1338.49,-680.38,1376.03,-694.94"/>
<path data-id="77-124" d="M71.47,-729.45,286.62,-712.47"/>
<path data-id="77-157" d="M71.47,-729.45,47.47,-755.44"/>
<path data-id="77-213" d="M71.47,-729.45,37.53,-708.12"/>
<path data-id="78-151" d="M1058.91,-216.01,1103.98,-350.09"/>
<path data-id="78-169" d="M1058.91,-216.01,1128.04,-142.63"/>
<path data-id="79-104" d="M990.78,-1092.71,898.22,-1125.13"/>
<path data-id="79-126" d="M990.78,-1092.71,882.10,-1070.83"/>
<path data-id="79-145" d="M990.78,-1092.71,1067.69,-1106.08"/>
<path data-id="79-211" d="M990.78,-1092.71,989.95,-1135.21"/>
<path data-id="80-109" d="M616.92,-366.49,669.21,-541.69"/>
<path data-id="80-174" d="M616.92,-366.49,520.21,-334.64"/>
<path data-id="80-202" d="M616.92,-366.49,704.33,-348.58"/>
<path data-id="81-95" d="M170.34,-1072.30,155.20,-1125.48"/>
<path data-id="81-112" d="M170.34,-1072.30,255.29,-1143.93"/>
<path data-id="82-114" d="M638.12,-1349.72,590.54,-1356.86"/>
<path data-id="82-167" d="M638.12,-1349.72,681.24,-1249.53"/>
<path data-id="82-212" d="M638.12,-1349.72,682.99,-1446.34"/>
<path data-id="83-92" d="M274.68,-1456.63,188.25,-1461.36"/>
<path data-id="83-130" d="M274.68,-1456.63,349.27,-1391.58"/>
<path data-id="83-160" d="M274.68,-1456.63,190.20,-1271.79"/>
<path data-id="83-191" d="M274.68,-1456.63,298.02,-1473.17"/>
<path data-id="84-86" d="M896.15,-295.20,884.51,-362.66"/>
<path data-id="84-136" d="M896.15,-295.20,833.43,-263.57"/>
<path data-id="84-141" d="M896.15,-295.20,935.97,-307.92"/>
<path data-id="84-155" d="M896.15,-295.20,895.29,-252.21"/>
<path data-id="85-95" d="M108.87,-1132.76,155.20,-1125.48"/>
<path data-id="85-110" d="M108.87,-1132.76,3.12,-1119.17"/>
<path data-id="86-141" d="M884.51,-362.66,935.97,-307.92"/>
<path data-id="86-144" d="M884.51,-362.66,738.72,-317.89"/>
<path data-id="86-154" d="M884.51,-362.66,965.13,-536.05"/>
<path data-id="87-123" d="M317.89,-389.95,266.52,-461.24"/>
<path data-id="88-105" d="M53.85,-200.43,137.58,-135.07"/>
<path data-id="89-104" d="M844.24,-1271.36,898.22,-1125.13"/>
<path data-id="89-167" d="M844.24,-1271.36,681.24,-1249.53"/>
<path data-id="90-97" d="M846.01,-58.70,1000.26,-148.27"/>
<path data-id="90-100" d="M846.01,-58.70,1039.85,-65.75"/>
<path data-id="90-101" d="M846.01,-58.70,825.91,-122.84"/>
<path data-id="91-182" d="M1137.36,-622.57,1117.48,-603.22"/>
<path data-id="92-120" d="M188.25,-1461.36,144.66,-1429.28"/>
<path data-id="93-170" d="M528.91,-1123.81,574.13,-1151.47"/>
<path data-id="94-206" d="M1238.36,-883.83,1242.14,-814.02"/>
<path data-id="94-222" d="M1238.36,-883.83,1351.31,-927.13"/>
<path data-id="95-112" d="M155.20,-1125.48,255.29,-1143.93"/>
<path data-id="96-116" d="M1431.26,-170.58,1496.35,-249.04"/>
<path data-id="96-158" d="M1431.26,-170.58,1494.59,-94.59"/>
<path data-id="97-100" d="M1000.26,-148.27,1039.85,-65.75"/>
<path data-id="97-101" d="M1000.26,-148.27,825.91,-122.84"/>
<path data-id="97-169" d="M1000.26,-148.27,1128.04,-142.63"/>
<path data-id="97-185" d="M1000.26,-148.27,1123.39,-106.31"/>
<path data-id="98-112" d="M260.05,-1000.62,255.29,-1143.93"/>
<path data-id="98-184" d="M260.05,-1000.62,192.23,-979.31"/>
<path data-id="99-206" d="M1333.72,-754.71,1242.14,-814.02"/>
<path data-id="99-222" d="M1333.72,-754.71,1351.31,-927.13"/>
<path data-id="100-185" d="M1039.85,-65.75,1123.39,-106.31"/>
<path data-id="100-217" d="M1039.85,-65.75,1112.26,-5.18"/>
<path data-id="101-119" d="M825.91,-122.84,801.52,-251.77"/>
<path data-id="101-127" d="M825.91,-122.84,706.21,-108.64"/>
<path data-id="101-155" d="M825.91,-122.84,895.29,-252.21"/>
<path data-id="102-145" d="M1151.51,-1086.80,1067.69,-1106.08"/>
<path data-id="102-218" d="M1151.51,-1086.80,1146.21,-1190.43"/>
<path data-id="103-164" d="M533.39,-763.19,558.74,-742.67"/>
<path data-id="103-172" d="M533.39,-763.19,479.89,-864.76"/>
<path data-id="103-195" d="M533.39,-763.19,442.81,-783.41"/>
<path data-id="104-126" d="M898.22,-1125.13,882.10,-1070.83"/>
<path data-id="104-192" d="M898.22,-1125.13,973.99,-1162.91"/>
<path data-id="105-183" d="M137.58,-135.07,131.52,-94.50"/>
<path data-id="105-190" d="M137.58,-135.07,180.00,-161.84"/>
<path data-id="106-164" d="M761.15,-872.41,558.74,-742.67"/>
<path data-id="106-180" d="M761.15,-872.41,786.74,-857.42"/>
<path data-id="106-215" d="M761.15,-872.41,756.86,-938.90"/>
<path data-id="107-190" d="M236.37,-199.40,180.00,-161.84"/>
<path data-id="108-214" d="M1357.53,-1044.28,1315.15,-1111.04"/>
<path data-id="108-219" d="M1357.53,-1044.28,1441.50,-1017.73"/>
<path data-id="108-222" d="M1357.53,-1044.28,1351.31,-927.13"/>
<path data-id="109-111" d="M669.21,-541.69,487.55,-427.55"/>
<path data-id="109-152" d="M669.21,-541.69,694.30,-551.43"/>
<path data-id="109-202" d="M669.21,-541.69,704.33,-348.58"/>
<path data-id="109-209" d="M669.21,-541.69,593.29,-618.88"/>
<path data-id="110-168" d="M3.12,-1119.17,39.46,-1195.93"/>
<path data-id="111-135" d="M487.55,-427.55,473.76,-372.35"/>
<path data-id="111-147" d="M487.55,-427.55,514.49,-616.04"/>
<path data-id="111-216" d="M487.55,-427.55,398.68,-630.08"/>
<path data-id="112-177" d="M255.29,-1143.93,281.81,-1236.25"/>
<path data-id="113-172" d="M486.33,-924.38,479.89,-864.76"/>
<path data-id="114-131" d="M590.54,-1356.86,588.12,-1459.36"/>
<path data-id="114-207" d="M590.54,-1356.86,511.78,-1301.96"/>
<path data-id="115-127" d="M527.42,-65.39,706.21,-108.64"/>
<path data-id="115-181" d="M527.42,-65.39,480.07,-145.69"/>
<path data-id="117-122" d="M361.54,-1236.39,530.61,-1225.83"/>
<path data-id="117-177" d="M361.54,-1236.39,281.81,-1236.25"/>
<path data-id="117-207" d="M361.54,-1236.39,511.78,-1301.96"/>
<path data-id="119-127" d="M801.52,-251.77,706.21,-108.64"/>
<path data-id="119-136" d="M801.52,-251.77,833.43,-263.57"/>
<path data-id="119-144" d="M801.52,-251.77,738.72,-317.89"/>
<path data-id="121-126" d="M967.01,-845.37,882.10,-1070.83"/>
<path data-id="121-140" d="M967.01,-845.37,1038.22,-867.04"/>
<path data-id="121-146" d="M967.01,-845.37,915.88,-809.16"/>
<path data-id="122-170" d="M530.61,-1225.83,574.13,-1151.47"/>
<path data-id="122-207" d="M530.61,-1225.83,511.78,-1301.96"/>
<path data-id="123-128" d="M266.52,-461.24,211.13,-455.72"/>
<path data-id="124-132" d="M286.62,-712.47,97.65,-609.22"/>
<path data-id="124-149" d="M286.62,-712.47,345.56,-830.84"/>
<path data-id="124-159" d="M286.62,-712.47,306.14,-540.39"/>
<path data-id="124-216" d="M286.62,-712.47,398.68,-630.08"/>
<path data-id="125-135" d="M400.64,-323.81,473.76,-372.35"/>
<path data-id="125-161" d="M400.64,-323.81,413.24,-224.81"/>
<path data-id="125-197" d="M400.64,-323.81,342.25,-256.75"/>
<path data-id="128-163" d="M211.13,-455.72,237.80,-308.06"/>
<path data-id="128-187" d="M211.13,-455.72,145.24,-385.30"/>
<path data-id="128-208" d="M211.13,-455.72,105.31,-429.81"/>
<path data-id="129-148" d="M1317.63,-82.95,1288.70,-129.06"/>
<path data-id="131-212" d="M588.12,-1459.36,682.99,-1446.34"/>
<path data-id="132-208" d="M97.65,-609.22,105.31,-429.81"/>
<path data-id="132-213" d="M97.65,-609.22,37.53,-708.12"/>
<path data-id="133-149" d="M354.94,-922.49,345.56,-830.84"/>
<path data-id="134-168" d="M27.54,-1411.16,39.46,-1195.93"/>
<path data-id="134-189" d="M27.54,-1411.16,53.23,-1427.51"/>
<path data-id="135-174" d="M473.76,-372.35,520.21,-334.64"/>
<path data-id="136-155" d="M833.43,-263.57,895.29,-252.21"/>
<path data-id="137-139" d="M651.02,-1111.95,636.27,-1182.67"/>
<path data-id="137-170" d="M651.02,-1111.95,574.13,-1151.47"/>
<path data-id="138-178" d="M1395.44,-1396.39,1388.17,-1483.64"/>
<path data-id="138-194" d="M1395.44,-1396.39,1420.07,-1369.17"/>
<path data-id="138-224" d="M1395.44,-1396.39,1205.71,-1367.58"/>
<path data-id="139-167" d="M636.27,-1182.67,681.24,-1249.53"/>
<path data-id="139-170" d="M636.27,-1182.67,574.13,-1151.47"/>
<path data-id="142-145" d="M1028.04,-1219.02,1067.69,-1106.08"/>
<path data-id="142-156" d="M1028.04,-1219.02,1144.27,-1351.74"/>
<path data-id="142-192" d="M1028.04,-1219.02,973.99,-1162.91"/>
<path data-id="142-218" d="M1028.04,-1219.02,1146.21,-1190.43"/>
<path data-id="143-208" d="M14.71,-352.88,105.31,-429.81"/>
<path data-id="144-196" d="M738.72,-317.89,710.63,-313.14"/>
<path data-id="145-211" d="M1067.69,-1106.08,989.95,-1135.21"/>
<path data-id="145-218" d="M1067.69,-1106.08,1146.21,-1190.43"/>
<path data-id="146-176" d="M915.88,-809.16,852.42,-741.57"/>
<path data-id="146-180" d="M915.88,-809.16,786.74,-857.42"/>
<path data-id="147-209" d="M514.49,-616.04,593.29,-618.88"/>
<path data-id="147-216" d="M514.49,-616.04,398.68,-630.08"/>
<path data-id="148-169" d="M1288.70,-129.06,1128.04,-142.63"/>
<path data-id="148-179" d="M1288.70,-129.06,1336.22,-182.06"/>
<path data-id="149-172" d="M345.56,-830.84,479.89,-864.76"/>
<path data-id="149-195" d="M345.56,-830.84,442.81,-783.41"/>
<path data-id="149-221" d="M345.56,-830.84,69.56,-843.70"/>
<path data-id="150-186" d="M794.04,-1039.11,717.26,-1035.39"/>
<path data-id="151-203" d="M1103.98,-350.09,1088.40,-398.58"/>
<path data-id="152-198" d="M694.30,-551.43,799.19,-515.68"/>
<path data-id="153-175" d="M832.48,-1439.70,801.57,-1447.80"/>
<path data-id="153-200" d="M832.48,-1439.70,858.34,-1385.03"/>
<path data-id="154-198" d="M965.13,-536.05,799.19,-515.68"/>
<path data-id="156-199" d="M1144.27,-1351.74,944.77,-1367.07"/>
<path data-id="156-218" d="M1144.27,-1351.74,1146.21,-1190.43"/>
<path data-id="156-224" d="M1144.27,-1351.74,1205.71,-1367.58"/>
<path data-id="157-213" d="M47.47,-755.44,37.53,-708.12"/>
<path data-id="157-221" d="M47.47,-755.44,69.56,-843.70"/>
<path data-id="159-216" d="M306.14,-540.39,398.68,-630.08"/>
<path data-id="160-177" d="M190.20,-1271.79,281.81,-1236.25"/>
<path data-id="161-174" d="M413.24,-224.81,520.21,-334.64"/>
<path data-id="161-197" d="M413.24,-224.81,342.25,-256.75"/>
<path data-id="162-163" d="M208.20,-275.86,237.80,-308.06"/>
<path data-id="163-187" d="M237.80,-308.06,145.24,-385.30"/>
<path data-id="164-209" d="M558.74,-742.67,593.29,-618.88"/>
<path data-id="164-220" d="M558.74,-742.67,778.29,-785.25"/>
<path data-id="165-210" d="M1418.99,-586.01,1493.82,-667.21"/>
<path data-id="165-223" d="M1418.99,-586.01,1376.03,-694.94"/>
<path data-id="166-201" d="M266.33,-61.01,304.58,-17.20"/>
<path data-id="169-185" d="M1128.04,-142.63,1123.39,-106.31"/>
<path data-id="171-219" d="M1427.60,-926.99,1441.50,-1017.73"/>
<path data-id="171-222" d="M1427.60,-926.99,1351.31,-927.13"/>
<path data-id="172-195" d="M479.89,-864.76,442.81,-783.41"/>
<path data-id="173-199" d="M923.24,-1331.77,944.77,-1367.07"/>
<path data-id="173-200" d="M923.24,-1331.77,858.34,-1385.03"/>
<path data-id="175-193" d="M801.57,-1447.80,808.47,-1485.21"/>
<path data-id="175-212" d="M801.57,-1447.80,682.99,-1446.34"/>
<path data-id="180-220" d="M786.74,-857.42,778.29,-785.25"/>
<path data-id="182-203" d="M1117.48,-603.22,1088.40,-398.58"/>
<path data-id="183-205" d="M131.52,-94.50,92.70,-84.15"/>
<path data-id="184-221" d="M192.23,-979.31,69.56,-843.70"/>
<path data-id="187-208" d="M145.24,-385.30,105.31,-429.81"/>
<path data-id="188-191" d="M363.29,-1457.97,298.02,-1473.17"/>
<path data-id="192-211" d="M973.99,-1162.91,989.95,-1135.21"/>
<path data-id="195-216" d="M442.81,-783.41,398.68,-630.08"/>
<path data-id="196-202" d="M710.63,-313.14,704.33,-348.58"/>
<path data-id="199-200" d="M944.77,-1367.07,858.34,-1385.03"/>
<path data-id="210-223" d="M1493.82,-667.21,1376.03,-694.94"/>
<path data-id="214-218" d="M1315.15,-1111.04,1146.21,-1190.43"/>
<circle data-id="0" cx="368.40" cy="-1409.67" r="10.00px"/>
<text data-id="0" x="368.40" y="-1409.67">R0</text>
<circle data-id="1" cx="646.80" cy="-994.40" r="10.00px"/>
<text data-id="1" x="646.80" y="-994.40">R1</text>
<circle data-id="2" cx="1281.02" cy="-710.18" r="10.00px"/>
<text data-id="2" x="1281.02" y="-710.18">R2</text>
<circle data-id="3" cx="798.86" cy="-1083.46" r="10.00px"/>
<text data-id="3" x="798.86" y="-1083.46">R3</text>
<circle data-id="4" cx="1235.06" cy="-618.57" r="10.00px"/>
<text data-id="4" x="1235.06" y="-618.57">R4</text>
<circle data-id="5" cx="1487.08" cy="-1210.79" r="10.00px"/>
<text data-id="5" x="1487.08" y="-1210.79">R5</text>
<circle data-id="6" cx="572.88" cy="-1090.13" r="10.00px"/>
<text data-id="6" x="572.88" y="-1090.13">R6</text>
<circle data-id="7" cx="1056.86" cy="-647.80" r="10.00px"/>
<text data-id="7" x="1056.86" y="-647.80">R7</text>
<circle data-id="8" cx="300.13" cy="-482.49" r="10.00px"/>
<text data-id="8" x="300.13" y="-482.49">R8</text>
<circle data-id="9" cx="1135.11" cy="-72.52" r="10.00px"/>
<text data-id="9" x="1135.11" y="-72.52">R9</text>
<circle data-id="10" cx="1181.42" cy="-1432.49" r="10.00px"/>
<text data-id="10" x="1181.42" y="-1432.49">R10</text>
<circle data-id="11" cx="218.99" cy="-245.36" r="10.00px"/>
<text data-id="11" x="218.99" y="-245.36">R11</text>
<circle data-id="12" cx="894.64" cy="-633.05" r="10.00px"/>
<text data-id="12" x="894.64" y="-633.05">R12</text>
<circle data-id="13" cx="1087.46" cy="-695.35" r="10.00px"/>
<text data-id="13" x="1087.46" y="-695.35">R13</text>
<circle data-id="14" cx="61.72" cy="-119.21" r="10.00px"/>
<text data-id="14" x="61.72" y="-119.21">R14</text>
<circle data-id="15" cx="856.69" cy="-1311.32" r="10.00px"/>
<text data-id="15" x="856.69" y="-1311.32">R15</text>
<circle data-id="16" cx="462.53" cy="-1363.47" r="10.00px"/>
<text data-id="16" x="462.53" y="-1363.47">R16</text>
<circle data-id="17" cx="49.09" cy="-244.47" r="10.00px"/>
<text data-id="17" x="49.09" y="-244.47">R17</text>
<circle data-id="18" cx="324.66" cy="-37.64" r="10.00px"/>
<text data-id="18" x="324.66" y="-37.64">R18</text>
<circle data-id="19" cx="691.16" cy="-285.63" r="10.00px"/>
<text data-id="19" x="691.16" y="-285.63">R19</text>
<circle data-id="20" cx="1422.81" cy="-1338.53" r="10.00px"/>
<text data-id="20" x="1422.81" y="-1338.53">R20</text>
<circle data-id="21" cx="1094.49" cy="-1048.36" r="10.00px"/>
<text data-id="21" x="1094.49" y="-1048.36">R21</text>
<circle data-id="22" cx="190.62" cy="-1007.47" r="10.00px"/>
<text data-id="22" x="190.62" y="-1007.47">R22</text>
<circle data-id="23" cx="383.34" cy="-933.51" r="10.00px"/>
<text data-id="23" x="383.34" y="-933.51">R23</text>
<circle data-id="24" cx="302.55" cy="-283.48" r="10.00px"/>
<text data-id="24" x="302.55" y="-283.48">R24</text>
<circle data-id="25" cx="1172.98" cy="-290.34" r="10.00px"/>
<text data-id="25" x="1172.98" y="-290.34">R25</text>
<circle data-id="26" cx="385.21" cy="-1339.44" r="10.00px"/>
<text data-id="26" x="385.21" y="-1339.44">R26</text>
<circle data-id="27" cx="1085.62" cy="-995.49" r="10.00px"/>
<text data-id="27" x="1085.62" y="-995.49">R27</text>
<circle data-id="28" cx="1354.77" cy="-720.96" r="10.00px"/>
<text data-id="28" x="1354.77" y="-720.96">R28</text>
<circle data-id="29" cx="217.62" cy="-531.88" r="10.00px"/>
<text data-id="29" x="217.62" y="-531.88">R29</text>
<circle data-id="30" cx="1450.88" cy="-1355.09" r="10.00px"/>
<text data-id="30" x="1450.88" y="-1355.09">R30</text>
<circle data-id="31" cx="15.17" cy="-976.73" r="10.00px"/>
<text data-id="31" x="15.17" y="-976.73">R31</text>
<circle data-id="32" cx="509.80" cy="-720.06" r="10.00px"/>
<text data-id="32" x="509.80" y="-720.06">R32</text>
<circle data-id="33" cx="800.83" cy="-995.84" r="10.00px"/>
<text data-id="33" x="800.83" y="-995.84">R33</text>
<circle data-id="34" cx="535.23" cy="-1064.76" r="10.00px"/>
<text data-id="34" x="535.23" y="-1064.76">R34</text>
<circle data-id="35" cx="449.42" cy="-199.34" r="10.00px"/>
<text data-id="35" x="449.42" y="-199.34">R35</text>
<circle data-id="36" cx="824.41" cy="-736.00" r="10.00px"/>
<text data-id="36" x="824.41" y="-736.00">R36</text>
<circle data-id="37" cx="1249.64" cy="-377.91" r="10.00px"/>
<text data-id="37" x="1249.64" y="-377.91">R37</text>
<circle data-id="38" cx="111.94" cy="-1180.23" r="10.00px"/>
<text data-id="38" x="111.94" y="-1180.23">R38</text>
<circle data-id="39" cx="1099.78" cy="-767.21" r="10.00px"/>
<text data-id="39" x="1099.78" y="-767.21">R39</text>
<circle data-id="40" cx="848.37" cy="-1099.49" r="10.00px"/>
<text data-id="40" x="848.37" y="-1099.49">R40</text>
<circle data-id="41" cx="1115.68" cy="-901.32" r="10.00px"/>
<text data-id="41" x="1115.68" y="-901.32">R41</text>
<circle data-id="42" cx="150.91" cy="-274.28" r="10.00px"/>
<text data-id="42" x="150.91" y="-274.28">R42</text>
<circle data-id="43" cx="1174.79" cy="-906.83" r="10.00px"/>
<text data-id="43" x="1174.79" y="-906.83">R43</text>
<circle data-id="44" cx="1465.63" cy="-433.99" r="10.00px"/>
<text data-id="44" x="1465.63" y="-433.99">R44</text>
<circle data-id="45" cx="790.48" cy="-737.98" r="10.00px"/>
<text data-id="45" x="790.48" y="-737.98">R45</text>
<circle data-id="46" cx="728.28" cy="-1069.73" r="10.00px"/>
<text data-id="46" x="728.28" y="-1069.73">R46</text>
<circle data-id="47" cx="1015.49" cy="-207.65" r="10.00px"/>
<text data-id="47" x="1015.49" y="-207.65">R47</text>
<circle data-id="48" cx="815.31" cy="-439.45" r="10.00px"/>
<text data-id="48" x="815.31" y="-439.45">R48</text>
<circle data-id="49" cx="1276.28" cy="-1251.70" r="10.00px"/>
<text data-id="49" x="1276.28" y="-1251.70">R49</text>
<circle data-id="50" cx="314.66" cy="-347.79" r="10.00px"/>
<text data-id="50" x="314.66" y="-347.79">R50</text>
<circle data-id="51" cx="455.83" cy="-16.82" r="10.00px"/>
<text data-id="51" x="455.83" y="-16.82">R51</text>
<circle data-id="52" cx="745.98" cy="-618.96" r="10.00px"/>
<text data-id="52" x="745.98" y="-618.96">R52</text>
<circle data-id="53" cx="1108.97" cy="-946.38" r="10.00px"/>
<text data-id="53" x="1108.97" y="-946.38">R53</text>
<circle data-id="54" cx="232.20" cy="-117.59" r="10.00px"/>
<text data-id="54" x="232.20" y="-117.59">R54</text>
<circle data-id="55" cx="935.95" cy="-1277.85" r="10.00px"/>
<text data-id="55" x="935.95" y="-1277.85">R55</text>
<circle data-id="56" cx="361.19" cy="-1167.50" r="10.00px"/>
<text data-id="56" x="361.19" y="-1167.50">R56</text>
<circle data-id="57" cx="1122.57" cy="-785.74" r="10.00px"/>
<text data-id="57" x="1122.57" y="-785.74">R57</text>
<circle data-id="58" cx="676.21" cy="-247.65" r="10.00px"/>
<text data-id="58" x="676.21" y="-247.65">R58</text>
<circle data-id="59" cx="1201.17" cy="-242.94" r="10.00px"/>
<text data-id="59" x="1201.17" y="-242.94">R59</text>
<circle data-id="60" cx="1245.14" cy="-944.67" r="10.00px"/>
<text data-id="60" x="1245.14" y="-944.67">R60</text>
<circle data-id="61" cx="1350.71" cy="-330.86" r="10.00px"/>
<text data-id="61" x="1350.71" y="-330.86">R61</text>
<circle data-id="62" cx="1344.99" cy="-531.65" r="10.00px"/>
<text data-id="62" x="1344.99" y="-531.65">R62</text>
<circle data-id="63" cx="1424.53" cy="-743.52" r="10.00px"/>
<text data-id="63" x="1424.53" y="-743.52">R63</text>
<circle data-id="64" cx="695.50" cy="-966.49" r="10.00px"/>
<text data-id="64" x="695.50" y="-966.49">R64</text>
<circle data-id="65" cx="1240.91" cy="-1295.30" r="10.00px"/>
<text data-id="65" x="1240.91" y="-1295.30">R65</text>
<circle data-id="66" cx="1413.21" cy="-140.21" r="10.00px"/>
<text data-id="66" x="1413.21" y="-140.21">R66</text>
<circle data-id="67" cx="126.35" cy="-1410.02" r="10.00px"/>
<text data-id="67" x="126.35" y="-1410.02">R67</text>
<circle data-id="68" cx="1345.28" cy="-211.56" r="10.00px"/>
<text data-id="68" x="1345.28" y="-211.56">R68</text>
<circle data-id="69" cx="1386.19" cy="-327.37" r="10.00px"/>
<text data-id="69" x="1386.19" y="-327.37">R69</text>
<circle data-id="70" cx="364.86" cy="-975.38" r="10.00px"/>
<text data-id="70" x="364.86" y="-975.38">R70</text>
<circle data-id="71" cx="68.75" cy="-278.66" r="10.00px"/>
<text data-id="71" x="68.75" y="-278.66">R71</text>
<circle data-id="72" cx="1146.76" cy="-250.45" r="10.00px"/>
<text data-id="72" x="1146.76" y="-250.45">R72</text>
<circle data-id="73" cx="698.32" cy="-1487.52" r="10.00px"/>
<text data-id="73" x="698.32" y="-1487.52">R73</text>
<circle data-id="74" cx="1264.54" cy="-1029.73" r="10.00px"/>
<text data-id="74" x="1264.54" y="-1029.73">R74</text>
<circle data-id="75" cx="1027.92" cy="-410.30" r="10.00px"/>
<text data-id="75" x="1027.92" y="-410.30">R75</text>
<circle data-id="76" cx="1338.49" cy="-680.38" r="10.00px"/>
<text data-id="76" x="1338.49" y="-680.38">R76</text>
<circle data-id="77" cx="71.47" cy="-729.45" r="10.00px"/>
<text data-id="77" x="71.47" y="-729.45">R77</text>
<circle data-id="78" cx="1058.91" cy="-216.01" r="10.00px"/>
<text data-id="78" x="1058.91" y="-216.01">R78</text>
<circle data-id="79" cx="990.78" cy="-1092.71" r="10.00px"/>
<text data-id="79" x="990.78" y="-1092.71">R79</text>
<circle data-id="80" cx="616.92" cy="-366.49" r="10.00px"/>
<text data-id="80" x="616.92" y="-366.49">R80</text>
<circle data-id="81" cx="170.34" cy="-1072.30" r="10.00px"/>
<text data-id="81" x="170.34" y="-1072.30">R81</text>
<circle data-id="82" cx="638.12" cy="-1349.72" r="10.00px"/>
<text data-id="82" x="638.12" y="-1349.72">R82</text>
<circle data-id="83" cx="274.68" cy="-1456.63" r="10.00px"/>
<text data-id="83" x="274.68" y="-1456.63">R83</text>
<circle data-id="84" cx="896.15" cy="-295.20" r="10.00px"/>
<text data-id="84" x="896.15" y="-295.20">R84</text>
<circle data-id="85" cx="108.87" cy="-1132.76" r="10.00px"/>
<text data-id="85" x="108.87" y="-1132.76">R85</text>
<circle data-id="86" cx="884.51" cy="-362.66" r="10.00px"/>
<text data-id="86" x="884.51" y="-362.66">R86</text>
<circle data-id="87" cx="317.89" cy="-389.95" r="10.00px"/>
<text data-id="87" x="317.89" y="-389.95">R87</text>
<circle data-id="88" cx="53.85" cy="-200.43" r="10.00px"/>
<text data-id="88" x="53.85" y="-200.43">R88</text>
<circle data-id="89" cx="844.24" cy="-1271.36" r="10.00px"/>
<text data-id="89" x="844.24" y="-1271.36">R89</text>
<circle data-id="90" cx="846.01" cy="-58.70" r="10.00px"/>
<text data-id="90" x="846.01" y="-58.70">R90</text>
<circle data-id="91" cx="1137.36" cy="-622.57" r="10.00px"/>
<text data-id="91" x="1137.36" y="-622.57">R91</text>
<circle data-id="92" cx="188.25" cy="-1461.36" r="10.00px"/>
<text data-id="92" x="188.25" y="-1461.36">R92</text>
<circle data-id="93" cx="528.91" cy="-1123.81" r="10.00px"/>
<text data-id="93" x="528.91" y="-1123.81">R93</text>
<circle data-id="94" cx="1238.36" cy="-883.83" r="10.00px"/>
<text data-id="94" x="1238.36" y="-883.83">R94</text>
<circle data-id="95" cx="155.20" cy="-1125.48" r="10.00px"/>
<text data-id="95" x="155.20" y="-1125.48">R95</text>
<circle data-id="96" cx="1431.26" cy="-170.58" r="10.00px"/>
<text data-id="96" x="1431.26" y="-170.58">R96</text>
<circle data-id="97" cx="1000.26" cy="-148.27" r="10.00px"/>
<text data-id="97" x="1000.26" y="-148.27">R97</text>
<circle data-id="98" cx="260.05" cy="-1000.62" r="10.00px"/>
<text data-id="98" x="260.05" y="-1000.62">R98</text>
<circle data-id="99" cx="1333.72" cy="-754.71" r="10.00px"/>
<text data-id="99" x="1333.72" y="-754.71">R99</text>
<circle data-id="100" cx="1039.85" cy="-65.75" r="10.00px"/>
<text data-id="100" x="1039.85" y="-65.75">R100</text>
<circle data-id="101" cx="825.91" cy="-122.84" r="10.00px"/>
<text data-id="101" x="825.91" y="-122.84">R101</text>
<circle data-id="102" cx="1151.51" cy="-1086.80" r="10.00px"/>
<text data-id="102" x="1151.51" y="-1086.80">R102</text>
<circle data-id="103" cx="533.39" cy="-763.19" r="10.00px"/>
<text data-id="103" x="533.39" y="-763.19">R103</text>
<circle data-id="104" cx="898.22" cy="-1125.13" r="10.00px"/>
<text data-id="104" x="898.22" y="-1125.13">R104</text>
<circle data-id="105" cx="137.58" cy="-135.07" r="10.00px"/>
<text data-id="105" x="137.58" y="-135.07">R105</text>
<circle data-id="106" cx="761.15" cy="-872.41" r="10.00px"/>
<text data-id="106" x="761.15" y="-872.41">R106</text>
<circle data-id="107" cx="236.37" cy="-199.40" r="10.00px"/>
<text data-id="107" x="236.37" y="-199.40">R107</text>
<circle data-id="108" cx="1357.53" cy="-1044.28" r="10.00px"/>
<text data-id="108" x="1357.53" y="-1044.28">R108</text>
<circle data-id="109" cx="669.21" cy="-541.69" r="10.00px"/>
<text data-id="109" x="669.21" y="-541.69">R109</text>
<circle data-id="110" cx="3.12" cy="-1119.17" r="10.00px"/>
<text data-id="110" x="3.12" y="-1119.17">R110</text>
<circle data-id="111" cx="487.55" cy="-427.55" r="10.00px"/>
<text data-id="111" x="487.55" y="-427.55">R111</text>
<circle data-id="112" cx="255.29" cy="-1143.93" r="10.00px"/>
<text data-id="112" x="255.29" y="-1143.93">R112</text>
<circle data-id="113" cx="486.33" cy="-924.38" r="10.00px"/>
<text data-id="113" x="486.33" y="-924.38">R113</text>
<circle data-id="114" cx="590.54" cy="-1356.86" r="10.00px"/>
<text data-id="114" x="590.54" y="-1356.86">R114</text>
<circle data-id="115" cx="527.42" cy="-65.39" r="10.00px"/>
<text data-id="115" x="527.42" y="-65.39">R115</text>
<circle data-id="116" cx="1496.35" cy="-249.04" r="10.00px"/>
<text data-id="116" x="1496.35" y="-249.04">R116</text>
<circle data-id="117" cx="361.54" cy="-1236.39" r="10.00px"/>
<text data-id="117" x="361.54" y="-1236.39">R117</text>
<circle data-id="118" cx="1145.57" cy="-948.91" r="10.00px"/>
<text data-id="118" x="1145.57" y="-948.91">R118</text>
<circle data-id="119" cx="801.52" cy="-251.77" r="10.00px"/>
<text data-id="119" x="801.52" y="-251.77">R119</text>
<circle data-id="120" cx="144.66" cy="-1429.28" r="10.00px"/>
<text data-id="120" x="144.66" y="-1429.28">R120</text>
<circle data-id="121" cx="967.01" cy="-845.37" r="10.00px"/>
<text data-id="121" x="967.01" y="-845.37">R121</text>
<circle data-id="122" cx="530.61" cy="-1225.83" r="10.00px"/>
<text data-id="122" x="530.61" y="-1225.83">R122</text>
<circle data-id="123" cx="266.52" cy="-461.24" r="10.00px"/>
<text data-id="123" x="266.52" y="-461.24">R123</text>
<circle data-id="124" cx="286.62" cy="-712.47" r="10.00px"/>
<text data-id="124" x="286.62" y="-712.47">R124</text>
<circle data-id="125" cx="400.64" cy="-323.81" r="10.00px"/>
<text data-id="125" x="400.64" y="-323.81">R125</text>
<circle data-id="126" cx="882.10" cy="-1070.83" r="10.00px"/>
<text data-id="126" x="882.10" y="-1070.83">R126</text>
<circle data-id="127" cx="706.21" cy="-108.64" r="10.00px"/>
<text data-id="127" x="706.21" y="-108.64">R127</text>
<circle data-id="128" cx="211.13" cy="-455.72" r="10.00px"/>
<text data-id="128" x="211.13" y="-455.72">R128</text>
<circle data-id="129" cx="1317.63" cy="-82.95" r="10.00px"/>
<text data-id="129" x="1317.63" y="-82.95">R129</text>
<circle data-id="130" cx="349.27" cy="-1391.58" r="10.00px"/>
<text data-id="130" x="349.27" y="-1391.58">R130</text>
<circle data-id="131" cx="588.12" cy="-1459.36" r="10.00px"/>
<text data-id="131" x="588.12" y="-1459.36">R131</text>
<circle data-id="132" cx="97.65" cy="-609.22" r="10.00px"/>
<text data-id="132" x="97.65" y="-609.22">R132</text>
<circle data-id="133" cx="354.94" cy="-922.49" r="10.00px"/>
<text data-id="133" x="354.94" y="-922.49">R133</text>
<circle data-id="134" cx="27.54" cy="-1411.16" r="10.00px"/>
<text data-id="134" x="27.54" y="-1411.16">R134</text>
<circle data-id="135" cx="473.76" cy="-372.35" r="10.00px"/>
<text data-id="135" x="473.76" y="-372.35">R135</text>
<circle data-id="136" cx="833.43" cy="-263.57" r="10.00px"/>
<text data-id="136" x="833.43" y="-263.57">R136</text>
<circle data-id="137" cx="651.02" cy="-1111.95" r="10.00px"/>
<text data-id="137" x="651.02" y="-1111.95">R137</text>
<circle data-id="138" cx="1395.44" cy="-1396.39" r="10.00px"/>
<text data-id="138" x="1395.44" y="-1396.39">R138</text>
<circle data-id="139" cx="636.27" cy="-1182.67" r="10.00px"/>
<text data-id="139" x="636.27" y="-1182.67">R139</text>
<circle data-id="140" cx="1038.22" cy="-867.04" r="10.00px"/>
<text data-id="140" x="1038.22" y="-867.04">R140</text>
<circle data-id="141" cx="935.97" cy="-307.92" r="10.00px"/>
<text data-id="141" x="935.97" y="-307.92">R141</text>
<circle data-id="142" cx="1028.04" cy="-1219.02" r="10.00px"/>
<text data-id="142" x="1028.04" y="-1219.02">R142</text>
<circle data-id="143" cx="14.71" cy="-352.88" r="10.00px"/>
<text data-id="143" x="14.71" y="-352.88">R143</text>
<circle data-id="144" cx="738.72" cy="-317.89" r="10.00px"/>
<text data-id="144" x="738.72" y="-317.89">R144</text>
<circle data-id="145" cx="1067.69" cy="-1106.08" r="10.00px"/>
<text data-id="145" x="1067.69" y="-1106.08">R145</text>
<circle data-id="146" cx="915.88" cy="-809.16" r="10.00px"/>
<text data-id="146" x="915.88" y="-809.16">R146</text>
<circle data-id="147" cx="514.49" cy="-616.04" r="10.00px"/>
<text data-id="147" x="514.49" y="-616.04">R147</text>
<circle data-id="148" cx="1288.70" cy="-129.06" r="10.00px"/>
<text data-id="148" x="1288.70" y="-129.06">R148</text>
<circle data-id="149" cx="345.56" cy="-830.84" r="10.00px"/>
<text data-id="149" x="345.56" y="-830.84">R149</text>
<circle data-id="150" cx="794.04" cy="-1039.11" r="10.00px"/>
<text data-id="150" x="794.04" y="-1039.11">R150</text>
<circle data-id="151" cx="1103.98" cy="-350.09" r="10.00px"/>
<text data-id="151" x="1103.98" y="-350.09">R151</text>
<circle data-id="152" cx="694.30" cy="-551.43" r="10.00px"/>
<text data-id="152" x="694.30" y="-551.43">R152</text>
<circle data-id="153" cx="832.48" cy="-1439.70" r="10.00px"/>
<text data-id="153" x="832.48" y="-1439.70">R153</text>
<circle data-id="154" cx="965.13" cy="-536.05" r="10.00px"/>
<text data-id="154" x="965.13" y="-536.05">R154</text>
<circle data-id="155" cx="895.29" cy="-252.21" r="10.00px"/>
<text data-id="155" x="895.29" y="-252.21">R155</text>
<circle data-id="156" cx="1144.27" cy="-1351.74" r="10.00px"/>
<text data-id="156" x="1144.27" y="-1351.74">R156</text>
<circle data-id="157" cx="47.47" cy="-755.44" r="10.00px"/>
<text data-id="157" x="47.47" y="-755.44">R157</text>
<circle data-id="158" cx="1494.59" cy="-94.59" r="10.00px"/>
<text data-id="158" x="1494.59" y="-94.59">R158</text>
<circle data-id="159" cx="306.14" cy="-540.39" r="10.00px"/>
<text data-id="159" x="306.14" y="-540.39">R159</text>
<circle data-id="160" cx="190.20" cy="-1271.79" r="10.00px"/>
<text data-id="160" x="190.20" y="-1271.79">R160</text>
<circle data-id="161" cx="413.24" cy="-224.81" r="10.00px"/>
<text data-id="161" x="413.24" y="-224.81">R161</text>
<circle data-id="162" cx="208.20" cy="-275.86" r="10.00px"/>
<text data-id="162" x="208.20" y="-275.86">R162</text>
<circle data-id="163" cx="237.80" cy="-308.06" r="10.00px"/>
<text data-id="163" x="237.80" y="-308.06">R163</text>
<circle data-id="164" cx="558.74" cy="-742.67" r="10.00px"/>
<text data-id="164" x="558.74" y="-742.67">R164</text>
<circle data-id="165" cx="1418.99" cy="-586.01" r="10.00px"/>
<text data-id="165" x="1418.99" y="-586.01">R165</text>
<circle data-id="166" cx="266.33" cy="-61.01" r="10.00px"/>
<text data-id="166" x="266.33" y="-61.01">R166</text>
<circle data-id="167" cx="681.24" cy="-1249.53" r="10.00px"/>
<text data-id="167" x="681.24" y="-1249.53">R167</text>
<circle data-id="168" cx="39.46" cy="-1195.93" r="10.00px"/>
<text data-id="168" x="39.46" y="-1195.93">R168</text>
<circle data-id="169" cx="1128.04" cy="-142.63" r="10.00px"/>
<text data-id="169" x="1128.04" y="-142.63">R169</text>
<circle data-id="170" cx="574.13" cy="-1151.47" r="10.00px"/>
<text data-id="170" x="574.13" y="-1151.47">R170</text>
<circle data-id="171" cx="1427.60" cy="-926.99" r="10.00px"/>
<text data-id="171" x="1427.60" y="-926.99">R171</text>
<circle data-id="172" cx="479.89" cy="-864.76" r="10.00px"/>
<text data-id="172" x="479.89" y="-864.76">R172</text>
<circle data-id="173" cx="923.24" cy="-1331.77" r="10.00px"/>
<text data-id="173" x="923.24" y="-1331.77">R173</text>
<circle data-id="174" cx="520.21" cy="-334.64" r="10.00px"/>
<text data-id="174" x="520.21" y="-334.64">R174</text>
<circle data-id="175" cx="801.57" cy="-1447.80" r="10.00px"/>
<text data-id="175" x="801.57" y="-1447.80">R175</text>
<circle data-id="176" cx="852.42" cy="-741.57" r="10.00px"/>
<text data-id="176" x="852.42" y="-741.57">R176</text>
<circle data-id="177" cx="281.81" cy="-1236.25" r="10.00px"/>
<text data-id="177" x="281.81" y="-1236.25">R177</text>
<circle data-id="178" cx="1388.17" cy="-1483.64" r="10.00px"/>
<text data-id="178" x="1388.17" y="-1483.64">R178</text>
<circle data-id="179" cx="1336.22" cy="-182.06" r="10.00px"/>
<text data-id="179" x="1336.22" y="-182.06">R179</text>
<circle data-id="180" cx="786.74" cy="-857.42" r="10.00px"/>
<text data-id="180" x="786.74" y="-857.42">R180</text>
<circle data-id="181" cx="480.07" cy="-145.69" r="10.00px"/>
<text data-id="181" x="480.07" y="-145.69">R181</text>
<circle data-id="182" cx="1117.48" cy="-603.22" r="10.00px"/>
<text data-id="182" x="1117.48" y="-603.22">R182</text>
<circle data-id="183" cx="131.52" cy="-94.50" r="10.00px"/>
<text data-id="183" x="131.52" y="-94.50">R183</text>
<circle data-id="184" cx="192.23" cy="-979.31" r="10.00px"/>
<text data-id="184" x="192.23" y="-979.31">R184</text>
<circle data-id="185" cx="1123.39" cy="-106.31" r="10.00px"/>
<text data-id="185" x="1123.39" y="-106.31">R185</text>
<circle data-id="186" cx="717.26" cy="-1035.39" r="10.00px"/>
<text data-id="186" x="717.26" y="-1035.39">R186</text>
<circle data-id="187" cx="145.24" cy="-385.30" r="10.00px"/>
<text data-id="187" x="145.24" y="-385.30">R187</text>
<circle data-id="188" cx="363.29" cy="-1457.97" r="10.00px"/>
<text data-id="188" x="363.29" y="-1457.97">R188</text>
<circle data-id="189" cx="53.23" cy="-1427.51" r="10.00px"/>
<text data-id="189" x="53.23" y="-1427.51">R189</text>
<circle data-id="190" cx="180.00" cy="-161.84" r="10.00px"/>
<text data-id="190" x="180.00" y="-161.84">R190</text>
<circle data-id="191" cx="298.02" cy="-1473.17" r="10.00px"/>
<text data-id="191" x="298.02" y="-1473.17">R191</text>
<circle data-id="192" cx="973.99" cy="-1162.91" r="10.00px"/>
<text data-id="192" x="973.99" y="-1162.91">R192</text>
<circle data-id="193" cx="808.47" cy="-1485.21" r="10.00px"/>
<text data-id="193" x="808.47" y="-1485.21">R193</text>
<circle data-id="194" cx="1420.07" cy="-1369.17" r="10.00px"/>
<text data-id="194" x="1420.07" y="-1369.17">R194</text>
<circle data-id="195" cx="442.81" cy="-783.41" r="10.00px"/>
<text data-id="195" x="442.81" y="-783.41">R195</text>
<circle data-id="196" cx="710.63" cy="-313.14" r="10.00px"/>
<text data-id="196" x="710.63" y="-313.14">R196</text>
<circle data-id="197" cx="342.25" cy="-256.75" r="10.00px"/>
<text data-id="197" x="342.25" y="-256.75">R197</text>
<circle data-id="198" cx="799.19" cy="-515.68" r="10.00px"/>
<text data-id="198" x="799.19" y="-515.68">R198</text>
<circle data-id="199" cx="944.77" cy="-1367.07" r="10.00px"/>
<text data-id="199" x="944.77" y="-1367.07">R199</text>
<circle data-id="200" cx="858.34" cy="-1385.03" r="10.00px"/>
<text data-id="200" x="858.34" y="-1385.03">R200</text>
<circle data-id="201" cx="304.58" cy="-17.20" r="10.00px"/>
<text data-id="201" x="304.58" y="-17.20">R201</text>
<circle data-id="202" cx="704.33" cy="-348.58" r="10.00px"/>
<text data-id="202" x="704.33" y="-348.58">R202</text>
<circle data-id="203" cx="1088.40" cy="-398.58" r="10.00px"/>
<text data-id="203" x="1088.40" y="-398.58">R203</text>
<circle data-id="204" cx="1271.16" cy="-301.20" r="10.00px"/>
<text data-id="204" x="1271.16" y="-301.20">R204</text>
<circle data-id="205" cx="92.70" cy="-84.15" r="10.00px"/>
<text data-id="205" x="92.70" y="-84.15">R205</text>
<circle data-id="206" cx="1242.14" cy="-814.02" r="10.00px"/>
<text data-id="206" x="1242.14" y="-814.02">R206</text>
<circle data-id="207" cx="511.78" cy="-1301.96" r="10.00px"/>
<text data-id="207" x="511.78" y="-1301.96">R207</text>
<circle data-id="208" cx="105.31" cy="-429.81" r="10.00px"/>
<text data-id="208" x="105.31" y="-429.81">R208</text>
<circle data-id="209" cx="593.29" cy="-618.88" r="10.00px"/>
<text data-id="209" x="593.29" y="-618.88">R209</text>
<circle data-id="210" cx="1493.82" cy="-667.21" r="10.00px"/>
<text data-id="210" x="1493.82" y="-667.21">R210</text>
<circle data-id="211" cx="989.95" cy="-1135.21" r="10.00px"/>
<text data-id="211" x="989.95" y="-1135.21">R211</text>
<circle data-id="212" cx="682.99" cy="-1446.34" r="10.00px"/>
<text data-id="212" x="682.99" y="-1446.34">R212</text>
<circle data-id="213" cx="37.53" cy="-708.12" r="10.00px"/>
<text data-id="213" x="37.53" y="-708.12">R213</text>
<circle data-id="214" cx="1315.15" cy="-1111.04" r="10.00px"/>
<text data-id="214" x="1315.15" y="-1111.04">R214</text>
<circle data-id="215" cx="756.86" cy="-938.90" r="10.00px"/>
<text data-id="215" x="756.86" y="-938.90">R215</text>
<circle data-id="216" cx="398.68" cy="-630.08" r="10.00px"/>
<text data-id="216" x="398.68" y="-630.08">R216</text>
<circle data-id="217" cx="1112.26" cy="-5.18" r="10.00px"/>
<text data-id="217" x="1112.26" y="-5.18">R217</text>
<circle data-id="218" cx="1146.21" cy="-1190.43" r="10.00px"/>
<text data-id="218" x="1146.21" y="-1190.43">R218</text>
<circle data-id="219" cx="1441.50" cy="-1017.73" r="10.00px"/>
<text data-id="219" x="1441.50" y="-1017.73">R219</text>
<circle data-id="220" cx="778.29" cy="-785.25" r="10.00px"/>
<text data-id="220" x="778.29" y="-785.25">R220</text>
<circle data-id="221" cx="69.56" cy="-843.70" r="10.00px"/>
<text data-id="221" x="69.56" y="-843.70">R221</text>
<circle data-id="222" cx="1351.31" cy="-927.13" r="10.00px"/>
<text data-id="222" x="1351.31" y="-927.13">R222</text>
<circle data-id="223" cx="1376.03" cy="-694.94" r="10.00px"/>
<text data-id="223" x="1376.03" y="-694.94">R223</text>
<circle data-id="224" cx="1205.71" cy="-1367.58" r="10.00px"/>
<text data-id="224" x="1205.71" y="-1367.58">R224</text>
</svg>
