<svg width="2147.24" height="2141.22" viewBox="-41.01 -34.79 2147.24 2141.22" xmlns="http://www.w3.org/2000/svg">
<style>path {fill: none; stroke: grey; stroke-width: 6;} circle {fill: lightblue; stroke: none;} text {fill: black; stroke: none; font-size: 16; font-family: sans-serif; text-anchor:middle;}</style>
<path d="M712.48,1819.94,664.36,1723.28"/>
<path d="M712.48,1819.94,684.83,1842.24"/>
<path d="M712.48,1819.94,789.13,1818.97"/>
<path d="M712.48,1819.94,716.18,1869.91"/>
<path d="M1843.33,1711.22,1840.50,1549.84"/>
<path d="M1843.33,1711.22,1812.74,1753.34"/>
<path d="M1843.33,1711.22,1884.98,1723.98"/>
<path d="M1843.33,1711.22,1751.11,1658.46"/>
<path d="M496.16,1388.67,370.56,1418.68"/>
<path d="M496.16,1388.67,567.16,1305.31"/>
<path d="M496.16,1388.67,408.24,1307.14"/>
<path d="M496.16,1388.67,475.19,1481.72"/>
<path d="M496.16,1388.67,543.21,1462.14"/>
<path d="M664.36,1723.28,726.59,1639.53"/>
<path d="M664.36,1723.28,624.48,1716.85"/>
<path d="M167.81,1021.52,287.27,990.01"/>
<path d="M167.81,1021.52,267.87,927.20"/>
<path d="M167.81,1021.52,272.33,1077.69"/>
<path d="M167.81,1021.52,185.18,1122.93"/>
<path d="M167.81,1021.52,117.54,1013.61"/>
<path d="M1687.22,1297.76,1790.23,1276.94"/>
<path d="M1687.22,1297.76,1720.45,1208.92"/>
<path d="M1687.22,1297.76,1656.96,1314.39"/>
<path d="M1399.14,1839.90,1429.02,1747.53"/>
<path d="M1399.14,1839.90,1333.53,1937.17"/>
<path d="M1399.14,1839.90,1455.96,1870.61"/>
<path d="M1399.14,1839.90,1487.60,1766.86"/>
<path d="M1399.14,1839.90,1311.19,1862.09"/>
<path d="M1559.15,1453.18,1434.15,1456.48"/>
<path d="M1559.15,1453.18,1524.33,1353.70"/>
<path d="M1559.15,1453.18,1603.27,1395.06"/>
<path d="M1559.15,1453.18,1574.98,1579.80"/>
<path d="M1595.78,1154.76,1627.32,1134.91"/>
<path d="M1595.78,1154.76,1555.10,1242.20"/>
<path d="M1595.78,1154.76,1645.12,1171.56"/>
<path d="M1019.79,550.59,997.94,460.87"/>
<path d="M1019.79,550.59,1145.85,579.58"/>
<path d="M1019.79,550.59,1034.28,630.43"/>
<path d="M1019.79,550.59,943.79,612.78"/>
<path d="M1019.79,550.59,1146.88,456.84"/>
<path d="M1019.79,550.59,943.04,477.69"/>
<path d="M997.94,460.87,1023.01,424.13"/>
<path d="M997.94,460.87,942.98,407.61"/>
<path d="M997.94,460.87,943.04,477.69"/>
<path d="M1966.13,1195.60,1953.61,1164.18"/>
<path d="M1966.13,1195.60,1959.41,1274.35"/>
<path d="M958.47,1387.26,1053.96,1376.26"/>
<path d="M958.47,1387.26,861.60,1387.00"/>
<path d="M958.47,1387.26,983.53,1309.23"/>
<path d="M958.47,1387.26,909.24,1312.67"/>
<path d="M145.46,371.94,128.56,325.99"/>
<path d="M145.46,371.94,250.68,374.46"/>
<path d="M145.46,371.94,98.08,554.59"/>
<path d="M145.46,371.94,215.34,322.15"/>
<path d="M145.46,371.94,113.41,357.19"/>
<path d="M1429.02,1747.53,1347.07,1687.79"/>
<path d="M1429.02,1747.53,1476.33,1739.82"/>
<path d="M1434.15,1456.48,1524.33,1353.70"/>
<path d="M1434.15,1456.48,1379.49,1405.95"/>
<path d="M1434.15,1456.48,1429.65,1506.13"/>
<path d="M128.56,325.99,74.26,297.24"/>
<path d="M128.56,325.99,215.34,322.15"/>
<path d="M128.56,325.99,113.41,357.19"/>
<path d="M557.85,1176.87,601.70,1107.36"/>
<path d="M557.85,1176.87,562.98,1251.90"/>
<path d="M557.85,1176.87,469.99,1165.77"/>
<path d="M557.85,1176.87,533.48,1117.44"/>
<path d="M1132.02,1946.84,1051.54,1918.74"/>
<path d="M1132.02,1946.84,1158.48,1949.92"/>
<path d="M1132.02,1946.84,1098.27,1886.90"/>
<path d="M2058.88,1372.41,2011.65,1343.75"/>
<path d="M2058.88,1372.41,2059.01,1573.52"/>
<path d="M2058.88,1372.41,1962.23,1558.73"/>
<path d="M1362.61,1153.48,1290.64,1009.75"/>
<path d="M1362.61,1153.48,1430.23,1208.17"/>
<path d="M1362.61,1153.48,1230.87,1337.40"/>
<path d="M1362.61,1153.48,1416.78,1034.10"/>
<path d="M1362.61,1153.48,1235.13,1147.64"/>
<path d="M1104.71,1650.73,1261.49,1584.71"/>
<path d="M1104.71,1650.73,1074.46,1649.01"/>
<path d="M1104.71,1650.73,1142.04,1540.29"/>
<path d="M409.76,1212.22,443.57,1234.64"/>
<path d="M409.76,1212.22,469.99,1165.77"/>
<path d="M409.76,1212.22,330.75,1300.50"/>
<path d="M409.76,1212.22,361.91,1184.92"/>
<path d="M409.76,1212.22,387.38,1141.92"/>
<path d="M287.27,990.01,267.87,927.20"/>
<path d="M287.27,990.01,349.96,930.21"/>
<path d="M287.27,990.01,297.65,1042.86"/>
<path d="M443.57,1234.64,562.98,1251.90"/>
<path d="M443.57,1234.64,426.76,1277.35"/>
<path d="M443.57,1234.64,469.99,1165.77"/>
<path d="M594.63,1567.09,728.23,1449.99"/>
<path d="M594.63,1567.09,602.23,1703.79"/>
<path d="M594.63,1567.09,726.59,1639.53"/>
<path d="M594.63,1567.09,525.52,1591.00"/>
<path d="M594.63,1567.09,520.07,1558.79"/>
<path d="M594.63,1567.09,543.21,1462.14"/>
<path d="M1067.31,1464.37,1053.96,1376.26"/>
<path d="M1067.31,1464.37,1131.27,1455.54"/>
<path d="M1067.31,1464.37,826.19,1621.38"/>
<path d="M1067.31,1464.37,1098.51,1498.60"/>
<path d="M705.04,1249.06,601.70,1107.36"/>
<path d="M705.04,1249.06,861.60,1387.00"/>
<path d="M705.04,1249.06,755.68,1210.85"/>
<path d="M705.04,1249.06,691.54,1400.02"/>
<path d="M705.04,1249.06,603.61,1278.65"/>
<path d="M1491.40,278.46,1521.74,107.47"/>
<path d="M1491.40,278.46,1602.13,257.64"/>
<path d="M1491.40,278.46,1452.02,315.44"/>
<path d="M1491.40,278.46,1564.72,375.66"/>
<path d="M62.60,1932.66,83.24,2009.61"/>
<path d="M62.60,1932.66,229.45,1918.29"/>
<path d="M62.60,1932.66,41.93,1850.17"/>
<path d="M1290.64,1009.75,1243.14,1019.99"/>
<path d="M1290.64,1009.75,1349.15,943.69"/>
<path d="M1290.64,1009.75,1416.78,1034.10"/>
<path d="M1104.66,639.14,1145.85,579.58"/>
<path d="M1104.66,639.14,1034.28,630.43"/>
<path d="M1104.66,639.14,1214.91,690.80"/>
<path d="M1104.66,639.14,1116.28,895.68"/>
<path d="M1486.93,800.43,1479.55,749.16"/>
<path d="M1486.93,800.43,1553.96,976.88"/>
<path d="M1486.93,800.43,1421.58,970.30"/>
<path d="M1486.93,800.43,1504.96,986.97"/>
<path d="M1486.93,800.43,1402.56,763.76"/>
<path d="M1486.93,800.43,1627.22,814.97"/>
<path d="M1790.23,1276.94,1854.55,1293.38"/>
<path d="M1790.23,1276.94,1748.94,1208.34"/>
<path d="M1572.56,522.91,1503.88,497.15"/>
<path d="M1572.56,522.91,1558.95,461.71"/>
<path d="M1572.56,522.91,1509.64,545.33"/>
<path d="M1572.56,522.91,1585.92,579.11"/>
<path d="M1355.99,566.78,1360.38,593.81"/>
<path d="M1355.99,566.78,1353.74,498.50"/>
<path d="M1430.23,1208.17,1555.10,1242.20"/>
<path d="M1430.23,1208.17,1268.76,1368.36"/>
<path d="M1430.23,1208.17,1524.06,1315.28"/>
<path d="M1430.23,1208.17,1379.49,1405.95"/>
<path d="M2061.23,833.30,2047.90,806.09"/>
<path d="M2061.23,833.30,2032.85,890.82"/>
<path d="M1479.55,749.16,1505.09,701.65"/>
<path d="M1479.55,749.16,1449.06,721.79"/>
<path d="M272.59,662.10,309.29,616.67"/>
<path d="M272.59,662.10,203.43,660.00"/>
<path d="M1375.53,1599.14,1261.49,1584.71"/>
<path d="M1375.53,1599.14,1363.64,1539.36"/>
<path d="M1375.53,1599.14,1423.31,1648.63"/>
<path d="M1375.53,1599.14,1347.07,1687.79"/>
<path d="M1853.52,136.19,1978.09,149.22"/>
<path d="M1853.52,136.19,1965.92,255.17"/>
<path d="M1853.52,136.19,1807.58,170.40"/>
<path d="M1853.52,136.19,1838.68,36.30"/>
<path d="M1720.45,1208.92,1645.12,1171.56"/>
<path d="M1720.45,1208.92,1748.94,1208.34"/>
<path d="M1280.14,402.69,1353.74,498.50"/>
<path d="M1280.14,402.69,1255.35,360.44"/>
<path d="M1280.14,402.69,1246.72,398.91"/>
<path d="M1280.14,402.69,1291.90,373.56"/>
<path d="M1280.14,402.69,1398.44,442.12"/>
<path d="M1053.96,1376.26,1038.58,1314.84"/>
<path d="M1053.96,1376.26,1199.32,1345.72"/>
<path d="M1053.96,1376.26,1167.04,1285.47"/>
<path d="M1354.04,124.71,1313.54,103.84"/>
<path d="M1354.04,124.71,1349.28,43.82"/>
<path d="M1354.04,124.71,1521.74,107.47"/>
<path d="M1354.04,124.71,1345.45,221.07"/>
<path d="M763.71,1170.60,601.70,1107.36"/>
<path d="M763.71,1170.60,837.70,997.46"/>
<path d="M763.71,1170.60,992.08,1091.44"/>
<path d="M763.71,1170.60,715.57,993.57"/>
<path d="M763.71,1170.60,755.68,1210.85"/>
<path d="M1018.81,1806.97,993.22,1882.65"/>
<path d="M1018.81,1806.97,1038.48,1766.10"/>
<path d="M1018.81,1806.97,1098.27,1886.90"/>
<path d="M1627.32,1134.91,1660.59,1065.27"/>
<path d="M1627.32,1134.91,1754.79,1112.76"/>
<path d="M1627.32,1134.91,1645.12,1171.56"/>
<path d="M1627.32,1134.91,1623.11,1050.92"/>
<path d="M370.56,1418.68,232.41,1477.26"/>
<path d="M370.56,1418.68,408.24,1307.14"/>
<path d="M370.56,1418.68,330.75,1300.50"/>
<path d="M370.56,1418.68,475.19,1481.72"/>
<path d="M370.56,1418.68,302.77,1534.72"/>
<path d="M1844.36,1819.38,1888.39,1809.57"/>
<path d="M1844.36,1819.38,1730.47,1809.26"/>
<path d="M1844.36,1819.38,1812.74,1753.34"/>
<path d="M740.86,1919.37,829.23,1916.43"/>
<path d="M740.86,1919.37,802.06,1988.10"/>
<path d="M740.86,1919.37,716.18,1869.91"/>
<path d="M1553.96,976.88,1504.96,986.97"/>
<path d="M1553.96,976.88,1668.04,996.76"/>
<path d="M1553.96,976.88,1627.22,814.97"/>
<path d="M1553.96,976.88,1623.11,1050.92"/>
<path d="M1840.50,1549.84,1918.49,1374.02"/>
<path d="M1840.50,1549.84,1717.65,1478.73"/>
<path d="M1840.50,1549.84,1962.23,1558.73"/>
<path d="M1840.50,1549.84,1751.11,1658.46"/>
<path d="M78.52,1395.00,155.12,1343.78"/>
<path d="M78.52,1395.00,163.49,1410.69"/>
<path d="M1704.67,2009.58,1662.13,2026.76"/>
<path d="M1704.67,2009.58,1758.72,2042.04"/>
<path d="M1704.67,2009.58,1688.96,1936.74"/>
<path d="M390.15,958.55,384.09,1074.84"/>
<path d="M390.15,958.55,438.77,949.07"/>
<path d="M390.15,958.55,349.96,930.21"/>
<path d="M728.23,1449.99,826.19,1621.38"/>
<path d="M728.23,1449.99,861.60,1387.00"/>
<path d="M728.23,1449.99,726.59,1639.53"/>
<path d="M728.23,1449.99,691.54,1400.02"/>
<path d="M587.06,551.14,574.92,622.68"/>
<path d="M587.06,551.14,614.80,469.51"/>
<path d="M587.06,551.14,726.88,578.60"/>
<path d="M972.89,247.12,1047.93,249.59"/>
<path d="M972.89,247.12,954.45,267.73"/>
<path d="M972.89,247.12,1023.96,146.89"/>
<path d="M972.89,247.12,944.59,129.86"/>
<path d="M1421.58,970.30,1349.15,943.69"/>
<path d="M1421.58,970.30,1504.96,986.97"/>
<path d="M1421.58,970.30,1416.78,1034.10"/>
<path d="M1503.88,497.15,1558.95,461.71"/>
<path d="M1503.88,497.15,1509.64,545.33"/>
<path d="M1503.88,497.15,1404.07,493.31"/>
<path d="M1503.88,497.15,1523.40,418.27"/>
<path d="M1261.49,1584.71,1363.64,1539.36"/>
<path d="M1261.49,1584.71,1217.42,1531.38"/>
<path d="M1261.49,1584.71,1347.07,1687.79"/>
<path d="M1074.46,1649.01,1065.24,1731.80"/>
<path d="M83.24,2009.61,89.97,2040.87"/>
<path d="M83.24,2009.61,120.88,2018.44"/>
<path d="M829.23,1916.43,802.06,1988.10"/>
<path d="M829.23,1916.43,993.22,1882.65"/>
<path d="M829.23,1916.43,789.13,1818.97"/>
<path d="M1245.17,834.07,1319.46,822.68"/>
<path d="M1245.17,834.07,1258.14,720.10"/>
<path d="M1245.17,834.07,1193.47,877.12"/>
<path d="M1360.38,593.81,1365.46,635.61"/>
<path d="M1360.38,593.81,1451.11,591.31"/>
<path d="M1360.38,593.81,1312.50,611.47"/>
<path d="M1472.64,1697.94,1423.31,1648.63"/>
<path d="M1472.64,1697.94,1557.57,1610.85"/>
<path d="M1472.64,1697.94,1476.33,1739.82"/>
<path d="M2047.90,806.09,1891.60,693.48"/>
<path d="M1319.46,822.68,1349.15,943.69"/>
<path d="M1319.46,822.68,1258.14,720.10"/>
<path d="M1319.46,822.68,1402.56,763.76"/>
<path d="M1423.44,340.70,1426.09,375.10"/>
<path d="M1423.44,340.70,1282.20,324.86"/>
<path d="M1423.44,340.70,1405.88,272.52"/>
<path d="M1423.44,340.70,1291.90,373.56"/>
<path d="M1423.44,340.70,1452.02,315.44"/>
<path d="M567.16,1305.31,562.98,1251.90"/>
<path d="M567.16,1305.31,426.76,1277.35"/>
<path d="M567.16,1305.31,691.54,1400.02"/>
<path d="M567.16,1305.31,603.61,1278.65"/>
<path d="M1978.09,149.22,1965.92,255.17"/>
<path d="M1978.09,149.22,2043.59,76.14"/>
<path d="M1978.09,149.22,2015.21,162.81"/>
<path d="M601.70,1107.36,533.48,1117.44"/>
<path d="M601.70,1107.36,594.57,1022.98"/>
<path d="M1015.94,661.29,1034.28,630.43"/>
<path d="M1015.94,661.29,918.61,818.46"/>
<path d="M1015.94,661.29,943.79,612.78"/>
<path d="M1015.94,661.29,1116.28,895.68"/>
<path d="M1662.13,2026.76,1603.66,2010.32"/>
<path d="M196.63,163.22,38.75,200.36"/>
<path d="M196.63,163.22,213.88,191.00"/>
<path d="M196.63,163.22,245.44,54.82"/>
<path d="M196.63,163.22,103.17,86.58"/>
<path d="M802.06,1988.10,806.76,2019.47"/>
<path d="M2001.93,2061.43,2022.05,1913.99"/>
<path d="M2001.93,2061.43,1948.66,2048.80"/>
<path d="M993.22,1882.65,1051.54,1918.74"/>
<path d="M993.22,1882.65,846.04,1770.26"/>
<path d="M1363.64,1539.36,1261.50,1469.95"/>
<path d="M1363.64,1539.36,1429.65,1506.13"/>
<path d="M257.14,1593.38,285.08,1701.33"/>
<path d="M257.14,1593.38,182.80,1660.05"/>
<path d="M257.14,1593.38,302.77,1534.72"/>
<path d="M257.14,1593.38,361.65,1623.33"/>
<path d="M246.29,1200.32,146.32,1316.45"/>
<path d="M246.29,1200.32,330.75,1300.50"/>
<path d="M246.29,1200.32,303.27,1176.84"/>
<path d="M246.29,1200.32,219.98,1172.12"/>
<path d="M232.41,1477.26,302.77,1534.72"/>
<path d="M232.41,1477.26,163.49,1410.69"/>
<path d="M232.41,1477.26,139.19,1575.65"/>
<path d="M837.70,997.46,951.87,948.15"/>
<path d="M837.70,997.46,715.57,993.57"/>
<path d="M837.70,997.46,985.99,1034.46"/>
<path d="M1558.95,461.71,1635.91,440.60"/>
<path d="M1558.95,461.71,1600.70,385.45"/>
<path d="M1558.95,461.71,1523.40,418.27"/>
<path d="M1509.64,545.33,1585.92,579.11"/>
<path d="M1509.64,545.33,1451.11,591.31"/>
<path d="M1273.32,1418.41,1268.76,1368.36"/>
<path d="M1273.32,1418.41,1261.50,1469.95"/>
<path d="M1273.32,1418.41,1379.49,1405.95"/>
<path d="M1273.32,1418.41,1217.28,1408.82"/>
<path d="M38.75,200.36,74.26,297.24"/>
<path d="M38.75,200.36,103.17,86.58"/>
<path d="M1423.31,1648.63,1347.07,1687.79"/>
<path d="M1423.31,1648.63,1557.57,1610.85"/>
<path d="M1009.18,1012.53,1000.47,983.67"/>
<path d="M1009.18,1012.53,985.99,1034.46"/>
<path d="M1009.18,1012.53,1175.32,1085.57"/>
<path d="M229.45,1918.29,79.31,1826.79"/>
<path d="M229.45,1918.29,277.99,1837.88"/>
<path d="M229.45,1918.29,344.17,1888.33"/>
<path d="M229.45,1918.29,120.88,2018.44"/>
<path d="M1889.43,1777.17,1888.39,1809.57"/>
<path d="M1889.43,1777.17,1812.74,1753.34"/>
<path d="M1889.43,1777.17,1884.98,1723.98"/>
<path d="M992.08,1091.44,985.99,1034.46"/>
<path d="M992.08,1091.44,1175.32,1085.57"/>
<path d="M992.08,1091.44,1044.89,1216.41"/>
<path d="M1404.07,493.31,1353.74,498.50"/>
<path d="M1404.07,493.31,1451.11,591.31"/>
<path d="M1404.07,493.31,1398.44,442.12"/>
<path d="M816.10,20.39,705.35,54.94"/>
<path d="M816.10,20.39,800.83,214.07"/>
<path d="M816.10,20.39,944.59,129.86"/>
<path d="M684.83,1842.24,716.18,1869.91"/>
<path d="M684.83,1842.24,615.28,1761.14"/>
<path d="M684.83,1842.24,624.30,1903.46"/>
<path d="M789.13,1818.97,716.18,1869.91"/>
<path d="M789.13,1818.97,846.04,1770.26"/>
<path d="M523.36,1984.46,441.17,1911.08"/>
<path d="M523.36,1984.46,428.95,1972.99"/>
<path d="M523.36,1984.46,562.73,1998.24"/>
<path d="M2049.13,240.47,1965.92,255.17"/>
<path d="M2049.13,240.47,2015.21,162.81"/>
<path d="M1047.93,249.59,1130.59,145.18"/>
<path d="M1047.93,249.59,1023.96,146.89"/>
<path d="M1047.93,249.59,1098.18,267.93"/>
<path d="M1541.39,1796.36,1536.46,1871.49"/>
<path d="M1541.39,1796.36,1487.60,1766.86"/>
<path d="M1541.39,1796.36,1699.12,1730.88"/>
<path d="M1541.39,1796.36,1581.27,1865.43"/>
<path d="M314.60,1847.33,391.88,1733.48"/>
<path d="M314.60,1847.33,277.99,1837.88"/>
<path d="M314.60,1847.33,344.17,1888.33"/>
<path d="M1862.54,601.97,1811.12,630.25"/>
<path d="M1862.54,601.97,1891.60,693.48"/>
<path d="M1862.54,601.97,1897.61,568.18"/>
<path d="M1862.54,601.97,1785.28,558.28"/>
<path d="M1536.46,1871.49,1565.23,1891.57"/>
<path d="M1536.46,1871.49,1455.96,1870.61"/>
<path d="M1536.46,1871.49,1581.27,1865.43"/>
<path d="M1145.85,579.58,1253.04,622.89"/>
<path d="M1145.85,579.58,1214.91,690.80"/>
<path d="M1145.85,579.58,1146.88,456.84"/>
<path d="M475.23,381.78,442.53,410.48"/>
<path d="M475.23,381.78,574.26,327.81"/>
<path d="M475.23,381.78,463.39,342.71"/>
<path d="M475.23,381.78,589.25,454.50"/>
<path d="M954.45,267.73,899.50,298.36"/>
<path d="M1058.16,419.83,1023.01,424.13"/>
<path d="M1058.16,419.83,1098.18,267.93"/>
<path d="M1058.16,419.83,1117.82,431.40"/>
<path d="M562.98,1251.90,603.61,1278.65"/>
<path d="M951.87,948.15,1000.47,983.67"/>
<path d="M951.87,948.15,918.61,818.46"/>
<path d="M1326.48,1713.76,1347.07,1687.79"/>
<path d="M1326.48,1713.76,1311.19,1862.09"/>
<path d="M408.24,1307.14,426.76,1277.35"/>
<path d="M408.24,1307.14,330.75,1300.50"/>
<path d="M1353.74,498.50,1398.44,442.12"/>
<path d="M1635.91,440.60,1788.05,400.97"/>
<path d="M1635.91,440.60,1745.91,345.80"/>
<path d="M1635.91,440.60,1752.60,583.72"/>
<path d="M1635.91,440.60,1600.70,385.45"/>
<path d="M1131.27,1455.54,1154.11,1494.71"/>
<path d="M1131.27,1455.54,1098.51,1498.60"/>
<path d="M1131.27,1455.54,1217.28,1408.82"/>
<path d="M2055.63,938.47,1971.99,957.20"/>
<path d="M2055.63,938.47,2032.85,890.82"/>
<path d="M403.22,119.54,245.44,54.82"/>
<path d="M403.22,119.54,257.57,231.12"/>
<path d="M403.22,119.54,289.05,259.89"/>
<path d="M403.22,119.54,462.79,235.00"/>
<path d="M403.22,119.54,533.12,53.16"/>
<path d="M41.93,1850.17,79.31,1826.79"/>
<path d="M723.74,385.15,899.50,298.36"/>
<path d="M723.74,385.15,942.98,407.61"/>
<path d="M723.74,385.15,702.16,302.64"/>
<path d="M723.74,385.15,614.80,469.51"/>
<path d="M723.74,385.15,730.39,482.78"/>
<path d="M1615.26,1608.61,1717.65,1478.73"/>
<path d="M1615.26,1608.61,1574.98,1579.80"/>
<path d="M1615.26,1608.61,1557.57,1610.85"/>
<path d="M1615.26,1608.61,1751.11,1658.46"/>
<path d="M1615.26,1608.61,1699.12,1730.88"/>
<path d="M705.35,54.94,722.46,190.53"/>
<path d="M705.35,54.94,633.53,75.79"/>
<path d="M1051.54,1918.74,1024.01,1974.85"/>
<path d="M1051.54,1918.74,1098.27,1886.90"/>
<path d="M250.68,374.46,268.98,335.03"/>
<path d="M250.68,374.46,215.34,322.15"/>
<path d="M250.68,374.46,350.73,396.18"/>
<path d="M1660.59,1065.27,1668.04,996.76"/>
<path d="M1660.59,1065.27,1754.79,1112.76"/>
<path d="M1660.59,1065.27,1623.11,1050.92"/>
<path d="M796.35,1675.86,834.53,1697.44"/>
<path d="M796.35,1675.86,826.19,1621.38"/>
<path d="M796.35,1675.86,726.59,1639.53"/>
<path d="M142.20,1664.53,79.31,1826.79"/>
<path d="M142.20,1664.53,182.80,1660.05"/>
<path d="M142.20,1664.53,158.70,1635.06"/>
<path d="M142.20,1664.53,42.73,1636.40"/>
<path d="M24.37,10.21,55.70,11.61"/>
<path d="M285.08,1701.33,391.88,1733.48"/>
<path d="M285.08,1701.33,253.25,1822.11"/>
<path d="M285.08,1701.33,182.80,1660.05"/>
<path d="M285.08,1701.33,361.65,1623.33"/>
<path d="M34.80,958.96,30.73,918.56"/>
<path d="M34.80,958.96,117.54,1013.61"/>
<path d="M1888.39,1809.57,2001.80,1855.42"/>
<path d="M79.31,1826.79,14.54,1650.48"/>
<path d="M79.31,1826.79,253.25,1822.11"/>
<path d="M1130.59,145.18,1225.33,110.66"/>
<path d="M1130.59,145.18,1098.18,267.93"/>
<path d="M1130.59,145.18,1102.49,99.19"/>
<path d="M1426.09,375.10,1291.90,373.56"/>
<path d="M1426.09,375.10,1398.44,442.12"/>
<path d="M1426.09,375.10,1523.40,418.27"/>
<path d="M1333.53,1937.17,1433.20,1937.17"/>
<path d="M1333.53,1937.17,1315.87,1967.16"/>
<path d="M1333.53,1937.17,1311.19,1862.09"/>
<path d="M1243.14,1019.99,1184.70,1001.62"/>
<path d="M1243.14,1019.99,1175.32,1085.57"/>
<path d="M449.52,1580.51,475.19,1481.72"/>
<path d="M449.52,1580.51,525.52,1591.00"/>
<path d="M449.52,1580.51,520.07,1558.79"/>
<path d="M449.52,1580.51,361.65,1623.33"/>
<path d="M98.08,554.59,9.37,689.26"/>
<path d="M98.08,554.59,12.95,428.82"/>
<path d="M98.08,554.59,203.43,660.00"/>
<path d="M899.50,298.36,942.98,407.61"/>
<path d="M899.50,298.36,800.83,214.07"/>
<path d="M267.87,927.20,200.17,748.11"/>
<path d="M267.87,927.20,349.96,930.21"/>
<path d="M267.87,927.20,136.42,812.15"/>
<path d="M1038.58,1314.84,983.53,1309.23"/>
<path d="M1038.58,1314.84,1167.04,1285.47"/>
<path d="M1038.58,1314.84,1044.89,1216.41"/>
<path d="M14.54,1650.48,42.73,1636.40"/>
<path d="M384.09,1074.84,407.84,1121.23"/>
<path d="M384.09,1074.84,452.03,985.30"/>
<path d="M384.09,1074.84,297.65,1042.86"/>
<path d="M1524.33,1353.70,1603.27,1395.06"/>
<path d="M1524.33,1353.70,1524.06,1315.28"/>
<path d="M1524.33,1353.70,1379.49,1405.95"/>
<path d="M213.88,191.00,257.57,231.12"/>
<path d="M834.53,1697.44,892.93,1693.43"/>
<path d="M834.53,1697.44,846.04,1770.26"/>
<path d="M1812.26,773.71,1778.71,785.54"/>
<path d="M1812.26,773.71,1811.12,630.25"/>
<path d="M1812.26,773.71,1891.60,693.48"/>
<path d="M1671.82,1421.38,1603.27,1395.06"/>
<path d="M1671.82,1421.38,1717.65,1478.73"/>
<path d="M1671.82,1421.38,1650.42,1361.78"/>
<path d="M1313.54,103.84,1225.33,110.66"/>
<path d="M1313.54,103.84,1349.28,43.82"/>
<path d="M505.95,617.11,478.13,650.37"/>
<path d="M505.95,617.11,574.92,622.68"/>
<path d="M505.95,617.11,413.13,564.11"/>
<path d="M1806.03,907.94,1847.97,1030.73"/>
<path d="M1806.03,907.94,1934.05,943.91"/>
<path d="M1806.03,907.94,1668.04,996.76"/>
<path d="M1806.03,907.94,1778.71,785.54"/>
<path d="M1806.03,907.94,1901.28,996.00"/>
<path d="M391.88,1733.48,488.66,1844.23"/>
<path d="M391.88,1733.48,393.48,1883.25"/>
<path d="M391.88,1733.48,361.65,1623.33"/>
<path d="M2001.80,1855.42,2022.05,1913.99"/>
<path d="M2001.80,1855.42,2048.19,1840.78"/>
<path d="M1365.46,635.61,1451.11,591.31"/>
<path d="M1365.46,635.61,1312.50,611.47"/>
<path d="M1365.46,635.61,1443.31,693.74"/>
<path d="M1365.46,635.61,1352.54,673.50"/>
<path d="M1023.01,424.13,942.98,407.61"/>
<path d="M826.19,1621.38,861.60,1387.00"/>
<path d="M1847.97,1030.73,1862.98,1071.66"/>
<path d="M1847.97,1030.73,1668.04,996.76"/>
<path d="M1847.97,1030.73,1901.28,996.00"/>
<path d="M2022.05,1913.99,1948.66,2048.80"/>
<path d="M2022.05,1913.99,2048.19,1840.78"/>
<path d="M1255.35,360.44,1282.20,324.86"/>
<path d="M1255.35,360.44,1209.17,326.09"/>
<path d="M1255.35,360.44,1246.72,398.91"/>
<path d="M1255.35,360.44,1291.90,373.56"/>
<path d="M1034.28,630.43,943.79,612.78"/>
<path d="M602.23,1703.79,525.52,1591.00"/>
<path d="M602.23,1703.79,624.48,1716.85"/>
<path d="M146.32,1316.45,59.88,1195.07"/>
<path d="M146.32,1316.45,155.12,1343.78"/>
<path d="M469.99,1165.77,407.84,1121.23"/>
<path d="M469.99,1165.77,533.48,1117.44"/>
<path d="M30.73,918.56,136.42,812.15"/>
<path d="M30.73,918.56,18.24,741.55"/>
<path d="M1561.77,1937.10,1565.23,1891.57"/>
<path d="M1561.77,1937.10,1603.66,2010.32"/>
<path d="M1561.77,1937.10,1433.20,1937.17"/>
<path d="M1561.77,1937.10,1490.07,2041.86"/>
<path d="M1561.77,1937.10,1688.96,1936.74"/>
<path d="M615.28,1761.14,624.48,1716.85"/>
<path d="M615.28,1761.14,542.83,1797.08"/>
<path d="M1603.27,1395.06,1650.42,1361.78"/>
<path d="M2007.05,497.11,1905.49,395.08"/>
<path d="M2007.05,497.11,1897.61,568.18"/>
<path d="M59.88,1195.07,185.18,1122.93"/>
<path d="M59.88,1195.07,77.54,1078.27"/>
<path d="M1854.55,1293.38,1918.49,1374.02"/>
<path d="M1854.55,1293.38,1959.41,1274.35"/>
<path d="M253.25,1822.11,277.99,1837.88"/>
<path d="M155.12,1343.78,330.75,1300.50"/>
<path d="M155.12,1343.78,163.49,1410.69"/>
<path d="M1282.20,324.86,1264.32,303.43"/>
<path d="M1282.20,324.86,1405.88,272.52"/>
<path d="M1282.20,324.86,1291.90,373.56"/>
<path d="M478.13,650.37,505.72,697.79"/>
<path d="M478.13,650.37,415.20,659.73"/>
<path d="M478.13,650.37,413.13,564.11"/>
<path d="M715.57,993.57,700.78,916.92"/>
<path d="M715.57,993.57,605.83,959.36"/>
<path d="M715.57,993.57,594.57,1022.98"/>
<path d="M330.75,1300.50,361.91,1184.92"/>
<path d="M330.75,1300.50,303.27,1176.84"/>
<path d="M438.77,949.07,452.03,985.30"/>
<path d="M438.77,949.07,428.22,812.49"/>
<path d="M438.77,949.07,602.55,866.86"/>
<path d="M861.60,1387.00,909.24,1312.67"/>
<path d="M1000.47,983.67,1099.77,935.82"/>
<path d="M1565.23,1891.57,1688.96,1936.74"/>
<path d="M1565.23,1891.57,1581.27,1865.43"/>
<path d="M27.15,318.66,74.26,297.24"/>
<path d="M27.15,318.66,3.99,359.89"/>
<path d="M27.15,318.66,39.77,374.57"/>
<path d="M1617.11,22.57,1679.30,208.00"/>
<path d="M1617.11,22.57,1521.74,107.47"/>
<path d="M1617.11,22.57,1838.68,36.30"/>
<path d="M584.13,259.05,574.26,327.81"/>
<path d="M584.13,259.05,533.12,53.16"/>
<path d="M584.13,259.05,616.07,257.09"/>
<path d="M584.13,259.05,498.88,261.26"/>
<path d="M2011.65,1343.75,1993.30,1317.76"/>
<path d="M2011.65,1343.75,1953.60,1357.37"/>
<path d="M1788.05,400.97,1745.91,345.80"/>
<path d="M1788.05,400.97,1905.49,395.08"/>
<path d="M1788.05,400.97,1852.82,268.62"/>
<path d="M1788.05,400.97,1785.28,558.28"/>
<path d="M1603.66,2010.32,1490.07,2041.86"/>
<path d="M1168.89,2038.74,1194.10,2015.28"/>
<path d="M574.92,622.68,505.72,697.79"/>
<path d="M574.92,622.68,726.88,578.60"/>
<path d="M574.92,622.68,707.33,676.42"/>
<path d="M1433.20,1937.17,1455.96,1870.61"/>
<path d="M1433.20,1937.17,1490.07,2041.86"/>
<path d="M1758.72,2042.04,1948.66,2048.80"/>
<path d="M1585.92,579.11,1579.18,710.66"/>
<path d="M1585.92,579.11,1625.03,703.40"/>
<path d="M1585.92,579.11,1505.09,701.65"/>
<path d="M1585.92,579.11,1684.66,676.20"/>
<path d="M1585.92,579.11,1752.60,583.72"/>
<path d="M1264.32,303.43,1225.33,110.66"/>
<path d="M1264.32,303.43,1209.17,326.09"/>
<path d="M1264.32,303.43,1345.45,221.07"/>
<path d="M1158.48,1949.92,1194.10,2015.28"/>
<path d="M1158.48,1949.92,1311.19,1862.09"/>
<path d="M700.78,916.92,918.61,818.46"/>
<path d="M700.78,916.92,697.74,740.38"/>
<path d="M700.78,916.92,602.55,866.86"/>
<path d="M700.78,916.92,605.83,959.36"/>
<path d="M942.98,407.61,943.04,477.69"/>
<path d="M407.84,1121.23,387.38,1141.92"/>
<path d="M2059.01,1573.52,2048.19,1840.78"/>
<path d="M2059.01,1573.52,1962.23,1558.73"/>
<path d="M488.66,1844.23,441.17,1911.08"/>
<path d="M488.66,1844.23,624.30,1903.46"/>
<path d="M488.66,1844.23,542.83,1797.08"/>
<path d="M983.53,1309.23,909.24,1312.67"/>
<path d="M983.53,1309.23,1044.89,1216.41"/>
<path d="M1918.49,1374.02,1717.65,1478.73"/>
<path d="M1918.49,1374.02,1962.23,1558.73"/>
<path d="M1918.49,1374.02,1953.60,1357.37"/>
<path d="M1023.96,146.89,1038.86,63.12"/>
<path d="M1023.96,146.89,944.59,129.86"/>
<path d="M1023.96,146.89,1102.49,99.19"/>
<path d="M1971.99,957.20,1934.05,943.91"/>
<path d="M1971.99,957.20,1989.59,1147.80"/>
<path d="M1971.99,957.20,2032.85,890.82"/>
<path d="M755.68,1210.85,909.24,1312.67"/>
<path d="M1099.77,935.82,1184.70,1001.62"/>
<path d="M1099.77,935.82,1116.28,895.68"/>
<path d="M722.46,190.53,702.16,302.64"/>
<path d="M722.46,190.53,633.53,75.79"/>
<path d="M722.46,190.53,800.83,214.07"/>
<path d="M722.46,190.53,616.07,257.09"/>
<path d="M1579.18,710.66,1625.03,703.40"/>
<path d="M1579.18,710.66,1505.09,701.65"/>
<path d="M1579.18,710.66,1627.22,814.97"/>
<path d="M1024.01,1974.85,806.76,2019.47"/>
<path d="M1625.59,1289.65,1555.10,1242.20"/>
<path d="M1625.59,1289.65,1524.06,1315.28"/>
<path d="M1625.59,1289.65,1645.12,1171.56"/>
<path d="M1625.59,1289.65,1656.96,1314.39"/>
<path d="M1405.88,272.52,1345.45,221.07"/>
<path d="M1405.88,272.52,1452.02,315.44"/>
<path d="M1253.04,622.89,1290.58,640.97"/>
<path d="M1253.04,622.89,1214.91,690.80"/>
<path d="M1717.65,1478.73,1751.11,1658.46"/>
<path d="M1934.05,943.91,1901.28,996.00"/>
<path d="M361.91,1184.92,303.27,1176.84"/>
<path d="M361.91,1184.92,387.38,1141.92"/>
<path d="M182.80,1660.05,158.70,1635.06"/>
<path d="M1555.10,1242.20,1524.06,1315.28"/>
<path d="M1268.76,1368.36,1230.87,1337.40"/>
<path d="M1268.76,1368.36,1379.49,1405.95"/>
<path d="M1268.76,1368.36,1217.28,1408.82"/>
<path d="M1965.92,255.17,1905.49,395.08"/>
<path d="M1965.92,255.17,1852.82,268.62"/>
<path d="M1965.92,255.17,2015.21,162.81"/>
<path d="M1217.42,1531.38,1154.11,1494.71"/>
<path d="M1217.42,1531.38,1261.50,1469.95"/>
<path d="M1217.42,1531.38,1142.04,1540.29"/>
<path d="M169.81,702.71,200.17,748.11"/>
<path d="M169.81,702.71,118.98,784.79"/>
<path d="M169.81,702.71,9.37,689.26"/>
<path d="M169.81,702.71,203.43,660.00"/>
<path d="M400.94,353.25,442.53,410.48"/>
<path d="M400.94,353.25,463.39,342.71"/>
<path d="M400.94,353.25,289.05,259.89"/>
<path d="M400.94,353.25,350.73,396.18"/>
<path d="M245.44,54.82,103.17,86.58"/>
<path d="M1745.91,345.80,1745.43,262.46"/>
<path d="M1745.91,345.80,1600.70,385.45"/>
<path d="M1745.91,345.80,1852.82,268.62"/>
<path d="M452.03,985.30,533.48,1117.44"/>
<path d="M452.03,985.30,605.83,959.36"/>
<path d="M452.03,985.30,594.57,1022.98"/>
<path d="M1989.59,1147.80,1953.61,1164.18"/>
<path d="M1455.96,1870.61,1487.60,1766.86"/>
<path d="M691.54,1400.02,603.61,1278.65"/>
<path d="M691.54,1400.02,543.21,1462.14"/>
<path d="M1368.24,16.17,1349.28,43.82"/>
<path d="M1368.24,16.17,1521.74,107.47"/>
<path d="M268.98,335.03,215.34,322.15"/>
<path d="M268.98,335.03,289.05,259.89"/>
<path d="M268.98,335.03,350.73,396.18"/>
<path d="M892.93,1693.43,980.30,1726.18"/>
<path d="M892.93,1693.43,846.04,1770.26"/>
<path d="M1098.18,267.93,1209.17,326.09"/>
<path d="M1098.18,267.93,1117.82,431.40"/>
<path d="M1154.11,1494.71,1098.51,1498.60"/>
<path d="M1154.11,1494.71,1217.28,1408.82"/>
<path d="M1154.11,1494.71,1142.04,1540.29"/>
<path d="M1667.78,1339.15,1656.96,1314.39"/>
<path d="M1667.78,1339.15,1650.42,1361.78"/>
<path d="M442.53,410.48,350.73,396.18"/>
<path d="M442.53,410.48,413.13,564.11"/>
<path d="M1230.87,1337.40,1199.32,1345.72"/>
<path d="M1230.87,1337.40,1217.28,1408.82"/>
<path d="M1504.96,986.97,1416.78,1034.10"/>
<path d="M428.22,812.49,200.17,748.11"/>
<path d="M428.22,812.49,505.72,697.79"/>
<path d="M428.22,812.49,415.20,659.73"/>
<path d="M428.22,812.49,349.96,930.21"/>
<path d="M428.22,812.49,602.55,866.86"/>
<path d="M200.17,748.11,118.98,784.79"/>
<path d="M200.17,748.11,136.42,812.15"/>
<path d="M1038.48,1766.10,980.30,1726.18"/>
<path d="M1038.48,1766.10,1065.24,1731.80"/>
<path d="M441.17,1911.08,393.48,1883.25"/>
<path d="M441.17,1911.08,428.95,1972.99"/>
<path d="M1209.17,326.09,1117.82,431.40"/>
<path d="M1290.58,640.97,1312.50,611.47"/>
<path d="M1290.58,640.97,1352.54,673.50"/>
<path d="M1290.58,640.97,1258.14,720.10"/>
<path d="M1199.32,1345.72,1167.04,1285.47"/>
<path d="M1199.32,1345.72,1217.28,1408.82"/>
<path d="M303.27,1176.84,272.33,1077.69"/>
<path d="M215.34,322.15,257.57,231.12"/>
<path d="M475.19,1481.72,302.77,1534.72"/>
<path d="M475.19,1481.72,520.07,1558.79"/>
<path d="M475.19,1481.72,543.21,1462.14"/>
<path d="M1451.11,591.31,1443.31,693.74"/>
<path d="M505.72,697.79,697.74,740.38"/>
<path d="M505.72,697.79,602.55,866.86"/>
<path d="M574.26,327.81,463.39,342.71"/>
<path d="M574.26,327.81,589.25,454.50"/>
<path d="M574.26,327.81,498.88,261.26"/>
<path d="M1261.50,1469.95,1217.28,1408.82"/>
<path d="M1730.47,1809.26,1812.74,1753.34"/>
<path d="M1730.47,1809.26,1713.68,1854.22"/>
<path d="M1730.47,1809.26,1699.12,1730.88"/>
<path d="M1862.98,1071.66,1754.79,1112.76"/>
<path d="M1862.98,1071.66,1953.61,1164.18"/>
<path d="M1668.04,996.76,1627.22,814.97"/>
<path d="M1668.04,996.76,1623.11,1050.92"/>
<path d="M1754.79,1112.76,1645.12,1171.56"/>
<path d="M1754.79,1112.76,1748.94,1208.34"/>
<path d="M393.48,1883.25,344.17,1888.33"/>
<path d="M463.39,342.71,498.88,261.26"/>
<path d="M624.30,1903.46,562.73,1998.24"/>
<path d="M624.30,1903.46,542.83,1797.08"/>
<path d="M1812.74,1753.34,1751.11,1658.46"/>
<path d="M1812.74,1753.34,1699.12,1730.88"/>
<path d="M1117.82,431.40,1146.88,456.84"/>
<path d="M1625.03,703.40,1684.66,676.20"/>
<path d="M1625.03,703.40,1627.22,814.97"/>
<path d="M118.98,784.79,136.42,812.15"/>
<path d="M118.98,784.79,18.24,741.55"/>
<path d="M1993.30,1317.76,1959.41,1274.35"/>
<path d="M1993.30,1317.76,1953.60,1357.37"/>
<path d="M1234.46,2014.03,1315.87,1967.16"/>
<path d="M1234.46,2014.03,1194.10,2015.28"/>
<path d="M9.37,689.26,18.24,741.55"/>
<path d="M1443.31,693.74,1352.54,673.50"/>
<path d="M1443.31,693.74,1505.09,701.65"/>
<path d="M1443.31,693.74,1449.06,721.79"/>
<path d="M1778.71,785.54,1684.66,676.20"/>
<path d="M1778.71,785.54,1627.22,814.97"/>
<path d="M1745.43,262.46,1679.30,208.00"/>
<path d="M1745.43,262.46,1807.58,170.40"/>
<path d="M1745.43,262.46,1852.82,268.62"/>
<path d="M1713.68,1854.22,1688.96,1936.74"/>
<path d="M1713.68,1854.22,1581.27,1865.43"/>
<path d="M1246.72,398.91,1146.88,456.84"/>
<path d="M1679.30,208.00,1521.74,107.47"/>
<path d="M1679.30,208.00,1602.13,257.64"/>
<path d="M1679.30,208.00,1807.58,170.40"/>
<path d="M3.99,359.89,39.77,374.57"/>
<path d="M3.99,359.89,12.95,428.82"/>
<path d="M1953.61,1164.18,1748.94,1208.34"/>
<path d="M158.70,1635.06,143.81,1604.69"/>
<path d="M393.21,589.18,415.20,659.73"/>
<path d="M393.21,589.18,309.29,616.67"/>
<path d="M393.21,589.18,413.13,564.11"/>
<path d="M918.61,818.46,697.74,740.38"/>
<path d="M918.61,818.46,1116.28,895.68"/>
<path d="M257.57,231.12,289.05,259.89"/>
<path d="M1905.49,395.08,1852.82,268.62"/>
<path d="M1905.49,395.08,1897.61,568.18"/>
<path d="M702.16,302.64,800.83,214.07"/>
<path d="M702.16,302.64,616.07,257.09"/>
<path d="M415.20,659.73,309.29,616.67"/>
<path d="M289.05,259.89,462.79,235.00"/>
<path d="M697.74,740.38,602.55,866.86"/>
<path d="M697.74,740.38,707.33,676.42"/>
<path d="M1811.12,630.25,1757.13,609.03"/>
<path d="M1811.12,630.25,1891.60,693.48"/>
<path d="M1811.12,630.25,1785.28,558.28"/>
<path d="M39.77,374.57,113.41,357.19"/>
<path d="M39.77,374.57,12.95,428.82"/>
<path d="M943.79,612.78,829.01,588.97"/>
<path d="M943.79,612.78,943.04,477.69"/>
<path d="M633.53,75.79,533.12,53.16"/>
<path d="M633.53,75.79,616.07,257.09"/>
<path d="M1352.54,673.50,1258.14,720.10"/>
<path d="M1352.54,673.50,1402.56,763.76"/>
<path d="M1291.90,373.56,1398.44,442.12"/>
<path d="M1038.86,63.12,944.59,129.86"/>
<path d="M1038.86,63.12,1102.49,99.19"/>
<path d="M1574.98,1579.80,1557.57,1610.85"/>
<path d="M1574.98,1579.80,1429.65,1506.13"/>
<path d="M1884.98,1723.98,1962.23,1558.73"/>
<path d="M1167.04,1285.47,1235.13,1147.64"/>
<path d="M1167.04,1285.47,1044.89,1216.41"/>
<path d="M829.01,588.97,784.05,574.42"/>
<path d="M829.01,588.97,943.04,477.69"/>
<path d="M302.77,1534.72,361.65,1623.33"/>
<path d="M525.52,1591.00,520.07,1558.79"/>
<path d="M272.33,1077.69,185.18,1122.93"/>
<path d="M272.33,1077.69,297.65,1042.86"/>
<path d="M272.33,1077.69,219.98,1172.12"/>
<path d="M1505.09,701.65,1449.06,721.79"/>
<path d="M602.55,866.86,605.83,959.36"/>
<path d="M1757.13,609.03,1684.66,676.20"/>
<path d="M1757.13,609.03,1752.60,583.72"/>
<path d="M800.83,214.07,944.59,129.86"/>
<path d="M2043.59,76.14,2015.21,162.81"/>
<path d="M1521.74,107.47,1602.13,257.64"/>
<path d="M185.18,1122.93,77.54,1078.27"/>
<path d="M185.18,1122.93,219.98,1172.12"/>
<path d="M1214.91,690.80,1258.14,720.10"/>
<path d="M784.05,574.42,726.88,578.60"/>
<path d="M784.05,574.42,730.39,482.78"/>
<path d="M1602.13,257.64,1564.72,375.66"/>
<path d="M1602.13,257.64,1600.70,385.45"/>
<path d="M520.07,1558.79,543.21,1462.14"/>
<path d="M1402.56,763.76,1449.06,721.79"/>
<path d="M605.83,959.36,594.57,1022.98"/>
<path d="M143.81,1604.69,42.73,1636.40"/>
<path d="M143.81,1604.69,139.19,1575.65"/>
<path d="M350.73,396.18,413.13,564.11"/>
<path d="M1452.02,315.44,1564.72,375.66"/>
<path d="M1235.13,1147.64,1175.32,1085.57"/>
<path d="M1235.13,1147.64,1044.89,1216.41"/>
<path d="M462.79,235.00,533.12,53.16"/>
<path d="M462.79,235.00,498.88,261.26"/>
<path d="M1098.51,1498.60,1142.04,1540.29"/>
<path d="M1398.44,442.12,1523.40,418.27"/>
<path d="M1752.60,583.72,1785.28,558.28"/>
<path d="M589.25,454.50,614.80,469.51"/>
<path d="M1688.96,1936.74,1581.27,1865.43"/>
<path d="M1557.57,1610.85,1429.65,1506.13"/>
<path d="M1184.70,1001.62,1175.32,1085.57"/>
<path d="M1184.70,1001.62,1193.47,877.12"/>
<path d="M614.80,469.51,730.39,482.78"/>
<path d="M1487.60,1766.86,1476.33,1739.82"/>
<path d="M117.54,1013.61,77.54,1078.27"/>
<path d="M1564.72,375.66,1600.70,385.45"/>
<path d="M1564.72,375.66,1523.40,418.27"/>
<path d="M103.17,86.58,61.81,40.12"/>
<path d="M1751.11,1658.46,1699.12,1730.88"/>
<path d="M1807.58,170.40,1852.82,268.62"/>
<path d="M1175.32,1085.57,1044.89,1216.41"/>
<path d="M726.88,578.60,730.39,482.78"/>
<path d="M726.88,578.60,707.33,676.42"/>
<path d="M89.97,2040.87,120.88,2018.44"/>
<path d="M1193.47,877.12,1116.28,895.68"/>
<path d="M1699.12,1730.88,1581.27,1865.43"/>
<path d="M55.70,11.61,61.81,40.12"/>
<path d="M730.39,482.78,943.04,477.69"/>
<circle cx="712.48" cy="1819.94" r="10"/>
<text x="712.48" y="1824.94">R0</text>
<circle cx="1843.33" cy="1711.22" r="10"/>
<text x="1843.33" y="1716.22">R1</text>
<circle cx="496.16" cy="1388.67" r="10"/>
<text x="496.16" y="1393.67">R2</text>
<circle cx="664.36" cy="1723.28" r="10"/>
<text x="664.36" y="1728.28">R3</text>
<circle cx="167.81" cy="1021.52" r="10"/>
<text x="167.81" y="1026.52">R4</text>
<circle cx="1687.22" cy="1297.76" r="10"/>
<text x="1687.22" y="1302.76">R5</text>
<circle cx="1399.14" cy="1839.90" r="10"/>
<text x="1399.14" y="1844.90">R6</text>
<circle cx="1559.15" cy="1453.18" r="10"/>
<text x="1559.15" y="1458.18">R7</text>
<circle cx="1595.78" cy="1154.76" r="10"/>
<text x="1595.78" y="1159.76">R8</text>
<circle cx="1019.79" cy="550.59" r="10"/>
<text x="1019.79" y="555.59">R9</text>
<circle cx="997.94" cy="460.87" r="10"/>
<text x="997.94" y="465.87">R10</text>
<circle cx="1966.13" cy="1195.60" r="10"/>
<text x="1966.13" y="1200.60">R11</text>
<circle cx="958.47" cy="1387.26" r="10"/>
<text x="958.47" y="1392.26">R12</text>
<circle cx="145.46" cy="371.94" r="10"/>
<text x="145.46" y="376.94">R13</text>
<circle cx="1429.02" cy="1747.53" r="10"/>
<text x="1429.02" y="1752.53">R14</text>
<circle cx="1434.15" cy="1456.48" r="10"/>
<text x="1434.15" y="1461.48">R15</text>
<circle cx="128.56" cy="325.99" r="10"/>
<text x="128.56" y="330.99">R16</text>
<circle cx="557.85" cy="1176.87" r="10"/>
<text x="557.85" y="1181.87">R17</text>
<circle cx="1132.02" cy="1946.84" r="10"/>
<text x="1132.02" y="1951.84">R18</text>
<circle cx="2058.88" cy="1372.41" r="10"/>
<text x="2058.88" y="1377.41">R19</text>
<circle cx="1362.61" cy="1153.48" r="10"/>
<text x="1362.61" y="1158.48">R20</text>
<circle cx="1104.71" cy="1650.73" r="10"/>
<text x="1104.71" y="1655.73">R21</text>
<circle cx="409.76" cy="1212.22" r="10"/>
<text x="409.76" y="1217.22">R22</text>
<circle cx="287.27" cy="990.01" r="10"/>
<text x="287.27" y="995.01">R23</text>
<circle cx="443.57" cy="1234.64" r="10"/>
<text x="443.57" y="1239.64">R24</text>
<circle cx="594.63" cy="1567.09" r="10"/>
<text x="594.63" y="1572.09">R25</text>
<circle cx="1067.31" cy="1464.37" r="10"/>
<text x="1067.31" y="1469.37">R26</text>
<circle cx="705.04" cy="1249.06" r="10"/>
<text x="705.04" y="1254.06">R27</text>
<circle cx="1491.40" cy="278.46" r="10"/>
<text x="1491.40" y="283.46">R28</text>
<circle cx="62.60" cy="1932.66" r="10"/>
<text x="62.60" y="1937.66">R29</text>
<circle cx="1290.64" cy="1009.75" r="10"/>
<text x="1290.64" y="1014.75">R30</text>
<circle cx="1104.66" cy="639.14" r="10"/>
<text x="1104.66" y="644.14">R31</text>
<circle cx="1486.93" cy="800.43" r="10"/>
<text x="1486.93" y="805.43">R32</text>
<circle cx="1790.23" cy="1276.94" r="10"/>
<text x="1790.23" y="1281.94">R33</text>
<circle cx="1572.56" cy="522.91" r="10"/>
<text x="1572.56" y="527.91">R34</text>
<circle cx="1355.99" cy="566.78" r="10"/>
<text x="1355.99" y="571.78">R35</text>
<circle cx="1430.23" cy="1208.17" r="10"/>
<text x="1430.23" y="1213.17">R36</text>
<circle cx="2061.23" cy="833.30" r="10"/>
<text x="2061.23" y="838.30">R37</text>
<circle cx="1479.55" cy="749.16" r="10"/>
<text x="1479.55" y="754.16">R38</text>
<circle cx="272.59" cy="662.10" r="10"/>
<text x="272.59" y="667.10">R39</text>
<circle cx="1375.53" cy="1599.14" r="10"/>
<text x="1375.53" y="1604.14">R40</text>
<circle cx="1853.52" cy="136.19" r="10"/>
<text x="1853.52" y="141.19">R41</text>
<circle cx="1720.45" cy="1208.92" r="10"/>
<text x="1720.45" y="1213.92">R42</text>
<circle cx="1280.14" cy="402.69" r="10"/>
<text x="1280.14" y="407.69">R43</text>
<circle cx="1053.96" cy="1376.26" r="10"/>
<text x="1053.96" y="1381.26">R44</text>
<circle cx="1354.04" cy="124.71" r="10"/>
<text x="1354.04" y="129.71">R45</text>
<circle cx="763.71" cy="1170.60" r="10"/>
<text x="763.71" y="1175.60">R46</text>
<circle cx="1018.81" cy="1806.97" r="10"/>
<text x="1018.81" y="1811.97">R47</text>
<circle cx="1627.32" cy="1134.91" r="10"/>
<text x="1627.32" y="1139.91">R48</text>
<circle cx="370.56" cy="1418.68" r="10"/>
<text x="370.56" y="1423.68">R49</text>
<circle cx="1844.36" cy="1819.38" r="10"/>
<text x="1844.36" y="1824.38">R50</text>
<circle cx="740.86" cy="1919.37" r="10"/>
<text x="740.86" y="1924.37">R51</text>
<circle cx="1553.96" cy="976.88" r="10"/>
<text x="1553.96" y="981.88">R52</text>
<circle cx="1840.50" cy="1549.84" r="10"/>
<text x="1840.50" y="1554.84">R53</text>
<circle cx="78.52" cy="1395.00" r="10"/>
<text x="78.52" y="1400.00">R54</text>
<circle cx="1704.67" cy="2009.58" r="10"/>
<text x="1704.67" y="2014.58">R55</text>
<circle cx="390.15" cy="958.55" r="10"/>
<text x="390.15" y="963.55">R56</text>
<circle cx="728.23" cy="1449.99" r="10"/>
<text x="728.23" y="1454.99">R57</text>
<circle cx="587.06" cy="551.14" r="10"/>
<text x="587.06" y="556.14">R58</text>
<circle cx="972.89" cy="247.12" r="10"/>
<text x="972.89" y="252.12">R59</text>
<circle cx="1421.58" cy="970.30" r="10"/>
<text x="1421.58" y="975.30">R60</text>
<circle cx="1503.88" cy="497.15" r="10"/>
<text x="1503.88" y="502.15">R61</text>
<circle cx="1261.49" cy="1584.71" r="10"/>
<text x="1261.49" y="1589.71">R62</text>
<circle cx="1074.46" cy="1649.01" r="10"/>
<text x="1074.46" y="1654.01">R63</text>
<circle cx="83.24" cy="2009.61" r="10"/>
<text x="83.24" y="2014.61">R64</text>
<circle cx="829.23" cy="1916.43" r="10"/>
<text x="829.23" y="1921.43">R65</text>
<circle cx="1245.17" cy="834.07" r="10"/>
<text x="1245.17" y="839.07">R66</text>
<circle cx="1360.38" cy="593.81" r="10"/>
<text x="1360.38" y="598.81">R67</text>
<circle cx="1472.64" cy="1697.94" r="10"/>
<text x="1472.64" y="1702.94">R68</text>
<circle cx="2047.90" cy="806.09" r="10"/>
<text x="2047.90" y="811.09">R69</text>
<circle cx="1319.46" cy="822.68" r="10"/>
<text x="1319.46" y="827.68">R70</text>
<circle cx="1423.44" cy="340.70" r="10"/>
<text x="1423.44" y="345.70">R71</text>
<circle cx="567.16" cy="1305.31" r="10"/>
<text x="567.16" y="1310.31">R72</text>
<circle cx="1978.09" cy="149.22" r="10"/>
<text x="1978.09" y="154.22">R73</text>
<circle cx="601.70" cy="1107.36" r="10"/>
<text x="601.70" y="1112.36">R74</text>
<circle cx="1015.94" cy="661.29" r="10"/>
<text x="1015.94" y="666.29">R75</text>
<circle cx="1662.13" cy="2026.76" r="10"/>
<text x="1662.13" y="2031.76">R76</text>
<circle cx="196.63" cy="163.22" r="10"/>
<text x="196.63" y="168.22">R77</text>
<circle cx="802.06" cy="1988.10" r="10"/>
<text x="802.06" y="1993.10">R78</text>
<circle cx="2001.93" cy="2061.43" r="10"/>
<text x="2001.93" y="2066.43">R79</text>
<circle cx="993.22" cy="1882.65" r="10"/>
<text x="993.22" y="1887.65">R80</text>
<circle cx="1363.64" cy="1539.36" r="10"/>
<text x="1363.64" y="1544.36">R81</text>
<circle cx="257.14" cy="1593.38" r="10"/>
<text x="257.14" y="1598.38">R82</text>
<circle cx="246.29" cy="1200.32" r="10"/>
<text x="246.29" y="1205.32">R83</text>
<circle cx="232.41" cy="1477.26" r="10"/>
<text x="232.41" y="1482.26">R84</text>
<circle cx="837.70" cy="997.46" r="10"/>
<text x="837.70" y="1002.46">R85</text>
<circle cx="1558.95" cy="461.71" r="10"/>
<text x="1558.95" y="466.71">R86</text>
<circle cx="1509.64" cy="545.33" r="10"/>
<text x="1509.64" y="550.33">R87</text>
<circle cx="1273.32" cy="1418.41" r="10"/>
<text x="1273.32" y="1423.41">R88</text>
<circle cx="38.75" cy="200.36" r="10"/>
<text x="38.75" y="205.36">R89</text>
<circle cx="1423.31" cy="1648.63" r="10"/>
<text x="1423.31" y="1653.63">R90</text>
<circle cx="1009.18" cy="1012.53" r="10"/>
<text x="1009.18" y="1017.53">R91</text>
<circle cx="229.45" cy="1918.29" r="10"/>
<text x="229.45" y="1923.29">R92</text>
<circle cx="1889.43" cy="1777.17" r="10"/>
<text x="1889.43" y="1782.17">R93</text>
<circle cx="992.08" cy="1091.44" r="10"/>
<text x="992.08" y="1096.44">R94</text>
<circle cx="1404.07" cy="493.31" r="10"/>
<text x="1404.07" y="498.31">R95</text>
<circle cx="816.10" cy="20.39" r="10"/>
<text x="816.10" y="25.39">R96</text>
<circle cx="684.83" cy="1842.24" r="10"/>
<text x="684.83" y="1847.24">R97</text>
<circle cx="789.13" cy="1818.97" r="10"/>
<text x="789.13" y="1823.97">R98</text>
<circle cx="523.36" cy="1984.46" r="10"/>
<text x="523.36" y="1989.46">R99</text>
<circle cx="2049.13" cy="240.47" r="10"/>
<text x="2049.13" y="245.47">R100</text>
<circle cx="1047.93" cy="249.59" r="10"/>
<text x="1047.93" y="254.59">R101</text>
<circle cx="1541.39" cy="1796.36" r="10"/>
<text x="1541.39" y="1801.36">R102</text>
<circle cx="314.60" cy="1847.33" r="10"/>
<text x="314.60" y="1852.33">R103</text>
<circle cx="1862.54" cy="601.97" r="10"/>
<text x="1862.54" y="606.97">R104</text>
<circle cx="1536.46" cy="1871.49" r="10"/>
<text x="1536.46" y="1876.49">R105</text>
<circle cx="1145.85" cy="579.58" r="10"/>
<text x="1145.85" y="584.58">R106</text>
<circle cx="475.23" cy="381.78" r="10"/>
<text x="475.23" y="386.78">R107</text>
<circle cx="954.45" cy="267.73" r="10"/>
<text x="954.45" y="272.73">R108</text>
<circle cx="1058.16" cy="419.83" r="10"/>
<text x="1058.16" y="424.83">R109</text>
<circle cx="562.98" cy="1251.90" r="10"/>
<text x="562.98" y="1256.90">R110</text>
<circle cx="951.87" cy="948.15" r="10"/>
<text x="951.87" y="953.15">R111</text>
<circle cx="1326.48" cy="1713.76" r="10"/>
<text x="1326.48" y="1718.76">R112</text>
<circle cx="408.24" cy="1307.14" r="10"/>
<text x="408.24" y="1312.14">R113</text>
<circle cx="1353.74" cy="498.50" r="10"/>
<text x="1353.74" y="503.50">R114</text>
<circle cx="1635.91" cy="440.60" r="10"/>
<text x="1635.91" y="445.60">R115</text>
<circle cx="1131.27" cy="1455.54" r="10"/>
<text x="1131.27" y="1460.54">R116</text>
<circle cx="2055.63" cy="938.47" r="10"/>
<text x="2055.63" y="943.47">R117</text>
<circle cx="403.22" cy="119.54" r="10"/>
<text x="403.22" y="124.54">R118</text>
<circle cx="41.93" cy="1850.17" r="10"/>
<text x="41.93" y="1855.17">R119</text>
<circle cx="723.74" cy="385.15" r="10"/>
<text x="723.74" y="390.15">R120</text>
<circle cx="1615.26" cy="1608.61" r="10"/>
<text x="1615.26" y="1613.61">R121</text>
<circle cx="705.35" cy="54.94" r="10"/>
<text x="705.35" y="59.94">R122</text>
<circle cx="1051.54" cy="1918.74" r="10"/>
<text x="1051.54" y="1923.74">R123</text>
<circle cx="250.68" cy="374.46" r="10"/>
<text x="250.68" y="379.46">R124</text>
<circle cx="1660.59" cy="1065.27" r="10"/>
<text x="1660.59" y="1070.27">R125</text>
<circle cx="796.35" cy="1675.86" r="10"/>
<text x="796.35" y="1680.86">R126</text>
<circle cx="142.20" cy="1664.53" r="10"/>
<text x="142.20" y="1669.53">R127</text>
<circle cx="24.37" cy="10.21" r="10"/>
<text x="24.37" y="15.21">R128</text>
<circle cx="285.08" cy="1701.33" r="10"/>
<text x="285.08" y="1706.33">R129</text>
<circle cx="34.80" cy="958.96" r="10"/>
<text x="34.80" y="963.96">R130</text>
<circle cx="1888.39" cy="1809.57" r="10"/>
<text x="1888.39" y="1814.57">R131</text>
<circle cx="79.31" cy="1826.79" r="10"/>
<text x="79.31" y="1831.79">R132</text>
<circle cx="1130.59" cy="145.18" r="10"/>
<text x="1130.59" y="150.18">R133</text>
<circle cx="1426.09" cy="375.10" r="10"/>
<text x="1426.09" y="380.10">R134</text>
<circle cx="1333.53" cy="1937.17" r="10"/>
<text x="1333.53" y="1942.17">R135</text>
<circle cx="426.76" cy="1277.35" r="10"/>
<text x="426.76" y="1282.35">R136</text>
<circle cx="1243.14" cy="1019.99" r="10"/>
<text x="1243.14" y="1024.99">R137</text>
<circle cx="449.52" cy="1580.51" r="10"/>
<text x="449.52" y="1585.51">R138</text>
<circle cx="98.08" cy="554.59" r="10"/>
<text x="98.08" y="559.59">R139</text>
<circle cx="899.50" cy="298.36" r="10"/>
<text x="899.50" y="303.36">R140</text>
<circle cx="267.87" cy="927.20" r="10"/>
<text x="267.87" y="932.20">R141</text>
<circle cx="1038.58" cy="1314.84" r="10"/>
<text x="1038.58" y="1319.84">R142</text>
<circle cx="14.54" cy="1650.48" r="10"/>
<text x="14.54" y="1655.48">R143</text>
<circle cx="384.09" cy="1074.84" r="10"/>
<text x="384.09" y="1079.84">R144</text>
<circle cx="1524.33" cy="1353.70" r="10"/>
<text x="1524.33" y="1358.70">R145</text>
<circle cx="213.88" cy="191.00" r="10"/>
<text x="213.88" y="196.00">R146</text>
<circle cx="834.53" cy="1697.44" r="10"/>
<text x="834.53" y="1702.44">R147</text>
<circle cx="1812.26" cy="773.71" r="10"/>
<text x="1812.26" y="778.71">R148</text>
<circle cx="1671.82" cy="1421.38" r="10"/>
<text x="1671.82" y="1426.38">R149</text>
<circle cx="1313.54" cy="103.84" r="10"/>
<text x="1313.54" y="108.84">R150</text>
<circle cx="716.18" cy="1869.91" r="10"/>
<text x="716.18" y="1874.91">R151</text>
<circle cx="505.95" cy="617.11" r="10"/>
<text x="505.95" y="622.11">R152</text>
<circle cx="1806.03" cy="907.94" r="10"/>
<text x="1806.03" y="912.94">R153</text>
<circle cx="391.88" cy="1733.48" r="10"/>
<text x="391.88" y="1738.48">R154</text>
<circle cx="2001.80" cy="1855.42" r="10"/>
<text x="2001.80" y="1860.42">R155</text>
<circle cx="1365.46" cy="635.61" r="10"/>
<text x="1365.46" y="640.61">R156</text>
<circle cx="1023.01" cy="424.13" r="10"/>
<text x="1023.01" y="429.13">R157</text>
<circle cx="826.19" cy="1621.38" r="10"/>
<text x="826.19" y="1626.38">R158</text>
<circle cx="1847.97" cy="1030.73" r="10"/>
<text x="1847.97" y="1035.73">R159</text>
<circle cx="2022.05" cy="1913.99" r="10"/>
<text x="2022.05" y="1918.99">R160</text>
<circle cx="1255.35" cy="360.44" r="10"/>
<text x="1255.35" y="365.44">R161</text>
<circle cx="1034.28" cy="630.43" r="10"/>
<text x="1034.28" y="635.43">R162</text>
<circle cx="602.23" cy="1703.79" r="10"/>
<text x="602.23" y="1708.79">R163</text>
<circle cx="146.32" cy="1316.45" r="10"/>
<text x="146.32" y="1321.45">R164</text>
<circle cx="469.99" cy="1165.77" r="10"/>
<text x="469.99" y="1170.77">R165</text>
<circle cx="30.73" cy="918.56" r="10"/>
<text x="30.73" y="923.56">R166</text>
<circle cx="1561.77" cy="1937.10" r="10"/>
<text x="1561.77" y="1942.10">R167</text>
<circle cx="615.28" cy="1761.14" r="10"/>
<text x="615.28" y="1766.14">R168</text>
<circle cx="1603.27" cy="1395.06" r="10"/>
<text x="1603.27" y="1400.06">R169</text>
<circle cx="2007.05" cy="497.11" r="10"/>
<text x="2007.05" y="502.11">R170</text>
<circle cx="59.88" cy="1195.07" r="10"/>
<text x="59.88" y="1200.07">R171</text>
<circle cx="1854.55" cy="1293.38" r="10"/>
<text x="1854.55" y="1298.38">R172</text>
<circle cx="253.25" cy="1822.11" r="10"/>
<text x="253.25" y="1827.11">R173</text>
<circle cx="155.12" cy="1343.78" r="10"/>
<text x="155.12" y="1348.78">R174</text>
<circle cx="1282.20" cy="324.86" r="10"/>
<text x="1282.20" y="329.86">R175</text>
<circle cx="478.13" cy="650.37" r="10"/>
<text x="478.13" y="655.37">R176</text>
<circle cx="715.57" cy="993.57" r="10"/>
<text x="715.57" y="998.57">R177</text>
<circle cx="330.75" cy="1300.50" r="10"/>
<text x="330.75" y="1305.50">R178</text>
<circle cx="438.77" cy="949.07" r="10"/>
<text x="438.77" y="954.07">R179</text>
<circle cx="861.60" cy="1387.00" r="10"/>
<text x="861.60" y="1392.00">R180</text>
<circle cx="1000.47" cy="983.67" r="10"/>
<text x="1000.47" y="988.67">R181</text>
<circle cx="1565.23" cy="1891.57" r="10"/>
<text x="1565.23" y="1896.57">R182</text>
<circle cx="27.15" cy="318.66" r="10"/>
<text x="27.15" y="323.66">R183</text>
<circle cx="1617.11" cy="22.57" r="10"/>
<text x="1617.11" y="27.57">R184</text>
<circle cx="584.13" cy="259.05" r="10"/>
<text x="584.13" y="264.05">R185</text>
<circle cx="2011.65" cy="1343.75" r="10"/>
<text x="2011.65" y="1348.75">R186</text>
<circle cx="1788.05" cy="400.97" r="10"/>
<text x="1788.05" y="405.97">R187</text>
<circle cx="1603.66" cy="2010.32" r="10"/>
<text x="1603.66" y="2015.32">R188</text>
<circle cx="1168.89" cy="2038.74" r="10"/>
<text x="1168.89" y="2043.74">R189</text>
<circle cx="574.92" cy="622.68" r="10"/>
<text x="574.92" y="627.68">R190</text>
<circle cx="1433.20" cy="1937.17" r="10"/>
<text x="1433.20" y="1942.17">R191</text>
<circle cx="1758.72" cy="2042.04" r="10"/>
<text x="1758.72" y="2047.04">R192</text>
<circle cx="1585.92" cy="579.11" r="10"/>
<text x="1585.92" y="584.11">R193</text>
<circle cx="1264.32" cy="303.43" r="10"/>
<text x="1264.32" y="308.43">R194</text>
<circle cx="1158.48" cy="1949.92" r="10"/>
<text x="1158.48" y="1954.92">R195</text>
<circle cx="700.78" cy="916.92" r="10"/>
<text x="700.78" y="921.92">R196</text>
<circle cx="942.98" cy="407.61" r="10"/>
<text x="942.98" y="412.61">R197</text>
<circle cx="407.84" cy="1121.23" r="10"/>
<text x="407.84" y="1126.23">R198</text>
<circle cx="2059.01" cy="1573.52" r="10"/>
<text x="2059.01" y="1578.52">R199</text>
<circle cx="488.66" cy="1844.23" r="10"/>
<text x="488.66" y="1849.23">R200</text>
<circle cx="983.53" cy="1309.23" r="10"/>
<text x="983.53" y="1314.23">R201</text>
<circle cx="1918.49" cy="1374.02" r="10"/>
<text x="1918.49" y="1379.02">R202</text>
<circle cx="1023.96" cy="146.89" r="10"/>
<text x="1023.96" y="151.89">R203</text>
<circle cx="1971.99" cy="957.20" r="10"/>
<text x="1971.99" y="962.20">R204</text>
<circle cx="755.68" cy="1210.85" r="10"/>
<text x="755.68" y="1215.85">R205</text>
<circle cx="1099.77" cy="935.82" r="10"/>
<text x="1099.77" y="940.82">R206</text>
<circle cx="1349.15" cy="943.69" r="10"/>
<text x="1349.15" y="948.69">R207</text>
<circle cx="722.46" cy="190.53" r="10"/>
<text x="722.46" y="195.53">R208</text>
<circle cx="74.26" cy="297.24" r="10"/>
<text x="74.26" y="302.24">R209</text>
<circle cx="1579.18" cy="710.66" r="10"/>
<text x="1579.18" y="715.66">R210</text>
<circle cx="1024.01" cy="1974.85" r="10"/>
<text x="1024.01" y="1979.85">R211</text>
<circle cx="1625.59" cy="1289.65" r="10"/>
<text x="1625.59" y="1294.65">R212</text>
<circle cx="1405.88" cy="272.52" r="10"/>
<text x="1405.88" y="277.52">R213</text>
<circle cx="726.59" cy="1639.53" r="10"/>
<text x="726.59" y="1644.53">R214</text>
<circle cx="1253.04" cy="622.89" r="10"/>
<text x="1253.04" y="627.89">R215</text>
<circle cx="1717.65" cy="1478.73" r="10"/>
<text x="1717.65" y="1483.73">R216</text>
<circle cx="1934.05" cy="943.91" r="10"/>
<text x="1934.05" y="948.91">R217</text>
<circle cx="1948.66" cy="2048.80" r="10"/>
<text x="1948.66" y="2053.80">R218</text>
<circle cx="361.91" cy="1184.92" r="10"/>
<text x="361.91" y="1189.92">R219</text>
<circle cx="182.80" cy="1660.05" r="10"/>
<text x="182.80" y="1665.05">R220</text>
<circle cx="1555.10" cy="1242.20" r="10"/>
<text x="1555.10" y="1247.20">R221</text>
<circle cx="1268.76" cy="1368.36" r="10"/>
<text x="1268.76" y="1373.36">R222</text>
<circle cx="1965.92" cy="255.17" r="10"/>
<text x="1965.92" y="260.17">R223</text>
<circle cx="1217.42" cy="1531.38" r="10"/>
<text x="1217.42" y="1536.38">R224</text>
<circle cx="169.81" cy="702.71" r="10"/>
<text x="169.81" y="707.71">R225</text>
<circle cx="400.94" cy="353.25" r="10"/>
<text x="400.94" y="358.25">R226</text>
<circle cx="245.44" cy="54.82" r="10"/>
<text x="245.44" y="59.82">R227</text>
<circle cx="1225.33" cy="110.66" r="10"/>
<text x="1225.33" y="115.66">R228</text>
<circle cx="1745.91" cy="345.80" r="10"/>
<text x="1745.91" y="350.80">R229</text>
<circle cx="452.03" cy="985.30" r="10"/>
<text x="452.03" y="990.30">R230</text>
<circle cx="985.99" cy="1034.46" r="10"/>
<text x="985.99" y="1039.46">R231</text>
<circle cx="277.99" cy="1837.88" r="10"/>
<text x="277.99" y="1842.88">R232</text>
<circle cx="1989.59" cy="1147.80" r="10"/>
<text x="1989.59" y="1152.80">R233</text>
<circle cx="1455.96" cy="1870.61" r="10"/>
<text x="1455.96" y="1875.61">R234</text>
<circle cx="691.54" cy="1400.02" r="10"/>
<text x="691.54" y="1405.02">R235</text>
<circle cx="1368.24" cy="16.17" r="10"/>
<text x="1368.24" y="21.17">R236</text>
<circle cx="268.98" cy="335.03" r="10"/>
<text x="268.98" y="340.03">R237</text>
<circle cx="892.93" cy="1693.43" r="10"/>
<text x="892.93" y="1698.43">R238</text>
<circle cx="1098.18" cy="267.93" r="10"/>
<text x="1098.18" y="272.93">R239</text>
<circle cx="533.48" cy="1117.44" r="10"/>
<text x="533.48" y="1122.44">R240</text>
<circle cx="1154.11" cy="1494.71" r="10"/>
<text x="1154.11" y="1499.71">R241</text>
<circle cx="1667.78" cy="1339.15" r="10"/>
<text x="1667.78" y="1344.15">R242</text>
<circle cx="1347.07" cy="1687.79" r="10"/>
<text x="1347.07" y="1692.79">R243</text>
<circle cx="442.53" cy="410.48" r="10"/>
<text x="442.53" y="415.48">R244</text>
<circle cx="1230.87" cy="1337.40" r="10"/>
<text x="1230.87" y="1342.40">R245</text>
<circle cx="1504.96" cy="986.97" r="10"/>
<text x="1504.96" y="991.97">R246</text>
<circle cx="428.22" cy="812.49" r="10"/>
<text x="428.22" y="817.49">R247</text>
<circle cx="200.17" cy="748.11" r="10"/>
<text x="200.17" y="753.11">R248</text>
<circle cx="1038.48" cy="1766.10" r="10"/>
<text x="1038.48" y="1771.10">R249</text>
<circle cx="1524.06" cy="1315.28" r="10"/>
<text x="1524.06" y="1320.28">R250</text>
<circle cx="441.17" cy="1911.08" r="10"/>
<text x="441.17" y="1916.08">R251</text>
<circle cx="1209.17" cy="326.09" r="10"/>
<text x="1209.17" y="331.09">R252</text>
<circle cx="1290.58" cy="640.97" r="10"/>
<text x="1290.58" y="645.97">R253</text>
<circle cx="1199.32" cy="1345.72" r="10"/>
<text x="1199.32" y="1350.72">R254</text>
<circle cx="303.27" cy="1176.84" r="10"/>
<text x="303.27" y="1181.84">R255</text>
<circle cx="215.34" cy="322.15" r="10"/>
<text x="215.34" y="327.15">R256</text>
<circle cx="475.19" cy="1481.72" r="10"/>
<text x="475.19" y="1486.72">R257</text>
<circle cx="1349.28" cy="43.82" r="10"/>
<text x="1349.28" y="48.82">R258</text>
<circle cx="1451.11" cy="591.31" r="10"/>
<text x="1451.11" y="596.31">R259</text>
<circle cx="505.72" cy="697.79" r="10"/>
<text x="505.72" y="702.79">R260</text>
<circle cx="574.26" cy="327.81" r="10"/>
<text x="574.26" y="332.81">R261</text>
<circle cx="1261.50" cy="1469.95" r="10"/>
<text x="1261.50" y="1474.95">R262</text>
<circle cx="1730.47" cy="1809.26" r="10"/>
<text x="1730.47" y="1814.26">R263</text>
<circle cx="1862.98" cy="1071.66" r="10"/>
<text x="1862.98" y="1076.66">R264</text>
<circle cx="1668.04" cy="996.76" r="10"/>
<text x="1668.04" y="1001.76">R265</text>
<circle cx="1754.79" cy="1112.76" r="10"/>
<text x="1754.79" y="1117.76">R266</text>
<circle cx="393.48" cy="1883.25" r="10"/>
<text x="393.48" y="1888.25">R267</text>
<circle cx="463.39" cy="342.71" r="10"/>
<text x="463.39" y="347.71">R268</text>
<circle cx="1416.78" cy="1034.10" r="10"/>
<text x="1416.78" y="1039.10">R269</text>
<circle cx="624.30" cy="1903.46" r="10"/>
<text x="624.30" y="1908.46">R270</text>
<circle cx="1312.50" cy="611.47" r="10"/>
<text x="1312.50" y="616.47">R271</text>
<circle cx="1812.74" cy="1753.34" r="10"/>
<text x="1812.74" y="1758.34">R272</text>
<circle cx="1117.82" cy="431.40" r="10"/>
<text x="1117.82" y="436.40">R273</text>
<circle cx="1625.03" cy="703.40" r="10"/>
<text x="1625.03" y="708.40">R274</text>
<circle cx="118.98" cy="784.79" r="10"/>
<text x="118.98" y="789.79">R275</text>
<circle cx="1993.30" cy="1317.76" r="10"/>
<text x="1993.30" y="1322.76">R276</text>
<circle cx="1234.46" cy="2014.03" r="10"/>
<text x="1234.46" y="2019.03">R277</text>
<circle cx="9.37" cy="689.26" r="10"/>
<text x="9.37" y="694.26">R278</text>
<circle cx="1443.31" cy="693.74" r="10"/>
<text x="1443.31" y="698.74">R279</text>
<circle cx="1778.71" cy="785.54" r="10"/>
<text x="1778.71" y="790.54">R280</text>
<circle cx="1645.12" cy="1171.56" r="10"/>
<text x="1645.12" y="1176.56">R281</text>
<circle cx="980.30" cy="1726.18" r="10"/>
<text x="980.30" y="1731.18">R282</text>
<circle cx="1745.43" cy="262.46" r="10"/>
<text x="1745.43" y="267.46">R283</text>
<circle cx="1713.68" cy="1854.22" r="10"/>
<text x="1713.68" y="1859.22">R284</text>
<circle cx="1246.72" cy="398.91" r="10"/>
<text x="1246.72" y="403.91">R285</text>
<circle cx="1679.30" cy="208.00" r="10"/>
<text x="1679.30" y="213.00">R286</text>
<circle cx="3.99" cy="359.89" r="10"/>
<text x="3.99" y="364.89">R287</text>
<circle cx="1953.61" cy="1164.18" r="10"/>
<text x="1953.61" y="1169.18">R288</text>
<circle cx="158.70" cy="1635.06" r="10"/>
<text x="158.70" y="1640.06">R289</text>
<circle cx="603.61" cy="1278.65" r="10"/>
<text x="603.61" y="1283.65">R290</text>
<circle cx="393.21" cy="589.18" r="10"/>
<text x="393.21" y="594.18">R291</text>
<circle cx="918.61" cy="818.46" r="10"/>
<text x="918.61" y="823.46">R292</text>
<circle cx="257.57" cy="231.12" r="10"/>
<text x="257.57" y="236.12">R293</text>
<circle cx="1905.49" cy="395.08" r="10"/>
<text x="1905.49" y="400.08">R294</text>
<circle cx="702.16" cy="302.64" r="10"/>
<text x="702.16" y="307.64">R295</text>
<circle cx="415.20" cy="659.73" r="10"/>
<text x="415.20" y="664.73">R296</text>
<circle cx="289.05" cy="259.89" r="10"/>
<text x="289.05" y="264.89">R297</text>
<circle cx="697.74" cy="740.38" r="10"/>
<text x="697.74" y="745.38">R298</text>
<circle cx="428.95" cy="1972.99" r="10"/>
<text x="428.95" y="1977.99">R299</text>
<circle cx="1811.12" cy="630.25" r="10"/>
<text x="1811.12" y="635.25">R300</text>
<circle cx="39.77" cy="374.57" r="10"/>
<text x="39.77" y="379.57">R301</text>
<circle cx="943.79" cy="612.78" r="10"/>
<text x="943.79" y="617.78">R302</text>
<circle cx="909.24" cy="1312.67" r="10"/>
<text x="909.24" y="1317.67">R303</text>
<circle cx="633.53" cy="75.79" r="10"/>
<text x="633.53" y="80.79">R304</text>
<circle cx="1352.54" cy="673.50" r="10"/>
<text x="1352.54" y="678.50">R305</text>
<circle cx="1291.90" cy="373.56" r="10"/>
<text x="1291.90" y="378.56">R306</text>
<circle cx="1490.07" cy="2041.86" r="10"/>
<text x="1490.07" y="2046.86">R307</text>
<circle cx="1038.86" cy="63.12" r="10"/>
<text x="1038.86" y="68.12">R308</text>
<circle cx="1574.98" cy="1579.80" r="10"/>
<text x="1574.98" y="1584.80">R309</text>
<circle cx="349.96" cy="930.21" r="10"/>
<text x="349.96" y="935.21">R310</text>
<circle cx="1959.41" cy="1274.35" r="10"/>
<text x="1959.41" y="1279.35">R311</text>
<circle cx="1884.98" cy="1723.98" r="10"/>
<text x="1884.98" y="1728.98">R312</text>
<circle cx="1167.04" cy="1285.47" r="10"/>
<text x="1167.04" y="1290.47">R313</text>
<circle cx="829.01" cy="588.97" r="10"/>
<text x="829.01" y="593.97">R314</text>
<circle cx="302.77" cy="1534.72" r="10"/>
<text x="302.77" y="1539.72">R315</text>
<circle cx="525.52" cy="1591.00" r="10"/>
<text x="525.52" y="1596.00">R316</text>
<circle cx="272.33" cy="1077.69" r="10"/>
<text x="272.33" y="1082.69">R317</text>
<circle cx="624.48" cy="1716.85" r="10"/>
<text x="624.48" y="1721.85">R318</text>
<circle cx="1505.09" cy="701.65" r="10"/>
<text x="1505.09" y="706.65">R319</text>
<circle cx="602.55" cy="866.86" r="10"/>
<text x="602.55" y="871.86">R320</text>
<circle cx="1757.13" cy="609.03" r="10"/>
<text x="1757.13" y="614.03">R321</text>
<circle cx="1315.87" cy="1967.16" r="10"/>
<text x="1315.87" y="1972.16">R322</text>
<circle cx="2048.19" cy="1840.78" r="10"/>
<text x="2048.19" y="1845.78">R323</text>
<circle cx="1748.94" cy="1208.34" r="10"/>
<text x="1748.94" y="1213.34">R324</text>
<circle cx="800.83" cy="214.07" r="10"/>
<text x="800.83" y="219.07">R325</text>
<circle cx="2043.59" cy="76.14" r="10"/>
<text x="2043.59" y="81.14">R326</text>
<circle cx="1521.74" cy="107.47" r="10"/>
<text x="1521.74" y="112.47">R327</text>
<circle cx="185.18" cy="1122.93" r="10"/>
<text x="185.18" y="1127.93">R328</text>
<circle cx="1345.45" cy="221.07" r="10"/>
<text x="1345.45" y="226.07">R329</text>
<circle cx="1214.91" cy="690.80" r="10"/>
<text x="1214.91" y="695.80">R330</text>
<circle cx="784.05" cy="574.42" r="10"/>
<text x="784.05" y="579.42">R331</text>
<circle cx="113.41" cy="357.19" r="10"/>
<text x="113.41" y="362.19">R332</text>
<circle cx="1379.49" cy="1405.95" r="10"/>
<text x="1379.49" y="1410.95">R333</text>
<circle cx="1962.23" cy="1558.73" r="10"/>
<text x="1962.23" y="1563.73">R334</text>
<circle cx="1602.13" cy="257.64" r="10"/>
<text x="1602.13" y="262.64">R335</text>
<circle cx="1258.14" cy="720.10" r="10"/>
<text x="1258.14" y="725.10">R336</text>
<circle cx="520.07" cy="1558.79" r="10"/>
<text x="520.07" y="1563.79">R337</text>
<circle cx="1402.56" cy="763.76" r="10"/>
<text x="1402.56" y="768.76">R338</text>
<circle cx="605.83" cy="959.36" r="10"/>
<text x="605.83" y="964.36">R339</text>
<circle cx="143.81" cy="1604.69" r="10"/>
<text x="143.81" y="1609.69">R340</text>
<circle cx="350.73" cy="396.18" r="10"/>
<text x="350.73" y="401.18">R341</text>
<circle cx="562.73" cy="1998.24" r="10"/>
<text x="562.73" y="2003.24">R342</text>
<circle cx="1452.02" cy="315.44" r="10"/>
<text x="1452.02" y="320.44">R343</text>
<circle cx="1684.66" cy="676.20" r="10"/>
<text x="1684.66" y="681.20">R344</text>
<circle cx="1953.60" cy="1357.37" r="10"/>
<text x="1953.60" y="1362.37">R345</text>
<circle cx="1235.13" cy="1147.64" r="10"/>
<text x="1235.13" y="1152.64">R346</text>
<circle cx="462.79" cy="235.00" r="10"/>
<text x="462.79" y="240.00">R347</text>
<circle cx="1098.51" cy="1498.60" r="10"/>
<text x="1098.51" y="1503.60">R348</text>
<circle cx="1398.44" cy="442.12" r="10"/>
<text x="1398.44" y="447.12">R349</text>
<circle cx="1752.60" cy="583.72" r="10"/>
<text x="1752.60" y="588.72">R350</text>
<circle cx="589.25" cy="454.50" r="10"/>
<text x="589.25" y="459.50">R351</text>
<circle cx="1688.96" cy="1936.74" r="10"/>
<text x="1688.96" y="1941.74">R352</text>
<circle cx="297.65" cy="1042.86" r="10"/>
<text x="297.65" y="1047.86">R353</text>
<circle cx="1194.10" cy="2015.28" r="10"/>
<text x="1194.10" y="2020.28">R354</text>
<circle cx="543.21" cy="1462.14" r="10"/>
<text x="543.21" y="1467.14">R355</text>
<circle cx="42.73" cy="1636.40" r="10"/>
<text x="42.73" y="1641.40">R356</text>
<circle cx="1557.57" cy="1610.85" r="10"/>
<text x="1557.57" y="1615.85">R357</text>
<circle cx="1184.70" cy="1001.62" r="10"/>
<text x="1184.70" y="1006.62">R358</text>
<circle cx="614.80" cy="469.51" r="10"/>
<text x="614.80" y="474.51">R359</text>
<circle cx="1487.60" cy="1766.86" r="10"/>
<text x="1487.60" y="1771.86">R360</text>
<circle cx="117.54" cy="1013.61" r="10"/>
<text x="117.54" y="1018.61">R361</text>
<circle cx="1564.72" cy="375.66" r="10"/>
<text x="1564.72" y="380.66">R362</text>
<circle cx="944.59" cy="129.86" r="10"/>
<text x="944.59" y="134.86">R363</text>
<circle cx="806.76" cy="2019.47" r="10"/>
<text x="806.76" y="2024.47">R364</text>
<circle cx="1146.88" cy="456.84" r="10"/>
<text x="1146.88" y="461.84">R365</text>
<circle cx="103.17" cy="86.58" r="10"/>
<text x="103.17" y="91.58">R366</text>
<circle cx="12.95" cy="428.82" r="10"/>
<text x="12.95" y="433.82">R367</text>
<circle cx="1751.11" cy="1658.46" r="10"/>
<text x="1751.11" y="1663.46">R368</text>
<circle cx="1807.58" cy="170.40" r="10"/>
<text x="1807.58" y="175.40">R369</text>
<circle cx="1175.32" cy="1085.57" r="10"/>
<text x="1175.32" y="1090.57">R370</text>
<circle cx="726.88" cy="578.60" r="10"/>
<text x="726.88" y="583.60">R371</text>
<circle cx="387.38" cy="1141.92" r="10"/>
<text x="387.38" y="1146.92">R372</text>
<circle cx="89.97" cy="2040.87" r="10"/>
<text x="89.97" y="2045.87">R373</text>
<circle cx="309.29" cy="616.67" r="10"/>
<text x="309.29" y="621.67">R374</text>
<circle cx="1600.70" cy="385.45" r="10"/>
<text x="1600.70" y="390.45">R375</text>
<circle cx="1627.22" cy="814.97" r="10"/>
<text x="1627.22" y="819.97">R376</text>
<circle cx="1891.60" cy="693.48" r="10"/>
<text x="1891.60" y="698.48">R377</text>
<circle cx="344.17" cy="1888.33" r="10"/>
<text x="344.17" y="1893.33">R378</text>
<circle cx="163.49" cy="1410.69" r="10"/>
<text x="163.49" y="1415.69">R379</text>
<circle cx="533.12" cy="53.16" r="10"/>
<text x="533.12" y="58.16">R380</text>
<circle cx="1656.96" cy="1314.39" r="10"/>
<text x="1656.96" y="1319.39">R381</text>
<circle cx="616.07" cy="257.09" r="10"/>
<text x="616.07" y="262.09">R382</text>
<circle cx="846.04" cy="1770.26" r="10"/>
<text x="846.04" y="1775.26">R383</text>
<circle cx="594.57" cy="1022.98" r="10"/>
<text x="594.57" y="1027.98">R384</text>
<circle cx="1065.24" cy="1731.80" r="10"/>
<text x="1065.24" y="1736.80">R385</text>
<circle cx="1193.47" cy="877.12" r="10"/>
<text x="1193.47" y="882.12">R386</text>
<circle cx="136.42" cy="812.15" r="10"/>
<text x="136.42" y="817.15">R387</text>
<circle cx="1699.12" cy="1730.88" r="10"/>
<text x="1699.12" y="1735.88">R388</text>
<circle cx="498.88" cy="261.26" r="10"/>
<text x="498.88" y="266.26">R389</text>
<circle cx="413.13" cy="564.11" r="10"/>
<text x="413.13" y="569.11">R390</text>
<circle cx="1650.42" cy="1361.78" r="10"/>
<text x="1650.42" y="1366.78">R391</text>
<circle cx="1102.49" cy="99.19" r="10"/>
<text x="1102.49" y="104.19">R392</text>
<circle cx="77.54" cy="1078.27" r="10"/>
<text x="77.54" y="1083.27">R393</text>
<circle cx="1581.27" cy="1865.43" r="10"/>
<text x="1581.27" y="1870.43">R394</text>
<circle cx="1838.68" cy="36.30" r="10"/>
<text x="1838.68" y="41.30">R395</text>
<circle cx="55.70" cy="11.61" r="10"/>
<text x="55.70" y="16.61">R396</text>
<circle cx="61.81" cy="40.12" r="10"/>
<text x="61.81" y="45.12">R397</text>
<circle cx="18.24" cy="741.55" r="10"/>
<text x="18.24" y="746.55">R398</text>
<circle cx="1623.11" cy="1050.92" r="10"/>
<text x="1623.11" y="1055.92">R399</text>
<circle cx="1852.82" cy="268.62" r="10"/>
<text x="1852.82" y="273.62">R400</text>
<circle cx="1116.28" cy="895.68" r="10"/>
<text x="1116.28" y="900.68">R401</text>
<circle cx="1044.89" cy="1216.41" r="10"/>
<text x="1044.89" y="1221.41">R402</text>
<circle cx="730.39" cy="482.78" r="10"/>
<text x="730.39" y="487.78">R403</text>
<circle cx="1897.61" cy="568.18" r="10"/>
<text x="1897.61" y="573.18">R404</text>
<circle cx="1217.28" cy="1408.82" r="10"/>
<text x="1217.28" y="1413.82">R405</text>
<circle cx="203.43" cy="660.00" r="10"/>
<text x="203.43" y="665.00">R406</text>
<circle cx="1142.04" cy="1540.29" r="10"/>
<text x="1142.04" y="1545.29">R407</text>
<circle cx="120.88" cy="2018.44" r="10"/>
<text x="120.88" y="2023.44">R408</text>
<circle cx="361.65" cy="1623.33" r="10"/>
<text x="361.65" y="1628.33">R409</text>
<circle cx="1429.65" cy="1506.13" r="10"/>
<text x="1429.65" y="1511.13">R410</text>
<circle cx="219.98" cy="1172.12" r="10"/>
<text x="219.98" y="1177.12">R411</text>
<circle cx="542.83" cy="1797.08" r="10"/>
<text x="542.83" y="1802.08">R412</text>
<circle cx="943.04" cy="477.69" r="10"/>
<text x="943.04" y="482.69">R413</text>
<circle cx="2032.85" cy="890.82" r="10"/>
<text x="2032.85" y="895.82">R414</text>
<circle cx="1785.28" cy="558.28" r="10"/>
<text x="1785.28" y="563.28">R415</text>
<circle cx="1476.33" cy="1739.82" r="10"/>
<text x="1476.33" y="1744.82">R416</text>
<circle cx="1311.19" cy="1862.09" r="10"/>
<text x="1311.19" y="1867.09">R417</text>
<circle cx="1449.06" cy="721.79" r="10"/>
<text x="1449.06" y="726.79">R418</text>
<circle cx="1901.28" cy="996.00" r="10"/>
<text x="1901.28" y="1001.00">R419</text>
<circle cx="139.19" cy="1575.65" r="10"/>
<text x="139.19" y="1580.65">R420</text>
<circle cx="707.33" cy="676.42" r="10"/>
<text x="707.33" y="681.42">R421</text>
<circle cx="1098.27" cy="1886.90" r="10"/>
<text x="1098.27" y="1891.90">R422</text>
<circle cx="1523.40" cy="418.27" r="10"/>
<text x="1523.40" y="423.27">R423</text>
<circle cx="2015.21" cy="162.81" r="10"/>
<text x="2015.21" y="167.81">R424</text>
</svg>
