<svg width="2148.23" height="2147.64" viewBox="-44.61 -42.30 2148.23 2147.64" xmlns="http://www.w3.org/2000/svg">
<style>path {fill: none; stroke: grey; stroke-width: 6;} circle {fill: lightblue; stroke: none;} text {fill: black; stroke: none; font-size: 16; font-family: sans-serif; text-anchor:middle;}</style>
<path d="M1339.16,824.57,1434.43,835.52"/>
<path d="M1339.16,824.57,1347.75,881.87"/>
<path d="M1339.16,824.57,1309.06,778.70"/>
<path d="M2042.06,1862.08,1986.17,1863.49"/>
<path d="M2042.06,1862.08,2044.45,1898.43"/>
<path d="M536.94,654.57,585.93,628.57"/>
<path d="M536.94,654.57,584.11,671.47"/>
<path d="M536.94,654.57,513.25,620.30"/>
<path d="M536.94,654.57,485.23,733.24"/>
<path d="M1654.82,327.96,1662.11,250.35"/>
<path d="M1654.82,327.96,1698.10,301.43"/>
<path d="M1654.82,327.96,1551.40,418.15"/>
<path d="M1654.82,327.96,1721.69,387.13"/>
<path d="M216.96,357.63,285.23,343.81"/>
<path d="M216.96,357.63,286.77,481.23"/>
<path d="M216.96,357.63,229.01,245.74"/>
<path d="M216.96,357.63,164.40,440.80"/>
<path d="M663.89,407.35,621.67,336.34"/>
<path d="M663.89,407.35,661.65,457.37"/>
<path d="M663.89,407.35,683.59,360.95"/>
<path d="M54.41,257.83,0.39,340.26"/>
<path d="M54.41,257.83,37.01,84.90"/>
<path d="M54.41,257.83,161.24,226.41"/>
<path d="M389.80,186.86,462.06,244.90"/>
<path d="M389.80,186.86,221.53,219.19"/>
<path d="M389.80,186.86,329.18,290.40"/>
<path d="M1869.80,1381.16,1802.04,1366.90"/>
<path d="M1869.80,1381.16,1874.92,1410.53"/>
<path d="M1869.80,1381.16,1899.61,1272.59"/>
<path d="M1815.13,2009.00,1790.02,1990.85"/>
<path d="M1815.13,2009.00,1927.34,1989.57"/>
<path d="M1412.51,2038.86,1335.75,2006.45"/>
<path d="M1412.51,2038.86,1386.13,1913.27"/>
<path d="M1412.51,2038.86,1471.93,1966.77"/>
<path d="M1458.26,1337.72,1344.74,1445.32"/>
<path d="M1458.26,1337.72,1497.79,1302.75"/>
<path d="M1458.26,1337.72,1511.85,1451.08"/>
<path d="M1458.26,1337.72,1281.75,1314.24"/>
<path d="M1458.26,1337.72,1473.69,1282.34"/>
<path d="M1435.27,253.97,1555.56,227.80"/>
<path d="M1435.27,253.97,1463.98,118.50"/>
<path d="M1435.27,253.97,1400.39,245.59"/>
<path d="M1435.27,253.97,1551.40,418.15"/>
<path d="M1178.87,1824.03,1241.39,1720.87"/>
<path d="M1178.87,1824.03,1328.63,1816.59"/>
<path d="M1178.87,1824.03,1100.49,1877.22"/>
<path d="M1178.87,1824.03,1214.58,1887.58"/>
<path d="M1178.87,1824.03,1145.21,1789.81"/>
<path d="M774.48,1365.44,726.56,1313.34"/>
<path d="M774.48,1365.44,915.53,1382.14"/>
<path d="M774.48,1365.44,794.12,1488.69"/>
<path d="M426.51,1945.59,461.43,1971.96"/>
<path d="M426.51,1945.59,254.36,2034.72"/>
<path d="M426.51,1945.59,426.94,1870.16"/>
<path d="M806.30,1951.51,671.39,2040.53"/>
<path d="M806.30,1951.51,758.93,1855.81"/>
<path d="M806.30,1951.51,721.08,1906.59"/>
<path d="M806.30,1951.51,837.20,2000.88"/>
<path d="M806.30,1951.51,899.07,1847.61"/>
<path d="M6.93,1956.07,70.02,1900.95"/>
<path d="M6.93,1956.07,31.54,1977.30"/>
<path d="M202.34,1018.23,242.18,955.25"/>
<path d="M202.34,1018.23,89.80,969.64"/>
<path d="M202.34,1018.23,128.88,1181.64"/>
<path d="M202.34,1018.23,315.42,1208.42"/>
<path d="M202.34,1018.23,380.11,1078.38"/>
<path d="M242.18,955.25,284.85,915.99"/>
<path d="M242.18,955.25,212.99,926.24"/>
<path d="M242.18,955.25,380.11,1078.38"/>
<path d="M886.54,351.02,865.51,405.68"/>
<path d="M886.54,351.02,919.74,330.15"/>
<path d="M886.54,351.02,809.50,337.52"/>
<path d="M1662.11,250.35,1555.56,227.80"/>
<path d="M1662.11,250.35,1698.10,301.43"/>
<path d="M1662.11,250.35,1804.99,141.39"/>
<path d="M1662.11,250.35,1649.20,62.14"/>
<path d="M1662.11,250.35,1594.57,71.27"/>
<path d="M732.95,1551.77,779.46,1509.54"/>
<path d="M732.95,1551.77,702.36,1527.42"/>
<path d="M732.95,1551.77,715.35,1649.91"/>
<path d="M732.95,1551.77,786.77,1625.06"/>
<path d="M1763.04,1565.30,1866.22,1654.91"/>
<path d="M1763.04,1565.30,1888.68,1573.60"/>
<path d="M1763.04,1565.30,1768.02,1517.55"/>
<path d="M1763.04,1565.30,1714.64,1525.33"/>
<path d="M786.38,712.93,729.91,608.35"/>
<path d="M786.38,712.93,869.46,600.51"/>
<path d="M786.38,712.93,898.84,816.26"/>
<path d="M786.38,712.93,735.59,767.69"/>
<path d="M786.38,712.93,697.13,700.02"/>
<path d="M786.38,712.93,897.22,691.35"/>
<path d="M1599.45,2038.47,1790.02,1990.85"/>
<path d="M1599.45,2038.47,1770.00,1950.37"/>
<path d="M1599.45,2038.47,1471.93,1966.77"/>
<path d="M1599.45,2038.47,1622.44,1844.41"/>
<path d="M1685.38,1033.58,1715.78,1089.34"/>
<path d="M1685.38,1033.58,1659.97,973.28"/>
<path d="M1685.38,1033.58,1719.13,967.84"/>
<path d="M935.65,1267.16,775.20,1184.61"/>
<path d="M935.65,1267.16,959.17,1284.71"/>
<path d="M935.65,1267.16,1020.87,1184.95"/>
<path d="M935.65,1267.16,945.85,1126.06"/>
<path d="M167.62,1768.81,203.54,1744.17"/>
<path d="M167.62,1768.81,167.10,1914.13"/>
<path d="M167.62,1768.81,108.95,1763.51"/>
<path d="M1790.02,1990.85,1770.00,1950.37"/>
<path d="M573.18,1324.40,448.98,1382.07"/>
<path d="M573.18,1324.40,464.97,1217.31"/>
<path d="M573.18,1324.40,569.24,1171.75"/>
<path d="M573.18,1324.40,617.18,1322.44"/>
<path d="M573.18,1324.40,557.47,1418.78"/>
<path d="M601.04,1994.66,671.39,2040.53"/>
<path d="M601.04,1994.66,553.35,1936.62"/>
<path d="M601.04,1994.66,721.08,1906.59"/>
<path d="M601.04,1994.66,670.42,1865.83"/>
<path d="M601.04,1994.66,487.06,2002.61"/>
<path d="M2057.68,220.93,1910.24,379.27"/>
<path d="M2057.68,220.93,2005.23,5.94"/>
<path d="M2057.68,220.93,1887.26,180.22"/>
<path d="M647.72,158.59,686.37,153.85"/>
<path d="M647.72,158.59,595.95,204.87"/>
<path d="M647.72,158.59,624.26,134.13"/>
<path d="M682.91,1705.58,593.64,1680.82"/>
<path d="M682.91,1705.58,715.35,1649.91"/>
<path d="M682.91,1705.58,730.74,1707.68"/>
<path d="M682.91,1705.58,670.42,1865.83"/>
<path d="M1344.74,1445.32,1395.24,1546.97"/>
<path d="M1344.74,1445.32,1289.76,1596.24"/>
<path d="M1344.74,1445.32,1511.85,1451.08"/>
<path d="M1344.74,1445.32,1281.75,1314.24"/>
<path d="M1344.74,1445.32,1186.82,1441.62"/>
<path d="M1192.03,469.74,1172.78,393.73"/>
<path d="M1192.03,469.74,1229.93,461.56"/>
<path d="M1192.03,469.74,1194.86,551.76"/>
<path d="M1192.03,469.74,1101.81,494.67"/>
<path d="M89.80,969.64,88.50,804.26"/>
<path d="M89.80,969.64,212.99,926.24"/>
<path d="M89.80,969.64,128.88,1181.64"/>
<path d="M89.80,969.64,175.96,861.76"/>
<path d="M1555.56,227.80,1463.98,118.50"/>
<path d="M1555.56,227.80,1594.57,71.27"/>
<path d="M1555.56,227.80,1551.40,418.15"/>
<path d="M1497.79,1302.75,1632.79,1304.12"/>
<path d="M1497.79,1302.75,1473.69,1282.34"/>
<path d="M825.66,1004.27,742.21,998.88"/>
<path d="M825.66,1004.27,845.52,906.73"/>
<path d="M825.66,1004.27,861.27,1060.47"/>
<path d="M825.66,1004.27,811.23,1064.51"/>
<path d="M825.66,1004.27,911.24,942.77"/>
<path d="M775.20,1184.61,732.36,1261.20"/>
<path d="M775.20,1184.61,811.23,1064.51"/>
<path d="M775.20,1184.61,945.85,1126.06"/>
<path d="M775.20,1184.61,697.17,1138.63"/>
<path d="M92.85,1371.69,6.68,1308.50"/>
<path d="M92.85,1371.69,3.44,1382.30"/>
<path d="M92.85,1371.69,132.90,1364.22"/>
<path d="M92.85,1371.69,11.10,1426.69"/>
<path d="M92.85,1371.69,133.74,1448.36"/>
<path d="M937.75,1689.74,902.36,1729.42"/>
<path d="M937.75,1689.74,1047.56,1656.89"/>
<path d="M937.75,1689.74,849.51,1677.81"/>
<path d="M937.75,1689.74,873.90,1633.07"/>
<path d="M1335.75,2006.45,1306.80,2045.94"/>
<path d="M1335.75,2006.45,1346.47,1935.16"/>
<path d="M1335.75,2006.45,1273.39,1930.53"/>
<path d="M1767.07,3.99,1649.20,62.14"/>
<path d="M1767.07,3.99,1801.25,71.39"/>
<path d="M1767.07,3.99,1857.94,17.28"/>
<path d="M1698.10,301.43,1731.40,323.19"/>
<path d="M931.06,229.10,854.74,195.15"/>
<path d="M931.06,229.10,1099.27,330.13"/>
<path d="M931.06,229.10,919.74,330.15"/>
<path d="M931.06,229.10,1080.32,193.26"/>
<path d="M931.06,229.10,998.73,37.85"/>
<path d="M729.91,608.35,585.93,628.57"/>
<path d="M729.91,608.35,869.46,600.51"/>
<path d="M729.91,608.35,653.22,498.99"/>
<path d="M729.91,608.35,697.13,700.02"/>
<path d="M729.91,608.35,770.79,499.40"/>
<path d="M948.58,1350.57,980.48,1400.17"/>
<path d="M948.58,1350.57,959.17,1284.71"/>
<path d="M948.58,1350.57,915.53,1382.14"/>
<path d="M948.58,1350.57,987.89,1325.52"/>
<path d="M88.50,804.26,136.82,732.44"/>
<path d="M88.50,804.26,175.96,861.76"/>
<path d="M88.50,804.26,87.30,714.22"/>
<path d="M304.89,602.73,306.90,638.34"/>
<path d="M304.89,602.73,449.17,560.57"/>
<path d="M304.89,602.73,258.52,557.25"/>
<path d="M1172.78,393.73,1232.98,249.09"/>
<path d="M1172.78,393.73,1099.27,330.13"/>
<path d="M1172.78,393.73,1312.56,373.32"/>
<path d="M1434.43,835.52,1507.50,785.67"/>
<path d="M1434.43,835.52,1455.43,927.45"/>
<path d="M1434.43,835.52,1347.75,881.87"/>
<path d="M1255.17,110.92,1169.72,167.63"/>
<path d="M1255.17,110.92,1286.56,68.33"/>
<path d="M1255.17,110.92,1301.07,203.33"/>
<path d="M1255.17,110.92,1185.81,31.76"/>
<path d="M1913.19,871.46,1970.71,774.37"/>
<path d="M1913.19,871.46,1866.89,839.97"/>
<path d="M1913.19,871.46,1951.67,930.69"/>
<path d="M1913.19,871.46,2054.58,860.42"/>
<path d="M1913.19,871.46,1850.33,937.51"/>
<path d="M967.52,480.36,865.51,405.68"/>
<path d="M967.52,480.36,1099.27,330.13"/>
<path d="M967.52,480.36,940.31,514.76"/>
<path d="M967.52,480.36,1101.81,494.67"/>
<path d="M1241.39,1720.87,1303.92,1754.90"/>
<path d="M1241.39,1720.87,1145.21,1789.81"/>
<path d="M1241.39,1720.87,1289.76,1596.24"/>
<path d="M1241.39,1720.87,1162.54,1603.31"/>
<path d="M1941.55,1627.58,1943.27,1673.86"/>
<path d="M1941.55,1627.58,1895.04,1626.67"/>
<path d="M1941.55,1627.58,1919.07,1594.34"/>
<path d="M1463.98,118.50,1400.39,245.59"/>
<path d="M1463.98,118.50,1336.49,88.33"/>
<path d="M1463.98,118.50,1512.41,58.31"/>
<path d="M1802.04,1366.90,1632.79,1304.12"/>
<path d="M1802.04,1366.90,1768.02,1517.55"/>
<path d="M1726.59,1837.81,1770.00,1950.37"/>
<path d="M1726.59,1837.81,1781.72,1760.28"/>
<path d="M1726.59,1837.81,1711.20,1775.72"/>
<path d="M1726.59,1837.81,1622.44,1844.41"/>
<path d="M136.82,732.44,244.76,822.75"/>
<path d="M136.82,732.44,175.96,861.76"/>
<path d="M136.82,732.44,87.30,714.22"/>
<path d="M136.82,732.44,172.20,670.49"/>
<path d="M671.39,2040.53,721.08,1906.59"/>
<path d="M671.39,2040.53,837.20,2000.88"/>
<path d="M1183.83,1186.96,1140.38,1346.96"/>
<path d="M1183.83,1186.96,1156.65,1153.02"/>
<path d="M1183.83,1186.96,1260.45,1226.57"/>
<path d="M1183.83,1186.96,1125.90,1179.56"/>
<path d="M1848.75,446.92,1829.41,379.59"/>
<path d="M1848.75,446.92,1934.98,580.90"/>
<path d="M1848.75,446.92,1803.74,395.00"/>
<path d="M1848.75,446.92,2006.44,517.48"/>
<path d="M1848.75,446.92,1910.24,379.27"/>
<path d="M1848.75,446.92,1800.12,470.66"/>
<path d="M1130.85,251.88,1136.18,278.50"/>
<path d="M1130.85,251.88,1148.03,223.47"/>
<path d="M1130.85,251.88,1080.32,193.26"/>
<path d="M775.94,95.66,686.37,153.85"/>
<path d="M775.94,95.66,771.22,59.54"/>
<path d="M775.94,95.66,862.41,109.82"/>
<path d="M775.94,95.66,692.49,71.08"/>
<path d="M775.94,95.66,774.56,211.59"/>
<path d="M790.51,354.74,865.51,405.68"/>
<path d="M790.51,354.74,809.50,337.52"/>
<path d="M790.51,354.74,683.59,360.95"/>
<path d="M790.51,354.74,770.79,499.40"/>
<path d="M732.36,1261.20,726.56,1313.34"/>
<path d="M732.36,1261.20,661.17,1296.16"/>
<path d="M585.93,628.57,584.11,671.47"/>
<path d="M585.93,628.57,653.22,498.99"/>
<path d="M585.93,628.57,544.52,577.29"/>
<path d="M1328.63,1816.59,1386.13,1913.27"/>
<path d="M1328.63,1816.59,1214.58,1887.58"/>
<path d="M1328.63,1816.59,1341.55,1790.78"/>
<path d="M1328.63,1816.59,1346.47,1935.16"/>
<path d="M1328.63,1816.59,1273.39,1930.53"/>
<path d="M76.02,523.09,106.48,449.50"/>
<path d="M76.02,523.09,85.92,607.69"/>
<path d="M76.02,523.09,171.71,489.31"/>
<path d="M1804.99,141.39,1731.40,323.19"/>
<path d="M1804.99,141.39,1833.34,77.62"/>
<path d="M1804.99,141.39,1869.40,158.42"/>
<path d="M1804.99,141.39,1801.25,71.39"/>
<path d="M418.47,1056.04,497.31,1018.12"/>
<path d="M418.47,1056.04,497.86,1069.43"/>
<path d="M418.47,1056.04,380.11,1078.38"/>
<path d="M282.13,1584.18,168.55,1623.59"/>
<path d="M282.13,1584.18,451.61,1664.12"/>
<path d="M282.13,1584.18,305.88,1523.57"/>
<path d="M282.13,1584.18,354.69,1730.88"/>
<path d="M1610.67,47.21,1649.20,62.14"/>
<path d="M1610.67,47.21,1594.57,71.27"/>
<path d="M1071.15,871.92,1141.62,900.45"/>
<path d="M1071.15,871.92,911.24,942.77"/>
<path d="M1071.15,871.92,1109.39,782.47"/>
<path d="M1071.15,871.92,1032.94,820.23"/>
<path d="M1071.15,871.92,1093.05,996.66"/>
<path d="M461.43,1971.96,497.74,1945.24"/>
<path d="M461.43,1971.96,487.06,2002.61"/>
<path d="M462.06,244.90,486.18,393.94"/>
<path d="M462.06,244.90,527.15,202.68"/>
<path d="M462.06,244.90,329.18,290.40"/>
<path d="M902.36,1729.42,908.98,1810.02"/>
<path d="M902.36,1729.42,849.51,1677.81"/>
<path d="M742.21,998.88,811.23,1064.51"/>
<path d="M742.21,998.88,711.41,1017.83"/>
<path d="M742.21,998.88,663.22,930.87"/>
<path d="M1400.39,245.59,1301.07,203.33"/>
<path d="M1400.39,245.59,1350.82,382.81"/>
<path d="M1400.39,245.59,1289.50,261.99"/>
<path d="M686.37,153.85,692.49,71.08"/>
<path d="M686.37,153.85,774.56,211.59"/>
<path d="M70.02,1900.95,31.54,1977.30"/>
<path d="M70.02,1900.95,167.10,1914.13"/>
<path d="M70.02,1900.95,108.95,1763.51"/>
<path d="M203.54,1744.17,168.55,1623.59"/>
<path d="M203.54,1744.17,254.09,1807.87"/>
<path d="M15.54,2059.78,31.54,1977.30"/>
<path d="M15.54,2059.78,132.83,2040.75"/>
<path d="M1715.78,1089.34,1849.21,1121.87"/>
<path d="M1715.78,1089.34,1627.99,1153.56"/>
<path d="M448.98,1382.07,464.97,1217.31"/>
<path d="M448.98,1382.07,316.70,1437.70"/>
<path d="M448.98,1382.07,366.82,1324.19"/>
<path d="M448.98,1382.07,505.61,1428.75"/>
<path d="M448.98,1382.07,405.82,1517.94"/>
<path d="M1512.69,1188.25,1632.79,1304.12"/>
<path d="M1512.69,1188.25,1627.99,1153.56"/>
<path d="M1512.69,1188.25,1523.23,972.48"/>
<path d="M1512.69,1188.25,1473.69,1282.34"/>
<path d="M990.89,1872.62,1100.49,1877.22"/>
<path d="M990.89,1872.62,958.11,1964.60"/>
<path d="M990.89,1872.62,1016.58,1963.03"/>
<path d="M990.89,1872.62,899.07,1847.61"/>
<path d="M464.97,1217.31,395.51,1186.35"/>
<path d="M464.97,1217.31,569.24,1171.75"/>
<path d="M464.97,1217.31,365.19,1276.38"/>
<path d="M464.97,1217.31,530.08,1113.15"/>
<path d="M1943.27,1673.86,1978.89,1751.85"/>
<path d="M1943.27,1673.86,1883.21,1676.74"/>
<path d="M1943.27,1673.86,1888.05,1751.70"/>
<path d="M1167.28,962.72,1141.62,900.45"/>
<path d="M1167.28,962.72,1198.31,1008.15"/>
<path d="M1167.28,962.72,1093.05,996.66"/>
<path d="M1167.28,962.72,1141.22,1039.14"/>
<path d="M1115.43,1078.94,1156.65,1153.02"/>
<path d="M1115.43,1078.94,986.07,1065.23"/>
<path d="M1115.43,1078.94,1020.87,1184.95"/>
<path d="M1115.43,1078.94,1141.22,1039.14"/>
<path d="M1144.05,779.61,1141.62,900.45"/>
<path d="M1144.05,779.61,1109.39,782.47"/>
<path d="M1144.05,779.61,1116.99,744.55"/>
<path d="M1144.05,779.61,1164.47,754.81"/>
<path d="M284.96,1331.06,241.85,1335.47"/>
<path d="M284.96,1331.06,316.70,1437.70"/>
<path d="M284.96,1331.06,366.82,1324.19"/>
<path d="M284.96,1331.06,315.42,1208.42"/>
<path d="M285.23,343.81,229.01,245.74"/>
<path d="M285.23,343.81,329.18,290.40"/>
<path d="M285.23,343.81,334.42,457.73"/>
<path d="M1169.72,167.63,1232.98,249.09"/>
<path d="M1169.72,167.63,1075.57,129.29"/>
<path d="M1169.72,167.63,1148.03,223.47"/>
<path d="M1169.72,167.63,1080.32,193.26"/>
<path d="M1169.72,167.63,1185.81,31.76"/>
<path d="M1286.56,68.33,1336.49,88.33"/>
<path d="M1286.56,68.33,1197.34,2.70"/>
<path d="M1286.56,68.33,1185.81,31.76"/>
<path d="M1610.97,1795.90,1572.23,1683.03"/>
<path d="M1610.97,1795.90,1681.64,1771.57"/>
<path d="M1610.97,1795.90,1497.44,1778.15"/>
<path d="M1610.97,1795.90,1622.44,1844.41"/>
<path d="M1929.01,1100.27,1996.89,1002.30"/>
<path d="M1929.01,1100.27,1913.47,966.60"/>
<path d="M1929.01,1100.27,1849.21,1121.87"/>
<path d="M1929.01,1100.27,1946.10,1152.99"/>
<path d="M241.85,1335.47,132.90,1364.22"/>
<path d="M241.85,1335.47,128.88,1181.64"/>
<path d="M241.85,1335.47,233.59,1433.57"/>
<path d="M1951.13,726.72,2052.69,596.53"/>
<path d="M1951.13,726.72,1970.71,774.37"/>
<path d="M1951.13,726.72,1934.98,580.90"/>
<path d="M869.46,600.51,927.18,550.44"/>
<path d="M869.46,600.51,770.79,499.40"/>
<path d="M869.46,600.51,897.22,691.35"/>
<path d="M1572.23,1683.03,1681.64,1771.57"/>
<path d="M1572.23,1683.03,1497.44,1778.15"/>
<path d="M1572.23,1683.03,1518.07,1640.71"/>
<path d="M1572.23,1683.03,1595.92,1567.17"/>
<path d="M1401.88,689.20,1326.33,633.60"/>
<path d="M1401.88,689.20,1458.63,723.65"/>
<path d="M1401.88,689.20,1313.28,683.53"/>
<path d="M1401.88,689.20,1309.06,778.70"/>
<path d="M1401.88,689.20,1462.52,636.03"/>
<path d="M1421.34,1557.57,1395.24,1546.97"/>
<path d="M1421.34,1557.57,1518.07,1640.71"/>
<path d="M1421.34,1557.57,1511.85,1451.08"/>
<path d="M1386.13,1913.27,1402.17,1807.69"/>
<path d="M1386.13,1913.27,1346.47,1935.16"/>
<path d="M1386.13,1913.27,1471.93,1966.77"/>
<path d="M1688.57,647.40,1748.42,704.40"/>
<path d="M1688.57,647.40,1576.87,740.81"/>
<path d="M1688.57,647.40,1656.62,763.43"/>
<path d="M1688.57,647.40,1582.24,567.27"/>
<path d="M1688.57,647.40,1800.12,470.66"/>
<path d="M286.77,481.23,207.38,508.55"/>
<path d="M286.77,481.23,258.52,557.25"/>
<path d="M286.77,481.23,334.42,457.73"/>
<path d="M1854.40,1712.56,1853.90,1680.90"/>
<path d="M1854.40,1712.56,1781.72,1760.28"/>
<path d="M1854.40,1712.56,1888.05,1751.70"/>
<path d="M997.59,1507.43,971.55,1509.52"/>
<path d="M997.59,1507.43,1080.49,1458.84"/>
<path d="M997.59,1507.43,980.48,1400.17"/>
<path d="M997.59,1507.43,1047.56,1656.89"/>
<path d="M1100.49,1877.22,1061.98,1993.99"/>
<path d="M1100.49,1877.22,1145.21,1789.81"/>
<path d="M1100.49,1877.22,1148.06,1936.44"/>
<path d="M1100.49,1877.22,1016.58,1963.03"/>
<path d="M34.91,1670.25,54.29,1630.20"/>
<path d="M34.91,1670.25,108.95,1763.51"/>
<path d="M499.71,592.72,449.17,560.57"/>
<path d="M499.71,592.72,544.52,577.29"/>
<path d="M499.71,592.72,513.25,620.30"/>
<path d="M771.22,59.54,692.49,71.08"/>
<path d="M2052.69,596.53,1934.98,580.90"/>
<path d="M2052.69,596.53,2006.44,517.48"/>
<path d="M2052.69,596.53,2016.82,767.99"/>
<path d="M898.84,816.26,845.52,906.73"/>
<path d="M898.84,816.26,1006.12,799.13"/>
<path d="M898.84,816.26,911.24,942.77"/>
<path d="M898.84,816.26,897.22,691.35"/>
<path d="M1504.40,29.58,1512.41,58.31"/>
<path d="M1445.94,503.22,1475.30,486.37"/>
<path d="M1445.94,503.22,1412.39,470.50"/>
<path d="M1445.94,503.22,1462.52,636.03"/>
<path d="M210.30,636.07,170.52,643.93"/>
<path d="M210.30,636.07,278.40,641.37"/>
<path d="M210.30,636.07,258.52,557.25"/>
<path d="M1507.50,785.67,1576.87,740.81"/>
<path d="M1507.50,785.67,1487.98,742.22"/>
<path d="M1507.50,785.67,1606.87,845.51"/>
<path d="M1251.78,748.66,1180.02,690.71"/>
<path d="M1251.78,748.66,1313.28,683.53"/>
<path d="M1251.78,748.66,1309.06,778.70"/>
<path d="M1251.78,748.66,1164.47,754.81"/>
<path d="M553.35,1936.62,497.74,1945.24"/>
<path d="M553.35,1936.62,670.42,1865.83"/>
<path d="M1326.33,633.60,1338.91,530.46"/>
<path d="M1326.33,633.60,1313.28,683.53"/>
<path d="M1326.33,633.60,1224.32,612.31"/>
<path d="M845.52,906.73,911.24,942.77"/>
<path d="M845.52,906.73,735.59,767.69"/>
<path d="M168.55,1623.59,54.29,1630.20"/>
<path d="M168.55,1623.59,131.67,1518.11"/>
<path d="M168.55,1623.59,108.95,1763.51"/>
<path d="M1996.89,1002.30,1913.47,966.60"/>
<path d="M1996.89,1002.30,1951.67,930.69"/>
<path d="M244.76,822.75,175.96,861.76"/>
<path d="M244.76,822.75,267.74,840.31"/>
<path d="M1336.49,88.33,1301.07,203.33"/>
<path d="M1913.47,966.60,1951.67,930.69"/>
<path d="M1913.47,966.60,1850.33,937.51"/>
<path d="M595.95,204.87,621.67,336.34"/>
<path d="M595.95,204.87,527.15,202.68"/>
<path d="M595.95,204.87,581.81,150.41"/>
<path d="M861.27,1060.47,811.23,1064.51"/>
<path d="M861.27,1060.47,898.50,1045.13"/>
<path d="M779.46,1509.54,794.12,1488.69"/>
<path d="M451.61,1664.12,509.82,1664.64"/>
<path d="M451.61,1664.12,405.82,1517.94"/>
<path d="M451.61,1664.12,354.69,1730.88"/>
<path d="M170.52,643.93,85.92,607.69"/>
<path d="M170.52,643.93,172.20,670.49"/>
<path d="M106.48,449.50,24.33,362.29"/>
<path d="M106.48,449.50,164.40,440.80"/>
<path d="M1475.30,486.37,1582.24,567.27"/>
<path d="M1475.30,486.37,1551.40,418.15"/>
<path d="M584.11,671.47,623.14,817.63"/>
<path d="M584.11,671.47,697.13,700.02"/>
<path d="M306.90,638.34,369.23,677.73"/>
<path d="M306.90,638.34,278.40,641.37"/>
<path d="M254.09,1807.87,167.10,1914.13"/>
<path d="M254.09,1807.87,336.76,1805.07"/>
<path d="M1232.98,249.09,1301.07,203.33"/>
<path d="M1232.98,249.09,1136.18,278.50"/>
<path d="M1232.98,249.09,1148.03,223.47"/>
<path d="M1232.98,249.09,1289.50,261.99"/>
<path d="M1927.34,1989.57,1986.17,1863.49"/>
<path d="M1927.34,1989.57,2044.45,1898.43"/>
<path d="M1061.98,1993.99,1125.92,2012.76"/>
<path d="M1061.98,1993.99,1148.06,1936.44"/>
<path d="M1061.98,1993.99,1043.53,2031.29"/>
<path d="M1061.98,1993.99,1016.58,1963.03"/>
<path d="M1895.04,1626.67,1919.07,1594.34"/>
<path d="M1895.04,1626.67,1866.22,1654.91"/>
<path d="M1895.04,1626.67,1888.68,1573.60"/>
<path d="M1748.42,704.40,1934.98,580.90"/>
<path d="M1748.42,704.40,1656.62,763.43"/>
<path d="M1748.42,704.40,1770.08,769.34"/>
<path d="M621.67,336.34,683.59,360.95"/>
<path d="M621.67,336.34,528.66,405.31"/>
<path d="M1953.00,1285.49,1946.10,1152.99"/>
<path d="M1953.00,1285.49,2058.62,1367.50"/>
<path d="M1953.00,1285.49,1899.61,1272.59"/>
<path d="M395.51,1186.35,365.19,1276.38"/>
<path d="M395.51,1186.35,315.42,1208.42"/>
<path d="M395.51,1186.35,380.11,1078.38"/>
<path d="M623.14,817.63,735.59,767.69"/>
<path d="M623.14,817.63,603.11,843.89"/>
<path d="M623.14,817.63,697.13,700.02"/>
<path d="M623.14,817.63,485.23,733.24"/>
<path d="M758.93,1855.81,721.08,1906.59"/>
<path d="M758.93,1855.81,730.74,1707.68"/>
<path d="M758.93,1855.81,670.42,1865.83"/>
<path d="M758.93,1855.81,899.07,1847.61"/>
<path d="M31.54,1977.30,132.83,2040.75"/>
<path d="M1829.41,379.59,1803.74,395.00"/>
<path d="M1829.41,379.59,1910.24,379.27"/>
<path d="M1829.41,379.59,1887.26,180.22"/>
<path d="M1455.43,927.45,1410.68,954.69"/>
<path d="M1455.43,927.45,1523.23,972.48"/>
<path d="M1252.06,973.55,1295.77,919.62"/>
<path d="M1252.06,973.55,1198.31,1008.15"/>
<path d="M1252.06,973.55,1321.08,964.64"/>
<path d="M1919.07,1594.34,1888.68,1573.60"/>
<path d="M1919.07,1594.34,1947.47,1493.35"/>
<path d="M1301.07,203.33,1289.50,261.99"/>
<path d="M661.65,457.37,653.22,498.99"/>
<path d="M661.65,457.37,609.30,472.62"/>
<path d="M661.65,457.37,770.79,499.40"/>
<path d="M1214.58,1887.58,1148.06,1936.44"/>
<path d="M1214.58,1887.58,1273.39,1930.53"/>
<path d="M1970.71,774.37,1866.89,839.97"/>
<path d="M1970.71,774.37,2016.82,767.99"/>
<path d="M1180.02,690.71,1187.90,593.96"/>
<path d="M1180.02,690.71,1224.32,612.31"/>
<path d="M1180.02,690.71,1164.47,754.81"/>
<path d="M6.68,1308.50,3.44,1382.30"/>
<path d="M6.68,1308.50,128.88,1181.64"/>
<path d="M1681.64,1771.57,1711.20,1775.72"/>
<path d="M721.08,1906.59,670.42,1865.83"/>
<path d="M1934.98,580.90,2006.44,517.48"/>
<path d="M1803.74,395.00,1731.40,323.19"/>
<path d="M1803.74,395.00,1721.69,387.13"/>
<path d="M1803.74,395.00,1800.12,470.66"/>
<path d="M486.18,393.94,329.18,290.40"/>
<path d="M486.18,393.94,489.22,455.41"/>
<path d="M486.18,393.94,334.42,457.73"/>
<path d="M486.18,393.94,528.66,405.31"/>
<path d="M1187.90,593.96,1224.32,612.31"/>
<path d="M1187.90,593.96,1194.86,551.76"/>
<path d="M1187.90,593.96,1023.29,639.51"/>
<path d="M1412.29,430.69,1350.82,382.81"/>
<path d="M1412.29,430.69,1412.39,470.50"/>
<path d="M854.74,195.15,862.41,109.82"/>
<path d="M854.74,195.15,809.50,337.52"/>
<path d="M854.74,195.15,774.56,211.59"/>
<path d="M1076.87,699.44,1006.12,799.13"/>
<path d="M1076.87,699.44,1116.99,744.55"/>
<path d="M1076.87,699.44,1023.29,639.51"/>
<path d="M1350.82,382.81,1312.56,373.32"/>
<path d="M1350.82,382.81,1312.75,413.54"/>
<path d="M1576.87,740.81,1656.62,763.43"/>
<path d="M1576.87,740.81,1582.24,567.27"/>
<path d="M1576.87,740.81,1487.98,742.22"/>
<path d="M1576.87,740.81,1606.87,845.51"/>
<path d="M229.01,245.74,221.53,219.19"/>
<path d="M229.01,245.74,329.18,290.40"/>
<path d="M284.85,915.99,452.87,869.42"/>
<path d="M284.85,915.99,267.74,840.31"/>
<path d="M284.85,915.99,380.11,1078.38"/>
<path d="M2006.44,517.48,1910.24,379.27"/>
<path d="M865.51,405.68,809.50,337.52"/>
<path d="M865.51,405.68,940.31,514.76"/>
<path d="M865.51,405.68,770.79,499.40"/>
<path d="M3.44,1382.30,11.10,1426.69"/>
<path d="M1099.27,330.13,919.74,330.15"/>
<path d="M1099.27,330.13,1114.60,293.74"/>
<path d="M1785.25,805.36,1770.08,769.34"/>
<path d="M1785.25,805.36,1814.90,838.23"/>
<path d="M1295.77,919.62,1347.75,881.87"/>
<path d="M1295.77,919.62,1321.08,964.64"/>
<path d="M835.44,1653.32,799.53,1689.15"/>
<path d="M835.44,1653.32,786.77,1625.06"/>
<path d="M835.44,1653.32,849.51,1677.81"/>
<path d="M835.44,1653.32,873.90,1633.07"/>
<path d="M1338.91,530.46,1229.93,461.56"/>
<path d="M1338.91,530.46,1412.39,470.50"/>
<path d="M1338.91,530.46,1224.32,612.31"/>
<path d="M1338.91,530.46,1194.86,551.76"/>
<path d="M1338.91,530.46,1462.52,636.03"/>
<path d="M1338.91,530.46,1312.75,413.54"/>
<path d="M593.64,1680.82,533.41,1637.51"/>
<path d="M1773.60,934.20,1719.13,967.84"/>
<path d="M1773.60,934.20,1814.90,838.23"/>
<path d="M1773.60,934.20,1850.33,937.51"/>
<path d="M0.39,340.26,24.33,362.29"/>
<path d="M862.41,109.82,932.42,22.42"/>
<path d="M167.10,1914.13,254.36,2034.72"/>
<path d="M167.10,1914.13,132.83,2040.75"/>
<path d="M811.23,1064.51,697.17,1138.63"/>
<path d="M971.55,1509.52,980.48,1400.17"/>
<path d="M971.55,1509.52,794.12,1488.69"/>
<path d="M971.55,1509.52,873.90,1633.07"/>
<path d="M1303.92,1754.90,1341.55,1790.78"/>
<path d="M569.24,1171.75,604.49,1152.02"/>
<path d="M569.24,1171.75,617.18,1322.44"/>
<path d="M569.24,1171.75,530.08,1113.15"/>
<path d="M569.24,1171.75,661.17,1296.16"/>
<path d="M1512.41,58.31,1594.57,71.27"/>
<path d="M1155.89,1528.01,1080.49,1458.84"/>
<path d="M1155.89,1528.01,1162.54,1603.31"/>
<path d="M1155.89,1528.01,1186.82,1441.62"/>
<path d="M365.19,1276.38,366.82,1324.19"/>
<path d="M365.19,1276.38,315.42,1208.42"/>
<path d="M1080.49,1458.84,1069.43,1417.22"/>
<path d="M1080.49,1458.84,1186.82,1441.62"/>
<path d="M1632.79,1304.12,1627.99,1153.56"/>
<path d="M1632.79,1304.12,1511.85,1451.08"/>
<path d="M1632.79,1304.12,1714.64,1525.33"/>
<path d="M1731.40,323.19,1721.69,387.13"/>
<path d="M1731.40,323.19,1887.26,180.22"/>
<path d="M604.49,1152.02,622.44,1104.04"/>
<path d="M604.49,1152.02,697.17,1138.63"/>
<path d="M604.49,1152.02,661.17,1296.16"/>
<path d="M617.18,1322.44,661.17,1296.16"/>
<path d="M1141.62,900.45,1109.39,782.47"/>
<path d="M1410.68,954.69,1347.75,881.87"/>
<path d="M1410.68,954.69,1321.08,964.64"/>
<path d="M692.49,71.08,608.29,52.98"/>
<path d="M692.49,71.08,624.26,134.13"/>
<path d="M1874.92,1410.53,1939.73,1469.03"/>
<path d="M1874.92,1410.53,1768.02,1517.55"/>
<path d="M980.48,1400.17,1075.29,1344.38"/>
<path d="M980.48,1400.17,915.53,1382.14"/>
<path d="M980.48,1400.17,1069.43,1417.22"/>
<path d="M980.48,1400.17,987.89,1325.52"/>
<path d="M702.36,1527.42,557.47,1418.78"/>
<path d="M702.36,1527.42,533.41,1637.51"/>
<path d="M305.88,1523.57,316.70,1437.70"/>
<path d="M305.88,1523.57,131.67,1518.11"/>
<path d="M305.88,1523.57,405.82,1517.94"/>
<path d="M305.88,1523.57,233.59,1433.57"/>
<path d="M1497.44,1778.15,1402.17,1807.69"/>
<path d="M1497.44,1778.15,1518.07,1640.71"/>
<path d="M1497.44,1778.15,1471.93,1966.77"/>
<path d="M557.47,1418.78,505.61,1428.75"/>
<path d="M1306.80,2045.94,1224.86,2008.51"/>
<path d="M1306.80,2045.94,1219.76,2060.35"/>
<path d="M369.23,677.73,338.67,762.49"/>
<path d="M369.23,677.73,449.17,560.57"/>
<path d="M369.23,677.73,462.39,722.49"/>
<path d="M530.08,1113.15,497.86,1069.43"/>
<path d="M530.08,1113.15,622.44,1104.04"/>
<path d="M1136.18,278.50,1114.60,293.74"/>
<path d="M132.90,1364.22,128.88,1181.64"/>
<path d="M132.90,1364.22,233.59,1433.57"/>
<path d="M132.90,1364.22,133.74,1448.36"/>
<path d="M497.31,1018.12,620.31,964.20"/>
<path d="M497.31,1018.12,497.86,1069.43"/>
<path d="M497.31,1018.12,452.87,869.42"/>
<path d="M1145.21,1789.81,1047.56,1656.89"/>
<path d="M1659.97,973.28,1561.88,950.96"/>
<path d="M1659.97,973.28,1719.13,967.84"/>
<path d="M1659.97,973.28,1606.87,845.51"/>
<path d="M85.92,607.69,87.30,714.22"/>
<path d="M715.35,1649.91,799.53,1689.15"/>
<path d="M715.35,1649.91,786.77,1625.06"/>
<path d="M715.35,1649.91,730.74,1707.68"/>
<path d="M1006.12,799.13,947.46,683.74"/>
<path d="M1006.12,799.13,1032.94,820.23"/>
<path d="M1561.88,950.96,1523.23,972.48"/>
<path d="M1561.88,950.96,1606.87,845.51"/>
<path d="M1897.00,91.25,1833.34,77.62"/>
<path d="M1897.00,91.25,1869.40,158.42"/>
<path d="M1897.00,91.25,2005.23,5.94"/>
<path d="M1897.00,91.25,1857.94,17.28"/>
<path d="M1395.24,1546.97,1289.76,1596.24"/>
<path d="M927.18,550.44,947.46,683.74"/>
<path d="M927.18,550.44,940.31,514.76"/>
<path d="M927.18,550.44,1023.29,639.51"/>
<path d="M911.24,942.77,898.50,1045.13"/>
<path d="M911.24,942.77,1032.94,820.23"/>
<path d="M911.24,942.77,1093.05,996.66"/>
<path d="M1047.56,1656.89,1162.54,1603.31"/>
<path d="M509.82,1664.64,533.41,1637.51"/>
<path d="M54.29,1630.20,30.23,1561.50"/>
<path d="M1140.38,1346.96,1075.29,1344.38"/>
<path d="M1140.38,1346.96,1281.75,1314.24"/>
<path d="M1140.38,1346.96,1260.45,1226.57"/>
<path d="M1140.38,1346.96,1125.90,1179.56"/>
<path d="M1140.38,1346.96,1186.82,1441.62"/>
<path d="M316.70,1437.70,366.82,1324.19"/>
<path d="M316.70,1437.70,405.82,1517.94"/>
<path d="M316.70,1437.70,233.59,1433.57"/>
<path d="M1849.21,1121.87,1899.61,1272.59"/>
<path d="M898.50,1045.13,955.23,1092.95"/>
<path d="M338.67,762.49,452.87,869.42"/>
<path d="M338.67,762.49,267.74,840.31"/>
<path d="M338.67,762.49,462.39,722.49"/>
<path d="M1341.55,1790.78,1402.17,1807.69"/>
<path d="M908.98,1810.02,899.07,1847.61"/>
<path d="M1075.29,1344.38,1035.41,1294.06"/>
<path d="M1075.29,1344.38,1069.43,1417.22"/>
<path d="M1125.92,2012.76,1148.06,1936.44"/>
<path d="M1125.92,2012.76,1224.86,2008.51"/>
<path d="M1125.92,2012.76,1219.76,2060.35"/>
<path d="M620.31,964.20,711.41,1017.83"/>
<path d="M620.31,964.20,663.22,930.87"/>
<path d="M620.31,964.20,663.23,1072.33"/>
<path d="M735.59,767.69,697.13,700.02"/>
<path d="M1833.34,77.62,1869.40,158.42"/>
<path d="M1833.34,77.62,1801.25,71.39"/>
<path d="M1833.34,77.62,1857.94,17.28"/>
<path d="M653.22,498.99,609.30,472.62"/>
<path d="M653.22,498.99,770.79,499.40"/>
<path d="M1978.89,1751.85,1986.17,1863.49"/>
<path d="M1978.89,1751.85,1888.05,1751.70"/>
<path d="M1627.99,1153.56,1523.23,972.48"/>
<path d="M958.11,1964.60,837.20,2000.88"/>
<path d="M958.11,1964.60,1016.58,1963.03"/>
<path d="M958.11,1964.60,899.07,1847.61"/>
<path d="M1939.73,1469.03,1947.47,1493.35"/>
<path d="M1939.73,1469.03,2058.62,1367.50"/>
<path d="M1910.24,379.27,1887.26,180.22"/>
<path d="M1866.22,1654.91,1853.90,1680.90"/>
<path d="M1866.22,1654.91,1883.21,1676.74"/>
<path d="M1853.90,1680.90,1883.21,1676.74"/>
<path d="M1458.63,723.65,1487.98,742.22"/>
<path d="M1458.63,723.65,1462.52,636.03"/>
<path d="M1656.62,763.43,1770.08,769.34"/>
<path d="M1656.62,763.43,1606.87,845.51"/>
<path d="M1148.06,1936.44,1224.86,2008.51"/>
<path d="M131.67,1518.11,30.23,1561.50"/>
<path d="M131.67,1518.11,133.74,1448.36"/>
<path d="M1518.07,1640.71,1595.92,1567.17"/>
<path d="M171.71,489.31,164.40,440.80"/>
<path d="M171.71,489.31,207.38,508.55"/>
<path d="M1289.76,1596.24,1162.54,1603.31"/>
<path d="M212.99,926.24,175.96,861.76"/>
<path d="M212.99,926.24,267.74,840.31"/>
<path d="M1313.28,683.53,1224.32,612.31"/>
<path d="M1313.28,683.53,1309.06,778.70"/>
<path d="M1035.41,1294.06,1020.87,1184.95"/>
<path d="M1035.41,1294.06,999.76,1302.79"/>
<path d="M1035.41,1294.06,1125.90,1179.56"/>
<path d="M1229.93,461.56,1312.75,413.54"/>
<path d="M1869.40,158.42,1887.26,180.22"/>
<path d="M505.61,1428.75,533.41,1637.51"/>
<path d="M505.61,1428.75,405.82,1517.94"/>
<path d="M1511.85,1451.08,1595.92,1567.17"/>
<path d="M1888.68,1573.60,1768.02,1517.55"/>
<path d="M1888.68,1573.60,1947.47,1493.35"/>
<path d="M799.53,1689.15,786.77,1625.06"/>
<path d="M799.53,1689.15,730.74,1707.68"/>
<path d="M799.53,1689.15,849.51,1677.81"/>
<path d="M1224.86,2008.51,1273.39,1930.53"/>
<path d="M1224.86,2008.51,1219.76,2060.35"/>
<path d="M221.53,219.19,161.24,226.41"/>
<path d="M449.17,560.57,489.22,455.41"/>
<path d="M449.17,560.57,334.42,457.73"/>
<path d="M527.15,202.68,581.81,150.41"/>
<path d="M128.88,1181.64,315.42,1208.42"/>
<path d="M1781.72,1760.28,1711.20,1775.72"/>
<path d="M608.29,52.98,624.26,134.13"/>
<path d="M1312.56,373.32,1289.50,261.99"/>
<path d="M1312.56,373.32,1312.75,413.54"/>
<path d="M533.41,1637.51,405.82,1517.94"/>
<path d="M1075.57,129.29,1080.32,193.26"/>
<path d="M1075.57,129.29,1185.81,31.76"/>
<path d="M1075.57,129.29,998.73,37.85"/>
<path d="M1109.39,782.47,1116.99,744.55"/>
<path d="M1109.39,782.47,1032.94,820.23"/>
<path d="M1768.02,1517.55,1714.64,1525.33"/>
<path d="M1148.03,223.47,1080.32,193.26"/>
<path d="M544.52,577.29,489.22,455.41"/>
<path d="M544.52,577.29,609.30,472.62"/>
<path d="M544.52,577.29,513.25,620.30"/>
<path d="M1156.65,1153.02,1125.90,1179.56"/>
<path d="M30.23,1561.50,11.10,1426.69"/>
<path d="M1346.47,1935.16,1273.39,1930.53"/>
<path d="M959.17,1284.71,1020.87,1184.95"/>
<path d="M959.17,1284.71,999.76,1302.79"/>
<path d="M959.17,1284.71,987.89,1325.52"/>
<path d="M497.74,1945.24,426.94,1870.16"/>
<path d="M497.74,1945.24,487.06,2002.61"/>
<path d="M207.38,508.55,258.52,557.25"/>
<path d="M809.50,337.52,774.56,211.59"/>
<path d="M711.41,1017.83,663.22,930.87"/>
<path d="M711.41,1017.83,663.23,1072.33"/>
<path d="M986.07,1065.23,955.23,1092.95"/>
<path d="M986.07,1065.23,1093.05,996.66"/>
<path d="M11.10,1426.69,133.74,1448.36"/>
<path d="M726.56,1313.34,661.17,1296.16"/>
<path d="M37.01,84.90,161.24,226.41"/>
<path d="M1866.89,839.97,1814.90,838.23"/>
<path d="M1866.89,839.97,1850.33,937.51"/>
<path d="M915.53,1382.14,794.12,1488.69"/>
<path d="M1198.31,1008.15,1141.22,1039.14"/>
<path d="M1020.87,1184.95,945.85,1126.06"/>
<path d="M1020.87,1184.95,1125.90,1179.56"/>
<path d="M1951.67,930.69,2054.58,860.42"/>
<path d="M947.46,683.74,1023.29,639.51"/>
<path d="M947.46,683.74,897.22,691.35"/>
<path d="M622.44,1104.04,697.17,1138.63"/>
<path d="M622.44,1104.04,663.23,1072.33"/>
<path d="M1197.34,2.70,1185.81,31.76"/>
<path d="M932.42,22.42,998.73,37.85"/>
<path d="M1582.24,567.27,1551.40,418.15"/>
<path d="M1582.24,567.27,1721.69,387.13"/>
<path d="M1582.24,567.27,1800.12,470.66"/>
<path d="M1582.24,567.27,1462.52,636.03"/>
<path d="M1946.10,1152.99,1899.61,1272.59"/>
<path d="M1116.99,744.55,1164.47,754.81"/>
<path d="M683.59,360.95,774.56,211.59"/>
<path d="M1471.93,1966.77,1622.44,1844.41"/>
<path d="M1814.90,838.23,1850.33,937.51"/>
<path d="M254.36,2034.72,132.83,2040.75"/>
<path d="M1595.92,1567.17,1714.64,1525.33"/>
<path d="M999.76,1302.79,987.89,1325.52"/>
<path d="M489.22,455.41,609.30,472.62"/>
<path d="M489.22,455.41,334.42,457.73"/>
<path d="M489.22,455.41,528.66,405.31"/>
<path d="M945.85,1126.06,955.23,1092.95"/>
<path d="M1194.86,551.76,1101.81,494.67"/>
<path d="M603.11,843.89,663.22,930.87"/>
<path d="M603.11,843.89,497.45,845.25"/>
<path d="M452.87,869.42,267.74,840.31"/>
<path d="M452.87,869.42,497.45,845.25"/>
<path d="M336.76,1805.07,426.94,1870.16"/>
<path d="M336.76,1805.07,375.88,1762.83"/>
<path d="M426.94,1870.16,375.88,1762.83"/>
<path d="M624.26,134.13,581.81,150.41"/>
<path d="M2005.23,5.94,1857.94,17.28"/>
<path d="M1281.75,1314.24,1260.45,1226.57"/>
<path d="M1281.75,1314.24,1186.82,1441.62"/>
<path d="M1101.81,494.67,1023.29,639.51"/>
<path d="M233.59,1433.57,133.74,1448.36"/>
<path d="M2054.58,860.42,2016.82,767.99"/>
<path d="M354.69,1730.88,375.88,1762.83"/>
<path d="M1093.05,996.66,1141.22,1039.14"/>
<path d="M609.30,472.62,528.66,405.31"/>
<path d="M697.17,1138.63,663.23,1072.33"/>
<path d="M1185.81,31.76,998.73,37.85"/>
<path d="M849.51,1677.81,873.90,1633.07"/>
<path d="M462.39,722.49,485.23,733.24"/>
<path d="M485.23,733.24,497.45,845.25"/>
<circle cx="1339.16" cy="824.57" r="10"/>
<text x="1339.16" y="829.57">R0</text>
<circle cx="2042.06" cy="1862.08" r="10"/>
<text x="2042.06" y="1867.08">R1</text>
<circle cx="536.94" cy="654.57" r="10"/>
<text x="536.94" y="659.57">R2</text>
<circle cx="1654.82" cy="327.96" r="10"/>
<text x="1654.82" y="332.96">R3</text>
<circle cx="216.96" cy="357.63" r="10"/>
<text x="216.96" y="362.63">R4</text>
<circle cx="663.89" cy="407.35" r="10"/>
<text x="663.89" y="412.35">R5</text>
<circle cx="54.41" cy="257.83" r="10"/>
<text x="54.41" y="262.83">R6</text>
<circle cx="389.80" cy="186.86" r="10"/>
<text x="389.80" y="191.86">R7</text>
<circle cx="1869.80" cy="1381.16" r="10"/>
<text x="1869.80" y="1386.16">R8</text>
<circle cx="1815.13" cy="2009.00" r="10"/>
<text x="1815.13" y="2014.00">R9</text>
<circle cx="1412.51" cy="2038.86" r="10"/>
<text x="1412.51" y="2043.86">R10</text>
<circle cx="1458.26" cy="1337.72" r="10"/>
<text x="1458.26" y="1342.72">R11</text>
<circle cx="1435.27" cy="253.97" r="10"/>
<text x="1435.27" y="258.97">R12</text>
<circle cx="1178.87" cy="1824.03" r="10"/>
<text x="1178.87" y="1829.03">R13</text>
<circle cx="774.48" cy="1365.44" r="10"/>
<text x="774.48" y="1370.44">R14</text>
<circle cx="426.51" cy="1945.59" r="10"/>
<text x="426.51" y="1950.59">R15</text>
<circle cx="806.30" cy="1951.51" r="10"/>
<text x="806.30" y="1956.51">R16</text>
<circle cx="6.93" cy="1956.07" r="10"/>
<text x="6.93" y="1961.07">R17</text>
<circle cx="202.34" cy="1018.23" r="10"/>
<text x="202.34" y="1023.23">R18</text>
<circle cx="242.18" cy="955.25" r="10"/>
<text x="242.18" y="960.25">R19</text>
<circle cx="886.54" cy="351.02" r="10"/>
<text x="886.54" y="356.02">R20</text>
<circle cx="1662.11" cy="250.35" r="10"/>
<text x="1662.11" y="255.35">R21</text>
<circle cx="732.95" cy="1551.77" r="10"/>
<text x="732.95" y="1556.77">R22</text>
<circle cx="1763.04" cy="1565.30" r="10"/>
<text x="1763.04" y="1570.30">R23</text>
<circle cx="786.38" cy="712.93" r="10"/>
<text x="786.38" y="717.93">R24</text>
<circle cx="1599.45" cy="2038.47" r="10"/>
<text x="1599.45" y="2043.47">R25</text>
<circle cx="1685.38" cy="1033.58" r="10"/>
<text x="1685.38" y="1038.58">R26</text>
<circle cx="935.65" cy="1267.16" r="10"/>
<text x="935.65" y="1272.16">R27</text>
<circle cx="167.62" cy="1768.81" r="10"/>
<text x="167.62" y="1773.81">R28</text>
<circle cx="1790.02" cy="1990.85" r="10"/>
<text x="1790.02" y="1995.85">R29</text>
<circle cx="573.18" cy="1324.40" r="10"/>
<text x="573.18" y="1329.40">R30</text>
<circle cx="601.04" cy="1994.66" r="10"/>
<text x="601.04" y="1999.66">R31</text>
<circle cx="2057.68" cy="220.93" r="10"/>
<text x="2057.68" y="225.93">R32</text>
<circle cx="647.72" cy="158.59" r="10"/>
<text x="647.72" y="163.59">R33</text>
<circle cx="682.91" cy="1705.58" r="10"/>
<text x="682.91" y="1710.58">R34</text>
<circle cx="1344.74" cy="1445.32" r="10"/>
<text x="1344.74" y="1450.32">R35</text>
<circle cx="1192.03" cy="469.74" r="10"/>
<text x="1192.03" y="474.74">R36</text>
<circle cx="89.80" cy="969.64" r="10"/>
<text x="89.80" y="974.64">R37</text>
<circle cx="1555.56" cy="227.80" r="10"/>
<text x="1555.56" y="232.80">R38</text>
<circle cx="1497.79" cy="1302.75" r="10"/>
<text x="1497.79" y="1307.75">R39</text>
<circle cx="825.66" cy="1004.27" r="10"/>
<text x="825.66" y="1009.27">R40</text>
<circle cx="775.20" cy="1184.61" r="10"/>
<text x="775.20" y="1189.61">R41</text>
<circle cx="92.85" cy="1371.69" r="10"/>
<text x="92.85" y="1376.69">R42</text>
<circle cx="937.75" cy="1689.74" r="10"/>
<text x="937.75" y="1694.74">R43</text>
<circle cx="1335.75" cy="2006.45" r="10"/>
<text x="1335.75" y="2011.45">R44</text>
<circle cx="1767.07" cy="3.99" r="10"/>
<text x="1767.07" y="8.99">R45</text>
<circle cx="1698.10" cy="301.43" r="10"/>
<text x="1698.10" y="306.43">R46</text>
<circle cx="931.06" cy="229.10" r="10"/>
<text x="931.06" y="234.10">R47</text>
<circle cx="729.91" cy="608.35" r="10"/>
<text x="729.91" y="613.35">R48</text>
<circle cx="948.58" cy="1350.57" r="10"/>
<text x="948.58" y="1355.57">R49</text>
<circle cx="88.50" cy="804.26" r="10"/>
<text x="88.50" y="809.26">R50</text>
<circle cx="304.89" cy="602.73" r="10"/>
<text x="304.89" y="607.73">R51</text>
<circle cx="1172.78" cy="393.73" r="10"/>
<text x="1172.78" y="398.73">R52</text>
<circle cx="1434.43" cy="835.52" r="10"/>
<text x="1434.43" y="840.52">R53</text>
<circle cx="1255.17" cy="110.92" r="10"/>
<text x="1255.17" y="115.92">R54</text>
<circle cx="1913.19" cy="871.46" r="10"/>
<text x="1913.19" y="876.46">R55</text>
<circle cx="967.52" cy="480.36" r="10"/>
<text x="967.52" y="485.36">R56</text>
<circle cx="1241.39" cy="1720.87" r="10"/>
<text x="1241.39" y="1725.87">R57</text>
<circle cx="1941.55" cy="1627.58" r="10"/>
<text x="1941.55" y="1632.58">R58</text>
<circle cx="1463.98" cy="118.50" r="10"/>
<text x="1463.98" y="123.50">R59</text>
<circle cx="1802.04" cy="1366.90" r="10"/>
<text x="1802.04" y="1371.90">R60</text>
<circle cx="1726.59" cy="1837.81" r="10"/>
<text x="1726.59" y="1842.81">R61</text>
<circle cx="136.82" cy="732.44" r="10"/>
<text x="136.82" y="737.44">R62</text>
<circle cx="671.39" cy="2040.53" r="10"/>
<text x="671.39" y="2045.53">R63</text>
<circle cx="1183.83" cy="1186.96" r="10"/>
<text x="1183.83" y="1191.96">R64</text>
<circle cx="1848.75" cy="446.92" r="10"/>
<text x="1848.75" y="451.92">R65</text>
<circle cx="1130.85" cy="251.88" r="10"/>
<text x="1130.85" y="256.88">R66</text>
<circle cx="775.94" cy="95.66" r="10"/>
<text x="775.94" y="100.66">R67</text>
<circle cx="790.51" cy="354.74" r="10"/>
<text x="790.51" y="359.74">R68</text>
<circle cx="732.36" cy="1261.20" r="10"/>
<text x="732.36" y="1266.20">R69</text>
<circle cx="585.93" cy="628.57" r="10"/>
<text x="585.93" y="633.57">R70</text>
<circle cx="1328.63" cy="1816.59" r="10"/>
<text x="1328.63" y="1821.59">R71</text>
<circle cx="76.02" cy="523.09" r="10"/>
<text x="76.02" y="528.09">R72</text>
<circle cx="1804.99" cy="141.39" r="10"/>
<text x="1804.99" y="146.39">R73</text>
<circle cx="418.47" cy="1056.04" r="10"/>
<text x="418.47" y="1061.04">R74</text>
<circle cx="282.13" cy="1584.18" r="10"/>
<text x="282.13" y="1589.18">R75</text>
<circle cx="1610.67" cy="47.21" r="10"/>
<text x="1610.67" y="52.21">R76</text>
<circle cx="1071.15" cy="871.92" r="10"/>
<text x="1071.15" y="876.92">R77</text>
<circle cx="461.43" cy="1971.96" r="10"/>
<text x="461.43" y="1976.96">R78</text>
<circle cx="462.06" cy="244.90" r="10"/>
<text x="462.06" y="249.90">R79</text>
<circle cx="902.36" cy="1729.42" r="10"/>
<text x="902.36" y="1734.42">R80</text>
<circle cx="742.21" cy="998.88" r="10"/>
<text x="742.21" y="1003.88">R81</text>
<circle cx="1400.39" cy="245.59" r="10"/>
<text x="1400.39" y="250.59">R82</text>
<circle cx="686.37" cy="153.85" r="10"/>
<text x="686.37" y="158.85">R83</text>
<circle cx="70.02" cy="1900.95" r="10"/>
<text x="70.02" y="1905.95">R84</text>
<circle cx="203.54" cy="1744.17" r="10"/>
<text x="203.54" y="1749.17">R85</text>
<circle cx="1649.20" cy="62.14" r="10"/>
<text x="1649.20" y="67.14">R86</text>
<circle cx="15.54" cy="2059.78" r="10"/>
<text x="15.54" y="2064.78">R87</text>
<circle cx="1715.78" cy="1089.34" r="10"/>
<text x="1715.78" y="1094.34">R88</text>
<circle cx="448.98" cy="1382.07" r="10"/>
<text x="448.98" y="1387.07">R89</text>
<circle cx="1512.69" cy="1188.25" r="10"/>
<text x="1512.69" y="1193.25">R90</text>
<circle cx="990.89" cy="1872.62" r="10"/>
<text x="990.89" y="1877.62">R91</text>
<circle cx="464.97" cy="1217.31" r="10"/>
<text x="464.97" y="1222.31">R92</text>
<circle cx="1943.27" cy="1673.86" r="10"/>
<text x="1943.27" y="1678.86">R93</text>
<circle cx="1167.28" cy="962.72" r="10"/>
<text x="1167.28" y="967.72">R94</text>
<circle cx="1115.43" cy="1078.94" r="10"/>
<text x="1115.43" y="1083.94">R95</text>
<circle cx="1144.05" cy="779.61" r="10"/>
<text x="1144.05" y="784.61">R96</text>
<circle cx="284.96" cy="1331.06" r="10"/>
<text x="284.96" y="1336.06">R97</text>
<circle cx="285.23" cy="343.81" r="10"/>
<text x="285.23" y="348.81">R98</text>
<circle cx="1169.72" cy="167.63" r="10"/>
<text x="1169.72" y="172.63">R99</text>
<circle cx="1286.56" cy="68.33" r="10"/>
<text x="1286.56" y="73.33">R100</text>
<circle cx="1610.97" cy="1795.90" r="10"/>
<text x="1610.97" y="1800.90">R101</text>
<circle cx="1929.01" cy="1100.27" r="10"/>
<text x="1929.01" y="1105.27">R102</text>
<circle cx="241.85" cy="1335.47" r="10"/>
<text x="241.85" y="1340.47">R103</text>
<circle cx="1951.13" cy="726.72" r="10"/>
<text x="1951.13" y="731.72">R104</text>
<circle cx="869.46" cy="600.51" r="10"/>
<text x="869.46" y="605.51">R105</text>
<circle cx="1572.23" cy="1683.03" r="10"/>
<text x="1572.23" y="1688.03">R106</text>
<circle cx="1401.88" cy="689.20" r="10"/>
<text x="1401.88" y="694.20">R107</text>
<circle cx="1421.34" cy="1557.57" r="10"/>
<text x="1421.34" y="1562.57">R108</text>
<circle cx="1386.13" cy="1913.27" r="10"/>
<text x="1386.13" y="1918.27">R109</text>
<circle cx="1688.57" cy="647.40" r="10"/>
<text x="1688.57" y="652.40">R110</text>
<circle cx="286.77" cy="481.23" r="10"/>
<text x="286.77" y="486.23">R111</text>
<circle cx="1854.40" cy="1712.56" r="10"/>
<text x="1854.40" y="1717.56">R112</text>
<circle cx="997.59" cy="1507.43" r="10"/>
<text x="997.59" y="1512.43">R113</text>
<circle cx="1100.49" cy="1877.22" r="10"/>
<text x="1100.49" y="1882.22">R114</text>
<circle cx="34.91" cy="1670.25" r="10"/>
<text x="34.91" y="1675.25">R115</text>
<circle cx="499.71" cy="592.72" r="10"/>
<text x="499.71" y="597.72">R116</text>
<circle cx="771.22" cy="59.54" r="10"/>
<text x="771.22" y="64.54">R117</text>
<circle cx="2052.69" cy="596.53" r="10"/>
<text x="2052.69" y="601.53">R118</text>
<circle cx="898.84" cy="816.26" r="10"/>
<text x="898.84" y="821.26">R119</text>
<circle cx="1504.40" cy="29.58" r="10"/>
<text x="1504.40" y="34.58">R120</text>
<circle cx="1445.94" cy="503.22" r="10"/>
<text x="1445.94" y="508.22">R121</text>
<circle cx="210.30" cy="636.07" r="10"/>
<text x="210.30" y="641.07">R122</text>
<circle cx="1507.50" cy="785.67" r="10"/>
<text x="1507.50" y="790.67">R123</text>
<circle cx="1251.78" cy="748.66" r="10"/>
<text x="1251.78" y="753.66">R124</text>
<circle cx="553.35" cy="1936.62" r="10"/>
<text x="553.35" y="1941.62">R125</text>
<circle cx="1326.33" cy="633.60" r="10"/>
<text x="1326.33" y="638.60">R126</text>
<circle cx="845.52" cy="906.73" r="10"/>
<text x="845.52" y="911.73">R127</text>
<circle cx="168.55" cy="1623.59" r="10"/>
<text x="168.55" y="1628.59">R128</text>
<circle cx="1996.89" cy="1002.30" r="10"/>
<text x="1996.89" y="1007.30">R129</text>
<circle cx="244.76" cy="822.75" r="10"/>
<text x="244.76" y="827.75">R130</text>
<circle cx="1336.49" cy="88.33" r="10"/>
<text x="1336.49" y="93.33">R131</text>
<circle cx="1913.47" cy="966.60" r="10"/>
<text x="1913.47" y="971.60">R132</text>
<circle cx="595.95" cy="204.87" r="10"/>
<text x="595.95" y="209.87">R133</text>
<circle cx="861.27" cy="1060.47" r="10"/>
<text x="861.27" y="1065.47">R134</text>
<circle cx="779.46" cy="1509.54" r="10"/>
<text x="779.46" y="1514.54">R135</text>
<circle cx="451.61" cy="1664.12" r="10"/>
<text x="451.61" y="1669.12">R136</text>
<circle cx="170.52" cy="643.93" r="10"/>
<text x="170.52" y="648.93">R137</text>
<circle cx="106.48" cy="449.50" r="10"/>
<text x="106.48" y="454.50">R138</text>
<circle cx="1475.30" cy="486.37" r="10"/>
<text x="1475.30" y="491.37">R139</text>
<circle cx="584.11" cy="671.47" r="10"/>
<text x="584.11" y="676.47">R140</text>
<circle cx="306.90" cy="638.34" r="10"/>
<text x="306.90" y="643.34">R141</text>
<circle cx="254.09" cy="1807.87" r="10"/>
<text x="254.09" y="1812.87">R142</text>
<circle cx="1232.98" cy="249.09" r="10"/>
<text x="1232.98" y="254.09">R143</text>
<circle cx="1927.34" cy="1989.57" r="10"/>
<text x="1927.34" y="1994.57">R144</text>
<circle cx="1061.98" cy="1993.99" r="10"/>
<text x="1061.98" y="1998.99">R145</text>
<circle cx="1895.04" cy="1626.67" r="10"/>
<text x="1895.04" y="1631.67">R146</text>
<circle cx="1748.42" cy="704.40" r="10"/>
<text x="1748.42" y="709.40">R147</text>
<circle cx="621.67" cy="336.34" r="10"/>
<text x="621.67" y="341.34">R148</text>
<circle cx="1953.00" cy="1285.49" r="10"/>
<text x="1953.00" y="1290.49">R149</text>
<circle cx="395.51" cy="1186.35" r="10"/>
<text x="395.51" y="1191.35">R150</text>
<circle cx="623.14" cy="817.63" r="10"/>
<text x="623.14" y="822.63">R151</text>
<circle cx="758.93" cy="1855.81" r="10"/>
<text x="758.93" y="1860.81">R152</text>
<circle cx="31.54" cy="1977.30" r="10"/>
<text x="31.54" y="1982.30">R153</text>
<circle cx="1829.41" cy="379.59" r="10"/>
<text x="1829.41" y="384.59">R154</text>
<circle cx="1455.43" cy="927.45" r="10"/>
<text x="1455.43" y="932.45">R155</text>
<circle cx="1252.06" cy="973.55" r="10"/>
<text x="1252.06" y="978.55">R156</text>
<circle cx="1919.07" cy="1594.34" r="10"/>
<text x="1919.07" y="1599.34">R157</text>
<circle cx="1301.07" cy="203.33" r="10"/>
<text x="1301.07" y="208.33">R158</text>
<circle cx="661.65" cy="457.37" r="10"/>
<text x="661.65" y="462.37">R159</text>
<circle cx="1214.58" cy="1887.58" r="10"/>
<text x="1214.58" y="1892.58">R160</text>
<circle cx="1970.71" cy="774.37" r="10"/>
<text x="1970.71" y="779.37">R161</text>
<circle cx="1180.02" cy="690.71" r="10"/>
<text x="1180.02" y="695.71">R162</text>
<circle cx="1770.00" cy="1950.37" r="10"/>
<text x="1770.00" y="1955.37">R163</text>
<circle cx="6.68" cy="1308.50" r="10"/>
<text x="6.68" y="1313.50">R164</text>
<circle cx="1681.64" cy="1771.57" r="10"/>
<text x="1681.64" y="1776.57">R165</text>
<circle cx="721.08" cy="1906.59" r="10"/>
<text x="721.08" y="1911.59">R166</text>
<circle cx="1934.98" cy="580.90" r="10"/>
<text x="1934.98" y="585.90">R167</text>
<circle cx="1803.74" cy="395.00" r="10"/>
<text x="1803.74" y="400.00">R168</text>
<circle cx="486.18" cy="393.94" r="10"/>
<text x="486.18" y="398.94">R169</text>
<circle cx="1187.90" cy="593.96" r="10"/>
<text x="1187.90" y="598.96">R170</text>
<circle cx="1412.29" cy="430.69" r="10"/>
<text x="1412.29" y="435.69">R171</text>
<circle cx="854.74" cy="195.15" r="10"/>
<text x="854.74" y="200.15">R172</text>
<circle cx="1076.87" cy="699.44" r="10"/>
<text x="1076.87" y="704.44">R173</text>
<circle cx="1350.82" cy="382.81" r="10"/>
<text x="1350.82" y="387.81">R174</text>
<circle cx="1576.87" cy="740.81" r="10"/>
<text x="1576.87" y="745.81">R175</text>
<circle cx="229.01" cy="245.74" r="10"/>
<text x="229.01" y="250.74">R176</text>
<circle cx="284.85" cy="915.99" r="10"/>
<text x="284.85" y="920.99">R177</text>
<circle cx="2006.44" cy="517.48" r="10"/>
<text x="2006.44" y="522.48">R178</text>
<circle cx="865.51" cy="405.68" r="10"/>
<text x="865.51" y="410.68">R179</text>
<circle cx="3.44" cy="1382.30" r="10"/>
<text x="3.44" y="1387.30">R180</text>
<circle cx="1099.27" cy="330.13" r="10"/>
<text x="1099.27" y="335.13">R181</text>
<circle cx="1785.25" cy="805.36" r="10"/>
<text x="1785.25" y="810.36">R182</text>
<circle cx="1295.77" cy="919.62" r="10"/>
<text x="1295.77" y="924.62">R183</text>
<circle cx="835.44" cy="1653.32" r="10"/>
<text x="835.44" y="1658.32">R184</text>
<circle cx="1338.91" cy="530.46" r="10"/>
<text x="1338.91" y="535.46">R185</text>
<circle cx="593.64" cy="1680.82" r="10"/>
<text x="593.64" y="1685.82">R186</text>
<circle cx="1773.60" cy="934.20" r="10"/>
<text x="1773.60" y="939.20">R187</text>
<circle cx="0.39" cy="340.26" r="10"/>
<text x="0.39" y="345.26">R188</text>
<circle cx="862.41" cy="109.82" r="10"/>
<text x="862.41" y="114.82">R189</text>
<circle cx="167.10" cy="1914.13" r="10"/>
<text x="167.10" y="1919.13">R190</text>
<circle cx="811.23" cy="1064.51" r="10"/>
<text x="811.23" y="1069.51">R191</text>
<circle cx="971.55" cy="1509.52" r="10"/>
<text x="971.55" y="1514.52">R192</text>
<circle cx="1303.92" cy="1754.90" r="10"/>
<text x="1303.92" y="1759.90">R193</text>
<circle cx="569.24" cy="1171.75" r="10"/>
<text x="569.24" y="1176.75">R194</text>
<circle cx="1512.41" cy="58.31" r="10"/>
<text x="1512.41" y="63.31">R195</text>
<circle cx="1155.89" cy="1528.01" r="10"/>
<text x="1155.89" y="1533.01">R196</text>
<circle cx="365.19" cy="1276.38" r="10"/>
<text x="365.19" y="1281.38">R197</text>
<circle cx="1080.49" cy="1458.84" r="10"/>
<text x="1080.49" y="1463.84">R198</text>
<circle cx="1632.79" cy="1304.12" r="10"/>
<text x="1632.79" y="1309.12">R199</text>
<circle cx="1731.40" cy="323.19" r="10"/>
<text x="1731.40" y="328.19">R200</text>
<circle cx="604.49" cy="1152.02" r="10"/>
<text x="604.49" y="1157.02">R201</text>
<circle cx="617.18" cy="1322.44" r="10"/>
<text x="617.18" y="1327.44">R202</text>
<circle cx="1141.62" cy="900.45" r="10"/>
<text x="1141.62" y="905.45">R203</text>
<circle cx="1410.68" cy="954.69" r="10"/>
<text x="1410.68" y="959.69">R204</text>
<circle cx="24.33" cy="362.29" r="10"/>
<text x="24.33" y="367.29">R205</text>
<circle cx="692.49" cy="71.08" r="10"/>
<text x="692.49" y="76.08">R206</text>
<circle cx="1874.92" cy="1410.53" r="10"/>
<text x="1874.92" y="1415.53">R207</text>
<circle cx="980.48" cy="1400.17" r="10"/>
<text x="980.48" y="1405.17">R208</text>
<circle cx="702.36" cy="1527.42" r="10"/>
<text x="702.36" y="1532.42">R209</text>
<circle cx="305.88" cy="1523.57" r="10"/>
<text x="305.88" y="1528.57">R210</text>
<circle cx="1497.44" cy="1778.15" r="10"/>
<text x="1497.44" y="1783.15">R211</text>
<circle cx="557.47" cy="1418.78" r="10"/>
<text x="557.47" y="1423.78">R212</text>
<circle cx="1306.80" cy="2045.94" r="10"/>
<text x="1306.80" y="2050.94">R213</text>
<circle cx="369.23" cy="677.73" r="10"/>
<text x="369.23" y="682.73">R214</text>
<circle cx="530.08" cy="1113.15" r="10"/>
<text x="530.08" y="1118.15">R215</text>
<circle cx="1136.18" cy="278.50" r="10"/>
<text x="1136.18" y="283.50">R216</text>
<circle cx="132.90" cy="1364.22" r="10"/>
<text x="132.90" y="1369.22">R217</text>
<circle cx="497.31" cy="1018.12" r="10"/>
<text x="497.31" y="1023.12">R218</text>
<circle cx="1145.21" cy="1789.81" r="10"/>
<text x="1145.21" y="1794.81">R219</text>
<circle cx="278.40" cy="641.37" r="10"/>
<text x="278.40" y="646.37">R220</text>
<circle cx="1659.97" cy="973.28" r="10"/>
<text x="1659.97" y="978.28">R221</text>
<circle cx="919.74" cy="330.15" r="10"/>
<text x="919.74" y="335.15">R222</text>
<circle cx="85.92" cy="607.69" r="10"/>
<text x="85.92" y="612.69">R223</text>
<circle cx="715.35" cy="1649.91" r="10"/>
<text x="715.35" y="1654.91">R224</text>
<circle cx="1006.12" cy="799.13" r="10"/>
<text x="1006.12" y="804.13">R225</text>
<circle cx="1561.88" cy="950.96" r="10"/>
<text x="1561.88" y="955.96">R226</text>
<circle cx="1897.00" cy="91.25" r="10"/>
<text x="1897.00" y="96.25">R227</text>
<circle cx="1395.24" cy="1546.97" r="10"/>
<text x="1395.24" y="1551.97">R228</text>
<circle cx="927.18" cy="550.44" r="10"/>
<text x="927.18" y="555.44">R229</text>
<circle cx="911.24" cy="942.77" r="10"/>
<text x="911.24" y="947.77">R230</text>
<circle cx="1047.56" cy="1656.89" r="10"/>
<text x="1047.56" y="1661.89">R231</text>
<circle cx="509.82" cy="1664.64" r="10"/>
<text x="509.82" y="1669.64">R232</text>
<circle cx="54.29" cy="1630.20" r="10"/>
<text x="54.29" y="1635.20">R233</text>
<circle cx="1140.38" cy="1346.96" r="10"/>
<text x="1140.38" y="1351.96">R234</text>
<circle cx="316.70" cy="1437.70" r="10"/>
<text x="316.70" y="1442.70">R235</text>
<circle cx="1849.21" cy="1121.87" r="10"/>
<text x="1849.21" y="1126.87">R236</text>
<circle cx="898.50" cy="1045.13" r="10"/>
<text x="898.50" y="1050.13">R237</text>
<circle cx="338.67" cy="762.49" r="10"/>
<text x="338.67" y="767.49">R238</text>
<circle cx="1341.55" cy="1790.78" r="10"/>
<text x="1341.55" y="1795.78">R239</text>
<circle cx="908.98" cy="1810.02" r="10"/>
<text x="908.98" y="1815.02">R240</text>
<circle cx="1075.29" cy="1344.38" r="10"/>
<text x="1075.29" y="1349.38">R241</text>
<circle cx="1125.92" cy="2012.76" r="10"/>
<text x="1125.92" y="2017.76">R242</text>
<circle cx="620.31" cy="964.20" r="10"/>
<text x="620.31" y="969.20">R243</text>
<circle cx="735.59" cy="767.69" r="10"/>
<text x="735.59" y="772.69">R244</text>
<circle cx="1833.34" cy="77.62" r="10"/>
<text x="1833.34" y="82.62">R245</text>
<circle cx="653.22" cy="498.99" r="10"/>
<text x="653.22" y="503.99">R246</text>
<circle cx="1978.89" cy="1751.85" r="10"/>
<text x="1978.89" y="1756.85">R247</text>
<circle cx="1627.99" cy="1153.56" r="10"/>
<text x="1627.99" y="1158.56">R248</text>
<circle cx="1402.17" cy="1807.69" r="10"/>
<text x="1402.17" y="1812.69">R249</text>
<circle cx="958.11" cy="1964.60" r="10"/>
<text x="958.11" y="1969.60">R250</text>
<circle cx="1939.73" cy="1469.03" r="10"/>
<text x="1939.73" y="1474.03">R251</text>
<circle cx="837.20" cy="2000.88" r="10"/>
<text x="837.20" y="2005.88">R252</text>
<circle cx="1910.24" cy="379.27" r="10"/>
<text x="1910.24" y="384.27">R253</text>
<circle cx="1866.22" cy="1654.91" r="10"/>
<text x="1866.22" y="1659.91">R254</text>
<circle cx="1853.90" cy="1680.90" r="10"/>
<text x="1853.90" y="1685.90">R255</text>
<circle cx="1458.63" cy="723.65" r="10"/>
<text x="1458.63" y="728.65">R256</text>
<circle cx="1656.62" cy="763.43" r="10"/>
<text x="1656.62" y="768.43">R257</text>
<circle cx="1148.06" cy="1936.44" r="10"/>
<text x="1148.06" y="1941.44">R258</text>
<circle cx="366.82" cy="1324.19" r="10"/>
<text x="366.82" y="1329.19">R259</text>
<circle cx="131.67" cy="1518.11" r="10"/>
<text x="131.67" y="1523.11">R260</text>
<circle cx="1518.07" cy="1640.71" r="10"/>
<text x="1518.07" y="1645.71">R261</text>
<circle cx="171.71" cy="489.31" r="10"/>
<text x="171.71" y="494.31">R262</text>
<circle cx="1289.76" cy="1596.24" r="10"/>
<text x="1289.76" y="1601.24">R263</text>
<circle cx="212.99" cy="926.24" r="10"/>
<text x="212.99" y="931.24">R264</text>
<circle cx="1313.28" cy="683.53" r="10"/>
<text x="1313.28" y="688.53">R265</text>
<circle cx="1035.41" cy="1294.06" r="10"/>
<text x="1035.41" y="1299.06">R266</text>
<circle cx="1229.93" cy="461.56" r="10"/>
<text x="1229.93" y="466.56">R267</text>
<circle cx="1869.40" cy="158.42" r="10"/>
<text x="1869.40" y="163.42">R268</text>
<circle cx="1412.39" cy="470.50" r="10"/>
<text x="1412.39" y="475.50">R269</text>
<circle cx="505.61" cy="1428.75" r="10"/>
<text x="505.61" y="1433.75">R270</text>
<circle cx="1511.85" cy="1451.08" r="10"/>
<text x="1511.85" y="1456.08">R271</text>
<circle cx="1888.68" cy="1573.60" r="10"/>
<text x="1888.68" y="1578.60">R272</text>
<circle cx="1801.25" cy="71.39" r="10"/>
<text x="1801.25" y="76.39">R273</text>
<circle cx="799.53" cy="1689.15" r="10"/>
<text x="799.53" y="1694.15">R274</text>
<circle cx="1224.86" cy="2008.51" r="10"/>
<text x="1224.86" y="2013.51">R275</text>
<circle cx="221.53" cy="219.19" r="10"/>
<text x="221.53" y="224.19">R276</text>
<circle cx="449.17" cy="560.57" r="10"/>
<text x="449.17" y="565.57">R277</text>
<circle cx="497.86" cy="1069.43" r="10"/>
<text x="497.86" y="1074.43">R278</text>
<circle cx="527.15" cy="202.68" r="10"/>
<text x="527.15" y="207.68">R279</text>
<circle cx="1347.75" cy="881.87" r="10"/>
<text x="1347.75" y="886.87">R280</text>
<circle cx="128.88" cy="1181.64" r="10"/>
<text x="128.88" y="1186.64">R281</text>
<circle cx="1781.72" cy="1760.28" r="10"/>
<text x="1781.72" y="1765.28">R282</text>
<circle cx="608.29" cy="52.98" r="10"/>
<text x="608.29" y="57.98">R283</text>
<circle cx="786.77" cy="1625.06" r="10"/>
<text x="786.77" y="1630.06">R284</text>
<circle cx="1719.13" cy="967.84" r="10"/>
<text x="1719.13" y="972.84">R285</text>
<circle cx="1312.56" cy="373.32" r="10"/>
<text x="1312.56" y="378.32">R286</text>
<circle cx="1594.57" cy="71.27" r="10"/>
<text x="1594.57" y="76.27">R287</text>
<circle cx="533.41" cy="1637.51" r="10"/>
<text x="533.41" y="1642.51">R288</text>
<circle cx="1075.57" cy="129.29" r="10"/>
<text x="1075.57" y="134.29">R289</text>
<circle cx="1109.39" cy="782.47" r="10"/>
<text x="1109.39" y="787.47">R290</text>
<circle cx="1768.02" cy="1517.55" r="10"/>
<text x="1768.02" y="1522.55">R291</text>
<circle cx="1148.03" cy="223.47" r="10"/>
<text x="1148.03" y="228.47">R292</text>
<circle cx="544.52" cy="577.29" r="10"/>
<text x="544.52" y="582.29">R293</text>
<circle cx="1156.65" cy="1153.02" r="10"/>
<text x="1156.65" y="1158.02">R294</text>
<circle cx="30.23" cy="1561.50" r="10"/>
<text x="30.23" y="1566.50">R295</text>
<circle cx="730.74" cy="1707.68" r="10"/>
<text x="730.74" y="1712.68">R296</text>
<circle cx="1346.47" cy="1935.16" r="10"/>
<text x="1346.47" y="1940.16">R297</text>
<circle cx="959.17" cy="1284.71" r="10"/>
<text x="959.17" y="1289.71">R298</text>
<circle cx="164.40" cy="440.80" r="10"/>
<text x="164.40" y="445.80">R299</text>
<circle cx="497.74" cy="1945.24" r="10"/>
<text x="497.74" y="1950.24">R300</text>
<circle cx="207.38" cy="508.55" r="10"/>
<text x="207.38" y="513.55">R301</text>
<circle cx="315.42" cy="1208.42" r="10"/>
<text x="315.42" y="1213.42">R302</text>
<circle cx="809.50" cy="337.52" r="10"/>
<text x="809.50" y="342.52">R303</text>
<circle cx="711.41" cy="1017.83" r="10"/>
<text x="711.41" y="1022.83">R304</text>
<circle cx="986.07" cy="1065.23" r="10"/>
<text x="986.07" y="1070.23">R305</text>
<circle cx="11.10" cy="1426.69" r="10"/>
<text x="11.10" y="1431.69">R306</text>
<circle cx="726.56" cy="1313.34" r="10"/>
<text x="726.56" y="1318.34">R307</text>
<circle cx="37.01" cy="84.90" r="10"/>
<text x="37.01" y="89.90">R308</text>
<circle cx="1947.47" cy="1493.35" r="10"/>
<text x="1947.47" y="1498.35">R309</text>
<circle cx="1866.89" cy="839.97" r="10"/>
<text x="1866.89" y="844.97">R310</text>
<circle cx="1883.21" cy="1676.74" r="10"/>
<text x="1883.21" y="1681.74">R311</text>
<circle cx="915.53" cy="1382.14" r="10"/>
<text x="915.53" y="1387.14">R312</text>
<circle cx="1198.31" cy="1008.15" r="10"/>
<text x="1198.31" y="1013.15">R313</text>
<circle cx="1020.87" cy="1184.95" r="10"/>
<text x="1020.87" y="1189.95">R314</text>
<circle cx="1951.67" cy="930.69" r="10"/>
<text x="1951.67" y="935.69">R315</text>
<circle cx="947.46" cy="683.74" r="10"/>
<text x="947.46" y="688.74">R316</text>
<circle cx="175.96" cy="861.76" r="10"/>
<text x="175.96" y="866.76">R317</text>
<circle cx="1273.39" cy="1930.53" r="10"/>
<text x="1273.39" y="1935.53">R318</text>
<circle cx="1770.08" cy="769.34" r="10"/>
<text x="1770.08" y="774.34">R319</text>
<circle cx="622.44" cy="1104.04" r="10"/>
<text x="622.44" y="1109.04">R320</text>
<circle cx="1224.32" cy="612.31" r="10"/>
<text x="1224.32" y="617.31">R321</text>
<circle cx="1197.34" cy="2.70" r="10"/>
<text x="1197.34" y="7.70">R322</text>
<circle cx="932.42" cy="22.42" r="10"/>
<text x="932.42" y="27.42">R323</text>
<circle cx="1986.17" cy="1863.49" r="10"/>
<text x="1986.17" y="1868.49">R324</text>
<circle cx="1582.24" cy="567.27" r="10"/>
<text x="1582.24" y="572.27">R325</text>
<circle cx="1946.10" cy="1152.99" r="10"/>
<text x="1946.10" y="1157.99">R326</text>
<circle cx="1116.99" cy="744.55" r="10"/>
<text x="1116.99" y="749.55">R327</text>
<circle cx="1043.53" cy="2031.29" r="10"/>
<text x="1043.53" y="2036.29">R328</text>
<circle cx="683.59" cy="360.95" r="10"/>
<text x="683.59" y="365.95">R329</text>
<circle cx="1471.93" cy="1966.77" r="10"/>
<text x="1471.93" y="1971.77">R330</text>
<circle cx="1487.98" cy="742.22" r="10"/>
<text x="1487.98" y="747.22">R331</text>
<circle cx="1814.90" cy="838.23" r="10"/>
<text x="1814.90" y="843.23">R332</text>
<circle cx="254.36" cy="2034.72" r="10"/>
<text x="254.36" y="2039.72">R333</text>
<circle cx="329.18" cy="290.40" r="10"/>
<text x="329.18" y="295.40">R334</text>
<circle cx="1595.92" cy="1567.17" r="10"/>
<text x="1595.92" y="1572.17">R335</text>
<circle cx="999.76" cy="1302.79" r="10"/>
<text x="999.76" y="1307.79">R336</text>
<circle cx="489.22" cy="455.41" r="10"/>
<text x="489.22" y="460.41">R337</text>
<circle cx="945.85" cy="1126.06" r="10"/>
<text x="945.85" y="1131.06">R338</text>
<circle cx="1194.86" cy="551.76" r="10"/>
<text x="1194.86" y="556.76">R339</text>
<circle cx="603.11" cy="843.89" r="10"/>
<text x="603.11" y="848.89">R340</text>
<circle cx="1711.20" cy="1775.72" r="10"/>
<text x="1711.20" y="1780.72">R341</text>
<circle cx="452.87" cy="869.42" r="10"/>
<text x="452.87" y="874.42">R342</text>
<circle cx="258.52" cy="557.25" r="10"/>
<text x="258.52" y="562.25">R343</text>
<circle cx="336.76" cy="1805.07" r="10"/>
<text x="336.76" y="1810.07">R344</text>
<circle cx="426.94" cy="1870.16" r="10"/>
<text x="426.94" y="1875.16">R345</text>
<circle cx="774.56" cy="211.59" r="10"/>
<text x="774.56" y="216.59">R346</text>
<circle cx="2044.45" cy="1898.43" r="10"/>
<text x="2044.45" y="1903.43">R347</text>
<circle cx="624.26" cy="134.13" r="10"/>
<text x="624.26" y="139.13">R348</text>
<circle cx="1551.40" cy="418.15" r="10"/>
<text x="1551.40" y="423.15">R349</text>
<circle cx="2005.23" cy="5.94" r="10"/>
<text x="2005.23" y="10.94">R350</text>
<circle cx="1721.69" cy="387.13" r="10"/>
<text x="1721.69" y="392.13">R351</text>
<circle cx="1523.23" cy="972.48" r="10"/>
<text x="1523.23" y="977.48">R352</text>
<circle cx="1032.94" cy="820.23" r="10"/>
<text x="1032.94" y="825.23">R353</text>
<circle cx="267.74" cy="840.31" r="10"/>
<text x="267.74" y="845.31">R354</text>
<circle cx="1281.75" cy="1314.24" r="10"/>
<text x="1281.75" y="1319.24">R355</text>
<circle cx="1622.44" cy="1844.41" r="10"/>
<text x="1622.44" y="1849.41">R356</text>
<circle cx="1260.45" cy="1226.57" r="10"/>
<text x="1260.45" y="1231.57">R357</text>
<circle cx="940.31" cy="514.76" r="10"/>
<text x="940.31" y="519.76">R358</text>
<circle cx="697.13" cy="700.02" r="10"/>
<text x="697.13" y="705.02">R359</text>
<circle cx="1101.81" cy="494.67" r="10"/>
<text x="1101.81" y="499.67">R360</text>
<circle cx="1023.29" cy="639.51" r="10"/>
<text x="1023.29" y="644.51">R361</text>
<circle cx="1800.12" cy="470.66" r="10"/>
<text x="1800.12" y="475.66">R362</text>
<circle cx="405.82" cy="1517.94" r="10"/>
<text x="405.82" y="1522.94">R363</text>
<circle cx="233.59" cy="1433.57" r="10"/>
<text x="233.59" y="1438.57">R364</text>
<circle cx="2054.58" cy="860.42" r="10"/>
<text x="2054.58" y="865.42">R365</text>
<circle cx="955.23" cy="1092.95" r="10"/>
<text x="955.23" y="1097.95">R366</text>
<circle cx="354.69" cy="1730.88" r="10"/>
<text x="354.69" y="1735.88">R367</text>
<circle cx="375.88" cy="1762.83" r="10"/>
<text x="375.88" y="1767.83">R368</text>
<circle cx="663.22" cy="930.87" r="10"/>
<text x="663.22" y="935.87">R369</text>
<circle cx="1093.05" cy="996.66" r="10"/>
<text x="1093.05" y="1001.66">R370</text>
<circle cx="1080.32" cy="193.26" r="10"/>
<text x="1080.32" y="198.26">R371</text>
<circle cx="1289.50" cy="261.99" r="10"/>
<text x="1289.50" y="266.99">R372</text>
<circle cx="609.30" cy="472.62" r="10"/>
<text x="609.30" y="477.62">R373</text>
<circle cx="697.17" cy="1138.63" r="10"/>
<text x="697.17" y="1143.63">R374</text>
<circle cx="670.42" cy="1865.83" r="10"/>
<text x="670.42" y="1870.83">R375</text>
<circle cx="132.83" cy="2040.75" r="10"/>
<text x="132.83" y="2045.75">R376</text>
<circle cx="2058.62" cy="1367.50" r="10"/>
<text x="2058.62" y="1372.50">R377</text>
<circle cx="1016.58" cy="1963.03" r="10"/>
<text x="1016.58" y="1968.03">R378</text>
<circle cx="334.42" cy="457.73" r="10"/>
<text x="334.42" y="462.73">R379</text>
<circle cx="770.79" cy="499.40" r="10"/>
<text x="770.79" y="504.40">R380</text>
<circle cx="1888.05" cy="1751.70" r="10"/>
<text x="1888.05" y="1756.70">R381</text>
<circle cx="161.24" cy="226.41" r="10"/>
<text x="161.24" y="231.41">R382</text>
<circle cx="1069.43" cy="1417.22" r="10"/>
<text x="1069.43" y="1422.22">R383</text>
<circle cx="2016.82" cy="767.99" r="10"/>
<text x="2016.82" y="772.99">R384</text>
<circle cx="87.30" cy="714.22" r="10"/>
<text x="87.30" y="719.22">R385</text>
<circle cx="1185.81" cy="31.76" r="10"/>
<text x="1185.81" y="36.76">R386</text>
<circle cx="528.66" cy="405.31" r="10"/>
<text x="528.66" y="410.31">R387</text>
<circle cx="1162.54" cy="1603.31" r="10"/>
<text x="1162.54" y="1608.31">R388</text>
<circle cx="897.22" cy="691.35" r="10"/>
<text x="897.22" y="696.35">R389</text>
<circle cx="794.12" cy="1488.69" r="10"/>
<text x="794.12" y="1493.69">R390</text>
<circle cx="1219.76" cy="2060.35" r="10"/>
<text x="1219.76" y="2065.35">R391</text>
<circle cx="581.81" cy="150.41" r="10"/>
<text x="581.81" y="155.41">R392</text>
<circle cx="1714.64" cy="1525.33" r="10"/>
<text x="1714.64" y="1530.33">R393</text>
<circle cx="487.06" cy="2002.61" r="10"/>
<text x="487.06" y="2007.61">R394</text>
<circle cx="1606.87" cy="845.51" r="10"/>
<text x="1606.87" y="850.51">R395</text>
<circle cx="663.23" cy="1072.33" r="10"/>
<text x="663.23" y="1077.33">R396</text>
<circle cx="1309.06" cy="778.70" r="10"/>
<text x="1309.06" y="783.70">R397</text>
<circle cx="1125.90" cy="1179.56" r="10"/>
<text x="1125.90" y="1184.56">R398</text>
<circle cx="513.25" cy="620.30" r="10"/>
<text x="513.25" y="625.30">R399</text>
<circle cx="998.73" cy="37.85" r="10"/>
<text x="998.73" y="42.85">R400</text>
<circle cx="849.51" cy="1677.81" r="10"/>
<text x="849.51" y="1682.81">R401</text>
<circle cx="1462.52" cy="636.03" r="10"/>
<text x="1462.52" y="641.03">R402</text>
<circle cx="1850.33" cy="937.51" r="10"/>
<text x="1850.33" y="942.51">R403</text>
<circle cx="1141.22" cy="1039.14" r="10"/>
<text x="1141.22" y="1044.14">R404</text>
<circle cx="133.74" cy="1448.36" r="10"/>
<text x="133.74" y="1453.36">R405</text>
<circle cx="462.39" cy="722.49" r="10"/>
<text x="462.39" y="727.49">R406</text>
<circle cx="1114.60" cy="293.74" r="10"/>
<text x="1114.60" y="298.74">R407</text>
<circle cx="485.23" cy="733.24" r="10"/>
<text x="485.23" y="738.24">R408</text>
<circle cx="1473.69" cy="1282.34" r="10"/>
<text x="1473.69" y="1287.34">R409</text>
<circle cx="108.95" cy="1763.51" r="10"/>
<text x="108.95" y="1768.51">R410</text>
<circle cx="172.20" cy="670.49" r="10"/>
<text x="172.20" y="675.49">R411</text>
<circle cx="1857.94" cy="17.28" r="10"/>
<text x="1857.94" y="22.28">R412</text>
<circle cx="1312.75" cy="413.54" r="10"/>
<text x="1312.75" y="418.54">R413</text>
<circle cx="380.11" cy="1078.38" r="10"/>
<text x="380.11" y="1083.38">R414</text>
<circle cx="497.45" cy="845.25" r="10"/>
<text x="497.45" y="850.25">R415</text>
<circle cx="1887.26" cy="180.22" r="10"/>
<text x="1887.26" y="185.22">R416</text>
<circle cx="1186.82" cy="1441.62" r="10"/>
<text x="1186.82" y="1446.62">R417</text>
<circle cx="1164.47" cy="754.81" r="10"/>
<text x="1164.47" y="759.81">R418</text>
<circle cx="873.90" cy="1633.07" r="10"/>
<text x="873.90" y="1638.07">R419</text>
<circle cx="1899.61" cy="1272.59" r="10"/>
<text x="1899.61" y="1277.59">R420</text>
<circle cx="661.17" cy="1296.16" r="10"/>
<text x="661.17" y="1301.16">R421</text>
<circle cx="1321.08" cy="964.64" r="10"/>
<text x="1321.08" y="969.64">R422</text>
<circle cx="987.89" cy="1325.52" r="10"/>
<text x="987.89" y="1330.52">R423</text>
<circle cx="899.07" cy="1847.61" r="10"/>
<text x="899.07" y="1852.61">R424</text>
</svg>
