<svg width="2147.37" height="2137.15" viewBox="-41.26 -36.29 2147.37 2137.15" xmlns="http://www.w3.org/2000/svg">
<style>path {fill: none; stroke: grey; stroke-width: 6;} circle {fill: lightblue; stroke: none;} text {fill: black; stroke: none; font-size: 16; font-family: sans-serif; text-anchor:middle;}</style>
<path d="M665.12,145.85,586.17,101.01"/>
<path d="M665.12,145.85,667.99,93.91"/>
<path d="M665.12,145.85,667.93,203.17"/>
<path d="M491.13,29.11,435.91,9.03"/>
<path d="M491.13,29.11,586.17,101.01"/>
<path d="M491.13,29.11,409.16,96.09"/>
<path d="M491.13,29.11,492.87,174.01"/>
<path d="M1297.19,541.32,1393.53,534.37"/>
<path d="M1297.19,541.32,1241.31,496.10"/>
<path d="M1297.19,541.32,1211.12,535.17"/>
<path d="M1297.19,541.32,1259.65,584.82"/>
<path d="M1297.19,541.32,1379.03,481.08"/>
<path d="M435.91,9.03,409.16,96.09"/>
<path d="M962.10,512.66,977.11,346.76"/>
<path d="M962.10,512.66,1023.24,635.54"/>
<path d="M962.10,512.66,1115.98,533.59"/>
<path d="M962.10,512.66,966.13,637.61"/>
<path d="M962.10,512.66,909.06,534.25"/>
<path d="M504.97,1472.43,466.07,1378.33"/>
<path d="M504.97,1472.43,520.34,1503.70"/>
<path d="M504.97,1472.43,427.43,1406.95"/>
<path d="M2047.41,1094.95,2017.04,1138.59"/>
<path d="M2047.41,1094.95,1987.81,1054.49"/>
<path d="M1638.66,734.69,1546.54,810.04"/>
<path d="M1638.66,734.69,1677.21,850.22"/>
<path d="M1638.66,734.69,1539.63,736.97"/>
<path d="M1638.66,734.69,1663.56,701.61"/>
<path d="M349.36,667.83,365.49,645.46"/>
<path d="M349.36,667.83,304.05,664.57"/>
<path d="M349.36,667.83,318.06,787.39"/>
<path d="M1729.71,373.35,1731.94,415.21"/>
<path d="M1729.71,373.35,1749.28,347.38"/>
<path d="M1729.71,373.35,1684.62,333.79"/>
<path d="M1817.51,1466.63,1745.79,1599.30"/>
<path d="M1817.51,1466.63,1783.36,1398.75"/>
<path d="M1817.51,1466.63,1608.42,1511.18"/>
<path d="M1817.51,1466.63,2012.05,1558.32"/>
<path d="M1817.51,1466.63,1889.29,1633.91"/>
<path d="M1817.51,1466.63,1916.67,1390.80"/>
<path d="M977.03,852.23,971.57,927.72"/>
<path d="M977.03,852.23,1109.68,871.45"/>
<path d="M977.03,852.23,989.22,790.41"/>
<path d="M1919.02,774.23,1846.24,780.37"/>
<path d="M1919.02,774.23,1963.58,790.61"/>
<path d="M1919.02,774.23,1914.99,646.43"/>
<path d="M1004.54,1182.12,1012.51,1292.46"/>
<path d="M1004.54,1182.12,916.93,1257.52"/>
<path d="M1004.54,1182.12,1023.01,1132.37"/>
<path d="M977.11,346.76,856.62,114.54"/>
<path d="M977.11,346.76,1124.50,488.16"/>
<path d="M977.11,346.76,867.61,468.58"/>
<path d="M977.11,346.76,1067.81,229.35"/>
<path d="M977.11,346.76,831.28,349.39"/>
<path d="M1731.94,415.21,1697.27,476.34"/>
<path d="M1731.94,415.21,1836.52,483.06"/>
<path d="M1731.94,415.21,1618.80,423.03"/>
<path d="M1791.23,608.53,1888.53,586.57"/>
<path d="M1791.23,608.53,1734.27,700.40"/>
<path d="M1791.23,608.53,1814.76,539.05"/>
<path d="M1791.23,608.53,1709.29,561.21"/>
<path d="M122.36,1162.75,136.31,1278.19"/>
<path d="M122.36,1162.75,122.03,1114.17"/>
<path d="M1484.47,281.09,1401.44,309.21"/>
<path d="M1484.47,281.09,1449.43,338.91"/>
<path d="M1484.47,281.09,1456.04,245.29"/>
<path d="M1484.47,281.09,1503.39,240.82"/>
<path d="M1484.47,281.09,1618.80,423.03"/>
<path d="M618.86,544.95,596.56,639.37"/>
<path d="M618.86,544.95,682.94,562.80"/>
<path d="M618.86,544.95,636.23,518.93"/>
<path d="M1316.85,100.83,1197.22,139.88"/>
<path d="M1316.85,100.83,1196.05,61.92"/>
<path d="M1316.85,100.83,1339.58,157.53"/>
<path d="M1316.85,100.83,1394.23,56.77"/>
<path d="M920.91,1290.58,1012.51,1292.46"/>
<path d="M920.91,1290.58,928.40,1317.92"/>
<path d="M920.91,1290.58,916.93,1257.52"/>
<path d="M565.90,1933.01,522.59,1900.98"/>
<path d="M565.90,1933.01,618.97,1830.06"/>
<path d="M565.90,1933.01,611.66,1997.44"/>
<path d="M565.90,1933.01,646.60,1934.43"/>
<path d="M565.90,1933.01,547.60,1992.25"/>
<path d="M586.17,101.01,533.54,217.75"/>
<path d="M586.17,101.01,667.99,93.91"/>
<path d="M586.17,101.01,656.45,57.72"/>
<path d="M586.17,101.01,492.87,174.01"/>
<path d="M1674.54,1897.77,1696.86,1941.10"/>
<path d="M1674.54,1897.77,1589.91,1990.15"/>
<path d="M1674.54,1897.77,1615.67,1826.68"/>
<path d="M1674.54,1897.77,1777.76,1870.67"/>
<path d="M184.42,1685.58,261.95,1746.77"/>
<path d="M184.42,1685.58,274.48,1581.55"/>
<path d="M184.42,1685.58,116.59,1731.75"/>
<path d="M184.42,1685.58,284.23,1704.70"/>
<path d="M184.42,1685.58,110.27,1618.91"/>
<path d="M333.97,1121.01,408.04,1204.66"/>
<path d="M333.97,1121.01,224.06,1102.93"/>
<path d="M333.97,1121.01,331.67,1209.18"/>
<path d="M333.97,1121.01,276.48,982.28"/>
<path d="M333.97,1121.01,316.55,970.61"/>
<path d="M333.97,1121.01,440.09,1102.59"/>
<path d="M772.39,48.20,693.71,76.37"/>
<path d="M772.39,48.20,801.73,64.70"/>
<path d="M613.78,993.93,571.06,978.43"/>
<path d="M613.78,993.93,710.34,1016.97"/>
<path d="M613.78,993.93,548.17,1168.07"/>
<path d="M613.78,993.93,598.06,954.02"/>
<path d="M571.06,978.43,548.17,1168.07"/>
<path d="M571.06,978.43,450.90,1035.05"/>
<path d="M571.06,978.43,598.06,954.02"/>
<path d="M571.06,978.43,444.17,858.96"/>
<path d="M722.76,765.08,819.93,747.50"/>
<path d="M722.76,765.08,593.02,682.23"/>
<path d="M722.76,765.08,707.15,797.48"/>
<path d="M722.76,765.08,762.46,679.61"/>
<path d="M1449.55,997.55,1398.68,944.25"/>
<path d="M1449.55,997.55,1395.57,1007.74"/>
<path d="M1449.55,997.55,1460.01,919.02"/>
<path d="M1449.55,997.55,1487.87,1005.46"/>
<path d="M80.42,1450.46,60.18,1497.23"/>
<path d="M80.42,1450.46,95.64,1399.47"/>
<path d="M80.42,1450.46,58.67,1420.14"/>
<path d="M80.42,1450.46,184.49,1531.17"/>
<path d="M572.31,1192.76,602.61,1286.62"/>
<path d="M572.31,1192.76,672.49,1200.81"/>
<path d="M572.31,1192.76,548.17,1168.07"/>
<path d="M572.31,1192.76,499.36,1282.73"/>
<path d="M1159.32,665.99,1023.24,635.54"/>
<path d="M1159.32,665.99,1115.98,533.59"/>
<path d="M1159.32,665.99,1227.96,627.07"/>
<path d="M1159.32,665.99,1180.22,687.49"/>
<path d="M1159.32,665.99,1160.41,519.68"/>
<path d="M2044.00,1241.26,2036.78,1378.58"/>
<path d="M2044.00,1241.26,1931.25,1189.88"/>
<path d="M2044.00,1241.26,2017.04,1138.59"/>
<path d="M1632.22,91.35,1673.71,55.27"/>
<path d="M1632.22,91.35,1604.30,202.29"/>
<path d="M1632.22,91.35,1597.41,36.01"/>
<path d="M142.80,1096.88,144.61,1002.14"/>
<path d="M142.80,1096.88,224.06,1102.93"/>
<path d="M142.80,1096.88,122.03,1114.17"/>
<path d="M1928.35,294.34,1957.83,279.82"/>
<path d="M1928.35,294.34,1875.31,286.84"/>
<path d="M1928.35,294.34,1966.93,338.48"/>
<path d="M693.81,1301.45,602.61,1286.62"/>
<path d="M693.81,1301.45,664.13,1419.99"/>
<path d="M693.81,1301.45,824.59,1325.93"/>
<path d="M693.81,1301.45,769.60,1243.68"/>
<path d="M693.81,1301.45,679.41,1242.76"/>
<path d="M438.82,720.94,540.12,741.31"/>
<path d="M438.82,720.94,446.02,692.26"/>
<path d="M438.82,720.94,318.06,787.39"/>
<path d="M438.82,720.94,462.33,784.57"/>
<path d="M1368.16,1380.18,1195.11,1288.17"/>
<path d="M1368.16,1380.18,1357.45,1229.96"/>
<path d="M1368.16,1380.18,1509.82,1414.33"/>
<path d="M1368.16,1380.18,1186.61,1449.54"/>
<path d="M1368.16,1380.18,1351.99,1512.31"/>
<path d="M60.18,1497.23,184.49,1531.17"/>
<path d="M60.18,1497.23,134.77,1587.02"/>
<path d="M496.68,1555.05,542.67,1579.05"/>
<path d="M496.68,1555.05,458.20,1543.54"/>
<path d="M496.68,1555.05,520.34,1503.70"/>
<path d="M496.68,1555.05,484.39,1602.79"/>
<path d="M274.86,674.00,165.03,667.15"/>
<path d="M274.86,674.00,304.05,664.57"/>
<path d="M274.86,674.00,265.54,787.67"/>
<path d="M274.86,674.00,197.27,550.45"/>
<path d="M274.86,674.00,318.06,787.39"/>
<path d="M718.85,456.92,719.46,421.77"/>
<path d="M718.85,456.92,667.61,427.61"/>
<path d="M718.85,456.92,822.50,449.36"/>
<path d="M718.85,456.92,682.94,562.80"/>
<path d="M718.85,456.92,636.23,518.93"/>
<path d="M1195.11,1288.17,1357.45,1229.96"/>
<path d="M1195.11,1288.17,1110.65,1404.87"/>
<path d="M1195.11,1288.17,1327.59,1158.30"/>
<path d="M1195.11,1288.17,1170.81,1269.87"/>
<path d="M1195.11,1288.17,1186.61,1449.54"/>
<path d="M2033.62,712.68,1963.58,790.61"/>
<path d="M2033.62,712.68,1995.97,627.48"/>
<path d="M1205.52,496.82,1241.31,496.10"/>
<path d="M1205.52,496.82,1211.12,535.17"/>
<path d="M1205.52,496.82,1160.41,519.68"/>
<path d="M1497.34,1561.99,1512.02,1696.06"/>
<path d="M1497.34,1561.99,1424.09,1631.06"/>
<path d="M1497.34,1561.99,1608.42,1511.18"/>
<path d="M1497.34,1561.99,1509.82,1414.33"/>
<path d="M1497.34,1561.99,1391.35,1536.73"/>
<path d="M719.46,421.77,667.61,427.61"/>
<path d="M719.46,421.77,822.50,449.36"/>
<path d="M719.46,421.77,831.28,349.39"/>
<path d="M1864.76,1308.90,1783.36,1398.75"/>
<path d="M1864.76,1308.90,1851.35,1243.38"/>
<path d="M1864.76,1308.90,1916.67,1390.80"/>
<path d="M276.83,1402.09,305.38,1421.62"/>
<path d="M276.83,1402.09,184.49,1531.17"/>
<path d="M276.83,1402.09,292.41,1373.37"/>
<path d="M64.83,1324.37,136.31,1278.19"/>
<path d="M64.83,1324.37,114.46,1355.10"/>
<path d="M64.83,1324.37,42.25,1386.93"/>
<path d="M1197.22,139.88,1264.08,203.35"/>
<path d="M1197.22,139.88,1191.13,211.44"/>
<path d="M1197.22,139.88,1168.89,132.31"/>
<path d="M302.08,1322.56,378.09,1323.66"/>
<path d="M302.08,1322.56,331.67,1209.18"/>
<path d="M302.08,1322.56,292.41,1373.37"/>
<path d="M302.08,1322.56,265.69,1340.00"/>
<path d="M1401.44,309.21,1449.43,338.91"/>
<path d="M1401.44,309.21,1456.04,245.29"/>
<path d="M1401.44,309.21,1334.55,255.83"/>
<path d="M1401.44,309.21,1243.06,382.90"/>
<path d="M867.88,1336.49,824.59,1325.93"/>
<path d="M867.88,1336.49,834.51,1374.42"/>
<path d="M867.88,1336.49,928.40,1317.92"/>
<path d="M165.03,667.15,265.54,787.67"/>
<path d="M165.03,667.15,197.27,550.45"/>
<path d="M165.03,667.15,114.63,668.57"/>
<path d="M802.95,639.91,829.13,715.18"/>
<path d="M802.95,639.91,682.94,562.80"/>
<path d="M802.95,639.91,831.04,484.68"/>
<path d="M802.95,639.91,762.46,679.61"/>
<path d="M802.95,639.91,901.72,563.36"/>
<path d="M1958.99,430.89,1836.52,483.06"/>
<path d="M1958.99,430.89,1995.97,627.48"/>
<path d="M1958.99,430.89,1838.28,366.91"/>
<path d="M1958.99,430.89,1966.93,338.48"/>
<path d="M1958.99,430.89,1888.53,586.57"/>
<path d="M856.62,114.54,1067.81,229.35"/>
<path d="M856.62,114.54,811.50,97.93"/>
<path d="M856.62,114.54,831.28,349.39"/>
<path d="M1295.49,1656.85,1253.42,1698.39"/>
<path d="M1295.49,1656.85,1391.35,1536.73"/>
<path d="M1295.49,1656.85,1312.58,1677.04"/>
<path d="M1295.49,1656.85,1351.99,1512.31"/>
<path d="M1295.49,1656.85,1215.00,1541.84"/>
<path d="M819.93,747.50,829.13,715.18"/>
<path d="M819.93,747.50,989.22,790.41"/>
<path d="M365.49,645.46,349.70,599.40"/>
<path d="M365.49,645.46,446.02,692.26"/>
<path d="M261.95,1746.77,190.44,1863.34"/>
<path d="M261.95,1746.77,279.59,1897.72"/>
<path d="M261.95,1746.77,284.23,1704.70"/>
<path d="M261.95,1746.77,372.99,1881.94"/>
<path d="M751.18,1536.89,755.11,1582.83"/>
<path d="M751.18,1536.89,776.41,1470.85"/>
<path d="M751.18,1536.89,704.50,1558.93"/>
<path d="M314.53,219.38,329.77,180.12"/>
<path d="M314.53,219.38,425.24,265.78"/>
<path d="M314.53,219.38,359.20,361.33"/>
<path d="M314.53,219.38,240.67,225.48"/>
<path d="M1558.65,1072.59,1454.53,1201.56"/>
<path d="M1558.65,1072.59,1621.59,949.24"/>
<path d="M1558.65,1072.59,1408.91,1154.47"/>
<path d="M1558.65,1072.59,1599.83,1099.01"/>
<path d="M1558.65,1072.59,1487.87,1005.46"/>
<path d="M1242.84,1884.12,1225.20,1847.12"/>
<path d="M1242.84,1884.12,1260.96,1842.04"/>
<path d="M1242.84,1884.12,1056.31,2000.10"/>
<path d="M1242.84,1884.12,1321.46,2004.28"/>
<path d="M1943.57,852.80,1811.44,940.97"/>
<path d="M1943.57,852.80,1966.77,819.82"/>
<path d="M1943.57,852.80,1878.34,1010.47"/>
<path d="M1943.57,852.80,1987.81,1054.49"/>
<path d="M1230.94,762.60,1211.53,833.40"/>
<path d="M1230.94,762.60,1342.58,774.64"/>
<path d="M1230.94,762.60,1180.22,687.49"/>
<path d="M329.77,180.12,409.16,96.09"/>
<path d="M329.77,180.12,288.11,118.61"/>
<path d="M329.77,180.12,397.94,189.06"/>
<path d="M1264.08,203.35,1284.29,230.77"/>
<path d="M1264.08,203.35,1191.13,211.44"/>
<path d="M1264.08,203.35,1339.58,157.53"/>
<path d="M1454.53,1201.56,1357.45,1229.96"/>
<path d="M1454.53,1201.56,1408.91,1154.47"/>
<path d="M1454.53,1201.56,1509.82,1414.33"/>
<path d="M1454.53,1201.56,1660.19,1245.46"/>
<path d="M1225.20,1847.12,1260.96,1842.04"/>
<path d="M1225.20,1847.12,1112.02,1792.64"/>
<path d="M1225.20,1847.12,1250.18,1787.44"/>
<path d="M1225.20,1847.12,1094.38,1845.16"/>
<path d="M136.31,1278.19,114.46,1355.10"/>
<path d="M136.31,1278.19,265.69,1340.00"/>
<path d="M3.74,1077.26,73.42,987.56"/>
<path d="M3.74,1077.26,122.03,1114.17"/>
<path d="M1124.50,488.16,1115.98,533.59"/>
<path d="M1124.50,488.16,1160.41,519.68"/>
<path d="M1078.71,1152.76,1023.01,1132.37"/>
<path d="M1078.71,1152.76,1122.76,1151.21"/>
<path d="M1078.71,1152.76,1111.67,1077.87"/>
<path d="M1696.86,1941.10,1763.29,1989.38"/>
<path d="M1696.86,1941.10,1589.91,1990.15"/>
<path d="M1696.86,1941.10,1798.64,1896.32"/>
<path d="M1696.86,1941.10,1777.76,1870.67"/>
<path d="M1696.86,1941.10,1643.47,2051.92"/>
<path d="M1903.98,1760.25,1922.49,1840.86"/>
<path d="M1903.98,1760.25,1854.72,1723.45"/>
<path d="M1903.98,1760.25,2050.45,1766.76"/>
<path d="M1903.98,1760.25,1965.63,1658.48"/>
<path d="M1903.98,1760.25,1866.36,1773.51"/>
<path d="M1700.63,295.55,1681.24,262.62"/>
<path d="M1700.63,295.55,1749.28,347.38"/>
<path d="M1700.63,295.55,1684.62,333.79"/>
<path d="M755.11,1582.83,814.13,1610.40"/>
<path d="M755.11,1582.83,751.03,1609.12"/>
<path d="M755.11,1582.83,704.50,1558.93"/>
<path d="M941.37,982.34,1009.18,1017.85"/>
<path d="M941.37,982.34,950.82,1052.59"/>
<path d="M941.37,982.34,928.79,947.10"/>
<path d="M144.61,1002.14,196.59,988.33"/>
<path d="M144.61,1002.14,102.11,960.24"/>
<path d="M1398.68,944.25,1395.57,1007.74"/>
<path d="M1398.68,944.25,1460.01,919.02"/>
<path d="M1398.68,944.25,1346.51,864.75"/>
<path d="M1398.68,944.25,1214.35,959.13"/>
<path d="M693.71,76.37,667.99,93.91"/>
<path d="M693.71,76.37,656.45,57.72"/>
<path d="M1284.29,230.77,1339.58,157.53"/>
<path d="M1284.29,230.77,1334.55,255.83"/>
<path d="M1284.29,230.77,1243.06,382.90"/>
<path d="M1284.29,230.77,1342.94,231.86"/>
<path d="M1393.53,534.37,1379.03,481.08"/>
<path d="M1393.53,534.37,1415.94,575.83"/>
<path d="M1393.53,534.37,1488.55,530.20"/>
<path d="M1357.45,1229.96,1327.59,1158.30"/>
<path d="M1357.45,1229.96,1408.91,1154.47"/>
<path d="M1259.14,2052.43,1315.04,2048.71"/>
<path d="M1259.14,2052.43,1056.31,2000.10"/>
<path d="M92.80,888.94,39.90,861.91"/>
<path d="M92.80,888.94,182.66,926.84"/>
<path d="M92.80,888.94,122.26,797.37"/>
<path d="M92.80,888.94,102.11,960.24"/>
<path d="M596.56,639.37,593.02,682.23"/>
<path d="M596.56,639.37,682.94,562.80"/>
<path d="M596.56,639.37,762.46,679.61"/>
<path d="M596.56,639.37,384.80,492.56"/>
<path d="M940.09,1504.17,825.41,1482.17"/>
<path d="M940.09,1504.17,1110.65,1404.87"/>
<path d="M940.09,1504.17,986.59,1333.93"/>
<path d="M940.09,1504.17,987.25,1591.89"/>
<path d="M940.09,1504.17,880.75,1599.46"/>
<path d="M532.99,1329.17,602.61,1286.62"/>
<path d="M532.99,1329.17,664.13,1419.99"/>
<path d="M532.99,1329.17,466.07,1378.33"/>
<path d="M532.99,1329.17,499.36,1282.73"/>
<path d="M602.61,1286.62,664.13,1419.99"/>
<path d="M602.61,1286.62,679.41,1242.76"/>
<path d="M378.09,1323.66,466.07,1378.33"/>
<path d="M378.09,1323.66,408.04,1204.66"/>
<path d="M378.09,1323.66,331.67,1209.18"/>
<path d="M378.09,1323.66,499.36,1282.73"/>
<path d="M378.09,1323.66,427.43,1406.95"/>
<path d="M2036.78,1378.58,2012.05,1558.32"/>
<path d="M2036.78,1378.58,1916.67,1390.80"/>
<path d="M2053.09,1590.93,2012.05,1558.32"/>
<path d="M2053.09,1590.93,2050.45,1766.76"/>
<path d="M2053.09,1590.93,1965.63,1658.48"/>
<path d="M667.61,427.61,650.14,377.18"/>
<path d="M667.61,427.61,636.23,518.93"/>
<path d="M667.61,427.61,573.73,416.34"/>
<path d="M593.02,682.23,552.36,707.70"/>
<path d="M593.02,682.23,762.46,679.61"/>
<path d="M533.54,217.75,621.08,223.92"/>
<path d="M533.54,217.75,496.64,239.45"/>
<path d="M533.54,217.75,614.03,289.60"/>
<path d="M533.54,217.75,492.87,174.01"/>
<path d="M274.48,1581.55,377.04,1607.47"/>
<path d="M274.48,1581.55,283.92,1541.41"/>
<path d="M274.48,1581.55,184.49,1531.17"/>
<path d="M274.48,1581.55,291.31,1678.01"/>
<path d="M152.48,25.75,6.92,80.15"/>
<path d="M152.48,25.75,79.15,177.15"/>
<path d="M152.48,25.75,230.14,97.83"/>
<path d="M95.64,1399.47,114.46,1355.10"/>
<path d="M95.64,1399.47,58.67,1420.14"/>
<path d="M95.64,1399.47,42.25,1386.93"/>
<path d="M1673.89,1111.02,1599.83,1099.01"/>
<path d="M1673.89,1111.02,1763.43,1117.72"/>
<path d="M1673.89,1111.02,1687.74,1048.01"/>
<path d="M1673.89,1111.02,1660.19,1245.46"/>
<path d="M1621.59,949.24,1546.54,810.04"/>
<path d="M1621.59,949.24,1503.00,922.73"/>
<path d="M1621.59,949.24,1710.47,962.42"/>
<path d="M1621.59,949.24,1687.74,1048.01"/>
<path d="M1621.59,949.24,1677.21,850.22"/>
<path d="M1621.59,949.24,1487.87,1005.46"/>
<path d="M1241.31,496.10,1211.12,535.17"/>
<path d="M1241.31,496.10,1243.06,382.90"/>
<path d="M1080.43,1674.51,1112.02,1792.64"/>
<path d="M1080.43,1674.51,1036.83,1628.58"/>
<path d="M1080.43,1674.51,1137.06,1650.65"/>
<path d="M1080.43,1674.51,954.53,1713.18"/>
<path d="M1009.18,1017.85,950.82,1052.59"/>
<path d="M1009.18,1017.85,971.57,927.72"/>
<path d="M1009.18,1017.85,1023.01,1132.37"/>
<path d="M1009.18,1017.85,1109.68,871.45"/>
<path d="M1009.18,1017.85,1111.67,1077.87"/>
<path d="M1009.18,1017.85,1154.34,948.29"/>
<path d="M664.13,1419.99,652.29,1481.18"/>
<path d="M664.13,1419.99,776.41,1470.85"/>
<path d="M825.41,1482.17,814.13,1610.40"/>
<path d="M825.41,1482.17,834.51,1374.42"/>
<path d="M825.41,1482.17,776.41,1470.85"/>
<path d="M825.41,1482.17,880.75,1599.46"/>
<path d="M443.81,1956.69,383.36,2055.86"/>
<path d="M443.81,1956.69,403.06,1881.72"/>
<path d="M443.81,1956.69,489.96,2042.24"/>
<path d="M443.81,1956.69,487.44,1916.72"/>
<path d="M443.81,1956.69,547.60,1992.25"/>
<path d="M1769.98,916.38,1846.24,780.37"/>
<path d="M1769.98,916.38,1811.44,940.97"/>
<path d="M1769.98,916.38,1710.47,962.42"/>
<path d="M1769.98,916.38,1677.21,850.22"/>
<path d="M1769.98,916.38,1733.79,978.68"/>
<path d="M1778.20,1799.41,1806.49,1708.99"/>
<path d="M1778.20,1799.41,1836.86,1824.77"/>
<path d="M1778.20,1799.41,1777.76,1870.67"/>
<path d="M1778.20,1799.41,1667.66,1750.59"/>
<path d="M425.24,265.78,359.20,361.33"/>
<path d="M425.24,265.78,496.64,239.45"/>
<path d="M425.24,265.78,397.94,189.06"/>
<path d="M540.12,741.31,446.02,692.26"/>
<path d="M540.12,741.31,552.36,707.70"/>
<path d="M540.12,741.31,707.15,797.48"/>
<path d="M540.12,741.31,598.06,954.02"/>
<path d="M540.12,741.31,462.33,784.57"/>
<path d="M1110.65,1404.87,1012.51,1292.46"/>
<path d="M1110.65,1404.87,986.59,1333.93"/>
<path d="M1110.65,1404.87,1186.61,1449.54"/>
<path d="M822.50,449.36,867.61,468.58"/>
<path d="M822.50,449.36,831.04,484.68"/>
<path d="M822.50,449.36,831.28,349.39"/>
<path d="M652.29,1481.18,620.92,1551.99"/>
<path d="M652.29,1481.18,776.41,1470.85"/>
<path d="M652.29,1481.18,520.34,1503.70"/>
<path d="M652.29,1481.18,704.50,1558.93"/>
<path d="M1504.33,212.49,1465.16,16.19"/>
<path d="M1504.33,212.49,1394.23,56.77"/>
<path d="M1504.33,212.49,1503.39,240.82"/>
<path d="M1260.96,1842.04,1250.18,1787.44"/>
<path d="M1260.96,1842.04,1436.74,1842.84"/>
<path d="M230.33,1044.03,224.06,1102.93"/>
<path d="M230.33,1044.03,276.48,982.28"/>
<path d="M230.33,1044.03,196.59,988.33"/>
<path d="M1832.90,1692.77,1745.79,1599.30"/>
<path d="M1832.90,1692.77,1806.49,1708.99"/>
<path d="M1832.90,1692.77,1854.72,1723.45"/>
<path d="M1832.90,1692.77,1889.29,1633.91"/>
<path d="M1327.59,1158.30,1395.57,1007.74"/>
<path d="M1327.59,1158.30,1408.91,1154.47"/>
<path d="M1327.59,1158.30,1248.89,1085.22"/>
<path d="M180.51,1987.78,227.69,2050.15"/>
<path d="M180.51,1987.78,254.53,2002.02"/>
<path d="M180.51,1987.78,250.72,1923.91"/>
<path d="M180.51,1987.78,124.37,1937.50"/>
<path d="M1196.05,61.92,1160.39,104.38"/>
<path d="M1449.43,338.91,1410.43,403.69"/>
<path d="M1449.43,338.91,1618.80,423.03"/>
<path d="M1178.06,1738.65,1112.02,1792.64"/>
<path d="M1178.06,1738.65,1253.42,1698.39"/>
<path d="M1178.06,1738.65,1137.06,1650.65"/>
<path d="M1178.06,1738.65,1250.18,1787.44"/>
<path d="M114.46,1355.10,265.69,1340.00"/>
<path d="M304.05,664.57,349.70,599.40"/>
<path d="M304.05,664.57,318.06,787.39"/>
<path d="M466.07,1378.33,427.43,1406.95"/>
<path d="M1512.02,1696.06,1424.09,1631.06"/>
<path d="M1512.02,1696.06,1587.70,1711.69"/>
<path d="M1512.02,1696.06,1453.57,1793.13"/>
<path d="M408.04,1204.66,331.67,1209.18"/>
<path d="M408.04,1204.66,548.17,1168.07"/>
<path d="M408.04,1204.66,499.36,1282.73"/>
<path d="M408.04,1204.66,440.09,1102.59"/>
<path d="M227.69,2050.15,254.53,2002.02"/>
<path d="M1745.79,1599.30,1705.25,1606.95"/>
<path d="M1745.79,1599.30,1806.49,1708.99"/>
<path d="M1745.79,1599.30,1889.29,1633.91"/>
<path d="M359.20,361.33,368.41,424.92"/>
<path d="M359.20,361.33,334.23,415.39"/>
<path d="M1023.24,635.54,1115.98,533.59"/>
<path d="M1023.24,635.54,966.13,637.61"/>
<path d="M1023.24,635.54,981.08,724.86"/>
<path d="M409.16,96.09,288.11,118.61"/>
<path d="M409.16,96.09,492.87,174.01"/>
<path d="M409.16,96.09,397.94,189.06"/>
<path d="M848.54,1816.13,878.98,1801.99"/>
<path d="M848.54,1816.13,799.80,1967.30"/>
<path d="M848.54,1816.13,673.09,1863.34"/>
<path d="M848.54,1816.13,791.62,1674.73"/>
<path d="M1846.24,780.37,1734.27,700.40"/>
<path d="M1846.24,780.37,1677.21,850.22"/>
<path d="M1424.09,1631.06,1391.35,1536.73"/>
<path d="M1424.09,1631.06,1312.58,1677.04"/>
<path d="M1395.57,1007.74,1408.91,1154.47"/>
<path d="M1395.57,1007.74,1214.35,959.13"/>
<path d="M1395.57,1007.74,1248.89,1085.22"/>
<path d="M1191.13,211.44,1128.95,192.48"/>
<path d="M1191.13,211.44,1243.06,382.90"/>
<path d="M240.67,225.48,288.11,118.61"/>
<path d="M240.67,225.48,79.15,177.15"/>
<path d="M240.67,225.48,230.14,97.83"/>
<path d="M240.67,225.48,114.20,372.87"/>
<path d="M1673.71,55.27,1762.29,143.99"/>
<path d="M1673.71,55.27,1597.41,36.01"/>
<path d="M1673.71,55.27,1728.61,8.71"/>
<path d="M672.49,1200.81,700.82,1058.41"/>
<path d="M672.49,1200.81,679.41,1242.76"/>
<path d="M383.36,2055.86,335.33,1914.64"/>
<path d="M383.36,2055.86,254.53,2002.02"/>
<path d="M383.36,2055.86,489.96,2042.24"/>
<path d="M377.04,1607.47,386.22,1641.98"/>
<path d="M377.04,1607.47,428.93,1572.67"/>
<path d="M1705.25,1606.95,1673.16,1608.45"/>
<path d="M1170.81,1269.87,1012.51,1292.46"/>
<path d="M1170.81,1269.87,1183.17,1135.36"/>
<path d="M1170.81,1269.87,1122.76,1151.21"/>
<path d="M2061.11,1848.02,2050.45,1766.76"/>
<path d="M2061.11,1848.02,2008.23,1873.54"/>
<path d="M824.59,1325.93,834.51,1374.42"/>
<path d="M824.59,1325.93,769.60,1243.68"/>
<path d="M1922.49,1840.86,1836.86,1824.77"/>
<path d="M1922.49,1840.86,1866.36,1773.51"/>
<path d="M1922.49,1840.86,1858.42,1953.22"/>
<path d="M1922.49,1840.86,2008.23,1873.54"/>
<path d="M1334.65,839.19,1346.51,864.75"/>
<path d="M1334.65,839.19,1254.20,846.08"/>
<path d="M1334.65,839.19,1342.58,774.64"/>
<path d="M1150.43,910.15,1165.99,884.36"/>
<path d="M1150.43,910.15,1109.68,871.45"/>
<path d="M1150.43,910.15,1154.34,948.29"/>
<path d="M349.70,599.40,277.42,490.28"/>
<path d="M349.70,599.40,197.27,550.45"/>
<path d="M349.70,599.40,384.80,492.56"/>
<path d="M1131.03,815.67,1211.53,833.40"/>
<path d="M1131.03,815.67,1165.99,884.36"/>
<path d="M1131.03,815.67,1109.68,871.45"/>
<path d="M1131.03,815.67,989.22,790.41"/>
<path d="M1131.03,815.67,1180.22,687.49"/>
<path d="M1783.36,1398.75,1608.42,1511.18"/>
<path d="M1783.36,1398.75,1660.19,1245.46"/>
<path d="M1783.36,1398.75,1916.67,1390.80"/>
<path d="M1339.58,157.53,1342.94,231.86"/>
<path d="M826.38,1978.89,799.80,1967.30"/>
<path d="M826.38,1978.89,806.38,2050.10"/>
<path d="M826.38,1978.89,872.25,2012.78"/>
<path d="M1806.49,1708.99,1667.66,1750.59"/>
<path d="M305.38,1421.62,283.92,1541.41"/>
<path d="M305.38,1421.62,427.43,1406.95"/>
<path d="M283.92,1541.41,184.49,1531.17"/>
<path d="M1531.44,241.92,1604.30,202.29"/>
<path d="M1531.44,241.92,1503.39,240.82"/>
<path d="M1531.44,241.92,1618.80,423.03"/>
<path d="M1866.71,1990.48,1763.29,1989.38"/>
<path d="M1866.71,1990.48,1858.42,1953.22"/>
<path d="M1608.42,1511.18,1509.82,1414.33"/>
<path d="M1608.42,1511.18,1673.16,1608.45"/>
<path d="M1460.01,919.02,1503.00,922.73"/>
<path d="M829.13,715.18,966.13,637.61"/>
<path d="M829.13,715.18,981.08,724.86"/>
<path d="M829.13,715.18,762.46,679.61"/>
<path d="M1546.54,810.04,1503.00,922.73"/>
<path d="M1546.54,810.04,1677.21,850.22"/>
<path d="M1546.54,810.04,1539.63,736.97"/>
<path d="M6.92,80.15,46.64,184.23"/>
<path d="M542.67,1579.05,620.92,1551.99"/>
<path d="M542.67,1579.05,637.26,1604.39"/>
<path d="M542.67,1579.05,579.03,1692.60"/>
<path d="M542.67,1579.05,484.39,1602.79"/>
<path d="M878.98,1801.99,954.53,1713.18"/>
<path d="M878.98,1801.99,791.62,1674.73"/>
<path d="M878.98,1801.99,1063.73,1853.84"/>
<path d="M1957.83,279.82,2032.15,172.48"/>
<path d="M1957.83,279.82,1966.93,338.48"/>
<path d="M1875.31,286.84,1838.28,222.66"/>
<path d="M1875.31,286.84,1838.28,366.91"/>
<path d="M1681.24,262.62,1604.30,202.29"/>
<path d="M1681.24,262.62,1755.15,191.40"/>
<path d="M1838.28,222.66,1749.28,347.38"/>
<path d="M1838.28,222.66,1810.44,193.56"/>
<path d="M710.34,1016.97,950.82,1052.59"/>
<path d="M710.34,1016.97,707.15,797.48"/>
<path d="M710.34,1016.97,700.82,1058.41"/>
<path d="M710.34,1016.97,928.79,947.10"/>
<path d="M1315.04,2048.71,1321.46,2004.28"/>
<path d="M620.92,1551.99,637.26,1604.39"/>
<path d="M620.92,1551.99,520.34,1503.70"/>
<path d="M620.92,1551.99,704.50,1558.93"/>
<path d="M116.59,1731.75,73.99,1795.21"/>
<path d="M116.59,1731.75,110.27,1618.91"/>
<path d="M950.82,1052.59,821.66,1161.21"/>
<path d="M950.82,1052.59,1023.01,1132.37"/>
<path d="M1963.58,790.61,1966.77,819.82"/>
<path d="M821.66,1161.21,769.60,1243.68"/>
<path d="M821.66,1161.21,916.93,1257.52"/>
<path d="M821.66,1161.21,700.82,1058.41"/>
<path d="M1211.12,535.17,1259.65,584.82"/>
<path d="M1211.12,535.17,1160.41,519.68"/>
<path d="M814.13,1610.40,751.03,1609.12"/>
<path d="M814.13,1610.40,880.75,1599.46"/>
<path d="M814.13,1610.40,791.62,1674.73"/>
<path d="M1465.16,16.19,1394.23,56.77"/>
<path d="M1465.16,16.19,1597.41,36.01"/>
<path d="M1836.86,1824.77,1798.64,1896.32"/>
<path d="M1836.86,1824.77,1866.36,1773.51"/>
<path d="M1836.86,1824.77,1777.76,1870.67"/>
<path d="M637.26,1604.39,579.03,1692.60"/>
<path d="M637.26,1604.39,704.50,1558.93"/>
<path d="M1931.25,1189.88,2017.04,1138.59"/>
<path d="M1931.25,1189.88,1878.34,1010.47"/>
<path d="M1931.25,1189.88,1851.35,1243.38"/>
<path d="M1763.29,1989.38,1798.64,1896.32"/>
<path d="M1763.29,1989.38,1643.47,2051.92"/>
<path d="M1763.29,1989.38,1858.42,1953.22"/>
<path d="M621.08,223.92,614.03,289.60"/>
<path d="M621.08,223.92,667.93,203.17"/>
<path d="M2017.04,1138.59,1987.81,1054.49"/>
<path d="M15.24,866.65,39.90,861.91"/>
<path d="M446.02,692.26,552.36,707.70"/>
<path d="M1749.28,347.38,1684.62,333.79"/>
<path d="M1749.28,347.38,1838.28,366.91"/>
<path d="M548.17,1168.07,440.09,1102.59"/>
<path d="M548.17,1168.07,700.82,1058.41"/>
<path d="M1592.67,528.73,1697.27,476.34"/>
<path d="M1592.67,528.73,1706.81,521.57"/>
<path d="M1592.67,528.73,1663.56,701.61"/>
<path d="M1592.67,528.73,1618.80,423.03"/>
<path d="M1592.67,528.73,1488.55,530.20"/>
<path d="M1592.67,528.73,1709.29,561.21"/>
<path d="M288.11,118.61,230.14,97.83"/>
<path d="M276.48,982.28,316.55,970.61"/>
<path d="M276.48,982.28,196.59,988.33"/>
<path d="M834.51,1374.42,776.41,1470.85"/>
<path d="M1558.76,1975.57,1468.77,1847.85"/>
<path d="M1558.76,1975.57,1589.91,1990.15"/>
<path d="M1558.76,1975.57,1615.67,1826.68"/>
<path d="M1558.76,1975.57,1321.46,2004.28"/>
<path d="M496.64,239.45,586.77,341.71"/>
<path d="M496.64,239.45,492.87,174.01"/>
<path d="M496.64,239.45,397.94,189.06"/>
<path d="M58.67,1420.14,42.25,1386.93"/>
<path d="M265.54,787.67,182.66,926.84"/>
<path d="M265.54,787.67,122.26,797.37"/>
<path d="M265.54,787.67,318.06,787.39"/>
<path d="M184.49,1531.17,134.77,1587.02"/>
<path d="M614.03,289.60,586.77,341.71"/>
<path d="M1012.51,1292.46,986.59,1333.93"/>
<path d="M1697.27,476.34,1836.52,483.06"/>
<path d="M1697.27,476.34,1706.81,521.57"/>
<path d="M1697.27,476.34,1618.80,423.03"/>
<path d="M316.55,970.61,450.90,1035.05"/>
<path d="M316.55,970.61,357.12,926.61"/>
<path d="M1211.53,833.40,1165.99,884.36"/>
<path d="M1211.53,833.40,1254.20,846.08"/>
<path d="M1115.98,533.59,1160.41,519.68"/>
<path d="M403.06,1881.72,386.22,1641.98"/>
<path d="M403.06,1881.72,487.44,1916.72"/>
<path d="M403.06,1881.72,372.99,1881.94"/>
<path d="M403.06,1881.72,487.93,1858.38"/>
<path d="M928.40,1317.92,986.59,1333.93"/>
<path d="M1836.52,483.06,1838.28,366.91"/>
<path d="M1836.52,483.06,1814.76,539.05"/>
<path d="M1508.39,732.43,1475.98,680.93"/>
<path d="M1508.39,732.43,1539.63,736.97"/>
<path d="M1508.39,732.43,1342.58,774.64"/>
<path d="M79.15,177.15,230.14,97.83"/>
<path d="M79.15,177.15,46.64,184.23"/>
<path d="M79.15,177.15,114.20,372.87"/>
<path d="M1456.04,245.29,1342.94,231.86"/>
<path d="M1456.04,245.29,1503.39,240.82"/>
<path d="M2032.15,172.48,2014.13,93.22"/>
<path d="M440.09,1102.59,450.90,1035.05"/>
<path d="M522.59,1900.98,618.97,1830.06"/>
<path d="M522.59,1900.98,487.44,1916.72"/>
<path d="M522.59,1900.98,487.93,1858.38"/>
<path d="M769.60,1243.68,916.93,1257.52"/>
<path d="M769.60,1243.68,679.41,1242.76"/>
<path d="M667.99,93.91,656.45,57.72"/>
<path d="M682.94,562.80,636.23,518.93"/>
<path d="M682.94,562.80,762.46,679.61"/>
<path d="M368.41,424.92,443.55,440.08"/>
<path d="M368.41,424.92,334.23,415.39"/>
<path d="M368.41,424.92,384.80,492.56"/>
<path d="M1684.62,333.79,1618.80,423.03"/>
<path d="M1112.02,1792.64,1094.38,1845.16"/>
<path d="M1112.02,1792.64,954.53,1713.18"/>
<path d="M1410.43,403.69,1379.03,481.08"/>
<path d="M1410.43,403.69,1243.06,382.90"/>
<path d="M1259.65,584.82,1227.96,627.07"/>
<path d="M443.55,440.08,573.73,416.34"/>
<path d="M443.55,440.08,384.80,492.56"/>
<path d="M1036.83,1628.58,987.25,1591.89"/>
<path d="M1036.83,1628.58,954.53,1713.18"/>
<path d="M650.14,377.18,586.77,341.71"/>
<path d="M650.14,377.18,573.73,416.34"/>
<path d="M335.33,1914.64,279.59,1897.72"/>
<path d="M335.33,1914.64,372.99,1881.94"/>
<path d="M277.42,490.28,197.27,550.45"/>
<path d="M277.42,490.28,334.23,415.39"/>
<path d="M277.42,490.28,384.80,492.56"/>
<path d="M277.42,490.28,114.20,372.87"/>
<path d="M1811.44,940.97,1878.34,1010.47"/>
<path d="M1811.44,940.97,1733.79,978.68"/>
<path d="M636.23,518.93,573.73,416.34"/>
<path d="M254.53,2002.02,250.72,1923.91"/>
<path d="M1227.96,627.07,1180.22,687.49"/>
<path d="M1995.97,627.48,1914.99,646.43"/>
<path d="M971.57,927.72,1109.68,871.45"/>
<path d="M971.57,927.72,928.79,947.10"/>
<path d="M1379.03,481.08,1243.06,382.90"/>
<path d="M586.77,341.71,573.73,416.34"/>
<path d="M1334.55,255.83,1243.06,382.90"/>
<path d="M1334.55,255.83,1342.94,231.86"/>
<path d="M73.99,1795.21,106.01,1827.23"/>
<path d="M987.25,1591.89,954.53,1713.18"/>
<path d="M987.25,1591.89,880.75,1599.46"/>
<path d="M2012.05,1558.32,1965.63,1658.48"/>
<path d="M2012.05,1558.32,1916.67,1390.80"/>
<path d="M867.61,468.58,831.04,484.68"/>
<path d="M867.61,468.58,909.06,534.25"/>
<path d="M73.42,987.56,102.11,960.24"/>
<path d="M799.80,1967.30,673.09,1863.34"/>
<path d="M799.80,1967.30,646.60,1934.43"/>
<path d="M1755.15,191.40,1762.29,143.99"/>
<path d="M1755.15,191.40,1810.44,193.56"/>
<path d="M618.97,1830.06,673.09,1863.34"/>
<path d="M618.97,1830.06,579.03,1692.60"/>
<path d="M1762.29,143.99,1810.44,193.56"/>
<path d="M1762.29,143.99,1728.61,8.71"/>
<path d="M611.66,1997.44,646.60,1934.43"/>
<path d="M611.66,1997.44,806.38,2050.10"/>
<path d="M611.66,1997.44,547.60,1992.25"/>
<path d="M83.58,720.91,61.34,817.51"/>
<path d="M83.58,720.91,122.26,797.37"/>
<path d="M83.58,720.91,114.63,668.57"/>
<path d="M190.44,1863.34,250.72,1923.91"/>
<path d="M190.44,1863.34,106.01,1827.23"/>
<path d="M190.44,1863.34,124.37,1937.50"/>
<path d="M61.34,817.51,39.90,861.91"/>
<path d="M61.34,817.51,122.26,797.37"/>
<path d="M707.15,797.48,598.06,954.02"/>
<path d="M279.59,1897.72,250.72,1923.91"/>
<path d="M489.96,2042.24,547.60,1992.25"/>
<path d="M1854.72,1723.45,1866.36,1773.51"/>
<path d="M1468.77,1847.85,1615.67,1826.68"/>
<path d="M1468.77,1847.85,1453.57,1793.13"/>
<path d="M1468.77,1847.85,1436.74,1842.84"/>
<path d="M106.01,1827.23,124.37,1937.50"/>
<path d="M106.01,1827.23,54.14,1936.63"/>
<path d="M1914.99,646.43,1888.53,586.57"/>
<path d="M458.20,1543.54,428.93,1572.67"/>
<path d="M1067.81,229.35,1128.95,192.48"/>
<path d="M386.22,1641.98,487.93,1858.38"/>
<path d="M386.22,1641.98,291.31,1678.01"/>
<path d="M673.09,1863.34,646.60,1934.43"/>
<path d="M673.09,1863.34,791.62,1674.73"/>
<path d="M1763.43,1117.72,1878.34,1010.47"/>
<path d="M1763.43,1117.72,1687.74,1048.01"/>
<path d="M1763.43,1117.72,1851.35,1243.38"/>
<path d="M197.27,550.45,114.20,372.87"/>
<path d="M1253.42,1698.39,1312.58,1677.04"/>
<path d="M1253.42,1698.39,1137.06,1650.65"/>
<path d="M1253.42,1698.39,1250.18,1787.44"/>
<path d="M2050.45,1766.76,1965.63,1658.48"/>
<path d="M1128.95,192.48,1168.89,132.31"/>
<path d="M487.44,1916.72,487.93,1858.38"/>
<path d="M487.44,1916.72,547.60,1992.25"/>
<path d="M182.66,926.84,196.59,988.33"/>
<path d="M182.66,926.84,102.11,960.24"/>
<path d="M1878.34,1010.47,1987.81,1054.49"/>
<path d="M966.13,637.61,981.08,724.86"/>
<path d="M966.13,637.61,901.72,563.36"/>
<path d="M1888.53,586.57,1814.76,539.05"/>
<path d="M1503.00,922.73,1487.87,1005.46"/>
<path d="M1710.47,962.42,1677.21,850.22"/>
<path d="M1710.47,962.42,1733.79,978.68"/>
<path d="M492.87,174.01,397.94,189.06"/>
<path d="M2011.93,59.50,2014.13,93.22"/>
<path d="M2011.93,59.50,1728.61,8.71"/>
<path d="M134.77,1587.02,110.27,1618.91"/>
<path d="M1056.31,2000.10,1063.73,1853.84"/>
<path d="M1056.31,2000.10,872.25,2012.78"/>
<path d="M1509.82,1414.33,1391.35,1536.73"/>
<path d="M1509.82,1414.33,1660.19,1245.46"/>
<path d="M1165.99,884.36,1109.68,871.45"/>
<path d="M284.23,1704.70,291.31,1678.01"/>
<path d="M806.38,2050.10,872.25,2012.78"/>
<path d="M1706.81,521.57,1814.76,539.05"/>
<path d="M1706.81,521.57,1709.29,561.21"/>
<path d="M751.03,1609.12,791.62,1674.73"/>
<path d="M1183.17,1135.36,1122.76,1151.21"/>
<path d="M1183.17,1135.36,1248.89,1085.22"/>
<path d="M1183.17,1135.36,1111.67,1077.87"/>
<path d="M1391.35,1536.73,1351.99,1512.31"/>
<path d="M1312.58,1677.04,1453.57,1793.13"/>
<path d="M1109.68,871.45,989.22,790.41"/>
<path d="M1589.91,1990.15,1606.74,2040.50"/>
<path d="M1137.06,1650.65,1215.00,1541.84"/>
<path d="M989.22,790.41,981.08,724.86"/>
<path d="M292.41,1373.37,265.69,1340.00"/>
<path d="M811.50,97.93,801.73,64.70"/>
<path d="M811.50,97.93,713.79,214.47"/>
<path d="M1734.27,700.40,1663.56,701.61"/>
<path d="M1734.27,700.40,1709.29,561.21"/>
<path d="M124.37,1937.50,54.14,1936.63"/>
<path d="M1615.67,1826.68,1587.70,1711.69"/>
<path d="M1615.67,1826.68,1667.66,1750.59"/>
<path d="M450.90,1035.05,444.17,858.96"/>
<path d="M450.90,1035.05,357.12,926.61"/>
<path d="M487.93,1858.38,579.03,1692.60"/>
<path d="M46.64,184.23,114.20,372.87"/>
<path d="M1687.74,1048.01,1733.79,978.68"/>
<path d="M1254.20,846.08,1214.35,959.13"/>
<path d="M1673.16,1608.45,1587.70,1711.69"/>
<path d="M1673.16,1608.45,1667.66,1750.59"/>
<path d="M909.06,534.25,901.72,563.36"/>
<path d="M1965.63,1658.48,1889.29,1633.91"/>
<path d="M1475.98,680.93,1342.58,774.64"/>
<path d="M1475.98,680.93,1415.94,575.83"/>
<path d="M1186.61,1449.54,1215.00,1541.84"/>
<path d="M1214.35,959.13,1248.89,1085.22"/>
<path d="M1214.35,959.13,1154.34,948.29"/>
<path d="M1094.38,1845.16,1063.73,1853.84"/>
<path d="M1851.35,1243.38,1660.19,1245.46"/>
<path d="M1798.64,1896.32,1777.76,1870.67"/>
<path d="M1798.64,1896.32,1858.42,1953.22"/>
<path d="M1663.56,701.61,1709.29,561.21"/>
<path d="M579.03,1692.60,484.39,1602.79"/>
<path d="M1587.70,1711.69,1667.66,1750.59"/>
<path d="M1453.57,1793.13,1436.74,1842.84"/>
<path d="M954.53,1713.18,880.75,1599.46"/>
<path d="M954.53,1713.18,791.62,1674.73"/>
<path d="M954.53,1713.18,1063.73,1853.84"/>
<path d="M1160.39,104.38,1168.89,132.31"/>
<path d="M1351.99,1512.31,1215.00,1541.84"/>
<path d="M667.93,203.17,713.79,214.47"/>
<path d="M1321.46,2004.28,1436.74,1842.84"/>
<path d="M831.28,349.39,713.79,214.47"/>
<path d="M1122.76,1151.21,1111.67,1077.87"/>
<path d="M1415.94,575.83,1488.55,530.20"/>
<path d="M318.06,787.39,444.17,858.96"/>
<path d="M318.06,787.39,462.33,784.57"/>
<path d="M318.06,787.39,357.12,926.61"/>
<path d="M1643.47,2051.92,1606.74,2040.50"/>
<path d="M444.17,858.96,462.33,784.57"/>
<path d="M444.17,858.96,357.12,926.61"/>
<path d="M1111.67,1077.87,1154.34,948.29"/>
<path d="M1814.76,539.05,1709.29,561.21"/>
<path d="M484.39,1602.79,428.93,1572.67"/>
<circle cx="665.12" cy="145.85" r="10"/>
<text x="665.12" y="150.85">R0</text>
<circle cx="491.13" cy="29.11" r="10"/>
<text x="491.13" y="34.11">R1</text>
<circle cx="1297.19" cy="541.32" r="10"/>
<text x="1297.19" y="546.32">R2</text>
<circle cx="435.91" cy="9.03" r="10"/>
<text x="435.91" y="14.03">R3</text>
<circle cx="962.10" cy="512.66" r="10"/>
<text x="962.10" y="517.66">R4</text>
<circle cx="504.97" cy="1472.43" r="10"/>
<text x="504.97" y="1477.43">R5</text>
<circle cx="2047.41" cy="1094.95" r="10"/>
<text x="2047.41" y="1099.95">R6</text>
<circle cx="1638.66" cy="734.69" r="10"/>
<text x="1638.66" y="739.69">R7</text>
<circle cx="349.36" cy="667.83" r="10"/>
<text x="349.36" y="672.83">R8</text>
<circle cx="1729.71" cy="373.35" r="10"/>
<text x="1729.71" y="378.35">R9</text>
<circle cx="1817.51" cy="1466.63" r="10"/>
<text x="1817.51" y="1471.63">R10</text>
<circle cx="977.03" cy="852.23" r="10"/>
<text x="977.03" y="857.23">R11</text>
<circle cx="1919.02" cy="774.23" r="10"/>
<text x="1919.02" y="779.23">R12</text>
<circle cx="1004.54" cy="1182.12" r="10"/>
<text x="1004.54" y="1187.12">R13</text>
<circle cx="977.11" cy="346.76" r="10"/>
<text x="977.11" y="351.76">R14</text>
<circle cx="1731.94" cy="415.21" r="10"/>
<text x="1731.94" y="420.21">R15</text>
<circle cx="1791.23" cy="608.53" r="10"/>
<text x="1791.23" y="613.53">R16</text>
<circle cx="122.36" cy="1162.75" r="10"/>
<text x="122.36" y="1167.75">R17</text>
<circle cx="1484.47" cy="281.09" r="10"/>
<text x="1484.47" y="286.09">R18</text>
<circle cx="618.86" cy="544.95" r="10"/>
<text x="618.86" y="549.95">R19</text>
<circle cx="1316.85" cy="100.83" r="10"/>
<text x="1316.85" y="105.83">R20</text>
<circle cx="920.91" cy="1290.58" r="10"/>
<text x="920.91" y="1295.58">R21</text>
<circle cx="565.90" cy="1933.01" r="10"/>
<text x="565.90" y="1938.01">R22</text>
<circle cx="586.17" cy="101.01" r="10"/>
<text x="586.17" y="106.01">R23</text>
<circle cx="1674.54" cy="1897.77" r="10"/>
<text x="1674.54" y="1902.77">R24</text>
<circle cx="184.42" cy="1685.58" r="10"/>
<text x="184.42" y="1690.58">R25</text>
<circle cx="333.97" cy="1121.01" r="10"/>
<text x="333.97" y="1126.01">R26</text>
<circle cx="772.39" cy="48.20" r="10"/>
<text x="772.39" y="53.20">R27</text>
<circle cx="613.78" cy="993.93" r="10"/>
<text x="613.78" y="998.93">R28</text>
<circle cx="571.06" cy="978.43" r="10"/>
<text x="571.06" y="983.43">R29</text>
<circle cx="722.76" cy="765.08" r="10"/>
<text x="722.76" y="770.08">R30</text>
<circle cx="1449.55" cy="997.55" r="10"/>
<text x="1449.55" y="1002.55">R31</text>
<circle cx="80.42" cy="1450.46" r="10"/>
<text x="80.42" y="1455.46">R32</text>
<circle cx="572.31" cy="1192.76" r="10"/>
<text x="572.31" y="1197.76">R33</text>
<circle cx="1159.32" cy="665.99" r="10"/>
<text x="1159.32" y="670.99">R34</text>
<circle cx="2044.00" cy="1241.26" r="10"/>
<text x="2044.00" y="1246.26">R35</text>
<circle cx="1632.22" cy="91.35" r="10"/>
<text x="1632.22" y="96.35">R36</text>
<circle cx="142.80" cy="1096.88" r="10"/>
<text x="142.80" y="1101.88">R37</text>
<circle cx="1928.35" cy="294.34" r="10"/>
<text x="1928.35" y="299.34">R38</text>
<circle cx="693.81" cy="1301.45" r="10"/>
<text x="693.81" y="1306.45">R39</text>
<circle cx="438.82" cy="720.94" r="10"/>
<text x="438.82" y="725.94">R40</text>
<circle cx="1368.16" cy="1380.18" r="10"/>
<text x="1368.16" y="1385.18">R41</text>
<circle cx="60.18" cy="1497.23" r="10"/>
<text x="60.18" y="1502.23">R42</text>
<circle cx="496.68" cy="1555.05" r="10"/>
<text x="496.68" y="1560.05">R43</text>
<circle cx="274.86" cy="674.00" r="10"/>
<text x="274.86" y="679.00">R44</text>
<circle cx="718.85" cy="456.92" r="10"/>
<text x="718.85" y="461.92">R45</text>
<circle cx="1195.11" cy="1288.17" r="10"/>
<text x="1195.11" y="1293.17">R46</text>
<circle cx="2033.62" cy="712.68" r="10"/>
<text x="2033.62" y="717.68">R47</text>
<circle cx="1205.52" cy="496.82" r="10"/>
<text x="1205.52" y="501.82">R48</text>
<circle cx="1497.34" cy="1561.99" r="10"/>
<text x="1497.34" y="1566.99">R49</text>
<circle cx="719.46" cy="421.77" r="10"/>
<text x="719.46" y="426.77">R50</text>
<circle cx="1864.76" cy="1308.90" r="10"/>
<text x="1864.76" y="1313.90">R51</text>
<circle cx="276.83" cy="1402.09" r="10"/>
<text x="276.83" y="1407.09">R52</text>
<circle cx="64.83" cy="1324.37" r="10"/>
<text x="64.83" y="1329.37">R53</text>
<circle cx="1197.22" cy="139.88" r="10"/>
<text x="1197.22" y="144.88">R54</text>
<circle cx="302.08" cy="1322.56" r="10"/>
<text x="302.08" y="1327.56">R55</text>
<circle cx="1401.44" cy="309.21" r="10"/>
<text x="1401.44" y="314.21">R56</text>
<circle cx="867.88" cy="1336.49" r="10"/>
<text x="867.88" y="1341.49">R57</text>
<circle cx="165.03" cy="667.15" r="10"/>
<text x="165.03" y="672.15">R58</text>
<circle cx="802.95" cy="639.91" r="10"/>
<text x="802.95" y="644.91">R59</text>
<circle cx="1958.99" cy="430.89" r="10"/>
<text x="1958.99" y="435.89">R60</text>
<circle cx="856.62" cy="114.54" r="10"/>
<text x="856.62" y="119.54">R61</text>
<circle cx="1295.49" cy="1656.85" r="10"/>
<text x="1295.49" y="1661.85">R62</text>
<circle cx="819.93" cy="747.50" r="10"/>
<text x="819.93" y="752.50">R63</text>
<circle cx="365.49" cy="645.46" r="10"/>
<text x="365.49" y="650.46">R64</text>
<circle cx="261.95" cy="1746.77" r="10"/>
<text x="261.95" y="1751.77">R65</text>
<circle cx="751.18" cy="1536.89" r="10"/>
<text x="751.18" y="1541.89">R66</text>
<circle cx="314.53" cy="219.38" r="10"/>
<text x="314.53" y="224.38">R67</text>
<circle cx="1558.65" cy="1072.59" r="10"/>
<text x="1558.65" y="1077.59">R68</text>
<circle cx="1242.84" cy="1884.12" r="10"/>
<text x="1242.84" y="1889.12">R69</text>
<circle cx="1943.57" cy="852.80" r="10"/>
<text x="1943.57" y="857.80">R70</text>
<circle cx="1230.94" cy="762.60" r="10"/>
<text x="1230.94" y="767.60">R71</text>
<circle cx="329.77" cy="180.12" r="10"/>
<text x="329.77" y="185.12">R72</text>
<circle cx="1264.08" cy="203.35" r="10"/>
<text x="1264.08" y="208.35">R73</text>
<circle cx="1454.53" cy="1201.56" r="10"/>
<text x="1454.53" y="1206.56">R74</text>
<circle cx="1225.20" cy="1847.12" r="10"/>
<text x="1225.20" y="1852.12">R75</text>
<circle cx="136.31" cy="1278.19" r="10"/>
<text x="136.31" y="1283.19">R76</text>
<circle cx="3.74" cy="1077.26" r="10"/>
<text x="3.74" y="1082.26">R77</text>
<circle cx="1124.50" cy="488.16" r="10"/>
<text x="1124.50" y="493.16">R78</text>
<circle cx="1078.71" cy="1152.76" r="10"/>
<text x="1078.71" y="1157.76">R79</text>
<circle cx="1696.86" cy="1941.10" r="10"/>
<text x="1696.86" y="1946.10">R80</text>
<circle cx="1903.98" cy="1760.25" r="10"/>
<text x="1903.98" y="1765.25">R81</text>
<circle cx="1700.63" cy="295.55" r="10"/>
<text x="1700.63" y="300.55">R82</text>
<circle cx="755.11" cy="1582.83" r="10"/>
<text x="755.11" y="1587.83">R83</text>
<circle cx="941.37" cy="982.34" r="10"/>
<text x="941.37" y="987.34">R84</text>
<circle cx="144.61" cy="1002.14" r="10"/>
<text x="144.61" y="1007.14">R85</text>
<circle cx="1398.68" cy="944.25" r="10"/>
<text x="1398.68" y="949.25">R86</text>
<circle cx="693.71" cy="76.37" r="10"/>
<text x="693.71" y="81.37">R87</text>
<circle cx="1284.29" cy="230.77" r="10"/>
<text x="1284.29" y="235.77">R88</text>
<circle cx="1393.53" cy="534.37" r="10"/>
<text x="1393.53" y="539.37">R89</text>
<circle cx="1357.45" cy="1229.96" r="10"/>
<text x="1357.45" y="1234.96">R90</text>
<circle cx="1259.14" cy="2052.43" r="10"/>
<text x="1259.14" y="2057.43">R91</text>
<circle cx="92.80" cy="888.94" r="10"/>
<text x="92.80" y="893.94">R92</text>
<circle cx="596.56" cy="639.37" r="10"/>
<text x="596.56" y="644.37">R93</text>
<circle cx="940.09" cy="1504.17" r="10"/>
<text x="940.09" y="1509.17">R94</text>
<circle cx="532.99" cy="1329.17" r="10"/>
<text x="532.99" y="1334.17">R95</text>
<circle cx="602.61" cy="1286.62" r="10"/>
<text x="602.61" y="1291.62">R96</text>
<circle cx="378.09" cy="1323.66" r="10"/>
<text x="378.09" y="1328.66">R97</text>
<circle cx="2036.78" cy="1378.58" r="10"/>
<text x="2036.78" y="1383.58">R98</text>
<circle cx="2053.09" cy="1590.93" r="10"/>
<text x="2053.09" y="1595.93">R99</text>
<circle cx="667.61" cy="427.61" r="10"/>
<text x="667.61" y="432.61">R100</text>
<circle cx="593.02" cy="682.23" r="10"/>
<text x="593.02" y="687.23">R101</text>
<circle cx="533.54" cy="217.75" r="10"/>
<text x="533.54" y="222.75">R102</text>
<circle cx="274.48" cy="1581.55" r="10"/>
<text x="274.48" y="1586.55">R103</text>
<circle cx="152.48" cy="25.75" r="10"/>
<text x="152.48" y="30.75">R104</text>
<circle cx="95.64" cy="1399.47" r="10"/>
<text x="95.64" y="1404.47">R105</text>
<circle cx="1673.89" cy="1111.02" r="10"/>
<text x="1673.89" y="1116.02">R106</text>
<circle cx="1621.59" cy="949.24" r="10"/>
<text x="1621.59" y="954.24">R107</text>
<circle cx="1241.31" cy="496.10" r="10"/>
<text x="1241.31" y="501.10">R108</text>
<circle cx="1080.43" cy="1674.51" r="10"/>
<text x="1080.43" y="1679.51">R109</text>
<circle cx="1009.18" cy="1017.85" r="10"/>
<text x="1009.18" y="1022.85">R110</text>
<circle cx="664.13" cy="1419.99" r="10"/>
<text x="664.13" y="1424.99">R111</text>
<circle cx="825.41" cy="1482.17" r="10"/>
<text x="825.41" y="1487.17">R112</text>
<circle cx="443.81" cy="1956.69" r="10"/>
<text x="443.81" y="1961.69">R113</text>
<circle cx="1769.98" cy="916.38" r="10"/>
<text x="1769.98" y="921.38">R114</text>
<circle cx="1778.20" cy="1799.41" r="10"/>
<text x="1778.20" y="1804.41">R115</text>
<circle cx="425.24" cy="265.78" r="10"/>
<text x="425.24" y="270.78">R116</text>
<circle cx="540.12" cy="741.31" r="10"/>
<text x="540.12" y="746.31">R117</text>
<circle cx="1110.65" cy="1404.87" r="10"/>
<text x="1110.65" y="1409.87">R118</text>
<circle cx="822.50" cy="449.36" r="10"/>
<text x="822.50" y="454.36">R119</text>
<circle cx="652.29" cy="1481.18" r="10"/>
<text x="652.29" y="1486.18">R120</text>
<circle cx="1504.33" cy="212.49" r="10"/>
<text x="1504.33" y="217.49">R121</text>
<circle cx="1260.96" cy="1842.04" r="10"/>
<text x="1260.96" y="1847.04">R122</text>
<circle cx="230.33" cy="1044.03" r="10"/>
<text x="230.33" y="1049.03">R123</text>
<circle cx="1832.90" cy="1692.77" r="10"/>
<text x="1832.90" y="1697.77">R124</text>
<circle cx="1327.59" cy="1158.30" r="10"/>
<text x="1327.59" y="1163.30">R125</text>
<circle cx="180.51" cy="1987.78" r="10"/>
<text x="180.51" y="1992.78">R126</text>
<circle cx="1196.05" cy="61.92" r="10"/>
<text x="1196.05" y="66.92">R127</text>
<circle cx="1449.43" cy="338.91" r="10"/>
<text x="1449.43" y="343.91">R128</text>
<circle cx="1178.06" cy="1738.65" r="10"/>
<text x="1178.06" y="1743.65">R129</text>
<circle cx="114.46" cy="1355.10" r="10"/>
<text x="114.46" y="1360.10">R130</text>
<circle cx="304.05" cy="664.57" r="10"/>
<text x="304.05" y="669.57">R131</text>
<circle cx="466.07" cy="1378.33" r="10"/>
<text x="466.07" y="1383.33">R132</text>
<circle cx="1512.02" cy="1696.06" r="10"/>
<text x="1512.02" y="1701.06">R133</text>
<circle cx="408.04" cy="1204.66" r="10"/>
<text x="408.04" y="1209.66">R134</text>
<circle cx="227.69" cy="2050.15" r="10"/>
<text x="227.69" y="2055.15">R135</text>
<circle cx="1745.79" cy="1599.30" r="10"/>
<text x="1745.79" y="1604.30">R136</text>
<circle cx="359.20" cy="361.33" r="10"/>
<text x="359.20" y="366.33">R137</text>
<circle cx="1023.24" cy="635.54" r="10"/>
<text x="1023.24" y="640.54">R138</text>
<circle cx="409.16" cy="96.09" r="10"/>
<text x="409.16" y="101.09">R139</text>
<circle cx="848.54" cy="1816.13" r="10"/>
<text x="848.54" y="1821.13">R140</text>
<circle cx="1846.24" cy="780.37" r="10"/>
<text x="1846.24" y="785.37">R141</text>
<circle cx="1424.09" cy="1631.06" r="10"/>
<text x="1424.09" y="1636.06">R142</text>
<circle cx="1395.57" cy="1007.74" r="10"/>
<text x="1395.57" y="1012.74">R143</text>
<circle cx="1191.13" cy="211.44" r="10"/>
<text x="1191.13" y="216.44">R144</text>
<circle cx="240.67" cy="225.48" r="10"/>
<text x="240.67" y="230.48">R145</text>
<circle cx="1673.71" cy="55.27" r="10"/>
<text x="1673.71" y="60.27">R146</text>
<circle cx="672.49" cy="1200.81" r="10"/>
<text x="672.49" y="1205.81">R147</text>
<circle cx="383.36" cy="2055.86" r="10"/>
<text x="383.36" y="2060.86">R148</text>
<circle cx="377.04" cy="1607.47" r="10"/>
<text x="377.04" y="1612.47">R149</text>
<circle cx="224.06" cy="1102.93" r="10"/>
<text x="224.06" y="1107.93">R150</text>
<circle cx="1705.25" cy="1606.95" r="10"/>
<text x="1705.25" y="1611.95">R151</text>
<circle cx="1170.81" cy="1269.87" r="10"/>
<text x="1170.81" y="1274.87">R152</text>
<circle cx="2061.11" cy="1848.02" r="10"/>
<text x="2061.11" y="1853.02">R153</text>
<circle cx="824.59" cy="1325.93" r="10"/>
<text x="824.59" y="1330.93">R154</text>
<circle cx="1922.49" cy="1840.86" r="10"/>
<text x="1922.49" y="1845.86">R155</text>
<circle cx="1334.65" cy="839.19" r="10"/>
<text x="1334.65" y="844.19">R156</text>
<circle cx="1150.43" cy="910.15" r="10"/>
<text x="1150.43" y="915.15">R157</text>
<circle cx="349.70" cy="599.40" r="10"/>
<text x="349.70" y="604.40">R158</text>
<circle cx="1131.03" cy="815.67" r="10"/>
<text x="1131.03" y="820.67">R159</text>
<circle cx="1783.36" cy="1398.75" r="10"/>
<text x="1783.36" y="1403.75">R160</text>
<circle cx="1339.58" cy="157.53" r="10"/>
<text x="1339.58" y="162.53">R161</text>
<circle cx="826.38" cy="1978.89" r="10"/>
<text x="826.38" y="1983.89">R162</text>
<circle cx="1806.49" cy="1708.99" r="10"/>
<text x="1806.49" y="1713.99">R163</text>
<circle cx="305.38" cy="1421.62" r="10"/>
<text x="305.38" y="1426.62">R164</text>
<circle cx="283.92" cy="1541.41" r="10"/>
<text x="283.92" y="1546.41">R165</text>
<circle cx="1531.44" cy="241.92" r="10"/>
<text x="1531.44" y="246.92">R166</text>
<circle cx="1866.71" cy="1990.48" r="10"/>
<text x="1866.71" y="1995.48">R167</text>
<circle cx="1608.42" cy="1511.18" r="10"/>
<text x="1608.42" y="1516.18">R168</text>
<circle cx="1460.01" cy="919.02" r="10"/>
<text x="1460.01" y="924.02">R169</text>
<circle cx="1408.91" cy="1154.47" r="10"/>
<text x="1408.91" y="1159.47">R170</text>
<circle cx="829.13" cy="715.18" r="10"/>
<text x="829.13" y="720.18">R171</text>
<circle cx="1546.54" cy="810.04" r="10"/>
<text x="1546.54" y="815.04">R172</text>
<circle cx="6.92" cy="80.15" r="10"/>
<text x="6.92" y="85.15">R173</text>
<circle cx="542.67" cy="1579.05" r="10"/>
<text x="542.67" y="1584.05">R174</text>
<circle cx="878.98" cy="1801.99" r="10"/>
<text x="878.98" y="1806.99">R175</text>
<circle cx="1957.83" cy="279.82" r="10"/>
<text x="1957.83" y="284.82">R176</text>
<circle cx="1875.31" cy="286.84" r="10"/>
<text x="1875.31" y="291.84">R177</text>
<circle cx="1681.24" cy="262.62" r="10"/>
<text x="1681.24" y="267.62">R178</text>
<circle cx="1838.28" cy="222.66" r="10"/>
<text x="1838.28" y="227.66">R179</text>
<circle cx="710.34" cy="1016.97" r="10"/>
<text x="710.34" y="1021.97">R180</text>
<circle cx="1315.04" cy="2048.71" r="10"/>
<text x="1315.04" y="2053.71">R181</text>
<circle cx="620.92" cy="1551.99" r="10"/>
<text x="620.92" y="1556.99">R182</text>
<circle cx="116.59" cy="1731.75" r="10"/>
<text x="116.59" y="1736.75">R183</text>
<circle cx="1599.83" cy="1099.01" r="10"/>
<text x="1599.83" y="1104.01">R184</text>
<circle cx="950.82" cy="1052.59" r="10"/>
<text x="950.82" y="1057.59">R185</text>
<circle cx="1963.58" cy="790.61" r="10"/>
<text x="1963.58" y="795.61">R186</text>
<circle cx="821.66" cy="1161.21" r="10"/>
<text x="821.66" y="1166.21">R187</text>
<circle cx="1211.12" cy="535.17" r="10"/>
<text x="1211.12" y="540.17">R188</text>
<circle cx="814.13" cy="1610.40" r="10"/>
<text x="814.13" y="1615.40">R189</text>
<circle cx="1465.16" cy="16.19" r="10"/>
<text x="1465.16" y="21.19">R190</text>
<circle cx="1836.86" cy="1824.77" r="10"/>
<text x="1836.86" y="1829.77">R191</text>
<circle cx="637.26" cy="1604.39" r="10"/>
<text x="637.26" y="1609.39">R192</text>
<circle cx="1931.25" cy="1189.88" r="10"/>
<text x="1931.25" y="1194.88">R193</text>
<circle cx="1763.29" cy="1989.38" r="10"/>
<text x="1763.29" y="1994.38">R194</text>
<circle cx="331.67" cy="1209.18" r="10"/>
<text x="331.67" y="1214.18">R195</text>
<circle cx="621.08" cy="223.92" r="10"/>
<text x="621.08" y="228.92">R196</text>
<circle cx="2017.04" cy="1138.59" r="10"/>
<text x="2017.04" y="1143.59">R197</text>
<circle cx="15.24" cy="866.65" r="10"/>
<text x="15.24" y="871.65">R198</text>
<circle cx="446.02" cy="692.26" r="10"/>
<text x="446.02" y="697.26">R199</text>
<circle cx="1749.28" cy="347.38" r="10"/>
<text x="1749.28" y="352.38">R200</text>
<circle cx="548.17" cy="1168.07" r="10"/>
<text x="548.17" y="1173.07">R201</text>
<circle cx="1592.67" cy="528.73" r="10"/>
<text x="1592.67" y="533.73">R202</text>
<circle cx="288.11" cy="118.61" r="10"/>
<text x="288.11" y="123.61">R203</text>
<circle cx="276.48" cy="982.28" r="10"/>
<text x="276.48" y="987.28">R204</text>
<circle cx="834.51" cy="1374.42" r="10"/>
<text x="834.51" y="1379.42">R205</text>
<circle cx="1558.76" cy="1975.57" r="10"/>
<text x="1558.76" y="1980.57">R206</text>
<circle cx="496.64" cy="239.45" r="10"/>
<text x="496.64" y="244.45">R207</text>
<circle cx="58.67" cy="1420.14" r="10"/>
<text x="58.67" y="1425.14">R208</text>
<circle cx="265.54" cy="787.67" r="10"/>
<text x="265.54" y="792.67">R209</text>
<circle cx="184.49" cy="1531.17" r="10"/>
<text x="184.49" y="1536.17">R210</text>
<circle cx="1394.23" cy="56.77" r="10"/>
<text x="1394.23" y="61.77">R211</text>
<circle cx="614.03" cy="289.60" r="10"/>
<text x="614.03" y="294.60">R212</text>
<circle cx="1012.51" cy="1292.46" r="10"/>
<text x="1012.51" y="1297.46">R213</text>
<circle cx="1697.27" cy="476.34" r="10"/>
<text x="1697.27" y="481.34">R214</text>
<circle cx="316.55" cy="970.61" r="10"/>
<text x="316.55" y="975.61">R215</text>
<circle cx="1211.53" cy="833.40" r="10"/>
<text x="1211.53" y="838.40">R216</text>
<circle cx="1115.98" cy="533.59" r="10"/>
<text x="1115.98" y="538.59">R217</text>
<circle cx="403.06" cy="1881.72" r="10"/>
<text x="403.06" y="1886.72">R218</text>
<circle cx="928.40" cy="1317.92" r="10"/>
<text x="928.40" y="1322.92">R219</text>
<circle cx="1836.52" cy="483.06" r="10"/>
<text x="1836.52" y="488.06">R220</text>
<circle cx="499.36" cy="1282.73" r="10"/>
<text x="499.36" y="1287.73">R221</text>
<circle cx="1508.39" cy="732.43" r="10"/>
<text x="1508.39" y="737.43">R222</text>
<circle cx="79.15" cy="177.15" r="10"/>
<text x="79.15" y="182.15">R223</text>
<circle cx="1456.04" cy="245.29" r="10"/>
<text x="1456.04" y="250.29">R224</text>
<circle cx="2032.15" cy="172.48" r="10"/>
<text x="2032.15" y="177.48">R225</text>
<circle cx="440.09" cy="1102.59" r="10"/>
<text x="440.09" y="1107.59">R226</text>
<circle cx="230.14" cy="97.83" r="10"/>
<text x="230.14" y="102.83">R227</text>
<circle cx="522.59" cy="1900.98" r="10"/>
<text x="522.59" y="1905.98">R228</text>
<circle cx="769.60" cy="1243.68" r="10"/>
<text x="769.60" y="1248.68">R229</text>
<circle cx="667.99" cy="93.91" r="10"/>
<text x="667.99" y="98.91">R230</text>
<circle cx="682.94" cy="562.80" r="10"/>
<text x="682.94" y="567.80">R231</text>
<circle cx="368.41" cy="424.92" r="10"/>
<text x="368.41" y="429.92">R232</text>
<circle cx="1684.62" cy="333.79" r="10"/>
<text x="1684.62" y="338.79">R233</text>
<circle cx="1112.02" cy="1792.64" r="10"/>
<text x="1112.02" y="1797.64">R234</text>
<circle cx="1410.43" cy="403.69" r="10"/>
<text x="1410.43" y="408.69">R235</text>
<circle cx="1259.65" cy="584.82" r="10"/>
<text x="1259.65" y="589.82">R236</text>
<circle cx="443.55" cy="440.08" r="10"/>
<text x="443.55" y="445.08">R237</text>
<circle cx="656.45" cy="57.72" r="10"/>
<text x="656.45" y="62.72">R238</text>
<circle cx="1036.83" cy="1628.58" r="10"/>
<text x="1036.83" y="1633.58">R239</text>
<circle cx="650.14" cy="377.18" r="10"/>
<text x="650.14" y="382.18">R240</text>
<circle cx="335.33" cy="1914.64" r="10"/>
<text x="335.33" y="1919.64">R241</text>
<circle cx="277.42" cy="490.28" r="10"/>
<text x="277.42" y="495.28">R242</text>
<circle cx="1811.44" cy="940.97" r="10"/>
<text x="1811.44" y="945.97">R243</text>
<circle cx="986.59" cy="1333.93" r="10"/>
<text x="986.59" y="1338.93">R244</text>
<circle cx="636.23" cy="518.93" r="10"/>
<text x="636.23" y="523.93">R245</text>
<circle cx="254.53" cy="2002.02" r="10"/>
<text x="254.53" y="2007.02">R246</text>
<circle cx="1227.96" cy="627.07" r="10"/>
<text x="1227.96" y="632.07">R247</text>
<circle cx="1995.97" cy="627.48" r="10"/>
<text x="1995.97" y="632.48">R248</text>
<circle cx="1838.28" cy="366.91" r="10"/>
<text x="1838.28" y="371.91">R249</text>
<circle cx="971.57" cy="927.72" r="10"/>
<text x="971.57" y="932.72">R250</text>
<circle cx="1379.03" cy="481.08" r="10"/>
<text x="1379.03" y="486.08">R251</text>
<circle cx="586.77" cy="341.71" r="10"/>
<text x="586.77" y="346.71">R252</text>
<circle cx="1334.55" cy="255.83" r="10"/>
<text x="1334.55" y="260.83">R253</text>
<circle cx="73.99" cy="1795.21" r="10"/>
<text x="73.99" y="1800.21">R254</text>
<circle cx="573.73" cy="416.34" r="10"/>
<text x="573.73" y="421.34">R255</text>
<circle cx="916.93" cy="1257.52" r="10"/>
<text x="916.93" y="1262.52">R256</text>
<circle cx="987.25" cy="1591.89" r="10"/>
<text x="987.25" y="1596.89">R257</text>
<circle cx="2012.05" cy="1558.32" r="10"/>
<text x="2012.05" y="1563.32">R258</text>
<circle cx="867.61" cy="468.58" r="10"/>
<text x="867.61" y="473.58">R259</text>
<circle cx="73.42" cy="987.56" r="10"/>
<text x="73.42" y="992.56">R260</text>
<circle cx="799.80" cy="1967.30" r="10"/>
<text x="799.80" y="1972.30">R261</text>
<circle cx="1604.30" cy="202.29" r="10"/>
<text x="1604.30" y="207.29">R262</text>
<circle cx="1755.15" cy="191.40" r="10"/>
<text x="1755.15" y="196.40">R263</text>
<circle cx="618.97" cy="1830.06" r="10"/>
<text x="618.97" y="1835.06">R264</text>
<circle cx="1762.29" cy="143.99" r="10"/>
<text x="1762.29" y="148.99">R265</text>
<circle cx="611.66" cy="1997.44" r="10"/>
<text x="611.66" y="2002.44">R266</text>
<circle cx="83.58" cy="720.91" r="10"/>
<text x="83.58" y="725.91">R267</text>
<circle cx="190.44" cy="1863.34" r="10"/>
<text x="190.44" y="1868.34">R268</text>
<circle cx="61.34" cy="817.51" r="10"/>
<text x="61.34" y="822.51">R269</text>
<circle cx="552.36" cy="707.70" r="10"/>
<text x="552.36" y="712.70">R270</text>
<circle cx="707.15" cy="797.48" r="10"/>
<text x="707.15" y="802.48">R271</text>
<circle cx="279.59" cy="1897.72" r="10"/>
<text x="279.59" y="1902.72">R272</text>
<circle cx="489.96" cy="2042.24" r="10"/>
<text x="489.96" y="2047.24">R273</text>
<circle cx="1854.72" cy="1723.45" r="10"/>
<text x="1854.72" y="1728.45">R274</text>
<circle cx="250.72" cy="1923.91" r="10"/>
<text x="250.72" y="1928.91">R275</text>
<circle cx="1468.77" cy="1847.85" r="10"/>
<text x="1468.77" y="1852.85">R276</text>
<circle cx="106.01" cy="1827.23" r="10"/>
<text x="106.01" y="1832.23">R277</text>
<circle cx="1914.99" cy="646.43" r="10"/>
<text x="1914.99" y="651.43">R278</text>
<circle cx="458.20" cy="1543.54" r="10"/>
<text x="458.20" y="1548.54">R279</text>
<circle cx="1966.77" cy="819.82" r="10"/>
<text x="1966.77" y="824.82">R280</text>
<circle cx="1067.81" cy="229.35" r="10"/>
<text x="1067.81" y="234.35">R281</text>
<circle cx="386.22" cy="1641.98" r="10"/>
<text x="386.22" y="1646.98">R282</text>
<circle cx="1810.44" cy="193.56" r="10"/>
<text x="1810.44" y="198.56">R283</text>
<circle cx="673.09" cy="1863.34" r="10"/>
<text x="673.09" y="1868.34">R284</text>
<circle cx="1763.43" cy="1117.72" r="10"/>
<text x="1763.43" y="1122.72">R285</text>
<circle cx="197.27" cy="550.45" r="10"/>
<text x="197.27" y="555.45">R286</text>
<circle cx="1253.42" cy="1698.39" r="10"/>
<text x="1253.42" y="1703.39">R287</text>
<circle cx="2050.45" cy="1766.76" r="10"/>
<text x="2050.45" y="1771.76">R288</text>
<circle cx="1128.95" cy="192.48" r="10"/>
<text x="1128.95" y="197.48">R289</text>
<circle cx="487.44" cy="1916.72" r="10"/>
<text x="487.44" y="1921.72">R290</text>
<circle cx="39.90" cy="861.91" r="10"/>
<text x="39.90" y="866.91">R291</text>
<circle cx="182.66" cy="926.84" r="10"/>
<text x="182.66" y="931.84">R292</text>
<circle cx="1243.06" cy="382.90" r="10"/>
<text x="1243.06" y="387.90">R293</text>
<circle cx="1878.34" cy="1010.47" r="10"/>
<text x="1878.34" y="1015.47">R294</text>
<circle cx="1966.93" cy="338.48" r="10"/>
<text x="1966.93" y="343.48">R295</text>
<circle cx="1342.94" cy="231.86" r="10"/>
<text x="1342.94" y="236.86">R296</text>
<circle cx="122.26" cy="797.37" r="10"/>
<text x="122.26" y="802.37">R297</text>
<circle cx="966.13" cy="637.61" r="10"/>
<text x="966.13" y="642.61">R298</text>
<circle cx="1888.53" cy="586.57" r="10"/>
<text x="1888.53" y="591.57">R299</text>
<circle cx="1503.00" cy="922.73" r="10"/>
<text x="1503.00" y="927.73">R300</text>
<circle cx="1710.47" cy="962.42" r="10"/>
<text x="1710.47" y="967.42">R301</text>
<circle cx="492.87" cy="174.01" r="10"/>
<text x="492.87" y="179.01">R302</text>
<circle cx="2011.93" cy="59.50" r="10"/>
<text x="2011.93" y="64.50">R303</text>
<circle cx="334.23" cy="415.39" r="10"/>
<text x="334.23" y="420.39">R304</text>
<circle cx="134.77" cy="1587.02" r="10"/>
<text x="134.77" y="1592.02">R305</text>
<circle cx="1056.31" cy="2000.10" r="10"/>
<text x="1056.31" y="2005.10">R306</text>
<circle cx="1509.82" cy="1414.33" r="10"/>
<text x="1509.82" y="1419.33">R307</text>
<circle cx="1165.99" cy="884.36" r="10"/>
<text x="1165.99" y="889.36">R308</text>
<circle cx="1023.01" cy="1132.37" r="10"/>
<text x="1023.01" y="1137.37">R309</text>
<circle cx="196.59" cy="988.33" r="10"/>
<text x="196.59" y="993.33">R310</text>
<circle cx="284.23" cy="1704.70" r="10"/>
<text x="284.23" y="1709.70">R311</text>
<circle cx="646.60" cy="1934.43" r="10"/>
<text x="646.60" y="1939.43">R312</text>
<circle cx="806.38" cy="2050.10" r="10"/>
<text x="806.38" y="2055.10">R313</text>
<circle cx="776.41" cy="1470.85" r="10"/>
<text x="776.41" y="1475.85">R314</text>
<circle cx="102.11" cy="960.24" r="10"/>
<text x="102.11" y="965.24">R315</text>
<circle cx="1706.81" cy="521.57" r="10"/>
<text x="1706.81" y="526.57">R316</text>
<circle cx="751.03" cy="1609.12" r="10"/>
<text x="751.03" y="1614.12">R317</text>
<circle cx="1183.17" cy="1135.36" r="10"/>
<text x="1183.17" y="1140.36">R318</text>
<circle cx="1391.35" cy="1536.73" r="10"/>
<text x="1391.35" y="1541.73">R319</text>
<circle cx="1597.41" cy="36.01" r="10"/>
<text x="1597.41" y="41.01">R320</text>
<circle cx="1312.58" cy="1677.04" r="10"/>
<text x="1312.58" y="1682.04">R321</text>
<circle cx="1109.68" cy="871.45" r="10"/>
<text x="1109.68" y="876.45">R322</text>
<circle cx="700.82" cy="1058.41" r="10"/>
<text x="700.82" y="1063.41">R323</text>
<circle cx="831.04" cy="484.68" r="10"/>
<text x="831.04" y="489.68">R324</text>
<circle cx="372.99" cy="1881.94" r="10"/>
<text x="372.99" y="1886.94">R325</text>
<circle cx="1589.91" cy="1990.15" r="10"/>
<text x="1589.91" y="1995.15">R326</text>
<circle cx="1987.81" cy="1054.49" r="10"/>
<text x="1987.81" y="1059.49">R327</text>
<circle cx="1137.06" cy="1650.65" r="10"/>
<text x="1137.06" y="1655.65">R328</text>
<circle cx="110.27" cy="1618.91" r="10"/>
<text x="110.27" y="1623.91">R329</text>
<circle cx="1250.18" cy="1787.44" r="10"/>
<text x="1250.18" y="1792.44">R330</text>
<circle cx="989.22" cy="790.41" r="10"/>
<text x="989.22" y="795.41">R331</text>
<circle cx="292.41" cy="1373.37" r="10"/>
<text x="292.41" y="1378.37">R332</text>
<circle cx="981.08" cy="724.86" r="10"/>
<text x="981.08" y="729.86">R333</text>
<circle cx="811.50" cy="97.93" r="10"/>
<text x="811.50" y="102.93">R334</text>
<circle cx="520.34" cy="1503.70" r="10"/>
<text x="520.34" y="1508.70">R335</text>
<circle cx="397.94" cy="189.06" r="10"/>
<text x="397.94" y="194.06">R336</text>
<circle cx="1734.27" cy="700.40" r="10"/>
<text x="1734.27" y="705.40">R337</text>
<circle cx="124.37" cy="1937.50" r="10"/>
<text x="124.37" y="1942.50">R338</text>
<circle cx="1615.67" cy="1826.68" r="10"/>
<text x="1615.67" y="1831.68">R339</text>
<circle cx="450.90" cy="1035.05" r="10"/>
<text x="450.90" y="1040.05">R340</text>
<circle cx="487.93" cy="1858.38" r="10"/>
<text x="487.93" y="1863.38">R341</text>
<circle cx="1503.39" cy="240.82" r="10"/>
<text x="1503.39" y="245.82">R342</text>
<circle cx="46.64" cy="184.23" r="10"/>
<text x="46.64" y="189.23">R343</text>
<circle cx="1687.74" cy="1048.01" r="10"/>
<text x="1687.74" y="1053.01">R344</text>
<circle cx="679.41" cy="1242.76" r="10"/>
<text x="679.41" y="1247.76">R345</text>
<circle cx="1677.21" cy="850.22" r="10"/>
<text x="1677.21" y="855.22">R346</text>
<circle cx="1346.51" cy="864.75" r="10"/>
<text x="1346.51" y="869.75">R347</text>
<circle cx="1254.20" cy="846.08" r="10"/>
<text x="1254.20" y="851.08">R348</text>
<circle cx="1673.16" cy="1608.45" r="10"/>
<text x="1673.16" y="1613.45">R349</text>
<circle cx="909.06" cy="534.25" r="10"/>
<text x="909.06" y="539.25">R350</text>
<circle cx="1965.63" cy="1658.48" r="10"/>
<text x="1965.63" y="1663.48">R351</text>
<circle cx="54.14" cy="1936.63" r="10"/>
<text x="54.14" y="1941.63">R352</text>
<circle cx="1475.98" cy="680.93" r="10"/>
<text x="1475.98" y="685.93">R353</text>
<circle cx="1186.61" cy="1449.54" r="10"/>
<text x="1186.61" y="1454.54">R354</text>
<circle cx="1214.35" cy="959.13" r="10"/>
<text x="1214.35" y="964.13">R355</text>
<circle cx="1539.63" cy="736.97" r="10"/>
<text x="1539.63" y="741.97">R356</text>
<circle cx="1094.38" cy="1845.16" r="10"/>
<text x="1094.38" y="1850.16">R357</text>
<circle cx="1851.35" cy="1243.38" r="10"/>
<text x="1851.35" y="1248.38">R358</text>
<circle cx="1798.64" cy="1896.32" r="10"/>
<text x="1798.64" y="1901.32">R359</text>
<circle cx="265.69" cy="1340.00" r="10"/>
<text x="265.69" y="1345.00">R360</text>
<circle cx="1663.56" cy="701.61" r="10"/>
<text x="1663.56" y="706.61">R361</text>
<circle cx="579.03" cy="1692.60" r="10"/>
<text x="579.03" y="1697.60">R362</text>
<circle cx="1587.70" cy="1711.69" r="10"/>
<text x="1587.70" y="1716.69">R363</text>
<circle cx="762.46" cy="679.61" r="10"/>
<text x="762.46" y="684.61">R364</text>
<circle cx="1453.57" cy="1793.13" r="10"/>
<text x="1453.57" y="1798.13">R365</text>
<circle cx="954.53" cy="1713.18" r="10"/>
<text x="954.53" y="1718.18">R366</text>
<circle cx="384.80" cy="492.56" r="10"/>
<text x="384.80" y="497.56">R367</text>
<circle cx="801.73" cy="64.70" r="10"/>
<text x="801.73" y="69.70">R368</text>
<circle cx="1160.39" cy="104.38" r="10"/>
<text x="1160.39" y="109.38">R369</text>
<circle cx="1866.36" cy="1773.51" r="10"/>
<text x="1866.36" y="1778.51">R370</text>
<circle cx="1351.99" cy="1512.31" r="10"/>
<text x="1351.99" y="1517.31">R371</text>
<circle cx="1168.89" cy="132.31" r="10"/>
<text x="1168.89" y="137.31">R372</text>
<circle cx="667.93" cy="203.17" r="10"/>
<text x="667.93" y="208.17">R373</text>
<circle cx="1321.46" cy="2004.28" r="10"/>
<text x="1321.46" y="2009.28">R374</text>
<circle cx="831.28" cy="349.39" r="10"/>
<text x="831.28" y="354.39">R375</text>
<circle cx="880.75" cy="1599.46" r="10"/>
<text x="880.75" y="1604.46">R376</text>
<circle cx="291.31" cy="1678.01" r="10"/>
<text x="291.31" y="1683.01">R377</text>
<circle cx="1342.58" cy="774.64" r="10"/>
<text x="1342.58" y="779.64">R378</text>
<circle cx="1180.22" cy="687.49" r="10"/>
<text x="1180.22" y="692.49">R379</text>
<circle cx="791.62" cy="1674.73" r="10"/>
<text x="791.62" y="1679.73">R380</text>
<circle cx="704.50" cy="1558.93" r="10"/>
<text x="704.50" y="1563.93">R381</text>
<circle cx="122.03" cy="1114.17" r="10"/>
<text x="122.03" y="1119.17">R382</text>
<circle cx="1618.80" cy="423.03" r="10"/>
<text x="1618.80" y="428.03">R383</text>
<circle cx="1122.76" cy="1151.21" r="10"/>
<text x="1122.76" y="1156.21">R384</text>
<circle cx="1215.00" cy="1541.84" r="10"/>
<text x="1215.00" y="1546.84">R385</text>
<circle cx="1777.76" cy="1870.67" r="10"/>
<text x="1777.76" y="1875.67">R386</text>
<circle cx="1063.73" cy="1853.84" r="10"/>
<text x="1063.73" y="1858.84">R387</text>
<circle cx="114.63" cy="668.57" r="10"/>
<text x="114.63" y="673.57">R388</text>
<circle cx="1415.94" cy="575.83" r="10"/>
<text x="1415.94" y="580.83">R389</text>
<circle cx="114.20" cy="372.87" r="10"/>
<text x="114.20" y="377.87">R390</text>
<circle cx="598.06" cy="954.02" r="10"/>
<text x="598.06" y="959.02">R391</text>
<circle cx="318.06" cy="787.39" r="10"/>
<text x="318.06" y="792.39">R392</text>
<circle cx="1643.47" cy="2051.92" r="10"/>
<text x="1643.47" y="2056.92">R393</text>
<circle cx="1667.66" cy="1750.59" r="10"/>
<text x="1667.66" y="1755.59">R394</text>
<circle cx="1660.19" cy="1245.46" r="10"/>
<text x="1660.19" y="1250.46">R395</text>
<circle cx="1160.41" cy="519.68" r="10"/>
<text x="1160.41" y="524.68">R396</text>
<circle cx="928.79" cy="947.10" r="10"/>
<text x="928.79" y="952.10">R397</text>
<circle cx="1248.89" cy="1085.22" r="10"/>
<text x="1248.89" y="1090.22">R398</text>
<circle cx="547.60" cy="1992.25" r="10"/>
<text x="547.60" y="1997.25">R399</text>
<circle cx="444.17" cy="858.96" r="10"/>
<text x="444.17" y="863.96">R400</text>
<circle cx="1889.29" cy="1633.91" r="10"/>
<text x="1889.29" y="1638.91">R401</text>
<circle cx="1487.87" cy="1005.46" r="10"/>
<text x="1487.87" y="1010.46">R402</text>
<circle cx="713.79" cy="214.47" r="10"/>
<text x="713.79" y="219.47">R403</text>
<circle cx="1436.74" cy="1842.84" r="10"/>
<text x="1436.74" y="1847.84">R404</text>
<circle cx="1111.67" cy="1077.87" r="10"/>
<text x="1111.67" y="1082.87">R405</text>
<circle cx="901.72" cy="563.36" r="10"/>
<text x="901.72" y="568.36">R406</text>
<circle cx="1814.76" cy="539.05" r="10"/>
<text x="1814.76" y="544.05">R407</text>
<circle cx="1606.74" cy="2040.50" r="10"/>
<text x="1606.74" y="2045.50">R408</text>
<circle cx="1488.55" cy="530.20" r="10"/>
<text x="1488.55" y="535.20">R409</text>
<circle cx="484.39" cy="1602.79" r="10"/>
<text x="484.39" y="1607.79">R410</text>
<circle cx="1916.67" cy="1390.80" r="10"/>
<text x="1916.67" y="1395.80">R411</text>
<circle cx="1709.29" cy="561.21" r="10"/>
<text x="1709.29" y="566.21">R412</text>
<circle cx="428.93" cy="1572.67" r="10"/>
<text x="428.93" y="1577.67">R413</text>
<circle cx="1858.42" cy="1953.22" r="10"/>
<text x="1858.42" y="1958.22">R414</text>
<circle cx="462.33" cy="784.57" r="10"/>
<text x="462.33" y="789.57">R415</text>
<circle cx="427.43" cy="1406.95" r="10"/>
<text x="427.43" y="1411.95">R416</text>
<circle cx="2014.13" cy="93.22" r="10"/>
<text x="2014.13" y="98.22">R417</text>
<circle cx="2008.23" cy="1873.54" r="10"/>
<text x="2008.23" y="1878.54">R418</text>
<circle cx="1733.79" cy="978.68" r="10"/>
<text x="1733.79" y="983.68">R419</text>
<circle cx="872.25" cy="2012.78" r="10"/>
<text x="872.25" y="2017.78">R420</text>
<circle cx="1154.34" cy="948.29" r="10"/>
<text x="1154.34" y="953.29">R421</text>
<circle cx="357.12" cy="926.61" r="10"/>
<text x="357.12" y="931.61">R422</text>
<circle cx="42.25" cy="1386.93" r="10"/>
<text x="42.25" y="1391.93">R423</text>
<circle cx="1728.61" cy="8.71" r="10"/>
<text x="1728.61" y="13.71">R424</text>
</svg>
