<svg id="topo" width="2139.32" height="2139.09" viewBox="-44.11 -35.46 2139.32 2139.09" xmlns="http://www.w3.org/2000/svg">
<style>#topo path {fill: none; stroke: grey; stroke-width: 6;} #topo circle {fill: lightblue; stroke: none;} #topo text {fill: black; stroke: none; font-size: 16; font-family: sans-serif; text-anchor:middle;}</style>
<path d="M401.21,1421.43,435.59,1578.81"/>
<path d="M401.21,1421.43,345.67,1441.46"/>
<path d="M401.21,1421.43,425.32,1367.23"/>
<path d="M401.21,1421.43,497.93,1524.46"/>
<path d="M230.85,1810.26,224.28,1973.20"/>
<path d="M230.85,1810.26,341.08,1781.50"/>
<path d="M230.85,1810.26,378.86,1948.78"/>
<path d="M230.85,1810.26,269.87,1719.26"/>
<path d="M230.85,1810.26,74.27,1803.57"/>
<path d="M230.85,1810.26,93.74,1711.06"/>
<path d="M1019.92,292.76,952.33,324.35"/>
<path d="M1019.92,292.76,999.89,203.07"/>
<path d="M1019.92,292.76,1069.96,314.40"/>
<path d="M589.69,889.11,718.71,956.37"/>
<path d="M589.69,889.11,584.20,771.82"/>
<path d="M589.69,889.11,527.79,857.33"/>
<path d="M589.69,889.11,559.33,952.28"/>
<path d="M232.49,861.66,203.14,736.88"/>
<path d="M232.49,861.66,162.22,871.49"/>
<path d="M232.49,861.66,256.61,900.12"/>
<path d="M199.16,1978.62,224.28,1973.20"/>
<path d="M199.16,1978.62,219.57,1997.86"/>
<path d="M199.16,1978.62,127.42,2022.05"/>
<path d="M1979.72,9.54,2018.78,33.69"/>
<path d="M1979.72,9.54,1919.39,75.36"/>
<path d="M98.79,998.18,15.98,1008.26"/>
<path d="M98.79,998.18,119.77,1152.23"/>
<path d="M98.79,998.18,25.24,1046.00"/>
<path d="M98.79,998.18,156.11,979.80"/>
<path d="M1252.59,1276.11,1132.32,1214.79"/>
<path d="M1252.59,1276.11,1275.40,1318.87"/>
<path d="M1252.59,1276.11,1325.05,1225.83"/>
<path d="M1252.59,1276.11,1338.05,1283.33"/>
<path d="M1252.59,1276.11,1149.57,1349.15"/>
<path d="M1377.29,1731.49,1435.56,1725.58"/>
<path d="M1377.29,1731.49,1404.36,1680.71"/>
<path d="M1377.29,1731.49,1390.87,1769.43"/>
<path d="M1377.29,1731.49,1325.35,1722.15"/>
<path d="M1377.29,1731.49,1326.70,1758.89"/>
<path d="M854.16,1689.10,947.70,1696.68"/>
<path d="M854.16,1689.10,801.48,1779.87"/>
<path d="M854.16,1689.10,868.73,1610.32"/>
<path d="M854.16,1689.10,733.88,1625.13"/>
<path d="M1618.15,351.94,1836.84,268.32"/>
<path d="M1618.15,351.94,1600.37,279.48"/>
<path d="M1618.15,351.94,1597.30,392.49"/>
<path d="M1618.15,351.94,1576.61,367.73"/>
<path d="M619.63,1720.86,579.85,1777.14"/>
<path d="M619.63,1720.86,763.80,1801.66"/>
<path d="M619.63,1720.86,614.75,1690.39"/>
<path d="M1980.52,750.21,1895.69,782.89"/>
<path d="M1980.52,750.21,2048.89,735.63"/>
<path d="M1980.52,750.21,1964.46,640.98"/>
<path d="M2020.46,1727.39,2026.67,1693.42"/>
<path d="M2020.46,1727.39,1880.33,1764.68"/>
<path d="M2020.46,1727.39,2038.07,1750.51"/>
<path d="M204.90,1002.15,295.00,1008.04"/>
<path d="M204.90,1002.15,196.40,1096.06"/>
<path d="M204.90,1002.15,156.11,979.80"/>
<path d="M204.90,1002.15,256.61,900.12"/>
<path d="M673.56,486.04,715.73,503.81"/>
<path d="M673.56,486.04,484.23,468.35"/>
<path d="M673.56,486.04,669.70,390.22"/>
<path d="M673.56,486.04,747.23,412.32"/>
<path d="M888.63,1039.30,868.54,990.75"/>
<path d="M888.63,1039.30,908.23,1101.94"/>
<path d="M649.21,1421.54,572.00,1430.70"/>
<path d="M649.21,1421.54,735.78,1359.61"/>
<path d="M649.21,1421.54,577.33,1388.72"/>
<path d="M649.21,1421.54,775.07,1488.14"/>
<path d="M649.21,1421.54,652.43,1500.64"/>
<path d="M1687.53,922.43,1757.97,1025.64"/>
<path d="M1687.53,922.43,1637.32,893.70"/>
<path d="M1687.53,922.43,1847.52,896.33"/>
<path d="M1687.53,922.43,1856.46,956.76"/>
<path d="M1687.53,922.43,1706.44,796.81"/>
<path d="M1687.53,922.43,1768.75,813.59"/>
<path d="M1687.53,922.43,1642.54,1057.07"/>
<path d="M988.18,1353.43,1005.84,1268.32"/>
<path d="M988.18,1353.43,939.40,1420.35"/>
<path d="M988.18,1353.43,817.72,1241.71"/>
<path d="M988.18,1353.43,1146.33,1452.08"/>
<path d="M988.18,1353.43,1149.57,1349.15"/>
<path d="M988.18,1353.43,922.15,1401.34"/>
<path d="M0.89,1551.64,48.00,1592.33"/>
<path d="M0.89,1551.64,17.35,1420.12"/>
<path d="M0.89,1551.64,72.85,1530.10"/>
<path d="M1364.85,1477.43,1420.76,1441.29"/>
<path d="M1364.85,1477.43,1278.74,1522.88"/>
<path d="M1364.85,1477.43,1331.51,1429.62"/>
<path d="M1364.85,1477.43,1421.57,1524.60"/>
<path d="M2011.30,1981.97,2011.24,1902.77"/>
<path d="M2011.30,1981.97,2020.19,2011.82"/>
<path d="M2011.30,1981.97,1905.58,1936.53"/>
<path d="M1832.75,1232.35,1844.13,1278.21"/>
<path d="M1832.75,1232.35,1814.53,1184.47"/>
<path d="M2011.80,2050.24,2020.19,2011.82"/>
<path d="M2011.80,2050.24,1989.39,2023.97"/>
<path d="M2050.22,68.39,1969.01,239.61"/>
<path d="M2050.22,68.39,2018.78,33.69"/>
<path d="M579.85,1777.14,456.16,1732.25"/>
<path d="M579.85,1777.14,503.68,1840.18"/>
<path d="M579.85,1777.14,573.16,1689.99"/>
<path d="M203.14,736.88,361.93,824.96"/>
<path d="M203.14,736.88,331.40,675.16"/>
<path d="M203.14,736.88,46.70,731.83"/>
<path d="M203.14,736.88,162.22,871.49"/>
<path d="M203.14,736.88,181.38,630.08"/>
<path d="M715.73,503.81,726.67,580.59"/>
<path d="M715.73,503.81,758.19,501.76"/>
<path d="M715.73,503.81,747.23,412.32"/>
<path d="M1836.84,268.32,1838.46,164.89"/>
<path d="M1836.84,268.32,1969.01,239.61"/>
<path d="M1836.84,268.32,1600.37,279.48"/>
<path d="M1836.84,268.32,1609.41,194.64"/>
<path d="M1836.84,268.32,1878.90,327.84"/>
<path d="M329.97,1241.90,277.52,1194.60"/>
<path d="M329.97,1241.90,456.91,1161.26"/>
<path d="M329.97,1241.90,448.11,1301.40"/>
<path d="M329.97,1241.90,300.43,1260.80"/>
<path d="M385.17,1796.01,391.67,1770.21"/>
<path d="M385.17,1796.01,419.69,1814.96"/>
<path d="M385.17,1796.01,341.08,1781.50"/>
<path d="M152.51,1551.32,214.58,1653.82"/>
<path d="M152.51,1551.32,255.08,1583.11"/>
<path d="M152.51,1551.32,109.17,1568.22"/>
<path d="M152.51,1551.32,150.67,1424.33"/>
<path d="M1911.31,1593.33,1978.81,1636.77"/>
<path d="M1911.31,1593.33,1772.23,1614.93"/>
<path d="M1911.31,1593.33,2020.39,1500.60"/>
<path d="M1911.31,1593.33,1795.53,1702.17"/>
<path d="M1911.31,1593.33,1780.86,1560.07"/>
<path d="M1911.31,1593.33,1852.60,1750.12"/>
<path d="M1478.19,1875.66,1472.22,1933.27"/>
<path d="M1478.19,1875.66,1561.01,1730.74"/>
<path d="M1478.19,1875.66,1446.26,1875.09"/>
<path d="M506.88,1625.17,435.59,1578.81"/>
<path d="M506.88,1625.17,537.32,1677.30"/>
<path d="M506.88,1625.17,532.41,1620.42"/>
<path d="M506.88,1625.17,486.53,1689.08"/>
<path d="M506.88,1625.17,497.93,1524.46"/>
<path d="M1926.00,527.40,1864.93,626.19"/>
<path d="M1926.00,527.40,1982.02,576.87"/>
<path d="M1926.00,527.40,1707.19,485.44"/>
<path d="M1926.00,527.40,1968.34,409.83"/>
<path d="M1978.81,1636.77,2026.67,1693.42"/>
<path d="M1978.81,1636.77,2020.39,1500.60"/>
<path d="M1978.81,1636.77,1880.33,1764.68"/>
<path d="M1915.95,2018.78,1885.55,2021.26"/>
<path d="M1915.95,2018.78,1989.39,2023.97"/>
<path d="M1915.95,2018.78,1905.58,1936.53"/>
<path d="M1757.97,1025.64,1769.03,1122.64"/>
<path d="M1757.97,1025.64,1856.46,956.76"/>
<path d="M1757.97,1025.64,1814.73,1104.38"/>
<path d="M1757.97,1025.64,1882.05,1023.33"/>
<path d="M1757.97,1025.64,1695.46,1124.30"/>
<path d="M1757.97,1025.64,1642.54,1057.07"/>
<path d="M772.96,1859.30,763.80,1801.66"/>
<path d="M772.96,1859.30,890.80,1837.57"/>
<path d="M772.96,1859.30,768.49,1910.49"/>
<path d="M1065.55,796.22,1159.35,865.93"/>
<path d="M1065.55,796.22,1158.31,743.67"/>
<path d="M1065.55,796.22,969.21,774.74"/>
<path d="M1065.55,796.22,1107.87,902.38"/>
<path d="M1065.55,796.22,984.19,738.85"/>
<path d="M1772.23,1614.93,1734.66,1637.82"/>
<path d="M1772.23,1614.93,1795.53,1702.17"/>
<path d="M1772.23,1614.93,1780.86,1560.07"/>
<path d="M1838.46,164.89,1751.07,100.18"/>
<path d="M1838.46,164.89,1969.01,239.61"/>
<path d="M1838.46,164.89,1807.04,25.78"/>
<path d="M1838.46,164.89,1919.21,115.66"/>
<path d="M735.29,661.02,726.67,580.59"/>
<path d="M735.29,661.02,826.09,707.54"/>
<path d="M735.29,661.02,670.10,733.79"/>
<path d="M735.29,661.02,597.08,659.54"/>
<path d="M202.78,292.37,286.70,307.60"/>
<path d="M202.78,292.37,239.88,257.51"/>
<path d="M202.78,292.37,266.10,402.14"/>
<path d="M202.78,292.37,100.08,290.34"/>
<path d="M1387.04,728.70,1353.96,624.34"/>
<path d="M1387.04,728.70,1316.98,836.09"/>
<path d="M1387.04,728.70,1267.10,734.81"/>
<path d="M1387.04,728.70,1426.72,809.43"/>
<path d="M1387.04,728.70,1406.04,620.70"/>
<path d="M347.23,879.93,295.00,1008.04"/>
<path d="M347.23,879.93,361.93,824.96"/>
<path d="M347.23,879.93,406.74,930.40"/>
<path d="M347.23,879.93,256.61,900.12"/>
<path d="M1162.01,1869.81,1284.48,1937.87"/>
<path d="M1162.01,1869.81,1288.91,1833.82"/>
<path d="M1162.01,1869.81,1027.26,1966.64"/>
<path d="M1162.01,1869.81,1156.29,1984.12"/>
<path d="M1162.01,1869.81,1003.79,1906.15"/>
<path d="M48.00,1592.33,72.85,1530.10"/>
<path d="M48.00,1592.33,109.17,1568.22"/>
<path d="M48.00,1592.33,18.66,1638.42"/>
<path d="M48.00,1592.33,73.42,1617.33"/>
<path d="M605.38,1192.12,722.21,1252.80"/>
<path d="M605.38,1192.12,577.33,1388.72"/>
<path d="M605.38,1192.12,496.63,1172.08"/>
<path d="M605.38,1192.12,619.84,1136.93"/>
<path d="M1897.45,1121.83,1940.39,1242.18"/>
<path d="M1897.45,1121.83,1876.08,1083.83"/>
<path d="M1897.45,1121.83,1981.66,1108.43"/>
<path d="M1897.45,1121.83,1814.53,1184.47"/>
<path d="M224.49,1287.30,262.83,1415.53"/>
<path d="M224.49,1287.30,168.40,1332.27"/>
<path d="M224.49,1287.30,158.61,1155.66"/>
<path d="M224.49,1287.30,300.43,1260.80"/>
<path d="M1183.31,163.54,1284.70,12.42"/>
<path d="M1183.31,163.54,1362.94,187.83"/>
<path d="M1183.31,163.54,1141.81,163.16"/>
<path d="M1183.31,163.54,1237.62,264.81"/>
<path d="M373.44,354.74,286.70,307.60"/>
<path d="M373.44,354.74,392.64,425.30"/>
<path d="M373.44,354.74,266.10,402.14"/>
<path d="M373.44,354.74,451.07,398.96"/>
<path d="M373.44,354.74,459.94,236.27"/>
<path d="M1864.93,626.19,1703.90,690.80"/>
<path d="M1864.93,626.19,1895.69,782.89"/>
<path d="M1864.93,626.19,1698.76,612.26"/>
<path d="M1864.93,626.19,1964.46,640.98"/>
<path d="M536.49,773.87,584.20,771.82"/>
<path d="M536.49,773.87,469.63,810.53"/>
<path d="M536.49,773.87,527.79,857.33"/>
<path d="M15.98,1008.26,25.24,1046.00"/>
<path d="M1931.15,974.28,1856.46,956.76"/>
<path d="M1931.15,974.28,1882.05,1023.33"/>
<path d="M1931.15,974.28,1905.18,1033.93"/>
<path d="M385.71,775.03,361.93,824.96"/>
<path d="M385.71,775.03,469.63,810.53"/>
<path d="M385.71,775.03,331.40,675.16"/>
<path d="M361.60,2017.48,224.28,1973.20"/>
<path d="M361.60,2017.48,423.37,1987.55"/>
<path d="M361.60,2017.48,378.86,1948.78"/>
<path d="M361.60,2017.48,219.57,1997.86"/>
<path d="M1005.84,1268.32,1037.70,1226.33"/>
<path d="M1005.84,1268.32,817.72,1241.71"/>
<path d="M1005.84,1268.32,1149.57,1349.15"/>
<path d="M206.05,15.36,296.65,30.42"/>
<path d="M206.05,15.36,80.25,38.32"/>
<path d="M845.56,59.41,842.50,98.85"/>
<path d="M1551.45,615.95,1632.34,685.89"/>
<path d="M1551.45,615.95,1523.59,612.17"/>
<path d="M1435.56,1725.58,1404.36,1680.71"/>
<path d="M1435.56,1725.58,1390.87,1769.43"/>
<path d="M1435.56,1725.58,1561.01,1730.74"/>
<path d="M1132.32,1214.79,1151.96,960.73"/>
<path d="M1132.32,1214.79,1037.70,1226.33"/>
<path d="M1132.32,1214.79,1273.12,1152.60"/>
<path d="M1132.32,1214.79,1149.57,1349.15"/>
<path d="M1404.36,1680.71,1405.39,1636.41"/>
<path d="M1151.96,960.73,1159.35,865.93"/>
<path d="M1151.96,960.73,1313.32,992.81"/>
<path d="M1151.96,960.73,1217.23,893.32"/>
<path d="M1151.96,960.73,1108.07,932.40"/>
<path d="M1885.55,2021.26,1905.58,1936.53"/>
<path d="M295.00,1008.04,456.91,1161.26"/>
<path d="M295.00,1008.04,279.97,1164.46"/>
<path d="M295.00,1008.04,387.18,964.53"/>
<path d="M295.00,1008.04,256.61,900.12"/>
<path d="M1405.39,1636.41,1500.20,1570.08"/>
<path d="M1405.39,1636.41,1278.74,1522.88"/>
<path d="M1405.39,1636.41,1421.57,1524.60"/>
<path d="M1405.39,1636.41,1244.30,1611.01"/>
<path d="M1844.13,1278.21,1814.22,1304.87"/>
<path d="M1844.13,1278.21,1917.53,1279.88"/>
<path d="M1769.03,1122.64,1814.73,1104.38"/>
<path d="M1769.03,1122.64,1695.46,1124.30"/>
<path d="M1769.03,1122.64,1814.53,1184.47"/>
<path d="M1940.39,1242.18,2025.40,1230.59"/>
<path d="M1940.39,1242.18,1981.66,1108.43"/>
<path d="M1940.39,1242.18,1917.53,1279.88"/>
<path d="M1414.81,1010.18,1474.14,1039.66"/>
<path d="M1414.81,1010.18,1313.32,992.81"/>
<path d="M1414.81,1010.18,1373.72,1178.11"/>
<path d="M1414.81,1010.18,1315.31,1031.18"/>
<path d="M1414.81,1010.18,1400.65,869.54"/>
<path d="M842.50,98.85,886.13,147.16"/>
<path d="M842.50,98.85,765.39,97.41"/>
<path d="M33.40,1339.07,9.29,1361.73"/>
<path d="M33.40,1339.07,40.34,1306.78"/>
<path d="M33.40,1339.07,60.00,1330.22"/>
<path d="M952.60,1557.52,947.70,1696.68"/>
<path d="M952.60,1557.52,868.73,1610.32"/>
<path d="M952.60,1557.52,939.40,1420.35"/>
<path d="M952.60,1557.52,1048.17,1545.87"/>
<path d="M952.60,1557.52,856.76,1558.17"/>
<path d="M235.91,1162.62,277.52,1194.60"/>
<path d="M235.91,1162.62,158.61,1155.66"/>
<path d="M235.91,1162.62,279.97,1164.46"/>
<path d="M235.91,1162.62,196.40,1096.06"/>
<path d="M1734.66,1637.82,1607.33,1631.69"/>
<path d="M1734.66,1637.82,1795.53,1702.17"/>
<path d="M484.23,468.35,669.70,390.22"/>
<path d="M484.23,468.35,421.14,459.05"/>
<path d="M484.23,468.35,462.85,569.17"/>
<path d="M484.23,468.35,418.70,527.02"/>
<path d="M484.23,468.35,451.07,398.96"/>
<path d="M1637.32,893.70,1474.14,1039.66"/>
<path d="M1637.32,893.70,1627.80,838.63"/>
<path d="M214.58,1653.82,269.87,1719.26"/>
<path d="M214.58,1653.82,263.77,1641.87"/>
<path d="M214.58,1653.82,73.42,1617.33"/>
<path d="M214.58,1653.82,93.74,1711.06"/>
<path d="M1847.52,896.33,1856.46,956.76"/>
<path d="M1847.52,896.33,1895.69,782.89"/>
<path d="M1847.52,896.33,1768.75,813.59"/>
<path d="M1856.46,956.76,1882.05,1023.33"/>
<path d="M255.08,1583.11,435.59,1578.81"/>
<path d="M255.08,1583.11,262.83,1415.53"/>
<path d="M255.08,1583.11,345.67,1441.46"/>
<path d="M255.08,1583.11,263.77,1641.87"/>
<path d="M1273.39,896.47,1316.98,836.09"/>
<path d="M1273.39,896.47,1313.32,992.81"/>
<path d="M1273.39,896.47,1217.23,893.32"/>
<path d="M1703.90,690.80,1674.86,666.47"/>
<path d="M1703.90,690.80,1694.24,717.99"/>
<path d="M1051.35,47.48,1284.70,12.42"/>
<path d="M1051.35,47.48,1141.81,163.16"/>
<path d="M1051.35,47.48,985.01,105.83"/>
<path d="M1751.07,100.18,1807.04,25.78"/>
<path d="M1751.07,100.18,1657.83,88.92"/>
<path d="M1706.44,796.81,1768.75,813.59"/>
<path d="M1706.44,796.81,1627.80,838.63"/>
<path d="M1706.44,796.81,1716.40,772.97"/>
<path d="M822.94,1400.61,735.78,1359.61"/>
<path d="M822.94,1400.61,778.01,1288.63"/>
<path d="M822.94,1400.61,775.07,1488.14"/>
<path d="M822.94,1400.61,922.15,1401.34"/>
<path d="M890.57,1950.30,1007.61,2035.00"/>
<path d="M890.57,1950.30,875.48,2058.63"/>
<path d="M890.57,1950.30,890.80,1837.57"/>
<path d="M890.57,1950.30,1027.26,1966.64"/>
<path d="M890.57,1950.30,1003.79,1906.15"/>
<path d="M890.57,1950.30,809.77,1936.60"/>
<path d="M1353.96,624.34,1267.10,734.81"/>
<path d="M1353.96,624.34,1249.99,631.27"/>
<path d="M1353.96,624.34,1406.04,620.70"/>
<path d="M1353.96,624.34,1362.91,550.68"/>
<path d="M82.52,1233.27,52.15,1211.32"/>
<path d="M82.52,1233.27,119.77,1152.23"/>
<path d="M82.52,1233.27,89.51,1274.37"/>
<path d="M397.35,139.69,427.14,79.09"/>
<path d="M397.35,139.69,239.88,257.51"/>
<path d="M397.35,139.69,438.94,207.87"/>
<path d="M397.35,139.69,312.10,82.76"/>
<path d="M1363.69,1873.81,1396.82,1915.12"/>
<path d="M1363.69,1873.81,1355.98,1803.81"/>
<path d="M1363.69,1873.81,1288.91,1833.82"/>
<path d="M1363.69,1873.81,1446.26,1875.09"/>
<path d="M1363.69,1873.81,1348.10,1895.72"/>
<path d="M1969.01,239.61,1964.31,307.41"/>
<path d="M1969.01,239.61,1919.21,115.66"/>
<path d="M1969.01,239.61,2015.08,303.77"/>
<path d="M764.13,927.33,718.71,956.37"/>
<path d="M764.13,927.33,867.74,847.61"/>
<path d="M764.13,927.33,670.10,733.79"/>
<path d="M764.13,927.33,798.89,963.74"/>
<path d="M391.67,1770.21,456.16,1732.25"/>
<path d="M391.67,1770.21,341.08,1781.50"/>
<path d="M619.97,743.19,584.20,771.82"/>
<path d="M619.97,743.19,670.10,733.79"/>
<path d="M619.97,743.19,597.08,659.54"/>
<path d="M1704.10,528.81,1707.19,485.44"/>
<path d="M1704.10,528.81,1698.76,612.26"/>
<path d="M50.11,1853.70,45.96,1890.38"/>
<path d="M50.11,1853.70,74.27,1803.57"/>
<path d="M1278.06,524.75,1249.99,631.27"/>
<path d="M1278.06,524.75,1206.11,494.71"/>
<path d="M1278.06,524.75,1362.91,550.68"/>
<path d="M1607.33,1631.69,1596.13,1591.73"/>
<path d="M1607.33,1631.69,1561.01,1730.74"/>
<path d="M1551.25,1445.41,1606.34,1453.88"/>
<path d="M1551.25,1445.41,1420.76,1441.29"/>
<path d="M1551.25,1445.41,1500.20,1570.08"/>
<path d="M1551.25,1445.41,1421.57,1524.60"/>
<path d="M1551.25,1445.41,1552.60,1414.23"/>
<path d="M70.11,413.85,5.27,429.32"/>
<path d="M70.11,413.85,89.91,442.88"/>
<path d="M70.11,413.85,100.08,290.34"/>
<path d="M1586.94,424.38,1625.71,431.37"/>
<path d="M1586.94,424.38,1597.30,392.49"/>
<path d="M1586.94,424.38,1541.32,376.34"/>
<path d="M1586.94,424.38,1514.07,418.87"/>
<path d="M1275.40,1318.87,1338.05,1283.33"/>
<path d="M1275.40,1318.87,1331.51,1429.62"/>
<path d="M1275.40,1318.87,1149.57,1349.15"/>
<path d="M2020.39,1500.60,2015.21,1467.88"/>
<path d="M1159.35,865.93,1158.31,743.67"/>
<path d="M1159.35,865.93,1107.87,902.38"/>
<path d="M1159.35,865.93,1217.23,893.32"/>
<path d="M224.28,1973.20,378.86,1948.78"/>
<path d="M224.28,1973.20,219.57,1997.86"/>
<path d="M9.29,1361.73,17.35,1420.12"/>
<path d="M1284.70,12.42,1362.94,187.83"/>
<path d="M1284.70,12.42,1497.01,72.07"/>
<path d="M1622.56,76.56,1559.58,41.88"/>
<path d="M1622.56,76.56,1657.83,88.92"/>
<path d="M1622.56,76.56,1609.41,194.64"/>
<path d="M1622.56,76.56,1661.43,31.91"/>
<path d="M1895.69,782.89,1768.75,813.59"/>
<path d="M423.37,1987.55,636.11,2020.20"/>
<path d="M423.37,1987.55,439.68,1905.18"/>
<path d="M423.37,1987.55,378.86,1948.78"/>
<path d="M1876.08,1083.83,1814.73,1104.38"/>
<path d="M1876.08,1083.83,1882.05,1023.33"/>
<path d="M1876.08,1083.83,1905.18,1033.93"/>
<path d="M871.61,188.21,886.13,147.16"/>
<path d="M871.61,188.21,952.33,324.35"/>
<path d="M871.61,188.21,999.89,203.07"/>
<path d="M871.61,188.21,630.09,289.75"/>
<path d="M636.11,2020.20,503.68,1840.18"/>
<path d="M636.11,2020.20,439.68,1905.18"/>
<path d="M636.11,2020.20,768.49,1910.49"/>
<path d="M636.11,2020.20,786.18,2035.94"/>
<path d="M1390.87,1769.43,1355.98,1803.81"/>
<path d="M1390.87,1769.43,1446.26,1875.09"/>
<path d="M1390.87,1769.43,1326.70,1758.89"/>
<path d="M886.13,147.16,985.01,105.83"/>
<path d="M886.13,147.16,999.89,203.07"/>
<path d="M726.67,580.59,758.19,501.76"/>
<path d="M726.67,580.59,597.08,659.54"/>
<path d="M1606.34,1453.88,1596.13,1591.73"/>
<path d="M1606.34,1453.88,1720.59,1428.43"/>
<path d="M857.70,512.80,903.28,678.37"/>
<path d="M857.70,512.80,953.08,463.39"/>
<path d="M857.70,512.80,758.19,501.76"/>
<path d="M857.70,512.80,877.01,376.33"/>
<path d="M1129.84,1511.58,1127.98,1543.14"/>
<path d="M1129.84,1511.58,1259.57,1505.77"/>
<path d="M1129.84,1511.58,1146.33,1452.08"/>
<path d="M1865.93,1889.87,1799.68,1895.20"/>
<path d="M1865.93,1889.87,1905.58,1936.53"/>
<path d="M1865.93,1889.87,1922.57,1902.73"/>
<path d="M1865.93,1889.87,1841.82,1859.27"/>
<path d="M1814.73,1104.38,1814.53,1184.47"/>
<path d="M1487.87,187.81,1600.37,279.48"/>
<path d="M1487.87,187.81,1497.01,72.07"/>
<path d="M1487.87,187.81,1401.88,192.35"/>
<path d="M1487.87,187.81,1609.41,194.64"/>
<path d="M1487.87,187.81,1491.45,291.51"/>
<path d="M52.15,1211.32,119.77,1152.23"/>
<path d="M52.15,1211.32,25.24,1046.00"/>
<path d="M722.21,1252.80,688.86,1150.80"/>
<path d="M722.21,1252.80,778.01,1288.63"/>
<path d="M1964.31,307.41,1904.74,328.39"/>
<path d="M1964.31,307.41,2015.08,303.77"/>
<path d="M1964.31,307.41,1925.45,356.45"/>
<path d="M119.77,1152.23,25.24,1046.00"/>
<path d="M119.77,1152.23,158.61,1155.66"/>
<path d="M1780.34,1818.60,1799.68,1895.20"/>
<path d="M1780.34,1818.60,1795.53,1702.17"/>
<path d="M1780.34,1818.60,1561.01,1730.74"/>
<path d="M1780.34,1818.60,1852.60,1750.12"/>
<path d="M1780.34,1818.60,1841.82,1859.27"/>
<path d="M1127.98,1543.14,1048.17,1545.87"/>
<path d="M1127.98,1543.14,1244.30,1611.01"/>
<path d="M1420.76,1441.29,1426.47,1357.76"/>
<path d="M1420.76,1441.29,1421.57,1524.60"/>
<path d="M277.52,1194.60,279.97,1164.46"/>
<path d="M277.52,1194.60,300.43,1260.80"/>
<path d="M1158.31,743.67,1267.10,734.81"/>
<path d="M1158.31,743.67,1141.92,714.33"/>
<path d="M550.59,81.04,427.14,79.09"/>
<path d="M550.59,81.04,568.82,110.52"/>
<path d="M1807.04,25.78,1883.68,43.08"/>
<path d="M1807.04,25.78,1661.43,31.91"/>
<path d="M1396.82,1915.12,1417.16,1986.78"/>
<path d="M1396.82,1915.12,1472.22,1933.27"/>
<path d="M1396.82,1915.12,1446.26,1875.09"/>
<path d="M1396.82,1915.12,1348.10,1895.72"/>
<path d="M947.70,1696.68,1252.30,1707.63"/>
<path d="M947.70,1696.68,868.73,1610.32"/>
<path d="M947.70,1696.68,890.80,1837.57"/>
<path d="M1581.06,1368.63,1541.80,1331.27"/>
<path d="M1581.06,1368.63,1552.60,1414.23"/>
<path d="M1084.55,2056.94,1142.43,2022.10"/>
<path d="M1084.55,2056.94,1036.56,2027.98"/>
<path d="M456.16,1732.25,503.68,1840.18"/>
<path d="M456.16,1732.25,419.69,1814.96"/>
<path d="M456.16,1732.25,486.53,1689.08"/>
<path d="M1426.97,513.39,1433.39,544.14"/>
<path d="M1426.97,513.39,1438.89,461.50"/>
<path d="M1426.97,513.39,1362.91,550.68"/>
<path d="M1559.58,41.88,1497.01,72.07"/>
<path d="M1919.21,115.66,1919.39,75.36"/>
<path d="M1362.94,187.83,1401.88,192.35"/>
<path d="M1362.94,187.83,1275.32,270.38"/>
<path d="M1433.39,544.14,1489.84,534.01"/>
<path d="M1433.39,544.14,1406.04,620.70"/>
<path d="M1433.39,544.14,1362.91,550.68"/>
<path d="M1940.52,1370.19,2015.21,1467.88"/>
<path d="M1940.52,1370.19,1780.86,1560.07"/>
<path d="M1940.52,1370.19,1917.53,1279.88"/>
<path d="M1298.47,1802.96,1355.98,1803.81"/>
<path d="M1298.47,1802.96,1288.91,1833.82"/>
<path d="M1298.47,1802.96,1326.70,1758.89"/>
<path d="M503.68,1840.18,439.68,1905.18"/>
<path d="M503.68,1840.18,419.69,1814.96"/>
<path d="M2048.89,735.63,1994.72,625.31"/>
<path d="M2048.89,735.63,1964.46,640.98"/>
<path d="M17.35,1420.12,72.85,1530.10"/>
<path d="M17.35,1420.12,150.67,1424.33"/>
<path d="M826.09,707.54,863.67,736.21"/>
<path d="M826.09,707.54,903.28,678.37"/>
<path d="M1007.61,2035.00,875.48,2058.63"/>
<path d="M1007.61,2035.00,1036.56,2027.98"/>
<path d="M643.70,1639.34,532.41,1620.42"/>
<path d="M643.70,1639.34,614.75,1690.39"/>
<path d="M643.70,1639.34,652.43,1500.64"/>
<path d="M643.70,1639.34,733.88,1625.13"/>
<path d="M435.59,1578.81,345.67,1441.46"/>
<path d="M435.59,1578.81,263.77,1641.87"/>
<path d="M435.59,1578.81,308.63,1704.25"/>
<path d="M435.59,1578.81,497.93,1524.46"/>
<path d="M1982.02,576.87,1994.72,625.31"/>
<path d="M45.96,1890.38,127.42,2022.05"/>
<path d="M45.96,1890.38,6.81,1916.12"/>
<path d="M1707.19,485.44,1625.71,431.37"/>
<path d="M1707.19,485.44,1878.90,327.84"/>
<path d="M537.32,1677.30,532.41,1620.42"/>
<path d="M537.32,1677.30,486.53,1689.08"/>
<path d="M537.32,1677.30,573.16,1689.99"/>
<path d="M611.52,149.21,568.82,110.52"/>
<path d="M611.52,149.21,517.38,259.52"/>
<path d="M611.52,149.21,765.39,97.41"/>
<path d="M611.52,149.21,630.09,289.75"/>
<path d="M1968.34,409.83,1925.45,356.45"/>
<path d="M1698.76,612.26,1674.86,666.47"/>
<path d="M532.41,1620.42,652.43,1500.64"/>
<path d="M532.41,1620.42,497.93,1524.46"/>
<path d="M801.48,1779.87,763.80,1801.66"/>
<path d="M801.48,1779.87,890.80,1837.57"/>
<path d="M801.48,1779.87,733.88,1625.13"/>
<path d="M1564.63,1301.53,1541.80,1331.27"/>
<path d="M1564.63,1301.53,1578.02,1203.65"/>
<path d="M1632.34,685.89,1674.86,666.47"/>
<path d="M1632.34,685.89,1694.24,717.99"/>
<path d="M1632.34,685.89,1426.72,809.43"/>
<path d="M1632.34,685.89,1627.80,838.63"/>
<path d="M895.70,817.93,867.74,847.61"/>
<path d="M895.70,817.93,969.21,774.74"/>
<path d="M895.70,817.93,937.94,901.46"/>
<path d="M895.70,817.93,901.73,752.67"/>
<path d="M72.85,1530.10,109.17,1568.22"/>
<path d="M72.85,1530.10,150.67,1424.33"/>
<path d="M718.71,956.37,735.67,1011.02"/>
<path d="M718.71,956.37,559.33,952.28"/>
<path d="M1252.30,1707.63,1325.35,1722.15"/>
<path d="M1252.30,1707.63,1244.30,1611.01"/>
<path d="M1768.75,813.59,1716.40,772.97"/>
<path d="M1417.16,1986.78,1385.05,2006.54"/>
<path d="M1417.16,1986.78,1472.22,1933.27"/>
<path d="M1417.16,1986.78,1540.10,2020.86"/>
<path d="M439.68,1905.18,419.69,1814.96"/>
<path d="M439.68,1905.18,378.86,1948.78"/>
<path d="M868.54,990.75,867.74,847.61"/>
<path d="M868.54,990.75,937.94,901.46"/>
<path d="M868.54,990.75,798.89,963.74"/>
<path d="M109.17,1568.22,73.42,1617.33"/>
<path d="M1600.37,279.48,1609.41,194.64"/>
<path d="M1600.37,279.48,1491.45,291.51"/>
<path d="M2011.24,1902.77,2038.07,1750.51"/>
<path d="M2011.24,1902.77,1922.57,1902.73"/>
<path d="M1386.64,1309.31,1338.05,1283.33"/>
<path d="M1386.64,1309.31,1426.47,1357.76"/>
<path d="M1386.64,1309.31,1331.51,1429.62"/>
<path d="M1386.64,1309.31,1452.57,1304.74"/>
<path d="M1385.05,2006.54,1284.48,1937.87"/>
<path d="M1385.05,2006.54,1340.67,2053.12"/>
<path d="M262.83,1415.53,345.67,1441.46"/>
<path d="M262.83,1415.53,150.67,1424.33"/>
<path d="M262.83,1415.53,171.46,1360.29"/>
<path d="M1497.01,72.07,1609.41,194.64"/>
<path d="M1541.80,1331.27,1452.57,1304.74"/>
<path d="M341.08,1781.50,308.63,1704.25"/>
<path d="M665.12,1132.35,735.67,1011.02"/>
<path d="M665.12,1132.35,688.86,1150.80"/>
<path d="M665.12,1132.35,619.84,1136.93"/>
<path d="M168.40,1332.27,89.51,1274.37"/>
<path d="M168.40,1332.27,60.00,1330.22"/>
<path d="M168.40,1332.27,171.46,1360.29"/>
<path d="M875.48,2058.63,786.18,2035.94"/>
<path d="M875.48,2058.63,793.37,2010.93"/>
<path d="M867.74,847.61,937.94,901.46"/>
<path d="M867.74,847.61,798.89,963.74"/>
<path d="M456.91,1161.26,502.91,1121.27"/>
<path d="M456.91,1161.26,496.63,1172.08"/>
<path d="M456.91,1161.26,448.11,1301.40"/>
<path d="M868.73,1610.32,856.76,1558.17"/>
<path d="M868.73,1610.32,733.88,1625.13"/>
<path d="M2025.40,1230.59,1981.66,1108.43"/>
<path d="M735.67,1011.02,798.89,963.74"/>
<path d="M1880.33,1764.68,1852.60,1750.12"/>
<path d="M1880.33,1764.68,1841.82,1859.27"/>
<path d="M82.61,632.20,67.75,588.85"/>
<path d="M82.61,632.20,46.70,731.83"/>
<path d="M82.61,632.20,181.38,630.08"/>
<path d="M1355.98,1803.81,1326.70,1758.89"/>
<path d="M1625.71,431.37,1597.30,392.49"/>
<path d="M286.70,307.60,239.88,257.51"/>
<path d="M286.70,307.60,438.94,207.87"/>
<path d="M286.70,307.60,266.10,402.14"/>
<path d="M669.70,390.22,630.09,289.75"/>
<path d="M669.70,390.22,747.23,412.32"/>
<path d="M863.67,736.21,903.28,678.37"/>
<path d="M863.67,736.21,901.73,752.67"/>
<path d="M1141.81,163.16,985.01,105.83"/>
<path d="M1141.81,163.16,999.89,203.07"/>
<path d="M1141.81,163.16,1109.32,270.49"/>
<path d="M1316.98,836.09,1267.10,734.81"/>
<path d="M1316.98,836.09,1400.65,869.54"/>
<path d="M969.21,774.74,901.73,752.67"/>
<path d="M969.21,774.74,984.19,738.85"/>
<path d="M1474.14,1039.66,1642.54,1057.07"/>
<path d="M1474.14,1039.66,1373.72,1178.11"/>
<path d="M1474.14,1039.66,1578.02,1203.65"/>
<path d="M939.40,1420.35,1048.17,1545.87"/>
<path d="M939.40,1420.35,856.76,1558.17"/>
<path d="M939.40,1420.35,922.15,1401.34"/>
<path d="M421.14,459.05,392.64,425.30"/>
<path d="M421.14,459.05,418.70,527.02"/>
<path d="M421.14,459.05,451.07,398.96"/>
<path d="M1657.83,88.92,1609.41,194.64"/>
<path d="M1657.83,88.92,1661.43,31.91"/>
<path d="M89.51,1274.37,40.34,1306.78"/>
<path d="M89.51,1274.37,60.00,1330.22"/>
<path d="M427.14,79.09,312.10,82.76"/>
<path d="M1799.68,1895.20,1690.87,1944.70"/>
<path d="M1799.68,1895.20,1841.82,1859.27"/>
<path d="M1037.70,1226.33,908.23,1101.94"/>
<path d="M572.00,1430.70,577.33,1388.72"/>
<path d="M572.00,1430.70,531.47,1385.07"/>
<path d="M572.00,1430.70,652.43,1500.64"/>
<path d="M572.00,1430.70,497.93,1524.46"/>
<path d="M1313.32,992.81,1315.31,1031.18"/>
<path d="M1313.32,992.81,1400.65,869.54"/>
<path d="M239.88,257.51,312.10,82.76"/>
<path d="M239.88,257.51,80.25,38.32"/>
<path d="M1597.30,392.49,1576.61,367.73"/>
<path d="M2020.19,2011.82,1989.39,2023.97"/>
<path d="M1325.05,1225.83,1313.47,1185.83"/>
<path d="M1325.05,1225.83,1338.05,1283.33"/>
<path d="M1325.05,1225.83,1373.72,1178.11"/>
<path d="M158.61,1155.66,196.40,1096.06"/>
<path d="M735.78,1359.61,778.01,1288.63"/>
<path d="M735.78,1359.61,775.07,1488.14"/>
<path d="M568.82,110.52,438.94,207.87"/>
<path d="M1267.10,734.81,1249.99,631.27"/>
<path d="M817.72,1241.71,908.23,1101.94"/>
<path d="M817.72,1241.71,778.01,1288.63"/>
<path d="M113.34,455.09,89.91,442.88"/>
<path d="M113.34,455.09,177.62,461.07"/>
<path d="M113.34,455.09,124.44,526.70"/>
<path d="M1588.54,1992.35,1659.90,1993.47"/>
<path d="M1588.54,1992.35,1540.10,2020.86"/>
<path d="M1659.90,1993.47,1690.87,1944.70"/>
<path d="M577.33,1388.72,531.47,1385.07"/>
<path d="M425.32,1367.23,531.47,1385.07"/>
<path d="M425.32,1367.23,448.11,1301.40"/>
<path d="M1142.43,2022.10,1280.51,2033.34"/>
<path d="M1142.43,2022.10,1156.29,1984.12"/>
<path d="M1500.20,1570.08,1596.13,1591.73"/>
<path d="M1500.20,1570.08,1421.57,1524.60"/>
<path d="M1882.05,1023.33,1905.18,1033.93"/>
<path d="M1541.32,376.34,1576.61,367.73"/>
<path d="M1541.32,376.34,1514.07,418.87"/>
<path d="M1541.32,376.34,1491.45,291.51"/>
<path d="M1994.72,625.31,1964.46,640.98"/>
<path d="M1905.58,1936.53,1922.57,1902.73"/>
<path d="M406.74,930.40,469.63,810.53"/>
<path d="M406.74,930.40,527.79,857.33"/>
<path d="M406.74,930.40,436.39,974.45"/>
<path d="M406.74,930.40,387.18,964.53"/>
<path d="M688.86,1150.80,908.23,1101.94"/>
<path d="M469.63,810.53,527.79,857.33"/>
<path d="M985.01,105.83,999.89,203.07"/>
<path d="M1904.74,328.39,1878.90,327.84"/>
<path d="M1904.74,328.39,1925.45,356.45"/>
<path d="M952.33,324.35,953.08,463.39"/>
<path d="M952.33,324.35,1069.55,411.36"/>
<path d="M952.33,324.35,877.01,376.33"/>
<path d="M1036.56,2027.98,1027.26,1966.64"/>
<path d="M1278.74,1522.88,1259.57,1505.77"/>
<path d="M1278.74,1522.88,1331.51,1429.62"/>
<path d="M1278.74,1522.88,1244.30,1611.01"/>
<path d="M5.27,429.32,37.47,598.24"/>
<path d="M462.85,569.17,418.70,527.02"/>
<path d="M462.85,569.17,370.19,613.32"/>
<path d="M462.85,569.17,597.08,659.54"/>
<path d="M1249.99,631.27,1141.92,714.33"/>
<path d="M1237.62,264.81,1109.32,270.49"/>
<path d="M1237.62,264.81,1206.11,494.71"/>
<path d="M1237.62,264.81,1275.32,270.38"/>
<path d="M1438.89,461.50,1467.30,441.23"/>
<path d="M1438.89,461.50,1275.32,270.38"/>
<path d="M999.89,203.07,1109.32,270.49"/>
<path d="M1259.57,1505.77,1331.51,1429.62"/>
<path d="M1259.57,1505.77,1146.33,1452.08"/>
<path d="M1284.48,1937.87,1288.91,1833.82"/>
<path d="M1284.48,1937.87,1280.51,2033.34"/>
<path d="M1284.48,1937.87,1156.29,1984.12"/>
<path d="M1284.48,1937.87,1348.10,1895.72"/>
<path d="M269.87,1719.26,263.77,1641.87"/>
<path d="M269.87,1719.26,308.63,1704.25"/>
<path d="M1661.60,1121.08,1695.46,1124.30"/>
<path d="M1661.60,1121.08,1642.54,1057.07"/>
<path d="M1661.60,1121.08,1578.02,1203.65"/>
<path d="M1472.22,1933.27,1446.26,1875.09"/>
<path d="M1472.22,1933.27,1540.10,2020.86"/>
<path d="M890.80,1837.57,1003.79,1906.15"/>
<path d="M890.80,1837.57,809.77,1936.60"/>
<path d="M1313.47,1185.83,1273.12,1152.60"/>
<path d="M1313.47,1185.83,1373.72,1178.11"/>
<path d="M392.64,425.30,282.90,538.66"/>
<path d="M392.64,425.30,266.10,402.14"/>
<path d="M392.64,425.30,451.07,398.96"/>
<path d="M1694.24,717.99,1716.40,772.97"/>
<path d="M1690.87,1944.70,1561.01,1730.74"/>
<path d="M1795.53,1702.17,1852.60,1750.12"/>
<path d="M282.90,538.66,209.60,512.43"/>
<path d="M282.90,538.66,418.70,527.02"/>
<path d="M282.90,538.66,370.19,613.32"/>
<path d="M282.90,538.66,266.10,402.14"/>
<path d="M282.90,538.66,181.38,630.08"/>
<path d="M1814.22,1304.87,1785.85,1346.98"/>
<path d="M1814.22,1304.87,1578.02,1203.65"/>
<path d="M209.60,512.43,177.62,461.07"/>
<path d="M209.60,512.43,181.38,630.08"/>
<path d="M209.60,512.43,124.44,526.70"/>
<path d="M903.28,678.37,901.73,752.67"/>
<path d="M903.28,678.37,950.67,699.19"/>
<path d="M937.94,901.46,1107.87,902.38"/>
<path d="M953.08,463.39,1069.55,411.36"/>
<path d="M953.08,463.39,1082.13,488.68"/>
<path d="M953.08,463.39,877.01,376.33"/>
<path d="M1981.66,1108.43,1905.18,1033.93"/>
<path d="M438.94,207.87,459.94,236.27"/>
<path d="M331.40,675.16,370.19,613.32"/>
<path d="M331.40,675.16,181.38,630.08"/>
<path d="M531.47,1385.07,448.11,1301.40"/>
<path d="M67.75,588.85,37.47,598.24"/>
<path d="M67.75,588.85,124.44,526.70"/>
<path d="M1288.91,1833.82,1348.10,1895.72"/>
<path d="M1401.88,192.35,1491.45,291.51"/>
<path d="M1523.59,612.17,1489.84,534.01"/>
<path d="M1523.59,612.17,1406.04,620.70"/>
<path d="M1426.47,1357.76,1331.51,1429.62"/>
<path d="M1426.47,1357.76,1452.57,1304.74"/>
<path d="M1426.47,1357.76,1552.60,1414.23"/>
<path d="M418.70,527.02,370.19,613.32"/>
<path d="M312.10,82.76,296.65,30.42"/>
<path d="M1883.68,43.08,1919.39,75.36"/>
<path d="M502.91,1121.27,496.63,1172.08"/>
<path d="M502.91,1121.27,619.84,1136.93"/>
<path d="M502.91,1121.27,476.90,973.56"/>
<path d="M1785.85,1346.98,1720.59,1428.43"/>
<path d="M74.27,1803.57,93.74,1711.06"/>
<path d="M1107.87,902.38,1108.07,932.40"/>
<path d="M1109.32,270.49,1069.96,314.40"/>
<path d="M758.19,501.76,747.23,412.32"/>
<path d="M768.49,1910.49,809.77,1936.60"/>
<path d="M786.18,2035.94,793.37,2010.93"/>
<path d="M1273.12,1152.60,1315.31,1031.18"/>
<path d="M263.77,1641.87,308.63,1704.25"/>
<path d="M1340.67,2053.12,1280.51,2033.34"/>
<path d="M527.79,857.33,476.90,973.56"/>
<path d="M1720.59,1428.43,1780.86,1560.07"/>
<path d="M901.73,752.67,950.67,699.19"/>
<path d="M1206.11,494.71,1082.13,488.68"/>
<path d="M1206.11,494.71,1275.32,270.38"/>
<path d="M150.67,1424.33,60.00,1330.22"/>
<path d="M150.67,1424.33,171.46,1360.29"/>
<path d="M517.38,259.52,451.07,398.96"/>
<path d="M517.38,259.52,630.09,289.75"/>
<path d="M517.38,259.52,459.94,236.27"/>
<path d="M1146.33,1452.08,1149.57,1349.15"/>
<path d="M1141.92,714.33,1082.13,488.68"/>
<path d="M856.76,1558.17,775.07,1488.14"/>
<path d="M856.76,1558.17,733.88,1625.13"/>
<path d="M46.70,731.83,162.22,871.49"/>
<path d="M496.63,1172.08,448.11,1301.40"/>
<path d="M18.66,1638.42,73.42,1617.33"/>
<path d="M18.66,1638.42,93.74,1711.06"/>
<path d="M73.42,1617.33,93.74,1711.06"/>
<path d="M1514.07,418.87,1467.30,441.23"/>
<path d="M1069.96,314.40,1069.55,411.36"/>
<path d="M1280.51,2033.34,1156.29,1984.12"/>
<path d="M1426.72,809.43,1627.80,838.63"/>
<path d="M1426.72,809.43,1400.65,869.54"/>
<path d="M619.84,1136.93,559.33,952.28"/>
<path d="M266.10,402.14,177.62,461.07"/>
<path d="M1373.72,1178.11,1315.31,1031.18"/>
<path d="M1373.72,1178.11,1578.02,1203.65"/>
<path d="M40.34,1306.78,60.00,1330.22"/>
<path d="M1027.26,1966.64,1156.29,1984.12"/>
<path d="M1027.26,1966.64,1003.79,1906.15"/>
<path d="M177.62,461.07,124.44,526.70"/>
<path d="M1406.04,620.70,1362.91,550.68"/>
<path d="M984.19,738.85,950.67,699.19"/>
<path d="M1325.35,1722.15,1326.70,1758.89"/>
<path d="M156.11,979.80,162.22,871.49"/>
<path d="M573.16,1689.99,614.75,1690.39"/>
<path d="M1069.55,411.36,1082.13,488.68"/>
<path d="M451.07,398.96,459.94,236.27"/>
<path d="M1082.13,488.68,950.67,699.19"/>
<path d="M793.37,2010.93,809.77,1936.60"/>
<path d="M559.33,952.28,476.90,973.56"/>
<path d="M436.39,974.45,387.18,964.53"/>
<path d="M436.39,974.45,476.90,973.56"/>
<path d="M80.25,38.32,100.08,290.34"/>
<path d="M181.38,630.08,124.44,526.70"/>
<path d="M127.42,2022.05,6.81,1916.12"/>
<path d="M877.01,376.33,747.23,412.32"/>
<path d="M775.07,1488.14,652.43,1500.64"/>
<path d="M775.07,1488.14,733.88,1625.13"/>
<path d="M652.43,1500.64,733.88,1625.13"/>
<path d="M652.43,1500.64,497.93,1524.46"/>
<circle cx="401.21" cy="1421.43" r="10"/>
<text x="401.21" y="1426.43">R0</text>
<circle cx="230.85" cy="1810.26" r="10"/>
<text x="230.85" y="1815.26">R1</text>
<circle cx="1019.92" cy="292.76" r="10"/>
<text x="1019.92" y="297.76">R2</text>
<circle cx="589.69" cy="889.11" r="10"/>
<text x="589.69" y="894.11">R3</text>
<circle cx="232.49" cy="861.66" r="10"/>
<text x="232.49" y="866.66">R4</text>
<circle cx="199.16" cy="1978.62" r="10"/>
<text x="199.16" y="1983.62">R5</text>
<circle cx="1979.72" cy="9.54" r="10"/>
<text x="1979.72" y="14.54">R6</text>
<circle cx="98.79" cy="998.18" r="10"/>
<text x="98.79" y="1003.18">R7</text>
<circle cx="1252.59" cy="1276.11" r="10"/>
<text x="1252.59" y="1281.11">R8</text>
<circle cx="1377.29" cy="1731.49" r="10"/>
<text x="1377.29" y="1736.49">R9</text>
<circle cx="854.16" cy="1689.10" r="10"/>
<text x="854.16" y="1694.10">R10</text>
<circle cx="1618.15" cy="351.94" r="10"/>
<text x="1618.15" y="356.94">R11</text>
<circle cx="619.63" cy="1720.86" r="10"/>
<text x="619.63" y="1725.86">R12</text>
<circle cx="1980.52" cy="750.21" r="10"/>
<text x="1980.52" y="755.21">R13</text>
<circle cx="2020.46" cy="1727.39" r="10"/>
<text x="2020.46" y="1732.39">R14</text>
<circle cx="204.90" cy="1002.15" r="10"/>
<text x="204.90" y="1007.15">R15</text>
<circle cx="673.56" cy="486.04" r="10"/>
<text x="673.56" y="491.04">R16</text>
<circle cx="888.63" cy="1039.30" r="10"/>
<text x="888.63" y="1044.30">R17</text>
<circle cx="649.21" cy="1421.54" r="10"/>
<text x="649.21" y="1426.54">R18</text>
<circle cx="1687.53" cy="922.43" r="10"/>
<text x="1687.53" y="927.43">R19</text>
<circle cx="988.18" cy="1353.43" r="10"/>
<text x="988.18" y="1358.43">R20</text>
<circle cx="0.89" cy="1551.64" r="10"/>
<text x="0.89" y="1556.64">R21</text>
<circle cx="1364.85" cy="1477.43" r="10"/>
<text x="1364.85" y="1482.43">R22</text>
<circle cx="2011.30" cy="1981.97" r="10"/>
<text x="2011.30" y="1986.97">R23</text>
<circle cx="1832.75" cy="1232.35" r="10"/>
<text x="1832.75" y="1237.35">R24</text>
<circle cx="2011.80" cy="2050.24" r="10"/>
<text x="2011.80" y="2055.24">R25</text>
<circle cx="2050.22" cy="68.39" r="10"/>
<text x="2050.22" y="73.39">R26</text>
<circle cx="579.85" cy="1777.14" r="10"/>
<text x="579.85" y="1782.14">R27</text>
<circle cx="203.14" cy="736.88" r="10"/>
<text x="203.14" y="741.88">R28</text>
<circle cx="715.73" cy="503.81" r="10"/>
<text x="715.73" y="508.81">R29</text>
<circle cx="1836.84" cy="268.32" r="10"/>
<text x="1836.84" y="273.32">R30</text>
<circle cx="329.97" cy="1241.90" r="10"/>
<text x="329.97" y="1246.90">R31</text>
<circle cx="385.17" cy="1796.01" r="10"/>
<text x="385.17" y="1801.01">R32</text>
<circle cx="152.51" cy="1551.32" r="10"/>
<text x="152.51" y="1556.32">R33</text>
<circle cx="1911.31" cy="1593.33" r="10"/>
<text x="1911.31" y="1598.33">R34</text>
<circle cx="1478.19" cy="1875.66" r="10"/>
<text x="1478.19" y="1880.66">R35</text>
<circle cx="506.88" cy="1625.17" r="10"/>
<text x="506.88" y="1630.17">R36</text>
<circle cx="1926.00" cy="527.40" r="10"/>
<text x="1926.00" y="532.40">R37</text>
<circle cx="1978.81" cy="1636.77" r="10"/>
<text x="1978.81" y="1641.77">R38</text>
<circle cx="1915.95" cy="2018.78" r="10"/>
<text x="1915.95" y="2023.78">R39</text>
<circle cx="1757.97" cy="1025.64" r="10"/>
<text x="1757.97" y="1030.64">R40</text>
<circle cx="772.96" cy="1859.30" r="10"/>
<text x="772.96" y="1864.30">R41</text>
<circle cx="1065.55" cy="796.22" r="10"/>
<text x="1065.55" y="801.22">R42</text>
<circle cx="1772.23" cy="1614.93" r="10"/>
<text x="1772.23" y="1619.93">R43</text>
<circle cx="1838.46" cy="164.89" r="10"/>
<text x="1838.46" y="169.89">R44</text>
<circle cx="735.29" cy="661.02" r="10"/>
<text x="735.29" y="666.02">R45</text>
<circle cx="202.78" cy="292.37" r="10"/>
<text x="202.78" y="297.37">R46</text>
<circle cx="1387.04" cy="728.70" r="10"/>
<text x="1387.04" y="733.70">R47</text>
<circle cx="347.23" cy="879.93" r="10"/>
<text x="347.23" y="884.93">R48</text>
<circle cx="1162.01" cy="1869.81" r="10"/>
<text x="1162.01" y="1874.81">R49</text>
<circle cx="48.00" cy="1592.33" r="10"/>
<text x="48.00" y="1597.33">R50</text>
<circle cx="605.38" cy="1192.12" r="10"/>
<text x="605.38" y="1197.12">R51</text>
<circle cx="1897.45" cy="1121.83" r="10"/>
<text x="1897.45" y="1126.83">R52</text>
<circle cx="224.49" cy="1287.30" r="10"/>
<text x="224.49" y="1292.30">R53</text>
<circle cx="1183.31" cy="163.54" r="10"/>
<text x="1183.31" y="168.54">R54</text>
<circle cx="373.44" cy="354.74" r="10"/>
<text x="373.44" y="359.74">R55</text>
<circle cx="1864.93" cy="626.19" r="10"/>
<text x="1864.93" y="631.19">R56</text>
<circle cx="536.49" cy="773.87" r="10"/>
<text x="536.49" y="778.87">R57</text>
<circle cx="2026.67" cy="1693.42" r="10"/>
<text x="2026.67" y="1698.42">R58</text>
<circle cx="15.98" cy="1008.26" r="10"/>
<text x="15.98" y="1013.26">R59</text>
<circle cx="1931.15" cy="974.28" r="10"/>
<text x="1931.15" y="979.28">R60</text>
<circle cx="385.71" cy="775.03" r="10"/>
<text x="385.71" y="780.03">R61</text>
<circle cx="361.60" cy="2017.48" r="10"/>
<text x="361.60" y="2022.48">R62</text>
<circle cx="1005.84" cy="1268.32" r="10"/>
<text x="1005.84" y="1273.32">R63</text>
<circle cx="206.05" cy="15.36" r="10"/>
<text x="206.05" y="20.36">R64</text>
<circle cx="845.56" cy="59.41" r="10"/>
<text x="845.56" y="64.41">R65</text>
<circle cx="1551.45" cy="615.95" r="10"/>
<text x="1551.45" y="620.95">R66</text>
<circle cx="1435.56" cy="1725.58" r="10"/>
<text x="1435.56" y="1730.58">R67</text>
<circle cx="1132.32" cy="1214.79" r="10"/>
<text x="1132.32" y="1219.79">R68</text>
<circle cx="1404.36" cy="1680.71" r="10"/>
<text x="1404.36" y="1685.71">R69</text>
<circle cx="1151.96" cy="960.73" r="10"/>
<text x="1151.96" y="965.73">R70</text>
<circle cx="1885.55" cy="2021.26" r="10"/>
<text x="1885.55" y="2026.26">R71</text>
<circle cx="295.00" cy="1008.04" r="10"/>
<text x="295.00" y="1013.04">R72</text>
<circle cx="1405.39" cy="1636.41" r="10"/>
<text x="1405.39" y="1641.41">R73</text>
<circle cx="1844.13" cy="1278.21" r="10"/>
<text x="1844.13" y="1283.21">R74</text>
<circle cx="1769.03" cy="1122.64" r="10"/>
<text x="1769.03" y="1127.64">R75</text>
<circle cx="1940.39" cy="1242.18" r="10"/>
<text x="1940.39" y="1247.18">R76</text>
<circle cx="1414.81" cy="1010.18" r="10"/>
<text x="1414.81" y="1015.18">R77</text>
<circle cx="842.50" cy="98.85" r="10"/>
<text x="842.50" y="103.85">R78</text>
<circle cx="33.40" cy="1339.07" r="10"/>
<text x="33.40" y="1344.07">R79</text>
<circle cx="952.60" cy="1557.52" r="10"/>
<text x="952.60" y="1562.52">R80</text>
<circle cx="235.91" cy="1162.62" r="10"/>
<text x="235.91" y="1167.62">R81</text>
<circle cx="1734.66" cy="1637.82" r="10"/>
<text x="1734.66" y="1642.82">R82</text>
<circle cx="484.23" cy="468.35" r="10"/>
<text x="484.23" y="473.35">R83</text>
<circle cx="1637.32" cy="893.70" r="10"/>
<text x="1637.32" y="898.70">R84</text>
<circle cx="214.58" cy="1653.82" r="10"/>
<text x="214.58" y="1658.82">R85</text>
<circle cx="1847.52" cy="896.33" r="10"/>
<text x="1847.52" y="901.33">R86</text>
<circle cx="1856.46" cy="956.76" r="10"/>
<text x="1856.46" y="961.76">R87</text>
<circle cx="255.08" cy="1583.11" r="10"/>
<text x="255.08" y="1588.11">R88</text>
<circle cx="1273.39" cy="896.47" r="10"/>
<text x="1273.39" y="901.47">R89</text>
<circle cx="1703.90" cy="690.80" r="10"/>
<text x="1703.90" y="695.80">R90</text>
<circle cx="1051.35" cy="47.48" r="10"/>
<text x="1051.35" y="52.48">R91</text>
<circle cx="1751.07" cy="100.18" r="10"/>
<text x="1751.07" y="105.18">R92</text>
<circle cx="1706.44" cy="796.81" r="10"/>
<text x="1706.44" y="801.81">R93</text>
<circle cx="822.94" cy="1400.61" r="10"/>
<text x="822.94" y="1405.61">R94</text>
<circle cx="890.57" cy="1950.30" r="10"/>
<text x="890.57" y="1955.30">R95</text>
<circle cx="1353.96" cy="624.34" r="10"/>
<text x="1353.96" y="629.34">R96</text>
<circle cx="82.52" cy="1233.27" r="10"/>
<text x="82.52" y="1238.27">R97</text>
<circle cx="397.35" cy="139.69" r="10"/>
<text x="397.35" y="144.69">R98</text>
<circle cx="1363.69" cy="1873.81" r="10"/>
<text x="1363.69" y="1878.81">R99</text>
<circle cx="1969.01" cy="239.61" r="10"/>
<text x="1969.01" y="244.61">R100</text>
<circle cx="764.13" cy="927.33" r="10"/>
<text x="764.13" y="932.33">R101</text>
<circle cx="391.67" cy="1770.21" r="10"/>
<text x="391.67" y="1775.21">R102</text>
<circle cx="619.97" cy="743.19" r="10"/>
<text x="619.97" y="748.19">R103</text>
<circle cx="1704.10" cy="528.81" r="10"/>
<text x="1704.10" y="533.81">R104</text>
<circle cx="50.11" cy="1853.70" r="10"/>
<text x="50.11" y="1858.70">R105</text>
<circle cx="1278.06" cy="524.75" r="10"/>
<text x="1278.06" y="529.75">R106</text>
<circle cx="1607.33" cy="1631.69" r="10"/>
<text x="1607.33" y="1636.69">R107</text>
<circle cx="1551.25" cy="1445.41" r="10"/>
<text x="1551.25" y="1450.41">R108</text>
<circle cx="70.11" cy="413.85" r="10"/>
<text x="70.11" y="418.85">R109</text>
<circle cx="1586.94" cy="424.38" r="10"/>
<text x="1586.94" y="429.38">R110</text>
<circle cx="1275.40" cy="1318.87" r="10"/>
<text x="1275.40" y="1323.87">R111</text>
<circle cx="2020.39" cy="1500.60" r="10"/>
<text x="2020.39" y="1505.60">R112</text>
<circle cx="1159.35" cy="865.93" r="10"/>
<text x="1159.35" y="870.93">R113</text>
<circle cx="224.28" cy="1973.20" r="10"/>
<text x="224.28" y="1978.20">R114</text>
<circle cx="9.29" cy="1361.73" r="10"/>
<text x="9.29" y="1366.73">R115</text>
<circle cx="1284.70" cy="12.42" r="10"/>
<text x="1284.70" y="17.42">R116</text>
<circle cx="1622.56" cy="76.56" r="10"/>
<text x="1622.56" y="81.56">R117</text>
<circle cx="1895.69" cy="782.89" r="10"/>
<text x="1895.69" y="787.89">R118</text>
<circle cx="423.37" cy="1987.55" r="10"/>
<text x="423.37" y="1992.55">R119</text>
<circle cx="1876.08" cy="1083.83" r="10"/>
<text x="1876.08" y="1088.83">R120</text>
<circle cx="871.61" cy="188.21" r="10"/>
<text x="871.61" y="193.21">R121</text>
<circle cx="636.11" cy="2020.20" r="10"/>
<text x="636.11" y="2025.20">R122</text>
<circle cx="1390.87" cy="1769.43" r="10"/>
<text x="1390.87" y="1774.43">R123</text>
<circle cx="886.13" cy="147.16" r="10"/>
<text x="886.13" y="152.16">R124</text>
<circle cx="361.93" cy="824.96" r="10"/>
<text x="361.93" y="829.96">R125</text>
<circle cx="726.67" cy="580.59" r="10"/>
<text x="726.67" y="585.59">R126</text>
<circle cx="1606.34" cy="1453.88" r="10"/>
<text x="1606.34" y="1458.88">R127</text>
<circle cx="857.70" cy="512.80" r="10"/>
<text x="857.70" y="517.80">R128</text>
<circle cx="1129.84" cy="1511.58" r="10"/>
<text x="1129.84" y="1516.58">R129</text>
<circle cx="1865.93" cy="1889.87" r="10"/>
<text x="1865.93" y="1894.87">R130</text>
<circle cx="1814.73" cy="1104.38" r="10"/>
<text x="1814.73" y="1109.38">R131</text>
<circle cx="1487.87" cy="187.81" r="10"/>
<text x="1487.87" y="192.81">R132</text>
<circle cx="52.15" cy="1211.32" r="10"/>
<text x="52.15" y="1216.32">R133</text>
<circle cx="722.21" cy="1252.80" r="10"/>
<text x="722.21" y="1257.80">R134</text>
<circle cx="1964.31" cy="307.41" r="10"/>
<text x="1964.31" y="312.41">R135</text>
<circle cx="119.77" cy="1152.23" r="10"/>
<text x="119.77" y="1157.23">R136</text>
<circle cx="1780.34" cy="1818.60" r="10"/>
<text x="1780.34" y="1823.60">R137</text>
<circle cx="1127.98" cy="1543.14" r="10"/>
<text x="1127.98" y="1548.14">R138</text>
<circle cx="1420.76" cy="1441.29" r="10"/>
<text x="1420.76" y="1446.29">R139</text>
<circle cx="277.52" cy="1194.60" r="10"/>
<text x="277.52" y="1199.60">R140</text>
<circle cx="1158.31" cy="743.67" r="10"/>
<text x="1158.31" y="748.67">R141</text>
<circle cx="550.59" cy="81.04" r="10"/>
<text x="550.59" y="86.04">R142</text>
<circle cx="1807.04" cy="25.78" r="10"/>
<text x="1807.04" y="30.78">R143</text>
<circle cx="1396.82" cy="1915.12" r="10"/>
<text x="1396.82" y="1920.12">R144</text>
<circle cx="947.70" cy="1696.68" r="10"/>
<text x="947.70" y="1701.68">R145</text>
<circle cx="1581.06" cy="1368.63" r="10"/>
<text x="1581.06" y="1373.63">R146</text>
<circle cx="1084.55" cy="2056.94" r="10"/>
<text x="1084.55" y="2061.94">R147</text>
<circle cx="456.16" cy="1732.25" r="10"/>
<text x="456.16" y="1737.25">R148</text>
<circle cx="1426.97" cy="513.39" r="10"/>
<text x="1426.97" y="518.39">R149</text>
<circle cx="1559.58" cy="41.88" r="10"/>
<text x="1559.58" y="46.88">R150</text>
<circle cx="1919.21" cy="115.66" r="10"/>
<text x="1919.21" y="120.66">R151</text>
<circle cx="1362.94" cy="187.83" r="10"/>
<text x="1362.94" y="192.83">R152</text>
<circle cx="1433.39" cy="544.14" r="10"/>
<text x="1433.39" y="549.14">R153</text>
<circle cx="1940.52" cy="1370.19" r="10"/>
<text x="1940.52" y="1375.19">R154</text>
<circle cx="1298.47" cy="1802.96" r="10"/>
<text x="1298.47" y="1807.96">R155</text>
<circle cx="503.68" cy="1840.18" r="10"/>
<text x="503.68" y="1845.18">R156</text>
<circle cx="2048.89" cy="735.63" r="10"/>
<text x="2048.89" y="740.63">R157</text>
<circle cx="17.35" cy="1420.12" r="10"/>
<text x="17.35" y="1425.12">R158</text>
<circle cx="826.09" cy="707.54" r="10"/>
<text x="826.09" y="712.54">R159</text>
<circle cx="1007.61" cy="2035.00" r="10"/>
<text x="1007.61" y="2040.00">R160</text>
<circle cx="643.70" cy="1639.34" r="10"/>
<text x="643.70" y="1644.34">R161</text>
<circle cx="435.59" cy="1578.81" r="10"/>
<text x="435.59" y="1583.81">R162</text>
<circle cx="1982.02" cy="576.87" r="10"/>
<text x="1982.02" y="581.87">R163</text>
<circle cx="45.96" cy="1890.38" r="10"/>
<text x="45.96" y="1895.38">R164</text>
<circle cx="1707.19" cy="485.44" r="10"/>
<text x="1707.19" y="490.44">R165</text>
<circle cx="537.32" cy="1677.30" r="10"/>
<text x="537.32" y="1682.30">R166</text>
<circle cx="611.52" cy="149.21" r="10"/>
<text x="611.52" y="154.21">R167</text>
<circle cx="1968.34" cy="409.83" r="10"/>
<text x="1968.34" y="414.83">R168</text>
<circle cx="25.24" cy="1046.00" r="10"/>
<text x="25.24" y="1051.00">R169</text>
<circle cx="1698.76" cy="612.26" r="10"/>
<text x="1698.76" y="617.26">R170</text>
<circle cx="532.41" cy="1620.42" r="10"/>
<text x="532.41" y="1625.42">R171</text>
<circle cx="801.48" cy="1779.87" r="10"/>
<text x="801.48" y="1784.87">R172</text>
<circle cx="1564.63" cy="1301.53" r="10"/>
<text x="1564.63" y="1306.53">R173</text>
<circle cx="1632.34" cy="685.89" r="10"/>
<text x="1632.34" y="690.89">R174</text>
<circle cx="895.70" cy="817.93" r="10"/>
<text x="895.70" y="822.93">R175</text>
<circle cx="72.85" cy="1530.10" r="10"/>
<text x="72.85" y="1535.10">R176</text>
<circle cx="718.71" cy="956.37" r="10"/>
<text x="718.71" y="961.37">R177</text>
<circle cx="1252.30" cy="1707.63" r="10"/>
<text x="1252.30" y="1712.63">R178</text>
<circle cx="1768.75" cy="813.59" r="10"/>
<text x="1768.75" y="818.59">R179</text>
<circle cx="1417.16" cy="1986.78" r="10"/>
<text x="1417.16" y="1991.78">R180</text>
<circle cx="439.68" cy="1905.18" r="10"/>
<text x="439.68" y="1910.18">R181</text>
<circle cx="868.54" cy="990.75" r="10"/>
<text x="868.54" y="995.75">R182</text>
<circle cx="109.17" cy="1568.22" r="10"/>
<text x="109.17" y="1573.22">R183</text>
<circle cx="1600.37" cy="279.48" r="10"/>
<text x="1600.37" y="284.48">R184</text>
<circle cx="2011.24" cy="1902.77" r="10"/>
<text x="2011.24" y="1907.77">R185</text>
<circle cx="419.69" cy="1814.96" r="10"/>
<text x="419.69" y="1819.96">R186</text>
<circle cx="1386.64" cy="1309.31" r="10"/>
<text x="1386.64" y="1314.31">R187</text>
<circle cx="1385.05" cy="2006.54" r="10"/>
<text x="1385.05" y="2011.54">R188</text>
<circle cx="262.83" cy="1415.53" r="10"/>
<text x="262.83" y="1420.53">R189</text>
<circle cx="1497.01" cy="72.07" r="10"/>
<text x="1497.01" y="77.07">R190</text>
<circle cx="1541.80" cy="1331.27" r="10"/>
<text x="1541.80" y="1336.27">R191</text>
<circle cx="341.08" cy="1781.50" r="10"/>
<text x="341.08" y="1786.50">R192</text>
<circle cx="1674.86" cy="666.47" r="10"/>
<text x="1674.86" y="671.47">R193</text>
<circle cx="665.12" cy="1132.35" r="10"/>
<text x="665.12" y="1137.35">R194</text>
<circle cx="168.40" cy="1332.27" r="10"/>
<text x="168.40" y="1337.27">R195</text>
<circle cx="875.48" cy="2058.63" r="10"/>
<text x="875.48" y="2063.63">R196</text>
<circle cx="867.74" cy="847.61" r="10"/>
<text x="867.74" y="852.61">R197</text>
<circle cx="456.91" cy="1161.26" r="10"/>
<text x="456.91" y="1166.26">R198</text>
<circle cx="868.73" cy="1610.32" r="10"/>
<text x="868.73" y="1615.32">R199</text>
<circle cx="2025.40" cy="1230.59" r="10"/>
<text x="2025.40" y="1235.59">R200</text>
<circle cx="735.67" cy="1011.02" r="10"/>
<text x="735.67" y="1016.02">R201</text>
<circle cx="1880.33" cy="1764.68" r="10"/>
<text x="1880.33" y="1769.68">R202</text>
<circle cx="82.61" cy="632.20" r="10"/>
<text x="82.61" y="637.20">R203</text>
<circle cx="1355.98" cy="1803.81" r="10"/>
<text x="1355.98" y="1808.81">R204</text>
<circle cx="1625.71" cy="431.37" r="10"/>
<text x="1625.71" y="436.37">R205</text>
<circle cx="286.70" cy="307.60" r="10"/>
<text x="286.70" y="312.60">R206</text>
<circle cx="669.70" cy="390.22" r="10"/>
<text x="669.70" y="395.22">R207</text>
<circle cx="486.53" cy="1689.08" r="10"/>
<text x="486.53" y="1694.08">R208</text>
<circle cx="863.67" cy="736.21" r="10"/>
<text x="863.67" y="741.21">R209</text>
<circle cx="1141.81" cy="163.16" r="10"/>
<text x="1141.81" y="168.16">R210</text>
<circle cx="1316.98" cy="836.09" r="10"/>
<text x="1316.98" y="841.09">R211</text>
<circle cx="969.21" cy="774.74" r="10"/>
<text x="969.21" y="779.74">R212</text>
<circle cx="1474.14" cy="1039.66" r="10"/>
<text x="1474.14" y="1044.66">R213</text>
<circle cx="939.40" cy="1420.35" r="10"/>
<text x="939.40" y="1425.35">R214</text>
<circle cx="421.14" cy="459.05" r="10"/>
<text x="421.14" y="464.05">R215</text>
<circle cx="1657.83" cy="88.92" r="10"/>
<text x="1657.83" y="93.92">R216</text>
<circle cx="89.51" cy="1274.37" r="10"/>
<text x="89.51" y="1279.37">R217</text>
<circle cx="427.14" cy="79.09" r="10"/>
<text x="427.14" y="84.09">R218</text>
<circle cx="378.86" cy="1948.78" r="10"/>
<text x="378.86" y="1953.78">R219</text>
<circle cx="1799.68" cy="1895.20" r="10"/>
<text x="1799.68" y="1900.20">R220</text>
<circle cx="1037.70" cy="1226.33" r="10"/>
<text x="1037.70" y="1231.33">R221</text>
<circle cx="572.00" cy="1430.70" r="10"/>
<text x="572.00" y="1435.70">R222</text>
<circle cx="2015.21" cy="1467.88" r="10"/>
<text x="2015.21" y="1472.88">R223</text>
<circle cx="1313.32" cy="992.81" r="10"/>
<text x="1313.32" y="997.81">R224</text>
<circle cx="239.88" cy="257.51" r="10"/>
<text x="239.88" y="262.51">R225</text>
<circle cx="1597.30" cy="392.49" r="10"/>
<text x="1597.30" y="397.49">R226</text>
<circle cx="2020.19" cy="2011.82" r="10"/>
<text x="2020.19" y="2016.82">R227</text>
<circle cx="1325.05" cy="1225.83" r="10"/>
<text x="1325.05" y="1230.83">R228</text>
<circle cx="158.61" cy="1155.66" r="10"/>
<text x="158.61" y="1160.66">R229</text>
<circle cx="735.78" cy="1359.61" r="10"/>
<text x="735.78" y="1364.61">R230</text>
<circle cx="568.82" cy="110.52" r="10"/>
<text x="568.82" y="115.52">R231</text>
<circle cx="1267.10" cy="734.81" r="10"/>
<text x="1267.10" y="739.81">R232</text>
<circle cx="1989.39" cy="2023.97" r="10"/>
<text x="1989.39" y="2028.97">R233</text>
<circle cx="817.72" cy="1241.71" r="10"/>
<text x="817.72" y="1246.71">R234</text>
<circle cx="345.67" cy="1441.46" r="10"/>
<text x="345.67" y="1446.46">R235</text>
<circle cx="113.34" cy="455.09" r="10"/>
<text x="113.34" y="460.09">R236</text>
<circle cx="1588.54" cy="1992.35" r="10"/>
<text x="1588.54" y="1997.35">R237</text>
<circle cx="1659.90" cy="1993.47" r="10"/>
<text x="1659.90" y="1998.47">R238</text>
<circle cx="577.33" cy="1388.72" r="10"/>
<text x="577.33" y="1393.72">R239</text>
<circle cx="425.32" cy="1367.23" r="10"/>
<text x="425.32" y="1372.23">R240</text>
<circle cx="1142.43" cy="2022.10" r="10"/>
<text x="1142.43" y="2027.10">R241</text>
<circle cx="1500.20" cy="1570.08" r="10"/>
<text x="1500.20" y="1575.08">R242</text>
<circle cx="1882.05" cy="1023.33" r="10"/>
<text x="1882.05" y="1028.33">R243</text>
<circle cx="1541.32" cy="376.34" r="10"/>
<text x="1541.32" y="381.34">R244</text>
<circle cx="1994.72" cy="625.31" r="10"/>
<text x="1994.72" y="630.31">R245</text>
<circle cx="1905.58" cy="1936.53" r="10"/>
<text x="1905.58" y="1941.53">R246</text>
<circle cx="763.80" cy="1801.66" r="10"/>
<text x="763.80" y="1806.66">R247</text>
<circle cx="584.20" cy="771.82" r="10"/>
<text x="584.20" y="776.82">R248</text>
<circle cx="406.74" cy="930.40" r="10"/>
<text x="406.74" y="935.40">R249</text>
<circle cx="688.86" cy="1150.80" r="10"/>
<text x="688.86" y="1155.80">R250</text>
<circle cx="469.63" cy="810.53" r="10"/>
<text x="469.63" y="815.53">R251</text>
<circle cx="985.01" cy="105.83" r="10"/>
<text x="985.01" y="110.83">R252</text>
<circle cx="1904.74" cy="328.39" r="10"/>
<text x="1904.74" y="333.39">R253</text>
<circle cx="1596.13" cy="1591.73" r="10"/>
<text x="1596.13" y="1596.73">R254</text>
<circle cx="952.33" cy="324.35" r="10"/>
<text x="952.33" y="329.35">R255</text>
<circle cx="1036.56" cy="2027.98" r="10"/>
<text x="1036.56" y="2032.98">R256</text>
<circle cx="1278.74" cy="1522.88" r="10"/>
<text x="1278.74" y="1527.88">R257</text>
<circle cx="5.27" cy="429.32" r="10"/>
<text x="5.27" y="434.32">R258</text>
<circle cx="462.85" cy="569.17" r="10"/>
<text x="462.85" y="574.17">R259</text>
<circle cx="1249.99" cy="631.27" r="10"/>
<text x="1249.99" y="636.27">R260</text>
<circle cx="1237.62" cy="264.81" r="10"/>
<text x="1237.62" y="269.81">R261</text>
<circle cx="1438.89" cy="461.50" r="10"/>
<text x="1438.89" y="466.50">R262</text>
<circle cx="999.89" cy="203.07" r="10"/>
<text x="999.89" y="208.07">R263</text>
<circle cx="1259.57" cy="1505.77" r="10"/>
<text x="1259.57" y="1510.77">R264</text>
<circle cx="1284.48" cy="1937.87" r="10"/>
<text x="1284.48" y="1942.87">R265</text>
<circle cx="269.87" cy="1719.26" r="10"/>
<text x="269.87" y="1724.26">R266</text>
<circle cx="1661.60" cy="1121.08" r="10"/>
<text x="1661.60" y="1126.08">R267</text>
<circle cx="1472.22" cy="1933.27" r="10"/>
<text x="1472.22" y="1938.27">R268</text>
<circle cx="890.80" cy="1837.57" r="10"/>
<text x="890.80" y="1842.57">R269</text>
<circle cx="1313.47" cy="1185.83" r="10"/>
<text x="1313.47" y="1190.83">R270</text>
<circle cx="392.64" cy="425.30" r="10"/>
<text x="392.64" y="430.30">R271</text>
<circle cx="1576.61" cy="367.73" r="10"/>
<text x="1576.61" y="372.73">R272</text>
<circle cx="1694.24" cy="717.99" r="10"/>
<text x="1694.24" y="722.99">R273</text>
<circle cx="1690.87" cy="1944.70" r="10"/>
<text x="1690.87" y="1949.70">R274</text>
<circle cx="89.91" cy="442.88" r="10"/>
<text x="89.91" y="447.88">R275</text>
<circle cx="1795.53" cy="1702.17" r="10"/>
<text x="1795.53" y="1707.17">R276</text>
<circle cx="282.90" cy="538.66" r="10"/>
<text x="282.90" y="543.66">R277</text>
<circle cx="1814.22" cy="1304.87" r="10"/>
<text x="1814.22" y="1309.87">R278</text>
<circle cx="209.60" cy="512.43" r="10"/>
<text x="209.60" y="517.43">R279</text>
<circle cx="903.28" cy="678.37" r="10"/>
<text x="903.28" y="683.37">R280</text>
<circle cx="937.94" cy="901.46" r="10"/>
<text x="937.94" y="906.46">R281</text>
<circle cx="908.23" cy="1101.94" r="10"/>
<text x="908.23" y="1106.94">R282</text>
<circle cx="953.08" cy="463.39" r="10"/>
<text x="953.08" y="468.39">R283</text>
<circle cx="1981.66" cy="1108.43" r="10"/>
<text x="1981.66" y="1113.43">R284</text>
<circle cx="438.94" cy="207.87" r="10"/>
<text x="438.94" y="212.87">R285</text>
<circle cx="331.40" cy="675.16" r="10"/>
<text x="331.40" y="680.16">R286</text>
<circle cx="531.47" cy="1385.07" r="10"/>
<text x="531.47" y="1390.07">R287</text>
<circle cx="1338.05" cy="1283.33" r="10"/>
<text x="1338.05" y="1288.33">R288</text>
<circle cx="67.75" cy="588.85" r="10"/>
<text x="67.75" y="593.85">R289</text>
<circle cx="1288.91" cy="1833.82" r="10"/>
<text x="1288.91" y="1838.82">R290</text>
<circle cx="1401.88" cy="192.35" r="10"/>
<text x="1401.88" y="197.35">R291</text>
<circle cx="1523.59" cy="612.17" r="10"/>
<text x="1523.59" y="617.17">R292</text>
<circle cx="1426.47" cy="1357.76" r="10"/>
<text x="1426.47" y="1362.76">R293</text>
<circle cx="418.70" cy="527.02" r="10"/>
<text x="418.70" y="532.02">R294</text>
<circle cx="312.10" cy="82.76" r="10"/>
<text x="312.10" y="87.76">R295</text>
<circle cx="1609.41" cy="194.64" r="10"/>
<text x="1609.41" y="199.64">R296</text>
<circle cx="1883.68" cy="43.08" r="10"/>
<text x="1883.68" y="48.08">R297</text>
<circle cx="502.91" cy="1121.27" r="10"/>
<text x="502.91" y="1126.27">R298</text>
<circle cx="1561.01" cy="1730.74" r="10"/>
<text x="1561.01" y="1735.74">R299</text>
<circle cx="1331.51" cy="1429.62" r="10"/>
<text x="1331.51" y="1434.62">R300</text>
<circle cx="1785.85" cy="1346.98" r="10"/>
<text x="1785.85" y="1351.98">R301</text>
<circle cx="74.27" cy="1803.57" r="10"/>
<text x="74.27" y="1808.57">R302</text>
<circle cx="1107.87" cy="902.38" r="10"/>
<text x="1107.87" y="907.38">R303</text>
<circle cx="1109.32" cy="270.49" r="10"/>
<text x="1109.32" y="275.49">R304</text>
<circle cx="758.19" cy="501.76" r="10"/>
<text x="758.19" y="506.76">R305</text>
<circle cx="2018.78" cy="33.69" r="10"/>
<text x="2018.78" y="38.69">R306</text>
<circle cx="1695.46" cy="1124.30" r="10"/>
<text x="1695.46" y="1129.30">R307</text>
<circle cx="768.49" cy="1910.49" r="10"/>
<text x="768.49" y="1915.49">R308</text>
<circle cx="786.18" cy="2035.94" r="10"/>
<text x="786.18" y="2040.94">R309</text>
<circle cx="1273.12" cy="1152.60" r="10"/>
<text x="1273.12" y="1157.60">R310</text>
<circle cx="263.77" cy="1641.87" r="10"/>
<text x="263.77" y="1646.87">R311</text>
<circle cx="670.10" cy="733.79" r="10"/>
<text x="670.10" y="738.79">R312</text>
<circle cx="1340.67" cy="2053.12" r="10"/>
<text x="1340.67" y="2058.12">R313</text>
<circle cx="1642.54" cy="1057.07" r="10"/>
<text x="1642.54" y="1062.07">R314</text>
<circle cx="1661.43" cy="31.91" r="10"/>
<text x="1661.43" y="36.91">R315</text>
<circle cx="279.97" cy="1164.46" r="10"/>
<text x="279.97" y="1169.46">R316</text>
<circle cx="1452.57" cy="1304.74" r="10"/>
<text x="1452.57" y="1309.74">R317</text>
<circle cx="527.79" cy="857.33" r="10"/>
<text x="527.79" y="862.33">R318</text>
<circle cx="1720.59" cy="1428.43" r="10"/>
<text x="1720.59" y="1433.43">R319</text>
<circle cx="1814.53" cy="1184.47" r="10"/>
<text x="1814.53" y="1189.47">R320</text>
<circle cx="901.73" cy="752.67" r="10"/>
<text x="901.73" y="757.67">R321</text>
<circle cx="1206.11" cy="494.71" r="10"/>
<text x="1206.11" y="499.71">R322</text>
<circle cx="150.67" cy="1424.33" r="10"/>
<text x="150.67" y="1429.33">R323</text>
<circle cx="2038.07" cy="1750.51" r="10"/>
<text x="2038.07" y="1755.51">R324</text>
<circle cx="517.38" cy="259.52" r="10"/>
<text x="517.38" y="264.52">R325</text>
<circle cx="1048.17" cy="1545.87" r="10"/>
<text x="1048.17" y="1550.87">R326</text>
<circle cx="1146.33" cy="1452.08" r="10"/>
<text x="1146.33" y="1457.08">R327</text>
<circle cx="1141.92" cy="714.33" r="10"/>
<text x="1141.92" y="719.33">R328</text>
<circle cx="856.76" cy="1558.17" r="10"/>
<text x="856.76" y="1563.17">R329</text>
<circle cx="46.70" cy="731.83" r="10"/>
<text x="46.70" y="736.83">R330</text>
<circle cx="496.63" cy="1172.08" r="10"/>
<text x="496.63" y="1177.08">R331</text>
<circle cx="1780.86" cy="1560.07" r="10"/>
<text x="1780.86" y="1565.07">R332</text>
<circle cx="18.66" cy="1638.42" r="10"/>
<text x="18.66" y="1643.42">R333</text>
<circle cx="1421.57" cy="1524.60" r="10"/>
<text x="1421.57" y="1529.60">R334</text>
<circle cx="73.42" cy="1617.33" r="10"/>
<text x="73.42" y="1622.33">R335</text>
<circle cx="1446.26" cy="1875.09" r="10"/>
<text x="1446.26" y="1880.09">R336</text>
<circle cx="1514.07" cy="418.87" r="10"/>
<text x="1514.07" y="423.87">R337</text>
<circle cx="1489.84" cy="534.01" r="10"/>
<text x="1489.84" y="539.01">R338</text>
<circle cx="1069.96" cy="314.40" r="10"/>
<text x="1069.96" y="319.40">R339</text>
<circle cx="1280.51" cy="2033.34" r="10"/>
<text x="1280.51" y="2038.34">R340</text>
<circle cx="1426.72" cy="809.43" r="10"/>
<text x="1426.72" y="814.43">R341</text>
<circle cx="370.19" cy="613.32" r="10"/>
<text x="370.19" y="618.32">R342</text>
<circle cx="619.84" cy="1136.93" r="10"/>
<text x="619.84" y="1141.93">R343</text>
<circle cx="266.10" cy="402.14" r="10"/>
<text x="266.10" y="407.14">R344</text>
<circle cx="1373.72" cy="1178.11" r="10"/>
<text x="1373.72" y="1183.11">R345</text>
<circle cx="765.39" cy="97.41" r="10"/>
<text x="765.39" y="102.41">R346</text>
<circle cx="448.11" cy="1301.40" r="10"/>
<text x="448.11" y="1306.40">R347</text>
<circle cx="40.34" cy="1306.78" r="10"/>
<text x="40.34" y="1311.78">R348</text>
<circle cx="1027.26" cy="1966.64" r="10"/>
<text x="1027.26" y="1971.64">R349</text>
<circle cx="196.40" cy="1096.06" r="10"/>
<text x="196.40" y="1101.06">R350</text>
<circle cx="1552.60" cy="1414.23" r="10"/>
<text x="1552.60" y="1419.23">R351</text>
<circle cx="177.62" cy="461.07" r="10"/>
<text x="177.62" y="466.07">R352</text>
<circle cx="1406.04" cy="620.70" r="10"/>
<text x="1406.04" y="625.70">R353</text>
<circle cx="37.47" cy="598.24" r="10"/>
<text x="37.47" y="603.24">R354</text>
<circle cx="1922.57" cy="1902.73" r="10"/>
<text x="1922.57" y="1907.73">R355</text>
<circle cx="984.19" cy="738.85" r="10"/>
<text x="984.19" y="743.85">R356</text>
<circle cx="296.65" cy="30.42" r="10"/>
<text x="296.65" y="35.42">R357</text>
<circle cx="1878.90" cy="327.84" r="10"/>
<text x="1878.90" y="332.84">R358</text>
<circle cx="300.43" cy="1260.80" r="10"/>
<text x="300.43" y="1265.80">R359</text>
<circle cx="1325.35" cy="1722.15" r="10"/>
<text x="1325.35" y="1727.15">R360</text>
<circle cx="156.11" cy="979.80" r="10"/>
<text x="156.11" y="984.80">R361</text>
<circle cx="573.16" cy="1689.99" r="10"/>
<text x="573.16" y="1694.99">R362</text>
<circle cx="1069.55" cy="411.36" r="10"/>
<text x="1069.55" y="416.36">R363</text>
<circle cx="60.00" cy="1330.22" r="10"/>
<text x="60.00" y="1335.22">R364</text>
<circle cx="1326.70" cy="1758.89" r="10"/>
<text x="1326.70" y="1763.89">R365</text>
<circle cx="1156.29" cy="1984.12" r="10"/>
<text x="1156.29" y="1989.12">R366</text>
<circle cx="1467.30" cy="441.23" r="10"/>
<text x="1467.30" y="446.23">R367</text>
<circle cx="1315.31" cy="1031.18" r="10"/>
<text x="1315.31" y="1036.18">R368</text>
<circle cx="614.75" cy="1690.39" r="10"/>
<text x="614.75" y="1695.39">R369</text>
<circle cx="451.07" cy="398.96" r="10"/>
<text x="451.07" y="403.96">R370</text>
<circle cx="1919.39" cy="75.36" r="10"/>
<text x="1919.39" y="80.36">R371</text>
<circle cx="93.74" cy="1711.06" r="10"/>
<text x="93.74" y="1716.06">R372</text>
<circle cx="219.57" cy="1997.86" r="10"/>
<text x="219.57" y="2002.86">R373</text>
<circle cx="1082.13" cy="488.68" r="10"/>
<text x="1082.13" y="493.68">R374</text>
<circle cx="1217.23" cy="893.32" r="10"/>
<text x="1217.23" y="898.32">R375</text>
<circle cx="793.37" cy="2010.93" r="10"/>
<text x="793.37" y="2015.93">R376</text>
<circle cx="1275.32" cy="270.38" r="10"/>
<text x="1275.32" y="275.38">R377</text>
<circle cx="2015.08" cy="303.77" r="10"/>
<text x="2015.08" y="308.77">R378</text>
<circle cx="559.33" cy="952.28" r="10"/>
<text x="559.33" y="957.28">R379</text>
<circle cx="162.22" cy="871.49" r="10"/>
<text x="162.22" y="876.49">R380</text>
<circle cx="1627.80" cy="838.63" r="10"/>
<text x="1627.80" y="843.63">R381</text>
<circle cx="1917.53" cy="1279.88" r="10"/>
<text x="1917.53" y="1284.88">R382</text>
<circle cx="1003.79" cy="1906.15" r="10"/>
<text x="1003.79" y="1911.15">R383</text>
<circle cx="1716.40" cy="772.97" r="10"/>
<text x="1716.40" y="777.97">R384</text>
<circle cx="436.39" cy="974.45" r="10"/>
<text x="436.39" y="979.45">R385</text>
<circle cx="1348.10" cy="1895.72" r="10"/>
<text x="1348.10" y="1900.72">R386</text>
<circle cx="778.01" cy="1288.63" r="10"/>
<text x="778.01" y="1293.63">R387</text>
<circle cx="308.63" cy="1704.25" r="10"/>
<text x="308.63" y="1709.25">R388</text>
<circle cx="1852.60" cy="1750.12" r="10"/>
<text x="1852.60" y="1755.12">R389</text>
<circle cx="950.67" cy="699.19" r="10"/>
<text x="950.67" y="704.19">R390</text>
<circle cx="1400.65" cy="869.54" r="10"/>
<text x="1400.65" y="874.54">R391</text>
<circle cx="387.18" cy="964.53" r="10"/>
<text x="387.18" y="969.53">R392</text>
<circle cx="1540.10" cy="2020.86" r="10"/>
<text x="1540.10" y="2025.86">R393</text>
<circle cx="80.25" cy="38.32" r="10"/>
<text x="80.25" y="43.32">R394</text>
<circle cx="597.08" cy="659.54" r="10"/>
<text x="597.08" y="664.54">R395</text>
<circle cx="630.09" cy="289.75" r="10"/>
<text x="630.09" y="294.75">R396</text>
<circle cx="1578.02" cy="1203.65" r="10"/>
<text x="1578.02" y="1208.65">R397</text>
<circle cx="181.38" cy="630.08" r="10"/>
<text x="181.38" y="635.08">R398</text>
<circle cx="127.42" cy="2022.05" r="10"/>
<text x="127.42" y="2027.05">R399</text>
<circle cx="1925.45" cy="356.45" r="10"/>
<text x="1925.45" y="361.45">R400</text>
<circle cx="1491.45" cy="291.51" r="10"/>
<text x="1491.45" y="296.51">R401</text>
<circle cx="1964.46" cy="640.98" r="10"/>
<text x="1964.46" y="645.98">R402</text>
<circle cx="1244.30" cy="1611.01" r="10"/>
<text x="1244.30" y="1616.01">R403</text>
<circle cx="171.46" cy="1360.29" r="10"/>
<text x="171.46" y="1365.29">R404</text>
<circle cx="877.01" cy="376.33" r="10"/>
<text x="877.01" y="381.33">R405</text>
<circle cx="1905.18" cy="1033.93" r="10"/>
<text x="1905.18" y="1038.93">R406</text>
<circle cx="1108.07" cy="932.40" r="10"/>
<text x="1108.07" y="937.40">R407</text>
<circle cx="1362.91" cy="550.68" r="10"/>
<text x="1362.91" y="555.68">R408</text>
<circle cx="100.08" cy="290.34" r="10"/>
<text x="100.08" y="295.34">R409</text>
<circle cx="1149.57" cy="1349.15" r="10"/>
<text x="1149.57" y="1354.15">R410</text>
<circle cx="1841.82" cy="1859.27" r="10"/>
<text x="1841.82" y="1864.27">R411</text>
<circle cx="6.81" cy="1916.12" r="10"/>
<text x="6.81" y="1921.12">R412</text>
<circle cx="459.94" cy="236.27" r="10"/>
<text x="459.94" y="241.27">R413</text>
<circle cx="775.07" cy="1488.14" r="10"/>
<text x="775.07" y="1493.14">R414</text>
<circle cx="476.90" cy="973.56" r="10"/>
<text x="476.90" y="978.56">R415</text>
<circle cx="922.15" cy="1401.34" r="10"/>
<text x="922.15" y="1406.34">R416</text>
<circle cx="798.89" cy="963.74" r="10"/>
<text x="798.89" y="968.74">R417</text>
<circle cx="652.43" cy="1500.64" r="10"/>
<text x="652.43" y="1505.64">R418</text>
<circle cx="256.61" cy="900.12" r="10"/>
<text x="256.61" y="905.12">R419</text>
<circle cx="809.77" cy="1936.60" r="10"/>
<text x="809.77" y="1941.60">R420</text>
<circle cx="124.44" cy="526.70" r="10"/>
<text x="124.44" y="531.70">R421</text>
<circle cx="747.23" cy="412.32" r="10"/>
<text x="747.23" y="417.32">R422</text>
<circle cx="733.88" cy="1625.13" r="10"/>
<text x="733.88" y="1630.13">R423</text>
<circle cx="497.93" cy="1524.46" r="10"/>
<text x="497.93" y="1529.46">R424</text>
</svg>
