<svg id="topo" viewBox="-39.37 -828.05 884.95 861.55" xmlns="http://www.w3.org/2000/svg">
<style>#topo path {fill: none; stroke: grey; stroke-width: 5.0000px;} #topo circle {fill: lightblue; stroke: none; stroke-width: 0.3px; vector-effect: non-scaling-stroke; r: 10.0000px;} #topo text {fill: black; stroke: none; font-size: 15.0000px; font-family: sans-serif; text-anchor:middle; transform: translateY(0.3em);} #topo path.country {fill: lightgrey; stroke: black; stroke-width: 1px; vector-effect: non-scaling-stroke; visibility: visible;} #topo path.selection {fill: none; stroke: red; stroke-width: 1px; vector-effect: non-scaling-stroke; visibility: visible;} #topo path.utilization {visibility: hidden;}</style>
<path data-id="0-30" d="M678.02,-534.39,636.12,-506.84"/>
<path data-id="0-46" d="M678.02,-534.39,724.36,-544.05"/>
<path data-id="0-54" d="M678.02,-534.39,640.37,-668.17"/>
<path data-id="1-41" d="M725.72,-68.05,753.82,-9.31"/>
<path data-id="1-44" d="M725.72,-68.05,768.20,-142.58"/>
<path data-id="1-55" d="M725.72,-68.05,590.99,-138.53"/>
<path data-id="2-6" d="M503.86,-137.83,454.33,-104.24"/>
<path data-id="2-52" d="M503.86,-137.83,493.33,-189.22"/>
<path data-id="2-55" d="M503.86,-137.83,590.99,-138.53"/>
<path data-id="2-60" d="M503.86,-137.83,570.51,-195.15"/>
<path data-id="3-8" d="M709.44,-261.32,628.82,-255.55"/>
<path data-id="3-43" d="M709.44,-261.32,800.86,-278.83"/>
<path data-id="3-44" d="M709.44,-261.32,768.20,-142.58"/>
<path data-id="3-62" d="M709.44,-261.32,772.32,-318.61"/>
<path data-id="4-15" d="M728.56,-728.96,805.35,-707.11"/>
<path data-id="4-54" d="M728.56,-728.96,640.37,-668.17"/>
<path data-id="5-42" d="M532.17,-788.89,539.31,-644.06"/>
<path data-id="5-54" d="M532.17,-788.89,640.37,-668.17"/>
<path data-id="6-47" d="M454.33,-104.24,419.58,-22.98"/>
<path data-id="6-63" d="M454.33,-104.24,372.78,-110.24"/>
<path data-id="7-18" d="M162.76,-667.82,111.95,-649.66"/>
<path data-id="7-21" d="M162.76,-667.82,194.73,-683.96"/>
<path data-id="7-26" d="M162.76,-667.82,141.85,-717.87"/>
<path data-id="7-35" d="M162.76,-667.82,228.53,-504.79"/>
<path data-id="8-53" d="M628.82,-255.55,584.20,-232.00"/>
<path data-id="8-59" d="M628.82,-255.55,602.72,-367.20"/>
<path data-id="9-22" d="M83.02,-296.68,154.73,-332.55"/>
<path data-id="9-36" d="M83.02,-296.68,84.29,-458.65"/>
<path data-id="9-45" d="M83.02,-296.68,22.71,-75.64"/>
<path data-id="10-13" d="M557.56,-475.38,503.98,-442.89"/>
<path data-id="10-17" d="M557.56,-475.38,524.54,-417.89"/>
<path data-id="10-23" d="M557.56,-475.38,641.08,-407.65"/>
<path data-id="10-50" d="M557.56,-475.38,596.56,-528.39"/>
<path data-id="11-20" d="M237.03,-291.38,221.64,-380.33"/>
<path data-id="11-31" d="M237.03,-291.38,379.88,-231.48"/>
<path data-id="11-32" d="M237.03,-291.38,293.03,-358.24"/>
<path data-id="11-37" d="M237.03,-291.38,198.96,-279.61"/>
<path data-id="12-21" d="M289.03,-596.30,194.73,-683.96"/>
<path data-id="12-29" d="M289.03,-596.30,427.27,-618.16"/>
<path data-id="12-33" d="M289.03,-596.30,417.78,-562.86"/>
<path data-id="12-35" d="M289.03,-596.30,228.53,-504.79"/>
<path data-id="12-51" d="M289.03,-596.30,277.98,-481.41"/>
<path data-id="13-16" d="M503.98,-442.89,421.75,-472.02"/>
<path data-id="13-17" d="M503.98,-442.89,524.54,-417.89"/>
<path data-id="13-38" d="M503.98,-442.89,451.62,-380.71"/>
<path data-id="14-40" d="M324.28,-28.32,290.88,-43.41"/>
<path data-id="14-57" d="M324.28,-28.32,369.67,-5.67"/>
<path data-id="14-63" d="M324.28,-28.32,372.78,-110.24"/>
<path data-id="15-46" d="M805.35,-707.11,724.36,-544.05"/>
<path data-id="16-38" d="M421.75,-472.02,451.62,-380.71"/>
<path data-id="16-39" d="M421.75,-472.02,362.37,-377.11"/>
<path data-id="16-51" d="M421.75,-472.02,277.98,-481.41"/>
<path data-id="16-61" d="M421.75,-472.02,423.89,-537.59"/>
<path data-id="17-38" d="M524.54,-417.89,451.62,-380.71"/>
<path data-id="17-59" d="M524.54,-417.89,602.72,-367.20"/>
<path data-id="18-26" d="M111.95,-649.66,141.85,-717.87"/>
<path data-id="18-56" d="M111.95,-649.66,72.01,-534.59"/>
<path data-id="18-58" d="M111.95,-649.66,0.85,-711.22"/>
<path data-id="19-48" d="M745.49,-355.31,692.90,-401.61"/>
<path data-id="19-62" d="M745.49,-355.31,772.32,-318.61"/>
<path data-id="20-22" d="M221.64,-380.33,154.73,-332.55"/>
<path data-id="20-32" d="M221.64,-380.33,293.03,-358.24"/>
<path data-id="20-35" d="M221.64,-380.33,228.53,-504.79"/>
<path data-id="20-49" d="M221.64,-380.33,159.96,-416.11"/>
<path data-id="20-51" d="M221.64,-380.33,277.98,-481.41"/>
<path data-id="21-26" d="M194.73,-683.96,141.85,-717.87"/>
<path data-id="22-37" d="M154.73,-332.55,198.96,-279.61"/>
<path data-id="22-49" d="M154.73,-332.55,159.96,-416.11"/>
<path data-id="23-30" d="M641.08,-407.65,636.12,-506.84"/>
<path data-id="23-48" d="M641.08,-407.65,692.90,-401.61"/>
<path data-id="23-59" d="M641.08,-407.65,602.72,-367.20"/>
<path data-id="24-34" d="M295.27,-93.60,201.09,-248.49"/>
<path data-id="24-40" d="M295.27,-93.60,290.88,-43.41"/>
<path data-id="24-45" d="M295.27,-93.60,22.71,-75.64"/>
<path data-id="24-63" d="M295.27,-93.60,372.78,-110.24"/>
<path data-id="25-26" d="M113.19,-752.80,141.85,-717.87"/>
<path data-id="25-27" d="M113.19,-752.80,151.48,-742.57"/>
<path data-id="25-58" d="M113.19,-752.80,0.85,-711.22"/>
<path data-id="26-27" d="M141.85,-717.87,151.48,-742.57"/>
<path data-id="28-43" d="M803.61,-138.84,800.86,-278.83"/>
<path data-id="28-44" d="M803.61,-138.84,768.20,-142.58"/>
<path data-id="29-33" d="M427.27,-618.16,417.78,-562.86"/>
<path data-id="29-42" d="M427.27,-618.16,539.31,-644.06"/>
<path data-id="30-50" d="M636.12,-506.84,596.56,-528.39"/>
<path data-id="31-32" d="M379.88,-231.48,293.03,-358.24"/>
<path data-id="31-52" d="M379.88,-231.48,493.33,-189.22"/>
<path data-id="31-63" d="M379.88,-231.48,372.78,-110.24"/>
<path data-id="31-64" d="M379.88,-231.48,426.86,-341.24"/>
<path data-id="32-39" d="M293.03,-358.24,362.37,-377.11"/>
<path data-id="32-51" d="M293.03,-358.24,277.98,-481.41"/>
<path data-id="33-61" d="M417.78,-562.86,423.89,-537.59"/>
<path data-id="34-37" d="M201.09,-248.49,198.96,-279.61"/>
<path data-id="34-45" d="M201.09,-248.49,22.71,-75.64"/>
<path data-id="35-49" d="M228.53,-504.79,159.96,-416.11"/>
<path data-id="35-51" d="M228.53,-504.79,277.98,-481.41"/>
<path data-id="35-56" d="M228.53,-504.79,72.01,-534.59"/>
<path data-id="36-49" d="M84.29,-458.65,159.96,-416.11"/>
<path data-id="36-56" d="M84.29,-458.65,72.01,-534.59"/>
<path data-id="38-64" d="M451.62,-380.71,426.86,-341.24"/>
<path data-id="39-51" d="M362.37,-377.11,277.98,-481.41"/>
<path data-id="39-64" d="M362.37,-377.11,426.86,-341.24"/>
<path data-id="40-45" d="M290.88,-43.41,22.71,-75.64"/>
<path data-id="42-50" d="M539.31,-644.06,596.56,-528.39"/>
<path data-id="42-54" d="M539.31,-644.06,640.37,-668.17"/>
<path data-id="43-44" d="M800.86,-278.83,768.20,-142.58"/>
<path data-id="43-62" d="M800.86,-278.83,772.32,-318.61"/>
<path data-id="47-57" d="M419.58,-22.98,369.67,-5.67"/>
<path data-id="47-63" d="M419.58,-22.98,372.78,-110.24"/>
<path data-id="50-54" d="M596.56,-528.39,640.37,-668.17"/>
<path data-id="51-61" d="M277.98,-481.41,423.89,-537.59"/>
<path data-id="52-60" d="M493.33,-189.22,570.51,-195.15"/>
<path data-id="52-64" d="M493.33,-189.22,426.86,-341.24"/>
<path data-id="53-60" d="M584.20,-232.00,570.51,-195.15"/>
<path data-id="53-64" d="M584.20,-232.00,426.86,-341.24"/>
<path data-id="55-60" d="M590.99,-138.53,570.51,-195.15"/>
<path data-id="57-63" d="M369.67,-5.67,372.78,-110.24"/>
<circle data-id="0" cx="678.02" cy="-534.39" r="10.00px"/>
<text data-id="0" x="678.02" y="-534.39">R0</text>
<circle data-id="1" cx="725.72" cy="-68.05" r="10.00px"/>
<text data-id="1" x="725.72" y="-68.05">R1</text>
<circle data-id="2" cx="503.86" cy="-137.83" r="10.00px"/>
<text data-id="2" x="503.86" y="-137.83">R2</text>
<circle data-id="3" cx="709.44" cy="-261.32" r="10.00px"/>
<text data-id="3" x="709.44" y="-261.32">R3</text>
<circle data-id="4" cx="728.56" cy="-728.96" r="10.00px"/>
<text data-id="4" x="728.56" y="-728.96">R4</text>
<circle data-id="5" cx="532.17" cy="-788.89" r="10.00px"/>
<text data-id="5" x="532.17" y="-788.89">R5</text>
<circle data-id="6" cx="454.33" cy="-104.24" r="10.00px"/>
<text data-id="6" x="454.33" y="-104.24">R6</text>
<circle data-id="7" cx="162.76" cy="-667.82" r="10.00px"/>
<text data-id="7" x="162.76" y="-667.82">R7</text>
<circle data-id="8" cx="628.82" cy="-255.55" r="10.00px"/>
<text data-id="8" x="628.82" y="-255.55">R8</text>
<circle data-id="9" cx="83.02" cy="-296.68" r="10.00px"/>
<text data-id="9" x="83.02" y="-296.68">R9</text>
<circle data-id="10" cx="557.56" cy="-475.38" r="10.00px"/>
<text data-id="10" x="557.56" y="-475.38">R10</text>
<circle data-id="11" cx="237.03" cy="-291.38" r="10.00px"/>
<text data-id="11" x="237.03" y="-291.38">R11</text>
<circle data-id="12" cx="289.03" cy="-596.30" r="10.00px"/>
<text data-id="12" x="289.03" y="-596.30">R12</text>
<circle data-id="13" cx="503.98" cy="-442.89" r="10.00px"/>
<text data-id="13" x="503.98" y="-442.89">R13</text>
<circle data-id="14" cx="324.28" cy="-28.32" r="10.00px"/>
<text data-id="14" x="324.28" y="-28.32">R14</text>
<circle data-id="15" cx="805.35" cy="-707.11" r="10.00px"/>
<text data-id="15" x="805.35" y="-707.11">R15</text>
<circle data-id="16" cx="421.75" cy="-472.02" r="10.00px"/>
<text data-id="16" x="421.75" y="-472.02">R16</text>
<circle data-id="17" cx="524.54" cy="-417.89" r="10.00px"/>
<text data-id="17" x="524.54" y="-417.89">R17</text>
<circle data-id="18" cx="111.95" cy="-649.66" r="10.00px"/>
<text data-id="18" x="111.95" y="-649.66">R18</text>
<circle data-id="19" cx="745.49" cy="-355.31" r="10.00px"/>
<text data-id="19" x="745.49" y="-355.31">R19</text>
<circle data-id="20" cx="221.64" cy="-380.33" r="10.00px"/>
<text data-id="20" x="221.64" y="-380.33">R20</text>
<circle data-id="21" cx="194.73" cy="-683.96" r="10.00px"/>
<text data-id="21" x="194.73" y="-683.96">R21</text>
<circle data-id="22" cx="154.73" cy="-332.55" r="10.00px"/>
<text data-id="22" x="154.73" y="-332.55">R22</text>
<circle data-id="23" cx="641.08" cy="-407.65" r="10.00px"/>
<text data-id="23" x="641.08" y="-407.65">R23</text>
<circle data-id="24" cx="295.27" cy="-93.60" r="10.00px"/>
<text data-id="24" x="295.27" y="-93.60">R24</text>
<circle data-id="25" cx="113.19" cy="-752.80" r="10.00px"/>
<text data-id="25" x="113.19" y="-752.80">R25</text>
<circle data-id="26" cx="141.85" cy="-717.87" r="10.00px"/>
<text data-id="26" x="141.85" y="-717.87">R26</text>
<circle data-id="27" cx="151.48" cy="-742.57" r="10.00px"/>
<text data-id="27" x="151.48" y="-742.57">R27</text>
<circle data-id="28" cx="803.61" cy="-138.84" r="10.00px"/>
<text data-id="28" x="803.61" y="-138.84">R28</text>
<circle data-id="29" cx="427.27" cy="-618.16" r="10.00px"/>
<text data-id="29" x="427.27" y="-618.16">R29</text>
<circle data-id="30" cx="636.12" cy="-506.84" r="10.00px"/>
<text data-id="30" x="636.12" y="-506.84">R30</text>
<circle data-id="31" cx="379.88" cy="-231.48" r="10.00px"/>
<text data-id="31" x="379.88" y="-231.48">R31</text>
<circle data-id="32" cx="293.03" cy="-358.24" r="10.00px"/>
<text data-id="32" x="293.03" y="-358.24">R32</text>
<circle data-id="33" cx="417.78" cy="-562.86" r="10.00px"/>
<text data-id="33" x="417.78" y="-562.86">R33</text>
<circle data-id="34" cx="201.09" cy="-248.49" r="10.00px"/>
<text data-id="34" x="201.09" y="-248.49">R34</text>
<circle data-id="35" cx="228.53" cy="-504.79" r="10.00px"/>
<text data-id="35" x="228.53" y="-504.79">R35</text>
<circle data-id="36" cx="84.29" cy="-458.65" r="10.00px"/>
<text data-id="36" x="84.29" y="-458.65">R36</text>
<circle data-id="37" cx="198.96" cy="-279.61" r="10.00px"/>
<text data-id="37" x="198.96" y="-279.61">R37</text>
<circle data-id="38" cx="451.62" cy="-380.71" r="10.00px"/>
<text data-id="38" x="451.62" y="-380.71">R38</text>
<circle data-id="39" cx="362.37" cy="-377.11" r="10.00px"/>
<text data-id="39" x="362.37" y="-377.11">R39</text>
<circle data-id="40" cx="290.88" cy="-43.41" r="10.00px"/>
<text data-id="40" x="290.88" y="-43.41">R40</text>
<circle data-id="41" cx="753.82" cy="-9.31" r="10.00px"/>
<text data-id="41" x="753.82" y="-9.31">R41</text>
<circle data-id="42" cx="539.31" cy="-644.06" r="10.00px"/>
<text data-id="42" x="539.31" y="-644.06">R42</text>
<circle data-id="43" cx="800.86" cy="-278.83" r="10.00px"/>
<text data-id="43" x="800.86" y="-278.83">R43</text>
<circle data-id="44" cx="768.20" cy="-142.58" r="10.00px"/>
<text data-id="44" x="768.20" y="-142.58">R44</text>
<circle data-id="45" cx="22.71" cy="-75.64" r="10.00px"/>
<text data-id="45" x="22.71" y="-75.64">R45</text>
<circle data-id="46" cx="724.36" cy="-544.05" r="10.00px"/>
<text data-id="46" x="724.36" y="-544.05">R46</text>
<circle data-id="47" cx="419.58" cy="-22.98" r="10.00px"/>
<text data-id="47" x="419.58" y="-22.98">R47</text>
<circle data-id="48" cx="692.90" cy="-401.61" r="10.00px"/>
<text data-id="48" x="692.90" y="-401.61">R48</text>
<circle data-id="49" cx="159.96" cy="-416.11" r="10.00px"/>
<text data-id="49" x="159.96" y="-416.11">R49</text>
<circle data-id="50" cx="596.56" cy="-528.39" r="10.00px"/>
<text data-id="50" x="596.56" y="-528.39">R50</text>
<circle data-id="51" cx="277.98" cy="-481.41" r="10.00px"/>
<text data-id="51" x="277.98" y="-481.41">R51</text>
<circle data-id="52" cx="493.33" cy="-189.22" r="10.00px"/>
<text data-id="52" x="493.33" y="-189.22">R52</text>
<circle data-id="53" cx="584.20" cy="-232.00" r="10.00px"/>
<text data-id="53" x="584.20" y="-232.00">R53</text>
<circle data-id="54" cx="640.37" cy="-668.17" r="10.00px"/>
<text data-id="54" x="640.37" y="-668.17">R54</text>
<circle data-id="55" cx="590.99" cy="-138.53" r="10.00px"/>
<text data-id="55" x="590.99" y="-138.53">R55</text>
<circle data-id="56" cx="72.01" cy="-534.59" r="10.00px"/>
<text data-id="56" x="72.01" y="-534.59">R56</text>
<circle data-id="57" cx="369.67" cy="-5.67" r="10.00px"/>
<text data-id="57" x="369.67" y="-5.67">R57</text>
<circle data-id="58" cx="0.85" cy="-711.22" r="10.00px"/>
<text data-id="58" x="0.85" y="-711.22">R58</text>
<circle data-id="59" cx="602.72" cy="-367.20" r="10.00px"/>
<text data-id="59" x="602.72" y="-367.20">R59</text>
<circle data-id="60" cx="570.51" cy="-195.15" r="10.00px"/>
<text data-id="60" x="570.51" y="-195.15">R60</text>
<circle data-id="61" cx="423.89" cy="-537.59" r="10.00px"/>
<text data-id="61" x="423.89" y="-537.59">R61</text>
<circle data-id="62" cx="772.32" cy="-318.61" r="10.00px"/>
<text data-id="62" x="772.32" y="-318.61">R62</text>
<circle data-id="63" cx="372.78" cy="-110.24" r="10.00px"/>
<text data-id="63" x="372.78" y="-110.24">R63</text>
<circle data-id="64" cx="426.86" cy="-341.24" r="10.00px"/>
<text data-id="64" x="426.86" y="-341.24">R64</text>
</svg>
