<svg id="topo" viewBox="-6.92 -835.73 836.06 872.09" xmlns="http://www.w3.org/2000/svg">
<style>#topo path {fill: none; stroke: grey; stroke-width: 5.0000px;} #topo circle {fill: lightblue; stroke: none; stroke-width: 0.3px; vector-effect: non-scaling-stroke; r: 10.0000px;} #topo text {fill: black; stroke: none; font-size: 15.0000px; font-family: sans-serif; text-anchor:middle; transform: translateY(0.3em);} #topo path.country {fill: lightgrey; stroke: black; stroke-width: 1px; vector-effect: non-scaling-stroke; visibility: visible;} #topo path.selection {fill: none; stroke: red; stroke-width: 1px; vector-effect: non-scaling-stroke; visibility: visible;} #topo path.utilization {visibility: hidden;}</style>
<path data-id="0-17" d="M251.91,-559.20,205.56,-555.56"/>
<path data-id="0-56" d="M251.91,-559.20,301.25,-548.81"/>
<path data-id="0-61" d="M251.91,-559.20,199.94,-686.06"/>
<path data-id="1-3" d="M314.78,-228.70,240.83,-177.28"/>
<path data-id="1-7" d="M314.78,-228.70,446.17,-347.60"/>
<path data-id="1-12" d="M314.78,-228.70,375.24,-182.23"/>
<path data-id="1-27" d="M314.78,-228.70,311.32,-351.24"/>
<path data-id="1-32" d="M314.78,-228.70,172.83,-310.60"/>
<path data-id="2-4" d="M378.72,-145.68,382.37,-113.91"/>
<path data-id="2-12" d="M378.72,-145.68,375.24,-182.23"/>
<path data-id="3-19" d="M240.83,-177.28,360.11,-85.64"/>
<path data-id="3-33" d="M240.83,-177.28,172.73,-183.51"/>
<path data-id="3-50" d="M240.83,-177.28,318.51,-43.87"/>
<path data-id="3-55" d="M240.83,-177.28,189.09,-29.42"/>
<path data-id="4-19" d="M382.37,-113.91,360.11,-85.64"/>
<path data-id="4-37" d="M382.37,-113.91,424.95,-100.23"/>
<path data-id="4-59" d="M382.37,-113.91,408.81,-53.99"/>
<path data-id="5-13" d="M56.47,-419.61,31.08,-445.69"/>
<path data-id="5-21" d="M56.47,-419.61,167.74,-357.69"/>
<path data-id="5-23" d="M56.47,-419.61,82.60,-448.89"/>
<path data-id="6-34" d="M128.21,-562.80,32.98,-586.07"/>
<path data-id="6-39" d="M128.21,-562.80,170.03,-552.64"/>
<path data-id="6-40" d="M128.21,-562.80,146.90,-462.59"/>
<path data-id="6-61" d="M128.21,-562.80,199.94,-686.06"/>
<path data-id="7-12" d="M446.17,-347.60,375.24,-182.23"/>
<path data-id="7-43" d="M446.17,-347.60,646.28,-224.64"/>
<path data-id="7-52" d="M446.17,-347.60,589.05,-156.56"/>
<path data-id="7-53" d="M446.17,-347.60,402.65,-386.58"/>
<path data-id="7-58" d="M446.17,-347.60,454.24,-411.04"/>
<path data-id="8-24" d="M679.54,-333.34,624.28,-436.80"/>
<path data-id="8-36" d="M679.54,-333.34,719.72,-324.60"/>
<path data-id="8-43" d="M679.54,-333.34,646.28,-224.64"/>
<path data-id="8-63" d="M679.54,-333.34,702.54,-351.63"/>
<path data-id="9-41" d="M388.86,-11.81,324.51,-3.28"/>
<path data-id="9-59" d="M388.86,-11.81,408.81,-53.99"/>
<path data-id="10-25" d="M757.79,-53.19,636.62,-103.51"/>
<path data-id="10-49" d="M757.79,-53.19,742.41,-9.68"/>
<path data-id="11-42" d="M707.87,-701.06,761.17,-676.83"/>
<path data-id="11-44" d="M707.87,-701.06,655.56,-710.39"/>
<path data-id="11-46" d="M707.87,-701.06,640.36,-616.18"/>
<path data-id="11-54" d="M707.87,-701.06,736.19,-649.00"/>
<path data-id="13-23" d="M31.08,-445.69,82.60,-448.89"/>
<path data-id="13-34" d="M31.08,-445.69,32.98,-586.07"/>
<path data-id="14-26" d="M703.20,-610.50,704.77,-515.86"/>
<path data-id="14-46" d="M703.20,-610.50,640.36,-616.18"/>
<path data-id="14-48" d="M703.20,-610.50,766.57,-592.53"/>
<path data-id="14-54" d="M703.20,-610.50,736.19,-649.00"/>
<path data-id="15-20" d="M577.21,-54.63,618.59,-41.92"/>
<path data-id="15-25" d="M577.21,-54.63,636.62,-103.51"/>
<path data-id="15-30" d="M577.21,-54.63,548.54,-58.44"/>
<path data-id="15-52" d="M577.21,-54.63,589.05,-156.56"/>
<path data-id="16-31" d="M791.14,-396.40,712.02,-440.23"/>
<path data-id="16-36" d="M791.14,-396.40,719.72,-324.60"/>
<path data-id="16-63" d="M791.14,-396.40,702.54,-351.63"/>
<path data-id="17-39" d="M205.56,-555.56,170.03,-552.64"/>
<path data-id="17-61" d="M205.56,-555.56,199.94,-686.06"/>
<path data-id="18-29" d="M444.14,-796.09,590.96,-711.42"/>
<path data-id="18-60" d="M444.14,-796.09,397.96,-669.55"/>
<path data-id="19-50" d="M360.11,-85.64,318.51,-43.87"/>
<path data-id="19-59" d="M360.11,-85.64,408.81,-53.99"/>
<path data-id="20-25" d="M618.59,-41.92,636.62,-103.51"/>
<path data-id="20-49" d="M618.59,-41.92,742.41,-9.68"/>
<path data-id="21-23" d="M167.74,-357.69,82.60,-448.89"/>
<path data-id="21-27" d="M167.74,-357.69,311.32,-351.24"/>
<path data-id="21-32" d="M167.74,-357.69,172.83,-310.60"/>
<path data-id="21-40" d="M167.74,-357.69,146.90,-462.59"/>
<path data-id="22-28" d="M432.57,-621.31,530.09,-492.70"/>
<path data-id="22-29" d="M432.57,-621.31,590.96,-711.42"/>
<path data-id="22-46" d="M432.57,-621.31,640.36,-616.18"/>
<path data-id="22-56" d="M432.57,-621.31,301.25,-548.81"/>
<path data-id="22-57" d="M432.57,-621.31,363.16,-457.03"/>
<path data-id="22-60" d="M432.57,-621.31,397.96,-669.55"/>
<path data-id="23-34" d="M82.60,-448.89,32.98,-586.07"/>
<path data-id="23-40" d="M82.60,-448.89,146.90,-462.59"/>
<path data-id="24-28" d="M624.28,-436.80,530.09,-492.70"/>
<path data-id="24-31" d="M624.28,-436.80,712.02,-440.23"/>
<path data-id="24-62" d="M624.28,-436.80,644.04,-479.57"/>
<path data-id="24-63" d="M624.28,-436.80,702.54,-351.63"/>
<path data-id="25-52" d="M636.62,-103.51,589.05,-156.56"/>
<path data-id="26-31" d="M704.77,-515.86,712.02,-440.23"/>
<path data-id="26-48" d="M704.77,-515.86,766.57,-592.53"/>
<path data-id="26-62" d="M704.77,-515.86,644.04,-479.57"/>
<path data-id="27-32" d="M311.32,-351.24,172.83,-310.60"/>
<path data-id="27-53" d="M311.32,-351.24,402.65,-386.58"/>
<path data-id="27-57" d="M311.32,-351.24,363.16,-457.03"/>
<path data-id="28-46" d="M530.09,-492.70,640.36,-616.18"/>
<path data-id="28-58" d="M530.09,-492.70,454.24,-411.04"/>
<path data-id="28-62" d="M530.09,-492.70,644.04,-479.57"/>
<path data-id="29-44" d="M590.96,-711.42,655.56,-710.39"/>
<path data-id="29-46" d="M590.96,-711.42,640.36,-616.18"/>
<path data-id="30-47" d="M548.54,-58.44,474.34,-45.98"/>
<path data-id="30-52" d="M548.54,-58.44,589.05,-156.56"/>
<path data-id="31-62" d="M712.02,-440.23,644.04,-479.57"/>
<path data-id="31-63" d="M712.02,-440.23,702.54,-351.63"/>
<path data-id="32-33" d="M172.83,-310.60,172.73,-183.51"/>
<path data-id="33-51" d="M172.73,-183.51,119.69,-177.16"/>
<path data-id="33-55" d="M172.73,-183.51,189.09,-29.42"/>
<path data-id="35-41" d="M290.30,-23.22,324.51,-3.28"/>
<path data-id="35-50" d="M290.30,-23.22,318.51,-43.87"/>
<path data-id="35-55" d="M290.30,-23.22,189.09,-29.42"/>
<path data-id="36-63" d="M719.72,-324.60,702.54,-351.63"/>
<path data-id="37-47" d="M424.95,-100.23,474.34,-45.98"/>
<path data-id="37-59" d="M424.95,-100.23,408.81,-53.99"/>
<path data-id="38-45" d="M52.54,-20.43,73.42,-113.65"/>
<path data-id="38-55" d="M52.54,-20.43,189.09,-29.42"/>
<path data-id="39-40" d="M170.03,-552.64,146.90,-462.59"/>
<path data-id="41-50" d="M324.51,-3.28,318.51,-43.87"/>
<path data-id="42-54" d="M761.17,-676.83,736.19,-649.00"/>
<path data-id="43-52" d="M646.28,-224.64,589.05,-156.56"/>
<path data-id="44-46" d="M655.56,-710.39,640.36,-616.18"/>
<path data-id="45-55" d="M73.42,-113.65,189.09,-29.42"/>
<path data-id="45-64" d="M73.42,-113.65,69.49,-161.42"/>
<path data-id="46-62" d="M640.36,-616.18,644.04,-479.57"/>
<path data-id="47-59" d="M474.34,-45.98,408.81,-53.99"/>
<path data-id="48-54" d="M766.57,-592.53,736.19,-649.00"/>
<path data-id="51-55" d="M119.69,-177.16,189.09,-29.42"/>
<path data-id="51-64" d="M119.69,-177.16,69.49,-161.42"/>
<path data-id="53-57" d="M402.65,-386.58,363.16,-457.03"/>
<path data-id="53-58" d="M402.65,-386.58,454.24,-411.04"/>
<path data-id="56-57" d="M301.25,-548.81,363.16,-457.03"/>
<path data-id="56-60" d="M301.25,-548.81,397.96,-669.55"/>
<path data-id="60-61" d="M397.96,-669.55,199.94,-686.06"/>
<circle data-id="0" cx="251.91" cy="-559.20" r="10.00px"/>
<text data-id="0" x="251.91" y="-559.20">R0</text>
<circle data-id="1" cx="314.78" cy="-228.70" r="10.00px"/>
<text data-id="1" x="314.78" y="-228.70">R1</text>
<circle data-id="2" cx="378.72" cy="-145.68" r="10.00px"/>
<text data-id="2" x="378.72" y="-145.68">R2</text>
<circle data-id="3" cx="240.83" cy="-177.28" r="10.00px"/>
<text data-id="3" x="240.83" y="-177.28">R3</text>
<circle data-id="4" cx="382.37" cy="-113.91" r="10.00px"/>
<text data-id="4" x="382.37" y="-113.91">R4</text>
<circle data-id="5" cx="56.47" cy="-419.61" r="10.00px"/>
<text data-id="5" x="56.47" y="-419.61">R5</text>
<circle data-id="6" cx="128.21" cy="-562.80" r="10.00px"/>
<text data-id="6" x="128.21" y="-562.80">R6</text>
<circle data-id="7" cx="446.17" cy="-347.60" r="10.00px"/>
<text data-id="7" x="446.17" y="-347.60">R7</text>
<circle data-id="8" cx="679.54" cy="-333.34" r="10.00px"/>
<text data-id="8" x="679.54" y="-333.34">R8</text>
<circle data-id="9" cx="388.86" cy="-11.81" r="10.00px"/>
<text data-id="9" x="388.86" y="-11.81">R9</text>
<circle data-id="10" cx="757.79" cy="-53.19" r="10.00px"/>
<text data-id="10" x="757.79" y="-53.19">R10</text>
<circle data-id="11" cx="707.87" cy="-701.06" r="10.00px"/>
<text data-id="11" x="707.87" y="-701.06">R11</text>
<circle data-id="12" cx="375.24" cy="-182.23" r="10.00px"/>
<text data-id="12" x="375.24" y="-182.23">R12</text>
<circle data-id="13" cx="31.08" cy="-445.69" r="10.00px"/>
<text data-id="13" x="31.08" y="-445.69">R13</text>
<circle data-id="14" cx="703.20" cy="-610.50" r="10.00px"/>
<text data-id="14" x="703.20" y="-610.50">R14</text>
<circle data-id="15" cx="577.21" cy="-54.63" r="10.00px"/>
<text data-id="15" x="577.21" y="-54.63">R15</text>
<circle data-id="16" cx="791.14" cy="-396.40" r="10.00px"/>
<text data-id="16" x="791.14" y="-396.40">R16</text>
<circle data-id="17" cx="205.56" cy="-555.56" r="10.00px"/>
<text data-id="17" x="205.56" y="-555.56">R17</text>
<circle data-id="18" cx="444.14" cy="-796.09" r="10.00px"/>
<text data-id="18" x="444.14" y="-796.09">R18</text>
<circle data-id="19" cx="360.11" cy="-85.64" r="10.00px"/>
<text data-id="19" x="360.11" y="-85.64">R19</text>
<circle data-id="20" cx="618.59" cy="-41.92" r="10.00px"/>
<text data-id="20" x="618.59" y="-41.92">R20</text>
<circle data-id="21" cx="167.74" cy="-357.69" r="10.00px"/>
<text data-id="21" x="167.74" y="-357.69">R21</text>
<circle data-id="22" cx="432.57" cy="-621.31" r="10.00px"/>
<text data-id="22" x="432.57" y="-621.31">R22</text>
<circle data-id="23" cx="82.60" cy="-448.89" r="10.00px"/>
<text data-id="23" x="82.60" y="-448.89">R23</text>
<circle data-id="24" cx="624.28" cy="-436.80" r="10.00px"/>
<text data-id="24" x="624.28" y="-436.80">R24</text>
<circle data-id="25" cx="636.62" cy="-103.51" r="10.00px"/>
<text data-id="25" x="636.62" y="-103.51">R25</text>
<circle data-id="26" cx="704.77" cy="-515.86" r="10.00px"/>
<text data-id="26" x="704.77" y="-515.86">R26</text>
<circle data-id="27" cx="311.32" cy="-351.24" r="10.00px"/>
<text data-id="27" x="311.32" y="-351.24">R27</text>
<circle data-id="28" cx="530.09" cy="-492.70" r="10.00px"/>
<text data-id="28" x="530.09" y="-492.70">R28</text>
<circle data-id="29" cx="590.96" cy="-711.42" r="10.00px"/>
<text data-id="29" x="590.96" y="-711.42">R29</text>
<circle data-id="30" cx="548.54" cy="-58.44" r="10.00px"/>
<text data-id="30" x="548.54" y="-58.44">R30</text>
<circle data-id="31" cx="712.02" cy="-440.23" r="10.00px"/>
<text data-id="31" x="712.02" y="-440.23">R31</text>
<circle data-id="32" cx="172.83" cy="-310.60" r="10.00px"/>
<text data-id="32" x="172.83" y="-310.60">R32</text>
<circle data-id="33" cx="172.73" cy="-183.51" r="10.00px"/>
<text data-id="33" x="172.73" y="-183.51">R33</text>
<circle data-id="34" cx="32.98" cy="-586.07" r="10.00px"/>
<text data-id="34" x="32.98" y="-586.07">R34</text>
<circle data-id="35" cx="290.30" cy="-23.22" r="10.00px"/>
<text data-id="35" x="290.30" y="-23.22">R35</text>
<circle data-id="36" cx="719.72" cy="-324.60" r="10.00px"/>
<text data-id="36" x="719.72" y="-324.60">R36</text>
<circle data-id="37" cx="424.95" cy="-100.23" r="10.00px"/>
<text data-id="37" x="424.95" y="-100.23">R37</text>
<circle data-id="38" cx="52.54" cy="-20.43" r="10.00px"/>
<text data-id="38" x="52.54" y="-20.43">R38</text>
<circle data-id="39" cx="170.03" cy="-552.64" r="10.00px"/>
<text data-id="39" x="170.03" y="-552.64">R39</text>
<circle data-id="40" cx="146.90" cy="-462.59" r="10.00px"/>
<text data-id="40" x="146.90" y="-462.59">R40</text>
<circle data-id="41" cx="324.51" cy="-3.28" r="10.00px"/>
<text data-id="41" x="324.51" y="-3.28">R41</text>
<circle data-id="42" cx="761.17" cy="-676.83" r="10.00px"/>
<text data-id="42" x="761.17" y="-676.83">R42</text>
<circle data-id="43" cx="646.28" cy="-224.64" r="10.00px"/>
<text data-id="43" x="646.28" y="-224.64">R43</text>
<circle data-id="44" cx="655.56" cy="-710.39" r="10.00px"/>
<text data-id="44" x="655.56" y="-710.39">R44</text>
<circle data-id="45" cx="73.42" cy="-113.65" r="10.00px"/>
<text data-id="45" x="73.42" y="-113.65">R45</text>
<circle data-id="46" cx="640.36" cy="-616.18" r="10.00px"/>
<text data-id="46" x="640.36" y="-616.18">R46</text>
<circle data-id="47" cx="474.34" cy="-45.98" r="10.00px"/>
<text data-id="47" x="474.34" y="-45.98">R47</text>
<circle data-id="48" cx="766.57" cy="-592.53" r="10.00px"/>
<text data-id="48" x="766.57" y="-592.53">R48</text>
<circle data-id="49" cx="742.41" cy="-9.68" r="10.00px"/>
<text data-id="49" x="742.41" y="-9.68">R49</text>
<circle data-id="50" cx="318.51" cy="-43.87" r="10.00px"/>
<text data-id="50" x="318.51" y="-43.87">R50</text>
<circle data-id="51" cx="119.69" cy="-177.16" r="10.00px"/>
<text data-id="51" x="119.69" y="-177.16">R51</text>
<circle data-id="52" cx="589.05" cy="-156.56" r="10.00px"/>
<text data-id="52" x="589.05" y="-156.56">R52</text>
<circle data-id="53" cx="402.65" cy="-386.58" r="10.00px"/>
<text data-id="53" x="402.65" y="-386.58">R53</text>
<circle data-id="54" cx="736.19" cy="-649.00" r="10.00px"/>
<text data-id="54" x="736.19" y="-649.00">R54</text>
<circle data-id="55" cx="189.09" cy="-29.42" r="10.00px"/>
<text data-id="55" x="189.09" y="-29.42">R55</text>
<circle data-id="56" cx="301.25" cy="-548.81" r="10.00px"/>
<text data-id="56" x="301.25" y="-548.81">R56</text>
<circle data-id="57" cx="363.16" cy="-457.03" r="10.00px"/>
<text data-id="57" x="363.16" y="-457.03">R57</text>
<circle data-id="58" cx="454.24" cy="-411.04" r="10.00px"/>
<text data-id="58" x="454.24" y="-411.04">R58</text>
<circle data-id="59" cx="408.81" cy="-53.99" r="10.00px"/>
<text data-id="59" x="408.81" y="-53.99">R59</text>
<circle data-id="60" cx="397.96" cy="-669.55" r="10.00px"/>
<text data-id="60" x="397.96" y="-669.55">R60</text>
<circle data-id="61" cx="199.94" cy="-686.06" r="10.00px"/>
<text data-id="61" x="199.94" y="-686.06">R61</text>
<circle data-id="62" cx="644.04" cy="-479.57" r="10.00px"/>
<text data-id="62" x="644.04" y="-479.57">R62</text>
<circle data-id="63" cx="702.54" cy="-351.63" r="10.00px"/>
<text data-id="63" x="702.54" y="-351.63">R63</text>
<circle data-id="64" cx="69.49" cy="-161.42" r="10.00px"/>
<text data-id="64" x="69.49" y="-161.42">R64</text>
</svg>
