<svg id="topo" width="2197.30" height="2198.35" viewBox="-34.51 -32.72 2197.30 2198.35" xmlns="http://www.w3.org/2000/svg">
<style>#topo path {fill: none; stroke: grey; stroke-width: 6;} #topo circle {fill: lightblue; stroke: none;} #topo text {fill: black; stroke: none; font-size: 16; font-family: sans-serif; text-anchor:middle;}</style>
<path d="M1586.16,1543.76,1647.74,1510.09"/>
<path d="M1586.16,1543.76,1535.05,1479.20"/>
<path d="M1586.16,1543.76,1645.27,1605.08"/>
<path d="M1586.16,1543.76,1560.19,1564.59"/>
<path d="M1707.51,1353.85,1749.98,1322.32"/>
<path d="M1707.51,1353.85,1643.35,1381.98"/>
<path d="M1707.51,1353.85,1660.34,1311.50"/>
<path d="M1707.51,1353.85,1802.86,1462.47"/>
<path d="M1344.02,641.47,1337.53,593.20"/>
<path d="M1344.02,641.47,1331.27,692.89"/>
<path d="M1344.02,641.47,1280.31,669.88"/>
<path d="M1843.65,1288.37,1807.86,1238.60"/>
<path d="M1843.65,1288.37,1818.65,1337.49"/>
<path d="M1843.65,1288.37,1856.22,1259.28"/>
<path d="M2095.61,115.56,2083.79,240.50"/>
<path d="M2095.61,115.56,2079.47,92.68"/>
<path d="M2095.61,115.56,2031.67,150.68"/>
<path d="M1079.04,826.86,1049.76,899.41"/>
<path d="M1079.04,826.86,1207.82,854.94"/>
<path d="M1079.04,826.86,1102.51,893.34"/>
<path d="M1079.04,826.86,1014.39,810.32"/>
<path d="M38.23,733.46,108.12,799.24"/>
<path d="M38.23,733.46,99.82,660.31"/>
<path d="M38.23,733.46,166.75,724.30"/>
<path d="M38.23,733.46,10.49,741.84"/>
<path d="M850.13,338.33,780.84,458.53"/>
<path d="M850.13,338.33,879.68,500.37"/>
<path d="M850.13,338.33,1004.91,378.22"/>
<path d="M850.13,338.33,1005.45,332.70"/>
<path d="M850.13,338.33,730.00,362.88"/>
<path d="M850.13,338.33,776.13,251.90"/>
<path d="M105.08,1043.60,15.84,1018.12"/>
<path d="M105.08,1043.60,80.48,955.59"/>
<path d="M105.08,1043.60,216.23,1022.48"/>
<path d="M105.08,1043.60,134.04,960.04"/>
<path d="M105.08,1043.60,151.10,1195.26"/>
<path d="M680.03,1210.13,794.22,1187.91"/>
<path d="M680.03,1210.13,753.86,1269.63"/>
<path d="M680.03,1210.13,681.85,1273.68"/>
<path d="M680.03,1210.13,608.76,1150.63"/>
<path d="M1633.44,1636.37,1726.59,1694.59"/>
<path d="M1633.44,1636.37,1645.27,1605.08"/>
<path d="M1633.44,1636.37,1545.05,1615.14"/>
<path d="M1777.54,1160.68,1734.66,1158.37"/>
<path d="M1777.54,1160.68,1807.86,1238.60"/>
<path d="M1777.54,1160.68,1816.14,1153.57"/>
<path d="M921.49,1760.42,885.99,1723.72"/>
<path d="M921.49,1760.42,887.69,1781.50"/>
<path d="M921.49,1760.42,937.77,1793.65"/>
<path d="M326.92,879.61,333.80,821.02"/>
<path d="M326.92,879.61,238.04,918.24"/>
<path d="M326.92,879.61,311.32,944.57"/>
<path d="M326.92,879.61,476.11,950.37"/>
<path d="M1786.81,373.54,1801.94,353.56"/>
<path d="M1786.81,373.54,1771.48,415.61"/>
<path d="M1786.81,373.54,1698.69,324.02"/>
<path d="M1284.87,1353.92,1309.94,1540.83"/>
<path d="M1284.87,1353.92,1209.64,1155.59"/>
<path d="M1284.87,1353.92,1348.69,1328.93"/>
<path d="M1284.87,1353.92,1399.16,1495.81"/>
<path d="M1284.87,1353.92,1186.81,1364.52"/>
<path d="M885.99,1723.72,887.69,1781.50"/>
<path d="M885.99,1723.72,1037.85,1623.89"/>
<path d="M885.99,1723.72,952.98,1579.03"/>
<path d="M885.99,1723.72,898.10,1557.97"/>
<path d="M885.99,1723.72,827.73,1694.51"/>
<path d="M1189.19,471.72,1262.87,431.23"/>
<path d="M1189.19,471.72,1199.00,517.78"/>
<path d="M1189.19,471.72,1147.02,467.28"/>
<path d="M1749.98,1322.32,1807.86,1238.60"/>
<path d="M1749.98,1322.32,1818.65,1337.49"/>
<path d="M1749.98,1322.32,1715.33,1266.21"/>
<path d="M263.65,1450.20,205.54,1456.93"/>
<path d="M263.65,1450.20,344.21,1415.78"/>
<path d="M263.65,1450.20,388.43,1536.36"/>
<path d="M676.44,443.51,493.13,524.98"/>
<path d="M676.44,443.51,780.84,458.53"/>
<path d="M676.44,443.51,612.32,605.07"/>
<path d="M676.44,443.51,565.67,366.87"/>
<path d="M676.44,443.51,742.08,519.80"/>
<path d="M676.44,443.51,676.84,341.19"/>
<path d="M676.44,443.51,730.00,362.88"/>
<path d="M2016.09,1997.72,2087.54,1974.24"/>
<path d="M2016.09,1997.72,1908.44,1963.08"/>
<path d="M456.63,390.32,383.81,336.44"/>
<path d="M456.63,390.32,376.71,402.49"/>
<path d="M456.63,390.32,466.59,452.31"/>
<path d="M456.63,390.32,565.67,366.87"/>
<path d="M872.22,1961.10,765.19,1897.33"/>
<path d="M872.22,1961.10,809.66,1845.56"/>
<path d="M872.22,1961.10,933.24,1935.82"/>
<path d="M1957.52,1033.88,1977.31,1136.05"/>
<path d="M1957.52,1033.88,2094.54,977.87"/>
<path d="M1957.52,1033.88,1816.14,1153.57"/>
<path d="M1957.52,1033.88,1946.75,975.13"/>
<path d="M1957.52,1033.88,2109.90,1091.85"/>
<path d="M1957.52,1033.88,1861.91,999.95"/>
<path d="M493.13,524.98,466.59,452.31"/>
<path d="M493.13,524.98,511.89,609.43"/>
<path d="M493.13,524.98,365.59,598.32"/>
<path d="M1577.17,191.90,1567.35,93.57"/>
<path d="M1577.17,191.90,1698.12,257.57"/>
<path d="M1577.17,191.90,1734.08,131.89"/>
<path d="M1577.17,191.90,1410.09,135.66"/>
<path d="M1577.17,191.90,1382.25,285.51"/>
<path d="M1577.17,191.90,1595.83,345.99"/>
<path d="M922.23,725.16,863.25,887.76"/>
<path d="M922.23,725.16,988.73,773.73"/>
<path d="M922.23,725.16,965.32,681.02"/>
<path d="M922.23,725.16,898.61,712.13"/>
<path d="M887.69,1781.50,809.66,1845.56"/>
<path d="M887.69,1781.50,937.77,1793.65"/>
<path d="M887.69,1781.50,897.25,1844.78"/>
<path d="M1977.31,1136.05,1816.14,1153.57"/>
<path d="M1977.31,1136.05,2049.88,1182.14"/>
<path d="M1977.31,1136.05,1979.94,1284.05"/>
<path d="M1977.31,1136.05,1856.22,1259.28"/>
<path d="M1432.52,1773.10,1400.76,1796.45"/>
<path d="M1432.52,1773.10,1494.91,1632.99"/>
<path d="M1432.52,1773.10,1425.15,1811.50"/>
<path d="M1432.52,1773.10,1485.90,1784.08"/>
<path d="M712.99,330.49,718.58,265.91"/>
<path d="M712.99,330.49,676.84,341.19"/>
<path d="M712.99,330.49,730.00,362.88"/>
<path d="M409.65,36.26,438.49,189.24"/>
<path d="M409.65,36.26,524.73,23.30"/>
<path d="M409.65,36.26,373.81,22.55"/>
<path d="M765.19,1897.33,809.66,1845.56"/>
<path d="M765.19,1897.33,677.91,1836.32"/>
<path d="M50.42,575.45,63.39,608.55"/>
<path d="M50.42,575.45,163.48,457.52"/>
<path d="M50.42,575.45,196.78,546.78"/>
<path d="M1726.59,1694.59,1797.53,1740.39"/>
<path d="M1726.59,1694.59,1852.01,1589.63"/>
<path d="M1726.59,1694.59,1752.09,1801.30"/>
<path d="M279.55,1155.42,423.74,1177.70"/>
<path d="M279.55,1155.42,216.23,1022.48"/>
<path d="M279.55,1155.42,151.10,1195.26"/>
<path d="M279.55,1155.42,437.07,995.63"/>
<path d="M1309.94,1540.83,1370.06,1626.31"/>
<path d="M1309.94,1540.83,1399.16,1495.81"/>
<path d="M1309.94,1540.83,1288.83,1604.36"/>
<path d="M1309.94,1540.83,1258.21,1589.15"/>
<path d="M135.13,333.60,120.82,400.65"/>
<path d="M135.13,333.60,203.97,381.19"/>
<path d="M135.13,333.60,54.49,234.93"/>
<path d="M135.13,333.60,205.22,282.25"/>
<path d="M1609.41,1127.75,1583.06,1121.12"/>
<path d="M1609.41,1127.75,1612.19,1097.51"/>
<path d="M1609.41,1127.75,1576.48,1254.08"/>
<path d="M1609.41,1127.75,1660.87,1142.23"/>
<path d="M1007.19,95.92,912.83,97.32"/>
<path d="M1007.19,95.92,1064.11,143.15"/>
<path d="M1007.19,95.92,1013.38,63.53"/>
<path d="M2094.08,1733.96,2112.87,1638.37"/>
<path d="M2094.08,1733.96,2041.46,1818.54"/>
<path d="M2094.08,1733.96,1989.76,1669.84"/>
<path d="M2083.79,240.50,2080.40,320.66"/>
<path d="M2083.79,240.50,2031.67,150.68"/>
<path d="M1692.61,930.08,1793.42,901.38"/>
<path d="M1692.61,930.08,1696.60,793.56"/>
<path d="M1692.61,930.08,1641.32,936.43"/>
<path d="M1692.61,930.08,1717.36,1002.56"/>
<path d="M1242.06,823.31,1272.59,746.60"/>
<path d="M1242.06,823.31,1207.82,854.94"/>
<path d="M1242.06,823.31,1286.23,837.59"/>
<path d="M1049.76,899.41,967.42,873.77"/>
<path d="M1049.76,899.41,1102.51,893.34"/>
<path d="M1049.76,899.41,1041.65,1000.91"/>
<path d="M1049.76,899.41,1014.39,810.32"/>
<path d="M1049.76,899.41,954.57,928.12"/>
<path d="M881.78,1457.61,729.71,1365.92"/>
<path d="M881.78,1457.61,898.10,1557.97"/>
<path d="M881.78,1457.61,954.84,1403.54"/>
<path d="M881.78,1457.61,785.28,1518.68"/>
<path d="M1786.75,998.56,1793.42,901.38"/>
<path d="M1786.75,998.56,1730.38,1068.39"/>
<path d="M1786.75,998.56,1861.91,999.95"/>
<path d="M1786.75,998.56,1717.36,1002.56"/>
<path d="M1952.65,395.66,1949.50,431.95"/>
<path d="M1952.65,395.66,1959.87,342.85"/>
<path d="M1952.65,395.66,1865.80,346.36"/>
<path d="M703.92,821.12,805.03,743.91"/>
<path d="M703.92,821.12,672.03,877.28"/>
<path d="M703.92,821.12,611.25,827.65"/>
<path d="M703.92,821.12,724.27,863.80"/>
<path d="M703.92,821.12,675.19,729.68"/>
<path d="M2087.54,1974.24,2041.46,1818.54"/>
<path d="M706.15,1751.30,809.66,1845.56"/>
<path d="M706.15,1751.30,677.91,1836.32"/>
<path d="M706.15,1751.30,654.67,1740.78"/>
<path d="M706.15,1751.30,730.46,1628.15"/>
<path d="M706.15,1751.30,827.73,1694.51"/>
<path d="M596.96,757.01,612.32,605.07"/>
<path d="M596.96,757.01,511.89,609.43"/>
<path d="M596.96,757.01,602.94,792.60"/>
<path d="M596.96,757.01,479.23,768.00"/>
<path d="M596.96,757.01,675.19,729.68"/>
<path d="M1812.27,32.80,1920.68,92.45"/>
<path d="M1812.27,32.80,1768.99,58.57"/>
<path d="M1183.93,1722.41,1226.34,1593.11"/>
<path d="M1183.93,1722.41,1204.51,1751.33"/>
<path d="M1183.93,1722.41,1079.08,1700.75"/>
<path d="M1183.93,1722.41,1125.45,1783.41"/>
<path d="M1567.35,93.57,1734.08,131.89"/>
<path d="M1567.35,93.57,1579.26,50.03"/>
<path d="M1567.35,93.57,1422.51,83.50"/>
<path d="M1864.00,750.08,1793.42,901.38"/>
<path d="M1864.00,750.08,1696.60,793.56"/>
<path d="M1864.00,750.08,1904.98,741.01"/>
<path d="M1864.00,750.08,1905.90,858.76"/>
<path d="M1337.75,76.97,1410.09,135.66"/>
<path d="M1337.75,76.97,1242.26,22.03"/>
<path d="M1337.75,76.97,1334.57,132.52"/>
<path d="M1337.75,76.97,1359.80,57.07"/>
<path d="M1330.85,990.65,1286.23,837.59"/>
<path d="M1330.85,990.65,1416.17,889.75"/>
<path d="M1330.85,990.65,1416.08,1007.38"/>
<path d="M1330.85,990.65,1313.24,1160.15"/>
<path d="M1272.59,746.60,1286.23,837.59"/>
<path d="M1272.59,746.60,1331.27,692.89"/>
<path d="M1272.59,746.60,1280.31,669.88"/>
<path d="M1272.59,746.60,1344.60,771.52"/>
<path d="M1056.92,2053.99,1053.93,2023.28"/>
<path d="M1056.92,2053.99,1152.79,2043.91"/>
<path d="M1112.99,639.57,1108.00,589.72"/>
<path d="M1112.99,639.57,1142.98,595.55"/>
<path d="M1112.99,639.57,1062.83,647.42"/>
<path d="M379.17,1626.14,423.61,1728.41"/>
<path d="M379.17,1626.14,388.43,1536.36"/>
<path d="M379.17,1626.14,175.15,1702.67"/>
<path d="M1466.76,1310.46,1348.69,1328.93"/>
<path d="M1466.76,1310.46,1526.71,1249.33"/>
<path d="M1466.76,1310.46,1535.05,1479.20"/>
<path d="M1466.76,1310.46,1399.16,1495.81"/>
<path d="M1466.76,1310.46,1425.77,1234.51"/>
<path d="M914.85,576.77,932.72,607.27"/>
<path d="M914.85,576.77,879.68,500.37"/>
<path d="M914.85,576.77,883.61,615.28"/>
<path d="M52.80,1358.10,66.38,1428.30"/>
<path d="M52.80,1358.10,21.66,1238.19"/>
<path d="M1768.79,2021.84,1814.85,2120.63"/>
<path d="M1768.79,2021.84,1722.71,2044.45"/>
<path d="M1768.79,2021.84,1826.49,1968.70"/>
<path d="M1400.76,1796.45,1425.15,1811.50"/>
<path d="M1400.76,1796.45,1328.57,1724.37"/>
<path d="M1400.76,1796.45,1296.08,1816.88"/>
<path d="M1400.76,1796.45,1372.94,1863.12"/>
<path d="M52.26,135.77,20.19,79.31"/>
<path d="M52.26,135.77,65.29,184.67"/>
<path d="M52.26,135.77,32.65,187.03"/>
<path d="M1546.60,1096.92,1557.30,1041.29"/>
<path d="M1546.60,1096.92,1583.06,1121.12"/>
<path d="M1546.60,1096.92,1491.08,1043.38"/>
<path d="M1546.60,1096.92,1425.77,1234.51"/>
<path d="M906.21,1012.16,851.22,936.22"/>
<path d="M906.21,1012.16,942.72,1159.22"/>
<path d="M906.21,1012.16,835.54,1072.12"/>
<path d="M906.21,1012.16,1005.58,1119.83"/>
<path d="M906.21,1012.16,1041.65,1000.91"/>
<path d="M906.21,1012.16,954.57,928.12"/>
<path d="M1404.39,1119.49,1416.08,1007.38"/>
<path d="M1404.39,1119.49,1313.24,1160.15"/>
<path d="M1404.39,1119.49,1491.08,1043.38"/>
<path d="M1404.39,1119.49,1425.77,1234.51"/>
<path d="M1382.81,2049.11,1407.63,1986.70"/>
<path d="M1382.81,2049.11,1407.43,2117.93"/>
<path d="M1382.81,2049.11,1352.77,2033.48"/>
<path d="M805.03,743.91,806.66,873.70"/>
<path d="M805.03,743.91,808.95,715.72"/>
<path d="M805.03,743.91,675.19,729.68"/>
<path d="M2037.27,1351.19,2054.11,1463.80"/>
<path d="M2037.27,1351.19,1993.94,1309.66"/>
<path d="M729.71,1365.92,731.62,1531.77"/>
<path d="M729.71,1365.92,695.31,1300.68"/>
<path d="M729.71,1365.92,641.33,1443.38"/>
<path d="M729.71,1365.92,785.28,1518.68"/>
<path d="M967.42,873.77,863.25,887.76"/>
<path d="M967.42,873.77,1014.39,810.32"/>
<path d="M967.42,873.77,954.57,928.12"/>
<path d="M718.58,265.91,557.23,265.41"/>
<path d="M718.58,265.91,776.13,251.90"/>
<path d="M718.58,265.91,669.08,114.16"/>
<path d="M1615.60,1380.63,1643.35,1381.98"/>
<path d="M1615.60,1380.63,1535.05,1479.20"/>
<path d="M1615.60,1380.63,1620.25,1293.57"/>
<path d="M1698.12,257.57,1736.29,249.02"/>
<path d="M1698.12,257.57,1698.69,324.02"/>
<path d="M391.71,748.60,350.64,767.73"/>
<path d="M391.71,748.60,511.89,609.43"/>
<path d="M391.71,748.60,479.23,768.00"/>
<path d="M391.71,748.60,365.59,598.32"/>
<path d="M1108.00,589.72,1076.37,514.74"/>
<path d="M1108.00,589.72,1016.38,605.11"/>
<path d="M1108.00,589.72,1142.98,595.55"/>
<path d="M495.11,1370.25,443.50,1272.99"/>
<path d="M495.11,1370.25,344.21,1415.78"/>
<path d="M495.11,1370.25,388.43,1536.36"/>
<path d="M495.11,1370.25,518.39,1527.62"/>
<path d="M495.11,1370.25,527.54,1288.96"/>
<path d="M495.11,1370.25,592.42,1440.56"/>
<path d="M333.80,821.02,350.64,767.73"/>
<path d="M333.80,821.02,306.07,795.61"/>
<path d="M350.64,767.73,302.39,689.04"/>
<path d="M350.64,767.73,306.07,795.61"/>
<path d="M1059.63,13.02,992.76,24.34"/>
<path d="M1059.63,13.02,1078.40,74.68"/>
<path d="M1059.63,13.02,1187.65,22.88"/>
<path d="M1059.63,13.02,1013.38,63.53"/>
<path d="M120.82,400.65,163.48,457.52"/>
<path d="M120.82,400.65,203.97,381.19"/>
<path d="M63.39,608.55,99.82,660.31"/>
<path d="M63.39,608.55,196.78,546.78"/>
<path d="M277.54,623.70,302.39,689.04"/>
<path d="M277.54,623.70,196.78,546.78"/>
<path d="M277.54,623.70,217.26,641.55"/>
<path d="M277.54,623.70,365.59,598.32"/>
<path d="M54.56,1643.50,11.97,1722.79"/>
<path d="M54.56,1643.50,26.72,1572.15"/>
<path d="M54.56,1643.50,175.15,1702.67"/>
<path d="M1734.08,131.89,1785.73,165.12"/>
<path d="M1734.08,131.89,1788.54,119.05"/>
<path d="M1734.08,131.89,1768.99,58.57"/>
<path d="M932.72,607.27,1016.38,605.11"/>
<path d="M932.72,607.27,965.32,681.02"/>
<path d="M932.72,607.27,883.61,615.28"/>
<path d="M438.49,189.24,557.23,265.41"/>
<path d="M438.49,189.24,394.33,271.46"/>
<path d="M438.49,189.24,335.72,166.80"/>
<path d="M438.49,189.24,557.87,92.40"/>
<path d="M1307.18,2086.76,1152.79,2043.91"/>
<path d="M1307.18,2086.76,1407.43,2117.93"/>
<path d="M1307.18,2086.76,1352.77,2033.48"/>
<path d="M1207.82,854.94,1102.51,893.34"/>
<path d="M15.84,1018.12,80.48,955.59"/>
<path d="M15.84,1018.12,21.66,1238.19"/>
<path d="M851.22,936.22,863.25,887.76"/>
<path d="M851.22,936.22,757.09,986.17"/>
<path d="M851.22,936.22,954.57,928.12"/>
<path d="M1801.94,353.56,1825.68,313.64"/>
<path d="M1801.94,353.56,1865.80,346.36"/>
<path d="M302.39,689.04,217.59,743.01"/>
<path d="M302.39,689.04,365.59,598.32"/>
<path d="M916.81,1309.80,950.68,1302.02"/>
<path d="M916.81,1309.80,794.22,1187.91"/>
<path d="M916.81,1309.80,753.86,1269.63"/>
<path d="M916.81,1309.80,954.84,1403.54"/>
<path d="M998.52,1154.94,942.72,1159.22"/>
<path d="M998.52,1154.94,1025.51,1219.89"/>
<path d="M998.52,1154.94,1005.58,1119.83"/>
<path d="M1337.53,593.20,1454.86,519.55"/>
<path d="M1337.53,593.20,1297.59,492.34"/>
<path d="M1337.53,593.20,1357.88,492.56"/>
<path d="M1949.50,431.95,1870.83,600.37"/>
<path d="M1949.50,431.95,2053.93,580.56"/>
<path d="M1949.50,431.95,1763.82,524.68"/>
<path d="M1949.50,431.95,1987.33,608.67"/>
<path d="M809.66,1845.56,897.25,1844.78"/>
<path d="M994.43,1949.92,1053.93,2023.28"/>
<path d="M994.43,1949.92,933.24,1935.82"/>
<path d="M994.43,1949.92,1159.59,1867.55"/>
<path d="M942.72,1159.22,950.68,1302.02"/>
<path d="M942.72,1159.22,835.54,1072.12"/>
<path d="M942.72,1159.22,813.23,1164.45"/>
<path d="M1494.91,1632.99,1370.06,1626.31"/>
<path d="M1494.91,1632.99,1485.90,1784.08"/>
<path d="M1494.91,1632.99,1399.16,1495.81"/>
<path d="M1494.91,1632.99,1545.05,1615.14"/>
<path d="M1734.66,1158.37,1705.97,1224.44"/>
<path d="M1734.66,1158.37,1660.87,1142.23"/>
<path d="M1734.66,1158.37,1735.06,1098.14"/>
<path d="M1113.12,312.17,1036.30,348.26"/>
<path d="M1113.12,312.17,1120.82,265.18"/>
<path d="M1113.12,312.17,1143.06,394.20"/>
<path d="M1286.23,837.59,1363.65,828.80"/>
<path d="M1286.23,837.59,1344.60,771.52"/>
<path d="M1793.42,901.38,1696.60,793.56"/>
<path d="M1793.42,901.38,1905.90,858.76"/>
<path d="M1793.42,901.38,1861.91,999.95"/>
<path d="M937.77,1793.65,1043.58,1753.51"/>
<path d="M937.77,1793.65,897.25,1844.78"/>
<path d="M1209.64,1155.59,1005.58,1119.83"/>
<path d="M1209.64,1155.59,1313.24,1160.15"/>
<path d="M1209.64,1155.59,1186.81,1364.52"/>
<path d="M1209.64,1155.59,1041.65,1000.91"/>
<path d="M1209.64,1155.59,1056.98,1255.51"/>
<path d="M536.07,2020.66,479.60,2071.52"/>
<path d="M536.07,2020.66,557.30,1979.87"/>
<path d="M536.07,2020.66,458.08,1938.53"/>
<path d="M1335.51,2008.36,1159.59,1867.55"/>
<path d="M1335.51,2008.36,1407.63,1986.70"/>
<path d="M1335.51,2008.36,1352.77,2033.48"/>
<path d="M1730.38,1068.39,1735.06,1098.14"/>
<path d="M1730.38,1068.39,1717.36,1002.56"/>
<path d="M1814.85,2120.63,1840.33,2110.36"/>
<path d="M1814.85,2120.63,1722.71,2044.45"/>
<path d="M2079.47,92.68,2031.67,150.68"/>
<path d="M2079.47,92.68,2030.34,12.28"/>
<path d="M535.26,1746.72,484.26,1792.94"/>
<path d="M535.26,1746.72,579.11,1706.21"/>
<path d="M1348.69,1328.93,1399.16,1495.81"/>
<path d="M1348.69,1328.93,1313.24,1160.15"/>
<path d="M1348.69,1328.93,1425.77,1234.51"/>
<path d="M1696.60,793.56,1624.40,613.10"/>
<path d="M1696.60,793.56,1472.21,777.38"/>
<path d="M290.24,293.69,383.81,336.44"/>
<path d="M290.24,293.69,394.33,271.46"/>
<path d="M290.24,293.69,203.97,381.19"/>
<path d="M290.24,293.69,263.90,213.35"/>
<path d="M290.24,293.69,205.22,282.25"/>
<path d="M677.91,1836.32,654.67,1740.78"/>
<path d="M677.91,1836.32,557.30,1979.87"/>
<path d="M1410.09,135.66,1422.51,83.50"/>
<path d="M1410.09,135.66,1334.57,132.52"/>
<path d="M1410.09,135.66,1382.25,285.51"/>
<path d="M525.21,1091.48,423.74,1177.70"/>
<path d="M525.21,1091.48,531.04,1207.64"/>
<path d="M525.21,1091.48,511.37,1034.30"/>
<path d="M525.21,1091.48,682.64,1027.18"/>
<path d="M525.21,1091.48,608.76,1150.63"/>
<path d="M654.67,1740.78,730.46,1628.15"/>
<path d="M654.67,1740.78,579.11,1706.21"/>
<path d="M1454.86,519.55,1502.50,429.69"/>
<path d="M1454.86,519.55,1624.40,613.10"/>
<path d="M1454.86,519.55,1357.88,492.56"/>
<path d="M84.69,1911.78,90.41,1775.76"/>
<path d="M84.69,1911.78,156.78,1950.13"/>
<path d="M84.69,1911.78,151.37,1890.25"/>
<path d="M84.69,1911.78,17.25,1957.64"/>
<path d="M84.69,1911.78,62.19,2001.05"/>
<path d="M807.93,211.67,862.81,102.40"/>
<path d="M807.93,211.67,776.13,251.90"/>
<path d="M807.93,211.67,772.98,207.11"/>
<path d="M912.83,97.32,862.81,102.40"/>
<path d="M912.83,97.32,992.76,24.34"/>
<path d="M912.83,97.32,898.02,14.88"/>
<path d="M912.83,97.32,1005.45,332.70"/>
<path d="M205.54,1456.93,66.38,1428.30"/>
<path d="M205.54,1456.93,175.15,1702.67"/>
<path d="M205.54,1456.93,66.30,1544.72"/>
<path d="M1262.87,431.23,1297.65,410.88"/>
<path d="M1262.87,431.23,1243.31,327.83"/>
<path d="M1262.87,431.23,1297.59,492.34"/>
<path d="M383.81,336.44,376.71,402.49"/>
<path d="M383.81,336.44,394.33,271.46"/>
<path d="M1502.50,429.69,1484.52,407.17"/>
<path d="M1502.50,429.69,1680.72,536.73"/>
<path d="M1502.50,429.69,1595.83,345.99"/>
<path d="M2112.87,1638.37,1989.76,1669.84"/>
<path d="M2112.87,1638.37,2117.79,1584.51"/>
<path d="M1297.65,410.88,1243.31,327.83"/>
<path d="M1297.65,410.88,1382.25,285.51"/>
<path d="M1633.47,27.65,1734.13,36.37"/>
<path d="M1633.47,27.65,1579.26,50.03"/>
<path d="M1425.15,1811.50,1372.94,1863.12"/>
<path d="M1425.15,1811.50,1470.84,1827.14"/>
<path d="M1734.13,36.37,1768.99,58.57"/>
<path d="M1217.90,128.63,1242.26,22.03"/>
<path d="M1217.90,128.63,1064.11,143.15"/>
<path d="M1217.90,128.63,1334.57,132.52"/>
<path d="M1217.90,128.63,1078.40,74.68"/>
<path d="M1217.90,128.63,1187.65,22.88"/>
<path d="M1217.90,128.63,1250.37,199.60"/>
<path d="M1959.87,342.85,1880.82,294.65"/>
<path d="M1959.87,342.85,2080.40,320.66"/>
<path d="M1959.87,342.85,1865.80,346.36"/>
<path d="M653.40,1312.08,527.54,1288.96"/>
<path d="M653.40,1312.08,681.85,1273.68"/>
<path d="M653.40,1312.08,695.31,1300.68"/>
<path d="M653.40,1312.08,641.33,1443.38"/>
<path d="M1370.06,1626.31,1328.57,1724.37"/>
<path d="M1370.06,1626.31,1399.16,1495.81"/>
<path d="M1370.06,1626.31,1288.83,1604.36"/>
<path d="M780.84,458.53,879.68,500.37"/>
<path d="M780.84,458.53,742.08,519.80"/>
<path d="M780.84,458.53,730.00,362.88"/>
<path d="M1840.33,2110.36,1908.44,1963.08"/>
<path d="M1647.74,1510.09,1643.35,1381.98"/>
<path d="M1647.74,1510.09,1645.27,1605.08"/>
<path d="M1647.74,1510.09,1802.86,1462.47"/>
<path d="M484.26,1792.94,423.61,1728.41"/>
<path d="M484.26,1792.94,409.60,1788.54"/>
<path d="M484.26,1792.94,458.08,1938.53"/>
<path d="M863.25,887.76,806.66,873.70"/>
<path d="M863.25,887.76,954.57,928.12"/>
<path d="M988.73,773.73,965.32,681.02"/>
<path d="M988.73,773.73,1031.48,674.10"/>
<path d="M988.73,773.73,1014.39,810.32"/>
<path d="M692.45,32.30,727.96,91.29"/>
<path d="M692.45,32.30,669.08,114.16"/>
<path d="M692.45,32.30,554.78,24.44"/>
<path d="M1807.86,1238.60,1816.14,1153.57"/>
<path d="M1807.86,1238.60,1715.33,1266.21"/>
<path d="M1807.86,1238.60,1705.97,1224.44"/>
<path d="M1807.86,1238.60,1856.22,1259.28"/>
<path d="M466.84,1233.22,443.50,1272.99"/>
<path d="M466.84,1233.22,423.74,1177.70"/>
<path d="M466.84,1233.22,527.54,1288.96"/>
<path d="M466.84,1233.22,531.04,1207.64"/>
<path d="M862.81,102.40,898.02,14.88"/>
<path d="M862.81,102.40,727.96,91.29"/>
<path d="M2054.11,1463.80,2035.87,1506.58"/>
<path d="M2054.11,1463.80,2094.62,1478.61"/>
<path d="M1880.82,294.65,1822.05,234.96"/>
<path d="M1880.82,294.65,1857.94,310.21"/>
<path d="M1947.40,779.64,2030.40,832.85"/>
<path d="M1947.40,779.64,1904.98,741.01"/>
<path d="M1947.40,779.64,2113.39,700.86"/>
<path d="M1947.40,779.64,1905.90,858.76"/>
<path d="M1226.34,1593.11,1187.89,1544.08"/>
<path d="M1226.34,1593.11,1258.21,1589.15"/>
<path d="M1076.37,514.74,1016.38,605.11"/>
<path d="M1076.37,514.74,1147.02,467.28"/>
<path d="M1076.37,514.74,1035.90,375.64"/>
<path d="M1643.35,1381.98,1660.34,1311.50"/>
<path d="M557.23,265.41,394.33,271.46"/>
<path d="M557.23,265.41,565.67,366.87"/>
<path d="M557.23,265.41,676.84,341.19"/>
<path d="M557.23,265.41,669.08,114.16"/>
<path d="M557.23,265.41,557.87,92.40"/>
<path d="M731.62,1531.77,672.08,1520.96"/>
<path d="M731.62,1531.77,730.46,1628.15"/>
<path d="M731.62,1531.77,785.28,1518.68"/>
<path d="M238.04,918.24,311.32,944.57"/>
<path d="M238.04,918.24,183.39,885.32"/>
<path d="M238.04,918.24,214.95,981.55"/>
<path d="M163.48,457.52,196.78,546.78"/>
<path d="M163.48,457.52,203.97,381.19"/>
<path d="M163.48,457.52,226.75,474.17"/>
<path d="M20.19,79.31,61.56,51.30"/>
<path d="M376.71,402.49,203.97,381.19"/>
<path d="M376.71,402.49,226.75,474.17"/>
<path d="M376.71,402.49,365.59,598.32"/>
<path d="M80.48,955.59,35.15,902.61"/>
<path d="M80.48,955.59,134.04,960.04"/>
<path d="M1569.19,1288.36,1526.71,1249.33"/>
<path d="M1569.19,1288.36,1576.48,1254.08"/>
<path d="M1569.19,1288.36,1620.25,1293.57"/>
<path d="M443.50,1272.99,344.21,1415.78"/>
<path d="M443.50,1272.99,527.54,1288.96"/>
<path d="M1870.83,600.37,1763.82,524.68"/>
<path d="M1870.83,600.37,1923.57,654.31"/>
<path d="M1204.51,1751.33,1328.57,1724.37"/>
<path d="M1204.51,1751.33,1125.45,1783.41"/>
<path d="M1204.51,1751.33,1220.73,1827.43"/>
<path d="M1037.85,1623.89,952.98,1579.03"/>
<path d="M1037.85,1623.89,1079.08,1700.75"/>
<path d="M1037.85,1623.89,1077.65,1615.98"/>
<path d="M1037.85,1623.89,1023.40,1492.00"/>
<path d="M108.12,799.24,152.06,795.33"/>
<path d="M108.12,799.24,35.15,902.61"/>
<path d="M2053.93,580.56,2113.39,700.86"/>
<path d="M2053.93,580.56,1987.33,608.67"/>
<path d="M1187.89,1544.08,1177.47,1445.30"/>
<path d="M1187.89,1544.08,1041.32,1464.76"/>
<path d="M1187.89,1544.08,1077.65,1615.98"/>
<path d="M879.68,500.37,1004.91,378.22"/>
<path d="M2094.54,977.87,1946.75,975.13"/>
<path d="M2094.54,977.87,2009.88,893.70"/>
<path d="M2094.54,977.87,2109.90,1091.85"/>
<path d="M423.74,1177.70,437.07,995.63"/>
<path d="M344.21,1415.78,388.43,1536.36"/>
<path d="M1484.52,407.17,1382.25,285.51"/>
<path d="M1484.52,407.17,1595.83,345.99"/>
<path d="M1484.52,407.17,1357.88,492.56"/>
<path d="M423.61,1728.41,409.60,1788.54"/>
<path d="M1616.47,2021.65,1722.71,2044.45"/>
<path d="M1616.47,2021.65,1584.69,2027.03"/>
<path d="M1616.47,2021.65,1600.97,2088.46"/>
<path d="M1616.47,2021.65,1752.09,1801.30"/>
<path d="M217.59,743.01,208.53,778.99"/>
<path d="M217.59,743.01,166.75,724.30"/>
<path d="M217.59,743.01,306.07,795.61"/>
<path d="M1825.68,313.64,1736.29,249.02"/>
<path d="M1825.68,313.64,1822.05,234.96"/>
<path d="M1825.68,313.64,1857.94,310.21"/>
<path d="M1043.58,1753.51,1079.08,1700.75"/>
<path d="M1043.58,1753.51,1125.45,1783.41"/>
<path d="M1416.17,889.75,1472.21,777.38"/>
<path d="M1416.17,889.75,1363.65,828.80"/>
<path d="M1416.17,889.75,1447.08,903.77"/>
<path d="M152.06,795.33,208.53,778.99"/>
<path d="M152.06,795.33,166.75,724.30"/>
<path d="M152.06,795.33,183.39,885.32"/>
<path d="M952.98,1579.03,898.10,1557.97"/>
<path d="M952.98,1579.03,1023.40,1492.00"/>
<path d="M1763.82,524.68,1771.48,415.61"/>
<path d="M1763.82,524.68,1717.95,510.57"/>
<path d="M1993.94,1309.66,1979.94,1284.05"/>
<path d="M1053.93,2023.28,1152.79,2043.91"/>
<path d="M1053.93,2023.28,1159.59,1867.55"/>
<path d="M1016.38,605.11,965.32,681.02"/>
<path d="M1016.38,605.11,1031.48,674.10"/>
<path d="M1016.38,605.11,1062.83,647.42"/>
<path d="M612.32,605.07,742.08,519.80"/>
<path d="M612.32,605.07,511.89,609.43"/>
<path d="M612.32,605.07,675.19,729.68"/>
<path d="M1422.51,83.50,1359.80,57.07"/>
<path d="M1328.57,1724.37,1296.08,1816.88"/>
<path d="M1328.57,1724.37,1288.83,1604.36"/>
<path d="M388.43,1536.36,518.39,1527.62"/>
<path d="M992.76,24.34,898.02,14.88"/>
<path d="M992.76,24.34,1013.38,63.53"/>
<path d="M216.23,1022.48,151.10,1195.26"/>
<path d="M216.23,1022.48,214.95,981.55"/>
<path d="M394.33,271.46,335.72,166.80"/>
<path d="M1526.71,1249.33,1583.06,1121.12"/>
<path d="M1526.71,1249.33,1576.48,1254.08"/>
<path d="M1526.71,1249.33,1425.77,1234.51"/>
<path d="M1331.27,692.89,1280.31,669.88"/>
<path d="M1331.27,692.89,1344.60,771.52"/>
<path d="M1199.00,517.78,1280.31,669.88"/>
<path d="M1199.00,517.78,1142.98,595.55"/>
<path d="M1199.00,517.78,1297.59,492.34"/>
<path d="M1004.91,378.22,1005.45,332.70"/>
<path d="M1004.91,378.22,1035.90,375.64"/>
<path d="M746.18,909.22,757.09,986.17"/>
<path d="M746.18,909.22,806.66,873.70"/>
<path d="M746.18,909.22,724.27,863.80"/>
<path d="M99.82,660.31,196.78,546.78"/>
<path d="M99.82,660.31,178.28,685.17"/>
<path d="M1834.17,1462.41,1818.65,1337.49"/>
<path d="M1834.17,1462.41,1904.47,1563.88"/>
<path d="M1834.17,1462.41,1802.86,1462.47"/>
<path d="M1834.17,1462.41,1852.01,1589.63"/>
<path d="M1005.45,332.70,1036.30,348.26"/>
<path d="M358.62,2044.82,381.99,2026.99"/>
<path d="M358.62,2044.82,318.48,2036.38"/>
<path d="M479.60,2071.52,420.50,2042.80"/>
<path d="M411.37,1995.34,381.99,2026.99"/>
<path d="M411.37,1995.34,458.08,1938.53"/>
<path d="M411.37,1995.34,420.50,2042.80"/>
<path d="M898.10,1557.97,827.73,1694.51"/>
<path d="M898.10,1557.97,785.28,1518.68"/>
<path d="M1242.26,22.03,1187.65,22.88"/>
<path d="M933.24,1935.82,897.25,1844.78"/>
<path d="M208.53,778.99,306.07,795.61"/>
<path d="M208.53,778.99,183.39,885.32"/>
<path d="M1152.79,2043.91,1159.59,1867.55"/>
<path d="M1816.14,1153.57,1861.91,999.95"/>
<path d="M247.93,1890.01,210.26,1798.50"/>
<path d="M247.93,1890.01,291.47,1949.62"/>
<path d="M247.93,1890.01,409.60,1788.54"/>
<path d="M247.93,1890.01,151.37,1890.25"/>
<path d="M247.93,1890.01,188.45,1944.31"/>
<path d="M247.93,1890.01,230.83,1990.12"/>
<path d="M1064.11,143.15,1078.40,74.68"/>
<path d="M1064.11,143.15,1120.82,265.18"/>
<path d="M1656.38,1279.56,1715.33,1266.21"/>
<path d="M1656.38,1279.56,1660.34,1311.50"/>
<path d="M1656.38,1279.56,1620.25,1293.57"/>
<path d="M965.32,681.02,1031.48,674.10"/>
<path d="M518.39,1527.62,611.62,1587.52"/>
<path d="M518.39,1527.62,592.42,1440.56"/>
<path d="M565.67,366.87,676.84,341.19"/>
<path d="M196.78,546.78,226.75,474.17"/>
<path d="M196.78,546.78,217.26,641.55"/>
<path d="M203.97,381.19,205.22,282.25"/>
<path d="M203.97,381.19,226.75,474.17"/>
<path d="M2030.40,832.85,2009.88,893.70"/>
<path d="M2030.40,832.85,2113.39,700.86"/>
<path d="M65.29,184.67,54.49,234.93"/>
<path d="M65.29,184.67,32.65,187.03"/>
<path d="M1334.57,132.52,1382.25,285.51"/>
<path d="M1334.57,132.52,1250.37,199.60"/>
<path d="M1557.30,1041.29,1641.32,936.43"/>
<path d="M1557.30,1041.29,1612.19,1097.51"/>
<path d="M1557.30,1041.29,1491.08,1043.38"/>
<path d="M1478.74,1895.41,1406.74,1919.23"/>
<path d="M1478.74,1895.41,1507.83,1888.29"/>
<path d="M1478.74,1895.41,1470.84,1827.14"/>
<path d="M742.08,519.80,808.95,715.72"/>
<path d="M742.08,519.80,883.61,615.28"/>
<path d="M1416.08,1007.38,1491.08,1043.38"/>
<path d="M1416.08,1007.38,1447.08,903.77"/>
<path d="M1917.30,1825.98,1797.53,1740.39"/>
<path d="M1917.30,1825.98,2041.46,1818.54"/>
<path d="M1917.30,1825.98,1989.76,1669.84"/>
<path d="M1917.30,1825.98,1896.04,1866.39"/>
<path d="M2079.88,1214.85,2049.88,1182.14"/>
<path d="M2079.88,1214.85,1979.94,1284.05"/>
<path d="M511.89,609.43,479.23,768.00"/>
<path d="M511.89,609.43,365.59,598.32"/>
<path d="M672.03,877.28,611.25,827.65"/>
<path d="M672.03,877.28,724.27,863.80"/>
<path d="M672.03,877.28,511.37,1034.30"/>
<path d="M672.03,877.28,682.64,1027.18"/>
<path d="M1485.90,1784.08,1470.84,1827.14"/>
<path d="M1485.90,1784.08,1752.09,1801.30"/>
<path d="M1736.29,249.02,1785.73,165.12"/>
<path d="M1736.29,249.02,1822.05,234.96"/>
<path d="M66.38,1428.30,66.30,1544.72"/>
<path d="M1078.40,74.68,1187.65,22.88"/>
<path d="M1078.40,74.68,1013.38,63.53"/>
<path d="M1641.32,936.43,1472.21,777.38"/>
<path d="M1641.32,936.43,1447.08,903.77"/>
<path d="M1406.74,1919.23,1372.94,1863.12"/>
<path d="M1406.74,1919.23,1407.63,1986.70"/>
<path d="M1036.30,348.26,1035.90,375.64"/>
<path d="M1771.48,415.61,1717.95,510.57"/>
<path d="M1771.48,415.61,1693.38,433.19"/>
<path d="M1832.63,1866.38,1826.49,1968.70"/>
<path d="M1832.63,1866.38,1896.04,1866.39"/>
<path d="M1832.63,1866.38,1752.09,1801.30"/>
<path d="M950.68,1302.02,1025.51,1219.89"/>
<path d="M950.68,1302.02,1056.98,1255.51"/>
<path d="M950.68,1302.02,954.84,1403.54"/>
<path d="M1583.06,1121.12,1612.19,1097.51"/>
<path d="M1583.06,1121.12,1576.48,1254.08"/>
<path d="M1624.40,613.10,1680.72,536.73"/>
<path d="M1624.40,613.10,1472.21,777.38"/>
<path d="M1025.51,1219.89,1056.98,1255.51"/>
<path d="M2031.67,150.68,2000.96,160.06"/>
<path d="M1124.94,413.38,1147.02,467.28"/>
<path d="M1124.94,413.38,1143.06,394.20"/>
<path d="M1124.94,413.38,1035.90,375.64"/>
<path d="M1680.72,536.73,1717.95,510.57"/>
<path d="M757.09,986.17,835.54,1072.12"/>
<path d="M757.09,986.17,682.64,1027.18"/>
<path d="M1120.82,265.18,1168.39,263.28"/>
<path d="M1904.98,741.01,1923.57,654.31"/>
<path d="M1243.31,327.83,1168.39,263.28"/>
<path d="M1243.31,327.83,1382.25,285.51"/>
<path d="M1243.31,327.83,1143.06,394.20"/>
<path d="M1243.31,327.83,1250.37,199.60"/>
<path d="M1535.05,1479.20,1399.16,1495.81"/>
<path d="M11.97,1722.79,90.41,1775.76"/>
<path d="M1296.08,1816.88,1372.94,1863.12"/>
<path d="M1296.08,1816.88,1220.73,1827.43"/>
<path d="M90.41,1775.76,210.26,1798.50"/>
<path d="M90.41,1775.76,175.15,1702.67"/>
<path d="M90.41,1775.76,151.37,1890.25"/>
<path d="M1946.75,975.13,2009.88,893.70"/>
<path d="M1946.75,975.13,1905.90,858.76"/>
<path d="M1946.75,975.13,1861.91,999.95"/>
<path d="M1472.21,777.38,1363.65,828.80"/>
<path d="M1472.21,777.38,1344.60,771.52"/>
<path d="M1472.21,777.38,1447.08,903.77"/>
<path d="M1785.73,165.12,1788.54,119.05"/>
<path d="M1785.73,165.12,1822.05,234.96"/>
<path d="M1785.73,165.12,1857.99,198.37"/>
<path d="M35.15,902.61,10.49,741.84"/>
<path d="M1797.53,1740.39,1989.76,1669.84"/>
<path d="M1797.53,1740.39,1852.01,1589.63"/>
<path d="M1797.53,1740.39,1752.09,1801.30"/>
<path d="M1363.65,828.80,1344.60,771.52"/>
<path d="M1288.83,1604.36,1258.21,1589.15"/>
<path d="M672.08,1520.96,611.62,1587.52"/>
<path d="M672.08,1520.96,641.33,1443.38"/>
<path d="M156.78,1950.13,142.64,2088.60"/>
<path d="M156.78,1950.13,151.37,1890.25"/>
<path d="M156.78,1950.13,62.19,2001.05"/>
<path d="M156.78,1950.13,188.45,1944.31"/>
<path d="M1717.95,510.57,1693.38,433.19"/>
<path d="M26.72,1572.15,66.30,1544.72"/>
<path d="M2049.88,1182.14,2109.90,1091.85"/>
<path d="M2049.88,1182.14,1979.94,1284.05"/>
<path d="M1562.47,1958.15,1507.83,1888.29"/>
<path d="M1562.47,1958.15,1584.69,2027.03"/>
<path d="M1562.47,1958.15,1752.09,1801.30"/>
<path d="M54.49,234.93,32.65,187.03"/>
<path d="M794.22,1187.91,753.86,1269.63"/>
<path d="M794.22,1187.91,813.23,1164.45"/>
<path d="M2009.88,893.70,1905.90,858.76"/>
<path d="M727.96,91.29,669.08,114.16"/>
<path d="M727.96,91.29,772.98,207.11"/>
<path d="M1031.48,674.10,1062.83,647.42"/>
<path d="M1818.65,1337.49,1802.86,1462.47"/>
<path d="M1177.47,1445.30,1041.32,1464.76"/>
<path d="M1177.47,1445.30,1186.81,1364.52"/>
<path d="M730.46,1628.15,827.73,1694.51"/>
<path d="M730.46,1628.15,611.62,1587.52"/>
<path d="M263.90,213.35,205.22,282.25"/>
<path d="M263.90,213.35,335.72,166.80"/>
<path d="M1159.59,1867.55,1125.45,1783.41"/>
<path d="M1159.59,1867.55,1220.73,1827.43"/>
<path d="M1280.31,669.88,1142.98,595.55"/>
<path d="M1715.33,1266.21,1705.97,1224.44"/>
<path d="M1507.83,1888.29,1470.84,1827.14"/>
<path d="M1507.83,1888.29,1752.09,1801.30"/>
<path d="M1584.69,2027.03,1407.43,2117.93"/>
<path d="M1584.69,2027.03,1600.97,2088.46"/>
<path d="M835.54,1072.12,813.23,1164.45"/>
<path d="M210.26,1798.50,409.60,1788.54"/>
<path d="M210.26,1798.50,175.15,1702.67"/>
<path d="M210.26,1798.50,151.37,1890.25"/>
<path d="M2041.46,1818.54,1989.76,1669.84"/>
<path d="M1576.48,1254.08,1660.87,1142.23"/>
<path d="M1576.48,1254.08,1620.25,1293.57"/>
<path d="M806.66,873.70,724.27,863.80"/>
<path d="M303.15,2073.75,142.64,2088.60"/>
<path d="M303.15,2073.75,318.48,2036.38"/>
<path d="M1989.76,1669.84,1904.47,1563.88"/>
<path d="M1989.76,1669.84,2013.93,1547.84"/>
<path d="M1705.97,1224.44,1660.87,1142.23"/>
<path d="M1005.58,1119.83,1041.65,1000.91"/>
<path d="M611.62,1587.52,579.11,1706.21"/>
<path d="M1168.39,263.28,1250.37,199.60"/>
<path d="M134.04,960.04,183.39,885.32"/>
<path d="M134.04,960.04,214.95,981.55"/>
<path d="M166.75,724.30,178.28,685.17"/>
<path d="M808.95,715.72,898.61,712.13"/>
<path d="M808.95,715.72,883.61,615.28"/>
<path d="M524.73,23.30,554.78,24.44"/>
<path d="M381.99,2026.99,420.50,2042.80"/>
<path d="M1382.25,285.51,1250.37,199.60"/>
<path d="M291.47,1949.62,409.60,1788.54"/>
<path d="M291.47,1949.62,318.48,2036.38"/>
<path d="M291.47,1949.62,230.83,1990.12"/>
<path d="M753.86,1269.63,681.85,1273.68"/>
<path d="M753.86,1269.63,695.31,1300.68"/>
<path d="M1946.18,635.39,1987.33,608.67"/>
<path d="M1946.18,635.39,1923.57,654.31"/>
<path d="M898.61,712.13,883.61,615.28"/>
<path d="M602.94,792.60,611.25,827.65"/>
<path d="M1865.80,346.36,1857.94,310.21"/>
<path d="M1313.24,1160.15,1425.77,1234.51"/>
<path d="M1660.87,1142.23,1735.06,1098.14"/>
<path d="M1698.69,324.02,1595.83,345.99"/>
<path d="M1698.69,324.02,1693.38,433.19"/>
<path d="M1788.54,119.05,1768.99,58.57"/>
<path d="M1788.54,119.05,1886.22,150.81"/>
<path d="M2035.87,1506.58,2013.93,1547.84"/>
<path d="M2035.87,1506.58,2117.79,1584.51"/>
<path d="M151.10,1195.26,21.66,1238.19"/>
<path d="M409.60,1788.54,458.08,1938.53"/>
<path d="M1822.05,234.96,1857.99,198.37"/>
<path d="M1822.05,234.96,1857.94,310.21"/>
<path d="M1905.90,858.76,1861.91,999.95"/>
<path d="M1041.32,1464.76,954.84,1403.54"/>
<path d="M1041.32,1464.76,1023.40,1492.00"/>
<path d="M142.64,2088.60,62.19,2001.05"/>
<path d="M142.64,2088.60,230.83,1990.12"/>
<path d="M1660.34,1311.50,1620.25,1293.57"/>
<path d="M1079.08,1700.75,1077.65,1615.98"/>
<path d="M1079.08,1700.75,1125.45,1783.41"/>
<path d="M776.13,251.90,772.98,207.11"/>
<path d="M1077.65,1615.98,1023.40,1492.00"/>
<path d="M1979.94,1284.05,1856.22,1259.28"/>
<path d="M311.32,944.57,437.07,995.63"/>
<path d="M527.54,1288.96,531.04,1207.64"/>
<path d="M476.11,950.37,611.25,827.65"/>
<path d="M476.11,950.37,479.23,768.00"/>
<path d="M476.11,950.37,437.07,995.63"/>
<path d="M476.11,950.37,511.37,1034.30"/>
<path d="M151.37,1890.25,188.45,1944.31"/>
<path d="M1826.49,1968.70,1908.44,1963.08"/>
<path d="M681.85,1273.68,695.31,1300.68"/>
<path d="M531.04,1207.64,608.76,1150.63"/>
<path d="M669.08,114.16,557.87,92.40"/>
<path d="M1896.04,1866.39,1908.44,1963.08"/>
<path d="M1186.81,1364.52,1056.98,1255.51"/>
<path d="M17.25,1957.64,62.19,2001.05"/>
<path d="M1595.83,345.99,1693.38,433.19"/>
<path d="M318.48,2036.38,230.83,1990.12"/>
<path d="M1041.65,1000.91,954.57,928.12"/>
<path d="M339.26,106.40,335.72,166.80"/>
<path d="M339.26,106.40,373.81,22.55"/>
<path d="M339.26,106.40,91.35,12.76"/>
<path d="M1904.47,1563.88,2013.93,1547.84"/>
<path d="M1904.47,1563.88,1852.01,1589.63"/>
<path d="M61.56,51.30,91.35,12.76"/>
<path d="M1125.45,1783.41,1220.73,1827.43"/>
<path d="M2000.96,160.06,1945.11,172.65"/>
<path d="M1407.63,1986.70,1352.77,2033.48"/>
<path d="M437.07,995.63,511.37,1034.30"/>
<path d="M554.78,24.44,557.87,92.40"/>
<path d="M1920.68,92.45,1945.11,172.65"/>
<path d="M1920.68,92.45,1886.22,150.81"/>
<path d="M1920.68,92.45,2030.34,12.28"/>
<path d="M188.45,1944.31,230.83,1990.12"/>
<path d="M557.30,1979.87,458.08,1938.53"/>
<path d="M1407.43,2117.93,1600.97,2088.46"/>
<path d="M1545.05,1615.14,1560.19,1564.59"/>
<path d="M592.42,1440.56,641.33,1443.38"/>
<path d="M1945.11,172.65,1886.22,150.81"/>
<path d="M511.37,1034.30,682.64,1027.18"/>
<path d="M682.64,1027.18,608.76,1150.63"/>
<path d="M2094.62,1478.61,2117.79,1584.51"/>
<path d="M2013.93,1547.84,2117.79,1584.51"/>
<path d="M217.26,641.55,178.28,685.17"/>
<path d="M1886.22,150.81,1857.99,198.37"/>
<path d="M1297.59,492.34,1357.88,492.56"/>
<circle cx="1586.16" cy="1543.76" r="10"/>
<text x="1586.16" y="1548.76">R0</text>
<circle cx="1707.51" cy="1353.85" r="10"/>
<text x="1707.51" y="1358.85">R1</text>
<circle cx="1344.02" cy="641.47" r="10"/>
<text x="1344.02" y="646.47">R2</text>
<circle cx="1843.65" cy="1288.37" r="10"/>
<text x="1843.65" y="1293.37">R3</text>
<circle cx="2095.61" cy="115.56" r="10"/>
<text x="2095.61" y="120.56">R4</text>
<circle cx="1079.04" cy="826.86" r="10"/>
<text x="1079.04" y="831.86">R5</text>
<circle cx="38.23" cy="733.46" r="10"/>
<text x="38.23" y="738.46">R6</text>
<circle cx="850.13" cy="338.33" r="10"/>
<text x="850.13" y="343.33">R7</text>
<circle cx="105.08" cy="1043.60" r="10"/>
<text x="105.08" y="1048.60">R8</text>
<circle cx="680.03" cy="1210.13" r="10"/>
<text x="680.03" y="1215.13">R9</text>
<circle cx="1633.44" cy="1636.37" r="10"/>
<text x="1633.44" y="1641.37">R10</text>
<circle cx="1777.54" cy="1160.68" r="10"/>
<text x="1777.54" y="1165.68">R11</text>
<circle cx="921.49" cy="1760.42" r="10"/>
<text x="921.49" y="1765.42">R12</text>
<circle cx="326.92" cy="879.61" r="10"/>
<text x="326.92" y="884.61">R13</text>
<circle cx="1786.81" cy="373.54" r="10"/>
<text x="1786.81" y="378.54">R14</text>
<circle cx="1284.87" cy="1353.92" r="10"/>
<text x="1284.87" y="1358.92">R15</text>
<circle cx="885.99" cy="1723.72" r="10"/>
<text x="885.99" y="1728.72">R16</text>
<circle cx="1189.19" cy="471.72" r="10"/>
<text x="1189.19" y="476.72">R17</text>
<circle cx="1749.98" cy="1322.32" r="10"/>
<text x="1749.98" y="1327.32">R18</text>
<circle cx="263.65" cy="1450.20" r="10"/>
<text x="263.65" y="1455.20">R19</text>
<circle cx="676.44" cy="443.51" r="10"/>
<text x="676.44" y="448.51">R20</text>
<circle cx="2016.09" cy="1997.72" r="10"/>
<text x="2016.09" y="2002.72">R21</text>
<circle cx="456.63" cy="390.32" r="10"/>
<text x="456.63" y="395.32">R22</text>
<circle cx="872.22" cy="1961.10" r="10"/>
<text x="872.22" y="1966.10">R23</text>
<circle cx="1957.52" cy="1033.88" r="10"/>
<text x="1957.52" y="1038.88">R24</text>
<circle cx="493.13" cy="524.98" r="10"/>
<text x="493.13" y="529.98">R25</text>
<circle cx="1577.17" cy="191.90" r="10"/>
<text x="1577.17" y="196.90">R26</text>
<circle cx="922.23" cy="725.16" r="10"/>
<text x="922.23" y="730.16">R27</text>
<circle cx="887.69" cy="1781.50" r="10"/>
<text x="887.69" y="1786.50">R28</text>
<circle cx="1977.31" cy="1136.05" r="10"/>
<text x="1977.31" y="1141.05">R29</text>
<circle cx="1432.52" cy="1773.10" r="10"/>
<text x="1432.52" y="1778.10">R30</text>
<circle cx="712.99" cy="330.49" r="10"/>
<text x="712.99" y="335.49">R31</text>
<circle cx="409.65" cy="36.26" r="10"/>
<text x="409.65" y="41.26">R32</text>
<circle cx="765.19" cy="1897.33" r="10"/>
<text x="765.19" y="1902.33">R33</text>
<circle cx="50.42" cy="575.45" r="10"/>
<text x="50.42" y="580.45">R34</text>
<circle cx="1726.59" cy="1694.59" r="10"/>
<text x="1726.59" y="1699.59">R35</text>
<circle cx="279.55" cy="1155.42" r="10"/>
<text x="279.55" y="1160.42">R36</text>
<circle cx="1309.94" cy="1540.83" r="10"/>
<text x="1309.94" y="1545.83">R37</text>
<circle cx="135.13" cy="333.60" r="10"/>
<text x="135.13" y="338.60">R38</text>
<circle cx="1609.41" cy="1127.75" r="10"/>
<text x="1609.41" y="1132.75">R39</text>
<circle cx="1007.19" cy="95.92" r="10"/>
<text x="1007.19" y="100.92">R40</text>
<circle cx="2094.08" cy="1733.96" r="10"/>
<text x="2094.08" y="1738.96">R41</text>
<circle cx="2083.79" cy="240.50" r="10"/>
<text x="2083.79" y="245.50">R42</text>
<circle cx="1692.61" cy="930.08" r="10"/>
<text x="1692.61" y="935.08">R43</text>
<circle cx="1242.06" cy="823.31" r="10"/>
<text x="1242.06" y="828.31">R44</text>
<circle cx="1049.76" cy="899.41" r="10"/>
<text x="1049.76" y="904.41">R45</text>
<circle cx="881.78" cy="1457.61" r="10"/>
<text x="881.78" y="1462.61">R46</text>
<circle cx="1786.75" cy="998.56" r="10"/>
<text x="1786.75" y="1003.56">R47</text>
<circle cx="1952.65" cy="395.66" r="10"/>
<text x="1952.65" y="400.66">R48</text>
<circle cx="703.92" cy="821.12" r="10"/>
<text x="703.92" y="826.12">R49</text>
<circle cx="2087.54" cy="1974.24" r="10"/>
<text x="2087.54" y="1979.24">R50</text>
<circle cx="706.15" cy="1751.30" r="10"/>
<text x="706.15" y="1756.30">R51</text>
<circle cx="596.96" cy="757.01" r="10"/>
<text x="596.96" y="762.01">R52</text>
<circle cx="1812.27" cy="32.80" r="10"/>
<text x="1812.27" y="37.80">R53</text>
<circle cx="1183.93" cy="1722.41" r="10"/>
<text x="1183.93" y="1727.41">R54</text>
<circle cx="1567.35" cy="93.57" r="10"/>
<text x="1567.35" y="98.57">R55</text>
<circle cx="1864.00" cy="750.08" r="10"/>
<text x="1864.00" y="755.08">R56</text>
<circle cx="1337.75" cy="76.97" r="10"/>
<text x="1337.75" y="81.97">R57</text>
<circle cx="1330.85" cy="990.65" r="10"/>
<text x="1330.85" y="995.65">R58</text>
<circle cx="1272.59" cy="746.60" r="10"/>
<text x="1272.59" y="751.60">R59</text>
<circle cx="1056.92" cy="2053.99" r="10"/>
<text x="1056.92" y="2058.99">R60</text>
<circle cx="1112.99" cy="639.57" r="10"/>
<text x="1112.99" y="644.57">R61</text>
<circle cx="379.17" cy="1626.14" r="10"/>
<text x="379.17" y="1631.14">R62</text>
<circle cx="1466.76" cy="1310.46" r="10"/>
<text x="1466.76" y="1315.46">R63</text>
<circle cx="914.85" cy="576.77" r="10"/>
<text x="914.85" y="581.77">R64</text>
<circle cx="52.80" cy="1358.10" r="10"/>
<text x="52.80" y="1363.10">R65</text>
<circle cx="1768.79" cy="2021.84" r="10"/>
<text x="1768.79" y="2026.84">R66</text>
<circle cx="1400.76" cy="1796.45" r="10"/>
<text x="1400.76" y="1801.45">R67</text>
<circle cx="52.26" cy="135.77" r="10"/>
<text x="52.26" y="140.77">R68</text>
<circle cx="1546.60" cy="1096.92" r="10"/>
<text x="1546.60" y="1101.92">R69</text>
<circle cx="906.21" cy="1012.16" r="10"/>
<text x="906.21" y="1017.16">R70</text>
<circle cx="1404.39" cy="1119.49" r="10"/>
<text x="1404.39" y="1124.49">R71</text>
<circle cx="1382.81" cy="2049.11" r="10"/>
<text x="1382.81" y="2054.11">R72</text>
<circle cx="805.03" cy="743.91" r="10"/>
<text x="805.03" y="748.91">R73</text>
<circle cx="2037.27" cy="1351.19" r="10"/>
<text x="2037.27" y="1356.19">R74</text>
<circle cx="729.71" cy="1365.92" r="10"/>
<text x="729.71" y="1370.92">R75</text>
<circle cx="967.42" cy="873.77" r="10"/>
<text x="967.42" y="878.77">R76</text>
<circle cx="718.58" cy="265.91" r="10"/>
<text x="718.58" y="270.91">R77</text>
<circle cx="1615.60" cy="1380.63" r="10"/>
<text x="1615.60" y="1385.63">R78</text>
<circle cx="1698.12" cy="257.57" r="10"/>
<text x="1698.12" y="262.57">R79</text>
<circle cx="391.71" cy="748.60" r="10"/>
<text x="391.71" y="753.60">R80</text>
<circle cx="1108.00" cy="589.72" r="10"/>
<text x="1108.00" y="594.72">R81</text>
<circle cx="495.11" cy="1370.25" r="10"/>
<text x="495.11" y="1375.25">R82</text>
<circle cx="333.80" cy="821.02" r="10"/>
<text x="333.80" y="826.02">R83</text>
<circle cx="350.64" cy="767.73" r="10"/>
<text x="350.64" y="772.73">R84</text>
<circle cx="1059.63" cy="13.02" r="10"/>
<text x="1059.63" y="18.02">R85</text>
<circle cx="120.82" cy="400.65" r="10"/>
<text x="120.82" y="405.65">R86</text>
<circle cx="63.39" cy="608.55" r="10"/>
<text x="63.39" y="613.55">R87</text>
<circle cx="277.54" cy="623.70" r="10"/>
<text x="277.54" y="628.70">R88</text>
<circle cx="54.56" cy="1643.50" r="10"/>
<text x="54.56" y="1648.50">R89</text>
<circle cx="1734.08" cy="131.89" r="10"/>
<text x="1734.08" y="136.89">R90</text>
<circle cx="932.72" cy="607.27" r="10"/>
<text x="932.72" y="612.27">R91</text>
<circle cx="438.49" cy="189.24" r="10"/>
<text x="438.49" y="194.24">R92</text>
<circle cx="1307.18" cy="2086.76" r="10"/>
<text x="1307.18" y="2091.76">R93</text>
<circle cx="1207.82" cy="854.94" r="10"/>
<text x="1207.82" y="859.94">R94</text>
<circle cx="15.84" cy="1018.12" r="10"/>
<text x="15.84" y="1023.12">R95</text>
<circle cx="851.22" cy="936.22" r="10"/>
<text x="851.22" y="941.22">R96</text>
<circle cx="1801.94" cy="353.56" r="10"/>
<text x="1801.94" y="358.56">R97</text>
<circle cx="302.39" cy="689.04" r="10"/>
<text x="302.39" y="694.04">R98</text>
<circle cx="916.81" cy="1309.80" r="10"/>
<text x="916.81" y="1314.80">R99</text>
<circle cx="998.52" cy="1154.94" r="10"/>
<text x="998.52" y="1159.94">R100</text>
<circle cx="1337.53" cy="593.20" r="10"/>
<text x="1337.53" y="598.20">R101</text>
<circle cx="1949.50" cy="431.95" r="10"/>
<text x="1949.50" y="436.95">R102</text>
<circle cx="809.66" cy="1845.56" r="10"/>
<text x="809.66" y="1850.56">R103</text>
<circle cx="994.43" cy="1949.92" r="10"/>
<text x="994.43" y="1954.92">R104</text>
<circle cx="942.72" cy="1159.22" r="10"/>
<text x="942.72" y="1164.22">R105</text>
<circle cx="1494.91" cy="1632.99" r="10"/>
<text x="1494.91" y="1637.99">R106</text>
<circle cx="1734.66" cy="1158.37" r="10"/>
<text x="1734.66" y="1163.37">R107</text>
<circle cx="1113.12" cy="312.17" r="10"/>
<text x="1113.12" y="317.17">R108</text>
<circle cx="1286.23" cy="837.59" r="10"/>
<text x="1286.23" y="842.59">R109</text>
<circle cx="1793.42" cy="901.38" r="10"/>
<text x="1793.42" y="906.38">R110</text>
<circle cx="937.77" cy="1793.65" r="10"/>
<text x="937.77" y="1798.65">R111</text>
<circle cx="1209.64" cy="1155.59" r="10"/>
<text x="1209.64" y="1160.59">R112</text>
<circle cx="536.07" cy="2020.66" r="10"/>
<text x="536.07" y="2025.66">R113</text>
<circle cx="1335.51" cy="2008.36" r="10"/>
<text x="1335.51" y="2013.36">R114</text>
<circle cx="1730.38" cy="1068.39" r="10"/>
<text x="1730.38" y="1073.39">R115</text>
<circle cx="1814.85" cy="2120.63" r="10"/>
<text x="1814.85" y="2125.63">R116</text>
<circle cx="2079.47" cy="92.68" r="10"/>
<text x="2079.47" y="97.68">R117</text>
<circle cx="535.26" cy="1746.72" r="10"/>
<text x="535.26" y="1751.72">R118</text>
<circle cx="1348.69" cy="1328.93" r="10"/>
<text x="1348.69" y="1333.93">R119</text>
<circle cx="1696.60" cy="793.56" r="10"/>
<text x="1696.60" y="798.56">R120</text>
<circle cx="290.24" cy="293.69" r="10"/>
<text x="290.24" y="298.69">R121</text>
<circle cx="677.91" cy="1836.32" r="10"/>
<text x="677.91" y="1841.32">R122</text>
<circle cx="1410.09" cy="135.66" r="10"/>
<text x="1410.09" y="140.66">R123</text>
<circle cx="525.21" cy="1091.48" r="10"/>
<text x="525.21" y="1096.48">R124</text>
<circle cx="654.67" cy="1740.78" r="10"/>
<text x="654.67" y="1745.78">R125</text>
<circle cx="1454.86" cy="519.55" r="10"/>
<text x="1454.86" y="524.55">R126</text>
<circle cx="84.69" cy="1911.78" r="10"/>
<text x="84.69" y="1916.78">R127</text>
<circle cx="807.93" cy="211.67" r="10"/>
<text x="807.93" y="216.67">R128</text>
<circle cx="912.83" cy="97.32" r="10"/>
<text x="912.83" y="102.32">R129</text>
<circle cx="205.54" cy="1456.93" r="10"/>
<text x="205.54" y="1461.93">R130</text>
<circle cx="1262.87" cy="431.23" r="10"/>
<text x="1262.87" y="436.23">R131</text>
<circle cx="383.81" cy="336.44" r="10"/>
<text x="383.81" y="341.44">R132</text>
<circle cx="1502.50" cy="429.69" r="10"/>
<text x="1502.50" y="434.69">R133</text>
<circle cx="2112.87" cy="1638.37" r="10"/>
<text x="2112.87" y="1643.37">R134</text>
<circle cx="1297.65" cy="410.88" r="10"/>
<text x="1297.65" y="415.88">R135</text>
<circle cx="1633.47" cy="27.65" r="10"/>
<text x="1633.47" y="32.65">R136</text>
<circle cx="1425.15" cy="1811.50" r="10"/>
<text x="1425.15" y="1816.50">R137</text>
<circle cx="1734.13" cy="36.37" r="10"/>
<text x="1734.13" y="41.37">R138</text>
<circle cx="1217.90" cy="128.63" r="10"/>
<text x="1217.90" y="133.63">R139</text>
<circle cx="1959.87" cy="342.85" r="10"/>
<text x="1959.87" y="347.85">R140</text>
<circle cx="653.40" cy="1312.08" r="10"/>
<text x="653.40" y="1317.08">R141</text>
<circle cx="1370.06" cy="1626.31" r="10"/>
<text x="1370.06" y="1631.31">R142</text>
<circle cx="780.84" cy="458.53" r="10"/>
<text x="780.84" y="463.53">R143</text>
<circle cx="1840.33" cy="2110.36" r="10"/>
<text x="1840.33" y="2115.36">R144</text>
<circle cx="1647.74" cy="1510.09" r="10"/>
<text x="1647.74" y="1515.09">R145</text>
<circle cx="484.26" cy="1792.94" r="10"/>
<text x="484.26" y="1797.94">R146</text>
<circle cx="863.25" cy="887.76" r="10"/>
<text x="863.25" y="892.76">R147</text>
<circle cx="988.73" cy="773.73" r="10"/>
<text x="988.73" y="778.73">R148</text>
<circle cx="692.45" cy="32.30" r="10"/>
<text x="692.45" y="37.30">R149</text>
<circle cx="1807.86" cy="1238.60" r="10"/>
<text x="1807.86" y="1243.60">R150</text>
<circle cx="466.84" cy="1233.22" r="10"/>
<text x="466.84" y="1238.22">R151</text>
<circle cx="862.81" cy="102.40" r="10"/>
<text x="862.81" y="107.40">R152</text>
<circle cx="2054.11" cy="1463.80" r="10"/>
<text x="2054.11" y="1468.80">R153</text>
<circle cx="1880.82" cy="294.65" r="10"/>
<text x="1880.82" y="299.65">R154</text>
<circle cx="1947.40" cy="779.64" r="10"/>
<text x="1947.40" y="784.64">R155</text>
<circle cx="1579.26" cy="50.03" r="10"/>
<text x="1579.26" y="55.03">R156</text>
<circle cx="1226.34" cy="1593.11" r="10"/>
<text x="1226.34" y="1598.11">R157</text>
<circle cx="1076.37" cy="514.74" r="10"/>
<text x="1076.37" y="519.74">R158</text>
<circle cx="1643.35" cy="1381.98" r="10"/>
<text x="1643.35" y="1386.98">R159</text>
<circle cx="557.23" cy="265.41" r="10"/>
<text x="557.23" y="270.41">R160</text>
<circle cx="731.62" cy="1531.77" r="10"/>
<text x="731.62" y="1536.77">R161</text>
<circle cx="238.04" cy="918.24" r="10"/>
<text x="238.04" y="923.24">R162</text>
<circle cx="163.48" cy="457.52" r="10"/>
<text x="163.48" y="462.52">R163</text>
<circle cx="20.19" cy="79.31" r="10"/>
<text x="20.19" y="84.31">R164</text>
<circle cx="376.71" cy="402.49" r="10"/>
<text x="376.71" y="407.49">R165</text>
<circle cx="80.48" cy="955.59" r="10"/>
<text x="80.48" y="960.59">R166</text>
<circle cx="1569.19" cy="1288.36" r="10"/>
<text x="1569.19" y="1293.36">R167</text>
<circle cx="443.50" cy="1272.99" r="10"/>
<text x="443.50" y="1277.99">R168</text>
<circle cx="1870.83" cy="600.37" r="10"/>
<text x="1870.83" y="605.37">R169</text>
<circle cx="1204.51" cy="1751.33" r="10"/>
<text x="1204.51" y="1756.33">R170</text>
<circle cx="1037.85" cy="1623.89" r="10"/>
<text x="1037.85" y="1628.89">R171</text>
<circle cx="108.12" cy="799.24" r="10"/>
<text x="108.12" y="804.24">R172</text>
<circle cx="2053.93" cy="580.56" r="10"/>
<text x="2053.93" y="585.56">R173</text>
<circle cx="1187.89" cy="1544.08" r="10"/>
<text x="1187.89" y="1549.08">R174</text>
<circle cx="879.68" cy="500.37" r="10"/>
<text x="879.68" y="505.37">R175</text>
<circle cx="2094.54" cy="977.87" r="10"/>
<text x="2094.54" y="982.87">R176</text>
<circle cx="423.74" cy="1177.70" r="10"/>
<text x="423.74" y="1182.70">R177</text>
<circle cx="344.21" cy="1415.78" r="10"/>
<text x="344.21" y="1420.78">R178</text>
<circle cx="1484.52" cy="407.17" r="10"/>
<text x="1484.52" y="412.17">R179</text>
<circle cx="423.61" cy="1728.41" r="10"/>
<text x="423.61" y="1733.41">R180</text>
<circle cx="1616.47" cy="2021.65" r="10"/>
<text x="1616.47" y="2026.65">R181</text>
<circle cx="217.59" cy="743.01" r="10"/>
<text x="217.59" y="748.01">R182</text>
<circle cx="1825.68" cy="313.64" r="10"/>
<text x="1825.68" y="318.64">R183</text>
<circle cx="1043.58" cy="1753.51" r="10"/>
<text x="1043.58" y="1758.51">R184</text>
<circle cx="1416.17" cy="889.75" r="10"/>
<text x="1416.17" y="894.75">R185</text>
<circle cx="152.06" cy="795.33" r="10"/>
<text x="152.06" y="800.33">R186</text>
<circle cx="952.98" cy="1579.03" r="10"/>
<text x="952.98" y="1584.03">R187</text>
<circle cx="1763.82" cy="524.68" r="10"/>
<text x="1763.82" y="529.68">R188</text>
<circle cx="1993.94" cy="1309.66" r="10"/>
<text x="1993.94" y="1314.66">R189</text>
<circle cx="1102.51" cy="893.34" r="10"/>
<text x="1102.51" y="898.34">R190</text>
<circle cx="1053.93" cy="2023.28" r="10"/>
<text x="1053.93" y="2028.28">R191</text>
<circle cx="1016.38" cy="605.11" r="10"/>
<text x="1016.38" y="610.11">R192</text>
<circle cx="612.32" cy="605.07" r="10"/>
<text x="612.32" y="610.07">R193</text>
<circle cx="1422.51" cy="83.50" r="10"/>
<text x="1422.51" y="88.50">R194</text>
<circle cx="1328.57" cy="1724.37" r="10"/>
<text x="1328.57" y="1729.37">R195</text>
<circle cx="388.43" cy="1536.36" r="10"/>
<text x="388.43" y="1541.36">R196</text>
<circle cx="466.59" cy="452.31" r="10"/>
<text x="466.59" y="457.31">R197</text>
<circle cx="992.76" cy="24.34" r="10"/>
<text x="992.76" y="29.34">R198</text>
<circle cx="216.23" cy="1022.48" r="10"/>
<text x="216.23" y="1027.48">R199</text>
<circle cx="394.33" cy="271.46" r="10"/>
<text x="394.33" y="276.46">R200</text>
<circle cx="1526.71" cy="1249.33" r="10"/>
<text x="1526.71" y="1254.33">R201</text>
<circle cx="898.02" cy="14.88" r="10"/>
<text x="898.02" y="19.88">R202</text>
<circle cx="1331.27" cy="692.89" r="10"/>
<text x="1331.27" y="697.89">R203</text>
<circle cx="1199.00" cy="517.78" r="10"/>
<text x="1199.00" y="522.78">R204</text>
<circle cx="1004.91" cy="378.22" r="10"/>
<text x="1004.91" y="383.22">R205</text>
<circle cx="746.18" cy="909.22" r="10"/>
<text x="746.18" y="914.22">R206</text>
<circle cx="99.82" cy="660.31" r="10"/>
<text x="99.82" y="665.31">R207</text>
<circle cx="1834.17" cy="1462.41" r="10"/>
<text x="1834.17" y="1467.41">R208</text>
<circle cx="1005.45" cy="332.70" r="10"/>
<text x="1005.45" y="337.70">R209</text>
<circle cx="358.62" cy="2044.82" r="10"/>
<text x="358.62" y="2049.82">R210</text>
<circle cx="479.60" cy="2071.52" r="10"/>
<text x="479.60" y="2076.52">R211</text>
<circle cx="411.37" cy="1995.34" r="10"/>
<text x="411.37" y="2000.34">R212</text>
<circle cx="898.10" cy="1557.97" r="10"/>
<text x="898.10" y="1562.97">R213</text>
<circle cx="1242.26" cy="22.03" r="10"/>
<text x="1242.26" y="27.03">R214</text>
<circle cx="933.24" cy="1935.82" r="10"/>
<text x="933.24" y="1940.82">R215</text>
<circle cx="208.53" cy="778.99" r="10"/>
<text x="208.53" y="783.99">R216</text>
<circle cx="1152.79" cy="2043.91" r="10"/>
<text x="1152.79" y="2048.91">R217</text>
<circle cx="1816.14" cy="1153.57" r="10"/>
<text x="1816.14" y="1158.57">R218</text>
<circle cx="247.93" cy="1890.01" r="10"/>
<text x="247.93" y="1895.01">R219</text>
<circle cx="1064.11" cy="143.15" r="10"/>
<text x="1064.11" y="148.15">R220</text>
<circle cx="1656.38" cy="1279.56" r="10"/>
<text x="1656.38" y="1284.56">R221</text>
<circle cx="2080.40" cy="320.66" r="10"/>
<text x="2080.40" y="325.66">R222</text>
<circle cx="965.32" cy="681.02" r="10"/>
<text x="965.32" y="686.02">R223</text>
<circle cx="518.39" cy="1527.62" r="10"/>
<text x="518.39" y="1532.62">R224</text>
<circle cx="565.67" cy="366.87" r="10"/>
<text x="565.67" y="371.87">R225</text>
<circle cx="196.78" cy="546.78" r="10"/>
<text x="196.78" y="551.78">R226</text>
<circle cx="203.97" cy="381.19" r="10"/>
<text x="203.97" y="386.19">R227</text>
<circle cx="2030.40" cy="832.85" r="10"/>
<text x="2030.40" y="837.85">R228</text>
<circle cx="65.29" cy="184.67" r="10"/>
<text x="65.29" y="189.67">R229</text>
<circle cx="1722.71" cy="2044.45" r="10"/>
<text x="1722.71" y="2049.45">R230</text>
<circle cx="1334.57" cy="132.52" r="10"/>
<text x="1334.57" y="137.52">R231</text>
<circle cx="1557.30" cy="1041.29" r="10"/>
<text x="1557.30" y="1046.29">R232</text>
<circle cx="1478.74" cy="1895.41" r="10"/>
<text x="1478.74" y="1900.41">R233</text>
<circle cx="742.08" cy="519.80" r="10"/>
<text x="742.08" y="524.80">R234</text>
<circle cx="1416.08" cy="1007.38" r="10"/>
<text x="1416.08" y="1012.38">R235</text>
<circle cx="1917.30" cy="1825.98" r="10"/>
<text x="1917.30" y="1830.98">R236</text>
<circle cx="2079.88" cy="1214.85" r="10"/>
<text x="2079.88" y="1219.85">R237</text>
<circle cx="511.89" cy="609.43" r="10"/>
<text x="511.89" y="614.43">R238</text>
<circle cx="672.03" cy="877.28" r="10"/>
<text x="672.03" y="882.28">R239</text>
<circle cx="1485.90" cy="1784.08" r="10"/>
<text x="1485.90" y="1789.08">R240</text>
<circle cx="1736.29" cy="249.02" r="10"/>
<text x="1736.29" y="254.02">R241</text>
<circle cx="66.38" cy="1428.30" r="10"/>
<text x="66.38" y="1433.30">R242</text>
<circle cx="1078.40" cy="74.68" r="10"/>
<text x="1078.40" y="79.68">R243</text>
<circle cx="1641.32" cy="936.43" r="10"/>
<text x="1641.32" y="941.43">R244</text>
<circle cx="676.84" cy="341.19" r="10"/>
<text x="676.84" y="346.19">R245</text>
<circle cx="1406.74" cy="1919.23" r="10"/>
<text x="1406.74" y="1924.23">R246</text>
<circle cx="1036.30" cy="348.26" r="10"/>
<text x="1036.30" y="353.26">R247</text>
<circle cx="1771.48" cy="415.61" r="10"/>
<text x="1771.48" y="420.61">R248</text>
<circle cx="1832.63" cy="1866.38" r="10"/>
<text x="1832.63" y="1871.38">R249</text>
<circle cx="950.68" cy="1302.02" r="10"/>
<text x="950.68" y="1307.02">R250</text>
<circle cx="1583.06" cy="1121.12" r="10"/>
<text x="1583.06" y="1126.12">R251</text>
<circle cx="1624.40" cy="613.10" r="10"/>
<text x="1624.40" y="618.10">R252</text>
<circle cx="1025.51" cy="1219.89" r="10"/>
<text x="1025.51" y="1224.89">R253</text>
<circle cx="2031.67" cy="150.68" r="10"/>
<text x="2031.67" y="155.68">R254</text>
<circle cx="1124.94" cy="413.38" r="10"/>
<text x="1124.94" y="418.38">R255</text>
<circle cx="1680.72" cy="536.73" r="10"/>
<text x="1680.72" y="541.73">R256</text>
<circle cx="757.09" cy="986.17" r="10"/>
<text x="757.09" y="991.17">R257</text>
<circle cx="1120.82" cy="265.18" r="10"/>
<text x="1120.82" y="270.18">R258</text>
<circle cx="1904.98" cy="741.01" r="10"/>
<text x="1904.98" y="746.01">R259</text>
<circle cx="1243.31" cy="327.83" r="10"/>
<text x="1243.31" y="332.83">R260</text>
<circle cx="1535.05" cy="1479.20" r="10"/>
<text x="1535.05" y="1484.20">R261</text>
<circle cx="11.97" cy="1722.79" r="10"/>
<text x="11.97" y="1727.79">R262</text>
<circle cx="1296.08" cy="1816.88" r="10"/>
<text x="1296.08" y="1821.88">R263</text>
<circle cx="90.41" cy="1775.76" r="10"/>
<text x="90.41" y="1780.76">R264</text>
<circle cx="1359.80" cy="57.07" r="10"/>
<text x="1359.80" y="62.07">R265</text>
<circle cx="1946.75" cy="975.13" r="10"/>
<text x="1946.75" y="980.13">R266</text>
<circle cx="1472.21" cy="777.38" r="10"/>
<text x="1472.21" y="782.38">R267</text>
<circle cx="1399.16" cy="1495.81" r="10"/>
<text x="1399.16" y="1500.81">R268</text>
<circle cx="1147.02" cy="467.28" r="10"/>
<text x="1147.02" y="472.28">R269</text>
<circle cx="1785.73" cy="165.12" r="10"/>
<text x="1785.73" y="170.12">R270</text>
<circle cx="35.15" cy="902.61" r="10"/>
<text x="35.15" y="907.61">R271</text>
<circle cx="1797.53" cy="1740.39" r="10"/>
<text x="1797.53" y="1745.39">R272</text>
<circle cx="1363.65" cy="828.80" r="10"/>
<text x="1363.65" y="833.80">R273</text>
<circle cx="1288.83" cy="1604.36" r="10"/>
<text x="1288.83" y="1609.36">R274</text>
<circle cx="672.08" cy="1520.96" r="10"/>
<text x="672.08" y="1525.96">R275</text>
<circle cx="156.78" cy="1950.13" r="10"/>
<text x="156.78" y="1955.13">R276</text>
<circle cx="1717.95" cy="510.57" r="10"/>
<text x="1717.95" y="515.57">R277</text>
<circle cx="26.72" cy="1572.15" r="10"/>
<text x="26.72" y="1577.15">R278</text>
<circle cx="2049.88" cy="1182.14" r="10"/>
<text x="2049.88" y="1187.14">R279</text>
<circle cx="1562.47" cy="1958.15" r="10"/>
<text x="1562.47" y="1963.15">R280</text>
<circle cx="54.49" cy="234.93" r="10"/>
<text x="54.49" y="239.93">R281</text>
<circle cx="794.22" cy="1187.91" r="10"/>
<text x="794.22" y="1192.91">R282</text>
<circle cx="2009.88" cy="893.70" r="10"/>
<text x="2009.88" y="898.70">R283</text>
<circle cx="727.96" cy="91.29" r="10"/>
<text x="727.96" y="96.29">R284</text>
<circle cx="1031.48" cy="674.10" r="10"/>
<text x="1031.48" y="679.10">R285</text>
<circle cx="730.00" cy="362.88" r="10"/>
<text x="730.00" y="367.88">R286</text>
<circle cx="1187.65" cy="22.88" r="10"/>
<text x="1187.65" y="27.88">R287</text>
<circle cx="1818.65" cy="1337.49" r="10"/>
<text x="1818.65" y="1342.49">R288</text>
<circle cx="1177.47" cy="1445.30" r="10"/>
<text x="1177.47" y="1450.30">R289</text>
<circle cx="730.46" cy="1628.15" r="10"/>
<text x="730.46" y="1633.15">R290</text>
<circle cx="263.90" cy="213.35" r="10"/>
<text x="263.90" y="218.35">R291</text>
<circle cx="32.65" cy="187.03" r="10"/>
<text x="32.65" y="192.03">R292</text>
<circle cx="1159.59" cy="1867.55" r="10"/>
<text x="1159.59" y="1872.55">R293</text>
<circle cx="205.22" cy="282.25" r="10"/>
<text x="205.22" y="287.25">R294</text>
<circle cx="1280.31" cy="669.88" r="10"/>
<text x="1280.31" y="674.88">R295</text>
<circle cx="1715.33" cy="1266.21" r="10"/>
<text x="1715.33" y="1271.21">R296</text>
<circle cx="1507.83" cy="1888.29" r="10"/>
<text x="1507.83" y="1893.29">R297</text>
<circle cx="1584.69" cy="2027.03" r="10"/>
<text x="1584.69" y="2032.03">R298</text>
<circle cx="827.73" cy="1694.51" r="10"/>
<text x="827.73" y="1699.51">R299</text>
<circle cx="2109.90" cy="1091.85" r="10"/>
<text x="2109.90" y="1096.85">R300</text>
<circle cx="835.54" cy="1072.12" r="10"/>
<text x="835.54" y="1077.12">R301</text>
<circle cx="1612.19" cy="1097.51" r="10"/>
<text x="1612.19" y="1102.51">R302</text>
<circle cx="210.26" cy="1798.50" r="10"/>
<text x="210.26" y="1803.50">R303</text>
<circle cx="2041.46" cy="1818.54" r="10"/>
<text x="2041.46" y="1823.54">R304</text>
<circle cx="1576.48" cy="1254.08" r="10"/>
<text x="1576.48" y="1259.08">R305</text>
<circle cx="806.66" cy="873.70" r="10"/>
<text x="806.66" y="878.70">R306</text>
<circle cx="303.15" cy="2073.75" r="10"/>
<text x="303.15" y="2078.75">R307</text>
<circle cx="1989.76" cy="1669.84" r="10"/>
<text x="1989.76" y="1674.84">R308</text>
<circle cx="1705.97" cy="1224.44" r="10"/>
<text x="1705.97" y="1229.44">R309</text>
<circle cx="1344.60" cy="771.52" r="10"/>
<text x="1344.60" y="776.52">R310</text>
<circle cx="1005.58" cy="1119.83" r="10"/>
<text x="1005.58" y="1124.83">R311</text>
<circle cx="611.62" cy="1587.52" r="10"/>
<text x="611.62" y="1592.52">R312</text>
<circle cx="1168.39" cy="263.28" r="10"/>
<text x="1168.39" y="268.28">R313</text>
<circle cx="134.04" cy="960.04" r="10"/>
<text x="134.04" y="965.04">R314</text>
<circle cx="166.75" cy="724.30" r="10"/>
<text x="166.75" y="729.30">R315</text>
<circle cx="808.95" cy="715.72" r="10"/>
<text x="808.95" y="720.72">R316</text>
<circle cx="524.73" cy="23.30" r="10"/>
<text x="524.73" y="28.30">R317</text>
<circle cx="381.99" cy="2026.99" r="10"/>
<text x="381.99" y="2031.99">R318</text>
<circle cx="1382.25" cy="285.51" r="10"/>
<text x="1382.25" y="290.51">R319</text>
<circle cx="291.47" cy="1949.62" r="10"/>
<text x="291.47" y="1954.62">R320</text>
<circle cx="753.86" cy="1269.63" r="10"/>
<text x="753.86" y="1274.63">R321</text>
<circle cx="1142.98" cy="595.55" r="10"/>
<text x="1142.98" y="600.55">R322</text>
<circle cx="1946.18" cy="635.39" r="10"/>
<text x="1946.18" y="640.39">R323</text>
<circle cx="1013.38" cy="63.53" r="10"/>
<text x="1013.38" y="68.53">R324</text>
<circle cx="898.61" cy="712.13" r="10"/>
<text x="898.61" y="717.13">R325</text>
<circle cx="2113.39" cy="700.86" r="10"/>
<text x="2113.39" y="705.86">R326</text>
<circle cx="602.94" cy="792.60" r="10"/>
<text x="602.94" y="797.60">R327</text>
<circle cx="1865.80" cy="346.36" r="10"/>
<text x="1865.80" y="351.36">R328</text>
<circle cx="1313.24" cy="1160.15" r="10"/>
<text x="1313.24" y="1165.15">R329</text>
<circle cx="1143.06" cy="394.20" r="10"/>
<text x="1143.06" y="399.20">R330</text>
<circle cx="1660.87" cy="1142.23" r="10"/>
<text x="1660.87" y="1147.23">R331</text>
<circle cx="1698.69" cy="324.02" r="10"/>
<text x="1698.69" y="329.02">R332</text>
<circle cx="1788.54" cy="119.05" r="10"/>
<text x="1788.54" y="124.05">R333</text>
<circle cx="2035.87" cy="1506.58" r="10"/>
<text x="2035.87" y="1511.58">R334</text>
<circle cx="1372.94" cy="1863.12" r="10"/>
<text x="1372.94" y="1868.12">R335</text>
<circle cx="151.10" cy="1195.26" r="10"/>
<text x="151.10" y="1200.26">R336</text>
<circle cx="409.60" cy="1788.54" r="10"/>
<text x="409.60" y="1793.54">R337</text>
<circle cx="1987.33" cy="608.67" r="10"/>
<text x="1987.33" y="613.67">R338</text>
<circle cx="1822.05" cy="234.96" r="10"/>
<text x="1822.05" y="239.96">R339</text>
<circle cx="1905.90" cy="858.76" r="10"/>
<text x="1905.90" y="863.76">R340</text>
<circle cx="1062.83" cy="647.42" r="10"/>
<text x="1062.83" y="652.42">R341</text>
<circle cx="1041.32" cy="1464.76" r="10"/>
<text x="1041.32" y="1469.76">R342</text>
<circle cx="1923.57" cy="654.31" r="10"/>
<text x="1923.57" y="659.31">R343</text>
<circle cx="1645.27" cy="1605.08" r="10"/>
<text x="1645.27" y="1610.08">R344</text>
<circle cx="142.64" cy="2088.60" r="10"/>
<text x="142.64" y="2093.60">R345</text>
<circle cx="1660.34" cy="1311.50" r="10"/>
<text x="1660.34" y="1316.50">R346</text>
<circle cx="1079.08" cy="1700.75" r="10"/>
<text x="1079.08" y="1705.75">R347</text>
<circle cx="776.13" cy="251.90" r="10"/>
<text x="776.13" y="256.90">R348</text>
<circle cx="1077.65" cy="1615.98" r="10"/>
<text x="1077.65" y="1620.98">R349</text>
<circle cx="1979.94" cy="1284.05" r="10"/>
<text x="1979.94" y="1289.05">R350</text>
<circle cx="1735.06" cy="1098.14" r="10"/>
<text x="1735.06" y="1103.14">R351</text>
<circle cx="175.15" cy="1702.67" r="10"/>
<text x="175.15" y="1707.67">R352</text>
<circle cx="311.32" cy="944.57" r="10"/>
<text x="311.32" y="949.57">R353</text>
<circle cx="527.54" cy="1288.96" r="10"/>
<text x="527.54" y="1293.96">R354</text>
<circle cx="476.11" cy="950.37" r="10"/>
<text x="476.11" y="955.37">R355</text>
<circle cx="1861.91" cy="999.95" r="10"/>
<text x="1861.91" y="1004.95">R356</text>
<circle cx="151.37" cy="1890.25" r="10"/>
<text x="151.37" y="1895.25">R357</text>
<circle cx="1826.49" cy="1968.70" r="10"/>
<text x="1826.49" y="1973.70">R358</text>
<circle cx="579.11" cy="1706.21" r="10"/>
<text x="579.11" y="1711.21">R359</text>
<circle cx="681.85" cy="1273.68" r="10"/>
<text x="681.85" y="1278.68">R360</text>
<circle cx="531.04" cy="1207.64" r="10"/>
<text x="531.04" y="1212.64">R361</text>
<circle cx="813.23" cy="1164.45" r="10"/>
<text x="813.23" y="1169.45">R362</text>
<circle cx="669.08" cy="114.16" r="10"/>
<text x="669.08" y="119.16">R363</text>
<circle cx="1896.04" cy="1866.39" r="10"/>
<text x="1896.04" y="1871.39">R364</text>
<circle cx="1186.81" cy="1364.52" r="10"/>
<text x="1186.81" y="1369.52">R365</text>
<circle cx="611.25" cy="827.65" r="10"/>
<text x="611.25" y="832.65">R366</text>
<circle cx="883.61" cy="615.28" r="10"/>
<text x="883.61" y="620.28">R367</text>
<circle cx="306.07" cy="795.61" r="10"/>
<text x="306.07" y="800.61">R368</text>
<circle cx="17.25" cy="1957.64" r="10"/>
<text x="17.25" y="1962.64">R369</text>
<circle cx="1595.83" cy="345.99" r="10"/>
<text x="1595.83" y="350.99">R370</text>
<circle cx="318.48" cy="2036.38" r="10"/>
<text x="318.48" y="2041.38">R371</text>
<circle cx="1041.65" cy="1000.91" r="10"/>
<text x="1041.65" y="1005.91">R372</text>
<circle cx="1908.44" cy="1963.08" r="10"/>
<text x="1908.44" y="1968.08">R373</text>
<circle cx="183.39" cy="885.32" r="10"/>
<text x="183.39" y="890.32">R374</text>
<circle cx="724.27" cy="863.80" r="10"/>
<text x="724.27" y="868.80">R375</text>
<circle cx="1014.39" cy="810.32" r="10"/>
<text x="1014.39" y="815.32">R376</text>
<circle cx="339.26" cy="106.40" r="10"/>
<text x="339.26" y="111.40">R377</text>
<circle cx="335.72" cy="166.80" r="10"/>
<text x="335.72" y="171.80">R378</text>
<circle cx="1035.90" cy="375.64" r="10"/>
<text x="1035.90" y="380.64">R379</text>
<circle cx="1904.47" cy="1563.88" r="10"/>
<text x="1904.47" y="1568.88">R380</text>
<circle cx="695.31" cy="1300.68" r="10"/>
<text x="695.31" y="1305.68">R381</text>
<circle cx="1856.22" cy="1259.28" r="10"/>
<text x="1856.22" y="1264.28">R382</text>
<circle cx="1258.21" cy="1589.15" r="10"/>
<text x="1258.21" y="1594.15">R383</text>
<circle cx="61.56" cy="51.30" r="10"/>
<text x="61.56" y="56.30">R384</text>
<circle cx="1470.84" cy="1827.14" r="10"/>
<text x="1470.84" y="1832.14">R385</text>
<circle cx="1125.45" cy="1783.41" r="10"/>
<text x="1125.45" y="1788.41">R386</text>
<circle cx="2000.96" cy="160.06" r="10"/>
<text x="2000.96" y="165.06">R387</text>
<circle cx="1407.63" cy="1986.70" r="10"/>
<text x="1407.63" y="1991.70">R388</text>
<circle cx="479.23" cy="768.00" r="10"/>
<text x="479.23" y="773.00">R389</text>
<circle cx="62.19" cy="2001.05" r="10"/>
<text x="62.19" y="2006.05">R390</text>
<circle cx="10.49" cy="741.84" r="10"/>
<text x="10.49" y="746.84">R391</text>
<circle cx="437.07" cy="995.63" r="10"/>
<text x="437.07" y="1000.63">R392</text>
<circle cx="1620.25" cy="1293.57" r="10"/>
<text x="1620.25" y="1298.57">R393</text>
<circle cx="554.78" cy="24.44" r="10"/>
<text x="554.78" y="29.44">R394</text>
<circle cx="1920.68" cy="92.45" r="10"/>
<text x="1920.68" y="97.45">R395</text>
<circle cx="188.45" cy="1944.31" r="10"/>
<text x="188.45" y="1949.31">R396</text>
<circle cx="557.30" cy="1979.87" r="10"/>
<text x="557.30" y="1984.87">R397</text>
<circle cx="1407.43" cy="2117.93" r="10"/>
<text x="1407.43" y="2122.93">R398</text>
<circle cx="1802.86" cy="1462.47" r="10"/>
<text x="1802.86" y="1467.47">R399</text>
<circle cx="458.08" cy="1938.53" r="10"/>
<text x="458.08" y="1943.53">R400</text>
<circle cx="1545.05" cy="1615.14" r="10"/>
<text x="1545.05" y="1620.14">R401</text>
<circle cx="592.42" cy="1440.56" r="10"/>
<text x="592.42" y="1445.56">R402</text>
<circle cx="1768.99" cy="58.57" r="10"/>
<text x="1768.99" y="63.57">R403</text>
<circle cx="1945.11" cy="172.65" r="10"/>
<text x="1945.11" y="177.65">R404</text>
<circle cx="511.37" cy="1034.30" r="10"/>
<text x="511.37" y="1039.30">R405</text>
<circle cx="226.75" cy="474.17" r="10"/>
<text x="226.75" y="479.17">R406</text>
<circle cx="682.64" cy="1027.18" r="10"/>
<text x="682.64" y="1032.18">R407</text>
<circle cx="1220.73" cy="1827.43" r="10"/>
<text x="1220.73" y="1832.43">R408</text>
<circle cx="954.57" cy="928.12" r="10"/>
<text x="954.57" y="933.12">R409</text>
<circle cx="1056.98" cy="1255.51" r="10"/>
<text x="1056.98" y="1260.51">R410</text>
<circle cx="2094.62" cy="1478.61" r="10"/>
<text x="2094.62" y="1483.61">R411</text>
<circle cx="1693.38" cy="433.19" r="10"/>
<text x="1693.38" y="438.19">R412</text>
<circle cx="2013.93" cy="1547.84" r="10"/>
<text x="2013.93" y="1552.84">R413</text>
<circle cx="217.26" cy="641.55" r="10"/>
<text x="217.26" y="646.55">R414</text>
<circle cx="608.76" cy="1150.63" r="10"/>
<text x="608.76" y="1155.63">R415</text>
<circle cx="1491.08" cy="1043.38" r="10"/>
<text x="1491.08" y="1048.38">R416</text>
<circle cx="1886.22" cy="150.81" r="10"/>
<text x="1886.22" y="155.81">R417</text>
<circle cx="1857.99" cy="198.37" r="10"/>
<text x="1857.99" y="203.37">R418</text>
<circle cx="641.33" cy="1443.38" r="10"/>
<text x="641.33" y="1448.38">R419</text>
<circle cx="365.59" cy="598.32" r="10"/>
<text x="365.59" y="603.32">R420</text>
<circle cx="675.19" cy="729.68" r="10"/>
<text x="675.19" y="734.68">R421</text>
<circle cx="420.50" cy="2042.80" r="10"/>
<text x="420.50" y="2047.80">R422</text>
<circle cx="954.84" cy="1403.54" r="10"/>
<text x="954.84" y="1408.54">R423</text>
<circle cx="1600.97" cy="2088.46" r="10"/>
<text x="1600.97" y="2093.46">R424</text>
<circle cx="21.66" cy="1238.19" r="10"/>
<text x="21.66" y="1243.19">R425</text>
<circle cx="2117.79" cy="1584.51" r="10"/>
<text x="2117.79" y="1589.51">R426</text>
<circle cx="1560.19" cy="1564.59" r="10"/>
<text x="1560.19" y="1569.59">R427</text>
<circle cx="1352.77" cy="2033.48" r="10"/>
<text x="1352.77" y="2038.48">R428</text>
<circle cx="1857.94" cy="310.21" r="10"/>
<text x="1857.94" y="315.21">R429</text>
<circle cx="2030.34" cy="12.28" r="10"/>
<text x="2030.34" y="17.28">R430</text>
<circle cx="1447.08" cy="903.77" r="10"/>
<text x="1447.08" y="908.77">R431</text>
<circle cx="1023.40" cy="1492.00" r="10"/>
<text x="1023.40" y="1497.00">R432</text>
<circle cx="178.28" cy="685.17" r="10"/>
<text x="178.28" y="690.17">R433</text>
<circle cx="214.95" cy="981.55" r="10"/>
<text x="214.95" y="986.55">R434</text>
<circle cx="230.83" cy="1990.12" r="10"/>
<text x="230.83" y="1995.12">R435</text>
<circle cx="557.87" cy="92.40" r="10"/>
<text x="557.87" y="97.40">R436</text>
<circle cx="373.81" cy="22.55" r="10"/>
<text x="373.81" y="27.55">R437</text>
<circle cx="1297.59" cy="492.34" r="10"/>
<text x="1297.59" y="497.34">R438</text>
<circle cx="1717.36" cy="1002.56" r="10"/>
<text x="1717.36" y="1007.56">R439</text>
<circle cx="897.25" cy="1844.78" r="10"/>
<text x="897.25" y="1849.78">R440</text>
<circle cx="772.98" cy="207.11" r="10"/>
<text x="772.98" y="212.11">R441</text>
<circle cx="1357.88" cy="492.56" r="10"/>
<text x="1357.88" y="497.56">R442</text>
<circle cx="1852.01" cy="1589.63" r="10"/>
<text x="1852.01" y="1594.63">R443</text>
<circle cx="66.30" cy="1544.72" r="10"/>
<text x="66.30" y="1549.72">R444</text>
<circle cx="1752.09" cy="1801.30" r="10"/>
<text x="1752.09" y="1806.30">R445</text>
<circle cx="91.35" cy="12.76" r="10"/>
<text x="91.35" y="17.76">R446</text>
<circle cx="1425.77" cy="1234.51" r="10"/>
<text x="1425.77" y="1239.51">R447</text>
<circle cx="1250.37" cy="199.60" r="10"/>
<text x="1250.37" y="204.60">R448</text>
<circle cx="785.28" cy="1518.68" r="10"/>
<text x="785.28" y="1523.68">R449</text>
</svg>
